<?xml version="1.0" encoding="UTF-8" standalone="no"?>
<svg xmlns:ffdec="https://www.free-decompiler.com/flash" xmlns:xlink="http://www.w3.org/1999/xlink" ffdec:objectType="frame" height="12.65px" width="13.25px" xmlns="http://www.w3.org/2000/svg">
  <g transform="matrix(1.0, 0.0, 0.0, 1.0, -2.3, 1.45)">
    <use ffdec:characterId="3" height="3.15" transform="matrix(1.0, 0.0, 0.0, 1.0, 2.3, 6.15)" width="13.25" xlink:href="#shape0"/>
  </g>
  <defs>
    <g id="shape0" transform="matrix(1.0, 0.0, 0.0, 1.0, -2.3, -6.15)">
      <path d="M12.95 8.8 L10.95 9.25 6.3 9.1 5.55 9.1 5.4 9.1 6.0 9.0 5.4 9.05 5.25 9.05 4.7 8.95 4.2 8.75 4.55 8.75 5.25 8.65 4.95 8.5 4.4 8.55 3.75 8.45 3.3 8.2 4.35 8.15 4.1 8.0 3.8 8.0 2.3 7.75 3.6 7.6 2.9 6.9 3.35 7.1 5.2 7.6 7.4 8.0 Q9.8 8.45 15.45 7.8 L15.55 7.75 15.45 7.85 14.3 8.3 12.95 8.8" fill="#333333" fill-rule="evenodd" stroke="none"/>
      <path d="M12.9 6.2 Q13.9 6.35 14.5 6.75 15.1 7.15 14.35 7.15 L13.1 7.2 10.45 7.15 10.05 7.1 Q10.3 6.8 11.1 6.45 11.9 6.05 12.9 6.2" fill="#000000" fill-opacity="0.23921569" fill-rule="evenodd" stroke="none"/>
    </g>
  </defs>
</svg>
