<?xml version="1.0" encoding="UTF-8" standalone="no"?>
<svg xmlns:ffdec="https://www.free-decompiler.com/flash" xmlns:xlink="http://www.w3.org/1999/xlink" ffdec:objectType="frame" height="11.25px" width="12.95px" xmlns="http://www.w3.org/2000/svg">
  <g transform="matrix(1.0, 0.0, 0.0, 1.0, 2.95, 0.0)">
    <use ffdec:characterId="9" height="2.55" transform="matrix(1.0, 0.0, 0.0, 1.0, -2.15, 6.9)" width="12.15" xlink:href="#shape0"/>
  </g>
  <defs>
    <g id="shape0" transform="matrix(1.0, 0.0, 0.0, 1.0, 2.15, -6.9)">
      <path d="M1.75 7.85 L1.5 7.8 -2.15 7.2 -2.15 7.15 -1.9 7.15 2.45 7.45 7.85 6.9 6.65 7.35 4.1 7.85 1.75 7.85" fill="#5d2900" fill-opacity="0.29803923" fill-rule="evenodd" stroke="none"/>
      <path d="M0.25 8.95 L-1.0 8.4 -2.05 7.9 -2.15 7.8 -2.05 7.85 5.3 8.05 7.35 7.65 9.05 7.1 9.45 6.9 8.8 7.65 10.0 7.8 8.6 8.05 8.35 8.05 8.1 8.25 9.1 8.3 8.65 8.55 8.05 8.65 7.55 8.6 7.3 8.75 7.95 8.85 8.25 8.85 7.8 9.1 7.3 9.2 7.15 9.2 6.6 9.15 7.15 9.25 7.0 9.25 6.35 9.25 2.05 9.4 0.25 8.95" fill="#200900" fill-rule="evenodd" stroke="none"/>
    </g>
  </defs>
</svg>
