<svg xmlns="http://www.w3.org/2000/svg" width="13.1" height="10.2"><use><animate attributeName="xlink:href" begin="0s" dur="1.0s" repeatCount="indefinite" values="#EyeL8_a;#EyeL8_b;#EyeL8_c;#EyeL8_b;#EyeL8_a"/></use><defs><path id="a" fill="#fff" fill-rule="evenodd" d="m5.1 4.9.1-.15-.15.05zm9.05 3.35-.65 1q-1.25 1.6-3.75 1.55-2.5-.1-4.6-1.9t-2.1-2.35q.05-.6.8-1.55l.9-1.05q.95-.7 3.75-1.3 2.7.15 4.55 1.6 1.6 1.25 1.65 2.3l-.1.75-.25.45z"/><path id="b" fill="#325903" fill-rule="evenodd" d="m5.05 7.35-1.45.2q-1.05 0-1.85-.45Q.9 6.65.3 5.55q-.6-1.05-.55-2.2Q0 .25 3.35 0l1.3.05 1.5.95q.9.95 1.05 2.35.1 1.4-.35 2.25l-.9 1.2z"/><g id="c" fill-rule="evenodd"><path fill="#fff" fill-opacity=".259" d="M11.7 6.1h.15l.15.15.05.45-.05.7-.2.7h-.05Q11.2 9.9 8.9 9.45 6.65 8.95 7 6.4q.1-.85.4-.85l.1.05h.05v1.45l.3.6.5.5q.3.25.8.3h1.25l.95-.75.35-.95.05-.35-.05-.05zm-.95 1.55q-.6.5-1.3.4-.75-.1-1.2-.75-.55-.6-.35-1.45.25-.85.9-1.15l1.2-.1q.5.1 1 .6.4.6.35 1.3-.1.75-.6 1.15"/><path fill-opacity=".2" d="M13.4 4.65q1.45 1.2 1.45 2.1v.05l-.2.5-.35.6-.2.5L13 7.05l-.45-.65q-1.35-1.45-3.9-1.45-1.9 0-3.25 1.45l-.6.7-.5.7-1.5-1.5q0-.7 1.1-1.8l.9-.7q1.3-.85 3-.85 3.5 0 5.6 1.7"/><path fill="#513624" d="m15.15 6.1-.3.9-.1.05-.15-.25-.25-.5-.6-.8q-.8-1.15-2.55-1.85-1.7-.7-2.7-.65l-2.3.6q-.75.25-1.4 1.05L3.95 6l-.05.25q0 .45.5 1.5l.25.45.6.85L4 8.2Q2.75 6.85 2.2 5.8l2.1-2.35.5-.4q.65-.45 1.8-.85l1-.3 3.15.3.5.15 1.4.55 1.4 1.1 1.2 1.55-.15.45z"/><path fill="#6b3a00" fill-opacity=".694" d="M14.45 3.15q-.8-.8-2.1-1.35Q11.1 1.2 6.7 1q4.95-.85 6.55.1Q14.9 2 15 2.8l.2 1.1z"/><path fill="#fff" d="M10.35 7.5q-.1-.6.85-.45.9.2.95.75.1.65-.6.75-.9.1-1.2-1.05m-3.1-2q0-.6.65-.6.6 0 .6.65-.05.6-.65.55-.65-.05-.6-.6"/><path fill="#9c6" fill-opacity=".506" d="M10.4 8.85q-.05.6-.75.75l-.9.05H8.7q-.85 0-1.4-.65t-.35-1.4Q7.1 6.8 8 6.85q.85.05 1.35.4l.8.7z"/></g></defs></svg>