<svg xmlns="http://www.w3.org/2000/svg" xmlns:ffdec="https://www.free-decompiler.com/flash" xmlns:xlink="http://www.w3.org/1999/xlink" ffdec:objectType="frame" width="8.15" height="22.45"><use ffdec:characterId="1" xlink:href="#a" width="8.15" height="22.45"/><defs><linearGradient id="b" x1="-819.2" x2="819.2" gradientTransform="matrix(0 .0103 -.0102 0 7.15 -3.65)" gradientUnits="userSpaceOnUse" spreadMethod="pad"><stop offset="0"/><stop offset=".533" stop-color="#666"/><stop offset="1"/></linearGradient><linearGradient id="c" x1="-819.2" x2="819.2" gradientTransform="matrix(-.0002 .0102 -.0101 -.0001 6.4 -3.3)" gradientUnits="userSpaceOnUse" spreadMethod="pad"><stop offset="0"/><stop offset=".533" stop-color="#666"/><stop offset="1"/></linearGradient><linearGradient id="d" x1="-819.2" x2="819.2" gradientTransform="matrix(0 .011 -.0111 0 5.6 -2.3)" gradientUnits="userSpaceOnUse" spreadMethod="pad"><stop offset="0"/><stop offset=".533" stop-color="#666"/><stop offset="1"/></linearGradient><linearGradient id="e" x1="-819.2" x2="819.2" gradientTransform="matrix(0 .0112 -.0113 0 4.8 -2.05)" gradientUnits="userSpaceOnUse" spreadMethod="pad"><stop offset="0"/><stop offset=".533" stop-color="#666"/><stop offset="1"/></linearGradient><linearGradient id="f" x1="-819.2" x2="819.2" gradientTransform="matrix(0 .0111 -.0111 0 3.85 -2)" gradientUnits="userSpaceOnUse" spreadMethod="pad"><stop offset="0"/><stop offset=".533" stop-color="#666"/><stop offset="1"/></linearGradient><linearGradient id="g" x1="-819.2" x2="819.2" gradientTransform="matrix(0 .0112 -.0111 0 3 -2.2)" gradientUnits="userSpaceOnUse" spreadMethod="pad"><stop offset="0"/><stop offset=".533" stop-color="#666"/><stop offset="1"/></linearGradient><linearGradient id="h" x1="-819.2" x2="819.2" gradientTransform="matrix(.0023 -.0009 .0006 .0016 5.4 4.5)" gradientUnits="userSpaceOnUse" spreadMethod="pad"><stop offset="0"/><stop offset=".533" stop-color="#4c4c4c"/><stop offset="1"/></linearGradient><linearGradient id="i" x1="-819.2" x2="819.2" gradientTransform="matrix(.0004 .0017 -.0022 .0007 4.95 4.6)" gradientUnits="userSpaceOnUse" spreadMethod="pad"><stop offset="0"/><stop offset=".533" stop-color="#4c4c4c"/><stop offset="1"/></linearGradient><linearGradient id="j" x1="-819.2" x2="819.2" gradientTransform="matrix(.005 0 0 .0044 4.45 5.7)" gradientUnits="userSpaceOnUse" spreadMethod="pad"><stop offset=".169" stop-color="#262626"/><stop offset="1"/></linearGradient><linearGradient id="k" x1="-819.2" x2="819.2" gradientTransform="matrix(0 .0018 -.0017 0 7.75 6.6)" gradientUnits="userSpaceOnUse" spreadMethod="pad"><stop offset=".169" stop-color="#262626"/><stop offset="1"/></linearGradient><linearGradient id="l" x1="-819.2" x2="819.2" gradientTransform="matrix(.0042 0 0 .0019 3.95 -11.6)" gradientUnits="userSpaceOnUse" spreadMethod="pad"><stop offset="0"/><stop offset=".533" stop-color="#666"/><stop offset="1"/></linearGradient><linearGradient id="m" x1="-819.2" x2="819.2" gradientTransform="matrix(.0044 0 0 .0012 3.95 -12.3)" gradientUnits="userSpaceOnUse" spreadMethod="pad"><stop offset="0"/><stop offset=".533" stop-color="#666"/><stop offset="1"/></linearGradient><linearGradient id="n" x1="-819.2" x2="819.2" gradientTransform="matrix(.0042 0 0 .0011 4.05 -11)" gradientUnits="userSpaceOnUse" spreadMethod="pad"><stop offset="0"/><stop offset=".533" stop-color="#666"/><stop offset="1"/></linearGradient><g id="a" fill-rule="evenodd"><path fill="url(#b)" d="m6.75-11.9.1-.05h.1l.05.1.6 16.4-.05.1-.1.05-.05-.05-.05-.1-.6-16.4z" transform="translate(-.4 13.25)"/><path fill="url(#c)" d="M5.75-11.45v-.05l.1-.05h.1l.05.1.55 7.65.55 8.65-.05.1-.1.05-.1-.05v-.1L6.3-3.8z" transform="translate(-.4 13.25)"/><path fill="url(#d)" d="m4.85-11.35.05.1.85 7.6.8 8.1-1.1 2.25-.05.05-.1-.05-.05-.05v-.1L6.3 4.4l-.8-8-.85-7.6v-.1l.1-.05z" transform="translate(-.4 13.25)"/><path fill="url(#e)" d="m3.9-11.25.05.1 1 7.35 1 8.25q0 .8-.6 1.55L4.3 7.15l-.1.05-.1-.05v-.2l1.05-1.1.55-1.4-1-8.2-1-7.35v-.1l.1-.05z" transform="translate(-.4 13.25)"/><path fill="url(#f)" d="m2.65-11.05.05.1L5.3 2.9q.2 1.65-.45 2.65L3.3 7.05l-.1.05-.1-.05v-.1l.05-.1 1.5-1.45q.55-.95.4-2.45L2.45-10.9v-.1l.1-.05z" transform="translate(-.4 13.25)"/><path fill="url(#g)" d="M1.15-11.1v-.1l.1-.05h.05l.1.1q3.35 12.2 3.4 14T2.7 6.8l-.1.05-.1-.05v-.2q2.05-2.05 2.05-3.75-.1-1.8-3.4-13.95" transform="translate(-.4 13.25)"/><path fill-opacity=".4" d="m.25 1.9 2.05.35q2.45.1 4.65-1.2l.3 7.9q.35 7.2.1 8.65T4.9 20.1q-1.85.9-2.8.85-.1-.15.1-.7.35-1.1 1.8-3.15.15-1.95-1.35-6.6-1.6-4.75-2.4-8.6"/><path fill="url(#h)" d="M5.25 4.7q-.35.15-.6.4L2.9 6.35l.25-.6 1.4-1.05.5-.4 2.7-1.85q.05.6-.3 1z" transform="translate(-.4 13.25)"/><path fill="url(#i)" d="m4.15 4.2.15-1.25 1.4 2.8-.5.4z" transform="translate(-.4 13.25)"/><path fill="url(#j)" d="m8.3 5.15-.3.4-.85.65-.3.2q-.8.65-1.2 2l-1.55.55q-1.9.5-3.65-.05v-1l.5-.75 1.45-1 2-2.35-1 1.85q-.65.95-.3 1.05Q5.75 6.15 7 4.1q.65-1.05.75-2 .8.7.8 2.05z" transform="translate(-.4 13.25)"/><path fill="url(#k)" d="M7.15 6.2 8 5.55l.3-.4Q8 6.4 7.85 7.95q-.3.3-.6 0z" transform="translate(-.4 13.25)"/><path fill="#fff" fill-opacity=".694" d="m.95 21.75-.3-.2q0-.15.3-.2l.7-.1.7.1.3.2-.3.2-.7.05z"/><path fill="url(#l)" d="m6.4-11.2-1.15.4-1.15.2-1.35.05H2.7l-1.05-.1-.9-.25-.25-.9.85.2.85.1h1.5l1.55-.25 1.1-.4 1-.5v.95q-.5.3-.95.5" transform="translate(-.4 13.25)"/><path fill="url(#m)" d="M7.15-13.2h.2v.7-.05l-.05-.05-.1-.35-.25.6-.05.05-.1.05-.05-.05-.05-.05-.15-.25H6.5l-.35.7-.1.05-.05.05-.1-.1-.4-.35-.4.6-.1.1h-.1l-.05-.1-.4-.4-.4.55-.1.1h-.1l-.05-.1-.4-.45-.6.6-.05.05h-.1l-.05-.1-.45-.5-.55.45-.05.05q-.1 0-.1-.05l-.05-.05-.25-.5-.25-.05h.05l-.35.3-.05.05-.05-.15V-12l.3-.25.5.05.25.4.6-.35.6.45q.3-.5.65-.5l.5.35q.25-.45.55-.45.25-.05.5.3.2-.45.5-.5.25-.1.5.3l.45-.65.3.05.1.1z" transform="translate(-.4 13.25)"/><path fill="url(#n)" d="M7.3-11.85h.05v.75l-.1.1-.2-.05-.1-.1-.15.3q-.2.25-.45.15v-.05l-.2-.15-.2.35-.45.15-.05-.05-.35-.15q-.35.6-.8.35l-.3-.2q-.35.55-.85.35v-.05l-.35-.25-.35.2q-.45.25-.75-.3l-.3.2-.5-.15-.1-.1-.1-.55h.1l.1.05.2.4q.1.15.25.15l.25-.25.1-.05h.05l.05.05q.25.45.55.35l.3-.25.05-.05h.15l.4.35q.35.1.6-.35l.05-.05h.15l.4.3H4.4l.55-.4.05-.05h.15l.4.25.25-.05.15-.45.05-.1h.15l.3.3.15-.05.15-.5v-.1h.2l.05.05.15.3.1-.5z" transform="translate(-.4 13.25)"/></g></defs></svg>