<?xml version="1.0" encoding="UTF-8" standalone="no"?>
<svg xmlns:ffdec="https://www.free-decompiler.com/flash" xmlns:xlink="http://www.w3.org/1999/xlink" ffdec:objectType="frame" height="19.9px" width="7.55px" xmlns="http://www.w3.org/2000/svg">
  <g transform="matrix(1.0, 0.0, 0.0, 1.0, -0.6, 10.7)">
    <use ffdec:characterId="1" height="19.9" transform="matrix(1.0, 0.0, 0.0, 1.0, 0.6, -10.7)" width="7.55" xlink:href="#shape0"/>
  </g>
  <defs>
    <g id="shape0" transform="matrix(1.0, 0.0, 0.0, 1.0, -0.6, 10.7)">
      <path d="M0.6 -10.45 L3.9 -10.15 6.8 -10.45 7.35 -10.7 7.9 -0.7 Q8.1 3.6 7.65 5.1 6.9 6.1 5.55 6.85 2.35 8.15 2.65 6.6 2.9 5.25 4.2 4.45 4.45 3.55 4.3 2.3 4.25 0.85 3.8 -0.2 1.8 -5.95 0.6 -10.45" fill="#1c172c" fill-rule="evenodd" stroke="none"/>
      <path d="M6.1 -4.65 L5.4 -7.75 Q5.1 -9.3 4.35 -10.15 L6.8 -10.45 7.35 -10.7 7.9 -0.7 Q8.1 3.6 7.65 5.1 6.9 6.1 5.55 6.85 2.35 8.15 2.65 6.6 2.8 5.85 3.3 5.25 5.1 6.35 6.0 4.15 6.85 1.95 6.6 -0.8 L6.1 -4.65" fill="#100c1e" fill-rule="evenodd" stroke="none"/>
      <path d="M6.5 4.25 L6.5 4.3 6.5 4.25 M8.1 4.4 L8.05 6.0 7.05 6.9 6.85 7.05 6.8 7.15 5.9 7.75 Q5.75 7.6 5.75 6.9 5.75 6.0 6.1 5.75 L6.15 5.65 8.1 4.4 M1.1 8.35 L1.15 7.65 Q1.25 6.6 2.2 6.05 L3.25 5.25 3.3 5.1 3.45 4.85 3.55 4.7 3.65 4.55 5.5 4.6 5.6 4.65 5.6 4.6 5.9 4.6 5.95 4.7 Q5.95 5.45 5.35 6.25 L4.85 7.2 4.85 7.55 4.9 8.15 3.95 8.45 1.1 8.35 M6.45 7.4 L6.8 7.15 6.5 7.35 6.45 7.4" fill="#ffffff" fill-opacity="0.9882353" fill-rule="evenodd" stroke="none"/>
      <path d="M5.45 3.1 L5.45 3.0 5.45 3.1 M3.65 4.55 L3.65 4.5 3.85 4.1 4.0 4.05 6.05 4.15 6.1 4.1 6.25 4.15 6.45 4.15 6.5 4.25 6.5 4.3 6.55 4.3 6.45 4.7 6.35 4.95 6.35 5.0 7.25 4.55 8.15 3.9 8.1 4.4 6.15 5.65 6.1 5.75 Q5.75 6.0 5.75 6.9 5.75 7.6 5.9 7.75 L6.8 7.15 6.85 7.05 7.05 6.9 8.05 6.0 7.95 6.75 7.4 7.25 6.45 8.0 5.8 8.45 Q4.85 9.05 3.4 9.15 L1.45 9.0 1.1 8.35 3.95 8.45 4.9 8.15 4.85 7.55 4.85 7.2 5.35 6.25 Q5.95 5.45 5.95 4.7 L5.9 4.6 5.6 4.6 5.6 4.65 5.5 4.6 3.65 4.55 M6.45 7.4 L6.5 7.35 6.8 7.15 6.45 7.4" fill="#ff0066" fill-rule="evenodd" stroke="none"/>
      <path d="M7.05 4.65 L7.9 4.1 8.05 3.95 8.15 4.2 8.0 6.6 8.0 6.7 7.4 7.25 6.45 8.0 5.8 8.45 3.8 9.15 3.4 9.15 3.0 9.2 2.65 9.2 1.9 9.1 1.85 9.0 1.65 8.75 1.65 8.65 1.65 8.3 1.65 7.8 Q1.7 7.5 2.05 7.5 L2.5 7.6 3.2 7.65 5.0 7.3 6.6 6.2 7.0 5.05 7.05 4.65" fill="#db1c5c" fill-opacity="0.27058825" fill-rule="evenodd" stroke="none"/>
    </g>
  </defs>
</svg>
