<svg xmlns="http://www.w3.org/2000/svg" xmlns:ffdec="https://www.free-decompiler.com/flash" xmlns:xlink="http://www.w3.org/1999/xlink" ffdec:objectType="frame" width="8.45" height="18.6"><use ffdec:characterId="1" xlink:href="#a" width="8.45" height="18.6"/><defs><g id="a" fill-rule="evenodd"><path fill="#dd99a2" d="m7.3 12.3.05-.05-.1.4v.05l-.05.05v-.05l.05-.05zm.1-.1v-.1l.05.1.05.1-.05-.1zm.4-.2.35-.5.05.15-.05.1zm-.4.55q.25.15.05.85l.05-.2zm-.35.35v-.05h.05zm-5.1 5.15.1.05-.25.1-.15-.15z"/><path fill="#ccc" d="m1.6 18 .05.05.15.15.2.05h1.85l1.75-.8.3-.2.15-.1.25-.2-.05.35h.05l-.1.05-.05.05-.05.05-.95.6-.95.35-1.65.15-.75-.15-.2-.25-.05-.1zm5.7-2.25.05-.1-.05 1.15-.5.45-.05.1.05-.85zm-5.65 2.3H1.6zm4.05-.25-.45.2.7-.35z"/><path fill="#fff" d="m1.5 11.7.9.4-.2.3-.1.1-.2.05-.4-.15-.15-.35.05-.2zm1.05.45.95.25-.2.35-.25.15H3l-.35-.1-.05-.05-.15-.35zm4.5.75H7l-.25.1-.4-.15-.15-.3v-.1l.4-.05.6-.1h.1v-.15.15l-.05.35-.05.05v.05l-.05.05-.05.05h-.05zm.4-.7.2-.15.15-.05.35-.25.1.05.2.4-.05.2-.15.15-.05.05-.25.1-.4-.15-.05-.15-.05.05v-.05l-.05-.2zl.05.1zm-2.7.35-.2.35-.3.15-.4-.15-.15-.35v-.05l.05-.05 1 .05zm.2-.05H6v.1l-.05.2-.15.15-.05.05-.25.1-.4-.15-.15-.35zm-2.1-2.15-.8 1.15-.15-.25q0-.15.35-.95.35-.85.45-.5zm.3 5.45.1.25v.1l-.1.1-.4-.35v-.1zm-.7.1v.05l.5.4-.25.1-.25.05-.35-.05z"/><path fill="#999" d="M7.3 15.55v.2l-.5.75-.05.85H6.7l-.4-.05h-.05l.05-.35-.25.2-.15.1-.3.2-1.75.8H2l-.2-.05.25-.1-.1-.05h.5l.35.05h.8l.35-.15.6-.2 1-.55.1-.05.2-.2 1.45-1.5z"/><path d="m6.6 12.4.05-.35.3-1.15V10l-.05-.1-1.75.2q-2.1.05-2.6-.6l.1-.3Q3.7 8.45 5 8.45q1.35-.05 2.45.75l.15.25-.05.1h.05l.55 1.9v.05l-.35.5-.15.05-.2.15-.05-.1v.1l-.05.05-.05.05v-.15.15h-.1zm-3.6.85q.3.4 2.3.9l-.85.05-.95-.3-.3-.3-.15-.25v-.05zm-1.35 4.8-.15-.4.5.2h.2l-.05-.05h.95q1.4-.45 2.3-1.35l.8-1.05-.05-.05-.35-.05-1.55-.5h2.3L6 14.7q-1-.1-.25-.25l1.05-.65-1.55-.05-.85-.25h.9l.45.05.75-.2.55-.45.05-.05.05-.05.05-.05.05-.05.15-.15.1.65-.05.2q-.1-.05-.05.05l-.15.1.2.4V14l-.1 1.5-.05.05v-.1l-1.45 1.5-.2.2-.1.05-1 .55-.6.2-.35.15h-.8l-.35-.05H1.6z"/><path fill="#333" d="m2.65 9.2-.1.3q.5.65 2.6.6l1.75-.2.05.1v.9l-.3 1.15-.05.35-.4.05v.1l.15.3.4.15.25-.1h.05l-.55.45-.75.2-.45-.05h-.9l.85.25 1.55.05-1.05.65q-.75.15.25.25l.55.1h-2.3l1.55.5.35.05.05.05-.8 1.05q-.9.9-2.3 1.35h-.95l.05.05H2l-.5-.2.15.4L1.6 18l-.35-.85q-.05-.6.15-1l.35-.4.45-.3.9-.6.4-.55.05-.3-.05-.1.95.3.85-.05q-2-.5-2.3-.9l.05-.35.25-.15.2-.35-.95-.25-.15-.05-.9-.4-.05-.05.45-.9.5-1zm2.1 3.35v-.05l-1-.05-.05.05v.05l.15.35.4.15.3-.15zm.2-.05v.1l.15.35.4.15.25-.1.05-.05.15-.15.05-.2v-.1H4.95m-2.1-2.15L2.7 9.8q-.1-.35-.45.5-.35.8-.35.95l.15.25zm.3 5.45h-.4v.1l.4.35.1-.1v-.1zm-.7.1-.35.55.35.05.25-.05.25-.1-.5-.4z"/><path fill="#680b09" d="m1.9 10.75-.45.9.05.05-.1.15L.25 12l-.05-.25q0-.4 1.4-.9z"/><path fill="#a10d0b" d="m2.4 9.75-.5 1-.3.1q-1.4.5-1.4.9l.05.25-.15-.05Q-.1 10.1.9 8.8q.8.25 1.5.95m-.9 2.65.4.15.2-.05.1-.1-.95 1.5-.25-.5-.55-.05z"/><path fill="#fff" d="m6.7 9.75-3.65-.1-2-6.25L0 0h5.85l.85 9.7z"/><path fill="#e6e7f2" d="M5.85 0h.9l.5 9.45-.2.2-.15.05-.2.05V9.7z"/></g></defs></svg>