<?xml version="1.0" encoding="UTF-8" standalone="no"?>
<svg xmlns:ffdec="https://www.free-decompiler.com/flash" xmlns:xlink="http://www.w3.org/1999/xlink" ffdec:objectType="frame" height="19.7px" width="10.6px" xmlns="http://www.w3.org/2000/svg">
  <g transform="matrix(1.0, 0.0, 0.0, 1.0, 0.9, 10.6)">
    <use ffdec:characterId="1" height="19.7" transform="matrix(1.0, 0.0, 0.0, 1.0, -0.9, -10.6)" width="10.6" xlink:href="#shape0"/>
  </g>
  <defs>
    <g id="shape0" transform="matrix(1.0, 0.0, 0.0, 1.0, 0.9, 10.6)">
      <path d="M5.1 -9.75 L5.95 -10.0 7.4 -10.6 7.45 -10.45 7.5 -10.45 7.45 -9.0 7.45 -7.4 7.65 -1.75 7.75 0.3 7.7 3.55 7.65 5.95 7.55 6.25 Q6.75 6.85 5.5 7.1 L4.15 7.7 2.45 8.2 Q1.6 7.75 1.2 6.45 L3.35 6.1 Q3.6 6.75 5.3 5.5 L6.1 5.05 Q6.7 4.6 6.75 2.7 L6.65 0.3 6.5 -1.55 6.05 -5.2 5.95 -5.85 5.65 -7.55 5.1 -9.75" fill="url(#gradient0)" fill-rule="evenodd" stroke="none"/>
      <path d="M5.1 -9.75 L5.65 -7.55 5.95 -5.85 6.05 -5.2 6.5 -1.55 6.65 0.3 6.75 2.7 Q6.7 4.6 6.1 5.05 L5.3 5.5 Q3.6 6.75 3.35 6.1 L1.2 6.45 Q1.6 7.75 2.45 8.2 L2.25 8.25 1.9 8.35 Q1.2 8.35 0.8 7.75 0.45 7.25 0.45 6.8 0.45 6.0 1.0 5.75 L2.65 5.05 2.8 4.95 3.6 4.35 3.7 4.2 3.8 4.3 3.95 3.9 4.0 3.85 4.45 2.6 4.45 2.55 4.4 2.3 3.85 0.3 3.45 -0.95 2.6 -3.15 1.45 -6.4 0.4 -9.55 1.6 -9.35 5.1 -9.75" fill="#ffffff" fill-opacity="0.32941177" fill-rule="evenodd" stroke="none"/>
      <path d="M6.05 4.95 L6.0 5.05 5.4 5.35 6.05 4.95" fill="url(#gradient1)" fill-rule="evenodd" stroke="none"/>
      <path d="M-0.4 7.65 L-0.4 7.6 -0.35 7.7 -0.4 7.65" fill="url(#gradient2)" fill-rule="evenodd" stroke="none"/>
      <path d="M0.55 6.45 L0.55 6.25 0.8 5.95 Q1.05 5.7 2.8 5.25 4.5 4.75 4.45 3.35 L4.3 1.65 4.1 0.55 4.05 0.3 4.0 -0.1 3.2 -3.25 2.7 -5.15 2.0 -7.25 1.3 -9.3 1.3 -9.35 1.45 -9.35 1.55 -9.35 1.6 -9.25 3.55 -2.95 4.35 0.3 4.4 0.55 4.8 3.35 Q4.8 5.05 3.55 5.35 L0.85 6.35 0.55 6.45" fill="url(#gradient3)" fill-rule="evenodd" stroke="none"/>
      <path d="M0.85 6.35 L1.95 5.95 3.95 5.3 Q5.15 4.75 5.15 2.7 L4.95 0.55 4.9 0.3 4.6 -1.4 3.7 -5.45 2.55 -9.4 3.0 -9.45 3.5 -7.65 4.15 -5.15 5.0 -1.2 5.25 0.3 5.25 0.55 5.4 2.8 Q5.4 4.5 4.85 5.0 4.2 5.55 1.35 6.5 L0.9 6.65 0.55 6.75 0.55 6.45 0.85 6.35" fill="url(#gradient4)" fill-rule="evenodd" stroke="none"/>
      <path d="M5.3 5.4 L5.35 5.4 Q5.8 4.8 5.8 3.8 L5.75 0.65 5.75 0.55 5.75 0.3 5.25 -4.75 4.3 -9.6 4.5 -9.65 5.0 -7.55 5.5 -4.95 5.75 -1.8 6.0 0.3 6.0 0.5 6.05 3.8 6.05 4.05 6.05 4.95 5.4 5.35 5.3 5.4" fill="url(#gradient5)" fill-rule="evenodd" stroke="none"/>
      <path d="M6.1 -8.15 L6.0 -9.4 5.85 -9.9 6.15 -10.0 6.5 -7.5 6.95 -2.95 7.15 0.3 7.15 0.55 7.15 2.0 7.1 4.75 6.8 5.9 Q6.5 6.45 5.0 6.85 L2.1 7.5 1.0 7.7 0.75 7.5 2.7 7.05 5.4 6.5 Q6.65 6.25 6.8 4.7 L6.95 1.35 6.95 0.55 6.95 0.3 6.55 -4.0 6.1 -8.15" fill="url(#gradient6)" fill-rule="evenodd" stroke="none"/>
      <path d="M6.0 5.05 L6.0 5.1 Q5.75 5.75 4.75 6.2 L4.55 6.3 4.35 6.35 0.7 7.45 0.5 7.25 0.5 7.2 1.9 6.75 1.95 6.75 3.4 6.3 3.45 6.25 3.8 6.15 4.15 6.05 4.65 5.9 5.3 5.4 5.4 5.35 6.0 5.05" fill="url(#gradient7)" fill-rule="evenodd" stroke="none"/>
      <path d="M5.35 7.6 L5.6 7.7 5.4 8.05 5.5 8.25 5.2 8.65 Q4.7 8.25 4.5 8.3 4.5 8.05 4.8 7.8 L5.35 7.6" fill="url(#gradient8)" fill-rule="evenodd" stroke="none"/>
      <path d="M1.95 9.1 L0.25 8.8 -0.85 8.3 -0.8 7.7 -0.8 7.65 -0.2 7.95 Q0.85 8.5 2.0 8.65 L1.95 9.1 M7.5 6.5 L7.8 6.4 Q7.25 7.6 7.35 8.15 L6.9 8.25 7.5 6.5" fill="url(#gradient9)" fill-rule="evenodd" stroke="none"/>
      <path d="M1.95 9.1 L2.0 8.65 2.3 8.65 Q3.25 8.6 4.1 8.15 L4.55 7.8 Q5.45 7.05 7.2 6.6 L7.25 6.55 7.5 6.5 6.9 8.25 6.8 8.3 5.25 8.6 5.4 7.75 4.2 8.65 4.15 8.65 2.75 9.0 1.95 9.1" fill="url(#gradient10)" fill-rule="evenodd" stroke="none"/>
      <path d="M3.45 6.1 L4.3 6.05 Q5.05 5.95 6.2 5.15 L7.65 3.9 7.85 4.0 Q8.1 5.0 7.95 6.0 L4.95 6.95 2.65 7.55 Q1.7 7.5 -0.7 6.2 -0.45 5.25 0.45 5.35 1.35 5.4 2.55 4.75 3.15 4.35 3.5 4.2 3.0 4.55 2.65 4.85 2.25 5.15 2.35 5.45 L2.4 5.6 Q2.75 6.2 3.45 6.1" fill="url(#gradient11)" fill-rule="evenodd" stroke="none"/>
      <path d="M3.45 6.1 Q2.75 6.2 2.4 5.6 L2.35 5.45 Q2.25 5.15 2.65 4.85 3.0 4.55 3.5 4.2 L3.85 4.15 3.1 4.85 Q2.5 5.2 2.7 5.65 2.85 6.05 3.2 6.1 L3.45 6.1" fill="url(#gradient12)" fill-rule="evenodd" stroke="none"/>
      <path d="M-0.7 6.2 Q1.7 7.5 2.65 7.55 L4.95 6.95 7.95 6.0 7.8 6.5 7.8 6.4 Q5.6 6.95 4.55 7.8 3.55 8.6 2.3 8.65 1.0 8.6 -0.2 7.95 L-0.8 7.65 -0.85 7.6 -0.7 6.2" fill="url(#gradient13)" fill-rule="evenodd" stroke="none"/>
      <path d="M6.2 5.2 Q5.4 4.85 4.9 4.85 L4.55 4.9 4.55 4.95 4.75 6.0 4.5 6.1 4.25 4.95 Q3.45 5.05 2.65 5.6 L2.55 5.5 Q2.6 5.2 3.15 5.0 L3.85 4.7 3.7 4.55 3.4 4.45 3.65 4.25 4.25 4.45 4.4 4.65 4.9 4.6 Q5.95 4.6 6.5 5.05 L6.2 5.2" fill="url(#gradient14)" fill-rule="evenodd" stroke="none"/>
      <path d="M6.4 -0.6 L6.35 -0.6 6.25 -0.6 6.15 -0.6 Q4.8 -0.4 4.05 -0.6 3.25 -0.8 3.25 -0.95 L3.05 -1.45 4.5 -1.2 6.25 -1.25 6.35 -1.25 6.4 -1.25 6.4 -0.6 M6.3 0.4 L5.95 0.55 5.8 0.65 4.55 1.0 4.8 1.15 5.6 1.45 5.65 1.45 5.05 1.95 4.55 1.7 4.05 1.3 3.8 0.65 3.65 0.3 4.55 0.35 5.9 0.0 6.0 -0.05 6.1 -0.1 6.35 -0.2 6.3 0.4" fill="url(#gradient15)" fill-rule="evenodd" stroke="none"/>
      <path d="M6.05 1.55 L7.2 1.65 7.5 1.7 7.5 1.75 7.5 1.95 7.6 2.35 5.95 2.1 6.0 1.75 6.05 1.55" fill="url(#gradient16)" fill-rule="evenodd" stroke="none"/>
      <path d="M6.4 -1.25 L7.55 -1.5 7.6 -0.45 6.55 0.25 6.3 0.4 6.35 -0.2 7.1 -0.75 6.4 -0.6 6.4 -1.25" fill="url(#gradient17)" fill-rule="evenodd" stroke="none"/>
      <path d="M5.65 1.45 L5.75 1.5 6.05 1.55 6.0 1.75 5.95 2.1 5.85 2.1 5.65 2.1 5.4 2.05 5.05 1.95 5.65 1.45" fill="url(#gradient18)" fill-rule="evenodd" stroke="none"/>
      <path d="M3.8 2.2 L3.8 1.5 4.1 1.3 4.65 1.1 4.9 1.1 5.5 1.0 5.75 1.0 5.9 1.0 6.15 1.0 6.45 1.05 Q6.75 0.35 7.5 0.1 L8.25 -0.05 8.15 -0.15 8.25 -0.05 8.3 -0.05 8.65 0.35 8.3 0.35 7.35 0.45 6.55 1.1 6.75 1.05 6.75 1.1 8.4 1.2 8.75 1.3 8.7 1.25 8.9 1.3 9.4 1.4 9.7 1.9 9.65 1.95 9.0 1.65 8.0 1.35 7.1 1.25 7.0 1.25 6.65 1.3 7.5 1.65 7.35 1.6 6.8 1.55 6.85 1.6 6.65 1.5 6.9 2.15 7.2 2.45 7.35 2.7 7.05 2.35 6.7 1.9 6.8 2.75 6.75 2.6 6.7 2.05 6.45 1.6 6.45 1.75 6.4 1.45 6.2 1.6 5.95 1.8 5.4 2.35 5.05 2.75 4.85 3.05 4.9 3.1 4.8 3.15 4.8 3.25 4.75 3.25 4.75 3.3 4.5 3.7 4.45 3.7 4.45 3.5 4.3 3.15 4.45 2.95 4.55 2.85 4.8 2.6 4.85 2.5 5.0 2.35 5.6 1.75 6.0 1.4 6.05 1.4 Q6.15 1.3 6.2 1.3 L6.25 1.25 6.4 1.2 6.3 1.2 6.2 1.2 5.95 1.25 5.85 1.25 5.65 1.3 5.45 1.3 4.55 1.6 Q4.0 1.9 3.8 2.2 M7.95 3.65 L8.2 4.65 Q8.25 5.35 7.95 6.05 L7.85 6.0 7.3 6.0 7.65 5.3 7.75 4.1 7.6 3.7 7.65 3.65 7.75 3.55 7.95 3.65 M7.25 3.7 L7.05 4.8 6.1 5.95 5.5 5.45 6.3 4.9 6.65 4.4 6.85 3.8 6.9 3.8 7.0 3.7 7.05 3.7 7.25 3.7 M8.7 2.9 L8.6 2.95 8.25 2.95 7.5 2.45 6.95 1.8 7.75 2.5 Q8.4 3.0 8.7 2.9 M5.7 3.95 L5.8 3.9 6.2 3.35 6.5 2.55 6.55 2.45 6.5 2.95 5.95 4.0 5.7 3.95" fill="url(#gradient19)" fill-rule="evenodd" stroke="none"/>
      <path d="M8.65 0.35 L8.7 0.35 8.9 1.3 8.7 1.25 8.75 1.3 8.4 1.2 8.45 1.15 8.45 1.0 8.3 0.35 7.15 0.65 6.75 1.05 6.55 1.1 7.35 0.45 8.3 0.35 8.65 0.35" fill="url(#gradient20)" fill-rule="evenodd" stroke="none"/>
      <path d="M9.65 1.95 L9.45 2.5 8.55 3.35 Q8.15 3.45 7.6 2.9 L7.6 3.0 7.65 3.05 7.95 3.65 7.75 3.55 7.65 3.65 7.6 3.7 7.1 2.6 7.0 2.4 7.2 3.45 7.25 3.7 7.05 3.7 7.0 3.7 6.9 3.8 6.8 2.85 6.8 2.75 6.7 1.9 7.05 2.35 7.35 2.7 7.2 2.45 6.9 2.15 6.65 1.5 6.85 1.6 6.95 1.8 7.5 2.45 8.25 2.95 8.6 2.95 8.7 2.9 9.0 2.5 9.15 1.9 Q9.15 1.75 8.8 1.7 L8.4 1.55 8.3 1.55 7.5 1.65 6.65 1.3 7.0 1.25 6.85 1.3 7.1 1.35 7.9 1.4 7.1 1.25 8.0 1.35 9.0 1.65 9.65 1.95" fill="url(#gradient21)" fill-rule="evenodd" stroke="none"/>
      <path d="M4.55 2.85 L4.1 2.55 3.85 2.25 3.8 2.2 Q4.0 1.9 4.55 1.6 L5.45 1.3 5.65 1.3 5.85 1.25 5.95 1.25 6.2 1.2 6.3 1.2 6.4 1.2 6.25 1.25 6.3 1.2 6.2 1.25 5.4 1.4 4.3 1.85 4.25 1.95 4.8 2.6 4.55 2.85" fill="url(#gradient22)" fill-rule="evenodd" stroke="none"/>
      <path d="M6.45 1.75 L6.3 2.05 5.85 2.65 5.6 2.9 5.2 3.15 4.9 3.1 4.85 3.05 5.05 2.75 5.1 2.8 5.2 2.8 5.75 2.3 6.3 1.6 6.2 1.6 6.4 1.45 6.45 1.75" fill="url(#gradient23)" fill-rule="evenodd" stroke="none"/>
      <path d="M6.75 2.6 L6.75 2.8 6.7 3.05 Q6.5 4.25 6.1 4.3 L4.9 3.95 4.6 3.75 4.55 3.75 4.5 3.7 4.75 3.3 5.25 3.65 5.65 3.9 5.7 3.95 5.95 4.0 6.5 2.95 6.55 2.45 6.5 1.7 6.45 1.75 6.45 1.6 6.7 2.05 6.75 2.6" fill="url(#gradient24)" fill-rule="evenodd" stroke="none"/>
      <path d="M6.65 -2.55 L6.7 -2.55 6.65 -2.5 6.75 -2.5 7.1 -1.75 6.75 -1.45 6.35 -1.55 6.35 -2.8 6.65 -2.55 M6.9 -1.3 L6.85 -1.3 6.9 -1.3" fill="url(#gradient25)" fill-rule="evenodd" stroke="none"/>
      <path d="M4.2 -1.85 Q4.2 -2.15 4.5 -2.1 4.65 -1.7 5.1 -1.6 L5.5 -1.2 5.5 -1.15 5.3 -1.05 4.65 -0.85 4.45 -0.85 4.2 -1.85" fill="url(#gradient26)" fill-rule="evenodd" stroke="none"/>
      <path d="M3.95 -2.0 L4.1 -1.45 4.05 -0.9 3.9 -1.0 3.7 -1.45 3.95 -2.0" fill="url(#gradient27)" fill-rule="evenodd" stroke="none"/>
      <path d="M7.95 -2.7 L9.15 -2.95 8.45 -2.1 8.15 -1.5 7.85 -0.9 7.6 -0.35 7.1 0.1 Q5.65 0.95 4.5 0.8 3.7 0.75 3.2 0.4 L2.4 -0.25 1.35 -0.75 0.9 -0.85 1.05 -1.05 1.15 -1.2 1.55 -1.45 3.95 0.3 2.65 -1.35 2.95 -1.85 3.05 -2.15 Q3.05 -1.5 3.5 -0.95 4.25 0.0 4.9 0.6 L3.9 -1.15 4.55 -0.95 Q5.2 -0.85 5.4 -1.2 L5.5 0.55 5.95 -1.85 6.4 -1.75 7.0 -1.85 7.05 -1.85 6.5 0.1 6.5 0.2 Q7.55 -1.0 7.95 -2.7" fill="url(#gradient28)" fill-rule="evenodd" stroke="none"/>
      <path d="M1.55 -1.45 L1.75 -1.55 1.65 -1.55 2.0 -1.6 2.55 -1.35 2.65 -1.35 3.95 0.3 1.55 -1.45 M3.05 -2.15 Q3.15 -2.4 3.5 -2.35 L3.95 -1.9 3.75 -1.6 3.8 -1.25 3.9 -1.15 4.9 0.6 Q4.25 0.0 3.5 -0.95 3.05 -1.5 3.05 -2.15 M5.4 -1.2 L5.4 -1.3 5.35 -1.45 4.6 -1.65 4.25 -2.05 Q4.3 -2.5 5.1 -2.4 5.6 -2.35 5.7 -2.05 L5.95 -1.85 5.5 0.55 5.4 -1.2 M7.0 -1.85 L7.0 -1.9 6.75 -2.35 Q6.5 -2.5 6.6 -2.85 6.7 -3.2 7.3 -3.05 L7.95 -2.7 Q7.55 -1.0 6.5 0.2 L6.5 0.1 7.05 -1.85 7.0 -1.85" fill="url(#gradient29)" fill-rule="evenodd" stroke="none"/>
    </g>
    <radialGradient cx="0" cy="0" gradientTransform="matrix(0.0121, 0.0, 0.0, 0.0121, 4.6, -1.2)" gradientUnits="userSpaceOnUse" id="gradient0" r="819.2" spreadMethod="pad">
      <stop offset="0.20392156862745098" stop-color="#d5d9d9" stop-opacity="0.49803922"/>
      <stop offset="1.0" stop-color="#7ab4c2" stop-opacity="0.6784314"/>
    </radialGradient>
    <radialGradient cx="0" cy="0" gradientTransform="matrix(0.0116, 0.0, 0.0, 0.0116, 2.85, -1.2)" gradientUnits="userSpaceOnUse" id="gradient1" r="819.2" spreadMethod="pad">
      <stop offset="0.0" stop-color="#72f3ff"/>
      <stop offset="0.0" stop-color="#7decf7"/>
      <stop offset="0.48627450980392156" stop-color="#469db1"/>
      <stop offset="1.0" stop-color="#5fa3b4"/>
    </radialGradient>
    <radialGradient cx="0" cy="0" gradientTransform="matrix(0.0116, 0.0, 0.0, 0.0116, 2.85, -1.2)" gradientUnits="userSpaceOnUse" id="gradient2" r="819.2" spreadMethod="pad">
      <stop offset="0.0" stop-color="#73b0b6"/>
      <stop offset="0.47058823529411764" stop-color="#467783"/>
      <stop offset="1.0" stop-color="#528b9a"/>
    </radialGradient>
    <radialGradient cx="0" cy="0" gradientTransform="matrix(0.0104, 0.0, 0.0, 0.0104, 2.4, -1.45)" gradientUnits="userSpaceOnUse" id="gradient3" r="819.2" spreadMethod="pad">
      <stop offset="0.0" stop-color="#72f3ff" stop-opacity="0.36078432"/>
      <stop offset="0.5019607843137255" stop-color="#469db1" stop-opacity="0.6117647"/>
      <stop offset="1.0" stop-color="#5fa3b4" stop-opacity="0.6784314"/>
    </radialGradient>
    <radialGradient cx="0" cy="0" gradientTransform="matrix(0.011, 0.0, 0.0, 0.011, 2.75, -1.4)" gradientUnits="userSpaceOnUse" id="gradient4" r="819.2" spreadMethod="pad">
      <stop offset="0.0" stop-color="#72f3ff" stop-opacity="0.36078432"/>
      <stop offset="0.5019607843137255" stop-color="#469db1" stop-opacity="0.6117647"/>
      <stop offset="1.0" stop-color="#5fa3b4" stop-opacity="0.6784314"/>
    </radialGradient>
    <radialGradient cx="0" cy="0" gradientTransform="matrix(0.0116, 0.0, 0.0, 0.0116, 2.85, -1.2)" gradientUnits="userSpaceOnUse" id="gradient5" r="819.2" spreadMethod="pad">
      <stop offset="0.0" stop-color="#72f3ff" stop-opacity="0.36078432"/>
      <stop offset="0.5019607843137255" stop-color="#469db1" stop-opacity="0.6117647"/>
      <stop offset="1.0" stop-color="#5fa3b4" stop-opacity="0.6784314"/>
    </radialGradient>
    <radialGradient cx="0" cy="0" gradientTransform="matrix(0.0118, 0.0, 0.0, 0.0118, 3.8, -1.3)" gradientUnits="userSpaceOnUse" id="gradient6" r="819.2" spreadMethod="pad">
      <stop offset="0.0" stop-color="#73b0b6"/>
      <stop offset="0.5647058823529412" stop-color="#61a3b4"/>
      <stop offset="1.0" stop-color="#70c5db"/>
    </radialGradient>
    <radialGradient cx="0" cy="0" gradientTransform="matrix(0.0116, 0.0, 0.0, 0.0116, 2.85, -1.2)" gradientUnits="userSpaceOnUse" id="gradient7" r="819.2" spreadMethod="pad">
      <stop offset="0.0" stop-color="#73b0b6"/>
      <stop offset="0.5647058823529412" stop-color="#61a3b4"/>
      <stop offset="1.0" stop-color="#70c5db"/>
    </radialGradient>
    <radialGradient cx="0" cy="0" gradientTransform="matrix(0.0, 0.0, 0.0, 0.0, 0.0, 0.0)" gradientUnits="userSpaceOnUse" id="gradient8" r="819.2" spreadMethod="pad">
      <stop offset="0.0" stop-color="#797979"/>
      <stop offset="1.0" stop-color="#9a4c00"/>
    </radialGradient>
    <radialGradient cx="0" cy="0" gradientTransform="matrix(0.0061, 0.0, 0.0, 0.0061, 3.5, 7.75)" gradientUnits="userSpaceOnUse" id="gradient9" r="819.2" spreadMethod="pad">
      <stop offset="0.0" stop-color="#bdbdbd"/>
      <stop offset="0.36470588235294116" stop-color="#ffffff"/>
      <stop offset="0.6313725490196078" stop-color="#ffffff"/>
      <stop offset="1.0" stop-color="#c6c6c6"/>
    </radialGradient>
    <radialGradient cx="0" cy="0" gradientTransform="matrix(0.0061, 0.0, 0.0, 0.0061, 3.5, 7.75)" gradientUnits="userSpaceOnUse" id="gradient10" r="819.2" spreadMethod="pad">
      <stop offset="0.0" stop-color="#bdbdbd"/>
      <stop offset="1.0" stop-color="#c6c6c6"/>
    </radialGradient>
    <radialGradient cx="0" cy="0" gradientTransform="matrix(0.0066, 0.0, 0.0, 0.0066, 3.55, 6.3)" gradientUnits="userSpaceOnUse" id="gradient11" r="819.2" spreadMethod="pad">
      <stop offset="0.0" stop-color="#67a6b6"/>
      <stop offset="0.5647058823529412" stop-color="#004d87"/>
    </radialGradient>
    <radialGradient cx="0" cy="0" gradientTransform="matrix(0.0066, 0.0, 0.0, 0.0066, 3.55, 6.3)" gradientUnits="userSpaceOnUse" id="gradient12" r="819.2" spreadMethod="pad">
      <stop offset="0.3176470588235294" stop-color="#004d87"/>
      <stop offset="0.8941176470588236" stop-color="#086a87"/>
    </radialGradient>
    <radialGradient cx="0" cy="0" gradientTransform="matrix(0.0066, 0.0, 0.0, 0.0066, 3.55, 6.3)" gradientUnits="userSpaceOnUse" id="gradient13" r="819.2" spreadMethod="pad">
      <stop offset="0.3176470588235294" stop-color="#00345b"/>
      <stop offset="1.0" stop-color="#005169"/>
    </radialGradient>
    <radialGradient cx="0" cy="0" gradientTransform="matrix(0.003, 0.0, 0.0, 0.003, 4.5, 5.15)" gradientUnits="userSpaceOnUse" id="gradient14" r="819.2" spreadMethod="pad">
      <stop offset="0.0" stop-color="#1c1c1c"/>
      <stop offset="0.39215686274509803" stop-color="#313131"/>
      <stop offset="0.5529411764705883" stop-color="#383838"/>
    </radialGradient>
    <radialGradient cx="0" cy="0" gradientTransform="matrix(0.0046, -8.0E-4, 8.0E-4, 0.0046, 7.35, 4.6)" gradientUnits="userSpaceOnUse" id="gradient15" r="819.2" spreadMethod="pad">
      <stop offset="0.0" stop-color="#1c1c1c"/>
      <stop offset="0.39215686274509803" stop-color="#313131"/>
      <stop offset="0.5529411764705883" stop-color="#383838"/>
    </radialGradient>
    <linearGradient gradientTransform="matrix(0.001, 0.0, 0.0, 5.0E-4, 6.75, 1.95)" gradientUnits="userSpaceOnUse" id="gradient16" spreadMethod="pad" x1="-819.2" x2="819.2">
      <stop offset="0.0" stop-color="#000000"/>
      <stop offset="1.0" stop-color="#000000"/>
    </linearGradient>
    <linearGradient gradientTransform="matrix(9.0E-4, 0.0, 0.0, 0.0012, 7.0, -0.55)" gradientUnits="userSpaceOnUse" id="gradient17" spreadMethod="pad" x1="-819.2" x2="819.2">
      <stop offset="0.0" stop-color="#000000"/>
      <stop offset="1.0" stop-color="#000000"/>
    </linearGradient>
    <linearGradient gradientTransform="matrix(6.0E-4, 0.0, 0.0, 4.0E-4, 5.55, 1.75)" gradientUnits="userSpaceOnUse" id="gradient18" spreadMethod="pad" x1="-819.2" x2="819.2">
      <stop offset="0.0" stop-color="#000000"/>
      <stop offset="1.0" stop-color="#000000"/>
    </linearGradient>
    <radialGradient cx="0" cy="0" gradientTransform="matrix(0.0046, -8.0E-4, 8.0E-4, 0.0046, 6.95, 3.2)" gradientUnits="userSpaceOnUse" id="gradient19" r="819.2" spreadMethod="pad">
      <stop offset="0.0" stop-color="#1c1c1c"/>
      <stop offset="0.39215686274509803" stop-color="#313131"/>
      <stop offset="0.5529411764705883" stop-color="#383838"/>
    </radialGradient>
    <linearGradient gradientTransform="matrix(0.0013, -4.0E-4, 2.0E-4, 6.0E-4, 7.65, 0.9)" gradientUnits="userSpaceOnUse" id="gradient20" spreadMethod="pad" x1="-819.2" x2="819.2">
      <stop offset="0.0" stop-color="#000000"/>
      <stop offset="1.0" stop-color="#000000"/>
    </linearGradient>
    <linearGradient gradientTransform="matrix(0.0019, -5.0E-4, 5.0E-4, 0.0016, 8.05, 2.2)" gradientUnits="userSpaceOnUse" id="gradient21" spreadMethod="pad" x1="-819.2" x2="819.2">
      <stop offset="0.0" stop-color="#000000"/>
      <stop offset="1.0" stop-color="#000000"/>
    </linearGradient>
    <linearGradient gradientTransform="matrix(0.0016, -5.0E-4, 2.0E-4, 7.0E-4, 5.15, 2.05)" gradientUnits="userSpaceOnUse" id="gradient22" spreadMethod="pad" x1="-819.2" x2="819.2">
      <stop offset="0.0" stop-color="#000000"/>
      <stop offset="1.0" stop-color="#000000"/>
    </linearGradient>
    <linearGradient gradientTransform="matrix(0.0011, -3.0E-4, 2.0E-4, 8.0E-4, 5.65, 2.4)" gradientUnits="userSpaceOnUse" id="gradient23" spreadMethod="pad" x1="-819.2" x2="819.2">
      <stop offset="0.0" stop-color="#000000"/>
      <stop offset="1.0" stop-color="#000000"/>
    </linearGradient>
    <linearGradient gradientTransform="matrix(0.0015, -4.0E-4, 4.0E-4, 0.0015, 5.7, 3.15)" gradientUnits="userSpaceOnUse" id="gradient24" spreadMethod="pad" x1="-819.2" x2="819.2">
      <stop offset="0.0" stop-color="#000000"/>
      <stop offset="1.0" stop-color="#000000"/>
    </linearGradient>
    <radialGradient cx="0" cy="0" gradientTransform="matrix(0.0, 0.0, 0.0, 0.0, 0.0, 0.0)" gradientUnits="userSpaceOnUse" id="gradient25" r="819.2" spreadMethod="pad">
      <stop offset="0.0" stop-color="#63c3e2" stop-opacity="0.7058824"/>
      <stop offset="1.0" stop-color="#92d6fc" stop-opacity="0.47843137"/>
    </radialGradient>
    <radialGradient cx="0" cy="0" gradientTransform="matrix(0.0, 0.0, 0.0, 0.0, 0.0, 0.0)" gradientUnits="userSpaceOnUse" id="gradient26" r="819.2" spreadMethod="pad">
      <stop offset="0.0" stop-color="#63c3e2" stop-opacity="0.7058824"/>
      <stop offset="1.0" stop-color="#92d6fc" stop-opacity="0.47843137"/>
    </radialGradient>
    <radialGradient cx="0" cy="0" gradientTransform="matrix(0.0, 0.0, 0.0, 0.0, 0.0, 0.0)" gradientUnits="userSpaceOnUse" id="gradient27" r="819.2" spreadMethod="pad">
      <stop offset="0.0" stop-color="#63c3e2" stop-opacity="0.7058824"/>
      <stop offset="1.0" stop-color="#92d6fc" stop-opacity="0.47843137"/>
    </radialGradient>
    <radialGradient cx="0" cy="0" gradientTransform="matrix(0.0062, 0.0, 0.0, 0.0062, 5.05, -1.05)" gradientUnits="userSpaceOnUse" id="gradient28" r="819.2" spreadMethod="pad">
      <stop offset="0.08627450980392157" stop-color="#9ff7ff" stop-opacity="0.47843137"/>
      <stop offset="1.0" stop-color="#7ab4c2" stop-opacity="0.87058824"/>
    </radialGradient>
    <radialGradient cx="0" cy="0" gradientTransform="matrix(0.0062, 0.0, 0.0, 0.0062, 5.05, -1.05)" gradientUnits="userSpaceOnUse" id="gradient29" r="819.2" spreadMethod="pad">
      <stop offset="0.0" stop-color="#4f8ea3" stop-opacity="0.8666667"/>
      <stop offset="1.0" stop-color="#619fc2" stop-opacity="0.47843137"/>
    </radialGradient>
  </defs>
</svg>
