<?xml version="1.0" encoding="UTF-8" standalone="no"?>
<svg xmlns:ffdec="https://www.free-decompiler.com/flash" xmlns:xlink="http://www.w3.org/1999/xlink" ffdec:objectType="frame" height="11.45px" width="6.95px" xmlns="http://www.w3.org/2000/svg">
  <g transform="matrix(1.0, 0.0, 0.0, 1.0, -1.2, 2.05)">
    <use ffdec:characterId="1" height="11.45" transform="matrix(1.0, 0.0, 0.0, 1.0, 1.2, -2.05)" width="6.95" xlink:href="#shape0"/>
  </g>
  <defs>
    <g id="shape0" transform="matrix(1.0, 0.0, 0.0, 1.0, -1.2, 2.05)">
      <path d="M6.45 7.4 Q6.1 8.2 5.05 8.85 L3.1 9.4 2.5 9.4 Q0.95 9.25 1.25 8.0 1.5 6.7 2.7 5.7 3.85 4.65 4.0 3.95 L4.1 3.1 3.9 1.9 3.65 1.05 3.0 -1.8 2.95 -1.85 7.9 -2.05 8.0 4.5 8.1 6.45 8.15 6.4 8.15 6.5 8.15 6.65 8.15 6.75 8.1 6.75 Q7.5 7.05 7.25 7.3 L7.2 7.3 7.05 6.25 6.45 7.35 6.45 7.4 M3.6 7.45 Q3.9 7.05 3.5 6.7 3.1 6.35 2.75 6.55 L2.4 6.8 Q2.2 7.0 2.3 7.3 2.4 7.55 2.85 7.65 3.3 7.8 3.6 7.45" fill="#260f0d" fill-rule="evenodd" stroke="none"/>
      <path d="M6.45 7.4 L6.45 7.35 7.05 6.25 7.2 7.3 7.0 7.3 6.5 7.3 6.45 7.4" fill="#000000" fill-rule="evenodd" stroke="none"/>
      <path d="M3.6 7.45 Q3.3 7.8 2.85 7.65 2.4 7.55 2.3 7.3 2.2 7.0 2.4 6.8 L2.75 6.55 Q3.1 6.35 3.5 6.7 3.9 7.05 3.6 7.45" fill="#3f2220" fill-rule="evenodd" stroke="none"/>
      <path d="M6.05 -1.95 L7.9 -2.05 8.0 4.5 8.1 6.45 8.15 6.4 8.15 6.5 8.15 6.65 8.15 6.75 8.1 6.75 Q7.5 7.05 7.25 7.3 L7.2 7.3 7.05 6.25 6.45 7.35 6.45 7.4 Q6.1 8.2 5.05 8.85 L3.1 9.4 3.15 9.3 4.45 8.0 Q6.0 6.6 6.15 4.8 L6.35 0.9 6.05 -1.95" fill="#1c0806" fill-rule="evenodd" stroke="none"/>
      <path d="M2.5 5.95 L2.25 6.15 2.2 6.1 Q2.55 5.35 3.8 5.6 L5.15 6.0 5.8 6.65 5.65 6.9 Q4.35 5.5 2.4 6.05 L2.5 5.95" fill="#6b4408" fill-rule="evenodd" stroke="none"/>
      <path d="M5.0 4.3 L5.3 4.45 5.65 4.65 6.1 5.0 6.4 5.4 6.15 6.1 5.8 6.65 5.45 6.25 5.15 6.0 4.55 5.75 4.45 5.75 4.35 4.95 4.4 4.85 Q4.6 4.3 5.0 4.3 M2.85 5.6 Q2.35 5.65 2.2 6.1 L2.25 5.8 2.4 5.6 2.6 5.35 3.3 4.45 3.55 4.3 3.95 4.2 3.9 4.65 3.6 5.05 2.85 5.6" fill="#8b6327" fill-rule="evenodd" stroke="none"/>
      <path d="M4.45 5.75 L3.8 5.6 3.2 5.55 2.85 5.6 3.6 5.05 3.9 4.65 3.95 4.2 4.1 4.2 4.15 4.2 5.0 4.3 Q4.6 4.3 4.4 4.85 L4.35 4.95 4.45 5.75" fill="#e29e38" fill-rule="evenodd" stroke="none"/>
    </g>
  </defs>
</svg>
