<svg xmlns="http://www.w3.org/2000/svg" xmlns:ffdec="https://www.free-decompiler.com/flash" xmlns:xlink="http://www.w3.org/1999/xlink" ffdec:objectType="frame" width="7.45" height="20.05"><use ffdec:characterId="1" xlink:href="#a" width="7.45" height="20.05"/><defs><radialGradient id="b" cx="0" cy="0" r="819.2" gradientTransform="translate(4.6 -.3)scale(.0112)" gradientUnits="userSpaceOnUse" spreadMethod="pad"><stop offset="0" stop-color="#e5d0d0"/><stop offset="1" stop-color="#c7aae2"/></radialGradient><radialGradient id="h" cx="0" cy="0" r="819.2" gradientTransform="translate(6.6 -8.4)scale(.0026)" gradientUnits="userSpaceOnUse" spreadMethod="pad"><stop offset="0" stop-color="#693b19"/><stop offset=".541" stop-color="#623412"/><stop offset="1" stop-color="#331906"/></radialGradient><radialGradient id="i" cx="0" cy="0" r="819.2" gradientTransform="translate(5.6 -8.6)scale(.0016)" gradientUnits="userSpaceOnUse" spreadMethod="pad"><stop offset="0" stop-color="#693b19"/><stop offset=".541" stop-color="#623412"/><stop offset="1" stop-color="#331906"/></radialGradient><radialGradient id="j" cx="0" cy="0" r="819.2" gradientTransform="translate(5.85 -10.25)scale(.0016)" gradientUnits="userSpaceOnUse" spreadMethod="pad"><stop offset="0" stop-color="#693b19"/><stop offset=".541" stop-color="#623412"/><stop offset="1" stop-color="#331906"/></radialGradient><radialGradient id="k" cx="0" cy="0" r="819.2" gradientTransform="translate(7.05 -8.65)scale(.002)" gradientUnits="userSpaceOnUse" spreadMethod="pad"><stop offset="0" stop-color="#693b19"/><stop offset=".541" stop-color="#623412"/><stop offset="1" stop-color="#331906"/></radialGradient><radialGradient id="l" cx="0" cy="0" r="819.2" gradientTransform="translate(5.85 -8.4)scale(.002)" gradientUnits="userSpaceOnUse" spreadMethod="pad"><stop offset="0" stop-color="#693b19"/><stop offset=".541" stop-color="#623412"/><stop offset="1" stop-color="#331906"/></radialGradient><radialGradient id="m" cx="0" cy="0" r="819.2" gradientTransform="translate(3.6 -7.45)scale(.0023)" gradientUnits="userSpaceOnUse" spreadMethod="pad"><stop offset="0" stop-color="#693b19"/><stop offset=".541" stop-color="#623412"/><stop offset="1" stop-color="#331906"/></radialGradient><radialGradient id="n" cx="0" cy="0" r="819.2" gradientTransform="translate(2.5 -8.2)scale(.0009)" gradientUnits="userSpaceOnUse" spreadMethod="pad"><stop offset="0" stop-color="#693b19"/><stop offset=".541" stop-color="#623412"/><stop offset="1" stop-color="#331906"/></radialGradient><radialGradient id="o" cx="0" cy="0" r="819.2" gradientTransform="translate(1.85 -8.85)scale(.0013)" gradientUnits="userSpaceOnUse" spreadMethod="pad"><stop offset="0" stop-color="#693b19"/><stop offset=".541" stop-color="#623412"/><stop offset="1" stop-color="#331906"/></radialGradient><linearGradient id="c" x1="-819.2" x2="819.2" gradientTransform="translate(5.15 5.65)scale(.0037)" gradientUnits="userSpaceOnUse" spreadMethod="pad"><stop offset="0" stop-color="#694733"/><stop offset=".216" stop-color="#a9856f"/><stop offset=".51" stop-color="#694733"/><stop offset=".816" stop-color="#a9856f"/><stop offset="1" stop-color="#694733"/></linearGradient><linearGradient id="d" x1="-819.2" x2="819.2" gradientTransform="matrix(.0037 0 0 .0036 5.1 5.85)" gradientUnits="userSpaceOnUse" spreadMethod="pad"><stop offset="0" stop-color="#a6836d"/><stop offset=".259" stop-color="#f3d3a2"/><stop offset=".396" stop-color="#b28e78"/><stop offset=".541" stop-color="#a6836d"/><stop offset=".557" stop-color="#e9dece"/><stop offset=".667" stop-color="#f3d3a2"/><stop offset=".753" stop-color="#a6836d"/><stop offset=".859" stop-color="#f3d3a2"/><stop offset="1" stop-color="#b28e78"/></linearGradient><linearGradient id="e" x1="-819.2" x2="819.2" gradientTransform="matrix(0 0 0 0 0 0)" gradientUnits="userSpaceOnUse" spreadMethod="pad"><stop offset="0" stop-color="#694733"/><stop offset=".216" stop-color="#a9856f"/><stop offset=".51" stop-color="#694733"/><stop offset=".816" stop-color="#a9856f"/><stop offset="1" stop-color="#694733"/></linearGradient><linearGradient id="f" x1="-819.2" x2="819.2" gradientTransform="matrix(.0045 0 0 .0027 4.6 -9)" gradientUnits="userSpaceOnUse" spreadMethod="pad"><stop offset="0" stop-color="#694733"/><stop offset=".216" stop-color="#a9856f"/><stop offset=".51" stop-color="#694733"/><stop offset=".816" stop-color="#a9856f"/><stop offset="1" stop-color="#694733"/></linearGradient><linearGradient id="g" x1="-819.2" x2="819.2" gradientTransform="matrix(.0045 0 0 .0026 4.6 -8.85)" gradientUnits="userSpaceOnUse" spreadMethod="pad"><stop offset="0" stop-color="#a6836d"/><stop offset=".259" stop-color="#f3d3a2"/><stop offset=".396" stop-color="#b28e78"/><stop offset=".541" stop-color="#a6836d"/><stop offset=".557" stop-color="#e9dece"/><stop offset=".667" stop-color="#f3d3a2"/><stop offset=".753" stop-color="#a6836d"/><stop offset=".859" stop-color="#f3d3a2"/><stop offset="1" stop-color="#b28e78"/></linearGradient><g id="a" fill-rule="evenodd"><path fill="url(#b)" d="M4.85-7.35q.9 0 2.4-1 .9 6.55.55 12.9.15.55-.3 1-1.55 1-2.15 1.65-1.25.65-2.7.55Q2.5 7.3 2.6 6.6q.2-1.3 1.55-2.5.35-3.25-.5-5.15Q2.8-3 2.1-5.35q-.75-2.4-.75-2.85 2.6.85 3.5.85" transform="translate(-.85 11.2)"/><path fill="#ecd6e2" d="M4.45 13.9q.1-.2.35-.2l-.7-.45q-.5-.05-.5.35zm.95-.7q-.35.25-.4.45.2.2.55.2.5 0 .5-.55v-.2zm-.1-3.95-.1-.6.65-.2q.1.35-.55.35l.15.45v.6L5.3 9.8zM4.65 7.5q-.05.25.05.35l.45.05.4-.25.1-.55-.6.05-.25.15zm-.2-2.15.1-.1h.15v.2h-.15zm.7.25h.1v.2H5.1zm-2 3.2.05-.05h.1l.15.85h-.1l-.15-.65h-.45l-.1-.1.05-.05zM2.4 7.4q.05.3.3.45.15.2.5.25.25 0 .35-.15L3.5 7.6l-.15-.2-.3-.05zm.05-1.25.05-.2h.1v.2zm.5-.7L3 5.4h.15v.2h-.2zm.8-.15h.05l.25.75.05 1h.05q0-.9.15-1.35l.15-.05.05.1-.1.55-.2.85h.05q.35-1 .6-1.2L5 6v.15q-.5.55-.7 1.1l.95-.65.4.1.25.35 1-.05-1 .1-.15.55q-.2.3-.55.35l-.5-.05q-.25-.1-.2-.35l.15-.3.35-.2.65-.05q-.1-.35-.45-.3l-.75.35-.25.5v.3l.05.4.05.1.05.3.05.1V9l.25 1.85.25 2.55v.2l.15-1.1-.15-1.55.05-1.3-.2-1.3.05-.1h.4l.55-.3.4-.5q.15.2-.1.5-.3.4-1.15.5l.25 4.05-.1 1q1.1-1.2 1.1-.15 0 .6-.7.6l-.5-.1-.05.15-.2.85-.75 1.55L3 17.85l.7-1.25q.95-1.5 1.1-2.7l-.6.1q-.7 0-.7-.4 0-.6.7-.45l.55.2L3.5 8.7l.05-.05-.05-.05-1.1-.25-.25-.25.05-.05.35.25 1.05.15.05.4L4.2 11l.55 1.95-.2-1.95-.25-1.65-.2-1.1-.05-.35v-.15l-.1-.15-.35-.4-.85-.25q-.35.05-.35.4l.65-.05.45.1.25.3-.1.35q-.2.15-.5.15-.35-.05-.65-.25l-.35-.55-.5.05-.05-.05.55-.05L2.3 7l.4-.2q.5-.05 1.05.45l-.9-.9-.1-.15.15-.05.9 1h.05l-.4-.75-.3-.55.05-.1.15.05.6 1.25-.25-1q-.05-.5.05-.75m0-.4h.1v.2H3.6V5z"/><path fill="url(#c)" d="m5.85 6.55-.3.3v.25l.6-.4v-.25h-.1zm-.9-.7-.4.05q-.25.15-.25.45l.05.15.4-.25zM3.1 5.9l.05.25.3-.15.1-.45v-.1q-.2 0-.35.2zm-.7.25h.1l.15-.35-.05-.25-.2.25zm4.85-2.6.3.95.4-.4.2-.05.05.8-.05.3-.2.55-.5 1.15q-.35.85-.35 1.2l-.25.05H6.8l-.3-.05-.35-.8-.55.55-.35.4-.1.2-.8.25L3.2 8.6l-.8-.2-.15-.7h.05q-.15-.25-.15-1.2 0-1.5.5-1.5l.3.4H3q0-.5.6-.5t.6.55l-.05.15.65-.25q.85 0 .85.55l-.1.3.5-.15q.45 0 .45.45l.2-.3h-.05l.05-.15.05-.1q.2-.7.55-1.2l-.4-1.1-1.2.15-1.55-.15.05-.3-.05-.4 1.35.2q1.1 0 2.6-.55l-.05.6z" transform="translate(-.85 11.2)"/><path fill="url(#d)" d="M5.5 7v.25l.6-.4V6.6H6l-.2.1zm-.6-.95-.4.05q-.25.15-.25.4l.05.15.4-.2zm-1.75-.2-.1.25.05.25.3-.15.1-.45v-.1zm-.6-.1-.2.25v.35h.1L2.6 6zM7.2 3.8l.3.9.4-.4.2-.05.05.85-.05.25-.2.55L7.4 7q-.35.85-.35 1.2l-.25.05h-.05l-.3-.05-.35-.8-.55.55-.35.4-.1.2-.8.25-1.15-.05-.8-.2-.15-.7h.05q-.15-.25-.15-1.2 0-1.4.5-1.4.25 0 .3.35h.05q0-.45.6-.45t.6.5l-.05.15.65-.25q.85 0 .85.55l-.1.3q.1-.15.5-.15l.45.4.2-.25H6.6l.05-.15.05-.1q.2-.7.55-1.15l-.4-1.1-1.2.15L4.1 3.9l.05-.3-.05-.4 1.35.2 2.6-.5-.05.55z" transform="translate(-.85 11.2)"/><path fill="url(#e)" d="M7.5 6.2q.15.2-.4.6-.25.55-.25 1.4h-.4l-.15-.8.45-.4v-.05zm.05-.3.2-.25-.15.3-.8.7-.5.35-.3.3-.1.15-.65.55.25-.05-1.65.45q-1.1 0-1.6-.55h.05l1.5.35 1.15-.15.35-.3.3-.3.7-.6.2-.15v-.05z" transform="translate(-.85 11.2)"/><path fill="url(#f)" d="m8.3-10.25-.1.4.05.45-.1.6-.3.45.2.05h.1q-.25.7-1.25 1.15l-2.45.3-1.5-.45-1.2-.35L1-7.8l-.15-.5.5-.15.9-.7q.2-.45 0-.65v-.2h.15q.5.2.55.75.1.55-.2.7l.2.15.15.1q.2.05 0 .15L2.75-8H2.3l.1.05 1.2.35q.8.25 1.3 0l.65-.8q.1-.6-.5-.95l-.25-.1v-.15l.5-.25.65.05.05-.3.5.3.25.15-.35-.7q-.4-.45-1.1-.35l.15.2v.35l-.35.25-.45-.1-.3-.25q-.05-.35.3-.65.3-.3.7-.3.9-.05 1.45.65.45.5.5 1.1l.4-.45.5-.45.1-.05z" transform="translate(-.85 11.2)"/><path fill="url(#g)" d="M8.3-10.2v.15l-.1.4.05.45-.1.55-.3.45.2.05h.1Q7.9-7.45 6.9-7l-2.45.25-1.5-.45-1.2-.35-.75-.1-.15-.5.5-.15.9-.7q.2-.4 0-.6v-.2h.15q.5.2.55.75.1.5-.2.7l.2.1.15.1q.2.05 0 .15l-.35.15H2.3l.1.05 1.2.35q.8.2 1.3 0l.65-.8q.1-.6-.5-.9L4.8-9.3v-.1l.5-.25.65.05.05-.3.5.3.25.15-.35-.7q-.4-.45-1.1-.3l.15.15v.35l-.35.2-.45-.05-.3-.25q-.05-.35.3-.65l.7-.25q.9-.1 1.45.6l.5 1.05.4-.45.5-.4z" transform="translate(-.85 11.2)"/><path fill="url(#h)" d="M8.05-9.55q0 1.35-1 1.9-.65.4-1.9.55.5-.1 1.45-.55Q7.45-8 8-9.7z" transform="translate(-.85 11.2)"/><path fill="url(#i)" d="m5.45-9.55.5.2v.05l.1.55L5.8-8l-.45.4.3-.45.15-.6-.15-.5-.45-.4z" transform="translate(-.85 11.2)"/><path fill="url(#j)" d="m5.15-10.5.05.1-.15.2q-.1 0-.2-.1l-.1-.2.25-.25.4-.15q.65 0 1.1.5l.35.75-.35-.55q-.4-.4-1.05-.4z" transform="translate(-.85 11.2)"/><path fill="url(#k)" d="m6.85-8.2.45-.85.25-.35.35-.3q-.3.9-.8 1.45l-.9.65z" transform="translate(-.85 11.2)"/><path fill="url(#l)" d="M5.65-7.6q.7-.7.7-1.5l-.2-.6.45.8q0 1.1-1.55 1.8z" transform="translate(-.85 11.2)"/><path fill="url(#m)" d="m2.1-7.65-.05-.1.9.2L4-7.3l1.1-.15q-.3.5-1.7.2-.7-.15-1.3-.4" transform="translate(-.85 11.2)"/><path fill="url(#n)" d="m2.35-8.25.7.15h-1.1z" transform="translate(-.85 11.2)"/><path fill="url(#o)" d="M1.85-8.4q.75-.5.55-1.2l.25.7q-.1.7-1.6.8z" transform="translate(-.85 11.2)"/></g></defs></svg>