<?xml version="1.0" encoding="UTF-8" standalone="no"?>
<svg xmlns:ffdec="https://www.free-decompiler.com/flash" xmlns:xlink="http://www.w3.org/1999/xlink" ffdec:objectType="frame" height="19.8px" width="8.25px" xmlns="http://www.w3.org/2000/svg">
  <g transform="matrix(1.0, 0.0, 0.0, 1.0, -0.7, 10.45)">
    <use ffdec:characterId="1" height="19.8" transform="matrix(1.0, 0.0, 0.0, 1.0, 0.7, -10.45)" width="8.25" xlink:href="#shape0"/>
  </g>
  <defs>
    <g id="shape0" transform="matrix(1.0, 0.0, 0.0, 1.0, -0.7, 10.45)">
      <path d="M6.4 -2.75 L6.45 -3.05 7.0 -3.15 6.85 -2.8 6.4 -2.75" fill="#010007" fill-rule="evenodd" stroke="none"/>
      <path d="M3.4 -2.45 L3.2 -2.55 2.6 -2.1 2.2 -1.65 1.55 -0.75 1.7 -0.55 1.8 -0.45 1.35 -0.3 1.3 -0.3 1.1 -0.45 1.8 -1.6 Q2.6 -2.7 3.8 -3.3 L3.5 -2.7 3.5 -2.55 3.4 -2.45 M7.85 -2.4 L7.85 -2.5 8.55 -3.2 8.55 -3.3 7.7 -3.45 7.6 -3.3 7.55 -3.25 7.35 -3.25 7.25 -3.3 7.3 -3.55 7.4 -3.6 7.75 -3.8 8.6 -3.55 8.6 -3.6 8.7 -3.55 8.75 -3.5 8.85 -3.5 8.95 -3.35 8.95 -3.3 8.8 -2.75 8.4 -2.35 8.45 -2.55 7.95 -2.15 7.85 -2.2 7.85 -2.4" fill="#e7c3c3" fill-rule="evenodd" stroke="none"/>
      <path d="M6.4 -2.75 L4.9 -2.4 3.7 -1.85 4.05 -0.85 3.85 -0.75 2.9 -0.45 2.3 -0.3 2.1 -0.4 1.9 -0.35 1.8 -0.45 1.7 -0.55 1.55 -0.75 2.2 -1.65 2.6 -2.1 3.2 -2.55 3.4 -2.45 3.4 -2.4 3.25 -2.2 3.55 -2.15 3.85 -2.4 6.45 -3.05 6.4 -2.75 M7.55 -3.25 L7.6 -3.3 7.7 -3.45 8.55 -3.3 8.55 -3.2 7.85 -2.5 7.85 -2.4 7.8 -2.4 7.7 -2.45 7.7 -2.5 7.6 -2.6 7.2 -2.8 7.0 -2.8 6.85 -2.8 7.0 -3.15 7.35 -3.2 7.55 -3.25" fill="#e27a9c" fill-rule="evenodd" stroke="none"/>
      <path d="M5.95 -10.0 Q5.8 -9.7 5.95 -8.6 L6.4 -4.65 6.4 -2.55 Q5.95 -2.2 5.1 -1.8 3.7 -1.2 3.4 -1.45 L2.2 -5.0 1.4 -7.45 1.0 -8.9 0.95 -9.05 0.85 -9.6 0.7 -10.0 Q2.4 -9.55 5.95 -10.0" fill="#410015" fill-rule="evenodd" stroke="none"/>
      <path d="M3.4 -1.45 Q3.7 -1.2 5.1 -1.8 5.95 -2.2 6.4 -2.55 L6.4 -4.65 5.95 -8.6 Q5.8 -9.7 5.95 -10.0 7.25 -10.1 7.45 -10.45 L7.5 -9.55 7.65 -6.25 7.7 -4.75 7.75 -3.0 7.75 -2.85 7.8 -2.0 Q6.45 -0.8 4.9 0.15 L4.45 0.4 4.1 0.7 4.0 0.25 3.85 -0.1 3.8 -0.2 3.4 -1.45" fill="#270000" fill-rule="evenodd" stroke="none"/>
      <path d="M6.15 -1.4 L6.2 -1.4 6.15 -1.4" fill="#010007" fill-rule="evenodd" stroke="none"/>
      <path d="M5.3 3.4 L5.55 3.35 5.5 3.4 5.3 3.4" fill="#a27ecd" fill-rule="evenodd" stroke="none"/>
      <path d="M3.2 1.4 L3.15 1.35 2.9 1.25 2.45 1.0 2.4 0.7 2.0 0.25 1.4 -0.3 1.1 -0.65 2.8 -0.7 3.2 -0.7 4.4 -0.85 5.75 -1.25 6.15 -1.4 6.2 -1.4 7.0 -1.85 8.85 -3.3 8.75 -1.65 8.6 -0.75 8.45 -0.6 7.75 -0.25 5.75 0.35 4.4 0.55 3.8 0.6 4.4 0.7 5.75 0.8 6.65 0.75 7.8 0.25 8.0 -0.05 8.3 -0.15 8.55 0.2 8.8 0.95 8.7 1.2 8.65 1.2 8.25 1.5 8.2 1.55 7.4 1.9 6.85 2.05 5.8 2.25 5.55 2.25 6.7 2.5 6.75 2.45 7.05 2.5 5.45 3.55 6.55 3.5 Q8.15 2.55 7.4 2.5 L7.8 2.4 8.25 2.05 8.3 2.45 8.0 3.45 8.0 3.55 8.0 3.85 7.35 4.4 Q6.9 4.7 6.5 5.6 L5.35 7.8 4.55 8.65 3.95 8.95 3.45 9.0 2.05 8.75 1.75 8.5 1.7 8.45 1.65 7.9 Q1.75 7.45 2.15 6.9 L2.75 6.05 3.15 5.3 3.8 3.5 4.0 3.6 5.3 3.4 5.5 3.4 5.55 3.35 5.3 3.4 3.95 3.15 4.0 3.15 4.15 3.15 3.65 3.05 3.45 2.95 3.35 2.85 Q2.9 2.5 2.9 2.1 L3.0 1.85 3.2 1.9 4.4 2.15 5.75 1.8 6.4 1.25 5.75 1.35 5.05 1.45 4.4 1.55 3.2 1.4 M7.95 4.4 L7.85 5.35 7.8 5.95 Q7.7 6.0 7.55 6.15 L7.2 6.3 7.15 5.0 7.95 4.4 M6.1 2.7 L5.75 2.75 4.4 2.55 3.95 2.45 4.4 2.65 5.1 2.95 6.1 2.7" fill="#e7c3c3" fill-rule="evenodd" stroke="none"/>
      <path d="M8.45 -0.6 L8.0 -0.05 7.8 0.25 6.65 0.75 5.75 0.8 4.4 0.7 3.8 0.6 4.4 0.55 5.75 0.35 7.75 -0.25 8.45 -0.6 M8.25 1.5 L8.25 1.55 8.1 1.75 8.0 1.8 7.9 1.75 7.95 1.8 8.0 1.9 8.05 1.9 8.25 2.05 7.8 2.4 7.4 2.5 Q8.15 2.55 6.55 3.5 L5.45 3.55 7.05 2.5 6.75 2.45 6.7 2.5 5.55 2.25 5.8 2.25 6.85 2.05 7.4 1.9 8.2 1.55 8.25 1.5 M8.0 3.85 L7.95 4.4 7.15 5.0 7.2 6.3 6.55 6.35 6.55 6.55 6.5 6.5 6.05 7.6 5.15 8.75 4.55 9.15 3.95 9.3 3.55 9.3 3.2 9.35 2.7 9.35 Q2.25 9.35 1.9 8.85 L1.9 8.8 1.85 8.7 1.8 8.65 1.8 8.6 1.75 8.5 2.05 8.75 3.45 9.0 3.95 8.95 4.55 8.65 5.35 7.8 6.5 5.6 Q6.9 4.7 7.35 4.4 L8.0 3.85 M3.8 3.5 L3.45 3.05 3.65 3.1 3.55 3.0 3.45 2.95 3.65 3.05 4.15 3.15 4.0 3.15 3.95 3.15 5.3 3.4 4.0 3.6 3.8 3.5 M3.0 1.85 L3.2 1.4 4.4 1.55 5.05 1.45 5.75 1.35 6.4 1.25 5.75 1.8 4.4 2.15 3.2 1.9 3.0 1.85 M6.1 2.7 L5.1 2.95 4.4 2.65 3.95 2.45 4.4 2.55 5.75 2.75 6.1 2.7" fill="#e27a9c" fill-rule="evenodd" stroke="none"/>
    </g>
  </defs>
</svg>
