<?xml version="1.0" encoding="UTF-8" standalone="no"?>
<svg xmlns:ffdec="https://www.free-decompiler.com/flash" xmlns:xlink="http://www.w3.org/1999/xlink" ffdec:objectType="frame" height="13.9px" width="6.4px" xmlns="http://www.w3.org/2000/svg">
  <g transform="matrix(1.0, 0.0, 0.0, 1.0, -1.4, 5.65)">
    <use ffdec:characterId="1" height="13.9" transform="matrix(1.0, 0.0, 0.0, 1.0, 1.4, -5.65)" width="6.4" xlink:href="#shape0"/>
  </g>
  <defs>
    <g id="shape0" transform="matrix(1.0, 0.0, 0.0, 1.0, -1.4, 5.65)">
      <path d="M4.75 -5.45 L7.55 -5.65 7.7 -3.35 7.75 4.0 5.7 5.1 Q4.25 5.15 4.35 4.7 L4.35 3.1 4.1 0.9 2.65 -3.35 Q2.35 -4.15 2.15 -5.45 L4.75 -5.45" fill="#ffffff" fill-rule="evenodd" stroke="none"/>
      <path d="M7.75 -1.95 L7.7 -0.45 Q5.35 0.45 3.8 -0.05 L3.4 -1.35 Q6.95 -1.1 7.75 -1.95 M7.65 -4.45 L7.7 -2.95 Q4.5 -2.05 2.95 -2.55 L2.45 -3.85 Q6.8 -3.5 7.65 -4.45 M7.75 0.6 L7.7 2.1 Q5.85 3.0 4.3 2.5 L4.15 1.35 6.75 1.3 7.75 0.6" fill="#cccccc" fill-rule="evenodd" stroke="none"/>
      <path d="M2.05 7.75 Q1.6 7.4 1.45 6.55 1.3 5.7 1.85 5.35 2.4 5.0 4.1 4.3 L4.15 3.05 4.95 2.95 6.45 3.25 6.0 4.55 6.9 4.2 Q6.9 5.75 5.6 6.7 4.25 7.6 3.5 7.75 L2.05 7.75" fill="#513624" fill-rule="evenodd" stroke="none"/>
      <path d="M6.9 4.2 L7.8 3.8 7.6 6.3 6.05 7.55 4.25 8.2 2.75 8.1 2.05 7.75 3.5 7.75 Q4.25 7.6 5.6 6.7 6.9 5.75 6.9 4.2" fill="#331705" fill-rule="evenodd" stroke="none"/>
      <path d="M4.0 4.75 L5.2 5.0 4.3 5.4 3.15 5.15 4.0 4.75 Z" fill="none" stroke="#ffcc00" stroke-linecap="round" stroke-linejoin="round" stroke-width="0.30000000000000004"/>
      <path d="M5.3 4.9 L5.3 4.95 5.25 4.95 5.05 5.0 4.75 4.95 4.75 4.9 3.9 4.7 3.9 4.6 3.95 4.55 5.3 4.9 M3.2 5.1 L3.25 5.0 4.15 5.25 4.1 5.3 3.7 5.25 3.2 5.1" fill="#ffffff" fill-rule="evenodd" stroke="none"/>
      <path d="M3.05 6.1 L2.8 6.65 2.15 6.7 Q1.85 6.4 2.15 6.05 2.35 5.65 2.65 5.75 L3.05 6.1" fill="#ffffff" fill-opacity="0.29803923" fill-rule="evenodd" stroke="none"/>
    </g>
  </defs>
</svg>
