<svg xmlns="http://www.w3.org/2000/svg" xmlns:ffdec="https://www.free-decompiler.com/flash" xmlns:xlink="http://www.w3.org/1999/xlink" ffdec:objectType="frame" width="8.25" height="19.8"><use ffdec:characterId="1" xlink:href="#a" width="8.25" height="19.8"/><defs><g id="a" fill-rule="evenodd"><path fill="#010007" d="m5.7 7.7.05-.3.55-.1-.15.35z"/><path fill="#e7c3c3" d="m2.7 8-.2-.1-.6.45-.4.45-.65.9.15.2.1.1-.45.15H.6L.4 10l.7-1.15q.8-1.1 2-1.7l-.3.6v.15zm4.45.05v-.1l.7-.7v-.1L7 7l-.1.15-.05.05h-.2l-.1-.05.05-.25.1-.05.35-.2.85.25v-.05l.1.05.05.05h.1l.1.15v.05l-.15.55-.4.4.05-.2-.5.4-.1-.05z"/><path fill="#e27a9c" d="m5.7 7.7-1.5.35L3 8.6l.35 1-.2.1-.95.3-.6.15-.2-.1-.2.05-.1-.1-.1-.1-.15-.2.65-.9.4-.45.6-.45.2.1v.05l-.15.2.3.05.3-.25 2.6-.65zm1.15-.5.05-.05L7 7l.85.15v.1l-.7.7v.1H7.1L7 8v-.05l-.1-.1-.4-.2h-.35l.15-.35.35-.05z"/><path fill="#410015" d="M5.25.45q-.15.3 0 1.4L5.7 5.8v2.1q-.45.35-1.3.75-1.4.6-1.7.35L1.5 5.45.7 3 .3 1.55.25 1.4.15.85 0 .45q1.7.45 5.25 0"/><path fill="#270000" d="M2.7 9q.3.25 1.7-.35.85-.4 1.3-.75V5.8l-.45-3.95q-.15-1.1 0-1.4 1.3-.1 1.5-.45l.05.9.15 3.3L7 5.7l.05 1.75v.15l.05.85q-1.35 1.2-2.9 2.15l-.45.25-.35.3-.1-.45-.15-.35-.05-.1z"/><path fill="#010007" d="M5.45 9.05h.05z"/><path fill="#a27ecd" d="m4.6 13.85.25-.05-.05.05z"/><path fill="#e7c3c3" d="m2.5 11.85-.05-.05-.25-.1-.45-.25-.05-.3-.4-.45-.6-.55-.3-.35 1.7-.05h.4l1.2-.15 1.35-.4.4-.15h.05l.8-.45 1.85-1.45-.1 1.65-.15.9-.15.15-.7.35-2 .6-1.35.2-.6.05.6.1 1.35.1.9-.05 1.15-.5.2-.3.3-.1.25.35.25.75-.1.25h-.05l-.4.3-.05.05-.8.35-.55.15-1.05.2h-.25l1.15.25.05-.05.3.05L4.75 14l1.1-.05q1.6-.95.85-1l.4-.1.45-.35.05.4-.3 1v.4l-.65.55q-.45.3-.85 1.2l-1.15 2.2-.8.85-.6.3-.5.05-1.4-.25-.3-.25L1 18.9l-.05-.55q.1-.45.5-1l.6-.85.4-.75.65-1.8.2.1 1.3-.2h.2l.05-.05-.25.05-1.35-.25h.2l-.5-.1-.2-.1-.1-.1q-.45-.35-.45-.75l.1-.25.2.05 1.2.25 1.35-.35.65-.55-.65.1-.7.1-.65.1zm4.75 3-.1.95-.05.6q-.1.05-.25.2l-.35.15-.05-1.3zm-1.85-1.7-.35.05L3.7 13l-.45-.1.45.2.7.3z"/><path fill="#e27a9c" d="m7.75 9.85-.45.55-.2.3-1.15.5-.9.05-1.35-.1-.6-.1.6-.05 1.35-.2 2-.6zm-.2 2.1V12l-.15.2-.1.05-.1-.05.05.05.05.1h.05l.2.15-.45.35-.4.1q.75.05-.85 1l-1.1.05 1.6-1.05-.3-.05-.05.05-1.15-.25h.25l1.05-.2.55-.15.8-.35zM7.3 14.3l-.05.55-.8.6.05 1.3-.65.05v.2l-.05-.05-.45 1.1-.9 1.15-.6.4-.6.15h-.4l-.35.05H2q-.45 0-.8-.5v-.05l-.05-.1-.05-.05v-.05l-.05-.1.3.25 1.4.25.5-.05.6-.3.8-.85 1.15-2.2q.4-.9.85-1.2zm-4.2-.35-.35-.45.2.05-.1-.1-.1-.05.2.1.5.1h-.2l1.35.25-1.3.2zm-.8-1.65.2-.45 1.2.15.65-.1.7-.1.65-.1-.65.55-1.35.35-1.2-.25zm3.1.85-1 .25-.7-.3-.45-.2.45.1 1.35.2z"/></g></defs></svg>