<?xml version="1.0" encoding="UTF-8" standalone="no"?>
<svg xmlns:ffdec="https://www.free-decompiler.com/flash" xmlns:xlink="http://www.w3.org/1999/xlink" ffdec:objectType="frame" height="17.1px" width="7.1px" xmlns="http://www.w3.org/2000/svg">
  <g transform="matrix(1.0, 0.0, 0.0, 1.0, -1.3, 7.8)">
    <use ffdec:characterId="1" height="17.1" transform="matrix(1.0, 0.0, 0.0, 1.0, 1.3, -7.8)" width="7.1" xlink:href="#shape0"/>
  </g>
  <defs>
    <g id="shape0" transform="matrix(1.0, 0.0, 0.0, 1.0, -1.3, 7.8)">
      <path d="M1.8 -7.2 Q2.85 -6.55 3.75 -6.5 L5.0 -6.5 6.05 -6.75 6.2 -6.75 6.2 -6.6 5.5 -6.3 Q3.75 -5.55 1.9 -5.5 1.3 -5.95 1.3 -6.25 L1.6 -6.7 1.8 -7.2 M1.95 -5.35 L3.65 -5.55 Q5.2 -5.6 6.25 -6.1 L6.3 -5.7 3.75 -4.75 3.7 -4.7 6.35 -5.05 6.4 -4.65 6.65 -1.9 6.8 1.3 6.7 3.4 6.4 4.6 6.65 4.7 6.3 5.1 6.45 5.2 6.6 5.3 6.3 5.75 6.35 5.65 6.15 5.25 5.4 4.35 5.05 4.15 5.15 4.05 5.1 4.0 4.8 4.05 4.45 4.1 4.1 4.2 4.2 3.95 4.2 3.75 4.25 2.95 4.0 1.55 3.4 -0.85 2.7 -3.3 2.4 -4.15 3.15 -3.95 6.25 -4.3 2.2 -4.55 Q1.85 -4.9 1.85 -5.15 L1.95 -5.35 M4.0 4.25 L3.6 4.5 3.15 4.95 3.45 4.4 Q3.8 4.0 4.0 4.25 M2.95 5.15 L2.8 5.45 2.85 5.6 2.95 5.6 3.4 5.1 Q3.8 4.7 4.4 4.7 5.3 4.7 6.2 5.85 5.5 6.55 4.05 6.9 L4.0 6.75 4.05 6.75 3.8 6.75 Q3.1 6.75 2.85 6.45 L2.6 6.05 2.6 6.0 2.45 6.1 2.5 5.95 2.6 5.75 2.6 5.6 2.7 5.6 2.95 5.15" fill="#831f1f" fill-rule="evenodd" stroke="none"/>
      <path d="M1.9 -5.5 Q3.75 -5.55 5.5 -6.3 L6.2 -6.6 6.2 -6.75 6.05 -6.75 5.0 -6.5 3.75 -6.5 Q2.85 -6.55 1.8 -7.2 L1.8 -7.3 1.9 -7.3 3.05 -7.0 6.25 -7.4 7.5 -7.75 7.5 -7.8 7.6 -7.8 7.8 -7.4 7.9 -7.0 7.85 -6.8 7.8 -6.65 7.75 -6.6 7.65 -6.4 Q7.85 -6.45 7.85 -5.95 L7.75 -5.55 7.7 -4.75 7.8 -3.05 7.95 0.95 Q8.05 4.2 7.75 5.1 L6.0 6.35 4.7 6.8 4.05 6.9 Q5.5 6.55 6.2 5.85 5.3 4.7 4.4 4.7 3.8 4.7 3.4 5.1 L2.95 5.6 2.85 5.6 2.8 5.45 2.95 5.15 3.15 4.95 3.6 4.5 4.0 4.25 4.1 4.2 4.45 4.1 4.8 4.05 5.1 4.0 5.15 4.05 5.05 4.15 5.4 4.35 6.15 5.25 6.35 5.65 6.3 5.75 6.6 5.3 6.45 5.2 6.3 5.1 6.65 4.7 6.4 4.6 6.7 3.4 6.8 1.3 6.65 -1.9 6.4 -4.65 6.35 -5.05 3.7 -4.7 3.75 -4.75 6.3 -5.7 6.25 -6.1 Q5.2 -5.6 3.65 -5.55 L1.95 -5.35 1.95 -5.45 1.9 -5.5 M2.4 -4.15 L2.3 -4.45 2.2 -4.55 6.25 -4.3 3.15 -3.95 2.4 -4.15 M2.5 5.95 L2.45 6.1 2.6 6.0 2.6 6.05 2.85 6.45 Q3.1 6.75 3.8 6.75 L4.05 6.75 4.0 6.75 4.05 6.9 Q3.15 7.0 2.75 6.6 L2.35 6.1 2.5 5.95" fill="#510000" fill-rule="evenodd" stroke="none"/>
      <path d="M8.4 -2.95 L8.4 -2.9 8.1 -2.7 8.4 -2.95" fill="#d0af67" fill-rule="evenodd" stroke="none"/>
      <path d="M7.1 4.15 L7.25 4.95 7.05 5.4 6.85 5.45 6.0 5.15 5.45 4.55 Q4.9 4.1 4.25 4.3 L3.85 4.45 3.65 4.45 3.6 4.5 3.2 4.75 3.3 4.6 3.3 4.55 3.35 4.4 Q4.25 3.8 5.2 4.15 L6.6 5.2 6.9 5.15 Q7.25 4.6 6.8 4.0 L7.1 4.15 M8.1 5.2 L8.05 5.75 7.15 6.6 Q6.45 7.1 5.95 8.15 5.4 9.2 3.45 9.3 1.95 9.35 1.55 8.3 2.7 9.2 4.6 8.65 5.6 8.3 6.1 7.4 6.8 6.2 8.1 5.2" fill="#7e3e00" fill-rule="evenodd" stroke="none"/>
      <path d="M1.95 8.55 L1.65 8.35 1.55 8.3 1.5 8.2 1.35 7.5 1.35 7.35 1.35 7.3 1.35 7.25 Q1.35 6.8 1.6 6.5 L1.9 6.2 2.9 5.15 3.2 4.75 3.6 4.5 3.65 4.45 3.85 4.45 3.3 4.95 Q3.0 5.4 3.0 5.8 3.0 6.65 3.95 6.65 4.75 6.65 5.4 6.15 L5.95 5.5 6.0 5.45 6.05 5.5 6.15 5.95 6.1 6.25 5.6 6.85 5.15 7.3 5.2 7.3 4.9 7.45 4.5 7.7 3.5 8.0 2.85 7.95 1.65 7.5 1.65 7.55 2.2 8.0 2.2 8.3 2.1 8.55 1.95 8.5 1.95 8.55 M5.55 3.2 L5.5 3.45 5.5 3.55 Q5.3 4.05 4.95 4.0 L4.75 4.05 Q4.05 3.95 3.35 4.4 L3.85 3.45 Q4.2 3.1 4.7 3.1 L5.05 3.1 5.55 3.2" fill="#d0af67" fill-rule="evenodd" stroke="none"/>
      <path d="M5.95 5.5 L6.0 5.2 6.0 5.15 6.85 5.45 7.05 5.4 7.25 4.95 7.1 4.15 7.25 4.15 7.7 3.9 8.1 3.5 8.05 3.65 8.05 4.65 8.1 4.1 8.1 5.1 8.1 5.2 Q7.2 5.9 6.6 6.7 L6.1 7.4 5.9 7.75 5.4 8.25 5.25 8.35 5.15 8.4 4.6 8.65 4.4 8.7 4.2 8.75 1.95 8.55 1.95 8.5 2.1 8.55 2.2 8.3 2.2 8.0 1.65 7.55 1.65 7.5 2.85 7.95 3.5 8.0 4.5 7.7 4.9 7.45 5.2 7.3 5.15 7.3 5.6 6.85 6.1 6.25 6.15 5.95 6.05 5.5 6.0 5.45 5.95 5.5 M4.75 4.05 L4.95 4.0 Q5.3 4.05 5.5 3.55 L5.5 3.45 5.55 3.2 6.3 3.6 6.8 4.0 Q7.25 4.6 6.9 5.15 L6.6 5.2 5.2 4.15 4.75 4.05" fill="#bf8c3f" fill-rule="evenodd" stroke="none"/>
      <path d="M7.05 4.5 L6.7 4.15 Q6.3 4.1 6.3 4.55 6.3 4.95 6.65 5.0 L7.05 4.85 7.05 4.5 M6.85 5.25 L6.3 5.1 6.1 4.6 Q6.1 3.95 6.7 4.05 7.25 4.15 7.25 4.7 7.2 5.2 6.85 5.25" fill="#ffffff" fill-rule="evenodd" stroke="none"/>
      <path d="M6.75 4.45 L6.6 4.25 6.5 4.4 6.55 4.55 6.7 4.55 6.75 4.45 M7.05 4.5 L7.05 4.85 6.65 5.0 Q6.3 4.95 6.3 4.55 6.3 4.1 6.7 4.15 L7.05 4.5 M6.65 4.7 L6.7 4.9 6.85 4.9 6.95 4.8 6.8 4.55 6.65 4.7" fill="#e7d1a1" fill-rule="evenodd" stroke="none"/>
      <path d="M6.75 4.45 L6.7 4.55 6.55 4.55 6.5 4.4 6.6 4.25 6.75 4.45 M6.65 4.7 L6.8 4.55 6.95 4.8 6.85 4.9 6.7 4.9 6.65 4.7" fill="#564727" fill-rule="evenodd" stroke="none"/>
    </g>
  </defs>
</svg>
