<?xml version="1.0" encoding="UTF-8" standalone="no"?>
<svg xmlns:ffdec="https://www.free-decompiler.com/flash" xmlns:xlink="http://www.w3.org/1999/xlink" ffdec:objectType="frame" height="6.05px" width="7.6px" xmlns="http://www.w3.org/2000/svg">
  <g transform="matrix(1.0, 0.0, 0.0, 1.0, -0.8, -3.15)">
    <use ffdec:characterId="1" height="6.05" transform="matrix(1.0, 0.0, 0.0, 1.0, 0.8, 3.15)" width="7.6" xlink:href="#shape0"/>
  </g>
  <defs>
    <g id="shape0" transform="matrix(1.0, 0.0, 0.0, 1.0, -0.8, -3.15)">
      <path d="M7.3 5.9 L7.5 5.65 7.6 5.6 8.1 5.25 8.15 5.2 8.15 6.3 8.0 6.6 7.95 6.65 7.85 6.1 Q7.55 6.1 7.55 6.5 L7.55 6.9 7.2 7.15 7.15 6.65 7.15 6.55 Q6.75 6.6 6.8 7.45 L6.7 7.5 6.4 7.65 6.3 7.15 Q6.0 7.25 5.95 7.75 L5.95 7.95 5.6 8.15 5.55 7.7 5.45 7.75 5.25 8.05 5.25 8.35 5.1 8.45 Q5.0 8.45 4.95 8.55 L4.9 8.15 4.7 8.15 4.5 8.55 4.5 8.75 4.45 8.8 4.15 8.95 4.1 8.5 Q3.85 8.4 3.8 9.05 L3.45 9.15 3.4 8.7 3.15 8.7 3.05 9.2 2.6 9.15 2.55 8.7 2.3 8.65 2.25 9.1 1.85 8.95 1.85 8.6 1.6 8.4 1.5 8.8 1.25 8.65 1.2 8.3 1.1 8.1 1.05 8.05 1.0 8.5 0.9 8.35 0.9 7.75 0.9 7.5 1.0 7.55 1.0 7.6 1.1 7.7 1.15 7.75 1.25 7.8 1.45 7.95 1.8 8.1 2.25 8.25 2.6 8.35 3.1 8.35 3.6 8.25 3.3 8.45 3.65 8.3 4.05 8.05 4.45 7.85 5.05 7.5 5.45 7.25 7.1 6.1 7.3 5.95 7.3 5.9" fill="#240000" fill-rule="evenodd" stroke="none"/>
      <path d="M7.05 5.2 L7.1 5.25 6.9 5.6 6.2 6.2 5.5 6.55 5.2 6.45 4.8 6.0 Q3.75 5.2 2.35 5.25 L3.5 4.45 4.25 3.95 4.6 3.85 Q5.35 3.8 6.15 4.25 6.7 4.5 7.05 5.2" fill="url(#gradient0)" fill-rule="evenodd" stroke="none"/>
      <path d="M7.1 5.25 L7.3 5.9 7.3 5.95 7.1 6.1 5.45 7.25 5.05 7.5 5.0 7.5 5.05 7.25 5.0 7.0 Q4.9 6.45 4.35 6.05 L4.2 5.95 Q3.05 5.35 2.2 5.55 L2.1 5.5 2.35 5.25 Q3.75 5.2 4.8 6.0 L5.2 6.45 5.5 6.55 6.2 6.2 6.9 5.6 7.1 5.25" fill="#b87a03" fill-rule="evenodd" stroke="none"/>
      <path d="M7.1 5.25 L7.05 5.2 7.3 4.75 Q7.7 4.35 7.7 3.85 L7.7 3.25 8.35 3.15 Q8.55 4.1 8.2 5.1 L8.2 5.15 8.15 5.2 8.1 5.25 7.6 5.6 7.5 5.65 7.3 5.9 7.1 5.25" fill="#9f750e" fill-rule="evenodd" stroke="none"/>
      <path d="M0.95 7.4 L0.9 7.15 Q0.65 6.55 1.0 6.35 L1.6 5.95 1.65 5.9 1.7 5.85 2.0 5.65 2.2 5.55 Q3.05 5.35 4.2 5.95 L4.35 6.05 Q4.9 6.45 5.0 7.0 L4.05 7.8 3.1 8.15 Q2.6 8.15 2.6 7.75 L2.9 7.15 2.6 7.4 2.35 7.95 2.4 8.1 Q2.0 8.05 2.0 7.55 L2.0 7.45 2.25 7.5 2.5 7.5 2.4 7.15 2.05 7.15 1.9 7.35 1.9 7.4 1.95 7.4 1.8 7.6 1.8 7.7 1.8 7.8 1.65 7.8 1.45 7.7 1.35 7.45 1.4 7.2 1.25 7.25 1.25 7.2 1.15 7.6 1.15 7.75 1.1 7.7 1.05 7.3 1.15 6.85 1.25 6.85 1.25 6.7 1.2 6.6 1.1 6.6 1.05 6.7 0.95 7.3 0.95 7.4 M3.1 7.25 Q2.75 7.25 2.7 7.55 2.85 7.5 3.1 7.75 L3.7 7.75 3.45 7.45 Q3.3 7.3 3.2 7.3 L3.1 7.25 M1.8 7.1 L1.45 6.95 1.4 7.0 1.35 7.0 1.35 7.05 1.45 7.1 1.55 7.15 1.85 7.15 1.8 7.1" fill="url(#gradient1)" fill-rule="evenodd" stroke="none"/>
      <path d="M2.0 7.45 L1.95 7.4 1.9 7.4 1.9 7.35 2.05 7.15 2.4 7.15 2.5 7.5 2.25 7.5 2.0 7.45 M3.1 7.25 L3.2 7.3 Q3.3 7.3 3.45 7.45 L3.7 7.75 3.1 7.75 Q2.85 7.5 2.7 7.55 2.75 7.25 3.1 7.25 M1.8 7.1 L1.85 7.15 1.55 7.15 1.45 7.1 1.35 7.05 1.35 7.0 1.4 7.0 1.45 6.95 1.8 7.1 M1.15 6.85 L1.05 6.85 1.05 6.7 1.1 6.6 1.2 6.6 1.25 6.7 1.25 6.85 1.15 6.85" fill="#faf687" fill-rule="evenodd" stroke="none"/>
      <path d="M5.0 7.0 L5.05 7.25 5.0 7.5 3.65 8.3 3.3 8.45 3.6 8.25 3.1 8.35 2.6 8.35 2.25 8.25 1.8 8.1 1.45 7.95 1.25 7.8 1.15 7.75 1.15 7.6 1.25 7.2 1.25 7.25 1.4 7.2 1.35 7.45 1.45 7.7 1.65 7.8 1.8 7.8 1.8 7.7 1.8 7.6 1.95 7.4 2.0 7.45 2.0 7.55 Q2.0 8.05 2.4 8.1 L2.35 7.95 2.6 7.4 2.9 7.15 2.6 7.75 Q2.6 8.15 3.1 8.15 L4.05 7.8 5.0 7.0 M1.1 7.7 L1.0 7.6 1.0 7.55 0.95 7.4 0.95 7.3 1.05 6.7 1.05 6.85 1.15 6.85 1.05 7.3 1.1 7.7" fill="#986f0e" fill-rule="evenodd" stroke="none"/>
      <path d="M7.7 3.25 L7.7 3.85 Q7.7 4.35 7.3 4.75 L7.05 5.2 Q6.7 4.5 6.15 4.25 5.35 3.8 4.6 3.85 L4.25 3.95 4.25 3.9 4.45 3.75 4.5 3.6 4.5 3.4 4.5 3.3 4.5 3.25 7.7 3.25" fill="url(#gradient2)" fill-rule="evenodd" stroke="none"/>
      <path d="M8.2 5.15 L8.35 4.8 8.4 6.05 8.0 6.6 8.15 6.3 8.15 5.2 8.2 5.15 M4.7 8.15 L4.9 8.15 4.95 8.55 4.55 8.75 4.5 8.75 4.5 8.55 4.7 8.15 M2.55 8.7 L2.6 9.15 2.25 9.1 2.3 8.65 2.55 8.7 M3.05 9.2 L3.15 8.7 3.4 8.7 3.45 9.15 3.05 9.2 M3.8 9.05 Q3.85 8.4 4.1 8.5 L4.15 8.95 3.8 9.05 M1.1 8.55 L1.0 8.5 1.05 8.05 1.1 8.1 1.2 8.3 1.25 8.65 1.1 8.55 M1.5 8.8 L1.6 8.4 1.85 8.6 1.85 8.95 1.5 8.8 M7.9 6.65 L7.55 6.9 7.55 6.5 Q7.55 6.1 7.85 6.1 L7.95 6.65 7.9 6.65 M7.15 6.55 L7.15 6.65 7.2 7.15 6.8 7.45 Q6.75 6.6 7.15 6.55 M5.95 7.95 L5.95 7.75 Q6.0 7.25 6.3 7.15 L6.4 7.65 5.95 7.95 M5.25 8.35 L5.25 8.05 5.45 7.75 5.55 7.7 5.6 8.15 5.25 8.35" fill="#7a550e" fill-rule="evenodd" stroke="none"/>
    </g>
    <linearGradient gradientTransform="matrix(0.0025, 0.0013, -8.0E-4, 0.0016, 4.85, 5.35)" gradientUnits="userSpaceOnUse" id="gradient0" spreadMethod="pad" x1="-819.2" x2="819.2">
      <stop offset="0.0" stop-color="#bd7c00"/>
      <stop offset="0.5058823529411764" stop-color="#3c2400"/>
    </linearGradient>
    <radialGradient cx="0" cy="0" gradientTransform="matrix(0.0032, 0.0, 0.0, 0.0032, 2.9, 6.85)" gradientUnits="userSpaceOnUse" id="gradient1" r="819.2" spreadMethod="pad">
      <stop offset="0.0" stop-color="#fffc76"/>
      <stop offset="1.0" stop-color="#c69932"/>
    </radialGradient>
    <linearGradient gradientTransform="matrix(0.0021, 0.0, 0.0, 0.0012, 5.95, 4.2)" gradientUnits="userSpaceOnUse" id="gradient2" spreadMethod="pad" x1="-819.2" x2="819.2">
      <stop offset="0.0" stop-color="#e3cb54"/>
      <stop offset="1.0" stop-color="#caa037"/>
    </linearGradient>
  </defs>
</svg>
