<svg xmlns="http://www.w3.org/2000/svg" xmlns:ffdec="https://www.free-decompiler.com/flash" xmlns:xlink="http://www.w3.org/1999/xlink" ffdec:objectType="frame" width="8.8" height="18.75"><use ffdec:characterId="1" xlink:href="#a" width="8.8" height="18.75"/><defs><g id="a" fill-rule="evenodd"><path fill="#121212" d="m8.45 14.5.15.4-.15.5-.25 2.75v.05l-.05.25-.2.25h-.5l-.15-.05v-.45l-.2-1.6-.9 1-.5.65-.5.5H1.7l.05-.4h3.2l.15-.2.3-.2q.05-.35.8-1.15l.8-.75.05.05.35-.4.95-.85v-.35z"/><path fill="#dedede" d="m8.7 2.5.1.8-.25 7.65-.2 1.35.3 1.05v.1l-.25 1.3-1.25 1.4-.2.15-1.35 1.5-.05.1-.45.45H1.75v-.15l.3-.5.7-1.1.85-1 .25-.95v-.15l.7-1.1L4 10.45l-.85-2.9L2.6 6.2q-.3-.65-.35-1.45L1.1 2.9 0 1.5l.1-.35L.65.6l.4-.2 1.7-.4L4.7.35l1.85.7q.45.15.75.5l.2.15.4.3z"/><path fill="#e7e7e7" d="M8.45 2.85Q8 4 6.7 4.95q-1.45 1-2.95.95l1.05.45h.9l1.2-.15.9-.75-.85 1.25-1.35.15-2.4-.05q-.45-.05-.55-.6l-.3-1v-.25l1.35.1q1.8 0 3.3-.95.9-.6 1.45-1.25M4.5 8.35q.85 0 1.6-.55l.95-1.1h.1v.25L5.65 9.1l1 .6q1.05.65 1.35 1.4l.1.1q-.95-.85-4.2-1.15L3.45 8.2zm.1 4.9 1.85-.2 1 .1-.05.15-1.7.3q-1 .2-1.5.7v-.05z"/><path fill="#7e7e7e" d="M3.1 7.05h-.05Q2.85 7 2.8 6.7l1.65.15 1.25.1 1-.1-.35.2h-2.6l-.35.4-.1.05zm5-3.65v.05q-.25.7-1.25 1.55-.05.1-2.25 1.15l-.25-.1L4.2 6l-.25-.15q2.35 0 4.15-2.45m-4.15 6.7 1.05.1h.05q2.05.15 2.85 1.05-1.55-.65-3-.65l-.5.05-.15.1-.3-.45zm2.35 3.3 1.1-.05q-2.65.5-3.55 1.45v-.05l.05-.05.15-.3.05-.05v-.05l.15-.25.9-.4z"/><path fill-opacity=".302" d="M7.5 1.75V1.7l.4.3.8.5.1.8-.25 7.65-.2 1.35.3 1.05v.1l-.25 1.3L7.3 16l-1.6 2.05 1-1.4.25-.35-.05.05-.1.15h-.05l-.1.1-.3.35-.75.85-.05.1.15-.25-.25.25.45-.6 1.45-1.65-.05-.4v-.1l.5-1.55-.1-.45.15-1.2-.1-1.5Q8 9.3 7.7 9.05l.05-2.5L7.5 2.4v-.05L7 1.5h.05l.1.1h.1l.05.05-.05-.1h.1l.1.1z"/></g></defs></svg>