<svg xmlns="http://www.w3.org/2000/svg" xmlns:ffdec="https://www.free-decompiler.com/flash" xmlns:xlink="http://www.w3.org/1999/xlink" ffdec:objectType="frame" width="8.95" height="25.85"><use ffdec:characterId="1" xlink:href="#a" width="8.95" height="25.85"/><defs><g id="a" fill-rule="evenodd"><path d="M8.55 21.05v.6l-.25.6-.6.45q-.45.35-.55.7-.2 1.25-.85 1.75l-1.1.55-1.6.1-1.3-.25q-.45-.9-.45-1.4.05.6.8.8l2.6.1q.9-.3 1.2-1.05l.45-1.2q.3-.6.75-.75l.8-.65z"/><path fill="#623114" d="m8.1.75-.2 1.2L.2 1 .15.8V.75L0 0zm-3.7 14.9 1.45-.15h.05l.25-.05 2.1-.05h.15l.55.1-.35 1.9-.15 1.25-.1.9-.05.3v.05l.15.75.1.4-.1.35-.8.65q-.45.15-.75.75L6.45 24q-.3.75-1.2 1.05l-2.6-.1q-.75-.2-.8-.8V24q0-.55.45-1.1l2.5-2.95-.05-.1-.7-2.35v-.1q-.55-1.45-.4-1.6zm.5 4.7-.05-.15-.05.15z"/><path fill="#b7b7b7" d="m8.4 19.45-.05.1.1-.9z"/><path fill="#545454" d="M5.85 20.15h.05v.05h-.05zm0 .3-.1.3v-.05z"/><path fill="#fff" d="M7.7 20.15q.35.35.1 1l-.5.1-.5-.05-1.05-.45-.05-.05-.35.05L5 20.7h-.05q-.35.35-1.05.5l-.45.1-.55-.1q-.1-.2-.05-.55l.1-.45q-.2-.8.05-1.3l1 .15q.6.2.95.55.1-.25.4-.1l.4.1q.25-.35.85-.55l1-.2q.35.5.1 1.3m-1.8 0 .55-.25-.25-.1-.25.1-.1-.4-.1.15.1.3v.5h.55q.15-.1-.5-.25zm-.05.3-.1.25v.05zm2 1.4-1.15.05-.65.9-.25-1.85 1.55.35zm-3-1.9-.4-.15q-.3-.1-.25.1l.65.25zm.05.5-.05-.25q-.75.1-.6.25l.5.05zm0 .4-.25 2-.65-.9H2.85l.5-.55q1.15.05 1.55-.55"/><path fill="#d9967d" d="M5.9 20.2q.65.15.5.25h-.55v-.25zm-1 .25-.15.05-.5-.05q-.15-.15.6-.25zm-1.45.85.45-.1q.7-.15 1.05-.5H5l-.1.15q-.4.6-1.55.55zm1.4-1.35v.2l-.65-.25q-.05-.2.25-.1zm.85.75.05.05 1.05.45.5.05.05.05-1.55-.35-.1-.05zm.15-.55v-.2l-.1-.3.1-.15.1.4.25-.1.25.1-.55.25z"/><path fill="#fff" d="M1 1.35v.05l1.9 2.15L1.5 6.1l1.9 2.25 1.45-2.6-1.9-2.2L4.1 1.5l.85.1 1.3 1.55.75-1.3.9.1.1-.6.05 3.75-1.8-1.95-1.4 2.6L6.75 8 8.1 5.8l.1 3.7L6.75 8l-1.4 2.6 1.9 2.25 1-1.55.1 3.3.05.8h-.15l-.05-1.45-.95-1.1-1.4 2.6.05.05h-.05v-.05L3.9 13.2l-.2.35-.3-.95.5.6 1.45-2.6L3.4 8.35l-.95 1.6-1.35-4.8Q.05 1.2.15.8L.2 1l.95.15z"/><path fill="#914f00" d="M6.75 8 8.2 9.5l.05.05.05 1.65-.05.1-1 1.55-1.9-2.25zl-1.9-2.25 1.4-2.6 1.8 1.95.05.05v.65zM1 1.35l.15-.2 2.95.35-1.15 2.05 1.9 2.2-1.45 2.6L1.5 6.1l1.4-2.55L1 1.4zm6 .5-.75 1.3-1.3-1.55zM5.9 15.5l-.05-.05 1.4-2.6.95 1.1.05 1.45-2.1.05zM2.45 9.95l.95-1.6 1.95 2.25-1.45 2.6-.5-.6-.05-.05zm1.95 5.7-.7-2.1.2-.35 1.95 2.25v.05z"/></g></defs></svg>