<svg xmlns="http://www.w3.org/2000/svg" xmlns:ffdec="https://www.free-decompiler.com/flash" xmlns:xlink="http://www.w3.org/1999/xlink" ffdec:objectType="frame" width="9.65" height="15.55"><use ffdec:characterId="1" xlink:href="#a" width="9.65" height="15.55"/><defs><linearGradient id="b" x1="-819.2" x2="819.2" gradientTransform="matrix(.0044 0 0 .0064 4.55 3.7)" gradientUnits="userSpaceOnUse" spreadMethod="pad"><stop offset=".42" stop-color="#cb007a"/><stop offset=".749" stop-color="#e70000"/><stop offset="1" stop-color="#830a0a"/></linearGradient><linearGradient id="c" x1="-819.2" x2="819.2" gradientTransform="matrix(.0044 0 0 .0064 4.55 3.7)" gradientUnits="userSpaceOnUse" spreadMethod="pad"><stop offset=".42" stop-color="#cb007a"/><stop offset=".749" stop-color="#e70000"/><stop offset="1" stop-color="#830a0a"/></linearGradient><g id="a" fill-rule="evenodd"><path fill="#833838" d="M5.6 13.9q.1-.1.15-.1l.25.15.1-.05-.05-.2.55-.6.3.35-.25.5.15.35-.15.4-.7-.35-.3-.25z"/><path d="m8.8 11.5-.1.75-.1 1.05-.05.15-.4.25-.95.55-.55.4-.1-.4v-.95q0-.55.25-.75l.65-.65q.6-.45 1.25-.45z"/><path fill="url(#b)" d="m2.85-.95 2.45.4q1.9 0 2.9-1l-.25 4.9q.3 1.05.2 2.35L5.2 7.85q-1.35 1.1-2.15 1.1-.45 0-.55-.4l-.1-.6q-.3-.55-.95-.65l-.5-.4L2.3 5.4q1.35-1.45 1.35-2.55 0-1.85-.6-3.6L2.9-.8z" transform="translate(.75 6.15)"/><path fill="url(#c)" d="m5.55 7.6-.35.25q-1.35 1.1-2.15 1.1-.45 0-.55-.4l-.1-.6q-.3-.55-.95-.65l-.5-.4L2.3 5.4q1.35-1.45 1.35-2.55 0-1.85-.6-3.6L2.9-.8l-.05-.15 2.45.4q1.9 0 2.9-1l-.25 4.9q.3 1.05.2 2.35l-.3.2-.05-1.05q-.25-1.6.05-3.35.1-.7-.2-1L6.15 2q.65 2.1-.55 3.5l-.65.75z" transform="translate(.75 6.15)"/><path fill="#310000" fill-opacity=".42" d="m8.6 12.05-2.3 1.7-.6-1.35.65-.75q1.2-1.4.55-3.5l1.5-1.5q.3.3.2 1Q8.3 9.4 8.55 11z"/><path fill="#ffb600" fill-opacity=".953" d="M8 7.95h-.05l-.2.15-.05-.3h.25l.05.1zm-1.8 4.8.1.15h-.05zm2.25-1.65v-1l.15.4z"/><path fill="#d27e00" d="m7.75 8.1.2-.15H8l-.15 1.3-.15 1.1q0 .55.35.55.3 0 .3-.4l-.1-.2-.3.25-.15-.2q0-.3.35-.3l.3.05v1l-.35.1H8l.05.45v.15l-.1.2-.25.25v-.05l-.1.05-1.05.1-.2.5-.05.05-.1-.15-.05-.1q0-.7 1.3-.6L7.7 12l.1-.15v-.2l.05-.2-.05-.25-.2-.2-.2.05-.1.05v.05l-.05.15v.1l-.05.1h.4l.05.1-.05.15-.2.05h-.15l-.3-.2v-.2q0-.55.55-.6l-.05-.4.2-1.25z"/><path fill="#fff" d="m5.95 11.85-.05.2-.2.25v.35l-.55.35-1.4.9Q1.5 15.5.3 14.1v-.4l.95-.9 2.35-1.3.55-.5-.25-.05-.2.05v.2l-.1.05-.05-.15.45-.4q.85.05 1.85 1.05z"/><path fill="#ffcdcd" d="M.3 13.7v.4q1.2 1.4 3.45-.2l1.4-.9.55-.35v-.35l.2-.25.05-.2.8 1.25-1.6 1.25q-.85.65-1.65.85-2.55.3-3.5-1.15zm3.7-3-.45.4.05.15.1-.05V11l.2-.05.25.05-.55.5-2.35 1.3.4-.35 1.2-1 .3-.2.35-.2V11q0-.3.4-.3z"/><path d="M0 14.05q.95 1.45 3.5 1.15.8-.2 1.65-.85l1.6-1.25.05-.05v.4h-.05l-.15.15-.1.15-.75.65-1.35.8-.75.3-1.85-.15h.15q-.8-.1-1.3-.55z"/><path fill="#ffb90b" d="m4 10.9-.3.65-.2-.05h.1-.05l.4-.6zm.55 1.15.65-.5.4.4.15.2-.5.65z"/><path fill="#d27e00" d="m5.75 12.15.25.3.65 1.15-.9.8q.25-.6-.5-1.6zm-1.8-1.25-.4.6-.7-.05q.65-.5 1.05-.55z"/><path fill="#ffde8e" d="m4 10.9.15.05h.05q.4.1 1 .6l-.65.5-.25-.25-.45-.3-.05.05h-.1z"/><path fill="#fff" d="M1.8 2.7q.3.25.7.55l.05.05.7.4q.75.45 2.85.7l.75.05q.8 1.15.55 2.7l-.15.6-.45.7-.1.15-1.55-.05-.2-.1-.3-.25-.05-.1-.5-.9-.25-1-.6-1.95L3.1 4l-.05-.05-.9-.35-.4-.65zm7.25 0 .1-.1.15.05q.1.15-.65.8-.8.6-2.5.6Q4.4 4 3.9 3.45l.9.25 1.3.1h.15l1.8-.4h.1l.15-.05v-.1l.65-.45z"/><path fill="#ffcdcd" d="m3.35 2.3-.05.05-1.05.45q0 .3.4.45l1.1.3h.05v-.1h.1q.5.55 2.25.6 1.7 0 2.5-.6.75-.65.65-.8l-.15-.05-.1.1v-.05l-.3-.5-.45-.25-.2-.1q2 .3 1.45 1.2-.65.9-.6 3.5v1.25L8 8.4l-1.4.35h-.45L4.4 8.4l-.15-.1-.35-.35-.1-.15-.05-.1-.05-.15-.05-.7-.1-.65q-.2-1.1-.9-1.95l-.5-.65.9.35.05.05.15.25.6 1.95.25 1 .5.9.05.1.3.25.2.1 1.55.05.1-.15.45-.7.15-.6q.25-1.55-.55-2.7L6.1 4.4Q4 4.15 3.25 3.7l-.7-.4-.05-.05q-.4-.3-.7-.55l.5-.3.05-.05.5-.15.15-.05.05-.05h.25l.1.1zm.35 1.25h-.1v.05z"/><path fill="#c28a8a" d="m3.75 3.55-1.1-.3q-.4-.15-.4-.45l1.05-.45.05-.05zl.05-.05v.05zM3.3 2.1h-.05l-.1-.2zm5-.2.45.25.3.5v.05l-.1.1-.65.45v-.6l-.05-.1v-.4l-.05-.2.05-.05z"/><path fill="#ffb90b" d="m8.55 7.75.15-1q.25-.2.25-.1v.55l-.3.45zm-1.35-.2-.3.9-.35.05h-.4L4.8 8.3l-1-.5-.05-.1-.05-.15-.05-.7 1.1.6 1.9.2.3-.05z"/><path fill="#d27e00" d="m8.7 6.75-.15 1-1 .5-.6.15-.05.05.3-.9.8-.3.65-.45z"/><path fill="#e20a0a" d="M1.4 12.45h-.05l-.1-.1v-.05l.05-.05zm.75-.4.3-.15.05.05h-.05l-.05.15-.2.05v-.1zm.9-.3v-.05h.05l.05-.05.15.05v.05h-.05L3 11.9l.05-.1zm.7.35.05.15-.15.05v-.1H3.6l-.1-.2v-.1h.25l-.05.05.05.05zm-.05 1v.05h-.15v-.05zm-.15.95-.1.05-.15-.05.05-.05z"/><path fill="#5b0000" d="m1.3 12.25.1-.05v.05h.05v.05l.05.1h.05l-.15.05zm1.7-.5h.05v.05zm-.6.35.05-.15h.05l-.05-.05.15.05.05-.05-.1.1zm1.4.15-.05.05h-.1zm-.1.65v.2h-.15v-.3l.05.05zm-.2 1.05.05.1-.2-.05v-.05h.15"/><path fill="#e53a25" d="m3.1 10.45.1.2.05.2H3.2l-.05.05-.05.15-.4.05.1-.05.15-.1.15-.15v-.35m.55-.15v-.4h.05l.1.1-.05.1-.1.15zm-1.25 1 .3.15.3.3.05.05-.05.1-.1-.15zm.15.7.1-.1.35.05-.1.3-.25.4.3-.65-.45.1zm.75-.25v-.05l.1-.1.1-.05-.05.2.05.05h.05l-.05.1-.15-.1zm.7-1.6.25-.05.35.1.4.3-.85-.3zm1.2.5v.15l-.15.05.1.35.05.1v.15l-.05.05-.1-.45H5L4.9 11l-.1-.1.2-.1zm-.15 1.2-.05.1-.05.1H4.7l-.05.15-.05.05-.05-.35.1-.1.3.05zm-1.3.45.25.05.25.35-.55-.4zm-.35.05.05-.1.15.45v.05l.05.05-.05.05-.05-.05v.05q-.15-.1-.15-.5m.7-2.05-.05-.1h.1z"/><path fill="#ff8474" d="m3.2 10.65-.1-.2.05-.15v-.15l.1-.05q.2-.35.4-.2v.4l-.05.05h-.2l-.1-.05-.05.05zm-.5.45.4-.05-.1.1.05.05.05.2.2.15.1.05-.1.1-.15-.05-.05.05-.1-.15-.05-.05-.1-.15zm-.25.8-.25-.15-.05-.15.05-.2.2-.1.5.45.1.15v.05l-.35-.05-.05.05zm.2.75-.2-.05-.1-.15.15-.35.45-.1zM5 10.5l.2.15-.2.15-.2.1v-.2l-.05-.1h.05l-.2-.15h-.3l-.1.05-.05-.2H4.1l.05-.1zm.15 1v.2l-.1.15h-.1l-.3-.05.05-.1.05-.15h.1l.1-.15.05-.2v-.15h.05zm-.55.75-.3.05-.25-.15h-.1l-.2-.05V12h.05l.15.05.25-.1.05-.05h.05v.2h.05v-.05l.2-.15zm-.35.45-.05.05-.1.15-.2.15-.2-.15-.1-.05.05-.05-.05-.05v-.05l-.15-.45h.15v-.05h.05v.1h.05zm-.7.15-.2.1-.3-.05-.05-.15.05-.2.3-.2h.05q0 .4.15.5"/><path fill="#63fcf7" d="M1.4 12.2V12l.3-.1.35-.05.1.2h.05v.3l-.2.25.1-.25.05-.15-.05-.05-.1.05-.1-.05-.05.15h-.1l.1-.3h-.2l-.1.05H1.5l-.05.2H1.4zm.05.1.1.1H1.5z"/><path fill="#fdfaff" d="m2.1 12.35-.15.05-.1-.1.05-.15.1.05.1-.05.05.05zm1.25.95.1.05.05-.05.1.15v.05l-.2.1-.15-.2z"/><path fill="#1c90ad" d="M1.45 12.3v-.05l.05-.2h.05l.1.1.05.2.05-.05h.1l.1.1.15-.05-.1.25-.1-.05-.2.05-.05-.05v-.05l-.1-.1z"/><path fill="#db63fc" d="m3.7 13.15.15.15.1.35-.1.25-.35.05h-.15l-.1-.1.25.05.25-.05v-.05l.05-.1-.05-.05.05-.1-.35.15-.05-.1.2-.1v-.05l-.1-.15-.05.05-.1-.05q-.1 0-.15.1l.1-.15q.1-.1.15-.05v-.05h.25"/><path fill="#581b69" d="m3.45 13.7.35-.15-.05.1.05.05-.05.1-.15-.1z"/><path fill="#991dbb" d="M3.25 13.85H3.2l-.05-.15v-.2l.05-.1q.05-.1.15-.1l-.1.1.15.2.05.1h.15l.15.1v.05l-.25.05z"/><path fill="#035774" d="m1.75 12.3-.05.05-.05-.2-.1-.1.1-.05h.2z"/><path fill="#f5e153" d="m3.2 10.65.05-.3.05-.05.05.4v.1l-.05.1h.05l-.1.05-.1.15v.05l-.05.05v.05l.05.15h.05l.15.05.1.05h.2l-.1.2.1.2H3.5l.05-.1H3.5l-.05-.05.05-.2-.1.05-.1-.05-.2-.15-.05-.2-.05-.05.1-.1.05-.15.05-.05h.05zm1.25 1.2.05-.05.1-.1-.1-.25.05.05.4-.1-.1.15h-.1l-.05.15-.05.1-.1.1-.2.15v.05H4.3v-.2h-.05l-.05.05-.25.1L3.8 12h-.05l-.05-.05h.1l.15-.05h.1l.15-.2.2.3z"/><path fill="#ffc431" d="m3.3 10.3.1.05.25.1.1.05v.05l-.05.1-.1-.05-.1.1.05.35h-.1l.05-.15-.05-.25-.05-.05-.05.1zm0 .65h-.05l.1-.05zm-.05.25h.1l-.05.05zm1.5-.6.05.1-.1.2v.15l.05-.05.25.2-.05.2-.4.1-.05-.05.1.25-.1.1-.05.05-.05-.05.1-.1-.2-.35h.2v-.05l.1-.05h.15l-.1-.1-.1-.05v-.25l.05-.15h.15l-.05-.1-.15-.05zm-1.05-.2.15-.2v-.05l.1.1H3.9l-.1.1v.05l-.05.1zm.05.3.05.05.05.1zm.2-.4.15.1.1.1.1.1v.05l-.1.05v-.05l-.15-.2-.1-.1zm.05.4v.15l-.05-.1v-.1zm0 .2.05.05-.05.1.05-.05.05.05.05-.05.15-.1v.05l-.15.1v.1h.05l.1-.05v.05l.05-.05.05.05-.2.1.1.2h-.15l-.1-.1L4 11.3l.05.2-.15.05-.1-.1.05-.1.05-.15.05.05.2-.05-.15-.15-.05-.05zm.3.65h-.05l-.05.05v.1l-.15.2h-.1v-.1l-.15-.05H4l.1-.1.05-.2zm-.6-.5v.15h-.05v-.1zm.15.15v-.05h.05zm.05-.15h-.05l-.1-.2H3.7v.1-.15l.15.1.1.1zm-.05-.25.05.05h-.05zm-.15.85.05.1-.1-.05z"/><path fill="#fffd9a" d="m3.3 10.95-.05.15H3.2l-.05.15H3.1v-.05l.05-.05v-.05l.1-.15zm-.1.3.05-.05.05.05zm.3-.35-.1-.15v.05l-.1.1.05-.1v-.1l.05-.1.05.05zm1.05-.35.15.05.05.1H4.6q.05-.15-.35 0l-.05.05v-.05l.1-.05v-.05l.2-.1zm-.7.3-.05-.1h.05v.1m.1-.5-.05-.05.05-.05v.1m.1.6h.05l.05-.05v.1l-.05.05-.05-.05-.05.05zm.25.15-.1.05h-.05v-.1l.15-.1-.05.15zm-.45.05.05-.05v.05zm0-.1-.1-.15v-.05z"/><path fill="#fff" d="M3.4 10.35h.2l.05-.05v-.05l.1-.15.05-.1.1.15H4l.15.05h-.1l.05.1h.05l.05.2.1-.05h.3l.2.15h-.05l-.2-.05-.05-.05-.2.1-.1-.1-.1-.1-.15-.1v-.05l-.05.05.05.05H3.9l.05.05-.05.05.05.05-.1.25H3.8l-.05-.05-.05-.05.05-.1v-.05l-.1-.05zm-.25.9.05-.15h.05l.05-.15.05-.05H3.3l.1-.1v-.05l.1.15-.05.15-.05.1-.1.05h-.05l-.05.05zm.55-.85.05.1.05-.1v-.05l.1-.1h.05l-.1-.1v.05zm.3.45v-.15h.05l.1.2-.05.05h-.05L4 10.9l-.05-.05zm.3.1v-.05h.15v.1l-.1.05v.05l-.05.05v-.05h-.05zm-.6.25v-.35h.05v.05l.1.15h.05v.05l-.05.05v.05l-.1.05z"/><path fill="#d06937" d="M3.1 11.25h.2l.05-.05.05.05.1.05.2.1h.05v.15l-.05.1-.05.05.1.05h.05l.15.05v.1l-.15.05h-.1l.05-.05h-.1l-.1-.2.1-.2h-.2l-.1-.05-.15-.05h-.05zm1.3.55.05.05-.05.15-.2-.3v-.1l.05-.05h.05z"/><path fill="#db5718" d="m3.3 11.2.1-.05.05-.1h.1l-.05-.35.1-.1.1.05.05.05.1.15h.05l-.05-.05v-.05l.1-.25-.05-.05.05-.05-.05-.05h.05l.1.1.15.2v.1l.05-.05q.4-.15.35 0l-.05.15v.25l.1.05.1.1H4.6l-.1.05v.05h-.2l.2.35-.1.1-.1-.25-.15-.1-.05.2-.1.1h-.25l-.05-.1.05-.1v-.15H3.7l-.2-.1-.1-.05-.05-.05zm1.5-.5v.2l.1.1.1.05v.15l-.25-.2-.05.05v-.15zm-.8 0-.05-.05v.1l.05.1h-.05l.05.05-.05.1.05.05.15.15-.2.05-.05-.05-.05.15-.05.1.1.1.15-.05-.05-.2.05.05.1.1h.15l-.1-.2.2-.1-.05-.05v-.05l.1-.05v-.1H4.3l-.15.1v-.1l-.1-.2zm-.3.35-.05.05v.1h.05l.05.05.1-.05.05-.05v-.1l.05-.05-.1-.1-.15-.1v.25"/><path fill="#430000" fill-opacity=".357" d="M2.55 3.95q.3.55 1.3 1.05.95.45 2.05.65l1.3-.5.5-.3L9.05 3.8l.5-.45-.05.45v.1l-.5.45-1.25.85-.5.3-.7.25.75.15 1.55.15h.1v.3l-.1.05-1.45.9-.25.15-1.5.7.85.45.75.2 1.3.2.25.05-.05.2v.1H8.2l-1.05-.2q-1.2-.3-1.85-.9l-.75.25-.2-.15-.2-.1.8-.2-.15-.1Q3.55 7.2 3.25 6.1V6h.2l.05.05 1.85-.25q-.95-.2-1.8-.6-.55-.25-.85-.55L2.45 4v-.05zm4.85 3 1.1-.6-.8-.05-.35-.05-1.25-.3-2.15.4-.3-.05q.8 1.3 1.6 1.65l1.7-.75z"/><path fill="#e20a0a" d="M7.1 8.95q-1.2-.3-1.85-.9l-.8.25h-.4l-.1-.25.95-.2-.15-.1Q3.5 7 3.2 5.9v-.1h.2l.05.05L5.3 5.6 3.5 5q-.95-.45-1.3-1.1l.2-.15h.1q.3.55 1.3 1.05l2.05.65 1.3-.5.05.35-.7.25.75.15.05.35-1.25-.3-2.15.4-.3-.05q.8 1.3 1.6 1.65L6.9 7l.45-.25v.35l-.25.15-1.5.7.85.45.75.2zM9 3.6l.5-.45.1.15q-.05.35-.65.85zm-.2 2.25h.25l.1.05-.05.1-.3.2zM8.5 8.8l.5.05.05.1-.15.2h-.45z"/><path fill="#930000" d="m7.15 4.95.5-.3L9 3.6l-.05.55L7.7 5l-.5.3zm.1.75 1.55.15v.35l-1.45.9v-.35l1.1-.6-.8-.05-.35-.05zM7.2 8.6l1.3.2-.05.35h-.3l-1.05-.2z"/><path fill="#ffb600" fill-opacity=".953" d="m2.95 1.85-.05.05v-.1z"/><path fill="#bd5300" fill-opacity=".953" d="m2.7.25.05-.1Q2.75.4 3.9.7q1.15.25 2.6 0Q7.85.4 8 0l.1.15q-.95 1-2.3.95-1.85.25-3.15-.7z"/><path fill="#ffb600" fill-opacity=".953" d="M5.65 1.85h-.9l-1-.2q-.3-.1-.45-.2l-.15-.1-.1-.05-.4-.55V.4q.95.7 2.3.75h.45l.55-.05.2.35zm2.4-1.7h.05l.15.2V.7L8.2.95l-.3.2zm-4.55.9.35.4v.05L5 1.7l.9-.2v-.05l-.5-.1zL3.45 1v.05z"/><path fill="#e28900" fill-opacity=".953" d="M5.95 1.1q1.7-.35 2.1-.95l-.15 1-.1.05-.45.25-1.7.4.5-.4z"/><path fill="#ffe7ad" fill-opacity=".953" d="M3.5 1.05h-.05V1zl1.9.3.5.1v.05l-.9.2-1.15-.2v-.05z"/></g></defs></svg>