<svg xmlns="http://www.w3.org/2000/svg" xmlns:ffdec="https://www.free-decompiler.com/flash" xmlns:xlink="http://www.w3.org/1999/xlink" ffdec:objectType="frame" width="8.75" height="7.55"><use ffdec:characterId="1" xlink:href="#a" width="8.75" height="7.55"/><defs><g id="a" fill-rule="evenodd"><path fill="#914f00" d="M8.6.4v4.9l-.45.7-.45.25-.3.2q-1.45.7-4.3 1l-.25.05Q1.1 7.7.3 6.55v-.1L.2 6.4l-.1-.25L.05 6 0 5.4l.3-.75q.15-.2.7-.55.15-.1.65-.25l2.1-.8q.55-.25.75-.9L4.55 2l.05-.45L4.55.4q.7-.8 1.7 0 .4-.6 2.35 0"/><path fill="#333" d="M2.9 6.45q0-.6.15-1.1V5.3l.6-1.05.3.3q.75.6 2.15 1.4zm4.1-.8Q5.7 5 4.75 4.1l-.3-.35Q5.5 3.2 6.05 1.8L6.4.4l2.35.1-.2 4.1v.15q-.65.5-1.1.65-.2.1-.45.25m-4-2.4.25.6-1.6-.15zm1.05.05-.25-.35q.55-.15.75-.8 0 .7-.5 1.15"/><path fill="#0e0e0e" d="M8.55 4.75v.15l-1.2.85H7.3l-.85.35-3.55.6-1.25.05Q.5 6.7.15 6.25l-.1-.1 1.5.35 1.35-.05 3.2-.5.9-.3q.25-.15.45-.25.45-.15 1.1-.65"/><path fill="#fff" fill-opacity=".498" d="m3.05 5.35-1.25.1h-.45l-1-.3q-.2-.2.15-.75v.4q.2.3 1.3.45z"/><path d="m3 3 .8-.3.75 1.1Q5.5 4.85 7 5.65l-.9.3Q4 5.2 3.35 4.25 2.65 3.2 3 3"/><path fill="#ccc" d="m4.25 4.15.5-.05q.35 0 .6.25l.25.45-.15.5-.55.15-.55-.3-.25-.5q-.05-.3.15-.5m1.15.6-.15-.3L5 4.3h-.1l-.35.15-.2.35.15.3.35.1h.1l.25-.1z"/><path fill-opacity=".298" d="m7.1 2.85.05-.3.3-2.4 1.3.3-.2 4.95-.5.7-.7.4-.85.35-1.35.3-1.85.2 2.6-.8-1.75-1q-1.4-.8-1.2-2.3Q3.2 4.6 4.7 5.4q.7.4 1.5.6l.55-1.75Q6.05 4.3 5.7 4l1.15-.1.1-.35-1.1-.15L5.5 3v-.15l1.45.6L7 3.2l-.3-.35q-.15-.25.4 0"/></g></defs></svg>