<?xml version="1.0" encoding="UTF-8" standalone="no"?>
<svg xmlns:ffdec="https://www.free-decompiler.com/flash" xmlns:xlink="http://www.w3.org/1999/xlink" ffdec:objectType="frame" height="13.5px" width="9.95px" xmlns="http://www.w3.org/2000/svg">
  <g transform="matrix(1.0, 0.0, 0.0, 1.0, 1.6, 4.6)">
    <use ffdec:characterId="2" height="14.9" id="Color" transform="matrix(0.999, -0.0382, 0.0437, 0.8738, -1.5807, -4.2395)" width="9.3" xlink:href="#sprite0"/>
    <use ffdec:characterId="3" height="13.35" transform="matrix(1.0, 0.0, 0.0, 1.0, -1.05, -4.45)" width="9.35" xlink:href="#shape1"/>
  </g>
  <defs>
    <g id="sprite0" transform="matrix(1.0, 0.0, 0.0, 1.0, 1.35, 7.6)">
      <use ffdec:characterId="1" height="14.9" transform="matrix(1.0, 0.0, 0.0, 1.0, -1.35, -7.6)" width="9.3" xlink:href="#shape0"/>
    </g>
    <g id="shape0" transform="matrix(1.0, 0.0, 0.0, 1.0, 1.35, 7.6)">
      <path d="M7.9 -7.45 Q8.1 -5.55 7.7 4.7 L7.65 5.65 Q6.85 6.25 5.4 6.7 L-0.5 7.15 -0.95 6.4 -1.35 4.8 Q-1.4 3.15 0.05 2.75 1.85 2.3 2.45 0.5 3.15 -1.75 2.65 -7.6 L7.9 -7.45" fill="#cccccc" fill-rule="evenodd" stroke="none"/>
    </g>
    <g id="shape1" transform="matrix(1.0, 0.0, 0.0, 1.0, 1.05, 4.45)">
      <path d="M2.5 -3.75 L2.55 -3.75 4.4 -3.4 5.0 -3.35 5.4 -3.3 6.6 -3.35 7.2 -3.4 7.8 -3.5 7.8 -3.0 7.2 -2.9 6.6 -2.85 5.4 -2.8 5.0 -2.85 4.4 -2.9 2.55 -3.25 2.5 -3.75 M2.7 -2.15 L2.75 -2.15 4.4 -1.85 5.0 -1.85 5.4 -1.85 6.6 -2.0 7.2 -2.15 7.85 -2.3 7.9 -1.55 7.2 -1.35 6.6 -1.25 5.4 -1.1 5.0 -1.05 4.4 -1.1 2.75 -1.35 2.7 -2.15 M2.85 0.0 L2.8 -0.45 2.8 -0.55 2.85 -0.55 4.4 -0.15 5.0 -0.1 5.4 -0.05 6.6 -0.1 7.2 -0.25 7.9 -0.5 7.9 -0.4 7.95 0.0 7.2 0.3 6.6 0.4 5.4 0.5 5.0 0.45 4.4 0.4 2.85 0.0 M7.95 0.65 L7.95 1.15 7.2 1.65 6.6 1.9 5.4 2.2 5.0 2.2 4.4 2.25 2.7 2.05 2.8 1.55 4.4 1.75 5.0 1.7 5.4 1.7 6.6 1.4 7.2 1.15 7.95 0.65" fill="#999999" fill-rule="evenodd" stroke="none"/>
      <path d="M7.8 -3.5 L7.2 -3.4 6.6 -3.35 5.4 -3.3 5.0 -3.35 4.4 -3.4 2.55 -3.75 2.5 -3.75 2.4 -4.4 4.4 -3.95 5.0 -3.9 5.4 -3.95 6.6 -4.1 7.2 -4.3 7.65 -4.45 7.8 -3.5 M2.55 -3.25 L4.4 -2.9 5.0 -2.85 5.4 -2.8 6.6 -2.85 7.2 -2.9 7.8 -3.0 7.85 -2.3 7.2 -2.15 6.6 -2.0 5.4 -1.85 5.0 -1.85 4.4 -1.85 2.75 -2.15 2.7 -2.15 2.55 -3.25 M2.8 -0.55 L2.75 -1.35 4.4 -1.1 5.0 -1.05 5.4 -1.1 6.6 -1.25 7.2 -1.35 7.9 -1.55 7.9 -0.5 7.2 -0.25 6.6 -0.1 5.4 -0.05 5.0 -0.1 4.4 -0.15 2.85 -0.55 2.8 -0.55 M7.95 0.0 L7.95 0.65 7.2 1.15 6.6 1.4 5.4 1.7 5.0 1.7 4.4 1.75 2.8 1.55 2.85 0.0 4.4 0.4 5.0 0.45 5.4 0.5 6.6 0.4 7.2 0.3 7.95 0.0 M7.95 1.15 L8.0 3.7 2.05 3.7 2.55 2.7 2.7 2.05 4.4 2.25 5.0 2.2 5.4 2.2 6.6 1.9 7.2 1.65 7.95 1.15" fill="#333333" fill-rule="evenodd" stroke="none"/>
      <path d="M8.3 4.25 L1.7 3.9 2.0 3.2 8.1 3.35 8.3 4.25 M0.5 4.65 L1.25 4.2 1.45 4.0 1.55 4.0 Q3.1 4.0 4.2 4.85 5.35 5.75 5.35 7.0 L5.4 7.6 4.3 7.9 4.3 7.6 Q4.3 6.35 3.35 5.45 2.45 4.6 1.15 4.6 L0.5 4.65" fill="#d05a11" fill-rule="evenodd" stroke="none"/>
      <path d="M4.3 7.9 L3.95 8.0 Q3.65 6.4 2.8 5.85 L1.4 5.8 Q0.95 6.05 0.95 6.95 L1.15 8.1 0.35 8.0 Q0.1 6.9 0.3 6.3 0.15 5.35 -0.45 5.6 -1.0 5.8 -1.05 6.3 -1.1 5.6 -0.8 5.3 -0.5 4.9 0.4 4.7 L0.5 4.65 1.15 4.6 Q2.45 4.6 3.35 5.45 4.3 6.35 4.3 7.6 L4.3 7.9" fill="#9f3400" fill-rule="evenodd" stroke="none"/>
      <path d="M0.5 4.65 L1.15 4.6 Q2.45 4.6 3.35 5.45 4.3 6.35 4.3 7.6 L4.3 7.9" fill="none" stroke="#333333" stroke-linecap="round" stroke-linejoin="round" stroke-width="0.1"/>
      <path d="M8.15 6.95 Q7.35 7.7 5.85 8.25 2.9 9.35 -0.5 8.65 -0.9 8.55 -0.85 7.7 4.6 8.4 8.2 6.05 L8.15 6.95" fill="#000000" fill-rule="evenodd" stroke="none"/>
      <path d="M7.4 -4.4 Q8.1 1.3 7.4 6.95 L4.7 8.1 Q6.8 3.6 5.2 -3.95 6.6 -4.0 7.4 -4.4 M0.1 5.5 Q0.5 6.2 0.4 7.85 L-0.05 7.85 -0.2 6.65 Q-0.25 5.65 0.1 5.5 M2.55 5.65 Q3.4 5.75 4.05 7.7 L2.35 7.85 Q3.2 7.65 2.95 6.6 L2.55 5.65" fill="#000000" fill-opacity="0.29803923" fill-rule="evenodd" stroke="none"/>
    </g>
  </defs>
</svg>
