<svg xmlns="http://www.w3.org/2000/svg" xmlns:ffdec="https://www.free-decompiler.com/flash" xmlns:xlink="http://www.w3.org/1999/xlink" ffdec:objectType="frame" width="10.6" height="19.7"><use ffdec:characterId="1" xlink:href="#a" width="10.6" height="19.7"/><defs><radialGradient id="b" cx="0" cy="0" r="819.2" gradientTransform="translate(4.6 -1.2)scale(.0121)" gradientUnits="userSpaceOnUse" spreadMethod="pad"><stop offset=".204" stop-color="#d5d9d9" stop-opacity=".498"/><stop offset="1" stop-color="#7ab4c2" stop-opacity=".678"/></radialGradient><radialGradient id="c" cx="0" cy="0" r="819.2" gradientTransform="translate(2.85 -1.2)scale(.0116)" gradientUnits="userSpaceOnUse" spreadMethod="pad"><stop offset="0" stop-color="#72f3ff"/><stop offset="0" stop-color="#7decf7"/><stop offset=".486" stop-color="#469db1"/><stop offset="1" stop-color="#5fa3b4"/></radialGradient><radialGradient id="d" cx="0" cy="0" r="819.2" gradientTransform="translate(2.85 -1.2)scale(.0116)" gradientUnits="userSpaceOnUse" spreadMethod="pad"><stop offset="0" stop-color="#73b0b6"/><stop offset=".471" stop-color="#467783"/><stop offset="1" stop-color="#528b9a"/></radialGradient><radialGradient id="e" cx="0" cy="0" r="819.2" gradientTransform="translate(2.4 -1.45)scale(.0104)" gradientUnits="userSpaceOnUse" spreadMethod="pad"><stop offset="0" stop-color="#72f3ff" stop-opacity=".361"/><stop offset=".502" stop-color="#469db1" stop-opacity=".612"/><stop offset="1" stop-color="#5fa3b4" stop-opacity=".678"/></radialGradient><radialGradient id="f" cx="0" cy="0" r="819.2" gradientTransform="translate(2.75 -1.4)scale(.011)" gradientUnits="userSpaceOnUse" spreadMethod="pad"><stop offset="0" stop-color="#72f3ff" stop-opacity=".361"/><stop offset=".502" stop-color="#469db1" stop-opacity=".612"/><stop offset="1" stop-color="#5fa3b4" stop-opacity=".678"/></radialGradient><radialGradient id="g" cx="0" cy="0" r="819.2" gradientTransform="translate(2.85 -1.2)scale(.0116)" gradientUnits="userSpaceOnUse" spreadMethod="pad"><stop offset="0" stop-color="#72f3ff" stop-opacity=".361"/><stop offset=".502" stop-color="#469db1" stop-opacity=".612"/><stop offset="1" stop-color="#5fa3b4" stop-opacity=".678"/></radialGradient><radialGradient id="h" cx="0" cy="0" r="819.2" gradientTransform="translate(3.8 -1.3)scale(.0118)" gradientUnits="userSpaceOnUse" spreadMethod="pad"><stop offset="0" stop-color="#73b0b6"/><stop offset=".565" stop-color="#61a3b4"/><stop offset="1" stop-color="#70c5db"/></radialGradient><radialGradient id="i" cx="0" cy="0" r="819.2" gradientTransform="translate(2.85 -1.2)scale(.0116)" gradientUnits="userSpaceOnUse" spreadMethod="pad"><stop offset="0" stop-color="#73b0b6"/><stop offset=".565" stop-color="#61a3b4"/><stop offset="1" stop-color="#70c5db"/></radialGradient><radialGradient id="j" cx="0" cy="0" r="819.2" gradientTransform="matrix(0 0 0 0 0 0)" gradientUnits="userSpaceOnUse" spreadMethod="pad"><stop offset="0" stop-color="#797979"/><stop offset="1" stop-color="#9a4c00"/></radialGradient><radialGradient id="k" cx="0" cy="0" r="819.2" gradientTransform="translate(3.5 7.75)scale(.0061)" gradientUnits="userSpaceOnUse" spreadMethod="pad"><stop offset="0" stop-color="#bdbdbd"/><stop offset=".365" stop-color="#fff"/><stop offset=".631" stop-color="#fff"/><stop offset="1" stop-color="#c6c6c6"/></radialGradient><radialGradient id="l" cx="0" cy="0" r="819.2" gradientTransform="translate(3.5 7.75)scale(.0061)" gradientUnits="userSpaceOnUse" spreadMethod="pad"><stop offset="0" stop-color="#bdbdbd"/><stop offset="1" stop-color="#c6c6c6"/></radialGradient><radialGradient id="m" cx="0" cy="0" r="819.2" gradientTransform="translate(3.55 6.3)scale(.0066)" gradientUnits="userSpaceOnUse" spreadMethod="pad"><stop offset="0" stop-color="#67a6b6"/><stop offset=".565" stop-color="#004d87"/></radialGradient><radialGradient id="n" cx="0" cy="0" r="819.2" gradientTransform="translate(3.55 6.3)scale(.0066)" gradientUnits="userSpaceOnUse" spreadMethod="pad"><stop offset=".318" stop-color="#004d87"/><stop offset=".894" stop-color="#086a87"/></radialGradient><radialGradient id="o" cx="0" cy="0" r="819.2" gradientTransform="translate(3.55 6.3)scale(.0066)" gradientUnits="userSpaceOnUse" spreadMethod="pad"><stop offset=".318" stop-color="#00345b"/><stop offset="1" stop-color="#005169"/></radialGradient><radialGradient id="p" cx="0" cy="0" r="819.2" gradientTransform="translate(4.5 5.15)scale(.003)" gradientUnits="userSpaceOnUse" spreadMethod="pad"><stop offset="0" stop-color="#1c1c1c"/><stop offset=".392" stop-color="#313131"/><stop offset=".553" stop-color="#383838"/></radialGradient><radialGradient id="q" cx="0" cy="0" r="819.2" gradientTransform="rotate(-9.866 30.324 -40.28)scale(.0047)" gradientUnits="userSpaceOnUse" spreadMethod="pad"><stop offset="0" stop-color="#1c1c1c"/><stop offset=".392" stop-color="#313131"/><stop offset=".553" stop-color="#383838"/></radialGradient><radialGradient id="u" cx="0" cy="0" r="819.2" gradientTransform="rotate(-9.866 22.013 -38.662)scale(.0047)" gradientUnits="userSpaceOnUse" spreadMethod="pad"><stop offset="0" stop-color="#1c1c1c"/><stop offset=".392" stop-color="#313131"/><stop offset=".553" stop-color="#383838"/></radialGradient><radialGradient id="A" cx="0" cy="0" r="819.2" gradientTransform="matrix(0 0 0 0 0 0)" gradientUnits="userSpaceOnUse" spreadMethod="pad"><stop offset="0" stop-color="#63c3e2" stop-opacity=".706"/><stop offset="1" stop-color="#92d6fc" stop-opacity=".478"/></radialGradient><radialGradient id="B" cx="0" cy="0" r="819.2" gradientTransform="matrix(0 0 0 0 0 0)" gradientUnits="userSpaceOnUse" spreadMethod="pad"><stop offset="0" stop-color="#63c3e2" stop-opacity=".706"/><stop offset="1" stop-color="#92d6fc" stop-opacity=".478"/></radialGradient><radialGradient id="C" cx="0" cy="0" r="819.2" gradientTransform="matrix(0 0 0 0 0 0)" gradientUnits="userSpaceOnUse" spreadMethod="pad"><stop offset="0" stop-color="#63c3e2" stop-opacity=".706"/><stop offset="1" stop-color="#92d6fc" stop-opacity=".478"/></radialGradient><radialGradient id="D" cx="0" cy="0" r="819.2" gradientTransform="translate(5.05 -1.05)scale(.0062)" gradientUnits="userSpaceOnUse" spreadMethod="pad"><stop offset=".086" stop-color="#9ff7ff" stop-opacity=".478"/><stop offset="1" stop-color="#7ab4c2" stop-opacity=".871"/></radialGradient><radialGradient id="E" cx="0" cy="0" r="819.2" gradientTransform="translate(5.05 -1.05)scale(.0062)" gradientUnits="userSpaceOnUse" spreadMethod="pad"><stop offset="0" stop-color="#4f8ea3" stop-opacity=".867"/><stop offset="1" stop-color="#619fc2" stop-opacity=".478"/></radialGradient><linearGradient id="r" x1="-819.2" x2="819.2" gradientTransform="matrix(.001 0 0 .0005 6.75 1.95)" gradientUnits="userSpaceOnUse" spreadMethod="pad"><stop offset="0"/><stop offset="1"/></linearGradient><linearGradient id="s" x1="-819.2" x2="819.2" gradientTransform="matrix(.0009 0 0 .0012 7 -.55)" gradientUnits="userSpaceOnUse" spreadMethod="pad"><stop offset="0"/><stop offset="1"/></linearGradient><linearGradient id="t" x1="-819.2" x2="819.2" gradientTransform="matrix(.0006 0 0 .0004 5.55 1.75)" gradientUnits="userSpaceOnUse" spreadMethod="pad"><stop offset="0"/><stop offset="1"/></linearGradient><linearGradient id="v" x1="-819.2" x2="819.2" gradientTransform="matrix(.0013 -.0004 .0002 .0006 7.65 .9)" gradientUnits="userSpaceOnUse" spreadMethod="pad"><stop offset="0"/><stop offset="1"/></linearGradient><linearGradient id="w" x1="-819.2" x2="819.2" gradientTransform="matrix(.0019 -.0005 .0005 .0016 8.05 2.2)" gradientUnits="userSpaceOnUse" spreadMethod="pad"><stop offset="0"/><stop offset="1"/></linearGradient><linearGradient id="x" x1="-819.2" x2="819.2" gradientTransform="matrix(.0016 -.0005 .0002 .0007 5.15 2.05)" gradientUnits="userSpaceOnUse" spreadMethod="pad"><stop offset="0"/><stop offset="1"/></linearGradient><linearGradient id="y" x1="-819.2" x2="819.2" gradientTransform="matrix(.0011 -.0003 .0002 .0008 5.65 2.4)" gradientUnits="userSpaceOnUse" spreadMethod="pad"><stop offset="0"/><stop offset="1"/></linearGradient><linearGradient id="z" x1="-819.2" x2="819.2" gradientTransform="matrix(.0015 -.0004 .0004 .0015 5.7 3.15)" gradientUnits="userSpaceOnUse" spreadMethod="pad"><stop offset="0"/><stop offset="1"/></linearGradient><g id="a" fill-rule="evenodd"><path fill="url(#b)" d="m5.1-9.75.85-.25 1.45-.6.05.15h.05L7.45-9v1.6l.2 5.65.1 2.05-.05 3.25-.05 2.4-.1.3q-.8.6-2.05.85l-1.35.6-1.7.5Q1.6 7.75 1.2 6.45l2.15-.35q.25.65 1.95-.6l.8-.45q.6-.45.65-2.35L6.65.3 6.5-1.55 6.05-5.2l-.1-.65-.3-1.7z" transform="translate(.9 10.6)"/><path fill="#fff" fill-opacity=".329" d="m6 .85.55 2.2.3 1.7.1.65.45 3.65.15 1.85.1 2.4Q7.6 15.2 7 15.65l-.8.45q-1.7 1.25-1.95.6l-2.15.35q.4 1.3 1.25 1.75l-.2.05-.35.1q-.7 0-1.1-.6-.35-.5-.35-.95 0-.8.55-1.05l1.65-.7.15-.1.8-.6.1-.15.1.1.15-.4.05-.05.45-1.25v-.05l-.05-.25-.55-2-.4-1.25-.85-2.2L2.35 4.2 1.3 1.05l1.2.2z"/><path fill="url(#c)" d="m6.05 4.95-.05.1-.6.3z" transform="translate(.9 10.6)"/><path fill="url(#d)" d="M-.4 7.65V7.6l.05.1z" transform="translate(.9 10.6)"/><path fill="url(#e)" d="M.55 6.45v-.2l.25-.3q.25-.25 2-.7 1.7-.5 1.65-1.9l-.15-1.7-.2-1.1L4.05.3 4-.1l-.8-3.15-.5-1.9-.7-2.1-.7-2.05v-.05h.25l.05.1 1.95 6.3.8 3.25.05.25.4 2.8q0 1.7-1.25 2l-2.7 1z" transform="translate(.9 10.6)"/><path fill="url(#f)" d="m.85 6.35 1.1-.4 2-.65q1.2-.55 1.2-2.6L4.95.55 4.9.3l-.3-1.7-.9-4.05L2.55-9.4 3-9.45l.5 1.8.65 2.5L5-1.2 5.25.3v.25L5.4 2.8q0 1.7-.55 2.2-.65.55-3.5 1.5l-.45.15-.35.1v-.3z" transform="translate(.9 10.6)"/><path fill="url(#g)" d="M5.3 5.4h.05q.45-.6.45-1.6L5.75.65V.3l-.5-5.05L4.3-9.6l.2-.05.5 2.1.5 2.6.25 3.15L6 .3v.2l.05 3.3v1.15l-.65.4z" transform="translate(.9 10.6)"/><path fill="url(#h)" d="M6.1-8.15 6-9.4l-.15-.5.3-.1.35 2.5.45 4.55.2 3.25V2L7.1 4.75 6.8 5.9q-.3.55-1.8.95l-2.9.65-1.1.2-.25-.2 1.95-.45 2.7-.55q1.25-.25 1.4-1.8l.15-3.35V.3L6.55-4z" transform="translate(.9 10.6)"/><path fill="url(#i)" d="M6 5.05v.05q-.25.65-1.25 1.1l-.2.1-.2.05L.7 7.45l-.2-.2V7.2l1.4-.45h.05L3.4 6.3l.05-.05.35-.1.35-.1.5-.15.65-.5.1-.05z" transform="translate(.9 10.6)"/><path fill="url(#j)" d="m5.35 7.6.25.1-.2.35.1.2-.3.4q-.5-.4-.7-.35 0-.25.3-.5z" transform="translate(.9 10.6)"/><path fill="url(#k)" d="m1.95 9.1-1.7-.3-1.1-.5.05-.6v-.05l.6.3q1.05.55 2.2.7zM7.5 6.5l.3-.1q-.55 1.2-.45 1.75l-.45.1z" transform="translate(.9 10.6)"/><path fill="url(#l)" d="M1.95 9.1 2 8.65h.3q.95-.05 1.8-.5l.45-.35q.9-.75 2.65-1.2l.05-.05.25-.05-.6 1.75-.1.05-1.55.3.15-.85-1.2.9h-.05L2.75 9z" transform="translate(.9 10.6)"/><path fill="url(#m)" d="m3.45 6.1.85-.05q.75-.1 1.9-.9L7.65 3.9l.2.1q.25 1 .1 2l-3 .95-2.3.6Q1.7 7.5-.7 6.2q.25-.95 1.15-.85.9.05 2.1-.6.6-.4.95-.55-.5.35-.85.65-.4.3-.3.6l.05.15q.35.6 1.05.5" transform="translate(.9 10.6)"/><path fill="url(#n)" d="M3.45 6.1q-.7.1-1.05-.5l-.05-.15q-.1-.3.3-.6.35-.3.85-.65l.35-.05-.75.7q-.6.35-.4.8.15.4.5.45z" transform="translate(.9 10.6)"/><path fill="url(#o)" d="M-.7 6.2q2.4 1.3 3.35 1.35l2.3-.6 3-.95-.15.5v-.1q-2.2.55-3.25 1.4-1 .8-2.25.85Q1 8.6-.2 7.95l-.6-.3-.05-.05z" transform="translate(.9 10.6)"/><path fill="url(#p)" d="M6.2 5.2q-.8-.35-1.3-.35l-.35.05v.05L4.75 6l-.25.1-.25-1.15q-.8.1-1.6.65l-.1-.1q.05-.3.6-.5l.7-.3-.15-.15-.3-.1.25-.2.6.2.15.2.5-.05q1.05 0 1.6.45z" transform="translate(.9 10.6)"/><path fill="url(#q)" d="M6.4-.6h-.25q-1.35.2-2.1 0-.8-.2-.8-.35l-.2-.5 1.45.25 1.75-.05h.15zm-.1 1-.35.15-.15.1L4.55 1l.25.15.8.3h.05l-.6.5-.5-.25-.5-.4L3.8.65 3.65.3l.9.05L5.9 0 6-.05l.1-.05.25-.1z" transform="translate(.9 10.6)"/><path fill="url(#r)" d="m6.05 1.55 1.15.1.3.05v.25l.1.4-1.65-.25.05-.35z" transform="translate(.9 10.6)"/><path fill="url(#s)" d="m6.4-1.25 1.15-.25.05 1.05-1.05.7L6.3.4l.05-.6.75-.55-.7.15z" transform="translate(.9 10.6)"/><path fill="url(#t)" d="m5.65 1.45.1.05.3.05-.05.2-.05.35h-.3l-.25-.05-.35-.1z" transform="translate(.9 10.6)"/><path fill="url(#u)" d="M3.8 2.2v-.7l.3-.2.55-.2h.25l.6-.1h.65l.3.05Q6.75.35 7.5.1l.75-.15-.1-.1.1.1h.05l.35.4H8.3l-.95.1-.8.65.2-.05v.05l1.65.1.35.1-.05-.05.2.05.5.1.3.5-.05.05-.65-.3-1-.3-.9-.1H7l-.35.05.85.35-.15-.05-.55-.05.05.05-.2-.1.25.65.3.3.15.25-.3-.35-.35-.45.1.85-.05-.15-.05-.55-.25-.45v.15l-.05-.3-.2.15-.25.2-.55.55-.35.4-.2.3.05.05-.1.05v.1h-.05v.05l-.25.4h-.05v-.2l-.15-.35.15-.2.1-.1.25-.25.05-.1.15-.15.6-.6.4-.35h.05q.1-.1.15-.1l.05-.05.15-.05h-.2l-.25.05h-.1l-.2.05h-.2l-.9.3q-.55.3-.75.6m4.15 1.45.25 1q.05.7-.25 1.4L7.85 6H7.3l.35-.7.1-1.2-.15-.4.05-.05.1-.1zm-.7.05-.2 1.1-.95 1.15-.6-.5.8-.55.35-.5.2-.6h.05l.1-.1h.25m1.45-.8-.1.05h-.35l-.75-.5-.55-.65.8.7q.65.5.95.4m-3 1.05.1-.05.4-.55.3-.8.05-.1-.05.5L5.95 4z" transform="translate(.9 10.6)"/><path fill="url(#v)" d="M8.65.35h.05l.2.95-.2-.05.05.05-.35-.1.05-.05V1L8.3.35l-1.15.3-.4.4-.2.05.8-.65.95-.1z" transform="translate(.9 10.6)"/><path fill="url(#w)" d="m9.65 1.95-.2.55-.9.85q-.4.1-.95-.45V3l.05.05.3.6-.2-.1-.1.1-.05.05-.5-1.1-.1-.2.2 1.05.05.25H7l-.1.1-.1-.95v-.1l-.1-.85.35.45.3.35-.15-.25-.3-.3-.25-.65.2.1.1.2.55.65.75.5h.35l.1-.05.3-.4.15-.6q0-.15-.35-.2l-.4-.15h-.1l-.8.1-.85-.35.35-.05-.15.05.25.05.8.05-.8-.15.9.1 1 .3z" transform="translate(.9 10.6)"/><path fill="url(#x)" d="m4.55 2.85-.45-.3-.25-.3-.05-.05q.2-.3.75-.6l.9-.3h.2l.2-.05h.1l.25-.05h.2l-.15.05.05-.05-.1.05-.8.15-1.1.45-.05.1.55.65z" transform="translate(.9 10.6)"/><path fill="url(#y)" d="m6.45 1.75-.15.3-.45.6-.25.25-.4.25-.3-.05-.05-.05.2-.3.05.05h.1l.55-.5.55-.7h-.1l.2-.15z" transform="translate(.9 10.6)"/><path fill="url(#z)" d="M6.75 2.6v.2l-.05.25q-.2 1.2-.6 1.25l-1.2-.35-.3-.2h-.05L4.5 3.7l.25-.4.5.35.4.25.05.05.25.05.55-1.05.05-.5-.05-.75-.05.05V1.6l.25.45z" transform="translate(.9 10.6)"/><path fill="url(#A)" d="M6.65-2.55h.05l-.05.05h.1l.35.75-.35.3-.4-.1V-2.8zM6.9-1.3h-.05z" transform="translate(.9 10.6)"/><path fill="url(#B)" d="M4.2-1.85q0-.3.3-.25.15.4.6.5l.4.4v.05l-.2.1-.65.2h-.2z" transform="translate(.9 10.6)"/><path fill="url(#C)" d="m3.95-2 .15.55-.05.55L3.9-1l-.2-.45z" transform="translate(.9 10.6)"/><path fill="url(#D)" d="m7.95-2.7 1.2-.25-.7.85-.3.6-.3.6-.25.55-.5.45Q5.65.95 4.5.8 3.7.75 3.2.4l-.8-.65-1.05-.5-.45-.1.15-.2.1-.15.4-.25L3.95.3l-1.3-1.65.3-.5.1-.3q0 .65.45 1.2Q4.25 0 4.9.6l-1-1.75.65.2q.65.1.85-.25L5.5.55l.45-2.4.45.1.6-.1h.05L6.5.1v.1Q7.55-1 7.95-2.7" transform="translate(.9 10.6)"/><path fill="url(#E)" d="m1.55-1.45.2-.1h-.1L2-1.6l.55.25h.1L3.95.3zm1.5-.7q.1-.25.45-.2l.45.45-.2.3.05.35.1.1L4.9.6Q4.25 0 3.5-.95q-.45-.55-.45-1.2m2.35.95v-.1l-.05-.15-.75-.2-.35-.4q.05-.45.85-.35.5.05.6.35l.25.2L5.5.55zM7-1.85v-.05l-.25-.45q-.25-.15-.15-.5t.7-.2l.65.35Q7.55-1 6.5.2V.1l.55-1.95z" transform="translate(.9 10.6)"/></g></defs></svg>