<svg xmlns="http://www.w3.org/2000/svg" xmlns:ffdec="https://www.free-decompiler.com/flash" xmlns:xlink="http://www.w3.org/1999/xlink" ffdec:objectType="frame" width="8.35" height="8.7"><use ffdec:characterId="1" xlink:href="#a" width="8.35" height="8.7"/><defs><radialGradient id="c" cx="0" cy="0" r="819.2" gradientTransform="translate(4.8 5.6)scale(.0055)" gradientUnits="userSpaceOnUse" spreadMethod="pad"><stop offset="0" stop-color="#fff9bf"/><stop offset="1" stop-color="#e7b04c"/></radialGradient><radialGradient id="d" cx="0" cy="0" r="819.2" gradientTransform="translate(5 5.55)scale(.0029)" gradientUnits="userSpaceOnUse" spreadMethod="pad"><stop offset="0" stop-color="#bfb766"/><stop offset="1" stop-color="#b17d1d"/></radialGradient><radialGradient id="e" cx="0" cy="0" r="819.2" gradientTransform="translate(4.8 5.6)scale(.0055)" gradientUnits="userSpaceOnUse" spreadMethod="pad"><stop offset="0" stop-color="#fffbd9"/><stop offset=".992" stop-color="#ffd791"/></radialGradient><radialGradient id="f" cx="0" cy="0" r="819.2" gradientTransform="translate(2.15 6.2)scale(.0009)" gradientUnits="userSpaceOnUse" spreadMethod="pad"><stop offset="0" stop-color="#bfb766"/><stop offset="1" stop-color="#b17d1d"/></radialGradient><radialGradient id="g" cx="0" cy="0" r="819.2" gradientTransform="translate(3.5 4.75)scale(.0018)" gradientUnits="userSpaceOnUse" spreadMethod="pad"><stop offset="0" stop-color="#bfb766"/><stop offset="1" stop-color="#b17d1d"/></radialGradient><radialGradient id="h" cx="0" cy="0" r="819.2" gradientTransform="matrix(.39 0 0 .39 3.2 2.3)" gradientUnits="userSpaceOnUse" spreadMethod="pad"><stop offset="0" stop-color="#bfb766"/><stop offset="1" stop-color="#b17d1d"/></radialGradient><linearGradient id="b" x1="-819.2" x2="819.2" gradientTransform="matrix(.001 -.0056 .0024 .0004 4.4 4.35)" gradientUnits="userSpaceOnUse" spreadMethod="pad"><stop offset="0" stop-color="#f5d7d1"/><stop offset="1" stop-color="#ff98a9"/></linearGradient><g id="a" fill-rule="evenodd"><path fill="url(#b)" d="m3.75 3.15-.5-1.55L2.3.15h.4l.2.2v-.5h.3l.25.2q0-.5.2-.3l.6.6q0-.35.25-.35.45.15.4.55L5.15.3l.35.35.3.85q0-.55.3-.85l.3.2Q6.5.3 6.7.3q.15 0 .55.4.05-.4.45-.55l.05.15v.35Q7.9.3 8.25.3l.35.55.25-.25q.1-.15.3-.15.35-.1.35.25L8.4 3.15q-.45.1-.85.5l-1.3-.1q-.05-.8-1.1-.8L4.1 2.9q-.15.05-.35.25m2.75.8.75.1-.3.55q-.55.95-.55 1.55-.5.05-1.65.55l-1.15.4.2-.9 1-.1q.9-.15.9-.65l-.35-.35q.4-.05.75-.45zm-4 1.85v.1l.75.05L2.9 7.2l-.85-.25-.15-.15zm1.95-2.15q.45 0 .45.45 0 .9-2.1 1.65L3 5.4l.1-.35.45-.6.5-.5z" transform="translate(-1.15 .3)"/><path fill="url(#c)" d="M3.75 3.15q.2-.2.35-.25l1.05-.15q1.05 0 1.1.8l1.3.1q.4-.4.85-.5l.15 1q0 .95-.8 1.75-.3.25-.3.8l-.15.55-1.05.1H6.2l.05-.4-.35.15-.1.05q-.55.3-1.35.8-.7.45-1.6.45-1.6 0-1.7-.8v-.05q0-.6.45-.95l.8-1.25-.1-.25v-.75q.15-.45.6-.7h.3v.2zM3.6 7.1l1.15-.4q1.15-.5 1.65-.55 0-.6.55-1.55l.3-.55-.75-.1-.25-.05q-.15.95-1.3 1.2H5l.4.25q0 .6-1.75.6l-.2 1.2zm3.15-1.65.4-.6.55-.55q.4-.3.65-.25V3.9l-.05-.2-.15-.15Q7.55 3.8 7 4.8zM4.6 3q-.55.15-.9.45l-.45.6.35-.2.25-.25.5-.15.45-.15.15.05.1-.15L4.9 3zM1.9 6.8l.15.15.85.25.35-1.25-.75-.05v-.1l-.05-.15-.6 1zm.9-1.05Q4.9 5 4.9 4.1q0-.45-.45-.45-.55 0-1.2.85-.55.8-.65 1.35l.05-.1zM4.15 7.3l-1.25.25-.6-.1-.35-.1-.25.2-.1.35q0 .3.9.3l1.05-.25z" transform="translate(-1.15 .3)"/><path fill="url(#d)" d="m3.6 7.1-.15.05.2-1.2q1.75 0 1.75-.6L5 5.1h-.05q1.15-.25 1.3-1.2l.25.05-.4.7q-.35.4-.75.45l.35.35q0 .5-.9.65l-1 .1z" transform="translate(-1.15 .3)"/><path fill="url(#e)" d="M6.75 5.45 7 4.8q.55-1 1.15-1.25l.15.15.05.2v.15Q8.1 4 7.7 4.3l-.55.55zM4.6 3h.3l.15.2-.1.15-.15-.05-.45.15-.5.15-.25.25-.35.2.45-.6q.35-.3.9-.45m-.45 4.3-.6.65-1.05.25q-.9 0-.9-.3l.1-.35.25-.2.35.1.6.1z" transform="translate(-1.15 .3)"/><path fill="url(#f)" d="m1.9 6.8-.05-.15.6-1 .05.15z" transform="translate(-1.15 .3)"/><path fill="url(#g)" d="m4.45 3.65-.4.3-.5.5-.45.6-.1.35-.2.35h-.15l-.05.1q.1-.55.65-1.35.65-.85 1.2-.85" transform="translate(-1.15 .3)"/><path fill="url(#h)" d="m6.2 7.35-.3-.25.35-.15z" transform="translate(-1.15 .3)"/></g></defs></svg>