<?xml version="1.0" encoding="UTF-8" standalone="no"?>
<svg xmlns:ffdec="https://www.free-decompiler.com/flash" xmlns:xlink="http://www.w3.org/1999/xlink" ffdec:objectType="frame" height="22.45px" width="8.15px" xmlns="http://www.w3.org/2000/svg">
  <g transform="matrix(1.0, 0.0, 0.0, 1.0, -0.4, 13.25)">
    <use ffdec:characterId="1" height="22.45" transform="matrix(1.0, 0.0, 0.0, 1.0, 0.4, -13.25)" width="8.15" xlink:href="#shape0"/>
  </g>
  <defs>
    <g id="shape0" transform="matrix(1.0, 0.0, 0.0, 1.0, -0.4, 13.25)">
      <path d="M6.75 -11.9 L6.85 -11.95 6.95 -11.95 7.0 -11.85 7.6 4.55 7.55 4.65 7.45 4.7 7.4 4.65 7.35 4.55 6.75 -11.85 6.75 -11.9" fill="url(#gradient0)" fill-rule="evenodd" stroke="none"/>
      <path d="M5.75 -11.45 L5.75 -11.5 5.85 -11.55 5.95 -11.55 6.0 -11.45 6.55 -3.8 7.1 4.85 7.05 4.95 6.95 5.0 6.85 4.95 6.85 4.85 6.3 -3.8 5.75 -11.45" fill="url(#gradient1)" fill-rule="evenodd" stroke="none"/>
      <path d="M4.85 -11.35 L4.9 -11.25 5.75 -3.65 6.55 4.45 5.45 6.7 5.4 6.75 5.3 6.7 5.25 6.65 5.25 6.55 6.3 4.4 5.5 -3.6 4.65 -11.2 4.65 -11.3 4.75 -11.35 4.85 -11.35" fill="url(#gradient2)" fill-rule="evenodd" stroke="none"/>
      <path d="M3.9 -11.25 L3.95 -11.15 4.95 -3.8 5.95 4.45 Q5.95 5.25 5.35 6.0 L4.3 7.15 4.2 7.2 4.1 7.15 4.1 7.05 4.1 6.95 5.15 5.85 5.7 4.45 4.7 -3.75 3.7 -11.1 3.7 -11.2 3.8 -11.25 3.9 -11.25" fill="url(#gradient3)" fill-rule="evenodd" stroke="none"/>
      <path d="M2.65 -11.05 L2.7 -10.95 5.3 2.9 Q5.5 4.55 4.85 5.55 L3.3 7.05 3.2 7.1 3.1 7.05 3.1 6.95 3.15 6.85 4.65 5.4 Q5.2 4.45 5.05 2.95 L2.45 -10.9 2.45 -11.0 2.55 -11.05 2.65 -11.05" fill="url(#gradient4)" fill-rule="evenodd" stroke="none"/>
      <path d="M1.15 -11.1 L1.15 -11.2 1.25 -11.25 1.3 -11.25 1.4 -11.15 Q4.75 1.05 4.8 2.85 4.85 4.65 2.7 6.8 L2.6 6.85 2.5 6.8 2.5 6.7 2.5 6.6 Q4.55 4.55 4.55 2.85 4.45 1.05 1.15 -11.1" fill="url(#gradient5)" fill-rule="evenodd" stroke="none"/>
      <path d="M0.65 -11.35 L2.7 -11.0 Q5.15 -10.9 7.35 -12.2 L7.65 -4.3 Q8.0 2.9 7.75 4.35 7.5 5.8 5.3 6.85 3.45 7.75 2.5 7.7 2.4 7.55 2.6 7.0 2.95 5.9 4.4 3.85 4.55 1.9 3.05 -2.75 1.45 -7.5 0.65 -11.35" fill="#000000" fill-opacity="0.4" fill-rule="evenodd" stroke="none"/>
      <path d="M5.25 4.7 Q4.9 4.85 4.65 5.1 L2.9 6.35 3.15 5.75 4.55 4.7 5.05 4.3 7.75 2.45 Q7.8 3.05 7.45 3.45 L5.25 4.7" fill="url(#gradient6)" fill-rule="evenodd" stroke="none"/>
      <path d="M4.15 4.2 L4.3 2.95 5.7 5.75 5.2 6.15 4.15 4.2" fill="url(#gradient7)" fill-rule="evenodd" stroke="none"/>
      <path d="M8.3 5.15 L8.0 5.55 7.15 6.2 6.85 6.4 Q6.05 7.05 5.65 8.4 L4.1 8.95 Q2.2 9.45 0.45 8.9 L0.45 7.9 0.95 7.15 2.4 6.15 4.4 3.8 3.4 5.65 Q2.75 6.6 3.1 6.7 5.75 6.15 7.0 4.1 7.65 3.05 7.75 2.1 8.55 2.8 8.55 4.15 L8.3 5.15" fill="url(#gradient8)" fill-rule="evenodd" stroke="none"/>
      <path d="M7.15 6.2 L8.0 5.55 8.3 5.15 Q8.0 6.4 7.85 7.95 7.55 8.25 7.25 7.95 L7.15 6.2" fill="url(#gradient9)" fill-rule="evenodd" stroke="none"/>
      <path d="M1.35 8.5 L1.05 8.3 Q1.05 8.15 1.35 8.1 L2.05 8.0 2.75 8.1 3.05 8.3 2.75 8.5 2.05 8.55 1.35 8.5" fill="#ffffff" fill-opacity="0.69411767" fill-rule="evenodd" stroke="none"/>
      <path d="M6.4 -11.2 L5.25 -10.8 4.1 -10.6 2.75 -10.55 2.7 -10.55 1.65 -10.65 0.75 -10.9 0.5 -11.8 1.35 -11.6 2.2 -11.5 2.65 -11.5 3.7 -11.5 5.25 -11.75 6.35 -12.15 7.35 -12.65 7.35 -11.7 Q6.85 -11.4 6.4 -11.2" fill="url(#gradient10)" fill-rule="evenodd" stroke="none"/>
      <path d="M7.15 -13.2 L7.35 -13.2 7.35 -12.5 7.35 -12.55 7.3 -12.6 7.2 -12.95 6.95 -12.35 6.9 -12.3 6.8 -12.25 6.75 -12.3 6.7 -12.35 6.55 -12.6 6.5 -12.6 6.15 -11.9 6.05 -11.85 6.0 -11.8 5.9 -11.9 5.5 -12.25 5.1 -11.65 5.0 -11.55 4.9 -11.55 4.85 -11.65 4.45 -12.05 4.05 -11.5 3.95 -11.4 3.85 -11.4 3.8 -11.5 3.4 -11.95 2.8 -11.35 2.75 -11.3 2.65 -11.3 2.6 -11.4 2.15 -11.9 1.6 -11.45 1.55 -11.4 Q1.45 -11.4 1.45 -11.45 L1.4 -11.5 1.15 -12.0 0.9 -12.05 0.95 -12.05 0.6 -11.75 0.55 -11.7 0.5 -11.85 0.5 -12.0 0.8 -12.25 1.3 -12.2 1.55 -11.8 2.15 -12.15 2.75 -11.7 Q3.05 -12.2 3.4 -12.2 L3.9 -11.85 Q4.15 -12.3 4.45 -12.3 4.7 -12.35 4.95 -12.0 5.15 -12.45 5.45 -12.5 5.7 -12.6 5.95 -12.2 L6.4 -12.85 6.7 -12.8 6.8 -12.7 7.15 -13.2" fill="url(#gradient11)" fill-rule="evenodd" stroke="none"/>
      <path d="M7.3 -11.85 L7.35 -11.85 7.35 -11.1 7.25 -11.0 7.05 -11.05 6.95 -11.15 6.8 -10.85 Q6.6 -10.6 6.35 -10.7 L6.35 -10.75 6.15 -10.9 5.95 -10.55 5.5 -10.4 5.45 -10.45 5.1 -10.6 Q4.75 -10.0 4.3 -10.25 L4.0 -10.45 Q3.65 -9.9 3.15 -10.1 L3.15 -10.15 2.8 -10.4 2.45 -10.2 Q2.0 -9.95 1.7 -10.5 L1.4 -10.3 0.9 -10.45 0.8 -10.55 0.7 -11.1 0.8 -11.1 0.9 -11.05 1.1 -10.65 Q1.2 -10.5 1.35 -10.5 L1.6 -10.75 1.7 -10.8 1.75 -10.8 1.8 -10.75 Q2.05 -10.3 2.35 -10.4 L2.65 -10.65 2.7 -10.7 2.8 -10.7 2.85 -10.7 3.25 -10.35 Q3.6 -10.25 3.85 -10.7 L3.9 -10.75 3.95 -10.75 4.05 -10.75 4.45 -10.45 4.4 -10.45 4.95 -10.85 5.0 -10.9 5.05 -10.9 5.15 -10.9 5.55 -10.65 5.8 -10.7 5.95 -11.15 6.0 -11.25 6.05 -11.25 6.15 -11.25 6.45 -10.95 6.6 -11.0 6.75 -11.5 6.75 -11.6 6.85 -11.6 6.95 -11.6 7.0 -11.55 7.15 -11.25 7.25 -11.75 7.3 -11.85" fill="url(#gradient12)" fill-rule="evenodd" stroke="none"/>
    </g>
    <linearGradient gradientTransform="matrix(0.0, 0.0103, -0.0102, 0.0, 7.15, -3.65)" gradientUnits="userSpaceOnUse" id="gradient0" spreadMethod="pad" x1="-819.2" x2="819.2">
      <stop offset="0.0" stop-color="#000000"/>
      <stop offset="0.5333333333333333" stop-color="#666666"/>
      <stop offset="1.0" stop-color="#000000"/>
    </linearGradient>
    <linearGradient gradientTransform="matrix(-2.0E-4, 0.0102, -0.0101, -1.0E-4, 6.4, -3.3)" gradientUnits="userSpaceOnUse" id="gradient1" spreadMethod="pad" x1="-819.2" x2="819.2">
      <stop offset="0.0" stop-color="#000000"/>
      <stop offset="0.5333333333333333" stop-color="#666666"/>
      <stop offset="1.0" stop-color="#000000"/>
    </linearGradient>
    <linearGradient gradientTransform="matrix(0.0, 0.011, -0.0111, 0.0, 5.6, -2.3)" gradientUnits="userSpaceOnUse" id="gradient2" spreadMethod="pad" x1="-819.2" x2="819.2">
      <stop offset="0.0" stop-color="#000000"/>
      <stop offset="0.5333333333333333" stop-color="#666666"/>
      <stop offset="1.0" stop-color="#000000"/>
    </linearGradient>
    <linearGradient gradientTransform="matrix(0.0, 0.0112, -0.0113, 0.0, 4.8, -2.05)" gradientUnits="userSpaceOnUse" id="gradient3" spreadMethod="pad" x1="-819.2" x2="819.2">
      <stop offset="0.0" stop-color="#000000"/>
      <stop offset="0.5333333333333333" stop-color="#666666"/>
      <stop offset="1.0" stop-color="#000000"/>
    </linearGradient>
    <linearGradient gradientTransform="matrix(0.0, 0.0111, -0.0111, 0.0, 3.85, -2.0)" gradientUnits="userSpaceOnUse" id="gradient4" spreadMethod="pad" x1="-819.2" x2="819.2">
      <stop offset="0.0" stop-color="#000000"/>
      <stop offset="0.5333333333333333" stop-color="#666666"/>
      <stop offset="1.0" stop-color="#000000"/>
    </linearGradient>
    <linearGradient gradientTransform="matrix(0.0, 0.0112, -0.0111, 0.0, 3.0, -2.2)" gradientUnits="userSpaceOnUse" id="gradient5" spreadMethod="pad" x1="-819.2" x2="819.2">
      <stop offset="0.0" stop-color="#000000"/>
      <stop offset="0.5333333333333333" stop-color="#666666"/>
      <stop offset="1.0" stop-color="#000000"/>
    </linearGradient>
    <linearGradient gradientTransform="matrix(0.0023, -9.0E-4, 6.0E-4, 0.0016, 5.4, 4.5)" gradientUnits="userSpaceOnUse" id="gradient6" spreadMethod="pad" x1="-819.2" x2="819.2">
      <stop offset="0.0" stop-color="#000000"/>
      <stop offset="0.5333333333333333" stop-color="#4c4c4c"/>
      <stop offset="1.0" stop-color="#000000"/>
    </linearGradient>
    <linearGradient gradientTransform="matrix(4.0E-4, 0.0017, -0.0022, 7.0E-4, 4.95, 4.6)" gradientUnits="userSpaceOnUse" id="gradient7" spreadMethod="pad" x1="-819.2" x2="819.2">
      <stop offset="0.0" stop-color="#000000"/>
      <stop offset="0.5333333333333333" stop-color="#4c4c4c"/>
      <stop offset="1.0" stop-color="#000000"/>
    </linearGradient>
    <linearGradient gradientTransform="matrix(0.005, 0.0, 0.0, 0.0044, 4.45, 5.7)" gradientUnits="userSpaceOnUse" id="gradient8" spreadMethod="pad" x1="-819.2" x2="819.2">
      <stop offset="0.16862745098039217" stop-color="#262626"/>
      <stop offset="1.0" stop-color="#000000"/>
    </linearGradient>
    <linearGradient gradientTransform="matrix(0.0, 0.0018, -0.0017, 0.0, 7.75, 6.6)" gradientUnits="userSpaceOnUse" id="gradient9" spreadMethod="pad" x1="-819.2" x2="819.2">
      <stop offset="0.16862745098039217" stop-color="#262626"/>
      <stop offset="1.0" stop-color="#000000"/>
    </linearGradient>
    <linearGradient gradientTransform="matrix(0.0042, 0.0, 0.0, 0.0019, 3.95, -11.6)" gradientUnits="userSpaceOnUse" id="gradient10" spreadMethod="pad" x1="-819.2" x2="819.2">
      <stop offset="0.0" stop-color="#000000"/>
      <stop offset="0.5333333333333333" stop-color="#666666"/>
      <stop offset="1.0" stop-color="#000000"/>
    </linearGradient>
    <linearGradient gradientTransform="matrix(0.0044, 0.0, 0.0, 0.0012, 3.95, -12.3)" gradientUnits="userSpaceOnUse" id="gradient11" spreadMethod="pad" x1="-819.2" x2="819.2">
      <stop offset="0.0" stop-color="#000000"/>
      <stop offset="0.5333333333333333" stop-color="#666666"/>
      <stop offset="1.0" stop-color="#000000"/>
    </linearGradient>
    <linearGradient gradientTransform="matrix(0.0042, 0.0, 0.0, 0.0011, 4.05, -11.0)" gradientUnits="userSpaceOnUse" id="gradient12" spreadMethod="pad" x1="-819.2" x2="819.2">
      <stop offset="0.0" stop-color="#000000"/>
      <stop offset="0.5333333333333333" stop-color="#666666"/>
      <stop offset="1.0" stop-color="#000000"/>
    </linearGradient>
  </defs>
</svg>
