<?xml version="1.0" encoding="UTF-8" standalone="no"?>
<svg xmlns:ffdec="https://www.free-decompiler.com/flash" xmlns:xlink="http://www.w3.org/1999/xlink" ffdec:objectType="frame" height="19.0px" width="9.05px" xmlns="http://www.w3.org/2000/svg">
  <g transform="matrix(1.0, 0.0, 0.0, 1.0, 0.5, 9.75)">
    <use ffdec:characterId="1" height="18.8" transform="matrix(1.0, 0.0, 0.0, 1.0, 0.1, -9.75)" width="8.25" xlink:href="#shape0"/>
    <use ffdec:characterId="3" height="5.65" id="Color" transform="matrix(1.0, 0.0, 0.0, 1.0, -0.5, 3.6)" width="8.95" xlink:href="#sprite0"/>
    <use ffdec:characterId="4" height="18.65" transform="matrix(1.0, 0.0, 0.0, 1.0, -0.4, -9.5)" width="8.95" xlink:href="#shape2"/>
  </g>
  <defs>
    <g id="shape0" transform="matrix(1.0, 0.0, 0.0, 1.0, -0.1, 9.75)">
      <path d="M7.5 -7.55 L7.1 -6.45 Q6.3 -7.2 5.85 -8.25 L5.35 -8.2 6.85 -5.85 5.45 -2.8 Q4.1 -4.3 3.1 -6.15 L4.15 -8.15 3.85 -8.15 2.9 -6.5 2.05 -8.25 1.45 -8.35 2.65 -6.15 2.1 -5.6 1.2 -8.4 1.45 -8.35 1.05 -9.25 1.7 -9.15 2.05 -8.25 3.5 -8.15 3.85 -8.15 4.2 -9.0 4.55 -9.0 4.15 -8.15 5.35 -8.2 4.9 -9.05 5.55 -9.1 5.85 -8.25 Q6.8 -8.45 7.45 -8.8 L7.5 -7.55 M2.3 -4.95 L2.85 -5.8 5.25 -2.4 4.15 -0.4 3.05 -2.4 2.8 -3.25 2.3 -4.95 M3.5 -0.85 L3.95 -0.1 3.8 0.2 3.5 -0.85 M4.0 0.85 L4.25 0.35 6.15 2.75 3.25 6.65 6.4 3.05 8.35 4.7 8.35 4.8 Q8.3 5.8 7.85 6.65 L7.55 7.25 6.1 7.25 6.1 7.45 6.05 7.4 5.7 7.45 5.6 7.5 5.5 7.6 Q3.95 9.05 2.45 9.05 L1.45 8.95 1.2 8.85 0.2 8.25 Q-0.1 7.35 0.4 7.0 L2.45 6.0 Q4.55 3.75 4.3 2.25 L4.0 0.85 M8.1 3.55 L6.75 2.6 7.85 0.85 8.1 3.55 M7.8 -0.65 Q6.7 -1.5 5.75 -2.5 L7.1 -5.5 7.65 -4.95 7.8 -0.65 M7.6 -6.0 L7.35 -6.15 7.55 -6.7 7.6 -6.0 M6.4 2.35 Q5.35 1.4 4.45 0.05 L5.55 -2.05 7.7 0.2 6.4 2.35" fill="#333333" fill-rule="evenodd" stroke="none"/>
      <path d="M7.45 -8.8 Q6.8 -8.45 5.85 -8.25 L5.55 -9.1 Q6.6 -9.3 7.4 -9.75 L7.45 -8.8 M4.9 -9.05 L5.35 -8.2 4.15 -8.15 4.55 -9.0 4.9 -9.05 M4.2 -9.0 L3.85 -8.15 3.5 -8.15 2.05 -8.25 1.7 -9.15 4.2 -9.0 M1.05 -9.25 L1.45 -8.35 1.2 -8.4 0.8 -9.3 1.05 -9.25" fill="#000000" fill-rule="evenodd" stroke="none"/>
      <path d="M2.1 -5.6 L2.65 -6.15 1.45 -8.35 2.05 -8.25 2.9 -6.5 3.85 -8.15 4.15 -8.15 3.1 -6.15 Q4.1 -4.3 5.45 -2.8 L6.85 -5.85 5.35 -8.2 5.85 -8.25 Q6.3 -7.2 7.1 -6.45 L7.5 -7.55 7.55 -6.7 7.35 -6.15 7.6 -6.0 7.6 -5.65 7.65 -4.95 7.1 -5.5 5.75 -2.5 Q6.7 -1.5 7.8 -0.65 L7.8 0.05 7.8 0.15 7.8 0.3 7.85 0.85 6.75 2.6 8.1 3.55 8.35 4.7 6.4 3.05 3.25 6.65 6.15 2.75 4.25 0.35 4.0 0.85 3.8 0.2 3.95 -0.1 3.5 -0.85 3.05 -2.4 4.15 -0.4 5.25 -2.4 2.85 -5.8 2.3 -4.95 2.1 -5.6 M6.4 2.35 L7.7 0.2 5.55 -2.05 4.45 0.05 Q5.35 1.4 6.4 2.35" fill="#666666" fill-rule="evenodd" stroke="none"/>
    </g>
    <g id="sprite0" transform="matrix(1.0, 0.0, 0.0, 1.0, 0.8, -1.3)">
      <use ffdec:characterId="2" height="5.65" transform="matrix(1.0, 0.0, 0.0, 1.0, -0.8, 1.3)" width="8.95" xlink:href="#shape1"/>
    </g>
    <g id="shape1" transform="matrix(1.0, 0.0, 0.0, 1.0, 0.8, -1.3)">
      <path d="M7.9 1.3 L8.15 2.45 8.05 3.45 7.8 4.15 7.0 4.65 5.65 5.1 5.55 5.1 Q5.35 5.15 5.1 5.35 3.45 6.95 1.8 6.95 L0.45 6.75 Q-0.5 6.45 -0.65 6.1 -1.0 5.1 -0.4 4.7 L1.85 3.65 2.15 3.3 Q3.5 4.5 5.7 3.1 L7.9 1.3" fill="#a30f0f" fill-rule="evenodd" stroke="none"/>
    </g>
    <g id="shape2" transform="matrix(1.0, 0.0, 0.0, 1.0, 0.4, 9.5)">
      <path d="M8.1 6.45 L7.95 6.7 Q7.4 7.6 7.4 8.15 L6.4 8.25 6.0 7.45 5.95 7.4 7.3 6.95 8.1 6.45 M8.05 2.75 L8.15 2.75 8.55 4.5 6.2 6.1 4.05 6.65 Q2.8 6.75 1.95 5.9 L4.25 2.6 8.05 2.75" fill="#db4444" fill-rule="evenodd" stroke="none"/>
      <path d="M4.2 3.2 L4.9 3.35 4.4 4.15 5.45 4.3 5.0 5.2 4.0 5.1 3.35 6.0 Q2.75 6.05 2.5 5.7 L3.15 4.8 2.9 4.5 3.4 3.8 3.6 3.95 4.2 3.2" fill="#ffffff" fill-rule="evenodd" stroke="none"/>
      <path d="M5.5 7.6 Q3.25 9.65 1.2 9.0 0.2 8.7 -0.4 7.9 1.3 8.95 3.55 8.4 4.7 8.1 5.5 7.6" fill="#333333" fill-opacity="0.29803923" fill-rule="evenodd" stroke="none"/>
      <path d="M5.55 -9.05 L7.1 -9.5 7.9 2.9 Q8.5 4.5 8.3 5.4 8.1 6.3 7.55 6.8 L6.8 8.15 6.55 8.4 6.0 7.4 6.65 6.7 6.6 6.25 Q5.8 6.85 4.4 7.0 L2.6 6.8 2.0 6.3 Q1.8 5.95 2.1 6.05 3.4 7.05 5.3 6.5 6.25 6.2 6.95 5.7 L7.3 5.3 Q7.6 3.95 6.95 3.2 L6.55 3.0 5.55 -9.05" fill="#000000" fill-opacity="0.29803923" fill-rule="evenodd" stroke="none"/>
    </g>
  </defs>
</svg>
