<?xml version="1.0" encoding="UTF-8" standalone="no"?>
<svg xmlns:ffdec="https://www.free-decompiler.com/flash" xmlns:xlink="http://www.w3.org/1999/xlink" ffdec:objectType="frame" height="9.05px" width="7.6px" xmlns="http://www.w3.org/2000/svg">
  <g transform="matrix(1.0, 0.0, 0.0, 1.0, -0.85, -0.1)">
    <use ffdec:characterId="1" height="9.05" transform="matrix(1.0, 0.0, 0.0, 1.0, 0.85, 0.1)" width="7.6" xlink:href="#shape0"/>
  </g>
  <defs>
    <g id="shape0" transform="matrix(1.0, 0.0, 0.0, 1.0, -0.85, -0.1)">
      <path d="M8.45 4.55 Q8.4 5.2 7.15 6.35 5.8 7.55 4.6 7.85 2.6 8.25 1.6 7.4 1.0 6.85 0.95 6.15 1.15 5.15 2.0 4.75 L3.2 3.85 3.7 3.1 3.8 1.4 3.8 0.85 5.05 1.0 Q6.25 1.0 7.55 0.4 L7.7 0.4 8.2 0.2 8.3 2.45 8.45 4.55" fill="#45b9a2" fill-rule="evenodd" stroke="none"/>
      <path d="M7.75 0.3 L7.8 0.3 7.8 3.2 Q7.75 4.65 6.85 5.55 L5.3 6.8 4.45 6.75 Q4.35 6.3 3.85 5.75 L2.7 4.9 2.2 4.7 2.45 4.5 2.55 4.4 Q2.6 4.3 3.5 4.7 4.3 5.1 4.9 6.3 L6.1 5.5 Q7.0 4.75 7.25 3.3 7.45 1.85 7.2 0.6 L7.6 0.4 7.75 0.3" fill="#000000" fill-rule="evenodd" stroke="none"/>
      <path d="M5.5 4.7 L5.6 5.0 5.5 5.3 5.15 5.45 4.8 5.3 4.7 5.0 4.8 4.7 Q4.95 4.55 5.15 4.55 5.35 4.55 5.5 4.7 M6.5 4.2 L6.4 4.5 6.05 4.65 Q5.85 4.65 5.75 4.5 L5.6 4.2 5.75 3.85 6.05 3.75 6.4 3.85 6.5 4.2 M6.1 3.05 L6.2 2.75 6.55 2.6 6.85 2.75 7.0 3.05 6.85 3.35 6.55 3.5 6.2 3.35 6.1 3.05 M6.6 1.3 L6.9 1.4 7.05 1.75 6.9 2.05 6.6 2.2 Q6.4 2.2 6.25 2.05 L6.1 1.75 6.25 1.4 6.6 1.3 M2.75 7.9 L4.6 7.8 Q5.8 7.55 7.15 6.35 8.4 5.15 8.45 4.5 8.5 6.55 7.65 7.3 6.2 8.55 4.75 8.95 L2.75 9.0 Q2.1 8.8 1.55 8.4 0.85 7.8 0.85 6.9 L0.95 6.15 Q1.05 6.8 1.6 7.35 L2.75 7.9" fill="#ffffff" fill-rule="evenodd" stroke="none"/>
      <path d="M6.3 3.75 L5.9 3.75 5.75 4.0 5.75 4.2 6.0 4.35 Q6.4 4.35 6.4 3.95 L6.3 3.75 M6.85 2.85 L6.75 2.65 6.35 2.65 6.2 2.9 Q6.2 3.2 6.5 3.2 L6.85 2.85 M6.15 1.65 L6.25 1.8 Q6.35 1.95 6.55 1.95 6.9 1.95 6.9 1.55 6.85 1.3 6.5 1.3 6.15 1.3 6.15 1.65 M7.9 0.3 L7.95 0.2 8.1 0.2 8.2 0.1 8.2 0.4 8.3 0.7 8.45 4.0 Q8.45 5.65 7.6 7.0 L7.0 7.75 6.65 8.1 5.45 8.75 3.95 9.15 2.25 8.8 1.35 8.3 1.35 8.25 1.55 8.25 1.8 8.2 1.85 8.15 1.9 8.05 1.9 7.95 1.9 7.9 1.75 7.5 1.65 7.4 1.6 7.3 1.45 7.1 1.35 6.85 1.5 6.9 2.2 7.05 Q3.2 7.05 4.0 6.65 L3.45 5.6 Q3.05 5.25 2.1 4.8 L2.05 4.75 2.8 4.4 4.05 5.35 4.65 6.25 5.4 5.65 5.15 5.7 Q4.45 5.7 4.45 5.0 4.45 4.45 5.25 4.45 L5.5 4.5 5.45 4.2 Q5.45 3.6 6.05 3.55 L6.15 3.55 6.0 3.35 5.95 3.0 Q5.95 2.55 6.4 2.45 L6.4 2.3 6.05 1.95 5.95 1.6 Q5.95 1.2 6.25 1.05 L6.25 0.8 7.25 0.6 7.9 0.3 M5.85 5.0 L5.85 5.1 6.0 4.85 6.05 4.75 5.8 4.7 5.85 5.0 M5.2 5.1 L5.5 4.8 5.2 4.5 Q4.85 4.5 4.85 4.8 L4.85 4.85 4.85 4.95 4.85 5.0 5.1 5.1 5.2 5.1" fill="#000000" fill-opacity="0.29803923" fill-rule="evenodd" stroke="none"/>
    </g>
  </defs>
</svg>
