<?xml version="1.0" encoding="UTF-8" standalone="no"?>
<svg xmlns:ffdec="https://www.free-decompiler.com/flash" xmlns:xlink="http://www.w3.org/1999/xlink" ffdec:objectType="frame" height="20.15px" width="8.75px" xmlns="http://www.w3.org/2000/svg">
  <g transform="matrix(1.0, 0.0, 0.0, 1.0, -0.1, 11.15)">
    <use ffdec:characterId="1" height="20.15" transform="matrix(1.0, 0.0, 0.0, 1.0, 0.1, -11.15)" width="8.75" xlink:href="#shape0"/>
  </g>
  <defs>
    <g id="shape0" transform="matrix(1.0, 0.0, 0.0, 1.0, -0.1, 11.15)">
      <path d="M7.25 -9.9 L7.3 -9.85 7.6 -9.2 7.7 -9.05 7.7 -7.25 7.7 -7.3 Q7.15 -7.0 6.2 -6.8 L1.35 -7.2 0.8 -9.45 0.6 -10.05 0.4 -10.95 2.65 -10.75 7.5 -11.15 7.45 -10.7 7.25 -9.9 M1.95 -5.45 L6.05 -5.2 Q7.1 -5.4 7.8 -5.75 L7.8 -5.3 7.85 -3.95 6.25 -3.5 2.5 -3.7 1.95 -5.45 M7.15 1.05 L7.85 0.9 7.8 1.6 7.1 2.55 Q6.2 2.15 4.15 2.05 L4.0 1.0 7.15 1.05 M3.65 -0.4 L3.05 -2.1 6.45 -2.0 7.85 -2.4 7.85 -0.6 6.85 -0.35 Q5.25 0.0 3.65 -0.4 M5.1 4.3 Q4.15 4.8 3.3 4.75 2.45 4.75 2.45 4.15 L3.7 2.95 Q5.4 2.9 6.35 3.35 L5.1 4.3" fill="#ffffff" fill-rule="evenodd" stroke="none"/>
      <path d="M6.8 5.45 L6.8 6.35 6.8 6.45 6.7 6.95 Q5.3 8.45 3.0 8.45 0.55 8.45 0.15 7.25 0.2 6.75 0.55 6.15 0.35 6.65 0.45 7.25 L0.7 7.55 1.8 8.05 4.2 7.85 Q5.9 7.45 6.35 6.7 L6.35 6.25 Q6.35 5.75 6.6 5.55 L6.8 5.45" fill="#cccccc" fill-rule="evenodd" stroke="none"/>
      <path d="M7.7 -7.3 L7.7 -7.25 7.8 -5.75 Q7.1 -5.4 6.05 -5.2 L1.95 -5.45 1.35 -7.2 6.2 -6.8 Q7.15 -7.0 7.7 -7.3 M2.5 -3.7 L6.25 -3.5 7.85 -3.95 7.85 -2.4 6.45 -2.0 3.05 -2.1 3.0 -2.25 2.5 -3.7 M3.65 -0.4 Q5.25 0.0 6.85 -0.35 L7.85 -0.6 7.85 0.9 7.15 1.05 4.0 1.0 3.7 -0.1 3.65 -0.4 M8.55 2.65 Q8.9 3.4 8.85 3.9 L8.85 4.05 7.6 5.1 7.65 6.6 6.8 6.45 6.8 6.35 6.8 5.45 6.6 5.55 Q6.35 5.75 6.35 6.25 L6.35 6.7 Q5.9 7.45 4.2 7.85 L1.8 8.05 0.7 7.55 0.45 7.25 Q0.35 6.65 0.55 6.15 0.75 5.4 1.5 4.8 L2.45 4.15 Q2.45 4.75 3.3 4.75 4.15 4.8 5.1 4.3 L6.35 3.35 Q5.4 2.9 3.7 2.95 L4.15 2.05 Q6.2 2.15 7.1 2.55 L7.8 1.6 8.55 2.65" fill="#53324d" fill-rule="evenodd" stroke="none"/>
      <path d="M8.85 4.05 L8.75 5.75 7.7 6.6 7.65 6.6 6.8 6.45 6.8 6.35 6.8 5.45 7.6 5.1 8.85 4.05 M0.1 7.85 L0.15 7.25 Q0.55 8.45 3.0 8.45 5.3 8.45 6.7 6.95 L6.35 7.75 4.7 8.7 1.8 8.9 Q0.25 8.7 0.1 7.85" fill="#331e2f" fill-rule="evenodd" stroke="none"/>
      <path d="M7.3 -9.85 L7.6 -9.2 7.7 -9.05 5.45 -9.35 5.0 -9.7 5.75 -9.7 7.3 -9.85 M2.9 -7.5 L4.75 -7.95 6.45 -8.2 4.85 -7.2 2.6 -7.5 2.9 -7.5 M0.6 -10.05 Q1.3 -9.3 3.75 -9.05 2.55 -8.55 1.0 -8.55 L0.8 -9.45 0.6 -10.05" fill="#000000" fill-opacity="0.29803923" fill-rule="evenodd" stroke="none"/>
      <path d="M5.8 6.15 L4.45 6.8 3.0 7.15 2.45 7.1 2.4 6.85 Q3.7 7.1 5.7 6.05 L5.8 6.15 M1.8 6.55 L2.0 6.75 1.7 6.95 Q1.3 6.95 1.3 6.65 L1.4 6.55 1.8 6.55" fill="#ffffff" fill-opacity="0.8" fill-rule="evenodd" stroke="none"/>
    </g>
  </defs>
</svg>
