<?xml version="1.0" encoding="UTF-8" standalone="no"?>
<svg xmlns:ffdec="https://www.free-decompiler.com/flash" xmlns:xlink="http://www.w3.org/1999/xlink" ffdec:objectType="frame" height="11.25px" width="7.75px" xmlns="http://www.w3.org/2000/svg">
  <g transform="matrix(1.0, 0.0, 0.0, 1.0, -0.75, 3.2)">
    <use ffdec:characterId="1" height="11.25" transform="matrix(1.0, 0.0, 0.0, 1.0, 0.75, -3.2)" width="7.75" xlink:href="#shape0"/>
  </g>
  <defs>
    <g id="shape0" transform="matrix(1.0, 0.0, 0.0, 1.0, -0.75, 3.2)">
      <path d="M5.65 6.35 Q5.95 6.0 6.2 6.0 6.5 6.0 6.75 6.9 L6.45 7.2 5.35 6.8 5.65 6.35" fill="#313131" fill-rule="evenodd" stroke="none"/>
      <path d="M7.9 4.6 L7.75 6.15 7.4 6.5 6.55 7.2 6.45 7.2 Q6.45 4.15 6.55 4.7 6.6 5.25 7.15 5.0 L7.9 4.6" fill="#000000" fill-rule="evenodd" stroke="none"/>
      <path d="M3.4 7.35 L2.9 7.4 1.65 7.2 Q1.5 7.0 1.7 6.9 L2.45 6.8 2.6 6.8 4.1 7.15 3.4 7.35" fill="#ffffff" fill-rule="evenodd" stroke="none"/>
      <path d="M0.8 7.2 L1.15 7.0 2.05 6.3 Q2.55 5.8 3.1 5.65 L3.35 5.55 Q3.75 5.55 4.45 6.0 L5.6 6.85 5.6 6.9 5.2 7.0 Q5.05 7.05 5.05 7.2 L4.7 7.6 4.45 7.8 4.5 7.35 2.3 7.55 0.8 7.2 M3.4 7.35 L4.1 7.15 2.6 6.8 2.45 6.8 1.7 6.9 Q1.5 7.0 1.65 7.2 L2.9 7.4 3.4 7.35" fill="#878787" fill-rule="evenodd" stroke="none"/>
      <path d="M4.45 7.8 L4.35 7.9 4.2 7.95 3.85 8.05 Q0.9 8.15 0.75 7.35 L0.8 7.2 2.3 7.55 4.5 7.35 4.45 7.8" fill="#545454" fill-rule="evenodd" stroke="none"/>
      <path d="M3.5 0.2 L2.9 -1.6 2.95 -1.6 2.6 -2.45 2.6 -2.8 2.9 -2.8 Q3.15 -2.5 5.15 -2.5 L7.35 -2.85 8.3 -3.2 8.45 -2.85 8.25 -1.55 8.25 -1.2 8.35 -1.2 8.25 -1.15 8.25 -0.75 8.15 -0.4 8.05 0.5 7.95 4.2 7.95 4.35 7.9 4.9 7.25 5.75 6.0 6.7 Q5.45 7.05 5.05 7.35 L4.7 7.6 4.75 7.15 4.35 6.4 Q6.1 6.1 6.95 4.7 L7.05 3.35 6.8 2.1 Q7.05 2.65 6.7 1.1 L6.3 0.6 6.3 0.55 6.25 0.6 5.75 0.55 4.15 0.55 Q3.65 0.55 3.5 0.2 M4.05 3.3 L4.05 3.0 4.05 2.85 4.1 2.9 4.35 3.1 Q4.65 3.35 4.95 3.4 L5.45 3.6 5.35 3.65 4.6 3.55 4.5 3.55 4.2 3.5 4.1 3.55 4.05 3.3 M5.8 4.2 L4.85 4.5 4.3 4.05 4.25 3.85 Q5.6 4.4 6.15 3.85 L5.8 4.2" fill="#1c1c1c" fill-rule="evenodd" stroke="none"/>
      <path d="M3.5 0.2 Q3.65 0.55 4.15 0.55 L5.75 0.55 6.25 0.6 6.3 0.55 6.3 0.6 6.7 1.1 Q7.05 2.65 6.8 2.1 L7.05 3.35 6.95 4.7 Q6.1 6.1 4.35 6.4 L4.15 6.2 2.35 6.1 Q2.1 5.9 3.05 5.2 L3.1 5.15 3.7 4.65 4.0 4.0 4.0 3.95 4.0 3.85 3.95 3.65 4.05 3.4 4.05 3.3 4.1 3.55 4.2 3.5 4.5 3.55 4.6 3.55 5.35 3.65 5.45 3.6 4.95 3.4 Q4.65 3.35 4.35 3.1 L4.1 2.9 4.05 2.85 3.95 2.65 4.0 2.45 4.0 2.4 4.0 2.3 4.05 2.25 4.05 2.05 4.05 1.85 3.9 1.35 3.85 1.2 3.8 1.1 3.7 0.85 3.5 0.2 M5.8 4.2 L6.15 3.85 Q5.6 4.4 4.25 3.85 L4.3 4.05 4.85 4.5 5.8 4.2" fill="#383838" fill-rule="evenodd" stroke="none"/>
      <path d="M4.35 0.0 L4.05 -0.1 Q3.15 -0.35 3.0 -0.55 L2.85 -1.25 2.65 -1.85 Q2.95 -1.5 4.05 -1.4 L4.7 -1.3 5.4 -1.3 6.95 -1.6 7.8 -1.75 8.4 -1.95 8.45 -1.9 8.5 -0.8 Q8.7 -0.55 6.85 -0.2 L6.75 -0.15 Q6.75 -0.75 7.05 -1.45 L4.1 -1.1 4.35 0.0 M4.5 1.65 L4.3 1.6 3.65 1.4 3.15 0.15 3.2 0.0 3.45 0.1 4.3 0.3 4.4 0.3 4.9 0.35 5.55 0.35 6.25 0.25 6.7 0.2 7.6 0.0 8.35 -0.3 8.4 -0.2 8.3 0.95 Q8.6 1.15 6.9 1.45 L6.7 1.55 6.7 0.35 4.4 0.45 4.5 1.65" fill="#000000" fill-rule="evenodd" stroke="none"/>
      <path d="M4.35 0.0 L4.1 -1.1 7.05 -1.45 Q6.75 -0.75 6.75 -0.15 L4.35 0.0 M6.7 1.55 L4.5 1.65 4.4 0.45 6.7 0.35 6.7 1.55" fill="#151515" fill-rule="evenodd" stroke="none"/>
      <path d="M5.9 -1.45 L6.1 -1.35 6.15 -1.2 5.35 -1.1 5.35 -0.65 5.4 -0.35 Q5.4 -0.2 5.85 -0.2 L6.25 -0.25 6.15 -0.05 5.4 0.1 Q5.1 -0.3 5.1 -0.85 L5.15 -1.35 5.9 -1.45 M6.4 0.5 L5.55 0.6 5.55 1.05 5.6 1.35 6.05 1.5 6.45 1.45 6.4 1.65 5.6 1.8 Q5.3 1.4 5.3 0.85 L5.35 0.35 6.3 0.25 6.4 0.5" fill="#ffffff" fill-rule="evenodd" stroke="none"/>
      <path d="M6.15 -1.2 L6.1 -1.35 5.9 -1.45 6.6 -1.55 Q6.85 -1.55 6.9 -0.4 6.9 -0.15 6.2 -0.05 L6.15 -0.05 6.25 -0.25 6.65 -0.4 6.55 -1.25 6.15 -1.2 M6.45 1.45 L6.85 1.3 6.75 0.45 6.4 0.5 6.3 0.25 6.8 0.15 Q7.05 0.15 7.1 1.3 7.1 1.55 6.4 1.65 L6.45 1.45" fill="#b8b8b8" fill-rule="evenodd" stroke="none"/>
    </g>
  </defs>
</svg>
