<svg xmlns="http://www.w3.org/2000/svg" xmlns:ffdec="https://www.free-decompiler.com/flash" xmlns:xlink="http://www.w3.org/1999/xlink" ffdec:objectType="frame" width="9.05" height="19"><g transform="translate(.5 9.75)"><use ffdec:characterId="1" xlink:href="#a" width="8.25" height="18.8" transform="translate(.1 -9.75)"/><use ffdec:characterId="3" xlink:href="#b" width="8.95" height="5.65" transform="translate(-.5 3.6)"/><use ffdec:characterId="4" xlink:href="#c" width="8.95" height="18.65" transform="translate(-.4 -9.5)"/></g><defs><g id="a" fill-rule="evenodd"><path fill="#333" d="M7.4 2.2 7 3.3q-.8-.75-1.25-1.8l-.5.05 1.5 2.35-1.4 3.05Q4 5.45 3 3.6l1.05-2h-.3L2.8 3.25 1.95 1.5l-.6-.1 1.2 2.2-.55.55-.9-2.8.25.05-.4-.9.65.1.35.9 1.45.1h.35L4.1.75h.35l-.4.85 1.2-.05L4.8.7l.65-.05.3.85q.95-.2 1.6-.55zM2.2 4.8l.55-.85 2.4 3.4-1.1 2-1.1-2-.25-.85zm1.2 4.1.45.75-.15.3zm.5 1.7.25-.5 1.9 2.4-2.9 3.9 3.15-3.6 1.95 1.65v.1q-.05 1-.5 1.85l-.3.6H6v.2l-.05-.05-.35.05-.1.05-.1.1Q3.85 18.8 2.35 18.8l-1-.1-.25-.1-1-.6q-.3-.9.2-1.25l2.05-1Q4.45 13.5 4.2 12zM8 13.3l-1.35-.95 1.1-1.75zm-.3-4.2q-1.1-.85-2.05-1.85l1.35-3 .55.55zm-.2-5.35-.25-.15.2-.55zM6.3 12.1q-1.05-.95-1.95-2.3l1.1-2.1L7.6 9.95z"/><path d="M7.35.95q-.65.35-1.6.55l-.3-.85Q6.5.45 7.3 0zM4.8.7l.45.85-1.2.05.4-.85zm-.7.05-.35.85H3.4l-1.45-.1L1.6.6zM.95.5l.4.9-.25-.05-.4-.9z"/><path fill="#666" d="m2 4.15.55-.55-1.2-2.2.6.1.85 1.75.95-1.65h.3L3 3.6q1 1.85 2.35 3.35l1.4-3.05-1.5-2.35.5-.05Q6.2 2.55 7 3.3l.4-1.1.05.85-.2.55.25.15v.35l.05.7L7 4.25l-1.35 3q.95 1 2.05 1.85v.95l.05.55-1.1 1.75L8 13.3l.25 1.15L6.3 12.8l-3.15 3.6 2.9-3.9-1.9-2.4-.25.5-.2-.65.15-.3-.45-.75-.45-1.55 1.1 2 1.1-2-2.4-3.4-.55.85zm4.3 7.95 1.3-2.15L5.45 7.7l-1.1 2.1q.9 1.35 1.95 2.3"/></g><g id="c" fill-rule="evenodd"><path fill="#db4444" d="m8.5 15.95-.15.25q-.55.9-.55 1.45l-1 .1-.4-.8-.05-.05 1.35-.45zm-.05-3.7h.1l.4 1.75-2.35 1.6-2.15.55q-1.25.1-2.1-.75l2.3-3.3z"/><path fill="#fff" d="m4.6 12.7.7.15-.5.8 1.05.15-.45.9-1-.1-.65.9q-.6.05-.85-.3l.65-.9-.25-.3.5-.7.2.15z"/><path fill="#333" fill-opacity=".298" d="M5.9 17.1q-2.25 2.05-4.3 1.4-1-.3-1.6-1.1 1.7 1.05 3.95.5 1.15-.3 1.95-.8"/><path fill-opacity=".298" d="M5.95.45 7.5 0l.8 12.4q.6 1.6.4 2.5t-.75 1.4l-.75 1.35-.25.25-.55-1 .65-.7-.05-.45q-.8.6-2.2.75L3 16.3l-.6-.5q-.2-.35.1-.25 1.3 1 3.2.45.95-.3 1.65-.8l.35-.4q.3-1.35-.35-2.1l-.4-.2z"/></g><path id="d" fill="#a30f0f" fill-rule="evenodd" d="m7.9 1.3.25 1.15-.1 1-.25.7-.8.5-1.35.45h-.1q-.2.05-.45.25-1.65 1.6-3.3 1.6l-1.35-.2q-.95-.3-1.1-.65-.35-1 .25-1.4l2.25-1.05.3-.35Q3.5 4.5 5.7 3.1z" transform="translate(.8 -1.3)"/><use ffdec:characterId="2" xlink:href="#d" id="b" width="8.95" height="5.65"/></defs></svg>