<svg xmlns="http://www.w3.org/2000/svg" xmlns:ffdec="https://www.free-decompiler.com/flash" xmlns:xlink="http://www.w3.org/1999/xlink" ffdec:objectType="frame" width="11.45" height="19.15"><use ffdec:characterId="1" xlink:href="#a" width="11.45" height="19.15"/><defs><g id="a" fill-rule="evenodd"><path fill="#fff" d="M3.95 19v-.3l.5-.65q.35-.3.7-.3l.2-.1.25.2-.3.3-.25-.15q-.6.35-1.1 1m-2.15-.7q-.2-.1-.05-.75.15-.7.8-.7.35 0 .35.2l-.3.5-.25-.4zM.05 16.7 0 16.5l.25-.55.85-.45h.25l.1.2-.4.4q-.55.15-1 .6"/><path fill="#c4c4c4" d="M3.95 19q.5-.65 1.1-1l.25.15-1.3 1zm-2.15-.7.55-1.15.25.4-.75.75zM.05 16.7q.45-.45 1-.6l-.75.7z"/><path fill="#333" d="m10.25 8.7.2 1.4.05.3.05 1.15q0 1.3-1.35 3.75-1.75 3.15-4.1 3.15-.5 0-.65-.3l-.2-.2-.2-.45v-.05L3 17.6l-.45-.05-.1-.05q-.55-.2-.55-.9l.1-.25-.45.05-.5-.15q-.4-.15-.4-.9l.15-.95.7-.9q.45-.4 1.45-.75l1.35-.4q1.1-1.2 1.95-3.45 1.2.6 1.95.55z"/><path fill="#4f5e79" d="M4.25 1.15 4 .3l.1.05q1.15.5 2.7.5Q8.7.85 9.85 0l.05.85q-1.65.85-3.4.65zm5.65.3.15 6.4q-1.65 1.1-3.8.25L4.4 1.65q.75.5 3.1.5 1.45-.2 2.4-.7"/><path d="m4.4 1.65-.15-.5 2.25.35q1.75.2 3.4-.65v.6q-.95.5-2.4.7-2.35 0-3.1-.5M8.05 11.75l-.05.4-.55 1L6.4 14.2q-.5.35-.2.05l.6-.75L8 11.8zm-1.55.45q1.15-1.15.3.15-.9 1.3-1.7 1.55.25-.6 1.4-1.7m-.05-.85v.1l-2.05 2 .15-.35.35-.45.5-.6q.3-.35 1.05-.7"/><path fill="#fff" d="m8.45 9.9-.35-.15.15-.35q.2.05.2.25z"/><path fill="#999" d="m4.3 5.9.05-.15h.5V5.7l-.25-.25q-.15-.2-.15-.35l.05-.15.2.05.7.15.05.1.1.1q.05.3.45.85.4.5 1.8.45T9.95 5.3v-.6l.05-.25.55-.15.15.15-.25.2.15.1.45.1v.35l-.1.15.5.5-.15.45.1.3-.15.7.15.75-.35.75.15.35-.25.45-.4-.2-.5.25-.1.1-.25.5-.35-.35-.45.25-.3.2-.25-.1-.55-.15-.95.3q-.4-.4-.8-.3l-.4-.05-.3.2-.15-.05v-.1l.25-.2-.15-.1-.2.15-.15-.05-.05-.35.05-.05-.2-.2-.3.1-.15-.05V9.2l.2-.2.2-.35-.3-1.75.25-.35zm5.8-1.15V4.7zm-.35 5 .05-.05z"/><path fill-opacity=".298" d="M5.05 9.85 5 9.8h.1z"/><path fill-opacity=".451" d="M5.5 9.2q.2 0 .2.15l-.15.35-.15.15-.1-.1V9.4zm-.55-.3q.25-.05.25.15l-.25.45-.1-.05v-.1zm3.65 1.6.05.05v-.1zM4.65 6.15V6l.4-.2v-.1H4.9q-.25-.1-.25-.3l.05-.15.5.2.15-.1.4.3q0 .65 1.4.65Q8.2 6.3 9 5.65L8.55 2l-.15-.6v-.05l-.2-.6 1.4-.6.05.8v.9q.1 2.35.3 2.95v-.1l.4.35q.35 0 .35.2l-.05.25.1.2.1.05.2.2-.2.3v.2l.05.05.25.3-.3.9v.25h.05l.15.2-.25.4.3.45-.25.25-.25-.05-.1.35q-.4.9-.1 2.05l-.65 2.1-.45.95-1.25 1.95q-1.25 1.75-2 1.75l-.9.05q-.15 0-.05-.3l-.2-.75q0-.85.65-1.35l1.8-1.55.6-.85.55-1.2q.25-.75 0-1.15l-.5-.8h-.3l-.9.45q0-.5-.75-.5l-.2.05.1-.15-.2-.3-.2-.25V9.7l.3.05.65-.2.2.15.1.05-.3-.35.05-.15q.8.15 1 .45l.25-.05h.15l.1-.1h.1l.55-.3.1-.55.1-.3v-.2h-.15l-.1-.05q0-.25.2-.35l-.05-.2-.25.2-.1-.05.2-.5-.1-.15q-.25.4-.85.4l-.1-.05q0-.15.15-.35h-.6l-.6-.05.1.2-.15.2-.65-.6-.35-.25-.1-.05-.2.25-.1-.05v-.6h.05L5.1 6.1l-.3.1zm-.85 8-.75.65q-.8.75-1.15 1.5l-.35.05q-.5 0-.5-.85 0-1.6 2.6-1.5zm0 3 .15.35-.6.1q-.85 0-.85-.75 0-.85 1.3-1.5 1.05-.55 1.25-.25l-.7.7q-.55.7-.55 1.35"/></g></defs></svg>