<svg xmlns="http://www.w3.org/2000/svg" xmlns:ffdec="https://www.free-decompiler.com/flash" xmlns:xlink="http://www.w3.org/1999/xlink" ffdec:objectType="frame" width="9.25" height="7.75"><g transform="translate(.95 -.5)"><use ffdec:characterId="2" xlink:href="#a" width="8.85" height="8.45" transform="matrix(.999 -.0382 .0437 .8738 -.925 .857)"/><use ffdec:characterId="3" xlink:href="#b" width="8.7" height="7.2" transform="translate(-.6 .8)"/></g><defs><path id="c" fill="#b61f1f" fill-rule="evenodd" d="m3.85-1.3 1.7.05 2.35.1-.2 4.65v.35l-.05.6-.5.75-.45.3-.3.2q-1.5.75-4.35 1H1.8Q.05 6.85-.7 5.5v-.1l-.1-.1-.05-.25-.05-.2-.05-.65.35-.85.75-.6.65-.25 2.15-.85q.55-.2.75-.95l.1-.2.05-.5z" transform="translate(.95 1.75)"/><use ffdec:characterId="1" xlink:href="#c" id="a" width="8.85" height="8.45"/><g id="b" fill-rule="evenodd"><path fill="#333" d="M2.85 6.3q0-.6.15-1.1v-.05l.6-1.05.3.3q.75.6 2.15 1.4zm4.1-.8q-1.3-.65-2.25-1.55l-.3-.35Q5.45 3.05 6 1.65l.35-1.4 2.35.1-.2 4.1v.15q-.65.5-1.1.65-.2.1-.45.25m-4-2.4.25.6-1.6-.15zM4 3.15l-.25-.35q.55-.15.75-.8 0 .7-.5 1.15"/><path fill="#0e0e0e" d="M8.5 4.6v.15l-1.2.85h-.05l-.85.35-3.55.6-1.25.05Q.45 6.55.1 6.1L0 6l1.5.35 1.35-.05 3.2-.5.9-.3q.25-.15.45-.25.45-.15 1.1-.65"/><path fill="#fff" fill-opacity=".498" d="m3 5.2-1.25.1H1.3L.3 5q-.2-.2.15-.75v.4q.2.3 1.3.45z"/><path d="m2.95 2.85.8-.3.75 1.1Q5.45 4.7 6.95 5.5l-.9.3q-2.1-.75-2.75-1.7-.7-1.05-.35-1.25"/><path fill="#ccc" d="m4.2 4 .5-.05q.35 0 .6.25l.25.45-.15.5-.55.15L4.3 5l-.25-.5Q4 4.2 4.2 4m1.15.6-.15-.3-.25-.15h-.1l-.35.15-.2.35.15.3.35.1h.1l.25-.1z"/><path fill-opacity=".298" d="m7.05 2.7.05-.3.3-2.4 1.3.3-.2 4.95-.5.7-.7.4-.85.35L5.1 7l-1.85.2 2.6-.8-1.75-1q-1.4-.8-1.2-2.3.25 1.35 1.75 2.15.7.4 1.5.6L6.7 4.1q-.7.05-1.05-.25l1.15-.1.1-.35-1.1-.15-.35-.4V2.7l1.45.6.05-.25-.3-.35q-.15-.25.4 0"/></g></defs></svg>