<svg xmlns="http://www.w3.org/2000/svg" xmlns:ffdec="https://www.free-decompiler.com/flash" xmlns:xlink="http://www.w3.org/1999/xlink" ffdec:objectType="frame" width="7.6" height="6.05"><use ffdec:characterId="1" xlink:href="#a" width="7.6" height="6.05"/><defs><linearGradient id="b" x1="-819.2" x2="819.2" gradientTransform="matrix(.0025 .0013 -.0008 .0016 4.85 5.35)" gradientUnits="userSpaceOnUse" spreadMethod="pad"><stop offset="0" stop-color="#bd7c00"/><stop offset=".506" stop-color="#3c2400"/></linearGradient><linearGradient id="d" x1="-819.2" x2="819.2" gradientTransform="matrix(.0021 0 0 .0012 5.95 4.2)" gradientUnits="userSpaceOnUse" spreadMethod="pad"><stop offset="0" stop-color="#e3cb54"/><stop offset="1" stop-color="#caa037"/></linearGradient><radialGradient id="c" cx="0" cy="0" r="819.2" gradientTransform="translate(2.9 6.85)scale(.0032)" gradientUnits="userSpaceOnUse" spreadMethod="pad"><stop offset="0" stop-color="#fffc76"/><stop offset="1" stop-color="#c69932"/></radialGradient><g id="a" fill-rule="evenodd"><path fill="#240000" d="m6.5 2.75.2-.25.1-.05.5-.35.05-.05v1.1l-.15.3-.05.05-.1-.55q-.3 0-.3.4v.4L6.4 4l-.05-.5v-.1q-.4.05-.35.9l-.1.05-.3.15-.1-.5q-.3.1-.35.6v.2L4.8 5l-.05-.45-.1.05-.2.3v.3l-.15.1q-.1 0-.15.1L4.1 5h-.2l-.2.4v.2l-.05.05-.3.15-.05-.45q-.25-.1-.3.55l-.35.1-.05-.45h-.25l-.1.5L1.8 6l-.05-.45-.25-.05-.05.45-.4-.15v-.35l-.25-.2-.1.4-.25-.15-.05-.35-.1-.2-.05-.05-.05.45-.1-.15v-.85l.1.05v.05l.1.1.05.05.1.05.2.15.35.15.45.15.35.1h.5l.5-.1-.3.2.35-.15.4-.25.4-.2.6-.35.4-.25L6.3 2.95l.2-.15z"/><path fill="url(#b)" d="m7.05 5.2.05.05-.2.35-.7.6-.7.35-.3-.1L4.8 6q-1.05-.8-2.45-.75l1.15-.8.75-.5.35-.1q.75-.05 1.55.4.55.25.9.95" transform="translate(-.8 -3.15)"/><path fill="#b87a03" d="m6.3 2.1.2.65v.05l-.2.15L4.65 4.1l-.4.25H4.2l.05-.25-.05-.25q-.1-.55-.65-.95l-.15-.1q-1.15-.6-2-.4l-.1-.05.25-.25q1.4-.05 2.45.75l.4.45.3.1.7-.35.7-.6z"/><path fill="#9f750e" d="m6.3 2.1-.05-.05.25-.45q.4-.4.4-.9V.1l.65-.1q.2.95-.15 1.95V2l-.05.05-.05.05-.5.35-.1.05-.2.25z"/><path fill="url(#c)" d="M.95 7.4.9 7.15q-.25-.6.1-.8l.6-.4.05-.05.05-.05.3-.2.2-.1q.85-.2 2 .4l.15.1q.55.4.65.95l-.95.8-.95.35q-.5 0-.5-.4l.3-.6-.3.25-.25.55.05.15Q2 8.05 2 7.55v-.1l.25.05h.25l-.1-.35h-.35l-.15.2v.05h.05l-.15.2v.2h-.15l-.2-.1-.1-.25.05-.25-.15.05V7.2l-.1.4v.15L1.1 7.7l-.05-.4.1-.45h.1V6.7l-.05-.1h-.1l-.05.1-.1.6zm2.15-.15q-.35 0-.4.3.15-.05.4.2h.6l-.25-.3Q3.3 7.3 3.2 7.3zM1.8 7.1l-.35-.15L1.4 7h-.05v.05l.1.05.1.05h.3z" transform="translate(-.8 -3.15)"/><path fill="#faf687" d="m1.2 4.3-.05-.05H1.1V4.2l.15-.2h.35l.1.35h-.25zm1.1-.2.1.05q.1 0 .25.15l.25.3h-.6q-.25-.25-.4-.2.05-.3.4-.3M1 3.95l.05.05h-.3l-.1-.05-.1-.05v-.05H.6l.05-.05zM.35 3.7h-.1v-.15l.05-.1h.1l.05.1v.15z"/><path fill="#986f0e" d="m4.2 3.85.05.25-.05.25-1.35.8-.35.15.3-.2-.5.1h-.5l-.35-.1L1 4.95.65 4.8l-.2-.15-.1-.05v-.15l.1-.4v.05l.15-.05-.05.25.1.25.2.1H1v-.2l.15-.2.05.05v.1q0 .5.4.55l-.05-.15.25-.55.3-.25-.3.6q0 .4.5.4l.95-.35zm-3.9.7-.1-.1V4.4l-.05-.15v-.1l.1-.6v.15h.1l-.1.45z"/><path fill="url(#d)" d="M7.7 3.25v.6q0 .5-.4.9l-.25.45q-.35-.7-.9-.95-.8-.45-1.55-.4l-.35.1V3.9l.2-.15.05-.15v-.35z" transform="translate(-.8 -3.15)"/><path fill="#7a550e" d="m7.4 2 .15-.35.05 1.25-.4.55.15-.3v-1.1zM3.9 5h.2l.05.4-.4.2H3.7v-.2zm-2.15.55L1.8 6l-.35-.05.05-.45zm.5.5.1-.5h.25l.05.45zM3 5.9q.05-.65.3-.55l.05.45zM.3 5.4l-.1-.05.05-.45.05.05.1.2.05.35zm.4.25.1-.4.25.2v.35zM7.1 3.5l-.35.25v-.4q0-.4.3-.4l.1.55zm-.75-.1v.1l.05.5-.4.3q-.05-.85.35-.9m-1.2 1.4v-.2q.05-.5.35-.6l.1.5zm-.7.4v-.3l.2-.3.1-.05.05.45z"/></g></defs></svg>