<?xml version="1.0" encoding="UTF-8" standalone="no"?>
<svg xmlns:ffdec="https://www.free-decompiler.com/flash" xmlns:xlink="http://www.w3.org/1999/xlink" ffdec:objectType="frame" height="7.55px" width="8.75px" xmlns="http://www.w3.org/2000/svg">
  <g transform="matrix(1.0, 0.0, 0.0, 1.0, 0.65, -0.65)">
    <use ffdec:characterId="1" height="7.55" transform="matrix(1.0, 0.0, 0.0, 1.0, -0.65, 0.65)" width="8.75" xlink:href="#shape0"/>
  </g>
  <defs>
    <g id="shape0" transform="matrix(1.0, 0.0, 0.0, 1.0, 0.65, -0.65)">
      <path d="M7.95 1.05 L7.95 5.1 7.95 5.3 7.95 5.4 7.95 5.95 7.5 6.65 7.05 6.9 6.75 7.1 Q5.3 7.8 2.45 8.1 L2.2 8.15 Q0.45 8.35 -0.35 7.2 L-0.35 7.1 -0.45 7.05 -0.55 6.8 -0.6 6.65 -0.65 6.05 -0.35 5.3 Q-0.2 5.1 0.35 4.75 0.5 4.65 1.0 4.5 L3.1 3.7 Q3.65 3.45 3.85 2.8 L3.9 2.65 3.95 2.2 3.9 1.05 Q4.6 0.25 5.6 1.05 6.0 0.45 7.95 1.05" fill="#45b9a2" fill-rule="evenodd" stroke="none"/>
      <path d="M2.25 7.1 Q2.25 6.5 2.4 6.0 L2.4 5.95 3.0 4.9 3.3 5.2 Q4.05 5.8 5.45 6.6 L2.25 7.1 M6.35 6.3 Q5.05 5.65 4.1 4.75 L3.8 4.4 Q4.85 3.85 5.4 2.45 L5.75 1.05 8.1 1.15 7.9 5.25 7.9 5.4 Q7.25 5.9 6.8 6.05 6.6 6.15 6.35 6.3 M2.35 3.9 L2.6 4.5 1.0 4.35 2.35 3.9 M3.4 3.95 L3.15 3.6 Q3.7 3.45 3.9 2.8 3.9 3.5 3.4 3.95" fill="#333333" fill-rule="evenodd" stroke="none"/>
      <path d="M7.9 5.4 L7.9 5.55 6.7 6.4 6.65 6.4 5.8 6.75 2.25 7.35 1.0 7.4 Q-0.15 7.35 -0.5 6.9 L-0.6 6.8 0.9 7.15 2.25 7.1 5.45 6.6 6.35 6.3 Q6.6 6.15 6.8 6.05 7.25 5.9 7.9 5.4" fill="#0e0e0e" fill-rule="evenodd" stroke="none"/>
      <path d="M2.4 6.0 L1.15 6.1 0.7 6.1 -0.3 5.8 Q-0.5 5.6 -0.15 5.05 L-0.15 5.45 Q0.05 5.75 1.15 5.9 L2.4 6.0" fill="#ffffff" fill-opacity="0.49803922" fill-rule="evenodd" stroke="none"/>
      <path d="M2.35 3.65 L3.15 3.35 3.9 4.45 Q4.85 5.5 6.35 6.3 L5.45 6.6 Q3.35 5.85 2.7 4.9 2.0 3.85 2.35 3.65" fill="#000000" fill-rule="evenodd" stroke="none"/>
      <path d="M3.6 4.8 L4.1 4.75 Q4.45 4.75 4.7 5.0 L4.95 5.45 4.8 5.95 4.25 6.1 3.7 5.8 3.45 5.3 Q3.4 5.0 3.6 4.8 M4.75 5.4 L4.6 5.1 4.35 4.95 4.25 4.95 3.9 5.1 3.7 5.45 3.85 5.75 4.2 5.85 4.3 5.85 4.55 5.75 4.75 5.4" fill="#cccccc" fill-rule="evenodd" stroke="none"/>
      <path d="M6.45 3.5 L6.5 3.2 6.8 0.8 8.1 1.1 7.9 6.05 7.4 6.75 6.7 7.15 5.85 7.5 4.5 7.8 2.65 8.0 5.25 7.2 3.5 6.2 Q2.1 5.4 2.3 3.9 2.55 5.25 4.05 6.05 4.75 6.45 5.55 6.65 L6.1 4.9 Q5.4 4.95 5.05 4.65 L6.2 4.55 6.3 4.2 5.2 4.05 4.85 3.65 4.85 3.5 6.3 4.1 6.35 3.85 6.05 3.5 Q5.9 3.25 6.45 3.5" fill="#000000" fill-opacity="0.29803923" fill-rule="evenodd" stroke="none"/>
    </g>
  </defs>
</svg>
