<svg xmlns="http://www.w3.org/2000/svg" xmlns:ffdec="https://www.free-decompiler.com/flash" xmlns:xlink="http://www.w3.org/1999/xlink" ffdec:objectType="frame" width="7.25" height="19.6"><use ffdec:characterId="1" xlink:href="#a" width="7.25" height="19.6"/><defs><linearGradient id="c" x1="-819.2" x2="819.2" gradientTransform="matrix(.004 0 0 .0023 4.5 -8.8)" gradientUnits="userSpaceOnUse" spreadMethod="pad"><stop offset=".055" stop-color="#ddb064"/><stop offset=".247" stop-color="#efdf80"/><stop offset=".251" stop-color="#fff2b5"/><stop offset=".553" stop-color="#ddb064"/><stop offset=".6" stop-color="#fff2b5"/><stop offset=".686" stop-color="#b48745"/><stop offset=".78" stop-color="#dfb165"/><stop offset=".91" stop-color="#fff2b5"/><stop offset=".91" stop-color="#ddb064"/></linearGradient><linearGradient id="d" x1="-819.2" x2="819.2" gradientTransform="matrix(.0034 0 0 .0057 4.95 -2.75)" gradientUnits="userSpaceOnUse" spreadMethod="pad"><stop offset=".055" stop-color="#ddb064"/><stop offset=".247" stop-color="#efdf80"/><stop offset=".251" stop-color="#fff2b5"/><stop offset=".553" stop-color="#ddb064"/><stop offset=".6" stop-color="#fff2b5"/><stop offset=".686" stop-color="#b48745"/><stop offset=".78" stop-color="#dfb165"/><stop offset=".91" stop-color="#fff2b5"/><stop offset=".91" stop-color="#ddb064"/></linearGradient><linearGradient id="e" x1="-819.2" x2="819.2" gradientTransform="matrix(.0033 .0014 -.0015 .0036 5.5 5.75)" gradientUnits="userSpaceOnUse" spreadMethod="pad"><stop offset=".055" stop-color="#ddb064"/><stop offset=".247" stop-color="#efdf80"/><stop offset=".251" stop-color="#fff2b5"/><stop offset=".553" stop-color="#ddb064"/><stop offset=".6" stop-color="#fff2b5"/><stop offset=".686" stop-color="#b48745"/><stop offset=".78" stop-color="#dfb165"/><stop offset=".91" stop-color="#fff2b5"/><stop offset=".91" stop-color="#ddb064"/></linearGradient><radialGradient id="b" cx="0" cy="0" r="819.2" gradientTransform="translate(5.15 .45)scale(.0097)" gradientUnits="userSpaceOnUse" spreadMethod="pad"><stop offset="0" stop-color="#62245a"/><stop offset="1" stop-color="#33082d"/></radialGradient><g id="a" fill-rule="evenodd"><path fill="url(#b)" d="M1.9-8.4q1.65 1.5 4.3 1.5h.95l.6-.05v.1l.15.15-1.75.1-2.2-.25q-.9-.3-1.9-.95L2-8zm5.9 2.2Q8.2.65 8 3.7l-.35.25-.3.75L7 4.35q-.3-.3-.3-.6 0-.25.4-.6l-.7.05-1.05-.3-.7-.3.4.65.3.65-.15.65.4-.15h.2l.7.1.55.45-.55-.1q-1.25 0-1.25.8l.3.7h.05l-.1-.4.15-.4q.15-.25.55-.25.55 0 .5.75v.1L5.65 7.3l-.05.1-1.25.4q-1.25.25-1.9-.6l.05-.05V6.9q.05-1.3.85-2.1l.8-.6V2.35Q3.9-.85 2.3-6.95l1.2.45 2.1.4.05.1.5.4-.05.05v.05l-.6.75v.15l.75.6-.55.4-.05.05v.05l-.05.05v.05l.05.05.7.5-.45.3-.05.1v.05l.05.05.65.55-.65.65-.05.05v.15l.6.55-.4.35v.1Q6 .25 6.5.5q-.5.25-.45.4v.05l.4.9.05.1h.1l.05-.1L7.2.9l.05-.05L6.9.5l.6-.45.05-.1L7.5-.1l-.05-.05L6.9-.4l.65-.65.05-.1-.65-.65.55-.5.05-.05.05-.05-.05-.1-.05-.05h-.1l-.65-.3.65-.65.05-.05-.05-.1-.05-.05L6.7-4l.85-.75.05-.05-.05-.1-.05-.05q-.35-.15-.95-.65l.4-.4.05-.05v-.05zM5.85-4.8l.45-.55.1-.05.6.45-.55.5q-.2 0-.35-.15zM6-3.5l.45-.35.45.25-.45.3zm.3 1 .25-.2.4.25-.25.25zm-.1 1.45.55-.6.4.35-.6.55q0-.2-.35-.3m.2 1.1.3-.25.25.1-.4.2zm0 .75.3-.15.15.05-.25.45-.1-.2zm.2.35-.05.1v-.1z" transform="translate(-1.25 10.65)"/><path fill="url(#c)" d="m7.75-6.95-.6.05H6.2q-2.65 0-4.3-1.5l-.55-2-.1-.25.8 1.1q1.35 1.6 3.35 1.9 1.15.15 2.05 0l.25-.1v.05z" transform="translate(-1.25 10.65)"/><path fill="url(#d)" d="M7.8-6.55v.35l-.8.1v.05L6.95-6l-.4.4q.6.5.95.65l.05.05.05.1-.05.05L6.7-4l.65.3.05.05.05.1-.05.05-.65.65.65.3h.1l.05.05.05.1-.05.05-.05.05-.55.5.65.65-.05.1-.65.65.55.25.05.05.05.05-.05.1-.6.45.35.35L7.2.9l-.55.95-.05.1h-.1l-.05-.1-.4-.9V.9Q6 .75 6.5.5 6 .25 6.05.05v-.1l.4-.35-.6-.55v-.15l.05-.05.65-.65-.65-.55-.05-.05v-.05l.05-.1.45-.3-.7-.5-.05-.05v-.05l.05-.05v-.05l.05-.05.55-.4-.75-.6v-.15l.6-.75v-.05l.05-.05-.5-.4-.05-.1-2.1-.4-1.2-.45-.15-.5q1.6 1 3.95 1zM5.85-4.8l-.05.1.65.55.75-.65-.2-.15-.6-.45-.1.05zM6-3.5l-.1.05.65.45.5-.55-.15-.05-.45-.25zm-.1-2.6.45.35.3-.35zm1.05 3.65-.4-.25-.25.2-.15.05.6.5.45-.4zm-.75 1.4L6.15-1l.45.45.7-.65-.15-.1-.4-.35zm.75.95L6.7-.2l-.3.25-.1.05.35.25.5-.35zm-.1.8L6.7.65 6.4.8l-.1.1.3.65.4-.7z" transform="translate(-1.25 10.65)"/><path fill="#8e5c12" d="M.8 2.85q1 .65 1.9.95l2.2.25 1.75-.1-.1.15-1.7.1Q2.5 4.2.9 3.2zM6.2 3q-.9.15-2.05 0-2-.3-3.35-1.9l1.4 1.05Q3.8 3 5.75 3zm-.05 15.2-.4-.05-.1-1.15.25-.25.2-.2h.05l.05.75zm-5-.1.05-.25q.65.85 1.9.6l1.25-.4q-.55.7-1.7.7l-1-.15zm4.6-12.4.2.15-.75.65-.65-.55.05-.1.25.2q.15.15.35.15zm-1.1-1.15h.75l-.3.35zm1 2.5.15.05-.5.55-.65-.45.1-.05.45.2zM5.7 8.2l.25.1-.45.4-.6-.5.15-.05.4.3zm.2 1.15.15.1-.7.65-.45-.45.05-.05q.35.1.35.3zm-.2 1.2.2.1-.5.35-.35-.25.1-.05.15.05zm-.1.8.15.15-.4.7-.3-.65.1-.1.1.15.1.2zm-.25.45H5.3v.1zM3.4 13.25l.6.55q.35.4.35 1.15v.1l-.4.15.15-.65-.3-.65zm1 2.95q.05-.45.55-.45l.45.2.3.4-.25.35q.05-.75-.5-.75-.4 0-.55.25"/><path fill="url(#e)" d="m8 3.7.35-.25.15 1.05-.15.6-.15.3v.05l-.3 1-.25 1.1H7.4l.05-.9-.05-.75h-.05l-.2.2-.25.25-.25.25-.35.4-.6.95-.1.6-1.85.4q-.6 0-1.2-.6l-.15-.9.5.5 1 .15q1.15 0 1.7-.7l.05-.1L6.7 6.15v-.1l.25-.35-.3-.4-.45-.2q-.5 0-.55.45l-.15.4.1.4h-.05l-.3-.7q0-.8 1.25-.8l.55.1-.55-.45-.7-.1h-.2v-.1q0-.75-.35-1.15l-.6-.55.7.3 1.05.3.7-.05q-.4.35-.4.6 0 .3.3.6l.35.35.3-.75z" transform="translate(-1.25 10.65)"/></g></defs></svg>