<?xml version="1.0" encoding="UTF-8" standalone="no"?>
<svg xmlns:ffdec="https://www.free-decompiler.com/flash" xmlns:xlink="http://www.w3.org/1999/xlink" ffdec:objectType="frame" height="18.8px" width="7.3px" xmlns="http://www.w3.org/2000/svg">
  <g transform="matrix(1.0, 0.0, 0.0, 1.0, -0.75, 10.2)">
    <use ffdec:characterId="1" height="18.8" transform="matrix(1.0, 0.0, 0.0, 1.0, 0.75, -10.2)" width="7.3" xlink:href="#shape0"/>
  </g>
  <defs>
    <g id="shape0" transform="matrix(1.0, 0.0, 0.0, 1.0, -0.75, 10.2)">
      <path d="M0.8 -10.15 L7.55 -10.15 7.55 -10.0 Q7.95 -5.95 8.0 -1.35 L7.95 4.6 Q6.1 5.8 5.75 5.85 L5.2 5.65 4.15 5.4 3.7 5.35 3.65 5.35 3.65 5.3 3.7 5.25 3.75 5.2 3.8 5.1 3.95 4.95 3.2 5.3 3.1 5.1 3.4 4.95 4.25 4.35 4.3 4.3 4.45 3.8 4.5 2.65 Q4.5 1.25 4.1 0.2 L3.55 -1.3 1.55 -7.2 0.8 -10.0 0.8 -10.15" fill="#ffffff" fill-rule="evenodd" stroke="none"/>
      <path d="M7.75 -8.0 L1.3 -8.0 0.75 -10.2 7.55 -10.2 7.75 -8.0 M6.75 5.15 L7.6 4.5 4.25 4.3 4.45 3.2 8.0 3.4 7.85 5.95 6.2 7.85 Q5.1 8.6 4.25 8.6 L2.8 8.3 Q2.2 8.05 2.0 7.45 1.8 6.8 1.95 6.4 L2.15 5.85 2.5 5.45 3.05 5.05 3.45 4.95 3.65 4.9 5.65 5.75 6.75 5.15 M3.6 -1.05 L8.0 -1.05 8.0 1.2 4.35 1.2 3.6 -1.05 M2.75 -3.4 L2.05 -5.6 7.9 -5.6 7.95 -3.4 2.75 -3.4" fill="#fabc12" fill-rule="evenodd" stroke="none"/>
      <path d="M6.05 -10.15 L7.55 -10.15 Q8.15 -3.2 8.0 4.35 L7.95 4.35 7.9 5.9 Q5.9 9.0 3.6 8.5 L4.55 8.15 Q6.1 7.4 6.6 6.5 7.1 5.6 6.7 5.4 L5.75 6.0 4.15 5.05 3.4 4.9 3.7 4.8 3.75 4.8 Q4.65 4.85 5.75 5.45 7.1 4.35 7.95 4.35 L6.95 4.1 6.75 -3.0 6.05 -10.15" fill="#000000" fill-opacity="0.2" fill-rule="evenodd" stroke="none"/>
      <path d="M7.9 4.25 L7.65 4.5 6.0 4.15 4.2 4.3 4.15 4.3 4.35 4.05 5.95 3.85 7.9 4.25" fill="#000000" fill-opacity="0.4" fill-rule="evenodd" stroke="none"/>
    </g>
  </defs>
</svg>
