<svg xmlns="http://www.w3.org/2000/svg" xmlns:ffdec="https://www.free-decompiler.com/flash" xmlns:xlink="http://www.w3.org/1999/xlink" ffdec:objectType="frame" width="8.25" height="20.5"><use ffdec:characterId="1" xlink:href="#a" width="8.25" height="20.5"/><defs><g id="a" fill-rule="evenodd"><path fill="#e5c61d" d="m4.3 12.7-.8-.25q0 .6-.7-2.15l-.6-2.25-.05-.25L2 7.45.15.75.05.4V.15l4.5.25.25.6-.15-.05q.6 1.7.8 3.4.3 1.95.15 4T5 11.5z"/><path fill="#d0a107" d="M4.55.4 7.3 0l.05 3.25.05.45v.2l.05.95v.9l.05.95.15 4.95-.05.1q0 .85-2.35.85l-.5.1H4.3l.7-1.2q.45-1.1.6-3.15t-.15-4q-.2-1.7-.8-3.4L4.8 1z"/><path fill="#dcb670" d="M8.2 17.35v.15l-.1.9-1.15.95-.1-.7-.9.95q-1.05.9-2.55.9-1.55 0-2-1l-.35-1.05v-.1q.55 1.2 2.05 1.55 1.8.35 3-1.15l1.05-1.05v1.1zm-7.1.05.2-.1q1.15 1.25 2.25 1.25 1.05 0 2.4-1.1-.65 1.25-2.1 1.3L2.4 18.6z"/><path fill="#c57e48" d="m5.95 17.45.35-.35 1.65-1.9q.3.25.3 1l-.05 1.15-1.05 1.45v-1.1L6.1 18.75q-1.2 1.5-3 1.15-1.5-.35-2.05-1.55l-.05-.5.1-.45 1.3 1.2 1.45.15q1.45-.05 2.1-1.3"/><path fill="#333" d="m2.65 9.9-.15-.4-.4-1.1.15.05q.85.95 3.25.75 2.35-.3 2.05-.85h.1l.35 3.5.25 3-.2-.35-.2.2q-1 1.45-2.7 2.55-.45.3-.85 0-1.2-1.05-2.85-.75l-.25.3.9-1.3.85-1.2.95.1q1-.25 1.6.6l.1.05q.6.1 1.1-.55v-.05q.25-1.2-.8-1.6l-.95.05-.05.05-1.75.15V13l-.25-2.1q1.55.25 2.5 1.15l.05.05q.55 0 .95-.4l.05-.1.3-.8v-.05l-.8-.85h-1.1l-.4.45h-.1q-1 .05-1.7-.45"/><path fill="#121212" d="m2.9 10.9-.25-1q.7.5 1.7.45h.1l.4-.45h1.1l.8.85v.05l-.3.8-.05.1q-.4.4-.95.4l-.05-.05q-.95-.9-2.5-1.15m-.65-2.45q2.55.95 5.3-.1.3.55-2.05.85-2.4.2-3.25-.75m6 6.4v.3q0 .7-.5 1.25l-.75.85-.9 1.05-.25.25q-.7.75-1.55.9h.15L2.2 19.2l-.1-.05q-1.05-.45-1.05-1.8 0-.25.15-.55l.25-.3q1.65-.3 2.85.75.4.3.85 0 1.7-1.1 2.7-2.55l.2-.2zm-5.3-.55.2-1v-.2l1.75-.15.05-.05.95-.05q1.05.4.8 1.6v.05q-.5.65-1.1.55L5.5 15q-.6-.85-1.6-.6z"/><path fill="#dcb670" d="m4.3 10.75.5-.1-.05-.05v-.55h.3q.7.05 1.15.45.4.35.4.7l-.5.75q-.5.4-1.15.5l-.1-.05.05-.45h-.45l-1.3-.05-.3-.1H2.7l.05-.05.1-.2-.15-.1-.1-.6-.1-.35h.35l.6.2zm-.8.1.1.05-.05.55-.2.35H5l.15.1q.1.6.85-.15l.2-.35.1-.3v-.2q-.1-.55-.9-.6l-.3-.05v.2q1 .35.95.6l-.3.5-.5.15-.2-.45v-.45zm1.45 2.25h.25q.65 0 1.05.35l.4.65-.4.7-1.05.55-.1-.05.05-.4-.3.05-.55.05-1.2-.1q-.5-.2-.45-.45l.05-.1.05-.25q.1-.65.25-.65l.25.1.7.1H5l-.05-.05zm.25.2v.2q1 .2.95.45l-.25.5-.45.15-.2-.35-.05-.45-1.45.1.1.05q-.05.75-.9.65l2.25.15.15.05q.15.55.8-.2l.2-.3.05-.3v-.2q-.15-.5-.9-.5z"/><path fill="#c57e48" d="m3.5 10.85 1.55-.05v.45l.2.45.5-.15.3-.5q.05-.25-.95-.6v-.2l.3.05q.8.05.9.6v.2l-.1.3-.2.35q-.75.75-.85.15L5 11.8H3.35l.2-.35.05-.55zm1.7 2.45h.3q.75 0 .9.5v.2l-.05.3-.2.3q-.65.75-.8.2l-.15-.05-2.25-.15q.85.1.9-.65l-.1-.05 1.45-.1.05.45.2.35.45-.15.25-.5q.05-.25-.95-.45z"/></g></defs></svg>