<?xml version="1.0" encoding="UTF-8" standalone="no"?>
<svg xmlns:ffdec="https://www.free-decompiler.com/flash" xmlns:xlink="http://www.w3.org/1999/xlink" ffdec:objectType="frame" height="7.85px" width="10.4px" xmlns="http://www.w3.org/2000/svg">
  <g transform="matrix(1.0, 0.0, 0.0, 1.0, 1.55, -0.55)">
    <use ffdec:characterId="1" height="7.85" transform="matrix(1.0, 0.0, 0.0, 1.0, -1.55, 0.55)" width="10.4" xlink:href="#shape0"/>
  </g>
  <defs>
    <g id="shape0" transform="matrix(1.0, 0.0, 0.0, 1.0, 1.55, -0.55)">
      <path d="M8.35 0.85 Q9.0 2.9 8.55 5.15 L8.45 5.5 Q8.25 6.4 7.5 6.75 L4.95 7.15 4.2 7.7 2.05 8.25 1.8 8.25 Q-0.95 8.2 -1.45 6.45 L-1.55 5.85 Q-1.6 4.65 -1.05 3.95 -0.65 3.45 0.2 3.25 L1.85 3.0 3.15 2.55 3.3 2.35 3.2 1.3 Q3.4 1.0 4.35 0.85 L6.15 0.55 8.35 0.85" fill="#71548a" fill-rule="evenodd" stroke="none"/>
      <path d="M5.2 7.2 L4.9 7.2 4.8 7.3 4.1 7.75 2.45 8.3 0.0 8.15 Q-1.4 7.7 -1.45 6.3 -0.7 6.95 1.35 7.3 3.15 7.55 4.8 6.5 L5.2 6.2 5.2 7.2" fill="#333333" fill-rule="evenodd" stroke="none"/>
      <path d="M3.3 2.5 L4.8 2.45 4.85 2.45 Q5.65 2.7 6.3 3.4 L6.35 3.45 6.2 3.85 5.2 4.55 4.8 4.7 2.45 5.1 0.4 4.25 Q-0.4 3.8 -0.95 3.9 -0.2 3.35 0.35 3.25 L3.15 2.55 3.25 2.6 3.3 2.5" fill="#ffffff" fill-opacity="0.29803923" fill-rule="evenodd" stroke="none"/>
      <path d="M5.2 6.2 L5.4 6.2 7.05 6.05 8.55 5.4 8.6 5.35 8.6 5.4 8.5 5.7 Q8.25 6.55 7.45 6.85 L5.4 7.2 5.2 7.2 5.2 6.2" fill="#000000" fill-rule="evenodd" stroke="none"/>
      <path d="M3.3 2.5 L3.25 1.3 Q3.45 1.05 4.45 0.85 L6.35 0.7 6.45 2.6 6.35 3.4 6.35 3.45 6.3 3.4 Q5.65 2.7 4.85 2.45 L4.8 2.45 3.3 2.5" fill="#000000" fill-opacity="0.2" fill-rule="evenodd" stroke="none"/>
      <path d="M0.4 4.25 L0.2 4.65 -0.2 4.8 -0.65 4.65 -0.8 4.25 -0.65 3.85 -0.2 3.7 0.2 3.85 0.4 4.25 M1.1 4.35 L1.35 4.45 1.5 4.75 1.35 5.05 1.1 5.15 0.8 5.05 0.7 4.75 0.8 4.45 1.1 4.35" fill="#ffffff" fill-opacity="0.49803922" fill-rule="evenodd" stroke="none"/>
      <path d="M0.7 3.4 Q2.15 3.35 3.2 4.35 4.2 5.35 4.25 6.75 L4.2 6.85 4.1 6.9 4.0 6.85 4.0 6.75 Q4.0 5.45 3.05 4.55 2.05 3.65 0.7 3.65 -0.25 3.6 -1.0 4.1 L-1.1 4.15 -1.2 4.1 -1.2 4.0 -1.15 3.9 Q-0.35 3.4 0.7 3.4 M5.35 6.15 L5.35 6.05 Q6.05 4.55 6.55 4.3 7.0 3.95 7.7 3.75 L8.75 3.65 8.8 3.7 8.85 3.8 8.75 3.85 8.7 3.9 7.75 4.0 Q7.1 4.15 6.7 4.5 L6.65 4.5 Q6.25 4.75 5.6 6.15 L5.5 6.25 5.4 6.25 5.35 6.15 M8.5 1.75 L8.4 1.8 6.25 1.65 6.2 1.65 5.8 1.65 3.35 2.05 3.25 2.0 3.2 1.95 3.2 1.85 3.3 1.8 5.8 1.4 6.2 1.4 6.25 1.4 8.45 1.55 8.5 1.6 8.55 1.7 8.5 1.75" fill="#4b1c58" fill-rule="evenodd" stroke="none"/>
    </g>
  </defs>
</svg>
