<svg xmlns="http://www.w3.org/2000/svg" xmlns:ffdec="https://www.free-decompiler.com/flash" xmlns:xlink="http://www.w3.org/1999/xlink" ffdec:objectType="frame" width="6.65" height="14.55"><use ffdec:characterId="1" xlink:href="#a" width="6.65" height="14.55"/><defs><g id="a"><path fill="#71548a" fill-rule="evenodd" d="M1.6 4.3.5 1.1 3.25.6 6.1.35l.3 10.05q.4.7.15 1.65l-1.5 1.15q-.4.75-2 1.15l-2.3.05-.5-.8q-.3-.75-.25-1.2l1.45-.75L2.7 10.5l-.05-2.65z"/><path fill="#fff" fill-opacity=".302" fill-rule="evenodd" d="M3.25.6 6.1.35l.3 10.05v.05l-.3.25-1.3.05-.2-.15h-.4l-1.45-.2-.05.1-.05-2.65L1.6 4.3.5 1.1z"/><path fill="#4c295d" fill-rule="evenodd" d="M4.7.25 6 .2l.3 5.65.1 4.55-.3.3-1.3.05-.2-.15-.35-4.85L3.7.85z"/><path fill="#fff" fill-opacity=".502" fill-rule="evenodd" d="m2.7 13.45-2.1.2q-.35-.35-.2-.7l3.7-.1z"/><path fill-rule="evenodd" d="M2.5 10.65v-.45l4-.15-.05.15.05.35q-.3.4-2.05.4z"/><path fill="none" stroke="#000" stroke-linejoin="miter-clip" stroke-miterlimit="10" stroke-width=".25" d="m1.05 2.55 1.5.1 1.55-.2"/><path fill="#777177" fill-rule="evenodd" d="m1.3 2.55-.25.25Q.8 2.8.8 2.55l.25-.25z"/><path fill="none" stroke="#000" stroke-linejoin="miter-clip" stroke-miterlimit="10" stroke-width=".25" d="m1.3 2.55-.25.25Q.8 2.8.8 2.55l.25-.25z"/><path fill="#777177" fill-rule="evenodd" d="m4.2 2.45-.25.25q-.25 0-.25-.25l.25-.25z"/><path fill="none" stroke="#000" stroke-linejoin="miter-clip" stroke-miterlimit="10" stroke-width=".25" d="m4.2 2.45-.25.25q-.25 0-.25-.25l.25-.25zM1.75 4.65l1.15.05 1.25-.2M2.4 6.75q1.45.2 1.95 0M2.7 8.6l.9.25.9-.05"/><path fill="#777177" fill-rule="evenodd" d="m2 4.6-.25.25q-.25 0-.25-.25l.25-.25z"/><path fill="none" stroke="#000" stroke-linejoin="miter-clip" stroke-miterlimit="10" stroke-width=".25" d="m2 4.6-.25.25q-.25 0-.25-.25l.25-.25z"/><path fill="#777177" fill-rule="evenodd" d="m4.6 4.35-.25.25q-.25 0-.25-.25l.25-.25z"/><path fill="none" stroke="#000" stroke-linejoin="miter-clip" stroke-miterlimit="10" stroke-width=".25" d="m4.6 4.35-.25.25q-.25 0-.25-.25l.25-.25z"/><path fill="#777177" fill-rule="evenodd" d="M4.6 6.75 4.35 7l-.25-.25q0-.25.25-.25z"/><path fill="none" stroke="#000" stroke-linejoin="miter-clip" stroke-miterlimit="10" stroke-width=".25" d="M4.6 6.75 4.35 7l-.25-.25q0-.25.25-.25z"/><path fill="#777177" fill-rule="evenodd" d="m4.75 8.8-.25.25-.25-.25q0-.25.25-.25z"/><path fill="none" stroke="#000" stroke-linejoin="miter-clip" stroke-miterlimit="10" stroke-width=".25" d="m4.75 8.8-.25.25-.25-.25q0-.25.25-.25z"/><path fill="#777177" fill-rule="evenodd" d="M2.95 8.75 2.7 9l-.25-.25q0-.25.25-.25z"/><path fill="none" stroke="#000" stroke-linejoin="miter-clip" stroke-miterlimit="10" stroke-width=".25" d="M2.95 8.75 2.7 9l-.25-.25q0-.25.25-.25z"/><path fill="#777177" fill-rule="evenodd" d="M2.65 6.75 2.4 7l-.25-.25q0-.25.25-.25z"/><path fill="none" stroke="#000" stroke-linejoin="miter-clip" stroke-miterlimit="10" stroke-width=".25" d="M2.65 6.75 2.4 7l-.25-.25q0-.25.25-.25z"/></g></defs></svg>