<svg xmlns="http://www.w3.org/2000/svg" xmlns:ffdec="https://www.free-decompiler.com/flash" xmlns:xlink="http://www.w3.org/1999/xlink" ffdec:objectType="frame" width="7.55" height="19.9"><use ffdec:characterId="1" xlink:href="#a" width="7.55" height="19.9"/><defs><g id="a" fill-rule="evenodd"><path fill="#e5e5e5" d="m3.3.55 2.9-.3.55-.25.55 10q.2 4.3-.25 5.8-.75 1-2.1 1.75-3.2 1.3-2.9-.25.25-1.35 1.55-2.15.25-.9.1-2.15-.05-1.45-.5-2.5Q1.2 4.75 0 .25z"/><path fill="#a6acb4" d="m5.5 6.05-.7-3.1Q4.5 1.4 3.75.55L6.2.25 6.75 0l.55 10q.2 4.3-.25 5.8-.75 1-2.1 1.75-3.2 1.3-2.9-.25.15-.75.65-1.35 1.8 1.1 2.7-1.1.85-2.2.6-4.95z"/><path fill="#fff" fill-opacity=".988" d="M5.9 15v-.05zm-2.85.25 1.85.05.1.05v-.05h.3l.05.1q0 .75-.6 1.55l-.5.95v.35l.05.6-.95.3-2.85-.1.05-.7q.1-1.05 1.05-1.6l1.05-.8.05-.15.15-.25.1-.15zm4.4 1.45-1 .9-.2.15-.05.1-.3.2-.05.05.35-.25-.9.6q-.15-.15-.15-.85 0-.9.35-1.15l.05-.1L7.5 15.1z"/><path fill="#f06" d="M4.85 13.8v-.1zm1.05 1.15V15h.05l-.1.4-.1.25v.05l.9-.45.9-.65-.05.5-1.95 1.25-.05.1q-.35.25-.35 1.15 0 .7.15.85l.9-.6-.35.25.05-.05.3-.2.05-.1.2-.15 1-.9-.1.75-.55.5-.95.75-.65.45q-.95.6-2.4.7L.85 19.7l-.35-.65 2.85.1.95-.3-.05-.6v-.35l.5-.95q.6-.8.6-1.55l-.05-.1H5v.05l-.1-.05-1.85-.05v-.05l.2-.4.15-.05 2.05.1.05-.05.15.05h.2z"/><path fill="#db1c5c" fill-opacity=".271" d="m6.45 15.35.85-.55.15-.15.1.25-.15 2.4v.1l-.6.55-.95.75-.65.45-2 .7h-.4l-.4.05h-.35l-.75-.1-.05-.1-.2-.25v-.95q.05-.3.4-.3l.45.1.7.05L4.4 18 6 16.9l.4-1.15z"/></g></defs></svg>