<svg xmlns="http://www.w3.org/2000/svg" xmlns:ffdec="https://www.free-decompiler.com/flash" xmlns:xlink="http://www.w3.org/1999/xlink" ffdec:objectType="frame" width="7.75" height="11.25"><use ffdec:characterId="1" xlink:href="#a" width="7.75" height="11.25"/><defs><g id="a" fill-rule="evenodd"><path fill="#313131" d="M4.9 9.55q.3-.35.55-.35.3 0 .55.9l-.3.3-1.1-.4z"/><path d="M7.15 7.8 7 9.35l-.35.35-.85.7h-.1q0-3.05.1-2.5.05.55.6.3z"/><path fill="#fff" d="m2.65 10.55-.5.05-1.25-.2q-.15-.2.05-.3l.75-.1h.15l1.5.35z"/><path fill="#878787" d="m.05 10.4.35-.2.9-.7q.5-.5 1.05-.65l.25-.1q.4 0 1.1.45l1.15.85v.05l-.4.1q-.15.05-.15.2l-.35.4-.25.2.05-.45-2.2.2zm2.6.15.7-.2-1.5-.35H1.7l-.75.1q-.2.1-.05.3l1.25.2z"/><path fill="#545454" d="m3.7 11-.1.1-.15.05-.35.1q-2.95.1-3.1-.7l.05-.15 1.5.35 2.2-.2z"/><path fill="#1c1c1c" d="m2.75 3.4-.6-1.8h.05L1.85.75V.4h.3Q2.4.7 4.4.7L6.6.35 7.55 0l.15.35-.2 1.3V2h.1l-.1.05v.4l-.1.35-.1.9-.1 3.7v.15l-.05.55-.65.85-1.25.95q-.55.35-.95.65l-.35.25.05-.45-.4-.75q1.75-.3 2.6-1.7l.1-1.35-.25-1.25q.25.55-.1-1l-.4-.5v-.05l-.05.05-.5-.05H3.4q-.5 0-.65-.35m.55 3.1v-.45l.05.05.25.2q.3.25.6.3l.5.2-.1.05-.75-.1h-.1l-.3-.05-.1.05zm1.75.9-.95.3-.55-.45-.05-.2q1.35.55 1.9 0z"/><path fill="#383838" d="M2.75 3.4q.15.35.65.35H5l.5.05.05-.05v.05l.4.5q.35 1.55.1 1l.25 1.25-.1 1.35q-.85 1.4-2.6 1.7l-.2-.2-1.8-.1q-.25-.2.7-.9l.05-.05.6-.5.3-.65v-.15l-.05-.2.1-.25v-.1l.05.25.1-.05.3.05h.1l.75.1.1-.05-.5-.2q-.3-.05-.6-.3l-.25-.2-.05-.05-.1-.2.05-.2V5.5l.05-.05v-.4l-.15-.5-.05-.15-.05-.1-.1-.25zm2.3 4 .35-.35q-.55.55-1.9 0l.05.2.55.45z"/><path d="m3.6 3.2-.3-.1q-.9-.25-1.05-.45l-.15-.7-.2-.6q.3.35 1.4.45l.65.1h.7l1.55-.3.85-.15.6-.2.05.05.05 1.1q.2.25-1.65.6l-.1.05q0-.6.3-1.3l-2.95.35zm.15 1.65-.2-.05-.65-.2-.5-1.25.05-.15.25.1.85.2h.1l.5.05h.65l.7-.1.45-.05.9-.2.75-.3.05.1-.1 1.15q.3.2-1.4.5l-.2.1v-1.2l-2.3.1z"/><path fill="#151515" d="m3.6 3.2-.25-1.1 2.95-.35q-.3.7-.3 1.3zm2.35 1.55-2.2.1-.1-1.2 2.3-.1z"/><path fill="#fff" d="m5.15 1.75.2.1.05.15-.8.1v.45l.05.3q0 .15.45.15l.4-.05-.1.2-.75.15q-.3-.4-.3-.95l.05-.5zm.5 1.95-.85.1v.45l.05.3.45.15.4-.05-.05.2-.8.15q-.3-.4-.3-.95l.05-.5.95-.1z"/><path fill="#b8b8b8" d="m5.4 2-.05-.15-.2-.1.7-.1q.25 0 .3 1.15 0 .25-.7.35H5.4l.1-.2.4-.15-.1-.85zm.3 2.65.4-.15-.1-.85-.35.05-.1-.25.5-.1q.25 0 .3 1.15 0 .25-.7.35z"/></g></defs></svg>