<?xml version="1.0" encoding="UTF-8" standalone="no"?>
<svg xmlns:ffdec="https://www.free-decompiler.com/flash" xmlns:xlink="http://www.w3.org/1999/xlink" ffdec:objectType="frame" height="15.55px" width="9.65px" xmlns="http://www.w3.org/2000/svg">
  <g transform="matrix(1.0, 0.0, 0.0, 1.0, 0.75, 6.15)">
    <use ffdec:characterId="1" height="15.55" transform="matrix(1.0, 0.0, 0.0, 1.0, -0.75, -6.15)" width="9.65" xlink:href="#shape0"/>
  </g>
  <defs>
    <g id="shape0" transform="matrix(1.0, 0.0, 0.0, 1.0, 0.75, 6.15)">
      <path d="M4.85 7.75 Q4.95 7.65 5.0 7.65 L5.25 7.8 5.35 7.75 5.3 7.55 5.85 6.95 6.15 7.3 5.9 7.8 6.05 8.15 5.9 8.55 5.2 8.2 4.9 7.95 4.85 7.75" fill="#833838" fill-rule="evenodd" stroke="none"/>
      <path d="M8.05 5.35 L7.95 6.1 7.85 7.15 7.8 7.3 7.4 7.55 6.45 8.1 5.9 8.5 5.8 8.1 5.8 7.15 Q5.8 6.6 6.05 6.4 L6.7 5.75 Q7.3 5.3 7.95 5.3 L8.05 5.35" fill="#000000" fill-rule="evenodd" stroke="none"/>
      <path d="M2.85 -0.95 L5.3 -0.55 Q7.2 -0.55 8.2 -1.55 L7.95 3.35 Q8.25 4.4 8.15 5.7 L5.2 7.85 Q3.85 8.95 3.05 8.95 2.6 8.95 2.5 8.55 L2.4 7.95 Q2.1 7.4 1.45 7.3 L0.95 6.9 2.3 5.4 Q3.65 3.95 3.65 2.85 3.65 1.0 3.05 -0.75 L2.9 -0.8 2.85 -0.95" fill="url(#gradient0)" fill-rule="evenodd" stroke="none"/>
      <path d="M5.55 7.6 L5.2 7.85 Q3.85 8.95 3.05 8.95 2.6 8.95 2.5 8.55 L2.4 7.95 Q2.1 7.4 1.45 7.3 L0.95 6.9 2.3 5.4 Q3.65 3.95 3.65 2.85 3.65 1.0 3.05 -0.75 L2.9 -0.8 2.85 -0.95 5.3 -0.55 Q7.2 -0.55 8.2 -1.55 L7.95 3.35 Q8.25 4.4 8.15 5.7 L7.85 5.9 7.8 4.85 Q7.55 3.25 7.85 1.5 7.95 0.8 7.65 0.5 L6.15 2.0 Q6.8 4.1 5.6 5.5 L4.95 6.25 5.55 7.6" fill="url(#gradient1)" fill-rule="evenodd" stroke="none"/>
      <path d="M7.85 5.9 L5.55 7.6 4.95 6.25 5.6 5.5 Q6.8 4.1 6.15 2.0 L7.65 0.5 Q7.95 0.8 7.85 1.5 7.55 3.25 7.8 4.85 L7.85 5.9" fill="#310000" fill-opacity="0.41960785" fill-rule="evenodd" stroke="none"/>
      <path d="M7.25 1.8 L7.2 1.8 7.0 1.95 6.95 1.65 7.2 1.65 7.25 1.75 7.25 1.8 M5.45 6.6 L5.55 6.75 5.5 6.75 5.45 6.6 M7.7 4.95 L7.7 3.95 7.85 4.35 7.7 4.95" fill="#ffb600" fill-opacity="0.9529412" fill-rule="evenodd" stroke="none"/>
      <path d="M7.0 1.95 L7.2 1.8 7.25 1.8 7.1 3.1 6.95 4.2 Q6.95 4.75 7.3 4.75 7.6 4.75 7.6 4.35 L7.5 4.15 7.2 4.4 7.05 4.2 Q7.05 3.9 7.4 3.9 L7.7 3.95 7.7 4.95 7.35 5.05 7.25 5.05 7.3 5.5 7.3 5.6 7.3 5.65 7.2 5.85 6.95 6.1 6.95 6.05 6.85 6.1 5.8 6.2 5.6 6.7 5.55 6.75 5.45 6.6 5.4 6.5 Q5.4 5.8 6.7 5.9 L6.95 5.85 7.05 5.7 7.05 5.5 7.1 5.3 7.05 5.05 6.85 4.85 6.65 4.9 6.55 4.95 6.55 5.0 6.5 5.15 6.5 5.25 6.45 5.35 6.85 5.35 6.9 5.45 6.85 5.6 6.65 5.65 6.5 5.65 6.2 5.45 6.2 5.25 Q6.2 4.7 6.75 4.65 L6.7 4.25 6.9 3.0 7.0 1.95" fill="#d27e00" fill-rule="evenodd" stroke="none"/>
      <path d="M5.2 5.7 L5.15 5.9 4.95 6.15 4.95 6.5 4.4 6.85 3.0 7.75 Q0.75 9.35 -0.45 7.95 L-0.45 7.55 0.5 6.65 2.85 5.35 3.4 4.85 3.15 4.8 2.95 4.85 2.95 5.05 2.85 5.1 2.8 4.95 3.25 4.55 Q4.1 4.6 5.1 5.6 L5.2 5.7" fill="#ffffff" fill-rule="evenodd" stroke="none"/>
      <path d="M-0.45 7.55 L-0.45 7.95 Q0.75 9.35 3.0 7.75 L4.4 6.85 4.95 6.5 4.95 6.15 5.15 5.9 5.2 5.7 6.0 6.95 4.4 8.2 Q3.55 8.85 2.75 9.05 0.2 9.35 -0.75 7.9 L-0.45 7.55 M3.25 4.55 L2.8 4.95 2.85 5.1 2.95 5.05 2.95 4.85 3.15 4.8 3.4 4.85 2.85 5.35 0.5 6.65 0.9 6.3 2.1 5.3 2.4 5.1 2.75 4.9 2.75 4.85 Q2.75 4.55 3.15 4.55 L3.25 4.55" fill="#ffcdcd" fill-rule="evenodd" stroke="none"/>
      <path d="M-0.75 7.9 Q0.2 9.35 2.75 9.05 3.55 8.85 4.4 8.2 L6.0 6.95 6.05 6.9 6.05 7.05 6.05 7.25 6.05 7.3 6.0 7.3 5.85 7.45 5.75 7.6 5.0 8.25 3.65 9.05 2.9 9.35 1.05 9.2 1.2 9.2 Q0.4 9.1 -0.1 8.65 L-0.75 7.9" fill="#000000" fill-rule="evenodd" stroke="none"/>
      <path d="M3.25 4.75 L2.95 5.4 2.75 5.35 2.85 5.35 2.8 5.35 3.2 4.75 3.25 4.75 M3.8 5.9 L4.45 5.4 4.85 5.8 5.0 6.0 4.5 6.65 3.8 5.9" fill="#ffb90b" fill-rule="evenodd" stroke="none"/>
      <path d="M5.0 6.0 L5.25 6.3 5.9 7.45 5.0 8.25 Q5.25 7.65 4.5 6.65 L5.0 6.0 M3.2 4.75 L2.8 5.35 2.1 5.3 Q2.75 4.8 3.15 4.75 L3.2 4.75" fill="#d27e00" fill-rule="evenodd" stroke="none"/>
      <path d="M3.25 4.75 L3.4 4.8 3.45 4.8 Q3.85 4.9 4.45 5.4 L3.8 5.9 3.55 5.65 3.1 5.35 3.05 5.4 2.95 5.4 3.25 4.75" fill="#ffde8e" fill-rule="evenodd" stroke="none"/>
      <path d="M1.05 -3.45 Q1.35 -3.2 1.75 -2.9 L1.8 -2.85 2.5 -2.45 Q3.25 -2.0 5.35 -1.75 L6.1 -1.7 Q6.9 -0.55 6.65 1.0 L6.5 1.6 6.05 2.3 5.95 2.45 4.4 2.4 4.2 2.3 3.9 2.05 3.85 1.95 3.35 1.05 3.1 0.05 2.5 -1.9 2.35 -2.15 2.3 -2.2 1.4 -2.55 1.0 -3.2 1.05 -3.45 M8.3 -3.45 L8.4 -3.55 8.55 -3.5 Q8.65 -3.35 7.9 -2.7 7.1 -2.1 5.4 -2.1 3.65 -2.15 3.15 -2.7 L4.05 -2.45 5.35 -2.35 5.5 -2.35 7.3 -2.75 7.4 -2.75 7.55 -2.8 7.55 -2.9 8.2 -3.35 8.3 -3.45" fill="#ffffff" fill-rule="evenodd" stroke="none"/>
      <path d="M2.6 -3.85 L2.55 -3.8 1.5 -3.35 Q1.5 -3.05 1.9 -2.9 L3.0 -2.6 3.05 -2.6 3.05 -2.65 3.05 -2.7 3.15 -2.7 Q3.65 -2.15 5.4 -2.1 7.1 -2.1 7.9 -2.7 8.65 -3.35 8.55 -3.5 L8.4 -3.55 8.3 -3.45 8.3 -3.5 8.0 -4.0 7.55 -4.25 7.35 -4.35 Q9.35 -4.05 8.8 -3.15 8.15 -2.25 8.2 0.35 L8.2 0.5 8.2 1.6 7.25 2.25 5.85 2.6 5.4 2.6 3.65 2.25 3.5 2.15 3.15 1.8 3.05 1.65 3.0 1.55 2.95 1.4 2.9 0.7 2.8 0.05 Q2.6 -1.05 1.9 -1.9 L1.4 -2.55 2.3 -2.2 2.35 -2.15 2.5 -1.9 3.1 0.05 3.35 1.05 3.85 1.95 3.9 2.05 4.2 2.3 4.4 2.4 5.95 2.45 6.05 2.3 6.5 1.6 6.65 1.0 Q6.9 -0.55 6.1 -1.7 L5.35 -1.75 Q3.25 -2.0 2.5 -2.45 L1.8 -2.85 1.75 -2.9 Q1.35 -3.2 1.05 -3.45 L1.55 -3.75 1.6 -3.8 2.1 -3.95 2.25 -4.0 2.3 -4.05 2.5 -4.05 2.55 -4.05 2.65 -3.95 2.6 -3.85 M2.95 -2.6 L2.85 -2.6 2.85 -2.55 2.95 -2.6" fill="#ffcdcd" fill-rule="evenodd" stroke="none"/>
      <path d="M3.0 -2.6 L1.9 -2.9 Q1.5 -3.05 1.5 -3.35 L2.55 -3.8 2.6 -3.85 3.0 -2.6 3.05 -2.65 3.05 -2.6 3.0 -2.6 M2.55 -4.05 L2.5 -4.05 2.4 -4.25 2.55 -4.05 M7.55 -4.25 L8.0 -4.0 8.3 -3.5 8.3 -3.45 8.2 -3.35 7.55 -2.9 7.55 -3.5 7.5 -3.6 7.5 -4.0 7.45 -4.2 7.5 -4.25 7.55 -4.25" fill="#c28a8a" fill-rule="evenodd" stroke="none"/>
      <path d="M7.8 1.6 L7.95 0.6 Q8.2 0.4 8.2 0.5 L8.2 1.05 7.9 1.5 7.8 1.6 M6.45 1.4 L6.15 2.3 5.8 2.35 5.4 2.35 4.05 2.15 3.05 1.65 3.0 1.55 2.95 1.4 2.9 0.7 4.0 1.3 5.9 1.5 6.2 1.45 6.45 1.4" fill="#ffb90b" fill-rule="evenodd" stroke="none"/>
      <path d="M7.95 0.6 L7.8 1.6 6.8 2.1 6.2 2.25 6.15 2.3 6.45 1.4 7.25 1.1 7.9 0.65 7.95 0.6" fill="#d27e00" fill-rule="evenodd" stroke="none"/>
      <path d="M0.65 6.3 L0.6 6.3 0.5 6.2 0.5 6.15 0.55 6.1 0.65 6.3 M1.4 5.9 L1.7 5.75 1.75 5.8 1.7 5.8 1.65 5.95 1.45 6.0 1.45 5.9 1.4 5.9 M2.3 5.6 L2.3 5.55 2.35 5.55 2.4 5.5 2.55 5.55 2.55 5.6 2.5 5.6 2.25 5.75 2.3 5.65 2.3 5.6 M3.0 5.95 L3.05 6.1 2.9 6.15 2.9 6.05 2.85 6.05 2.75 5.85 2.75 5.75 2.9 5.75 3.0 5.75 2.95 5.8 3.0 5.85 3.0 5.95 M2.95 6.95 L2.95 7.0 2.85 7.0 2.8 7.0 2.8 6.95 2.95 6.95 M2.8 7.9 L2.7 7.95 2.55 7.9 2.6 7.85 2.8 7.9" fill="#e20a0a" fill-rule="evenodd" stroke="none"/>
      <path d="M0.55 6.1 L0.65 6.05 0.65 6.1 0.7 6.1 0.7 6.15 0.75 6.25 0.8 6.25 0.65 6.3 0.55 6.1 M2.25 5.6 L2.3 5.6 2.3 5.65 2.25 5.6 M1.65 5.95 L1.7 5.8 1.75 5.8 1.7 5.75 1.85 5.8 1.9 5.75 1.8 5.85 1.65 5.95 M3.05 6.1 L3.0 6.15 2.95 6.15 2.9 6.15 3.05 6.1 M2.95 6.75 L2.95 6.95 2.8 6.95 2.8 6.7 2.8 6.65 2.85 6.7 2.95 6.75 M2.75 7.8 L2.8 7.9 2.6 7.85 2.6 7.8 2.7 7.8 2.75 7.8" fill="#5b0000" fill-rule="evenodd" stroke="none"/>
      <path d="M2.35 4.3 L2.45 4.5 2.5 4.7 2.45 4.7 2.4 4.75 2.35 4.9 1.95 4.95 2.05 4.9 2.2 4.8 2.35 4.65 2.35 4.45 2.35 4.3 M2.9 4.15 L2.9 3.75 2.95 3.75 3.05 3.85 3.0 3.95 2.9 4.1 2.9 4.15 M1.65 5.15 L1.95 5.3 2.25 5.6 2.3 5.65 2.25 5.75 2.15 5.6 1.65 5.15 M1.8 5.85 L1.9 5.75 2.25 5.8 2.15 6.1 1.9 6.5 2.2 5.85 1.75 5.95 1.8 5.85 M2.55 5.6 L2.55 5.55 2.65 5.45 2.75 5.4 2.7 5.6 2.75 5.65 2.8 5.65 2.75 5.75 2.6 5.65 2.55 5.6 M3.25 4.0 L3.5 3.95 3.85 4.05 4.25 4.35 3.4 4.05 3.25 4.0 M4.45 4.5 L4.45 4.65 4.3 4.7 4.4 5.05 4.45 5.15 4.45 5.3 4.4 5.35 4.3 4.9 4.25 4.9 4.15 4.85 4.05 4.75 4.25 4.65 4.45 4.5 M4.3 5.7 L4.25 5.8 4.2 5.9 3.95 5.9 3.9 6.05 3.85 6.1 3.8 5.75 3.9 5.65 4.2 5.7 4.3 5.7 M3.0 6.15 L3.25 6.2 3.5 6.55 2.95 6.15 3.0 6.15 M2.65 6.2 L2.7 6.1 2.85 6.55 2.85 6.6 2.9 6.65 2.85 6.7 2.8 6.65 2.8 6.7 Q2.65 6.6 2.65 6.2 M3.35 4.15 L3.3 4.05 3.4 4.05 3.35 4.15" fill="#e53a25" fill-rule="evenodd" stroke="none"/>
      <path d="M2.45 4.5 L2.35 4.3 2.4 4.15 2.4 4.0 2.5 3.95 Q2.7 3.6 2.9 3.75 L2.9 4.15 2.85 4.2 2.65 4.2 2.55 4.15 2.5 4.2 2.45 4.5 M1.95 4.95 L2.35 4.9 2.25 5.0 2.3 5.05 2.35 5.25 2.55 5.4 2.65 5.45 2.55 5.55 2.4 5.5 2.35 5.55 2.25 5.4 2.2 5.35 2.1 5.2 1.95 4.95 M1.7 5.75 L1.45 5.6 1.4 5.45 1.45 5.25 1.65 5.15 2.15 5.6 2.25 5.75 2.25 5.8 1.9 5.75 1.85 5.8 1.7 5.75 M1.9 6.5 L1.7 6.45 1.6 6.3 1.75 5.95 2.2 5.85 1.9 6.5 M4.25 4.35 L4.45 4.5 4.25 4.65 4.05 4.75 4.05 4.55 4.0 4.45 4.05 4.45 3.85 4.3 3.55 4.3 3.45 4.35 3.4 4.15 3.35 4.15 3.4 4.05 4.25 4.35 M4.4 5.35 L4.4 5.55 4.3 5.7 4.2 5.7 3.9 5.65 3.95 5.55 4.0 5.4 4.1 5.4 4.2 5.25 4.25 5.05 4.25 4.95 4.25 4.9 4.3 4.9 4.4 5.35 M3.85 6.1 L3.55 6.15 3.3 6.0 3.2 6.0 3.0 5.95 3.0 5.85 3.05 5.85 3.2 5.9 3.45 5.8 3.5 5.75 3.55 5.75 3.55 5.95 3.6 5.95 3.6 5.9 3.8 5.75 3.85 6.1 M3.5 6.55 L3.45 6.6 3.35 6.75 3.15 6.9 2.95 6.75 2.85 6.7 2.9 6.65 2.85 6.6 2.85 6.55 2.7 6.1 2.85 6.1 2.85 6.05 2.9 6.05 2.9 6.15 2.95 6.15 3.5 6.55 M2.8 6.7 L2.6 6.8 2.3 6.75 2.25 6.6 2.3 6.4 2.6 6.2 2.65 6.2 Q2.65 6.6 2.8 6.7" fill="#ff8474" fill-rule="evenodd" stroke="none"/>
      <path d="M0.65 6.05 L0.65 5.85 0.95 5.75 1.3 5.7 1.4 5.9 1.45 5.9 1.45 6.0 1.45 6.2 1.25 6.45 1.35 6.2 1.4 6.05 1.35 6.0 1.25 6.05 1.15 6.0 1.1 6.15 1.0 6.15 1.1 5.85 0.9 5.85 0.8 5.9 0.75 5.9 0.7 6.1 0.65 6.1 0.65 6.05 M0.7 6.15 L0.8 6.25 0.75 6.25 0.7 6.15" fill="#63fcf7" fill-rule="evenodd" stroke="none"/>
      <path d="M1.35 6.2 L1.2 6.25 1.1 6.15 1.15 6.0 1.25 6.05 1.35 6.0 1.4 6.05 1.35 6.2 M2.6 7.15 L2.7 7.2 2.75 7.15 2.85 7.3 2.85 7.35 2.65 7.45 2.5 7.25 2.6 7.15" fill="#fdfaff" fill-rule="evenodd" stroke="none"/>
      <path d="M0.7 6.15 L0.7 6.1 0.75 5.9 0.8 5.9 0.9 6.0 0.95 6.2 1.0 6.15 1.1 6.15 1.2 6.25 1.35 6.2 1.25 6.45 1.15 6.4 0.95 6.45 0.9 6.4 0.9 6.35 0.8 6.25 0.7 6.15" fill="#1c90ad" fill-rule="evenodd" stroke="none"/>
      <path d="M2.95 7.0 L3.1 7.15 3.2 7.5 3.1 7.75 2.75 7.8 2.7 7.8 2.6 7.8 2.5 7.7 2.75 7.75 3.0 7.7 3.0 7.65 3.05 7.55 3.0 7.5 3.05 7.4 2.7 7.55 2.65 7.45 2.85 7.35 2.85 7.3 2.75 7.15 2.7 7.2 2.6 7.15 Q2.5 7.15 2.45 7.25 L2.55 7.1 Q2.65 7.0 2.7 7.05 L2.7 7.0 2.8 7.0 2.85 7.0 2.95 7.0" fill="#db63fc" fill-rule="evenodd" stroke="none"/>
      <path d="M2.7 7.55 L3.05 7.4 3.0 7.5 3.05 7.55 3.0 7.65 2.85 7.55 2.7 7.55" fill="#581b69" fill-rule="evenodd" stroke="none"/>
      <path d="M2.5 7.7 L2.45 7.7 2.4 7.55 2.4 7.4 2.4 7.35 2.45 7.25 Q2.5 7.15 2.6 7.15 L2.5 7.25 2.65 7.45 2.7 7.55 2.85 7.55 3.0 7.65 3.0 7.7 2.75 7.75 2.5 7.7" fill="#991dbb" fill-rule="evenodd" stroke="none"/>
      <path d="M1.0 6.15 L0.95 6.2 0.9 6.0 0.8 5.9 0.9 5.85 1.1 5.85 1.0 6.15" fill="#035774" fill-rule="evenodd" stroke="none"/>
      <path d="M2.45 4.5 L2.5 4.2 2.55 4.15 2.6 4.55 2.6 4.65 2.55 4.75 2.6 4.75 2.5 4.8 2.4 4.95 2.4 5.0 2.35 5.05 2.35 5.1 2.4 5.25 2.45 5.25 2.6 5.3 2.7 5.35 2.8 5.35 2.9 5.35 2.8 5.55 2.9 5.75 2.75 5.75 2.8 5.65 2.75 5.65 2.7 5.6 2.75 5.4 2.65 5.45 2.55 5.4 2.35 5.25 2.3 5.05 2.25 5.0 2.35 4.9 2.4 4.75 2.45 4.7 2.5 4.7 2.45 4.5 M3.7 5.7 L3.75 5.65 3.85 5.55 3.75 5.3 3.8 5.35 4.2 5.25 4.1 5.4 4.0 5.4 3.95 5.55 3.9 5.65 3.8 5.75 3.6 5.9 3.6 5.95 3.55 5.95 3.55 5.75 3.5 5.75 3.45 5.8 3.2 5.9 3.05 5.85 3.0 5.85 2.95 5.8 3.05 5.8 3.2 5.75 3.3 5.75 3.45 5.55 3.65 5.85 3.7 5.7" fill="#f5e153" fill-rule="evenodd" stroke="none"/>
      <path d="M2.55 4.15 L2.65 4.2 2.9 4.3 3.0 4.35 3.0 4.4 2.95 4.5 2.85 4.45 2.75 4.55 2.8 4.9 2.7 4.9 2.75 4.75 2.7 4.5 2.65 4.45 2.6 4.55 2.55 4.15 M2.55 4.8 L2.5 4.8 2.6 4.75 2.55 4.8 M2.5 5.05 L2.55 5.05 2.6 5.05 2.55 5.1 2.5 5.05 M4.0 4.45 L4.05 4.55 3.95 4.75 3.95 4.8 3.95 4.9 4.0 4.85 4.25 5.05 4.2 5.25 3.8 5.35 3.75 5.3 3.85 5.55 3.75 5.65 3.7 5.7 3.65 5.65 3.75 5.55 3.55 5.2 3.75 5.2 3.75 5.15 3.85 5.1 4.0 5.1 3.9 5.0 3.8 4.95 3.8 4.75 3.8 4.7 3.85 4.55 4.0 4.55 3.95 4.45 3.8 4.4 4.0 4.45 M2.95 4.25 L3.1 4.05 3.1 4.0 3.2 4.1 3.15 4.1 3.05 4.2 3.05 4.25 3.0 4.35 2.95 4.25 M3.0 4.55 L3.05 4.6 3.1 4.7 3.0 4.55 M3.2 4.15 L3.35 4.25 3.45 4.35 3.55 4.45 3.55 4.5 3.45 4.55 3.45 4.5 3.3 4.3 3.2 4.2 3.2 4.15 M3.25 4.55 L3.25 4.6 3.25 4.7 3.2 4.6 3.2 4.5 3.25 4.55 M3.25 4.75 L3.3 4.8 3.25 4.9 3.3 4.85 3.35 4.9 3.4 4.85 3.55 4.75 3.55 4.8 3.4 4.9 3.4 5.0 3.45 5.0 3.55 4.95 3.55 5.0 3.6 4.95 3.65 5.0 3.45 5.1 3.55 5.3 3.4 5.3 3.3 5.2 3.25 5.15 3.3 5.35 3.15 5.4 3.05 5.3 3.1 5.2 3.15 5.05 3.2 5.1 3.4 5.05 3.25 4.9 3.2 4.85 3.25 4.75 M3.55 5.4 L3.5 5.4 3.45 5.45 3.45 5.55 3.3 5.75 3.2 5.75 3.2 5.65 3.05 5.6 3.25 5.6 3.35 5.5 3.4 5.3 3.55 5.4 M2.95 4.9 L2.95 4.95 2.95 5.05 2.9 5.05 2.9 4.95 2.95 4.9 M3.1 5.05 L3.1 5.0 3.15 5.0 3.1 5.05 M3.15 4.9 L3.1 4.9 3.0 4.7 2.95 4.7 2.95 4.8 2.95 4.65 3.1 4.75 3.2 4.85 3.15 4.9 M3.1 4.65 L3.15 4.7 3.1 4.7 3.1 4.65 M2.95 5.5 L3.0 5.6 2.9 5.55 2.95 5.5" fill="#ffc431" fill-rule="evenodd" stroke="none"/>
      <path d="M2.55 4.8 L2.5 4.95 2.45 4.95 2.4 5.1 2.35 5.1 2.35 5.05 2.4 5.0 2.4 4.95 2.5 4.8 2.55 4.8 M2.45 5.1 L2.5 5.05 2.55 5.1 2.45 5.1 M2.75 4.75 L2.65 4.6 2.65 4.65 2.55 4.75 2.6 4.65 2.6 4.55 2.65 4.45 2.7 4.5 2.75 4.75 M3.8 4.4 L3.95 4.45 4.0 4.55 3.85 4.55 Q3.9 4.4 3.5 4.55 L3.45 4.6 3.45 4.55 3.55 4.5 3.55 4.45 3.75 4.35 3.8 4.4 M3.1 4.7 L3.05 4.6 3.1 4.6 3.1 4.65 3.1 4.7 M3.2 4.2 L3.15 4.15 3.2 4.1 3.2 4.15 3.2 4.2 M3.3 4.8 L3.35 4.8 3.4 4.75 3.4 4.85 3.35 4.9 3.3 4.85 3.25 4.9 3.3 4.8 M3.55 4.95 L3.45 5.0 3.4 5.0 3.4 4.9 3.55 4.8 3.5 4.95 3.55 4.95 M3.1 5.0 L3.15 4.95 3.15 5.0 3.1 5.0 M3.1 4.9 L3.0 4.75 3.0 4.7 3.1 4.9" fill="#fffd9a" fill-rule="evenodd" stroke="none"/>
      <path d="M2.65 4.2 L2.85 4.2 2.9 4.15 2.9 4.1 3.0 3.95 3.05 3.85 3.15 4.0 3.25 4.0 3.4 4.05 3.3 4.05 3.35 4.15 3.4 4.15 3.45 4.35 3.55 4.3 3.85 4.3 4.05 4.45 4.0 4.45 3.8 4.4 3.75 4.35 3.55 4.45 3.45 4.35 3.35 4.25 3.2 4.15 3.2 4.1 3.15 4.15 3.2 4.2 3.15 4.2 3.2 4.25 3.15 4.3 3.2 4.35 3.1 4.6 3.05 4.6 3.0 4.55 2.95 4.5 3.0 4.4 3.0 4.35 2.9 4.3 2.65 4.2 M2.4 5.1 L2.45 4.95 2.5 4.95 2.55 4.8 2.6 4.75 2.55 4.75 2.65 4.65 2.65 4.6 2.75 4.75 2.7 4.9 2.65 5.0 2.55 5.05 2.5 5.05 2.45 5.1 2.4 5.1 M2.95 4.25 L3.0 4.35 3.05 4.25 3.05 4.2 3.15 4.1 3.2 4.1 3.1 4.0 3.1 4.05 2.95 4.25 M3.25 4.7 L3.25 4.6 3.25 4.55 3.3 4.55 3.4 4.75 3.35 4.8 3.3 4.8 3.25 4.75 3.2 4.7 3.25 4.7 M3.55 4.8 L3.55 4.75 3.7 4.75 3.7 4.85 3.6 4.9 3.6 4.95 3.55 5.0 3.55 4.95 3.5 4.95 3.55 4.8 M2.95 5.05 L2.95 4.95 2.95 4.9 2.95 4.8 2.95 4.7 3.0 4.7 3.0 4.75 3.1 4.9 3.15 4.9 3.15 4.95 3.1 5.0 3.1 5.05 3.0 5.1 2.95 5.05" fill="#ffffff" fill-rule="evenodd" stroke="none"/>
      <path d="M2.35 5.1 L2.4 5.1 2.45 5.1 2.55 5.1 2.6 5.05 2.65 5.1 2.75 5.15 2.95 5.25 3.0 5.25 3.0 5.3 3.0 5.4 2.95 5.5 2.9 5.55 3.0 5.6 3.05 5.6 3.2 5.65 3.2 5.75 3.05 5.8 2.95 5.8 3.0 5.75 2.9 5.75 2.8 5.55 2.9 5.35 2.8 5.35 2.7 5.35 2.6 5.3 2.45 5.25 2.4 5.25 2.35 5.1 M3.65 5.65 L3.7 5.7 3.65 5.85 3.45 5.55 3.45 5.45 3.5 5.4 3.55 5.4 3.65 5.65" fill="#d06937" fill-rule="evenodd" stroke="none"/>
      <path d="M2.55 5.05 L2.65 5.0 2.7 4.9 2.8 4.9 2.75 4.55 2.85 4.45 2.95 4.5 3.0 4.55 3.1 4.7 3.15 4.7 3.1 4.65 3.1 4.6 3.2 4.35 3.15 4.3 3.2 4.25 3.15 4.2 3.2 4.2 3.3 4.3 3.45 4.5 3.45 4.55 3.45 4.6 3.5 4.55 Q3.9 4.4 3.85 4.55 L3.8 4.7 3.8 4.75 3.8 4.95 3.9 5.0 4.0 5.1 3.85 5.1 3.75 5.15 3.75 5.2 3.55 5.2 3.75 5.55 3.65 5.65 3.55 5.4 3.4 5.3 3.35 5.5 3.25 5.6 3.05 5.6 3.0 5.6 2.95 5.5 3.0 5.4 3.0 5.3 3.0 5.25 2.95 5.25 2.75 5.15 2.65 5.1 2.6 5.05 2.55 5.05 M4.05 4.55 L4.05 4.75 4.15 4.85 4.25 4.9 4.25 4.95 4.25 5.05 4.0 4.85 3.95 4.9 3.95 4.8 3.95 4.75 4.05 4.55 M3.25 4.55 L3.2 4.5 3.2 4.6 3.25 4.7 3.2 4.7 3.25 4.75 3.2 4.85 3.25 4.9 3.4 5.05 3.2 5.1 3.15 5.05 3.1 5.2 3.05 5.3 3.15 5.4 3.3 5.35 3.25 5.15 3.3 5.2 3.4 5.3 3.55 5.3 3.45 5.1 3.65 5.0 3.6 4.95 3.6 4.9 3.7 4.85 3.7 4.75 3.55 4.75 3.4 4.85 3.4 4.75 3.3 4.55 3.25 4.55 M2.95 4.9 L2.9 4.95 2.9 5.05 2.95 5.05 3.0 5.1 3.1 5.05 3.15 5.0 3.15 4.95 3.15 4.9 3.2 4.85 3.1 4.75 2.95 4.65 2.95 4.8 2.95 4.9" fill="#db5718" fill-rule="evenodd" stroke="none"/>
      <path d="M1.8 -2.2 Q2.1 -1.65 3.1 -1.15 4.05 -0.7 5.15 -0.5 L6.45 -1.0 6.95 -1.3 8.3 -2.35 8.8 -2.8 8.75 -2.35 8.75 -2.25 8.25 -1.8 7.0 -0.95 6.5 -0.65 5.8 -0.4 6.55 -0.25 8.1 -0.1 8.2 -0.1 8.2 0.2 8.1 0.25 6.65 1.15 6.4 1.3 4.9 2.0 5.75 2.45 6.5 2.65 7.8 2.85 8.05 2.9 8.0 3.1 8.0 3.2 7.45 3.2 6.4 3.0 Q5.2 2.7 4.55 2.1 L3.8 2.35 3.6 2.2 3.4 2.1 4.2 1.9 4.05 1.8 Q2.8 1.05 2.5 -0.05 L2.5 -0.15 2.7 -0.15 2.75 -0.1 4.6 -0.35 Q3.65 -0.55 2.8 -0.95 2.25 -1.2 1.95 -1.5 L1.7 -2.15 1.7 -2.2 1.8 -2.2 M6.65 0.8 L7.75 0.2 6.95 0.15 6.6 0.1 5.35 -0.2 3.2 0.2 2.9 0.15 Q3.7 1.45 4.5 1.8 L6.2 1.05 6.65 0.8" fill="#430000" fill-opacity="0.35686275" fill-rule="evenodd" stroke="none"/>
      <path d="M6.35 2.8 Q5.15 2.5 4.5 1.9 L3.7 2.15 3.3 2.15 3.2 1.9 4.15 1.7 4.0 1.6 Q2.75 0.85 2.45 -0.25 L2.45 -0.35 2.65 -0.35 2.7 -0.3 4.55 -0.55 2.75 -1.15 Q1.8 -1.6 1.45 -2.25 L1.65 -2.4 1.75 -2.4 Q2.05 -1.85 3.05 -1.35 L5.1 -0.7 6.4 -1.2 6.45 -0.85 5.75 -0.6 6.5 -0.45 6.55 -0.1 5.3 -0.4 3.15 0.0 2.85 -0.05 Q3.65 1.25 4.45 1.6 L6.15 0.85 6.6 0.6 6.6 0.95 6.35 1.1 4.85 1.8 5.7 2.25 6.45 2.45 6.35 2.8 M8.25 -2.55 L8.75 -3.0 8.85 -2.85 Q8.8 -2.5 8.2 -2.0 L8.25 -2.55 M8.05 -0.3 L8.3 -0.3 8.4 -0.25 8.35 -0.15 8.05 0.05 8.05 -0.3 M7.75 2.65 L8.25 2.7 8.3 2.8 8.15 3.0 7.7 3.0 7.75 2.65" fill="#e20a0a" fill-rule="evenodd" stroke="none"/>
      <path d="M6.4 -1.2 L6.9 -1.5 8.25 -2.55 8.2 -2.0 6.95 -1.15 6.45 -0.85 6.4 -1.2 M6.5 -0.45 L8.05 -0.3 8.05 0.05 6.6 0.95 6.6 0.6 7.7 0.0 6.9 -0.05 6.55 -0.1 6.5 -0.45 M6.45 2.45 L7.75 2.65 7.7 3.0 7.4 3.0 6.35 2.8 6.45 2.45" fill="#930000" fill-rule="evenodd" stroke="none"/>
      <path d="M2.2 -4.3 L2.15 -4.25 2.15 -4.35 2.2 -4.3" fill="#ffb600" fill-opacity="0.9529412" fill-rule="evenodd" stroke="none"/>
      <path d="M1.95 -5.9 L2.0 -6.0 Q2.0 -5.75 3.15 -5.45 4.3 -5.2 5.75 -5.45 7.1 -5.75 7.25 -6.15 L7.35 -6.0 Q6.4 -5.0 5.05 -5.05 3.2 -4.8 1.9 -5.75 L1.95 -5.9" fill="#bd5300" fill-opacity="0.9529412" fill-rule="evenodd" stroke="none"/>
      <path d="M4.9 -4.3 L4.2 -4.3 4.0 -4.3 3.0 -4.5 Q2.7 -4.6 2.55 -4.7 L2.4 -4.8 2.3 -4.85 1.9 -5.4 1.9 -5.55 1.9 -5.65 1.9 -5.75 Q2.85 -5.05 4.2 -5.0 L4.65 -5.0 5.2 -5.05 5.4 -4.7 4.9 -4.3 M7.3 -6.0 L7.35 -6.0 7.5 -5.8 7.5 -5.45 7.45 -5.2 7.15 -5.0 7.3 -6.0 M2.75 -5.1 L3.1 -4.7 3.1 -4.65 4.25 -4.45 5.15 -4.65 5.15 -4.7 4.65 -4.8 2.75 -5.1 2.7 -5.15 2.7 -5.1 2.75 -5.1" fill="#ffb600" fill-opacity="0.9529412" fill-rule="evenodd" stroke="none"/>
      <path d="M5.2 -5.05 Q6.9 -5.4 7.3 -6.0 L7.15 -5.0 7.05 -4.95 6.6 -4.7 4.9 -4.3 5.4 -4.7 5.2 -5.05" fill="#e28900" fill-opacity="0.9529412" fill-rule="evenodd" stroke="none"/>
      <path d="M2.75 -5.1 L2.7 -5.1 2.7 -5.15 2.75 -5.1 4.65 -4.8 5.15 -4.7 5.15 -4.65 4.25 -4.45 3.1 -4.65 3.1 -4.7 2.75 -5.1" fill="#ffe7ad" fill-opacity="0.9529412" fill-rule="evenodd" stroke="none"/>
    </g>
    <linearGradient gradientTransform="matrix(0.0044, 0.0, 0.0, 0.0064, 4.55, 3.7)" gradientUnits="userSpaceOnUse" id="gradient0" spreadMethod="pad" x1="-819.2" x2="819.2">
      <stop offset="0.4196078431372549" stop-color="#cb007a"/>
      <stop offset="0.7490196078431373" stop-color="#e70000"/>
      <stop offset="1.0" stop-color="#830a0a"/>
    </linearGradient>
    <linearGradient gradientTransform="matrix(0.0044, 0.0, 0.0, 0.0064, 4.55, 3.7)" gradientUnits="userSpaceOnUse" id="gradient1" spreadMethod="pad" x1="-819.2" x2="819.2">
      <stop offset="0.4196078431372549" stop-color="#cb007a"/>
      <stop offset="0.7490196078431373" stop-color="#e70000"/>
      <stop offset="1.0" stop-color="#830a0a"/>
    </linearGradient>
  </defs>
</svg>
