<svg xmlns="http://www.w3.org/2000/svg" xmlns:ffdec="https://www.free-decompiler.com/flash" xmlns:xlink="http://www.w3.org/1999/xlink" ffdec:objectType="frame" width="8.3" height="18.6"><use ffdec:characterId="1" xlink:href="#a" width="8.3" height="18.6"/><defs><g id="a" fill-rule="evenodd"><path fill="#333" d="m5 .35.1.6.45 3.95.15 1.4.1 1.35.15 3.2-.05.95v.4l-.05.75-.05.1-.8-.25-1.65-.7-.05-.3-.15-.7-.6-2.4-.7-2.4v-.05l-.75-2.5L.5 1.8.15.65.1.5 0 0l2.75.4h1.5z"/><path d="M5 .35 6.65 0l.15 3.3.05 1.5.05 1.45v.05L7 9.65l.05 2.15v.35L7 13.4l-.25-.1-.95-.25.05-.1.05-.75v-.4l.05-.95-.15-3.2-.1-1.35-.15-1.4L5.1.95z"/><path fill="#b41010" d="m7.6 8.95.15.4q-.5.4-.5.9l-.05 1.8.05 1.3v.15l-.5-.2L5 12.8l-2.15-.95-.15-.1L1.95 10q0-.2.2-.25l1.4.4.25-.05.7.05.3.05h.3q.65.15 1.9-.8l.55-.45z"/><path fill="#71548a" d="m1.75 18-.6-.35-.05-.05-.1-.9q0-.65 1.05-1.65 1-1.05 1-1.55.05-.6-.3-1.6l-.8-1.9q0-.2.2-.25l1.4.4.25-.05.7.05.3.05h.3l-.3.05q.55.45.7 1.55l.05.4v.15l.1-.35v.8l-.95 2.95q-.8 1.55-2.9 1.35l-.25-.1.45.7v.1q-.15.05-.25.2"/><path fill="#4c2a69" d="m5.65 12.8.15.15.95.35.5.2v1.25q-.95.65-1.15 1.1l-.85 1.25q-.6.85-1.7 1.1l-1.8-.2q.1-.15.25-.2v-.1l-.45-.7.25.1q2.1.2 2.9-1.35z"/><path d="m6.5 16.45-.35-.05-.1.25Q4.95 18.6 3.6 18.6q-1.85 0-2.35-.7l-.05-.1-.05-.1v-.05q1.25.8 2.4.55 1.1-.25 1.7-1.1l.85-1.25q.2-.45 1.15-1.1v.35l-.75.65z"/><path fill="#333" d="M6.5 16.45v-.7l.75-.65v.85l-.45.35-.2.15z"/><path fill="#4c2a69" d="M7.55 8.95h.05l.15.4q-.5.4-.5.9l-.05 1.8.05 1.3v.15l-.5-.2-1.2-.35v-.75l-.05-.4q-.15-1.1-.7-1.55Q5.9 10.2 7 9.4z"/><path fill="#fff" d="m2.3 10.45-.4-.1-.4-.35q-.25-.1-.25-.45l.05-.05-.05-.05q0-.35.55-.55l.35-.05.1-.05.75.25.5.05.3.15.4-.05.7.1.1-.05.85-.15.15-.2.65-.2.45.05h.25l.25-.15q.25-.1.5.35l.2.45v.05l-.95-.2h-.1l-.6.25-.05.05-.25.35H6.3l-.85.15-.5-.1q-.15-.05-.35.15l-.6.25h-.5q-.05-.45-.3-.3l-.05.05-.55-.1h-.05l-.8-.35H1.7l.55.55v.05z"/><path fill="#d2d2d2" d="m8.3 9.45-.2.25-.05.2-.25.3-.35.2-.25.05-1.05.2-.3.15-.45.1-.3-.1h-.05l-.6.05h-.1l-.75-.15h-.15L3 10.65l-.4-.2h-.3l-.05-.2v-.05l-.55-.55h.05l.8.35h.05l.55.1.05-.05q.25-.15.3.3H4l.6-.25q.2-.2.35-.15l.5.1.85-.15h.05l.25-.35.05-.05.6-.25h.1z"/></g></defs></svg>