<svg xmlns="http://www.w3.org/2000/svg" xmlns:ffdec="https://www.free-decompiler.com/flash" xmlns:xlink="http://www.w3.org/1999/xlink" ffdec:objectType="frame" width="7.55" height="17.4"><use ffdec:characterId="1" xlink:href="#a" width="7.55" height="17.4"/><defs><g id="a"><path fill="#2e2e2e" fill-rule="evenodd" d="M.15 0 .8.3q1.6.7 3 .7L6.25.65 6.6 7.6l.2 3.25-.2 2.55q-.75 1-2.1 1.75-3.2 1.3-2.9-.25.25-1.35 1.55-2.15.25-.9.1-2.15-.05-1.45-.5-2.5Q1.2 3.7.15 0"/><path fill="#0e4d1e" fill-rule="evenodd" d="m1.8 6.35-.05-.15-.2.05zM.95 3.9.8 3.45h3.6v.8q.25 0 .9-.55l.3-.25h1.45v.8L6.9 5.7l-.15 2.25.2 2.05v.05l-1.3.7-.35.1-1 .2v-.3h-.15l-.55-.05q-.35 0-.55.25l-.25-.1-.2-.05-.25-.1-.3-.95-.9-2.3-.5-1.5-.55-1.4 1-.15zm6.35 7.4.15.9.1.9q-.35 1-1.5 1.95l-1.15.8q-1.4.75-2.35.75l-2.4-.15L0 15.5v-.2q.1-.55.5-.9.25-.25.6-.4l.8-.6.15-.15.15-.15.2-.15v-.05h.05l.3-.65.05-.1.05.15.15.05h.05l.4.1h.6v-.25l1.3-.05.15.05-.05-.1.95-.4h.1l.75-.7z"/><path fill="#25aa5c" fill-rule="evenodd" d="m1.8 6.35.4 1.6.1.4.05.2.05.2.35 1.65.05.45-.2-.05-.25-.1-.3-.95-.9-2.3-.5-1.5-.55-1.4 1-.15.65 1.8-.2.05zm4 7.8-.3-1.95-.05-.1.95-.4.15 1.65zM4.4 4.4v-.15q.25 0 .9-.55l.3-.25q.4 5.75.55 6.6l.05.4-.55.3-.35.1-.25-1.45L5 9l-.25-1.1-.2-1.5-.05-.65zM1.1 14l.8-.6.15-.15.15-.15.8-.15q.65.15 1.3 1.05l.5.85q-.95.55-1.9.55l-1.6-.45-.8-.55q.25-.25.6-.4"/><path fill-opacity=".502" fill-rule="evenodd" d="M.95 3.9.8 3.45h3.6v.95l.1 1.35.05.65.2 1.5L5 9l.05.4.25 1.45-1 .2v-.3h-.15l-.55-.05q-.35 0-.55.25l-.25-.1-.05-.45-.35-1.65-.05-.2-.05-.2-.1-.4-.4-1.6-.05-.15-.65-1.8zm4.55 8.3.3 1.95-.1.05-.9.65-.5-.85q-.65-.9-1.3-1.05l-.8.15.2-.15v-.05h.05l.3-.65.05-.1.05.15.15.05h.05l.4.1h.6v-.25l1.3-.05z"/><path fill="#9b75bf" fill-rule="evenodd" d="m1.8 6.35-.25-.1.2-.05z"/><path fill="#5f4774" fill-rule="evenodd" d="m5.45 12.1.05.1-.15-.05z"/><path fill="#cdcdcd" fill-rule="evenodd" d="M4.05 12.2v.25h-.6l-.4-.1H3l-.15-.05-.05-.15v-.3l.15-.7.1-.2q.2-.25.55-.25l.55.05h.15v.3l-.5.2h-.5v.3l.25.05v.45l.05.05h.45z"/><path fill="#1c1c1c" fill-rule="evenodd" d="m4.3 11.05 1-.2.35-.1 1.3-.7V10l.6.6-.1.25-.2.15-.75.7h-.1l-.95.4-.1.05-1.3.05v-.1H3.6l-.05-.05v-.45h.05l.45.1h.15l.2-.05.1-.05.05-.1v-.1l-.4-.15H3.8zm-1.5 1.1h-.25v.05l-.25-.05-.1-1.45h.15l.25.1.2.05.25.1-.1.2-.15.7z"/><path fill="#383838" fill-rule="evenodd" d="m7.55 14.45-.1 1.15-1.15.6v-1l-1.75 1.7q-.75.5-2.55.5l-1.65-.25-.2-.7 2.4.15q.95 0 2.35-.75l1.15-.8q1.15-.95 1.5-1.95zm-1.25.75.1-.1h-.1z"/><path fill="#f3f1f1" fill-rule="evenodd" d="M3.8 11.25h.35l.4.15v.1l-.05.1-.1.05-.2.05h-.15l-.45-.1h-.05l-.25-.05v-.3z"/><path fill="none" stroke="#e2d6e9" stroke-linecap="round" stroke-linejoin="round" stroke-width=".5" d="m1.8 6.35-.25-.1.2-.05"/><path fill="none" stroke="#999" stroke-linecap="round" stroke-linejoin="round" stroke-width=".5" d="M1.55 6.25q-.2-.1-.25-.15m.9 1.85 1.1-.85-1.5-.75m-.05-.15 1.4-.3 1.35-.15.3-.05m.1.5-.35.2-1.25.7 1.45.8.65.3m.05.65L5 9l-.9.45-.2.15 1.35.75m-2.5.05 1.15-.8-.1-.05-1.4-.8"/></g></defs></svg>