<?xml version="1.0" encoding="UTF-8" standalone="no"?>
<svg xmlns:ffdec="https://www.free-decompiler.com/flash" xmlns:xlink="http://www.w3.org/1999/xlink" ffdec:objectType="frame" height="11.85px" width="7.65px" xmlns="http://www.w3.org/2000/svg">
  <g transform="matrix(1.0, 0.0, 0.0, 1.0, -1.2, 2.7)">
    <use ffdec:characterId="1" height="11.85" transform="matrix(1.0, 0.0, 0.0, 1.0, 1.2, -2.7)" width="7.65" xlink:href="#shape0"/>
  </g>
  <defs>
    <g id="shape0" transform="matrix(1.0, 0.0, 0.0, 1.0, -1.2, 2.7)">
      <path d="M4.4 5.45 L5.0 6.25 Q5.45 7.0 5.55 7.85 L7.1 6.3 Q7.6 5.65 8.25 5.15 L8.1 6.75 8.05 6.8 7.25 7.45 6.8 7.75 6.75 7.75 6.65 7.7 6.8 7.75 6.35 7.55 5.85 8.1 5.3 8.6 5.25 8.65 Q4.45 9.2 3.5 9.15 L3.3 9.15 Q2.1 9.0 1.65 8.55 1.25 8.15 1.2 7.5 1.9 8.75 4.05 8.5 L4.15 8.5 4.45 8.45 5.3 8.05 Q5.25 6.5 4.15 5.65 L3.3 5.2 2.55 5.1 2.35 5.1 2.6 4.95 3.65 5.05 3.4 5.15 Q4.0 5.2 4.4 5.45" fill="#000000" fill-rule="evenodd" stroke="none"/>
      <path d="M4.4 5.45 L4.75 5.8 4.85 5.95 4.9 5.95 5.4 5.6 6.15 4.35 Q6.4 3.5 6.25 1.45 L6.15 0.7 7.7 0.5 8.15 0.4 8.35 4.05 8.25 5.15 Q7.6 5.65 7.1 6.3 L5.55 7.85 Q5.45 7.0 5.0 6.25 L4.4 5.45 M1.2 7.5 L1.25 6.8 Q1.4 5.75 2.35 5.1 L2.55 5.1 3.3 5.2 4.15 5.65 Q5.25 6.5 5.3 8.05 L4.45 8.45 4.15 8.5 4.05 8.5 Q1.9 8.75 1.2 7.5 M2.6 4.95 L2.8 4.85 Q4.2 4.1 4.3 3.15 4.4 2.15 4.15 1.3 L3.9 0.5 4.9 0.7 Q5.3 2.35 5.1 3.4 4.9 4.45 3.85 4.95 L3.65 5.05 2.6 4.95 M2.25 5.8 L2.2 5.8 Q2.2 6.3 2.6 6.3 2.9 6.3 2.9 5.9 2.9 5.5 2.55 5.45 L2.25 5.8 M4.15 7.05 L3.65 7.1 3.0 7.0 2.1 6.4 1.95 6.35 1.85 6.5 2.0 7.0 2.05 7.05 4.05 7.1 4.15 7.05" fill="#2b73a0" fill-rule="evenodd" stroke="none"/>
      <path d="M2.25 5.8 L2.55 5.45 Q2.9 5.5 2.9 5.9 2.9 6.3 2.6 6.3 2.2 6.3 2.2 5.8 L2.25 5.8 M4.15 7.05 L4.05 7.1 2.05 7.05 2.0 7.0 1.85 6.5 1.95 6.35 2.1 6.4 3.0 7.0 3.65 7.1 4.15 7.05" fill="#58bcff" fill-rule="evenodd" stroke="none"/>
      <path d="M6.05 0.7 L6.15 0.7 6.35 2.1 6.35 3.55 6.1 4.75 5.5 5.5 4.9 5.95 4.85 5.95 4.75 5.85 4.7 5.8 Q5.7 5.55 6.1 4.15 6.4 2.9 6.05 0.7 M3.65 5.05 L4.3 4.8 4.5 4.75 3.9 5.15 3.65 5.05 M5.25 1.85 L5.0 0.7 5.05 0.7 5.25 1.85" fill="#ffffff" fill-rule="evenodd" stroke="none"/>
      <path d="M4.6 5.7 L4.45 5.55 3.75 5.2 3.4 5.15 3.65 5.05 3.9 5.15 4.6 5.7" fill="#000000" fill-rule="evenodd" stroke="none"/>
      <path d="M6.05 0.7 Q6.4 2.9 6.1 4.15 5.7 5.55 4.7 5.8 L4.6 5.7 3.9 5.15 4.5 4.75 Q5.05 4.35 5.25 3.55 L5.25 1.85 5.05 0.7 5.55 0.7 6.05 0.7" fill="#58bcff" fill-rule="evenodd" stroke="none"/>
      <path d="M5.65 3.7 L6.7 4.65 6.65 4.75 6.55 4.8 5.4 3.8 4.4 4.0 4.4 3.7 5.1 3.5 4.65 2.85 5.15 3.15 5.35 3.4 6.75 2.85 6.95 3.1 5.95 3.55 5.65 3.7 M5.1 6.15 L5.1 6.05 4.7 5.15 4.45 4.75 4.35 4.75 3.85 4.9 3.45 5.05 3.4 4.8 3.75 4.65 4.35 4.5 4.2 4.4 3.9 4.25 4.1 4.05 4.7 4.5 6.4 4.95 6.2 5.2 5.5 4.95 4.85 4.8 5.3 5.95 5.1 6.15" fill="#000000" fill-rule="evenodd" stroke="none"/>
      <path d="M4.9 5.95 L5.0 6.15 4.85 5.95 4.9 5.95" fill="#333333" fill-rule="evenodd" stroke="none"/>
      <path d="M5.45 7.2 L5.5 7.9 5.3 8.0 5.25 7.35 5.35 7.6 5.35 7.2 5.45 7.2 M6.8 7.75 L6.75 7.75 6.65 7.7 6.8 7.75" fill="#000000" fill-rule="evenodd" stroke="none"/>
      <path d="M4.85 5.95 L4.75 5.85 4.75 5.8 4.8 5.8 4.9 5.95 4.85 5.95" fill="#ffffff" fill-rule="evenodd" stroke="none"/>
      <path d="M5.45 7.2 L6.7 5.9 7.2 4.8 Q7.8 3.15 7.6 0.95 L7.6 0.55 7.7 0.5 8.15 0.4 8.35 4.05 8.25 5.15 Q7.6 5.65 7.1 6.3 L5.5 7.9 5.45 7.2 M5.3 8.0 L4.45 8.45 3.05 8.6 Q3.65 8.5 4.05 8.2 3.55 8.15 2.4 7.55 L2.4 7.4 2.6 7.35 3.05 7.45 3.5 7.55 4.7 7.2 4.85 7.15 5.0 6.75 5.15 7.1 5.2 7.15 5.2 7.2 5.25 7.35 5.3 8.0" fill="#134666" fill-rule="evenodd" stroke="none"/>
      <path d="M7.9 -0.7 L8.5 -0.6 8.55 -0.3 8.5 0.05 8.4 0.1 8.3 -0.05 8.15 0.15 8.05 0.15 7.95 0.1 7.9 0.15 7.9 0.5 7.85 0.85 7.7 0.7 7.65 0.85 7.6 0.8 7.7 0.7 7.8 0.75 7.75 0.65 Q7.6 0.5 7.75 -0.7 L7.9 -0.7 M3.9 0.15 L4.0 0.35 4.15 0.6 4.05 0.55 3.85 0.65 3.5 0.45 3.5 0.25 3.7 0.05 3.9 0.15" fill="#000000" fill-rule="evenodd" stroke="none"/>
      <path d="M5.0 2.8 L4.85 2.75 5.0 2.75 5.0 2.8" fill="#666666" fill-rule="evenodd" stroke="none"/>
      <path d="M5.0 2.75 L3.55 2.3 3.55 2.1 3.65 1.6 3.3 0.4 3.3 0.35 3.3 0.25 Q3.3 0.15 3.75 -0.15 L3.8 -0.1 3.85 -0.1 3.9 0.1 3.5 0.3 3.45 0.3 3.5 0.4 4.75 0.7 5.05 1.85 5.0 2.75 M8.55 -0.1 L8.5 0.35 8.7 1.2 8.85 1.6 8.05 2.35 Q7.4 1.55 7.75 0.35 L8.55 -0.1 M5.85 2.85 L5.65 2.8 5.65 2.0 5.35 0.85 5.45 0.85 Q6.0 1.7 5.85 2.85" fill="#83e0ff" fill-rule="evenodd" stroke="none"/>
      <path d="M4.75 0.7 L3.5 0.4 3.45 0.3 3.5 0.3 3.9 0.1 3.95 0.15 3.9 0.15 3.65 0.3 3.55 0.35 3.6 0.35 4.6 0.5 5.25 0.55 5.35 0.55 6.5 0.45 6.55 0.4 7.1 0.3 7.85 0.0 8.45 -0.3 7.95 -0.45 7.7 -0.6 7.7 -0.65 7.7 -0.75 7.95 -0.75 8.5 -0.6 8.6 -0.55 8.65 -0.4 8.6 -0.3 8.55 -0.1 7.75 0.35 Q7.4 1.55 8.05 2.35 7.2 2.85 6.15 2.85 L5.85 2.85 Q6.0 1.7 5.45 0.85 L5.35 0.85 4.75 0.7" fill="#73c5e0" fill-rule="evenodd" stroke="none"/>
      <path d="M5.0 2.75 L5.05 1.85 4.75 0.7 5.35 0.85 5.65 2.0 5.65 2.8 5.0 2.8 5.0 2.75" fill="#bfefff" fill-rule="evenodd" stroke="none"/>
      <path d="M8.1 -2.3 L7.5 -1.5 Q6.55 -0.65 5.3 -0.85 L4.2 -0.7 Q4.35 -0.4 5.4 -0.4 4.25 -0.1 3.6 -0.9 L3.1 -1.6 3.1 -1.8 3.1 -1.85 3.2 -2.05 3.25 -2.0 3.5 -1.5 3.65 -1.4 4.95 -1.15 6.35 -1.35 7.1 -1.75 7.55 -2.25 7.6 -2.6 7.7 -2.7 7.95 -2.6 8.0 -2.55 8.05 -2.4 8.1 -2.3 M8.4 -0.75 L7.8 -0.2 Q6.35 1.0 4.5 0.05 L6.85 -0.1 Q7.9 -0.55 8.4 -1.6 8.5 -1.3 8.2 -1.1 L8.4 -0.75" fill="#000000" fill-rule="evenodd" stroke="none"/>
      <path d="M3.1 -1.8 L3.1 -1.6 3.6 -0.9 Q4.25 -0.1 5.4 -0.4 4.35 -0.4 4.2 -0.7 L5.3 -0.85 Q6.55 -0.65 7.5 -1.5 L8.1 -2.3 8.4 -1.65 8.4 -1.6 Q7.9 -0.55 6.85 -0.1 L4.5 0.05 Q6.35 1.0 7.8 -0.2 L8.4 -0.75 8.05 -0.25 7.5 0.25 6.95 0.6 5.5 0.85 Q4.4 0.8 3.75 0.25 3.0 -0.3 3.0 -0.65 L3.15 -1.3 3.05 -1.7 3.05 -1.8 3.1 -1.8" fill="#333333" fill-rule="evenodd" stroke="none"/>
    </g>
  </defs>
</svg>
