<?xml version="1.0" encoding="UTF-8" standalone="no"?>
<svg xmlns:ffdec="https://www.free-decompiler.com/flash" xmlns:xlink="http://www.w3.org/1999/xlink" ffdec:objectType="frame" height="12.1px" width="7.75px" xmlns="http://www.w3.org/2000/svg">
  <g transform="matrix(1.0, 0.0, 0.0, 1.0, -0.55, 3.05)">
    <use ffdec:characterId="2" height="12.75" id="Color" transform="matrix(0.7874, 0.0, 0.0, 0.8589, 0.5582, -3.0113)" width="9.85" xlink:href="#sprite0"/>
    <use ffdec:characterId="3" height="12.1" transform="matrix(1.0, 0.0, 0.0, 1.0, 0.75, -3.05)" width="7.5" xlink:href="#shape1"/>
  </g>
  <defs>
    <g id="sprite0" transform="matrix(1.0, 0.0, 0.0, 1.0, 1.45, 6.3)">
      <use ffdec:characterId="1" height="12.75" transform="matrix(1.0, 0.0, 0.0, 1.0, -1.45, -6.3)" width="9.85" xlink:href="#shape0"/>
    </g>
    <g id="shape0" transform="matrix(1.0, 0.0, 0.0, 1.0, 1.45, 6.3)">
      <path d="M8.4 -6.3 L8.3 -4.7 8.2 -1.5 8.25 0.95 8.15 2.95 8.1 3.0 7.25 3.85 5.9 4.25 5.75 4.25 5.25 4.5 3.1 6.1 -0.3 6.3 -1.2 5.85 -1.45 4.6 Q-1.45 3.1 0.8 2.0 L2.25 0.9 2.05 0.05 2.15 -0.4 Q2.2 -0.95 2.8 -1.6 L2.7 -2.15 1.7 -5.95 4.35 -5.75 6.85 -5.95 8.4 -6.3" fill="#333333" fill-rule="evenodd" stroke="none"/>
    </g>
    <g id="shape1" transform="matrix(1.0, 0.0, 0.0, 1.0, -0.75, 3.05)">
      <path d="M8.2 6.1 L8.15 6.2 7.8 6.4 7.4 6.55 6.75 6.8 6.65 6.8 5.4 7.7 4.25 8.7 2.45 9.05 Q1.25 8.95 0.9 8.3 L0.75 7.25 Q1.5 7.8 2.35 7.9 3.8 7.95 4.95 6.95 L5.95 6.1 7.65 5.4 Q8.0 5.3 8.15 4.8 L8.2 6.1" fill="#000000" fill-rule="evenodd" stroke="none"/>
      <path d="M8.2 2.7 L8.25 2.9 8.15 4.1 7.6 3.45 Q6.85 2.7 5.15 2.5 3.95 2.35 3.45 3.05 L3.3 2.35 3.55 1.65 3.8 1.15 5.6 1.0 Q7.1 1.15 8.2 2.3 L8.2 2.7 M3.3 -1.7 L3.0 -2.75 3.8 -2.55 5.7 -2.55 7.1 -2.75 8.2 -3.05 8.25 -3.05 8.15 -1.45 8.15 -1.1 7.9 -1.0 6.85 -1.0 5.35 -1.0 3.4 -1.25 3.3 -1.7" fill="#ffffff" fill-opacity="0.29803923" fill-rule="evenodd" stroke="none"/>
      <path d="M3.0 -2.75 L3.0 -2.85 5.4 -2.55 6.35 -2.65 6.4 -2.6 7.1 -2.75 8.2 -3.05 8.25 -3.05 8.15 -1.45 8.15 -1.25 8.15 -0.9 8.2 -0.5 8.2 -0.2 8.2 -0.1 8.1 1.55 8.2 2.0 8.2 2.7 8.25 2.9 Q8.1 3.55 8.1 4.75 L8.15 5.15 8.1 5.3 8.1 5.35 7.4 5.75 6.35 6.35 Q5.65 6.65 5.35 7.05 4.35 8.2 2.85 8.2 2.05 8.2 2.05 7.35 2.05 6.6 2.7 6.35 L4.55 5.25 5.65 4.1 Q6.05 3.6 6.05 2.95 6.65 2.65 6.65 1.9 6.65 1.15 5.95 0.85 L5.95 0.8 4.65 0.8 4.05 0.9 3.75 0.7 3.8 0.45 3.75 0.4 3.75 0.35 3.55 -0.6 3.7 -0.65 3.35 -1.4 3.3 -1.5 3.0 -2.75" fill="#000000" fill-opacity="0.2" fill-rule="evenodd" stroke="none"/>
      <path d="M8.15 1.85 L8.2 2.0 8.2 2.35 7.45 1.9 Q6.2 1.1 5.05 1.1 L3.75 1.35 3.7 1.4 3.8 1.05 Q4.45 0.7 5.15 0.7 6.9 0.7 8.15 1.85 M8.15 3.65 L8.1 4.6 7.7 4.1 Q6.7 2.85 4.95 2.85 L4.5 2.95 4.45 2.95 3.5 3.25 3.5 3.2 3.4 2.9 3.65 2.7 4.95 2.3 Q6.75 2.3 7.9 3.4 L8.15 3.65" fill="#000000" fill-opacity="0.29803923" fill-rule="evenodd" stroke="none"/>
    </g>
  </defs>
</svg>
