<svg xmlns="http://www.w3.org/2000/svg" xmlns:ffdec="https://www.free-decompiler.com/flash" xmlns:xlink="http://www.w3.org/1999/xlink" ffdec:objectType="frame" width="6" height="8.45"><use ffdec:characterId="1" xlink:href="#a" width="6" height="8.45"/><defs><g id="a" fill-rule="evenodd"><path fill="#8e5223" d="M3.3.7h.25Q4.8.7 5.65 0l.25 3q.1 1.45 0 .7l.05.3-.05.05-.4.4v.05L5 5l-1.1.9-.7.4-.45.2-.05-.05-.2.25.1-.2-.25.05.35-.15q-.35-.8-1.05-.95l-.85-.2-.35.05.2-.25.4-.6h.1q.75-.15 1.4.25l.35.3.35-.6q-.7-.6-1.2-.6l-.6.05.2-.25.15-.35.95-.1.75.5.4-1.2-1.4-.15-.6-.4L1.6.5 1.55.15 1.8.3l.3.15L3.25.7z"/><path fill="#dbac64" d="M5.55.35h.05v.3h-.05v-.3m.1 1.2-.15.05.05-.3.1-.05zM4.4.95l-.1.1-.4.1-.05-.3h.4zM5.25.7v.1l-.45.25V.8l.1-.05zm-1.85.5-.6-.15.25-.15.4.1zm-.35.7.45.2-.2.15L3 2.2l-.05-.25zm1.9-.35h.25v.15l-.4.2-.05-.2q0-.1.2-.15M3.9 2.2l-.05-.05.05-.25h.4l.1.1-.1.1zm.75 0 .1.1-.15.4-.1.05-.1-.25q0-.3.25-.3m-.5 1.75H4V3.7l.2-.2.15.1zM4.3 2.9h.1l.15.1-.2.35-.1-.2zm-1.1.95h.05l.35.25v.1l-.1.05-.2-.2zm-.2 0-.4-.25v-.15l.4.35zm.9.4.15.15-.25.35-.1-.2zm-1.05 1.3v.05h-.1l-.25-.2-.1-.05.05-.15h.05l.15.15.15.1v.05zm.5-.1.1.1-.1.2-.3.2-.05-.1.2-.3zm.15-.1-.05-.25q0-.25.3-.2l.05.1-.1.3zm2.4-1.3L5.95 4 6 5.6l-.05.6-1.15 1Q3.1 8.45 1.65 8.45.5 8.45.25 8.1L.1 8 0 6.65V6.3l.2-.25.05.05v.05l.25.45h.05l.2.05H.8l.8.05.5-.05h.15l.35-.15-.1.2.2-.25.05.05.45-.2.7-.4L5 5l.5-.5v-.05zM2.3.8l.15.3-.4-.1Q1.8.9 1.9.7zm-.05 1.15L2 1.65q.4 0 .65.2v.1l-.15.1zm.1 1.55-.2.05-.25-.05v-.15l.45.05zM1 4.95v-.2l.25-.05.2.15v.1zm.7-.05.3-.05.2.2v.1L1.7 5z"/><path fill="#621502" fill-opacity=".439" d="M4.25.65h.05Q5.05.5 5.65 0l.25 3q.1 1.45 0 .7L6 5.6l-.05.6-1.15 1-.95.6-1.3.55 1.05-1.4.4-.65-.1.05Q2.8 7 1.55 7l-1.2-.25-.2-.45v-.05L.35 6l.05.1-.05.1.05.15q0 .35.6.3h.6l1.05-.2.85-.35.75-.55.05-.1h.05q.3-1 .25-2.1z"/></g></defs></svg>