<svg xmlns="http://www.w3.org/2000/svg" xmlns:ffdec="https://www.free-decompiler.com/flash" xmlns:xlink="http://www.w3.org/1999/xlink" ffdec:objectType="frame" width="7.6" height="9.05"><g transform="translate(-.85 -.1)"><use ffdec:characterId="2" xlink:href="#a" width="11.4" height="12.1" transform="matrix(.657 0 0 .6411 .95 .199)"/><use ffdec:characterId="3" xlink:href="#b" width="7.6" height="9.05" transform="translate(.85 .1)"/></g><defs><path id="c" fill="#a30f0f" fill-rule="evenodd" d="M4.3-3.3v-.85l1.95.25q1.8 0 3.8-.9l.2-.05.75-.3.2 3.55.2 3.2q-.05 1.05-2 2.85-2.05 1.9-3.85 2.3Q2.5 7.4 1 6.05q-.9-.85-1-1.9.3-1.6 1.6-2.2 1.3-.7 1.85-1.4L4.2-.6z" transform="translate(0 5.15)"/><use ffdec:characterId="1" xlink:href="#c" id="a" width="11.4" height="12.1"/><g id="b" fill-rule="evenodd"><path d="M6.9.2h.05v2.9Q6.9 4.55 6 5.45L4.45 6.7l-.85-.05q-.1-.45-.6-1L1.85 4.8l-.5-.2.25-.2.1-.1q.05-.1.95.3.8.4 1.4 1.6l1.2-.8q.9-.75 1.15-2.2.2-1.45-.05-2.7l.4-.2z"/><path fill="#fff" d="m4.65 4.6.1.3-.1.3-.35.15-.35-.15-.1-.3.1-.3q.15-.15.35-.15t.35.15m1-.5-.1.3-.35.15q-.2 0-.3-.15l-.15-.3.15-.35.3-.1.35.1zm-.4-1.15.1-.3.35-.15.3.15.15.3-.15.3-.3.15-.35-.15zm.5-1.75.3.1.15.35-.15.3-.3.15q-.2 0-.35-.15l-.15-.3.15-.35zM1.9 7.8l1.85-.1q1.2-.25 2.55-1.45 1.25-1.2 1.3-1.85.05 2.05-.8 2.8-1.45 1.25-2.9 1.65l-2 .05q-.65-.2-1.2-.6Q0 7.7 0 6.8l.1-.75q.1.65.65 1.2z"/><path fill-opacity=".298" d="M5.45 3.65h-.4l-.15.25v.2l.25.15q.4 0 .4-.4zm.55-.9-.1-.2h-.4l-.15.25q0 .3.3.3zm-.7-1.2.1.15q.1.15.3.15.35 0 .35-.4-.05-.25-.4-.25t-.35.35M7.05.2 7.1.1h.15l.1-.1v.3l.1.3.15 3.3q0 1.65-.85 3l-.6.75L5.8 8l-1.2.65-1.5.4-1.7-.35-.9-.5v-.05h.2l.25-.05.05-.05.05-.1V7.8L.9 7.4l-.1-.1-.05-.1L.6 7l-.1-.25.15.05.7.15q1 0 1.8-.4L2.6 5.5q-.4-.35-1.35-.8l-.05-.05.75-.35 1.25.95.6.9.75-.6-.25.05q-.7 0-.7-.7 0-.55.8-.55l.25.05-.05-.3q0-.6.6-.65h.1l-.15-.2-.05-.35q0-.45.45-.55V2.2l-.35-.35-.1-.35q0-.4.3-.55V.7l1-.2zM5 4.9V5l.15-.25.05-.1-.25-.05zm-.65.1.3-.3-.3-.3Q4 4.4 4 4.7v.2l.25.1z"/></g></defs></svg>