<svg xmlns="http://www.w3.org/2000/svg" xmlns:ffdec="https://www.free-decompiler.com/flash" xmlns:xlink="http://www.w3.org/1999/xlink" ffdec:objectType="frame" width="6.8" height="8.8"><use ffdec:characterId="1" xlink:href="#a" width="6.8" height="8.8"/><defs><g id="a" fill-rule="evenodd"><path fill="#ccc" d="m3.9 1.55.1-.1.7-.2h.05l.05.05q.35 0-.2.3l-.45.2.35.25.35.4-.05.2-.55.3-.5.2.35.35.35.4V4l-.05.15h-.05l-.45.1-.1.05q-.4.1-.35.2l.3.35.3.65v.05l-.1.2-.05-.05-.05.05-.1-.05-.25-.05L3 5.5l.45.4.15.35-.1.1-.35-.15-.75-.75-1.2.25-.25.1q.2-.65 1.15-.6l-.35-.25H1.5v-.3l1.15-.5-.45-.35v-.1h.05q0-.25.9-.6l-.4-.5q-.05-.2.05-.2l.7-.6-.6-.3.05-.25h.1q.25 0 .75.35zm-.05.5-.8.5.4.4.9-.45h.1l-.05-.05-.4-.3zm.2 1.85-.6-.6q-.65.2-.9.45l.5.3L4 3.9zM3.7 5.3l-.05-.15-.65-.7h-.1q-.65.2-.95.35l.65.3 1 .25.1.05z"/><path fill="#fefeff" d="m4.5 6.95-.35.45-.1-.45-.25.15Q2.35 8.25.85 7.55l-.55-.3-.05.05v.4l-.2-.25L0 6.8q.05-1 .75-1.6l.1-.1.85-.95.35-1.05.05-.95L1.65.8 3.7.95l.2.6-.1.05q-.5-.35-.75-.35h-.1l-.05.25.6.3-.7.6q-.1 0-.05.2l.4.5q-.9.35-.9.6H2.2v.1l.45.35-1.15.5v.3h.25l.35.25q-.95-.05-1.15.6l.25-.1 1.2-.25.75.75.35.15.1-.1-.15-.35L3 5.5l.5.15.25.05.1.05.05-.05.05.05.1-.2V5.5l-.3-.65-.3-.35q-.05-.1.35-.2l.1-.05.45-.1h.05L4.45 4v-.1l-.35-.4-.35-.35.5-.2.55-.3.05-.2-.35-.4-.35-.25.45-.2q.55-.3.2-.3l-.05-.05H4.7l-.7.2.15-.5L4.8.9h.6q.2 1.3-.2 2.8l-.65 2.8zM3.7 5.3v.1l-.1-.05-1-.25-.65-.3q.3-.15.95-.35H3l.65.7zm.35-1.4H4l-.95.15-.5-.3q.25-.25.9-.45zm-.2-1.85.15.1.4.3.05.05h-.1l-.9.45-.4-.4z"/><path fill="#c5d9e0" d="M5.4.9 6.8.4l-.1 1.1-.05 1.25.05 1.05v.15q-1.45.75-1.8 2l-.4 1 .05-.45.65-2.8q.4-1.5.2-2.8M4.15 7.4l-.05.05-.4.35-.85.4H2.8l-.85.1-1.1-.2-.6-.4v-.4l.05-.05.55.3q1.5.7 2.95-.45l.25-.15z"/><path fill="#65933b" d="M5.25.35 5.4.9h-.6l-.65.05.15-.5.6-.05.25-.05zM3.7.95 1.65.8 1.5.55l-.1-.2.2-.05 1.05.15h.8zM.3 8.05l-.25-.6.2.25zm3.25.55.55-.65v-.1l.05-.45.35-.45v.8l-.55.6z"/><path fill="#254300" d="M6.1 4.9q-.4.4-.7.95l-.8 1.7-.1.2v-.8l.4-1q.35-1.25 1.8-2l-.1.55zm-.7-4L5.25.35h.05L6.8 0v.4zM2.85 8.2l.85-.4.4-.35.05-.05-.05.45v.1l-.55.65-.05.05-.8.15h-.85L.6 8.35l-.3-.3-.05-.35q.65.6 1.7.6l.85-.1z"/></g></defs></svg>