<?xml version="1.0" encoding="UTF-8" standalone="no"?>
<svg xmlns:ffdec="https://www.free-decompiler.com/flash" xmlns:xlink="http://www.w3.org/1999/xlink" ffdec:objectType="frame" height="18.6px" width="8.3px" xmlns="http://www.w3.org/2000/svg">
  <g transform="matrix(1.0, 0.0, 0.0, 1.0, -0.85, 9.55)">
    <use ffdec:characterId="1" height="18.6" transform="matrix(1.0, 0.0, 0.0, 1.0, 0.85, -9.55)" width="8.3" xlink:href="#shape0"/>
  </g>
  <defs>
    <g id="shape0" transform="matrix(1.0, 0.0, 0.0, 1.0, -0.85, 9.55)">
      <path d="M5.85 -9.2 L5.95 -8.6 6.4 -4.65 6.55 -3.25 6.65 -1.9 6.8 1.3 6.75 2.25 6.75 2.65 6.7 3.4 6.65 3.5 5.85 3.25 4.2 2.55 4.15 2.25 4.0 1.55 3.4 -0.85 2.7 -3.25 2.7 -3.3 1.95 -5.8 1.35 -7.75 1.0 -8.9 0.95 -9.05 0.85 -9.55 3.6 -9.15 5.1 -9.15 5.85 -9.2" fill="#333333" fill-rule="evenodd" stroke="none"/>
      <path d="M5.85 -9.2 L7.5 -9.55 7.65 -6.25 7.7 -4.75 7.75 -3.3 7.75 -3.25 7.85 0.1 7.9 2.25 7.9 2.6 7.85 3.85 7.6 3.75 6.65 3.5 6.7 3.4 6.75 2.65 6.75 2.25 6.8 1.3 6.65 -1.9 6.55 -3.25 6.4 -4.65 5.95 -8.6 5.85 -9.2" fill="#000000" fill-rule="evenodd" stroke="none"/>
      <path d="M8.45 -0.6 L8.6 -0.2 Q8.1 0.2 8.1 0.7 L8.05 2.5 8.1 3.8 8.1 3.95 7.6 3.75 5.85 3.25 3.7 2.3 3.55 2.2 2.8 0.45 Q2.8 0.25 3.0 0.2 L4.4 0.6 4.65 0.55 5.35 0.6 5.65 0.65 5.95 0.65 Q6.6 0.8 7.85 -0.15 L8.4 -0.6 8.45 -0.6" fill="#b41010" fill-rule="evenodd" stroke="none"/>
      <path d="M2.6 8.45 L2.0 8.1 1.95 8.05 1.85 7.15 Q1.85 6.5 2.9 5.5 3.9 4.45 3.9 3.95 3.95 3.35 3.6 2.35 L2.8 0.45 Q2.8 0.25 3.0 0.2 L4.4 0.6 4.65 0.55 5.35 0.6 5.65 0.65 5.95 0.65 5.65 0.7 Q6.2 1.15 6.35 2.25 L6.4 2.65 6.4 2.8 6.5 2.45 6.5 3.25 5.55 6.2 Q4.75 7.75 2.65 7.55 L2.4 7.45 2.85 8.15 2.85 8.25 Q2.7 8.3 2.6 8.45" fill="#006699" fill-rule="evenodd" stroke="none"/>
      <path d="M6.5 3.25 L6.65 3.4 7.6 3.75 8.1 3.95 8.1 5.2 Q7.15 5.85 6.95 6.3 L6.1 7.55 Q5.5 8.4 4.4 8.65 L2.6 8.45 Q2.7 8.3 2.85 8.25 L2.85 8.15 2.4 7.45 2.65 7.55 Q4.75 7.75 5.55 6.2 L6.5 3.25" fill="#001f5d" fill-rule="evenodd" stroke="none"/>
      <path d="M7.35 6.9 L7.0 6.85 6.9 7.1 Q5.8 9.05 4.45 9.05 2.6 9.05 2.1 8.35 L2.05 8.25 2.0 8.15 2.0 8.1 Q3.25 8.9 4.4 8.65 5.5 8.4 6.1 7.55 L6.95 6.3 Q7.15 5.85 8.1 5.2 L8.1 5.55 7.35 6.2 7.35 6.9" fill="#000000" fill-rule="evenodd" stroke="none"/>
      <path d="M7.35 6.9 L7.35 6.2 8.1 5.55 8.1 6.4 7.65 6.75 7.45 6.9 7.35 6.9" fill="#333333" fill-rule="evenodd" stroke="none"/>
      <path d="M8.4 -0.6 L8.45 -0.6 8.6 -0.2 Q8.1 0.2 8.1 0.7 L8.05 2.5 8.1 3.8 8.1 3.95 7.6 3.75 6.4 3.4 6.4 3.25 6.4 2.65 6.35 2.25 Q6.2 1.15 5.65 0.7 6.75 0.65 7.85 -0.15 L8.4 -0.6" fill="#001f5d" fill-rule="evenodd" stroke="none"/>
      <path d="M3.15 0.9 L2.75 0.8 2.35 0.45 Q2.1 0.35 2.1 0.0 L2.15 -0.05 2.1 -0.1 Q2.1 -0.45 2.65 -0.65 L3.0 -0.7 3.1 -0.75 3.85 -0.5 4.35 -0.45 4.65 -0.3 5.05 -0.35 5.75 -0.25 5.85 -0.3 6.7 -0.45 6.85 -0.65 7.5 -0.85 7.95 -0.8 8.2 -0.8 8.45 -0.95 Q8.7 -1.05 8.95 -0.6 L9.15 -0.15 9.15 -0.1 8.2 -0.3 8.1 -0.3 7.5 -0.05 7.45 0.0 7.2 0.35 7.15 0.35 6.3 0.5 5.8 0.4 Q5.65 0.35 5.45 0.55 L4.85 0.8 4.35 0.8 Q4.3 0.35 4.05 0.5 L4.0 0.55 3.45 0.45 3.4 0.45 2.6 0.1 2.55 0.1 3.1 0.65 3.1 0.7 3.15 0.9" fill="#ffffff" fill-rule="evenodd" stroke="none"/>
      <path d="M9.15 -0.1 L8.95 0.15 8.9 0.35 8.65 0.65 8.3 0.85 8.05 0.9 7.0 1.1 6.7 1.25 6.25 1.35 5.95 1.25 5.9 1.25 5.3 1.3 5.2 1.3 4.45 1.15 4.3 1.15 3.85 1.1 3.45 0.9 3.15 0.9 3.1 0.7 3.1 0.65 2.55 0.1 2.6 0.1 3.4 0.45 3.45 0.45 4.0 0.55 4.05 0.5 Q4.3 0.35 4.35 0.8 L4.85 0.8 5.45 0.55 Q5.65 0.35 5.8 0.4 L6.3 0.5 7.15 0.35 7.2 0.35 7.45 0.0 7.5 -0.05 8.1 -0.3 8.2 -0.3 9.15 -0.1" fill="#d2d2d2" fill-rule="evenodd" stroke="none"/>
    </g>
  </defs>
</svg>
