<svg xmlns="http://www.w3.org/2000/svg" xmlns:ffdec="https://www.free-decompiler.com/flash" xmlns:xlink="http://www.w3.org/1999/xlink" ffdec:objectType="frame" width="12.1" height="11.45"><use ffdec:characterId="1" xlink:href="#a" width="11.9" height="11.45"/><defs><linearGradient id="b" x1="-819.2" x2="819.2" gradientTransform="matrix(0 0 0 0 11.45 -1.5)" gradientUnits="userSpaceOnUse" spreadMethod="pad"><stop offset="0" stop-color="#331000"/><stop offset=".137" stop-color="#270f03"/><stop offset=".522"/><stop offset=".878" stop-color="#2e0f02"/><stop offset="1" stop-color="#4a1e0b"/></linearGradient><linearGradient id="f" x1="-819.2" x2="819.2" gradientTransform="matrix(0 0 0 0 11.45 -1.5)" gradientUnits="userSpaceOnUse" spreadMethod="pad"><stop offset="0" stop-color="#331000"/><stop offset=".137" stop-color="#270f03"/><stop offset=".522"/><stop offset=".878" stop-color="#2e0f02"/><stop offset="1" stop-color="#4a1e0b"/></linearGradient><linearGradient id="g" x1="-819.2" x2="819.2" gradientTransform="matrix(-1 0 0 1 11.45 -1.9)" gradientUnits="userSpaceOnUse" spreadMethod="pad"><stop offset="0" stop-color="#331000"/><stop offset=".137" stop-color="#270f03"/><stop offset=".522"/><stop offset=".878" stop-color="#2e0f02"/><stop offset="1" stop-color="#4a1e0b"/></linearGradient><linearGradient id="h" x1="-819.2" x2="819.2" gradientTransform="matrix(0 0 0 0 11.5 -1.5)" gradientUnits="userSpaceOnUse" spreadMethod="pad"><stop offset="0" stop-color="#331000"/><stop offset=".137" stop-color="#270f03"/><stop offset=".522"/><stop offset=".878" stop-color="#2e0f02"/><stop offset="1" stop-color="#4a1e0b"/></linearGradient><radialGradient id="c" cx="0" cy="0" r="819.2" gradientTransform="matrix(-.0053 .0002 .0003 .0056 9.7 6.25)" gradientUnits="userSpaceOnUse" spreadMethod="pad"><stop offset="0" stop-color="#fff" stop-opacity=".706"/><stop offset=".702" stop-color="#fff" stop-opacity="0"/></radialGradient><radialGradient id="d" cx="0" cy="0" r="819.2" gradientTransform="matrix(-1.0902 .0172 -.0007 1.1881 11.55 -3.05)" gradientUnits="userSpaceOnUse" spreadMethod="pad"><stop offset="0" stop-color="#702400" stop-opacity=".659"/><stop offset=".702" stop-color="#0a2e00" stop-opacity=".047"/></radialGradient><radialGradient id="e" cx="0" cy="0" r="819.2" gradientTransform="matrix(-1.0887 .0514 .0472 .9989 11.05 -1.6)" gradientUnits="userSpaceOnUse" spreadMethod="pad"><stop offset="0" stop-color="#702400" stop-opacity=".659"/><stop offset=".702" stop-color="#0a2e00" stop-opacity=".047"/></radialGradient><g id="a" fill-rule="evenodd"><path fill="#fff" d="m11.3 3.75.15 2.05q.1 1.65-1.1 3.75-1.15 2.05-4.4 1.75l.3.05q-2.55-.3-3.5-2-.9-1.7-1.1-2.7Q1.5 5.6 1.75 5 2.5 3.65 2.9 3.65l1.55-.95q1.4-1 2.5-1 1.9 0 3.65 1.25.65.45.7.8"/><path fill="url(#b)" d="m4.9 4.45-.55.75.1.15-.4.4-.7.25-.3.1L4.8 4.3z" transform="translate(-3.05 .55)"/><path fill="#914f00" d="M8.15 1.9Q9.6 3 9.85 5.4q.3 2.35-.65 4.1-.9 1.75-2.95 1.35-2.1-.4-2.75-2.65-.6-2.3-.15-4.05l.25-.85.2.2.2-.45q.2-.6.35-.45.25.15 1.25-.4.8.1 1.1-.25z"/><path fill="#642100" d="m3.6 3.3-.25.85Q2.9 5.9 3.5 8.2q.65 2.25 2.75 2.65 2.05.4 2.95-1.35.95-1.75.65-4.1Q9.6 3 8.15 1.9h.45l.75.85q.6.85.8 2.25t0 2.45l-.45 1.7-.75 1.2-1.2.8-1.6.1q-.95-.1-1.8-.9Q3.5 9.5 3 7.6q-.45-1.9-.05-3.35.3-1.2.65-.95"/><path fill="url(#c)" d="M12.2 2.15q1.1 1.3.95 3.8-.05 2.5-.9 3.55-.9 1.05-2.35 1.2-1.5.05-2.7-1.4-1.1-1.45-1.3-3.8-.15-2.4.95-3.05 1.1-.7 2.65-1.1 1.55-.5 2.7.8" transform="translate(-3.05 .55)"/><path fill="url(#d)" d="M10.15 4.25q.95.4.9 2-.1 2.1-1.6 2.05-.65 0-1-.85-.3-.65-.25-1.35.05-1.5 1.1-1.9z" transform="translate(-3.05 .55)"/><path fill="url(#e)" d="m11.4 5.4-.25-.9.05-.1h.15q.55.65.5 2.6t-1.6 2.2q-1.55.3-2-.3l-.5-.8-.25-.85q-.1-.6-.05-1.7.05-1.15.3-1.45L7.6 5.5q0 1 .45 2.1.5 1.1 1.65 1.15t1.6-1.3q.35-1.3.1-2.05" transform="translate(-3.05 .55)"/><path fill-opacity=".318" d="m11.5 5.5-.05.65h-.05l-.6-.3-.65-.25-1.45-.35-3.25.3Q3.55 6.15 3 6.9l-.7 1.15-.15.3L1.7 6.1q0-1.6 1.55-2.35l1.55-1q1.35-.8 2.25-.8 2 0 3.45 1.25l.9 1.05z"/><path fill="#fff" d="m3.7 6.3-.05-.05-.05-.1-.25-.45.25-.95.8-.7 1.4-.1.35.4.05.75q-.15.95-1.2 1.2t-1.3 0m3.05-.1.05.15q.15.5-.25.65-.45.1-.5-.15L6 6.65l.05-.15.05-.1.2-.15.3-.1z"/><path fill="#fff" fill-opacity=".451" d="M7.5 10.4q-.2.35-.6.15l-.15-.3q-.1-.35.1-.45L7 9.7q.05-.15.3 0 .4.25.2.7m1-.45-.4-.1q-.35-.25-.3-.6-.05-.05.05-.15-.1-.2.25-.25.65-.05.75.5.1.5-.35.6"/><path fill-opacity=".431" d="m6.15 4.35.55.6q.2.45.05 1.1l.1-.05-.1.2-.15-.05-.3.1-.2.15-.05.1-.05.15.05.2-.3.1-1.6-.2-.45-.45q.25.25 1.3 0t1.2-1.2z"/><path fill="#4a1400" fill-opacity=".298" d="m9.25 0 .95.3 1.15.9.5.9-.3-.25-.7-.55-.65-.3L9.1.65 6.85.6Q7.9-.05 9.25 0"/><path fill="url(#f)" d="m7.5 1.6.25-.15q1.75-.9 3.3-.9 1.25-.05 2.2.5l.45.3 1.25 1-1.05-.7-1-.55-1.45-.35L11 .8l-.1.05h-.2l-.45.1-.6.05-.85.25-1 .45q-.6.35-1.45 1.3l-.05-.05-.05-.15q0-.5 1.25-1.2m6.25.35.65.55.1 2.15-.7-1-.3-.35-.4-.3-.55-.45-1.6-.7.15-.1.9.05.05-.05.15-.05.75.5-.05-.2.1-.2-.8-.55q.15-.05 1.05.45zM5.15 5.3l-.05.05h.05l-.2.55.2 1.3v.25l.1.4L4.4 6.3l-.2-.5-1.1.3.55-.35h.05l-.05.1.5-.3.3.6v-.1L4.3 5.4l.05-.1.1-.1.2.05.05.15Q5.1 4 5.75 3.3l.1.15q-.4.65-.7 1.8zM7.55 1l-.4.3Q6.05 2 4.7 3.65l-.6.75-.55.65.55-.8.8-1.2q1-1.3 2.65-2.05" transform="translate(-3.05 .55)"/><path fill="url(#g)" d="M7.5 1.6q-1.25.7-1.25 1.2l.05.15.05.05q.85-.95 1.45-1.3l1-.45.85-.25.6-.05.45-.1h.55l1.15.3.65.3.7.5-.5-.25q-.9-.5-1.05-.45l.8.55-.1.2.05.2-.75-.5-.15.05-.05.05-.9-.05-.15.1-1.2-.05Q8.5 1.95 7.2 3T5.5 4.75l-.35.55v-.05q.3-1.15.7-1.8l-.1-.15Q5.1 4 4.7 5.4l-.05-.15-.2-.05-.1.1-.05.1.15.65v.1l-.3-.6-.5.3.05-.1h-.05l.2-.45.25-.35.6-.9L6.15 2.5q.7-.6 1.35-.9" transform="translate(-3.05 .55)"/><path fill="url(#h)" d="M10.8 10.8q-1 .25-2.2 0-1.2-.2-1.55-.65l1.65.25 2.9-.2 1-.25-.5.4-1 .4z" transform="translate(-3.05 .55)"/></g></defs></svg>