<?xml version="1.0" encoding="UTF-8" standalone="no"?>
<svg xmlns:ffdec="https://www.free-decompiler.com/flash" xmlns:xlink="http://www.w3.org/1999/xlink" ffdec:objectType="frame" height="11.45px" width="12.1px" xmlns="http://www.w3.org/2000/svg">
  <g transform="matrix(1.0, 0.0, 0.0, 1.0, -3.05, 0.55)">
    <use ffdec:characterId="1" height="11.45" transform="matrix(1.0, 0.0, 0.0, 1.0, 3.05, -0.55)" width="11.9" xlink:href="#shape0"/>
  </g>
  <defs>
    <g id="shape0" transform="matrix(1.0, 0.0, 0.0, 1.0, -3.05, 0.55)">
      <path d="M14.35 3.2 L14.5 5.25 Q14.6 6.9 13.4 9.0 12.25 11.05 9.0 10.75 L9.3 10.8 Q6.75 10.5 5.8 8.8 4.9 7.1 4.7 6.1 4.55 5.05 4.8 4.45 5.55 3.1 5.95 3.1 L7.5 2.15 Q8.9 1.15 10.0 1.15 11.9 1.15 13.65 2.4 14.3 2.85 14.35 3.2" fill="#ffffff" fill-rule="evenodd" stroke="none"/>
      <path d="M4.9 4.45 L4.35 5.2 4.45 5.35 4.05 5.75 3.35 6.0 3.05 6.1 4.8 4.3 4.9 4.45" fill="url(#gradient0)" fill-rule="evenodd" stroke="none"/>
      <path d="M11.2 1.35 Q12.65 2.45 12.9 4.85 13.2 7.2 12.25 8.95 11.35 10.7 9.3 10.3 7.2 9.9 6.55 7.65 5.95 5.35 6.4 3.6 L6.65 2.75 6.85 2.95 7.05 2.5 Q7.25 1.9 7.4 2.05 7.65 2.2 8.65 1.65 9.45 1.75 9.75 1.4 L11.2 1.35" fill="#914f00" fill-rule="evenodd" stroke="none"/>
      <path d="M6.65 2.75 L6.4 3.6 Q5.95 5.35 6.55 7.65 7.2 9.9 9.3 10.3 11.35 10.7 12.25 8.95 13.2 7.2 12.9 4.85 12.65 2.45 11.2 1.35 L11.65 1.35 12.4 2.2 Q13.0 3.05 13.2 4.45 13.4 5.85 13.2 6.9 L12.75 8.6 12.0 9.8 10.8 10.6 9.2 10.7 Q8.25 10.6 7.4 9.8 6.55 8.95 6.05 7.05 5.6 5.15 6.0 3.7 6.3 2.5 6.65 2.75" fill="#642100" fill-rule="evenodd" stroke="none"/>
      <path d="M12.2 2.15 Q13.3 3.45 13.15 5.95 13.1 8.45 12.25 9.5 11.35 10.55 9.9 10.7 8.4 10.75 7.2 9.3 6.1 7.85 5.9 5.5 5.75 3.1 6.85 2.45 7.95 1.75 9.5 1.35 11.05 0.85 12.2 2.15" fill="url(#gradient1)" fill-rule="evenodd" stroke="none"/>
      <path d="M10.15 4.25 Q11.1 4.65 11.05 6.25 10.95 8.35 9.45 8.3 8.8 8.3 8.45 7.45 8.15 6.8 8.2 6.1 8.25 4.6 9.3 4.2 L10.15 4.25" fill="url(#gradient2)" fill-rule="evenodd" stroke="none"/>
      <path d="M11.4 5.4 L11.15 4.5 11.2 4.4 11.35 4.4 Q11.9 5.05 11.85 7.0 11.8 8.95 10.25 9.2 8.7 9.5 8.25 8.9 L7.75 8.1 7.5 7.25 Q7.4 6.65 7.45 5.55 7.5 4.4 7.75 4.1 L7.6 5.5 Q7.6 6.5 8.05 7.6 8.55 8.7 9.7 8.75 10.85 8.8 11.3 7.45 11.65 6.15 11.4 5.4" fill="url(#gradient3)" fill-rule="evenodd" stroke="none"/>
      <path d="M14.55 4.95 L14.5 5.6 14.45 5.6 13.85 5.3 13.2 5.05 11.75 4.7 8.5 5.0 Q6.6 5.6 6.05 6.35 L5.35 7.5 5.2 7.8 4.75 5.55 Q4.75 3.95 6.3 3.2 L7.85 2.2 Q9.2 1.4 10.1 1.4 12.1 1.4 13.55 2.65 L14.45 3.7 14.55 4.95" fill="#000000" fill-opacity="0.31764707" fill-rule="evenodd" stroke="none"/>
      <path d="M6.75 5.75 L6.7 5.7 6.65 5.6 6.4 5.15 6.65 4.2 7.45 3.5 8.85 3.4 9.2 3.8 9.25 4.55 Q9.1 5.5 8.05 5.75 7.0 6.0 6.75 5.75 M9.8 5.65 L9.85 5.8 Q10.0 6.3 9.6 6.45 9.15 6.55 9.1 6.3 L9.05 6.1 9.1 5.95 9.15 5.85 9.35 5.7 9.65 5.6 9.8 5.65" fill="#ffffff" fill-rule="evenodd" stroke="none"/>
      <path d="M10.55 9.85 Q10.35 10.2 9.95 10.0 L9.8 9.7 Q9.7 9.35 9.9 9.25 L10.05 9.15 Q10.1 9.0 10.35 9.15 10.75 9.4 10.55 9.85 M11.55 9.4 L11.15 9.3 Q10.8 9.05 10.85 8.7 10.8 8.65 10.9 8.55 10.8 8.35 11.15 8.3 11.8 8.25 11.9 8.8 12.0 9.3 11.55 9.4" fill="#ffffff" fill-opacity="0.4509804" fill-rule="evenodd" stroke="none"/>
      <path d="M9.2 3.8 L9.75 4.4 Q9.95 4.85 9.8 5.5 L9.9 5.45 9.8 5.65 9.65 5.6 9.35 5.7 9.15 5.85 9.1 5.95 9.05 6.1 9.1 6.3 8.8 6.4 7.2 6.2 6.75 5.75 Q7.0 6.0 8.05 5.75 9.1 5.5 9.25 4.55 L9.2 3.8" fill="#000000" fill-opacity="0.43137255" fill-rule="evenodd" stroke="none"/>
      <path d="M12.3 -0.55 L13.25 -0.25 14.4 0.65 14.9 1.55 14.6 1.3 13.9 0.75 13.25 0.45 12.15 0.1 9.9 0.05 Q10.95 -0.6 12.3 -0.55" fill="#4a1400" fill-opacity="0.29803923" fill-rule="evenodd" stroke="none"/>
      <path d="M7.5 1.6 L7.75 1.45 Q9.5 0.55 11.05 0.55 12.3 0.5 13.25 1.05 L13.7 1.35 14.95 2.35 13.9 1.65 12.9 1.1 11.45 0.75 11.0 0.8 10.9 0.85 10.7 0.85 10.25 0.95 9.65 1.0 8.8 1.25 7.8 1.7 Q7.2 2.05 6.35 3.0 L6.3 2.95 6.25 2.8 Q6.25 2.3 7.5 1.6 M13.75 1.95 L14.4 2.5 14.5 4.65 13.8 3.65 13.5 3.3 13.1 3.0 12.55 2.55 10.95 1.85 11.1 1.75 12.0 1.8 12.05 1.75 12.2 1.7 12.95 2.2 12.9 2.0 13.0 1.8 12.2 1.25 Q12.35 1.2 13.25 1.7 L13.75 1.95 M5.15 5.3 L5.1 5.35 5.15 5.35 4.95 5.9 5.15 7.2 5.15 7.45 5.25 7.85 4.4 6.3 4.2 5.8 3.1 6.1 3.65 5.75 3.7 5.75 3.65 5.85 4.15 5.55 4.45 6.15 4.45 6.05 4.3 5.4 4.35 5.3 4.45 5.2 4.65 5.25 4.7 5.4 Q5.1 4.0 5.75 3.3 L5.85 3.45 Q5.45 4.1 5.15 5.25 L5.15 5.3 M7.55 1.0 L7.15 1.3 Q6.05 2.0 4.7 3.65 L4.1 4.4 3.55 5.05 4.1 4.25 4.9 3.05 Q5.9 1.75 7.55 1.0" fill="url(#gradient4)" fill-rule="evenodd" stroke="none"/>
      <path d="M7.5 1.6 Q6.25 2.3 6.25 2.8 L6.3 2.95 6.35 3.0 Q7.2 2.05 7.8 1.7 L8.8 1.25 9.65 1.0 10.25 0.95 10.7 0.85 10.9 0.85 11.25 0.85 12.4 1.15 13.05 1.45 13.75 1.95 13.25 1.7 Q12.35 1.2 12.2 1.25 L13.0 1.8 12.9 2.0 12.95 2.2 12.2 1.7 12.05 1.75 12.0 1.8 11.1 1.75 10.95 1.85 9.75 1.8 Q8.5 1.95 7.2 3.0 5.9 4.05 5.5 4.75 L5.15 5.3 5.15 5.25 Q5.45 4.1 5.85 3.45 L5.75 3.3 Q5.1 4.0 4.7 5.4 L4.65 5.25 4.45 5.2 4.35 5.3 4.3 5.4 4.45 6.05 4.45 6.15 4.15 5.55 3.65 5.85 3.7 5.75 3.65 5.75 3.85 5.3 4.1 4.95 4.7 4.05 6.15 2.5 Q6.85 1.9 7.5 1.6" fill="url(#gradient5)" fill-rule="evenodd" stroke="none"/>
      <path d="M10.8 10.8 Q9.8 11.05 8.6 10.8 7.4 10.6 7.05 10.15 L8.7 10.4 11.6 10.2 12.6 9.95 12.1 10.35 11.1 10.75 10.8 10.8" fill="url(#gradient6)" fill-rule="evenodd" stroke="none"/>
    </g>
    <linearGradient gradientTransform="matrix(0.0, 0.0, 0.0, 0.0, 11.45, -1.5)" gradientUnits="userSpaceOnUse" id="gradient0" spreadMethod="pad" x1="-819.2" x2="819.2">
      <stop offset="0.0" stop-color="#331000"/>
      <stop offset="0.13725490196078433" stop-color="#270f03"/>
      <stop offset="0.5215686274509804" stop-color="#000000"/>
      <stop offset="0.8784313725490196" stop-color="#2e0f02"/>
      <stop offset="1.0" stop-color="#4a1e0b"/>
    </linearGradient>
    <radialGradient cx="0" cy="0" gradientTransform="matrix(-0.0053, 2.0E-4, 3.0E-4, 0.0056, 9.7, 6.25)" gradientUnits="userSpaceOnUse" id="gradient1" r="819.2" spreadMethod="pad">
      <stop offset="0.0" stop-color="#ffffff" stop-opacity="0.7058824"/>
      <stop offset="0.7019607843137254" stop-color="#ffffff" stop-opacity="0.0"/>
    </radialGradient>
    <radialGradient cx="0" cy="0" gradientTransform="matrix(-1.0902, 0.0172, -7.0E-4, 1.1881, 11.55, -3.05)" gradientUnits="userSpaceOnUse" id="gradient2" r="819.2" spreadMethod="pad">
      <stop offset="0.0" stop-color="#702400" stop-opacity="0.65882355"/>
      <stop offset="0.7019607843137254" stop-color="#0a2e00" stop-opacity="0.047058824"/>
    </radialGradient>
    <radialGradient cx="0" cy="0" gradientTransform="matrix(-1.0887, 0.0514, 0.0472, 0.9989, 11.05, -1.6)" gradientUnits="userSpaceOnUse" id="gradient3" r="819.2" spreadMethod="pad">
      <stop offset="0.0" stop-color="#702400" stop-opacity="0.65882355"/>
      <stop offset="0.7019607843137254" stop-color="#0a2e00" stop-opacity="0.047058824"/>
    </radialGradient>
    <linearGradient gradientTransform="matrix(0.0, 0.0, 0.0, 0.0, 11.45, -1.5)" gradientUnits="userSpaceOnUse" id="gradient4" spreadMethod="pad" x1="-819.2" x2="819.2">
      <stop offset="0.0" stop-color="#331000"/>
      <stop offset="0.13725490196078433" stop-color="#270f03"/>
      <stop offset="0.5215686274509804" stop-color="#000000"/>
      <stop offset="0.8784313725490196" stop-color="#2e0f02"/>
      <stop offset="1.0" stop-color="#4a1e0b"/>
    </linearGradient>
    <linearGradient gradientTransform="matrix(-1.0, 0.0, 0.0, 1.0, 11.45, -1.9)" gradientUnits="userSpaceOnUse" id="gradient5" spreadMethod="pad" x1="-819.2" x2="819.2">
      <stop offset="0.0" stop-color="#331000"/>
      <stop offset="0.13725490196078433" stop-color="#270f03"/>
      <stop offset="0.5215686274509804" stop-color="#000000"/>
      <stop offset="0.8784313725490196" stop-color="#2e0f02"/>
      <stop offset="1.0" stop-color="#4a1e0b"/>
    </linearGradient>
    <linearGradient gradientTransform="matrix(0.0, 0.0, 0.0, 0.0, 11.5, -1.5)" gradientUnits="userSpaceOnUse" id="gradient6" spreadMethod="pad" x1="-819.2" x2="819.2">
      <stop offset="0.0" stop-color="#331000"/>
      <stop offset="0.13725490196078433" stop-color="#270f03"/>
      <stop offset="0.5215686274509804" stop-color="#000000"/>
      <stop offset="0.8784313725490196" stop-color="#2e0f02"/>
      <stop offset="1.0" stop-color="#4a1e0b"/>
    </linearGradient>
  </defs>
</svg>
