<?xml version="1.0" encoding="UTF-8" standalone="no"?>
<svg xmlns:ffdec="https://www.free-decompiler.com/flash" xmlns:xlink="http://www.w3.org/1999/xlink" ffdec:objectType="frame" height="11.75px" width="15.0px" xmlns="http://www.w3.org/2000/svg">
  <g transform="matrix(1.0, 0.0, 0.0, 1.0, -0.25, 0.35)">
    <use ffdec:characterId="1" height="11.75" transform="matrix(1.0, 0.0, 0.0, 1.0, 0.25, -0.35)" width="15.0" xlink:href="#shape0"/>
    <use ffdec:characterId="3" height="9.15" id="Color" transform="matrix(1.0, 0.0, 0.0, 1.0, 4.05, 1.8)" width="9.25" xlink:href="#sprite0"/>
    <use ffdec:characterId="4" height="9.15" transform="matrix(1.0, 0.0, 0.0, 1.0, 2.05, 1.8)" width="12.0" xlink:href="#shape2"/>
  </g>
  <defs>
    <g id="shape0" transform="matrix(1.0, 0.0, 0.0, 1.0, -0.25, 0.35)">
      <path d="M12.95 3.3 L11.4 2.75 Q7.2 1.75 5.0 1.8 3.4 1.85 2.8 2.55 1.75 3.6 2.2 6.15 L2.35 6.95 2.4 7.1 2.65 8.0 Q1.4 6.5 1.15 5.05 L0.55 5.6 Q0.2 3.8 1.45 2.0 L0.45 1.9 0.25 1.85 Q2.15 0.45 6.8 0.7 11.1 0.95 15.2 2.4 L13.65 2.45 Q14.95 3.6 15.25 5.0 L14.0 3.95 12.95 3.3 M6.95 10.7 L9.3 10.95 10.95 10.7 11.2 10.65 12.45 10.25 12.7 10.05 12.6 10.25 12.5 10.35 11.95 10.75 12.75 10.8 11.25 11.05 11.65 11.35 10.8 11.2 7.95 11.25 6.75 11.35 7.25 11.15 5.8 10.9 6.4 10.8 5.4 10.3 5.15 10.0 5.8 10.3 6.0 10.4 6.95 10.7" fill="#3a2d2b" fill-rule="evenodd" stroke="none"/>
      <path d="M12.95 3.3 L14.0 3.95 Q14.1 7.8 12.65 10.2 L12.6 10.25 12.7 10.05 12.45 10.25 11.2 10.65 10.95 10.7 11.05 10.65 Q12.3 9.95 12.9 7.85 L13.3 5.55 Q13.3 4.35 12.95 3.3 M2.4 7.1 L2.35 6.95 2.2 6.15 Q1.75 3.6 2.8 2.55 3.4 1.85 5.0 1.8 3.9 3.65 4.05 5.55 4.3 8.25 6.95 10.7 L6.0 10.4 5.8 10.3 Q3.05 8.45 2.4 7.1" fill="#ffffff" fill-rule="evenodd" stroke="none"/>
      <path d="M13.5 0.9 Q11.15 -0.4 7.5 -0.3" fill="none" stroke="#3a2d2b" stroke-linecap="round" stroke-linejoin="round" stroke-width="0.15000000000000002"/>
    </g>
    <g id="sprite0" transform="matrix(1.0, 0.0, 0.0, 1.0, 0.0, 0.0)">
      <use ffdec:characterId="2" height="9.15" transform="matrix(1.0, 0.0, 0.0, 1.0, 0.0, 0.0)" width="9.25" xlink:href="#shape1"/>
    </g>
    <g id="shape1" transform="matrix(1.0, 0.0, 0.0, 1.0, 0.0, 0.0)">
      <path d="M5.25 9.15 L2.9 8.9 Q0.25 6.45 0.0 3.75 -0.15 1.85 0.95 0.0 3.15 -0.05 7.35 0.95 L8.9 1.5 Q9.25 2.55 9.25 3.75 L8.85 6.05 Q8.25 8.15 7.0 8.85 L6.9 8.9 5.25 9.15" fill="#30aa70" fill-rule="evenodd" stroke="none"/>
    </g>
    <g id="shape2" transform="matrix(1.0, 0.0, 0.0, 1.0, -2.05, -1.8)">
      <path d="M12.9 7.85 Q12.2 10.15 10.75 10.75 L9.3 10.95 7.0 10.75 Q2.35 6.35 5.0 1.8 7.25 1.7 11.4 2.75 L12.95 3.3 Q13.65 5.45 12.9 7.85" fill="url(#gradient0)" fill-rule="evenodd" stroke="none"/>
      <path d="M10.65 6.55 Q10.65 7.45 10.2 8.05 L9.1 8.7 Q8.45 8.7 8.0 8.05 7.55 7.45 7.55 6.55 7.55 5.65 8.0 5.0 L8.25 4.75 7.95 4.75 Q5.95 4.85 4.05 5.55 3.9 3.7 5.0 1.8 7.25 1.7 11.4 2.75 L12.95 3.3 Q13.3 4.4 13.3 5.55 L10.25 4.9 10.15 4.85 10.1 4.85 10.1 4.9 10.15 4.9 10.15 4.95 10.2 5.0 Q10.65 5.65 10.65 6.55" fill="#000000" fill-opacity="0.49803922" fill-rule="evenodd" stroke="none"/>
      <path d="M10.15 4.85 L10.1 4.85 10.1 4.9 10.15 4.9 10.15 4.95 10.2 5.0 Q10.65 5.65 10.65 6.55 10.65 7.45 10.2 8.05 L9.1 8.7 Q8.45 8.7 8.0 8.05 7.55 7.45 7.55 6.55 7.55 5.65 8.0 5.0 L8.25 4.75 7.95 4.75 Q5.95 4.85 4.05 5.55 3.9 3.7 5.0 1.8 7.25 1.7 11.4 2.75 L12.95 3.3 Q13.3 4.4 13.3 5.55 L10.25 4.9 10.15 4.85" fill="url(#gradient1)" fill-rule="evenodd" stroke="none"/>
      <path d="M11.55 8.4 Q11.85 8.8 11.8 9.3 L11.5 9.95 10.8 10.0 10.1 9.45 Q9.8 9.0 9.8 8.6 9.8 8.1 10.1 7.95 L10.8 7.85 11.55 8.4 M7.1 2.5 Q7.6 2.8 7.6 3.6 7.6 4.35 7.1 5.05 6.6 5.75 5.95 6.0 L4.75 5.9 Q4.25 5.55 4.25 4.8 4.15 4.0 4.65 3.3 5.15 2.6 5.9 2.4 L7.1 2.5" fill="#ffffff" fill-rule="evenodd" stroke="none"/>
      <path d="M9.25 3.3 L9.35 3.7 9.1 4.05 8.7 4.1 8.3 3.95 Q8.2 3.8 8.25 3.55 L8.5 3.25 Q8.75 3.1 8.95 3.1 9.2 3.15 9.25 3.3" fill="#ffffff" fill-opacity="0.6" fill-rule="evenodd" stroke="none"/>
      <path d="M12.95 3.3 L14.0 3.95 14.05 4.9 13.3 4.5 Q9.1 2.45 4.1 4.35 3.05 4.7 2.1 5.3 1.9 3.45 2.8 2.55 3.4 1.85 5.0 1.8 7.25 1.7 11.4 2.75 L12.95 3.3" fill="#000000" fill-opacity="0.29803923" fill-rule="evenodd" stroke="none"/>
    </g>
    <linearGradient gradientTransform="matrix(0.0, -0.0056, 0.0056, 0.0, 8.65, 6.4)" gradientUnits="userSpaceOnUse" id="gradient0" spreadMethod="pad" x1="-819.2" x2="819.2">
      <stop offset="0.1803921568627451" stop-color="#000000" stop-opacity="0.49803922"/>
      <stop offset="1.0" stop-color="#000000" stop-opacity="0.0"/>
    </linearGradient>
    <linearGradient gradientTransform="matrix(0.0, -0.0042, 0.0056, 0.0, 8.65, 5.25)" gradientUnits="userSpaceOnUse" id="gradient1" spreadMethod="pad" x1="-819.2" x2="819.2">
      <stop offset="0.5529411764705883" stop-color="#000000" stop-opacity="0.0"/>
      <stop offset="1.0" stop-color="#000000" stop-opacity="0.49803922"/>
    </linearGradient>
  </defs>
</svg>
