<?xml version="1.0" encoding="UTF-8" standalone="no"?>
<svg xmlns:ffdec="https://www.free-decompiler.com/flash" xmlns:xlink="http://www.w3.org/1999/xlink" ffdec:objectType="frame" height="11.75px" width="15.0px" xmlns="http://www.w3.org/2000/svg">
  <g transform="matrix(1.0, 0.0, 0.0, 1.0, -0.25, 0.35)">
    <use ffdec:characterId="7" height="4.75" transform="matrix(1.0, 0.0, 0.0, 1.0, 2.35, 6.4)" width="12.35" xlink:href="#shape0"/>
    <use ffdec:characterId="3" height="9.15" id="Color" transform="matrix(1.0, 0.0, 0.0, 0.6831, 4.05, 4.85)" width="9.25" xlink:href="#sprite0"/>
  </g>
  <defs>
    <g id="shape0" transform="matrix(1.0, 0.0, 0.0, 1.0, -2.35, -6.4)">
      <path d="M13.05 10.45 L11.0 10.95 6.95 10.85 5.85 10.6 3.35 10.75 Q4.0 10.7 4.55 10.15 L3.6 9.9 2.4 9.25 Q3.75 9.4 4.25 8.9 3.25 8.35 2.75 6.45 3.65 7.7 4.85 8.3 6.1 8.9 8.05 9.3 L14.65 8.9 13.65 9.55 13.5 9.8 13.5 10.15 14.1 11.05 13.05 10.45" fill="#3a2d2b" fill-rule="evenodd" stroke="none"/>
      <path d="M13.05 10.45 L11.0 10.95 6.95 10.85 5.85 10.6 3.35 10.75 Q4.0 10.7 4.55 10.15 L3.6 9.9 2.4 9.25 Q3.75 9.4 4.25 8.9 3.25 8.35 2.75 6.45 3.65 7.7 4.85 8.3 6.1 8.9 8.05 9.3 L14.65 8.9 13.65 9.55 13.5 9.8 13.5 10.15 14.1 11.05 13.05 10.45 M13.7 7.5 Q11.65 8.45 9.4 8.25" fill="none" stroke="#3a2d2b" stroke-linecap="round" stroke-linejoin="round" stroke-width="0.15000000000000002"/>
    </g>
    <g id="sprite0" transform="matrix(1.0, 0.0, 0.0, 1.0, 0.0, 0.0)">
      <use ffdec:characterId="2" height="9.15" transform="matrix(1.0, 0.0, 0.0, 1.0, 0.0, 0.0)" width="9.25" xlink:href="#shape1"/>
    </g>
    <g id="shape1" transform="matrix(1.0, 0.0, 0.0, 1.0, 0.0, 0.0)">
      <path d="M5.25 9.15 L2.9 8.9 Q0.25 6.45 0.0 3.75 -0.15 1.85 0.95 0.0 3.15 -0.05 7.35 0.95 L8.9 1.5 Q9.25 2.55 9.25 3.75 L8.85 6.05 Q8.25 8.15 7.0 8.85 L6.9 8.9 5.25 9.15" fill="#30aa70" fill-opacity="0.0" fill-rule="evenodd" stroke="none"/>
    </g>
  </defs>
</svg>
