<svg xmlns="http://www.w3.org/2000/svg" xmlns:ffdec="https://www.free-decompiler.com/flash" xmlns:xlink="http://www.w3.org/1999/xlink" ffdec:objectType="frame" width="15" height="11.75"><g transform="translate(-.25 .35)"><use ffdec:characterId="7" xlink:href="#a" width="12.35" height="4.75" transform="translate(2.35 6.4)"/><use ffdec:characterId="3" xlink:href="#b" width="9.25" height="9.15" transform="matrix(1 0 0 .6831 4.05 4.85)"/></g><defs><path id="c" fill="#30aa70" fill-opacity="0" fill-rule="evenodd" d="M5.25 9.15 2.9 8.9Q.25 6.45 0 3.75-.15 1.85.95 0q2.2-.05 6.4.95l1.55.55q.35 1.05.35 2.25l-.4 2.3q-.6 2.1-1.85 2.8l-.1.05z"/><use ffdec:characterId="2" xlink:href="#c" id="b" width="9.25" height="9.15"/><g id="a"><path fill="#3a2d2b" fill-rule="evenodd" d="m10.7 4.05-2.05.5-4.05-.1-1.1-.25-2.5.15q.65-.05 1.2-.6l-.95-.25-1.2-.65Q1.4 3 1.9 2.5.9 1.95.4.05 1.3 1.3 2.5 1.9q1.25.6 3.2 1l6.6-.4-1 .65-.15.25v.35l.6.9z"/><path fill="none" stroke="#3a2d2b" stroke-linecap="round" stroke-linejoin="round" stroke-width=".15" d="m10.7 4.05-2.05.5-4.05-.1-1.1-.25-2.5.15q.65-.05 1.2-.6l-.95-.25-1.2-.65Q1.4 3 1.9 2.5.9 1.95.4.05 1.3 1.3 2.5 1.9q1.25.6 3.2 1l6.6-.4-1 .65-.15.25v.35l.6.9zm.65-2.95q-2.05.95-4.3.75"/></g></defs></svg>