<svg xmlns="http://www.w3.org/2000/svg" xmlns:ffdec="https://www.free-decompiler.com/flash" xmlns:xlink="http://www.w3.org/1999/xlink" ffdec:objectType="frame" width="13.15" height="10.2"><use ffdec:characterId="14" xlink:href="#a" width="13.05" height="7.45" transform="translate(.1 2.75)"/><defs><g id="a" fill-rule="evenodd"><path fill="#fff" d="m10.5 2.45.9.75q.75.7.8 1.15 0 .4-2.1 1.7t-4.6 1.4Q3 7.45 1.75 6.3l-.65-.7-.2-.4-.25-.3-.1-.55q.05-.8 1.65-1.7 1.1-.6 2.45-.9l2.1-.25 1.45.25q1.6.3 2.3.7m-.3.6L10.05 3l.1.15z"/><path fill="#9c286e" d="m5.6 1.7 1.25.05q.85.2 1.4.7.85.7 1 1.7.1 1-.35 1.65l-.85.85-.85.4-1.35.15-1.75-.3-1.35-1.15q-.6-.75-.55-1.6.25-2.25 3.4-2.45"/><path fill="#fff" fill-opacity=".259" d="M7.85 3.6q.3 0 .4.6.35 1.9-1.9 2.25-2.3.35-2.85-1h-.05l-.2-.5-.05-.5.05-.35.15-.1h.15v.2H3.5l.05.3.35.65q.45.45.95.55H6.1l.8-.2.5-.35.3-.45V3.65h.05zM6.45 3q.65.2.9.8.2.65-.35 1.1-.45.45-1.2.55-.7.05-1.3-.3-.5-.3-.6-.85-.05-.5.35-.95.5-.35 1-.45z"/><path fill="#fff" d="M7.75 4.75q.9.15.95.55.1.5-.6.55-.9.1-1.2-.75-.1-.45.85-.35M4.4 4.1q-.65-.05-.6-.45 0-.45.65-.45.6 0 .6.5-.05.4-.65.4"/><path fill="#e274c9" fill-opacity=".51" d="m6.7 5.45.25.65q-.05.45-.75.55h-.95q-.85 0-1.4-.45-.55-.5-.35-1.05.15-.55 1.05-.5l1.35.25z"/><path fill-opacity=".2" d="M10.45 2.35q.5.2.9.5 1.1.8 1.1 1.3l-1.5 1.1-.5-.5-.6-.55Q8.5 3.15 6.6 3.15q-2.55 0-3.9 1.05l-.45.5-1.1 1-.2-.4-.35-.4-.2-.4q0-.7 1.45-1.55Q3.6 1.9 6.3 1.75l1.15-.05.8.05q1.2.1 2.2.6"/><path fill="#513624" d="m10.45 1.8.5.25 2.1 1.75-1.8 1.75-1.25.6.6-.6.25-.35.5-1.1-.05-.15-.85-1q-.65-.6-1.4-.75l-2.3-.45H6.5l-2.45.45Q2.3 2.75 1.5 3.55l-.6.6-.25.35-.15.2-.1-.05L.1 4l.05-.05L0 3.6l1.2-1.15 1.4-.8 1.4-.4.5-.1 3.15-.2 1 .2 1.75.6z"/><path fill="#6b3a00" fill-opacity=".694" d="M2.9.85q-1.2.4-1.95.9l-.15.1-.75.55.2-.65V1.6Q.35 1 2 .35 3.6-.35 8.55.3z"/></g></defs></svg>