<svg xmlns="http://www.w3.org/2000/svg" xmlns:ffdec="https://www.free-decompiler.com/flash" xmlns:xlink="http://www.w3.org/1999/xlink" ffdec:objectType="frame" width="13.15" height="10.75"><use ffdec:characterId="2" xlink:href="#a" width="12.45" height="7.35" transform="translate(0 3.4)"/><defs><radialGradient id="b" cx="0" cy="0" r="819.2" gradientTransform="matrix(-.0061 0 0 .0042 9.7 7.45)" gradientUnits="userSpaceOnUse" spreadMethod="pad"><stop offset="0"/><stop offset=".769" stop-color="#3a3a3a" stop-opacity=".988"/></radialGradient><g id="a" fill-rule="evenodd"><path fill="#fff" d="m12.1 3.4.05.45q0 1.3-1.5 2.35-1.6 1.15-3.85 1.15l-.6-.05q-2.15-.05-3.3-1.4-.8-.9-1.05-1.55L1.6 3.5l.2-.7.1-.25.5-.7Q3.3.9 7.05.65q1.9.3 3.25 1.15l1.75 1.55h.05z"/><path fill="url(#b)" d="M7 5.35q.9-.85 2.9-.85 2.15.2 2.75.95.7.75.75 1.9.05 1.1-1 2.1-1 1-3.05 1-1.95-.05-2.7-1.1-.75-1.1-.65-2.1.15-1.05 1-1.9" transform="translate(-2.6 -3.25)"/><path fill-opacity=".941" d="m9.3 3.75.1.5-.05.35-.25-.2zm-.35.95.35.2-.2.5-.3-.25-.1-.1.25-.3zm-.9 1.5-.75.2V6l-.05-.15.45-.1.2.25zM8 5.65l.55-.4.35.4-.5.4zm-3-1.6h-.4l.75-.65q-.25.2-.35.65m0 .7-.45.15h-.1v-.55l.55-.1v.5m0 .9-.1.1-.2-.25-.15-.35.5-.15.3.45zm.25.25.35-.25.55.15-.15.5-.85-.35zm1.05.45.15-.45h.4l.05.5h-.35z"/><path fill="#fff" d="m10.25 6-.15.4h-.2l-.85.15-1-.25q-.45-.3-.4-.65 0-.4.65-.75l1.25-.1.75.55z"/><path fill-opacity=".322" d="M10.7 3.85 9.6 3.3q-1.55-.5-3.5-.45-1.95 0-2.95.55l-1.2.95-.2-.3-.3-.35v-.45q0-1.1 1.4-1.8Q4.2.8 6.4.8t4.25 1.35l1.4 1.15.05.05.15.5q0 .5-.4.95-.2-.45-1.15-.95"/><path d="M12.45 2.75v.05l-1.6-.9.6.6q.45.35.85 1.45l-2-1.65Q8.45 1.25 5.85 1.2q-2.2.2-3.25 1.1-.8.75-.7 2.05-1.35-1.7-.85-1.8l-.6-.2L0 2.1l.2-.05.55.05.55-.05.45-.4H1.4l-.6-.2L.4 1l1.25.35h.6l.2-.1.4-.2H2.8q-.75-.2-.75-.4l1.3.1.4-.05H4l.45-.1h-.1L6.8.4l2.1.2 1.9.65q1.3.55 1.65 1.5m-.35-1.2Q11.45 1 10.25.6L6.45.05l-.9.1L6.9 0q2.75-.05 3.75.5 1.1.55 1.25.85z"/></g></defs></svg>