<?xml version="1.0" encoding="UTF-8" standalone="no"?>
<svg xmlns:ffdec="https://www.free-decompiler.com/flash" xmlns:xlink="http://www.w3.org/1999/xlink" ffdec:objectType="frame" height="10.2px" width="13.15px" xmlns="http://www.w3.org/2000/svg">
  <g transform="matrix(1.0, 0.0, 0.0, 1.0, 2.95, -0.6)">
    <use ffdec:characterId="15" height="2.55" transform="matrix(1.0, 0.0, 0.0, 1.0, -2.95, 6.8)" width="12.95" xlink:href="#shape0"/>
  </g>
  <defs>
    <g id="shape0" transform="matrix(1.0, 0.0, 0.0, 1.0, 2.95, -6.8)">
      <path d="M9.4 6.8 L8.7 7.55 10.0 7.7 8.5 7.95 8.2 7.95 7.95 8.15 9.0 8.2 8.55 8.45 7.9 8.55 7.35 8.5 7.1 8.65 7.8 8.75 8.1 8.75 7.65 9.0 7.1 9.1 6.95 9.1 6.35 9.05 6.95 9.15 6.8 9.15 6.1 9.15 1.5 9.3 -0.4 8.85 -1.75 8.3 -2.85 7.8 -2.95 7.7 -2.85 7.75 4.95 7.95 7.15 7.55 8.95 7.0 9.4 6.8" fill="#513624" fill-rule="evenodd" stroke="none"/>
      <path d="M0.9 7.7 L-2.95 7.1 -2.95 7.05 -2.7 7.05 1.6 7.25 7.7 6.8 6.4 7.25 3.7 7.75 1.2 7.75 0.9 7.7" fill="#6b3a00" fill-opacity="0.69411767" fill-rule="evenodd" stroke="none"/>
    </g>
  </defs>
</svg>
