<?xml version="1.0" encoding="UTF-8" standalone="no"?>
<svg xmlns:ffdec="https://www.free-decompiler.com/flash" xmlns:xlink="http://www.w3.org/1999/xlink" ffdec:objectType="frame" height="10.65px" width="12.8px" xmlns="http://www.w3.org/2000/svg">
  <g transform="matrix(1.0, 0.0, 0.0, 1.0, 3.0, -1.15)">
    <use ffdec:characterId="7" height="9.9" transform="matrix(1.0, 0.0, 0.0, 1.0, -3.0, 1.15)" width="12.8" xlink:href="#shape0"/>
  </g>
  <defs>
    <g id="shape0" transform="matrix(1.0, 0.0, 0.0, 1.0, 3.0, -1.15)">
      <path d="M1.9 2.25 L0.1 2.6 -1.4 3.25 -1.3 3.25 -2.15 3.65 -2.95 3.95 -3.0 3.75 Q-3.0 3.3 -1.75 2.6 L0.05 1.7 Q1.2 1.15 3.3 1.15 L5.25 1.45 Q6.35 1.8 6.9 2.25 L1.9 2.25" fill="#9a7e65" fill-opacity="0.49803922" fill-rule="evenodd" stroke="none"/>
      <path d="M-1.8 4.65 L1.05 4.2 Q5.0 3.85 8.05 4.9 7.9 7.85 6.7 10.45 L3.15 11.05 -0.25 10.45 -1.3 7.9 Q-1.85 6.05 -1.8 4.65" fill="#ffffff" fill-rule="evenodd" stroke="none"/>
      <path d="M-1.8 4.65 L-1.7 3.75 Q-1.15 3.15 -0.4 2.75 L-0.05 2.6 Q3.3 1.55 7.95 2.8 L8.05 4.9 Q5.0 3.85 1.05 4.2 L-1.8 4.65" fill="#cbcbcb" fill-rule="evenodd" stroke="none"/>
      <path d="M6.8 6.2 Q6.8 10.55 2.85 10.55 0.55 10.55 -0.45 8.85 -1.15 7.7 -1.15 6.2 -1.15 4.05 -0.25 3.05 0.95 1.85 2.85 1.85 4.8 1.85 5.95 3.1 6.8 4.0 6.8 6.2" fill="url(#gradient0)" fill-rule="evenodd" stroke="none"/>
      <path d="M4.35 7.85 Q3.7 8.65 2.85 8.65 2.0 8.65 1.3 7.85 0.7 7.15 0.7 6.1 0.7 5.05 1.3 4.25 2.0 3.5 2.85 3.5 3.7 3.5 4.35 4.25 5.0 5.05 5.0 6.1 5.0 7.15 4.35 7.85" fill="url(#gradient1)" fill-rule="evenodd" stroke="none"/>
      <path d="M1.35 4.7 L1.0 5.45 Q0.7 5.8 0.25 5.8 L-0.55 5.45 -0.85 4.7 -0.55 3.9 Q-0.2 3.6 0.25 3.6 0.7 3.6 1.0 3.9 L1.35 4.7" fill="#ffffff" fill-rule="evenodd" stroke="none"/>
      <path d="M3.05 9.3 Q2.5 8.75 2.5 8.0 2.5 7.25 3.05 6.7 3.6 6.15 4.35 6.15 5.1 6.15 5.65 6.7 6.2 7.25 6.2 8.0 6.2 8.75 5.65 9.3 5.1 9.85 4.35 9.85 3.6 9.85 3.05 9.3" fill="url(#gradient2)" fill-rule="evenodd" stroke="none"/>
      <path d="M8.15 2.35 Q8.95 2.15 9.65 1.4 L9.35 1.9 8.55 2.8 9.8 3.9 8.9 4.05 9.75 5.75 8.0 4.1 8.3 5.0 8.7 5.8 7.6 4.8 Q6.85 3.95 6.6 3.2 4.25 2.1 1.4 2.75 -1.15 3.3 -3.0 4.7 -2.6 3.95 -1.55 3.15 0.55 1.55 3.95 1.55 L6.1 1.8 Q7.0 2.0 7.75 2.4 L8.15 2.35" fill="url(#gradient3)" fill-rule="evenodd" stroke="none"/>
    </g>
    <radialGradient cx="0" cy="0" gradientTransform="matrix(0.0073, 0.0, 0.0, 0.0073, 2.9, 9.45)" gradientUnits="userSpaceOnUse" id="gradient0" r="819.2" spreadMethod="pad">
      <stop offset="0.0" stop-color="#70d8b1"/>
      <stop offset="1.0" stop-color="#34978f"/>
    </radialGradient>
    <radialGradient cx="0" cy="0" gradientTransform="matrix(0.003, 0.0043, -0.0043, 0.003, 2.85, 7.45)" gradientUnits="userSpaceOnUse" id="gradient1" r="819.2" spreadMethod="pad">
      <stop offset="0.0" stop-color="#000000" stop-opacity="0.0"/>
      <stop offset="1.0" stop-color="#041620" stop-opacity="0.64705884"/>
    </radialGradient>
    <radialGradient cx="0" cy="0" gradientTransform="matrix(0.0056, 0.0, 0.0, 0.0056, 3.7, 5.95)" gradientUnits="userSpaceOnUse" id="gradient2" r="819.2" spreadMethod="pad">
      <stop offset="0.5058823529411764" stop-color="#ffffff" stop-opacity="0.0"/>
      <stop offset="1.0" stop-color="#ffffff" stop-opacity="0.9254902"/>
    </radialGradient>
    <linearGradient gradientTransform="matrix(1.026, 0.0, 0.0, 1.14, -0.05, -0.5)" gradientUnits="userSpaceOnUse" id="gradient3" spreadMethod="pad" x1="-819.2" x2="819.2">
      <stop offset="0.0" stop-color="#000410"/>
      <stop offset="0.5058823529411764" stop-color="#080831"/>
      <stop offset="1.0" stop-color="#000107"/>
    </linearGradient>
  </defs>
</svg>
