<svg xmlns="http://www.w3.org/2000/svg" xmlns:ffdec="https://www.free-decompiler.com/flash" xmlns:xlink="http://www.w3.org/1999/xlink" ffdec:objectType="frame" width="12.8" height="10.65"><use ffdec:characterId="8" xlink:href="#a" width="12.8" height="5.3" transform="translate(0 4.6)"/><defs><radialGradient id="b" cx="0" cy="0" r="819.2" gradientTransform="matrix(.0073 0 0 .0039 2.9 10.2)" gradientUnits="userSpaceOnUse" spreadMethod="pad"><stop offset="0" stop-color="#70d8b1"/><stop offset="1" stop-color="#34978f"/></radialGradient><radialGradient id="c" cx="0" cy="0" r="819.2" gradientTransform="matrix(.003 .0023 -.0043 .0016 2.85 9.1)" gradientUnits="userSpaceOnUse" spreadMethod="pad"><stop offset="0" stop-opacity="0"/><stop offset="1" stop-color="#041620" stop-opacity=".647"/></radialGradient><radialGradient id="d" cx="0" cy="0" r="819.2" gradientTransform="matrix(.0056 0 0 .003 3.7 8.3)" gradientUnits="userSpaceOnUse" spreadMethod="pad"><stop offset=".506" stop-color="#fff" stop-opacity="0"/><stop offset="1" stop-color="#fff" stop-opacity=".922"/></radialGradient><linearGradient id="e" x1="-819.2" x2="819.2" gradientTransform="matrix(1.026 0 0 .6103 -.05 4.85)" gradientUnits="userSpaceOnUse" spreadMethod="pad"><stop offset="0" stop-color="#000410"/><stop offset=".506" stop-color="#080831"/><stop offset="1" stop-color="#000107"/></linearGradient><g id="a" fill-rule="evenodd"><path fill="#9a7e65" fill-opacity=".498" d="m4.9.55-1.8.2-1.5.35h.1l-.85.25-.8.15L0 1.35q0-.2 1.25-.6L3.05.3 6.3 0l1.95.15 1.65.4z"/><path fill="#fff" d="M11.05 2Q10.9 3.55 9.7 5l-3.55.3-3.4-.3L1.7 3.6q-.55-1-.5-1.75l2.85-.2z"/><path fill="#cbcbcb" d="m11.05 2-7-.35-2.85.2.1-.5q.55-.3 1.3-.5l.35-.1q3.35-.55 8 .1z"/><path fill="url(#b)" d="M6.8 8.45q0 2.3-3.95 2.3-2.3 0-3.3-.9-.7-.6-.7-1.4 0-1.2.9-1.7 1.2-.65 3.1-.65 1.95 0 3.1.65.85.5.85 1.7" transform="translate(3 -5.75)"/><path fill="url(#c)" d="M4.35 9.3q-.65.45-1.5.45T1.3 9.3q-.6-.35-.6-.9 0-.6.6-1Q2 7 2.85 7t1.5.4.65 1q0 .55-.65.9" transform="translate(3 -5.75)"/><path fill="#fff" d="M4.35 1.9 4 2.3l-.75.2-.8-.2-.3-.4.3-.45.8-.15.75.15z"/><path fill="url(#d)" d="M2.5 9.4q0-.4.55-.7l1.3-.25 1.3.25q.55.3.55.7l-.55.7-1.3.3-1.3-.3q-.55-.3-.55-.7" transform="translate(3 -5.75)"/><path fill="url(#e)" d="m9.35 6.1-.8.5 1.25.6-.9.05.85.95L8 7.3l.3.5.4.45-1.1-.55-1-.85-5.2-.25q-2.55.3-4.4 1.05.4-.4 1.45-.85 2.1-.85 5.5-.85l2.15.15 1.65.3h.4l1.5-.5z" transform="translate(3 -5.75)"/></g></defs></svg>