<?xml version="1.0" encoding="UTF-8" standalone="no"?>
<svg xmlns:ffdec="https://www.free-decompiler.com/flash" xmlns:xlink="http://www.w3.org/1999/xlink" ffdec:objectType="frame" height="10.65px" width="12.8px" xmlns="http://www.w3.org/2000/svg">
  <g transform="matrix(1.0, 0.0, 0.0, 1.0, 3.0, -1.15)">
    <use ffdec:characterId="8" height="5.3" transform="matrix(1.0, 0.0, 0.0, 1.0, -3.0, 5.75)" width="12.8" xlink:href="#shape0"/>
  </g>
  <defs>
    <g id="shape0" transform="matrix(1.0, 0.0, 0.0, 1.0, 3.0, -5.75)">
      <path d="M1.9 6.3 L0.1 6.5 -1.4 6.85 -1.3 6.85 -2.15 7.1 -2.95 7.25 -3.0 7.1 Q-3.0 6.9 -1.75 6.5 L0.05 6.05 3.3 5.75 5.25 5.9 6.9 6.3 1.9 6.3" fill="#9a7e65" fill-opacity="0.49803922" fill-rule="evenodd" stroke="none"/>
      <path d="M8.05 7.75 Q7.9 9.3 6.7 10.75 L3.15 11.05 -0.25 10.75 -1.3 9.35 Q-1.85 8.35 -1.8 7.6 L1.05 7.4 8.05 7.75" fill="#ffffff" fill-rule="evenodd" stroke="none"/>
      <path d="M8.05 7.75 L1.05 7.4 -1.8 7.6 -1.7 7.1 Q-1.15 6.8 -0.4 6.6 L-0.05 6.5 Q3.3 5.95 7.95 6.6 L8.05 7.75" fill="#cbcbcb" fill-rule="evenodd" stroke="none"/>
      <path d="M6.8 8.45 Q6.8 10.75 2.85 10.75 0.55 10.75 -0.45 9.85 -1.15 9.25 -1.15 8.45 -1.15 7.25 -0.25 6.75 0.95 6.1 2.85 6.1 4.8 6.1 5.95 6.75 6.8 7.25 6.8 8.45" fill="url(#gradient0)" fill-rule="evenodd" stroke="none"/>
      <path d="M4.35 9.3 Q3.7 9.75 2.85 9.75 2.0 9.75 1.3 9.3 0.7 8.95 0.7 8.4 0.7 7.8 1.3 7.4 2.0 7.0 2.85 7.0 3.7 7.0 4.35 7.4 5.0 7.8 5.0 8.4 5.0 8.95 4.35 9.3" fill="url(#gradient1)" fill-rule="evenodd" stroke="none"/>
      <path d="M1.35 7.65 L1.0 8.05 0.25 8.25 -0.55 8.05 -0.85 7.65 -0.55 7.2 0.25 7.05 1.0 7.2 1.35 7.65" fill="#ffffff" fill-rule="evenodd" stroke="none"/>
      <path d="M2.5 9.4 Q2.5 9.0 3.05 8.7 L4.35 8.45 5.65 8.7 Q6.2 9.0 6.2 9.4 L5.65 10.1 4.35 10.4 3.05 10.1 Q2.5 9.8 2.5 9.4" fill="url(#gradient2)" fill-rule="evenodd" stroke="none"/>
      <path d="M9.35 6.1 L8.55 6.6 9.8 7.2 8.9 7.25 9.75 8.2 8.0 7.3 8.3 7.8 8.7 8.25 7.6 7.7 6.6 6.85 1.4 6.6 Q-1.15 6.9 -3.0 7.65 -2.6 7.25 -1.55 6.8 0.55 5.95 3.95 5.95 L6.1 6.1 7.75 6.4 8.15 6.4 9.65 5.9 9.35 6.1" fill="url(#gradient3)" fill-rule="evenodd" stroke="none"/>
    </g>
    <radialGradient cx="0" cy="0" gradientTransform="matrix(0.0073, 0.0, 0.0, 0.0039, 2.9, 10.2)" gradientUnits="userSpaceOnUse" id="gradient0" r="819.2" spreadMethod="pad">
      <stop offset="0.0" stop-color="#70d8b1"/>
      <stop offset="1.0" stop-color="#34978f"/>
    </radialGradient>
    <radialGradient cx="0" cy="0" gradientTransform="matrix(0.003, 0.0023, -0.0043, 0.0016, 2.85, 9.1)" gradientUnits="userSpaceOnUse" id="gradient1" r="819.2" spreadMethod="pad">
      <stop offset="0.0" stop-color="#000000" stop-opacity="0.0"/>
      <stop offset="1.0" stop-color="#041620" stop-opacity="0.64705884"/>
    </radialGradient>
    <radialGradient cx="0" cy="0" gradientTransform="matrix(0.0056, 0.0, 0.0, 0.003, 3.7, 8.3)" gradientUnits="userSpaceOnUse" id="gradient2" r="819.2" spreadMethod="pad">
      <stop offset="0.5058823529411764" stop-color="#ffffff" stop-opacity="0.0"/>
      <stop offset="1.0" stop-color="#ffffff" stop-opacity="0.92156863"/>
    </radialGradient>
    <linearGradient gradientTransform="matrix(1.026, 0.0, 0.0, 0.6103, -0.05, 4.85)" gradientUnits="userSpaceOnUse" id="gradient3" spreadMethod="pad" x1="-819.2" x2="819.2">
      <stop offset="0.0" stop-color="#000410"/>
      <stop offset="0.5058823529411764" stop-color="#080831"/>
      <stop offset="1.0" stop-color="#000107"/>
    </linearGradient>
  </defs>
</svg>
