<svg xmlns="http://www.w3.org/2000/svg" xmlns:ffdec="https://www.free-decompiler.com/flash" xmlns:xlink="http://www.w3.org/1999/xlink" ffdec:objectType="frame" width="12.8" height="10.65"><use ffdec:characterId="11" xlink:href="#a" width="12.8" height="9.9"/><defs><radialGradient id="b" cx="0" cy="0" r="819.2" gradientTransform="translate(2.9 9.45)scale(.0073)" gradientUnits="userSpaceOnUse" spreadMethod="pad"><stop offset="0" stop-color="#70d8b1"/><stop offset="1" stop-color="#34978f"/></radialGradient><radialGradient id="c" cx="0" cy="0" r="819.2" gradientTransform="rotate(55.098 -5.716 6.457)scale(.0052)" gradientUnits="userSpaceOnUse" spreadMethod="pad"><stop offset="0" stop-opacity="0"/><stop offset="1" stop-color="#041620" stop-opacity=".647"/></radialGradient><radialGradient id="d" cx="0" cy="0" r="819.2" gradientTransform="translate(3.7 5.95)scale(.0056)" gradientUnits="userSpaceOnUse" spreadMethod="pad"><stop offset=".506" stop-color="#fff" stop-opacity="0"/><stop offset="1" stop-color="#fff" stop-opacity=".922"/></radialGradient><linearGradient id="e" x1="-819.2" x2="819.2" gradientTransform="matrix(1.026 0 0 1.14 -.05 -.5)" gradientUnits="userSpaceOnUse" spreadMethod="pad"><stop offset="0" stop-color="#000410"/><stop offset=".506" stop-color="#080831"/><stop offset="1" stop-color="#000107"/></linearGradient><g id="a" fill-rule="evenodd"><path fill="#9a7e65" fill-opacity=".498" d="m4.9 1.1-1.8.35-1.5.65h.1l-.85.4-.8.3L0 2.6q0-.45 1.25-1.15l1.8-.9Q4.2 0 6.3 0l1.95.3q1.1.35 1.65.8z"/><path fill="#fff" d="M11.05 3.75Q10.9 6.7 9.7 9.3l-3.55.6-3.4-.6L1.7 6.75Q1.15 4.9 1.2 3.5l2.85-.45q3.95-.35 7 .7"/><path fill="#cbcbcb" d="M11.05 3.75q-3.05-1.05-7-.7L1.2 3.5l.1-.9q.55-.6 1.3-1l.35-.15q3.35-1.05 8 .2z"/><path fill="url(#b)" d="M6.8 6.2q0 4.35-3.95 4.35-2.3 0-3.3-1.7-.7-1.15-.7-2.65 0-2.15.9-3.15 1.2-1.2 3.1-1.2 1.95 0 3.1 1.25.85.9.85 3.1" transform="translate(3 -1.15)"/><path fill="url(#c)" d="M4.35 7.85q-.65.8-1.5.8t-1.55-.8Q.7 7.15.7 6.1t.6-1.85Q2 3.5 2.85 3.5t1.5.75Q5 5.05 5 6.1t-.65 1.75" transform="translate(3 -1.15)"/><path fill="#fff" d="M4 4.3q-.3.35-.75.35l-.8-.35-.3-.75.3-.8q.35-.3.8-.3t.75.3l.35.8z"/><path fill="url(#d)" d="M3.05 9.3Q2.5 8.75 2.5 8t.55-1.3 1.3-.55 1.3.55T6.2 8t-.55 1.3-1.3.55-1.3-.55" transform="translate(3 -1.15)"/><path fill="url(#e)" d="M8.15 2.35q.8-.2 1.5-.95l-.3.5-.8.9L9.8 3.9l-.9.15.85 1.7L8 4.1l.3.9.4.8-1.1-1q-.75-.85-1-1.6-2.35-1.1-5.2-.45Q-1.15 3.3-3 4.7q.4-.75 1.45-1.55 2.1-1.6 5.5-1.6l2.15.25q.9.2 1.65.6z" transform="translate(3 -1.15)"/></g></defs></svg>