<?xml version="1.0" encoding="UTF-8" standalone="no"?>
<svg xmlns:ffdec="https://www.free-decompiler.com/flash" xmlns:xlink="http://www.w3.org/1999/xlink" ffdec:objectType="frame" height="10.45px" width="12.85px" xmlns="http://www.w3.org/2000/svg">
  <g transform="matrix(1.0, 0.0, 0.0, 1.0, 2.65, -0.45)">
    <use ffdec:characterId="15" height="7.9" transform="matrix(1.0, 0.0, 0.0, 1.0, -2.65, 3.0)" width="12.85" xlink:href="#shape0"/>
  </g>
  <defs>
    <g id="shape0" transform="matrix(1.0, 0.0, 0.0, 1.0, 2.65, -3.0)">
      <path d="M8.0 5.65 L8.7 6.65 Q6.25 10.05 5.75 10.15 L5.25 10.15 5.2 10.05 Q6.55 8.15 6.55 6.45 L6.35 5.8 6.15 5.1 Q6.15 4.8 6.6 4.8 7.2 4.8 8.0 5.65 M1.25 10.15 L0.8 10.45 Q-0.25 10.45 -1.2 8.9 -1.95 7.6 -1.95 7.05 L-1.75 6.45 Q-1.45 6.0 -0.85 6.0 -0.5 6.0 -0.2 8.25 L0.6 9.25 1.25 10.15" fill="#ffffff" fill-rule="evenodd" stroke="none"/>
      <path d="M0.25 5.7 L0.35 5.6 0.6 5.35 1.3 5.05 2.3 4.75 3.4 4.6 4.45 4.7 5.05 4.9 5.85 5.5 6.25 6.3 6.25 6.6 6.15 7.35 6.1 7.65 5.85 8.3 Q5.1 10.15 3.4 10.15 L3.2 10.2 1.5 9.95 1.45 9.95 0.85 9.4 0.65 9.2 0.4 8.8 0.1 8.2 -0.1 6.9 -0.05 6.15 0.1 5.85 0.25 5.7" fill="#666666" fill-rule="evenodd" stroke="none"/>
      <path d="M5.6 4.45 Q6.4 4.6 6.5 5.15 L6.7 7.1 5.85 9.1 Q5.35 10.75 3.3 10.75 L1.95 10.55 1.0 10.15 0.6 9.7 -0.2 9.2 Q-0.55 8.6 -0.55 6.75 L-0.5 5.8 -0.35 5.3 0.1 4.9 0.5 4.45 0.7 4.35 1.35 4.15 3.25 3.95 3.95 4.0 5.6 4.45" fill="url(#gradient0)" fill-rule="evenodd" stroke="none"/>
      <path d="M3.1 7.95 Q2.35 7.9 2.4 7.4 2.45 6.9 3.1 6.9 3.7 6.95 3.8 7.4 3.8 8.0 3.1 7.95" fill="#000000" fill-opacity="0.4509804" fill-rule="evenodd" stroke="none"/>
      <path d="M4.55 6.1 Q5.15 6.45 5.1 7.35 5.0 8.25 4.45 8.75 3.85 9.25 3.05 9.3 2.2 9.3 1.6 8.8 0.9 8.3 0.85 7.55 0.8 6.7 1.45 6.2 2.15 5.65 3.0 5.65 3.85 5.65 4.55 6.1 M3.1 7.95 Q3.8 8.0 3.8 7.4 3.7 6.95 3.1 6.9 2.45 6.9 2.4 7.4 2.35 7.9 3.1 7.95" fill="#000000" fill-opacity="0.11764706" fill-rule="evenodd" stroke="none"/>
      <path d="M7.55 5.7 L7.95 6.0 8.3 6.2 8.45 6.5 Q8.9 6.45 8.9 6.95 8.9 7.35 8.45 7.35 L7.75 8.05 7.6 8.05 Q7.1 7.55 6.7 7.55 L6.45 7.35 6.45 7.2 6.85 7.1 6.2 5.55 Q6.2 5.2 6.6 5.05 7.05 4.95 7.3 5.55 L7.55 5.7 M-0.55 7.05 L-0.45 7.4 -0.45 7.6 -1.0 7.85 -1.5 8.3 -1.85 7.65 -2.0 7.05 -1.65 6.6 -0.65 6.35 Q-0.4 6.35 -0.4 6.6 L-0.55 7.05" fill="#000000" fill-opacity="0.2" fill-rule="evenodd" stroke="none"/>
      <path d="M2.1 3.0 L3.1 3.0 4.3 3.15 4.25 3.2 2.05 3.2 1.55 3.2 Q0.2 3.3 -1.15 4.15 L-2.65 4.85 -2.35 4.6 -1.65 3.95 -1.1 3.6 Q-0.4 3.2 0.25 3.1 L1.7 3.0 2.1 3.0" fill="#000000" fill-opacity="0.29803923" fill-rule="evenodd" stroke="none"/>
      <path d="M6.85 5.55 L6.45 5.3 6.8 6.25 6.85 6.6 6.85 6.7 6.7 7.9 6.55 8.3 6.4 8.7 6.15 9.1 5.4 9.9 5.45 10.05 5.55 10.05 5.9 9.95 6.2 9.85 6.1 10.0 5.95 10.25 5.4 10.55 4.85 10.65 4.35 10.8 3.1 10.9 1.85 10.8 0.9 10.65 0.7 10.6 0.25 10.45 -0.1 10.15 -0.25 10.1 0.0 10.1 0.25 9.95 0.15 9.85 -0.15 9.3 -0.35 8.95 -0.35 8.9 -0.4 8.9 -0.45 8.75 -0.8 7.7 -0.85 7.5 -0.85 7.05 -0.85 6.9 -0.85 6.8 -0.85 6.6 -0.8 6.5 -0.9 6.6 -1.15 6.75 Q-1.3 6.8 -1.45 6.95 L-1.95 7.35 -2.25 7.55 -2.15 7.2 -2.05 6.45 -1.8 5.9 -2.3 6.4 -2.5 6.75 -2.55 6.6 -2.3 6.05 -1.8 5.15 Q0.55 3.7 2.75 3.65 5.9 3.55 7.7 4.7 8.75 5.3 9.1 5.95 L9.15 5.9 10.2 7.25 9.25 6.9 8.85 7.3 8.25 7.9 7.4 8.65 6.85 9.1 7.7 7.9 8.05 7.2 8.15 6.75 Q8.15 6.45 6.8 5.5 L6.85 5.55 M0.25 5.7 L0.1 5.85 -0.05 6.15 -0.1 6.9 0.1 8.2 0.4 8.8 0.65 9.2 0.85 9.4 1.45 9.95 1.5 9.95 3.2 10.2 3.4 10.15 Q5.1 10.15 5.85 8.3 L6.1 7.65 6.15 7.35 6.25 6.6 6.25 6.3 5.85 5.5 5.05 4.9 4.45 4.7 3.4 4.6 2.3 4.75 1.3 5.05 0.6 5.35 0.35 5.6 0.25 5.7" fill="#333333" fill-rule="evenodd" stroke="none"/>
      <path d="M6.1 6.05 L6.35 6.45 Q6.35 6.9 5.75 7.05 L5.15 7.05 Q4.3 6.9 4.3 6.45 4.3 6.15 4.6 6.0 L5.35 5.8 6.1 6.05 M1.35 8.45 Q2.0 8.4 2.05 8.65 L1.0 9.4 -0.35 9.5 Q-0.65 9.1 0.05 8.8 0.7 8.45 1.35 8.45 M2.25 9.4 Q2.6 9.2 2.65 9.4 L2.65 9.85 2.35 10.3 1.8 10.25 Q1.55 10.1 1.75 9.85 L2.25 9.4" fill="#ffffff" fill-opacity="0.9882353" fill-rule="evenodd" stroke="none"/>
    </g>
    <linearGradient gradientTransform="matrix(-2.0E-4, 0.0047, -0.0068, -2.0E-4, 3.1, 7.85)" gradientUnits="userSpaceOnUse" id="gradient0" spreadMethod="pad" x1="-819.2" x2="819.2">
      <stop offset="0.22745098039215686" stop-color="#000000" stop-opacity="0.49803922"/>
      <stop offset="0.6980392156862745" stop-color="#000000" stop-opacity="0.0"/>
    </linearGradient>
  </defs>
</svg>
