<?xml version="1.0" encoding="UTF-8" standalone="no"?>
<svg xmlns:ffdec="https://www.free-decompiler.com/flash" xmlns:xlink="http://www.w3.org/1999/xlink" ffdec:objectType="frame" height="12.95px" width="15.35px" xmlns="http://www.w3.org/2000/svg">
  <g transform="matrix(1.0, 0.0, 0.0, 1.0, 2.15, 0.8)">
    <use ffdec:characterId="2" height="10.4" transform="matrix(1.0, 0.0, 0.0, 1.0, -0.2, 1.4)" width="9.15" xlink:href="#sprite0"/>
    <use ffdec:characterId="18" height="12.95" transform="matrix(1.0, 0.0, 0.0, 1.0, -2.15, -0.8)" width="15.35" xlink:href="#shape1"/>
    <use ffdec:characterId="5" height="2.0" transform="matrix(1.0, 0.0, 0.0, 1.0, 4.2, 8.85)" width="2.1" xlink:href="#sprite1"/>
  </g>
  <defs>
    <g id="sprite0" transform="matrix(1.0, 0.0, 0.0, 1.0, 0.0, 0.0)">
      <use ffdec:characterId="1" height="10.4" transform="matrix(1.0, 0.0, 0.0, 1.0, 0.0, 0.0)" width="9.15" xlink:href="#shape0"/>
    </g>
    <g id="shape0" transform="matrix(1.0, 0.0, 0.0, 1.0, 0.0, 0.0)">
      <path d="M9.15 2.9 L9.15 3.25 8.65 6.05 Q8.05 8.2 7.2 9.15 6.6 9.85 5.65 10.15 L3.8 10.4 3.7 10.4 3.65 10.4 3.5 10.4 2.1 10.05 Q0.35 9.05 0.05 5.7 L0.05 4.2 Q0.2 3.25 0.55 2.7 L2.65 1.65 Q5.85 0.1 8.7 0.0 9.25 0.95 9.15 2.9" fill="url(#gradient0)" fill-rule="evenodd" stroke="none"/>
    </g>
    <linearGradient gradientTransform="matrix(0.0, 0.006, 0.006, 0.0, 4.6, 5.0)" gradientUnits="userSpaceOnUse" id="gradient0" spreadMethod="pad" x1="-819.2" x2="819.2">
      <stop offset="0.0" stop-color="#490056"/>
      <stop offset="1.0" stop-color="#c189db"/>
    </linearGradient>
    <g id="shape1" transform="matrix(1.0, 0.0, 0.0, 1.0, 2.15, 0.8)">
      <path d="M10.75 4.35 L10.75 4.65 10.45 7.1 9.45 9.45 9.1 9.85 Q8.35 10.65 7.4 11.1 L5.45 11.55 Q6.4 11.25 7.0 10.55 7.85 9.6 8.45 7.45 L8.95 4.65 8.95 4.3 Q9.05 2.35 8.5 1.4 L10.7 1.4 10.75 4.35 M0.85 11.2 Q-0.15 10.45 -1.1 8.15 L-1.55 6.6 -1.6 5.75 -1.55 5.4 0.35 4.1 -0.15 5.6 -0.15 7.1 Q0.15 10.45 1.9 11.45 L3.3 11.8 1.9 11.7 Q1.3 11.55 0.85 11.2" fill="#ffffff" fill-rule="evenodd" stroke="none"/>
      <path d="M2.0 7.5 L1.95 7.45 1.95 7.6 2.0 7.5 M0.65 6.75 L1.2 6.65 1.55 6.65 1.55 6.6 1.9 6.6 3.4 6.5 5.35 6.35 6.15 6.35 6.15 6.4 6.2 6.35 7.25 6.3 Q7.15 8.7 6.85 9.35 L6.6 9.95 6.4 10.2 Q5.65 11.25 4.25 11.3 2.75 11.35 1.9 10.6 L1.25 9.75 Q0.75 8.8 0.65 6.75" fill="url(#gradient1)" fill-rule="evenodd" stroke="none"/>
      <path d="M5.95 4.65 L6.15 6.4 6.15 6.5 6.15 6.65 Q5.85 10.25 4.15 10.25 2.25 10.25 1.95 7.6 L1.95 7.55 1.95 6.6 2.05 5.9 2.05 5.8 2.1 5.85 2.1 5.7 2.5 4.3 Q3.0 3.1 3.85 3.0 4.1 2.75 4.7 3.0 5.5 3.3 5.9 4.55 L5.95 4.65" fill="#000000" fill-opacity="0.49803922" fill-rule="evenodd" stroke="none"/>
      <path d="M1.9 5.75 L1.45 5.3 1.25 4.55 Q1.3 4.05 1.75 3.65 2.2 3.25 2.75 3.25 L3.25 3.35 Q4.2 3.85 4.2 4.65 L4.15 4.8 3.55 5.65 Q3.05 6.0 2.55 5.95 L2.05 5.8 1.9 5.75 M2.4 9.35 L2.9 9.2 3.5 9.45 3.8 10.05 3.65 10.45 Q3.35 10.85 2.85 10.85 1.95 10.8 1.95 10.0 1.95 9.6 2.4 9.35" fill="#ffffff" fill-rule="evenodd" stroke="none"/>
      <path d="M11.0 1.25 L11.25 2.1 11.05 3.4 10.9 4.05 Q10.6 3.65 9.65 3.45 L6.1 3.15 Q4.15 3.15 1.55 4.75 -0.6 6.05 -1.4 7.25 L-1.6 6.55 -1.65 5.15 -1.4 4.8 -0.35 4.0 Q0.5 3.15 1.45 2.6 2.15 2.1 4.25 1.35 6.65 0.45 8.0 0.45 10.45 0.45 11.0 1.25" fill="#000000" fill-opacity="0.29803923" fill-rule="evenodd" stroke="none"/>
      <path d="M5.05 0.35 Q6.45 -0.4 8.75 -0.65 11.55 -1.0 13.15 -0.1 L11.4 -0.25 7.4 -0.4 5.05 0.35 7.4 -0.4 11.4 -0.25 Q12.35 0.25 12.55 1.35 L12.6 3.05 Q12.3 1.55 11.4 1.3 L11.1 4.6 11.1 4.65 Q10.7 7.5 9.75 9.05 L10.45 7.1 10.75 4.65 10.75 4.35 10.7 1.4 8.5 1.4 7.75 0.7 9.9 0.65 Q10.55 0.7 10.75 1.05 L10.8 1.1 10.9 1.15 11.1 1.45 11.15 2.55 10.9 4.4 10.75 4.35 10.9 4.4 11.15 2.55 11.1 1.45 10.9 1.15 10.8 1.1 10.75 1.05 Q10.55 0.7 9.9 0.65 L7.75 0.7 8.5 1.4 Q5.65 1.5 2.45 3.05 L0.35 4.1 Q0.8 3.25 1.45 2.75 0.8 3.25 0.35 4.1 L-1.55 5.4 -1.7 5.55 -2.05 6.15 Q-2.35 5.3 -0.9 4.0 1.8 1.65 5.05 0.35 L11.4 -0.25 5.05 0.35 M7.75 0.7 L5.25 0.8 Q4.3 1.2 3.25 1.75 2.1 2.2 1.45 2.75 -0.5 4.05 -1.5 5.35 L-1.7 5.55 -1.5 5.35 Q-0.5 4.05 1.45 2.75 2.1 2.2 3.25 1.75 4.3 1.2 5.25 0.8 L7.75 0.7 M5.45 11.55 L7.4 11.1 Q6.9 11.6 4.95 11.95 L3.0 12.05 1.9 11.85 1.5 11.65 1.9 11.8 3.45 11.8 3.5 11.8 3.6 11.8 5.45 11.55" fill="#3a2d2b" fill-rule="evenodd" stroke="none"/>
      <path d="M11.4 -0.25 L13.15 -0.1 Q11.55 -1.0 8.75 -0.65 6.45 -0.4 5.05 0.35 L7.4 -0.4 11.4 -0.25 Q12.35 0.25 12.55 1.35 L12.6 3.05 Q12.3 1.55 11.4 1.3 L11.1 4.6 11.1 4.65 Q10.7 7.5 9.75 9.05 L9.45 9.45 9.1 9.85 M10.75 4.35 L10.9 4.4 11.15 2.55 11.1 1.45 10.9 1.15 10.8 1.1 10.75 1.05 Q10.55 0.7 9.9 0.65 L7.75 0.7 8.5 1.4 10.7 1.4 10.75 4.35 10.75 4.65 10.45 7.1 9.75 9.05 M-1.7 5.55 L-1.5 5.35 Q-0.5 4.05 1.45 2.75 2.1 2.2 3.25 1.75 4.3 1.2 5.25 0.8 L7.75 0.7 M0.35 4.1 Q0.8 3.25 1.45 2.75 M0.35 4.1 L2.45 3.05 Q5.65 1.5 8.5 1.4 M3.6 11.8 L3.5 11.8 3.45 11.8 1.9 11.8 1.5 11.65 1.9 11.85 3.0 12.05 4.95 11.95 Q6.9 11.6 7.4 11.1 L5.45 11.55 M11.4 -0.25 L5.05 0.35 Q1.8 1.65 -0.9 4.0 -2.35 5.3 -2.05 6.15 L-1.7 5.55 -1.55 5.4 0.35 4.1" fill="none" stroke="#3a2d2b" stroke-linecap="round" stroke-linejoin="round" stroke-width="0.15000000000000002"/>
    </g>
    <linearGradient gradientTransform="matrix(-2.0E-4, -0.0027, -0.0027, 2.0E-4, 4.1, 8.9)" gradientUnits="userSpaceOnUse" id="gradient1" spreadMethod="pad" x1="-819.2" x2="819.2">
      <stop offset="0.0" stop-color="#ffffff" stop-opacity="0.15294118"/>
      <stop offset="0.403921568627451" stop-color="#ffffff" stop-opacity="0.2"/>
      <stop offset="1.0" stop-color="#ffffff" stop-opacity="0.0"/>
    </linearGradient>
    <g id="sprite1" transform="matrix(1.0, 0.0, 0.0, 1.0, 0.0, 0.0)">
      <use ffdec:characterId="4" height="2.0" transform="matrix(1.0, 0.0, 0.0, 1.0, 0.0, 0.0)" width="2.1" xlink:href="#shape2"/>
    </g>
    <g id="shape2" transform="matrix(1.0, 0.0, 0.0, 1.0, 0.0, 0.0)">
      <path d="M0.0 0.95 Q0.0 0.6 0.3 0.3 L1.05 0.0 1.4 0.1 Q2.2 0.4 2.1 1.0 L1.75 1.75 Q1.4 2.05 0.95 2.0 0.35 1.95 0.15 1.55 0.0 1.35 0.0 0.95" fill="#ffbdf6" fill-opacity="0.5137255" fill-rule="evenodd" stroke="none"/>
    </g>
  </defs>
</svg>
