<svg xmlns="http://www.w3.org/2000/svg" xmlns:ffdec="https://www.free-decompiler.com/flash" xmlns:xlink="http://www.w3.org/1999/xlink" ffdec:objectType="frame" width="15.35" height="12.95"><g transform="translate(1 .8)"><use ffdec:characterId="2" xlink:href="#a" width="9.15" height="10.4" transform="matrix(-1 0 0 .7315 12.4 4.25)"/><use ffdec:characterId="7" xlink:href="#b" width="12.4" height="7.65" transform="translate(1.4 4.25)"/><use ffdec:characterId="5" xlink:href="#c" width="2.1" height="2" transform="matrix(1 0 0 .7315 8.7 9.7)"/><use ffdec:characterId="8" xlink:href="#d" width="15.35" height="9.5" transform="translate(-1 2.65)"/></g><defs><linearGradient id="e" x1="-819.2" x2="819.2" gradientTransform="matrix(0 .006 .006 0 4.6 5)" gradientUnits="userSpaceOnUse" spreadMethod="pad"><stop offset="0" stop-color="#560000"/><stop offset="1" stop-color="#f76fdf"/></linearGradient><linearGradient id="i" x1="-819.2" x2="819.2" gradientTransform="matrix(.0002 -.002 .0027 .0001 8.1 9.75)" gradientUnits="userSpaceOnUse" spreadMethod="pad"><stop offset="0" stop-color="#fff" stop-opacity=".149"/><stop offset=".404" stop-color="#fff" stop-opacity=".2"/><stop offset="1" stop-color="#fff" stop-opacity="0"/></linearGradient><path id="g" fill="url(#e)" fill-rule="evenodd" d="M9.15 2.9v.35l-.5 2.8q-.6 2.15-1.45 3.1-.6.7-1.55 1l-1.85.25h-.3l-1.4-.35Q.35 9.05.05 5.7V4.2q.15-.95.5-1.5l2.1-1.05Q5.85.1 8.7 0q.55.95.45 2.9"/><path id="h" fill="#ffc4d1" fill-opacity=".514" fill-rule="evenodd" d="M0 .95Q0 .6.3.3l.75-.3.35.1q.8.3.7.9l-.35.75q-.35.3-.8.25-.6-.05-.8-.45Q0 1.35 0 .95"/><use ffdec:characterId="1" xlink:href="#g" id="a" width="9.15" height="10.4"/><use ffdec:characterId="4" xlink:href="#h" id="c" width="2.1" height="2"/><g id="b" fill-rule="evenodd"><path fill="#fff" d="M.1 0h2.2q-.55.7-.45 2.15v.25q.1 1 .5 2.05Q2.95 6 3.8 6.7q.6.55 1.55.75L3.4 7.1q-.95-.3-1.7-.9l-.35-.3-1-1.7-.3-1.8v-.2Q-.05.85.1 0m12.25 3.85-.45 1.1q-.95 1.7-1.95 2.25l-1.05.35-1.4.1 1.4-.25q1.75-.75 2.05-3.2V3.1q-.15-.7-.5-1.1l1.9.95.05.25z"/><path fill="url(#i)" d="M10.3 11q-.85.55-2.35.5-1.4 0-2.15-.8l-.2-.15-.25-.45q-.3-.5-.4-2.25L6 7.9l.05.05V7.9h.8L8.8 8l1.5.1h.7l.55.1q-.1 1.5-.6 2.2zm-.1-2.25.05.05v-.1z" transform="translate(-1.4 -4.25)"/><path fill-opacity=".498" d="M8.85 4.5v.05q-.3 1.95-2.2 1.95-1.7 0-2-2.65V3.7l.2-1.3.05-.05q.4-.95 1.2-1.15.6-.2.85 0 .85.05 1.35.95l.4 1v.15l.05-.05v.05l.1.55z"/><path fill="#fff" d="M6.35 1.45q.95.35.95.95l-.05.1q-.1.4-.6.65l-1 .2-.5-.1L5 3.2l-.45-.3-.2-.55q.05-.4.5-.7l1-.25zM5.05 6.3q0-.3.45-.45l.5-.1.6.15.3.45-.15.3-.8.3q-.9-.05-.9-.65"/></g><g id="d"><path fill-opacity=".298" fill-rule="evenodd" d="M11.65 4.05Q9.05 2.9 7.1 2.9l-3.55.2q-.95.15-1.25.45l-.15-.45-.2-.95.25-.65q.55-.55 3-.55l3.75.65 2.8.9 1.8 1.05 1.05.55.25.25-.05 1.05-.2.5q-.8-.85-2.95-1.85"/><path fill="#3a2d2b" fill-rule="evenodd" d="M3.45 7.2Q2.5 6.1 2.1 4v-.05q-.3-1.35-.3-2.4-.9.2-1.2 1.3L.65 1.6Q.85.8 1.8.4L.05.55q1.6-.7 4.4-.45 2.3.2 3.7.75 3.25.95 5.95 2.7 1.45.95 1.15 1.55l-.35-.45-.15-.1-.05-.05q-.75-.45-1.85-.9l-2.1-.75Q7.55 1.7 4.7 1.6H2.5q-.15.85-.05 2.2V4l.3 1.8zM1.8.4l6.35.45L5.8.3zl4-.1 2.35.55zm3.65.7q-.4.1-.75.5.35-.4.75-.5-1.4-.15-2.15 0-.65 0-.85.25l-.05.05-.1.05-.2.2q-.1.25-.05.8L2.3 3.8h.15-.15l-.25-1.35q-.05-.55.05-.8l.2-.2.1-.05.05-.05q.2-.25.85-.25.75-.15 2.15 0l2.5.1 2 .7 1.8.7-1.8-.7-2-.7zm7.4 2.5-1.1-1q1.95.95 2.95 1.9-1-.95-2.95-1.9zM9.6 9.25h1.7l-1.1.15-1.95-.05Q6.3 9.1 5.8 8.7l1.95.35z"/><path fill="none" stroke="#3a2d2b" stroke-linecap="round" stroke-linejoin="round" stroke-width=".15" d="m11.3 9.25.4-.15M3.45 7.2Q2.5 6.1 2.1 4v-.05q-.3-1.35-.3-2.4-.9.2-1.2 1.3L.65 1.6Q.85.8 1.8.4L.05.55q1.6-.7 4.4-.45 2.3.2 3.7.75 3.25.95 5.95 2.7 1.45.95 1.15 1.55l-.35-.45-.15-.1-.05-.05q-.75-.45-1.85-.9l-2.1-.75Q7.55 1.7 4.7 1.6H2.5q-.15.85-.05 2.2V4l.3 1.8zl.3.3.35.3m10.6-3.3q-1-.95-2.95-1.9l1.1 1m-10.4.2H2.3l-.25-1.35q-.05-.55.05-.8l.2-.2.1-.05.05-.05q.2-.25.85-.25.75-.15 2.15 0l2.5.1 2 .7 1.8.7m-7.05-1q.35-.4.75-.5M1.8.4l4-.1 2.35.55zm7.8 8.85h1.7l-1.1.15-1.95-.05Q6.3 9.1 5.8 8.7l1.95.35"/></g></defs></svg>