<?xml version="1.0" encoding="UTF-8" standalone="no"?>
<svg xmlns:ffdec="https://www.free-decompiler.com/flash" xmlns:xlink="http://www.w3.org/1999/xlink" ffdec:objectType="frame" height="12.95px" width="15.35px" xmlns="http://www.w3.org/2000/svg">
  <g transform="matrix(1.0, 0.0, 0.0, 1.0, 1.0, 0.8)">
    <use ffdec:characterId="2" height="10.4" transform="matrix(-1.0, 0.0, 0.0, 1.0, 12.4, 1.4)" width="9.15" xlink:href="#sprite0"/>
    <use ffdec:characterId="11" height="10.45" transform="matrix(1.0, 0.0, 0.0, 1.0, 1.4, 1.35)" width="12.4" xlink:href="#shape1"/>
    <use ffdec:characterId="5" height="2.0" transform="matrix(1.0, 0.0, 0.0, 1.0, 8.7, 8.85)" width="2.1" xlink:href="#sprite1"/>
    <use ffdec:characterId="12" height="12.95" transform="matrix(1.0, 0.0, 0.0, 1.0, -1.0, -0.8)" width="15.35" xlink:href="#shape3"/>
  </g>
  <defs>
    <g id="sprite0" transform="matrix(1.0, 0.0, 0.0, 1.0, 0.0, 0.0)">
      <use ffdec:characterId="1" height="10.4" transform="matrix(1.0, 0.0, 0.0, 1.0, 0.0, 0.0)" width="9.15" xlink:href="#shape0"/>
    </g>
    <g id="shape0" transform="matrix(1.0, 0.0, 0.0, 1.0, 0.0, 0.0)">
      <path d="M9.15 2.9 L9.15 3.25 8.65 6.05 Q8.05 8.2 7.2 9.15 6.6 9.85 5.65 10.15 L3.8 10.4 3.7 10.4 3.65 10.4 3.5 10.4 2.1 10.05 Q0.35 9.05 0.05 5.7 L0.05 4.2 Q0.2 3.25 0.55 2.7 L2.65 1.65 Q5.85 0.1 8.7 0.0 9.25 0.95 9.15 2.9" fill="url(#gradient0)" fill-rule="evenodd" stroke="none"/>
    </g>
    <linearGradient gradientTransform="matrix(0.0, 0.006, 0.006, 0.0, 4.6, 5.0)" gradientUnits="userSpaceOnUse" id="gradient0" spreadMethod="pad" x1="-819.2" x2="819.2">
      <stop offset="0.0" stop-color="#560000"/>
      <stop offset="1.0" stop-color="#f76fdf"/>
    </linearGradient>
    <g id="shape1" transform="matrix(1.0, 0.0, 0.0, 1.0, -1.4, -1.35)">
      <path d="M1.45 4.65 L1.45 4.35 Q1.35 2.5 1.5 1.4 L3.7 1.4 Q3.15 2.35 3.25 4.3 L3.25 4.65 Q3.35 6.0 3.75 7.45 4.35 9.6 5.2 10.55 5.8 11.25 6.75 11.55 L4.8 11.1 3.1 9.85 2.75 9.45 Q2.2 8.6 1.75 7.1 L1.45 4.65 M11.85 4.1 L13.75 5.4 13.8 5.75 13.75 6.6 13.3 8.15 Q12.35 10.45 11.35 11.2 L10.3 11.7 8.9 11.8 10.3 11.45 Q12.05 10.45 12.35 7.1 L12.35 5.6 11.85 4.1" fill="#ffffff" fill-rule="evenodd" stroke="none"/>
      <path d="M11.55 6.75 Q11.45 8.8 10.95 9.75 L10.3 10.6 Q9.45 11.35 7.95 11.3 6.55 11.25 5.8 10.2 L5.6 9.95 5.35 9.35 Q5.05 8.7 4.95 6.3 L6.0 6.35 6.05 6.4 6.05 6.35 6.85 6.35 8.8 6.5 10.3 6.6 10.65 6.6 10.65 6.65 11.0 6.65 11.55 6.75 M10.2 7.5 L10.25 7.6 10.25 7.45 10.2 7.5" fill="url(#gradient1)" fill-rule="evenodd" stroke="none"/>
      <path d="M10.15 5.9 L10.25 6.6 10.25 7.55 10.25 7.6 Q9.95 10.25 8.05 10.25 6.35 10.25 6.05 6.65 L6.05 6.5 6.05 6.4 6.25 4.65 6.3 4.55 Q6.7 3.3 7.5 3.0 8.1 2.75 8.35 3.0 9.2 3.1 9.7 4.3 L10.1 5.7 10.1 5.85 10.15 5.8 10.15 5.9" fill="#000000" fill-opacity="0.49803922" fill-rule="evenodd" stroke="none"/>
      <path d="M7.25 3.25 L7.75 3.35 Q8.7 3.85 8.7 4.65 L8.65 4.8 Q8.55 5.3 8.05 5.65 7.55 6.0 7.05 5.95 L6.55 5.8 6.4 5.75 5.95 5.3 5.75 4.55 Q5.8 4.05 6.25 3.65 6.7 3.25 7.25 3.25 M6.45 10.0 Q6.45 9.6 6.9 9.35 L7.4 9.2 8.0 9.45 8.3 10.05 8.15 10.45 Q7.85 10.85 7.35 10.85 6.45 10.8 6.45 10.0" fill="#ffffff" fill-rule="evenodd" stroke="none"/>
    </g>
    <linearGradient gradientTransform="matrix(2.0E-4, -0.0027, 0.0027, 2.0E-4, 8.1, 8.9)" gradientUnits="userSpaceOnUse" id="gradient1" spreadMethod="pad" x1="-819.2" x2="819.2">
      <stop offset="0.0" stop-color="#ffffff" stop-opacity="0.14901961"/>
      <stop offset="0.403921568627451" stop-color="#ffffff" stop-opacity="0.2"/>
      <stop offset="1.0" stop-color="#ffffff" stop-opacity="0.0"/>
    </linearGradient>
    <g id="sprite1" transform="matrix(1.0, 0.0, 0.0, 1.0, 0.0, 0.0)">
      <use ffdec:characterId="4" height="2.0" transform="matrix(1.0, 0.0, 0.0, 1.0, 0.0, 0.0)" width="2.1" xlink:href="#shape2"/>
    </g>
    <g id="shape2" transform="matrix(1.0, 0.0, 0.0, 1.0, 0.0, 0.0)">
      <path d="M0.0 0.95 Q0.0 0.6 0.3 0.3 L1.05 0.0 1.4 0.1 Q2.2 0.4 2.1 1.0 L1.75 1.75 Q1.4 2.05 0.95 2.0 0.35 1.95 0.15 1.55 0.0 1.35 0.0 0.95" fill="#ffc4d1" fill-opacity="0.5137255" fill-rule="evenodd" stroke="none"/>
    </g>
    <g id="shape3" transform="matrix(1.0, 0.0, 0.0, 1.0, 1.0, 0.8)">
      <path d="M13.6 4.8 L13.85 5.15 13.8 6.55 13.6 7.25 Q12.8 6.05 10.65 4.75 8.05 3.15 6.1 3.15 L2.55 3.45 Q1.6 3.65 1.3 4.05 L1.15 3.4 0.95 2.1 1.2 1.25 Q1.75 0.45 4.2 0.45 5.55 0.45 7.95 1.35 10.05 2.1 10.75 2.6 11.7 3.15 12.55 4.0 L13.6 4.8" fill="#000000" fill-opacity="0.29803923" fill-rule="evenodd" stroke="none"/>
      <path d="M0.8 -0.25 L4.8 -0.4 7.15 0.35 0.8 -0.25 7.15 0.35 4.8 -0.4 0.8 -0.25 -0.95 -0.1 Q0.65 -1.0 3.45 -0.65 5.75 -0.4 7.15 0.35 10.4 1.65 13.1 4.0 14.55 5.3 14.25 6.15 L13.9 5.55 13.75 5.4 13.7 5.35 11.85 4.1 9.75 3.05 Q6.55 1.5 3.7 1.4 L1.5 1.4 Q1.35 2.5 1.45 4.35 L1.45 4.65 1.75 7.1 Q2.05 8.3 2.45 9.05 1.5 7.5 1.1 4.65 L1.1 4.6 Q0.8 2.75 0.8 1.3 -0.1 1.55 -0.4 3.05 L-0.35 1.35 Q-0.15 0.25 0.8 -0.25 M13.7 5.35 Q12.7 4.05 10.75 2.75 11.4 3.25 11.85 4.1 11.4 3.25 10.75 2.75 10.1 2.2 8.95 1.75 L6.95 0.8 4.45 0.7 3.7 1.4 4.45 0.7 6.95 0.8 8.95 1.75 Q10.1 2.2 10.75 2.75 12.7 4.05 13.7 5.35 M8.6 11.8 L8.7 11.8 8.75 11.8 10.3 11.8 10.7 11.65 10.3 11.85 9.2 12.05 7.25 11.95 Q5.3 11.6 4.8 11.1 L6.75 11.55 8.6 11.8 M4.45 0.7 L2.3 0.65 Q1.65 0.7 1.45 1.05 L1.4 1.1 1.3 1.15 1.1 1.45 Q1.0 1.8 1.05 2.55 L1.3 4.4 1.45 4.35 1.3 4.4 1.05 2.55 Q1.0 1.8 1.1 1.45 L1.3 1.15 1.4 1.1 1.45 1.05 Q1.65 0.7 2.3 0.65 L4.45 0.7" fill="#3a2d2b" fill-rule="evenodd" stroke="none"/>
      <path d="M0.8 -0.25 L7.15 0.35 4.8 -0.4 0.8 -0.25 -0.95 -0.1 Q0.65 -1.0 3.45 -0.65 5.75 -0.4 7.15 0.35 10.4 1.65 13.1 4.0 14.55 5.3 14.25 6.15 L13.9 5.55 13.75 5.4 13.7 5.35 11.85 4.1 9.75 3.05 Q6.55 1.5 3.7 1.4 L1.5 1.4 Q1.35 2.5 1.45 4.35 L1.45 4.65 1.75 7.1 Q2.05 8.3 2.45 9.05 L2.75 9.45 3.1 9.85 M11.85 4.1 Q11.4 3.25 10.75 2.75 10.1 2.2 8.95 1.75 L6.95 0.8 4.45 0.7 3.7 1.4 M10.75 2.75 Q12.7 4.05 13.7 5.35 M8.6 11.8 L8.7 11.8 8.75 11.8 10.3 11.8 10.7 11.65 10.3 11.85 9.2 12.05 7.25 11.95 Q5.3 11.6 4.8 11.1 L6.75 11.55 M1.45 4.35 L1.3 4.4 1.05 2.55 Q1.0 1.8 1.1 1.45 L1.3 1.15 1.4 1.1 1.45 1.05 Q1.65 0.7 2.3 0.65 L4.45 0.7 M0.8 -0.25 Q-0.15 0.25 -0.35 1.35 L-0.4 3.05 Q-0.1 1.55 0.8 1.3 0.8 2.75 1.1 4.6 L1.1 4.65 Q1.5 7.5 2.45 9.05" fill="none" stroke="#3a2d2b" stroke-linecap="round" stroke-linejoin="round" stroke-width="0.15000000000000002"/>
    </g>
  </defs>
</svg>
