<?xml version="1.0" encoding="UTF-8" standalone="no"?>
<svg xmlns:ffdec="https://www.free-decompiler.com/flash" xmlns:xlink="http://www.w3.org/1999/xlink" ffdec:objectType="frame" height="10.4px" width="13.45px" xmlns="http://www.w3.org/2000/svg">
  <g transform="matrix(1.0, 0.0, 0.0, 1.0, 1.75, -1.45)">
    <use ffdec:characterId="9" height="9.0" transform="matrix(1.0, 0.0, 0.0, 1.0, -1.2, 2.2)" width="11.6" xlink:href="#shape0"/>
    <use ffdec:characterId="3" height="9.45" transform="matrix(1.0, 0.0, 0.0, 1.0, -0.1, 1.55)" width="8.95" xlink:href="#sprite0"/>
    <use ffdec:characterId="10" height="9.8" transform="matrix(1.0, 0.0, 0.0, 1.0, -1.75, 1.45)" width="13.45" xlink:href="#shape2"/>
  </g>
  <defs>
    <g id="shape0" transform="matrix(1.0, 0.0, 0.0, 1.0, 1.2, -2.2)">
      <path d="M10.35 8.6 L8.35 10.65 Q7.45 11.45 3.8 11.05 0.15 10.65 -0.85 8.1 -1.35 6.8 -1.1 5.6 0.1 3.55 0.5 3.25 2.05 1.95 5.45 2.25 8.7 2.6 9.85 5.7 10.5 7.1 10.35 8.6" fill="#ffffff" fill-rule="evenodd" stroke="none"/>
      <path d="M9.85 5.7 Q10.5 7.1 10.35 8.6 L10.2 8.9 Q6.75 4.1 2.2 5.05 0.25 5.35 -1.15 6.5 L-1.1 5.6 Q0.1 3.55 0.5 3.25 2.05 1.95 5.45 2.25 8.7 2.6 9.85 5.7" fill="#000000" fill-opacity="0.2" fill-rule="evenodd" stroke="none"/>
    </g>
    <g id="sprite0" transform="matrix(1.0, 0.0, 0.0, 1.0, 0.0, 0.0)">
      <use ffdec:characterId="2" height="9.45" transform="matrix(1.0, 0.0, 0.0, 1.0, 0.0, 0.0)" width="8.95" xlink:href="#shape1"/>
    </g>
    <g id="shape1" transform="matrix(1.0, 0.0, 0.0, 1.0, 0.0, 0.0)">
      <path d="M8.2 5.5 Q8.35 3.9 7.4 2.55 6.3 1.05 4.8 0.9 3.3 0.8 2.05 2.0 0.8 3.15 0.7 4.8 L0.7 4.9 Q0.6 6.6 1.5 7.9 2.6 9.25 4.1 9.35 5.6 9.5 6.9 8.45 8.0 7.3 8.2 5.65 L8.2 5.5 M8.9 5.2 Q8.7 7.1 7.3 8.35 5.85 9.6 4.1 9.4 2.25 9.25 0.95 7.8 -0.1 6.25 0.0 4.4 L0.0 4.3 Q0.2 2.45 1.55 1.15 3.1 -0.15 4.95 0.0 6.7 0.2 7.9 1.7 9.15 3.25 8.9 5.1 L8.9 5.2" fill="#19003f" fill-rule="evenodd" stroke="none"/>
      <path d="M8.2 5.5 L8.2 5.65 Q8.0 7.3 6.9 8.45 5.6 9.5 4.1 9.35 2.6 9.25 1.5 7.9 0.6 6.6 0.7 4.9 L0.7 4.8 Q0.8 3.15 2.05 2.0 3.3 0.8 4.8 0.9 6.3 1.05 7.4 2.55 8.35 3.9 8.2 5.5 M6.05 4.85 L6.05 4.8 Q6.15 3.95 5.75 3.45 5.25 2.75 4.5 2.7 3.85 2.6 3.15 3.25 2.6 3.75 2.5 4.5 L2.5 4.55 Q2.5 5.4 2.85 5.95 3.45 6.55 4.1 6.55 4.8 6.6 5.45 6.2 6.0 5.7 6.05 4.85" fill="url(#gradient0)" fill-rule="evenodd" stroke="none"/>
      <path d="M6.05 4.85 Q6.0 5.7 5.45 6.2 4.8 6.6 4.1 6.55 3.45 6.55 2.85 5.95 2.5 5.4 2.5 4.55 L2.5 4.5 Q2.6 3.75 3.15 3.25 3.85 2.6 4.5 2.7 5.25 2.75 5.75 3.45 6.15 3.95 6.05 4.8 L6.05 4.85" fill="#2e1554" fill-rule="evenodd" stroke="none"/>
    </g>
    <radialGradient cx="0" cy="0" gradientTransform="matrix(0.005, 5.0E-4, -4.0E-4, 0.0052, 4.5, 7.1)" gradientUnits="userSpaceOnUse" id="gradient0" r="819.2" spreadMethod="pad">
      <stop offset="0.023529411764705882" stop-color="#a874bb"/>
      <stop offset="0.8784313725490196" stop-color="#41197e"/>
    </radialGradient>
    <g id="shape2" transform="matrix(1.0, 0.0, 0.0, 1.0, 1.75, -1.45)">
      <path d="M10.25 8.75 L7.75 11.25 Q9.0 9.9 9.4 7.35 9.65 5.65 8.1 4.3 6.75 3.15 5.1 2.95 L2.15 3.0 Q0.35 3.6 -1.25 6.45 -1.15 5.15 -0.3 3.8 L-1.75 4.7 -0.8 3.5 0.2 2.55 Q1.75 1.65 1.9 1.75 L5.1 1.55 Q8.55 2.15 10.45 5.05 L11.7 6.85 10.25 8.75" fill="#331600" fill-rule="evenodd" stroke="none"/>
      <path d="M8.05 4.85 Q8.45 5.3 8.4 5.8 L7.9 6.6 Q7.55 6.95 7.05 6.9 L6.25 6.45 Q6.0 6.05 6.05 5.55 6.1 5.05 6.4 4.7 6.85 4.4 7.3 4.4 7.8 4.45 8.05 4.85" fill="#ffffff" fill-rule="evenodd" stroke="none"/>
      <path d="M3.35 8.8 L3.55 9.4 3.25 9.95 2.75 10.15 2.25 9.85 2.15 9.25 2.35 8.7 2.9 8.6 3.35 8.8 M2.25 8.25 L2.1 8.55 1.75 8.65 1.55 8.5 1.45 8.2 1.6 7.8 1.85 7.8 2.15 7.85 2.25 8.25" fill="#ffffff" fill-opacity="0.49803922" fill-rule="evenodd" stroke="none"/>
    </g>
  </defs>
</svg>
