<svg xmlns="http://www.w3.org/2000/svg" xmlns:ffdec="https://www.free-decompiler.com/flash" xmlns:xlink="http://www.w3.org/1999/xlink" ffdec:objectType="frame" width="13.45" height="10.4"><g transform="translate(1.75 -1.45)"><use ffdec:characterId="9" xlink:href="#a" width="11.6" height="9" transform="translate(-1.2 2.2)"/><use ffdec:characterId="3" xlink:href="#b" width="8.95" height="9.45" transform="translate(-.1 1.55)"/><use ffdec:characterId="10" xlink:href="#c" width="13.45" height="9.8" transform="translate(-1.75 1.45)"/></g><defs><g id="a" fill-rule="evenodd"><path fill="#fff" d="m11.55 6.4-2 2.05q-.9.8-4.55.4T.35 5.9Q-.15 4.6.1 3.4q1.2-2.05 1.6-2.35 1.55-1.3 4.95-1Q9.9.4 11.05 3.5q.65 1.4.5 2.9"/><path fill-opacity=".2" d="M11.05 3.5q.65 1.4.5 2.9l-.15.3q-3.45-4.8-8-3.85-1.95.3-3.35 1.45l.05-.9q1.2-2.05 1.6-2.35 1.55-1.3 4.95-1Q9.9.4 11.05 3.5"/></g><g id="d" fill-rule="evenodd"><path fill="#19003f" d="M8.2 5.5q.15-1.6-.8-2.95Q6.3 1.05 4.8.9 3.3.8 2.05 2 .8 3.15.7 4.8v.1q-.1 1.7.8 3 1.1 1.35 2.6 1.45 1.5.15 2.8-.9Q8 7.3 8.2 5.65zm.7-.3q-.2 1.9-1.6 3.15Q5.85 9.6 4.1 9.4 2.25 9.25.95 7.8-.1 6.25 0 4.4v-.1q.2-1.85 1.55-3.15Q3.1-.15 4.95 0 6.7.2 7.9 1.7q1.25 1.55 1 3.4z"/><path fill="url(#e)" d="M8.2 5.5v.15Q8 7.3 6.9 8.45q-1.3 1.05-2.8.9-1.5-.1-2.6-1.45-.9-1.3-.8-3v-.1Q.8 3.15 2.05 2 3.3.8 4.8.9q1.5.15 2.6 1.65.95 1.35.8 2.95m-2.15-.65V4.8q.1-.85-.3-1.35-.5-.7-1.25-.75-.65-.1-1.35.55-.55.5-.65 1.25v.05q0 .85.35 1.4.6.6 1.25.6.7.05 1.35-.35.55-.5.6-1.35"/><path fill="#2e1554" d="M6.05 4.85Q6 5.7 5.45 6.2q-.65.4-1.35.35-.65 0-1.25-.6-.35-.55-.35-1.4V4.5q.1-.75.65-1.25.7-.65 1.35-.55.75.05 1.25.75.4.5.3 1.35z"/></g><g id="c" fill-rule="evenodd"><path fill="#331600" d="M12 7.3 9.5 9.8q1.25-1.35 1.65-3.9.25-1.7-1.3-3.05-1.35-1.15-3-1.35l-2.95.05Q2.1 2.15.5 5q.1-1.3.95-2.65L0 3.25l.95-1.2 1-.95Q3.5.2 3.65.3l3.2-.2q3.45.6 5.35 3.5l1.25 1.8z"/><path fill="#fff" d="M9.8 3.4q.4.45.35.95l-.5.8q-.35.35-.85.3L8 5q-.25-.4-.2-.9t.35-.85q.45-.3.9-.3.5.05.75.45"/><path fill="#fff" fill-opacity=".498" d="m5.1 7.35.2.6-.3.55-.5.2-.5-.3-.1-.6.2-.55.55-.1zM4 6.8l-.15.3-.35.1-.2-.15-.1-.3.15-.4h.25l.3.05z"/></g><radialGradient id="e" cx="0" cy="0" r="819.2" gradientTransform="matrix(.005 .0005 -.0004 .0052 4.5 7.1)" gradientUnits="userSpaceOnUse" spreadMethod="pad"><stop offset=".024" stop-color="#a874bb"/><stop offset=".878" stop-color="#41197e"/></radialGradient><use ffdec:characterId="2" xlink:href="#d" id="b" width="8.95" height="9.45"/></defs></svg>