<?xml version="1.0" encoding="UTF-8" standalone="no"?>
<svg xmlns:ffdec="https://www.free-decompiler.com/flash" xmlns:xlink="http://www.w3.org/1999/xlink" ffdec:objectType="frame" height="9.65px" width="12.65px" xmlns="http://www.w3.org/2000/svg">
  <g transform="matrix(1.0, 0.0, 0.0, 1.0, 3.55, -1.35)">
    <use ffdec:characterId="7" height="9.65" transform="matrix(1.0, 0.0, 0.0, 1.0, -3.55, 1.35)" width="12.65" xlink:href="#shape0"/>
  </g>
  <defs>
    <g id="shape0" transform="matrix(1.0, 0.0, 0.0, 1.0, 3.55, -1.35)">
      <path d="M7.6 5.15 Q7.9 5.7 7.55 7.0 7.2 8.3 6.3 9.35 5.35 10.3 3.6 10.65 L1.2 10.6 Q-0.8 10.2 -1.8 9.35 -2.85 8.5 -3.0 7.45 -3.2 6.35 -2.95 6.0 L-2.45 5.0 -2.1 4.3 Q-1.45 3.65 0.05 3.4 0.6 3.3 1.3 2.8 L2.95 2.5 2.95 2.45 Q6.2 3.0 6.8 4.05 L7.6 5.15" fill="#ffffff" fill-rule="evenodd" stroke="none"/>
      <path d="M4.7 9.7 L3.3 10.15 1.9 10.25 0.7 9.8 Q0.05 9.4 -0.45 8.35 -1.0 7.3 -0.95 5.85 -0.9 4.45 0.2 3.2 L-0.1 3.6 Q0.35 3.15 0.55 3.15 L2.4 2.7 3.2 2.7 Q5.15 3.45 5.6 5.1 6.05 6.65 5.45 8.35 L4.7 9.7" fill="#666666" fill-rule="evenodd" stroke="none"/>
      <path d="M3.95 10.05 L0.7 9.9 0.25 9.35 Q-0.9 7.9 -0.9 6.2 -1.05 4.9 -0.4 3.9 L0.55 3.25 Q1.65 2.65 3.2 2.7 L4.25 2.9 Q4.05 2.3 5.0 3.75 5.95 5.2 5.8 6.9 5.6 8.55 4.9 9.65 L3.95 10.05" fill="url(#gradient0)" fill-rule="evenodd" stroke="none"/>
      <path d="M4.25 6.15 Q4.55 7.35 4.0 8.0 3.4 8.8 2.35 8.65 0.95 8.5 0.75 7.2 0.5 5.7 1.25 5.1 1.85 4.55 2.45 4.6 3.85 4.7 4.25 6.15" fill="#000000" fill-opacity="0.5019608" fill-rule="evenodd" stroke="none"/>
      <path d="M4.45 9.55 L2.5 10.05 1.65 9.95 Q0.6 9.7 0.55 8.95 0.45 8.2 0.95 7.7 1.6 7.05 2.8 7.05 4.05 7.05 4.65 7.75 5.0 8.15 5.0 8.65 5.0 9.15 4.45 9.55" fill="#6b6b6b" fill-opacity="0.45882353" fill-rule="evenodd" stroke="none"/>
      <path d="M3.95 5.55 L4.3 5.95 4.65 7.0 Q4.7 7.7 4.3 8.3 3.85 8.9 2.7 9.0 1.45 9.05 1.0 8.4 0.55 7.7 0.6 7.0 L0.7 6.25 0.7 6.55 0.9 7.5 1.6 8.4 2.85 8.55 Q3.65 8.5 4.0 7.95 L4.3 6.95 4.15 6.1 3.95 5.55" fill="#000000" fill-opacity="0.2" fill-rule="evenodd" stroke="none"/>
      <path d="M4.5 4.75 Q5.45 4.75 5.45 5.75 5.45 6.85 4.4 6.85 3.8 6.85 3.5 6.4 L3.3 5.85 Q3.3 5.5 3.55 5.2 3.9 4.75 4.5 4.75 M0.25 7.1 L0.25 6.9 Q0.25 6.55 0.65 6.55 0.95 6.55 0.95 6.9 0.95 7.3 0.6 7.3 0.3 7.3 0.25 7.1" fill="#ffffff" fill-rule="evenodd" stroke="none"/>
      <path d="M2.6 2.75 L2.7 2.7 3.3 2.7 Q4.85 2.7 6.4 3.9 7.95 5.1 7.95 6.4 7.95 7.7 7.6 7.7 7.8 7.35 6.4 6.1 5.0 4.85 3.15 4.85 1.25 4.85 -0.2 5.75 -1.7 6.65 -2.4 7.6 L-2.7 7.95 -2.8 8.05 -2.95 7.55 -3.0 6.8 -3.0 6.75 Q-2.85 6.65 -2.85 6.3 L-2.65 5.55 -1.5 4.25 Q-0.9 3.7 0.6 3.2 L1.85 2.9 2.6 2.75" fill="#000000" fill-opacity="0.17254902" fill-rule="evenodd" stroke="none"/>
      <path d="M6.2 2.65 L3.85 2.35 Q5.0 2.5 5.95 3.1 L6.05 3.1 6.95 3.3 7.7 3.15 7.45 3.5 7.0 3.9 7.05 4.0 7.45 4.0 8.45 3.9 8.55 4.0 8.2 4.35 7.7 4.8 7.8 4.9 7.95 5.0 9.05 5.35 9.1 5.3 8.85 5.55 8.15 5.8 Q7.75 5.8 7.95 5.95 L8.85 6.3 7.8 7.55 6.85 8.8 Q6.55 9.05 7.0 8.15 L7.2 7.5 Q7.65 5.7 6.2 4.35 4.7 3.0 2.7 3.2 0.7 3.35 -0.55 4.25 L-2.4 5.95 -3.25 7.3 -3.15 6.65 Q-2.9 5.45 -2.3 4.45 L-3.55 5.55 -1.75 3.55 Q-0.95 3.0 -0.35 2.75 L0.55 2.45 0.95 2.3 2.45 2.05 3.8 2.05 Q6.0 2.35 6.55 2.75 L6.2 2.65 M7.35 4.3 L7.45 4.3 7.35 4.3 M4.1 10.45 L4.7 10.25 4.75 10.2 Q4.95 10.45 4.8 10.85 L4.2 10.5 4.1 10.45 M4.0 10.55 L3.95 11.0 3.25 10.55 4.0 10.45 4.0 10.55 M4.75 10.2 L6.1 9.35 6.1 9.4 6.45 9.95 6.25 10.1 5.4 10.0 5.65 10.45 4.75 10.2" fill="#000000" fill-rule="evenodd" stroke="none"/>
      <path d="M0.55 1.9 L-0.15 2.05 Q-0.65 2.15 -2.1 2.95 L-3.5 4.1 Q-2.5 1.5 0.7 1.4 3.85 1.25 2.3 1.55 L0.55 1.9" fill="#936440" fill-rule="evenodd" stroke="none"/>
    </g>
    <linearGradient gradientTransform="matrix(0.0, 0.0046, -0.0048, 0.0, 2.55, 6.45)" gradientUnits="userSpaceOnUse" id="gradient0" spreadMethod="pad" x1="-819.2" x2="819.2">
      <stop offset="0.0" stop-color="#000000"/>
      <stop offset="1.0" stop-color="#000000" stop-opacity="0.0"/>
    </linearGradient>
  </defs>
</svg>
