<?xml version="1.0" encoding="UTF-8" standalone="no"?>
<svg xmlns:ffdec="https://www.free-decompiler.com/flash" xmlns:xlink="http://www.w3.org/1999/xlink" ffdec:objectType="frame" height="9.65px" width="12.65px" xmlns="http://www.w3.org/2000/svg">
  <g transform="matrix(1.0, 0.0, 0.0, 1.0, 3.55, -1.35)">
    <use ffdec:characterId="8" height="6.55" transform="matrix(1.0, 0.0, 0.0, 1.0, -3.55, 4.45)" width="12.6" xlink:href="#shape0"/>
  </g>
  <defs>
    <g id="shape0" transform="matrix(1.0, 0.0, 0.0, 1.0, 3.55, -4.45)">
      <path d="M1.3 5.45 L2.95 5.25 2.95 5.2 Q6.2 5.6 6.8 6.3 L7.6 7.05 Q7.9 7.4 7.55 8.3 7.2 9.2 6.3 9.9 5.35 10.55 3.6 10.8 L1.2 10.75 Q-0.8 10.45 -1.8 9.9 -2.85 9.3 -3.0 8.6 -3.2 7.85 -2.95 7.6 L-2.45 6.95 -2.1 6.45 0.05 5.85 1.3 5.45" fill="#ffffff" fill-rule="evenodd" stroke="none"/>
      <path d="M5.45 9.2 L4.7 10.15 3.3 10.45 1.9 10.5 0.7 10.2 -0.45 9.2 Q-1.0 8.5 -0.95 7.5 -0.9 6.55 0.2 5.7 L-0.1 6.0 Q0.35 5.7 0.55 5.7 L2.4 5.4 3.2 5.4 Q5.15 5.9 5.6 7.0 6.05 8.05 5.45 9.2" fill="#666666" fill-rule="evenodd" stroke="none"/>
      <path d="M4.25 5.5 Q4.05 5.1 5.0 6.1 5.95 7.1 5.8 8.25 5.6 9.35 4.9 10.1 L3.95 10.35 0.7 10.25 0.25 9.9 Q-0.9 8.9 -0.9 7.75 -1.05 6.9 -0.4 6.2 L0.55 5.75 3.2 5.4 4.25 5.5" fill="url(#gradient0)" fill-rule="evenodd" stroke="none"/>
      <path d="M2.45 6.65 Q3.85 6.75 4.25 7.7 4.55 8.55 4.0 9.0 3.4 9.5 2.35 9.4 0.95 9.3 0.75 8.45 0.5 7.4 1.25 7.0 1.85 6.65 2.45 6.65" fill="#000000" fill-opacity="0.5019608" fill-rule="evenodd" stroke="none"/>
      <path d="M4.45 10.05 L2.5 10.35 1.65 10.3 Q0.6 10.15 0.55 9.6 0.45 9.1 0.95 8.8 1.6 8.35 2.8 8.35 4.05 8.35 4.65 8.8 L5.0 9.4 4.45 10.05" fill="#6b6b6b" fill-opacity="0.45882353" fill-rule="evenodd" stroke="none"/>
      <path d="M4.3 7.6 L4.65 8.3 4.3 9.2 Q3.85 9.6 2.7 9.65 1.45 9.7 1.0 9.25 0.55 8.8 0.6 8.3 L0.7 7.8 0.7 8.0 0.9 8.65 1.6 9.25 2.85 9.35 4.0 8.95 4.3 8.25 4.15 7.7 3.95 7.3 4.3 7.6" fill="#000000" fill-opacity="0.2" fill-rule="evenodd" stroke="none"/>
      <path d="M4.5 6.75 Q5.45 6.75 5.45 7.45 5.45 8.2 4.4 8.2 L3.5 7.9 3.3 7.5 3.55 7.1 Q3.9 6.75 4.5 6.75 M0.6 8.5 L0.25 8.35 0.25 8.25 Q0.25 8.0 0.65 8.0 L0.95 8.25 0.6 8.5" fill="#ffffff" fill-rule="evenodd" stroke="none"/>
      <path d="M3.15 6.85 Q1.25 6.85 -0.2 7.45 -1.7 8.05 -2.4 8.7 L-2.7 8.95 -2.8 9.0 -2.95 8.65 -3.0 8.15 -2.85 7.85 -2.65 7.3 -1.5 6.45 Q-0.9 6.05 0.6 5.7 L1.85 5.5 2.6 5.4 3.3 5.4 Q4.85 5.4 6.4 6.2 7.95 7.0 7.95 7.9 7.95 8.8 7.6 8.8 7.8 8.55 6.4 7.7 5.0 6.85 3.15 6.85" fill="#000000" fill-opacity="0.16862746" fill-rule="evenodd" stroke="none"/>
      <path d="M6.05 5.65 L6.95 5.8 7.7 5.7 7.45 5.95 7.0 6.2 7.05 6.25 8.45 6.2 8.55 6.25 8.2 6.5 7.7 6.8 7.8 6.9 7.95 6.95 9.05 7.2 8.85 7.3 8.15 7.5 Q7.75 7.5 7.95 7.6 L8.85 7.85 Q8.5 7.95 7.8 8.65 L6.85 9.5 Q6.55 9.7 7.0 9.1 L7.2 8.65 Q7.65 7.4 6.2 6.5 4.7 5.6 2.7 5.7 0.7 5.8 -0.55 6.45 L-2.4 7.6 -3.25 8.5 -3.15 8.05 Q-2.9 7.25 -2.3 6.55 L-3.55 7.3 -1.75 5.95 -0.35 5.4 0.55 5.2 0.95 5.1 2.45 4.95 3.8 4.95 6.55 5.4 6.2 5.35 3.85 5.15 Q5.0 5.25 5.95 5.65 L6.05 5.65 M4.0 10.7 L3.95 11.0 3.25 10.7 4.0 10.65 4.0 10.7 M6.1 9.9 L6.1 9.95 6.45 10.3 Q6.55 10.5 6.25 10.4 L5.4 10.35 5.65 10.65 4.75 10.45 6.1 9.9 M4.1 10.65 L4.7 10.5 4.75 10.45 Q4.95 10.65 4.8 10.9 L4.2 10.7 4.1 10.65" fill="#000000" fill-rule="evenodd" stroke="none"/>
      <path d="M0.55 4.85 L-0.15 4.95 -2.1 5.55 -3.5 6.35 Q-2.5 4.55 0.7 4.5 3.85 4.4 2.3 4.6 L0.55 4.85" fill="#936440" fill-rule="evenodd" stroke="none"/>
    </g>
    <linearGradient gradientTransform="matrix(0.0, 0.0031, -0.0048, 0.0, 2.55, 7.95)" gradientUnits="userSpaceOnUse" id="gradient0" spreadMethod="pad" x1="-819.2" x2="819.2">
      <stop offset="0.0" stop-color="#000000"/>
      <stop offset="1.0" stop-color="#000000" stop-opacity="0.0"/>
    </linearGradient>
  </defs>
</svg>
