<svg xmlns="http://www.w3.org/2000/svg" xmlns:ffdec="https://www.free-decompiler.com/flash" xmlns:xlink="http://www.w3.org/1999/xlink" ffdec:objectType="frame" width="12.65" height="9.65"><use ffdec:characterId="9" xlink:href="#a" width="12.15" height="3.55" transform="translate(.1 4.1)"/><defs><g id="a" fill-rule="evenodd"><path d="m7.55 3.5-1.15.05-1-.15-1.35-.3-1.6-.5L0 1.15l2.55.65L.85.7V.65l2.5 1.25 1.2.4 1.75.2 1 .05-.05-.05 1.95-.4 1.5-.6-1.4.8.85-.25 1.9-.75-.4.6.5-.15q-.2.4-.95.45h.15l-.1.1.5.1-.4.15H11l-.35.15h.05l.5.1-.95.15h-.1l-.25.15-.85.2zm3.25-2.2v-.05l.05.05z"/><path fill="#936440" d="M5.45 1.75q-1 0-2.4-.55L1.15.05 1.3 0l3.8 1.3q1.3.4.35.45"/></g></defs></svg>