<svg xmlns="http://www.w3.org/2000/svg" xmlns:ffdec="https://www.free-decompiler.com/flash" xmlns:xlink="http://www.w3.org/1999/xlink" ffdec:objectType="frame" width="12.65" height="9.65"><use ffdec:characterId="10" xlink:href="#a" width="12.6" height="6.55" transform="translate(0 3.1)"/><defs><linearGradient id="b" x1="-819.2" x2="819.2" gradientTransform="matrix(0 .0031 -.0048 0 2.55 7.95)" gradientUnits="userSpaceOnUse" spreadMethod="pad"><stop offset="0"/><stop offset="1" stop-opacity="0"/></linearGradient><g id="a" fill-rule="evenodd"><path fill="#fff" d="M6.5.8V.75q3.25.4 3.85 1.1l.8.75q.3.35-.05 1.25t-1.25 1.6q-.95.65-2.7.9l-2.4-.05q-2-.3-3-.85-1.05-.6-1.2-1.3-.2-.75.05-1l.5-.65.35-.5 2.15-.6L4.85 1z"/><path fill="#666" d="m9 4.75-.75.95-1.4.3-1.4.05-1.2-.3-1.15-1q-.55-.7-.5-1.7.05-.95 1.15-1.8l-.3.3q.45-.3.65-.3l1.85-.3h.8q1.95.5 2.4 1.6Q9.6 3.6 9 4.75"/><path fill="url(#b)" d="M4.25 5.5q-.2-.4.75.6t.8 2.15q-.2 1.1-.9 1.85l-.95.25-3.25-.1-.45-.35Q-.9 8.9-.9 7.75q-.15-.85.5-1.55l.95-.45L3.2 5.4z" transform="translate(3.55 -4.45)"/><path fill-opacity=".502" d="M6 2.2q1.4.1 1.8 1.05.3.85-.25 1.3-.6.5-1.65.4-1.4-.1-1.6-.95-.25-1.05.5-1.45.6-.35 1.2-.35"/><path fill="#6b6b6b" fill-opacity=".459" d="M4.1 5.15q-.1-.5.4-.8.65-.45 1.85-.45 1.25 0 1.85.45l.35.6L8 5.6l-1.95.3-.85-.05q-1.05-.15-1.1-.7"/><path fill-opacity=".2" d="m7.85 3.15.35.7-.35.9q-.45.4-1.6.45-1.25.05-1.7-.4t-.4-.95l.1-.5v.2l.2.65.7.6 1.25.1 1.15-.4.3-.7-.15-.55-.2-.4z"/><path fill="#fff" d="M8.05 2.3Q9 2.3 9 3q0 .75-1.05.75l-.9-.3-.2-.4.25-.4q.35-.35.95-.35M4.2 3.55l.3.25-.35.25-.35-.15v-.1q0-.25.4-.25"/><path fill-opacity=".165" d="M6.7 2.4q-1.9 0-3.35.6-1.5.6-2.2 1.25l-.3.25-.1.05L.6 4.2l-.05-.5.15-.3.2-.55L2.05 2q.6-.4 2.1-.75l1.25-.2.75-.1h.7q1.55 0 3.1.8t1.55 1.7-.35.9q.2-.25-1.2-1.1T6.7 2.4"/><path d="m9.6 1.2.9.15.75-.1-.25.25-.45.25.05.05 1.4-.05.1.05-.35.25-.5.3.1.1.15.05 1.1.25-.2.1-.7.2q-.4 0-.2.1l.9.25q-.35.1-1.05.8l-.95.85q-.3.2.15-.4l.2-.45q.45-1.25-1-2.15-1.5-.9-3.5-.8T3 2L1.15 3.15l-.85.9.1-.45q.25-.8.85-1.5L0 2.85 1.8 1.5 3.2.95l.9-.2.4-.1L6 .5h1.35l2.75.45L9.75.9 7.4.7q1.15.1 2.1.5zm-1.95 5 .6-.15L8.3 6q.2.2.05.45l-.6-.2zm-.1.05-.05.3-.7-.3.75-.05zm2.1-.8v.05l.35.35q.1.2-.2.1l-.85-.05.25.3-.9-.2z"/><path fill="#936440" d="m4.1.4-.7.1-1.95.6-1.4.8q1-1.8 4.2-1.85 3.15-.1 1.6.1z"/></g></defs></svg>