<?xml version="1.0" encoding="UTF-8" standalone="no"?>
<svg xmlns:ffdec="https://www.free-decompiler.com/flash" xmlns:xlink="http://www.w3.org/1999/xlink" ffdec:objectType="frame" height="9.65px" width="12.85px" xmlns="http://www.w3.org/2000/svg">
  <g transform="matrix(1.0, 0.0, 0.0, 1.0, -3.0, -1.35)">
    <use ffdec:characterId="3" height="3.55" transform="matrix(1.0, 0.0, 0.0, 1.0, 3.7, 5.45)" width="12.15" xlink:href="#shape0"/>
  </g>
  <defs>
    <g id="shape0" transform="matrix(1.0, 0.0, 0.0, 1.0, -3.7, -5.45)">
      <path d="M15.0 6.15 L13.3 7.25 15.85 6.6 13.4 8.05 11.8 8.55 10.45 8.85 9.45 9.0 8.3 8.95 6.8 8.75 5.95 8.55 5.7 8.4 5.6 8.4 4.65 8.25 5.15 8.15 5.2 8.15 4.85 8.0 4.5 8.0 4.1 7.85 4.6 7.75 4.5 7.65 4.65 7.65 Q3.9 7.6 3.7 7.2 L4.2 7.35 3.8 6.75 5.7 7.5 6.55 7.75 5.15 6.95 6.65 7.55 8.6 7.95 8.55 8.0 9.55 7.95 11.3 7.75 12.5 7.35 15.0 6.1 15.0 6.15 M7.35 6.75 L7.35 6.7 7.4 6.75 7.35 6.75" fill="#000000" fill-rule="evenodd" stroke="none"/>
      <path d="M14.55 5.45 L14.7 5.5 Q14.2 6.1 12.8 6.65 L10.4 7.2 Q9.45 7.15 10.75 6.75 L14.55 5.45" fill="#936440" fill-rule="evenodd" stroke="none"/>
    </g>
  </defs>
</svg>
