<svg xmlns="http://www.w3.org/2000/svg" xmlns:ffdec="https://www.free-decompiler.com/flash" xmlns:xlink="http://www.w3.org/1999/xlink" ffdec:objectType="frame" width="12.85" height="10.45"><use ffdec:characterId="14" xlink:href="#a" width="12.15" height="2.55" transform="translate(.5 6.45)"/><defs><g id="a" fill-rule="evenodd"><path fill="#333" d="M2.4 2.05 1.15 1.5.1 1 0 .9l.1.05 7.35.2L9.5.75 11.2.2l.4-.2-.65.75 1.2.15-1.4.25h-.25l-.25.2 1 .05-.45.25-.6.1-.5-.05-.25.15.65.1h.3l-.45.25-.5.1H9.3l-.55-.05.55.1h-.8l-4.3.15z"/><path fill-opacity=".298" d="M3.9.95 3.65.9 0 .3V.25h.25l4.35.3L10 0 8.8.45l-2.55.5z"/></g></defs></svg>