<?xml version="1.0" encoding="UTF-8" standalone="no"?>
<svg xmlns:ffdec="https://www.free-decompiler.com/flash" xmlns:xlink="http://www.w3.org/1999/xlink" ffdec:objectType="frame" height="16.6px" width="14.75px" xmlns="http://www.w3.org/2000/svg">
  <g transform="matrix(1.0, 0.0, 0.0, 1.0, -1.1, 0.7)">
    <use ffdec:characterId="1" height="10.5" transform="matrix(1.0, 0.0, 0.0, 1.0, 1.3, 5.4)" width="12.15" xlink:href="#shape0"/>
    <use ffdec:characterId="18" height="5.95" transform="matrix(1.0, 0.0, 0.0, 1.0, 1.1, 6.85)" width="14.75" xlink:href="#shape1"/>
  </g>
  <defs>
    <g id="shape0" transform="matrix(1.0, 0.0, 0.0, 1.0, -1.3, -5.4)">
      <path d="M11.65 6.9 L11.85 6.95 12.8 8.2 13.15 8.85 13.35 9.25 13.4 10.1 13.4 10.25 13.45 10.65 13.4 11.25 Q13.3 12.35 12.65 13.3 L11.65 14.45 9.65 15.6 7.4 15.9 5.2 15.6 Q4.05 15.25 3.1 14.45 1.55 13.1 1.3 11.25 L1.3 10.65 1.3 10.2 1.3 10.05 1.35 10.05 1.7 9.0 1.6 8.95 1.85 8.5 2.0 8.2 3.0 6.95 3.1 6.9 3.3 6.75 4.2 6.15 4.7 5.95 5.45 5.65 7.4 5.4 Q9.8 5.4 11.65 6.9" fill="url(#gradient0)" fill-rule="evenodd" stroke="none"/>
    </g>
    <radialGradient cx="0" cy="0" gradientTransform="matrix(-0.0108, -0.0069, -0.0058, 0.0113, 5.5, 9.9)" gradientUnits="userSpaceOnUse" id="gradient0" r="819.2" spreadMethod="pad">
      <stop offset="0.0" stop-color="#ff6666" stop-opacity="0.6"/>
      <stop offset="0.0" stop-color="#ff6666" stop-opacity="0.85882354"/>
      <stop offset="0.6666666666666666" stop-color="#ffffff" stop-opacity="0.0"/>
    </radialGradient>
    <g id="shape1" transform="matrix(1.0, 0.0, 0.0, 1.0, -1.1, -6.85)">
      <path d="M3.7 10.45 L3.3 10.05 2.25 9.05 1.2 8.8 1.1 8.8 1.2 8.75 2.0 8.65 2.45 8.65 2.65 8.7 2.65 8.6 4.15 8.8 4.2 8.85 4.3 8.95 4.35 9.0 4.45 9.05 4.7 9.25 5.45 9.7 7.35 10.3 10.1 10.4 10.15 10.4 11.55 10.2 12.5 9.8 13.9 8.95 15.0 8.1 15.05 8.1 14.7 8.55 14.55 8.7 14.05 9.2 14.0 9.25 13.95 9.25 13.8 9.4 13.45 9.6 13.4 9.65 13.25 9.8 12.35 10.3 10.75 10.85 8.55 11.05 7.1 10.9 6.2 10.65 5.45 10.4 4.7 10.05 4.4 9.95 4.2 9.8 3.65 9.5 3.75 9.6 3.6 9.5 4.2 10.05 4.35 10.2 4.7 10.45 5.45 10.85 5.9 11.05 5.45 10.95 4.7 10.65 4.4 10.55 4.2 10.4 3.3 9.8 2.9 9.45 2.85 9.4 2.75 9.35 2.7 9.35 3.7 10.45 4.2 10.65 4.7 10.9 5.45 11.2 10.8 11.45 10.95 11.4 11.3 11.3 12.05 11.05 13.65 10.25 Q14.4 10.4 15.15 11.1 L15.2 11.5 14.95 11.2 14.8 11.05 Q14.3 10.6 13.3 10.6 L13.25 10.6 12.9 10.85 Q13.3 11.0 13.55 11.3 L13.7 11.5 13.8 11.8 Q13.2 11.1 12.5 11.05 L12.95 11.35 12.9 11.35 13.1 11.65 12.6 11.4 12.55 11.4 12.1 11.3 11.85 11.4 11.9 11.4 11.1 11.55 11.5 11.85 11.75 12.4 9.85 11.9 9.65 11.9 8.8 11.85 8.6 11.85 8.65 12.0 8.7 12.1 8.65 12.55 8.65 12.5 8.6 12.6 8.45 12.3 8.4 12.25 8.4 12.2 7.65 11.85 7.55 11.85 7.45 11.85 7.35 11.8 5.45 11.4 4.7 11.1 4.2 10.8 3.7 10.45" fill="url(#gradient1)" fill-rule="evenodd" stroke="none"/>
      <path d="M3.7 10.45 L2.7 9.35 2.75 9.35 2.85 9.4 2.9 9.45 3.3 9.8 4.2 10.4 4.4 10.55 4.7 10.65 5.45 10.95 5.9 11.05 5.45 10.85 4.7 10.45 4.35 10.2 4.2 10.05 3.6 9.5 3.75 9.6 3.65 9.5 4.2 9.8 4.4 9.95 4.7 10.05 5.45 10.4 6.2 10.65 7.1 10.9 8.55 11.05 10.75 10.85 12.35 10.3 13.25 9.8 13.4 9.65 13.45 9.6 13.8 9.4 13.95 9.25 14.0 9.25 14.05 9.2 14.55 8.7 14.7 8.55 15.05 8.1 15.2 7.95 15.1 8.15 14.9 8.6 14.35 9.45 Q15.45 9.45 15.8 9.75 L15.85 9.8 14.2 9.7 14.05 9.85 14.0 9.9 13.9 10.0 13.9 10.05 13.75 10.2 13.7 10.2 13.65 10.25 12.05 11.05 11.3 11.3 10.95 11.4 10.8 11.45 5.45 11.2 4.7 10.9 4.2 10.65 3.7 10.45" fill="url(#gradient2)" fill-rule="evenodd" stroke="none"/>
      <path d="M13.8 9.8 L13.15 9.25 12.45 9.0 12.75 8.85 13.1 8.65 Q13.7 8.95 13.9 9.75 L13.8 9.8" fill="url(#gradient3)" fill-rule="evenodd" stroke="none"/>
      <path d="M14.5 6.85 L13.3 7.6 9.95 7.5 Q12.0 7.65 14.5 6.85" fill="url(#gradient4)" fill-rule="evenodd" stroke="none"/>
      <path d="M13.9 9.75 L14.5 9.3 14.6 9.2 14.65 9.15 15.7 7.9 15.4 8.55 14.4 10.05 15.2 10.1 15.85 10.3 14.2 10.25 13.9 10.55 Q14.85 10.6 15.5 11.15 L15.55 11.15 15.55 11.2 15.85 11.65 15.0 11.05 13.75 10.6 13.5 10.8 13.3 10.95 12.75 11.3 12.45 11.45 12.4 11.45 12.35 11.5 12.3 11.5 12.2 11.95 12.25 12.0 12.55 12.4 12.65 12.8 12.5 12.5 11.85 11.95 10.15 11.95 9.05 11.85 Q9.3 12.25 9.15 12.7 L9.0 12.35 8.4 11.7 8.05 11.6 Q6.25 11.25 3.2 8.7 6.95 10.3 7.85 10.5 L8.7 10.5 11.05 10.6 13.3 10.05 13.8 9.8 13.9 9.75" fill="url(#gradient5)" fill-rule="evenodd" stroke="none"/>
    </g>
    <radialGradient cx="0" cy="0" gradientTransform="matrix(-0.0093, 0.0, 0.0, -0.006, 9.15, 8.35)" gradientUnits="userSpaceOnUse" id="gradient1" r="819.2" spreadMethod="pad">
      <stop offset="0.0" stop-color="#481c1c"/>
      <stop offset="0.5764705882352941" stop-color="#461c1c"/>
      <stop offset="1.0" stop-color="#a87676"/>
    </radialGradient>
    <linearGradient gradientTransform="matrix(-0.0061, 0.0, 0.0, -0.6418, 9.55, 12.25)" gradientUnits="userSpaceOnUse" id="gradient2" spreadMethod="pad" x1="-819.2" x2="819.2">
      <stop offset="0.0" stop-color="#592e2e"/>
      <stop offset="0.48627450980392156" stop-color="#a87676"/>
      <stop offset="0.9568627450980393" stop-color="#7a4c4c"/>
    </linearGradient>
    <linearGradient gradientTransform="matrix(-9.0E-4, 0.0, 0.0, 8.0E-4, 13.2, 9.25)" gradientUnits="userSpaceOnUse" id="gradient3" spreadMethod="pad" x1="-819.2" x2="819.2">
      <stop offset="0.0" stop-color="#774d4d"/>
      <stop offset="1.0" stop-color="#481c1c"/>
    </linearGradient>
    <linearGradient gradientTransform="matrix(-0.0028, 0.0, 0.0, 6.0E-4, 12.25, 7.3)" gradientUnits="userSpaceOnUse" id="gradient4" spreadMethod="pad" x1="-819.2" x2="819.2">
      <stop offset="0.0" stop-color="#774d4d"/>
      <stop offset="1.0" stop-color="#481c1c"/>
    </linearGradient>
    <linearGradient gradientTransform="matrix(-0.0061, 0.0, 0.0, -1.0, 9.55, 9.8)" gradientUnits="userSpaceOnUse" id="gradient5" spreadMethod="pad" x1="-819.2" x2="819.2">
      <stop offset="0.0" stop-color="#592e2e"/>
      <stop offset="0.48627450980392156" stop-color="#a87676"/>
      <stop offset="0.9568627450980393" stop-color="#7a4c4c"/>
    </linearGradient>
  </defs>
</svg>
