<?xml version="1.0" encoding="UTF-8" standalone="no"?>
<svg xmlns:ffdec="https://www.free-decompiler.com/flash" xmlns:xlink="http://www.w3.org/1999/xlink" ffdec:objectType="frame" height="16.6px" width="14.75px" xmlns="http://www.w3.org/2000/svg">
  <g transform="matrix(1.0, 0.0, 0.0, 1.0, -1.1, 0.7)">
    <use ffdec:characterId="1" height="10.5" transform="matrix(1.0, 0.0, 0.0, 1.0, 1.3, 5.4)" width="12.15" xlink:href="#shape0"/>
    <use ffdec:characterId="19" height="5.25" transform="matrix(1.0, 0.0, 0.0, 1.0, 3.1, 5.5)" width="11.05" xlink:href="#shape1"/>
    <use ffdec:characterId="12" height="8.25" transform="matrix(-1.0, 0.0, 0.0, 0.5607, 12.05, 5.6841)" width="7.65" xlink:href="#sprite0"/>
    <use ffdec:characterId="14" height="41.45" transform="matrix(0.0668, 0.0, 0.0, 0.0374, 9.2131, 6.6677)" width="38.1" xlink:href="#sprite5"/>
    <use ffdec:characterId="20" height="6.7" transform="matrix(1.0, 0.0, 0.0, 1.0, 1.1, 4.55)" width="14.75" xlink:href="#shape8"/>
  </g>
  <defs>
    <g id="shape0" transform="matrix(1.0, 0.0, 0.0, 1.0, -1.3, -5.4)">
      <path d="M11.65 6.9 L11.85 6.95 12.8 8.2 13.15 8.85 13.35 9.25 13.4 10.1 13.4 10.25 13.45 10.65 13.4 11.25 Q13.3 12.35 12.65 13.3 L11.65 14.45 9.65 15.6 7.4 15.9 5.2 15.6 Q4.05 15.25 3.1 14.45 1.55 13.1 1.3 11.25 L1.3 10.65 1.3 10.2 1.3 10.05 1.35 10.05 1.7 9.0 1.6 8.95 1.85 8.5 2.0 8.2 3.0 6.95 3.1 6.9 3.3 6.75 4.2 6.15 4.7 5.95 5.45 5.65 7.4 5.4 Q9.8 5.4 11.65 6.9" fill="url(#gradient0)" fill-rule="evenodd" stroke="none"/>
    </g>
    <radialGradient cx="0" cy="0" gradientTransform="matrix(-0.0108, -0.0069, -0.0058, 0.0113, 5.5, 9.9)" gradientUnits="userSpaceOnUse" id="gradient0" r="819.2" spreadMethod="pad">
      <stop offset="0.0" stop-color="#ff6666" stop-opacity="0.6"/>
      <stop offset="0.0" stop-color="#ff6666" stop-opacity="0.85882354"/>
      <stop offset="0.6666666666666666" stop-color="#ffffff" stop-opacity="0.0"/>
    </radialGradient>
    <g id="shape1" transform="matrix(1.0, 0.0, 0.0, 1.0, -3.1, -5.5)">
      <path d="M3.25 7.65 L3.1 8.35 Q3.05 8.85 4.05 9.75 5.05 10.6 6.3 10.7 L10.0 10.7 Q12.45 10.6 13.55 9.4 L14.15 8.05 Q14.15 7.3 13.65 6.7 L12.55 6.0 7.8 5.75 Q4.7 6.15 3.65 7.1 L3.25 7.65" fill="url(#gradient1)" fill-rule="evenodd" stroke="none"/>
      <path d="M9.5 7.2 Q12.1 7.3 14.1 8.4 14.25 8.0 13.9 7.35 L13.55 6.6 13.35 6.4 Q13.0 6.05 12.45 5.9 L7.7 5.65 Q4.6 6.05 3.55 6.95 L3.15 7.55 3.15 7.8 Q3.25 8.6 3.85 9.25 6.05 7.1 9.5 7.2" fill="url(#gradient2)" fill-rule="evenodd" stroke="none"/>
      <path d="M4.25 8.05 Q4.25 9.05 5.45 9.8 6.6 10.55 8.3 10.55 10.0 10.55 11.2 9.8 12.35 9.05 12.35 8.05 L12.45 7.05 Q12.4 6.55 11.95 6.25 11.4 5.95 10.25 5.7 L8.3 5.55 Q6.1 5.55 5.0 6.25 4.45 6.6 4.3 7.1 L4.25 8.05" fill="url(#gradient3)" fill-rule="evenodd" stroke="none"/>
    </g>
    <linearGradient gradientTransform="matrix(-4.0E-4, -0.0036, 0.0063, -2.0E-4, 8.45, 8.15)" gradientUnits="userSpaceOnUse" id="gradient1" spreadMethod="pad" x1="-819.2" x2="819.2">
      <stop offset="0.0" stop-color="#ffffff"/>
      <stop offset="0.3803921568627451" stop-color="#ededed"/>
      <stop offset="1.0" stop-color="#999999"/>
    </linearGradient>
    <linearGradient gradientTransform="matrix(-1.0E-4, -0.002, 0.0064, -1.0E-4, 8.35, 7.2)" gradientUnits="userSpaceOnUse" id="gradient2" spreadMethod="pad" x1="-819.2" x2="819.2">
      <stop offset="0.0" stop-color="#9f9f9f"/>
      <stop offset="1.0" stop-color="#3a0d0d" stop-opacity="0.8"/>
    </linearGradient>
    <linearGradient gradientTransform="matrix(2.0E-4, -0.0029, -0.0053, -1.0E-4, 19.1, 7.8)" gradientUnits="userSpaceOnUse" id="gradient3" spreadMethod="pad" x1="-819.2" x2="819.2">
      <stop offset="0.0" stop-color="#80575a"/>
      <stop offset="0.23529411764705882" stop-color="#736e66"/>
      <stop offset="1.0" stop-color="#3c5433"/>
    </linearGradient>
    <g id="sprite0" transform="matrix(1.0, 0.0, 0.0, 1.0, 0.4, -0.15)">
      <use ffdec:characterId="4" height="37.0" transform="matrix(-0.0668, 0.0, 0.0, 0.0668, 2.5, 0.4)" width="34.0" xlink:href="#sprite1"/>
      <use ffdec:characterId="5" height="8.25" transform="matrix(1.0, 0.0, 0.0, 1.0, -0.4, 0.15)" width="7.65" xlink:href="#shape3"/>
      <use ffdec:characterId="11" height="6.45" transform="matrix(-1.0, 0.0, 0.0, 1.0, 6.75, 1.95)" width="6.05" xlink:href="#sprite2"/>
    </g>
    <g id="sprite1" transform="matrix(1.0, 0.0, 0.0, 1.0, 0.0, 0.0)">
      <use ffdec:characterId="3" height="37.0" transform="matrix(1.0, 0.0, 0.0, 1.0, 0.0, 0.0)" width="34.0" xlink:href="#shape2"/>
    </g>
    <g id="shape2" transform="matrix(1.0, 0.0, 0.0, 1.0, 0.0, 0.0)">
      <path d="M17.0 0.0 Q24.05 0.0 29.05 5.55 34.0 11.15 34.0 19.0 34.0 26.75 29.05 31.9 24.15 37.0 17.0 37.0 9.85 37.0 5.0 31.9 0.0 26.75 0.0 19.0 0.0 11.15 5.0 5.55 9.95 0.0 17.0 0.0" fill="#ffffff" fill-rule="evenodd" stroke="none"/>
    </g>
    <g id="shape3" transform="matrix(1.0, 0.0, 0.0, 1.0, 0.4, -0.15)">
      <path d="M6.8 1.9 L7.25 3.3 7.05 4.85 Q6.75 6.6 5.5 7.6 4.3 8.6 2.7 8.35 1.2 8.15 0.25 6.75 -0.6 5.45 -0.3 3.7 L-0.15 2.1 Q0.0 1.35 0.5 0.85 1.05 0.45 2.2 0.25 L4.0 0.2 Q6.05 0.55 6.8 1.9" fill="url(#gradient4)" fill-rule="evenodd" stroke="none"/>
    </g>
    <linearGradient gradientTransform="matrix(-7.0E-4, 0.0048, -0.0048, -8.0E-4, 13.3, 5.55)" gradientUnits="userSpaceOnUse" id="gradient4" spreadMethod="pad" x1="-819.2" x2="819.2">
      <stop offset="0.14901960784313725" stop-color="#461c1c"/>
      <stop offset="0.47058823529411764" stop-color="#547364"/>
      <stop offset="0.6941176470588235" stop-color="#a4bdaf"/>
      <stop offset="1.0" stop-color="#bcd7b1"/>
    </linearGradient>
    <g id="sprite2" transform="matrix(1.0, 0.0, 0.0, 1.0, 0.0, 0.3)">
      <use ffdec:characterId="7" height="70.45" transform="matrix(0.0668, 0.0, 0.0, 0.0668, -0.0033, 1.3467)" width="90.6" xlink:href="#sprite3"/>
      <use ffdec:characterId="9" height="64.6" transform="matrix(0.0668, 0.0, 0.0, 0.0668, -0.0033, 1.85)" width="63.05" xlink:href="#sprite4"/>
      <use ffdec:characterId="10" height="4.95" transform="matrix(1.0, 0.0, 0.0, 1.0, 1.0, -0.3)" width="4.8" xlink:href="#shape6"/>
    </g>
    <g id="sprite3" transform="matrix(1.0, 0.0, 0.0, 1.0, 0.05, 0.05)">
      <use ffdec:characterId="6" height="70.45" transform="matrix(1.0, 0.0, 0.0, 1.0, -0.05, -0.05)" width="90.6" xlink:href="#shape4"/>
    </g>
    <g id="shape4" transform="matrix(1.0, 0.0, 0.0, 1.0, 0.05, 0.05)">
      <path d="M4.55 0.3 Q5.5 1.55 5.55 7.1 5.55 10.95 6.3 14.55 9.7 31.6 27.45 47.55 36.35 55.55 44.55 60.1 57.75 65.05 75.45 53.05 84.35 47.1 90.55 40.1 79.3 64.5 56.8 69.25 45.55 71.6 36.55 69.1 17.55 65.15 8.1 50.1 0.75 38.4 0.05 22.0 -0.55 8.95 2.45 1.95 3.65 -0.85 4.55 0.3" fill="#ffffff" fill-rule="evenodd" stroke="none"/>
    </g>
    <g id="sprite4" transform="matrix(1.0, 0.0, 0.0, 1.0, 0.05, 0.0)">
      <use ffdec:characterId="8" height="64.6" transform="matrix(1.0, 0.0, 0.0, 1.0, -0.05, 0.0)" width="63.05" xlink:href="#shape5"/>
    </g>
    <g id="shape5" transform="matrix(1.0, 0.0, 0.0, 1.0, 0.05, 0.0)">
      <path d="M61.0 46.0 L63.0 64.0 51.55 64.5 51.9 45.35 61.0 46.0" fill="url(#gradient5)" fill-rule="evenodd" stroke="none"/>
      <path d="M18.0 3.0 Q18.75 8.0 21.1 14.55 L0.45 12.95 Q-0.15 6.25 0.0 0.0 L18.0 3.0" fill="url(#gradient6)" fill-rule="evenodd" stroke="none"/>
      <path d="M37.25 38.6 L18.25 52.35 Q13.4 48.1 9.7 42.4 L28.75 29.55 Q32.5 34.9 37.25 38.6" fill="url(#gradient7)" fill-rule="evenodd" stroke="none"/>
      <path d="M5.95 35.3 Q3.05 28.75 1.55 20.8 L21.75 16.2 Q24.35 23.15 28.25 28.8 L5.95 35.3" fill="url(#gradient8)" fill-rule="evenodd" stroke="none"/>
      <path d="M49.95 44.85 L42.1 63.4 Q33.85 61.85 26.9 58.25 L39.75 40.35 Q44.35 43.45 49.95 44.85" fill="url(#gradient9)" fill-rule="evenodd" stroke="none"/>
    </g>
    <radialGradient cx="0" cy="0" gradientTransform="matrix(0.0136, 0.0, 0.0, 0.0136, 57.3, 54.95)" gradientUnits="userSpaceOnUse" id="gradient5" r="819.2" spreadMethod="pad">
      <stop offset="0.0" stop-color="#ffffff"/>
      <stop offset="1.0" stop-color="#e9f3b0"/>
    </radialGradient>
    <radialGradient cx="0" cy="0" gradientTransform="matrix(0.0167, 0.0, 0.0, 0.0167, 10.55, 7.3)" gradientUnits="userSpaceOnUse" id="gradient6" r="819.2" spreadMethod="pad">
      <stop offset="0.0" stop-color="#ffffff"/>
      <stop offset="1.0" stop-color="#e9f3b0"/>
    </radialGradient>
    <radialGradient cx="0" cy="0" gradientTransform="matrix(0.04, -0.0497, 0.046, 0.037, 33.65, 28.65)" gradientUnits="userSpaceOnUse" id="gradient7" r="819.2" spreadMethod="pad">
      <stop offset="0.0" stop-color="#ffffff"/>
      <stop offset="1.0" stop-color="#e9f3b0"/>
    </radialGradient>
    <radialGradient cx="0" cy="0" gradientTransform="matrix(0.0174, 0.0, 0.0, 0.0174, 14.9, 25.75)" gradientUnits="userSpaceOnUse" id="gradient8" r="819.2" spreadMethod="pad">
      <stop offset="0.0" stop-color="#ffffff"/>
      <stop offset="1.0" stop-color="#e9f3b0"/>
    </radialGradient>
    <radialGradient cx="0" cy="0" gradientTransform="matrix(0.017, 0.0, 0.0, 0.017, 38.45, 51.9)" gradientUnits="userSpaceOnUse" id="gradient9" r="819.2" spreadMethod="pad">
      <stop offset="0.0" stop-color="#ffffff"/>
      <stop offset="1.0" stop-color="#e9f3b0"/>
    </radialGradient>
    <g id="shape6" transform="matrix(1.0, 0.0, 0.0, 1.0, -1.0, 0.3)">
      <path d="M5.25 3.85 Q4.6 4.6 3.55 4.65 2.6 4.7 1.85 4.05 1.1 3.35 1.0 2.3 0.95 1.2 1.6 0.5 2.25 -0.25 3.2 -0.3 4.25 -0.35 5.0 0.3 5.75 0.9 5.8 2.0 5.9 3.05 5.25 3.85" fill="url(#gradient10)" fill-rule="evenodd" stroke="none"/>
    </g>
    <linearGradient gradientTransform="matrix(0.0, -0.0029, 0.0031, -1.0E-4, 3.35, 2.15)" gradientUnits="userSpaceOnUse" id="gradient10" spreadMethod="pad" x1="-819.2" x2="819.2">
      <stop offset="0.0" stop-color="#a29988"/>
      <stop offset="0.20392156862745098" stop-color="#9ca8a0"/>
      <stop offset="0.26666666666666666" stop-color="#94a199"/>
      <stop offset="0.6" stop-color="#435f53"/>
      <stop offset="1.0" stop-color="#49332f"/>
    </linearGradient>
    <g id="sprite5" transform="matrix(1.0, 0.0, 0.0, 1.0, 2.05, 2.2)">
      <use ffdec:characterId="13" height="41.45" transform="matrix(1.0, 0.0, 0.0, 1.0, -2.05, -2.2)" width="38.1" xlink:href="#shape7"/>
    </g>
    <g id="shape7" transform="matrix(1.0, 0.0, 0.0, 1.0, 2.05, 2.2)">
      <path d="M17.0 -2.2 Q24.9 -2.2 30.5 4.0 36.05 10.25 36.05 19.0 36.05 27.75 30.5 33.55 25.0 39.25 17.0 39.25 9.0 39.25 3.55 33.55 -2.05 27.75 -2.05 19.0 -2.05 10.25 3.55 4.0 9.1 -2.2 17.0 -2.2" fill="url(#gradient11)" fill-rule="evenodd" stroke="none"/>
    </g>
    <radialGradient cx="0" cy="0" gradientTransform="matrix(0.0265, 0.0, 0.0, 0.0265, 17.0, 18.5)" gradientUnits="userSpaceOnUse" id="gradient11" r="819.2" spreadMethod="pad">
      <stop offset="0.0" stop-color="#faf0dc"/>
      <stop offset="0.5843137254901961" stop-color="#e7d9c7" stop-opacity="0.8980392"/>
      <stop offset="1.0" stop-color="#ffffff" stop-opacity="0.0"/>
    </radialGradient>
    <g id="shape8" transform="matrix(1.0, 0.0, 0.0, 1.0, -1.1, -4.55)">
      <path d="M4.8 9.5 Q4.7 9.3 4.95 9.2 L5.4 9.05 5.95 9.1 Q6.25 9.15 6.3 9.3 L6.15 9.55 5.65 9.7 5.1 9.65 4.8 9.5 M11.1 7.7 L10.6 7.85 10.1 7.7 9.85 7.4 10.1 7.1 Q10.3 6.95 10.6 6.95 L11.1 7.1 11.35 7.4 11.1 7.7" fill="#ffffff" fill-rule="evenodd" stroke="none"/>
      <path d="M13.65 5.55 L15.1 6.2 15.15 6.95 14.7 6.5 Q13.25 5.55 9.7 4.95 11.85 4.95 13.65 5.55" fill="#d4b18e" fill-rule="evenodd" stroke="none"/>
      <path d="M15.1 8.6 L15.1 8.5 15.15 8.6 15.15 8.65 15.1 8.6" fill="#a87676" fill-rule="evenodd" stroke="none"/>
      <path d="M15.05 8.5 L14.7 8.1 14.55 7.95 14.05 7.55 14.0 7.5 13.95 7.5 13.85 7.35 13.8 7.35 13.45 7.2 13.4 7.15 13.25 7.0 12.35 6.6 10.75 6.1 8.55 5.9 7.1 6.05 6.2 6.2 5.45 6.5 4.7 6.75 4.4 6.9 4.2 7.0 3.75 7.25 3.75 7.2 3.6 7.25 4.2 6.75 4.35 6.65 4.7 6.45 Q5.1 6.2 5.45 6.1 L5.9 5.9 5.45 6.0 4.7 6.2 4.4 6.35 4.2 6.45 3.3 7.0 2.9 7.3 2.85 7.3 3.7 6.45 4.2 6.2 4.7 6.05 5.45 5.8 10.8 5.55 10.95 5.6 11.3 5.7 12.05 5.9 Q12.95 6.2 13.65 6.6 L13.7 6.65 13.75 6.65 13.9 6.8 14.0 6.95 14.05 6.95 14.2 7.15 15.85 7.0 15.8 7.05 14.35 7.3 14.9 8.1 15.1 8.45 15.2 8.65 15.15 8.6 15.1 8.5 15.1 8.6 15.05 8.5 M2.85 7.3 L2.75 7.45 2.7 7.45 2.85 7.3" fill="url(#gradient12)" fill-rule="evenodd" stroke="none"/>
      <path d="M13.65 6.6 Q12.95 6.2 12.05 5.9 L11.3 5.7 10.95 5.6 10.8 5.55 5.45 5.8 4.7 6.05 4.2 6.2 3.7 6.45 2.85 7.3 2.9 7.3 3.3 7.0 4.2 6.45 4.4 6.35 4.7 6.2 5.45 6.0 5.9 5.9 5.45 6.1 Q5.1 6.2 4.7 6.45 L4.35 6.65 4.2 6.75 3.6 7.25 3.75 7.2 3.75 7.25 4.2 7.0 4.4 6.9 4.7 6.75 5.45 6.5 6.2 6.2 7.1 6.05 8.55 5.9 10.75 6.1 12.35 6.6 13.25 7.0 13.4 7.15 13.45 7.2 13.8 7.35 13.85 7.35 13.95 7.5 14.0 7.5 14.05 7.55 14.55 7.95 14.7 8.1 15.05 8.5 15.0 8.5 13.9 7.75 Q13.2 7.3 12.5 7.0 L11.55 6.65 10.15 6.5 10.1 6.5 7.35 6.6 Q6.35 6.75 5.45 7.15 L4.7 7.5 4.45 7.65 4.35 7.75 4.3 7.75 4.2 7.85 3.95 8.2 Q3.7 8.65 3.75 9.2 L3.75 9.35 3.8 9.55 4.05 9.9 4.1 9.95 4.2 10.1 4.25 10.15 4.5 10.35 4.65 10.45 4.6 10.45 4.45 10.45 4.2 10.4 4.1 10.4 4.0 10.35 3.3 10.1 3.3 10.0 3.05 9.9 2.85 9.55 2.6 9.0 2.6 8.25 2.65 7.95 2.45 8.05 2.0 8.05 1.2 7.9 1.1 7.85 1.2 7.85 2.25 7.65 3.3 6.75 3.7 6.45 4.2 6.15 4.7 5.85 5.45 5.6 7.35 5.25 7.45 5.25 7.55 5.25 7.65 5.2 8.4 4.95 8.4 4.9 8.45 4.85 8.6 4.55 8.65 4.65 8.65 4.6 8.7 4.95 8.65 5.05 8.6 5.2 8.8 5.2 9.65 5.2 9.85 5.2 11.75 4.7 11.5 5.2 11.1 5.45 11.9 5.6 11.85 5.6 12.1 5.75 12.55 5.6 12.6 5.6 13.1 5.4 12.9 5.7 12.95 5.7 12.5 5.9 Q13.2 5.85 13.8 5.25 L13.7 5.5 13.55 5.75 12.9 6.1 13.25 6.35 13.3 6.35 Q14.3 6.3 14.8 5.9 L14.95 5.8 15.2 5.5 15.15 5.85 Q14.4 6.45 13.65 6.6 M2.85 7.3 L2.7 7.45 2.75 7.45 2.85 7.3" fill="url(#gradient13)" fill-rule="evenodd" stroke="none"/>
      <path d="M10.2 10.7 L10.45 10.65 10.5 10.65 10.5 10.75 10.05 10.85 9.5 10.85 10.4 10.85 9.9 11.0 9.3 11.05 8.45 11.05 8.3 11.25 8.25 11.05 7.75 11.0 7.45 11.25 7.45 11.15 7.6 11.05 7.45 11.0 7.05 10.95 6.5 10.8 10.1 10.65 9.85 10.7 9.35 10.8 10.2 10.7" fill="url(#gradient14)" fill-rule="evenodd" stroke="none"/>
    </g>
    <linearGradient gradientTransform="matrix(-0.0061, 0.0, 0.0, 0.5607, 9.55, 4.9)" gradientUnits="userSpaceOnUse" id="gradient12" spreadMethod="pad" x1="-819.2" x2="819.2">
      <stop offset="0.0" stop-color="#592e2e"/>
      <stop offset="0.48627450980392156" stop-color="#a87676"/>
      <stop offset="0.9568627450980393" stop-color="#7a4c4c"/>
    </linearGradient>
    <radialGradient cx="0" cy="0" gradientTransform="matrix(-0.0093, 0.0, 0.0, 0.0052, 9.15, 8.25)" gradientUnits="userSpaceOnUse" id="gradient13" r="819.2" spreadMethod="pad">
      <stop offset="0.0" stop-color="#481c1c"/>
      <stop offset="0.5764705882352941" stop-color="#461c1c"/>
      <stop offset="1.0" stop-color="#a87676"/>
    </radialGradient>
    <linearGradient gradientTransform="matrix(-0.0024, 2.0E-4, 1.0E-4, 4.0E-4, 8.55, 11.05)" gradientUnits="userSpaceOnUse" id="gradient14" spreadMethod="pad" x1="-819.2" x2="819.2">
      <stop offset="0.0" stop-color="#774d4d"/>
      <stop offset="1.0" stop-color="#481c1c"/>
    </linearGradient>
  </defs>
</svg>
