<?xml version="1.0" encoding="UTF-8" standalone="no"?>
<svg xmlns:ffdec="https://www.free-decompiler.com/flash" xmlns:xlink="http://www.w3.org/1999/xlink" ffdec:objectType="frame" height="16.6px" width="14.75px" xmlns="http://www.w3.org/2000/svg">
  <g transform="matrix(1.0, 0.0, 0.0, 1.0, -1.1, 0.7)">
    <use ffdec:characterId="1" height="10.5" transform="matrix(1.0, 0.0, 0.0, 1.0, 1.3, 5.4)" width="12.15" xlink:href="#shape0"/>
    <use ffdec:characterId="21" height="9.45" transform="matrix(1.0, 0.0, 0.0, 1.0, 3.1, 0.95)" width="11.05" xlink:href="#shape1"/>
    <use ffdec:characterId="12" height="8.25" transform="matrix(-1.0, 0.0, 0.0, 1.0, 12.05, 1.35)" width="7.65" xlink:href="#sprite0"/>
    <use ffdec:characterId="14" height="41.45" transform="matrix(0.0668, 0.0, 0.0, 0.0668, 9.2131, 3.0531)" width="38.1" xlink:href="#sprite5"/>
    <use ffdec:characterId="22" height="11.95" transform="matrix(1.0, 0.0, 0.0, 1.0, 1.1, -0.7)" width="14.75" xlink:href="#shape8"/>
  </g>
  <defs>
    <g id="shape0" transform="matrix(1.0, 0.0, 0.0, 1.0, -1.3, -5.4)">
      <path d="M11.65 6.9 L11.85 6.95 12.8 8.2 13.15 8.85 13.35 9.25 13.4 10.1 13.4 10.25 13.45 10.65 13.4 11.25 Q13.3 12.35 12.65 13.3 L11.65 14.45 9.65 15.6 7.4 15.9 5.2 15.6 Q4.05 15.25 3.1 14.45 1.55 13.1 1.3 11.25 L1.3 10.65 1.3 10.2 1.3 10.05 1.35 10.05 1.7 9.0 1.6 8.95 1.85 8.5 2.0 8.2 3.0 6.95 3.1 6.9 3.3 6.75 4.2 6.15 4.7 5.95 5.45 5.65 7.4 5.4 Q9.8 5.4 11.65 6.9" fill="url(#gradient0)" fill-rule="evenodd" stroke="none"/>
    </g>
    <radialGradient cx="0" cy="0" gradientTransform="matrix(-0.0108, -0.0069, -0.0058, 0.0113, 5.5, 9.9)" gradientUnits="userSpaceOnUse" id="gradient0" r="819.2" spreadMethod="pad">
      <stop offset="0.0" stop-color="#ff6666" stop-opacity="0.6"/>
      <stop offset="0.0" stop-color="#ff6666" stop-opacity="0.85882354"/>
      <stop offset="0.6666666666666666" stop-color="#ffffff" stop-opacity="0.0"/>
    </radialGradient>
    <g id="shape1" transform="matrix(1.0, 0.0, 0.0, 1.0, -3.1, -0.95)">
      <path d="M3.25 4.85 L3.1 6.05 Q3.05 7.0 4.05 8.55 5.05 10.05 6.3 10.3 7.6 10.5 10.0 10.3 12.45 10.05 13.55 7.95 14.1 6.8 14.15 5.5 14.15 4.2 13.65 3.15 13.4 2.4 12.55 1.85 10.85 0.65 7.8 1.4 4.7 2.15 3.65 3.8 L3.25 4.85" fill="url(#gradient1)" fill-rule="evenodd" stroke="none"/>
      <path d="M9.5 4.05 Q12.1 4.15 14.1 6.15 14.25 5.45 13.9 4.25 L13.55 2.95 13.35 2.55 12.45 1.65 Q10.75 0.5 7.7 1.25 4.6 2.0 3.55 3.6 L3.15 4.65 3.15 5.1 Q3.25 6.55 3.85 7.65 6.05 3.85 9.5 4.05" fill="url(#gradient2)" fill-rule="evenodd" stroke="none"/>
      <path d="M4.25 5.5 Q4.25 7.35 5.45 8.65 6.6 10.0 8.3 10.0 10.0 10.0 11.2 8.65 12.35 7.35 12.35 5.5 L12.45 3.75 Q12.4 2.85 11.95 2.3 11.4 1.75 10.25 1.35 L8.3 1.05 Q6.1 1.05 5.0 2.35 4.45 2.95 4.3 3.8 L4.25 5.5" fill="url(#gradient3)" fill-rule="evenodd" stroke="none"/>
    </g>
    <linearGradient gradientTransform="matrix(-4.0E-4, -0.0063, 0.0063, -4.0E-4, 8.45, 5.7)" gradientUnits="userSpaceOnUse" id="gradient1" spreadMethod="pad" x1="-819.2" x2="819.2">
      <stop offset="0.0" stop-color="#ffffff"/>
      <stop offset="0.3803921568627451" stop-color="#ededed"/>
      <stop offset="1.0" stop-color="#999999"/>
    </linearGradient>
    <linearGradient gradientTransform="matrix(-1.0E-4, -0.0035, 0.0064, -1.0E-4, 8.35, 4.05)" gradientUnits="userSpaceOnUse" id="gradient2" spreadMethod="pad" x1="-819.2" x2="819.2">
      <stop offset="0.0" stop-color="#9f9f9f"/>
      <stop offset="1.0" stop-color="#3a0d0d" stop-opacity="0.8"/>
    </linearGradient>
    <linearGradient gradientTransform="matrix(2.0E-4, -0.0052, -0.0053, -2.0E-4, 19.1, 5.05)" gradientUnits="userSpaceOnUse" id="gradient3" spreadMethod="pad" x1="-819.2" x2="819.2">
      <stop offset="0.0" stop-color="#80575a"/>
      <stop offset="0.23529411764705882" stop-color="#736e66"/>
      <stop offset="1.0" stop-color="#3c5433"/>
    </linearGradient>
    <g id="sprite0" transform="matrix(1.0, 0.0, 0.0, 1.0, 0.4, -0.15)">
      <use ffdec:characterId="4" height="37.0" transform="matrix(-0.0668, 0.0, 0.0, 0.0668, 2.5, 0.4)" width="34.0" xlink:href="#sprite1"/>
      <use ffdec:characterId="5" height="8.25" transform="matrix(1.0, 0.0, 0.0, 1.0, -0.4, 0.15)" width="7.65" xlink:href="#shape3"/>
      <use ffdec:characterId="11" height="6.45" transform="matrix(-1.0, 0.0, 0.0, 1.0, 6.75, 1.95)" width="6.05" xlink:href="#sprite2"/>
    </g>
    <g id="sprite1" transform="matrix(1.0, 0.0, 0.0, 1.0, 0.0, 0.0)">
      <use ffdec:characterId="3" height="37.0" transform="matrix(1.0, 0.0, 0.0, 1.0, 0.0, 0.0)" width="34.0" xlink:href="#shape2"/>
    </g>
    <g id="shape2" transform="matrix(1.0, 0.0, 0.0, 1.0, 0.0, 0.0)">
      <path d="M17.0 0.0 Q24.05 0.0 29.05 5.55 34.0 11.15 34.0 19.0 34.0 26.75 29.05 31.9 24.15 37.0 17.0 37.0 9.85 37.0 5.0 31.9 0.0 26.75 0.0 19.0 0.0 11.15 5.0 5.55 9.95 0.0 17.0 0.0" fill="#ffffff" fill-rule="evenodd" stroke="none"/>
    </g>
    <g id="shape3" transform="matrix(1.0, 0.0, 0.0, 1.0, 0.4, -0.15)">
      <path d="M6.8 1.9 L7.25 3.3 7.05 4.85 Q6.75 6.6 5.5 7.6 4.3 8.6 2.7 8.35 1.2 8.15 0.25 6.75 -0.6 5.45 -0.3 3.7 L-0.15 2.1 Q0.0 1.35 0.5 0.85 1.05 0.45 2.2 0.25 L4.0 0.2 Q6.05 0.55 6.8 1.9" fill="url(#gradient4)" fill-rule="evenodd" stroke="none"/>
    </g>
    <linearGradient gradientTransform="matrix(-7.0E-4, 0.0048, -0.0048, -8.0E-4, 13.3, 5.55)" gradientUnits="userSpaceOnUse" id="gradient4" spreadMethod="pad" x1="-819.2" x2="819.2">
      <stop offset="0.14901960784313725" stop-color="#461c1c"/>
      <stop offset="0.47058823529411764" stop-color="#547364"/>
      <stop offset="0.6941176470588235" stop-color="#a4bdaf"/>
      <stop offset="1.0" stop-color="#bcd7b1"/>
    </linearGradient>
    <g id="sprite2" transform="matrix(1.0, 0.0, 0.0, 1.0, 0.0, 0.3)">
      <use ffdec:characterId="7" height="70.45" transform="matrix(0.0668, 0.0, 0.0, 0.0668, -0.0033, 1.3467)" width="90.6" xlink:href="#sprite3"/>
      <use ffdec:characterId="9" height="64.6" transform="matrix(0.0668, 0.0, 0.0, 0.0668, -0.0033, 1.85)" width="63.05" xlink:href="#sprite4"/>
      <use ffdec:characterId="10" height="4.95" transform="matrix(1.0, 0.0, 0.0, 1.0, 1.0, -0.3)" width="4.8" xlink:href="#shape6"/>
    </g>
    <g id="sprite3" transform="matrix(1.0, 0.0, 0.0, 1.0, 0.05, 0.05)">
      <use ffdec:characterId="6" height="70.45" transform="matrix(1.0, 0.0, 0.0, 1.0, -0.05, -0.05)" width="90.6" xlink:href="#shape4"/>
    </g>
    <g id="shape4" transform="matrix(1.0, 0.0, 0.0, 1.0, 0.05, 0.05)">
      <path d="M4.55 0.3 Q5.5 1.55 5.55 7.1 5.55 10.95 6.3 14.55 9.7 31.6 27.45 47.55 36.35 55.55 44.55 60.1 57.75 65.05 75.45 53.05 84.35 47.1 90.55 40.1 79.3 64.5 56.8 69.25 45.55 71.6 36.55 69.1 17.55 65.15 8.1 50.1 0.75 38.4 0.05 22.0 -0.55 8.95 2.45 1.95 3.65 -0.85 4.55 0.3" fill="#ffffff" fill-rule="evenodd" stroke="none"/>
    </g>
    <g id="sprite4" transform="matrix(1.0, 0.0, 0.0, 1.0, 0.05, 0.0)">
      <use ffdec:characterId="8" height="64.6" transform="matrix(1.0, 0.0, 0.0, 1.0, -0.05, 0.0)" width="63.05" xlink:href="#shape5"/>
    </g>
    <g id="shape5" transform="matrix(1.0, 0.0, 0.0, 1.0, 0.05, 0.0)">
      <path d="M61.0 46.0 L63.0 64.0 51.55 64.5 51.9 45.35 61.0 46.0" fill="url(#gradient5)" fill-rule="evenodd" stroke="none"/>
      <path d="M18.0 3.0 Q18.75 8.0 21.1 14.55 L0.45 12.95 Q-0.15 6.25 0.0 0.0 L18.0 3.0" fill="url(#gradient6)" fill-rule="evenodd" stroke="none"/>
      <path d="M37.25 38.6 L18.25 52.35 Q13.4 48.1 9.7 42.4 L28.75 29.55 Q32.5 34.9 37.25 38.6" fill="url(#gradient7)" fill-rule="evenodd" stroke="none"/>
      <path d="M5.95 35.3 Q3.05 28.75 1.55 20.8 L21.75 16.2 Q24.35 23.15 28.25 28.8 L5.95 35.3" fill="url(#gradient8)" fill-rule="evenodd" stroke="none"/>
      <path d="M49.95 44.85 L42.1 63.4 Q33.85 61.85 26.9 58.25 L39.75 40.35 Q44.35 43.45 49.95 44.85" fill="url(#gradient9)" fill-rule="evenodd" stroke="none"/>
    </g>
    <radialGradient cx="0" cy="0" gradientTransform="matrix(0.0136, 0.0, 0.0, 0.0136, 57.3, 54.95)" gradientUnits="userSpaceOnUse" id="gradient5" r="819.2" spreadMethod="pad">
      <stop offset="0.0" stop-color="#ffffff"/>
      <stop offset="1.0" stop-color="#e9f3b0"/>
    </radialGradient>
    <radialGradient cx="0" cy="0" gradientTransform="matrix(0.0167, 0.0, 0.0, 0.0167, 10.55, 7.3)" gradientUnits="userSpaceOnUse" id="gradient6" r="819.2" spreadMethod="pad">
      <stop offset="0.0" stop-color="#ffffff"/>
      <stop offset="1.0" stop-color="#e9f3b0"/>
    </radialGradient>
    <radialGradient cx="0" cy="0" gradientTransform="matrix(0.04, -0.0497, 0.046, 0.037, 33.65, 28.65)" gradientUnits="userSpaceOnUse" id="gradient7" r="819.2" spreadMethod="pad">
      <stop offset="0.0" stop-color="#ffffff"/>
      <stop offset="1.0" stop-color="#e9f3b0"/>
    </radialGradient>
    <radialGradient cx="0" cy="0" gradientTransform="matrix(0.0174, 0.0, 0.0, 0.0174, 14.9, 25.75)" gradientUnits="userSpaceOnUse" id="gradient8" r="819.2" spreadMethod="pad">
      <stop offset="0.0" stop-color="#ffffff"/>
      <stop offset="1.0" stop-color="#e9f3b0"/>
    </radialGradient>
    <radialGradient cx="0" cy="0" gradientTransform="matrix(0.017, 0.0, 0.0, 0.017, 38.45, 51.9)" gradientUnits="userSpaceOnUse" id="gradient9" r="819.2" spreadMethod="pad">
      <stop offset="0.0" stop-color="#ffffff"/>
      <stop offset="1.0" stop-color="#e9f3b0"/>
    </radialGradient>
    <g id="shape6" transform="matrix(1.0, 0.0, 0.0, 1.0, -1.0, 0.3)">
      <path d="M5.25 3.85 Q4.6 4.6 3.55 4.65 2.6 4.7 1.85 4.05 1.1 3.35 1.0 2.3 0.95 1.2 1.6 0.5 2.25 -0.25 3.2 -0.3 4.25 -0.35 5.0 0.3 5.75 0.9 5.8 2.0 5.9 3.05 5.25 3.85" fill="url(#gradient10)" fill-rule="evenodd" stroke="none"/>
    </g>
    <linearGradient gradientTransform="matrix(0.0, -0.0029, 0.0031, -1.0E-4, 3.35, 2.15)" gradientUnits="userSpaceOnUse" id="gradient10" spreadMethod="pad" x1="-819.2" x2="819.2">
      <stop offset="0.0" stop-color="#a29988"/>
      <stop offset="0.20392156862745098" stop-color="#9ca8a0"/>
      <stop offset="0.26666666666666666" stop-color="#94a199"/>
      <stop offset="0.6" stop-color="#435f53"/>
      <stop offset="1.0" stop-color="#49332f"/>
    </linearGradient>
    <g id="sprite5" transform="matrix(1.0, 0.0, 0.0, 1.0, 2.05, 2.2)">
      <use ffdec:characterId="13" height="41.45" transform="matrix(1.0, 0.0, 0.0, 1.0, -2.05, -2.2)" width="38.1" xlink:href="#shape7"/>
    </g>
    <g id="shape7" transform="matrix(1.0, 0.0, 0.0, 1.0, 2.05, 2.2)">
      <path d="M17.0 -2.2 Q24.9 -2.2 30.5 4.0 36.05 10.25 36.05 19.0 36.05 27.75 30.5 33.55 25.0 39.25 17.0 39.25 9.0 39.25 3.55 33.55 -2.05 27.75 -2.05 19.0 -2.05 10.25 3.55 4.0 9.1 -2.2 17.0 -2.2" fill="url(#gradient11)" fill-rule="evenodd" stroke="none"/>
    </g>
    <radialGradient cx="0" cy="0" gradientTransform="matrix(0.0265, 0.0, 0.0, 0.0265, 17.0, 18.5)" gradientUnits="userSpaceOnUse" id="gradient11" r="819.2" spreadMethod="pad">
      <stop offset="0.0" stop-color="#faf0dc"/>
      <stop offset="0.5843137254901961" stop-color="#e7d9c7" stop-opacity="0.8980392"/>
      <stop offset="1.0" stop-color="#ffffff" stop-opacity="0.0"/>
    </radialGradient>
    <g id="shape8" transform="matrix(1.0, 0.0, 0.0, 1.0, -1.1, 0.7)">
      <path d="M4.8 8.1 Q4.7 7.8 4.95 7.6 L5.4 7.35 5.95 7.4 6.3 7.8 6.15 8.2 5.65 8.5 5.1 8.4 4.8 8.1 M11.1 4.9 L10.6 5.15 10.1 4.9 9.85 4.35 Q9.85 4.0 10.1 3.8 10.3 3.55 10.6 3.55 10.9 3.55 11.1 3.8 L11.35 4.35 11.1 4.9" fill="#ffffff" fill-rule="evenodd" stroke="none"/>
      <path d="M13.65 1.1 L15.1 2.3 15.15 3.5 14.7 2.8 Q13.25 1.1 9.7 0.0 11.85 0.0 13.65 1.1" fill="#d4b18e" fill-rule="evenodd" stroke="none"/>
      <path d="M15.15 6.5 L15.15 6.6 15.1 6.4 15.15 6.5" fill="#a87676" fill-rule="evenodd" stroke="none"/>
      <path d="M15.05 6.3 L15.0 6.3 13.9 5.0 12.5 3.7 11.55 3.05 10.15 2.75 10.1 2.75 7.35 2.9 Q6.35 3.2 5.45 3.85 L4.7 4.55 4.45 4.8 4.35 4.9 4.3 4.95 4.2 5.15 3.95 5.8 Q3.7 6.55 3.75 7.55 L3.75 7.9 3.8 8.2 4.05 8.85 4.1 8.95 4.2 9.2 4.25 9.3 4.5 9.6 4.65 9.8 4.6 9.8 4.6 9.85 4.45 9.8 4.2 9.7 4.1 9.65 4.0 9.55 4.0 9.6 3.3 9.1 3.3 9.05 3.05 8.8 2.85 8.2 2.6 7.25 2.6 5.9 2.65 5.4 2.45 5.45 2.0 5.45 1.2 5.3 1.1 5.2 1.2 5.2 Q2.0 5.2 2.25 4.8 L3.3 3.25 3.7 2.65 4.2 2.1 4.7 1.65 5.45 1.2 7.35 0.55 7.45 0.5 7.55 0.5 7.65 0.45 8.4 -0.05 8.4 -0.15 8.45 -0.2 8.6 -0.7 8.65 -0.55 8.65 -0.6 8.7 0.05 8.65 0.2 8.6 0.45 8.8 0.45 9.65 0.4 9.85 0.4 Q10.9 0.35 11.75 -0.4 L11.5 0.45 11.1 0.9 11.9 1.15 11.8 1.15 12.1 1.35 12.55 1.2 12.6 1.2 13.1 0.8 12.9 1.25 12.95 1.25 12.5 1.7 Q13.2 1.65 13.8 0.55 L13.7 1.0 13.55 1.35 12.9 2.05 13.25 2.45 13.3 2.45 Q14.3 2.4 14.8 1.7 L14.95 1.5 15.2 1.0 15.15 1.6 Q14.4 2.7 13.65 2.95 L12.05 1.75 11.3 1.3 10.95 1.15 10.8 1.1 Q8.2 0.1 5.45 1.5 L4.7 1.95 4.2 2.3 3.7 2.65 2.7 4.4 2.75 4.4 2.85 4.25 2.9 4.2 3.3 3.65 4.2 2.7 4.4 2.5 4.7 2.3 5.45 1.85 5.9 1.7 Q5.7 1.8 5.45 2.0 L4.7 2.65 4.35 3.05 4.2 3.25 3.6 4.1 3.75 4.0 3.65 4.1 4.2 3.65 4.4 3.45 4.7 3.25 Q5.05 2.95 5.45 2.75 L6.2 2.3 7.1 1.95 8.55 1.7 10.75 2.0 Q11.85 2.45 12.35 2.9 L13.25 3.7 13.4 3.9 13.45 3.95 13.8 4.3 13.85 4.35 13.95 4.5 14.0 4.55 14.05 4.6 14.55 5.35 14.7 5.6 15.05 6.3" fill="url(#gradient12)" fill-rule="evenodd" stroke="none"/>
      <path d="M13.65 2.95 L13.7 3.05 13.75 3.05 13.9 3.3 13.9 3.35 14.0 3.5 14.05 3.55 14.05 3.6 14.2 3.85 Q15.0 4.15 15.85 3.65 L15.8 3.75 Q15.45 4.2 14.35 4.2 L14.9 5.55 15.1 6.2 15.2 6.55 15.05 6.3 14.7 5.6 14.55 5.35 14.05 4.6 14.0 4.55 13.95 4.5 13.85 4.35 13.8 4.3 13.45 3.95 13.4 3.9 13.25 3.7 12.35 2.9 Q11.85 2.45 10.75 2.0 L8.55 1.7 7.1 1.95 6.2 2.3 5.45 2.75 Q5.05 2.95 4.7 3.25 L4.4 3.45 4.2 3.65 3.65 4.1 3.75 4.0 3.6 4.1 4.2 3.25 4.35 3.05 4.7 2.65 5.45 2.0 Q5.7 1.8 5.9 1.7 L5.45 1.85 4.7 2.3 4.4 2.5 4.2 2.7 3.3 3.65 2.9 4.2 2.85 4.25 2.75 4.4 2.7 4.4 3.7 2.65 4.2 2.3 4.7 1.95 5.45 1.5 Q8.2 0.1 10.8 1.1 L10.95 1.15 11.3 1.3 12.05 1.75 13.65 2.95" fill="url(#gradient13)" fill-rule="evenodd" stroke="none"/>
      <path d="M10.2 10.25 L10.45 10.15 10.5 10.15 10.5 10.25 10.5 10.35 10.05 10.5 9.5 10.6 10.4 10.55 9.9 10.8 9.3 10.9 8.45 10.9 8.3 11.25 Q8.2 11.1 8.25 10.85 L7.75 10.8 7.45 11.15 7.45 11.1 7.6 10.85 7.45 10.8 7.05 10.7 6.5 10.45 10.1 10.15 9.85 10.25 9.35 10.45 10.2 10.25" fill="url(#gradient14)" fill-rule="evenodd" stroke="none"/>
    </g>
    <radialGradient cx="0" cy="0" gradientTransform="matrix(-0.0093, 0.0, 0.0, 0.0093, 9.15, 5.95)" gradientUnits="userSpaceOnUse" id="gradient12" r="819.2" spreadMethod="pad">
      <stop offset="0.0" stop-color="#481c1c"/>
      <stop offset="0.5764705882352941" stop-color="#461c1c"/>
      <stop offset="1.0" stop-color="#a87676"/>
    </radialGradient>
    <linearGradient gradientTransform="matrix(-0.0061, 0.0, 0.0, 1.0, 9.55, -0.15)" gradientUnits="userSpaceOnUse" id="gradient13" spreadMethod="pad" x1="-819.2" x2="819.2">
      <stop offset="0.0" stop-color="#592e2e"/>
      <stop offset="0.48627450980392156" stop-color="#a87676"/>
      <stop offset="0.9568627450980393" stop-color="#7a4c4c"/>
    </linearGradient>
    <linearGradient gradientTransform="matrix(-0.0024, 3.0E-4, 1.0E-4, 8.0E-4, 8.55, 10.85)" gradientUnits="userSpaceOnUse" id="gradient14" spreadMethod="pad" x1="-819.2" x2="819.2">
      <stop offset="0.0" stop-color="#774d4d"/>
      <stop offset="1.0" stop-color="#481c1c"/>
    </linearGradient>
  </defs>
</svg>
