<svg xmlns="http://www.w3.org/2000/svg" xmlns:ffdec="https://www.free-decompiler.com/flash" xmlns:xlink="http://www.w3.org/1999/xlink" ffdec:objectType="frame" width="13.15" height="10.2"><use ffdec:characterId="15" xlink:href="#a" width="12.95" height="2.55" transform="translate(0 6.2)"/><defs><g id="a" fill-rule="evenodd"><path fill="#513624" d="m12.35 0-.7.75 1.3.15-1.5.25h-.3l-.25.2 1.05.05-.45.25-.65.1-.55-.05-.25.15.7.1h.3l-.45.25-.55.1H9.9l-.6-.05.6.1h-.85l-4.6.15-1.9-.45L1.2 1.5.1 1 0 .9l.1.05 7.8.2 2.2-.4L11.9.2z"/><path fill="#6b3a00" fill-opacity=".694" d="M3.85.9 0 .3V.25h.25l4.3.2 6.1-.45-1.3.45-2.7.5h-2.5z"/></g></defs></svg>