<svg xmlns="http://www.w3.org/2000/svg" xmlns:ffdec="https://www.free-decompiler.com/flash" xmlns:xlink="http://www.w3.org/1999/xlink" ffdec:objectType="frame" width="12.35" height="12.45"><use ffdec:characterId="14" xlink:href="#a" width="12.15" height="2.85" transform="translate(.2 7.25)"/><defs><g id="a" fill-rule="evenodd"><path d="M3.3 2.55 1.55 1.9.1 1 0 .9l.1.05q1.6.55 4.1.7t3.65-.05l1.9-.5L11.6 0l-.65.75 1.2.15-1.4.25h-.25l-.25.2 1 .05-.45.25-.6.1-.5-.05-.25.15.65.1h.3l-.45.25-.5.1H9.3l-.55-.05.55.1-.45-.05q-1.9.65-3.25.55z"/><path fill="#8b6941" d="m4.15 1.1-.25-.05L.25.45V.4H.5l4.35.3 5.4-.55-1.2.45-2.55.5z"/></g></defs></svg>