<?xml version="1.0" encoding="UTF-8" standalone="no"?>
<svg xmlns:ffdec="https://www.free-decompiler.com/flash" xmlns:xlink="http://www.w3.org/1999/xlink" ffdec:objectType="frame" height="12.45px" width="12.35px" xmlns="http://www.w3.org/2000/svg">
  <g transform="matrix(1.0, 0.0, 0.0, 1.0, 3.05, 1.0)">
    <use ffdec:characterId="15" height="8.75" transform="matrix(1.0, 0.0, 0.0, 1.0, -3.05, 2.7)" width="11.75" xlink:href="#shape0"/>
  </g>
  <defs>
    <g id="shape0" transform="matrix(1.0, 0.0, 0.0, 1.0, 3.05, -2.7)">
      <path d="M2.55 11.45 Q-0.3 11.45 -1.3 10.1 -2.3 8.75 -2.3 7.55 -2.3 6.5 -1.65 5.55 -0.45 3.8 2.35 3.8 3.55 3.8 4.95 4.45 6.0 4.9 6.75 5.6 7.85 6.55 7.85 7.65 7.85 8.5 6.65 10.0 5.4 11.45 2.55 11.45" fill="#ffffff" fill-rule="evenodd" stroke="none"/>
      <path d="M0.1 5.55 Q0.6 5.15 1.35 5.0 L2.7 4.9 3.9 5.0 5.0 5.55 Q5.6 5.85 6.0 6.35 6.4 6.95 6.45 7.75 L6.25 9.0 5.85 9.8 5.0 10.55 3.95 11.0 2.8 11.15 1.4 11.0 0.2 10.55 -0.65 9.6 Q-1.05 8.95 -1.05 8.05 L-0.75 6.5 Q-0.4 5.85 0.1 5.55" fill="#741e73" fill-rule="evenodd" stroke="none"/>
      <path d="M3.9 5.0 L5.0 5.55 Q5.6 5.85 6.0 6.35 6.4 6.95 6.45 7.75 L6.25 9.0 5.85 9.8 5.0 10.55 3.95 11.0 2.8 11.15 1.4 11.0 0.2 10.55 -0.65 9.6 Q-1.05 8.95 -1.05 8.05 L-0.75 6.5 Q-0.4 5.85 0.1 5.55 0.6 5.15 1.35 5.0 L2.7 4.9 3.9 5.0" fill="url(#gradient0)" fill-rule="evenodd" stroke="none"/>
      <path d="M4.5 7.65 L4.05 8.65 2.8 9.1 Q2.0 9.1 1.45 8.65 0.85 8.2 0.95 7.5 1.1 6.85 1.7 6.55 2.3 6.25 2.9 6.3 3.45 6.3 4.0 6.65 4.5 7.1 4.5 7.65 M5.05 7.1 L5.2 7.2 5.3 7.6 5.35 8.2 5.25 8.8 5.2 8.8 Q4.8 10.5 2.45 10.35 0.05 10.15 0.05 7.95 0.05 7.15 0.35 7.15 L0.45 7.2 0.5 7.15 0.55 7.35 0.75 8.45 1.1 8.95 1.65 9.3 2.55 9.5 3.8 9.3 4.65 8.55 4.9 7.65 4.9 7.35 4.85 7.3 4.85 7.1 5.05 7.1 M0.7 8.6 L0.8 8.85 0.8 8.8 0.7 8.6" fill="#ffffff" fill-opacity="0.25882354" fill-rule="evenodd" stroke="none"/>
      <path d="M7.4 5.75 L8.0 6.65 Q8.25 7.15 8.05 7.95 L7.65 9.0 7.35 9.35 7.25 9.4 Q7.4 8.75 6.05 7.3 4.6 5.85 2.2 6.1 -0.2 6.35 -1.15 7.15 -2.1 8.0 -2.15 8.45 L-2.25 8.15 -2.35 7.7 -2.45 6.95 Q-2.45 5.0 0.1 4.25 L5.05 4.4 Q6.0 4.75 6.55 5.05 L7.4 5.75" fill="#000000" fill-opacity="0.2" fill-rule="evenodd" stroke="none"/>
      <path d="M1.35 4.4 Q0.2 4.6 -0.75 5.3 L-2.0 6.55 -2.25 7.3 -2.25 7.5 -2.3 7.85 -2.3 8.0 -2.35 7.95 -2.45 7.65 -2.5 7.5 -2.55 7.3 -2.55 7.15 -2.6 6.85 -2.55 6.45 -3.05 6.9 -3.05 6.65 -2.65 5.8 Q-2.25 5.2 -0.8 4.4 0.75 3.6 3.0 3.75 5.25 3.9 6.5 4.8 7.75 5.7 8.25 6.55 L8.7 7.95 Q8.35 8.85 7.2 9.45 L7.4 8.95 Q7.8 7.85 7.2 6.75 6.55 5.7 5.0 4.9 3.45 4.15 1.35 4.4" fill="#000000" fill-rule="evenodd" stroke="none"/>
      <path d="M3.05 3.1 L3.3 3.15 2.75 3.1 0.15 3.3 -1.6 4.05 -2.35 4.55 -2.95 4.9 -2.65 4.6 -2.2 4.15 -1.2 3.4 Q-0.5 2.95 0.7 2.75 L1.15 2.7 3.05 3.1" fill="#6b3a00" fill-opacity="0.69411767" fill-rule="evenodd" stroke="none"/>
      <path d="M4.6 6.65 Q5.45 6.75 5.45 7.3 5.45 7.8 4.6 7.8 L3.95 7.6 3.8 7.3 Q3.8 6.65 4.6 6.65 M1.15 7.85 L1.4 8.25 0.5 8.7 Q-0.3 8.85 -0.3 8.35 -0.35 7.8 0.25 7.75 L1.15 7.85" fill="#ffffff" fill-rule="evenodd" stroke="none"/>
      <path d="M4.85 8.6 L5.45 9.2 5.3 9.7 4.45 10.35 Q3.35 10.9 1.85 10.65 0.35 10.4 0.35 9.9 0.4 9.3 1.1 8.8 1.75 8.35 3.0 8.35 L4.85 8.6" fill="#ffa8ce" fill-opacity="0.41960785" fill-rule="evenodd" stroke="none"/>
    </g>
    <linearGradient gradientTransform="matrix(4.0E-4, 0.0038, -0.0045, 2.0E-4, 2.75, 8.0)" gradientUnits="userSpaceOnUse" id="gradient0" spreadMethod="pad" x1="-819.2" x2="819.2">
      <stop offset="0.06666666666666667" stop-color="#000000" stop-opacity="0.4"/>
      <stop offset="0.36470588235294116" stop-color="#000000" stop-opacity="0.0"/>
    </linearGradient>
  </defs>
</svg>
