<svg xmlns="http://www.w3.org/2000/svg" xmlns:ffdec="https://www.free-decompiler.com/flash" xmlns:xlink="http://www.w3.org/1999/xlink" ffdec:objectType="frame" width="14.05" height="13"><g transform="translate(-.9 .95)"><use ffdec:characterId="17" xlink:href="#a" width="12" height="4.55" transform="translate(1.8 6.4)"/><use ffdec:characterId="13" xlink:href="#b" width="9" height="9.15" transform="matrix(1 0 0 .7295 4.35 4.75)"/></g><defs><path id="c" fill="#0078bb" fill-opacity="0" fill-rule="evenodd" d="m3.55 9.05-.9-.15Q.2 6.7.05 4.95-.2 1.55.7 0q1.95-.05 6.1.95l1.85.7.35 2.1-.4 2.3Q8.05 8.1 6.9 8.8L5 9.15z"/><use ffdec:characterId="12" xlink:href="#c" id="b" width="9" height="9.15"/><g id="a"><path fill="#3a2d2b" fill-rule="evenodd" d="m10.95 3.15-1.1.6-1.55.5-4.05.2L.9 3.5Q.6 3.4.4 2.15L.05.05q.9 1.25 2.1 1.85 1.25.6 3.2 1l6.6-.4z"/><path fill="none" stroke="#3a2d2b" stroke-linecap="round" stroke-linejoin="round" stroke-width=".15" d="m10.95 3.15 1-.65-6.6.4q-1.95-.4-3.2-1Q.95 1.3.05.05l.35 2.1Q.6 3.4.9 3.5l3.35.95 4.05-.2 1.55-.5zM11 1.1q-2.05.95-4.3.75"/></g></defs></svg>