<svg xmlns="http://www.w3.org/2000/svg" xmlns:ffdec="https://www.free-decompiler.com/flash" xmlns:xlink="http://www.w3.org/1999/xlink" ffdec:objectType="frame" width="14.95" height="11.95"><use ffdec:characterId="9" xlink:href="#a" width="12.75" height="5.15" transform="translate(1.9 6.45)"/><defs><g id="a"><path fill="#3a2d2b" fill-rule="evenodd" d="m11.6 4 .35.8-.8-.5-2.1.5-4.1-.1-1.45-.45-2.25.85 1.4-1.25-.3-.15-.5-.3-.05-.05Q.55 2.6.05 1.45q1.05 1.4 2.6 1.3Q1.25 2.25.7.05q.9 1.5 2.15 2.1t3.2 1q2 .4 6.65-.6l-1 .65q-.1.15-.05.45zl-.45.3zm-8.95-.15.85.4z"/><path fill="none" stroke="#3a2d2b" stroke-linecap="round" stroke-linejoin="round" stroke-width=".15" d="m11.6 4 .35.8-.8-.5-2.1.5-4.1-.1-1.45-.45-2.25.85 1.4-1.25-.3-.15-.5-.3-.05-.05Q.55 2.6.05 1.45q1.05 1.4 2.6 1.3Q1.25 2.25.7.05q.9 1.5 2.15 2.1t3.2 1q2 .4 6.65-.6l-1 .65q-.1.15-.05.45zl-.45.3M3.5 4.25l-.85-.4m9.1-2.5Q9.7 2.3 7.4 2.1"/></g></defs></svg>