<?xml version="1.0" encoding="UTF-8" standalone="no"?>
<svg xmlns:ffdec="https://www.free-decompiler.com/flash" xmlns:xlink="http://www.w3.org/1999/xlink" ffdec:objectType="frame" height="10.45px" width="12.85px" xmlns="http://www.w3.org/2000/svg">
  <g transform="matrix(1.0, 0.0, 0.0, 1.0, -1.65, -0.45)">
    <use ffdec:characterId="6" height="2.55" transform="matrix(1.0, 0.0, 0.0, 1.0, 1.95, 6.9)" width="12.15" xlink:href="#shape0"/>
  </g>
  <defs>
    <g id="shape0" transform="matrix(1.0, 0.0, 0.0, 1.0, -1.95, -6.9)">
      <path d="M12.95 8.4 L11.7 8.95 9.9 9.4 5.6 9.25 4.95 9.25 4.8 9.25 5.35 9.15 4.8 9.2 4.65 9.2 4.15 9.1 3.7 8.85 4.0 8.85 4.65 8.75 4.4 8.6 3.9 8.65 3.3 8.55 2.85 8.3 3.85 8.25 3.6 8.05 3.35 8.05 1.95 7.8 3.15 7.65 2.5 6.9 2.9 7.1 4.6 7.65 6.65 8.05 14.0 7.85 14.1 7.8 14.0 7.9 12.95 8.4" fill="#333333" fill-rule="evenodd" stroke="none"/>
      <path d="M14.1 7.2 L10.45 7.8 10.2 7.85 7.85 7.85 5.3 7.35 4.1 6.9 9.5 7.45 13.85 7.15 14.1 7.15 14.1 7.2" fill="#000000" fill-opacity="0.29803923" fill-rule="evenodd" stroke="none"/>
    </g>
  </defs>
</svg>
