<svg xmlns="http://www.w3.org/2000/svg" xmlns:ffdec="https://www.free-decompiler.com/flash" xmlns:xlink="http://www.w3.org/1999/xlink" ffdec:objectType="frame" width="12.85" height="10.45"><use ffdec:characterId="7" xlink:href="#a" width="12.85" height="8" transform="translate(0 2.45)"/><defs><linearGradient id="b" x1="-819.2" x2="819.2" gradientTransform="matrix(.0002 .0048 .0068 -.0002 8.75 7.85)" gradientUnits="userSpaceOnUse" spreadMethod="pad"><stop offset=".227" stop-opacity=".498"/><stop offset=".698" stop-opacity="0"/></linearGradient><g id="a" fill-rule="evenodd"><path fill="#fff" d="M3.6 1.85q.45 0 .45.3l-.2.7-.2.65q0 1.7 1.35 3.65l-.05.1h-.5q-.5-.1-2.95-3.55l.7-1.05q.8-.8 1.4-.8m6.8 3.45q.3-2.3.65-2.3.6 0 .9.5l.2.6-.75 1.85q-.95 1.6-2 1.6l-.45-.3.65-.9z"/><path fill="#d75d21" d="m10.1 2.9.15.25.05.85-.2 1.3-.3.6-.25.35-.2.25-.6.55H8.7L7 7.3l-.2-.05q-1.7 0-2.45-1.85l-.25-.7-.05-.25-.1-.8V3.3l.4-.8.8-.6.6-.2 1.05-.05 1.1.1 1 .3.7.35.25.25.1.1z"/><path fill="url(#b)" d="m11.35 4.4.4.4.45.45.15.5.05.95q0 1.9-.35 2.45l-.8.5-.4.5-.95.4-1.35.2Q6.5 10.75 6 9.1l-.85-2.05.2-1.95q.1-.6.9-.75l1.65-.4.7-.05 1.9.2.65.15z" transform="translate(-1.65 -2.9)"/><path fill-opacity=".451" d="M7.1 5q-.7.05-.7-.55.1-.45.7-.45.65-.05.7.45T7.1 5"/><path fill-opacity=".098" d="M9.35 4.65Q9.3 5.4 8.6 5.9q-.6.5-1.45.5-.8-.05-1.4-.55-.55-.55-.65-1.4-.05-.95.55-1.3.7-.45 1.55-.45t1.55.55q.65.5.6 1.4M7.1 5q.75-.05.7-.55T7.1 4q-.6 0-.7.45 0 .6.7.55"/><path fill-opacity=".2" d="M3.6 2.1q.4.1.4.5l-.65 1.55.4.15v.15l-.25.15q-.4.05-.9.5h-.15q-.7-.4-.7-.65Q1.3 4.4 1.3 4q0-.5.45-.45-.05-.2.15-.3L2.25 3l.4-.25.25-.15q.25-.6.7-.5m8.1 3.25-.5-.45-.55-.25v-.2l.1-.35-.15-.45q0-.25.25-.25l1 .25.35.5-.15.55z"/><path fill-opacity=".298" d="m8.5 0 1.45.1q.65.1 1.35.5l.55.35.7.65.3.25-1.5-.65Q10 .3 8.65.2h-2.7L5.9.15 7.1 0h1.4"/><path fill="#333" d="m10.1 2.9-.15-.15-.1-.1-.25-.25-.7-.35-1-.3-1.1-.1-1.05.05-.6.2-.8.6-.4.8v.35l.1.8.05.25.25.7Q5.1 7.25 6.8 7.25l.2.05 1.7-.25h.05l.6-.55.2-.25.25-.35.3-.6.2-1.3-.05-.85zm1.9-.7.5.9.25.55-.05.15-.2-.35-.5-.5.25.55.1.8.1.35-.3-.25-.5-.4-.3-.2-.25-.15-.1-.1.05.1v.9L11 4.8l-.35 1-.05.15-.05.05v.05l-.2.35-.3.5-.1.15.25.15h.25l-.15.05-.35.3-.45.15-.2.05-.95.15L7.1 8l-1.25-.1-.5-.15-.55-.1-.55-.3-.15-.25-.1-.2.3.15.35.1h.1L4.8 7l-.75-.85-.25-.4-.15-.35-.15-.45q-.15-.55-.15-1.2v-.1l.05-.35.35-.95-.4.25.05-.1q-1.35 1-1.35 1.3l.1.5.35.65.85 1.2-.55-.4-.85-.8-.6-.6-.4-.4L0 4.3l1.05-1.35.05.05q.35-.65 1.4-1.3Q4.3.55 7.45.65 9.65.7 12 2.2"/><path fill="#fff" fill-opacity=".988" d="M9.45 4.15q-.85-.2-.85-.65 0-.3.3-.5l.75-.15q.5 0 .75.25l.25.4q0 .5-.6.65zM5.65 5.5q.65-.05.7.25l-1.05.7-1.35.15q-.3-.4.4-.7.65-.35 1.3-.4m1.3 1.45-.3.45-.55-.05q-.25-.15-.05-.45.1-.25.5-.45l.4.05z"/></g></defs></svg>