<svg xmlns="http://www.w3.org/2000/svg" xmlns:ffdec="https://www.free-decompiler.com/flash" xmlns:xlink="http://www.w3.org/1999/xlink" ffdec:objectType="frame" width="12.5" height="9.15"><use ffdec:characterId="7" xlink:href="#a" width="12.5" height="9.15"/><defs><linearGradient id="b" x1="-819.2" x2="819.2" gradientTransform="matrix(-.0076 0 0 .0049 3.35 6.15)" gradientUnits="userSpaceOnUse" spreadMethod="pad"><stop offset="0" stop-color="#541f06"/><stop offset=".137" stop-color="#270f03"/><stop offset=".522"/><stop offset=".878" stop-color="#2e0f02"/><stop offset="1" stop-color="#4a1e0b"/></linearGradient><linearGradient id="c" x1="-819.2" x2="819.2" gradientTransform="matrix(.0002 .0044 -.0038 .0002 2.65 6.5)" gradientUnits="userSpaceOnUse" spreadMethod="pad"><stop offset=".431" stop-color="#fff" stop-opacity="0"/><stop offset="1" stop-color="#fff" stop-opacity=".62"/></linearGradient><linearGradient id="d" x1="-819.2" x2="819.2" gradientTransform="matrix(.0076 0 0 .0049 2.85 6.25)" gradientUnits="userSpaceOnUse" spreadMethod="pad"><stop offset="0" stop-color="#541f06"/><stop offset=".137" stop-color="#270f03"/><stop offset=".522"/><stop offset=".878" stop-color="#2e0f02"/><stop offset="1" stop-color="#4a1e0b"/></linearGradient><g id="a" fill-rule="evenodd"><path fill="#fff" d="m11.75 4.05-.15.9q-.35 1.2-1.55 2.5Q8.3 9.15 7 8.8q-.45.5-1.7.25l-.85-.2q-.7-.15-1.6-.8L2.5 7.7 1.35 6.15.9 4.6v-.1l.4-1 .5-.95.35-.8q1.4-.3 4.4.05 4.35.55 5.05 1.8z"/><path fill="url(#b)" d="m5.35 10.05-.1-.2.05-.15.25.2-.05.15zm-2.65.1.25.05-.05.25h-.2zm1.25.05v.25H3.8l-.05-.3zm.95-.15v.3h-.15l-.05-.05-.05-.35zm-4.7-.4-.2.1-.15-.05.05-.2q.25-.05.3.15m.45.5L.6 10.1l.1-.25.15.05zm1.1.05.05-.1h.25v.2l-.3.15z" transform="translate(3.4 -1.3)"/><path fill="#0e3183" d="M8.75 3.45q.65 1.2.5 2.25L8.7 7.35q-.95 1.35-2.35 1.4-1.4 0-2.2-.7-.85-.7-1.15-2.1V5.1l.15-.85q.15-.8 1-1.7Q5 1.6 6.5 2q1.6.35 2.25 1.45"/><path fill="url(#c)" d="M5.85 6.35Q6 7.8 5.15 8.9q-.9 1.05-2.2 1.2t-2.3-.8q-1.1-.95-1.1-2.55Q-.5 5.15.4 4.1 1.25 3 2.5 2.9q1.3-.05 2.25.95.9 1 1.1 2.5" transform="translate(3.4 -1.3)"/><path fill="#051366" fill-opacity=".851" d="M5.95 6.85q-1.1-.05-1.05-1.4 0-1.4 1.35-1.3 1.25.1 1.25 1.35l-.2.8q-.35.6-1.35.55"/><path fill="#fff" d="m5.15 4.55-.2.4q-.15.2-.4.2t-.45-.2l-.15-.4q0-.25.15-.45.2-.15.45-.15l.4.15zm2 1.1L8.2 5.5q.75.05 1.1.75.6.8-.5.55-1.15-.3-1.6-.65t-.05-.5"/><path fill="#fff" fill-opacity=".271" d="m6.9 7.5-.2-.3q0-.4.4-.25l.35.5-.3.25zm-.5.1-.25.3q-.35 0-.35-.45t.3-.35.3.5m-2.45-.9q0-.4.45-.5.4-.1.4.35 0 .5-.5.5-.35 0-.35-.35m1 .75L4.9 7.3q0-.3.3-.4.25-.05.25.35l-.3.35z"/><path fill-opacity=".2" d="m11.9 4.5-.95 1.6q-.3-.55-2.05-1.35Q7.15 3.9 5.6 4t-2.75.95q-1.25.8-1.4 1.4l-.25-.8q-.25-1.05.15-1.8l.45-.95q.35-.7.9-.85l.5-.35 2.5-.05q2.45.05 4.45 1.15 1.75.95 1.75 1.8"/><path fill="#e9a067" d="M12.1 3H12l-.9-.7q-1-.85-4.05-1.6L6.3.6 3.85.55l-.7.15-.75.3-.25.15-.1.05q-.2.05-.8.65l-.6.65H.6l.1-.35.9-1.05.55-.5.75-.4L4.25 0h1Q7 .05 8.75.75q1.8.65 2.5 1.4z"/><path fill="url(#d)" d="m8.4 5.1.7.85-1 1.3-1.25 1.4-.3.15.65-1.05.6-1.1.15-.4-.05-.1-1.3-1.2-1.95-.9-3.5-.45h-.6l-1.15.45q-.45.3-1.3 2.1l-.2.6-.05.3v.05l-.05.25h-.1l-.05-.5-.05.05-.15-.15-.05-.15v-.1l-.05.05h-.15l-.05.05v-.5l-.1.05h-.2l-.2.2.1-.5.9-1.5 1-1.15 1.1-.65 2.8-.2q1.95.1 3.05.6t1.6.9z" transform="translate(3.4 -1.3)"/></g></defs></svg>