<svg xmlns="http://www.w3.org/2000/svg" xmlns:ffdec="https://www.free-decompiler.com/flash" xmlns:xlink="http://www.w3.org/1999/xlink" ffdec:objectType="frame" width="12.5" height="9.15"><use ffdec:characterId="9" xlink:href="#a" width="11.35" height="3.4" transform="translate(.8 3.95)"/><defs><g id="a" fill-rule="evenodd"><path fill="#e9a067" d="M8.55.85 9 .8l-2.15.4h-2.6L2.75 1Q.85.6.25 0L1.4.3l.55.1.15.05.4.05 2.55.3z"/><path fill="#231311" d="m6.45 2.25.95-.1 2.05-.25 1.8-.75-.4.6.5-.15q-.2.4-.9.45h.15l-.1.1.45.1-.35.15h-.35l-.3.15H10l.45.1-.9.15h-.1L9 2.9l-1.5.45-.8.05-.7-.05-.95-.1-1.3-.3-1.5-.5Q1.15 1.75 0 1l3.55.9.85.15.75.1.7.1z"/></g></defs></svg>