<?xml version="1.0" encoding="UTF-8" standalone="no"?>
<svg xmlns:ffdec="https://www.free-decompiler.com/flash" xmlns:xlink="http://www.w3.org/1999/xlink" ffdec:objectType="frame" height="9.15px" width="12.5px" xmlns="http://www.w3.org/2000/svg">
  <g transform="matrix(1.0, 0.0, 0.0, 1.0, 3.4, -1.3)">
    <use ffdec:characterId="9" height="3.4" transform="matrix(1.0, 0.0, 0.0, 1.0, -2.6, 5.25)" width="11.35" xlink:href="#shape0"/>
  </g>
  <defs>
    <g id="shape0" transform="matrix(1.0, 0.0, 0.0, 1.0, 2.6, -5.25)">
      <path d="M5.95 6.1 L6.4 6.05 4.25 6.45 2.05 6.45 1.65 6.45 0.15 6.25 Q-1.75 5.85 -2.35 5.25 L-1.2 5.55 -0.65 5.65 -0.5 5.7 -0.1 5.75 2.45 6.05 5.95 6.1" fill="#e9a067" fill-rule="evenodd" stroke="none"/>
      <path d="M3.85 7.5 L4.8 7.4 6.85 7.15 8.65 6.4 8.25 7.0 8.75 6.85 Q8.55 7.25 7.85 7.3 L8.0 7.3 7.9 7.4 8.35 7.5 8.0 7.65 7.65 7.65 7.35 7.8 7.4 7.8 7.85 7.9 6.95 8.05 6.85 8.05 6.4 8.15 4.9 8.6 4.1 8.65 3.4 8.6 2.45 8.5 1.15 8.2 -0.35 7.7 Q-1.45 7.0 -2.6 6.25 L0.95 7.15 1.8 7.3 2.55 7.4 3.25 7.5 3.85 7.5" fill="#231311" fill-rule="evenodd" stroke="none"/>
    </g>
  </defs>
</svg>
