<?xml version="1.0" encoding="UTF-8" standalone="no"?>
<svg xmlns:ffdec="https://www.free-decompiler.com/flash" xmlns:xlink="http://www.w3.org/1999/xlink" ffdec:objectType="frame" height="59.95px" width="59.4px" xmlns="http://www.w3.org/2000/svg">
  <g transform="matrix(1.0, 0.0, 0.0, 1.0, 5.85, 10.05)">
    <use ffdec:characterId="1" height="59.95" transform="matrix(1.0, 0.0, 0.0, 1.0, -5.85, -10.05)" width="59.4" xlink:href="#shape0"/>
  </g>
  <defs>
    <g id="shape0" transform="matrix(1.0, 0.0, 0.0, 1.0, 5.85, 10.05)">
      <path d="M0.85 15.7 L0.65 14.05 Q0.55 12.65 1.2 12.4 L1.5 10.75 2.8 6.05 Q4.0 2.75 5.5 0.2 6.4 -1.15 8.2 -2.85 10.45 -5.05 12.2 -5.8 L17.95 -7.3 Q22.45 -8.4 22.45 -8.1 L24.35 -7.9 27.55 -7.8 30.3 -7.55 32.2 -7.1 32.35 -6.95 35.35 -5.95 Q37.25 -5.2 38.05 -4.65 L40.4 -2.5 Q41.55 -1.1 42.7 1.25 L42.8 1.45 43.45 3.85 44.15 6.6 45.35 9.85 46.05 12.05 46.2 13.85 46.2 14.5 46.05 15.25 45.45 14.9 Q45.25 14.7 44.7 14.7 L42.05 14.5 38.4 14.3 37.25 14.55 36.95 14.75 35.8 15.85 35.35 16.45 Q34.0 17.95 31.35 18.1 L24.7 18.25 23.85 18.2 23.8 18.2 23.05 18.25 16.35 18.1 14.65 17.8 Q13.2 17.35 12.35 16.45 L11.95 15.85 10.75 14.75 Q10.3 14.3 9.3 14.3 L5.15 14.7 Q2.0 15.15 0.9 15.65 L0.85 15.7" fill="url(#gradient0)" fill-rule="evenodd" stroke="none"/>
      <path d="M23.85 18.2 L24.7 18.25 31.35 18.1 Q34.0 17.95 35.35 16.45 L35.8 15.85 36.95 14.75 37.25 14.55 38.4 14.3 42.05 14.5 44.7 14.7 Q45.25 14.7 45.45 14.9 L46.05 15.25 46.15 15.3 47.2 15.8 Q47.95 16.25 48.25 16.6 L49.65 16.45 Q51.15 16.5 52.15 18.05 L52.6 18.75 Q53.55 20.65 53.55 23.85 53.55 26.3 52.6 27.9 L51.95 28.85 50.1 30.1 Q51.0 31.15 50.9 33.45 50.75 35.65 50.3 36.6 L48.35 39.2 45.7 42.2 42.65 44.6 38.95 46.6 Q36.3 47.75 30.5 48.95 L23.85 49.9 23.85 18.2" fill="url(#gradient1)" fill-rule="evenodd" stroke="none"/>
      <path d="M0.85 15.7 L0.9 15.65 Q2.0 15.15 5.15 14.7 L9.3 14.3 Q10.3 14.3 10.75 14.75 L11.95 15.85 12.35 16.45 Q13.2 17.35 14.65 17.8 L16.35 18.1 23.05 18.25 23.8 18.2 23.85 18.2 23.85 49.9 17.25 48.95 Q11.35 47.75 8.75 46.6 L5.05 44.6 2.0 42.2 Q1.1 41.55 -0.65 39.2 L-2.55 36.6 Q-3.0 35.65 -3.2 33.45 -3.35 31.15 -2.4 30.1 -3.25 29.8 -4.2 28.85 L-4.9 27.9 Q-5.85 26.3 -5.85 23.85 L-5.8 22.9 Q-5.65 20.3 -4.9 18.75 L-4.5 18.05 Q-3.45 16.5 -2.05 16.45 L-0.6 16.6 0.5 15.8 0.85 15.7" fill="url(#gradient2)" fill-rule="evenodd" stroke="none"/>
      <path d="M19.3 33.15 L19.3 33.25 19.3 33.65 Q19.25 34.3 18.5 35.05 L17.95 34.95 17.6 34.6 Q18.05 33.85 18.95 33.4 L19.3 33.15 M28.15 34.7 L27.8 35.0 27.25 35.1 Q26.45 34.3 26.4 33.7 L26.4 33.3 26.4 33.2 26.8 33.45 Q27.65 33.9 28.15 34.7 M23.85 35.4 L23.1 35.25 22.95 35.2 22.95 35.15 22.8 35.2 22.65 35.2 21.85 35.4 21.65 35.0 Q21.5 34.2 21.85 32.85 L21.8 32.5 22.1 32.5 22.75 32.55 22.8 32.55 22.95 32.55 23.0 32.55 23.7 32.55 23.95 32.55 23.85 32.9 Q24.25 34.3 24.05 35.0 L23.85 35.4" fill="#faf3f1" fill-rule="evenodd" stroke="none"/>
      <path d="M20.4 35.2 Q19.2 34.05 19.5 33.15 20.45 32.55 21.55 32.5 L21.6 32.5 21.4 34.95 20.85 35.4 20.55 35.25 20.4 35.2 M25.45 35.25 L25.15 35.4 24.85 35.4 24.4 35.0 Q24.05 34.35 24.05 32.55 L24.2 32.55 Q25.3 32.55 26.3 33.2 26.5 34.1 25.45 35.25" fill="#eee8e5" fill-rule="evenodd" stroke="none"/>
      <path d="M18.5 35.05 Q19.25 34.3 19.3 33.65 L19.3 33.25 19.3 33.15 19.5 33.15 Q19.2 34.05 20.4 35.2 L19.7 35.15 19.3 35.15 18.5 35.05 M16.95 35.5 L17.15 35.4 17.2 35.4 19.5 36.0 22.3 36.3 22.75 36.3 22.8 36.3 22.95 36.3 22.95 36.35 23.0 36.35 23.45 36.35 26.3 36.05 28.5 35.45 28.7 35.45 28.85 35.55 28.5 36.0 26.15 36.8 23.1 37.05 23.0 37.05 22.95 37.05 22.95 37.0 22.85 37.0 22.65 37.0 19.65 36.75 17.2 35.85 16.95 35.5 M27.25 35.1 L26.4 35.15 26.05 35.2 25.45 35.25 Q26.5 34.1 26.3 33.2 L26.4 33.2 26.4 33.3 26.4 33.7 Q26.45 34.3 27.25 35.1 M24.85 35.4 L24.05 35.45 23.85 35.4 24.05 35.0 Q24.25 34.3 23.85 32.9 L23.95 32.55 24.05 32.55 Q24.05 34.35 24.4 35.0 L24.85 35.4 M23.1 35.25 L23.0 35.25 22.95 35.25 22.95 35.2 22.8 35.2 22.95 35.15 22.95 35.2 23.1 35.25 M21.85 35.4 L21.65 35.4 20.85 35.4 21.4 34.95 21.6 32.5 21.8 32.5 21.85 32.85 Q21.5 34.2 21.65 35.0 L21.85 35.4" fill="#e2dbd8" fill-rule="evenodd" stroke="none"/>
      <path d="M17.2 35.85 L16.95 35.7 16.75 35.6 16.8 35.55 16.95 35.5 17.2 35.85 M28.5 36.0 L28.85 35.55 28.95 35.6 29.0 35.6 28.85 35.75 28.5 36.0" fill="#ee9f9f" fill-rule="evenodd" stroke="none"/>
      <path d="M15.75 35.65 L15.9 35.55 15.95 35.5 16.4 35.05 16.95 34.35 17.15 34.1 17.9 33.4 18.45 32.85 Q19.55 32.15 20.8 31.85 L22.5 31.65 22.75 31.75 22.8 31.7 22.95 31.65 22.95 31.7 23.0 31.7 24.95 31.9 Q26.2 32.15 27.25 32.9 28.25 33.65 28.85 34.4 L29.8 35.55 30.05 35.75 29.1 36.1 Q28.1 36.5 27.8 36.75 L25.75 37.7 23.0 38.15 22.95 38.15 22.95 38.1 22.8 38.1 22.75 38.1 20.05 37.7 17.95 36.7 Q17.3 36.15 15.75 35.65 M19.3 33.15 L18.95 33.4 Q18.05 33.85 17.6 34.6 L17.3 35.05 17.25 35.15 17.2 35.4 17.15 35.4 16.95 35.5 16.8 35.55 16.75 35.6 16.95 35.7 17.2 35.85 19.65 36.75 22.65 37.0 22.85 37.0 22.95 37.0 22.95 37.05 23.0 37.05 23.1 37.05 26.15 36.8 28.5 36.0 28.85 35.75 29.0 35.6 28.95 35.6 28.85 35.55 28.7 35.45 28.5 35.45 28.45 35.15 28.4 35.1 28.15 34.7 Q27.65 33.9 26.8 33.45 L26.4 33.2 26.3 33.2 Q25.3 32.55 24.2 32.55 L24.05 32.55 23.95 32.55 23.7 32.55 23.0 32.55 22.95 32.55 22.8 32.55 22.75 32.55 22.1 32.5 21.8 32.5 21.6 32.5 21.55 32.5 Q20.45 32.55 19.5 33.15 L19.3 33.15" fill="#d49b90" fill-rule="evenodd" stroke="none"/>
      <path d="M17.6 34.6 L17.95 34.95 18.5 35.05 19.3 35.15 19.7 35.15 20.4 35.2 20.55 35.25 20.85 35.4 21.65 35.4 21.85 35.4 22.65 35.2 22.8 35.2 22.95 35.2 22.95 35.25 23.0 35.25 23.1 35.25 23.85 35.4 24.05 35.45 24.85 35.4 25.15 35.4 25.45 35.25 26.05 35.2 26.4 35.15 27.25 35.1 27.8 35.0 28.15 34.7 28.4 35.1 28.45 35.15 28.5 35.45 26.3 36.05 23.45 36.35 23.0 36.35 22.95 36.35 22.95 36.3 22.8 36.3 22.75 36.3 22.3 36.3 19.5 36.0 17.2 35.4 17.25 35.15 17.3 35.05 17.6 34.6" fill="#db8787" fill-rule="evenodd" stroke="none"/>
      <path d="M15.7 30.2 L16.3 29.6 17.25 28.8 18.4 28.1 Q20.3 27.25 21.65 28.45 22.75 29.2 22.9 29.8 L22.9 29.9 22.9 30.2 22.85 30.25 22.8 30.35 22.7 30.4 22.75 30.65 22.75 31.75 22.5 31.65 20.8 31.85 Q19.55 32.15 18.45 32.85 L17.9 33.4 17.15 34.1 16.95 34.35 16.4 35.05 15.95 35.5 15.9 35.55 15.75 35.65 15.65 35.7 15.5 35.7 15.35 35.7 14.65 35.55 14.05 35.35 14.0 35.25 13.85 35.2 13.95 35.3 13.85 35.25 13.7 35.15 13.0 34.8 12.3 34.3 12.1 34.2 13.7 33.95 13.9 33.65 13.95 33.6 14.15 33.25 Q14.8 31.6 15.7 30.2" fill="url(#gradient3)" fill-rule="evenodd" stroke="none"/>
      <path d="M15.7 30.2 Q14.8 31.6 14.15 33.25 L13.95 33.6 14.05 33.25 Q14.7 31.65 15.65 30.25 L15.7 30.2 M12.3 34.3 L13.0 34.8 13.0 34.95 12.95 34.85 12.05 34.3 12.3 34.3" fill="url(#gradient4)" fill-rule="evenodd" stroke="none"/>
      <path d="M13.0 34.8 L13.7 35.15 13.85 35.25 13.95 35.3 14.05 35.35 14.65 35.55 15.35 35.7 15.5 35.7 Q15.55 35.95 15.6 35.75 L15.65 35.7 15.75 35.65 Q17.3 36.15 17.95 36.7 L20.05 37.7 22.75 38.1 22.75 40.8 21.85 40.8 Q18.2 40.8 16.2 38.85 L13.85 36.45 13.0 34.95 13.0 34.8" fill="url(#gradient5)" fill-rule="evenodd" stroke="none"/>
      <path d="M15.5 35.7 L15.65 35.7 15.6 35.75 Q15.55 35.95 15.5 35.7" fill="url(#gradient6)" fill-rule="evenodd" stroke="none"/>
      <path d="M32.8 34.85 L31.9 36.5 29.6 38.95 Q27.5 40.85 23.85 40.8 L23.0 40.8 23.0 38.15 25.75 37.7 27.8 36.75 Q28.1 36.5 29.1 36.1 L30.05 35.75 31.1 35.6 31.8 35.4 32.8 34.85" fill="url(#gradient7)" fill-rule="evenodd" stroke="none"/>
      <path d="M22.7 30.4 L22.8 30.35 22.95 30.25 22.9 30.2 22.9 29.9 22.9 29.8 Q23.1 29.2 24.05 28.5 25.55 27.3 27.3 28.2 29.1 28.9 30.0 30.25 L31.6 33.25 Q32.3 34.9 33.75 34.2 L32.8 34.85 31.8 35.4 31.1 35.6 30.05 35.75 29.8 35.55 28.85 34.4 Q28.25 33.65 27.25 32.9 26.2 32.15 24.95 31.9 L23.0 31.7 22.95 31.6 22.85 31.05 23.0 30.6 22.8 30.45 22.7 30.4" fill="url(#gradient8)" fill-rule="evenodd" stroke="none"/>
      <path d="M22.75 30.65 L22.7 30.4 22.8 30.45 23.0 30.6 22.85 31.05 22.75 30.65 M22.95 31.6 L23.0 31.7 22.95 31.7 22.95 31.65 22.95 31.6" fill="url(#gradient9)" fill-rule="evenodd" stroke="none"/>
      <path d="M22.75 31.75 L22.75 30.65 22.85 31.05 22.95 31.6 22.95 31.65 22.8 31.7 22.75 31.75 M22.8 30.35 L22.85 30.25 22.9 30.2 22.95 30.25 22.8 30.35" fill="url(#gradient10)" fill-rule="evenodd" stroke="none"/>
      <path d="M23.0 40.8 L22.95 40.8 22.95 38.15 23.0 38.15 23.0 40.8" fill="url(#gradient11)" fill-rule="evenodd" stroke="none"/>
      <path d="M22.95 40.8 L22.8 40.8 22.75 40.8 22.75 38.1 22.8 38.1 22.95 38.1 22.95 38.15 22.95 40.8" fill="url(#gradient12)" fill-rule="evenodd" stroke="none"/>
      <path d="M25.4 15.45 L25.9 17.3 Q26.45 18.8 27.1 19.75 L27.7 20.75 28.65 21.5 29.6 22.1 Q30.1 22.65 30.1 23.15 L29.6 24.8 Q28.95 25.8 27.95 25.8 L26.75 25.7 25.7 25.8 24.8 26.0 24.0 26.45 23.1 26.7 21.7 26.4 20.85 26.0 19.4 26.2 Q15.75 26.2 15.75 23.9 15.75 23.25 16.1 22.85 L17.0 22.05 18.75 20.45 20.1 18.15 Q20.7 16.75 20.6 15.7 21.5 14.55 22.5 14.55 L24.25 14.8 25.15 15.3 25.4 15.45" fill="url(#gradient13)" fill-rule="evenodd" stroke="none"/>
      <path d="M21.45 22.9 L21.45 23.5 Q21.05 23.55 20.8 23.75 L20.75 23.75 19.75 23.25 19.5 23.0 Q19.25 22.4 19.6 21.8 L19.75 21.8 Q20.45 21.8 20.9 22.35 L21.1 22.65 21.45 22.9" fill="#f7f4f1" fill-rule="evenodd" stroke="none"/>
      <path d="M40.8 35.15 L39.25 36.9 37.45 38.4 Q36.3 39.05 34.0 38.95 35.7 36.95 36.2 33.6 36.75 30.15 36.35 29.3 L34.05 24.85 Q32.1 21.1 32.1 20.5 32.1 19.65 32.65 19.15 L34.35 18.95 Q38.2 20.0 40.3 22.95 42.35 25.7 42.35 29.15 42.35 31.4 40.8 35.15" fill="url(#gradient14)" fill-rule="evenodd" stroke="none"/>
      <path d="M11.6 18.95 L13.25 19.15 Q13.85 19.65 13.85 20.5 L11.95 24.85 9.6 29.3 Q9.2 30.15 9.75 33.6 10.35 36.95 12.05 38.95 9.6 39.05 8.65 38.4 L6.75 36.9 5.2 35.15 Q3.7 31.4 3.7 29.15 3.7 25.7 5.7 22.95 7.8 20.0 11.6 18.95" fill="url(#gradient15)" fill-rule="evenodd" stroke="none"/>
      <path d="M19.7 38.5 L22.5 38.7 Q23.45 39.35 22.65 39.4 23.2 39.7 21.8 39.65 L19.25 39.2 Q18.15 38.85 17.6 38.1 L16.8 36.85 17.2 37.25 Q17.65 38.15 19.7 38.5 M26.1 38.5 L26.1 38.95 25.7 39.1 24.9 39.35 24.5 39.05 24.5 38.85 Q24.9 38.45 25.5 38.45 L26.1 38.5" fill="#faecea" fill-opacity="0.49803922" fill-rule="evenodd" stroke="none"/>
      <path d="M30.0 14.9 L33.65 15.6 Q35.6 15.9 36.3 16.3 L31.3 16.5 29.4 16.25 28.8 16.05 28.6 16.0 28.6 15.6 29.35 15.1 30.0 14.9 M16.8 16.25 L14.95 16.5 9.95 16.3 Q10.65 15.9 12.55 15.6 L16.25 14.9 16.95 15.1 17.65 15.6 17.65 16.0 17.45 16.05 16.8 16.25" fill="#f7f4f1" fill-rule="evenodd" stroke="none"/>
      <path d="M29.1 15.0 L30.0 14.65 33.2 15.0 33.3 15.05 37.8 16.45 Q36.4 16.35 34.4 15.7 L34.2 15.65 Q34.1 16.45 33.2 16.5 L32.9 16.5 31.45 16.4 31.1 15.8 30.9 15.1 30.3 15.15 Q29.45 15.45 29.3 16.4 L28.35 16.4 28.3 16.45 27.7 16.5 27.9 16.4 27.9 16.35 27.85 16.4 27.45 16.45 27.7 16.1 27.85 16.0 28.5 15.4 29.1 15.0" fill="url(#gradient16)" fill-rule="evenodd" stroke="none"/>
      <path d="M16.0 14.7 Q16.55 14.8 16.85 15.05 L17.45 15.4 18.1 16.0 18.2 16.25 18.4 16.45 17.95 16.35 18.2 16.5 17.65 16.45 16.8 15.7 16.3 16.25 15.3 16.35 Q15.95 16.25 15.4 16.25 L14.25 16.1 13.7 15.8 13.6 15.65 13.6 15.4 11.95 15.7 8.3 16.45 12.9 15.05 16.0 14.7" fill="url(#gradient17)" fill-rule="evenodd" stroke="none"/>
      <path d="M25.05 12.95 L25.65 13.1 25.75 12.95 25.9 12.75 25.95 12.75 Q26.9 12.15 27.85 11.85 L28.1 11.85 28.8 11.65 29.0 11.65 29.65 11.5 32.25 11.4 34.4 11.25 36.5 11.4 39.65 11.8 40.25 13.3 40.65 15.45 Q40.65 17.2 40.05 18.4 L39.55 18.85 Q38.35 19.85 36.3 20.0 L29.95 20.15 27.6 19.55 27.25 19.3 26.8 18.9 26.55 18.65 26.2 18.05 25.9 17.5 25.75 17.05 25.55 15.8 25.55 15.6 24.85 15.1 25.05 12.95 M32.8 12.2 L32.6 12.2 28.75 12.75 27.2 13.25 27.1 13.3 26.55 14.0 26.45 14.8 26.55 15.75 26.65 16.45 27.0 17.55 Q27.3 18.25 27.9 18.6 L27.9 18.65 28.05 18.7 28.15 18.75 Q29.2 19.35 32.65 19.4 L36.1 19.15 37.45 18.85 37.5 18.75 37.65 18.7 38.3 18.3 39.0 17.4 39.3 16.95 39.45 16.25 Q39.55 15.3 38.9 13.85 38.15 12.45 37.8 12.45 L37.75 12.4 33.65 12.15 33.5 12.15 32.8 12.2" fill="url(#gradient18)" fill-rule="evenodd" stroke="none"/>
      <path d="M25.05 12.95 L24.85 15.1 24.8 15.1 Q24.1 14.7 22.8 14.55 22.4 14.5 21.45 15.05 L21.3 12.85 21.65 12.8 23.05 12.85 24.35 12.8 25.05 12.95" fill="url(#gradient19)" fill-rule="evenodd" stroke="none"/>
      <path d="M21.45 15.05 L21.3 15.1 20.6 15.6 20.35 17.05 19.85 18.05 19.5 18.65 19.2 18.9 18.9 19.3 18.4 19.55 16.05 20.15 9.75 20.0 Q7.7 19.85 6.45 18.85 L6.0 18.4 Q5.4 17.2 5.4 15.45 L5.8 13.3 Q6.1 12.05 6.35 11.8 L11.65 11.25 15.95 11.45 16.4 11.5 17.15 11.65 Q18.9 11.85 20.4 12.95 L20.45 13.1 21.05 12.95 21.3 12.85 21.45 15.05 M13.8 12.2 L12.95 12.15 11.6 12.15 8.25 12.4 8.25 12.45 7.75 12.55 Q7.45 12.65 7.0 13.9 6.45 15.35 6.55 16.25 L7.05 17.4 Q7.65 18.35 8.65 18.75 L8.7 18.85 9.95 19.15 13.4 19.4 Q16.8 19.35 17.95 18.75 L18.15 18.65 18.15 18.6 19.05 17.7 19.1 17.5 19.45 16.45 19.6 15.1 19.45 14.9 Q19.2 13.7 18.7 13.0 L18.6 12.95 18.45 12.95 17.85 12.75 14.0 12.2 13.8 12.2" fill="url(#gradient20)" fill-rule="evenodd" stroke="none"/>
      <path d="M29.4 10.9 L28.8 11.05 28.75 11.05 28.5 11.05 27.6 11.25 Q26.65 11.5 25.75 12.05 L25.75 12.1 Q25.1 12.3 25.6 11.7 26.25 11.0 27.85 10.8 L28.95 10.9 29.4 10.9 M26.25 14.65 L26.4 14.0 Q26.55 13.5 26.9 13.3 L26.95 13.25 Q27.55 12.95 28.45 12.75 L32.35 12.2 32.6 12.2 33.35 12.15 33.4 12.15 37.6 12.4 37.6 12.45 Q37.9 12.45 38.7 13.85 39.25 14.85 39.3 15.6 L39.3 15.7 39.3 15.8 39.3 16.25 39.0 16.95 38.95 16.95 38.95 16.85 37.65 15.75 36.25 14.3 Q34.45 13.35 34.0 13.25 L31.55 13.05 Q30.0 13.05 28.75 13.6 27.65 14.0 27.05 14.8 L26.9 15.0 26.4 15.65 26.4 15.7 26.35 15.75 26.25 14.8 26.25 14.65 M22.4 11.7 L22.4 9.95 23.95 8.0 Q23.3 11.8 22.95 11.75 L22.4 11.7 M27.25 25.95 Q28.75 25.85 29.35 25.05 29.95 24.2 29.7 23.2 29.35 22.05 28.05 21.35 28.95 21.35 30.35 22.35 31.7 23.25 31.65 24.4 L31.45 25.8 Q31.2 26.15 31.65 26.75 32.1 27.45 32.35 28.5 L32.8 30.3 Q32.95 30.85 32.3 29.75 31.6 28.45 30.15 27.5 28.75 26.5 28.15 26.4 L27.45 26.25 27.1 26.25 27.05 26.25 27.25 26.0 27.25 25.95 M12.65 12.15 L13.6 12.2 13.8 12.2 17.65 12.75 18.25 12.95 18.35 12.95 18.45 13.0 Q19.0 13.7 19.15 14.9 18.4 14.0 17.35 13.6 16.05 13.05 14.6 13.05 L12.2 13.25 Q11.65 13.35 9.85 14.3 9.4 14.5 8.4 15.75 L7.1 16.95 6.95 16.25 Q6.7 15.3 7.45 13.85 8.2 12.45 8.45 12.45 L8.5 12.4 11.3 12.15 12.65 12.15 M15.55 22.35 Q16.95 21.35 17.85 21.35 17.25 21.55 16.4 22.85 15.55 24.1 16.4 25.3 17.3 26.55 18.65 25.95 L18.65 26.0 18.9 26.25 18.85 26.25 18.4 26.25 17.75 26.4 Q17.2 26.5 15.7 27.5 14.3 28.45 13.65 29.75 12.95 30.85 13.05 30.3 L13.6 28.5 Q13.85 27.45 14.25 26.75 14.65 26.15 14.45 25.8 L14.2 24.4 Q14.15 23.25 15.55 22.35" fill="#e2caac" fill-rule="evenodd" stroke="none"/>
      <path d="M27.25 25.95 L24.6 25.85 25.05 25.0 25.75 24.5 27.0 24.65 27.55 25.2 27.7 25.8 27.25 25.95 M18.9 24.6 L20.1 24.45 Q20.55 24.6 20.75 24.95 L21.2 25.85 18.65 25.95 18.1 25.75 18.25 25.2 Q18.5 24.75 18.9 24.6" fill="#4f3b3b" fill-rule="evenodd" stroke="none"/>
      <path d="M47.4 21.3 L47.4 21.2 48.25 21.55 Q48.8 21.65 49.45 22.3 50.05 22.9 50.35 23.85 50.6 24.85 50.25 25.15 L49.45 25.5 49.9 26.35 50.5 26.5 Q51.0 26.5 51.65 25.0 52.2 23.9 52.15 22.9 L52.05 21.7 52.05 21.05 52.25 21.05 52.45 21.15 52.5 21.3 Q52.9 23.05 52.9 24.1 52.9 25.5 52.5 27.0 L52.25 27.5 Q51.8 28.9 51.15 29.3 L50.95 29.55 49.75 30.45 Q49.65 28.1 49.05 25.65 L49.05 25.3 48.65 24.05 48.6 23.7 Q48.05 21.85 47.4 21.3 M49.0 18.75 L48.45 18.65 Q48.3 18.0 49.65 18.0 51.55 18.0 51.55 20.7 L51.35 23.55 51.2 23.25 Q50.85 22.65 50.45 21.0 50.15 19.55 49.0 18.75 M17.15 45.3 Q15.35 43.5 14.7 39.95 16.2 43.25 21.3 44.55 26.35 45.8 31.3 39.65 L29.65 43.6 28.3 45.6 Q27.55 46.7 25.8 47.65 L21.5 47.85 Q18.95 47.1 17.15 45.3 M-5.1 21.3 L-5.0 21.15 -4.9 21.05 -4.7 21.05 -4.7 21.7 -4.85 22.9 Q-4.85 23.9 -4.3 25.0 -3.65 26.5 -3.15 26.5 L-2.55 26.35 -2.05 25.5 -2.1 25.5 -2.85 25.15 Q-3.2 24.85 -2.95 23.85 L-2.05 22.3 Q-1.4 21.65 -0.85 21.55 L-0.05 21.2 -0.05 21.3 Q-0.7 21.85 -1.2 23.7 L-1.25 24.05 -1.65 25.3 -1.7 25.65 Q-2.3 28.1 -2.4 30.45 L-3.6 29.55 -3.8 29.3 Q-4.4 28.9 -4.9 27.5 L-5.1 27.0 -5.55 24.1 -5.1 21.3 M-1.6 18.75 Q-2.75 19.55 -3.15 21.0 L-3.85 23.25 -4.0 23.55 -4.2 20.7 Q-4.2 18.0 -2.3 18.0 -0.9 18.0 -1.0 18.65 L-1.6 18.75" fill="#e2c49e" fill-rule="evenodd" stroke="none"/>
      <path d="M2.55 15.05 L2.2 15.1 Q2.05 14.2 2.55 12.0 3.05 9.75 3.9 7.8 4.7 5.75 6.3 3.05 7.9 0.3 10.5 -2.2 13.1 -4.75 14.95 -5.5 16.8 -6.3 19.35 -6.6 L23.35 -6.15 23.65 -6.05 Q25.85 -6.9 27.95 -6.6 30.5 -6.3 32.35 -5.5 34.2 -4.75 36.75 -2.2 39.35 0.3 41.0 3.05 42.6 5.75 43.4 7.8 44.25 9.75 44.75 12.0 45.25 14.2 45.1 15.1 L44.6 15.0 44.6 14.75 44.55 14.05 44.45 13.25 Q44.3 11.75 43.75 10.35 L42.5 7.15 41.95 6.1 40.55 3.6 Q38.7 0.75 37.25 -0.95 L35.3 -2.7 33.0 -4.4 Q30.9 -5.65 28.15 -5.95 L23.75 -5.8 23.6 -5.8 23.4 -5.8 22.5 -6.0 21.95 -6.05 19.9 -6.0 19.15 -5.95 Q16.35 -5.65 14.3 -4.4 13.3 -3.8 12.05 -2.7 L10.05 -0.95 Q8.65 0.75 6.75 3.6 6.0 4.8 5.4 6.1 L4.8 7.15 3.6 10.35 Q3.0 11.75 2.8 13.25 L2.75 14.05 2.7 14.75 2.7 15.0 2.55 15.05" fill="#d0c8c8" fill-rule="evenodd" stroke="none"/>
      <path d="M23.35 -6.15 L23.4 -6.75 23.6 -8.15 23.75 -9.55 23.75 -9.65 24.9 -9.35 Q24.85 -9.65 25.25 -9.5 L26.25 -9.5 27.1 -9.55 27.8 -9.35 28.75 -9.15 29.5 -9.0 30.15 -8.65 Q30.5 -8.35 30.9 -8.45 L31.65 -8.45 32.2 -8.25 33.05 -8.05 34.0 -7.9 34.8 -7.25 35.75 -6.5 35.75 -6.2 Q36.4 -6.45 36.75 -6.0 L37.35 -5.05 37.6 -5.1 37.6 -5.05 38.35 -5.05 Q40.6 -4.4 40.0 -4.0 39.45 -3.75 39.6 -3.45 L41.9 -2.3 41.8 -1.45 Q42.55 -0.95 43.0 -1.1 43.55 -1.2 43.45 -0.85 L43.3 0.2 Q43.25 0.75 43.45 0.2 43.55 -0.25 44.7 1.3 L44.25 2.35 45.4 3.0 Q45.85 3.1 45.65 3.15 L45.5 3.7 45.3 4.25 Q46.05 5.0 46.5 5.1 46.95 5.2 46.7 5.2 46.5 5.2 46.25 5.5 L45.85 6.1 46.45 6.6 Q47.15 6.85 47.05 7.0 L46.75 7.5 46.45 8.1 47.4 9.2 Q47.7 9.45 47.05 10.6 L47.55 11.5 47.15 13.0 47.2 13.05 47.35 13.1 46.95 13.2 46.65 13.3 47.2 13.5 47.6 13.95 46.95 14.65 46.65 15.1 46.7 15.15 46.7 15.25 46.7 15.35 47.2 15.7 46.75 16.45 46.7 16.5 46.7 16.55 46.95 17.2 46.95 17.25 46.8 18.1 46.75 18.2 46.65 18.75 46.5 19.0 46.25 18.1 45.65 20.05 44.75 17.65 44.6 17.15 44.55 16.65 44.6 15.0 45.1 15.1 Q45.25 14.2 44.75 12.0 44.25 9.75 43.4 7.8 42.6 5.75 41.0 3.05 39.35 0.3 36.75 -2.2 34.2 -4.75 32.35 -5.5 30.5 -6.3 27.95 -6.6 25.85 -6.9 23.65 -6.05 L23.35 -6.15" fill="url(#gradient21)" fill-rule="evenodd" stroke="none"/>
      <path d="M23.4 -9.65 L22.25 -9.35 Q22.35 -9.65 21.85 -9.5 L20.9 -9.5 20.05 -9.55 19.3 -9.35 18.4 -9.15 17.65 -9.0 17.05 -8.65 Q16.65 -8.35 16.25 -8.45 L15.55 -8.45 14.95 -8.25 14.05 -8.05 13.15 -7.9 12.35 -7.25 11.35 -6.5 11.35 -6.2 Q10.7 -6.45 10.45 -6.0 L9.8 -5.05 9.55 -5.1 9.55 -5.05 8.75 -5.05 Q6.55 -4.4 7.15 -4.0 7.7 -3.75 7.55 -3.45 L5.3 -2.3 5.35 -1.45 Q4.6 -0.95 4.15 -1.1 3.7 -1.2 3.7 -0.85 L3.85 0.2 Q3.95 0.75 3.75 0.2 3.65 -0.25 2.45 1.3 L2.9 2.35 1.8 3.0 Q1.35 3.1 1.45 3.15 L1.65 3.7 1.85 4.25 0.65 5.1 Q0.2 5.2 0.45 5.2 L0.85 5.5 1.3 6.1 0.7 6.6 Q0.05 6.85 0.05 7.0 L0.4 7.5 0.7 8.1 -0.25 9.2 Q-0.6 9.45 0.05 10.6 L-0.4 11.5 0.0 13.0 -0.05 13.05 -0.2 13.1 0.3 13.2 0.5 13.3 -0.05 13.5 -0.5 13.95 0.2 14.65 0.5 15.1 0.45 15.15 0.45 15.25 0.45 15.35 -0.05 15.7 0.4 16.45 0.45 16.5 0.45 16.55 0.2 17.2 0.2 17.25 0.35 18.1 0.4 18.2 0.35 18.3 0.05 17.75 0.05 17.7 -0.25 16.65 Q-0.4 16.5 -0.6 16.5 L-0.7 16.45 -1.2 16.6 -1.35 14.9 -1.4 14.7 -1.4 14.45 -1.4 13.1 -1.5 11.0 -1.4 9.9 -1.4 9.65 -1.3 8.0 Q-0.8 4.7 0.9 1.85 2.7 -1.15 4.6 -3.3 L6.3 -4.75 9.65 -7.05 10.35 -7.3 11.05 -7.75 12.35 -8.35 Q16.15 -9.95 20.4 -10.05 L23.4 -10.0 23.4 -9.65" fill="url(#gradient22)" fill-rule="evenodd" stroke="none"/>
      <path d="M0.4 18.2 L0.35 18.1 0.2 17.25 0.2 17.2 0.45 16.55 0.45 16.5 0.4 16.45 -0.05 15.7 0.45 15.35 0.45 15.25 0.45 15.15 0.5 15.1 0.2 14.65 -0.5 13.95 -0.05 13.5 0.5 13.3 0.3 13.2 -0.2 13.1 -0.05 13.05 0.0 13.0 -0.4 11.5 0.05 10.6 Q-0.6 9.45 -0.25 9.2 L0.7 8.1 0.4 7.5 0.05 7.0 Q0.05 6.85 0.7 6.6 L1.3 6.1 0.85 5.5 0.45 5.2 Q0.2 5.2 0.65 5.1 L1.85 4.25 1.65 3.7 1.45 3.15 Q1.35 3.1 1.8 3.0 L2.9 2.35 2.45 1.3 Q3.65 -0.25 3.75 0.2 3.95 0.75 3.85 0.2 L3.7 -0.85 Q3.7 -1.2 4.15 -1.1 4.6 -0.95 5.35 -1.45 L5.3 -2.3 7.55 -3.45 Q7.7 -3.75 7.15 -4.0 6.55 -4.4 8.75 -5.05 L9.55 -5.05 9.55 -5.1 9.8 -5.05 10.45 -6.0 Q10.7 -6.45 11.35 -6.2 L11.35 -6.5 12.35 -7.25 13.15 -7.9 14.05 -8.05 14.95 -8.25 15.55 -8.45 16.25 -8.45 Q16.65 -8.35 17.05 -8.65 L17.65 -9.0 18.4 -9.15 19.3 -9.35 20.05 -9.55 20.9 -9.5 21.85 -9.5 Q22.35 -9.65 22.25 -9.35 L23.4 -9.65 23.4 -9.55 23.4 -6.75 23.35 -6.15 19.35 -6.6 Q16.8 -6.3 14.95 -5.5 13.1 -4.75 10.5 -2.2 7.9 0.3 6.3 3.05 4.7 5.75 3.9 7.8 3.05 9.75 2.55 12.0 2.05 14.2 2.2 15.1 L2.55 15.05 2.65 16.65 2.55 17.15 2.45 17.65 2.2 18.2 1.45 20.05 0.85 18.1 0.65 19.0 0.5 18.75 0.5 18.7 0.4 18.2 M23.4 -5.8 L23.05 -5.9 22.5 -6.0 23.4 -5.8" fill="url(#gradient23)" fill-rule="evenodd" stroke="none"/>
      <path d="M46.75 18.2 L46.8 18.1 46.95 17.25 46.95 17.2 46.7 16.55 46.7 16.5 46.75 16.45 47.2 15.7 46.7 15.35 46.7 15.25 46.7 15.15 46.65 15.1 46.95 14.65 47.6 13.95 47.2 13.5 46.65 13.3 46.95 13.2 47.35 13.1 47.2 13.05 47.15 13.0 47.55 11.5 47.05 10.6 Q47.7 9.45 47.4 9.2 L46.45 8.1 46.75 7.5 47.05 7.0 Q47.15 6.85 46.45 6.6 L45.85 6.1 46.25 5.5 Q46.5 5.2 46.7 5.2 46.95 5.2 46.5 5.1 46.05 5.0 45.3 4.25 L45.5 3.7 45.65 3.15 Q45.85 3.1 45.4 3.0 L44.25 2.35 44.7 1.3 Q43.55 -0.25 43.45 0.2 43.25 0.75 43.3 0.2 L43.45 -0.85 Q43.55 -1.2 43.0 -1.1 42.55 -0.95 41.8 -1.45 L41.9 -2.3 39.6 -3.45 Q39.45 -3.75 40.0 -4.0 40.6 -4.4 38.35 -5.05 L37.6 -5.05 37.6 -5.1 37.35 -5.05 36.75 -6.0 Q36.4 -6.45 35.75 -6.2 L35.75 -6.5 34.8 -7.25 34.0 -7.9 33.05 -8.05 32.2 -8.25 31.65 -8.45 30.9 -8.45 Q30.5 -8.35 30.15 -8.65 L29.5 -9.0 28.75 -9.15 27.8 -9.35 27.1 -9.55 26.25 -9.5 25.25 -9.5 Q24.85 -9.65 24.9 -9.35 L23.75 -9.65 23.75 -10.0 26.75 -10.05 Q31.0 -9.95 34.8 -8.35 L36.15 -7.75 36.8 -7.3 37.5 -7.05 40.85 -4.75 42.55 -3.3 46.2 1.85 Q47.95 4.7 48.45 8.0 L48.65 9.65 48.65 9.9 48.65 11.0 48.65 13.1 48.6 14.45 48.6 14.7 48.55 14.9 48.3 16.6 47.85 16.45 47.75 16.5 Q47.55 16.5 47.4 16.65 L47.05 17.7 47.05 17.75 46.8 18.3 46.75 18.2" fill="url(#gradient24)" fill-rule="evenodd" stroke="none"/>
      <path d="M23.4 -9.65 L23.4 -10.0 23.6 -10.0 23.6 -9.65 23.5 -9.55 23.4 -9.55 23.4 -9.65" fill="url(#gradient25)" fill-rule="evenodd" stroke="none"/>
      <path d="M23.4 -6.75 L23.4 -9.55 23.5 -9.55 23.6 -9.65 23.6 -8.15 23.4 -6.75" fill="url(#gradient26)" fill-rule="evenodd" stroke="none"/>
      <path d="M23.75 -9.65 L23.75 -9.55 23.65 -9.55 23.6 -9.65 23.6 -10.0 23.75 -10.0 23.75 -9.65" fill="url(#gradient27)" fill-rule="evenodd" stroke="none"/>
      <path d="M23.75 -9.55 L23.6 -8.15 23.6 -9.65 23.65 -9.55 23.75 -9.55" fill="url(#gradient28)" fill-rule="evenodd" stroke="none"/>
      <path d="M47.85 16.45 L47.85 16.5 47.75 16.5 47.85 16.45 M46.8 18.3 L46.7 18.7 46.65 18.75 46.75 18.2 46.8 18.3" fill="url(#gradient29)" fill-rule="evenodd" stroke="none"/>
      <path d="M29.4 10.9 L32.05 10.65 34.2 10.55 36.35 10.6 Q38.05 10.65 39.3 11.2 39.7 11.4 40.05 12.7 L40.4 14.8 Q40.4 16.55 39.8 17.8 L39.35 18.2 Q38.15 19.2 36.05 19.4 L29.75 19.55 27.4 18.9 27.05 18.65 26.55 18.25 26.4 18.05 25.9 17.35 25.75 16.9 25.55 16.45 25.3 15.2 25.25 15.0 24.55 14.5 Q24.6 13.25 25.3 12.35 L25.45 12.4 25.55 12.25 25.75 12.1 25.75 12.05 Q26.65 11.5 27.6 11.25 L27.85 11.25 28.5 11.05 28.75 11.05 28.8 11.05 29.4 10.9 M39.3 15.6 L39.3 15.45 Q39.35 14.65 38.7 13.2 37.9 11.85 37.6 11.85 L37.6 11.8 33.4 11.5 33.35 11.5 32.6 11.6 32.35 11.6 28.45 12.05 Q27.55 12.25 26.95 12.65 L26.9 12.7 26.4 13.4 Q26.25 13.7 26.25 14.1 L26.25 14.5 26.25 14.65 26.25 14.8 26.35 15.75 26.4 15.7 26.4 15.75 Q26.5 16.45 26.75 16.95 27.05 17.65 27.65 18.0 L27.65 18.05 27.8 18.1 27.9 18.15 32.4 18.75 35.9 18.5 37.5 18.1 38.1 17.7 38.95 16.95 39.0 16.95 39.3 16.25 39.3 15.8 39.3 15.7 39.3 15.6" fill="url(#gradient30)" fill-rule="evenodd" stroke="none"/>
      <path d="M25.3 12.35 Q24.6 13.25 24.55 14.5 L24.5 14.5 Q23.9 13.95 22.55 13.9 22.2 13.85 21.2 14.45 21.1 13.45 20.15 12.3 L20.5 12.3 21.45 12.15 22.8 12.2 24.1 12.15 25.45 12.3 25.3 12.35" fill="url(#gradient31)" fill-rule="evenodd" stroke="none"/>
      <path d="M21.2 14.45 L21.05 14.5 20.4 15.0 20.1 16.45 19.7 17.35 19.2 18.05 19.0 18.25 18.6 18.65 18.2 18.9 15.85 19.55 9.6 19.4 Q7.45 19.2 6.25 18.2 L5.8 17.8 Q5.2 16.55 5.2 14.8 5.2 13.95 5.7 12.7 6.2 11.3 6.55 11.05 L11.35 10.55 15.7 10.8 16.25 10.9 16.85 11.05 Q18.6 11.25 20.1 12.25 L20.15 12.3 Q21.1 13.45 21.2 14.45 M13.8 11.6 L13.6 11.6 12.65 11.5 11.3 11.5 8.0 11.8 8.0 11.85 7.55 11.9 Q7.2 12.0 6.7 13.3 6.25 14.75 6.35 15.6 6.5 16.3 6.8 16.8 7.4 17.75 8.35 18.15 L8.45 18.2 9.7 18.5 13.2 18.75 17.75 18.15 17.95 18.05 17.95 18.0 18.9 17.05 18.95 16.9 19.15 15.75 19.3 14.5 19.15 14.3 Q19.0 13.1 18.45 12.3 L18.35 12.25 18.25 12.25 17.65 12.05 13.8 11.6" fill="url(#gradient32)" fill-rule="evenodd" stroke="none"/>
      <path d="M-0.7 16.45 L-0.6 16.5 -0.7 16.5 -0.7 16.45 M0.35 18.3 L0.4 18.2 0.5 18.7 0.35 18.3" fill="url(#gradient33)" fill-rule="evenodd" stroke="none"/>
      <path d="M41.95 13.15 Q42.15 13.6 43.2 14.3 L46.05 15.7 48.0 16.6 47.25 18.55 45.0 17.75 41.95 16.5 40.65 16.25 Q40.75 16.1 41.0 16.1 L41.6 16.35 41.95 13.5 41.95 13.15 M-0.9 18.55 L-1.8 16.6 0.2 15.7 3.05 14.3 4.4 13.15 4.35 13.4 4.35 13.5 4.65 16.35 Q4.8 16.1 5.35 16.1 L5.7 16.25 4.35 16.5 1.2 17.75 -0.9 18.55" fill="#121110" fill-rule="evenodd" stroke="none"/>
      <path d="M47.25 18.55 L46.95 18.75 44.05 17.7 Q41.4 16.65 40.65 16.55 L40.65 16.25 41.95 16.5 45.0 17.75 47.25 18.55 M5.7 16.25 L5.7 16.55 Q4.8 16.65 2.3 17.7 L-0.65 18.75 -0.9 18.55 1.2 17.75 4.35 16.5 5.7 16.25" fill="#585551" fill-rule="evenodd" stroke="none"/>
      <path d="M40.65 16.25 L40.6 16.25 40.65 15.1 40.05 11.9 41.0 12.15 Q41.75 12.45 41.8 13.0 L41.95 13.15 41.95 13.5 41.6 16.35 41.0 16.1 Q40.75 16.1 40.65 16.25" fill="url(#gradient34)" fill-rule="evenodd" stroke="none"/>
      <path d="M4.4 13.15 L4.5 13.0 Q4.5 12.45 5.35 12.15 L6.25 11.9 5.7 15.1 5.75 16.25 5.7 16.25 5.35 16.1 Q4.8 16.1 4.65 16.35 L4.35 13.5 4.35 13.4 4.4 13.15" fill="url(#gradient35)" fill-rule="evenodd" stroke="none"/>
    </g>
    <radialGradient cx="0" cy="0" gradientTransform="matrix(0.0246, 0.0, 0.0, 0.0246, 23.4, 5.05)" gradientUnits="userSpaceOnUse" id="gradient0" r="819.2" spreadMethod="pad">
      <stop offset="0.5372549019607843" stop-color="#fce7ce"/>
      <stop offset="1.0" stop-color="#e9d1b4"/>
    </radialGradient>
    <linearGradient gradientTransform="matrix(0.0, 0.0175, -0.0225, 0.0, 26.2, 41.0)" gradientUnits="userSpaceOnUse" id="gradient1" spreadMethod="pad" x1="-819.2" x2="819.2">
      <stop offset="0.0" stop-color="#fce7ce"/>
      <stop offset="0.6039215686274509" stop-color="#e9d1b4"/>
      <stop offset="1.0" stop-color="#ffecd4"/>
    </linearGradient>
    <linearGradient gradientTransform="matrix(0.0, 0.0175, 0.0225, 0.0, 21.5, 41.0)" gradientUnits="userSpaceOnUse" id="gradient2" spreadMethod="pad" x1="-819.2" x2="819.2">
      <stop offset="0.0" stop-color="#fce7ce"/>
      <stop offset="0.6039215686274509" stop-color="#e9d1b4"/>
      <stop offset="1.0" stop-color="#ffecd4"/>
    </linearGradient>
    <linearGradient gradientTransform="matrix(-0.0109, 0.0, 0.0, 0.0036, 22.1, 32.45)" gradientUnits="userSpaceOnUse" id="gradient3" spreadMethod="pad" x1="-819.2" x2="819.2">
      <stop offset="0.0" stop-color="#d78f82"/>
      <stop offset="1.0" stop-color="#ffd0c9"/>
    </linearGradient>
    <linearGradient gradientTransform="matrix(-0.0109, 0.0, 0.0, 0.0036, 22.1, 32.5)" gradientUnits="userSpaceOnUse" id="gradient4" spreadMethod="pad" x1="-819.2" x2="819.2">
      <stop offset="0.0" stop-color="#e7b1a7"/>
      <stop offset="1.0" stop-color="#f0c9c2"/>
    </linearGradient>
    <linearGradient gradientTransform="matrix(0.0, 0.0019, 0.0042, 0.0, 23.95, 37.25)" gradientUnits="userSpaceOnUse" id="gradient5" spreadMethod="pad" x1="-819.2" x2="819.2">
      <stop offset="0.0" stop-color="#d78f82"/>
      <stop offset="1.0" stop-color="#f7c7bf"/>
    </linearGradient>
    <linearGradient gradientTransform="matrix(-0.0109, 0.0, 0.0, 0.0036, 22.1, 32.45)" gradientUnits="userSpaceOnUse" id="gradient6" spreadMethod="pad" x1="-819.2" x2="819.2">
      <stop offset="0.0" stop-color="#e7b1a7"/>
      <stop offset="1.0" stop-color="#f0c9c2"/>
    </linearGradient>
    <linearGradient gradientTransform="matrix(0.0, 0.0019, -0.0042, 0.0, 21.8, 37.35)" gradientUnits="userSpaceOnUse" id="gradient7" spreadMethod="pad" x1="-819.2" x2="819.2">
      <stop offset="0.0" stop-color="#d78f82"/>
      <stop offset="1.0" stop-color="#f7c7bf"/>
    </linearGradient>
    <linearGradient gradientTransform="matrix(0.0109, 0.0, 0.0, 0.0036, 23.7, 32.5)" gradientUnits="userSpaceOnUse" id="gradient8" spreadMethod="pad" x1="-819.2" x2="819.2">
      <stop offset="0.0" stop-color="#d78f82"/>
      <stop offset="1.0" stop-color="#ffd0c9"/>
    </linearGradient>
    <linearGradient gradientTransform="matrix(-0.0109, 0.0, 0.0, 0.0036, 22.35, 32.5)" gradientUnits="userSpaceOnUse" id="gradient9" spreadMethod="pad" x1="-819.2" x2="819.2">
      <stop offset="0.0" stop-color="#e7b1a7"/>
      <stop offset="1.0" stop-color="#f0c9c2"/>
    </linearGradient>
    <linearGradient gradientTransform="matrix(0.0109, 0.0, 0.0, 0.0036, 23.4, 32.45)" gradientUnits="userSpaceOnUse" id="gradient10" spreadMethod="pad" x1="-819.2" x2="819.2">
      <stop offset="0.0" stop-color="#e7b1a7"/>
      <stop offset="1.0" stop-color="#f0c9c2"/>
    </linearGradient>
    <linearGradient gradientTransform="matrix(0.0, 0.0019, 0.0042, 0.0, 24.2, 37.35)" gradientUnits="userSpaceOnUse" id="gradient11" spreadMethod="pad" x1="-819.2" x2="819.2">
      <stop offset="0.0" stop-color="#e7b1a7"/>
      <stop offset="1.0" stop-color="#f0c9c2"/>
    </linearGradient>
    <linearGradient gradientTransform="matrix(0.0, 0.0019, -0.0042, 0.0, 21.55, 37.25)" gradientUnits="userSpaceOnUse" id="gradient12" spreadMethod="pad" x1="-819.2" x2="819.2">
      <stop offset="0.0" stop-color="#e7b1a7"/>
      <stop offset="1.0" stop-color="#f0c9c2"/>
    </linearGradient>
    <linearGradient gradientTransform="matrix(0.0011, 0.0087, -0.0074, 9.0E-4, 22.95, 20.6)" gradientUnits="userSpaceOnUse" id="gradient13" spreadMethod="pad" x1="-819.2" x2="819.2">
      <stop offset="0.0" stop-color="#fce7ce"/>
      <stop offset="1.0" stop-color="#f0d5b3"/>
    </linearGradient>
    <linearGradient gradientTransform="matrix(-0.0019, -0.006, -0.0121, 0.0039, 36.9, 29.1)" gradientUnits="userSpaceOnUse" id="gradient14" spreadMethod="pad" x1="-819.2" x2="819.2">
      <stop offset="0.0" stop-color="#f2dcc1"/>
      <stop offset="0.7607843137254902" stop-color="#ffefdb"/>
    </linearGradient>
    <linearGradient gradientTransform="matrix(1.0E-4, -0.0062, 0.0127, 2.0E-4, 9.1, 28.9)" gradientUnits="userSpaceOnUse" id="gradient15" spreadMethod="pad" x1="-819.2" x2="819.2">
      <stop offset="0.0" stop-color="#f2dcc1"/>
      <stop offset="0.7607843137254902" stop-color="#ffefdb"/>
    </linearGradient>
    <linearGradient gradientTransform="matrix(0.0063, 0.0, 0.0, 0.0012, 32.6, 15.5)" gradientUnits="userSpaceOnUse" id="gradient16" spreadMethod="pad" x1="-819.2" x2="819.2">
      <stop offset="0.0" stop-color="#696969"/>
      <stop offset="0.5882352941176471" stop-color="#000000"/>
      <stop offset="1.0" stop-color="#70534e"/>
    </linearGradient>
    <linearGradient gradientTransform="matrix(-0.0036, -2.0E-4, 1.0E-4, -0.0011, 15.6, 15.7)" gradientUnits="userSpaceOnUse" id="gradient17" spreadMethod="pad" x1="-819.2" x2="819.2">
      <stop offset="0.0" stop-color="#696969"/>
      <stop offset="0.5882352941176471" stop-color="#000000"/>
      <stop offset="1.0" stop-color="#70534e"/>
    </linearGradient>
    <linearGradient gradientTransform="matrix(-0.0104, 0.0, 0.0, 0.0054, 32.2, 15.7)" gradientUnits="userSpaceOnUse" id="gradient18" spreadMethod="pad" x1="-819.2" x2="819.2">
      <stop offset="0.0" stop-color="#b2b6bb"/>
      <stop offset="0.4392156862745098" stop-color="#a1a6aa"/>
      <stop offset="1.0" stop-color="#cbd2d9"/>
    </linearGradient>
    <linearGradient gradientTransform="matrix(0.0023, 0.0, 0.0, 0.0014, 23.15, 13.9)" gradientUnits="userSpaceOnUse" id="gradient19" spreadMethod="pad" x1="-819.2" x2="819.2">
      <stop offset="0.0" stop-color="#b2b6bb"/>
      <stop offset="0.4392156862745098" stop-color="#a1a6aa"/>
      <stop offset="1.0" stop-color="#cbd2d9"/>
    </linearGradient>
    <linearGradient gradientTransform="matrix(0.0104, 0.0, 0.0, 0.0054, 13.85, 15.7)" gradientUnits="userSpaceOnUse" id="gradient20" spreadMethod="pad" x1="-819.2" x2="819.2">
      <stop offset="0.0" stop-color="#b2b6bb"/>
      <stop offset="0.4392156862745098" stop-color="#a1a6aa"/>
      <stop offset="1.0" stop-color="#cbd2d9"/>
    </linearGradient>
    <linearGradient gradientTransform="matrix(0.009, -0.0084, 0.0106, 0.0113, 26.9, -4.65)" gradientUnits="userSpaceOnUse" id="gradient21" spreadMethod="pad" x1="-819.2" x2="819.2">
      <stop offset="0.24705882352941178" stop-color="#cbaf9c"/>
      <stop offset="1.0" stop-color="#b1aea4"/>
    </linearGradient>
    <linearGradient gradientTransform="matrix(-0.0234, 0.0, 0.0, 0.0153, 17.65, 2.4)" gradientUnits="userSpaceOnUse" id="gradient22" spreadMethod="pad" x1="-819.2" x2="819.2">
      <stop offset="0.6392156862745098" stop-color="#77716f"/>
      <stop offset="1.0" stop-color="#a19a98"/>
    </linearGradient>
    <linearGradient gradientTransform="matrix(-0.009, -0.0084, -0.0106, 0.0113, 20.3, -4.65)" gradientUnits="userSpaceOnUse" id="gradient23" spreadMethod="pad" x1="-819.2" x2="819.2">
      <stop offset="0.24705882352941178" stop-color="#cbaf9c"/>
      <stop offset="1.0" stop-color="#b1aea4"/>
    </linearGradient>
    <linearGradient gradientTransform="matrix(0.0234, 0.0, 0.0, 0.0153, 29.5, 2.4)" gradientUnits="userSpaceOnUse" id="gradient24" spreadMethod="pad" x1="-819.2" x2="819.2">
      <stop offset="0.6392156862745098" stop-color="#77716f"/>
      <stop offset="1.0" stop-color="#a19a98"/>
    </linearGradient>
    <linearGradient gradientTransform="matrix(-0.0234, 0.0, 0.0, 0.0153, 17.7, 2.4)" gradientUnits="userSpaceOnUse" id="gradient25" spreadMethod="pad" x1="-819.2" x2="819.2">
      <stop offset="0.6392156862745098" stop-color="#77716f"/>
      <stop offset="1.0" stop-color="#a19a98"/>
    </linearGradient>
    <linearGradient gradientTransform="matrix(-0.009, -0.0084, -0.0106, 0.0113, 20.35, -4.65)" gradientUnits="userSpaceOnUse" id="gradient26" spreadMethod="pad" x1="-819.2" x2="819.2">
      <stop offset="0.24705882352941178" stop-color="#cbaf9c"/>
      <stop offset="1.0" stop-color="#b1aea4"/>
    </linearGradient>
    <linearGradient gradientTransform="matrix(0.0234, 0.0, 0.0, 0.0153, 29.45, 2.4)" gradientUnits="userSpaceOnUse" id="gradient27" spreadMethod="pad" x1="-819.2" x2="819.2">
      <stop offset="0.6392156862745098" stop-color="#77716f"/>
      <stop offset="1.0" stop-color="#a19a98"/>
    </linearGradient>
    <linearGradient gradientTransform="matrix(0.009, -0.0084, 0.0106, 0.0113, 26.8, -4.65)" gradientUnits="userSpaceOnUse" id="gradient28" spreadMethod="pad" x1="-819.2" x2="819.2">
      <stop offset="0.24705882352941178" stop-color="#cbaf9c"/>
      <stop offset="1.0" stop-color="#b1aea4"/>
    </linearGradient>
    <linearGradient gradientTransform="matrix(7.0E-4, 0.0, 0.0, 0.0037, 47.25, 18.15)" gradientUnits="userSpaceOnUse" id="gradient29" spreadMethod="pad" x1="-819.2" x2="819.2">
      <stop offset="0.0" stop-color="#747170"/>
      <stop offset="0.24313725490196078" stop-color="#b4b0af"/>
    </linearGradient>
    <linearGradient gradientTransform="matrix(-0.0104, 0.0, 0.0, 0.0054, 31.9, 15.1)" gradientUnits="userSpaceOnUse" id="gradient30" spreadMethod="pad" x1="-819.2" x2="819.2">
      <stop offset="0.0" stop-color="#d0d2d4"/>
      <stop offset="0.1568627450980392" stop-color="#eceef0"/>
      <stop offset="1.0" stop-color="#cbd2d9"/>
    </linearGradient>
    <linearGradient gradientTransform="matrix(0.0032, 0.0, 0.0, 0.0014, 22.75, 13.3)" gradientUnits="userSpaceOnUse" id="gradient31" spreadMethod="pad" x1="-819.2" x2="819.2">
      <stop offset="0.0" stop-color="#d4d9e0"/>
      <stop offset="0.5686274509803921" stop-color="#a1a6aa"/>
      <stop offset="1.0" stop-color="#cbd2d9"/>
    </linearGradient>
    <linearGradient gradientTransform="matrix(0.0104, 0.0, 0.0, 0.0054, 13.7, 15.1)" gradientUnits="userSpaceOnUse" id="gradient32" spreadMethod="pad" x1="-819.2" x2="819.2">
      <stop offset="0.24705882352941178" stop-color="#eceef0"/>
      <stop offset="1.0" stop-color="#cbd2d9"/>
    </linearGradient>
    <linearGradient gradientTransform="matrix(-7.0E-4, 0.0, 0.0, 0.0037, -0.1, 18.15)" gradientUnits="userSpaceOnUse" id="gradient33" spreadMethod="pad" x1="-819.2" x2="819.2">
      <stop offset="0.0" stop-color="#747170"/>
      <stop offset="0.24313725490196078" stop-color="#b4b0af"/>
    </linearGradient>
    <linearGradient gradientTransform="matrix(0.0012, 0.0, 0.0, 0.0027, 41.0, 14.05)" gradientUnits="userSpaceOnUse" id="gradient34" spreadMethod="pad" x1="-819.2" x2="819.2">
      <stop offset="0.0" stop-color="#858b93"/>
      <stop offset="0.7490196078431373" stop-color="#232327"/>
    </linearGradient>
    <linearGradient gradientTransform="matrix(-0.0012, 0.0, 0.0, 0.0027, 5.3, 14.05)" gradientUnits="userSpaceOnUse" id="gradient35" spreadMethod="pad" x1="-819.2" x2="819.2">
      <stop offset="0.0" stop-color="#858b93"/>
      <stop offset="0.7490196078431373" stop-color="#232327"/>
    </linearGradient>
  </defs>
</svg>
