<?xml version="1.0" encoding="UTF-8" standalone="no"?>
<svg xmlns:ffdec="https://www.free-decompiler.com/flash" xmlns:xlink="http://www.w3.org/1999/xlink" ffdec:objectType="frame" height="12.2px" width="13.95px" xmlns="http://www.w3.org/2000/svg">
  <g transform="matrix(1.0, 0.0, 0.0, 1.0, -1.35, 0.65)">
    <use ffdec:characterId="7" height="9.05" transform="matrix(1.0, 0.0, 0.0, 1.0, 1.35, 2.5)" width="13.6" xlink:href="#shape0"/>
  </g>
  <defs>
    <g id="shape0" transform="matrix(1.0, 0.0, 0.0, 1.0, -1.35, -2.5)">
      <path d="M12.1 4.95 L13.0 4.9 Q13.95 5.15 14.45 6.3 14.95 7.3 14.55 8.55 L14.45 8.85 Q14.05 9.95 13.45 10.4 L13.15 10.6 11.5 11.2 8.4 11.35 8.3 11.35 Q6.25 11.25 5.3 10.4 L5.2 10.3 Q4.3 9.3 4.05 8.4 3.85 7.4 4.0 6.95 4.15 6.45 4.9 6.05 L5.9 5.65 6.25 5.7 6.25 6.1 Q5.95 6.5 5.95 7.45 5.95 8.3 6.25 8.8 6.85 9.8 8.3 10.0 L9.15 10.05 Q11.5 10.05 12.35 8.55 L12.4 8.4 12.7 6.6 12.1 4.95" fill="#ffffff" fill-rule="evenodd" stroke="none"/>
      <path d="M12.8 4.8 L13.0 5.45 12.25 4.5 12.6 4.55 12.8 4.8 M12.8 5.55 L13.2 6.45 Q13.75 10.05 10.35 11.3 L10.15 11.35 Q7.2 11.4 6.0 9.85 5.5 9.15 5.25 8.15 L5.2 7.85 5.2 7.75 5.35 5.5 5.55 5.25 5.9 5.15 6.25 5.3 6.3 5.35 6.55 5.35 Q6.95 5.35 7.45 4.95 8.0 4.6 8.5 4.6 L10.35 4.1 11.15 4.15 12.0 4.65 12.8 5.55" fill="#c26a00" fill-rule="evenodd" stroke="none"/>
      <path d="M12.85 6.55 Q14.25 7.3 14.3 8.4 14.35 9.55 13.05 10.4 11.65 11.25 9.7 11.35 7.75 11.4 6.35 10.6 L6.0 10.4 Q4.9 9.7 4.85 8.75 4.8 7.6 6.15 6.8 7.55 6.0 9.5 5.95 11.45 5.8 12.85 6.55" fill="url(#gradient0)" fill-rule="evenodd" stroke="none"/>
      <path d="M9.3 5.4 Q10.45 5.4 11.3 6.15 12.1 6.85 12.1 7.85 12.1 8.9 11.3 9.6 10.45 10.3 9.3 10.3 8.1 10.3 7.3 9.6 6.45 8.9 6.45 7.85 6.45 6.85 7.3 6.15 8.1 5.4 9.3 5.4" fill="url(#gradient1)" fill-rule="evenodd" stroke="none"/>
      <path d="M7.9 7.95 Q7.9 7.5 8.35 7.2 8.75 6.9 9.3 6.9 9.85 6.9 10.2 7.2 10.5 7.5 10.45 7.95 L10.05 8.65 9.15 8.95 Q8.6 8.95 8.3 8.65 7.95 8.4 7.9 7.95" fill="#000000" fill-opacity="0.08627451" fill-rule="evenodd" stroke="none"/>
      <path d="M14.7 7.8 Q9.7 5.9 4.15 8.95 L3.9 7.4 Q4.9 4.95 9.3 4.25 L9.65 4.05 Q13.35 3.5 14.65 6.55 L14.7 7.8" fill="#000000" fill-opacity="0.21176471" fill-rule="evenodd" stroke="none"/>
      <path d="M12.9 10.9 L11.55 11.4 10.65 11.5 9.3 11.55 8.05 11.5 7.45 11.4 7.2 11.4 6.65 11.25 5.75 10.95 5.15 10.7 5.1 10.6 6.75 11.1 8.45 11.25 8.9 11.25 9.65 11.25 10.75 11.15 11.35 11.05 13.35 10.7 12.95 10.85 12.85 10.9 12.9 10.9 M14.2 4.5 Q14.8 4.9 14.85 5.4 L14.95 6.0 14.8 5.95 14.2 5.55 14.8 6.6 14.85 7.0 13.5 5.9 Q12.15 4.8 10.8 4.8 7.4 4.8 5.1 6.75 L4.6 7.3 4.6 7.35 4.25 7.9 4.25 8.2 4.45 9.2 4.55 9.55 Q4.3 9.55 3.4 8.2 L3.2 8.25 2.5 8.3 1.6 8.0 3.05 7.65 3.0 7.55 2.3 7.4 2.2 7.4 1.9 7.25 1.35 6.85 1.85 6.95 2.0 6.95 3.15 6.85 3.25 6.8 3.4 6.65 2.4 6.5 1.6 6.2 2.6 6.25 3.95 6.1 4.3 5.95 4.35 5.95 3.1 5.3 3.95 5.35 4.5 5.35 4.85 5.35 4.9 5.35 5.2 5.3 6.55 4.65 6.4 4.65 8.2 4.05 11.45 3.6 13.0 3.9 14.2 4.5" fill="#513624" fill-rule="evenodd" stroke="none"/>
      <path d="M11.45 3.0 L10.35 3.05 Q8.75 3.15 7.25 3.7 L6.35 4.05 6.25 4.1 6.3 4.0 Q6.9 3.5 8.05 3.05 L9.7 2.6 11.0 2.5 11.95 2.6 11.9 2.5 12.2 2.6 Q12.6 2.65 13.25 3.05 L14.4 3.8 13.95 3.65 Q13.7 3.5 13.05 3.3 L11.45 3.0" fill="#000000" fill-opacity="0.29803923" fill-rule="evenodd" stroke="none"/>
      <path d="M12.05 8.65 L12.45 8.4 Q12.8 8.45 12.8 8.7 L12.5 8.95 12.15 8.85 12.05 8.65 M10.5 9.5 L10.7 9.25 12.15 9.3 Q12.75 9.9 12.3 10.2 L11.8 10.4 11.45 10.45 11.2 10.4 10.85 10.25 Q10.35 9.8 10.5 9.5 M7.4 6.8 Q7.85 6.75 7.85 7.15 7.85 7.45 7.45 7.45 6.9 7.45 6.9 7.1 6.9 6.8 7.4 6.8 M6.2 10.1 L6.0 9.7 Q5.9 9.4 6.95 9.25 7.75 9.25 7.75 9.6 L7.4 10.05 7.2 10.2 6.95 10.3 6.7 10.3 6.2 10.1 M9.95 10.25 L9.6 10.3 Q9.3 10.3 9.3 10.05 9.25 9.75 9.65 9.8 L10.05 10.05 9.95 10.25 M8.4 10.0 Q8.65 10.0 8.65 10.2 L8.4 10.35 8.2 10.3 8.15 10.15 Q8.15 10.0 8.4 10.0" fill="#ffffff" fill-rule="evenodd" stroke="none"/>
    </g>
    <linearGradient gradientTransform="matrix(-1.0E-4, -0.0033, -0.0058, 2.0E-4, 9.6, 8.65)" gradientUnits="userSpaceOnUse" id="gradient0" spreadMethod="pad" x1="-819.2" x2="819.2">
      <stop offset="0.09019607843137255" stop-color="#ffffff" stop-opacity="0.67058825"/>
      <stop offset="0.6352941176470588" stop-color="#ffffff" stop-opacity="0.0"/>
    </linearGradient>
    <radialGradient cx="0" cy="0" gradientTransform="matrix(-0.004, 0.0, 0.0, 0.003, 9.25, 7.85)" gradientUnits="userSpaceOnUse" id="gradient1" r="819.2" spreadMethod="pad">
      <stop offset="0.16862745098039217" stop-color="#000000" stop-opacity="0.3254902"/>
      <stop offset="0.8470588235294118" stop-color="#000000" stop-opacity="0.0"/>
    </radialGradient>
  </defs>
</svg>
