<?xml version="1.0" encoding="UTF-8" standalone="no"?>
<svg xmlns:ffdec="https://www.free-decompiler.com/flash" xmlns:xlink="http://www.w3.org/1999/xlink" ffdec:objectType="frame" height="11.95px" width="14.95px" xmlns="http://www.w3.org/2000/svg">
  <g transform="matrix(1.0, 0.0, 0.0, 1.0, 2.35, -0.4)">
    <use ffdec:characterId="15" height="10.05" transform="matrix(1.0, 0.0, 0.0, 0.7129, -1.85, 5.154)" width="11.65" xlink:href="#shape0"/>
    <use ffdec:characterId="9" height="10.8" transform="matrix(1.0, 0.0, 0.0, 0.7113, -0.85, 4.35)" width="9.2" xlink:href="#sprite0"/>
    <use ffdec:characterId="16" height="5.0" transform="matrix(1.0, 0.0, 0.0, 0.71, 0.1, 7.739)" width="6.6" xlink:href="#shape2"/>
    <use ffdec:characterId="6" height="6.75" transform="matrix(1.0, 0.0, 0.0, 0.7113, 0.9, 5.7)" width="5.1" xlink:href="#sprite1"/>
    <use ffdec:characterId="18" height="8.55" transform="matrix(1.0, 0.0, 0.0, 1.0, -2.35, 3.8)" width="14.95" xlink:href="#shape4"/>
  </g>
  <defs>
    <g id="shape0" transform="matrix(1.0, 0.0, 0.0, 1.0, 1.85, -2.25)">
      <path d="M9.8 4.7 L9.55 7.9 8.95 9.95 8.9 10.0 8.9 10.1 8.9 10.15 Q7.95 11.05 6.85 11.5 L6.35 11.7 6.35 11.65 6.1 11.75 3.65 12.15 3.4 12.3 2.3 12.2 1.8 12.1 1.5 12.15 0.75 11.75 -0.15 11.2 -0.15 11.15 Q-1.3 10.25 -1.65 8.5 L-1.85 5.95 -1.7 5.75 Q-1.0 4.6 0.55 3.7 L0.6 3.7 Q2.45 2.6 4.95 2.3 L8.15 2.65 Q9.7 3.3 9.8 4.7" fill="#ffffff" fill-rule="evenodd" stroke="none"/>
    </g>
    <g id="sprite0" transform="matrix(1.0, 0.0, 0.0, 1.0, 0.0, 0.0)">
      <use ffdec:characterId="2" height="10.8" transform="matrix(1.0, 0.0, 0.0, 1.0, 0.0, 0.0)" width="9.2" xlink:href="#shape1"/>
    </g>
    <g id="shape1" transform="matrix(1.0, 0.0, 0.0, 1.0, 0.0, 0.0)">
      <path d="M6.3 0.25 Q8.45 0.8 9.0 2.85 9.6 4.95 8.35 8.05 7.15 11.1 3.05 10.75 1.25 10.6 0.5 8.7 -0.1 7.25 0.05 5.25 0.2 2.2 2.0 0.85 3.7 -0.45 6.3 0.25" fill="url(#gradient0)" fill-rule="evenodd" stroke="none"/>
    </g>
    <linearGradient gradientTransform="matrix(2.0E-4, 0.0066, -0.0066, 2.0E-4, 4.6, 5.4)" gradientUnits="userSpaceOnUse" id="gradient0" spreadMethod="pad" x1="-819.2" x2="819.2">
      <stop offset="0.0" stop-color="#3c0058"/>
      <stop offset="0.6823529411764706" stop-color="#7a49c4"/>
    </linearGradient>
    <g id="shape2" transform="matrix(1.0, 0.0, 0.0, 1.0, -0.1, -5.9)">
      <path d="M6.0 6.1 L6.7 6.15 Q6.6 8.3 5.75 9.55 4.8 10.9 3.4 10.9 1.95 10.9 1.0 10.0 L0.7 9.5 Q0.0 8.5 0.1 5.9 L0.95 5.9 0.9 6.2 Q0.85 6.8 0.95 7.3 L1.15 7.85 1.55 8.7 Q2.0 9.35 3.6 9.55 L4.0 9.55 4.95 9.15 5.6 8.4 Q5.95 7.8 6.0 6.6 L6.0 6.1" fill="#ffffff" fill-opacity="0.2509804" fill-rule="evenodd" stroke="none"/>
    </g>
    <g id="sprite1" transform="matrix(1.0, 0.0, 0.0, 1.0, 0.0, 0.0)">
      <use ffdec:characterId="5" height="6.75" transform="matrix(1.0, 0.0, 0.0, 1.0, 0.0, 0.0)" width="5.1" xlink:href="#shape3"/>
    </g>
    <g id="shape3" transform="matrix(1.0, 0.0, 0.0, 1.0, 0.0, 0.0)">
      <path d="M5.1 3.1 L5.1 3.6 4.75 5.25 4.05 6.2 3.1 6.7 2.3 6.75 2.05 6.7 1.65 6.6 1.25 6.35 1.1 6.25 0.4 5.4 0.05 4.3 0.0 3.2 0.1 2.55 Q0.15 1.9 1.05 0.9 2.05 -0.3 3.3 0.1 L4.4 1.0 Q5.05 1.9 5.1 3.1" fill="#230162" fill-rule="evenodd" stroke="none"/>
    </g>
    <g id="shape4" transform="matrix(1.0, 0.0, 0.0, 1.0, 2.35, -3.8)">
      <path d="M0.35 6.65 Q0.35 6.3 0.85 6.0 1.3 5.7 1.9 5.7 2.5 5.7 2.9 6.1 3.3 6.3 3.25 6.75 L2.7 7.4 1.65 7.65 1.0 7.5 Q0.3 7.2 0.35 6.65 M1.45 9.9 L1.85 9.95 2.3 10.1 2.15 10.05 2.45 10.3 2.6 10.7 2.25 11.25 1.1 11.45 Q0.25 11.3 0.25 10.55 L0.55 10.15 Q1.05 9.85 1.45 9.9" fill="#ffffff" fill-rule="evenodd" stroke="none"/>
      <path d="M2.8 10.65 L2.85 10.5 2.9 10.25 Q3.35 9.55 4.45 9.55 L5.3 9.75 5.95 10.25 6.1 10.65 Q6.05 11.15 5.5 11.5 L4.3 11.75 Q3.3 11.75 2.9 11.1 L2.8 10.65" fill="#ffffff" fill-opacity="0.4" fill-rule="evenodd" stroke="none"/>
      <path d="M5.6 4.5 Q10.55 4.5 10.55 7.7 L10.4 8.25 8.55 6.95 Q7.2 6.2 5.2 6.0 L4.4 6.0 Q2.4 5.9 0.7 6.55 -1.05 7.2 -1.85 8.45 L-1.95 7.9 Q-1.95 6.8 -0.15 5.95 1.45 5.15 4.1 4.6 L5.6 4.5" fill="#000000" fill-opacity="0.2509804" fill-rule="evenodd" stroke="none"/>
      <path d="M0.0 11.75 L0.25 11.8 0.2 11.75 0.9 11.95 2.6 12.1 4.3 12.1 5.7 12.0 6.5 11.85 5.75 12.1 3.0 12.35 0.3 11.85 0.0 11.75 M10.15 4.95 L10.3 5.0 Q11.65 5.8 12.05 6.55 L12.6 7.6 12.55 7.6 12.45 7.55 Q12.0 7.25 11.3 7.1 11.1 8.5 10.3 9.5 L8.9 10.7 8.9 10.65 8.95 10.65 9.55 9.15 9.8 6.9 Q9.7 5.9 8.15 5.45 L4.95 5.2 Q2.45 5.4 0.6 6.2 L0.55 6.2 Q-1.0 6.8 -1.7 7.65 L-1.85 7.8 -2.05 8.1 -2.15 8.15 -2.25 8.35 Q-2.35 8.55 -2.35 8.4 L-2.3 8.05 Q-2.0 6.0 0.75 4.85 1.7 4.4 2.8 4.15 L1.45 4.4 Q-0.7 4.85 -1.7 5.7 L-1.8 5.7 -1.85 5.7 -1.95 5.7 -1.75 5.6 Q-0.45 4.6 1.4 4.2 L4.8 3.85 4.9 3.85 5.8 3.85 6.9 3.9 6.95 3.9 Q9.45 4.0 11.25 4.8 L11.7 5.0 Q12.15 5.2 11.8 5.1 L11.3 4.95 11.15 4.95 11.0 4.95 10.2 4.85 9.9 4.8 10.15 4.95" fill="#3a2d2b" fill-rule="evenodd" stroke="none"/>
    </g>
  </defs>
</svg>
