<svg xmlns="http://www.w3.org/2000/svg" width="14.5" height="13"><use><animate attributeName="xlink:href" begin="0s" dur="1.0s" repeatCount="indefinite" values="#EyeR2_a;#EyeR2_b;#EyeR2_c;#EyeR2_b;#EyeR2_a"/></use><defs><g id="a"><path fill="#3a2d2b" fill-rule="evenodd" d="m-.85 4.35-.9.6 1.1-2.25Q3.1.95 7.2.5l5.05.3h.05l-.2 1-.5 3.4-1.1 2.9.25-.85.2-.95q.5-2.8-.6-3.9-.25-.3-.85-.35l-1.35-.1q-1.95-.05-6.1.95L.2 3.6zm2.15 6.8 2.9.2 3.2-.05-1.55.55-2.95.1-1.05-.4z"/><path fill="#fff" fill-rule="evenodd" d="M10.75 7.25q-1 1.95-3.4 3.2l-1.15.4q2.45-2.2 2.6-3.95.25-3.4-.65-4.95l1.35.1q.6.05.85.35 1.1 1.1.6 3.9zM.2 3.6l-.35 2.1.4 2.3q.55 2.05 1.7 2.75H1.9L.7 10.4l-.25-.2.05.2v-.05q-1.4-2.4-1.35-6z"/><path fill="none" stroke="#3a2d2b" stroke-linecap="round" stroke-linejoin="round" stroke-width=".15" d="M.5 1.4 2.95 0Q4.65-.95 6-.9"/></g><g id="c" fill-rule="evenodd"><path fill="url(#d)" d="M.25 3.45 1.8 2.9q4.2-1 6.4-.95.9 1.55.65 4.95-.15 1.75-2.6 3.95l-.9.15-1.45.1-1.9-.35Q.85 10.05.3 8l-.4-2.3q0-1.2.35-2.25"/><path fill-opacity=".498" d="M8.2 1.95q.85 1.35.7 3.6L7.65 5.2l-2.2-.5.2 1.8q0 .9-.45 1.5-.45.65-1.1.65T3 8q-.45-.6-.45-1.5l.2-1.05.2-.6Q1.5 5-.1 5.5l.35-2.05L1.8 2.9q4.2-1 6.4-.95"/><path fill="url(#e)" d="m8.95 5.55-3.7-.8.25.7.15 1.1q0 .9-.45 1.5-.45.65-1.1.65T3 8.05q-.45-.6-.45-1.5Q2.55 5.7 3 5l-.65-.1-2.45.65q0-1.2.35-2.25l1.55-.55q4.2-1 6.4-.95.65 1.75.75 3.75"/><path fill="#fff" fill-opacity=".4" d="M3.75 8.55q1 .35 1.9-1.25L5.6 8.35q-.35 1-1.65 1.05Q2.9 8.8 2.9 7.9z"/><path fill="#fff" d="M1.55 6.05q-1 .3-.95 0l-.1-1L.7 4q.1-.15 1.05-.35.9-.2.9 0l.05.95-.3 1.15z"/><path fill="#fff" fill-opacity=".694" d="m5.75 7.85.1-.1.4-.05q.2-.1.6.15l.45.65.35.6h-.6l-.3-.05-.6-.65z"/><path fill-opacity=".298" d="M10.4 2.3q.9.9.7 3.05-1.1-.65-2-.95-5-1.9-9.2.15l-.75.4.05-.65 1.2-.8q1.3-.65 1.55-.7 4.15-1 6.25-.95l1.35.1q.6.05.85.35"/></g><g id="f"><path fill="#3a2d2b" fill-rule="evenodd" d="m-.85 6.45-.9.45 1.1-1.65Q3.1 4 7.2 3.65l5.05.25h.05l-.2.7-.5 2.45-1.1 2.15.25-.65.2-.7q.5-2-.6-2.8L9.5 4.8l-1.35-.1-6.1.7-1.85.5zM1.3 11.4l2.9.15 3.2-.05-1.55.4-2.95.05-1.05-.25z"/><path fill="#fff" fill-rule="evenodd" d="M10.75 8.55q-1 1.45-3.4 2.35l-1.15.3q2.45-1.6 2.6-2.9.25-2.45-.65-3.6l1.35.1.85.25q1.1.8.6 2.8zM.2 5.9q-.35.8-.35 1.55l.4 1.65q.55 1.5 1.7 2H1.9l-1.2-.25-.25-.15.05.15v-.05Q-.9 9.05-.85 6.45z"/><path fill="none" stroke="#3a2d2b" stroke-linecap="round" stroke-linejoin="round" stroke-width=".15" d="m.5 4.3 2.45-1q1.7-.7 3.05-.65"/></g><g id="h" fill-rule="evenodd"><path fill="url(#i)" d="m1.8 5.4 6.4-.7q.9 1.15.65 3.6-.15 1.3-2.6 2.9l-.9.1-1.45.05L2 11.1q-1.15-.5-1.7-2l-.4-1.65q0-.9.35-1.65z"/><path fill-opacity=".498" d="m.25 5.8 1.55-.4 6.4-.7q.85 1 .7 2.65l-1.25-.3-2.2-.35.2 1.3q0 .65-.45 1.1-.45.5-1.1.5T3 9.1q-.45-.45-.45-1.1l.2-.75.2-.45-3.05.5z"/><path fill="url(#j)" d="m.25 5.7 1.55-.4 6.4-.7q.65 1.3.75 2.75l-3.7-.6.25.5.15.8q0 .65-.45 1.1l-1.1.45q-.65 0-1.1-.45t-.45-1.1q0-.6.45-1.1l-.65-.1-2.45.5q0-.9.35-1.65"/><path fill="#fff" fill-opacity=".4" d="M3.7 9.5q1 .2 1.9-.8l-.05.65Q5.2 10 3.9 10q-1.05-.35-1.05-.9.3.3.85.4"/><path fill="#fff" d="m2.65 5.95.05.7q-.05.6-.3.8l-.85.25q-1 .2-.95 0l-.1-.75.2-.75 1.05-.25q.9-.15.9 0"/><path fill="#fff" fill-opacity=".694" d="m5.75 8.95.1-.1.4-.05.6.15.45.45.35.45h-.6l-.3-.05-.6-.45z"/><path fill-opacity=".298" d="M11.1 7.2q-1.1-.5-2-.7-5-1.4-9.2.1l-.75.3.05-.5 1.2-.55q1.3-.5 1.55-.5l6.25-.7 1.35.05q.6.05.85.25.9.65.7 2.25"/></g><g id="k"><path fill="#3a2d2b" fill-rule="evenodd" d="m9.75 6.45-.35 2.1Q9.2 9.8 8.9 9.9l-3.35.95-4.05-.2-1.55-.5-1.1-.6-1-.65 6.6.4 3.2-1z"/><path fill="none" stroke="#3a2d2b" stroke-linecap="round" stroke-linejoin="round" stroke-width=".15" d="m9.75 6.45-.35 2.1Q9.2 9.8 8.9 9.9l-3.35.95-4.05-.2-1.55-.5-1.1-.6-1-.65 6.6.4 3.2-1zM-1.2 7.5q2.05.95 4.3.75"/></g><path id="b" fill="#063" fill-rule="evenodd" d="M8.95 4.95Q8.8 6.7 6.35 8.9l-.9.15-1.45.1-1.9-.35Q.95 8.1.4 6.05L0 3.75q0-1.05.35-2.1L2.2.95q4.15-1 6.1-.95.9 1.55.65 4.95"/><path id="g" fill="#063" fill-rule="evenodd" d="M8.95 4.95Q8.8 6.7 6.35 8.9l-.9.15-1.45.1-1.9-.35Q.95 8.1.4 6.05L0 3.75q0-1.05.35-2.1L2.2.95q4.15-1 6.1-.95.9 1.55.65 4.95"/><path id="l" fill="#063" fill-opacity="0" fill-rule="evenodd" d="M8.95 4.95Q8.8 6.7 6.35 8.9l-.9.15-1.45.1-1.9-.35Q.95 8.1.4 6.05L0 3.75q0-1.05.35-2.1L2.2.95q4.15-1 6.1-.95.9 1.55.65 4.95"/><radialGradient id="d" cx="0" cy="0" r="819.2" gradientTransform="matrix(-.0073 0 0 .0073 4.4 6.55)" gradientUnits="userSpaceOnUse" spreadMethod="pad"><stop offset="0" stop-opacity="0"/><stop offset=".714" stop-opacity=".2"/></radialGradient><radialGradient id="i" cx="0" cy="0" r="819.2" gradientTransform="matrix(-.0073 0 0 .0053 4.4 8.05)" gradientUnits="userSpaceOnUse" spreadMethod="pad"><stop offset="0" stop-opacity="0"/><stop offset=".714" stop-opacity=".2"/></radialGradient><linearGradient id="e" x1="-819.2" x2="819.2" gradientTransform="matrix(0 -.0042 -.0056 0 4.55 5.25)" gradientUnits="userSpaceOnUse" spreadMethod="pad"><stop offset=".553" stop-opacity="0"/><stop offset="1" stop-opacity=".498"/></linearGradient><linearGradient id="j" x1="-819.2" x2="819.2" gradientTransform="matrix(0 -.0031 -.0056 0 4.55 7.1)" gradientUnits="userSpaceOnUse" spreadMethod="pad"><stop offset=".553" stop-opacity="0"/><stop offset="1" stop-opacity=".498"/></linearGradient></defs></svg>