<svg xmlns="http://www.w3.org/2000/svg" xmlns:ffdec="https://www.free-decompiler.com/flash" xmlns:xlink="http://www.w3.org/1999/xlink" ffdec:objectType="frame" width="12.95" height="11.25"><use ffdec:characterId="8" xlink:href="#a" width="11.9" height="7.75" transform="translate(0 3.5)"/><defs><radialGradient id="b" cx="0" cy="0" r="819.2" gradientTransform="matrix(.0041 0 0 .0029 2.9 8.05)" gradientUnits="userSpaceOnUse" spreadMethod="pad"><stop offset="0" stop-color="#fff" stop-opacity=".314"/><stop offset=".737" stop-color="#fff" stop-opacity="0"/></radialGradient><g id="a" fill-rule="evenodd"><path fill="#fff" fill-opacity=".706" d="m9.9 2.45.35.45.6 1.2.2-.65.15.15q0 1.25-1.05 2.3-1.2 1.3-3.35 1.55H5.15q-2.6-.05-3.5-1.2v-.1l-.25-.3-.4-1.2-.15-.15v-.3h.1l.15.15v-.1l.1-.45.4-.4q.4 0 .4.3l-.1.1h-.05l.15.5.4 1.05L4.1 6.5l1.2.25q2.15 0 3.5-.9l.1-.05.1-.1.7-1.15-.2-.4-.05-.75v-.35l-.15-.3-.65-.55.35-.25q.45 0 .9.5M4.35 7.2 2.9 6.8l-.7-.35.5.35.85.2zm.35.05.5.05h.15l-.55-.05zm1.95.05h.1l.4-.05z"/><path fill="#c42525" d="m8.75 1.85.85 1.3.2 1.05-.25 1.15L8.4 6.5l-2.9.6q-2.1 0-3.15-1.25-.7-.8-.7-1.7 0-1.05.65-1.8 1-1.25 3.4-1.25 2.15 0 3.05.75"/><path fill="url(#b)" d="M1.05 9.3Q.3 8.75.3 8.05q0-.75.75-1.25.8-.55 1.85-.55t1.85.55q.75.5.75 1.25 0 .7-.75 1.25-.8.55-1.85.55T1.05 9.3" transform="translate(2.95 -3.5)"/><path fill="#950000" d="m7.95 5 .2-.85-.05-.95.45.85-.1 1.15q-.15.65-.8 1.05t-1.95.3Q4.3 6.5 3.75 5.8q-.6-.65-.7-1.25-.1-.65.25-1.15v.1l.15.9q.2.9 1.25 1.35l.7.25h.1l.8.1.8-.2.55-.4z"/><path fill="#ffe39c" fill-opacity=".125" d="M7.9 4.05q0 .45-.55.45l-.6-.2q-.25-.2-.15-.5l.6-.15q.4-.1.6.15zm-2.8.2q.95.2 1 1.1.1.9-1.35 1-1.5.05-1.5-1.05 0-.7 1.1-1.05z"/><path fill="#fff" d="M7.35 5.6v-.25q.6 0 .6.25l-.05.15h-.4zM5.1 4.5q-.05.45-1.05.75h-.3q-.7-.05-.95-.45l-.3-.6.3-.45q.2-.3.75-.35h.5q.4.05.75.35zm1.3 1.85q-.6 0-.6-.5 0-.55.55-.5.55.15.55.6 0 .4-.5.4m1.95-1.1-.45-.3q0-.25.6-.25.35 0 .35.25l-.15.2z"/><path fill="#2c0900" fill-opacity=".239" d="M9.7 3.8Q8.2 2.6 6.05 2.7t-3.5 1q-1.4.8-1.45 1.25L.95 5 .8 4.4q0-.9 1.2-1.95Q3.65 1.1 6.35 1.1q2.4 0 3.8 1 1.1.75 1.1 1.65l-.05.5-.05.1-.2.4-.15.2q-.1-.35-1.1-1.15"/><path fill="#5d2900" fill-opacity=".302" d="M8.85.4 6 .25 4.5.4Q1.9.75.55 2.1l-.4.35Q.9.65 3.65.25l.5-.05h.05L6.35 0 8.2.1z"/><path fill="#200900" d="m11.15 1.65.75-.05q-.1.05-.05.25l-.15 1.1L10.75 5v-.25l-.1-.9q-.25-.65-1.1-1.4t-2.45-.8l-2.75.2q-1.15.3-2.1 1.25L.95 4.75l-.05.1-.1-.25Q.45 4 0 3.75l.6-.7.9-.9 1.4-.85L5.1.75 5.5.7h1.35l2.1.4 1.3.4zM3.85 7.3l-.5-.05-.7.2-.05-.15.3-.2q-.6-.2-.85-.4l.2-.05 1.4.3 2.4.3 2.3-.4q.75-.35.9-.35h.15v.05l-.65.4.45.35h-.35l-.5-.05-.1-.05H8.2l-.6.2.1.15-.1.15-.1.05L7 7.5l-.9.1-1.25-.1-.45.25-.1-.15.05-.2z"/></g></defs></svg>