<svg xmlns="http://www.w3.org/2000/svg" xmlns:ffdec="https://www.free-decompiler.com/flash" xmlns:xlink="http://www.w3.org/1999/xlink" ffdec:objectType="frame" width="12.95" height="11.25"><use ffdec:characterId="11" xlink:href="#a" width="11.9" height="11.25"/><defs><radialGradient id="b" cx="0" cy="0" r="819.2" gradientTransform="translate(2.9 6.55)scale(.0041)" gradientUnits="userSpaceOnUse" spreadMethod="pad"><stop offset="0" stop-color="#fff" stop-opacity=".314"/><stop offset=".737" stop-color="#fff" stop-opacity="0"/></radialGradient><g id="a" fill-rule="evenodd"><path fill="#fff" fill-opacity=".706" d="M9.3 3.95q-.65-.4-.65-.8 0-.3.35-.3.45 0 .9.65l.35.65.6 1.75.2-.9.15.2q0 1.8-1.05 3.35-1.2 1.85-3.35 2.25H5.15q-2.6-.1-3.5-1.75v-.1l-.25-.5-.4-1.7-.15-.25v-.4l.1-.05.15.25v-.15l.1-.7.4-.5q.4 0 .4.35l-.1.2-.05.05.15.65.4 1.6 1.7 1.65 1.2.3q2.15 0 3.5-1.3l.1-.05.1-.2.7-1.65L9.5 6l-.05-1.05V4.4zm-4.1 6.6h1.55l.4-.1-.85.05h-.75l-.75-.05h-.1zm-.85-.15L2.9 9.85l-.7-.55.5.5.85.35z"/><path fill="#c42525" d="M8.4 9.45q-.85.75-2.9.8-2.1 0-3.15-1.8-.7-1.15-.7-2.45 0-1.5.65-2.6 1-1.85 3.4-1.85 2.15 0 3.05 1.15.75 1.15.85 1.85l.2 1.5-.25 1.75q-.3.95-1.15 1.65"/><path fill="url(#b)" d="M4.75 4.75q.75.75.75 1.8T4.75 8.4q-.8.75-1.85.75T1.05 8.4Q.3 7.6.3 6.55t.75-1.8q.8-.8 1.85-.8t1.85.8" transform="translate(2.95)"/><path fill="#950000" d="m8.55 5.85-.1 1.65q-.15.95-.8 1.55Q7 9.6 5.7 9.5q-1.4-.15-1.95-1.1-.6-.95-.7-1.85t.25-1.6v.1q0 .7.15 1.3.2 1.3 1.25 2l.7.3h.1l.8.15.8-.25.55-.6.3-.7.2-1.3-.05-1.3z"/><path fill="#ffe39c" fill-opacity=".125" d="m7.8 5.45.1.4q0 .65-.55.65l-.6-.25q-.25-.35-.15-.7.15-.3.6-.3.4-.1.6.2m-2.7.7q.95.3 1 1.65.1 1.25-1.35 1.35-1.5.1-1.5-1.5 0-1.05 1.1-1.5z"/><path fill="#fff" d="m4.8 5.4.3 1.1q-.05.65-1.05 1.05l-.3.05q-.7-.1-.95-.65l-.3-.85.3-.7q.2-.4.75-.55h.5zm1 3.05q0-.8.55-.65t.55.8q0 .55-.5.55-.6 0-.6-.7m1.7-.15-.15-.2v-.35q.6 0 .6.35l-.05.2zm1.2-.85-.35.15q-.45 0-.45-.45 0-.35.6-.35.35 0 .35.35z"/><path fill="#2c0900" fill-opacity=".239" d="m11.2 6.15-.05.15-.2.55-.15.3-1.1-1.7Q8.2 3.75 6.05 3.9t-3.5 1.4Q1.15 6.5 1.1 7.1l-.15.15-.15-.9q0-1.3 1.2-2.8Q3.65 1.6 6.35 1.6q2.4 0 3.8 1.4 1.1 1.1 1.1 2.4z"/><path fill="#5d2900" fill-opacity=".302" d="M8.85.55 6 .35l-1.5.2Q1.9 1.1.55 3l-.4.5Q.9.9 3.65.35l.5-.1h.05L6.35 0 8.2.15z"/><path fill="#200900" d="M11.9 2.3q-.1.05-.05.35l-.15 1.6-.95 3V6.9l-.1-1.3q-.25-.95-1.1-2.05T7.1 2.35q-1.65-.1-2.75.35-1.15.4-2.1 1.8-1 1.35-1.3 2.4L.9 7l-.1-.35Q.45 5.75 0 5.4l.6-1.05.9-1.3 1.4-1.2q.85-.45 2.2-.75l.4-.05h1.35q1.2.1 2.1.55l1.3.55.9.2zm-8.55 8.15-.7.35-.05-.2.3-.3-.85-.6.2-.1 1.4.45 2.4.4 2.3-.55q.75-.55.9-.55t.15.1v.05l-.65.6.45.4-.2.1-.15-.05-.5-.1-.1-.05H8.2l-.6.3.1.2-.1.3-.1.05-.5-.4-.9.15-1.25-.15-.45.4-.1-.3.05-.2-.5-.15z"/></g></defs></svg>