<svg xmlns="http://www.w3.org/2000/svg" xmlns:ffdec="https://www.free-decompiler.com/flash" xmlns:xlink="http://www.w3.org/1999/xlink" ffdec:objectType="frame" width="79.8" height="34.15"><use ffdec:characterId="1" xlink:href="#a" width="79.8" height="34.15"/><defs><radialGradient id="b" cx="0" cy="0" r="819.2" gradientTransform="translate(4.85 9.15)scale(.0083)" gradientUnits="userSpaceOnUse" spreadMethod="pad"><stop offset="0" stop-color="#eea246"/><stop offset="1" stop-color="#f0dc5c"/></radialGradient><radialGradient id="c" cx="0" cy="0" r="819.2" gradientTransform="translate(4.85 9.15)scale(.0083)" gradientUnits="userSpaceOnUse" spreadMethod="pad"><stop offset="0" stop-color="#9f6c2e"/><stop offset="1" stop-color="#bda92e"/></radialGradient><radialGradient id="d" cx="0" cy="0" r="819.2" gradientTransform="matrix(.33 0 0 .33 3.35 5.9)" gradientUnits="userSpaceOnUse" spreadMethod="pad"><stop offset="0" stop-color="#eed3b3"/><stop offset="1" stop-color="#f0e395"/><stop offset="1" stop-color="#f0e6a7"/></radialGradient><radialGradient id="e" cx="0" cy="0" r="819.2" gradientTransform="matrix(-.33 0 0 .33 41.7 5.9)" gradientUnits="userSpaceOnUse" spreadMethod="pad"><stop offset="0" stop-color="#eed3b3"/><stop offset="1" stop-color="#f0e395"/><stop offset="1" stop-color="#f0e6a7"/></radialGradient><radialGradient id="f" cx="0" cy="0" r="819.2" gradientTransform="matrix(-.0083 0 0 .0083 40.2 9.15)" gradientUnits="userSpaceOnUse" spreadMethod="pad"><stop offset="0" stop-color="#eea246"/><stop offset="1" stop-color="#f0dc5c"/></radialGradient><radialGradient id="g" cx="0" cy="0" r="819.2" gradientTransform="matrix(-.0083 0 0 .0083 40.2 9.15)" gradientUnits="userSpaceOnUse" spreadMethod="pad"><stop offset="0" stop-color="#9f6c2e"/><stop offset="1" stop-color="#bda92e"/></radialGradient><linearGradient id="h" x1="-819.2" x2="819.2" gradientTransform="matrix(.0068 -.0024 .001 .0028 50.55 -1.8)" gradientUnits="userSpaceOnUse" spreadMethod="pad"><stop offset="0" stop-color="#9d5076"/><stop offset=".537" stop-color="#6c509d"/><stop offset="1" stop-color="#50859d"/></linearGradient><linearGradient id="i" x1="-819.2" x2="819.2" gradientTransform="matrix(-.0068 -.0024 -.001 .0028 -5.4 -1.8)" gradientUnits="userSpaceOnUse" spreadMethod="pad"><stop offset="0" stop-color="#9d5076"/><stop offset=".537" stop-color="#6c509d"/><stop offset="1" stop-color="#50859d"/></linearGradient><linearGradient id="j" x1="-819.2" x2="819.2" gradientTransform="matrix(.0041 -.0025 .0036 .0058 46.7 6.35)" gradientUnits="userSpaceOnUse" spreadMethod="pad"><stop offset="0" stop-color="#cd689a"/><stop offset=".502" stop-color="#9d74e5"/><stop offset="1" stop-color="#73c0e2"/></linearGradient><linearGradient id="k" x1="-819.2" x2="819.2" gradientTransform="matrix(-.0041 -.0025 -.0036 .0058 -1.55 6.35)" gradientUnits="userSpaceOnUse" spreadMethod="pad"><stop offset="0" stop-color="#cd689a"/><stop offset=".502" stop-color="#9d74e5"/><stop offset="1" stop-color="#73c0e2"/></linearGradient><g id="a" fill-rule="evenodd"><path fill="url(#b)" d="M11.1 9.5v.05q0 .5-1 1.3-.95.75-1.65.95l-4.7.85-4.35-.55-.85-.5-.1-.45Q-1.85 10-.8 8l.15-.2.05-.1 1-1.5h.05q1.7-1.75 3.5-1.1 1.05.35 2.7 1.95 1.05 1.1 2.6 1.5 1.1.25 1.55.65zM1.15 5.7l.25.25.5-.2q.45-.25.95-.25.45 0 1.05.35l.7.3.25-.2-.6-.5q-.6-.35-.9-.35l-1.45.1q-.75.3-.75.5M2.8 7.45l.2-.2h.45l.6.65.05.05V8l.95-.35q.85.1 2.1.7L6 7.3 3.75 5.95Q1.7 5.45.45 7.3q-.6.95-.8 2-.5 1.65.4 2.2l.8.2H.9l.15.05 3.3-.05h-.1l.5-.05.9-.15-1.55-.25q-.8-.4-.9-1.15-.75.4-1.3.4l-.35-.05v-.05q0-.25.15-.4l.35-.1.7-.15q.1-.1.15-.1v-.1l.15-.05v-.45Q2 8.85 1.7 8.5l.1-.2.2-.1-.1.2.2.2.25-.2-.2-.25q.2 0 .35.15l.8.35.35-.35-.6-.65zm1.5.6q-.5.3-.5.75-.05.25.2.25l.8-.85q0-.45-.5-.15m.25.85-.1.1h.1l2.2.45.25.05.75.15-.25-.1h.9l.7-.2h-.05q-.6.1-1.75-.5-1.25-.65-1.75-.65-1 0-1 .7m-.6 1.05V10l.05.1q.35.85 2.4.85l1.5-.15-.3-.1q.75-.1.95-.4l-4.5-.85H3.9v.35zm-5.2.3-.15.45q.05 1 .8 1 .3 0 .3-.25t-.25-.25q-.4 0-.4-.7-.1-.45-.3-.25M9.9 9.05q-.5-.2-.5.2l.3.25.25.2-.25.55-.8.6-.95.35-.8.45.25.25q1.1 0 2.15-.9.9-.75.9-1.3 0-.45-.55-.65M4.2 11.2l.3-.25-.5-.6q-.55-.45-.55.15l.2.35z" transform="translate(17.45 15.2)"/><path fill="url(#c)" d="M11.1 9.5q.5.6.1 1.35h-.05l-.05.2-.35.4q-1.2 1.25-4.3 1.6l-6 .15h.1q-1.65-.45-2-1.6l.85.5 4.35.55 4.7-.85q.7-.2 1.65-.95 1-.8 1-1.3zM2.8 7.45l.25.2.6.65-.35.35-.1-.15-.25-.3-.25-.3v-.35zM1.7 8.5q.3.35 1.35.55v.45l-.15.05Q2 9.25 1.8 9l-.15-.35zm-.15 1.95.35.05q.55 0 1.3-.4.1.75.9 1.15l1.55.25-.9.15-.5.05q-.9-.3-1.2-.95l-1 .15-.35-.15zm-.7 1.25-.8-.2q-.9-.55-.4-2.2.2-1.05.8-2 1.25-1.85 3.3-1.35L6 7.3l1.15 1.05q-1.25-.6-2.1-.7Q4.1 6.8 3.5 6.6v-.05q-1-.25-1.95.65v.05l-.8 1.2-.1.1q-.85 1.45-.7 2.4.1.55.9.75m3.7-2.8q0-.7 1-.7.5 0 1.75.65 1.15.6 1.75.5h.05l-.7.2h-.9l-.15-.1q-1.55-.75-2.2-.8-.35 0-.6.25m-.6 1.05L3.9 9.8v-.35h.15l4.5.85q-.2.3-.95.4l-.8-.15z" transform="translate(17.45 15.2)"/><path fill="url(#d)" d="M1.15 5.7q0-.2.75-.5l1.45-.1q.3 0 .9.35l.6.5-.25.2-.7-.3q-.6-.35-1.05-.35-.5 0-.95.25l-.5.2zm1 2.45.2.25-.25.2-.2-.2.1-.2.1-.05zm2.15-.1q.5-.3.5.15l-.8.85q-.25 0-.2-.25 0-.45.5-.75m-.1 3.15-.55-.35-.2-.35q0-.6.55-.15l.5.6zm5.7-2.15q.55.2.55.65 0 .55-.9 1.3-1.05.9-2.15.9l-.25-.25.8-.45.95-.35.8-.6.25-.55-.25-.2-.3-.25q0-.4.5-.2m-11.15 1.2q.2-.2.3.25 0 .7.4.7.25 0 .25.25t-.3.25q-.75 0-.8-1z" transform="translate(17.45 15.2)"/><path fill="url(#e)" d="m41.7 5.1 1.45.1q.75.3.75.5l-.25.25-.5-.2-.95-.25q-.45 0-1.05.35l-.7.3-.25-.2q0-.2.6-.5.6-.35.9-.35m1.2 3.05h.05l.1.05.1.2-.2.2-.25-.2zm-1.65.65-.2.25-.8-.85q0-.45.5-.15t.5.75m-.2 1.55q.55-.45.55.15l-.2.35-.55.35q-.3 0-.3-.25zm-5.7-.85-.25.2.25.55.8.6.95.35.8.45-.25.25q-1.1 0-2.15-.9-.9-.75-.9-1.3 0-.45.55-.65.5-.2.5.2zm10.65 1q.1-.45.3-.25l.15.45q-.05 1-.8 1l-.3-.25q0-.25.25-.25.4 0 .4-.7" transform="translate(17.45 15.2)"/><path fill="url(#f)" d="M41.7 5.1q-.3 0-.9.35-.6.3-.6.5l.25.2.7-.3q.6-.35 1.05-.35l.95.25.5.2.25-.25q0-.2-.75-.5zm-7.75 4.4.3-.3q.45-.4 1.55-.65 1.55-.4 2.6-1.5 1.65-1.6 2.7-1.95 1.8-.65 3.5 1.1h.05l1 1.5.05.1.15.2q1.05 2 .75 3.15l-.1.45-.85.5q-1.3.55-4.35.55l-4.7-.85-1.65-.95q-1-.8-1-1.3zM40 7.65l.95.35v-.05L41 7.9l.6-.65h.45l.2.2-.25.2-.6.65.35.35.8-.35q.15-.15.35-.15l-.2.25.25.2.2-.2-.1-.2.2.1.1.2q-.3.35-1.35.55v.45l.15.05v.1l.15.1.7.15.35.1.15.4v.05l-.35.05q-.55 0-1.3-.4-.1.75-.9 1.15l-1.55.25.9.15.5.05h-.1l3.3.05.15-.05h.05l.8-.2q.9-.55.4-2.2-.2-1.05-.8-2-1.25-1.85-3.3-1.35-1.25.5-2.25 1.35L37.9 8.35q1.25-.6 2.1-.7m1.25 1.15q0-.45-.5-.75t-.5.15l.8.85zm-3.7.75-.25.1.75-.15.25-.05L40.5 9h.1l-.1-.1q0-.7-1-.7-.5 0-1.75.65l-1.75.5h-.05l.7.2h.9m3.5.8-.5.6q0 .25.3.25l.55-.35.2-.35q0-.6-.55-.15m.05-.4.05-.15v-.35H41l-4.5.85q.2.3.95.4l-.3.1 1.5.15q2.05 0 2.4-.85l.05-.1zm4.9.55q0 .7-.4.7-.25 0-.25.25l.3.25q.75 0 .8-1l-.15-.45q-.2-.2-.3.25m-10.65-1 .3-.25q0-.4-.5-.2-.55.2-.55.65 0 .55.9 1.3 1.05.9 2.15.9l.25-.25-.8-.45-.95-.35-.8-.6-.25-.55z" transform="translate(17.45 15.2)"/><path fill="url(#g)" d="M46.5 11.6q-.35 1.15-2 1.6h.1l-6-.15q-3.1-.35-4.3-1.6l-.35-.4-.05-.2h-.05q-.4-.75.1-1.35v.05q0 .5 1 1.3l1.65.95 4.7.85q3.05 0 4.35-.55zm-2.3.1q.8-.2.9-.75.15-.95-.7-2.4l-.1-.1-.8-1.2V7.2q-.95-.9-1.95-.65v.05q-.6.2-1.55 1.05-.85.1-2.1.7l1.15-1.05q1-.85 2.25-1.35 2.05-.5 3.3 1.35.6.95.8 2 .5 1.65-.4 2.2zm-1.95-4.25.1.1v.35l-.25.3-.25.3-.1.15-.35-.35.6-.65zm1.1 1.05.05.15-.15.35q-.2.25-1.1.55L42 9.5v-.45q1.05-.2 1.35-.55m.15 1.95-.15.3-.35.15-1-.15q-.3.65-1.2.95l-.5-.05-.9-.15 1.55-.25q.8-.4.9-1.15.75.4 1.3.4zm-3-1.55-.6-.25q-.65.05-2.2.8l-.15.1h-.9l-.7-.2H36l1.75-.5Q39 8.2 39.5 8.2q1 0 1 .7m-3.05 1.8q-.75-.1-.95-.4l4.5-.85h.15v.35l-.05.15-2.85.6z" transform="translate(17.45 15.2)"/><path fill="#120113" d="m68.65.85-1.15.35-.7.75q-.05.25.4.55l.5.5v.9h-.2l-.2.05-1 .75q-.6.75-.65 1.4l-.2 1-.5 1.25-.45 1.35q-.1.65.1 1 .05.15.2.1l.95-1.35q1-2.15 1.5-2.35.75-.45 1-1.9l-.05-.35-.1-.65v-.1l.6-.35q.35 0 .45-.35L69 2.9l-.35-.45q-.1-.25.45-1.15l.05-.35zm1.2 1.05-.3 1.5q-.45 2.25-.15 3.35l1.7 3.9q.9 2.4 0 3.05-3.5 2.8-4.2 3.5l.45.05 1.7-.55 3.65.1q.8.85.9 1.55l.3 1.05q.2.4 0 1.3-.15.9.05 1.4.25.5-.05 1.1t-.1 1.05q.2.5-.15 1.25-.3.7-.2 1.05.1.4-.4.95l-.7.8-.55.55-1.35.05-1.85-.45q-1.05-.4-2.3-1.4-1.45-1.15-2.65-3.15-.8-1.45-1.3-2.95-.4-1.2-.55-2.7V16.2l.3-3.7q.65-4.75 2.25-7.65 1.7-3.1 3.05-4.25l2.1-.05zM66.4 4.1q-.3 0-.6.4l-.65 1.05q-.5.85-.65 1.5l-.4.95-.45.95q-.35.75-.15 1.05.2.25.6-.3l.55-1.15.45-1.25.15-.85.2-.45.15-.45.8-1.2q.35-.6 0-.25m.8 3.45q-.55.35-.3.85.3.6 1.05.45l.5-.35-.05-.55-.5-.5zm-.75 1.25-.3.65q-.7.55-.5 1l.35.4.65.1.65-.25.65-.55.35-.35.6-1.1q.15-.5-.1-.9l-.15-1.15.05-1.25q-.05-.4-.25 0l-.45.9-.05.55.35.5.25.6v.8q-.15.4-.55.45l-.7-.1-.5-.35zm.7 5.3-.25.2q-.25.35.15 1.05.45.6.8.5.55-.5.5-1.15l-.05-.45.1-.3.25-.05.2.15q.3.25.95-.35l.15-.25-.25-1.5-.5-1.15q-.45-.25-.65.4-.2.45-.15 1.3l-.25.95q-.3.35-1 .65M65.3 11l-.4.05-.5 1.15-.4 1.3-.05.05-.25.85q-.1.65.15.45l.6-.05.15.1.1-.25-.05-.05.45-.5.4-.85.1-1.05zm-2.6.3q-.3 1.15-.5 3.2.1-.25.5-.2.35.05.45-.2l.05-.55-.4-.55q-.15-.2 0-.35l.4-.4.3-.75-.1-.9-.45.15zm8.2.65-.3-.2-.05-.85-.1-.85-.35-.65-.3-.15-.35.55q-.1.35.35.55l.65.8.05 1.1-.05 1.05q.05.45.4.2l.4-.7-.05-.7zM73.5 19l-.25-.85-.2-.5-.75-.5q-.35-.2-.1.25l.4.7.4.65.3.9q.2.35.05.8l.05.25.25-.4.05-.6zm-2.3-1.55-1.35.15-1.2.2-.85.2q-.35.15-.2.25l.25.4.55.15.7-.15.4-.3.7-.55.8-.2q.8.05.8.6l-.05.5.1.15.45-.25.1-.25-.4-.55q-.35-.35-.8-.35m-1.45 2.3-.35-.55q-1.35.05-1.45.4l-.25.25-.5.15-.55-.15-.45-.3-.5.1-.35.1.1.15.15.25.15.4.05.15.6-.2.9-.15 1.9-.1.5-.15zm.55.05-.15.75-.35.75q-.1.3.1.55l.55.15q.5-.15.75-.7l.05-.3-.3.15q-.5.35-.5-.1l.55-.6q.4-.1.3-.55v-1.3q0-.7-.5-.4l-.55.3q-.25.25-.15.6zm-5.2-.3q.05.15.2.1l.25-.1.4-.15.15-.2-.05-.4.1-.2-.15-.05-.55.15-.45.15-.2.05zm-1-1.65q-.05-.2-.3 0l-.65.65q-.4.45-.5.85-.1.45-.05 1.1.1.55.55 1.4l.9 1.45.85.65q.3-.05.25-.6 0-.4-.3-.25l-.5.1-.75-1q-.5-.9-.35-1.15.15-.3.5-.25.4.05.65.4l.4.05v-1.1q-.05-.6-.6-.6-.5.05-.65.5-.1.35-.4.1-.25-.2-.2-.7.1-.35.5-.45l.65-.05q.55 0 0-1.1m-.4-1.65q-.25-.3-.45.2l-.35.95-.35.05-.1-.6.1-.45q.05-.25.3-.15l.2-.3-.3-.85q-.25-.4-.45.45-.2.6-.25 1.45-.15 1.05.15 2l.2.45.05-.15q-.1-.7 1-1.65l.45-.75zm2.75.75q.55-.4.5-.9l-.25-.7q-.15-.2-.55 0l-.75.3h-.15q-.4.05-.55.6-.2.6.2 1.05l.25.25-.05.25q-.15.35 1.1-.65zm6.3 9.05-.35-.3-1.35-.95-.05.4-.15.55.95.75.5.35.45-.3zm-2-3.4-.05.05q-.2.35.1 1.15l.1.25 1.6.95.45.1.35-.25.05-.75-.2-.65-.4-.25zm1.2-1.7.6-.15.5-.5-.15-.65q-.35-.3-1.3-.4-.1.8.15 1.1zm1.05.45-1.1-.25-.25.4-.6.75 2 .6.55-.05-.05-.7-.25-.6zm-3.45-.55-1-.05-3.1.25-.3.95v.15q0 .5.3.95l.15.8-.35.6q-.85.5-2.45-2.55l-.2-.3 1.1 2.3q1.3 2.1 2.65 3 1.1.75 2.2.9h1.35l1.1-.3q.65-.4-.5-1.3l-.1-.1q-.35.2-.85 0l-.45-.5.05-.35-1.1-.65-1.85-1.05q1.2.15 2.75 1l.6.35.05-.1q.35-.2.3-.65v-.05l-1.5-.75q-2.1-1.05-3.25-1.25 1.35.1 3.45.95l1.1.45-.1-.2-.1-.05.35.05-.45-.45-.6-.45-.2-.15-.2-.1-1.65-.15 1.8-.15q.6-.2 1-1.05m-2.25-2.3-.1.35-.15.45q-.2.05-.3-.25l-.25-.25q-.3.1.05.6t.85.25q.4-.25.25-.8zm4.9 9.1q.35-.2.1-.25-.45-.05-1.35.6l-.85.2q-.45.1-.1.2l1 .1q.55 0 .65-.3z"/><path fill="url(#h)" d="m51.2-14.35.5.1-.05.35q-.55.9-.45 1.15l.35.45.15.5q-.1.35-.45.35l-.6.35v.1l.1.65.05.35q-.25 1.45-1 1.9-.5.2-1.5 2.35l-.95 1.35q-.15.05-.2-.1-.2-.35-.1-1l.45-1.35.5-1.25.2-1q.05-.65.65-1.4l1-.75.2-.05h.2v-.9l-.5-.5q-.45-.3-.4-.55l.7-.75zm-2.25 3.25q.35-.35 0 .25l-.8 1.2-.15.45-.2.45-.15.85-.45 1.25-.55 1.15q-.4.55-.6.3-.2-.3.15-1.05l.45-.95.4-.95q.15-.65.65-1.5l.65-1.05q.3-.4.6-.4M49-6.4l.35-.05.5.35.7.1q.4-.05.55-.45v-.8l-.25-.6-.35-.5.05-.55.45-.9q.2-.4.25 0l-.05 1.25.15 1.15q.25.4.1.9l-.6 1.1-.35.35-.65.55-.65.25-.65-.1-.35-.4q-.2-.45.5-1zm.75-1.25.7-.1.5.5.05.55-.5.35q-.75.15-1.05-.45-.25-.5.3-.85m-4.5 3.75.25-.55.45-.15.1.9-.3.75-.4.4q-.15.15 0 .35l.4.55-.05.55q-.1.25-.45.2-.4-.05-.5.2.2-2.05.5-3.2m2.6-.3.3 1.2-.1 1.05-.4.85-.45.5.05.05-.1.25L47-.4l-.6.05q-.25.2-.15-.45l.25-.85.05-.05.4-1.3.5-1.15zm1.85 3.1q.7-.3 1-.65l.25-.95q-.05-.85.15-1.3.2-.65.65-.4l.5 1.15.25 1.5-.15.25q-.65.6-.95.35l-.2-.15-.25.05-.1.3.05.45q.05.65-.5 1.15-.35.1-.8-.5-.4-.7-.15-1.05zm3.75-2.15.3.15.05.7-.4.7q-.35.25-.4-.2l.05-1.05-.05-1.1-.65-.8q-.45-.2-.35-.55l.35-.55.3.15.35.65.1.85.05.85zm2.6 7.05.2.7-.05.6-.25.4-.05-.25q.15-.45-.05-.8l-.3-.9-.4-.65-.4-.7q-.25-.45.1-.25l.75.5.2.5zm-2.3-1.55q.45 0 .8.35l.4.55-.1.25-.45.25-.1-.15.05-.5q0-.55-.8-.6l-.8.2-.7.55-.4.3-.7.15-.55-.15-.25-.4q-.15-.1.2-.25l.85-.2 1.2-.2zm-1.45 2.3-.05.35-.5.15-1.9.1-.9.15-.6.2-.05-.15-.15-.4L48 4.7l-.1-.15.35-.1.5-.1.45.3.55.15.5-.15.25-.25q.1-.35 1.45-.4zm.55.05-.2-.7q-.1-.35.15-.6l.55-.3q.5-.3.5.4v1.3q.1.45-.3.55l-.55.6q0 .45.5.1l.3-.15-.05.3q-.25.55-.75.7l-.55-.15q-.2-.25-.1-.55l.35-.75zm-.75 1q-.4.85-1 1.05l-1.8.15 1.65.15.2.1.2.15.6.45.45.45-.35-.05.1.05.1.2-1.1-.45Q49.05 7 47.7 6.9q1.15.2 3.25 1.25l1.5.75v.05q.05.45-.3.65l-.05.1-.6-.35q-1.55-.85-2.75-1L50.6 9.4l1.1.65-.05.35.45.5q.5.2.85 0l.1.1q1.15.9.5 1.3l-1.1.3H51.1q-1.1-.15-2.2-.9-1.35-.9-2.65-3l-1.1-2.3.2.3q1.6 3.05 2.45 2.55l.35-.6-.15-.8q-.3-.45-.3-.95v-.15l.3-.95 3.1-.25zm3.45.55.3.15.25.6.05.7-.55.05-2-.6.6-.75.25-.4zM54.5 5.7l-.2-.6q-.25-.3-.15-1.1.95.1 1.3.4l.15.65-.5.5zm-1.2 1.7 2 .6.4.25.2.65-.05.75-.35.25-.45-.1-1.6-.95-.1-.25q-.3-.8-.1-1.15zm2 3.4v.5l-.45.3-.5-.35-.95-.75.15-.55.05-.4 1.35.95zM49 1.75l-.25.2q-1.25 1-1.1.65l.05-.25-.25-.25q-.4-.45-.2-1.05.15-.55.55-.6h.15l.75-.3q.4-.2.55 0l.25.7q.05.5-.5.9M46.25 1l.2.65-.45.75q-1.1.95-1 1.65l-.05.15-.2-.45q-.3-.95-.15-2 .05-.85.25-1.45.2-.85.45-.45l.3.85-.2.3q-.25-.1-.3.15l-.1.45.1.6.35-.05.35-.95q.2-.5.45-.2m.4 1.65q.55 1.1 0 1.1L46 3.8q-.4.1-.5.45-.05.5.2.7.3.25.4-.1.15-.45.65-.5.55 0 .6.6v1.1l-.4-.05q-.25-.35-.65-.4-.35-.05-.5.25-.15.25.35 1.15l.75 1 .5-.1q.3-.15.3.25.05.55-.25.6l-.85-.65-.9-1.45q-.45-.85-.55-1.4-.05-.65.05-1.1.1-.4.5-.85l.65-.65q.25-.2.3 0m1 1.65-.3-.65.2-.05.45-.15.55-.15.15.05-.1.2.05.4-.15.2-.4.15-.25.1q-.15.05-.2-.1m7.1 8.1-.55.55q-.1.3-.65.3l-1-.1q-.35-.1.1-.2l.85-.2q.9-.65 1.35-.6.25.05-.1.25m-4.9-9.1.35.35q.15.55-.25.8-.5.25-.85-.25t-.05-.6l.25.25q.1.3.3.25l.15-.45z" transform="translate(17.45 15.2)"/><path fill="#2a1254" fill-opacity=".8" d="M67.8 7.8q-1.1-.25-1.15-.5v-.15q.1-.25.7-.5l1.15-.35zm2.75 2.35.9-.2 2.7-.25-2.85 1.6-.1-.05zm8.25 5.75-1.65.2.6-.95v.15l.6.4zm-3.2 4.35q.65-.15 1.95 0t1.55.4l-.85-.05-1.25.35-.35.15-.85.05-.4-.65zm-1.9 8 2.9.75-1.2.4h-1.25q-.55-.25-.6-.75l.05-.25z"/><path fill="#a177e9" fill-opacity=".6" d="M66.65 7.25v.05q.05.25 1.15.5l2.75.4q3.7.35 3.7 1.45l-.1.05-2.7.25-.9.2q-.7.25-5.15 6.85-1.05 1.45-1.3 2.8l-.3.9-.05-.65h.05L64 19q1.35-7.95 2.65-11.75m-6.1-.2 1.85.3.25 4.1.9 6.85-1.3-3.35q-1.45-3.8-1.65-6.4zm15.7 4.25 1.75.55q1.7.9 1.8 2.35l-.65 1.55-.35.15-.45-.2-.6-.4v-.15l-.5.05-8.4 4.55-3.45 1.65 5.45-.1h3.55l.2.1v-.1l1.2-.15.2.1.65-.15.35-.15 1.25-.35.85.05.2.2.1 1.05q.15 1.55-.15 1.9-.6.85-1.05 2.25l-1-.65-.55-.55v-.05l-.05.05v-.05q-4.35-.4-8.35-1.65l-3.9-1.25 1.05-.5-1 .05 3.6-3.7q4.1-4.2 8.25-6.45m.65 5.85.15.1.55.95-.75.85-4.65.85q.8-.55 1.6-.95 2.25-1.45 3.1-1.8M76.6 29h.1l.05.6-1.5 1.3-1.75 1q-1.7.15-5.45-4.15-2.65-3.2-4-5.45l4 3.45q3.55 2.75 6.1 3.65h1.25zm.75-16q-.8.1-2.8 1.25-1.75 1.15-3.5 2.6h.15l6.7-3.65h-.1zm-4.6 9.2-1.05.2-1.9.2v.1l3.85.4 3.25-.6v-.1l-3.2-.3z"/><path fill="#6235af" fill-opacity=".8" d="m68.5 6.3-1.15.35q-.6.25-.7.5v.1Q65.35 11.05 64 19l-.45-.7-.9-6.85-.25-4.1.1-.5q.6-1.35 4.25-1.7h.95l.8.9.05.25zm-4.75 13.75.05.65.3-.9q.25-1.35 1.3-2.8 4.45-6.6 5.15-6.85l.65 1.1.1.05q.5.65 1.05.6l2.55-.65 1.35.05Q72.1 13.55 68 17.75l-3.6 3.7-.45.05-.15-.8-.15.55v-.1l-.65-1.1q-1.2-2.05-2.05-3.9-1.25-2.9-2.35-8l-.1-1.1 1.7-.15.35.15.05 1.5q.2 2.6 1.65 6.4l1.3 3.35zm13.4-3.95q-.5.4-.5.7l.25.35q-.85.35-3.1 1.8-.8.4-1.6.95l4.65-.85-.4.4-.85.8-.2.25.4.65-1.2.15h-3.75l-5.45.1 3.45-1.65 8.4-4.55.5-.05zm-.55 8.75h-.05q.4.7-.45 1.7l-1.35.9h-.3v.05h-.25l-.15.05-.3.55-.05.15-.1.15-.05.25q.05.5.6.75-2.55-.9-6.1-3.65l-4-3.45-.1-.2v-.2l.15-.1.25.1 3.9 1.25q4 1.25 8.35 1.65zm-3.85-2.65.95-.1 3.2.3v.1l-3.25.6-3.85-.4v-.1l1.9-.2z"/><path fill="#a177e9" fill-opacity=".8" d="m77.35 13 .45.2h.1l-6.7 3.65h-.15q1.75-1.45 3.5-2.6 2-1.15 2.8-1.25"/><path fill="#77d3e9" fill-opacity=".6" d="m63.4 12.45-.2 2.85.1 4.85-.65-2.4q-.7-2.7-.65-4.6l.05-1.05zm.2 8.25q1.55-5.45 2.7-7.95v.05q.05.15.8.4l1.9.45q2.5.55 2.45 1.35H68.8q-.45.15-4.05 4.4-.9.95-1.2 1.85l-.2.6v-.5l.05.05zm9.1-4.5 1.2.55q1.15.8 1.15 1.8l-.65 1-.25.1-.25-.15-.4-.4-.05-.1h-.3l-6.25 2.6-2.5.85-.75-.05q1.35-1.1 2.8-2.25 3.2-2.6 6.25-3.95m0 4.2.15.05.3.7-.55.5-3.3.25 1.1-.5zm1.35 2.5.05.2.1.75q-.05 1.1-.3 1.3l-.95 1.45-.6-.45-.4-.5h-.05q-2.95-.6-5.7-1.75l-2.55-1.2.75-.25 3.75.35 2.5.3.05.05h.1v-.05h.9l.1.05.4-.05.3-.05.95-.15zm-2.5 5.65.15.05-.05.4-1.1.8-1.3.55q-1.15 0-3.5-3.3L63.4 23l2.5 2.65q2.3 2.2 4 3.05l.9.1zm2.2-10.8h-.1l-.3-.25q-.5 0-2.1.7-1.25.7-2.5 1.55h.1q.5-.25 4.9-2m-1.4 6.3L72.3 24l-2.15-.4-.7-.05-.8.1h-1.3v.05l2.65.55z"/><path fill="#3597af" fill-opacity=".8" d="M62.05 12.1 62 13.15q-.05 1.9.65 4.6l.65 2.4-.1-4.85.2-2.85.05-.3q.5-.95 3.1-.9l.7.05q.05.3.45.7l-.05.15-.8.2q-.45.1-.5.3l-.05.1q-1.15 2.5-2.7 7.95l-.3-.55.05 1.7-.15.35v-.05l-.35-.85-1.2-2.8q-.6-2.15-1-5.75v-.85l1.15.05zm7.25 3.75.65.55 1.85-.3.9.1q-3.05 1.35-6.25 3.95-1.45 1.15-2.8 2.25h-.3v-.55l.2-.6q.3-.9 1.2-1.85 3.6-4.25 4.05-4.4l.4.8zm3.75 3.85-.45.4.1.3-2.3 1-1.1.5 3.3-.25-.4.25-.6.55-.15.15.25.5h-.9l-.1.05-.05-.05-2.5-.3-3.75-.35 2.5-.85 6.25-2.6h.3zm-1.15 5.95q.25.6-.4 1.2l-1.05.55h-.1l-.1-.05H70l-.3.4-.05.1-.05.05-.1.2.4.6q-1.7-.85-4-3.05L63.4 23l-.05-.2v-.15h.1l.2.05 2.55 1.2q2.75 1.15 5.7 1.75m1.85-7.9q-4.4 1.75-4.9 2h-.1q1.25-.85 2.5-1.55 1.6-.7 2.1-.7l.3.25zm-1.4 6.3-2.35.2-2.65-.55v-.05h1.3l.8-.1.7.05 2.15.4z"/><path fill="#124754" fill-opacity=".8" d="m66.3 12.75.05-.1q.05-.2.5-.3l.8-.2-.55 1.05q-.75-.25-.8-.4zM71.4 15l-2.1.85-.1-.05-.4-.8h2.6m2.75 4.65-1.1.05.4-.7.05.1.4.4zm-2.55 2.8 1.35.15 1.1.3h-.6l-.95.15-.3.05h-.5l-.25-.5zm-1.95 5.4 1.9.7-.75.25-.9-.1-.4-.6.1-.2z"/><path fill="#2f0430" d="M61.2 7.5q.55 2.4 1.2 3.55l3 4q1.75 2.4 1.3 3.15-1.85 3.05-2.15 3.8-.05.25.35 0l1.25-.65q2.1-.9 3.1 0 1 .85 1.45 1.6l.65 1.1.6 1.35q.15.95.55 1.45.4.55.4 1.15 0 .65.3 1.15l.4 1.2q.05.8.25 1.15.3.45.05 1l-.25.9-.25.6-1.1.1-1.7-.4-2.55-1.4q-1.7-1.2-3.5-3.25L62.25 26l-1.55-2.75-.1-.15-.45-1.05-.3-1.1q-.7-1.7-1.25-3.7-1.4-5.05-1.2-8.05.15-3.3.8-4.6l1.8-.05q.8.85 1.2 2.95"/><path fill="#120113" d="m10.2 1.9.35-1.35 2.1.05Q14 1.75 15.7 4.85q1.6 2.9 2.25 7.65l.3 3.7v2.05l-.55 2.7q-.5 1.5-1.3 2.95-1.2 2-2.65 3.15-1.25 1-2.3 1.4l-1.85.45-1.35-.05-.55-.55-.7-.8q-.5-.55-.4-.95.1-.35-.2-1.05-.35-.75-.15-1.25.2-.45-.1-1.05t-.05-1.1q.2-.5.05-1.4-.2-.9 0-1.3l.3-1.05q.1-.7.9-1.55l3.65-.1 1.7.55.45-.05-4.2-3.5q-.9-.65 0-3.05l1.7-3.9q.3-1.1-.15-3.35zM11.4.85l-.5.1.05.35q.55.9.45 1.15t-.35.45l-.15.5.45.35.6.35v.1l-.1.65-.05.35q.25 1.45 1 1.9.5.2 1.5 2.35l.95 1.35q.15.05.2-.1.2-.35.1-1l-.45-1.35-.5-1.25-.2-1q-.05-.65-.65-1.4l-1-.75-.2-.05h-.2V3l.5-.5q.45-.3.4-.55l-.7-.75zm2.85 3.65q-.3-.4-.6-.4-.35-.35 0 .25l.8 1.2.15.45.2.45.15.85.45 1.25.55 1.15q.4.55.6.3.2-.3-.15-1.05L15.95 8l-.4-.95q-.15-.65-.65-1.5zM10.6 9.8l-.35-.55q-.15-.15-.3.15l-.35.65-.1.85-.05.85-.3.2-.3.15-.05.7.4.7q.35.25.4-.2l-.05-1.05.05-1.1.65-.8q.45-.2.35-.55m3-1-.35-.05-.5.35-.7.1q-.4-.05-.55-.45v-.8l.25-.6.35-.5-.05-.55-.45-.9q-.2-.4-.25 0l.05 1.25-.15 1.15q-.25.4-.1.9l.6 1.1.35.35.65.55.65.25.65-.1.35-.4q.2-.45-.5-1zm-.45-.4q.25-.5-.3-.85l-.7-.1-.5.5-.05.55.5.35q.75.15 1.05-.45m-2.8 3.55-.25 1.5.15.25q.65.6.95.35l.2-.15.25.05.1.3-.05.45q-.05.65.5 1.15.35.1.8-.5.4-.7.15-1.05l-.25-.2-1-.65-.25-.95q.05-.85-.15-1.3-.2-.65-.65-.4zm6.2-.45.3.75.4.4q.15.15 0 .35l-.4.55.05.55q.1.25.45.2.4-.05.5.2l-.5-3.2-.25-.55-.45-.15zm-2 1.75.4.85.45.5-.05.05.1.25.15-.1.6.05q.25.2.15-.45l-.25-.85-.05-.05-.4-1.3-.5-1.15-.4-.05-.3 1.2zm2.65 2.95q.25-.1.3.15l.1.45-.1.6-.35-.05-.35-.95q-.2-.5-.45-.2l-.2.65.45.75q1.1.95 1 1.65l.05.15.2-.45.15-2-.25-1.45q-.2-.85-.45-.45l-.3.85q0 .3.2.3m-1.85.05q-.15-.55-.55-.6h-.15l-.75-.3q-.4-.2-.55 0l-.25.7q-.05.5.5.9l.25.2 1.1.65-.05-.25.25-.25q.4-.45.2-1.05m.6 1.6q-.55 1.1 0 1.1l.65.05.5.45q.05.5-.2.7-.3.25-.4-.1-.15-.45-.65-.5-.55 0-.6.6v1.1l.4-.05q.25-.35.65-.4.35-.05.5.25.15.25-.35 1.15l-.75 1-.5-.1q-.3-.15-.3.25-.05.55.25.6l.85-.65.9-1.45.55-1.4-.05-1.1q-.1-.4-.5-.85l-.65-.65q-.25-.2-.3 0m-1.95.9-.05.4.15.2.4.15.25.1q.15.05.2-.1l.3-.65-.2-.05-.45-.15-.55-.15-.15.05zm.35.9-.5-.1-.45.3-.55.15-.5-.15-.25-.25q-.1-.35-1.45-.4l-.35.55.05.35.5.15 1.9.1.9.15.6.2.05-.15.15-.4.15-.25.1-.15zM12.25 18l-.85-.2-1.2-.2-1.35-.15q-.45 0-.8.35l-.4.55.1.25.45.25.1-.15-.05-.5q0-.55.8-.6l.8.2.7.55q.2.25.4.3l.7.15.55-.15.25-.4q.15-.1-.2-.25m1.05 1.05-.3.25-.15-.45-.1-.35-.35.35q-.15.55.25.8.5.25.85-.25t.05-.6zm-5.55-1.9-.75.5-.2.5-.25.85-.2.7.05.6.25.4q.1 0 .05-.25-.15-.45.05-.8l.3-.9.4-.65.4-.7q.25-.45-.1-.25m.35 3.75.2-.6q.25-.3.15-1.1-.95.1-1.3.4-.3.3-.15.65l.5.5zm.95-.45q.5.2.55.6 0 .45-.5.1L8.8 21l.05.3.75.7q.4.1.55-.15.2-.25.1-.55l-.35-.75-.15-.75.2-.7q.1-.35-.15-.6l-.55-.3q-.5-.3-.5.4v1.3q-.1.45.3.55m1.45.35q.4.85 1 1.05l1.8.15-1.65.15-.2.1-.2.15-.6.45-.45.45.35-.05-.1.05-.1.2 1.1-.45q2.1-.85 3.45-.95v-.15l-.3-.95-3.1-.25zm-.35 3.35q-.05.45.3.65l.05.1.6-.35q1.55-.85 2.75-1L12 24.6l-1.1.65.05.35-.45.5q-.5.2-.85 0l-.1.1q-1.15.9-.5 1.3l1.1.3h1.35q1.1-.15 2.2-.9 1.35-.9 2.65-3l1.1-2.3-.2.3q-1.6 3.05-2.45 2.55l-.35-.6.15-.8q.3-.45.3-.95-1.15.2-3.25 1.25-.75.3-1.5.75zM9.3 22.6l-2 .6-.4.25-.2.65q-.2.5.05.75l.35.25.45-.1 1.6-.95.1-.25q.3-.8.1-1.15zm-.9-1.1-.25-.4-1.1.25-.3.15-.25.6-.05.7.55.05 2-.6zm-.75 4.2-.35.3v.5l.45.3.5-.35.95-.75-.15-.55-.05-.4zm2.4 2.65q.35-.1-.1-.2l-.85-.2q-.9-.65-1.35-.6-.25.05.1.25l.55.55q.1.3.65.3z"/><path fill="url(#i)" d="m-6.05-14.35 1.15.35.7.75q.05.25-.4.55l-.5.5v.9h.2l.2.05 1 .75q.6.75.65 1.4l.2 1 .5 1.25.45 1.35q.1.65-.1 1-.05.15-.2.1l-.95-1.35q-1-2.15-1.5-2.35-.75-.45-1-1.9l.05-.35.1-.65v-.1l-.6-.35-.45-.35.15-.5q.25-.2.35-.45t-.45-1.15l-.05-.35zm2.85 3.65.65 1.05q.5.85.65 1.5l.4.95.45.95q.35.75.15 1.05-.2.25-.6-.3l-.55-1.15-.45-1.25-.15-.85-.2-.45-.15-.45-.8-1.2q-.35-.6 0-.25.3 0 .6.4m-1.1 3.9q-.3.6-1.05.45l-.5-.35.05-.55.5-.5.7.1q.55.35.3.85m.45.4.3.65q.7.55.5 1l-.35.4-.65.1-.65-.25-.65-.55-.35-.35-.6-1.1q-.15-.5.1-.9l.15-1.15-.05-1.25q.05-.4.25 0l.45.9.05.55-.35.5-.25.6v.8q.15.4.55.45l.7-.1.5-.35zm-3 1q.1.35-.35.55l-.65.8-.05 1.1.05 1.05q-.05.45-.4.2l-.4-.7.05-.7.3-.15.3-.2.05-.85.1-.85.35-.65q.15-.3.3-.15zm3.75 9.85.35.1-.1.15-.15.25-.15.4-.05.15-.6-.2-.9-.15-1.9-.1-.5-.15-.05-.35.35-.55q1.35.05 1.45.4l.25.25.5.15.55-.15.45-.3zm-.35-.9-.1-.2.15-.05.55.15.45.15.2.05-.3.65q-.05.15-.2.1l-.25-.1-.4-.15-.15-.2zm1.95-.9q.05-.2.3 0l.65.65q.4.45.5.85L0 5.25l-.55 1.4-.9 1.45-.85.65q-.3-.05-.25-.6 0-.4.3-.25l.5.1.75-1q.5-.9.35-1.15-.15-.3-.5-.25-.4.05-.65.4l-.4.05v-1.1q.05-.6.6-.6.5.05.65.5.1.35.4.1.25-.2.2-.7l-.5-.45-.65-.05q-.55 0 0-1.1m-.6-1.6q.2.6-.2 1.05l-.25.25.05.25-1.1-.65-.25-.2q-.55-.4-.5-.9l.25-.7q.15-.2.55 0l.75.3h.15q.4.05.55.6M-.25 1q-.2 0-.2-.3l.3-.85Q.1-.55.3.3l.25 1.45-.15 2-.2.45-.05-.15q.1-.7-1-1.65l-.45-.75.2-.65q.25-.3.45.2l.35.95.35.05.1-.6-.1-.45Q0 .9-.25 1M-2.9-1.95-3-3l.3-1.2.4.05.5 1.15.4 1.3.05.05.25.85q.1.65-.15.45l-.6-.05-.15.1-.1-.25.05-.05-.45-.5zm2-1.75.1-.9.45.15.25.55.5 3.2Q.3-.95-.1-.9q-.35.05-.45-.2l-.05-.55.4-.55q.15-.2 0-.35l-.4-.4zm-6.2.45.5-1.15q.45-.25.65.4.2.45.15 1.3l.25.95 1 .65.25.2q.25.35-.15 1.05-.45.6-.8.5-.55-.5-.5-1.15l.05-.45-.1-.3-.25-.05-.2.15q-.3.25-.95-.35l-.15-.25zm2.95 7.1.25-.25q.3.1-.05.6t-.85.25q-.4-.25-.25-.8l.35-.35.1.35.15.45zM-5.2 2.8q.35.15.2.25l-.25.4-.55.15-.7-.15q-.2-.05-.4-.3l-.7-.55-.8-.2q-.8.05-.8.6l.05.5-.1.15-.45-.25-.1-.25.4-.55q.35-.35.8-.35l1.35.15 1.2.2zm-4.15 2.9-.6-.15-.5-.5q-.15-.35.15-.65.35-.3 1.3-.4.1.8-.15 1.1zm-.35-3.75q.35-.2.1.25l-.4.7-.4.65-.3.9q-.2.35-.05.8.05.25-.05.25l-.25-.4-.05-.6.2-.7.25-.85.2-.5zm1.3 3.3q-.4-.1-.3-.55V3.4q0-.7.5-.4l.55.3q.25.25.15.6l-.2.7.15.75.35.75q.1.3-.1.55-.15.25-.55.15l-.75-.7-.05-.3.3.15q.5.35.5-.1-.05-.4-.55-.6m-1.4 5.25 1.35-.95.05.4.15.55-.95.75-.5.35-.45-.3v-.5zm.75-4.2.6.75-2 .6-.55-.05.05-.7.25-.6.3-.15 1.1-.25zm.9 1.1.05.05q.2.35-.1 1.15l-.1.25-1.6.95-.45.1-.35-.25q-.25-.25-.05-.75l.2-.65.4-.25zm.85 1.55V8.9q.75-.45 1.5-.75Q-3.7 7.1-2.55 6.9q0 .5-.3.95l-.15.8.35.6q.85.5 2.45-2.55l.2-.3-1.1 2.3q-1.3 2.1-2.65 3-1.1.75-2.2.9H-7.3l-1.1-.3q-.65-.4.5-1.3l.1-.1q.35.2.85 0l.45-.5-.05-.35 1.1-.65 1.85-1.05q-1.2.15-2.75 1l-.6.35-.05-.1q-.35-.2-.3-.65m.35-3.35 1-.05 3.1.25.3.95v.15Q-3.9 7-6 7.85l-1.1.45.1-.2.1-.05-.35.05.45-.45.6-.45.2-.15.2-.1 1.65-.15-1.8-.15q-.6-.2-1-1.05m-.45 7.55-1 .1q-.55 0-.65-.3l-.55-.55q-.35-.2-.1-.25.45-.05 1.35.6l.85.2q.45.1.1.2" transform="translate(17.45 15.2)"/><path fill="#6235af" fill-opacity=".8" d="m16.25 18.3 1.3-3.35q1.45-3.8 1.65-6.4l.05-1.5.35-.15 1.7.15-.1 1.1q-1.1 5.1-2.35 8l-2.05 3.9-.65 1.1v.1L16 20.7l.05-.65zl-.45.7q-1.35-7.95-2.65-11.75v-.1l-.7-.5-1.15-.35h-.05l.05-.25.8-.9h.95q3.65.35 4.25 1.7l.1.5-.25 4.1zm-14.2-3.15.5.05 8.4 4.55 3.45 1.65-5.45-.1H5.2L4 21.15q.35-.25.4-.65l-.2-.25-.85-.8-.4-.4 4.65.85-1.6-.95q-2.25-1.45-3.1-1.8l.25-.35q0-.3-.5-.7zm13.35 6.3-3.6-3.7q-4.1-4.2-8.25-6.45l1.35-.05 2.55.65q.55.05 1.05-.6l.1-.05.65-1.1q.7.25 5.15 6.85 1.05 1.45 1.3 2.8l.3.9-.15.8zM10 22.6v.1l-3.85.4-3.25-.6v-.1l3.2-.3.95.1 1.05.2zm5.45-.7.25-.1.15.1v.2l-.1.2-4 3.45Q8.2 28.5 5.65 29.4q.55-.25.6-.75l-.05-.25-.1-.15-.05-.15-.3-.55-.15-.05h-.25v-.05h-.3q-.55-.05-1.35-.9-.85-1-.45-1.7H3.2v-.05q4.35-.4 8.35-1.65z"/><path fill="#a177e9" fill-opacity=".6" d="m19.25 7.05-.05 1.5q-.2 2.6-1.65 6.4l-1.3 3.35.9-6.85.25-4.1zm-3.2 13-.05.65-.3-.9q-.25-1.35-1.3-2.8-4.45-6.6-5.15-6.85l-.9-.2-2.7-.25-.1-.05q0-1.1 3.7-1.45L12 7.8q1.1-.25 1.15-.5v-.05q1.3 3.8 2.65 11.75l.2 1.05zM1 15.9l-.35-.15q-.7-1.2-.65-1.55.1-1.45 1.8-2.35l1.75-.55q4.15 2.25 8.25 6.45l3.6 3.7-1-.05-3.45-1.65-8.4-4.55-.5-.05v.15l-.6.4zm1-2.7h-.1l6.7 3.65h.15Q7 15.4 5.25 14.25q-2-1.15-2.8-1.25zm8 9.4-1.9-.2-1.05-.2-.95-.1-3.2.3v.1l3.25.6 3.85-.4zm4.4-1.2 1.05.5-3.9 1.25q-4 1.25-8.35 1.65v.05l-.05-.05v.05l-.55.55-1 .65q-.45-1.4-1.05-2.25-.3-.35-.15-1.9l.1-1.05.2-.2.85-.05q.7.05 1.25.35l.35.15.65.15.2-.1 1.2.15v.1l.25-.1h3.5zm1.35.9q-1.35 2.25-4 5.45Q8 32.05 6.3 31.9q-.45-.05-1.75-1l-1.5-1.3.05-.6h.1l1.2.4h1.25q2.55-.9 6.1-3.65zm-12.8-3.25-.75-.85.55-.95.15-.1q.85.35 3.1 1.8l1.6.95z"/><path fill="#a177e9" fill-opacity=".8" d="m2 13.2.45-.2q.8.1 2.8 1.25 1.75 1.15 3.5 2.6H8.6L1.9 13.2z"/><path fill="#2a1254" fill-opacity=".8" d="m1 15.9.45-.2.6-.4v-.15l.6.95zm7.5-4.6L5.65 9.7l2.7.25.9.2-.65 1.1zM12 7.8l-.7-1.5 1.15.35.7.5v.15q-.05.25-1.15.5M3.2 29l2.9-.75.1.15.05.25q-.05.5-.6.75H4.4zM.7 20.65q.25-.25 1.55-.4t1.95 0l.2.25q-.05.4-.4.65l-.85-.05-.35-.15q-.55-.3-1.25-.35z"/><path fill="#3597af" fill-opacity=".8" d="m16.5 20.15.65-2.4q.7-2.7.65-4.6l-.05-1.05.25-.15 1.15-.05v.85q-.4 3.6-1 5.75l-1.2 2.8-.35.85v.05l-.15-.35zl-.3.55q-1.55-5.45-2.7-7.95l-.05-.1-.5-.3-.8-.2-.05-.15.45-.7.7-.05q2.6-.05 3.1.9l.05.3.2 2.85zM11 15q.45.15 4.05 4.4.9.95 1.2 1.85l.2.6v.55h-.3l-2.8-2.25q-3.2-2.6-6.25-3.95l.9-.1 1.85.3q.35-.05.65-.55l.1-.05zm-.65 8.55.8.1h1.3v.05l-2.65.55-2.35-.2.05-.05 2.15-.4zm-1.8-5.35 2.5 1.55h-.1q-.5-.25-4.9-2h.1q.15-.25.3-.25.5 0 2.1.7m-.35 4.25-.6-.55-.4-.25 3.3.25-1.1-.5q-1.7-.85-2.3-1l.1-.3-.45-.4-.4-.7h.3l6.25 2.6 2.5.85-3.75.35-2.5.3-.05.05-.1-.05h-.9l.25-.5zm-.3 3.2q2.95-.6 5.7-1.75l2.55-1.2.2-.05h.1v.15l-.05.2-2.5 2.65q-2.3 2.2-4 3.05.35-.3.4-.6l-.1-.2-.05-.05-.05-.1-.3-.4h-.25l-.1.05h-.1l-1.05-.55q-.65-.6-.4-1.2"/><path fill="#77d3e9" fill-opacity=".6" d="m17.75 12.1.05 1.05q.05 1.9-.65 4.6l-.65 2.4.1-4.85-.2-2.85zm-1.55 8.6.2.7.05-.05v.5l-.2-.6q-.3-.9-1.2-1.85-3.6-4.25-4.05-4.4H8.35q-.05-.8 2.45-1.35 1.2-.15 1.9-.45.75-.25.8-.4v-.05q1.15 2.5 2.7 7.95m-9.1-4.5q3.05 1.35 6.25 3.95l2.8 2.25-.75.05.75.25-2.55 1.2q-2.75 1.15-5.7 1.75h-.05l-.4.5-.6.45q-.45-.9-.95-1.45-.25-.2-.3-1.3l.1-.75.05-.2h.6l.95.15.3.05.4.05.1-.05H9v.05h.1l.05-.05 2.5-.3 3.75-.35-2.5-.85L6.65 19h-.3l-.05.1-.4.4-.25.15-.25-.1-.65-1q0-1 1.15-1.8zm1.45 2q-1.6-.7-2.1-.7-.15 0-.3.25h-.1q4.4 1.75 4.9 2h.1zm1.8 5.35-.7.05-2.15.4-.05.05 2.35.2 2.65-.55v-.05h-1.3zm-3.15-1.9-.55-.5.3-.7.15-.05q.6.15 2.3 1l1.1.5zM16.4 23l-2.35 4.05q-2.35 3.3-3.5 3.3-.3 0-1.3-.55l-1.1-.8-.05-.4.15-.05.75.25.9-.1q1.7-.85 4-3.05z"/><path fill="#124754" fill-opacity=".8" d="m11 15-.4.8-.1.05L8.4 15H11m1.15-2.85.8.2.5.3.05.1v.05q-.05.15-.8.4zm-5.4 7.55-1.1-.05.25-.15.4-.4.05-.1zm1.45 2.75.15.15-.25.5h-.5l-.3-.05-.95-.15h-.6l1.1-.3zm.05 6.1 1.9-.7.05.05.1.2q-.05.3-.4.6l-.9.1z"/><path fill="url(#j)" d="M41.9-10.35q.65-.1.6.5-.1.95.05 1.15l.5.5.3.5q.1.35-.2.4-.4.05-.45.45l.1.85.05 1.05q-.05.65-.45.05-.4-.65-.15-.9.25-.2.15-1.05l-.4-1.2-.65-.5-.55-.6q-.1-.4.3-.75zM42.05-7l-.6.85q-.2.7.1 1.4l.25 2.35.3 1.7.05.85q.35 2.8 1.15 4.95l-.25-.4q-.4-.85-.65-.75t-.05 1.1l.75 2.65-.4-.85-.3-1.1-1.1-3.55q-1.1-4.7-.85-7.75 0-1.4.3-2 .2-.55.65-.35.4.2.6.8zm2.8 3.3.8 1.3-.2 1.5-.2 1.2-.15.05-.7.45q-.3.2-.2.75l.25 1.1-.05.8q-.25.35 0 1.05l.25.4-.05 1.05-.5-1.05q-.35-.55-.45-.05l-.05.45-.65-2.95-.2-2.2.15-1.35q.05-2.3.35-2.55.45-.5 0-2l-.05-.3.15-.55q.2-.4.7 1l.3.95zm1.45 2.1q.1-.2.35.15l.55.7.45.85.35.85.3.2q.15-.05.3.2l.4.7-.1.7q-.15.35-.4-.15l-.35-1.1L47.6.35l-.8-.8-.6-.55zm7.55 10.75.2.65-.1.35-.1-.2-.35-.85-.6-.9-.6-.7q-1.25-1.2-.65-.95l.8.5.45.6.5.8zm-2.1-.8q-.25-.95-.8-1.1-.6-.2-.95.45-.25.45-.05.75l-1.35.15-.3-.4-.5-.35-.45.25q-.45.2 0 .85l.05.05-.45.35.6-.25.75.45q.55 0 .5-.45l-.1-.25h.1l1.25-.2.2.15q.5.35.6 1.3H49.3q-1.25.1-1.85.55L46.6 9.4q-.95-.95-.9-1.45.05-.6-.4-1.05l-.65-.85.1-1.1.45.1.55-.2-.3-.85q-.25-.5.25-1 .5-.55.3-1.05l-.35-1.4V.5l.1-.35.4-.6q.35-.15.9.65l1.1 2.05q.35.85.1 1.45l-1.3 2.55-1.15 2q-.15.35 1.95-.55 2.4-1.05 3-1 1.05.2 1.55 1 .4.7-.5.75zm-.95-.7q.3-.25.55.4l.6 1.45q.2.45-.05.6-.35.1-.25.55.15.5.45.15l.2-.15.05.25q0 .6-.35.75l-.5-.15-.3-.55-.05-.8-.15-.8-.4-.75q-.25-.3-.15-.6zm1.65 2.2-.6-1.15q1.6.15 1.65 1.05l-.2.55q-.15.2-.45.2zm.45 1.3v-.5l1.05.25.35.2.45.55.3.75-.5.1-1.9-.6zm-.35 1.15 1.95.55.35.25.5.65.25.85-.2.25-.45-.1-1.65-.9-.25-.3-.5-1.2zM42.7 4.65l.6.85q.2.35-.05.35-.2-.05-.15.15l.1.55.35.6q.25.3.25-.15l-.15-.95q.1-.5.3-.25l.45.65q.15.5-.05.85-.55.95-.2 1.75.4.8-.3-.25l-.95-2.05-.4-1.6q-.15-.9.2-.5m2.3 2.9q.9 1.1.5 1.15l-.65.05q-.2.1-.15.5.15.5.45.7.3.25.25-.15 0-.45.4-.5.4 0 .75.6l.4 1.15q0 .4-.3.05-.4-.4-.7-.45-.35-.1-.4.2-.05.35.75 1.2l1.1 1 .4-.1.35.3q.3.6 0 .6l-.95-.65-1.35-1.45-1.05-1.45-.4-1.15q-.1-.45.1-.9l.2-.7q.1-.2.3 0m3.05.95-.1-.4q.1-.15.45.4t.1.8q-.3.25-.8-.2-.5-.5-.3-.65l.3.25.35.2zm-2.8 2.95.3.4q2.55 3.05 3.15 2.6v-.75l-.45-.8q-.45-.45-.6-.9 1.05.1 3.15 1.1l1.8.9-.1.6-.05.1-.7-.35q-1.55-.75-2.7-.9l2.05 1 1.2.65.1.3.55.6.7-.05.15.1q1.35.9 1 1.3-.2.25-.9.35l-1.15.1q-.95-.15-2.15-.85-1.45-.95-3.4-3.05zm2.3.35q-.15-.4-.15-1l2.6-.35.85.05q-.1.85-.5 1.1l-1.4.2 1.65.1.1.05q.85.4 1.3.85l.5.65-1.65-.65q-2.05-.85-3.25-.85zm8.2 5.4q.2 0 .05.25l-.25.6-.4.35-.9-.1q-.35-.1 0-.25l.65-.2.3-.4q.35-.3.55-.25m-2.1-2.65 1.55.9q.6.4.55.75 0 .45-.2.4l-.55-.35-1.15-.75-.05-.55zm-.85-.9.45 1q.3.7.05.9l-.5-.05q-.15-.3.05-.65l-.1-1.05-.05-.35z" transform="translate(17.45 15.2)"/><path fill="#2f0430" d="M17.65 11.05q.65-1.15 1.2-3.55.4-2.1 1.2-2.95l1.8.05q.65 1.3.8 4.6.2 3-1.2 8.05l-1.25 3.7-.3 1.1-.45 1.05-.1.15L17.8 26l-2.3 3.05Q13.7 31.1 12 32.3q-1.45.95-2.55 1.4l-1.7.4-1.1-.1-.25-.6q.05-.15-.25-.9-.25-.55.05-1 .2-.35.25-1.15l.4-1.2q.3-.5.3-1.15 0-.6.4-1.15.4-.5.55-1.45l.6-1.35.65-1.1 1.45-1.6q1-.9 3.1 0l1.25.65q.4.25.35 0-.3-.75-2.15-3.8-.45-.75 1.3-3.15z"/><path fill="url(#k)" d="m3.25-10.35.8.45q.4.35.3.75l-.55.6-.65.5-.4 1.2q-.1.85.15 1.05.25.25-.15.9-.4.6-.45-.05L2.35-6l.1-.85L2-7.3q-.3-.05-.2-.4l.3-.5.5-.5.05-1.15q-.05-.6.6-.5M.15 7.55q.2-.2.3 0l.2.7.1.9-.4 1.15-1.05 1.45-1.35 1.45-.95.65q-.3 0 0-.6.2-.45.35-.3.2.25.4.1l1.1-1q.8-.85.75-1.2-.05-.3-.4-.2l-.7.45q-.3.35-.3-.05l.4-1.15.75-.6q.4.05.4.5-.05.4.25.15l.45-.7-.15-.5-.65-.05q-.4-.05.5-1.15M2.05 6l-.15-.15q-.25 0-.05-.35l.6-.85q.35-.4.2.5l-.4 1.6L1.3 8.8q-.7 1.05-.3.25.35-.8-.2-1.75-.2-.35-.05-.85l.45-.65q.2-.25.3.25L1.35 7q0 .45.25.15l.35-.6zM.4 4.95l.1 1.1-.65.85q-.45.45-.4 1.05.05.5-.9 1.45l-.85 1.25q-.6-.45-1.85-.55H-5.7q.1-.95.6-1.3l.2-.15 1.25.2h.1l-.1.25q-.05.45.5.45l.75-.45.6.25-.45-.35.05-.05q.45-.65 0-.85l-.45-.25-.5.35-.3.4-1.35-.15q.2-.3-.05-.75-.35-.65-.95-.45-.55.15-.8 1.1l-.05.1q-.9-.05-.5-.75.5-.8 1.55-1 .6-.05 3 1 2.1.9 1.95.55l-1.15-2-1.3-2.55q-.25-.6.1-1.45L-1.9.2q.55-.8.9-.65l.4.6.1.35v.05l-.35 1.4q-.2.5.3 1.05.5.5.25 1l-.3.85.55.2zm1.55-11-.05.3q-.45 1.5 0 2 .3.25.35 2.55 0 1.15.15 1.35l-.2 2.2-.65 2.95-.05-.45q-.1-.5-.45.05l-.5 1.05L.5 4.9l.25-.4q.25-.7 0-1.05-.15-.3-.05-.8l.25-1.1Q1.05 1 .75.8L.05.35-.1.3-.3-.9l-.2-1.5.8-1.3.5-.95.3-.95q.5-1.4.7-1zm1.2-1.05q.2-.6.6-.8.45-.2.65.35l.3 2q.25 3.05-.85 7.75l-1.1 3.55-.3 1.1-.4.85.75-2.65q.2-1-.05-1.1t-.65.75l-.25.4Q2.65 2.95 3 .15l.05-.85.3-1.7.25-2.35q.3-.7.1-1.4L3.1-7zm-4.8 6.65-.8.8L-3 1.5l-.35 1.1q-.25.5-.4.15l-.1-.7.4-.7q.15-.25.3-.2l.3-.2.35-.85.45-.85.55-.7q.25-.35.35-.15l.1.6zm-5.65 7.5.8-.5q.6-.25-.65.95l-.6.7-.6.9-.35.85-.1.2-.1-.35.2-.65.45-.7.5-.8zm1.85 1.55-.4.75-.15.8-.05.8-.3.55-.5.15q-.35-.15-.35-.75l.05-.25.2.15q.3.35.45-.15.1-.45-.25-.55-.25-.15-.05-.6l.6-1.45q.25-.65.55-.4l.35.35q.1.3-.15.6m-.1 3.35.1-.05 1.65-.1-1.4-.2q-.4-.25-.5-1.1l.85-.05 2.6.35q0 .6-.15 1l-.05.15q-1.2 0-3.25.85l-1.65.65.5-.65zm-1.85.35v.05q.05.35-.5 1.2l-.25.3-1.65.9-.45.1-.2-.25.25-.85.5-.65.35-.25zm-.75-2-.2-.55q.05-.9 1.65-1.05l-.6 1.15-.4.65q-.3 0-.45-.2m.4.35v.5l.25.75-1.9.6-.5-.1.3-.75.45-.55.35-.2zM-2.8 8.1l-.1.4v.4q.1.15.35-.2l.3-.25q.2.15-.3.65-.5.45-.8.2-.25-.25.1-.8zm2.7 3.35-1.95 2.45Q-4 16-5.45 16.95q-1.2.7-2.15.85l-1.15-.1q-.7-.1-.9-.35-.35-.4 1-1.3l.15-.1.7.05.55-.6.1-.3 1.2-.65 2.05-1q-1.15.15-2.7.9l-.7.35-.05-.1-.1-.6 1.8-.9q2.1-1 3.15-1.1l-.6.9-.45.8v.75q.6.45 3.15-2.6zm-10.55 6q-.15-.25.05-.25.2-.05.55.25l.3.4.65.2q.35.15 0 .25l-.9.1-.4-.35zm3.05-3.65-.1 1.05q.2.35.05.65l-.5.05q-.25-.2.05-.9l.45-1 .1-.2zm-2.8 2.8q-.2.05-.2-.4-.05-.35.55-.75l1.55-.9-.15.4-.05.55q-.55.3-1.15.75z" transform="translate(17.45 15.2)"/></g></defs></svg>