<svg xmlns="http://www.w3.org/2000/svg" xmlns:ffdec="https://www.free-decompiler.com/flash" xmlns:xlink="http://www.w3.org/1999/xlink" ffdec:objectType="frame" width="44" height="32.15"><g transform="translate(-1.6 15.8)"><use ffdec:characterId="1" xlink:href="#a" width="30.25" height="16.4" transform="translate(8.75 -.05)"/><use ffdec:characterId="3" xlink:href="#b" width="44" height="31.6" transform="translate(1.6 -15.8)"/><use ffdec:characterId="4" xlink:href="#c" width="42.7" height="25.55" transform="translate(2.9 -14.25)"/></g><defs><radialGradient id="e" cx="0" cy="0" r="819.2" gradientTransform="matrix(.0028 0 0 .0024 6.55 3.55)" gradientUnits="userSpaceOnUse" spreadMethod="pad"><stop offset="0" stop-color="#ff0b1e" stop-opacity=".439"/><stop offset=".404" stop-color="#f2794d" stop-opacity=".302"/><stop offset=".729" stop-color="#e95895" stop-opacity="0"/></radialGradient><radialGradient id="f" cx="0" cy="0" r="819.2" gradientTransform="matrix(.0031 0 0 .0024 22.6 2.85)" gradientUnits="userSpaceOnUse" spreadMethod="pad"><stop offset="0" stop-color="#ff0b1e" stop-opacity=".439"/><stop offset=".404" stop-color="#f2794d" stop-opacity=".298"/><stop offset=".729" stop-color="#e95895" stop-opacity="0"/></radialGradient><path id="a" fill-opacity=".298" fill-rule="evenodd" d="M38.85 2.95q-.35 2.55-3.75 2.5l-5.45-.6-.6 1q-.6.9-2.55 2.2-.4 2.9-1.95 5.35T20.9 16t-2.15-.55q-.1-.75.7-.75 1.25.05 2.25-.55l1.95-1.8q.7-1 1.25-3.5.25-1.55.1-3.55-.05-.65.5-1 .55-.4 1 .5l.05.65.2-.3 1-1q-.3-.25-.3-.45 0-.75.95-.75l.35.05.35-.85q.5-.9 1.05-.7.5.2.5.8l-.35 1.1.2.05 3.3.45q4.35 0 4.35-2.55l-.2-.7q0-.9.65-.55.6.3.25 2.9M21.4 8.25q.15.8-3 1l-4.2.2q.35 1.45.25 4T12.3 16.3q-2.05.25-2.95-.6l-.6-.85q0-.8.75-.8l.9.5q.65.5 1.05.5 1.05 0 1.45-1.15l.15-1.15-.65-2.9-.65-2q0-.5.35-.75.45-.3 1.15.55l.05.05.25-.05.9.2 2.3.2 3.5-.45q1-.2 1.15.65" transform="translate(-8.75 .05)"/><path id="d" fill="#71548a" fill-rule="evenodd" d="M96 11.7q-.8 2.5-5.5 4.05-.05 2.8-3.05 3.3-2.65.45-8.4-1.05l-1.4 2.05L76 21.5q-.1 2.7-1.85 5.7-2 3.3-4.15 3.3-2.6 0-1.5-3.8l1.6-3.85L64 23v.05l-1-.15q1.25 4.9.65 6.5-.45 1.1-2.25 1.1-2.6 0-3.65-3.6-.85-2.85-.45-5.6-1.55-.95-2.7-2.6l-.1-.05q-2.2-3.35-.15-9.05-.65-1-1.2-2.7-1.2-3.4-.95-6.8l3.5 1.05q3.8 1.3 5.15 2.4l3.85-.5q3.55-.35 6.15.5l2.55-2.2Q76.3-.9 78.15-1.1l.9 2.7q.75 3.2.2 5.7l5 .55q3.4.95 4.8 3.8l2.1-.35q1.75-.7-.15-2.2-2-1.6-.55-2.6 1.5-1.05 3.35.4 2.95 2.35 2.2 4.8" transform="translate(-52.15 1.1)"/><use ffdec:characterId="2" xlink:href="#d" id="b" width="44" height="31.6"/><g id="c" fill-rule="evenodd"><path fill="#fff" d="m21.85 21.35-3.75.9-4.65.4-3.05-.15.05.05-1.05-.15-3-.55-1.85-.6-.75-.4v.05l-.1-.1Q1.95 19.7 1 18.15l5 .3q2.7-.65 4.85-3.75l.95.95q1.75 1.55 3.65 2.35 6.05 2.45 11.2-4.1-.25 2.05-1.05 3.55l-1.65 2.3-1.7 1.3-.25.2.1-.05z"/><path fill="#54376c" fill-opacity=".973" d="M10.7 2.65h.15l.2-.05-1.6 2-1.4 2.75-.2-.05-.15-1.15.2-1.2q.25-1 1.15-2l.3-.1zm3.4-.2q-.55.1.05.05l-.95.65q-.6.55-1.35 1.9l-1.25 2.4-.7 1.35-.05-.05q-.25-.2-.1-1.35.15-1.2.65-2.45.65-1.45 1.7-2.45zm2 .25h.1l-.15.05h.2L15 4.05l-2.25 3.4v-.4l.15-1.4.3-1.15q.55-1.2 1.4-2l1 .1z"/><path d="M19.05 14.15q0 .75-.65 1.35-.55.55-1.35.55t-1.35-.55q-.6-.6-.6-1.35 0-.9.6-1.45.55-.6 1.35-.6t1.35.6q.65.55.65 1.45m-13.5-1.9q.8 0 1.35.6.65.55.65 1.45 0 .75-.65 1.35-.55.55-1.35.55t-1.35-.55q-.6-.6-.6-1.35 0-.9.6-1.45.55-.6 1.35-.6"/><path fill="#cd6903" d="m12.9 19.3.75-.15.05-.1.1-.4v-.05q0-.35.35-.25l.05.1.05.2q0 1.05-1.85 1.05l-.9-.35-.25-.25-.05.05h-.15l-.3.25-.05.1q-.1 0-.25.15l-.75.1-1-.35-.25-.2v-.4l.25-.15.1.15.15.2v.05l.15.15.5.1q1 0 1.65-1.4l.3.7q.55.7 1.35.7"/><path fill="#22053a" fill-opacity=".408" d="M2 7.35q-.05.15-.6-.8L.6 4.9Q.3 4.1.15 3.2L0 1.6l1.7.3 1.2.4 2.5 1.4q-.15.95-1.05 2L2.75 7q-.7.2-.75.35M24.2 1.6l.3 1.75-.15 1.9-.25 1.05-.8-.05q-.75-.1-2.05-.7Q20 4.85 19.5 4l1.8-2.2.95-.85 1.5-.95zm12.65 12.35-.05-.15 2.15-1q2.45-.9 2.45-2.5 0-1.05-1.15-2.45l-.8-.85-.3-.45-.05-.25q0-.2.3-.2 1.05 0 2.2 1.5 1.1 1.45 1.1 2.55l-.45 1.9-.2.35-1.15 1.05-.9.65-.45.2-1.05.55-.35.1-1 .45zm-10.15-2.1-.2-1.95-.75-2.7q1.3 1.55 1.9 3.1l1.2 3.05q.4 1 1.5 2.45 1.05 1.4 3.5 1.45l2.8-.25-.1.2h-.05l-.05.2-.1.1-.4.4-.6.3-1.2.35-1 .2-2.7-.2-2.65-.4-.6-.2-.4-.1-.5-.1-.55-.05q-.25-.05.2-1l.5-1.4.15-.9v-.15l.05-.35zm16-3.6-.05-.1.05.05zm-20.9 13.1.2-.1.05-.05h.2v.4l-.2 1.25-.45 1.45-.2-.15q-.95-.75-2.4-.75-1.75 0-2.6.6l-.3.2.05-.25.65-1.45h.05l3.35-.65zM8.7 23.9l-1.9-.3q-1.1.05-1.75 1.1l-.6.85-.25-.9L4 22.7q-.05-1.35.15-1.75l1.45.65 3.85.85.45 2.3q-.4-.5-1.2-.85m7.7-1.85V22h.05z"/><path fill="url(#e)" d="M6.55 2.3q.7 0 1.25.3.5.4.5.95t-.5.9q-.55.4-1.25.4-.75 0-1.25-.4-.55-.35-.55-.9t.55-.95q.5-.3 1.25-.3" transform="translate(-2.9 14.25)"/><path fill="url(#f)" d="M24 1.9q.55.4.55.95t-.55.9q-.6.4-1.4.4-.75 0-1.35-.4-.6-.35-.6-.9t.6-.95l1.35-.3z" transform="translate(-2.9 14.25)"/></g></defs></svg>