<?xml version="1.0" encoding="UTF-8" standalone="no"?>
<svg xmlns:ffdec="https://www.free-decompiler.com/flash" xmlns:xlink="http://www.w3.org/1999/xlink" ffdec:objectType="frame" height="19.75px" width="45.65px" xmlns="http://www.w3.org/2000/svg">
  <g transform="matrix(1.0, 0.0, 0.0, 1.0, -0.05, -0.2)">
    <use ffdec:characterId="1" height="19.75" transform="matrix(1.0, 0.0, 0.0, 1.0, 0.05, 0.2)" width="45.65" xlink:href="#shape0"/>
  </g>
  <defs>
    <g id="shape0" transform="matrix(1.0, 0.0, 0.0, 1.0, -0.05, -0.2)">
      <path d="M33.1 2.5 Q35.6 4.85 35.8 6.3 L35.85 7.4 35.7 7.2 35.3 7.1 34.85 6.7 34.25 6.55 33.15 5.85 27.75 4.5 27.55 4.55 27.3 4.5 22.3 4.15 Q18.5 4.0 15.7 4.75 L11.55 6.25 10.7 6.85 10.6 6.85 10.15 7.15 10.25 6.25 Q11.0 3.75 12.5 2.2 16.6 0.3 21.85 0.2 L22.0 0.2 Q28.45 0.35 33.1 2.5" fill="#914f00" fill-rule="evenodd" stroke="none"/>
      <path d="M33.1 2.5 L34.1 3.0 33.25 2.5 35.7 4.0 35.9 4.1 Q41.0 7.65 43.15 12.05 45.3 16.5 45.7 19.95 L43.7 16.5 41.35 13.6 Q39.6 11.7 37.65 10.1 L37.15 9.7 36.65 9.3 35.3 8.3 Q34.6 7.85 33.9 7.5 30.35 5.6 25.85 5.1 L22.0 4.9 Q16.0 4.7 10.35 8.15 8.2 9.4 6.15 11.2 3.5 13.5 1.6 16.35 0.75 17.55 0.05 18.9 L0.8 16.5 1.35 14.9 Q4.95 5.6 12.5 2.2 11.0 3.75 10.25 6.25 L10.15 7.15 10.6 6.85 10.7 6.85 11.55 6.25 15.7 4.75 Q18.5 4.0 22.3 4.15 L27.3 4.5 27.55 4.55 27.75 4.5 33.15 5.85 34.25 6.55 34.85 6.7 35.3 7.1 35.7 7.2 35.85 7.4 35.8 6.3 Q35.6 4.85 33.1 2.5" fill="#4f1d00" fill-rule="evenodd" stroke="none"/>
    </g>
  </defs>
</svg>
