<svg xmlns="http://www.w3.org/2000/svg" xmlns:ffdec="https://www.free-decompiler.com/flash" xmlns:xlink="http://www.w3.org/1999/xlink" ffdec:objectType="frame" width="50.5" height="48.25"><use ffdec:characterId="1" xlink:href="#a" width="50.5" height="48.25"/><defs><radialGradient id="b" cx="0" cy="0" r="819.2" gradientTransform="translate(16.2 26.4)scale(.0392)" gradientUnits="userSpaceOnUse" spreadMethod="pad"><stop offset=".388" stop-color="#ded2bb"/><stop offset="1" stop-color="#918181"/></radialGradient><radialGradient id="c" cx="0" cy="0" r="819.2" gradientTransform="matrix(.065 -.0156 .0042 .0174 -1.2 -26.8)" gradientUnits="userSpaceOnUse" spreadMethod="pad"><stop offset=".388" stop-color="#fce8c0"/><stop offset="1" stop-color="#c2b7b7"/></radialGradient><radialGradient id="d" cx="0" cy="0" r="819.2" gradientTransform="translate(21.2 5.3)scale(.0195)" gradientUnits="userSpaceOnUse" spreadMethod="pad"><stop offset=".22" stop-color="#ffebbb"/><stop offset=".533" stop-color="#a87800"/><stop offset=".718" stop-color="#d99b01"/></radialGradient><radialGradient id="e" cx="0" cy="0" r="819.2" gradientTransform="matrix(0 -.0195 .0195 0 .5 1.75)" gradientUnits="userSpaceOnUse" spreadMethod="pad"><stop offset=".22" stop-color="#ffebbb"/><stop offset=".533" stop-color="#a87800"/><stop offset=".718" stop-color="#d99b01"/></radialGradient><radialGradient id="f" cx="0" cy="0" r="819.2" gradientTransform="matrix(0 -.0195 .0195 0 28.5 -5.6)" gradientUnits="userSpaceOnUse" spreadMethod="pad"><stop offset=".314" stop-color="#ffebbb"/><stop offset=".588" stop-color="#a87800"/></radialGradient><g id="a" fill-rule="evenodd"><path fill-opacity=".298" d="M39.3 18.65q4 1.2 5.4 6.6 1.5 5.8-4.15 11.15t-13.7 7.65q-8.1 2.3-15.05.65-7-1.7-8.7-6.7-1.5-4.7 2.75-9.8l2.2 1.3q3.1 1.8 6.9 1.8 10.5 0 19.15-7.2 3.2-2.65 5.2-5.45"/><path fill="#706161" d="M24.7.4q4.55 1 5.75 3.95l.2.35q.45 1.35.1 2.85.05 3.45-2.65 6.3-1.1 1.1-2.6 2.05l.9-.1 5-.25 6.5 1.15q4.5.95 6 6.75T39.75 34.6t-13.7 7.65q-8.1 2.3-15.05.65-7-1.7-8.7-6.7-1.6-5 3.3-10.45 3.1-3.4 7.75-5.85l-3.65-.15q-3.85-.7-5.95-3.8-.75-.9-1.1-2l-.05-.1q-1-3.3 2.3-6.9 2.6-2.9 6.65-4.65Q8 3.95 5.75 6.45 2.7 9.85 3.7 12.9q1 3.1 5.45 3.95 4.55.95 9.9-.8 5.35-1.8 8.45-5.25 3.15-3.35 2.1-6.4-1-3.1-5.5-4L22.35.2z"/><path fill="url(#b)" d="m13.05-13.6 5-.25 3.75.5q7.3 1.4 8.95 6.4T27.3 3.4q-5 5.6-13.6 8.45-8.65 2.85-15.95 1.3-7.1-1.35-8.8-6.35-1.6-4.95 3.3-10.4 3.65-4.05 9.4-6.7l3.9-1.6.35-.05q3.65-1.3 7.15-1.65" transform="translate(12.7 28)"/><path fill="#dfd0bb" d="m30.4 27.6.05-.05 5.4 7.55q-4.45 3.7-8.95 5-4.55 1.3-8.05 1.5l-3.95.05-1.9-.15.05-.1-.8-.05-3.65-.55 4.25-9.9h.35l1.9.2 2 .2 5.4-.9 4-1.1 3.5-2.4z"/><path fill="url(#c)" d="m9.65-27.8 1.75.2q4.5.9 5.5 4 1.05 3.05-2.1 6.4-3.1 3.45-8.45 5.25-5.35 1.75-9.9.8Q-8-12-9-15.1q-1-3.05 2.05-6.45 2.25-2.5 5.8-4.15l2.45-.95.2-.05q2.25-.8 4.45-1.05z" transform="translate(12.7 28)"/><path fill="#706161" d="M7.95 23.75 9.1 25.2q3.45 2.1 7.55 1.9 4.05-.25 8.95-2.95t6.3-7.75l1.05 6.15-.05.2q0 2.1-2 4.3-2.55 2.9-7.25 4.45-4.6 1.5-8.45.75-2.4-.5-3.65-1.7-.8-.75-1.15-1.8z"/><path fill="#8a7a7a" d="M3.75 15.95q2.1 3.1 5.95 3.8 3.95.7 9.75-1.2 5.85-1.85 8.65-4.7 2.7-2.85 2.65-6.3l1.15 8.85q-1.4 5.05-6.3 7.75t-8.95 2.95q-4.1.2-7.55-1.9l-1.15-1.45z"/><path fill="#a69292" d="M11.55 2.3Q8 3.95 5.75 6.45 2.7 9.85 3.7 12.9q1 3.1 5.45 3.95 4.55.95 9.9-.8 5.35-1.8 8.45-5.25 3.15-3.35 2.1-6.4-1-3.1-5.5-4L22.35.2l2.35.2q4.55 1 5.75 3.95l.2.35q.45 1.35.1 2.85.05 3.45-2.65 6.3-2.8 2.85-8.65 4.7-5.8 1.9-9.75 1.2-3.85-.7-5.95-3.8-.75-.9-1.1-2l-.05-.1q-1-3.3 2.3-6.9 2.6-2.9 6.65-4.65"/><path fill="#74511f" d="m31.5 26.55.15-.2-.1.2z"/><path fill="#4a1f74" d="M23.1 15.1q2.15-.85 3.8-2.4l1.9-2.05 2.15 7.55q1.25 4.65 1.45 5l.3.4-.5 1.65-.55 1.1-.15.2-.15.2-2.85 3.05-.2-.65q-.1-.35.2-.35.9 0-5.4-13.7"/><path fill="#7342a3" d="m13.25 1.45 1.4-.3q7.55-1.5 8.8-.55 1.2.95 1.55 1 1.9 2.45 3.5 8.25l-.25-.05.35.4q.35.35-.85.9l-2.15 1-1.35.55q2.15-1.55-8.7-8.35-4.3-1.8-4.35-2.1l.2-.1.35-.15zm9 12.1q.35 0 .05.15l-1.05-1.55q.9.9 1 1.4"/><path fill="#62378c" d="M25 1.6q-.35-.05-1.55-1-1.25-.95-8.8.55l-1.4.3q6.3-2 10.45-1.2zm-13.8.6q.05.3 4.35 2.1 10.85 6.8 8.7 8.35l-.95.35-1.05.55q-.1-.5-1-1.4l-2.55-3q-3.2-3.4-5.75-4.9-2.2-1.3-3-1.2.2-.4 1.25-.85"/><path fill="#855dad" d="m24.25 12.65 1.35-.55 2.15-1q1.2-.55.85-.9l-.35-.4.25.05.3.8-1.9 2.05q-1.65 1.55-3.8 2.4l-.4-.5-.4-.9q.3-.15-.05-.15L23.3 13z"/><path fill="#e7e3dc" d="M25.05 38.25h.05l.55-.05h.55l2.55-.2 1.45-.2.3-.05.4-.05v-2.5q-.65-2.5-.75-4.5v-.05l-.05-.45v-1.65l.1-.85V27l.3-.1.8-.25.3-.05.55-.1h.05l5.3 3.5 3.45 2.7-.85 1.05-.2.25-.5.55-1.45 1.35-.25.2-2.25 1.6-.05.05-1.25.65-.5.25-.95.45-1.8.7-1.6.5-3 .75-.2.05-.9.15-.4.1h-.1v-.05z"/><path fill="#bfbcb7" d="M30.2 27v.7l-.1.85v1.65l.05.45v.05q.1 2 .75 4.5v2.5l-.4.05-.3.05-1.45.2-2.55.2h-.55l-.55.05h-.05l-.35-.05-4.1-.8q-2.7-.8-4.5-2.1-1.4-.95-1.4-1.3 1.7-1.3 3.25-1.95.1-.35 1.2-.8l2.45-1.75q.7-.75 1.9-1.45l6.7-1.15zm7.5 9.1.25-.2 1.45-1.35.5-.55.2-.25.85-1.05L37.5 30l-5.3-3.5h-.05l-.2-.1-.85-.65 2.75-1.5.75-.7q.45-.4.9-.4l13.1 1.9q0 1.25-1.05 3.7-1.1 2.4-4.1 5l-1.85 1.4-.95.5q-1.5.7-2.95.75z"/><path fill-opacity=".498" d="m38.45 35.4-.05-.05-2.6-2.75-5.55-5.25-.05-.55.8-.05.3-.05.1.05q3.3 2.3 7.05 5.55L40 33.65v.2l-.05.1-.15.3-.25.45-.05-.05-1 .85zm-3 2.3-.95.55-.35.15-.55.45-3.45-7.1-.15-.35v-1.1l-.05-.1.05-.5.15-1.1 2.65 4.8 2.5 4.1zm-9.35.5v2.95l-.9.1-.4.05.3-3.1h1M30 38h.05l.2-.05.5 1.55.15.3-1.6.65v-.15l-.55-2.3z"/><path fill-opacity=".694" d="M26.8 27.7q-.9 6.4-2.05 10.35l-3-.5q1.1-1.25 2.3-3.8 1.6-3.25 1.9-5.8v-.1l.45-.1zm5.2-2.45q7.35 4.85 12.8 7.15 0 .5-1.35 1.3l-4.65-3.1-3.35-2-1.85-1.3-2.55-1.65zm-2.7 1.8-.05.45q.25 6.85.75 10.25l-1.4.15-1.4.2.05-.2.05-.15q1.3-3.6 1.1-10.4zm9.15 8.35.05.1 1-.85.05.05.25-.45 1.4 1q-2.35.8-2.55.95zM34 24.3l.3-.15q10.05 3.45 13.6 4.45l-1.2 1.45-13.35-5.4q.2-.1.65-.35m.85-.75.55-.45 5.1.75 4.1.6 4.15.5q-.25.25-.25.9-5.85-.7-13.65-2.3m-10.1 4.5-3.95 6.2-1.4 1.8-.55.65q-1.9-.8-2.45-1.2l.25-.15.1-.05.15-.1 2.25-1.9 4.9-5.25z"/><path fill-opacity=".4" d="M45.15 26.35q.3.3.15 1.25t-.85.95l-.5-.05v.1l.2.75q0 .85-.65 1.25-1.25.7-1.75 1.2-.15-.5-1.85-1.55l-2.45-1.2-4.4-2-.2-.15.7-.6 4.25 1.1q2.4.8 4.8 2l.55-.55.35-.65-.15-.45-.35-.55.05-.05q.3.05 1.2-.85zm-5.8 7.85q1.05-1.4 1.45-1.65l2 1.7q-.8.85-2.85 1.55l-2.15.6-.05-.35zm-8 3.05.05.65q-2.65 2.75-6.6 3.65v-.45l.15-2.75h.3l4.5-.4q.95-.1 1.6-.7"/><path fill="#7342a3" d="M39.4 12.2q.45.45.1 1.55l.6-.1q1.35.15.8 2.15l.6.3q.6.35.55 1.1 0 .75-.55.8h-.1v-.05l.55-.4-1.4.55q-.3.2-1.8.85L34.95 21l-.4.25-2.8 1.85-.1.05.15.15q-.7.4-.85.2-.25-.3-.25-1.05l.05-.3.15-.85q-.15-2.75 1.85-7.55 1.9-4.75 3.1-4.05t1.1 1.1l-.15 1.25 1.15-1.15q1.4.4 1.45 1.3m5.15 10.25h.1q.65.45.1 1.1 0 .7-1.05 1.2l.5.35q.85 1.05-.95 2.15l.25.6q.1.65-.4 1.15-.55.55-.95.2l-.65-.55-.1.05-1.9-.85q-2.3-.85-4.6-1.3L32.2 26l.05 2.75q0 2.35.35 4.8l.4 2.05v.05l.4.75q.25.45-.35.9l-1.2.15-.6-.4q-1.4 1.6-2.3.55l-.2-.55q-.65.9-1.35.8-.8.45-1.15-.3v-.1q-1.2-1.9 1.1-6.1l2.55-4.45.3-.25.35-.45.4-.55.1-.1.95-.8.1-.1.6-.25.55-.25.3-.25 4.8-1.55q4.6-1.5 6.2.1m-22 11-.05.15-.55.4h-.3q-.7-.15-.95-.8l-.2-.6q-2.1.1-2-1.25l.25-.5q-1.1.1-1.5-.45-.9-.2-.95-1.7.7-.5 1.3-.85l-1.25-.15q-.35 0-.85-1.3-.45-1.3 4.6-2.25l7.7-.35.9.05h.3l1 .45-.35.8-.15-.15-.1.05-2.3 2.35-.3.35q-1.55 1.55-2.8 3.35l-1.15 1.65-.9 1.3z"/><path fill="#2f0164" d="M30.75 22.15q-.35-.85-.35-2.6 0-2.9.45-6.75.4-3.95 2.05-5.15 1.65-1.25 2.05 1.25l.05.05 1.05-.15q.85 0 1.15.9l.05 1 .6-.25q1.35-.25 1.7 1.4l-.15.35q-.05-.9-1.45-1.3l-1.15 1.15.15-1.25q.1-.4-1.1-1.1t-3.1 4.05q-2 4.8-1.85 7.55zM41.4 18q-.4.3-.2.4l.3.2.2.1v.1l.4 1.05q.05.65-.45 1.1l1.4.25q.75.2 1.25.8l.25.45q-1.6-1.6-6.2-.1l-4.8 1.55-.3.25-.55.25-.6.25-.1.1.15-1.15-.05-.15-.1.05-.15-.15-.05-.05-.15-.15.1-.05 2.8-1.85.4-.25 3.8-2.05q1.5-.65 1.8-.85l1.4-.55-.55.4zM26.25 37.45l-.3-.35q-.5-.6-.55-1.4v-1.35l-1.15.2-.9-.65h-.15l-.05-.2-.15-.4q-.05-.2-.45.15l-.6.55.9-1.3L24 31.05q1.25-1.8 2.8-3.35l.3-.35L29.4 25l.1-.05.15.15.05.05h-.05l.15.15-.05.05.05.15 1.25.05-.1.1-.4.55-.35.45-.3.25-2.55 4.45q-2.3 4.2-1.1 6.1m-9-7.05-.4.05q-1.55-.55-1-1.9l.3-.55-.95-.2q-.8-.5-.65-1.3l.4-1.05-.1-.05q-2.3-.9-.8-2.25 1.5-1.4 5.45-1.05l6.7.95q1.7.35 2.5.8l-.9-.05-7.7.35q-5.05.95-4.6 2.25.5 1.3.85 1.3l1.25.15q-.6.35-1.3.85.05 1.5.95 1.7"/><path fill="#2f0164" d="m27.35 21.65-.05-.05h.05q.7-.95 1.75-1.3l1.5-.2 1.25.65 1.15 1.7.5 1.05.1.25.05.15.25 1.6-.25 1-.1.1-.45.3q-.8.6-2.25.8l.1-.35v-.15q-.7-4.1-3.6-5.55"/><path fill="#7342a3" d="m30.95 27.2-.7-.95-.85-1.15-1.3-1.15Q27 22.9 27 22.7q0-.35.35-1.05 2.9 1.45 3.6 5.55"/><path fill-opacity=".298" d="M32.7 18.85q.55-1.05 2.4-2.25t3.05-1.4q.1 1.5-1.05 2.6l.5.05q.45 0 2.3-1.05 1.8-1.1 2.3.5l-1.25.9-1.75.9q.15.2.95.55.7.25.65.65-4.7 1.55-6.4 2.75l3.3.45q3.8 0 5.6 1.1l-2.2.8v.1l1.55.6 1.35.65q0 .35-.4.45l-.7.1.5.75q.25.35-.25.9l-.75.5-.75-.45q-.45-.4-4-1.75-3.55-1.4-4-.75h-.05l-.1-2.6-.15-.3h-.05l-1.5-2.8zm-1 8.75.6-.3q-.3 2.2.15 4.95.25 1.75.75 3.2l.15.4v.95L32 33.9q-.8-2-.8-4.45l.1-1.6q.1-.05.4-.25"/><path fill="#fff" fill-opacity=".298" d="M22.8 26.5h-1.3q.1-.45 1.5-1.4 1.35-.9 2.1-1.1h3.2l.8 1.2-2.45 1zm7.7.8q-.3 2.45-.85 2.85l-3.3 3.2 1.05-1.85 2.7-5.1h.2v.55z"/><path fill="url(#d)" d="M28.55.5q-.9.05-1.45.7-.8.95-.75 1.8l2.05 1q3 2.1 2.45 2.35T29 7.55q-1.3.9-.3 3.85v1.8l1.1 3.85-2.45-4.3q-.55-.7-.55-2.6 0-1.1.6-1.9L28 7.1q0-.8-1.95-2.45L22.9 2.1h.1q.15.2 1.15.6-.8-.5.05-.2.95.35 2.7-1.8 1.75-2.2-.9-2.4-1.95-.2-2.2.9v.7l.05.15-.4.3-.45.4q-.9.7-1.6 2.05t-.25 1.95L22.6 6.1l.75.5.05.1-1.75-.6q-1-.5-1-2.75 0-1.55.7-2.55l.95-1.2q-1.5.3-2.15 1.5-.6 1.15-.35 2.6v.15l.25.45v.6h-.15l-.35-.85h-.85l.25 1.45q.05 1-.6.95l-.05-.1h-.05q.55-.2.25-.6l-.6-.45q-.3-.05-.9 3.75-.6 3.75-1.05 3.75-.5 0-.7-.6v-.1l-.9 2-2.1 3.2.1-.3q-2.85 6.3-.85.45l2.05-6.25q.3-1.15 1.1-1.15.6 0 1 .5l.15.25q-.15-.7.2-2.2l.5-2.4q.05-.7-.7-2.1l-.85-1.65.15-.75L16.25.05q-.25 2.05.3 2.85.6.8 1.1.8.7 0 .85-.4v-.5l-.3-.9q-.35-.8 0-.3l.85 1.3Q18 1.1 20.3-1.95h.95l2.05.5-.25-1q-.35-1.2-1.65-2.15l1.85.5 2.8.1q1.55-.45 1.4-1.7-.2-1.25-.95-1.7l-1-.5h.1l.95.3q1.65.5 2 1.3t-.9 2.05q-1.25 1.2-3.5 1.45h.25l-.2.6-.05.15.4-.3 1.25-.1q1.65 0 2.65.75 1.1.8 1 2.25L28.8.5z" transform="translate(12.7 28)"/><path fill="url(#e)" d="m1.6-.1.2-.3.1-.05-.4 1.3-.2.45q-.5 1-2.75 1Q-3 2.3-4 1.6L-5.2.65q.05 1 1.55 1.8l1.5.85.35.4.1.1.55-.5.65-.4h.6v.15l-.85.35v.85L.6 3.9l2.45-.4q1.4-.05 4.15 5.65v.25L5.05 7.3l.05.4-.15.95Q4.8 9.1 4.8 9.8q0 .9.45 2.35l.4 1.1-1-1.5.55.45-.6-.5-.25-.55L4.4 10l-.25.25Q3.85 9.1 4 8.8l-.45.25-.1-.25q-.4-1.3.25-.95.1-2.55-1.15-2.45l-1.8.4-.85.8-.6.55-.9.5-.75.35h-.2l-.55-.15-.35-.2-4.1-1.35q4.85.65 5.65.1.8-.6.8-1.1 0-.7-.4-.85H-2l-.9.3q-.8.35-.3 0L-2 4l.15-.1-.4-.1-4.5-1.15V1.7q1.1-1.6.95-1.85V-.2l-.25-.2-.15.05-1.05.25q-1.2.35-2.15 1.65l.5-1.85q.5-1.2.1-2.8-.45-1.55-1.7-1.4-1.25.2-1.7.95l-.5 1v-.1l.3-.95q.5-1.65 1.3-2l.4-.05-.85-.65q-.85-.75-.85-1.35 0-.9 1.5-1.6 1.5-.5 2-.75l-1.05.7-.45 1.2q0 .6 1.25 1.8Q-7.9-5.15-7.9-3.8l-.15.7q.35.85.45 1.9v-.25l.6.2.15.05-.3-.4-.1-1.2v-.05l.2-1.45.55-1.2.65-1 .8 1.95v.05h-.05q-.4 0-.7.4l-.3.95q0 .8.65 1.3.4.3 1.35.65Q-3.25.45-2.05.9l1.8.2L.85.9 1.1.65l.2-.3zm28.75-14.45q.9-.15 3.5 2.25t1.5 1.65L32.9-12.2l-1.65-.7q-.9 0-1.4 1.9-.45 1.55-.3 3.3l-.35-.8-1-1.2.65-.7q.4-.35.35-.85t-.4-.6l-.65-.2.75-1.4q.55-1.05 1.45-1.1m-1 7.05 1.45-.6q1.2-.65 2.2-.3l2.9.8q-3.1-.15-5 1 1.25.2 1.65.75l.5 1.2q.1.65 1.35 2.25l-2.5-1.5-.1-.15q-.15-.15.2-.75.35-.65-.9-1.25l-2.4-.85z" transform="translate(12.7 28)"/><path fill="url(#f)" d="M28.55.5h.25q.55.6 1 .6.5 0 .9-.95l.5-1 .25-.2.2-.25-.2-1.35Q31.1-3.75 37.8.5L32.25-.55Q34.45.85 34.6 2l.8 4.7-1.8-3.25q-1-1.65-2.2-1.95.1.45-.3 1l-.5 1v.1l-.15-1.25q-.05-.45-.55-.45l-1.1.2-1.1.4-1.1.3q2.45-1.6 1.95-2.3" transform="translate(12.7 28)"/></g></defs></svg>