<svg xmlns="http://www.w3.org/2000/svg" xmlns:ffdec="https://www.free-decompiler.com/flash" xmlns:xlink="http://www.w3.org/1999/xlink" ffdec:objectType="frame" width="46.35" height="14.55"><use ffdec:characterId="2" xlink:href="#a" width="43.55" height="14.55" transform="matrix(1.0648 0 0 1 -.015 0)"/><defs><use ffdec:characterId="1" xlink:href="#b" id="a" width="43.55" height="14.55"/><g id="b" fill-rule="evenodd"><path fill-opacity=".298" d="M25.2 11.4q-.2-.45 0-3.65.15-1.9 1.15-2.5 1.95-1.15 6.3-1.9 4.4-.7 6.1-.1 1.4.5 1.55 2.45l-.05 1.25q.15.8.8.7h.05L40.85 9q-.45 1.65-1.45 2.25-2.7 1.55-6.5 2.35-5.05 1.15-6.7-.8l-.65-.9zM2.6 8.1l.65-.55q.7-.85.65-2.3 0-2.3 3.3-2.2t6.15.9q2.8.8 3.9 1.5 1.05.7 1.15 2V9.4q-.1.65.4 1.5l-.35.45-1.05 1.45q-1.7 1.95-6.75.8-3.75-.8-6.45-2.35-1-.6-1.45-2.25z"/><path fill-opacity=".6" d="m25.2 11.4-.3-.4.2.25-.3-.4-.05-.05-.1-.1q.25-.45.15-1.9v-.55l-.05-.8q0-1.55.45-2.15.9-1.2 6.75-2.35l6.6-.3q1.85.65 1.75 3.05-.15-1.95-1.55-2.45-1.7-.6-6.1.1-4.35.75-6.3 1.9-1 .6-1.15 2.5-.2 3.2 0 3.65m-6.4-.5q-.5-.85-.4-1.5V7.45q-.1-1.3-1.15-2-1.1-.7-3.9-1.5-2.85-.8-6.15-.9t-3.3 2.2q.05 1.45-.65 2.3l-.65.55-.1-.45q.6.05.75-.7L3.2 5.7q-.1-2.4 1.75-3.05l6.6.3Q17.4 4.1 18.3 5.3q.45.6.45 2.15v.8l-.05.55q-.1 1.55.2 2z"/><path fill="#2b73a0" d="M42.6 6.1q-.75.55-.9 1.15l-.05.15-.55.25q-.7.1-.85-.7l.05-1.25q.1-2.4-1.75-3.05l-6.6.3Q26.1 4.1 25.2 5.3q-.45.6-.45 2.15l.05.8v.55l.05.85-.2 1.05-.35.2h-.05l-1-1.05-.1-.15q-.6-1.05-1.45-1.1-.75.05-1.35 1.1l-1.1 1.2h-.05q-.2.05-.3-.1-.3-.45-.2-2l.05-.55v-.8q0-1.55-.45-2.15-.9-1.2-6.75-2.35l-6.6-.3Q3.1 3.3 3.2 5.7l.05 1.25q-.15.75-.75.7l-.65-.25-.05-.15q-.15-.6-.9-1.15l-.7-.4q-.5-1.35.15-2.85 1.6.1 2.55-1.45Q3.85-.1 5 0l7 1.1q5.55 1.05 6.75 2.05l.85 1q1.1 1 2.15 1t2.15-1l.85-1q1.2-1 6.75-2.05l7-1.1q1.15-.1 2.1 1.4.95 1.55 2.55 1.45.75 1.15.15 2.85z"/><path fill="#2ca6e9" d="M43.05 3.1q-.1 1-2.35 1.6l-.35-1.1-1-1.1q-.6-.35-2.75-.35l-3.3.2-3.45.7q-2.4.6-3.3 1-.5.25-.8-.35t.6-.95Q27.7 2.2 33.2 1.2 38.95.15 39.5.6L40.75 2l1.05 1.05zm-24.55.15q.35.25.25.6l-.45.45-2.35-.8-5-1.2-3.6-.4-2.6.25H4.7q-.85.2-1.4 1.45l-.35 1.25-2.6-.25q-.1-.1-.05-.65l.2-.8q1.3-.05 1.85-.6l.55-.75L3.95.6l.4-.2L6 .35l6.4 1 3.1.75q2.4.65 3 1.15m4.2 2.25q.35 0 1.05-.8l1.05-.95q.6-.1.8.3.2.45-.35.9-.45.4-.7 1.2l-.1.75q-.25 1.15-1.25-.75z"/><path fill="#999" d="m26.1 12.65.1.15 1.45.95.6.15 4.65-.3q3.05-.65 5.35-1.75l1.15-.6q.9-.55 1.35-1.9l.45.15q-.45 1.65-1.5 2.25l-1.15.6q-2.4 1.1-5.45 1.75l-5.15.2-.7-.25-1-.75-.35-.45zm-8.35-.25.05.25-.55.65q-.65.75-1.85 1.05l-5-.25q-3.85-.8-6.6-2.35l-.75-.65-.4-.7.5-.4.55.85.5.4q2.7 1.55 6.45 2.35l4.8.3q1.25-.3 1.95-1.1z"/><path fill="#666" d="m26.1 12.65-.2.2-.5-.65-.25-.35-.1-.15-.75-.8.35-.2.45.55.05.1.4.55zM41.2 9.5l-.45-.15.1-.35.25-1.35.55-.25q-.2.55-.45 2.1m-23.4 3.15-.05-.25.7-1.05.45-.55q.1.15.3.1l-.85.95zM3.15 10l-.5.4-.35-.9-.45-2.1.65.25L2.75 9z"/></g></defs></svg>