<svg xmlns="http://www.w3.org/2000/svg" xmlns:ffdec="https://www.free-decompiler.com/flash" xmlns:xlink="http://www.w3.org/1999/xlink" ffdec:objectType="frame" width="137.6" height="59.85"><use ffdec:characterId="1" xlink:href="#a" width="137.6" height="59.85"/><defs><linearGradient id="c" x1="-819.2" x2="819.2" gradientTransform="matrix(.0085 .0018 -.0025 .0113 6.2 17.75)" gradientUnits="userSpaceOnUse" spreadMethod="pad"><stop offset="0" stop-color="#fff" stop-opacity=".694"/><stop offset="1" stop-color="#f3bfbf" stop-opacity=".498"/></linearGradient><linearGradient id="d" x1="-819.2" x2="819.2" gradientTransform="matrix(.0093 .0056 .0125 -.0204 -13.7 32.2)" gradientUnits="userSpaceOnUse" spreadMethod="pad"><stop offset="0" stop-color="#fff" stop-opacity=".902"/><stop offset="1" stop-color="#f3bfbf" stop-opacity=".498"/></linearGradient><linearGradient id="e" x1="-819.2" x2="819.2" gradientTransform="matrix(.0063 .0029 -.0079 .0172 -2.7 19.95)" gradientUnits="userSpaceOnUse" spreadMethod="pad"><stop offset="0" stop-color="#fff" stop-opacity=".8"/><stop offset="1" stop-color="#f3bfbf" stop-opacity=".498"/></linearGradient><linearGradient id="f" x1="-819.2" x2="819.2" gradientTransform="matrix(.0068 .011 -.0158 .0098 -31.95 39.75)" gradientUnits="userSpaceOnUse" spreadMethod="pad"><stop offset="0" stop-color="#fff" stop-opacity=".902"/><stop offset="1" stop-color="#f3bfbf" stop-opacity=".498"/></linearGradient><linearGradient id="i" x1="-819.2" x2="819.2" gradientTransform="matrix(-.0085 .0018 .0025 .0113 39.6 17.75)" gradientUnits="userSpaceOnUse" spreadMethod="pad"><stop offset="0" stop-color="#fff" stop-opacity=".694"/><stop offset="1" stop-color="#f3bfbf" stop-opacity=".498"/></linearGradient><linearGradient id="j" x1="-819.2" x2="819.2" gradientTransform="matrix(-.0063 .0029 .0079 .0172 48.5 19.95)" gradientUnits="userSpaceOnUse" spreadMethod="pad"><stop offset="0" stop-color="#fff" stop-opacity=".8"/><stop offset="1" stop-color="#f3bfbf" stop-opacity=".498"/></linearGradient><linearGradient id="k" x1="-819.2" x2="819.2" gradientTransform="matrix(-.0093 .0056 -.0125 -.0204 59.5 32.2)" gradientUnits="userSpaceOnUse" spreadMethod="pad"><stop offset="0" stop-color="#fff" stop-opacity=".902"/><stop offset="1" stop-color="#f3bfbf" stop-opacity=".498"/></linearGradient><linearGradient id="l" x1="-819.2" x2="819.2" gradientTransform="matrix(-.0068 .011 .0158 .0098 77.75 39.75)" gradientUnits="userSpaceOnUse" spreadMethod="pad"><stop offset="0" stop-color="#fff" stop-opacity=".902"/><stop offset="1" stop-color="#f3bfbf" stop-opacity=".498"/></linearGradient><linearGradient id="n" x1="-819.2" x2="819.2" gradientTransform="matrix(.0391 0 0 .0143 22.7 1.1)" gradientUnits="userSpaceOnUse" spreadMethod="pad"><stop offset="0" stop-color="#694733"/><stop offset=".216" stop-color="#a9856f"/><stop offset=".51" stop-color="#694733"/><stop offset=".816" stop-color="#a9856f"/><stop offset="1" stop-color="#694733"/></linearGradient><linearGradient id="o" x1="-819.2" x2="819.2" gradientTransform="matrix(.0378 -.0105 .0038 .0137 22.75 1.1)" gradientUnits="userSpaceOnUse" spreadMethod="pad"><stop offset="0" stop-color="#a6836d"/><stop offset=".259" stop-color="#f3d3a2"/><stop offset=".396" stop-color="#b28e78"/><stop offset=".541" stop-color="#a6836d"/><stop offset=".557" stop-color="#e9dece"/><stop offset=".667" stop-color="#f3d3a2"/><stop offset=".753" stop-color="#a6836d"/><stop offset=".859" stop-color="#f3d3a2"/><stop offset="1" stop-color="#b28e78"/></linearGradient><linearGradient id="p" x1="-819.2" x2="819.2" gradientTransform="matrix(.0037 -.0028 .002 .0026 6.25 11.6)" gradientUnits="userSpaceOnUse" spreadMethod="pad"><stop offset="0" stop-color="#694733"/><stop offset=".216" stop-color="#a9856f"/><stop offset=".51" stop-color="#694733"/><stop offset=".816" stop-color="#a9856f"/><stop offset="1" stop-color="#694733"/></linearGradient><linearGradient id="q" x1="-819.2" x2="819.2" gradientTransform="matrix(.0043 -.0026 .0017 .0027 6.25 11.2)" gradientUnits="userSpaceOnUse" spreadMethod="pad"><stop offset="0" stop-color="#a6836d"/><stop offset=".259" stop-color="#f3d3a2"/><stop offset=".396" stop-color="#b28e78"/><stop offset=".541" stop-color="#a6836d"/><stop offset=".557" stop-color="#e9dece"/><stop offset=".667" stop-color="#f3d3a2"/><stop offset=".753" stop-color="#a6836d"/><stop offset=".859" stop-color="#f3d3a2"/><stop offset="1" stop-color="#b28e78"/></linearGradient><linearGradient id="r" x1="-819.2" x2="819.2" gradientTransform="matrix(.0053 -.004 .0028 .0036 22.6 16.35)" gradientUnits="userSpaceOnUse" spreadMethod="pad"><stop offset="0" stop-color="#694733"/><stop offset=".216" stop-color="#a9856f"/><stop offset=".51" stop-color="#694733"/><stop offset=".816" stop-color="#a9856f"/><stop offset="1" stop-color="#694733"/></linearGradient><linearGradient id="s" x1="-819.2" x2="819.2" gradientTransform="matrix(.006 -.0037 .0024 .0039 22.6 15.8)" gradientUnits="userSpaceOnUse" spreadMethod="pad"><stop offset="0" stop-color="#a6836d"/><stop offset=".259" stop-color="#f3d3a2"/><stop offset=".396" stop-color="#b28e78"/><stop offset=".541" stop-color="#a6836d"/><stop offset=".557" stop-color="#e9dece"/><stop offset=".667" stop-color="#f3d3a2"/><stop offset=".753" stop-color="#a6836d"/><stop offset=".859" stop-color="#f3d3a2"/><stop offset="1" stop-color="#b28e78"/></linearGradient><linearGradient id="t" x1="-819.2" x2="819.2" gradientTransform="matrix(.0037 -.0028 .002 .0026 38.7 11.6)" gradientUnits="userSpaceOnUse" spreadMethod="pad"><stop offset="0" stop-color="#694733"/><stop offset=".216" stop-color="#a9856f"/><stop offset=".51" stop-color="#694733"/><stop offset=".816" stop-color="#a9856f"/><stop offset="1" stop-color="#694733"/></linearGradient><linearGradient id="u" x1="-819.2" x2="819.2" gradientTransform="matrix(.0043 -.0026 .0017 .0027 38.7 11.2)" gradientUnits="userSpaceOnUse" spreadMethod="pad"><stop offset="0" stop-color="#a6836d"/><stop offset=".259" stop-color="#f3d3a2"/><stop offset=".396" stop-color="#b28e78"/><stop offset=".541" stop-color="#a6836d"/><stop offset=".557" stop-color="#e9dece"/><stop offset=".667" stop-color="#f3d3a2"/><stop offset=".753" stop-color="#a6836d"/><stop offset=".859" stop-color="#f3d3a2"/><stop offset="1" stop-color="#b28e78"/></linearGradient><linearGradient id="v" x1="-819.2" x2="819.2" gradientTransform="matrix(.0062 -.0035 .003 .0054 22.7 -4.05)" gradientUnits="userSpaceOnUse" spreadMethod="pad"><stop offset="0" stop-color="#694733"/><stop offset=".216" stop-color="#a9856f"/><stop offset=".51" stop-color="#694733"/><stop offset=".816" stop-color="#a9856f"/><stop offset="1" stop-color="#694733"/></linearGradient><radialGradient id="b" cx="0" cy="0" r="819.2" gradientTransform="translate(-22.95 27.65)scale(.0423)" gradientUnits="userSpaceOnUse" spreadMethod="pad"><stop offset="0" stop-color="#fff" stop-opacity=".498"/><stop offset="1" stop-color="#fff3f7" stop-opacity=".902"/></radialGradient><radialGradient id="g" cx="0" cy="0" r="819.2" gradientTransform="translate(-22.95 27.65)scale(.0423)" gradientUnits="userSpaceOnUse" spreadMethod="pad"><stop offset="0" stop-color="#b48595" stop-opacity=".988"/><stop offset="1" stop-color="#a1636c"/></radialGradient><radialGradient id="h" cx="0" cy="0" r="819.2" gradientTransform="matrix(-.0423 0 0 .0423 68.75 27.65)" gradientUnits="userSpaceOnUse" spreadMethod="pad"><stop offset="0" stop-color="#fff" stop-opacity=".498"/><stop offset="1" stop-color="#fff3f7" stop-opacity=".902"/></radialGradient><radialGradient id="m" cx="0" cy="0" r="819.2" gradientTransform="matrix(-.0423 0 0 .0423 68.75 27.65)" gradientUnits="userSpaceOnUse" spreadMethod="pad"><stop offset="0" stop-color="#b48595" stop-opacity=".988"/><stop offset="1" stop-color="#a1636c"/></radialGradient><radialGradient id="w" cx="0" cy="0" r="819.2" gradientTransform="matrix(0 0 0 0 0 0)" gradientUnits="userSpaceOnUse" spreadMethod="pad"><stop offset="0" stop-color="#693b19"/><stop offset=".541" stop-color="#623412"/><stop offset="1" stop-color="#331906"/></radialGradient><radialGradient id="x" cx="0" cy="0" r="819.2" gradientTransform="matrix(0 0 0 0 45.5 0)" gradientUnits="userSpaceOnUse" spreadMethod="pad"><stop offset="0" stop-color="#693b19"/><stop offset=".541" stop-color="#623412"/><stop offset="1" stop-color="#331906"/></radialGradient><g id="a"><path fill="url(#b)" fill-rule="evenodd" d="m10.35 9.65.9 3.85-.15 1.25h-.15l-.15-.35v-.5q0-.65-.45-.85-.55.5-.55.8v.3q.1.3.55.3l.4-.05-.65 2.4v-.7l-.2 1-.55 1.1-.15-.15v-.8l-.2.8q-.2.7-.7.7l-.6-.55-.05-.15-.2 1.05-.5 1.6-.75 1.35-.15-.15v-.55Q5.45 23 4.65 23l-.45-.95-.15.15-.95 1.05-.35-.1-.05-.9v.15l-1 .85-.35-.1v-.9l.15-.35-.65.55-.55.35q-.15-.5-.15-1.45l-.75.95-1.05.95-.05-.1v-.65h-.15l-.6.9-.5.5h.05q2.35.35 2.8 1.05l.05.3v.1l-.25 2v-.2q0-.9-.55-.65t-.55 1.4l.05.45.35.05q.45 0 .65-.55l-.4 2.3-.15-.55-.1.1q-.4-.1-.7.25l-.1.1q-.3.4-.8.3l-.15-.35.15-.65-.6 1.45q-.5 1.25-1.05 1.45v-.75h-.15l-.35.7-.65.65-.35-.9-.9 1.1-.4-.15v-1.1h-.15l-.35.5-.55.1-.15-1.15-.3.55-.6.35q-.45 0-.45-.65l.1-.5q-.8 1.2-1.45 1.55l-.3-.4-.65.9q1.15 1.15 1.25 2.65v.6q0 1.9-1.35 5.9l-.55.9-.5 1q-.6 1.25-1.1 1.25-.7 0-.75-1.55-.2.65-1.3.65l-.15-1.4q-.1.6-.45.65h-.65v-.8l.15-.35-.55.1-.5.8q-.5.5-.85.5l-.3-.05-.35-.4-.65.65q-.55.4-.8.4l-.05-.85h-.15q-.5.6-.8.6-.55 0-.55-.65l.05-1h-.15q-.2.5-.9.7V41.7l-1.15.35h-.25l-.1-.15V41l.55-.95h-.1l-1.2 1.55q-.75 1-1.2 1 1.2.6 1.6 1.1l.15.15-.1.8-.2 1.35-.25 1.85-.5.75-.7.45-.6-.55-.35.45-.45.3q-.45 0-.75-.7-.35-.65-.15-1-.5.15-1.05.75l-.4-1.5-.95.05.5-1.65h-.15l-1.1.9-1.45.55-1.95.35q-.4 0-.6-.3l-.45-.6q-.2.55-.8.55h-.35l-.25-.6.05-.7-.95.05q-.55-.2-.55-.6 0-.5.35-.95l.7-1.05-.15-.15-1.05-.35.7-.75.5-.6-1.2-.25q-.85-.2-.9-.95l-.65-.2-.55-.55.4-.15h-.15l-1.5.3q-1.05-.1-1.05-.8l.15-.35.15-.3-1.6-1.15.85-.85 1.25-.4-.5-.45-.3-.5v-.2l.15-.1h.75v-.15l-.6-.7.05-.3h1.3q1 .55 1.4.55 6.85 0 21.6-10.65l1.45-1.75q.95-1.25 2.45-1.85l1-.5 3.05-2.6q2.35-2.3 3.3-3.8l2.75-5.25.7-1.05q1.3-1.95 2.65-2.55 2.2 1.4 5.1 2.8l1.4.65q3.65 1.65 6.2 2.4l.15 1.7zm-2.7 5.8v-.25l-.3-.2h-.3v.3q0 .3.3.3zm.45-.6.3-.25-.3-.5q-.3.05-.3.45zm.85-1.8.35-.15-.1-.4-.65.1q0 .3.15.45zm.1.75L9 13.65q-.25-.25-.5-.15-.25.05-.25.25l.05.25.1.1h.25zm.85-2.1-.1.3.05.3.05.05.3.25.35-.15-.05-.55-.4-.35zm-1.2 0 .05.3.25.05.3-.2-.3-.55-.2.1zm.5 3.45-.05.5q0 .35.3.7l.65-.25.1-.4q0-.4-.6-1.1zM5.9 18.5h-.05v1.45L6 20v.05l.25.05.5-.35v-.55l-.05-.5q-.2-.4-.8-.2m.1-1.55-.3-.6q-.3.05-.3.4l.05.35.25.05zm.2-.75-.15-.45-.45.2v.25h.1l.3.05zm.65-.9H6.8q-.65-.3-.65.3l.05.2.3.1.4-.15v-.25zm-6.6 4.75V20l-.2-.2q-.3-.25-.7-.3v1.05q.05.15.3.15.6-.35.6-.65m1.7.05v-.3q-.1-.65-.65-.2l-.3.3q-.35.45-.4 1.1l.45.05q.4 0 .7-.4zm2.15.5q-.2 1 .7 1 .75 0 .75-1 0-.9-.7-1.05-.75-.1-.75 1.05m-1 .65.25-.7-.5-.75L1.8 21v.65l.6.1zm-.55-2.05.3-.1.05-.15-.05-.45q-.6-.15-.6.3l.05.3zm1.4-.3-.05-.15-.5-.05-.2.25.05.3h.1l-.05.05.25.05zm.55-.75-.3.35.1.3h.2l.3-.05zM1.65 18l-.2.05-.1.25v.2l.3.15.2-.05.1-.3zm-1.3-.3-.1.3.05.2.25.1q.35 0 .3-.15v-.25l-.3-.3zm8.5-1.5q-.25-.55-.5-.6-.3-.1-.55.2v.75l.45.1.45-.15zM6.3 17.25v.45l.3.05h.1l.35-.15v-.25q-.05-.4-.45-.55-.3.1-.3.45m-1.1.9.4-.25-.35-.5-.2.2-.2.2q0 .4.15.35zm1.75 2.55.1-.45-.25.6zM-23.3 38.75h-.05q-.8.4-.8.95v.25l.65.25q.95 0 .95-.9l-.05-.4zm.65-.8.45-.4-.75.05v.25l.15.1zm1.6.45-.4-.3q-.3 0-.3.35l.1.3.2.1zm-9.75 6.5v.3l.6.25q1.05 0 1.05-.9l-.1-.45-.95.1q-.6.35-.6.7m-1.75.25q.45-.3.45-.75 0-.85-.9-.55-.9.35-.9 1.1l.1.4.4.1zm-3-.75q-.9.5-.9.9 0 .6.6.6.55 0 .9-.55l.3-.65q0-.75-.9-.3m-2.35.45 1.4-.3q.65-.3.65-.75 0-.9-1.35-.65t-1.35 1.05q-.25.65.65.65m2-3.3.2.05.3-.3q0-.25-.3-.45l-.2.1-.1.3zm-.25-.85.3-.05v-.3l-.3-.3-.3.35.1.3zm-2.55 1.2.3.45h1.3q.6-.25.6-.75-.55-.55-1.4-.3-.8.2-.8.6m-.65-3.35-.1-.3-1.1.1-.4.5.1.3.45.05.75-.25zm3.65.5-.3-.2h-.3v.45l.3.15.3-.15zm-1.35.8-.05-.2-1.2.1v.65l.45.1.5-.15zm-.65-1.9v-.3l-.3-.25-.2.1-.1.3.05.25.25.05q.1-.15.3-.15m.65-.3-.15.05-.15.25.1.3.2.05.3-.05.1-.3q-.15-.2-.4-.3m1.35.8.25-.05.05-.3-.3-.3q-.3.1-.3.35l.1.3zm3.75 4.45.3.15q.3-.2.3-.45l-.3-.25-.3.3zm-1.4 0 .05.3.25.05.35-.05.1-.3-.05-.2-.1-.05q-.6-.1-.6.25m-1.35-.3-.1.05v.45h.15l.3.1.3-.1.15-.15-.05-.35zm-.55-.9-.15.05-.15.25.1.3.2.05.3-.05.1-.3zm-3.1-4.65h-.05q-.65-.2-.65.15l.05.3.35.05.25-.05q.1.15.1-.25zm-1.6-.7.05.25.25.05.35-.1.1-.25-.1-.15q-.25-.2-.45-.1zm-.25-1.25-.3-.05-.15.25.15.4h.3l.25-.4zm17.1 1.95-.75.05v.25h.1l.35.05q.3 0 .3-.35M-3.55 20.6l-.2.2-.95 1.4v.6l.4.05q.45 0 .95-.7.5-.65.5-1.05l-.05-.55zm1.35-.2-.1.5q.05.7.55.7.55 0 .55-.8l-.05-.55q-.15-.4-.5-.35zm-.3-.35.05-.1v-.3l-.45-.4-.3.45.45.4zm1.1-1-.4-.3-.15.05-.15.25.1.3.2.05.3-.05zm.8-.9-.3.4.3.35.3-.15q0-.4-.3-.6M-29.7 41.3v.4l.55.05h.2q.8-.15 1.4-1.2.5-.9.5-1.3 0-1.3-1.3.05-1.2 1.15-1.3 1.85zm4.3-2.2-.1-.35q-.5 0-1 .45-.4.45-.4.8l.05.4.3.1q.55 0 .9-.55zm-2.2-1.45.1.3h.2l.3-.15v-.25l-.3-.2h-.2zm1.65.45q.3-.2.3-.45l-.3-.25-.3.3v.25zm4.45 5 .3.1q.75 0 1.25-.9.45-.7.45-1.35 0-1.2-1.05-.35-1.05.8-1.05 1.95zm-3.3-5q.45-.15.45-.55-.75-.3-.75.1l.1.35zm3.75 1.9q0-.8-1-.2-1.05.65-1.05 1.45l.1.3.35.05q.75 0 1.25-.7.35-.55.35-.9m.35-1 .15.1.3.1.15-.2q0-.25-.15-.3-.3.05-.45.3m-6.9 3.5v-.35l-.15.15v.1zm16.9-11.75.5-.35.15-.55q0-.55-.5-.45-.55.1-.55.7l.1.5q-.1.15.3.15m-.85-.45-.45-.1q-.35 0-.8.95l-.35.95-.05.2.45.1h.15l.5-.15q.4-.2.4-.6l.25-1zm.3-1.3v-.3h-.65l-.05.2-.05.2.1.3.2.05q.45-.05.45-.45m-1.95 1.8q0-.85-.8-.2l-.5.45-.35.55.1.35h.25l.8-.3.15-.15q.35-.4.35-.7m0-1.15.1.05h.25l.4-.4q-.75-.35-.75.1zm-1.7 1.1.8-.65-.05-.35-.9.3-.35.3-.1.15.05.3h.1q-.15.1.2.1zm1.35-2.2-.2.05-.1.25.1.3.2.1.35-.45zm6.8 1q-.6.2-.6 1.05v.45l.3.05.6-.5.3-.65q0-.6-.6-.4m.75-.75-.05-.3q-.1-.15-.25-.15l-.25.2-.05.1.1.3h.2zm-2.25 1.65.6-.35.25-.55q0-.7-.65-.4-.7.35-.7.95l.05.35zm-1.2-1.65-.3.35.3.4q.3 0 .3-.3zm-.6-.35.15-.1q0-.25-.35-.6l-.2.25-.2.2v.25l.15.05.15.05zm2.4-.15v.2l.1.15h.35l.15-.1.1-.2q-.15-.2-.4-.3zm-.8-.75-.25.25.05.3h.1q-.15.1.25.1l.3-.05.05-.1v-.4zm-.95-.35-.1.25.05.3.25.05q.35-.1.35-.35l-.35-.3zm4.9 2.45q-.05-.25-.5-.25-.4 0-.7.75L-6 31.2l.1.45.35.05.75-.65q.3-.6.3-1.15zm-.2-1.3-.1-.15-.3-.15-.3.25v.05l.1.3h.35zm1.85.2q0-.65-.55-.2t-.55.9l.05.65.4.1q.65 0 .65-1.45M-3 26.9l.35-.05.1-.1q0-.4-.35-.65l-.2.25-.2.25v.25h.1zm-1 .4-.2.3v.25l.1.05h.25l.3-.1.25-.35-.35-.3zm2.2.2q0-.4-.2-.5h-.25l-.4.35-.05.35.1.65.3.05.35-.3zm-.45-2.4-.2.1-.1.3.1.35.2.1.3-.3q0-.35-.3-.55m1.2.7-.05-.4q-.7-.1-.7.25v.25l.15.05.2.05.3-.05zM-28.1 45q-.4.1-.85.55l-.5.8.05.3.6.05.75-.05v-.3l.15-.4.15-.45q0-.25-.35-.5m-.7-1.1.3.35.3-.15-.05-.45q-.55-.2-.55.25m2.7 2.05q0-1.15-.75-.4-.75.7-.75 1.55-.2.6.7.6.4 0 .65-.75zm-1.65-1.2.25.1.15-.05.2-.2.1-.25-.1-.25h-.6l-.05.3zm1.8-.8h-.5l-.1.3.1.3.2.15.3-.15.1-.3zm13.6-4.35-.25.2v.05l.15.35h.3l.45-.1v-.35zm-30.4-1.2.4.05 1.05-.2q.8-.3.8-.7l-.05-.35q-2.2-.2-2.2 1.2m1.95-4.3-.2.1-.1.3.1.25.2.05.3-.15q0-.35-.3-.55m-2.45.1v.65l.65.1.7-.15q.1-.1.05-.45l-.7-.25zm-1 2.25q0 .45.6.6h1.75l.7-.5.2-.25q0-.75-1.6-.65-1.65.1-1.65.8m2.85-2.85.15.35.3.1.3-.05v-.1q.1.2.1-.2l-.1-.25zm-.9.15.1-.15-.1-.3q-.8-.2-.8.3l.05.2.4.1q.25 0 .35-.15m24 5.95-.35.35q-.4.45-.4 1.2-.2.6.45.6.4 0 .75-.8l.25-.7.05-.45q0-.75-.75-.2m-.2-1 .05.3.25.05.35-.05v-.3l-.45-.2zm-.75 0-.15.25.05.35h.4l.2-.3-.15-.25zm2.65.4-.2.65v.65l.45.1q.4 0 .7-.45l.2-.8v-.4q-.1-.25-.5-.25-.55 0-.65.5m-.7-1.15-.25.25.3.35.45-.45-.3-.3zm.9 0h.25l.4-.4q-.75-.35-.75.1v.25zm2.7 2.55v-.05q0-.55-.7-.65-.75-.1-.95.6v.9l.5.1q.35 0 .75-.35zm.95.45q-.75-.35-2.25 1.5l.1.35.45.1q.4 0 1.15-.7l.65-1.05-.05-.2zm-.75-1.8v.65l.4.1.45-.15q-.25-.6-.85-.6m-.75.05.3-.1.15-.1q0-.25-.35-.6l-.45.5.05.25zm-.8-1.65.2-.2-.15-.3q-.4.05-.5.3zm.3.55-.3-.3q-.3.1-.3.35l.05.3h.25l.3-.05z" transform="translate(45.9 10.6)"/><path fill="none" stroke="#c8a9b1" stroke-linecap="round" stroke-linejoin="round" stroke-width=".1" d="m51.8 29.1-.05.05M22.6 49.35l.7.15m10 .9.25-.2"/><path fill="url(#c)" fill-rule="evenodd" d="m2.5 6.25 1.4.65q3.65 1.65 6.2 2.4l.15 1.7.1-1.35.9 3.85-.15 1.25H11l-.2-.35v-.5q0-.65-.45-.85-.55.5-.55.8v.3q.1.3.55.3l.4-.05-.65 2.4v-.7l-.2 1-.55 1.1-.15-.15v-.8l-.2.8q-.2.7-.7.7l-.6-.55-.05-.15-.2 1.05-.5 1.6-.75 1.35-.15-.15v-.55Q5.45 23 4.65 23l-.45-.95-.15.15-.95 1.05-.35-.1-.05-.9v.15l-1 .85-.35-.1v-.9l.15-.35-.65.55-.55.35q-.15-.5-.15-1.45l-.75.95-1.05.95-.05-.1v-.65h-.15l-.6.9-.5.5-.4-.05-.15-.6v.15l-.3.35L-5 25.2l-.25-.15-.15-.75h-.15l-.75.5v-.65q.6-.7.6-1.1l-.3.45-.35.05-.45-.15v-.6h-.1l1.4-1.05 1.25-1.2L-.4 15.4q3.2-4.85 2.9-9.15m5.15 9.2v-.25l-.3-.2h-.3v.3q0 .3.3.3zm.75-.85-.3-.5q-.3.05-.3.45l.3.3zm.55-1.55.35-.15-.1-.4-.65.1q0 .3.15.45zm.1.75L9 13.65q-.25-.25-.5-.15-.25.05-.25.25l.05.25.1.1h.25zm1.05-2.25-.2.15-.1.3.05.3.05.05.3.25.35-.15-.05-.55zm-1.4.15.05.3.25.05.3-.2-.3-.55-.2.1zm.5 3.45-.05.5q0 .35.3.7l.65-.25.1-.4q0-.4-.6-1.1zm-8.95 4.9V20l-.2-.2q-.3-.25-.7-.3v1.05q.05.15.3.15.6-.35.6-.65m1.7.05v-.3q-.1-.65-.65-.2l-.3.3q-.35.45-.4 1.1l.45.05q.4 0 .7-.4zm2.15.5q-.2 1 .7 1 .75 0 .75-1 0-.9-.7-1.05-.75-.1-.75 1.05m-1 .65.25-.7-.5-.75L1.8 21v.65l.6.1zm-.55-2.05.3-.1.05-.15-.05-.45q-.6-.15-.6.3l.05.3zm1.4-.3-.05-.15-.5-.05-.2.25.05.3h.1l-.05.05.25.05zm.55-.75-.3.35.1.3h.2l.3-.05zM1.65 18l-.2.05-.1.25v.2l.3.15.2-.05.1-.3zm-1.3-.3-.1.3.05.2.25.1q.35 0 .3-.15v-.25l-.3-.3zm7.9-1.05.45-.15.15-.3q-.25-.55-.5-.6-.3-.1-.55.2v.75zm-1.95.6v.45l.3.05h.1l.35-.15v-.25q-.05-.4-.45-.55-.3.1-.3.45m-1.1.9.4-.25-.35-.5-.2.2-.2.2q0 .4.15.35zm.7.35h-.05v1.45L6 20v.05l.25.05.5-.35v-.55l-.05-.5q-.2-.4-.8-.2m.1-1.55-.3-.6q-.3.05-.3.4l.05.35.25.05zm.2-.75-.15-.45-.45.2v.25h.1l.3.05zm.65-.9H6.8q-.65-.3-.65.3l.05.2.3.1.4-.15v-.25zm.1 5.4.1-.45-.25.6zM-.6 18.15l-.3.4.3.35.3-.15q0-.4-.3-.6m-2.95 2.45-.2.2-.95 1.4v.6l.4.05q.45 0 .95-.7.5-.65.5-1.05l-.05-.55zm1.35-.2-.1.5q.05.7.55.7.55 0 .55-.8l-.05-.55q-.15-.4-.5-.35zm-.25-.45v-.3l-.45-.4-.3.45.45.4.25-.05zm1.05-.9-.4-.3-.15.05-.15.25.1.3.2.05.3-.05z" transform="translate(45.9 10.6)"/><path fill="url(#d)" fill-rule="evenodd" d="M-11.9 33.05q1.15 1.15 1.25 2.65v.6q0 1.9-1.35 5.9l-.55.9-.5 1q-.6 1.25-1.1 1.25-.7 0-.75-1.55-.2.65-1.3.65l-.15-1.4q-.1.6-.45.65h-.65v-.8l.15-.35-.55.1-.5.8q-.5.5-.85.5l-.3-.05-.35-.4-.65.65q-.55.4-.8.4l-.05-.85h-.15q-.5.6-.8.6-.55 0-.55-.65l.05-1h-.15q-.2.5-.9.7V41.7l-1.15.35h-.25l-.1-.15V41l.55-.95h-.1l-1.2 1.55q-.75 1-1.2 1l-.3-.1v-.35l-.15.15v.1l-.65.8q-.55.5-1.05.5l-.5-.45-.2-.65h-.6v-.7q.25-.1.25-.5h-.15l-.7.5q-.5 0-.65-.5v-.9l1.2-.25 1.2-.6h.05q1.45-1.95 5.5-6.35 7.25-9.6 9-14.6l3.05-2.6q2.35-2.3 3.3-3.8l2.75-5.25.7-1.05q-.1 3.7-.75 6.85-.55 2.5-2.45 7.8l-.2.55-.2.3-.05.1q-2.65 4.05-4.55 6.35l-1.4 1.65q-.85.4-2.1 2.55l.3.1 1-.45-.25 1.5.05.15h.25q.6 0 .7-.55h.05l-.05.4v1.2l.35.05.75-.9.5.55q.35 0 1.1-.8zm-11.2 4-.75.05v.25h.1l.35.05q.3 0 .3-.35m-6.6 4.25v.4l.55.05h.2q.8-.15 1.4-1.2.5-.9.5-1.3 0-1.3-1.3.05-1.2 1.15-1.3 1.85zm4.3-2.2-.1-.35q-.5 0-1 .45-.4.45-.4.8l.05.4.3.1q.55 0 .9-.55zm-1.6-1.3v-.25l-.3-.2h-.2l-.1.3.1.3h.2zm.75-.1v.25l.3.15q.3-.2.3-.45l-.3-.25zm4.75 5.4.3.1q.75 0 1.25-.9.45-.7.45-1.35 0-1.2-1.05-.35-1.05.8-1.05 1.95zm-3.3-5q.45-.15.45-.55-.75-.3-.75.1l.1.35zm3.75 1.9q0-.8-1-.2-1.05.65-1.05 1.45l.1.3.35.05q.75 0 1.25-.7.35-.55.35-.9m.35-1 .15.1.3.1.15-.2q0-.25-.15-.3-.3.05-.45.3m-1.85.3-.05-.4-.7-.15h-.05q-.8.4-.8.95v.25l.65.25q.95 0 .95-.9m-.1-1.35.45-.4-.75.05v.25l.15.1zm1.6.45-.4-.3q-.3 0-.3.35l.1.3.2.1zm2.75 1.3-.35.35q-.4.45-.4 1.2-.2.6.45.6.4 0 .75-.8l.25-.7.05-.45q0-.75-.75-.2m.45-.7v-.3l-.45-.2-.2.2.05.3.25.05zm-1.4-.3-.15.25.05.35h.4l.2-.3-.15-.25zm2.65.4-.2.65v.65l.45.1q.4 0 .7-.45l.2-.8v-.4q-.1-.25-.5-.25-.55 0-.65.5m-.7-1.15-.25.25.3.35.45-.45-.3-.3zm.9 0h.25l.4-.4q-.75-.35-.75.1v.25zm1.55 3.45q.35 0 .75-.35l.4-.55v-.05q0-.55-.7-.65-.75-.1-.95.6v.9zm2.1-.45q-.75-.35-2.25 1.5l.1.35.45.1q.4 0 1.15-.7l.65-1.05-.05-.2zm-.75-1.8v.65l.4.1.45-.15q-.25-.6-.85-.6m-.75.05.3-.1.15-.1q0-.25-.35-.6l-.45.5.05.25zm-.8-1.65.2-.2-.15-.3q-.4.05-.5.3zm.3.55-.3-.3q-.3.1-.3.35l.05.3h.25l.3-.05zm2.15 1.7v.05l.15.35h.3l.45-.1v-.35l-.65-.15z" transform="translate(45.9 10.6)"/><path fill="url(#e)" fill-rule="evenodd" d="M-2.95 23.9h.05q2.35.35 2.8 1.05l.05.3v.1l-.25 2v-.2q0-.9-.55-.65t-.55 1.4l.05.45.35.05q.45 0 .65-.55l-.4 2.3-.15-.55-.1.1q-.4-.1-.7.25l-.1.1q-.3.4-.8.3l-.15-.35.15-.65-.6 1.45q-.5 1.25-1.05 1.45v-.75h-.15l-.35.7-.65.65-.35-.9-.9 1.1-.4-.15v-1.1h-.15l-.35.5-.55.1-.15-1.15-.3.55-.6.35q-.45 0-.45-.65l.1-.5q-.8 1.2-1.45 1.55l-.3-.4-.65.9-.3.35q-.75.8-1.1.8l-.5-.55-.75.9-.35-.05v-1.2l.05-.4h-.05q-.1.55-.7.55h-.25l-.05-.15.25-1.5-1 .45-.3-.1q1.25-2.15 2.1-2.55l1.4-1.65q1.9-2.3 4.55-6.35l.05-.1.2-.3.2-.55q1.9-5.3 2.45-7.8.65-3.15.75-6.85 1.3-1.95 2.65-2.55 2.2 1.4 5.1 2.8.3 4.3-2.9 9.15l-3.85 5.15-1.25 1.2-1.4 1.05h.1v.6l.45.15.35-.05.3-.45q0 .4-.6 1.1v.65l.75-.5h.15l.15.75.25.15 1.2-1.45.45.1.05.2zm-7.75 6.85.5-.35.15-.55q0-.55-.5-.45-.55.1-.55.7l.1.5q-.1.15.3.15m-.85-.45-.45-.1q-.35 0-.8.95l-.35.95-.05.2.45.1h.15l.5-.15q.4-.2.4-.6l.25-1zm.3-1.3v-.3h-.65l-.05.2-.05.2.1.3.2.05q.45-.05.45-.45m-1.95 1.8q0-.85-.8-.2l-.5.45-.35.55.1.35h.25l.8-.3.15-.15q.35-.4.35-.7m0-1.4v.25l.1.05h.25l.4-.4q-.75-.35-.75.1m-1.7 1.35.8-.65-.05-.35-.9.3-.35.3-.1.15.05.3h.1q-.15.1.2.1zm1.05-1.9.1.3.2.1.35-.45-.35-.25-.2.05zm7.1.7q-.6.2-.6 1.05v.45l.3.05.6-.5.3-.65q0-.6-.6-.4m.75-.75-.05-.3q-.1-.15-.25-.15l-.25.2-.05.1.1.3h.2zm-2.25 1.65.6-.35.25-.55q0-.7-.65-.4-.7.35-.7.95l.05.35zm-1.2-1.65-.3.35.3.4q.3 0 .3-.3zm-.6-.35.15-.1q0-.25-.35-.6l-.2.25-.2.2v.25l.15.05.15.05zm2.4-.15v.2l.1.15h.35l.15-.1.1-.2q-.15-.2-.4-.3zm-.8-.75-.25.25.05.3h.1q-.15.1.25.1l.3-.05.05-.1v-.4zm-.75.25q.35-.1.35-.35l-.35-.3-.2.05-.1.25.05.3zm4.7 1.85q-.05-.25-.5-.25-.4 0-.7.75L-6 31.2l.1.45.35.05.75-.65q.3-.6.3-1.15zm-.2-1.3-.1-.15-.3-.15-.3.25v.05l.1.3h.35zm1.85.2q0-.65-.55-.2t-.55.9l.05.65.4.1q.65 0 .65-1.45M-3 26.9l.35-.05.1-.1q0-.4-.35-.65l-.2.25-.2.25v.25h.1zm-1 .4-.2.3v.25l.1.05h.25l.3-.1.25-.35-.35-.3zm2.2.2q0-.4-.2-.5h-.25l-.4.35-.05.35.1.65.3.05.35-.3zm-.45-2.4-.2.1-.1.3.1.35.2.1.3-.3q0-.35-.3-.55m1.2.7-.05-.4q-.7-.1-.7.25v.25l.15.05.2.05.3-.05z" transform="translate(45.9 10.6)"/><path fill="url(#f)" fill-rule="evenodd" d="M-27.3 42.6q1.2.6 1.6 1.1l.15.15-.1.8-.2 1.35-.25 1.85-.5.75-.7.45-.6-.55-.35.45-.45.3q-.45 0-.75-.7-.35-.65-.15-1-.5.15-1.05.75l-.4-1.5-.95.05.5-1.65h-.15l-1.1.9-1.45.55-1.95.35q-.4 0-.6-.3l-.45-.6q-.2.55-.8.55h-.35l-.25-.6.05-.7-.95.05q-.55-.2-.55-.6 0-.5.35-.95l.7-1.05-.15-.15-1.05-.35.7-.75.5-.6-1.2-.25q-.85-.2-.9-.95l-.65-.2-.55-.55.4-.15h-.15l-1.5.3q-1.05-.1-1.05-.8l.15-.35.15-.3-1.6-1.15.85-.85 1.25-.4-.5-.45-.3-.5v-.2l.15-.1h.75v-.15l-.6-.7.05-.3h1.3q1 .55 1.4.55 6.85 0 21.6-10.65l1.45-1.75q.95-1.25 2.45-1.85l1-.5q-1.75 5-9 14.6-4.05 4.4-5.5 6.35h-.05l-1.2.6-1.2.25v.9q.15.5.65.5l.7-.5h.15q0 .4-.25.5v.7h.6l.2.65.5.45q.5 0 1.05-.5l.65-.8.15.1zm-6 .6.25.05.35-.05.1-.3-.05-.2-.1-.05q-.6-.1-.6.25zm-1.4-.6-.1.05v.45h.15l.3.1.3-.1.15-.15-.05-.35zm-.55-.9-.15.05-.15.25.1.3.2.05.3-.05.1-.3zm-3.1-4.65h-.05q-.65-.2-.65.15l.05.3.35.05.25-.05q.1.15.1-.25zm-1.6-.7.05.25.25.05.35-.1.1-.25-.1-.15q-.25-.2-.45-.1zm-.25-1.25-.3-.05-.15.25.15.4h.3l.25-.4zm9.4 9.8v.3l.6.25q1.05 0 1.05-.9l-.1-.45-.95.1q-.6.35-.6.7m-1.75.25q.45-.3.45-.75 0-.85-.9-.55-.9.35-.9 1.1l.1.4.4.1zm-3-.75q-.9.5-.9.9 0 .6.6.6.55 0 .9-.55l.3-.65q0-.75-.9-.3m-2.35.45 1.4-.3q.65-.3.65-.75 0-.9-1.35-.65t-1.35 1.05q-.25.65.65.65m2-3.3.2.05.3-.3q0-.25-.3-.45l-.2.1-.1.3zm-.45-.85h.2l.3-.05v-.3l-.3-.3-.3.35zm-2.35 1.2.3.45h1.3q.6-.25.6-.75-.55-.55-1.4-.3-.8.2-.8.6m-.65-3.35-.1-.3-1.1.1-.4.5.1.3.45.05.75-.25zm3.65.5-.3-.2h-.3v.45l.3.15.3-.15zm-1.35.8-.05-.2-1.2.1v.65l.45.1.5-.15zm-.65-1.9v-.3l-.3-.25-.2.1-.1.3.05.25.25.05q.1-.15.3-.15m.65.35.3-.05.1-.3q-.15-.2-.4-.3l-.15.05-.15.25.1.3zm1.35.15.25-.05.05-.3-.3-.3q-.3.1-.3.35l.1.3zm4.05 3.9-.3.3v.25l.3.15q.3-.2.3-.45zM-28.1 45q-.4.1-.85.55l-.5.8.05.3.6.05.75-.05v-.3l.15-.4.15-.45q0-.25-.35-.5m-.7-1.1.3.35.3-.15-.05-.45q-.55-.2-.55.25m2.7 2.05q0-1.15-.75-.4-.75.7-.75 1.55-.2.6.7.6.4 0 .65-.75zm-1.65-1.2.25.1.15-.05.2-.2.1-.25-.1-.25h-.6l-.05.3zm1.8-.8h-.5l-.1.3.1.3.2.15.3-.15.1-.3zm-16.8-5.55.4.05 1.05-.2q.8-.3.8-.7l-.05-.35q-2.2-.2-2.2 1.2m1.95-4.3-.2.1-.1.3.1.25.2.05.3-.15q0-.35-.3-.55m-2.45.1v.65l.65.1.7-.15q.1-.1.05-.45l-.7-.25zm-1 2.25q0 .45.6.6h1.75l.7-.5.2-.25q0-.75-1.6-.65-1.65.1-1.65.8m3.7-2.75-.1-.25-.75.15.15.35.3.1.3-.05v-.1q.1.2.1-.2m-1.75.05.1-.15-.1-.3q-.8-.2-.8.3l.05.2.4.1q.25 0 .35-.15" transform="translate(45.9 10.6)"/><path fill="url(#g)" fill-rule="evenodd" d="m-27 42.9.2.05.3-.2-.05-.15q-.3-.2-.5.25zm1.75-.85h.25l1.15-.35v1.65q.7-.2.9-.7h.15l-.05 1 .1.4-1.6 1.55-1.4 1.85-.1.1-.25.3.05-.45-.2-.6.25-.85.2-.3q-.1-.15-.25-.2l-.05-.2.1-.45-.55.1-.55-.15h-.05l-.15-.05v-.25l.05-.1.2-.5h-.4l-.2-.3-.05-.25-.45-.35q0-.5.35-.65v-.05h.2l.1.1v.05l.05.05.45.05.9-.9 1.2-1.55h.1l-.55.95v.9zm.15 1.2.05.05.15.05.1-.05-.15-.2zM-.7 24.1q0-.55-.65-.1T-2 25l.45.25.55-.5zm.45-.4.15-.15q-.25-.35-.4.1zm-.7-.35.15.05.15-.05q.05-.25-.2-.25l-.15.15zm1.4-.05L.2 24.7q-.05 1.5-.5 2.35l-.4-.4-.4-.7-.15.1H-2l-.05-.05-.25-.25-.15-.2-.05-.45.05-.25h-.25l-.3-.55.05-.4.2-.2.3-.3.6-.9h.15v.65l.05.1 1.05-.95.75-.95q0 .95.15 1.45l.5-.3zm-.3.65.1-.15-.15-.15-.15.25zm-27.3 18.8-.05.05.1-.05zm15.9-2.35.25.05.55-.5.6-.7-.05-.15h-.15l-.7.55zm.4-2.2.3.3q.45 0 1.15-.55l.65-.7q0-.35-.65-.25l-.65.2-.55.5zm.6-3.75q0-.5-.65-.2-.65.2-.8.5V35l.35.05.7-.2zm-.95-.7.3-.1q-.05-.35-.3-.3l-.35.3zm1-.65-.15-.15-.15.15.05.15h.15zm.5 2.7-.15-.25h-.4l-.75.4-.3.5.3.25.85-.25zm1.4.75-.15.15.05.1.15.05.15-.15zm-.4-.5-.15.15.05.1.15.05.1-.05zm-.3-.15.1-.05v-.15l-.15-.15-.15.25zm-.6-.7.05.1.15.05q.15 0 .15-.2l-.15-.2zm-.05-.65.05-.15-.05-.1q-.25-.1-.35.2l.3.1zm-.45-.75.15-.15-.2-.15-.15.15.05.1zm2.9-2h.15v1.1l.4.15.9-1.1.35.9.35-.2q-.9 1.95-2.25 3.75l-4.35 5.35.05.1-.15.15h-.1l-.1.15.05-.2-.1-.35q0-.6.5-1.25l.15-.45-.1-.25.2-.35.1-.1q-.4-.1-.4-.5 0-.75.45-.85-1.1.05-1.1-.95l.35-.9h.05q-.7-.1-.7-.65l.3-.8-.35-.2-.05-.25.4-.75.3-.3.65-.9.3.4q.65-.35 1.45-1.55l-.1.5q0 .65.45.65l.6-.35.3-.55.15 1.15.55-.1zm6.65-6.65.25.2q.4 0 .4-.95-.25-.15-.45.2zM-24.4 43.5l-.15.25.2.05.15-.15zm.6.85.15-.25-.15-.1q-.2 0-.2.3zm-2 .9.2.1.65-.45.45-.6-.05-.1q-.35-.05-.75.35zm-.5-1.2v.25l.25.05.5-.25.4-.4-.05-.15-.65.15zm.45-.85q-.25-.4-.6-.2l-.35.45.3.15.4-.1zm.35-.6-.15.25.2.05q.25 0 .15-.15zm-.45-.55-.2.15.05.1.15.05.15-.2z" transform="translate(45.9 10.6)"/><path fill="url(#h)" fill-rule="evenodd" d="m85.75 35.3.25.4h.3l.15-.4-.15-.25-.3.05zm-1.6 1.75-.05.2q0 .4.1.25l.25.05.35-.05.05-.3q0-.35-.65-.15zm1.4-1-.45.1-.1.15.1.25.35.1.25-.05.05-.25zm3.2-3.15h1.3l.05.3-.6.7v.15h.75l.15.1v.2l-.3.5q-.4.3-.5.45.5 0 1.25.4l.85.85q0 .25-1.6 1.15l.15.3.15.35q0 .7-1.05.8l-1.5-.3h-.15l.4.15-.55.55-.65.2q-.05.75-.9.95l-1.2.25.5.6.7.75-1.05.35-.15.15.7 1.05q.35.45.35.95 0 .4-.55.6l-.95-.05.05.7-.25.6h-.35q-.6 0-.8-.55l-.45.6q-.2.3-.6.3L80 46.65l-1.45-.55-1.1-.9h-.15l.5 1.65-.95-.05-.4 1.5-1.05-.75q.2.35-.15 1-.3.7-.75.7l-.45-.3-.35-.45-.6.55q-.35 0-.7-.45l-.5-.75-.25-1.85-.2-1.35-.1-.8.15-.15q.4-.5 1.6-1.1-.45 0-1.2-1l-1.2-1.55h-.1l.55.95v.9l-.1.15h-.25l-1.15-.35v1.65q-.7-.2-.9-.7h-.15l.05 1q0 .65-.55.65l-.8-.6h-.15l-.05.85q-.25 0-.8-.4l-.65-.65-.35.4-.3.05q-.35 0-.85-.5-.5-.45-.5-.8l-.55-.1.15.35v.8h-.65q-.35-.05-.45-.65l-.15 1.4q-1.1 0-1.3-.65-.05 1.55-.75 1.55-.5 0-1.1-1.25l-.5-1-.55-.9q-1.35-4-1.35-5.9v-.6q.1-1.5 1.25-2.65l-.65-.9-.3.4L55.3 31l.1.5q0 .65-.45.65-.35 0-.6-.35l-.3-.55-.15 1.15-.55-.1-.35-.5h-.15v1.1l-.4.15-.9-1.1-.35.9-.65-.65-.35-.7h-.15v.75q-.55-.2-1.05-1.45l-.6-1.45.15.65-.15.35q-.5.1-.8-.3l-.1-.1q-.3-.35-.7-.25l-.1-.1-.15.55-.4-2.3q.2.55.65.55l.35-.05.05-.45q0-1.15-.55-1.4t-.55.65v.2l-.25-2v-.1l.05-.3q.45-.7 2.8-1.05h.05l-.5-.5-.6-.9h-.15v.65l-.05.1-1.05-.95-.75-.95-.15 1.45-.55-.35-.65-.55.15.35v.9l-.35.1-1-.85v-.15l-.05.9-.35.1-.95-1.05-.15-.15-.45.95q-.8 0-1.4-1.65v.55l-.15.15q-.4-.3-.75-1.35l.15.15-.25-.6.1.45-.5-1.6-.2-1.05-.05.15-.6.55q-.5 0-.7-.7l-.2-.8v.8l-.15.15q-.3-.15-.55-1.1l-.2-1 .65.25.3-.7-.05-.5-.4-.55q-.6.7-.6 1.1l.1.4v.7l-.65-2.4.4.05q.45 0 .55-.3v-.3l-.55-.8q-.45.2-.45.85v.5l-.15.35h-.15l-.15-1.25q0-.65.9-3.85l.1 1.35.15-1.7q2.55-.75 6.2-2.4l1.4-.65q2.9-1.4 5.1-2.8 1.35.6 2.65 2.55l.7 1.05 2.75 5.25q.95 1.5 3.3 3.8l3.05 2.6 1 .5q1.5.6 2.45 1.85l1.45 1.75q14.75 10.65 21.6 10.65.4 0 1.4-.55m.15.7q0-.5-.8-.3l-.1.3.1.15.35.15.4-.1zm-2.55.1q0 .4.1.2v.1l.3.05.3-.1.15-.35-.75-.15zm1.3.65q-.05.35.05.45l.7.15.65-.1v-.65l-.7-.1zm-.75.15-.1-.3-.2-.1q-.3.2-.3.55l.3.15.2-.05zm.1 2.05.7.5h1.75q.6-.15.6-.6 0-.7-1.65-.8-1.6-.1-1.6.65zm1.55 1.85q0-1.4-2.2-1.2l-.05.35q0 .4.8.7l1.05.2zm-1.8.45-.4-.5-1.1-.1-.1.3.3.4.75.25.45-.05zM83.8 37.4l-.3.25v.3q.2 0 .3.15l.25-.05.05-.25-.1-.3zm-.75.85.1-.3-.15-.25-.15-.05-.4.3.1.3.3.05zm-1.8.15.25.05h.2l.1-.3-.3-.35-.3.3zm.55.45-.3.2v.25l.3.15.3-.15v-.45zm1.05 1q0 .3.3.5l.5.15.45-.1v-.65l-1.2-.1zm-.6.55q0-.25-.3-.35l-.3.3v.3l.3.05h.2zm-.75 1.2.2-.05.1-.3-.1-.3-.2-.1-.3.45zm-.45.1-.4.3.1.3.3.05.2-.05.1-.3-.15-.25zm1.85.65h1.3l.3-.45q0-.4-.8-.6-.85-.25-1.4.3 0 .5.6.75m1.45 1.85q0-.8-1.35-1.05t-1.35.65q0 .45.65.75l1.4.3q.9 0 .65-.65m-2.1 1.1q0-.4-.9-.9-.9-.45-.9.3l.3.65.9.55q.6 0 .6-.6M46.4 18.15q-.3.2-.3.6l.3.15.3-.35zm-5.1 0-.3.6.3.05h.2l.1-.3zm-.55-.55-.2-.2q-.35.2-.35.5.1.25.4.25h.2l.15-.35zm3.1.7.1.3.2.05.3-.15v-.2l-.1-.25-.2-.05zm1.4-.7-.3.3v.25q-.05.15.3.15l.25-.1.05-.2-.1-.3zm.3 2.45q0 .3.6.65.25 0 .3-.15V19.5l-.7.3-.2.2zm-1.05-.45q-.55-.45-.65.2v.3l.2.55q.3.4.7.4l.45-.05-.4-1.1zm-1-.5.05-.3q0-.45-.6-.3l-.05.45.05.15.3.1zM44 21l-1.05-1.2q-.5.35-.5.75l.25.7.7.5.6-.1zm-1.55-1.75h.1l.05-.3-.2-.25-.5.05-.05.15.4.45.25-.05zm-.75 1.35q0-1.15-.75-1.05-.7.15-.7 1.05 0 1 .75 1 .9 0 .7-1m7-1.35-.45.4v.3l.05.1.25.05.45-.4zm0 1.3-.05.55q0 .4.5 1.05.5.7.95.7l.4-.05v-.6l-.95-1.4-.2-.2zm-.95-1.75-.15-.05-.4.3.1.3.3.05.2-.05.1-.3zm-.75 2q0 .8.55.8.5 0 .55-.7l-.1-.5-.45-.5q-.35-.05-.5.35zm10.75 8.1-.05-.2h-.65v.3q0 .4.45.45l.2-.05.1-.3zm-1.3-.7-.2-.2-.2-.25q-.35.35-.35.6l.15.1.3.1.15-.05.15-.05zm-.1 1.2q-.5-.1-.5.45l.15.55q.25.35.5.35.4 0 .3-.15l.1-.5q0-.6-.55-.7m1 .9-.1.35.25 1q0 .4.4.6l.5.15h.15l.45-.1-.05-.2-.35-.95q-.45-.95-.8-.95zm2.2-1.7-.2-.05-.35.25.35.45.2-.1.1-.3zm-.55.8q0-.45-.75-.1l.4.4h.25l.1-.05zm1.7 1.35.25.15q.35 0 .2-.1h.1l.05-.3-.1-.15-.35-.3-.9-.3-.05.35zm-1.7.05q0 .3.35.7l.15.15.8.3h.25l.1-.35-.35-.55-.5-.45q-.8-.65-.8.2m-4.75-3.25-.5.1v.4l.05.1.3.05.25-.1h.1l.05-.3zm.95-.35-.2-.05-.35.3q0 .25.35.35l.25-.05.05-.3zm-2.35 1.35.15.1h.35l.1-.15v-.2l-.3-.25-.4.3zm-.55.4.1-.3-.05-.1-.25-.2-.25.15-.05.3.3.15zm-1.4-.9-.3.15-.1.15.25.3h.35l.1-.3v-.05q0-.25-.3-.25m-.1 1.35q-.45 0-.5.25v.25q0 .55.3 1.15.35.65.75.65l.35-.05.1-.45-.3-1.05q-.3-.75-.7-.75m1.15.55.3.65.6.5.3-.05v-.45q0-.85-.6-1.05t-.6.4m3-.7q0 .3.3.3t.3-.4l-.3-.35zm-1.5.85q.3.35.6.35h.45l.05-.35q0-.6-.7-.95-.65-.3-.65.4zm-5.2-4.9-.2-.1q-.3.2-.3.55l.3.3.2-.1.1-.35zm.65 1.15-.2-.25q-.35.25-.35.65l.1.1.35.05.2-.05h.1v-.25zm.45 1.45.3.1h.25l.1-.05v-.25l-.2-.3-.35-.15-.35.3zm-.9-.45-.4-.35h-.25l-.2.5.15.6.35.3.3-.05.1-.65zm-1.5-1.4.3.05.2-.05.15-.05v-.25q0-.35-.7-.25l-.05.4zm1.7 2.6q0 1.45.65 1.45l.4-.1.05-.65q0-.45-.55-.9t-.55.2m11.9 9.85.3.05h.25l.05-.3-.3-.35-.3.3zm-2.4 1.2-.65.15v.35l.45.1h.3l.15-.35v-.05zm.3.15.45.15.4-.1v-.65q-.6 0-.85.6m1.6-.55.3-.05.05-.25-.45-.5q-.35.35-.35.6l.15.1zm-.55 1.3.4.55q.4.35.75.35l.5-.1v-.9q-.2-.7-.95-.6-.7.1-.7.65zm-1 .45-.05.2.65 1.05q.75.7 1.15.7l.45-.1.1-.35q-1.5-1.85-2.25-1.5zm10.4-3.9q0 .35.3.35l.35-.05h.1v-.25zm1.9.95.1-.35q0-.4-.75-.1 0 .4.45.55zm-2.2-.05.15-.1v-.25l-.75-.05q.25.4.45.4zm.5.8-.7.15-.05.4q0 .9.95.9.55 0 .65-.25v-.25q0-.55-.8-.95zm-1.85-.65-.4.3.4.45.2-.1.1-.3q0-.35-.3-.35m-.9 1 .15-.1-.45-.3q-.15.05-.15.3l.15.2zm.5.9q0 .35.35.9.5.7 1.25.7l.35-.05.1-.3q0-.8-1.05-1.45-1-.6-1 .2m.45 3.1.1-.55q0-1.15-1.05-1.95-1.05-.85-1.05.35 0 .65.45 1.35.5.9 1.25.9zM63.65 39l.35.05.25-.05.05-.3-.2-.2-.45.2zm.45.7q-.75-.55-.75.2l.05.45.25.7q.35.8.75.8.65 0 .45-.6 0-.75-.4-1.2zm.65-.4h.4l.05-.35-.15-.25-.35.05-.15.25zm-2.45-1.65q0-.45-.75-.1l.4.4h.25l.1-.05zm.6.15-.3.3.45.45q.3 0 .3-.35l-.25-.25zm-1.6-.45-.5-.3-.15.3.2.2zm-.05 1.9.2.8q.3.45.7.45l.45-.1v-.65l-.2-.65q-.1-.5-.65-.5-.4 0-.5.25zM78.4 42.9q0 .4.1.3l.35.05.25-.05.05-.3q0-.35-.6-.25l-.1.05zm-.65-.25-.3-.3-.3.25.3.45.3-.15zm2.4.55.3-.1h.15v-.45l-.1-.05h-.75l-.05.35.15.15zm-6.85-5.25.1-.3-.1-.3h-.2l-.3.2v.25l.3.15zm-1.55-.55-.3.25.3.45.3-.15v-.25zm-.3 2.55q.35.55.9.55l.3-.1.05-.4q0-.35-.4-.8-.5-.45-1-.45l-.1.35zm1.95 2.2v.35l.15-.1v-.1zm2.1-.85-.05-.15q-.1-.7-1.3-1.85-1.3-1.35-1.3-.05l.5 1.3q.6 1.05 1.4 1.2h.2l.55-.05zm-.55 3.25q0 .9 1.05.9.55 0 .6-.25v-.3q0-.35-.6-.7l-.95-.1zm-.65-.3.3-.35q0-.45-.55-.25l-.05.45zm-.7.15-.05-.3h-.6l-.1.25.1.25.2.2.15.05.25-.1zm-.05 1.1.15.45.15.4v.3l.75.05.6-.05.05-.3-.5-.8q-.45-.45-.85-.55zm-1.2-1.25-.1-.3h-.5l-.1.3.1.3.3.15.2-.15zm-.45 1.7q0 .5.15 1 .25.75.65.75.9 0 .7-.6 0-.85-.75-1.55-.75-.75-.75.4m7.7-.6.1-.4q0-.75-.9-1.1-.9-.3-.9.55 0 .45.45.75l.85.3zm-43.9-33.8-.4.35q-.1.15-.05.55l.35.15.3-.25.05-.05.05-.3-.1-.3zm1.3-.15-.2-.1q-.3.25-.3.55l.3.2.25-.05.05-.3zm1.95 3.9-.05.2v.25l.4.15.3-.1.05-.2q0-.6-.65-.3zm-.8-.1v.25l.3.15.3-.3V15h-.3zm-.9-2.6-.65-.1-.1.4.35.15h.25zm-.5 1.2.4.3h.25l.1-.1.05-.25-.25-.25q-.25-.1-.5.15zm.65.8.3.25.3-.3q0-.4-.3-.45zm-.45 1.6.15.3.45.15.45-.1v-.75q-.25-.3-.55-.2-.25.05-.5.6m3.25-.25-.45-.2q-.15.1-.15.45l.2.05.3-.05h.1zm-.1.4q-.3.25-.3.6l.3.2.25-.05.05-.35q0-.35-.3-.4m-1.35 1.25.35.15h.1l.3-.05v-.45q0-.35-.3-.45-.4.15-.45.55zm1.2.95v-.05h-.05q-.6-.2-.8.2l-.05.5v.55q.1.35.5.35l.25-.05V20l.15-.05z" transform="translate(45.9 10.6)"/><path fill="none" stroke="#c8a9b1" stroke-linecap="round" stroke-linejoin="round" stroke-width=".1" d="m104.3 50.4-.25-.2m10.95-.85-.7.15M85.8 29.1l.05.05"/><path fill="url(#i)" fill-rule="evenodd" d="m48.75 23.9-.5-.5-.6-.9h-.15v.65l-.05.1-1.05-.95-.75-.95-.15 1.45-.55-.35-.65-.55.15.35v.9l-.35.1-1-.85v-.15l-.05.9-.35.1-.95-1.05-.15-.15-.45.95q-.8 0-1.4-1.65v.55l-.15.15q-.4-.3-.75-1.35l-.5-1.6-.2-1.05-.05.15-.6.55q-.5 0-.7-.7l-.2-.8v.8l-.15.15q-.3-.15-.55-1.1l-.2-1v.7l-.65-2.4.4.05q.45 0 .55-.3v-.3l-.55-.8q-.45.2-.45.85v.5l-.2.35h-.1l-.15-1.25q0-.65.9-3.85l.1 1.35.15-1.7q2.55-.75 6.2-2.4l1.4-.65q-.3 4.3 2.9 9.15l3.85 5.15 1.25 1.2 1.4 1.05h-.1v.6l-.45.15-.35-.05-.3-.45.6 1.1v.65l-.75-.5h-.15l-.15.75-.25.15-1.2-1.45-.3-.35v-.15l-.15.6zm-2.35-5.75q-.3.2-.3.6l.3.15.3-.35zm-5.45-.35-.2-.2-.2-.2q-.35.2-.35.5.1.25.4.25h.2zm.35.35-.3.6.3.05h.2l.1-.3zm2.55.15.1.3.2.05.3-.15v-.2l-.1-.25-.2-.05zm1.4-.7-.3.3v.25q-.05.15.3.15l.25-.1.05-.2-.1-.3zm-.75 2q-.55-.45-.65.2v.3l.2.55q.3.4.7.4l.45-.05-.4-1.1zm1.05.45q0 .3.6.65.25 0 .3-.15V19.5l-.7.3-.2.2zm-2-1.25q0-.45-.6-.3l-.05.45.05.15.3.1.25-.1zM44 21l-1.05-1.2q-.5.35-.5.75l.25.7.7.5.6-.1zm-1.55-1.75h.1l.05-.3-.2-.25-.5.05-.05.15.4.45.25-.05zm-.75 1.35q0-1.15-.75-1.05-.7.15-.7 1.05 0 1 .75 1 .9 0 .7-1m7.3-.9-.3-.45-.45.4v.3l.05.1.25.05zm-.3.85-.05.55q0 .4.5 1.05.5.7.95.7l.4-.05v-.6l-.95-1.4-.2-.2zm-.95-1.75-.15-.05-.4.3.1.3.3.05.2-.05.1-.3zm-.2 2.8q.5 0 .55-.7l-.1-.5-.45-.5q-.35-.05-.5.35l-.05.55q0 .8.55.8m-11.6-9.3L36 12l-.1-.3-.2-.15-.4.35q-.1.15-.05.55l.35.15.3-.25zm1.05-.9-.2-.1q-.3.25-.3.55l.3.2.25-.05.05-.3zm1.15 4.05.3.15.3-.3V15h-.3l-.3.2zm.8-.15-.05.2v.25l.4.15.3-.1.05-.2q0-.6-.65-.3zm-1.85-2.25.15-.45-.65-.1-.1.4.35.15zm-.3.6-.05.15.4.3h.25l.1-.1.05-.25-.25-.25q-.25-.1-.5.15m-1.1 2.45.65.25.3-.7-.05-.5-.4-.55q-.6.7-.6 1.1zm2-1.25.3-.3q0-.4-.3-.45l-.3.5zm-.15 1.8.45-.1v-.75q-.25-.3-.55-.2-.25.05-.5.6l.15.3zm2.65-.45v-.25l-.45-.2q-.15.1-.15.45l.2.05.3-.05zm-.1.15q-.3.25-.3.6l.3.2.25-.05.05-.35q0-.35-.3-.4m-1 1.4h.1l.3-.05v-.45q0-.35-.3-.45-.4.15-.45.55v.25zm.8.75q-.6-.2-.8.2l-.05.5v.55q.1.35.5.35l.25-.05V20l.15-.05V18.5zm-1.05 2.2.15.15-.25-.6z" transform="translate(45.9 10.6)"/><path fill="url(#j)" fill-rule="evenodd" d="m57.7 33.05-.65-.9-.3.4L55.3 31l.1.5q0 .65-.45.65-.35 0-.6-.35l-.3-.55-.15 1.15-.55-.1-.35-.5h-.15v1.1l-.4.15-.9-1.1-.35.9-.65-.65-.35-.7h-.15v.75q-.55-.2-1.05-1.45l-.6-1.45.15.65-.15.35q-.5.1-.8-.3l-.1-.1q-.3-.35-.7-.25l-.1-.1-.15.55-.4-2.3q.2.55.65.55l.35-.05.05-.45q0-1.15-.55-1.4t-.55.65v.2l-.25-2v-.1l.05-.3q.45-.7 2.8-1.05h.05l.35.15.05-.2.45-.1 1.2 1.45.25-.15.15-.75h.15l.75.5v-.65l-.6-1.1.3.45.35.05.45-.15v-.6h.1l-1.4-1.05-1.25-1.2-3.85-5.15q-3.2-4.85-2.9-9.15 2.9-1.4 5.1-2.8 1.35.6 2.65 2.55.1 3.7.75 6.85.55 2.5 2.45 7.8l.2.55.2.3.05.1q2.65 4.05 4.55 6.35l1.4 1.65q.85.4 2.1 2.55l-.3.1-1-.45.25 1.5-.05.15h-.25q-.6 0-.7-.55h-.05l.05.4v1.2l-.35.05-.75-.9-.5.55-1.1-.8zm-.65-4.35v.3q0 .4.45.45l.2-.05.1-.3-.05-.2-.05-.2zm-.6-.5-.2-.2-.2-.25q-.35.35-.35.6l.15.1.3.1.15-.05.15-.05zm-.1 1.2q-.5-.1-.5.45l.15.55q.25.35.5.35.4 0 .3-.15l.1-.5q0-.6-.55-.7m1 .9-.1.35.25 1q0 .4.4.6l.5.15h.15l.45-.1-.05-.2-.35-.95q-.45-.95-.8-.95zm2.2-1.7-.2-.05-.35.25.35.45.2-.1.1-.3zM59 29.65v-.25q0-.45-.75-.1l.4.4h.25zm1.7 1.1.25.15q.35 0 .2-.1h.1l.05-.3-.1-.15-.35-.3-.9-.3-.05.35zm-1.7.05q0 .3.35.7l.15.15.8.3h.25l.1-.35-.35-.55-.5-.45q-.8-.65-.8.2m-4.75-3.25-.5.1v.4l.05.1.3.05.25-.1h.1l.05-.3zm.75.25.25-.05.05-.3-.1-.25-.2-.05-.35.3q0 .25.35.35m-2 .85h.35l.1-.15v-.2l-.3-.25-.4.3.1.2zm-.7.3.1-.3-.05-.1-.25-.2-.25.15-.05.3.3.15zm-1.1-.65q0-.25-.3-.25l-.3.15-.1.15.25.3h.35l.1-.3zm-.4 1.1q-.45 0-.5.25v.25q0 .55.3 1.15.35.65.75.65l.35-.05.1-.45-.3-1.05q-.3-.75-.7-.75m1.75.15q-.6-.2-.6.4l.3.65.6.5.3-.05v-.45q0-.85-.6-1.05m2.4-.3q0 .3.3.3t.3-.4l-.3-.35zm-1.5.85q.3.35.6.35h.45l.05-.35q0-.6-.7-.95-.65-.3-.65.4zm-5.1-4.6-.1-.3-.2-.1q-.3.2-.3.55l.3.3.2-.1zm.65 1.35h.1v-.25l-.2-.25-.2-.25q-.35.25-.35.65l.1.1.35.05zm.35.95.3.1h.25l.1-.05v-.25l-.2-.3-.35-.15-.35.3zm-.9-.45-.4-.35h-.25l-.2.5.15.6.35.3.3-.05.1-.65zM47.25 26l.2-.05.15-.05v-.25q0-.35-.7-.25l-.05.4.1.15zm1.4 2.55q0 1.45.65 1.45l.4-.1.05-.65q0-.45-.55-.9t-.55.2" transform="translate(45.9 10.6)"/><path fill="url(#k)" fill-rule="evenodd" d="M60.85 18.7q1.75 5 9 14.6 4.05 4.4 5.5 6.35h.05l1.2.6 1.2.25v.9q-.15.5-.65.5l-.7-.5h-.15q0 .4.25.5v.7h-.6l-.2.65-.5.45q-.5 0-1.05-.5l-.65-.8v-.1l-.15-.15v.35l-.3.1q-.45 0-1.2-1l-1.2-1.55h-.1l.55.95v.9l-.1.15h-.25l-1.15-.35v1.65q-.7-.2-.9-.7h-.15l.05 1q0 .65-.55.65l-.8-.6h-.15l-.05.85q-.25 0-.8-.4l-.65-.65-.35.4-.3.05q-.35 0-.85-.5-.5-.45-.5-.8l-.55-.1.15.35v.8h-.65q-.35-.05-.45-.65l-.15 1.4q-1.1 0-1.3-.65-.05 1.55-.75 1.55-.5 0-1.1-1.25l-.5-1-.55-.9q-1.35-4-1.35-5.9v-.6q.1-1.5 1.25-2.65l.3.35 1.1.8.5-.55.75.9.35-.05v-1.2l-.05-.4h.05q.1.55.7.55h.25l.05-.15-.25-1.5 1 .45.3-.1Q61.5 30 60.65 29.6l-1.4-1.65q-1.9-2.3-4.55-6.35l-.05-.1-.2-.3-.2-.55q-1.9-5.3-2.45-7.8-.65-3.15-.75-6.85l.7 1.05 2.75 5.25q.95 1.5 3.3 3.8zm-.3 19.7.3.05h.25l.05-.3-.3-.35-.3.3zm-2.15 1.45v-.05l-.25-.2-.65.15v.35l.45.1h.3zm.05-.1.45.15.4-.1v-.65q-.6 0-.85.6m1.9-.6.05-.25-.45-.5q-.35.35-.35.6l.15.1.3.1zm.3 2.25.5-.1v-.9q-.2-.7-.95-.6-.7.1-.7.65v.05l.4.55q.4.35.75.35m-2.15-.45-.05.2.65 1.05q.75.7 1.15.7l.45-.1.1-.35q-1.5-1.85-2.25-1.5zm10.4-3.9q0 .35.3.35l.35-.05h.1v-.25zm1.7 1.05.2-.1.1-.35q0-.4-.75-.1 0 .4.45.55m-2-.15.15-.1v-.25l-.75-.05q.25.4.45.4zm.7 2.25q.55 0 .65-.25v-.25q0-.55-.8-.95h-.05l-.7.15-.05.4q0 .9.95.9m-2.05-2.1-.4.3.4.45.2-.1.1-.3q0-.35-.3-.35m-1.2 1.1.3-.1.15-.1-.45-.3q-.15.05-.15.3zm.8.8q0 .35.35.9.5.7 1.25.7l.35-.05.1-.3q0-.8-1.05-1.45-1-.6-1 .2m.45 3.1.1-.55q0-1.15-1.05-1.95-1.05-.85-1.05.35 0 .65.45 1.35.5.9 1.25.9zM64.25 39l.05-.3-.2-.2-.45.2v.3l.35.05zm-.15.7q-.75-.55-.75.2l.05.45.25.7q.35.8.75.8.65 0 .45-.6 0-.75-.4-1.2zm.6-.95-.15.25.2.3h.4l.05-.35-.15-.25zm-2.4-1.1q0-.45-.75-.1l.4.4h.25l.1-.05zm.3.45.45.45q.3 0 .3-.35l-.25-.25-.2-.15zm-1.3-.75-.5-.3-.15.3.2.2zm.15 2.7q.3.45.7.45l.45-.1v-.65l-.2-.65q-.1-.5-.65-.5-.4 0-.5.25v.4zm11.85-2.1.1-.3-.1-.3h-.2l-.3.2v.25l.3.15zm-1.55-.55-.3.25.3.45.3-.15v-.25zm-.3 2.55q.35.55.9.55l.3-.1.05-.4q0-.35-.4-.8-.5-.45-1-.45l-.1.35zm4.05 1.35-.05-.15q-.1-.7-1.3-1.85-1.3-1.35-1.3-.05l.5 1.3q.6 1.05 1.4 1.2h.2l.55-.05z" transform="translate(45.9 10.6)"/><path fill="url(#l)" fill-rule="evenodd" d="m85.75 35.3.25.4h.3l.15-.4-.15-.25-.3.05zm-1.6 1.75-.05.2q0 .4.1.25l.25.05.35-.05.05-.3q0-.35-.65-.15zm1.4-1-.45.1-.1.15.1.25.35.1.25-.05.05-.25zM60.85 18.7l1 .5q1.5.6 2.45 1.85l1.45 1.75q14.75 10.65 21.6 10.65.4 0 1.4-.55h1.3l.05.3-.6.7v.15h.75l.15.1v.2l-.3.5q-.4.3-.5.45.5 0 1.25.4l.85.85q0 .25-1.6 1.15l.15.3.15.35q0 .7-1.05.8l-1.5-.3h-.15l.4.15-.55.55-.65.2q-.05.75-.9.95l-1.2.25.5.6.7.75-1.05.35-.15.15.7 1.05q.35.45.35.95 0 .4-.55.6l-.95-.05.05.7-.25.6h-.35q-.6 0-.8-.55l-.45.6q-.2.3-.6.3L80 46.65l-1.45-.55-1.1-.9h-.15l.5 1.65-.95-.05-.4 1.5-1.05-.75q.2.35-.15 1-.3.7-.75.7l-.45-.3-.35-.45-.6.55q-.35 0-.7-.45l-.5-.75-.25-1.85-.2-1.35-.1-.8.15-.15q.4-.5 1.6-1.1l.3-.1.15-.1.65.8q.55.5 1.05.5l.5-.45.2-.65h.6v-.7q-.25-.1-.25-.5h.15l.7.5q.5 0 .65-.5v-.9l-1.2-.25-1.2-.6h-.05q-1.45-1.95-5.5-6.35-7.25-9.6-9-14.6M88.9 33.6q0-.5-.8-.3l-.1.3.1.15.35.15.4-.1zm-2.45.4.3.05.3-.1.15-.35-.75-.15-.1.25q0 .4.1.2zm1.95.95.65-.1v-.65l-.7-.1-.7.25q-.05.35.05.45zm-1.5-.45-.1-.3-.2-.1q-.3.2-.3.55l.3.15.2-.05zm.1 2.05.7.5h1.75q.6-.15.6-.6 0-.7-1.65-.8-1.6-.1-1.6.65zm1.55 1.85q0-1.4-2.2-1.2l-.05.35q0 .4.8.7l1.05.2zm-1.8.45-.4-.5-1.1-.1-.1.3.3.4.75.25.45-.05zM83.8 37.4l-.3.25v.3q.2 0 .3.15l.25-.05.05-.25-.1-.3zm-.65.55L83 37.7l-.15-.05-.4.3.1.3.3.05.2-.05zm-1.9.45.25.05h.2l.1-.3-.3-.35-.3.3zm.55.45-.3.2v.25l.3.15.3-.15v-.45zm1.05 1q0 .3.3.5l.5.15.45-.1v-.65l-1.2-.1zm-1.2.8.3.05h.2l.1-.3q0-.25-.3-.35l-.3.3zm-.15.95.2-.05.1-.3-.1-.3-.2-.1-.3.45zm-.45.1-.4.3.1.3.3.05.2-.05.1-.3-.15-.25zm1.85.65h1.3l.3-.45q0-.4-.8-.6-.85-.25-1.4.3 0 .5.6.75m1.45 1.85q0-.8-1.35-1.05t-1.35.65q0 .45.65.75l1.4.3q.9 0 .65-.65m-2.1 1.1q0-.4-.9-.9-.9-.45-.9.3l.3.65.9.55q.6 0 .6-.6m-3.85-2.4q0 .4.1.3l.35.05.25-.05.05-.3q0-.35-.6-.25l-.1.05zm-.95-.55-.3.25.3.45.3-.15v-.25zm2.7.85.3-.1h.15v-.45l-.1-.05h-.75l-.05.35.15.15zm-5.2 1.35q0 .9 1.05.9.55 0 .6-.25v-.3q0-.35-.6-.7l-.95-.1zm-.65-.3.3-.35q0-.45-.55-.25l-.05.45zm-.7.15-.05-.3h-.6l-.1.25.1.25.2.2.15.05.25-.1zm.25 1.95v.3l.75.05.6-.05.05-.3-.5-.8q-.45-.45-.85-.55l-.35.5.15.45zm-1.5-2.1-.1-.3h-.5l-.1.3.1.3.3.15.2-.15zm-.45 1.7q0 .5.15 1 .25.75.65.75.9 0 .7-.6 0-.85-.75-1.55-.75-.75-.75.4m7.7-.6.1-.4q0-.75-.9-1.1-.9-.3-.9.55 0 .45.45.75l.85.3z" transform="translate(45.9 10.6)"/><path fill="url(#m)" fill-rule="evenodd" d="m45.5 22.8.15-1.45.75.95 1.05.95.05-.1v-.65h.15l.6.9.3.3.2.2.05.4-.3.55h-.25l.05.25-.05.45-.15.2-.25.25-.05.05h-.75l-.15-.1-.4.7-.4.4q-.45-.85-.5-2.35l-.25-1.4-.35-.8zm1.1.6.15-.05.05-.1-.15-.15q-.25 0-.2.25zm-.9.25-.15.15.1.15.2-.05zm.35.05.25-.05q-.15-.45-.4-.1zm-.35.7q0 .95.4.95l.25-.2-.2-.55q-.2-.35-.45-.2m.8-.3.3.65.55.5.45-.25q0-.55-.65-1t-.65.1m8.8 6.9 1.45 1.55.3-.4.65.9.3.3.4.75-.05.25-.35.2.3.8q0 .55-.7.65h.05l.35.9q0 1-1.1.95.45.1.45.85 0 .4-.4.5l.1.1.2.35-.1.25.15.45q.5.65.5 1.25l-.1.35.05.2-.1-.15h-.1l-.15-.15.05-.1-4.35-5.35q-1.35-1.8-2.25-3.75l.35.2.35-.9.9 1.1.4-.15v-1.1H53l.35.5.55.1.15-1.15.3.55q.25.35.6.35.45 0 .45-.65zm-.1 4.35.15-.05.05-.1-.2-.25-.15.2q0 .2.15.2m.3-.75.3-.1q-.1-.3-.35-.2l-.05.1.05.15zm-1.4 1.95-.2.15.15.15.15-.05.05-.1zm.7-.65.2-.1-.15-.25-.15.15v.15zm-.15.3-.15-.15-.15.25.1.05.15-.05zm.85-.4.45.65.85.25.3-.25-.3-.5-.75-.4h-.4q-.15.05-.15.25m.75-2.55.05-.15-.15-.15-.15.15.1.15zm-.35.55.15-.05.05-.1-.15-.15-.2.15zm1.45-.15-.35-.3q-.25-.05-.3.3l.3.1zm.15 1.1-.8-.5q-.65-.3-.65.2l.4.4.7.2.35-.05zm-1.65 2.45-.65-.2q-.65-.1-.65.25l.65.7q.7.55 1.15.55l.3-.3-.25-.5zm0 1.9h-.15l-.05.15.6.7.55.5.25-.05q.05-.3-.5-.75zm12.9 3.55q.2.5.9.7V41.7l1.15.35h.25l.1-.15V41l-.55-.95h.1l1.2 1.55.9.9.45-.05.05-.05v-.05l.1-.1h.2v.05q.35.15.35.65l-.45.35-.05.25-.2.3h-.4l.2.5.05.1v.25l-.15.05h-.05l-.55.15-.55-.1.1.45-.05.2q-.15.05-.25.2l.2.3.25.85-.2.6.05.45-.25-.3-.1-.1-1.4-1.85-1.6-1.55.1-.4-.05-1zm1.85.65.1.05.15-.05.05-.05-.15-.15zm-.4.2-.2.15.15.15.2-.05zm.1.8.45.6.65.45.2-.1-.5-.7q-.4-.4-.75-.35zm-.85-.2.15.25.2-.05q0-.3-.2-.3zm2.3-2.05-.15.1.15.2.15-.05.05-.1zm-.45.55-.2.15q-.1.15.15.15l.2-.05zm1 .15.3.2.2-.05.05-.05q-.2-.45-.5-.25zm.7.05-.05-.05h-.05zm-1.35.4.25.3.4.1.3-.15-.35-.45q-.35-.2-.6.2m.45.85-.45-.35-.65-.15-.05.15.4.4.5.25.25-.05z" transform="translate(45.9 10.6)"/><path fill="url(#n)" fill-rule="evenodd" d="m2.5-6.35.05.45q0 .75-.7 1.3-.2.6-.8.95l1.85 1Q6.1-.8 8 1.45 7.4 0 8.05-1.2v-.05h.1l1.15-.5q.6 0 2.15 1.3l.55.7.6-.75.75-.45.2-.05.25-.05-.45-.25q-.7-.35-1-.85-.4-.65-.3-1.05l.35-.45q.55-.55 1.45-.8l1.35-.15 2.15.45q1.25.3 2.6 1.2l.9.7-.2-.55-.15-.4q-1.25-2.65-1.45-3.95l-.2-.4q-.1-.95.5-1.5.4-.5 1-.6h.5l1.4.55.45.55.45-.55q.55-.5 1.4-.55h.5l1 .6q.65.55.55 1.5l-.2.4q-.25 1.3-1.5 3.95l-.15.4-.15.55.85-.7q1.4-.9 2.7-1.2l2.1-.45q1.85 0 2.75.95l.35.45q.1.4-.3 1.05-.3.5-1 .85l-.4.25.35.1.1.05.7.4.65.75.5-.7q1.55-1.3 2.15-1.3l1.15.5h.1L37.7.1v.35l-.3 1q1.95-2.25 5.15-4.1l1.85-1q-.45-.25-.65-.65l-.15-.3q-.7-.55-.7-1.3 0-1.6 1.95-2.35l1.9-.2q1.2-.1 1.95-.55.15.2 1.45.6l.05-.05q.8 1.2.05 2.35l-.25.45.55-.25.45-.25q1.7-1.05 2.1-2.45.35-1.15-.05-2 .55-.1 1.1.4.7.7.55 1.75 0 1.15-.95 2.35L52.2-4.65 49.65-3.3l-.05.3-.4 2.5-.35 3.1-.05.55v.05l.1.35q.05.35-.55.95-3.2 2.15-7.9 4.25-5.5 2.35-10.4 3.35l-7.2.7h-.3l-7.15-.7-1.55-.35q-4.3-1-8.85-3Q.25 6.65-2.95 4.5l-.55-.95.1-.35v-.05l-.05-.9Q-3.7-.7-4.2-3l-.05-.3q-1.7-.65-2.5-1.35-.85-.5-1.55-1.45l-.2-.25q-.75-1.05-.75-2.1-.15-1.05.55-1.75.55-.5 1.1-.4-.4.85-.05 2 .35 1.25 1.75 2.25l.3.2.45.25.65.3-.15-.2-.05-.05-.15-.25-.15-.25q-.5-1.05.2-2.1l.05.05q1.3-.4 1.45-.6.75.45 1.95.55l1.9.2q1.7.65 1.95 1.9M2.2-1 .4-1.75l-.45-.1L.55.2l.2.25L.9.4l.65.1.15-.55.55-.9zM45-1.75 43.25-1l-.05.05.55.9.15.55.45-.1h.4l.1-.2.6-2.1zm2.75-.85-.9.3.6 1.2.1.55h.05l.3-2.1zm-.3 4.1-.4.95q-.15.35-.15.8l.45-.2zm-3.55.8-.55 1.65-.2 1.15.25-.15 2.15-1.05-.05-1.05-.35-1.05q-.05-.15-.45-.15h-.15l-.7.6zM41.1.55l-.5.35-1.85 1.8.7.25.5.3.1.1q.3-1.45 1-1.7l.3-1.35zm-.1 4.6q-1.65-.85-3.5-.75h-.05q-.7 1.1-1.1 2.35l-.1.3L36 8q2.6-.9 5.85-2.35V5l-.5-1-.6.2zm-9.45-.6L31.4 3.4l-.3-1.15-.95.15L29 2.25l-1.25-.2-.7.1Q24.85 3.5 24.3 6l-.15.85h.4l1.2-.45q1.05-.6 1.15-1.45l-.2-.9-.05-.15.05.05V3.9l.25.15-.05-.15.05.05V3.9l.05.05q.45.15.85.45l.2.1q.75.7.95 1.7l.55-.05q.8-.1 1.35.35l.6-1.8zM33.2 5.7l-.35.7q-.5.95-.65 1.65l-.15 1.1 2-.5q.35-1.75 1.05-3.6l-.3.2q-.7.5-1.3.5zm-2.6 2-.15-.25q-.35-.35-.85-.3l-.45.05v.05l-.05.65h.2l.3.25v.4l.15.45h.05l.5.25h.05zm-9.5-.85h.15L21.1 6q-.55-2.5-2.7-3.85l-.7-.1-1.25.2-1.1.15-1-.15-.3 1.15-.15 1.15.05.15.6 1.8q.55-.45 1.35-.35l.55.05q.2-1 .95-1.7l.2-.1q.4-.3.85-.45l.05-.05v.05l.05-.05v.15l.2-.15v.05l.05-.05-.05.15-.2.9q.1.85 1.1 1.45l1.25.45zm6.25 3.8-.8.45 2.75-.35.9-.2v-.35q-.8 0-1.25-.65l-.05-.1-.2-.35-.55.85V10l.05.1v.4l-.25.25h-.4zM-1.45-2.3l-.9-.3-.15-.05.3 2.1h.05l.1-.55zm2.2 3.95q-.45 0-.5.15L-.1 2.85-.15 3.9l2.2 1.05.3.15-.25-1.15-.55-1.65.05-.05-.65-.6zM6 2.95q.35-.2.65-.25l-1.6-1.6L4.1.3l.3 1.35q.7.25 1 1.7l.2-.1.35-.25zM7.95 4.4H7.9q-1.8-.1-3.45.75l.1-.5.15-.45-.6-.2-.5 1v.65Q6.8 7.1 9.45 8q-.5-1.95-1.5-3.6m9.55 6.35-.25-.25v-.4l.05-.15-.55-.85-.25.45-1.25.65v.35l3.65.55-.8-.45-.2.1zM15 7.45l-.15.25.25 1.55h.05l.5-.25h.05l.15-.45v-.4l.3-.25h.05l.15-.05-.05-.6V7.2l-.45-.05q-.5-.05-.85.3m-4.4-2.2-.3-.2 1.05 3.6 2.05.5-.05-.5-.1-.5-.05-.1-.65-1.65-.35-.7-.3.05q-.6 0-1.3-.5m-12.55-2.2.5.2-.2-.8-.4-.95z" transform="translate(45.9 10.6)"/><path fill="url(#o)" fill-rule="evenodd" d="m1.7-6.35.1.35q.65 2.4-2.45 2.85L-.4-3l.35.1 1.9.8Q5.6-.25 7.8 2.55l1 .25Q7.1.5 8.05-1.25q1.95.05 3.65 2.4.1-1 .9-1.65.55-.45 1.2-.55l-.45-.25q-.7-.35-1-.85-.85-1.3.45-1.7l1.05-.05q4.05-.1 6.6 4 1.1 1.7 1.6 3.6-.4-3.8-1.35-6.5l-.15-.4q-1.25-2.65-1.5-3.95l-.2-.4q-.1-.95.55-1.5l1-.6h.3l1.35.55.6.85q.1-.5.55-.85.55-.5 1.4-.55h.25q.6.1 1 .6.65.55.55 1.5l-.15.4L24.7-3.2l-.15.4Q23.6-.1 23.2 3.7q.5-1.9 1.6-3.6 2.85-4.6 7.65-3.95 1.3.4.45 1.7-.3.5-1 .85l-.4.25q.75 0 1.4.55.8.65.9 1.65 1.7-2.35 3.65-2.4Q38.4.5 36.7 2.8l1-.25q2.2-2.8 5.95-4.65l1.9-.8.35-.1.25-.15Q43.05-3.6 43.7-6q.2-1 1.7-1.55l2.3-.2L49.45-8l.9-.45q.8 1.2.05 2.35l-.75.85q1.05.25 2.4-.5.65-.35 1.1-.85 1.2-1.5.75-2.9l-.7-1.1q.55-.1 1.1.4.7.7.55 1.75 0 1.15-.95 2.35-.7.95-1.55 1.45l-.1.1-.55.45-.6.95Q49.9-.95 49 2.8l-.05.35v.05l.1.35q.05.35-.55.95-3.2 2.15-7.95 4.25-9.6 4.15-17.65 4.05h-.3q-4.15.05-8.75-1-4.25-1.05-8.9-3.05Q.2 6.65-3 4.5l-.55-.95.1-.35v-.45Q-4.35-1-5.55-3.2l-.6-.95-.6-.4-.1-.1q-.85-.5-1.55-1.45l-.2-.25q-.75-1.05-.75-2.1-.15-1.05.55-1.75.55-.5 1.1-.4l-.7 1.1q-.45 1.4.75 2.9l.25.25.85.6q1.35.75 2.4.5l-.75-.85-.15-.25q-.5-1.05.2-2.1l.9.45 1.75.25 2.3.2q1.25.45 1.6 1.2m29.1 5.7-.1.05q.65.4.75 1.2.1.75-.3 1.55l-2.1.1-2.2-.1Q24.65 3.5 24.1 6l-.2 2.15q3-.35 3.3-2.1l-.5-2.15.05.05V3.9l1.1.6q.75.7 1 1.75l.75-.1q1-.1 1.6.6l.4.45q.55-1.6.95-2.05-.25-.55-.2-1.6-.05-1.45-.5-2.65L31-.45zm-29.05.6L2.3-.9 2.15-1l-1.8-.75-1.2-.35.55 1.35.15.55.85.65.9.05q0-.25.15-.55m42.1 0L44 .5l.9-.05q.2-.4.85-.65l.15-.55.6-1.4-1.35.4-1.8.75-.05.05zm3.85-.5.6.1.4-2.4-.8.25-.9.3.6 1.2zM45.85 1.5l-.1-.1-.8-.2-1 1.05.05.05-.55 1.65q-.3.85-.2 1.8v.15l3.2-1.7v-.1q.1-.95-.15-1.45zm1.35.95q-.25.6-.15 1.4l.9-.55v-.15l-.05-.05.25-2.35-.5.25.05.1zM42 1.05l.6-1.55Q40.8.65 38.85 2.7l.7.25q1.4.7 1.55 2.2-1.65-.85-3.5-.75h-.05q-1.15 1.85-1.6 4.15l-.1.45 4.5-1.75L42.6 6.2v-.15q.1-1.05-.15-1.5l-.5-1.05-.15-.05q-1.05.35-1.05-.25 0-.75 1.05-1.5zM36.45 4.5q-.9.25-1.55.75-.7.5-1.3.5l-.3-.05-.35.7q-.5.95-.65 1.65-.25 1-.2 2.05l2.8-.8h.05l.15-.8.45-1.65.6-1.7zM30.5 7.45q-.35-.35-.85-.3l-.7.1-.05.8.1-.1.35-.05.3.25v.4l.15.45h.05q.2.25.5.25l.4-.2q.1-.15.3-.2h.15V8.4h-.15l-.2-.35zm.75 2.55-.85.2q-.9.05-1.4-.65l-.3-.8-.6 1 .15.35v.4l-.25.25h-.4l-.25-.25-1.05.65 4.95-.8zm-10.1-4q-.55-2.5-2.75-3.85l-2.2.1-2.1-.1-.25-.65-.05-.9V.55l-.15.35q-.45 1.2-.5 2.65l-.2 1.6.9 1.9.05.15.4-.45q.6-.7 1.6-.6l.55.05q.2-1 .95-1.7l.2-.1q.4-.3.85-.45l.05-.05v.05l.05-.05-.5 2.15q.3 1.75 3.3 2.1zM-2.1 1.1l.05-.1-.6-.3.25 2.4-.05.05v.15l1 .6q.1-.85-.15-1.45zm-1.1-3.95.4 2.45.7-.15.1-.55.6-1.2-1-.3zm4.85 5.1-1-1.05-.8.2-.1.1-.45 1.15q-.25.5-.15 1.45v.15l3.2 1.7v-.2q.1-.95-.2-1.8L1.6 2.3zm4.3.7q.35-.2.7-.25Q4.8.7 3.05-.45l.55 1.5.2.65q1.05.75 1.05 1.5 0 .6-1.05.25l-.15.05-.5 1.05Q2.9 5 3 6.05v.2l2.15 1L9.65 9l-.1-.45q-.45-2.3-1.6-4.15H7.9q-1.85-.1-3.5.75.15-1.5 1.55-2.2m8.3 7.05v.35l4.65.75-.8-.45-.2.1h-.4l-.25-.25v-.4l.05-.15-.55-.85-.25.45q-.5.7-1.4.65zm.05-1.15h.15l.3.2.4.2.5-.25h.05l.15-.45v-.4l.3-.25h.2l-.05-.65V7.2l-.45-.05q-.5-.05-.85.3l-.35.6-.2.35h-.15zm-2.4-3.1q-.6 0-1.3-.5-.65-.5-1.55-.75l.3.65.6 1.7.45 1.65.15.8h.05l2.8.8-.2-2.05-.65-1.65-.35-.7z" transform="translate(45.9 10.6)"/><path fill="#fff" fill-rule="evenodd" d="M59.75 6.7q3.8.2 6.15 3.2L67 12q-1.8-3.1-4.7-4.5-1.4-.7-2.55-.8m15 .8q-2.9 1.4-4.7 4.5l1.1-2.1q2.45-3.1 6.4-3.25-1.25.1-2.8.85m-18.5 2.8 1.5 1.65-.05.1-.7-.65-.85-.75-2-1.3q.9 0 2.1.95m-7.15 0q.25 1.1.6 1.6v.3h-.2l-.25-.7-.3-.7v-.5zm47.1-8 .15-.05.2 1q0 1.2-.85 1.95h-.25l.7-1.05.2-.95zm-7 7.35.4.55.35.75-.25.05-.55-1.25zm4.7.2-.15.05-1.05-1.4v-.25h.15zm5.95-8.45q.7 1.65-1.05 3.25l-1.85.55q2.8-.9 2.95-2.85zM88.9 8.75q1.65-.85 2.9-1.15-2.45.8-5.75 3.3l-2.75 2.4q2.2-2.85 5.6-4.55m-1.95 6.65-.6-.85q-.7-.9-1.7-1.2v-.1h.25q1.1 0 2.15 2.1zm-13.9 1.35-.2-1.7Q74 17.25 72.7 18q-1.35.75-2.5.75 2.55-.3 2.85-2m-9-.05q.3 1.7 2.85 2l-2.15-.35q-1.9-.9-.5-3.35zm-5-.85.7 1.65-.1.1-.45-.75-.3-.8v-.2zM51 10.75q-3.3-2.5-5.75-3.3 1.25.3 2.9 1.15 3.4 1.7 5.6 4.55zM37.45 1.4l-.05.95q.1 1.15 1.1 1.9.7.55 1.85.95l-1.85-.55-.5-.4q-1.15-1.05-.55-2.85M45 8.85v-.3h.15L46 10.6l-.3.1q0-.35-.35-.9z"/><path fill="#fff" fill-opacity=".694" fill-rule="evenodd" d="m75.65 22.25-7.6.35q8 .2 17.8-3.95 4.9-2.1 8.2-4.2-9 6.2-18.4 7.8"/><path fill="url(#p)" fill-rule="evenodd" d="M4.45 11.6v-.05l.3-.85.7-1.05.5-.5.3-.2h.05l.3.2.45.55.75 1 .3.85v1l-.25.8-.75.65-.85.25-.8-.25-.8-.65-.3-.8.05-.95z" transform="translate(45.9 10.6)"/><path fill="url(#q)" fill-rule="evenodd" d="M4.4 11.2h.05l.3-.9.7-1.05.5-.5.3-.2h.05l.3.2.45.55.75 1.05.3.85v.95l-.25.8-.75.7-.85.25-.8-.25-.8-.7-.3-.8z" transform="translate(45.9 10.6)"/><path fill="#9d626c" fill-rule="evenodd" d="m50.9 21 .05.55-.35.25v-.05z"/><path fill="#db7f92" fill-rule="evenodd" d="m51.45 20.2.65-.15-.85 1.3-.3.2-.05-.55z"/><path fill="#9d626c" fill-rule="evenodd" d="m52.4 19.8.4.4-.65-.15h-.05v-.45h.05zM52.1 19.6v.45l-.65.15.4-.4z"/><path fill="#db7f92" fill-rule="evenodd" d="m53.4 21.05-.1.5-.3-.2-.85-1.3.65.15z"/><path fill="#9d626c" fill-rule="evenodd" d="m53.3 21.55.1-.5.25.7v.05zM53.7 22.55l-.3-.55.25-.2z"/><path fill="#db7f92" fill-rule="evenodd" d="m50.55 22.55.3-.55.4.25.85 1.35-1.3-.4z"/><path fill="#eb90a8" fill-rule="evenodd" d="m52.1 23.6-.7.2-.6-.6z"/><path fill="#90616a" fill-rule="evenodd" d="m51.4 23.8.7-.2v.4z"/><path fill="#9d626c" fill-rule="evenodd" d="m52.1 23.6.75.2-.75.2z"/><path fill="#b16271" fill-rule="evenodd" d="m53.45 23.2-.6.6-.75-.2z"/><path fill="#9d626c" fill-rule="evenodd" d="m50.6 21.8.25.2-.3.55q-.05-.35.05-.75"/><path fill="#db7f92" fill-rule="evenodd" d="m53.4 22 .3.55-.25.65-1.35.4.9-1.35z"/><path fill="#b16271" fill-rule="evenodd" d="m52.1 20.05.05.75-.9.55z"/><path fill="#eb90a8" fill-rule="evenodd" d="M52.1 23.6v-.8l.9-.55zM52.1 20.05h.05l.85 1.3-.85-.55z"/><path fill="#b16271" fill-rule="evenodd" d="M52.1 22.8v.8l-.85-1.35z"/><path fill="#9d626c" fill-rule="evenodd" d="m50.95 21.8-.1.2-.25-.2z"/><path fill="#db7f92" fill-rule="evenodd" d="m53 21.35.3.2v.25z"/><path fill="#9d626c" fill-rule="evenodd" d="M50.95 21.8h-.35l.35-.25zM53.3 21.8h.35l-.25.2zM53.65 21.8h-.35v-.25z"/><path fill="#db7f92" fill-rule="evenodd" d="m53.3 21.8.1.2-.4.25zM50.95 21.55l.3-.2-.3.45.3.45-.4-.25.1-.2z"/><path fill="#f5b8c9" fill-rule="evenodd" d="m51.25 21.35.9-.55.85.55.3.45-.3.45-.9.55-.85-.55-.3-.45z"/><path fill="url(#r)" fill-rule="evenodd" d="m23.75 13.65 1.05 1.45.4 1.2v.05h.05l-.05.1q.2.6.05 1.2l-.35 1.15-1.1.95-1.2.35-1.15-.35q-.7-.3-1.1-.95l-.4-1.15.05-1.3h.05v-.05l.45-1.25 1-1.45.7-.7.4-.3h.05l.45.3z" transform="translate(45.9 10.6)"/><path fill="url(#s)" fill-rule="evenodd" d="m22.65 12.05.45.3.65.75 1.05 1.45.4 1.2v.05h.05l-.05.1q.2.6.05 1.2l-.35 1.15-1.1.95-1.2.35-1.15-.35q-.7-.3-1.1-.95l-.4-1.15.05-1.3h.05v-.05l.45-1.25 1-1.45.7-.7.4-.3z" transform="translate(45.9 10.6)"/><path fill="#9d626c" fill-rule="evenodd" d="m66.75 25.3.1.8-.45.3v-.05z"/><path fill="#db7f92" fill-rule="evenodd" d="m67.6 24.1.9-.15-1.2 1.85-.45.3-.1-.8z"/><path fill="#9d626c" fill-rule="evenodd" d="m68.9 23.55.55.6-.95-.2v-.65h.05zM68.5 23.3v.65l-.9.15.55-.55z"/><path fill="#db7f92" fill-rule="evenodd" d="m70.3 25.35-.1.75-.45-.3-1.25-1.85.95.2z"/><path fill="#9d626c" fill-rule="evenodd" d="m70.2 26.1.1-.75.35 1v.05zM70.7 27.45l-.4-.8.35-.2z"/><path fill="#db7f92" fill-rule="evenodd" d="m66.3 27.45.45-.8.55.4 1.2 1.85-1.85-.5z"/><path fill="#eb90a8" fill-rule="evenodd" d="m68.5 28.9-.95.3q-.6-.25-.9-.8z"/><path fill="#90616a" fill-rule="evenodd" d="m67.55 29.2.95-.3v.6q-.5-.05-.95-.3"/><path fill="#9d626c" fill-rule="evenodd" d="m68.5 28.9 1 .3-1 .3z"/><path fill="#b16271" fill-rule="evenodd" d="m70.4 28.4-.9.8-1-.3z"/><path fill="#9d626c" fill-rule="evenodd" d="m66.35 26.4.4.25-.45.8q-.05-.5.05-1.05"/><path fill="#db7f92" fill-rule="evenodd" d="m70.3 26.65.4.8-.3.95-1.9.5 1.25-1.85z"/><path fill="#b16271" fill-rule="evenodd" d="M68.5 23.95V25l-1.2.8z"/><path fill="#eb90a8" fill-rule="evenodd" d="M68.5 28.9v-1.05l1.25-.8zM68.5 23.95l1.25 1.85-1.25-.8z"/><path fill="#b16271" fill-rule="evenodd" d="M68.5 27.85v1.05l-1.2-1.85z"/><path fill="#effa5f" fill-rule="evenodd" d="M70.65 26.45v-.05h.05zM66.35 26.4h.05zM70.7 26.4h-.05zM66.4 26.4h-.05z"/><path fill="#9d626c" fill-rule="evenodd" d="m66.9 26.4-.15.25-.4-.25h.55"/><path fill="#db7f92" fill-rule="evenodd" d="m69.75 25.8.45.3-.05.3z"/><path fill="#9d626c" fill-rule="evenodd" d="M66.9 26.4h-.5l.45-.3zM70.15 26.4h.5v.05l-.35.2zM70.65 26.4h-.5l.05-.3z"/><path fill="#db7f92" fill-rule="evenodd" d="m70.15 26.4.15.25-.55.4zM66.85 26.1l.45-.3-.4.6.4.65-.55-.4.15-.25z"/><path fill="#f5b8c9" fill-rule="evenodd" d="m67.3 25.8 1.2-.8 1.25.8.4.6-.4.65-1.25.8-1.2-.8-.4-.65z"/><path fill="url(#t)" fill-rule="evenodd" d="M40.55 11.7v.85l-.25.8-.75.65-.85.25-.8-.25-.8-.65-.3-.8.05-.95h.05v-.05l.3-.85.7-1.05.5-.5.3-.2h.05l.3.2.45.55.75 1 .3.85z" transform="translate(45.9 10.6)"/><path fill="url(#u)" fill-rule="evenodd" d="M40.55 11.3v.85l-.25.8-.75.7-.85.25-.8-.25-.8-.7-.3-.8.05-.95h.05l.3-.9.7-1.05.5-.5.3-.2h.05l.3.2.45.55.75 1.05.3.85z" transform="translate(45.9 10.6)"/><path fill="#9d626c" fill-rule="evenodd" d="m83.35 21 .05.55-.35.25v-.05z"/><path fill="#db7f92" fill-rule="evenodd" d="m83.9 20.2.65-.15-.85 1.3-.3.2-.05-.55z"/><path fill="#9d626c" fill-rule="evenodd" d="m84.85 19.8.4.4-.65-.15h-.05v-.45h.05zM84.55 19.6v.45l-.65.15.4-.4z"/><path fill="#db7f92" fill-rule="evenodd" d="m85.85 21.05-.1.5-.3-.2-.85-1.3.65.15z"/><path fill="#9d626c" fill-rule="evenodd" d="m85.75 21.55.1-.5.25.7v.05zM86.15 22.55l-.3-.55.25-.2z"/><path fill="#db7f92" fill-rule="evenodd" d="m83 22.55.3-.55.4.25.85 1.35-1.3-.4z"/><path fill="#eb90a8" fill-rule="evenodd" d="m84.55 23.6-.7.2-.6-.6z"/><path fill="#90616a" fill-rule="evenodd" d="m83.85 23.8.7-.2v.4z"/><path fill="#9d626c" fill-rule="evenodd" d="m84.55 23.6.75.2-.75.2z"/><path fill="#b16271" fill-rule="evenodd" d="m85.9 23.2-.6.6-.75-.2z"/><path fill="#9d626c" fill-rule="evenodd" d="m83.05 21.8.25.2-.3.55q-.05-.35.05-.75"/><path fill="#db7f92" fill-rule="evenodd" d="m85.85 22 .3.55-.25.65-1.35.4.9-1.35z"/><path fill="#b16271" fill-rule="evenodd" d="m84.55 20.05.05.75-.9.55z"/><path fill="#eb90a8" fill-rule="evenodd" d="M84.55 23.6v-.8l.9-.55zM84.55 20.05h.05l.85 1.3-.85-.55z"/><path fill="#b16271" fill-rule="evenodd" d="M84.55 22.8v.8l-.85-1.35z"/><path fill="#9d626c" fill-rule="evenodd" d="m83.4 21.8-.1.2-.25-.2z"/><path fill="#db7f92" fill-rule="evenodd" d="m85.45 21.35.3.2v.25z"/><path fill="#9d626c" fill-rule="evenodd" d="M83.4 21.8h-.35l.35-.25zM85.75 21.8h.35l-.25.2zM86.1 21.8h-.35v-.25z"/><path fill="#db7f92" fill-rule="evenodd" d="m85.75 21.8.1.2-.4.25zM83.4 21.55l.3-.2-.3.45.3.45-.4-.25.1-.2z"/><path fill="#f5b8c9" fill-rule="evenodd" d="m83.7 21.35.9-.55.85.55.3.45-.3.45-.9.55-.85-.55-.3-.45z"/><path fill="url(#v)" fill-rule="evenodd" d="M19.5-7.55v-.7q.15-.65.9-.85l.5-.05.4.05.45.2q.75.4 1 1.6l.35-.9.65-.65.1-.05.7-.25q.8 0 1.1.5l.25.95-.05.35-.05.05v.1l.05.05-.3 1.2-.25.6-.15.35-.15.25-.45 1.05-.35.6-.45.85-.5 1.05Q22.75.05 22.7 1l-.35-1.8-.5-1.25-.1-.15-.6-1.15-.7-1.4L20.3-5l-.05-.05-.1-.25-.5-1.35z" transform="translate(45.9 10.6)"/><path fill="#f5b8c9" fill-rule="evenodd" d="M65.55 3.25V2.6l.25.4zm.85-1.45.45-.05.4.05-.6.5zm1.25.15q.75.4.95 1.55l-1.05-.65zm2 0 .65-.2q.75 0 1.05.45l-.7.6zm1.8 1.55.1.1-.3 1.15-.75.15-.6-1.25zM70 7.45l-.45.8-.8-1.15-.4-.65 1.1-.25-.35-.95-1.4.35-.35-.5-.15-.2.2-.1 1.05-.45 1.55.7h.05l.15 1-.75.15zm-.9 1.8q-.5 1.15-.55 2.05l-.3-1.7.2-1.2zm-1.45-.95-.55-1.1.1-.6.9 1.25zm-1.4-2.7-.1-.25-.45-1.25.8-.1zm.25-1.7-.7-.9.85-.7.8 1.45v.15l-.9.1z"/><path fill="#b16271" fill-rule="evenodd" d="M65.55 3.25 65.8 3l.7.9V4l-.8.1zm4-1.25.1-.05 1 .85-.85.7zm1.7 2.75L71 5.3l-.1.35-.4-.75zm-.5 1.15-.45.95-.1-.8zm-1.2 2.35-.45 1-.65-.85.15-1.2.15-.1zM67.1 7.2l-.65-1.3.85-.2-.1.9zm.3-2.4.05-.9h.1l.9.45 1.4-.6.2 1.3H70l-1.55-.7z"/><path fill="#eb90a8" fill-rule="evenodd" d="m65.8 3-.25-.4q.15-.65.85-.8l.25.5.6-.5.4.15-.1.9-.1.9-.8-1.45zm5.1 2.65-.15.25-.55.15.1.8-.3.6-.55-1.25.75-.15-.15-1 .45-.15zm-4.45.25-.15-.25-.05-.05.25-1.6h.05l.65.9.15.2-.05.6zm1.1-2 2.3-.25-.05-.15.85-.7.8.7-1.55.15h-.05v.1l-1.4.6zm.15 1.7 1.4-.35.35.95-1.1.25zm.4 2.25.5-.65-.15 1.2z"/><path fill="#db7f92" fill-rule="evenodd" d="m68.6 3.5.35-.85.6-.65.25 1.5.05.15-2.3.25-.1-.15.1-.9zm2.75-1.3q.35.4.2 1.25l-.1.05-.8-.7zm-3.1 7.4-.5-1.15-.1-.15.45-.45-.9-1.25.1-.9.05-.6.35.5.65.85.4.65-.15.1-.5.65.35.55zM66.55 4l.9-.1-.05.9-.2.1zm3.3-.25v-.1h.05l.6 1.25-.45.15z"/><path fill="#f5b8c9" fill-rule="evenodd" d="m48.35 10.25-.3 2.1H48l-.55-.25zm44.25 3.3-.9-1.85 1.4-.3h.05zM88.85 15l-1.05-1.8 1.45-.3h.05zM44.6 8.8l-.35 2.1h-.05l-.65-.3z"/><path fill="#eb90a8" fill-rule="evenodd" d="m48 12.4 1.2.25.05.05-.65 2.55-.1-.35zm44.75-3.5.1-.35.65 2.55-.05.05-.35.2zm-3.8 1.45.1-.35.75 2.5-.05.05-.5.3zm-44.75.6 1.3.3.05.05-.75 2.5-.1-.35z"/><path fill="#b16271" fill-rule="evenodd" d="m48.35 10.25.1-.2.75 2.6-1.2-.25v-.05h.05zm44.75 1.1.35-.2-.75 2.6-.1-.2.55-2.15h-.05zm-3.85 1.5.5-.3L89 15.2l-.15-.2.45-2.1h-.05zM44.6 8.8l.15-.2.75 2.65-1.3-.3v-.05h.05z"/><path fill="#db7f92" fill-rule="evenodd" d="M48 12.35v.05l.5 2.5-1.05-2.8zM92.75 8.9l.35 2.45v.05l-1.4.3zm-3.8 1.45.3 2.5v.05l-1.45.3zm-44.75.55v.05l.5 2.5-1.15-2.85z"/><path fill="url(#w)" fill-rule="evenodd" d="M.8-6.15q.85 1.05-.2 1.7l-.5.25q-.65.2-1.4 0l-.85-.35q-1.15-.65-1.7-1.8l-.4-1.2q.8.85 2.75.6 1.3-.2 2.1.6zM12.15 1.6l.95-1-.5 2.5q.15 2.05-.75 2.05l-1.7-.55-1.4-.7h-1.5q1.3-.55 2.1-.55l.65.1-.2-.5-.25-1.25.2-.55q1.2.4 1.9 1.3z" transform="translate(45.9 10.6)"/><path fill="url(#x)" fill-rule="evenodd" d="m47.65-4.55-2.75.1q-1.05-.65-.2-1.7.85-1 2.3-.8 1.95.25 2.75-.6-.4 2.05-2.1 3m-9.4 8.45h-1.5l-1.4.7-1.7.55q-.9 0-.75-2.05L32.4.6l.95 1 .5.85q.7-.9 1.9-1.3l.2.55-.25 1.25-.2.5.65-.1q.8 0 2.1.55" transform="translate(45.9 10.6)"/></g></defs></svg>