<?xml version="1.0" encoding="UTF-8" standalone="no"?>
<svg xmlns:ffdec="https://www.free-decompiler.com/flash" xmlns:xlink="http://www.w3.org/1999/xlink" ffdec:objectType="frame" height="34.35px" width="30.95px" xmlns="http://www.w3.org/2000/svg">
  <g transform="matrix(1.0, 0.0, 0.0, 1.0, -22.45, 15.75)">
    <use ffdec:characterId="1" height="34.35" transform="matrix(1.0, 0.0, 0.0, 1.0, 22.45, -15.75)" width="30.95" xlink:href="#shape0"/>
  </g>
  <defs>
    <g id="shape0" transform="matrix(1.0, 0.0, 0.0, 1.0, -22.45, 15.75)">
      <path d="M28.05 -4.0 L30.25 -3.55 31.25 -3.3 Q34.5 -2.35 38.2 -0.55 43.85 2.25 47.15 5.4 50.5 8.7 49.7 10.4 48.85 12.1 44.25 11.3 39.7 10.7 34.05 7.9 28.45 5.15 25.15 1.9 21.8 -1.25 22.65 -2.95 23.45 -4.65 28.05 -4.0" fill="#1b1b1b" fill-rule="evenodd" stroke="none"/>
      <path d="M33.35 -14.55 L33.4 -14.95 33.45 -15.05 Q33.95 -16.15 37.25 -15.55 40.55 -14.85 44.65 -12.85 48.8 -10.8 51.25 -8.65 53.8 -6.4 53.3 -5.3 L53.1 -5.05 52.9 -4.9 Q46.8 -0.15 45.15 6.85 L41.95 6.95 Q39.3 6.4 36.1 4.85 32.9 3.25 30.9 1.5 29.05 -0.15 29.05 -1.05 32.35 -5.9 33.35 -14.55 M34.4 -14.45 Q34.45 -13.5 36.25 -11.9 38.55 -9.75 42.25 -7.85 46.05 -5.95 49.05 -5.35 L52.05 -4.95 Q52.65 -5.15 52.9 -5.45 53.1 -5.8 52.8 -6.45 L51.45 -8.05 Q51.9 -7.35 51.4 -6.6 L48.35 -6.5 Q45.7 -7.05 41.95 -9.0 38.15 -10.95 35.9 -13.0 L34.4 -14.6 34.4 -14.45" fill="#282828" fill-rule="evenodd" stroke="none"/>
      <path d="M34.4 -14.45 L34.4 -14.6 35.9 -13.0 Q38.15 -10.95 41.95 -9.0 45.7 -7.05 48.35 -6.5 L51.4 -6.6 Q51.9 -7.35 51.45 -8.05 L52.8 -6.45 Q53.1 -5.8 52.9 -5.45 52.65 -5.15 52.05 -4.95 L49.05 -5.35 Q46.05 -5.95 42.25 -7.85 38.55 -9.75 36.25 -11.9 34.45 -13.5 34.4 -14.45" fill="#353535" fill-rule="evenodd" stroke="none"/>
      <path d="M30.7 -4.05 Q36.25 2.1 46.2 3.55 45.5 5.15 45.1 6.95 44.45 7.45 41.95 6.95 39.3 6.4 36.1 4.85 32.9 3.25 30.9 1.5 29.05 -0.1 29.0 -0.95 L30.7 -4.05" fill="#f0f0f0" fill-rule="evenodd" stroke="none"/>
      <path d="M30.35 -3.45 L29.55 -2.15 29.55 -2.05 29.4 -1.7 Q27.0 1.45 23.9 0.4 22.2 -1.3 22.5 -2.5 22.75 -3.75 24.55 -4.05 26.0 -4.35 27.95 -4.05 L29.35 -3.75 30.35 -3.45" fill="#363636" fill-rule="evenodd" stroke="none"/>
      <path d="M35.9 -11.35 Q36.65 -10.3 38.35 -9.65 34.45 -3.95 32.15 2.55 L30.85 1.45 Q33.75 -3.05 35.9 -11.35" fill="#ffffff" fill-opacity="0.2" fill-rule="evenodd" stroke="none"/>
      <path d="M42.6 4.55 Q45.65 6.65 47.8 9.4 49.8 11.9 51.0 14.95 50.4 17.05 46.15 18.6 45.65 14.9 44.6 11.55 43.45 7.85 41.6 4.55 L41.2 3.85 41.3 4.55 Q41.6 7.1 40.6 10.1 39.75 12.5 38.05 15.2 35.2 13.3 34.4 11.75 L37.65 8.45 40.45 4.55 41.05 3.45 41.2 3.65 42.6 4.55" fill="#ffcc33" fill-rule="evenodd" stroke="none"/>
      <path d="M45.85 10.6 Q43.85 6.35 41.95 4.55 L41.4 4.1 41.75 4.55 Q43.75 7.15 45.3 11.0 L44.6 11.55 Q43.45 7.85 41.6 4.55 L41.2 3.85 41.3 4.55 Q41.6 7.1 40.6 10.1 L40.1 9.8 40.5 8.55 41.15 4.55 41.15 3.9 41.05 4.55 Q40.65 6.9 39.8 8.75 L39.45 9.4 39.0 9.15 38.9 9.1 Q40.4 6.55 40.85 4.55 L40.95 3.9 40.75 4.55 Q39.9 6.7 38.35 8.8 L37.65 8.45 40.45 4.55 41.05 3.45 41.2 3.65 42.6 4.55 Q45.65 6.65 47.8 9.4 L47.25 9.75 45.9 8.05 Q44.0 5.95 42.2 4.55 L41.3 3.9 42.1 4.55 Q44.25 6.4 45.7 8.65 L46.6 10.15 46.0 10.5 45.85 10.6" fill="#d29420" fill-rule="evenodd" stroke="none"/>
      <path d="M45.3 11.0 Q43.75 7.15 41.75 4.55 L41.4 4.1 41.95 4.55 Q43.85 6.35 45.85 10.6 L45.55 10.85 45.3 11.0 M46.6 10.15 L45.7 8.65 Q44.25 6.4 42.1 4.55 L41.3 3.9 42.2 4.55 Q44.0 5.95 45.9 8.05 L47.25 9.75 47.15 9.8 47.0 9.9 46.8 10.05 46.6 10.15 M38.35 8.8 Q39.9 6.7 40.75 4.55 L40.95 3.9 40.85 4.55 Q40.4 6.55 38.9 9.1 L38.35 8.8 M39.45 9.4 L39.8 8.75 Q40.65 6.9 41.05 4.55 L41.15 3.9 41.15 4.55 40.5 8.55 40.1 9.8 39.7 9.55 39.45 9.4" fill="#f8ead1" fill-rule="evenodd" stroke="none"/>
      <path d="M41.15 3.9 L41.15 4.55 40.5 8.55 40.1 9.8 37.45 14.75 36.55 14.15 39.45 9.4 39.8 8.75 Q40.65 6.9 41.05 4.55 L41.15 3.9 M41.95 4.55 Q43.85 6.35 45.85 10.6 L48.55 17.45 47.45 18.05 Q46.5 14.1 45.3 11.0 43.75 7.15 41.75 4.55 L41.4 4.1 41.95 4.55 M40.95 3.9 L40.85 4.55 Q40.4 6.55 38.9 9.1 L35.85 13.5 Q35.05 12.95 34.95 12.4 36.95 10.6 38.35 8.8 39.9 6.7 40.75 4.55 L40.95 3.9 M42.2 4.55 Q44.0 5.95 45.9 8.05 L47.25 9.75 Q48.9 12.05 50.7 15.5 L50.55 15.8 49.95 16.5 47.65 11.9 46.6 10.15 45.7 8.65 Q44.25 6.4 42.1 4.55 L41.3 3.9 42.2 4.55" fill="#ffffff" fill-rule="evenodd" stroke="none"/>
      <path d="M40.9 2.35 L40.9 2.45 Q40.75 2.85 41.05 3.15 41.25 3.5 41.55 3.45 L41.85 3.25 41.7 3.0 41.7 2.9 41.75 2.65 41.9 2.45 42.4 2.5 42.9 2.45 43.4 2.05 Q43.8 1.25 42.65 1.05 41.55 0.85 41.15 1.75 L40.95 2.3 40.9 2.35 M41.2 -0.35 L41.95 -0.55 43.15 0.15 44.25 1.25 44.0 1.55 43.8 2.4 43.4 2.8 Q42.3 2.45 42.15 2.8 L42.15 2.85 42.1 3.1 42.15 3.2 42.3 3.4 42.8 3.7 43.95 4.0 43.65 4.5 42.85 5.15 42.25 5.25 42.2 5.6 41.95 5.5 39.9 4.5 39.4 4.55 38.95 3.65 38.65 2.45 38.8 1.8 Q38.9 1.3 39.9 0.05 L39.9 0.2 Q39.95 0.15 41.2 -0.35" fill="#792a2c" fill-rule="evenodd" stroke="none"/>
      <path d="M45.0 -0.35 L43.7 -1.45 Q42.95 -2.0 42.2 -1.9 L41.75 -2.1 Q41.7 -2.35 43.15 -2.5 44.55 -2.65 46.0 -1.7 47.35 -0.8 47.8 0.55 L47.95 1.85 47.25 1.05 Q46.85 0.5 46.2 0.35 45.55 0.15 45.85 0.55 L46.35 1.65 46.4 2.15 46.2 3.3 46.05 3.6 Q45.65 4.55 44.9 5.1 L44.0 5.6 Q43.1 5.85 42.2 5.6 L42.25 5.25 42.85 5.15 43.65 4.5 43.95 4.0 Q44.6 3.95 44.95 3.2 45.4 2.3 44.9 1.55 44.55 0.95 44.25 1.25 L43.15 0.15 41.95 -0.55 43.8 -0.45 45.05 -0.25 45.0 -0.35 M48.1 5.4 Q48.55 4.3 48.4 3.3 L48.25 2.55 Q48.65 3.1 48.9 4.4 49.2 6.0 48.4 7.4 47.6 8.8 46.1 9.2 44.5 9.5 43.35 8.9 L44.15 8.1 Q45.1 8.1 45.95 7.55 47.6 6.5 48.1 5.4 M40.95 2.3 L41.15 1.75 Q41.55 0.85 42.65 1.05 43.8 1.25 43.4 2.05 L42.9 2.45 42.4 2.5 41.9 2.45 41.75 2.65 41.7 2.9 41.7 3.0 41.85 3.25 41.55 3.45 Q41.25 3.5 41.05 3.15 40.75 2.85 40.9 2.45 L40.9 2.35 40.95 2.3" fill="#631b1d" fill-rule="evenodd" stroke="none"/>
      <path d="M39.15 -1.6 Q38.7 -1.95 38.4 -1.25 38.0 0.7 38.45 1.0 38.9 1.3 39.3 0.0 39.7 -1.25 39.15 -1.6 M39.55 -2.35 L41.75 -2.1 42.2 -1.9 41.3 -1.6 Q40.15 -1.0 40.0 -0.4 L39.9 0.05 Q38.9 1.3 38.8 1.8 L38.65 2.45 38.4 1.95 Q38.05 1.8 37.85 3.0 37.5 4.1 37.5 4.95 37.55 5.75 38.15 6.7 L39.6 7.95 41.5 8.3 Q42.5 8.15 42.7 7.8 L44.15 8.1 43.35 8.9 43.3 8.85 41.35 9.0 41.05 8.95 40.95 8.95 40.55 8.95 40.35 8.95 39.55 8.7 38.5 8.1 Q36.9 7.25 36.2 5.55 35.75 4.65 35.85 3.7 L35.95 3.05 36.15 2.5 36.4 2.0 36.45 1.95 Q37.05 0.95 37.8 0.7 L37.8 0.45 Q37.8 -0.3 38.2 -1.25 38.6 -2.3 39.55 -2.35" fill="#9a2c2f" fill-rule="evenodd" stroke="none"/>
      <path d="M41.5 8.3 L39.6 7.95 38.15 6.7 Q37.55 5.75 37.5 4.95 37.5 4.1 37.85 3.0 38.05 1.8 38.4 1.95 L38.65 2.45 38.95 3.65 39.4 4.55 39.55 5.2 Q40.0 6.45 42.2 7.55 L42.7 7.8 Q42.5 8.15 41.5 8.3" fill="#8b2527" fill-rule="evenodd" stroke="none"/>
      <path d="M39.15 -1.6 Q39.7 -1.25 39.3 0.0 38.9 1.3 38.45 1.0 38.0 0.7 38.4 -1.25 38.7 -1.95 39.15 -1.6" fill="#a92e31" fill-rule="evenodd" stroke="none"/>
      <path d="M46.35 1.3 L46.8 1.95 Q47.5 3.4 46.95 4.6 L45.5 6.55 42.7 6.5 41.85 6.0 41.2 5.5 42.2 5.7 44.0 5.6 44.9 5.1 Q45.65 4.55 46.05 3.6 L46.2 3.3 46.45 2.15 46.35 1.3" fill="#9b2b2e" fill-rule="evenodd" stroke="none"/>
      <path d="M41.2 -0.35 Q39.95 0.15 39.9 0.2 L39.9 0.05 40.0 -0.4 Q40.15 -1.0 41.3 -1.6 L42.2 -1.9 Q42.95 -2.0 43.7 -1.45 L45.0 -0.35 45.05 -0.25 43.8 -0.45 41.95 -0.55 41.2 -0.35" fill="#a92e31" fill-rule="evenodd" stroke="none"/>
      <path d="M46.35 1.3 L46.45 2.15 46.2 3.3 46.4 2.15 46.35 1.65 45.85 0.55 Q45.55 0.15 46.2 0.35 46.85 0.5 47.25 1.05 L47.95 1.85 48.0 1.95 48.25 2.55 48.4 3.3 Q48.55 4.3 48.1 5.4 47.6 6.5 45.95 7.55 45.1 8.1 44.15 8.1 L42.7 7.8 42.2 7.55 Q40.0 6.45 39.55 5.2 L39.4 4.55 39.9 4.5 41.95 5.5 42.2 5.6 Q43.1 5.85 44.0 5.6 L42.2 5.7 41.2 5.5 41.85 6.0 42.7 6.5 45.5 6.55 46.95 4.6 Q47.5 3.4 46.8 1.95 L46.35 1.3" fill="#af3033" fill-rule="evenodd" stroke="none"/>
      <path d="M44.0 1.55 L44.25 1.25 Q44.55 0.95 44.9 1.55 45.4 2.3 44.95 3.2 44.6 3.95 43.95 4.0 L42.8 3.7 42.3 3.4 42.15 3.2 42.1 3.1 42.15 2.85 42.15 2.8 Q42.3 2.45 43.4 2.8 L43.8 2.4 44.0 1.55" fill="#a32c2f" fill-rule="evenodd" stroke="none"/>
    </g>
  </defs>
</svg>
