<svg xmlns="http://www.w3.org/2000/svg" xmlns:ffdec="https://www.free-decompiler.com/flash" xmlns:xlink="http://www.w3.org/1999/xlink" ffdec:objectType="frame" width="30.95" height="34.35"><use ffdec:characterId="1" xlink:href="#a" width="30.95" height="34.35"/><defs><g id="a" fill-rule="evenodd"><path fill="#1b1b1b" d="m5.6 11.75 2.2.45 1 .25q3.25.95 6.95 2.75 5.65 2.8 8.95 5.95 3.35 3.3 2.55 5-.85 1.7-5.45.9-4.55-.6-10.2-3.4-5.6-2.75-8.9-6Q-.65 14.5.2 12.8q.8-1.7 5.4-1.05"/><path fill="#282828" d="m10.9 1.2.05-.4.05-.1q.5-1.1 3.8-.5 3.3.7 7.4 2.7 4.15 2.05 6.6 4.2 2.55 2.25 2.05 3.35l-.2.25-.2.15q-6.1 4.75-7.75 11.75l-3.2.1q-2.65-.55-5.85-2.1-3.2-1.6-5.2-3.35Q6.6 15.6 6.6 14.7q3.3-4.85 4.3-13.5m1.05.1q.05.95 1.85 2.55 2.3 2.15 6 4.05 3.8 1.9 6.8 2.5l3 .4q.6-.2.85-.5.2-.35-.1-1L29 7.7q.45.7-.05 1.45l-3.05.1q-2.65-.55-6.4-2.5-3.8-1.95-6.05-4l-1.5-1.6z"/><path fill="#353535" d="M11.95 1.3v-.15l1.5 1.6q2.25 2.05 6.05 4 3.75 1.95 6.4 2.5l3.05-.1q.5-.75.05-1.45l1.35 1.6q.3.65.1 1-.25.3-.85.5l-3-.4q-3-.6-6.8-2.5-3.7-1.9-6-4.05-1.8-1.6-1.85-2.55"/><path fill="#f0f0f0" d="M8.25 11.7q5.55 6.15 15.5 7.6-.7 1.6-1.1 3.4-.65.5-3.15 0-2.65-.55-5.85-2.1-3.2-1.6-5.2-3.35-1.85-1.6-1.9-2.45z"/><path fill="#363636" d="m7.9 12.3-.8 1.3v.1l-.15.35q-2.4 3.15-5.5 2.1-1.7-1.7-1.4-2.9Q.3 12 2.1 11.7q1.45-.3 3.4 0l1.4.3z"/><path fill="#fff" fill-opacity=".2" d="M13.45 4.4q.75 1.05 2.45 1.7-3.9 5.7-6.2 12.2l-1.3-1.1q2.9-4.5 5.05-12.8"/><path fill="#d46825" d="M20.15 20.3q3.05 2.1 5.2 4.85 2 2.5 3.2 5.55-.6 2.1-4.85 3.65-.5-3.7-1.55-7.05-1.15-3.7-3-7l-.4-.7.1.7q.3 2.55-.7 5.55-.85 2.4-2.55 5.1-2.85-1.9-3.65-3.45l3.25-3.3 2.8-3.9.6-1.1.15.2z"/><path fill="#a64103" d="m19.15 20.3-.4-.7.1.7q.3 2.55-.7 5.55l-.5-.3-.4-.25-.25-.15-.45-.25-.1-.05-.55-.3-.7-.35 2.8-3.9.6-1.1.15.2 1.4.9q3.05 2.1 5.2 4.85l-.55.35-.1.05-.15.1-.2.15-.2.1-.6.35-.15.1-.3.25-.25.15-.7.55q-1.15-3.7-3-7"/><path fill="#fff" d="M18.7 19.65v.65l-.65 4-.4 1.25L15 30.5l-.9-.6 2.9-4.75.35-.65q.85-1.85 1.25-4.2zm.8.65q1.9 1.8 3.9 6.05l2.7 6.85-1.1.6q-.95-3.95-2.15-7.05-1.55-3.85-3.55-6.45l-.35-.45zm-1-.65-.1.65q-.45 2-1.95 4.55l-3.05 4.4q-.8-.55-.9-1.1 2-1.8 3.4-3.6 1.55-2.1 2.4-4.25zm1.25.65q1.8 1.4 3.7 3.5l1.35 1.7q1.65 2.3 3.45 5.75l-.15.3-.6.7-2.3-4.6-1.05-1.75-.9-1.5q-1.45-2.25-3.6-4.1l-.8-.65z"/><path fill="#59af53" d="M18.45 18.1v.1q-.15.4.15.7.2.35.5.3l.3-.2-.15-.25v-.1l.05-.25.15-.2.5.05.5-.05.5-.4q.4-.8-.75-1-1.1-.2-1.5.7l-.2.55zm.3-2.7.75-.2 1.2.7 1.1 1.1-.25.3-.2.85-.4.4q-1.1-.35-1.25 0v.05l-.05.25.05.1.15.2.5.3 1.15.3-.3.5-.8.65-.6.1-.05.35-.25-.1-2.05-1-.5.05-.45-.9-.3-1.2.15-.65q.1-.5 1.1-1.75v.15q.05-.05 1.3-.55"/><path fill="#a1e785" d="M19.3 13.65q-.05-.25 1.4-.4 1.4-.15 2.85.8 1.35.9 1.8 2.25l.15 1.3-.7-.8q-.4-.55-1.05-.7-.65-.2-.35.2l.5 1.1.05.5-.2 1.15-.15.3q-.4.95-1.15 1.5l-.9.5q-.9.25-1.8 0l.05-.35.6-.1.8-.65.3-.5q.65-.05 1-.8.45-.9-.05-1.65-.35-.6-.65-.3l-1.1-1.1-1.2-.7 1.85.1 1.25.2-.05-.1-1.3-1.1q-.75-.55-1.5-.45zm6.35 7.5q.45-1.1.3-2.1l-.15-.75q.4.55.65 1.85.3 1.6-.5 3t-2.3 1.8q-1.6.3-2.75-.3l.8-.8q.95 0 1.8-.55 1.65-1.05 2.15-2.15m-7.2-3.05.05-.05.2-.55q.4-.9 1.5-.7 1.15.2.75 1l-.5.4-.5.05-.5-.05-.15.2-.05.25v.1l.15.25-.3.2q-.3.05-.5-.3-.3-.3-.15-.7z"/><path fill="#97e092" d="m17.1 13.4 2.2.25.45.2-.9.3q-1.15.6-1.3 1.2l-.1.45q-1 1.25-1.1 1.75l-.15.65-.25-.5q-.35-.15-.55 1.05-.35 1.1-.35 1.95.05.8.65 1.75l1.45 1.25 1.9.35q1-.15 1.2-.5l1.45.3-.8.8-.05-.05-1.95.15-.3-.05h-.7l-.8-.25-1.05-.6q-1.6-.85-2.3-2.55-.45-.9-.35-1.85l.1-.65.2-.55.25-.5.05-.05q.6-1 1.35-1.25v-.25q0-.75.4-1.7.4-1.05 1.35-1.1m-.4.75q-.45-.35-.75.35-.4 1.95.05 2.25t.85-1q.4-1.25-.15-1.6"/><path fill="#75c270" d="M16.7 14.15q.55.35.15 1.6-.4 1.3-.85 1t-.05-2.25q.3-.7.75-.35m7.2 2.9.45.65q.7 1.45.15 2.65l-1.45 1.95-2.8-.05-.85-.5-.65-.5 1 .2 1.8-.1.9-.5q.75-.55 1.15-1.5l.15-.3.25-1.15zm-4.85 7-1.9-.35-1.45-1.25q-.6-.95-.65-1.75 0-.85.35-1.95.2-1.2.55-1.05l.25.5.3 1.2.45.9.15.65q.45 1.25 2.65 2.35l.5.25q-.2.35-1.2.5"/><path fill="#d6fca6" d="M18.75 15.4q-1.25.5-1.3.55v-.15l.1-.45q.15-.6 1.3-1.2l.9-.3q.75-.1 1.5.45l1.3 1.1.05.1-1.25-.2-1.85-.1zm5 .7q.65.15 1.05.7l.7.8.05.1.25.6.15.75q.15 1-.3 2.1-.5 1.1-2.15 2.15-.85.55-1.8.55l-1.45-.3-.5-.25q-2.2-1.1-2.65-2.35l-.15-.65.5-.05 2.05 1 .25.1q.9.25 1.8 0l-1.8.1-1-.2.65.5.85.5 2.8.05 1.45-1.95q.55-1.2-.15-2.65l-.45-.65.1.85-.25 1.15.2-1.15-.05-.5-.5-1.1q-.3-.4.35-.2m-1.3 1.2q.5.75.05 1.65-.35.75-1 .8l-1.15-.3-.5-.3-.15-.2-.05-.1.05-.25v-.05q.15-.35 1.25 0l.4-.4.2-.85.25-.3q.3-.3.65.3"/></g></defs></svg>