<?xml version="1.0" encoding="UTF-8" standalone="no"?>
<svg xmlns:ffdec="https://www.free-decompiler.com/flash" xmlns:xlink="http://www.w3.org/1999/xlink" ffdec:objectType="frame" height="34.1px" width="53.75px" xmlns="http://www.w3.org/2000/svg">
  <g transform="matrix(1.0, 0.0, 0.0, 1.0, 4.2, 11.15)">
    <use ffdec:characterId="1" height="34.1" transform="matrix(1.0, 0.0, 0.0, 1.0, -4.2, -11.15)" width="53.75" xlink:href="#shape0"/>
  </g>
  <defs>
    <g id="shape0" transform="matrix(1.0, 0.0, 0.0, 1.0, 4.2, 11.15)">
      <path d="M25.85 -3.95 L19.55 -3.95 19.55 0.65 15.0 0.65 15.0 6.95 19.55 6.95 19.55 11.5 25.85 11.5 25.85 6.95 30.45 6.95 30.45 0.65 25.85 0.65 25.85 -3.95 M35.1 -7.5 Q43.35 -4.6 47.15 1.35 47.85 2.45 48.0 4.6 48.2 7.25 47.45 11.55 46.2 18.6 44.7 20.65 41.4 18.85 34.95 17.65 28.55 16.4 22.6 16.35 14.9 16.3 9.0 17.6 2.85 18.95 -0.25 21.45 -1.35 17.75 -2.05 13.35 -2.85 8.6 -2.7 5.5 -2.6 2.85 -1.8 1.35 0.7 -3.3 6.45 -6.25 13.15 -9.65 22.6 -9.65 29.0 -9.65 35.1 -7.5" fill="#ffffff" fill-rule="evenodd" stroke="none"/>
      <path d="M25.85 -3.95 L25.85 0.65 30.45 0.65 30.45 6.95 25.85 6.95 25.85 11.5 19.55 11.5 19.55 6.95 15.0 6.95 15.0 0.65 19.55 0.65 19.55 -3.95 25.85 -3.95" fill="#b60101" fill-rule="evenodd" stroke="none"/>
      <path d="M25.85 -3.95 L25.85 0.65 30.45 0.65 30.45 6.95 25.85 6.95 25.85 11.5 19.55 11.5 19.55 6.95 15.0 6.95 15.0 0.65 19.55 0.65 19.55 -3.95 25.85 -3.95 M35.1 -7.5 Q43.35 -4.6 47.15 1.35 47.85 2.45 48.0 4.6 48.2 7.25 47.45 11.55 46.2 18.6 44.7 20.65 41.4 18.85 34.95 17.65 28.55 16.4 22.6 16.35 14.9 16.3 9.0 17.6 2.85 18.95 -0.25 21.45 -1.35 17.75 -2.05 13.35 -2.85 8.6 -2.7 5.5 -2.6 2.85 -1.8 1.35 0.7 -3.3 6.45 -6.25 13.15 -9.65 22.6 -9.65 29.0 -9.65 35.1 -7.5 Z" fill="none" stroke="#22c3f9" stroke-linecap="round" stroke-linejoin="round" stroke-width="3.0"/>
      <path d="M35.1 -7.5 Q43.35 -4.6 47.15 1.35 47.85 2.45 48.0 4.6 48.2 7.25 47.45 11.55 46.2 18.6 44.7 20.65 41.4 18.85 34.95 17.65 28.55 16.4 22.6 16.35 14.9 16.3 9.0 17.6 2.85 18.95 -0.25 21.45 -1.35 17.75 -2.05 13.35 -2.85 8.6 -2.7 5.5 -2.6 2.85 -1.8 1.35 0.7 -3.3 6.45 -6.25 13.15 -9.65 22.6 -9.65 29.0 -9.65 35.1 -7.5" fill="#ffffff" fill-rule="evenodd" stroke="none"/>
      <path d="M25.85 -3.95 L25.85 0.65 30.45 0.65 30.45 6.95 25.85 6.95 25.85 11.5 19.55 11.5 19.55 6.95 15.0 6.95 15.0 0.65 19.55 0.65 19.55 -3.95 25.85 -3.95" fill="#b60101" fill-rule="evenodd" stroke="none"/>
      <path d="M45.5 19.2 L44.7 20.65 Q41.4 18.85 34.95 17.65 28.55 16.4 22.6 16.35 14.9 16.3 9.0 17.6 2.85 18.95 -0.25 21.45 L-0.9 19.1 Q5.45 14.25 18.3 13.25 33.85 12.0 45.5 19.2" fill="#000000" fill-opacity="0.29803923" fill-rule="evenodd" stroke="none"/>
      <path d="M45.5 19.2 Q33.85 12.0 18.3 13.25 5.45 14.25 -0.9 19.1 L-2.05 13.35 Q-2.85 8.6 -2.7 5.5 -1.5 12.0 1.45 13.0 3.8 13.8 7.95 11.2 L15.4 5.9 Q19.85 2.85 22.5 2.9 25.65 2.95 30.45 5.65 L38.1 10.25 Q42.2 12.45 44.35 11.65 47.1 10.6 48.0 4.6 48.2 7.25 47.45 11.55 46.55 16.7 45.5 19.2" fill="#000000" fill-opacity="0.08627451" fill-rule="evenodd" stroke="none"/>
    </g>
  </defs>
</svg>
