<svg xmlns="http://www.w3.org/2000/svg" xmlns:ffdec="https://www.free-decompiler.com/flash" xmlns:xlink="http://www.w3.org/1999/xlink" ffdec:objectType="frame" width="45.65" height="19.75"><use ffdec:characterId="1" xlink:href="#a" width="45.65" height="19.75"/><defs><g id="a" fill-rule="evenodd"><path fill="#b41010" d="M33.05 2.3q2.5 2.35 2.7 3.8l.05 1.1-.15-.2-.4-.1-.45-.4-.6-.15-1.1-.7-5.4-1.35-.2.05-.25-.05-5-.35q-3.8-.15-6.6.6l-4.15 1.5-.85.6h-.1l-.45.3.1-.9q.75-2.5 2.25-4.05 4.1-1.9 9.35-2h.15q6.45.15 11.1 2.3"/><path fill="#740909" d="m33.05 2.3 1 .5-.85-.5 2.45 1.5.2.1q5.1 3.55 7.25 7.95 2.15 4.45 2.55 7.9l-2-3.45-2.35-2.9q-1.75-1.9-3.7-3.5l-.5-.4-.5-.4-1.35-1q-.7-.45-1.4-.8-3.55-1.9-8.05-2.4l-3.85-.2q-6-.2-11.65 3.25Q8.15 9.2 6.1 11q-2.65 2.3-4.55 5.15Q.7 17.35 0 18.7l.75-2.4.55-1.6Q4.9 5.4 12.45 2q-1.5 1.55-2.25 4.05l-.1.9.45-.3h.1l.85-.6 4.15-1.5q2.8-.75 6.6-.6l5 .35.25.05.2-.05 5.4 1.35 1.1.7.6.15.45.4.4.1.15.2-.05-1.1q-.2-1.45-2.7-3.8"/><path fill="#fff" d="m38.15 3.7.45.25.2.3.55-.15q.7.1.8.5.35-.6.6-.6.4 0 .9.85l.3.1.4-.15q.8-.35.65.55l-.45.55.6.35.1.05h-.1l-.1.15-.2.05q-.3.35-.55-.25l-.4-.1q.5.35.15.8l-.15.1q-.55-.15-.05.25l.05.2-.2.35.1.1q.3.4-.1.7v.1l-.5-.1.1.25q.55.4-.2.2l-.05.1q.6.45-.05.5.1.35-.2.65l-1.1-.4-.05.1-.75-.05v-.1q0-.65-.5-.3.2-.85-.2-1.2l-.2.05q-.65.35-.5-.35l-.75-.15.05-.3V7.5q.6-.1.45-.7l-.1-.25.05-.15.75.05.3-.25.1-.4-.4-.6q.4-.4.15-1.35v-.1zM30.4 5.2q-.25-.15-.4-.7l.05-.5-.25-.15-.3-.4q-.15-.85.8-.7l.05.05v-.25l.5-.6-.2-.3q-.2-.9.7-.6l.3.15.45-.35q.7-.2.95.15.05-.65.35-.75.3-.2 1.1.45h.3l.3-.4q.65-.65.85.2l-.2.75.7.15h.05l-.05.05v.1q-.1.25-.2.15l-.6-.05-.35.05q.6.15.4.65l-.05.2q-.6.05.05.2l.1.25-.1.4.2.05q.45.15.15.65l.05.1-.55.15.3.1q.6.2-.2.35l.1.05q.65.2.05.55.3.2.1.65l-1.2.05v.1q-.2.5-.7.25v-.1q-.25-.55-.65 0-.1-.9-.65-1.05l-.1.1q-.45.55-.65-.15l-.75.15-.05-.25q-.2-.65 0-1l-.65.7z"/><path fill="#f3dfef" d="m43.25 6.3.25.4-.2.45.15.2-.1.55.2.05q.6.1.5.65l-.35.5v.15q-.2.9-.7 1.2l.15.65-.3.3-.35.15-.7-.3-.1.1v.25q-.1.55-.7.45l-.6.15-.4-.2v.05q-.1.5-.55.4-.6-.1-.6-.45l-.2-.1-.4.25-.55-.45v-.35l-.15-.05h-.4l-.55-.4v-.4l-.05-.05-.45-.35q-.4-.4 0-1.15l-.5-.4h-.1q-.55.1-.7-.2h-.2l-.3.35q-.4.1-.7-.2l-.2-.3-.05-.05-.4.2-.65-.1-.15-.25v-.1l-.05-.05-.6-.15q-.55-.2-.45-1.05l-.8-.3-.2-.4q0-.35.3-.65l.1-.05-.05-.05.1-.35.65-.7q-.2.35 0 1l.05.25.75-.15q.2.7.65.15l.1-.1q.55.15.65 1.05.4-.55.65 0v.1q.5.25.7-.25v-.1l1.2-.05q.2-.45-.1-.65.6-.35-.05-.55l-.1-.05q.8-.15.2-.35l-.3-.1.55-.15-.05-.1q.3-.5-.15-.65l-.2-.05.1-.4-.1-.25q-.65-.15-.05-.2l.05-.2q.2-.5-.4-.65l.35-.05.6.05q.1.1.2-.15v-.1l.05-.05q.4-.05.45.2l-.05.45.25.25q.15 0 .1.5l.25-.1q.6-.1.7.5l-.05.5-.05.05v.1q.25.95-.15 1.35l.4.6-.1.4-.3.25-.75-.05-.05.15.1.25q.15.6-.45.7v.15l-.05.3.75.15q-.15.7.5.35l.2-.05q.4.35.2 1.2.5-.35.5.3v.1l.75.05.05-.1 1.1.4q.3-.3.2-.65.65-.05.05-.5l.05-.1q.75.2.2-.2l-.1-.25.5.1v-.1q.4-.3.1-.7l-.1-.1.2-.35-.05-.2q-.5-.4.05-.25l.15-.1q.35-.45-.15-.8l.4.1q.25.6.55.25l.2-.05.1-.15z"/></g></defs></svg>