<svg xmlns="http://www.w3.org/2000/svg" xmlns:ffdec="https://www.free-decompiler.com/flash" xmlns:xlink="http://www.w3.org/1999/xlink" ffdec:objectType="frame" width="100.15" height="36.8"><g transform="translate(28.4 12)"><use ffdec:characterId="1" xlink:href="#a" width="100.15" height="36.8" transform="translate(-28.4 -12)"/><use ffdec:characterId="3" xlink:href="#b" width="86.55" height="31.8" transform="translate(-19.8 -9.55)"/><use ffdec:characterId="4" xlink:href="#c" width="85.15" height="30.3" transform="translate(-17 -8.05)"/></g><defs><g id="a" fill-rule="evenodd"><path fill="#fff" d="M5.6 28.15q-3.15-1.7-4.15-2.85Q-.2 23.2 0 22.4q.5-1.8 6.3-2.55 2.25-2 6.35-3.8 14.25-6.2 44.05-4.8l11.7.75 11.75 2.45q12.8 3.4 18.25 8l.25.3q1.75 2.1 1.45 3.8L98.9 31q-.35 1.15-1.4 2.05-.7.9-2.95 1.75l-3.7 1.2q-6.85 2.1-31-1.4-22.55-3.3-32.2-6.85-3.2-1.2-5.95-2.05-5.6-1.8-10.1-2.25l-6.4.35-1.1.6q-.55.45-.5.7l.15.45q.35 1.3 1.1 2z"/><path fill="#8eb5bd" d="m5.6 28.15-.75-.6q-.75-.7-1.1-2l-.15-.45q-.05-.25.5-.7l1.1-.6 6.4-.35q4.5.45 10.1 2.25 2.75.85 5.95 2.05L22.9 28.9q-6 1.2-11.35.85-3.95-.25-5.95-1.6"/><path fill="#fff" d="M31.35 3.75q1.75-1.8 6.5-2.75L38.9.8 52.1 0l12.5.8 1.25.3q7.5 1.4 6.95 3.15v.05l.05.25q-.35.25-2.05.75l-.8.25q-3.75 1-9.8 1.7-6.8.55-14.25.3l-1.2-.1-7.4-.9Q34.65 6 32.8 5.2q-1.9-.8-1.45-1.45"/><path fill="#c1dbe8" d="m72.85 4.55.1.95v9.2l-.05 1.65q-.55 1.1-2.5 1.95l-4.55 1.25-1.25.25-4.05.5h.35q1.35.2 1.35 1.05 0 .6-.75.75l-4.55.2-5.65-.5q-1.15-.5-1.65-.5l-2.8.05.05.2q-.2.75-.75.75-1.5 0-2.25-.7-.5-.45-.5-.9l.1-.3-4.6-.6-1.05-.2q-5.65-1.1-7.1-3.25V5.15l.15-.9.45-.5q-.45.65 1.45 1.45 1.85.8 4.55 1.35l7.4.9 1.2.1q7.45.25 14.25-.3 6.05-.7 9.8-1.7l.8-.25q1.7-.5 2.05-.75"/><path fill="#72674f" d="m81.1 33.9-.35-.4q0-.25.35-.4h3.95q.35.15.4.35L84 33.9z"/><path fill="#72674f" fill-opacity=".639" d="m9 19.65-.25.05 2.65-1.45q2.25-1.2 1.95-.2-.25.8-1.75 1.55z"/><path fill="#c1dbe8" d="M92.65 21.55q-.65-.3.15-.4.75-.15 2.65 1.05 1.85 1.25 2.5 2.65l.45 1.6-.15.85-.75 1.45-.95 1.15-.5.5-.3.2q-1.65 1.1-4.8 1.95l-3.85 1.1 2.4-.95-.35-.1v-.3q0-.25.7-.55v-.05l.35-1 .7-.6v-.25l-.65-.1-.15-.25.45-.7-.45-.45-.15-.4q0-.3.45-.65v-.1l-.55.2q-.5 0-.5-.35 0-.25 2.25-1.2 2.15-1.25 2.15-2.9-.5-.5-.5-.75 0-.35-.6-.65M84 17.1l4.1 1.6q0 .6-1.1.45.45.1.45.5l-.45.45q-.5.2-1.2 0-.2.5-1.2.8-.6 0-.75-.65l-.1-.95-.9-1q-.75-.6-.8-1.25zM54.9 27.25l4.35 3 1.85 1.6 1.8.45q1.5.25 1.5.85l-.1.55v.05l-1.35-.15.3.1h.35v.05h-.2l.15.05-1.7-.3-3.3-.5-2.5-.5-4.2-.9-7.5-2.05q-4.9-1.45-5.45-2-.6-.6-.05-1l.7-.4.75.2.7-.05q2.15-.95 4.5 0l3.55 1.7h.65l1.1-.15 3.4-.3q.35-.3.7-.3m-30.95-12 .3.4L24 16q.45.25.45.45l-1.05 1h-1.25l-.4-.35.15-.15.1-.2q0-.85-1.25-.8t-1.25-.35q0-.5 2.6-1.05l2.55-.1z"/><path fill="#819ba3" d="M9.45 27.55q-3.7-.4-5.2-1.3l-.65-1.3.35.1.2.1 1.6.85 3.75.7 4.6.1q4.65 0 8-.9l.6.2.45.2-1.5.45q-3.6.9-7.6.9zM72.85 8.1l.05.9q-3.65 3.1-14.55 7.45Q44.4 22 41.5 20.5h-1.4l-.35-.35q0-.25 2.7-.7l9.25-1.85q5.4-1.3 11.6-4.15 6.05-2.75 9.55-5.35"/></g><g id="c" fill-rule="evenodd"><path fill="#4ba2ba" d="m12.45 7.7.75-2.5q.5 1.1.5 1.8 0 1.75-.8 4.1l-.25.75-.65.75-.05-.05-.15.2.25-2.1.15-2.05zM12.1.55q.8-.6 2.3-.55 1.45 0 8 3.55t9.1 7.5q-6.95-2.3-11.6-4.65-2.3-1.15-3.6-2.05-4.05-2.5-4.2-3.8m-4.15 9.8 1.95 1.4.15-.15.3-.05.75.6-.15.55-.45.7-.1.15-.15.25-1.05 1.4L8 16.5l-.5.5-4.3-.8 1-.45 1.75-.9q-1.4-1.1-3.25-1.1-1.65 0-2.3.7l-.25-.3-.15-.3q.55-.8 1.25-1.1l1.65-.35h1.55q1.25.15 2.75 1.05l.6.4.85-.7q-2.7-2.6-4-3.4l2.35.3zm3.15 4.5.5-.55.25.15 2.65 1.7 1.9 1.5 1.85 1.6q.7.55 2.25.85l2.25.4h.05l2.7-.95.3-.1h-3.1q-3.2-.2-4.3-1.25l-1.2-1.15h.15l2.8.25v.05l1.15.05q2 0 3-.55.75-.45.75-.95 0-.75-1.3-1-6.55-3.4-7.45-4.8l9.3 3.3 1.75.9q.9.35 3 1.85l1.45 1.1-.15-.6-.6-.7L27 13l2.75-.7q1.3-.4 2.3 0l.6 1.4q.95 2.1 1.3 2.1.45 0 .45-.6l-.35-1.1.05-.15 1.05-.15-.1.35v.05l.15.95q0 1.05-.6 2.85l-.55 1.55-.2.35-.3.55-.1.35.15.6v-.05q0-.4.85-2.05l.95-1.65.4-.45.7 1.25q1 1.65 1.55 1.8L35.75 23q1.4-.4 2.55-2.8l.15-.25h-.05l.5-1.25.25-.4q1.35-2.1 1.65-3.9h.3v.55l-1.4 4.7-1.2 1.9q-1.15 1.85-1.15 2.05l.25.35 2.05-2.1 1.15.3.3-.05.35-.2q1.45-.65 2.35-3.5l.75-2.55.1-.35-.05-.15q-.1-.35.35-.5l.75.15L56 11.7q7.2-2.35 8.6-2.6l2.3-.2q.9 0 1.55.6l1.35 1.2q.7.55.35.8l-.3.2-4.8.55q-3.7.25-14.1 2.75-5.35.35-4.85 1.25l.3 1.45v.05l.1.45.2.3.1.1q.25.25.95.35l1.9.35.5-.1 2.1-.45 3.05-.55q1.5 0 2.05.85v.15q0 .75-.7 1.05l-5.75.65-3.25-.35.3.3.85.55q2.05 1.5 3.6 1.95l.85.3h2l7.2-.9L64 22.4l-.95.5-2.15 1.35q-2.25 1.05-5.8 1.05-1.6 0-4.35-1.05L49 23.6l.4.25 2.75 1.95 2.95.55 3.8-.7.65.15q2.15.8 3.8.8l1.35-.25q.95-.3 2.25-1.25 2.2-1.65 3-2.95-1.25 3.1-2 6.3-.45 1.95-.95 1.7l-15.7-.45q-3.1-1.3-6.75-4.5l-1.15.6-.45.1h-.9l-.15-.05-.55-.25-.65-.15h-.05l-1.2.4-.95-.05-.55-.05q-.4-.05-.9-.55l-1.3-1.15q-1.45.4-2.05-.75l-.9-.6q.3.35-4.35 1.4l-4.95-2-.95-.35-1.2-.45-1.45-.6-.1-.05-11-3.4 2.05-2.1zm71.45 5.6-.2 1.15q-.65.8-1.25.75l-1-.35q-.45-.85-3.25-1.2t-3 .75l-.5 2-.25 2.75 1.95-1.55q4.55-2.8 6.05-.45.35 3-1.6 4.25l-3 1.6-1.3-.05-2.3.05-1.1-.15-.9-.2-.6-.45v-.6q0-1.9 1.45-5.2l.95-2.7.1-.65h.05l.3-2.5-.3-1.95.45-.4.5-.55q.7 1.8.7 3.6l-.05 1.05 2.7-1.25q4.45-1.8 5-.85.65 1.1.4 3.1m-37.5-4.55q-.25 1.9-1.4 4.9l-.05.2-.55.95-1.35 2.4.35.1q.6 0 1.75-2.55l.6.55.4-.1.3-.8.3-1.2.05-1.3v-.95l-.1-.95zm-21.85.15.05-.05h.15z"/><path fill="#819ba3" d="m83.6 21.75-1.1-.7.25-.4.25-.4.45.45q1.7 1.25 1.7 2.55 0 1.1-.95 2.5-.85 1.2-3.85 2.05l.65-1.05 1.15-.5q1.55-.75 1.9-2.3t-.45-2.2"/><path fill="#fff" d="m14.2 5.25.4-.55q.4.3.55.3 1.4.55 4.3 2.1L23 8.8l4.2 2q1.6.7.3.6l-5.65-1.55-2.1-.4-1.25-.2-.1-.05-.65-.1-.5-.1-.55-.1-.85-.65q-.9-.65-1.3-1.6-.45-.95-.35-1.4M62.65 17.2l-10-.8-2.05-.3-.9-.05 7.35-1.5 11.65-1.8q.95.15 1.5.85.65.8.65 1.7 0 1.15-1.85 1.85l-.45.15z"/></g><path id="d" fill="#8cdfff" fill-rule="evenodd" d="M81.5 13.7q.8.7 1.35 1.95.45 1.05 2.1 2.05 1.2 1.15.55 2.9l-.4.95-.8 1.4q-.35 1.05-2.25.6l.5.45q.65.85.55 2.95-.1 2.75-3.35 4.1-3.1 1.25-7.5-.15l-.3.55-4.1.3-4.45.05-10.15-.6-2.15-1.15-4.45-3.6q-1.05.6-1.65.8-1.05.35-1.95-.4l-3.05.3q-1-.3-2.2-1.65-.95.4-1.65-.2L35 24.2q-1.95.85-5.05 1.3l-.95-.35q-10.05-4.3-17.85-6.25L9 18.35l-.95-.25-3.45-.7-5.4-.25q1.75-.3 3-1.65l-.05-.05q-.75-1.5 3.2-5.25 1-1.15 3.25.2l3.55 2.6.95.7q.65-1.95.55-3.75-.05-1.65-.95-4.9-.7-2.35-.1-3.6 1.2-2.65 6.75-.5 3.25 1.3 7.35 4 7.4 4.95 9.35 10.8.15-.15.25-.15.6-.05 1.5-.8.9-.65 1.45-.65.45.05 1.85.8l1.8.9 1.75-.35q1.7-.05 2 1.4.25-1.4 3.55-2.25 1.3-.3 10.3-4.2 8.75-3.25 10.45-1 3.35 3.3 3.9 8l2.2-2.35q2.6-2.2 4.45-1.4" transform="translate(.8)"/><use ffdec:characterId="2" xlink:href="#d" id="b" width="86.55" height="31.8"/></defs></svg>