<?xml version="1.0" encoding="UTF-8" standalone="no"?>
<svg xmlns:ffdec="https://www.free-decompiler.com/flash" xmlns:xlink="http://www.w3.org/1999/xlink" ffdec:objectType="frame" height="14.85px" width="43.25px" xmlns="http://www.w3.org/2000/svg">
  <g transform="matrix(1.0, 0.0, 0.0, 1.0, -1.1, -8.3)">
    <use ffdec:characterId="1" height="14.85" transform="matrix(1.0, 0.0, 0.0, 1.0, 1.1, 8.3)" width="43.25" xlink:href="#shape0"/>
  </g>
  <defs>
    <g id="shape0" transform="matrix(1.0, 0.0, 0.0, 1.0, -1.1, -8.3)">
      <path d="M39.75 19.6 Q35.6 21.6 30.0 21.55 L23.25 21.45 22.7 21.45 12.25 22.35 Q2.05 23.2 2.15 13.9 L42.15 14.3 Q43.85 17.55 39.75 19.6" fill="#000000" fill-opacity="0.69411767" fill-rule="evenodd" stroke="none"/>
      <path d="M31.35 21.6 L32.1 21.9 31.5 22.05 31.25 21.75 31.35 21.6 M37.2 16.95 L37.25 17.15 36.5 17.0 34.9 16.7 34.25 15.25 36.55 15.3 37.2 16.95" fill="#ffffff" fill-opacity="0.3137255" fill-rule="evenodd" stroke="none"/>
      <path d="M37.6 18.55 L37.65 18.55 37.65 18.6 37.2 18.5 35.4 18.1 35.1 17.2 37.3 17.6 37.6 18.55" fill="#ffffff" fill-opacity="0.30980393" fill-rule="evenodd" stroke="none"/>
      <path d="M41.75 14.4 L41.65 14.45 41.7 14.4 41.9 14.4 41.75 14.4" fill="#0f7da3" fill-rule="evenodd" stroke="none"/>
      <path d="M41.7 14.4 L42.0 14.35 41.95 14.45 41.75 14.4 41.9 14.4 41.7 14.4" fill="#ffffff" fill-rule="evenodd" stroke="none"/>
      <path d="M36.3 10.65 Q37.7 11.15 39.1 11.8 L40.2 12.3 41.95 13.15 43.7 14.3 44.0 14.3 43.95 14.35 44.05 14.6 44.1 14.6 44.05 14.6 Q45.15 18.25 42.15 20.35 L41.75 19.4 41.05 17.85 Q42.2 16.45 42.15 14.6 L41.7 14.6 41.95 14.45 42.0 14.35 41.7 14.4 42.15 14.3 41.55 14.3 38.3 13.3 36.3 10.65 M29.1 23.1 L23.5 23.1 23.35 23.1 22.75 23.1 22.15 23.1 Q0.45 23.75 1.1 15.8 L1.3 14.7 1.4 14.05 1.25 14.05 Q3.0 13.15 4.7 12.4 L5.9 11.9 Q13.5 8.7 20.95 8.35 L23.25 11.25 20.75 11.2 12.15 12.0 8.35 12.8 5.75 13.4 3.5 14.05 3.2 13.85 3.0 14.45 Q2.65 16.45 3.35 17.8 L3.4 17.9 5.1 19.5 8.5 20.9 9.0 20.85 15.9 21.95 24.15 21.95 28.2 21.8 29.1 23.1" fill="#71548a" fill-rule="evenodd" stroke="none"/>
      <path d="M42.15 20.35 Q38.5 22.8 29.1 23.1 L28.2 21.8 24.15 21.95 15.9 21.95 9.0 20.85 8.5 20.9 5.1 19.5 3.4 17.9 3.35 17.8 Q2.65 16.45 3.0 14.45 L3.2 13.85 3.5 14.05 3.3 14.05 3.25 14.1 3.25 14.7 Q3.25 15.75 3.7 16.65 5.8 21.4 18.75 21.5 L22.15 21.45 22.7 21.45 23.25 21.45 27.7 21.35 30.55 21.25 Q38.6 20.65 41.05 17.85 L41.75 19.4 42.15 20.35 M20.95 8.35 Q28.7 7.95 36.3 10.65 L38.3 13.3 35.7 12.55 Q29.85 11.35 24.85 11.25 L23.25 11.25 20.95 8.35" fill="#461b6b" fill-rule="evenodd" stroke="none"/>
      <path d="M31.35 11.8 L35.7 12.55 41.55 14.3 41.95 14.35 41.7 14.4 40.45 14.3 33.0 14.25 31.35 11.8 M20.5 14.2 L3.45 14.05 5.75 13.4 8.35 12.8 12.15 12.0 16.55 11.5 18.0 11.4 20.5 14.2" fill="#ffffff" fill-rule="evenodd" stroke="none"/>
      <path d="M33.0 14.25 L20.5 14.2 18.0 11.4 20.75 11.2 24.85 11.25 31.35 11.8 33.0 14.25" fill="#cccccc" fill-rule="evenodd" stroke="none"/>
    </g>
  </defs>
</svg>
