<svg xmlns="http://www.w3.org/2000/svg" xmlns:ffdec="https://www.free-decompiler.com/flash" xmlns:xlink="http://www.w3.org/1999/xlink" ffdec:objectType="frame" width="65.85" height="72.9"><use ffdec:characterId="1" xlink:href="#a" width="65.85" height="72.9"/><defs><g id="a" fill-rule="evenodd"><path fill="#333" d="M24.8 2.4Q29.6.2 35.55 0q5.95-.25 13.5 4t10.5 8.55q2.9 4.25 4.35 7.7l1.75 4.45.05.05.1.25.05.75-.05.1-.25.4-.1.05-.8.45.35.8.2.4.2.85-.05.25-.05.65-.05.3h-.05l-.2.3h-.3l-.85-.1-.75-.1-.9-.05q-30.1.75-39.1.2l-2.2-.1-7.2-.5-.65-.05-1.5.2q.05 1.45-.05 1.45l.05 2.2h-.05v.05l.05 1.25.95 12.95q.75 9.05 1.4 14.5v.2q.65 5.55 1.8 9.55l.3.95q-3.3-.05-5.55-2.25-1.45-1.45-1.8-2.8L8.6 66.3v-.1l-.4-1.35-.65-.5-.1-.05-1.1-.8-1.1-1.05v-.3q-.4-.35-.4-1.15L5 57.15l.05-.45v-.25l-.15-.05h-.1l-2.45-1-.2-.1Q.9 54.6.45 53.5q-.5-1.2-.45-2l.4-2.9.6-1.05.3-.55-.05-.05q-.3-.5-.2-1.45.1-1.4 1.05-3.75l1.55-4.15 1.9-5.8.1-.2v-.05l-.3-.4-.35-.6-.05-.1-.2-.3-.35-.55q-.75-.95-.75-1.3.45-3 1.25-4.45l.05-.05v-.05q.9-2.45 2.85-2.25h.15l.05-.2.7-1.9.55-1.35 2.95-5.5q2.3-3.8 5.1-5.9 2.75-2.05 7.5-4.25"/><path fill="#c30" d="m13.2 58.8-1.25-1.65-.55-.7-1.45 2.3-.3.55-.25.3-.25 2.25.05.05.15.25q.5.75 1.6 1.05l.2.05 1.55.3h.7l.65-.15.5 3.5q-.85.9-3 .2l-1.6-1-.8-1.05-.2-2.6-.2-.15-1.15-1.1-.15-.15-.2-.25-.2-.35q-1.6-2.45-1.2-6.2l-.45.1h-.3l-1.65-.3-.25-.1q-.8-.35-1.3-1.25-.55-1.05-.4-3.6.1-1.75.4-2.75l.3-.75.05-.1.2-.35-.5-1.15-.15-1.4.3-.85.9-2.35q-.2 1.3 0 2.35l.25.9.35.45-.1.3-.35 2.2-.05.7q-.1 1.55.15 2.9l.15.65q.15.65.65 1.1l1.55.85.95.2q.15 2.5.9 4.45l.1.15.4.75L9.4 58.7h.05l.15-1.5 1.75-2.35 2 2.7.15 1.45.05.25zm-8.65-24-.15 3.1-.05.6-.1 1.35 2.3-1.5-.85 3.3-.15.5-.65 2.6v.1l2.5-2.7.15 6.75 2.15-1.3.05 6.95-.45 2.95-.45-4.7-.15-2.3v-.9l-1.8 1h-.05L6.7 47l-.05-.9v-.5l-.05-.75L4 47.3l.1-1.25v-.45l.1-1.75.95-3.55-1.6.5.25-3.6zm1.55 5.6-.1.3.1-.35z"/><path fill-opacity=".298" d="m39.2 3.05-1.8.5-.1-.05-.25.05Q28.85 6.4 30.5 16.5q.45 2.85 2.2 4.6 4.25-1.7 12.95-1.1l7.25.75q-7.35 1.45-15.05 1.55l-3.2.15 1 .45 7.55.35 5.65.25 4.8-.5v-.1l.55-.05.4-.05.55-.15q1.95-.55 2.95-1.35l.35-2.25q-1.6-5.8-5.7-9 1.7.6 3.05 1.6 4.45 3.5 6.15 8.55 1.45 3.1.45 3.8l-.7.2.25.1.1.05-.8-.05-12.1-.3h-3.1l-.5-.1h-1.9l-6.1-.25-7.1-.5-7.6.95-3.7.75 5.5.2q3.1.3 6.3.1L41.4 24.1l11.35 1.2 3.45.2-.45.35-5.45 1.6-7 .85-1.2.15 14.95.95 5.15.65q-30.1.75-39.1.2l-2.2-.1-7.2-.5-.65-.05-1.5.2q.05 1.45-.05 1.45l.05 2.2h-.05v.05l.05 1.25.95 12.95q.75 9.05 1.4 14.5v.2q-.7-2.25-.95-5.35-.3-3.15-.95-7.6-.65-4.5-.9-8.3-.2-3.55.1-6.75h-.05l-.1.8q-.75 3.9-.5 7.95l-.15-.95q-.75-4.15-.35-7.6l-.1-1.25-.3-2.35-.2 1.35q0 5.55.5 11 .3 3.75.3 7.45 0 3.15-.35 6.15l-.8 5.6-.35 4.25-.15-.6-.4-1.35-.65-.5-.1-.05-1.1-.8-1.1-1.05q.4-.3.9.2 1.15-.4 1-1.8l.7-2.2q.6-2.5.85-5.8l.3-5q-.1-3.05-.5-6.1l-.55-4.6-.8 3.7-.45 2.55-.05.3-.9 6.75-.1.85-.6 5.4v-.25l-.15-.05h-.1l-2.45-1-.2-.1q1.35-1.4 1.9-3.75l1.1-6.15 1.1-7.95.6-5.2-.1-.05-.5 2.3q-1.3 5.45-2.5 8.4Q2.5 45.85 1 47.55l.3-.55-.05-.05q-.3-.5-.2-1.45l2.1-4.05q2.35-4.8 2.75-7.25l.35-2.2-.6-.4v-.05l-.3-.4-.35-.6-.05-.1-.2-.3q-.55-1 .2-3.25l1-1.8Q5.1 30 5.9 30.75q.75.7.5-.45v-.1l-.55-.55-.05-.15.45-.25-.1-1.35q.05-3 1.05-5.2-1 .85-1.65 2v-.1q.55-1.7 1.7-2.9l.45.05.15-.25.4.05v.25l-.1.6v.1l-.05.15.45 2.4q1-.75 1.4-1.65h1.1l10.15.1-10.7-1.6q1.5-4.45 4.1-8.1 3.9-5.75 10.35-9.35 2.5-1.45 3.45-1.6L32.25 2q3.55-.1 7 .9zm22.85 21.3.1.05-.05-.05zm.85 2.25 2.45-.7.45-.05-.25.4-.1.05-.8.45.35.8.2.4.2.85-1.95-.3-11.1-.65 3.2-.25zm-23.7-.1q-4.8-.55-9.45-.2-2.45.25-4.75.9 5 .4 10.05.25zm-21.25.4-8.85.4-.35.1-.65 1.45h.1l.05-.05q.2-.35.6-.5l.4-.1.2.65h.5l.2-.25.8-.1.3.35h1.15q3.9-.5 6.6-1.95zm-10.7 1.95h.65l-.65-.2z"/></g></defs></svg>