<?xml version="1.0" encoding="UTF-8" standalone="no"?>
<svg xmlns:ffdec="https://www.free-decompiler.com/flash" xmlns:xlink="http://www.w3.org/1999/xlink" ffdec:objectType="frame" height="49.3px" width="57.3px" xmlns="http://www.w3.org/2000/svg">
  <g transform="matrix(1.0, 0.0, 0.0, 1.0, 6.0, 28.15)">
    <use ffdec:characterId="1" height="49.3" transform="matrix(1.0, 0.0, 0.0, 1.0, -6.0, -28.15)" width="57.3" xlink:href="#shape0"/>
  </g>
  <defs>
    <g id="shape0" transform="matrix(1.0, 0.0, 0.0, 1.0, 6.0, 28.15)">
      <path d="M21.25 -27.95 Q21.65 -27.9 21.9 -27.65 L22.5 -26.9 22.55 -26.85 Q22.55 -27.95 23.5 -27.95 24.35 -27.95 24.55 -25.85 L24.55 -25.8 24.75 -26.15 Q25.45 -27.25 25.45 -25.8 L25.4 -25.2 26.1 -25.6 26.5 -25.7 Q27.4 -25.7 27.7 -24.9 L28.2 -25.85 Q28.75 -26.4 28.75 -25.1 L28.75 -24.65 28.85 -24.85 Q29.95 -26.5 30.9 -26.5 31.5 -26.3 31.5 -25.8 L31.1 -24.25 30.8 -23.3 31.05 -23.85 Q31.45 -24.55 31.9 -24.85 32.25 -25.2 32.65 -25.2 L32.8 -25.2 32.9 -25.2 Q33.3 -25.2 33.3 -24.25 L32.8 -22.5 32.45 -21.75 32.5 -21.75 32.8 -21.75 33.25 -22.3 Q33.9 -23.0 34.4 -23.0 L34.45 -22.7 34.0 -21.9 33.6 -21.55 34.0 -20.65 Q35.35 -22.75 35.35 -21.2 L34.85 -20.35 35.55 -20.75 Q36.85 -21.4 37.15 -19.85 L37.2 -18.45 37.35 -18.5 Q38.05 -18.6 38.05 -17.9 38.05 -17.65 37.65 -17.3 38.15 -17.25 38.15 -16.8 L37.0 -16.15 Q38.6 -15.85 38.6 -14.85 38.6 -14.35 37.7 -13.75 L37.55 -13.65 38.6 -13.7 38.95 -13.25 38.6 -12.8 37.7 -12.8 38.0 -12.15 37.9 -11.55 37.5 -11.4 Q40.35 -8.55 43.7 -3.7 46.35 0.1 47.75 3.05 L48.9 5.85 48.9 5.95 49.0 6.1 49.4 7.05 49.45 7.15 50.25 7.85 Q50.9 8.4 51.2 9.4 L51.25 10.9 51.25 18.25 Q51.15 20.5 50.45 20.7 L50.15 21.1 49.95 21.15 49.75 21.15 Q49.0 21.15 48.15 19.8 L46.85 17.4 45.9 16.05 44.95 15.25 43.7 14.15 Q42.3 13.25 39.35 11.75 31.75 7.9 21.05 7.8 10.3 7.65 3.1 11.45 0.75 12.65 -1.0 14.35 L-2.45 15.8 -2.4 15.85 -2.5 15.9 -3.25 16.7 Q-3.7 17.0 -4.2 17.45 L-4.9 17.45 -5.7 16.8 -5.9 16.45 -6.0 15.85 -5.1 8.85 -4.55 5.05 Q-4.2 3.45 -3.5 2.5 L-2.0 2.05 -1.9 1.95 -1.45 1.25 -1.15 0.75 -0.65 -0.35 -0.85 0.4 -0.5 -0.25 0.5 -1.65 3.4 -5.35 5.6 -8.0 7.25 -9.6 7.7 -10.15 7.8 -10.1 11.65 -13.25 11.5 -13.35 11.4 -13.4 11.2 -13.55 Q10.7 -13.7 10.6 -14.2 L10.55 -14.3 10.4 -14.9 Q10.25 -15.4 10.7 -15.75 11.05 -16.05 11.75 -16.2 11.35 -16.3 11.05 -16.5 L10.65 -16.9 Q10.65 -17.7 12.1 -17.0 11.0 -17.95 11.0 -18.5 11.0 -19.65 12.95 -19.1 L12.35 -19.75 Q12.35 -20.5 13.55 -19.95 12.45 -21.3 12.6 -21.95 12.85 -23.0 13.6 -23.2 14.35 -23.45 15.4 -22.55 L15.95 -22.05 Q15.5 -22.7 15.65 -23.0 L16.55 -22.65 16.5 -22.9 Q16.35 -24.2 17.6 -24.3 L18.15 -24.25 18.55 -24.35 18.95 -24.2 18.8 -24.5 18.35 -25.75 Q18.35 -27.15 19.7 -25.3 L19.75 -25.25 19.7 -26.05 19.9 -26.65 19.85 -26.8 20.25 -27.7 Q20.75 -28.3 21.2 -28.1 L21.25 -27.95 M17.7 -20.5 L17.3 -20.95 17.2 -20.95 17.7 -20.5 M32.65 -24.1 L32.7 -24.35 32.65 -24.25 32.65 -24.1 M36.7 -13.35 L36.7 -13.4 36.4 -13.45 36.7 -13.35 M27.95 -23.2 L27.85 -23.35 27.8 -23.2 27.75 -22.5 27.8 -22.95 27.95 -23.2 M24.2 -23.2 L24.15 -23.25 24.15 -23.2 24.2 -23.2 M-4.05 19.0 L-4.1 19.0 -4.05 18.95 -4.05 19.0 M49.4 7.05 Q49.15 6.7 49.2 6.95 L49.35 7.0 49.4 7.05 M20.85 -9.65 L20.8 -9.65 20.95 -9.4 20.85 -9.65" fill="#c4de56" fill-rule="evenodd" stroke="none"/>
      <path d="M23.75 -26.55 Q24.15 -26.95 24.15 -25.4 24.15 -24.1 23.7 -23.75 23.35 -24.05 23.35 -25.1 23.35 -26.2 23.75 -26.55 M19.9 -22.55 Q20.35 -21.7 20.7 -21.35 L20.95 -21.55 20.65 -22.4 20.6 -22.5 20.5 -22.95 Q20.2 -23.65 20.2 -24.25 20.2 -26.0 21.1 -25.9 22.0 -25.8 22.0 -23.85 L21.9 -21.8 22.75 -20.6 22.3 -22.4 Q22.3 -23.0 23.0 -23.45 23.7 -23.95 24.0 -22.7 L24.25 -21.65 24.3 -21.5 Q23.85 -21.1 23.85 -19.85 L23.95 -19.65 24.15 -19.6 24.45 -19.7 24.6 -21.0 24.7 -20.85 24.7 -21.2 Q24.7 -22.15 25.25 -22.15 25.65 -22.15 25.9 -21.8 L25.85 -22.15 25.9 -23.0 Q25.9 -23.95 26.4 -24.0 26.85 -24.1 26.85 -23.35 L26.6 -22.2 26.55 -22.05 27.3 -22.35 Q28.05 -22.35 28.05 -21.75 L27.95 -21.45 28.0 -21.3 27.75 -20.8 Q27.65 -21.35 27.05 -20.8 26.35 -20.2 26.35 -19.5 26.35 -19.0 26.8 -19.0 27.1 -19.0 27.75 -20.55 28.05 -20.45 28.0 -19.25 L28.45 -19.75 28.5 -19.8 28.7 -19.9 28.6 -20.65 Q28.6 -22.1 28.9 -22.8 29.2 -23.65 30.35 -24.65 L30.65 -23.85 Q30.65 -23.05 29.95 -21.4 L29.3 -20.15 29.6 -20.25 30.5 -21.5 30.7 -21.7 30.65 -21.8 Q30.65 -22.45 31.35 -23.45 32.05 -24.45 32.05 -23.35 L31.5 -22.2 31.7 -22.4 Q32.55 -23.0 32.55 -22.2 L32.25 -21.7 31.25 -21.2 30.95 -20.75 30.6 -20.2 30.8 -20.05 31.1 -20.4 31.35 -20.6 31.4 -20.6 31.7 -20.8 32.5 -21.05 32.9 -20.9 32.95 -20.65 32.95 -20.6 32.9 -20.35 32.95 -20.35 Q33.4 -20.35 33.4 -19.85 33.4 -19.45 32.6 -18.55 L32.05 -17.95 31.95 -17.8 Q32.0 -17.25 31.65 -16.65 L31.6 -16.55 32.5 -17.05 33.3 -18.4 Q34.4 -20.0 35.3 -20.0 L35.65 -19.65 35.15 -18.75 34.3 -17.9 33.9 -17.45 34.75 -17.9 Q36.05 -18.45 36.25 -17.9 L35.75 -17.45 35.55 -17.25 36.4 -17.3 36.65 -17.0 Q36.65 -16.2 34.35 -16.2 L33.45 -15.6 Q33.75 -15.3 33.95 -15.3 L34.8 -15.5 34.85 -15.5 36.4 -15.9 36.45 -15.6 36.2 -15.35 Q36.85 -15.15 37.3 -14.25 37.3 -13.6 36.35 -13.6 L36.1 -13.65 35.85 -13.65 Q36.8 -13.2 37.1 -12.05 L37.1 -11.85 37.1 -11.8 34.3 -14.0 Q30.2 -16.55 28.1 -16.95 L23.85 -17.4 Q20.3 -17.4 17.0 -16.25 L15.15 -15.45 12.0 -13.5 11.6 -13.65 11.55 -13.65 11.2 -14.05 11.15 -14.3 11.3 -14.5 11.5 -14.25 12.1 -14.0 12.15 -14.2 Q12.0 -14.25 11.75 -14.45 L11.45 -14.8 12.3 -15.05 12.2 -15.1 Q11.85 -15.2 11.85 -15.45 L12.15 -15.7 13.2 -15.4 13.25 -15.35 13.2 -15.6 13.35 -15.6 13.55 -15.5 13.6 -15.75 14.6 -15.95 14.0 -15.9 Q13.65 -15.9 13.2 -16.3 L13.05 -16.45 12.8 -16.85 Q12.8 -17.3 13.4 -17.2 L13.85 -17.05 13.8 -17.15 14.1 -17.6 Q13.45 -17.9 13.45 -18.2 L13.7 -18.55 14.75 -18.2 15.5 -17.45 15.8 -17.15 15.9 -18.1 16.35 -18.05 15.8 -18.6 15.75 -18.7 Q14.65 -19.2 14.65 -19.9 14.65 -21.0 16.15 -19.2 L16.3 -19.05 16.3 -19.8 16.7 -19.8 16.6 -19.9 Q16.3 -20.3 16.3 -20.8 16.3 -21.55 16.95 -20.9 17.55 -20.25 17.55 -19.7 L17.55 -19.6 Q18.15 -19.4 18.5 -18.8 L18.5 -18.9 Q18.0 -19.6 18.6 -20.4 L18.7 -20.5 19.0 -20.5 17.45 -22.4 17.45 -23.1 18.6 -22.65 18.6 -22.7 18.7 -23.35 Q19.45 -23.1 19.9 -22.55 M15.7 -20.15 Q15.1 -20.15 14.75 -21.0 14.45 -21.6 14.45 -22.05 14.45 -22.55 14.8 -22.7 15.2 -22.85 15.65 -22.05 L15.95 -20.55 15.9 -20.2 15.7 -20.15 M19.85 -21.1 Q19.85 -20.75 20.15 -20.25 L20.75 -19.6 20.95 -19.65 20.95 -20.1 20.5 -20.85 Q20.2 -21.25 19.85 -21.1 M19.4 -18.7 L18.9 -18.75 18.85 -18.5 18.9 -18.3 19.2 -18.1 19.4 -18.2 19.45 -18.3 19.4 -18.7 M13.1 -17.7 Q12.7 -17.7 12.45 -18.05 L12.25 -18.5 Q12.25 -19.05 12.75 -18.85 13.25 -18.6 13.35 -17.8 13.35 -17.7 13.1 -17.7 M13.25 -12.95 L13.4 -13.05 Q14.9 -14.0 16.15 -14.35 L16.25 -14.1 13.9 -12.55 12.45 -11.35 12.45 -11.3 12.45 -11.0 12.95 -11.45 13.7 -11.8 Q14.1 -11.8 14.1 -11.35 L14.05 -10.8 14.1 -10.75 15.3 -11.85 Q16.1 -12.35 15.95 -11.3 L16.3 -11.65 16.85 -11.9 17.4 -11.7 17.45 -11.65 17.5 -11.65 17.75 -11.5 17.7 -11.3 17.45 -11.0 17.15 -10.8 Q16.85 -10.8 16.85 -11.3 L16.35 -10.9 15.8 -10.5 15.5 -10.55 15.45 -11.15 15.45 -11.25 14.6 -10.45 13.95 -9.95 Q13.5 -9.95 13.45 -10.4 L13.55 -11.05 13.55 -11.15 12.95 -10.65 12.4 -10.15 Q12.1 -10.15 12.05 -10.35 L11.95 -10.8 11.95 -10.95 8.7 -7.55 Q8.45 -7.65 8.45 -7.85 8.45 -8.15 9.8 -9.75 L11.35 -11.55 12.2 -12.25 Q12.5 -12.5 12.95 -12.75 L13.25 -12.95 M16.55 -17.75 L16.6 -17.35 Q16.75 -17.0 17.05 -17.0 L17.35 -17.1 17.1 -17.6 16.55 -17.75 M18.0 -17.4 Q18.25 -17.4 18.25 -17.55 18.2 -18.35 17.7 -18.8 17.15 -19.3 17.15 -18.35 L17.4 -17.9 Q17.7 -17.4 18.0 -17.4 M16.95 -14.65 L16.85 -14.85 Q16.85 -15.25 18.45 -15.65 L20.8 -16.25 20.85 -16.0 Q17.65 -14.6 17.15 -14.6 L16.95 -14.65 M19.45 -14.25 L19.5 -14.2 Q19.9 -15.0 20.15 -15.0 L20.35 -14.95 20.45 -13.9 21.3 -14.7 22.4 -16.2 22.65 -15.9 22.05 -14.4 22.45 -13.9 22.85 -14.3 23.3 -14.6 24.05 -14.1 24.05 -14.05 24.15 -13.95 24.35 -13.7 24.5 -13.5 24.5 -13.45 24.55 -13.3 24.55 -13.2 24.25 -13.1 23.75 -13.5 23.35 -13.9 23.3 -13.9 22.9 -13.55 22.45 -13.2 21.9 -13.95 21.8 -13.65 21.6 -13.25 20.55 -10.1 20.75 -9.85 20.75 -9.8 20.8 -9.65 20.95 -9.4 21.25 -9.8 21.3 -9.8 21.7 -10.15 21.9 -10.1 22.05 -9.95 22.1 -9.75 22.2 -9.35 22.25 -9.3 23.0 -10.05 23.4 -9.6 23.45 -9.15 23.55 -9.05 23.9 -9.45 Q24.15 -9.75 24.35 -9.75 24.75 -9.75 24.95 -8.95 L25.0 -8.9 25.55 -9.35 Q26.0 -9.35 26.05 -8.6 L26.55 -8.95 Q26.85 -8.95 26.9 -8.75 L27.1 -8.4 27.15 -8.35 27.45 -8.75 27.75 -9.05 Q28.15 -9.05 28.35 -8.35 L28.4 -8.3 28.6 -8.55 28.9 -8.75 29.3 -8.35 29.55 -7.85 30.15 -8.35 30.5 -8.0 30.65 -7.55 30.6 -7.45 30.4 -7.35 30.05 -7.6 Q30.0 -7.05 29.55 -7.05 29.15 -7.05 29.0 -7.4 L28.85 -8.0 28.7 -7.7 28.35 -7.45 Q27.95 -7.45 27.95 -7.75 L27.8 -8.25 27.75 -8.3 27.5 -7.8 27.05 -7.45 Q26.7 -7.45 26.6 -7.75 L26.6 -8.2 26.45 -7.9 Q26.4 -7.75 26.15 -7.75 25.55 -7.75 25.55 -8.7 25.35 -8.05 24.95 -8.05 24.45 -8.05 24.45 -9.0 L24.35 -9.1 24.0 -8.6 23.5 -8.25 Q23.2 -8.25 23.05 -8.7 22.9 -9.05 22.9 -9.3 L22.65 -8.9 22.15 -8.55 Q21.9 -8.55 21.75 -8.9 L21.65 -9.3 21.0 -8.55 Q20.7 -8.55 20.45 -9.15 L20.35 -9.35 20.25 -8.85 19.95 -7.1 19.95 -7.05 20.4 -6.4 20.75 -6.8 21.25 -7.15 Q21.7 -7.15 21.7 -6.45 L21.95 -6.8 Q22.05 -6.95 22.35 -6.95 22.7 -6.95 22.9 -6.5 L23.15 -5.95 23.45 -6.45 23.8 -6.75 Q24.35 -6.75 24.25 -6.1 L24.35 -5.95 24.65 -6.45 24.95 -6.75 25.2 -6.7 25.25 -6.45 24.9 -5.75 24.4 -5.15 Q24.0 -5.15 23.9 -5.5 L23.8 -5.9 23.6 -5.45 23.15 -5.15 Q22.6 -5.15 22.4 -6.2 L22.0 -5.85 21.65 -5.65 Q21.4 -5.65 21.25 -5.95 L21.15 -6.4 Q20.75 -5.55 20.35 -5.55 L19.85 -6.35 19.65 -5.3 19.5 -4.6 19.6 -4.65 20.1 -4.05 20.45 -4.45 Q20.5 -4.65 20.8 -4.65 21.3 -4.65 21.5 -3.85 L22.5 -4.65 23.15 -3.75 23.85 -4.35 Q24.35 -4.35 24.45 -3.65 L24.85 -4.05 25.15 -4.25 25.35 -4.2 25.45 -3.95 25.0 -3.35 24.45 -2.95 Q23.85 -2.95 23.85 -3.6 23.5 -2.95 23.1 -2.95 22.8 -2.95 22.65 -3.35 L22.45 -3.9 22.05 -3.5 21.55 -3.15 21.05 -3.55 20.85 -3.95 20.55 -3.55 20.1 -3.25 Q19.9 -3.25 19.6 -3.75 L19.4 -4.15 18.95 -2.5 20.1 -2.5 27.3 -1.6 Q31.05 -0.95 34.75 0.65 L36.0 1.2 35.55 -1.6 35.4 -1.55 Q35.15 -1.55 34.95 -2.0 L34.75 -2.6 34.7 -2.6 34.65 -2.2 Q34.55 -1.85 34.25 -1.85 33.65 -1.85 33.65 -3.2 L33.55 -2.7 Q33.45 -2.35 33.15 -2.35 32.55 -2.35 32.55 -3.85 L32.5 -3.9 32.35 -3.05 Q32.35 -2.95 32.1 -2.95 31.7 -2.95 31.55 -3.45 L31.4 -4.15 31.2 -3.75 Q31.1 -3.45 30.85 -3.45 30.5 -3.45 30.3 -4.55 30.15 -4.3 30.15 -3.8 L29.95 -3.75 Q29.05 -4.25 29.15 -5.0 L28.9 -4.55 28.7 -4.15 Q28.3 -4.25 28.1 -4.75 L27.8 -5.5 27.2 -4.35 Q26.95 -4.4 26.45 -5.3 25.95 -6.2 25.95 -6.45 25.95 -7.65 27.05 -5.45 L27.1 -5.4 27.3 -5.85 27.75 -6.25 Q28.1 -6.25 28.55 -5.25 L28.65 -5.25 28.7 -5.65 29.0 -5.85 Q29.45 -5.85 29.75 -4.9 L29.75 -5.4 30.1 -5.65 30.7 -5.2 30.85 -4.6 30.9 -4.6 30.95 -5.0 Q31.0 -5.35 31.3 -5.35 31.7 -5.35 31.95 -4.1 L32.15 -4.75 32.45 -4.85 Q33.0 -4.85 33.05 -3.75 L33.1 -3.65 33.2 -4.1 33.6 -4.45 Q34.15 -4.45 34.2 -3.2 L34.25 -3.15 34.3 -3.5 34.7 -3.65 Q35.1 -3.65 35.25 -3.05 L35.4 -2.55 34.35 -6.4 32.45 -10.25 32.1 -10.65 31.95 -9.95 31.75 -9.9 Q30.95 -10.35 30.9 -10.95 L30.85 -10.95 30.85 -10.5 30.55 -10.3 30.05 -10.75 29.65 -11.45 Q29.3 -10.65 29.0 -10.6 L28.95 -10.6 Q28.35 -10.6 28.35 -11.45 28.05 -10.7 27.7 -10.7 27.4 -10.7 27.1 -11.3 L26.85 -12.2 27.35 -12.1 27.65 -11.5 28.0 -11.9 28.35 -12.2 28.65 -12.1 28.95 -11.5 29.15 -11.9 29.55 -12.1 Q29.95 -12.1 30.15 -11.75 L30.35 -11.3 30.8 -11.7 Q31.3 -11.7 31.5 -10.9 L31.8 -11.2 30.1 -13.15 29.9 -13.3 29.6 -13.6 29.55 -13.6 28.95 -14.15 28.25 -14.7 Q29.15 -14.85 30.4 -13.55 L30.4 -13.5 30.55 -13.4 30.95 -12.9 32.1 -11.5 33.7 -9.1 33.7 -9.3 Q34.3 -9.2 35.05 -8.45 L35.05 -8.95 35.3 -9.05 36.0 -8.35 36.05 -8.3 35.95 -8.75 36.25 -8.95 Q36.55 -8.95 37.15 -8.35 L36.95 -9.2 37.2 -9.35 37.6 -8.75 37.75 -8.1 37.75 -7.2 Q37.75 -7.05 37.5 -7.05 L37.05 -7.35 36.8 -7.85 36.75 -7.85 36.65 -7.1 36.45 -7.05 36.1 -7.35 35.85 -7.7 35.9 -7.3 Q35.9 -6.95 35.55 -6.95 L33.8 -8.85 34.5 -7.35 Q35.5 -4.45 36.15 -0.5 L36.25 -0.55 Q36.7 -0.45 36.75 0.25 L36.85 0.3 37.25 -0.55 Q37.6 -0.85 38.1 -0.1 38.1 -0.55 38.4 -0.55 38.7 -0.55 38.85 -0.35 L39.1 0.2 39.15 -0.1 39.4 -0.15 39.8 0.0 40.15 0.55 40.5 0.2 40.65 0.4 40.25 -1.35 Q41.2 -0.9 41.45 0.65 L41.75 3.2 45.95 4.45 45.55 3.25 45.35 3.3 44.9 2.9 44.6 2.5 44.15 3.0 43.3 1.8 43.05 2.7 42.8 2.8 42.25 2.15 41.95 1.5 42.0 1.35 42.2 1.3 42.5 1.4 42.7 1.8 Q43.35 0.65 43.8 1.2 L44.1 2.05 44.15 2.1 44.2 1.8 Q44.3 1.5 44.5 1.5 44.85 1.5 45.3 2.6 L45.35 2.55 Q44.6 -0.2 44.25 -0.8 L42.3 -3.65 42.15 -3.85 42.15 -2.8 Q42.15 -2.65 41.9 -2.65 L40.9 -3.75 Q40.75 -3.55 40.75 -3.1 L40.5 -2.95 39.65 -4.0 39.55 -3.1 39.3 -2.95 38.8 -3.45 38.3 -4.05 Q38.25 -3.15 37.9 -3.15 L37.2 -3.95 36.75 -4.75 36.8 -5.0 Q37.15 -5.1 37.4 -4.7 L37.75 -4.1 Q37.75 -4.8 38.2 -5.05 L38.65 -4.65 Q38.85 -4.2 39.1 -4.1 L39.15 -4.75 39.5 -4.85 Q39.95 -4.85 40.05 -4.55 L40.3 -4.0 40.35 -4.0 40.35 -4.45 Q40.4 -4.65 40.65 -4.65 L41.55 -3.95 41.65 -4.6 40.25 -6.7 Q41.8 -6.25 44.2 -1.65 46.45 2.6 46.55 4.55 L46.7 4.6 46.7 4.65 47.1 4.7 Q47.65 4.7 47.75 4.3 L47.75 3.65 47.75 3.05 48.9 5.85 48.9 5.95 49.0 6.1 49.4 7.05 49.45 7.15 49.55 7.35 Q46.35 5.1 44.65 4.8 L42.6 4.2 37.2 2.65 Q32.7 0.65 30.15 0.15 L23.95 -1.05 17.35 -1.6 10.7 -0.6 5.05 0.65 2.4 1.2 0.65 1.5 -2.0 2.05 -1.9 1.95 -1.45 1.25 -1.15 0.75 -0.65 -0.35 -0.85 0.4 -0.5 -0.25 Q-0.05 1.2 4.55 -0.2 L4.55 -0.25 4.75 -0.85 4.1 -0.2 Q3.7 -0.2 3.75 -0.7 L3.7 -0.85 3.4 -0.45 2.9 -0.1 2.55 -0.2 2.55 -0.75 2.0 -0.35 1.7 -0.4 1.65 -0.8 2.05 -1.15 2.65 -1.45 3.0 -1.35 3.05 -0.95 3.3 -1.35 Q3.4 -1.65 3.65 -1.65 L4.2 -1.15 4.95 -1.8 5.2 -1.8 5.6 -2.55 5.55 -2.9 Q4.6 -1.95 4.3 -1.95 3.85 -1.95 3.85 -3.2 L2.5 -1.85 Q2.25 -2.05 2.25 -2.7 2.25 -3.4 2.5 -3.65 L2.85 -3.15 2.85 -3.05 Q3.3 -3.95 3.95 -3.75 4.65 -3.55 4.45 -2.75 L5.7 -3.75 6.1 -3.5 6.8 -4.65 7.15 -4.1 7.3 -3.4 7.8 -4.2 8.6 -4.95 9.05 -3.85 9.6 -4.45 10.15 -5.05 Q10.65 -5.05 10.65 -3.85 L11.65 -5.05 12.05 -4.65 12.1 -4.1 12.5 -4.65 13.0 -5.15 Q13.35 -5.15 13.35 -4.7 L13.45 -4.6 13.85 -5.15 14.4 -5.65 14.65 -5.25 14.8 -4.85 Q15.15 -5.85 15.7 -5.85 L16.1 -5.45 16.2 -5.05 16.25 -5.0 16.5 -5.55 Q16.7 -5.95 17.05 -5.95 17.65 -5.95 17.65 -4.7 L18.1 -5.35 18.8 -6.15 18.9 -6.1 19.15 -7.5 18.45 -6.75 Q18.0 -6.75 18.1 -7.15 L18.25 -7.85 17.35 -6.85 Q17.0 -6.85 17.0 -7.2 L17.05 -7.8 17.05 -7.9 16.45 -7.3 15.9 -6.75 Q15.6 -6.95 15.6 -7.2 L15.65 -7.65 15.65 -7.7 14.7 -6.75 Q14.4 -6.95 14.4 -7.2 L14.45 -7.65 14.45 -7.7 14.0 -7.1 13.35 -6.65 13.15 -6.7 13.05 -7.7 11.85 -6.55 11.65 -6.6 11.55 -7.05 11.55 -7.2 10.5 -6.05 Q10.2 -6.15 10.2 -6.5 L10.25 -7.0 10.25 -7.1 9.7 -6.4 8.95 -5.85 Q8.55 -5.85 8.55 -6.2 L8.55 -6.65 7.85 -5.9 7.15 -5.35 Q6.9 -5.35 6.75 -5.85 L6.65 -6.4 6.75 -6.7 6.7 -6.7 6.85 -6.75 Q7.25 -6.75 7.25 -6.05 L8.6 -7.45 Q9.1 -7.45 9.05 -6.65 L9.75 -7.35 10.5 -7.95 10.9 -7.6 10.85 -7.15 11.85 -8.15 Q12.1 -8.15 12.15 -7.95 L12.15 -7.65 12.55 -8.1 13.2 -8.45 Q13.6 -8.45 13.6 -8.1 L13.55 -7.6 13.6 -7.55 14.6 -8.45 Q15.0 -8.45 15.0 -8.1 L14.95 -7.65 15.25 -8.1 Q15.5 -8.45 15.8 -8.45 16.15 -8.45 16.15 -7.95 L16.15 -7.85 Q16.35 -8.4 17.15 -8.55 17.95 -8.7 17.55 -7.85 17.95 -8.65 18.4 -8.65 L18.75 -8.55 18.75 -8.1 18.8 -8.05 19.3 -8.45 19.35 -8.4 19.6 -9.55 19.65 -9.65 19.8 -10.25 Q19.5 -10.25 19.45 -10.45 L19.45 -11.0 19.4 -11.05 18.95 -10.55 18.65 -10.25 18.5 -10.25 Q18.25 -10.3 18.25 -10.75 L18.25 -10.8 Q18.25 -11.5 18.6 -11.7 L18.85 -11.3 19.3 -11.6 19.7 -11.9 20.1 -11.3 20.75 -13.4 20.75 -13.45 20.7 -13.4 20.25 -13.0 19.95 -13.1 19.95 -13.15 19.9 -13.3 19.95 -13.9 19.95 -13.95 19.2 -12.95 19.05 -12.9 18.85 -12.95 18.85 -14.0 18.5 -13.65 17.8 -13.3 17.55 -13.6 17.85 -13.95 18.5 -14.5 18.85 -15.0 Q19.1 -15.35 19.5 -15.15 L19.45 -14.25 M8.45 -4.05 Q7.5 -2.45 7.15 -2.45 6.8 -2.45 6.75 -2.9 L6.7 -3.5 6.15 -2.55 6.15 -2.35 6.0 -2.25 5.45 -1.25 5.45 -1.15 5.4 -1.05 5.3 -0.95 5.0 -0.35 Q9.6 -1.75 13.35 -2.0 L18.45 -2.5 18.75 -5.25 17.7 -3.85 Q17.05 -3.85 17.05 -5.15 16.55 -4.65 16.55 -3.95 L16.25 -3.85 Q15.65 -3.85 15.65 -5.15 L15.2 -4.35 14.7 -3.65 Q14.4 -3.8 14.45 -4.1 L14.25 -4.7 13.9 -4.05 13.4 -3.45 Q12.95 -3.9 12.95 -4.35 12.4 -3.15 12.05 -3.15 11.8 -3.15 11.65 -3.6 L11.55 -4.2 10.6 -2.95 Q10.25 -3.1 10.15 -3.5 L10.05 -4.2 10.05 -4.25 9.0 -2.85 Q8.8 -3.0 8.65 -3.45 L8.45 -4.05 M19.0 -0.9 Q19.05 -1.45 19.4 -0.95 L19.85 0.4 19.85 0.9 19.85 1.0 20.05 5.75 20.05 5.85 20.35 6.7 20.35 6.9 25.65 7.1 25.65 1.65 25.6 1.05 25.6 1.0 25.55 0.45 26.2 -0.15 Q26.55 -0.45 26.55 0.65 L26.85 6.25 26.8 7.25 29.1 7.55 32.3 8.2 32.55 6.95 32.65 5.1 32.35 3.2 32.05 1.8 32.0 1.35 32.8 1.45 Q33.35 1.85 33.55 4.75 L33.55 8.55 37.25 9.7 37.2 9.75 38.0 10.15 Q37.7 9.45 37.6 7.95 L37.55 4.3 37.55 3.55 Q38.4 3.4 38.8 5.75 L39.05 8.8 Q39.05 10.2 38.85 10.6 L43.5 13.0 Q43.1 11.1 43.15 10.3 L42.8 8.0 Q42.35 6.5 42.45 5.7 42.55 4.9 43.05 5.5 43.55 6.1 43.9 8.4 L44.45 12.5 44.45 13.65 Q46.25 14.9 47.65 16.65 L47.75 15.9 47.95 13.95 47.5 9.6 Q47.05 7.0 47.35 6.75 47.65 6.5 47.95 7.2 L48.75 9.8 Q49.05 10.85 49.05 13.8 49.05 16.55 48.7 18.0 L49.65 19.75 49.95 21.15 49.75 21.15 Q49.0 21.15 48.15 19.8 L46.85 17.4 45.9 16.05 44.95 15.25 43.7 14.15 Q42.3 13.25 39.35 11.75 31.75 7.9 21.05 7.8 10.3 7.65 3.1 11.45 0.75 12.65 -1.0 14.35 L-2.45 15.8 -2.4 15.85 -2.5 15.9 -3.25 16.7 Q-3.7 17.0 -4.2 17.45 L-4.9 17.45 -5.1 17.3 -5.3 17.1 Q-5.5 16.95 -3.95 15.5 L-3.0 14.7 -3.05 13.7 Q-3.05 10.7 -1.75 6.25 -0.45 1.75 -0.2 3.25 0.05 4.7 -0.75 7.0 -1.6 9.3 -1.85 11.45 L-2.0 13.95 2.0 11.2 2.6 10.9 2.55 10.65 Q2.55 7.25 3.45 3.6 4.35 -0.05 4.35 2.35 L4.05 7.05 3.9 10.15 Q5.7 9.25 7.75 8.65 L7.75 8.1 7.85 7.35 7.85 3.35 7.85 1.95 Q7.9 1.05 8.4 0.85 8.85 0.65 8.85 3.1 L8.6 8.4 11.25 7.8 13.55 7.4 13.4 6.8 13.3 4.75 13.15 1.35 Q13.15 -0.25 13.5 -0.25 14.3 -0.45 14.4 0.15 L14.55 1.25 14.55 3.95 14.65 6.55 14.6 7.25 19.05 6.95 19.2 6.95 18.85 4.8 18.75 1.95 18.85 -0.6 19.0 -0.9 M33.6 -16.85 Q33.05 -16.6 33.05 -16.3 L33.3 -16.0 34.15 -16.3 33.95 -16.55 34.45 -16.85 34.4 -17.05 33.6 -16.85 M31.65 -19.1 Q31.65 -19.85 30.8 -19.2 29.95 -18.55 29.95 -18.1 L30.0 -17.85 30.3 -17.8 Q30.7 -17.8 31.2 -18.35 L31.65 -19.1 M32.85 -13.25 L33.05 -13.2 33.1 -13.15 33.15 -13.15 33.2 -13.1 33.25 -13.1 33.3 -13.05 33.35 -13.05 33.4 -13.0 33.45 -13.0 33.65 -12.9 34.3 -12.45 34.8 -12.05 35.1 -11.8 36.75 -9.8 Q36.6 -9.65 36.5 -9.65 L32.85 -13.0 32.85 -13.25 M36.85 -14.1 L36.75 -14.35 36.35 -14.3 36.15 -14.05 36.4 -13.8 36.8 -13.9 36.85 -14.1 M35.1 -15.1 Q34.45 -15.05 34.45 -14.7 L34.5 -14.6 Q34.65 -14.4 35.1 -14.4 35.75 -14.4 35.75 -14.7 35.75 -15.15 35.1 -15.1 M27.85 -23.35 L27.8 -23.2 27.35 -22.85 27.15 -22.9 27.05 -23.35 Q27.05 -23.9 27.55 -24.3 28.05 -24.7 28.05 -24.0 L27.85 -23.35 M25.55 -23.1 Q25.4 -22.95 25.25 -22.95 25.0 -22.95 24.85 -23.5 L24.75 -24.05 Q24.75 -25.0 25.55 -24.55 L25.55 -23.1 M21.05 -18.7 L20.4 -18.85 20.35 -18.65 20.55 -18.3 Q20.75 -18.0 20.95 -18.0 L21.2 -18.05 21.25 -18.25 21.05 -18.7 M22.3 -20.4 L21.75 -20.65 22.05 -19.8 22.4 -19.3 Q22.65 -19.3 22.65 -19.4 L22.65 -19.95 22.3 -20.4 M21.9 -23.6 Q21.35 -23.8 21.35 -22.95 21.35 -22.5 21.6 -22.25 L21.85 -22.4 21.95 -23.35 21.9 -23.6 M28.9 -19.8 Q28.25 -19.5 28.25 -18.7 L28.25 -18.35 Q28.3 -18.0 28.6 -18.0 L28.85 -18.15 29.05 -18.75 29.15 -19.3 28.9 -19.8 M25.95 -18.7 Q25.95 -19.2 25.5 -19.35 25.05 -19.5 25.05 -19.0 L25.15 -18.65 Q25.25 -18.2 25.45 -18.2 25.55 -18.2 25.75 -18.35 L25.95 -18.7 M23.95 -16.15 L25.35 -15.9 26.45 -15.25 26.4 -15.1 26.4 -15.05 26.25 -15.0 25.2 -15.25 23.95 -15.9 23.95 -16.15 M22.15 -18.5 L22.25 -18.25 Q22.4 -17.9 22.7 -17.9 L22.95 -18.0 22.55 -18.7 Q22.15 -19.0 22.15 -18.5 M27.75 -3.1 L27.6 -2.75 Q27.4 -2.45 27.1 -2.45 26.65 -2.45 26.5 -2.8 L26.25 -3.5 26.8 -3.55 27.15 -3.15 27.4 -3.45 27.75 -3.1 M29.35 -2.25 L28.9 -1.95 28.3 -2.35 28.25 -3.05 28.7 -3.0 28.95 -2.7 29.0 -2.65 29.05 -2.95 29.35 -3.05 29.6 -3.0 29.65 -2.75 29.35 -2.25 M40.65 1.3 L40.3 1.4 39.8 1.2 39.35 1.0 Q39.05 1.0 38.85 0.75 L38.55 0.35 38.4 0.95 38.25 1.0 37.8 0.6 37.6 0.15 Q37.3 1.2 36.95 1.2 L36.3 0.5 36.35 0.85 36.35 1.35 41.25 3.05 41.4 3.1 40.75 0.7 40.65 1.3 M49.4 7.05 Q49.15 6.7 49.2 6.95 L49.35 7.0 49.4 7.05" fill="#000000" fill-opacity="0.29803923" fill-rule="evenodd" stroke="none"/>
    </g>
  </defs>
</svg>
