<?xml version="1.0" encoding="UTF-8" standalone="no"?>
<svg xmlns:ffdec="https://www.free-decompiler.com/flash" xmlns:xlink="http://www.w3.org/1999/xlink" ffdec:objectType="frame" height="62.4px" width="57.7px" xmlns="http://www.w3.org/2000/svg">
  <g transform="matrix(1.0, 0.0, 0.0, 1.0, 12.0, 1.2)">
    <use ffdec:characterId="1" height="62.4" transform="matrix(1.0, 0.0, 0.0, 1.0, -12.0, -1.2)" width="57.7" xlink:href="#shape0"/>
  </g>
  <defs>
    <g id="shape0" transform="matrix(1.0, 0.0, 0.0, 1.0, 12.0, 1.2)">
      <path d="M-0.15 16.95 L-0.2 17.0 -0.2 16.95 -0.15 16.95 M36.05 5.9 L36.1 5.95 36.6 6.3 Q39.1 8.1 40.0 9.15 L41.55 11.2 Q42.1 12.1 40.25 10.0 38.7 8.3 36.6 6.95 L36.2 6.7 36.4 6.8 35.15 6.05 Q34.5 5.65 33.4 5.2 L31.0 4.3 Q28.0 3.25 23.65 3.0 L19.1 3.1 Q14.3 3.9 12.6 4.75 L10.7 5.7 10.6 5.8 Q7.75 7.6 5.65 9.15 L3.75 10.7 Q5.55 8.5 7.0 7.35 L10.65 4.75 10.75 4.7 10.85 4.65 Q14.1 2.85 19.4 2.1 L22.95 1.95 Q25.15 2.0 29.15 2.9 32.4 3.65 35.0 5.2 L36.0 5.9 36.05 5.9 M45.7 19.95 L43.7 16.5 41.35 13.6 Q39.6 11.7 37.65 10.1 L37.15 9.7 36.65 9.3 36.6 9.25 35.3 8.3 Q34.6 7.85 33.9 7.5 30.7 5.8 26.8 5.2 L25.85 5.1 22.0 4.9 18.05 5.2 Q14.1 5.85 10.35 8.15 8.2 9.4 6.15 11.2 3.5 13.5 1.6 16.35 0.75 17.55 0.05 18.9 L0.8 16.5 1.35 14.9 1.45 14.7 Q3.9 11.4 5.85 9.9 8.6 7.75 9.8 7.05 L10.4 6.7 10.45 6.65 10.4 6.7 10.45 6.7 Q15.7 4.05 20.4 3.7 L22.45 3.6 Q26.15 3.5 30.25 4.7 L31.95 5.2 Q34.7 6.1 36.0 7.1 L36.55 7.55 36.6 7.6 36.6 7.65 36.85 7.9 36.9 7.95 36.75 7.7 36.8 7.75 36.85 7.8 36.9 7.85 37.0 7.95 37.65 8.5 37.75 8.55 41.3 11.95 44.0 15.45 45.4 18.6 45.5 18.7 44.85 16.8 43.4 13.4 41.6 10.1 40.45 8.6 38.6 6.9 36.6 5.45 36.2 5.2 35.2 4.65 35.1 4.65 35.05 4.6 31.25 2.9 Q29.55 2.15 23.2 1.25 L20.5 1.3 Q14.85 1.9 12.05 3.4 L11.25 3.85 11.0 4.0 Q8.8 5.25 6.85 6.65 5.9 7.3 5.25 7.9 8.25 4.1 12.5 2.2 15.05 1.0 18.05 0.55 L21.85 0.2 22.0 0.2 Q28.45 0.35 33.1 2.5 L34.1 3.0 33.25 2.5 35.7 4.0 35.9 4.1 Q41.0 7.65 43.15 12.05 45.3 16.5 45.7 19.95" fill="#7bd4b1" fill-rule="evenodd" stroke="none"/>
      <path d="M43.4 13.4 L44.85 16.8 45.5 18.7 45.4 18.6 44.0 15.45 41.3 11.95 37.75 8.55 37.65 8.5 37.0 7.95 36.9 7.85 36.85 7.8 36.8 7.75 36.75 7.7 36.9 7.95 36.85 7.9 36.6 7.6 36.55 7.55 36.0 7.1 Q34.35 5.85 30.25 4.7 26.15 3.5 22.45 3.6 L20.4 3.7 Q15.7 4.05 10.45 6.7 L10.4 6.7 10.45 6.65 10.4 6.7 9.8 7.05 Q8.6 7.75 5.85 9.9 3.9 11.4 1.45 14.7 L1.4 14.8 Q2.45 11.7 2.95 10.85 3.4 10.0 4.2 9.0 L5.25 7.9 Q5.9 7.3 6.85 6.65 8.8 5.25 11.0 4.0 L11.25 3.85 12.05 3.4 Q14.85 1.9 20.5 1.3 L23.2 1.25 Q29.55 2.15 31.25 2.9 L35.05 4.6 35.1 4.65 35.2 4.65 Q37.25 5.7 38.6 6.9 L40.45 8.6 41.6 10.1 43.4 13.4 M36.0 5.9 Q33.1 3.8 29.15 2.9 25.15 2.0 22.95 1.95 L19.4 2.1 Q14.1 2.85 10.85 4.65 L10.75 4.7 10.65 4.75 7.0 7.35 Q5.55 8.5 3.75 10.7 L5.65 9.15 Q7.75 7.6 10.6 5.8 L10.7 5.7 12.6 4.75 Q14.3 3.9 19.1 3.1 L23.65 3.0 Q28.0 3.25 31.0 4.3 33.95 5.35 35.15 6.05 L36.4 6.8 36.2 6.7 Q38.6 8.15 40.25 10.0 42.1 12.1 41.55 11.2 L40.0 9.15 Q39.0 8.0 36.1 5.95 L36.05 5.9 36.0 5.9" fill="#ffffff" fill-rule="evenodd" stroke="none"/>
      <path d="M43.7 16.5 L41.35 13.6 Q39.6 11.7 37.65 10.1 L37.15 9.7 36.65 9.3 36.6 9.25 35.3 8.3 Q34.6 7.85 33.9 7.5 30.7 5.8 26.8 5.2 L25.85 5.1 22.0 4.9 18.05 5.2 Q14.1 5.85 10.35 8.15 8.2 9.4 6.15 11.2 3.5 13.5 1.6 16.35 0.75 17.55 0.05 18.9 L0.8 16.5 1.35 14.9 1.45 14.7 1.4 14.8 Q2.45 11.7 2.95 10.85 3.4 10.0 4.2 9.0 L5.25 7.9 Q8.25 4.1 12.5 2.2 11.8 2.9 11.25 3.85 L11.0 4.0 10.75 4.7 10.85 4.65 Q10.6 5.2 10.7 5.7 L10.6 5.8 10.55 5.8 10.55 5.85 10.45 6.6 10.55 6.55 10.5 6.65 10.45 6.65 10.4 6.7 10.4 6.75 10.35 6.8 10.85 6.5 11.55 6.3 11.55 6.25 15.7 4.75 18.05 4.25 21.45 4.0 25.9 4.1 27.9 4.4 32.8 5.85 34.25 6.55 36.5 7.85 36.6 7.9 36.9 7.95 36.75 7.7 36.8 7.75 36.2 6.7 36.4 6.8 36.0 5.9 36.05 5.9 36.1 5.95 35.2 4.65 35.1 4.65 33.1 2.5 34.1 3.0 33.25 2.5 35.7 4.0 35.9 4.1 Q41.0 7.65 43.15 12.05 45.3 16.5 45.7 19.95 L43.7 16.5" fill="#000000" fill-opacity="0.29803923" fill-rule="evenodd" stroke="none"/>
      <path d="M-5.6 9.6 L-6.3 9.75 -6.25 10.15 -6.25 10.35 -2.25 9.5 -2.2 9.45 Q0.55 8.55 1.4 8.55 L1.85 8.55 1.9 8.55 2.4 8.55 2.5 8.55 3.1 8.5 3.1 8.35 3.1 8.0 2.4 8.05 2.45 8.0 2.4 8.0 2.3 8.0 2.15 8.0 1.8 8.0 Q-0.4 8.05 -1.95 8.65 L-2.85 9.0 -2.9 9.0 -2.85 9.05 -5.6 9.6 M-5.6 -1.2 L-4.85 -1.1 Q-0.7 -0.55 2.15 1.95 L3.25 3.0 4.25 4.25 4.55 3.8 4.8 3.75 Q5.5 4.5 6.5 4.5 L8.35 4.25 8.4 4.2 8.75 4.25 8.8 4.45 8.75 4.8 Q10.35 3.7 18.4 4.25 L18.7 4.35 18.75 4.35 Q19.45 4.55 19.35 4.6 L19.4 4.6 19.0 5.4 18.85 5.7 18.85 5.65 18.7 5.3 18.25 5.25 18.3 5.1 12.05 4.55 10.95 4.6 Q10.15 4.65 9.25 5.05 L8.9 5.2 8.75 5.3 8.7 5.3 8.7 5.4 8.55 5.6 8.4 6.1 8.3 6.6 8.7 6.25 8.75 6.15 8.9 5.95 9.0 6.1 9.0 5.85 Q9.15 5.6 9.35 5.7 L9.35 5.75 10.95 5.35 14.05 5.15 16.25 5.3 18.05 5.7 18.1 5.6 18.1 5.65 18.15 5.75 18.15 5.8 18.25 6.05 Q18.45 6.3 18.55 6.15 L18.75 5.95 Q18.2 7.2 18.3 9.75 18.35 11.7 17.35 13.15 L17.3 13.2 15.7 14.7 15.55 14.8 Q14.5 15.45 13.95 16.0 L14.25 15.7 12.95 14.95 11.35 13.95 11.15 13.8 10.65 13.45 10.05 13.0 Q8.8 12.1 7.9 10.6 L7.7 10.25 7.65 10.2 7.6 10.15 7.45 9.85 7.4 9.7 7.25 9.8 7.05 10.25 7.15 10.4 7.35 10.7 7.8 11.4 9.35 13.3 9.95 13.75 11.8 15.1 13.75 16.25 Q13.1 16.95 13.6 17.35 11.85 16.65 10.45 15.6 L9.3 14.7 7.85 13.15 7.65 12.9 6.95 11.9 6.8 13.15 6.6 14.7 5.8 19.25 4.5 24.7 4.25 25.55 4.15 25.9 1.7 33.5 1.0 35.45 0.15 37.85 Q-2.6 45.4 -2.9 51.4 L-2.9 52.1 -2.9 52.85 -3.05 52.45 -4.65 50.05 -6.25 47.35 -6.75 46.2 -6.8 46.15 -6.8 46.0 -6.8 45.85 -6.95 45.6 -7.1 45.4 -7.3 46.4 -7.4 46.85 -7.2 47.15 -7.15 47.15 -7.15 47.45 -7.15 47.55 -7.1 47.25 -7.0 47.55 -6.9 47.75 -4.65 51.7 -2.95 54.15 -2.9 55.65 -4.9 52.95 -7.0 49.6 -7.05 49.5 -7.3 49.15 -7.35 49.1 Q-7.35 48.6 -7.6 48.35 L-7.7 48.85 -7.75 49.1 -7.65 49.2 -7.65 49.35 -5.3 53.45 -2.8 57.1 -2.7 58.05 -2.1 60.95 -1.95 61.2 Q-2.75 60.4 -7.4 52.4 L-7.9 51.4 -7.85 49.85 Q-7.7 47.75 -7.2 45.6 L-6.8 44.0 -5.8 41.0 -5.8 40.9 -5.6 40.45 -5.6 40.4 -5.5 40.15 -4.85 38.65 -4.6 38.15 -3.1 35.2 -2.2 33.5 Q-0.05 29.4 1.45 25.25 L1.75 24.45 3.1 20.25 3.35 19.25 3.55 18.5 3.7 17.8 3.8 17.45 3.8 17.35 4.25 14.7 4.45 13.15 4.5 12.65 4.55 10.9 4.45 9.95 4.3 9.45 3.95 9.6 3.2 9.65 2.85 9.7 2.5 10.05 Q1.45 11.05 0.35 12.5 L0.05 12.85 -0.15 13.15 -0.35 13.45 -0.8 14.05 -1.25 14.65 -1.25 14.7 -1.45 15.0 -1.95 15.8 Q-3.05 17.55 -3.7 19.25 L-4.7 22.4 Q-5.55 26.05 -6.35 32.25 L-6.35 32.5 -6.4 32.65 -6.5 33.5 -7.05 36.3 -7.2 36.9 -7.35 36.3 -7.35 36.25 -8.35 33.45 -9.5 30.6 -9.15 33.45 -8.65 34.55 -8.35 35.6 -7.55 38.2 -8.15 39.75 -8.3 40.0 -8.5 40.55 -8.9 41.3 -10.1 37.8 -11.6 33.9 -12.0 33.05 Q-11.75 33.2 -11.1 32.3 L-10.7 31.7 -10.65 31.6 -10.3 30.95 -10.1 30.5 -9.4 28.7 -8.55 26.1 -7.85 23.2 Q-7.5 20.9 -6.85 18.95 L-6.75 18.7 -6.25 17.3 -5.5 15.7 -4.9 14.7 -3.85 13.25 -3.75 13.15 -2.6 11.95 Q-2.15 11.5 -1.85 11.4 L-1.15 10.75 0.65 9.55 Q1.05 9.3 0.45 9.6 L-0.1 9.85 -1.3 10.2 -3.15 10.65 -4.05 10.8 -6.4 11.05 -6.4 10.25 Q-6.4 9.05 -6.55 8.1 L-6.65 7.5 -6.85 6.55 -6.95 6.0 -6.85 5.0 -6.55 2.8 -5.6 -1.2 M-5.0 -0.3 L-5.7 -0.25 -5.8 0.0 -5.85 0.2 -5.9 0.5 -5.1 0.2 -5.1 0.15 -5.1 0.35 -4.2 0.2 Q-2.55 0.2 0.8 2.95 L2.75 4.65 3.25 5.25 3.35 5.35 3.4 5.35 3.5 5.35 3.6 5.45 3.8 5.0 3.85 4.55 3.15 3.9 3.1 3.85 3.0 3.6 2.9 3.5 0.1 1.3 Q-2.7 -0.5 -4.95 -0.35 L-4.95 -0.3 -5.0 -0.3 M-1.65 11.3 L-1.5 11.2 -1.7 11.3 -1.65 11.3 M-9.8 30.05 L-10.15 31.0 -10.0 31.4 -9.95 31.3 -9.95 31.25 -9.75 30.75 -9.6 30.4 -9.55 30.5 -9.55 30.05 -9.6 30.35 -9.8 30.05 M-9.1 35.55 L-10.0 32.85 -10.25 32.3 -10.35 32.15 -10.6 31.8 -11.2 32.5 -10.9 33.2 -10.85 33.35 -9.45 36.5 -8.35 39.9 -8.15 39.55 -8.0 39.25 -8.3 38.15 -9.1 35.55" fill="#6bd2b1" fill-rule="evenodd" stroke="none"/>
      <path d="M-4.95 -0.3 L-4.95 -0.35 Q-2.7 -0.5 0.1 1.3 L2.9 3.5 3.0 3.6 3.1 3.85 3.15 3.9 3.85 4.55 3.8 5.0 3.6 5.45 3.5 5.35 3.4 5.35 3.35 5.35 3.25 5.25 2.75 4.65 0.8 2.95 Q-2.55 0.2 -4.2 0.2 L-5.1 0.35 -5.1 0.15 -5.1 0.2 -5.9 0.5 -5.85 0.2 -5.8 0.0 -5.7 -0.25 -5.0 -0.3 -4.95 -0.3 M2.15 8.0 L2.3 8.0 2.4 8.0 2.45 8.0 2.4 8.05 3.1 8.0 3.1 8.35 3.1 8.5 2.5 8.55 2.4 8.55 1.9 8.55 1.85 8.55 1.4 8.55 Q0.55 8.55 -2.2 9.45 L-2.25 9.5 -6.25 10.35 -6.25 10.15 -6.3 9.75 -5.6 9.6 -2.85 9.05 -2.9 9.0 -2.85 9.0 -1.95 8.65 Q-0.4 8.05 1.8 8.0 L1.9 8.0 2.15 8.0 M-9.6 30.35 L-9.6 30.4 -9.75 30.75 -9.95 31.25 -9.95 31.3 -10.0 31.4 -10.15 31.0 -9.8 30.05 -9.6 30.35 M-9.15 33.45 L-9.5 30.6 -8.35 33.45 -7.35 36.25 -7.35 36.3 -7.2 36.9 -7.1 37.15 -7.4 37.65 -7.55 38.15 -7.55 38.2 -8.35 35.6 -8.65 34.55 -9.15 33.45 M-9.1 35.55 L-8.3 38.15 -8.0 39.25 -8.15 39.55 -8.35 39.9 -9.45 36.5 -10.85 33.35 -10.9 33.2 -11.2 32.5 -10.6 31.8 -10.35 32.15 -10.25 32.3 -10.0 32.85 -9.1 35.55 M-2.95 54.0 L-2.9 54.2 -2.95 54.15 -4.65 51.7 -6.9 47.75 -7.0 47.55 -7.1 47.25 -7.15 47.55 -7.15 47.45 -7.15 47.15 -7.2 47.15 -7.4 46.85 -7.3 46.4 -7.1 45.4 -6.95 45.6 -6.8 45.85 -6.8 46.0 -6.8 46.15 -6.75 46.2 -6.25 47.35 -4.65 50.05 -3.05 52.45 -2.9 52.85 -2.85 53.05 -2.95 53.5 -2.9 53.7 -2.95 53.7 -3.0 53.7 -2.95 54.0 M-7.65 49.2 L-7.75 49.1 -7.7 48.85 -7.6 48.35 Q-7.35 48.6 -7.35 49.1 L-7.3 49.15 -7.05 49.5 -7.0 49.6 -4.9 52.95 -2.9 55.65 -2.85 55.7 -2.85 55.9 -2.8 56.75 -2.8 57.0 -2.8 57.1 -5.3 53.45 -7.65 49.35 -7.65 49.2 M-0.8 58.3 L-0.85 58.2 -0.8 58.25 -0.8 58.3 M18.1 5.6 L18.05 5.7 16.25 5.3 14.05 5.15 10.95 5.35 9.35 5.75 9.35 5.7 Q9.15 5.6 9.0 5.85 L9.0 6.1 8.9 5.95 8.75 6.15 8.7 6.25 8.3 6.6 8.4 6.1 8.55 5.6 8.7 5.4 8.7 5.3 8.75 5.3 8.9 5.2 9.25 5.05 Q10.15 4.65 10.95 4.6 L12.05 4.55 18.3 5.1 18.25 5.25 18.7 5.3 18.85 5.65 18.85 5.7 18.75 5.95 18.55 6.15 Q18.45 6.3 18.25 6.05 L18.15 5.8 18.15 5.75 18.1 5.65 18.15 5.55 18.1 5.55 18.1 5.6 M7.15 10.4 L7.05 10.25 7.25 9.8 7.4 9.7 7.45 9.85 7.6 10.15 7.65 10.2 7.7 10.25 7.9 10.6 Q8.8 12.1 10.05 13.0 L10.65 13.45 11.15 13.8 11.35 13.95 12.95 14.95 14.25 15.7 13.95 16.0 13.75 16.25 11.8 15.1 9.95 13.75 9.35 13.3 7.8 11.4 7.35 10.7 7.15 10.4" fill="#ffffff" fill-rule="evenodd" stroke="none"/>
      <path d="M1.8 8.0 L2.15 8.0 1.9 8.0 1.8 8.0 M-9.6 30.35 L-9.55 30.05 -9.55 30.5 -9.6 30.4 -9.6 30.35" fill="#30a1d2" fill-rule="evenodd" stroke="none"/>
      <path d="M-2.95 53.7 L-2.95 54.0 -3.0 53.7 -2.95 53.7 M18.1 5.65 L18.1 5.6 18.1 5.55 18.15 5.55 18.1 5.65" fill="#4a0000" fill-rule="evenodd" stroke="none"/>
      <path d="M-6.8 45.85 L-6.4 43.8 -5.8 41.9 Q-5.8 48.0 -2.9 52.1 L-2.9 52.85 -2.85 53.05 -2.95 53.5 -2.9 53.7 -2.95 53.7 -3.0 53.7 -2.9 54.2 -2.95 54.15 -2.9 55.65 -2.85 55.7 -2.85 55.9 -2.8 56.75 -2.8 57.0 -2.8 57.1 -2.7 58.05 -2.1 60.95 -1.95 61.2 Q-2.75 60.4 -7.4 52.4 L-7.4 49.8 -7.3 49.95 -7.3 49.15 -7.35 49.1 -7.15 47.55 -7.1 47.25 -7.0 47.55 -6.8 46.15 -6.8 46.0 -6.8 45.85 M-9.45 32.75 L-9.3 33.5 Q-9.0 34.9 -8.35 35.6 L-8.25 35.65 -7.7 36.1 -7.4 36.3 -7.35 36.3 -7.35 36.25 -7.05 36.3 -7.2 36.9 -7.1 37.15 -7.4 37.65 -7.55 38.15 -7.55 38.2 -8.15 39.75 -8.3 40.0 -8.5 40.55 -8.9 41.3 -10.1 37.8 -11.6 33.9 -10.9 33.2 -10.85 33.35 -10.25 32.3 -10.35 32.15 -10.3 32.05 -10.0 31.4 -9.45 32.75 M-5.6 -1.2 L-4.85 -1.1 -4.95 -0.35 -4.95 -0.3 -5.0 -0.3 -5.1 0.2 -5.1 0.15 -5.1 0.35 Q-5.65 3.25 -5.3 5.05 -4.9 7.35 -3.6 8.65 L-2.85 9.05 -2.8 9.05 -2.65 9.1 -2.25 9.5 -2.2 9.45 Q0.55 8.55 1.4 8.55 L1.85 8.55 1.9 8.55 2.4 8.55 2.5 8.55 3.1 8.5 3.1 8.35 3.1 8.0 2.4 8.05 2.45 8.0 2.4 8.0 2.3 8.0 Q1.55 7.85 0.65 7.05 L-0.3 5.9 Q-0.35 5.5 0.6 5.6 1.1 5.65 2.4 6.5 L2.6 6.25 Q1.75 5.65 1.2 5.35 L1.1 5.3 0.95 5.2 -0.2 4.55 -1.05 4.1 -2.15 3.3 -2.1 3.0 -0.3 3.15 1.65 4.15 3.2 5.3 3.35 5.35 3.4 5.35 3.5 5.35 3.6 5.45 3.8 5.0 3.85 4.55 3.15 3.9 3.1 3.85 3.0 3.6 2.9 3.5 3.1 3.55 Q3.7 3.65 3.3 3.15 L3.25 3.0 4.25 4.25 4.1 4.6 3.6 5.95 3.2 8.0 3.25 8.6 Q3.35 9.4 3.65 9.4 L4.25 9.2 4.85 9.2 5.95 9.95 6.55 10.3 6.6 10.35 6.7 10.35 6.95 10.2 7.1 9.95 7.25 9.8 7.05 10.25 7.15 10.4 7.35 10.7 7.8 11.4 9.35 13.3 9.95 13.75 10.95 13.8 11.35 13.95 11.15 13.8 10.65 13.45 11.6 14.05 12.5 14.1 12.2 14.05 14.95 13.25 15.0 13.25 15.1 13.2 15.25 13.15 16.2 12.65 Q17.1 12.15 17.6 11.25 L17.75 7.0 18.15 5.8 18.15 5.75 18.1 5.65 18.15 5.55 18.25 5.25 18.7 5.3 18.85 5.65 18.85 5.7 18.75 5.95 Q18.2 7.2 18.3 9.75 18.35 11.7 17.35 13.15 L17.3 13.2 15.7 14.7 15.55 14.8 Q14.5 15.45 13.95 16.0 L13.75 16.25 Q13.1 16.95 13.6 17.35 11.85 16.65 10.45 15.6 L9.3 14.7 7.85 13.15 7.65 12.9 6.95 11.9 6.8 13.15 6.6 14.7 5.8 19.25 4.5 24.7 4.25 25.55 4.15 25.9 Q4.75 22.2 4.25 19.25 L4.15 18.8 4.0 18.1 3.95 17.9 4.0 17.5 4.55 14.7 4.7 13.6 4.75 13.15 4.8 9.7 4.45 9.95 4.3 9.45 3.95 9.6 3.2 9.65 2.85 9.7 2.5 10.05 Q1.45 11.05 0.35 12.5 L0.05 12.85 -0.15 13.15 -0.35 13.45 -0.8 14.05 -1.25 14.65 -1.25 14.7 -1.45 15.0 -2.0 15.05 -3.5 15.4 Q-4.45 15.6 -5.45 16.5 L-4.5 14.7 -4.3 14.35 -3.5 13.15 -2.0 11.65 -1.05 10.9 -1.5 11.15 -1.5 11.2 -1.7 11.3 -2.05 11.55 -1.15 10.75 0.65 9.55 Q1.05 9.3 0.45 9.6 L-0.1 9.85 -1.3 10.2 -3.15 10.65 -4.05 10.8 -6.4 11.05 -6.4 10.25 Q-6.4 9.05 -6.55 8.1 L-6.65 7.5 -6.85 6.55 -6.95 6.0 -6.85 5.0 -6.55 2.8 -5.6 -1.2 M7.25 9.8 L7.55 9.05 8.05 7.4 8.4 4.6 8.25 4.35 8.35 4.25 8.4 4.2 8.75 4.25 8.8 4.45 8.75 4.8 8.9 5.2 8.75 5.3 8.7 5.3 8.7 5.4 8.55 5.6 8.4 6.1 8.3 6.6 8.7 6.25 8.75 6.15 8.9 5.95 9.0 6.1 9.0 5.85 Q9.15 5.6 9.35 5.7 L9.35 5.75 9.7 5.8 11.95 6.05 12.1 6.4 Q12.1 6.85 11.65 7.15 10.35 6.8 9.3 7.15 9.5 7.9 10.9 8.35 L12.6 8.75 Q13.05 8.85 13.75 9.5 L14.0 10.05 13.8 10.25 Q11.0 10.55 8.45 9.55 L8.25 9.35 8.2 9.2 8.1 9.2 8.05 9.1 8.0 9.15 7.8 9.45 Q7.7 9.75 7.75 10.1 L7.7 10.25 7.65 10.2 7.6 10.15 7.45 9.85 7.4 9.7 7.25 9.8" fill="#000000" fill-opacity="0.29803923" fill-rule="evenodd" stroke="none"/>
    </g>
  </defs>
</svg>
