<?xml version="1.0" encoding="UTF-8" standalone="no"?>
<svg xmlns:ffdec="https://www.free-decompiler.com/flash" xmlns:xlink="http://www.w3.org/1999/xlink" ffdec:objectType="frame" height="67.15px" width="61.3px" xmlns="http://www.w3.org/2000/svg">
  <g transform="matrix(1.0, 0.0, 0.0, 1.0, 8.2, 9.1)">
    <use ffdec:characterId="1" height="67.15" transform="matrix(1.0, 0.0, 0.0, 1.0, -8.2, -9.1)" width="61.3" xlink:href="#shape0"/>
  </g>
  <defs>
    <g id="shape0" transform="matrix(1.0, 0.0, 0.0, 1.0, 8.2, 9.1)">
      <path d="M42.6 30.7 L42.45 30.95 42.25 31.05 41.35 30.9 40.75 31.45 Q39.7 32.4 39.7 33.35 39.7 34.25 40.45 35.45 L41.2 36.7 41.15 37.0 40.8 37.1 Q40.3 37.1 39.9 36.5 L39.3 36.95 Q38.0 38.05 38.0 39.0 38.0 39.75 38.65 40.7 L38.75 40.65 Q39.1 40.6 39.1 41.1 L39.05 41.2 39.6 41.9 39.55 42.25 39.2 42.4 Q38.7 42.4 38.3 41.95 L37.85 42.35 Q36.6 43.45 36.6 44.5 L36.9 45.6 36.85 45.9 36.5 46.05 36.25 45.9 35.9 46.05 Q35.35 46.05 35.25 45.3 L35.35 45.5 Q34.9 44.2 35.6 42.8 36.25 41.35 37.05 41.25 37.85 41.1 37.35 40.35 36.8 39.55 37.05 38.7 37.25 37.8 37.85 36.9 38.4 36.0 39.55 35.75 L39.0 35.05 Q38.65 34.35 38.8 33.2 38.95 32.05 40.4 30.65 L40.6 30.45 Q40.1 30.0 39.75 29.2 L39.25 27.35 Q39.25 26.3 40.4 25.0 38.55 24.95 37.8 23.8 37.05 22.6 37.05 21.75 37.05 20.85 37.2 20.4 L36.7 20.4 Q34.6 20.0 34.05 19.05 33.85 18.8 33.8 17.55 L32.6 17.8 Q30.5 17.8 29.85 16.5 L29.7 15.65 Q28.35 16.65 27.05 16.65 25.75 16.65 25.0 15.9 L24.0 14.7 23.35 15.5 Q22.6 16.15 21.15 16.15 19.5 16.15 18.45 15.2 L18.1 16.0 Q17.25 17.75 15.7 17.8 L13.6 17.6 13.6 17.8 Q13.1 21.0 10.6 21.0 L9.55 20.95 9.55 21.85 Q9.55 22.8 9.2 23.55 8.5 24.95 6.8 24.95 L6.4 24.95 6.5 25.05 Q7.15 25.85 7.15 26.6 7.15 28.35 5.0 29.4 6.15 30.05 6.2 30.95 L6.0 32.5 4.4 34.25 Q6.5 35.2 6.45 36.2 6.35 37.15 5.85 38.1 L5.8 38.25 7.45 39.15 Q8.0 39.9 8.15 41.05 9.75 40.9 10.6 42.25 11.4 43.6 11.35 45.0 11.3 46.4 10.4 45.95 L10.15 45.6 10.4 45.05 10.65 44.3 Q10.65 43.75 10.15 42.95 9.55 41.95 8.8 41.95 7.95 41.95 7.8 42.25 L7.5 42.75 Q7.1 42.35 7.1 41.6 L7.05 40.45 Q6.75 39.8 5.6 39.3 L5.1 39.05 4.45 39.25 4.25 39.2 4.15 38.95 4.55 38.5 Q4.6 38.25 5.0 38.05 L5.1 38.1 Q5.85 37.45 5.85 36.65 5.85 36.0 5.35 35.3 4.8 34.6 3.95 34.5 L3.2 34.5 Q2.95 34.25 3.0 33.85 L3.95 33.9 4.65 33.15 Q5.65 32.1 5.65 31.2 5.65 30.25 4.3 29.7 L4.25 29.7 3.8 29.8 3.55 29.45 3.6 29.4 2.95 29.0 4.15 28.95 4.85 28.35 Q6.15 27.25 6.15 26.3 6.15 25.85 5.75 25.2 5.3 24.45 4.85 24.25 L5.35 24.25 5.35 24.2 5.6 23.95 Q8.65 23.95 8.65 21.95 L8.4 20.8 8.15 19.85 8.2 19.6 9.0 20.0 9.2 19.95 10.5 20.2 Q11.8 20.2 12.45 19.05 L12.85 17.85 12.5 16.9 12.15 16.2 Q12.15 15.2 12.9 16.05 L13.2 16.45 13.55 16.65 14.7 17.0 Q16.05 17.0 16.9 15.7 L17.55 14.1 17.55 14.05 17.6 13.9 17.5 13.35 17.6 12.6 Q17.9 11.95 18.15 12.5 L18.65 13.6 18.7 14.35 18.85 14.5 Q19.65 15.35 21.15 15.35 22.9 15.35 23.45 14.0 24.05 12.6 24.85 12.55 L24.9 12.85 24.6 13.95 Q24.6 14.45 25.2 14.95 26.0 15.55 27.4 15.55 28.75 15.55 29.55 14.85 L29.55 14.05 Q29.85 13.85 30.1 14.25 L30.7 13.35 Q31.2 13.35 31.2 13.8 31.2 14.3 30.45 15.05 L30.45 15.2 Q30.85 17.0 32.6 17.0 33.5 17.0 34.15 16.3 L34.95 15.55 Q35.5 15.55 35.5 15.9 L34.6 18.1 Q34.6 18.85 36.85 19.35 L37.75 19.55 Q38.0 19.25 38.2 19.3 L38.4 19.7 Q39.1 19.85 39.1 19.95 L38.9 20.3 38.9 20.45 38.7 21.55 Q38.7 22.65 40.3 23.6 L41.9 24.7 Q41.9 25.1 41.3 25.25 L40.75 25.85 Q40.0 26.75 40.0 27.4 40.0 28.45 41.3 29.55 L42.6 30.7" fill="#000000" fill-opacity="0.29803923" fill-rule="evenodd" stroke="none"/>
      <path d="M7.55 43.95 L5.75 42.7 6.9 43.55 7.3 43.65 7.4 43.75 7.55 43.95" fill="#ffffff" fill-rule="evenodd" stroke="none"/>
      <path d="M20.15 15.2 L19.65 15.05 19.55 15.0 19.3 14.85 18.25 14.1 17.95 13.85 17.95 13.95 18.05 14.35 Q18.05 15.15 17.2 16.0 L15.8 17.0 15.55 17.05 15.1 17.15 13.2 16.9 13.15 16.85 13.1 16.85 12.85 16.75 12.6 16.6 12.75 16.85 13.0 18.1 Q13.05 19.15 11.95 19.95 11.05 20.6 10.4 20.65 L10.05 20.65 9.2 20.5 Q9.65 19.2 10.5 18.05 12.75 15.05 15.4 13.2 18.0 11.4 21.1 10.85 L21.65 10.45 24.25 10.55 24.85 10.6 24.0 10.8 23.0 11.6 21.15 13.7 20.15 15.2 M7.25 24.35 L7.2 24.35 7.0 24.4 6.05 24.5 5.95 24.5 5.35 24.4 6.0 25.0 6.0 25.05 6.05 25.05 Q6.5 25.4 6.5 26.1 L6.4 26.95 6.15 27.25 5.9 27.75 5.85 27.8 5.0 28.65 4.05 29.1 3.95 29.15 3.8 29.15 3.95 29.15 4.05 29.2 5.2 29.95 5.3 30.0 Q5.7 30.4 5.75 31.1 L5.75 31.25 5.75 31.65 5.7 31.85 4.95 33.0 4.85 33.05 4.6 33.3 3.95 33.9 3.9 33.55 Q3.3 29.55 3.8 25.7 4.3 21.8 6.1 18.5 L6.55 17.9 6.8 17.25 9.1 15.3 9.45 15.0 9.75 14.8 9.05 15.7 9.0 15.7 8.9 16.1 Q6.95 19.15 7.2 23.75 L7.25 24.35 M4.05 34.45 Q4.95 34.65 5.35 34.95 5.9 35.45 5.9 36.5 5.9 37.25 5.1 38.4 4.45 36.55 4.05 34.45 M5.1 38.5 L5.2 38.65 Q6.15 38.7 6.95 39.4 7.75 40.05 7.75 40.95 L7.5 42.25 8.05 42.05 Q8.85 41.85 9.65 42.35 L9.75 42.4 Q10.85 43.0 10.9 44.4 L10.85 45.1 8.9 44.55 8.55 44.4 8.05 44.2 6.6 42.45 5.8 40.4 5.1 38.5 M43.9 38.2 Q42.95 40.3 41.6 41.45 L39.2 43.25 38.95 43.45 Q37.9 44.15 35.3 44.85 L35.6 44.7 Q35.35 43.75 36.4 42.6 37.45 41.5 38.75 41.3 L38.15 40.35 Q37.65 39.65 37.65 39.35 37.65 38.1 38.3 37.35 39.0 36.4 40.6 36.2 L39.8 35.05 39.5 34.05 39.5 33.75 Q39.5 32.45 40.25 31.45 40.95 30.6 41.8 30.45 L42.05 30.4 41.85 30.25 40.5 28.95 Q40.0 28.25 40.0 27.25 40.0 26.75 40.15 26.3 L41.1 27.65 42.05 29.35 Q43.1 31.5 43.5 33.8 L43.8 37.4 43.9 38.2 M5.35 24.4 L5.3 24.35 5.2 24.35 5.35 24.4 M26.0 53.65 L26.7 54.05 Q28.25 55.05 29.95 55.7 L29.65 56.0 Q29.1 56.45 28.4 56.45 27.4 56.45 26.85 55.85 L26.85 55.95 Q27.2 56.65 26.75 57.35 26.2 58.05 25.15 58.05 23.25 58.05 23.1 56.6 L23.1 56.7 Q23.15 57.15 22.5 57.7 21.85 58.2 21.0 58.0 L19.7 57.45 Q19.15 57.15 19.15 56.1 19.15 55.8 19.45 55.6 L18.7 56.0 17.95 56.05 Q17.3 56.05 16.7 55.7 L16.25 55.15 16.15 55.05 18.95 53.1 19.3 52.95 19.35 53.05 Q19.95 54.5 22.65 54.5 L25.05 54.15 26.0 53.65" fill="#fecddc" fill-rule="evenodd" stroke="none"/>
      <path d="M40.15 26.3 Q40.5 25.4 41.5 24.65 L41.55 24.6 41.45 24.6 41.4 24.6 Q39.9 24.65 38.85 23.5 37.8 22.4 37.8 21.0 L37.9 20.4 38.2 20.0 37.25 20.25 36.65 20.2 Q35.8 20.0 35.1 19.45 34.25 18.7 34.25 17.7 L34.3 17.5 34.5 16.95 34.65 16.15 34.5 16.35 33.75 16.75 32.55 17.05 Q31.5 17.05 30.75 16.35 30.05 15.6 30.05 14.5 L30.05 14.35 29.45 15.15 Q28.5 16.05 27.45 16.05 26.0 16.0 25.15 15.2 24.3 14.35 24.3 13.3 L23.2 14.75 Q22.5 15.3 21.4 15.3 L20.8 15.3 20.15 15.2 21.15 13.7 23.0 11.6 24.0 10.8 24.85 10.6 Q26.8 10.8 28.6 11.35 L30.65 12.15 Q34.8 14.0 36.95 15.8 L39.8 18.3 42.65 21.95 43.4 23.2 Q44.8 25.85 45.0 29.85 45.25 34.85 44.2 37.5 L43.9 38.2 43.8 37.4 43.5 33.8 Q43.1 31.5 42.05 29.35 L41.1 27.65 40.15 26.3 M9.2 20.5 L9.1 20.5 9.05 20.5 8.85 20.45 8.75 20.4 8.5 20.35 9.05 21.05 9.15 21.8 8.95 22.85 8.75 23.2 8.65 23.35 8.3 23.8 8.0 24.0 7.7 24.2 7.25 24.35 7.2 23.75 Q6.95 19.15 8.9 16.1 L9.0 15.7 9.05 15.7 9.75 14.8 11.3 13.7 Q16.0 10.6 21.25 10.45 L21.65 10.45 21.1 10.85 Q18.0 11.4 15.4 13.2 12.75 15.05 10.5 18.05 9.65 19.2 9.2 20.5 M3.95 33.9 L3.55 34.3 4.05 34.45 Q4.45 36.55 5.1 38.4 L5.0 38.5 5.1 38.5 5.8 40.4 6.6 42.45 8.05 44.2 7.55 43.95 7.4 43.75 7.3 43.65 6.9 43.55 5.75 42.7 4.55 41.4 Q2.35 38.25 1.65 35.55 0.85 32.8 1.65 28.1 2.4 23.4 4.5 20.1 5.4 18.65 6.8 17.25 L6.55 17.9 6.1 18.5 Q4.3 21.8 3.8 25.7 3.3 29.55 3.9 33.55 L3.95 33.9 M8.35 20.3 L8.3 20.25 8.2 20.25 8.35 20.3 M29.95 55.7 Q28.25 55.05 26.7 54.05 L26.0 53.65 26.15 53.55 27.0 52.55 27.3 52.75 Q29.1 53.9 30.25 54.0 30.6 54.85 29.95 55.65 L29.95 55.7 M19.3 52.95 L18.95 53.1 16.15 55.05 15.7 53.65 Q15.3 52.1 15.75 53.05 16.2 51.8 17.35 52.05 L19.05 52.4 19.3 52.9 19.3 52.95" fill="#feb1c9" fill-rule="evenodd" stroke="none"/>
      <path d="M32.5 51.9 L32.85 53.35 32.9 53.8 32.8 53.9 31.4 53.95 29.3 53.35 Q28.05 52.95 26.95 52.05 L26.2 51.25 26.0 51.2 Q26.35 50.7 26.3 49.8 L26.25 49.6 27.65 49.7 Q28.85 49.7 29.0 48.75 L29.0 48.7 Q28.85 48.15 28.35 47.95 L28.25 48.0 Q27.0 47.85 25.95 48.55 L25.55 47.75 27.05 46.5 28.6 45.75 Q29.9 44.95 31.05 44.75 L31.75 44.9 31.8 44.95 Q31.95 46.65 31.35 48.7 30.95 49.9 31.5 50.85 31.95 51.55 32.5 51.9 M26.55 53.9 L26.5 53.95 Q25.25 54.95 22.95 54.95 20.75 54.95 19.25 53.75 L18.95 53.5 18.9 53.45 18.85 53.4 18.85 53.35 18.8 53.3 20.45 52.5 22.0 51.85 23.8 52.0 26.55 53.9 M13.2 53.65 Q13.15 53.1 13.4 51.45 15.35 49.75 14.25 47.95 L13.7 46.9 13.6 46.85 Q13.05 45.75 13.35 44.25 L13.4 44.25 13.7 44.3 15.1 44.75 15.8 45.05 15.85 45.05 Q17.2 45.6 18.2 46.25 L18.65 46.65 21.15 48.0 20.8 48.6 Q19.55 47.65 17.8 48.05 L17.7 48.15 Q17.3 48.7 17.5 49.15 L17.5 49.2 Q18.8 50.75 20.4 49.9 L20.6 49.75 20.7 50.95 Q21.0 51.0 20.0 51.5 L16.9 52.9 Q14.75 53.85 13.2 53.65 M19.4 46.65 L19.6 46.65 20.05 46.65 22.5 46.75 25.85 46.8 26.15 46.75 25.05 47.4 21.95 47.3 20.55 47.3 19.4 46.65 M21.2 49.25 Q21.45 48.1 22.0 47.7 L24.95 47.95 25.15 48.2 25.45 48.9 Q25.65 49.5 25.45 50.4 25.2 51.25 24.45 51.55 L22.05 51.35 Q20.9 50.35 21.2 49.25" fill="#333132" fill-rule="evenodd" stroke="none"/>
      <path d="M33.25 47.6 L32.7 47.75 32.3 47.85 32.1 47.85 32.05 49.0 31.9 50.1 32.25 51.3 32.5 51.9 Q31.95 51.55 31.5 50.85 30.95 49.9 31.35 48.7 31.95 46.65 31.8 44.95 L31.75 44.9 31.05 44.75 31.45 44.7 32.0 44.75 Q32.4 44.8 32.5 45.0 L32.6 45.35 32.6 45.55 32.95 45.45 33.05 45.45 33.45 45.35 34.1 45.2 35.5 44.8 37.7 43.9 Q40.7 42.35 42.35 39.75 44.45 36.85 44.75 32.7 L44.75 29.6 Q44.35 23.55 40.25 19.05 36.35 14.7 30.75 12.55 27.15 11.1 23.3 11.0 25.95 9.9 29.1 9.55 33.05 9.25 36.2 11.2 39.0 12.95 41.1 15.35 40.1 13.1 38.3 11.25 L37.5 10.45 Q43.4 14.15 44.6 17.35 L46.05 21.75 46.5 25.8 46.65 31.1 Q46.5 33.5 45.55 36.2 L45.1 37.4 43.65 39.85 Q42.45 41.8 39.4 43.9 37.2 45.35 34.9 46.0 32.7 46.95 33.25 47.6 M32.9 53.8 Q32.8 54.6 31.8 54.6 30.5 54.6 27.35 52.75 L26.7 53.8 26.65 53.85 26.55 53.9 23.8 52.0 22.0 51.85 20.45 52.5 18.8 53.3 18.2 52.45 16.1 53.55 15.15 53.95 13.85 54.25 Q13.3 54.25 13.2 53.8 L13.2 53.65 Q14.75 53.85 16.9 52.9 L20.0 51.5 Q21.0 51.0 20.7 50.95 L20.6 49.75 20.4 49.9 Q18.8 50.75 17.5 49.2 L17.5 49.15 Q17.3 48.7 17.7 48.15 L17.8 48.05 Q19.55 47.65 20.8 48.6 L21.15 48.0 18.65 46.65 18.2 46.25 18.8 46.65 19.4 46.65 20.55 47.3 21.95 47.3 25.05 47.4 26.15 46.75 27.05 46.5 25.55 47.75 25.95 48.55 Q27.0 47.85 28.25 48.0 L28.35 47.95 Q28.85 48.15 29.0 48.7 L29.0 48.75 Q28.85 49.7 27.65 49.7 L26.25 49.6 26.3 49.8 Q26.35 50.7 26.0 51.2 L26.2 51.25 26.95 52.05 Q28.05 52.95 29.3 53.35 L31.4 53.95 32.8 53.9 32.9 53.8 M13.4 51.45 L13.6 50.2 Q13.5 48.9 13.1 48.25 L12.85 47.9 12.7 47.9 11.0 47.55 Q11.95 46.75 10.15 45.9 8.45 45.3 6.05 43.7 3.7 42.1 1.4 39.45 -0.9 36.75 -1.5 32.8 -2.1 28.85 -1.25 25.0 -0.45 21.15 1.4 17.6 3.2 14.0 6.4 11.45 9.55 8.9 12.5 8.0 9.0 12.5 6.7 18.35 3.95 21.45 2.5 25.45 0.45 31.2 2.4 37.0 4.5 43.1 10.55 45.05 L12.3 45.55 12.9 45.65 12.9 44.85 Q12.8 44.3 13.35 44.25 13.05 45.75 13.6 46.85 L13.7 46.9 14.25 47.95 Q15.35 49.75 13.4 51.45 M8.55 16.45 Q10.1 14.0 13.0 11.3 15.85 8.6 19.65 6.85 23.35 5.05 29.1 5.5 34.8 5.95 32.55 6.85 L27.05 8.5 Q23.8 9.45 21.05 11.05 L19.35 11.2 Q13.6 12.2 9.05 16.0 L8.55 16.45 M21.2 49.25 Q20.9 50.35 22.05 51.35 L24.45 51.55 Q25.2 51.25 25.45 50.4 25.65 49.5 25.45 48.9 L25.15 48.2 24.95 47.95 22.0 47.7 Q21.45 48.1 21.2 49.25" fill="#1d1d1d" fill-rule="evenodd" stroke="none"/>
      <path d="M11.0 47.55 Q7.45 46.75 4.4 45.15 -2.95 41.3 -5.8 35.95 -8.6 30.55 -8.1 23.65 -7.55 16.75 -6.2 12.4 -4.9 8.1 -3.3 5.35 L-1.5 2.25 Q1.8 -2.15 6.85 -5.05 11.85 -8.0 16.75 -8.75 21.7 -9.5 27.9 -8.7 34.05 -7.95 39.4 -5.05 44.75 -2.15 48.9 3.95 L49.0 3.95 Q52.65 10.4 52.95 17.2 53.3 24.65 52.7 29.0 52.05 33.3 48.3 38.65 44.5 44.0 38.95 46.0 L33.25 47.6 Q32.7 46.95 34.9 46.0 37.2 45.35 39.4 43.9 42.45 41.8 43.65 39.85 L45.1 37.4 45.55 36.2 Q46.5 33.5 46.65 31.1 L46.5 25.8 46.05 21.75 44.6 17.35 Q43.4 14.15 37.5 10.45 L38.3 11.25 Q40.1 13.1 41.1 15.35 39.0 12.95 36.2 11.2 33.05 9.25 29.1 9.55 25.95 9.9 23.3 11.0 L21.05 11.05 Q23.8 9.45 27.05 8.5 L32.55 6.85 Q34.8 5.95 29.1 5.5 23.35 5.05 19.65 6.85 15.85 8.6 13.0 11.3 10.1 14.0 8.55 16.45 L6.7 18.35 Q9.0 12.5 12.5 8.0 9.55 8.9 6.4 11.45 3.2 14.0 1.4 17.6 -0.45 21.15 -1.25 25.0 -2.1 28.85 -1.5 32.8 -0.9 36.75 1.4 39.45 3.7 42.1 6.05 43.7 8.45 45.3 10.15 45.9 11.95 46.75 11.0 47.55" fill="#333333" fill-rule="evenodd" stroke="none"/>
    </g>
  </defs>
</svg>
