<?xml version="1.0" encoding="UTF-8" standalone="no"?>
<svg xmlns:ffdec="https://www.free-decompiler.com/flash" xmlns:xlink="http://www.w3.org/1999/xlink" ffdec:objectType="frame" height="22.75px" width="42.3px" xmlns="http://www.w3.org/2000/svg">
  <g transform="matrix(1.0, 0.0, 0.0, 1.0, -1.45, -3.55)">
    <use ffdec:characterId="1" height="22.75" transform="matrix(1.0, 0.0, 0.0, 1.0, 1.45, 3.55)" width="42.3" xlink:href="#shape0"/>
  </g>
  <defs>
    <g id="shape0" transform="matrix(1.0, 0.0, 0.0, 1.0, -1.45, -3.55)">
      <path d="M42.85 25.1 L42.85 26.3 Q41.7 23.45 39.9 20.65 38.05 17.85 36.25 18.0 34.4 18.15 31.75 16.3 29.1 14.4 27.95 14.05 26.75 13.65 26.9 12.2 L26.9 12.15 26.8 12.1 Q26.8 13.3 26.25 14.0 L21.45 13.4 Q19.75 13.4 18.3 13.9 17.55 13.55 17.6 13.2 L15.4 14.95 Q13.05 16.45 11.4 17.15 L9.05 17.25 Q8.35 16.65 7.95 17.25 L5.5 20.8 4.95 21.7 Q3.65 23.85 2.95 25.65 L2.85 25.9 2.8 26.0 2.8 25.9 2.8 25.7 2.8 25.65 2.75 25.15 2.75 25.0 2.75 24.85 Q2.7 22.15 3.25 19.7 4.25 14.8 7.5 10.85 L8.55 9.6 10.5 7.75 Q11.55 7.05 12.65 6.5 17.35 3.9 21.85 3.6 L22.65 3.6 23.2 3.6 Q28.15 3.75 32.6 6.55 L36.55 9.65 37.1 10.15 37.15 10.2 Q40.5 13.9 41.9 18.5 42.8 21.6 42.85 25.1 M18.75 10.75 L18.8 10.7 18.75 10.7 18.75 10.75 M26.65 10.6 L26.8 11.85 26.95 11.9 26.95 11.8 Q27.0 10.65 26.65 10.6 M21.6 6.2 Q21.45 5.75 20.9 5.75 20.15 5.75 20.15 6.5 L20.25 6.9 Q20.45 7.25 20.9 7.25 21.65 7.25 21.65 6.5 L21.6 6.2 M25.3 5.75 Q24.85 5.75 24.7 6.05 L24.6 6.3 24.55 6.4 24.55 6.45 24.55 6.55 24.65 6.9 Q24.85 7.3 25.3 7.3 L25.85 7.15 26.05 6.8 26.05 6.65 26.05 6.55 26.05 6.45 Q26.0 5.75 25.3 5.75" fill="#bb8500" fill-opacity="0.9882353" fill-rule="evenodd" stroke="none"/>
      <path d="M42.85 26.3 Q41.7 23.45 39.9 20.65 38.05 17.85 36.25 18.0 34.4 18.15 31.75 16.3 29.1 14.4 27.95 14.05 26.75 13.65 26.9 12.2 L26.9 12.15 27.25 12.15 26.8 11.9 26.8 11.85 26.95 11.9 26.95 11.8 Q27.2 11.6 27.05 11.2 L26.85 10.6 Q26.55 10.25 23.9 9.9 21.2 9.55 18.85 10.8 L18.55 11.9 18.65 11.9 18.7 11.9 Q22.55 11.2 25.4 11.85 L26.8 12.1 Q26.8 13.3 26.25 14.0 L21.45 13.4 Q19.75 13.4 18.3 13.9 17.55 13.55 17.6 13.2 L15.4 14.95 Q13.05 16.45 11.4 17.15 L9.05 17.25 Q8.35 16.65 7.95 17.25 L5.5 20.8 4.95 21.7 Q3.65 23.85 2.95 25.65 L2.85 25.9 2.8 26.0 2.8 25.9 2.8 25.7 2.8 25.65 2.75 25.15 2.75 25.0 Q3.35 22.9 4.35 21.15 L3.65 20.25 3.25 19.7 Q4.25 14.8 7.5 10.85 L8.6 12.9 Q10.8 10.85 14.2 9.75 L13.1 10.25 13.4 10.15 14.7 9.6 13.75 9.2 Q10.85 8.65 8.55 9.6 L10.5 7.75 Q11.55 7.05 12.65 6.5 15.45 6.45 17.7 7.8 L18.2 8.45 18.65 8.35 21.85 7.9 22.0 7.9 22.65 7.85 22.65 3.6 23.2 3.6 23.2 7.8 27.7 8.5 Q29.7 6.65 32.6 6.55 L36.55 9.65 34.65 8.85 Q32.9 8.05 29.85 9.15 32.85 10.3 35.5 11.9 L36.0 12.25 37.1 10.15 37.15 10.2 Q40.5 13.9 41.9 18.5 L40.75 20.6 42.85 25.1 42.85 26.3 M27.25 11.9 L27.3 12.0 29.25 12.75 Q32.2 13.85 33.25 14.6 L34.55 15.4 34.6 15.5 34.5 15.25 34.45 15.25 34.55 15.4 34.3 15.2 34.4 15.2 34.45 15.25 34.45 15.2 Q34.8 14.4 35.05 14.5 33.35 13.05 31.35 12.15 L28.05 10.85 27.55 11.7 27.3 11.7 27.25 11.9 M27.35 8.7 L27.5 8.7 27.35 8.65 27.35 8.7 M24.4 8.5 L23.2 8.4 18.6 8.9 18.45 8.95 18.7 9.8 25.25 9.55 26.6 9.8 27.05 9.15 27.25 8.95 26.85 8.75 26.8 8.75 25.35 8.6 24.4 8.5 M32.55 10.9 L32.1 10.7 Q31.3 10.25 29.0 9.55 L28.4 10.35 Q30.65 11.0 32.65 12.3 L33.1 12.45 34.6 13.45 35.1 13.7 35.45 12.9 35.15 12.4 32.55 10.9 M16.15 10.8 L15.25 10.0 13.8 10.5 Q11.0 11.55 8.9 13.35 L9.55 14.45 Q11.3 12.65 14.05 11.55 L15.25 11.15 16.15 10.8 M16.5 11.4 L16.1 11.35 Q14.2 11.8 12.65 12.75 10.85 13.8 9.95 15.05 L10.2 15.4 10.4 15.9 Q12.4 14.4 14.65 13.3 16.85 12.15 18.55 11.9 17.5 11.95 16.75 11.35 L16.5 11.4 M18.8 10.7 L18.75 10.7 18.75 10.75 18.8 10.7 M18.55 11.9 L18.5 12.0 18.7 11.9 18.55 11.9" fill="#000000" fill-opacity="0.29803923" fill-rule="evenodd" stroke="none"/>
      <path d="M25.65 6.05 L25.35 5.9 25.2 5.9 25.2 6.0 25.4 6.15 25.5 6.35 25.3 6.55 25.1 6.25 25.0 6.5 Q25.0 6.8 25.35 6.8 L25.8 6.35 25.65 6.05 M20.2 6.15 Q20.35 5.75 20.9 5.75 21.2 5.75 21.4 5.9 L21.5 6.4 21.25 6.95 20.5 6.9 20.45 6.8 20.2 6.15 M24.85 5.85 L25.0 5.8 25.15 5.75 25.3 5.75 Q25.8 5.75 25.95 6.1 26.0 6.75 25.55 7.1 L25.05 7.1 25.0 7.05 Q24.5 6.5 24.85 5.85 M20.85 6.0 L20.7 5.9 Q20.55 6.0 20.55 6.25 20.55 6.75 21.0 6.75 L21.35 6.4 21.2 6.15 21.1 6.2 21.05 6.5 20.8 6.45 20.85 6.0" fill="#ffffff" fill-rule="evenodd" stroke="none"/>
      <path d="M25.65 6.05 L25.8 6.35 25.35 6.8 Q25.0 6.8 25.0 6.5 L25.1 6.25 25.3 6.55 25.5 6.35 25.4 6.15 25.2 6.0 25.2 5.9 25.35 5.9 25.65 6.05 M21.4 5.9 L21.65 6.5 Q21.65 7.25 20.9 7.25 20.45 7.25 20.25 6.9 L20.15 6.5 20.2 6.15 20.45 6.8 20.5 6.9 21.25 6.95 21.5 6.4 21.4 5.9 M25.95 6.1 L26.05 6.55 Q26.05 7.3 25.3 7.3 24.85 7.3 24.65 6.9 L24.55 6.55 Q24.55 6.05 24.85 5.85 24.5 6.5 25.0 7.05 L25.05 7.1 25.55 7.1 Q26.0 6.75 25.95 6.1 M20.85 6.0 L20.8 6.45 21.05 6.5 21.1 6.2 21.2 6.15 21.35 6.4 21.0 6.75 Q20.55 6.75 20.55 6.25 20.55 6.0 20.7 5.9 L20.85 6.0" fill="#a8a8a8" fill-rule="evenodd" stroke="none"/>
      <path d="M14.5 3.85 L14.55 3.8 Q14.7 3.7 15.15 4.1 L15.7 4.6 17.0 6.05 16.9 6.2 16.1 5.4 15.75 5.0 15.6 5.2 Q15.1 4.25 14.5 3.85 M7.0 5.8 L6.9 5.55 6.85 5.3 Q6.85 4.7 7.4 4.8 7.9 4.95 7.95 5.4 L7.15 4.9 7.15 5.0 Q6.9 5.3 7.0 5.8 M2.15 11.95 L1.95 11.45 1.75 11.5 Q1.5 11.95 1.5 10.55 1.5 9.65 1.7 9.45 L2.15 11.95" fill="#fefdfc" fill-rule="evenodd" stroke="none"/>
      <path d="M15.6 5.2 L15.55 5.2 Q14.85 5.15 14.35 4.25 L14.35 3.9 14.4 3.95 14.5 3.85 Q15.1 4.25 15.6 5.2 M7.95 5.4 L7.95 5.5 7.9 5.65 7.35 5.65 7.05 5.8 7.0 5.8 Q6.9 5.3 7.15 5.0 L7.15 4.9 7.95 5.4 M1.7 9.45 L2.0 9.35 Q2.45 9.55 2.25 10.65 L2.15 11.05 2.25 11.75 2.2 11.95 2.15 11.95 1.7 9.45" fill="#fae191" fill-rule="evenodd" stroke="none"/>
      <path d="M19.8 9.15 L19.85 9.55 19.9 10.55 Q20.0 12.75 18.65 14.6 L17.4 16.1 15.65 17.6 14.4 18.45 13.95 18.7 13.5 18.95 13.4 19.0 13.35 19.0 13.1 19.15 12.95 19.2 11.05 19.7 8.9 20.0 7.7 19.95 6.2 19.8 5.8 19.7 Q3.5 19.15 2.35 17.7 L1.8 16.85 1.55 13.3 1.45 11.5 Q2.0 9.8 3.35 8.35 L5.05 6.85 Q5.55 6.45 6.25 6.0 L8.3 5.0 8.2 5.0 10.2 4.45 15.5 4.7 17.3 6.35 18.1 7.2 19.8 9.15 M15.55 7.7 Q14.4 7.1 12.3 7.1 10.15 7.1 7.75 8.65 5.35 10.2 4.6 11.75 3.95 13.05 3.8 13.95 L3.75 14.3 3.7 15.55 Q4.55 16.3 5.95 16.65 L6.75 16.8 9.1 16.75 10.0 16.65 10.15 16.6 11.65 16.15 11.75 16.1 11.85 16.05 11.85 16.0 11.9 16.0 12.0 15.95 12.4 15.85 13.5 15.25 14.1 14.85 Q16.0 13.75 16.9 12.4 17.7 11.15 17.7 9.8 L17.75 9.85 17.7 9.75 17.7 9.7 17.15 8.65 15.55 7.7" fill="#d5a358" fill-opacity="0.9882353" fill-rule="evenodd" stroke="none"/>
      <path d="M17.65 9.55 Q17.9 12.6 14.1 14.85 L12.4 15.85 11.9 16.0 10.15 16.6 9.1 16.75 6.75 16.8 Q3.25 16.3 2.55 13.55 1.9 10.8 4.05 8.55 L5.35 7.35 6.3 6.75 Q7.05 6.25 7.9 5.95 L8.4 5.75 9.2 5.5 14.85 5.75 Q17.45 6.65 17.65 9.55" fill="#ffffff" fill-opacity="0.29803923" fill-rule="evenodd" stroke="none"/>
      <path d="M13.0 4.6 Q14.2 4.7 15.1 5.2 16.0 5.65 17.15 6.85 L18.8 8.5 19.85 9.55 19.9 10.55 Q20.0 12.75 18.65 14.6 L17.4 16.1 15.65 17.6 14.4 18.45 13.95 18.7 13.5 18.95 13.4 19.0 13.35 19.0 13.1 19.15 12.95 19.2 11.05 19.7 8.9 20.0 7.7 19.95 6.2 19.8 5.8 19.7 Q3.5 19.15 2.35 17.7 L2.4 17.45 Q2.75 15.4 2.25 13.6 1.75 11.9 2.4 10.55 L2.4 10.45 Q2.85 9.45 3.55 8.7 L5.4 6.95 6.8 6.0 8.35 5.3 10.5 4.75 13.0 4.6 M17.7 9.75 L17.7 9.7 17.15 8.65 15.55 7.7 Q14.4 7.1 12.3 7.1 10.15 7.1 7.75 8.65 5.35 10.2 4.6 11.75 3.95 13.05 3.8 13.95 L3.75 14.3 3.7 15.55 Q4.55 16.3 5.95 16.65 L6.75 16.8 9.1 16.75 10.0 16.65 10.15 16.6 11.65 16.15 11.75 16.1 11.85 16.05 11.85 16.0 11.9 16.0 12.0 15.95 12.4 15.85 13.5 15.25 14.1 14.85 Q16.0 13.75 16.9 12.4 17.7 11.15 17.7 9.8 L17.75 9.85 17.7 9.75 M14.45 17.95 L14.7 17.8 17.45 15.55 Q18.3 14.45 17.65 11.8 L15.25 14.7 13.5 15.8 14.45 17.95 M6.1 17.15 L6.15 17.3 Q6.65 18.6 7.65 19.6 L10.85 19.4 12.95 18.75 13.0 18.75 12.2 16.45 12.1 16.45 12.05 16.5 12.0 16.5 11.9 16.55 8.9 17.3 6.1 17.15" fill="#000000" fill-opacity="0.4" fill-rule="evenodd" stroke="none"/>
      <path d="M14.4 5.6 L14.55 5.65 15.25 5.95 16.4 6.7 16.75 7.1 16.65 7.1 16.0 9.65 15.3 12.65 13.0 11.5 13.7 8.7 14.4 5.6 M10.35 5.3 L11.85 5.15 10.4 10.45 7.7 9.15 8.1 8.15 9.1 5.5 10.35 5.3 M12.85 5.2 L14.05 5.45 12.8 10.05 12.35 11.25 11.1 10.75 11.7 8.6 12.65 5.25 Q12.5 5.15 12.85 5.2" fill="#ffffff" fill-opacity="0.9254902" fill-rule="evenodd" stroke="none"/>
      <path d="M17.45 9.4 L17.9 9.5 18.6 10.0 19.7 11.1 Q20.45 11.8 20.3 12.05 L20.3 12.1 20.2 12.1 18.35 10.45 17.45 9.4 M3.95 15.25 L4.25 16.85 4.35 19.7 4.25 19.75 Q3.9 19.55 3.75 18.35 L3.7 16.35 3.75 15.7 3.95 15.25 M14.25 19.2 L14.1 19.2 13.5 18.3 Q12.5 16.75 12.5 15.25 13.4 16.4 13.85 17.9 L14.25 19.2" fill="#ffffff" fill-opacity="0.9882353" fill-rule="evenodd" stroke="none"/>
      <path d="M17.45 9.4 L18.35 10.45 20.2 12.1 20.3 12.1 20.05 12.35 19.5 11.9 18.6 11.0 17.65 10.25 Q17.05 9.75 17.2 9.5 17.3 9.4 17.45 9.4 M4.25 19.75 L4.35 19.7 4.25 16.85 3.95 15.25 4.15 15.2 Q4.45 15.2 4.5 16.1 L4.5 17.4 4.65 18.95 4.7 19.7 4.25 19.75 M14.1 19.2 L13.95 19.2 13.5 18.65 13.4 18.5 13.15 17.95 13.1 17.85 13.0 17.55 12.8 17.25 12.2 15.7 Q12.1 15.25 12.3 15.15 L12.4 15.15 12.5 15.15 12.6 15.2 12.65 15.2 13.55 16.75 14.45 18.9 14.35 19.15 14.25 19.2 13.85 17.9 Q13.4 16.4 12.5 15.25 12.5 16.75 13.5 18.3 L14.1 19.2" fill="#fae190" fill-opacity="0.9882353" fill-rule="evenodd" stroke="none"/>
      <path d="M43.5 9.45 L43.25 10.35 42.9 9.75 43.2 9.35 43.5 9.45 M38.2 5.6 L37.45 5.25 38.05 4.9 38.05 5.0 38.2 5.6 M30.7 3.85 L30.8 3.95 30.85 3.9 30.85 4.25 30.7 4.45 29.95 4.65 30.7 3.85" fill="#fae191" fill-rule="evenodd" stroke="none"/>
      <path d="M43.5 9.45 Q43.7 9.65 43.7 10.55 L43.65 11.3 43.25 10.35 43.5 9.45 M37.45 5.25 L37.3 5.2 Q37.45 4.9 37.8 4.8 38.35 4.7 38.35 5.3 L38.3 5.55 38.25 5.65 38.2 5.6 38.05 5.0 38.05 4.9 37.45 5.25 M30.7 3.85 L29.95 4.65 29.7 4.7 28.5 5.75 29.5 4.6 30.05 4.1 Q30.5 3.7 30.65 3.8 L30.7 3.85" fill="#fefdfc" fill-rule="evenodd" stroke="none"/>
      <path d="M41.25 15.25 L41.05 15.2 Q40.75 15.2 40.7 16.1 L40.2 16.35 39.25 16.65 38.45 16.8 36.1 16.75 35.6 16.7 35.55 16.7 35.2 16.65 35.15 16.65 35.05 16.6 33.45 16.1 33.35 16.05 33.3 16.0 33.2 15.95 32.9 15.9 33.0 15.7 32.9 15.15 32.8 15.15 32.7 15.15 32.6 15.2 32.55 15.2 32.25 15.55 32.15 15.5 31.25 14.95 31.1 14.85 28.8 13.05 28.3 12.4 27.8 11.35 27.55 10.25 Q28.15 9.75 28.0 9.5 L27.75 9.4 27.55 9.4 Q27.8 6.65 30.35 5.75 L30.45 5.7 30.65 5.65 30.8 5.6 31.15 5.5 31.15 5.45 32.35 5.2 32.6 5.2 33.35 5.15 33.9 5.15 35.35 5.4 35.65 5.45 36.2 5.55 36.8 5.75 37.3 5.95 38.9 6.75 39.85 7.35 41.15 8.55 Q43.3 10.8 42.65 13.55 42.35 14.75 41.5 15.55 L41.4 15.6 41.25 15.25" fill="#ffffff" fill-opacity="0.29803923" fill-rule="evenodd" stroke="none"/>
      <path d="M40.7 16.1 Q40.75 15.2 41.05 15.2 L41.25 15.25 41.05 15.9 40.95 16.85 40.85 19.2 40.85 19.7 40.95 19.75 40.5 19.7 Q40.4 19.65 40.45 19.4 L40.55 18.95 40.7 17.4 40.7 16.1 M27.75 9.4 L28.0 9.5 Q28.15 9.75 27.55 10.25 L27.5 10.3 26.6 11.0 25.7 11.9 25.45 12.2 25.15 12.35 24.9 12.1 25.0 12.1 25.35 11.8 25.45 11.75 26.85 10.45 27.5 9.85 27.55 9.8 27.75 9.4 M32.25 15.55 L32.55 15.2 32.6 15.2 32.7 15.15 32.8 15.15 32.9 15.15 33.0 15.7 32.9 15.9 32.4 17.25 32.2 17.55 32.1 17.85 32.05 17.95 31.8 18.5 31.7 18.65 31.55 18.85 31.25 19.2 31.1 19.2 31.4 18.8 31.7 18.3 Q32.5 17.0 32.65 15.8 L32.7 15.25 32.4 15.65 Q31.75 16.65 31.35 17.9 L31.05 18.6 30.95 19.2 30.85 19.15 30.75 18.9 30.9 18.5 31.65 16.75 32.25 15.55" fill="#fae190" fill-opacity="0.9882353" fill-rule="evenodd" stroke="none"/>
      <path d="M41.25 15.25 L41.4 15.6 41.4 15.65 41.45 15.7 41.5 16.35 41.45 18.35 41.35 18.95 40.95 19.75 40.85 19.7 40.85 19.2 40.95 16.85 41.05 15.9 41.25 15.25 M27.55 9.4 L27.75 9.4 27.55 9.8 27.5 9.85 26.85 10.45 25.45 11.75 25.35 11.8 25.0 12.1 24.9 12.1 24.9 12.05 Q24.75 11.85 25.3 11.3 L25.45 11.15 25.5 11.1 26.6 10.0 27.3 9.5 27.55 9.4 M30.95 19.2 L31.05 18.6 31.35 17.9 Q31.75 16.65 32.4 15.65 L32.7 15.25 32.65 15.8 Q32.5 17.0 31.7 18.3 L31.4 18.8 31.1 19.2 30.95 19.2" fill="#ffffff" fill-opacity="0.9882353" fill-rule="evenodd" stroke="none"/>
      <path d="M42.9 10.95 Q43.55 12.3 43.05 14.0 L42.8 15.55 41.6 15.9 41.55 14.7 41.5 14.35 40.7 12.15 Q39.95 10.6 37.55 9.05 35.15 7.5 33.0 7.5 30.9 7.5 29.75 8.1 L28.15 9.05 27.85 9.6 27.05 8.35 28.15 7.25 Q29.3 6.05 30.2 5.6 31.1 5.1 32.3 5.0 L34.8 5.15 36.95 5.7 38.5 6.4 39.9 7.35 41.75 9.1 42.9 10.85 42.9 10.95" fill="#b16d08" fill-opacity="0.9882353" fill-rule="evenodd" stroke="none"/>
      <path d="M41.6 10.6 L40.9 13.6 38.6 12.45 39.3 9.65 39.65 8.2 39.85 7.3 40.35 7.75 41.55 9.05 41.9 9.45 41.6 10.6 M39.5 7.05 L39.2 8.15 38.4 11.0 37.95 12.2 36.7 11.7 37.3 9.55 37.7 8.05 38.25 6.3 38.75 6.55 39.5 7.05 M35.75 5.4 L37.5 6.05 36.0 11.4 33.3 10.1 33.55 9.5 33.7 9.1 34.6 6.55 34.6 6.5 35.0 5.25 35.75 5.4" fill="#ffffff" fill-opacity="0.9137255" fill-rule="evenodd" stroke="none"/>
      <path d="M42.85 17.7 L42.8 17.45 Q42.45 15.4 42.95 13.6 L43.15 11.85 43.1 11.45 43.0 11.2 42.8 10.55 42.8 10.45 41.65 8.7 39.8 6.95 38.4 6.0 37.7 5.65 37.25 5.45 36.85 5.3 34.7 4.75 32.2 4.6 Q31.0 4.7 30.1 5.2 29.2 5.65 28.05 6.85 L26.4 8.5 25.45 9.45 25.35 9.55 25.4 9.15 25.45 9.1 27.1 7.2 27.9 6.35 28.5 5.75 29.7 4.7 29.95 4.65 30.7 4.45 Q32.8 4.05 35.0 4.45 L37.0 5.0 36.9 5.0 37.3 5.2 37.45 5.25 38.2 5.6 38.25 5.65 38.95 6.0 40.15 6.85 41.85 8.35 42.9 9.75 43.25 10.35 43.65 11.3 43.75 11.5 43.65 13.3 43.4 16.85 42.85 17.7 M30.75 17.95 L30.5 17.8 27.75 15.55 Q26.9 14.45 27.55 11.8 29.0 13.95 29.95 14.7 L31.7 15.8 30.75 17.95 M39.1 17.15 L39.05 17.3 Q38.55 18.6 37.55 19.6 L34.35 19.4 32.25 18.75 32.2 18.75 33.0 16.45 33.1 16.45 33.15 16.5 33.2 16.5 33.3 16.55 36.3 17.3 39.1 17.15" fill="#d4a052" fill-opacity="0.9882353" fill-rule="evenodd" stroke="none"/>
      <path d="M25.35 9.55 L25.45 9.45 26.4 8.5 28.05 6.85 Q29.2 5.65 30.1 5.2 31.0 4.7 32.2 4.6 L34.7 4.75 36.85 5.3 37.25 5.45 37.7 5.65 38.4 6.0 39.8 6.95 41.65 8.7 42.8 10.45 42.8 10.55 43.0 11.2 43.1 11.45 43.15 11.85 42.95 13.6 Q42.45 15.4 42.8 17.45 L42.85 17.7 Q42.25 18.45 41.35 18.95 L41.45 18.35 41.5 16.35 41.45 15.7 41.4 15.65 41.5 15.55 Q42.35 14.75 42.65 13.55 43.3 10.8 41.15 8.55 L39.85 7.35 38.9 6.75 37.3 5.95 36.8 5.75 36.2 5.55 35.65 5.45 35.35 5.4 33.9 5.15 33.35 5.15 32.6 5.2 32.35 5.2 31.15 5.45 31.15 5.5 30.8 5.6 30.65 5.65 30.45 5.7 30.35 5.75 Q27.8 6.65 27.55 9.4 L27.3 9.5 26.6 10.0 25.5 11.1 25.45 11.15 25.3 11.3 25.3 10.55 25.35 9.55 M25.45 12.2 L25.7 11.9 26.6 11.0 27.5 10.3 27.8 11.35 28.3 12.4 28.8 13.05 31.1 14.85 31.25 14.95 31.7 15.25 32.15 15.5 32.25 15.55 31.65 16.75 30.9 18.5 30.8 18.45 29.55 17.6 27.8 16.1 26.25 14.3 Q25.3 13.2 25.45 12.2 M40.7 16.1 L40.7 17.4 40.55 18.95 40.45 19.4 39.4 19.7 39.0 19.8 37.5 19.95 36.3 20.0 34.15 19.7 32.25 19.2 32.1 19.15 31.85 19.0 31.8 19.0 31.7 18.95 31.55 18.85 31.7 18.65 31.8 18.5 32.05 17.95 32.1 17.85 32.2 17.55 32.4 17.25 32.9 15.9 33.2 15.95 33.3 16.0 33.35 16.05 33.45 16.1 33.55 16.15 35.05 16.6 35.15 16.65 35.2 16.65 35.55 16.7 35.6 16.7 36.1 16.75 38.45 16.8 39.25 16.65 40.2 16.35 40.7 16.1 M39.1 17.15 L36.3 17.3 33.3 16.55 33.2 16.5 33.15 16.5 33.1 16.45 33.0 16.45 32.2 18.75 32.25 18.75 34.35 19.4 37.55 19.6 Q38.55 18.6 39.05 17.3 L39.1 17.15 M30.75 17.95 L31.7 15.8 29.95 14.7 Q29.0 13.95 27.55 11.8 26.9 14.45 27.75 15.55 L30.5 17.8 30.75 17.95" fill="#d4a154" fill-opacity="0.9882353" fill-rule="evenodd" stroke="none"/>
      <path d="M43.15 11.85 L42.95 13.6 Q42.45 15.4 42.8 17.45 L42.85 17.7 Q42.25 18.45 41.35 18.95 L41.45 18.35 41.5 16.35 41.45 15.7 41.4 15.65 41.5 15.55 Q42.35 14.75 42.65 13.55 43.3 10.8 41.15 8.55 L39.85 7.35 38.9 6.75 37.3 5.95 36.8 5.75 36.2 5.55 35.65 5.45 35.35 5.4 33.9 5.15 33.35 5.15 32.6 5.2 32.35 5.2 31.15 5.45 31.15 5.5 30.8 5.6 30.65 5.65 30.45 5.7 30.35 5.75 Q27.8 6.65 27.55 9.4 L27.3 9.5 26.6 10.0 25.5 11.1 25.45 11.15 25.3 11.3 25.3 10.55 25.35 9.55 25.45 9.45 26.4 8.5 28.05 6.85 Q29.2 5.65 30.1 5.2 31.0 4.7 32.2 4.6 L34.7 4.75 36.85 5.3 37.25 5.45 37.7 5.65 38.4 6.0 39.8 6.95 41.65 8.7 42.8 10.45 42.8 10.55 43.0 11.2 43.1 11.45 43.15 11.85 M25.45 12.2 L25.7 11.9 26.6 11.0 27.5 10.3 27.8 11.35 28.3 12.4 28.8 13.05 31.1 14.85 31.25 14.95 31.7 15.25 32.15 15.5 32.25 15.55 31.65 16.75 30.9 18.5 30.8 18.45 29.55 17.6 27.8 16.1 26.55 14.6 Q25.7 13.45 25.45 12.2 M40.7 16.1 L40.7 17.4 40.55 18.95 40.45 19.4 39.4 19.7 39.0 19.8 37.5 19.95 36.3 20.0 34.15 19.7 32.25 19.2 32.1 19.15 31.85 19.0 31.8 19.0 31.7 18.95 31.55 18.85 31.7 18.65 31.8 18.5 32.05 17.95 32.1 17.85 32.2 17.55 32.4 17.25 32.9 15.9 33.2 15.95 33.3 16.0 33.35 16.05 33.45 16.1 33.55 16.15 35.05 16.6 35.15 16.65 35.2 16.65 35.55 16.7 35.6 16.7 36.1 16.75 38.45 16.8 39.25 16.65 40.2 16.35 40.7 16.1 M39.1 17.15 L36.3 17.3 33.3 16.55 33.2 16.5 33.15 16.5 33.1 16.45 33.0 16.45 32.2 18.75 32.25 18.75 34.35 19.4 37.55 19.6 Q38.55 18.6 39.05 17.3 L39.1 17.15 M30.75 17.95 L31.7 15.8 29.95 14.7 Q29.0 13.95 27.55 11.8 26.9 14.45 27.75 15.55 L30.5 17.8 30.75 17.95" fill="#000000" fill-opacity="0.4" fill-rule="evenodd" stroke="none"/>
    </g>
  </defs>
</svg>
