<svg xmlns="http://www.w3.org/2000/svg" xmlns:ffdec="https://www.free-decompiler.com/flash" xmlns:xlink="http://www.w3.org/1999/xlink" ffdec:objectType="frame" width="168.9" height="166.8"><g transform="translate(58.3 61.2)"><use ffdec:characterId="1" xlink:href="#a" width="70.4" height="61.6" transform="translate(-11.95 -16.1)"/><clipPath id="b"><path fill="#d97000" fill-rule="evenodd" d="M17.15-14.6q4.35-1.65 6.1-1.5 1.75-.15 6.1 1.5 1.85.75 11.35 6.9l9.85 6.75q3.4 4.45 4.35 15.9.75 9.75-.45 14.7-.2.85.45 2.35l1.25 2.75 1.4 2.3q1.15 1.8.85 2-.75-.45-2.7 1.5l-2.85 2.85q-.75.75-2.55 1.4l-1.5.6 3-5.1-3.7.25 3.7-2.45-2.85-2.3 3.25-3.25-2.35-2.05 2.5-3.05-2.5-1.7 1.6-3.55-3.55-1.15.95-3.6-3.5-.15.1-4.15-3.1.3V9.8l-3.15.65-.6-3.3-3.25.55L34.8 4l-3.35.8-.85-3.6-3.4 1.25-.6-3.5L23.3.9 19.9-.95l-.6 3.5-3.4-1.25-.85 3.6-3.35-.8-.55 3.7-3.25-.55-.6 3.3-3.15-.65v3.65l-3.1-.3.1 4.15-3.5.15.95 3.6-3.55 1.15 1.6 3.55-2.5 1.7 2.5 3.05-2.35 2.05 3.25 3.25-2.85 2.3 3.7 2.45-3.7-.25 3.3 4.95-.05.15q-3.3-1-4.3-2.1l-2.85-2.85q-1.95-1.95-2.7-1.5-.3-.2.85-2l1.4-2.3L-8.4 32q.65-1.5.45-2.35-1.2-4.95-.45-14.7.95-11.45 4.35-15.9L5.8-7.7q9.5-6.15 11.35-6.9"/></clipPath><g clip-path="url(#b)"><use ffdec:characterId="3" xlink:href="#c" width="165.9" height="165.9" transform="translate(-55.3 -60.3)"/></g><clipPath id="d"><path fill="#d97000" fill-rule="evenodd" d="M17.15-14.6q4.35-1.65 6.1-1.5 1.75-.15 6.1 1.5 1.85.75 11.35 6.9l9.85 6.75q3.4 4.45 4.35 15.9.75 9.75-.45 14.7-.2.85.45 2.35l1.25 2.75 1.4 2.3q1.15 1.8.85 2-.75-.45-2.7 1.5l-2.85 2.85q-.75.75-2.55 1.4l-1.5.6 3-5.1-3.7.25 3.7-2.45-2.85-2.3 3.25-3.25-2.35-2.05 2.5-3.05-2.5-1.7 1.6-3.55-3.55-1.15.95-3.6-3.5-.15.1-4.15-3.1.3V9.8l-3.15.65-.6-3.3-3.25.55L34.8 4l-3.35.8-.85-3.6-3.4 1.25-.6-3.5L23.3.9 19.9-.95l-.6 3.5-3.4-1.25-.85 3.6-3.35-.8-.55 3.7-3.25-.55-.6 3.3-3.15-.65v3.65l-3.1-.3.1 4.15-3.5.15.95 3.6-3.55 1.15 1.6 3.55-2.5 1.7 2.5 3.05-2.35 2.05 3.25 3.25-2.85 2.3 3.7 2.45-3.7-.25 3.3 4.95-.05.15q-3.3-1-4.3-2.1l-2.85-2.85q-1.95-1.95-2.7-1.5-.3-.2.85-2l1.4-2.3L-8.4 32q.65-1.5.45-2.35-1.2-4.95-.45-14.7.95-11.45 4.35-15.9L5.8-7.7q9.5-6.15 11.35-6.9"/></clipPath><g clip-path="url(#d)"><use ffdec:characterId="4" xlink:href="#e" width="165.9" height="165.9" transform="translate(-58.3 -61.2)"/></g><use ffdec:characterId="5" xlink:href="#f" width="79.3" height="67.2" transform="translate(-16.4 -9.85)"/></g><defs><linearGradient id="g" x1="-819.2" x2="819.2" gradientTransform="matrix(0 .0376 -.043 0 23.25 14.7)" gradientUnits="userSpaceOnUse" spreadMethod="pad"><stop offset=".012" stop-color="#e70369"/><stop offset=".141" stop-color="#c60649"/><stop offset=".8" stop-color="#900"/><stop offset="1" stop-color="#560c0c"/></linearGradient><linearGradient id="h" x1="-819.2" x2="819.2" gradientTransform="matrix(0 .0062 -.0099 0 1.15 -2.45)" gradientUnits="userSpaceOnUse" spreadMethod="pad"><stop offset="0" stop-color="#666"/><stop offset=".455" stop-color="#1d1d1d"/><stop offset="1"/></linearGradient><linearGradient id="i" x1="-819.2" x2="819.2" gradientTransform="matrix(0 .0089 -.0054 0 -10.95 -.7)" gradientUnits="userSpaceOnUse" spreadMethod="pad"><stop offset="0" stop-color="#666"/><stop offset=".455" stop-color="#1d1d1d"/><stop offset="1"/></linearGradient><linearGradient id="j" x1="-819.2" x2="819.2" gradientTransform="matrix(0 .0075 -.0064 0 -2.45 -1.65)" gradientUnits="userSpaceOnUse" spreadMethod="pad"><stop offset="0" stop-color="#666"/><stop offset=".455" stop-color="#1d1d1d"/><stop offset="1"/></linearGradient><linearGradient id="k" x1="-819.2" x2="819.2" gradientTransform="matrix(0 .0089 .0054 0 57.6 -.7)" gradientUnits="userSpaceOnUse" spreadMethod="pad"><stop offset="0" stop-color="#666"/><stop offset=".455" stop-color="#1d1d1d"/><stop offset="1"/></linearGradient><linearGradient id="l" x1="-819.2" x2="819.2" gradientTransform="matrix(0 .0062 .0099 0 45.5 -2.45)" gradientUnits="userSpaceOnUse" spreadMethod="pad"><stop offset="0" stop-color="#666"/><stop offset=".455" stop-color="#1d1d1d"/><stop offset="1"/></linearGradient><linearGradient id="m" x1="-819.2" x2="819.2" gradientTransform="matrix(0 .0075 .0064 0 49.1 -1.65)" gradientUnits="userSpaceOnUse" spreadMethod="pad"><stop offset="0" stop-color="#666"/><stop offset=".455" stop-color="#1d1d1d"/><stop offset="1"/></linearGradient><path id="a" fill="url(#g)" fill-rule="evenodd" d="M17.15-14.6q4.35-1.65 6.1-1.5 1.75-.15 6.1 1.5 1.85.75 11.35 6.9l9.85 6.75q3.4 4.45 4.35 15.9.75 9.75-.45 14.7-.2.85.45 2.35l1.25 2.75 1.4 2.3q1.15 1.8.85 2-.75-.45-2.7 1.5l-2.85 2.85q-.75.75-2.55 1.4l-1.5.6 3-5.1-3.7.25 3.7-2.45-2.85-2.3 3.25-3.25-2.35-2.05 2.5-3.05-2.5-1.7 1.6-3.55-3.55-1.15.95-3.6-3.5-.15.1-4.15-3.1.3V9.8l-3.15.65-.6-3.3-3.25.55L34.8 4l-3.35.8-.85-3.6-3.4 1.25-.6-3.5L23.3.9 19.9-.95l-.6 3.5-3.4-1.25-.85 3.6-3.35-.8-.55 3.7-3.25-.55-.6 3.3-3.15-.65v3.65l-3.1-.3.1 4.15-3.5.15.95 3.6-3.55 1.15 1.6 3.55-2.5 1.7 2.5 3.05-2.35 2.05 3.25 3.25-2.85 2.3 3.7 2.45-3.7-.25 3.3 4.95-.05.15q-3.3-1-4.3-2.1l-2.85-2.85q-1.95-1.95-2.7-1.5-.3-.2.85-2l1.4-2.3L-8.4 32q.65-1.5.45-2.35-1.2-4.95-.45-14.7.5-6.05 1.7-10.15l.25.1.45-.25.15-.4-.4-.8q.9-2.7 2.2-4.4L5.8-7.7q9.5-6.15 11.35-6.9" transform="translate(11.95 16.1)"/><path id="c" fill="#300" fill-opacity=".298" fill-rule="evenodd" d="m36.9-60.3 73.7 73.7-3.4 3.4-73.7-73.7zm-4.25 4.25 73.7 73.7-1.15 1.15-73.7-73.7zm-7.8 7.8 73.7 73.7-1.1 1.1-73.7-73.7zm-7.9 7.9 73.7 73.7-1.15 1.15-73.7-73.7zm-3.7 3.7 73.7 73.7-3.4 3.4-73.7-73.7zM5.5-28.9l73.7 73.7-3.4 3.4L2.1-25.5zM9-32.4l73.7 73.7-1.1 1.1L7.9-31.3zm-7.75 7.75 73.7 73.7-1.15 1.15L.1-23.5zM21.2-44.6l73.7 73.7-3.4 3.4-73.7-73.7zm7.9-7.9 73.7 73.7-3.4 3.4-73.7-73.7zm6.95 140.45-73.7-73.7 3.4-3.4 73.7 73.7zm-2 2-73.7-73.7 1.15-1.15 73.7 73.7zM28.3 95.7-45.4 22l3.35-3.35 73.7 73.7zm-2 2L-47.4 24l1.15-1.15 73.7 73.7zm33.35-33.35-73.7-73.7 3.4-3.4 73.7 73.7zm8.2-8.2-73.7-73.7 3.4-3.4 73.7 73.7zM65.9 58.1-7.8-15.6l1.15-1.1L67.05 57zm-8.2 8.2L-16-7.4l1.1-1.1 73.7 73.7zm-5.8 5.8L-21.8-1.6l3.4-3.4 73.7 73.7zm-7.95 7.95-73.7-73.7 3.4-3.4 73.7 73.7zM42 82-31.7 8.3l1.15-1.1 73.7 73.7zm7.9-7.9L-23.8.4l1.15-1.15 73.7 73.7zm-29.55 29.55-73.7-73.7 3.4-3.4 73.7 73.7zm-1.95 1.95-73.7-73.7 1.1-1.1 73.7 73.7z" transform="translate(55.3 60.3)"/><path id="e" fill="#300" fill-opacity=".298" fill-rule="evenodd" d="m26.6-50-73.7 73.7-3.4-3.4 73.7-73.7zm-5.8-5.8-73.7 73.7-1.15-1.15 73.7-73.7zm-2-2-73.7 73.7-3.4-3.4 73.7-73.7zm15.7 15.7-73.7 73.7-3.4-3.4 73.7-73.7zm-5.95-5.95-73.7 73.7-1.1-1.1 73.7-73.7zm7.95 7.95-73.7 73.7-1.15-1.15 73.7-73.7zm13.7 13.7-73.7 73.7-3.4-3.4 73.7-73.7zm-5.8-5.8-73.7 73.7-1.1-1.1 73.7-73.7zm13.75 13.75-73.7 73.7-3.4-3.4 73.7-73.7zm1.95 1.95-73.7 73.7-1.1-1.15L59-17.65zm14 14L.4 71.2-3 67.8 70.7-5.9zm-7.75-7.75-73.7 73.7-3.4-3.4 73.7-73.7zM68.3-8.3-5.4 65.4l-1.1-1.1L67.2-9.4zm7.8 7.8L2.4 73.2l-1.15-1.15 73.7-73.7zM52.2-24.4l-73.7 73.7-1.15-1.15 73.7-73.7zm-9.75-9.75-73.7 73.7-3.4-3.4 73.7-73.7zM84 7.4 10.3 81.1l-1.1-1.15 73.7-73.7zm13.7 13.7L24 94.8l-3.35-3.35 73.7-73.7zm2 2L26 96.8l-1.15-1.15 73.7-73.7zm-9.75-9.75-73.7 73.7-3.4-3.4 73.7-73.7zm2 2-73.7 73.7-1.15-1.15 73.7-73.7zM107.6 31l-73.7 73.7-1.1-1.1 73.7-73.7zm-1.95-1.95-73.7 73.7-3.4-3.4 73.7-73.7zM4.95 75.75l73.7-73.7 3.4 3.4-73.7 73.7z" transform="translate(58.3 61.2)"/><g id="f" fill-rule="evenodd"><path fill="#fff" d="m62.25 28.05 1.35 2.1.7-2.05zm-3.35-3.8 2 2.2.2-2.45zM14.4 55.2l-3.3-4.95 3.7.25-3.7-2.45 2.85-2.3-3.25-3.25 2.35-2.05-2.5-3.05 2.5-1.7-1.6-3.55L15 31l-.95-3.6 3.5-.15-.1-4.15 3.1.3v-3.65l3.15.65.6-3.3 3.25.55.55-3.7 3.35.8.85-3.6 3.4 1.25.6-3.5 3.4 1.85L43 8.8l.6 3.5 3.4-1.25.85 3.6 3.35-.8.55 3.7L55 17l.6 3.3 3.15-.65v3.65l3.1-.3-.1 4.15 3.5.15-.95 3.6 3.55 1.15-1.6 3.55 2.5 1.7-2.5 3.05 2.35 2.05-3.25 3.25 2.85 2.3-3.7 2.45 3.7-.25-3 5.1-.35.1Q63.3 53.5 62.9 50.6q1.55-5.2 1.85-7.55.95-6.9-.15-9.2-1-2.1-4.2-6.45-2.65-3.85-6.55-6.9l-7.75-5.15q-5.05-3.15-6.5-3.85l-6.45 3.85q-5.6 3.5-7.75 5.15-3.9 3.05-6.55 6.9-3.2 4.35-4.2 6.45-1.2 2.3-.15 9.2.3 2.35 1.85 7.55l-.4 1.75q-.45 1.4-1.55 2.85m50.25-23.25 1.1 2.75.9-2.15zM58 20.6l-2.05.4 1.95 1.85zm7.9 18.75 1.65-1.9-1.5-.9zm-1.15 9.8 2.1-1.25-1.5-1.15zm.95-7.9-.3 2.95 1.9-1.65zM48.45 15.4 50.8 17l-.25-2.15zm6.2 4.5-.25-2-2 .35zm-10.2-7.1 2.35 1.5-.35-2.05zm-2.15-2.55-1.65.85 2.05 1.05zm-5.25-.05-.4 2.15 2.25-1.15zM33 12.4l-.45 2.15q.85-.65 2.55-1.3zm-4.2 2.55-.35 2.25q1-.9 2.6-1.6zm-7.5 5.7-.1 2.4q.75-1.05 2.3-1.9zm3.3-.45q.95-.9 2.7-1.8l-2.35-.4zm-6.3 6.3q.6-1 2.1-2.2l-2.15-.25zM15 32.05l-2.25.65.9 2.2q.2-1.35 1.35-2.85m.7-1.6q.6-1.15 1.8-2.3l-2.35.1zm-2.25 9q-.2-2.55 0-2.95l-1.6 1.1zm-1.4 3.15L14 44.55l-.45-3.35zm3.2 7.1-.85-3.1-1.7 1.4z"/><path fill="#1e1e1e" d="m58.9 24.25 2.2-.25-.2 2.45zm3.35 3.8 2.05.05-.7 2.05zm1.4 28q-.35 1.1-2.55 1.35-2.45-3.1-2.3-6.8l.05-.05 1.55-6.6q.8-6-.15-8-.85-1.9-3.45-5.65-2.3-3.45-5.4-6L45 19.8l-5.35-3.35-5.35 3.35q-4.6 3.05-6.4 4.5-3.1 2.55-5.4 6-2.6 3.75-3.45 5.65-.95 2-.15 8 .25 2.05 1.55 6.6l.05.05q-.35 3.6-2.3 6.8-1.25.15-2.65-1.4l.05-.05q1.75-2.6 2.2-5.4-2.55-6.9-2-15.25Q21.05 23 39.4 13.7q18.45 8.9 24 21.6.3 8.15-1.9 15.05.15 3.05 2.15 5.7m2.25-16.7.15-2.8 1.5.9zM58 20.6l-.1 2.25L55.95 21zm6.65 11.35 2 .6-.9 2.15zm1.05 9.3 1.6 1.3-1.9 1.65zm-.95 7.9.6-2.4 1.5 1.15zM18.3 26.5l-.05-2.45 2.15.25q-1.5 1.2-2.1 2.2m6.3-6.3.35-2.2 2.35.4q-1.75.9-2.7 1.8m-3.3.45 2.2.5q-1.55.85-2.3 1.9zm7.5-5.7 2.25.65q-1.6.7-2.6 1.6zM33 12.4l2.1.85q-1.7.65-2.55 1.3zm4.05-2.2 1.85 1-2.25 1.15zm5.25.05.4 1.9-2.05-1.05zm2.15 2.55 2-.55.35 2.05zm10.2 7.1-2.25-1.65 2-.35zm-6.2-4.5 2.1-.55.25 2.15zM15 32.05q-1.15 1.5-1.35 2.85l-.9-2.2zm.25 17.65L12.7 48l1.7-1.4zm-3.2-7.1 1.5-1.4.45 3.35zm1.4-3.15-1.6-1.85 1.6-1.1q-.2.4 0 2.95m2.25-9-.55-2.2 2.35-.1q-1.2 1.15-1.8 2.3"/><path fill="#c01616" d="M14.4 55.2q1.1-1.45 1.55-2.85l.4-1.75q-1.55-5.2-1.85-7.55-1.05-6.9.15-9.2 1-2.1 4.2-6.45 2.65-3.85 6.55-6.9 2.15-1.65 7.75-5.15l6.45-3.85q1.45.7 6.5 3.85l7.75 5.15q3.9 3.05 6.55 6.9 3.2 4.35 4.2 6.45 1.1 2.3.15 9.2-.3 2.35-1.85 7.55.4 2.9 1.95 4.75l-.25.1q-.55-.05-.95.6-2-2.65-2.15-5.7 2.2-6.9 1.9-15.05-5.55-12.7-24-21.6Q21.05 23 15.8 35.3q-.55 8.35 2 15.25-.45 2.8-2.2 5.4.1-.25-.9-.5l-.35-.1z"/><path fill="#840000" d="M60.85 29.45q2.85 4.25 3.5 5.85.25.55-.45 7.3l-1.55 8 .35 1.9q.55 2.1 1.5 3.05l-.55.5q-2-2.65-2.15-5.7 2.2-6.9 1.9-15.05-5.55-12.7-24-21.6Q21.05 23 15.8 35.3q-.55 8.35 2 15.25-.45 2.8-2.2 5.4l-.45-.35.55-.75.75-1.45q.65-1.7.65-2.6L15.8 46q-1.25-5.5-1.05-9.75l1.7-3.65q2.6-4.25 4.4-6.25 1.75-2 4.15-4.05 2.4-2.1 7.1-5.15 4.65-3.05 7.55-4.4.8.25 4.3 2.25 4.15 2.45 8.75 5.55 2.25 1.8 5.15 5.2z"/><path d="M60.25 35.95q-.85-1.9-3.45-5.65-2.3-3.45-5.4-6L45 19.8l-5.35-3.35-5.35 3.35q-4.6 3.05-6.4 4.5-3.1 2.55-5.4 6-2.6 3.75-3.45 5.65-.95 2-.15 8 .25 2.05 1.55 6.6l.05.05q-.35 3.6-2.3 6.8l-.8-.05q.85-1.4 1.5-3.65.65-2.15.55-2.95l-1.6-6.7-.3-2.9q-.15-3.5.3-5.8.75-1.6 2.65-4.1l2.75-3.75q.9-1.3 3.75-3.65l5.6-4.25q4.15-2.85 7.15-4.5l4.7 2.9 5.4 3.55 3.65 3.1 4.45 4.9q2.95 4.4 3.55 5.9.6 3.85-.2 9.8l-.7 3.25q-.55 2-.55 2.35 0 .95.55 2.9.7 2.45 1.7 3.45l-1.2.2q-2.45-3.1-2.3-6.8l.05-.05 1.55-6.6q.8-6-.15-8"/><path fill="#666" d="M37.6 15.5q-16.05 9.8-21.1 19.9 4.85-11.85 21.1-19.9"/><path fill="#ccc" d="M65.1 52.7q.1.25.4.25.4 0 .4-.45 0-.4-.4-.45-.45-.05-.45.4zm7.8-4.85-.2.5-.55.25q-.3 0-.5-.25l-.25-.5.25-.55.5-.2.55.2zm-7.75 4.05.5-.2.55.2.2.55-.2.5-.55.25q-.3 0-.5-.25l-.25-.5zM72 47.6q-.4 0-.4.4 0 .45.4.45t.4-.45q0-.4-.4-.4m-3.5 1.9q.2-.2.5-.2l.55.2.2.55-.2.5-.55.25-.5-.25-.25-.5zm.45 1.1q.45 0 .45-.4t-.5-.45-.5.35q0 .5.55.5m-55.4 1.1.55-.2.5.2q.25.25.25.55l-.25.5-.5.25-.55-.25-.2-.5zm-2.3-2.4q.25.25.25.55l-.25.5q-.2.25-.5.25l-.55-.25-.2-.5.2-.55.55-.2zm-2.9-1.65-.25.5-.5.25-.55-.25-.2-.5.2-.55.55-.2.5.2z"/><path fill="#242424" d="M64.55 51.3q.5-.45 1.1-.45.65 0 1.1.45.5.5.5 1.1 0 .65-.5 1.1-.45.5-1.1.5-.6 0-1.1-.5-.45-.45-.45-1.1 0-.6.45-1.1m6.4-4.6q.55-.45 1.1-.45.7 0 1.1.45.55.5.55 1.1 0 .65-.55 1.1-.4.5-1.1.5-.55 0-1.1-.5-.4-.45-.4-1.1 0-.6.4-1.1m-5.8 5.2-.25.55.25.5q.2.25.5.25l.55-.25.2-.5-.2-.55-.55-.2zm7.75-4.05-.2-.55-.55-.2-.5.2-.25.55.25.5q.2.25.5.25l.55-.25zm-2.85 1.1q.5.5.5 1.1 0 .65-.5 1.1-.45.5-1.1.5-.6 0-1.1-.5-.45-.45-.45-1.1 0-.6.45-1.1.5-.45 1.1-.45.65 0 1.1.45m-1.55.55-.25.55.25.5.5.25.55-.25.2-.5-.2-.55-.55-.2q-.3 0-.5.2m-59.7-3q.4.5.4 1.1 0 .65-.4 1.1-.55.5-1.1.5-.7 0-1.1-.5-.55-.45-.55-1.1 0-.6.55-1.1.4-.45 1.1-.45.55 0 1.1.45m3.55 3.35q0 .65-.45 1.1-.5.5-1.1.5-.65 0-1.1-.5-.5-.45-.5-1.1 0-.6.5-1.1.45-.45 1.1-.45.6 0 1.1.45.45.5.45 1.1m1.2 1.85-.2.55.2.5.55.25.5-.25.25-.5q0-.3-.25-.55l-.5-.2zm-.55-.6q.45-.45 1.1-.45.6 0 1.1.45.45.5.45 1.1 0 .65-.45 1.1-.5.5-1.1.5-.65 0-1.1-.5-.5-.45-.5-1.1 0-.6.5-1.1m-4.65-3.45-.25-.55-.5-.2-.55.2-.2.55.2.5.55.25.5-.25zm2.9 1.65-.5-.2-.55.2-.2.55.2.5.55.25q.3 0 .5-.25l.25-.5q0-.3-.25-.55"/><path fill="#797979" d="m65.1 52.7-.05-.25q0-.45.45-.4.4.05.4.45 0 .45-.4.45-.3 0-.4-.25m6.9-5.1q.4 0 .4.4 0 .45-.4.45t-.4-.45q0-.4.4-.4m-3.05 3q-.55 0-.55-.5 0-.4.5-.35t.5.45-.45.4"/><path d="M70.05 0q12.4 8.45 8.2 20.9-1.7-6.3-5.8-7.1-4-.8-4 4.1-3.35-4.85-6.45-5.1-2.95-.2-2.55 3.3-1.3-4.65-5.65-3.4.25-2.95-3.1-3.9Q64.5 10.5 70.05 0M64.7 52.3l.3.45q.2.4.5.45l.6-.05q.3-.15.4 0l.05.45q-.05.25-.8.3-.7.05-1.1-.4l-.4-.75q0-.45.45-.45m11.15 5.85 1.95.1v.05l1.1 2-.05.05-3-2.15zM72.4 48.7q.45-.1.4.3-.05.35-.75.35t-1-.35l-.3-.65q-.05-.3.15-.7.25-.4.3.05l.4.75zm-4.7 1.2q.2-.4.3-.15l.2.6q.1.35.55.5h.75q.3-.15.3.35 0 .45-.75.45t-1.15-.45q-.35-.45-.35-.85zm3.95 11.35 1.9.35.7 2.3zM66.4 63.4l1.8.7.25 2.35zM19.9 16.1q.4-3.5-2.55-3.3-3.1.25-6.45 5.1 0-4.9-4-4.1-4.1.8-5.8 7.1Q-3.15 8.45 9.25 0q5.6 10.5 19.35 8.8-3.3.95-3.1 3.9-4.35-1.25-5.6 3.4m-7.8 33.6.15.45q0 .4-.35.85-.4.45-1.15.45T10 51q0-.5.3-.35h.75q.45-.15.55-.5l.2-.6q.1-.25.3.15m1.6 3.25.6.05.5-.45.3-.45q.45 0 .45.45l-.4.75q-.4.45-1.1.4l-.8-.3.05-.45q.1-.15.4 0m-4.65-4.8-.3.65q-.3.35-1 .35T7 48.8q-.05-.4.4-.3l.8-.25.4-.75q.05-.45.3-.05z"/><path fill="#616161" d="m66 50.9.75.3.15.45-.25.35-.3-.2q-.25-.25-.7-.25l-.65.15-.2-.3q0-.5 1.2-.5m6.65-4.55.4.3.25.35-.2.3-.25-.15-.1-.2q-.65-.3-.9 0l-.25-.2v-.1q0-.3 1.05-.3m-2.55 2.9-.25.2-.55-.35q-.4-.2-.7 0l-.35.2q-.1 0-.05-.25l.35-.4.75-.15.75.45zm-62.95-3.1q1.05 0 1.05.3v.1l-.25.2q-.25-.3-.9 0l-.1.2-.25.15-.2-.3.25-.35zm4.4 2.95-.35-.2q-.3-.2-.7 0l-.55.35-.25-.2.05-.3.75-.45.75.15q.25.1.35.4.05.25-.05.25m2.25 1.6q1.2 0 1.2.5l-.2.3-.65-.15q-.45 0-.7.25l-.3.2-.25-.35.15-.45z"/><path fill="#666" d="m78.55 56.7.35 3.6-1.1-2v-.05zm-4 3.55-.25 3.65h-.05l-.7-2.3zm-5.15 2.7-.95 3.5-.25-2.35z"/><path fill="#797979" d="m14 52.9-.45-.4q0-.45.6-.5.55-.05.55.4 0 .5-.7.5m-3.15-3.35q.55-.05.55.4l-.25.35-.45.15q-.4 0-.4-.45 0-.4.55-.45m-2.8-1.45-.45.2q-.5 0-.5-.4t.6-.5.6.35z"/><path fill="#999" d="M77.8 58.25 73.45 50l5.1 6.6v.1zm-4.25 3.35-2.85-8.8 3.85 7.35v.1zm-5.35 2.5-1-8.85 2.2 7.5v.2z"/><path fill="#333" d="M75.85 58.15h-.05L73.4 50h.05l4.35 8.25zm-4.2 3.1-1-8.45h.05l2.85 8.8zM66.4 63.4l.7-8.7.1.55 1 8.85z"/><path fill="#fc3" d="M6.2 50.75h-.05l.1-.15zM3.75 58.9h.05l-.05.05zM.7 61.05l.05.05H.7zm9.5 2.65-.05-.1.05-.1zM8.95 53.55H8.9l.05-.15z"/><path fill="url(#h)" d="M4.3 2.65Q-3.4-1.75-6.95-7.5.15 1.4 9.25-.4 7.4.4 7.6 1.7q-2.5-.4-3.3.95" transform="translate(16.4 9.85)"/><path fill="url(#i)" d="M-8.4-2.95q.45 3.6 2.45 6.85-1.95-1.75-4.2-1.55-2.3.2-5.25 4.25.25-8.75 7.05-14.45-.55 1.25-.05 4.9" transform="translate(16.4 9.85)"/><path fill="url(#j)" d="M-7.7-7.8Q-5.45-2.05 2.75 2.85-1.2.7-4.1 4.5-8.05-1.7-7.7-7.8" transform="translate(16.4 9.85)"/><path fill="url(#k)" d="M55.15-2.7q.5-3.45-.2-5.3Q62.1-2.15 61.8 7.45q-2.7-4.9-5-5.1-2.25-.2-4.2 1.55 2-3.2 2.55-6.6" transform="translate(16.4 9.85)"/><path fill="url(#l)" d="M37.4-.4q9.1 1.8 16.2-7.1-3.55 5.75-11.25 10.15-.8-1.35-3.3-.95.2-1.3-1.65-2.1" transform="translate(16.4 9.85)"/><path fill="url(#m)" d="M44.05 2.8q8.35-4.75 10.3-10.6.35 6.1-3.6 12.3-2.85-3.75-6.7-1.7" transform="translate(16.4 9.85)"/><path fill="#999" d="M6.15 50.75 1.8 59l-.75-1.55v-.1zM10.2 63.5l2.2-7.5-1 8.85-1.2-1.15zm-1.3-9.95-2.85 8.8-1-1.35v-.1z"/><path fill="#333" d="M6.15 50.75h.05L3.8 58.9h-.05L1.8 59zM12.4 56l.1-.55.7 8.7-1.8.7zm-3.5-2.45h.05l-1 8.45-1.9.35z"/><path d="m1.8 59 1.95-.1v.05l-3 2.15-.05-.05 1.1-2zm11.4 5.15-2.05 3.05.25-2.35zm-7.15-1.8 1.9-.35-2.6 2.65z"/><path fill="#666" d="M1.05 57.45 1.8 59v.05l-1.1 2zm10.1 9.75-.95-3.5 1.2 1.15zM5.05 61l1 1.35-.7 2.3H5.3z"/></g></defs></svg>