<svg xmlns="http://www.w3.org/2000/svg" xmlns:ffdec="https://www.free-decompiler.com/flash" xmlns:xlink="http://www.w3.org/1999/xlink" ffdec:objectType="frame" width="72.65" height="71.95"><use ffdec:characterId="1" xlink:href="#a" width="72.65" height="71.95"/><defs><linearGradient id="b" x1="-819.2" x2="819.2" gradientTransform="matrix(.0036 0 0 -.0036 15.8 31.15)" gradientUnits="userSpaceOnUse" spreadMethod="pad"><stop offset="0" stop-color="#e70000"/><stop offset=".212" stop-color="#b60000"/><stop offset=".478" stop-color="#7f0000"/><stop offset=".71" stop-color="#570000"/><stop offset=".89" stop-color="#3e0000"/><stop offset="1" stop-color="#350000"/></linearGradient><linearGradient id="c" x1="-819.2" x2="819.2" gradientTransform="rotate(-90 18.4 8.25)scale(.0071)" gradientUnits="userSpaceOnUse" spreadMethod="pad"><stop offset="0" stop-color="#ff3c00"/><stop offset=".349" stop-color="#e62100"/><stop offset=".753" stop-color="#cf0900"/><stop offset="1" stop-color="#c60000"/></linearGradient><linearGradient id="d" x1="-819.2" x2="819.2" gradientTransform="matrix(.0003 .007 -.0058 0 9.15 27.2)" gradientUnits="userSpaceOnUse" spreadMethod="pad"><stop offset="0" stop-color="#920000"/><stop offset=".231" stop-color="#a10000" stop-opacity=".694"/><stop offset=".702" stop-color="#b90000" stop-opacity=".141"/><stop offset=".992" stop-color="#c20000" stop-opacity="0"/></linearGradient><linearGradient id="e" x1="-819.2" x2="819.2" gradientTransform="translate(28 31.15)scale(-.0036)" gradientUnits="userSpaceOnUse" spreadMethod="pad"><stop offset="0" stop-color="#e70000"/><stop offset=".212" stop-color="#b60000"/><stop offset=".478" stop-color="#7f0000"/><stop offset=".71" stop-color="#570000"/><stop offset=".89" stop-color="#3e0000"/><stop offset="1" stop-color="#350000"/></linearGradient><linearGradient id="f" x1="-819.2" x2="819.2" gradientTransform="matrix(0 .0071 .0071 0 33.65 26.65)" gradientUnits="userSpaceOnUse" spreadMethod="pad"><stop offset="0" stop-color="#ff3c00"/><stop offset=".349" stop-color="#e62100"/><stop offset=".753" stop-color="#cf0900"/><stop offset="1" stop-color="#c60000"/></linearGradient><linearGradient id="g" x1="-819.2" x2="819.2" gradientTransform="matrix(-.0003 -.007 -.0058 .0005 34.6 27.2)" gradientUnits="userSpaceOnUse" spreadMethod="pad"><stop offset="0" stop-color="#920000"/><stop offset=".231" stop-color="#a10000" stop-opacity=".694"/><stop offset=".702" stop-color="#b90000" stop-opacity=".141"/><stop offset=".992" stop-color="#c20000" stop-opacity="0"/></linearGradient><radialGradient id="h" cx="0" cy="0" r="819.2" gradientTransform="matrix(.0229 0 0 -.0229 22.85 10.65)" gradientUnits="userSpaceOnUse" spreadMethod="pad"><stop offset="0" stop-color="#a41900"/><stop offset=".894" stop-color="#610300"/><stop offset="1" stop-color="#590000"/></radialGradient><g id="a"><path fill="#0c0b0b" fill-rule="evenodd" d="M10.85 30.95h5.4l19.5.85.95 34.25-1.65-1.5q-.55-.75-.8-2.45-.55 1.55.9 3.05l-2.2-1.35q-1.2-.95-1.9-2.4l-1.1 8.2q-1-2.9-2.9-4.35-1.65-1.3-5.35-2.4-3.55-1.1-4.6-2.15-1.2-1.1-.85-3.2-.5.8-.8 1.95-.35 1.45.1 2.2-4.85-3.1-4.4-6.55.3-2.45 2.6-4-1.2-.3-4.35 1.05-3.1 1.35-4.05 2.45.4-1.65 1.35-3.65 1.55-3.15 3.75-4.45-2.05-.3-3.4-1.15-2.45-1.55-3.9-6.5l2.45-.2 4.3-1.95q-1.15-.35-1.95-1.9-1-1.7-1.3-4.3z"/><path fill="#0c0b0b" fill-rule="evenodd" d="M62.8 47.65q2.25 1.3 3.8 4.45 1 1.95 1.35 3.65-.9-1.15-4.05-2.5-3.2-1.35-4.4-1.05 2.35 1.5 2.6 3.95.45 3.5-4.4 6.6.5-.75.15-2.15l-.85-2q.75 4.25-5.4 5.35-3.25.55-5.25 2.2-1.35 1.1-3 3.75l-.6-3.65-.55-3.7q-.65 1.4-1.85 2.35l-2.2 1.35q1.4-1.5.9-3-.25 1.65-.8 2.4l-1.7 1.5.95-34.25 19.5-.8 5.45-.05 4.2-.4q-.3 2.55-1.3 4.3-.85 1.55-1.95 1.85l4.25 2 2.5.15q-1.5 4.95-3.95 6.55z"/><path fill="#0c0b0b" fill-rule="evenodd" d="M54.05 20.3q3.1 3.15 4.7 6.95 1.4 1 5.1 1.55l4.65-.1-3.35 3.2q-2.55 2.05-3.45 1.5.55 1.3 2.95 2.25 2.35.95 3.85.45-.35 1.95-3.3 4.2-2.8 2.1-4.85 2.35 1.35.8 3.55.55 2.1-.25 3.3-1.15l-3.5 3.05q-1.95 1.5-2.5 2.7-.95 2.15-4.6 5.55-4.3 4.1-8.6 5.9-4.45 1.85-8.45 4.75l-3.1 2.45-3.1-2.45q-4-2.9-8.4-4.75-4.35-1.8-8.65-5.9-3.65-3.4-4.6-5.55-.55-1.2-2.5-2.7l-3.5-3.05q1.25.9 3.3 1.15 2.25.25 3.55-.55-2.05-.25-4.85-2.35-2.95-2.25-3.3-4.2 1.55.5 3.95-.45 2.35-.95 2.85-2.25-1.35.8-6.8-5.55 1.05.75 4.7.55 3.7-.2 5.05-1.15 1.65-3.8 4.8-6.95 6.2-6.25 17.5-6 11.45-.25 17.6 6"/><path fill="#686868" fill-rule="evenodd" d="M33.75 45.2q-.85-.55-1.15-1.45-.3-1.05.15-2.3.4 1.3 1.65 3.1-.2-.55.2-1.65l.95-1.6.55 1.4q.2 1.05-.25 2.2.55-.4 1-1.55l.75-1.8q.2-.35.25.55v2.1q.75-.65 1.15-2.9l.6 1.1q.3 1-.5 2.5.35-.6 1.1-.95l2.05-.6q.75-.2 2.15-1.6 1.35-1.3 2.65-1.6 2.85-.65 5.5-1.65 4.15-1.5 5.9-3.1.7 1.1-1.05 3.35-1.45 1.85-3.85 3.75.6.75 1.75 1l4.4.2q-.75.15-1.5.65l-1.7 1.3q-.8.6-1.25 1.95l-.7 2.4q-1.9 4.15-5.35 6.5-2.9 1.95-3.4 4.45-.25 1.25-8.55 1.1-8.35-.1-9-1.8-1.2-3-7-6.35-5.3-3.1-5.75-6.3-.15-1.3-1.25-2.05L12.2 44.1l2.3-.25q1.55-.75 1.9-2.3-1.8-.85-2.7-2.85-.7-1.65-.7-3.5.05 1.55 5.55 4.6 4.9 2.7 8.05 3.55l5.45 1.6z"/><path fill="#c9d0d3" fill-rule="evenodd" d="M31.15 39.8q.05 1.1-.9.95-1.05-.15-1.8-2.2-.25-.6-2.95-2.5-2.7-1.95-3.25-3.3 1 .65 5.15 1.35 3.55.65 3.75 5.7M39.95 39.85q.2-5.05 3.7-5.65 4.3-.8 5.2-1.4-.55 1.4-3.1 3.1-2.5 1.75-2.75 2.4-.75 2.05-1.95 2.35-1.15.25-1.1-.8"/><path fill="none" stroke="red" stroke-linejoin="miter-clip" stroke-miterlimit="10" stroke-width="1.5" d="m61.6 26.4.6 1.4-.6-.15-.2-1.2.2-.05m-.75 1.1-.35-.15-.05-.35.15-.05.25.55m-48.95-.15.1.1h-.15l.05-.1m-.95.25-.45.05.4-.85.2.1-.15.7"/><path fill="none" stroke="red" stroke-linejoin="miter-clip" stroke-miterlimit="10" stroke-width="1.5" d="M23.25 11.55q-.15 2.5.9 4.45-2.15 1.1-3.45 2.2h-.05q-2.6-2.3-3.65-2.85l-3.5-2.45-.35-.4-.1.15-.05.1.15.45-1.35-1.45v1q-1.15-1.3-2.45-2Q8.3 10.2 8.3 9.3q-.1 1.05.25 1.55l-.9-.55L6.1 9 6 8.7v2.15h.05q0 1.65.3 2.35l-.75-.65.3 2.8q.45 2.8.8 3.3l-1.1-.8q.15 1.05 1.2 2.95l1.35 2.05q-1.2-.65-1.25-.9.45 1.8 1.55 3.25l-.3 1.15.75-.65.55.35-.1 1.1.6-.85.25.1-.1 1.3-3.35.05q-1.65-.15-2.2-.55l3.4 3.65-1.3-.35q.3 2.85 1.45 4.6l-3.55.35q.25 1.3 1.8 2.9L4.5 39l-1.35-.15q1.45 4.95 3.9 6.5 1.35.85 3.4 1.15-2.2 1.3-3.75 4.45-.95 2-1.35 3.65.95-1.1 4.05-2.45 3.15-1.35 4.35-1.05-2.3 1.55-2.6 4-.45 3.45 4.4 6.55-.45-.75-.1-2.2.3-1.15.8-1.95-.35 2.1.85 3.2 1.05 1.05 4.6 2.15 3.7 1.1 5.35 2.4 1.9 1.45 2.9 4.35l.3-1.75"/><path fill="none" stroke="red" stroke-linecap="round" stroke-linejoin="miter-clip" stroke-miterlimit="10" stroke-width="1.5" d="m30.25 67.85.8-6.1.3.15q.65 1.2 1.8 2.05l2 1.2-.8-1.2.65.55 1.6 1.4-.05 1.25 1.55-1.35q.55-.6.8-1.85l.25-.2q.15 1.25-1 2.5l2.2-1.35q1.2-.95 1.85-2.35l.55 3.7.4 2.65q-2.2 2.3-6.25 2.3-4.35-.05-6.65-3.35"/><path fill="none" stroke="red" stroke-linecap="round" stroke-linejoin="miter-clip" stroke-miterlimit="10" stroke-width="1.5" d="m43.15 68.9.2 1q1.65-2.65 3-3.75 2-1.65 5.25-2.2 6.15-1.1 5.4-5.35l.85 2q.35 1.4-.15 2.15 4.85-3.1 4.4-6.6-.25-2.45-2.6-3.95 1.2-.3 4.4 1.05 3.15 1.35 4.05 2.5-.35-1.7-1.35-3.65-1.55-3.15-3.8-4.45l3.4-1.15q2.45-1.6 3.95-6.55l-1.6.15q-.8-.25-2.45-1.05 2.25-1.95 2.55-3.6l-3-.15q.75-1.7 1-3.65l-2.5.4q2.35-1.5 4.5-4l-2.5.3-3.8-.5-.05-1.9.25-.1.6.85-.1-1.1.15-.05.4-.3.75.65-.3-1.15q1.05-1.35 1.55-3.15l-.25.25-1 .55 1.35-2.05q1.05-1.9 1.2-2.95l-1.1.8q.6-.7 1.1-6.1l-.75.65q.25-.45.3-2.3v-.2l.05-.3v-1.7q-.2.6-.9 1.1l-1.7 1.05.15-.3.2-.75-.05-.45q0 .85-1.1 1.45-1.4.8-2.4 1.95v-1l-.35.55-1 .9.1-.4-.1-.35-.6.6-.45.4-2.8 1.9-1.5 1.05-2.05 1.75-2.15-1.35q.7-.95.8-2l-2.1 1.35-2.35-.85q1.3-3.2 1.2-6.3-.2-4.1-3.05-5.8l-2.65 6.4q-1.8 3.35-3.85 4.4-.75-1.9-3.55-2.55-3.25-.7-3.85-1.4-1.25-1.3-1.45-3.55-.2-2.2.6-3.3-1.7 1.1-2.6 4.9-1 4 .75 5.9-1.15-.35-2.35-2.1-1.25-1.7-1.15-3-.8.95-.95 3.1"/><path fill="#515150" fill-rule="evenodd" d="M66.35 8.9q0 3.85-.35 4.5l.75-.65q-.5 5.4-1.1 6.1l1.1-.8q-.15 1.05-1.2 2.95l-1.35 2.05 1-.55.25-.25q-.35 1.3-1.05 2.45-.75 1.3-1.35 1.5l-2.2 1.15-1.65 1-1.55.35q-1.05-.05-2.05-1.15l-3.55-4.45q-2.05-3.3-.35-4.7 2.5-2.25 3.65-2.85l2.2-1.45 1.65-1.45.1.35-.1.4 1-.9.35-.55v1q1-1.15 2.4-1.95 1.1-.6 1.1-1.45.1.95-.3 1.5l1.7-1.05q.7-.5.9-1.1"/><path fill="#c9cfdf" fill-rule="evenodd" d="m62.2 21.9-.75.5-.65.4q1.45-.15 2.8 0l-1.65.5 1.25.2.65.55H62.6q1.6 1 1.6 2.5-1.3-1.15-1.75-1.15.8 1 .55 1.95l-.55-.8-.4-.3q.45 1.4.05 2.45l-.4-1.2q-.3-.7-.55-.75l.3 1.65q0 1.05-.2 1.3l-.55-1.55-.55-1q.7 2.45.35 2.95l-.5-1.5-.45-1 .25 1.55q0 .6-.35.95l-.15-1.45q-.1-.8-.5-.9l-1.25-.45-.4-2L59 21.05q.3-.3.95-.4l.85-.15-.5.45q-.35.2-.4.35h1.35l-1.15.9z"/><path fill="#0c0b0b" fill-rule="evenodd" d="M62.95 11q1.1-.6 1.1-1.45.1.95-.3 1.5l1.7-1.05q.7-.5.9-1.1l-.05 2.2-1.7 1.3.85.2.55-.2Q63.05 15 62.35 15l1.3-.2q-.35.75-1.7 2.1l-1.7 1.3.9-.2.5-.25-1.55 2.35q-.95 1.5-1.55 1.8 1.3-.15 1.75-.65l-.8 1.55-.95 1.15.65.15.3-.15-.75 2.25q-.45 1.55-.15 2.35-1.65.5-3-1l-3.55-4.45q-2.05-3.3-.35-4.7 2.5-2.25 3.65-2.85l2.2-1.45 1.65-1.45.1.35-.1.4 1-.9.35-.55v1q1-1.15 2.4-1.95"/><path fill="#515150" fill-rule="evenodd" d="M20.5 18.85q1.7 1.4-.4 4.7l-3.5 4.4q-1 1.2-2.05 1.2l-1.55-.4Q9.95 26.9 9.15 26.6q-.6-.15-1.35-1.45L6.75 22.6l1.25.9-1.35-2.05q-1.05-1.9-1.2-2.95l1.1.8q-.35-.5-.8-3.3l-.3-2.8.75.65q-.35-.65-.35-4.5l.9 1.1q.35.3 1.65 1.05-.35-.5-.25-1.55 0 .9 1.05 1.45 1.3.7 2.45 2v-1L13 13.85l-.1-.45.1-.25q.15.3 1.65 1.4l2.2 1.45z"/><path fill="#c9cfdf" fill-rule="evenodd" d="m12.3 21.75-.4-.3-.5-.55.85.2q.65.1.9.35l1.9 4.3-.4 1.95-1.25.5q-.4.1-.5.9l-.15 1.45-.3-1 .2-1.5-.45 1-.5 1.5q-.3-.55.35-2.95l-.55 1-.55 1.55q-.2-.25-.2-1.25l.3-1.7q-.55.2-1 1.95-.35-1 .1-2.45-.2 0-.4.3l-.55.8q-.25-1 .5-1.95-.45 0-1.7 1.15 0-1.55 1.6-2.5l-.45-.05-.8.05.65-.55 1.2-.2-1.6-.5q1.1-.2 2.8 0l-1.4-.9.75.05 1.3.2-1.1-.85q.2-.15 1.35 0"/><path fill="#0c0b0b" fill-rule="evenodd" d="M20.55 23.85q-1.5 3.15-3.5 4.5-1.7 1.15-3.45.6.3-.75-.15-2.35l-.75-2.2.3.1.65-.1-.95-1.15-.8-1.55q.3.5 1.75.6l-1.55-1.75-1.55-2.35.5.25.85.2-1.65-1.35-1.75-2.05 1.35.2q-.7 0-3.65-2.6l.55.15.85-.15q-.45-.15-1.75-1.35V9.35l.9 1.1q.35.3 1.65 1.05-.35-.5-.25-1.55 0 .9 1.05 1.45 1.3.7 2.45 2v-1L13 13.85l-.1-.45.1-.25q.15.3 1.65 1.4l2.2 1.45 3.65 2.85q1.8 1.45.05 5"/><path fill="#424242" fill-rule="evenodd" d="m24 50.1-2.9-1.45q-1.9-1.05-1.8-2.4.6.5 2.6 1.05l3.25.5 2.25 5.3zM46.45 51.95 45.2 53.1l2.25-5.3 3.3-.5q2-.5 2.6-1.05.05 1.35-1.8 2.4-2.25 1-2.9 1.45z"/><path fill="#686868" fill-rule="evenodd" d="M48.15 46.7q-.2.65-.05 3.7-.2 3.3-2.05 5.8-.2.3-.25 2.9-.05 3.2-.45 5.1-1.45 7-8.45 7-6.55-.1-8.3-7.3-.5-2-.7-5.25l-.35-2.95q-1.9-2.5-2.25-5.55l-.2-3.45z"/><path fill="#541313" fill-rule="evenodd" d="M34.4 41.35q.85-1 .25-6.35-.1-.85-1.35-4.05-1-2.65-.6-3.45-.35.8.65 2.45l1.85 2.9q.85 1.5.45 4.55-.35 2.9-1.25 3.95M43.05 26.8q-.15 1 .45 2.7l.8 2.35q.2 1 0 1.8-.25.85-.85 1.1.55-.65-.05-2.4-.5-1.6-1.7-3.5.6-1.3.2-3.3-.45-2.6-2.7-3.7 4.55.65 3.85 4.95M29.8 25.6q-1.45.85-2.65 2.7-1.05 1.6-1.35 3.15-.95-3.05 1.25-5.4 2.05-2.1 4.5-2.1-.55.25-1.05.8zM21.8 18.8q1.35 1.4 3.75 2.5 2.8 1.2 4.85.95l-1.8.4-.75.3q-1.5 0-3.15-.85-2.15-1.2-2.9-3.3M23.5 14.35q-1.15-3.55.7-5.9-.3 2.85 1.1 6.2 1.55 3.7 3.85 4.15l-1.1.05-1.15-.05q-2.35-1-3.4-4.45M29.55 2.75Q27.9 4 28.05 8.45q.1 4.7 2.7 5.8l-1.7-.25-1.35-.45q-1.5-1.55-1.25-5.1.3-3.95 3.1-5.7M44.3 2.75q2.35 1.15 3.05 4.3 1.05 4.15-2.2 9.6-.4-.3-1.8-.95 1.45-1.4 2.1-5.8.75-4.95-1.15-7.15M44.95 19.3l-.5-.65-.4-.55q1.3.15 3.55-.95 2.55-1.2 3-2.8-.3 1.85-2 3.35-1.75 1.6-3.65 1.6M46.25 23.1l-1.55-.95q1.85-.2 3.8-1.15 2.3-1.05 2.65-2.25.2 1.25-1.55 2.6-1.55 1.25-3.35 1.75"/><path fill="url(#b)" fill-rule="evenodd" d="M12.8 33.5q.2-3.55 1.2-4.65 0 .75 1.05 1.45 1.25.8 2.95.6.55-.05.75.4.15.35-.15.7-.35.6-2 1z" transform="translate(13.65 14.2)"/><path fill="#202323" fill-rule="evenodd" d="M24.45 47.7q-3.15-.25-4.95-1.95-1.85-1.75-3.1-6.6-1-3.7-1-5.5l.95 1.5.85 1.35q-.45-.85-.65-3.25-.2-2.5.3-2.1l1.05 1.3q.85 1.05 1.15.9l1.65.1q1.3.3 2.3 1.05 1.95 1.4 4.1 6.65.3 1.95 1.5 3.6.55.75 1.5.9l1.55.05q-.8.85-2.25 1.45l-1.75.5z"/><path fill="url(#c)" fill-rule="evenodd" d="M11.25 32.95q-4.25-.5-6.05-4.8-.85-2.1-.9-3.4-.15-1.95.85-4.9 5 2.65 7.05 7.85 1 2.5 1.35 3 .85 1.15 2.45 1.1-1.25 1.55-4.75 1.15" transform="translate(13.65 14.2)"/><path fill="url(#d)" fill-rule="evenodd" d="M13.5 31.55q-.2.9-1.4 1.05-1.25.1-2.9-.7-2.45-1.3-3.55-4.65-.95-2.65-.7-5.4.45.2 4.2 4.85 3.65 4.6 4.35 4.85" transform="translate(13.65 14.2)"/><path fill="#1c0202" fill-rule="evenodd" d="m24.65 42.6-.25 2.85q-.25 1.2-.65 1.2-.35 0-.65-1.2-.25-1.2-.25-2.85 0-1.6.25-2.8.3-1.2.65-1.2.4 0 .65 1.2z"/><path fill="url(#e)" fill-rule="evenodd" d="m31 33.5-3.85-.5q-1.55-.35-2-1-.25-.35-.1-.7.15-.45.7-.4 1.7.2 3-.6 1.05-.7 1.05-1.45.95 1.1 1.2 4.65" transform="translate(13.65 14.2)"/><path fill="#202323" fill-rule="evenodd" d="M48.05 34.5q1.05-.75 2.4-1.05l1.6-.1q.25.15 1.1-.9l1.05-1.3q.55-.4.3 2.1-.2 2.35-.6 3.25l.85-1.35.9-1.5q0 1.85-.95 5.5-1.3 4.85-3.15 6.6-1.8 1.7-4.9 1.95l-3.2-.05-1.75-.5-2.3-1.45 1.55-.05q.95-.15 1.5-.9 1.15-1.5 1.55-3.6.3-1 1.35-2.95 1.5-2.8 2.7-3.7"/><path fill="url(#f)" fill-rule="evenodd" d="M38.55 28.15q-1.75 4.3-6 4.8-3.55.4-4.75-1.15 1.6.05 2.45-1.1l1.3-3q2.05-5.2 7.1-7.85.95 2.95.8 4.9-.05 1.3-.9 3.4" transform="translate(13.65 14.2)"/><path fill="url(#g)" fill-rule="evenodd" d="M30.25 31.55q.7-.25 4.4-4.85 3.7-4.65 4.15-4.85.3 2.7-.65 5.4-1.1 3.35-3.6 4.65-1.65.8-2.85.7-1.25-.15-1.45-1.05" transform="translate(13.65 14.2)"/><path fill="#1c0202" fill-rule="evenodd" d="M46.4 42.6q0-1.6.3-2.8.25-1.2.6-1.2.4 0 .65 1.2l.25 2.8-.25 2.85q-.25 1.2-.65 1.2-.35 0-.6-1.2-.3-1.2-.3-2.85"/><path fill-rule="evenodd" d="M27.3 52q.9.25 1.85 1.2l1 .65 1.05.25 2.75.6 2.65.2 1.15-.05 1.5-.15 2.75-.6 1.05-.25q.55-.15 1-.65.75-.75 1.85-1.2-.3 3.4-.95 5.25l-.95 2q-.2.35-.35 2.95L43 66.65q-.55 1.95-3 2.9-1.8.7-3.8.7-1.4 0-3.2-.9-1.7-.95-2.3-1.95-.35-.65-.7-4.15-.35-3.6-.85-4.4-.65-.95-1.25-3.6z"/><path fill="#fff" fill-rule="evenodd" d="M30.4 54.35q.5-.1 2.05.85-.7.65-.7 2.8 0 1.8.4 2.9-1.5-.6-2.05-3.1-.35-1.6-.3-2.85.05-.6.6-.6"/><path fill="#fff" fill-rule="evenodd" d="m32.1 54.95 2.05.55-.05.5-.7.85q-1.3-.45-1.3-1.9"/><path fill="#fff" fill-rule="evenodd" d="m34.1 55.5.55-.05 1.85.15-.2 1.2-.85.55q-1.35-.5-1.35-1.85M42.7 54.35q.55 0 .6.6l-.25 2.85q-.6 2.5-2.05 3.1.35-1.05.35-2.9 0-2.15-.65-2.8 1.45-1 2-.85"/><path fill="#fff" fill-rule="evenodd" d="M41.05 54.95q0 1.45-1.35 1.9l-.65-.85-.1-.5 1.3-.35z"/><path fill="#fff" fill-rule="evenodd" d="M39.05 55.5q0 1.35-1.4 1.85l-.9-.55q-.2-.4-.15-1.2l1.85-.15zM31.65 63.85q.2 1 1.1 2.35.85 1.25 1.45 1.35l-.75.8q-.4.35-.65.15-.8-.7-1.25-1.65-.75-1.6.1-3"/><path fill="#fff" fill-rule="evenodd" d="m33.8 68.9-.2-.7q-.05-.5.4-.45l.95.25h.25l.15.2-.15.5-.6.4z"/><path fill="#fff" fill-rule="evenodd" d="m35.7 68.4.3.2.25-.1q.25-.15.35-.15.4 0 0 1.05l-.5.15-.75-.15q-.45-.15-.25-1 .05-.2.35-.2zM41.85 63.85q.9 1.4.15 3-.45.95-1.25 1.65-.25.2-.65-.15l-.8-.8q.65-.1 1.5-1.35z"/><path fill="#fff" fill-rule="evenodd" d="m39.7 68.9-.75.2-.6-.4-.2-.5.2-.2h.25l.9-.25q.5-.05.45.45z"/><path fill="#fff" fill-rule="evenodd" d="m37.55 68.6.55-.4q.3 0 .3.2.25.85-.25 1l-.7.15-.5-.15-.2-.65.2-.4.35.15z"/><path fill="#e60412" fill-rule="evenodd" d="m38.2 58.9 1.5-.2q.9 0 1.4 1.85l.4 2.7q.05 1.35-2.35 2.55l-1.7-.05-.95.15-1.35.05-1.8-.9q-1.1-.55-1.1-2.45 0-1.55.55-2.9.4-.9 1.25-1.05.55-.1.95.15.55.35 1.6.3z"/><path fill="#9b9b9b" fill-rule="evenodd" d="M33.2 42.5q.5 1.3 1.05 1.9l.3-1.35q.45-1.45 1-1.85l.35 1.1q.3 1.35-.15 2.4.35.25 1.85-3.4l.05.9v1.95q.9-.85 1.05-2.6l.65.7q.5.95-.2 2.25l.4-.4q.55-.4 1.35-.55-.8 1.7.05 3.85.4 1.1 1 1.8.65 1.25-.9 2.55L39.4 52.8q-1.85 1.05-3.75.7l-1.5-.55Q31.4 51.5 31 50v-.8l.1-.3q.8-1.95.75-3.25l-.2-.95 2.55.65q-.65-.3-1.15-.95-1-1.3-.2-3.05z"/><path fill="url(#h)" fill-rule="evenodd" d="M13.3-6.55q.9-3.8 2.6-4.9-.8 1.1-.6 3.3.2 2.25 1.45 3.55.6.7 3.85 1.4 2.8.65 3.55 2.55Q26.2-1.7 28-5.05l2.65-6.4q3.5 2.1 3 7.55Q33.2.5 31.5 2.45q1.6.65 5.45-2.3-.1 1.55-1.65 3-1.7 1.6-4 1.95.55.75 2.6.5l3.6-1.05q.25 1.15-1.9 2.75-1.9 1.45-3 1.6 2.5 2.35.85 5.9 0-.6-.8-1.3-.9-.8-2.2-1.05 1.4 1.9.85 5.15-.5 2.95-1.5 2.95.7-1.1-.1-2.95l-1.65-2.95q-.25.45.05 2.35l.35 4.1q-.2 6.35-6.25 11.7 1.2-1.7 1-6.65-.25-5-1.65-7.5.5 1.35.35 4.25-.15 3.1-1.1 4.1.4-.45-.25-2.4-.9-2.45-3.25-4.45-2.6-2.25-2.75-4.2-.1-1.6 1.6-4.55-1.8 1.05-3 3.25-.9 1.6-1 2.6-2.3-2.35-1.3-5.05.9-2.5 3.35-3.45-1.55.1-3.4-1.1Q8.85 6.4 8.15 4.6q.5.65 1.9.4l3.2-.4Q10.1 2.8 9.6-1.05q-.3-3.2.95-4.7-.1 1.3 1.15 3Q12.9-1 14.05-.65q-1.75-1.9-.75-5.9" transform="translate(13.65 14.2)"/><path fill-rule="evenodd" d="m41.6 51.4-2.2 1.65q-1.65 1-2.7 1-.95 0-2.85-1.35-1.9-1.3-2.4-2.2-.45-.3.15-1.3.6-1.1 1.55-1.25l4.15-.2q3.1 0 3.5.6l.95 1.5q.35.95-.15 1.55"/><path fill="#c9d0d3" fill-rule="evenodd" d="m37.7 48.3 1.45-.05q1.1.05 1.45.4l.8 1.1q.35.55-.05.75-.35.1-.95-.5-.75-.55-1.15-.6-.75-.1-1.65-.55-.9-.5.1-.55"/></g></defs></svg>