<svg xmlns="http://www.w3.org/2000/svg" xmlns:ffdec="https://www.free-decompiler.com/flash" xmlns:xlink="http://www.w3.org/1999/xlink" ffdec:objectType="frame" width="43.25" height="20.7"><use ffdec:characterId="1" xlink:href="#a" width="43.25" height="20.7"/><defs><g id="a" fill-rule="evenodd"><path fill="#1c172c" d="m42.7 19.2.55 1.5Q32.05 9.15 20.1 9.5l-1.75.15Q7.85 10.6 0 19.15q-.1-.2 1.7-3.25 1.75-3.05 5.25-5.05 3.45-2 7.25-3.05 3.8-1.1 8.75-.7 4.95.3 11.5 3.85 6.5 3.5 8.25 8.25"/><path fill="#1c172c" d="m6.05 1.35-1.4-.25-.5.25-.25.3Q2.25 4.4 2.4 7.85l-.05 2.3.15 1.1.15.9.9 2.05H3.5l-1 .95q-1.6-5-.55-11.7l.5-2 .7-1.2.7-.2L5 .25l2.7 1.2q1.8.9 4.4 3.2 2.55 2.3 3.3 4.05l-.75.15-1.6-2.2q-1.4-1.9-3.7-3.35zm31.6 1.2q-1.1.4-3.4 1.75-2.35 1.35-3.85 3.15l-1.7 2.1-.75-.15q.85-1.7 3.5-3.9 2.7-2.15 4.55-2.95l2.75-1.05 1.15-.15.7.25.65 1.25.4 2q.7 6.75-1.2 11.65l-.95-1h-.05l1.05-2 .15-.9.25-1.1.05-2.3q.35-3.4-1.15-6.25l-.25-.3-.5-.3z"/><path fill="#fff" d="m39.15 7.7.1.85q.45 2.15.15 3.8-.05 1.45-.5 2.75l-2.2-1.6-3.05-1.8-1.3-.65.3.05q.9-1.65 2.15-3.15Q36 6.6 37.5 6.6q1.1.2 1.65 1.1M13.4 9.1l-1.7.7-2.15.9-3.1 1.65-2.3 1.5q-.4-1.35-.35-2.8-.25-1.65.35-3.8.15-1.25.55-2.1t1.5-1.1q1.05 0 2.1.8l3 2.3z"/><path fill="#dedffa" d="M32.35 11.05h-.05l-.3-.15q-.9-.45-1.55-.75l-.55-.25 2.2-1.85 3.1-2.15q1.1-.75 2.15-.65 1.1.3 1.45 1.15l.2.6v.1l.05.05.1.55q-.55-.9-1.65-1.1-1.5 0-2.7 1.35-1.25 1.5-2.15 3.15z"/><path fill="#ff9fa0" d="m4.15 1.35.5-.25 1.4.25 3.3 1.95q2.3 1.45 3.7 3.35l1.6 2.2-.85.15-.4.1-2.1-1.95-3-2.3q-1.05-.8-2.1-.8-1.1.25-1.5 1.1t-.55 2.1q-.6 2.15-.35 3.8-.05 1.45.35 2.8L4 13.9q-.2.1-.45.3l-.9-2.05-.15-.9-.15-1.1.05-2.3q-.15-3.45 1.5-6.2zm33.5 1.2 1.4-.2.5.3.25.3q1.5 2.85 1.15 6.25l-.05 2.3-.25 1.1-.15.9-1.05 2-.4-.35-.15-.05q.45-1.3.5-2.75.3-1.65-.15-3.8l-.1-.85-.1-.55L39 7.1V7l-.2-.6q-.35-.85-1.45-1.15-1.05-.1-2.15.65l-3.1 2.15-2.2 1.85-.4-.15-.8-.2 1.7-2.1q1.5-1.8 3.85-3.15 2.3-1.35 3.4-1.75"/><path fill="#dedffa" d="m13.4 9.1-2.15.9-.3.15h-.35q-.8-1.7-2-3.25Q7.5 5.5 6 5.4q-1.1.15-1.7 1.05l.1-.55.05-.15.25-.6q.4-.85 1.5-1.1 1.05 0 2.1.8l3 2.3z"/></g></defs></svg>