<svg xmlns="http://www.w3.org/2000/svg" xmlns:ffdec="https://www.free-decompiler.com/flash" xmlns:xlink="http://www.w3.org/1999/xlink" ffdec:objectType="frame" width="80.95" height="78.35"><g transform="translate(13.9 26.4)"><use ffdec:characterId="2" xlink:href="#a" width="36.85" height="25.35" transform="translate(9.3 -15.15)"/><use ffdec:characterId="3" xlink:href="#b" width="80.95" height="75.85" transform="translate(-13.9 -24.85)"/><clipPath id="c"><path fill="#fff" fill-rule="evenodd" d="M51.5 9.1q1.15 1.2 1.6 2.4.4.95.35 1.85-.15 1.6-1.7 3 1.55 3.6 1.85 6.3.65 5.55-2.55 10.45-1.05 6.75-4.4 9.85.35 2.85 1.5 4.95 1.3 2.3 3.15 2.75-2.45.8-5.05-.35-3.3-1.4-3.15-5.35-1.45.8-3.25 1.05-4.05-7.3-2.15-13.65l2.55-5.65q1.9-4.2 2.15-6.55.35-3.1-.95-7.45l-.85-2.5-.1-.2q-1.25-3.25-4.55-9l.25-.6.15-.45 1.5.85-.05.55q3.7 2.2 6.55 4.8l2.5-.45 2.35 1.35 1.95 1.7z"/></clipPath><g clip-path="url(#c)"><use ffdec:characterId="5" xlink:href="#d" width="21" height="51.95" transform="translate(34.8)"/></g><use ffdec:characterId="6" xlink:href="#e" width="75.65" height="43.7" transform="translate(-12.45 -26.4)"/></g><defs><g id="b" fill-rule="evenodd"><path fill="#566139" d="m65.4 33.95-.35-.35-1.95-1.7q2.1 1.15 4.15 1.8z"/><path fill="#d4c788" d="M4 4.75q1.2-1.05 3.3-1.6 4.25-1.05 8.95 1.6l3.5 2.45q2.55 1.9 3.45 2.5 1.6 2.05 3.1 5.75l1.15 2.85v.25q-.05 2.4 1.4 2.8 2.5 4.25 6.6 7.55 8 6.35 19.05 6.15l.85 2.5q-6.15 1-13.7-2.15-2.9-1.2-5.6-2.9l-2.15-1.4q-2.55-2-5.5-6.05-2.3-3.1-3.9-7.25-1.5-3.95-3.65-6.6-3.5-4.4-8.65-6.3-5-1.85-8.2-.15m63 31.6q-.45-1.2-1.6-2.4l1.85-.25q3.35 1.15 6.5 1.05l2.9.3Q73.5 36.5 67 36.35"/><path fill="#ffe2a8" d="m41.05 19.75-.8-.4.8-.1z"/><path fill="#ffefde" d="M28.4 25.05q-3.75.3-6.5 1.15-2.95.95-6.9 3.55-3.65.3-7.4-2.8-3.5-2.9-5.65-7.4Q-.25 14.9.05 11 .45 6.6 4 4.75q3.2-1.7 8.2.15 5.15 1.9 8.65 6.3 2.15 2.65 3.65 6.6 1.6 4.15 3.9 7.25"/><path fill="#b3a89c" d="M76.65 35.05q2.45-.3 3.8 1.4.6.75.45 1.8-.15.95-.75 1.5-2.45 2-12.8-1.55.05-.9-.35-1.85 6.5.15 9.65-1.3"/><path fill="url(#g)" d="M36.1-6.6q2.25.7 3.4 2.8l-.75-.85q-.6-1.05-2.7-1.85l-1.25-.45-2-.55.1-.6-.05-.4.35-.3 2.8-2.4q1.9-2.1 2.95-2.6l5-.15q4.05 1.1 6.05.7 2.15-.4 5.3-3.2-1.3 1.8-1.85 4.6L52.7-8.1q-1.1 2.9-8.6-1-1.05-.55-1.9.2l-1.5 1.1-2.65.4q-1.4.2-1.95.8" transform="translate(13.9 24.85)"/><path fill="url(#h)" d="m40.1-2.25.75 2.4Q42.25 3 44.1 1.9q1.25-.8 1.4-.85l5.5-.2q3.8.75 6.85 2.3-3.5-.1-4.1 1.25-.75 1.55-3.1 1.85l-3.8-.55-2.5.45q-2.85-2.6-6.55-4.8l.05-.55q1.55.5 2.05-1.5z" transform="translate(13.9 24.85)"/><path fill="#fff" fill-opacity=".525" d="M28.2 11.2q.7-1.15 4.2 4.8v.1l.25-.35.85-.15q.6 0 1.1.45l.4-.3.55-.15q.3 0 1.95 1.4l2 1.65q4.6 2.35 4.6 3.1l-.25.6q-.3.35-.8.3 1.3 1.85 1.75 1.85l.8-.2q.8 0 1.75.6l.3-.35q.2-.25.55-.25 1 0 3.15 2.7l1.95 2.7q0 .6-.4.8l1.85 2.15 1.45 1.9q0 1.2-1.25 2.75t-3.95 2l-4.3-.15q-5.8-1.85-8.75-5.2l-3.8-6q-.9-1.45-2.3-6.45l-1-3.65h-.1q-.9 0-1.8-1.85l-1.3-2.6-3.1-2.95-1.5-1.15q0-1 1.15-1 1.6 0 4 2.9m-5.85-2.55.05.15q.1.35-3.1-2-3.15-2.4-5.35-3.1l-3.6-.9.4-1Q11.7 0 13.5 0q4.65 0 9.1 7.95z"/><path fill="#fff" d="m39.85 19.15-1.55-.65-.2-.05-.05.4-.95-.8V18l-1.2-.5-.5-.25.5 1.25q.35 1.15.3 2.15-1.6-1.4-2.6-.95l-1.25.95q-2.25.95-3.45.7h-.05q-1.45-.4-1.4-2.8v-.25q.15-2.65 1.5-3.3l2.3-.15-2.1-1.4-.35-.2-.5-.3-.45-.3L20.8 7.9q-.5-.35-.15-1.45.3-1.05 1.15-1.7 2.25-1.85 4.1 2.35.75-1.05 2.95-1.85l1.15-.2.35.05h.1q.7.4.9 1.25l.15.45-.2 1.05 2.15-.05q3 .6.6 3.65l.75.5 2.1.25q.4-.8 1.3-1.15l1.3-.15 2.6.5.15.05.55.35.2.15.7.55-.25 1.1-.3.9-.2.3-1.45.2-1.15.05q1.6.65 2.45 1.6l.1-.1.2-1.2.05-.65.3-.9.15-.2q.7-1.05 1.7-.6 1 .4 1.25 2l.2 1.35.05.4-.1.6 2 .55 1.25.45q2.1.8 2.7 1.85l.75.85.6.45v1.1l-.2 1.55q-.5 2-2.05 1.5l-.05.55q3.7 2.2 6.55 4.8l2.5-.45 2.35 1.35 1.95 1.7.35.35q1.15 1.2 1.6 2.4.4.95.35 1.85-.15 1.6-1.7 3 1.55 3.6 1.85 6.3.65 5.55-2.55 10.45-1.05 6.75-4.4 9.85.35 2.85 1.5 4.95 1.3 2.3 3.15 2.75-2.45.8-5.05-.35-3.3-1.4-3.15-5.35-1.45.8-3.25 1.05-4.05-7.3-2.15-13.65l2.55-5.65q1.9-4.2 2.15-6.55.35-3.1-.95-7.45l-.85-2.5-.1-.2q-1.25-3.25-4.55-9-.6 1.05-1.2 1.25-1.25.45-4.9-1.7-2.45-1.45-2.7-4.6v-1.55l-.8.1-.25-.15-.1-.15z"/><path fill="#f5f5f5" d="m39.85 19.15.05-.1.1.15.65 2.45q.4 2.7-1.25 3.15-2.15-.35-3-.9-.85-.6-.35-1.65.35-.7 1.85-1.55z"/></g><g id="d" fill-rule="evenodd"><path fill="#410c02" fill-opacity=".8" d="M15.5 21.45q-2.05-.5-2.8-1.7.25 2.25.1 4l1 1.25 2.25 2.2q.3-.85-.55-5.75m-3.4-5.55.25 1.1q.15 1.4.85 2.2.65.75 1.55.8l-.05-.05.1.05q.2.05-1.15-3.35l-.1-.05q-.8 0-1.45-.7m-2.75-5-1.05 1-1.8.3Q5.3 12 2.7 10l.35-1.1q3.35 2.7 4.45 2.35T8.75 10Q5.55 4.65.6 0q5.35 4.7 6.8 6.85L9.05 9.3l.75.9.6.5v-.15l.4.5.15.35-.05.1-.8-.45.8 1.7.5 1.1.1.15.15.25.45.55 1.05.7h.25v.05q2.3 1.45 3.65.8l.25.45.5.1q-1 1.05-4.1-.25l1.5 3.6.05.05-.05-.3.1.3 1.3.3q1.1.05 2.4-.6 1.3.9.5 1.25l-2.25.45-1.6-.2.95 3.5q1.5 1.05 4.4.5-2.1 1.75-3.1 4.5-.8 2.3-.4 4.6-.3-.05-.25.7.1.7.75 1.1-3.75-.35-5.35-3.15l-.4-.9-.15.85q.4 1.7 1.45 2.7 1 .95 1.65 1.25l2 1.45q1.3 1.15.35.65l-1.05-.15-.25.8-1.45 1.3q-1.3.8-1.35 2.35-1.35.55.25 1.65-.1 1.55 1.4 2.05 1.25.35 1.4 2.1l.85-.45q-.7.5-.85.8v.2l1.65.1-.25.4q0 .75-1.75.9l-2.5.1h-1.1q-1.8-.4-2.55-.8l-1.1-.95L7.8 48l-.05-.05q.05-1.45-.55-1.1l-2 .15v-.45q-2.35-.3-2.65-2.9v-1.4q-.75.8-.7-.3.05-1.15-.45-.8-.55.3.05-1.65.55-2-.55-1.05l-.05-.6Q2.25 36 0 35.75q5.85-1.35 8.3-3.8 1.4-1.4 1.95-2.7-1.05 1.8-4.8 3.05l-2.55.6q-2.15-.2-.95-1.8l1.25-4.5q4.5-.3 6.9-1.95l1.75-1.35v-3.95q-2 2.05-6.65 2.85v-.9L9.05 20q2.05-.8 2.65-1.7l-.05-.3-.7-3.15-1.2.8-2.6.75L4 16.05V14.4q2.65 1.2 4.5.7 1.85-.6 2.2-1.2l-.65-1.7zM16.8 30l-3.75-3 3.35 5.55zm.15 21.55h-.05l.05-.05.15-.05z"/><path fill-opacity=".4" d="m16.85 35.9.25.35q-2.35 5.75-4 6.95-.65 2.9 1.35 4.25 2 1.3 2.65 2.55-.95 1.45-2.55 1.85-1.65.4-3.9-.5t-2.7-2.65-2.75-1.75l-1 .15q-.45-1.15-1.7-3.15t0-5.85l.7 1.15q.95 1.25 2.2 1.85l1.2.35.1.15.4-.8 1.75-4.3-.65.3q-2.05.9-3.3.9l-1.85.35 2.4-1.2L7.3 35.7l2.15-1.55.25-.1.95-2.9 1.6-5.55.05-.05-1.25 7.5q-.35 1.9.05 2.65l1.5 3.5v.15zm1.7-17.8-.05-.1v-.05zM16 34.9q-1.35 0-2.45-2.3l-.8-2.25.1-.35 3.3 4.9zm-4.6-8.4q0 .5-2.05 2.8l-2.3 1.25q-2 .95-2.55.95l-.25-.05 7.15-5.15zm.6 13.2-2.1-3.15-1.3 4.7q1.55-.4 3.4-1.55"/><path fill-opacity=".2" d="m7.15 5.15 3.6 4.35 2.65 3.9.4.65 1.55 3.15.65 1.7q.75 1.35 2.05 1.35l.4-.05q.45.25.8 0l.05.4q.25 4.3.6 3.2.45 1.5-.35 5.15-.85 3.6-2.9 3.95.45-2.95-.1-7.15-.6-4.2-4-11.3Q9.15 7.3 1.15.3L3.65 2z"/></g><g id="e" fill-rule="evenodd"><path fill-opacity=".298" d="M30.25 16.7h-.05zm14.5-1.15-.4-.75q1.5.05 3.15 1.05l-2.05 1.95-.1.05-.2-.85-.05-.55zm-.4 2 .15 1.05v.2h-.1l-.6-.5-.4-.65q0-1 .65-.4zM74.7 36.4l.55.1.4.1-1.35.4-.85.3-1 .2-1.15.25-.05.05h-.05l-4.1.3-1.35.05-.25-.65-.1-.2 3.2.2 4.8-.8 1.05-.35zM55.35 17.25l.15.05-.3.1z"/><path fill-opacity=".2" d="m29.6 7.55-1 .65-1.2.65q.5-.5.25-.5l-.1.05q.5-1.55 1.9-1.05zm-6.55-.45-.15.05q-.2 0-.55-.25l-.45-.25h-.45q-.55.2-1 .8-.4.5-.4.95 0 .35 1.25 1.45.1-.25.75-.6 1.05.1 1.85.65l.3 1.6q.45 1.55 1.35 1.55l.25-.05-.85-1.6q-.55-.85-.55-1.4v-.25q.2-.75.7-1.35l1.05-.8-.45.6.05.4.4.05 1.05-.3-1.2 1.1-.7 1.45.05.05.3-.15.3-.15 1.4-.1.05-.05q.75-.65.95-1.25h.25l.8-.6.45-.65.05.45-.9 1.6q-.9 1.4-.9 2.75v.55q.05.5.35.5l.25-.2q-.25-1.55.75-2.95l.5-.75.85-.35q1-.25 1.65.65l.15.15q-.55-.35-1.3-.35t-1.15.6h-.05l-.25.4q-.15.25-.15.5l.1.45.15.2.45-.05.4-.05.55.1.95.35.45.5-.35-.05-2-.3-.35.15q-1.45.5-1.45 1.9l.15.5q.2.4.55.4l.3-.05v-.25q-.5-.35-.5-.6l.2-.55 1.55.25q1.2.45 1.55 2.45l.7.55.2.05h1.05l.6 1.35q.25 0 .25-.1l-.3-1.1-.25-.6-.1-1.3q-.1-1-.95-2l-.1-.25h.55l.15-.05.35.1h.65l.05.2.15.05-.3 1.4q-.25 1.45.05 2.35l.35 1.4v.1q.2.55.5.85l.45.35.05.1.25-.1-.15-.05.05-.1-.05-.05q0-.9.45-1.8l.3-.5.75-.9h.05l.6-.3.1-.05.1.05 2.65-.25.15.2-.2 1.7h-.05l-.05.05-.2.75-.85 1.1h-3.2l1.2.25 1.8.3h.1l-.05.05h.05l.2-.05q.95 0 1.4-1.15l.3-1.2.1-.85h.05l.35.1q1.2.95 1.2 1.75l-.15.6-.65.55-.5.25-.8.05.85.1H43l.8-.15q.65-.15 1.1-.95l.2-.45.1.1.25.2v.05q1.15.6 2.4.75l-1 .5-.7.3-1.5.25h-1.4l-.65.05.45.25h.4l1.25.15 3.4.95q.5.2 1 .85l.1.05.45 1.05.25.2v-.05q.6-.4.8-2.85l.45.5q.95 1.35.95 2.25l-.1.75q-.35.7-1.35.85l-.15-.05-.35.05-.45.05-.3-.05-.3.1v.05q-.45.05-.6.25l-.05.15v.1l-.05.25.25.45-.05.1-.05-.05h-.1l.65.9 1.7 3.1 1.55 3.1.05.15.85 2.05.2.45.6 2.15.3 1 .1.35v.25l.35 1v.2l.05 1.15q-10.4.2-17.8-1.4-5.05-1.1-8.65-3.05-9-4.85-11.7-9.85-2.3 1.2-3 1.95h-1.05l-1.55-.2.2-.05.9-.35.7-.55q.85-.7 1.65-2.45.85-1.8.9-3.65 0-1.9-.75-4.05-.75-2.2-2.2-4.1Q11.05 14 8.45 12.2q-2.6-1.85-4.75-2.55-2.15-.75-3.7-.4Q3.05 5.5 6.25 5.2l3.85.4q6.55 1.75 10.65 7.3 2.05 3.2 2.5 4.85.8 2.35 2.3 5.25 1.5 2.85 2.65 4.2l.85 1 .7.8q.85.8 1.65.8l.4-.1.4-.25.15-.4.95.8q2 1.6 3.75 2.3 1.4.5 2.6.4 1.75-.15 4.3-2.7l.25-.25h-1.15q-2.25-1.1-3.1-2.2l-.2-.35-1.5.45-1.2-.05q-1.75-.2-2.7-.95-.75-.6-.75-1.15 0-.5.45-.85l.15-.6v-.1l.05-.1q-.35-.45-.8-.5h-.15q-.55-.05-.85.45-.7 1.1-2.15 1.5l-1.2.05q-1.2-.1-1.85-1.15l-.85-1.75v-.1l.1.1q.6.65 2 .65l1.25-.25.3-.15.6-.25 1.6-1.4.05-.25-.9.7q-1.25.95-3.35.95-1.1 0-1.55-.95l-.2-.95.1-1.4.5-.95-.1.95q0 .85.3 1.5.55 1.25 1.95 1.25.4 0 1.95-.95l.35-.3.2-.2.45-1-.25-1.15q-.3-.6-1.05-.75.5-.25 1.5.45l.3.25.8.8.1.1q.75.95 1.1 2.6l.1-.05.05-.2q0-1.1-1.25-3.05l-.1-.05-.5-.4-1.45-.8q-.85-.25-1.7-.75l-1.45-.9-.45-.3h.05l-.9-.55-.15-.1-.95-.65-.65-.4-1.1-.6-1.45-1.1-1.25-.85q-2.1-1.45-2.1-1.7 0-2.1 1.95-2.75 1.9-.7 1.9.55zm-8.2 9.35h-.15l.15.15zM38.8 13.1l.1-.2.45-.05q.9 0 1.8.6l.55.45.15.3.05.1h-.05l-.4.1q-1.5 0-2.2-.55-.45-.35-.45-.75m.2 3.7v-.05l-.3.2 2.4 1.4.3-.1-.1-.15-.65-.5q-.85-.65-1.65-.8m-.45-.75-.25.1-.5.45-.7.75-.05.1q-.65.95-.65 2.15v.3l-.3-.25-.2-.2v-.05l-.15-.75-.1-1 .05-.25h.05l.05.15.25.2q.7 0 1-2.05v-.05l.25-1.05q1.05.45 1.25 1.45m-3.3 7.75h.05q-.3.2-.3.55 0 .55.45.8.6.5 1.5.65h.1l1.2-.1q.4-.2.6-.7l.15-1.35-.15-.8.2.5.2.95v-.15l-.3-1.8-.3-1.2v-.05h-.1l-1.5 1.25-1.8 1.4zm6.85-1.25-.3-.35-1.65-1-.2.85q0 1.55 1.65 3.95 1.55 1.3 2.9 1.8l.2.15q.7.45 1.5.65l.4.15h.55l.05.05.55-.4.2-.25.05-.1.3-.45v.05-.1l.1-.6v-.1l.25-.8.25-.7v-.15q0-1.15-2-2.2l-.55-.25h-.05l-2.1-.4h-.3l.05.25 2.35.45.2.1q.3.85.1 1.7l-1.95-.95 2.8 2.5.35.5v.25l-.1.6-.2.2-.6.15q-.9 0-1.8-.6l-.6-.4-.5-1.4-.3-.7-.25-.5zm7.3-3.2 1.95-.35.15.1.85.7q1.8 1.8 2.7 3.5l1.4 3.35.3 1.25q-.7.85-1.35.7-1.5-.15-2.25-2.15-.25-.6-.45-2.4l-.05-.55-.45-.75.15.1h-.05l-.45-.55-.3-.35-.85-1.05-.35-.35-.4-.15-1.25-.7zm2.75 3.35h-.05l-.1-.1zM64 37.15l.4.45.05.05.4.8-.05.1.1.05.25 1.4-.15 1.25v.05l-.05.1-.3 1 .05.5-.2.25-.35-.6-2.9-4.9-1.7-2.25-.4-.45-.55-.6-1.1-1.2-.45-.4.15-.05.15-.1.6-.05.05-.05h.2l.25-.1h.1l.4-.15.45-.1.25.15.2.25-.9.45h-.15l.45.3q1.15.75 2.35 1.65l1.05.85L64 37.05zM9.75 20.85l.3.25-.35-.15zm40.4 17.8-3.55-.35q-3.15-.55-5.2-1.4l-3.75-1.75-.35-.2-.25-.15-2.9-1.75-.85-.55-1.45-1.1v.25l1.45 1.25 3.5 2.05.25.15.95.55q5.55 2.95 11.7 3.45z"/><path fill="#a86000" fill-opacity=".271" d="m52.65 13.95-.1-.4 1.75.95q.95.7 1.95 1.25.1.25 1.85 1.05 2.1 1 3.7 1h.55l.55-.2.5-.4.45-1.3q.25-1.1-.85-1.65l-1.5-.55.2-.1q2.55-.2 3.5-1l.95-.8q-.55 1.15-.85 2.8l-.35 2.6q-.1 1-.5 1.4l-.65.5-.45.05q-1.9 0-4.45-1.25l-1.6-.8-.15-.05q-.15 0-.45-.25l-.65-.25-.7.05-.7.15-1.15 1.2-2.1.6h-.2l-.05.05h-.7l-1.35.35-.5.45-.1.4h.1l.05.05h-.05l-1.3-.45-1.6-.3-.4-.25.1-.5q1.3-1.35 2.35-2h.05l.55.6q.95.85 2.65.85 1.85 0 1.85-2.2zm2 2.5-.05.05h.1zm-2.3 9.6.15-.2.3 1.3q.8 2.1 2.95 2.1.85 0 3.05-1.65l.9-.2q.9.1.9.95L60.2 30l-.85 1.45-.65.5q-.25 0-.5.15l-.95.15-.85-.05-.7-.6-2.8-2-2.15-1.55-.55-.25-.4-.2-.4-.2h.15l1.65-.2q.8-.2 1.15-1.15m.8-9.95v.05l.05-.05-.05-.1z"/><path fill="#fff" fill-opacity=".988" d="m13.6.4.85.5.3.65.65-.2q.7 0 .85.4l.1.7h.6l.35.45.15.6q.75-.15 1 .25l.05.7v.25q1.15.2 1.15.85l-.1.55q1-.15 1 .4l-.1.2-.1.05q-.2-.1-.25-.4h-.4l-.4.3.9 1.4-.3.1-.5-.7-.45 1.2.2.4v.2l-.35-.2h-.05l-2-3.1q-1.85-2.4-4.5-3.2h-.65l-.5.4v.05l-.15.15q-.45.55-.45 1.45l-.1-.05h-.15V4.5l-.55-.3-.45-.25-.15.35-.15.15H8.7l.25.1-.2.15-.6-.2-.35-.15-.05.4-.1.05-.1-.45.05-.5.9-.4-.05-.55.1-.65q.2-.35 1-.3L9.5 1.6q0-.9.7-.9l.85.25q.1-.95.85-.95.55 0 .85.3l.25.45.2-.25zm-.5.9.65.25.05-.45.2-.3-.4-.15q-.35 0-.5.65m-.35-.45L12.1.3l-.05.05.2.55v.2l.6.1zm1.4.1-.15.7.5.25v-.2l-.25-.65zm1 .65-.4.45.5.3.1.05.1-.35.35-.4-.1-.05zm2.5 2.1-.4.3.3.3.05-.3.15-.3zm.1.85.35.45.2-.75-.2-.4zM18.9 5l-.2-.05-.4.1v.15l.35.5.15-.3zm.3.15-.4.7.35.55.1-.3.15-.5zm-1 .7L17.45 5l-.2.55-.15.4.7 1.05.35-1.15zm.2.3-.4 1.1.45.7.3.4.15-.45.35-.7zM16.9 2.7l-.75.1-.1.15.5.4.15-.3.25-.3zm-.9-.9-.45.75.3.2.1-.2.15-.35zm.15 1.7-1.1-1-.4.95.5.35.65.65zm1.05-.05L17.05 3l-.3.5.3.3zm-.8.3-.15.4-.3.45.75.85.2.25.3-1-.5-.65zm-2.55-1.9-.45-.15v1.05l1.05.55.2-.5.25-.4zm-.75-.2-.55-.05-.75.05.35.85 1 .2-.05-1zm.5 2.05-.25.15-.05-.25h.2zm-.65-.25-.25.15-.05-.25h.2zM14.4 4.5l-.1-.25.35.1q-.05.1-.25.15m-.35-.5-.25.15-.05-.25h.2zm2.25 2.15-.2-.3.35.2zm-.6-.9-.15.1-.2-.35h.3zm.25.2.2.15-.2.15-.15-.1.05-.2zM15 5l-.1-.25h.25l.1.1zm2.1 2.05-.25.15-.05-.3h.1zm-.3-.55-.15.15-.15-.1V6.3h.1zm.6 1-.05.1-.1.05-.1-.25h.15zm.1.35h.1l.2.2-.15.15-.15-.1zM10.45 1.3l.15.3.4-.3-.5-.35h-.25zm-.5-.35-.2.65.25.5.35-.35-.35-.8zm1.85-.7q-.6.05-.4.95l.6-.1-.2-.7zm-.25 1.45q-.8.15-1.3.6l.65.65q.4-.4.95-.45l-.15-.25zm-1.45.75-.25.35-.5 1 .45.15.5.25.3-.85.15-.2zm.95 1.1h.15q.2 0 .25.15-.15.15-.2.15l-.2-.1zm.05.65q-.1.15-.25.15l-.1-.25H11zm1.25-.8-.2.05-.05-.25.25-.05.05.15zm-.75.1-.1-.25.35.1q-.1.15-.25.15M9.3 2.2l-.55.2h.05q.3 0 .45.2l.15.2.3-.4-.05-.05zm-.35.7-.25-.3v.25l.25.75.25-.5zm-.5.85q-.5 0-.6.35l.6.2.25.15V4.4l.15-.6-.2.05z"/><path fill="#fff" d="m23.75 12.1-.45-.75q-.6-.7-.95-.7l-.05.3q0 .4.45.8l.4.3h.25zM22.6 12q-.55-.45-.55-1.1 0-.5.45-.5.6 0 1.2 1l.6 1q1.15.65 1.95 2.1l.35.75.65.15.9.3-.4-.85q.6.05 1.05 1.5v.3l-.15.1-.35-.7-1.25-.25-.25-.05.6 1.9-.25.1.1.1-.15.15h-.4q-.6-.2-1.05-.65t-.45-.85q0-.45.35-.8-.6-.05-1.2-.55-.5-.45-.5-.8v-.3l.3-.2.05-.05q-1.5-.5-1.5-1.25l.05-.35.1-.05zm1.2 1.35q.4.2 1.25.5L24 12.75q-.55-.25-.9-.45l-.15.25q0 .45.85.8m1.5.8-1.1-.05-.1.2.15.3 1.4.05zm.4.75h-.85l-.05-.05h-.35l.35.25q.7.4 1.35.5l-.3-.65-.05-.1zm-.1 1.75.65-.1h.25l-.35-.9-.5.35-.2.5.1.3zm.05.3.3.4q.6.55 1.2.4l-.55-.95zm6.3 4.2.7 1.7.05.05v.05l1.5 3.55.6 1.45.1.1v.05l1.8 3.85q1.05 1.9 3.45 3.5l3.15 1.9h.05l.05.05.3.15 2.3.9 2.65.4q1.5-.05 2.65-1.05 1.15-1.05 1.45-1.9l.1-.2.35.05-.4.9-.1.15.65.55.05.05.05.4.1.35.05.05-.4-.4-.5-.95-.8.95-.3.25 1.05 1.6.3-.3.65-.9.35.75-.8.85q.15 0 .3.15.3.3.75.3l.6-.2.1.1-.25.25-.45.15-.5-.1-.2-.1q.3 1.35-.9 1.35l-.75-.15-.2-.25q0 .65-.6.85h-.85l-.6-.45q0 .6-.65.7l-.05.05h-.35q-.6 0-1.05-.6l-.15-.2q-.05.7-.8.7h-.1l-.9-.4-.4-.55-.65.45h-.35v-.05q-.55-.15-.95-.7l-.25-.55-.6.25L42 41l-.05.05-.1-.15-.4-.4-.3-.75-.1-.05-.4.25h-.4q-.65-.15-.9-.65l-.25-.8q-.25 0-.35.2h-.7l-.75-.7q-.15-.25-.15-.9l.05-.3-.55.35h-.6q-.75-.45-.65-2l-.6.15q-1.05 0-1.05-1.45l.2-.9q-1.45-.4-1.45-1.7l.2-1-1.15-.75q-.4-.3-.4-.9l.05-.6q.1-.35.5-.6l-.05-.05-1.35-.55q-.45-.3-.45-.9v-.5l.45-.65.05-.05q-1.05-.4-1.15-.5-.45-.25-.45-.75 0-1.05.9-1.05l.25.15-.25.15-.05-.05q-.35 0-.5.35l-.1.4.45-.25.6-.2-.05-.3.25-.5L31 24l.7-.55.6-.4-.7-1.35v-.25zm-1.8 5 .4-.35.4-.2-.25-.7q-.6.6-.6 1zM29.1 23.7q.15.25.55.4l.9.4-.4-1.3-.4.2zm1.15 2.65.4.3.9.4-.45-1.15zm1.9-.65 1-.9-.75-1.55-1.35.95.75 1.9zm.95-3.95-.05.15-.1.05-.15-.1v-.3h.15zm.35.95-.25.2-.1-.25.25-.05zm.3.85.25.25-.05.15-.15.05q-.2 0-.2-.4zm.8 1.65-.05.15-.1.05q-.25-.2-.2-.4l.15-.05zm.55 1-.2.15-.2-.3v-.1h.15zm-3.25.1.35.85.3.75 1.4-1.3-.65-1.5zm21.4 14.6-.2-.75-.2.1-.65.4.9.8zm-8.3-3.7.05.1-.05.15-.1.05-.15-.05-.05-.25zm-.7-.2-.25.15-.1-.25h.25zm-.8-.25-.25.15-.05-.25h.2zm-.05 1.05-.1 1.9 2.25.9-.15-.8-.1-1.2-1.65-.7zm1.9-.3.3.15-.2.15-.15-.1zm.8.3-.25.15-.1-.25zm.5.05.25.15-.2.15-.15-.05-.05-.25zm1 .25-.2.15-.15-.1.05-.2h.1zm4.6-2.8.2-.05.1.1-.2.2zm-3.8 2.95-.05.1-.1.05-.15-.05-.05-.25h.15zm.6-.05-.25.15-.05-.25h.2zm1.2-.35-.2.2-.1-.25.2-.05zm-.75.4-.2-.1.05-.2.35.15zm2.5-2.45.2.15-.25.15-.05-.3zm-.2.7-.05.15-.1.05-.1-.25.2-.05zm-.45.45-.2.2-.1-.25.2-.05zm-.55.6-.25.15-.05-.25h.2zm.05 1.05-.65.3.95 1.65 1.3-.7-1.05-1.6zM35.35 27.4q-.2 0-.2-.35h.15q.1 0 .25.15zm.35.45.15.1v.15l-.15.1-.15-.3zm.25.95h.25l.05.1-.05.15-.1.05-.15-.1zm.45.6.05.1-.05.15-.1.05-.1-.25zm-1.85-1.25L34 26.8l-.65.6-.75.7.65 1.5.4-.55zM33.1 32.2q.35.35.9.5l-.45-1.05zm.1-.65.2-.2-.45-1-.2.9.2.75zm1.4-.5.75-1.05-.7-1.65-1.3 1.55.85 1.8zm-.1 1.3.8 1.35.3-.4.4-.5.35-.85-.2-.4-.65-1.25-1.2 1.7zm2.4-1.8-.05.1-.1.05-.15-.1v-.2h.1zm-.2-.5-.25.15-.05-.3h.1zm.75 1.5.05.1-.05.15-.1.05-.1-.25zm-.55-.5.2-.05.05.1-.05.15-.1.05zm.65 1.3v-.25h.1l.2.25-.15.1zm-1.9 3.25.15.6.05.25.35-.65.15.15-.65-.7zm-.2-.7-.5-.7-.55.7.4.1.6-.1zm1.5.35.35-.45q.2-.7.5-.85l-1.3-1.75-.95 1.8 1.3 1.5zm-2.75-2.2-.1.25-.1.55.2.9.25-.55.25-.35zM37 36.6l-.65-.65-.35.8.05.1h.55q.2-.2.4-.25m.4.5q0 .8.55 1.2v-.05l.1-.45.2-.25-.8-.6zm-.3-1.35 1.4 1.2.45-.9.45-.7L38 34.1l-.5.9zm4.3-.25-.2.2-.1-.25.2-.05zm-.75-.45-.15.15-.15-.1v-.25h.1zm-1.05-1v.1l-.15.1-.15-.1v-.25h.1zm-.9-.85-.05.15-.1.05-.15-.1v-.2h.25zm-.45-.45-.25.15-.05-.3h.1zm.55.7h.1l.2.15-.25.15zm1.1 1.25-.2-.3.35.15zm-1.4 3-.35.7h.65q.2-.2.35-.3l-.4-.25zm.95 1.05q.25.6.6.85v-.05l.15-.75-.9-.6zm3.25-2.35v.1l-.15.1-.15-.1v-.25h.1zm-.6-.45.1.1-.25.15-.05-.25zm-1.75.05-.75-.5-.85 1.6 2.05 1.3.3-.85.05-.6q0-.3.15-.4zm.6 2.5.55.3 1.45.75.15-1.95-1.55-.9-.35 1.1zm1.25 1.4-.1.85h.25q.4 0 .45-.55l-.4-.2zm-1.9-.25h.3l.4-.4-.55-.3zm1.15.3q.1.5.45.7l.05-.85-.65-.4zm9.4 1.7.3.4.25-.4-.2-.45v-.1l-.85.2h.1zm1.15-.9-.55.25.25.3q.3.35.85.35h.3q-.75-.5-.85-.9m-2.1-1.8-1.55.25h-.15l.1.7.3 1.1 2.25-.4zm-1.75 2.6h-.75l.25.35.9.5h.15l-.55-.7zm2.2-.25-.8.15v.1l.2.15.4.4h.7l-.5-.45zm-1.95.25.25.35.3.45q.4-.1.4-.45l-.15-.4zm-.65-2.4-2.25-.45.4 2 1.8.3h.65l-.6-1.75zM47 41.5l-.85-.1.4.9q.55 0 .55-.55zm-3-.75-.85-.4v.1l.2.6.7.7zm.3.5v.55h.15q.55 0 .55-.45l-.1-.15v-.15l-.6-.2zm1.6.1-.75-.2.25.45q.3.6.85.7zM31.55 27.9q-.15.15-.15.65l.2.6.2-.3.35-.35-.35-.8v-.05zm.35 1.55.9.55-.55-1.25-.2.25-.3.35z"/><path fill-opacity=".298" d="m48.4 27.45 2.05 3.8 2.1 4 1.2 3.6q.65.55-1.75 1.95l-2.5-6.25-2.6-5.75-.1-.1.85-.35.3-.25.05-.05z"/></g><linearGradient id="g" x1="-819.2" x2="819.2" gradientTransform="matrix(.0137 0 0 .0077 44.05 -10.15)" gradientUnits="userSpaceOnUse" spreadMethod="pad"><stop offset="0" stop-color="#cb8600"/><stop offset=".604" stop-color="#ffe56d"/></linearGradient><linearGradient id="h" x1="-819.2" x2="819.2" gradientTransform="matrix(.0122 0 0 .0052 47.8 2)" gradientUnits="userSpaceOnUse" spreadMethod="pad"><stop offset="0" stop-color="#cb8600"/><stop offset=".604" stop-color="#ffe56d"/></linearGradient><path id="f" fill="#57806e" fill-rule="evenodd" d="M26.8 8.55q.55-.6 1.95-.8l2.65-.4q3.15 2.7 4.45 5.6.7 1.45 1 2.95l-.05-.1-2 1.25q-1.85 1.1-3.25-1.75l-1-3.1Q29.5 9.4 26.8 8.55m-6.35.2q-.45-2.3-3.4-3.45-.45-1.25-2.1-2.25l1.6-1q5.6-.25 9.9 1.75l.25.15-2.8 2.4zM22 12.3l3.7 2.25q4.1 6.9 5.5 10.6l.1.2q-11.05.2-19.05-6.15-4.5-3.6-7.05-8.35l-2.1-5.1Q1.6 2.05 0 0l5.35 3.35 4.75 3Q12 7.5 13.9 8.3l1.2.5 1.95.85z"/><use ffdec:characterId="1" xlink:href="#f" id="a" width="36.85" height="25.35"/></defs></svg>