<svg xmlns="http://www.w3.org/2000/svg" xmlns:ffdec="https://www.free-decompiler.com/flash" xmlns:xlink="http://www.w3.org/1999/xlink" ffdec:objectType="frame" width="58" height="37.3"><use ffdec:characterId="1" xlink:href="#a" width="58" height="37.3"/><defs><g id="a" fill-rule="evenodd"><path d="M52.75 25.75v1.2q-.3-2.4-1.2-4.6-1.75-4.4-6.05-7.95-6.55-5.5-16.4-5.5-9.95 0-16.9 5.8-4.15 3.4-5.9 7.7-.75 1.9-1.05 4.05h-.3l.05-.7q.1-1.9.6-3.65h-.65l-.7-.3-.25-.7.25-.7h-.2l-.7-.35-.25-.65.25-.65.35-.2h-.25l-.65-.3-.15-.6.2-.65.2-.15-.6-.35-.2-.55.2-.6.25-.15-.2-.15-.2-.4.2-.5q.15-.15.4-.15l.45.15.25-.25.4-.4.55-.05.55.4.05-.25.55-.5.55-.05.6.45.1.15v-.35q.15-.35.45-.55l.65-.05.6.55.1.15q.15-.4.5-.55l.15-.05h.05l.15.05-.2-.05-.5-.5q-.15-.3 0-.7.1-.4.35-.55l.4-.1-.2-.05-.5-.5v-.65l.35-.55.5-.05L9.5 9l-.45-.4L9 8l.35-.5.25-.1-.15-.15q-.15-.2-.05-.45l.35-.45.5.1.35.2v.3l.05-.4.15-.25.6-.2.55.15.25.6v.2l.25-.4.6-.2.65.15.25.65v.3l.2-.45.65-.25.6.2.35.7v.2q.3-.3.7-.25l.45-.1-.15-.1-.35-.6q-.1-.4.15-.75.25-.3.55-.3l.4-.05-.25-.1-.3-.6.15-.55.6-.5.45.05L18 4q-.3-.2-.35-.6l.15-.55.5-.35h.2v-.2l.05-.45q.2-.25.45-.3l.5.15.5.3.2-.2h.6l.45.35.05.65.3-.1.6.05.55.4.05.75-.05.1.25-.15h.65l.55.45v.75l-.05.2.7-.05.3.05-.1-.15q-.2-.3-.15-.75 0-.35.35-.6l.7-.2.2.05v-.05q-.2-.3-.15-.75l.3-.5.6-.25h.3q-.2-.3-.15-.65l.3-.5.6-.2.25.1-.05-.25.25-.4.5-.1.4.25.15.45V.9l.2-.25.25-.1.65.2.3.5-.15.65h.3l.55.25.35.5-.15.75v.05l.2-.05.65.2.35.6-.15.7.9.2-.05-.2.05-.75.5-.45h.7l.3.25-.1-.2.05-.75.55-.35.6-.05.25.2.1-.75q.1-.25.45-.35h.55l.25.2.15.3.05.1.05-.35q.05-.25.25-.35l.45-.15.45.3.05.45v.2h.25l.5.35.15.55-.35.6.3.05.55.5.1.55-.3.6q0 .15.15.15l.6.3.15.75-.3.8h.25q.4 0 .65.3v-.2q0-.4.35-.7l.65-.2.6.25.2.4V7.2l.3-.65.65-.15.55.2.3.45-.05-.25.3-.6.55-.15.55.2.15.25.1.35V6.6l.35-.2.5-.05.3.45-.05.45-.1.15.2.1.4.5-.05.6-.5.4.2.2.4.55v.65l-.55.5.2.15.35.55v.7l-.55.5.15.05.55.55.1-.15q.15-.35.6-.55l.65.05.45.55v.35l.1-.15.55-.45.6.05.55.5v.45l.05-.2.5-.4.6.05.4.45.05.25.05.35.15-.35q.15-.15.4-.15l.45.15.2.5-.2.4-.2.15.25.15.2.6-.2.55-.6.25.35.9-.2.6q-.3.3-.6.3l.1.2.2.65-.2.65-.7.3h-.2l.25.7-.25.7-.7.3-.7-.05-.35-1.15q-1.65-4.8-6-8.6-6.95-6.05-16.9-6.05-9.9 0-16.9 6.05-4.45 3.8-6 8.65l-.3 2.1.55-2q1.75-4.45 5.9-7.95 6.95-6 16.9-6 9.85 0 16.4 5.7 4.3 3.65 6.05 8.2.9 2.25 1.3 4.75M10.4 7.25l.05.4.4.75.65.6q.35.25.35.15v-.4l-.45-.7-.6-.65q-.3-.25-.4-.15M12.85 7l-.25.3-.05.6.1.75.15.3.25-.3.05-.7V7.2zm1.7 1.05-.55.5-.35.5-.15.35.4-.05.55-.4.45-.6.05-.35zm4.65-5 .15.85.4.75.3.3.1-.4-.2-.85-.35-.75-.3-.3zm1.7 1.65.1.35.3-.2.3-.65.2-.75-.15-.25-.3.2-.25.6zm-2.35 1.6-.7.25-.25.25.35.1.7-.05q.5-.05.65-.2l.3-.3-.35-.1zm-.35-1.85h-.3q-.1.1.05.3l.6.5.6.35.4-.05-.1-.35-.6-.45zm2.05.9-.4.35v.45l.3.4.5.05q.25-.1.4-.35V5.7l-.3-.3zm2.7-.55-.7.25-.5.35-.25.3.4.1.65-.25.6-.4.15-.3zm6.15-3.4-.2.35-.1.85.1.85.2.35.2-.35.1-.85-.1-.85zM31 2.65l-.3.1-.5.5-.4.65v.35l.35-.1.5-.55.4-.6zm-1.5 1.8-.45-.2-.45.2-.2.45.2.45.45.2q.25 0 .45-.2l.2-.45zM30 5l.35.2h.7q.4-.05.7-.2l.25-.25-.3-.15h-.75l-.65.2q-.3.1-.3.2m5-.1-.35.05.15.3.6.4q.4.2.65.25l.4-.1-.25-.3-.5-.35zm1.3-1.6-.15.25.2.75.3.65.3.2.1-.35-.2-.7-.25-.6zm-9.25 1.3h-.75l-.3.15.25.25.7.2h.7L28 5l-.3-.2zm0-1.95q-.1.05-.05.35l.4.6.5.55.35.1V3.9l-.4-.65-.5-.5zm12.7 1.9-.65.3-.6.45-.1.35.4.05.6-.35.6-.5.05-.3zm-1.1-1.8-.3.3-.35.75-.2.85.1.4.3-.3.4-.75.15-.85zm-.3 3.7.3.3q.15.15.65.2L40 7l.35-.1-.25-.25-.7-.25-.7-.05zm13.9 7.7-.2.1-.3.75q-.15.4-.15.7t.15.3l.25-.15.25-.75.15-.6zm-5.1-6.65-.6.65-.45.7v.4l.35-.15.65-.6.4-.75.05-.4zm-2.3-.2v.75q-.05.45.05.7l.25.3.15-.3.1-.75-.05-.6-.25-.3zm-1.45.85L43 8.1l.05.35.45.6.55.4.4.05-.15-.35-.35-.5zm-5.3-1.9V5.8l-.4-.35-.5.05-.3.3v.55l.4.35.5-.05zm9.85 3.15-.7.1-.7.2-.2.3.35.2.7-.15.7-.25.15-.3zm-.35 2.1-.55-.45-.65-.3h-.35l.2.35.5.4.65.3h.4zm6.75 3.95.15-.4-.45.1q-.3.05-.85.4l-.5.55-.15.45.45-.1.7-.35zm-3.05 1.1L51 17l.1.55.4.2.5-.15.25-.35-.1-.55q-.1-.2-.4-.25zm-.6-1.25-.4-.6-.35-.15v.3l.25.7.35.6.4.15v-.4zm3.65 1.9-.7-.1h-.75q-.3.15-.3.2l.3.25.7.1.75-.05.25-.2zm-2.25.75.05.35.45.6.5.45.35.1-.05-.35-.45-.6-.5-.45zM45.75 9.6l-.5-.15q-.25.05-.35.2l-.2.55.25.45.5.1q.2-.05.4-.3L46 10zM12.7 9.35q-.3-.05-.5.15-.2.1-.25.4l.15.45.4.3.5-.1.25-.45-.2-.55q-.1-.15-.35-.2m-1.45.75.35-.2-.2-.3-.7-.2-.7-.1-.3.1.15.3.7.25zm.65.55h-.35q-.2.05-.65.3-.35.15-.55.45l-.2.3h.4l.65-.3.5-.4zM8 14.75v-.3q-.05-.05-.35.15l-.4.6-.25.6v.4l.4-.15.35-.6zm-1.8.15-.3-.75-.2-.1-.15.35.15.6.25.75.25.15.15-.3zm.45 1.55-.45-.1q-.3.05-.4.25l-.1.55.25.35.5.15.4-.2.1-.55zm-3.2-1.5.15.4.65.65.7.35.45.1-.15-.45-.5-.55q-.55-.35-.85-.4zM5.8 18.2l.05-.35-.35.1-.5.45-.45.6-.05.35.35-.1.5-.45zM4.3 17l-.7.1-.25.2.25.2.75.05.7-.1.3-.25-.3-.2z"/><path fill="#333" d="M52.75 25.75q-.4-2.5-1.3-4.75-1.75-4.55-6.05-8.2Q38.85 7.1 29 7.1q-9.95 0-16.9 6-4.15 3.5-5.9 7.95l-.55 2 .3-2.1q1.55-4.85 6-8.65 7-6.05 16.9-6.05 9.95 0 16.9 6.05 4.35 3.8 6 8.6l.35 1.15q.5 1.8.65 3.7"/><path fill="#a20c0b" d="m53.45 22.95 2.45 1.75.05-.05.05.1 1.1 1v.05l.55.65q.45.8.3 1.2-.1 1-.85 2.2-.45.45-.95.2l-.4-.25q.9 1.1 1.1 2.4 0 1.65-1.25 2.95-.65-4.45-2.45-8.55l-.6.2-.4.05h.4l-.3 3.95-.1 6.5q-1.8-.3-3.15-1.9.05-1.45.65-3.1-1.9-.75-3.15-2.05-.5-.8-.4-1.45 1.35-2.95 4.4-5.15l.3-.25v-.15q.95-.95 2.5-.6zm.1 2.75q1 1.7 2.2 2.75 1-.65.75-2.05l-1-1.1q-.7-.6-1.95-1.3l.05.55zm-2.6-1.4q-1.9 1.85-2.4 4.55-.15 1.1 1.85 1.75l.4-.25q.6-.8 1.2-3.8-.65-1.05-.95-1.9zm-48.45 1-1 1.1q-.25 1.4.75 2.05 1.2-1.05 2.2-2.75l-.05-1.15.05-.55q-1.25.7-1.95 1.3m4.45-.65L6 26.55q.6 3 1.2 3.8l.4.25q2-.65 1.85-1.75-.5-2.7-2.4-4.55zm.25-1.25.3.25q3.05 2.2 4.4 5.15.1.65-.4 1.45-1.25 1.3-3.15 2.05.6 1.65.65 3.1-1.35 1.6-3.15 1.9l-.1-6.5-.3-3.95h.4l-.4-.05-.6-.2q-1.8 4.1-2.45 8.55-1.25-1.3-1.25-2.95.2-1.3 1.1-2.4l-.4.25q-.5.25-.95-.2-.75-1.2-.85-2.2-.15-.4.3-1.2l.55-.65v-.05l1.1-1 .05-.1.05.05 2.45-1.75.15-.3q1.55-.35 2.5.6z"/><path fill="#5c1d1b" d="m53.35 23.1.25-.05q.25.05.7.45l.7.55-.25-.05q-.6-.1-.85.25l-.4-.2q-.15-.35-.15-.95m0-.4.05.2-.8.1q-1.15.25-1.15 1.45l.05.35q.2.9.5 1.35l.35.6h-.05q-.3 0-.9-1.05l-.6-1.2q0-.2.15-.25l.3-.25v-.15l-.15-.6-.55.25.2-.3.2-.15q.1-.5 2.1-.5zm-1.7 7.05.8-2.8.05.85-.45 2.6q-.3 1.65-.7 1.7-.4 0-.95 1.05l-.8 1.8q-.3.7 2.4 2.35-2.85-1-3-1.7-.15-.75.1-1.9.3-1.2.5-1.35 1.2.15 2.05-2.6M47.4 26.6q1.45-1.95.95-.85L47.2 28q-.65 1.2.4 2.4l1.7 1.4 1.1-.15.05.1q-.65.5-1.15.45l-1.9-1.1Q46 30 46 29.1q0-.6 1.4-2.5m5.9-.1.2-.85.2.35-.4.85-.1.05 1.75 2.1 1.15 1.2-.95-.1q1 3.15 1 3.75-.1 1.25-.65 1.3l-.6-3.4q-.55-2.25-1.75-4.85l-.05-.1zM6.85 23.25l-.15.6V24l.3.25.15.25-.6 1.2-.9 1.05H5.6l.35-.6.5-1.35.05-.35q0-1.2-1.15-1.45l-.8-.1q.1-.1.05-.2l.3-.15q2 0 2.1.5l.2.15.2.3zm3.7 3.35q1.4 1.9 1.4 2.5 0 .9-1.4 2l-1.9 1.1q-.5.05-1.15-.45l.05-.1 1.1.15q.6-.25 1.7-1.4 1.05-1.2.4-2.4L9.6 25.75q-.5-1.1.95.85m-2.2 5.75.5 1.35q.25 1.15.1 1.9-.15.7-3 1.7 2.7-1.65 2.4-2.35l-.8-1.8Q7 32.1 6.6 32.1q-.4-.05-.7-1.7l-.45-2.6.05-.85.8 2.8q.85 2.75 2.05 2.6M4.6 23.1q0 .6-.15.95l-.4.2Q3.8 23.9 3.2 24l-.25.05.7-.55.7-.45zm.25 3.7-.05.1-1.75 4.85-.6 3.4q-.55-.05-.65-1.3 0-.6 1-3.75l-.95.1L3 29l1.75-2.1-.1-.05-.4-.85.2-.35.2.85z"/></g></defs></svg>