<?xml version="1.0" encoding="UTF-8" standalone="no"?>
<svg xmlns:ffdec="https://www.free-decompiler.com/flash" xmlns:xlink="http://www.w3.org/1999/xlink" ffdec:objectType="frame" height="16.05px" width="31.15px" xmlns="http://www.w3.org/2000/svg">
  <g transform="matrix(1.0, 0.0, 0.0, 1.0, -6.45, 9.25)">
    <use ffdec:characterId="1" height="7.8" transform="matrix(1.0, 0.0, 0.0, 1.0, 7.6, -1.0)" width="29.25" xlink:href="#shape0"/>
    <use ffdec:characterId="3" height="18.95" transform="matrix(0.8299, 0.0, 0.0, 0.8299, 6.4626, -9.2629)" width="37.3" xlink:href="#sprite0"/>
    <use ffdec:characterId="4" height="14.5" transform="matrix(1.0, 0.0, 0.0, 1.0, 6.7, -8.2)" width="30.9" xlink:href="#shape2"/>
  </g>
  <defs>
    <g id="shape0" transform="matrix(1.0, 0.0, 0.0, 1.0, -7.6, 1.0)">
      <path d="M36.85 -0.65 L36.05 2.6 Q35.1 5.1 33.8 6.8 27.25 4.4 22.2 4.45 17.65 4.55 10.6 6.75 8.5 4.25 7.6 -0.6 7.55 -0.95 22.25 -1.0 36.95 -1.0 36.85 -0.65" fill="#000000" fill-opacity="0.29803923" fill-rule="evenodd" stroke="none"/>
    </g>
    <g id="sprite0" transform="matrix(1.0, 0.0, 0.0, 1.0, 30.05, 1.1)">
      <use ffdec:characterId="2" height="18.95" transform="matrix(1.0, 0.0, 0.0, 1.0, -30.05, -1.1)" width="37.3" xlink:href="#shape1"/>
    </g>
    <g id="shape1" transform="matrix(1.0, 0.0, 0.0, 1.0, 30.05, 1.1)">
      <path d="M-29.6 7.0 L-29.6 6.9 -29.65 5.2 -29.65 4.7 -29.55 3.05 Q-29.5 2.75 -26.4 1.6 L-23.75 0.75 Q-21.05 -0.05 -18.05 -0.5 -7.75 -2.1 1.35 0.75 L5.7 2.45 7.1 3.1 7.25 4.8 7.25 5.2 7.1 6.95 7.1 7.0 6.8 8.9 6.45 10.35 5.7 12.85 4.4 15.45 2.65 17.8 Q-5.5 14.8 -11.25 14.8 -17.0 14.8 -25.3 17.85 -28.45 14.1 -29.4 8.95 L-29.6 7.15 -29.6 7.0" fill="#33cccc" fill-rule="evenodd" stroke="none"/>
      <path d="M-29.6 7.0 L-30.0 7.0" fill="none" stroke="#ffffff" stroke-linecap="round" stroke-linejoin="round" stroke-width="0.1"/>
    </g>
    <g id="shape2" transform="matrix(1.0, 0.0, 0.0, 1.0, -6.7, 8.2)">
      <path d="M6.7 -5.25 L6.9 -4.75 Q21.35 -11.75 37.2 -4.45 L37.3 -5.25 37.2 -3.8 Q19.85 -11.5 6.85 -3.85 L6.85 -3.6 6.95 -3.65 7.0 -3.35 Q21.45 -10.35 37.3 -3.05 L37.4 -3.85 37.3 -2.4 Q19.9 -10.1 6.85 -2.4 L6.8 -3.8 6.75 -3.8 6.75 -4.05 6.7 -5.25 M31.15 -3.55 L33.95 -2.8 33.65 -0.8 35.75 0.25 34.95 3.05 32.85 2.35 31.95 4.75 29.25 3.95 30.05 1.6 27.45 0.85 28.25 -1.95 30.85 -1.6 31.15 -3.55" fill="#ffffff" fill-rule="evenodd" stroke="none"/>
      <path d="M10.85 1.9 L11.1 1.85 11.3 1.9 11.6 2.25 12.75 5.45 12.8 5.9 12.75 5.95 12.45 6.25 12.3 6.3 11.9 6.2 11.6 5.9 10.45 2.7 10.4 2.3 10.4 2.2 Q10.6 2.0 10.85 1.9 M13.05 1.4 L13.5 1.4 13.8 1.7 14.95 4.9 14.95 5.4 14.65 5.75 14.1 5.7 13.8 5.35 12.65 2.15 12.6 1.65 13.05 1.4" fill="#33ffff" fill-rule="evenodd" stroke="none"/>
      <path d="M36.95 -1.1 Q35.85 3.75 33.7 6.2 31.55 5.05 28.3 4.35 21.9 3.0 14.95 4.8 L13.9 1.95 22.2 2.9 Q24.5 3.15 28.0 1.75 33.6 -0.55 36.2 -6.2 L37.6 -5.5 36.95 -1.1 M11.2 1.9 L10.7 2.05 10.3 2.4 11.55 5.85 10.45 6.3 8.9 3.2 Q7.25 -0.15 7.0 -2.25 7.9 0.65 12.55 1.9 L13.65 5.0 12.7 5.35 11.4 2.05 11.2 1.9" fill="#000000" fill-opacity="0.29803923" fill-rule="evenodd" stroke="none"/>
      <path d="M13.25 1.35 L13.6 1.5 13.75 1.85 13.6 2.2 13.25 2.35 12.9 2.2 12.75 1.85 12.9 1.5 Q13.05 1.35 13.25 1.35 M10.55 2.45 L10.7 2.1 Q10.85 1.95 11.05 1.95 L11.4 2.1 11.55 2.45 11.4 2.8 11.05 2.95 10.7 2.8 10.55 2.45" fill="#ffffff" fill-rule="evenodd" stroke="none"/>
    </g>
  </defs>
</svg>
