<?xml version="1.0" encoding="UTF-8" standalone="no"?>
<svg xmlns:ffdec="https://www.free-decompiler.com/flash" xmlns:xlink="http://www.w3.org/1999/xlink" ffdec:objectType="frame" height="19.75px" width="45.65px" xmlns="http://www.w3.org/2000/svg">
  <g transform="matrix(1.0, 0.0, 0.0, 1.0, -0.05, -0.2)">
    <use ffdec:characterId="1" height="19.75" transform="matrix(1.0, 0.0, 0.0, 1.0, 0.05, 0.2)" width="45.65" xlink:href="#shape0"/>
  </g>
  <defs>
    <g id="shape0" transform="matrix(1.0, 0.0, 0.0, 1.0, -0.05, -0.2)">
      <path d="M33.1 2.5 Q35.6 4.85 35.8 6.3 L35.85 7.4 35.7 7.2 35.3 7.1 34.85 6.7 34.25 6.55 33.15 5.85 27.75 4.5 27.55 4.55 27.3 4.5 22.3 4.15 Q18.5 4.0 15.7 4.75 L11.55 6.25 10.7 6.85 10.6 6.85 10.15 7.15 10.25 6.25 Q11.0 3.75 12.5 2.2 16.6 0.3 21.85 0.2 L22.0 0.2 Q28.45 0.35 33.1 2.5" fill="#b41010" fill-rule="evenodd" stroke="none"/>
      <path d="M33.1 2.5 L34.1 3.0 33.25 2.5 35.7 4.0 35.9 4.1 Q41.0 7.65 43.15 12.05 45.3 16.5 45.7 19.95 L43.7 16.5 41.35 13.6 Q39.6 11.7 37.65 10.1 L37.15 9.7 36.65 9.3 35.3 8.3 Q34.6 7.85 33.9 7.5 30.35 5.6 25.85 5.1 L22.0 4.9 Q16.0 4.7 10.35 8.15 8.2 9.4 6.15 11.2 3.5 13.5 1.6 16.35 0.75 17.55 0.05 18.9 L0.8 16.5 1.35 14.9 Q4.95 5.6 12.5 2.2 11.0 3.75 10.25 6.25 L10.15 7.15 10.6 6.85 10.7 6.85 11.55 6.25 15.7 4.75 Q18.5 4.0 22.3 4.15 L27.3 4.5 27.55 4.55 27.75 4.5 33.15 5.85 34.25 6.55 34.85 6.7 35.3 7.1 35.7 7.2 35.85 7.4 35.8 6.3 Q35.6 4.85 33.1 2.5" fill="#740909" fill-rule="evenodd" stroke="none"/>
      <path d="M38.2 3.9 L38.65 4.15 38.85 4.45 39.4 4.3 Q40.1 4.4 40.2 4.8 40.55 4.2 40.8 4.2 41.2 4.2 41.7 5.05 L42.0 5.15 42.4 5.0 Q43.2 4.65 43.05 5.55 L42.6 6.1 43.2 6.45 43.3 6.5 43.2 6.5 43.1 6.65 42.9 6.7 Q42.6 7.05 42.35 6.45 L41.95 6.35 Q42.45 6.7 42.1 7.15 L41.95 7.25 Q41.4 7.1 41.9 7.5 L41.95 7.7 41.75 8.05 41.85 8.15 Q42.15 8.55 41.75 8.85 L41.75 8.95 41.25 8.85 41.35 9.1 Q41.9 9.5 41.15 9.3 L41.1 9.4 Q41.7 9.85 41.05 9.9 41.15 10.25 40.85 10.55 L39.75 10.15 39.7 10.25 38.95 10.2 38.95 10.1 Q38.95 9.45 38.45 9.8 38.65 8.95 38.25 8.6 L38.05 8.65 Q37.4 9.0 37.55 8.3 L36.8 8.15 36.85 7.85 36.85 7.7 Q37.45 7.6 37.3 7.0 L37.2 6.75 37.25 6.6 38.0 6.65 38.3 6.4 38.4 6.0 38.0 5.4 Q38.4 5.0 38.15 4.05 L38.15 3.95 38.2 3.9 M30.45 5.4 Q30.2 5.25 30.05 4.7 L30.1 4.2 29.85 4.05 29.55 3.65 Q29.4 2.8 30.35 2.95 L30.4 3.0 30.4 2.75 30.9 2.15 30.7 1.85 Q30.5 0.95 31.4 1.25 L31.7 1.4 32.15 1.05 Q32.85 0.85 33.1 1.2 33.15 0.55 33.45 0.45 33.75 0.25 34.55 0.9 L34.85 0.9 35.15 0.5 Q35.8 -0.15 36.0 0.7 L35.8 1.45 36.5 1.6 36.55 1.6 36.5 1.65 36.5 1.75 Q36.4 2.0 36.3 1.9 L35.7 1.85 35.35 1.9 Q35.95 2.05 35.75 2.55 L35.7 2.75 Q35.1 2.8 35.75 2.95 L35.85 3.2 35.75 3.6 35.95 3.65 Q36.4 3.8 36.1 4.3 L36.15 4.4 35.6 4.55 35.9 4.65 Q36.5 4.85 35.7 5.0 L35.8 5.05 Q36.45 5.25 35.85 5.6 36.15 5.8 35.95 6.25 L34.75 6.3 34.75 6.4 Q34.55 6.9 34.05 6.65 L34.05 6.55 Q33.8 6.0 33.4 6.55 33.3 5.65 32.75 5.5 L32.65 5.6 Q32.2 6.15 32.0 5.45 L31.25 5.6 31.2 5.35 Q31.0 4.7 31.2 4.35 L30.55 5.05 30.45 5.4" fill="#ffffff" fill-rule="evenodd" stroke="none"/>
      <path d="M43.3 6.5 L43.55 6.9 43.35 7.35 43.5 7.55 43.4 8.1 43.6 8.15 Q44.2 8.25 44.1 8.8 L43.75 9.3 43.75 9.45 Q43.55 10.35 43.05 10.65 L43.2 11.3 42.9 11.6 42.55 11.75 41.85 11.45 41.75 11.55 41.75 11.8 Q41.65 12.35 41.05 12.25 L40.45 12.4 40.05 12.2 40.05 12.25 Q39.95 12.75 39.5 12.65 38.9 12.55 38.9 12.2 L38.7 12.1 38.3 12.35 37.75 11.9 37.75 11.55 37.6 11.5 37.2 11.5 36.65 11.1 36.65 10.85 36.65 10.7 36.6 10.65 36.15 10.3 Q35.75 9.9 36.15 9.15 L35.65 8.75 35.55 8.75 Q35.0 8.85 34.85 8.55 L34.65 8.55 34.35 8.9 Q33.95 9.0 33.65 8.7 L33.45 8.4 33.4 8.35 33.0 8.55 32.35 8.45 32.2 8.2 32.2 8.1 32.15 8.05 31.55 7.9 Q31.0 7.7 31.1 6.85 L30.3 6.55 30.1 6.15 Q30.1 5.8 30.4 5.5 L30.5 5.45 30.45 5.4 30.55 5.05 31.2 4.35 Q31.0 4.7 31.2 5.35 L31.25 5.6 32.0 5.45 Q32.2 6.15 32.65 5.6 L32.75 5.5 Q33.3 5.65 33.4 6.55 33.8 6.0 34.05 6.55 L34.05 6.65 Q34.55 6.9 34.75 6.4 L34.75 6.3 35.95 6.25 Q36.15 5.8 35.85 5.6 36.45 5.25 35.8 5.05 L35.7 5.0 Q36.5 4.85 35.9 4.65 L35.6 4.55 36.15 4.4 36.1 4.3 Q36.4 3.8 35.95 3.65 L35.75 3.6 35.85 3.2 35.75 2.95 Q35.1 2.8 35.7 2.75 L35.75 2.55 Q35.95 2.05 35.35 1.9 L35.7 1.85 36.3 1.9 Q36.4 2.0 36.5 1.75 L36.5 1.65 36.55 1.6 Q36.95 1.55 37.0 1.8 L36.95 2.25 37.2 2.5 Q37.35 2.5 37.3 3.0 L37.55 2.9 Q38.15 2.8 38.25 3.4 L38.2 3.9 38.15 3.95 38.15 4.05 Q38.4 5.0 38.0 5.4 L38.4 6.0 38.3 6.4 38.0 6.65 37.25 6.6 37.2 6.75 37.3 7.0 Q37.45 7.6 36.85 7.7 L36.85 7.85 36.8 8.15 37.55 8.3 Q37.4 9.0 38.05 8.65 L38.25 8.6 Q38.65 8.95 38.45 9.8 38.95 9.45 38.95 10.1 L38.95 10.2 39.7 10.25 39.75 10.15 40.85 10.55 Q41.15 10.25 41.05 9.9 41.7 9.85 41.1 9.4 L41.15 9.3 Q41.9 9.5 41.35 9.1 L41.25 8.85 41.75 8.95 41.75 8.85 Q42.15 8.55 41.85 8.15 L41.75 8.05 41.95 7.7 41.9 7.5 Q41.4 7.1 41.95 7.25 L42.1 7.15 Q42.45 6.7 41.95 6.35 L42.35 6.45 Q42.6 7.05 42.9 6.7 L43.1 6.65 43.2 6.5 43.3 6.5" fill="#f3dfef" fill-rule="evenodd" stroke="none"/>
    </g>
  </defs>
</svg>
