<?xml version="1.0" encoding="UTF-8" standalone="no"?>
<svg xmlns:ffdec="https://www.free-decompiler.com/flash" xmlns:xlink="http://www.w3.org/1999/xlink" ffdec:objectType="frame" height="38.9px" width="46.6px" xmlns="http://www.w3.org/2000/svg">
  <g transform="matrix(1.0, 0.0, 0.0, 1.0, 1.0, 28.55)">
    <use ffdec:characterId="2" height="38.9" transform="matrix(1.0, 0.0, 0.0, 1.0, -1.0, -28.55)" width="46.6" xlink:href="#sprite0"/>
    <use ffdec:characterId="3" height="28.55" transform="matrix(1.0, 0.0, 0.0, 1.0, -0.5, -18.2)" width="45.8" xlink:href="#shape1"/>
  </g>
  <defs>
    <g id="sprite0" transform="matrix(1.0, 0.0, 0.0, 1.0, 1.0, 28.55)">
      <use ffdec:characterId="1" height="38.9" transform="matrix(1.0, 0.0, 0.0, 1.0, -1.0, -28.55)" width="46.6" xlink:href="#shape0"/>
    </g>
    <g id="shape0" transform="matrix(1.0, 0.0, 0.0, 1.0, 1.0, 28.55)">
      <path d="M18.05 10.1 L18.7 10.3 18.9 10.35 18.25 10.15 18.05 10.1" fill="#ffffff" fill-rule="evenodd" stroke="none"/>
      <path d="M23.7 -28.45 Q28.45 -27.9 31.45 -25.9 34.45 -23.9 32.6 -20.85 34.3 -22.5 37.75 -21.8 41.0 -21.1 43.2 -19.05 45.25 -17.1 45.55 -13.7 45.7 -11.9 45.3 -10.45 45.0 -9.4 44.35 -8.55 42.8 -6.45 40.1 -6.3 L37.7 -6.55 35.4 2.9 32.35 4.05 Q27.95 5.45 22.55 5.5 L12.7 4.6 11.85 4.45 8.4 3.5 7.95 1.6 6.35 -6.5 6.45 -6.55 6.35 -6.55 6.35 -6.5 Q3.75 -6.05 1.5 -8.0 0.1 -9.15 -0.5 -10.6 L-0.95 -12.4 Q-1.35 -16.55 1.1 -19.2 2.05 -20.2 2.8 -20.45 L5.0 -21.2 8.55 -21.9 12.0 -21.6 13.05 -21.0 12.65 -23.0 Q12.45 -25.25 15.7 -27.1 18.9 -29.0 23.7 -28.45" fill="#93568a" fill-rule="evenodd" stroke="none"/>
    </g>
    <g id="shape1" transform="matrix(1.0, 0.0, 0.0, 1.0, 0.5, 18.2)">
      <path d="M14.35 4.9 L12.7 4.6 11.85 4.45 8.4 3.5 7.95 1.6 6.35 -6.5 6.45 -6.55 6.35 -6.55 6.35 -6.5 Q3.75 -6.05 1.5 -8.0 0.1 -9.15 -0.5 -10.6 3.15 -9.5 6.9 -9.7 14.9 -9.95 15.2 -16.8 16.35 -14.05 22.1 -12.8 27.85 -11.6 32.0 -18.2 31.9 -13.95 34.8 -10.9 37.7 -7.85 45.3 -10.45 45.0 -9.4 44.35 -8.55 42.8 -6.45 40.1 -6.3 L37.7 -6.55 35.4 2.9 32.35 4.05 29.0 4.9 30.75 3.65 Q33.8 0.65 33.05 -2.85 32.3 -6.35 29.4 -8.05 26.5 -9.8 22.5 -9.8 18.5 -9.8 15.25 -8.0 12.0 -6.25 11.2 -3.45 10.35 -0.7 12.65 3.1 13.35 4.25 14.35 4.9 M18.05 10.1 L18.7 10.3 18.9 10.35 18.25 10.15 18.05 10.1" fill="#000000" fill-opacity="0.29803923" fill-rule="evenodd" stroke="none"/>
      <path d="M14.35 4.9 Q13.35 4.25 12.65 3.1 10.35 -0.7 11.2 -3.45 12.0 -6.25 15.25 -8.0 18.5 -9.8 22.5 -9.8 26.5 -9.8 29.4 -8.05 32.3 -6.35 33.05 -2.85 33.8 0.65 30.75 3.65 L29.0 4.9 Q26.15 6.4 21.65 5.75 L20.1 5.5 14.35 4.9" fill="#ffffff" fill-opacity="0.29803923" fill-rule="evenodd" stroke="none"/>
      <path d="M8.25 -7.2 Q5.45 -8.6 5.75 -11.05 L8.25 -7.2 M13.95 -9.2 L15.1 -10.55 Q15.95 -11.8 15.9 -13.2 16.45 -10.5 19.3 -10.1 L13.95 -9.2 M9.85 -8.0 Q10.25 -8.4 10.0 -10.5 9.7 -12.65 8.9 -13.8 9.9 -12.9 12.6 -8.8 11.6 -8.85 10.55 -8.2 9.45 -7.6 9.85 -8.0 M26.2 -13.1 Q26.0 -10.4 25.55 -10.15 L24.6 -9.8 22.85 -10.0 22.8 -10.0 21.05 -10.2 Q21.25 -13.9 21.6 -13.95 L21.75 -12.6 Q22.0 -10.4 22.85 -10.2 25.7 -12.3 26.05 -14.05 26.35 -15.85 26.2 -13.1 M29.55 -10.7 Q30.9 -11.4 31.1 -13.3 L31.2 -11.25 Q31.4 -9.65 33.65 -8.2 31.45 -8.95 25.0 -9.85 28.05 -10.0 29.55 -10.7 M36.85 -6.65 L40.25 -9.45 Q39.9 -7.2 36.85 -6.65 M38.0 -10.9 L35.95 -7.3 Q35.1 -7.6 34.75 -7.95 L34.5 -8.3 Q35.2 -7.55 36.6 -9.15 L38.0 -10.9" fill="#000000" fill-opacity="0.4862745" fill-rule="evenodd" stroke="none"/>
      <path d="M33.95 -2.85 L34.05 -1.95 33.3 3.6 32.9 4.5 Q32.65 4.85 32.3 4.8 L31.8 4.35 Q31.65 3.95 31.75 3.4 L32.5 -2.15 32.85 -3.0 Q33.15 -3.35 33.45 -3.3 L33.95 -2.85" fill="#cc0000" fill-rule="evenodd" stroke="none"/>
      <path d="M33.95 -2.55 L34.05 -2.2 33.15 3.9 33.0 4.25 32.8 4.35 32.6 4.15 32.55 3.8 33.45 -2.3 33.55 -2.65 33.8 -2.75 33.95 -2.55" fill="#000000" fill-opacity="0.29803923" fill-rule="evenodd" stroke="none"/>
      <path d="M30.95 -2.3 L31.15 -1.35 30.75 4.25 30.45 5.15 29.9 5.5 29.4 5.05 Q29.2 4.7 29.25 4.15 L29.65 -1.45 29.9 -2.4 30.45 -2.7 30.95 -2.3" fill="#cc0000" fill-rule="evenodd" stroke="none"/>
      <path d="M31.05 -2.0 L31.1 -1.65 30.65 4.55 30.6 4.9 30.3 5.05 30.15 4.85 30.1 4.5 30.55 -1.7 30.6 -2.05 30.8 -2.15 31.05 -2.0" fill="#000000" fill-opacity="0.29803923" fill-rule="evenodd" stroke="none"/>
    </g>
  </defs>
</svg>
