<?xml version="1.0" encoding="UTF-8" standalone="no"?>
<svg xmlns:ffdec="https://www.free-decompiler.com/flash" xmlns:xlink="http://www.w3.org/1999/xlink" ffdec:objectType="frame" height="74.7px" width="86.75px" xmlns="http://www.w3.org/2000/svg">
  <g transform="matrix(1.0, 0.0, 0.0, 1.0, 20.4, 27.25)">
    <use ffdec:characterId="1" height="74.7" transform="matrix(1.0, 0.0, 0.0, 1.0, -20.4, -27.25)" width="86.75" xlink:href="#shape0"/>
    <use ffdec:characterId="3" height="44.7" transform="matrix(0.4207, 0.0514, 0.1202, 0.3927, 25.95, -7.15)" width="44.7" xlink:href="#sprite0"/>
  </g>
  <defs>
    <g id="shape0" transform="matrix(1.0, 0.0, 0.0, 1.0, 20.4, 27.25)">
      <path d="M36.5 -6.0 L36.45 -6.3 Q36.35 -7.0 37.25 -7.4 L38.55 -7.55 39.3 -7.05 Q40.85 -6.45 41.4 -7.5 42.15 -8.35 41.7 -9.1 L40.9 -10.35 Q40.75 -11.1 42.3 -11.8 L46.1 -13.15 Q48.3 -14.0 49.45 -15.5 50.85 -17.3 51.25 -17.3 51.7 -17.35 51.05 -15.55 L51.05 -15.5 Q50.6 -14.35 49.4 -13.1 L48.1 -12.1 Q46.85 -11.25 45.55 -10.8 L43.7 -10.3 Q44.1 -9.85 43.95 -9.2 L43.3 -8.45 Q43.75 -7.4 42.75 -7.3 L42.75 -7.25 Q42.8 -6.7 42.3 -6.4 L42.25 -6.3 41.7 -6.2 Q41.65 -5.65 40.9 -5.5 L40.85 -5.5 40.05 -5.65 Q39.45 -5.2 38.95 -5.35 L38.7 -5.4 38.25 -5.75 Q37.8 -5.35 37.3 -5.4 L37.0 -5.45 36.7 -5.7 36.5 -6.0" fill="url(#gradient0)" fill-rule="evenodd" stroke="none"/>
      <path d="M36.75 -2.7 L35.3 -1.65 34.4 -1.1 34.65 -2.9 Q35.2 -4.85 36.5 -6.0 L36.7 -5.7 37.0 -5.45 Q36.45 -4.05 36.75 -2.7" fill="url(#gradient1)" fill-rule="evenodd" stroke="none"/>
      <path d="M36.75 -2.6 L36.75 -2.7 Q36.45 -4.05 37.0 -5.45 L37.3 -5.4 37.6 -4.45 37.8 -4.1 38.3 -4.4 Q38.9 -4.85 38.95 -5.35 L39.05 -5.2 Q39.1 -4.25 38.65 -3.3 L38.65 -3.2 37.35 -1.15 Q37.0 -1.55 36.8 -2.25 L36.75 -2.6" fill="url(#gradient2)" fill-rule="evenodd" stroke="none"/>
      <path d="M41.4 2.25 Q41.0 4.6 39.85 7.0 39.2 6.05 38.8 4.25 38.25 1.8 38.35 -0.75 38.35 -2.0 38.65 -3.2 L38.65 -3.3 Q38.9 -1.15 40.3 0.5 L40.95 -2.0 41.45 -0.75 41.45 1.8 41.4 2.25" fill="url(#gradient3)" fill-rule="evenodd" stroke="none"/>
      <path d="M37.3 -5.4 Q37.8 -5.35 38.25 -5.75 L38.7 -5.4 38.95 -5.35 Q38.9 -4.85 38.3 -4.4 L37.8 -4.1 37.6 -4.45 37.3 -5.4" fill="url(#gradient4)" fill-rule="evenodd" stroke="none"/>
      <path d="M38.95 -5.35 Q39.45 -5.2 40.05 -5.65 L40.85 -5.5 40.9 -5.2 40.65 -4.25 Q40.4 -3.85 39.95 -3.65 39.2 -3.95 39.05 -5.2 L38.95 -5.35" fill="url(#gradient5)" fill-rule="evenodd" stroke="none"/>
      <path d="M38.65 -3.3 Q39.1 -4.25 39.05 -5.2 39.2 -3.95 39.95 -3.65 40.4 -3.85 40.65 -4.25 41.2 -3.3 40.95 -2.0 L40.3 0.5 Q38.9 -1.15 38.65 -3.3" fill="url(#gradient6)" fill-rule="evenodd" stroke="none"/>
      <path d="M38.35 -0.75 Q38.05 1.55 35.8 3.25 L35.8 1.05 Q35.95 -1.35 36.75 -2.6 L36.8 -2.25 Q37.0 -1.55 37.35 -1.15 L38.65 -3.2 Q38.35 -2.0 38.35 -0.75" fill="url(#gradient7)" fill-rule="evenodd" stroke="none"/>
      <path d="M51.25 -17.3 Q54.5 -21.7 57.05 -27.15 57.7 -27.25 57.65 -26.0 57.55 -23.55 54.3 -17.2 L51.05 -15.5 51.05 -15.55 Q51.7 -17.35 51.25 -17.3" fill="url(#gradient8)" fill-rule="evenodd" stroke="none"/>
      <path d="M55.5 -14.0 Q59.15 -15.0 66.35 -17.55 65.4 -16.2 63.4 -14.5 60.0 -11.6 55.5 -10.3 L54.55 -10.25 53.8 -10.05 54.3 -10.75 49.15 -10.55 Q51.75 -11.6 53.2 -13.25 L53.35 -13.6 55.5 -14.0" fill="url(#gradient9)" fill-rule="evenodd" stroke="none"/>
      <path d="M45.55 -10.8 Q46.85 -11.25 48.1 -12.1 L49.4 -13.1 Q51.3 -13.95 53.7 -14.0 L53.35 -13.6 53.2 -13.25 Q51.75 -11.6 49.15 -10.55 L46.9 -10.3 Q46.3 -10.8 45.55 -10.8" fill="url(#gradient10)" fill-rule="evenodd" stroke="none"/>
      <path d="M54.3 -17.2 Q56.85 -18.65 59.65 -20.95 L63.55 -24.45 Q62.85 -22.65 61.55 -20.45 58.9 -16.15 55.5 -14.0 L53.35 -13.6 53.7 -14.0 Q51.3 -13.95 49.4 -13.1 50.6 -14.35 51.05 -15.5 L54.3 -17.2" fill="url(#gradient11)" fill-rule="evenodd" stroke="none"/>
      <path d="M49.15 -10.55 L54.3 -10.75 53.8 -10.05 Q52.2 -8.45 50.35 -8.25 L45.2 -8.7 44.45 -9.05 Q45.8 -9.05 47.35 -9.9 L46.9 -10.3 49.15 -10.55" fill="url(#gradient12)" fill-rule="evenodd" stroke="none"/>
      <path d="M43.95 -9.2 Q44.1 -9.85 43.7 -10.3 L45.55 -10.8 Q46.3 -10.8 46.9 -10.3 L47.35 -9.9 Q45.8 -9.05 44.45 -9.05 L43.95 -9.2" fill="url(#gradient13)" fill-rule="evenodd" stroke="none"/>
      <path d="M42.75 -7.25 L42.75 -7.3 Q43.75 -7.4 43.3 -8.45 L43.95 -9.2 44.45 -9.05 45.2 -8.7 46.25 -7.7 Q45.55 -7.25 44.85 -7.15 L42.75 -7.25" fill="url(#gradient14)" fill-rule="evenodd" stroke="none"/>
      <path d="M40.9 -5.5 Q41.65 -5.65 41.7 -6.2 L42.25 -6.3 42.45 -5.35 42.25 -4.05 41.65 -4.25 Q41.0 -4.6 40.9 -5.2 L40.9 -5.5" fill="url(#gradient15)" fill-rule="evenodd" stroke="none"/>
      <path d="M42.25 -6.3 L42.3 -6.4 Q42.8 -6.7 42.75 -7.25 43.8 -6.65 44.2 -5.4 L44.25 -4.95 Q43.15 -4.95 42.45 -5.35 L42.25 -6.3" fill="url(#gradient16)" fill-rule="evenodd" stroke="none"/>
      <path d="M42.75 -7.25 L44.85 -7.15 Q46.5 -6.7 48.05 -5.75 L49.25 -4.75 50.95 -3.15 50.9 -3.15 Q47.65 -2.9 45.8 -3.85 L44.2 -5.4 Q43.8 -6.65 42.75 -7.25" fill="url(#gradient17)" fill-rule="evenodd" stroke="none"/>
      <path d="M44.2 -5.4 L45.8 -3.85 46.4 -2.9 Q47.15 -1.65 47.45 -0.2 44.35 -1.25 43.4 -2.55 L42.45 -5.35 Q43.15 -4.95 44.25 -4.95 L44.2 -5.4" fill="url(#gradient18)" fill-rule="evenodd" stroke="none"/>
      <path d="M40.95 -2.0 Q41.2 -3.3 40.65 -4.25 L40.9 -5.2 Q41.0 -4.6 41.65 -4.25 L42.25 -4.05 42.45 -5.35 43.4 -2.55 Q43.8 -0.45 43.5 1.45 42.2 0.55 41.45 -0.75 L40.95 -2.0" fill="url(#gradient19)" fill-rule="evenodd" stroke="none"/>
      <path d="M51.3 -2.95 Q54.3 -1.35 56.85 1.0 L58.85 3.25 55.1 2.7 Q51.0 1.75 48.7 -0.25 47.6 -2.0 46.4 -2.9 L45.8 -3.85 Q47.65 -2.9 50.9 -3.15 L50.95 -3.1 51.3 -2.95" fill="url(#gradient20)" fill-rule="evenodd" stroke="none"/>
      <path d="M48.7 -0.25 L50.45 3.1 52.15 7.1 Q47.6 4.8 44.6 0.75 L43.4 -2.55 Q44.35 -1.25 47.45 -0.2 47.15 -1.65 46.4 -2.9 47.6 -2.0 48.7 -0.25" fill="url(#gradient21)" fill-rule="evenodd" stroke="none"/>
      <path d="M52.85 -6.55 Q58.4 -6.2 62.7 -3.85 57.15 -2.25 51.3 -2.95 L50.95 -3.1 50.9 -3.15 50.95 -3.15 49.25 -4.75 48.05 -5.75 Q51.0 -5.75 52.85 -6.55" fill="url(#gradient22)" fill-rule="evenodd" stroke="none"/>
      <path d="M53.5 -6.8 L52.85 -6.55 Q51.0 -5.75 48.05 -5.75 46.5 -6.7 44.85 -7.15 45.55 -7.25 46.25 -7.7 L45.2 -8.7 50.35 -8.25 51.7 -7.95 Q53.05 -7.5 53.7 -7.0 L53.5 -6.8" fill="url(#gradient23)" fill-rule="evenodd" stroke="none"/>
      <path d="M55.5 -10.3 L61.05 -10.4 65.05 -10.1 Q63.75 -9.3 61.55 -8.5 57.35 -6.8 53.5 -6.8 L53.7 -7.0 Q53.05 -7.5 51.7 -7.95 L50.35 -8.25 Q52.2 -8.45 53.8 -10.05 L54.55 -10.25 55.5 -10.3" fill="url(#gradient24)" fill-rule="evenodd" stroke="none"/>
      <path d="M44.6 0.75 Q45.3 3.15 45.1 5.45 45.05 7.35 44.55 8.4 41.9 5.7 41.4 2.25 L41.45 1.8 41.45 -0.75 Q42.2 0.55 43.5 1.45 43.8 -0.45 43.4 -2.55 L44.6 0.75" fill="url(#gradient25)" fill-rule="evenodd" stroke="none"/>
      <path d="M-5.3 -17.4 Q-4.9 -17.4 -3.5 -15.6 -2.35 -14.1 -0.15 -13.25 L3.6 -11.9 Q5.2 -11.2 5.05 -10.45 L4.25 -9.2 Q3.8 -8.45 4.55 -7.6 5.1 -6.55 6.65 -7.15 L7.4 -7.65 8.7 -7.5 Q9.6 -7.1 9.5 -6.4 L9.45 -6.1 9.25 -5.8 8.95 -5.55 8.65 -5.5 Q8.15 -5.45 7.7 -5.85 L7.2 -5.5 7.0 -5.45 Q6.5 -5.3 5.9 -5.75 L5.1 -5.6 5.05 -5.6 Q4.3 -5.75 4.25 -6.3 L3.7 -6.4 3.6 -6.5 Q3.15 -6.8 3.2 -7.35 L3.2 -7.4 Q2.2 -7.5 2.65 -8.55 L2.0 -9.3 Q1.85 -9.95 2.25 -10.4 L0.4 -10.9 Q-0.9 -11.35 -2.15 -12.2 L-3.45 -13.2 Q-4.65 -14.45 -5.15 -15.6 L-5.15 -15.65 Q-5.75 -17.45 -5.3 -17.4" fill="url(#gradient26)" fill-rule="evenodd" stroke="none"/>
      <path d="M0.4 -10.9 L2.25 -10.4 Q1.85 -9.95 2.0 -9.3 L1.5 -9.15 Q0.15 -9.15 -1.4 -10.0 L-0.95 -10.4 Q-0.35 -10.9 0.4 -10.9" fill="url(#gradient27)" fill-rule="evenodd" stroke="none"/>
      <path d="M2.0 -9.3 L2.65 -8.55 Q2.2 -7.5 3.2 -7.4 L3.2 -7.35 1.1 -7.25 Q0.4 -7.35 -0.3 -7.8 L0.75 -8.8 1.5 -9.15 2.0 -9.3" fill="url(#gradient28)" fill-rule="evenodd" stroke="none"/>
      <path d="M1.5 -9.15 L0.75 -8.8 -4.4 -8.35 Q-6.25 -8.55 -7.85 -10.15 L-8.35 -10.85 -3.2 -10.65 -0.95 -10.4 -1.4 -10.0 Q0.15 -9.15 1.5 -9.15" fill="url(#gradient29)" fill-rule="evenodd" stroke="none"/>
      <path d="M3.7 -6.4 L4.25 -6.3 Q4.3 -5.75 5.05 -5.6 L5.05 -5.3 Q4.95 -4.7 4.3 -4.35 L3.7 -4.15 3.5 -5.45 3.7 -6.4" fill="url(#gradient30)" fill-rule="evenodd" stroke="none"/>
      <path d="M3.2 -7.35 Q3.15 -6.8 3.6 -6.5 L3.7 -6.4 3.5 -5.45 1.7 -5.05 1.75 -5.5 Q2.15 -6.75 3.2 -7.35" fill="url(#gradient31)" fill-rule="evenodd" stroke="none"/>
      <path d="M1.1 -7.25 L3.2 -7.35 Q2.15 -6.75 1.75 -5.5 L0.15 -3.95 Q-1.7 -3.0 -4.95 -3.25 L-5.0 -3.25 -3.35 -4.85 -2.1 -5.85 Q-0.55 -6.8 1.1 -7.25" fill="url(#gradient32)" fill-rule="evenodd" stroke="none"/>
      <path d="M3.5 -5.45 L3.7 -4.15 4.3 -4.35 Q4.95 -4.7 5.05 -5.3 5.1 -4.7 5.3 -4.35 4.75 -3.4 5.0 -2.1 L4.5 -0.85 Q3.75 0.45 2.45 1.35 2.15 -0.55 2.55 -2.65 2.8 -4.0 3.5 -5.45" fill="url(#gradient33)" fill-rule="evenodd" stroke="none"/>
      <path d="M1.75 -5.5 L1.7 -5.05 3.5 -5.45 Q2.8 -4.0 2.55 -2.65 1.6 -1.35 -1.55 -0.3 -1.2 -1.75 -0.45 -3.0 L0.15 -3.95 1.75 -5.5" fill="url(#gradient34)" fill-rule="evenodd" stroke="none"/>
      <path d="M7.6 -0.85 Q7.7 1.7 7.15 4.15 L6.1 6.9 Q4.95 4.5 4.55 2.15 L4.5 1.7 4.5 -0.85 5.0 -2.1 Q5.1 -0.95 5.65 0.4 7.05 -1.25 7.3 -3.4 L7.3 -3.3 7.6 -0.85" fill="url(#gradient35)" fill-rule="evenodd" stroke="none"/>
      <path d="M8.95 -5.55 L9.25 -5.8 9.45 -6.1 Q10.75 -4.95 11.3 -3.0 L11.55 -1.2 10.65 -1.75 9.2 -2.8 Q9.5 -4.15 8.95 -5.55" fill="url(#gradient36)" fill-rule="evenodd" stroke="none"/>
      <path d="M8.65 -5.5 L8.95 -5.55 Q9.5 -4.15 9.2 -2.8 L9.2 -2.7 9.15 -2.35 8.6 -1.25 Q7.7 -2.35 7.3 -3.3 L7.3 -3.4 Q6.85 -4.35 6.9 -5.3 L7.0 -5.45 Q7.05 -4.95 7.65 -4.5 L8.15 -4.2 8.35 -4.55 8.65 -5.5" fill="url(#gradient37)" fill-rule="evenodd" stroke="none"/>
      <path d="M7.0 -5.45 L7.2 -5.5 7.7 -5.85 Q8.15 -5.45 8.65 -5.5 L8.35 -4.55 8.15 -4.2 7.65 -4.5 Q7.05 -4.95 7.0 -5.45" fill="url(#gradient38)" fill-rule="evenodd" stroke="none"/>
      <path d="M5.1 -5.6 L5.9 -5.75 Q6.5 -5.3 7.0 -5.45 L6.9 -5.3 Q6.75 -4.05 6.0 -3.75 L5.3 -4.35 Q5.1 -4.7 5.05 -5.3 L5.1 -5.6" fill="url(#gradient39)" fill-rule="evenodd" stroke="none"/>
      <path d="M6.9 -5.3 Q6.85 -4.35 7.3 -3.4 7.05 -1.25 5.65 0.4 5.1 -0.95 5.0 -2.1 4.75 -3.4 5.3 -4.35 L6.0 -3.75 Q6.75 -4.05 6.9 -5.3" fill="url(#gradient40)" fill-rule="evenodd" stroke="none"/>
      <path d="M9.2 -2.7 Q10.0 -1.45 10.15 0.95 L10.15 3.15 Q7.9 1.45 7.6 -0.85 L7.3 -3.3 Q7.7 -2.35 8.6 -1.25 L9.15 -2.35 9.2 -2.7" fill="url(#gradient41)" fill-rule="evenodd" stroke="none"/>
      <path d="M4.55 2.15 Q4.05 5.6 1.4 8.3 0.9 7.25 0.85 5.35 0.65 3.05 1.35 0.65 L2.55 -2.65 Q2.15 -0.55 2.45 1.35 3.75 0.45 4.5 -0.85 L4.5 1.7 4.55 2.15" fill="url(#gradient42)" fill-rule="evenodd" stroke="none"/>
      <path d="M1.35 0.65 Q-1.65 4.7 -6.2 7.0 L-4.5 3.0 -2.75 -0.35 Q-1.65 -2.1 -0.45 -3.0 -1.2 -1.75 -1.55 -0.3 1.6 -1.35 2.55 -2.65 L1.35 0.65" fill="url(#gradient43)" fill-rule="evenodd" stroke="none"/>
      <path d="M-5.3 -17.4 Q-5.75 -17.45 -5.15 -15.65 L-5.15 -15.6 -8.35 -17.3 Q-11.6 -23.65 -11.7 -26.1 -11.75 -27.35 -11.1 -27.25 -8.55 -21.8 -5.3 -17.4" fill="url(#gradient44)" fill-rule="evenodd" stroke="none"/>
      <path d="M-5.15 -15.6 Q-4.65 -14.45 -3.45 -13.2 -5.35 -14.05 -7.75 -14.1 L-7.4 -13.7 -9.55 -14.1 Q-12.95 -16.25 -15.6 -20.55 -16.9 -22.75 -17.6 -24.55 L-13.7 -21.05 Q-10.9 -18.75 -8.35 -17.3 L-5.15 -15.6" fill="url(#gradient45)" fill-rule="evenodd" stroke="none"/>
      <path d="M-3.45 -13.2 L-2.15 -12.2 Q-0.9 -11.35 0.4 -10.9 -0.35 -10.9 -0.95 -10.4 L-3.2 -10.65 Q-5.8 -11.7 -7.25 -13.35 L-7.4 -13.7 -7.75 -14.1 Q-5.35 -14.05 -3.45 -13.2" fill="url(#gradient46)" fill-rule="evenodd" stroke="none"/>
      <path d="M-9.55 -10.4 Q-14.05 -11.7 -17.45 -14.6 -19.45 -16.3 -20.4 -17.65 -13.2 -15.1 -9.55 -14.1 L-7.4 -13.7 -7.25 -13.35 Q-5.8 -11.7 -3.2 -10.65 L-8.35 -10.85 -7.85 -10.15 -8.6 -10.35 -9.55 -10.4" fill="url(#gradient47)" fill-rule="evenodd" stroke="none"/>
      <path d="M-7.55 -6.9 Q-11.4 -6.9 -15.6 -8.6 L-19.1 -10.2 -15.1 -10.5 -9.55 -10.4 -8.6 -10.35 -7.85 -10.15 Q-6.25 -8.55 -4.4 -8.35 L-5.75 -8.05 -7.75 -7.1 -7.55 -6.9" fill="url(#gradient48)" fill-rule="evenodd" stroke="none"/>
      <path d="M-6.9 -6.65 L-7.55 -6.9 -7.75 -7.1 -5.75 -8.05 -4.4 -8.35 0.75 -8.8 -0.3 -7.8 Q0.4 -7.35 1.1 -7.25 -0.55 -6.8 -2.1 -5.85 -5.05 -5.85 -6.9 -6.65" fill="url(#gradient49)" fill-rule="evenodd" stroke="none"/>
      <path d="M-2.75 -0.35 Q-5.05 1.65 -9.15 2.6 L-12.9 3.15 -10.9 0.9 Q-8.35 -1.45 -5.35 -3.05 L-5.0 -3.2 -4.95 -3.25 Q-1.7 -3.0 0.15 -3.95 L-0.45 -3.0 Q-1.65 -2.1 -2.75 -0.35" fill="url(#gradient50)" fill-rule="evenodd" stroke="none"/>
      <path d="M-5.35 -3.05 Q-11.2 -2.35 -16.75 -3.95 -12.45 -6.3 -6.9 -6.65 -5.05 -5.85 -2.1 -5.85 L-3.35 -4.85 -5.0 -3.25 -4.95 -3.25 -5.0 -3.2 -5.35 -3.05" fill="url(#gradient51)" fill-rule="evenodd" stroke="none"/>
      <path d="M1.2 -2.55 L4.25 -5.1 4.9 -5.55 5.5 -5.95 8.2 -7.35 Q11.7 -9.0 16.2 -9.6 L17.4 -9.8 22.7 -10.05 28.0 -9.8 29.25 -9.6 30.35 -9.4 Q34.15 -8.8 37.25 -7.35 L39.9 -5.95 40.5 -5.55 41.15 -5.1 42.95 -3.7 43.9 -2.9 44.2 -2.55 Q46.4 -0.45 47.7 2.1 49.25 5.0 50.6 10.8 L51.2 13.5 Q52.45 19.65 54.4 25.15 L54.4 25.2 Q55.55 28.55 57.5 33.0 L58.9 36.3 58.95 36.35 Q59.45 38.3 58.3 39.9 55.5 43.8 41.6 46.8 L41.35 46.85 40.5 47.0 38.4 47.45 39.4 46.8 40.15 46.25 40.5 46.0 Q45.0 42.45 45.75 37.1 46.0 35.1 45.7 33.0 L45.4 31.3 45.2 31.15 Q43.05 29.6 40.5 28.5 38.0 27.3 35.2 26.6 31.25 25.55 26.65 25.15 L23.4 25.0 22.0 25.0 18.8 25.15 Q14.15 25.55 10.2 26.6 7.35 27.3 4.9 28.5 2.35 29.6 0.2 31.15 L0.0 31.3 -0.3 33.0 Q-0.6 35.1 -0.35 37.1 0.4 42.45 4.9 46.0 L5.3 46.25 5.5 46.45 6.0 46.8 7.0 47.45 5.5 47.2 4.9 47.0 4.1 46.85 3.8 46.8 Q-10.1 43.8 -12.9 39.9 -14.05 38.3 -13.5 36.3 L-13.1 35.35 -12.1 33.0 -9.0 25.2 -8.95 25.15 Q-7.05 19.65 -5.8 13.5 -4.2 5.65 -2.3 2.1 -1.0 -0.45 1.2 -2.55" fill="url(#gradient52)" fill-rule="evenodd" stroke="none"/>
      <path d="M43.55 12.05 L58.9 36.3 Q59.45 38.3 58.3 39.9 55.5 43.8 41.6 46.8 L41.35 46.85 40.5 47.0 38.4 47.45 39.7 46.85 40.5 46.5 40.9 46.25 42.05 45.65 Q46.0 43.55 47.5 41.8 49.7 39.25 49.55 37.1 L49.35 36.0 48.65 34.5 Q47.4 31.7 45.8 26.6 L44.4 21.9 Q43.8 19.95 43.55 12.05 M1.0 21.9 L-0.4 26.6 Q-2.05 31.7 -3.25 34.5 L-3.95 36.0 -4.15 37.1 Q-4.3 39.25 -2.1 41.8 -0.6 43.55 3.35 45.65 L4.55 46.25 4.9 46.5 5.5 46.75 5.75 46.85 7.0 47.45 5.5 47.2 4.9 47.0 4.1 46.85 3.8 46.8 Q-10.1 43.8 -12.9 39.9 -14.05 38.3 -13.5 36.3 L-13.1 35.35 1.9 11.85 Q1.6 19.95 1.0 21.9" fill="#b1b2ad" fill-opacity="0.29803923" fill-rule="evenodd" stroke="none"/>
      <path d="M49.35 36.0 L49.55 37.1 Q49.7 39.25 47.5 41.8 46.0 43.55 42.05 45.65 L40.9 46.25 40.5 46.5 39.7 46.85 38.4 47.45 39.4 46.8 40.15 46.25 40.5 46.0 Q45.0 42.45 45.75 37.1 46.0 35.1 45.7 33.0 L45.4 31.3 Q47.65 32.95 48.65 34.5 L49.35 36.0 M4.55 46.25 L3.35 45.65 Q-0.6 43.55 -2.1 41.8 -4.3 39.25 -4.15 37.1 L-3.95 36.0 -3.25 34.5 Q-2.25 32.95 0.0 31.3 L-0.3 33.0 Q-0.6 35.1 -0.35 37.1 0.4 42.45 4.9 46.0 L5.3 46.25 5.5 46.45 6.0 46.8 7.0 47.45 5.75 46.85 5.5 46.75 4.9 46.5 4.55 46.25" fill="#7f7f7f" fill-opacity="0.49803922" fill-rule="evenodd" stroke="none"/>
    </g>
    <linearGradient gradientTransform="matrix(0.0092, 0.0, 0.0, 0.0073, 43.95, -11.35)" gradientUnits="userSpaceOnUse" id="gradient0" spreadMethod="pad" x1="-819.2" x2="819.2">
      <stop offset="0.0" stop-color="#a3c4cc"/>
      <stop offset="0.7647058823529411" stop-color="#ffffff"/>
    </linearGradient>
    <linearGradient gradientTransform="matrix(-0.001, 0.0022, -0.0027, -0.0013, 35.6, -3.6)" gradientUnits="userSpaceOnUse" id="gradient1" spreadMethod="pad" x1="-819.2" x2="819.2">
      <stop offset="0.0" stop-color="#a3c4cc"/>
      <stop offset="0.7647058823529411" stop-color="#ffffff"/>
    </linearGradient>
    <linearGradient gradientTransform="matrix(-2.0E-4, 0.0025, -0.0026, -1.0E-4, 37.8, -3.3)" gradientUnits="userSpaceOnUse" id="gradient2" spreadMethod="pad" x1="-819.2" x2="819.2">
      <stop offset="0.0" stop-color="#a3c4cc"/>
      <stop offset="0.7647058823529411" stop-color="#ffffff"/>
    </linearGradient>
    <linearGradient gradientTransform="matrix(0.0, 0.0042, -0.0063, 0.0, 39.9, 2.45)" gradientUnits="userSpaceOnUse" id="gradient3" spreadMethod="pad" x1="-819.2" x2="819.2">
      <stop offset="0.0" stop-color="#a3c4cc"/>
      <stop offset="0.7647058823529411" stop-color="#ffffff"/>
    </linearGradient>
    <linearGradient gradientTransform="matrix(-2.0E-4, 0.001, -0.001, -2.0E-4, 38.1, -4.95)" gradientUnits="userSpaceOnUse" id="gradient4" spreadMethod="pad" x1="-819.2" x2="819.2">
      <stop offset="0.0" stop-color="#a3c4cc"/>
      <stop offset="0.7647058823529411" stop-color="#ffffff"/>
    </linearGradient>
    <linearGradient gradientTransform="matrix(-1.0E-4, 0.0012, -0.0012, -1.0E-4, 39.95, -4.6)" gradientUnits="userSpaceOnUse" id="gradient5" spreadMethod="pad" x1="-819.2" x2="819.2">
      <stop offset="0.0" stop-color="#a3c4cc"/>
      <stop offset="0.7647058823529411" stop-color="#ffffff"/>
    </linearGradient>
    <linearGradient gradientTransform="matrix(1.0E-4, 0.0027, -0.0035, 1.0E-4, 39.85, -2.35)" gradientUnits="userSpaceOnUse" id="gradient6" spreadMethod="pad" x1="-819.2" x2="819.2">
      <stop offset="0.0" stop-color="#a3c4cc"/>
      <stop offset="0.7647058823529411" stop-color="#ffffff"/>
    </linearGradient>
    <linearGradient gradientTransform="matrix(-8.0E-4, 0.0037, -0.0039, -8.0E-4, 36.85, 0.55)" gradientUnits="userSpaceOnUse" id="gradient7" spreadMethod="pad" x1="-819.2" x2="819.2">
      <stop offset="0.0" stop-color="#a3c4cc"/>
      <stop offset="0.7647058823529411" stop-color="#ffffff"/>
    </linearGradient>
    <linearGradient gradientTransform="matrix(0.0042, -0.0069, 0.006, 0.0037, 54.3, -21.35)" gradientUnits="userSpaceOnUse" id="gradient8" spreadMethod="pad" x1="-819.2" x2="819.2">
      <stop offset="0.0" stop-color="#a3c4cc"/>
      <stop offset="0.7647058823529411" stop-color="#ffffff"/>
    </linearGradient>
    <linearGradient gradientTransform="matrix(0.01, -0.003, 0.0013, 0.0043, 57.7, -13.85)" gradientUnits="userSpaceOnUse" id="gradient9" spreadMethod="pad" x1="-819.2" x2="819.2">
      <stop offset="0.0" stop-color="#a3c4cc"/>
      <stop offset="0.7647058823529411" stop-color="#ffffff"/>
    </linearGradient>
    <linearGradient gradientTransform="matrix(0.0047, -0.0016, 7.0E-4, 0.0021, 49.6, -12.15)" gradientUnits="userSpaceOnUse" id="gradient10" spreadMethod="pad" x1="-819.2" x2="819.2">
      <stop offset="0.0" stop-color="#a3c4cc"/>
      <stop offset="0.7647058823529411" stop-color="#ffffff"/>
    </linearGradient>
    <linearGradient gradientTransform="matrix(0.007, -0.0069, 0.0049, 0.0049, 56.55, -18.75)" gradientUnits="userSpaceOnUse" id="gradient11" spreadMethod="pad" x1="-819.2" x2="819.2">
      <stop offset="0.0" stop-color="#a3c4cc"/>
      <stop offset="0.7647058823529411" stop-color="#ffffff"/>
    </linearGradient>
    <linearGradient gradientTransform="matrix(0.0058, -0.0017, 4.0E-4, 0.0014, 49.4, -9.5)" gradientUnits="userSpaceOnUse" id="gradient12" spreadMethod="pad" x1="-819.2" x2="819.2">
      <stop offset="0.0" stop-color="#a3c4cc"/>
      <stop offset="0.7647058823529411" stop-color="#ffffff"/>
    </linearGradient>
    <linearGradient gradientTransform="matrix(0.0022, 0.0, 0.0, 0.0011, 45.5, -9.9)" gradientUnits="userSpaceOnUse" id="gradient13" spreadMethod="pad" x1="-819.2" x2="819.2">
      <stop offset="0.0" stop-color="#a3c4cc"/>
      <stop offset="0.7647058823529411" stop-color="#ffffff"/>
    </linearGradient>
    <linearGradient gradientTransform="matrix(0.002, 5.0E-4, -3.0E-4, 0.0013, 44.5, -8.1)" gradientUnits="userSpaceOnUse" id="gradient14" spreadMethod="pad" x1="-819.2" x2="819.2">
      <stop offset="0.0" stop-color="#a3c4cc"/>
      <stop offset="0.7647058823529411" stop-color="#ffffff"/>
    </linearGradient>
    <linearGradient gradientTransform="matrix(5.0E-4, 8.0E-4, -0.0012, 7.0E-4, 41.7, -5.2)" gradientUnits="userSpaceOnUse" id="gradient15" spreadMethod="pad" x1="-819.2" x2="819.2">
      <stop offset="0.0" stop-color="#a3c4cc"/>
      <stop offset="0.7647058823529411" stop-color="#ffffff"/>
    </linearGradient>
    <linearGradient gradientTransform="matrix(8.0E-4, 9.0E-4, -0.0011, 9.0E-4, 43.25, -6.15)" gradientUnits="userSpaceOnUse" id="gradient16" spreadMethod="pad" x1="-819.2" x2="819.2">
      <stop offset="0.0" stop-color="#a3c4cc"/>
      <stop offset="0.7647058823529411" stop-color="#ffffff"/>
    </linearGradient>
    <linearGradient gradientTransform="matrix(0.0043, 0.0026, -0.0013, 0.0022, 46.85, -5.2)" gradientUnits="userSpaceOnUse" id="gradient17" spreadMethod="pad" x1="-819.2" x2="819.2">
      <stop offset="0.0" stop-color="#a3c4cc"/>
      <stop offset="0.7647058823529411" stop-color="#ffffff"/>
    </linearGradient>
    <linearGradient gradientTransform="matrix(0.0019, 0.0024, -0.0025, 0.002, 45.05, -2.7)" gradientUnits="userSpaceOnUse" id="gradient18" spreadMethod="pad" x1="-819.2" x2="819.2">
      <stop offset="0.0" stop-color="#a3c4cc"/>
      <stop offset="0.7647058823529411" stop-color="#ffffff"/>
    </linearGradient>
    <linearGradient gradientTransform="matrix(7.0E-4, 0.0035, -0.004, 8.0E-4, 42.15, -2.05)" gradientUnits="userSpaceOnUse" id="gradient19" spreadMethod="pad" x1="-819.2" x2="819.2">
      <stop offset="0.0" stop-color="#a3c4cc"/>
      <stop offset="0.7647058823529411" stop-color="#ffffff"/>
    </linearGradient>
    <linearGradient gradientTransform="matrix(0.0059, 0.0054, -0.0029, 0.0032, 52.3, -0.3)" gradientUnits="userSpaceOnUse" id="gradient20" spreadMethod="pad" x1="-819.2" x2="819.2">
      <stop offset="0.0" stop-color="#a3c4cc"/>
      <stop offset="0.7647058823529411" stop-color="#ffffff"/>
    </linearGradient>
    <linearGradient gradientTransform="matrix(0.0024, 0.0057, -0.0056, 0.0024, 48.55, 2.55)" gradientUnits="userSpaceOnUse" id="gradient21" spreadMethod="pad" x1="-819.2" x2="819.2">
      <stop offset="0.0" stop-color="#a3c4cc"/>
      <stop offset="0.7647058823529411" stop-color="#ffffff"/>
    </linearGradient>
    <linearGradient gradientTransform="matrix(0.0087, 0.002, -5.0E-4, 0.0023, 55.35, -4.65)" gradientUnits="userSpaceOnUse" id="gradient22" spreadMethod="pad" x1="-819.2" x2="819.2">
      <stop offset="0.0" stop-color="#a3c4cc"/>
      <stop offset="0.7647058823529411" stop-color="#ffffff"/>
    </linearGradient>
    <linearGradient gradientTransform="matrix(0.0053, 7.0E-4, -2.0E-4, 0.0018, 49.2, -7.25)" gradientUnits="userSpaceOnUse" id="gradient23" spreadMethod="pad" x1="-819.2" x2="819.2">
      <stop offset="0.0" stop-color="#a3c4cc"/>
      <stop offset="0.7647058823529411" stop-color="#ffffff"/>
    </linearGradient>
    <linearGradient gradientTransform="matrix(0.009, -6.0E-4, 2.0E-4, 0.0022, 57.65, -8.6)" gradientUnits="userSpaceOnUse" id="gradient24" spreadMethod="pad" x1="-819.2" x2="819.2">
      <stop offset="0.0" stop-color="#a3c4cc"/>
      <stop offset="0.7647058823529411" stop-color="#ffffff"/>
    </linearGradient>
    <linearGradient gradientTransform="matrix(0.0013, 0.0056, -0.0065, 0.0015, 43.4, 3.65)" gradientUnits="userSpaceOnUse" id="gradient25" spreadMethod="pad" x1="-819.2" x2="819.2">
      <stop offset="0.0" stop-color="#a3c4cc"/>
      <stop offset="0.7647058823529411" stop-color="#ffffff"/>
    </linearGradient>
    <linearGradient gradientTransform="matrix(-0.0092, 0.0, 0.0, 0.0073, 2.0, -11.45)" gradientUnits="userSpaceOnUse" id="gradient26" spreadMethod="pad" x1="-819.2" x2="819.2">
      <stop offset="0.0" stop-color="#a3c4cc"/>
      <stop offset="0.7647058823529411" stop-color="#ffffff"/>
    </linearGradient>
    <linearGradient gradientTransform="matrix(-0.0022, 0.0, 0.0, 0.0011, 0.45, -10.0)" gradientUnits="userSpaceOnUse" id="gradient27" spreadMethod="pad" x1="-819.2" x2="819.2">
      <stop offset="0.0" stop-color="#a3c4cc"/>
      <stop offset="0.7647058823529411" stop-color="#ffffff"/>
    </linearGradient>
    <linearGradient gradientTransform="matrix(-0.002, 5.0E-4, 3.0E-4, 0.0013, 1.45, -8.2)" gradientUnits="userSpaceOnUse" id="gradient28" spreadMethod="pad" x1="-819.2" x2="819.2">
      <stop offset="0.0" stop-color="#a3c4cc"/>
      <stop offset="0.7647058823529411" stop-color="#ffffff"/>
    </linearGradient>
    <linearGradient gradientTransform="matrix(-0.0058, -0.0017, -4.0E-4, 0.0014, -3.45, -9.6)" gradientUnits="userSpaceOnUse" id="gradient29" spreadMethod="pad" x1="-819.2" x2="819.2">
      <stop offset="0.0" stop-color="#a3c4cc"/>
      <stop offset="0.7647058823529411" stop-color="#ffffff"/>
    </linearGradient>
    <linearGradient gradientTransform="matrix(-5.0E-4, 8.0E-4, 0.0012, 7.0E-4, 4.25, -5.3)" gradientUnits="userSpaceOnUse" id="gradient30" spreadMethod="pad" x1="-819.2" x2="819.2">
      <stop offset="0.0" stop-color="#a3c4cc"/>
      <stop offset="0.7647058823529411" stop-color="#ffffff"/>
    </linearGradient>
    <linearGradient gradientTransform="matrix(-8.0E-4, 9.0E-4, 0.0011, 9.0E-4, 2.7, -6.25)" gradientUnits="userSpaceOnUse" id="gradient31" spreadMethod="pad" x1="-819.2" x2="819.2">
      <stop offset="0.0" stop-color="#a3c4cc"/>
      <stop offset="0.7647058823529411" stop-color="#ffffff"/>
    </linearGradient>
    <linearGradient gradientTransform="matrix(-0.0043, 0.0026, 0.0013, 0.0022, -0.9, -5.3)" gradientUnits="userSpaceOnUse" id="gradient32" spreadMethod="pad" x1="-819.2" x2="819.2">
      <stop offset="0.0" stop-color="#a3c4cc"/>
      <stop offset="0.7647058823529411" stop-color="#ffffff"/>
    </linearGradient>
    <linearGradient gradientTransform="matrix(-7.0E-4, 0.0035, 0.004, 8.0E-4, 3.8, -2.15)" gradientUnits="userSpaceOnUse" id="gradient33" spreadMethod="pad" x1="-819.2" x2="819.2">
      <stop offset="0.0" stop-color="#a3c4cc"/>
      <stop offset="0.7647058823529411" stop-color="#ffffff"/>
    </linearGradient>
    <linearGradient gradientTransform="matrix(-0.0019, 0.0024, 0.0025, 0.002, 0.9, -2.8)" gradientUnits="userSpaceOnUse" id="gradient34" spreadMethod="pad" x1="-819.2" x2="819.2">
      <stop offset="0.0" stop-color="#a3c4cc"/>
      <stop offset="0.7647058823529411" stop-color="#ffffff"/>
    </linearGradient>
    <linearGradient gradientTransform="matrix(0.0, 0.0042, 0.0063, 0.0, 6.05, 2.35)" gradientUnits="userSpaceOnUse" id="gradient35" spreadMethod="pad" x1="-819.2" x2="819.2">
      <stop offset="0.0" stop-color="#a3c4cc"/>
      <stop offset="0.7647058823529411" stop-color="#ffffff"/>
    </linearGradient>
    <linearGradient gradientTransform="matrix(0.001, 0.0022, 0.0027, -0.0013, 10.35, -3.7)" gradientUnits="userSpaceOnUse" id="gradient36" spreadMethod="pad" x1="-819.2" x2="819.2">
      <stop offset="0.0" stop-color="#a3c4cc"/>
      <stop offset="0.7647058823529411" stop-color="#ffffff"/>
    </linearGradient>
    <linearGradient gradientTransform="matrix(2.0E-4, 0.0025, 0.0026, -1.0E-4, 8.15, -3.4)" gradientUnits="userSpaceOnUse" id="gradient37" spreadMethod="pad" x1="-819.2" x2="819.2">
      <stop offset="0.0" stop-color="#a3c4cc"/>
      <stop offset="0.7647058823529411" stop-color="#ffffff"/>
    </linearGradient>
    <linearGradient gradientTransform="matrix(2.0E-4, 0.001, 0.001, -2.0E-4, 7.85, -5.05)" gradientUnits="userSpaceOnUse" id="gradient38" spreadMethod="pad" x1="-819.2" x2="819.2">
      <stop offset="0.0" stop-color="#a3c4cc"/>
      <stop offset="0.7647058823529411" stop-color="#ffffff"/>
    </linearGradient>
    <linearGradient gradientTransform="matrix(1.0E-4, 0.0012, 0.0012, -1.0E-4, 6.0, -4.7)" gradientUnits="userSpaceOnUse" id="gradient39" spreadMethod="pad" x1="-819.2" x2="819.2">
      <stop offset="0.0" stop-color="#a3c4cc"/>
      <stop offset="0.7647058823529411" stop-color="#ffffff"/>
    </linearGradient>
    <linearGradient gradientTransform="matrix(-1.0E-4, 0.0027, 0.0035, 1.0E-4, 6.1, -2.45)" gradientUnits="userSpaceOnUse" id="gradient40" spreadMethod="pad" x1="-819.2" x2="819.2">
      <stop offset="0.0" stop-color="#a3c4cc"/>
      <stop offset="0.7647058823529411" stop-color="#ffffff"/>
    </linearGradient>
    <linearGradient gradientTransform="matrix(8.0E-4, 0.0037, 0.0039, -8.0E-4, 9.1, 0.45)" gradientUnits="userSpaceOnUse" id="gradient41" spreadMethod="pad" x1="-819.2" x2="819.2">
      <stop offset="0.0" stop-color="#a3c4cc"/>
      <stop offset="0.7647058823529411" stop-color="#ffffff"/>
    </linearGradient>
    <linearGradient gradientTransform="matrix(-0.0013, 0.0056, 0.0065, 0.0015, 2.55, 3.55)" gradientUnits="userSpaceOnUse" id="gradient42" spreadMethod="pad" x1="-819.2" x2="819.2">
      <stop offset="0.0" stop-color="#a3c4cc"/>
      <stop offset="0.7647058823529411" stop-color="#ffffff"/>
    </linearGradient>
    <linearGradient gradientTransform="matrix(-0.0024, 0.0057, 0.0056, 0.0024, -2.6, 2.45)" gradientUnits="userSpaceOnUse" id="gradient43" spreadMethod="pad" x1="-819.2" x2="819.2">
      <stop offset="0.0" stop-color="#a3c4cc"/>
      <stop offset="0.7647058823529411" stop-color="#ffffff"/>
    </linearGradient>
    <linearGradient gradientTransform="matrix(-0.0042, -0.0069, -0.006, 0.0037, -8.35, -21.45)" gradientUnits="userSpaceOnUse" id="gradient44" spreadMethod="pad" x1="-819.2" x2="819.2">
      <stop offset="0.0" stop-color="#a3c4cc"/>
      <stop offset="0.7647058823529411" stop-color="#ffffff"/>
    </linearGradient>
    <linearGradient gradientTransform="matrix(-0.007, -0.0069, -0.0049, 0.0049, -10.6, -18.85)" gradientUnits="userSpaceOnUse" id="gradient45" spreadMethod="pad" x1="-819.2" x2="819.2">
      <stop offset="0.0" stop-color="#a3c4cc"/>
      <stop offset="0.7647058823529411" stop-color="#ffffff"/>
    </linearGradient>
    <linearGradient gradientTransform="matrix(-0.0047, -0.0016, -7.0E-4, 0.0021, -3.65, -12.25)" gradientUnits="userSpaceOnUse" id="gradient46" spreadMethod="pad" x1="-819.2" x2="819.2">
      <stop offset="0.0" stop-color="#a3c4cc"/>
      <stop offset="0.7647058823529411" stop-color="#ffffff"/>
    </linearGradient>
    <linearGradient gradientTransform="matrix(-0.01, -0.003, -0.0013, 0.0043, -11.75, -13.95)" gradientUnits="userSpaceOnUse" id="gradient47" spreadMethod="pad" x1="-819.2" x2="819.2">
      <stop offset="0.0" stop-color="#a3c4cc"/>
      <stop offset="0.7647058823529411" stop-color="#ffffff"/>
    </linearGradient>
    <linearGradient gradientTransform="matrix(-0.009, -6.0E-4, -2.0E-4, 0.0022, -11.7, -8.7)" gradientUnits="userSpaceOnUse" id="gradient48" spreadMethod="pad" x1="-819.2" x2="819.2">
      <stop offset="0.0" stop-color="#a3c4cc"/>
      <stop offset="0.7647058823529411" stop-color="#ffffff"/>
    </linearGradient>
    <linearGradient gradientTransform="matrix(-0.0053, 7.0E-4, 2.0E-4, 0.0018, -3.25, -7.35)" gradientUnits="userSpaceOnUse" id="gradient49" spreadMethod="pad" x1="-819.2" x2="819.2">
      <stop offset="0.0" stop-color="#a3c4cc"/>
      <stop offset="0.7647058823529411" stop-color="#ffffff"/>
    </linearGradient>
    <linearGradient gradientTransform="matrix(-0.0059, 0.0054, 0.0029, 0.0032, -6.35, -0.4)" gradientUnits="userSpaceOnUse" id="gradient50" spreadMethod="pad" x1="-819.2" x2="819.2">
      <stop offset="0.0" stop-color="#a3c4cc"/>
      <stop offset="0.7647058823529411" stop-color="#ffffff"/>
    </linearGradient>
    <linearGradient gradientTransform="matrix(-0.0087, 0.002, 5.0E-4, 0.0023, -9.4, -4.75)" gradientUnits="userSpaceOnUse" id="gradient51" spreadMethod="pad" x1="-819.2" x2="819.2">
      <stop offset="0.0" stop-color="#a3c4cc"/>
      <stop offset="0.7647058823529411" stop-color="#ffffff"/>
    </linearGradient>
    <linearGradient gradientTransform="matrix(0.0, -0.0365, 0.0351, 0.0, 22.7, 18.7)" gradientUnits="userSpaceOnUse" id="gradient52" spreadMethod="pad" x1="-819.2" x2="819.2">
      <stop offset="0.0" stop-color="#cde1e5"/>
      <stop offset="0.7176470588235294" stop-color="#ffffff"/>
    </linearGradient>
    <g id="sprite0" transform="matrix(1.0, 0.0, 0.0, 1.0, 0.0, 0.0)">
      <use ffdec:characterId="2" height="44.7" transform="matrix(1.0, 0.0, 0.0, 1.0, 0.0, 0.0)" width="44.7" xlink:href="#shape1"/>
    </g>
    <g id="shape1" transform="matrix(1.0, 0.0, 0.0, 1.0, 0.0, 0.0)">
      <path d="M40.75 32.7 L41.1 33.25 Q44.0 28.4 44.0 22.3 44.0 16.25 41.1 11.45 L40.8 12.0 Q43.4 16.6 43.4 22.35 43.4 28.05 40.75 32.7 M20.7 14.7 Q22.6 13.6 24.2 12.9 L20.1 12.9 Q18.3 14.1 17.2 15.7 L16.5 17.1 16.8 16.75 Q18.5 15.1 20.7 14.7 M28.9 17.35 L28.15 16.95 Q29.8 18.65 30.2 20.95 L32.1 24.85 33.15 23.0 31.65 20.35 Q30.5 18.5 28.9 17.35 M26.9 15.85 L27.15 16.05 Q29.4 16.8 31.1 18.15 L30.3 16.75 30.0 16.65 26.7 15.15 Q25.3 14.5 23.8 14.45 L22.55 14.5 Q25.0 14.55 26.9 15.85 M28.35 14.8 L29.4 15.15 30.95 15.55 33.3 15.6 Q32.5 16.45 31.6 16.7 L34.2 21.2 38.65 13.4 38.35 12.9 34.75 12.9 33.75 13.9 Q32.9 14.55 31.75 14.85 L30.65 15.05 29.3 15.0 28.35 14.8 M28.1 12.9 L28.2 13.05 24.75 13.6 28.5 13.6 29.75 13.5 33.9 12.9 29.4 12.9 29.2 12.9 28.1 12.9 M25.65 8.65 L25.4 8.2 24.9 8.85 25.65 8.65 M26.35 9.8 L25.35 10.25 23.8 10.8 26.9 10.8 26.35 9.8 M24.0 5.75 L22.4 2.9 17.85 10.8 20.8 10.8 23.0 9.45 Q24.25 8.75 24.3 7.9 24.35 7.0 23.05 7.0 21.95 7.0 21.2 7.85 L20.7 8.65 20.95 7.45 Q21.45 6.15 22.85 5.85 L24.0 5.75 M20.9 3.25 L21.25 2.7 Q14.15 3.1 8.95 8.2 L9.35 8.35 Q14.25 3.75 20.9 3.25 M37.25 7.45 Q38.85 9.05 40.05 10.8 L40.7 10.8 Q39.4 8.8 37.6 7.0 31.3 0.65 22.35 0.65 13.35 0.65 7.0 7.0 5.2 8.8 3.95 10.8 L4.7 10.8 Q5.85 9.05 7.45 7.45 13.5 1.35 22.1 1.25 L22.4 0.7 22.75 1.25 Q31.2 1.4 37.25 7.45 M36.55 9.35 L37.75 10.8 38.25 10.8 36.7 8.9 36.55 9.35 M36.2 10.0 L35.55 10.8 36.9 10.8 36.2 10.0 M35.95 8.75 L36.2 9.0 36.5 8.7 36.2 8.4 Q30.9 3.05 23.55 2.7 L23.9 3.25 Q30.9 3.7 35.95 8.75 M31.9 10.8 L32.85 10.55 35.65 9.4 35.4 9.15 Q30.65 4.35 24.15 3.75 L26.6 8.05 27.0 7.6 27.5 6.6 Q27.75 8.05 27.15 9.0 L28.2 10.8 31.9 10.8 M22.35 20.8 Q23.0 20.8 23.45 21.25 23.95 21.75 23.95 22.4 23.95 23.05 23.45 23.5 23.0 24.0 22.35 24.0 21.7 24.0 21.2 23.5 20.75 23.05 20.75 22.4 20.75 21.75 21.2 21.25 21.7 20.8 22.35 20.8 M22.3 21.35 Q21.9 21.35 21.6 21.65 21.3 21.95 21.3 22.35 21.3 22.75 21.6 23.05 L22.3 23.35 23.0 23.05 23.3 22.35 23.0 21.65 Q22.7 21.35 22.3 21.35 M22.35 20.4 Q21.5 20.4 20.9 20.95 20.35 21.55 20.35 22.4 20.35 23.2 20.9 23.75 21.5 24.4 22.35 24.4 23.15 24.4 23.75 23.75 24.35 23.2 24.35 22.4 24.35 21.55 23.75 20.95 23.15 20.4 22.35 20.4 M27.75 18.95 Q26.15 16.45 23.45 15.65 20.75 14.8 18.5 16.2 17.15 17.05 16.45 18.35 17.35 20.45 18.65 21.4 19.35 21.85 19.8 21.9 20.7 19.3 23.35 17.85 24.7 17.1 25.85 16.9 25.25 17.1 24.6 17.55 23.3 18.5 22.95 19.95 25.5 20.45 27.15 23.35 27.95 24.75 28.25 26.1 L27.25 24.5 Q26.05 22.9 24.85 22.85 24.65 23.95 23.75 25.15 22.0 27.35 18.85 27.9 19.85 28.7 21.15 29.1 23.85 29.9 26.15 28.45 28.4 27.05 28.85 24.3 29.3 21.5 27.75 18.95 M36.05 24.45 L36.55 24.6 Q37.45 24.7 37.45 23.4 37.5 22.3 36.65 21.5 L35.85 21.0 37.05 21.3 Q38.35 21.8 38.6 23.2 38.95 25.0 38.05 25.8 L36.95 26.1 39.25 30.1 Q40.85 26.55 40.85 22.35 40.85 18.15 39.25 14.65 L34.85 22.35 36.05 24.45 M39.9 13.5 L39.7 13.9 Q41.55 17.7 41.55 22.3 41.55 26.9 39.65 30.75 L39.85 31.1 Q41.9 27.1 41.9 22.25 41.9 17.45 39.9 13.5 M38.15 6.55 Q44.7 13.1 44.7 22.35 44.7 31.65 38.15 38.2 31.6 44.7 22.35 44.7 13.05 44.7 6.55 38.2 4.55 36.2 3.15 33.9 L3.1 33.9 Q0.0 28.75 0.0 22.35 0.0 15.95 3.15 10.85 L3.15 10.8 Q4.55 8.55 6.55 6.55 13.05 0.0 22.35 0.0 31.6 0.0 38.15 6.55 M12.65 10.8 L12.2 9.8 Q12.9 9.95 13.6 10.8 L16.55 10.8 20.65 3.7 Q14.4 4.2 9.75 8.6 10.75 9.15 11.7 10.55 L11.85 10.8 12.65 10.8 M30.4 24.0 L30.3 22.75 Q30.2 25.0 28.9 26.85 28.05 29.8 26.05 31.8 L28.3 31.8 28.25 31.6 Q28.0 30.85 28.2 29.95 L29.7 26.8 Q30.35 25.45 30.4 24.0 M3.5 11.55 Q0.7 16.35 0.7 22.3 0.7 28.35 3.5 33.2 L3.85 32.6 Q1.3 28.0 1.3 22.35 1.3 16.7 3.85 12.15 L3.5 11.55 M6.7 10.8 L7.2 10.8 8.9 8.85 8.65 8.55 6.7 10.8 M5.65 12.9 L8.1 17.1 Q9.55 17.4 10.15 19.2 L10.75 20.8 12.05 18.55 11.5 16.75 10.6 12.9 5.65 12.9 M6.35 16.35 L5.3 14.6 Q3.7 18.15 3.7 22.35 3.7 26.55 5.3 30.1 L9.85 22.35 9.35 21.55 Q8.65 20.3 7.8 20.25 6.9 20.25 6.9 21.55 6.9 22.65 7.8 23.35 L8.6 23.85 7.4 23.65 Q6.05 23.15 5.75 21.75 5.35 19.95 6.25 19.15 L7.9 19.05 6.35 16.35 M9.95 10.8 L9.15 9.2 7.7 10.8 9.95 10.8 M5.1 14.25 L4.9 13.9 Q3.05 17.7 3.05 22.25 3.05 26.9 4.95 30.75 L5.15 30.4 Q3.4 26.7 3.4 22.3 3.4 17.9 5.1 14.25 M13.3 18.65 L13.55 19.9 13.55 18.25 13.3 18.65 M10.5 23.5 L10.5 23.45 10.05 22.65 10.5 23.5 5.65 31.8 10.0 31.8 Q10.25 31.35 10.85 30.9 11.7 30.25 12.85 29.9 L14.1 29.7 13.8 29.25 11.3 29.2 Q12.1 28.25 13.1 28.05 L10.5 23.5 M12.55 19.9 L11.35 22.0 12.8 24.4 Q14.0 26.25 15.65 27.35 L16.9 28.0 16.8 27.9 Q15.1 26.2 14.65 24.0 L12.55 19.9 M12.7 14.6 Q12.7 15.35 13.0 16.95 L15.3 12.9 12.6 12.9 12.7 14.6 M18.45 12.9 L16.45 12.9 16.5 13.1 Q16.7 13.8 16.5 14.6 L15.05 17.95 Q14.45 19.35 14.4 20.85 L14.5 22.1 Q14.55 19.7 15.9 17.85 16.6 14.95 18.45 12.9 M16.45 18.35 Q15.95 19.25 15.75 20.45 15.3 23.2 16.9 25.7 L18.75 27.85 Q20.4 27.15 21.2 26.05 L21.65 24.95 Q20.6 24.65 19.45 23.65 17.1 21.65 16.45 18.35 M13.7 26.8 L14.4 28.05 14.55 28.05 17.9 29.5 20.8 30.15 21.3 30.15 Q19.35 29.9 17.75 28.7 15.45 28.1 13.7 26.8 M16.25 29.9 L15.3 29.6 15.4 29.75 16.25 29.9 M11.2 31.8 L15.3 31.8 15.0 31.25 11.2 31.8 M19.75 33.9 L17.85 33.9 18.25 34.65 Q18.75 34.2 19.55 33.95 L19.75 33.9 M13.05 33.9 L11.85 34.25 Q10.05 34.8 9.05 35.5 L9.15 35.6 Q14.05 40.55 20.7 41.05 L18.0 36.4 17.9 36.45 17.45 37.4 Q17.3 36.4 17.55 35.65 L16.55 33.9 13.05 33.9 M16.5 31.65 L19.85 31.0 16.2 31.15 16.5 31.65 M9.25 33.9 L7.65 33.9 8.5 34.9 9.25 33.9 M4.7 33.9 L3.95 33.9 Q5.25 35.9 7.0 37.65 13.35 43.95 22.35 43.95 L22.4 43.95 22.4 44.0 22.45 43.95 Q31.35 43.9 37.6 37.65 L40.7 33.9 40.05 33.9 Q38.85 35.7 37.25 37.3 31.15 43.4 22.7 43.5 L22.45 43.95 22.4 43.95 22.15 43.5 Q13.5 43.4 7.45 37.3 5.85 35.7 4.7 33.9 M19.25 36.35 Q19.45 35.85 20.0 35.3 L18.85 35.7 19.25 36.35 M6.9 33.9 L8.2 35.5 8.35 35.15 7.3 33.9 6.9 33.9 M8.6 35.9 L8.75 36.05 Q13.95 41.3 21.1 41.75 L20.85 41.3 Q13.95 40.75 8.95 35.8 L8.85 35.7 Q8.7 35.75 8.6 35.9 M22.15 41.35 L22.4 41.8 22.65 41.35 22.45 41.35 22.15 41.35 M30.05 31.8 L30.0 31.65 29.85 31.05 29.4 31.8 30.05 31.8 M23.5 36.35 L24.05 35.6 23.75 36.75 Q23.2 37.95 21.85 38.25 L20.4 38.3 22.0 41.1 22.25 41.1 22.8 41.1 26.9 33.9 23.45 33.9 21.85 34.8 Q20.6 35.4 20.5 36.2 20.5 37.1 21.75 37.15 22.8 37.15 23.5 36.35 M27.55 28.85 L28.35 27.5 27.95 27.9 Q26.25 29.6 24.0 30.05 L23.45 30.15 20.25 31.8 24.3 31.8 24.7 31.55 Q26.45 30.45 27.55 28.85 M30.05 28.35 L30.0 28.45 30.05 28.45 30.05 28.35 M35.8 36.45 L35.4 36.35 Q30.55 40.85 23.95 41.3 L23.7 41.8 Q30.7 41.35 35.8 36.45 M36.2 36.05 L38.1 33.9 37.65 33.9 35.95 35.8 35.7 36.05 35.95 36.3 36.2 36.05 M34.55 33.9 L35.4 35.65 35.4 35.6 36.9 33.9 34.55 33.9 M34.9 36.15 Q33.8 35.55 32.8 33.95 L32.8 33.9 31.95 33.9 32.25 34.7 Q31.65 34.6 31.15 33.9 L28.2 33.9 24.1 41.05 Q30.25 40.45 34.9 36.15 M31.4 26.05 L31.2 24.9 31.2 26.4 31.4 26.05 M31.7 27.85 L31.25 28.6 Q31.3 30.45 31.5 31.8 L32.0 31.8 Q31.85 31.0 31.85 30.05 L31.7 27.85 M32.6 26.2 L33.1 28.0 33.9 31.8 38.35 31.8 38.65 31.35 36.7 27.9 Q34.8 27.75 34.15 25.6 L33.75 24.25 32.6 26.2" fill="#8daeb2" fill-rule="evenodd" stroke="none"/>
    </g>
  </defs>
</svg>
