<?xml version="1.0" encoding="UTF-8" standalone="no"?>
<svg xmlns:ffdec="https://www.free-decompiler.com/flash" xmlns:xlink="http://www.w3.org/1999/xlink" ffdec:objectType="frame" height="30.3px" width="47.25px" xmlns="http://www.w3.org/2000/svg">
  <g transform="matrix(1.0, 0.0, 0.0, 1.0, 7.75, 11.8)">
    <use ffdec:characterId="1" height="30.3" transform="matrix(1.0, 0.0, 0.0, 1.0, -7.75, -11.8)" width="47.25" xlink:href="#shape0"/>
  </g>
  <defs>
    <g id="shape0" transform="matrix(1.0, 0.0, 0.0, 1.0, 7.75, 11.8)">
      <path d="M-1.05 16.7 L-2.75 16.2 Q-5.45 15.45 -6.25 14.4 -7.45 13.35 -7.55 12.05 -7.6 10.75 -6.6 8.45 -5.65 6.2 -3.55 2.95 -1.85 0.05 -0.15 -1.8 L3.35 -5.05 Q4.35 -5.9 7.35 -7.55 L11.5 -9.45 Q14.65 -10.6 17.9 -11.05 L23.1 -11.65 23.55 -11.65 25.75 -11.5 26.1 -11.4 26.55 -11.3 30.95 -10.4 34.35 -9.1 Q36.75 -8.05 38.35 -6.2 39.8 -4.55 39.35 -2.7 L38.2 -0.7 37.15 0.4 35.6 1.7 35.45 1.95 Q32.7 2.35 29.8 3.3 L24.8 4.4 23.35 4.75 26.5 3.4 Q28.4 2.4 30.15 1.65 34.6 -1.05 39.0 -2.95 37.65 -3.75 35.35 -3.65 L30.2 -4.4 Q27.15 -5.1 22.25 -3.9 17.4 -2.85 13.6 -1.35 9.9 0.0 4.65 3.35 -0.8 6.55 2.55 5.8 L-2.65 15.2 0.55 14.3 2.6 13.65 Q0.6 15.05 -1.05 16.7 M37.65 3.3 L37.75 3.35 37.8 3.4 38.35 3.55 35.95 6.25 Q34.35 7.85 30.35 9.95 25.25 12.05 20.7 12.5 L25.75 11.85 Q29.7 11.1 33.15 9.3 36.45 7.65 38.25 5.45 38.65 4.8 38.65 3.95 L38.75 4.05 Q39.0 5.35 37.0 7.25 L36.8 7.6 36.8 7.55 Q34.6 9.45 31.25 10.9 28.15 12.3 25.1 12.75 L18.9 13.25 14.45 12.75 Q12.9 12.15 12.05 12.0 11.25 11.9 12.2 11.3 L13.15 10.65 13.3 10.65 13.3 10.75 Q14.25 10.2 15.2 9.85 L16.7 9.7 16.75 9.65 20.8 8.2 21.2 7.35 Q23.5 6.45 25.85 5.9 L26.2 6.15 27.0 5.85 27.15 5.7 Q27.75 5.4 28.3 5.4 L29.3 5.35 29.55 5.05 30.15 5.0 32.0 4.9 33.25 4.6 34.05 4.0 34.05 3.9 34.65 3.75 35.35 3.6 36.0 3.35 37.65 3.3" fill="#006699" fill-rule="evenodd" stroke="none"/>
      <path d="M-1.05 16.7 Q0.6 15.05 2.6 13.65 L0.55 14.3 -2.65 15.2 2.55 5.8 Q-0.8 6.55 4.65 3.35 9.9 0.0 13.6 -1.35 17.4 -2.85 22.25 -3.9 27.15 -5.1 30.2 -4.4 L35.35 -3.65 Q37.65 -3.75 39.0 -2.95 34.6 -1.05 30.15 1.65 28.4 2.4 26.5 3.4 L23.35 4.75 24.8 4.4 29.8 3.3 Q32.7 2.35 35.45 1.95 L35.3 2.2 Q34.95 2.45 34.95 2.75 L37.0 2.95 Q37.4 3.15 37.65 3.3 L36.0 3.35 35.35 3.6 34.65 3.75 34.05 3.9 34.05 4.0 33.25 4.6 32.0 4.9 30.15 5.0 29.55 5.05 29.3 5.35 28.3 5.4 Q27.75 5.4 27.15 5.7 L27.0 5.85 26.2 6.15 25.85 5.9 Q23.5 6.45 21.2 7.35 L20.8 8.2 16.75 9.65 16.7 9.7 15.2 9.85 Q14.25 10.2 13.3 10.75 L13.3 10.65 13.15 10.65 12.2 11.3 Q11.25 11.9 12.05 12.0 12.9 12.15 14.45 12.75 L18.9 13.25 25.1 12.75 Q28.15 12.3 31.25 10.9 34.6 9.45 36.8 7.55 L36.8 7.6 37.0 7.25 Q39.0 5.35 38.75 4.05 39.35 4.75 39.1 5.75 L38.4 6.9 37.5 7.95 36.75 8.6 35.45 9.5 35.2 9.6 Q32.5 11.2 29.9 12.05 L25.7 13.1 21.9 13.45 Q19.75 13.8 16.85 13.45 L13.6 12.95 9.5 13.1 Q7.9 13.55 5.4 14.9 2.85 16.15 1.65 17.35 0.5 18.45 0.2 18.05 L-0.3 17.45 -0.7 17.25 -0.35 16.85 -1.05 16.7" fill="#003b70" fill-rule="evenodd" stroke="none"/>
      <path d="M38.35 3.55 L38.65 3.95 Q38.65 4.8 38.25 5.45 36.45 7.65 33.15 9.3 29.7 11.1 25.75 11.85 L20.7 12.5 Q25.25 12.05 30.35 9.95 34.35 7.85 35.95 6.25 L38.35 3.55" fill="#9ad0ff" fill-rule="evenodd" stroke="none"/>
      <path d="M2.8 4.1 L3.55 5.0 4.6 6.6 5.5 7.45 8.65 9.75 9.45 10.0 9.25 10.15 9.1 10.3 9.05 10.35 Q7.45 11.75 5.25 12.6 3.05 13.75 0.95 15.45 L-0.35 16.85 -2.7 16.15 -3.1 16.05 -4.65 14.45 -4.7 14.4 Q-5.4 12.95 -5.3 11.85 L-5.25 11.8 -4.95 10.95 Q-4.1 9.3 -2.45 8.0 L0.55 5.85 2.35 4.6 2.8 4.1 M26.35 -4.65 L27.25 -4.75 30.25 -4.9 33.95 -4.6 Q35.75 -4.3 37.0 -3.6 38.0 -3.05 37.95 -2.15 37.75 -0.4 37.0 0.35 36.1 0.9 36.1 1.0 L36.5 1.05 35.65 1.7 35.3 2.15 30.2 4.0 Q29.75 3.85 29.2 4.0 26.45 5.15 23.6 5.2 23.8 4.5 24.55 4.5 25.05 4.65 25.9 2.55 26.75 0.5 26.8 -1.55 L26.35 -4.65" fill="#000000" fill-rule="evenodd" stroke="none"/>
      <path d="M-3.1 16.05 L-3.6 15.9 Q-5.5 15.3 -6.4 14.35 L-7.15 13.25 -7.5 12.35 -7.6 11.85 -7.7 11.65 -7.7 10.9 Q-7.7 9.6 -7.2 8.05 L-6.95 7.85 Q-6.25 5.9 -4.1 3.05 L0.05 -2.15 0.5 -2.4 0.7 -2.6 1.4 -3.4 1.3 -1.45 1.4 -0.75 1.45 -0.6 Q1.4 0.55 1.85 1.55 L2.8 4.1 2.35 4.6 0.55 5.85 -2.45 8.0 Q-4.1 9.3 -4.95 10.95 L-5.25 11.8 -5.3 11.85 Q-5.4 12.95 -4.7 14.4 L-4.65 14.45 -3.1 16.05 M26.35 -4.65 Q26.15 -5.85 25.2 -7.7 23.75 -10.45 21.2 -11.6 L23.0 -11.65 23.1 -11.65 24.15 -11.75 25.65 -11.7 26.7 -11.7 29.2 -11.15 32.55 -10.35 35.5 -8.8 36.3 -8.25 38.45 -6.15 39.2 -4.8 Q39.6 -3.85 39.35 -2.7 39.15 -1.85 38.25 -0.7 L37.15 0.4 36.5 1.05 36.1 1.0 Q36.1 0.9 37.0 0.35 37.75 -0.4 37.95 -2.15 38.0 -3.05 37.0 -3.6 35.75 -4.3 33.95 -4.6 L30.25 -4.9 27.25 -4.75 26.35 -4.65" fill="#313131" fill-rule="evenodd" stroke="none"/>
      <path d="M-0.7 0.5 L1.1 -1.15 1.4 -0.75 0.35 0.15 -0.6 1.05 -0.7 0.5 M1.2 5.95 L1.2 5.85 2.6 4.3 2.65 4.25 2.8 4.3 2.7 4.45 2.95 4.85 1.45 6.25 1.2 5.95 M4.5 9.35 L5.8 8.05 5.9 8.05 6.15 8.2 4.9 9.65 4.5 9.35 M4.55 10.05 L4.5 10.1 Q3.65 11.0 3.3 11.75 L4.3 12.4 4.5 12.5 4.45 12.75 4.25 12.85 4.15 12.75 3.1 12.3 Q2.7 13.1 3.0 14.0 2.3 14.4 1.85 14.75 2.1 13.15 2.7 12.0 1.5 11.15 0.65 10.85 L0.3 10.5 -0.2 10.2 -1.3 9.0 Q-2.35 10.05 -2.85 11.1 L-3.1 10.7 -1.45 8.55 -1.85 7.5 -2.25 7.0 Q-2.3 6.6 -2.45 6.45 L-2.55 5.9 -3.15 4.35 -4.55 6.15 -4.65 5.55 -3.3 3.65 -3.5 2.2 -3.45 2.1 -3.1 1.8 -2.9 3.2 -2.45 2.55 -0.95 0.9 -1.0 1.4 -2.5 3.4 -2.8 3.8 -2.25 5.45 -2.1 6.05 -1.8 6.8 -1.55 7.25 -1.15 8.2 -0.5 7.45 0.9 6.25 1.1 6.65 -0.4 8.1 -0.85 8.6 0.15 9.8 0.45 10.1 1.0 10.45 2.85 11.55 3.85 10.1 4.25 9.8 4.55 10.05 M-1.0 14.9 L0.05 14.9 0.15 15.05 0.35 15.15 0.15 15.3 0.0 15.4 -0.95 15.3 -1.4 15.2 -3.25 14.65 Q-2.9 15.6 -2.35 16.15 L-2.7 16.15 -3.1 16.05 -3.2 15.95 -3.7 14.5 -4.45 14.1 -5.05 13.55 -5.35 13.3 -5.65 12.95 -6.05 12.3 Q-6.5 11.55 -6.55 10.7 L-6.65 9.95 -7.05 11.1 -7.15 13.25 -7.35 12.6 -7.3 10.95 Q-7.25 10.15 -6.8 9.2 L-6.95 7.85 -6.7 6.95 -6.5 8.4 -5.8 7.05 -5.05 6.0 Q-4.9 6.3 -4.9 6.55 L-4.9 6.85 -5.55 7.8 -6.35 9.2 -6.15 10.5 -5.85 11.5 -5.5 12.15 -5.4 12.4 -5.4 12.5 -4.8 13.2 -3.95 13.85 -3.9 12.5 Q-4.05 11.9 -3.45 11.05 L-3.15 11.5 Q-3.6 12.45 -3.5 13.2 L-3.4 14.05 -1.45 14.6 -1.0 14.9" fill="#ffffff" fill-rule="evenodd" stroke="none"/>
      <path d="M-0.95 15.3 L-0.9 15.65 -0.6 15.95 -0.55 15.9 0.85 15.65 -0.35 16.85 -0.65 16.75 -0.95 16.35 -1.4 15.2 -0.95 15.3" fill="#ffcc33" fill-rule="evenodd" stroke="none"/>
      <path d="M-0.95 0.9 L-1.25 -0.5 -0.85 -1.0 -0.7 0.5 -0.6 1.05 -0.15 3.1 0.4 2.65 1.45 1.65 1.85 2.15 1.4 2.35 1.1 2.6 0.3 3.45 0.15 3.65 0.95 5.45 1.2 5.95 1.45 6.25 2.8 8.0 4.35 6.6 4.65 6.9 3.15 8.25 4.5 9.35 4.9 9.65 5.95 10.35 6.0 10.55 6.0 10.75 5.95 10.8 5.75 10.8 4.55 10.05 4.25 9.8 2.9 8.65 1.0 10.45 0.45 10.1 1.0 9.7 2.5 8.25 1.1 6.65 0.9 6.25 0.4 5.7 -0.3 4.0 -2.1 6.05 -2.25 5.45 -0.5 3.5 -1.0 1.4 -0.95 0.9 M0.65 10.85 L-0.3 12.05 -0.7 12.5 1.7 13.8 1.8 13.9 1.85 14.05 1.6 14.15 1.45 14.2 -0.8 12.95 Q-1.15 13.6 -1.1 14.15 L-1.15 14.1 -1.0 14.9 -1.45 14.6 Q-1.75 13.85 -1.3 12.7 L-2.3 12.3 -2.35 12.3 -3.15 11.5 -3.45 11.05 -4.05 10.05 -4.35 9.45 -4.4 9.1 -5.2 10.65 -5.5 12.15 -5.85 11.5 Q-5.9 10.95 -5.55 10.25 L-4.7 8.5 -4.65 8.45 -4.9 6.85 -4.9 6.55 Q-4.9 6.3 -5.05 6.0 L-5.25 4.75 -4.95 4.1 -4.65 5.55 -4.55 6.15 -4.45 6.55 -4.15 7.95 -3.95 7.6 Q-3.35 6.6 -2.55 5.9 L-2.45 6.45 Q-3.5 7.4 -4.05 8.5 L-3.95 9.3 -3.65 9.7 -3.1 10.7 -2.85 11.1 -2.1 11.9 -1.1 12.25 0.3 10.5 0.65 10.85 M-5.65 12.95 Q-5.5 14.1 -4.95 15.4 L-5.3 15.2 Q-6.15 13.8 -6.05 12.3 L-5.65 12.95" fill="#9a9a9a" fill-rule="evenodd" stroke="none"/>
      <path d="M27.7 -9.95 L30.0 -9.6 29.1 -11.25 29.7 -11.1 30.55 -9.5 30.65 -9.5 33.0 -9.0 33.6 -8.85 35.5 -8.25 36.4 -7.85 36.05 -8.6 36.6 -8.05 37.0 -7.45 37.5 -7.15 38.4 -6.4 38.55 -6.15 39.05 -5.25 37.35 -6.8 37.95 -4.75 37.35 -5.0 36.7 -7.25 35.3 -7.8 33.9 -8.25 33.25 -8.45 30.95 -9.0 31.7 -6.9 31.2 -7.0 30.3 -9.1 28.05 -9.5 27.5 -9.5 23.8 -9.85 23.6 -9.85 Q23.45 -10.0 23.55 -10.1 L23.6 -10.3 23.8 -10.3 27.15 -10.05 27.7 -9.95 M37.95 -4.1 L37.95 -3.0 37.75 -1.95 38.75 -1.35 38.4 -0.95 37.7 -1.45 36.5 0.5 36.2 0.2 37.25 -1.65 35.2 -2.3 34.7 -2.55 33.85 -2.75 32.55 -3.05 32.25 -1.1 31.85 -1.1 31.95 -3.15 30.15 -3.4 29.65 -3.45 Q28.05 -3.65 26.95 -3.45 L26.9 -3.5 Q26.75 -3.45 26.7 -3.55 L26.6 -3.65 26.65 -3.85 26.8 -3.9 27.95 -4.05 29.55 -4.0 30.1 -4.0 32.0 -3.65 31.75 -4.8 31.35 -6.5 31.85 -6.45 32.3 -4.8 32.4 -3.6 33.95 -3.2 34.75 -3.05 35.3 -2.85 37.4 -2.1 37.55 -3.4 37.45 -4.45 37.95 -4.1 M36.2 0.85 L36.05 0.85 35.95 0.75 35.9 0.7 35.85 0.55 36.2 0.85 M32.15 -0.65 L32.15 -0.55 31.55 1.55 32.95 1.65 33.05 1.75 33.15 1.95 33.1 2.1 32.95 2.15 31.55 2.05 Q31.45 2.25 31.5 2.65 L31.55 2.4 31.7 2.35 31.9 2.3 32.0 2.45 32.0 2.65 31.7 2.9 31.4 3.25 31.15 3.2 31.05 3.1 31.0 2.7 31.05 1.9 29.6 1.85 29.2 1.8 27.15 1.7 27.05 1.6 26.9 1.4 27.0 1.25 27.1 1.25 29.25 1.35 29.65 1.35 29.75 1.4 31.25 1.55 Q31.3 0.65 31.7 -0.65 L31.75 -0.65 32.15 -0.65" fill="#ffffff" fill-rule="evenodd" stroke="none"/>
      <path d="M29.6 1.85 L29.25 2.95 29.15 3.05 29.0 3.1 28.85 3.05 28.8 2.75 29.2 1.8 29.6 1.85" fill="#ffcc33" fill-rule="evenodd" stroke="none"/>
      <path d="M33.0 -9.0 L32.25 -10.5 Q32.6 -10.3 32.9 -10.2 L33.6 -8.85 33.0 -9.0 M37.95 -4.75 L39.35 -3.65 39.5 -3.1 Q39.45 -2.8 39.25 -3.0 L37.95 -4.1 37.45 -4.45 35.0 -5.6 35.2 -4.4 35.25 -3.0 35.3 -2.85 34.75 -3.05 34.75 -4.65 34.45 -5.9 31.85 -6.45 31.35 -6.5 29.35 -6.75 30.0 -4.9 Q29.9 -4.45 30.1 -4.0 L29.55 -4.0 29.4 -4.95 28.85 -6.8 25.75 -7.0 25.6 -7.05 25.55 -7.2 25.6 -7.35 25.75 -7.4 28.7 -7.3 27.5 -9.5 28.05 -9.5 29.15 -7.2 31.2 -7.0 31.7 -6.9 34.25 -6.35 34.1 -6.8 33.25 -8.45 33.9 -8.25 34.55 -6.9 34.8 -6.25 37.35 -5.0 37.95 -4.75 M36.5 0.5 L37.45 1.75 37.45 1.85 37.25 1.95 37.2 2.0 37.0 2.1 36.9 2.0 36.9 1.85 Q36.65 1.2 36.2 0.85 L35.85 0.55 Q35.35 0.15 34.55 -0.1 L33.75 2.3 33.55 2.45 33.45 2.55 33.35 2.5 33.2 2.45 33.2 2.35 33.2 2.2 34.15 -0.25 32.65 -0.6 32.15 -0.65 31.75 -0.65 31.7 -0.65 30.1 -0.85 29.75 1.4 29.65 1.35 29.25 1.35 29.65 -0.85 27.1 -0.55 26.9 -0.65 26.8 -0.75 26.9 -1.0 27.0 -1.1 29.75 -1.3 29.65 -3.45 30.15 -3.4 30.15 -1.25 31.85 -1.1 32.25 -1.1 32.65 -1.0 34.35 -0.65 34.7 -2.55 35.2 -2.3 34.8 -0.5 36.2 0.2 36.5 0.5 M27.15 -10.05 L25.9 -11.65 26.5 -11.6 27.7 -9.95 27.15 -10.05" fill="#9a9a9a" fill-rule="evenodd" stroke="none"/>
      <path d="M29.55 -4.0 L29.45 -4.9 30.0 -4.85 Q29.9 -4.4 30.1 -4.0 L31.95 -3.65 31.75 -4.8 32.3 -4.8 32.4 -3.6 33.95 -3.2 34.75 -3.05 34.75 -4.65 35.2 -4.35 35.25 -3.0 35.25 -2.85 37.35 -2.1 37.5 -3.4 37.95 -3.0 37.7 -1.95 37.95 -1.8 37.8 -1.4 Q37.75 -1.35 37.7 -1.45 37.25 -0.45 36.45 0.5 L37.45 1.75 36.85 1.85 36.2 0.85 36.05 0.9 35.95 0.75 35.9 0.7 35.85 0.55 Q35.35 0.15 34.55 -0.1 L33.7 2.3 33.2 2.45 33.2 2.35 33.15 2.2 34.15 -0.2 32.65 -0.6 32.15 -0.65 32.1 -0.55 31.55 1.55 32.95 1.65 33.05 1.75 33.15 1.95 33.05 2.1 32.9 2.15 31.5 2.05 31.45 2.65 31.55 2.4 31.7 2.35 31.9 2.3 32.0 2.5 31.95 2.7 31.7 2.9 31.15 3.2 31.05 3.1 30.95 2.7 31.05 1.9 29.55 1.85 29.3 2.95 29.2 3.05 29.0 3.1 28.9 3.05 28.85 2.8 29.2 1.8 27.15 1.7 27.1 1.6 26.95 1.45 27.05 1.25 27.15 1.25 29.3 1.35 29.65 -0.8 27.15 -0.5 26.95 -0.65 26.85 -0.75 26.9 -1.0 27.05 -1.1 29.7 -1.25 29.7 -3.45 Q28.1 -3.65 26.95 -3.45 26.8 -4.15 27.95 -4.0 L29.55 -4.0 M35.2 -2.3 L34.8 -0.45 36.2 0.2 37.25 -1.65 35.2 -2.3 M32.2 -1.1 L32.65 -1.0 34.35 -0.65 34.7 -2.55 33.85 -2.75 32.5 -3.0 32.2 -1.1 M31.65 -0.6 L31.75 -0.65 30.1 -0.85 29.75 1.4 31.25 1.55 Q31.25 0.65 31.65 -0.6 M30.15 -3.4 L30.1 -1.25 31.8 -1.1 31.9 -3.15 30.15 -3.4 M2.75 4.35 L2.7 4.5 2.95 4.85 1.4 6.25 2.8 8.05 4.35 6.6 4.65 6.95 3.1 8.35 4.5 9.35 5.8 8.1 5.9 8.1 6.15 8.25 4.85 9.7 5.9 10.35 6.0 10.55 6.0 10.75 5.95 10.8 5.75 10.8 4.55 10.05 4.5 10.1 Q3.65 11.0 3.3 11.75 L4.3 12.4 4.5 12.5 4.45 12.75 4.2 12.85 4.15 12.75 3.1 12.3 Q2.7 13.15 2.95 14.0 L1.85 14.75 Q2.1 13.2 2.65 12.0 1.5 11.15 0.65 10.85 L-0.3 12.05 -0.75 12.5 1.7 13.8 1.75 13.9 1.8 14.05 1.6 14.15 1.45 14.2 -0.8 12.95 Q-1.15 13.65 -1.1 14.15 L-1.15 14.1 -1.0 14.9 0.05 14.95 0.15 15.05 0.3 15.15 0.15 15.3 0.0 15.45 -0.95 15.3 -0.95 15.65 -0.6 15.95 -0.55 15.9 0.85 15.65 -0.35 16.85 -0.65 16.75 -1.0 16.35 -1.4 15.25 -3.25 14.7 -2.6 16.0 -3.1 15.75 -3.25 15.8 -3.7 14.5 -4.5 14.15 -5.0 13.6 -5.3 12.7 -5.25 12.6 -4.8 13.2 -3.95 13.85 -3.9 12.5 -3.85 12.0 -3.5 11.05 -4.3 9.75 -3.85 9.5 -3.1 10.7 -2.75 10.15 -1.5 8.6 -1.85 7.55 -1.6 7.3 -1.15 8.2 -0.5 7.5 0.85 6.25 0.5 5.8 0.9 5.45 1.2 5.95 1.2 5.85 2.55 4.3 2.75 4.35 M1.1 6.7 L-0.4 8.15 -0.9 8.65 0.15 9.8 0.45 10.1 1.0 9.75 2.45 8.35 1.1 6.7 M4.25 9.85 Q3.4 9.25 2.9 8.65 L1.0 10.5 2.85 11.6 3.85 10.1 4.25 9.85 M-3.25 11.65 Q-3.65 12.5 -3.5 13.2 L-3.4 14.05 -1.45 14.6 Q-1.75 13.85 -1.3 12.7 L-2.35 12.3 -2.4 12.35 -3.05 11.6 -3.15 11.5 -3.25 11.65 M-2.7 11.2 L-2.1 11.9 -1.1 12.3 0.25 10.55 -0.2 10.2 -1.3 9.0 Q-2.2 9.75 -2.6 10.55 L-2.9 11.1 -2.7 11.2" fill="#000000" fill-opacity="0.4117647" fill-rule="evenodd" stroke="none"/>
      <path d="M2.5 4.65 L2.15 4.05 Q1.6 3.1 1.15 1.45 0.6 -0.25 0.65 -1.4 L0.7 -2.65 2.0 -4.0 Q1.2 -1.5 1.95 1.0 2.6 3.15 3.2 4.15 L2.5 4.65 M26.4 -4.65 L26.35 -5.05 25.05 -7.8 Q23.75 -10.2 21.15 -11.6 L22.3 -11.8 23.15 -11.55 24.45 -10.4 25.9 -8.1 27.15 -5.2 27.25 -4.75 26.45 -4.7 26.4 -4.65" fill="#ffffff" fill-rule="evenodd" stroke="none"/>
      <path d="M3.2 4.15 L3.25 4.1 Q3.75 5.15 5.15 6.6 L7.2 8.3 8.5 8.9 9.45 9.2 8.3 9.85 8.2 9.65 7.7 9.5 5.75 8.35 4.2 6.95 3.5 6.15 2.5 4.65 3.2 4.15 M26.4 -4.65 L26.45 -4.7 27.25 -4.75 27.65 -3.0 27.75 -2.0 27.65 0.2 26.95 2.35 26.7 2.75 27.0 3.45 25.55 4.4 Q24.7 4.65 23.65 5.2 23.8 4.5 24.55 4.5 25.1 4.6 26.0 2.5 L26.45 1.2 26.75 -1.6 26.4 -4.65" fill="#9a9a9a" fill-rule="evenodd" stroke="none"/>
      <path d="M4.7 3.3 L4.55 3.1 4.4 2.95 4.3 2.65 Q3.45 0.85 3.4 -0.6 L3.45 -0.65 Q3.65 -2.5 4.95 -3.15 L7.9 -3.1 7.7 -3.25 Q9.4 -2.45 10.55 -0.65 L10.65 -0.2 10.7 -0.15 10.55 -0.1 8.4 1.1 8.4 0.8 7.7 0.0 6.95 -0.35 6.7 -0.35 Q6.25 -0.25 6.35 0.65 L6.45 1.65 6.75 2.05 4.7 3.3 M11.2 -0.35 L8.5 -3.95 8.35 -4.05 8.1 -4.25 8.05 -4.45 8.25 -4.65 9.15 -5.45 Q10.0 -6.35 11.55 -6.9 13.15 -7.5 14.7 -6.55 L14.85 -6.45 15.5 -5.7 14.95 -8.35 15.0 -8.3 17.35 -8.8 20.05 -9.5 22.3 -9.95 23.25 -6.95 23.15 -6.85 21.15 -6.5 21.85 -3.95 20.9 -3.75 18.65 -3.25 18.0 -5.65 16.0 -5.25 Q16.15 -4.45 15.95 -3.8 L15.65 -3.25 16.1 -3.3 17.0 -2.95 17.1 -2.95 17.25 -2.9 13.85 -1.65 11.2 -0.35 M13.15 -3.9 L13.25 -4.0 12.85 -4.3 11.75 -3.85 12.25 -3.15 Q12.95 -3.45 13.15 -3.9" fill="#ffcc33" fill-rule="evenodd" stroke="none"/>
      <path d="M4.7 3.3 L6.75 2.05 6.85 2.15 7.05 2.35 Q7.7 2.8 8.2 2.7 L8.4 2.6 8.45 2.55 8.55 2.25 8.6 2.05 8.55 2.0 8.5 1.4 8.4 1.1 10.55 -0.1 10.7 -0.15 10.95 0.4 Q11.5 1.65 11.5 3.1 11.45 4.85 10.15 5.55 8.8 6.15 7.0 5.25 5.65 4.75 4.7 3.3 M11.2 -0.35 L13.85 -1.65 17.25 -2.9 17.65 -2.55 17.85 -2.35 17.85 -2.3 Q18.5 -1.55 18.35 -0.65 L17.8 0.55 17.0 1.45 15.1 2.8 13.6 3.3 Q13.15 3.35 13.15 3.45 L12.7 2.5 11.4 0.1 11.2 -0.35 M18.65 -3.25 L20.9 -3.75 21.85 -3.95 22.65 -0.95 22.95 -0.1 22.9 -0.05 22.3 0.05 20.35 0.6 19.8 0.75 18.65 -3.25 M13.95 -0.55 L14.4 0.25 15.05 -0.35 15.15 -0.45 15.1 -0.65 15.05 -0.7 14.75 -0.7 13.95 -0.55" fill="#a17f19" fill-rule="evenodd" stroke="none"/>
      <path d="M5.35 2.85 L5.3 2.8 5.05 2.4 Q4.15 0.7 4.2 -0.75 4.35 -2.1 5.25 -2.55 L7.45 -2.5 7.4 -2.45 Q8.75 -1.9 9.55 -0.35 L9.9 0.2 Q9.3 0.5 8.85 0.9 L8.75 0.4 8.0 -0.7 7.15 -1.2 6.1 -1.15 6.0 -1.15 Q5.45 -0.85 5.45 0.15 5.4 0.95 5.95 1.9 L6.25 2.4 5.35 2.85 M11.5 -0.45 L9.05 -4.4 9.9 -5.1 12.0 -6.15 Q13.05 -6.7 14.2 -5.8 15.35 -4.9 15.05 -3.85 14.7 -2.75 14.15 -2.5 L13.65 -2.1 13.95 -2.3 14.75 -2.55 15.6 -2.55 16.35 -2.4 16.5 -2.25 14.5 -1.75 14.0 -1.6 13.05 -1.15 12.75 -1.05 11.5 -0.45 M19.15 -3.0 L18.2 -6.4 15.85 -5.95 16.15 -6.25 15.65 -7.8 21.8 -9.45 22.35 -7.5 20.1 -7.15 19.85 -7.0 19.75 -7.0 21.05 -3.5 Q20.05 -3.45 19.15 -3.0 M13.4 -4.7 Q13.2 -5.3 12.65 -5.25 L11.15 -4.65 10.9 -4.5 12.2 -2.35 12.5 -2.5 Q13.35 -3.1 13.5 -3.6 13.65 -4.1 13.4 -4.7" fill="#ffffff" fill-rule="evenodd" stroke="none"/>
      <path d="M9.9 0.2 L10.1 0.65 Q10.45 1.65 10.35 2.6 10.4 3.95 9.45 4.5 L7.2 4.35 Q6.1 4.0 5.35 2.85 L6.25 2.4 6.3 2.45 6.8 2.95 7.4 3.1 8.1 3.15 8.85 2.8 9.15 2.05 9.15 1.4 8.85 0.9 Q9.3 0.5 9.9 0.2 M16.5 -2.25 L16.65 -2.2 17.05 -1.95 16.95 -1.95 17.3 -0.9 Q17.95 -0.6 17.25 -0.1 L15.9 1.0 Q15.3 1.6 14.4 1.95 L13.25 2.35 12.0 -0.15 Q11.95 -0.35 11.5 -0.45 L12.75 -1.05 12.7 -1.0 12.65 -0.8 12.7 -0.75 13.65 0.95 13.7 1.0 13.9 1.0 13.95 1.1 Q14.8 0.65 15.15 0.2 L15.65 -0.4 15.8 -0.9 15.75 -1.15 15.65 -1.4 15.6 -1.45 15.35 -1.55 15.25 -1.55 14.35 -1.6 14.0 -1.6 14.5 -1.75 16.5 -2.25 M21.05 -3.5 L21.65 -0.85 20.25 -0.3 19.15 -3.0 Q20.05 -3.45 21.05 -3.5" fill="#9ba6d2" fill-rule="evenodd" stroke="none"/>
      <path d="M5.0 3.1 L4.9 3.0 4.6 2.65 Q3.7 0.8 3.75 -0.8 3.9 -2.45 5.05 -3.05 L7.6 -2.9 Q9.05 -2.25 9.95 -0.55 L10.2 -0.15 10.25 0.1 9.95 0.3 9.75 0.1 9.55 -0.4 Q8.75 -1.9 7.45 -2.45 L7.5 -2.5 5.3 -2.6 Q4.4 -2.1 4.25 -0.75 4.15 0.7 5.05 2.4 L5.3 2.8 5.4 2.9 5.0 3.1 M11.4 -0.4 L11.3 -0.5 8.55 -4.25 8.45 -4.45 8.5 -4.6 9.6 -5.45 Q10.5 -6.15 11.85 -6.65 L11.9 -6.7 Q13.05 -7.2 14.45 -6.2 15.65 -5.15 15.35 -3.95 L15.0 -3.1 16.0 -3.2 16.8 -2.8 16.25 -2.5 15.6 -2.6 14.8 -2.55 13.95 -2.3 Q13.8 -2.15 13.7 -2.15 L13.95 -2.4 14.9 -3.85 Q15.45 -4.95 14.25 -5.8 13.0 -6.7 11.95 -6.2 L9.85 -5.1 9.05 -4.4 11.65 -0.6 11.75 -0.5 11.4 -0.4 M6.3 2.45 L6.15 2.25 5.95 1.9 Q5.4 0.95 5.45 0.15 5.45 -0.85 6.05 -1.15 L6.15 -1.15 7.2 -1.2 8.0 -0.7 8.75 0.4 8.85 0.6 8.95 0.8 8.8 0.95 8.7 0.75 8.45 0.4 Q8.1 -0.4 7.4 -0.75 L7.35 -0.7 7.15 -0.8 7.05 -0.8 6.3 -0.75 Q5.95 -0.5 6.05 0.15 L6.0 0.25 Q5.8 0.9 6.25 1.7 L6.3 1.8 6.6 2.0 6.7 2.1 6.3 2.45 M18.9 -3.55 L18.2 -6.2 15.9 -5.75 15.75 -5.9 15.2 -7.95 15.2 -8.05 15.3 -8.15 15.95 -8.3 21.7 -9.55 21.9 -9.55 22.0 -9.35 22.55 -7.6 22.6 -7.55 22.5 -7.4 20.3 -6.8 21.25 -4.05 20.75 -4.0 19.75 -7.0 19.85 -7.1 20.15 -7.2 22.3 -7.6 21.65 -9.3 15.65 -7.85 16.2 -6.25 18.3 -6.5 19.2 -3.6 18.9 -3.55 M13.2 -3.7 L13.35 -4.4 12.6 -4.75 11.35 -4.25 11.05 -4.1 12.0 -2.65 12.25 -2.9 13.2 -3.7 M13.6 -4.7 Q13.85 -4.05 13.6 -3.6 L12.45 -2.5 11.95 -2.15 11.9 -2.3 10.7 -4.35 11.15 -4.65 12.65 -5.25 Q13.25 -5.35 13.6 -4.7" fill="#313131" fill-rule="evenodd" stroke="none"/>
      <path d="M5.0 3.1 L5.4 2.9 Q6.15 4.0 7.2 4.35 L9.4 4.5 Q10.35 3.95 10.3 2.6 10.45 1.75 10.1 0.7 L10.05 0.65 9.95 0.3 10.25 0.1 10.5 0.5 10.5 0.55 Q10.85 1.6 10.8 2.65 10.7 4.35 9.7 4.9 8.6 5.6 7.1 4.9 5.8 4.25 5.0 3.1 M11.4 -0.4 L11.75 -0.5 12.0 -0.15 13.25 2.3 14.45 1.95 Q15.3 1.55 15.9 0.95 L17.05 -0.1 Q17.5 -0.65 17.3 -0.9 L16.95 -1.95 17.05 -1.95 16.65 -2.2 16.55 -2.2 16.4 -2.4 16.25 -2.5 16.8 -2.8 16.9 -2.7 17.15 -2.5 17.55 -2.05 17.9 -1.2 17.65 -0.15 17.05 0.65 16.3 1.3 Q15.55 1.95 14.55 2.3 L13.1 2.7 13.0 2.7 12.95 2.65 11.6 0.1 11.4 -0.4 M6.3 2.45 L6.7 2.1 6.75 2.2 6.8 2.25 7.35 2.65 7.4 2.7 8.45 2.75 Q8.8 2.5 8.85 1.8 L8.85 1.35 8.8 1.25 8.8 0.95 8.95 0.8 9.1 1.25 9.15 1.4 9.1 2.05 8.85 2.8 8.1 3.1 7.4 3.05 6.8 2.9 6.35 2.5 6.3 2.45 M18.9 -3.55 L19.2 -3.6 20.25 -0.3 21.65 -0.85 20.75 -4.0 21.25 -4.05 22.3 -0.5 22.2 -0.4 22.0 -0.4 20.1 0.1 20.0 0.2 19.8 0.05 19.7 -0.05 18.9 -3.3 18.85 -3.35 18.9 -3.55 M13.3 -0.8 L13.2 -0.8 13.3 -0.7 13.25 -0.65 13.95 0.5 15.05 -0.25 15.15 -0.35 15.4 -0.85 15.15 -1.15 14.4 -1.15 14.05 -1.1 13.3 -0.8 M12.65 -0.8 L12.65 -0.9 12.55 -0.9 12.8 -1.15 13.0 -1.2 14.0 -1.6 14.35 -1.6 14.5 -1.65 15.15 -1.55 15.25 -1.55 15.35 -1.55 15.6 -1.45 15.65 -1.4 15.8 -1.15 15.8 -0.9 15.7 -0.4 15.2 0.2 13.95 1.05 13.9 1.0 13.7 1.0 13.65 0.95 12.7 -0.75 12.65 -0.8" fill="#000000" fill-rule="evenodd" stroke="none"/>
      <path d="M29.85 1.7 L33.7 0.9 37.35 0.35 37.45 0.35 37.7 0.65 37.55 1.65 Q37.35 2.2 37.5 2.7 L36.95 2.9 36.95 0.95 36.95 1.05 33.85 1.5 33.0 1.6 32.7 1.7 Q31.8 1.4 29.85 1.7 M34.0 3.4 L33.75 3.4 33.8 2.7 33.55 2.35 33.25 2.05 33.15 1.95 Q32.95 1.45 33.7 2.2 L33.75 2.25 Q34.15 3.05 34.0 3.4 M33.6 3.5 L33.45 3.65 33.6 3.1 33.6 3.25 33.6 3.5 M32.0 4.25 L31.3 4.4 Q30.9 4.25 30.0 4.4 L28.85 4.55 28.85 3.35 Q28.85 2.7 28.5 2.15 L30.6 1.8 29.55 2.15 30.25 2.1 Q31.65 2.1 32.25 2.45 L32.8 3.1 32.75 3.7 32.0 4.25 M28.35 4.7 L28.65 4.75 28.25 4.8 27.05 5.05 Q25.4 4.05 26.95 2.75 L19.15 5.1 18.95 4.9 26.65 2.4 27.0 2.4 27.65 2.25 Q28.25 3.5 28.25 4.8 L28.35 4.7 M8.35 11.9 L5.9 13.4 5.9 13.5 Q5.05 12.3 4.75 11.1 4.7 11.0 4.8 11.05 L6.4 9.95 Q9.95 7.9 14.45 6.35 L14.4 6.55 12.35 7.4 Q10.2 8.35 6.9 10.0 9.0 10.15 8.35 11.9 M5.15 13.9 L5.0 14.05 1.0 16.8 0.95 16.85 0.65 16.45 Q0.4 15.8 0.8 15.05 L1.35 14.1 1.2 14.2 Q-1.0 15.45 -2.25 17.25 -1.35 17.6 -0.75 18.3 L-1.1 18.5 -1.2 18.5 Q-1.4 18.05 -1.9 17.8 L-2.9 17.05 -2.95 17.1 -2.95 17.0 -3.05 16.9 -2.9 16.95 -1.9 15.85 Q-0.7 14.65 3.75 11.65 4.1 12.95 5.15 13.9 M31.4 1.9 L31.6 1.9 32.6 2.1 Q33.25 2.2 33.45 2.65 L33.4 2.6 33.1 2.35 33.0 2.25 32.8 2.25 31.4 1.9 M30.65 3.25 L30.7 3.15 30.4 2.9 30.35 3.2 30.65 3.25 M2.75 14.0 L2.9 14.05 3.05 13.75 2.6 13.65 2.75 14.0 M6.25 11.75 L6.65 11.8 Q6.9 11.6 6.75 11.35 L6.45 11.3 6.25 11.75" fill="#cd994b" fill-rule="evenodd" stroke="none"/>
      <path d="M29.85 1.7 Q31.8 1.4 32.7 1.7 L33.0 1.6 33.85 1.5 36.95 1.05 36.95 0.95 36.95 2.9 36.75 3.0 36.55 3.0 36.2 3.05 35.7 3.1 35.15 3.25 34.7 3.25 34.15 3.35 34.0 3.4 Q34.15 3.05 33.75 2.25 L33.7 2.2 Q32.95 1.45 33.15 1.95 L33.25 2.05 33.55 2.35 33.8 2.7 33.75 3.4 33.6 3.5 33.6 3.25 33.6 3.1 33.55 2.9 33.45 2.8 33.4 2.7 33.4 2.6 33.45 2.65 Q33.25 2.2 32.6 2.1 L31.6 1.9 31.4 1.9 31.15 1.9 30.6 1.8 28.5 2.15 Q28.85 2.7 28.85 3.35 L28.85 4.55 28.35 4.7 28.25 4.8 Q28.25 3.5 27.65 2.25 L27.6 2.2 27.8 2.2 27.85 2.25 27.9 2.2 28.15 2.1 28.4 2.15 30.0 1.75 29.85 1.7 M27.05 5.05 L20.1 7.2 Q19.85 6.0 19.15 5.1 L26.95 2.75 Q25.4 4.05 27.05 5.05 M19.4 7.45 L19.2 7.4 18.85 7.5 16.4 8.4 16.3 8.4 Q15.55 7.85 15.3 6.6 L15.45 6.6 18.5 5.65 Q19.15 6.5 19.4 7.45 M15.2 8.85 Q11.6 10.15 8.35 11.9 9.0 10.15 6.9 10.0 10.2 8.35 12.35 7.4 L14.4 6.55 Q14.55 7.65 15.2 8.8 L15.2 8.85 M5.9 13.5 L5.8 13.45 5.75 13.5 5.15 13.9 Q4.1 12.95 3.75 11.65 L4.1 11.35 4.45 11.25 4.5 11.2 4.6 11.2 4.6 11.1 4.75 11.1 Q5.05 12.3 5.9 13.5 M0.95 16.85 L-0.15 17.8 -0.55 18.15 -0.75 18.3 Q-1.35 17.6 -2.25 17.25 -1.0 15.45 1.2 14.2 L1.35 14.1 0.8 15.05 Q0.4 15.8 0.65 16.45 L0.95 16.85 M35.05 1.9 Q34.85 2.0 34.95 2.2 L35.25 2.25 35.35 1.95 35.05 1.9 M25.75 4.3 L25.6 4.15 25.25 4.25 25.25 4.45 25.6 4.65 25.75 4.3 M21.8 5.45 L21.6 5.25 Q21.2 5.4 21.3 5.6 L21.65 5.6 21.8 5.45 M16.85 7.3 L16.95 7.3 Q17.2 7.15 17.05 6.9 L16.75 6.6 16.45 6.75 16.4 6.8 16.3 6.8 Q16.05 6.9 16.3 7.2 16.25 7.4 16.55 7.3 L16.75 7.35 16.85 7.3 M10.9 9.1 Q10.7 9.15 10.8 9.4 10.85 9.7 11.15 9.5 11.5 9.45 11.3 9.1 L10.9 9.1 M0.1 16.45 L0.2 16.2 Q0.2 16.0 0.0 16.2 L-0.15 16.15 -0.1 16.45 0.1 16.45" fill="#aa6600" fill-rule="evenodd" stroke="none"/>
      <path d="M33.45 3.65 L32.85 4.05 32.2 4.25 32.0 4.25 32.75 3.7 32.8 3.1 32.25 2.45 Q31.65 2.1 30.25 2.1 L29.55 2.15 30.6 1.8 31.15 1.9 31.4 1.9 32.8 2.25 33.0 2.25 33.1 2.35 33.4 2.6 33.4 2.7 33.45 2.8 33.55 2.9 33.6 3.1 33.45 3.65" fill="#ffce85" fill-rule="evenodd" stroke="none"/>
      <path d="M35.05 1.9 L35.35 1.95 35.25 2.25 34.95 2.2 Q34.85 2.0 35.05 1.9 M30.65 3.25 L30.35 3.2 30.4 2.9 30.7 3.15 30.65 3.25 M25.75 4.3 L25.6 4.65 25.25 4.45 25.25 4.25 25.6 4.15 25.75 4.3 M21.8 5.45 L21.65 5.6 21.3 5.6 Q21.2 5.4 21.6 5.25 L21.8 5.45 M10.9 9.1 L11.3 9.1 Q11.5 9.45 11.15 9.5 10.85 9.7 10.8 9.4 10.7 9.15 10.9 9.1 M16.85 7.3 L16.75 7.35 16.55 7.3 Q16.25 7.4 16.3 7.2 16.05 6.9 16.3 6.8 L16.4 6.8 16.45 6.75 16.75 6.6 17.05 6.9 Q17.2 7.15 16.95 7.3 L16.85 7.3 M6.25 11.75 L6.45 11.3 6.75 11.35 Q6.9 11.6 6.65 11.8 L6.25 11.75 M2.75 14.0 L2.6 13.65 3.05 13.75 2.9 14.05 2.75 14.0 M0.1 16.45 L-0.1 16.45 -0.15 16.15 0.0 16.2 Q0.2 16.0 0.2 16.2 L0.1 16.45" fill="#663d00" fill-rule="evenodd" stroke="none"/>
      <path d="M20.1 7.2 L19.4 7.45 Q19.15 6.5 18.5 5.65 L15.45 6.6 15.3 6.6 Q15.55 7.85 16.3 8.4 L15.2 8.85 15.2 8.8 Q14.55 7.65 14.4 6.55 L14.45 6.35 14.95 6.2 16.4 5.7 18.8 4.9 18.95 4.9 19.15 5.1 Q19.85 6.0 20.1 7.2" fill="#835108" fill-rule="evenodd" stroke="none"/>
      <path d="M28.05 1.75 L28.75 3.45 29.1 3.3 29.2 3.3 29.2 4.05 29.3 4.8 28.6 5.05 28.8 4.9 28.75 4.85 28.6 4.2 28.4 3.15 27.95 1.85 28.05 1.75 M25.35 2.4 L26.05 4.35 26.6 3.95 26.8 5.55 26.25 5.55 26.15 5.1 26.25 5.3 25.95 4.3 25.2 2.45 25.35 2.4 M20.15 6.3 L20.25 6.8 20.35 7.8 17.3 8.85 15.35 9.45 Q15.0 9.35 14.6 8.25 L14.5 8.15 14.65 8.15 14.9 8.1 14.75 7.85 14.75 7.8 14.65 7.75 Q15.8 6.95 16.95 6.9 L16.85 7.1 Q16.85 7.3 16.1 7.55 15.25 7.6 15.15 7.8 L15.25 8.05 15.45 8.65 17.95 7.9 19.5 7.35 19.45 6.55 Q19.4 5.85 18.95 4.9 L18.8 4.9 19.1 4.8 19.7 6.05 19.8 6.4 20.15 6.3 M14.75 6.25 L14.95 7.2 14.75 7.3 Q14.4 6.3 14.75 6.25 M8.95 8.2 L9.35 7.95 10.5 11.0 10.65 11.3 Q10.2 11.35 10.05 11.6 L9.5 10.5 9.75 10.45 8.95 8.2 M3.8 11.05 Q3.95 11.0 4.05 10.9 L5.0 12.75 5.75 13.85 5.15 14.2 Q4.6 13.75 4.25 12.9 L4.7 12.9 4.05 11.45 3.8 11.05" fill="#a7c7d9" fill-rule="evenodd" stroke="none"/>
      <path d="M28.05 1.75 L28.5 1.7 28.6 1.85 28.85 2.7 29.1 3.3 28.75 3.45 28.05 1.75 M25.35 2.4 L25.95 2.1 26.45 3.6 26.6 3.95 26.05 4.35 25.35 2.4 M14.5 8.15 Q14.05 7.05 13.9 5.85 L16.65 4.9 18.9 4.2 19.15 4.1 19.45 4.0 19.65 4.8 20.15 6.3 19.8 6.4 19.7 6.05 19.1 4.8 18.8 4.9 16.05 5.8 Q15.2 6.05 14.9 6.25 L14.75 6.25 Q14.4 6.3 14.75 7.3 L14.95 7.2 15.9 6.85 16.5 6.7 Q16.85 6.65 16.9 6.85 L16.95 6.9 Q15.8 6.95 14.65 7.75 L14.75 7.8 14.75 7.85 14.9 8.1 14.65 8.15 14.5 8.15 M9.5 10.5 L9.25 9.85 8.65 8.35 8.95 8.2 9.75 10.45 9.5 10.5 M4.25 12.9 L3.55 11.4 3.8 11.05 4.05 11.45 4.7 12.9 4.25 12.9" fill="#ffffff" fill-rule="evenodd" stroke="none"/>
    </g>
  </defs>
</svg>
