<svg xmlns="http://www.w3.org/2000/svg" xmlns:ffdec="https://www.free-decompiler.com/flash" xmlns:xlink="http://www.w3.org/1999/xlink" ffdec:objectType="frame" width="118.8" height="79.4"><use ffdec:characterId="1" xlink:href="#a" width="118.8" height="79.4"/><defs><radialGradient id="b" cx="0" cy="0" r="819.2" gradientTransform="translate(23.05 8.4)scale(.0299)" gradientUnits="userSpaceOnUse" spreadMethod="pad"><stop offset="0" stop-color="#fcd25b"/><stop offset="1" stop-color="#b1812b"/></radialGradient><radialGradient id="c" cx="0" cy="0" r="819.2" gradientTransform="translate(23.05 8.4)scale(.0299)" gradientUnits="userSpaceOnUse" spreadMethod="pad"><stop offset="0" stop-color="#c29b2c"/><stop offset="1" stop-color="#83590e"/></radialGradient><radialGradient id="d" cx="0" cy="0" r="819.2" gradientTransform="translate(23.05 8.4)scale(.0299)" gradientUnits="userSpaceOnUse" spreadMethod="pad"><stop offset="0" stop-color="#ffeaaf"/><stop offset="1" stop-color="#87662a"/></radialGradient><radialGradient id="e" cx="0" cy="0" r="819.2" gradientTransform="translate(23.05 8.4)scale(.0299)" gradientUnits="userSpaceOnUse" spreadMethod="pad"><stop offset="0" stop-color="#ffe9ad"/><stop offset="1" stop-color="#e2b86c"/></radialGradient><radialGradient id="f" cx="0" cy="0" r="819.2" gradientTransform="matrix(0 0 0 0 0 0)" gradientUnits="userSpaceOnUse" spreadMethod="pad"><stop offset="0" stop-color="#ffe9ad"/><stop offset="1" stop-color="#e2b86c"/></radialGradient><radialGradient id="h" cx="0" cy="0" r="819.2" gradientTransform="translate(22.8 7.45)scale(.0082)" gradientUnits="userSpaceOnUse" spreadMethod="pad"><stop offset="0" stop-color="#ffd55d"/><stop offset="1" stop-color="#9c6a1e"/></radialGradient><radialGradient id="i" cx="0" cy="0" r="819.2" gradientTransform="translate(22.8 7.45)scale(.0082)" gradientUnits="userSpaceOnUse" spreadMethod="pad"><stop offset="0" stop-color="#ffedbb"/><stop offset="1" stop-color="#dea54f"/></radialGradient><radialGradient id="l" cx="0" cy="0" r="819.2" gradientTransform="translate(24.55 11.85)scale(.002)" gradientUnits="userSpaceOnUse" spreadMethod="pad"><stop offset="0" stop-color="#ffedbb"/><stop offset="1" stop-color="#dea54f"/></radialGradient><radialGradient id="n" cx="0" cy="0" r="819.2" gradientTransform="translate(19.85 6.65)scale(.0013)" gradientUnits="userSpaceOnUse" spreadMethod="pad"><stop offset="0" stop-color="#ffedbb"/><stop offset="1" stop-color="#dea54f"/></radialGradient><radialGradient id="o" cx="0" cy="0" r="819.2" gradientTransform="matrix(.0047 0 .0006 .0047 32.55 7.45)" gradientUnits="userSpaceOnUse" spreadMethod="pad"><stop offset="0" stop-color="#ffd55d"/><stop offset="1" stop-color="#9c6a1e"/></radialGradient><radialGradient id="p" cx="0" cy="0" r="819.2" gradientTransform="matrix(.0047 0 .0006 .0047 32.55 7.45)" gradientUnits="userSpaceOnUse" spreadMethod="pad"><stop offset="0" stop-color="#ffedbb"/><stop offset="1" stop-color="#dea54f"/></radialGradient><radialGradient id="t" cx="0" cy="0" r="819.2" gradientTransform="matrix(.0007 0 .0001 .0007 30.85 7)" gradientUnits="userSpaceOnUse" spreadMethod="pad"><stop offset="0" stop-color="#ffedbb"/><stop offset="1" stop-color="#dea54f"/></radialGradient><radialGradient id="v" cx="0" cy="0" r="819.2" gradientTransform="matrix(.0011 0 .0002 .0011 33.9 9.95)" gradientUnits="userSpaceOnUse" spreadMethod="pad"><stop offset="0" stop-color="#ffedbb"/><stop offset="1" stop-color="#dea54f"/></radialGradient><radialGradient id="w" cx="0" cy="0" r="819.2" gradientTransform="matrix(.003 0 .0004 .003 39.65 7.9)" gradientUnits="userSpaceOnUse" spreadMethod="pad"><stop offset="0" stop-color="#ffd55d"/><stop offset="1" stop-color="#9c6a1e"/></radialGradient><radialGradient id="y" cx="0" cy="0" r="819.2" gradientTransform="matrix(.0007 0 .0001 .0007 40.55 9.5)" gradientUnits="userSpaceOnUse" spreadMethod="pad"><stop offset="0" stop-color="#ffedbb"/><stop offset="1" stop-color="#dea54f"/></radialGradient><radialGradient id="z" cx="0" cy="0" r="819.2" gradientTransform="matrix(.003 0 .0004 .003 39.65 7.9)" gradientUnits="userSpaceOnUse" spreadMethod="pad"><stop offset="0" stop-color="#ffedbb"/><stop offset="1" stop-color="#dea54f"/></radialGradient><radialGradient id="A" cx="0" cy="0" r="819.2" gradientTransform="matrix(.0005 0 .0001 .0005 38.55 7.6)" gradientUnits="userSpaceOnUse" spreadMethod="pad"><stop offset="0" stop-color="#ffedbb"/><stop offset="1" stop-color="#dea54f"/></radialGradient><radialGradient id="E" cx="0" cy="0" r="819.2" gradientTransform="matrix(.0029 0 .0006 .0029 45.35 8.1)" gradientUnits="userSpaceOnUse" spreadMethod="pad"><stop offset="0" stop-color="#ffd55d"/><stop offset="1" stop-color="#9c6a1e"/></radialGradient><radialGradient id="F" cx="0" cy="0" r="819.2" gradientTransform="matrix(.0004 0 .0001 .0004 44.25 7.85)" gradientUnits="userSpaceOnUse" spreadMethod="pad"><stop offset="0" stop-color="#ffedbb"/><stop offset="1" stop-color="#dea54f"/></radialGradient><radialGradient id="K" cx="0" cy="0" r="819.2" gradientTransform="matrix(.0029 0 .0006 .0029 45.35 8.1)" gradientUnits="userSpaceOnUse" spreadMethod="pad"><stop offset="0" stop-color="#ffedbb"/><stop offset="1" stop-color="#dea54f"/></radialGradient><radialGradient id="L" cx="0" cy="0" r="819.2" gradientTransform="matrix(-.0047 0 -.0006 .0047 12.85 7.45)" gradientUnits="userSpaceOnUse" spreadMethod="pad"><stop offset="0" stop-color="#ffedbb"/><stop offset="1" stop-color="#dea54f"/></radialGradient><radialGradient id="M" cx="0" cy="0" r="819.2" gradientTransform="matrix(-.0047 0 -.0006 .0047 12.85 7.45)" gradientUnits="userSpaceOnUse" spreadMethod="pad"><stop offset="0" stop-color="#ffd55d"/><stop offset="1" stop-color="#9c6a1e"/></radialGradient><radialGradient id="N" cx="0" cy="0" r="819.2" gradientTransform="matrix(-.0007 0 -.0001 .0007 14.55 7)" gradientUnits="userSpaceOnUse" spreadMethod="pad"><stop offset="0" stop-color="#ffedbb"/><stop offset="1" stop-color="#dea54f"/></radialGradient><radialGradient id="S" cx="0" cy="0" r="819.2" gradientTransform="matrix(-.0011 0 -.0002 .0011 11.5 9.95)" gradientUnits="userSpaceOnUse" spreadMethod="pad"><stop offset="0" stop-color="#ffedbb"/><stop offset="1" stop-color="#dea54f"/></radialGradient><radialGradient id="T" cx="0" cy="0" r="819.2" gradientTransform="matrix(-.003 0 -.0004 .003 5.75 7.9)" gradientUnits="userSpaceOnUse" spreadMethod="pad"><stop offset="0" stop-color="#ffedbb"/><stop offset="1" stop-color="#dea54f"/></radialGradient><radialGradient id="U" cx="0" cy="0" r="819.2" gradientTransform="matrix(-.003 0 -.0004 .003 5.75 7.9)" gradientUnits="userSpaceOnUse" spreadMethod="pad"><stop offset="0" stop-color="#ffd55d"/><stop offset="1" stop-color="#9c6a1e"/></radialGradient><radialGradient id="X" cx="0" cy="0" r="819.2" gradientTransform="matrix(-.0007 0 -.0001 .0007 4.85 9.5)" gradientUnits="userSpaceOnUse" spreadMethod="pad"><stop offset="0" stop-color="#ffedbb"/><stop offset="1" stop-color="#dea54f"/></radialGradient><radialGradient id="Y" cx="0" cy="0" r="819.2" gradientTransform="matrix(-.0005 0 -.0001 .0005 6.85 7.6)" gradientUnits="userSpaceOnUse" spreadMethod="pad"><stop offset="0" stop-color="#ffedbb"/><stop offset="1" stop-color="#dea54f"/></radialGradient><radialGradient id="ab" cx="0" cy="0" r="819.2" gradientTransform="matrix(-.0029 0 -.0006 .0029 .05 8.1)" gradientUnits="userSpaceOnUse" spreadMethod="pad"><stop offset="0" stop-color="#ffd55d"/><stop offset="1" stop-color="#9c6a1e"/></radialGradient><radialGradient id="ae" cx="0" cy="0" r="819.2" gradientTransform="matrix(-.0004 0 -.0001 .0004 1.15 7.85)" gradientUnits="userSpaceOnUse" spreadMethod="pad"><stop offset="0" stop-color="#ffedbb"/><stop offset="1" stop-color="#dea54f"/></radialGradient><radialGradient id="af" cx="0" cy="0" r="819.2" gradientTransform="matrix(-.0029 0 -.0006 .0029 .05 8.1)" gradientUnits="userSpaceOnUse" spreadMethod="pad"><stop offset="0" stop-color="#ffedbb"/><stop offset="1" stop-color="#dea54f"/></radialGradient><radialGradient id="ai" cx="0" cy="0" r="819.2" gradientTransform="translate(23.05 7.85)scale(.0297)" gradientUnits="userSpaceOnUse" spreadMethod="pad"><stop offset="0" stop-color="#fff6d9"/><stop offset="1" stop-color="#e0b833"/></radialGradient><radialGradient id="aj" cx="0" cy="0" r="819.2" gradientTransform="translate(23.05 7.85)scale(.0297)" gradientUnits="userSpaceOnUse" spreadMethod="pad"><stop offset="0" stop-color="#ffe58e"/><stop offset="1" stop-color="#e0b833"/></radialGradient><radialGradient id="ak" cx="0" cy="0" r="819.2" gradientTransform="translate(15.2 3.9)scale(.0363)" gradientUnits="userSpaceOnUse" spreadMethod="pad"><stop offset="0" stop-color="#ffe58e"/><stop offset="1" stop-color="#e0b833"/></radialGradient><radialGradient id="al" cx="0" cy="0" r="819.2" gradientTransform="translate(51.45 13.15)scale(.0074)" gradientUnits="userSpaceOnUse" spreadMethod="pad"><stop offset="0" stop-color="#ffe58e"/><stop offset="1" stop-color="#e0b833"/></radialGradient><radialGradient id="am" cx="0" cy="0" r="819.2" gradientTransform="translate(60.3 28)scale(.0115)" gradientUnits="userSpaceOnUse" spreadMethod="pad"><stop offset="0" stop-color="#ffe58e"/><stop offset="1" stop-color="#e0b833"/></radialGradient><radialGradient id="an" cx="0" cy="0" r="819.2" gradientTransform="translate(-9.35 25.55)scale(.0037)" gradientUnits="userSpaceOnUse" spreadMethod="pad"><stop offset="0" stop-color="#ffe58e"/><stop offset="1" stop-color="#e0b833"/></radialGradient><radialGradient id="ao" cx="0" cy="0" r="819.2" gradientTransform="translate(-14.1 37.2)scale(.014)" gradientUnits="userSpaceOnUse" spreadMethod="pad"><stop offset="0" stop-color="#ffe58e"/><stop offset="1" stop-color="#e0b833"/></radialGradient><radialGradient id="ap" cx="0" cy="0" r="819.2" gradientTransform="matrix(0 0 0 0 0 0)" gradientUnits="userSpaceOnUse" spreadMethod="pad"><stop offset="0" stop-color="#ffe58e"/><stop offset="1" stop-color="#e0b833"/></radialGradient><radialGradient id="aq" cx="0" cy="0" r="819.2" gradientTransform="translate(-24.3 58.05)scale(.0023)" gradientUnits="userSpaceOnUse" spreadMethod="pad"><stop offset="0" stop-color="#ffe58e"/><stop offset="1" stop-color="#e0b833"/></radialGradient><radialGradient id="ar" cx="0" cy="0" r="819.2" gradientTransform="translate(-25.2 59.2)scale(.0018)" gradientUnits="userSpaceOnUse" spreadMethod="pad"><stop offset="0" stop-color="#ffe58e"/><stop offset="1" stop-color="#e0b833"/></radialGradient><radialGradient id="as" cx="0" cy="0" r="819.2" gradientTransform="matrix(-.0023 -.0008 0 .0023 73.85 47.25)" gradientUnits="userSpaceOnUse" spreadMethod="pad"><stop offset="0" stop-color="#ffe58e"/><stop offset="1" stop-color="#e0b833"/></radialGradient><radialGradient id="at" cx="0" cy="0" r="819.2" gradientTransform="matrix(-.0018 -.0006 0 .0018 74.8 48.7)" gradientUnits="userSpaceOnUse" spreadMethod="pad"><stop offset="0" stop-color="#ffe58e"/><stop offset="1" stop-color="#e0b833"/></radialGradient><radialGradient id="au" cx="0" cy="0" r="819.2" gradientTransform="rotate(43.264 -95.201 -5.142)scale(.0023)" gradientUnits="userSpaceOnUse" spreadMethod="pad"><stop offset="0" stop-color="#ffe58e"/><stop offset="1" stop-color="#e0b833"/></radialGradient><radialGradient id="av" cx="0" cy="0" r="819.2" gradientTransform="rotate(40.236 -101.853 -8.205)scale(.0017)" gradientUnits="userSpaceOnUse" spreadMethod="pad"><stop offset="0" stop-color="#3c3561"/><stop offset="1" stop-color="#1f174a"/></radialGradient><radialGradient id="aw" cx="0" cy="0" r="819.2" gradientTransform="rotate(133.264 -26.937 26.157)scale(.0023)" gradientUnits="userSpaceOnUse" spreadMethod="pad"><stop offset="0" stop-color="#ffe58e"/><stop offset="1" stop-color="#e0b833"/></radialGradient><radialGradient id="ax" cx="0" cy="0" r="819.2" gradientTransform="rotate(130.236 -27.947 25.74)scale(.0017)" gradientUnits="userSpaceOnUse" spreadMethod="pad"><stop offset="0" stop-color="#3c3561"/><stop offset="1" stop-color="#1f174a"/></radialGradient><radialGradient id="ay" cx="0" cy="0" r="819.2" gradientTransform="rotate(43.264 -89.692 -3.023)scale(.0023)" gradientUnits="userSpaceOnUse" spreadMethod="pad"><stop offset="0" stop-color="#ffe58e"/><stop offset="1" stop-color="#e0b833"/></radialGradient><radialGradient id="az" cx="0" cy="0" r="819.2" gradientTransform="rotate(40.236 -96.01 -5.779)scale(.0017)" gradientUnits="userSpaceOnUse" spreadMethod="pad"><stop offset="0" stop-color="#3c3561"/><stop offset="1" stop-color="#1f174a"/></radialGradient><radialGradient id="aA" cx="0" cy="0" r="819.2" gradientTransform="rotate(133.264 -27.9 23.991)scale(.0023)" gradientUnits="userSpaceOnUse" spreadMethod="pad"><stop offset="0" stop-color="#ffe58e"/><stop offset="1" stop-color="#e0b833"/></radialGradient><radialGradient id="aB" cx="0" cy="0" r="819.2" gradientTransform="rotate(130.236 -28.863 23.522)scale(.0017)" gradientUnits="userSpaceOnUse" spreadMethod="pad"><stop offset="0" stop-color="#3c3561"/><stop offset="1" stop-color="#1f174a"/></radialGradient><radialGradient id="aC" cx="0" cy="0" r="819.2" gradientTransform="rotate(41.634 -100.92 -7.313)scale(.0012)" gradientUnits="userSpaceOnUse" spreadMethod="pad"><stop offset="0" stop-color="#ffe58e"/><stop offset="1" stop-color="#e0b833"/></radialGradient><radialGradient id="aD" cx="0" cy="0" r="819.2" gradientTransform="matrix(-.0017 .001 .0016 .0022 78.9 54.75)" gradientUnits="userSpaceOnUse" spreadMethod="pad"><stop offset="0" stop-color="#ffe58e"/><stop offset="1" stop-color="#e0b833"/></radialGradient><radialGradient id="aE" cx="0" cy="0" r="819.2" gradientTransform="matrix(-.0013 .0007 .0012 .0016 78.9 54.75)" gradientUnits="userSpaceOnUse" spreadMethod="pad"><stop offset="0" stop-color="#3c3561"/><stop offset="1" stop-color="#1f174a"/></radialGradient><radialGradient id="aF" cx="0" cy="0" r="819.2" gradientTransform="matrix(.0016 .0022 .0017 -.001 75.75 53.6)" gradientUnits="userSpaceOnUse" spreadMethod="pad"><stop offset="0" stop-color="#ffe58e"/><stop offset="1" stop-color="#e0b833"/></radialGradient><radialGradient id="aG" cx="0" cy="0" r="819.2" gradientTransform="matrix(.0012 .0016 .0013 -.0007 75.75 53.6)" gradientUnits="userSpaceOnUse" spreadMethod="pad"><stop offset="0" stop-color="#3c3561"/><stop offset="1" stop-color="#1f174a"/></radialGradient><radialGradient id="aH" cx="0" cy="0" r="819.2" gradientTransform="matrix(-.0013 .0007 .0012 .0016 75.85 50.55)" gradientUnits="userSpaceOnUse" spreadMethod="pad"><stop offset="0" stop-color="#3c3561"/><stop offset="1" stop-color="#1f174a"/></radialGradient><radialGradient id="aI" cx="0" cy="0" r="819.2" gradientTransform="matrix(-.0017 .001 .0016 .0022 75.85 50.55)" gradientUnits="userSpaceOnUse" spreadMethod="pad"><stop offset="0" stop-color="#ffe58e"/><stop offset="1" stop-color="#e0b833"/></radialGradient><radialGradient id="aJ" cx="0" cy="0" r="819.2" gradientTransform="matrix(.0012 .0016 .0013 -.0007 79.05 51.7)" gradientUnits="userSpaceOnUse" spreadMethod="pad"><stop offset="0" stop-color="#3c3561"/><stop offset="1" stop-color="#1f174a"/></radialGradient><radialGradient id="aK" cx="0" cy="0" r="819.2" gradientTransform="matrix(.0016 .0022 .0017 -.001 79.05 51.7)" gradientUnits="userSpaceOnUse" spreadMethod="pad"><stop offset="0" stop-color="#ffe58e"/><stop offset="1" stop-color="#e0b833"/></radialGradient><radialGradient id="aL" cx="0" cy="0" r="819.2" gradientTransform="matrix(-.0009 .0005 .0009 .0012 80.05 56.45)" gradientUnits="userSpaceOnUse" spreadMethod="pad"><stop offset="0" stop-color="#ffe58e"/><stop offset="1" stop-color="#e0b833"/></radialGradient><linearGradient id="g" x1="-819.2" x2="819.2" gradientTransform="matrix(.0034 .002 -.0023 .0041 26.3 11.4)" gradientUnits="userSpaceOnUse" spreadMethod="pad"><stop offset="0" stop-color="#9c6a1e"/><stop offset=".525" stop-color="#ffd55d"/><stop offset="1" stop-color="#e0b833"/></linearGradient><linearGradient id="j" x1="-819.2" x2="819.2" gradientTransform="matrix(-.0006 0 0 .0013 24.45 8.3)" gradientUnits="userSpaceOnUse" spreadMethod="pad"><stop offset="0" stop-color="#efc453"/><stop offset="1" stop-color="#aa7000"/></linearGradient><linearGradient id="k" x1="-819.2" x2="819.2" gradientTransform="matrix(.0006 0 0 .0013 21.2 8.3)" gradientUnits="userSpaceOnUse" spreadMethod="pad"><stop offset="0" stop-color="#efc453"/><stop offset="1" stop-color="#aa7000"/></linearGradient><linearGradient id="m" x1="-819.2" x2="819.2" gradientTransform="rotate(150.709 7.933 8.376)scale(.0047)" gradientUnits="userSpaceOnUse" spreadMethod="pad"><stop offset="0" stop-color="#9c6a1e"/><stop offset=".525" stop-color="#ffd55d"/><stop offset="1" stop-color="#e0b833"/></linearGradient><linearGradient id="q" x1="-819.2" x2="819.2" gradientTransform="matrix(.0021 .0011 -.001 .0023 34.85 9.7)" gradientUnits="userSpaceOnUse" spreadMethod="pad"><stop offset="0" stop-color="#9c6a1e"/><stop offset=".525" stop-color="#ffd55d"/><stop offset="1" stop-color="#e0b833"/></linearGradient><linearGradient id="r" x1="-819.2" x2="819.2" gradientTransform="matrix(-.0004 0 .0001 .0007 33.55 7.95)" gradientUnits="userSpaceOnUse" spreadMethod="pad"><stop offset="0" stop-color="#efc453"/><stop offset="1" stop-color="#aa7000"/></linearGradient><linearGradient id="s" x1="-819.2" x2="819.2" gradientTransform="matrix(.0004 0 .0001 .0007 31.7 7.95)" gradientUnits="userSpaceOnUse" spreadMethod="pad"><stop offset="0" stop-color="#efc453"/><stop offset="1" stop-color="#aa7000"/></linearGradient><linearGradient id="u" x1="-819.2" x2="819.2" gradientTransform="matrix(-.0022 .0013 -.0016 -.0023 30.7 9.95)" gradientUnits="userSpaceOnUse" spreadMethod="pad"><stop offset="0" stop-color="#9c6a1e"/><stop offset=".525" stop-color="#ffd55d"/><stop offset="1" stop-color="#e0b833"/></linearGradient><linearGradient id="x" x1="-819.2" x2="819.2" gradientTransform="matrix(.0014 .0007 -.0007 .0015 41.15 9.35)" gradientUnits="userSpaceOnUse" spreadMethod="pad"><stop offset="0" stop-color="#9c6a1e"/><stop offset=".525" stop-color="#ffd55d"/><stop offset="1" stop-color="#e0b833"/></linearGradient><linearGradient id="B" x1="-819.2" x2="819.2" gradientTransform="matrix(.0002 0 .0001 .0005 39.1 8.2)" gradientUnits="userSpaceOnUse" spreadMethod="pad"><stop offset="0" stop-color="#efc453"/><stop offset="1" stop-color="#aa7000"/></linearGradient><linearGradient id="C" x1="-819.2" x2="819.2" gradientTransform="matrix(-.0014 .0009 -.0011 -.0015 38.45 9.5)" gradientUnits="userSpaceOnUse" spreadMethod="pad"><stop offset="0" stop-color="#9c6a1e"/><stop offset=".525" stop-color="#ffd55d"/><stop offset="1" stop-color="#e0b833"/></linearGradient><linearGradient id="D" x1="-819.2" x2="819.2" gradientTransform="matrix(-.0002 0 .0001 .0005 40.3 8.2)" gradientUnits="userSpaceOnUse" spreadMethod="pad"><stop offset="0" stop-color="#efc453"/><stop offset="1" stop-color="#aa7000"/></linearGradient><linearGradient id="G" x1="-819.2" x2="819.2" gradientTransform="matrix(-.0013 .0008 -.0011 -.0014 44.25 9.65)" gradientUnits="userSpaceOnUse" spreadMethod="pad"><stop offset="0" stop-color="#9c6a1e"/><stop offset=".525" stop-color="#ffd55d"/><stop offset="1" stop-color="#e0b833"/></linearGradient><linearGradient id="H" x1="-819.2" x2="819.2" gradientTransform="matrix(.0002 0 .0001 .0004 44.8 8.4)" gradientUnits="userSpaceOnUse" spreadMethod="pad"><stop offset="0" stop-color="#efc453"/><stop offset="1" stop-color="#aa7000"/></linearGradient><linearGradient id="I" x1="-819.2" x2="819.2" gradientTransform="matrix(.0013 .0007 -.0005 .0014 46.8 9.5)" gradientUnits="userSpaceOnUse" spreadMethod="pad"><stop offset="0" stop-color="#9c6a1e"/><stop offset=".525" stop-color="#ffd55d"/><stop offset="1" stop-color="#e0b833"/></linearGradient><linearGradient id="J" x1="-819.2" x2="819.2" gradientTransform="matrix(-.0002 0 .0001 .0004 45.95 8.4)" gradientUnits="userSpaceOnUse" spreadMethod="pad"><stop offset="0" stop-color="#efc453"/><stop offset="1" stop-color="#aa7000"/></linearGradient><linearGradient id="O" x1="-819.2" x2="819.2" gradientTransform="matrix(-.0004 0 -.0001 .0007 13.7 7.95)" gradientUnits="userSpaceOnUse" spreadMethod="pad"><stop offset="0" stop-color="#efc453"/><stop offset="1" stop-color="#aa7000"/></linearGradient><linearGradient id="P" x1="-819.2" x2="819.2" gradientTransform="matrix(.0022 .0013 .0016 -.0023 14.7 9.95)" gradientUnits="userSpaceOnUse" spreadMethod="pad"><stop offset="0" stop-color="#9c6a1e"/><stop offset=".525" stop-color="#ffd55d"/><stop offset="1" stop-color="#e0b833"/></linearGradient><linearGradient id="Q" x1="-819.2" x2="819.2" gradientTransform="matrix(.0004 0 -.0001 .0007 11.85 7.95)" gradientUnits="userSpaceOnUse" spreadMethod="pad"><stop offset="0" stop-color="#efc453"/><stop offset="1" stop-color="#aa7000"/></linearGradient><linearGradient id="R" x1="-819.2" x2="819.2" gradientTransform="matrix(-.0021 .0011 .001 .0023 10.55 9.7)" gradientUnits="userSpaceOnUse" spreadMethod="pad"><stop offset="0" stop-color="#9c6a1e"/><stop offset=".525" stop-color="#ffd55d"/><stop offset="1" stop-color="#e0b833"/></linearGradient><linearGradient id="V" x1="-819.2" x2="819.2" gradientTransform="matrix(.0002 0 -.0001 .0005 5.1 8.2)" gradientUnits="userSpaceOnUse" spreadMethod="pad"><stop offset="0" stop-color="#efc453"/><stop offset="1" stop-color="#aa7000"/></linearGradient><linearGradient id="W" x1="-819.2" x2="819.2" gradientTransform="matrix(-.0014 .0007 .0007 .0015 4.25 9.35)" gradientUnits="userSpaceOnUse" spreadMethod="pad"><stop offset="0" stop-color="#9c6a1e"/><stop offset=".525" stop-color="#ffd55d"/><stop offset="1" stop-color="#e0b833"/></linearGradient><linearGradient id="Z" x1="-819.2" x2="819.2" gradientTransform="matrix(-.0002 0 -.0001 .0005 6.3 8.2)" gradientUnits="userSpaceOnUse" spreadMethod="pad"><stop offset="0" stop-color="#efc453"/><stop offset="1" stop-color="#aa7000"/></linearGradient><linearGradient id="aa" x1="-819.2" x2="819.2" gradientTransform="matrix(.0014 .0009 .0011 -.0015 6.95 9.5)" gradientUnits="userSpaceOnUse" spreadMethod="pad"><stop offset="0" stop-color="#9c6a1e"/><stop offset=".525" stop-color="#ffd55d"/><stop offset="1" stop-color="#e0b833"/></linearGradient><linearGradient id="ac" x1="-819.2" x2="819.2" gradientTransform="matrix(-.0002 0 -.0001 .0004 .6 8.4)" gradientUnits="userSpaceOnUse" spreadMethod="pad"><stop offset="0" stop-color="#efc453"/><stop offset="1" stop-color="#aa7000"/></linearGradient><linearGradient id="ad" x1="-819.2" x2="819.2" gradientTransform="matrix(.0013 .0008 .0011 -.0014 1.15 9.65)" gradientUnits="userSpaceOnUse" spreadMethod="pad"><stop offset="0" stop-color="#9c6a1e"/><stop offset=".525" stop-color="#ffd55d"/><stop offset="1" stop-color="#e0b833"/></linearGradient><linearGradient id="ag" x1="-819.2" x2="819.2" gradientTransform="matrix(-.0013 .0007 .0005 .0014 -1.4 9.5)" gradientUnits="userSpaceOnUse" spreadMethod="pad"><stop offset="0" stop-color="#9c6a1e"/><stop offset=".525" stop-color="#ffd55d"/><stop offset="1" stop-color="#e0b833"/></linearGradient><linearGradient id="ah" x1="-819.2" x2="819.2" gradientTransform="matrix(.0002 0 -.0001 .0004 -.55 8.4)" gradientUnits="userSpaceOnUse" spreadMethod="pad"><stop offset="0" stop-color="#efc453"/><stop offset="1" stop-color="#aa7000"/></linearGradient><g id="a" fill-rule="evenodd"><path fill="#15062c" fill-opacity=".498" d="m56.05 13.3.45-.85-5.45 1.9-2.6.7.25.85.05.7-.15 1-.15.45.3-.2q.05-.5.4-.85.5-.6 1.35-.25l-.4.45.4.1-.55.6q-.5.85-.55 2.1l-.35.9-.35.4q3 .7 5.35 1.75l-.4-1.4v-.6q0-1.7-.65-3l-.8-1.1.35-.1-.35-.45q1.5-.6 2.3.45l.45.9.1.55q0 .65.5.4l.2-.25-.25-.95-.15-1.3q-.1-1.25.7-2.9m13.5 3.45-.25.45.25.1q-.15.15-.35.6l-.2 1.05.05.45v.6l-.1.75 3.1-.35.95-.05-.2-.5-.4-1.4-.35-.4.4-.05-.05-.1-.35-.4.85.15.3.55.15.2-.05-.15-.1-.8.15-1-5.95-1.05q.45.95.35 1.65v.55l-.05.4.05.05.35-.2.2-.85q.4-.6 1.25-.25m-3.6-1.7-.3-.1h-.05l-2.2-.6-.7-.2-4.8-1.7.4.85.25.55q.55 1.3.45 2.35l-.15 1.3-.25 1 .15.2q.5.25.55-.4.1-.8.55-1.45.6-.8 1.65-.65l.65.2-.35.4.35.15-.8 1.1q-.65 1.3-.65 3v.6L60.4 23q2.35-1.05 5.4-1.7l-.45-.4L65 20q-.05-1.25-.55-2.1l-.55-.6.4-.1-.4-.45q.85-.35 1.35.25l.4.85.3.2H66l-.2-.45q-.2-.45-.1-1-.1-.7.25-1.55m12.3 3.25-.1-.15-.35-.35q.45-.2.8.15l.25.35-.05-.8V17l-4.5-.45.2.45.05.7v.6l.05.05.15-.15.15-.55q.25-.3.75-.15h.1l-.25.4v.1l.25.05-.25.4-.1.6v.8l-.05.35 3.45-.05-.15-.25q-.15-.75-.5-1.2l-.35-.35zm1.5-2.7.1.4-.05.2.05.3-.15.4v.05l.1.2.2.8v.2l.05.2.1.2.1-.15.1-.45q.15-.35.7-.15l-.15.35-.05.15.2.05-.15.35-.05.25.05.35v.6l.05.35h.35l.35.2.1.35-.1.25.1.35-.15.35-.35.15q-4.05-.35-9.1.15-9.95.85-14.8 4.5l-.3.1-.3-.1q-4.65-3.65-14.15-4.5-4.85-.5-8.7-.15l-.35-.15-.2-.35.15-.3-.15-.3.15-.35.25-.2.05-.35v-.6l.05-.35-.05-.25-.15-.35.2-.05-.05-.15-.15-.35q.55-.2.7.15l.1.45.1.15.15-.2v-.4l.05-.45.25-.5-.25-.1-.2-.4.1-.25-.1-.25q0-.25.15-.35l.35-.2q7.9-.35 15.7-2.55l5.8-2 .25-.05.25-.15h.35q2.1.95 5.6 2l.65.2 2.2.6q6.7 1.65 13.55 1.95.2 0 .35.15m-34.6 1.6-.3-.45q.85-.35 1.25.25l.2.85q0 .35.35.2l.1-.05-.1-.4v-.55q-.1-.7.35-1.65l-6 1.05.15.75-.05.25-.1.8-.05.15.15-.2.3-.55q.3-.35.85-.15l-.35.4-.05.1.4.05-.35.4q-.35.55-.4 1.4l-.15.45 1.35.1 2.75.3-.1-.7.05-.15-.05-.45.05-.45-.2-1.05-.35-.6zm-5.8.4.05.05.15.55q-.05.25.15.15l.05-.05v-.6q-.05-.3.05-.65l.2-.5-4.05.4v.55l-.05.7.2-.25q.35-.35.8-.15l-.35.35-.1.15.45.05-.35.35q-.35.45-.5 1.2l-.15.25h3.05l-.05-.3.05-.3-.05-.3.05-.2-.15-.6-.25-.4.3-.05-.05-.1-.25-.4z"/><path fill="url(#b)" d="M-1.05 10.95h-.1l.15-.35.3-.2h.4l-.4-.45v-.5q.15-.75 0-1.2l-.15-.35q.55-.2.7.15l.1.45.1.15.15-.6q-.1-.45.45-1.2l.25-.3H.6l-.35-.1-.2-.4q0-.25.15-.35l.35-.2q6.3-.3 12.55-1.7l.2-.05.2-.05 2.8-.8h-.05q3.9-1.15 6.25-2.25l.2-.05.2.05q2.1 1 5.6 2.05l.65.2 2.2.6-.05-.05.65.25.2.1h.25q6.2 1.4 12.5 1.7l.35.2.1.35-.15.4-.35.1.2.3q.55.75.45 1.2-.05.5.15.6l.1-.15.1-.45q.15-.35.7-.15l-.15.35q-.15.45 0 1.2v.5l-.35.4.75.05.35.2.1.35v.1q-3.85-.4-8.75-.05-10.25.75-15.95 4.7-5.8-4.1-15.5-4.75-4.6-.3-8.1 0m33.65-6.1.1.2q.7 1.3.55 2.1-.25.9 0 1l.35-.2.2-.85q.4-.6 1.25-.25-.15.15-.35.6-.3.85-.15 2.1l-.15.9-.4.5 3.55-.4 1.55-.1-.6-.5-.2-.55-.4-1.4-.35-.4.85.15.3.55q.05.25.2.15.2-.05-.1-.65-.25-.55.05-1.35l.2-.45zm-1-.25-.45-.1h-.05l-2.2-.6-.7-.2q-3.15-1-5.15-1.85l.75 1.45q1.05 2.25.55 3.75-.55 1.55-.1 1.8.5.25.55-.45.1-.8.55-1.45.8-1.1 2.3-.45l-.8 1.1q-.75 1.5-.65 3.6l-.45 1.6-.5.7q2.9-1.4 7-2.25-.9-.15-1.4-.8l-.35-.9q-.05-1.25-.55-2.1l-.55-.6q.85-.35 1.35.25l.4.85.3.2q.25-.1-.15-1-.35-.8.15-2.1zm12.7 2.25.1-.3-4.95-.5.25.4q.45.8.35 1.35-.1.6.05.65l.15-.15.15-.55q.25-.35.85-.15L41 8q-.2.55-.1 1.4l-.1.55-.3.4 4.35-.05q-.25-.1-.4-.35l-.3-.5q-.15-.75-.5-1.2l-.35-.35q.45-.2.8.15l.3.45.2.15-.15-.6q-.3-.45-.15-1.2m-10.1-2.1 4.75.5q-3.1-.3-8.15-1.6L26.35 2.4q2.6 1.5 7.85 2.35M22.7 14.4l-1.5-.25 1.35.95q.6-.45 1.25-.8zM21.55 3.3l.8-1.45-5.8 2.05-2.7.7.1.45q.5 1.3.15 2.1-.4.9-.15 1l.3-.2q.05-.5.4-.85.5-.6 1.35-.25l-.55.6q-.5.85-.55 2.1l-.35.9-1.3.8q4.1.85 7.05 2.4l-.7-.85-.45-1.6q.1-2.1-.65-3.6l-.8-1.1q1.5-.65 2.3.45.5.65.55 1.45 0 .7.5.45.45-.25-.05-1.8-.5-1.5.55-3.75m-8.7 1.55L6.3 6l.15.45q.3.8.05 1.35-.3.6-.1.65l.2-.15.3-.55q.3-.35.85-.15L7.4 8q-.35.55-.4 1.4l-.2.55-.5.45 1.9.15 3.2.4-.4-.5-.15-.9q.15-1.25-.15-2.1l-.35-.6q.85-.35 1.25.25l.2.85q0 .35.35.2.25-.1 0-1-.15-.8.55-2.1zM10.3 5l5.35-1.55q-4.15 1.2-9.75 1.9l-4.8.4zM4.05 7.6q.6-.2.85.15l.15.55q-.05.25.15.15l.05-.65q-.1-.55.35-1.35l.25-.4-4.55.45.1.35q.15.75-.15 1.2-.25.5-.15.6l.2-.15.3-.45q.35-.35.8-.15l-.35.35q-.35.45-.5 1.2l-.3.5-.4.35 3.95.05-.3-.4-.1-.55L4.3 8z" transform="translate(34.5 9.85)"/><path fill="url(#c)" d="M-1.05 10.95q3.5-.3 8.1 0 9.7.65 15.5 4.75v.5l-.3-.1Q17.6 12.45 8.1 11.6q-4.85-.5-8.7-.15l-.35-.15z" transform="translate(34.5 9.85)"/><path fill="url(#d)" d="M22.55 15.7q5.7-3.95 15.95-4.7 4.9-.35 8.75.05l-.15.25-.35.15q-4.05-.35-9.1.15-9.95.85-14.8 4.5l-.3.1z" transform="translate(34.5 9.85)"/><path fill="url(#e)" d="m10.3 5-9.2.75 4.8-.4q5.6-.7 9.75-1.9z" transform="translate(34.5 9.85)"/><path fill="url(#f)" d="M34.2 4.75q-5.25-.85-7.85-2.35l4.45 1.25q5.05 1.3 8.15 1.6z" transform="translate(34.5 9.85)"/><path fill="url(#g)" d="m27.75 6.05-.05.05q-.4.3-.75 1.1-.75 1.4-.65 3.5l-.45 1.55Q25 13.75 23 13.8q1.5-.45 2.2-4.15.7-3.75 2.55-3.6M25 11.65l.15-1.3q-.2 1.4-.75 2.3l-.45.65q.75-.35 1.05-1.65" transform="translate(34.5 9.85)"/><path fill="url(#h)" d="M27.75 6.05q-1.85-.15-2.55 3.6-.7 3.7-2.2 4.15h-.3q-1.55-.45-2.3-4.15-.75-3.75-2.55-3.55 1.5-.6 2.3.45l.45.9.15.35v.15q-.2 1.45.65 1.45.35 0 .35-.65l-.2-.85-.2-.45v-.1l-.05-.15-.1-.4-.05-.1v-.05Q20.6 5.2 21.7 3q.45-1.1 1.1-1.9L23.9 3l.25.55q.75 1.85.3 3.1l-.3 1.15v.1l-.25.85q0 .65.35.65.85 0 .7-1.45 0 .5-.3.5l.25-.5q.1-.75.5-1.4.65-.8 1.7-.65zm-3.9 3-.05-.5q-.2.9.1 1.05l.6-.05q-.55.1-.65-.5m-.2-6.25-.8-1.35q-.35 1.65.45 2.65l1.1 1.4zM19.7 6.25l-.4-.2q.25.75 1.1 1.2z" transform="translate(34.5 9.85)"/><path fill="url(#i)" d="m23.65 2.8.75 2.7-1.1-1.4q-.8-1-.45-2.65zm.2 6.25q.1.6.65.5l-.6.05q-.3-.15-.1-1.05z" transform="translate(34.5 9.85)"/><path fill="url(#j)" d="m24.15 7.8.15-.4-.05.4q-.05.45.2.55l.2.1q.3 0 .3-.5.15 1.45-.7 1.45-.35 0-.35-.65l.25-.85z" transform="translate(34.5 9.85)"/><path fill="url(#k)" d="M20.75 7.95q0 .65.45.4l.2-.55-.05-.35.2.45.2.85q0 .65-.35.65-.85 0-.65-1.45" transform="translate(34.5 9.85)"/><path fill="url(#l)" d="M25 11.65q-.3 1.3-1.05 1.65l.45-.65q.55-.9.75-2.3z" transform="translate(34.5 9.85)"/><path fill="url(#m)" d="M22.7 13.8q-1.25-.05-2.1-.65l-.85-.9-.45-1.55-.1-1.75-.5-1.75-.85-1.1q1.8-.2 2.55 3.55.75 3.7 2.3 4.15" transform="translate(34.5 9.85)"/><path fill="url(#n)" d="m19.7 6.25.7 1q-.85-.45-1.1-1.2z" transform="translate(34.5 9.85)"/><path fill="url(#o)" d="M32.15 4.05q-.05.9.45 1.5l.75.8-.65-1.55zm-.4 3.4V7.4l-.05-.1-.1-.2-.05-.1q-.4-.85.05-2.1l.5-1.05.75 1.05.2.35q.55 1.05.4 1.75l-.05.65v.05l-.1.5.25.35q.5 0 .3-.8L33.7 8l.1-.25.2-.8q.3-.45.9-.4l.4.1q-1.05-.1-1.2 2.05-.1 2.1-.95 2.4h-.2q-.9-.3-1.6-2.4-.7-2.15-1.7-2 .8-.35 1.35.25l.3.5.15.2v.1q0 .8.45.8l.15-.35-.15-.5zm1.5.9V8.1q-.1.5.1.6l.35-.05zm-2.05-1-.5-.6-.25-.1q.2.45.75.7" transform="translate(34.5 9.85)"/><path fill="url(#p)" d="m32.15 4.05.55.75.65 1.55-.75-.8q-.5-.6-.45-1.5m1.1 4.3.45.3-.35.05q-.2-.1-.1-.6z" transform="translate(34.5 9.85)"/><path fill="url(#q)" d="M33.15 11.1q.85-.3.95-2.4.15-2.15 1.2-2.05l-.05.05-.3.6q-.35.8-.15 2l-.15.9q-.4.85-1.5.9m.75-.7-.25.4q.4-.2.45-.95v-.6z" transform="translate(34.5 9.85)"/><path fill="url(#r)" d="m33.7 8 .15-.25q.2.8-.3.8l-.25-.35.1-.5v-.25l.05.2.1.3z" transform="translate(34.5 9.85)"/><path fill="url(#s)" d="m31.75 7.45.15.25.15.5-.15.35q-.45 0-.45-.8.05.35.25.2l.1-.3z" transform="translate(34.5 9.85)"/><path fill="url(#t)" d="M31.2 7.35q-.55-.25-.75-.7l.25.1z" transform="translate(34.5 9.85)"/><path fill="url(#u)" d="M29.65 6.7q1-.15 1.7 2 .7 2.1 1.6 2.4-.7-.05-1.2-.4l-.6-.5-.35-.9-.2-1-.35-1z" transform="translate(34.5 9.85)"/><path fill="url(#v)" d="m33.9 10.4.2-1.15v.6q-.05.75-.45.95z" transform="translate(34.5 9.85)"/><path fill="url(#w)" d="M41.4 7.35q-.65 0-.75 1.35-.05 1.35-.6 1.55h-.15q-.55-.2-1-1.55-.45-1.4-1.1-1.3l.5-.05.35.2.2.35.1.1v.1q0 .5.3.5l.1-.2-.1-.35L39.2 8l-.05-.1v-.05l-.05-.05-.05-.15L39 7.6q-.25-.55.05-1.35l.3-.7.5.7.15.2.25 1.15-.05.3v.15q-.1.2-.05.35l.15.2q.35 0 .2-.5l.1-.55q.2-.25.6-.25zm-1.65-1.2-.35-.45q-.05.55.3.95l.5.55zm-1.45 1.2.5.5-.35-.4zm1.8 1.15v-.2l.1.4.2-.05z" transform="translate(34.5 9.85)"/><path fill="url(#x)" d="M41.4 7.35h.05l-.05.05-.15.4q-.25.5-.1 1.3l-.1.6q-.3.55-1 .55.55-.2.6-1.55.1-1.35.75-1.35m-.75 1.8-.1.65-.15.25.25-.6z" transform="translate(34.5 9.85)"/><path fill="url(#y)" d="M40.65 9.15v.3l-.25.6.15-.25z" transform="translate(34.5 9.85)"/><path fill="url(#z)" d="m39.75 6.15.45 1.05-.5-.55q-.35-.4-.3-.95zm.35 2.35.3.15-.2.05-.1-.4z" transform="translate(34.5 9.85)"/><path fill="url(#A)" d="m38.3 7.35.15.1.35.4z" transform="translate(34.5 9.85)"/><path fill="url(#B)" d="m38.95 8.1.15.1.1-.2.05.05.1.35-.1.2q-.3 0-.3-.5" transform="translate(34.5 9.85)"/><path fill="url(#C)" d="m39.9 10.25-.75-.25-.4-.3-.2-.6-.15-.65-.25-.65-.35-.4q.65-.1 1.1 1.3.45 1.35 1 1.55" transform="translate(34.5 9.85)"/><path fill="url(#D)" d="m40.2 7.95.05.05q-.05.2.05.2l.1.05.1-.15q.15.5-.2.5l-.15-.2q-.05-.15.05-.35v-.1" transform="translate(34.5 9.85)"/><path fill="url(#E)" d="m44.9 8.2-.05-.1-.1-.1-.05-.1-.05-.05q-.2-.55 0-1.3l.25-.65.5.65.15.2q.4.65.3 1.1v.4q-.1.2-.05.35l.15.2q.3 0 .2-.5-.05-.3.05-.5.15-.25.55-.25l.2.05q-.65 0-.7 1.25.1 1.3-.45 1.5h-.15q-.5-.2-1.05-1.5-.45-1.3-1.05-1.2L44 7.6l.35.2.2.3.1.1v.1q0 .5.3.5l.1-.2-.1-.35zm-.9-.6.45.45-.3-.35zm1.25-1.15-.3-.4q0 .5.3.9l.55.5zm.6 2.4h.2q-.2 0-.3-.15v-.2z" transform="translate(34.5 9.85)"/><path fill="url(#F)" d="m44 7.6.15.1.3.35z" transform="translate(34.5 9.85)"/><path fill="url(#G)" d="M43.55 7.65q.6-.1 1.05 1.2.55 1.3 1.05 1.5l-.7-.25-.35-.3-.25-.55-.2-.6-.3-.65z" transform="translate(34.5 9.85)"/><path fill="url(#H)" d="m44.9 8.2.05.05.1.35-.1.2q-.3 0-.3-.5l.15.1z" transform="translate(34.5 9.85)"/><path fill="url(#I)" d="M45.8 10.35q.55-.2.45-1.5.05-1.25.7-1.25v.05L46.8 8q-.2.5 0 1.25l-.05.55q-.3.55-.95.55" transform="translate(34.5 9.85)"/><path fill="url(#J)" d="M46.15 8.3q.1.5-.2.5l-.15-.2q-.05-.15.05-.35v-.1l.05.05q-.05.2.05.2l.1.05z" transform="translate(34.5 9.85)"/><path fill="url(#K)" d="m45.85 8.85-.1-.35v.2q.1.15.3.15zm-.6-2.4.55 1-.55-.5q-.3-.4-.3-.9z" transform="translate(34.5 9.85)"/><path fill="url(#L)" d="m12.7 4.8.55-.75q.05.9-.45 1.5l-.75.8q.25-.95.65-1.55m-.55 3.55V8.1l-.1.6-.35-.05z" transform="translate(34.5 9.85)"/><path fill="url(#M)" d="M12.7 4.8q-.4.6-.65 1.55l.75-.8q.5-.6.45-1.5zM12 7.65 11.95 7q-.15-.7.4-1.75l.2-.35q.3-.6.75-1.05l.5 1.05q.45 1.25.05 2.1l-.05.1-.1.2-.05.1v.05l-.15.25-.15.5q-.05.35.15.35.45 0 .45-.8v-.1l.15-.2.3-.5q.55-.6 1.35-.25-1-.15-1.7 2-.7 2.1-1.6 2.4h-.2q-.85-.3-.95-2.4-.15-2.15-1.2-2.05l.4-.1q.6-.05.9.4l.2.8.1.25-.15-.25q-.2.8.3.8l.25-.35-.1-.5zm2.2-.3.75-.7-.25.1zm-2.05 1-.45.3.35.05.1-.6z" transform="translate(34.5 9.85)"/><path fill="url(#N)" d="m14.2 7.35.5-.6.25-.1z" transform="translate(34.5 9.85)"/><path fill="url(#O)" d="m13.65 7.45-.05.2.1.3.25-.2q0 .8-.45.8-.2 0-.15-.35l.15-.5z" transform="translate(34.5 9.85)"/><path fill="url(#P)" d="m15.75 6.7-.6.6-.35 1-.2 1-.35.9-.6.5-1.2.4q.9-.3 1.6-2.4.7-2.15 1.7-2" transform="translate(34.5 9.85)"/><path fill="url(#Q)" d="m11.7 8 .15-.05.1-.3.05-.2v.25l.1.5-.25.35q-.5 0-.3-.8z" transform="translate(34.5 9.85)"/><path fill="url(#R)" d="M12.25 11.1q-1.1-.05-1.5-.9l-.15-.9q.2-1.2-.15-2l-.3-.6-.05-.05q1.05-.1 1.2 2.05.1 2.1.95 2.4m-.75-.7-.2-1v.45q.05.75.45.95z" transform="translate(34.5 9.85)"/><path fill="url(#S)" d="m11.5 10.4.25.4q-.4-.2-.45-.95V9.4z" transform="translate(34.5 9.85)"/><path fill="url(#T)" d="M5.65 6.15 6 5.7q.05.55-.3.95l-.5.55zM5.3 8.5v-.2l-.1.4-.2-.05z" transform="translate(34.5 9.85)"/><path fill="url(#U)" d="M5.65 6.15 5.2 7.2l.5-.55q.35-.4.3-.95zm-.3 4.1q-.55-.2-.6-1.55-.1-1.35-.75-1.35l.2-.05q.4 0 .6.25l.1.55q-.15.5.2.5l.15-.2-.05-.35V7.9l-.05-.3q-.1-.45.25-1.15l.15-.2.5-.7.3.7q.3.8.05 1.35l-.05.05-.05.15-.05.05v.05L6.2 8l-.05.05-.1.35.1.2q.3 0 .3-.5V8l.1-.1.2-.35.35-.2.5.05q-.65-.1-1.1 1.3-.45 1.35-1 1.55zm1.75-2.9-.15.1-.35.4zM5.3 8.5l-.3.15.2.05.1-.4z" transform="translate(34.5 9.85)"/><path fill="url(#V)" d="M5.2 7.95v.1l.05.35-.15.2q-.35 0-.2-.5l.1.15.1-.05.05-.2z" transform="translate(34.5 9.85)"/><path fill="url(#W)" d="M4 7.35q.65 0 .75 1.35.05 1.35.6 1.55-.7 0-1-.55l-.1-.6q.15-.8-.1-1.3L4 7.4zm1 2.7-.15-.25-.1-.55v.2q0 .5.25.6" transform="translate(34.5 9.85)"/><path fill="url(#X)" d="M5 10.05q-.25-.1-.25-.6v-.2l.1.55z" transform="translate(34.5 9.85)"/><path fill="url(#Y)" d="m7.1 7.35-.5.5.35-.4z" transform="translate(34.5 9.85)"/><path fill="url(#Z)" d="M6.45 8.1q0 .5-.3.5l-.1-.2.1-.35L6.2 8l.1.2z" transform="translate(34.5 9.85)"/><path fill="url(#aa)" d="M5.5 10.25q.55-.2 1-1.55.45-1.4 1.1-1.3l-.35.4-.25.65q-.15.3-.15.65l-.2.6-.4.3z" transform="translate(34.5 9.85)"/><path fill="url(#ab)" d="M.75 8.3v-.1l.1-.1.2-.3q.15-.15.35-.2l.45.05q-.6-.1-1.05 1.2-.55 1.3-1.05 1.5H-.4q-.55-.2-.45-1.5-.05-1.25-.7-1.25l.2-.05q.4 0 .55.25.1.2.05.5-.1.5.2.5l.15-.2q.05-.15-.05-.35v-.4q-.1-.45.3-1.1l.15-.2.5-.65.25.65q.2.75 0 1.3L.7 7.9.65 8l-.1.1-.05.1-.05.05-.1.35.1.2q.3 0 .3-.5m.2-.25.45-.45-.15.1zm-.5-2-.3.4-.55 1 .55-.5zm-1.1 2.8h.2l.1-.35v.2q-.1.15-.3.15" transform="translate(34.5 9.85)"/><path fill="url(#ac)" d="m.5 8.2.1.2.15-.1q0 .5-.3.5l-.1-.2.1-.35z" transform="translate(34.5 9.85)"/><path fill="url(#ad)" d="m1.85 7.65-.3.35-.3.65-.2.6-.25.55-.35.3-.7.25q.5-.2 1.05-1.5.45-1.3 1.05-1.2" transform="translate(34.5 9.85)"/><path fill="url(#ae)" d="m.95 8.05.3-.35.15-.1z" transform="translate(34.5 9.85)"/><path fill="url(#af)" d="m.45 6.05-.3.9-.55.5.55-1zm-1.1 2.8q.2 0 .3-.15v-.2l-.1.35z" transform="translate(34.5 9.85)"/><path fill="url(#ag)" d="M-.4 10.35q-.65 0-.95-.55l-.05-.55q.2-.75 0-1.25l-.15-.35V7.6q.65 0 .7 1.25-.1 1.3.45 1.5" transform="translate(34.5 9.85)"/><path fill="url(#ah)" d="m-.75 8.3.1.15.1-.05q.1 0 .05-.2l.05-.05v.1q.1.2.05.35l-.15.2q-.3 0-.2-.5" transform="translate(34.5 9.85)"/><path fill="url(#ai)" d="M22.55 14.4q5.05-3.6 15-4.45 5.15-.45 9.25-.15l.35.2.1.35-.15.35-.35.1q-4.05-.3-9.1.15-9.95.85-14.8 4.45l-.3.1h-.05l-.35-.2-.05-.1h.15l.3-.2.1-.35zM22.3.4l.25-.15h.35q2.1.95 5.6 2l.65.2 2.2.6Q38.05 4.7 44.9 5q.2 0 .35.15l.1.4-.15.35-.35.1q-7-.3-13.75-2l-2.2-.6-.7-.2-5.55-1.95.1-.15-.05-.4-.25-.25z" transform="translate(34.5 9.85)"/><path fill="url(#aj)" d="m22.55 14.4.1.25-.1.35-.3.2h-.15l-.25-.1Q17.2 11.75 8.1 10.95q-4.85-.45-8.7-.15l-.35-.1-.2-.35L-1 10l.3-.2q3.95-.3 8.9.15 9.4.8 14.25 4.35zM22.3.4l.15.05.25.25.05.4-.1.15-.1.05-.1.05-5.9 2.05Q8.65 5.65.6 6l-.35-.1-.2-.35q0-.25.15-.35L.55 5q7.9-.35 15.7-2.55l5.8-2z" transform="translate(34.5 9.85)"/><path fill="#213777" fill-opacity=".8" d="M20.9 29.1Q32.2 12.1 35.25 8l1.1-1.5q2.85-2.35 9.2-4.35Q50.7.5 54.55 0l1.35.1 16.8 1.8q5.15.7 6.6 1.4-3.8 0-10.15 2.4-5.9 2.2-14.25 6.4-8.4 4.2-23.35 11h-.05v.05h-.05q-9.4 4.45-10.55 5.95m62.7-12.75q2.5 3.85 4.05 7.95l2.9 7.45q-.65-1.55-3.85-4.45L85.3 26l-2.05-2.25v-.05q-.55-.75-.55-1.1v-.05q0-.85.3-2.6zm6.45 17.05q4.5 3.6 12.65 7.5 3.85 1.85 5.85 3.3-2.7-1.65-11.05-3.15l-1.1-.2q-11.2-2.05-11.2-3.3l.05-.15 2.8-2.3zm16.25 18.5 1.2 3.25.9 3.15q-.8-.15-1.85-.8-1.6-1-1.65-2.05v-.05q0-1.15 1.4-3.5M29.5 35.05l.05.05-.75.35h-.05l-6.2 2.75q.05-.9 2.15-5.1 2 1.15 3.75 1.7l.35.1zm1.7 8.25.05.3q-.3 2.05-4.7 5l-1.95 1.2-1.2.55-3.75 1.05-5 .85-4.5.75-3.35.4Q12.9 50.9 18 47q4.65-3.5 6.5-6.85l.8.5q2.05 1.15 3.25 1.45V42zM12.15 66.75q-.1.55-.9.9l-1.35.65 1.6-3.3q.65.95.65 1.6z"/><path fill="#090b4f" fill-opacity=".902" d="m79.3 3.3.45.05q1.8.05 2.95 2.15 1.2 2.2 1.2 6l-.3 4.85-.6 3.6q-.3 1.75-.3 2.6v.05q-2.7-4.9-4.95-8.25-4.3-6.2-8.6-8.65Q75.5 3.3 79.3 3.3m11.25 28.45.1.2.05.45-.65 1-2 1.7-2.8 2.3-.15.1.25-6.25L85.3 26l1.4 1.3q3.2 2.9 3.85 4.45m18 12.45.9.7.35.9q0 .8-2.45 4.45l-1.05 1.65q-1.4 2.35-1.4 3.5-.4-3.3-3.2-7.6-1.3-2-5.3-6.95l1.1.2q8.35 1.5 11.05 3.15M31.5 23.15q-1.2 10.8-2 11.9l-.7-.15-.35-.1q-1.75-.55-3.75-1.7L22 31.25q-1.3-1.1-1.3-1.75l.2-.4q1.15-1.5 10.55-5.95zm-2.7 12.3v.15q2 5.1 2.4 7.7L28.55 42v.1q-1.2-.3-3.25-1.45l-.8-.5-2-1.6.05-.35 6.2-2.75zm-5.4 14.9-.25.3-3.95 6-2.45 3.8-4.6 6.3v-.15q0-.65-.65-1.6-.75-1.1-2.35-2.6-3.05-2.8-3.05-7.15 0-1.6.65-1.8l.05-.05 3.35-.4 4.5-.75 5-.85z"/><path fill="url(#ak)" d="m15.55-.35-.05-.2h-.2l-.15-.1-.35.05v.1q-.4.1-.35.45l.05.25.1.2.4.05h.15l.4-.15.05-.3v-.25zm-.9-.7.45.1.55.35.15-.45.55-.2 1 .35q-.1-.4.1-.5l.55-.05 1.3.5.2-1.05q.3-.8.75-.8l.5.3q-.15-.6.1-1 .25-.45.75-.45l.6.25h.1l-.2-.5q0-.55.75-.55.3 0 1.05.55h.1q-.2-.35.15-.6l.6-.25.95.45h.1q-.1-.35.05-.4l.45-.05.65.2.45.35-.15-1q0-.5.35-.5l.55.25q0-.9.15-1.25h.55l.35.2q-.2-.55.15-.85l.8-.25.8.25.55-.25.55.2.55.3-1.25.05.05.55q.25.25.6.25l.65-.15.05-.3v-.25h.1v-.4h.75l.35.35q.25.25.55.3l-.3-.55v-.6l.45.15.15-.35 3.45.4 3.8.6q-3.95.65-8.85 2.3-4.85 1.65-9.4 3.85L4.2 8.5q-7.4 2.9-15.75 7.7l2.95-4.45.2-.25.3-.15.05.8-.25-.2q-.45.1-.45.4l.05.3.4.2.3-.1.15-.45-.15-.1.25-.35.55-.05.05.8h.2l.7-1.35.4.2.25-.8q.25-.55.45-.3.45-.45.45-1l.35.2.65-.65.15.05.3.35.15-.35.25-.1q.35 0 .6.6l.35-.35q.45.25.45.65l.1.05.15-1.05Q-1 8-.6 8l.6.4q0-.55.15-.85l.3.1H.6q-.2-.35.15-1 .3-.65.85-.25v-.5q.1-.4.4-.4l.6.25.25-.35.35.2.3.55q.25-.4.6-.4l1 .85-.15-.75q0-.9.8-.55 0-1.25.4-1.25l.35.15-.15.25.05.25.1.2.4.05.55-.15.05-.35-.05-.3H7.4l-.75-.05-.05.05.1-.7q.1-.4.4-.4l.45.2q-.2-.9.65-.9.25 0 .5.25l.3-.35.3-.1q.8 0 .85.65l.2-.35q.8.25 1.5.9l-.2-.9.2-.45q.2-.3.45-.3l.35.2q0-1.8.65-1.8.25 0 .55.25h.05Q13.65-.3 14-.7q.25-.35.65-.35m1 .45v.05zm18.8-5.75-.2-.55q-.4-.1-.7.2 0 .45.45.65zm1.3-.9.1-.4L35.4-8l-.3.05q-.15.05-.15.35l.05.3v-.05l.05.2.35.05q.5 0 .35-.15M26.5-3.8l.05.25.6.2.45-.1.05-.35-.1-.35q-.85-.25-1.05.35m2.35-1.35-.45-.35q-.45.1-.45.45l.05.25.4.2.3-.1zM22.3-3.4q-.95 0-.95.3l.05.35.1.05v.05l.35.05q.5 0 .5-.15zm2.85-1.2q-.45.15-.45.45l.05.25.4.2.35-.1.1-.45zm-1.45.7-.1-.4-.75.05-.05.45v.35l.15.05.35.05q.5 0 .35-.15zm5.8-2.45-.85-.15-.1.05v.3l.05.35.1.05v.05l.35.05q.5 0 .5-.15zm.25-.6.45.4.45-.4-.2-.45zM18.5-.65q-.45.15-.45.45l.05.25.4.2q.45-.15.45-.5zm1.7-1.2-.1.4.05.35h.1l.35.1q.5 0 .45-.15l.05-.3-.05-.2zm-2.85.95v.1zm-1.1.3-.3.4.05.3.1.1.35.05L17 0l-.05-.4zm-20.8 12-.25-.45-.65.2q0 .5.45.65zM-3.3 10l-.1-.35h-.7l-.35.3.05.3.15.2.4.05.4-.05.1-.1zm.55.2.05.3.4.2q.45-.2.45-.55l-.45-.35q-.45.1-.45.4M0 9.6l.45-.3-.2-.55-.7.2zm1.75-2.15L1.3 7.1q-.45.1-.45.7l.45.2zm.95-.5.3-.5-.45-.4q-.45.1-.45.55l.25.25zm1.4-.4q-.45.15-.45.55l.1.45.35.1.4-.2.05-.4zm2.5-.65-.05-.3H5.7q0 .65.45.8l.4-.15zm2-3-.55-.05-.25.35.05.25.05.2.35.05.45-.1v-.4l-.05-.3zm1.7.9v-.3l-.45-.35-.3.05q-.15.05-.15.35t.15.4l.3.1zm.9-.3q-.45.1-.45.5l.1.35.35.05.4-.25q0-.45-.4-.65m1.9-.7.4-.2.3-.5-.1-.3q-1.05-.2-1.05.4 0 .4.45.6m1.35-2L14 .45l-.3.05q-.15.05-.15.35l.05.25.4.25z" transform="translate(34.5 9.85)"/><path fill="url(#al)" d="m51.15 12.15.15 1.5.5-.6h.1v.45q.4-.4.55-.4l.2.1.5 1.25 1.35 3.4-1.35-1.35-2.7-3q-1.3-1.3-2.05-2.6l.1-.8.25-1.5.35-.15.55.5.15.7-.35-.2q-.45.1-.45.55l.45.35.45-.55-.05-.05.35-.15.2.6.15.65.3-.05zm.8 2.3.45.2.3-.1.15-.45-.45-.35q-.45.1-.45.7m-1.55-2-.15.2.05.3.05.2.35.05.35-.15.1-.4-.45-.35q-.1 0-.3.15m-.25-1.4q-.45.15-.45.4l.05.3.4.2.45-.25v-.3z" transform="translate(34.5 9.85)"/><path fill="url(#am)" d="M55.25 26.65h-.05q-.8-.1-.8.3l.05.25.05.2.35.05.45-.1v-.4zm5.25 1.2-.1.05v.3l.05.35.1.05.35.1.45-.15.05-.35-.05-.2zm-1.25-.9q-.15.05-.15.35t.15.4l.3.1.45-.25v-.3l-.4-.3.2-.35q.55.3.55 1l.3-.35h.4q.35 0 .5.3l.15.75.65-.25.15.9.2-.1q.2 0 .2.35l.45-.4q.1-.1.15-.1l.25.1.3.15q-.3.15-.3.35l.05.3.6.2.25-.5 3.55 1.75.4.2-3-.8-5.85-1.25-5.3-1.15q-1.9-.65-2.45-1.55l1.55-1.25.55-.45h.25l.1.3-.15.45q-.8-.3-1 .3l.05.3.1.15.4.05.5-.15.05-.35-.1-.25h.6q.4.05.05.45.45 0 .6.3l-.05.55.7-.1v1l1-.75.15.15.1.35q-.35.05-.35.4l.45.55.4-.15.05-.45-.1-.35h-.45l.25-.75q.1-.35.45-.35l.3.1v.35l.35-.35.35-.1.4.45z" transform="translate(34.5 9.85)"/><path fill="url(#an)" d="m-9.75 24.2-.3.05-.15.35.05.25.4.25q.45-.2.45-.55zm.55 0 .3-.3q.4.3.35.85l.25-.4h.3l.05.45v.1l.4-.15q.3 0 .25.3l.25.15v.3l-4.65 1.9 1.55-3.45.5-.3q.3 0 .45.55m1.1.75-.85-.1.05.55.4.25.4-.15.05-.35z" transform="translate(34.5 9.85)"/><path fill="url(#ao)" d="m-6.4 33.95.15-.3H-6q.4 0 .5.5l-.1-.05q-.45.1-.45.55l.45.35q.45-.2.45-.55l-.3-.3.1-.25.1-.05-.15-.75.05.05-.05-.2.05-.5 1.4.7q-1.95 3.4-4.6 4.9l-5.4 1.9q-4.35 1.45-10.25 2l4.05-2.25-.05.25.05.4.4.05.45-.2.1-.5v-.1l.5-.3h.5l-.05.55h.45l-.1.45.7-.6.75-.55.25.25.25-.6.55-.4q.15 0 .2.1l.1.1q.25-.95.7-.55l.15-.4q.15-.3.4-.3l.35.25q.15-.45.85-.45h.4l.1.45.25-.25.4-.1q.3 0 .4.2l.5.15.15.3.2-.75q.25-.7.7-.7.2 0 .45.25v-.85q-.05-.6.45-.6l.25.1.2.2h.1l-.1-.45.25-.7.45-.1.05.3.4.2.3-.1.15-.45-.45-.35-.35.2-.1-.45.4-.1h.4zm-8.85 5.35-.45-.35-.3.05-.15.35.15.4.3.1.45-.25zm1.25-1.25-.45.4.05.3.4.2.45-.55zm1.8-.35q-.45.1-.45.55l.45.35q.45-.2.45-.55zm3.9-1.1q-.45.1-.45.4l.05.3.4.2.3-.1.15-.45zm.45-1.3-.2.2.05.3.05.2.35.05.35-.05v-.1l.1-.35-.2-.35zm2.5-2.15.1.15v-.1zm-13.9 6.4-.05-.15h-.4l.8-.55-.35.65zm.05 1.05.05.3.4.2.35-.15.1-.4-.45-.35q-.45.15-.45.4" transform="translate(34.5 9.85)"/><path fill="url(#ap)" d="M14.45-.05q-.05-.35.35-.45v-.1l.35-.05.15.1h.2l.05.2h-.05l-.75-.05zm1.15-.2v.1z" transform="translate(34.5 9.85)"/><path fill="url(#aq)" d="M-25.75 58.25v-.2q0-.6.4-1.05.45-.4 1.05-.4t1 .4q.45.45.45 1.05t-.45 1q-.35.4-.85.45l.05-.3q0-.45-.35-.8-.3-.3-.75-.3-.3 0-.55.15" transform="translate(34.5 9.85)"/><path fill="url(#ar)" d="m-24.15 59.5-.3.45q-.3.35-.75.35t-.8-.35q-.35-.3-.35-.75l.35-.8.25-.15q.25-.15.55-.15.45 0 .75.3.35.35.35.8z" transform="translate(34.5 9.85)"/><path fill="url(#as)" d="m73.7 48.65-.85-.75q-.45-.55-.45-1.15t.45-.9l1-.05q.65.2 1.1.75.4.6.4 1.2v.2l-.55-.35-.8.05q-.35.2-.35.65z" transform="translate(34.5 9.85)"/><path fill="url(#at)" d="m73.7 48.65-.05-.35q0-.45.35-.65l.8-.05.55.35.25.2.35.95q0 .45-.35.6l-.8.1-.8-.6z" transform="translate(34.5 9.85)"/><path fill="url(#au)" d="M-30.8 64.35q.15-.6.7-1.15.5-.6 1.1-.75l.85.05q.3.25.15.85l-.7 1.1-1.1.8-.85-.05zm2.3-1.5-.6-.05-.8.55-.5.85q-.15.45.05.65.25.2.65 0l.8-.55.5-.85q.15-.4-.1-.6" transform="translate(34.5 9.85)"/><path fill="url(#av)" d="M-28.5 62.85q.25.2.1.6l-.5.85-.8.55q-.4.2-.65 0-.2-.2-.05-.65l.5-.85.8-.55z" transform="translate(34.5 9.85)"/><path fill="url(#aw)" d="m-25 64.95-.85.1-1.1-.65-.8-1.15q-.2-.5.05-.8l.85-.15q.6.2 1.15.7.55.55.75 1.1.25.55-.05.85m-2.35-2.15q-.2.2 0 .6l.55.8.85.5.6-.1q.2-.2.05-.6l-.55-.8q-.4-.4-.85-.5z" transform="translate(34.5 9.85)"/><path fill="url(#ax)" d="m-27.35 62.8.65-.1q.45.1.85.5l.55.8q.15.4-.05.6l-.6.1-.85-.5-.55-.8q-.2-.4 0-.6" transform="translate(34.5 9.85)"/><path fill="url(#ay)" d="m-25.55 59.65-.6-.05-.8.55-.5.85q-.15.45.05.65.25.2.65 0l.8-.55.5-.85q.15-.4-.1-.6m-.5-.4.85.05q.3.25.15.85l-.7 1.1q-.55.55-1.1.8l-.85-.05q-.3-.3-.15-.85.15-.6.7-1.15z" transform="translate(34.5 9.85)"/><path fill="url(#az)" d="M-25.55 59.65q.25.2.1.6l-.5.85-.8.55q-.4.2-.65 0-.2-.2-.05-.65l.5-.85.8-.55z" transform="translate(34.5 9.85)"/><path fill="url(#aA)" d="M-28.9 60.05q.6.55.75 1.1.25.55-.05.85l-.85.1q-.5-.1-1.1-.65l-.8-1.15q-.2-.5.05-.8l.85-.15zm.4 1-.55-.8q-.4-.4-.85-.5l-.65.1q-.2.2 0 .6l.55.8.85.5.6-.1q.2-.2.05-.6" transform="translate(34.5 9.85)"/><path fill="url(#aB)" d="M-28.5 61.05q.15.4-.05.6l-.6.1-.85-.5-.55-.8q-.2-.4 0-.6l.65-.1q.45.1.85.5z" transform="translate(34.5 9.85)"/><path fill="#fff" d="m7.9 72.25-.6.6-.85.05-.6-.6-.05-.85.6-.6.85-.05.6.6z"/><path fill="#4c87ba" d="m7.85 71.4-.4.2-.4-.35.2-.45z"/><path fill="#78a5cf" d="m7.9 72.25-.45-.15v-.5l.4-.2z"/><path fill="#a6daf4" d="m7.25 70.8-.2.45h-.5l-.15-.4zM7.1 72.5l.2.35-.85.05.15-.4z"/><path fill="#9bc4e2" d="m7.45 72.1.45.15-.6.6-.2-.35z"/><path fill="#4c87ba" d="M6.2 71.65v.5l-.35.15-.05-.85z"/><path fill="#78a5cf" d="m6.2 72.15.4.35-.15.4-.6-.6z"/><path fill="#bae5f4" d="m7.45 72.1-.35.4h-.5l-.4-.35v-.5l.35-.4h.5l.4.35zM1.55 76.8l-.9.65-.15.45.55-.1 1.2-.95.2-.25zm2.35-1.2.05.05-.7 1.55-1.15 1.9q-.45.4-.95.3l-.65-.35-.45-.7q-.2-.5.15-.95l1.85-1.3 1.5-.8h.05l.15.1zm-1 1.8.65-1.55q-1.1 1.9-2.25 2.25l-.8.2.25.45.7.25q.55.05 1.45-1.6"/><path fill="#fff" d="m1.55 76.8.9-.2-.2.25-1.2.95-.55.1.15-.45z"/><path fill="#78a5cf" d="M2.9 77.4Q2 79.05 1.45 79l-.7-.25-.25-.45.8-.2q1.15-.35 2.25-2.25z"/><path fill="url(#aC)" d="m-31.15 65.25.2-.6q.2-.25.55-.2l.55.15q.2.2.25.6l-.2.55-.55.25-.55-.25z" transform="translate(34.5 9.85)"/><path fill="url(#aD)" d="m78.35 55.05.85.8.65.25q.2-.15.05-.65l-.5-1-.8-.85-.65-.15q-.25.15-.1.6zM77.6 53q.3-.2.85.25l1.15 1.1.7 1.4q.15.6-.15.8-.3.15-.85-.25l-1.15-1.15-.7-1.35q-.15-.65.15-.8" transform="translate(34.5 9.85)"/><path fill="url(#aE)" d="m78.35 55.05-.5-1q-.15-.45.1-.6l.65.15.8.85.5 1q.15.5-.05.65l-.65-.25z" transform="translate(34.5 9.85)"/><path fill="url(#aF)" d="m77.2 53.6-.8.9-1.15.25q-.6 0-.85-.35-.3-.45-.05-.9l.75-.85 1.2-.3.85.45zm-.4-.6q-.2-.25-.7-.3l-.85.2q-.4.3-.55.65t.05.6.6.3l.9-.2.55-.65q.2-.3 0-.6" transform="translate(34.5 9.85)"/><path fill="url(#aG)" d="M76.8 53q.2.3 0 .6l-.55.65-.9.2q-.4-.05-.6-.3t-.05-.6.55-.65l.85-.2q.5.05.7.3" transform="translate(34.5 9.85)"/><path fill="url(#aH)" d="m74.95 49.25.6.15.85.85.5 1q.15.5-.05.65-.25.1-.65-.25l-.85-.8-.5-1q-.15-.45.1-.6" transform="translate(34.5 9.85)"/><path fill="url(#aI)" d="M74.6 48.8q.3-.2.85.25l1.15 1.1.7 1.4q.15.6-.15.8-.3.15-.85-.25l-1.15-1.15-.7-1.35q-.15-.65.15-.8m.35.45q-.25.15-.1.6l.5 1 .85.8q.4.35.65.25.2-.15.05-.65l-.5-1-.85-.85z" transform="translate(34.5 9.85)"/><path fill="url(#aJ)" d="M80.05 51.15q.2.3 0 .6l-.55.6-.85.25q-.45-.05-.65-.3-.2-.3-.05-.65t.6-.6q.4-.25.85-.2z" transform="translate(34.5 9.85)"/><path fill="url(#aK)" d="M80.4 50.95q.25.35.05.8l-.8.85q-.6.35-1.1.3-.65 0-.9-.4-.3-.4-.05-.85.15-.5.75-.85.6-.3 1.2-.3.55 0 .85.45m-.35.2-.65-.3q-.45-.05-.85.2-.45.25-.6.6t.05.65q.2.25.65.3l.85-.25.55-.6q.2-.3 0-.6" transform="translate(34.5 9.85)"/><path fill="#fff" d="m110.8 62.1.6.8.9.3.6-.4V62l-.6-.8-.85-.35-.6.4z"/><path fill="#4c87ba" d="m110.8 61.25.45.3.4-.2-.2-.5z"/><path fill="#78a5cf" d="m110.8 62.1.45-.05v-.5l-.45-.3z"/><path fill="#a6daf4" d="m111.45 60.85.2.5.5.2.15-.35zM111.6 62.55l-.2.35.85.3-.15-.45z"/><path fill="#9bc4e2" d="m111.25 62.05-.45.05.6.8.2-.35z"/><path fill="#4c87ba" d="M112.5 62.05v.5l.4.25V62z"/><path fill="#78a5cf" d="m112.5 62.55-.4.2.15.45.65-.4z"/><path fill="#bae5f4" d="m111.25 62.05.35.5.5.2.4-.2v-.5l-.35-.5-.5-.2-.4.2z"/><path fill="#fff" d="m117.7 70.1-1.2-1.35-.2-.35q.15-.1.9.5l.95 1 .15.5q-.05.15-.6-.3"/><path fill="#bae5f4" d="m118 71.15.3-.35-.85-.5q-1.15-.75-2.3-3l.7 1.75q.9 1.95 1.45 2.1zm-1.35-.1-1.2-2.3-.7-1.8h.05l.15-.15.15-.05h.05l1.55 1.3q1.65 1.45 1.9 1.95.35.55.15 1l-.45.55-.7.1zm1.05-.95q.55.45.6.3l-.15-.5-.95-1q-.75-.6-.9-.5l.2.35z"/><path fill="#78a5cf" d="M118 71.15h-.7q-.55-.15-1.45-2.1l-.7-1.75q1.15 2.25 2.3 3l.85.5z"/><path fill="url(#aL)" d="m80.65 56.1.2.65-.25.45-.55.05-.55-.45-.2-.6q.05-.4.25-.55l.55.05z" transform="translate(34.5 9.85)"/></g></defs></svg>