<svg xmlns="http://www.w3.org/2000/svg" xmlns:ffdec="https://www.free-decompiler.com/flash" xmlns:xlink="http://www.w3.org/1999/xlink" ffdec:objectType="frame" width="62.35" height="60.1"><use ffdec:characterId="1" xlink:href="#a" width="62.35" height="60.1"/><defs><g id="a"><path fill-rule="evenodd" d="M58.4 34.6v2.15q0 1-1 1h-1.1l-.75 3.6-1.4 2.8q-1.35 1.9-3.45 2.95-3.25 1.65-8.05 1.75-4.2.1-6.55-.85l-2.7-1.45q-1.15-.7-2.4-.75-1.2-.05-2.45.65L25.7 48q-2.35.95-6.55.85-4.8-.1-8.05-1.75-2-1-3.3-2.8l-1.5-2.95-.8-3.6H5q-1 0-1-1v-1.9l.05-.25h15.8q1.4 1.8 4.6 1.8h12.6q3.2 0 4.65-1.8h16.7m-6.45 7 .55-1.5.4-2.35h-44l.4 2.35.55 1.5 1.65 2.1q1.5 1.55 4.55 2.4 3.3.9 7.25.6 2.45-.2 3.85-1.9 1.25-1.65 3.9-1.65t3.85 1.65q1.25 1.7 3.6 1.9 4 .3 7.25-.6 3.05-.85 4.55-2.4z"/><path fill="#333" fill-rule="evenodd" d="m54.15 44.15-.5 2.35q-.25 1.85-2.65 4.75-3.2 3.9-7.5 5.05l-2 .3h-2.35l-1.15 1-3.35.75-3.6.25-3.6-.25q-2.6-.3-3.35-.75l-1.15-1H20.7q-1.65-.05-4.6-1.35-2.95-1.35-5.65-4.7-1.75-2.15-2-4.05l-.65-2.2q1.3 1.8 3.3 2.8 3.25 1.65 8.05 1.75 4.2.1 6.55-.85l2.85-1.55q1.25-.7 2.45-.65 1.25.05 2.4.75L36.1 48q2.35.95 6.55.85 4.8-.1 8.05-1.75 2.1-1.05 3.45-2.95"/><path fill="#660" fill-rule="evenodd" d="M15.2 5.85q.15.65 1 1.5l2 1.45-.05.15q-.3.7.3 1.75.6 1.1 2.15 1.3-1.55 2.05-1.8 4.7-2.85-1.65-11.75.05l-1.3-.15.05-.2Q7.85 12 10.85 9q1.95-1.95 4.3-3.35zm18.25-3.7L33.5 2v-.05l.35-.15 4.1.55 3.25.8-.15.65q.15 1.15 3.55 1.5l1.85.25.6.05.7.4-.1 1.15q-.45.85-3.15 1.5-2.05.45-5.3-.75l-4.55-1.85q-1.05-.3-1.4-1.45-.35-1.1.1-2.25zM3 27.45l.2-1.8q.35.65 1.25.8 3.25.4 5.8 1.6-1.15-.25-1.1 1.8l.1 1.4q.15 1.4.55 1.8h-.15q-4.45-.45-7.35-1.6l-.05-.05.6-2.2.1-1.25zm56.15-2.35.35 3.3v.2l.05.3v.2l-3.5.95Q54.3 31 55.4 33l1 .85.5.15 1.25.1 1.45-.2 1.15-.3.1.45v.05l-.2.4-.4.1H49l2.45-.75.45-.15q2.1-.95 2.25-2 .05-.95-1.45-2.05l-3-1.35-.9-.25q1.2-1.3 0-2.7-1.3-1.6-.6-2.95.4-.75.9-1.05l.15-.1q1.2.6 2.65.6l3-.3.45.1 2.65.75.65.15z"/><path fill="#443426" fill-rule="evenodd" d="m18.15 8.95.05-.15-2-1.45q-.85-.85-1-1.5 2.45-1.5 5.2-2.35l3.6-.95L28.35 2l2.85-.15 2.3.15-.05.15-.65.4-.15.1Q29.1 5.1 30.2 6.75l.85 1.15H28.7q-3.8 0-6.6 2.45l-.75-.2Q19.7 9.8 18.2 9zm-9 20.9q0-1.8 1.1-1.6l2.45.35q1.4.05 1.75-1.4.85-3.15.35-4.15-.65-1.2-3.7-1.5-2.75-.4-5.9 1.15l-1.65.85q.6-3.05 1.8-5.9l.2-.45 1.5-.25q8.9-1.7 11.7-.1l-.05 1.05v12.75q0 2.55 1.15 3.95H10.8l-.65-.75-.35-.6-.15-.2h.15q-.4-.4-.55-1.8zM41.05 3.8l.15-.45.8.2.95.4 3.5 1.6-1.85-.25q-3.4-.35-3.55-1.5m-1.25 6.95 2.15.45q2.35.75 3.7 1.95.8.75 1.05 1.65.25 1.05-.35 1.95.2-.25.95-.45l1.9-.6 2.7-1.25 1.5-1.05q.35-.6-.2-2.3 1.7 2.1 2.95 4.65l.45 1L58.2 21l-2.85.65-.45-.1-3 .3q-1.45 0-2.65-.6l-.15.1-.7-.45q-.8-.65-2.05-1.35-.75-.35-.7-.8l-2.2.05-.65-.05v-.85q0-4.15-2.95-7.1zm3 17.3 6 .2.9.25 3 1.35q1.35.95 1.45 1.85-.15 1.05-2.25 2l-.45.15-2.45.75h-7.3q1.1-1.4 1.1-3.95z"/><path fill="#355426" fill-rule="evenodd" d="m15.2 5.85-.05-.2Q12.8 7.05 10.85 9q-3 3-5.05 7.4l-.05.2 1.3.15q8.9-1.7 11.75-.05l-.05.15q-2.8-1.6-11.7.1l-1.5.25-.2.45q-1.2 2.85-1.8 5.9l1.65-.85q3.15-1.55 5.9-1.15 3.05.3 3.7 1.5.5 1-.35 4.15-.35 1.45-1.75 1.4l-2.45-.35q-1.1-.2-1.1 1.6-.05-2.05 1.1-1.8-2.55-1.2-5.8-1.6-.9-.15-1.25-.8l-.2 1.8.25-2.5.05-.45q.55-3.45 2.1-7.15l.4-.95q1.9-4.3 5.05-7.45Q16 3.8 24.35 2.2l4-.55 2.85-.15 6.25.7 5.45 1.45q2.25.85 4.15 1.95l-.6-.05-3.5-1.6-.95-.4-.8-.2-.15.45.15-.65-3.25-.8-4.1-.55-.35.15V2l-2.3-.15-2.85.15-4.35.55-3.6.95q-2.75.85-5.2 2.35M20.6 12q-1.55-.2-2.15-1.3-.6-1.05-.3-1.75l.05.05q1.5.8 3.15 1.15l.75.2-.5.45zm10.45-4.1-.85-1.15q-1.1-1.65 2.45-4.1l.15-.1.65-.4-.1.2q-.45 1.15-.1 2.25.35 1.15 1.4 1.45L39.2 7.9q3.25 1.2 5.3.75 2.7-.65 3.15-1.5l.1-1.15 1.15.8q1.5 1.1 3.1 2.7 2.7 2.8 4.1 5.9 1.3 2.7 2.1 5.3l.95 4.35v.05l-.5-2.55-.65-.15-2.65-.75L58.2 21l-1.6-4.25-.45-1Q54.9 13.2 53.2 11.1q.55 1.7.2 2.3l-1.5 1.05-2.7 1.25-1.9.6q-.75.2-.95.45.6-.9.35-1.95-.25-.9-1.05-1.65-1.35-1.2-3.7-1.95l-2.15-.45q-2.9-2.85-7-2.85zM59.5 28.6l.05.2v.1zm.05.5-.05.8 1.25 3.7-1.15.3-1.45.2-1.25-.1-.5-.15-1-.85q-1.1-2 .65-2.95zm-55.5 5.5H2.8q-1.5-.2-1.3-.7l.75-2.4.05-.05q2.9 1.15 7.35 1.6l.15.2.35.6.65.75zm50.1-2.9q-.1-.9-1.45-1.85l-3-1.35-.9-.25-6-.2v-9.3l.65.05 2.2-.05q-.05.45.7.8 1.25.7 2.05 1.35l.7.45q-.5.3-.9 1.05-.7 1.35.6 2.95 1.2 1.4 0 2.7l.9.25 3 1.35q1.5 1.1 1.45 2.05"/><path fill-opacity=".298" fill-rule="evenodd" d="M18.8 16.7q.25-2.65 1.8-4.7l1-1.2.5-.45q2.8-2.45 6.6-2.45h4.1q4.1 0 7 2.85l.05.05q2.95 2.95 2.95 7.1v12.75q0 2.55-1.1 3.95-1.45 1.8-4.65 1.8h-12.6q-3.2 0-4.6-1.8-1.15-1.4-1.15-3.95V17.9l.05-1.05zM33 22.65q0-.95-.7-1.7-.7-.7-1.7-.7t-1.7.7q-.7.75-.7 1.7 0 1 .7 1.7t1.7.7 1.7-.7.7-1.7"/><path fill="#d02d2d" fill-rule="evenodd" d="M33 22.65q0 1-.7 1.7t-1.7.7-1.7-.7-.7-1.7q0-.95.7-1.7.7-.7 1.7-.7t1.7.7q.7.75.7 1.7"/><path fill="none" stroke="red" stroke-linecap="round" stroke-linejoin="round" stroke-width="3" d="m18.15 8.95.05-.15-2-1.45q-.85-.85-1-1.5l-.05-.2Q12.8 7.05 10.85 9q-3 3-5.05 7.4l-.05.2 1.3.15q8.9-1.7 11.75-.05.25-2.65 1.8-4.7-1.55-.2-2.15-1.3-.6-1.05-.3-1.75l.05.05q1.5.8 3.15 1.15l.75.2q2.8-2.45 6.6-2.45h2.35l-.85-1.15q-1.1-1.65 2.45-4.1l.15-.1.65-.4.05-.15-2.3-.15-2.85.15-4.35.55-3.6.95q-2.75.85-5.2 2.35m31.85-.25q-1.9-1.1-4.15-1.95L37.45 2.2l-6.25-.7-2.85.15-4 .55Q16 3.8 10.85 8.95 7.7 12.1 5.8 16.4l-.4.95q-1.55 3.7-2.1 7.15l-.05.45-.25 2.5.2-1.8q.35.65 1.25.8 3.25.4 5.8 1.6-1.15-.25-1.1 1.8 0-1.8 1.1-1.6l2.45.35q1.4.05 1.75-1.4.85-3.15.35-4.15-.65-1.2-3.7-1.5-2.75-.4-5.9 1.15l-1.65.85q.6-3.05 1.8-5.9l.2-.45 1.5-.25q8.9-1.7 11.7-.1l.05-.15M47.75 6l-.1 1.15q-.45.85-3.15 1.5-2.05.45-5.3-.75l-4.55-1.85q-1.05-.3-1.4-1.45-.35-1.1.1-2.25l.1-.2M33.5 2v-.05l.35-.15 4.1.55 3.25.8-.15.65.15-.45.8.2.95.4 3.5 1.6.6.05m.7.4 1.15.8q1.5 1.1 3.1 2.7 2.7 2.8 4.1 5.9 1.3 2.7 2.1 5.3l.95 4.35v.05l.35 3.3v.2l.05.2v.3l-.05.8 1.25 3.7.1.45v.05l-.2.4-.4.1H58.4v2.15q0 1-1 1h-1.1l-.75 3.6-1.4 2.8-.5 2.35q-.25 1.85-2.65 4.75-3.2 3.9-7.5 5.05l-2 .3h-2.35l-1.15 1-3.35.75-3.6.25-3.6-.25q-2.6-.3-3.35-.75l-1.15-1H20.7q-1.65-.05-4.6-1.35-2.95-1.35-5.65-4.7-1.75-2.15-2-4.05l-.65-2.2-1.5-2.95-.8-3.6H5q-1 0-1-1v-1.9l.05-.25H2.8q-1.5-.2-1.3-.7l.75-2.4.05-.05-.05-.05.6-2.2.1-1.25.05-.5m43.45-21.9L44.6 5.3q-3.4-.35-3.55-1.5m-1.25 6.95 2.15.45q2.35.75 3.7 1.95.8.75 1.05 1.65.25 1.05-.35 1.95.2-.25.95-.45l1.9-.6 2.7-1.25 1.5-1.05q.35-.6-.2-2.3 1.7 2.1 2.95 4.65l.45 1L58.2 21l-2.85.65 2.65.75.65.15.5 2.55M49.1 21.35l.15-.1q1.2.6 2.65.6l3-.3.45.1m-12.55 6.4 6 .2.9.25 3 1.35q1.35.95 1.45 1.85.05-.95-1.45-2.05l-3-1.35-.9-.25q1.2-1.3 0-2.7-1.3-1.6-.6-2.95.4-.75.9-1.05l-.7-.45q-.8-.65-2.05-1.35-.75-.35-.7-.8l-2.2.05-.65-.05zv2.6q0 2.55-1.1 3.95H49l2.45-.75.45-.15q2.1-.95 2.25-2m5.35-3.1.05.3m0 .2-3.5.95Q54.3 31 55.4 33l1 .85.5.15 1.25.1 1.45-.2 1.15-.3m-8.8 8 .55-1.5.4-2.35h-44l.4 2.35.55 1.5 1.65 2.1q1.5 1.55 4.55 2.4 3.3.9 7.25.6 2.45-.2 3.85-1.9 1.25-1.65 3.9-1.65t3.85 1.65q1.25 1.7 3.6 1.9 4 .3 7.25-.6 3.05-.85 4.55-2.4zm6.45-7H49m5.15 9.55q-1.35 1.9-3.45 2.95-3.25 1.65-8.05 1.75-4.2.1-6.55-.85l-2.7-1.45q-1.15-.7-2.4-.75-1.2-.05-2.45.65L25.7 48q-2.35.95-6.55.85-4.8-.1-8.05-1.75-2-1-3.3-2.8m35-25.55v-.85q0-4.15-2.95-7.1l-.05-.05q-2.9-2.85-7-2.85h-1.75M33 22.65q0 1-.7 1.7t-1.7.7-1.7-.7-.7-1.7q0-.95.7-1.7.7-.7 1.7-.7t1.7.7q.7.75.7 1.7m-10.9-12.3-.5.45-1 1.2m-1.85 4.85-.05 1.05v12.75q0 2.55 1.15 3.95 1.4 1.8 4.6 1.8h12.6q3.2 0 4.65-1.8M9.65 33.05h.15q-.4-.4-.55-1.8l-.1-1.4m1.65 4.75-.65-.75-.35-.6-.15-.2q-4.45-.45-7.35-1.6m17.55 3.15H4.05"/><path fill-rule="evenodd" d="M57.4 33.85q1 0 1 1v1.9q0 1-1 1H5q-1 0-1-1v-1.9q0-1 1-1z"/><path fill="#333" fill-rule="evenodd" d="M53.65 46.5q-.25 1.85-2.65 4.75-3.2 3.9-7.5 5.05l-2 .3h-2.35l-1.15 1-3.35.75-3.6.25-3.6-.25q-2.6-.3-3.35-.75l-1.15-1H20.7q-1.65-.05-4.6-1.35-2.95-1.35-5.65-4.7-1.75-2.15-2-4.05L7.1 41.85l3.45 4.65q2.35 1.5 4.5 1.5l4.3.25 3.55-.15 3-.75 1.45-.55 2.15-1.3q.65-.35 1.65-.35.95 0 1.9.55l1.7 1.1 2.55 1.05 5.4.5 4.35-.25q2 0 4.5-1.6l2.85-3.65z"/><path fill="#355426" fill-rule="evenodd" d="m15.2 5.85-.05-.2Q12.8 7.05 10.85 9q-3 3-5.05 7.4l-.05.2 1.3.15q9.95-1.9 12.3.35l9.65-.7q1.15-1.05 1.25-2.3.05-1.45-1.5-2.3 1.75-.45 2.4-1.65.55-1.05.05-2l-1-1.4q-1.1-1.65 2.45-4.1l.15-.1.65-.4-.1.2q-.45 1.15-.1 2.25.35 1.15 1.4 1.45L39.2 7.9q3.25 1.2 5.3.75 2.7-.65 3.15-1.5l.1-1.05V6l1.15.8q1.5 1.1 3.1 2.7 2.7 2.8 4.1 5.9 1.3 2.7 2.1 5.3l.95 4.35v.05l-.5-2.55-.65-.15-2.65-.75L58.2 21l-1.6-4.25-.45-1Q54.9 13.2 53.2 11.1q.55 1.7.2 2.3l-1.5 1.05-2.7 1.25-1.9.6q-.75.2-.95.45.6-.9.35-1.95-.25-.9-1.05-1.65-1.35-1.2-3.7-1.95l-4.55-.35q-2.9 1.1-3.5 4.15-.6 3.1 2.6 3.55l-4.75 1q-2.35.6-3.35 1.2l-.15.05-.2.1-.3.1-.9.75q-1.85 1.95-1.75 3 .1 1.2 2.75 2.35 1.9.85 4.3-1.65 1.8-1.9 2.75.35l.35 1 .75 2.35q.35 2.1.65 2.85.45 1.25 1.35 1.8l1.35.8H22.4l4-1.3q1.55-.5 1.85-.9 1-.8-2.2-2.25-4.1-1.9-5-3.4-.75-1.25-.7-2.4 0-.75.4-1.9l.15-1.95q-.1-1.2-.95-2.55l-.6-.65q-2.35-2.25-12.3-.35l-1.5.25-.2.45q-1.2 2.85-1.8 5.9l1.65-.85q3.15-1.55 5.9-1.15 3.05.3 3.7 1.5.5 1-.35 4.15-.35 1.45-1.75 1.4l-2.45-.35q-1.1-.2-1.1 1.6-.05-2.05 1.1-1.8-2.55-1.2-5.8-1.6-.9-.15-1.25-.8l-.2 1.8.25-2.5.05-.45q.55-3.45 2.1-7.15l.4-.95q1.9-4.3 5.05-7.45Q16 3.8 24.35 2.2l4-.55 2.85-.15 6.25.7 5.45 1.45q2.25.85 4.15 1.95l-.6-.05-3.5-1.6-.95-.4-.8-.2-.15.45.15-.65-3.25-.8-4.1-.55-.35.15V2l-2.3-.15-2.85.15-4.35.55-3.6.95q-2.75.85-5.2 2.35m10.35 5.55-2.9.45q-3.3.6-4.2-1.15-.6-1.05-.3-1.75l.05.05q1.5.8 3.15 1.15l2.35.7zm28.6 20.3q-.1-.9-1.45-1.85l-3-1.35-.9-.25q-3.2-.9-7.2 0-1.3.15-2.2-1.3-.6-.95-.55-1.75l.05-.55.4-1.05.4-.55 1.4-2.4q.75-1.45-.15-2.05l2.5.2 2.2-.05q-.05.45.7.8 1.25.7 2.05 1.35l.7.45q-.5.3-.9 1.05-.7 1.35.6 2.95 1.2 1.4 0 2.7l.9.25 3 1.35q1.5 1.1 1.45 2.05m5.35-3.1.05.2v.1zm.05.5-.05.8 1.4 3.8-.05.4-.45-.2h-.8l-2.7.1q-1.05-.2-1.5-1-1.1-2 .65-2.95zM10.8 34.6h-8q-1.5-.2-1.3-.7l.75-2.4.05-.05q2.9 1.15 7.35 1.6l.15.2q.35.8 1 1.35"/><path fill="#443426" fill-rule="evenodd" d="m18.15 8.95.05-.15-2-1.45q-.85-.85-1-1.5 2.45-1.5 5.2-2.35l3.6-.95L28.35 2l2.85-.15 2.3.15-.05.15-.65.4-.15.1Q29.1 5.1 30.2 6.75l1 1.4q.5.95-.05 2-.65 1.2-2.4 1.65l-.3-.15-2.3-.3-.6.05-1.85-.55-2.35-.7Q19.7 9.8 18.2 9zm-9 20.9q0-1.8 1.1-1.6l2.45.35q1.4.05 1.75-1.4.85-3.15.35-4.15-.65-1.2-3.7-1.5-2.75-.4-5.9 1.15l-1.65.85q.6-3.05 1.8-5.9l.2-.45 1.5-.25q9.95-1.9 12.3.35l.6.65q.85 1.35.95 2.55l-.15 1.95q-.4 1.15-.4 1.9-.05 1.15.7 2.4.9 1.5 5 3.4 3.2 1.45 2.2 2.25-.3.4-1.85.9l-4 1.3H10.8q-.65-.55-1-1.35l-.15-.2h.15q-.4-.4-.55-1.8zm30.2 4.75L38 33.8q-.9-.55-1.35-1.8-.3-.75-.65-2.85l-.75-2.35-.35-1q-.95-2.25-2.75-.35-2.4 2.5-4.3 1.65-2.65-1.15-2.75-2.35-.1-1.05 1.75-3l.9-.75.3-.1.2-.1.15-.05q1-.6 3.35-1.2l4.75-1q-3.2-.45-2.6-3.55.6-3.05 3.5-4.15l4.55.35q2.35.75 3.7 1.95.8.75 1.05 1.65.25 1.05-.35 1.95.2-.25.95-.45l1.9-.6 2.7-1.25 1.5-1.05q.35-.6-.2-2.3 1.7 2.1 2.95 4.65l.45 1L58.2 21l-2.85.65-.45-.1-3 .3q-1.45 0-2.65-.6l-.15.1-.7-.45q-.8-.65-2.05-1.35-.75-.35-.7-.8l-2.2.05-2.5-.2q.9.6.15 2.05l-1.4 2.4-.4.55-.4 1.05-.05.55q-.05.8.55 1.75.9 1.45 2.2 1.3 4-.9 7.2 0l.9.25 3 1.35q1.35.95 1.45 1.85-.15 1.05-2.25 2l-2.9.9zm1.7-30.8.15-.45.8.2.95.4 3.5 1.6-1.85-.25q-3.4-.35-3.55-1.5"/><path fill="#660" fill-rule="evenodd" d="M15.2 5.85q.15.65 1 1.5l2 1.45-.05.15q-.3.7.3 1.75.9 1.75 4.2 1.15l2.9-.45.6-.05 2.3.3.3.15q1.55.85 1.5 2.3-.1 1.25-1.25 2.3l-9.65.7q-2.35-2.25-12.3-.35l-1.3-.15.05-.2Q7.85 12 10.85 9q1.95-1.95 4.3-3.35zM3 27.45l.2-1.8q.35.65 1.25.8 3.25.4 5.8 1.6-1.15-.25-1.1 1.8l.1 1.4q.15 1.4.55 1.8h-.15q-4.45-.45-7.35-1.6l-.05-.05.6-2.2.1-1.25zm52.35-5.8 2.65.75.65.15.5 2.55.35 3.3v.2l.05.3v.2l-3.5.95Q54.3 31 55.4 33q.45.8 1.5 1l2.7-.1h.8l.45.2-.6.5H49l2.9-.9q2.1-.95 2.25-2 .05-.95-1.45-2.05l-3-1.35-.9-.25q1.2-1.3 0-2.7-1.3-1.6-.6-2.95.4-.75.9-1.05l.15-.1q1.2.6 2.65.6l3-.3zM47.75 6v.1l-.1 1.05q-.45.85-3.15 1.5-2.05.45-5.3-.75l-4.55-1.85q-1.05-.3-1.4-1.45-.35-1.1.1-2.25l.1-.2.05-.15v-.05l.35-.15 4.1.55 3.25.8-.15.65q.15 1.15 3.55 1.5l1.85.25.6.05z"/><path fill-rule="evenodd" d="M55.55 41.35Q54.1 45.4 50.7 47.1q-3.25 1.65-8.05 1.75-4.2.1-6.55-.85l-2.7-1.45q-1.15-.7-2.4-.75-1.2-.05-2.45.65L25.7 48q-2.35.95-6.55.85-4.8-.1-8.05-1.75-3.35-1.7-4.8-5.75l-.8-3.65h3.4l.4 2.4.55 1.5 1.65 2.1q1.5 1.55 4.55 2.4 3.3.9 7.25.6 2.45-.2 3.85-1.9 1.25-1.65 3.9-1.65t3.85 1.65q1.25 1.7 3.6 1.9 4 .3 7.25-.6 3.05-.85 4.55-2.4l1.65-2.1.55-1.5.4-2.4h3.4z"/><path fill="#660" fill-rule="evenodd" d="m38.85 25 .05-.55.4-1.05.4-.55.55.85q0 .5-1.4 1.3m-1.15 9.95q.1-.9.3-1.35.85.7 2.4 1.2l.4.15z"/><path fill-opacity=".298" fill-rule="evenodd" d="M39.85 10.8q2.95 2.95 2.95 7.1v12.75q0 5.75-5.75 5.75h-12.6q-5.75 0-5.75-5.75V17.9q0-4.15 2.9-7.1 2.95-2.9 7.1-2.9h4.1q4.15 0 7.05 2.9"/><path fill="#d02d2d" fill-rule="evenodd" d="M32.3 24.35q-.7.7-1.7.7t-1.7-.7-.7-1.7q0-.95.7-1.7.7-.7 1.7-.7t1.7.7q.7.75.7 1.7 0 1-.7 1.7"/><path fill="none" stroke="#fff" stroke-linecap="round" stroke-linejoin="round" d="M30.5 13.55v2.4q3.05 0 5.15 2.1l1.4 1.85q.7 1.45.7 3.1h1.55m-8.8-7.05v2.75m3.55 4.3h3.7q0 1.8-.75 3.2l-.3.6-1.05 1.2-.85.7-1.15.7q-1.4.7-3.15.7v1.45m0-4.75v3.3q-3 0-5.2-2.1-2.05-2.05-2.05-5H21.3m9.2-7.05q-3 0-5.2 2.1-.75.8-1.3 1.85-.75 1.45-.75 3.1h3.3"/><path fill-opacity=".298" fill-rule="evenodd" d="m17.05 53.55 7.15.5q4.35 1.65 9 1.15 3.15-.3 5.95-1.5 5.6.8 13.35-4.5-4.45 5.45-7.2 6.45t-6.15.95q-3.6 2.6-9.65 1.9-4.85-.5-6.55-1.9-3.85.75-9.55-3.2l-3.65-3.6q3.05 2.85 7.3 3.75"/><path fill-opacity=".4" fill-rule="evenodd" d="m53.6 40.4-45.2.05L7.9 36l46.2-.05z"/></g></defs></svg>