<?xml version="1.0" encoding="UTF-8" standalone="no"?>
<svg xmlns:ffdec="https://www.free-decompiler.com/flash" xmlns:xlink="http://www.w3.org/1999/xlink" ffdec:objectType="frame" height="22.1px" width="27.4px" xmlns="http://www.w3.org/2000/svg">
  <g transform="matrix(1.0, 0.0, 0.0, 1.0, -23.2, 1.15)">
    <use ffdec:characterId="1" height="22.1" transform="matrix(1.0, 0.0, 0.0, 1.0, 23.2, -1.15)" width="27.4" xlink:href="#shape0"/>
  </g>
  <defs>
    <g id="shape0" transform="matrix(1.0, 0.0, 0.0, 1.0, -23.2, 1.15)">
      <path d="M45.0 8.5 L46.4 8.85 46.75 8.95 49.05 9.8 49.25 9.9 49.5 10.0 49.65 9.95 49.7 9.9 49.95 9.9 47.95 12.45 Q45.75 15.0 46.75 14.75 L47.7 14.6 47.0 15.9 46.35 15.8 Q45.65 15.7 45.45 16.6 L44.95 18.55 44.45 19.4 43.8 20.95 43.7 20.9 42.55 19.75 40.85 17.55 Q38.85 15.05 38.4 13.0 L38.3 12.8 38.3 12.75 38.2 12.35 38.2 12.25 38.05 12.25 37.85 12.25 35.7 11.65 34.3 10.95 34.1 10.7 33.95 10.7 33.8 10.75 33.7 10.8 Q30.5 12.4 27.0 12.35 L23.7 12.1 24.3 11.25 24.7 10.05 Q24.7 8.8 24.05 8.95 24.3 8.15 25.1 7.15 L26.2 5.7 26.65 4.2 Q26.75 3.0 27.6 1.75 28.6 0.25 28.05 0.05 27.5 -0.15 27.9 -0.3 28.25 -0.45 31.05 1.8 L32.15 2.65 33.7 4.15 34.3 4.9 35.1 6.4 35.7 7.25 36.05 7.25 Q36.95 7.25 38.45 7.85 39.6 8.3 39.7 8.9 L39.9 8.65 39.85 8.85 39.9 8.85 40.45 8.7 42.75 8.5 45.0 8.5" fill="#000000" fill-opacity="0.4" fill-rule="evenodd" stroke="none"/>
      <path d="M27.7 -1.1 Q27.85 4.4 27.5 5.25 27.2 6.05 26.2 6.65 25.1 7.2 24.45 9.1 L23.6 11.4 23.2 11.35 23.2 10.55 25.4 6.05 Q27.1 2.4 27.25 0.7 27.35 -1.1 27.5 -1.1 L27.7 -1.1 M45.5 7.65 L46.9 8.0 47.25 8.1 Q43.85 7.9 40.75 8.9 L40.5 9.65 42.85 9.75 Q44.4 9.75 44.4 10.55 44.4 11.3 44.05 11.8 43.65 12.4 43.15 12.4 42.05 12.4 40.8 11.5 L40.15 10.95 Q40.0 15.6 44.0 17.05 L44.9 17.35 45.0 18.3 Q44.4 19.35 44.4 20.5 L44.3 20.4 43.7 19.8 41.35 16.7 Q39.35 14.2 38.9 12.15 L38.8 11.95 38.8 11.9 38.7 11.5 38.7 11.4 38.55 11.4 38.35 11.4 36.2 10.8 34.8 10.1 34.8 9.45 34.8 9.3 35.45 8.0 Q35.8 8.95 36.9 9.7 38.05 10.4 39.15 9.95 L39.4 9.55 Q39.7 10.55 38.9 11.15 L39.0 11.15 39.2 11.1 39.3 11.0 39.5 10.9 39.75 10.35 39.8 10.05 39.75 10.5 Q39.95 9.55 40.15 9.65 L40.35 8.0 40.4 8.0 40.95 7.85 43.25 7.65 45.5 7.65 M50.35 9.05 Q51.2 8.75 49.4 11.7 L48.3 13.6 48.2 13.75 47.5 15.05 47.05 16.2 Q46.5 17.45 46.45 17.85 L45.65 19.95 45.25 20.95 45.1 20.9 45.05 20.9 44.9 20.75 44.8 20.75 Q45.65 18.85 45.5 17.25 45.2 14.25 46.7 13.0 L48.6 11.35 50.35 9.05 M34.45 5.4 Q33.15 2.8 31.55 0.95 L32.65 1.8 34.2 3.3 34.8 4.05 35.6 5.55 36.2 6.4 36.55 6.4 36.45 6.45 36.25 6.45 35.7 6.4 Q35.25 6.5 35.1 7.3 L35.05 7.3 34.8 8.15 34.8 8.25 34.65 8.5 Q34.2 9.7 34.65 9.7 L34.3 9.7 34.5 9.75 34.6 9.85 34.45 9.85 34.3 9.9 34.2 9.95 Q31.0 11.55 25.1 11.55 L23.95 11.5 24.4 10.7 25.4 8.45 26.05 9.1 26.6 9.25 Q31.4 10.3 34.3 7.65 L34.3 7.6 31.9 7.25 Q29.25 6.05 29.9 5.2 29.9 4.25 31.5 4.25 34.2 5.45 34.4 6.65 L34.5 6.9 34.5 6.8 34.5 6.65 34.8 6.4 34.45 5.4 M36.45 6.45 L36.4 6.5 36.25 6.6 36.45 6.45" fill="#1da8d7" fill-rule="evenodd" stroke="none"/>
      <path d="M44.05 11.8 Q44.4 11.3 44.4 10.55 44.4 9.75 42.85 9.75 L40.5 9.65 40.75 8.9 Q43.85 7.9 47.25 8.1 L49.55 8.95 49.75 9.05 50.0 9.15 50.15 9.1 50.2 9.05 50.35 9.05 48.6 11.35 46.7 13.0 Q45.2 14.25 45.5 17.25 45.65 18.85 44.8 20.75 L44.4 20.5 Q44.4 19.35 45.0 18.3 L44.9 17.35 44.0 17.05 Q40.0 15.6 40.15 10.95 L40.8 11.5 Q42.05 12.4 43.15 12.4 43.65 12.4 44.05 11.8 M34.45 5.4 L34.8 6.4 34.5 6.65 34.5 6.8 34.5 6.9 34.4 6.65 Q34.2 5.45 31.5 4.25 29.9 4.25 29.9 5.2 29.25 6.05 31.9 7.25 L34.3 7.6 34.3 7.65 Q31.4 10.3 26.6 9.25 L26.05 9.1 25.4 8.45 24.4 10.7 23.95 11.5 23.6 11.4 24.45 9.1 Q25.1 7.2 26.2 6.65 27.2 6.05 27.5 5.25 27.85 4.4 27.7 -1.1 28.75 -1.3 31.55 0.95 33.15 2.8 34.45 5.4 M35.05 7.3 L35.1 7.3 Q35.25 6.5 35.7 6.4 L36.25 6.45 36.45 6.45 36.25 6.6 36.4 6.5 36.45 6.45 36.55 6.4 38.95 7.0 Q40.1 7.45 40.2 8.05 L40.4 7.8 40.35 8.0 40.15 9.65 Q39.95 9.55 39.75 10.5 L39.8 10.05 39.75 10.35 39.5 10.9 39.3 11.0 39.2 11.1 39.0 11.15 38.9 11.15 Q39.7 10.55 39.4 9.55 L39.15 9.95 Q38.05 10.4 36.9 9.7 35.8 8.95 35.45 8.0 L34.8 9.3 34.8 9.45 34.8 10.1 34.6 9.85 34.5 9.75 34.3 9.7 34.65 9.7 Q34.2 9.7 34.65 8.5 L34.8 8.25 34.8 8.15 35.05 7.3" fill="#4fceff" fill-rule="evenodd" stroke="none"/>
    </g>
  </defs>
</svg>
