<?xml version="1.0" encoding="UTF-8" standalone="no"?>
<svg xmlns:ffdec="https://www.free-decompiler.com/flash" xmlns:xlink="http://www.w3.org/1999/xlink" ffdec:objectType="frame" height="39.35px" width="63.15px" xmlns="http://www.w3.org/2000/svg">
  <g transform="matrix(1.0, 0.0, 0.0, 1.0, 3.95, 12.65)">
    <use ffdec:characterId="1" height="39.35" transform="matrix(1.0, 0.0, 0.0, 1.0, -3.95, -12.65)" width="63.15" xlink:href="#shape0"/>
  </g>
  <defs>
    <g id="shape0" transform="matrix(1.0, 0.0, 0.0, 1.0, 3.95, 12.65)">
      <path d="M24.2 20.3 L23.75 19.4 27.85 18.05 Q31.05 16.9 34.15 15.4 L34.55 15.4 34.85 15.65 34.9 16.0 34.65 16.3 28.45 18.95 24.2 20.3" fill="url(#gradient0)" fill-rule="evenodd" stroke="none"/>
      <path d="M23.75 19.4 L24.2 20.3 16.9 22.1 Q8.9 23.6 0.05 23.6 L-3.45 23.5 -3.8 23.35 -3.95 23.0 -3.8 22.65 -3.4 22.5 0.05 22.6 Q8.55 22.6 16.2 21.2 L23.75 19.4" fill="url(#gradient1)" fill-rule="evenodd" stroke="none"/>
      <path d="M49.4 25.8 L46.55 26.1 39.3 25.4 Q34.85 24.65 31.2 22.45 27.5 20.25 25.9 16.55 24.25 12.85 24.25 8.9 L21.3 6.0 Q20.0 4.65 19.1 1.65 18.1 -1.35 18.6 -5.5 L18.8 -5.9 19.3 -6.35 22.6 -6.35 Q26.25 -5.85 29.05 -4.85 L31.45 -3.7 33.15 -2.9 35.1 -3.9 Q36.6 -4.65 38.85 -4.75 L42.2 -4.75 43.3 -4.55 Q44.05 -6.95 46.5 -9.8 48.9 -12.65 49.8 -12.65 50.7 -12.65 51.2 -11.8 53.25 -7.85 53.3 -5.15 L53.3 -1.25 Q55.6 1.0 57.1 4.05 58.6 7.05 58.9 8.85 L59.2 11.2 59.2 13.55 Q59.15 15.3 58.75 16.6 L57.5 19.3 54.4 22.85 Q52.15 25.0 49.4 25.8 M53.15 14.85 L53.15 14.8 53.1 14.8 53.15 14.85" fill="#ffffff" fill-rule="evenodd" stroke="none"/>
      <path d="M53.15 14.85 L53.1 14.8 53.15 14.8 53.15 14.85" fill="#d9880b" fill-rule="evenodd" stroke="none"/>
      <path d="M49.4 25.8 L49.35 25.85 47.25 26.4 42.3 26.7 36.25 26.1 Q33.55 25.5 31.65 24.65 L28.6 23.15 Q27.5 22.5 26.4 21.1 25.25 19.65 24.65 18.15 L23.5 14.6 23.55 14.5 23.35 13.9 23.3 13.7 23.25 13.35 22.6 11.0 21.85 8.45 20.95 7.15 20.0 5.6 Q19.7 5.25 18.95 2.9 18.1 0.55 17.85 -2.5 17.65 -5.55 17.95 -5.9 18.25 -6.3 19.0 -6.35 L19.3 -6.35 18.8 -5.9 18.6 -5.5 Q18.1 -1.35 19.1 1.65 20.0 4.65 21.3 6.0 L24.25 8.9 Q24.25 12.85 25.9 16.55 27.5 20.25 31.2 22.45 34.85 24.65 39.3 25.4 L46.55 26.1 49.4 25.8 M49.35 25.85 L49.65 25.75 49.35 25.85" fill="#dbdbdb" fill-rule="evenodd" stroke="none"/>
      <path d="M19.45 -4.8 L20.2 -4.9 Q22.5 -5.25 26.2 -4.05 29.8 -2.95 31.05 -1.6 L28.55 0.3 Q25.3 3.15 24.1 6.65 L22.15 5.35 Q20.8 4.2 19.85 0.9 19.0 -2.15 19.45 -4.8" fill="url(#gradient2)" fill-rule="evenodd" stroke="none"/>
      <path d="M49.15 -3.15 L45.0 -4.2 46.7 -7.65 Q47.75 -9.45 49.0 -10.65 50.2 -11.9 50.25 -11.3 50.75 -11.35 51.5 -8.1 52.25 -4.9 52.05 -1.85 51.8 -2.25 49.15 -3.15" fill="url(#gradient3)" fill-rule="evenodd" stroke="none"/>
      <path d="M31.05 19.7 Q31.05 18.3 34.35 17.5 37.65 16.7 37.65 18.25 37.65 19.05 36.5 19.7 35.1 20.45 32.85 20.45 31.05 20.45 31.05 19.7" fill="url(#gradient4)" fill-rule="evenodd" stroke="none"/>
      <path d="M58.95 13.65 Q58.75 14.45 58.05 14.95 L55.9 15.1 Q54.9 14.85 55.0 14.15 55.2 12.75 57.2 12.45 59.15 12.15 58.95 13.65" fill="url(#gradient5)" fill-rule="evenodd" stroke="none"/>
      <path d="M53.55 5.75 Q54.8 6.7 55.1 8.2 55.4 9.55 54.7 10.75 53.95 11.9 52.65 12.1 51.25 12.2 50.2 11.35 48.85 10.3 48.6 8.95 48.25 7.45 49.0 6.3 49.75 5.1 51.1 4.95 52.4 4.8 53.55 5.75 M54.25 8.3 Q54.05 7.3 53.2 6.7 52.35 6.05 51.5 6.15 50.55 6.25 50.05 7.05 49.5 7.8 49.75 8.8 49.95 9.7 50.85 10.4 51.6 10.95 52.55 10.9 53.45 10.75 54.0 10.0 54.45 9.2 54.25 8.3 M53.05 7.4 L53.15 7.7 52.7 8.05 52.3 7.85 52.3 7.75 52.6 7.9 53.05 7.55 53.05 7.4" fill="url(#gradient6)" fill-rule="evenodd" stroke="none"/>
      <path d="M54.25 8.3 Q54.45 9.2 54.0 10.0 53.45 10.75 52.55 10.9 51.6 10.95 50.85 10.4 49.95 9.7 49.75 8.8 49.5 7.8 50.05 7.05 50.55 6.25 51.5 6.15 52.35 6.05 53.2 6.7 54.05 7.3 54.25 8.3 M53.05 7.4 L52.75 7.3 52.45 7.3 52.3 7.4 52.3 7.5 52.3 7.75 52.3 7.85 52.7 8.05 53.15 7.7 53.05 7.4 M37.6 10.85 Q37.55 10.45 37.1 10.5 L36.75 10.8 36.75 11.0 37.2 11.25 37.6 11.0 37.6 10.85 M39.35 11.65 Q39.45 12.7 38.75 13.55 L38.2 14.1 Q37.6 14.55 36.8 14.7 35.65 14.85 34.75 14.2 L34.6 14.1 Q33.8 13.5 33.7 12.55 33.6 11.45 34.3 10.55 35.05 9.65 36.25 9.5 37.45 9.3 38.3 9.9 39.25 10.55 39.35 11.65" fill="#000000" fill-rule="evenodd" stroke="none"/>
      <path d="M52.3 7.75 L52.3 7.5 52.3 7.4 52.45 7.3 52.75 7.3 53.05 7.4 53.05 7.55 52.6 7.9 52.3 7.75 M37.6 10.85 L37.6 11.0 37.2 11.25 36.75 11.0 36.75 10.8 37.1 10.5 Q37.55 10.45 37.6 10.85" fill="#ffffff" fill-rule="evenodd" stroke="none"/>
      <path d="M48.05 17.5 L47.0 17.5 46.35 17.35 46.15 17.15 46.05 16.95 Q46.0 16.45 46.4 15.9 46.9 15.15 47.75 15.0 L48.9 15.1 Q49.45 15.35 49.6 15.5 L49.75 15.95 49.6 16.75 48.85 17.25 48.35 17.4 48.2 17.45 48.05 17.5" fill="url(#gradient7)" fill-rule="evenodd" stroke="none"/>
      <path d="M48.85 17.25 L49.2 17.9 Q49.9 18.95 51.05 19.0 52.15 19.05 52.35 18.35 L52.6 17.3 Q52.9 17.3 52.95 17.8 L52.6 18.75 Q52.1 19.45 51.05 19.45 49.95 19.5 49.15 18.55 L48.75 17.95 48.65 18.0 48.6 17.85 48.55 17.65 48.55 18.7 48.1 19.95 Q47.35 21.15 45.85 21.1 44.35 21.1 43.75 20.7 43.05 20.25 42.95 20.0 L42.9 19.85 42.95 19.7 42.95 19.65 Q42.9 19.45 43.25 19.65 L43.3 19.65 43.3 19.8 43.9 20.25 Q44.45 20.8 45.75 20.7 47.15 20.65 47.85 19.55 L48.1 18.1 48.05 17.5 48.2 17.45 48.35 17.4 48.85 17.25" fill="#c44b00" fill-rule="evenodd" stroke="none"/>
      <path d="M39.35 11.65 Q39.25 10.55 38.3 9.9 37.45 9.3 36.25 9.5 35.05 9.65 34.3 10.55 33.6 11.45 33.7 12.55 33.8 13.5 34.6 14.1 L34.75 14.2 Q35.65 14.85 36.8 14.7 37.6 14.55 38.2 14.1 L38.75 13.55 Q39.45 12.7 39.35 11.65 M39.0 8.95 Q40.45 9.95 40.6 11.6 40.75 12.95 39.95 14.1 L39.7 14.45 Q38.6 15.85 36.8 16.15 35.05 16.4 33.75 15.4 32.85 14.9 32.5 14.1 32.2 13.6 32.15 12.95 32.0 11.25 33.0 9.95 34.15 8.6 35.95 8.4 37.75 8.05 39.0 8.95" fill="url(#gradient8)" fill-rule="evenodd" stroke="none"/>
    </g>
    <linearGradient gradientTransform="matrix(0.0237, 0.0, 0.0, 0.005, 15.45, 19.45)" gradientUnits="userSpaceOnUse" id="gradient0" spreadMethod="pad" x1="-819.2" x2="819.2">
      <stop offset="0.0" stop-color="#8c4400" stop-opacity="0.9882353"/>
      <stop offset="1.0" stop-color="#511400" stop-opacity="0.9882353"/>
    </linearGradient>
    <linearGradient gradientTransform="matrix(0.0237, 0.0, 0.0, 0.005, 15.45, 19.45)" gradientUnits="userSpaceOnUse" id="gradient1" spreadMethod="pad" x1="-819.2" x2="819.2">
      <stop offset="0.058823529411764705" stop-color="#d08135" stop-opacity="0.9882353"/>
      <stop offset="1.0" stop-color="#6d1b00" stop-opacity="0.9882353"/>
    </linearGradient>
    <radialGradient cx="0" cy="0" gradientTransform="matrix(0.0104, 0.0, -4.0E-4, 0.0104, 25.35, 0.85)" gradientUnits="userSpaceOnUse" id="gradient2" r="819.2" spreadMethod="pad">
      <stop offset="0.0" stop-color="#ff7777"/>
      <stop offset="0.49411764705882355" stop-color="#ffbfbf"/>
      <stop offset="1.0" stop-color="#d7d7d7"/>
    </radialGradient>
    <radialGradient cx="0" cy="0" gradientTransform="matrix(0.0073, 0.0, -3.0E-4, 0.0073, 48.65, -6.5)" gradientUnits="userSpaceOnUse" id="gradient3" r="819.2" spreadMethod="pad">
      <stop offset="0.0" stop-color="#ff7777"/>
      <stop offset="0.49411764705882355" stop-color="#ffbfbf"/>
      <stop offset="1.0" stop-color="#d7d7d7"/>
    </radialGradient>
    <radialGradient cx="0" cy="0" gradientTransform="matrix(0.0, 0.0, 0.0, 0.0, 0.0, 0.0)" gradientUnits="userSpaceOnUse" id="gradient4" r="819.2" spreadMethod="pad">
      <stop offset="0.0" stop-color="#ff7777" stop-opacity="0.4"/>
      <stop offset="0.5529411764705883" stop-color="#ffbfbf" stop-opacity="0.29803923"/>
    </radialGradient>
    <radialGradient cx="0" cy="0" gradientTransform="matrix(0.0, 0.0, 0.0, 0.0, 41.1, -9.65)" gradientUnits="userSpaceOnUse" id="gradient5" r="819.2" spreadMethod="pad">
      <stop offset="0.0" stop-color="#ff7777" stop-opacity="0.4"/>
      <stop offset="0.5529411764705883" stop-color="#ffbfbf" stop-opacity="0.29803923"/>
    </radialGradient>
    <radialGradient cx="0" cy="0" gradientTransform="matrix(0.0044, 0.0, 0.0, 0.0046, 51.85, 8.5)" gradientUnits="userSpaceOnUse" id="gradient6" r="819.2" spreadMethod="pad">
      <stop offset="0.4392156862745098" stop-color="#ffed98"/>
      <stop offset="1.0" stop-color="#ffb931"/>
    </radialGradient>
    <radialGradient cx="0" cy="0" gradientTransform="matrix(0.0028, -6.0E-4, 5.0E-4, 0.0028, 47.85, 16.25)" gradientUnits="userSpaceOnUse" id="gradient7" r="819.2" spreadMethod="pad">
      <stop offset="0.0" stop-color="#ff7777"/>
      <stop offset="0.6549019607843137" stop-color="#ffbfbf"/>
    </radialGradient>
    <radialGradient cx="0" cy="0" gradientTransform="matrix(0.0054, 0.0, 0.0, 0.0054, 36.35, 12.25)" gradientUnits="userSpaceOnUse" id="gradient8" r="819.2" spreadMethod="pad">
      <stop offset="0.4392156862745098" stop-color="#98ebff"/>
      <stop offset="1.0" stop-color="#4eaec6"/>
    </radialGradient>
  </defs>
</svg>
