<svg xmlns="http://www.w3.org/2000/svg" xmlns:ffdec="https://www.free-decompiler.com/flash" xmlns:xlink="http://www.w3.org/1999/xlink" ffdec:objectType="frame" width="77.1" height="68.85"><use ffdec:characterId="1" xlink:href="#a" width="77.1" height="68.85"/><defs><radialGradient id="b" cx="0" cy="0" r="819.2" gradientTransform="translate(.7 -7.7)scale(.0002)" gradientUnits="userSpaceOnUse" spreadMethod="pad"><stop offset=".576" stop-color="#d20000"/><stop offset="1" stop-color="#720000"/></radialGradient><radialGradient id="c" cx="0" cy="0" r="819.2" gradientTransform="translate(45.05 -7.7)scale(.0002)" gradientUnits="userSpaceOnUse" spreadMethod="pad"><stop offset=".576" stop-color="#d20000"/><stop offset="1" stop-color="#720000"/></radialGradient><radialGradient id="d" cx="0" cy="0" r="819.2" gradientTransform="translate(22.9 17.3)scale(.0512)" gradientUnits="userSpaceOnUse" spreadMethod="pad"><stop offset=".576" stop-color="#d22e2e"/><stop offset="1" stop-color="#720000"/></radialGradient><radialGradient id="g" cx="0" cy="0" r="819.2" gradientTransform="translate(7.6 22.85)scale(.0069)" gradientUnits="userSpaceOnUse" spreadMethod="pad"><stop offset=".431" stop-color="#a17a0a"/><stop offset="1" stop-color="#f76f6f"/></radialGradient><radialGradient id="j" cx="0" cy="0" r="819.2" gradientTransform="translate(37.8 22.85)scale(.0065)" gradientUnits="userSpaceOnUse" spreadMethod="pad"><stop offset=".431" stop-color="#a17a0a"/><stop offset="1" stop-color="#f76f6f"/></radialGradient><radialGradient id="k" cx="0" cy="0" r="819.2" gradientTransform="translate(38.55 21.45)scale(.003)" gradientUnits="userSpaceOnUse" spreadMethod="pad"><stop offset=".431" stop-color="#fff"/><stop offset="1"/></radialGradient><radialGradient id="l" cx="0" cy="0" r="819.2" gradientTransform="translate(8.65 21.45)scale(.003)" gradientUnits="userSpaceOnUse" spreadMethod="pad"><stop offset=".431" stop-color="#fff"/><stop offset="1"/></radialGradient><radialGradient id="m" cx="0" cy="0" r="819.2" gradientTransform="translate(22.85 29.25)scale(.0045)" gradientUnits="userSpaceOnUse" spreadMethod="pad"><stop offset=".459" stop-color="#661e1e"/><stop offset="1" stop-color="#510909"/></radialGradient><linearGradient id="e" x1="-819.2" x2="819.2" gradientTransform="matrix(-.0124 .0003 -.0003 -.0121 46.4 -2.15)" gradientUnits="userSpaceOnUse" spreadMethod="pad"><stop offset=".227" stop-color="#3f2222"/><stop offset="1" stop-color="#720000"/></linearGradient><linearGradient id="f" x1="-819.2" x2="819.2" gradientTransform="matrix(.0124 0 0 .0121 -.8 -2)" gradientUnits="userSpaceOnUse" spreadMethod="pad"><stop offset=".227" stop-color="#3f2222"/><stop offset="1" stop-color="#720000"/></linearGradient><linearGradient id="h" x1="-819.2" x2="819.2" gradientTransform="rotate(-90 16.5 8.9)scale(.0056)" gradientUnits="userSpaceOnUse" spreadMethod="pad"><stop offset=".157" stop-color="#38342a"/><stop offset="1"/></linearGradient><linearGradient id="i" x1="-819.2" x2="819.2" gradientTransform="matrix(-.0002 -.0042 .0056 -.0003 37.45 25.5)" gradientUnits="userSpaceOnUse" spreadMethod="pad"><stop offset=".157" stop-color="#38342a"/><stop offset="1"/></linearGradient><g id="a" fill-rule="evenodd"><path fill="url(#b)" d="m.8-7.7-.25.05.3-.05z" transform="translate(15.65 17.15)"/><path fill="url(#c)" d="m44.9-7.7-.05-.05.4.1z" transform="translate(15.65 17.15)"/><path fill="url(#d)" d="M.65-17.15q.95 0 1.95.95L5-13.55q4.45 4.35 12.65 8.5l5.2-.25h.1l5.15.25q8.2-4.15 12.7-8.5l2.4-2.65q.9-.95 2-.95 2.55 0 4.95 5.45 2.9 6.65 2.9 17.55 0 2.45-.35 4.15l2.15 5.3q4.55 14.95-.15 23-3.55 5.55-7.95 8.15-4.3 2.55-7.1 3.3l-7.3 1.5-9.5.45-9.4-.45q-4.6-.7-7.4-1.5Q3.35 49-1 46.45q-4.35-2.6-7.9-8.15-4.8-8.05-.15-23l2.1-5.3-.3-4.15q0-10.9 2.9-17.55 2.35-5.45 5-5.45M7.1-7.3l-.5-.4q-3.05-2.85-3.7-3.15l-2.25-1.4-.75.05q-1.2.65-2.25 4.65-1.45 5.25-1.9 10V7.4l.15.2 1.85-1.55.95-.75 1.2-.75Q1.55 3.25 5 1.8l1.6-.7 4.9-1.65.8-.15-.2-.3q.75 0 .25.25L16-1.7q-1.4-.55-2.75-1.2-3.6-1.9-6.15-4.4M34.3-.55q3 .8 6.5 2.35 3.35 1.45 5.1 2.75l1.15.75.9.75q1 .6 1.85 1.55l.2-.2V2.45q-.4-4.75-1.85-10-1.4-5.25-2.95-4.7l-2.4 1.4-4.1 3.55q-3.5 3.4-9 5.6l3.65.95Q33-1 33.65-1l-.25.3z" transform="translate(15.65 17.15)"/><path fill="url(#e)" d="m34.3-.55-.9-.15.25-.3q-.65 0-.3.25L29.7-1.7q5.5-2.2 9-5.6l4.1-3.55 2.4-1.4q1.55-.55 2.95 4.7Q49.6-2.3 50 2.45V7.4l-.2.2q-.85-.95-1.85-1.55l-.9-.75-1.15-.75q-1.75-1.3-5.1-2.75Q37.3.25 34.3-.55M44.9-7.7l.35.05-.4-.1z" transform="translate(15.65 17.15)"/><path fill="url(#f)" d="M.8-7.7h.05l-.3.05zm6.3.4q2.55 2.5 6.15 4.4 1.35.65 2.75 1.2l-3.65.95q.5-.25-.25-.25l.2.3-.8.15L6.6 1.1 5 1.8Q1.55 3.25-.1 4.55l-1.2.75-.95.75L-4.1 7.6l-.15-.2V2.45q.45-4.75 1.9-10 1.05-4 2.25-4.65l.75-.05 2.25 1.4q.65.3 3.7 3.15z" transform="translate(15.65 17.15)"/><path fill="#330d00" fill-opacity=".2" d="m39.3 65.8 9.55.4q3.5.2-3 1l-10.8.45-8.3-.9q-4-.55-9.2-3.1-5.2-2.6-6.95-5.35-1.7-2.7-2.85-5.4-1.25-2.6-.9-7.7.4-5.1 1.5-9.05-1.3 10.7 5.35 17.65 6.6 6.95 13.05 9.4 6.5 2.45 12.55 2.6"/><path fill="#6d1515" d="m68.55 52.5 2.1.65-.25 1.3-.15.2-.65-.1q-.25-.35-1.8-.65l-4.6-.8-4.15-.2-2.85.15.15-.7 6.15-.25zm2.3-4.15-2.05-.3-5.05.2-4.4.7-3 .7v-.7l6.4-1.55q3.05-.85 6.55-.85l2.35.2v1.3l-.1.3zm-10.4 8.5q3.85.65 5.7 3.5l-.6.7q-2.15-1.75-3.4-2.4-2.4-1.25-5.95-1.85.05-.3.2-.45zm-39.65-3.8-2.85-.15-4.15.2-4.6.8q-1.55.3-1.8.65l-.65.1-.15-.2-.25-1.3 2.1-.65 6.05-.4 6.15.25zm-.15-3.4-3-.7-4.4-.7-5.05-.2-2.05.3h-.7l-.1-.3v-1.3l2.35-.2q3.5 0 6.55.85l6.4 1.55zm-.05 6.7.2.45q-3.55.6-5.95 1.85-1.25.65-3.4 2.4l-.6-.7q1.85-2.85 5.7-3.5z"/><path fill="#870000" fill-opacity=".298" d="m24.25 10.85 4.65 3.4.5.3 3.4 1.25q-1.2-.25-1.75 0l1.3.05Q21.25 19.5 15.6 22.6q-5.6 3.15-5.8 3.6-.3.5-.35-1.9v-3.15q0-5.25 1.15-10 1.6-6.25 4.45-6.25l.5.05L17.85 6l2.25 1.9 2.15 1.55zm6.8 4.95-1.15-.85 1 .8zm13.2.05 1.2-.05.25-.05 1-.8-1.25.85q-.45-.25-1.7 0l3.4-1.25.5-.3 4.65-3.4 1.95-1.4 2.2-1.55 2.2-1.9q1.35-.85 2.4-1.05l.5-.05q2.8 0 4.4 6.25 1.2 4.75 1.2 10v3.15q-.15 2.4-.35 1.9l-5.85-3.6q-5.65-3.1-16.7-6.75"/><path fill="#e73d3d" d="M54.35 9.1q-.2.75-3.65 3.35-3.5 2.5-4.75 2.7l-1.7-.2q-.5-.35-.5-.85 0-1.1 1.5-2.65l4-1.15zM38.5 17h.1l3.3.15 2.7.45 1.45.4q3.95 1.05 6.8 2.75 3.75 2.15 3.75 4.1l-.1.7q-1.05 2.3-8.85 3.95l-9.05 1.45h-.1l-9.1-1.45q-7.85-1.65-8.75-3.95l-.2-.7q0-1.15 1.25-2.3l2.5-1.8q2.9-1.7 6.8-2.75l1.45-.4 2.7-.45.7-.05z"/><path fill="#510d3d" d="M29.8 51.3q-.4-.35-.45-.85l.05-.05.25-.2q3.3 3.4 7.2.75l1.25-1.3.1-.1-.4-1.7.15-.2.25-.2q.25 0 .3.35l-.05.6.1.2.05-.2-.05-.6q.05-.35.3-.35l.3.2.1.2-.4 1.7.1.1q.45.85 1.2 1.3 4 2.65 7.35-.75l.2.2.05.05-.45.85q-2.15 2.05-4.95 1.55-2.75-.45-3.8-1.8-1.15 1.35-3.8 1.8-2.85.5-4.95-1.55"/><path fill="url(#g)" d="M11.95 27.1q-1.8 1.85-4.35 1.85T3.25 27.1q-1.8-1.7-1.8-4.25t1.8-4.4q1.8-1.8 4.35-1.8t4.35 1.8q1.8 1.85 1.8 4.4t-1.8 4.25" transform="translate(15.65 17.15)"/><path fill="url(#h)" d="M3.2 22.55q0-1.9 1.25-3.3Q5.85 18 7.7 18q1.95 0 3.25 1.25 1.35 1.4 1.35 3.3t-1.35 3.2Q9.65 27.1 7.7 27.1q-1.85 0-3.25-1.35-1.25-1.3-1.25-3.2" transform="translate(15.65 17.15)"/><path fill="#e0c5ca" d="M57.9 32.35q-.55.2-.7-.3l4-6.6q.55-.1.65.35zm-1-9.6-2.4 7.1q-.5.3-.8-.15l2.45-7.15q.55-.25.75.2m-6.4-1.7q.4-.4.75 0l-.4 7.5-.85-.05zm6.05 28.15q0-.15-.25-.15l.25-.65q9.4-5.6 19.7-3.85.9.35.8.75l-.6.55q-9.8-1.7-19.9 3.35m-.15 7.15-.2-.25q.3-.2.55-.45 10.95-.75 19.35 5.4.65.75.4 1.1t-.85.2q-7.9-5.95-19.25-6M76.35 54q-9.15-3.8-20.1-1.05l-.25-.2.4-.6q10.4-3.4 20.05.55.8.55.65.95-.15.35-.75.35M26.9 28.5l-.85.05-.4-7.5q.35-.4.75 0zm-7.2 3.55q-.15.5-.7.3l-3.95-6.55q.1-.45.65-.35zm.3-9.3q.2-.45.75-.2l2.45 7.15q-.3.45-.8.15zm.7 33.6q-11.35.05-19.25 6-.6.15-.85-.2t.4-1.1q8.4-6.15 19.35-5.4l.55.45zm.4-3.6q-.25.05-.25.2Q9.9 50.2.75 54q-.6 0-.75-.35-.15-.4.65-.95 9.65-3.95 20.05-.55zm-.3-3.7q-.25 0-.25.15-10.1-5.05-19.9-3.35l-.6-.55q-.1-.4.8-.75 10.3-1.75 19.7 3.85z"/><path fill="url(#i)" d="M42.2 22.55q0 1.9-1.3 3.2-1.35 1.35-3.25 1.35t-3.25-1.35q-1.35-1.3-1.35-3.2t1.35-3.3Q35.75 18 37.65 18t3.25 1.25q1.3 1.4 1.3 3.3" transform="translate(15.65 17.15)"/><path fill="url(#j)" d="M43.95 22.85q0 2.55-1.8 4.25-1.85 1.85-4.35 1.85-2.55 0-4.35-1.85-1.8-1.7-1.8-4.25t1.8-4.4q1.8-1.8 4.35-1.8 2.5 0 4.35 1.8 1.8 1.85 1.8 4.4m-1.75-.3q0-1.9-1.3-3.3Q39.55 18 37.65 18t-3.25 1.25q-1.35 1.4-1.35 3.3t1.35 3.2q1.35 1.35 3.25 1.35t3.25-1.35q1.3-1.3 1.3-3.2" transform="translate(15.65 17.15)"/><path fill="url(#k)" d="M41.7 21.45q0 1.3-.95 2.25-.95 1-2.2 1-1.35 0-2.25-1-1-.95-1-2.25t1-2.25q.9-.9 2.25-.9 1.25 0 2.2.9.95.95.95 2.25" transform="translate(15.65 17.15)"/><path fill="url(#l)" d="M10.95 19.2q.9.95.9 2.25t-.9 2.25q-1 1-2.3 1t-2.2-1q-1-.95-1-2.25t1-2.25q.9-.9 2.2-.9t2.3.9" transform="translate(15.65 17.15)"/><path fill="url(#m)" d="M19.25 29.4q0-.5.25-.8l.75-.9.1-.05.15-.1.2-.1 2.25-.95 2.45 1.2.75.9.15.4.1.25v.2q0 1-.95 1.7l-.15.1q-.75.55-1.7.65l-.6.05h-.35L22 31.9q-.95-.1-1.65-.65l-.15-.1q-.95-.7-.95-1.7z" transform="translate(15.65 17.15)"/></g></defs></svg>