<svg xmlns="http://www.w3.org/2000/svg" xmlns:ffdec="https://www.free-decompiler.com/flash" xmlns:xlink="http://www.w3.org/1999/xlink" ffdec:objectType="frame" width="90.55" height="24.75"><use ffdec:characterId="1" xlink:href="#a" width="90.55" height="24.75"/><defs><g id="a" fill-rule="evenodd"><path fill="#939" d="m26.45 1.1-1.4 1.85q-2.45 3.5-2.6 5.9Q22.2 12.4 27 13.4l4.25.45 7.2-.75q-3.1 1.8-4.6 5.45l-6.15-.85-.2.05q-2.1.45-4.3 1.95l-2.7 2.05q1.05-.95.9-2.6l-.05-.55q-.4-1.35-2.25-1.55l-1.35.1q-1.4.3-2.85 1.6l-3.25 3.2-1.15 1.2q.8-3.3.65-5.7l-.4-1.8q-1.1.2-2.5 1.15-1.7 1.05-3.8 3.1l-4 4.35-.45.5q5-12.85 16.85-20Q22.7 1.25 27.3 0zM63.25 0q4.6 1.25 10.5 4.75 11.8 7.15 16.8 20l-.4-.5-4.05-4.35q-2.1-2.05-3.8-3.1-1.4-.95-2.5-1.15l-.35 1.8q-.15 2.4.6 5.7l-1.15-1.2-3.25-3.2q-1.45-1.3-2.8-1.6l-1.4-.1q-1.8.2-2.2 1.55l-.1.55q-.1 1.65.95 2.6-1.5-1.25-2.75-2.05-2.15-1.5-4.25-1.95l-.2-.05-6.2.85q-1.5-3.65-4.6-5.45l7.2.75 4.25-.45q4.85-1 4.55-4.55-.1-2.4-2.6-5.9L64.15 1.1z"/><path fill-opacity=".298" d="m77.2 13.75-1.85-3.5q4.35 2.55 6.95 6.55-1.4-.95-2.5-1.15l-.35 1.8q-.15 2.4.6 5.7l-1.15-1.2q-.35-4.7-1.7-8.2m-14.1 4-.2-.05-6.2.85q-1.5-3.65-4.6-5.45l7.2.75q2.05 1.4 3.5 3.45zm6.15.85-1.45-2.85-1.9-2.65q3.6 0 6.95 4.05l-1.4-.1q-1.8.2-2.2 1.55m-35.4-.05-6.15-.85-.2.05.25-.45q1.5-2.05 3.5-3.45l7.2-.75q-3.1 1.8-4.6 5.45m-11.1-2.8q-.8 1.35-1.4 2.85-.4-1.35-2.25-1.55l-1.35.1q3.35-4.05 6.9-4.05zm-9.4-2q-1.35 3.5-1.7 8.2l-1.15 1.2q.8-3.3.65-5.7l-.4-1.8q-1.1.2-2.5 1.15 2.6-4 6.95-6.55z"/><path fill="#fff" fill-opacity=".498" d="m27.3 0-.85 1.1Q12.6 6.15 4.5 17.45 1.95 21 .45 24.25l-.45.5q5-12.85 16.85-20Q22.7 1.25 27.3 0m35.95 0q4.6 1.25 10.5 4.75 11.8 7.15 16.8 20l-.4-.5Q88.6 21 86.1 17.45 78 6.15 64.15 1.1zm-45.2 10.9-2.9 2.2Q17.4 8.05 22 4.75q1.7-1.15 3.05-1.8-2.45 3.5-2.6 5.9-2.2.75-4.4 2.05m57.4 2.2q-1.1-1.05-2.95-2.2-2.15-1.3-4.4-2.05-.1-2.4-2.6-5.9l3.05 1.8q4.6 3.3 6.9 8.35"/></g></defs></svg>