<svg xmlns="http://www.w3.org/2000/svg" xmlns:ffdec="https://www.free-decompiler.com/flash" xmlns:xlink="http://www.w3.org/1999/xlink" ffdec:objectType="frame" width="47.25" height="30.3"><use ffdec:characterId="1" xlink:href="#a" width="47.25" height="30.3"/><defs><g id="a" fill-rule="evenodd"><path fill="#069" d="M6.7 28.5 5 28q-2.7-.75-3.5-1.8Q.3 25.15.2 23.85q-.05-1.3.95-3.6.95-2.25 3.05-5.5 1.7-2.9 3.4-4.75l3.5-3.25q1-.85 4-2.5l4.15-1.9q3.15-1.15 6.4-1.6l5.2-.6h.45l2.2.15.35.1.45.1 4.4.9 3.4 1.3q2.4 1.05 4 2.9 1.45 1.65 1 3.5l-1.15 2-1.05 1.1-1.55 1.3-.15.25q-2.75.4-5.65 1.35l-5 1.1-1.45.35 3.15-1.35q1.9-1 3.65-1.75 4.45-2.7 8.85-4.6-1.35-.8-3.65-.7l-5.15-.75q-3.05-.7-7.95.5-4.85 1.05-8.65 2.55-3.7 1.35-8.95 4.7-5.45 3.2-2.1 2.45L5.1 27l3.2-.9 2.05-.65q-2 1.4-3.65 3.05m38.7-13.4.1.05.05.05.55.15-2.4 2.7q-1.6 1.6-5.6 3.7-5.1 2.1-9.65 2.55l5.05-.65q3.95-.75 7.4-2.55 3.3-1.65 5.1-3.85.4-.65.4-1.5l.1.1q.25 1.3-1.75 3.2l-.2.35v-.05q-2.2 1.9-5.55 3.35-3.1 1.4-6.15 1.85l-6.2.5-4.45-.5q-1.55-.6-2.4-.75-.8-.1.15-.7l.95-.65h.15v.1q.95-.55 1.9-.9l1.5-.15.05-.05L28.55 20l.4-.85q2.3-.9 4.65-1.45l.35.25.8-.3.15-.15q.6-.3 1.15-.3l1-.05.25-.3.6-.05 1.85-.1 1.25-.3.8-.6v-.1l.6-.15.7-.15.65-.25z"/><path fill="#003b70" d="M6.7 28.5q1.65-1.65 3.65-3.05l-2.05.65-3.2.9 5.2-9.4q-3.35.75 2.1-2.45 5.25-3.35 8.95-4.7 3.8-1.5 8.65-2.55 4.9-1.2 7.95-.5l5.15.75q2.3-.1 3.65.7-4.4 1.9-8.85 4.6-1.75.75-3.65 1.75l-3.15 1.35 1.45-.35 5-1.1q2.9-.95 5.65-1.35l-.15.25q-.35.25-.35.55l2.05.2q.4.2.65.35l-1.65.05-.65.25-.7.15-.6.15v.1l-.8.6-1.25.3-1.85.1-.6.05-.25.3-1 .05q-.55 0-1.15.3l-.15.15-.8.3-.35-.25q-2.35.55-4.65 1.45l-.4.85-4.05 1.45-.05.05-1.5.15q-.95.35-1.9.9v-.1h-.15l-.95.65q-.95.6-.15.7.85.15 2.4.75l4.45.5 6.2-.5Q35.9 24.1 39 22.7q3.35-1.45 5.55-3.35v.05l.2-.35q2-1.9 1.75-3.2.6.7.35 1.7l-.7 1.15-.9 1.05-.75.65-1.3.9-.25.1q-2.7 1.6-5.3 2.45l-4.2 1.05-3.8.35q-2.15.35-5.05 0l-3.25-.5-4.1.15q-1.6.45-4.1 1.8-2.55 1.25-3.75 2.45-1.15 1.1-1.45.7l-.5-.6-.4-.2.35-.4z"/><path fill="#9ad0ff" d="m46.1 15.35.3.4q0 .85-.4 1.5-1.8 2.2-5.1 3.85-3.45 1.8-7.4 2.55l-5.05.65q4.55-.45 9.65-2.55 4-2.1 5.6-3.7z"/><path d="m10.55 15.9.75.9 1.05 1.6.9.85 3.15 2.3.8.25-.2.15-.15.15-.05.05q-1.6 1.4-3.8 2.25-2.2 1.15-4.3 2.85l-1.3 1.4-2.35-.7-.4-.1-1.55-1.6-.05-.05q-.7-1.45-.6-2.55l.05-.05.3-.85q.85-1.65 2.5-2.95l3-2.15 1.8-1.25zM34.1 7.15l.9-.1 3-.15 3.7.3q1.8.3 3.05 1 1 .55.95 1.45-.2 1.75-.95 2.5-.9.55-.9.65l.4.05-.85.65-.35.45-5.1 1.85q-.45-.15-1 0-2.75 1.15-5.6 1.2.2-.7.95-.7.5.15 1.35-1.95.85-2.05.9-4.1z"/><path fill="#313131" d="m4.65 27.85-.5-.15q-1.9-.6-2.8-1.55l-.75-1.1-.35-.9-.1-.5-.1-.2v-.75q0-1.3.5-2.85l.25-.2q.7-1.95 2.85-4.8l4.15-5.2.45-.25.2-.2.7-.8-.1 1.95.1.7.05.15q-.05 1.15.4 2.15l.95 2.55-.45.5-1.8 1.25-3 2.15q-1.65 1.3-2.5 2.95l-.3.85-.05.05q-.1 1.1.6 2.55l.05.05zM34.1 7.15q-.2-1.2-1.15-3.05-1.45-2.75-4-3.9l1.8-.05h.1l1.05-.1 1.5.05h1.05l2.5.55 3.35.8L43.25 3l.8.55 2.15 2.1.75 1.35q.4.95.15 2.1-.2.85-1.1 2l-1.1 1.1-.65.65-.4-.05q0-.1.9-.65.75-.75.95-2.5.05-.9-.95-1.45-1.25-.7-3.05-1L38 6.9l-3 .15z"/><path fill="#fff" d="m7.05 12.3 1.8-1.65.3.4-1.05.9-.95.9zm1.9 5.45v-.1l1.4-1.55.05-.05.15.05-.1.15.25.4-1.5 1.4zm3.3 3.4 1.3-1.3h.1l.25.15-1.25 1.45zm.05.7-.05.05q-.85.9-1.2 1.65l1 .65.2.1-.05.25-.2.1-.1-.1-1.05-.45q-.4.8-.1 1.7-.7.4-1.15.75.25-1.6.85-2.75-1.2-.85-2.05-1.15l-.35-.35-.5-.3-1.1-1.2Q5.4 21.85 4.9 22.9l-.25-.4 1.65-2.15-.4-1.05-.4-.5q-.05-.4-.2-.55l-.1-.55-.6-1.55-1.4 1.8-.1-.6 1.35-1.9-.2-1.45.05-.1.35-.3.2 1.4.45-.65 1.5-1.65-.05.5-1.5 2-.3.4.55 1.65.15.6.3.75.25.45.4.95.65-.75 1.4-1.2.2.4-1.5 1.45-.45.5 1 1.2.3.3.55.35 1.85 1.1 1-1.45.4-.3zM6.75 26.7H7.8l.1.15.2.1-.2.15-.15.1-.95-.1-.45-.1-1.85-.55q.35.95.9 1.5h-.35l-.4-.1-.1-.1-.5-1.45-.75-.4-.6-.55-.3-.25-.3-.35-.4-.65q-.45-.75-.5-1.6l-.1-.75-.4 1.15-.1 2.15-.2-.65.05-1.65q.05-.8.5-1.75L.8 19.65l.25-.9.2 1.45.7-1.35.75-1.05q.15.3.15.55v.3l-.65.95-.8 1.4.2 1.3.3 1 .35.65.1.25v.1l.6.7.85.65.05-1.35q-.15-.6.45-1.45l.3.45q-.45.95-.35 1.7l.1.85 1.95.55z"/><path fill="#fc3" d="m6.8 27.1.05.35.3.3.05-.05 1.4-.25-1.2 1.2-.3-.1-.3-.4L6.35 27z"/><path fill="#9a9a9a" d="m6.8 12.7-.3-1.4.4-.5.15 1.5.1.55.45 2.05.55-.45 1.05-1 .4.5-.45.2-.3.25-.8.85-.15.2.8 1.8.25.5.25.3 1.35 1.75 1.55-1.4.3.3-1.5 1.35 1.35 1.1.4.3 1.05.7.05.2v.2l-.05.05h-.2l-1.2-.75-.3-.25-1.35-1.15-1.9 1.8-.55-.35.55-.4 1.5-1.45-1.4-1.6-.2-.4-.5-.55-.7-1.7-1.8 2.05-.15-.6 1.75-1.95-.5-2.1zm1.6 9.95-.95 1.2-.4.45 2.4 1.3.1.1.05.15-.25.1-.15.05-2.25-1.25q-.35.65-.3 1.2l-.05-.05.15.8-.45-.3q-.3-.75.15-1.9l-1-.4H5.4l-.8-.8-.3-.45-.6-1-.3-.6-.05-.35-.8 1.55-.3 1.5-.35-.65q-.05-.55.3-1.25l.85-1.75.05-.05-.25-1.6v-.3q0-.25-.15-.55l-.2-1.25.3-.65.3 1.45.1.6.1.4.3 1.4.2-.35q.6-1 1.4-1.7l.1.55q-1.05.95-1.6 2.05l.1.8.3.4.55 1 .25.4.75.8 1 .35 1.4-1.75zm-6.3 2.1q.15 1.15.7 2.45l-.35-.2q-.85-1.4-.75-2.9z"/><path fill="#fff" d="m35.45 1.85 2.3.35-.9-1.65.6.15.85 1.6h.1l2.35.5.6.15 1.9.6.9.4-.35-.75.55.55.4.6.5.3.9.75.15.25.5.9L45.1 5l.6 2.05-.6-.25-.65-2.25-1.4-.55-1.4-.45-.65-.2-2.3-.55.75 2.1-.5-.1-.9-2.1-2.25-.4h-.55l-3.7-.35h-.2q-.15-.15-.05-.25l.05-.2h.2l3.35.25zM45.7 7.7v1.1l-.2 1.05 1 .6-.35.4-.7-.5-1.2 1.95-.3-.3L45 10.15l-2.05-.65-.5-.25-.85-.2-1.3-.3-.3 1.95h-.4l.1-2.05-1.8-.25-.5-.05q-1.6-.2-2.7 0l-.05-.05q-.15.05-.2-.05l-.1-.1.05-.2.15-.05 1.15-.15 1.6.05h.55l1.9.35L39.5 7l-.4-1.7.5.05.45 1.65.1 1.2 1.55.4.8.15.55.2 2.1.75.15-1.3-.1-1.05zm-1.75 4.95h-.15l-.1-.1-.05-.05-.05-.15zm-4.05-1.5v.1l-.6 2.1 1.4.1.1.1.1.2-.05.15-.15.05-1.4-.1q-.1.2-.05.6l.05-.25.15-.05.2-.05.1.15v.2l-.3.25-.3.35-.25-.05-.1-.1-.05-.4.05-.8-1.45-.05-.4-.05-2.05-.1-.1-.1-.15-.2.1-.15h.1l2.15.1h.4l.1.05 1.5.15q.05-.9.45-2.2h.45"/><path fill="#fc3" d="m37.35 13.65-.35 1.1-.1.1-.15.05-.15-.05-.05-.3.4-.95z"/><path fill="#9a9a9a" d="M40.75 2.8 40 1.3q.35.2.65.3l.7 1.35zm4.95 4.25 1.4 1.1.15.55q-.05.3-.25.1l-1.3-1.1-.5-.35-2.45-1.15.2 1.2.05 1.4.05.15-.55-.2v-1.6l-.3-1.25-2.6-.55-.5-.05-2-.25.65 1.85q-.1.45.1.9h-.55l-.15-.95L36.6 5l-3.1-.2-.15-.05-.05-.15.05-.15.15-.05 2.95.1-1.2-2.2h.55l1.1 2.3 2.05.2.5.1 2.55.55-.15-.45L41 3.35l.65.2.65 1.35.25.65L45.1 6.8zm-1.45 5.25.95 1.25v.1l-.2.1-.05.05-.2.1-.1-.1v-.15q-.25-.65-.7-1l-.35-.3q-.5-.4-1.3-.65l-.8 2.4-.2.15-.1.1-.1-.05-.15-.05V14l.95-2.45-1.5-.35-.5-.05h-.45l-1.6-.2-.35 2.25-.1-.05H37l.4-2.2-2.55.3-.2-.1-.1-.1.1-.25.1-.1 2.75-.2-.1-2.15.5.05v2.15l1.7.15h.4l.4.1 1.7.35.35-1.9.5.25-.4 1.8 1.4.7zM34.9 1.75 33.65.15l.6.05 1.2 1.65z"/><path fill-opacity=".412" d="m37.3 7.8-.1-.9.55.05q-.1.45.1.85l1.85.35L39.5 7h.55l.1 1.2 1.55.4.8.15v-1.6l.45.3L43 8.8v.15l2.1.75.15-1.3.45.4-.25 1.05.25.15-.15.4q-.05.05-.1-.05-.45 1-1.25 1.95l1 1.25-.6.1-.65-1-.15.05-.1-.15-.05-.05-.05-.15q-.5-.4-1.3-.65l-.85 2.4-.5.15v-.1L40.9 14l1-2.4-1.5-.4-.5-.05-.05.1-.55 2.1 1.4.1.1.1.1.2-.1.15-.15.05-1.4-.1-.05.6.1-.25.15-.05.2-.05.1.2-.05.2-.25.2-.55.3-.1-.1-.1-.4.1-.8-1.5-.05-.25 1.1-.1.1-.2.05-.1-.05-.05-.25.35-1-2.05-.1-.05-.1-.15-.15.1-.2h.1l2.15.1.35-2.15-2.5.3-.2-.15-.1-.1.05-.25.15-.1 2.65-.15v-2.2q-1.6-.2-2.75 0-.15-.7 1-.55zm5.65 1.7-.4 1.85 1.4.65L45 10.15zm-3 1.2.45.1 1.7.35.35-1.9-.85-.2-1.35-.25zm-.55.5.1-.05-1.65-.2-.35 2.25 1.5.15q0-.9.4-2.15m-1.5-2.8-.05 2.15 1.7.15.1-2.05zm-27.4 7.75-.05.15.25.35-1.55 1.4 1.4 1.8 1.55-1.45.3.35-1.55 1.4 1.4 1 1.3-1.25h.1l.25.15-1.3 1.45 1.05.65.1.2v.2l-.05.05h-.2l-1.2-.75-.05.05q-.85.9-1.2 1.65l1 .65.2.1-.05.25-.25.1-.05-.1-1.05-.45q-.4.85-.15 1.7l-1.1.75q.25-1.55.8-2.75-1.15-.85-2-1.15l-.95 1.2-.45.45 2.45 1.3.05.1.05.15-.2.1-.15.05-2.25-1.25q-.35.7-.3 1.2l-.05-.05.15.8 1.05.05.1.1.15.1-.15.15-.15.15-.95-.15v.35l.35.3.05-.05 1.4-.25-1.2 1.2-.3-.1-.35-.4-.4-1.1-1.85-.55.65 1.3-.5-.25-.15.05-.45-1.3-.8-.35-.5-.55-.3-.9.05-.1.45.6.85.65.05-1.35.05-.5.35-.95-.8-1.3.45-.25.75 1.2.35-.55 1.25-1.55-.35-1.05.25-.25.45.9.65-.7 1.35-1.25-.35-.45.4-.35.3.5v-.1l1.35-1.55zM8.85 18.5l-1.5 1.45-.5.5L7.9 21.6l.3.3.55-.35 1.45-1.4zM12 21.65q-.85-.6-1.35-1.2l-1.9 1.85 1.85 1.1 1-1.5zm-7.5 1.8q-.4.85-.25 1.55l.1.85 1.95.55q-.3-.75.15-1.9l-1.05-.4-.05.05-.65-.75-.1-.1zm.55-.45.6.7 1 .4L8 22.35 7.55 22l-1.1-1.2q-.9.75-1.3 1.55l-.3.55z"/><path fill="#fff" d="m10.25 16.45-.35-.6q-.55-.95-1-2.6-.55-1.7-.5-2.85l.05-1.25 1.3-1.35q-.8 2.5-.05 5 .65 2.15 1.25 3.15zm23.9-9.3-.05-.4L32.8 4Q31.5 1.6 28.9.2l1.15-.2.85.25 1.3 1.15 1.45 2.3 1.25 2.9.1.45-.8.05z"/><path fill="#9a9a9a" d="m10.95 15.95.05-.05q.5 1.05 1.9 2.5l2.05 1.7 1.3.6.95.3-1.15.65-.1-.2-.5-.15-1.95-1.15-1.55-1.4-.7-.8-1-1.5zm23.2-8.8.05-.05.8-.05.4 1.75.1 1-.1 2.2-.7 2.15-.25.4.3.7-1.45.95q-.85.25-1.9.8.15-.7.9-.7.55.1 1.45-2l.45-1.3.3-2.8z"/><path fill="#fc3" d="m12.45 15.1-.15-.2-.15-.15-.1-.3q-.85-1.8-.9-3.25l.05-.05q.2-1.85 1.5-2.5l2.95.05-.2-.15q1.7.8 2.85 2.6l.1.45.05.05-.15.05-2.15 1.2v-.3l-.7-.8-.75-.35h-.25q-.45.1-.35 1l.1 1 .3.4zm6.5-3.65-2.7-3.6-.15-.1-.25-.2-.05-.2.2-.2.9-.8q.85-.9 2.4-1.45 1.6-.6 3.15.35l.15.1.65.75-.55-2.65.05.05L25.1 3l2.7-.7 2.25-.45.95 3-.1.1-2 .35.7 2.55-.95.2-2.25.5-.65-2.4-2 .4q.15.8-.05 1.45l-.3.55.45-.05.9.35h.1l.15.05-3.4 1.25zM20.9 7.9l.1-.1-.4-.3-1.1.45.5.7q.7-.3.9-.75"/><path fill="#a17f19" d="m12.45 15.1 2.05-1.25.1.1.2.2q.65.45 1.15.35l.2-.1.05-.05.1-.3.05-.2-.05-.05-.05-.6-.1-.3 2.15-1.2.15-.05.25.55q.55 1.25.55 2.7-.05 1.75-1.35 2.45-1.35.6-3.15-.3-1.35-.5-2.3-1.95m6.5-3.65 2.65-1.3L25 8.9l.4.35.2.2v.05q.65.75.5 1.65l-.55 1.2-.8.9-1.9 1.35-1.5.5q-.45.05-.45.15l-.45-.95-1.3-2.4zm7.45-2.9 2.25-.5.95-.2.8 3 .3.85-.05.05-.6.1-1.95.55-.55.15zm-4.7 2.7.45.8.65-.6.1-.1-.05-.2-.05-.05h-.3z"/><path fill="#fff" d="m13.1 14.65-.05-.05-.25-.4q-.9-1.7-.85-3.15.15-1.35 1.05-1.8l2.2.05-.05.05q1.35.55 2.15 2.1l.35.55q-.6.3-1.05.7l-.1-.5-.75-1.1-.85-.5-1.05.05h-.1q-.55.3-.55 1.3-.05.8.5 1.75l.3.5zm6.15-3.3L16.8 7.4l.85-.7 2.1-1.05q1.05-.55 2.2.35t.85 1.95q-.35 1.1-.9 1.35l-.5.4.3-.2.8-.25h.85l.75.15.15.15-2 .5-.5.15-.95.45-.3.1zM26.9 8.8l-.95-3.4-2.35.45.3-.3L23.4 4l6.15-1.65.55 1.95-2.25.35-.25.15h-.1l1.3 3.5q-1 .05-1.9.5m-5.75-1.7q-.2-.6-.75-.55l-1.5.6-.25.15 1.3 2.15.3-.15q.85-.6 1-1.1t-.1-1.1"/><path fill="#9ba6d2" d="m17.65 12 .2.45q.35 1 .25 1.95.05 1.35-.9 1.9l-2.25-.15q-1.1-.35-1.85-1.5l.9-.45.05.05.5.5.6.15.7.05.75-.35.3-.75v-.65l-.3-.5q.45-.4 1.05-.7m6.6-2.45.15.05.4.25h-.1l.35 1.05q.65.3-.05.8l-1.35 1.1q-.6.6-1.5.95l-1.15.4-1.25-2.5q-.05-.2-.5-.3l1.25-.6-.05.05-.05.2.05.05.95 1.7.05.05h.2l.05.1q.85-.45 1.2-.9l.5-.6.15-.5-.05-.25-.1-.25-.05-.05-.25-.1H23l-.9-.05h-.35l.5-.15zM28.8 8.3l.6 2.65-1.4.55-1.1-2.7q.9-.45 1.9-.5"/><path fill="#313131" d="m12.75 14.9-.1-.1-.3-.35q-.9-1.85-.85-3.45.15-1.65 1.3-2.25l2.55.15q1.45.65 2.35 2.35l.25.4.05.25-.3.2-.2-.2-.2-.5q-.8-1.5-2.1-2.05l.05-.05-2.2-.1q-.9.5-1.05 1.85-.1 1.45.8 3.15l.25.4.1.1zm6.4-3.5-.1-.1-2.75-3.75-.1-.2.05-.15 1.1-.85q.9-.7 2.25-1.2l.05-.05q1.15-.5 2.55.5 1.2 1.05.9 2.25l-.35.85 1-.1.8.4-.55.3-.65-.1-.8.05-.85.25q-.15.15-.25.15l.25-.25.95-1.45Q23.2 6.85 22 6q-1.25-.9-2.3-.4l-2.1 1.1-.8.7 2.6 3.8.1.1zm-5.1 2.85-.15-.2-.2-.35q-.55-.95-.5-1.75 0-1 .6-1.3h.1l1.05-.05.8.5.75 1.1.1.2.1.2-.15.15-.1-.2-.25-.35q-.35-.8-1.05-1.15l-.05.05-.2-.1h-.1l-.75.05q-.35.25-.25.9l-.05.1q-.2.65.25 1.45l.05.1.3.2.1.1zm12.6-6-.7-2.65-2.3.45-.15-.15-.55-2.05v-.1l.1-.1.65-.15 5.75-1.25h.2l.1.2.55 1.75.05.05-.1.15-2.2.6.95 2.75-.5.05-1-3 .1-.1.3-.1 2.15-.4-.65-1.7-6 1.45.55 1.6 2.1-.25.9 2.9zm-5.7-.15.15-.7-.75-.35-1.25.5-.3.15.95 1.45.25-.25zm.4-1q.25.65 0 1.1L20.2 9.3l-.5.35-.05-.15-1.2-2.05.45-.3 1.5-.6q.6-.1.95.55"/><path d="m12.75 14.9.4-.2q.75 1.1 1.8 1.45l2.2.15q.95-.55.9-1.9.15-.85-.2-1.9l-.05-.05-.1-.35.3-.2.25.4v.05q.35 1.05.3 2.1-.1 1.7-1.1 2.25-1.1.7-2.6 0-1.3-.65-2.1-1.8m6.4-3.5.35-.1.25.35L21 14.1l1.2-.35q.85-.4 1.45-1l1.15-1.05q.45-.55.25-.8l-.35-1.05h.1l-.4-.25h-.1l-.15-.2-.15-.1.55-.3.1.1.25.2.4.45.35.85-.25 1.05-.6.8-.75.65q-.75.65-1.75 1l-1.45.4h-.1l-.05-.05-1.35-2.55zm-5.1 2.85.4-.35.05.1.05.05.55.4.05.05 1.05.05q.35-.25.4-.95v-.45l-.05-.1v-.3l.15-.15.15.45.05.15-.05.65-.25.75-.75.3-.7-.05-.6-.15-.45-.4zm12.6-6 .3-.05L28 11.5l1.4-.55-.9-3.15.5-.05 1.05 3.55-.1.1h-.2l-1.9.5-.1.1-.2-.15-.1-.1-.8-3.25-.05-.05zM21.05 11h-.1l.1.1-.05.05.7 1.15 1.1-.75.1-.1.25-.5-.25-.3h-.75l-.35.05zm-.65 0v-.1h-.1l.25-.25.2-.05 1-.4h.35l.15-.05.65.1h.2l.25.1.05.05.15.25v.25l-.1.5-.5.6-1.25.85-.05-.05h-.2l-.05-.05-.95-1.7z"/><path fill="#cd994b" d="m37.6 13.5 3.85-.8 3.65-.55h.1l.25.3-.15 1q-.2.55-.05 1.05l-.55.2v-1.95.1l-3.1.45-.85.1-.3.1q-.9-.3-2.85 0m4.15 1.7h-.25l.05-.7-.25-.35-.3-.3-.1-.1q-.2-.5.55.25l.05.05q.4.8.25 1.15m-.4.1-.15.15.15-.55v.4m-1.6.75-.7.15q-.4-.15-1.3 0l-1.15.15v-1.2q0-.65-.35-1.2l2.1-.35-1.05.35.7-.05q1.4 0 2 .35l.55.65-.05.6zm-3.65.45.3.05-.4.05-1.2.25q-1.65-1-.1-2.3l-7.8 2.35-.2-.2 7.7-2.5h.35l.65-.15q.6 1.25.6 2.55zm-20 7.2-2.45 1.5v.1q-.85-1.2-1.15-2.4-.05-.1.05-.05l1.6-1.1q3.55-2.05 8.05-3.6l-.05.2-2.05.85q-2.15.95-5.45 2.6 2.1.15 1.45 1.9m-3.2 2-.15.15-4 2.75-.05.05-.3-.4q-.25-.65.15-1.4l.55-.95-.15.1q-2.2 1.25-3.45 3.05.9.35 1.5 1.05l-.35.2h-.1q-.2-.45-.7-.7l-1-.75-.05.05v-.1l-.1-.1.15.05 1-1.1q1.2-1.2 5.65-4.2.35 1.3 1.4 2.25m26.25-12h.2l1 .2q.65.1.85.55l-.05-.05-.3-.25-.1-.1h-.2zm-.75 1.35.05-.1-.3-.25-.05.3zM10.5 25.8l.15.05.15-.3-.45-.1zm3.5-2.25.4.05q.25-.2.1-.45l-.3-.05z"/><path fill="#a60" d="M37.6 13.5q1.95-.3 2.85 0l.3-.1.85-.1 3.1-.45v-.1 1.95l-.2.1h-.2l-.35.05-.5.05-.55.15h-.45l-.55.1-.15.05q.15-.35-.25-1.15l-.05-.05q-.75-.75-.55-.25l.1.1.3.3.25.35-.05.7-.15.1v-.4l-.05-.2-.1-.1-.05-.1v-.1l.05.05q-.2-.45-.85-.55l-1-.2h-.45l-.55-.1-2.1.35q.35.55.35 1.2v1.2l-.5.15-.1.1q0-1.3-.6-2.55l-.05-.05h.2l.05.05.05-.05.25-.1.25.05 1.6-.4zm-2.8 3.35L27.85 19q-.25-1.2-.95-2.1l7.8-2.35q-1.55 1.3.1 2.3m-7.65 2.4-.2-.05-.35.1-2.45.9h-.1q-.75-.55-1-1.8h.15l3.05-.95q.65.85.9 1.8m-4.2 1.4q-3.6 1.3-6.85 3.05.65-1.75-1.45-1.9 3.3-1.65 5.45-2.6l2.05-.85q.15 1.1.8 2.25zm-9.3 4.65-.1-.05-.05.05-.6.4q-1.05-.95-1.4-2.25l.35-.3.35-.1.05-.05h.1v-.1h.15q.3 1.2 1.15 2.4M8.7 28.65l-1.1.95-.4.35-.2.15q-.6-.7-1.5-1.05 1.25-1.8 3.45-3.05l.15-.1-.55.95q-.4.75-.15 1.4zM42.8 13.7q-.2.1-.1.3l.3.05.1-.3zm-9.3 2.4-.15-.15-.35.1v.2l.35.2zm-3.95 1.15-.2-.2q-.4.15-.3.35h.35zM24.6 19.1h.1q.25-.15.1-.4l-.3-.3-.3.15-.05.05h-.1q-.25.1 0 .4-.05.2.25.1l.2.05zm-5.95 1.8q-.2.05-.1.3.05.3.35.1.35-.05.15-.4zm-10.8 7.35.1-.25q0-.2-.2 0l-.15-.05.05.3z"/><path fill="#ffce85" d="m41.2 15.45-.6.4-.65.2h-.2l.75-.55.05-.6-.55-.65q-.6-.35-2-.35l-.7.05 1.05-.35.55.1h.25l1.4.35h.2l.1.1.3.25v.1l.05.1.1.1.05.2z"/><path fill="#663d00" d="m42.8 13.7.3.05-.1.3-.3-.05q-.1-.2.1-.3m-4.4 1.35-.3-.05.05-.3.3.25zm-4.9 1.05-.15.35-.35-.2v-.2l.35-.1zm-3.95 1.15-.15.15h-.35q-.1-.2.3-.35zm-10.9 3.65h.4q.2.35-.15.4-.3.2-.35-.1-.1-.25.1-.3m5.95-1.8-.1.05-.2-.05q-.3.1-.25-.1-.25-.3 0-.4h.1l.05-.05.3-.15.3.3q.15.25-.1.4zM14 23.55l.2-.45.3.05q.15.25-.1.45zm-3.5 2.25-.15-.35.45.1-.15.3zm-2.65 2.45h-.2l-.05-.3.15.05q.2-.2.2 0z"/><path fill="#835108" d="m27.85 19-.7.25q-.25-.95-.9-1.8l-3.05.95h-.15q.25 1.25 1 1.8l-1.1.45v-.05q-.65-1.15-.8-2.25l.05-.2.5-.15 1.45-.5 2.4-.8h.15l.2.2q.7.9.95 2.1"/><path fill="#a7c7d9" d="m35.8 13.55.7 1.7.35-.15h.1v.75l.1.75-.7.25.2-.15-.05-.05-.15-.65-.2-1.05-.45-1.3zm-2.7.65.7 1.95.55-.4.2 1.6H34l-.1-.45.1.2-.3-1-.75-1.85zm-5.2 3.9.1.5.1 1-3.05 1.05-1.95.6q-.35-.1-.75-1.2l-.1-.1h.15l.25-.05-.15-.25v-.05l-.1-.05q1.15-.8 2.3-.85l-.1.2q0 .2-.75.45-.85.05-.95.25l.1.25.2.6 2.5-.75 1.55-.55-.05-.8q-.05-.7-.5-1.65h-.15l.3-.1.6 1.25.1.35zm-5.4-.05.2.95-.2.1q-.35-1 0-1.05M16.7 20l.4-.25 1.15 3.05.15.3q-.45.05-.6.3l-.55-1.1.25-.05zm-5.15 2.85q.15-.05.25-.15l.95 1.85.75 1.1-.6.35q-.55-.45-.9-1.3h.45l-.65-1.45z"/><path fill="#fff" d="m35.8 13.55.45-.05.1.15.25.85.25.6-.35.15zm-2.7.65.6-.3.5 1.5.15.35-.55.4zm-10.85 5.75q-.45-1.1-.6-2.3l2.75-.95 2.25-.7.25-.1.3-.1.2.8.5 1.5-.35.1-.1-.35-.6-1.25-.3.1-2.75.9q-.85.25-1.15.45h-.15q-.35.05 0 1.05l.2-.1.95-.35.6-.15q.35-.05.4.15l.05.05q-1.15.05-2.3.85l.1.05v.05l.15.25-.25.05zm-5 2.35-.25-.65-.6-1.5.3-.15.8 2.25zM12 24.7l-.7-1.5.25-.35.25.4.65 1.45z"/></g></defs></svg>