<?xml version="1.0" encoding="UTF-8" standalone="no"?>
<svg xmlns:ffdec="https://www.free-decompiler.com/flash" xmlns:xlink="http://www.w3.org/1999/xlink" ffdec:objectType="frame" height="47.5px" width="33.15px" xmlns="http://www.w3.org/2000/svg">
  <g transform="matrix(1.0, 0.0, 0.0, 1.0, -26.45, 12.1)">
    <use ffdec:characterId="1" height="47.5" transform="matrix(1.0, 0.0, 0.0, 1.0, 26.45, -12.1)" width="33.15" xlink:href="#shape0"/>
  </g>
  <defs>
    <g id="shape0" transform="matrix(1.0, 0.0, 0.0, 1.0, -26.45, 12.1)">
      <path d="M51.3 12.9 L51.85 14.7 49.0 13.3 Q46.1 11.8 45.1 10.65 46.65 11.95 49.55 12.6 L51.3 12.9" fill="#ffffff" fill-rule="evenodd" stroke="none"/>
      <path d="M47.5 26.0 Q46.95 25.95 46.8 26.6 46.25 25.2 45.25 18.35 L45.0 16.5 Q46.7 19.2 47.3 23.6 L47.5 26.0 M46.2 28.55 Q45.7 28.75 45.3 29.45 L44.85 30.55 44.8 23.9 45.8 27.0 46.2 28.55 M39.4 12.45 L39.25 10.2 Q40.5 10.5 40.55 11.25 L40.2 12.25 39.4 12.45 M36.15 6.5 L35.6 6.8 Q35.45 6.0 34.5 4.7 L33.4 3.2 Q36.9 2.2 37.5 4.7 L36.15 6.5" fill="#9f9f9a" fill-opacity="0.7019608" fill-rule="evenodd" stroke="none"/>
      <path d="M33.4 3.2 L30.6 4.45 Q30.5 2.85 28.8 -1.35 27.3 -2.9 26.45 -2.65 26.8 -3.6 27.9 -4.55 L28.9 -5.35 29.6 -5.8 30.7 -6.45 31.05 -6.55 30.0 -5.4 31.25 -4.35 31.8 -3.95 36.1 1.55 Q37.65 3.85 37.5 4.7 36.9 2.2 33.4 3.2 M33.7 -10.05 L36.1 -9.9 37.3 -7.1 38.25 -3.7 36.0 -5.75 Q35.6 -7.45 34.25 -9.4 L33.7 -10.05 M42.25 -7.45 L43.3 -7.55 Q45.6 -5.9 46.65 -3.2 L45.25 -2.45 42.15 -1.3 39.9 -0.85 40.55 -2.05 41.6 -4.9 42.25 -7.45 M51.15 7.05 L51.0 7.2 51.8 8.05 52.3 8.45 49.4 8.65 Q46.25 8.7 43.8 7.65 L44.4 9.45 44.65 9.85 45.1 10.65 48.0 14.4 50.5 17.3 53.9 21.5 53.15 22.35 Q52.35 23.5 51.95 25.15 L51.8 25.65 42.55 9.25 Q42.85 11.3 42.45 12.85 L44.2 18.95 Q46.0 25.7 46.35 28.5 L46.2 28.55 45.8 27.0 44.8 23.9 44.85 30.55 44.15 32.35 Q43.6 33.8 42.0 34.4 L40.65 34.7 Q41.9 32.2 41.55 23.2 L40.85 13.0 40.8 13.0 39.5 14.0 39.4 12.45 40.2 12.25 40.55 11.25 Q40.5 10.5 39.25 10.2 L37.05 10.1 36.15 6.5 37.5 4.7 39.7 8.3 40.35 9.05 Q41.75 10.4 42.2 8.65 L42.3 8.05 42.25 7.85 41.85 6.55 41.8 6.5 41.85 6.5 46.8 6.95 51.15 7.05" fill="#ffffff" fill-opacity="0.9019608" fill-rule="evenodd" stroke="none"/>
      <path d="M36.1 -9.9 L36.7 -9.85 37.7 -9.0 Q40.1 -7.45 42.25 -7.45 L41.6 -4.9 40.55 -2.05 39.9 -0.85 Q39.25 0.1 38.65 0.1 L38.0 -1.1 Q38.55 -1.8 38.25 -3.7 L37.3 -7.1 36.1 -9.9 M51.95 5.85 L51.15 7.05 46.8 6.95 41.85 6.5 41.1 4.6 40.6 3.65 Q44.15 2.6 49.2 4.6 50.7 5.2 51.95 5.85" fill="#d9d8d7" fill-opacity="0.9019608" fill-rule="evenodd" stroke="none"/>
      <path d="M31.05 -6.55 L31.5 -7.15 Q32.6 -8.7 32.9 -10.0 L33.15 -10.05 33.7 -10.05 34.25 -9.4 Q35.6 -7.45 36.0 -5.75 L38.25 -3.7 Q38.55 -1.8 38.0 -1.1 L38.65 0.1 Q39.25 0.1 39.9 -0.85 L42.15 -1.3 Q43.15 -0.9 44.1 -0.8 46.75 -0.6 49.75 1.45 52.4 3.25 52.5 4.2 L51.95 5.85 Q50.7 5.2 49.2 4.6 44.15 2.6 40.6 3.65 L41.1 4.6 41.85 6.5 41.8 6.5 41.85 6.55 42.25 7.85 42.3 8.05 42.2 8.65 Q41.75 10.4 40.35 9.05 L39.7 8.3 37.5 4.7 Q37.65 3.85 36.1 1.55 L31.8 -3.95 31.25 -4.35 30.0 -5.4 31.05 -6.55 M52.3 8.45 L53.0 8.7 Q53.6 8.5 51.2 12.6 L51.3 12.9 49.55 12.6 Q46.65 11.95 45.1 10.65 46.1 11.8 49.0 13.3 L51.85 14.7 51.9 14.9 50.5 17.3 48.0 14.4 45.1 10.65 44.65 9.85 44.4 9.45 43.8 7.65 Q46.25 8.7 49.4 8.65 L52.3 8.45 M51.8 25.65 Q51.35 26.85 50.15 26.7 L47.7 26.0 47.5 26.0 47.3 23.6 Q46.7 19.2 45.0 16.5 L45.25 18.35 Q46.25 25.2 46.8 26.6 L46.7 27.1 46.85 28.45 46.35 28.5 Q46.0 25.7 44.2 18.95 L42.45 12.85 Q42.85 11.3 42.55 9.25 L51.8 25.65" fill="#cdc8c8" fill-opacity="0.9019608" fill-rule="evenodd" stroke="none"/>
      <path d="M40.45 13.9 L40.25 13.65 Q39.25 12.35 38.8 12.95 38.25 13.55 37.55 12.2 36.75 10.45 38.15 6.2 L39.55 2.85 40.2 3.35 40.9 3.55 Q42.0 3.75 42.95 3.0 50.15 8.6 50.6 10.0 49.4 9.9 49.2 10.85 L49.25 11.95 Q48.65 10.65 44.75 7.1 L46.95 10.2 51.5 16.7 52.05 17.4 48.45 13.55 44.95 9.7 41.8 5.3 Q43.05 12.6 49.2 23.75 52.35 29.4 55.25 33.75 L54.25 32.65 Q51.05 29.0 46.15 19.85 L45.85 19.05 41.4 7.35 41.4 7.3 40.7 5.55 40.3 7.7 Q39.7 11.3 40.35 13.5 L40.45 13.9" fill="#854043" fill-rule="evenodd" stroke="none"/>
      <path d="M52.05 17.4 Q58.1 26.25 59.6 29.3 58.85 29.2 58.4 30.05 L58.15 31.0 Q56.6 26.55 49.1 15.6 L44.95 9.7 48.45 13.55 52.05 17.4 M55.25 33.75 L54.85 33.8 Q53.65 34.15 53.6 35.4 L53.2 35.35 Q51.0 32.2 46.15 19.85 51.05 29.0 54.25 32.65 L55.25 33.75" fill="#bf5b5f" fill-rule="evenodd" stroke="none"/>
      <path d="M49.25 11.95 L48.75 11.75 46.95 10.2 44.75 7.1 Q48.65 10.65 49.25 11.95 M41.4 7.35 Q41.0 13.85 40.45 13.9 L40.35 13.5 Q39.7 11.3 40.3 7.7 L40.7 5.55 41.4 7.3 41.4 7.35" fill="#270c0d" fill-rule="evenodd" stroke="none"/>
      <path d="M37.7 -8.85 L37.9 -8.75 37.65 -8.3 Q35.8 -5.1 34.55 -5.0 34.1 -4.95 33.85 -5.3 L33.6 -5.65 33.95 -6.3 34.15 -6.85 Q35.1 -8.0 37.1 -8.65 L37.7 -8.85 M35.8 -0.5 L36.7 -0.35 36.9 0.1 Q37.05 0.65 36.7 1.05 35.75 2.2 31.4 1.85 L30.75 1.85 30.8 1.55 31.4 1.1 Q33.35 -0.45 35.1 -0.6 L35.8 -0.5" fill="#669966" fill-rule="evenodd" stroke="none"/>
      <path d="M37.7 -8.85 L37.1 -8.65 Q35.1 -8.0 34.15 -6.85 L33.95 -6.3 Q34.1 -8.95 36.35 -9.0 L36.6 -9.0 37.7 -8.85 M30.8 1.55 L31.4 0.35 31.55 0.05 Q33.05 -2.05 35.8 -0.5 L35.1 -0.6 Q33.35 -0.45 31.4 1.1 L30.8 1.55" fill="#666633" fill-rule="evenodd" stroke="none"/>
      <path d="M31.25 -8.55 L30.45 -8.9 Q30.2 -9.2 30.2 -9.6 L30.25 -10.15 Q30.35 -11.1 30.85 -11.85 L31.2 -11.6 32.05 -10.8 31.7 -10.1 Q31.3 -9.2 31.25 -8.55" fill="#a10101" fill-rule="evenodd" stroke="none"/>
      <path d="M42.25 -5.6 L43.25 -6.05 Q43.7 -5.35 43.75 -3.95 L43.8 -3.95 42.2 -2.15 41.75 -1.75 Q41.65 -2.8 41.05 -3.85 L40.8 -4.2 40.85 -4.25 Q41.35 -5.15 42.25 -5.6" fill="#51001b" fill-rule="evenodd" stroke="none"/>
      <path d="M31.25 -8.55 Q31.3 -9.2 31.7 -10.1 L32.05 -10.8 Q32.45 -11.4 32.9 -11.4 33.6 -11.4 33.95 -9.15 L34.2 -6.6 32.95 -5.85 32.75 -5.65 Q32.55 -5.65 32.45 -5.8 L32.2 -6.4 33.15 -6.7 33.7 -6.5 33.0 -7.3 32.9 -7.4 32.6 -7.55 32.55 -7.6 Q31.85 -8.1 31.5 -8.35 L31.35 -8.45 31.25 -8.55 M45.95 -5.45 L46.35 -5.8 48.1 -4.1 Q50.05 -1.95 49.45 -0.65 L48.5 -0.2 48.05 0.35 48.05 0.0 48.05 -0.15 48.15 -0.15 Q48.45 -0.6 48.45 -1.2 48.45 -1.95 48.05 -2.85 L47.45 -4.4 47.45 -3.95 Q47.45 -2.4 46.6 -1.8 L44.95 -0.95 44.7 -0.8 44.9 -0.95 Q45.55 -1.45 45.55 -1.85 L45.5 -2.65 46.2 -2.95 Q46.75 -3.3 46.75 -3.7 L45.95 -5.45 M42.45 3.45 L41.65 3.55 40.8 3.55 39.9 3.55 39.85 3.55 Q39.65 3.6 38.4 4.2 L36.6 4.65 Q35.3 4.65 34.85 3.85 L36.85 2.35 Q38.15 1.45 39.25 1.45 L40.5 1.85 42.0 2.25 41.75 1.55 41.95 1.05 42.4 1.35 45.65 1.0 46.4 0.9 46.15 1.1 45.9 1.45 45.7 1.6 44.85 2.3 Q44.25 2.85 43.45 2.85 L42.65 2.75 42.85 2.85 42.65 3.25 42.45 3.25 42.45 3.45 M36.3 -1.0 Q36.7 -0.65 37.25 -0.65 L37.85 -0.75 38.4 -0.9 38.55 -0.7 Q39.25 0.0 39.9 0.15 L39.85 0.25 40.0 0.95 Q39.25 0.55 38.65 0.55 L37.25 0.7 37.2 0.65 36.85 0.05 36.3 -1.0 M43.75 -0.25 L42.85 0.2 43.75 -0.35 43.75 -0.25" fill="#480018" fill-rule="evenodd" stroke="none"/>
      <path d="M42.25 -8.05 L43.3 -8.0 Q44.3 -7.9 44.85 -7.35 L45.95 -5.45 46.75 -3.7 Q46.75 -3.3 46.2 -2.95 L45.5 -2.65 45.55 -1.85 Q45.55 -1.45 44.9 -0.95 L44.7 -0.8 44.95 -0.95 46.6 -1.8 Q47.45 -2.4 47.45 -3.95 L47.45 -4.4 48.05 -2.85 Q48.45 -1.95 48.45 -1.2 48.45 -0.6 48.15 -0.15 L48.05 -0.15 48.05 0.0 Q47.6 0.55 46.55 0.85 L46.5 0.9 46.4 0.9 45.65 1.0 42.4 1.35 41.95 1.05 41.75 1.55 42.0 2.25 40.5 1.85 39.25 1.45 Q38.15 1.45 36.85 2.35 L34.85 3.85 Q34.55 3.4 34.55 2.7 34.55 2.05 35.05 1.35 L35.8 0.65 36.2 0.55 36.8 0.65 37.05 0.75 37.25 0.7 38.65 0.55 Q39.25 0.55 40.0 0.95 L39.85 0.25 39.9 0.15 Q39.25 0.0 38.55 -0.7 L38.4 -0.9 37.85 -0.75 37.25 -0.65 Q36.7 -0.65 36.3 -1.0 L36.05 -1.25 Q35.55 -1.85 35.55 -2.75 L35.8 -4.15 35.35 -3.7 Q34.25 -2.55 34.25 -1.0 L34.3 -0.2 34.95 0.35 33.25 -0.25 Q31.65 -1.15 31.65 -2.9 31.65 -4.1 32.45 -5.25 L32.75 -5.65 32.95 -5.85 34.2 -6.6 35.2 -6.75 35.9 -6.55 36.45 -5.55 36.7 -5.9 36.45 -4.75 Q36.25 -2.5 37.4 -1.75 L37.5 -1.7 38.2 -2.0 Q39.35 -2.15 40.3 -1.15 40.7 -0.85 41.05 -1.15 L41.05 -1.1 41.75 -1.75 42.2 -2.15 43.8 -3.95 44.05 -4.55 44.85 -3.65 44.1 -6.1 42.25 -8.05 M51.6 -2.8 L51.7 -3.0 51.8 -2.8 Q52.4 -1.55 52.4 0.35 52.4 1.6 50.9 2.5 49.8 3.15 48.75 3.2 L48.4 3.2 48.1 2.9 Q47.85 3.7 47.05 4.45 45.85 5.55 44.55 5.55 L43.45 5.4 43.2 5.3 42.25 4.25 42.45 3.45 42.45 3.25 42.65 3.25 Q45.35 3.35 47.4 2.0 L48.0 1.3 47.95 1.1 Q49.9 1.4 50.7 -0.9 L50.85 -1.7 50.9 -1.8 51.25 -2.3 51.4 -2.55 51.6 -2.8 M43.75 -0.25 L43.75 -0.35 42.85 0.2 43.75 -0.25" fill="#b42400" fill-rule="evenodd" stroke="none"/>
      <path d="M30.85 -11.85 Q30.35 -11.1 30.25 -10.15 L30.2 -9.6 Q30.2 -9.2 30.45 -8.9 L31.25 -8.55 31.35 -8.45 31.5 -8.35 Q31.85 -8.1 32.55 -7.6 L32.6 -7.55 32.9 -7.4 33.0 -7.3 33.7 -6.5 33.15 -6.7 32.2 -6.4 32.0 -6.4 30.4 -6.9 Q29.0 -7.5 29.0 -8.1 L29.1 -8.25 29.55 -8.6 29.3 -10.35 29.3 -10.4 Q29.3 -12.1 30.2 -12.1 L30.85 -11.85 M36.7 -5.9 Q37.3 -6.7 38.15 -6.75 L38.15 -6.65 Q38.0 -4.5 38.75 -2.7 L38.95 -2.65 Q39.8 -2.4 41.05 -1.15 40.7 -0.85 40.3 -1.15 39.35 -2.15 38.2 -2.0 L37.5 -1.7 37.4 -1.75 Q36.25 -2.5 36.45 -4.75 L36.7 -5.9 M39.85 -5.65 L40.25 -6.35 40.95 -6.85 41.75 -6.3 42.25 -5.6 Q41.35 -5.15 40.85 -4.25 L40.8 -4.2 40.05 -5.3 39.85 -5.65" fill="#ff0000" fill-rule="evenodd" stroke="none"/>
      <path d="M38.15 -6.65 Q38.35 -7.7 39.4 -7.95 L41.25 -8.05 41.3 -8.05 42.25 -8.05 44.1 -6.1 44.85 -3.65 44.05 -4.55 43.8 -3.95 43.75 -3.95 Q43.7 -5.35 43.25 -6.05 L42.25 -5.6 41.75 -6.3 40.95 -6.85 40.25 -6.35 39.85 -5.65 39.05 -4.65 38.85 -3.55 38.95 -2.65 38.75 -2.7 Q38.0 -4.5 38.15 -6.65" fill="#952a01" fill-rule="evenodd" stroke="none"/>
      <path d="M46.35 -5.8 L46.65 -6.15 47.75 -6.2 Q49.05 -6.2 50.3 -4.95 51.4 -3.9 51.6 -2.8 L51.4 -2.55 51.25 -2.3 50.9 -1.8 50.85 -1.7 49.8 -0.8 49.45 -0.65 Q50.05 -1.95 48.1 -4.1 L46.35 -5.8" fill="#ff3f3f" fill-rule="evenodd" stroke="none"/>
      <path d="M35.8 0.65 L35.55 0.55 35.25 0.45 34.95 0.35 34.3 -0.2 34.25 -1.0 Q34.25 -2.55 35.35 -3.7 L35.8 -4.15 35.55 -2.75 Q35.55 -1.85 36.05 -1.25 L36.3 -1.0 36.85 0.05 37.2 0.65 37.25 0.7 37.05 0.75 36.8 0.65 36.2 0.55 35.8 0.65" fill="url(#gradient0)" fill-rule="evenodd" stroke="none"/>
      <path d="M38.95 -2.65 L38.85 -3.55 39.05 -4.65 39.85 -5.65 40.05 -5.3 40.8 -4.2 41.05 -3.85 Q41.65 -2.8 41.75 -1.75 L41.05 -1.1 41.05 -1.15 Q39.8 -2.4 38.95 -2.65 M49.45 -0.65 L49.8 -0.8 50.85 -1.7 50.7 -0.9 Q49.9 1.4 47.95 1.1 L48.0 1.3 47.4 2.0 Q45.35 3.35 42.65 3.25 L42.85 2.85 42.65 2.75 43.45 2.85 Q44.25 2.85 44.85 2.3 L45.7 1.6 45.9 1.45 46.15 1.1 46.4 0.9 46.5 0.9 46.55 0.85 Q47.6 0.55 48.05 0.0 L48.05 0.35 48.5 -0.2 49.45 -0.65" fill="url(#gradient1)" fill-rule="evenodd" stroke="none"/>
      <path d="M47.85 3.0 L48.8 2.85 Q51.1 3.05 53.75 5.15 L54.5 5.75 54.6 6.1 53.75 6.15 Q47.9 6.6 46.65 5.05 46.2 4.5 46.4 3.8 L46.65 3.2 47.85 3.0" fill="#669966" fill-rule="evenodd" stroke="none"/>
      <path d="M47.85 3.0 Q51.5 0.95 53.5 3.75 L53.75 4.15 54.5 5.75 53.75 5.15 Q51.1 3.05 48.8 2.85 L47.85 3.0" fill="#666633" fill-rule="evenodd" stroke="none"/>
    </g>
    <radialGradient cx="0" cy="0" gradientTransform="matrix(0.0151, 0.0, 0.0, 0.0151, 42.1, -2.9)" gradientUnits="userSpaceOnUse" id="gradient0" r="819.2" spreadMethod="pad">
      <stop offset="0.0" stop-color="#4d0202"/>
      <stop offset="1.0" stop-color="#ff0000"/>
    </radialGradient>
    <radialGradient cx="0" cy="0" gradientTransform="matrix(0.0151, 0.0, 0.0, 0.0151, 42.1, -2.9)" gradientUnits="userSpaceOnUse" id="gradient1" r="819.2" spreadMethod="pad">
      <stop offset="0.0" stop-color="#790000"/>
      <stop offset="1.0" stop-color="#ff0000"/>
    </radialGradient>
  </defs>
</svg>
