<svg xmlns="http://www.w3.org/2000/svg" xmlns:ffdec="https://www.free-decompiler.com/flash" xmlns:xlink="http://www.w3.org/1999/xlink" ffdec:objectType="frame" width="70.6" height="85.2"><use ffdec:characterId="1" xlink:href="#a" width="70.6" height="85.2"/><defs><radialGradient id="b" cx="0" cy="0" r="819.2" gradientTransform="translate(22.65 8.95)scale(.0351)" gradientUnits="userSpaceOnUse" spreadMethod="pad"><stop offset="0" stop-color="#fff"/><stop offset=".475" stop-color="#fff9f3"/><stop offset="1" stop-color="#fff6f3"/></radialGradient><g id="a" fill-rule="evenodd"><path fill="#663f19" fill-opacity=".498" d="m54.2 61.95-1.25-1.2-1.85-1.55-.1-.2-3.3-3.45q-1.3-1.75-3.05-2.95L43 51.55q-3.4-1.8-7.55-1.8-4.2 0-7.65 1.8-3 1.55-4.85 4-1.65 2.15-6.2 6.05l-.35.25-2.1 1.65-.05.05-.05.05-.1.05-.25.2-.35.35-.55.75q-.35.5-.45 1.1-.15-.5.05-1.2l.45-1.1.55-.75.35-.35.25-.2.1-.05.05-.05.05-.05 2.1-1.65.35-.25q4.55-3.9 6.2-6.05 1.85-2.45 4.85-4 3.45-1.8 7.65-1.8 4.15 0 7.55 1.8l1.65 1.05q1.75 1.2 3.05 2.95l3.3 3.45.1.2L53 59.55l1.25 1.2 3.15 3.6.7 1.2.1.5-.05 1.2-.1-.5-.7-1.2Q56.3 64 54.2 61.95"/><path fill="url(#b)" d="m42.15 29.6-1.25-1.2-1.8-1.6v-.25l-.15.1-3.3-3.45q-1.3-1.75-3.05-2.95l-1.65-1.05q-3.4-1.8-7.55-1.8-4.2 0-7.65 1.8-3 1.55-4.85 4-1.65 2.15-6.2 6.05l-.35.25-2.1 1.65-.05.05-.05.05-.1.05-.05.05-.2.15-.35.35-.1.15-.45.6q-.35.5-.45 1.1-.2.7-.05 1.2L.65 36l.15.6.1.45.35 1.05.75 1.75q1.4 2.3 3.8 4.3l.05.05 6.4 1.35q6.95 1.8 8.35 3.45 1.5 1.35 2.55 3.05.5-1.25 1.8-2.8.65-.8 2.65-1.65 2.15-1 5.9-2.05 3.15-.9 6.15-1.45l.45-.1.35-.05h.05l.3-.2 2.3-1.9 1.8-2 .6-1.3.25-.6.3-1.8.05-1.25-.1-.5-.7-1.2-1.6-2zM8.25-12.7q.3 5-.2 8.9l1.5-1.3q3.9-3.2 7.75-4.8 2.3-.95 4.3-1.2h3.35q2 .25 4.3 1.2l2.4 1.15q3.4 1.8 6.85 4.9-.55-3.85-.25-8.85.8-11.35 6.45-18.55 1.9 4.25 2.9 10.6Q49.65-7.95 45 2.7l3.7 4.2q5.8 6.75 7.1 8.7 2.25 3.55 2.7 9 .45 5.95-2.1 10.95l-1.2 2.05-.6.85-1.4 1.7-.65.65-.1.1v.05l-4 3.15-.65.4q-4.75 2.95-14.2 6.05l-4.45 1.5-.45.15-4.55 1.5-.15.05-.75.2h-.1l-.1-.05-5.1-1.7-.8-.25-.25-.1-3.95-1.3q-9.45-3.1-14.2-6.05l-.45-.3-4.1-3.15-.45-.5-1.05-1.1-.2-.25-.55-.75-.4-.55-.15-.25-1.25-2.1q-2.55-5-2.1-10.95.45-5.45 2.7-9 1.65-2.5 10.8-12.85-4.7-10.7-2.65-23.4 1-6.35 2.9-10.6 5.65 7.2 6.45 18.55" transform="translate(12.05 31.25)"/><path fill="#ffd9df" fill-opacity=".498" d="m19.8 14.5.45 4q.3 5-.2 8.9l-.95.8-1.6 1.5-.95 1-4.65 7.2Q7.05 45.65 6.75 49q-.3 3.5 2.85 8.25 2.35 3.5 4.55 5.2l-.1.05-.05.05-.2.15-.35.35-.1.15q-2.6 2.45-5.2 3.7-2.1 1-1.9 2.55.25 1.5 2.3 2.55 5.7 2.95 9.25 3.35l.05.05q1.9 1 4.25 2.35 4.45 2.65 6.8 5.3l-3.95-1.3q-9.45-3.1-14.2-6.05l-.45-.3Q8 73.95 6.2 72.25l-.45-.5-1.05-1.1-.2-.25-.55-.75-.4-.55-.15-.25-1.25-2.1q-2.55-5-2.1-10.95.45-5.45 2.7-9 1.65-2.5 10.8-12.85-2.6-5.95-3.15-12.5l1.15 3.05 1.5 2.65q.4 3.15 1.3 5.9l.25-.3 1.45-1.55.45-.45.3-3.95 1.1-2.45q1.75-4.75 1.9-9.85m30.7 12.85q-.55-3.85-.25-8.85l.45-4q.15 5.1 1.9 9.85l1.15 2.5.3 3.85.3.3 1.45 1.55.4.45q.85-2.7 1.3-5.9l1.45-2.6 1.15-3.05Q59.6 28 57 33.9l3.7 4.2q5.8 6.75 7.1 8.7 2.25 3.55 2.7 9 .45 5.95-2.1 10.95l-1.2 2.05-.6.85-1.4 1.7-.65.65-.1.1v.05q-1.75 1.7-4 3.15l-.65.4q-4.75 2.95-14.2 6.05l-4.45 1.5q2.35-2.95 7.25-5.85 2.2-1.3 4.05-2.25 3.4-.55 8.6-3.25 2.05-1.05 2.3-2.55.2-1.55-1.9-2.55-2.9-1.4-5.75-4.4l-1.55-1.6-1.25-1.2-1.8-1.6v-.25q4.6-2.85 6.65-8.75 1.1-3 1.2-5.45l-.15-3.45-.55-2-.7-1.45-.2-.3-3.5-5.9-.4-.4-.6-.55-1.55-1.45z"/><path fill="#bf5f7f" fill-opacity=".498" d="m58.2 66.1-.1-.5-.7-1.2-1.6-2q2.85 3 5.75 4.4 2.1 1 1.9 2.55-.25 1.5-2.3 2.55-5.15 2.65-8.5 3.25l.25-.2q3-2.15 4.1-3.9l.6-1.3.25-.6.3-1.8zm-45.4 1.1.15.6.1.45.35 1.05.75 1.75q1.4 2.3 3.8 4.3-3.55-.4-9.25-3.35-2.05-1.05-2.3-2.55-.2-1.55 1.9-2.55 2.6-1.25 5.2-3.7l-.45.6q-.35.5-.45 1.1-.2.7-.05 1.2zm18.25 17-1.8-1 .8.25 5.1 1.7q-1.85-.05-4.1-.95M37 80.55q.65-.8 2.65-1.65l-1.5 1.5q-1.6 2.05-1.95 4.55h.05l4.55-1.5.45-.15-1.8 1q-2.25.9-4.1.9l.7-.15-.85-1.7q.5-1.25 1.8-2.8"/><path fill="#ffe3d9" d="m16.6 30.75-.45.45-1.45 1.55-.25.3q-2.05-6.45-1.85-15.7.05-4.65.55-8 3.3 4.7 3.7 13.45.2 4.4-.25 7.95m41.5-13.4q.2 9.25-1.8 15.65l-.4-.45L54.45 31l-.3-.3q-.5-3.5-.3-7.9.4-8.75 3.7-13.45.5 3.35.55 8"/><path fill="#cbb2b2" fill-opacity=".498" d="M53.85 26.85q1.2 2.15 2.35 1.55l1.4-1.3q-.45 3.2-1.3 5.9l-.4-.45L54.45 31l-.3-.3zm-37.25 3.9-.45.45-1.45 1.55-.25.3q-.9-2.75-1.3-5.9.65.9 1.35 1.25 1.15.6 2.4-1.6z"/></g></defs></svg>