<?xml version="1.0" encoding="UTF-8" standalone="no"?>
<svg xmlns:ffdec="https://www.free-decompiler.com/flash" xmlns:xlink="http://www.w3.org/1999/xlink" ffdec:objectType="frame" height="22.45px" width="17.85px" xmlns="http://www.w3.org/2000/svg">
  <g transform="matrix(1.0, 0.0, 0.0, 1.0, -14.55, 17.15)">
    <use ffdec:characterId="1" height="22.45" transform="matrix(1.0, 0.0, 0.0, 1.0, 14.55, -17.15)" width="17.85" xlink:href="#shape0"/>
  </g>
  <defs>
    <g id="shape0" transform="matrix(1.0, 0.0, 0.0, 1.0, -14.55, 17.15)">
      <path d="M17.3 -16.35 Q17.75 -16.95 18.55 -17.0 19.35 -17.05 20.35 -16.4 L21.4 -15.65 23.0 -15.55 24.75 -15.55 24.8 -15.65 25.15 -16.15 Q25.45 -16.55 26.25 -16.9 L27.9 -17.15 Q28.8 -17.1 29.3 -16.4 29.7 -15.7 29.8 -14.35 29.8 -13.0 30.15 -12.75 L31.15 -11.45 32.0 -9.95 32.35 -8.75 32.35 -8.0 32.35 -7.05 32.1 -5.85 31.95 -5.5 31.35 -4.4 31.25 -4.3 30.55 -3.4 30.4 -3.2 29.85 -2.75 29.8 -2.65 29.5 -2.45 28.95 -2.2 28.0 -1.8 27.15 -1.5 25.9 -1.25 25.65 -1.2 25.7 -1.1 26.05 -0.25 26.05 -0.15 26.2 0.2 26.2 0.1 26.4 -0.05 26.5 -0.15 26.55 -0.2 26.6 -0.25 26.65 -0.25 26.75 -0.25 26.85 -0.3 27.3 -0.55 27.85 -0.75 28.8 -0.8 29.35 -0.65 29.55 -0.55 29.6 -0.5 29.65 -0.5 29.65 -0.45 29.75 -0.3 29.85 -0.25 29.9 -0.15 29.95 -0.05 29.95 0.0 29.95 0.2 29.95 0.45 29.95 0.65 29.95 0.9 29.95 1.05 29.95 1.2 29.55 1.7 29.35 2.15 27.7 3.35 27.5 3.5 27.45 3.5 27.0 3.65 26.3 3.8 26.55 4.05 26.85 4.35 26.85 4.4 26.9 4.45 27.0 4.5 27.2 4.75 27.3 4.9 27.35 4.95 27.35 5.0 27.35 5.1 27.35 5.2 27.3 5.25 Q26.2 5.5 25.4 4.65 L25.15 4.4 24.35 4.95 24.05 5.1 Q23.45 5.3 22.8 5.1 L22.8 5.05 22.8 4.95 22.8 4.9 22.85 4.8 22.95 4.7 22.95 4.5 22.95 4.35 21.3 4.95 20.35 4.95 19.7 4.75 19.7 4.55 19.75 4.5 19.85 4.35 19.95 4.3 21.8 3.7 20.9 3.5 20.35 3.3 19.85 3.0 19.6 2.95 19.25 2.65 18.9 2.3 18.5 1.95 18.1 1.4 18.05 1.2 17.95 1.1 17.9 0.7 17.9 0.1 17.95 0.0 18.0 -0.05 18.1 -0.2 18.1 -0.3 18.15 -0.35 18.25 -0.4 18.3 -0.4 18.85 -0.65 19.1 -0.7 Q20.55 -0.75 21.75 0.1 L21.75 -0.05 21.75 -0.35 21.75 -0.65 21.5 -1.55 21.15 -1.6 21.15 -1.65 20.8 -1.75 20.4 -1.8 19.65 -2.0 17.95 -2.6 17.75 -2.7 17.5 -2.8 17.0 -3.1 Q15.95 -3.7 15.2 -4.9 L14.85 -5.6 Q14.7 -5.95 14.7 -6.25 14.5 -6.9 14.6 -7.6 L14.7 -8.8 14.8 -9.0 14.95 -9.25 14.95 -9.35 14.95 -9.4 15.0 -9.5 15.1 -9.6 15.1 -9.7 15.1 -9.75 16.3 -11.55 16.3 -11.6 Q16.15 -13.6 16.5 -14.7 16.8 -15.8 17.3 -16.35 M28.35 -5.1 L28.2 -4.85 28.2 -4.75 28.15 -4.7 28.0 -4.6 26.65 -3.5 26.65 -3.45 26.6 -3.4 26.0 -3.25 25.95 -3.25 25.8 -3.25 25.75 -3.2 25.65 -3.05 25.7 -2.95 25.9 -2.85 25.95 -2.8 25.9 -2.75 25.85 -2.7 25.85 -2.6 25.85 -2.55 25.8 -2.5 25.8 -2.4 25.85 -2.2 25.9 -2.1 26.05 -2.05 26.2 -2.1 26.8 -2.45 Q27.9 -3.15 28.4 -4.25 L28.55 -4.5 28.7 -4.75 28.7 -4.95 28.5 -5.15 28.35 -5.1 M28.15 -7.1 L28.2 -7.05 29.05 -6.85 29.1 -6.8 29.05 -6.6 28.95 -6.55 28.95 -6.45 28.8 -6.3 28.6 -6.05 28.6 -6.0 28.65 -5.95 28.8 -5.85 28.85 -5.85 29.1 -6.0 29.45 -6.55 29.45 -6.6 29.45 -6.9 29.45 -7.2 29.45 -7.3 29.4 -7.3 29.3 -7.45 29.2 -7.45 28.25 -7.45 28.1 -7.4 28.05 -7.3 28.05 -7.2 28.15 -7.1" fill="#66cc33" fill-rule="evenodd" stroke="none"/>
      <path d="M28.15 -7.1 L28.05 -7.2 28.05 -7.3 28.1 -7.4 28.25 -7.45 29.2 -7.45 29.3 -7.45 29.4 -7.3 29.45 -7.3 29.45 -7.2 29.45 -6.9 29.45 -6.6 29.45 -6.55 29.1 -6.0 28.85 -5.85 28.8 -5.85 28.65 -5.95 28.6 -6.0 28.6 -6.05 28.8 -6.3 28.95 -6.45 28.95 -6.55 29.05 -6.6 29.1 -6.8 29.05 -6.85 28.2 -7.05 28.15 -7.1 M28.35 -5.1 L28.5 -5.15 28.7 -4.95 28.7 -4.75 28.55 -4.5 28.4 -4.25 Q27.9 -3.15 26.8 -2.45 L26.2 -2.1 26.05 -2.05 25.9 -2.1 25.85 -2.2 25.8 -2.4 25.8 -2.5 25.85 -2.55 25.85 -2.6 25.85 -2.7 25.9 -2.75 25.95 -2.8 25.9 -2.85 25.7 -2.95 25.65 -3.05 25.75 -3.2 25.8 -3.25 25.95 -3.25 26.0 -3.25 26.6 -3.4 26.65 -3.45 26.65 -3.5 28.0 -4.6 28.15 -4.7 28.2 -4.75 28.2 -4.85 28.35 -5.1" fill="#f5fade" fill-rule="evenodd" stroke="none"/>
      <path d="M23.75 -3.25 L23.9 -3.4 27.0 -4.8 27.15 -4.7 Q27.05 -4.35 27.25 -4.05 L26.75 -3.6 26.65 -3.55 26.55 -3.5 26.25 -3.65 25.45 -3.3 23.75 -3.25 M27.2 -7.2 L27.4 -7.25 27.75 -7.3 27.7 -6.7 27.4 -6.55 27.15 -6.35 25.05 -5.5 24.95 -5.6 24.7 -5.85 24.45 -6.1 25.15 -6.2 25.6 -6.3 Q26.05 -6.35 26.35 -6.7 L26.85 -6.95 27.2 -7.2 M19.65 -2.0 L18.35 -2.45 20.25 -2.2 20.3 -1.95 20.45 -1.8 20.4 -1.8 19.65 -2.0 M18.05 -6.0 L16.95 -6.8 17.55 -6.6 19.35 -5.65 18.8 -5.65 18.05 -6.0 M21.65 -1.3 L22.7 -1.2 25.3 -1.35 26.05 -1.4 26.25 -1.4 26.3 -1.35 26.2 -1.35 26.05 -1.4 26.05 -1.35 25.9 -1.35 25.8 -1.35 25.75 -1.25 25.65 -1.2 25.65 -1.15 25.75 -0.9 25.9 -0.6 26.0 -0.4 26.05 -0.3 26.05 -0.2 26.05 -0.05 26.15 0.0 26.25 0.0 26.2 0.1 26.1 0.2 26.05 0.25 26.05 0.35 26.0 0.65 25.9 1.2 25.8 1.55 25.8 1.65 25.85 2.05 25.95 2.2 26.0 2.3 26.05 2.3 26.1 2.2 26.2 2.15 26.2 2.05 26.2 1.9 26.55 1.45 27.15 0.95 27.2 0.95 Q27.4 0.7 27.65 0.55 L28.25 0.2 28.35 0.2 28.4 0.15 28.55 0.1 Q28.6 0.0 28.7 0.0 L29.3 0.0 29.4 0.0 29.55 0.0 29.6 0.1 29.65 0.1 29.75 0.2 29.8 0.25 29.85 0.45 29.95 0.55 29.95 0.65 29.95 0.9 29.95 1.05 29.95 1.2 29.55 1.7 29.35 2.15 27.7 3.35 27.5 3.5 27.45 3.5 27.0 3.65 26.3 3.8 26.55 4.05 26.85 4.35 26.85 4.4 26.9 4.45 27.0 4.5 27.2 4.75 27.3 4.9 27.35 4.95 27.35 5.0 27.35 5.1 27.35 5.2 27.3 5.25 Q26.2 5.5 25.4 4.65 L25.3 4.6 25.35 4.45 24.55 4.75 24.6 4.85 24.35 4.95 24.05 5.1 Q23.45 5.3 22.8 5.1 L22.8 5.05 22.8 4.95 22.8 4.9 22.85 4.8 22.85 4.85 23.4 5.0 23.5 4.85 23.55 4.8 23.55 4.75 23.6 4.5 23.7 4.35 23.7 4.25 23.65 3.75 23.6 3.7 23.55 3.65 23.55 3.6 23.55 3.5 23.55 3.45 23.5 3.4 23.5 3.35 23.5 3.25 23.5 3.15 23.45 3.1 23.45 3.05 23.35 2.8 23.35 2.75 23.7 2.75 23.75 2.7 23.9 2.5 24.0 2.4 24.15 2.4 24.25 2.6 24.25 2.8 24.2 2.85 24.2 2.9 24.0 4.0 23.95 4.2 23.95 4.4 24.05 4.35 23.95 4.55 23.9 4.7 23.9 4.75 23.9 4.85 23.95 4.9 24.15 4.95 24.35 4.8 24.7 4.5 24.8 4.45 24.85 4.45 24.9 4.35 24.95 4.35 25.1 4.2 25.3 4.1 25.3 4.0 25.3 3.8 25.25 3.6 25.15 3.4 25.15 1.9 25.2 1.65 25.15 0.95 25.2 0.25 25.1 -0.1 25.05 -0.45 25.0 -0.5 24.85 -0.6 24.8 -0.65 24.65 -0.65 24.55 -0.7 24.3 -0.85 24.25 -0.85 23.8 -1.0 23.85 -1.1 23.5 -1.1 23.45 -1.1 22.85 -1.1 22.85 -1.0 22.85 -0.9 22.9 -0.8 22.9 -0.7 22.75 -0.65 22.65 -0.7 22.6 -0.75 22.5 -0.7 22.4 -0.65 22.35 -0.7 22.25 -0.75 22.15 -0.65 22.1 -0.6 22.05 -0.5 22.05 -0.25 22.15 0.15 22.15 0.55 22.2 0.85 22.35 1.95 22.4 2.05 22.4 2.1 22.5 2.4 22.5 2.45 22.55 2.5 22.55 2.55 22.6 2.6 22.6 2.65 22.6 2.75 22.6 2.85 22.6 2.95 22.6 3.0 22.7 3.25 22.85 3.55 22.85 3.75 22.85 4.0 22.85 4.05 22.9 4.2 22.95 4.25 22.95 4.55 22.8 4.45 22.8 4.4 22.75 4.4 22.75 4.35 22.7 4.35 22.6 4.45 22.5 4.5 22.55 4.5 21.3 4.95 20.35 4.95 19.7 4.75 19.7 4.55 19.75 4.5 19.85 4.35 19.95 4.3 20.85 4.0 20.9 4.05 21.0 3.95 21.15 3.95 21.2 3.9 21.65 3.85 21.7 3.8 21.8 3.65 21.8 3.6 21.55 3.7 20.9 3.5 20.35 3.3 19.85 3.0 19.6 2.95 19.25 2.65 18.9 2.3 18.5 1.95 18.1 1.4 18.05 1.2 17.95 1.1 17.9 0.7 17.9 0.25 18.15 0.35 18.15 0.2 18.2 0.1 18.25 0.1 18.25 0.05 18.35 0.0 19.0 0.0 19.1 0.1 19.25 0.2 19.4 0.2 Q20.25 0.45 20.95 1.05 L21.25 1.35 21.4 1.45 21.5 1.55 21.65 1.7 21.75 1.85 21.8 1.95 21.8 1.9 21.8 1.8 21.8 1.7 21.85 1.65 21.9 1.6 21.9 1.45 21.9 1.35 22.0 1.25 22.0 1.15 22.05 1.45 22.1 1.45 22.0 0.55 21.9 0.35 21.7 -0.45 21.6 -1.1 21.65 -1.3 M24.05 0.9 L24.1 1.15 23.95 1.55 23.75 1.65 23.7 1.7 23.6 1.85 23.45 1.85 23.45 1.6 23.45 1.2 Q23.5 1.1 23.7 1.1 L23.75 1.05 23.85 0.95 23.85 0.8 23.95 0.6 24.05 0.9 M28.45 -4.0 L28.35 -4.05 29.25 -4.65 28.95 -4.25 28.85 -4.25 28.45 -4.0" fill="#52a529" fill-rule="evenodd" stroke="none"/>
      <path d="M19.2 -15.55 L19.5 -15.35 19.7 -15.3 19.9 -15.2 20.1 -14.8 20.2 -14.7 20.2 -14.6 20.45 -13.6 20.5 -13.55 20.5 -13.2 20.5 -12.75 20.5 -12.4 20.3 -11.95 Q20.15 -11.45 19.8 -11.1 L19.7 -11.1 19.45 -11.05 19.35 -11.0 19.25 -10.95 18.25 -11.05 18.15 -11.1 18.05 -11.25 17.85 -11.45 17.65 -11.65 Q17.4 -12.3 17.4 -13.0 17.4 -13.85 17.75 -14.6 L18.05 -14.95 18.4 -15.4 18.5 -15.45 18.9 -15.55 19.2 -15.55 M19.1 -14.25 L18.95 -14.2 18.8 -14.1 18.75 -13.05 18.85 -12.25 18.85 -12.2 18.9 -12.1 18.95 -11.95 Q19.5 -12.3 19.65 -13.0 L19.7 -13.5 19.4 -14.05 19.1 -14.25 M18.35 -13.5 L18.3 -12.75 18.3 -12.3 18.35 -12.25 18.45 -12.15 18.4 -13.05 18.35 -13.5 M15.85 -7.8 L15.95 -7.85 16.1 -7.85 19.0 -7.3 20.0 -7.15 Q22.15 -6.95 24.3 -7.2 L24.6 -7.25 25.5 -7.25 26.5 -7.4 27.85 -7.45 29.3 -7.15 29.45 -7.0 29.45 -6.3 29.4 -5.85 Q29.2 -4.4 28.0 -3.2 L26.65 -2.1 24.55 -1.55 24.5 -1.5 24.3 -1.5 23.85 -1.45 21.65 -1.5 21.45 -1.55 20.0 -1.85 19.8 -1.95 19.65 -2.0 18.65 -2.3 Q17.5 -3.1 16.55 -4.3 L16.0 -5.15 15.9 -5.35 15.6 -6.45 15.6 -6.7 15.6 -7.15 15.6 -7.35 15.7 -7.45 15.7 -7.6 15.85 -7.8 M16.05 -9.1 L15.8 -9.1 15.8 -9.15 16.05 -9.1 M27.1 -15.55 L27.35 -15.35 27.45 -15.35 27.5 -15.3 27.55 -15.25 27.6 -15.2 27.9 -14.8 28.1 -14.5 28.1 -14.45 28.15 -14.4 28.2 -14.35 28.2 -14.3 28.25 -14.1 28.35 -13.6 28.35 -13.55 28.35 -13.2 28.35 -12.75 28.35 -12.4 28.2 -11.95 27.65 -11.1 27.55 -11.1 27.3 -11.05 27.2 -11.0 27.15 -10.95 26.15 -11.05 26.0 -11.1 25.9 -11.25 25.75 -11.45 25.55 -11.65 Q25.25 -12.3 25.25 -13.0 25.25 -13.85 25.65 -14.6 L25.9 -14.95 26.25 -15.35 26.75 -15.55 27.1 -15.55 M26.8 -14.2 L26.65 -14.1 26.65 -13.05 26.7 -12.25 26.75 -12.2 26.75 -12.1 26.85 -11.95 Q27.35 -12.3 27.5 -13.0 L27.6 -13.5 27.25 -14.05 Q27.1 -14.25 26.95 -14.25 L26.8 -14.2 M26.2 -13.5 L26.15 -12.75 26.15 -12.3 26.25 -12.25 26.3 -12.15 26.25 -13.05 26.2 -13.5 M23.0 -0.4 L22.95 -0.45 22.95 -0.55 Q22.85 -0.65 22.9 -0.85 L22.8 -1.2 22.8 -1.3 24.15 -1.25 24.1 -0.7 24.2 0.05 24.25 0.2 24.25 0.35 24.25 0.4 24.25 2.35 24.2 2.4 23.75 2.8 23.7 2.8 23.6 2.8 23.4 2.75 23.35 2.25 23.15 1.25 23.1 0.65 23.0 -0.4 M28.25 -4.05 L28.3 -4.15 28.5 -4.35 28.3 -4.2 28.25 -4.05 M26.4 -2.45 L26.0 -2.2 26.85 -2.65 26.4 -2.45" fill="#f5fade" fill-rule="evenodd" stroke="none"/>
      <path d="M20.0 -14.3 L20.35 -12.95 Q20.35 -12.15 20.0 -11.65 19.65 -11.05 19.1 -11.05 18.6 -11.05 18.2 -11.65 17.85 -12.15 17.85 -12.95 17.85 -13.75 18.2 -14.3 L19.1 -14.85 Q19.65 -14.85 20.0 -14.3 M19.35 -8.35 Q20.2 -8.0 21.05 -7.75 L25.75 -8.4 26.15 -8.5 29.05 -8.35 29.05 -8.3 29.05 -8.2 29.05 -8.15 28.95 -8.1 28.55 -8.15 25.2 -8.0 22.0 -7.55 21.9 -7.55 21.45 -7.45 21.4 -7.4 21.4 -7.35 21.3 -7.35 20.9 -7.15 20.8 -7.2 20.8 -7.25 20.75 -7.3 20.7 -7.4 20.7 -7.45 20.65 -7.45 20.15 -7.65 19.95 -7.75 17.9 -8.4 15.85 -9.0 15.85 -9.1 19.35 -8.35 M26.85 -14.75 Q27.4 -14.75 27.75 -14.2 28.1 -13.65 28.1 -12.85 28.1 -12.05 27.75 -11.55 27.4 -10.95 26.85 -10.95 26.3 -10.95 25.95 -11.55 25.6 -12.05 25.6 -12.85 25.6 -13.65 25.95 -14.2 26.3 -14.75 26.85 -14.75" fill="#660000" fill-rule="evenodd" stroke="none"/>
      <path d="M16.35 -10.75 L17.55 -10.95 18.8 -10.75 19.3 -10.2 18.8 -9.7 17.55 -9.45 16.35 -9.7 Q15.85 -9.9 15.85 -10.2 15.85 -10.55 16.35 -10.75 M27.95 -9.45 L27.25 -9.5 26.75 -9.7 Q26.25 -9.9 26.25 -10.2 26.25 -10.55 26.75 -10.75 L27.25 -10.9 27.95 -10.95 29.2 -10.75 Q29.7 -10.55 29.7 -10.2 L29.2 -9.7 27.95 -9.45" fill="#ffcc99" fill-rule="evenodd" stroke="none"/>
    </g>
  </defs>
</svg>
