<?xml version="1.0" encoding="UTF-8" standalone="no"?>
<svg xmlns:ffdec="https://www.free-decompiler.com/flash" xmlns:xlink="http://www.w3.org/1999/xlink" ffdec:objectType="frame" height="22.75px" width="42.2px" xmlns="http://www.w3.org/2000/svg">
  <g transform="matrix(1.0, 0.0, 0.0, 1.0, -1.45, -3.55)">
    <use ffdec:characterId="1" height="22.75" transform="matrix(1.0, 0.0, 0.0, 1.0, 1.45, 3.55)" width="42.2" xlink:href="#shape0"/>
  </g>
  <defs>
    <g id="shape0" transform="matrix(1.0, 0.0, 0.0, 1.0, -1.45, -3.55)">
      <path d="M42.85 25.1 L42.85 26.3 Q41.7 23.45 39.9 20.65 38.05 17.85 36.25 18.0 34.4 18.15 31.75 16.3 29.1 14.4 27.95 14.05 26.75 13.65 26.9 12.2 L26.9 12.15 26.8 12.1 Q26.8 13.3 26.25 14.0 L21.45 13.4 Q19.75 13.4 18.3 13.9 17.55 13.55 17.6 13.2 L15.4 14.95 Q13.05 16.45 11.4 17.15 L9.05 17.25 Q8.35 16.65 7.95 17.25 L5.5 20.8 4.95 21.7 Q3.65 23.85 2.95 25.65 L2.85 25.9 2.8 26.0 2.8 25.9 2.8 25.7 2.8 25.65 2.75 25.15 2.75 25.0 2.75 24.85 Q2.7 22.15 3.25 19.7 4.25 14.8 7.5 10.85 L8.55 9.6 10.5 7.75 Q11.55 7.05 12.65 6.5 17.35 3.9 21.85 3.6 L22.65 3.6 23.2 3.6 Q28.15 3.75 32.6 6.55 L36.55 9.65 37.1 10.15 37.15 10.2 Q40.5 13.9 41.9 18.5 42.8 21.6 42.85 25.1 M18.75 10.75 L18.8 10.7 18.75 10.7 18.75 10.75 M26.65 10.6 L26.8 11.85 26.95 11.9 26.95 11.8 Q27.0 10.65 26.65 10.6 M25.3 5.75 Q24.85 5.75 24.7 6.05 L24.6 6.3 24.55 6.4 24.55 6.45 24.55 6.55 24.65 6.9 Q24.85 7.3 25.3 7.3 L25.85 7.15 26.05 6.8 26.05 6.65 26.05 6.55 26.05 6.45 Q26.0 5.75 25.3 5.75 M21.6 6.2 Q21.45 5.75 20.9 5.75 20.15 5.75 20.15 6.5 L20.25 6.9 Q20.45 7.25 20.9 7.25 21.65 7.25 21.65 6.5 L21.6 6.2" fill="#1d6864" fill-rule="evenodd" stroke="none"/>
      <path d="M40.75 20.6 L42.85 25.1 42.85 26.3 Q41.7 23.45 39.9 20.65 38.05 17.85 36.25 18.0 34.4 18.15 31.75 16.3 29.1 14.4 27.95 14.05 26.75 13.65 26.9 12.2 L26.9 12.15 27.25 12.15 26.8 11.9 26.8 11.85 26.95 11.9 26.95 11.8 Q27.2 11.6 27.05 11.2 L26.85 10.6 Q26.55 10.25 23.9 9.9 21.2 9.55 18.85 10.8 L18.55 11.9 18.65 11.9 18.7 11.9 Q22.55 11.2 25.4 11.85 L26.8 12.1 Q26.8 13.3 26.25 14.0 L21.45 13.4 Q19.75 13.4 18.3 13.9 17.55 13.55 17.6 13.2 L15.4 14.95 Q13.05 16.45 11.4 17.15 L9.05 17.25 Q8.35 16.65 7.95 17.25 L5.5 20.8 4.95 21.7 Q3.65 23.85 2.95 25.65 L2.85 25.9 2.8 26.0 2.8 25.9 2.8 25.7 2.8 25.65 2.75 25.15 2.75 25.0 Q3.35 22.9 4.35 21.15 L3.65 20.25 3.25 19.7 Q4.25 14.8 7.5 10.85 L8.6 12.9 Q10.8 10.85 14.2 9.75 L13.1 10.25 13.4 10.15 14.7 9.6 13.75 9.2 Q10.85 8.65 8.55 9.6 L10.5 7.75 Q11.55 7.05 12.65 6.5 15.45 6.45 17.7 7.8 L18.2 8.45 18.65 8.35 21.85 7.9 22.0 7.9 22.65 7.85 22.65 3.6 23.2 3.6 23.2 7.8 27.7 8.5 Q29.7 6.65 32.6 6.55 L36.55 9.65 34.65 8.85 Q32.9 8.05 29.85 9.15 32.85 10.3 35.5 11.9 L36.0 12.25 37.1 10.15 37.15 10.2 Q40.5 13.9 41.9 18.5 L40.75 20.6 M27.55 11.7 L27.3 11.7 27.25 11.9 27.3 12.0 29.25 12.75 Q32.2 13.85 33.25 14.6 L34.55 15.4 34.6 15.5 34.5 15.25 34.45 15.25 34.55 15.4 34.3 15.2 34.4 15.2 34.45 15.25 34.45 15.2 Q34.8 14.4 35.05 14.5 33.35 13.05 31.35 12.15 L28.05 10.85 27.55 11.7 M27.35 8.65 L27.35 8.7 27.5 8.7 27.35 8.65 M24.4 8.5 L23.2 8.4 18.6 8.9 18.45 8.95 18.7 9.8 25.25 9.55 26.6 9.8 27.05 9.15 27.25 8.95 26.85 8.75 26.8 8.75 25.35 8.6 24.4 8.5 M32.55 10.9 L32.1 10.7 Q31.3 10.25 29.0 9.55 L28.4 10.35 Q30.65 11.0 32.65 12.3 L33.1 12.45 34.6 13.45 35.1 13.7 35.45 12.9 35.15 12.4 32.55 10.9 M16.5 11.4 L16.1 11.35 Q14.2 11.8 12.65 12.75 10.85 13.8 9.95 15.05 L10.2 15.4 10.4 15.9 Q12.4 14.4 14.65 13.3 16.85 12.15 18.55 11.9 17.5 11.95 16.75 11.35 L16.5 11.4 M15.25 10.0 L13.8 10.5 Q11.0 11.55 8.9 13.35 L9.55 14.45 Q11.3 12.65 14.05 11.55 L15.25 11.15 16.15 10.8 15.25 10.0 M18.8 10.7 L18.75 10.7 18.75 10.75 18.8 10.7 M18.5 12.0 L18.7 11.9 18.55 11.9 18.5 12.0" fill="#000000" fill-opacity="0.49803922" fill-rule="evenodd" stroke="none"/>
      <path d="M20.85 6.0 L20.7 5.9 Q20.55 6.0 20.55 6.25 20.55 6.75 21.0 6.75 L21.35 6.4 21.2 6.15 21.1 6.2 21.05 6.5 20.8 6.45 20.85 6.0 M25.65 6.05 L25.35 5.9 25.2 5.9 25.2 6.0 25.4 6.15 25.5 6.35 25.3 6.55 25.1 6.25 25.0 6.5 Q25.0 6.8 25.35 6.8 L25.8 6.35 25.65 6.05 M24.85 5.85 L25.0 5.8 25.15 5.75 25.3 5.75 Q25.8 5.75 25.95 6.1 26.0 6.75 25.55 7.1 L25.05 7.1 25.0 7.05 Q24.5 6.5 24.85 5.85 M20.2 6.15 Q20.35 5.75 20.9 5.75 21.2 5.75 21.4 5.9 L21.5 6.4 21.25 6.95 20.5 6.9 20.45 6.8 20.2 6.15" fill="#ffffff" fill-rule="evenodd" stroke="none"/>
      <path d="M25.65 6.05 L25.8 6.35 25.35 6.8 Q25.0 6.8 25.0 6.5 L25.1 6.25 25.3 6.55 25.5 6.35 25.4 6.15 25.2 6.0 25.2 5.9 25.35 5.9 25.65 6.05 M20.85 6.0 L20.8 6.45 21.05 6.5 21.1 6.2 21.2 6.15 21.35 6.4 21.0 6.75 Q20.55 6.75 20.55 6.25 20.55 6.0 20.7 5.9 L20.85 6.0 M25.95 6.1 L26.05 6.55 Q26.05 7.3 25.3 7.3 24.85 7.3 24.65 6.9 L24.55 6.55 Q24.55 6.05 24.85 5.85 24.5 6.5 25.0 7.05 L25.05 7.1 25.55 7.1 Q26.0 6.75 25.95 6.1 M21.4 5.9 L21.65 6.5 Q21.65 7.25 20.9 7.25 20.45 7.25 20.25 6.9 L20.15 6.5 20.2 6.15 20.45 6.8 20.5 6.9 21.25 6.95 21.5 6.4 21.4 5.9" fill="#a8a8a8" fill-rule="evenodd" stroke="none"/>
      <path d="M14.5 3.85 L14.55 3.8 Q14.7 3.7 15.15 4.1 L15.7 4.6 17.0 6.05 16.9 6.2 16.1 5.4 15.75 5.0 15.6 5.2 Q15.1 4.25 14.5 3.85 M7.0 5.8 L6.9 5.55 6.85 5.3 Q6.85 4.7 7.4 4.8 7.9 4.95 7.95 5.4 L7.15 4.9 7.15 5.0 Q6.9 5.3 7.0 5.8 M2.15 11.95 L1.95 11.45 1.75 11.5 Q1.5 11.95 1.5 10.55 1.5 9.65 1.7 9.45 L2.15 11.95" fill="#fefdfc" fill-rule="evenodd" stroke="none"/>
      <path d="M15.6 5.2 L15.55 5.2 Q14.85 5.15 14.35 4.25 L14.35 3.9 14.4 3.95 14.5 3.85 Q15.1 4.25 15.6 5.2 M7.95 5.4 L7.95 5.5 7.9 5.65 7.35 5.65 7.05 5.8 7.0 5.8 Q6.9 5.3 7.15 5.0 L7.15 4.9 7.95 5.4 M1.7 9.45 L2.0 9.35 Q2.45 9.55 2.25 10.65 L2.15 11.05 2.25 11.75 2.2 11.95 2.15 11.95 1.7 9.45" fill="#fae191" fill-rule="evenodd" stroke="none"/>
      <path d="M19.8 9.15 L19.85 9.55 19.9 10.55 Q20.0 12.75 18.65 14.6 L17.4 16.1 15.65 17.6 14.4 18.45 13.95 18.7 13.5 18.95 13.4 19.0 13.35 19.0 13.1 19.15 12.95 19.2 11.05 19.7 8.9 20.0 7.7 19.95 6.2 19.8 5.8 19.7 Q3.5 19.15 2.35 17.7 L1.8 16.85 1.55 13.3 1.45 11.5 Q2.0 9.8 3.35 8.35 L5.05 6.85 Q5.55 6.45 6.25 6.0 L8.3 5.0 8.2 5.0 10.2 4.45 15.5 4.7 17.3 6.35 18.1 7.2 19.8 9.15 M15.55 7.7 Q14.4 7.1 12.3 7.1 10.15 7.1 7.75 8.65 5.35 10.2 4.6 11.75 3.95 13.05 3.8 13.95 L3.75 14.3 3.7 15.55 Q4.55 16.3 5.95 16.65 L6.75 16.8 9.1 16.75 10.0 16.65 10.15 16.6 11.65 16.15 11.75 16.1 11.85 16.05 11.85 16.0 11.9 16.0 12.0 15.95 12.4 15.85 13.5 15.25 14.1 14.85 Q16.0 13.75 16.9 12.4 17.7 11.15 17.7 9.8 L17.75 9.85 17.7 9.75 17.7 9.7 17.15 8.65 15.55 7.7" fill="#1d6864" fill-rule="evenodd" stroke="none"/>
      <path d="M17.65 9.55 Q17.9 12.6 14.1 14.85 L12.4 15.85 11.9 16.0 10.15 16.6 9.1 16.75 6.75 16.8 Q3.25 16.3 2.55 13.55 1.9 10.8 4.05 8.55 L5.35 7.35 6.3 6.75 Q7.05 6.25 7.9 5.95 L8.4 5.75 9.2 5.5 14.85 5.75 Q17.45 6.65 17.65 9.55" fill="#ffffff" fill-opacity="0.29803923" fill-rule="evenodd" stroke="none"/>
      <path d="M13.0 4.6 Q14.2 4.7 15.1 5.2 16.0 5.65 17.15 6.85 L18.8 8.5 19.85 9.55 19.9 10.55 Q20.0 12.75 18.65 14.6 L17.4 16.1 15.65 17.6 14.4 18.45 13.95 18.7 13.5 18.95 13.4 19.0 13.35 19.0 13.1 19.15 12.95 19.2 11.05 19.7 8.9 20.0 7.7 19.95 6.2 19.8 5.8 19.7 Q3.5 19.15 2.35 17.7 L2.4 17.45 Q2.75 15.4 2.25 13.6 1.75 11.9 2.4 10.55 L2.4 10.45 Q2.85 9.45 3.55 8.7 L5.4 6.95 6.8 6.0 8.35 5.3 10.5 4.75 13.0 4.6 M17.7 9.75 L17.7 9.7 17.15 8.65 15.55 7.7 Q14.4 7.1 12.3 7.1 10.15 7.1 7.75 8.65 5.35 10.2 4.6 11.75 3.95 13.05 3.8 13.95 L3.75 14.3 3.7 15.55 Q4.55 16.3 5.95 16.65 L6.75 16.8 9.1 16.75 10.0 16.65 10.15 16.6 11.65 16.15 11.75 16.1 11.85 16.05 11.85 16.0 11.9 16.0 12.0 15.95 12.4 15.85 13.5 15.25 14.1 14.85 Q16.0 13.75 16.9 12.4 17.7 11.15 17.7 9.8 L17.75 9.85 17.7 9.75 M14.45 17.95 L14.7 17.8 17.45 15.55 Q18.3 14.45 17.65 11.8 L15.25 14.7 13.5 15.8 14.45 17.95 M6.1 17.15 L6.15 17.3 Q6.65 18.6 7.65 19.6 L10.85 19.4 12.95 18.75 13.0 18.75 12.2 16.45 12.1 16.45 12.05 16.5 12.0 16.5 11.9 16.55 8.9 17.3 6.1 17.15" fill="#000000" fill-opacity="0.4" fill-rule="evenodd" stroke="none"/>
      <path d="M14.4 5.6 L14.55 5.65 15.25 5.95 16.4 6.7 16.75 7.1 16.65 7.1 16.0 9.65 15.3 12.65 13.0 11.5 13.7 8.7 14.4 5.6 M12.65 5.25 Q12.5 5.15 12.85 5.2 L14.05 5.45 12.8 10.05 12.35 11.25 11.1 10.75 11.7 8.6 12.65 5.25 M10.35 5.3 L11.85 5.15 10.4 10.45 7.7 9.15 8.1 8.15 9.1 5.5 10.35 5.3" fill="#ffffff" fill-opacity="0.91764706" fill-rule="evenodd" stroke="none"/>
      <path d="M17.45 9.4 L17.9 9.5 18.6 10.0 19.7 11.1 Q20.45 11.8 20.3 12.05 L20.3 12.1 20.2 12.1 18.35 10.45 17.45 9.4 M3.95 15.25 L4.25 16.85 4.35 19.7 4.25 19.75 Q3.9 19.55 3.75 18.35 L3.7 16.35 3.75 15.7 3.95 15.25 M14.25 19.2 L14.1 19.2 13.5 18.3 Q12.5 16.75 12.5 15.25 13.4 16.4 13.85 17.9 L14.25 19.2" fill="#ffffff" fill-opacity="0.9882353" fill-rule="evenodd" stroke="none"/>
      <path d="M17.45 9.4 L18.35 10.45 20.2 12.1 20.3 12.1 20.05 12.35 19.5 11.9 18.6 11.0 17.65 10.25 Q17.05 9.75 17.2 9.5 17.3 9.4 17.45 9.4 M4.25 19.75 L4.35 19.7 4.25 16.85 3.95 15.25 4.15 15.2 Q4.45 15.2 4.5 16.1 L4.5 17.4 4.65 18.95 4.7 19.7 4.25 19.75 M14.1 19.2 L13.95 19.2 13.5 18.65 13.4 18.5 13.15 17.95 13.1 17.85 13.0 17.55 12.8 17.25 12.2 15.7 Q12.1 15.25 12.3 15.15 L12.4 15.15 12.5 15.15 12.6 15.2 12.65 15.2 13.55 16.75 14.45 18.9 14.35 19.15 14.25 19.2 13.85 17.9 Q13.4 16.4 12.5 15.25 12.5 16.75 13.5 18.3 L14.1 19.2" fill="#fae190" fill-opacity="0.9882353" fill-rule="evenodd" stroke="none"/>
      <path d="M42.95 11.95 L42.9 11.95 42.85 11.75 42.95 11.05 42.85 10.65 Q42.65 9.55 43.1 9.35 L43.4 9.45 Q43.05 10.5 42.95 11.95 M38.1 5.8 L38.05 5.8 37.75 5.65 37.2 5.65 37.15 5.5 37.15 5.4 Q37.5 5.1 37.95 4.9 L37.95 5.0 Q38.2 5.3 38.1 5.8 M29.5 5.2 Q30.0 4.25 30.6 3.85 L30.7 3.95 30.75 3.9 30.75 4.25 Q30.25 5.15 29.55 5.2 L29.5 5.2" fill="#fae191" fill-rule="evenodd" stroke="none"/>
      <path d="M42.95 11.95 Q43.05 10.5 43.4 9.45 43.6 9.65 43.6 10.55 43.6 11.95 43.35 11.5 L43.15 11.45 42.95 11.95 M38.1 5.8 Q38.2 5.3 37.95 5.0 L37.95 4.9 Q37.5 5.1 37.15 5.4 37.2 4.95 37.7 4.8 38.25 4.7 38.25 5.3 L38.2 5.55 38.1 5.8 M29.5 5.2 L29.35 5.0 29.0 5.4 28.2 6.2 28.1 6.05 29.4 4.6 29.95 4.1 Q30.4 3.7 30.55 3.8 L30.6 3.85 Q30.0 4.25 29.5 5.2" fill="#fefdfc" fill-rule="evenodd" stroke="none"/>
      <path d="M41.4 15.55 L41.35 14.3 41.3 13.95 40.5 11.75 Q39.75 10.2 37.35 8.65 34.95 7.1 32.8 7.1 30.7 7.1 29.55 7.7 L27.95 8.65 27.4 9.7 27.4 9.75 27.35 9.85 27.4 9.8 Q27.4 11.15 28.2 12.4 29.1 13.75 31.0 14.85 L31.6 15.25 32.7 15.85 33.1 15.95 33.2 16.0 33.25 16.0 33.25 16.05 33.35 16.1 33.45 16.15 34.95 16.6 35.1 16.65 36.0 16.75 38.35 16.8 39.15 16.65 Q40.55 16.3 41.4 15.55 M43.3 16.85 L42.75 17.7 Q41.6 19.15 39.3 19.7 L38.9 19.8 37.4 19.95 36.2 20.0 34.05 19.7 32.15 19.2 32.0 19.15 31.75 19.0 31.7 19.0 31.6 18.95 31.15 18.7 30.7 18.45 29.45 17.6 27.7 16.1 26.45 14.6 Q25.1 12.75 25.2 10.55 L25.25 9.55 25.3 9.15 27.0 7.2 27.8 6.35 29.6 4.7 34.9 4.45 36.9 5.0 36.8 5.0 38.85 6.0 40.05 6.85 41.75 8.35 Q43.1 9.8 43.65 11.5 L43.55 13.3 43.3 16.85" fill="#1d6864" fill-rule="evenodd" stroke="none"/>
      <path d="M41.05 8.55 Q43.2 10.8 42.55 13.55 41.85 16.3 38.35 16.8 L36.0 16.75 34.95 16.6 33.2 16.0 32.7 15.85 31.0 14.85 Q27.2 12.6 27.45 9.55 27.65 6.65 30.25 5.75 L35.9 5.5 36.7 5.75 37.2 5.95 38.8 6.75 39.75 7.35 41.05 8.55" fill="#ffffff" fill-opacity="0.29803923" fill-rule="evenodd" stroke="none"/>
      <path d="M42.75 17.7 Q41.6 19.15 39.3 19.7 L38.9 19.8 37.4 19.95 36.2 20.0 34.05 19.7 32.15 19.2 32.0 19.15 31.75 19.0 31.7 19.0 31.6 18.95 31.15 18.7 30.7 18.45 29.45 17.6 27.7 16.1 26.45 14.6 Q25.1 12.75 25.2 10.55 L25.25 9.55 26.3 8.5 27.95 6.85 Q29.1 5.65 30.0 5.2 L32.1 4.6 34.6 4.75 36.75 5.3 38.3 6.0 39.7 6.95 41.55 8.7 42.7 10.45 42.7 10.55 Q43.35 11.9 42.85 13.6 42.35 15.4 42.7 17.45 L42.75 17.7 M41.4 15.55 L41.35 14.3 41.3 13.95 40.5 11.75 Q39.75 10.2 37.35 8.65 34.95 7.1 32.8 7.1 30.7 7.1 29.55 7.7 L27.95 8.65 27.4 9.7 27.4 9.75 27.35 9.85 27.4 9.8 Q27.4 11.15 28.2 12.4 29.1 13.75 31.0 14.85 L31.6 15.25 32.7 15.85 33.1 15.95 33.2 16.0 33.25 16.0 33.25 16.05 33.35 16.1 33.45 16.15 34.95 16.6 35.1 16.65 36.0 16.75 38.35 16.8 39.15 16.65 Q40.55 16.3 41.4 15.55 M38.35 17.3 L35.95 17.3 33.7 16.85 33.1 16.5 33.05 16.5 33.0 16.45 32.9 16.45 32.1 18.75 32.15 18.75 34.25 19.4 37.45 19.6 Q38.45 18.6 38.95 17.3 L38.35 17.3 M31.6 15.8 L29.85 14.7 Q28.9 13.95 27.45 11.8 26.8 14.45 27.65 15.55 L30.4 17.8 30.65 17.95 31.6 15.8" fill="#000000" fill-opacity="0.4" fill-rule="evenodd" stroke="none"/>
      <path d="M41.15 15.25 L41.35 15.7 41.4 16.35 41.35 18.35 Q41.2 19.55 40.85 19.75 L40.75 19.7 40.85 16.85 Q40.85 15.9 41.15 15.25 M24.8 12.1 L24.8 12.05 Q24.65 11.8 25.4 11.1 L26.5 10.0 27.2 9.5 27.65 9.4 26.75 10.45 24.9 12.1 24.8 12.1 M30.85 19.2 Q30.8 19.0 31.25 17.9 31.7 16.4 32.6 15.25 32.6 16.75 31.6 18.3 L31.0 19.2 30.85 19.2" fill="#ffffff" fill-opacity="0.9882353" fill-rule="evenodd" stroke="none"/>
      <path d="M41.15 15.25 Q40.85 15.9 40.85 16.85 L40.75 19.7 40.85 19.75 40.4 19.7 Q40.25 19.6 40.45 18.95 L40.6 17.4 40.6 16.1 Q40.65 15.2 40.95 15.2 L41.15 15.25 M27.65 9.4 L27.9 9.5 Q28.05 9.75 27.45 10.25 L26.5 11.0 25.6 11.9 25.05 12.35 24.8 12.1 24.9 12.1 26.75 10.45 27.65 9.4 M30.85 19.2 L30.75 19.15 30.65 18.9 31.55 16.75 Q32.05 15.5 32.45 15.2 L32.5 15.2 32.6 15.15 32.7 15.15 32.8 15.15 32.9 15.7 32.3 17.25 32.1 17.55 32.0 17.85 31.95 17.95 31.7 18.5 31.6 18.65 31.15 19.2 31.0 19.2 31.6 18.3 Q32.6 16.75 32.6 15.25 31.7 16.4 31.25 17.9 30.8 19.0 30.85 19.2" fill="#fae190" fill-opacity="0.9882353" fill-rule="evenodd" stroke="none"/>
      <path d="M41.9 9.45 L41.6 10.6 40.9 13.6 38.6 12.45 39.3 9.65 39.65 8.2 39.85 7.3 40.35 7.75 41.55 9.05 41.9 9.45 M39.5 7.05 L39.2 8.15 38.4 11.0 37.95 12.2 36.7 11.7 37.3 9.55 37.7 8.05 38.25 6.3 38.75 6.55 39.5 7.05 M35.75 5.4 L37.5 6.05 36.0 11.4 33.3 10.1 33.55 9.5 33.7 9.1 34.6 6.55 34.6 6.5 35.0 5.25 35.75 5.4" fill="#ffffff" fill-opacity="0.90588236" fill-rule="evenodd" stroke="none"/>
    </g>
  </defs>
</svg>
