<svg xmlns="http://www.w3.org/2000/svg" xmlns:ffdec="https://www.free-decompiler.com/flash" xmlns:xlink="http://www.w3.org/1999/xlink" ffdec:objectType="frame" width="82.4" height="87.1"><use ffdec:characterId="1" xlink:href="#a" width="82.4" height="87.1"/><defs><g id="a"><path fill="#fff" fill-rule="evenodd" d="m63.35 17.85.05-.2q2.25-5.4 6.05-9.2l.8 1.35 3.05 4.9q-3.1 4.25-6.75 7.95l-1.3 1.3q-.45-3.3-1.9-6.1M79.9 11l-1.5 4.1q-3.65 7.45-12.9 11.8V26q5.25-4.45 9.7-12.05l1.4-.55q1.9-1.05 3.3-2.4"/><path fill="#f75151" fill-rule="evenodd" d="M69.45 8.45Q74.05 3.8 80.9 1.5q-3.2 7.15-7.6 13.2l-3.05-4.9zm11.45-6.5q-.05 5.1-1 9.05-1.4 1.35-3.3 2.4l-1.4.55 1.7-3.1q2.45-4.7 4-8.9"/><path fill="#b22" fill-rule="evenodd" d="M80.9 1.5v.45q-1.55 4.2-4 8.9l-1.7 3.1-1.9.75q4.4-6.05 7.6-13.2"/><path fill="#c2b18c" fill-rule="evenodd" d="m65.25 23.95 1.3-1.3q3.65-3.7 6.75-7.95l1.9-.75q-4.45 7.6-9.7 12.05z"/><path fill="#432415" fill-rule="evenodd" d="m63.5 62.05.65.2q2.85 1.1 4.95 2.4l.8.45q-1.65 4.95-7.05 5.4l-3.15-.2.35-2.1.45.05q1.25 0 2.1-.9.9-.85.9-2.1zm9.65 6.05q1.45 1.85 1.85 3.8-2.9 6.75-9.25 7.6l-4.65-.2-.25-.05q-.8-1.55-1.15-3.55 6.35 1.65 11.1-4.1zm1.3 11.1q-.05 2.15.6 3.3l-.05.05q-1.35 2.15-3.2 3.05-2.85-.05-5.2-1.05l1.7-.55q3.55-1.2 6.15-4.8"/><path fill="#693e29" fill-rule="evenodd" d="M69.9 65.1q2.05 1.4 3.25 3l-2.35 3.5q-4.75 5.75-11.1 4.1-.3-2.45 0-5.4l3.15.2q5.4-.45 7.05-5.4m5.1 6.8q.3 1.65-.05 3.4-.45 2.3-.5 3.9-2.6 3.6-6.15 4.8l-1.7.55-.9-.45q-3.3-1.7-4.85-4.85l.25.05 4.65.2q6.35-.85 9.25-7.6m.05 10.6.3.5q.9.95 2.65 1.45-.85.95-4.7 1.15h-1.5q1.85-.9 3.2-3.05z"/><path fill="#5b3523" fill-rule="evenodd" d="M5.85 17.55 6.9 23.4q1.45-1.95 3.9-4.15 4.85-4.35 9.75-5.5-2.4-3.1-6.2-4.9 4.55-2.6 10.15-2.6h20q5.55 0 10.05 2.5-3.95 1.8-6.4 5 4.9 1.15 9.75 5.5 2.45 2.2 3.9 4.15l1.1-5.95.05-.3.4.7q1.45 2.8 1.9 6.1L65.5 26v13.4l-1-.15h-1v26q0 1.25-.9 2.1-.85.9-2.1.9l-.45-.05-.55-.1V48.8l-.25-.65q.6-1 .45-2.55 1.7-1.5.3-3.8.95-.8 1.1-2.5.15-1.75-.85-3t-2.05-1.35l-1.9.2q-.1-2.1-1.25-3.35-1.45-1.55-3.4-1.55-2.05 0-3.45 1.55l-.5.6-.45-.6q-1-1.05-2.4-1.05-1.45 0-2.45 1.05l-.05.15-1.4-.25q-1.3 0-2.35.6l-.75-.95q-1.6-1.75-3.95-1.75t-4.05 1.75l-.75 1.05-.2-.15q-.95-1.05-2.4-1.05-1.4 0-2.35 1l-.35-.45q-1.25-1.4-3.05-1.4-1.75 0-3 1.4-.55.55-.85 1.25l-.25-.35Q15.4 31.3 13.6 31.3q-1.75 0-3 1.35t-1.25 3.3l.05.7-.2.4q-.75.2-1.35.8-.95 1.1-.95 2.65 0 1.45.85 2.5v2.05q0 2.95 1.8 3.95l-.05.25V68.1l-1 .15q-1.25 0-2.15-.9-.85-.85-.85-2.1v-26h-1l-.95.15-.05-1.15v-11q0-5.35 2.35-9.7"/><path fill="#4d2918" fill-rule="evenodd" d="M65.5 39.4q.6.2 1.15.7.85.9.85 2.15v12q0 1.25-.85 2.1-.9.9-2.15.9h-1v-18h1zm-60 17.85h-1q-1.25 0-2.15-.9-.85-.85-.85-2.1v-12q0-1.25.85-2.15.55-.5 1.2-.7l.95-.15h1z"/><path fill="#6d412c" fill-rule="evenodd" d="m5.85 17.55-.05-.1q-.95-6.3-.35-8.1.65-1.8 2.7-2.1l1.9.1 3.7 1.2.6.3q3.8 1.8 6.2 4.9-4.9 1.15-9.75 5.5-2.45 2.2-3.9 4.15zm48.7-8.8.4-.2 3.7-1.2 1.9-.1q2.05.3 2.7 2.1.6 1.75-.3 7.8l-.05.3-1.1 5.95q-1.45-1.95-3.9-4.15-4.85-4.35-9.75-5.5 2.45-3.2 6.4-5"/><path fill="#e0ba69" fill-rule="evenodd" d="m56.5 49.75-.25.05-.3.15q-.95 1.1-2.4 1.1l-1.6-.45q-1.6 1.85-3.95 1.85t-4.05-1.85l-.75-1-.75 1.05q-1 1.1-2.4 1.1-1.45 0-2.45-1.1l-.65-.85-1 1.35q-1.6 1.8-3.95 1.8t-4-1.8q-.7-.75-1.1-1.6l-.55.6-.9.75Q24 52.45 21.9 52.45q-2.05 0-3.55-1.55l-.35-.5-.1.1q-1 1.05-2.4 1.05-1.45 0-2.45-1.05l-.55-.7-.1-.25h-.45q-1.45 0-2.4-.55-1.8-1-1.8-3.95V43q-.85-1.05-.85-2.5 0-1.55.95-2.65.6-.6 1.35-.8l.2-.4-.05-.7q0-1.95 1.25-3.3t3-1.35q1.8 0 3.05 1.35l.25.35q.3-.7.85-1.25 1.25-1.4 3-1.4 1.8 0 3.05 1.4l.35.45q.95-1 2.35-1 1.45 0 2.4 1.05l.2.15.75-1.05q1.7-1.75 4.05-1.75t3.95 1.75l.75.95q1.05-.6 2.35-.6l1.4.25.05-.15q1-1.05 2.45-1.05 1.4 0 2.4 1.05l.45.6.5-.6q1.4-1.55 3.45-1.55 1.95 0 3.4 1.55 1.15 1.25 1.25 3.35l1.9-.2q1.05.1 2.05 1.35t.85 3q-.15 1.7-1.1 2.5 1.4 2.3-.3 3.8.15 1.55-.45 2.55-.8 1.25-2.75 1.6"/><path fill="#b69758" fill-rule="evenodd" d="m59.5 68.1-.45.8q-.45.35-1.05.35t-1.05-.35-.45-.8V49.75q1.95-.35 2.75-1.6l.25.65zm-47-18.3v18.3l-.45.8q-.45.35-1.05.35l-1.05-.35-.45-.8V49.25l.05-.25q.95.55 2.4.55h.45z"/><path fill="none" stroke="#22c3f9" stroke-linecap="round" stroke-linejoin="round" stroke-width="3" d="m14.35 8.85-.6-.3-3.7-1.2-1.9-.1q-2.05.3-2.7 2.1-.6 1.8.35 8.1l.05.1L6.9 23.4q1.45-1.95 3.9-4.15 4.85-4.35 9.75-5.5-2.4-3.1-6.2-4.9 4.55-2.6 10.15-2.6h20q5.55 0 10.05 2.5l.4-.2 3.7-1.2 1.9-.1q2.05.3 2.7 2.1.6 1.75-.3 7.8l.4.7.05-.2q2.25-5.4 6.05-9.2Q74.05 3.8 80.9 1.5v.45q-.05 5.1-1 9.05l-1.5 4.1q-3.65 7.45-12.9 11.8v12.5q.6.2 1.15.7.85.9.85 2.15v12q0 1.25-.85 2.1-.9.9-2.15.9h-1v4.8l.65.2q2.85 1.1 4.95 2.4l.8.45q2.05 1.4 3.25 3 1.45 1.85 1.85 3.8.3 1.65-.05 3.4-.45 2.3-.5 3.9-.05 2.15.6 3.3l.3.5q.9.95 2.65 1.45-.85.95-4.7 1.15h-1.5q-2.85-.05-5.2-1.05l-.9-.45q-3.3-1.7-4.85-4.85-.8-1.55-1.15-3.55-.3-2.45 0-5.4l.35-2.1-.55-.1-.45.8q-.45.35-1.05.35t-1.05-.35-.45-.8V49.75l-.25.05-.3.15q-.95 1.1-2.4 1.1l-1.6-.45q-1.6 1.85-3.95 1.85t-4.05-1.85l-.75-1-.75 1.05q-1 1.1-2.4 1.1-1.45 0-2.45-1.1l-.65-.85-1 1.35q-1.6 1.8-3.95 1.8t-4-1.8q-.7-.75-1.1-1.6l-.55.6-.9.75Q24 52.45 21.9 52.45q-2.05 0-3.55-1.55l-.35-.5-.1.1q-1 1.05-2.4 1.05-1.45 0-2.45-1.05l-.55-.7v18.3l-.45.8q-.45.35-1.05.35l-1.05-.35-.45-.8-1 .15q-1.25 0-2.15-.9-.85-.85-.85-2.1v-8h-1q-1.25 0-2.15-.9-.85-.85-.85-2.1v-12q0-1.25.85-2.15.55-.5 1.2-.7l-.05-1.15v-11q0-5.35 2.35-9.7M73.3 14.7l-3.05-4.9-.8-1.35m-6.5 8.7-.05.3-1.1 5.95q-1.45-1.95-3.9-4.15-4.85-4.35-9.75-5.5 2.45-3.2 6.4-5m10.7 15.2 1.3-1.3q3.65-3.7 6.75-7.95 4.4-6.05 7.6-13.2M65.25 23.95q-.45-3.3-1.9-6.1m11.85-3.9 1.7-3.1q2.45-4.7 4-8.9M73.3 14.7l1.9-.75 1.4-.55q1.9-1.05 3.3-2.4M65.5 26.9V26l-.25-2.05M9.55 49q-1.8-1-1.8-3.95V43q-.85-1.05-.85-2.5 0-1.55.95-2.65.6-.6 1.35-.8l.2-.4-.05-.7q0-1.95 1.25-3.3t3-1.35q1.8 0 3.05 1.35l.25.35q.3-.7.85-1.25 1.25-1.4 3-1.4 1.8 0 3.05 1.4l.35.45q.95-1 2.35-1 1.45 0 2.4 1.05l.2.15.75-1.05q1.7-1.75 4.05-1.75t3.95 1.75l.75.95q1.05-.6 2.35-.6l1.4.25.05-.15q1-1.05 2.45-1.05 1.4 0 2.4 1.05l.45.6.5-.6q1.4-1.55 3.45-1.55 1.95 0 3.4 1.55 1.15 1.25 1.25 3.35l1.9-.2q1.05.1 2.05 1.35t.85 3q-.15 1.7-1.1 2.5 1.4 2.3-.3 3.8.15 1.55-.45 2.55l.25.65v19.3m-.25-19.95q-.8 1.25-2.75 1.6m7 7.5v-18h1l1 .15m-5.45 28.8.45.05q1.25 0 2.1-.9.9-.85.9-2.1v-3.2m-3.8 8.25 3.15.2q5.4-.45 7.05-5.4m3.25 3-2.35 3.5q-4.75 5.75-11.1 4.1M12.5 49.8l-.1-.25h-.45q-1.45 0-2.4-.55l-.05.25V68.1m65.55 14.4-.05.05q-1.35 2.15-3.2 3.05m-10.95-6.35.25.05 4.65.2q6.35-.85 9.25-7.6m-8.4 12.65 1.7-.55q3.55-1.2 6.15-4.8m.75-65.25q-4.45 7.6-9.7 12.05M3.55 39.4l.95-.15h1v18"/><path fill="#fff" fill-rule="evenodd" d="m69.45 8.45.8 1.35 3.05 4.9q-3.1 4.25-6.75 7.95-3.05 3.1-5.6 5.05.2-4.7 2.45-10.05 2.25-5.4 6.05-9.2M79.9 11l-1.5 4.1q-4.2 8.55-15.8 13 6.95-4.5 12.6-14.15l1.4-.55q1.9-1.05 3.3-2.4"/><path fill="#f75151" fill-rule="evenodd" d="m73.3 14.7-3.05-4.9-.8-1.35Q74.05 3.8 80.9 1.5q-3.2 7.15-7.6 13.2m1.9-.75 1.7-3.1q2.45-4.7 4-8.9-.05 5.1-1 9.05-1.4 1.35-3.3 2.4z"/><path fill="#b22" fill-rule="evenodd" d="M73.3 14.7q4.4-6.05 7.6-13.2v.45q-1.55 4.2-4 8.9l-1.7 3.1z"/><path fill="#c2b18c" fill-rule="evenodd" d="M60.95 27.7q2.55-1.95 5.6-5.05 3.65-3.7 6.75-7.95l1.9-.75Q69.55 23.6 62.6 28.1l-1.7.6z"/><path fill="#432415" fill-rule="evenodd" d="M69.9 65.1q-1.65 4.95-7.05 5.4l-3.15-.2q.45-3.9 2.1-8.75l2.35.7q2.85 1.1 4.95 2.4zM59.7 75.7q6.35 1.65 11.1-4.1l2.35-3.5q1.45 1.85 1.85 3.8-2.9 6.75-9.25 7.6l-4.65-.2-.25-.05q-.8-1.55-1.15-3.55m14.75 3.5q-.05 2.15.6 3.3l-.05.05q-1.35 2.15-3.2 3.05-2.85-.05-5.2-1.05l1.7-.55q3.55-1.2 6.15-4.8"/><path fill="#693e29" fill-rule="evenodd" d="m59.7 70.3 3.15.2q5.4-.45 7.05-5.4 2.05 1.4 3.25 3l-2.35 3.5q-4.75 5.75-11.1 4.1-.3-2.45 0-5.4M75 71.9q.3 1.65-.05 3.4-.45 2.3-.5 3.9-2.6 3.6-6.15 4.8l-1.7.55-.9-.45q-3.3-1.7-4.85-4.85l.25.05 4.65.2q6.35-.85 9.25-7.6m.05 10.6.3.5q.9.95 2.65 1.45-.85.95-4.7 1.15h-1.5q1.85-.9 3.2-3.05z"/><path fill-opacity=".298" fill-rule="evenodd" d="M63.1 61.4q0 .9 1.2.9 3.05 3.15 3.05 7.1l-.4 3.5q-.4 2.3-.4 4.95-.05 2.6 3.65 4.45 3.65 1.8 5.3 2.1 1.6.3 1.75.55L76 85.3l-1.75.25-1.4.05-1.7-.05q-5.45-.3-8.55-3.7l-.95-1.15q-1.2-2-1.65-3.85-.5-1.85-.4-2.8l-.1-.75q.05-1.7.25-3.2.3-2.55.5-1.95 0-1.05-.55-1.2l.3-3.2-.2-.65-.25-.7q0-2.05 1.2-2.2 1-.15 2.4 1z"/><path fill="#5b3523" fill-rule="evenodd" d="m3.55 39.4-.05-1.15v-11q0-8.7 6.15-14.85T24.5 6.25h20q8.7 0 14.85 6.15t6.15 14.85V39.4l-1-.15h-1v26q0 1.25-.9 2.1-.85.9-2.1.9l-1-.15V48.8l-.45-.8q-.45-.35-1.05-.35t-1.05.35l-.2.25H13.5l-2-.1v.05l-.5-.05q-.6 0-1.05.3l-.45.8V68.1l-1 .15q-1.25 0-2.15-.9-.85-.85-.85-2.1v-26h-1z"/><path fill="#4d2918" fill-rule="evenodd" d="m3.55 39.4.95-.15h1v18h-1q-1.25 0-2.15-.9-.85-.85-.85-2.1v-12q0-1.25.85-2.15.55-.5 1.2-.7M63.5 57.25v-18h1l1 .15q.6.2 1.15.7.85.9.85 2.15v12q0 1.25-.85 2.1-.9.9-2.15.9z"/><path fill="#b69758" fill-rule="evenodd" d="M9.5 68.1V49.25l.45-.8q.45-.3 1.05-.3l.5.05.55.25.45.8V68.1l-.45.8q-.45.35-1.05.35l-1.05-.35zm47.25-19.85.2-.25q.45-.35 1.05-.35t1.05.35l.45.8v19.3l-.45.8q-.45.35-1.05.35t-1.05-.35-.45-.8V48.8z"/><path fill-opacity=".298" fill-rule="evenodd" d="m64.85 40.5.45 1 .15 6.4-.05.15.15 2-.05 2q0 3.1-1.45 4.45l-.6.7.1-1.1v-4.2l.05-1.6.05-.15v-3.8l-.1-5.05v-1.8h.25zm-59.2-1.25-.1 16.1q.15 1.55-.25 1.75l-.65-.7q-.75-1.2-1-3.5l-.1-1-.05-.8q-.2-3.35.15-7.7l.25-1.55q.25-1.4 1-2.05zM13.6 9.05q.55 0 2.15-1.05l2.65-.9 3-.55.7-.15-.35.75q-.55 1.35-.55 2.6V11l.4 1.4q.4 1 1.05 1.65l.8.8-2.65.7q-4.3 1.6-7.95 4.75-1.75 1.5-3.55 4.6l-1 1.6-2.65 1.55L4.2 29.1l-.75.85.05-1.15q-.1-2.05.15-3.75l.25-2.1.45-1.8L5.4 18.3q.65-1.4.6-1.5l.1-.25 1.7.65 5.2-6.55q-.65-.3-.65-1 0-.45.55-.95.1.35.7.35m1.55 2.55h-.1l-2.35 2.55-2.45 3-.1.1 2.9-1.45q2.45-1.2 2.85-1.2.85 0 .55.65 2.25-1.25 3.7-1.4-.65-.1-1.25-.9-.5-.75-.3-1.15l-1.55-.25-1.1-.25-.4.15q-.2.15-.4.15M51.6 7.35l2.15.95q1.75.85 1.75 1.75t-.9.85q-.25 0-.45-.15l-.4-.15-1.15.25-1.6.25q.2.4-.3 1.15l-.8 1.2q4.1 1 9 5.65l1.4 1.35.55-.65q.95-1.25.95-1.9.15-.95 1-.9l.15.05.8 1.65 1.15 3.35.6 4.35v1.75h-.05l-1.75-1.4q-2.1-1.6-3-1.9L59.5 23q-.9-1.3-3.6-3.85-2.7-2.6-7.15-4.25l-3.3-.75.65-.6.6-.8.15-.25q1.15-2 1.2-3.1.05-1-.45-2.1l-1-.95 3.4.55zm10 14.55v-.5q0-.35-.55-.2H61zm-6.15 11.05q-.55-2.8-3.3-2.8-2.05 0-3.5 1l.3 1.65q0 1.45-1.05 1.45-.8 0-1.15-1.7v-.1h-.05q-1.05 0-1.05-1.1l.05-.25-1.35-.3.55.45.25.65-.2.6q-.3.4-.8.4l-.25-.05q-.2.65-1 .6-.65 0-.9-.7l-2.55.15-1.1-.2-.1.1q-.3.45-.85.45-1 0-1.2-.9v-.2l-.1-.55q-1.75-.95-2.4-.95-2 0-3 1.1l-.2.2q-.05 1.15-1.05 1.15l-.55-.3h-.35l-1.15-.25-2.25-.25.05.45q0 1.4-1.05 1.4-.4 0-1.55-2.15l-.15-.3-.05-.1-1.75-.55-1.95-.4-.2 1.7-.35.85q0 1.05-1.05 1l-.65-.5-.35-.25-.65-.6-.15-.2-.3.2q-.55 0-.8-.3l-1.95.65q-.5.2-.65.9l-.4 1.35-1.05 2.3q-.95 1.6-2.15 1.9l.15.4q.55-.05.7.65v.6l.15.2.05.1q1.1 1.4 1.1 1.7 0 1-1.05 1-.7 0-1.3-.55l-.05.25q0 2.1 1.8 3.25.45-.2.75.45 1.5.8 1.95 1.25.2.4.55.5l-.7.45-1.35.25v.7l-.1 3L10.4 69h-.15q-.25 0-.45-.35l-.2-.55q-1 .45-1.05-.4l-.05.6q.25-10.5.15-10.45V49.8l-.8-.6-1.05-1.5q-.35-.8-.35-2.7l.25-1.65.25-.8-.35-.8-.1-.25-.25-.8-.3-1.65q0-2.1 1.85-3.75l.05-.2-.2-.85q.05-5.25 5.25-4.8l2.1.4 1.2-1.1q2.5-1.95 4.6-1.05 1.4.45 2.55 1.65l.35-.2q1.65-.9 2.95-.45l1.2.4 1.1-1.1q.85-.95 3.9-1.15T38 29.7l2-.35 1.25.05q1.95-1.6 3.7-1.05 1.75.45 2.3 1.15l.5-.35q2.1-1.4 3.6-1.4 3.85-.05 5.45 2.75.6 1.2.75 2.8l.2-.05q2.1-.55 3.6 1 .8.55 1.3 1.85l.5 2.05-.4 2.05q-.4 1.3-1.4 2.1.55.65.5 1.8-.1 1.1-.65 1.75l-.55.6-.05.1-.25.65-.1.9.1 8.65-.05.65v.1l.15 1.4v2.7l.1 6.05.15.6-.35.15-.55-.35-.1.3-.6.4-.4.4v.05h-.5l.05-1.45-.1 1.45q-.05-6.75.05-6.4l-.05-1.5-.05-2.35.05-.55.1-2.55V50.3l-1.6.35q-.15-.15-.15-.55l-.2-.95q-.2-.55-.6.15l-.4.45-.2.25-.05-.4q0-.7 1.45-1.2l-.3-.4q-.35-.3-.35-.85 0-.7 2-1.4l.15-.05.25-.25-.2-.65-.45-1.4q0-1.1 1.1-1.05l.55.1q-.55-.8-.55-1.25 0-.75.8-1.05l.35-.05q.7-.95.7-1.9l-.3-1.65q-.4-.95-1.05-1.2.65 1.1.65 2.6l-.2.6q-.3.45-.9.45-.8 0-1.2-1.85l-.15-.5q-.35.75-1.25.7-1 0-1-1.1l.25-1-.7-.05q-1.2 0-1.2-1.05 0-1.7 1.95-1.2m2.65 40-.1.55.05-.55z"/><path fill="#fff" fill-opacity=".086" fill-rule="evenodd" d="M12 22.55q1.05-1.95 3.15-3 2.15-1.1 3.65-.3l.6.55.5 1q.6 2.2-.8 4.1-1.25 1.6-2.6 1.85l-2 .1-1.35-.4-1-.65-.45-.9q-.25-1.25.3-2.35"/><path fill="#6d412c" fill-rule="evenodd" d="M13.75 8.55q4.2 1.85 6.8 5.2-4.9 1.15-9.75 5.5-2.45 2.2-3.9 4.15l-1.1-5.95q-.95-6.3-.35-8.1.65-1.8 2.7-2.1l1.9.1zM61.8 23.4q-1.45-1.95-3.9-4.15-4.85-4.35-9.75-5.5 2.6-3.35 6.8-5.2l3.7-1.2 1.9-.1q2.05.3 2.7 2.1.6 1.8-.35 8.1z"/><path fill="#e0ba69" fill-rule="evenodd" d="M55.95 49.95q-.95 1.1-2.4 1.1l-1.6-.45q-1.6 1.85-3.95 1.85t-4.05-1.85l-.75-1-.75 1.05q-1 1.1-2.4 1.1-1.45 0-2.45-1.1l-.65-.85-1 1.35q-1.6 1.8-3.95 1.8t-4-1.8q-.7-.75-1.1-1.6l-.55.6-.9.75Q24 52.45 21.9 52.45q-2.05 0-3.55-1.55l-.35-.5-.1.1q-1 1.05-2.4 1.05-1.45 0-2.45-1.05l-.65-.95h-.45q-4.2 0-4.2-4.5V43q-.85-1.05-.85-2.5 0-1.55.95-2.65.6-.6 1.35-.8l.2-.4-.05-.7q0-1.95 1.25-3.3t3-1.35q1.8 0 3.05 1.35l.25.35q.3-.7.85-1.25 1.25-1.4 3-1.4 1.8 0 3.05 1.4l.35.45q.95-1 2.35-1 1.45 0 2.4 1.05l.2.15.75-1.05q1.7-1.75 4.05-1.75t3.95 1.75l.75.95q1.05-.6 2.35-.6l1.4.25.05-.15q1-1.05 2.45-1.05 1.4 0 2.4 1.05l.45.6.5-.6q1.4-1.55 3.45-1.55 1.95 0 3.4 1.55 1.15 1.25 1.25 3.35l1.9-.2q1.05.1 2.05 1.35t.85 3q-.15 1.7-1.1 2.5 1.4 2.3-.3 3.8.3 3.65-3.45 4.2z"/><path fill-opacity=".298" fill-rule="evenodd" d="M55.35 40.65v.45q0 1.1-.45 2.1l-1.05 1.4q-1.45 1.5-3.5 1.5-1.9 0-3.3-1.25l-.55-.6q-.9-1.05-1.1-2.4l-.05-.75.05-.45q.1 1.7 1.4 3 1.5 1.5 3.55 1.5t3.5-1.5q1.3-1.3 1.5-3m.7 6.7q.85.75 1.8.85.8.05 1.2-.5l.6-.95q-.1 1-.6 1.75l-.9.7q-.7.25-1.05.45l-.65.1q-.25-.05-.4.15l-1.1.85-1.4.35-1.55-.4q-.3.05-.85.65-.5.55-1.2.6l-1.3.4-1.05.15-1.65-.45q-1.2-.45-2.05-1.55l-.75-.8-.85 1.15q-.75.85-1.95.9-1.6.1-2.5-.75l-.9-1.05-1.1 1.25q-1.3 1.55-3.85 1.75-2.05.15-3.7-1.4-1.25-1.2-1.35-1.95l-1.75 1.55q-1.25 1.15-3.45 1.25-1.75.1-2.95-.95l-.85-1q-1.1 1.1-2.6 1.1-1 0-1.85-.6l-1.2-1.35-1.45-.1-1.5-.65-1.15-1.2-.4-.95-.1-1.35.2-.7q.6 1.4 1.65 2.2l.75.45q1.2.5 2.35.5l1.1-.15.5 1.2q.45.6 1.55.55 1.1-.1 2-.7.8-.65.95-.65 1.45 2.45 2.85 2.45 2.2 0 3.75-1.6 1.15-1.6 1.4-1.6l1.45 1.65q1.45 1.65 4.4 1.65 1.8 0 3.45-1.65l1.3-1.65.9 1.1q.85 1.1 1.75 1.1 2.25 0 2.9-1.7l.35-.6.1-.05 1.25 1.55q1.25 1.55 3.75 1.55.95 0 2.15-.95l1.05-1 .9.5.9.45q2.95 0 2.7-1.9m-33.95-6.7v.45l-.45 2.1-1.05 1.4q-1.45 1.5-3.5 1.5-1.9 0-3.3-1.25l-.55-.6q-.9-1.05-1.1-2.4l-.05-.75.05-.45q.1 1.7 1.4 3 1.5 1.5 3.55 1.5t3.5-1.5q1.3-1.3 1.5-3"/><path fill="#8c5400" fill-rule="evenodd" d="m45.4 40.65-.05-.5q0-2.05 1.45-3.55 1.5-1.45 3.55-1.45t3.5 1.45q1.5 1.5 1.5 3.55v.5q-.2 1.7-1.5 3-1.45 1.5-3.5 1.5t-3.55-1.5q-1.3-1.3-1.4-3m7.35 1.95.15-.15.15-.4q.6-.85.6-1.9 0-1.35-1-2.35-.95-.95-2.3-.95T48 37.8q-.95 1-.95 2.35 0 1.25.8 2.15l.1.15.15.15.45.3q.8.55 1.8.55l1.75-.5zM17.1 36.85q-1.35 0-2.35.95-.95 1-.95 2.35 0 1.25.8 2.15l.1.15.15.15.45.3q.8.55 1.8.55.95 0 1.75-.5l.65-.35.15-.15.15-.4q.6-.85.6-1.9 0-1.35-1-2.35-.95-.95-2.3-.95m-4.95 3.8-.05-.5q0-2.05 1.45-3.55 1.5-1.45 3.55-1.45t3.5 1.45q1.5 1.5 1.5 3.55v.5q-.2 1.7-1.5 3-1.45 1.5-3.5 1.5t-3.55-1.5q-1.3-1.3-1.4-3"/><path fill="#a87000" fill-rule="evenodd" d="m52.75 42.6-.65.35-1.75.5q-1 0-1.8-.55l-.45-.3-.15-.15-.1-.15q-.8-.9-.8-2.15 0-1.35.95-2.35 1-.95 2.35-.95t2.3.95q1 1 1 2.35 0 1.05-.6 1.9l-.15.4zm-3.7-1.05 1.3-1.25-1.45-1.45 1.45 1.45 1.45-1.45-1.45 1.45 1.3 1.25-1.3-1.25zm-31.95-4.7q1.35 0 2.3.95 1 1 1 2.35 0 1.05-.6 1.9l-.15.4-.15.15-.65.35q-.8.5-1.75.5-1 0-1.8-.55l-.45-.3-.15-.15-.1-.15q-.8-.9-.8-2.15 0-1.35.95-2.35 1-.95 2.35-.95m-1.3 4.7 1.3-1.25-1.45-1.45 1.45 1.45zm2.6 0-1.3-1.25 1.45-1.45-1.45 1.45z"/><path fill="none" stroke="#fff" stroke-linecap="round" stroke-linejoin="round" d="m48.9 38.85 1.45 1.45 1.45-1.45m-1.45 1.45 1.3 1.25m-1.3-1.25-1.3 1.25m-30.5-2.7L17.1 40.3l1.3 1.25m-2.75-2.7 1.45 1.45-1.3 1.25"/></g></defs></svg>