<?xml version="1.0" encoding="UTF-8" standalone="no"?>
<svg xmlns:ffdec="https://www.free-decompiler.com/flash" xmlns:xlink="http://www.w3.org/1999/xlink" ffdec:objectType="frame" height="30.9px" width="51.5px" xmlns="http://www.w3.org/2000/svg">
  <g transform="matrix(1.0, 0.0, 0.0, 1.0, 3.1, 7.95)">
    <use ffdec:characterId="1" height="30.9" transform="matrix(1.0, 0.0, 0.0, 1.0, -3.1, -7.95)" width="51.5" xlink:href="#shape0"/>
  </g>
  <defs>
    <g id="shape0" transform="matrix(1.0, 0.0, 0.0, 1.0, 3.1, 7.95)">
      <path d="M21.1 15.05 L39.35 15.05 Q30.2 17.5 21.1 15.05" fill="#700000" fill-rule="evenodd" stroke="none"/>
      <path d="M3.55 15.05 L21.1 15.05 Q30.2 17.5 39.35 15.05 L40.1 15.05 Q41.15 17.25 38.2 19.75 L34.75 22.3 29.15 21.35 22.9 20.7 17.7 21.05 14.55 21.75 11.3 22.05 Q6.75 19.05 3.55 15.05" fill="#333333" fill-rule="evenodd" stroke="none"/>
      <path d="M40.1 15.05 L45.25 15.05 45.35 15.95 45.75 15.6 Q46.65 14.95 48.4 15.05 44.1 20.5 41.95 21.45 39.8 22.35 37.1 22.75 L37.05 22.75 34.1 22.9 32.2 22.5 Q25.5 21.15 22.7 21.1 19.85 21.2 13.3 22.5 L12.8 22.65 12.4 22.75 9.05 22.85 8.45 22.75 8.05 22.7 Q5.5 22.25 3.55 21.45 1.4 20.5 -2.9 15.05 -1.15 14.95 -0.25 15.6 L0.15 15.95 0.25 15.05 3.55 15.05 Q6.75 19.05 11.3 22.05 L14.55 21.75 17.7 21.05 22.9 20.7 29.15 21.35 34.75 22.3 38.2 19.75 Q41.15 17.25 40.1 15.05" fill="#000000" fill-rule="evenodd" stroke="none"/>
      <path d="M17.45 -7.7 L21.85 -7.95 28.5 -7.55 26.05 -7.05 Q24.1 -6.55 22.8 -5.75 L22.7 -5.75 22.55 -5.75 22.35 -5.75 Q21.3 -6.6 19.8 -7.1 L17.45 -7.7 M30.65 -7.15 Q37.9 -5.8 42.0 -0.65 47.9 6.75 48.4 15.75 L40.4 17.0 Q40.3 13.65 39.75 10.8 39.25 8.3 38.35 5.85 37.4 3.35 35.3 0.85 32.65 -2.25 29.55 -3.85 26.4 -5.45 24.9 -5.55 23.35 -5.7 23.7 -5.9 L26.05 -6.65 30.65 -7.15 M39.1 17.15 Q24.85 18.6 6.55 16.95 L6.95 13.3 Q7.35 8.85 9.45 4.5 10.9 1.5 13.4 -0.8 17.15 -4.2 21.45 -5.4 L22.15 -5.45 22.2 -5.5 23.0 -5.5 24.7 -5.2 24.9 -5.15 26.55 -4.7 Q28.7 -4.0 31.7 -1.25 34.65 1.5 36.1 4.5 38.2 8.85 38.6 13.3 L39.1 17.15 M5.15 16.85 L-3.1 15.9 Q-2.95 7.45 2.35 -0.15 5.95 -5.4 13.75 -7.1 L14.9 -7.15 18.85 -6.85 Q20.5 -6.65 21.8 -5.75 19.15 -5.75 16.2 -4.05 12.9 -2.25 10.25 0.85 8.15 3.35 7.2 5.85 6.3 8.3 5.8 10.8 5.25 13.7 5.15 16.85" fill="#ffffff" fill-rule="evenodd" stroke="none"/>
      <path d="M13.75 -7.1 L17.45 -7.7 19.8 -7.1 Q21.3 -6.6 22.35 -5.75 L22.55 -5.75 22.7 -5.75 22.8 -5.75 Q24.1 -6.55 26.05 -7.05 L28.5 -7.55 30.65 -7.15 26.05 -6.65 23.7 -5.9 Q23.35 -5.7 24.9 -5.55 26.4 -5.45 29.55 -3.85 32.65 -2.25 35.3 0.85 37.4 3.35 38.35 5.85 39.25 8.3 39.75 10.8 40.3 13.65 40.4 17.0 L39.3 17.15 39.1 17.2 39.1 17.15 38.6 13.3 Q38.2 8.85 36.1 4.5 34.65 1.5 31.7 -1.25 28.7 -4.0 26.55 -4.7 L24.9 -5.15 24.7 -5.2 23.0 -5.5 22.2 -5.5 22.15 -5.45 21.45 -5.4 Q17.15 -4.2 13.4 -0.8 10.9 1.5 9.45 4.5 7.35 8.85 6.95 13.3 L6.55 16.95 5.15 16.85 Q5.25 13.7 5.8 10.8 6.3 8.3 7.2 5.85 8.15 3.35 10.25 0.85 12.9 -2.25 16.2 -4.05 19.15 -5.75 21.8 -5.75 20.5 -6.65 18.85 -6.85 L14.9 -7.15 13.75 -7.1" fill="#c9c9c9" fill-rule="evenodd" stroke="none"/>
      <path d="M14.95 -0.45 Q14.95 -0.7 15.5 -1.2 L16.2 -1.65 16.45 -1.3 15.25 -0.15 15.05 -0.2 14.95 -0.45 M19.75 -3.4 Q19.75 -3.95 21.5 -4.05 L21.55 -3.8 21.0 -3.5 20.0 -3.1 19.75 -3.4 M17.15 -2.2 L17.85 -2.8 Q18.55 -3.15 18.8 -3.15 L18.85 -2.9 18.25 -2.35 Q17.65 -1.95 17.45 -1.95 L17.25 -2.0 17.15 -2.2 M24.35 -3.65 L24.35 -3.55 24.15 -3.5 22.8 -3.6 Q22.55 -3.7 22.55 -3.95 L22.8 -4.1 24.0 -4.1 24.35 -3.65 M26.95 -3.3 L26.95 -3.05 26.65 -3.0 25.9 -3.25 25.25 -3.6 Q25.5 -4.0 26.2 -3.8 L26.95 -3.3 M30.15 -0.75 Q30.6 -0.75 31.35 -0.25 L32.05 0.55 32.0 0.8 31.75 0.85 30.95 0.35 30.15 -0.5 30.15 -0.75 M29.55 -1.5 L29.25 -1.4 Q28.95 -1.4 28.35 -1.85 L27.65 -2.6 28.65 -2.3 29.55 -1.7 29.55 -1.5 M33.85 2.65 L33.6 2.8 32.95 2.35 32.45 1.7 Q32.75 1.3 33.3 1.9 L33.85 2.65 M35.35 5.5 L35.1 5.6 34.25 4.0 Q34.25 3.8 34.5 3.7 35.35 4.45 35.35 5.5 M35.75 7.75 L35.35 6.75 Q35.95 6.45 36.25 7.2 L36.55 8.35 36.3 8.45 35.75 7.75 M37.05 11.05 Q36.95 11.15 36.8 11.2 36.25 10.75 36.25 9.55 L36.5 9.25 36.9 9.8 37.05 10.45 37.05 11.05 M37.55 14.15 L37.3 14.25 37.05 14.15 Q37.15 13.15 36.75 12.5 L37.35 12.55 37.55 13.15 37.55 14.15 M37.85 16.05 L37.85 16.9 37.95 17.05 37.95 17.8 37.7 17.95 Q37.45 17.85 37.45 17.35 L37.55 17.1 Q37.25 16.45 37.25 15.6 37.25 15.2 37.5 15.05 L37.75 15.5 37.85 16.05 M12.95 1.4 Q12.95 1.2 13.45 0.75 L14.1 0.25 14.35 0.55 13.3 1.75 12.95 1.4 M12.45 2.4 L11.95 3.3 11.3 4.15 11.05 3.8 11.35 3.0 Q11.7 2.25 12.35 2.2 L12.45 2.4 M10.85 5.05 L10.5 6.0 10.0 6.8 9.75 6.5 Q9.75 6.15 10.05 5.55 10.3 4.9 10.6 4.75 L10.85 5.05 M9.15 8.25 Q9.4 7.6 9.8 7.55 L9.85 7.8 9.65 8.6 9.45 9.5 9.2 9.6 8.95 9.35 8.95 9.1 9.15 8.25 M9.05 10.95 L8.95 11.95 8.75 12.0 Q8.45 11.9 8.45 11.55 L8.65 10.85 8.95 10.35 9.05 10.95 M8.65 13.1 L8.45 14.65 8.2 14.8 7.95 14.3 Q7.95 12.95 8.55 12.85 L8.65 13.1 M7.6 17.05 L7.55 16.65 7.6 16.0 Q7.75 15.4 8.2 15.35 L8.25 15.6 8.05 17.15 7.85 17.25 7.6 17.05" fill="#333333" fill-rule="evenodd" stroke="none"/>
    </g>
  </defs>
</svg>
