<svg xmlns="http://www.w3.org/2000/svg" xmlns:ffdec="https://www.free-decompiler.com/flash" xmlns:xlink="http://www.w3.org/1999/xlink" ffdec:objectType="frame" width="57.7" height="62.4"><use ffdec:characterId="1" xlink:href="#a" width="57.7" height="62.4"/><defs><g id="a" fill-rule="evenodd"><path fill="#77d9ff" d="m11.85 18.15-.05.05v-.05z"/><path fill="#fff" d="M47.1 5.85h.1l.9 1.3-.05-.05H48q-2.9-2.1-6.85-3-4-.9-6.2-.95l-3.55.15q-5.3.75-8.55 2.55l-.1.05.25-.7.25-.15.8-.45q2.8-1.5 8.45-2.1l2.7-.05q6.35.9 8.05 1.65l3.8 1.7zm1.7 3.1-.05-.05.15.25-.05-.05-.25-.3-.05-.05L48 8.3q-1.65-1.25-5.75-2.4-4.1-1.2-7.8-1.1l-2.05.1q-4.7.35-9.95 3h-.05l.05-.05h.05l.05-.1-.1.05.1-.75V7h.05l.1-.1 1.9-.95q1.7-.85 6.5-1.65l4.55-.1Q40 4.45 43 5.5q2.95 1.05 4.15 1.75L48.4 8l-.2-.1z"/><path fill="#af2828" d="m45.1 3.7 2 2.15-.05-.05-3.8-1.7q-1.7-.75-8.05-1.65l-2.7.05q-5.65.6-8.45 2.1l-.8.45q.55-.95 1.25-1.65 2.55-1.2 5.55-1.65l3.8-.35H34q6.45.15 11.1 2.3m3.8 5.45q.15.25-.4-.1l-2.25-1.3-1.45-.7-4.9-1.45-2-.3-4.45-.1-3.4.25-2.35.5-4.15 1.5v.05l-.7.2-.5.3.05-.05V7.9h.05q5.25-2.65 9.95-3l2.05-.1q3.7-.1 7.8 1.1 4.1 1.15 5.75 2.4l.55.45.05.05.25.35V9.1zM48 7.1l.4.9-1.25-.75q-1.2-.7-4.15-1.75-3-1.05-7.35-1.3l-4.55.1q-4.8.8-6.5 1.65l-1.9.95q-.1-.5.15-1.05 3.25-1.8 8.55-2.55l3.55-.15q2.2.05 6.2.95 3.95.9 6.85 3"/><path fill="#720000" d="m45.1 3.7 1 .5-.85-.5 2.45 1.5.2.1q5.1 3.55 7.25 7.95 2.15 4.45 2.55 7.9l-2-3.45-2.35-2.9q-1.75-1.9-3.7-3.5l-.5-.4-.5-.4-1.35-1q-.7-.45-1.4-.8-3.55-1.9-8.05-2.4L34 6.1l-3.95.3q-3.95.65-7.7 2.95-2.15 1.25-4.2 3.05-2.65 2.3-4.55 5.15-.85 1.2-1.55 2.55l.75-2.4.55-1.6.1-.2q2.45-3.3 4.4-4.8 2.75-2.15 3.95-2.85l.6-.35.05-.05-.05.05v.05l-.05.05.5-.3.7-.2v-.05l4.15-1.5 2.35-.5 3.4-.25 4.45.1 2 .3 4.9 1.45 1.45.7 2.25 1.3q.55.35.4.1l-.15-.25.05.05.05.05.05.05.1.1.65.55.1.05 3.55 3.4 2.7 3.5 1.4 3.15.1.1-.65-1.9-1.45-3.4-1.8-3.3-1.15-1.5-1.85-1.7q-1.35-1.2-3.4-2.25h-.1zM17.25 9.1q3-3.8 7.25-5.7-.7.7-1.25 1.65L23 5.2q-2.2 1.25-4.15 2.65-.95.65-1.6 1.25M48 7.1h.05l.05.05Q51 9.2 52 10.35l1.55 2.05q.55.9-1.3-1.2-1.65-1.85-4.05-3.3l.2.1zm.85 2v.05l-.25-.35zm-26-3.25q-.25.55-.15 1.05l-.1.1q-2.85 1.8-4.95 3.35l-1.9 1.55q1.8-2.2 3.25-3.35l3.65-2.6.1-.05z"/><path fill="#d2aca8" d="M47.2 5.85q2.05 1.05 3.4 2.25l1.85 1.7 1.15 1.5 1.8 3.3 1.45 3.4.65 1.9-.1-.1-1.4-3.15-2.7-3.5-3.55-3.4-.1-.05-.65-.55-.1-.1-.05-.05-.05-.05-.6-1.05q2.4 1.45 4.05 3.3 1.85 2.1 1.3 1.2L52 10.35q-1-1.15-3.9-3.2zm-24.75 2-.05.05-.6.35q-1.2.7-3.95 2.85-1.95 1.5-4.4 4.8l-.05.1q1.05-3.1 1.55-3.95.45-.85 1.25-1.85l1.05-1.1q.65-.6 1.6-1.25Q20.8 6.45 23 5.2l-.25.7-.1.05L19 8.55q-1.45 1.15-3.25 3.35l1.9-1.55Q19.75 8.8 22.6 7h-.05v.05l-.1.75.1-.05-.05.1z"/><path fill="#720000" d="m10.2 12.55.65-.6 1.8-1.2q.4-.25-.2.05l-.55.25-1.2.35-1.85.45-.9.15-2.35.25v-.8q0-1.2-.15-2.15l-.1-.6-.2-.95-.1-.55.1-1 .3-2.2.95-4 .75.1-.1.75V.9H7l-.7.05-.1.25-.05.2-.05.3.8-.3v-.05.2q-.55 2.9-.2 4.7.4 2.3 1.7 3.6l.75.4-2.75.55-.7.15.05.4v.2l4-.85.05-.05q2.75-.9 3.6-.9h1.1l.6-.05v-.5l-.7.05.05-.05h-.15q-.75-.15-1.65-.95L11.7 7.1q-.05-.4.9-.3.5.05 1.8.9l.2-.25q-.85-.6-1.4-.9l-.1-.05-.15-.1-1.15-.65-.85-.45-1.1-.8.05-.3 1.8.15 1.95 1L15.2 6.5l.15.05h.15l.1.1.2-.45.05-.45-.7-.65-.05-.05-.1-.25-.1-.1.2.05q.6.1.2-.4l-.05-.15 1 1.25-.15.35-.5 1.35-.4 2.05.05.6q.1.8.4.8l.6-.2h.6l1.1.75.6.35.05.05h.1l.25-.15.15-.25.15-.15-.2.45.1.15.2.3.45.7 1.55 1.9.6.45 1.85 1.35 1.95 1.15q-.65.7-.15 1.1-1.75-.7-3.15-1.75l-1.15-.9-1.45-1.55-.2-.25-.7-1-.15 1.25-.2 1.55-.8 4.55-1.3 5.45-.25.85-.1.35q.6-3.7.1-6.65l-.1-.45-.15-.7-.05-.2.05-.4.55-2.8.15-1.1.05-.45.05-3.45-.35.25-.15-.5-.35.15-.75.05-.35.05-.35.35q-1.05 1-2.15 2.45l-.3.35-.2.3-.2.3-.45.6-.45.6v.05l-.2.3-.55.05-1.5.35q-.95.2-1.95 1.1l.95-1.8.2-.35.8-1.2 1.5-1.5.95-.75-.45.25v.05l-.2.1-.35.25zM4.45 39.4l-.6 1.55-.15.25-.2.55-.4.75L1.9 39 .4 35.1l.7-.7.05.15 1.4 3.15 1.1 3.4.2-.35.15-.3-.3-1.1-.8-2.6-.9-2.7-.25-.55-.1-.15.05-.1.3-.65.55 1.35.15.75q.3 1.4.95 2.1zm.75 7.65L5.6 45l.6-1.9q0 6.1 2.9 10.2v.75l-.15-.4-1.6-2.4-1.6-2.7-.5-1.15-.05-.05v-.3M4.6 51l.1.15 2 3.5 2.5 3.65.1.95.6 2.9.15.25q-.8-.8-5.45-8.8zm.1-.65-.05-.05.2-1.55.05-.3.1.3.1.2 2.25 3.95 1.7 2.45.05 1.5-2-2.7L5 50.8l-.05-.1zm26-44.8h.05q.7.2.6.25h.05l-.4.8-.15.3v-.05l-.15-.35-.45-.05.05-.15.1-.1zm.05 1.6q-.55 1.25-.45 3.8.05 1.95-.95 3.4l-.05.05-1.6 1.5-.15.1q-1.05.65-1.6 1.2l.3-.3-1.3-.75-1.6-1-.2-.15-.5-.35.95.6.9.05-.3-.05 2.75-.8H27l.1-.05.15-.05.95-.5q.9-.5 1.4-1.4l.15-4.25.4-1.2.1.25q.2.25.3.1zm-9.4-.2.35.05 2.25.25.15.35q0 .45-.45.75-1.3-.35-2.35 0 .2.75 1.6 1.2l1.7.4q.45.1 1.15.75l.25.55-.2.2q-2.8.3-5.35-.7l-.2-.2-.05-.15h-.1l-.05-.1-.05.05-.2.3q-.1.3-.05.65l-.05.15-.05-.05-.05-.05-.15-.3-.05-.15-.15.1.3-.75.5-1.65.35-2.8-.15-.25.1-.1.05-.05.35.05.05.2-.05.35.15.4-.15.1h-.05v.1l-.15.2-.15.5-.1.5.4-.35.05-.1.15-.2.1.15v-.25q.15-.25.35-.15z"/><path fill="#af2828" d="m10.2 12.55-.25.2.35-.25h.05l.15-.1v-.05l.45-.25-.95.75-1.5 1.5-.8 1.2-.2.35-.95 1.8q1-.9 1.95-1.1l1.5-.35.55-.05-.5.8q-1.1 1.75-1.75 3.45l-1 3.15q-.85 3.65-1.65 9.85v.25l-.05.15-.1.85-.55 2.8-.3-.05-1-2.8L2.5 31.8l.35 2.85.5 1.1.3 1.05q-.65-.7-.95-2.1l-.15-.75L2 32.6l-.3.65-.05.1L1.4 33l-.6.7.3.7-.7.7-.4-.85q.25.15.9-.75l.4-.6.05-.1.35-.65.2-.45.7-1.8.85-2.6.7-2.9q.35-2.3 1-4.25l.1-.25.5-1.4.75-1.6.6-1 1.05-1.45.1-.1 1.15-1.2zm6.25-1.4.35-.25-.05 3.45-.05.45-.15 1.1-.55 2.8-.05.4.05.2.15.7.1.45q.5 2.95-.1 6.65l-2.45 7.6-.7 1.95-.85 2.4Q9.4 46.6 9.1 52.6v.7q-2.9-4.1-2.9-10.2L5.6 45l-.4 2.05-.15-.25-.15-.2-.2 1-.1.45.2.3h.05v.4l-.2 1.55q0-.5-.25-.75l-.1.5-.05.25.1.1v.15l.25.45v2.6l-.5-1 .05-1.55q.15-2.1.65-4.25l.4-1.6 1-3v-.1l.2-.45v-.05l.1-.25.65-1.5.25-.5 1.5-2.95.9-1.7q2.15-4.1 3.65-8.25l.3-.8 1.35-4.2.25-1 .2-.75.15-.7.1-.35v-.1l.45-2.65.2-1.55.05-.5.05-1.75zm2.8-.15-.15.15-.15.25-.25.15h-.1l-.05-.05-.6-.35-1.1-.75h-.6l-.6.2q-.3 0-.4-.8l-.05-.6.4-2.05.5-1.35.15-.35.3-.45.25-.05q.7.75 1.7.75l1.85-.25-.1.1.15.25-.35 2.8-.5 1.65zm-4-6.8.05.15q.4.5-.2.4l-.2-.05-2.8-2.2Q9.3.7 7.05.85l.1-.75q4.15.55 7 3.05zm.1 2.35-.15-.05-1.55-1.15-1.95-1-1.8-.15-.05.3 1.1.8.85.45 1.15.65.15.1.1.05q.55.3 1.4.9l-.2.25q-1.3-.85-1.8-.9-.95-.1-.9.3l.95 1.15q.9.8 1.65.95h-.5q-2.2.05-3.75.65l-.9.35H9.1l.05.05-.75-.4q-1.3-1.3-1.7-3.6-.35-1.8.2-4.7l.9-.15q1.65 0 5 2.75l1.95 1.7.5.6zm-12.95 25-.2-.3-.35.95.15.4.05-.1v-.05l.2-.5.15-.35.05.1v-.45zM20.75 6q1.6-1.1 9.65-.55l.3.1-.3.65-.1.1-6.25-.55-1.1.05q-.8.05-1.7.45l-.35.15zm9.35.8v.05l.05.1V7l-.4 1.2-.15 4.25q-.5.9-1.4 1.4l-.95.5-.15.05-.1.05h-.05l-2.75.8.3.05-.9-.05-.95-.6-.6-.45q-1.25-.9-2.15-2.4l-.2-.35.05-.15q-.05-.35.05-.65l.2-.3.05-.05.05.1h.1l.05.15.2.2q2.55 1 5.35.7l.2-.2-.25-.55q-.7-.65-1.15-.75l-1.7-.4q-1.4-.45-1.6-1.2 1.05-.35 2.35 0 .45-.3.45-.75l-.15-.35L21.7 7l-.35-.05 1.6-.4 3.1-.2 2.2.15 1.8.4z"/><path fill="#fff" d="m21.95 14.95-.6-.45-1.55-1.9-.45-.7.1-.2.15-.35.05.05.05.05.2.35q.9 1.5 2.15 2.4l.6.45.5.35.2.15-.4-.15zM14.9 4.7l.1.1.1.25.1.4.2.95v.15h-.05l-.1-.1-.5-.6-1.95-1.7Q9.45 1.4 7.8 1.4l-.9.15v-.2.05L7 .9h.05V.85Q9.3.7 12.1 2.5zm-.6 4.5h.15l-.05.05-.5.5h-.5q-.85 0-3.6.9l-.05.05-.4-.4-.15-.05h-.05l-.05-.05h.05l.9-.35q1.55-.6 3.75-.65h.5M1.1 34.4l-.3-.7.6-.7.25.35.1.15-.6 1.05zm.9-1.8-.15-.4.35-.95.2.3v.05l-.15.35-.2.5v.05zm1.65 4.2-.3-1.05-.5-1.1-.35-2.85 1.15 2.85 1 2.8v.05H4.6l-.3-.2-.55-.45zm1.2 11.95v-.4H4.8l-.2-.3.1-.45.2-1 .15.2.15.25v.3l-.2 1.4-.1-.3zM4.6 51l-.25-.45v-.15l-.1-.1.05-.25.1-.5q.25.25.25.75l.05.05v.8zm6.6 8.45v.05l-.05-.1zM30.3 6.3l-.05.15-.1.3h-.05v.05l-.05.1-1.8-.4-2.2-.15-3.1.2-1.6.4V6.9q-.2-.1-.35.15v.25l-.1-.15-.2-.55v-.1h.05l.15-.1.35-.15q.9-.4 1.7-.45l1.1-.05z"/><path fill="#d2aca8" d="M25.75 17.45 23.8 16.3l-1.85-1.35 1 .05.4.15 1.6 1 1.3.75-.3.3zm-6.4-5.55-.2-.3-.1-.15.2-.45.15-.1.05.15.15.3-.15.35zM15.1 5.05l.05.05.7.65-.05.45-.2.45-.1-.1h-.1V6.4l-.2-.95zm-.7 4.2.7-.05v.5l-.6.05h-.6zM9.75 10.7l-4 .85v-.2l-.05-.4.7-.15 2.75-.55h.05l.15.05zM6.9 1.4l-.8.3.05-.3.05-.2.1-.25L7 .9zM4.8 38.1l.1.25-.3.5-.15.5v.05l-.8-2.6.1.05.55.45.3.2h.05zm-3.05-4.6.25.55.9 2.7.8 2.6.3 1.1-.15.3-.2.35-1.1-3.4-1.4-3.15zM5.2 47.35l.05.05.5 1.15 1.6 2.7 1.6 2.4.15.4.05.2-.1.45.05.2H9l.05.3.05.2-.05-.05-1.7-2.45-2.25-3.95-.1-.2zm-.5 3.8v-.8l.25.35.05.1 2.1 3.35 2 2.7.05.05v.2l.05.85v.35l-2.5-3.65zM30.85 6.9l-.1.25-.2.2q-.1.15-.3-.1l-.1-.25v-.05l-.05-.1.05-.1.1-.3.45.05.15.35zm-9.95.25-.15.2-.05.1-.4.35.1-.5.15-.5.15-.2z"/><path fill="#30a1d2" d="M13.8 9.2h.35-.35M2.4 31.55l.05-.3v.45l-.05-.1z"/><path fill="#4a0000" d="m4.95 37.5-.15.6-.15-.6v-.05zm4.1 17.7L9 54.9h.05zM30.1 6.8v-.05h.05l-.05.1z"/></g></defs></svg>