<svg xmlns="http://www.w3.org/2000/svg" xmlns:ffdec="https://www.free-decompiler.com/flash" xmlns:xlink="http://www.w3.org/1999/xlink" ffdec:objectType="frame" width="63.85" height="32.5"><use ffdec:characterId="1" xlink:href="#a" width="63.85" height="32.5"/><defs><g id="a" fill-rule="evenodd"><path fill="#cb7b00" d="m49.5 1.2.1.25-.1 1.5-.05.15-.7 3.8-.1 1.55v.05l.05.25.1.15.05.1.5.5.25.15.6-1.1q1-3.15 1.4-6.55h.05l.2-.5Q52.35.45 53.1.15l.35-.1h.75q-.15 3.15-1.65 5.8-1.6 2.9-2.55 5.85h.2q3.35-.95 5.65-3.1l3.1-3.05-.2.25-.05.05.75-.3-2.65 3.2-.25.85.4.3.05-.05 3.75-1.05v.15l.5.05h.2l2.05.3.3.25-2.4-.1-2.75.9q-.65.7-.55 2.05l.2.8q.2.75 1.25 1.25l2.45.85-6.75-.95-.05-.05q-.45-1-.5-2.2l-3.4 1.6-1.4-1.6-.2.6-1.5-3.75-.2-.7-.25-.3.6-3.2Q49 1.55 49.5 1.2M32.2 14.95 32 15l-.2-.05zm-1.85.5-2.5.7Q24 17.25 20.4 18.5q-3.6 1.2-8.5 3.45l-2.6 1.2q2.4-1.9 2.3-3l-.45-.4-.3-.2-.85-.15H8.4q2.25-1.2 5.05-2.35 3.9-1.65 11.5-3.9l3.4-1 .55-.15 2.1-.7-.35.2-1.75.75-1.1.7q-.55.6-.55 1.1 0 1.2 3.1 1.4"/><path fill="#f0c063" d="M51.6 2q-.4 3.4-1.4 6.55l-.6 1.1-.25-.15-.5-.5-.05-.1-.1-.15-.05-.25v-.05l.1-1.55.7-3.8.05-.15.1-1.5-.1-.25.1-.05zm-3.85 5.95.25.3.2.7 1.5 3.75.2-.6 1.4 1.6 3.4-1.6q.05 1.2.5 2.2l.05.05-1-.1h-3.9l-.95.15q-.45 0-1.1-2.75l-2.2.35-9.05 1.8-4.85 1.15h-.4l.2.05.25.05-.15.2-.75.2h-1q-3.1-.2-3.1-1.4 0-.5.55-1.1l1.1-.7 1.75-.75 6.8-1.7L47.7 8.15l.05-.1zM62 15.3l-2.45-.85q-1.05-.5-1.25-1.25l-.2-.8q-.1-1.35.55-2.05l2.75-.9 2.4.1.05.2-.3 2.1.15 1.65.15 1.5q0 .5-.45.5zm-1.25-6.5L57 9.85l-.05.05-.4-.3.25-.85 2.65-3.2.75-.3.45 1.55zm-1.8-3.25-3.1 3.05q-2.3 2.15-5.65 3.1H50q.95-2.95 2.55-5.85 1.5-2.65 1.65-5.8l1.65.75L58 2.35 59.65 4l-.45 1.05zM9.3 23.15l-2.55 1.2-.2-4 1.85-.95H10l.85.15.3.2.45.4q.1 1.1-2.3 3"/><path fill="#2b916c" d="M29.3 11.9q-.8-1 1.05-2.9 1.8-1.9 5.9-3.15 4.1-1.35 3.75-2.1l-.3-.45-.85-.15L34.5 4.4l-6.8 1.95-8.1 2.5q-3.65 1.1-6.05 2.15-2.4.95-3.1 1.55t-1.4 2l2.7-1.55q2.05-.95 5.45-1.85 3.35-.9 4.5-.6.85-.1.85 1.15v.4l-.15.55-1.1 1.6q-4.95 1.55-7.85 2.8-3.95 1.65-6.9 3.3L6.4 16.9l.25-1.55.3-.85q.3-.75 1.4-1.8Q9.4 11.65 11 11.3q2.5-1.4 6.45-2.75Q26.5 5.4 35.25 3.3l4.15-1v-.05h.25l.7.05.7.05q1.4.1 2.45.6.9.4 1.6 1.05l.45.55 2.1 3.25.15.35L37.45 9.8zm27.95.8q-.05 1.05-1.15 3.05-1.3 2.3-4.05 2.6l-7.1 1q-4.4.75-11.85 2.9-7.5 2.1-10 3.1l-4.05 1.6-3.7 1.45q-2.1.85-3.45 1.55l-3.6 1.8q-.75.75-3.15.75-2.2 0-3.6-1.6-1.4-1.65-1.5-2.75v-.25l.55-.05h.1l2.4-1.1 3.65-1.45 6.15-2.7q3-1.3 7.6-2.95L27.95 17q2.8-.95 6.5-1.8 3.65-.9 10.35-1.65l7.4-.7h3.3z"/><path fill="#005838" d="m21.3 14.25 1.1-1.6.15-.55v-.4q0-1.25-.85-1.15-1.15-.3-4.5.6-3.4.9-5.45 1.85l-2.7 1.55q.7-1.4 1.4-2t3.1-1.55q2.4-1.05 6.05-2.15l8.1-2.5 6.8-1.95 4.35-1.25.85.15.3.45q.35.75-3.75 2.1-4.1 1.25-5.9 3.15-1.85 1.9-1.05 2.9l-4.35 1.25zM.05 27.9q.1-1 1.8-1.9l1.5-.65 2.95-.85.4-.1h.05v-.05l.2-.15 5.7-2.7q5.45-2.5 9.4-3.85 3.9-1.35 6.75-1.95l8.25-1.9L46.1 12l3.2-.45.05.05.1.2v.05l.05.1.05.1-.15.3.5-.45q1-.5 1.9-.75l3.2-.3q1.3.2 1.85.75l.15.15.25.4v.55l-1.75.15h-3.3l-7.4.7q-6.7.75-10.35 1.65-3.7.85-6.5 1.8l-7.45 2.65q-4.6 1.65-7.6 2.95l-6.15 2.7-3.65 1.45-2.4 1.1H.6z"/></g></defs></svg>