<svg xmlns="http://www.w3.org/2000/svg" xmlns:ffdec="https://www.free-decompiler.com/flash" xmlns:xlink="http://www.w3.org/1999/xlink" ffdec:objectType="frame" width="45.65" height="19.75"><use ffdec:characterId="1" xlink:href="#a" width="45.65" height="19.75"/><defs><g id="a" fill-rule="evenodd"><path fill="#8cdfff" d="M33.05 2.3q2.5 2.35 2.7 3.8l.05 1.1-.15-.2-.4-.1-.45-.4-.6-.15-1.1-.7-5.4-1.35-.2.05-.25-.05-5-.35q-3.8-.15-6.6.6l-4.15 1.5-.85.6h-.1l-.45.3.1-.9q.75-2.5 2.25-4.05 4.1-1.9 9.35-2h.15q6.45.15 11.1 2.3"/><path fill="#3dc0e0" d="m33.05 2.3 1 .5-.85-.5 2.45 1.5.2.1q5.1 3.55 7.25 7.95 2.15 4.45 2.55 7.9l-2-3.45-2.35-2.9q-1.75-1.9-3.7-3.5l-.5-.4-.5-.4-1.35-1q-.7-.45-1.4-.8-3.55-1.9-8.05-2.4l-3.85-.2q-6-.2-11.65 3.25Q8.15 9.2 6.1 11q-2.65 2.3-4.55 5.15Q.7 17.35 0 18.7l.75-2.4.55-1.6Q4.9 5.4 12.45 2q-1.5 1.55-2.25 4.05l-.1.9.45-.3h.1l.85-.6 4.15-1.5q2.8-.75 6.6-.6l5 .35.25.05.2-.05 5.4 1.35 1.1.7.6.15.45.4.4.1.15.2-.05-1.1q-.2-1.45-2.7-3.8"/></g></defs></svg>