<?xml version="1.0" encoding="UTF-8" standalone="no"?>
<svg xmlns:ffdec="https://www.free-decompiler.com/flash" xmlns:xlink="http://www.w3.org/1999/xlink" ffdec:objectType="frame" height="39.75px" width="55.8px" xmlns="http://www.w3.org/2000/svg">
  <g transform="matrix(1.0, 0.0, 0.0, 1.0, -3.55, 1.5)">
    <use ffdec:characterId="1" height="39.75" transform="matrix(1.0, 0.0, 0.0, 1.0, 3.55, -1.5)" width="53.9" xlink:href="#shape0"/>
    <clipPath id="clipPath0" transform="matrix(1.0, 0.0, 0.0, 1.0, 0.0, 0.0)">
      <path d="M56.65 8.55 Q58.25 12.35 56.65 16.45 54.8 16.75 53.05 16.45 L51.95 16.15 Q49.7 15.45 47.7 13.7 L47.35 13.65 47.65 11.6 Q47.65 9.35 46.35 7.75 L46.0 7.35 46.1 7.3 Q51.9 3.2 55.7 2.9 57.5 5.15 56.65 8.55 M40.25 7.75 Q38.95 9.35 38.95 11.6 38.95 12.7 39.3 13.65 L38.95 13.7 Q36.95 15.45 34.7 16.15 L33.6 16.45 Q31.85 16.75 30.0 16.45 28.4 12.35 29.5 8.45 29.15 5.15 30.9 2.8 34.8 3.2 40.55 7.3 L40.25 7.75" fill="#44799d" fill-rule="evenodd" stroke="none"/>
      <path d="M46.65 16.7 L48.25 19.3 49.3 21.3 50.55 23.65 53.1 28.65 53.25 28.95 54.75 33.1 51.25 33.0 50.05 35.5 Q49.25 36.95 47.0 38.25 47.45 32.6 46.65 27.85 L46.65 27.8 46.5 26.85 45.5 22.35 44.9 20.0 44.2 17.55 44.15 17.4 44.1 17.0 45.95 15.95 46.65 16.7 M42.6 17.0 L42.75 17.6 Q42.95 23.05 41.25 28.65 L40.35 28.1 40.25 28.0 Q38.8 26.75 38.15 24.85 L36.95 24.65 35.6 24.05 35.0 23.65 Q38.0 21.2 39.5 18.35 L40.35 16.9 40.7 15.95 Q41.5 16.75 42.6 17.0" fill="#5498bc" fill-rule="evenodd" stroke="none"/>
    </clipPath>
    <g clip-path="url(#clipPath0)">
      <use ffdec:characterId="3" height="33.25" transform="matrix(1.0, 0.0, 0.0, 1.0, 27.25, 4.2)" width="32.1" xlink:href="#shape2"/>
    </g>
    <use ffdec:characterId="4" height="29.95" transform="matrix(1.0, 0.0, 0.0, 1.0, 30.4, 8.2)" width="26.8" xlink:href="#shape3"/>
  </g>
  <defs>
    <g id="shape0" transform="matrix(1.0, 0.0, 0.0, 1.0, -3.55, 1.5)">
      <path d="M3.55 6.65 Q11.15 -1.55 22.05 -1.5 32.9 -1.45 40.05 6.6 42.9 11.15 39.4 12.35 24.7 -0.05 3.55 6.65" fill="#272727" fill-rule="evenodd" stroke="none"/>
      <path d="M4.9 5.3 Q25.4 -0.8 39.75 11.3 L41.35 10.25 Q41.2 11.75 39.4 12.35 24.7 -0.05 3.55 6.65 L4.9 5.3" fill="#000000" fill-rule="evenodd" stroke="none"/>
      <path d="M40.25 7.75 L40.65 7.35 41.7 6.55 43.3 6.15 44.9 6.55 Q45.5 6.8 46.0 7.35 L46.35 7.75 Q47.65 9.35 47.65 11.6 L47.35 13.65 46.35 15.45 45.95 15.95 44.1 17.0 43.3 17.05 42.6 17.0 Q41.5 16.75 40.7 15.95 L40.3 15.5 40.25 15.45 Q39.6 14.65 39.3 13.65 38.95 12.7 38.95 11.6 38.95 9.35 40.25 7.75 M43.3 7.45 Q41.95 7.45 40.95 8.7 40.0 9.9 40.0 11.65 40.0 13.35 40.95 14.55 41.95 15.8 43.3 15.8 44.65 15.8 45.65 14.55 46.6 13.35 46.6 11.65 46.6 9.9 45.65 8.7 44.65 7.45 43.3 7.45" fill="#02314a" fill-rule="evenodd" stroke="none"/>
      <path d="M48.25 19.3 L49.3 21.3 50.55 23.65 53.1 28.65 53.25 28.95 54.75 33.1 51.25 33.0 50.05 35.5 Q49.25 36.95 47.0 38.25 47.45 32.6 46.65 27.85 L46.65 27.8 46.5 26.85 45.5 22.35 44.9 20.0 44.2 17.55 44.15 17.4 44.1 17.0 45.95 15.95 46.65 16.7 48.25 19.3 M40.35 28.1 L40.25 28.0 Q38.8 26.75 38.15 24.85 L36.95 24.65 35.6 24.05 35.0 23.65 Q38.0 21.2 39.5 18.35 L40.35 16.9 40.7 15.95 Q41.5 16.75 42.6 17.0 L42.75 17.6 Q42.95 23.05 41.25 28.65 L40.35 28.1" fill="#44799d" fill-rule="evenodd" stroke="none"/>
      <path d="M43.1 8.4 Q42.55 8.55 42.05 9.15 41.45 9.95 41.45 11.15 L41.55 11.9 41.45 11.9 Q41.05 12.0 40.8 12.25 40.45 12.7 40.7 13.35 40.9 14.1 41.55 14.6 42.25 15.2 42.95 15.2 L43.25 15.25 Q43.75 15.25 44.05 14.9 L44.25 14.3 44.2 13.9 45.25 13.1 Q45.85 12.35 45.9 11.3 L46.0 11.0 45.9 10.7 Q45.75 9.8 45.25 9.15 L45.05 8.95 44.75 8.25 Q44.45 7.9 44.0 7.9 43.5 7.9 43.2 8.25 L43.1 8.4 M43.3 7.45 Q44.65 7.45 45.65 8.7 46.6 9.9 46.6 11.65 46.6 13.35 45.65 14.55 44.65 15.8 43.3 15.8 41.95 15.8 40.95 14.55 40.0 13.35 40.0 11.65 40.0 9.9 40.95 8.7 41.95 7.45 43.3 7.45" fill="#57bee6" fill-rule="evenodd" stroke="none"/>
      <path d="M50.7 19.0 Q53.05 21.35 57.0 21.55 L57.25 22.55 57.0 22.6 52.55 22.05 51.9 21.8 52.3 22.25 Q54.3 24.4 54.85 27.1 L53.65 28.8 Q52.45 24.1 50.0 21.05 L48.25 19.3 46.65 16.7 45.95 15.95 46.35 15.45 47.05 16.35 Q48.35 17.85 50.45 19.15 L50.7 19.0 M45.5 22.35 L45.1 27.45 Q44.9 29.8 43.45 35.85 L42.4 33.55 Q43.4 30.3 43.2 25.0 42.75 27.05 41.95 28.9 L41.25 28.65 41.9 29.0 40.6 31.4 39.4 30.0 40.35 28.1 41.25 28.65 Q42.95 23.05 42.75 17.6 L42.6 17.0 43.3 17.05 44.1 17.0 44.15 17.4 44.2 17.55 44.9 20.0 45.5 22.35 M36.95 24.65 L34.95 26.2 34.05 25.3 35.6 24.05 36.95 24.65 M39.5 18.35 Q37.35 21.15 31.05 21.65 30.15 21.0 30.5 20.0 32.75 20.05 35.55 19.1 L36.2 19.15 Q38.7 17.6 40.05 15.85 L40.3 15.5 40.7 15.95 40.35 16.9 39.5 18.35" fill="#ffffff" fill-rule="evenodd" stroke="none"/>
      <path d="M43.1 8.4 L42.9 9.05 Q42.9 9.5 43.2 9.85 43.5 10.2 44.0 10.2 L44.75 9.85 45.05 9.05 45.05 8.95 45.25 9.15 Q45.75 9.8 45.9 10.7 L45.8 10.6 45.5 10.5 45.1 10.6 44.95 11.0 45.1 11.35 45.5 11.5 45.8 11.35 45.9 11.3 Q45.85 12.35 45.25 13.1 L44.2 13.9 44.2 13.85 44.15 13.7 43.2 12.5 Q42.55 12.0 41.9 11.85 L41.55 11.9 41.45 11.15 Q41.45 9.95 42.05 9.15 42.55 8.55 43.1 8.4" fill="#82dbee" fill-rule="evenodd" stroke="none"/>
      <path d="M41.55 11.9 L41.9 11.85 Q42.55 12.0 43.2 12.5 L44.15 13.7 44.2 13.85 44.2 13.9 44.25 14.3 44.05 14.85 Q43.75 15.25 43.25 15.25 L42.95 15.2 Q42.25 15.2 41.55 14.6 40.9 14.1 40.7 13.35 40.45 12.7 40.8 12.25 41.05 12.0 41.45 11.9 L41.55 11.9" fill="#1a639f" fill-rule="evenodd" stroke="none"/>
      <path d="M45.05 8.95 L45.05 9.05 44.75 9.85 44.0 10.2 Q43.5 10.2 43.2 9.85 42.9 9.5 42.9 9.05 L43.1 8.4 43.2 8.25 Q43.5 7.9 44.0 7.9 44.45 7.9 44.75 8.25 L45.05 8.95 M45.9 11.3 L45.8 11.35 45.5 11.5 45.1 11.35 44.95 11.0 45.1 10.6 45.5 10.5 45.8 10.6 45.9 10.7 46.0 11.0 45.9 11.3" fill="#f9f9f9" fill-rule="evenodd" stroke="none"/>
      <path d="M53.05 16.45 Q52.7 17.6 51.05 18.8 L50.75 19.0 50.7 19.0 50.45 19.15 Q48.35 17.85 47.05 16.35 L46.35 15.45 47.35 13.65 47.7 13.7 Q49.7 15.45 51.95 16.15 L53.05 16.45 M36.2 19.15 L35.7 18.85 35.4 18.65 35.35 18.6 Q33.9 17.5 33.6 16.45 L34.7 16.15 Q36.95 15.45 38.95 13.7 L39.3 13.65 Q39.6 14.65 40.25 15.45 L40.3 15.5 40.05 15.85 Q38.7 17.6 36.2 19.15" fill="#2c4e65" fill-rule="evenodd" stroke="none"/>
      <path d="M46.0 7.35 L46.1 7.3 Q51.9 3.2 55.7 2.9 57.5 5.15 56.65 8.55 58.25 12.35 56.65 16.45 54.8 16.75 53.05 16.45 L51.95 16.15 Q49.7 15.45 47.7 13.7 L47.35 13.65 47.65 11.6 Q47.65 9.35 46.35 7.75 L46.0 7.35 M33.6 16.45 Q31.85 16.75 30.0 16.45 28.4 12.35 29.5 8.45 29.15 5.15 30.9 2.8 34.8 3.2 40.55 7.3 L40.25 7.75 Q38.95 9.35 38.95 11.6 38.95 12.7 39.3 13.65 L38.95 13.7 Q36.95 15.45 34.7 16.15 L33.6 16.45" fill="#325974" fill-rule="evenodd" stroke="none"/>
      <path d="M43.3 7.45 Q44.65 7.45 45.65 8.7 46.6 9.9 46.6 11.65 46.6 13.35 45.65 14.55 44.65 15.8 43.3 15.8 41.95 15.8 40.95 14.55 40.0 13.35 40.0 11.65 40.0 9.9 40.95 8.7 41.95 7.45 43.3 7.45 Z" fill="none" stroke="#03527c" stroke-linecap="round" stroke-linejoin="round" stroke-width="0.5"/>
      <path d="M55.25 8.45 Q58.35 12.2 56.95 15.75 55.4 14.1 52.6 13.25 49.8 12.4 47.7 12.6 48.1 9.3 45.95 7.35 51.65 3.45 55.75 2.75 56.95 4.95 55.25 8.45 M29.75 15.7 Q28.35 12.15 31.45 8.4 29.75 4.9 30.95 2.7 35.05 3.4 40.75 7.3 38.6 9.25 39.0 12.55 36.9 12.35 34.1 13.2 31.3 14.05 29.75 15.7" fill="#44799d" fill-rule="evenodd" stroke="none"/>
    </g>
    <g id="shape2" transform="matrix(1.0, 0.0, 0.0, 1.0, -27.25, -4.2)">
      <path d="M41.2 16.15 L41.7 16.1 Q40.75 19.15 39.3 21.8 37.95 24.55 35.55 26.85 L34.8 26.2 Q37.4 23.75 38.6 21.7 39.8 19.7 41.2 16.15 M45.25 16.2 L45.65 15.95 Q48.35 20.5 50.35 25.1 52.35 29.5 53.2 34.35 L52.0 34.45 Q51.15 29.2 49.8 25.6 48.45 22.05 45.25 16.2 M42.2 16.15 Q42.25 19.3 41.6 22.35 41.0 25.35 39.45 28.2 L38.55 27.85 Q40.25 24.75 40.85 22.4 41.5 20.15 41.8 16.4 L42.2 16.15 M44.45 16.4 L44.7 16.1 Q46.6 20.0 48.45 27.4 50.3 34.75 50.0 36.05 L48.6 37.45 Q48.65 32.65 47.2 25.85 45.75 19.05 44.45 16.4 M47.15 12.15 L46.9 11.75 53.1 12.1 Q56.15 12.6 59.05 14.05 L58.7 14.95 Q55.55 13.35 53.2 12.85 L47.15 12.15 M59.35 10.55 L59.2 11.65 53.0 10.8 Q50.8 10.65 47.1 10.9 L46.9 10.3 53.1 9.85 59.35 10.55 M58.75 7.4 L58.8 8.55 Q54.7 8.3 52.55 8.6 L46.6 9.55 46.4 9.15 Q50.25 8.05 52.55 7.7 L58.75 7.4 M57.95 4.65 L58.15 5.75 51.7 6.6 Q49.4 7.15 46.6 8.3 L45.95 7.9 Q49.6 6.35 51.8 5.7 54.0 5.05 57.95 4.65 M39.5 10.75 L32.9 10.25 Q30.1 10.1 27.4 11.5 L27.25 10.4 Q29.55 9.3 32.6 9.5 L39.7 10.15 39.5 10.75 M39.45 12.0 L31.85 12.6 Q29.85 13.15 27.9 14.8 L27.55 13.9 Q29.5 11.9 32.8 11.55 36.1 11.2 39.7 11.6 L39.45 12.0 M40.0 9.4 L33.4 8.15 27.8 8.4 27.85 7.25 Q30.8 6.6 33.6 7.25 L40.2 9.0 40.0 9.4 M34.55 6.05 Q31.85 5.05 28.45 5.6 L28.65 4.5 Q31.7 3.75 34.35 4.95 L40.65 7.75 40.0 8.15 34.55 6.05" fill="#c2f0f8" fill-rule="evenodd" stroke="none"/>
    </g>
    <g id="shape3" transform="matrix(1.0, 0.0, 0.0, 1.0, -30.4, -8.2)">
      <path d="M48.9 14.3 Q47.65 13.4 47.7 13.05 L49.15 12.95 52.25 13.7 Q53.95 14.25 55.15 15.0 56.4 15.7 56.25 16.05 L54.85 16.25 51.85 15.7 Q50.2 15.2 48.9 14.3 M37.75 14.3 Q36.45 15.2 34.8 15.7 L31.8 16.25 30.4 16.05 Q30.25 15.7 31.5 15.0 32.7 14.25 34.4 13.7 L37.5 12.95 38.95 13.05 Q39.0 13.4 37.75 14.3" fill="#02314a" fill-rule="evenodd" stroke="none"/>
      <path d="M46.35 15.45 L47.45 13.6 47.7 13.65 Q49.6 15.75 53.0 16.45 L52.85 16.65 Q50.1 16.35 47.7 14.95 47.1 14.65 46.85 15.95 L46.35 15.45 M40.3 15.5 L39.8 16.0 Q39.6 14.75 38.55 14.95 36.55 16.4 33.8 16.7 L33.65 16.5 Q37.05 15.8 38.95 13.7 L39.2 13.65 40.3 15.5" fill="#254154" fill-rule="evenodd" stroke="none"/>
      <path d="M48.6 20.05 L48.95 20.85 Q45.3 17.35 44.65 19.05 L44.1 17.1 45.9 16.0 45.95 15.95 Q47.6 17.7 48.6 20.0 L48.6 20.05 M40.4 16.95 L40.35 16.95 40.5 16.55 40.65 16.2 40.75 16.0 42.5 16.95 Q42.85 17.7 42.75 20.0 42.55 18.7 41.9 17.8 41.2 16.9 40.4 16.95 M36.4 24.35 L35.05 23.65 Q37.2 24.15 39.15 22.95 39.15 25.0 41.3 28.65 L41.25 28.65 Q39.1 27.6 38.25 24.95 L37.0 24.6 36.45 24.4 36.4 24.35 M47.05 38.15 Q50.15 33.55 50.75 28.7 52.3 32.0 54.75 33.0 52.95 33.9 51.3 32.95 50.05 36.7 47.05 38.15" fill="#000000" fill-opacity="0.29803923" fill-rule="evenodd" stroke="none"/>
      <path d="M45.95 15.95 L46.35 15.5 49.15 18.3 49.8 18.7 50.4 19.1 52.75 21.25 Q54.6 22.45 57.1 22.25 L57.2 22.65 Q54.75 22.85 51.95 21.85 L50.7 20.65 Q53.0 24.0 54.25 27.95 L53.65 28.85 Q51.35 21.6 48.6 20.05 L48.6 20.0 Q47.6 17.7 45.95 15.95 M40.75 16.0 L40.65 16.2 40.5 16.55 40.35 16.95 40.4 16.95 39.25 18.8 36.7 20.55 31.4 21.7 Q30.35 21.6 30.7 20.95 34.95 20.85 37.6 19.35 39.15 18.5 39.45 17.2 39.7 16.45 39.4 16.7 L40.3 15.65 40.65 15.95 40.75 16.0 M36.45 24.4 L36.95 24.6 34.8 26.25 34.5 25.7 36.4 24.35 36.45 24.4" fill="#bdd6ea" fill-rule="evenodd" stroke="none"/>
      <path d="M51.55 8.3 Q53.25 8.35 54.45 9.25 L52.7 9.35 Q51.35 9.65 50.2 10.2 47.35 11.05 47.25 9.6 48.3 8.8 49.3 8.55 L51.55 8.3 M32.15 9.2 Q33.3 8.3 35.0 8.25 L37.25 8.5 Q38.25 8.7 39.3 9.55 39.3 10.95 36.4 10.1 L33.85 9.25 32.15 9.2" fill="#02314a" fill-opacity="0.8509804" fill-rule="evenodd" stroke="none"/>
      <path d="M42.65 17.2 L42.7 17.45 42.7 18.4 42.65 17.2 M42.7 19.0 Q43.8 18.6 44.9 20.0 L45.5 22.55 Q45.3 28.9 43.4 35.8 L43.0 34.8 Q45.05 26.3 43.55 21.5 43.0 27.35 40.75 31.25 L40.05 30.75 40.7 30.05 40.75 29.5 40.5 28.8 40.2 28.5 40.3 28.15 40.55 28.2 41.25 28.6 Q42.65 23.85 42.7 19.15 L42.7 19.0" fill="#bdd6ea" fill-rule="evenodd" stroke="none"/>
      <path d="M45.95 15.95 L46.35 15.5 49.15 18.3 49.8 18.7 49.95 18.85 50.65 19.35 Q48.85 18.35 48.15 19.0 47.25 17.3 45.95 15.95 M42.7 18.4 L42.7 17.45 42.65 17.2 42.65 17.0 44.15 17.0 44.2 17.05 44.9 20.0 Q43.8 18.6 42.7 19.0 L42.7 18.7 42.7 18.4" fill="#92bbdc" fill-rule="evenodd" stroke="none"/>
    </g>
  </defs>
</svg>
