<?xml version="1.0" encoding="UTF-8" standalone="no"?>
<svg xmlns:ffdec="https://www.free-decompiler.com/flash" xmlns:xlink="http://www.w3.org/1999/xlink" ffdec:objectType="frame" height="86.25px" width="70.95px" xmlns="http://www.w3.org/2000/svg">
  <g transform="matrix(1.0, 0.0, 0.0, 1.0, 12.0, 17.15)">
    <use ffdec:characterId="1" height="86.25" transform="matrix(1.0, 0.0, 0.0, 1.0, -12.0, -17.15)" width="70.95" xlink:href="#shape0"/>
  </g>
  <defs>
    <g id="shape0" transform="matrix(1.0, 0.0, 0.0, 1.0, 12.0, 17.15)">
      <path d="M23.35 -10.65 Q35.8 -10.65 44.65 -1.85 49.2 2.7 51.4 8.15 L52.5 11.3 52.6 13.6 52.6 14.25 52.5 17.3 50.85 28.2 Q49.15 38.4 47.6 39.35 45.7 40.45 44.45 41.45 L43.0 38.75 42.2 37.4 Q41.8 35.35 36.6 33.8 31.1 32.2 23.25 32.2 15.4 32.2 9.8 33.8 4.3 35.45 4.3 37.7 L4.3 37.8 3.25 39.55 Q1.65 42.15 1.35 43.3 L-2.3 39.9 Q-2.95 39.4 -5.6 17.3 L-5.75 14.25 -5.45 10.1 Q-3.35 3.45 1.9 -1.85 10.8 -10.65 23.35 -10.65" fill="url(#gradient0)" fill-rule="evenodd" stroke="none"/>
      <path d="M-3.6 0.95 L-3.05 -0.3 Q-2.4 -1.85 -0.4 -3.65 2.65 -6.55 8.75 -10.0 12.7 -12.25 15.8 -13.55 20.35 -15.5 23.05 -15.4 L23.35 -15.4 23.7 -15.4 Q26.5 -15.4 30.85 -13.55 33.95 -12.25 37.85 -10.0 43.65 -6.8 46.6 -3.9 48.7 -2.0 49.45 -0.3 L50.05 1.0 49.55 0.95 Q48.65 0.95 48.1 1.55 47.4 2.2 47.4 3.1 L47.6 3.9 Q47.45 4.15 47.45 4.45 L47.5 4.75 47.45 4.9 47.8 5.6 48.3 6.2 Q48.75 6.6 49.4 6.6 50.2 6.6 50.7 6.0 L51.1 5.0 51.05 4.7 51.1 4.65 51.1 4.55 51.2 4.5 53.65 14.5 Q55.6 23.7 56.35 28.3 L57.2 36.65 Q57.4 39.7 48.3 43.35 L45.95 44.25 45.85 43.95 45.85 43.7 Q45.85 43.05 45.15 42.95 L44.9 42.9 44.45 42.2 44.75 41.05 Q44.75 40.25 44.25 40.35 L44.25 40.3 44.45 40.1 44.5 40.05 44.5 40.0 44.75 39.15 Q45.05 39.9 45.75 40.0 L45.9 40.0 46.45 39.75 46.65 39.25 46.4 38.7 46.35 38.6 46.05 38.1 46.5 37.05 46.9 36.35 Q47.6 36.2 47.6 35.5 47.6 34.75 46.7 34.75 L46.75 34.7 Q47.25 33.1 46.15 33.55 L45.45 33.95 42.15 33.25 43.35 36.3 Q41.35 30.75 38.5 28.1 L40.1 29.65 42.15 33.25 42.75 25.0 36.05 26.1 32.9 20.55 32.9 20.35 32.9 20.2 32.95 19.55 33.4 18.7 33.8 17.2 37.1 23.8 45.3 21.75 44.2 31.5 49.95 31.5 46.4 38.7 49.95 31.5 44.2 31.5 45.3 21.75 37.1 23.8 33.8 17.2 33.8 17.15 Q33.95 16.65 35.1 15.6 36.25 14.6 36.25 14.15 36.25 13.05 35.55 13.15 L32.55 11.35 32.35 10.6 31.35 6.9 28.25 10.2 23.9 9.75 24.2 10.4 24.4 10.8 25.55 13.55 24.5 17.25 Q22.1 16.0 20.85 13.8 L20.35 11.7 Q20.35 10.55 20.65 9.0 21.05 7.25 21.55 6.55 L23.7 3.95 Q24.35 3.25 26.25 2.8 L26.3 2.8 27.15 3.8 Q28.25 5.05 28.8 5.05 29.35 5.05 29.65 4.65 L30.3 4.1 30.5 3.85 Q31.6 3.75 31.6 2.9 L31.35 2.3 30.75 1.35 31.1 0.15 30.85 -0.55 29.15 -0.15 27.8 -0.9 27.85 -1.0 27.55 -1.05 27.45 -1.1 27.45 -1.05 21.6 -0.85 Q14.75 0.4 11.65 6.3 10.3 9.2 10.5 12.25 L10.55 14.35 10.6 14.5 Q10.2 14.95 10.2 15.45 10.2 16.65 10.6 18.0 L5.85 15.5 4.65 20.75 8.9 21.7 10.65 18.05 Q11.0 19.2 11.7 20.4 L11.8 20.6 10.25 24.0 1.15 22.9 3.1 31.5 -2.4 31.3 1.05 38.85 -2.4 31.3 3.1 31.5 1.15 22.9 10.25 24.0 11.8 20.6 13.0 22.15 10.5 25.95 10.25 26.15 3.55 25.65 4.9 33.3 5.1 32.95 4.1 35.1 Q4.45 34.0 4.9 33.3 L2.45 33.65 2.25 33.6 1.45 33.75 0.7 33.85 1.25 35.4 1.1 35.65 1.1 35.8 Q0.7 35.9 0.7 36.65 0.7 37.4 1.7 37.45 L1.7 38.15 1.1 38.75 1.05 38.85 0.9 39.15 Q0.9 39.8 1.5 39.9 L2.15 41.0 1.5 39.9 1.7 39.9 2.65 39.6 2.8 40.15 2.95 39.35 2.9 40.45 3.1 40.95 3.0 40.9 2.15 41.0 Q2.0 41.2 2.0 41.6 L2.25 42.15 2.45 42.6 2.35 43.1 Q1.3 43.2 0.95 43.8 -0.1 44.05 -0.1 44.6 L-0.05 44.85 -0.25 44.9 -1.2 44.55 Q-7.9 42.1 -9.8 40.35 L-9.85 40.3 Q-10.5 39.65 -10.05 34.9 L-9.4 29.5 -7.0 15.4 -4.95 5.55 Q-4.85 6.4 -3.5 6.4 -2.5 6.4 -1.85 5.6 -1.4 5.05 -1.4 4.55 L-1.5 3.9 -1.35 3.1 Q-1.35 2.2 -2.05 1.55 -2.6 0.95 -3.5 0.95 L-3.6 0.95 M36.15 26.2 Q33.5 24.2 32.05 23.75 L29.9 23.2 30.0 23.15 30.75 23.3 Q33.9 24.1 36.05 26.1 L36.15 26.2 M29.15 -13.55 L25.1 -13.65 25.05 -13.55 Q25.1 -13.3 25.7 -12.55 26.45 -11.5 27.15 -11.0 28.3 -10.0 30.75 -9.4 L34.35 -8.75 35.55 -8.85 Q33.8 -11.2 30.85 -12.75 L29.15 -13.55 M27.5 0.55 L27.5 0.8 27.15 1.15 26.4 1.15 25.8 1.3 Q26.6 0.85 27.5 0.55 M28.9 18.7 L27.6 18.45 28.3 18.3 28.9 18.7 M-1.35 6.45 L-1.6 7.55 -1.15 8.5 Q-0.5 9.3 0.4 9.3 2.35 9.3 2.35 7.8 2.4 7.15 2.1 6.95 L2.1 6.65 Q2.1 5.95 1.55 5.4 1.1 4.9 0.35 4.9 -0.3 4.9 -0.85 5.4 -1.3 5.85 -1.35 6.45 M-3.8 24.7 Q-2.9 22.0 -1.55 20.25 0.15 18.0 0.2 14.05 L-0.1 10.55 Q-2.15 7.7 -3.2 7.6 -3.85 7.55 -4.3 8.65 -6.0 11.6 -7.75 23.6 -9.35 34.9 -8.9 36.7 L-8.1 39.65 Q-7.7 40.75 -7.0 41.25 L-3.5 43.3 -1.05 44.55 -3.65 41.6 Q-5.9 38.45 -5.85 36.25 L-3.85 39.4 -0.1 40.35 -2.45 35.65 -5.8 35.65 -4.9 28.85 -4.35 26.55 -3.65 29.2 0.65 29.25 -0.05 25.1 -3.8 24.7 M47.25 7.4 L47.4 6.65 Q47.4 5.95 46.9 5.4 46.35 4.9 45.7 4.9 44.95 4.9 44.5 5.4 44.05 5.85 44.0 6.4 43.55 6.65 43.55 7.45 43.55 8.05 43.85 8.55 44.4 9.5 45.75 9.5 47.35 9.5 47.35 8.15 L47.25 7.4 M43.65 9.5 L43.65 9.3 Q43.65 8.7 43.15 8.25 42.7 7.8 42.05 7.8 41.45 7.8 41.0 8.25 40.65 8.6 40.6 9.1 40.3 9.3 40.3 9.9 L40.65 10.95 Q41.25 11.95 42.45 11.95 43.85 11.95 43.85 10.4 L43.65 9.5 M49.5 39.9 L49.5 40.05 Q49.55 40.65 49.05 41.8 L48.15 43.35 Q51.1 42.15 53.05 40.8 L55.3 38.85 Q56.85 37.45 54.75 35.1 53.8 33.95 54.05 27.1 54.3 19.9 53.0 17.6 51.95 15.25 50.2 13.5 L48.85 19.6 Q48.0 23.0 48.95 24.75 L46.85 25.2 46.55 29.4 50.8 28.95 51.05 27.5 Q51.55 29.15 50.45 31.8 48.45 36.65 48.7 37.4 L48.9 37.75 47.6 40.35 49.5 39.9 M41.0 14.9 L36.25 17.9 37.95 21.6 42.2 20.15 41.0 14.9 M45.1 41.3 L45.75 40.0 45.1 41.3 M37.25 11.25 Q36.95 11.45 36.95 11.95 L37.25 12.6 37.3 12.65 37.35 12.95 Q37.6 13.45 38.5 13.45 40.0 13.45 40.0 12.35 L40.0 12.0 40.0 11.9 Q40.0 11.2 39.65 11.05 L39.55 11.0 39.2 10.55 Q38.9 10.25 38.4 10.25 37.9 10.25 37.55 10.55 L37.25 11.25 M5.5 9.6 L5.5 9.3 Q5.5 8.7 5.05 8.25 4.6 7.8 4.0 7.8 3.35 7.8 2.9 8.25 2.45 8.7 2.45 9.3 L2.45 9.4 2.25 10.1 2.5 11.15 Q2.95 12.15 4.05 12.15 5.0 12.15 5.4 11.45 L5.65 10.55 Q5.75 9.9 5.5 9.6 M6.55 11.25 Q6.15 11.4 6.15 11.95 6.75 13.65 8.15 13.65 9.7 13.65 9.7 12.25 9.8 11.35 8.95 11.35 L8.8 11.4 8.5 10.55 Q8.15 10.25 7.65 10.25 7.15 10.25 6.85 10.55 6.55 10.85 6.55 11.25" fill="#7f2362" fill-rule="evenodd" stroke="none"/>
      <path d="M44.45 40.1 L43.35 36.3 42.15 33.25 45.45 33.95 Q44.95 34.35 44.95 34.9 L45.1 35.65 45.4 36.05 Q44.55 36.9 44.55 38.05 L44.7 39.05 44.75 39.15 44.5 40.0 44.45 40.1 M38.5 28.1 L38.15 27.8 36.15 26.2 36.05 26.1 42.75 25.0 42.15 33.25 40.1 29.65 38.5 28.1 M15.05 23.55 Q12.25 24.45 10.35 26.15 8.45 27.9 7.3 29.55 L7.1 29.85 6.5 30.7 5.75 31.85 5.1 32.95 4.9 33.3 3.55 25.65 10.25 26.15 10.35 26.15 10.5 25.95 13.0 22.15 Q13.9 23.1 15.05 23.55 M4.1 35.1 Q3.55 36.4 3.25 37.65 3.15 36.8 2.65 36.35 3.25 36.0 3.25 34.9 3.25 33.8 2.45 33.65 L4.9 33.3 Q4.45 34.0 4.1 35.1 M3.0 39.15 L2.95 39.35 2.8 40.15 2.65 39.6 3.0 39.15 M32.9 20.55 L36.05 26.1 Q33.9 24.1 30.75 23.3 L30.0 23.15 30.7 22.55 31.6 21.95 32.9 20.55 M1.25 35.4 L0.7 33.85 1.45 33.75 Q1.2 33.95 1.2 34.4 L1.4 35.05 1.25 35.4" fill="#bb2770" fill-rule="evenodd" stroke="none"/>
      <path d="M-3.8 24.7 L-0.05 25.1 0.65 29.25 -3.65 29.2 -4.35 26.55 -3.8 24.7 M-5.8 35.65 L-2.45 35.65 -0.1 40.35 -3.85 39.4 -5.85 36.25 -5.8 35.75 -5.8 35.65 M10.65 18.05 L8.9 21.7 4.65 20.75 5.85 15.5 10.6 18.0 10.65 18.05 M48.95 24.75 L49.9 25.9 Q50.75 26.55 51.05 27.5 L50.8 28.95 46.55 29.4 46.85 25.2 48.95 24.75 M48.9 37.75 L49.5 39.9 47.6 40.35 48.9 37.75 M41.0 14.9 L42.2 20.15 37.95 21.6 36.25 17.9 41.0 14.9" fill="#a11c5d" fill-rule="evenodd" stroke="none"/>
      <path d="M1.5 45.35 L1.75 45.55 1.8 45.6 Q2.55 46.35 2.55 47.4 L2.65 56.3 3.05 59.15 2.1 58.05 1.7 59.15 2.1 57.8 1.6 55.65 1.45 57.5 1.0 58.3 0.6 59.35 -0.75 59.35 -0.7 56.95 -0.65 59.15 0.1 59.25 Q0.35 59.25 0.15 57.2 0.15 54.7 -0.3 53.85 L-0.55 55.35 -0.7 56.85 -1.45 59.25 -2.85 59.25 -2.45 56.65 -2.35 47.4 Q-2.35 46.35 -1.6 45.6 L-1.55 45.55 Q-1.05 45.0 -0.25 44.9 L-0.05 44.85 Q0.05 45.35 1.15 45.35 L1.5 45.35 M44.55 56.3 L44.65 47.4 Q44.65 46.35 45.35 45.6 L45.4 45.55 Q46.1 44.85 47.05 44.85 48.1 44.85 48.75 45.55 L48.8 45.6 Q49.5 46.35 49.5 47.4 L49.6 56.65 50.0 59.25 48.65 59.25 48.65 59.2 49.65 59.15 Q49.95 59.25 47.9 54.9 47.8 54.95 47.85 55.9 L48.0 57.0 48.45 58.55 47.9 56.85 47.95 59.35 45.55 59.35 45.55 59.3 46.05 59.25 46.55 59.15 45.95 55.15 45.4 56.95 44.4 58.6 44.75 58.45 44.15 59.15 44.55 56.3 M45.3 58.75 L45.1 58.15 45.15 58.1 45.3 58.75" fill="#e2ae5d" fill-rule="evenodd" stroke="none"/>
      <path d="M45.85 43.95 Q45.65 44.45 44.8 44.45 43.65 44.45 43.15 43.4 L42.9 42.2 Q42.9 41.05 43.85 40.5 L44.25 40.35 Q44.75 40.25 44.75 41.05 L44.45 42.2 Q44.45 42.7 44.9 42.9 L45.15 42.95 Q45.85 43.05 45.85 43.7 L45.85 43.95 M29.9 23.2 L28.75 23.8 Q26.2 25.0 23.6 25.0 L19.05 24.45 16.3 23.85 15.05 23.55 Q13.9 23.1 13.0 22.15 L11.8 20.6 11.7 20.4 Q11.0 19.2 10.65 18.05 L10.6 18.0 Q10.2 16.65 10.2 15.45 10.2 14.95 10.6 14.5 11.4 21.6 20.4 23.6 L23.65 23.75 Q27.9 23.3 32.9 20.2 L32.9 20.35 32.9 20.55 31.6 21.95 30.7 22.55 30.0 23.15 29.9 23.2 M3.25 37.65 L3.25 37.9 3.0 39.1 3.0 39.15 2.65 39.6 1.7 39.9 1.5 39.9 Q0.9 39.8 0.9 39.15 L1.05 38.85 1.1 38.75 1.7 38.15 1.7 37.45 Q0.7 37.4 0.7 36.65 0.7 35.9 1.1 35.8 L1.1 35.65 1.25 35.4 1.4 35.05 1.2 34.4 Q1.2 33.95 1.45 33.75 L2.25 33.6 2.45 33.65 Q3.25 33.8 3.25 34.9 3.25 36.0 2.65 36.35 3.15 36.8 3.25 37.65 M3.1 40.95 Q3.95 41.4 3.95 42.6 L3.5 44.15 Q2.85 45.2 1.5 45.35 L1.15 45.35 Q0.05 45.35 -0.05 44.85 L-0.1 44.6 Q-0.1 44.05 0.95 43.8 L1.15 43.75 Q2.05 43.6 2.35 43.1 L2.45 42.6 2.25 42.15 2.0 41.6 Q2.0 41.2 2.15 41.0 L3.0 40.9 3.1 40.95 M-4.95 5.55 L-4.95 5.3 -4.8 4.8 -3.5 5.2 Q-2.6 5.2 -2.05 4.6 L-1.5 3.9 -1.4 4.55 Q-1.4 5.05 -1.85 5.6 -2.5 6.4 -3.5 6.4 -4.85 6.4 -4.95 5.55 M29.15 -13.55 L30.85 -12.75 Q33.8 -11.2 35.55 -8.85 L34.35 -8.75 30.75 -9.4 Q28.3 -10.0 27.15 -11.0 26.45 -11.5 25.7 -12.55 25.1 -13.3 25.05 -13.55 L25.1 -13.65 29.15 -13.55 M27.15 1.15 L26.05 2.0 26.7 2.65 27.9 3.1 28.85 4.7 29.75 3.25 31.4 3.0 31.4 2.45 31.4 2.4 31.35 2.3 31.6 2.9 Q31.6 3.75 30.5 3.85 L30.3 4.1 29.65 4.65 Q29.35 5.05 28.8 5.05 28.25 5.05 27.15 3.8 L26.3 2.8 26.25 2.8 Q24.35 3.25 23.7 3.95 L21.55 6.55 Q21.05 7.25 20.65 9.0 20.35 10.55 20.35 11.7 L20.85 13.8 20.1 12.25 Q19.8 10.2 20.5 7.7 21.75 3.4 25.8 1.3 L26.4 1.15 27.15 1.15 M30.9 18.9 L28.9 18.7 28.3 18.3 27.6 18.45 27.45 18.4 25.5 17.75 28.8 17.2 30.9 18.9 M-1.35 6.45 L-1.35 6.65 Q-1.35 7.4 -0.85 7.85 -0.3 8.4 0.35 8.4 1.1 8.4 1.55 7.85 2.0 7.5 2.1 6.95 2.4 7.15 2.35 7.8 2.35 9.3 0.4 9.3 -0.5 9.3 -1.15 8.5 L-1.6 7.55 -1.35 6.45 M51.05 4.7 L51.1 5.0 50.7 6.0 Q50.2 6.6 49.4 6.6 48.75 6.6 48.3 6.2 L47.8 5.6 47.45 4.9 47.5 4.75 47.45 4.45 Q47.45 4.15 47.6 3.9 L48.1 4.6 Q48.65 5.2 49.55 5.2 50.4 5.2 51.05 4.65 L51.05 4.7 M44.0 6.4 L43.95 6.65 Q43.95 7.4 44.5 7.85 44.95 8.4 45.7 8.4 46.35 8.4 46.9 7.85 L47.25 7.4 47.35 8.15 Q47.35 9.5 45.75 9.5 44.4 9.5 43.85 8.55 43.55 8.05 43.55 7.45 43.55 6.65 44.0 6.4 M40.6 9.1 L40.55 9.3 Q40.55 10.0 41.0 10.45 41.45 10.9 42.05 10.9 42.7 10.9 43.15 10.45 43.6 10.05 43.65 9.5 L43.85 10.4 Q43.85 11.95 42.45 11.95 41.25 11.95 40.65 10.95 L40.3 9.9 Q40.3 9.3 40.6 9.1 M44.75 39.15 L44.7 39.05 44.55 38.05 Q44.55 36.9 45.4 36.05 L45.1 35.65 44.95 34.9 Q44.95 34.35 45.45 33.95 L46.15 33.55 Q47.25 33.1 46.75 34.7 L46.7 34.75 Q47.6 34.75 47.6 35.5 47.6 36.2 46.9 36.35 L46.5 37.05 46.05 38.1 46.35 38.6 46.4 38.7 46.65 39.25 46.45 39.75 45.9 40.0 45.75 40.0 Q45.05 39.9 44.75 39.15 M33.8 17.2 L33.4 18.7 32.95 19.55 32.9 18.85 32.9 18.8 32.8 18.75 32.6 18.8 33.15 15.9 36.1 14.2 36.1 13.45 35.55 13.15 Q36.25 13.05 36.25 14.15 36.25 14.6 35.1 15.6 33.95 16.65 33.8 17.15 L33.8 17.2 M39.55 11.0 L39.65 11.05 Q40.0 11.2 40.0 11.9 L40.0 12.0 40.0 12.35 Q40.0 13.45 38.5 13.45 37.6 13.45 37.35 12.95 L37.3 12.65 37.25 12.6 36.95 11.95 Q36.95 11.45 37.25 11.25 L37.25 11.4 Q37.25 11.9 37.55 12.2 37.9 12.55 38.4 12.55 38.9 12.55 39.2 12.2 39.6 11.9 39.6 11.4 L39.55 11.0 M5.5 9.6 Q5.75 9.9 5.65 10.55 L5.4 11.45 Q5.0 12.15 4.05 12.15 2.95 12.15 2.5 11.15 L2.25 10.1 2.45 9.4 Q2.5 10.05 2.9 10.45 3.35 10.9 4.0 10.9 4.6 10.9 5.05 10.45 L5.5 9.6 M6.55 11.25 L6.5 11.4 Q6.5 11.9 6.85 12.2 7.15 12.55 7.65 12.55 8.15 12.55 8.5 12.2 L8.8 11.4 8.95 11.35 Q9.8 11.35 9.7 12.25 9.7 13.65 8.15 13.65 6.75 13.65 6.15 11.95 6.15 11.4 6.55 11.25" fill="#000000" fill-opacity="0.29803923" fill-rule="evenodd" stroke="none"/>
      <path d="M51.05 4.65 L51.05 4.6 51.1 4.55 51.1 4.65 51.05 4.7 51.05 4.65" fill="#000000" fill-rule="evenodd" stroke="none"/>
      <path d="M1.7 59.15 L1.6 59.4 0.6 59.35 1.0 58.3 1.45 57.5 1.6 55.65 2.1 57.8 1.7 59.15 M-0.7 56.95 L-0.7 56.85 -0.55 55.35 -0.3 53.85 Q0.15 54.7 0.15 57.2 0.35 59.25 0.1 59.25 L-0.65 59.15 -0.7 56.95 M-5.85 36.25 Q-5.9 38.45 -3.65 41.6 L-1.05 44.55 -3.5 43.3 -7.0 41.25 Q-7.7 40.75 -8.1 39.65 L-8.9 36.7 Q-9.35 34.9 -7.75 23.6 -6.0 11.6 -4.3 8.65 -3.85 7.55 -3.2 7.6 -2.15 7.7 -0.1 10.55 L0.2 14.05 Q0.15 18.0 -1.55 20.25 -2.9 22.0 -3.8 24.7 L-4.35 26.55 -4.9 28.85 -5.8 35.65 -5.8 35.75 -5.85 36.25 M48.95 24.75 Q48.0 23.0 48.85 19.6 L50.2 13.5 Q51.95 15.25 53.0 17.6 54.3 19.9 54.05 27.1 53.8 33.95 54.75 35.1 56.85 37.45 55.3 38.85 L53.05 40.8 Q51.1 42.15 48.15 43.35 L49.05 41.8 Q49.55 40.65 49.5 40.05 L49.5 39.9 48.9 37.75 48.7 37.4 Q48.45 36.65 50.45 31.8 51.55 29.15 51.05 27.5 50.75 26.55 49.9 25.9 L48.95 24.75 M44.75 58.45 L44.4 58.6 45.4 56.95 45.95 55.15 46.55 59.15 46.05 59.25 45.55 59.3 45.5 59.35 45.3 58.75 45.15 58.1 45.1 58.15 44.75 58.45 M48.45 58.55 L48.0 57.0 47.85 55.9 Q47.8 54.95 47.9 54.9 49.95 59.25 49.65 59.15 L48.65 59.2 48.6 59.2 48.45 58.55" fill="#000000" fill-opacity="0.2" fill-rule="evenodd" stroke="none"/>
      <path d="M50.05 1.0 Q50.6 1.15 51.05 1.55 51.7 2.2 51.7 3.1 51.7 3.9 51.2 4.5 L51.1 4.55 51.05 4.6 51.05 4.65 Q50.4 5.2 49.55 5.2 48.65 5.2 48.1 4.6 L47.6 3.9 47.4 3.1 Q47.4 2.2 48.1 1.55 48.65 0.95 49.55 0.95 L50.05 1.0 M-4.8 4.8 L-5.0 4.6 Q-5.6 4.0 -5.6 3.1 -5.6 2.2 -5.0 1.55 -4.4 1.0 -3.6 0.95 L-3.5 0.95 Q-2.6 0.95 -2.05 1.55 -1.35 2.2 -1.35 3.1 L-1.5 3.9 -2.05 4.6 Q-2.6 5.2 -3.5 5.2 L-4.8 4.8 M27.5 0.1 L27.7 -0.2 28.55 -0.3 28.6 0.0 28.3 0.45 27.85 0.75 Q27.6 0.75 27.5 0.55 L27.45 0.3 27.5 0.1 M2.1 6.95 Q2.0 7.5 1.55 7.85 1.1 8.4 0.35 8.4 -0.3 8.4 -0.85 7.85 -1.35 7.4 -1.35 6.65 L-1.35 6.45 Q-1.3 5.85 -0.85 5.4 -0.3 4.9 0.35 4.9 1.1 4.9 1.55 5.4 2.1 5.95 2.1 6.65 L2.1 6.95 M44.0 6.4 Q44.05 5.85 44.5 5.4 44.95 4.9 45.7 4.9 46.35 4.9 46.9 5.4 47.4 5.95 47.4 6.65 L47.25 7.4 46.9 7.85 Q46.35 8.4 45.7 8.4 44.95 8.4 44.5 7.85 43.95 7.4 43.95 6.65 L44.0 6.4 M40.6 9.1 Q40.65 8.6 41.0 8.25 41.45 7.8 42.05 7.8 42.7 7.8 43.15 8.25 43.65 8.7 43.65 9.3 L43.65 9.5 Q43.6 10.05 43.15 10.45 42.7 10.9 42.05 10.9 41.45 10.9 41.0 10.45 40.55 10.0 40.55 9.3 L40.6 9.1 M37.25 11.25 L37.55 10.55 Q37.9 10.25 38.4 10.25 38.9 10.25 39.2 10.55 L39.55 11.0 39.6 11.4 Q39.6 11.9 39.2 12.2 38.9 12.55 38.4 12.55 37.9 12.55 37.55 12.2 37.25 11.9 37.25 11.4 L37.25 11.25 M29.7 10.6 Q29.25 10.6 29.1 10.3 L29.05 10.0 Q29.05 9.1 29.85 9.0 30.6 8.9 30.6 9.65 L30.35 10.3 29.7 10.6 M2.45 9.4 L2.45 9.3 Q2.45 8.7 2.9 8.25 3.35 7.8 4.0 7.8 4.6 7.8 5.05 8.25 5.5 8.7 5.5 9.3 L5.5 9.6 5.05 10.45 Q4.6 10.9 4.0 10.9 3.35 10.9 2.9 10.45 2.5 10.05 2.45 9.4 M8.8 11.4 L8.5 12.2 Q8.15 12.55 7.65 12.55 7.15 12.55 6.85 12.2 6.5 11.9 6.5 11.4 L6.55 11.25 Q6.55 10.85 6.85 10.55 7.15 10.25 7.65 10.25 8.15 10.25 8.5 10.55 L8.8 11.4" fill="#ffffff" fill-rule="evenodd" stroke="none"/>
      <path d="M27.7 -0.95 L27.8 -0.9 29.15 -0.15 30.85 -0.55 30.45 0.95 30.75 1.35 31.35 2.3 31.4 2.4 29.55 2.65 28.55 4.1 27.7 2.6 26.05 2.0 27.15 1.15 27.5 0.8 27.5 0.55 Q27.6 0.75 27.85 0.75 L28.3 0.45 28.6 0.0 28.55 -0.3 27.7 -0.2 27.5 0.1 27.45 -0.85 27.45 -1.05 27.45 -1.1 27.55 -1.05 27.7 -0.95 M24.5 17.3 L24.45 17.3 24.5 17.25 25.55 13.55 25.55 13.45 24.4 10.8 24.2 10.4 23.9 9.75 28.25 10.2 31.35 6.9 32.35 10.6 32.5 11.3 32.55 11.35 35.55 13.15 36.1 13.45 32.95 15.3 32.05 19.25 31.5 18.8 31.2 18.6 28.85 16.8 28.65 16.65 28.6 16.6 28.45 16.65 26.0 17.05 24.5 17.3 M29.7 10.6 L30.35 10.3 30.6 9.65 Q30.6 8.9 29.85 9.0 29.05 9.1 29.05 10.0 L29.1 10.3 Q29.25 10.6 29.7 10.6" fill="#ffff00" fill-rule="evenodd" stroke="none"/>
      <path d="M27.85 -1.0 L27.7 -0.95 27.55 -1.05 27.85 -1.0 M27.45 -1.05 L27.45 -0.85 Q22.15 0.8 20.5 5.5 L20.15 6.5 Q19.45 9.3 19.9 11.8 L20.1 12.25 20.85 13.8 Q22.1 16.0 24.5 17.25 L24.45 17.3 24.5 17.3 24.65 17.9 25.5 17.75 27.45 18.4 27.6 18.45 28.9 18.7 30.9 18.9 31.15 19.1 31.3 19.2 31.7 19.55 31.45 19.7 Q27.4 21.85 23.9 22.4 L23.65 22.45 20.4 22.3 Q16.8 21.5 14.5 19.9 L12.8 18.4 12.3 17.75 Q11.2 16.25 10.75 14.3 L10.55 13.0 10.5 12.25 Q10.3 9.2 11.65 6.3 14.75 0.4 21.6 -0.85 L27.45 -1.05 M32.9 18.8 L32.9 18.85 32.55 19.05 32.6 18.85 32.9 18.8 M14.85 3.7 Q13.9 4.3 12.95 5.7 11.75 7.45 11.75 8.8 L11.9 10.4 Q12.25 12.0 13.15 12.8 L13.1 11.7 Q12.85 10.0 13.05 8.75 13.4 6.65 14.85 3.7 M13.25 15.35 Q13.7 15.35 13.7 14.7 13.7 14.15 13.1 14.05 12.45 13.9 12.45 14.7 L12.6 15.0 Q12.8 15.35 13.25 15.35" fill="#ffcc33" fill-rule="evenodd" stroke="none"/>
      <path d="M27.8 -0.9 L27.7 -0.95 27.85 -1.0 27.8 -0.9 M27.45 -0.85 L27.5 0.1 27.45 0.3 27.5 0.55 Q26.6 0.85 25.8 1.3 21.75 3.4 20.5 7.7 19.8 10.2 20.1 12.25 L19.9 11.8 Q19.45 9.3 20.15 6.5 L20.5 5.5 Q22.15 0.8 27.45 -0.85 M10.5 12.25 L10.55 13.0 10.75 14.3 Q11.2 16.25 12.3 17.75 L12.8 18.4 14.5 19.9 Q16.8 21.5 20.4 22.3 L23.65 22.45 23.9 22.4 Q27.4 21.85 31.45 19.7 L31.7 19.55 32.35 20.05 32.55 19.05 32.9 18.85 32.95 19.55 32.9 20.2 Q27.9 23.3 23.65 23.75 L20.4 23.6 Q11.4 21.6 10.6 14.5 L10.55 14.35 10.5 12.25 M32.6 18.8 L32.8 18.75 32.9 18.8 32.6 18.85 32.6 18.8" fill="#ff9900" fill-rule="evenodd" stroke="none"/>
      <path d="M26.05 2.0 L27.7 2.6 28.55 4.1 29.55 2.65 31.4 2.4 31.4 2.45 31.4 3.0 29.75 3.25 28.85 4.7 27.9 3.1 26.7 2.65 26.05 2.0 M30.75 1.35 L30.45 0.95 30.85 -0.55 31.1 0.15 30.75 1.35 M31.7 19.55 L31.3 19.2 31.15 19.1 30.9 18.9 28.8 17.2 25.5 17.75 24.65 17.9 24.5 17.3 26.0 17.05 28.45 16.65 28.6 16.6 28.65 16.65 28.85 16.8 31.2 18.6 31.5 18.8 32.05 19.25 32.95 15.3 36.1 13.45 36.1 14.2 33.15 15.9 32.6 18.8 32.6 18.85 32.55 19.05 32.35 20.05 31.7 19.55 M32.35 10.6 L32.55 11.35 32.5 11.3 32.35 10.6 M24.4 10.8 L25.55 13.45 25.55 13.55 24.4 10.8" fill="#ffcc00" fill-rule="evenodd" stroke="none"/>
      <path d="M14.85 3.7 Q13.4 6.65 13.05 8.75 12.85 10.0 13.1 11.7 L13.15 12.8 Q12.25 12.0 11.9 10.4 L11.75 8.8 Q11.75 7.45 12.95 5.7 13.9 4.3 14.85 3.7 M13.25 15.35 Q12.8 15.35 12.6 15.0 L12.45 14.7 Q12.45 13.9 13.1 14.05 13.7 14.15 13.7 14.7 13.7 15.35 13.25 15.35" fill="#ffffff" fill-opacity="0.6" fill-rule="evenodd" stroke="none"/>
      <path d="M-3.6 0.95 L-3.05 -0.3 Q-2.4 -1.85 -0.4 -3.65 2.65 -6.55 8.75 -10.0 12.7 -12.25 15.8 -13.55 20.35 -15.5 23.05 -15.4 L23.35 -15.4 23.7 -15.4 Q26.5 -15.4 30.85 -13.55 33.95 -12.25 37.85 -10.0 43.65 -6.8 46.6 -3.9 48.7 -2.0 49.45 -0.3 L50.05 1.0 Q50.6 1.15 51.05 1.55 51.7 2.2 51.7 3.1 51.7 3.9 51.2 4.5 L53.65 14.5 Q55.6 23.7 56.35 28.3 L57.2 36.65 Q57.4 39.7 48.3 43.35 L45.95 44.25 45.85 43.95 45.85 43.7 Q45.85 43.05 45.15 42.95 L44.9 42.9 44.45 42.2 Q44.45 42.7 44.9 42.9 M44.25 40.35 L44.25 40.3 44.45 40.1 43.35 36.3 Q41.35 30.75 38.5 28.1 L38.15 27.8 36.15 26.2 Q33.5 24.2 32.05 23.75 L29.9 23.2 M15.05 23.55 Q12.25 24.45 10.35 26.15 8.45 27.9 7.3 29.55 L7.1 29.85 6.5 30.7 5.75 31.85 5.1 32.95 4.1 35.1 Q3.55 36.4 3.25 37.65 L3.25 37.9 3.0 39.1 3.0 39.15 2.95 39.35 2.9 40.45 3.1 40.95 3.0 40.9 2.15 41.0 Q2.0 41.2 2.0 41.6 L2.25 42.15 2.45 42.6 2.35 43.1 Q1.3 43.2 0.95 43.8 L1.15 43.75 Q2.05 43.6 2.35 43.1 M1.5 45.35 L1.75 45.55 1.8 45.6 Q2.55 46.35 2.55 47.4 L2.65 56.3 M2.1 58.05 L1.7 59.15 1.6 59.4 0.6 59.35 -0.75 59.35 -0.7 56.95 -0.7 56.85 -1.45 59.25 -2.85 59.25 -2.45 56.65 -2.35 47.4 Q-2.35 46.35 -1.6 45.6 L-1.55 45.55 Q-1.05 45.0 -0.25 44.9 L-1.2 44.55 Q-7.9 42.1 -9.8 40.35 L-9.85 40.3 Q-10.5 39.65 -10.05 34.9 L-9.4 29.5 -7.0 15.4 -4.95 5.55 -4.95 5.3 -4.8 4.8 -5.0 4.6 Q-5.6 4.0 -5.6 3.1 -5.6 2.2 -5.0 1.55 -4.4 1.0 -3.6 0.95 L-3.5 0.95 Q-2.6 0.95 -2.05 1.55 -1.35 2.2 -1.35 3.1 L-1.5 3.9 -1.4 4.55 Q-1.4 5.05 -1.85 5.6 -2.5 6.4 -3.5 6.4 -4.85 6.4 -4.95 5.55 M29.15 -13.55 L30.85 -12.75 Q33.8 -11.2 35.55 -8.85 L34.35 -8.75 30.75 -9.4 Q28.3 -10.0 27.15 -11.0 26.45 -11.5 25.7 -12.55 25.1 -13.3 25.05 -13.55 L25.1 -13.65 29.15 -13.55 M27.7 -0.95 L27.8 -0.9 27.85 -1.0 27.7 -0.95 27.55 -1.05 27.45 -1.1 27.45 -1.05 27.45 -0.85 27.5 0.1 27.7 -0.2 28.55 -0.3 28.6 0.0 28.3 0.45 27.85 0.75 Q27.6 0.75 27.5 0.55 L27.5 0.8 27.15 1.15 26.05 2.0 27.7 2.6 28.55 4.1 29.55 2.65 31.4 2.4 31.35 2.3 30.75 1.35 30.45 0.95 30.85 -0.55 29.15 -0.15 27.8 -0.9 M27.85 -1.0 L27.55 -1.05 M27.45 -1.05 L21.6 -0.85 Q14.75 0.4 11.65 6.3 10.3 9.2 10.5 12.25 L10.55 13.0 10.75 14.3 Q11.2 16.25 12.3 17.75 L12.8 18.4 14.5 19.9 Q16.8 21.5 20.4 22.3 L23.65 22.45 23.9 22.4 Q27.4 21.85 31.45 19.7 L31.7 19.55 31.3 19.2 31.15 19.1 30.9 18.9 28.9 18.7 27.6 18.45 27.45 18.4 25.5 17.75 24.65 17.9 24.5 17.3 24.45 17.3 24.5 17.25 Q22.1 16.0 20.85 13.8 L20.1 12.25 19.9 11.8 Q19.45 9.3 20.15 6.5 L20.5 5.5 Q22.15 0.8 27.45 -0.85 M-1.5 3.9 L-2.05 4.6 Q-2.6 5.2 -3.5 5.2 L-4.8 4.8 M2.1 6.95 Q2.0 7.5 1.55 7.85 1.1 8.4 0.35 8.4 -0.3 8.4 -0.85 7.85 -1.35 7.4 -1.35 6.65 L-1.35 6.45 -1.6 7.55 -1.15 8.5 Q-0.5 9.3 0.4 9.3 2.35 9.3 2.35 7.8 2.4 7.15 2.1 6.95 L2.1 6.65 Q2.1 5.95 1.55 5.4 1.1 4.9 0.35 4.9 -0.3 4.9 -0.85 5.4 -1.3 5.85 -1.35 6.45 M-5.85 36.25 Q-5.9 38.45 -3.65 41.6 L-1.05 44.55 -3.5 43.3 -7.0 41.25 Q-7.7 40.75 -8.1 39.65 L-8.9 36.7 Q-9.35 34.9 -7.75 23.6 -6.0 11.6 -4.3 8.65 -3.85 7.55 -3.2 7.6 -2.15 7.7 -0.1 10.55 L0.2 14.05 Q0.15 18.0 -1.55 20.25 -2.9 22.0 -3.8 24.7 L-0.05 25.1 0.65 29.25 -3.65 29.2 -4.35 26.55 -4.9 28.85 -5.8 35.65 -2.45 35.65 -0.1 40.35 -3.85 39.4 -5.85 36.25 -5.8 35.75 -5.8 35.65 M-0.25 44.9 L-0.05 44.85 -0.1 44.6 Q-0.1 44.05 0.95 43.8 M1.5 39.9 Q0.9 39.8 0.9 39.15 L1.05 38.85 1.1 38.75 1.7 38.15 1.7 37.45 Q0.7 37.4 0.7 36.65 0.7 35.9 1.1 35.8 L1.1 35.65 1.25 35.4 0.7 33.85 1.45 33.75 Q1.2 33.95 1.2 34.4 L1.4 35.05 1.25 35.4 M11.8 20.6 L11.7 20.4 Q11.0 19.2 10.65 18.05 L8.9 21.7 4.65 20.75 5.85 15.5 10.6 18.0 Q10.2 16.65 10.2 15.45 10.2 14.95 10.6 14.5 L10.55 14.35 10.5 12.25 M-3.8 24.7 L-4.35 26.55 M-0.7 56.85 L-0.55 55.35 -0.3 53.85 Q0.15 54.7 0.15 57.2 0.35 59.25 0.1 59.25 L-0.65 59.15 -0.7 56.95 M51.1 4.55 L51.2 4.5 M51.05 4.65 L51.05 4.6 51.1 4.55 51.1 4.65 51.05 4.7 51.1 5.0 50.7 6.0 Q50.2 6.6 49.4 6.6 48.75 6.6 48.3 6.2 L47.8 5.6 47.45 4.9 47.5 4.75 47.45 4.45 Q47.45 4.15 47.6 3.9 L47.4 3.1 Q47.4 2.2 48.1 1.55 48.65 0.95 49.55 0.95 L50.05 1.0 M51.05 4.65 L51.05 4.7 M47.25 7.4 L47.4 6.65 Q47.4 5.95 46.9 5.4 46.35 4.9 45.7 4.9 44.95 4.9 44.5 5.4 44.05 5.85 44.0 6.4 L43.95 6.65 Q43.95 7.4 44.5 7.85 44.95 8.4 45.7 8.4 46.35 8.4 46.9 7.85 L47.25 7.4 47.35 8.15 Q47.35 9.5 45.75 9.5 44.4 9.5 43.85 8.55 43.55 8.05 43.55 7.45 43.55 6.65 44.0 6.4 M47.6 3.9 L48.1 4.6 Q48.65 5.2 49.55 5.2 50.4 5.2 51.05 4.65 M43.65 9.5 L43.65 9.3 Q43.65 8.7 43.15 8.25 42.7 7.8 42.05 7.8 41.45 7.8 41.0 8.25 40.65 8.6 40.6 9.1 L40.55 9.3 Q40.55 10.0 41.0 10.45 41.45 10.9 42.05 10.9 42.7 10.9 43.15 10.45 43.6 10.05 43.65 9.5 L43.85 10.4 Q43.85 11.95 42.45 11.95 41.25 11.95 40.65 10.95 L40.3 9.9 Q40.3 9.3 40.6 9.1 M49.5 39.9 L49.5 40.05 Q49.55 40.65 49.05 41.8 L48.15 43.35 Q51.1 42.15 53.05 40.8 L55.3 38.85 Q56.85 37.45 54.75 35.1 53.8 33.95 54.05 27.1 54.3 19.9 53.0 17.6 51.95 15.25 50.2 13.5 L48.85 19.6 Q48.0 23.0 48.95 24.75 L49.9 25.9 Q50.75 26.55 51.05 27.5 51.55 29.15 50.45 31.8 48.45 36.65 48.7 37.4 L48.9 37.75 49.5 39.9 47.6 40.35 48.9 37.75 M41.0 14.9 L36.25 17.9 37.95 21.6 42.2 20.15 41.0 14.9 M48.95 24.75 L46.85 25.2 46.55 29.4 50.8 28.95 51.05 27.5 M44.75 39.15 L44.7 39.05 44.55 38.05 Q44.55 36.9 45.4 36.05 L45.1 35.65 44.95 34.9 Q44.95 34.35 45.45 33.95 L42.15 33.25 43.35 36.3 M45.45 33.95 L46.15 33.55 Q47.25 33.1 46.75 34.7 L46.7 34.75 Q47.6 34.75 47.6 35.5 47.6 36.2 46.9 36.35 L46.5 37.05 46.05 38.1 46.35 38.6 46.4 38.7 46.65 39.25 46.45 39.75 45.9 40.0 45.75 40.0 Q45.05 39.9 44.75 39.15 L44.5 40.0 44.5 40.05 44.45 40.1 44.5 40.0 M33.8 17.2 L33.4 18.7 32.95 19.55 32.9 20.2 32.9 20.35 32.9 20.55 36.05 26.1 42.75 25.0 42.15 33.25 40.1 29.65 38.5 28.1 M44.25 40.35 Q44.75 40.25 44.75 41.05 L44.45 42.2 M48.65 59.2 L48.65 59.25 50.0 59.25 49.6 56.65 49.5 47.4 Q49.5 46.35 48.8 45.6 L48.75 45.55 Q48.1 44.85 47.05 44.85 46.1 44.85 45.4 45.55 L45.35 45.6 Q44.65 46.35 44.65 47.4 L44.55 56.3 M45.95 55.15 L46.55 59.15 46.05 59.25 45.55 59.3 M45.55 59.35 L47.95 59.35 47.9 56.85 48.45 58.55 48.0 57.0 47.85 55.9 Q47.8 54.95 47.9 54.9 49.95 59.25 49.65 59.15 L48.65 59.2 48.6 59.2 48.45 58.55 M31.4 2.4 L31.4 2.45 31.4 3.0 29.75 3.25 28.85 4.7 27.9 3.1 26.7 2.65 26.05 2.0 M31.35 2.3 L31.6 2.9 Q31.6 3.75 30.5 3.85 L30.3 4.1 29.65 4.65 Q29.35 5.05 28.8 5.05 28.25 5.05 27.15 3.8 L26.3 2.8 26.25 2.8 Q24.35 3.25 23.7 3.95 L21.55 6.55 Q21.05 7.25 20.65 9.0 20.35 10.55 20.35 11.7 L20.85 13.8 M30.85 -0.55 L31.1 0.15 30.75 1.35 M24.4 10.8 L24.2 10.4 23.9 9.75 28.25 10.2 31.35 6.9 32.35 10.6 32.55 11.35 35.55 13.15 Q36.25 13.05 36.25 14.15 36.25 14.6 35.1 15.6 33.95 16.65 33.8 17.15 L33.8 17.2 M32.35 10.6 L32.5 11.3 32.55 11.35 M39.55 11.0 L39.65 11.05 Q40.0 11.2 40.0 11.9 L40.0 12.0 40.0 12.35 Q40.0 13.45 38.5 13.45 37.6 13.45 37.35 12.95 L37.3 12.65 37.25 12.6 36.95 11.95 Q36.95 11.45 37.25 11.25 L37.55 10.55 Q37.9 10.25 38.4 10.25 38.9 10.25 39.2 10.55 L39.55 11.0 39.6 11.4 Q39.6 11.9 39.2 12.2 38.9 12.55 38.4 12.55 37.9 12.55 37.55 12.2 37.25 11.9 37.25 11.4 L37.25 11.25 M27.5 0.55 L27.45 0.3 27.5 0.1 M27.5 0.55 Q26.6 0.85 25.8 1.3 L26.4 1.15 27.15 1.15 M29.7 10.6 Q29.25 10.6 29.1 10.3 L29.05 10.0 Q29.05 9.1 29.85 9.0 30.6 8.9 30.6 9.65 L30.35 10.3 29.7 10.6 M20.1 12.25 Q19.8 10.2 20.5 7.7 21.75 3.4 25.8 1.3 M25.55 13.55 L25.55 13.45 24.4 10.8 25.55 13.55 24.5 17.25 M36.1 13.45 L32.95 15.3 32.05 19.25 31.5 18.8 31.2 18.6 28.85 16.8 28.65 16.65 28.6 16.6 28.45 16.65 26.0 17.05 24.5 17.3 M28.9 18.7 L28.3 18.3 27.6 18.45 M30.9 18.9 L28.8 17.2 25.5 17.75 M10.6 14.5 Q11.4 21.6 20.4 23.6 L23.65 23.75 Q27.9 23.3 32.9 20.2 M35.55 13.15 L36.1 13.45 36.1 14.2 33.15 15.9 32.6 18.8 32.8 18.75 32.9 18.8 32.9 18.85 32.95 19.55 M32.6 18.85 L32.9 18.8 M32.6 18.8 L32.6 18.85 32.55 19.05 32.9 18.85 M32.55 19.05 L32.35 20.05 31.7 19.55 M36.05 26.1 L36.15 26.2 M14.85 3.7 Q13.4 6.65 13.05 8.75 12.85 10.0 13.1 11.7 L13.15 12.8 Q12.25 12.0 11.9 10.4 L11.75 8.8 Q11.75 7.45 12.95 5.7 13.9 4.3 14.85 3.7 M2.45 9.4 L2.45 9.3 Q2.45 8.7 2.9 8.25 3.35 7.8 4.0 7.8 4.6 7.8 5.05 8.25 5.5 8.7 5.5 9.3 L5.5 9.6 Q5.75 9.9 5.65 10.55 L5.4 11.45 Q5.0 12.15 4.05 12.15 2.95 12.15 2.5 11.15 L2.25 10.1 2.45 9.4 Q2.5 10.05 2.9 10.45 3.35 10.9 4.0 10.9 4.6 10.9 5.05 10.45 L5.5 9.6 M8.8 11.4 L8.5 12.2 Q8.15 12.55 7.65 12.55 7.15 12.55 6.85 12.2 6.5 11.9 6.5 11.4 L6.55 11.25 Q6.15 11.4 6.15 11.95 6.75 13.65 8.15 13.65 9.7 13.65 9.7 12.25 9.8 11.35 8.95 11.35 L8.8 11.4 8.5 10.55 Q8.15 10.25 7.65 10.25 7.15 10.25 6.85 10.55 6.55 10.85 6.55 11.25 M13.25 15.35 Q12.8 15.35 12.6 15.0 L12.45 14.7 Q12.45 13.9 13.1 14.05 13.7 14.15 13.7 14.7 13.7 15.35 13.25 15.35 M10.65 18.05 L10.6 18.0 M13.0 22.15 L10.5 25.95 10.35 26.15 10.25 26.15 3.55 25.65 4.9 33.3 5.1 32.95 M13.0 22.15 L11.8 20.6 M10.5 25.95 L10.25 26.15 M1.45 33.75 L2.25 33.6 2.45 33.65 4.9 33.3 Q4.45 34.0 4.1 35.1 M2.45 33.65 Q3.25 33.8 3.25 34.9 3.25 36.0 2.65 36.35 3.15 36.8 3.25 37.65 M2.65 39.6 L2.8 40.15 2.95 39.35 M3.0 39.15 L2.65 39.6 1.7 39.9 1.5 39.9 M1.5 45.35 L1.15 45.35 Q0.05 45.35 -0.05 44.85 M0.6 59.35 L1.0 58.3 1.45 57.5 1.6 55.65 2.1 57.8 1.7 59.15 M45.1 58.15 L45.3 58.75 45.15 58.1 45.1 58.15 44.75 58.45" fill="none" stroke="#22c3f9" stroke-linecap="round" stroke-linejoin="round" stroke-width="3.5"/>
      <path d="M2.15 41.0 L1.5 39.9 M1.05 38.85 L-2.4 31.3 3.1 31.5 1.15 22.9 10.25 24.0 11.8 20.6 M46.4 38.7 L49.95 31.5 44.2 31.5 45.3 21.75 37.1 23.8 33.8 17.2 M45.75 40.0 L45.1 41.3 M23.45 67.35 Q20.5 67.35 18.4 65.3 16.35 63.2 16.35 60.3 16.35 57.35 18.4 55.3 20.5 53.2 23.45 53.2 26.35 53.2 28.45 55.3 30.5 57.35 30.5 60.3 30.5 63.2 28.45 65.3 26.35 67.35 23.45 67.35 Z" fill="none" stroke="#22c3f9" stroke-linecap="butt" stroke-linejoin="miter-clip" stroke-miterlimit="3.0" stroke-width="3.5"/>
      <path d="M48.75 37.3 Q48.75 38.0 48.25 38.5 47.75 39.0 47.1 39.0 46.4 39.0 45.9 38.5 45.4 38.0 45.4 37.3 45.4 36.65 45.9 36.15 46.4 35.65 47.1 35.65 47.75 35.65 48.25 36.15 48.75 36.65 48.75 37.3" fill="#c48524" fill-rule="evenodd" stroke="none"/>
      <path d="M48.75 37.3 Q48.75 38.0 48.25 38.5 47.75 39.0 47.1 39.0 46.4 39.0 45.9 38.5 45.4 38.0 45.4 37.3 45.4 36.65 45.9 36.15 46.4 35.65 47.1 35.65 47.75 35.65 48.25 36.15 48.75 36.65 48.75 37.3 Z" fill="none" stroke="#22c3f9" stroke-linecap="round" stroke-linejoin="round" stroke-width="3.5"/>
      <path d="M2.7 37.4 Q2.7 38.1 2.2 38.6 1.7 39.1 1.05 39.1 0.35 39.1 -0.15 38.6 -0.65 38.1 -0.65 37.4 -0.65 36.75 -0.15 36.25 0.35 35.75 1.05 35.75 1.7 35.75 2.2 36.25 2.7 36.75 2.7 37.4" fill="#c48524" fill-rule="evenodd" stroke="none"/>
      <path d="M2.7 37.4 Q2.7 38.1 2.2 38.6 1.7 39.1 1.05 39.1 0.35 39.1 -0.15 38.6 -0.65 38.1 -0.65 37.4 -0.65 36.75 -0.15 36.25 0.35 35.75 1.05 35.75 1.7 35.75 2.2 36.25 2.7 36.75 2.7 37.4 Z" fill="none" stroke="#22c3f9" stroke-linecap="round" stroke-linejoin="round" stroke-width="3.5"/>
      <path d="M3.55 41.6 Q3.55 42.95 2.55 43.95 1.6 44.95 0.2 44.95 -1.15 44.95 -2.2 43.95 -3.15 42.95 -3.15 41.6 -3.15 40.2 -2.2 39.2 -1.15 38.2 0.2 38.2 1.6 38.2 2.55 39.2 3.55 40.2 3.55 41.6" fill="#d23482" fill-rule="evenodd" stroke="none"/>
      <path d="M3.55 41.6 Q3.55 42.95 2.55 43.95 1.6 44.95 0.2 44.95 -1.15 44.95 -2.2 43.95 -3.15 42.95 -3.15 41.6 -3.15 40.2 -2.2 39.2 -1.15 38.2 0.2 38.2 1.6 38.2 2.55 39.2 3.55 40.2 3.55 41.6 Z" fill="none" stroke="#22c3f9" stroke-linecap="round" stroke-linejoin="round" stroke-width="3.5"/>
      <path d="M2.6 48.25 L-2.4 48.25 -2.4 46.6 Q-2.4 45.9 -1.9 45.4 -1.4 44.9 -0.75 44.9 L0.95 44.9 Q1.6 44.9 2.1 45.4 2.6 45.9 2.6 46.6 L2.6 48.25" fill="#7f2362" fill-rule="evenodd" stroke="none"/>
      <path d="M2.6 48.25 L2.6 46.6 Q2.6 45.9 2.1 45.4 1.6 44.9 0.95 44.9 L-0.75 44.9 Q-1.4 44.9 -1.9 45.4 -2.4 45.9 -2.4 46.6 L-2.4 48.25 2.6 48.25 Z" fill="none" stroke="#22c3f9" stroke-linecap="round" stroke-linejoin="round" stroke-width="3.5"/>
      <path d="M2.6 48.25 L2.6 49.95 -2.4 49.95 -2.4 48.25 2.6 48.25" fill="#bb2770" fill-rule="evenodd" stroke="none"/>
      <path d="M2.6 48.25 L2.6 49.95 -2.4 49.95 -2.4 48.25 2.6 48.25 Z" fill="none" stroke="#22c3f9" stroke-linecap="round" stroke-linejoin="round" stroke-width="3.5"/>
      <path d="M50.4 41.55 Q50.4 42.9 49.4 43.9 48.45 44.9 47.05 44.9 45.7 44.9 44.65 43.9 43.7 42.9 43.7 41.55 43.7 40.15 44.65 39.15 45.7 38.15 47.05 38.15 48.45 38.15 49.4 39.15 50.4 40.15 50.4 41.55" fill="#d23482" fill-rule="evenodd" stroke="none"/>
      <path d="M50.4 41.55 Q50.4 42.9 49.4 43.9 48.45 44.9 47.05 44.9 45.7 44.9 44.65 43.9 43.7 42.9 43.7 41.55 43.7 40.15 44.65 39.15 45.7 38.15 47.05 38.15 48.45 38.15 49.4 39.15 50.4 40.15 50.4 41.55 Z" fill="none" stroke="#22c3f9" stroke-linecap="round" stroke-linejoin="round" stroke-width="3.5"/>
      <path d="M49.55 48.2 L44.55 48.2 44.55 46.55 Q44.55 45.85 45.05 45.35 45.55 44.85 46.2 44.85 L47.9 44.85 Q48.55 44.85 49.05 45.35 49.55 45.85 49.55 46.55 L49.55 48.2" fill="#7f2362" fill-rule="evenodd" stroke="none"/>
      <path d="M49.55 48.2 L49.55 46.55 Q49.55 45.85 49.05 45.35 48.55 44.85 47.9 44.85 L46.2 44.85 Q45.55 44.85 45.05 45.35 44.55 45.85 44.55 46.55 L44.55 48.2 49.55 48.2 Z" fill="none" stroke="#22c3f9" stroke-linecap="round" stroke-linejoin="round" stroke-width="3.5"/>
      <path d="M49.55 48.25 L49.55 49.95 44.55 49.95 44.55 48.25 49.55 48.25" fill="#bb2770" fill-rule="evenodd" stroke="none"/>
      <path d="M49.55 48.25 L49.55 49.95 44.55 49.95 44.55 48.25 49.55 48.25 Z" fill="none" stroke="#22c3f9" stroke-linecap="round" stroke-linejoin="round" stroke-width="3.5"/>
      <path d="M2.6 49.9 L2.6 51.6 -2.4 51.6 -2.4 49.9 2.6 49.9" fill="#c48524" fill-rule="evenodd" stroke="none"/>
      <path d="M2.6 49.9 L2.6 51.6 -2.4 51.6 -2.4 49.9 2.6 49.9 Z" fill="none" stroke="#22c3f9" stroke-linecap="round" stroke-linejoin="round" stroke-width="3.5"/>
      <path d="M49.55 49.9 L49.55 51.6 44.55 51.6 44.55 49.9 49.55 49.9" fill="#c48524" fill-rule="evenodd" stroke="none"/>
      <path d="M49.55 49.9 L49.55 51.6 44.55 51.6 44.55 49.9 49.55 49.9 Z" fill="none" stroke="#22c3f9" stroke-linecap="round" stroke-linejoin="round" stroke-width="3.5"/>
      <path d="M47.05 40.25 L46.7 41.1 Q46.3 41.5 45.8 41.5 45.3 41.5 44.9 41.1 44.55 40.75 44.55 40.25 44.55 39.7 44.9 39.35 45.3 38.95 45.8 38.95 46.3 38.95 46.7 39.35 47.05 39.7 47.05 40.25" fill="#e9519c" fill-rule="evenodd" stroke="none"/>
      <path d="M47.05 40.25 L46.7 41.1 Q46.3 41.5 45.8 41.5 45.3 41.5 44.9 41.1 44.55 40.75 44.55 40.25 44.55 39.7 44.9 39.35 45.3 38.95 45.8 38.95 46.3 38.95 46.7 39.35 47.05 39.7 47.05 40.25 Z" fill="none" stroke="#22c3f9" stroke-linecap="round" stroke-linejoin="round" stroke-width="3.5"/>
      <path d="M0.2 40.35 L-0.15 41.2 Q-0.55 41.6 -1.05 41.6 -1.55 41.6 -1.95 41.2 L-2.3 40.35 Q-2.3 39.8 -1.95 39.45 -1.55 39.05 -1.05 39.05 -0.55 39.05 -0.15 39.45 0.2 39.8 0.2 40.35" fill="#e9519c" fill-rule="evenodd" stroke="none"/>
      <path d="M0.2 40.35 L-0.15 41.2 Q-0.55 41.6 -1.05 41.6 -1.55 41.6 -1.95 41.2 L-2.3 40.35 Q-2.3 39.8 -1.95 39.45 -1.55 39.05 -1.05 39.05 -0.55 39.05 -0.15 39.45 0.2 39.8 0.2 40.35 Z" fill="none" stroke="#22c3f9" stroke-linecap="round" stroke-linejoin="round" stroke-width="3.5"/>
      <path d="M1.85 43.25 L1.6 43.8 1.0 44.05 0.4 43.8 Q0.15 43.6 0.15 43.25 0.15 42.9 0.4 42.65 L1.0 42.4 Q1.35 42.4 1.6 42.65 L1.85 43.25" fill="#e9519c" fill-rule="evenodd" stroke="none"/>
      <path d="M1.85 43.25 L1.6 43.8 1.0 44.05 0.4 43.8 Q0.15 43.6 0.15 43.25 0.15 42.9 0.4 42.65 L1.0 42.4 Q1.35 42.4 1.6 42.65 L1.85 43.25 Z" fill="none" stroke="#22c3f9" stroke-linecap="round" stroke-linejoin="round" stroke-width="3.5"/>
      <path d="M49.6 43.2 L49.35 43.75 48.75 44.0 48.15 43.75 Q47.9 43.55 47.9 43.2 47.9 42.85 48.15 42.6 48.4 42.35 48.75 42.35 49.1 42.35 49.35 42.6 L49.6 43.2" fill="#e9519c" fill-rule="evenodd" stroke="none"/>
      <path d="M49.6 43.2 L49.35 43.75 48.75 44.0 48.15 43.75 Q47.9 43.55 47.9 43.2 47.9 42.85 48.15 42.6 48.4 42.35 48.75 42.35 49.1 42.35 49.35 42.6 L49.6 43.2 Z" fill="none" stroke="#22c3f9" stroke-linecap="round" stroke-linejoin="round" stroke-width="3.5"/>
      <path d="M47.85 34.4 Q47.85 34.9 47.5 35.25 47.1 35.65 46.6 35.65 46.1 35.65 45.7 35.25 45.35 34.9 45.35 34.4 45.35 33.85 45.7 33.5 46.1 33.1 46.6 33.1 47.1 33.1 47.5 33.5 47.85 33.85 47.85 34.4" fill="#dbc470" fill-rule="evenodd" stroke="none"/>
      <path d="M47.85 34.4 Q47.85 34.9 47.5 35.25 47.1 35.65 46.6 35.65 46.1 35.65 45.7 35.25 45.35 34.9 45.35 34.4 45.35 33.85 45.7 33.5 46.1 33.1 46.6 33.1 47.1 33.1 47.5 33.5 47.85 33.85 47.85 34.4 Z" fill="none" stroke="#22c3f9" stroke-linecap="round" stroke-linejoin="round" stroke-width="3.5"/>
      <path d="M2.7 34.5 Q2.7 35.0 2.35 35.35 1.95 35.75 1.45 35.75 0.95 35.75 0.55 35.35 0.2 35.0 0.2 34.5 0.2 33.95 0.55 33.6 0.95 33.2 1.45 33.2 1.95 33.2 2.35 33.6 2.7 33.95 2.7 34.5" fill="#dbc470" fill-rule="evenodd" stroke="none"/>
      <path d="M2.7 34.5 Q2.7 35.0 2.35 35.35 1.95 35.75 1.45 35.75 0.95 35.75 0.55 35.35 0.2 35.0 0.2 34.5 0.2 33.95 0.55 33.6 0.95 33.2 1.45 33.2 1.95 33.2 2.35 33.6 2.7 33.95 2.7 34.5 Z" fill="none" stroke="#22c3f9" stroke-linecap="round" stroke-linejoin="round" stroke-width="3.5"/>
      <path d="M30.95 25.0 L25.95 24.6 28.25 22.1 30.95 25.0 M18.1 61.3 L18.25 55.25 20.45 60.75 18.1 61.3 M17.9 22.1 L20.2 24.6 15.2 25.0 17.9 22.1 M4.6 61.3 L2.25 60.75 4.45 55.25 4.6 61.3 M42.85 55.25 L45.05 60.75 42.7 61.3 42.85 55.25" fill="#22c3f9" fill-rule="evenodd" stroke="none"/>
      <path d="M15.8 -13.55 Q20.35 -15.5 23.05 -15.4 L23.35 -15.4 23.7 -15.4 Q26.5 -15.4 30.85 -13.55 33.95 -12.25 37.85 -10.0 43.65 -6.8 46.6 -3.9 48.7 -2.0 49.45 -0.3 51.0 2.5 53.65 14.5 55.6 23.7 56.35 28.3 L57.2 36.65 Q57.4 39.7 48.3 43.35 L45.95 44.25 45.2 43.2 Q44.35 42.45 44.35 41.5 L44.25 40.3 44.5 40.05 Q42.05 30.95 37.9 27.55 33.95 24.35 32.05 23.75 24.95 21.55 18.2 22.75 14.9 23.35 12.9 24.35 9.75 25.75 6.5 30.7 2.9 36.0 2.9 40.45 2.9 40.85 3.6 41.45 L2.85 42.75 2.6 43.1 Q0.75 43.1 0.75 44.65 L0.9 45.3 -1.2 44.55 Q-7.9 42.1 -9.8 40.35 L-9.85 40.3 Q-10.5 39.65 -10.05 34.9 L-9.4 29.5 -7.0 15.4 Q-4.6 2.45 -3.05 -0.3 -2.4 -1.85 -0.4 -3.65 2.65 -6.55 8.75 -10.0 12.7 -12.25 15.8 -13.55" fill="#7f2362" fill-rule="evenodd" stroke="none"/>
      <path d="M42.15 33.25 L46.2 34.1 44.45 40.1 Q43.15 35.3 42.15 33.25 L40.1 29.65 38.15 27.8 36.05 26.1 Q33.9 24.1 30.75 23.3 L23.7 22.4 Q18.95 22.45 15.8 23.3 12.5 24.2 10.35 26.15 8.45 27.9 7.3 29.55 L4.9 33.3 Q3.7 35.25 2.8 40.15 L0.7 33.85 4.9 33.3 3.55 25.65 10.35 26.15 15.85 17.75 23.7 22.4 31.4 18.0 36.05 26.1 42.75 25.0 42.15 33.25" fill="#bb2770" fill-rule="evenodd" stroke="none"/>
      <path d="M1.95 40.9 L-2.4 31.3 3.1 31.5 1.15 22.9 10.25 24.0 14.95 13.7 23.55 20.15 32.25 14.15 37.1 23.8 45.3 21.75 44.2 31.5 49.95 31.5 45.1 41.3" fill="none" stroke="#bb2770" stroke-linecap="butt" stroke-linejoin="miter-clip" stroke-miterlimit="3.0" stroke-width="1.2000000000000002"/>
      <path d="M49.9 35.65 L53.65 35.65 51.3 39.4 47.6 40.35 49.9 35.65 M46.55 29.4 L46.85 25.2 51.6 24.2 50.8 28.95 46.55 29.4 M41.0 14.9 L42.2 20.15 37.95 21.6 36.25 17.9 41.0 14.9 M4.65 20.75 L5.85 15.5 10.65 18.0 8.9 21.7 4.65 20.75 M-4.9 24.55 L-0.05 25.1 0.65 29.25 -3.65 29.2 -4.9 24.55 M-2.45 35.65 L-0.1 40.35 -3.85 39.4 -6.2 35.65 -2.45 35.65" fill="#a11c5d" fill-rule="evenodd" stroke="none"/>
      <path d="M45.35 45.6 L45.4 45.55 Q46.1 44.85 47.05 44.85 48.1 44.85 48.75 45.55 L48.8 45.6 Q49.5 46.35 49.5 47.4 L49.6 56.65 50.0 59.25 48.65 59.25 47.9 56.85 47.95 59.35 45.55 59.35 45.05 58.05 44.15 59.15 44.55 56.3 44.65 47.4 Q44.65 46.35 45.35 45.6 M1.75 45.55 L1.8 45.6 Q2.55 46.35 2.55 47.4 L2.65 56.3 3.05 59.15 2.1 58.05 1.6 59.35 -0.75 59.35 -0.7 56.85 -1.45 59.25 -2.85 59.25 -2.45 56.65 -2.35 47.4 Q-2.35 46.35 -1.6 45.6 L-1.55 45.55 Q-0.9 44.85 0.1 44.85 1.05 44.85 1.75 45.55" fill="#e2ae5d" fill-rule="evenodd" stroke="none"/>
      <path d="M48.85 19.6 L50.2 13.5 Q51.95 15.25 53.0 17.6 54.3 19.9 54.05 27.1 53.8 33.95 54.75 35.1 56.85 37.45 55.3 38.85 L53.05 40.8 Q51.1 42.15 48.15 43.35 L49.05 41.8 Q49.55 40.65 49.5 40.05 49.25 38.3 48.7 37.4 48.45 36.65 50.45 31.8 52.2 27.6 49.9 25.9 47.7 24.3 48.85 19.6 M-0.1 10.55 L0.2 14.05 Q0.15 18.0 -1.55 20.25 -3.8 23.2 -4.9 28.85 L-5.8 35.75 Q-6.15 38.1 -3.65 41.6 L-1.05 44.55 -3.5 43.3 -7.0 41.25 Q-7.7 40.75 -8.1 39.65 L-8.9 36.7 Q-9.35 34.9 -7.75 23.6 -6.0 11.6 -4.3 8.65 -3.85 7.55 -3.2 7.6 -2.15 7.7 -0.1 10.55" fill="#000000" fill-opacity="0.2" fill-rule="evenodd" stroke="none"/>
      <path d="M50.45 3.55 L50.8 3.9 Q51.05 4.05 51.1 4.65 L51.05 4.7 Q50.9 3.8 50.45 3.55" fill="#000000" fill-rule="evenodd" stroke="none"/>
      <path d="M25.05 -13.55 L25.1 -13.65 29.15 -13.55 30.85 -12.75 Q33.8 -11.2 35.55 -8.85 L34.35 -8.75 30.75 -9.4 Q28.3 -10.0 27.15 -11.0 26.45 -11.5 25.7 -12.55 25.1 -13.3 25.05 -13.55 M51.05 4.7 L51.1 5.0 50.7 6.0 Q50.2 6.6 49.4 6.6 48.75 6.6 48.3 6.2 L47.8 5.6 47.45 4.9 47.5 4.75 47.45 4.45 Q47.45 3.8 47.95 3.55 48.4 3.25 49.05 3.9 L49.1 3.85 49.45 3.8 49.5 3.7 Q49.7 3.45 49.95 3.45 L50.45 3.55 Q50.9 3.8 51.05 4.7 M44.35 6.25 Q45.1 6.2 45.1 7.45 L45.25 7.75 Q45.4 8.0 45.8 7.95 L45.75 7.7 Q45.75 6.9 46.5 6.9 47.35 6.9 47.35 8.15 47.35 9.5 45.75 9.5 44.4 9.5 43.85 8.55 43.55 8.05 43.55 7.45 43.55 6.35 44.35 6.25 M42.25 10.35 L42.1 9.9 Q42.1 9.1 42.9 9.1 43.85 9.1 43.85 10.4 43.85 11.95 42.45 11.95 41.25 11.95 40.65 10.95 L40.3 9.9 Q40.3 8.95 41.0 8.95 41.7 9.0 42.2 10.35 L42.25 10.35 M44.95 34.9 Q44.95 34.05 46.15 33.55 47.25 33.1 46.75 34.7 L46.7 34.75 Q47.6 34.75 47.6 35.5 47.6 36.2 46.9 36.35 L46.5 37.05 46.05 38.1 46.35 38.6 46.65 39.25 46.45 39.75 45.9 40.0 Q45.05 40.0 44.7 39.05 L44.55 38.05 Q44.55 36.9 45.4 36.05 L45.1 35.65 44.95 34.9 M37.7 11.15 Q38.0 11.15 38.4 11.55 39.15 10.8 39.65 11.05 40.0 11.2 40.0 11.9 L40.0 12.0 40.0 12.35 Q40.0 13.45 38.5 13.45 37.6 13.45 37.35 12.95 L37.3 12.65 37.25 12.6 36.95 11.95 Q36.95 11.15 37.7 11.15 M30.5 3.85 L30.3 4.1 29.65 4.65 Q29.35 5.05 28.8 5.05 28.25 5.05 27.15 3.8 L26.3 2.8 26.25 2.8 Q24.35 3.25 23.7 3.95 L21.55 6.55 Q21.05 7.25 20.65 9.0 20.35 10.55 20.35 11.7 20.35 12.3 21.25 15.25 21.25 16.0 20.5 16.0 19.7 16.0 19.2 13.85 L18.85 11.65 Q18.85 5.65 23.35 2.5 24.95 1.35 26.4 1.15 27.85 0.95 27.85 1.8 L27.65 2.25 28.55 3.1 29.0 2.45 30.75 2.15 Q31.6 2.15 31.6 2.9 31.6 3.75 30.5 3.85 M28.75 16.75 L30.55 17.55 Q31.2 18.0 31.2 18.7 31.2 19.45 30.4 19.45 L29.2 18.9 28.3 18.3 26.3 18.65 Q25.8 18.65 25.6 18.3 L25.5 17.85 Q25.5 17.2 26.5 16.75 27.6 16.3 28.75 16.75 M23.55 23.5 Q26.05 23.5 27.65 22.75 L27.55 22.35 Q27.55 21.65 28.4 21.45 29.9 21.15 30.75 20.6 L31.85 19.95 31.4 19.6 31.3 19.2 32.6 15.8 Q32.9 14.7 34.5 13.55 36.25 12.45 36.25 14.15 36.25 14.6 35.1 15.6 33.95 16.65 33.8 17.15 L33.4 18.7 32.7 19.75 32.9 20.35 Q32.9 20.95 31.6 21.95 L30.7 22.55 Q30.1 23.15 28.75 23.8 26.2 25.0 23.6 25.0 L19.05 24.45 16.3 23.85 Q13.4 23.45 11.7 20.4 10.2 17.8 10.2 15.45 10.2 14.7 11.0 14.05 11.75 13.35 11.75 15.0 11.5 16.25 12.3 17.75 L12.85 19.1 Q13.25 19.95 13.95 20.6 14.65 21.25 15.85 21.7 L16.35 21.55 18.3 22.55 19.6 23.0 19.95 23.0 21.9 22.8 Q22.55 22.8 22.65 23.5 L23.55 23.5 M1.55 6.8 Q2.45 6.8 2.35 7.8 2.35 9.3 0.4 9.3 -0.5 9.3 -1.15 8.5 L-1.6 7.55 Q-1.6 5.85 -0.65 6.65 L0.35 7.75 0.9 7.3 Q1.15 6.8 1.55 6.8 M2.25 10.1 Q2.25 9.15 2.9 9.35 3.6 9.55 4.0 10.6 L4.15 10.55 4.0 9.75 Q4.05 9.3 4.8 9.3 5.8 9.3 5.65 10.55 L5.4 11.45 Q5.0 12.15 4.05 12.15 2.95 12.15 2.5 11.15 L2.25 10.1 M8.05 12.15 L8.3 11.7 8.95 11.35 Q9.8 11.35 9.7 12.25 9.7 13.65 8.15 13.65 6.75 13.65 6.15 11.95 6.15 11.1 7.0 11.15 7.75 11.25 8.05 12.15 M1.1 35.65 L1.4 35.05 1.2 34.4 Q1.2 33.5 2.25 33.6 3.25 33.7 3.25 34.9 3.25 36.0 2.65 36.35 3.25 36.9 3.25 37.9 L3.0 39.1 Q2.6 39.9 1.7 39.9 0.9 39.9 0.9 39.15 L1.1 38.75 1.7 38.15 1.7 37.45 Q0.7 37.4 0.7 36.65 0.7 35.9 1.1 35.8 L1.1 35.65 M-4.05 4.35 Q-3.75 4.35 -3.3 4.8 -2.4 3.5 -1.8 3.6 -1.4 3.7 -1.4 4.55 -1.4 5.05 -1.85 5.6 -2.5 6.4 -3.5 6.4 -5.0 6.4 -4.95 5.3 L-4.75 4.7 Q-4.5 4.35 -4.05 4.35" fill="#000000" fill-opacity="0.29803923" fill-rule="evenodd" stroke="none"/>
      <path d="M48.75 37.3 Q48.75 38.0 48.25 38.5 47.75 39.0 47.1 39.0 46.4 39.0 45.9 38.5 45.4 38.0 45.4 37.3 45.4 36.65 45.9 36.15 46.4 35.65 47.1 35.65 47.75 35.65 48.25 36.15 48.75 36.65 48.75 37.3" fill="#c48524" fill-rule="evenodd" stroke="none"/>
      <path d="M2.7 37.4 Q2.7 38.1 2.2 38.6 1.7 39.1 1.05 39.1 0.35 39.1 -0.15 38.6 -0.65 38.1 -0.65 37.4 -0.65 36.75 -0.15 36.25 0.35 35.75 1.05 35.75 1.7 35.75 2.2 36.25 2.7 36.75 2.7 37.4" fill="#c48524" fill-rule="evenodd" stroke="none"/>
      <path d="M3.55 41.6 Q3.55 42.95 2.55 43.95 1.6 44.95 0.2 44.95 -1.15 44.95 -2.2 43.95 -3.15 42.95 -3.15 41.6 -3.15 40.2 -2.2 39.2 -1.15 38.2 0.2 38.2 1.6 38.2 2.55 39.2 3.55 40.2 3.55 41.6" fill="#d23482" fill-rule="evenodd" stroke="none"/>
      <path d="M2.6 48.25 L-2.4 48.25 -2.4 46.6 Q-2.4 45.9 -1.9 45.4 -1.4 44.9 -0.75 44.9 L0.95 44.9 Q1.6 44.9 2.1 45.4 2.6 45.9 2.6 46.6 L2.6 48.25" fill="#7f2362" fill-rule="evenodd" stroke="none"/>
      <path d="M2.6 48.25 L2.6 49.95 -2.4 49.95 -2.4 48.25 2.6 48.25" fill="#bb2770" fill-rule="evenodd" stroke="none"/>
      <path d="M50.4 41.55 Q50.4 42.9 49.4 43.9 48.45 44.9 47.05 44.9 45.7 44.9 44.65 43.9 43.7 42.9 43.7 41.55 43.7 40.15 44.65 39.15 45.7 38.15 47.05 38.15 48.45 38.15 49.4 39.15 50.4 40.15 50.4 41.55" fill="#d23482" fill-rule="evenodd" stroke="none"/>
      <path d="M49.55 48.2 L44.55 48.2 44.55 46.55 Q44.55 45.85 45.05 45.35 45.55 44.85 46.2 44.85 L47.9 44.85 Q48.55 44.85 49.05 45.35 49.55 45.85 49.55 46.55 L49.55 48.2" fill="#7f2362" fill-rule="evenodd" stroke="none"/>
      <path d="M49.55 48.25 L49.55 49.95 44.55 49.95 44.55 48.25 49.55 48.25" fill="#bb2770" fill-rule="evenodd" stroke="none"/>
      <path d="M2.6 49.9 L2.6 51.6 -2.4 51.6 -2.4 49.9 2.6 49.9" fill="#c48524" fill-rule="evenodd" stroke="none"/>
      <path d="M49.55 49.9 L49.55 51.6 44.55 51.6 44.55 49.9 49.55 49.9" fill="#c48524" fill-rule="evenodd" stroke="none"/>
      <path d="M47.05 40.25 L46.7 41.1 Q46.3 41.5 45.8 41.5 45.3 41.5 44.9 41.1 44.55 40.75 44.55 40.25 44.55 39.7 44.9 39.35 45.3 38.95 45.8 38.95 46.3 38.95 46.7 39.35 47.05 39.7 47.05 40.25" fill="#e9519c" fill-rule="evenodd" stroke="none"/>
      <path d="M0.2 40.35 L-0.15 41.2 Q-0.55 41.6 -1.05 41.6 -1.55 41.6 -1.95 41.2 L-2.3 40.35 Q-2.3 39.8 -1.95 39.45 -1.55 39.05 -1.05 39.05 -0.55 39.05 -0.15 39.45 0.2 39.8 0.2 40.35" fill="#e9519c" fill-rule="evenodd" stroke="none"/>
      <path d="M1.85 43.25 L1.6 43.8 1.0 44.05 0.4 43.8 Q0.15 43.6 0.15 43.25 0.15 42.9 0.4 42.65 L1.0 42.4 Q1.35 42.4 1.6 42.65 L1.85 43.25" fill="#e9519c" fill-rule="evenodd" stroke="none"/>
      <path d="M49.6 43.2 L49.35 43.75 48.75 44.0 48.15 43.75 Q47.9 43.55 47.9 43.2 47.9 42.85 48.15 42.6 48.4 42.35 48.75 42.35 49.1 42.35 49.35 42.6 L49.6 43.2" fill="#e9519c" fill-rule="evenodd" stroke="none"/>
      <path d="M47.85 34.4 Q47.85 34.9 47.5 35.25 47.1 35.65 46.6 35.65 46.1 35.65 45.7 35.25 45.35 34.9 45.35 34.4 45.35 33.85 45.7 33.5 46.1 33.1 46.6 33.1 47.1 33.1 47.5 33.5 47.85 33.85 47.85 34.4" fill="#dbc470" fill-rule="evenodd" stroke="none"/>
      <path d="M2.7 34.5 Q2.7 35.0 2.35 35.35 1.95 35.75 1.45 35.75 0.95 35.75 0.55 35.35 0.2 35.0 0.2 34.5 0.2 33.95 0.55 33.6 0.95 33.2 1.45 33.2 1.95 33.2 2.35 33.6 2.7 33.95 2.7 34.5" fill="#dbc470" fill-rule="evenodd" stroke="none"/>
      <path d="M0.1 59.25 L-0.65 59.15 -0.7 56.95 -0.55 55.35 -0.3 53.85 Q0.15 54.7 0.15 57.2 0.35 59.25 0.1 59.25 M1.6 59.4 L0.6 59.35 1.0 58.3 1.45 57.5 1.6 55.65 2.1 57.8 1.6 59.4 M44.4 58.6 L45.4 56.95 45.95 55.15 46.55 59.15 46.05 59.25 45.5 59.35 45.15 58.1 44.4 58.6 M48.0 57.0 L47.85 55.9 Q47.8 54.95 47.9 54.9 49.95 59.25 49.65 59.15 L48.6 59.2 48.0 57.0" fill="#000000" fill-opacity="0.2" fill-rule="evenodd" stroke="none"/>
      <path d="M38.4 12.55 Q37.9 12.55 37.55 12.2 37.25 11.9 37.25 11.4 37.25 10.95 37.55 10.55 37.9 10.25 38.4 10.25 38.9 10.25 39.2 10.55 39.6 10.95 39.6 11.4 39.6 11.9 39.2 12.2 38.9 12.55 38.4 12.55 M41.0 8.25 Q41.45 7.8 42.05 7.8 42.7 7.8 43.15 8.25 43.65 8.7 43.65 9.3 43.65 10.0 43.15 10.45 42.7 10.9 42.05 10.9 41.45 10.9 41.0 10.45 40.55 10.0 40.55 9.3 40.55 8.7 41.0 8.25 M45.7 4.9 Q46.35 4.9 46.9 5.4 47.4 5.95 47.4 6.65 47.4 7.4 46.9 7.85 46.35 8.4 45.7 8.4 44.95 8.4 44.5 7.85 43.95 7.4 43.95 6.65 43.95 5.95 44.5 5.4 44.95 4.9 45.7 4.9 M51.7 3.1 Q51.7 4.0 51.05 4.6 50.4 5.2 49.55 5.2 48.65 5.2 48.1 4.6 47.4 4.0 47.4 3.1 47.4 2.2 48.1 1.55 48.65 0.95 49.55 0.95 50.4 0.95 51.05 1.55 51.7 2.2 51.7 3.1 M1.55 5.4 Q2.1 5.95 2.1 6.65 2.1 7.4 1.55 7.85 1.1 8.4 0.35 8.4 -0.3 8.4 -0.85 7.85 -1.35 7.4 -1.35 6.65 -1.35 5.95 -0.85 5.4 -0.3 4.9 0.35 4.9 1.1 4.9 1.55 5.4 M2.45 9.3 Q2.45 8.7 2.9 8.25 3.35 7.8 4.0 7.8 4.6 7.8 5.05 8.25 5.5 8.7 5.5 9.3 L5.05 10.45 Q4.6 10.9 4.0 10.9 3.35 10.9 2.9 10.45 2.45 10.0 2.45 9.3 M6.5 11.4 Q6.5 10.95 6.85 10.55 7.15 10.25 7.65 10.25 8.15 10.25 8.5 10.55 L8.8 11.4 8.5 12.2 Q8.15 12.55 7.65 12.55 7.15 12.55 6.85 12.2 6.5 11.9 6.5 11.4 M-3.5 0.95 Q-2.6 0.95 -2.05 1.55 -1.35 2.2 -1.35 3.1 -1.35 4.0 -2.05 4.6 -2.6 5.2 -3.5 5.2 -4.35 5.2 -5.0 4.6 -5.6 4.0 -5.6 3.1 -5.6 2.2 -5.0 1.55 -4.35 0.95 -3.5 0.95" fill="#ffffff" fill-rule="evenodd" stroke="none"/>
      <path d="M21.6 -0.2 Q25.05 -1.2 27.85 -1.0 L27.75 -0.15 27.55 0.5 Q22.0 2.5 20.5 7.7 19.75 10.35 20.1 12.5 21.6 17.0 26.45 18.5 L32.8 18.75 Q32.95 18.7 32.9 20.2 27.9 23.3 23.65 23.75 L20.4 23.6 Q11.3 21.6 10.55 14.35 10.15 10.9 11.65 7.6 14.75 1.75 21.6 -0.2" fill="#ff9900" fill-rule="evenodd" stroke="none"/>
      <path d="M21.6 -0.85 L27.85 -1.0 Q21.65 0.8 20.15 6.5 19.45 9.3 19.9 11.8 21.6 16.9 27.45 18.4 L32.9 18.8 Q27.9 21.85 23.65 22.45 L20.4 22.3 Q11.3 20.3 10.55 13.0 10.15 9.55 11.65 6.3 14.75 0.4 21.6 -0.85" fill="#ffcc33" fill-rule="evenodd" stroke="none"/>
      <path d="M32.7 11.9 L36.1 13.45 36.1 14.2 33.15 15.9 32.35 20.05 28.8 17.2 24.65 17.9 24.5 17.3 25.75 14.1 24.2 10.4 28.45 10.8 31.45 7.5 32.7 11.9 M30.65 1.55 L31.4 2.45 31.4 3.0 29.75 3.25 28.85 4.7 27.9 3.1 26.7 2.65 26.05 2.0 27.7 1.4 27.65 -0.5 29.35 0.45 30.85 -0.55 31.1 0.15 30.65 1.55" fill="#ffcc00" fill-rule="evenodd" stroke="none"/>
      <path d="M29.15 -0.15 L30.85 -0.55 30.45 0.95 31.4 2.4 29.55 2.65 28.55 4.1 27.7 2.6 26.05 2.0 27.5 0.8 27.45 -1.1 29.15 -0.15 M32.5 11.3 L36.1 13.45 32.95 15.3 32.05 19.25 28.6 16.6 24.45 17.3 25.55 13.45 23.9 9.75 28.25 10.2 31.35 6.9 32.5 11.3" fill="#ffff00" fill-rule="evenodd" stroke="none"/>
      <path d="M11.75 8.8 Q11.75 7.45 12.95 5.7 13.9 4.3 14.85 3.7 13.4 6.65 13.05 8.75 12.85 10.0 13.1 11.7 L13.15 12.8 Q12.25 12.0 11.9 10.4 L11.75 8.8 M12.45 14.7 Q12.45 13.9 13.1 14.05 13.7 14.15 13.7 14.7 13.7 15.35 13.25 15.35 12.8 15.35 12.6 15.0 L12.45 14.7" fill="#ffffff" fill-opacity="0.6" fill-rule="evenodd" stroke="none"/>
      <path d="M28.55 -0.3 L28.6 0.0 28.3 0.45 27.85 0.75 Q27.45 0.75 27.45 0.3 27.45 0.0 27.7 -0.2 L28.55 -0.3 M29.1 10.3 L29.05 10.0 Q29.05 9.1 29.85 9.0 30.6 8.9 30.6 9.65 L30.35 10.3 29.7 10.6 Q29.25 10.6 29.1 10.3" fill="#ffffff" fill-rule="evenodd" stroke="none"/>
      <path d="M30.5 60.3 Q30.5 63.25 28.4 65.3 26.35 67.4 23.4 67.4 20.5 67.4 18.4 65.3 16.35 63.25 16.35 60.3 16.35 57.4 18.4 55.3 20.5 53.25 23.4 53.25 26.35 53.25 28.4 55.3 30.5 57.4 30.5 60.3" fill="#9cf1ff" fill-rule="evenodd" stroke="none"/>
      <path d="M29.1 61.05 Q29.1 63.4 27.45 65.05 25.8 66.7 23.45 66.7 21.1 66.7 19.4 65.05 17.75 63.4 17.75 61.05 17.75 58.7 19.4 57.0 21.1 55.35 23.45 55.35 25.8 55.35 27.45 57.0 29.1 58.7 29.1 61.05" fill="#5ce0f5" fill-rule="evenodd" stroke="none"/>
      <path d="M27.7 62.4 Q27.7 63.9 26.65 64.9 25.6 65.95 24.15 65.95 22.65 65.95 21.6 64.9 20.6 63.9 20.6 62.4 20.6 60.95 21.6 59.9 22.65 58.85 24.15 58.85 25.6 58.85 26.65 59.9 27.7 60.95 27.7 62.4" fill="#5cf5d7" fill-rule="evenodd" stroke="none"/>
      <path d="M20.6 58.15 Q20.6 58.75 20.2 59.15 19.75 59.55 19.2 59.55 18.6 59.55 18.2 59.15 17.75 58.75 17.75 58.15 17.75 57.55 18.2 57.15 18.6 56.75 19.2 56.75 19.75 56.75 20.2 57.15 20.6 57.55 20.6 58.15" fill="#ffffff" fill-rule="evenodd" stroke="none"/>
      <path d="M22.05 56.05 L21.8 56.55 21.3 56.8 20.8 56.55 20.6 56.05 20.8 55.55 21.3 55.35 21.8 55.55 22.05 56.05" fill="#ffffff" fill-rule="evenodd" stroke="none"/>
      <path d="M27.7 63.15 Q27.7 64.3 26.85 65.15 26.05 65.95 24.85 65.95 23.7 65.95 22.85 65.15 22.05 64.3 22.05 63.15 22.05 61.95 22.85 61.15 23.7 60.3 24.85 60.3 26.05 60.3 26.85 61.15 27.7 61.95 27.7 63.15" fill="#ffcbe4" fill-rule="evenodd" stroke="none"/>
      <path d="M27.65 63.8 Q27.65 64.4 27.25 64.8 26.8 65.2 26.25 65.2 25.65 65.2 25.25 64.8 24.8 64.4 24.8 63.8 24.8 63.2 25.25 62.8 25.65 62.4 26.25 62.4 26.8 62.4 27.25 62.8 27.65 63.2 27.65 63.8" fill="#ffffff" fill-rule="evenodd" stroke="none"/>
    </g>
    <linearGradient gradientTransform="matrix(-1.0E-4, 0.0134, -0.035, -2.0E-4, 23.85, 31.25)" gradientUnits="userSpaceOnUse" id="gradient0" spreadMethod="pad" x1="-819.2" x2="819.2">
      <stop offset="0.09803921568627451" stop-color="#2a1708"/>
      <stop offset="1.0" stop-color="#000000" stop-opacity="0.0"/>
    </linearGradient>
  </defs>
</svg>
