<?xml version="1.0" encoding="UTF-8" standalone="no"?>
<svg xmlns:ffdec="https://www.free-decompiler.com/flash" xmlns:xlink="http://www.w3.org/1999/xlink" ffdec:objectType="frame" height="85.2px" width="70.6px" xmlns="http://www.w3.org/2000/svg">
  <g transform="matrix(1.0, 0.0, 0.0, 1.0, 12.05, 31.25)">
    <use ffdec:characterId="1" height="85.2" transform="matrix(1.0, 0.0, 0.0, 1.0, -12.05, -31.25)" width="70.6" xlink:href="#shape0"/>
  </g>
  <defs>
    <g id="shape0" transform="matrix(1.0, 0.0, 0.0, 1.0, 12.05, 31.25)">
      <path d="M42.15 30.7 L40.9 29.5 39.05 27.95 38.95 27.75 35.65 24.3 Q34.35 22.55 32.6 21.35 L30.95 20.3 Q27.55 18.5 23.4 18.5 19.2 18.5 15.75 20.3 12.75 21.85 10.9 24.3 9.25 26.45 4.7 30.35 L4.35 30.6 2.25 32.25 2.2 32.3 2.15 32.35 2.05 32.4 1.8 32.6 1.45 32.95 0.9 33.7 Q0.55 34.2 0.45 34.8 0.3 34.3 0.5 33.6 L0.95 32.5 1.5 31.75 1.85 31.4 2.1 31.2 2.2 31.15 2.25 31.1 2.3 31.05 4.4 29.4 4.75 29.15 Q9.3 25.25 10.95 23.1 12.8 20.65 15.8 19.1 19.25 17.3 23.45 17.3 27.6 17.3 31.0 19.1 L32.65 20.15 Q34.4 21.35 35.7 23.1 L39.0 26.55 39.1 26.75 40.95 28.3 42.2 29.5 45.35 33.1 46.05 34.3 46.15 34.8 46.1 36.0 46.0 35.5 45.3 34.3 Q44.25 32.75 42.15 30.7" fill="#663f19" fill-opacity="0.49803922" fill-rule="evenodd" stroke="none"/>
      <path d="M42.15 29.6 L40.9 28.4 39.1 26.8 39.1 26.55 38.95 26.65 35.65 23.2 Q34.35 21.45 32.6 20.25 L30.95 19.2 Q27.55 17.4 23.4 17.4 19.2 17.4 15.75 19.2 12.75 20.75 10.9 23.2 9.25 25.35 4.7 29.25 L4.35 29.5 2.25 31.15 2.2 31.2 2.15 31.25 2.05 31.3 2.0 31.35 1.8 31.5 1.45 31.85 1.35 32.0 0.9 32.6 Q0.55 33.1 0.45 33.7 0.25 34.4 0.4 34.9 L0.65 36.0 0.8 36.6 0.9 37.05 1.25 38.1 2.0 39.85 Q3.4 42.15 5.8 44.15 L5.85 44.2 12.25 45.55 Q19.2 47.35 20.6 49.0 22.1 50.35 23.15 52.05 23.65 50.8 24.95 49.25 25.6 48.45 27.6 47.6 29.75 46.6 33.5 45.55 36.65 44.65 39.65 44.1 L40.1 44.0 40.45 43.95 40.5 43.95 40.8 43.75 43.1 41.85 44.9 39.85 45.5 38.55 45.75 37.95 46.05 36.15 46.1 34.9 46.0 34.4 45.3 33.2 43.7 31.2 42.15 29.6 M8.25 -12.7 Q8.55 -7.7 8.05 -3.8 L9.55 -5.1 Q13.45 -8.3 17.3 -9.9 19.6 -10.85 21.6 -11.1 L24.95 -11.1 Q26.95 -10.85 29.25 -9.9 L31.65 -8.75 Q35.05 -6.95 38.5 -3.85 37.95 -7.7 38.25 -12.7 39.05 -24.05 44.7 -31.25 46.6 -27.0 47.6 -20.65 49.65 -7.95 45.0 2.7 L48.7 6.9 Q54.5 13.65 55.8 15.6 58.05 19.15 58.5 24.6 58.95 30.55 56.4 35.55 L55.2 37.6 54.6 38.45 53.2 40.15 52.55 40.8 52.45 40.9 52.45 40.95 48.45 44.1 47.8 44.5 Q43.05 47.45 33.6 50.55 L29.15 52.05 28.7 52.2 24.15 53.7 24.0 53.75 23.25 53.95 23.15 53.95 23.05 53.9 17.95 52.2 17.15 51.95 16.9 51.85 12.95 50.55 Q3.5 47.45 -1.25 44.5 L-1.7 44.2 -5.8 41.05 -6.25 40.55 -7.3 39.45 -7.5 39.2 -8.05 38.45 -8.45 37.9 -8.6 37.65 -9.85 35.55 Q-12.4 30.55 -11.95 24.6 -11.5 19.15 -9.25 15.6 -7.6 13.1 1.55 2.75 -3.15 -7.95 -1.1 -20.65 -0.1 -27.0 1.8 -31.25 7.45 -24.05 8.25 -12.7" fill="url(#gradient0)" fill-rule="evenodd" stroke="none"/>
      <path d="M7.75 -16.75 L8.2 -12.75 Q8.5 -7.75 8.0 -3.85 L7.05 -3.05 5.45 -1.55 4.5 -0.55 -0.15 6.65 Q-5.0 14.4 -5.3 17.75 -5.6 21.25 -2.45 26.0 -0.1 29.5 2.1 31.2 L2.0 31.25 1.95 31.3 1.75 31.45 1.4 31.8 1.3 31.95 Q-1.3 34.4 -3.9 35.65 -6.0 36.65 -5.8 38.2 -5.55 39.7 -3.5 40.75 2.2 43.7 5.75 44.1 L5.8 44.15 Q7.7 45.15 10.05 46.5 14.5 49.15 16.85 51.8 L12.9 50.5 Q3.45 47.4 -1.3 44.45 L-1.75 44.15 Q-4.05 42.7 -5.85 41.0 L-6.3 40.5 -7.35 39.4 -7.55 39.15 -8.1 38.4 -8.5 37.85 -8.65 37.6 -9.9 35.5 Q-12.45 30.5 -12.0 24.55 -11.55 19.1 -9.3 15.55 -7.65 13.05 1.5 2.7 -1.1 -3.25 -1.65 -9.8 L-0.5 -6.75 1.0 -4.1 Q1.4 -0.95 2.3 1.8 L2.55 1.5 4.0 -0.05 4.45 -0.5 4.75 -4.45 5.85 -6.9 Q7.6 -11.65 7.75 -16.75 M38.45 -3.9 Q37.9 -7.75 38.2 -12.75 L38.65 -16.75 Q38.8 -11.65 40.55 -6.9 L41.7 -4.4 42.0 -0.55 42.3 -0.25 43.75 1.3 44.15 1.75 Q45.0 -0.95 45.45 -4.15 L46.9 -6.75 48.05 -9.8 Q47.55 -3.25 44.95 2.65 L48.65 6.85 Q54.45 13.6 55.75 15.55 58.0 19.1 58.45 24.55 58.9 30.5 56.35 35.5 L55.15 37.55 54.55 38.4 53.15 40.1 52.5 40.75 52.4 40.85 52.4 40.9 Q50.65 42.6 48.4 44.05 L47.75 44.45 Q43.0 47.4 33.55 50.5 L29.1 52.0 Q31.45 49.05 36.35 46.15 38.55 44.85 40.4 43.9 43.8 43.35 49.0 40.65 51.05 39.6 51.3 38.1 51.5 36.55 49.4 35.55 46.5 34.15 43.65 31.15 L42.1 29.55 40.85 28.35 39.05 26.75 39.05 26.5 Q43.65 23.65 45.7 17.75 46.8 14.75 46.9 12.3 L46.75 8.85 46.2 6.85 45.5 5.4 45.3 5.1 41.8 -0.8 41.4 -1.2 40.8 -1.75 39.25 -3.2 38.45 -3.9" fill="#ffd9df" fill-opacity="0.49803922" fill-rule="evenodd" stroke="none"/>
      <path d="M46.15 34.85 L46.05 34.35 45.35 33.15 43.75 31.15 Q46.6 34.15 49.5 35.55 51.6 36.55 51.4 38.1 51.15 39.6 49.1 40.65 43.95 43.3 40.6 43.9 L40.85 43.7 Q43.85 41.55 44.95 39.8 L45.55 38.5 45.8 37.9 46.1 36.1 46.15 34.85 M0.75 35.95 L0.9 36.55 1.0 37.0 1.35 38.05 2.1 39.8 Q3.5 42.1 5.9 44.1 2.35 43.7 -3.35 40.75 -5.4 39.7 -5.65 38.2 -5.85 36.65 -3.75 35.65 -1.15 34.4 1.45 31.95 L1.0 32.55 Q0.65 33.05 0.55 33.65 0.35 34.35 0.5 34.85 L0.75 35.95 M19.0 52.95 L17.2 51.95 18.0 52.2 23.1 53.9 Q21.25 53.85 19.0 52.95 M24.95 49.3 Q25.6 48.5 27.6 47.65 L26.1 49.15 Q24.5 51.2 24.15 53.7 L24.2 53.7 28.75 52.2 29.2 52.05 27.4 53.05 Q25.15 53.95 23.3 53.95 L24.0 53.8 23.15 52.1 Q23.65 50.85 24.95 49.3" fill="#bf5f7f" fill-opacity="0.49803922" fill-rule="evenodd" stroke="none"/>
      <path d="M4.55 -0.5 L4.1 -0.05 2.65 1.5 2.4 1.8 Q0.35 -4.65 0.55 -13.9 0.6 -18.55 1.1 -21.9 4.4 -17.2 4.8 -8.45 5.0 -4.05 4.55 -0.5 M46.05 -13.9 Q46.25 -4.65 44.25 1.75 L43.85 1.3 42.4 -0.25 42.1 -0.55 Q41.6 -4.05 41.8 -8.45 42.2 -17.2 45.5 -21.9 46.0 -18.55 46.05 -13.9" fill="#ffe3d9" fill-rule="evenodd" stroke="none"/>
      <path d="M41.8 -4.4 Q43.0 -2.25 44.15 -2.85 L45.55 -4.15 Q45.1 -0.95 44.25 1.75 L43.85 1.3 42.4 -0.25 42.1 -0.55 41.8 -4.4 M4.55 -0.5 L4.1 -0.05 2.65 1.5 2.4 1.8 Q1.5 -0.95 1.1 -4.1 1.75 -3.2 2.45 -2.85 3.6 -2.25 4.85 -4.45 L4.55 -0.5" fill="#cbb2b2" fill-opacity="0.49803922" fill-rule="evenodd" stroke="none"/>
    </g>
    <radialGradient cx="0" cy="0" gradientTransform="matrix(0.0351, 0.0, 0.0, 0.0351, 22.65, 8.95)" gradientUnits="userSpaceOnUse" id="gradient0" r="819.2" spreadMethod="pad">
      <stop offset="0.0" stop-color="#ffffff"/>
      <stop offset="0.4745098039215686" stop-color="#fff9f3"/>
      <stop offset="1.0" stop-color="#fff6f3"/>
    </radialGradient>
  </defs>
</svg>
