<svg xmlns="http://www.w3.org/2000/svg" xmlns:ffdec="https://www.free-decompiler.com/flash" xmlns:xlink="http://www.w3.org/1999/xlink" ffdec:objectType="frame" width="27.4" height="22.1"><use ffdec:characterId="1" xlink:href="#a" width="27.4" height="22.1"/><defs><g id="a" fill-rule="evenodd"><path fill-opacity=".4" d="m21.8 9.65 1.4.35.35.1 2.3.85.2.1.25.1.15-.05.05-.05h.25l-2 2.55q-2.2 2.55-1.2 2.3l.95-.15-.7 1.3-.65-.1q-.7-.1-.9.8l-.5 1.95-.5.85-.65 1.55-.1-.05-1.15-1.15-1.7-2.2q-2-2.5-2.45-4.55l-.1-.2v-.05l-.1-.4v-.1h-.35l-2.15-.6-1.4-.7-.2-.25h-.15l-.15.05-.1.05q-3.2 1.6-6.7 1.55l-3.3-.25.6-.85.4-1.2q0-1.25-.65-1.1.25-.8 1.05-1.8L3 6.85l.45-1.5q.1-1.2.95-2.45 1-1.5.45-1.7T4.7.85q.35-.15 3.15 2.1l1.1.85 1.55 1.5.6.75.8 1.5.6.85h.35q.9 0 2.4.6 1.15.45 1.25 1.05l.2-.25-.05.2h.05l.55-.15 2.3-.2z"/><path fill="#e07a00" d="M4.5.05q.15 5.5-.2 6.35Q4 7.2 3 7.8q-1.1.55-1.75 2.45l-.85 2.3-.4-.05v-.8l2.2-4.5q1.7-3.65 1.85-5.35.1-1.8.25-1.8zM22.3 8.8l1.4.35.35.1q-3.4-.2-6.5.8l-.25.75 2.35.1q1.55 0 1.55.8 0 .75-.35 1.25-.4.6-.9.6-1.1 0-2.35-.9l-.65-.55q-.15 4.65 3.85 6.1l.9.3.1.95q-.6 1.05-.6 2.2l-.1-.1-.6-.6-2.35-3.1q-2-2.5-2.45-4.55l-.1-.2v-.05l-.1-.4v-.1h-.35l-2.15-.6-1.4-.7v-.8l.65-1.3q.35.95 1.45 1.7 1.15.7 2.25.25l.25-.4q.3 1-.5 1.6h.1l.2-.05.1-.1.2-.1.25-.55.05-.3-.05.45q.2-.95.4-.85l.2-1.65h.05l.55-.15 2.3-.2zm4.85 1.4q.85-.3-.95 2.65l-1.1 1.9-.1.15-.7 1.3-.45 1.15q-.55 1.25-.6 1.65l-.8 2.1-.4 1-.15-.05h-.05l-.15-.15h-.1q.85-1.9.7-3.5-.3-3 1.2-4.25l1.9-1.65zm-15.9-3.65q-1.3-2.6-2.9-4.45l1.1.85L11 4.45l.6.75.8 1.5.6.85h.35l-.1.05h-.2l-.55-.05q-.45.1-.6.9h-.05l-.25.85v.1l-.15.25q-.45 1.2 0 1.2h-.35l.2.05.1.1h-.15l-.15.05-.1.05q-3.2 1.6-9.1 1.6l-1.15-.05.45-.8 1-2.25.65.65.55.15q4.8 1.05 7.7-1.6v-.05L8.7 8.4q-2.65-1.2-2-2.05 0-.95 1.6-.95 2.7 1.2 2.9 2.4l.1.25V7.8l.3-.25zm2 1.05-.05.05-.15.1z"/><path fill="#fcbe10" d="M20.85 12.95q.35-.5.35-1.25 0-.8-1.55-.8l-2.35-.1.25-.75q3.1-1 6.5-.8l2.3.85.2.1.25.1.15-.05.05-.05h.15l-1.75 2.3-1.9 1.65Q22 15.4 22.3 18.4q.15 1.6-.7 3.5l-.4-.25q0-1.15.6-2.2l-.1-.95-.9-.3q-4-1.45-3.85-6.1l.65.55q1.25.9 2.35.9.5 0 .9-.6m-9.6-6.4.35 1-.3.25v.25l-.1-.25Q11 6.6 8.3 5.4q-1.6 0-1.6.95-.65.85 2 2.05l2.4.35v.05q-2.9 2.65-7.7 1.6l-.55-.15-.65-.65-1 2.25-.45.8-.35-.1.85-2.3Q1.9 8.35 3 7.8q1-.6 1.3-1.4.35-.85.2-6.35 1.05-.2 3.85 2.05 1.6 1.85 2.9 4.45m.6 1.9h.05q.15-.8.6-.9l.55.05h.2l-.2.15.15-.1.05-.05.1-.05 2.4.6Q16.9 8.6 17 9.2l.2-.25-.05.2-.2 1.65q-.2-.1-.4.85l.05-.45-.05.3-.25.55-.2.1-.1.1-.2.05h-.1q.8-.6.5-1.6l-.25.4q-1.1.45-2.25-.25-1.1-.75-1.45-1.7l-.65 1.3v.8l-.2-.25-.1-.1-.2-.05h.35q-.45 0 0-1.2l.15-.25v-.1z"/></g></defs></svg>