<svg xmlns="http://www.w3.org/2000/svg" xmlns:ffdec="https://www.free-decompiler.com/flash" xmlns:xlink="http://www.w3.org/1999/xlink" ffdec:objectType="frame" width="57.3" height="49.3"><use ffdec:characterId="1" xlink:href="#a" width="57.3" height="49.3"/><defs><g id="a" fill-rule="evenodd"><path fill="#f0c9bb" d="M27.25.2q.4.05.65.3l.6.75.05.05q0-1.1.95-1.1.85 0 1.05 2.1v.05l.2-.35q.7-1.1.7.35l-.05.6.7-.4.4-.1q.9 0 1.2.8l.5-.95q.55-.55.55.75v.45l.1-.2q1.1-1.65 2.05-1.65.6.2.6.7l-.4 1.55-.3.95.25-.55q.4-.7.85-1 .35-.35.75-.35h.25q.4 0 .4.95l-.5 1.75-.35.75h.35l.45-.55q.65-.7 1.15-.7l.05.3-.45.8-.4.35.4.9q1.35-2.1 1.35-.55l-.5.85.7-.4q1.3-.65 1.6.9l.05 1.4.15-.05q.7-.1.7.6 0 .25-.4.6.5.05.5.5L43 12q1.6.3 1.6 1.3 0 .5-.9 1.1l-.15.1 1.05-.05.35.45-.35.45h-.9l.3.65-.1.6-.4.15q2.85 2.85 6.2 7.7 2.65 3.8 4.05 6.75L54.9 34v.1l.1.15.4.95.05.1.8.7q.65.55.95 1.55l.05 1.5v7.35q-.1 2.25-.8 2.45l-.3.4-.2.05h-.2q-.75 0-1.6-1.35l-1.3-2.4-.95-1.35-.95-.8-1.25-1.1q-1.4-.9-4.35-2.4-7.6-3.85-18.3-3.95Q16.3 35.8 9.1 39.6 6.75 40.8 5 42.5l-1.45 1.45.05.05-.1.05-.75.8q-.45.3-.95.75h-.7l-.8-.65-.2-.35L0 44l.9-7 .55-3.8q.35-1.6 1.05-2.55L4 30.2l.1-.1.45-.7.3-.5.5-1.1-.2.75.35-.65 1-1.4 2.9-3.7 2.2-2.65 1.65-1.6.45-.55.1.05 3.85-3.15-.15-.1-.1-.05-.2-.15q-.5-.15-.6-.65l-.05-.1-.15-.6q-.15-.5.3-.85.35-.3 1.05-.45-.4-.1-.7-.3l-.4-.4q0-.8 1.45-.1-1.1-.95-1.1-1.5 0-1.15 1.95-.6l-.6-.65q0-.75 1.2-.2-1.1-1.35-.95-2 .25-1.05 1-1.25.75-.25 1.8.65l.55.5q-.45-.65-.3-.95l.9.35-.05-.25q-.15-1.3 1.1-1.4l.55.05.4-.1.4.15-.15-.3-.45-1.25q0-1.4 1.35.45l.05.05-.05-.8.2-.6-.05-.15.4-.9q.5-.6.95-.4zM23.7 7.65l-.4-.45h-.1zm14.95-3.6.05-.25-.05.1zM42.7 14.8v-.05l-.3-.05zM30.2 4.95l-.05-.05v.05zM1.95 47.15H1.9l.05-.05zM55.4 35.2q-.25-.35-.2-.1l.15.05zM26.85 18.5h-.05l.15.25zm7.1-13.55-.1-.15-.05.15-.05.7.05-.45z"/><path fill="#700400" fill-opacity=".298" d="M30.15 2.75q0 1.3-.45 1.65-.35-.3-.35-1.35 0-1.1.4-1.45.4-.4.4 1.15M25.9 5.6q.45.85.8 1.2l.25-.2-.3-.85-.05-.1-.1-.45q-.3-.7-.3-1.3 0-1.75.9-1.65T28 4.3l-.1 2.05.85 1.2-.45-1.8q0-.6.7-1.05.7-.5 1 .75l.25 1.05.05.15q-.45.4-.45 1.65l.1.2.2.05.3-.1.15-1.3.1.15v-.35q0-.95.55-.95.4 0 .65.35L31.85 6l.05-.85q0-.95.5-1 .45-.1.45.65l-.25 1.15-.05.15.75-.3q.75 0 .75.6l-.1.3.05.15-.25.5q-.1-.55-.7 0-.7.6-.7 1.3 0 .5.45.5.3 0 .95-1.55.3.1.25 1.3l.45-.5.05-.05.2-.1-.1-.75q0-1.45.3-2.15.3-.85 1.45-1.85l.3.8q0 .8-.7 2.45L35.3 8l.3-.1.9-1.25.2-.2-.05-.1q0-.65.7-1.65t.7.1l-.55 1.15.2-.2q.85-.6.85.2l-.3.5-1 .5-.3.45-.35.55.2.15.3-.35.25-.2h.05l.3-.2.8-.25.4.15.05.25v.05l-.05.25h.05q.45 0 .45.5 0 .4-.8 1.3l-.55.6-.1.15q.05.55-.3 1.15l-.05.1.9-.5.8-1.35q1.1-1.6 2-1.6l.35.35-.5.9-.85.85-.4.45.85-.45q1.3-.55 1.5 0l-.5.45-.2.2.85-.05.25.3q0 .8-2.3.8l-.9.6q.3.3.5.3l.85-.2h.05l1.55-.4.05.3-.25.25q.65.2 1.1 1.1 0 .65-.95.65l-.25-.05h-.25q.95.45 1.25 1.6v.25l-2.8-2.2q-4.1-2.55-6.2-2.95l-4.25-.45q-3.55 0-6.85 1.15l-1.85.8L18 14.65l-.4-.15h-.05l-.35-.4-.05-.25.15-.2.2.25.6.25.05-.2q-.15-.05-.4-.25l-.3-.35.85-.25-.1-.05q-.35-.1-.35-.35l.3-.25 1.05.3.05.05-.05-.25h.15l.2.1.05-.25 1-.2-.6.05q-.35 0-.8-.4l-.15-.15-.25-.4q0-.45.6-.35l.45.15-.05-.1.3-.45q-.65-.3-.65-.6l.25-.35 1.05.35.75.75.3.3.1-.95.45.05-.55-.55-.05-.1q-1.1-.5-1.1-1.2 0-1.1 1.5.7l.15.15v-.75h.4l-.1-.1q-.3-.4-.3-.9 0-.75.65-.1.6.65.6 1.2v.1q.6.2.95.8v-.1q-.5-.7.1-1.5l.1-.1h.3l-1.55-1.9v-.7l1.15.45v-.05l.1-.65q.75.25 1.2.8M21.7 8q-.6 0-.95-.85-.3-.6-.3-1.05 0-.5.35-.65.4-.15.85.65l.3 1.5-.05.35zm3.7 1.45-.5-.05-.05.25.05.2.3.2.2-.1.05-.1zm.45-2.4q0 .35.3.85l.6.65.2-.05v-.45l-.45-.75q-.3-.4-.65-.25m-6.75 3.4q-.4 0-.65-.35l-.2-.45q0-.55.5-.35.5.25.6 1.05 0 .1-.25.1m.15 4.75.15-.1q1.5-.95 2.75-1.3l.1.25-2.35 1.55-1.45 1.2v.35l.5-.45.75-.35q.4 0 .4.45l-.05.55.05.05 1.2-1.1q.8-.5.65.55l.35-.35.55-.25.55.2.05.05h.05l.25.15-.05.2-.25.3-.3.2q-.3 0-.3-.5l-.5.4-.55.4-.3-.05-.05-.6v-.1l-.85.8-.65.5q-.45 0-.5-.45l.1-.65V17l-.6.5-.55.5q-.3 0-.35-.2l-.1-.45v-.15l-3.25 3.4q-.25-.1-.25-.3 0-.3 1.35-1.9l1.55-1.8.85-.7q.3-.25.75-.5zm4.1-4.15-.25-.5-.55-.15.05.4q.15.35.45.35zm.65-.3q.25 0 .25-.15-.05-.8-.55-1.25-.55-.5-.55.45l.25.45q.3.5.6.5m-1.05 2.75-.1-.2q0-.4 1.6-.8l2.35-.6.05.25q-3.2 1.4-3.7 1.4zm2.5.4.05.05q.4-.8.65-.8l.2.05.1 1.05.85-.8 1.1-1.5.25.3-.6 1.5.4.5.4-.4.45-.3.75.5v.05l.1.1.2.25.15.2v.05l.05.15v.1l-.3.1-.5-.4-.4-.4h-.05l-.4.35-.45.35-.55-.75-.1.3-.2.4-1.05 3.15.2.25v.05l.05.15.15.25.3-.4h.05l.4-.35.2.05.15.15.05.2.1.4.05.05.75-.75.4.45.05.45.1.1.35-.4q.25-.3.45-.3.4 0 .6.8l.05.05.55-.45q.45 0 .5.75l.5-.35q.3 0 .35.2l.2.35.05.05.3-.4.3-.3q.4 0 .6.7l.05.05.2-.25.3-.2.4.4.25.5.6-.5.35.35.15.45-.05.1-.2.1-.35-.25q-.05.55-.5.55-.4 0-.55-.35l-.15-.6-.15.3-.35.25q-.4 0-.4-.3l-.15-.5-.05-.05-.25.5-.45.35q-.35 0-.45-.3v-.45l-.15.3q-.05.15-.3.15-.6 0-.6-.95-.2.65-.6.65-.5 0-.5-.95l-.1-.1-.35.5-.5.35q-.3 0-.45-.45-.15-.35-.15-.6l-.25.4-.5.35q-.25 0-.4-.35l-.1-.4-.65.75q-.3 0-.55-.6l-.1-.2-.1.5-.3 1.75v.05l.45.65.35-.4.5-.35q.45 0 .45.7l.25-.35q.1-.15.4-.15.35 0 .55.45l.25.55.3-.5.35-.3q.55 0 .45.65l.1.15.3-.5.3-.3.25.05.05.25-.35.7-.5.6q-.4 0-.5-.35l-.1-.4-.2.45-.45.3q-.55 0-.75-1.05l-.4.35-.35.2q-.25 0-.4-.3l-.1-.45q-.4.85-.8.85l-.5-.8-.2 1.05-.15.7.1-.05.5.6.35-.4q.05-.2.35-.2.5 0 .7.8l1-.8.65.9.7-.6q.5 0 .6.7l.4-.4.3-.2.2.05.1.25-.45.6-.55.4q-.6 0-.6-.65-.35.65-.75.65-.3 0-.45-.4l-.2-.55-.4.4-.5.35-.5-.4-.2-.4-.3.4-.45.3q-.2 0-.5-.5l-.2-.4-.45 1.65h1.15l7.2.9q3.75.65 7.45 2.25l1.25.55-.45-2.8-.15.05q-.25 0-.45-.45l-.2-.6h-.05l-.05.4q-.1.35-.4.35-.6 0-.6-1.35l-.1.5q-.1.35-.4.35-.6 0-.6-1.5l-.05-.05-.15.85q0 .1-.25.1-.4 0-.55-.5l-.15-.7-.2.4q-.1.3-.35.3-.35 0-.55-1.1-.15.25-.15.75l-.2.05q-.9-.5-.8-1.25l-.25.45-.2.4q-.4-.1-.6-.6l-.3-.75-.6 1.15q-.25-.05-.75-.95t-.5-1.15q0-1.2 1.1 1l.05.05.2-.45.45-.4q.35 0 .8 1h.1l.05-.4.3-.2q.45 0 .75.95v-.5l.35-.25.6.45.15.6h.05l.05-.4q.05-.35.35-.35.4 0 .65 1.25l.2-.65.3-.1q.55 0 .6 1.1l.05.1.1-.45.4-.35q.55 0 .6 1.25l.05.05.05-.35.4-.15q.4 0 .55.6l.15.5-1.05-3.85-1.9-3.85-.35-.4-.15.7-.2.05q-.8-.45-.85-1.05h-.05v.45l-.3.2-.5-.45-.4-.7q-.35.8-.65.85h-.05q-.6 0-.6-.85-.3.75-.65.75-.3 0-.6-.6l-.25-.9.5.1.3.6.35-.4.35-.3.3.1.3.6.2-.4.4-.2q.4 0 .6.35l.2.45.45-.4q.5 0 .7.8l.3-.3L36.1 15l-.2-.15-.3-.3h-.05l-.6-.55-.7-.55q.9-.15 2.15 1.15v.05l.15.1.4.5 1.15 1.4 1.6 2.4v-.2q.6.1 1.35.85v-.5l.25-.1.7.7.05.05-.1-.45.3-.2q.3 0 .9.6l-.2-.85.25-.15.4.6.15.65v.9q0 .15-.25.15l-.45-.3-.25-.5h-.05l-.1.75-.2.05-.35-.3-.25-.35.05.4q0 .35-.35.35l-1.75-1.9.7 1.5q1 2.9 1.65 6.85l.1-.05q.45.1.5.8l.1.05.4-.85q.35-.3.85.45 0-.45.3-.45t.45.2l.25.55.05-.3.25-.05.4.15.35.55.35-.35.15.2-.4-1.75q.95.45 1.2 2l.3 2.55 4.2 1.25-.4-1.2-.2.05-.45-.4-.3-.4-.45.5-.85-1.2-.25.9-.25.1-.55-.65-.3-.65.05-.15.2-.05.3.1.2.4q.65-1.15 1.1-.6l.3.85.05.05.05-.3q.1-.3.3-.3.35 0 .8 1.1l.05-.05q-.75-2.75-1.1-3.35L48.3 24.5l-.15-.2v1.05q0 .15-.25.15l-1-1.1q-.15.2-.15.65l-.25.15-.85-1.05-.1.9-.25.15-.5-.5-.5-.6q-.05.9-.4.9l-.7-.8-.45-.8.05-.25q.35-.1.6.3l.35.6q0-.7.45-.95l.45.4q.2.45.45.55l.05-.65.35-.1q.45 0 .55.3l.25.55h.05v-.45q.05-.2.3-.2l.9.7.1-.65-1.4-2.1q1.55.45 3.95 5.05 2.25 4.25 2.35 6.2l.15.05v.05l.4.05q.55 0 .65-.4V31.2L54.9 34v.1l.1.15.4.95.05.1.1.2q-3.2-2.25-4.9-2.55l-2.05-.6-5.4-1.55q-4.5-2-7.05-2.5l-6.2-1.2-6.6-.55-6.65 1-5.65 1.25-2.65.55-1.75.3L4 30.2l.1-.1.45-.7.3-.5.5-1.1-.2.75.35-.65q.45 1.45 5.05.05v-.05l.2-.6-.65.65q-.4 0-.35-.5l-.05-.15-.3.4-.5.35-.35-.1v-.55l-.55.4-.3-.05-.05-.4.4-.35.6-.3.35.1.05.4.25-.4q.1-.3.35-.3l.55.5.75-.65h.25l.4-.75-.05-.35q-.95.95-1.25.95-.45 0-.45-1.25L8.5 26.3q-.25-.2-.25-.85 0-.7.25-.95l.35.5v.1q.45-.9 1.1-.7.7.2.5 1l1.25-1 .4.25.7-1.15.35.55.15.7.5-.8.8-.75.45 1.1.55-.6.55-.6q.5 0 .5 1.2l1-1.2.4.4.05.55.4-.55.5-.5q.35 0 .35.45l.1.1.4-.55.55-.5.25.4.15.4q.35-1 .9-1l.4.4.1.4.05.05.25-.55q.2-.4.55-.4.6 0 .6 1.25l.45-.65.7-.8.1.05.25-1.4-.7.75q-.45 0-.35-.4l.15-.7-.9 1q-.35 0-.35-.35l.05-.6v-.1l-.6.6-.55.55q-.3-.2-.3-.45l.05-.45v-.05l-.95.95q-.3-.2-.3-.45l.05-.45v-.05l-.45.6-.65.45-.2-.05-.1-1-1.2 1.15-.2-.05-.1-.45v-.15L16.5 22.1q-.3-.1-.3-.45l.05-.5v-.1l-.55.7-.75.55q-.4 0-.4-.35v-.45l-.7.75-.7.55q-.25 0-.4-.5l-.1-.55.1-.3h-.05l.15-.05q.4 0 .4.7l1.35-1.4q.5 0 .45.8l.7-.7.75-.6.4.35-.05.45 1-1q.25 0 .3.2v.3l.4-.45.65-.35q.4 0 .4.35l-.05.5.05.05 1-.9q.4 0 .4.35l-.05.45.3-.45q.25-.35.55-.35.35 0 .35.5v.1q.2-.55 1-.7t.4.7q.4-.8.85-.8l.35.1v.45l.05.05.5-.4.05.05.25-1.15.05-.1.15-.6q-.3 0-.35-.2v-.55l-.05-.05-.45.5-.3.3h-.15q-.25-.05-.25-.5v-.05q0-.7.35-.9l.25.4.45-.3.4-.3.4.6.65-2.1v-.05l-.05.05-.45.4-.3-.1V15l-.05-.15.05-.6v-.05l-.75 1-.15.05-.2-.05v-1.05l-.35.35-.7.35-.25-.3.3-.35.65-.55.35-.5q.25-.35.65-.15zm-11 10.2q-.95 1.6-1.3 1.6t-.4-.45l-.05-.6-.55.95v.2l-.15.1-.55 1v.1l-.05.1-.1.1-.3.6q4.6-1.4 8.35-1.65l5.1-.5.3-2.75-1.05 1.4q-.65 0-.65-1.3-.5.5-.5 1.2l-.3.1q-.6 0-.6-1.3l-.45.8-.5.7q-.3-.15-.25-.45l-.2-.6-.35.65-.5.6q-.45-.45-.45-.9-.55 1.2-.9 1.2-.25 0-.4-.45l-.1-.6-.95 1.25q-.35-.15-.45-.55l-.1-.7v-.05L15 25.3q-.2-.15-.35-.6zM25 27.25q.05-.55.4-.05l.45 1.35v.6l.2 4.75v.1l.3.85v.2l5.3.2V29.8l-.05-.6v-.05l-.05-.55.65-.6q.35-.3.35.8l.3 5.6-.05 1 2.3.3 3.2.65.25-1.25.1-1.85-.3-1.9-.3-1.4-.05-.45.8.1q.55.4.75 3.3v3.8l3.7 1.15-.05.05.8.4q-.3-.7-.4-2.2l-.05-3.65v-.75q.85-.15 1.25 2.2l.25 3.05q0 1.4-.2 1.8l4.65 2.4q-.4-1.9-.35-2.7l-.35-2.3q-.45-1.5-.35-2.3t.6-.2.85 2.9l.55 4.1v1.15q1.8 1.25 3.2 3l.1-.75.2-1.95-.45-4.35q-.45-2.6-.15-2.85t.6.45l.8 2.6q.3 1.05.3 4 0 2.75-.35 4.2l.95 1.75.3 1.4h-.2q-.75 0-1.6-1.35l-1.3-2.4-.95-1.35-.95-.8-1.25-1.1q-1.4-.9-4.35-2.4-7.6-3.85-18.3-3.95Q16.3 35.8 9.1 39.6 6.75 40.8 5 42.5l-1.45 1.45.05.05-.1.05-.75.8q-.45.3-.95.75h-.7l-.2-.15-.2-.2q-.2-.15 1.35-1.6l.95-.8-.05-1q0-3 1.3-7.45 1.3-4.5 1.55-3 .25 1.45-.55 3.75-.85 2.3-1.1 4.45L4 42.1l4-2.75.6-.3-.05-.25q0-3.4.9-7.05t.9-1.25l-.3 4.7-.15 3.1q1.8-.9 3.85-1.5v-.55l.1-.75v-5.4q.05-.9.55-1.1.45-.2.45 2.25l-.25 5.3 2.65-.6 2.3-.4-.15-.6-.1-2.05-.15-3.4q0-1.6.35-1.6.8-.2.9.4l.15 1.1v2.7l.1 2.6-.05.7 4.45-.3h.15l-.35-2.15-.1-2.85.1-2.55zM39.6 11.3q-.55.25-.55.55l.25.3.85-.3-.2-.25.5-.3-.05-.2zm-1.95-2.25q0-.75-.85-.1t-.85 1.1l.05.25.3.05q.4 0 .9-.55zm1.2 5.85.2.05.05.05h.05l.05.05h.05l.05.05h.05l.05.05h.05l.2.1.65.45.5.4.3.25 1.65 2q-.15.15-.25.15l-3.65-3.35zm4-.85-.1-.25-.4.05-.2.25.25.25.4-.1zm-1.75-1q-.65.05-.65.4l.05.1q.15.2.6.2.65 0 .65-.3 0-.45-.65-.4M33.85 4.8l-.05.15-.45.35-.2-.05-.1-.45q0-.55.5-.95t.5.3zm-2.3.25q-.15.15-.3.15-.25 0-.4-.55l-.1-.55q0-.95.8-.5zm-4.5 4.4-.65-.15-.05.2.2.35q.2.3.4.3l.25-.05.05-.2zm1.25-1.7-.55-.25.3.85.35.5q.25 0 .25-.1V8.2zm-.4-3.2q-.55-.2-.55.65 0 .45.25.7l.25-.15.1-.95zm7 3.8q-.65.3-.65 1.1v.35q.05.35.35.35l.25-.15.2-.6.1-.55zm-2.95 1.1q0-.5-.45-.65t-.45.35l.1.35q.1.45.3.45.1 0 .3-.15zm-2 2.55 1.4.25 1.1.65-.05.15v.05l-.15.05-1.05-.25-1.25-.65zm-1.8-2.35.1.25q.15.35.45.35l.25-.1-.4-.7q-.4-.3-.4.2M33.4 24.7l.35.35-.15.35q-.2.3-.5.3-.45 0-.6-.35l-.25-.7.55-.05.35.4zm1.95 1.2-.45.3-.6-.4-.05-.7.45.05.25.3.05.05.05-.3.3-.1.25.05.05.25zm11.3 3.55-.35.1-.5-.2-.45-.2q-.3 0-.5-.25l-.3-.4-.15.6-.15.05-.45-.4-.2-.45q-.3 1.05-.65 1.05l-.65-.7.05.35v.5l4.9 1.7.15.05-.65-2.4zm8.75 5.75q-.25-.35-.2-.1l.15.05z"/></g></defs></svg>