<?xml version="1.0" encoding="UTF-8" standalone="no"?>
<svg xmlns:ffdec="https://www.free-decompiler.com/flash" xmlns:xlink="http://www.w3.org/1999/xlink" ffdec:objectType="frame" height="13.0px" width="14.05px" xmlns="http://www.w3.org/2000/svg">
  <g transform="matrix(1.0, 0.0, 0.0, 1.0, -0.9, 0.95)">
    <use ffdec:characterId="15" height="9.4" transform="matrix(1.0, 0.0, 0.0, 1.0, 0.9, 2.65)" width="14.05" xlink:href="#shape0"/>
    <use ffdec:characterId="13" height="9.15" id="Color" transform="matrix(1.0, 0.0, 0.0, 0.7295, 4.35, 4.75)" width="9.0" xlink:href="#sprite0"/>
    <use ffdec:characterId="16" height="6.7" transform="matrix(1.0, 0.0, 0.0, 1.0, 2.05, 4.65)" width="12.0" xlink:href="#shape2"/>
  </g>
  <defs>
    <g id="shape0" transform="matrix(1.0, 0.0, 0.0, 1.0, -0.9, -2.65)">
      <path d="M13.0 5.95 L11.15 5.45 5.05 4.75 3.7 4.85 Q3.1 4.85 2.85 5.1 1.75 5.9 2.25 7.9 L2.45 8.6 2.7 9.2 1.6 7.1 Q1.1 5.4 1.1 4.65 L0.9 3.95 0.95 3.95 6.0 3.7 Q10.1 4.05 13.85 5.3 L14.95 6.9 14.05 6.5 13.0 5.95 M11.35 11.7 L10.3 12.0 7.35 11.9 5.8 11.5 9.0 11.55 11.9 11.4 11.35 11.7" fill="#3a2d2b" fill-rule="evenodd" stroke="none"/>
      <path d="M13.0 5.95 L14.05 6.5 Q14.1 9.1 12.7 10.8 L12.7 10.85 12.75 10.7 12.5 10.85 11.3 11.1 11.25 11.1 Q12.4 10.6 12.95 9.15 L13.35 7.45 13.0 5.95 M2.45 8.6 L2.25 7.9 Q1.75 5.9 2.85 5.1 3.1 4.85 3.7 4.85 L5.05 4.75 Q4.15 5.9 4.4 8.35 4.55 9.6 7.0 11.2 L5.85 10.9 Q3.45 10.0 2.45 8.6" fill="#ffffff" fill-rule="evenodd" stroke="none"/>
      <path d="M12.7 4.35 L10.25 3.35 Q8.55 2.65 7.2 2.7" fill="none" stroke="#3a2d2b" stroke-linecap="round" stroke-linejoin="round" stroke-width="0.15000000000000002"/>
    </g>
    <g id="sprite0" transform="matrix(1.0, 0.0, 0.0, 1.0, 0.0, 0.0)">
      <use ffdec:characterId="12" height="9.15" transform="matrix(1.0, 0.0, 0.0, 1.0, 0.0, 0.0)" width="9.0" xlink:href="#shape1"/>
    </g>
    <g id="shape1" transform="matrix(1.0, 0.0, 0.0, 1.0, 0.0, 0.0)">
      <path d="M3.55 9.05 L2.65 8.9 Q0.2 6.7 0.05 4.95 -0.2 1.55 0.7 0.0 2.65 -0.05 6.8 0.95 L8.65 1.65 9.0 3.75 8.6 6.05 Q8.05 8.1 6.9 8.8 L5.0 9.15 3.55 9.05" fill="#793c67" fill-rule="evenodd" stroke="none"/>
    </g>
    <g id="shape2" transform="matrix(1.0, 0.0, 0.0, 1.0, -2.05, -4.65)">
      <path d="M13.3 7.45 L12.9 9.15 Q12.35 10.6 11.2 11.1 L9.3 11.35 7.85 11.3 6.95 11.2 Q4.5 9.6 4.35 8.35 4.1 5.9 5.0 4.75 L11.4 5.45 12.95 5.85 Q13.3 6.6 13.3 7.45" fill="url(#gradient0)" fill-rule="evenodd" stroke="none"/>
      <path d="M10.35 9.15 Q10.35 9.7 9.3 10.05 8.0 10.0 7.65 9.4 L7.6 8.75 Q8.5 9.75 9.5 9.55 10.05 9.45 10.35 9.15" fill="#ffffff" fill-opacity="0.49803922" fill-rule="evenodd" stroke="none"/>
      <path d="M10.2 9.15 Q9.75 9.6 9.1 9.6 8.45 9.6 8.0 9.15 7.55 8.7 7.55 8.05 L7.75 6.75 5.55 7.1 4.3 7.35 Q4.15 5.75 5.0 4.75 L11.4 5.45 12.95 5.85 13.3 7.3 10.25 6.85 10.45 7.3 10.65 8.05 10.2 9.15" fill="#000000" fill-opacity="0.49803922" fill-rule="evenodd" stroke="none"/>
      <path d="M12.95 5.75 Q13.3 6.5 13.3 7.35 L10.85 6.9 10.2 6.95 Q10.65 7.45 10.65 8.1 L10.2 9.15 Q9.75 9.65 9.1 9.65 8.45 9.65 8.0 9.15 7.55 8.75 7.55 8.1 L7.7 7.3 Q7.85 6.8 7.95 6.8 L4.25 7.35 Q4.35 5.9 5.0 4.65 L11.4 5.35 12.95 5.75" fill="url(#gradient1)" fill-rule="evenodd" stroke="none"/>
      <path d="M4.9 7.65 L4.8 6.9 5.0 6.15 6.05 5.9 Q6.95 5.75 6.95 5.9 L7.0 6.6 6.7 7.45 5.85 7.65 Q4.85 7.85 4.9 7.65" fill="#ffffff" fill-rule="evenodd" stroke="none"/>
      <path d="M11.15 8.85 L11.75 8.95 12.2 9.4 12.55 9.85 11.95 9.85 11.65 9.8 Q11.3 9.65 11.05 9.35 L10.65 8.95 10.75 8.9 11.15 8.85" fill="#ffffff" fill-opacity="0.69411767" fill-rule="evenodd" stroke="none"/>
      <path d="M14.0 6.45 L14.05 6.9 13.3 6.65 Q9.1 5.15 4.1 6.55 L2.1 7.2 Q1.9 5.65 2.8 5.0 3.05 4.8 3.65 4.75 L5.0 4.7 11.25 5.35 12.8 5.9 14.0 6.45" fill="#000000" fill-opacity="0.29803923" fill-rule="evenodd" stroke="none"/>
    </g>
    <radialGradient cx="0" cy="0" gradientTransform="matrix(0.0073, 0.0, 0.0, 0.0052, 8.8, 8.1)" gradientUnits="userSpaceOnUse" id="gradient0" r="819.2" spreadMethod="pad">
      <stop offset="0.0" stop-color="#000000" stop-opacity="0.0"/>
      <stop offset="0.7137254901960784" stop-color="#000000" stop-opacity="0.2"/>
    </radialGradient>
    <linearGradient gradientTransform="matrix(0.0, -0.003, 0.0056, 0.0, 8.65, 7.15)" gradientUnits="userSpaceOnUse" id="gradient1" spreadMethod="pad" x1="-819.2" x2="819.2">
      <stop offset="0.5529411764705883" stop-color="#000000" stop-opacity="0.0"/>
      <stop offset="1.0" stop-color="#000000" stop-opacity="0.49803922"/>
    </linearGradient>
  </defs>
</svg>
