<?xml version="1.0" encoding="UTF-8" standalone="no"?>
<svg xmlns:ffdec="https://www.free-decompiler.com/flash" xmlns:xlink="http://www.w3.org/1999/xlink" ffdec:objectType="frame" height="12.65px" width="13.25px" xmlns="http://www.w3.org/2000/svg">
  <g transform="matrix(1.0, 0.0, 0.0, 1.0, -2.3, 1.45)">
    <use ffdec:characterId="2" height="8.9" transform="matrix(1.0, 0.0, 0.0, 1.0, 2.65, 2.3)" width="12.4" xlink:href="#shape0"/>
  </g>
  <defs>
    <g id="shape0" transform="matrix(1.0, 0.0, 0.0, 1.0, -2.65, -2.3)">
      <path d="M13.3 7.6 L13.25 7.35 12.6 8.05 12.15 8.55 Q11.75 8.55 11.75 7.75 L11.7 7.75 Q10.1 9.2 10.0 10.4 L10.85 10.15 Q11.55 9.85 11.8 9.85 L11.95 9.9 Q13.3 8.9 13.3 7.6 M12.5 5.95 L12.1 6.1 11.05 5.6 9.0 5.15 7.9 5.35 6.85 5.6 Q6.4 5.75 6.35 6.0 L6.3 6.35 5.55 7.85 5.65 8.35 5.7 8.55 6.3 9.0 6.55 9.1 6.65 9.15 7.25 9.45 8.15 9.8 9.4 10.3 10.0 8.9 10.75 7.95 Q11.4 7.25 11.8 7.25 L12.1 7.3 12.25 7.5 12.95 6.55 12.5 5.95 M11.75 4.9 L11.75 4.95 11.9 5.15 11.75 4.9 M11.6 3.9 L12.4 4.2 Q12.95 4.2 13.75 4.8 L14.55 5.5 Q15.05 6.15 15.05 7.1 15.05 8.35 13.95 9.55 12.8 10.75 11.1 10.95 L9.75 11.2 7.75 11.2 5.9 10.85 4.8 10.5 Q4.15 10.15 3.6 8.95 L3.1 7.4 Q3.1 6.3 4.15 5.2 5.5 3.75 7.6 3.75 L10.25 4.0 11.25 4.25 11.15 4.1 Q11.15 3.75 11.6 3.9" fill="#f5f5f5" fill-rule="evenodd" stroke="none"/>
      <path d="M12.4 3.05 L10.5 2.5 12.85 2.35 Q13.95 2.6 14.35 3.1 L14.9 3.85 15.05 4.1 13.55 3.4 12.4 3.05" fill="#000000" fill-opacity="0.2" fill-rule="evenodd" stroke="none"/>
      <path d="M12.5 5.5 Q13.8 6.45 13.75 7.85 13.75 9.2 12.6 10.15 11.45 11.05 9.4 11.1 7.4 11.2 6.05 10.15 4.75 9.1 4.8 7.75 4.85 6.4 6.2 5.4 7.55 4.35 9.4 4.45 11.15 4.55 12.5 5.5" fill="#2d8cbf" fill-rule="evenodd" stroke="none"/>
      <path d="M6.6 5.95 Q7.55 5.2 9.2 5.15 10.8 5.05 11.9 5.95 13.0 6.8 12.95 7.85 12.9 9.0 11.8 9.8 10.7 10.65 9.2 10.55 7.8 10.45 6.7 9.7 5.65 8.9 5.7 7.8 5.7 6.65 6.6 5.95" fill="url(#gradient0)" fill-rule="evenodd" stroke="none"/>
      <path d="M7.9 6.45 Q8.5 6.1 9.3 6.1 10.1 6.1 10.65 6.55 11.25 7.05 11.2 7.7 L10.55 8.85 Q9.9 9.35 9.1 9.25 8.3 9.25 7.75 8.75 7.2 8.25 7.25 7.6 7.35 6.9 7.9 6.45" fill="url(#gradient1)" fill-rule="evenodd" stroke="none"/>
      <path d="M4.5 9.85 L3.75 8.3 3.7 7.3 Q3.75 6.8 3.95 6.4 4.15 5.95 4.7 5.45 L6.15 4.55 7.95 4.15 9.6 4.05 11.15 4.2 12.05 4.45 13.1 4.9 14.1 5.4 14.6 5.75 14.7 5.8 9.7 5.6 Q6.95 5.95 5.6 7.15 4.25 8.35 4.5 9.85" fill="#000000" fill-opacity="0.2" fill-rule="evenodd" stroke="none"/>
      <path d="M14.7 5.8 L14.6 5.75 14.1 5.4 13.1 4.9 12.05 4.45 11.15 4.2 9.6 4.05 7.95 4.15 6.15 4.55 4.7 5.45 Q4.15 5.95 3.95 6.4 3.75 6.8 3.7 7.3 L3.75 8.3 4.5 9.85 5.15 10.7 3.45 9.3 Q2.8 8.4 2.7 7.75 L2.65 6.6 3.0 5.6 3.65 4.7 4.75 4.05 5.75 3.65 6.8 3.4 8.05 3.2 8.9 3.2 9.8 3.2 10.95 3.4 12.65 3.9 Q13.8 4.35 14.25 4.8 14.75 5.3 14.9 5.9 L14.7 5.8" fill="#333333" fill-rule="evenodd" stroke="none"/>
      <path d="M9.35 6.4 L9.55 6.65 9.35 7.0 8.95 7.1 8.5 7.0 8.35 6.65 8.5 6.4 Q8.7 6.25 8.95 6.25 9.2 6.25 9.35 6.4" fill="#ffffff" fill-opacity="0.49803922" fill-rule="evenodd" stroke="none"/>
      <path d="M10.45 9.35 Q9.9 9.75 9.1 9.75 8.3 9.75 7.75 9.3 7.2 8.85 7.2 8.35 L7.25 8.15 7.75 8.9 Q8.2 9.3 9.25 9.3 10.35 9.3 11.0 8.3 L11.0 8.4 Q11.0 9.0 10.45 9.35" fill="#ffffff" fill-opacity="0.4392157" fill-rule="evenodd" stroke="none"/>
      <path d="M10.65 5.15 Q11.1 4.85 11.5 4.9 11.95 4.95 12.4 5.25 L12.85 5.9 Q13.0 6.3 12.65 6.55 L11.65 6.85 10.5 6.5 Q10.1 6.2 10.2 5.85 10.2 5.4 10.65 5.15" fill="#ffffff" fill-rule="evenodd" stroke="none"/>
    </g>
    <linearGradient color-interpolation="linearRGB" gradientTransform="matrix(0.0, 0.0033, 0.0044, 0.0, 9.3, 7.85)" gradientUnits="userSpaceOnUse" id="gradient0" spreadMethod="pad" x1="-819.2" x2="819.2">
      <stop offset="0.0" stop-color="#000000" stop-opacity="0.0"/>
      <stop offset="1.0" stop-color="#ffffff" stop-opacity="0.49803922"/>
    </linearGradient>
    <linearGradient gradientTransform="matrix(1.0E-4, -0.002, -0.0023, -1.0E-4, 9.15, 7.6)" gradientUnits="userSpaceOnUse" id="gradient1" spreadMethod="pad" x1="-819.2" x2="819.2">
      <stop offset="0.0" stop-color="#000000" stop-opacity="0.06666667"/>
      <stop offset="1.0" stop-color="#000000" stop-opacity="0.5764706"/>
    </linearGradient>
  </defs>
</svg>
