<svg xmlns="http://www.w3.org/2000/svg" xmlns:ffdec="https://www.free-decompiler.com/flash" xmlns:xlink="http://www.w3.org/1999/xlink" ffdec:objectType="frame" width="13.6" height="10.8"><use ffdec:characterId="21" xlink:href="#a" width="13.25" height="2.4" transform="translate(.25 6.95)"/><defs><g id="a"><path fill="#2e1200" fill-rule="evenodd" d="m12.65 0-.7.7 1.3.15-1.5.25h-.3l-.25.15 1.05.05-.45.25-.65.1-.55-.05-.3.15.7.1h.35l-.5.2-.55.1h-.15l-.6-.05.6.1h-.9l-4.65.15-2-.45-1.35-.5L.1.95 0 .85.1.9q5.65.65 8.05.2l2.2-.4L12.2.2z"/><path fill="none" stroke="#2e1200" stroke-linecap="round" stroke-linejoin="round" stroke-width=".2" d="M.25.15Q7.3 1.2 9.5.2"/></g></defs></svg>