<svg xmlns="http://www.w3.org/2000/svg" xmlns:ffdec="https://www.free-decompiler.com/flash" xmlns:xlink="http://www.w3.org/1999/xlink" ffdec:objectType="frame" width="13.6" height="10.8"><g transform="translate(3.5 .05)"><use ffdec:characterId="22" xlink:href="#a" width="13.6" height="8.1" transform="translate(-3.5 2.65)"/><clipPath id="b" transform="matrix(1 0 0 .7419 0 2.75)"><path fill="#85003a" fill-rule="evenodd" d="M4.95 8.1q-.8.95-2.15.95T.55 7.9q-.9-1.2-.65-2.45.25-1.3.95-1.9.7-.65 1.9-.7t2.1.75q.85.85.9 2.2.05 1.4-.8 2.3"/></clipPath><g clip-path="url(#b)"><use ffdec:characterId="23" xlink:href="#c" width="7.2" height="6.1" transform="translate(-.8 4.2)"/></g><use ffdec:characterId="18" xlink:href="#d" width="4.35" height="3.35" transform="matrix(1 0 0 .7313 2.5 6.324)"/></g><defs><g id="a"><path fill="#fff" fill-rule="evenodd" d="m13.2 3.25-1.9 2.4-1.05 1.05q-.7.55-2.7 1.3-3.65.05-4.7-.65-1.05-.75-1.4-1.8-.4-1.1.1-2.6.85-1.05 2.9-1.5l1.85-.2 3.9.2q1.75.15 2.8 1.2l.15.35z"/><path fill-opacity=".2" fill-rule="evenodd" d="m10.35 1.9 1.3.5q.75 0 .9.25l.05.25.4.6-.15.15-.3.3-.15.25.1.25q0 .35-.4.35l-.2-.1-.55 1.25-.45.45-.95.7-.95.35V7.4q1.25-1.05 1.8-2.15l.4-.95q-1.35-.65-2.9-.95L5.4 3.3l-2.05.65-.3-.05-.9.1-.85.4v-.2l.15-.9.1-.2.1-.25.4-.15.35-.1.75-.4q.7-.3.9-.3l.45.1.65-.15.9-.25Q8 1.45 8.8 1.6z"/><path fill="#2e1200" fill-rule="evenodd" d="M12.15 1.85h.05l.55.15.05.05.25.05.3.15.15.05.1.15-.05.3v.05h-.1l-.15.25.1.1-.1-.05-1.5 2.7-.1.05-1.15.85h-.05l.5-.75.3-.45.5-.9.1-.2.2-.65v-.1l.1-.3q0-.6-.6-.75h-.05l-.25-.1-1.8-.45-2.85-.3Q3.1 2.05.25 4.1l1.7-1.7-1.75.65 1.3-.9q.85-.55 2.1-.8l3-.45q1.75-.2 4.6.6zM4.65 8l-.45-.1-.4-.2H4l.5.05.75.05h.1l.4.05 2.4-.25.4-.1.4-.1.65-.15-.6.3-.6.3-.6.1-1.35.15H6.4z"/><path fill="none" stroke="#2e1200" stroke-linecap="round" stroke-linejoin="round" stroke-width=".2" d="M8.45.15H6.8l-2.1.3-1.4.4-.4.15-.45.15-1.15.6-1.2.65"/><path fill="#2e1200" fill-rule="evenodd" d="M9.95 4.4Q10 5.65 9 6.55q-1.05.85-2.7.85-1.7 0-2.8-1.15-1.1-1.05-.8-2.2T3.85 2.3q.9-.6 2.4-.65t2.55.7q1.05.8 1.15 2.05"/><path fill="#85003a" fill-rule="evenodd" d="M8.35 2.75q.9.6.95 1.65.05 1-.8 1.7-.8.7-2.15.7-1.4 0-2.25-.85-.95-.9-.65-1.85.25-.9.9-1.35.75-.55 1.95-.55 1.2-.05 2.05.55"/></g><g id="c" fill-rule="evenodd"><path fill="url(#e)" d="M6.3 7.15q.3 1.2-.35 2.05t-2.15 1h-.2l-.15.05q-1.55.2-2.75-.6-1.2-.75-1.45-2.1-.2-1.4 1.05-2.4Q1.5 4.1 3.1 4.2t2.3.95q.65.8.9 2" transform="translate(.8 -4.2)"/><path fill-opacity=".298" d="M2.8 1.2h.1l.3.3-.1.15-.05.05-.25-.1zm1.6 0h.05l.05.15-.5.3v-.1l.15-.2q.15-.15.25-.15m1.35.4-.4.4L5 1.85l.05-.2q.1-.15.65-.15h.05zm-.4 1.6.5-.05.2.15-.3.15-.4-.15zm.05-.5-.05-.15V2.5l.3-.15.55-.1.1.1v.1l-.05.1-.15.1-.35.1zM5 3l-.4.7q-.35.35-.85.35T2.9 3.7l-.4-.6V3q0-.4.4-.7.35-.3.85-.3t.85.3q.4.3.4.7m-2.8-.15.05.25H2.1l-.55-.15-.3-.2.1-.1zm0-.7L1.7 2l.5-.15.15.2zm-.95.9L1.15 3v-.05z"/><path fill="#fff" fill-opacity=".298" d="M1.7 4.7q.35-1.45 2.2-1.4 1.8.1 2 1.25.15 1.2-1.35 1.2-2.25 0-2.8-.55z"/></g><g id="d" fill="#fff" fill-rule="evenodd"><path d="m2.45.1.05.25-.35.35q-.3 0-.3-.15V.4q0-.6.6-.3M0 2.75q0-.65.55-.55.5.05.55.6 0 .5-.6.5T0 2.75"/><path fill-opacity=".6" d="M4.35 2.8q0 .55-.9.55-1.85 0-1.95-1.15 0-1.2 1.45-.65 1.4.5 1.4 1.25"/></g><linearGradient id="e" x1="-819.2" x2="819.2" gradientTransform="matrix(.0006 .0037 -.0046 .0004 3.05 7.2)" gradientUnits="userSpaceOnUse" spreadMethod="pad"><stop offset="0" stop-opacity=".631"/><stop offset="1" stop-color="#fff" stop-opacity="0"/></linearGradient></defs></svg>