<svg xmlns="http://www.w3.org/2000/svg" xmlns:ffdec="https://www.free-decompiler.com/flash" xmlns:xlink="http://www.w3.org/1999/xlink" ffdec:objectType="frame" width="14.95" height="11.95"><g transform="translate(0 -.4)"><use ffdec:characterId="8" xlink:href="#a" width="11.65" height="7.15" transform="translate(2.8 5.15)"/><use ffdec:characterId="9" xlink:href="#b" width="9.2" height="10.8" transform="matrix(-1 0 0 .7113 13.45 4.35)"/><use ffdec:characterId="4" xlink:href="#c" width="6.6" height="5" transform="matrix(1 0 0 .71 5.9 7.739)"/><use ffdec:characterId="6" xlink:href="#d" width="5.1" height="6.75" transform="matrix(-1 0 0 .7113 11.7 5.7)"/><use ffdec:characterId="10" xlink:href="#e" width="14.95" height="8.55" transform="translate(0 3.8)"/></g><defs><path id="a" fill="#fff" fill-rule="evenodd" d="m14.3 7.65.15.15-.2 1.8q-.35 1.25-1.5 1.9l-.9.4-.75.3-.3-.05-.5.1-1.1.05-.25-.1-2.45-.3-.25-.05-.5-.1q-1.1-.35-2.05-1v-.1h-.05l-.6-1.5L2.8 6.9q.1-1 1.65-1.45l3.2-.25q2.5.2 4.35 1h.05q1.55.6 2.25 1.45" transform="translate(-2.8 -5.15)"/><path id="f" fill="url(#g)" fill-rule="evenodd" d="M6.3.25Q8.45.8 9 2.85q.6 2.1-.65 5.2-1.2 3.05-5.3 2.7Q1.25 10.6.5 8.7-.1 7.25.05 5.25.2 2.2 2 .85q1.7-1.3 4.3-.6"/><path id="c" fill="#fff" fill-opacity=".251" fill-rule="evenodd" d="M11.65 5.9h.85q.1 2.6-.6 3.6l-.3.5q-.95.9-2.4.9-1.4 0-2.35-1.35Q6 8.3 5.9 6.15l.7-.05v.5q.05 1.2.4 1.8l.65.75.95.4H9q1.6-.2 2.05-.85l.4-.85.2-.55.05-1.1z" transform="translate(-5.9 -5.9)"/><path id="h" fill="#510031" fill-rule="evenodd" d="M5.1 3.1v.5l-.35 1.65-.7.95-.95.5-.8.05-.25-.05-.4-.1-.4-.25-.15-.1-.7-.85-.35-1.1L0 3.2l.1-.65Q.15 1.9 1.05.9q1-1.2 2.25-.8l1.1.9q.65.9.7 2.1"/><use ffdec:characterId="2" xlink:href="#f" id="b" width="9.2" height="10.8"/><use ffdec:characterId="5" xlink:href="#h" id="d" width="5.1" height="6.75"/><linearGradient id="g" x1="-819.2" x2="819.2" gradientTransform="rotate(88.264 -.483 5.07)scale(.0066)" gradientUnits="userSpaceOnUse" spreadMethod="pad"><stop offset="0" stop-color="#450066"/><stop offset=".784" stop-color="#cd2f63"/></linearGradient><g id="e" fill-rule="evenodd"><path fill="#fff" d="M7.95 1.9q.6 0 1 .4.4.2.35.65l-.55.65-1.05.25-.65-.15q-.7-.3-.65-.85 0-.35.5-.65zM7.5 6.1l.4.05.35.15.25.2.15.4-.35.55-1.15.2q-.85-.15-.85-.9l.3-.4q.5-.3.9-.25"/><path fill="#fff" fill-opacity=".4" d="m10.5 5.75.85.2.65.5.15.4q-.05.5-.6.85l-1.2.25q-1 0-1.4-.65l-.1-.45.05-.15.05-.25q.45-.7 1.55-.7"/><path fill-opacity=".251" d="M14.45 4.65q-.8-1.25-2.55-1.9-1.7-.65-3.7-.55h-.8q-2 .2-3.35.95-.75.35-1.85 1.3l-.15-.55Q2.05.7 7 .7l1.5.1q2.65.55 4.25 1.35 1.8.85 1.8 1.95z"/><path fill="#3a2d2b" d="M14.3 1.9q-1-.85-3.15-1.3L9.8.35l2.05.7q2.75 1.15 3.05 3.2l.05.35q0 .15-.1-.05l-.1-.2-.1-.05-.2-.3-.15-.15Q13.6 3 12.05 2.4H12q-1.85-.8-4.35-1l-3.2.25Q2.9 2.1 2.8 3.1l.25 2.25.6 1.5h.05v.05L2.3 5.7q-.8-1-1-2.4-.7.15-1.15.45l-.1.05H0l.55-1.05Q.95 2 2.3 1.2l.15-.05L2.7 1l-.3.05-.8.1h-.3l-.5.15q-.35.1.1-.1l.45-.2q1.8-.8 4.3-.9h.05L6.8.05h1l3.4.35q1.85.4 3.15 1.4l.2.1h-.25m-1.7 6.05-.3.1q-.65.5-2.7.5L6.85 8.3l-.6-.2.65.1 1.4.1H10l1.7-.15.7-.2-.05.05z"/></g></defs></svg>