<svg xmlns="http://www.w3.org/2000/svg" xmlns:ffdec="https://www.free-decompiler.com/flash" xmlns:xlink="http://www.w3.org/1999/xlink" ffdec:objectType="frame" width="14.5" height="13"><g transform="translate(2.2 .95)"><use ffdec:characterId="7" xlink:href="#a" width="12" height="4.55" transform="translate(-2.2 6.4)"/><use ffdec:characterId="3" xlink:href="#b" width="9" height="9.15" transform="matrix(1 0 0 .7269 -.15 4.7)"/></g><defs><path id="c" fill="#79003b" fill-opacity="0" fill-rule="evenodd" d="M8.95 4.95Q8.8 6.7 6.35 8.9l-.9.15-1.45.1-1.9-.35Q.95 8.1.4 6.05L0 3.75q0-1.05.35-2.1L2.2.95q4.15-1 6.1-.95.9 1.55.65 4.95"/><use ffdec:characterId="2" xlink:href="#c" id="b" width="9" height="9.15"/><g id="a"><path fill="#3a2d2b" fill-rule="evenodd" d="m11.95.05-.35 2.1q-.2 1.25-.5 1.35l-3.35.95-4.05-.2-1.55-.5-1.1-.6-1-.65 6.6.4 3.2-1z"/><path fill="none" stroke="#3a2d2b" stroke-linecap="round" stroke-linejoin="round" stroke-width=".15" d="m11.95.05-.35 2.1q-.2 1.25-.5 1.35l-3.35.95-4.05-.2-1.55-.5-1.1-.6-1-.65 6.6.4 3.2-1zM1 1.1q2.05.95 4.3.75"/></g></defs></svg>