<svg xmlns="http://www.w3.org/2000/svg" xmlns:ffdec="https://www.free-decompiler.com/flash" xmlns:xlink="http://www.w3.org/1999/xlink" ffdec:objectType="frame" width="14.5" height="13"><g transform="translate(2.2 .95)"><use ffdec:characterId="8" xlink:href="#a" width="14.05" height="9.4" transform="translate(-1.75 2.6)"/><use ffdec:characterId="3" xlink:href="#b" width="9" height="9.15" transform="matrix(1 0 0 .7269 -.15 4.7)"/><use ffdec:characterId="6" xlink:href="#c" width="12" height="6.75" transform="translate(-.85 4.6)"/></g><defs><g id="a"><path fill="#3a2d2b" fill-rule="evenodd" d="m12.5 5.95.2-.7q.5-2-.6-2.8l-.85-.25-1.35-.1-6.1.7-1.85.5-1.05.55-.9.45 1.1-1.65q3.75-1.25 7.85-1.6L14 1.3h.05l-.2.7-.5 2.45-1.1 2.15zM3.05 8.8l2.9.15 3.2-.05-1.55.4-2.95.05L3.6 9.1z"/><path fill="#fff" fill-rule="evenodd" d="m9.9 2.1 1.35.1.85.25q1.1.8.6 2.8l-.2.7q-1 1.45-3.4 2.35l-1.15.3q2.45-1.6 2.6-2.9.25-2.45-.65-3.6m-9 1.75 1.05-.55q-.35.8-.35 1.55L2 6.5q.55 1.5 1.7 2h-.05l-1.2-.25-.25-.15.05.15V8.2Q.85 6.45.9 3.85"/><path fill="none" stroke="#3a2d2b" stroke-linecap="round" stroke-linejoin="round" stroke-width=".15" d="M2.25 1.7 4.7.7Q6.4 0 7.75.05"/></g><g id="c" fill-rule="evenodd"><path fill="url(#e)" d="m1.8 5.4 6.4-.7q.9 1.15.65 3.6-.15 1.3-2.6 2.9l-.9.1-1.45.05L2 11.1q-1.15-.5-1.7-2l-.4-1.65q0-.9.35-1.65z" transform="translate(.85 -4.6)"/><path fill-opacity=".498" d="M1.1 1.2 2.65.8l6.4-.7q.85 1 .7 2.65l-1.25-.3-2.2-.35.2 1.3q0 .65-.45 1.1-.45.5-1.1.5t-1.1-.5q-.45-.45-.45-1.1l.2-.75.2-.45-3.05.5z"/><path fill="url(#f)" d="m.25 5.7 1.55-.4 6.4-.7q.65 1.3.75 2.75l-3.7-.6.25.5.15.8q0 .65-.45 1.1l-1.1.45q-.65 0-1.1-.45t-.45-1.1q0-.6.45-1.1l-.65-.1-2.45.5q0-.9.35-1.65" transform="translate(.85 -4.6)"/><path fill="#fff" fill-opacity=".4" d="M4.55 4.9q1 .2 1.9-.8l-.05.65q-.35.65-1.65.65-1.05-.35-1.05-.9.3.3.85.4"/><path fill="#fff" d="m3.5 1.35.05.7q-.05.6-.3.8l-.85.25q-1 .2-.95 0l-.1-.75.2-.75 1.05-.25q.9-.15.9 0"/><path fill="#fff" fill-opacity=".694" d="m7.1 4.2.6.15.45.45.35.45h-.6l-.3-.05-.6-.45-.4-.4.1-.1z"/><path fill-opacity=".298" d="M11.95 2.6q-1.1-.5-2-.7-5-1.4-9.2.1L0 2.3l.05-.5 1.2-.55q1.3-.5 1.55-.5l6.25-.7L10.4.1q.6.05.85.25.9.65.7 2.25"/></g><radialGradient id="e" cx="0" cy="0" r="819.2" gradientTransform="matrix(-.0073 0 0 .0053 4.4 8.05)" gradientUnits="userSpaceOnUse" spreadMethod="pad"><stop offset="0" stop-opacity="0"/><stop offset=".714" stop-opacity=".2"/></radialGradient><linearGradient id="f" x1="-819.2" x2="819.2" gradientTransform="matrix(0 -.0031 -.0056 0 4.55 7.1)" gradientUnits="userSpaceOnUse" spreadMethod="pad"><stop offset=".553" stop-opacity="0"/><stop offset="1" stop-opacity=".498"/></linearGradient><path id="d" fill="#79003b" fill-rule="evenodd" d="M8.95 4.95Q8.8 6.7 6.35 8.9l-.9.15-1.45.1-1.9-.35Q.95 8.1.4 6.05L0 3.75q0-1.05.35-2.1L2.2.95q4.15-1 6.1-.95.9 1.55.65 4.95"/><use ffdec:characterId="2" xlink:href="#d" id="b" width="9" height="9.15"/></defs></svg>