<svg xmlns="http://www.w3.org/2000/svg" xmlns:ffdec="https://www.free-decompiler.com/flash" xmlns:xlink="http://www.w3.org/1999/xlink" ffdec:objectType="frame" width="13.15" height="10.2"><g transform="translate(2.95 -.6)"><use ffdec:characterId="11" xlink:href="#a" width="11.65" height="8.15" transform="translate(-2.3 2.65)"/><use ffdec:characterId="12" xlink:href="#b" width="7.45" height="7.55" transform="matrix(.9448 0 0 1 -.636 2.95)"/><use ffdec:characterId="13" xlink:href="#c" width="13.05" height="9.15" transform="translate(-2.85 .6)"/></g><defs><path id="a" fill="#fff" fill-rule="evenodd" d="m7.3 4.9.05-.1-.15-.05zm1.25.1q.75.95.8 1.55 0 .55-2.1 2.35t-4.6 1.9q-2.5.05-3.75-1.55l-.65-1-.2-.5-.25-.45-.1-.75q.05-1.05 1.65-2.3Q1.2 2.8 3.9 2.65q2.8.6 3.75 1.3z" transform="translate(2.3 -2.65)"/><path id="d" fill="#0ba8ad" fill-rule="evenodd" d="m5.05 7.35-1.45.2q-1.05 0-1.85-.45Q.9 6.65.3 5.55q-.6-1.05-.55-2.2Q0 .25 3.35 0l1.3.05 1.5.95q.9.95 1.05 2.35.1 1.4-.35 2.25l-.9 1.2z" transform="translate(.25)"/><use ffdec:characterId="2" xlink:href="#d" id="b" width="7.45" height="7.55"/><g id="c" fill-rule="evenodd"><path fill="#fff" fill-opacity=".259" d="m7.75 5 .1-.05q.3 0 .4.85.35 2.55-1.9 3.05-2.3.45-2.85-1.35h-.05l-.2-.7-.05-.7.05-.45.15-.15h.15v.25l-.05.05.05.35.35.95.95.75H6.1q.5-.05.8-.3l.5-.5.3-.6V5zm-3.5-.4q.5-.5 1-.6l1.2.1q.65.3.9 1.15.2.85-.35 1.45l-1.2.75q-.7.1-1.3-.4-.5-.4-.6-1.15-.05-.7.35-1.3"/><path fill="#fff" d="M4.45 4.4q.6 0 .6.65-.05.6-.65.55-.65-.05-.6-.6 0-.6.65-.6m3.3 2.15q.9.2.95.75.1.65-.6.75-.9.1-1.2-1.05-.1-.6.85-.45"/><path fill="#2a6d7e" fill-opacity=".51" d="M6.95 8.35q-.05.6-.75.75l-.9.05h-.05q-.85 0-1.4-.65T3.5 7.1q.15-.8 1.05-.75.85.05 1.35.4l.8.7z"/><path fill-opacity=".2" d="M11.35 3.9q1.1 1.1 1.1 1.8l-1.5 1.5-.5-.7-.6-.7Q8.5 4.35 6.6 4.35q-2.55 0-3.9 1.45l-.45.65-1.1 1.35-.2-.5-.35-.6-.2-.5v-.05q0-.9 1.45-2.1 2.1-1.7 5.6-1.7 1.7 0 3 .85z"/><path fill="#513624" d="m10.45 2.45.5.4 2.1 2.35-1.8 2.4-1.25.85.6-.85.25-.45.5-1.5-.05-.25-.85-1.35Q9.8 3.25 9.05 3l-2.3-.6q-1-.05-2.7.65-1.75.7-2.55 1.85l-.6.8-.25.5-.15.25-.1-.05-.3-.9.05-.1L0 4.95 1.2 3.4l1.4-1.1L4 1.75l.5-.15 3.15-.3 1 .3z"/><path fill="#6b3a00" fill-opacity=".694" d="M2.9 1.2Q1.6 1.75.8 2.55l-.75.75.2-1.1Q.35 1.4 2 .5 3.6-.45 8.55.4q-4.4.2-5.65.8"/></g></defs></svg>