<svg xmlns="http://www.w3.org/2000/svg" xmlns:ffdec="https://www.free-decompiler.com/flash" xmlns:xlink="http://www.w3.org/1999/xlink" ffdec:objectType="frame" width="13.1" height="10.2"><use ffdec:characterId="5" xlink:href="#a" width="13.05" height="7.95" transform="translate(0 2.25)"/><defs><g id="a" fill-rule="evenodd"><path fill="#fff" d="m2.9 3.35.1-.1-.15.05zM11.95 6l-.65.75Q10.05 8 7.55 7.95T2.95 6.5.85 4.65q.05-.45.8-1.2l.9-.8Q3.5 2.1 6.3 1.6q2.7.15 4.55 1.25 1.6 1 1.65 1.8l-.1.6-.25.35z"/><path fill="#0ba8ad" d="m8.95 7.4-1.75.35-1.35-.15L5 7.15l-.85-.95q-.45-.65-.35-1.75.15-1.1 1-1.8.55-.55 1.4-.75l1.25-.05q3.15.2 3.4 2.6.05.9-.55 1.75z"/><path fill="#fff" fill-opacity=".259" d="M9.5 4.3h.15l.15.1.05.35-.05.55-.2.55h-.05Q9 7.25 6.7 6.9q-2.25-.35-1.9-2.35.1-.65.4-.65h.15v1.15l.3.45.5.4.8.25H8.2l.95-.6.35-.75.05-.25-.05-.05zm-.35.3q-.1.6-.6.9l-1.3.3q-.75-.05-1.2-.55-.55-.5-.35-1.15.25-.65.9-.9l1.2-.05q.5.05 1 .45z"/><path fill-opacity=".2" d="M11.2 3.15q1.45.95 1.45 1.65v.05l-.2.4-.35.45-.2.4-1.1-1.05-.45-.5Q9 3.4 6.45 3.4q-1.9 0-3.25 1.15l-.6.55-.5.55-1.5-1.2q0-.55 1.1-1.4l.9-.55q1.3-.65 3-.65 3.5 0 5.6 1.3"/><path fill="#513624" d="m9.05 1.4 1.4.4 1.4.85 1.2 1.25-.15.35.05.05-.3.7-.1.05-.15-.2-.25-.4-.6-.6q-.8-.9-2.55-1.45-1.7-.55-2.7-.5L4 2.35q-.75.2-1.4.8l-.85 1.1-.05.15.5 1.2.25.35.6.65-1.25-.65L0 4.05l2.1-1.8.5-.3 1.8-.7 1-.2 3.15.2z"/><path fill="#6b3a00" fill-opacity=".694" d="M11.05.4q1.65.7 1.75 1.35l.2.85-.75-.6q-.8-.6-2.1-1.05L4.5.35q4.95-.7 6.55.05"/><path fill="#fff" d="M8.15 5.4q-.1-.45.85-.35.9.15.95.6.1.5-.6.55-.9.1-1.2-.8M6.3 3.9q-.05.45-.65.4-.65-.05-.6-.45 0-.5.65-.5.6 0 .6.55"/><path fill="#2a6d7e" fill-opacity=".498" d="M8.2 6.45q-.05.45-.75.6H6.5q-.85 0-1.4-.5t-.35-1.1q.15-.6 1.05-.55l1.35.3.8.55z"/></g></defs></svg>