<?xml version="1.0" encoding="UTF-8" standalone="no"?>
<svg xmlns:ffdec="https://www.free-decompiler.com/flash" xmlns:xlink="http://www.w3.org/1999/xlink" ffdec:objectType="frame" height="13.5px" width="12.8px" xmlns="http://www.w3.org/2000/svg">
  <g transform="matrix(1.0, 0.0, 0.0, 1.0, -1.15, 1.75)">
    <use ffdec:characterId="1" height="11.15" transform="matrix(1.0, 0.0, 0.0, 1.0, 4.05, 0.55)" width="9.8" xlink:href="#shape0"/>
    <use ffdec:characterId="3" height="11.0" transform="matrix(-1.0, 0.0, 0.0, 1.0, 13.6, 0.6)" width="8.25" xlink:href="#sprite0"/>
    <use ffdec:characterId="4" height="6.9" transform="matrix(1.0, 0.0, 0.0, 1.0, 6.75, 3.3)" width="5.2" xlink:href="#shape2"/>
    <use ffdec:characterId="6" height="5.65" transform="matrix(-1.0, 0.0, 0.0, 1.0, 11.6, 3.25)" width="4.35" xlink:href="#sprite1"/>
    <use ffdec:characterId="7" height="12.55" transform="matrix(1.0, 0.0, 0.0, 1.0, 1.15, -1.75)" width="12.45" xlink:href="#shape4"/>
  </g>
  <defs>
    <g id="shape0" transform="matrix(1.0, 0.0, 0.0, 1.0, -4.05, -0.55)">
      <path d="M6.1 1.95 Q4.95 2.85 4.55 4.0 4.25 4.95 4.05 7.55 3.9 9.1 5.3 10.35 6.55 11.45 8.1 11.65 10.5 11.9 11.95 11.0 14.35 9.45 13.75 5.0 13.1 0.35 9.75 0.55 7.65 0.65 6.1 1.95" fill="#ffffff" fill-rule="evenodd" stroke="none"/>
    </g>
    <g id="sprite0" transform="matrix(1.0, 0.0, 0.0, 1.0, 0.0, 0.0)">
      <use ffdec:characterId="2" height="11.0" transform="matrix(1.0, 0.0, 0.0, 1.0, 0.0, 0.0)" width="8.25" xlink:href="#shape1"/>
    </g>
    <g id="shape1" transform="matrix(1.0, 0.0, 0.0, 1.0, 0.0, 0.0)">
      <path d="M6.35 5.6 Q6.3 6.95 5.45 7.75 L5.55 7.75 Q6.1 7.75 6.5 8.15 7.0 7.2 7.1 5.6 L6.35 5.6 M1.5 5.4 Q1.5 7.7 2.0 8.45 L2.65 8.25 Q3.05 8.25 3.3 8.5 L3.6 9.15 3.5 9.45 4.15 9.55 4.25 9.55 4.05 8.85 4.3 8.25 4.1 8.3 Q3.2 8.25 2.6 7.4 1.95 6.55 2.0 5.4 L1.5 5.4 M0.0 5.2 Q0.05 3.1 1.15 1.55 2.55 -0.5 5.0 0.15 7.05 0.7 7.85 3.35 8.55 5.7 8.0 7.9 7.1 11.35 3.35 10.95 -0.1 10.65 0.0 5.2" fill="url(#gradient0)" fill-rule="evenodd" stroke="none"/>
      <path d="M6.35 5.6 L7.1 5.6 Q7.0 7.2 6.5 8.15 6.1 7.75 5.55 7.75 L5.45 7.75 Q6.3 6.95 6.35 5.6" fill="url(#gradient1)" fill-rule="evenodd" stroke="none"/>
      <path d="M1.5 5.4 L2.0 5.4 Q1.95 6.55 2.6 7.4 3.2 8.25 4.1 8.3 L4.3 8.25 4.05 8.85 4.25 9.55 4.15 9.55 3.5 9.45 3.6 9.15 3.3 8.5 Q3.05 8.25 2.65 8.25 L2.0 8.45 Q1.5 7.7 1.5 5.4" fill="url(#gradient2)" fill-rule="evenodd" stroke="none"/>
    </g>
    <linearGradient gradientTransform="matrix(-2.0E-4, 0.0066, -0.0067, -3.0E-4, 4.1, 5.5)" gradientUnits="userSpaceOnUse" id="gradient0" spreadMethod="pad" x1="-819.2" x2="819.2">
      <stop offset="0.0" stop-color="#d28ae5"/>
      <stop offset="1.0" stop-color="#51038e"/>
    </linearGradient>
    <linearGradient gradientTransform="matrix(-2.0E-4, 0.0066, -0.0067, -3.0E-4, 6.3, 5.6)" gradientUnits="userSpaceOnUse" id="gradient1" spreadMethod="pad" x1="-819.2" x2="819.2">
      <stop offset="0.0" stop-color="#d28ae5"/>
      <stop offset="1.0" stop-color="#51038e"/>
    </linearGradient>
    <linearGradient gradientTransform="matrix(-2.0E-4, 0.0066, -0.0067, -3.0E-4, 2.95, 5.45)" gradientUnits="userSpaceOnUse" id="gradient2" spreadMethod="pad" x1="-819.2" x2="819.2">
      <stop offset="0.0" stop-color="#d28ae5"/>
      <stop offset="1.0" stop-color="#51038e"/>
    </linearGradient>
    <g id="shape2" transform="matrix(1.0, 0.0, 0.0, 1.0, -6.75, -3.3)">
      <path d="M11.95 7.2 L11.65 8.6 11.1 9.6 Q10.65 10.2 9.9 10.2 8.8 10.2 7.95 9.65 7.05 9.0 6.8 7.85 L6.8 6.5 7.25 5.0 7.55 4.35 Q8.2 3.85 8.9 3.45 L9.35 3.3 10.15 3.7 Q11.2 4.25 11.65 5.4 L11.95 7.2" fill="#ffffff" fill-opacity="0.29803923" fill-rule="evenodd" stroke="none"/>
    </g>
    <g id="sprite1" transform="matrix(1.0, 0.0, 0.0, 1.0, 0.0, 0.0)">
      <use ffdec:characterId="5" height="5.65" transform="matrix(1.0, 0.0, 0.0, 1.0, 0.0, 0.0)" width="4.35" xlink:href="#shape3"/>
    </g>
    <g id="shape3" transform="matrix(1.0, 0.0, 0.0, 1.0, 0.0, 0.0)">
      <path d="M4.35 2.9 L4.35 2.95 Q4.3 4.3 3.45 5.1 3.25 5.45 2.3 5.6 L2.1 5.65 Q1.2 5.6 0.6 4.75 -0.05 3.9 0.0 2.75 0.1 1.7 0.6 0.95 L1.35 0.25 2.3 0.0 Q3.2 0.05 3.8 0.9 4.4 1.75 4.35 2.9" fill="#45245d" fill-rule="evenodd" stroke="none"/>
    </g>
    <g id="shape4" transform="matrix(1.0, 0.0, 0.0, 1.0, -1.15, 1.75)">
      <path d="M7.9 2.05 Q8.35 2.05 8.75 2.45 L9.2 3.1 9.2 3.4 Q9.0 4.1 8.5 4.3 L7.65 4.4 6.95 3.95 Q6.6 3.6 6.65 3.15 6.65 2.7 7.05 2.35 7.45 2.0 7.9 2.05 M8.35 8.85 Q8.75 8.85 9.0 9.1 L9.3 9.75 9.2 10.05 Q8.8 10.65 8.3 10.55 7.35 10.55 7.35 9.65 7.45 9.25 7.7 9.05 L8.35 8.85" fill="#ffffff" fill-rule="evenodd" stroke="none"/>
      <path d="M12.65 9.6 Q12.6 10.15 12.1 10.5 11.65 10.85 11.1 10.8 10.2 10.75 9.95 10.15 L9.75 9.45 10.0 8.85 Q10.5 8.35 11.15 8.35 L11.25 8.35 Q11.8 8.35 12.2 8.75 L12.65 9.6" fill="#ffffff" fill-opacity="0.49803922" fill-rule="evenodd" stroke="none"/>
      <path d="M4.25 5.75 L4.2 6.0 4.1 7.4 Q4.15 8.35 4.85 10.1 L4.85 10.15 4.85 10.25 4.8 10.3 4.75 10.35 4.65 10.3 3.9 9.25 3.85 9.1 3.85 9.15 2.45 9.65 3.75 8.85 3.85 8.75 3.55 7.8 2.8 7.95 1.75 7.75 1.25 7.65 1.25 7.6 1.35 7.6 3.3 7.2 3.2 6.45 1.3 6.0 Q0.95 5.75 1.55 5.9 L3.2 5.9 3.45 4.2 Q4.1 2.35 5.45 1.05 L5.65 0.85 Q7.9 -0.75 9.85 -0.9 11.45 -1.1 12.5 -0.55 13.45 -0.1 13.55 0.7 L13.55 0.75 13.5 0.85 13.4 0.85 13.35 0.8 12.6 0.35 Q13.6 1.0 13.45 2.6 L13.45 2.7 13.35 2.75 13.3 2.7 13.25 2.65 13.1 2.5 13.05 2.45 Q12.3 1.55 11.5 1.25 L11.5 1.2 Q10.25 0.55 8.9 0.8 7.25 1.0 5.8 2.8 4.65 4.1 4.25 5.75 M9.9 -1.7 Q12.2 -2.0 13.55 -0.35 L13.55 -0.15 13.35 -0.15 Q12.1 -1.7 9.75 -1.4 7.5 -1.1 5.7 0.75 L4.6 1.75 Q3.0 3.25 2.45 5.1 L2.3 5.2 2.25 5.2 2.15 5.0 Q2.65 3.05 5.1 0.85 7.6 -1.4 9.9 -1.7" fill="#3a2d2b" fill-rule="evenodd" stroke="none"/>
      <path d="M13.05 2.45 Q9.7 1.85 7.1 3.3 5.75 4.05 4.25 5.75 4.65 4.1 5.8 2.8 7.25 1.0 8.9 0.8 10.25 0.55 11.5 1.2 L11.5 1.25 Q12.3 1.55 13.05 2.45" fill="#020202" fill-opacity="0.29803923" fill-rule="evenodd" stroke="none"/>
    </g>
  </defs>
</svg>
