<?xml version="1.0" encoding="UTF-8" standalone="no"?>
<svg xmlns:ffdec="https://www.free-decompiler.com/flash" xmlns:xlink="http://www.w3.org/1999/xlink" ffdec:objectType="frame" height="12.85px" width="13.15px" xmlns="http://www.w3.org/2000/svg">
  <g transform="matrix(1.0, 0.0, 0.0, 1.0, 3.3, 1.05)">
    <use ffdec:characterId="3" height="12.1" transform="matrix(1.0, 0.0, 0.0, 0.9559, -0.85, 0.1735)" width="8.4" xlink:href="#sprite0"/>
    <use ffdec:characterId="5" height="1.6" transform="matrix(1.0, 0.0, 0.0, 1.0, -1.8, -1.05)" width="2.65" xlink:href="#shape1"/>
    <use ffdec:characterId="8" height="3.15" transform="matrix(1.0, 0.0, 0.0, 1.0, -3.3, 8.65)" width="12.5" xlink:href="#shape2"/>
  </g>
  <defs>
    <g id="sprite0" transform="matrix(1.0, 0.0, 0.0, 1.0, 3.7, 6.2)">
      <use ffdec:characterId="2" height="12.1" transform="matrix(1.0, 0.0, 0.0, 1.0, -3.7, -6.2)" width="8.4" xlink:href="#shape0"/>
    </g>
    <g id="shape0" transform="matrix(1.0, 0.0, 0.0, 1.0, 3.7, 6.2)">
      <path d="M3.75 -4.3 L4.2 -3.8 4.45 -3.15 4.65 -1.5 4.65 0.3 4.35 2.45 3.6 4.45 Q2.8 5.9 0.55 5.9 -1.5 5.9 -2.5 4.5 L-2.75 4.1 Q-3.7 2.55 -3.7 0.25 -3.7 -3.7 -2.65 -5.3 -2.1 -6.0 -1.2 -6.0 L0.45 -5.85 Q2.65 -5.85 3.75 -4.3" fill="#433838" fill-opacity="0.0" fill-rule="evenodd" stroke="none"/>
      <path d="M3.5 -4.45 L3.9 -4.0 4.2 -3.4 4.35 -1.75 4.35 0.0 4.05 2.1 3.35 4.05 Q2.65 5.45 0.55 5.45 -1.3 5.45 -2.25 4.15 L-2.45 3.75 Q-3.35 2.25 -3.35 -0.05 -3.35 -3.9 -2.35 -5.45 -1.85 -6.2 -1.05 -6.2 L0.5 -6.0 Q2.5 -6.0 3.5 -4.45" fill="#553174" fill-opacity="0.0" fill-rule="evenodd" stroke="none"/>
      <path d="M3.35 4.05 Q2.65 5.45 0.55 5.45 -1.3 5.45 -2.25 4.15 L-2.45 3.75 -2.95 2.65 -2.8 2.65 0.75 3.1 Q2.4 3.1 4.0 2.35 L3.35 4.05" fill="#b89bdb" fill-opacity="0.0" fill-rule="evenodd" stroke="none"/>
    </g>
    <g id="shape1" transform="matrix(1.0, 0.0, 0.0, 1.0, 1.8, 1.05)">
      <path d="M0.15 -1.05 L0.85 -1.05 0.85 -1.0 Q-0.25 -0.85 -1.8 0.55 L-1.35 -0.25 Q-0.8 -0.65 0.15 -1.05" fill="#433838" fill-rule="evenodd" stroke="none"/>
    </g>
    <g id="shape2" transform="matrix(1.0, 0.0, 0.0, 1.0, 3.3, -8.65)">
      <path d="M4.7 11.75 L3.15 11.8 Q0.0 11.7 -1.45 10.75 L-2.45 9.75 -2.8 9.6 -3.3 9.2 -3.25 9.2 -2.6 9.35 -2.6 8.75 -2.55 8.65 -1.95 9.2 -1.85 9.3 -1.7 9.5 Q-0.95 10.2 1.75 10.6 L6.1 10.85 6.7 10.8 7.3 10.8 7.35 10.75 7.5 10.75 8.2 10.5 8.9 10.2 8.7 10.5 8.25 10.95 9.2 10.95 8.2 11.1 7.7 11.2 7.6 11.3 7.5 11.35 7.35 11.35 4.7 11.75 M6.75 10.25 L6.65 10.25 5.6 10.1 5.5 10.05 5.5 10.0 7.4 9.8 7.9 9.65 7.95 9.7 7.25 10.15 6.75 10.25" fill="#433838" fill-rule="evenodd" stroke="none"/>
    </g>
  </defs>
</svg>
