<?xml version="1.0" encoding="UTF-8" standalone="no"?>
<svg xmlns:ffdec="https://www.free-decompiler.com/flash" xmlns:xlink="http://www.w3.org/1999/xlink" ffdec:objectType="frame" height="9.15px" width="12.5px" xmlns="http://www.w3.org/2000/svg">
  <g transform="matrix(1.0, 0.0, 0.0, 1.0, 3.4, -1.3)">
    <use ffdec:characterId="7" height="9.15" transform="matrix(1.0, 0.0, 0.0, 1.0, -3.4, 1.3)" width="12.5" xlink:href="#shape0"/>
  </g>
  <defs>
    <g id="shape0" transform="matrix(1.0, 0.0, 0.0, 1.0, 3.4, -1.3)">
      <path d="M8.35 5.35 L8.2 6.25 Q7.85 7.45 6.65 8.75 4.9 10.45 3.6 10.1 3.15 10.6 1.9 10.35 L1.05 10.15 Q0.35 10.0 -0.55 9.35 L-0.9 9.0 -2.05 7.45 -2.5 5.9 -2.5 5.8 -2.1 4.8 -1.6 3.85 -1.25 3.05 Q0.15 2.75 3.15 3.1 7.5 3.65 8.2 4.9 L8.35 5.35" fill="#ffffff" fill-rule="evenodd" stroke="none"/>
      <path d="M5.35 10.05 L5.25 9.85 5.3 9.7 5.55 9.9 5.5 10.05 5.35 10.05 M2.7 10.15 L2.95 10.2 2.9 10.45 2.7 10.45 2.7 10.15 M3.95 10.2 L3.95 10.45 3.8 10.45 3.75 10.15 3.95 10.2 M4.9 10.05 L4.9 10.35 4.75 10.35 4.7 10.3 4.65 9.95 4.9 10.05 M0.2 9.65 L0.0 9.75 -0.15 9.7 -0.1 9.5 Q0.15 9.45 0.2 9.65 M0.65 10.15 L0.6 10.1 0.7 9.85 0.85 9.9 0.65 10.15 M1.75 10.2 L1.8 10.1 2.05 10.1 2.05 10.3 1.75 10.45 1.75 10.2" fill="url(#gradient0)" fill-rule="evenodd" stroke="none"/>
      <path d="M5.35 4.75 Q6.0 5.95 5.85 7.0 L5.3 8.65 Q4.35 10.0 2.95 10.05 1.55 10.05 0.75 9.35 -0.1 8.65 -0.4 7.25 L-0.4 6.4 -0.25 5.55 Q-0.1 4.75 0.75 3.85 1.6 2.9 3.1 3.3 4.7 3.65 5.35 4.75" fill="#85003a" fill-rule="evenodd" stroke="none"/>
      <path d="M5.85 6.35 Q6.0 7.8 5.15 8.9 4.25 9.95 2.95 10.1 1.65 10.25 0.65 9.3 -0.45 8.35 -0.45 6.75 -0.5 5.15 0.4 4.1 1.25 3.0 2.5 2.9 3.8 2.85 4.75 3.85 5.65 4.85 5.85 6.35" fill="url(#gradient1)" fill-rule="evenodd" stroke="none"/>
      <path d="M2.55 8.15 Q1.45 8.1 1.5 6.75 1.5 5.35 2.85 5.45 4.1 5.55 4.1 6.8 L3.9 7.6 Q3.55 8.2 2.55 8.15" fill="#4f0027" fill-opacity="0.8509804" fill-rule="evenodd" stroke="none"/>
      <path d="M1.75 5.85 L1.55 6.25 Q1.4 6.45 1.15 6.45 0.9 6.45 0.7 6.25 L0.55 5.85 Q0.55 5.6 0.7 5.4 0.9 5.25 1.15 5.25 L1.55 5.4 1.75 5.85 M3.75 6.95 L4.8 6.8 Q5.55 6.85 5.9 7.55 6.5 8.35 5.4 8.1 4.25 7.8 3.8 7.45 3.35 7.1 3.75 6.95" fill="#ffffff" fill-rule="evenodd" stroke="none"/>
      <path d="M3.5 8.8 L3.3 8.5 Q3.3 8.1 3.7 8.25 L4.05 8.75 3.75 9.0 3.5 8.8 M3.0 8.9 L2.75 9.2 Q2.4 9.2 2.4 8.75 2.4 8.3 2.7 8.4 3.0 8.5 3.0 8.9 M0.55 8.0 Q0.55 7.6 1.0 7.5 1.4 7.4 1.4 7.85 1.4 8.35 0.9 8.35 0.55 8.35 0.55 8.0 M1.55 8.75 L1.5 8.6 Q1.5 8.3 1.8 8.2 2.05 8.15 2.05 8.55 L1.75 8.9 1.55 8.75" fill="#ffffff" fill-opacity="0.27058825" fill-rule="evenodd" stroke="none"/>
      <path d="M8.5 5.8 L7.55 7.4 Q7.25 6.85 5.5 6.05 3.75 5.2 2.2 5.3 0.65 5.4 -0.55 6.25 -1.8 7.05 -1.95 7.65 L-2.2 6.85 Q-2.45 5.8 -2.05 5.05 L-1.6 4.1 Q-1.25 3.4 -0.7 3.25 L-0.2 2.9 2.3 2.85 Q4.75 2.9 6.75 4.0 8.5 4.95 8.5 5.8" fill="#000000" fill-opacity="0.2" fill-rule="evenodd" stroke="none"/>
      <path d="M8.7 4.3 L8.6 4.3 7.7 3.6 Q6.7 2.75 3.65 2.0 L2.9 1.9 0.45 1.85 -0.25 2.0 -1.0 2.3 -1.25 2.45 -1.35 2.5 Q-1.55 2.55 -2.15 3.15 L-2.75 3.8 -2.8 3.8 -2.7 3.45 -1.8 2.4 -1.25 1.9 -0.5 1.5 0.85 1.3 1.85 1.3 Q3.6 1.35 5.35 2.05 7.15 2.7 7.85 3.45 L8.7 4.3" fill="#e9a067" fill-rule="evenodd" stroke="none"/>
      <path d="M8.4 5.1 L9.1 5.95 8.1 7.25 6.85 8.65 6.55 8.8 7.2 7.75 7.8 6.65 7.95 6.25 7.9 6.15 6.6 4.95 4.65 4.05 1.15 3.6 0.55 3.6 -0.6 4.05 Q-1.05 4.35 -1.9 6.15 L-2.1 6.75 -2.15 7.05 -2.15 7.1 -2.2 7.35 -2.3 7.35 -2.35 6.85 -2.4 6.9 -2.55 6.75 -2.6 6.6 -2.6 6.5 -2.65 6.55 -2.8 6.55 -2.85 6.6 -2.85 6.45 -2.85 6.35 -2.85 6.1 -2.95 6.15 -3.15 6.15 -3.35 6.35 -3.25 5.85 -2.35 4.35 -1.35 3.2 -0.25 2.55 2.55 2.35 Q4.5 2.45 5.6 2.95 6.7 3.45 7.2 3.85 L8.4 5.1" fill="url(#gradient2)" fill-rule="evenodd" stroke="none"/>
    </g>
    <linearGradient gradientTransform="matrix(-0.0076, 0.0, 0.0, 0.0049, 3.35, 6.15)" gradientUnits="userSpaceOnUse" id="gradient0" spreadMethod="pad" x1="-819.2" x2="819.2">
      <stop offset="0.0" stop-color="#541f06"/>
      <stop offset="0.13725490196078433" stop-color="#270f03"/>
      <stop offset="0.5215686274509804" stop-color="#000000"/>
      <stop offset="0.8784313725490196" stop-color="#2e0f02"/>
      <stop offset="1.0" stop-color="#4a1e0b"/>
    </linearGradient>
    <linearGradient gradientTransform="matrix(2.0E-4, 0.0044, -0.0038, 2.0E-4, 2.65, 6.5)" gradientUnits="userSpaceOnUse" id="gradient1" spreadMethod="pad" x1="-819.2" x2="819.2">
      <stop offset="0.43137254901960786" stop-color="#ffffff" stop-opacity="0.0"/>
      <stop offset="1.0" stop-color="#ffffff" stop-opacity="0.61960787"/>
    </linearGradient>
    <linearGradient gradientTransform="matrix(0.0076, 0.0, 0.0, 0.0049, 2.85, 6.25)" gradientUnits="userSpaceOnUse" id="gradient2" spreadMethod="pad" x1="-819.2" x2="819.2">
      <stop offset="0.0" stop-color="#541f06"/>
      <stop offset="0.13725490196078433" stop-color="#270f03"/>
      <stop offset="0.5215686274509804" stop-color="#000000"/>
      <stop offset="0.8784313725490196" stop-color="#2e0f02"/>
      <stop offset="1.0" stop-color="#4a1e0b"/>
    </linearGradient>
  </defs>
</svg>
