<?xml version="1.0" encoding="UTF-8" standalone="no"?>
<svg xmlns:ffdec="https://www.free-decompiler.com/flash" xmlns:xlink="http://www.w3.org/1999/xlink" ffdec:objectType="frame" height="11.75px" width="15.0px" xmlns="http://www.w3.org/2000/svg">
  <g transform="matrix(1.0, 0.0, 0.0, 1.0, 2.95, 0.35)">
    <use ffdec:characterId="17" height="8.05" transform="matrix(1.0, 0.0, 0.0, 1.0, -2.95, 3.35)" width="15.0" xlink:href="#shape0"/>
    <use ffdec:characterId="15" height="9.15" id="Color" transform="matrix(1.0, 0.0, 0.0, 0.6831, -1.0, 4.85)" width="9.2" xlink:href="#sprite0"/>
    <use ffdec:characterId="18" height="6.25" transform="matrix(1.0, 0.0, 0.0, 1.0, -1.75, 4.85)" width="12.0" xlink:href="#shape2"/>
  </g>
  <defs>
    <g id="shape0" transform="matrix(1.0, 0.0, 0.0, 1.0, 2.95, -3.35)">
      <path d="M-1.75 6.35 Q-2.35 6.6 -2.95 7.0 -2.6 6.05 -1.35 5.3 L-2.9 5.25 Q1.2 4.25 5.5 4.1 10.15 3.9 12.05 4.85 L11.85 4.9 10.85 4.95 Q12.15 6.2 11.75 7.45 L11.15 7.05 Q10.9 8.05 9.65 9.05 L9.95 8.35 10.1 7.8 Q10.55 6.05 9.5 5.35 9.05 4.95 8.05 4.9 L7.3 4.85 7.25 4.85 0.9 5.5 -0.65 5.85 -0.7 5.9 -0.7 5.85 -1.75 6.3 -1.75 6.35 M6.45 10.65 L7.1 10.45 6.85 10.65 5.85 11.0 6.45 11.05 5.0 11.2 5.5 11.35 4.3 11.3 1.45 11.25 0.6 11.35 1.0 11.15 -0.5 11.0 0.3 10.95 -0.25 10.7 -0.35 10.6 -0.45 10.45 -0.2 10.6 1.05 10.9 1.2 10.9 1.3 10.9 1.5 10.95 2.95 11.1 3.0 11.1 5.3 10.9 6.45 10.65" fill="#3a2d2b" fill-rule="evenodd" stroke="none"/>
      <path d="M-1.75 6.35 L-1.75 6.3 -0.7 5.85 -0.7 5.9 Q-1.05 6.55 -1.05 7.4 L-0.65 8.95 Q-0.05 10.4 1.2 10.9 L1.05 10.9 -0.2 10.6 -0.45 10.45 -0.35 10.6 -0.4 10.55 Q-1.85 8.95 -1.75 6.35 M7.25 4.85 L7.3 4.85 8.05 4.9 9.45 5.35 Q10.5 6.05 10.05 7.8 L9.9 8.35 9.85 8.45 Q9.2 9.4 6.45 10.65 L5.3 10.9 Q7.95 9.25 8.2 7.4 8.35 6.1 7.25 4.85" fill="#ffffff" fill-rule="evenodd" stroke="none"/>
      <path d="M-1.2 4.2 Q1.15 3.35 4.8 3.4" fill="none" stroke="#3a2d2b" stroke-linecap="round" stroke-linejoin="round" stroke-width="0.15000000000000002"/>
    </g>
    <g id="sprite0" transform="matrix(1.0, 0.0, 0.0, 1.0, 0.0, 0.0)">
      <use ffdec:characterId="14" height="9.15" transform="matrix(1.0, 0.0, 0.0, 1.0, 0.0, 0.0)" width="9.2" xlink:href="#shape1"/>
    </g>
    <g id="shape1" transform="matrix(1.0, 0.0, 0.0, 1.0, 0.0, 0.0)">
      <path d="M9.2 3.75 Q8.95 6.45 6.3 8.9 L4.0 9.15 3.95 9.15 2.5 8.95 Q1.1 8.3 0.4 6.05 0.05 4.85 0.0 3.75 0.0 2.6 0.35 1.5 L1.9 0.95 Q6.0 -0.1 8.25 0.0 9.35 1.85 9.2 3.75" fill="#c94200" fill-rule="evenodd" stroke="none"/>
    </g>
    <g id="shape2" transform="matrix(1.0, 0.0, 0.0, 1.0, 1.75, -4.85)">
      <path d="M5.3 10.95 L3.0 11.1 1.55 10.95 Q0.1 10.55 -0.6 8.95 -1.35 7.35 -0.65 5.85 L0.9 5.5 7.3 4.85 Q9.95 7.95 5.3 10.95" fill="url(#gradient0)" fill-rule="evenodd" stroke="none"/>
      <path d="M4.75 8.1 Q4.75 8.7 4.3 9.1 3.85 9.55 3.2 9.55 2.55 9.55 2.1 9.1 1.65 8.7 1.65 8.1 1.65 7.45 2.1 7.0 L2.15 7.0 2.15 6.95 2.2 6.95 2.2 6.9 2.15 6.9 2.05 6.95 -1.0 7.4 -0.65 5.85 0.9 5.5 7.3 4.85 Q8.4 6.15 8.25 7.4 L4.35 6.85 4.05 6.85 4.3 7.0 Q4.75 7.45 4.75 8.1" fill="#000000" fill-opacity="0.49803922" fill-rule="evenodd" stroke="none"/>
      <path d="M4.75 8.1 Q4.75 8.7 4.3 9.1 3.85 9.55 3.2 9.55 2.55 9.55 2.1 9.1 1.65 8.7 1.65 8.1 1.65 7.45 2.1 7.0 L2.15 7.0 2.15 6.95 2.2 6.95 2.2 6.9 2.15 6.9 2.05 6.95 -1.0 7.4 -0.65 5.85 0.9 5.5 7.3 4.85 Q8.4 6.15 8.25 7.4 L4.35 6.85 4.05 6.85 4.3 7.0 Q4.75 7.45 4.75 8.1" fill="url(#gradient1)" fill-rule="evenodd" stroke="none"/>
      <path d="M2.2 5.55 Q2.7 5.75 2.7 6.3 2.7 6.8 2.2 7.3 L1.05 7.95 -0.15 7.85 Q-0.65 7.65 -0.65 7.1 -0.75 6.55 -0.25 6.1 0.25 5.6 1.0 5.5 L2.2 5.55 M4.6 9.4 Q4.6 9.05 4.9 8.95 L5.6 8.85 6.35 9.25 6.6 9.85 6.3 10.3 5.6 10.35 Q5.2 10.25 4.9 9.95 4.6 9.65 4.6 9.4" fill="#ffffff" fill-rule="evenodd" stroke="none"/>
      <path d="M3.7 5.8 L4.15 5.7 4.45 5.8 4.55 6.1 4.3 6.35 3.9 6.35 3.5 6.25 3.45 6.0 Q3.5 5.85 3.7 5.8" fill="#ffffff" fill-opacity="0.6" fill-rule="evenodd" stroke="none"/>
      <path d="M9.5 5.35 Q10.4 5.95 10.2 7.2 9.25 6.8 8.2 6.55 3.2 5.3 -1.0 6.7 L-1.75 6.95 -1.7 6.3 -0.65 5.85 0.9 5.5 7.3 4.85 Q8.9 4.85 9.5 5.35" fill="#000000" fill-opacity="0.29803923" fill-rule="evenodd" stroke="none"/>
    </g>
    <linearGradient gradientTransform="matrix(0.0, -0.0038, -0.0056, 0.0, 3.65, 8.0)" gradientUnits="userSpaceOnUse" id="gradient0" spreadMethod="pad" x1="-819.2" x2="819.2">
      <stop offset="0.15294117647058825" stop-color="#000000" stop-opacity="0.49803922"/>
      <stop offset="1.0" stop-color="#000000" stop-opacity="0.0"/>
    </linearGradient>
    <linearGradient gradientTransform="matrix(0.0, -0.0029, -0.0056, 0.0, 3.65, 7.2)" gradientUnits="userSpaceOnUse" id="gradient1" spreadMethod="pad" x1="-819.2" x2="819.2">
      <stop offset="0.5529411764705883" stop-color="#000000" stop-opacity="0.0"/>
      <stop offset="1.0" stop-color="#000000" stop-opacity="0.49803922"/>
    </linearGradient>
  </defs>
</svg>
