<svg xmlns="http://www.w3.org/2000/svg" xmlns:ffdec="https://www.free-decompiler.com/flash" xmlns:xlink="http://www.w3.org/1999/xlink" ffdec:objectType="frame" width="12.5" height="12.85"><g transform="translate(-1.3 1.05)"><use ffdec:characterId="11" xlink:href="#a" width="11" height="10.95" transform="translate(2.7 .8)"/><use ffdec:characterId="3" xlink:href="#b" width="8.4" height="12.1" transform="matrix(-1 0 0 .9559 12.6 .173)"/><use ffdec:characterId="12" xlink:href="#c" width="11.95" height="11.5" transform="translate(1.85 -.45)"/><use ffdec:characterId="13" xlink:href="#d" width="2.65" height="1.6" transform="translate(10.85 -1.05)"/></g><defs><g id="a" fill-rule="evenodd"><path fill="#fff" d="m10.2.95.45 1.4.15 2.25q.05 3.9-1.35 4.9L8 10.5l-1.6.4-1.15.05-1.9-.2-1.25-.4-1.2-.6-.45-.5.05-.1Q.25 8.55.15 7.6 0 7.55 0 7.15V5.3q0-1.35.7-2.35l1.6-1.5.15-.15v.1l.2-.15.9-.65Q4.15.25 4.9.2h.15l2.3-.2h.15l1.15.15.3-.05q.35-.05.35.25l.15.1z"/><path fill="url(#e)" d="m12.35 1.25.75.5.45 1.4.15 2.1-.4-.15-3.95-.6q-1.6 0-4.25.7l-2.2.65q.05-1.2.7-2.1l1.6-1.5.15-.15v.1l.2-.15.9-.65q.6-.35 1.35-.4h.15l2.3-.2h.15l1.15.15.3-.05q.35-.05.35.25z" transform="translate(-2.7 -.8)"/></g><g id="f" fill-rule="evenodd"><path fill="#433838" d="m7.45 1.9.45.5.25.65.2 1.65v1.8l-.3 2.15-.75 2q-.8 1.45-3.05 1.45-2.05 0-3.05-1.4l-.25-.4Q0 8.75 0 6.45 0 2.5 1.05.9 1.6.2 2.5.2l1.65.15q2.2 0 3.3 1.55"/><path fill="#553174" d="m7.2 1.75.4.45.3.6.15 1.65V6.2l-.3 2.1-.7 1.95q-.7 1.4-2.8 1.4-1.85 0-2.8-1.3l-.2-.4q-.9-1.5-.9-3.8 0-3.85 1-5.4.5-.75 1.3-.75L4.2.2q2 0 3 1.55"/><path fill="#b89bdb" d="M7.05 10.25q-.7 1.4-2.8 1.4-1.85 0-2.8-1.3l-.2-.4-.5-1.1H.9l3.55.45q1.65 0 3.25-.75z"/></g><g id="c" fill-rule="evenodd"><path fill="#433838" d="m6.65 0 1.5.15q1.2.2 2.3.85l.1.05v.05l.1.1.1.1.4.3.8.4h-.75l.35.95.15.7.05.1q-.65-.95-1.9-1.7t-2.1-.75q-2.45 0-4.6 2.15Q.9 5.65.9 8.35v.05l.65 3.05v.05l-.05-.05-.85-1.4-.2-.3-.45-.9Q0 5.45 1.65 3q1.75-2.7 5-3"/><path fill="#fff" d="m8.55 9.45.9-.15h.3l.65.15.35.45-.35.4-.65.2h-.3l-.9-.2-.4-.4q0-.25.4-.45"/></g><linearGradient id="e" x1="-819.2" x2="819.2" gradientTransform="matrix(-.0066 0 0 .0031 8.3 3.3)" gradientUnits="userSpaceOnUse" spreadMethod="pad"><stop offset="0" stop-opacity=".149"/><stop offset="1" stop-color="#fff"/></linearGradient><path id="d" fill="#433838" fill-rule="evenodd" d="M11.55-1.05q.95.4 1.5.8l.45.8Q11.95-.85 10.85-1v-.05z" transform="translate(-10.85 1.05)"/><use ffdec:characterId="2" xlink:href="#f" id="b" width="8.4" height="12.1"/></defs></svg>