<?xml version="1.0" encoding="UTF-8" standalone="no"?>
<svg xmlns:ffdec="https://www.free-decompiler.com/flash" xmlns:xlink="http://www.w3.org/1999/xlink" ffdec:objectType="frame" height="11.25px" width="12.35px" xmlns="http://www.w3.org/2000/svg">
  <g transform="matrix(1.0, 0.0, 0.0, 1.0, -2.85, -0.1)">
    <use ffdec:characterId="4" height="7.5" transform="matrix(1.0, 0.0, 0.0, 1.0, 3.3, 3.85)" width="11.9" xlink:href="#shape0"/>
  </g>
  <defs>
    <g id="shape0" transform="matrix(1.0, 0.0, 0.0, 1.0, -3.3, -3.85)">
      <path d="M8.15 10.8 L8.55 10.85 8.85 10.85 8.15 10.8 M10.6 10.8 L10.5 10.8 9.9 10.85 10.1 10.85 10.6 10.8 M12.4 10.4 L10.95 10.75 11.75 10.6 12.6 10.35 13.1 10.05 12.4 10.4 M13.45 7.55 L13.4 7.5 13.3 7.35 Q13.3 7.15 13.7 7.15 13.95 7.15 14.1 7.45 L14.2 7.95 14.2 8.05 14.35 7.85 14.45 7.9 14.45 8.15 14.3 8.35 13.9 9.45 13.65 9.8 13.65 9.85 Q12.75 10.95 10.15 11.05 L8.5 11.05 Q6.35 10.75 5.15 9.55 4.1 8.5 4.1 7.3 L4.25 7.15 4.45 7.75 5.05 6.6 5.4 6.15 Q5.85 5.75 6.3 5.75 6.65 5.75 6.65 5.95 6.65 6.2 6.0 6.45 L5.85 6.75 5.85 7.15 5.8 7.85 5.6 8.2 6.3 9.3 6.4 9.45 6.5 9.45 Q7.85 10.35 10.0 10.35 L11.2 10.15 12.9 9.05 13.3 7.95 13.45 7.55" fill="#ffffff" fill-opacity="0.7058824" fill-rule="evenodd" stroke="none"/>
      <path d="M13.55 7.85 Q13.55 8.75 12.85 9.5 11.8 10.7 9.7 10.7 L6.8 10.15 Q5.95 9.7 5.65 9.05 5.35 8.4 5.4 7.9 L5.6 6.9 Q5.7 6.45 6.45 5.65 7.35 4.9 9.5 4.9 11.9 4.9 12.9 6.15 13.55 6.85 13.55 7.85" fill="#333333" fill-rule="evenodd" stroke="none"/>
      <path d="M7.5 7.05 Q8.3 6.5 9.35 6.5 10.4 6.5 11.2 7.05 11.95 7.55 11.95 8.25 11.95 8.95 11.2 9.45 L9.35 9.95 Q8.3 9.95 7.5 9.45 6.75 8.95 6.75 8.25 6.75 7.55 7.5 7.05" fill="url(#gradient0)" fill-rule="evenodd" stroke="none"/>
      <path d="M12.15 8.25 L11.45 9.45 Q10.9 10.1 9.5 10.2 L7.55 9.9 Q6.9 9.5 6.75 8.85 L6.65 7.75 7.1 6.95 Q7.0 7.15 7.05 7.85 L7.25 8.7 7.55 9.15 8.1 9.55 8.9 9.75 9.7 9.65 9.8 9.65 10.5 9.45 Q11.55 8.95 11.75 8.1 L11.9 7.25 11.9 7.15 Q12.25 7.65 12.15 8.25" fill="#666666" fill-rule="evenodd" stroke="none"/>
      <path d="M11.35 7.5 L11.45 7.75 Q11.45 8.2 10.9 8.2 L10.3 8.05 Q10.05 7.8 10.15 7.55 10.3 7.35 10.75 7.35 L11.35 7.5 M9.65 9.05 Q9.75 9.9 8.3 9.95 6.8 10.05 6.8 8.95 6.8 8.25 7.9 7.95 L8.65 7.95 Q9.6 8.15 9.65 9.05" fill="#ffe39c" fill-opacity="0.12156863" fill-rule="evenodd" stroke="none"/>
      <path d="M11.5 9.25 L11.45 9.4 11.05 9.4 10.9 9.25 10.9 9.05 11.5 9.25 M12.25 8.85 L11.9 8.95 Q11.45 8.95 11.45 8.65 11.45 8.4 12.05 8.4 L12.4 8.65 12.25 8.85 M7.6 8.9 L7.3 8.95 Q6.6 8.85 6.35 8.5 L6.05 7.95 Q6.05 7.75 6.35 7.45 6.55 7.2 7.1 7.1 L7.6 7.1 8.35 7.45 8.65 8.2 Q8.6 8.65 7.6 8.9 M9.35 9.5 Q9.35 8.95 9.9 9.05 10.45 9.15 10.45 9.6 10.45 9.95 9.95 9.95 9.35 9.95 9.35 9.5" fill="#ffffff" fill-rule="evenodd" stroke="none"/>
      <path d="M13.2 6.25 Q14.4 7.25 14.4 8.1 L14.25 8.7 14.1 8.6 Q14.05 8.2 12.65 7.4 11.3 6.55 9.15 6.45 7.0 6.35 5.5 7.5 4.5 8.25 4.4 8.65 L4.25 8.45 4.05 8.05 4.0 7.95 3.95 7.45 Q3.95 6.6 5.05 5.85 6.45 4.95 8.85 4.95 11.55 4.95 13.2 6.25" fill="#2c0900" fill-opacity="0.23921569" fill-rule="evenodd" stroke="none"/>
      <path d="M11.05 4.05 L11.55 4.1 Q14.3 4.45 15.05 6.2 L14.65 5.85 Q13.3 4.6 10.7 4.25 L9.2 4.1 6.35 4.25 7.0 3.95 8.85 3.85 11.0 4.05 11.05 4.05" fill="#5d2900" fill-opacity="0.29803923" fill-rule="evenodd" stroke="none"/>
      <path d="M12.3 10.75 Q12.6 10.8 12.6 10.95 L12.55 11.05 11.85 10.85 11.35 10.95 10.85 11.05 10.9 11.15 10.8 11.35 10.35 11.1 9.1 11.2 8.2 11.1 7.7 11.35 7.6 11.35 7.5 11.15 7.6 11.0 7.0 10.8 6.95 10.8 6.85 10.85 6.35 10.9 6.2 10.95 6.0 10.85 Q6.0 10.65 6.45 10.6 L5.8 10.2 5.8 10.15 5.95 10.1 Q6.1 10.1 6.85 10.45 7.85 10.85 9.15 10.85 L11.55 10.55 12.95 10.25 13.15 10.35 12.3 10.75 M12.3 5.1 L13.7 5.9 14.6 6.75 15.2 7.45 Q14.75 7.7 14.4 8.3 L14.3 8.55 14.25 8.45 12.95 6.85 Q12.0 5.95 10.85 5.65 L8.1 5.45 Q6.5 5.5 5.65 6.25 4.8 6.95 4.55 7.6 4.35 8.2 4.45 8.45 L4.45 8.7 3.5 6.7 3.35 5.65 3.3 5.4 4.05 5.45 4.95 5.3 6.25 4.95 8.35 4.55 9.7 4.55 10.1 4.6 12.3 5.1" fill="#200900" fill-rule="evenodd" stroke="none"/>
    </g>
    <radialGradient cx="0" cy="0" gradientTransform="matrix(-0.0041, 0.0, 0.0, 0.0028, 9.35, 8.25)" gradientUnits="userSpaceOnUse" id="gradient0" r="819.2" spreadMethod="pad">
      <stop offset="0.0" stop-color="#ffffff" stop-opacity="0.30980393"/>
      <stop offset="0.7372549019607844" stop-color="#ffffff" stop-opacity="0.0"/>
    </radialGradient>
  </defs>
</svg>
