<svg xmlns="http://www.w3.org/2000/svg" xmlns:ffdec="https://www.free-decompiler.com/flash" xmlns:xlink="http://www.w3.org/1999/xlink" ffdec:objectType="frame" width="12.35" height="11.25"><use ffdec:characterId="5" xlink:href="#a" width="11.9" height="11.25" transform="translate(.45)"/><defs><radialGradient id="b" cx="0" cy="0" r="819.2" gradientTransform="matrix(-.0041 0 0 .0041 9.35 6.65)" gradientUnits="userSpaceOnUse" spreadMethod="pad"><stop offset="0" stop-color="#fff" stop-opacity=".306"/><stop offset=".737" stop-color="#fff" stop-opacity="0"/></radialGradient><g id="a" fill-rule="evenodd"><path fill="#fff" fill-opacity=".706" d="m8.45 10.1.85-.35.5-.5-.7.55-1.45.55zm-1.15.3h-.1l-.75.05H5.7l-.85-.05.4.1H6.8zm2.85-4.9-.05-.05-.1-.2q0-.35.4-.35l.4.5.1.7v.15l.15-.25.1.05v.4L11 6.7l-.4 1.7-.25.5V9q-.9 1.65-3.5 1.75H5.2q-2.15-.4-3.35-2.25Q.8 6.95.8 5.15l.15-.2.2.9.6-1.75.35-.65q.45-.65.9-.65.35 0 .35.3l-.65.8-.15.45v.55L2.5 5.95l-.2.55q.2.9.7 1.65l.1.2.1.05q1.35 1.3 3.5 1.3l1.2-.3q1.05-.7 1.7-1.65l.4-1.6z"/><path fill="#333" d="M9.6 3.4q.65 1.1.65 2.6 0 1.3-.7 2.45-1.05 1.8-3.15 1.8-2.05-.05-2.9-.8-.85-.7-1.15-1.65-.3-1-.25-1.75l.2-1.5q.1-.7.85-1.85.9-1.15 3.05-1.15 2.4 0 3.4 1.85"/><path fill="url(#b)" d="M7.5 4.85q.8-.8 1.85-.8t1.85.8q.75.75.75 1.8T11.2 8.5q-.8.75-1.85.75T7.5 8.5q-.75-.8-.75-1.85t.75-1.8" transform="translate(-3.3 -.1)"/><path fill="#666" d="M8.6 4.95q.35.7.25 1.6t-.7 1.85q-.55.95-1.95 1.1-1.3.1-1.95-.45-.65-.6-.8-1.55l-.1-1.65q.1-.7.45-1.2-.1.3-.05 1.3l.2 1.3.3.7.55.6.8.25.8-.15h.1l.7-.3q1.05-.7 1.25-2l.15-1.3z"/><path fill="#ffe39c" fill-opacity=".118" d="m8.05 5.45.1.4q0 .65-.55.65L7 6.25q-.25-.35-.15-.7.15-.3.6-.3.4-.1.6.2M6.35 7.8Q6.45 9.05 5 9.15q-1.5.1-1.5-1.5 0-1.05 1.1-1.5h.75q.95.3 1 1.65"/><path fill="#fff" d="M8.6 7.6q-.45 0-.45-.45 0-.35.6-.35.35 0 .35.35l-.15.3zm-1 .5v-.35q.6 0 .6.35l-.05.2h-.4zM4.3 4.85q.4.15.75.55l.3 1.1q-.05.65-1.05 1.05L4 7.6q-.7-.1-.95-.65l-.3-.85.3-.7q.2-.4.75-.55zM6.6 7.8q.55.15.55.8 0 .55-.5.55-.6 0-.6-.7 0-.8.55-.65"/><path fill="#2c0900" fill-opacity=".239" d="M9.9 3.55q1.2 1.5 1.2 2.8l-.15.9-.15-.15q-.05-.6-1.45-1.8Q8 4.05 5.85 3.9T2.2 5.45q-1 1.15-1.1 1.7l-.15-.3-.2-.55-.05-.15-.05-.75q0-1.3 1.1-2.4 1.4-1.4 3.8-1.4 2.7 0 4.35 1.95"/><path fill="#5d2900" fill-opacity=".298" d="m11.75 3.5-.4-.5Q10 1.1 7.4.55L5.9.35l-2.85.2.65-.4L5.55 0 7.7.25h.05l.5.1Q11 .9 11.75 3.5"/><path fill="#200900" d="M9.25 10.8q-.3 0-.7-.35l-.5.15-.5.15.05.2-.1.3-.45-.4L5.8 11l-.9-.15-.5.4-.1-.05-.1-.3.1-.2-.6-.3h-.05l-.1.05-.5.1-.15.05-.2-.1q0-.3.45-.4l-.65-.6v-.05q0-.1.15-.1l.9.55q1 .55 2.3.55l2.4-.4 1.4-.45.2.1-.85.6.3.3zm1.15-7.75.9 1.3.6 1.05q-.45.35-.8 1.25L11 7l-.05-.1q-.3-1.05-1.3-2.4-.95-1.4-2.1-1.8L4.8 2.35q-1.6.1-2.45 1.2T1.25 5.6q-.2.9-.1 1.3v.35l-.95-3-.15-1.6L0 2.3l.75.05.9-.2 1.3-.55q.9-.45 2.1-.55H6.4l.4.05q1.35.3 2.2.75z"/></g></defs></svg>