<svg xmlns="http://www.w3.org/2000/svg" xmlns:ffdec="https://www.free-decompiler.com/flash" xmlns:xlink="http://www.w3.org/1999/xlink" ffdec:objectType="frame" width="12.85" height="10.45"><use ffdec:characterId="13" xlink:href="#a" width="12.85" height="7.9" transform="translate(0 2.55)"/><defs><linearGradient id="b" x1="-819.2" x2="819.2" gradientTransform="matrix(-.0002 .0047 -.0068 -.0002 3.1 7.85)" gradientUnits="userSpaceOnUse" spreadMethod="pad"><stop offset=".227" stop-opacity=".502"/><stop offset=".698" stop-opacity="0"/></linearGradient><g id="a" fill-rule="evenodd"><path fill="#fff" d="M9.25 1.8q.6 0 1.4.85l.7 1Q8.9 7.05 8.4 7.15h-.5l-.05-.1q1.35-1.9 1.35-3.6L9 2.8l-.2-.7q0-.3.45-.3M3.9 7.15l-.45.3q-1.05 0-2-1.55Q.7 4.6.7 4.05l.2-.6Q1.2 3 1.8 3q.35 0 .65 2.25l.8 1z"/><path fill="#325903" d="m2.9 2.7.1-.1.25-.25.7-.3 1-.3 1.1-.15 1.05.1.6.2.8.6.4.8v.3l-.1.75-.05.3-.25.65q-.75 1.85-2.45 1.85l-.2.05-1.7-.25H4.1l-.6-.55-.2-.2-.25-.4-.3-.6-.2-1.3.05-.75.15-.3z"/><path fill="url(#b)" d="M5.6 4.45q.8.15.9.7l.2 1.95-.85 2q-.5 1.65-2.55 1.65l-1.35-.2-.95-.4-.4-.45-.8-.5q-.35-.6-.35-2.45l.05-.95.15-.5.45-.4.4-.45.2-.1.65-.2 1.9-.2.7.05z" transform="translate(2.65 -3)"/><path fill-opacity=".451" d="M5.75 4.95Q5 4.9 5.05 4.4t.7-.5q.6.05.7.5 0 .6-.7.55"/><path fill-opacity=".122" d="M7.2 3.1q.6.35.55 1.25-.1.9-.65 1.4-.6.5-1.4.55-.85 0-1.45-.5-.7-.5-.75-1.25-.05-.85.6-1.35.7-.55 1.55-.55t1.55.45M5.75 4.95q.7.05.7-.55-.1-.45-.7-.5-.65 0-.7.5t.7.55"/><path fill-opacity=".2" d="m10.2 2.7.4.3.35.2.15.3q.45-.05.45.45 0 .4-.45.4l-.7.7h-.15q-.5-.5-.9-.5l-.25-.2V4.2l.4-.1-.65-1.55q0-.35.4-.5.45-.1.7.5zM2.1 4.05l.1.35v.2l-.55.25-.5.45-.35-.65-.15-.6L1 3.6l1-.25q.25 0 .25.25z"/><path fill-opacity=".298" d="M4.75 0h1l1.2.15L6.9.2H4.2q-1.35.1-2.7.95l-1.5.7.3-.25.7-.65.55-.35Q2.25.2 2.9.1L4.35 0z"/><path fill="#333" d="m9.5 2.55-.4-.25.35.95.05.35v.1l-.15 1.2-.15.4-.15.4-.25.4-.75.8.05.15h.1l.35-.1.3-.1-.1.15-.15.25-.55.3-.55.1-.5.15-1.25.1-1.25-.1-.95-.15-.2-.05-.45-.15-.35-.3-.15-.05h.25l.25-.15-.1-.1-.3-.55-.2-.35V5.9h-.05l-.05-.15-.35-1.05-.05-.2v-.9l.05-.1-.1.1-.25.15q-.15.05-.3.2l-.5.4-.3.2.1-.35.1-.75.25-.55-.5.5-.2.35L.1 3.6l.25-.55.5-.9Q3.2.7 5.4.65q3.15-.1 4.95 1.05 1.05.6 1.4 1.25l.05-.05 1.05 1.35-.95-.35-.4.4-.6.6-.85.75-.55.45.85-1.2.35-.7.1-.45q0-.3-1.35-1.25zm-6.6.15-.15.15-.15.3-.05.75.2 1.3.3.6.25.4.2.2.6.55h.05l1.7.25.2-.05q1.7 0 2.45-1.85l.25-.65.05-.3.1-.75v-.3l-.4-.8-.8-.6-.6-.2-1.05-.1-1.1.15-1 .3-.7.3L3 2.6z"/><path fill="#fff" fill-opacity=".988" d="m8.75 3.05.25.4q0 .45-.6.6h-.6q-.85-.15-.85-.6 0-.3.3-.45L8 2.8zM4.7 5.65l-1.05.75-1.35.1q-.3-.4.4-.7.65-.35 1.3-.35.65-.05.7.2m-.3 1.2.5-.45q.35-.2.4 0v.45L5 7.3l-.55-.05q-.25-.15-.05-.4"/></g></defs></svg>