<?xml version="1.0" encoding="UTF-8" standalone="no"?>
<svg xmlns:ffdec="https://www.free-decompiler.com/flash" xmlns:xlink="http://www.w3.org/1999/xlink" ffdec:objectType="frame" height="10.45px" width="12.85px" xmlns="http://www.w3.org/2000/svg">
  <g transform="matrix(1.0, 0.0, 0.0, 1.0, 2.65, -0.45)">
    <use ffdec:characterId="10" height="7.45" transform="matrix(1.0, 0.0, 0.0, 1.0, -1.95, 2.85)" width="10.65" xlink:href="#shape0"/>
    <use ffdec:characterId="11" height="7.4" id="Color" transform="matrix(1.0, 0.0, 0.0, 1.0, -0.1, 2.6)" width="6.35" xlink:href="#sprite0"/>
    <use ffdec:characterId="16" height="10.45" transform="matrix(1.0, 0.0, 0.0, 1.0, -2.65, 0.45)" width="12.85" xlink:href="#shape2"/>
  </g>
  <defs>
    <g id="shape0" transform="matrix(1.0, 0.0, 0.0, 1.0, 1.95, -2.85)">
      <path d="M6.35 4.15 L6.15 3.25 Q6.15 2.85 6.6 2.85 7.2 2.85 8.0 3.95 L8.7 5.3 Q6.25 9.8 5.75 9.95 L5.25 9.95 5.2 9.8 Q6.55 7.25 6.55 5.0 L6.35 4.15 M0.8 10.3 Q-0.25 10.3 -1.2 8.25 -1.95 6.55 -1.95 5.8 L-1.75 5.0 Q-1.45 4.4 -0.85 4.4 -0.5 4.4 -0.2 7.4 L0.6 8.75 1.25 9.9 Q1.25 10.3 0.8 10.3" fill="#ffffff" fill-rule="evenodd" stroke="none"/>
    </g>
    <g id="sprite0" transform="matrix(1.0, 0.0, 0.0, 1.0, 0.0, 0.0)">
      <use ffdec:characterId="2" height="7.4" transform="matrix(1.0, 0.0, 0.0, 1.0, 0.0, 0.0)" width="6.35" xlink:href="#shape1"/>
    </g>
    <g id="shape1" transform="matrix(1.0, 0.0, 0.0, 1.0, 0.0, 0.0)">
      <path d="M6.35 2.65 L6.25 3.65 6.2 4.0 5.95 4.9 Q5.2 7.35 3.5 7.35 L3.3 7.4 1.6 7.05 1.55 7.05 0.95 6.35 0.75 6.05 0.5 5.55 0.2 4.75 0.0 3.05 0.05 2.0 0.2 1.65 0.35 1.45 0.45 1.3 0.7 1.0 1.4 0.55 2.4 0.15 3.5 0.0 4.55 0.1 5.15 0.35 5.95 1.15 6.35 2.2 6.35 2.65" fill="#325903" fill-rule="evenodd" stroke="none"/>
    </g>
    <g id="shape2" transform="matrix(1.0, 0.0, 0.0, 1.0, 2.65, -0.45)">
      <path d="M6.5 3.3 L6.7 5.9 5.85 8.55 Q5.35 10.7 3.3 10.7 L1.95 10.45 Q1.3 10.25 1.0 9.95 L0.6 9.3 -0.2 8.65 Q-0.55 7.9 -0.55 5.45 L-0.5 4.15 -0.35 3.5 0.1 2.95 0.5 2.4 0.7 2.25 1.35 2.0 3.25 1.75 3.95 1.8 5.6 2.35 Q6.4 2.55 6.5 3.3" fill="url(#gradient0)" fill-rule="evenodd" stroke="none"/>
      <path d="M2.4 6.3 Q2.45 5.6 3.1 5.65 3.7 5.7 3.8 6.3 3.8 7.05 3.1 7.0 2.35 6.95 2.4 6.3" fill="#000000" fill-opacity="0.4509804" fill-rule="evenodd" stroke="none"/>
      <path d="M3.0 4.0 Q3.85 4.0 4.55 4.55 5.15 5.05 5.1 6.25 5.0 7.4 4.45 8.1 3.85 8.75 3.05 8.8 2.2 8.8 1.6 8.15 0.9 7.5 0.85 6.5 0.8 5.35 1.45 4.7 2.15 4.0 3.0 4.0 M2.4 6.3 Q2.35 6.95 3.1 7.0 3.8 7.05 3.8 6.3 3.7 5.7 3.1 5.65 2.45 5.6 2.4 6.3" fill="#000000" fill-opacity="0.12156863" fill-rule="evenodd" stroke="none"/>
      <path d="M7.55 4.05 L7.95 4.4 8.3 4.7 8.45 5.1 Q8.9 5.05 8.9 5.7 8.9 6.2 8.45 6.25 8.45 6.6 7.75 7.15 L7.6 7.15 Q7.1 6.5 6.7 6.45 L6.45 6.25 6.45 6.05 6.85 5.9 6.2 3.85 Q6.2 3.35 6.6 3.2 7.05 3.05 7.3 3.85 L7.55 4.05 M-0.55 5.8 L-0.45 6.3 -0.45 6.55 -1.0 6.85 -1.5 7.45 -1.85 6.6 -2.0 5.85 -1.65 5.25 Q-1.25 4.9 -0.65 4.9 -0.4 4.9 -0.4 5.2 L-0.55 5.8" fill="#000000" fill-opacity="0.2" fill-rule="evenodd" stroke="none"/>
      <path d="M4.25 0.75 L2.05 0.7 1.55 0.75 Q0.2 0.85 -1.15 2.0 L-2.65 2.9 -2.35 2.55 -1.65 1.7 -1.1 1.25 Q-0.4 0.75 0.25 0.6 L1.7 0.45 2.1 0.45 3.1 0.45 4.3 0.65 4.25 0.75" fill="#000000" fill-opacity="0.29803923" fill-rule="evenodd" stroke="none"/>
      <path d="M6.25 4.8 L5.85 3.75 5.05 2.95 4.45 2.7 3.4 2.6 2.3 2.75 1.3 3.15 Q0.75 3.4 0.6 3.6 L0.35 3.9 0.25 4.05 0.1 4.25 -0.05 4.6 -0.1 5.65 0.1 7.35 0.4 8.15 0.65 8.65 0.85 8.95 1.45 9.65 1.5 9.65 3.2 10.0 3.4 9.95 Q5.1 9.95 5.85 7.5 L6.1 6.6 6.15 6.25 6.25 5.25 6.25 4.8 M6.85 3.85 L6.45 3.5 6.8 4.75 6.85 5.2 6.85 5.35 6.7 6.95 6.55 7.5 6.4 8.0 6.15 8.5 5.4 9.6 5.45 9.8 5.55 9.8 5.9 9.65 6.2 9.5 6.1 9.7 5.95 10.05 5.4 10.45 4.85 10.6 4.35 10.75 3.1 10.9 1.85 10.8 0.9 10.6 0.7 10.5 0.25 10.3 -0.1 9.95 -0.25 9.85 0.0 9.85 0.25 9.65 0.15 9.5 -0.15 8.8 -0.35 8.35 -0.35 8.3 -0.4 8.25 -0.45 8.05 -0.8 6.7 -0.85 6.4 -0.85 5.8 -0.85 5.6 -0.85 5.5 -0.85 5.25 -0.75 4.95 -0.9 5.2 -1.15 5.4 -1.45 5.7 -1.95 6.2 -2.25 6.5 -2.15 6.05 -2.05 5.05 -1.8 4.3 -2.3 4.95 -2.5 5.45 -2.55 5.2 -2.3 4.5 -1.8 3.3 Q0.55 1.4 2.75 1.3 5.9 1.2 7.7 2.7 8.75 3.5 9.1 4.35 L9.15 4.3 10.2 6.1 9.25 5.6 8.85 6.15 8.25 6.95 7.4 7.95 6.85 8.5 7.7 6.95 8.05 6.05 8.15 5.4 Q8.15 5.0 6.8 3.75 L6.85 3.85" fill="#333333" fill-rule="evenodd" stroke="none"/>
      <path d="M5.15 5.85 Q4.3 5.6 4.3 5.0 4.3 4.65 4.6 4.4 4.85 4.15 5.35 4.15 5.85 4.15 6.1 4.5 L6.35 5.05 Q6.35 5.65 5.75 5.85 L5.15 5.85 M1.35 7.65 Q2.0 7.6 2.05 7.95 L1.0 8.9 -0.35 9.05 Q-0.65 8.55 0.05 8.15 L1.35 7.65 M1.8 10.05 Q1.55 9.85 1.75 9.5 1.85 9.15 2.25 8.9 L2.65 8.95 2.65 9.55 2.35 10.1 1.8 10.05" fill="#ffffff" fill-opacity="0.9882353" fill-rule="evenodd" stroke="none"/>
    </g>
    <linearGradient gradientTransform="matrix(-2.0E-4, 0.0062, -0.0068, -2.0E-4, 3.1, 6.9)" gradientUnits="userSpaceOnUse" id="gradient0" spreadMethod="pad" x1="-819.2" x2="819.2">
      <stop offset="0.22745098039215686" stop-color="#000000" stop-opacity="0.5019608"/>
      <stop offset="0.6980392156862745" stop-color="#000000" stop-opacity="0.0"/>
    </linearGradient>
  </defs>
</svg>
