<?xml version="1.0" encoding="UTF-8" standalone="no"?>
<svg xmlns:ffdec="https://www.free-decompiler.com/flash" xmlns:xlink="http://www.w3.org/1999/xlink" ffdec:objectType="frame" height="17.25px" width="21.4px" xmlns="http://www.w3.org/2000/svg">
  <g transform="matrix(1.0, 0.0, 0.0, 1.0, 0.65, 0.1)">
    <use ffdec:characterId="1" height="17.25" transform="matrix(1.0, 0.0, 0.0, 1.0, -0.65, -0.1)" width="21.4" xlink:href="#shape0"/>
  </g>
  <defs>
    <g id="shape0" transform="matrix(1.0, 0.0, 0.0, 1.0, 0.65, 0.1)">
      <path d="M3.8 1.95 L5.95 1.95 6.95 1.95 9.45 1.95 9.45 9.7 9.1 10.0 Q8.95 10.1 8.9 12.8 L8.95 16.5 7.45 16.85 Q7.8 16.25 7.75 14.35 7.7 11.25 8.25 8.5 6.7 14.8 4.85 17.0 L4.8 17.0 4.05 17.0 Q2.2 15.8 0.7 10.0 L1.6 16.75 0.45 16.5 -0.5 6.8 1.45 5.45 Q3.05 4.05 3.8 1.95 M13.15 1.95 L13.95 1.95 16.7 1.95 16.95 2.8 Q18.0 5.9 20.5 7.1 L20.0 11.75 19.5 16.1 19.5 11.25 Q19.25 14.4 17.15 17.05 L15.3 17.15 Q13.7 15.5 11.9 10.0 L13.25 17.0 11.2 16.5 Q11.3 10.6 11.0 10.0 L10.65 9.7 10.55 1.95 13.15 1.95 M3.1 15.45 Q4.65 17.2 6.4 13.2 4.85 14.65 3.1 14.25 L2.4 13.75 3.1 15.45 M15.75 14.95 Q14.4 14.4 13.35 13.2 L14.8 15.45 Q16.95 18.1 18.0 14.5 17.1 15.5 15.75 14.95" fill="#0b385f" fill-rule="evenodd" stroke="none"/>
      <path d="M4.35 -0.1 L5.95 -0.1 5.95 1.95 3.8 1.95 Q3.05 4.05 1.45 5.45 L-0.5 6.8 -0.65 4.65 -0.55 1.95 0.65 1.95 1.0 -0.1 4.35 -0.1 M9.45 -0.1 L10.55 -0.1 13.15 -0.1 13.15 1.95 10.55 1.95 10.65 9.7 9.95 9.6 9.45 9.7 9.45 1.95 6.95 1.95 6.95 -0.1 9.45 -0.1 M16.35 -0.05 L19.2 -0.05 19.55 1.95 20.6 1.95 Q20.9 3.85 20.5 7.1 18.0 5.9 16.95 2.8 L16.7 1.95 13.95 1.95 13.95 -0.1 16.35 -0.05 M7.45 16.85 L4.85 17.0 Q6.7 14.8 8.25 8.5 7.7 11.25 7.75 14.35 7.8 16.25 7.45 16.85 M2.4 13.75 L3.1 14.25 Q4.85 14.65 6.4 13.2 4.65 17.2 3.1 15.45 L2.4 13.75 M1.6 16.75 L0.7 10.0 Q2.2 15.8 4.05 17.0 L1.6 16.75 M15.75 14.95 Q17.1 15.5 18.0 14.5 16.95 18.1 14.8 15.45 L13.35 13.2 Q14.4 14.4 15.75 14.95 M17.15 17.05 Q19.25 14.4 19.5 11.25 L19.5 16.1 19.4 16.7 17.15 17.05 M13.25 17.0 L11.9 10.0 Q13.7 15.5 15.3 17.15 L13.25 17.0" fill="#111d43" fill-rule="evenodd" stroke="none"/>
      <path d="M20.25 -0.05 L20.6 1.95 19.55 1.95 19.2 -0.05 20.25 -0.05 M13.95 -0.1 L13.95 1.95 13.15 1.95 13.15 -0.1 13.95 -0.1 M6.95 -0.1 L6.95 1.95 5.95 1.95 5.95 -0.1 6.95 -0.1 M0.65 1.95 L-0.55 1.95 -0.3 -0.1 1.0 -0.1 0.65 1.95" fill="#4d6f8c" fill-rule="evenodd" stroke="none"/>
    </g>
  </defs>
</svg>
