<?xml version="1.0" encoding="UTF-8" standalone="no"?>
<svg xmlns:ffdec="https://www.free-decompiler.com/flash" xmlns:xlink="http://www.w3.org/1999/xlink" ffdec:objectType="frame" height="20.5px" width="40.85px" xmlns="http://www.w3.org/2000/svg">
  <g transform="matrix(1.0, 0.0, 0.0, 1.0, 11.55, 4.7)">
    <use ffdec:characterId="1" height="20.5" transform="matrix(1.0, 0.0, 0.0, 1.0, -11.55, -4.7)" width="40.85" xlink:href="#shape0"/>
  </g>
  <defs>
    <g id="shape0" transform="matrix(1.0, 0.0, 0.0, 1.0, 11.55, 4.7)">
      <path d="M2.15 -4.4 L3.95 -4.2 Q9.4 -3.7 14.1 -4.05 L14.15 -4.05 16.35 -4.25 18.6 -4.7 27.85 4.05 29.15 5.25 Q29.2 6.0 28.9 6.3 29.5 6.9 29.15 7.5 L28.7 8.0 Q28.7 9.3 27.95 9.3 27.9 10.2 26.8 10.2 L26.5 10.55 25.2 10.65 Q25.2 11.95 24.35 11.65 L24.3 11.7 Q23.8 12.3 23.0 12.15 L22.35 11.9 Q22.05 12.75 21.4 12.6 L20.7 12.35 19.75 12.45 19.4 12.0 Q18.85 13.15 17.8 12.65 17.35 13.6 16.7 13.05 L16.25 13.45 Q15.65 13.8 15.05 13.0 L14.95 13.1 Q14.5 13.4 13.9 12.2 L13.9 12.15 13.3 12.6 Q12.55 12.9 11.95 12.15 11.4 13.05 10.5 12.4 10.15 13.55 9.3 13.2 9.1 14.4 7.95 13.8 7.85 15.1 6.6 14.85 6.25 15.65 5.6 15.5 L5.1 15.25 4.35 15.75 Q4.0 15.85 3.7 15.45 L2.5 15.55 2.35 14.9 Q1.55 14.95 1.55 14.5 L1.65 14.05 Q0.85 14.2 0.6 13.8 L0.6 13.5 Q0.0 13.75 -0.3 13.5 L-0.65 13.15 -1.75 13.25 -1.85 12.65 Q-2.85 12.5 -2.45 11.9 L-1.8 11.35 -1.95 10.95 -2.3 10.95 -3.5 11.0 Q-3.95 11.55 -4.3 11.15 L-4.7 10.7 -5.45 10.65 -5.6 10.3 -6.55 10.4 -6.8 10.1 -7.9 10.25 -8.05 9.8 -8.75 9.75 Q-9.4 9.5 -9.0 8.65 L-9.45 8.4 Q-9.75 8.05 -9.35 7.65 L-9.75 7.5 -10.05 7.1 Q-11.05 7.3 -11.1 6.7 L-10.95 6.05 -11.4 5.8 -11.55 5.4 -11.5 5.3 -11.3 4.95 -11.5 4.6 Q-11.65 4.35 -11.3 4.2 L1.35 -4.5 2.15 -4.4" fill="#992d62" fill-rule="evenodd" stroke="none"/>
      <path d="M18.6 -4.7 L26.2 5.2 26.85 5.65 27.1 5.35 27.65 5.1 Q28.0 4.7 27.4 4.2 L27.85 4.05 29.15 5.25 Q29.2 6.0 28.9 6.3 L28.55 6.4 Q28.35 7.2 27.4 7.05 27.8 7.4 27.6 7.65 L27.35 7.9 27.4 8.45 27.25 8.8 26.65 8.95 26.65 9.45 26.6 9.6 Q26.4 10.15 25.55 9.8 L16.35 -4.25 18.6 -4.7 M-5.45 10.65 L-5.6 10.3 -6.55 10.4 -6.8 10.1 -4.75 8.5 -4.5 8.75 Q-3.95 8.95 -3.35 8.5 L-3.2 8.7 -3.45 10.5 -2.65 9.2 -1.55 9.0 Q-1.25 9.35 -0.95 9.2 L-1.5 10.55 -0.15 9.15 Q-0.4 9.5 -0.2 9.85 L0.2 10.2 0.25 10.55 Q0.35 11.2 0.9 11.3 L1.6 11.15 Q1.55 12.05 2.3 12.1 L1.65 14.05 Q0.85 14.2 0.6 13.8 L0.6 13.5 Q0.0 13.75 -0.3 13.5 L-0.65 13.15 -1.75 13.25 -1.85 12.65 Q-2.85 12.5 -2.45 11.9 L-1.8 11.35 -1.95 10.95 -2.3 10.95 -3.5 11.0 Q-3.95 11.55 -4.3 11.15 L-4.7 10.7 -5.45 10.65 M1.35 -4.5 L2.15 -4.4 -6.3 6.7 -6.85 6.65 Q-7.3 6.75 -7.35 7.4 -7.4 8.1 -8.0 8.0 -8.6 7.85 -8.55 7.3 L-9.35 7.65 -9.75 7.5 -10.05 7.1 Q-11.05 7.3 -11.1 6.7 L-10.95 6.05 -11.4 5.8 -11.55 5.4 -11.5 5.3 -11.3 4.95 -11.5 4.6 Q-11.65 4.35 -11.3 4.2 L-11.15 4.1 -10.6 4.4 Q-11.25 4.85 -10.95 5.25 L-10.45 5.6 -10.25 5.9 Q-10.0 6.05 -9.55 5.55 L-0.6 -3.15 1.35 -4.5 M22.55 8.55 Q22.9 8.8 22.8 9.35 L22.8 9.8 22.95 10.05 24.3 11.7 Q23.8 12.3 23.0 12.15 L22.35 11.9 Q22.05 12.75 21.4 12.6 L20.7 12.35 19.75 12.45 19.4 12.0 Q18.85 13.15 17.8 12.65 17.35 13.6 16.7 13.05 L16.25 13.45 Q15.65 13.8 15.05 13.0 L14.95 13.1 15.3 8.55 15.35 8.4 Q16.7 8.55 17.25 7.45 L18.55 10.05 17.9 6.9 Q18.1 6.6 17.75 6.3 L18.15 5.9 18.6 5.7 18.8 6.45 Q19.15 7.2 19.55 7.25 L20.0 7.25 20.35 9.3 20.55 7.2 21.4 7.15 Q21.05 8.25 22.05 8.45 L22.55 8.55 M14.2 9.05 L14.65 9.25 13.9 12.2 13.9 12.15 13.3 12.6 Q12.55 12.9 11.95 12.15 11.4 13.05 10.5 12.4 10.15 13.55 9.3 13.2 9.1 14.4 7.95 13.8 7.85 15.1 6.6 14.85 6.25 15.65 5.6 15.5 L5.1 15.25 4.35 15.75 3.8 12.1 Q4.3 12.25 4.95 11.4 5.9 12.45 6.75 11.05 7.3 11.35 7.6 10.55 L8.2 10.55 8.4 10.45 8.8 13.2 9.4 10.35 Q9.85 10.4 10.25 10.05 11.05 10.85 11.35 10.2 11.85 10.65 12.95 9.7 13.9 10.35 14.2 9.05" fill="#000000" fill-opacity="0.29803923" fill-rule="evenodd" stroke="none"/>
      <path d="M24.35 11.65 L24.3 11.7 22.95 10.05 23.3 10.1 Q23.9 10.15 24.05 9.6 24.6 10.3 25.1 10.05 L25.55 9.8 Q26.4 10.15 26.6 9.6 L26.65 9.45 26.65 8.95 27.25 8.8 27.4 8.45 27.35 7.9 27.6 7.65 Q27.8 7.4 27.4 7.05 28.35 7.2 28.55 6.4 L28.9 6.3 Q29.5 6.9 29.15 7.5 L28.7 8.0 Q28.7 9.3 27.95 9.3 27.9 10.2 26.8 10.2 L26.5 10.55 25.2 10.65 Q25.2 11.95 24.35 11.65 M20.55 7.2 L20.35 9.3 20.0 7.25 20.25 6.6 20.55 7.2 M13.9 12.2 L14.65 9.25 15.3 8.55 14.95 13.1 Q14.5 13.4 13.9 12.2 M18.55 10.05 L17.25 7.45 17.3 7.25 17.9 6.9 18.55 10.05 M9.4 10.35 L8.8 13.2 8.4 10.45 8.45 10.4 8.8 9.9 9.2 10.25 9.4 10.35 M3.4 11.8 L3.8 12.1 4.35 15.75 Q4.0 15.85 3.7 15.45 L2.5 15.55 2.35 14.9 Q1.55 14.95 1.55 14.5 L1.65 14.05 2.3 12.1 2.5 12.1 3.4 11.8 M-6.35 7.05 L-6.1 7.45 -6.0 8.0 Q-5.7 8.55 -4.85 8.4 L-4.75 8.5 -6.8 10.1 -7.9 10.25 -8.05 9.8 -8.75 9.75 Q-9.4 9.5 -9.0 8.65 L-9.45 8.4 Q-9.75 8.05 -9.35 7.65 L-8.55 7.3 Q-8.6 7.85 -8.0 8.0 -7.4 8.1 -7.35 7.4 -7.3 6.75 -6.85 6.65 L-6.3 6.7 -6.35 7.05 M-2.95 9.0 L-2.65 9.2 -3.45 10.5 -3.2 8.7 -2.95 9.0 M-0.95 9.2 L-0.4 8.4 0.0 8.95 -0.15 9.15 -1.5 10.55 -0.95 9.2" fill="#000000" fill-opacity="0.49803922" fill-rule="evenodd" stroke="none"/>
      <path d="M6.8 -4.0 L4.95 11.4 Q4.3 12.25 3.8 12.1 L3.4 11.8 2.5 12.1 2.3 12.1 Q1.55 12.05 1.6 11.15 L0.9 11.3 Q0.35 11.2 0.25 10.55 L0.2 10.2 -0.2 9.85 Q-0.4 9.5 -0.15 9.15 L0.0 8.95 -0.4 8.4 3.95 -4.2 6.8 -4.0 M14.1 -4.05 L17.75 6.25 17.75 6.3 17.8 6.35 Q18.1 6.6 17.9 6.9 L17.3 7.25 17.25 7.45 Q16.7 8.55 15.35 8.4 L15.3 8.55 14.65 9.25 14.2 9.05 Q13.9 10.35 12.95 9.7 11.85 10.65 11.35 10.2 L10.45 -3.9 14.1 -4.05" fill="#000000" fill-opacity="0.047058824" fill-rule="evenodd" stroke="none"/>
      <path d="M6.8 -4.0 L10.45 -3.9 11.4 -3.9 12.3 -3.95 13.15 -4.0 13.65 -4.0 14.1 -4.05 14.15 -4.05 16.35 -4.25 18.6 -4.7 27.85 4.05 29.15 5.25 Q29.2 6.0 28.9 6.3 29.5 6.9 29.15 7.5 L28.7 8.0 Q28.7 9.3 27.95 9.3 27.9 10.2 26.8 10.2 L26.5 10.55 25.2 10.65 Q25.2 11.95 24.35 11.65 L24.3 11.7 Q23.8 12.3 23.0 12.15 L22.35 11.9 Q22.05 12.75 21.4 12.6 L20.7 12.35 19.75 12.45 19.4 12.0 Q18.85 13.15 17.8 12.65 17.35 13.6 16.7 13.05 L16.25 13.45 Q15.65 13.8 15.05 13.0 L14.95 13.1 Q14.5 13.4 13.9 12.2 L13.9 12.15 13.3 12.6 Q12.55 12.9 11.95 12.15 11.4 13.05 10.5 12.4 10.15 13.55 9.3 13.2 9.1 14.4 7.95 13.8 7.85 15.1 6.6 14.85 6.25 15.65 5.6 15.5 L5.1 15.25 4.35 15.75 Q4.0 15.85 3.7 15.45 L2.5 15.55 2.35 14.9 Q1.55 14.95 1.55 14.5 L1.65 14.05 Q0.85 14.2 0.6 13.8 L0.6 13.5 Q0.0 13.75 -0.3 13.5 L-0.65 13.15 -1.75 13.25 -1.85 12.65 Q-2.85 12.5 -2.45 11.9 L-1.8 11.35 -1.95 10.95 -2.3 10.95 -3.5 11.0 Q-3.95 11.55 -4.3 11.15 L-4.7 10.7 -5.45 10.65 -5.6 10.3 -6.55 10.4 -6.8 10.1 -7.9 10.25 -8.05 9.8 -8.75 9.75 Q-9.4 9.5 -9.0 8.65 L-9.45 8.4 Q-9.75 8.05 -9.35 7.65 L-9.75 7.5 -10.05 7.1 Q-11.05 7.3 -11.1 6.7 L-10.95 6.05 -11.4 5.8 -11.55 5.4 -11.5 5.3 -11.3 4.95 -11.5 4.6 Q-11.65 4.35 -11.3 4.2 L1.35 -4.5 2.15 -4.4 3.95 -4.2 4.2 -4.15 6.8 -4.0" fill="url(#gradient0)" fill-rule="evenodd" stroke="none"/>
    </g>
    <linearGradient gradientTransform="matrix(0.0, 0.0125, -0.0125, 0.0, 8.85, 5.55)" gradientUnits="userSpaceOnUse" id="gradient0" spreadMethod="pad" x1="-819.2" x2="819.2">
      <stop offset="0.0" stop-color="#000000" stop-opacity="0.6"/>
      <stop offset="1.0" stop-color="#000000" stop-opacity="0.0"/>
    </linearGradient>
  </defs>
</svg>
