<svg xmlns="http://www.w3.org/2000/svg" xmlns:ffdec="https://www.free-decompiler.com/flash" xmlns:xlink="http://www.w3.org/1999/xlink" ffdec:objectType="frame" width="30.05" height="14.7"><g transform="translate(4.9 -2.95)"><use ffdec:characterId="2" xlink:href="#a" width="26.2" height="10.65" transform="translate(-3 3)"/><use ffdec:characterId="3" xlink:href="#b" width="30.05" height="14.7" transform="translate(-4.9 2.95)"/></g><defs><path id="c" fill="#8a42b6" fill-rule="evenodd" d="M22.4 7.65q1.35 3.85.5 3.45-1.1-.25-3.4.65l-2.8.25-.75-.15-2.25.25-2 .1h-.05l-1.4-.4q-.75-.25-1.75.4l-1.7-.05q-.05-.15-1-.35l-2.55.2-2.75-.2q-1.1-.65-3.1-.55-1.3.05 2.5-9.45l1.25.05q-.25 2.4-.1 4.1.1 1.65.85 2.45.7.8 2.65 1.25l4.85.4L15 9.8q2.65-.2 3.5-1.2.8-.95.85-2.75T18.9 1.8h1.05q1.1 2 2.45 5.85" transform="translate(2.95 -1.8)"/><use ffdec:characterId="1" xlink:href="#c" id="a" width="26.2" height="10.65"/><g id="b" fill-rule="evenodd"><path fill="#fff" d="M30.05 13.3q-1.7-1.75-3.05-.6l-.1.1q-.55-1.15-2.5-2.8 2.25-.9 3.4-.65 1.45 1.9 2.25 3.95m-8.55-.35-.5.35q-.7-1.35-2.4-2.5v-.45l2.25-.25.75.15-.15.15q1.5 1.35 2 2.35l-.2-.2-1.1.1zm-4.4.65q-.7-.7-1.8-.7-1.3 0-2.15 1 .55-1.7.25-3.2v-.25q1-.6 1.75-.4l1.4.4h.05l-.35.35zm-7.3.05-.05-.1q-.6-.85-1.35-1.1l-.05-.05L7 12.3l-.3.2.1-.25q.3-.85 1.3-1.55l.05-.4 2.55-.25q.95.2 1 .35v.3q-1.3 1.4-1.85 2.9zM0 13l.15-.55.75-1.15 1.4-1.8q2-.1 3.1.55-2 .85-2.55 1.55l-1.3.15zm23.4-6.1q-.85.9-3.5 1.15l-5.6.25-4.85-.4q-2-.45-2.65-1.25Q6 5.8 5.95 4.2q-.15-1.55.1-4.15Q15.1.75 23.8 0q.55 2.25.45 4.1-.05 1.8-.85 2.8"/><path fill="#fff" fill-opacity=".988" d="M27 12.7q1.35-1.15 3.05.6zM24.4 10q1.95 1.65 2.5 2.8l-.1.1q-1.5 1.5-2.6 1.65-.85.1-.9-.2l-1.8-1.4.65-.3 1.1-.1.2.2q-.5-1-2-2.35l.15-.15zM21 13.3l-.25.2-1.65 1q-1.05.4-1.75-.6l-.25-.3-.85-2.8.35-.35 2-.1v.45q1.7 1.15 2.4 2.5m-7.85.6h-.05q-.8.95-1.8.8-.9-.3-1.5-1.05l.05-.05q.55-1.5 1.85-2.9v-.3l1.7.05v.25q.3 1.5-.25 3.2M8.4 12.45l-1.75 1.2-1.15.1q-1.1-.2-2.1-1.65L0 13l1.55-1.25 1.3-.15q.55-.7 2.55-1.55l2.75.25-.05.4q-1 .7-1.3 1.55l-.1.25.3-.2 1.35.1z"/><path fill-opacity=".447" d="M30.05 13.3 27 12.7q1.4-1.15 3.05.6m-6.6-.55.15.3-.25 1-.05.3-1.8-1.4.65-.3 1.1-.1zm-16.8-.15.35-.3 1.35.1.05.05-1.75 1.2.05-.2-.1-.55zm-3.25-.5L.05 13q.7-.9 1.5-1.25l1.3-.15.5.45z"/><path fill-opacity=".2" d="m23.45 12.75-1-1.7-.85-.95 2.45.1 1.6 1.3 1.25 1.3-.1.1q-1.5 1.5-2.6 1.65-.85.1-.9-.2l.05-.3.25-1zM22.9.85q-9.15.6-18.4-.25l.3-.6q10 .75 19.95 0l.4.65-.7.1.25 3.8q-.05 1.8-.85 2.8-.85.95-3.5 1.15l-5.6.25-4.85-.4Q8.05 7.9 7.3 7.2q.75.45 2.1.75l3.75.4 2.95-.25 4.7-.85q1.8-.65 1.85-1.35.05-.75-.6-1.05l-1.5-1.15q1.2.3 2.65-.9l-.05-1zM17.25 8.2h-.05l.05.05zm-3 .15H15h-1.25zm-.7 2.35q-.3 1.1-.4 3.2h-.05q-.8.95-1.8.8l-1.15-.65h-.05l-.3-.4-1.35-1.25.9.5.6.45q.55-1.65 1.45-2.65l.3-.3 1.85-.05zm-6.9 2.95-1.15.1q-1.1-.25-2.1-1.65l-.05-.05-.5-.45q.4-.55 2.8-1.45l2.5.15-.05.4q-.9.65-1.3 1.55l-.15.35-.05.3.1.55zm14.25-.5q.1-.15.35-.2l.35-.1-.65.5-.2.15-1.65 1q-1 .4-1.75-.6l-.2-.25-.55-.4q-.65-.4-1.4-.3.5-.15 1.15 0l.7.3-.5-2.45v-.35h.1l1.95-.1.3.3q1 .65 2 2.5"/></g></defs></svg>