<?xml version="1.0" encoding="UTF-8" standalone="no"?>
<svg xmlns:ffdec="https://www.free-decompiler.com/flash" xmlns:xlink="http://www.w3.org/1999/xlink" ffdec:objectType="frame" height="14.7px" width="30.05px" xmlns="http://www.w3.org/2000/svg">
  <g transform="matrix(1.0, 0.0, 0.0, 1.0, 4.9, -2.95)">
    <use ffdec:characterId="2" height="10.65" id="Color" transform="matrix(1.0, 0.0, 0.0, 1.0, -3.0, 3.0)" width="26.2" xlink:href="#sprite0"/>
    <use ffdec:characterId="3" height="14.7" transform="matrix(1.0, 0.0, 0.0, 1.0, -4.9, 2.95)" width="30.05" xlink:href="#shape1"/>
  </g>
  <defs>
    <g id="sprite0" transform="matrix(1.0, 0.0, 0.0, 1.0, 2.95, -1.8)">
      <use ffdec:characterId="1" height="10.65" transform="matrix(1.0, 0.0, 0.0, 1.0, -2.95, 1.8)" width="26.2" xlink:href="#shape0"/>
    </g>
    <g id="shape0" transform="matrix(1.0, 0.0, 0.0, 1.0, 2.95, -1.8)">
      <path d="M22.4 7.65 Q23.75 11.5 22.9 11.1 21.8 10.85 19.5 11.75 L16.7 12.0 15.95 11.85 13.7 12.1 11.7 12.2 11.65 12.2 10.25 11.8 Q9.5 11.55 8.5 12.2 L6.8 12.15 Q6.75 12.0 5.8 11.8 L3.25 12.0 0.5 11.8 Q-0.6 11.15 -2.6 11.25 -3.9 11.3 -0.1 1.8 L1.15 1.85 Q0.9 4.25 1.05 5.95 1.15 7.6 1.9 8.4 2.6 9.2 4.55 9.65 L9.4 10.05 15.0 9.8 Q17.65 9.6 18.5 8.6 19.3 7.65 19.35 5.85 19.4 4.05 18.9 1.8 L19.95 1.8 Q21.05 3.8 22.4 7.65" fill="#ff7f7e" fill-rule="evenodd" stroke="none"/>
    </g>
    <g id="shape1" transform="matrix(1.0, 0.0, 0.0, 1.0, 4.9, -2.95)">
      <path d="M25.15 16.25 Q23.45 14.5 22.1 15.65 L22.0 15.75 Q21.45 14.6 19.5 12.95 21.75 12.05 22.9 12.3 24.35 14.2 25.15 16.25 M16.6 15.9 L16.1 16.25 Q15.4 14.9 13.7 13.75 L13.7 13.3 15.95 13.05 16.7 13.2 16.55 13.35 Q18.05 14.7 18.55 15.7 L18.35 15.5 17.25 15.6 16.6 15.9 M12.2 16.55 Q11.5 15.85 10.4 15.85 9.1 15.85 8.25 16.85 8.8 15.15 8.5 13.65 L8.5 13.4 Q9.5 12.8 10.25 13.0 L11.65 13.4 11.7 13.4 11.35 13.75 12.2 16.55 M4.9 16.6 L4.85 16.5 Q4.25 15.65 3.5 15.4 L3.45 15.35 2.1 15.25 1.8 15.45 1.9 15.2 Q2.2 14.35 3.2 13.65 L3.25 13.25 5.8 13.0 Q6.75 13.2 6.8 13.35 L6.8 13.65 Q5.5 15.05 4.95 16.55 L4.9 16.6 M-4.9 15.95 L-4.75 15.4 -4.0 14.25 -2.6 12.45 Q-0.6 12.35 0.5 13.0 -1.5 13.85 -2.05 14.55 L-3.35 14.7 -4.9 15.95 M18.5 9.85 Q17.65 10.75 15.0 11.0 L9.4 11.25 4.55 10.85 Q2.55 10.4 1.9 9.6 1.1 8.75 1.05 7.15 0.9 5.6 1.15 3.0 10.2 3.7 18.9 2.95 19.45 5.2 19.35 7.05 19.3 8.85 18.5 9.85" fill="#ffffff" fill-rule="evenodd" stroke="none"/>
      <path d="M22.1 15.65 Q23.45 14.5 25.15 16.25 L22.1 15.65 M19.5 12.95 Q21.45 14.6 22.0 15.75 L21.9 15.85 Q20.4 17.35 19.3 17.5 18.45 17.6 18.4 17.3 L16.6 15.9 17.25 15.6 18.35 15.5 18.55 15.7 Q18.05 14.7 16.55 13.35 L16.7 13.2 19.5 12.95 M16.1 16.25 L15.85 16.45 14.2 17.45 Q13.15 17.85 12.45 16.85 L12.2 16.55 11.35 13.75 11.7 13.4 13.7 13.3 13.7 13.75 Q15.4 14.9 16.1 16.25 M8.25 16.85 L8.2 16.85 Q7.4 17.8 6.4 17.65 5.5 17.35 4.9 16.6 L4.95 16.55 Q5.5 15.05 6.8 13.65 L6.8 13.35 8.5 13.4 8.5 13.65 Q8.8 15.15 8.25 16.85 M3.5 15.4 L1.75 16.6 0.6 16.7 Q-0.5 16.5 -1.5 15.05 L-4.9 15.95 -3.35 14.7 -2.05 14.55 Q-1.5 13.85 0.5 13.0 L3.25 13.25 3.2 13.65 Q2.2 14.35 1.9 15.2 L1.8 15.45 2.1 15.25 3.45 15.35 3.5 15.4" fill="#ffffff" fill-opacity="0.9882353" fill-rule="evenodd" stroke="none"/>
      <path d="M25.15 16.25 L22.1 15.65 Q23.5 14.5 25.15 16.25 M18.55 15.7 L18.7 16.0 18.45 17.0 18.4 17.3 16.6 15.9 17.25 15.6 18.35 15.5 18.55 15.7 M1.75 15.55 L2.1 15.25 3.45 15.35 3.5 15.4 1.75 16.6 1.8 16.4 1.7 15.85 1.75 15.55 M-1.5 15.05 L-4.85 15.95 Q-4.15 15.05 -3.35 14.7 L-2.05 14.55 -1.55 15.0 -1.5 15.05" fill="#000000" fill-opacity="0.44705883" fill-rule="evenodd" stroke="none"/>
      <path d="M18.55 15.7 L17.55 14.0 16.7 13.05 19.15 13.15 20.75 14.45 22.0 15.75 21.9 15.85 Q20.4 17.35 19.3 17.5 18.45 17.6 18.4 17.3 L18.45 17.0 18.7 16.0 18.55 15.7 M18.0 3.8 Q8.85 4.4 -0.4 3.55 L-0.1 2.95 Q9.9 3.7 19.85 2.95 L20.25 3.6 19.55 3.7 19.8 7.5 Q19.75 9.3 18.95 10.3 18.1 11.25 15.45 11.45 L9.85 11.7 5.0 11.3 Q3.15 10.85 2.4 10.15 3.15 10.6 4.5 10.9 L8.25 11.3 11.2 11.05 15.9 10.2 Q17.7 9.55 17.75 8.85 17.8 8.1 17.15 7.8 L15.65 6.65 Q16.85 6.95 18.3 5.75 L18.25 4.75 18.0 3.8 M12.35 11.15 L12.3 11.15 12.35 11.2 12.35 11.15 M9.35 11.3 L10.1 11.3 8.85 11.3 9.35 11.3 M8.65 13.65 Q8.35 14.75 8.25 16.85 L8.2 16.85 Q7.4 17.8 6.4 17.65 L5.25 17.0 5.2 17.0 4.9 16.6 3.55 15.35 4.45 15.85 5.05 16.3 Q5.6 14.65 6.5 13.65 L6.8 13.35 8.65 13.3 8.65 13.65 M1.75 16.6 L0.6 16.7 Q-0.5 16.45 -1.5 15.05 L-1.55 15.0 -2.05 14.55 Q-1.65 14.0 0.75 13.1 L3.25 13.25 3.2 13.65 Q2.3 14.3 1.9 15.2 L1.75 15.55 1.7 15.85 1.8 16.4 1.75 16.6 M16.0 16.1 Q16.1 15.95 16.35 15.9 L16.7 15.8 16.05 16.3 15.85 16.45 14.2 17.45 Q13.2 17.85 12.45 16.85 L12.25 16.6 11.7 16.2 Q11.05 15.8 10.3 15.9 10.8 15.75 11.45 15.9 L12.15 16.2 11.65 13.75 11.65 13.4 11.75 13.4 13.7 13.3 14.0 13.6 Q15.0 14.25 16.0 16.1" fill="#000000" fill-opacity="0.2" fill-rule="evenodd" stroke="none"/>
    </g>
  </defs>
</svg>
