<svg xmlns="http://www.w3.org/2000/svg" xmlns:ffdec="https://www.free-decompiler.com/flash" xmlns:xlink="http://www.w3.org/1999/xlink" ffdec:objectType="frame" width="23.15" height="8.9"><use ffdec:characterId="1" xlink:href="#a" width="23.15" height="8.9"/><defs><g id="a" fill-rule="evenodd"><path fill="#d79e00" d="m22.55 2 .35.75.25 1.5q0 .6-.35 1.2l-.45.2-1.85.65q.55-.7.35-1.55l-.05-.1q-.4 1.3-1.55 1.95l-.15.05-.3-.8-.05-.05q-.5.05-.75.4l-.05.05-.1.55-.05.05h-.1l-2.55-.3q-.05.5.25.65l-.3.05q-.6-.1-1.4-.6l-1.5-.15.75.85-.8-.05-.15-.35-.15-.2V1.5l.9.2.55-.1-1.1-.4-.35-.2V.95h.65L14.45.9l-.6.35.05.15h.8l1.15-.45.45-.3.7-.05-.35.4v.1l.25.1q.35 0 .8-.4l.25-.2.65-.05-.1.2.05.15h.55q.1-.15.5-.4l.55-.05.2.25h.35l.05-.15-.2-.1 1.1-.1zm-8.3 6.45.2-.8.45-.1h.2l.2.35-.4.4-.25.3-.3.25H14l-.25.05-1.15-.25-.45-.3.6-.5h-.25l.05-.1.65.05-.05.1q-.35.75.35.25l.1-.1.2-.25.15-.05.25.6zm2.15.1q-.1.2-.4.2h-.75l.25-.2.05-.05q.15-.25-.1-.5l-.15-.5 2.3-.35.35.6-.95-.2h-.05l-.2.05-.7.1H16l-.05.45v.1zm5.3-2.05h.05q.55.35.55.45l-.4.55-.5.3-.35-.15.3-.1.05-.1-.05-.05.05-.15-.1-.6zm-2.9 1.25q.5 0 .75.3l-1.05.25-.3.05-.6-.05.55-.25V7.9l-.35-.75.75-.1.3.6h-.05zm2.25-.1-.25.2-.4-.05-.05-.2.05-.15zm-.65-.3-.35-.05-.15.1q-.55-.1-1 .2V7l1.95-.25.2.35q-.3-.1-.65.25M10.8.8l.35.3.2.15q.3 3.45 0 5.65l-.1.2v.05h-.1l-.95.1.75-.85-1.5.15q-.8.5-1.4.6l-.3-.05q.3-.15.25-.65l-2.55.3h-.1L5.3 6.7l-.1-.55-.05-.05q-.25-.35-.75-.4l-.05.05q-.3.3-.3.8L3.9 6.5q-1.15-.65-1.55-1.95l-.05.1q-.2.85.35 1.55L.8 5.55l-.45-.2L0 4.15l.25-1.5.35-.75.85-1.5.65.05-.15.15v.35l.7-.45h.15l-.05.5q0 .35.25.35l.75-.8L5.3.6l.3.35q.35.3.65.3l.45-.3.2-.3L8 .7l-.2.45.15.2q.1-.15.7-.4l.4-.25h.3q.05.45.45.45l.2-.2L9.85.7h.95zM5.35 7.05Q5.1 7.3 5 7.8v.15q.05.15.55.25l-.6.05-.3-.05-1.05-.25q.25-.3.75-.3v-.1H4.3l.3-.6zm-1.1-.15v.6l-1-.2-.15-.1-.35.05Q2.4 6.9 2.1 7l.2-.35zm-1.45.6-.05.2-.4.05-.25-.2-.35.15-.5-.3-.4-.55.55-.45h.05l.4.15-.1.6.05.15-.05.05.05.1.3.1.65-.2zm3.4-.05h-.05l-.95.2.35-.6 2.3.35q-.15.2-.15.5-.25.25-.1.5l.05.05.25.2h-.75q-.3 0-.4-.2.2-.2.45-.3v-.1l-.05-.45H7.1l-.7-.1zm2.7.9.05-.1q.1-.55.25-.6l.15.05.2.25.1.1q.7.5.35-.25l-.05-.1.95-.1-.15.1-.1-.05v.05l-.25.05.6.5-.45.3-1.15.25-.25-.05H8.8l-.3-.25-.25-.3-.4-.4.2-.35h.2l.45.1z"/><path fill="#9f540d" d="m4.35 5.75.05-.05q.5.05.75.4l.05.05.1.55.05.05h.1L8 6.45q.05.5-.25.65l.3.05q.6-.1 1.4-.6l1.5-.15-.75.85.95-.1h.1l-.1.2v.05l-.25.2-.95.1.05.1q.35.75-.35.25l-.1-.1-.2-.25-.15-.05q-.15.05-.25.6l-.05.1-.2-.8-.45-.1h-.2l-.2.35.4.4-.15-.1-.05.3-.15.25-.25-.2-.05-.05q-.15-.25.1-.5 0-.3.15-.5l-2.3-.35-.35.6.95-.2-.4.05.05.4-.15.3h-.1q-.5-.1-.55-.25V7.8q.1-.5.35-.75l-.75-.1-.3.6h.05v.1q-.5 0-.75.3l-.1-.15-.25-.5 1 .2v-.6L2.3 6.65 2.1 7q.3-.1.65.25H2.7l.05.1-.65.2-.3-.1-.05-.1.05-.05-.05-.15.1-.6-.4-.15h.05L.95 6l-.6-.65.45.2 1.85.65q-.55-.7-.35-1.55l.05-.1q.4 1.3 1.55 1.95l.15.05q0-.5.3-.8m16.45 2.1.25-.2.35.15-.5.05zm-4.05-.25q-.35.05-.3.55l-.05.4-.45-.3v-.1L16 7.7h.05zm4.7-7.6.2.35-1.1.1.2.1-.05.15h-.35l-.2-.25-.55.05q-.4.25-.5.4h-.55L18.5.75l.1-.2-.65.05-.25.2q-.45.4-.8.4l-.25-.1V1L17 .6l-.7.05-.45.3-1.15.45h-.8l-.05-.15.6-.35-1.95.05h-.65V1l.35.2 1.1.4-.55.1-.9-.2v5.25l-.15-.15h-.05l-.2.1-.1.2q.3-2.2 0-5.65l-.2-.15-.35-.3V.7h-.95l.15.25-.2.2q-.4 0-.45-.45h-.3l-.4.25q-.6.25-.7.4l-.15-.2L8 .7 6.9.65l-.2.3-.45.3q-.3 0-.65-.3L5.3.6 3.75.55l-.75.8q-.25 0-.25-.35L2.8.5h-.15l-.7.45V.6L2.1.45 1.45.4 1.6.05l9.55.25h.7L18 .15zm1.35 5.45-.6.65-.55.4h.05l-.4.15.1.6-.05.15.05.05-.05.1-.3.1-.65-.2.05-.1h-.05q.35-.35.65-.25l-.2-.35L18.9 7v.6q.45-.3 1-.2l-.25.5-.1.15q-.25-.3-.75-.3v-.1h.05l-.3-.6-.75.1.35.75v.15l-.55.25h-.1l-.15-.3.05-.4-.4-.05.95.2-.35-.6-2.3.35.15.5q.25.25.1.5l-.05.05-.25.2-.15-.25-.05-.3-.15.1.4-.4-.2-.35h-.2l-.45.1-.2.8-.05-.1-.25-.6-.15.05-.2.25-.1.1q-.7.5-.35-.25l.05-.1-.65-.05-.4-.45.8.05-.75-.85 1.5.15q.8.5 1.4.6l.3-.05q-.3-.15-.25-.65l2.55.3h.1l.05-.05.1-.55.05-.05q.25-.35.75-.4l.05.05.3.8.15-.05q1.15-.65 1.55-1.95l.05.1q.2.85-.35 1.55l1.85-.65zM2.1 7.55l.25.2h-.1l-.5-.05zm4.3-.05.7.1h.05l.05.45v.1q-.25.1-.45.3l-.05-.4q.05-.5-.3-.55"/></g></defs></svg>