<svg xmlns="http://www.w3.org/2000/svg" xmlns:ffdec="https://www.free-decompiler.com/flash" xmlns:xlink="http://www.w3.org/1999/xlink" ffdec:objectType="frame" width="22.2" height="21.9"><use ffdec:characterId="1" xlink:href="#a" width="22.2" height="21.9"/><defs><g id="a" fill-rule="evenodd"><path fill="#2a2a2a" d="M15.5 21.85h-.3l.1-.7.15-.85-.05-.1.05-.15.45-.05-.25.75zm-3.85-1.2v-.2l.2-.6v-.05l2.15.75h.1zM10.55 6.4l-2.25.7-2.9.45Q6.6 8.35 8 9q.95.35 1.35.85L9 10.2l-.2.05h-.3l-.15.05v.4q-.85.05-1.75-.4h-.1q.9 1 1.9 1.15l.05.35.1.8.25 2.55q0 .8-.6 1.4l-2.75.2q1.15.75 2.3.5l2-.05q-.9.55-2.25.55l-1.3.15 2.35.2q-.65.6-1.65.65l-.6.25v.05l2.65.35-2.25.6.4 1.45.05.4H6.7l-.15-1.1-.3-.9h.2q.8.15 1-.3l-1.7-.2.1-1.15-.1-.1-.7-.85 2.45.1-2.15-.05-.35-.15-1.35-1.4-.15-.6q-1-3.15-1-7.2-.05-2.55.45-5.1.8.45 1.85.55l-.1-.1-1.45-1.7v-.15Q4.8 3.2 6.75 3.8l1.65.25 1.95.25h.15v.05l-3.25.15q1.55.8 3.1.95h.15zm8.2-4.7.05.15-.25.3v-.1l-.05-.15zm.35 1.25q.5 1.75.55 3.7l.05 1.3q0 4.05-1 7.2l-.15.6-1.35 1.4-.35.15h-.35l.05-.05.5-.75.5-.55.75-.7.2-.45.25-1.25.5-2.9v-2.5l-.3-4.5-.1-.5-.05-.05zm-1.95 14.3-.7.85-.1.1.1 1.15-1.7.2.1.15h-.5l-.25-.05v-.05l.1-.1.35-.1.55-.15h.65l.25-.2v-.3l-.05-.2-.05-.3.35-.6.05-.05zm1.2-14.85-.85.9-.1.1 1.2-.25.15.7.25 4.3v2.3l-.5 3.15-.35 1.35-.15.3-.15.2-.6.4-.5.65-.15.25-2.6-.2q-.6-.6-.6-1.4l.25-2.55.1-.8.05-.35q1-.15 1.9-1.15h-.1l-1.75.4v-.4l-.15-.05h-.3l-.2-.05-.35-.35q.4-.5 1.35-.85 1.4-.65 2.6-1.45h-.35l-3-.75-1.7-.5.15-.65.05-.2q1.5-.15 3-.95l-2.8-.1.05-.1 1.6-.25 1.65-.25Q17 3.35 18.3 2.15l.05.15zm-3.8 7.6h.4q.95-.15 1.85-.6l.05-.05q-1.3-.1-2.2.6zm-9.2-.65.05.05 1.85.6h.4l-.1-.05q-.9-.7-2.2-.6M16.5 16.9l-.2.3-.05.05-.05.05-1.5.05 1.3.25-.15.3-1.15-.15q-1.35 0-2.25-.55l2 .05q1 .2 2.05-.35m-.75 2.05-.45-.2q-1-.05-1.65-.65l2.15-.15-.15.35.1.25v.4m-1.9.65-.6-.2.8-.1z"/><path fill="#121212" d="M14.9 21.85h-.1l-2.3-.45-.85-.75 2.45-.1H14l-2.15-.75v-.3l.2.2.55.15h.05l.9.15h.5l1.1.15-.05.15v.1zm-3.2-2.65-.1-.55.05-.6-.05-.55-.55-1.35-.05-.95q0-1.1.3-2.6l.3-2.5-.65-1.9v-.5l.05-.15v-1.3l-.05.05-.4.1-.05-.95h-.15Q8.8 5.3 7.25 4.5l3.25-.15V4.3h-.15L8.4 4.05 6.75 3.8q-1.95-.6-3.5-2.35l.3-.05-.1.05q-.1.05.15-.4L3.95.4 4.3.05h13l.25.45.6 1.25.1.25.05.15Q17 3.35 15.45 3.8l-1.65.25-1.6.25-.05.1 2.8.1q-1.5.8-3 .95l-.05.2-.15.65 1.7.5 3 .75h.35q-1.2.8-2.6 1.45-.95.35-1.35.85l.35.35.2.05h.3l.15.05v.4l1.75-.4h.1q-.9 1-1.9 1.15l-.05.35-.1.8-.25 2.55q0 .8.6 1.4l2.6.2-.1.15q-1.05.55-2.05.35l-2-.05q.9.55 2.25.55l1.15.15-.05.05-2.15.15q.65.6 1.65.65l.45.2q-.95-.1-1.5.25l-.2.1-.8.1.6.2v.1h-.35l-1.15-.25-.4-.15zM2.95 2.85l.1-.4.1-.45.1-.4L4.7 3.3l.1.1q-1.05-.1-1.85-.55M17.5.05h.4l.35.35.4 1 .1.3-.25.2v-.05l-.1-.25-.65-1.2zm1.3 1.8.3 1.1-.3.15v-.05l-.25-.9zm-1.6 15.3.15-.05-.2.15-.85.35.2-.3h.35zm1.4-14-1.2.25.1-.1.85-.9.25.7zM14.55 10l.1-.05q.9-.7 2.2-.6l-.05.05q-.9.45-1.85.6zM16 17.6l-1.3-.25 1.5-.05zm-1.9 2.05.25.05h-.2zm1.3.55-.05-.15h.1z"/><path fill="#040404" d="M21.7 3.05 20.75 2q-.7 1.7-.8 2.7-.1 1.05.1 1.2l.65.1h.5l.8-.25v.55l-1.3.1q-.3-.15.2.5.6.6 1.15.15l.15 4.1-.35 2.95-.3 1.5-.8.05q-2.25-1.05-1.3-.3l1.6 1.65-1.15.95-1.6 1.2-.85.25-.05.1h-.2l-1.35.2h-1l-.1-.15 1.7-.2-.1-1.15.1-.1.7-.85.2-.15-.15.05 1.35-1.4.15-.6q1-3.15 1-7.2l-.05-1.3q-.05-1.95-.55-3.7l-.3-1.1-.05-.15-.1-.3-.4-1-.35-.35h2.6q.85 1.3 1.2 3m-4.05 17.8q-.65.8-2.15 1l.15-1.1.25-.75.8-.1.45-.05-.1.5v.25zm2.3-9.05.25.1h.15l.65-.1.05-.1.1-.15h.05v-.1l.05-.25-.1-.5q-.15-.25-.45-.35h-.45L20.3 9l-.3 1.45-.3.55.05.55-.3 1.65q-.15.2-.15.5v1.1l.1-.45.35.2h.65l.2-.1.15-.2v-.05l.1-.25-.05-.05.05-.25-.15-.3-.45-.3-.1-.05-.4.05.15-.95z"/><path fill="#2c2c2c" d="m21.7 3.05.1.5.2 1.75v.45l-.8.25h-.5l-.65-.1q-.2-.15-.1-1.2.1-1 .8-2.7zM22 6.3l.05.75q-.55.45-1.15-.15-.5-.65-.2-.5zm-.45 9.3-.35 1.2-.15.2-1.6-1.65q-.95-.75 1.3.3zm-3.25 3.55-.4.25h-.05l-.45.1.05-.1zm-.55.6-.05.35-.05.75-.6-.25v-.25l.1-.5zm2.2-7.95-.05.3-.15.95q-.2 0-.3.15l.3-1.65zm-.55 2.55-.1.45v-.65zm.6-3.9L20.3 9l-.05 1.35z"/><path fill="#747474" d="M15.2 21.85v.05l-.15-.05h-.15l.2-1.45.3-.05v-.05h-.3l.05-.15-1.1-.15h-.5l-.9-.15h-.05l-.25-.4 1.15.25h.35v-.1l.2-.3.2-.1q.55-.35 1.5-.25v-.35l.2-.05.05.2v.3l-.25.2h-.65l-.55.15-.35.1-.1.1v.05l.05.05h1.7l1.35-.2-.05.35-.45.05-.8.1-.45.05h-.1l.05.15.05.1-.15.85zM17.3.05V0h.25l-.05.05.25.35.65 1.2.1.25-.25.15-.1-.25-.6-1.25zm1.3 3.05-.25-.7v-.1l.2-.25v.1l.25.9zm-1.85 13.4.5-.65.6-.4.15-.2h.3l-.75.7-.5.55zm-.5.75h.3l-.05.05-.2.3-.05.05-.25-.05.2-.3z"/><path fill="#c2c2c2" d="M17.9 19.4h.05l-.2.35-.6.1.05-.35h.2l.45-.1zm-6.05.1-.1-.15-.05-.15.25.1.4.15.25.4-.55-.15zM18.25 2l.25-.15v.05l.05.15-.2.25-.05-.15zm.35 1.15V3.1l.2-.05v.05l.05.05.1.5.3 4.5v2.5l-.5 2.9-.25 1.25-.2.45H18l.15-.3.35-1.35.5-3.15v-2.3l-.25-4.3zm-2 13.6.15-.25h.3l-.5.75h-.3l.05-.05.2-.3zm-.8 1.2.05-.05.15-.3.25.05-.35.6.05.3-.2.05v-.05l-.1-.25zm-.7 2.35h.3v.05l-.3.05z"/><path fill="#a87b0d" d="M20.25 10.35h.45q.3.1.45.35l.1.5-.05.25v.1h-.05l-.1.15-.05.1-.65.1h-.15l-.25-.1-.2-.25-.05-.55.3-.55zm-.5 2.7.4-.05.1.05.45.3.15.3-.05.25.05.05-.1.25v.05l-.15.2-.2.1h-.65l-.35-.2-.1-.2v-.45q0-.3.15-.5.1-.15.3-.15m1.05-1.75.2-.2-.15.05q-.15-.25-.3-.2l-.1.1q-.3-.2-.05-.45l-.05-.1q-.05 0-.15.1h-.05q-.45.45-.15.95h.05l.05.05q-.05-.4.15-.45l.05.2.2.1v.05l.15.15q.25.1.35-.15v-.1zm-.5 2.7.2-.2-.15.05-.25-.25-.15.15q-.3-.25-.05-.5h-.15l-.1.1q-.35.35-.2.8l.1.1.1.05q-.1-.35.1-.45l.15.25.2.05-.05.05.15.2q.25.1.3-.15v-.2z"/><path fill="#ffd88e" d="m20.5 11.45-.2-.1-.05-.2q-.2.05-.15.45l-.05-.05H20q-.3-.5.15-.95h.05q.1-.1.15-.1l.05.1q-.25.25.05.45l.1-.1q.15-.05.3.2l.15-.05-.2.2-.2-.05zm-.4 2.7-.2-.05-.15-.25q-.2.1-.1.45l-.1-.05-.1-.1q-.15-.45.2-.8l.1-.1h.15q-.25.25.05.5l.15-.15.25.25.15-.05-.2.2-.15-.1z"/><path fill="#fff" d="m20.5 11.45.1-.2.2.05.2.1v.1q-.1.25-.35.15l-.15-.15zm-.4 2.7.05-.25.15.1.2.05v.2q-.05.25-.3.15l-.15-.2z"/><path fill="#040404" d="M.5 3.05q.35-1.7 1.2-3L5.45 0l-1.2.1-.3.3Q2.45 3.85 2.5 7.95q0 4.05 1 7.2l.15.6L5 17.15l-.15-.05.2.15.7.85.1.1-.1 1.15 1.7.2q-.2.45-1 .3h-.2l.3.9.15 1.1q-1.5-.2-2.15-1l.6-.25v-.25l-.4-.95-.85-.25-1.6-1.2L1.15 17l1.6-1.65q.95-.75-1.3.3l-.8-.05-.3-1.5L0 11.15l.15-4.1Q.7 7.5 1.3 6.9q.5-.65.2-.5L.2 6.3v-.55L1 6h.5l.65-.1.1-1.2q-.1-1-.8-2.7zM2.9 14.4 1.9 9q-.3 0 .4 3.1-.05.25.6 2.7z"/><path fill="#2a2a2a" d="m10.55 20.65-2.45-.1h.1l2.15-.75v.05l.2.6z"/><path fill="#121212" d="m10.55 20.65-.85.75-2.3.45h-.25l-.05-.4L6.7 20l2.25-.6-2.65-.35V19l.6-.25q1-.05 1.65-.65l-2.35-.2 1.3-.15q1.35 0 2.25-.55l-2 .05q-1.15.25-2.3-.5l2.75-.2q.6-.6.6-1.4l-.25-2.55-.1-.8-.05-.35q-1-.15-1.9-1.15h.1q.9.45 1.75.4v-.4l.15-.05h.3l.2-.05.35-.35Q8.95 9.35 8 9q-1.4-.65-2.6-1.45l3.35-.75 1.6-.5.2-.05.4-.05h.25v1.35l.05.65-.65 1.9q0 1 .3 2.5l.3 2.6-.05.95-.55 1.35q-.1.25-.05.55l.05.6-.2.75q-.2.25-.05.4l-2.15.75h-.1zm-5.5-3.4-.2-.15.15.05.35.15 2.15.05zm.3-7.9q1.3-.1 2.2.6l.1.05h-.4L5.4 9.4z"/><path fill="#2c2c2c" d="M.5 3.05 1.45 2q.7 1.7.8 2.7l-.1 1.2-.65.1H1l-.8-.25V5.3l.2-1.75zM.2 6.3l1.3.1q.3-.15-.2.5-.6.6-1.15.15zm.45 9.3.8.05q2.25-1.05 1.3-.3L1.15 17 1 16.8zm3.25 3.55.85.25.4.95v.25l-.6.25-.05-.75q0-.7-.6-.95m-1-4.75v.4q-.65-2.45-.6-2.7Q1.6 9 1.9 9z"/><path fill="#a87b0d" d="M1.5 10.35h.05q.8-.2.95.65.05.7-.5.9h-.15l-.65-.1-.05-.1-.1-.15H1v-.1l-.05-.25.1-.5q.15-.25.45-.35m.2 1.1.2-.1.05-.2.15.45.05-.05q.35-.5-.1-.95H2l-.15-.1-.05.1q.25.25-.05.45l-.1-.1q-.15-.05-.3.2l-.15-.05.2.2-.2.1v.1q.1.25.35.15l.15-.15zm-.35 2.5.05-.05-.05-.25.15-.3q.2-.25.45-.3l.1-.05q.8-.1.85.7.1.65-.45.85H1.8l-.2-.1-.15-.2v-.05zm.75.2.2-.05.15-.25.1.45.1-.05q.3-.5-.1-.9l-.1-.1H2.3q.25.25-.05.5l-.15-.15-.25.25-.15-.05.2.2-.2.05v.2q.05.25.3.15l.15-.2z"/><path fill="#ffd88e" d="m1.4 11.3-.2-.2.15.05q.15-.25.3-.2l.1.1q.3-.2.05-.45l.05-.1.15.1h.05q.45.45.1.95l-.05.05-.15-.45-.05.2-.2.1-.1-.2zm.5 2.7-.2-.2.15.05.25-.25.15.15q.3-.25.05-.5h.15l.1.1q.4.4.1.9l-.1.05-.1-.45-.15.25-.2.05-.05-.25z"/><path fill="#fff" d="M1.7 11.45v.05l-.15.15q-.25.1-.35-.15v-.1l.2-.1.2-.05zm.4 2.7.05.05-.15.2q-.25.1-.3-.15v-.2l.2-.05.15-.1z"/><path fill="#c2c2c2" d="m3.95 2-.1.3-.2-.25.05-.2zM3.6 3.1v.05l-.15.7Q3.2 5.4 3.2 8.15v2.3l.5 3.15.35 1.35.15.3h-.3l-.2-.45-.25-1.25-.5-2.9v-2.5q0-2.8.3-4.5l.1-.5.05-.1zm1.85 13.4.45.7.05.05h-.3l-.5-.75zm.75 1.1.35.7-.1.25v.05l-.2-.05.05-.3-.35-.6zm3.65 1.85.4-.15q.4-.25.2.05l-.3.35-.55.15zm-2.75.85v.1l-.35-.1zm-2.05-.45-.6-.1-.2-.35h.1l.65.1z"/><path fill="#747474" d="m3.7 1.85.1-.25.6-1.4.1-.2h.4l-.25.5-.6 1.25-.1.25zm.15.45-.25.8-.2-.05.25-1zm.35 12.95.15.2.6.4.5.65h-.3l-.5-.55-.75-.7zm1.75 2 .25.35-.25.05-.3-.4zm.5 1.35v.35l1.5.25.2.1.2.3v.1h.35l1.15-.25-.25.4h-.05l-.9.15h-.5l-1.1.15.05.15h-.35l.35.1.2 1.45h-.15L7 21.9l-.1-.75-.15-.85.1-.25-1.35-.15-.45-.05L5 19.5l1.35.2h1.7l.05-.1-.1-.1-.35-.1-.55-.15h-.65l-.25-.2v-.3l.05-.2z"/></g></defs></svg>