<?xml version="1.0" encoding="UTF-8" standalone="no"?>
<svg xmlns:ffdec="https://www.free-decompiler.com/flash" xmlns:xlink="http://www.w3.org/1999/xlink" ffdec:objectType="frame" height="22.45px" width="24.6px" xmlns="http://www.w3.org/2000/svg">
  <g transform="matrix(1.0, 0.0, 0.0, 1.0, 2.35, 0.2)">
    <use ffdec:characterId="1" height="22.45" transform="matrix(1.0, 0.0, 0.0, 1.0, -2.35, -0.2)" width="24.6" xlink:href="#shape0"/>
  </g>
  <defs>
    <g id="shape0" transform="matrix(1.0, 0.0, 0.0, 1.0, 2.35, 0.2)">
      <path d="M9.15 -0.15 L9.35 -0.1 10.4 -0.1 10.75 -0.1 10.9 -0.1 11.15 -0.15 16.85 -0.15 17.05 0.85 17.45 1.85 17.75 2.35 18.1 2.8 18.45 3.2 18.85 3.6 19.0 3.75 19.15 3.85 19.65 4.15 19.75 4.2 20.0 4.35 20.05 4.35 20.3 4.45 20.35 4.45 20.5 4.5 20.6 4.5 20.85 4.55 20.9 4.9 20.8 4.85 20.55 4.9 20.5 4.95 20.65 5.05 20.9 5.05 20.95 5.15 20.65 5.25 19.8 5.5 18.8 5.65 18.05 5.7 17.85 5.7 17.85 5.85 17.8 6.15 17.8 7.1 18.05 7.1 21.05 6.6 21.05 6.85 21.1 7.55 21.1 7.7 21.1 8.0 20.9 8.05 20.25 8.3 19.7 8.4 18.45 8.35 18.15 8.3 18.05 8.35 18.05 8.4 18.0 8.45 18.0 8.4 Q17.8 8.65 17.8 9.85 L17.8 11.2 17.9 12.25 17.95 12.5 18.45 13.55 Q19.15 14.4 20.4 14.4 L20.45 14.4 20.7 14.35 20.85 14.25 21.4 13.75 21.75 14.4 Q22.25 15.25 22.0 15.85 L21.55 16.35 21.2 16.6 Q20.75 16.95 21.0 16.9 L21.05 16.95 21.2 17.1 21.3 17.15 21.35 17.2 21.65 17.3 21.65 17.4 21.2 17.85 21.15 17.95 19.15 18.35 19.2 17.95 19.2 17.9 18.85 17.45 18.4 17.45 17.7 18.0 17.45 18.45 17.4 18.5 17.35 18.5 17.15 18.5 16.95 18.5 16.75 18.5 13.25 18.15 Q11.4 17.6 10.7 16.6 L10.55 16.35 10.35 15.75 10.5 15.7 10.55 15.7 10.6 15.65 10.65 15.6 10.4 15.25 10.35 15.25 10.15 14.7 10.55 14.0 10.5 13.9 Q10.1 13.4 10.1 13.0 L10.3 11.8 10.35 11.65 10.6 10.6 10.7 9.55 10.1 8.75 9.95 8.65 9.8 8.75 9.2 9.55 9.3 10.6 9.55 11.65 9.6 11.8 9.8 13.0 9.4 13.9 9.35 14.0 9.75 14.7 9.55 15.25 9.5 15.25 9.25 15.6 9.3 15.65 9.55 15.75 9.35 16.35 Q8.7 17.55 6.65 18.15 L-1.25 17.95 -1.3 17.85 -1.75 17.4 -1.75 17.3 -1.4 17.15 -1.15 16.95 -1.1 16.9 Q-0.85 16.95 -1.3 16.6 L-1.65 16.35 -2.1 15.85 Q-2.35 15.25 -1.85 14.4 -1.15 13.1 -1.3 12.15 L-1.3 11.75 Q-0.2 11.7 0.3 10.55 0.4 10.1 0.1 9.75 L-0.75 9.45 -1.25 9.15 -1.2 7.7 -1.2 7.55 -1.15 6.85 -1.15 6.6 1.85 7.1 2.1 7.1 2.05 5.7 -1.05 5.15 -0.95 4.55 Q0.4 4.35 1.45 3.2 2.7 1.85 3.0 0.15 L2.45 0.0 3.05 0.0 3.05 -0.1 9.15 -0.15 M2.1 -0.2 L2.35 -0.2 2.35 -0.1 Q2.3 0.95 1.5 2.6 0.65 4.25 -0.85 3.8 L-0.8 3.5 -0.7 2.9 0.15 -0.1 0.25 -0.2 2.1 -0.2 M16.1 -0.05 L16.2 0.2 16.3 0.15 16.4 -0.15 16.15 -0.15 16.1 -0.05 M17.8 -0.2 L19.65 -0.2 19.7 -0.15 Q20.05 0.35 20.6 2.9 L20.7 3.5 20.75 3.8 20.6 3.8 20.45 3.8 20.4 3.8 20.3 3.75 20.15 3.75 19.7 3.55 19.3 3.3 19.15 3.2 18.6 2.6 18.2 2.0 17.8 1.15 17.75 1.0 17.55 -0.15 17.55 -0.2 17.8 -0.2 M20.35 4.9 L20.1 4.65 Q19.85 4.6 19.95 4.85 L20.1 5.0 20.35 5.0 20.35 4.9 M16.55 0.75 L16.6 0.6 16.45 0.4 16.4 0.35 Q16.3 0.45 16.35 0.5 L16.4 0.75 16.5 0.85 16.55 0.75 M16.8 1.2 Q16.45 0.9 16.8 1.65 L17.0 1.7 16.9 1.45 16.8 1.2 M17.05 1.9 L17.0 2.05 17.4 2.55 17.45 2.4 17.3 2.1 Q17.2 1.85 17.05 1.9 M19.05 4.3 Q18.5 3.75 18.65 4.1 L18.8 4.3 19.05 4.4 19.05 4.3 M19.25 4.5 L19.6 4.75 19.7 4.7 19.7 4.6 19.4 4.45 Q19.2 4.35 19.25 4.5 M18.45 3.8 L18.15 3.5 Q18.0 3.4 18.05 3.6 L18.2 3.8 18.4 3.85 18.45 3.8 M17.95 3.1 Q17.4 2.6 17.55 2.95 L17.7 3.15 17.9 3.3 17.95 3.2 17.95 3.1" fill="#513624" fill-rule="evenodd" stroke="none"/>
      <path d="M-1.3 10.05 L-1.3 10.0 -1.25 9.15 -0.75 9.45 -0.8 9.5 -0.8 9.55 Q-0.65 10.6 -1.3 10.05" fill="#834b73" fill-rule="evenodd" stroke="none"/>
      <path d="M21.1 10.15 L20.75 10.5 Q20.35 10.5 20.35 10.1 20.35 9.75 20.65 9.75 20.6 10.45 21.1 10.15 M-0.75 9.45 L0.1 9.75 Q0.4 10.1 0.3 10.55 -0.2 11.7 -1.3 11.75 L-1.3 10.05 Q-0.65 10.6 -0.8 9.55 L-0.8 9.5 -0.75 9.45 M18.7 18.6 L18.6 18.6 18.35 18.5 Q18.25 18.35 18.3 18.1 18.35 17.8 18.65 17.8 L18.7 17.8 Q18.45 18.1 18.7 18.6" fill="#a8a8a8" fill-rule="evenodd" stroke="none"/>
      <path d="M18.85 3.6 L18.45 3.2 18.1 2.8 17.75 2.35 17.45 1.85 17.05 0.85 16.85 -0.15 16.85 -0.2 17.55 -0.2 17.55 -0.15 17.75 1.0 17.8 1.15 18.2 2.0 18.6 2.6 19.15 3.2 19.0 3.45 18.85 3.6 M20.6 3.8 L20.75 3.8 20.85 4.55 20.6 4.5 20.5 4.5 20.6 3.85 20.6 3.8 M21.05 5.6 L21.0 6.05 21.0 6.1 17.8 6.6 17.8 6.2 19.0 6.15 21.05 5.6 M18.45 8.35 L19.7 8.4 20.25 8.3 20.9 8.05 21.1 8.0 21.3 7.9 21.45 7.8 21.5 7.8 21.75 7.85 21.55 7.95 21.1 8.15 19.7 8.65 19.6 8.65 Q19.25 8.8 19.5 9.5 L19.65 9.8 19.7 9.85 20.7 10.85 20.65 10.85 20.6 10.85 Q19.7 10.8 19.2 10.3 L19.15 10.3 18.95 10.0 Q18.6 9.5 18.5 8.65 L18.45 8.35 M17.55 22.1 L17.5 22.1 17.05 22.15 17.15 22.1 16.65 22.2 16.75 21.85 17.3 19.95 17.85 20.65 17.7 21.15 17.55 21.95 17.55 22.0 17.55 22.1" fill="#000000" fill-rule="evenodd" stroke="none"/>
      <path d="M16.1 -0.05 L16.15 -0.15 16.4 -0.15 16.3 0.15 16.2 0.2 16.1 -0.05 M20.95 5.3 L20.95 5.35 21.05 5.6 19.0 6.15 17.8 6.2 17.8 6.15 17.85 5.85 Q19.65 5.85 20.95 5.3 M21.0 6.1 L21.05 6.6 18.05 7.1 17.8 7.1 17.8 6.6 21.0 6.1 M20.35 4.9 L20.35 5.0 20.1 5.0 19.95 4.85 Q19.85 4.6 20.1 4.65 L20.35 4.9 M20.9 4.9 L20.95 4.95 21.0 5.0 20.9 5.05 20.65 5.05 20.5 4.95 20.55 4.9 20.8 4.85 20.9 4.9 M21.75 7.85 L21.85 7.9 21.9 7.95 22.05 8.5 22.1 9.2 22.15 9.55 Q22.25 10.2 21.5 10.8 L21.15 11.05 21.1 11.05 20.75 10.8 20.8 10.8 20.8 10.75 21.0 10.65 21.75 9.8 21.75 9.7 Q21.85 8.65 21.55 7.95 L21.75 7.85 M18.35 10.2 L18.25 10.0 17.95 9.2 17.95 9.05 18.0 8.45 Q18.35 10.45 19.25 10.95 L19.8 11.25 19.1 11.0 18.65 10.65 18.35 10.2 M17.4 18.5 L17.45 18.45 17.7 18.0 18.4 17.45 18.85 17.45 19.2 17.9 19.2 17.95 19.15 18.35 19.0 18.65 18.8 19.1 18.3 20.15 18.3 20.2 18.2 20.7 18.1 21.0 17.85 20.65 Q18.1 19.45 18.55 18.85 L18.65 18.7 18.7 18.6 18.75 18.6 19.0 18.15 18.75 17.8 Q18.4 17.65 18.1 18.0 L17.8 18.5 17.65 18.8 17.45 19.4 17.3 19.95 17.0 19.55 17.4 18.5 M17.95 3.1 L17.95 3.2 17.9 3.3 17.7 3.15 17.55 2.95 Q17.4 2.6 17.95 3.1 M18.45 3.8 L18.4 3.85 18.2 3.8 18.05 3.6 Q18.0 3.4 18.15 3.5 L18.45 3.8 M19.05 4.3 L19.05 4.4 18.8 4.3 18.65 4.1 Q18.5 3.75 19.05 4.3 M19.25 4.5 Q19.2 4.35 19.4 4.45 L19.7 4.6 19.7 4.7 19.6 4.75 19.25 4.5 M17.0 2.05 L17.05 1.9 Q17.2 1.85 17.3 2.1 L17.45 2.4 17.4 2.55 17.0 2.05 M16.8 1.2 L16.9 1.45 17.0 1.7 16.8 1.65 Q16.45 0.9 16.8 1.2 M16.6 0.6 L16.55 0.75 16.5 0.85 16.4 0.75 16.35 0.5 Q16.3 0.45 16.4 0.35 L16.45 0.4 16.6 0.6" fill="#f0ac00" fill-rule="evenodd" stroke="none"/>
      <path d="M18.85 3.6 L19.0 3.45 19.15 3.2 19.3 3.3 19.7 3.55 20.15 3.75 20.3 3.75 20.4 3.8 20.45 3.8 20.6 3.8 20.6 3.85 20.5 4.5 20.35 4.45 20.3 4.45 20.05 4.35 20.0 4.35 19.75 4.2 19.65 4.15 19.15 3.85 19.0 3.75 18.85 3.6 M20.7 10.85 L19.7 9.85 19.65 9.8 19.5 9.5 Q19.25 8.8 19.6 8.65 L19.7 8.65 21.1 8.15 21.55 7.95 Q21.85 8.65 21.75 9.7 L21.75 9.8 21.0 10.65 20.8 10.75 20.8 10.8 20.75 10.8 20.7 10.85 M21.1 10.15 Q21.1 9.75 20.7 9.75 L20.65 9.75 Q20.35 9.75 20.35 10.1 20.35 10.5 20.75 10.5 L21.1 10.15 M18.75 17.8 L18.7 17.8 18.65 17.8 Q18.35 17.8 18.3 18.1 18.25 18.35 18.35 18.5 L18.6 18.6 18.7 18.6 18.65 18.7 18.55 18.85 Q18.1 19.45 17.85 20.65 L17.3 19.95 17.45 19.4 17.65 18.8 17.8 18.5 18.1 18.0 Q18.4 17.65 18.75 17.8" fill="#413a3f" fill-rule="evenodd" stroke="none"/>
      <path d="M20.65 9.75 L20.7 9.75 Q21.1 9.75 21.1 10.15 20.6 10.45 20.65 9.75 M18.7 17.8 L18.75 17.8 19.0 18.15 18.75 18.6 18.7 18.6 Q18.45 18.1 18.7 17.8" fill="#ffffff" fill-rule="evenodd" stroke="none"/>
      <path d="M17.85 5.85 L17.85 5.7 18.05 5.7 18.8 5.65 19.8 5.5 20.65 5.25 20.95 5.15 20.95 5.3 Q19.65 5.85 17.85 5.85 M18.0 8.45 L18.05 8.4 18.05 8.35 18.15 8.3 18.45 8.35 18.5 8.65 Q18.6 9.5 18.95 10.0 L19.15 10.3 19.2 10.3 Q19.7 10.8 20.6 10.85 L20.65 10.85 20.7 10.85 20.75 10.8 21.1 11.05 21.05 11.1 20.3 11.3 19.95 11.25 19.8 11.25 19.25 10.95 Q18.35 10.45 18.0 8.45 M17.95 21.7 L17.9 22.05 17.55 22.1 17.55 22.0 17.55 21.95 17.7 21.15 17.85 20.65 18.1 21.0 18.0 21.55 17.95 21.7 M16.65 22.2 L16.45 22.25 16.35 22.1 16.4 21.85 16.95 19.7 17.0 19.55 17.3 19.95 16.75 21.85 16.65 22.2" fill="#cd7203" fill-rule="evenodd" stroke="none"/>
      <path d="M20.85 14.25 L20.7 14.35 20.45 14.4 20.4 14.4 Q19.15 14.4 18.45 13.55 L17.95 12.5 17.9 12.25 17.8 11.2 17.8 9.85 Q17.8 8.65 18.0 8.4 L18.0 8.45 17.95 9.05 17.95 9.2 18.25 10.0 18.35 10.2 18.45 11.9 18.6 12.45 Q19.05 14.1 20.7 14.25 L20.85 14.25 M19.15 18.35 L21.15 17.95 21.2 17.85 21.65 17.4 21.65 17.3 21.35 17.2 21.3 17.15 21.2 17.1 21.05 16.95 21.8 17.1 22.0 17.25 22.05 17.3 Q21.35 18.6 19.25 18.65 L19.0 18.65 19.15 18.35 M16.4 21.85 L16.35 21.85 16.15 21.75 Q16.5 20.25 17.05 18.9 L16.5 19.2 Q15.3 20.45 15.45 21.9 L15.25 21.9 Q12.8 22.0 11.1 20.8 L10.35 20.2 10.1 20.0 9.45 19.15 9.7 17.5 9.85 15.85 9.9 15.85 9.95 15.7 10.0 15.7 10.65 15.6 10.6 15.65 10.55 15.7 10.5 15.7 10.35 15.75 10.55 16.35 10.7 16.6 Q11.4 17.6 13.25 18.15 L16.75 18.5 16.95 18.5 17.15 18.5 17.35 18.5 17.4 18.5 17.0 19.55 16.95 19.7 16.4 21.85" fill="#857b77" fill-rule="evenodd" stroke="none"/>
      <path d="M22.1 9.2 L22.15 8.95 22.25 9.9 22.05 12.75 22.05 12.8 21.45 13.7 21.4 13.75 20.85 14.25 20.7 14.25 Q19.05 14.1 18.6 12.45 L18.45 11.9 18.35 10.2 18.65 10.65 19.1 11.0 19.8 11.25 19.95 11.25 20.3 11.3 21.05 11.1 21.1 11.05 21.15 11.05 21.5 10.8 Q22.25 10.2 22.15 9.55 L22.1 9.2 M21.8 17.1 L22.15 17.25 22.2 17.25 21.85 18.45 21.4 19.45 21.05 20.85 Q20.6 21.5 18.9 21.6 L17.95 21.7 18.0 21.55 18.1 21.0 18.2 20.7 18.3 20.2 18.3 20.15 18.8 19.1 19.0 18.65 19.25 18.65 Q21.35 18.6 22.05 17.3 L22.0 17.25 21.8 17.1 M16.15 21.75 L15.45 21.9 Q15.3 20.45 16.5 19.2 L17.05 18.9 Q16.5 20.25 16.15 21.75" fill="#cccccc" fill-rule="evenodd" stroke="none"/>
      <path d="M9.15 -0.15 L9.35 -0.1 Q9.05 1.0 9.05 1.85 9.0 3.7 9.35 5.45 L9.7 6.85 9.9 7.55 9.95 7.6 10.3 7.7 10.45 6.9 10.7 3.5 10.75 -0.1 10.9 -0.1 10.95 2.35 10.8 6.25 10.6 7.85 11.1 8.2 11.2 7.2 11.35 5.4 11.2 0.5 11.15 -0.15 11.7 -0.15 11.8 3.45 11.6 7.4 11.4 8.45 12.0 9.2 12.35 10.0 Q13.0 11.7 13.0 12.8 13.0 13.9 13.9 14.7 14.8 15.5 16.45 15.9 L18.55 16.2 14.0 15.9 13.65 15.8 Q15.65 17.15 18.05 16.65 L21.5 15.8 22.0 15.85 21.55 16.35 21.2 16.6 18.85 17.0 Q16.95 17.25 15.05 17.0 L14.15 16.8 Q15.55 18.15 17.7 18.0 L17.45 18.45 17.4 18.5 17.35 18.5 17.15 18.5 16.95 18.5 16.75 18.5 13.25 18.15 Q11.4 17.6 10.7 16.6 L10.55 16.35 10.5 16.2 11.65 16.25 10.7 14.85 10.65 14.75 Q10.75 14.5 11.0 14.2 L11.05 14.15 Q11.0 13.7 10.6 13.4 L10.55 13.35 10.35 11.65 10.6 10.6 10.7 9.55 10.1 8.75 9.95 8.65 9.8 8.75 9.2 9.55 9.3 10.6 9.55 11.65 9.35 13.35 9.3 13.4 Q8.9 13.7 8.85 14.15 L8.9 14.2 9.25 14.75 9.2 14.85 8.25 16.25 9.4 16.2 9.35 16.35 Q8.7 17.55 6.65 18.15 L-1.25 17.95 -1.3 17.85 -1.75 17.4 -1.75 17.3 -1.4 17.15 Q-1.25 17.2 -1.05 17.35 0.2 18.05 2.1 18.0 4.3 18.2 5.75 16.8 L4.85 17.0 Q2.95 17.25 1.05 17.0 -0.3 17.05 -1.3 16.6 L-1.65 16.35 -2.1 15.85 -1.6 15.8 1.85 16.65 Q4.25 17.15 6.25 15.8 L5.9 15.9 1.35 16.2 3.45 15.9 Q5.1 15.5 6.0 14.7 6.9 13.9 6.9 12.8 6.9 11.7 7.55 10.0 L7.9 9.2 8.8 8.2 8.45 7.3 Q8.05 5.3 8.1 3.35 8.15 1.4 8.35 -0.15 L8.75 -0.15 Q8.25 2.5 8.6 5.2 L9.05 7.0 9.15 7.45 9.65 7.5 9.25 6.35 Q8.9 5.25 8.85 3.4 8.75 1.55 9.15 -0.15 M2.1 -0.2 L2.35 -0.2 2.35 -0.1 Q2.3 0.95 1.5 2.6 0.65 4.25 -0.85 3.8 L-0.8 3.5 -0.65 3.5 Q1.15 2.95 1.65 1.45 L2.1 -0.1 2.1 -0.2 M17.8 -0.15 L18.25 1.45 Q18.75 2.95 20.55 3.5 L20.7 3.5 20.75 3.8 20.6 3.8 20.45 3.8 20.4 3.8 20.3 3.75 20.15 3.75 19.7 3.55 19.3 3.3 19.15 3.2 18.6 2.6 18.2 2.0 17.8 1.15 17.75 1.0 17.55 -0.15 17.55 -0.2 17.8 -0.2 17.8 -0.15 M21.1 7.7 L21.1 8.0 20.9 8.05 20.25 8.3 19.7 8.4 18.45 8.35 18.15 8.3 18.05 8.35 18.05 8.4 18.0 8.45 18.0 8.4 Q17.8 8.65 17.8 9.85 L17.8 11.2 17.9 12.25 17.95 12.5 18.45 13.55 Q19.15 14.4 20.4 14.4 L20.45 14.4 20.7 14.35 20.7 14.4 19.5 14.45 18.45 14.8 16.3 14.7 18.5 14.0 18.05 13.45 Q17.35 12.15 17.45 10.25 L17.5 9.5 Q17.55 8.8 17.9 8.0 17.95 8.2 19.0 8.3 20.05 8.35 21.1 7.55 L21.1 7.7 M20.95 17.35 L21.3 17.15 21.35 17.2 21.65 17.3 21.65 17.4 21.2 17.85 21.15 17.95 19.15 18.35 19.2 17.95 20.95 17.35 M2.0 8.0 L2.4 9.5 2.45 10.25 Q2.55 12.15 1.85 13.45 L1.4 14.0 3.6 14.7 1.45 14.8 0.4 14.45 -0.8 14.4 -0.75 13.85 Q0.95 12.5 1.0 10.8 L1.1 9.85 0.1 9.75 -0.75 9.45 -1.25 9.15 -1.2 7.7 -1.2 7.55 Q-0.15 8.35 0.9 8.3 L2.0 8.0" fill="#000000" fill-opacity="0.29803923" fill-rule="evenodd" stroke="none"/>
      <path d="M0.75 3.2 L1.3 2.6 1.7 2.0 2.15 1.0 2.35 -0.1 2.35 -0.2 3.05 -0.2 3.05 -0.1 2.45 1.85 1.45 3.2 1.05 3.6 0.75 3.2 M-0.6 4.5 L-0.95 4.55 -0.85 3.8 -0.7 3.8 -0.6 4.5" fill="#000000" fill-rule="evenodd" stroke="none"/>
      <path d="M0.75 3.2 L1.05 3.6 0.9 3.75 0.75 3.85 0.25 4.15 -0.1 4.35 -0.15 4.35 -0.4 4.45 -0.45 4.45 -0.6 4.5 -0.7 3.8 -0.55 3.8 -0.5 3.8 -0.4 3.75 -0.25 3.75 0.2 3.55 0.6 3.3 0.75 3.2" fill="#413a3f" fill-rule="evenodd" stroke="none"/>
      <path d="M9.55 20.2 L8.8 20.8 Q7.1 22.0 4.65 21.9 L4.45 21.9 Q4.6 20.45 3.4 19.2 3.3 19.1 2.85 18.9 L3.75 21.75 3.55 21.85 3.4 21.85 2.4 18.8 0.65 18.65 Q-1.45 18.6 -2.15 17.3 L-2.1 17.25 -1.9 17.1 -1.15 16.95 -1.75 17.3 -1.75 17.4 -1.3 17.85 -1.25 17.95 1.75 18.45 2.3 18.5 2.55 18.5 2.95 18.5 3.15 18.5 6.65 18.15 Q8.45 17.6 9.2 16.6 L9.35 16.35 9.55 15.75 9.4 15.7 9.25 15.6 9.9 15.7 9.45 16.65 Q9.05 17.2 8.95 18.4 8.8 19.65 9.55 20.2" fill="#857b77" fill-rule="evenodd" stroke="none"/>
      <path d="M9.9 15.7 L9.95 15.7 10.0 15.85 10.05 15.85 Q9.95 16.3 10.2 17.5 L10.45 19.15 9.8 20.0 9.55 20.2 Q8.8 19.65 8.95 18.4 9.05 17.2 9.45 16.65 L9.9 15.7 M4.45 21.9 L3.75 21.75 2.85 18.9 Q3.3 19.1 3.4 19.2 4.6 20.45 4.45 21.9 M3.4 21.85 L3.3 21.85 2.65 21.8 2.1 21.7 1.0 21.6 Q-0.7 21.5 -1.15 20.85 L-1.5 19.45 -1.95 18.45 -2.3 17.25 -2.25 17.25 Q-2.25 17.2 -1.9 17.1 L-2.1 17.25 -2.15 17.3 Q-1.45 18.6 0.65 18.65 L2.4 18.8 3.4 21.85" fill="#cccccc" fill-rule="evenodd" stroke="none"/>
      <path d="M2.35 22.1 L2.0 22.05 1.9 21.55 1.8 21.0 1.7 20.7 1.6 20.2 1.6 20.15 1.1 19.1 Q0.6 18.15 0.7 17.9 L1.05 17.45 1.5 17.45 Q2.15 17.75 2.45 18.45 L2.9 19.55 2.95 19.7 3.55 22.1 3.45 22.25 3.25 22.2 2.6 19.95 2.45 19.4 Q1.9 17.5 1.15 17.8 0.7 17.9 1.35 18.85 1.8 19.45 2.05 20.65 L2.35 22.1" fill="#f0ac00" fill-rule="evenodd" stroke="none"/>
      <path d="M3.25 22.2 L2.75 22.1 2.85 22.15 2.4 22.1 2.35 22.1 2.05 20.65 Q1.8 19.45 1.35 18.85 0.7 17.9 1.15 17.8 1.9 17.5 2.45 19.4 L2.6 19.95 3.25 22.2" fill="#413a3f" fill-rule="evenodd" stroke="none"/>
      <path d="M2.6 19.95 L2.9 19.55 2.95 19.7 3.55 22.1 3.45 22.25 3.25 22.2 2.6 19.95 M2.35 22.1 L2.0 22.05 1.9 21.55 1.8 21.0 2.05 20.65 2.35 22.1" fill="#cd7203" fill-rule="evenodd" stroke="none"/>
      <path d="M3.25 22.2 L2.75 22.1 2.85 22.15 2.4 22.1 2.35 22.1 2.05 20.65 2.6 19.95 3.25 22.2" fill="#000000" fill-rule="evenodd" stroke="none"/>
      <path d="M1.15 18.6 L0.9 18.15 Q0.9 17.8 1.2 17.8 1.45 18.1 1.15 18.6" fill="#ffffff" fill-rule="evenodd" stroke="none"/>
      <path d="M1.2 17.8 L1.25 17.8 1.6 18.1 1.55 18.5 1.3 18.6 1.15 18.6 Q1.45 18.1 1.2 17.8" fill="#a8a8a8" fill-rule="evenodd" stroke="none"/>
      <path d="M2.1 6.15 L2.1 6.6 -1.1 6.1 -1.1 6.05 -1.15 5.6 0.9 6.15 2.1 6.15" fill="#000000" fill-rule="evenodd" stroke="none"/>
      <path d="M-1.05 5.3 L2.05 5.85 2.1 6.15 0.9 6.15 -1.15 5.6 -1.05 5.35 -1.05 5.3 M2.1 6.6 L2.1 7.1 1.85 7.1 -1.15 6.6 -1.1 6.1 2.1 6.6" fill="#f0ac00" fill-rule="evenodd" stroke="none"/>
      <path d="M-1.05 5.3 L-1.05 5.2 -1.05 5.15 -0.75 5.25 1.85 5.7 2.05 5.7 2.05 5.85 -1.05 5.3" fill="#cd7203" fill-rule="evenodd" stroke="none"/>
      <path d="M1.55 9.65 L1.8 9.15 1.9 8.4 Q2.1 8.65 2.1 9.85 L2.1 11.2 2.0 12.25 1.95 12.5 1.45 13.55 Q0.75 14.4 -0.5 14.4 L-0.55 14.4 -0.95 14.25 Q0.85 14.2 1.3 12.45 L1.45 11.9 1.55 9.65" fill="#857b77" fill-rule="evenodd" stroke="none"/>
      <path d="M-0.95 14.25 L-1.55 13.7 -2.15 12.8 -2.15 12.75 -2.35 9.9 -2.25 8.95 Q-2.2 10.05 -1.2 11.05 L-1.15 11.1 -0.4 10.95 -0.1 10.85 0.75 10.45 0.95 10.35 1.25 10.05 1.55 9.65 1.45 11.9 1.3 12.45 Q0.85 14.2 -0.95 14.25" fill="#cccccc" fill-rule="evenodd" stroke="none"/>
      <path d="M-1.85 7.85 L-1.65 7.95 0.2 8.65 0.3 8.65 Q0.65 8.8 0.4 9.5 L-0.8 10.85 -1.1 11.05 -1.15 11.05 -1.1 11.1 -1.15 11.1 -1.2 11.05 Q-2.35 10.4 -2.25 9.55 L-2.15 8.5 -2.0 7.95 -1.95 7.9 -1.85 7.85" fill="#413a3f" fill-rule="evenodd" stroke="none"/>
      <path d="M-1.85 7.85 L-1.6 7.8 -1.55 7.8 -1.4 7.9 -1.0 8.05 -0.35 8.3 0.2 8.4 1.45 8.35 1.75 8.3 1.9 8.45 1.95 9.05 1.55 10.15 0.65 10.95 -0.4 11.2 -1.1 11.1 -1.15 11.05 -1.1 11.05 -0.8 10.85 0.4 9.5 Q0.65 8.8 0.3 8.65 L0.2 8.65 -1.65 7.95 -1.85 7.85" fill="#000000" fill-rule="evenodd" stroke="none"/>
      <path d="M-1.85 7.85 L-1.6 7.8 -1.55 7.8 -1.65 7.95 -1.85 7.85" fill="#000000" fill-rule="evenodd" stroke="none"/>
      <path d="M1.9 8.45 L1.95 9.05 1.65 10.0 1.25 10.65 0.8 11.0 0.1 11.25 0.65 10.95 Q1.55 10.45 1.9 8.45 M-1.25 11.05 L-1.6 10.8 Q-2.35 10.2 -2.25 9.55 L-2.15 8.5 -2.0 7.95 -1.95 7.9 -1.85 7.85 -1.65 7.95 Q-1.95 8.65 -1.85 9.7 L-1.85 9.8 -1.1 10.65 -0.9 10.75 -0.9 10.8 -0.85 10.8 -1.25 11.05 M-1.15 11.1 L-1.05 11.05 -1.15 11.1" fill="#f0ac00" fill-rule="evenodd" stroke="none"/>
      <path d="M-0.85 10.8 L-0.8 10.85 -0.75 10.85 -0.7 10.85 Q0.2 10.8 0.7 10.3 L0.75 10.3 0.95 10.0 1.4 8.65 1.45 8.35 1.75 8.3 1.85 8.35 1.85 8.4 1.9 8.45 Q1.55 10.45 0.65 10.95 L0.1 11.25 -0.05 11.25 -0.4 11.3 -1.15 11.1 -1.2 11.05 -1.25 11.05 -0.85 10.8 M-1.15 11.1 L-1.05 11.05 -1.15 11.1" fill="#cd7203" fill-rule="evenodd" stroke="none"/>
      <path d="M-1.2 10.15 Q-1.2 9.75 -0.8 9.75 L-0.75 9.75 Q-0.7 10.45 -1.2 10.15" fill="#ffffff" fill-rule="evenodd" stroke="none"/>
      <path d="M-0.75 9.75 Q-0.45 9.75 -0.45 10.1 -0.45 10.5 -0.85 10.5 L-1.2 10.15 Q-0.7 10.45 -0.75 9.75" fill="#a8a8a8" fill-rule="evenodd" stroke="none"/>
      <path d="M3.5 -0.15 L3.75 -0.15 3.8 -0.1 3.8 -0.05 3.7 0.2 3.6 0.15 3.5 -0.1 3.5 -0.15 M3.55 0.5 L3.5 0.75 3.4 0.85 3.35 0.75 Q3.25 0.75 3.3 0.6 L3.45 0.4 3.5 0.35 3.55 0.5 M3.1 1.2 Q3.45 0.9 3.1 1.65 L2.9 1.7 3.0 1.45 3.1 1.2 M2.85 1.9 L2.9 2.05 2.5 2.55 2.45 2.4 2.6 2.1 Q2.7 1.85 2.85 1.9 M2.0 3.3 L1.95 3.2 1.95 3.1 Q2.5 2.6 2.35 2.95 L2.2 3.15 2.0 3.3 M1.85 3.6 L1.7 3.8 1.5 3.85 1.45 3.8 1.75 3.5 1.85 3.6 M0.85 4.4 L0.85 4.3 Q1.4 3.75 1.25 4.1 L1.1 4.3 0.85 4.4 M0.5 4.45 Q0.7 4.35 0.65 4.5 L0.3 4.75 0.2 4.7 0.2 4.6 Q0.2 4.55 0.5 4.45 M-0.2 4.65 Q0.05 4.6 -0.05 4.85 L-0.2 5.0 -0.45 5.0 -0.45 4.9 -0.2 4.65 M-1.0 5.05 L-1.1 5.0 -1.05 4.95 Q-1.05 4.85 -0.9 4.85 L-0.65 4.9 -0.6 4.95 -0.75 5.05 -1.0 5.05" fill="#f0ac00" fill-rule="evenodd" stroke="none"/>
    </g>
  </defs>
</svg>
