<svg xmlns="http://www.w3.org/2000/svg" xmlns:ffdec="https://www.free-decompiler.com/flash" xmlns:xlink="http://www.w3.org/1999/xlink" ffdec:objectType="frame" width="21.1" height="19.3"><use ffdec:characterId="1" xlink:href="#a" width="21.1" height="19.3"/><defs><g id="a"><path fill="#081b2d" fill-rule="evenodd" d="M6.85 6.65q-3.75-.8-4.75-1.8 3.05 1.05 4 1.05-1.9-.7-2.45-1.25 3.1 1.05 7.8 1.45 4.2.35 5.3-.05l-1.9.45h-1.2l3.7.65q-3.3.4-7.6.15t-5.5-.8z"/><path fill="#081b2d" fill-rule="evenodd" d="m5.25 8.05 1.35-.4L8.4 7l2.35.05 4.3-.1q-.1.25-1.15.45l-2.15.25 1.15 1-1.5-.6-1.5-.2-2.25.1-1.95.1z"/><path fill="#06121c" fill-rule="evenodd" d="M.85.05q.6.65 8.95 1.3l10.65.4.25 1.3q-.65 1.05-10.15.1Q1.35 2.2.6 1.55l.05-1q0-.7.2-.5"/><path fill="#081b2d" fill-rule="evenodd" d="m6.5 8.9.55-.5 1.15-.6.4-.15 1.6-.1q-.3.05-.7.4l-.45.45q-.1.15.1.65l-.25.9.05 6.45-.2.25-.2.05-.05-3.35.05-3.4q0-.45-.35-.55l-.85-.05 1.3-.75-.8-.05zM20.9 4l-.45.4-4-.2 2.2-.15 2.2-.3q.2-.1.05.25M20.35 5.8l-1.6-.15-2.5-.55 2.25.1 2.1-.05q.25 0-.25.65"/><path fill="#191f21" fill-rule="evenodd" d="m2.7 15.8 2.95.05 3.5-.65.15 1.15-.15.95-2.7.5q-2.35.2-3.2-.05l-.45-.95q-.2-.7-.1-1"/><path fill="none" stroke="#bcbcbc" stroke-linecap="round" stroke-linejoin="round" stroke-width=".55" d="m8.1 17.45-1.75.2-.2-1.8 1.75-.2z"/><path fill="#ddd" fill-rule="evenodd" d="M6.15 15.85q-.05-.15.15-.05l.25.2.1 1.3.35.1.05.15-.7.1z"/><path fill="#bcbcbc" fill-rule="evenodd" d="M6.85 16.9 5.8 17l-.05-.45 1.05-.1z"/><path fill="none" stroke="#bcbcbc" stroke-linecap="round" stroke-linejoin="round" stroke-width=".25" d="M6.85 16.9 5.8 17l-.05-.45 1.05-.1z"/><path fill="#ddd" fill-rule="evenodd" d="m5.7 16.6.1-.15 1.05-.05.05.1v.1l-1.2.1z"/><path fill="#bcbcbc" fill-rule="evenodd" d="M5.3 16.4q.1.25-.2.35l-.4-.15q-.1-.25.2-.35t.4.15"/><path fill="#ebeced" fill-rule="evenodd" d="m4.8 16.55.05-.15q.15-.15.15.05l-.05.15z"/><path fill="#bcbcbc" fill-rule="evenodd" d="M5.4 17.25v.2l-.15.15-.4-.15q-.1-.3.2-.35.25-.15.35.15"/><path fill="#ebeced" fill-rule="evenodd" d="m4.95 17.4.05-.2.15.05-.05.2z"/><path fill="#bcbcbc" fill-rule="evenodd" d="M4.05 16.4q.15.25-.2.35-.25.1-.35-.15-.15-.25.15-.35t.4.15"/><path fill="#ebeced" fill-rule="evenodd" d="M3.6 16.55q-.15-.15.05-.15l.15.05-.05.15z"/><path fill="#bcbcbc" fill-rule="evenodd" d="m4.2 17.25-.2.35q-.3.1-.4-.15t.2-.35q.3-.2.4.15"/><path fill="#ebeced" fill-rule="evenodd" d="m3.7 17.4.05-.2.2.05-.05.2z"/><path fill="#bcbcbc" fill-rule="evenodd" d="m9 15.95-.2.35q-.3.1-.4-.2-.1-.25.25-.35t.35.2"/><path fill="#ebeced" fill-rule="evenodd" d="M8.55 16.05q-.05-.15.05-.15l.15.05-.1.15z"/><path fill="#bcbcbc" fill-rule="evenodd" d="m9.05 16.8-.25.35q-.35.1-.35-.2-.1-.25.2-.35t.4.2"/><path fill="#ebeced" fill-rule="evenodd" d="m8.55 16.9.05-.15.15.05-.05.15q-.15.15-.15-.05"/><path fill="#183349" fill-rule="evenodd" d="m11.55 16.3 1.95-.05q2.15.65 2.05 1.05-.1 1.4-1.95 1.5-1.75.05-2.15-.5.25-1 .1-2"/><path fill="#183349" fill-rule="evenodd" d="m17.85 19.1-1.2-.1q-1.15-.55-1.1-1.7 0-.3 1.2-.25l1.3.05q.15-.1.15.1l-.15.5q-.3.35-.2 1.4"/><path fill="#071016" fill-rule="evenodd" d="m11.5 18.05 1.65.4 1.4-.2 1-.95q-.3 1.65-2.1 1.6l-1.9-.5-.1-.1zM17.9 19.05l-.2.15q-2.05 0-2.15-1.8.85 1.85 2.3 1.5z"/><path fill-rule="evenodd" d="M17.85 18.45q-1.9.15-6.3-1.15v-.75l3.8.85 2.7.3z"/><path fill="none" stroke="#bcbcbc" stroke-linecap="round" stroke-linejoin="round" stroke-width=".55" d="m16.35 18.7-1.7-.2.25-1.8 1.7.2z"/><path fill="#ddd" fill-rule="evenodd" d="M14.9 16.7q0-.2.15-.05l.15.25-.15 1.3.25.2.05.15-.4.05-.3-.1z"/><path fill="#bcbcbc" fill-rule="evenodd" d="m15.3 17.9-1.05-.15.05-.45 1.1.1z"/><path fill="none" stroke="#bcbcbc" stroke-linecap="round" stroke-linejoin="round" stroke-width=".25" d="m15.3 17.9-1.05-.15.05-.45 1.1.1z"/><path fill="#ddd" fill-rule="evenodd" d="M14.25 17.3q.05-.1.15-.1l1 .15.05.25-1.2-.2z"/><path fill="#212121" fill-rule="evenodd" d="M12 8.7q0-.5-.7-.7l-1.15-.15-.85.2q-.4.35-.25.6.2.35-.1.9-.2.5 0 6.85-.25.5-2.2.7-2.15.2-3.65-.6-.45-1.05-1.4-5.25L.6 6 .25 4.55l-.2-.7L.3 2.6l.5-1.15L20.45 3l.2.25.35.25q.25.05-.3.9v.75l-.35 1L20 7.5 19 12l-1.3 5.1-2.8.1q-2.55-.25-3.1-.9.2-.85.2-7.6"/><path fill-rule="evenodd" d="M3.65 4.65q3.1 1.05 7.8 1.45 4.2.35 5.3-.05l-1.9.45h-1.2l3.7.65q-3.3.4-7.6.15t-5.5-.8l2.6.15q-3.75-.8-4.75-1.8 3.05 1.05 4 1.05-1.9-.7-2.45-1.25"/><path fill-rule="evenodd" d="m8.4 7 2.35.05 4.3-.1q-.1.25-1.15.45l-2.15.25 1.15 1-1.5-.6-1.5-.2-2.25.1-1.95.1h-.45l1.35-.4z"/><path fill="#4c081a" fill-rule="evenodd" d="M.85.05q.6.65 8.95 1.3l10.65.4.25 1.3q-.65 1.05-10.15.1Q1.35 2.2.6 1.55l.05-1q0-.7.2-.5"/><path fill="#0a0a0a" fill-rule="evenodd" d="M.35.6H.6q1.1 1.05 9.3 3.35Q18.35 6.3 20.3 5.9l.15.2-1.4.4q-2.2.15-6.35-1-4.1-1.15-8.65-2.8L.35 1.25z"/><path fill="#3c3e3f" fill-rule="evenodd" d="M.35.6Q1.3 1.6 9 3.9q8.2 2.45 11.45 2.2l-.15 1.3-.35.6q-1.8.5-10.2-1.75T.1 2.7q-.2-.35 0-1.25z"/><path fill="#bcbcbc" fill-rule="evenodd" d="M1.3 1.7 1 2q-.3 0-.3-.3l.3-.25q.3 0 .3.25"/><path fill="#ebeced" fill-rule="evenodd" d="M.85 1.65q-.1-.1.1-.1l.1.1-.1.15z"/><path fill="#bcbcbc" fill-rule="evenodd" d="m1.15 2.55-.3.25-.35-.25q0-.3.35-.3z"/><path fill="#ebeced" fill-rule="evenodd" d="m.65 2.5.1-.1.1.1-.1.1z"/><path fill="#bcbcbc" fill-rule="evenodd" d="M2.55 2.2q0 .25-.3.25-.35 0-.35-.25 0-.3.35-.3z"/><path fill="#ebeced" fill-rule="evenodd" d="m2.05 2.15.1-.1.1.1-.1.1z"/><path fill="#bcbcbc" fill-rule="evenodd" d="m2.35 3.05-.3.25-.3-.25q0-.3.3-.3z"/><path fill="#ebeced" fill-rule="evenodd" d="m1.85 3 .1-.15.15.15-.1.1z"/><path fill="#bcbcbc" fill-rule="evenodd" d="m3.95 2.7-.35.25-.3-.25q0-.3.3-.3.35 0 .35.3"/><path fill="#ebeced" fill-rule="evenodd" d="m3.45 2.65.1-.15.1.15-.1.1z"/><path fill="#bcbcbc" fill-rule="evenodd" d="m3.75 3.5-.3.3q-.35 0-.35-.3l.35-.25q.3 0 .3.25"/><path fill="#ebeced" fill-rule="evenodd" d="m3.25 3.5.1-.15.15.1-.1.15z"/><path fill="#bcbcbc" fill-rule="evenodd" d="m5.2 3.15-.35.3q-.3 0-.3-.3 0-.25.3-.25.35 0 .35.25"/><path fill="#ebeced" fill-rule="evenodd" d="M4.7 3.15 4.8 3l.1.1-.1.15z"/><path fill="#bcbcbc" fill-rule="evenodd" d="m5 4-.3.3q-.3 0-.3-.3 0-.25.3-.25z"/><path fill="#ebeced" fill-rule="evenodd" d="m4.5 3.95.1-.1.15.1-.1.15z"/><path fill="#bcbcbc" fill-rule="evenodd" d="m6.5 3.6-.3.25-.35-.25q0-.3.35-.3z"/><path fill="#ebeced" fill-rule="evenodd" d="m6 3.55.1-.1q.15-.15.15.1l-.1.1z"/><path fill="#bcbcbc" fill-rule="evenodd" d="M6.3 4.45 6 4.7l-.3-.25q0-.3.3-.3z"/><path fill="#ebeced" fill-rule="evenodd" d="m5.8 4.4.1-.15q.15 0 .15.1l-.1.15z"/><path fill="#bcbcbc" fill-rule="evenodd" d="m8.05 4.1-.35.25-.3-.25q0-.3.3-.3z"/><path fill="#ebeced" fill-rule="evenodd" d="M7.55 4.05q-.15-.15.1-.15l.1.1-.1.15z"/><path fill="#bcbcbc" fill-rule="evenodd" d="m7.85 4.9-.3.3q-.35 0-.35-.3 0-.25.35-.25z"/><path fill="#ebeced" fill-rule="evenodd" d="M7.35 4.9q0-.15.1-.15l.1.1q.15.15-.1.15z"/><path fill="#bcbcbc" fill-rule="evenodd" d="m9.35 4.5-.3.25-.35-.25q0-.3.35-.3z"/><path fill="#ebeced" fill-rule="evenodd" d="m8.85 4.45.1-.1.15.1-.1.1z"/><path fill="#bcbcbc" fill-rule="evenodd" d="m9.15 5.35-.3.25-.3-.25q0-.3.3-.3z"/><path fill="#ebeced" fill-rule="evenodd" d="m8.65 5.3.1-.15.15.15-.1.1z"/><path fill="#bcbcbc" fill-rule="evenodd" d="m10.7 4.85-.3.3q-.35 0-.35-.3 0-.25.35-.25z"/><path fill="#ebeced" fill-rule="evenodd" d="m10.2 4.85.1-.15.15.1-.1.15z"/><path fill="#bcbcbc" fill-rule="evenodd" d="m10.5 5.7-.3.3q-.3 0-.3-.3 0-.25.3-.25z"/><path fill="#ebeced" fill-rule="evenodd" d="m10 5.65.1-.1q.15 0 .15.1l-.1.15z"/><path fill="#bcbcbc" fill-rule="evenodd" d="m15.05 5.9-.35.3q-.3 0-.3-.3 0-.25.3-.25z"/><path fill="#ebeced" fill-rule="evenodd" d="M14.55 5.9q-.05-.15.1-.15l.1.1-.1.15z"/><path fill="#bcbcbc" fill-rule="evenodd" d="m14.85 6.75-.3.3q-.35 0-.35-.3 0-.25.35-.25z"/><path fill="#ebeced" fill-rule="evenodd" d="m14.35 6.7.1-.1.15.1-.15.15z"/><path fill="#bcbcbc" fill-rule="evenodd" d="m16.15 6 .3.3-.3.25q-.3 0-.3-.25 0-.3.3-.3"/><path fill="#ebeced" fill-rule="evenodd" d="m15.95 6.25.1-.1.15.1-.1.1z"/><path fill="#bcbcbc" fill-rule="evenodd" d="m16.3 7.15-.35.25-.3-.25q0-.3.3-.3.35 0 .35.3"/><path fill="#ebeced" fill-rule="evenodd" d="m15.8 7.1.1-.15.1.15-.1.1z"/><path fill="#bcbcbc" fill-rule="evenodd" d="m18 6.55-.3.3-.35-.3q0-.25.35-.25z"/><path fill="#ebeced" fill-rule="evenodd" d="m17.5 6.5.1-.1.15.1-.1.15z"/><path fill="#bcbcbc" fill-rule="evenodd" d="M17.8 7.4q0 .25-.3.25l-.3-.25q0-.3.3-.3z"/><path fill="#ebeced" fill-rule="evenodd" d="m17.3 7.35.1-.1.15.1-.1.1z"/><path fill="#bcbcbc" fill-rule="evenodd" d="m19.55 6.7-.35.3q-.3 0-.3-.3 0-.25.3-.25.35 0 .35.25"/><path fill="#ebeced" fill-rule="evenodd" d="M19.05 6.7q-.05-.15.1-.15l.1.1-.1.15z"/><path fill="#bcbcbc" fill-rule="evenodd" d="m19.35 7.55-.3.3q-.35 0-.35-.3t.35-.3z"/><path fill="#ebeced" fill-rule="evenodd" d="m18.85 7.5.1-.1.15.1-.15.1z"/><path fill="none" stroke="#bcbcbc" stroke-linecap="round" stroke-linejoin="round" stroke-width=".75" d="m13.45 7.3-2.35-.65.7-2.4 2.3.65z"/><path fill="#ddd" fill-rule="evenodd" d="M11.8 4.25q.05-.25.2 0l.2.35-.5 1.75.35.3v.25h-.55q-.45-.1-.4-.25z"/><path fill="#bcbcbc" fill-rule="evenodd" d="m12.15 5.95-1.45-.4.2-.6 1.4.4z"/><path fill="none" stroke="#bcbcbc" stroke-linecap="round" stroke-linejoin="round" stroke-width=".35" d="m12.15 5.95-1.45-.4.2-.6 1.4.4z"/><path fill="#ddd" fill-rule="evenodd" d="m10.75 5 .25-.15.7.2.7.25v.25l-1.65-.5z"/><path fill-rule="evenodd" d="m8.2 7.8.4-.15 1.6-.1q-.3.05-.7.4l-.45.45q-.1.15.1.65l-.25.9.05 6.45-.2.25-.2.05-.05-3.35.05-3.4q0-.45-.35-.55l-.85-.05 1.3-.75-.8-.05-1.35.35.55-.5zM20.85 3.75q.2-.1.05.25l-.45.4-4-.2 2.2-.15zM20.6 5.15q.25 0-.25.65l-1.6-.15-2.5-.55 2.25.1z"/><path fill="#3c3e3f" fill-rule="evenodd" d="m2.7 15.8 2.95.05 3.5-.65.15 1.15-.15.95-2.7.5q-2.35.2-3.2-.05l-.45-.95q-.2-.7-.1-1"/><path fill="none" stroke="#bcbcbc" stroke-linecap="round" stroke-linejoin="round" stroke-width=".55" d="m8.1 17.45-1.75.2-.2-1.8 1.75-.2z"/><path fill="#ddd" fill-rule="evenodd" d="M6.15 15.85q-.05-.15.15-.05l.25.2.1 1.3.35.1.05.15-.7.1z"/><path fill="#bcbcbc" fill-rule="evenodd" d="M6.85 16.9 5.8 17l-.05-.45 1.05-.1z"/><path fill="none" stroke="#bcbcbc" stroke-linecap="round" stroke-linejoin="round" stroke-width=".25" d="M6.85 16.9 5.8 17l-.05-.45 1.05-.1z"/><path fill="#ddd" fill-rule="evenodd" d="m5.7 16.6.1-.15 1.05-.05.05.1v.1l-1.2.1z"/><path fill="#bcbcbc" fill-rule="evenodd" d="M5.3 16.4q.1.25-.2.35l-.4-.15q-.1-.25.2-.35t.4.15"/><path fill="#ebeced" fill-rule="evenodd" d="m4.8 16.55.05-.15q.15-.15.15.05l-.05.15z"/><path fill="#bcbcbc" fill-rule="evenodd" d="M5.4 17.25v.2l-.15.15-.4-.15q-.1-.3.2-.35.25-.15.35.15"/><path fill="#ebeced" fill-rule="evenodd" d="m4.95 17.4.05-.2.15.05-.05.2z"/><path fill="#bcbcbc" fill-rule="evenodd" d="M4.05 16.4q.15.25-.2.35-.25.1-.35-.15-.15-.25.15-.35t.4.15"/><path fill="#ebeced" fill-rule="evenodd" d="M3.6 16.55q-.15-.15.05-.15l.15.05-.05.15z"/><path fill="#bcbcbc" fill-rule="evenodd" d="m4.2 17.25-.2.35q-.3.1-.4-.15t.2-.35q.3-.2.4.15"/><path fill="#ebeced" fill-rule="evenodd" d="m3.7 17.4.05-.2.2.05-.05.2z"/><path fill="#bcbcbc" fill-rule="evenodd" d="m9 15.95-.2.35q-.3.1-.4-.2-.1-.25.25-.35t.35.2"/><path fill="#ebeced" fill-rule="evenodd" d="M8.55 16.05q-.05-.15.05-.15l.15.05-.1.15z"/><path fill="#bcbcbc" fill-rule="evenodd" d="m9.05 16.8-.25.35q-.35.1-.35-.2-.1-.25.2-.35t.4.2"/><path fill="#ebeced" fill-rule="evenodd" d="m8.55 16.9.05-.15.15.05v.1l-.05.05h-.1z"/><path fill="#930d2a" fill-rule="evenodd" d="m11.55 16.3 1.95-.05q2.15.65 2.05 1.05-.1 1.4-1.95 1.5-1.75.05-2.15-.5.25-1 .1-2"/><path fill="#930d2a" fill-rule="evenodd" d="M16.65 19q-1.15-.55-1.1-1.7 0-.3 1.2-.25l1.3.05q.15-.1.15.1l-.15.5q-.3.35-.2 1.4z"/><path fill="#4c081a" fill-rule="evenodd" d="m11.5 18.05 1.65.4 1.4-.2 1-.95q-.3 1.65-2.1 1.6l-1.9-.5-.1-.1zM17.7 19.2q-2.05 0-2.15-1.8.85 1.85 2.3 1.5l.05.15z"/><path fill-rule="evenodd" d="m11.55 16.55 3.8.85 2.7.3-.2.75q-1.9.15-6.3-1.15z"/><path fill="none" stroke="#bcbcbc" stroke-linecap="round" stroke-linejoin="round" stroke-width=".55" d="m14.9 16.7 1.7.2-.25 1.8-1.7-.2z"/><path fill="#ddd" fill-rule="evenodd" d="M14.9 16.7q0-.2.15-.05l.15.25-.15 1.3.25.2.05.15-.4.05-.3-.1z"/><path fill="#bcbcbc" fill-rule="evenodd" d="m15.3 17.9-1.05-.15.05-.45 1.1.1z"/><path fill="none" stroke="#bcbcbc" stroke-linecap="round" stroke-linejoin="round" stroke-width=".25" d="m15.3 17.9-1.05-.15.05-.45 1.1.1z"/><path fill="#ddd" fill-rule="evenodd" d="M14.25 17.3q.05-.1.15-.1l1 .15.05.25-1.2-.2z"/></g></defs></svg>