<svg xmlns="http://www.w3.org/2000/svg" xmlns:ffdec="https://www.free-decompiler.com/flash" xmlns:xlink="http://www.w3.org/1999/xlink" ffdec:objectType="frame" width="25.85" height="15.75"><use ffdec:characterId="1" xlink:href="#a" width="25.85" height="15.75"/><defs><linearGradient id="b" x1="-819.2" x2="819.2" gradientTransform="matrix(0 .0064 -.0049 0 10 12.85)" gradientUnits="userSpaceOnUse" spreadMethod="pad"><stop offset="0" stop-color="#003"/><stop offset="1" stop-color="#adadad"/></linearGradient><g id="a"><path fill="#331922" fill-rule="evenodd" d="m23.05 4.4.5 1.5L2.15 2l.4-.95.3-1.05z"/><path fill="none" stroke="#8c4042" stroke-linecap="round" stroke-linejoin="round" stroke-width=".1" d="m23.05 4.4.5 1.5"/><path fill="#7b5968" fill-rule="evenodd" d="m22.6 1.2.1.7v.3L2.5 4l.15-1.25 19.85-1.6z"/><path fill="none" stroke="#8c4042" stroke-linecap="round" stroke-linejoin="round" stroke-width=".1" d="m22.6 1.2-.1-.05"/><path fill="#003" fill-rule="evenodd" d="m24.95 10.95-5.35-.45-18.95.1 1.2-6.15.4-.85.2-.25q2.5 1.05 6.3 1.6Q16.25 6.1 22.6 3.9l.85 1.7z"/><path fill="url(#b)" fill-rule="evenodd" d="m7.4 16-3.6.15-5.1-1.6q-.75-.35.4-2.85L.35 9.25l15.85.5 3.7-.95 1.75 5.55-1.65.2q-1.85.35-2.65 1.05-1.05.8-3.35 1.15-2.4.35-2.7-.25-.25-.5-3.9-.5" transform="translate(2.6 -1.3)"/><path fill="#bfbfbf" fill-rule="evenodd" d="m25.85 13.65-3.7 1L20.9 9.1l3.35-.95zM20.2 9.3l1.05 5.55-4.8.75-.85-5.55zm-11.6.8-.15 5.4-4.8-.9L5 9.45zm-5.75 4.25-2.85-1L1.1 8l3.2 1.25zM15.2 15.7l-5.95-.15.15-5.35 5.2-.05q.65 3.4.6 5.55"/><path fill="#b4882f" fill-rule="evenodd" d="M24.2 8.15q-7.7 2.75-15.4 1.9-4.45-.5-7.7-1.95L1.7 5q2.75 1.4 6.85 2.15 8.2 1.55 14.9-1.65z"/><path fill="#a87715" fill-rule="evenodd" d="M24.25 8.15q-3.8 1.4-7.6 1.85.8-.85.15-1.6-.4-.45-1.2-.8 4.2-.35 7.85-2.1z"/><path fill="#ccc" fill-rule="evenodd" d="m13.75 7.4.2.95v2l-.25.25q-.25.15-.35-.3l.25-1.05q.1-1.15-.4-1.5l.2-.25q.25-.25.35-.1m1.05 1.35q.15-.15.4-.15l.4.15.15.4-.15.4-.4.2q-.25 0-.4-.2l-.2-.4zm0 .45.1.25.25.1.25-.1.1-.25-.1-.25-.25-.15q-.15 0-.25.15zm-2.4-1.55-.2 1.05q-.15 1.15.35 1.55-.4.5-.55.3l-.15-.95-.05-2 .25-.25q.25-.15.35.3"/><path fill="#deaf51" fill-rule="evenodd" d="m23.8 6.95.15.75-4.9 1.5.25-.6q0-.7-.65-.7-.7 0-.7.65l.1.4.55.35-1.35.3.1-.6q0-.5-.5-.95 3.45-.4 6.6-1.95zm-3.4 1.8q.85 0 .85-.75 0-.65-.6-.65-.75 0-.75.8 0 .6.5.6"/><path fill="#d9af5b" fill-opacity=".459" fill-rule="evenodd" d="m13.25 9.5-.15.35h-.7V9.8l-.05-.3.2.05zm.1-.85L13 8.7h-.65l-.1.05.05-.5.05-.05 1 .05zm1.7-.25q-.3.05-.4.25L14.5 9l.05.35v.05l.1.1q.1.2.35.25l-1 .05V8.25l1.35-.05 1.15.55-.2.9-.6.1.05-.2.05-.05.05-.35q0-.5-.35-.65-.1-.2-.45-.1"/><path fill="#d9af5b" fill-opacity=".839" fill-rule="evenodd" d="M11.1 8.95q0-.65-.65-.65-.7 0-.7.6 0 .8.65.8.7 0 .7-.75m.45-.8v.05l-.1 1.25v.35h-.2q-5.9-.2-10.05-2l.45-2.1q1.3.7 3.55 1.35 3.05.85 6.35 1.1M8.05 9.4q.6 0 .6-.65Q8.65 8 8 8q-.7 0-.7.75 0 .65.75.65"/><path fill="#ccc" fill-rule="evenodd" d="m20.5 7.7-.25.15-.1.25.1.25.25.1.25-.1.1-.25-.1-.25zm.45-.05.15.4-.15.4q-.15.2-.4.2t-.4-.2l-.2-.4.2-.4q.15-.15.4-.15zm-2.4.55-.25.15-.1.25.1.25.25.1.25-.1.1-.25-.1-.25q-.1-.15-.25-.15m.45-.05.15.4-.15.4-.4.2q-.25 0-.4-.2l-.2-.4.2-.4q.15-.15.4-.15zm-11.6.6.2-.4q.15-.15.4-.15l.4.15.15.4-.15.4-.4.2q-.25 0-.4-.2zM9.9 9l.2-.4q.15-.15.4-.15t.4.15l.15.4-.15.4-.4.2q-.25 0-.4-.2zm-1.95-.6q-.15 0-.25.15l-.1.25.1.25.25.1.25-.1.1-.25-.1-.25zm2.75.4q-.1-.15-.25-.15l-.25.15-.1.25.1.25.25.1.25-.1.1-.25z"/><path fill="#d7d5d5" fill-rule="evenodd" d="M13.75 8.85v.1l-.95.35q-.4 0-.4-.2l.1-.15.05-.05.2-.2h.2z"/></g></defs></svg>