<svg xmlns="http://www.w3.org/2000/svg" xmlns:ffdec="https://www.free-decompiler.com/flash" xmlns:xlink="http://www.w3.org/1999/xlink" ffdec:objectType="frame" width="24.6" height="22.45"><use ffdec:characterId="1" xlink:href="#a" width="24.6" height="22.45"/><defs><g id="a" fill-rule="evenodd"><path fill="#325903" d="m11.5.05.2.05h1.55l.25-.05h5.7l.2 1 .4 1 .3.5.35.45.35.4.4.4.15.15.15.1.5.3.1.05.25.15h.05l.25.1h.05l.15.05h.1l.25.05.05.35-.1-.05-.25.05-.05.05.15.1h.25l.05.1-.3.1-.85.25-1 .15-.75.05h-.2v.15l-.05.3v.95h.25l3-.5v.25l.05.7v.45l-.2.05-.65.25-.55.1-1.25-.05-.3-.05-.1.05v.05l-.05.05V8.6q-.2.25-.2 1.45v1.35l.1 1.05.05.25.5 1.05q.7.85 1.95.85h.05l.25-.05.15-.1.55-.5.35.65q.5.85.25 1.45l-.45.5-.35.25q-.45.35-.2.3l.05.05.15.15.1.05.05.05.3.1v.1l-.45.45-.05.1-2 .4.05-.4v-.05l-.35-.45h-.45l-.7.55-.25.45-.05.05h-.65l-3.5-.35q-1.85-.55-2.55-1.55l-.15-.25-.2-.6.15-.05h.05l.05-.05.05-.05-.25-.35h-.05l-.2-.55.4-.7-.05-.1q-.4-.5-.4-.9l.2-1.2.05-.15.25-1.05.1-1.05-.6-.8-.15-.1-.15.1-.6.8.1 1.05.25 1.05.05.15.2 1.2-.4.9-.05.1.4.7-.2.55h-.05l-.25.35.05.05.25.1-.2.6q-.65 1.2-2.7 1.8l-7.9-.2-.05-.1-.45-.45v-.1l.35-.15.25-.2.05-.05q.25.05-.2-.3l-.35-.25-.45-.5Q0 15.45.5 14.6q.7-1.3.55-2.25v-.4q1.1-.05 1.6-1.2.1-.45-.2-.8l-.85-.3-.5-.3.05-1.45v-.15l.05-.7V6.8l3 .5h.25L4.4 5.9l-3.1-.55.1-.6q1.35-.2 2.4-1.35Q5.05 2.05 5.35.35L4.8.2h.6V.1zM4.45 0h.25v.1q-.05 1.05-.85 2.7Q3 4.45 1.5 4l.05-.3.1-.6.85-3 .1-.1zm14 .15.1.25.1-.05.1-.3h-.25zm1.7-.15H22l.05.05q.35.5.9 3.05l.1.6.05.3h-.35l-.1-.05h-.15l-.45-.2-.4-.25-.15-.1-.55-.6-.4-.6-.4-.85-.05-.15-.2-1.15V0zm2.55 5.1-.25-.25q-.25-.05-.15.2l.15.15h.25zM18.9.95l.05-.15-.15-.2-.05-.05q-.1.1-.05.15l.05.25.1.1zm.25.45q-.35-.3 0 .45l.2.05-.1-.25zm.25.7-.05.15.4.5.05-.15-.15-.3q-.1-.25-.25-.2m2 2.4q-.55-.55-.4-.2l.15.2.25.1zm.2.2.35.25.1-.05v-.1l-.3-.15q-.2-.1-.15.05m-.8-.7-.3-.3q-.15-.1-.1.1l.15.2.2.05zm-.5-.7q-.55-.5-.4-.15l.15.2.2.15.05-.1z"/><path fill="#834b73" d="M1.05 10.25v-.05l.05-.85.5.3-.05.05v.05q.15 1.05-.5.5"/><path fill="#a8a8a8" d="m23.45 10.35-.35.35q-.4 0-.4-.4 0-.35.3-.35-.05.7.45.4M1.6 9.65l.85.3q.3.35.2.8-.5 1.15-1.6 1.2v-1.7q.65.55.5-.5V9.7zm19.45 9.15h-.1l-.25-.1q-.1-.15-.05-.4.05-.3.35-.3h.05q-.25.3 0 .8"/><path d="m21.2 3.8-.4-.4-.35-.4-.35-.45-.3-.5-.4-1-.2-1V0h.7v.05l.2 1.15.05.15.4.85.4.6.55.6-.15.25zm1.75.2h.15l.1.75-.25-.05h-.1l.1-.65zm.45 1.8-.05.45v.05l-3.2.5v-.4l1.2-.05zm-2.6 2.75 1.25.05.55-.1.65-.25.2-.05.2-.1.15-.1h.05l.25.05-.2.1-.45.2-1.4.5h-.1q-.35.15-.1.85l.15.3.05.05 1 1h-.1q-.9-.05-1.4-.55h-.05l-.2-.3q-.35-.5-.45-1.35zm-.9 13.75h-.05l-.45.05.1-.05-.5.1.1-.35.55-1.9.55.7-.15.5-.15.8v.15"/><path fill="#f0ac00" d="m18.45.15.05-.1h.25l-.1.3-.1.05zM23.3 5.5v.05l.1.25-2.05.55-1.2.05v-.05l.05-.3q1.8 0 3.1-.55m.05.8.05.5-3 .5h-.25v-.5zm-.65-1.2v.1h-.25l-.15-.15q-.1-.25.15-.2zm.55 0 .05.05.05.05-.1.05H23l-.15-.1.05-.05.25-.05zm.85 2.95.1.05.05.05.15.55.05.7.05.35q.1.65-.65 1.25l-.35.25h-.05L23.1 11h.05v-.05l.2-.1.75-.85v-.1q.1-1.05-.2-1.75zm-3.4 2.35-.1-.2-.3-.8v-.15l.05-.6q.35 2 1.25 2.5l.55.3-.7-.25-.45-.35zm-.95 8.3.05-.05.25-.45.7-.55h.45l.35.45v.05l-.05.4-.15.3-.2.45-.5 1.05v.05l-.1.5-.1.3-.25-.35q.25-1.2.7-1.8l.1-.15.05-.1h.05l.25-.45-.25-.35q-.35-.15-.65.2l-.3.5-.15.3-.2.6-.15.55-.3-.4zm.55-15.4v.1l-.05.1-.2-.15-.15-.2q-.15-.35.4.15m.5.7-.05.05-.2-.05-.15-.2q-.05-.2.1-.1zm.6.5v.1l-.25-.1-.15-.2q-.15-.35.4.2m.2.2q-.05-.15.15-.05l.3.15v.1l-.1.05zm-2.25-2.45.05-.15q.15-.05.25.2l.15.3-.05.15zm-.2-.85.1.25.1.25-.2-.05q-.35-.75 0-.45m-.2-.6-.05.15-.05.1-.1-.1L18.7.7q-.05-.05.05-.15l.05.05z"/><path fill="#413a3f" d="m21.2 3.8.15-.15.15-.25.15.1.4.25.45.2h.15l.1.05h.2v.05l-.1.65-.15-.05h-.05l-.25-.1h-.05l-.25-.15-.1-.05-.5-.3-.15-.1zm1.85 7.25-1-1L22 10l-.15-.3q-.25-.7.1-.85h.1l1.4-.5.45-.2q.3.7.2 1.75v.1l-.75.85-.2.1V11h-.05zm.4-.7q0-.4-.4-.4H23q-.3 0-.3.35 0 .4.4.4zM21.1 18H21q-.3 0-.35.3-.05.25.05.4l.25.1h.1l-.05.1-.1.15q-.45.6-.7 1.8l-.55-.7.15-.55.2-.6.15-.3.3-.5q.3-.35.65-.2"/><path fill="#fff" d="M23 9.95h.05q.4 0 .4.4-.5.3-.45-.4M21.05 18h.05l.25.35-.25.45h-.05q-.25-.5 0-.8"/><path fill="#cd7203" d="M20.2 6.05V5.9h.2l.75-.05 1-.15.85-.25.3-.1v.15q-1.3.55-3.1.55m.15 2.6.05-.05v-.05l.1-.05.3.05.05.3q.1.85.45 1.35l.2.3h.05q.5.5 1.4.55h.1l.05-.05.35.25-.05.05-.75.2-.35-.05h-.15l-.55-.3q-.9-.5-1.25-2.5M20.3 21.9l-.05.35-.35.05v-.15l.15-.8.15-.5.25.35-.1.55zm-1.3.5-.2.05-.1-.15.05-.25.55-2.15.05-.15.3.4-.55 1.9z"/><path fill="#857b77" d="m23.2 14.45-.15.1-.25.05h-.05q-1.25 0-1.95-.85l-.5-1.05-.05-.25-.1-1.05v-1.35q0-1.2.2-1.45v.05l-.05.6v.15l.3.8.1.2.1 1.7.15.55q.45 1.65 2.1 1.8zm-1.7 4.1 2-.4.05-.1.45-.45v-.1l-.3-.1-.05-.05-.1-.05-.15-.15.75.15.2.15.05.05q-.7 1.3-2.8 1.35h-.25zm-2.75 3.5h-.05l-.2-.1q.35-1.5.9-2.85l-.55.3q-1.2 1.25-1.05 2.7h-.2q-2.45.1-4.15-1.1l-.75-.6-.25-.2-.65-.85.25-1.65.15-1.65h.05l.05-.15h.05l.65-.1-.05.05-.05.05h-.05l-.15.05.2.6.15.25q.7 1 2.55 1.55l3.5.35h.65l-.4 1.05-.05.15z"/><path fill="#ccc" d="m24.45 9.4.05-.25.1.95-.2 2.85V13l-.6.9-.05.05-.55.5h-.15q-1.65-.15-2.1-1.8l-.15-.55-.1-1.7.3.45.45.35.7.25h.15l.35.05.75-.2.05-.05h.05l.35-.25q.75-.6.65-1.25zm-.3 7.9.35.15h.05l-.35 1.2-.45 1-.35 1.4q-.45.65-2.15.75l-.95.1.05-.15.1-.55.1-.3.1-.5v-.05l.5-1.05.2-.45h.25q2.1-.05 2.8-1.35l-.05-.05zm-5.65 4.65-.7.15q-.15-1.45 1.05-2.7l.55-.3q-.55 1.35-.9 2.85"/><path fill-opacity=".298" d="m11.5.05.2.05q-.3 1.1-.3 1.95-.05 1.85.3 3.6l.35 1.4.2.7.05.05.35.1.15-.8.25-3.4.05-3.6h.15l.05 2.45-.15 3.9-.2 1.6.5.35.1-1 .15-1.8-.15-4.9-.05-.65h.55l.1 3.6-.2 3.95-.2 1.05.6.75.35.8q.65 1.7.65 2.8t.9 1.9 2.55 1.2l2.1.3-4.55-.3L16 16q2 1.35 4.4.85l3.45-.85.5.05-.45.5-.35.25-2.35.4q-1.9.25-3.8 0l-.9-.2q1.4 1.35 3.55 1.2l-.25.45-.05.05h-.65l-3.5-.35q-1.85-.55-2.55-1.55l-.15-.25-.05-.15 1.15.05-.95-1.4-.05-.1q.1-.25.35-.55l.05-.05q-.05-.45-.45-.75l-.05-.05-.2-1.7.25-1.05.1-1.05-.6-.8-.15-.1-.15.1-.6.8.1 1.05.25 1.05-.2 1.7-.05.05q-.4.3-.45.75l.05.05.35.55-.05.1-.95 1.4 1.15-.05-.05.15q-.65 1.2-2.7 1.8l-7.9-.2-.05-.1-.45-.45v-.1l.35-.15q.15.05.35.2 1.25.7 3.15.65 2.2.2 3.65-1.2l-.9.2q-1.9.25-3.8 0-1.35.05-2.35-.4l-.35-.25-.45-.5.5-.05 3.45.85q2.4.5 4.4-.85l-.35.1-4.55.3 2.1-.3q1.65-.4 2.55-1.2t.9-1.9.65-2.8l.35-.8.9-1-.35-.9q-.4-2-.35-3.95t.25-3.5h.4q-.5 2.65-.15 5.35l.45 1.8.1.45.5.05-.4-1.15q-.35-1.1-.4-2.95-.1-1.85.3-3.55M4.45 0h.25v.1q-.05 1.05-.85 2.7Q3 4.45 1.5 4l.05-.3h.15Q3.5 3.15 4 1.65L4.45.1zm15.7.05.45 1.6q.5 1.5 2.3 2.05h.15l.05.3h-.35l-.1-.05h-.15l-.45-.2-.4-.25-.15-.1-.55-.6-.4-.6-.4-.85-.05-.15-.2-1.15V0h.25zm3.3 7.85v.3l-.2.05-.65.25-.55.1-1.25-.05-.3-.05-.1.05v.05l-.05.05V8.6q-.2.25-.2 1.45v1.35l.1 1.05.05.25.5 1.05q.7.85 1.95.85h.05l.25-.05v.05l-1.2.05-1.05.35-2.15-.1 2.2-.7-.45-.55q-.7-1.3-.6-3.2l.05-.75q.05-.7.4-1.5.05.2 1.1.3 1.05.05 2.1-.75zm-.15 9.65.35-.2.05.05.3.1v.1l-.45.45-.05.1-2 .4.05-.4zM4.35 8.2l.4 1.5.05.75q.1 1.9-.6 3.2l-.45.55 2.2.7-2.15.1-1.05-.35-1.2-.05.05-.55Q3.3 12.7 3.35 11l.1-.95-1-.1-.85-.3-.5-.3.05-1.45v-.15q1.05.8 2.1.75z"/><path d="m3.1 3.4.55-.6.4-.6.45-1L4.7.1V0h.7v.1l-.6 1.95-1 1.35-.4.4zM1.75 4.7l-.35.05.1-.75h.15z"/><path fill="#413a3f" d="m3.1 3.4.3.4-.15.15-.15.1-.5.3-.35.2H2.2l-.25.1H1.9l-.15.05-.1-.7h.2l.1-.05h.15l.45-.2.4-.25z"/><path fill="#857b77" d="m11.9 20.4-.75.6Q9.45 22.2 7 22.1h-.2q.15-1.45-1.05-2.7-.1-.1-.55-.3l.9 2.85-.2.1h-.15l-1-3.05L3 18.85Q.9 18.8.2 17.5l.05-.05.2-.15.75-.15-.6.35v.1l.45.45.05.1 3 .5.55.05h.85l3.5-.35q1.8-.55 2.55-1.55l.15-.25.2-.6-.15-.05-.15-.1.65.1-.45.95q-.4.55-.5 1.75-.15 1.25.6 1.8"/><path fill="#ccc" d="M12.25 15.9h.05l.05.15h.05q-.1.45.15 1.65l.25 1.65-.65.85-.25.2q-.75-.55-.6-1.8.1-1.2.5-1.75zM6.8 22.1l-.7-.15-.9-2.85q.45.2.55.3 1.2 1.25 1.05 2.7m-1.05-.05h-.1L5 22l-.55-.1-1.1-.1q-1.7-.1-2.15-.75l-.35-1.4-.45-1-.35-1.2H.1q0-.05.35-.15l-.2.15-.05.05q.7 1.3 2.8 1.35l1.75.15z"/><path fill="#f0ac00" d="m4.7 22.3-.35-.05-.1-.5-.1-.55-.1-.3-.1-.5v-.05l-.5-1.05q-.5-.95-.4-1.2l.35-.45h.45q.65.3.95 1l.45 1.1.05.15.6 2.4-.1.15-.2-.05-.65-2.25-.15-.55q-.55-1.9-1.3-1.6-.45.1.2 1.05.45.6.7 1.8z"/><path fill="#413a3f" d="m5.6 22.4-.5-.1.1.05-.45-.05H4.7l-.3-1.45q-.25-1.2-.7-1.8-.65-.95-.2-1.05.75-.3 1.3 1.6l.15.55z"/><path fill="#cd7203" d="m4.95 20.15.3-.4.05.15.6 2.4-.1.15-.2-.05zM4.7 22.3l-.35-.05-.1-.5-.1-.55.25-.35z"/><path d="m5.6 22.4-.5-.1.1.05-.45-.05H4.7l-.3-1.45.55-.7z"/><path fill="#fff" d="m3.5 18.8-.25-.45q0-.35.3-.35.25.3-.05.8"/><path fill="#a8a8a8" d="M3.55 18h.05l.35.3-.05.4-.25.1H3.5q.3-.5.05-.8"/><path d="M4.45 6.35v.45l-3.2-.5v-.05L1.2 5.8l2.05.55z"/><path fill="#f0ac00" d="m1.3 5.5 3.1.55.05.3h-1.2L1.2 5.8l.1-.25zm3.15 1.3v.5H4.2l-3-.5.05-.5z"/><path fill="#cd7203" d="M1.3 5.5v-.15l.3.1 2.6.45h.2v.15z"/><path fill="#857b77" d="m3.9 9.85.25-.5.1-.75q.2.25.2 1.45v1.35l-.1 1.05-.05.25-.5 1.05q-.7.85-1.95.85H1.8l-.4-.15q1.8-.05 2.25-1.8l.15-.55z"/><path fill="#ccc" d="m1.4 14.45-.6-.55-.6-.9v-.05L0 10.1l.1-.95q.05 1.1 1.05 2.1l.05.05.75-.15.3-.1.85-.4.2-.1.3-.3.3-.4-.1 2.25-.15.55q-.45 1.75-2.25 1.8"/><path fill="#413a3f" d="m.5 8.05.2.1 1.85.7h.1q.35.15.1.85l-1.2 1.35-.3.2H1.2l.05.05H1.2l-.05-.05Q0 10.6.1 9.75L.2 8.7l.15-.55.05-.05z"/><path d="M.5 8.05.75 8H.8l.15.1.4.15.65.25.55.1 1.25-.05.3-.05.15.15.05.6-.4 1.1-.9.8-1.05.25-.7-.1-.05-.05h.05l.3-.2 1.2-1.35q.25-.7-.1-.85h-.1L.7 8.15z"/><path d="M.5 8.05.75 8H.8l-.1.15z"/><path fill="#f0ac00" d="m4.25 8.65.05.6-.3.95-.4.65-.45.35-.7.25.55-.3q.9-.5 1.25-2.5m-3.15 2.6L.75 11Q0 10.4.1 9.75L.2 8.7l.15-.55.05-.05.1-.05.2.1q-.3.7-.2 1.75v.1l.75.85.2.1V11h.05zm.1.05.1-.05z"/><path fill="#cd7203" d="m1.5 11 .05.05h.1q.9-.05 1.4-.55h.05l.2-.3.45-1.35.05-.3.3-.05.1.05v.05l.05.05q-.35 2-1.25 2.5l-.55.3H2.3l-.35.05-.75-.2-.05-.05H1.1zm-.3.3.1-.05z"/><path fill="#fff" d="M1.15 10.35q0-.4.4-.4h.05q.05.7-.45.4"/><path fill="#a8a8a8" d="M1.6 9.95q.3 0 .3.35 0 .4-.4.4l-.35-.35q.5.3.45-.4"/><path fill="#f0ac00" d="M5.85.05h.25l.05.05v.05l-.1.25-.1-.05-.1-.25zM5.9.7l-.05.25-.1.1-.05-.1q-.1 0-.05-.15L5.8.6l.05-.05zm-.45.7q.35-.3 0 .45l-.2.05.1-.25zm-.25.7.05.15-.4.5-.05-.15.15-.3q.1-.25.25-.2m-.85 1.4-.05-.1v-.1q.55-.5.4-.15l-.15.2zm-.15.3-.15.2-.2.05L3.8 4l.3-.3zm-1 .8v-.1q.55-.55.4-.2l-.15.2zm-.35.05q.2-.1.15.05l-.35.25-.1-.05v-.1q0-.05.3-.15m-.7.2q.25-.05.15.2l-.15.15H1.9v-.1zm-.8.4-.1-.05.05-.05q0-.1.15-.1l.25.05.05.05-.15.1z"/></g></defs></svg>