<svg xmlns="http://www.w3.org/2000/svg" xmlns:ffdec="https://www.free-decompiler.com/flash" xmlns:xlink="http://www.w3.org/1999/xlink" ffdec:objectType="frame" width="47.5" height="26.5"><use ffdec:characterId="1" xlink:href="#a" width="47.5" height="26.5"/><defs><radialGradient id="b" cx="0" cy="0" r="819.2" gradientTransform="rotate(23.199 -31.245 -11.23)scale(.0023)" gradientUnits="userSpaceOnUse" spreadMethod="pad"><stop offset="0" stop-color="#ffe58e"/><stop offset="1" stop-color="#e0b833"/></radialGradient><radialGradient id="c" cx="0" cy="0" r="819.2" gradientTransform="rotate(50.528 -18.088 -7.722)scale(.0022)" gradientUnits="userSpaceOnUse" spreadMethod="pad"><stop offset="0" stop-color="#ffe58e"/><stop offset="1" stop-color="#e0b833"/></radialGradient><radialGradient id="d" cx="0" cy="0" r="819.2" gradientTransform="matrix(.002 -.0011 .0011 .002 12.2 13.4)" gradientUnits="userSpaceOnUse" spreadMethod="pad"><stop offset="0" stop-color="#ffe58e"/><stop offset="1" stop-color="#e0b833"/></radialGradient><radialGradient id="e" cx="0" cy="0" r="819.2" gradientTransform="rotate(-15.255 56.356 -19.247)scale(.0023)" gradientUnits="userSpaceOnUse" spreadMethod="pad"><stop offset="0" stop-color="#ffe58e"/><stop offset="1" stop-color="#e0b833"/></radialGradient><radialGradient id="f" cx="0" cy="0" r="819.2" gradientTransform="rotate(-15.255 47.982 -2.126)scale(.0023)" gradientUnits="userSpaceOnUse" spreadMethod="pad"><stop offset="0" stop-color="#ffe58e"/><stop offset="1" stop-color="#e0b833"/></radialGradient><radialGradient id="g" cx="0" cy="0" r="819.2" gradientTransform="translate(-2.7 12.8)scale(.0023)" gradientUnits="userSpaceOnUse" spreadMethod="pad"><stop offset="0" stop-color="#ffe58e"/><stop offset="1" stop-color="#e0b833"/></radialGradient><radialGradient id="h" cx="0" cy="0" r="819.2" gradientTransform="rotate(-45 25.374 -13.46)scale(.0023)" gradientUnits="userSpaceOnUse" spreadMethod="pad"><stop offset="0" stop-color="#ffe58e"/><stop offset="1" stop-color="#e0b833"/></radialGradient><radialGradient id="i" cx="0" cy="0" r="819.2" gradientTransform="rotate(-63.43 21.197 -11.776)scale(.002)" gradientUnits="userSpaceOnUse" spreadMethod="pad"><stop offset="0" stop-color="#ffe58e"/><stop offset="1" stop-color="#e0b833"/></radialGradient><radialGradient id="j" cx="0" cy="0" r="819.2" gradientTransform="rotate(-63.43 22.321 -14.77)scale(.002)" gradientUnits="userSpaceOnUse" spreadMethod="pad"><stop offset="0" stop-color="#ffe58e"/><stop offset="1" stop-color="#e0b833"/></radialGradient><radialGradient id="k" cx="0" cy="0" r="819.2" gradientTransform="rotate(-45 28.844 -29.348)scale(.0023)" gradientUnits="userSpaceOnUse" spreadMethod="pad"><stop offset="0" stop-color="#ffe58e"/><stop offset="1" stop-color="#e0b833"/></radialGradient><radialGradient id="l" cx="0" cy="0" r="819.2" gradientTransform="rotate(245.772 19.58 -5.357)scale(.0022)" gradientUnits="userSpaceOnUse" spreadMethod="pad"><stop offset="0" stop-color="#ffe58e"/><stop offset="1" stop-color="#e0b833"/></radialGradient><radialGradient id="m" cx="0" cy="0" r="819.2" gradientTransform="rotate(50.528 -18.088 -7.722)scale(.0022)" gradientUnits="userSpaceOnUse" spreadMethod="pad"><stop offset="0" stop-color="#dbba4a"/><stop offset="1" stop-color="#a38318"/></radialGradient><radialGradient id="n" cx="0" cy="0" r="819.2" gradientTransform="rotate(23.199 -31.245 -11.23)scale(.0023)" gradientUnits="userSpaceOnUse" spreadMethod="pad"><stop offset="0" stop-color="#dbba4a"/><stop offset="1" stop-color="#a38318"/></radialGradient><radialGradient id="o" cx="0" cy="0" r="819.2" gradientTransform="translate(-2.7 12.8)scale(.0023)" gradientUnits="userSpaceOnUse" spreadMethod="pad"><stop offset="0" stop-color="#dbba4a"/><stop offset="1" stop-color="#a38318"/></radialGradient><radialGradient id="p" cx="0" cy="0" r="819.2" gradientTransform="rotate(-15.255 56.356 -19.247)scale(.0023)" gradientUnits="userSpaceOnUse" spreadMethod="pad"><stop offset="0" stop-color="#dbba4a"/><stop offset="1" stop-color="#a38318"/></radialGradient><radialGradient id="q" cx="0" cy="0" r="819.2" gradientTransform="matrix(.002 -.0011 .0011 .002 12.2 13.4)" gradientUnits="userSpaceOnUse" spreadMethod="pad"><stop offset="0" stop-color="#dbba4a"/><stop offset="1" stop-color="#a38318"/></radialGradient><radialGradient id="r" cx="0" cy="0" r="819.2" gradientTransform="rotate(-45 25.374 -13.46)scale(.0023)" gradientUnits="userSpaceOnUse" spreadMethod="pad"><stop offset="0" stop-color="#dbba4a"/><stop offset="1" stop-color="#a38318"/></radialGradient><radialGradient id="s" cx="0" cy="0" r="819.2" gradientTransform="rotate(-63.43 21.197 -11.776)scale(.002)" gradientUnits="userSpaceOnUse" spreadMethod="pad"><stop offset="0" stop-color="#dbba4a"/><stop offset="1" stop-color="#a38318"/></radialGradient><radialGradient id="t" cx="0" cy="0" r="819.2" gradientTransform="rotate(-63.43 22.321 -14.77)scale(.002)" gradientUnits="userSpaceOnUse" spreadMethod="pad"><stop offset="0" stop-color="#dbba4a"/><stop offset="1" stop-color="#a38318"/></radialGradient><radialGradient id="u" cx="0" cy="0" r="819.2" gradientTransform="rotate(-45 28.844 -29.348)scale(.0023)" gradientUnits="userSpaceOnUse" spreadMethod="pad"><stop offset="0" stop-color="#dbba4a"/><stop offset="1" stop-color="#a38318"/></radialGradient><radialGradient id="v" cx="0" cy="0" r="819.2" gradientTransform="rotate(-15.255 47.982 -2.126)scale(.0023)" gradientUnits="userSpaceOnUse" spreadMethod="pad"><stop offset="0" stop-color="#dbba4a"/><stop offset="1" stop-color="#a38318"/></radialGradient><g id="a" fill-rule="evenodd"><path fill="#3c091c" d="m42.3 23.35-1-1.4 1.5-.15.05.1zm-7.25.85-.65-1.5.55-.1h.5v.25l-.4.8zm-9.75 1.2-.25-2 .1-.05H26l.05.35zm-3.8-1.45-.3 1.3v-.2l-.2-.5V24zm-8.95-1.15-.8 1.6-.3-1.2.05-.35z"/><path fill="#4553a8" d="m18.65.45 1.2.15-2.15 15.05-1.35 7.05-.2-.1h-.8l-2.8.2-1.05.05 3.75-7.65zM22.1.8h2L26 23.35h-.85l-.1.05-3.55.55-.5.05zm4-.1 1.7-.2 3.1 12.7 4.5 9.4h-.45l-.55.1-1.8.5-2.2.8-2.55-10.1zm2.6-.35.95-.25 5.45 13.5 7.7 8.2-1.5.15H41l-1.9-.15h-.55L33 13.65zM8 21.55v-.15l-.8-.05q-1.8 0-4.8.75l-.25-.05q1.45-.15 5.5-3.8 4.3-3.8 4.85-5.9.85-3.15 2.9-7.9l.7-2.5Q16.45.9 17.5.35h.25l-4.2 13.3z"/><path fill="#31487e" d="m17.75.35.9.1-3.4 14.75-3.75 7.65-.05.35.3 1.2.05.1h-.45l-4-1.4v-.25L8 21.7v-.15l5.55-7.9zm2.1.25 2.25.2L21 24v.55l.2.5v.35h-.75l-4.25-.65v-.4l.25-1.35-.1-.3 1.35-7.05zm4.25.2 2-.1 1.75 13.2L30.4 24l-.15.05.25.35.1.55-.2.6-.5.25-4.6-.4.75-1.7-.05-.35zm3.7-.3.9-.15 4.3 13.3 5.55 8.15q.45 1.45-1.05 2l-.3.1-1.45.3h-.7v-.55l.4-.8v-.25h-.05l-4.5-9.4zm1.85-.4.2-.1q.55.15.7.8l.3 1.3 1.25 2.6 2.75 5.95q.7 1.7 2.3 3.75l2.3 2.95 2.05 2 1.9 1.35 1.85.5-2.95 2.15.55-1.45v-.1h-.05l-7.7-8.2z"/><path fill="#e0b833" d="m42.3 21.3-2.6-.85-1.4 1-.5-.75 1.6-1.1 2 .7.45.5zM39 18.5l.05.25V19l-.3.05h-.05l-.35-.15-.1-.4.05-.25h.4zm-4.45 2.35.45.95-2.4-.6-2.35 2.25-.25-.95 2.3-2.25zm-8.7 1 .1.85-2.5-1.1-2.4 1.95.05-.95 2.3-2zm6.25-2.3-.25.15-.25-.15-.1-.35.1-.35q.1-.15.25-.15l.25.15.1.35zm-17-.1-.2.15-.2-.15-.1-.3.1-.35.2-.1.2.1.1.35zm1.25 3.1L14.3 20.8l-2.5 1.4.4-.8 2.55-1.5 1.75 1.9zm7.35-2.95-.15.35-.25.15-.3-.15-.1-.35.1-.35.3-.15.25.15zM8.55 20.8l-.45.6-1.7-1.1-1.85.55 1.1-.85 1.15-.45zm-.75-2.05.15.05-.3.5-.35.05h-.05l-.15-.05q.1-.55.7-.55"/><path fill="#af6014" d="m41.85 20.8 2.2.1 1.1.3h.1l-.55.45-.1.05-1.65-.15h-.4l-.25-.25zm-6.15.1-.1-.2.05-.25.2-.05q.4 0 .4.25L36 21h-.05zm-.3 1.65.8-1.2 2.4.55v.95l-2-.55-.9 1.2-.65.6v-.45l.4-.8v-.25h-.05zm-7.95 0 .2-.35h.4l.05.35-.3.4q-.2 0-.3-.15zm.25.75 2.9 1.65-.2.6-.05.1h-.05q-1.5-1.1-2.55-1.45l-2.3 1 .5-1.1zm-8.9-1.1-.25-.25.1-.3.2-.2q.4 0 .4.4l-.2.35zm-.05.55 1.5 1 .75.6v.2l.2.5v.35h-.15q-1.8-1.1-2.35-1.7l-2.5.9v-.25l.1-.55 1.1-.5zm-11.4.35v-.25l.2-.35 3-.55.95 1.5.05.4.2.55.05.1h-.5l-.25-.1-.4-.7-.7-1-1.35.2zm3.55-2.4.2.3q0 .45-.3.45l-.35-.3q0-.45.45-.45"/><path fill="#1b083f" fill-opacity=".498" d="M22.1.8 21 24l.5-.05-.3 1.3v-.2l-.2-.5V24l.4-20.3-.15-.25.3-.5-.45-.2.15-.9-1.35 1-1.35 12.3-2.3 9.6h-.05v-.4l.25-1.35-.1-.3 1.35-7.05L19.85.6zM17.9.4l-3.95 13.75L7.8 23.3l-.45-.2v-.25L8 21.7v-.15l5.55-7.9 4.2-13.3zM29.85 0l5.55 13.15 8.3 9.3-1.4.9-1-1.4 1.5-.15-7.7-8.2L29.65.1zM28.7.35l4.3 13.3 5.55 8.15q.3 1-.3 1.6l-6.1-9.7L27.95.5zM25.5 1.6l.45-.35-1.35-.5L26.1.7l1.75 13.2L30.4 24l-.15.05.25.35.1.55-.2.6-.5.25-1-.1q-.4-2.05-.65-5.5-.25-2.95-1.2-7.3l-.35-2.7-.35-2.75q-.15-.55-.4-3.25-.2-2.3-.5-2.45zm9.45 21h.5v.25l-.4.8v.55l-.65-1.5zm7.85-.8.05.1v-.1zM26 23.35l.05.35-.75 1.7-.25-2 .1-.05zm-13.45-.55-.8 1.6-.3-1.2.05-.35z"/><path fill="url(#b)" d="m-7.7 12.35-.25-.4.1-.25q.1-.5 1.05-.9l1-.2-.75.85z" transform="translate(13.75 11.15)"/><path fill="url(#c)" d="M-13.75 11.45q-.1-.25.25-.4.3-.45 1.3-.35 1.1.05 1 .3l-.05.05-2 .45z" transform="translate(13.75 11.15)"/><path fill="url(#d)" d="m12.2 12.05.35 1.4-.2.55-.5.3q-.3-.4 0-1.35.1-.8.35-.9" transform="translate(13.75 11.15)"/><path fill="url(#e)" d="M7.4 12.85 7.6 14q0 1.2-.9 1.2h-.1l-.1-.25q-.2-.45.3-1.35.35-.75.6-.75" transform="translate(13.75 11.15)"/><path fill="url(#f)" d="m2.65 11.25.1.9-.25 1-.65.55-.05-.1-.1-.25Q1.5 12.9 2 12q.4-.8.65-.75" transform="translate(13.75 11.15)"/><path fill="url(#g)" d="m-3.35 13.8-.1-.35q-.05-.5.65-1.25l.75-.55q-.2 2.05-1.3 2.15" transform="translate(13.75 11.15)"/><path fill="url(#h)" d="m16.5 12.7.1-.1h.05q1.55 1.4 1.05 2.3h-.1q-.8 0-1-.75z" transform="translate(13.75 11.15)"/><path fill="url(#i)" d="m21.45 11.3.1-.15q1.8.85 1.7 1.8l-.15.05q-.75 0-1.05-.45z" transform="translate(13.75 11.15)"/><path fill="url(#j)" d="m26.55 12.4-.1.05q-.65 0-1.25-.85l-.5-.8.1-.25.05-.05q1.9.9 1.7 1.9" transform="translate(13.75 11.15)"/><path fill="url(#k)" d="M30.05 12.5H30q-.85 0-.9-.5l-.35-1.45.2-.15q1.35 1.3 1.1 2.1" transform="translate(13.75 11.15)"/><path fill="url(#l)" d="M31.95 10.55q-1-.15-.9-.5 2.05-1 2.65 0 .15.45-.35.65z" transform="translate(13.75 11.15)"/><path fill="url(#m)" d="m-13.75 11.45.5.05 2-.45q-1.7 1.5-2.4.6z" transform="translate(13.75 11.15)"/><path fill="url(#n)" d="m-7.7 12.35 1.15-.9.75-.85v.05q-.85 2.15-1.85 1.7z" transform="translate(13.75 11.15)"/><path fill="url(#o)" d="M-3.35 13.8q1.1-.1 1.3-2.15l.1.05q.1 2.25-1.05 2.25z" transform="translate(13.75 11.15)"/><path fill="url(#p)" d="M6.6 15.2h.1q.9 0 .9-1.2l-.2-1.15h.1q.65 2.2-.45 2.5z" transform="translate(13.75 11.15)"/><path fill="url(#q)" d="m12.2 12.05.1-.05q1.2 2 .2 2.6-.4.2-.65-.3l.5-.3.2-.55z" transform="translate(13.75 11.15)"/><path fill="url(#r)" d="m16.5 12.7.1 1.45q.2.75 1 .75h.1l-.1.15-.7-.1q-.4-.3-.4-1.3-.15-.8 0-.95" transform="translate(13.75 11.15)"/><path fill="url(#s)" d="m21.45 11.3.6 1.25q.3.45 1.05.45l.15-.05-.05.25q-.25.4-.7.15-.5-.2-.8-1.15-.35-.65-.25-.9" transform="translate(13.75 11.15)"/><path fill="url(#t)" d="m26.55 12.4-.05.15q-.25.4-.7.15-.5-.2-.8-1.15l-.3-.75.5.8q.6.85 1.25.85z" transform="translate(13.75 11.15)"/><path fill="url(#u)" d="M28.75 10.55 29.1 12q.05.5.9.5h.05l-.2.3-.7-.05q-.4-.4-.35-1.35z" transform="translate(13.75 11.15)"/><path fill="url(#v)" d="M2.65 11.25h.05q.65 2.2-.45 2.5l-.4-.05.65-.55.25-1z" transform="translate(13.75 11.15)"/></g></defs></svg>