<?xml version="1.0" encoding="UTF-8" standalone="no"?>
<svg xmlns:ffdec="https://www.free-decompiler.com/flash" xmlns:xlink="http://www.w3.org/1999/xlink" ffdec:objectType="frame" height="18.65px" width="36.15px" xmlns="http://www.w3.org/2000/svg">
  <g transform="matrix(1.0, 0.0, 0.0, 1.0, 6.05, 0.3)">
    <use ffdec:characterId="2" height="13.75" id="Color" transform="matrix(1.0, 0.0, 0.0, 1.0, -6.05, -0.2)" width="31.35" xlink:href="#sprite0"/>
    <use ffdec:characterId="3" height="18.65" transform="matrix(1.0, 0.0, 0.0, 1.0, -5.45, -0.3)" width="35.55" xlink:href="#shape1"/>
  </g>
  <defs>
    <g id="sprite0" transform="matrix(1.0, 0.0, 0.0, 1.0, 6.05, 0.2)">
      <use ffdec:characterId="1" height="13.75" transform="matrix(1.0, 0.0, 0.0, 1.0, -6.05, -0.2)" width="31.35" xlink:href="#shape0"/>
    </g>
    <g id="shape0" transform="matrix(1.0, 0.0, 0.0, 1.0, 6.05, 0.2)">
      <path d="M20.0 12.0 Q11.25 14.6 2.7 12.85 -2.85 11.75 -6.05 9.65 L-6.0 9.6 Q-5.25 7.15 -3.45 4.5 L-0.1 -0.2 20.05 -0.2 Q22.65 3.2 23.65 5.25 24.6 7.1 25.3 10.05 L21.55 11.55 20.2 8.2 20.0 12.0" fill="#65933b" fill-rule="evenodd" stroke="none"/>
    </g>
    <g id="shape1" transform="matrix(1.0, 0.0, 0.0, 1.0, 5.45, 0.3)">
      <path d="M21.85 10.05 L19.9 5.9 19.55 7.9 19.2 10.5 Q9.5 13.3 1.05 11.0 -3.2 9.85 -5.45 8.15 L-5.4 8.1 Q-4.6 5.75 -2.95 3.45 L-0.1 -0.2 20.05 -0.2 23.2 4.3 Q24.35 6.35 25.0 8.75 L21.85 10.05" fill="#ffffff" fill-rule="evenodd" stroke="none"/>
      <path d="M22.0 8.7 L20.55 6.45 Q19.9 5.1 19.7 3.25 L19.5 4.7 19.25 5.65 Q18.3 7.6 17.5 10.0 L14.9 10.1 13.6 10.25 11.85 10.4 10.55 10.45 8.75 10.5 8.35 10.5 7.45 10.5 6.95 10.5 5.35 10.4 4.2 10.3 4.0 10.25 2.8 10.05 2.55 10.0 1.7 9.8 0.95 9.65 0.35 9.5 -0.25 9.35 -0.45 9.3 -1.65 8.9 -2.05 8.8 -2.15 8.75 -3.4 8.3 -5.15 7.55 Q-3.25 3.45 0.2 0.5 20.25 0.3 20.2 0.5 L21.9 3.0 Q23.75 5.9 24.6 8.4 L22.0 8.7" fill="#000000" fill-opacity="0.29803923" fill-rule="evenodd" stroke="none"/>
      <path d="M9.0 -0.25 L10.85 -0.3 Q10.25 3.35 7.25 10.0 L6.75 10.0 5.15 9.9 Q7.75 5.0 9.0 -0.25 M11.8 -0.3 L13.55 -0.3 Q12.7 4.75 10.35 9.95 L8.55 10.0 Q11.65 3.85 11.8 -0.3 M14.75 -0.3 L16.55 -0.3 Q16.25 5.0 13.4 9.75 L11.65 9.9 13.6 4.9 Q14.5 2.05 14.75 -0.3 M17.85 -0.3 L20.0 -0.2 Q23.5 4.3 24.7 7.9 L22.1 8.2 Q20.35 5.9 19.9 1.95 19.65 3.8 19.05 5.15 L16.8 9.35 14.7 9.6 Q17.5 4.3 17.85 -0.3 M3.8 9.75 L2.6 9.55 2.35 9.5 1.5 9.3 Q4.6 4.7 6.0 -0.25 L7.85 -0.25 Q6.5 4.85 3.8 9.75 M0.15 9.0 L-0.45 8.85 -0.65 8.8 -1.85 8.4 -2.25 8.3 -2.35 8.25 Q1.3 4.6 2.95 -0.15 L4.85 -0.2 Q3.4 4.8 0.15 9.0 M-3.6 7.8 L-5.35 7.05 Q-3.45 2.95 0.0 0.0 L2.1 -0.1 Q-0.4 4.3 -3.6 7.8" fill="#333333" fill-rule="evenodd" stroke="none"/>
      <path d="M7.85 -0.25 L9.0 -0.25 Q7.75 5.0 5.15 9.9 L4.0 9.8 3.8 9.75 Q6.5 4.85 7.85 -0.25 M10.85 -0.3 L11.8 -0.3 Q11.65 3.85 8.55 10.0 L8.15 10.0 7.25 10.0 Q10.25 3.35 10.85 -0.3 M13.55 -0.3 L14.75 -0.3 Q14.5 2.05 13.6 4.9 L11.65 9.9 10.35 9.95 Q12.7 4.75 13.55 -0.3 M16.55 -0.3 L17.85 -0.3 Q17.5 4.3 14.7 9.6 L13.4 9.75 Q16.25 5.0 16.55 -0.3 M1.5 9.3 L0.75 9.15 0.15 9.0 Q3.4 4.8 4.85 -0.2 L6.0 -0.25 Q4.6 4.7 1.5 9.3 M-2.35 8.25 L-3.6 7.8 Q-0.4 4.3 2.1 -0.1 L2.95 -0.15 Q1.3 4.6 -2.35 8.25" fill="#666666" fill-rule="evenodd" stroke="none"/>
      <path d="M20.25 2.3 L21.0 2.1 22.0 2.35 23.25 4.7 Q22.85 4.75 22.25 4.3 L20.9 3.4 20.85 3.35 20.6 3.2 20.55 3.2 20.25 3.0 20.25 2.95 20.2 2.95 20.25 3.0 20.35 3.2 21.55 5.25 22.1 6.05 24.7 10.2 23.4 10.85 21.4 7.0 21.35 6.8 Q20.5 5.15 19.8 3.3 L19.75 3.25 19.75 3.3 19.25 5.95 19.15 6.7 Q18.9 9.5 19.5 12.2 L18.75 12.35 Q17.75 10.3 17.9 7.5 L17.95 7.0 18.05 6.4 Q18.3 4.35 19.05 3.35 L19.1 3.25 19.15 3.2 19.0 3.3 18.8 3.35 18.2 4.1 Q16.25 6.35 15.2 6.55 L15.2 6.6 Q13.7 5.2 13.75 4.4 16.15 2.9 18.75 2.55 L18.8 2.55 18.85 2.45 Q19.05 2.15 20.05 2.15 L20.25 2.3" fill="#000000" fill-opacity="0.29803923" fill-rule="evenodd" stroke="none"/>
      <path d="M19.25 1.65 Q19.45 1.35 20.45 1.35 L20.65 1.5 24.6 1.6 Q24.9 2.4 24.55 3.9 22.7 2.6 20.65 2.15 L20.6 2.15 20.65 2.2 20.75 2.4 20.15 2.45 19.5 2.45 19.55 2.4 19.4 2.5 19.1 2.5 18.8 2.8 Q17.35 3.7 15.6 5.75 L15.6 5.8 Q14.1 4.4 14.15 3.6 16.55 2.1 19.15 1.75 L19.5 2.4 19.55 2.4 Q19.8 1.7 19.25 1.65 M22.5 5.25 Q25.95 10.75 30.1 14.7 L28.4 14.5 Q26.25 13.75 23.65 9.55 L21.8 6.2 21.75 6.0 Q22.0 5.55 22.5 5.25 M19.55 5.9 Q19.3 8.7 19.9 11.4 L20.45 13.15 20.4 13.1 19.9 12.5 Q18.1 10.35 18.3 6.7 L18.35 6.2 18.45 5.6 19.55 5.9" fill="#65933b" fill-rule="evenodd" stroke="none"/>
      <path d="M24.55 3.9 Q23.7 4.0 21.3 2.6 L21.25 2.55 21.0 2.4 20.95 2.4 20.65 2.2 20.65 2.15 Q22.7 2.6 24.55 3.9 M20.75 2.4 L21.95 4.45 22.5 5.25 Q22.0 5.55 21.75 6.0 L20.2 2.5 20.15 2.45 20.15 2.5 19.65 5.15 19.55 5.9 18.45 5.6 Q18.7 3.55 19.45 2.55 L19.5 2.45 20.15 2.45 20.75 2.4 M19.4 2.5 L19.2 2.55 18.6 3.3 Q16.65 5.55 15.6 5.75 17.35 3.7 18.8 2.8 L19.1 2.5 19.4 2.5 M19.15 1.75 L19.2 1.75 19.25 1.65 Q19.8 1.7 19.55 2.4 L19.5 2.4 19.15 1.75 M20.95 16.3 L20.4 12.5 21.2 13.55 Q22.6 15.45 22.45 16.65 22.0 17.6 20.85 18.35 L20.95 16.3" fill="#325903" fill-rule="evenodd" stroke="none"/>
      <path d="M7.45 -0.3 L20.0 -0.25 Q16.45 3.4 13.8 4.7 11.15 6.0 8.8 5.95 6.45 5.85 4.5 4.6 L3.6 3.4 4.5 4.25 Q5.7 5.05 7.0 4.85 12.65 4.85 16.2 0.75 15.35 1.25 12.05 1.65 L7.45 2.0 Q5.6 2.0 0.0 0.0 L7.45 -0.3" fill="#000000" fill-opacity="0.29803923" fill-rule="evenodd" stroke="none"/>
    </g>
  </defs>
</svg>
