<svg xmlns="http://www.w3.org/2000/svg" xmlns:ffdec="https://www.free-decompiler.com/flash" xmlns:xlink="http://www.w3.org/1999/xlink" ffdec:objectType="frame" width="21.4" height="17.25"><use ffdec:characterId="1" xlink:href="#a" width="21.4" height="17.25"/><defs><g id="a" fill-rule="evenodd"><path fill="#914f00" d="M4.45 2.05h5.65V9.8l-.35.3q-.15.1-.2 2.8l.05 3.7-1.5.35q.35-.6.3-2.5-.05-3.1.5-5.85-1.55 6.3-3.4 8.5h-.8q-1.85-1.2-3.35-7l.9 6.75-1.15-.25-.95-9.7L2.1 5.55q1.6-1.4 2.35-3.5m9.35 0h3.55l.25.85q1.05 3.1 3.55 4.3l-.5 4.65-.5 4.35v-4.85q-.25 3.15-2.35 5.8l-1.85.1q-1.6-1.65-3.4-7.15l1.35 7-2.05-.5q.1-5.9-.2-6.5l-.35-.3-.1-7.75zM3.75 15.55q1.55 1.75 3.3-2.25-1.55 1.45-3.3 1.05l-.7-.5zm12.65-.5q-1.35-.55-2.4-1.75l1.45 2.25q2.15 2.65 3.2-.95-.9 1-2.25.45"/><path fill="#4f2308" d="M5 0h1.6v2.05H4.45q-.75 2.1-2.35 3.5L.15 6.9 0 4.75l.1-2.7h1.2L1.65 0zm5.1 0h3.7v2.05h-2.6l.1 7.75-.7-.1-.5.1V2.05H7.6V0zm6.9.05h2.85l.35 2h1.05q.3 1.9-.1 5.15-2.5-1.2-3.55-4.3l-.25-.85H14.6V0zm-8.9 16.9-2.6.15q1.85-2.2 3.4-8.5-.55 2.75-.5 5.85.05 1.9-.3 2.5m-5.05-3.1.7.5q1.75.4 3.3-1.05-1.75 4-3.3 2.25zm-.8 3-.9-6.75q1.5 5.8 3.35 7zm14.15-1.8q1.35.55 2.25-.45-1.05 3.6-3.2.95L14 13.3q1.05 1.2 2.4 1.75m1.4 2.1q2.1-2.65 2.35-5.8v4.85l-.1.6zm-3.9-.05-1.35-7q1.8 5.5 3.4 7.15z"/><path fill="#b88242" d="m20.9.05.35 2H20.2l-.35-2zM14.6 0v2.05h-.8V0zm-7 0v2.05h-1V0zM1.3 2.05H.1L.35 0h1.3z"/></g></defs></svg>