<svg xmlns="http://www.w3.org/2000/svg" xmlns:ffdec="https://www.free-decompiler.com/flash" xmlns:xlink="http://www.w3.org/1999/xlink" ffdec:objectType="frame" width="46.4" height="28.3"><use ffdec:characterId="1" xlink:href="#a" width="46.4" height="28.3"/><defs><linearGradient id="b" x1="-819.2" x2="819.2" gradientTransform="matrix(-.0014 .003 -.0021 -.001 31.85 23.25)" gradientUnits="userSpaceOnUse" spreadMethod="pad"><stop offset="0" stop-color="#999"/><stop offset=".859" stop-color="#fff"/></linearGradient><linearGradient id="c" x1="-819.2" x2="819.2" gradientTransform="rotate(30.964 -42.736 50.613)scale(.0047)" gradientUnits="userSpaceOnUse" spreadMethod="pad"><stop offset=".106" stop-color="#fff"/><stop offset="1" stop-color="#999"/></linearGradient><linearGradient id="d" x1="-819.2" x2="819.2" gradientTransform="matrix(.0051 .003 -.002 .0033 11.05 29.85)" gradientUnits="userSpaceOnUse" spreadMethod="pad"><stop offset=".106" stop-color="#fff"/><stop offset="1" stop-color="#999"/></linearGradient><linearGradient id="e" x1="-819.2" x2="819.2" gradientTransform="matrix(.0049 0 0 .0015 2.15 29.2)" gradientUnits="userSpaceOnUse" spreadMethod="pad"><stop offset=".106" stop-color="#fff"/><stop offset="1" stop-color="#999"/></linearGradient><linearGradient id="f" x1="-819.2" x2="819.2" gradientTransform="matrix(.0027 0 0 .0028 -9.85 24.3)" gradientUnits="userSpaceOnUse" spreadMethod="pad"><stop offset=".106" stop-color="#fff"/><stop offset="1" stop-color="#999"/></linearGradient><linearGradient id="g" x1="-819.2" x2="819.2" gradientTransform="matrix(.0043 0 0 .0026 -4.95 27.35)" gradientUnits="userSpaceOnUse" spreadMethod="pad"><stop offset=".106" stop-color="#fff"/><stop offset="1" stop-color="#999"/></linearGradient><linearGradient id="h" x1="-819.2" x2="819.2" gradientTransform="matrix(.003 .0018 -.0022 .0037 27.3 26.5)" gradientUnits="userSpaceOnUse" spreadMethod="pad"><stop offset=".106" stop-color="#fff"/><stop offset="1" stop-color="#999"/></linearGradient><linearGradient id="i" x1="-819.2" x2="819.2" gradientTransform="matrix(.0087 0 0 .0137 -4.8 14.55)" gradientUnits="userSpaceOnUse" spreadMethod="pad"><stop offset=".118" stop-color="#282859"/><stop offset="1" stop-color="#4d50b9"/></linearGradient><linearGradient id="j" x1="-819.2" x2="819.2" gradientTransform="matrix(.0092 0 0 .0121 26.3 13.2)" gradientUnits="userSpaceOnUse" spreadMethod="pad"><stop offset=".357" stop-color="#181836"/><stop offset="1" stop-color="#4d50b9"/></linearGradient><linearGradient id="k" x1="-819.2" x2="819.2" gradientTransform="matrix(.0086 0 0 .0143 23.15 15)" gradientUnits="userSpaceOnUse" spreadMethod="pad"><stop offset=".302" stop-color="#202046"/><stop offset="1" stop-color="#4d50b9"/></linearGradient><linearGradient id="l" x1="-819.2" x2="819.2" gradientTransform="matrix(.007 0 0 .0157 18.8 16.15)" gradientUnits="userSpaceOnUse" spreadMethod="pad"><stop offset=".227" stop-color="#22224a"/><stop offset="1" stop-color="#4d50b9"/></linearGradient><linearGradient id="m" x1="-819.2" x2="819.2" gradientTransform="matrix(.0057 0 0 .0157 12.2 16.15)" gradientUnits="userSpaceOnUse" spreadMethod="pad"><stop offset=".106" stop-color="#23234e"/><stop offset="1" stop-color="#4d50b9"/></linearGradient><linearGradient id="n" x1="-819.2" x2="819.2" gradientTransform="matrix(.0059 0 0 .0155 4.25 16)" gradientUnits="userSpaceOnUse" spreadMethod="pad"><stop offset=".106" stop-color="#202046"/><stop offset="1" stop-color="#4d50b9"/></linearGradient><linearGradient id="o" x1="-819.2" x2="819.2" gradientTransform="matrix(.0076 0 0 .0151 -.7 15.65)" gradientUnits="userSpaceOnUse" spreadMethod="pad"><stop offset=".106" stop-color="#22224a"/><stop offset="1" stop-color="#4d50b9"/></linearGradient><linearGradient id="p" x1="-819.2" x2="819.2" gradientTransform="matrix(0 .014 -.0129 0 19.45 14.6)" gradientUnits="userSpaceOnUse" spreadMethod="pad"><stop offset="0" stop-color="#ccc"/><stop offset="1" stop-color="#fff"/></linearGradient><linearGradient id="q" x1="-819.2" x2="819.2" gradientTransform="matrix(0 .0127 -.0105 0 -.3 13.45)" gradientUnits="userSpaceOnUse" spreadMethod="pad"><stop offset="0" stop-color="#ccc"/><stop offset="1" stop-color="#fff"/></linearGradient><linearGradient id="r" x1="-819.2" x2="819.2" gradientTransform="matrix(.0258 0 0 .0149 10.6 15.5)" gradientUnits="userSpaceOnUse" spreadMethod="pad"><stop offset="0" stop-color="#851f1f"/><stop offset=".447" stop-color="#c00"/><stop offset="1" stop-color="#851f1f"/></linearGradient><g id="a" fill-rule="evenodd"><path fill="url(#b)" d="m29.55 23.75.55-.5.1-.1 2.55-2.45 1.6 1.75-1.4 1.9-1.55 1.85-.2-.1-.2-.15z" transform="translate(12.05 -3.05)"/><path fill="url(#c)" d="m24.35 28.9-3.1 1.15-5.4 1.3-.05-.4-.15-1.95h1.25l3.65-.95 3.1-1z" transform="translate(12.05 -3.05)"/><path fill="url(#d)" d="m15.8 30.95-4.95.25-5.05-.05.05-.35.05-.35.3-1.8.4.05h.1l.8.05 4.8.2 3.35.05z" transform="translate(12.05 -3.05)"/><path fill="url(#e)" d="m5.9 30.45-7.85-.2.05-.6.5-1.7.8.1.65.05 3.55.35h.05l2.55.2z" transform="translate(12.05 -3.05)"/><path fill="url(#f)" d="m-8.7 26.85-1.9-1.75-.75-.9-.7-.95 1-1.2 1.45 1.5 2 1.7-.85 1.35-.2.2z" transform="translate(12.05 -3.05)"/><path fill="url(#g)" d="m-1.9 29.65-1.55-.35-1.35-.3h-.05q-.45-.25-2-.9l-1.9-.9.05-.35.05-.05.2-.2.85-1.35.7.55 2 1.35 3.5.8z" transform="translate(12.05 -3.05)"/><path fill="url(#h)" d="m29.55 23.75 1.45 2.2-1.9 1.15-.25.15-4.15 2.15-.35-.5-.7-1.85.85-.3 3.3-1.45.1-.1h.05z" transform="translate(12.05 -3.05)"/><path fill="url(#i)" d="M-6.9 25.8q-2.9-1.65-5.1-3.95l6.9-8.35L-.5 3.3h2.8l-3.4 13.2-5.8 9.25z" transform="translate(12.05 -3.05)"/><path fill="url(#j)" d="m30.2 23.15-4-4.95-7.4-14.9h2.7q2.95 5.8 8 11.6l4.3 4.85q-1.3 2.05-3.25 3.85z" transform="translate(12.05 -3.05)"/><path fill="url(#k)" d="m18.8 3.3 7.4 14.9 4 4.95-.1.1Q27.9 26 24.7 27.2l-.2-.45L20.7 20 16.1 3.3z" transform="translate(12.05 -3.05)"/><path fill="url(#l)" d="M16.1 3.3 20.7 20l3.8 6.75q-4.25 2.35-7.55 2.7L16.9 29l-1.8-8.7-2-17z" transform="translate(12.05 -3.05)"/><path fill="url(#m)" d="M7.5 28.75 9.1 18.4 9.05 3.3h4.05l2 17 1.8 8.7-2.65.5q-2.5.45-6.9-.05z" transform="translate(12.05 -3.05)"/><path fill="url(#n)" d="m9.05 3.3.05 15.1-1.6 10.35q-3.9.65-8.25-.15l.15-.55L3.8 16.7 5.5 3.3z" transform="translate(12.05 -3.05)"/><path fill="url(#o)" d="M5.5 3.3 3.8 16.7-.6 28.05q-3.65.1-6.7-1.65l.4-.6v-.05l5.8-9.25L2.3 3.3z" transform="translate(12.05 -3.05)"/><path fill="url(#p)" d="M30 14.55q-2.15 3.7-6.55 6.8-4.4 3.05-9.5 4.7-4.1-6.2-5.1-14.6l1.3-8.1 11.5-.2q2 4.4 5.6 9.2z" transform="translate(12.05 -3.05)"/><path fill="url(#q)" d="M8.25 3.3v.35Q8.1 7.7 6.35 13.1q-1.8 5.35-6.1 10.75-1.9-.6-5.25-3.35-3.4-2.75-3.75-5.15l-.15-.15 2.95-2.85 5.2-9.3z" transform="translate(12.05 -3.05)"/><path fill="url(#r)" d="m30 14.55 1.75 1.4q-7.3 8.95-18.3 11.8-4.1-4.8-5.85-13.7Q5.05 20.3.55 25.65q-7.5-3.05-11.05-9l1.6-1.45.15.15q.35 2.4 3.75 5.15 3.35 2.75 5.25 3.35 4.3-5.4 6.1-10.75 1.75-5.4 1.9-9.45V3.3l1.9.05-1.3 8.1q1 8.4 5.1 14.6 5.1-1.65 9.5-4.7 4.4-3.1 6.55-6.8" transform="translate(12.05 -3.05)"/><path fill-opacity=".4" d="m39.35 9.3-.4.45-1.8.1-.85.6-1.95.65-1.75-.35-.2-.1-.15.05-2 .45-1.95-.45-.2-.1-.2.1q-.7.35-1.3.35-1.05 0-2-.5l-.65-.4-.6.05q-1.4 0-2.45-.65l-.75-.65h-.2q-1.65 0-2.5-.9-.5-.55-.55-1.1h-.15q-1.65 0-2.7-1.35-.8-1.05-.8-1.9V3.6q-.95-.15-1.55-1.25-.5-.9-.5-1.6v-.4l.25-.2q.1-.15.3-.15.35 0 .8 1.5l.5.7.55.15.6.1.25.35-.15.3v.1l-.15.3.5.7q.15.3 1.3.65l.95.7.45.6h.05q.5 0 .5.3l-.1.25.8.6.8.2.8.15.5.45.1-.1q.4 0 .4.35v.15q.7.55 1.5.55l.95-.1 1.15.55q1.05.5 1.85.5l.45-.3q.2-.3.45-.3l.7.3q.2 0 .3.15l1.5.2 1.2-.25.6-.25.5.15.2.05.3-.15.35.2h1q1.5 0 2.15-.65l1.75-.1.75-.25q.5 0 .5.5m-23.2-3.25q-.5-.5-.9-.55L15 5.45l.1.1.75.4z"/><path fill="#3f4197" d="m32.3 8.5 2.35.4 1.75.3q-1.35 1.1-2.8.95l-1.95-.4-1-.4zm3.75-.7.85-.65.9-.2 1.2 1.7zM30.4 8l-1.7.55-1.95.6L25.1 8.1l1.9-.2zm-7.45.35.9.75q-1.8.6-2.8-.3L19.9 7.75l-.7-1.05 2.2.3zM13.7.1l.05 2.05v.9q-1.5-.2-2.1-2.95zm1.8 2.8 1 .45q.8.2 2.05.95 1.2.75 1.15 1.4l-1.5-.45-2.15-.75z"/><path fill="#242452" d="m34.65 8.9-2.35-.4 1.65-.8q2.25-1.55 2.95-.55l-.85.65zm-4 .45 1 .4q-1.05.9-2.3.55l-1.7-.6-.9-.55 1.95-.6zM27 7.9l-1.9.2-2.15.25L21.4 7l2 .25q3.2-.2 3.6.65M13.75 2.15 13.7.1h.1q3.1 2.05 2.7 3.25l-1-.45zm2.7 3.45-.4-1.1 2.15.75 1 1.45.7 1.05q-.85.65-2-.6z"/><path fill="#2e2f6a" d="m34.65 8.9 1.4-1.1 2.95.85v.05q.35.85-2.6.5zm-.7-1.2-1.65.8-1.65.85-1.95-.8L30.4 8q3-1.1 3.55-.3m-8.85.4 1.65 1.05.9.55q-1.05 1.1-3.8-.6l-.9-.75zM13.75 2.15l1.75.75.55 1.6.4 1.1q-1.3.4-2.7-2.55zM19.2 6.7l-1-1.45 1.5.45q4.1.8 3.7 1.55l-2-.25z"/><path fill-opacity=".4" d="m24.6 1.2.25-.5.1-.3.2-.1h.45q.75 0 .7.35l-1.65 2.3L23.45 4l-.45.6-1.55.2-.6.75q-.35.45-1.4.6-.85 1.3-1.85 1.3l-.45-.05-.2-.1-.6.55q-.6.5-1.65.5l-.7-.1q-1 .7-1.75.7l-.7-.2-.55.3-1.35.25q-.6 0-.95-.35l-.85.3-1 .25q-.5 0-.5-.45 0-.8.9-.8l1-.25.7-.3q.25 0 .35.2l.05.25h.45q1.8-.75 2-.75l.5.2 1.85-.65q.15 0 .3.15l.3.1q.45 0 1.25-.55.8-.6.95-.6.2 0 .5.3l.95-.65.8-.65.4.1.9-.75q.55-.75.85-.75l.45.2q.5 0 .9-.85l.5-.55.6-.3z"/><path fill="#3f4197" d="M23 2.8v-.7l.1-1.45.25-.4H25q-.3 2-2 2.55m-1.15-.45-.3 1.05-1.4.25-.85.15q-.15-.95.6-1.1l1.4-.4zm-7.15 3.1 1.1.1-1.2.95-1.15-.35-.9-.2q-.05-.85 2.15-.5m2.5.25.7-1 1.6.05-.4.6q-.9 1.05-1.45 1.1l-.95-.15zm-5.65 1.9q-.45.55-1.5.8-1.1.25-1.3-.55l1.05-.6L11 6.6l1.35.35zm-4.85.35q-.35-.95.45-1.4l.6-.05.4-.05.6.3z"/><path fill="#242452" d="M23 2.1v.7q-.8 1.9-1.65 1.3l.2-.7.3-1.05zm-5.75 2.6q-.2-1.15 2.05-.9l.85-.15-.65 1.1-1.6-.05zm-4.7 1.25.9.2-1.1.8L11 6.6l-1.05-.25q1-1.1 2.6-.4m2.05.55 1.2-.95 1.4.15-.5.6q-1.8 1.5-2.9.85zM8.75 7.85q-2.95 1.2-2.05.1l2.05-1.2 1.05.5z"/><path fill="#2e2f6a" d="M23.1.65 23 2.1l-1.15.25-.55-.05q-.45-.7 1.8-1.65M21.55 3.4l-.2.7q-.95 1.75-2.25 1.25l.4-.6.65-1.1zM14.7 5.45q-.05-.8.95-.85l1.6.1h.65l-.7 1-1.4-.15zm-1.25.7 1.15.35-.8.65q-2.35 1.15-2.25.45l.8-.65zm-5.3.3 1.8-.1L11 6.6l-1.2.65-1.05-.5z"/></g></defs></svg>