<?xml version="1.0" encoding="UTF-8" standalone="no"?>
<svg xmlns:ffdec="https://www.free-decompiler.com/flash" xmlns:xlink="http://www.w3.org/1999/xlink" ffdec:objectType="frame" height="28.3px" width="46.4px" xmlns="http://www.w3.org/2000/svg">
  <g transform="matrix(1.0, 0.0, 0.0, 1.0, 12.05, -3.05)">
    <use ffdec:characterId="1" height="28.3" transform="matrix(1.0, 0.0, 0.0, 1.0, -12.05, 3.05)" width="46.4" xlink:href="#shape0"/>
  </g>
  <defs>
    <g id="shape0" transform="matrix(1.0, 0.0, 0.0, 1.0, 12.05, -3.05)">
      <path d="M29.55 23.75 L30.1 23.25 30.2 23.15 32.75 20.7 34.35 22.45 32.95 24.35 31.4 26.2 31.2 26.1 31.0 25.95 29.55 23.75" fill="url(#gradient0)" fill-rule="evenodd" stroke="none"/>
      <path d="M24.35 28.9 L21.25 30.05 15.85 31.35 15.8 30.95 15.65 29.0 15.85 29.0 16.7 29.0 16.9 29.0 20.55 28.05 23.65 27.05 24.35 28.9" fill="url(#gradient1)" fill-rule="evenodd" stroke="none"/>
      <path d="M15.8 30.95 L10.85 31.2 5.8 31.15 5.85 30.8 5.9 30.45 6.2 28.65 6.6 28.7 6.7 28.7 7.5 28.75 12.3 28.95 15.65 29.0 15.8 30.95" fill="url(#gradient2)" fill-rule="evenodd" stroke="none"/>
      <path d="M5.9 30.45 L-1.95 30.25 -1.9 29.65 -1.4 27.95 -0.6 28.05 0.05 28.1 3.6 28.45 3.65 28.45 6.2 28.65 5.9 30.45" fill="url(#gradient3)" fill-rule="evenodd" stroke="none"/>
      <path d="M-8.7 26.85 L-10.6 25.1 -11.35 24.2 -12.05 23.25 -11.05 22.05 -9.6 23.55 -7.6 25.25 -8.45 26.6 -8.65 26.8 -8.7 26.85" fill="url(#gradient4)" fill-rule="evenodd" stroke="none"/>
      <path d="M-1.9 29.65 L-3.45 29.3 -4.8 29.0 -4.85 29.0 Q-5.3 28.75 -6.85 28.1 L-8.75 27.2 -8.7 26.85 -8.65 26.8 -8.45 26.6 -7.6 25.25 -6.9 25.8 -4.9 27.15 -1.4 27.95 -1.9 29.65" fill="url(#gradient5)" fill-rule="evenodd" stroke="none"/>
      <path d="M29.55 23.75 L31.0 25.95 29.1 27.1 28.85 27.25 24.7 29.4 24.35 28.9 23.65 27.05 24.5 26.75 27.8 25.3 27.9 25.2 27.95 25.2 29.55 23.75" fill="url(#gradient6)" fill-rule="evenodd" stroke="none"/>
      <path d="M-6.9 25.8 Q-9.8 24.15 -12.0 21.85 L-5.1 13.5 -0.5 3.3 2.3 3.3 -1.1 16.5 -6.9 25.75 -6.9 25.8" fill="url(#gradient7)" fill-rule="evenodd" stroke="none"/>
      <path d="M30.2 23.15 L26.2 18.2 18.8 3.3 21.5 3.3 Q24.45 9.1 29.5 14.9 L33.8 19.75 Q32.5 21.8 30.55 23.6 L30.2 23.15" fill="url(#gradient8)" fill-rule="evenodd" stroke="none"/>
      <path d="M18.8 3.3 L26.2 18.2 30.2 23.15 30.1 23.25 Q27.9 26.0 24.7 27.2 L24.5 26.75 20.7 20.0 16.1 3.3 18.8 3.3" fill="url(#gradient9)" fill-rule="evenodd" stroke="none"/>
      <path d="M16.1 3.3 L20.7 20.0 24.5 26.75 Q20.25 29.1 16.95 29.45 L16.9 29.0 15.1 20.3 13.1 3.3 16.1 3.3" fill="url(#gradient10)" fill-rule="evenodd" stroke="none"/>
      <path d="M7.5 28.75 L9.1 18.4 9.05 3.3 13.1 3.3 15.1 20.3 16.9 29.0 14.25 29.5 Q11.75 29.95 7.35 29.45 L7.5 28.75" fill="url(#gradient11)" fill-rule="evenodd" stroke="none"/>
      <path d="M9.05 3.3 L9.1 18.4 7.5 28.75 Q3.6 29.4 -0.75 28.6 L-0.6 28.05 3.8 16.7 5.5 3.3 9.05 3.3" fill="url(#gradient12)" fill-rule="evenodd" stroke="none"/>
      <path d="M5.5 3.3 L3.8 16.7 -0.6 28.05 Q-4.25 28.15 -7.3 26.4 L-6.9 25.8 -6.9 25.75 -1.1 16.5 2.3 3.3 5.5 3.3" fill="url(#gradient13)" fill-rule="evenodd" stroke="none"/>
      <path d="M30.0 14.55 Q27.85 18.25 23.45 21.35 19.05 24.4 13.95 26.05 9.85 19.85 8.85 11.45 L10.15 3.35 21.65 3.15 Q23.65 7.55 27.25 12.35 L30.0 14.55" fill="url(#gradient14)" fill-rule="evenodd" stroke="none"/>
      <path d="M8.25 3.3 L8.25 3.65 Q8.1 7.7 6.35 13.1 4.55 18.45 0.25 23.85 -1.65 23.25 -5.0 20.5 -8.4 17.75 -8.75 15.35 L-8.9 15.2 -5.95 12.35 -0.75 3.05 8.25 3.3" fill="url(#gradient15)" fill-rule="evenodd" stroke="none"/>
      <path d="M30.0 14.55 L31.75 15.95 Q24.45 24.9 13.45 27.75 9.35 22.95 7.6 14.05 5.05 20.3 0.55 25.65 -6.95 22.6 -10.5 16.65 L-8.9 15.2 -8.75 15.35 Q-8.4 17.75 -5.0 20.5 -1.65 23.25 0.25 23.85 4.55 18.45 6.35 13.1 8.1 7.7 8.25 3.65 L8.25 3.3 10.15 3.35 8.85 11.45 Q9.85 19.85 13.95 26.05 19.05 24.4 23.45 21.35 27.85 18.25 30.0 14.55" fill="url(#gradient16)" fill-rule="evenodd" stroke="none"/>
      <path d="M27.3 12.35 L26.9 12.8 25.1 12.9 24.25 13.5 22.3 14.15 20.55 13.8 20.35 13.7 20.2 13.75 18.2 14.2 16.25 13.75 16.05 13.65 15.85 13.75 Q15.15 14.1 14.55 14.1 13.5 14.1 12.55 13.6 L11.9 13.2 11.3 13.25 Q9.9 13.25 8.85 12.6 L8.1 11.95 7.9 11.95 Q6.25 11.95 5.4 11.05 4.9 10.5 4.85 9.95 L4.7 9.95 Q3.05 9.95 2.0 8.6 1.2 7.55 1.2 6.7 L1.2 6.65 Q0.25 6.5 -0.35 5.4 -0.85 4.5 -0.85 3.8 L-0.85 3.4 -0.6 3.2 Q-0.5 3.05 -0.3 3.05 0.05 3.05 0.5 4.55 L1.0 5.25 1.55 5.4 2.15 5.5 2.4 5.85 2.25 6.15 2.25 6.25 2.1 6.55 2.6 7.25 Q2.75 7.55 3.9 7.9 L4.85 8.6 5.3 9.2 5.35 9.2 Q5.85 9.2 5.85 9.5 L5.75 9.75 6.55 10.35 7.35 10.55 8.15 10.7 8.65 11.15 8.75 11.05 Q9.15 11.05 9.15 11.4 L9.15 11.55 Q9.85 12.1 10.65 12.1 L11.6 12.0 12.75 12.55 Q13.8 13.05 14.6 13.05 L15.05 12.75 Q15.25 12.45 15.5 12.45 L16.2 12.75 Q16.4 12.75 16.5 12.9 L18.0 13.1 19.2 12.85 19.8 12.6 20.3 12.75 20.5 12.8 20.8 12.65 21.15 12.85 22.15 12.85 Q23.65 12.85 24.3 12.2 L26.05 12.1 26.8 11.85 Q27.3 11.85 27.3 12.35 M4.1 9.1 Q3.6 8.6 3.2 8.55 L2.95 8.5 3.05 8.6 3.8 9.0 4.1 9.1" fill="#000000" fill-opacity="0.4" fill-rule="evenodd" stroke="none"/>
      <path d="M20.25 11.55 L22.6 11.95 24.35 12.25 Q23.0 13.35 21.55 13.2 L19.6 12.8 18.6 12.4 20.25 11.55 M24.0 10.85 L24.85 10.2 25.75 10.0 26.95 11.7 24.0 10.85 M18.35 11.05 L16.65 11.6 14.7 12.2 13.05 11.15 14.95 10.95 18.35 11.05 M10.9 11.4 L11.8 12.15 Q10.0 12.75 9.0 11.85 L7.85 10.8 7.15 9.75 9.35 10.05 10.9 11.4 M1.65 3.15 L1.7 5.2 1.7 6.1 Q0.2 5.9 -0.4 3.15 L1.65 3.15 M3.45 5.95 L4.45 6.4 Q5.25 6.6 6.5 7.35 7.7 8.1 7.65 8.75 L6.15 8.3 4.0 7.55 3.45 5.95" fill="#3f4197" fill-rule="evenodd" stroke="none"/>
      <path d="M22.6 11.95 L20.25 11.55 21.9 10.75 Q24.15 9.2 24.85 10.2 L24.0 10.85 22.6 11.95 M18.6 12.4 L19.6 12.8 Q18.55 13.7 17.3 13.35 L15.6 12.75 14.7 12.2 16.65 11.6 18.6 12.4 M14.95 10.95 L13.05 11.15 10.9 11.4 9.35 10.05 11.35 10.3 Q14.55 10.1 14.95 10.95 M1.7 5.2 L1.65 3.15 1.75 3.15 Q4.85 5.2 4.45 6.4 L3.45 5.95 1.7 5.2 M4.4 8.65 L4.0 7.55 6.15 8.3 7.15 9.75 7.85 10.8 Q7.0 11.45 5.85 10.2 L4.4 8.65" fill="#242452" fill-rule="evenodd" stroke="none"/>
      <path d="M22.6 11.95 L24.0 10.85 26.95 11.7 26.95 11.75 Q27.3 12.6 24.35 12.25 L22.6 11.95 M21.9 10.75 L20.25 11.55 18.6 12.4 16.65 11.6 18.35 11.05 Q21.35 9.95 21.9 10.75 M13.05 11.15 L14.7 12.2 15.6 12.75 Q14.55 13.85 11.8 12.15 L10.9 11.4 13.05 11.15 M1.7 5.2 L3.45 5.95 4.0 7.55 4.4 8.65 Q3.1 9.05 1.7 6.1 L1.7 5.2 M7.15 9.75 L6.15 8.3 7.65 8.75 Q11.75 9.55 11.35 10.3 L9.35 10.05 7.15 9.75" fill="#2e2f6a" fill-rule="evenodd" stroke="none"/>
      <path d="M12.55 4.25 L12.8 3.75 12.9 3.45 13.1 3.35 13.55 3.35 Q14.3 3.35 14.25 3.7 L12.6 6.0 11.4 7.05 10.95 7.65 9.4 7.85 8.8 8.6 Q8.45 9.05 7.4 9.2 6.55 10.5 5.55 10.5 L5.1 10.45 4.9 10.35 4.3 10.9 Q3.7 11.4 2.65 11.4 L1.95 11.3 Q0.95 12.0 0.2 12.0 L-0.5 11.8 -1.05 12.1 -2.4 12.35 Q-3.0 12.35 -3.35 12.0 L-4.2 12.3 -5.2 12.55 Q-5.7 12.55 -5.7 12.1 -5.7 11.3 -4.8 11.3 L-3.8 11.05 -3.1 10.75 Q-2.85 10.75 -2.75 10.95 L-2.7 11.2 -2.25 11.2 Q-0.45 10.45 -0.25 10.45 L0.25 10.65 2.1 10.0 Q2.25 10.0 2.4 10.15 L2.7 10.25 Q3.15 10.25 3.95 9.7 4.75 9.1 4.9 9.1 5.1 9.1 5.4 9.4 L6.35 8.75 7.15 8.1 7.55 8.2 8.45 7.45 Q9.0 6.7 9.3 6.7 L9.75 6.9 Q10.25 6.9 10.65 6.05 L11.15 5.5 11.75 5.2 12.55 4.25" fill="#000000" fill-opacity="0.4" fill-rule="evenodd" stroke="none"/>
      <path d="M10.95 5.85 L10.95 5.15 11.05 3.7 11.3 3.3 11.4 3.3 12.95 3.3 Q12.65 5.3 10.95 5.85 M9.8 5.4 L9.5 6.45 8.1 6.7 7.25 6.85 Q7.1 5.9 7.85 5.75 L9.25 5.35 9.8 5.4 M2.65 8.5 L3.75 8.6 2.55 9.55 1.4 9.2 0.5 9.0 Q0.45 8.15 2.65 8.5 M5.15 8.75 L5.85 7.75 7.45 7.8 7.05 8.4 Q6.15 9.45 5.6 9.5 L4.65 9.35 5.15 8.75 M-0.5 10.65 Q-0.95 11.2 -2.0 11.45 -3.1 11.7 -3.3 10.9 L-2.25 10.3 -1.05 9.65 0.3 10.0 -0.5 10.65 M-5.35 11.0 Q-5.7 10.05 -4.9 9.6 L-4.3 9.55 -3.9 9.5 -3.3 9.8 -5.35 11.0" fill="#3f4197" fill-rule="evenodd" stroke="none"/>
      <path d="M10.95 5.15 L10.95 5.85 Q10.15 7.75 9.3 7.15 L9.5 6.45 9.8 5.4 10.95 5.15 M5.2 7.75 Q5.0 6.6 7.25 6.85 L8.1 6.7 7.45 7.8 5.85 7.75 5.2 7.75 M0.5 9.0 L1.4 9.2 0.3 10.0 -1.05 9.65 -2.1 9.4 Q-1.1 8.3 0.5 9.0 M2.55 9.55 L3.75 8.6 5.15 8.75 4.65 9.35 Q2.85 10.85 1.75 10.2 L2.55 9.55 M-3.3 10.9 Q-6.25 12.1 -5.35 11.0 L-3.3 9.8 -2.25 10.3 -3.3 10.9" fill="#242452" fill-rule="evenodd" stroke="none"/>
      <path d="M11.05 3.7 L10.95 5.15 9.8 5.4 9.25 5.35 Q8.8 4.65 11.05 3.7 M9.5 6.45 L9.3 7.15 Q8.35 8.9 7.05 8.4 L7.45 7.8 8.1 6.7 9.5 6.45 M2.65 8.5 Q2.6 7.7 3.6 7.65 L5.2 7.75 5.85 7.75 5.15 8.75 3.75 8.6 2.65 8.5 M1.4 9.2 L2.55 9.55 1.75 10.2 Q-0.6 11.35 -0.5 10.65 L0.3 10.0 1.4 9.2 M-3.9 9.5 L-2.1 9.4 -1.05 9.65 -2.25 10.3 -3.3 9.8 -3.9 9.5" fill="#2e2f6a" fill-rule="evenodd" stroke="none"/>
    </g>
    <linearGradient gradientTransform="matrix(-0.0014, 0.003, -0.0021, -0.001, 31.85, 23.25)" gradientUnits="userSpaceOnUse" id="gradient0" spreadMethod="pad" x1="-819.2" x2="819.2">
      <stop offset="0.0" stop-color="#999999"/>
      <stop offset="0.8588235294117647" stop-color="#ffffff"/>
    </linearGradient>
    <linearGradient gradientTransform="matrix(0.004, 0.0024, -0.0024, 0.004, 19.95, 29.2)" gradientUnits="userSpaceOnUse" id="gradient1" spreadMethod="pad" x1="-819.2" x2="819.2">
      <stop offset="0.10588235294117647" stop-color="#ffffff"/>
      <stop offset="1.0" stop-color="#999999"/>
    </linearGradient>
    <linearGradient gradientTransform="matrix(0.0051, 0.003, -0.002, 0.0033, 11.05, 29.85)" gradientUnits="userSpaceOnUse" id="gradient2" spreadMethod="pad" x1="-819.2" x2="819.2">
      <stop offset="0.10588235294117647" stop-color="#ffffff"/>
      <stop offset="1.0" stop-color="#999999"/>
    </linearGradient>
    <linearGradient gradientTransform="matrix(0.0049, 0.0, 0.0, 0.0015, 2.15, 29.2)" gradientUnits="userSpaceOnUse" id="gradient3" spreadMethod="pad" x1="-819.2" x2="819.2">
      <stop offset="0.10588235294117647" stop-color="#ffffff"/>
      <stop offset="1.0" stop-color="#999999"/>
    </linearGradient>
    <linearGradient gradientTransform="matrix(0.0027, 0.0, 0.0, 0.0028, -9.85, 24.3)" gradientUnits="userSpaceOnUse" id="gradient4" spreadMethod="pad" x1="-819.2" x2="819.2">
      <stop offset="0.10588235294117647" stop-color="#ffffff"/>
      <stop offset="1.0" stop-color="#999999"/>
    </linearGradient>
    <linearGradient gradientTransform="matrix(0.0043, 0.0, 0.0, 0.0026, -4.95, 27.35)" gradientUnits="userSpaceOnUse" id="gradient5" spreadMethod="pad" x1="-819.2" x2="819.2">
      <stop offset="0.10588235294117647" stop-color="#ffffff"/>
      <stop offset="1.0" stop-color="#999999"/>
    </linearGradient>
    <linearGradient gradientTransform="matrix(0.003, 0.0018, -0.0022, 0.0037, 27.3, 26.5)" gradientUnits="userSpaceOnUse" id="gradient6" spreadMethod="pad" x1="-819.2" x2="819.2">
      <stop offset="0.10588235294117647" stop-color="#ffffff"/>
      <stop offset="1.0" stop-color="#999999"/>
    </linearGradient>
    <linearGradient gradientTransform="matrix(0.0087, 0.0, 0.0, 0.0137, -4.8, 14.55)" gradientUnits="userSpaceOnUse" id="gradient7" spreadMethod="pad" x1="-819.2" x2="819.2">
      <stop offset="0.11764705882352941" stop-color="#282859"/>
      <stop offset="1.0" stop-color="#4d50b9"/>
    </linearGradient>
    <linearGradient gradientTransform="matrix(0.0092, 0.0, 0.0, 0.0121, 26.3, 13.2)" gradientUnits="userSpaceOnUse" id="gradient8" spreadMethod="pad" x1="-819.2" x2="819.2">
      <stop offset="0.3568627450980392" stop-color="#181836"/>
      <stop offset="1.0" stop-color="#4d50b9"/>
    </linearGradient>
    <linearGradient gradientTransform="matrix(0.0086, 0.0, 0.0, 0.0143, 23.15, 15.0)" gradientUnits="userSpaceOnUse" id="gradient9" spreadMethod="pad" x1="-819.2" x2="819.2">
      <stop offset="0.30196078431372547" stop-color="#202046"/>
      <stop offset="1.0" stop-color="#4d50b9"/>
    </linearGradient>
    <linearGradient gradientTransform="matrix(0.007, 0.0, 0.0, 0.0157, 18.8, 16.15)" gradientUnits="userSpaceOnUse" id="gradient10" spreadMethod="pad" x1="-819.2" x2="819.2">
      <stop offset="0.22745098039215686" stop-color="#22224a"/>
      <stop offset="1.0" stop-color="#4d50b9"/>
    </linearGradient>
    <linearGradient gradientTransform="matrix(0.0057, 0.0, 0.0, 0.0157, 12.2, 16.15)" gradientUnits="userSpaceOnUse" id="gradient11" spreadMethod="pad" x1="-819.2" x2="819.2">
      <stop offset="0.10588235294117647" stop-color="#23234e"/>
      <stop offset="1.0" stop-color="#4d50b9"/>
    </linearGradient>
    <linearGradient gradientTransform="matrix(0.0059, 0.0, 0.0, 0.0155, 4.25, 16.0)" gradientUnits="userSpaceOnUse" id="gradient12" spreadMethod="pad" x1="-819.2" x2="819.2">
      <stop offset="0.10588235294117647" stop-color="#202046"/>
      <stop offset="1.0" stop-color="#4d50b9"/>
    </linearGradient>
    <linearGradient gradientTransform="matrix(0.0076, 0.0, 0.0, 0.0151, -0.7, 15.65)" gradientUnits="userSpaceOnUse" id="gradient13" spreadMethod="pad" x1="-819.2" x2="819.2">
      <stop offset="0.10588235294117647" stop-color="#22224a"/>
      <stop offset="1.0" stop-color="#4d50b9"/>
    </linearGradient>
    <linearGradient gradientTransform="matrix(0.0, 0.014, -0.0129, 0.0, 19.45, 14.6)" gradientUnits="userSpaceOnUse" id="gradient14" spreadMethod="pad" x1="-819.2" x2="819.2">
      <stop offset="0.0" stop-color="#cccccc"/>
      <stop offset="1.0" stop-color="#ffffff"/>
    </linearGradient>
    <linearGradient gradientTransform="matrix(0.0, 0.0127, -0.0105, 0.0, -0.3, 13.45)" gradientUnits="userSpaceOnUse" id="gradient15" spreadMethod="pad" x1="-819.2" x2="819.2">
      <stop offset="0.0" stop-color="#cccccc"/>
      <stop offset="1.0" stop-color="#ffffff"/>
    </linearGradient>
    <linearGradient gradientTransform="matrix(0.0258, 0.0, 0.0, 0.0149, 10.6, 15.5)" gradientUnits="userSpaceOnUse" id="gradient16" spreadMethod="pad" x1="-819.2" x2="819.2">
      <stop offset="0.0" stop-color="#851f1f"/>
      <stop offset="0.4470588235294118" stop-color="#cc0000"/>
      <stop offset="1.0" stop-color="#851f1f"/>
    </linearGradient>
  </defs>
</svg>
