<?xml version="1.0" encoding="UTF-8" standalone="no"?>
<svg xmlns:ffdec="https://www.free-decompiler.com/flash" xmlns:xlink="http://www.w3.org/1999/xlink" ffdec:objectType="frame" height="15.95px" width="29.05px" xmlns="http://www.w3.org/2000/svg">
  <g transform="matrix(1.0, 0.0, 0.0, 1.0, 4.4, 0.2)">
    <use ffdec:characterId="1" height="5.25" transform="matrix(1.0, 0.0, 0.0, 1.0, -3.55, 8.8)" width="28.2" xlink:href="#shape0"/>
    <use ffdec:characterId="3" height="12.75" id="Color" transform="matrix(1.0, 0.0, 0.0, 1.0, -3.65, -0.2)" width="28.3" xlink:href="#sprite0"/>
    <clipPath id="clipPath0" transform="matrix(1.0, 0.0, 0.0, 1.0, 0.0, 0.0)">
      <path d="M20.05 -0.2 L20.1 2.15 22.1 6.4 23.85 9.5 23.9 9.5 24.05 9.8 24.25 9.9 24.3 10.0 24.55 10.35 24.65 10.45 24.5 10.55 21.65 11.8 21.5 11.55 21.3 11.6 18.8 12.15 18.6 12.0 18.45 12.05 18.4 11.9 18.35 11.55 17.85 11.75 17.3 11.95 16.2 12.25 14.1 12.55 13.7 11.9 13.0 11.95 12.6 11.9 12.3 11.95 11.4 11.9 10.95 11.95 9.15 11.6 8.15 11.3 7.85 11.95 7.5 12.15 6.3 11.95 6.25 11.95 4.35 11.35 3.8 11.15 3.25 11.95 2.65 11.7 Q2.0 11.5 0.8 10.9 L0.75 10.9 0.2 11.6 0.15 11.6 -1.65 11.3 -2.4 10.9 -3.55 10.15 -3.65 10.0 -3.65 9.95 -3.6 9.9 -3.6 9.85 -3.45 9.65 -3.4 9.6 -1.5 5.5 -0.1 2.3 -0.1 -0.2 20.05 -0.2" fill="#346495" fill-rule="evenodd" stroke="none"/>
    </clipPath>
    <g clip-path="url(#clipPath0)">
      <use ffdec:characterId="4" height="15.4" transform="matrix(1.0, 0.0, 0.0, 1.0, -4.4, 0.35)" width="28.8" xlink:href="#shape2"/>
    </g>
  </g>
  <defs>
    <g id="shape0" transform="matrix(1.0, 0.0, 0.0, 1.0, 3.55, -8.8)">
      <path d="M23.95 10.8 L24.3 11.4 24.55 11.75 24.65 12.1 Q24.65 12.4 22.15 13.35 L21.65 12.8 18.5 13.75 18.2 13.65 18.25 13.6 18.15 13.55 18.15 12.95 17.1 13.3 15.05 13.95 14.7 14.05 14.6 14.05 14.35 13.95 14.3 13.3 14.1 13.3 11.85 13.55 11.25 13.55 10.7 13.6 9.25 13.25 8.25 12.95 7.95 13.6 7.6 13.8 6.4 13.6 6.35 13.6 4.45 13.0 3.9 12.8 3.35 13.6 2.75 13.35 0.9 12.55 0.85 12.55 0.3 13.25 0.25 13.25 -1.55 12.95 -2.3 12.55 -3.45 11.8 -3.55 11.65 -3.55 11.6 -3.5 11.55 -3.5 11.5 -3.35 11.3 -3.3 11.25 -2.1 8.8 Q0.8 10.4 4.8 10.4 L22.8 9.15 23.7 10.65 23.95 10.8" fill="#333333" fill-rule="evenodd" stroke="none"/>
      <path d="M21.35 12.05 L18.75 12.45 18.7 12.45 18.6 12.45 18.25 12.05 18.2 11.95 Q15.9 12.85 14.1 12.85 L14.05 12.85 13.75 12.35 13.05 12.5 11.35 12.5 8.4 11.75 8.35 11.85 7.8 12.45 7.65 12.45 7.75 12.5 8.35 12.85 8.3 12.9 7.85 13.8 7.3 13.3 6.9 12.6 5.1 12.0 4.15 11.55 3.95 11.8 3.65 12.1 3.45 12.3 3.75 12.55 4.05 12.75 3.4 13.55 3.05 13.15 2.7 12.5 2.35 11.85 1.75 11.6 1.0 11.25 0.6 11.8 0.15 11.95 0.45 12.1 1.0 12.5 0.95 12.5 0.25 13.3 -0.1 12.65 -0.45 12.05 -2.1 11.5 -3.1 10.95 -2.95 10.75 -2.85 10.6 -2.15 11.05 -0.7 11.6 Q-0.65 11.35 -0.4 11.5 L0.35 11.45 0.5 11.0 Q0.65 10.7 0.95 10.7 L1.95 11.3 2.75 11.45 Q3.15 11.45 3.15 11.7 L3.15 11.85 3.3 11.7 3.35 11.5 Q3.6 10.8 4.1 10.85 L4.15 10.95 Q4.35 10.75 4.35 11.15 L4.35 11.25 4.5 11.35 4.75 11.25 6.55 11.85 7.05 12.05 7.75 12.0 7.85 11.3 Q8.0 11.0 8.55 10.95 L8.6 11.1 8.6 11.25 8.75 11.35 10.5 11.8 13.35 11.8 14.2 11.55 14.4 11.75 14.3 11.95 14.3 12.05 14.2 12.25 14.2 12.4 14.85 12.4 18.15 11.6 Q18.15 11.15 18.5 11.55 L19.3 11.3 19.35 11.45 18.65 11.75 18.8 12.0 19.35 11.75 21.4 11.35 22.0 11.25 22.4 11.3 22.5 11.25 24.0 10.7 24.1 11.0 24.2 11.15 23.5 11.6 21.75 12.25 21.45 12.05 21.35 12.05 M23.0 12.1 L22.75 12.65 22.3 13.3 Q21.9 13.15 21.7 12.85 L21.65 12.7 22.1 12.4 22.9 12.0 23.0 12.1 M3.1 11.9 L3.0 11.95 3.05 12.0 3.1 11.9 M15.7 12.85 L15.55 13.05 14.6 14.0 14.45 14.05 14.35 13.2 14.9 12.95 15.7 12.85 M19.55 12.55 L19.35 12.8 19.05 13.2 18.35 13.55 18.15 13.55 18.15 13.15 18.25 12.85 19.5 12.45 19.55 12.55" fill="#000000" fill-opacity="0.6" fill-rule="evenodd" stroke="none"/>
    </g>
    <g id="sprite0" transform="matrix(1.0, 0.0, 0.0, 1.0, 3.65, 0.2)">
      <use ffdec:characterId="2" height="12.75" transform="matrix(1.0, 0.0, 0.0, 1.0, -3.65, -0.2)" width="28.3" xlink:href="#shape1"/>
    </g>
    <g id="shape1" transform="matrix(1.0, 0.0, 0.0, 1.0, 3.65, 0.2)">
      <path d="M20.05 -0.2 L20.1 2.15 22.1 6.4 23.85 9.5 23.9 9.5 24.05 9.8 24.25 9.9 24.3 10.0 24.55 10.35 24.65 10.45 24.5 10.55 21.65 11.8 21.5 11.55 21.3 11.6 18.8 12.15 18.6 12.0 18.45 12.05 18.4 11.9 18.35 11.55 17.85 11.75 17.3 11.95 16.2 12.25 14.1 12.55 13.7 11.9 13.0 11.95 12.6 11.9 12.3 11.95 11.4 11.9 10.95 11.95 9.15 11.6 8.15 11.3 7.85 11.95 7.5 12.15 6.3 11.95 6.25 11.95 4.35 11.35 3.8 11.15 3.25 11.95 2.65 11.7 Q2.0 11.5 0.8 10.9 L0.75 10.9 0.2 11.6 0.15 11.6 -1.65 11.3 -2.4 10.9 -3.55 10.15 -3.65 10.0 -3.65 9.95 -3.6 9.9 -3.6 9.85 -3.45 9.65 -3.4 9.6 -1.5 5.5 -0.1 2.3 -0.1 -0.2 20.05 -0.2" fill="#346495" fill-rule="evenodd" stroke="none"/>
    </g>
    <g id="shape2" transform="matrix(1.0, 0.0, 0.0, 1.0, 4.4, -0.35)">
      <path d="M-2.2 5.95 Q10.15 8.0 22.5 5.95 M-1.4 2.85 Q9.5 4.85 21.0 3.05 M-3.9 8.4 Q10.35 11.45 23.9 8.4" fill="none" stroke="#ffffff" stroke-linecap="round" stroke-linejoin="round" stroke-opacity="0.4" stroke-width="1.0"/>
      <path d="M7.05 13.95 L7.3 13.95 7.2 14.25 6.95 14.65 6.95 14.35 7.05 13.95 M2.2 1.7 L2.5 1.7 2.75 1.7 3.05 1.8 3.2 1.8 -1.15 12.25 -1.4 12.5 -1.8 12.5 -2.05 12.25 -2.05 11.85 2.2 1.7 M8.35 1.8 L9.35 1.8 8.1 11.2 7.6 10.95 7.15 10.8 8.35 1.8 M5.3 1.8 L6.3 1.8 3.75 11.05 2.9 10.75 2.85 10.75 5.3 1.8 M11.1 1.8 L12.1 1.8 13.95 15.2 13.85 15.55 13.55 15.75 13.15 15.65 12.95 15.35 11.1 1.8 M13.95 1.8 L15.0 1.75 18.45 11.5 Q18.0 11.7 18.0 11.85 L17.85 12.75 18.0 13.25 18.0 13.3 13.95 1.8 M22.0 11.3 L21.2 11.55 16.9 2.0 16.8 1.75 17.8 1.65 22.15 11.25 22.0 11.3" fill="#ffffff" fill-opacity="0.4" fill-rule="evenodd" stroke="none"/>
      <path d="M-3.1 8.0 Q10.55 10.85 23.6 8.0" fill="none" stroke="#ffcc00" stroke-linecap="round" stroke-linejoin="round" stroke-width="1.0"/>
      <path d="M20.35 0.95 L20.25 1.3 19.65 1.5 19.15 1.55 17.2 1.75 17.05 1.8 16.1 1.8 16.0 1.8 16.25 2.4 16.85 3.7 17.5 5.0 18.35 6.4 20.1 9.0 22.0 11.4 21.65 11.7 21.6 11.7 Q21.35 12.05 19.7 12.0 L19.1 12.25 18.95 12.2 18.9 12.05 19.5 11.2 15.3 1.75 15.25 1.75 14.85 1.8 13.15 1.8 13.25 2.0 13.75 3.4 14.65 6.3 15.65 9.4 16.2 10.85 16.65 11.55 17.05 12.2 16.5 12.95 16.25 12.75 15.95 12.55 15.15 12.7 14.9 12.55 14.1 12.75 13.9 12.7 13.85 12.55 14.5 12.1 15.1 11.45 13.65 6.65 12.3 1.8 11.75 1.8 11.55 2.65 11.2 3.3 10.95 3.0 10.65 2.55 10.6 2.6 Q10.6 4.35 10.4 4.35 10.2 4.35 9.7 3.15 L9.7 3.1 9.4 2.7 9.1 2.05 9.0 1.95 9.0 2.25 8.25 6.7 6.85 11.1 7.3 11.6 7.75 12.25 7.55 12.5 7.25 12.4 6.95 12.25 6.65 12.35 Q6.3 12.35 4.7 11.55 L5.45 9.45 6.8 6.3 8.55 1.8 8.45 1.8 5.05 1.8 4.55 1.8 Q4.55 2.8 2.5 6.2 L2.35 6.45 1.6 7.85 0.6 9.1 -0.1 10.1 0.1 11.8 -0.05 12.05 -0.45 11.65 -0.45 11.75 -0.65 11.8 -0.95 11.45 -1.2 11.75 -1.45 11.4 -1.75 11.75 -2.0 11.6 -2.05 11.6 -2.3 11.4 -2.75 10.95 -2.95 11.05 -3.1 11.0 -3.15 10.8 -1.5 9.15 1.4 5.85 2.9 3.35 3.25 2.6 3.3 2.35 3.6 1.8 2.15 1.65 1.95 1.65 1.55 1.55 0.15 1.4 -0.85 1.0 -0.65 0.75 Q-0.35 0.25 0.0 0.35 L2.5 0.65 3.4 0.75 17.0 0.75 20.4 0.45 20.35 0.95 M3.95 6.55 L3.8 7.6 3.15 9.85 3.05 9.95 2.95 10.15 2.8 10.4 2.8 10.45 2.65 10.75 3.3 11.8 3.2 12.05 3.0 12.2 2.65 12.0 2.4 12.25 1.95 11.9 1.65 11.4 1.05 11.3 0.9 11.15 1.65 10.15 2.9 8.45 3.6 7.25 3.95 6.55 M15.45 2.85 L15.45 2.95 15.4 2.85 15.45 2.85 M21.0 7.35 L22.1 8.5 22.9 9.35 24.4 10.9 Q24.4 11.0 23.4 11.3 23.2 11.35 22.95 11.55 L22.65 11.75 22.45 11.5 22.6 11.1 21.0 8.5 Q19.4 6.15 19.4 5.5 L19.4 5.35 19.9 6.0 21.0 7.35" fill="#000000" fill-opacity="0.2" fill-rule="evenodd" stroke="none"/>
      <path d="M21.15 12.1 L21.0 12.05 20.95 11.85 21.75 11.35 22.0 11.2 22.6 10.95 22.55 11.25 22.45 11.6 22.25 11.7 21.7 12.0 21.35 12.1 21.15 12.1 M19.35 10.95 Q19.6 10.85 19.6 11.1 L19.2 11.9 18.65 12.4 17.95 11.85 18.05 11.65 19.0 11.15 19.35 10.95 M14.8 12.0 L14.1 12.65 13.9 12.65 13.35 12.4 13.1 12.15 Q14.55 11.5 15.1 11.5 L14.8 12.0 M0.6 11.35 L0.75 11.65 0.3 11.95 Q0.0 11.95 -0.4 10.65 -0.4 10.15 -0.15 10.15 L0.95 10.9 0.6 11.35 M7.1 10.9 L7.55 11.05 8.55 11.35 8.55 11.4 8.3 11.9 7.95 12.3 Q7.55 12.3 7.1 11.65 L6.7 11.0 7.1 10.9 M2.85 10.65 L3.15 10.8 4.05 11.25 3.85 11.45 3.9 11.55 3.4 12.0 3.35 12.0 3.3 12.0 2.85 11.45 2.55 10.8 Q2.55 10.6 2.85 10.65" fill="#000000" fill-opacity="0.6" fill-rule="evenodd" stroke="none"/>
    </g>
  </defs>
</svg>
