<?xml version="1.0" encoding="UTF-8" standalone="no"?>
<svg xmlns:ffdec="https://www.free-decompiler.com/flash" xmlns:xlink="http://www.w3.org/1999/xlink" ffdec:objectType="frame" height="20.3px" width="33.2px" xmlns="http://www.w3.org/2000/svg">
  <g transform="matrix(1.0, 0.0, 0.0, 1.0, 7.3, 0.2)">
    <use ffdec:characterId="1" height="6.75" transform="matrix(1.0, 0.0, 0.0, 1.0, -7.3, 13.35)" width="33.1" xlink:href="#shape0"/>
    <use ffdec:characterId="3" height="17.3" id="Color" transform="matrix(1.0, 0.0, 0.0, 1.0, -7.05, -0.2)" width="32.95" xlink:href="#sprite0"/>
    <use ffdec:characterId="4" height="16.15" transform="matrix(1.0, 0.0, 0.0, 1.0, -1.8, -0.2)" width="23.5" xlink:href="#shape2"/>
  </g>
  <defs>
    <g id="shape0" transform="matrix(1.0, 0.0, 0.0, 1.0, 7.3, -13.35)">
      <path d="M25.8 15.9 L25.0 16.25 25.2 17.1 Q24.95 17.1 24.75 17.25 L24.6 17.3 24.55 17.35 24.3 16.5 22.95 17.0 23.2 17.85 22.75 18.0 22.5 18.1 22.3 17.25 20.4 17.8 20.6 18.65 20.25 18.75 19.8 18.9 19.75 18.9 19.6 18.0 17.85 18.4 17.95 19.35 17.7 19.35 17.0 19.5 16.9 18.6 15.2 18.85 15.3 19.8 15.15 19.8 14.4 19.9 14.3 18.95 12.35 19.1 12.35 20.05 11.45 20.1 11.4 19.15 9.1 19.15 9.05 20.05 7.8 20.0 7.8 19.1 5.55 18.85 5.45 19.75 4.5 19.65 4.6 18.75 2.8 18.45 2.65 19.3 1.75 19.1 1.9 18.25 0.0 17.8 -0.25 18.6 -1.25 18.35 -1.05 17.5 -2.95 16.9 -3.25 17.7 -4.05 17.45 -3.8 16.65 -5.45 16.0 -5.75 16.8 -6.65 16.4 -6.3 15.65 -7.3 15.25 -7.0 14.45 -6.0 14.9 -5.5 13.75 -4.75 14.15 -5.15 15.2 -3.5 15.85 -3.1 14.8 -2.3 15.1 -2.65 16.1 -0.8 16.7 -0.5 15.7 0.6 16.0 0.3 16.95 2.05 17.4 2.25 16.35 2.45 16.4 3.1 16.55 2.95 17.55 4.65 17.85 4.75 16.8 5.7 16.95 5.6 18.0 7.8 18.2 7.8 17.15 9.15 17.2 9.1 18.25 11.35 18.25 11.3 17.15 12.25 17.1 12.3 18.25 14.25 18.1 14.15 16.9 15.0 16.8 15.15 18.0 16.8 17.75 16.65 16.5 17.55 16.3 17.7 17.55 19.4 17.2 19.15 15.9 20.0 15.7 20.25 16.95 22.1 16.4 21.75 15.1 22.4 14.85 22.75 16.2 24.1 15.7 23.7 14.35 24.35 14.05 24.75 15.45 25.55 15.1 25.8 15.9" fill="#000000" fill-opacity="0.29803923" fill-rule="evenodd" stroke="none"/>
      <path d="M25.8 15.5 L25.0 15.85 25.2 16.7 Q24.95 16.7 24.75 16.85 L24.6 16.9 24.55 16.95 24.3 16.1 22.95 16.6 23.2 17.45 22.75 17.6 22.5 17.7 22.3 16.85 20.4 17.4 20.6 18.25 20.25 18.35 19.8 18.5 19.75 18.5 19.6 17.6 17.85 18.0 17.95 18.95 17.7 18.95 17.0 19.1 16.9 18.2 15.2 18.45 15.3 19.4 15.15 19.4 14.4 19.5 14.3 18.55 12.35 18.7 12.35 19.65 11.45 19.7 11.4 18.75 9.1 18.75 9.05 19.65 7.8 19.6 7.8 18.7 5.55 18.45 5.45 19.35 4.5 19.25 4.6 18.35 2.8 18.05 2.65 18.9 1.75 18.7 1.9 17.85 0.0 17.4 -0.25 18.2 -1.25 17.95 -1.05 17.1 -2.95 16.5 -3.25 17.3 -4.05 17.05 -3.8 16.25 -5.45 15.6 -5.75 16.4 -6.65 16.0 -6.3 15.25 -7.3 14.85 -7.0 14.05 -6.0 14.5 -5.5 13.35 -4.75 13.75 -5.15 14.8 -3.5 15.45 -3.1 14.4 -2.3 14.7 -2.65 15.7 -0.8 16.3 -0.5 15.3 0.6 15.6 0.3 16.55 2.05 17.0 2.25 15.95 2.45 16.0 3.1 16.15 2.95 17.15 4.65 17.45 4.75 16.4 5.7 16.55 5.6 17.6 7.8 17.8 7.8 16.75 9.15 16.8 9.1 17.85 11.35 17.85 11.3 16.75 12.25 16.7 12.3 17.85 14.25 17.7 14.15 16.5 15.0 16.4 15.15 17.6 16.8 17.35 16.65 16.1 17.55 15.9 17.7 17.15 19.4 16.8 19.15 15.5 20.0 15.3 20.25 16.55 22.1 16.0 21.75 14.7 22.4 14.45 22.75 15.8 24.1 15.3 23.7 13.95 24.35 13.65 24.75 15.05 25.55 14.7 25.8 15.5" fill="#ffffff" fill-rule="evenodd" stroke="none"/>
    </g>
    <g id="sprite0" transform="matrix(1.0, 0.0, 0.0, 1.0, 7.05, 0.2)">
      <use ffdec:characterId="2" height="17.3" transform="matrix(1.0, 0.0, 0.0, 1.0, -7.05, -0.2)" width="32.95" xlink:href="#shape1"/>
    </g>
    <g id="shape1" transform="matrix(1.0, 0.0, 0.0, 1.0, 7.05, 0.2)">
      <path d="M2.5 16.35 Q-3.45 15.2 -7.05 13.05 L-7.0 13.0 -4.3 6.5 Q-2.55 2.9 -0.1 -0.2 L20.05 -0.2 Q22.4 2.85 23.7 6.35 L25.9 13.65 Q14.4 18.7 2.5 16.35" fill="#a30f0f" fill-rule="evenodd" stroke="none"/>
    </g>
    <g id="shape2" transform="matrix(1.0, 0.0, 0.0, 1.0, 1.8, 0.2)">
      <path d="M21.2 15.2 L21.15 15.25 Q20.7 15.85 19.9 15.95 L19.45 15.9 19.2 12.4 19.15 12.4 18.3 8.55 18.35 8.55 17.15 4.85 17.1 4.85 15.6 1.2 Q15.75 1.05 15.95 1.05 L15.55 1.1 15.3 -0.2 17.35 -0.2 17.15 0.15 16.4 0.9 17.4 0.95 Q18.2 1.3 18.5 2.1 18.85 2.9 18.5 3.6 L17.85 4.55 18.6 4.55 Q18.3 4.95 18.3 5.5 18.3 6.2 18.8 6.7 19.3 7.2 19.95 7.2 L19.85 7.4 Q19.6 8.1 18.95 8.4 L19.1 8.4 19.2 8.4 19.35 8.4 19.45 8.4 19.15 8.85 Q19.0 9.15 19.0 9.5 19.0 10.2 19.5 10.7 L19.55 10.75 Q20.05 11.2 20.7 11.2 L20.9 11.2 20.85 11.3 20.75 11.4 20.4 11.95 20.55 12.0 20.4 12.1 20.1 12.3 20.05 12.4 19.8 12.75 19.75 12.85 Q19.6 13.15 19.6 13.5 19.6 14.1 19.95 14.55 L20.1 14.7 20.15 14.75 Q20.6 15.15 21.2 15.2 M1.3 4.55 L2.05 4.55 1.4 3.6 Q1.05 2.9 1.4 2.1 1.7 1.3 2.5 0.95 L3.5 0.9 2.75 0.15 2.55 -0.2 4.6 -0.2 4.35 1.1 4.0 1.05 Q4.15 1.05 4.3 1.2 L2.8 4.85 2.75 4.85 1.55 8.55 1.6 8.55 0.75 12.4 0.7 12.4 0.45 15.9 0.0 15.95 Q-0.85 15.85 -1.3 15.15 L-1.4 15.0 Q-0.8 14.95 -0.35 14.55 L-0.3 14.5 -0.15 14.35 0.2 13.3 0.05 12.65 0.0 12.55 -0.25 12.2 -0.3 12.1 -0.5 11.95 -0.85 11.4 -1.05 11.0 -0.9 11.0 Q-0.25 11.0 0.25 10.55 L0.3 10.5 Q0.8 10.0 0.8 9.3 L0.65 8.65 0.5 8.35 0.95 8.4 Q0.3 8.1 0.05 7.4 L-0.1 7.0 Q0.5 7.0 1.0 6.5 1.5 6.0 1.5 5.3 L1.3 4.55" fill="#cccccc" fill-rule="evenodd" stroke="none"/>
      <path d="M21.2 15.2 Q20.6 15.15 20.15 14.75 L20.1 14.7 19.95 14.55 Q19.6 14.1 19.6 13.5 19.6 13.15 19.75 12.85 L19.8 12.75 20.05 12.4 20.1 12.3 20.4 12.1 20.55 12.0 21.0 12.25 Q21.65 12.8 21.65 13.75 21.8 14.55 21.2 15.15 L21.2 15.2 M20.9 11.2 L20.7 11.2 Q20.05 11.2 19.55 10.75 L19.5 10.7 Q19.0 10.2 19.0 9.5 19.0 9.15 19.15 8.85 L19.45 8.4 20.05 8.55 20.1 8.55 20.15 8.6 Q20.85 9.05 21.0 9.95 L20.95 11.05 20.9 11.2 M19.95 7.2 Q19.3 7.2 18.8 6.7 18.3 6.2 18.3 5.5 18.3 4.95 18.6 4.55 L18.95 4.65 Q19.7 5.05 19.95 5.9 20.2 6.6 19.95 7.2 M-1.4 15.0 Q-1.9 14.45 -1.75 13.75 -1.75 12.8 -1.1 12.25 L-0.5 11.95 -0.3 12.1 -0.25 12.2 0.0 12.55 0.05 12.65 0.2 13.3 -0.15 14.35 -0.3 14.5 -0.35 14.55 Q-0.8 14.95 -1.4 15.0 M-1.05 11.0 L-1.1 9.95 Q-0.95 9.05 -0.25 8.6 L0.5 8.35 0.65 8.65 0.8 9.3 Q0.8 10.0 0.3 10.5 L0.25 10.55 Q-0.25 11.0 -0.9 11.0 L-1.05 11.0 M-0.1 7.0 Q-0.25 6.5 -0.05 5.9 0.2 5.05 0.95 4.65 L1.3 4.55 1.5 5.3 Q1.5 6.0 1.0 6.5 0.5 7.0 -0.1 7.0 M13.75 3.9 Q13.95 3.75 14.25 3.75 L14.8 3.9 15.0 4.45 14.8 4.95 14.25 5.15 Q13.95 5.15 13.75 4.95 L13.55 4.45 13.75 3.9 M15.05 8.0 Q15.25 7.85 15.55 7.85 L16.1 8.0 16.3 8.55 16.1 9.05 15.55 9.25 Q15.25 9.25 15.05 9.05 L14.85 8.55 15.05 8.0 M5.8 4.95 Q5.6 5.15 5.25 5.15 4.95 5.15 4.75 4.95 L4.55 4.45 4.75 3.9 Q4.95 3.75 5.25 3.75 L5.8 3.9 6.0 4.45 5.8 4.95 M4.25 9.25 Q3.95 9.25 3.75 9.05 L3.55 8.55 3.75 8.0 Q3.95 7.85 4.25 7.85 L4.8 8.0 5.0 8.55 4.8 9.05 4.25 9.25 M2.85 12.5 L3.35 12.35 3.9 12.5 4.1 13.05 3.9 13.55 3.35 13.75 Q3.05 13.75 2.85 13.55 L2.65 13.05 Q2.65 12.7 2.85 12.5 M15.95 13.55 L15.75 13.05 15.95 12.5 Q16.15 12.35 16.45 12.35 L17.0 12.5 17.2 13.05 17.0 13.55 16.45 13.75 Q16.15 13.75 15.95 13.55" fill="#ffffff" fill-rule="evenodd" stroke="none"/>
      <path d="M20.0 -0.2 Q18.9 0.45 17.05 1.1 13.45 2.45 10.0 2.5 6.55 2.55 2.95 1.2 1.15 0.5 0.0 -0.2 L20.0 -0.2 M20.0 2.2 Q20.0 7.7 18.9 8.4 17.8 9.8 10.0 10.0 13.25 9.25 16.95 6.75 18.8 5.5 20.0 2.2 M1.0 1.3 Q6.9 5.0 9.6 5.6 L4.5 4.5 Q1.75 3.8 1.0 1.3 M7.9 13.95 L8.6 14.75 7.1 13.95 7.0 13.9 3.5 12.1 Q-2.4 9.1 -0.7 1.2 -0.15 2.85 1.25 5.05 3.8 9.2 7.85 13.9 L7.9 13.95" fill="#000000" fill-opacity="0.29803923" fill-rule="evenodd" stroke="none"/>
    </g>
  </defs>
</svg>
