<?xml version="1.0" encoding="UTF-8" standalone="no"?>
<svg xmlns:ffdec="https://www.free-decompiler.com/flash" xmlns:xlink="http://www.w3.org/1999/xlink" ffdec:objectType="frame" height="26.6px" width="44.9px" xmlns="http://www.w3.org/2000/svg">
  <g transform="matrix(1.0, 0.0, 0.0, 1.0, 12.3, 0.1)">
    <use ffdec:characterId="1" height="26.6" transform="matrix(1.0, 0.0, 0.0, 1.0, -12.3, -0.1)" width="44.9" xlink:href="#shape0"/>
    <use ffdec:characterId="3" height="26.3" id="Color" transform="matrix(1.0, 0.0, 0.0, 1.0, -0.55, -0.1)" width="21.15" xlink:href="#sprite0"/>
    <use ffdec:characterId="4" height="26.15" transform="matrix(1.0, 0.0, 0.0, 1.0, -0.7, 0.0)" width="21.4" xlink:href="#shape2"/>
  </g>
  <defs>
    <g id="shape0" transform="matrix(1.0, 0.0, 0.0, 1.0, 12.3, 0.1)">
      <path d="M24.8 21.45 Q24.75 20.55 22.4 20.1 L14.45 19.45 11.1 19.4 10.75 19.4 9.05 19.45 6.1 19.5 -0.95 20.15 Q-3.6 20.65 -4.15 21.4 L-4.3 21.65 Q-4.4 19.45 -4.05 17.4 L-3.75 16.0 -3.55 15.25 -3.4 14.85 -0.95 13.05 Q0.6 12.25 2.0 11.85 5.6 10.85 10.25 10.8 15.0 10.75 18.0 11.75 20.3 12.5 24.45 16.65 24.9 18.95 24.8 21.45" fill="#cc9900" fill-rule="evenodd" stroke="none"/>
      <path d="M6.15 0.25 L7.6 0.15 Q10.85 -0.1 13.9 0.15 L14.4 0.2 15.25 1.7 Q16.75 3.95 20.65 8.4 23.25 11.9 24.25 15.8 L24.45 16.65 Q20.3 12.5 18.0 11.75 15.0 10.75 10.25 10.8 5.6 10.85 2.0 11.85 0.6 12.25 -0.95 13.05 L-3.4 14.85 -3.4 14.75 Q-2.35 11.5 -0.15 8.5 3.75 4.05 5.25 1.8 L6.15 0.25" fill="#cc6600" fill-rule="evenodd" stroke="none"/>
      <path d="M24.8 11.2 L24.8 10.95 24.7 8.7 Q25.65 10.65 27.15 12.05 29.3 14.1 29.5 15.1 29.9 16.95 29.4 19.05 L28.5 21.4 Q27.7 23.1 26.55 24.35 L26.9 21.7 Q27.05 18.7 26.5 15.25 26.3 13.9 25.2 11.9 L24.8 11.2 M-6.0 24.5 L-7.85 21.85 -8.0 21.5 -8.55 20.05 Q-9.45 17.5 -9.0 15.25 L-9.0 15.2 Q-8.8 14.2 -6.65 12.15 -4.8 10.45 -3.75 7.85 L-3.9 10.2 -3.9 10.8 -4.55 11.9 Q-5.65 13.85 -5.85 15.2 L-5.85 15.25 -6.3 20.05 -6.2 22.3 -6.0 24.5" fill="#914f00" fill-rule="evenodd" stroke="none"/>
      <path d="M17.1 -0.1 Q19.2 3.75 22.9 8.4 L24.8 11.2 Q24.75 13.65 24.25 15.8 23.25 11.9 20.65 8.4 16.75 3.95 15.25 1.7 L14.4 0.2 14.3 -0.1 17.1 -0.1 M3.5 0.0 L6.2 0.0 6.15 0.25 5.25 1.8 Q3.75 4.05 -0.15 8.5 -2.35 11.5 -3.4 14.75 -3.85 12.85 -3.9 10.8 L-2.25 8.4 Q1.4 3.8 3.5 0.0" fill="#703d1e" fill-rule="evenodd" stroke="none"/>
      <path d="M26.55 24.35 L23.9 26.4 24.4 24.1 24.75 21.85 24.8 21.45 Q24.9 18.95 24.45 16.65 L24.25 15.8 Q24.75 13.65 24.8 11.2 L25.2 11.9 Q26.3 13.9 26.5 15.25 27.05 18.7 26.9 21.7 L26.55 24.35 M-4.3 21.65 L-4.3 22.85 -4.1 24.1 -3.4 26.5 Q-4.9 25.7 -6.0 24.5 L-6.2 22.3 -6.3 20.05 -5.85 15.25 -5.85 15.2 Q-5.65 13.85 -4.55 11.9 L-3.9 10.8 Q-3.85 12.85 -3.4 14.75 L-3.4 14.85 -3.55 15.25 -3.75 16.0 -4.05 17.4 Q-4.4 19.45 -4.3 21.65" fill="#ad6b1c" fill-rule="evenodd" stroke="none"/>
      <path d="M17.1 -0.1 L20.5 -0.1 Q23.0 3.8 23.8 6.4 L24.7 8.7 24.8 10.95 24.8 11.2 22.9 8.4 Q19.2 3.75 17.1 -0.1 M-3.75 7.85 L-3.3 6.5 Q-2.6 4.15 -0.5 0.8 L0.0 0.0 3.5 0.0 Q1.4 3.8 -2.25 8.4 L-3.9 10.8 -3.9 10.2 -3.75 7.85" fill="#512409" fill-rule="evenodd" stroke="none"/>
      <path d="M25.15 3.35 Q26.3 4.5 25.2 6.6 24.5 8.0 28.45 8.75 L30.4 9.05 32.6 9.2 32.35 9.9 Q31.9 10.85 31.5 10.8 23.35 9.9 24.55 5.2 L24.8 5.0 25.1 4.7 25.15 4.7 Q25.4 3.95 25.15 3.35 M-4.9 5.05 L-4.9 6.1 Q-4.55 8.4 -5.75 9.55 -7.15 10.95 -11.1 11.3 -11.6 11.35 -12.3 10.1 L-8.7 9.4 Q-5.15 8.35 -5.4 6.8 -5.7 4.9 -5.35 3.65 -4.95 2.4 -3.95 2.0 L-4.0 2.1 -5.0 3.4 -5.0 3.5 Q-5.15 4.4 -4.9 5.05" fill="#914f00" fill-rule="evenodd" stroke="none"/>
      <path d="M25.15 3.35 Q25.4 3.95 25.15 4.7 L25.1 4.7 24.8 5.0 24.55 5.2 24.6 5.0 Q25.05 3.55 22.3 3.2 L19.55 3.1 19.5 2.0 23.35 2.4 Q24.55 2.75 25.15 3.35 M-3.95 2.0 L-2.25 1.8 -0.7 2.0 -0.75 3.1 -3.05 3.2 Q-4.7 3.65 -4.9 5.05 -5.15 4.4 -5.0 3.5 L-5.0 3.4 -4.0 2.1 -3.95 2.0" fill="#512409" fill-rule="evenodd" stroke="none"/>
    </g>
    <g id="sprite0" transform="matrix(1.0, 0.0, 0.0, 1.0, 0.05, 0.1)">
      <use ffdec:characterId="2" height="26.3" transform="matrix(1.0, 0.0, 0.0, 1.0, -0.05, -0.1)" width="21.15" xlink:href="#shape1"/>
    </g>
    <g id="shape1" transform="matrix(1.0, 0.0, 0.0, 1.0, 0.05, 0.1)">
      <path d="M0.2 -0.1 L20.75 -0.05 21.1 1.95 Q21.15 8.95 19.4 15.6 L17.05 23.05 17.5 24.5 16.55 25.45 16.4 26.05 15.6 26.1 13.7 26.15 11.4 26.05 10.85 24.75 11.95 11.75 11.95 11.25 11.95 11.05 Q11.9 9.9 11.05 9.7 L10.45 9.6 9.95 9.7 Q9.25 10.05 9.25 11.25 L9.2 11.25 9.2 11.5 10.4 24.3 9.7 25.5 9.65 26.1 7.35 26.2 5.45 26.15 4.65 26.1 4.5 25.5 3.55 24.55 4.0 23.1 Q3.0 20.55 2.0 16.85 0.1 9.55 -0.05 1.95 L0.2 -0.1" fill="#333333" fill-rule="evenodd" stroke="none"/>
    </g>
    <g id="shape2" transform="matrix(1.0, 0.0, 0.0, 1.0, 0.7, 0.0)">
      <path d="M10.65 4.05 L10.7 5.0 Q13.65 4.85 15.5 3.9 13.1 5.9 10.7 6.3 L10.75 7.75 Q11.85 6.85 13.45 6.75 L15.6 6.8 Q13.3 7.55 10.55 9.7 L10.0 9.6 9.95 9.6 9.45 9.7 9.4 9.75 9.4 8.7 Q8.0 7.5 4.4 6.6 7.4 6.3 9.6 7.15 L9.6 6.3 Q7.7 5.95 4.1 3.75 6.75 4.85 9.4 4.55 L9.35 3.3 Q8.9 2.0 7.0 2.0 L-0.4 1.0 -0.4 0.0 20.2 0.0 20.4 1.35 Q18.1 2.4 14.15 2.5 L10.65 2.45 10.65 3.35 12.5 3.5 10.65 4.05 M17.1 5.15 L18.1 5.2 Q17.05 5.95 14.5 5.9 15.2 4.85 17.1 5.15 M13.5 3.6 L13.45 3.65 13.4 3.6 13.5 3.6 M12.45 11.5 Q13.2 11.6 15.3 10.7 L13.4 13.0 Q12.7 13.6 12.05 15.45 11.25 17.75 10.9 20.9 10.95 15.5 11.65 12.1 11.75 11.35 12.45 11.5 M8.5 3.2 L6.5 3.5 4.6 2.9 6.0 2.6 8.5 3.2 M16.3 8.0 L18.65 7.05 Q18.65 7.45 17.85 7.95 L16.3 8.0 M14.2 9.6 Q12.2 11.9 11.35 9.95 L16.15 8.15 14.2 9.6 M4.15 5.15 L5.35 5.55 3.85 5.9 Q2.9 5.55 2.45 4.8 L4.15 5.15 M10.5 22.85 L10.6 21.75 Q10.85 20.4 12.8 18.7 15.45 17.2 16.4 17.75 17.1 19.45 16.55 21.9 16.0 24.35 14.1 24.7 12.35 25.15 10.5 22.85 M3.45 23.15 L2.5 20.0 Q2.5 15.85 6.6 18.6 10.65 21.35 8.15 23.35 5.65 25.3 3.45 23.15 M9.0 9.9 Q8.3 10.15 7.2 9.9 5.95 9.4 4.4 8.0 L7.6 8.6 9.0 9.9 M7.85 10.6 Q8.55 10.45 8.65 11.2 9.35 14.6 9.4 20.0 9.05 16.85 8.25 14.55 7.6 12.7 6.9 12.1 L5.0 9.8 Q7.1 10.7 7.85 10.6 M10.85 25.9 L10.35 24.75 10.45 23.8 Q11.25 25.3 13.7 25.0 12.6 26.05 10.85 25.9 M8.65 26.15 L6.1 25.6 Q8.0 24.0 9.9 24.35 L9.2 25.5 9.15 26.1 8.65 26.15" fill="#000000" fill-rule="evenodd" stroke="none"/>
      <path d="M20.5 9.0 L11.9 7.35 10.8 7.1 10.05 7.3 -0.4 9.5 -0.5 8.45 8.9 6.4 4.7 4.95 3.25 4.45 -0.7 4.45 -0.7 2.25 20.7 2.25 20.7 4.45 18.35 4.45 16.95 4.95 13.35 6.2 12.7 6.4 13.8 6.6 20.6 7.95 20.5 9.0 M14.3 4.95 L15.9 4.45 5.85 4.45 7.4 4.95 10.8 6.05 14.3 4.95" fill="#000000" fill-opacity="0.29803923" fill-rule="evenodd" stroke="none"/>
      <path d="M13.8 6.4 L20.6 7.75 20.5 8.8 11.9 7.15 13.8 6.4 M10.05 7.1 L-0.4 9.3 -0.5 8.25 8.9 6.2 4.7 4.75 7.4 4.75 10.8 5.85 14.3 4.75 16.95 4.75 13.35 6.0 12.7 6.2 10.05 7.1 M3.25 4.25 L-0.7 4.25 -0.7 2.05 20.7 2.05 20.7 4.25 18.35 4.25 15.9 4.25 5.85 4.25 3.25 4.25" fill="#663300" fill-rule="evenodd" stroke="none"/>
      <path d="M13.8 6.4 L11.9 7.15 10.8 6.9 10.05 7.1 12.7 6.2 13.8 6.4 M4.7 4.75 L3.25 4.25 5.85 4.25 7.4 4.75 4.7 4.75 M18.35 4.25 L16.95 4.75 14.3 4.75 15.9 4.25 18.35 4.25" fill="#462300" fill-rule="evenodd" stroke="none"/>
      <path d="M5.75 3.1 L6.7 3.1 5.8 4.3 4.2 4.3 4.0 3.9 5.6 3.9 5.75 3.1 M0.9 3.1 L0.95 4.2 1.6 4.2 1.4 4.45 0.6 4.45 0.4 3.1 0.9 3.1" fill="#d2a22a" fill-rule="evenodd" stroke="none"/>
      <path d="M3.65 4.4 L3.25 4.4 3.25 1.9 3.65 1.9 3.65 4.4" fill="#663300" fill-rule="evenodd" stroke="none"/>
      <path d="M3.65 4.4 L3.65 1.9 3.8 1.9 3.8 4.4 3.65 4.4" fill="#330000" fill-rule="evenodd" stroke="none"/>
      <path d="M5.75 3.1 L5.6 2.35 4.1 2.35 4.3 1.95 5.85 1.9 6.65 3.05 6.7 3.1 5.75 3.1 M0.4 3.1 L0.45 3.05 0.55 1.8 1.45 1.85 1.65 2.1 0.95 2.1 0.9 3.1 0.4 3.1" fill="#ffcc00" fill-rule="evenodd" stroke="none"/>
      <path d="M15.85 3.55 L15.55 3.4 15.45 3.15 15.55 2.85 15.85 2.75 16.1 2.85 16.25 3.15 16.1 3.4 15.85 3.55 M12.45 3.15 L12.3 3.4 12.05 3.55 11.75 3.4 11.65 3.15 11.75 2.85 12.05 2.75 12.3 2.85 12.45 3.15 M8.35 2.75 L8.6 2.85 8.75 3.15 8.6 3.4 8.35 3.55 8.05 3.4 7.95 3.15 8.05 2.85 8.35 2.75 M4.6 2.75 L4.85 2.85 5.0 3.15 4.85 3.4 4.6 3.55 4.3 3.4 4.2 3.15 4.3 2.85 4.6 2.75" fill="#271300" fill-rule="evenodd" stroke="none"/>
      <path d="M5.9 2.95 L6.0 3.0 6.0 3.15 6.0 3.3 5.9 3.35 4.6 3.35 4.5 3.3 4.5 3.15 4.5 3.0 4.6 2.95 5.9 2.95" fill="#ffcc00" fill-rule="evenodd" stroke="none"/>
      <path d="M5.25 7.5 L5.4 8.2 5.05 8.3 4.75 7.6 5.25 7.5" fill="#d2a22a" fill-rule="evenodd" stroke="none"/>
      <path d="M4.75 7.6 L4.65 7.0 5.05 6.9 5.25 7.5 4.75 7.6" fill="#ffcc00" fill-rule="evenodd" stroke="none"/>
      <path d="M15.9 7.3 L16.4 7.4 16.1 8.1 15.75 8.0 15.9 7.3" fill="#d2a22a" fill-rule="evenodd" stroke="none"/>
      <path d="M15.9 7.3 L16.1 6.7 16.5 6.8 16.4 7.4 15.9 7.3" fill="#ffcc00" fill-rule="evenodd" stroke="none"/>
    </g>
  </defs>
</svg>
