<?xml version="1.0" encoding="UTF-8" standalone="no"?>
<svg xmlns:ffdec="https://www.free-decompiler.com/flash" xmlns:xlink="http://www.w3.org/1999/xlink" ffdec:objectType="frame" height="39.3px" width="48.0px" xmlns="http://www.w3.org/2000/svg">
  <g transform="matrix(1.0, 0.0, 0.0, 1.0, 19.05, 8.2)">
    <use ffdec:characterId="1" height="21.5" transform="matrix(1.0, 0.0, 0.0, 1.0, -4.25, 3.8)" width="28.1" xlink:href="#shape0"/>
    <clipPath id="clipPath0" transform="matrix(1.0, 0.0, 0.0, 1.0, 0.0, 0.0)">
      <path d="M2.65 11.05 L2.75 11.05 2.55 10.9 2.5 10.75 2.8 10.5 2.65 10.4 Q2.3 10.2 2.3 10.55 2.3 11.05 2.65 11.05 M1.9 10.75 L1.35 9.8 Q0.95 9.45 0.95 10.15 L1.05 10.35 0.7 10.95 Q0.35 11.4 0.35 11.65 L0.45 11.95 Q-0.25 11.95 -0.25 12.25 -0.25 12.5 0.05 12.5 L2.2 12.35 2.45 12.0 2.25 11.4 1.9 10.75 M20.85 10.4 Q21.6 12.7 23.85 14.95 L18.35 15.8 12.95 15.15 11.45 14.65 Q9.75 14.05 8.45 13.3 L6.05 11.35 Q4.1 13.2 1.7 14.25 L1.15 14.45 Q-1.55 15.5 -4.25 15.25 L-1.15 9.8 -0.9 8.95 -1.05 7.8 Q-0.95 6.35 0.05 3.8 5.6 5.4 14.9 5.0 18.4 4.65 19.95 3.8 20.75 5.15 20.85 7.8 L20.6 9.05 20.85 10.4" fill="#d97000" fill-rule="evenodd" stroke="none"/>
    </clipPath>
    <g clip-path="url(#clipPath0)">
      <use ffdec:characterId="3" height="31.45" transform="matrix(1.0, 0.0, 0.0, 1.0, -2.75, -5.8)" width="31.7" xlink:href="#shape2"/>
    </g>
    <clipPath id="clipPath1" transform="matrix(1.0, 0.0, 0.0, 1.0, 0.0, 0.0)">
      <path d="M2.65 11.05 L2.75 11.05 2.55 10.9 2.5 10.75 2.8 10.5 2.65 10.4 Q2.3 10.2 2.3 10.55 2.3 11.05 2.65 11.05 M1.9 10.75 L1.35 9.8 Q0.95 9.45 0.95 10.15 L1.05 10.35 0.7 10.95 Q0.35 11.4 0.35 11.65 L0.45 11.95 Q-0.25 11.95 -0.25 12.25 -0.25 12.5 0.05 12.5 L2.2 12.35 2.45 12.0 2.25 11.4 1.9 10.75 M20.85 10.4 Q21.6 12.7 23.85 14.95 L18.35 15.8 12.95 15.15 11.45 14.65 Q9.75 14.05 8.45 13.3 L6.05 11.35 Q4.1 13.2 1.7 14.25 L1.15 14.45 Q-1.55 15.5 -4.25 15.25 L-1.15 9.8 -0.9 8.95 -1.05 7.8 Q-0.95 6.35 0.05 3.8 5.6 5.4 14.9 5.0 18.4 4.65 19.95 3.8 20.75 5.15 20.85 7.8 L20.6 9.05 20.85 10.4" fill="#d97000" fill-rule="evenodd" stroke="none"/>
    </clipPath>
    <g clip-path="url(#clipPath1)">
      <use ffdec:characterId="5" height="29.2" transform="matrix(1.0, 0.0, 0.0, 1.0, -1.95, -5.45)" width="29.0" xlink:href="#shape4"/>
    </g>
    <use ffdec:characterId="6" height="14.45" transform="matrix(1.0, 0.0, 0.0, 1.0, -4.9, 3.85)" width="30.1" xlink:href="#shape5"/>
    <clipPath id="clipPath2" transform="matrix(1.0, 0.0, 0.0, 1.0, 0.0, 0.0)">
      <path d="M3.75 9.55 L5.55 11.75 Q3.5 13.55 1.65 14.3 L1.1 14.5 Q-1.6 15.55 -4.3 15.3 L-1.2 9.85 -0.95 9.0 -1.1 7.85 -0.55 5.35 0.0 3.9 0.0 3.85 1.15 4.15 Q1.75 6.85 3.75 9.55" fill="#8a4800" fill-rule="evenodd" stroke="none"/>
    </clipPath>
    <g clip-path="url(#clipPath2)">
      <use ffdec:characterId="3" height="31.45" transform="matrix(1.0, 0.0, 0.0, 1.0, -19.05, -0.35)" width="31.7" xlink:href="#shape2"/>
    </g>
    <clipPath id="clipPath3" transform="matrix(1.0, 0.0, 0.0, 1.0, 0.0, 0.0)">
      <path d="M3.75 9.55 L5.55 11.75 Q3.5 13.55 1.65 14.3 L1.1 14.5 Q-1.6 15.55 -4.3 15.3 L-1.2 9.85 -0.95 9.0 -1.1 7.85 -0.55 5.35 0.0 3.9 0.0 3.85 1.15 4.15 Q1.75 6.85 3.75 9.55" fill="#8a4800" fill-rule="evenodd" stroke="none"/>
    </clipPath>
    <g clip-path="url(#clipPath3)">
      <use ffdec:characterId="8" height="31.7" transform="matrix(1.0, 0.0, 0.0, 1.0, -12.55, -8.2)" width="31.45" xlink:href="#shape7"/>
    </g>
    <use ffdec:characterId="9" height="9.0" transform="matrix(1.0, 0.0, 0.0, 1.0, -1.25, 3.85)" width="22.65" xlink:href="#shape8"/>
  </g>
  <defs>
    <g id="shape0" transform="matrix(1.0, 0.0, 0.0, 1.0, 4.25, -3.8)">
      <path d="M6.9 16.85 L8.65 17.1 8.75 19.95 2.75 19.65 2.35 18.5 6.9 16.85" fill="url(#gradient0)" fill-rule="evenodd" stroke="none"/>
      <path d="M8.45 13.3 L8.55 14.4 1.7 14.25 Q4.1 13.2 6.05 11.35 L8.45 13.3" fill="url(#gradient1)" fill-rule="evenodd" stroke="none"/>
      <path d="M3.85 22.9 L3.55 22.05 5.4 21.45 8.75 21.55 8.8 23.5 3.85 22.9" fill="url(#gradient2)" fill-rule="evenodd" stroke="none"/>
      <path d="M8.85 24.25 L8.5 24.45 7.85 24.8 6.15 25.05 5.1 24.95 8.85 23.95 8.85 24.25" fill="url(#gradient3)" fill-rule="evenodd" stroke="none"/>
      <path d="M3.55 22.05 L3.45 21.8 2.75 19.65 8.75 19.95 8.75 20.05 8.75 20.45 8.75 21.55 5.4 21.45 3.55 22.05 M8.55 14.4 L8.65 17.1 6.9 16.85 2.35 18.5 1.65 16.1 1.15 14.45 1.7 14.25 8.55 14.4" fill="#cccccc" fill-rule="evenodd" stroke="none"/>
      <path d="M18.15 16.3 L18.2 16.35 17.55 18.55 Q14.35 19.2 11.2 18.55 L11.3 16.3 18.15 16.3 M16.8 20.8 L16.45 21.8 16.1 22.85 Q13.4 23.4 11.1 22.8 L11.15 20.7 Q14.05 21.1 16.8 20.8 M15.45 24.7 L15.4 24.8 15.25 24.9 Q14.55 25.3 13.65 25.3 L11.95 24.8 15.45 24.7" fill="#000000" fill-rule="evenodd" stroke="none"/>
      <path d="M11.3 16.3 L11.45 14.65 12.95 15.15 18.35 15.8 18.15 16.3 11.3 16.3" fill="#4b216d" fill-rule="evenodd" stroke="none"/>
      <path d="M8.8 23.5 L8.85 23.95 5.1 24.95 4.85 24.9 4.5 24.8 3.85 22.9 8.8 23.5" fill="#d7d7d7" fill-rule="evenodd" stroke="none"/>
      <path d="M17.55 18.55 L16.8 20.8 Q14.05 21.1 11.15 20.7 L11.15 20.05 11.2 18.55 Q14.35 19.2 17.55 18.55 M16.1 22.85 L15.45 24.7 11.95 24.8 11.6 24.65 11.1 24.45 11.1 22.8 Q13.4 23.4 16.1 22.85" fill="#960e0e" fill-rule="evenodd" stroke="none"/>
      <path d="M3.6 22.05 L3.3 21.4 8.65 19.95 8.8 20.2 8.75 20.45 3.6 22.05 M8.65 16.45 L8.6 17.1 1.65 16.3 1.6 16.05 1.7 15.8 2.1 15.65 8.65 16.45" fill="#666666" fill-opacity="0.29803923" fill-rule="evenodd" stroke="none"/>
      <path d="M6.95 13.5 L8.65 15.4 8.75 20.75 8.85 24.25 8.5 24.45 7.85 24.8 7.25 25.0 7.25 20.4 6.85 15.4 Q6.7 13.15 6.95 13.5 M11.1 24.45 L11.2 20.9 11.4 16.6 13.05 17.15 13.8 17.45 13.2 20.3 Q12.6 23.3 12.65 24.75 L12.7 25.1 11.6 24.65 11.1 24.45" fill="#000000" fill-opacity="0.29803923" fill-rule="evenodd" stroke="none"/>
      <path d="M2.8 10.5 L2.65 10.4 Q2.3 10.2 2.3 10.55 2.3 11.05 2.65 11.05 L2.75 11.05 2.55 10.9 2.5 10.75 2.8 10.5 M1.9 10.75 L1.35 9.8 Q0.95 9.45 0.95 10.15 L1.05 10.35 0.7 10.95 Q0.35 11.4 0.35 11.65 L0.45 11.95 Q-0.25 11.95 -0.25 12.25 -0.25 12.5 0.05 12.5 L2.2 12.35 2.45 12.0 2.25 11.4 1.9 10.75 M20.85 10.4 Q21.6 12.7 23.85 14.95 L18.35 15.8 12.95 15.15 11.45 14.65 Q9.75 14.05 8.45 13.3 L6.05 11.35 Q4.1 13.2 1.7 14.25 L1.15 14.45 Q-1.55 15.5 -4.25 15.25 L-1.15 9.8 -0.9 8.95 -1.05 7.8 Q-0.95 6.35 0.05 3.8 5.6 5.4 14.9 5.0 18.4 4.65 19.95 3.8 20.75 5.15 20.85 7.8 L20.6 9.05 20.85 10.4" fill="#b41010" fill-rule="evenodd" stroke="none"/>
    </g>
    <linearGradient gradientTransform="matrix(0.0, 0.0019, -0.0039, 0.0, 5.55, 18.4)" gradientUnits="userSpaceOnUse" id="gradient0" spreadMethod="pad" x1="-819.2" x2="819.2">
      <stop offset="0.20392156862745098" stop-color="#a6a6a6"/>
      <stop offset="0.7019607843137254" stop-color="#cccccc"/>
      <stop offset="1.0" stop-color="#cccccc"/>
    </linearGradient>
    <linearGradient gradientTransform="matrix(0.0, 0.0019, -0.0042, 0.0, 5.15, 12.85)" gradientUnits="userSpaceOnUse" id="gradient1" spreadMethod="pad" x1="-819.2" x2="819.2">
      <stop offset="0.0" stop-color="#a6a6a6"/>
      <stop offset="0.7019607843137254" stop-color="#cccccc"/>
      <stop offset="1.0" stop-color="#cccccc"/>
    </linearGradient>
    <linearGradient gradientTransform="matrix(0.0, 0.0013, -0.0032, 0.0, 6.2, 22.45)" gradientUnits="userSpaceOnUse" id="gradient2" spreadMethod="pad" x1="-819.2" x2="819.2">
      <stop offset="0.20392156862745098" stop-color="#a6a6a6"/>
      <stop offset="0.7019607843137254" stop-color="#cccccc"/>
      <stop offset="1.0" stop-color="#cccccc"/>
    </linearGradient>
    <linearGradient gradientTransform="matrix(0.0, 0.0014, -0.0026, 0.0, 6.75, 25.1)" gradientUnits="userSpaceOnUse" id="gradient3" spreadMethod="pad" x1="-819.2" x2="819.2">
      <stop offset="0.20392156862745098" stop-color="#bebebe"/>
      <stop offset="1.0" stop-color="#a6a6a6"/>
    </linearGradient>
    <g id="shape2" transform="matrix(1.0, 0.0, 0.0, 1.0, 19.05, 0.35)">
      <path d="M11.7 17.8 L-5.5 0.6 -4.55 -0.35 12.65 16.85 11.7 17.8 M9.2 20.4 L-8.0 3.2 -6.15 1.35 11.05 18.55 9.2 20.4 M6.25 23.25 L-10.95 6.05 -10.0 5.1 7.2 22.3 6.25 23.25 M0.65 28.55 L-16.55 11.35 -15.6 10.4 1.6 27.6 0.65 28.55 M3.75 25.85 L-13.45 8.65 -11.6 6.8 5.6 24.0 3.75 25.85 M-19.05 13.95 L-17.2 12.1 -0.05 29.25 -1.9 31.1 -19.05 13.95" fill="#330000" fill-opacity="0.29803923" fill-rule="evenodd" stroke="none"/>
    </g>
    <g id="shape4" transform="matrix(1.0, 0.0, 0.0, 1.0, 1.95, 5.45)">
      <path d="M16.3 -2.0 L1.55 12.75 0.6 11.8 15.35 -2.95 16.3 -2.0 M14.6 -3.6 L-0.1 11.1 -1.95 9.25 12.75 -5.45 14.6 -3.6 M27.05 9.05 L12.35 23.75 11.4 22.8 26.1 8.1 27.05 9.05 M21.6 3.6 L6.9 18.3 5.95 17.35 20.65 2.65 21.6 3.6 M25.35 7.45 L10.65 22.15 8.8 20.3 23.5 5.6 25.35 7.45 M3.35 14.85 L18.05 0.15 19.9 2.0 5.2 16.7 3.35 14.85" fill="#330000" fill-opacity="0.29803923" fill-rule="evenodd" stroke="none"/>
    </g>
    <g id="shape5" transform="matrix(1.0, 0.0, 0.0, 1.0, 4.9, -3.85)">
      <path d="M23.35 15.1 L25.2 17.05 18.15 16.85 Q18.55 18.05 19.25 18.3 10.3 17.45 6.65 13.75 5.7 15.25 3.15 16.45 L4.1 14.6 Q-0.6 17.6 -4.9 17.55 L-3.55 15.3 Q-1.25 15.4 1.15 14.45 L1.7 14.25 4.1 12.85 5.45 11.9 Q2.85 8.8 1.15 4.1 L1.65 4.3 Q2.3 6.85 6.05 11.35 L8.45 13.3 Q9.75 14.05 11.45 14.65 L12.95 15.15 18.35 15.8 23.35 15.1" fill="url(#gradient4)" fill-rule="evenodd" stroke="none"/>
      <path d="M0.0 3.85 L1.15 4.15 Q1.75 6.85 3.75 9.55 L5.55 11.75 Q3.5 13.55 1.65 14.3 L1.1 14.5 Q-1.6 15.55 -4.3 15.3 L-1.2 9.85 -0.95 9.0 -1.1 7.85 -0.55 5.35 0.0 3.9 0.0 3.85" fill="#960e0e" fill-rule="evenodd" stroke="none"/>
    </g>
    <linearGradient gradientTransform="matrix(0.0, 0.0087, -0.0184, 0.0, 10.15, 11.2)" gradientUnits="userSpaceOnUse" id="gradient4" spreadMethod="pad" x1="-819.2" x2="819.2">
      <stop offset="0.6" stop-color="#333333"/>
      <stop offset="1.0" stop-color="#000000"/>
    </linearGradient>
    <g id="shape7" transform="matrix(1.0, 0.0, 0.0, 1.0, 12.55, 8.2)">
      <path d="M11.75 -0.75 L-5.45 16.45 -7.3 14.6 9.9 -2.6 11.75 -0.75 M6.45 -6.35 L-10.7 10.8 -12.55 8.95 4.6 -8.2 6.45 -6.35 M8.15 -4.75 L-9.05 12.45 -10.0 11.5 7.2 -5.7 8.15 -4.75 M-4.7 17.1 L12.5 -0.1 13.45 0.85 -3.75 18.05 -4.7 17.1 M0.0 21.9 L-1.85 20.05 15.35 2.85 17.2 4.7 0.0 21.9 M1.7 23.5 L0.75 22.55 17.95 5.35 18.9 6.3 1.7 23.5" fill="#330000" fill-opacity="0.29803923" fill-rule="evenodd" stroke="none"/>
    </g>
    <g id="shape8" transform="matrix(1.0, 0.0, 0.0, 1.0, 1.25, -3.85)">
      <path d="M1.8 9.7 L2.3 10.75 6.75 8.95 6.3 7.85 9.55 8.7 7.5 11.15 7.05 9.85 2.7 11.65 3.3 12.85 0.1 12.55 1.8 9.7 M4.4 6.1 L4.05 5.25 6.6 5.95 5.0 7.85 4.65 6.85 1.25 8.25 1.7 9.15 -0.75 8.95 0.55 6.7 0.95 7.55 4.4 6.1" fill="#cccccc" fill-rule="evenodd" stroke="none"/>
      <path d="M6.3 7.85 L6.45 7.9 6.35 8.0 6.3 7.85" fill="#bc6d03" fill-rule="evenodd" stroke="none"/>
      <path d="M5.0 7.85 L4.65 6.85 1.25 8.25 1.7 9.15 -0.75 8.95 Q1.2 8.75 1.1 8.5 L0.85 7.85 3.1 7.05 Q4.65 6.3 4.75 6.4 L5.25 7.15 6.45 6.15 5.0 7.85 M2.45 12.2 L2.1 11.25 7.35 9.2 7.75 10.3 9.5 8.7 9.55 8.7 7.5 11.15 7.05 9.85 2.7 11.65 3.3 12.85 0.1 12.55 0.15 12.5 2.45 12.2" fill="#999999" fill-rule="evenodd" stroke="none"/>
      <path d="M6.35 5.85 L5.3 6.15 Q5.1 6.35 5.3 6.65 L5.4 6.85 5.3 6.75 4.65 5.65 6.35 5.85 M0.9 8.55 L0.75 8.35 0.4 8.05 -0.5 8.7 0.35 7.2 0.85 8.4 0.9 8.55 M1.6 10.45 L2.25 12.05 2.3 12.25 2.1 12.0 Q2.0 11.5 1.65 11.6 1.25 11.7 0.55 12.2 L0.55 12.25 0.5 12.15 1.65 10.3 1.6 10.45 M9.05 8.75 L9.0 8.75 7.9 9.15 Q7.55 9.25 7.85 9.7 L7.9 10.0 7.8 9.85 Q6.95 8.4 7.05 8.25 L6.95 8.2 9.0 8.65 9.05 8.75" fill="#ffffff" fill-rule="evenodd" stroke="none"/>
      <path d="M16.2 8.65 L16.25 8.4 Q17.8 8.6 19.4 8.4 L20.95 7.95 21.4 9.0 Q21.5 9.65 21.1 10.5 L15.85 10.85 16.2 8.65 M8.55 9.85 Q1.95 9.15 -1.15 6.35 L-1.15 5.35 Q-0.95 4.45 -0.45 3.85 1.5 5.35 3.75 6.15 L8.8 7.55 8.85 7.55 8.55 9.85" fill="#000000" fill-rule="evenodd" stroke="none"/>
      <path d="M10.2 10.2 L8.5 10.0 8.55 9.85 8.85 7.55 8.9 7.35 10.55 7.6 11.75 7.75 12.25 7.8 11.85 10.45 11.35 10.4 10.2 10.2" fill="#333333" fill-rule="evenodd" stroke="none"/>
      <path d="M16.2 8.65 L15.85 10.85 15.8 11.0 Q15.65 12.1 14.55 11.95 L11.15 11.5 Q10.0 11.35 10.2 10.2 L11.35 10.4 11.85 10.6 14.1 10.95 Q14.8 11.05 14.85 10.4 L14.9 10.15 13.35 9.8 13.5 8.95 15.05 9.2 15.1 8.8 Q15.2 8.1 14.5 8.0 L12.25 7.65 11.75 7.75 10.55 7.6 Q10.7 6.55 11.8 6.7 L15.2 7.15 Q16.3 7.3 16.2 8.45 L16.2 8.65" fill="#e4e4e4" fill-rule="evenodd" stroke="none"/>
      <path d="M10.9 10.35 L8.75 9.85 Q8.6 9.85 8.6 9.5 8.6 9.05 8.8 9.25 L11.2 9.5 11.35 8.1 Q11.4 7.75 11.8 7.85 12.2 7.95 12.1 8.0 12.1 10.1 11.8 10.35 L11.45 10.35 10.9 10.35" fill="#1f1f1f" fill-rule="evenodd" stroke="none"/>
      <path d="M11.45 10.35 L13.25 10.8 Q14.55 10.9 14.85 10.25 L13.4 9.85 13.4 9.5 Q13.4 9.3 13.7 9.4 L15.05 9.7 15.1 8.9 15.0 8.5 Q14.85 8.35 14.85 8.05 L15.2 8.15 15.5 8.35 15.35 10.3 Q15.1 11.45 14.25 11.4 L13.75 11.35 10.95 10.85 Q10.7 10.45 10.9 10.35 L11.45 10.35" fill="#9d9d9d" fill-rule="evenodd" stroke="none"/>
      <path d="M20.65 9.4 L20.5 9.65 20.25 9.8 19.95 9.65 19.85 9.4 19.95 9.1 20.25 9.0 20.5 9.1 20.65 9.4 M17.45 9.4 L17.6 9.7 17.45 9.95 17.2 10.1 16.9 9.95 16.8 9.7 16.9 9.4 17.2 9.3 17.45 9.4 M0.25 5.8 L0.55 5.7 0.8 5.8 0.95 6.1 0.8 6.35 0.55 6.5 0.25 6.35 0.15 6.1 0.25 5.8 M3.0 7.4 L3.1 7.1 3.4 7.0 3.65 7.1 3.8 7.4 3.65 7.65 3.4 7.8 3.1 7.65 3.0 7.4 M6.65 7.9 L6.9 8.0 7.05 8.3 6.9 8.55 6.65 8.7 6.35 8.55 6.25 8.3 6.35 8.0 6.65 7.9" fill="#fdd806" fill-rule="evenodd" stroke="none"/>
      <path d="M20.65 9.4 L20.5 9.1 20.25 9.0 19.95 9.1 19.85 9.4 19.95 9.65 20.25 9.8 20.5 9.65 20.65 9.4 M20.3 10.15 L19.85 9.95 19.65 9.5 19.85 9.05 20.3 8.85 20.75 9.05 20.95 9.5 20.75 9.95 Q20.55 10.15 20.3 10.15 M17.45 9.4 L17.2 9.3 16.9 9.4 16.8 9.7 16.9 9.95 17.2 10.1 17.45 9.95 17.6 9.7 17.45 9.4 M16.85 9.35 L17.3 9.15 17.75 9.35 17.95 9.8 17.75 10.25 17.3 10.45 16.85 10.25 16.65 9.8 16.85 9.35 M0.25 5.8 L0.15 6.1 0.25 6.35 0.55 6.5 0.8 6.35 0.95 6.1 0.8 5.8 0.55 5.7 0.25 5.8 M1.05 5.75 L1.25 6.2 1.05 6.65 0.6 6.85 0.15 6.65 -0.05 6.2 0.15 5.75 0.6 5.55 1.05 5.75 M4.1 7.55 L3.9 8.0 3.45 8.2 Q3.2 8.2 3.0 8.0 L2.8 7.55 3.0 7.1 Q3.2 6.9 3.45 6.9 L3.9 7.1 4.1 7.55 M3.0 7.4 L3.1 7.65 3.4 7.8 3.65 7.65 3.8 7.4 3.65 7.1 3.4 7.0 3.1 7.1 3.0 7.4 M6.25 7.95 Q6.45 7.75 6.7 7.75 L7.15 7.95 7.35 8.4 7.15 8.85 6.7 9.05 Q6.45 9.05 6.25 8.85 L6.05 8.4 6.25 7.95 M6.65 7.9 L6.35 8.0 6.25 8.3 6.35 8.55 6.65 8.7 6.9 8.55 7.05 8.3 6.9 8.0 6.65 7.9" fill="#fea834" fill-rule="evenodd" stroke="none"/>
    </g>
  </defs>
</svg>
