<?xml version="1.0" encoding="UTF-8" standalone="no"?>
<svg xmlns:ffdec="https://www.free-decompiler.com/flash" xmlns:xlink="http://www.w3.org/1999/xlink" ffdec:objectType="frame" height="25.15px" width="54.1px" xmlns="http://www.w3.org/2000/svg">
  <g transform="matrix(1.0, 0.0, 0.0, 1.0, 17.1, 1.15)">
    <use ffdec:characterId="1" height="25.15" transform="matrix(1.0, 0.0, 0.0, 1.0, -17.1, -1.15)" width="54.1" xlink:href="#shape0"/>
  </g>
  <defs>
    <g id="shape0" transform="matrix(1.0, 0.0, 0.0, 1.0, 17.1, 1.15)">
      <path d="M13.6 12.9 L16.9 12.55 19.7 12.55 21.0 12.4 27.3 11.75 28.9 11.75 30.75 13.7 Q31.75 14.6 32.75 16.0 L32.65 16.25 32.7 16.3 34.05 18.1 34.15 18.25 34.1 18.25 Q33.05 18.35 32.45 19.0 L32.4 19.0 31.8 19.3 31.35 19.6 29.15 19.9 Q28.65 20.05 28.5 20.4 L28.2 18.4 26.85 18.0 28.15 20.35 28.5 20.8 29.15 20.75 30.3 20.5 Q29.45 21.15 27.35 21.45 L24.3 21.55 24.0 21.45 Q23.0 20.6 21.9 21.1 L21.85 21.2 21.95 17.65 21.95 17.0 22.05 17.35 Q22.55 19.0 23.45 20.5 L23.45 19.6 Q23.3 17.55 22.6 15.75 L21.85 15.3 21.75 13.7 21.7 13.3 20.2 13.75 21.1 17.9 20.0 17.15 19.95 18.65 Q20.1 20.45 20.6 22.15 L20.2 22.15 Q19.75 22.2 19.15 22.95 L18.2 23.4 Q17.2 24.0 15.6 24.0 L14.1 23.75 15.25 23.1 15.35 23.0 15.3 22.4 15.55 20.95 15.65 17.8 15.55 16.6 16.3 18.95 18.0 22.35 18.05 18.7 17.3 14.9 15.45 13.35 15.35 13.5 15.4 15.75 14.45 12.95 13.6 12.9 M32.2 12.5 L32.65 12.9 34.15 14.3 35.8 16.15 Q37.15 17.7 36.95 18.1 L35.4 19.35 33.95 20.1 33.2 20.2 32.95 19.95 33.0 19.85 33.65 19.65 33.7 19.6 33.75 19.6 34.3 18.9 34.75 18.05 34.3 16.15 Q33.5 14.1 32.2 12.5 M24.45 15.15 L23.0 13.9 Q22.7 15.6 23.55 17.45 24.6 19.65 26.6 20.85 L26.05 18.15 24.35 14.35 24.45 15.15 M19.6 23.6 L19.75 23.45 19.8 23.45 Q20.2 23.45 20.6 22.9 L20.9 22.2 21.1 21.55 21.4 19.55 21.65 21.35 21.75 21.75 21.8 21.8 21.85 21.9 Q22.65 22.55 23.95 22.75 L23.5 23.3 Q22.7 23.8 21.0 23.8 L20.9 23.8 19.6 23.6 M-9.0 11.4 L-7.4 11.4 -1.1 12.05 0.2 12.2 3.0 12.2 6.3 12.55 5.45 12.6 Q4.8 14.0 4.5 15.4 L4.55 13.15 4.45 13.0 2.6 14.55 Q2.05 16.45 1.85 18.35 1.65 20.15 1.9 22.0 L3.6 18.6 4.35 16.25 4.25 17.45 4.35 20.6 Q4.4 21.4 4.6 22.05 4.45 22.3 4.55 22.65 L4.65 22.75 5.8 23.4 4.3 23.65 Q2.7 23.65 1.7 23.05 L0.75 22.6 Q0.15 21.85 -0.3 21.8 L-0.7 21.8 Q-0.2 20.1 -0.05 18.3 L-0.1 16.8 -1.2 17.55 -0.3 13.4 -1.8 12.95 -1.85 13.35 -1.95 14.95 -2.7 15.4 Q-3.4 17.2 -3.55 19.25 L-3.55 20.15 Q-2.65 18.65 -2.15 17.0 L-2.05 16.65 -2.05 17.3 -1.95 20.85 -2.0 20.75 Q-3.1 20.25 -4.1 21.1 L-4.4 21.2 -7.45 21.1 Q-9.55 20.8 -10.4 20.15 L-9.25 20.4 -8.6 20.45 -8.25 20.0 -6.95 17.65 -8.3 18.05 -8.6 20.05 -9.25 19.55 -11.45 19.25 -11.9 18.95 -12.5 18.65 -12.55 18.65 Q-13.15 18.0 -14.2 17.9 L-14.25 17.9 -14.15 17.75 -12.8 15.95 -12.75 15.9 -12.85 15.65 -10.85 13.35 -9.0 11.4 M7.15 12.65 L10.35 12.95 10.4 12.95 10.85 12.95 11.85 12.7 Q12.45 12.7 12.75 13.0 L12.95 13.35 13.0 14.2 13.0 14.25 13.15 14.95 Q13.5 16.9 14.2 18.9 L15.15 22.2 14.85 22.15 14.25 22.3 13.65 22.45 13.45 22.6 13.1 22.8 12.15 23.2 11.85 23.1 11.8 23.05 11.6 22.85 11.45 22.7 Q10.85 22.2 10.05 22.15 L9.7 18.4 9.6 14.45 8.85 14.5 8.95 14.4 Q8.55 14.1 7.6 14.65 L7.65 15.45 Q8.55 19.0 9.85 22.45 L9.85 22.9 9.9 22.95 10.9 23.4 10.05 23.4 Q8.2 23.3 7.45 22.75 L7.1 22.45 6.55 22.05 6.5 22.1 Q5.75 21.55 4.75 21.85 L5.7 18.55 6.75 14.6 7.15 12.65 M0.3 23.25 L-1.0 23.45 -1.1 23.45 Q-2.8 23.45 -3.6 22.95 L-4.05 22.4 Q-2.75 22.2 -1.95 21.55 L-1.9 21.45 -1.85 21.4 -1.75 21.0 -1.5 19.2 -1.2 21.2 -1.0 21.85 -0.7 22.55 Q-0.3 23.1 0.1 23.1 L0.15 23.1 0.3 23.25 M-13.05 19.6 L-13.3 19.85 -14.05 19.75 -15.5 19.0 -17.05 17.75 Q-17.25 17.35 -15.9 15.8 L-14.25 13.95 -12.75 12.55 -12.3 12.15 Q-13.6 13.75 -14.4 15.8 L-14.85 17.7 -14.4 18.55 -13.85 19.25 -13.8 19.25 -13.75 19.3 -13.1 19.5 -13.05 19.6 M12.7 22.7 L12.7 22.65 12.35 22.9 12.7 22.7 M-4.45 14.0 L-6.15 17.8 -6.7 20.5 Q-4.7 19.3 -3.65 17.1 -2.8 15.25 -3.1 13.55 -4.0 14.05 -4.55 14.8 L-4.45 14.0" fill="#ffffff" fill-rule="evenodd" stroke="none"/>
      <path d="M13.6 12.9 L14.45 12.95 15.4 15.75 15.35 13.5 15.45 13.35 17.3 14.9 18.05 18.7 18.0 22.35 16.3 18.95 15.55 16.6 15.65 17.8 15.55 20.95 15.3 22.4 15.35 23.0 15.25 23.1 14.1 23.75 14.0 23.65 Q13.65 23.35 13.45 22.6 L13.65 22.45 14.25 22.3 14.85 22.15 15.15 22.2 14.2 18.9 Q13.5 16.9 13.15 14.95 L13.0 14.25 13.0 14.2 12.95 13.35 12.75 13.0 12.8 13.0 12.95 12.95 13.6 12.9 M19.15 22.95 Q19.75 22.2 20.2 22.15 L20.6 22.15 Q20.1 20.45 19.95 18.65 L20.0 17.15 21.1 17.9 20.2 13.75 21.7 13.3 21.75 13.7 21.85 15.3 22.6 15.75 Q23.3 17.55 23.45 19.6 L23.45 20.5 Q22.55 19.0 22.05 17.35 L21.95 17.0 21.95 17.65 21.85 21.2 21.9 21.1 Q23.0 20.6 24.0 21.45 L23.65 21.4 23.95 22.25 23.95 22.75 Q22.65 22.55 21.85 21.9 L21.8 21.8 21.75 21.75 21.65 21.35 21.4 19.55 21.1 21.55 20.9 22.2 20.6 22.9 Q20.2 23.45 19.8 23.45 L19.75 23.45 19.6 23.6 19.4 23.4 19.4 23.3 19.2 22.9 19.15 22.95 M30.3 20.5 L29.15 20.75 28.5 20.8 28.15 20.35 26.85 18.0 28.2 18.4 28.5 20.4 Q28.65 20.05 29.15 19.9 L31.35 19.6 30.65 20.2 30.3 20.5 M32.45 19.0 Q33.05 18.35 34.1 18.25 L34.15 18.25 34.05 18.1 32.7 16.3 32.65 16.25 32.75 16.0 Q31.75 14.6 30.75 13.7 L28.9 11.75 29.9 11.75 32.2 12.5 Q33.5 14.1 34.3 16.15 L34.75 18.05 34.3 18.9 33.75 19.6 33.7 19.6 33.65 19.65 33.0 19.85 32.95 19.95 32.9 19.95 32.75 19.7 32.55 19.2 32.55 19.15 32.45 19.0 M24.45 15.15 L24.35 14.35 26.05 18.15 26.6 20.85 Q24.6 19.65 23.55 17.45 22.7 15.6 23.0 13.9 L24.45 15.15 M6.3 12.55 L6.95 12.6 7.1 12.65 7.15 12.65 6.75 14.6 5.7 18.55 4.75 21.85 Q5.75 21.55 6.5 22.1 L6.45 22.25 5.9 23.3 5.8 23.4 4.65 22.75 4.55 22.65 Q4.45 22.3 4.6 22.05 4.4 21.4 4.35 20.6 L4.25 17.45 4.35 16.25 3.6 18.6 1.9 22.0 Q1.65 20.15 1.85 18.35 2.05 16.45 2.6 14.55 L4.45 13.0 4.55 13.15 4.5 15.4 Q4.8 14.0 5.45 12.6 L6.3 12.55 M10.9 23.4 L9.9 22.95 9.85 22.9 9.85 22.45 Q8.55 19.0 7.65 15.45 L7.6 14.65 Q8.55 14.1 8.95 14.4 L8.85 14.5 9.6 14.45 9.7 18.4 10.05 22.15 Q10.85 22.2 11.45 22.7 L11.6 22.85 11.8 23.05 11.8 23.1 10.9 23.4 M0.75 22.6 L0.7 22.55 0.5 22.95 0.5 23.05 0.3 23.25 0.15 23.1 0.1 23.1 Q-0.3 23.1 -0.7 22.55 L-1.0 21.85 -1.2 21.2 -1.5 19.2 -1.75 21.0 -1.85 21.4 -1.9 21.45 -1.95 21.55 Q-2.75 22.2 -4.05 22.4 L-4.05 21.9 -3.75 21.05 -4.1 21.1 Q-3.1 20.25 -2.0 20.75 L-1.95 20.85 -2.05 17.3 -2.05 16.65 -2.15 17.0 Q-2.65 18.65 -3.55 20.15 L-3.55 19.25 Q-3.4 17.2 -2.7 15.4 L-1.95 14.95 -1.85 13.35 -1.8 12.95 -0.3 13.4 -1.2 17.55 -0.1 16.8 -0.05 18.3 Q-0.2 20.1 -0.7 21.8 L-0.3 21.8 Q0.15 21.85 0.75 22.6 M-10.4 20.15 L-10.75 19.85 -11.45 19.25 -9.25 19.55 -8.6 20.05 -8.3 18.05 -6.95 17.65 -8.25 20.0 -8.6 20.45 -9.25 20.4 -10.4 20.15 M-12.55 18.65 L-12.65 18.8 -12.65 18.85 -12.85 19.35 -13.0 19.6 -13.05 19.6 -13.1 19.5 -13.75 19.3 -13.8 19.25 -13.85 19.25 -14.4 18.55 -14.85 17.7 -14.4 15.8 Q-13.6 13.75 -12.3 12.15 L-10.0 11.4 -9.0 11.4 -10.85 13.35 -12.85 15.65 -12.75 15.9 -12.8 15.95 -14.15 17.75 -14.25 17.9 -14.2 17.9 Q-13.15 18.0 -12.55 18.65 M-4.45 14.0 L-4.55 14.8 Q-4.0 14.05 -3.1 13.55 -2.8 15.25 -3.65 17.1 -4.7 19.3 -6.7 20.5 L-6.15 17.8 -4.45 14.0" fill="#c1dbe8" fill-rule="evenodd" stroke="none"/>
      <path d="M11.8 23.05 L11.85 23.1 11.9 23.15 11.85 23.1 11.8 23.1 11.8 23.05" fill="#d73333" fill-rule="evenodd" stroke="none"/>
      <path d="M13.4 -1.05 L13.45 0.8 14.2 2.1 16.6 6.45 Q18.35 9.65 18.95 11.5 L19.8 14.25 18.6 14.45 14.85 14.8 9.35 15.15 2.1 14.9 -0.5 14.65 0.4 11.65 Q1.0 9.8 2.75 6.6 4.45 3.35 5.3 2.15 L6.05 0.8 5.95 -0.95 13.4 -1.05 M19.65 -1.1 L19.65 1.55 Q22.55 2.55 26.75 5.4 30.55 7.95 32.45 10.05 31.65 10.75 30.1 11.45 L26.35 12.85 21.85 13.9 20.45 14.15 Q19.8 11.7 19.05 10.0 L16.9 5.65 14.05 0.95 14.0 -1.1 14.35 -1.1 16.4 -1.1 19.65 -1.1 M5.35 -0.95 L5.45 0.9 Q3.8 3.3 2.45 5.8 1.05 8.25 0.3 10.15 L-1.2 14.6 -1.2 14.65 -4.35 14.2 -7.95 13.4 -10.85 12.5 -13.0 11.55 -12.75 11.2 Q-9.3 7.35 -6.25 5.2 -3.25 3.05 -0.95 2.15 L0.4 1.55 0.4 -0.7 5.35 -0.95 M32.95 10.65 L33.15 10.85 35.8 14.0 Q37.0 15.4 36.6 15.3 36.2 15.15 35.45 15.8 L33.0 15.9 32.45 17.15 31.3 17.5 Q30.6 17.5 30.0 17.15 L29.45 18.05 Q28.8 18.75 28.15 18.75 L27.05 18.45 26.7 18.05 Q26.45 19.2 24.75 19.2 L24.0 18.95 23.65 18.65 23.5 18.8 23.45 19.0 Q23.2 19.9 22.1 19.95 21.0 20.05 20.6 19.1 L20.15 19.7 Q19.7 20.25 18.85 20.25 17.95 20.25 17.25 19.4 L16.85 20.05 15.55 20.45 15.2 20.45 Q14.4 20.45 13.85 20.05 L13.6 19.8 13.15 20.4 Q12.5 21.05 11.65 21.05 10.75 21.05 10.35 20.55 L10.05 20.05 9.4 20.7 Q8.7 21.35 8.05 21.35 7.2 21.35 6.65 20.7 L6.35 20.05 Q5.9 20.95 4.8 20.95 3.65 20.95 3.25 20.5 L2.85 19.85 Q2.15 20.7 1.3 20.7 0.4 20.7 -0.05 20.2 L-0.5 19.55 Q-0.9 20.5 -2.0 20.45 -3.05 20.4 -3.3 19.5 L-3.35 19.3 -3.5 19.15 -3.9 19.45 -4.65 19.65 Q-6.35 19.65 -6.6 18.55 L-6.9 18.9 -8.05 19.25 Q-8.7 19.25 -9.35 18.55 L-9.9 17.65 -11.15 17.95 -12.3 17.65 Q-12.7 17.3 -12.9 16.4 L-15.35 16.3 Q-16.05 15.65 -16.05 15.05 L-13.5 12.1 -12.1 12.7 -10.2 13.35 -7.1 14.3 -3.05 15.05 4.85 15.7 11.8 15.75 14.65 15.55 16.4 15.35 21.45 14.8 26.2 13.7 29.55 12.55 31.7 11.55 32.95 10.65 M29.6 14.6 L29.6 14.45 28.65 14.65 28.8 14.9 29.6 14.6 M28.1 14.85 Q27.45 14.85 27.2 15.1 L27.45 15.25 Q28.15 15.25 28.25 14.85 L28.1 14.85 M30.3 14.35 L31.25 14.15 30.15 14.2 30.3 14.35 M25.95 15.45 Q26.4 15.45 26.65 15.15 L26.65 15.05 26.45 15.05 25.75 15.15 25.7 15.25 25.95 15.45 M25.4 18.05 L25.55 18.25 25.9 18.25 26.3 17.9 Q26.3 17.7 25.95 17.7 25.55 17.7 25.4 18.05 M27.0 17.25 L26.95 17.35 27.25 17.7 27.65 17.9 27.8 17.8 27.55 17.4 27.0 17.25 M29.9 16.15 L30.2 16.55 30.6 16.75 30.75 16.65 Q30.85 16.35 30.5 16.2 L29.95 16.05 29.9 16.15 M28.0 16.55 L27.95 16.75 28.0 17.15 28.1 17.3 28.3 16.7 28.1 16.3 28.0 16.55 M28.95 17.75 L29.35 17.45 Q29.35 17.25 29.0 17.25 28.6 17.25 28.45 17.6 L28.6 17.75 28.95 17.75 M25.0 15.25 Q24.2 15.25 24.1 15.55 L24.25 15.7 25.05 15.6 25.15 15.4 25.0 15.25 M22.6 15.8 L22.9 15.95 23.65 15.85 23.7 15.6 23.45 15.6 22.7 15.7 22.6 15.8 M22.1 15.85 L21.55 15.9 Q21.15 15.95 21.1 16.05 L21.35 16.2 22.05 16.1 22.1 15.85 M20.45 16.0 L19.55 16.05 19.4 16.15 19.4 16.35 19.75 16.35 20.5 16.3 20.55 16.05 20.45 16.0 M20.8 18.4 L21.1 18.75 21.5 18.95 21.65 18.85 21.4 18.45 20.85 18.3 20.8 18.4 M21.8 17.8 L21.85 18.25 22.0 18.35 22.2 17.75 22.0 17.35 21.85 17.6 21.8 17.8 M24.9 17.0 L24.85 17.25 24.9 17.65 25.05 17.75 25.25 17.15 Q25.25 16.75 25.05 16.75 L24.9 17.0 M22.9 18.3 L22.35 18.65 22.5 18.8 22.85 18.8 23.25 18.5 Q23.25 18.3 22.9 18.3 M23.85 17.8 L24.15 18.2 24.55 18.4 24.7 18.3 Q24.8 17.95 24.45 17.85 L23.9 17.7 23.85 17.8 M33.85 13.0 L33.05 13.35 33.25 13.55 Q33.85 13.55 34.0 13.0 L33.85 13.0 M34.1 14.75 L34.25 14.85 34.45 14.25 Q34.45 13.85 34.25 13.85 L34.1 14.1 34.05 14.3 34.1 14.75 M33.05 14.9 L33.35 15.25 33.75 15.5 33.9 15.4 Q34.0 15.05 33.65 14.95 L33.1 14.8 33.05 14.9 M34.6 15.15 L34.75 15.3 35.1 15.3 35.5 15.0 Q35.5 14.8 35.15 14.8 34.75 14.8 34.6 15.15 M31.75 14.0 L32.75 13.75 32.75 13.6 Q31.95 13.6 31.7 13.9 L31.75 14.0 M30.95 15.4 L30.9 15.6 30.95 16.0 31.1 16.1 31.3 15.55 31.1 15.1 30.95 15.4 M32.0 16.05 Q31.6 16.05 31.45 16.45 L31.6 16.6 31.95 16.6 32.35 16.3 32.0 16.05 M7.6 20.25 L7.75 20.1 7.2 19.7 Q6.85 19.7 6.85 19.9 L7.25 20.25 7.6 20.25 M8.3 19.25 L8.25 19.0 8.1 18.75 Q7.9 18.75 7.9 19.2 L8.1 19.75 8.25 19.65 8.3 19.25 M9.3 19.8 L9.25 19.7 8.7 19.85 Q8.35 19.95 8.45 20.3 L8.6 20.4 9.0 20.2 9.3 19.8 M0.45 19.65 L0.8 19.65 0.95 19.5 Q0.8 19.15 0.4 19.15 0.05 19.15 0.05 19.35 L0.45 19.65 M1.65 19.7 L1.8 19.8 2.15 19.6 2.45 19.25 2.4 19.15 1.9 19.3 Q1.55 19.4 1.65 19.7 M4.9 19.9 L5.05 20.05 5.45 19.8 5.75 19.45 5.7 19.35 5.15 19.5 Q4.8 19.6 4.9 19.9 M4.55 19.4 L4.7 19.3 4.75 18.85 4.7 18.65 4.55 18.4 Q4.35 18.4 4.35 18.8 L4.55 19.4 M4.05 19.85 L4.2 19.7 Q4.05 19.35 3.65 19.35 3.3 19.35 3.3 19.55 L3.7 19.85 4.05 19.85 M3.55 16.75 L3.55 16.8 3.0 16.8 2.9 16.85 2.95 17.05 3.75 17.05 3.8 16.85 3.55 16.75 M1.45 18.45 L1.3 18.2 1.1 18.6 1.3 19.2 1.45 19.1 1.5 18.65 1.45 18.45 M0.35 16.8 L0.7 16.8 0.7 16.65 0.55 16.55 -0.35 16.5 -0.45 16.55 -0.4 16.75 0.35 16.8 M2.1 16.9 L1.3 16.75 1.2 16.8 1.25 17.0 1.95 17.05 2.1 16.9 M9.7 16.9 L9.55 16.8 8.8 16.8 8.7 16.85 8.75 17.05 9.65 17.05 9.7 16.9 M5.2 17.0 L5.25 16.9 4.35 16.75 4.25 16.8 4.3 17.0 4.95 17.05 5.2 17.0 M7.4 16.85 L7.3 16.9 7.35 17.1 8.05 17.1 8.1 16.95 7.95 16.85 7.4 16.85 M6.8 16.9 L6.55 16.8 6.55 16.85 6.0 16.85 5.9 16.9 5.95 17.1 6.55 17.1 6.8 16.9 M16.55 16.3 L16.3 16.4 16.35 16.6 17.15 16.6 17.2 16.4 17.1 16.35 16.55 16.35 16.55 16.3 M15.7 16.7 L15.75 16.55 15.6 16.45 15.0 16.45 15.05 16.7 15.7 16.7 M15.4 18.2 L15.35 18.4 15.4 18.8 15.55 18.9 15.75 18.35 Q15.75 17.9 15.55 17.9 L15.4 18.2 M18.2 16.6 L18.9 16.55 18.95 16.35 18.85 16.3 18.0 16.45 18.2 16.6 M18.65 18.2 L18.7 18.6 18.85 18.7 19.05 18.1 Q19.05 17.7 18.85 17.7 L18.7 17.95 18.65 18.2 M11.2 20.1 L11.35 19.9 Q11.2 19.55 10.8 19.55 10.5 19.55 10.5 19.75 L10.85 20.1 11.2 20.1 M11.5 19.0 L11.7 19.6 11.85 19.5 11.9 19.1 11.85 18.85 11.7 18.6 11.5 19.0 M12.9 19.65 L12.85 19.55 12.3 19.7 Q11.95 19.8 12.05 20.15 L12.2 20.25 12.6 20.05 12.9 19.65 M14.35 19.15 L14.2 19.35 Q14.2 19.7 15.25 19.7 L15.4 19.6 15.15 19.3 14.35 19.15 M14.5 16.45 L14.25 16.6 13.75 16.6 13.65 16.65 13.7 16.9 13.8 16.9 14.55 16.75 14.65 16.55 14.5 16.45 M10.35 16.75 L10.25 16.8 10.3 17.05 10.4 17.05 11.1 17.0 11.1 16.8 10.95 16.7 10.95 16.75 10.35 16.75 M11.7 16.75 L11.75 17.0 11.85 17.0 12.85 16.9 12.95 16.75 11.8 16.7 11.7 16.75 M19.35 19.2 L19.65 19.2 20.05 18.85 Q20.05 18.65 19.7 18.65 19.35 18.65 19.2 19.0 L19.35 19.2 M18.35 19.35 L18.5 19.25 Q18.6 18.9 18.25 18.8 L17.7 18.65 17.65 18.75 17.95 19.15 18.35 19.35 M16.05 19.4 L16.4 19.4 16.8 19.1 Q16.8 18.85 16.45 18.85 L15.9 19.25 16.05 19.4 M-2.4 19.3 L-2.25 19.15 Q-2.4 18.75 -2.75 18.75 -3.1 18.75 -3.1 18.95 -3.1 19.1 -2.7 19.3 L-2.4 19.3 M-1.0 19.25 L-0.7 18.85 -0.75 18.75 -1.3 18.9 Q-1.65 19.0 -1.55 19.35 L-1.4 19.45 -1.0 19.25 M-5.85 18.2 Q-6.2 18.2 -6.2 18.4 L-5.8 18.7 -5.45 18.7 -5.3 18.55 -5.85 18.2 M-6.8 17.8 L-6.85 17.7 -7.4 17.85 Q-7.75 17.95 -7.65 18.3 L-7.5 18.4 -7.1 18.2 -6.8 17.8 M-5.85 15.9 L-5.6 15.75 -5.65 15.65 -6.35 15.55 -6.55 15.55 -6.55 15.65 -5.85 15.9 M-8.9 17.7 Q-9.25 17.7 -9.25 17.9 L-8.85 18.25 -8.5 18.25 -8.35 18.05 Q-8.5 17.7 -8.9 17.7 M-7.85 17.0 L-8.0 16.75 -8.2 17.15 -8.0 17.75 -7.85 17.65 -7.8 17.25 -7.85 17.0 M-8.7 15.4 Q-8.55 15.4 -8.55 15.1 L-9.5 14.9 -9.5 15.05 -8.7 15.4 M-8.0 15.3 L-8.15 15.3 Q-8.05 15.75 -7.3 15.75 L-7.05 15.6 Q-7.3 15.3 -8.0 15.3 M-1.9 17.8 Q-2.1 17.8 -2.1 18.25 L-1.9 18.8 -1.75 18.7 -1.7 18.3 -1.75 18.05 -1.9 17.8 M-1.25 16.7 L-1.0 16.55 Q-1.05 16.45 -1.45 16.4 L-2.0 16.35 -1.95 16.6 -1.25 16.7 M-4.95 18.25 L-4.8 18.1 -4.75 17.7 -4.8 17.5 -4.95 17.25 Q-5.15 17.25 -5.15 17.65 L-4.95 18.25 M-3.8 18.2 L-4.35 18.35 Q-4.7 18.45 -4.6 18.75 L-4.45 18.85 -4.05 18.65 -3.75 18.3 -3.8 18.2 M-4.0 16.0 Q-4.1 15.75 -4.9 15.75 L-5.05 15.85 -4.95 16.05 -4.15 16.15 -4.0 16.0 M-3.3 16.05 L-3.55 16.05 -3.5 16.35 -2.75 16.45 -2.45 16.3 -2.55 16.15 -3.3 16.05 M-10.65 17.1 L-10.5 17.25 -10.1 17.0 -9.8 16.65 -9.85 16.55 -10.4 16.7 -10.65 17.1 M-11.85 16.55 Q-12.2 16.55 -12.2 16.75 L-11.8 17.05 -11.45 17.05 -11.3 16.9 Q-11.45 16.55 -11.85 16.55 M-10.85 16.5 L-10.8 16.05 -10.85 15.85 -11.0 15.6 -11.15 16.0 -11.0 16.6 -10.85 16.5 M-15.0 15.8 L-14.65 15.8 -14.5 15.65 Q-14.65 15.25 -15.05 15.25 L-15.4 15.5 -15.0 15.8 M-13.0 15.25 L-13.55 15.45 -13.8 15.85 -13.65 15.95 -13.25 15.75 -12.95 15.4 -13.0 15.25 M-14.0 14.6 L-14.15 14.3 Q-14.35 14.3 -14.35 14.75 L-14.15 15.3 -14.0 15.2 -13.95 14.8 -14.0 14.6 M-12.95 13.85 L-13.75 13.45 -13.9 13.45 Q-13.75 14.0 -13.15 14.0 L-12.95 13.85 M-11.1 14.65 L-10.2 14.85 -10.05 14.7 -11.1 14.65 M-12.65 14.05 L-12.65 14.2 -11.6 14.5 -11.55 14.35 Q-11.8 14.05 -12.65 14.05" fill="#9a1313" fill-rule="evenodd" stroke="none"/>
      <path d="M0.35 9.95 L1.35 9.35 Q0.7 10.65 0.4 11.65 L-0.5 14.65 2.1 14.9 4.3 15.05 4.4 15.7 -3.05 15.05 -7.1 14.3 -8.75 13.8 -8.55 13.25 -7.95 13.4 -4.35 14.2 -1.2 14.65 -1.2 14.6 0.3 10.15 0.35 9.95 M15.45 14.75 L18.6 14.45 19.8 14.25 18.95 11.5 18.15 9.5 18.05 9.3 18.0 9.2 18.95 9.75 19.0 9.85 19.05 10.0 Q19.8 11.7 20.45 14.15 L21.85 13.9 26.35 12.85 27.8 12.4 28.2 13.05 26.2 13.7 21.45 14.8 16.4 15.35 15.45 15.45 15.45 14.75 M30.75 11.15 L32.45 10.05 32.75 10.4 32.9 10.55 32.95 10.65 31.7 11.55 31.05 11.9 30.75 11.15 M-11.5 12.95 L-12.1 12.7 -13.5 12.1 -13.0 11.55 -11.35 12.3 -11.5 12.95" fill="#f5c850" fill-rule="evenodd" stroke="none"/>
      <path d="M27.8 12.4 L30.1 11.45 30.75 11.15 31.05 11.9 29.55 12.55 28.2 13.05 27.8 12.4 M-8.75 13.8 L-10.2 13.35 -11.5 12.95 -11.35 12.3 -10.85 12.5 -8.55 13.25 -8.75 13.8" fill="#fff7d4" fill-rule="evenodd" stroke="none"/>
      <path d="M0.35 9.95 L1.0 8.55 2.2 6.2 2.45 5.8 Q3.8 3.3 5.45 0.9 L5.35 -0.95 5.95 -0.95 6.05 0.8 5.3 2.15 3.0 6.1 2.75 6.6 2.05 7.85 1.35 9.35 0.35 9.95 M4.3 15.05 L9.35 15.15 14.85 14.8 15.45 14.75 15.45 15.45 14.65 15.55 11.8 15.75 4.85 15.7 4.4 15.7 4.3 15.05 M18.0 9.2 L16.8 6.8 16.6 6.45 15.75 4.85 14.2 2.1 13.45 0.8 13.4 -1.05 13.4 -1.1 14.0 -1.1 14.05 0.95 16.5 4.95 16.9 5.65 17.75 7.15 18.8 9.45 18.95 9.75 18.0 9.2" fill="#cb7b00" fill-rule="evenodd" stroke="none"/>
    </g>
  </defs>
</svg>
