<?xml version="1.0" encoding="UTF-8" standalone="no"?>
<svg xmlns:ffdec="https://www.free-decompiler.com/flash" xmlns:xlink="http://www.w3.org/1999/xlink" ffdec:objectType="frame" height="24.3px" width="21.7px" xmlns="http://www.w3.org/2000/svg">
  <g transform="matrix(1.0, 0.0, 0.0, 1.0, 0.8, 0.15)">
    <use ffdec:characterId="1" height="24.3" transform="matrix(1.0, 0.0, 0.0, 1.0, -0.8, -0.15)" width="21.7" xlink:href="#shape0"/>
  </g>
  <defs>
    <g id="shape0" transform="matrix(1.0, 0.0, 0.0, 1.0, 0.8, 0.15)">
      <path d="M19.05 -0.15 L20.25 -0.05 20.25 0.05 20.25 0.2 20.35 0.3 20.35 0.6 20.65 2.1 20.9 5.15 Q20.9 7.4 19.05 14.55 L17.75 19.1 Q18.35 19.2 18.35 19.6 L17.5 21.75 17.4 22.65 17.35 22.95 16.25 23.3 14.2 23.65 13.15 23.55 11.7 23.25 10.65 22.75 10.7 22.6 10.6 22.5 10.55 22.3 10.55 22.25 10.6 21.25 10.4 20.1 10.4 19.95 10.3 19.9 10.2 19.45 Q10.1 19.05 10.6 19.0 L11.25 18.9 11.35 18.9 11.4 18.1 11.5 15.15 11.6 13.15 11.55 10.85 Q11.55 10.1 11.15 9.9 L10.55 9.65 10.25 9.65 9.95 9.6 Q9.2 9.6 8.7 11.05 L8.65 11.05 8.5 12.45 8.5 16.4 8.45 18.5 8.45 18.95 8.55 18.95 Q9.65 19.05 9.65 19.45 L9.45 20.15 9.3 22.8 8.25 23.35 Q6.9 24.15 5.85 24.15 L3.65 23.85 2.65 23.35 2.6 22.6 2.0 20.75 1.8 20.4 Q1.8 20.05 2.65 19.75 L1.85 17.3 0.65 13.0 -0.45 8.75 Q-0.8 7.45 -0.8 5.45 L-0.65 3.8 -0.5 2.6 -0.3 1.35 -0.3 1.1 -0.3 1.0 -0.3 -0.1 9.45 -0.1 19.0 -0.1 19.05 -0.15" fill="#415826" fill-rule="evenodd" stroke="none"/>
      <path d="M5.25 14.3 Q6.85 15.15 8.3 16.5 L8.4 18.9 8.5 18.85 9.6 19.25 8.85 19.85 8.4 20.1 8.4 20.2 8.35 20.2 7.05 20.75 7.0 20.8 Q6.15 21.15 5.65 21.45 L5.4 21.45 4.85 21.45 Q4.0 21.4 2.95 20.85 L1.95 20.25 2.3 19.9 2.55 19.95 2.75 19.75 3.45 19.9 Q2.0 16.1 2.0 14.85 L2.25 13.9 Q3.2 13.2 5.25 14.3 M15.9 13.95 Q17.8 13.4 18.25 14.6 L16.6 19.2 17.35 19.15 17.75 19.05 18.25 19.3 18.35 19.5 18.35 19.6 Q18.05 20.1 15.8 20.6 L15.0 20.6 14.6 20.75 14.1 20.55 13.15 20.3 12.65 20.1 11.75 19.8 10.8 19.5 10.25 19.15 10.7 18.95 10.95 18.95 11.4 18.9 11.6 18.7 11.5 18.6 11.5 18.4 11.5 18.1 11.5 18.0 11.4 17.75 11.45 17.6 11.45 17.4 11.5 16.3 11.5 16.25 Q13.25 15.0 14.75 14.4 L15.9 13.95" fill="#000000" fill-opacity="0.29803923" fill-rule="evenodd" stroke="none"/>
      <path d="M20.5 1.55 L20.7 2.55 17.15 2.55 16.15 13.45 16.15 13.5 Q15.3 16.05 14.35 20.5 L13.75 20.55 13.35 20.35 Q14.3 15.85 15.15 13.3 L16.15 2.55 10.45 2.55 10.5 2.8 10.5 9.4 10.5 9.55 10.1 9.6 9.6 9.55 9.5 9.4 9.5 2.9 9.45 2.9 9.45 2.75 9.35 2.45 8.85 2.45 8.7 2.55 3.15 2.55 4.4 13.5 Q5.75 16.4 6.35 21.2 L6.3 21.2 5.35 21.55 Q4.8 16.7 3.45 13.85 L3.4 13.65 2.15 2.55 -0.4 2.55 -0.45 2.55 -0.3 1.6 -0.3 1.55 16.65 1.55 16.8 1.6 16.95 1.55 20.5 1.55" fill="#000000" fill-opacity="0.6" fill-rule="evenodd" stroke="none"/>
      <path d="M10.6 21.25 L10.4 20.1 10.4 19.95 10.3 19.9 10.2 19.45 10.2 19.25 10.45 19.4 11.6 19.8 12.8 20.3 Q13.9 20.7 14.75 20.7 16.1 20.7 18.15 19.75 L18.35 19.7 17.5 21.75 17.4 22.65 17.35 22.95 16.25 23.3 14.2 23.65 13.15 23.55 11.7 23.25 10.65 22.75 10.7 22.6 10.6 22.5 10.55 22.3 10.55 22.25 10.6 21.25 M1.8 20.4 L1.85 20.3 2.65 20.85 Q3.95 21.5 5.55 21.5 6.1 21.5 8.15 20.35 L9.65 19.4 9.65 19.45 9.45 20.15 9.3 22.8 8.25 23.35 Q6.9 24.15 5.85 24.15 L3.65 23.85 2.65 23.35 2.6 22.6 2.0 20.75 1.8 20.4" fill="#ffffff" fill-opacity="0.29803923" fill-rule="evenodd" stroke="none"/>
      <path d="M19.65 2.3 L18.0 3.95 15.3 4.1 13.6 4.35 14.6 3.35 15.9 2.75 Q17.1 1.6 17.45 1.8 L18.45 2.25 19.25 1.9 Q19.65 1.9 19.65 2.3 M16.4 4.65 L16.7 4.65 15.9 4.75 15.6 4.75 16.4 4.65 M14.15 3.05 L13.15 3.25 Q11.5 4.0 8.85 3.9 7.2 3.5 4.25 2.3 4.25 1.8 4.65 1.95 L5.95 2.2 6.1 2.05 6.65 1.9 10.2 2.55 14.0 3.0 14.15 3.05 M10.55 5.85 L11.9 5.75 12.75 6.1 12.95 6.25 12.7 6.65 11.2 7.15 10.15 7.25 10.05 7.25 10.15 7.0 10.1 6.8 8.0 6.3 7.75 6.2 Q8.3 5.85 9.9 5.8 L10.2 5.85 10.35 5.75 10.55 5.85 M0.9 2.3 Q0.9 1.8 1.65 1.8 L5.7 3.85 Q3.65 4.8 1.75 3.05 1.25 2.6 0.95 2.45 L0.9 2.3 M13.05 4.15 L13.0 4.3 12.2 4.65 10.35 5.35 9.35 5.5 Q8.05 5.5 6.6 4.9 L5.9 4.6 6.0 4.55 5.2 4.55 4.55 4.55 6.35 4.4 6.2 4.5 10.85 4.45 13.05 4.15 M3.3 20.75 L5.65 21.25 Q5.7 21.25 7.9 20.2 L8.5 19.75 Q9.05 19.3 9.2 19.4 9.25 19.1 9.45 19.1 L9.65 19.25 9.7 19.35 9.7 19.45 9.45 19.8 9.45 19.9 Q9.1 20.8 9.05 21.4 L9.0 21.75 8.95 22.4 8.75 22.8 8.25 23.1 6.85 23.55 Q6.25 23.55 6.05 22.8 L5.95 22.05 6.05 21.9 5.8 21.9 3.4 21.45 Q2.1 21.0 1.8 20.45 L1.8 20.2 2.0 20.15 3.3 20.75 M14.05 20.45 L16.75 19.95 18.15 19.35 Q18.4 19.35 18.45 19.55 18.45 19.9 17.05 20.5 15.55 21.1 14.45 21.1 L14.2 21.1 14.35 21.3 14.4 22.15 Q14.35 22.95 13.75 23.05 L12.8 23.0 11.35 22.65 10.95 22.1 10.95 22.0 11.05 21.15 10.75 20.2 10.65 20.0 10.6 19.95 10.2 19.45 10.2 19.35 Q10.2 19.05 10.45 19.15 L10.9 19.3 12.4 19.9 Q13.55 20.45 14.05 20.45" fill="#000000" fill-opacity="0.29803923" fill-rule="evenodd" stroke="none"/>
    </g>
  </defs>
</svg>
