<?xml version="1.0" encoding="UTF-8" standalone="no"?>
<svg xmlns:ffdec="https://www.free-decompiler.com/flash" xmlns:xlink="http://www.w3.org/1999/xlink" ffdec:objectType="frame" height="23.6px" width="68.2px" xmlns="http://www.w3.org/2000/svg">
  <g transform="matrix(1.0, 0.0, 0.0, 1.0, 22.2, -0.1)">
    <use ffdec:characterId="1" height="23.6" transform="matrix(1.0, 0.0, 0.0, 1.0, -22.2, 0.1)" width="68.2" xlink:href="#shape0"/>
  </g>
  <defs>
    <g id="shape0" transform="matrix(1.0, 0.0, 0.0, 1.0, 22.2, -0.1)">
      <path d="M6.55 9.1 L6.45 8.65 Q5.4 10.55 4.2 11.3 3.1 12.0 1.9 11.7 1.8 18.65 -1.5 19.3 L-4.15 19.1 Q-4.5 18.65 -4.1 17.8 -3.5 16.65 -4.5 16.1 L-6.75 16.15 Q-10.45 19.4 -13.1 20.0 -17.0 20.9 -20.65 18.1 -19.3 17.9 -17.65 17.15 -14.95 16.0 -13.45 14.1 L-13.3 13.85 -12.85 13.15 -13.1 13.15 -14.0 13.15 -14.05 13.15 -16.1 13.2 -16.45 13.2 -16.85 13.2 -17.95 13.05 -19.15 12.25 -19.6 11.5 -19.7 11.35 -19.95 10.65 -20.05 10.15 -20.05 10.1 -20.0 8.5 -19.95 7.7 -20.0 7.4 -20.2 5.9 -20.35 5.0 -20.4 4.85 -20.7 3.45 -20.9 2.8 -19.2 5.2 Q-18.1 6.5 -15.9 6.95 -13.9 7.35 -11.85 7.0 -9.3 6.55 -7.3 4.65 -5.4 2.85 -1.5 2.4 L-1.0 2.4 -1.0 2.35 -0.65 2.4 -0.65 2.3 -0.2 0.8 0.2 0.85 2.95 1.75 8.65 2.0 12.3 1.7 17.4 1.0 19.55 0.55 20.05 1.35 20.25 1.25 20.05 1.4 20.1 1.5 20.4 1.45 21.3 1.65 Q23.7 2.05 25.35 3.25 L26.5 4.1 Q27.65 4.9 28.2 4.9 L29.15 4.8 Q29.5 4.7 30.6 3.6 31.75 2.6 34.35 1.85 L38.1 1.3 42.7 0.7 Q42.3 2.2 40.3 2.75 L39.9 3.85 Q39.4 4.7 38.75 4.6 37.7 4.45 37.5 5.4 37.3 6.35 36.1 8.6 34.9 10.8 32.8 11.95 30.65 13.1 29.15 12.25 27.6 11.35 26.25 9.1 L28.5 13.9 Q29.0 14.9 30.15 15.6 31.25 16.3 32.6 16.5 36.0 17.0 39.5 15.55 38.35 17.95 36.55 19.3 34.25 21.0 30.95 20.95 25.0 20.85 22.85 19.3 20.65 17.75 19.05 15.75 17.4 13.75 16.65 11.6 15.05 11.05 13.6 9.8 L12.9 9.1 12.85 9.0 11.5 7.15 9.55 3.9 Q9.55 4.35 9.9 5.1 9.9 5.45 8.95 5.85 7.85 6.25 7.7 6.6 L8.0 6.95 8.2 7.55 Q8.2 8.2 7.4 8.25 6.65 8.3 6.55 9.1 M19.8 1.85 L19.8 1.7 19.5 1.7 19.45 1.75 19.8 1.85 M19.8 1.6 L19.8 1.55 19.75 1.6 19.8 1.6 M12.15 3.3 L12.65 3.25 12.3 3.5 Q11.7 4.0 11.7 4.35 11.7 5.35 13.35 7.75 14.75 9.8 16.5 10.95 L14.8 2.95 12.15 3.3 M5.7 5.4 L5.7 5.6 5.75 5.4 5.7 5.4 M6.05 5.4 L6.0 5.65 6.2 5.4 6.05 5.4 M5.25 5.2 L5.3 5.4 5.35 5.25 5.25 5.2" fill="url(#gradient0)" fill-rule="evenodd" stroke="none"/>
      <path d="M19.8 1.85 L19.45 1.75 19.5 1.7 19.8 1.7 19.8 1.85" fill="url(#gradient1)" fill-rule="evenodd" stroke="none"/>
      <path d="M19.8 1.6 L19.75 1.6 19.8 1.55 19.8 1.6" fill="url(#gradient2)" fill-rule="evenodd" stroke="none"/>
      <path d="M12.15 3.3 L14.8 2.95 16.5 10.95 Q14.75 9.8 13.35 7.75 11.7 5.35 11.7 4.35 11.7 4.0 12.3 3.5 L12.65 3.25 12.15 3.3" fill="url(#gradient3)" fill-rule="evenodd" stroke="none"/>
      <path d="M5.7 5.4 L5.75 5.4 5.7 5.6 5.7 5.4" fill="url(#gradient4)" fill-rule="evenodd" stroke="none"/>
      <path d="M6.05 5.4 L6.2 5.4 6.0 5.65 6.05 5.4" fill="url(#gradient5)" fill-rule="evenodd" stroke="none"/>
      <path d="M5.25 5.2 L5.35 5.25 5.3 5.4 5.25 5.2" fill="url(#gradient6)" fill-rule="evenodd" stroke="none"/>
      <path d="M12.85 9.0 L12.85 9.1 12.45 9.8 11.35 10.15 Q10.6 10.2 9.9 9.3 L9.0 8.05 Q9.15 8.6 8.6 9.6 8.0 10.6 7.2 9.95 L6.55 9.1 Q6.65 8.3 7.4 8.25 8.2 8.2 8.2 7.55 L8.0 6.95 7.7 6.6 Q7.85 6.25 8.95 5.85 9.9 5.45 9.9 5.1 9.55 4.35 9.55 3.9 L11.5 7.15 12.85 9.0" fill="url(#gradient7)" fill-rule="evenodd" stroke="none"/>
      <path d="M38.75 4.6 Q37.7 4.45 37.5 5.4 37.3 6.35 36.1 8.6 34.9 10.8 32.8 11.95 30.65 13.1 29.15 12.25 27.6 11.35 26.25 9.1 L25.85 8.3 Q24.05 4.9 19.25 1.8 L19.0 1.7 19.05 1.7 17.9 2.05 19.1 1.55 19.1 1.5 19.15 1.5 19.5 1.35 19.75 1.45 19.8 1.4 19.8 1.35 19.95 1.35 20.05 1.35 20.25 1.25 20.05 1.4 20.0 1.4 20.25 2.0 Q23.7 3.0 26.25 6.05 28.7 9.1 30.0 9.15 31.25 9.2 33.3 6.5 35.4 3.8 38.7 3.8 L39.9 3.85 Q39.4 4.7 38.75 4.6 M24.8 17.3 Q26.15 18.1 28.3 18.5 L31.9 18.7 34.1 18.6 35.1 18.95 35.8 19.2 36.55 19.3 Q34.25 21.0 30.95 20.95 25.0 20.85 22.85 19.3 20.65 17.75 19.05 15.75 17.4 13.75 16.65 11.6 15.05 11.05 13.6 9.8 L12.9 9.1 12.85 9.0 11.5 7.15 9.55 3.9 Q9.55 4.35 9.9 5.1 9.9 5.45 8.95 5.85 7.85 6.25 7.7 6.6 L8.0 6.95 8.2 7.55 Q8.2 8.2 7.4 8.25 6.65 8.3 6.55 9.1 L6.45 8.65 Q5.4 10.55 4.2 11.3 3.1 12.0 1.9 11.7 1.8 18.65 -1.5 19.3 L-4.15 19.1 Q-2.45 18.25 -2.0 17.7 -0.7 16.65 -0.05 15.0 L0.9 12.3 0.5 12.4 -0.35 12.0 Q-1.3 12.0 -2.05 12.85 -2.8 13.7 -4.25 13.7 L-5.55 13.4 -6.65 13.1 Q-7.4 13.1 -7.65 13.55 L-8.45 14.0 -9.7 13.5 -10.3 13.5 Q-10.0 14.4 -11.15 14.4 L-11.95 14.2 -13.3 13.85 -12.85 13.15 -13.1 13.15 -14.0 13.15 -14.05 13.15 -16.1 13.2 -16.45 13.2 -16.85 13.2 -17.95 13.05 -19.15 12.25 -19.6 11.5 Q-18.0 10.4 -16.0 10.45 L-12.45 9.9 Q-12.4 8.9 -11.75 8.4 -11.05 7.8 -10.55 8.05 L-10.6 8.05 Q-8.25 10.2 -5.35 9.9 L-3.65 9.9 -2.6 9.85 Q0.65 9.55 2.95 8.45 L3.8 7.9 4.65 7.1 5.25 6.35 5.3 6.0 5.3 5.9 5.1 5.1 4.55 4.5 Q3.75 3.5 2.35 3.4 L2.5 3.45 2.55 3.55 2.1 3.35 1.65 3.35 1.8 3.25 1.15 2.95 0.35 2.65 0.25 2.65 0.05 2.6 0.35 2.7 -2.85 6.55 Q-4.1 8.05 -4.95 8.1 L-7.35 8.1 -10.5 8.05 -7.35 7.1 -4.5 5.25 -0.3 2.55 -1.05 2.45 -1.0 2.35 -0.65 2.4 0.75 2.65 1.95 3.15 5.25 3.15 9.55 3.35 9.4 3.4 11.95 3.3 13.75 3.0 14.8 2.9 14.8 2.85 18.45 1.95 17.85 2.35 Q17.4 2.75 17.9 5.85 18.4 8.95 18.75 9.75 19.05 10.5 21.25 13.5 23.45 16.5 24.8 17.3 M19.8 1.6 L19.8 1.55 19.75 1.6 19.8 1.6 M19.8 1.7 L19.5 1.7 19.45 1.75 19.8 1.85 19.8 1.7 M11.7 4.35 Q11.7 5.35 13.35 7.75 14.75 9.8 16.5 10.95 L14.8 2.95 12.15 3.3 12.65 3.25 12.3 3.5 Q11.7 4.0 11.7 4.35 M5.7 5.4 L5.7 5.6 5.75 5.4 5.7 5.4 M6.05 5.4 L6.0 5.65 6.2 5.4 6.05 5.4 M5.35 5.25 L5.25 5.2 5.3 5.4 5.35 5.25" fill="#51389a" fill-rule="evenodd" stroke="none"/>
      <path d="M40.9 4.5 L40.3 4.0 40.95 4.4 40.9 4.5" fill="url(#gradient8)" fill-rule="evenodd" stroke="none"/>
      <path d="M40.25 4.8 L40.25 4.85 39.7 4.25 40.25 4.8" fill="url(#gradient9)" fill-rule="evenodd" stroke="none"/>
      <path d="M25.35 7.1 L24.8 6.65 24.8 6.55 Q25.45 6.75 26.15 7.55 26.7 8.15 27.2 8.4 L27.6 8.5 28.95 8.7 Q31.4 8.7 32.8 6.95 L33.75 5.4 33.65 5.45 Q31.85 6.75 29.9 6.75 28.25 6.75 27.2 6.1 26.3 5.3 25.7 5.0 L21.75 3.35 Q22.35 3.0 25.35 4.75 28.6 6.65 29.4 6.65 31.55 6.65 33.8 5.3 L33.95 4.8 Q34.55 3.65 36.55 2.7 38.9 1.6 41.45 2.1 L40.25 2.0 Q36.0 2.0 34.05 5.15 35.5 4.2 36.3 3.85 L36.25 3.85 38.6 3.8 38.05 3.8 37.45 3.8 36.7 3.85 Q35.7 4.05 34.0 5.25 L33.85 5.45 32.25 7.8 Q31.1 8.9 29.0 8.9 L27.5 8.6 26.45 8.25 26.9 8.35 26.05 7.8 25.35 7.1" fill="url(#gradient10)" fill-rule="evenodd" stroke="none"/>
      <path d="M25.35 7.1 L26.25 10.7 27.85 13.0 26.6 11.45 26.25 11.05 26.25 11.35 Q26.25 13.1 25.6 14.35 24.9 15.55 24.9 16.15 24.9 19.15 29.55 19.15 L31.1 19.05 31.15 19.05 31.6 19.0 32.2 18.95 31.7 19.0 33.6 18.7 35.6 18.2 36.85 17.25 Q37.6 16.2 37.85 16.1 L37.05 17.5 Q36.55 18.25 34.95 18.55 L33.6 18.8 31.5 19.05 30.3 19.15 28.95 19.3 Q26.45 19.3 25.4 18.0 24.75 17.2 24.75 16.1 24.75 15.75 25.45 14.35 26.15 12.9 26.15 11.35 L26.15 10.95 Q25.35 10.3 23.6 9.5 L21.05 8.35 20.65 9.85 21.0 10.0 21.0 9.95 Q22.4 10.15 23.1 11.0 23.6 11.6 23.6 12.3 23.6 13.25 22.9 14.95 L22.25 16.95 Q23.6 18.85 25.75 20.0 L25.75 20.05 Q23.6 19.15 22.2 17.2 L22.2 17.35 Q22.2 18.0 23.0 18.9 23.85 19.95 25.1 20.45 L25.15 20.55 Q24.0 20.1 22.95 19.05 22.0 18.05 22.0 17.4 L22.05 17.0 21.5 16.05 Q20.2 13.75 20.2 11.45 L20.5 9.85 Q18.5 8.9 18.15 6.8 15.85 5.15 15.85 3.2 L15.95 3.2 Q15.95 4.2 16.85 5.35 L18.1 6.6 18.05 5.85 18.35 3.3 18.05 2.2 18.1 2.1 18.1 2.15 Q18.45 2.6 18.45 3.25 L18.2 5.9 18.25 6.7 19.45 7.45 Q19.85 7.7 20.9 8.15 L21.55 4.65 Q21.55 2.95 19.65 1.85 L19.7 1.75 Q21.7 2.7 21.7 4.85 L21.05 8.2 23.65 9.25 Q25.4 10.0 26.15 10.65 L26.0 9.95 25.35 7.1 M20.65 9.9 L20.4 11.45 Q20.4 13.65 21.6 15.85 L22.1 16.75 Q22.25 16.0 22.75 14.9 23.45 13.2 23.45 12.25 23.45 11.65 22.95 11.0 22.25 10.2 20.95 10.05 L21.0 10.05 20.65 9.9 M20.9 8.3 L19.25 7.5 18.3 6.9 Q18.65 8.8 20.5 9.75 L20.9 8.3" fill="url(#gradient11)" fill-rule="evenodd" stroke="none"/>
      <path d="M34.55 7.4 Q35.55 6.15 37.05 5.6 35.65 6.15 34.65 7.5 33.65 8.9 33.65 9.9 33.65 10.6 34.25 11.4 L34.2 11.45 Q33.55 10.9 33.55 9.9 33.55 8.7 34.55 7.4" fill="url(#gradient12)" fill-rule="evenodd" stroke="none"/>
      <path d="M11.85 6.05 L10.5 6.6 Q9.75 6.6 9.0 6.0 L8.3 5.2 8.5 6.35 Q9.85 9.1 11.1 9.1 12.45 9.1 12.85 7.65 L12.25 6.35 12.15 5.8 11.85 6.05 M12.5 5.3 L12.45 5.55 Q13.7 9.4 15.6 8.55 L15.75 8.7 14.95 8.8 Q13.8 8.8 13.05 7.9 L12.6 8.55 Q11.95 9.3 11.1 9.3 10.2 9.3 9.0 7.4 L8.55 6.65 8.7 7.85 Q8.7 8.95 7.8 8.95 7.05 8.95 6.25 7.15 L6.25 6.7 6.35 6.7 Q6.35 7.4 6.85 8.15 7.35 8.85 7.75 8.85 8.65 8.85 8.55 7.85 L8.4 6.3 7.65 4.6 7.75 4.6 8.3 5.9 7.85 4.5 7.95 4.5 8.2 5.0 8.25 5.0 8.9 5.7 Q9.7 6.4 10.45 6.4 L11.1 6.3 12.05 5.35 11.75 3.6 11.95 3.5 11.9 3.65 12.3 5.05 12.6 4.85 13.45 3.0 Q13.5 4.2 12.5 5.3" fill="url(#gradient13)" fill-rule="evenodd" stroke="none"/>
      <path d="M6.15 3.2 Q4.3 4.2 4.3 5.95 4.3 6.5 4.9 7.2 L4.8 7.35 4.25 6.55 4.15 5.9 4.2 5.35 3.6 5.9 1.95 6.95 2.25 6.8 1.95 7.0 Q2.5 7.7 2.5 8.35 L2.35 9.1 1.45 9.85 3.95 9.5 3.95 9.55 0.25 10.0 0.0 10.0 0.0 10.3 -0.05 10.4 -0.25 10.0 -1.1 9.9 -1.3 10.6 -1.4 10.65 -1.5 10.15 -1.45 9.8 Q-2.6 9.55 -3.75 8.9 -5.75 7.8 -6.9 7.8 -7.6 7.8 -8.6 8.15 L-9.85 8.65 Q-9.6 8.4 -8.4 8.0 L-6.8 7.65 Q-6.05 7.65 -3.75 8.75 L-1.35 9.6 Q-0.85 8.4 1.5 7.0 L1.7 6.9 1.25 6.45 Q0.15 5.4 0.15 4.55 L0.45 3.7 -0.05 3.6 -0.75 3.65 -0.7 4.1 -0.85 4.4 -0.85 4.5 Q-0.85 5.2 -1.8 5.2 L-1.95 5.2 -1.9 5.5 Q-1.9 6.5 -3.7 7.1 L-4.45 7.1 -5.65 6.45 -7.45 6.2 -9.5 6.5 -10.95 6.8 Q-10.6 6.6 -9.5 6.35 L-7.3 6.05 -5.25 6.45 -4.35 6.9 Q-3.05 6.85 -2.45 6.2 -2.05 5.75 -2.05 5.3 L-2.1 5.2 -3.6 4.7 Q-4.4 4.2 -4.8 4.2 L-7.2 4.6 -6.8 4.25 -5.3 4.05 Q-4.35 4.05 -3.6 4.55 -2.95 4.95 -2.2 5.0 L-2.35 4.55 Q-2.35 4.2 -1.65 3.7 L-0.95 3.6 -0.85 3.15 -0.3 2.35 Q-0.2 2.2 0.75 2.65 L0.05 2.5 -0.75 3.1 -0.75 3.6 0.1 3.55 0.5 3.6 0.5 3.55 Q0.9 2.75 1.15 2.7 L0.65 3.55 0.65 3.6 1.25 3.6 3.0 3.25 3.25 3.3 2.6 3.55 1.5 3.8 0.6 3.7 0.25 4.5 Q0.25 5.35 1.4 6.35 L1.85 6.8 Q4.45 5.2 4.45 4.45 L4.3 3.9 3.85 3.2 3.95 3.2 4.4 3.85 4.55 4.4 4.55 4.5 Q5.0 3.75 5.9 3.15 L6.15 3.2 M0.9 7.55 Q-0.55 8.4 -1.05 9.65 L-0.3 9.75 Q-0.3 9.1 0.45 8.15 L1.2 7.4 0.9 7.55 M2.35 8.3 Q2.35 7.7 1.8 7.05 0.05 8.15 0.0 9.8 L1.35 9.85 2.2 9.1 2.35 8.3 M-2.2 4.5 L-2.05 5.0 -1.9 5.0 -1.15 4.75 -0.95 3.7 Q-1.5 3.8 -1.85 4.05 L-2.2 4.5" fill="url(#gradient14)" fill-rule="evenodd" stroke="none"/>
      <path d="M-6.0 12.0 Q-6.0 12.8 -7.0 13.45 L-6.6 12.95 -6.05 11.8 -6.0 12.0" fill="url(#gradient15)" fill-rule="evenodd" stroke="none"/>
      <path d="M-0.8 11.6 L-0.95 11.2 -0.9 11.1 -0.9 11.15 -0.55 11.65 -0.55 11.7 Q0.8 12.45 0.8 13.35 0.8 14.15 -0.1 15.25 L-0.6 15.85 -0.55 15.8 Q-1.15 16.5 -2.5 16.8 -2.5 18.55 -4.25 19.55 -3.2 18.55 -2.9 17.95 -2.7 17.5 -2.65 16.8 L-4.2 16.9 Q-5.15 16.9 -5.15 16.65 L-4.15 16.7 -2.65 16.6 -2.9 15.75 -2.65 16.25 -2.75 15.75 Q-3.0 15.45 -3.75 15.15 L-5.25 15.0 -7.45 15.35 -8.95 15.85 -7.7 15.25 -7.75 15.2 Q-6.1 14.3 -2.75 13.75 -0.65 13.4 -0.65 12.25 L-0.8 11.65 -0.85 11.6 -0.8 11.6 M-0.55 12.25 Q-0.55 13.35 -2.5 13.8 L-7.7 15.25 -7.35 15.15 -5.25 14.85 -4.35 14.95 -4.3 14.85 Q-3.05 15.0 -2.7 15.7 L-2.5 16.6 -1.65 16.35 -0.85 15.95 -0.2 15.25 Q0.65 14.2 0.65 13.35 0.65 12.65 -0.55 11.8 L-0.55 12.25" fill="url(#gradient16)" fill-rule="evenodd" stroke="none"/>
      <path d="M-18.3 6.0 L-17.9 6.6 -18.1 7.45 -18.3 8.4 Q-18.3 9.05 -17.4 9.95 -16.35 10.95 -14.85 11.25 L-13.8 11.05 -13.5 10.85 -13.25 10.9 -13.6 11.05 -13.85 11.15 -13.9 11.2 -14.7 11.4 Q-15.85 11.45 -17.25 10.25 L-18.5 8.7 -18.25 7.55 -18.05 6.6 -18.45 5.95 -18.95 5.4 -18.3 6.0" fill="url(#gradient17)" fill-rule="evenodd" stroke="none"/>
      <path d="M-15.9 10.2 Q-15.5 10.65 -14.7 10.65 L-13.5 10.45 -13.45 10.55 -13.6 10.7 -14.7 10.8 Q-15.75 10.8 -16.15 10.2 L-16.35 9.55 Q-16.35 8.55 -15.1 8.55 L-14.4 8.85 -13.85 9.05 -13.0 9.05 -11.15 8.8 -12.65 9.2 -13.0 9.25 -13.8 9.15 -13.95 9.15 -14.0 9.1 -15.15 8.7 Q-16.2 8.7 -16.2 9.55 L-15.9 10.2" fill="url(#gradient18)" fill-rule="evenodd" stroke="none"/>
      <path d="M-10.45 13.15 Q-13.9 14.55 -13.9 16.65 -13.9 17.4 -13.5 17.4 L-13.25 17.4 Q-12.95 16.95 -12.95 16.5 L-12.9 16.25 -12.95 16.25 -12.75 15.9 -12.5 15.55 -12.6 15.75 -11.8 15.2 Q-10.65 14.55 -8.7 14.15 -11.45 15.1 -12.75 16.15 L-12.8 16.55 -12.85 17.3 -11.85 16.9 -10.75 16.45 -9.8 16.0 -8.25 15.35 Q-8.45 15.65 -11.2 16.75 L-11.75 17.1 -12.95 17.6 Q-13.3 18.25 -14.2 18.75 -15.8 19.6 -15.8 20.4 L-15.7 20.75 -15.05 21.25 Q-15.8 21.1 -15.95 20.85 L-16.0 20.3 Q-16.0 19.3 -14.45 18.4 L-13.4 17.6 Q-14.2 17.55 -14.1 16.7 -14.1 15.9 -13.25 14.85 -12.4 13.8 -11.1 13.05 L-10.45 13.15" fill="url(#gradient19)" fill-rule="evenodd" stroke="none"/>
      <path d="M44.65 0.35 L44.9 0.25 45.05 0.2 45.25 0.15 45.4 0.1 Q46.0 0.1 46.0 0.9 46.0 1.85 43.6 2.35 L43.9 2.6 44.0 2.95 43.7 3.7 43.35 3.8 42.5 3.9 41.95 3.9 42.0 3.95 42.5 4.8 Q42.5 5.45 41.6 6.25 L40.5 7.1 40.0 7.1 40.0 7.0 37.45 6.9 37.4 7.2 37.3 7.25 38.25 7.45 39.65 7.8 39.7 7.85 Q40.0 7.95 40.0 8.4 40.0 9.35 38.8 9.9 L38.75 9.85 37.7 9.75 Q38.0 9.95 38.3 10.7 38.3 11.15 37.4 11.9 36.4 12.7 35.55 12.7 L35.5 12.7 35.35 12.65 33.6 12.2 Q33.4 12.45 33.35 12.95 33.2 14.1 31.95 14.1 31.0 14.1 30.25 13.3 L29.5 12.4 29.15 12.35 28.65 12.6 28.6 12.6 Q27.6 12.6 27.2 11.85 L26.95 10.8 26.55 9.65 28.3 11.35 29.25 12.05 29.9 12.25 29.95 12.3 30.6 12.4 31.75 12.0 31.85 12.0 32.15 11.7 Q32.65 11.3 33.2 11.45 L33.55 11.4 33.65 11.35 34.6 10.3 35.15 9.5 35.2 9.4 35.05 9.4 35.0 9.1 35.25 8.65 35.55 8.55 Q35.6 8.45 35.7 8.45 L36.25 7.2 36.55 6.35 36.5 6.1 Q36.5 5.7 37.0 5.45 L37.1 5.3 37.25 5.15 Q37.6 4.8 38.1 4.55 L39.5 3.5 39.7 3.15 39.65 3.15 39.75 3.05 39.8 3.0 39.9 2.6 Q40.0 2.45 40.15 2.45 L40.4 2.4 40.9 2.05 41.6 1.7 41.3 1.8 Q41.2 1.95 41.2 1.7 41.2 1.35 42.4 0.95 L44.6 0.35 44.65 0.35 M40.7 13.25 L40.65 13.55 40.6 13.7 41.35 13.65 41.5 13.6 41.9 14.1 Q42.3 14.7 42.3 15.05 42.3 15.5 41.15 16.1 L40.0 16.95 40.2 17.8 Q40.2 18.35 39.85 18.55 39.8 18.75 38.85 18.95 L38.3 19.3 38.35 19.4 38.5 19.5 Q38.9 19.9 38.9 20.35 38.9 21.3 37.6 21.3 L36.9 21.1 35.55 20.85 34.85 20.55 34.8 20.75 34.95 21.15 35.3 21.35 35.45 21.35 Q36.1 21.4 36.1 21.9 36.1 22.65 35.3 23.2 34.55 23.7 34.05 23.7 L33.2 23.5 32.9 23.15 32.95 23.15 Q31.75 22.2 31.1 22.15 L31.3 22.65 Q31.3 23.1 30.7 23.1 L30.1 22.7 30.1 22.6 29.4 22.0 29.2 22.0 29.5 22.55 Q29.5 23.3 28.2 23.3 L27.4 23.2 27.15 23.1 26.25 22.5 Q25.6 21.8 25.25 21.8 L25.0 21.9 25.05 22.05 25.2 22.6 Q25.2 23.4 23.9 23.4 22.8 23.55 22.8 22.9 L22.95 22.25 23.0 21.45 Q23.0 20.5 22.35 20.5 L22.3 20.5 Q22.15 21.7 20.9 21.7 20.55 21.7 20.3 21.4 L20.95 20.75 21.2 20.6 21.15 20.5 20.95 20.75 20.2 20.8 19.1 20.6 Q18.3 20.35 18.3 20.05 L18.35 19.9 18.35 19.8 18.7 17.8 Q18.7 16.35 18.5 16.1 L18.25 16.0 18.05 16.0 17.95 16.05 17.75 16.35 17.6 16.9 Q17.55 17.5 16.75 16.9 15.95 16.25 16.05 15.3 L15.9 15.15 15.7 14.8 Q15.7 14.45 16.05 13.95 L16.4 13.15 16.15 12.6 15.55 12.2 15.35 12.15 15.1 12.1 13.15 11.25 13.1 11.3 13.7 12.0 14.0 12.65 13.6 13.4 Q13.2 13.8 12.85 13.8 12.45 13.8 12.3 13.5 L12.2 13.35 11.65 13.2 11.15 13.25 10.75 13.4 10.5 13.6 10.9 13.9 11.1 14.2 11.1 14.3 10.7 14.8 9.7 15.1 Q8.65 15.1 8.6 14.6 L8.25 14.15 7.5 14.3 Q7.2 14.3 6.8 13.9 L6.45 13.25 6.4 13.0 6.2 12.7 6.2 12.95 Q6.2 13.5 5.8 13.9 5.35 14.3 4.75 14.3 L4.3 14.2 Q3.05 13.55 2.45 13.4 2.2 13.3 2.2 13.5 L1.45 13.7 1.5 11.5 1.55 11.5 2.5 11.4 Q3.7 11.2 4.6 10.6 L5.4 10.0 5.85 9.45 5.85 9.35 5.85 9.3 5.95 9.3 6.4 8.3 7.05 9.1 7.3 9.4 7.5 9.55 7.35 9.35 7.6 9.6 8.0 9.7 8.1 9.7 8.25 9.7 8.45 9.65 8.8 9.05 8.85 8.9 8.8 7.9 9.8 8.7 Q10.75 9.65 11.2 9.65 L11.45 9.65 11.45 9.6 11.55 9.6 11.6 9.65 11.7 9.6 12.35 9.4 12.8 9.0 15.3 10.9 15.2 9.9 15.8 9.5 15.5 8.9 15.2 8.85 Q14.2 8.75 14.0 7.85 L13.9 7.7 13.9 7.25 13.9 7.15 Q13.9 6.55 14.35 6.4 14.7 6.25 14.95 6.75 L15.15 6.85 14.95 6.6 14.55 5.85 14.4 5.7 14.4 5.55 14.4 5.5 14.35 5.4 14.4 5.35 14.4 5.25 14.4 5.1 14.5 4.8 14.65 4.65 14.9 4.5 15.0 4.5 15.1 4.5 15.3 4.55 15.35 4.65 15.4 4.7 15.95 7.05 16.0 7.1 16.3 9.3 16.45 9.6 16.55 9.6 16.5 9.65 16.5 9.9 16.5 10.0 16.7 11.3 17.1 11.3 17.55 11.7 17.7 11.85 17.9 12.3 17.9 12.4 17.7 12.8 17.5 13.25 18.6 14.95 18.65 15.0 18.7 14.9 19.2 15.4 19.55 15.95 19.55 16.1 20.0 16.6 20.7 17.25 21.35 17.75 23.55 19.0 24.35 19.05 24.55 19.05 24.8 19.2 24.85 19.25 24.9 19.3 24.95 19.35 25.15 19.65 25.2 19.65 25.15 19.6 25.25 19.6 25.3 19.7 25.6 19.8 26.2 19.9 26.7 20.2 26.85 20.3 26.95 20.3 27.6 20.4 28.1 20.2 Q28.25 20.0 28.6 20.0 L28.7 20.0 30.0 20.4 30.05 20.45 Q30.35 20.0 31.85 20.0 L33.35 20.0 33.5 20.15 33.5 20.0 33.5 19.9 33.3 19.8 33.05 19.75 33.05 19.65 33.25 19.65 Q33.3 19.5 33.9 19.45 L34.4 19.4 34.8 19.55 34.8 19.5 36.45 19.15 37.1 18.6 37.35 18.3 37.4 18.3 37.5 18.2 39.0 15.6 Q38.0 16.3 36.55 16.6 L36.2 16.65 33.0 16.8 Q31.5 16.7 30.1 15.8 28.55 14.8 28.0 13.1 L29.2 13.6 Q30.15 13.9 30.2 14.6 L31.1 14.8 31.95 14.6 33.6 14.2 34.1 14.25 34.35 14.2 34.4 14.2 34.6 14.2 Q35.1 13.75 35.95 13.5 L37.0 13.3 37.5 13.4 37.55 13.4 38.1 13.55 Q38.75 12.9 39.45 12.85 L40.1 12.7 40.5 12.9 40.7 13.25 M42.4 2.4 L42.2 2.4 42.1 2.45 42.4 2.4 M25.2 19.75 L25.15 19.7 25.2 19.8 25.2 19.75 M35.5 15.05 L35.45 15.15 35.5 15.1 35.5 15.05 M1.45 13.7 L2.2 13.7 2.3 13.75 Q2.6 13.85 2.8 14.1 L3.1 14.9 Q3.1 15.55 2.35 15.75 L1.55 15.95 1.35 16.3 1.8 16.9 2.05 17.15 Q2.45 17.4 2.45 17.7 L2.25 18.25 2.0 18.6 Q1.45 19.3 0.7 19.3 L0.4 19.3 0.2 19.2 -0.5 19.2 -0.85 19.4 -0.8 19.4 -0.5 19.95 -1.1 20.6 -1.8 20.85 -2.2 20.9 Q-2.75 20.9 -2.9 20.35 -3.1 19.8 -3.4 19.8 L-3.95 20.55 -4.8 21.3 -5.35 21.4 -6.4 21.1 -7.0 20.45 -6.8 20.05 -6.5 20.05 Q-5.9 19.65 -5.9 19.05 L-6.05 18.6 -6.25 18.4 -7.7 19.15 -7.8 19.2 -8.3 19.4 Q-8.9 19.4 -9.4 19.0 -10.5 19.05 -11.65 19.55 -12.85 20.0 -13.6 20.7 L-13.95 21.0 -15.3 21.3 -16.4 21.8 -16.95 21.65 -17.4 21.3 Q-17.6 21.1 -17.45 20.65 -17.3 20.15 -17.8 20.2 L-18.25 20.2 -18.6 20.3 -18.7 20.3 -19.1 20.3 -20.35 20.7 Q-20.95 20.7 -21.4 20.0 L-21.65 19.35 -21.7 19.0 -21.7 18.8 Q-21.7 18.3 -21.35 18.05 L-20.85 17.85 -20.65 17.75 -20.2 17.7 -19.5 17.5 Q-19.7 16.3 -18.85 16.3 L-18.3 16.4 -18.15 16.45 -17.5 16.6 -17.4 16.6 -16.75 16.65 -16.65 16.6 -16.6 16.6 -16.6 16.5 -16.4 16.0 -16.05 15.7 -15.5 15.45 -15.45 15.45 Q-15.3 15.4 -15.3 15.15 L-15.6 14.55 -16.25 14.5 Q-17.0 14.65 -16.95 14.15 L-16.9 13.85 -16.95 13.85 -16.9 13.8 -16.45 13.1 -15.8 12.3 -14.5 12.5 -13.85 12.6 -13.8 12.6 -13.4 12.7 -13.35 12.8 -12.9 13.0 -12.65 13.0 Q-12.0 12.9 -12.0 12.35 -12.0 11.9 -12.8 11.85 -13.6 11.8 -13.6 11.15 L-13.3 9.9 -12.75 9.1 -12.75 9.05 -12.55 8.95 -12.25 8.7 -12.3 8.6 -12.1 8.6 -11.6 8.45 -11.5 8.2 Q-11.25 7.7 -10.85 7.7 -10.45 7.7 -10.1 8.0 L-10.05 8.05 -10.0 8.1 -9.55 8.5 -9.35 8.7 -8.5 9.5 -8.3 9.7 -8.2 9.5 -7.9 9.3 -7.15 9.1 -6.6 9.2 -6.2 9.55 -6.0 9.65 -6.0 9.6 -5.15 9.9 -4.95 9.9 -4.65 9.95 -4.7 9.75 Q-4.7 9.4 -4.15 9.4 L-2.05 9.65 -1.9 9.65 -1.7 9.6 -1.7 9.65 -1.6 9.55 -1.55 9.55 -1.5 9.5 -0.7 9.3 -0.2 9.4 -0.2 9.2 -0.05 9.2 -0.05 9.15 0.25 9.2 1.7 8.9 2.8 8.4 Q3.0 8.0 3.35 8.0 L3.45 8.05 3.9 7.8 4.3 7.55 4.9 7.0 Q4.9 6.65 5.3 6.4 L5.55 6.3 5.85 5.55 Q6.2 5.05 6.55 4.9 L7.05 4.2 7.1 3.7 7.1 3.6 7.2 3.55 7.4 3.2 7.5 3.25 7.5 3.2 7.8 3.3 7.95 3.35 8.15 3.5 8.5 3.85 8.85 4.3 8.65 4.75 Q8.5 5.0 8.0 5.1 L7.9 5.1 Q7.2 5.25 7.3 5.8 L7.4 5.8 7.1 6.8 6.45 7.45 6.1 7.25 5.4 7.3 5.4 8.0 5.8 8.75 5.7 9.2 5.2 9.8 Q4.55 10.3 3.75 10.3 3.25 10.45 3.05 10.1 L2.5 10.5 1.9 10.4 Q0.7 10.25 -0.7 10.9 L-0.8 11.15 Q-1.05 11.5 -1.8 11.55 L-1.95 11.55 -2.25 11.5 -3.0 11.4 -2.6 12.2 -3.6 12.8 -4.65 13.0 Q-5.4 13.0 -6.1 12.5 -6.75 12.0 -6.95 12.0 L-7.4 12.05 -8.05 12.4 -8.85 12.6 Q-10.5 12.2 -10.5 11.35 L-10.45 11.15 -10.6 10.9 -11.15 11.05 -11.35 11.15 -11.6 11.45 Q-11.6 11.85 -11.2 12.15 -10.8 12.4 -10.8 12.9 -10.8 13.55 -11.85 13.6 L-12.4 13.55 -12.5 13.4 -12.9 13.8 -13.45 14.0 -13.5 14.0 Q-12.95 14.15 -13.1 14.65 L-13.15 14.75 -13.25 15.0 -13.75 15.2 -13.9 15.25 -13.8 15.45 -13.8 15.55 -13.85 15.65 -13.55 15.45 -14.05 16.0 -14.25 16.1 -14.35 16.1 -14.65 16.35 -15.4 17.35 Q-15.25 17.7 -15.7 18.0 L-16.5 18.2 -17.5 18.0 -18.6 18.05 -19.25 18.35 -19.1 18.65 -18.5 19.3 -17.95 19.15 -18.0 19.0 Q-17.75 18.85 -17.5 18.85 L-17.35 18.8 -17.3 18.8 -16.65 18.85 -16.5 18.9 -16.35 18.95 -16.05 19.15 -15.8 18.85 -15.4 18.5 Q-14.75 18.1 -14.05 18.1 L-13.45 18.25 -13.4 18.6 -13.4 18.7 -13.4 18.75 -13.55 19.15 -13.4 19.3 -13.0 19.4 -12.85 19.4 Q-12.25 19.4 -11.6 18.9 -11.0 18.4 -11.0 18.0 L-11.0 17.9 -11.1 17.7 Q-11.25 17.4 -11.7 17.15 L-12.4 16.6 -11.95 15.1 Q-11.45 14.3 -10.7 14.5 L-10.3 14.95 -10.55 15.7 -10.8 16.4 -10.55 16.9 -10.4 16.9 -9.8 16.55 Q-9.65 16.3 -9.65 15.8 -9.65 14.7 -8.6 14.7 L-8.1 14.8 -8.0 15.4 -8.25 16.15 -8.55 16.45 -8.7 16.95 -8.6 17.35 -7.55 16.5 Q-7.15 15.8 -5.35 15.7 -3.55 15.55 -3.6 17.3 -3.65 19.0 -3.15 19.45 L-3.05 19.4 Q-2.7 19.05 -1.7 19.0 L-1.7 18.6 Q-1.55 18.3 -0.7 18.3 L-0.4 18.35 Q0.9 17.1 1.3 14.85 L1.4 13.95 1.4 13.8 1.45 13.8 1.45 13.7 M-20.05 10.05 L-19.7 10.1 -19.6 10.1 -18.6 11.75 -18.95 11.95 -19.15 12.15 -19.8 12.4 Q-21.5 12.05 -21.5 11.0 L-21.2 10.35 -20.95 10.05 -20.5 9.9 -20.05 10.05 M-20.1 4.9 L-20.1 4.95 -20.0 5.05 -19.9 5.25 Q-19.75 5.35 -19.75 5.6 L-19.7 5.65 -19.65 5.75 -19.7 5.75 -19.6 6.15 -19.8 7.3 -19.95 7.3 -19.8 7.6 -19.7 10.05 -20.05 10.0 -21.2 9.55 Q-21.7 9.2 -21.7 8.5 -21.7 8.0 -21.3 7.5 -20.95 7.05 -20.6 7.0 L-20.15 7.2 -20.15 7.15 -20.1 7.15 Q-20.3 7.0 -20.55 7.0 L-20.6 7.0 -20.9 6.9 Q-21.6 6.55 -21.6 5.7 L-21.35 5.25 -21.15 5.15 -21.05 5.05 -21.0 5.0 -20.95 5.0 -20.55 4.9 -20.1 4.9 M1.2 16.0 L1.2 16.05 1.25 16.0 1.2 16.0 M5.6 11.6 L5.75 11.9 5.65 11.6 5.6 11.6 M3.8 12.3 L3.75 12.3 3.85 12.45 3.8 12.3 M-19.15 12.15 L-18.55 11.8 -18.5 11.85 -18.05 12.1 -17.05 12.15 -16.95 12.2 -15.85 12.3 -16.85 13.1 Q-17.9 13.7 -18.3 13.7 -19.5 13.65 -19.5 13.0 -19.5 12.5 -19.15 12.15 M-21.85 2.75 L-21.6 2.3 -20.7 3.35 -20.5 3.9 Q-20.3 3.95 -20.3 4.35 L-20.35 4.7 -20.4 4.75 -20.55 4.9 -20.9 4.9 -21.0 5.0 Q-21.45 5.0 -21.8 4.6 -22.2 4.15 -22.2 3.35 L-21.85 2.75 M-3.4 19.8 L-3.25 19.6 -3.8 19.95 -3.4 19.8 M-19.25 18.35 L-19.3 18.3 -19.3 18.4 -19.25 18.35 M-12.5 13.4 L-12.5 13.25 -12.55 13.1 -12.5 13.4 M-11.55 11.2 L-11.5 11.2 -11.45 11.15 -11.55 11.2" fill="#fd8d8d" fill-rule="evenodd" stroke="none"/>
      <path d="M44.85 0.45 L41.6 1.7 41.3 1.8 Q41.2 1.95 41.2 1.7 41.2 1.35 42.4 0.95 L44.6 0.35 44.65 0.35 44.85 0.45 M41.0 2.4 L41.55 2.25 41.95 2.25 42.6 2.25 42.85 2.25 42.7 2.25 42.45 2.35 42.55 2.35 42.2 2.4 41.85 2.5 41.9 2.5 41.85 2.6 41.55 2.6 40.0 3.05 39.95 3.1 39.85 3.15 39.85 3.1 39.7 3.15 39.65 3.15 39.75 3.05 39.8 3.0 39.9 2.6 Q40.0 2.45 40.15 2.45 L40.4 2.4 40.8 2.35 41.0 2.4 M41.5 13.95 Q42.05 14.45 42.05 15.0 L41.6 15.7 Q41.05 16.25 40.85 16.05 L41.35 15.55 40.8 15.95 41.45 14.05 41.5 13.95 M37.15 5.35 Q37.4 5.15 38.1 5.05 L38.1 5.1 Q37.9 5.15 38.25 5.2 L40.15 4.9 40.0 5.05 39.0 5.2 38.3 5.8 38.15 5.95 37.75 6.45 37.45 6.9 37.4 7.2 37.3 7.25 37.2 7.1 36.85 6.55 36.75 6.35 36.6 6.4 36.55 6.35 36.5 6.1 Q36.5 5.7 37.0 5.45 L37.15 5.35 M35.25 8.65 L35.55 8.55 Q35.6 8.45 35.7 8.45 L35.95 8.4 37.05 8.35 37.1 8.35 37.45 8.35 37.6 8.55 37.6 8.6 37.65 8.65 38.1 9.3 38.05 9.35 37.1 8.6 36.95 8.55 36.85 8.65 36.75 8.7 36.7 8.7 36.5 8.8 36.5 8.85 36.55 9.05 36.55 9.1 36.6 9.5 36.6 9.55 36.35 9.6 35.85 9.45 35.85 9.5 35.8 9.6 35.55 9.4 35.05 9.4 35.0 9.1 35.25 8.65 M32.15 11.7 Q32.65 11.3 33.2 11.45 L33.55 11.4 34.3 11.6 35.15 12.3 34.9 12.45 34.65 12.05 34.1 12.1 33.6 12.0 32.5 12.65 31.45 12.55 31.4 12.55 30.35 12.55 30.6 12.4 31.75 12.0 31.85 12.0 32.15 11.7 M27.05 10.8 Q27.45 12.2 28.65 12.2 L28.85 12.2 29.25 12.05 29.9 12.25 29.95 12.3 30.45 13.15 30.1 12.9 29.85 12.4 29.5 12.4 29.15 12.35 28.65 12.6 28.6 12.6 Q27.6 12.6 27.2 11.85 L26.95 10.8 27.05 10.8 M21.25 18.1 L21.25 18.2 21.4 18.7 21.55 18.75 21.45 18.9 21.55 19.25 21.6 19.3 21.65 19.5 21.55 19.55 21.45 19.3 21.4 19.3 20.8 19.2 20.7 19.35 20.7 17.4 20.85 17.4 21.25 18.15 21.25 18.1 M24.85 19.25 L24.9 19.3 24.95 19.35 25.15 19.65 25.2 19.65 25.15 19.6 25.25 19.6 25.3 19.7 25.6 19.8 26.2 19.9 26.7 20.2 26.85 20.3 26.95 20.3 27.0 20.35 27.05 20.4 27.1 20.4 27.35 20.55 27.25 20.6 27.4 20.75 27.35 20.85 26.8 20.6 26.7 20.6 26.55 20.6 26.15 20.65 25.75 20.35 25.65 20.0 25.3 19.8 25.3 19.9 25.4 20.05 25.45 20.15 25.35 20.1 25.35 20.4 24.6 21.1 23.4 21.9 23.35 21.9 23.05 22.05 Q22.95 21.65 23.9 20.95 L24.9 20.0 24.9 19.95 24.35 19.3 23.05 19.25 22.6 19.45 22.55 19.4 23.1 19.0 23.55 19.0 24.35 19.05 24.55 19.05 24.8 19.2 24.85 19.25 M25.2 19.75 L25.15 19.7 25.2 19.8 25.2 19.75 M28.6 20.0 L28.75 20.1 29.55 20.3 Q30.5 20.55 30.75 21.05 L30.75 21.15 30.65 21.25 29.8 20.8 29.35 20.6 29.65 20.75 29.0 20.9 28.95 20.6 28.65 20.25 28.35 20.05 28.5 20.05 28.6 20.0 M38.6 14.55 L37.45 14.4 36.6 14.25 36.6 14.15 36.55 14.15 35.6 14.6 Q36.95 13.7 37.4 13.7 L38.15 13.75 38.65 14.35 38.6 14.55 M39.95 12.95 L40.65 13.55 39.65 13.5 39.45 13.4 39.4 13.2 Q39.4 12.75 39.95 12.95 M33.15 14.8 Q33.15 14.65 33.7 14.6 L34.6 14.25 Q35.3 14.05 35.4 14.4 L35.45 14.7 35.35 14.95 35.1 15.15 34.75 15.0 34.4 14.8 34.4 14.75 34.15 14.75 33.3 14.9 Q33.15 15.05 33.15 14.8 M34.9 20.05 L34.15 19.9 33.95 19.85 33.65 19.8 33.3 19.8 33.05 19.75 33.05 19.65 33.25 19.65 Q33.3 19.5 33.9 19.45 L34.05 19.55 34.4 19.55 35.8 19.85 36.05 19.95 35.7 20.0 35.65 20.0 35.6 20.0 35.5 20.0 35.3 20.05 35.15 20.05 34.9 20.05 M34.0 20.4 L33.85 20.5 33.85 20.55 34.05 20.7 34.05 20.75 33.6 20.5 33.55 20.45 32.95 20.3 32.6 20.3 32.3 20.35 32.15 20.35 32.0 20.45 31.5 20.6 31.0 20.5 30.9 20.45 30.65 20.45 30.8 20.4 30.35 20.35 Q30.55 20.05 31.35 20.05 L31.4 20.1 32.85 20.05 33.35 20.0 33.5 20.15 33.7 20.3 34.0 20.4 M38.1 21.05 L37.95 21.05 37.9 21.05 37.65 21.05 37.55 21.1 37.35 21.05 37.25 21.05 36.85 20.8 36.7 20.65 38.1 20.15 37.25 18.9 37.3 18.85 38.4 19.5 38.65 20.25 Q38.65 21.05 38.1 21.05 M15.1 4.55 L15.1 5.6 15.1 6.05 15.2 6.5 15.35 7.0 15.25 7.05 15.15 6.85 14.95 6.6 14.55 5.85 14.4 5.7 14.4 5.55 14.4 5.5 14.35 5.4 14.4 5.35 14.4 5.25 14.4 5.1 14.5 4.8 14.65 4.65 14.9 4.5 15.0 4.5 15.1 4.55 M15.05 6.9 L15.05 7.05 15.15 7.35 15.1 7.35 15.35 7.75 14.65 7.15 14.2 7.25 14.2 7.3 14.25 7.75 14.35 8.2 14.25 8.15 14.2 8.15 14.15 8.05 14.0 7.85 13.9 7.7 13.9 7.25 13.9 7.15 Q13.9 6.55 14.35 6.4 14.7 6.25 14.95 6.75 L15.0 6.9 15.05 6.9 M12.35 10.15 L13.7 10.8 13.7 10.85 12.9 11.15 Q12.2 11.4 11.85 10.75 L11.45 9.65 11.45 9.6 11.55 9.6 11.6 9.65 12.1 9.95 12.35 10.15 M15.95 9.25 L16.2 9.4 16.4 9.6 16.45 9.6 16.55 9.6 16.5 9.65 16.4 9.7 16.35 9.75 16.25 9.9 15.8 9.5 15.7 9.2 15.6 8.9 15.95 9.25 M16.4 11.75 L17.2 11.5 17.35 11.5 17.4 11.6 17.55 11.7 17.7 11.85 17.9 12.3 17.9 12.35 17.35 13.05 17.55 12.5 16.7 12.1 16.6 12.15 16.5 12.2 16.15 12.35 15.95 12.3 15.85 12.1 15.85 12.05 16.4 11.75 M7.5 3.2 L7.8 3.3 7.95 3.35 8.15 3.5 8.5 3.85 8.85 4.3 8.65 4.75 8.55 4.75 8.6 4.5 8.55 4.5 8.5 4.55 8.55 4.35 Q8.45 3.9 7.75 3.75 L7.45 3.75 7.4 3.9 7.1 3.8 7.15 3.8 7.1 3.7 7.1 3.6 7.2 3.55 7.4 3.2 7.5 3.25 7.5 3.2 M6.0 5.6 L6.35 5.3 6.7 6.0 5.75 6.05 6.0 5.6 M4.95 7.4 Q4.95 7.9 4.4 8.25 L4.35 8.25 4.05 8.5 3.75 8.2 3.7 8.0 3.9 7.8 4.3 7.55 4.75 7.25 4.8 7.25 4.85 7.2 4.95 7.4 M2.75 8.5 L2.75 8.55 2.5 8.95 2.6 8.9 2.35 9.15 2.0 9.4 1.6 9.55 0.15 9.55 0.1 9.4 0.1 9.25 -0.05 9.25 -0.05 9.15 0.25 9.2 1.75 8.9 2.75 8.5 M3.35 12.3 L3.3 12.3 Q2.2 12.85 1.55 11.5 L2.75 11.7 Q3.3 11.85 3.45 12.1 L3.45 12.25 3.35 12.3 M8.85 9.05 L9.65 10.1 10.45 11.55 11.55 12.7 12.25 13.2 11.4 13.15 11.25 13.15 11.15 13.25 10.75 13.4 10.55 13.4 10.5 13.55 10.35 13.6 10.3 13.4 10.3 13.35 10.25 13.35 10.3 13.3 10.35 13.25 10.35 13.1 9.9 11.55 9.95 11.45 9.8 11.2 8.8 9.15 8.85 9.05 M7.35 9.35 L7.6 9.6 Q9.15 11.35 9.2 12.05 L9.3 12.75 9.3 12.8 8.9 12.4 8.85 12.35 8.75 12.3 8.7 12.3 8.75 12.35 8.6 12.45 8.5 12.4 8.05 12.65 8.3 12.2 8.2 11.9 8.1 10.8 8.1 10.85 7.95 10.4 7.5 9.55 7.35 9.35 M5.95 9.3 L5.95 9.5 7.2 11.55 Q6.55 10.95 6.2 11.2 5.85 11.4 5.7 10.95 5.5 10.5 5.8 9.8 L5.85 9.45 5.85 9.35 5.85 9.3 5.95 9.3 M2.95 14.6 L2.95 14.75 2.8 14.8 1.8 14.15 1.55 14.15 1.65 14.05 1.4 13.95 1.4 13.8 1.45 13.8 1.45 13.7 2.2 13.7 2.3 13.75 2.5 13.95 2.85 14.45 2.85 14.5 2.95 14.6 M1.35 16.3 L1.8 16.9 2.05 17.15 Q2.45 17.4 2.45 17.7 L2.25 18.25 2.0 18.5 Q1.6 18.9 1.05 19.1 L1.85 18.35 Q2.2 17.9 1.75 17.65 L1.15 17.2 1.05 16.3 1.1 16.3 1.2 16.05 1.25 16.0 1.3 15.9 Q1.55 15.6 1.85 15.65 L1.9 15.7 1.55 15.95 1.35 16.3 M18.7 14.9 L19.2 15.4 19.55 15.95 19.4 17.25 19.3 17.35 19.3 17.25 19.2 17.55 19.2 16.95 19.1 16.65 Q19.1 16.85 18.95 16.7 L18.65 16.1 18.65 16.05 18.45 15.9 18.25 16.0 18.05 16.0 17.95 16.05 18.2 15.45 18.5 15.05 18.65 15.1 18.6 15.0 18.7 14.9 M-9.55 8.5 L-9.35 8.7 -9.2 8.95 -8.35 9.7 -8.35 9.75 -8.45 9.8 -8.3 9.85 -8.15 9.9 -8.15 10.05 -8.25 10.1 -8.45 10.1 -8.55 10.1 -8.6 10.1 -9.1 10.0 -9.25 9.85 -9.7 9.1 -9.7 8.65 -9.55 8.65 -9.65 8.5 -9.55 8.5 M-6.0 9.6 L-5.15 9.9 -4.95 9.9 -4.65 9.95 -4.35 10.3 -4.15 10.6 -4.4 11.05 -5.05 11.0 -5.5 10.65 -5.6 10.8 -5.55 10.65 -5.65 10.55 -5.7 10.45 -5.8 10.3 -5.9 10.25 -5.9 10.2 -6.1 9.9 -6.35 9.5 -6.25 9.55 -6.0 9.65 -6.0 9.6 M-3.5 9.5 L-2.2 9.6 -2.05 9.65 -1.9 9.65 -1.7 9.6 -1.7 9.65 -1.75 9.7 -1.75 9.75 -1.8 9.75 -2.05 10.0 -2.55 10.3 -2.85 10.15 -3.25 9.95 -3.5 9.75 -3.45 9.7 -3.55 9.7 -3.6 9.65 -3.65 9.65 -3.65 9.6 -3.7 9.5 -3.5 9.5 M-20.1 4.9 L-20.1 4.95 -20.0 5.05 -19.9 5.25 Q-19.75 5.35 -19.75 5.6 L-19.7 5.65 -19.65 5.75 -19.75 5.75 -19.85 5.9 -19.95 5.95 -20.05 5.7 -20.9 5.5 -21.05 5.45 -20.95 5.4 -21.1 5.45 -21.3 5.95 -21.05 6.65 -21.05 6.75 -21.4 6.4 -21.45 6.0 -21.4 5.75 -21.45 5.7 -21.35 5.45 -21.15 5.15 -21.05 5.05 -21.0 5.0 -20.95 5.0 -20.55 4.9 -20.1 4.9 M-20.15 7.2 L-20.15 7.15 -20.1 7.15 -19.95 7.3 -19.8 7.6 -19.85 7.85 -20.05 8.05 -20.3 8.25 -20.35 8.25 -21.25 8.35 -21.35 8.45 -21.4 8.45 -21.35 8.9 -20.6 9.5 -20.65 9.6 Q-21.35 9.4 -21.55 9.1 L-21.6 8.55 -21.55 8.05 -21.25 7.65 -21.35 7.65 -20.85 7.25 -20.15 7.3 -20.15 7.2 M-18.65 12.0 L-18.05 12.1 -17.05 12.15 -16.95 12.2 -17.35 12.4 -17.15 12.45 Q-18.2 12.6 -18.85 13.1 L-18.95 13.15 -18.7 13.45 -17.6 13.25 Q-17.0 12.95 -16.85 13.0 L-17.7 13.5 -18.85 13.5 -19.1 13.25 -19.15 13.3 -19.25 13.15 -19.4 12.8 -19.25 12.35 Q-19.05 12.1 -18.8 12.2 L-18.8 12.0 -18.65 12.0 M-19.9 10.55 L-20.8 11.35 Q-20.15 11.95 -19.15 12.0 L-19.6 12.2 Q-20.75 12.2 -21.15 11.65 L-21.35 10.95 -21.35 10.85 -21.2 10.35 -20.95 10.05 Q-20.45 9.7 -19.5 10.4 L-19.8 10.55 -19.9 10.55 M-12.55 8.95 L-12.25 8.7 -12.3 8.6 -12.1 8.6 -11.95 8.65 -11.95 8.55 -11.85 8.55 -11.8 8.65 -11.75 8.6 -11.8 8.65 -11.7 8.7 -11.7 8.85 -11.75 8.85 -11.7 8.95 -11.75 9.3 -11.8 9.35 -11.85 9.35 -11.85 9.25 -11.9 8.9 -12.0 8.9 -13.25 10.35 -12.95 9.3 -12.75 9.1 -12.75 9.05 -12.55 8.95 M-14.75 12.75 L-16.6 14.15 -16.85 14.25 -16.9 14.1 -16.65 13.7 -16.9 13.85 -16.95 13.85 -16.9 13.8 -16.55 13.5 -16.4 13.1 Q-16.2 12.7 -15.7 12.6 L-15.8 12.55 -15.8 12.4 -14.95 12.5 -14.3 12.7 -14.6 12.8 -14.75 12.75 M-14.5 13.9 L-16.3 14.35 -16.75 14.25 -14.55 13.8 Q-13.8 13.6 -14.5 13.9 M-14.8 14.8 L-14.0 15.0 -13.15 14.7 -13.15 14.75 -13.25 15.0 -13.75 15.2 -13.9 15.2 -15.05 14.95 -14.8 14.8 M-13.8 15.55 L-13.85 15.65 -13.55 15.45 -14.05 16.0 -14.25 16.1 -14.35 16.1 -14.7 16.0 -14.8 16.0 -15.55 15.85 -15.9 16.05 -16.05 16.2 -15.95 16.2 -16.25 16.6 -16.1 17.0 -16.15 17.05 -15.95 17.2 -15.85 17.2 -15.45 17.45 -15.9 17.25 -16.3 17.35 -17.35 17.05 -17.55 17.0 -17.8 16.6 -17.7 16.55 -17.5 16.6 -17.4 16.6 -16.75 16.65 -16.65 16.6 -16.6 16.6 -16.6 16.5 -16.4 16.0 -16.05 15.7 -16.0 15.65 -15.75 15.7 -15.45 15.55 -15.05 15.55 -14.85 15.65 -14.55 15.6 -13.8 15.55 M-14.05 18.1 L-13.45 18.25 -13.4 18.6 -13.4 18.7 -13.4 18.75 -13.55 19.15 -14.05 19.95 -13.85 20.25 -13.45 20.45 -13.8 20.5 Q-14.35 20.4 -14.35 19.95 L-14.05 19.35 -14.0 19.3 -14.05 18.8 -14.05 19.25 -15.1 18.8 -15.35 18.9 -15.6 19.1 -15.55 19.1 -15.85 19.6 -15.3 20.7 -15.5 21.15 -16.15 21.55 -15.8 21.1 -15.5 20.7 -15.7 20.15 -15.95 19.65 -16.25 20.0 -16.85 20.5 -16.95 20.75 -16.8 21.1 -16.15 21.45 -16.95 21.45 -17.25 20.75 -16.9 20.05 -16.75 19.9 -16.8 19.6 Q-16.9 19.25 -17.5 19.15 L-17.7 19.25 -17.6 19.65 -17.65 20.0 -17.7 20.05 -17.9 19.15 -17.8 19.15 -17.5 18.85 -17.35 18.8 -17.3 18.8 -16.65 18.85 -16.5 18.9 -16.35 18.95 -16.05 19.15 -15.8 18.85 -15.4 18.5 Q-14.75 18.1 -14.05 18.1 M-19.5 18.55 L-19.55 18.65 -19.95 18.25 -20.3 18.3 -20.75 18.75 -20.8 18.8 -20.9 19.3 -20.65 20.0 -20.75 20.05 -20.95 19.65 -20.95 19.8 -21.05 19.85 -21.2 19.65 Q-21.6 19.35 -21.6 18.9 L-21.45 18.4 -21.3 18.2 -21.1 18.0 -20.9 17.9 -20.85 17.85 -20.65 17.75 -20.2 17.7 Q-20.0 17.75 -19.85 17.9 L-19.7 18.15 -19.5 18.55 M-4.9 16.05 L-4.7 16.05 -5.8 16.4 -8.45 17.55 -7.0 16.35 Q-6.5 15.95 -5.65 15.95 L-4.65 15.85 -4.25 16.05 -4.7 16.0 -4.9 16.05 M-4.25 16.5 L-4.45 16.65 -5.15 17.55 Q-5.65 18.25 -5.7 19.8 L-5.7 18.75 -5.75 18.8 -5.8 18.85 -5.85 18.8 -6.05 18.6 -6.25 18.4 -6.35 18.25 -7.1 18.0 -7.25 17.95 -7.35 17.95 -7.0 17.65 -6.2 16.95 Q-5.55 16.6 -4.85 16.55 L-4.15 16.3 -4.65 16.5 -4.4 16.5 -4.25 16.5 M-9.4 17.05 L-8.95 16.8 -9.05 17.3 -9.25 18.2 Q-9.35 18.6 -8.85 19.2 -9.8 18.9 -9.8 18.3 L-9.55 17.35 -9.5 17.25 -9.4 17.05 M-0.65 19.7 L-0.65 19.75 -0.65 20.0 -0.9 20.35 -1.8 20.85 -2.0 20.7 -1.85 20.65 -2.15 20.7 -2.45 20.65 Q-1.2 20.55 -1.4 19.9 L-1.85 19.2 -1.4 19.35 -0.95 19.5 -0.7 19.7 -0.65 19.7 M-21.7 2.55 Q-21.35 2.55 -21.25 2.8 L-21.35 2.8 -20.95 3.25 -20.35 4.4 -20.4 4.45 Q-20.85 3.65 -21.6 2.95 L-21.75 3.95 -21.85 3.95 -21.85 2.9 -21.8 2.8 -21.85 2.75 -21.75 2.7 -21.7 2.55" fill="#ffc6c6" fill-rule="evenodd" stroke="none"/>
      <path d="M43.15 2.5 L43.2 2.7 43.0 3.35 43.2 3.8 43.35 3.8 42.5 3.9 41.95 3.9 Q41.5 3.45 41.5 3.05 41.5 2.75 42.1 2.45 L42.4 2.4 43.1 2.4 43.15 2.5 M45.05 0.2 L45.25 0.15 45.4 0.1 Q46.0 0.1 46.0 0.9 46.0 1.85 43.6 2.35 L43.3 2.05 Q42.7 1.6 43.6 1.0 L44.9 0.25 45.05 0.2 M40.6 13.7 L41.35 13.65 Q40.75 13.7 40.35 14.55 39.9 15.4 39.3 15.2 L39.95 14.4 40.45 13.9 40.6 13.7 M40.4 5.3 Q40.4 6.15 40.0 6.5 L40.0 7.0 37.4 6.9 Q37.65 6.25 38.5 5.6 39.55 4.8 40.3 4.8 L40.4 5.3 M34.6 12.05 L34.8 12.25 35.35 12.65 33.6 12.2 Q33.75 11.85 34.2 11.8 L34.6 12.05 M39.65 7.8 L39.25 7.8 38.2 8.0 Q37.65 8.0 37.45 7.8 L37.3 7.45 37.3 7.25 38.25 7.45 39.65 7.8 M36.9 9.5 Q36.2 9.0 36.9 8.5 37.9 8.75 38.2 9.25 L38.75 9.85 37.7 9.75 36.9 9.5 M30.2 14.6 L31.1 14.8 31.95 14.6 33.6 14.2 34.1 14.25 Q33.55 14.35 32.8 15.35 32.05 16.3 30.85 16.0 29.6 15.7 29.9 15.4 L30.2 14.65 30.2 14.6 M24.9 21.55 Q24.9 20.7 26.45 20.7 27.05 20.7 27.25 20.95 L27.3 21.2 27.05 21.85 26.8 22.55 Q26.8 22.9 27.15 23.1 L26.25 22.5 Q25.6 21.8 25.25 21.8 L25.0 21.9 24.9 21.6 24.9 21.55 M24.85 19.8 L25.0 20.2 24.95 20.4 24.75 20.6 23.9 21.2 Q23.2 21.65 22.95 22.25 L23.0 21.45 Q23.0 20.5 22.35 20.5 L22.3 20.5 22.3 20.35 Q22.45 19.0 23.4 19.0 L23.6 19.0 Q24.15 19.05 24.6 19.5 L24.85 19.8 M21.6 19.65 L21.15 20.5 20.6 19.4 20.95 19.2 21.55 19.4 21.6 19.65 M29.6 20.8 Q30.7 20.8 30.7 21.4 L30.4 22.0 30.1 22.6 29.4 22.0 29.2 22.0 29.05 21.85 28.6 21.15 Q28.6 20.85 29.1 20.8 L29.6 20.8 M38.1 13.55 Q38.75 12.9 39.45 12.85 39.05 13.05 38.95 13.5 L39.0 15.2 38.3 15.7 37.8 15.7 37.85 15.6 38.3 15.15 Q38.7 14.9 38.7 14.5 38.7 14.05 38.3 13.7 L38.1 13.55 M35.65 14.85 L35.5 15.05 Q35.6 14.2 35.3 14.2 L34.6 14.2 Q35.1 13.75 35.95 13.5 L37.0 13.3 37.5 13.4 Q36.8 13.45 35.65 14.85 M37.5 18.2 L37.8 18.1 38.35 18.4 39.15 18.7 39.85 18.55 Q39.8 18.75 38.85 18.95 L38.3 19.3 38.35 19.4 38.1 19.2 37.1 18.6 37.35 18.3 37.4 18.3 37.5 18.2 M35.45 15.15 L34.3 16.3 34.0 16.2 Q34.05 15.65 34.45 15.45 L35.45 15.15 M33.7 20.5 L33.85 20.6 Q34.2 20.9 34.2 21.45 L32.95 23.15 Q31.75 22.2 31.1 22.15 31.1 20.3 32.6 20.3 L33.4 20.4 33.7 20.5 M36.9 21.1 L35.55 20.85 34.85 20.55 Q34.9 19.9 35.7 19.9 L35.85 19.95 36.45 20.6 36.9 21.1 M14.15 10.9 L14.3 10.9 Q14.9 10.95 15.1 11.3 15.3 11.7 15.1 12.1 L13.15 11.25 Q13.5 10.9 14.15 10.9 M15.85 12.1 L16.55 12.2 17.3 12.4 17.7 12.75 17.7 12.8 17.5 13.25 16.85 13.85 Q16.0 14.55 16.0 14.95 L16.05 15.3 15.9 15.15 15.7 14.8 Q15.7 14.45 16.05 13.95 L16.4 13.15 16.15 12.6 15.55 12.2 15.85 12.1 M6.5 5.1 L6.55 4.9 7.05 4.2 7.2 4.15 Q7.7 4.0 7.8 5.1 L7.9 5.1 Q7.2 5.25 7.3 5.8 6.35 5.8 6.5 5.1 M2.8 8.4 Q3.0 8.0 3.35 8.0 L3.45 8.05 3.7 8.3 Q3.9 8.55 3.45 8.75 3.0 8.95 3.4 9.6 4.2 10.2 4.7 9.45 5.2 8.7 5.05 7.95 L4.9 7.0 Q4.9 6.65 5.3 6.4 L5.55 6.3 5.7 6.35 5.95 6.95 6.1 7.25 5.4 7.3 5.4 8.0 5.8 8.75 5.7 9.2 5.2 9.8 Q4.55 10.3 3.75 10.3 3.25 10.45 3.05 10.1 L2.5 10.5 1.9 10.4 Q0.7 10.25 -0.7 10.9 L-0.7 10.8 Q-0.65 10.05 -2.1 10.0 L-1.75 9.65 -1.55 9.55 -1.5 9.5 -0.7 9.3 -0.2 9.4 0.6 9.7 1.7 10.1 Q2.45 10.1 2.6 9.05 L2.8 8.4 M3.75 12.3 L3.85 12.45 3.95 13.5 Q4.0 14.0 4.3 14.2 3.05 13.55 2.45 13.4 L3.1 12.8 3.0 12.7 3.2 12.3 3.75 12.3 M6.8 11.15 Q7.1 11.25 7.1 11.7 L6.75 12.35 6.4 13.0 6.2 12.7 5.95 12.15 5.75 11.9 5.65 11.6 Q5.95 11.1 6.6 11.1 L6.8 11.15 M8.9 12.4 L9.3 12.8 9.4 13.0 8.8 13.7 8.6 14.55 8.6 14.6 8.25 14.15 Q8.45 14.0 8.05 13.3 7.65 12.55 8.9 12.4 M18.75 16.3 L19.35 17.1 19.5 17.7 Q19.5 18.15 18.9 18.85 18.45 19.4 18.35 19.8 L18.7 17.8 Q18.7 16.35 18.5 16.1 L18.75 16.3 M-9.65 8.7 L-9.6 9.15 -9.65 9.85 -10.2 10.5 -10.55 10.65 -10.6 10.65 -10.6 10.9 -11.15 11.05 -11.35 11.15 -11.6 11.45 Q-11.6 11.85 -11.2 12.15 -10.8 12.4 -10.8 12.9 -10.8 13.55 -11.85 13.6 L-12.4 13.55 -12.5 13.4 -12.5 13.25 -12.55 13.1 -12.65 13.0 Q-12.0 12.9 -12.0 12.35 -12.0 11.9 -12.8 11.85 -13.6 11.8 -13.6 11.15 L-13.3 9.9 -12.75 9.1 -12.75 9.05 -12.35 8.9 Q-11.8 8.9 -11.8 9.65 L-12.1 10.75 -11.9 11.05 Q-11.65 11.15 -11.55 11.2 L-11.5 11.2 -11.4 11.1 -11.4 10.1 -11.7 8.9 -11.6 8.45 -11.5 8.2 Q-11.25 7.7 -10.85 7.7 -10.45 7.7 -10.1 8.0 L-10.05 8.05 -10.0 8.1 -9.7 8.5 -9.65 8.7 M-8.2 9.5 L-7.9 9.3 -7.15 9.1 Q-6.25 9.1 -6.2 9.75 L-6.45 10.4 -6.7 11.3 Q-6.7 11.7 -5.9 12.0 L-4.95 12.2 Q-4.05 12.2 -3.25 11.45 L-4.1 10.6 -4.65 9.95 -4.7 9.75 Q-4.7 9.4 -4.15 9.4 L-3.95 9.45 Q-3.5 9.55 -3.2 10.5 -2.95 11.35 -2.25 11.5 L-3.0 11.4 -2.6 12.2 -3.6 12.8 -4.65 13.0 Q-5.4 13.0 -6.1 12.5 -6.75 12.0 -6.95 12.0 L-7.4 12.05 -8.05 12.4 -8.85 12.6 Q-10.5 12.2 -10.5 11.35 L-10.45 11.15 -9.9 11.4 -9.05 11.6 Q-8.0 11.6 -8.0 10.8 L-8.3 9.8 -8.3 9.7 -8.2 9.5 M-13.8 15.45 L-13.8 15.55 -13.95 15.75 -14.4 15.8 -15.25 15.4 -15.45 15.45 Q-15.3 15.4 -15.3 15.15 L-15.6 14.55 -15.3 14.9 -14.4 15.05 -13.9 15.25 -13.8 15.45 M-18.85 16.3 L-18.3 16.4 Q-17.8 16.55 -17.85 17.25 L-17.85 17.3 Q-17.85 17.75 -17.5 18.0 L-18.6 18.05 -19.25 18.35 -19.3 18.3 -19.5 17.5 Q-19.7 16.3 -18.85 16.3 M-11.1 17.7 L-11.1 17.55 Q-11.1 17.15 -10.55 16.9 L-10.4 16.9 -9.8 16.55 -9.4 16.5 -9.4 16.85 -9.35 17.1 Q-9.9 17.6 -9.9 18.05 L-9.4 19.0 Q-10.5 19.05 -11.65 19.55 -12.85 20.0 -13.6 20.7 L-13.5 20.4 -13.9 20.05 Q-13.85 19.4 -13.4 19.3 L-13.0 19.4 -12.85 19.4 Q-12.25 19.4 -11.6 18.9 -11.0 18.4 -11.0 18.0 L-11.0 17.9 -11.1 17.7 M-17.8 19.6 L-18.0 20.0 -18.25 20.2 -18.6 20.3 -18.7 20.3 -19.1 20.3 -19.6 19.8 -19.35 19.35 -19.2 19.15 -19.1 18.8 -19.1 18.65 -18.5 19.3 -17.95 19.15 -17.8 19.6 M-0.4 18.35 L-0.05 18.8 0.2 19.2 -0.5 19.2 -0.85 19.4 -1.0 19.4 -1.25 19.3 -1.7 19.1 -1.7 18.6 Q-1.55 18.3 -0.7 18.3 L-0.4 18.35 M-7.1 18.0 Q-6.55 18.0 -6.2 18.4 L-7.8 19.2 Q-7.7 19.05 -7.75 18.7 -7.85 18.2 -7.45 18.05 L-7.1 18.0 M-3.95 20.55 L-4.8 21.3 -5.05 21.05 -5.3 20.5 Q-5.3 19.95 -4.55 19.9 L-4.4 19.9 -3.8 19.95 -3.4 19.8 -3.95 20.55" fill="#d94949" fill-rule="evenodd" stroke="none"/>
    </g>
    <linearGradient gradientTransform="matrix(-1.0E-4, -0.0116, 0.0125, -1.0E-4, 10.9, 10.75)" gradientUnits="userSpaceOnUse" id="gradient0" spreadMethod="pad" x1="-819.2" x2="819.2">
      <stop offset="0.0" stop-color="#5e4b95"/>
      <stop offset="1.0" stop-color="#8567de"/>
    </linearGradient>
    <linearGradient gradientTransform="matrix(2.0E-4, 0.0, 0.0, 1.0E-4, 19.6, 1.75)" gradientUnits="userSpaceOnUse" id="gradient1" spreadMethod="pad" x1="-819.2" x2="819.2">
      <stop offset="0.0" stop-color="#5e4b95"/>
      <stop offset="1.0" stop-color="#8567de"/>
    </linearGradient>
    <linearGradient gradientTransform="matrix(0.0, 0.0, 0.0, 0.0, 19.75, 1.55)" gradientUnits="userSpaceOnUse" id="gradient2" spreadMethod="pad" x1="-819.2" x2="819.2">
      <stop offset="0.0" stop-color="#5e4b95"/>
      <stop offset="1.0" stop-color="#8567de"/>
    </linearGradient>
    <linearGradient gradientTransform="matrix(0.0029, 0.0, 0.0, 0.0049, 14.1, 6.95)" gradientUnits="userSpaceOnUse" id="gradient3" spreadMethod="pad" x1="-819.2" x2="819.2">
      <stop offset="0.0" stop-color="#5e4b95"/>
      <stop offset="1.0" stop-color="#8567de"/>
    </linearGradient>
    <linearGradient gradientTransform="matrix(0.0, 0.0, 0.0, 1.0E-4, 5.7, 5.5)" gradientUnits="userSpaceOnUse" id="gradient4" spreadMethod="pad" x1="-819.2" x2="819.2">
      <stop offset="0.0" stop-color="#5e4b95"/>
      <stop offset="1.0" stop-color="#8567de"/>
    </linearGradient>
    <linearGradient gradientTransform="matrix(1.0E-4, 0.0, 0.0, 2.0E-4, 6.1, 5.5)" gradientUnits="userSpaceOnUse" id="gradient5" spreadMethod="pad" x1="-819.2" x2="819.2">
      <stop offset="0.0" stop-color="#5e4b95"/>
      <stop offset="1.0" stop-color="#8567de"/>
    </linearGradient>
    <linearGradient gradientTransform="matrix(1.0E-4, 0.0, 0.0, 1.0E-4, 5.3, 5.3)" gradientUnits="userSpaceOnUse" id="gradient6" spreadMethod="pad" x1="-819.2" x2="819.2">
      <stop offset="0.0" stop-color="#5e4b95"/>
      <stop offset="1.0" stop-color="#8567de"/>
    </linearGradient>
    <linearGradient gradientTransform="matrix(0.0038, 0.0, 0.0, 0.0038, 9.7, 7.05)" gradientUnits="userSpaceOnUse" id="gradient7" spreadMethod="pad" x1="-819.2" x2="819.2">
      <stop offset="0.0" stop-color="#5e4b95"/>
      <stop offset="1.0" stop-color="#8567de"/>
    </linearGradient>
    <linearGradient gradientTransform="matrix(4.0E-4, 0.0, 0.0, 3.0E-4, 40.6, 4.25)" gradientUnits="userSpaceOnUse" id="gradient8" spreadMethod="pad" x1="-819.2" x2="819.2">
      <stop offset="0.0" stop-color="#fc6161"/>
      <stop offset="0.6039215686274509" stop-color="#ffffff"/>
    </linearGradient>
    <linearGradient gradientTransform="matrix(3.0E-4, 0.0, 0.0, 4.0E-4, 39.95, 4.55)" gradientUnits="userSpaceOnUse" id="gradient9" spreadMethod="pad" x1="-819.2" x2="819.2">
      <stop offset="0.0" stop-color="#fc6161"/>
      <stop offset="0.6039215686274509" stop-color="#ffffff"/>
    </linearGradient>
    <linearGradient gradientTransform="matrix(0.012, 0.0, 0.0, 0.0042, 31.6, 5.4)" gradientUnits="userSpaceOnUse" id="gradient10" spreadMethod="pad" x1="-819.2" x2="819.2">
      <stop offset="0.0" stop-color="#fc6161"/>
      <stop offset="0.6039215686274509" stop-color="#ffffff"/>
    </linearGradient>
    <linearGradient gradientTransform="matrix(0.0134, 0.0, 0.0, 0.0115, 26.85, 11.15)" gradientUnits="userSpaceOnUse" id="gradient11" spreadMethod="pad" x1="-819.2" x2="819.2">
      <stop offset="0.0" stop-color="#fc6161"/>
      <stop offset="0.6039215686274509" stop-color="#ffffff"/>
    </linearGradient>
    <linearGradient gradientTransform="matrix(0.0021, 0.0, 0.0, 0.0036, 35.3, 8.5)" gradientUnits="userSpaceOnUse" id="gradient12" spreadMethod="pad" x1="-819.2" x2="819.2">
      <stop offset="0.0" stop-color="#fc6161"/>
      <stop offset="0.6039215686274509" stop-color="#ffffff"/>
    </linearGradient>
    <linearGradient gradientTransform="matrix(0.0058, 0.0, 0.0, 0.0038, 11.0, 6.15)" gradientUnits="userSpaceOnUse" id="gradient13" spreadMethod="pad" x1="-819.2" x2="819.2">
      <stop offset="0.0" stop-color="#fc6161"/>
      <stop offset="0.6039215686274509" stop-color="#ffffff"/>
    </linearGradient>
    <linearGradient gradientTransform="matrix(0.0104, 0.0, 0.0, 0.0051, -2.4, 6.45)" gradientUnits="userSpaceOnUse" id="gradient14" spreadMethod="pad" x1="-819.2" x2="819.2">
      <stop offset="0.0" stop-color="#fc6161"/>
      <stop offset="0.6039215686274509" stop-color="#ffffff"/>
    </linearGradient>
    <linearGradient gradientTransform="matrix(6.0E-4, 0.0, 0.0, 0.001, -6.5, 12.6)" gradientUnits="userSpaceOnUse" id="gradient15" spreadMethod="pad" x1="-819.2" x2="819.2">
      <stop offset="0.0" stop-color="#fc6161"/>
      <stop offset="0.6039215686274509" stop-color="#ffffff"/>
    </linearGradient>
    <linearGradient gradientTransform="matrix(0.006, 0.0, 0.0, 0.0052, -4.1, 15.3)" gradientUnits="userSpaceOnUse" id="gradient16" spreadMethod="pad" x1="-819.2" x2="819.2">
      <stop offset="0.0" stop-color="#fc6161"/>
      <stop offset="0.6039215686274509" stop-color="#ffffff"/>
    </linearGradient>
    <linearGradient gradientTransform="matrix(0.0035, 0.0, 0.0, 0.0037, -16.1, 8.4)" gradientUnits="userSpaceOnUse" id="gradient17" spreadMethod="pad" x1="-819.2" x2="819.2">
      <stop offset="0.0" stop-color="#fc6161"/>
      <stop offset="0.6039215686274509" stop-color="#ffffff"/>
    </linearGradient>
    <linearGradient gradientTransform="matrix(0.0032, 0.0, 0.0, 0.0014, -13.75, 9.65)" gradientUnits="userSpaceOnUse" id="gradient18" spreadMethod="pad" x1="-819.2" x2="819.2">
      <stop offset="0.0" stop-color="#fc6161"/>
      <stop offset="0.6039215686274509" stop-color="#ffffff"/>
    </linearGradient>
    <linearGradient gradientTransform="matrix(0.0047, 0.0, 0.0, 0.005, -12.15, 17.15)" gradientUnits="userSpaceOnUse" id="gradient19" spreadMethod="pad" x1="-819.2" x2="819.2">
      <stop offset="0.0" stop-color="#fc6161"/>
      <stop offset="0.6039215686274509" stop-color="#ffffff"/>
    </linearGradient>
  </defs>
</svg>
