<svg xmlns="http://www.w3.org/2000/svg" xmlns:ffdec="https://www.free-decompiler.com/flash" xmlns:xlink="http://www.w3.org/1999/xlink" ffdec:objectType="frame" width="20.65" height="8.35"><use ffdec:characterId="1" xlink:href="#a" width="20.65" height="8.35"/><defs><g id="a" fill-rule="evenodd"><path fill="#ff7f7e" d="M18.2 6.2q-.1-.4-.05-1l2.5-1.65-.05.9-1.6 1.2zm2.45-3-.7.6-2 1.25-.3-2.2q-.1-1.35.2-2.6h2.7l.1 2.3zM1.3 4.15 0 3.2v-.65L.15.3 2.6.25q.25 2.35.05 4.8zm.35 1.5-1.6-1.2-.05-.9 2.65 1.9-.1.6v.15z"/><path fill="#cd5c5c" d="m17.65 2.85.3 2.2-1.25.7q-1.6.85-2.85 1.15l-1.8.5q-.25-.5-.7-.9l-.1-.05-.45-.15-.35-.05q-.3-2.6 0-5.95l7.4-.05q-.3 1.25-.2 2.6M14.4 7l2.7-1.1 1.05-.7q-.05.6.05 1-1.5.9-3.2 1.35l-2.65.65-.15-.5zM3.3 5.75l1.45.65 2.1.8 1.6.5-.15.5-2.65-.65-2.4-.95-.7-.4v-.15l.1-.6zm.1-.25-.75-.45q.2-2.45-.05-4.8l7.45.05-.05 6h-.15l-.05.05-.4.1-.1.05-.7.9-1.8-.5-2.15-.75z"/><path fill="#8c2222" d="m20.5 0 .05.25-10.1.05q-.3 3.35 0 5.95l.35.05.45.15.1.05q.45.4.7.9l1.8-.5q1.25-.3 2.85-1.15l2.65-1.6 1.3-.95v.35q-1.35 1.2-3.2 2.2l-3.9 1.6-1.35.35.15.5-.6.15-.2-.15-.25-.7q-.25-.6-.8-.6h-.05l-.45.05-.2.1-.2.2-.2.35-.1.3-.05.05-.2.4-.75-.15.15-.5-1.35-.35-3.9-1.6q-1.85-1-3.2-2.2V3.2l1.3.95 2.65 1.6q1.6.85 2.85 1.15l1.8.5.7-.9.1-.05.4-.1.05-.05H10l.05-6H.15V0z"/></g></defs></svg>