<?xml version="1.0" encoding="UTF-8" standalone="no"?>
<svg xmlns:ffdec="https://www.free-decompiler.com/flash" xmlns:xlink="http://www.w3.org/1999/xlink" ffdec:objectType="frame" height="27.6px" width="20.1px" xmlns="http://www.w3.org/2000/svg">
  <g transform="matrix(1.0, 0.0, 0.0, 1.0, 0.3, -3.6)">
    <use ffdec:characterId="1" height="27.6" transform="matrix(1.0, 0.0, 0.0, 1.0, -0.3, 3.6)" width="20.1" xlink:href="#shape0"/>
  </g>
  <defs>
    <g id="shape0" transform="matrix(1.0, 0.0, 0.0, 1.0, 0.3, -3.6)">
      <path d="M2.5 20.5 L0.6 15.6 Q0.2 14.45 0.1 13.3 L-0.1 12.15 -0.3 5.0 Q-0.3 4.35 0.5 4.15 L2.9 3.7 Q19.3 3.4 19.3 4.1 20.55 10.1 18.6 16.05 L18.15 18.4 17.65 20.6 16.4 19.15 13.7 15.7 13.0 15.65 Q14.0 17.5 15.05 18.75 16.15 20.15 17.65 20.85 L17.8 21.15 17.95 21.6 17.8 22.25 Q15.05 21.25 12.8 19.4 13.75 20.65 14.85 21.45 L17.5 23.6 17.65 29.35 14.85 30.2 9.5 31.2 9.4 31.2 9.1 30.35 Q8.4 28.45 7.35 26.5 L5.25 22.7 Q4.35 20.95 3.8 18.85 L3.45 17.35 3.05 15.4 3.0 14.95 2.55 11.4 2.6 4.85 2.35 4.25 2.55 11.4 2.45 13.2 2.85 16.2 2.2 19.1 3.05 17.2 3.2 17.65 3.35 18.2 Q4.0 20.55 5.05 22.9 L6.3 25.7 5.85 28.75 5.65 29.55 4.4 29.25 3.65 29.1 3.45 27.75 3.1 25.05 3.75 23.2 3.8 21.75 Q3.8 20.5 3.45 21.25 L3.25 21.5 2.7 22.55 2.7 22.5 Q2.4 21.75 2.55 20.95 L2.6 20.75 3.3 19.25 3.1 18.35 3.1 18.45 2.5 20.5 M8.4 30.35 L8.25 30.3 6.6 29.8 7.4 28.45 7.5 28.4 8.15 29.9 8.4 30.35 M8.25 16.7 L8.3 16.6 8.7 16.9 8.75 16.9 Q9.15 17.8 10.3 18.35 L12.45 19.3 Q12.05 18.9 12.05 18.2 L11.95 17.75 11.95 17.6 Q12.45 17.3 13.15 17.25 L13.6 17.25 12.85 15.95 12.8 15.9 9.55 15.25 Q8.35 13.2 6.5 12.35 L5.55 12.45 Q5.1 13.9 3.75 14.55 3.35 14.7 3.45 14.75 L3.85 14.85 3.35 15.25 6.1 17.95 9.1 20.1 Q8.7 19.3 8.4 18.1 8.2 17.4 8.25 16.7 M15.7 15.35 L14.7 15.85 16.45 17.95 16.5 18.0 15.85 15.5 15.7 15.35" fill="url(#gradient0)" fill-rule="evenodd" stroke="none"/>
      <path d="M2.35 4.25 L2.6 4.85 2.55 11.4 2.35 4.25" fill="url(#gradient1)" fill-rule="evenodd" stroke="none"/>
      <path d="M17.65 20.6 L17.6 20.65 17.65 20.85 Q16.15 20.15 15.05 18.75 14.0 17.5 13.0 15.65 L13.7 15.7 16.4 19.15 17.65 20.6 M17.8 22.25 L17.7 22.4 17.5 23.4 17.5 23.6 14.85 21.45 Q13.75 20.65 12.8 19.4 15.05 21.25 17.8 22.25 M9.4 31.2 L9.15 31.0 9.1 30.7 Q9.05 30.55 8.4 30.35 L8.15 29.9 7.5 28.4 7.4 28.45 6.6 29.8 5.65 29.55 5.85 28.75 6.3 25.7 5.05 22.9 Q4.0 20.55 3.35 18.2 L3.2 17.65 3.05 17.2 2.2 19.1 2.85 16.2 2.45 13.2 2.55 11.4 3.0 14.95 3.05 15.4 3.45 17.35 3.8 18.85 Q4.35 20.95 5.25 22.7 L7.35 26.5 Q8.4 28.45 9.1 30.35 L9.4 31.2 M3.1 25.05 L2.95 23.25 2.7 22.55 3.25 21.5 3.45 21.25 Q3.8 20.5 3.8 21.75 L3.75 23.2 3.1 25.05 M2.6 20.75 L2.5 20.5 3.1 18.45 3.1 18.35 3.3 19.25 2.6 20.75 M8.25 16.7 Q8.2 17.4 8.4 18.1 8.7 19.3 9.1 20.1 L6.1 17.95 3.35 15.25 3.85 14.85 3.45 14.75 Q3.35 14.7 3.75 14.55 5.1 13.9 5.55 12.45 L6.5 12.35 Q8.35 13.2 9.55 15.25 L12.8 15.9 12.85 15.95 13.6 17.25 13.15 17.25 Q12.45 17.3 11.95 17.6 L11.95 17.75 12.05 18.2 Q12.05 18.9 12.45 19.3 L10.3 18.35 Q9.15 17.8 8.75 16.9 L8.7 16.9 8.3 16.6 8.25 16.7 M15.7 15.35 L15.85 15.5 16.5 18.0 16.45 17.95 14.7 15.85 15.7 15.35" fill="url(#gradient2)" fill-rule="evenodd" stroke="none"/>
    </g>
    <radialGradient cx="0" cy="0" gradientTransform="matrix(0.0178, 0.0, 0.0, 0.0186, 9.55, 19.55)" gradientUnits="userSpaceOnUse" id="gradient0" r="819.2" spreadMethod="pad">
      <stop offset="0.0" stop-color="#2c0000"/>
      <stop offset="0.9058823529411765" stop-color="#662121"/>
    </radialGradient>
    <radialGradient cx="0" cy="0" gradientTransform="matrix(0.0178, 0.0, 0.0, 0.0186, 9.55, 19.55)" gradientUnits="userSpaceOnUse" id="gradient1" r="819.2" spreadMethod="pad">
      <stop offset="0.0" stop-color="#2c0000"/>
      <stop offset="0.7843137254901961" stop-color="#8a3030"/>
    </radialGradient>
    <radialGradient cx="0" cy="0" gradientTransform="matrix(0.0178, 0.0, 0.0, 0.0186, 9.55, 19.55)" gradientUnits="userSpaceOnUse" id="gradient2" r="819.2" spreadMethod="pad">
      <stop offset="0.0" stop-color="#150000"/>
      <stop offset="1.0" stop-color="#410d0d"/>
    </radialGradient>
  </defs>
</svg>
