<svg xmlns="http://www.w3.org/2000/svg" xmlns:ffdec="https://www.free-decompiler.com/flash" xmlns:xlink="http://www.w3.org/1999/xlink" ffdec:objectType="frame" width="53.9" height="37.1"><use ffdec:characterId="1" xlink:href="#a" width="53.9" height="37.1"/><defs><radialGradient id="b" cx="0" cy="0" r="819.2" gradientTransform="translate(24.9 7)scale(.0002)" gradientUnits="userSpaceOnUse" spreadMethod="pad"><stop offset="0" stop-color="#f0dfcf"/><stop offset="1" stop-color="#9a938c"/></radialGradient><radialGradient id="c" cx="0" cy="0" r="819.2" gradientTransform="matrix(.0244 0 0 .0194 24.85 19.35)" gradientUnits="userSpaceOnUse" spreadMethod="pad"><stop offset="0" stop-color="#f3ede8"/><stop offset="1" stop-color="#f0d2b5"/></radialGradient><radialGradient id="d" cx="0" cy="0" r="819.2" gradientTransform="translate(-9 16.8)scale(.0153)" gradientUnits="userSpaceOnUse" spreadMethod="pad"><stop offset="0" stop-color="#f3ede8"/><stop offset="1" stop-color="#f0d2b5"/></radialGradient><radialGradient id="e" cx="0" cy="0" r="819.2" gradientTransform="matrix(.0268 .0082 -.0025 .0081 -9.6 27.25)" gradientUnits="userSpaceOnUse" spreadMethod="pad"><stop offset="0" stop-color="#f0dfcf"/><stop offset="1" stop-color="#9a938c"/></radialGradient><radialGradient id="f" cx="0" cy="0" r="819.2" gradientTransform="matrix(.0383 -.0082 .0032 .015 21.95 28.15)" gradientUnits="userSpaceOnUse" spreadMethod="pad"><stop offset="0" stop-color="#f0dfcf"/><stop offset="1" stop-color="#9a938c"/></radialGradient><radialGradient id="g" cx="0" cy="0" r="819.2" gradientTransform="translate(12.1 .6)scale(.0176)" gradientUnits="userSpaceOnUse" spreadMethod="pad"><stop offset="0" stop-color="#9a5718"/><stop offset="1" stop-color="#69390c"/></radialGradient><radialGradient id="h" cx="0" cy="0" r="819.2" gradientTransform="translate(26.3 9.9)scale(.0047)" gradientUnits="userSpaceOnUse" spreadMethod="pad"><stop offset="0" stop-color="#d0bfba"/><stop offset="1" stop-color="#e9ae9c"/></radialGradient><radialGradient id="i" cx="0" cy="0" r="819.2" gradientTransform="translate(30.4 19.4)scale(.0094)" gradientUnits="userSpaceOnUse" spreadMethod="pad"><stop offset="0" stop-color="#d0bfba"/><stop offset="1" stop-color="#e9ae9c"/></radialGradient><radialGradient id="j" cx="0" cy="0" r="819.2" gradientTransform="translate(27.8 20.15)scale(.0096)" gradientUnits="userSpaceOnUse" spreadMethod="pad"><stop offset="0" stop-color="#d0bfba"/><stop offset="1" stop-color="#e9ae9c"/></radialGradient><radialGradient id="k" cx="0" cy="0" r="819.2" gradientTransform="translate(24.5 20.95)scale(.0093)" gradientUnits="userSpaceOnUse" spreadMethod="pad"><stop offset="0" stop-color="#d0bfba"/><stop offset="1" stop-color="#e9ae9c"/></radialGradient><radialGradient id="l" cx="0" cy="0" r="819.2" gradientTransform="translate(21 21.8)scale(.0096)" gradientUnits="userSpaceOnUse" spreadMethod="pad"><stop offset="0" stop-color="#d0bfba"/><stop offset="1" stop-color="#e9ae9c"/></radialGradient><radialGradient id="m" cx="0" cy="0" r="819.2" gradientTransform="translate(10.05 22.5)scale(.0096)" gradientUnits="userSpaceOnUse" spreadMethod="pad"><stop offset="0" stop-color="#d0bfba"/><stop offset="1" stop-color="#e9ae9c"/></radialGradient><radialGradient id="n" cx="0" cy="0" r="819.2" gradientTransform="translate(17.35 22.15)scale(.0095)" gradientUnits="userSpaceOnUse" spreadMethod="pad"><stop offset="0" stop-color="#d0bfba"/><stop offset="1" stop-color="#e9ae9c"/></radialGradient><radialGradient id="o" cx="0" cy="0" r="819.2" gradientTransform="translate(13.65 22.2)scale(.0096)" gradientUnits="userSpaceOnUse" spreadMethod="pad"><stop offset="0" stop-color="#d0bfba"/><stop offset="1" stop-color="#e9ae9c"/></radialGradient><radialGradient id="p" cx="0" cy="0" r="819.2" gradientTransform="translate(-3.7 21.45)scale(.0096)" gradientUnits="userSpaceOnUse" spreadMethod="pad"><stop offset="0" stop-color="#d0bfba"/><stop offset="1" stop-color="#e9ae9c"/></radialGradient><radialGradient id="q" cx="0" cy="0" r="819.2" gradientTransform="translate(.1 10.55)scale(.0056)" gradientUnits="userSpaceOnUse" spreadMethod="pad"><stop offset="0" stop-color="#d0bfba"/><stop offset="1" stop-color="#e9ae9c"/></radialGradient><radialGradient id="r" cx="0" cy="0" r="819.2" gradientTransform="translate(-4.1 9.15)scale(.006)" gradientUnits="userSpaceOnUse" spreadMethod="pad"><stop offset="0" stop-color="#d0bfba"/><stop offset="1" stop-color="#e9ae9c"/></radialGradient><radialGradient id="s" cx="0" cy="0" r="819.2" gradientTransform="translate(-9.7 19.5)scale(.0096)" gradientUnits="userSpaceOnUse" spreadMethod="pad"><stop offset="0" stop-color="#d0bfba"/><stop offset="1" stop-color="#e9ae9c"/></radialGradient><radialGradient id="t" cx="0" cy="0" r="819.2" gradientTransform="translate(-1.85 9.9)scale(.0059)" gradientUnits="userSpaceOnUse" spreadMethod="pad"><stop offset="0" stop-color="#d0bfba"/><stop offset="1" stop-color="#e9ae9c"/></radialGradient><radialGradient id="u" cx="0" cy="0" r="819.2" gradientTransform="translate(-6.8 20.6)scale(.0093)" gradientUnits="userSpaceOnUse" spreadMethod="pad"><stop offset="0" stop-color="#d0bfba"/><stop offset="1" stop-color="#e9ae9c"/></radialGradient><radialGradient id="v" cx="0" cy="0" r="819.2" gradientTransform="matrix(.0192 0 0 .0151 20.35 24.1)" gradientUnits="userSpaceOnUse" spreadMethod="pad"><stop offset="0" stop-color="#a6857b"/><stop offset="1" stop-color="#e2a491"/></radialGradient><radialGradient id="w" cx="0" cy="0" r="819.2" gradientTransform="translate(-7.75 22.45)scale(.0067)" gradientUnits="userSpaceOnUse" spreadMethod="pad"><stop offset="0" stop-color="#a6857b"/><stop offset="1" stop-color="#e2a491"/></radialGradient><radialGradient id="x" cx="0" cy="0" r="819.2" gradientTransform="translate(16.7 11)scale(.0175)" gradientUnits="userSpaceOnUse" spreadMethod="pad"><stop offset="0" stop-color="#9a5718"/><stop offset="1" stop-color="#80460f"/></radialGradient><radialGradient id="y" cx="0" cy="0" r="819.2" gradientTransform="translate(25.3 15.95)scale(.0062)" gradientUnits="userSpaceOnUse" spreadMethod="pad"><stop offset="0" stop-color="#8c3c3c"/><stop offset="1" stop-color="#632424"/></radialGradient><radialGradient id="z" cx="0" cy="0" r="819.2" gradientTransform="translate(25.85 14.25)scale(.0058)" gradientUnits="userSpaceOnUse" spreadMethod="pad"><stop offset="0" stop-color="#8c3c3c"/><stop offset="1" stop-color="#632424"/></radialGradient><radialGradient id="A" cx="0" cy="0" r="819.2" gradientTransform="translate(23.6 17.5)scale(.0064)" gradientUnits="userSpaceOnUse" spreadMethod="pad"><stop offset="0" stop-color="#8c3c3c"/><stop offset="1" stop-color="#632424"/></radialGradient><radialGradient id="B" cx="0" cy="0" r="819.2" gradientTransform="translate(21.3 18.9)scale(.0054)" gradientUnits="userSpaceOnUse" spreadMethod="pad"><stop offset="0" stop-color="#8c3c3c"/><stop offset="1" stop-color="#632424"/></radialGradient><radialGradient id="C" cx="0" cy="0" r="819.2" gradientTransform="translate(10.75 15.05)scale(.0077)" gradientUnits="userSpaceOnUse" spreadMethod="pad"><stop offset="0" stop-color="#8c3c3c"/><stop offset="1" stop-color="#632424"/></radialGradient><radialGradient id="D" cx="0" cy="0" r="819.2" gradientTransform="translate(16.55 19.5)scale(.0059)" gradientUnits="userSpaceOnUse" spreadMethod="pad"><stop offset="0" stop-color="#8c3c3c"/><stop offset="1" stop-color="#632424"/></radialGradient><radialGradient id="E" cx="0" cy="0" r="819.2" gradientTransform="translate(19.25 19.5)scale(.0057)" gradientUnits="userSpaceOnUse" spreadMethod="pad"><stop offset="0" stop-color="#8c3c3c"/><stop offset="1" stop-color="#632424"/></radialGradient><radialGradient id="F" cx="0" cy="0" r="819.2" gradientTransform="translate(13.4 17.75)scale(.007)" gradientUnits="userSpaceOnUse" spreadMethod="pad"><stop offset="0" stop-color="#8c3c3c"/><stop offset="1" stop-color="#632424"/></radialGradient><linearGradient id="G" x1="-819.2" x2="819.2" gradientTransform="matrix(.0002 -.0055 .0034 .0001 5.9 9.7)" gradientUnits="userSpaceOnUse" spreadMethod="pad"><stop offset="0" stop-color="#ffe9e9"/><stop offset="1" stop-color="#eec0c0"/></linearGradient><linearGradient id="H" x1="-819.2" x2="819.2" gradientTransform="matrix(.0024 0 0 .0027 .25 8.65)" gradientUnits="userSpaceOnUse" spreadMethod="pad"><stop offset="0" stop-color="#ffe9e9"/><stop offset="1" stop-color="#eec0c0"/></linearGradient><linearGradient id="I" x1="-819.2" x2="819.2" gradientTransform="matrix(.0044 0 0 .0031 -3.7 7.55)" gradientUnits="userSpaceOnUse" spreadMethod="pad"><stop offset="0" stop-color="#ffe9e9"/><stop offset="1" stop-color="#eec0c0"/></linearGradient><linearGradient id="J" x1="-819.2" x2="819.2" gradientTransform="matrix(.0025 0 0 .0021 25.4 7)" gradientUnits="userSpaceOnUse" spreadMethod="pad"><stop offset="0" stop-color="#ffe9e9"/><stop offset="1" stop-color="#eec0c0"/></linearGradient><linearGradient id="K" x1="-819.2" x2="819.2" gradientTransform="matrix(-.003 .0005 0 .0023 34.2 29.4)" gradientUnits="userSpaceOnUse" spreadMethod="pad"><stop offset="0" stop-color="#ffe9e9"/><stop offset="1" stop-color="#eec0c0"/></linearGradient><linearGradient id="L" x1="-819.2" x2="819.2" gradientTransform="matrix(-.0017 .0003 0 .0019 31.45 30.65)" gradientUnits="userSpaceOnUse" spreadMethod="pad"><stop offset="0" stop-color="#ffe9e9"/><stop offset="1" stop-color="#eec0c0"/></linearGradient><linearGradient id="M" x1="-819.2" x2="819.2" gradientTransform="matrix(-.0002 -.004 -.0023 .0005 27.6 32.2)" gradientUnits="userSpaceOnUse" spreadMethod="pad"><stop offset="0" stop-color="#ffe9e9"/><stop offset="1" stop-color="#eec0c0"/></linearGradient><linearGradient id="N" x1="-819.2" x2="819.2" gradientTransform="matrix(-.0012 -.0038 .0023 -.0004 23.3 33.05)" gradientUnits="userSpaceOnUse" spreadMethod="pad"><stop offset="0" stop-color="#ffe9e9"/><stop offset="1" stop-color="#eec0c0"/></linearGradient><linearGradient id="O" x1="-819.2" x2="819.2" gradientTransform="matrix(.0013 -.0045 -.0023 -.0005 15.75 33.7)" gradientUnits="userSpaceOnUse" spreadMethod="pad"><stop offset="0" stop-color="#ffe9e9"/><stop offset="1" stop-color="#eec0c0"/></linearGradient><linearGradient id="P" x1="-819.2" x2="819.2" gradientTransform="matrix(-.0017 -.0004 -.0007 .0021 19.95 33.7)" gradientUnits="userSpaceOnUse" spreadMethod="pad"><stop offset="0" stop-color="#ffe9e9"/><stop offset="1" stop-color="#eec0c0"/></linearGradient><linearGradient id="Q" x1="-819.2" x2="819.2" gradientTransform="matrix(-.003 -.0007 -.0008 .0025 22.9 33.55)" gradientUnits="userSpaceOnUse" spreadMethod="pad"><stop offset="0" stop-color="#ffe9e9"/><stop offset="1" stop-color="#eec0c0"/></linearGradient><linearGradient id="R" x1="-819.2" x2="819.2" gradientTransform="matrix(.002 -.0035 -.0022 -.0008 12.55 33.3)" gradientUnits="userSpaceOnUse" spreadMethod="pad"><stop offset="0" stop-color="#ffe9e9"/><stop offset="1" stop-color="#eec0c0"/></linearGradient><linearGradient id="S" x1="-819.2" x2="819.2" gradientTransform="matrix(-.0028 -.0011 -.0012 .002 19.6 34.35)" gradientUnits="userSpaceOnUse" spreadMethod="pad"><stop offset="0" stop-color="#ffe9e9"/><stop offset="1" stop-color="#eec0c0"/></linearGradient><linearGradient id="T" x1="-819.2" x2="819.2" gradientTransform="matrix(-.0016 -.0006 -.001 .0016 16.7 34)" gradientUnits="userSpaceOnUse" spreadMethod="pad"><stop offset="0" stop-color="#ffe9e9"/><stop offset="1" stop-color="#eec0c0"/></linearGradient><linearGradient id="U" x1="-819.2" x2="819.2" gradientTransform="matrix(.0002 -.004 .0023 .0005 -8.35 31.35)" gradientUnits="userSpaceOnUse" spreadMethod="pad"><stop offset="0" stop-color="#ffe9e9"/><stop offset="1" stop-color="#eec0c0"/></linearGradient><linearGradient id="V" x1="-819.2" x2="819.2" gradientTransform="matrix(.003 .0006 -.0001 .0023 -14.9 28.45)" gradientUnits="userSpaceOnUse" spreadMethod="pad"><stop offset="0" stop-color="#ffe9e9"/><stop offset="1" stop-color="#eec0c0"/></linearGradient><linearGradient id="W" x1="-819.2" x2="819.2" gradientTransform="matrix(.0017 .0003 -.0001 .0019 -12.2 29.75)" gradientUnits="userSpaceOnUse" spreadMethod="pad"><stop offset="0" stop-color="#ffe9e9"/><stop offset="1" stop-color="#eec0c0"/></linearGradient><g id="a" fill-rule="evenodd"><path fill="url(#b)" d="M24.85 6.95V6.9l.1.2z" transform="translate(17.3 1.05)"/><path fill="url(#c)" d="m9.8 29.15-.75-4.55-.9-8.9q1.85 1.1 3.45 1.55l2.15.45 1.05.1h3.05q2.55-.1 5.25-2 2.7-1.95 2.7-5.4 0-1.3-.6-2.85l-.05-.15 3.75 8.3 3.6 7.95.65 1.55q.1.9-4.5 2.4-4.6 1.45-9.5 1.95z" transform="translate(17.3 1.05)"/><path fill="url(#d)" d="m-13.65 24.45 4.45-8.85.3-.55 5.55-9.7Q-2.5 5.9-.6 6.5l1.4.45.4.1h-.05l-.15.1.35-.05-.25.75Q.6 9.15-.4 12.6l-1.45 4.9-1.8 5.65q-.8 2.95-.75 5.15v.1q-2.3.15-5.7-1.4-3.4-1.6-3.6-2.55z" transform="translate(17.3 1.05)"/><path fill="url(#e)" d="M-13.65 24.45h-.05q.2.95 3.6 2.55 3.4 1.55 5.7 1.4-.8 1.65-.6 1.85l-.55-.05-4.45-1.25q-3.15-1.15-4.5-2.8l.8-1.8z" transform="translate(17.3 1.05)"/><path fill="url(#f)" d="m33.15 25.2.85 2.3q-.05.4-3.1 1.6l-5.65 1.75-5.95.9-9.35-.25-.15-2.35 9.35.4q4.9-.5 9.5-1.95 4.6-1.5 4.5-2.4" transform="translate(17.3 1.05)"/><path fill="url(#g)" d="M24.1 5.3Q22.85 6.55 18 7.25l-9.15.6-5.6-.4L1.9 7.1 1.35 7 1 7.05l.15-.1h.05l-.4-.1-1.4-.45q-1.9-.6-2.75-1.15l-.15-.1-.1-.2.3-.65L-.95-1Q-.55.45 10 .65q10.5.2 11.2-1.2l3.1 6.15z" transform="translate(17.3 1.05)"/><path fill="#461919" fill-opacity=".298" d="m45.05 13.4-.15.5.5.3.8 1.1.25 1.3-.1.3v.15q.45.05.9.8.4.7.4 1.25l-.05.45v.1l.4.4.45 1.05.05.75-.1.2-.15.3-.05-.15v-.25l-.4.5q.45.35.45 0 1.05 1 1.05 2l.1.5.35.4.3.95-.05.35q-.35.2-.15.45-1.3-.5-1.35-.9l-.05-.5q-1.1-.3-1.2-1.45-.05-1.1.35-1.35v-.05q-.3-.25-.45-.2l-.05-.05-.1-.05q-.65-.35-.7-.9-.3-.9-.05-1.7l-.25-.1-.1-.05q-.75-.45-.85-1.4v-1.1q.2-.15 0-.2l-.4-.25q-.7-.5-.65-1.4l.1-1.2-1-.65-.05-.05q-.15-.3-.15-1.25l.2-1h.3q.75.05 1.1.6l.45.8zm-1.55 2.9q.15.65-.05 1l-.2.35.15-.05.9.8.5.95-.15.8-.2.15.2.1.05.1.75.85.25.9-.25.75h-.05l-.05.05q-.15.05.3.15l.7.4q.55.5.6 1.15l-.2.7.5.2q.65.3.75 1.15l-.25.8-.05.05-.7.7-1.25-.4-.55-.9v-.45q-1.1-.35-1.2-1.5l.05-1.55.35.1.6.15.15-.7-.05-.25-.65.5-.5.1v-.05h-.1q-.65-.45-.65-1-.25-.8 0-1.65l-.25-.05v-.05q-.75-.55-.85-1.5 0-1 .15-1.1.15-.2-.05-.2l-.45-.25q-.6-.5-.55-1.5l.2-1.35.05-.3.2.1.15-.2q.7.35 1.1.9.5.45.6 1.05m-4.95-1.2.1.05.25-.15 1.05.9q.5.55.55 1.2l-.1.95-.2.35.15-.05.8.85.45.95-.15.85-.2.1.15.1.05.1.65.95.2.85-.25.75H42l-.05.05.25.15.8.45q.5.5.5 1.15l-.25.7.5.2q.65.3.65 1.2l-.25.9-.1.05-1 .8-.9-.6q-.5-.55-.5-1v-.5q-1.1-.4-1.1-1.55l.15-1.55h.15v-.1h-.25v-.05h-.15q-.6-.5-.6-1-.2-.85.1-1.65l-.2-.1-.1-.05q-.7-.55-.75-1.55.05-.9.2-1.05.2-.15 0-.2l-.45-.3q-.55-.5-.45-1.5.05-1.05.25-1.3zm-.7 7 .05.1.7.9.2.9-.3.7h-.05l-.05.05.3.15.8.45q.45.5.45 1.15l-.2.7.45.2q.7.3.7 1.25l-.25.85-.1.05q.45.85-1.8.3l-.1-.1q-.5-.55-.5-1v-.5q-1.1-.4-1.1-1.5l.15-1.6.3.2.6.15.1-.75-.05-.25-.55.5-.5.1v-.05l-.15-.05q-.6-.45-.6-1-.2-.9.1-1.65l-.2-.1-.1-.05q-.7-.55-.75-1.5.05-.95.2-1.1.2-.15 0-.2l-.45-.25q-.55-.55-.45-1.55.05-1 .25-1.3l.1-.35.1.05.25-.15 1.05.95L37 18l-.1.85-.2.4h.15l.75.85.45.95-.15.8-.2.1zm8.85 3.5.05-.15h-.05zM17.65 8.7l-.55.45q.1.35.05.95-.05.55-.45.95l-.85.65.25 1.4q-.1 1.2-1.7 1.75h.1q.45.8.05 2-.1.65-.8 1.15-.3.25-.55.3l-.15.05.15 1.6q-.05.65-.85 1.05l-.1.05-.2.1-.1 1.7q-.05.55-.75.95l-.1.05H11q.6.75.25 1.95l-1.05 1.3.05.65-.1.8q.1.15-.25.15l-1.25-.5-1.35-.6.05-.5q.15-.65 1.15-1l.15-1.6.4-.75.25-.55.05.05.3.1-.05-.4-.15-.45.3-.85.8-.9.1-.05.1-.15-.15-.1-.05-.85.6-.9.95-.8.15.1-.15-.5-.15-.65.5-1.4q.35-.55 1.3-.85v.1l.1-.05.05.05-.1-.15-.05-.05-.05-.45.15-1.05q.25-.75.95-1.1l.6-.55-.25-.4-.1-.6.55-1.25.45-.5-.05-.55.55-1 1.7.55q-.1.55-.6 1.1m15.8 10.9.75.85.4 1-.2.8-.2.1.15.15.05.05.65 1 .15.9-.35.7h-.05l-.05.05.25.2.75.45q.45.55.45 1.2l-.3.75.45.2q.65.35.6 1.2l-.3.85.05.1-.15-.05q-.6.9-1.85.15l-.1-.1q-.45-.55-.45-1l.05-.45q-1.05-.45-1-1.65l.25-1.5.05-.1h-.15v-.05l-.1-.05q-.6-.5-.55-1-.15-.9.2-1.7l-.25-.1-.05-.05q-.65-.6-.65-1.55.1-.95.25-1.05.2-.15 0-.2l-.4-.35q-.55-.55-.4-1.5l.35-1.3.1-.3.15.05.2-.15 1 1q.45.55.5 1.15l-.2.95-.2.35zm-4.55-3.55.1.05.25-.1.9 1.05q.4.6.35 1.25l-.25.9-.25.35h.15l.65.95.3 1-.25.8-.2.05.1.15.05.1.55 1.05.05.9-.4.65h-.05l-.05.05.25.2.7.55q.4.55.3 1.2l-.35.7.45.25q.6.4.45 1.3l-.35.8-1.45.35-.6-.4q-.4-.6-.35-1.05l.1-.5q-1-.55-.85-1.7l.4-1.5.25.2.6.25.25-.7v-.25l-.7.4h-.5v-.05l-.1-.05q-.55-.55-.45-1.05-.05-.9.35-1.65l-.2-.15-.05-.05q-.6-.65-.5-1.6.15-.9.35-1 .2-.15 0-.2l-.35-.4q-.5-.6-.25-1.55.25-1 .45-1.25zm6.95 11.7-.05.15.1-.1zM31.7 28l.1-.1-.05-.05zm11.55-1.65-.05-.05-.05.2zm-3.55.85-.05.15.1-.15zM16.2 6.95q-.1.5-.7 1.1l-.55.4v.95q-.1.55-.5.95l-.6.5-.15 1.5q-.15 1.2-1.8 1.65l-.1.55.05 1.25q-.05.8-.75 1.25l-.6.3-.15.05.1 1.6q-.1.65-.95 1l-.1.05-.2.05v.25l.15 1.25q0 1.05-1.3 1.55l.1 1.6q-.05.95-1.1 1.2v.65l-.15.75q-1.7.25-2.65-1.7.15-.5.7-.65l.05-.1h.1q-.05-.45.6-1.3l1.1-1.1-.15-.45-.1-.7.35-.85.85-.85.1-.05.1-.15-.15-.1v-.85l.65-.9 1-.7.15.1-.15-.5v-.85q.15-.6.75-1l.85-.65.25-.2h.1l.05.05-.1-.2-.05-.05-.05-.45.1-1q.15-.7.85-1.15l.75-.55-.05-.3-.1-.6.65-1.2.45-.5V7.3l.55-.95zM11.9 14l-.45-.15.25.15zm2.5.85-.5-.15.3.15zm-4.45 12.2v.15l.25-.1V27l-.15.05zM6.8 25.9l-.05.15.3-.1v-.1l-.15.05z"/><path fill="url(#h)" d="M26.25 12.5q-.45-.4-.6-1.45l.2-1.5-.75-.5-.35-1 .1-.9-.15-.1.2.05.85.65q.6.6.65 1.3l-.1 1.1-.15-.05.15.15-.2 1q0 .95.15 1.25" transform="translate(17.3 1.05)"/><path fill="url(#i)" d="M26.25 12.5q-.15-.3-.15-1.25l.2-1-.15-.15.15.05 1.15.7q.55.55.6 1.1l-.05.85-.05.15.65.2.8 1.1.25 1.3-.1.3V16q.45.05.9.8.4.7.4 1.25l-.05.45v.1l.4.4.45 1.05.05.75-.1.2-.15.3-.05-.15v-.25l-.4.5q.45.35.45 0 1.05 1 1.05 2l.1.5.35.4.35.75v.35q.15.8-1.05.6-.5-.45-.55-.85l-.05-.5q-1.1-.3-1.2-1.45-.05-1.1.35-1.35v-.05l-.45-.2-.05-.05-.1-.05q-.65-.35-.7-.9-.3-.9-.05-1.7l-.25-.1-.1-.05q-.75-.45-.85-1.4v-1.1q.2-.15 0-.2l-.4-.25q-.7-.5-.65-1.4l.1-1.2-1-.65z" transform="translate(17.3 1.05)"/><path fill="url(#j)" d="M26.7 15.25q.15.65-.05 1l-.2.35.15-.05.9.8.5.95-.15.8-.2.15.2.1.05.1.75.85.25.9-.25.75h-.05l-.05.05q-.15.05.3.15l.7.4q.55.5.6 1.15l-.2.7.5.2q.65.3.75 1.15.05.55-.25.8l-.05.05q-.45.6-1.25.7l-.7-.4-.55-.9v-.45q-1.1-.35-1.2-1.5l.05-1.55.35.1.6.15.15-.7-.05-.25-.65.5-.5.1v-.05h-.1q-.65-.45-.65-1-.25-.8 0-1.65l-.25-.05v-.05q-.75-.55-.85-1.5 0-1 .15-1.1.15-.2-.05-.2-.15-.1-.45-.25-.6-.5-.55-1.5l.2-1.35.05-.3.2.1.15-.2 1.1.9q.5.45.6 1.05m3.2 9.15v.15l.05-.15z" transform="translate(17.3 1.05)"/><path fill="url(#k)" d="m21.75 14.05.1.05.25-.15 1.05.9q.5.55.55 1.2l-.1.95-.2.35.4.1q.3.05.6.8l.15 1.1-.25.75q-.15.3.15-.05l.15.1.05.1.65.95.2.85-.25.75h-.05l-.05.05.25.15.8.45q.5.5.5 1.15l-.25.7.5.2q.65.3.65 1.2l-.05 1.1q-.8.6-2.3.55.9 0 .1-.5-.5-.55-.5-1v-.5q-1.1-.4-1.1-1.55l.15-1.55h.15v-.1h-.25v-.05h-.15q-.6-.5-.6-1-.2-.85.1-1.65l-.2-.1-.1-.05q-.7-.55-.75-1.55.05-.9.2-1.05.2-.15 0-.2l-.45-.3q-.55-.5-.45-1.5.05-1.05.25-1.3zm4.6 11.4.1-.15-.05-.05z" transform="translate(17.3 1.05)"/><path fill="url(#l)" d="m21.1 21.15.7.9.2.9-.3.7h-.05l-.05.05.3.15.8.45q.45.5.45 1.15l-.2.7.45.2q.7.3.7 1.25l-.25.85-.1.05q.35.3-1.4.5l-1-1.3v-.5q-1.1-.4-1.1-1.5l.15-1.6.3.2.6.15.1-.75-.05-.25-.55.5-.5.1V24l-.15-.05q-.6-.45-.6-1-.2-.9.1-1.65l-.2-.1-.1-.05q-.7-.55-.75-1.5.05-.95.2-1.1.2-.15 0-.2l-.45-.25q-.55-.55-.45-1.55.05-1 .25-1.3l.1-.35.1.05.25-.15 1.05.95q.5.5.55 1.2l-.1.85-.2.4h.15l.75.85.45.95-.15.8-.2.1.15.15zm1.8 5-.05.15.1-.15z" transform="translate(17.3 1.05)"/><path fill="url(#m)" d="m8.5 15.3.1.05.25-.1 1 1.05.4 1-.2 1-.25.5.15.05.5.6.25 1.05-.25 1.05-.2.05.1.15.05.1.55 1.05.05.9q-.05.65-.4.65h-.05l-.05.05.25.2.5.7.2.95-.05.8.45.25q.6.4.45 1.3l-.15.55-2.3.1q-.35-.55-.3-.95l.1-.5q-1-.55-.85-1.7l.4-1.5.2-.1h-.3v-.05L9 24.5q-.55-.55-.45-1.05-.05-.7.2-1.25l-.25-.3q-.8-.85-.6-1.8.15-1 .5-1.1l.1-.2-.7-.6q-.55-.55-.35-1.75.2-1.25.6-1.15zm2.8 11.95.1-.1-.05-.05z" transform="translate(17.3 1.05)"/><path fill="url(#n)" d="m15.4 15.1 1 1q.45.55.5 1.15l-.2.95-.2.35h.15l.75.85.4 1-.2.8-.2.1.15.15.05.05.65 1 .15.9-.35.7H18l-.05.05.25.2.75.45q.45.55.45 1.2l-.3.75.45.2q.65.35.6 1.2l-.3.85.05.1-.1.1q-.95.5-1.9 0l-.1-.1q-.45-.55-.45-1l.05-.45q-1.05-.45-1-1.65l.25-1.5.05-.1h-.15v-.05l-.1-.05q-.6-.5-.55-1-.15-.9.2-1.7l-.25-.1-.05-.05q-.65-.6-.65-1.55.1-.95.25-1.05.2-.15 0-.2l-.4-.35q-.55-.55-.4-1.5l.35-1.3.1-.3.15.05zm3.65 11.6-.05.15.1-.1z" transform="translate(17.3 1.05)"/><path fill="url(#o)" d="m12.1 15 .1.05.25-.1.9 1.05.35 1.25-.25.9-.25.35h.15l.65.95q.35.65.3 1l-.25.8-.2.05.1.15.05.1.55 1.05.05.9-.4.65h-.05l-.05.05.25.2.7.55q.4.55.3 1.2l-.35.7.45.25q.6.4.45 1.3l-.15.95-2.05.15-.2-.35q-.4-.6-.35-1.05l.1-.5q-1-.55-.85-1.7l.4-1.5.25.2.6.25.25-.7v-.25q-.2.35-.7.4h-.5v-.05l-.1-.05q-.55-.55-.45-1.05-.05-.9.35-1.65l-.2-.15-.05-.05q-.6-.65-.5-1.6l.35-1q.2-.15 0-.2l-.35-.4q-.5-.6-.25-1.55.25-1 .45-1.25zm2.8 11.95.1-.1-.05-.05z" transform="translate(17.3 1.05)"/><path fill="#ffe5e5" fill-opacity=".502" d="m44.65 13.2.25.9.2.65q0 .35.35.65l.6.65q.3.3.25.75t.35 1.25l.45.65.3.6v.55l.35.8.3.65v.7l.4.7.4.55-.15.95q0 .5.3.8.35.35.35.85 0 .4.8.65 0 .5.25.55l-.7.05q-.25 0-.95-1.6l-.65-.45q-.35-.45-.35-1.05 0-.75.3-1.25l-1.15-.7q-.25-.3-.25-1.15 0-.55.15-.8l-1-.7q-.5-.3-.5-1.2 0-.85.25-1.05-.95-.3-.95-2.15l.2-.7-1.15-.6q-.45-.3-.45-1l.1-.55q.2-.4 1.35 1.05m-1.5 5.2q0 1.05.7 1.75l.6.95q-.1.8.4 1.75.5.85.95.95-.1.05-.1.6 0 .7.4 1.25.2.25.85.5l.1.8q.2.8.65.9l-1.2.5q-.25 0-.6-.8l-.35-1.15q-.55.15-.85-.55-.25-.55-.25-1.3 0-.15.15-.35l.1-.35-1.25-1q-.25-.35-.25-1.15v-.6l.35-.5-.95-.8q-.15-.15-.15-.8v-.55l.4-.6q-1.25.2-1.25-1.7 0-.6.6-1.2l.05.35-.05.05v.75l.25.65q.4.8.85.8zm-3.75.4q.1-.45.4-.4v-.1q-.85.2-.9-.25l.6-.45q.45-.3.55-.25l-.05.25.2.55.1.9q-.1.7.3 1.35l.65.75-.15.25.05.9q.15.7.45 1.15l.3.6v1.45q-.05 1.35.6 1.5.6.15.55.55-.2 1.2 1.2 1.55l-.55.3-.65.1-.55-.85-.5-1.05-.35-.4-.45-.4q-.25-.35-.25-1.1L41 25l.3-.6-.45-.5q-.45-.5-.45-1.35V22l.4-.55q-.75-.25-1.05-.65-.35-.45-.35-1.3zm-1.25 5.3.65.6-.05.55q-.05.45.05.8.15.55.75.85-.4.1-.4.8 0 .6.6 1.2l.55.55-.3.35-.45.1q-.65 0-.95-1.6l-.85-.6q-.25-.25-.25-1.4l.2-1.15q-1-.65-1-1.85l.1-.5.25-.65q-1.15-.35-1.15-1.7l.3-.7.15-.75h.2l.25.35-.05.8q0 1.45.45 1.85t.45 1q0 .7.5 1.1M24.9 17.15l.35-.45.4.1.3.4v.05l-.15.7q0 .6.35 1.05l.35.55-.2 1.1q-.25.8.05 1.2l.65.5-.25.6-.05 1.2q-.2.35.2.9l.4.6-.15 1.15.4.9q.35.45.3.8-.2 1 .6 1.7v.25l-.35.05q-1.2 0-1.2-1.05l.2-.9-.45-.8q-.45-.9-.45-2l.1-.65q-.3-.2-.3-1.1l.15-.85-.6-.9q-.15-.35-.15-1.15 0-.5.3-.8.25-.25.1-.4l-.65-.65q-.5-.45-.25-1.6zm7.15 1.7 1.1.2v.9l.35.55v.8q-.05.55.3.95l.35.65q0 .8.45 1.9l.05.45.15.7.6.9-.15.85q0 .9 1.55 2.7l-1 .25q-1.2 0-1.2-1.55l.1-.5-.8-1.85.2-.6.15-.75-.8-.75q-.25-.35-.25-1.15l.1-.55.25-.55q-1.1-.15-1.1-1.7l.3-1-.7-.6zm-2.35-.1-.05.3.3.65-.15.8q0 1.15.9 1.8l-.35.55-.1.75.2.95.55.6-.5 1.7q0 .85.9 1.75l-.15.65q0 .45.4.9l.45.5-1 .1-.55-.65-.25-.95q0-.45.2-.6v-.1l-.8-.7-.05-1.05.05-.95.35-.6q-.6-.9-.6-1.45 0-1.25.5-1.3-.9-.35-.9-1.95 0-.4.4-.95l.05-.05q-.55-.05-.8-1.15v-.05z"/><path fill="url(#p)" d="m-2.4 15.35 1.1-.9.25.15.1-.05.1.3.25 1.3q.1.95-.5 1.5l-.4.3q-.2.05 0 .2.15.15.15 1.1-.05.95-.75 1.45l-.1.05-.2.15q.3.75.1 1.65 0 .55-.6 1l-.1.05-.05.05-.45-.1-.65-.5v.25l.1.7.65-.15.25-.15.15 1.55q0 1.15-1.05 1.55v.5q0 .45-.5 1l-.1.1-1.85-.3-.1.1V28l-.25-.8q0-.95.7-1.25l.5-.2.05.15v-.15h-.05l-.25-.7q0-.65.5-1.15l.75-.4.3-.2-.05-.05h-.05l-.3-.75.2-.85.7-.95.05-.1.1-.15-.15-.05-.15-.8.45-.95.8-.9.15.05-.2-.4-.1-.9q.05-.65.5-1.15" transform="translate(17.3 1.05)"/><path fill="url(#q)" d="M.25 11.25.6 12.7q0 1.15-1.5 1.85l-.4-.1h-.05l-.05-.05-.05-.05-.05-.05-.15-.45-.15-.7q0-1.3 1.3-2.05h.1l-.2-.4-.2-.55q0-.55.4-1.25l.4-.55-.15-.55.5-1.25 1.65.5-.45 1.2-.5.5.15.9-.25 1z" transform="translate(17.3 1.05)"/><path fill="url(#r)" d="m-6.35 12.8-.1-.2-.05-.05-.05-.45.1-1q.15-.7.85-1.15l.75-.55-.05-.3-.1-.6.65-1.2.45-.5v-.55l.55-.95 1.75.6q-.1.5-.7 1.1l-.55.4v.95q-.1.55-.5.95l-.6.5-.15 1.5q-.15 1.2-1.8 1.65z" transform="translate(17.3 1.05)"/><path fill="url(#s)" d="m-5.9 12.95-.1.55.05 1.25q-.05.8-.75 1.25l-.6.3-.15.05.1 1.6q-.1.65-.95 1l-.1.05-.2.05v.25l.15 1.25q0 1.05-1.3 1.55l.1 1.6q-.05.95-1.1 1.2v.65l-.15.75q-2.15-.8-2.65-1.7.15-.5.7-.65l.05-.1h.1q-.05-.45.6-1.3l1.1-1.1-.15-.45-.1-.7.35-.85.85-.85.1-.05.1-.15-.15-.1v-.85l.65-.9 1-.7.15.1-.15-.5v-.85l.75-1 .85-.65.25-.2h.1l.05.05.25.15zm-4.85 11.85-.15.05h-.1l-.05.15.3-.1z" transform="translate(17.3 1.05)"/><path fill="url(#t)" d="m-3.9 13.65-.1-.15-.05-.05-.05-.45.15-1.05q.25-.75.95-1.1l.6-.55-.25-.4-.1-.6.55-1.25.45-.5L-1.8 7l.55-1 1.7.55q-.1.55-.6 1.1l-.55.45q.1.35.05.95-.05.55-.45.95l-.85.65.25 1.4q-.1 1.2-1.7 1.75z" transform="translate(17.3 1.05)"/><path fill="url(#u)" d="M-3.4 13.8h.1q.45.8.05 2-.1.65-.8 1.15l-.55.3-.15.05.15 1.6q-.05.65-.85 1.05l-.1.05-.2.1-.1 1.7q-.05.55-.75.95l-.1.05h-.1q.6.75.25 1.95l-1.05 1.3.05.65-.1.8q.1.15-.25.15l-1.25-.5-1.35-.6.05-.5q.15-.65 1.15-1l.15-1.6.4-.75.25-.55.05.05.3.1-.05-.4-.15-.45.3-.85.8-.9.1-.05.1-.15-.15-.1-.05-.85.6-.9.95-.8.15.1-.15-.5-.15-.65q.15-.9.5-1.4.35-.55 1.3-.85v.1l.1-.05.05.05.3.15zm-4.2 12.15-.15.05h-.1v.15l.25-.1z" transform="translate(17.3 1.05)"/><path fill="#ffe5e5" fill-opacity=".498" d="M18 10.3q-.3-.1-.55.3-.3.4-.3 1.25l.05.4-.5-.45-.25-.7q0-.6.4-1 .4-.35.8-.25-.55-.55-.55-1.55 0-.65.7-.65.5 0 .55 1.05-.5.2-.5.95zM15.85 7l1.05.25-.15.25-.15.1q-.55.45-.55 1.75-.25 0-.65.4-.55.55-.55 1.45l.05.5.3.3-.75.45q-.6.55-.6 1.3l.2.8.2.4q-.35 0-.95.55-.9.85-.9 2.2l.2.7-.95.25q-.8.45-.8 1.65l.35.9-.45.3-.65.75q-.25.8-.15 1.55l-.45.1q-.2.3-.2.95l.2.9h.05q-.8.1-.8 1.4l.05.65.2.3-1.4-.25q-1-.15-1-.75 0-.45.5-.75l.85-.2q0-1.45.65-2.05l.65-.65-.15-.8-.15-.75.45-.95q.45-.6.9-.7l-.25-.7q0-.45.75-1.1.7-.7 1.15-.5l-.4-1.6q0-1.55 1.95-1.85-.3-.05-.3-.7 0-.8.65-1.3l.9-.4-.1-1.75q0-.65.2-.85l1.05-.7-.3-1.05.2-.65zm-1.25-.5-.4.8-.1.85q-.55.25-.8 1.35l-.35 1.15-.25.1-.2-.35-.2-.55.35-1.05.85-.7-.25-.65.35-.75.55-.35zm-2.9 5.05-.3 1 .05.45.2.5-1.35 1.35q-.55.85-.3 2.35-1 .15-1.4.65-.45.55-.45 1.75l.1.35q.15.1.15.25-.65.2-1.1 1-.55.9-.55 2l.15.3q-.3 0-.75.35-.6.5-.6 1.2l.25.75-.65.2q-.45.2-.25.8v.05l-1.35-1.3.65-.5.7-.25q-.35-.5.45-1.4.65-.8 1.15-.9-.6-.6-.6-1.1 0-.65.55-1.35.5-.7 1-.65l-.25-.55q0-.55.65-1l1.3-.75v-.15l-.15-.8q0-.8.9-1.7.75-.4.75-.55l.1-.65q.2-1.05.95-1.7m5.5.7.1.4q-.4 0-.75.55-.5.65-.5 1.85l.05.45.05.15-.05-.1-.95 2.25q-.25.9.15 1.5l-.8.55q-.55 1-.45 1.8l.45 1.15-.75.3q-.3.1-.3 1.1l.1.6-.5.55q-.35.5-.35 1.35l.45.75v.05l-.75.2q-.75.45-.75 1.4l.15.5h-.35l-.4-.25q-.25-.2-.45-.2l-.2-1.65q0-.65.35-1.05.3-.4.8-.4h-.15l-.05-.4.45-.8 1.3-.2-.55-1.3.55-1q.55-.6.85-.65l-.4-.45-.3-.8.65-1.2q.5-.5.9-.6l-.15-.25-.1-1.1q0-.7 1.5-1.75-.6-.6-.6-1.5 0-.75.55-1.25.5-.55 1.2-.55"/><path fill="#5d4747" fill-opacity=".502" d="M39.4 22.8q.95-1.55 1.4-1.65.4-.1 3.85 2.6l.1.05.9-2.05.95-1.45q1.6.9 3.2 2.8.3 2.9-.65 4.65l-2.3-1.45-1.35-1.15-.1-.1-.1.15-2 4.35q-.2.15-1.8-.65l-2.45-1.45-.35.5-1.3 1.5q-1.2 1.3-1.65 1.3l-1.9-1.4L32 27.6l-.05-.05-.2-.3h-.05l-.9 1.3-1.4 1.7-.7.7-2.2-1.85-.05-.05q-1.1-1.2-1-1.85.1-.7.85-2.15.8-1.5 1.25-1.8.25-.65 1.1.1l1.65 1.45 1.2 1.1 1.6-1.85Q34.85 22 35.15 22l3.2 2.55zm1.95-.05-.75 1.2-1 2.25 3 1.7 1.45-3zm5.45-1-.85 2.15 1.35 1.45q1.35 1.2 1.6.65t-.05-2.5q-.65-1.1-2.05-1.8zM35.3 23.8q-.3.1-1.3 1.3l-1.05 1.45q2.45 2.65 2.85 2.55l2.4-2.8zm-5 2.6-2.1-1.95-1.35 2.1q-.45.8-.25 1.05l1 1 .95.75 1.85-2.55zm-25.55-.8v-3.3l.05-.45.4-.75 2.5-1.8q.4 0 .6.4l.1 3.6 2.25-1.9q1.45-1.05 1.75-.85t.9 1.55l.9 2.25q.4.9-.1 1.55l-.9.9-1.9 1.15q-1.4.9-1.5.75l-.7-1.9-.85-3-3 2.15zm.8-2.5-.05 1.6 1.95-1.8-.1-2.25Q5.7 21.75 5.6 22.2zm3.8.9q.85 3 1.1 3.05l2.65-1.85q-.1-.7-.5-1.6l-.75-1.65z"/><path fill="url(#v)" d="m23.3 22.4-1 2.25 3 1.7 1.45-3-2.7-2.15zm-1.2-1.15q.95-1.55 1.4-1.65.4-.1 3.85 2.6l.1.05.9-2.05.95-1.45q1.6.9 3.2 2.8.6 3.2-.65 4.65l-2.3-1.45-1.35-1.15-.1-.1-.1.15L26 28q-.2.15-1.8-.65l-2.45-1.45-.35.5-1.3 1.5q-1.2 1.3-1.65 1.3l-1.9-1.4-1.85-1.75-.05-.05-.2-.3h-.05l-.9 1.3-1.4 1.7-.7.7-2.2-1.85-.6-.55-.75-.85q-.1-.35.9-2.25 1.05-1.9 1.5-2.2.25-.65 1.1.1L13 23.25l1.2 1.1 1.6-1.85q1.75-2.05 2.05-2.05l3.2 2.55zm7.4-1.05-.85 2.15 1.25 1.5q1.25 1.25 1.5.7t.15-2.6q-.65-1.1-2.05-1.8zM18 22.25q-.3.1-1.3 1.3L15.65 25q2.45 2.65 2.85 2.55l2.4-2.8zm8.95.85v.05zM13 24.85l-2.1-1.95L9.55 25q-.45.8-.25 1.05l1 1 .95.75 1.85-2.55z" transform="translate(17.3 1.05)"/><path fill="url(#w)" d="m-11.75 21.55-.05 1.6 1.95-1.8-.1-2.25q-1.65 1.1-1.75 1.55zm-.8-.8.05-.45.4-.75 2.5-1.8q.4 0 .6.4l.1 3.6 2.25-1.9Q-5.2 18.8-4.9 19t.9 1.55l.9 2.25q.4.9-.1 1.55l-.9.9L-6 26.4q-1.4.9-1.5.75l-.7-1.9-.85-3-3 2.15-.5-.35zm4.6 1.7q.85 3 1.1 3.05l2.65-1.85q-.1-.7-.5-1.6l-.75-1.65z" transform="translate(17.3 1.05)"/><path fill="url(#x)" d="m24.85 6.95.15.3.15.45.3 1.1q.25.85.3 2.95T23.4 15.9q-2.4 2-4.1 2.25l-2.55.2-2.05-.2-2.9-.65q-1.75-.5-3.65-1.8-2.5-1.15-4.6-3.7-1.7-2.1-2.45-4.25.15-.6-.9-1.4l.75.3 2.05.7 4.75.75 2 .45 5.75.4 4.75-.55 1.65-.5 1.6-.6 1-.5.15-.1z" transform="translate(17.3 1.05)"/><path fill="#583a28" d="M43.15 12q.05.7-.3 2l-.7 1.8-.7.9-.55.55-.45.35q-.25.15-.55.4l-.85.5-1.4.6-2.2.5-2.35-.05-1.2-.1-.9-.2-2-.45-2.2-.9-2.25-1.25-1.95-1.6q-1.85-1.8-3.05-3.8l-1.75-3.1-.35-.8.7.3q.45-.2 1.4 1.6.9 1.8 3.25 4.3 2.35 2.45 4.95 3.5l4.65 1.3 4.4-.15q2.35-.45 4.3-2.7 1.95-2.3 1.7-4.55l-.2-1.55.2.6z"/><path fill="#7e4d1f" d="m41.85 7.25.2.5.1.2V8l-.2-.25-.1.1q-1.1.8-3.35 1.35l-.95.25-4.75.55-5.75-.4h-.15L24 9.25l-3.95-.8-.5-.15-.75-.4.4.25 1.35.35 5.6.4 9.15-.6q4.85-.7 6.1-1.95z"/><path fill="#461919" fill-opacity=".298" d="m3.35 27.8.35-.8.35-.9.45.35.3.3-.9 1.65zm2.45-.55q.85 0 .85.35l-.7 1.7-.8-.35zm5.7 2.05.7.2-.55 1.75-.75-.15.3-.8zm-2.45 1.2L9.5 29l.85.1-.65 1.7zm-1.4-2.45h.05q.7.25.7.55l-.5 1.55-.45-.15-.45-.15q.65-1.25.65-1.8m34.3 3.5v.3l-.3.25h-.3l-.5-1.85q.3-.3.7-.3zm-2.65-1.2h.35l.3 1.5-.3.6h-.35l-.2-1.65.05-.05h-.1l.05.05-.05.05-.25-.3zm3.8-.8h.25l.35 1.5-.05.4-.4.25-.55-1.9zm1.35-.25.45-.2.35.55.2.95q0 .55-.4.55l-.15-.05q0-1.05-.45-1.8m1.85-.7.45-.15.35.6.25 1-.1.3-.4.15-.5-1.7v.15h-.05zm2-.1-.15-.25-.05-.1q0-.3.55-.4l.4 1.55-.05.45-.4.15zm1.95-1.45.5 1.8-.1.2-.35.15-.15-.05-.4-1.85-.1.05.55-.35zM33.15 31v1.8h-.7L32.4 31zm-3.35-.15h.8l.2 1.35v.6h-.45l-.5-.1zm-2.1-.2h.8v1.85h-.75zm6.85.15h.8l.2 1.7-.15.2q-.2 0-.3.15h-.45zm2.45.05.3-.1q.35 0 .45.35l.05.85v.5l-.45.15q-.25 0-.3-.55z"/><path fill="#9f765e" d="M37.65 5.85h.05q1.6 0 2.55.6l.3 1.15.25 1.45v.2q0 1.5-.5 2.65l-.05-.5-.65-2q-.55-1.65-1.95-3.55M26.4 8.8q2-1.5 4.55-2.2l.4 2q.4 1.95 1.35 3.8l1.3 2.25q-2.85-.5-5-2.9l-2.2-3zm5.25-2.4 5.3-.55Q38 6.9 39 9.45q1.05 2.5.9 3.2l-.5.6q-1.45 1.5-3.9 1.5h-.6l-.7-1.05-.8-1.45-.9-2.6z"/><path fill="#853030" d="M40.25 6.45q1.5.95 1.25 3.55-.1 2.65-1.45 4.25-1.4 1.55-4.05 1.95-2.7.35-5.45-1.2-2.8-1.6-4.05-4.85l-.35-.75-.2-.35.45-.25.4-.05 2.2 3q2.15 2.4 5 2.9l.4.05.5.05h.6q2.45 0 3.9-1.5l.5-.6.25-.35.15-.4q.5-1.15.5-2.65v-.2l-.25-1.45z"/><path fill="#b84848" d="m30.95 6.6.85-.25-.45.1 1-.2-.7.15.85 3.25.9 2.6.8 1.45.7 1.05-.5-.05-.4-.05-1.3-2.25q-.95-1.85-1.35-3.8zm6-.75h.7q1.4 1.9 1.95 3.55l.65 2 .05.5-.15.4-.25.35q.15-.7-.9-3.2-1-2.55-2.05-3.6"/><path fill="url(#y)" d="m24.1 11.2 1.05 2.65L27 19l-.9 1.75-.15-.65-1.1-3.8-1.25-4.2z" transform="translate(17.3 1.05)"/><path fill="url(#z)" d="m24.45 9.7 3.35 7.5-.6 1.3-3.1-7.4z" transform="translate(17.3 1.05)"/><path fill="url(#A)" d="m23.55 14.7.85 3.75.8 2.9-1.2.7-.65-3.85q-.65-3.05-1.4-4.45l.35-.3.65-.55z" transform="translate(17.3 1.05)"/><path fill="url(#B)" d="m21.7 18.05 1.4 4.6-1.2.65q-1.45-7-2.35-8.45l.45-.05.65-.25z" transform="translate(17.3 1.05)"/><path fill="url(#C)" d="m10.6 10.7.2 5.05q.7 5.05 1.1 5.35l-.35-.15-.75-.3Q9.75 18.7 9.6 14.2l.05-5.15.8 1.45z" transform="translate(17.3 1.05)"/><path fill="url(#D)" d="M16.4 15.25q-.25 1.6.2 3.6l.85 3.6.15.65.55 1q-1.55-.7-2.05-.7l-.6-4.55-.55-3.95.5.2z" transform="translate(17.3 1.05)"/><path fill="url(#E)" d="m17.55 15.2.85-.05.25 1.5.8 2.8q1.05 3.45 1.75 4.25l-1.45.1L18.5 20q-1.2-3.75-1.2-4.8z" transform="translate(17.3 1.05)"/><path fill="url(#F)" d="m13.3 14 1.1 6.25.7 2.85-1.15-.55-.15-.05q-.85-1.8-1.5-5.65-.5-2.85-.55-4.45l1.1 1.15z" transform="translate(17.3 1.05)"/><path fill-opacity=".251" d="M41.05 8.95q.35 2.25-1.2 4-1.8 1.95-4.5 1.95l-3.15-.55q-1.8-.65-2.6-1.6l-.95-1.1-.75-1.1q-.8-1.9-1.55-1.75l.65 1.3q.4 1.15 1.05 2.1 2.9 3.8 7.1 3.8l2-.3.65-.25.35-.1q.95-.45 1.85-.85-1.4 1.85-4.9 1.95-3.55.1-6.1-2.3-1.5-1.25-3.05-3.5L21.9 9.9l-2.5-.7q-1.5-.55-1.9-1.65l5.3 1.1 2.7.35q.4-.4.75-.25l2-1.1Q28.8 9 30.65 9.8q1.5.7 4.5.8t3.9-.95q.85-1.1.9-1.6 0-.55.15-1.1.05-.55-.2-.65l.35.15q.45.25.8 2.5"/><path fill="#eec0c0" d="m27.35 13.35.1-.05.4-.35.05-.5-.05-.15.05.1.55.65zM18.8 12.1V12l-.15-1.05.05-.35q-.05.65.5 1 .6.4.6.65l.2.2-.65-.25zm-3.6-.75-.2-.15h.2l-.35-1 .1-.5v.25l.15.85q.25.15.25.55z"/><path fill="#d4a7a7" d="m11.8 9.1-.1-.05-.25-.3-.4.05q-.6 0-.85-.35l.1-.05q.4 0 .25-.25l-.15-.3q0-.35.45-.35.35 0 .65.95zm2.1-2.85.6.35v.1l-2.4.55h-.3V7.2l1.85-.95zm2.25.9.15.05h.15v.05q0 .15-.4.3l-1.2.2.95-.6zM24.9 8.7l.05.05.05.85-.1.75q-.2.3-.3 1.1v-2.1q.1-.55.3-.65"/><path fill="url(#G)" d="m10.4 11.05-.3-.4-.75-1.6q-.35-1-1-.85-.65.1-.6.7V10l-.45.8q-.4.3-.3 1 .05.65-.45.65l-.25-.3-.35-.35-.3-.45.3-.5.25-.5q0-.35-.4-.45h-.75l.1-.15q.1-.15.6-.15.25-.05.3-.65l.4-.8.2-.4q-.65.3-1.5 1.9L4.7 8.4q-.7-1.05-1.2-1h-.55l-.05.25.1.55q0 .35-.75.5-.7.1-.85.6l.3-1.05q.3-.95.65-1.3l1.8.25 1.8.5q.2-.2.4-.15l.4.1H9.1l.7 2.05.1.25zm-2.8-3.4q-.2.1-.3.65v2.1q.1-.8.3-1.1l.1-.75-.05-.85z" transform="translate(17.3 1.05)"/><path fill="url(#H)" d="m.75 6.5 1.4.4.1.05-.6.8Q1.05 8.7 1 9.5l-.35 1.35-.75-.7q-.55-1.95-1.4-2.3l-.25-.1q1.3-.95 2.3-.95l.2.1.05-.2z" transform="translate(17.3 1.05)"/><path fill="url(#I)" d="M-2.65 10.1H-3l-.25-.3-.35-.65.35-1q.35-.5.35-1.1 0-.5-.8-.5-.9 0-.8 1.15.05.8-.35 1.05l.15-.65-.2.05H-5l-.5-.1-.3-.65q-.3-.95-.65-.95-.45 0-.45.35l.15.3q.15.25-.25.25l-.1.05-.2-.7v-.5l.95-.15q.55-.4 1.5-.7l1.1-.3.15-.05.1.15h.05l.05.05h-.25l-1.85.95v.05h.3l2.4-.55v-.1l1.3.45.35.1h-.35l-.95.6 1.2-.2q.4-.15.4-.3v-.05l.1.05.65.15q-.8.2-2 .95-.45.3-.6 1.1-.15.85-.65 1.25z" transform="translate(17.3 1.05)"/><path fill="url(#J)" d="m26.2 8.65.15-.1.35-.35.3-.9-.1-.25-.05-.1-.95-.75-1.15-.45-.3.05-.05.3.8.95.75.8q0 .2-.35.25l-.25.2-.3-.25q-.2 0-.3.35-.05.4-.45.35l-.45-1.8-.45-1.2q-.05-.15.25-.4l1.45.1q1.15.35 2.35 1.3l-.4-.1q-.15.1 0 .85l-.5 1.1z" transform="translate(17.3 1.05)"/><path fill="#bd9f9f" d="m42.65 9.35.25-.2q.35-.05.35-.25l-.75-.8-.8-.95.05-.3.3-.05 1.15.45.95.75.05.1.1.25-.3.9-.35.35-.15.1-.8-.2zm-14.8 2.95.05.15-.05.5-.4.35-.1.05h-.1l-.8-.35-.15.35q-.05.3-.8.4h-.3l-1.4-.25h.05q.5 0 .45-.65-.1-.7.3-1l.45-.8v-1.1q-.05-.6.6-.7.65-.15 1 .85l.75 1.6.3.4zM19.65 8q-.35.35-.65 1.3l-.3 1.05q.15-.5.85-.6.75-.15.75-.5l-.1-.55.05-.25h.55q.5-.05 1.2 1l.45 1.25q.85-1.6 1.5-1.9l-.2.4-.4.8q-.05.6-.3.65-.5 0-.6.15l-.1.15h.75q.4.1.4.45l-.25.5-.3.5.3.45q-.35-.3-.7-.3l-.35.1-.3.1q-.6 0-.7-.35l-.35-.35-.5.25-.3.15H20l-.2-.2q0-.25-.6-.65-.55-.35-.5-1l-.05.35.15 1.05v.1l-.4.05h-.15l-.4.15q-.8.25-1.65-.25l-1-.7h.15q0-.4-.25-.55l-.15-.85V9.7l-.1.5.35 1H15l-.05-.05h-.3l-.7-.45q.5-.4.65-1.25.15-.8.6-1.1 1.2-.75 2-.95l.45.1.4.05.05.2-.05.2-.2-.1q-1 0-2.3.95l.25.1q.85.35 1.4 2.3l.75.7.35-1.35q.05-.8.65-1.75l.6-.8zm-5.35 3.15-1.35-.45-.5-.9q.4-.25.35-1.05-.1-1.15.8-1.15.8 0 .8.5 0 .6-.35 1.1l-.35 1 .35.65z"/><path fill="#b84848" d="m31.3 11.3.85-.2h.05q.9 0 1.55.65t.65 1.6-.65 1.6-1.6.65-1.6-.65-.65-1.6.65-1.6zm1.85.2-.9-.2h-.2l-.5.15-.65.4-.2.3q-.35.45-.35 1.1 0 .8.55 1.35t1.35.55l.85-.15.2-.1.35-.3.1-.1.45-1.25q0-.8-.45-1.3l-.05-.05-.05-.05-.15-.1z"/><path fill="#d75454" d="M39.9 14.4v-1.75l-.05-.4.1.35zm-6.8.6-.85.15q-.8 0-1.35-.55t-.55-1.35q0-.65.35-1.1l.2-.3.65-.4.5-.15h.2l.9.2-.2.55-.1.25v.3l-.1.15v-.05l.05-.15-.65-.4-.9-.4-.3.15-.25.25 1.85 1q.3 2.05.45 1.9.15-.2.1-.05m.65-3.05q.45.5.45 1.3l-.45 1.25-.1.1-.35.3.4-.5-.2-.05-.1-1.15v-.05q0-.85.35-1.2"/><path fill="#b49240" d="m41.6 7.85-.45.1-.1.7q0 .7.6 1.4.55.65 1.15.7v.4l-.35.1q-.7 0-1.2-.5l-.8-1.2-.1-.9.05-.3.4-.6.3-.05zm-8.45 3.65.35.25.15.1.05.05.05.05q-.35.35-.35 1.2v.05l.1 1.15.2.05-.4.5-.2.1q.05-.15-.1.05-.15.15-.45-1.9l-1.85-1 .25-.25.3-.15.9.4.65.4-.05.15v.05l.1-.15v-.3l.1-.25z"/><path fill="#c297ec" d="m38.85 11 .55.2.2.35.25.7.05.4v1.75q-.1-.25-.1-.05l-.1-.05-1.5-.7q-1.1-.35-1.1-1.1 0-1 .55-1 .5 0 .85.4l-.05-.45.1-.35.2-.1zm-.6 1.05q-.45 0-.45.2 0 .5.8.8.9.4 1.05.65v-.05l-.1-1.3-.45-.9-.15.45.05.35h-.05z"/><path fill="#222c43" d="m39.6 11.55.55 1.1q.25.85-.2 1.85l-.05.05-1.1.75q-.85.2-1.55-.3t-.95-1.45q-.2-.9.2-1.65.4-.8 1.25-1l1.1.1h-.1l-.2.1h-.7q-.65.15-1.05.8l-.05.35q-.2.55.1 1.15l.8 1.05q.55.45 1 .4l.7-.25.1-.1.15-.15.1-.05.1.05q0-.2.1.05l.05-1.8-.1-.35z"/><path fill="#6482b6" d="m38.55 11.1-.1.35.05.45q-.35-.4-.85-.4-.55 0-.55 1 0 .75 1.1 1.1l1.5.7-.1.05-.15.15-.1.1-.7.25q-.45.05-1-.4l-.8-1.05q-.3-.6-.1-1.15l.05-.35q.4-.65 1.05-.8zm-.3.95.7.2H39l-.05-.35.15-.45.45.9.1 1.3v.05q-.15-.25-1.05-.65-.8-.3-.8-.8 0-.2.45-.2"/><path fill="#e5bd5c" d="m42.95 9.3-.15-.2-.05-.05v.05l-.15.35-.35.3q-.4 0-.4-.5 0-.3.3-.3l.5.1.05-.05-.45-.3-.6-.2q-.25 0-.25.65 0 .4.25.7t.6.3q.45 0 .5-.5l.05 1.1q-.6-.05-1.15-.7-.6-.7-.6-1.4l.1-.7.45-.1.75.5.45.6V9l.1.15z"/><path fill="#853030" d="m38.65 6.25.2.45q-.25 0-.9.4l-.6.4L37 7q0-.4.9-.75l.2-.2.1-.1q.25 0 .45.3m.5 1.35.25.35.25.45-.85.35q-.7.35-.75.45l-.3-.6q0-.3.7-.7zm1.3 2.7-.15-.1-.75.25-.9.4-.35-.55.05-.05q1.1-.65 1.45-.65l.3-.05.4.75zm-9.7-.65-.5-.55q.05-.3.85-1.1.75-.8 1.05-.9l.45.65zm1.45 1.45h-.05l-.85.2-.2-.1.7-.85.85-.75h.25l.45.65q-.45.05-1.15.85"/><path fill="#ff7298" d="m42.8 10.75-.05-1.1q-.05.5-.5.5-.35 0-.6-.3t-.25-.7q0-.65.25-.65l.6.2.45.3-.05.05-.5-.1q-.3 0-.3.3 0 .5.4.5l.35-.3.15-.35v-.05l.05.05.15.2H43l.25.9.1.4.1.7v.1h-.4l-.25-.05v-.6m.1-1.6L42.8 9v-.25q-.05-1 .35-1 .25 0 .25.5 0 1.05-.35 1.05H43z"/><path fill="#5f2f12" d="M38.5.55q2.7 4.75 2.9 5.85l-.7.3q0-.75-2.25-5.75l-.05-.1-.05-.05zm-4.8 1.1L34.45 6l-.5.1-.05-.2-.35-2.1-.4-2.15zm-6.9.1-.1 5.8q-.1 1.5-.35 1.3.3-.4-.65-.1l.7-6.95zm-8.35 5.2V6.9l.85-2.55.9-3 .6.15-1.95 6.3-.65-.25z"/><path fill="#311707" d="m37.9 1.15-.35.85-.2 1-1.15-.95-.7-.35 1.15-.25zm.15 4.25.6.5H38zm1.75-.5-1.45-1.05L39 2.7zm-4.2 1.05-1.3.1-.25-2.8 2.2 1.2zm-1.6.2L32.5 4.9l1-1.4zM30.65 3.4l-1.1-.75-1.1-.8L32 1.8zM27.55 6l-.85.75.1-2.95 1.8 1.25zM25.3 1.7l-1.1.7-1.15.9-.05-.05-.95-1.75 3 .25zm.55 5.2L24.8 4.85l.75-.65.85-.65zm-6.7-5.6q-1.45.95-1.6 1.15v.05L17.2.7l1.2.35zm-.35 4.6-.55-1.75q.8-.7 1.45-1-.45.9-.9 2.75m1.3-.9-.65.55Q20 3.4 20.4 2.9l.95 1.35Q21 4.3 20.1 5m.05 2.95h-.35l2.4-1.8 1.6 2.5zm-4.55-5-.55.65-.8 1.15 1.1-2.65zm1.05 4.1-2.05-.6q.45-.55 1.55-1l.2.8z"/><path fill="#a34246" d="m16.15.55.65 3.25h.05q1.4-1 3.1-2.05l.05.45-2.95 2.1.1.35.35 1.3.5 1.35-.7-.2-.65-1.85-.15-.55-.1.05-2.15 1.55-.1-.1-.15-.15.1-.15 2.2-1.75h.05q-.55-1-.55-2.55l.25-.9zm.25 3.7V4.1l-.05.05zM38.85 1.7 38 4.4l1.95 1.35.75.7h-.3l-1.35-.9-1.15-.85-.25 1H37l.25-.9.1-.35-3.4-1.65-.05-.9q.65.1 3.6 2.15l1.05-2.8zm-5.5 1.05-2.15 2.2-.05.05 1.65 1.1-.3.05-.6.1-1.15-.7L29.2 7.3l-1.2.5 2.1-2.5.15-.15-3.35-2.1V2.2l3.8 2.5 2.5-2.6zm-7 .05-3.3 2.3 1.55 2.35 1 1.55-.8-.15-.25-.2L22.5 5.5l-3.2 2.3-.35-.15 3.3-2.6q-1.4-2-1.6-2.75l.2-.55 1.95 2.9q2.4-1.7 3.3-2.3z"/><path fill="#b67676" d="m27.55 32.75-.15-.85 5.85.65 2.4-.1 3.75-.4 5.85-1.35q3.85-1 5.9-2.25l.2.8q.05.35-3 1.4l-6.15 1.7-7.65.95zM12.1 30.9l-.2.8-.35-.05q-1.3-.1-4.45-1.25t-4.5-2.8l.35-.75q.95 1.55 4.7 2.95z"/><path fill="url(#K)" d="m31.65 29 .4-.3.1.05v.05l.25.2h.85l-.7-.35h-.2l.25-.1.85-.5v.05l1.7.2.2-.05h.05q-1-.55-1.35-.5h-.15l.1-.05v-.1l.1-.05.8.15q.7.1 1 .35l.65-.1.05.4-.15.5h-.05q-.3.05-.2-.15l.1-.25q0-.25-.35-.15l-.4.75-.1.4v.1l-.4.15h-.25l.1.5-.2-.75q.05-.85-.55-.75-.6.05-.6.4l.25.8.25.7-.15.4q-.4-.25-.5-.85 0-.55-.4-.65-.75-.45-1.35-.5m2.05 2.4h-.15l-.1.05.35-.4z" transform="translate(17.3 1.05)"/><path fill="#d4a7a7" d="M32.35 32.8v-.05h.05zm4.65.25V33l.05.05.1.1-.05.05zm1.6-.15.05.1.1-.1.2.1.55.7-.8-.45-.15-.25zm1.45-.15.45-.2.15.05.6.55.4.45.15.2h-.05l-.2-.05h-.05q-1.4-.75-1.45-.95zm1.15.05q-.05-.3.05-.4h.1l.2.65h.05l.05.05v.05l-.2-.15zm8.25-3h.1l.1-.1h.2l.7.35h-.85l-.25-.2zm1.3-.7.45-.3h.15q.35-.05 1.35.5h-.05l-.2.05-1.7-.2zm3 .8-.55.4h-.3l-.15.2.1-.4.4-.75q.35-.1.35.15l-.1.25q-.1.2.2.15zM42.5 34.95l-.05.05-.6.1-.1-.05-.2-.1-.15.15.2-.4.35-.4q.2-.2.35-.2.3.05.2.3l-.2.25q-.1.15.15.3zm-13.35-1.8v-.05h.1l.3-.6h.05v.6l-.25.35-.65.9.25-.8zm8.55.65.05.05.6.65.3.5h-.15l-.1-.05-.35-.25-.2-.15-.75-.7.05-.55v-.2l.1.15zm5.9-1.15v-.05l.1-.05q0-.15-.05 0l-.05-.65.1-.05.25.5v.45l-.1 1.1-.15-.85z"/><path fill="#bd9f9f" d="M33.15 33.3v-.15l.1.15.1.25v.05l.1.55-.05.65-.05.15-.2.45-.25.9.75-.2q1.15-1.1 1.75-1.15h.25l-.1-.2-.1-.1-.25-.3.7.6-.05-.05v.15l-.7 1.05-.1-.3q-.1-.2-.95.2l-.65.25-.9.15-.3-.15.05-.1.4-.45.05-.15-.05.05-.55.2-.25.1-.35.15-.2.05-.05.05-.1-.2-.15-.2v-.25l-.65-.85h.05l-.05-.15v.15q-.1.35-.3.1-.25-.35.05-.95l.05-.6v-.3q.3.35.25 1.55l.7-.7 1-.3h.25l.1.05.2.1-.1.2-.2.3q-.2.2.35.45l.3.4v.15l.05-.15.05-.2.05-.4.1-.85-.15-.05-.05-.05zm4.25-.3.25.05.3-.05 1.1 1.15q.35.3.2.9v.15l-.05-.05-.55-.75.15-.1q-.7-.9-1.45-1.1l-.1.05.1-.1zm9.95-2.2h.05l.35.45.45 1.2.25.95.55-.6q.3-1.55.9-1.85l.2-.15q-.95-.5-1.65-.35l-.1.05.05-.1v-.15l.25-.05.3-.15q.6.05 1.35.5.4.1.4.65.1.6.5.85l.15-.4-.25-.7-.25-.8q0-.35.6-.4.6-.1.55.75l.2.75-.3.7-.9.5.1-.35-.35.4h-.25v.05h-.05l-.1.05.2-.85v-.35l-.05.2-.05.65-.2.45h.1l-.65.6-1.2.4-.15-.05h-.15l-.35.05-.05-.1.15-.8-.35.55q-.45.4-.4.55l-.2.1v.05l-.2-.1-.35-.1-.25.35-.5.3-.15-.05-.2.05q-.3 0-.45.25l.15-.35-.2-.35-.2-.4q-.05-.2.3-.25l.55-.15-.1-.1H45q-.2-.05-.2-.45l-.3-.6-.1-.2q.4.15 1 1.15l.2-.95q.55-.9.9-.9l.35-.05.05.2-.05.4q-.05.25.55.25.4 0 .55.3l-.25-.7zm-3.1 4.4-.45-.3-.9-.2-.2.05.15-.3.1-.45q-.3.1-.65-.2l-.65-.65v-.05l.3.2.35.15.35.2.85.45.45.35-.1-.25.3.45.05.05v.05l.05.3zm-1.8-.2-.15.4-.2.15h-.05L42 35.5l-.05.05h-.05v-.1l-.05-.1-.1-.3.1.05zm-1.65.6q-.55-.4-.75.15l-.55.8v-.1l.05-.4.15-.25.05-.3.05-.1h-.05l-.1-.45q-.1-.55.05-1.05.15-.35.7-.15.65.1.3 1.05-.2.55.1.8m-3.45 1.35q-.95-.45-1.1-.25-.2.2-.4.2l.25-.2.1-.2.1-.15v-.05q.25-.35.1-.7l.2-.8.75-.05.35.3-.25.6-.05.15-.4.25-.1.45zm-9-1.55-.35-.45-1.4-.1-.3.05-.05-.05.05-.05h-.1l-.1-.3.15-.25v-.05l.25-.2.15-.1.45-.15 1.3-.45.75-.15-.15.1-.35.8-.1.55.1.4-.15.3-.05.05zm15.25-2.75-.05.15.05.75-.15-.35-.15-.2zm.15 1.4.1.15-.35-.35z"/><path fill="url(#L)" d="m30.1 29.75.05-.05.95-.5v.15l-.05.1.1-.05q.7-.15 1.65.35l-.2.15q-.6.3-.9 1.85l-.55.6-.25-.95-.45-1.2z" transform="translate(17.3 1.05)"/><path fill="#eec0c0" d="m50.45 32.55-.1.15h-.1l.2-.45.05-.65.05-.2v.35l-.2.85zm-2.6 1.15-.35.1-.5.2.2-.1q-.05-.15.4-.55l.35-.55-.15.8zm-5.8 1.85-.1.1v-.1l.05-.05zM35 36.65l-.1.05-.1-.05.1-.1q.05-.1.15-.1l.15-.05.3-.4.1-.15.15-.1-.2.25-.5.55-.1.05zm-2.75-.4-.35-.05h-.1l-.45-.1.2-.05.35-.15.25-.1.55-.2.05-.05-.05.15-.4.45zm-2.7-.1h-.1v-.05l.1-.05v.1m-3.3-1.3h-.1l.05-.05h.1zm0-.65.6-.5.25-.2-.35.3-.1.1-.15.1z"/><path fill="url(#M)" d="m24.7 31.25-.05-.15 1.75-.3h.05l.2-.05h.2l.1-.05.25-.1h-.15l1.7-.5 1.3-.35.35.8.25.7q-.15-.3-.55-.3-.6 0-.55-.25l.05-.4-.05-.2-.35.05q-.35 0-.9.9l-.2.95q-.6-1-1-1.15l.1.2.3.6q0 .4.2.45h.4l.1.1-.55.15q-.35.05-.3.25l.2.4.2.35-.15.35-.3.3-.15.15h-.2V34l-.05-.3v-.05l-.05-.05-.3-.45-.1-.15h.05l-.1-.25-.1-.25-.05-.75.05-.15.1.4.15.85.1-1.1v-.45l-.25-.5-.1.05.05.65q.05-.15.05 0l-.1.05v.05l-.3.35-.3-.9z" transform="translate(17.3 1.05)"/><path fill="url(#N)" d="m23.95 31.35.75-.1 1-.2.3.9.15.2.15.35.1.25.1.25h-.05l-.25-.2.35.35.1.25-.45-.35-.85-.45-.35-.2-.35-.15-.3-.2-.05-.05h-.05l-.2-.65z" transform="translate(17.3 1.05)"/><path fill="url(#O)" d="m15.2 32.15.45.1h.2l-.05.1.05.05-.65-.15zm.75.1H16l.3-.15v.3l-.2.05-.05.05zm.65-.2.6-.15.1.05.35.05.7.05h.7l.65-.05.1.15-.65.65H19l-.2-.05h-.25l.15.1.4.6-.25.2-.35-.3v.05q.35.1.35.9l-.25-.4-.7-.6-.8-.55H17l.1-.1.1-.1z" transform="translate(17.3 1.05)"/><path fill="url(#P)" d="m19.75 32 .35-.05-.05.15-.1.1.1-.05q.75.2 1.45 1.1l-.15.1-.15-.1-.55-.5-.05-.05h-.15l-.05.05-.45-.55-.1-.15v.05z" transform="translate(17.3 1.05)"/><path fill="url(#Q)" d="m20.65 31.95.55-.15.1.05-.05.1.15.25.8.45-.55-.7-.2-.1h.3l1-.15v.05q.05.2 1.45.95h.05l.2.05h.05l-.15-.2-.4-.45-.6-.55-.15-.05h.15v-.05h.15l.4.3.25.2.2.15.65.65q.35.3.65.2l-.1.45-.15.3-.2.2h-.05q-.25-.15-.15-.3l.2-.25q.1-.25-.2-.3-.15 0-.35.2l-.35.4-.2.4-.05.05v.1h-.55l-.1-.15.15.55-.05-.05q-.3-.25-.1-.8.35-.95-.3-1.05-.55-.2-.7.15-.15.5-.05 1.05l.1.45-.5-.2V34q.15-.6-.2-.9zm1.8 2.5-.05.3-.15.25.05-.2.05-.1z" transform="translate(17.3 1.05)"/><path fill="url(#R)" d="m9.55 32.65.15-.25.35-.55.15-.4h2.1l.05.05.25.05.15.1.1.05.3.05-.05-.05 1.6.45.25-.2.25.2v.1l.65.15.15.05-.1.85-.05.4-.05.2-.05.15v-.15l-.3-.4q-.55-.25-.35-.45l.2-.3.1-.2-.2-.1-.1-.05h-.25l-1 .3-.7.7q.05-1.2-.25-1.55v.3l-.05.6q-.3.6-.05.95.2.25.3-.1v-.15l.05.15h-.05l.65.85v.25l-.2.3-.8.1h-.5V35l-.1.05v.05Q11 35 11 34.5l.05-.05v-.1l.1-.05.05-.05.15-.3-.1-.4.1-.55.35-.8.15-.1-.75.15-1.3.45-.45.15.1-.1.35-.3zm2.3-.55-.2.4-.25.8.65-.9.25-.35v-.6h-.05l-.3.6h-.1z" transform="translate(17.3 1.05)"/><path fill="url(#S)" d="m22.2 35.5-.3-.15q-.25-.25-1.2.6h-.45l-.2-.05-.45-.45.1-.45.4-.25.05-.15.25-.6-.35-.3-.75.05-.2.8q.15.35-.1.7v.05l-.1.15-.1.2-.25.2-.25-.05-.15-.1H18l-.2-.15-.05.05h-.05l-.05-.05.1-.05.5-.55.2-.25-.15.1-.1.15-.3.4-.15.05q-.1 0-.15.1l-.1.1.1.05-.35.05.25-.3.2-.15.15-.2.7-1.05v-.15l.05.05.25.4q0-.8-.35-.9v-.05l.35.3.25-.2-.4-.6-.15-.1h.25l.2.05h.15l.65-.65.05-.05v-.05.2l-.05.55.75.7.2.15.35.25.1.05h.15l-.3-.5-.6-.65-.05-.05.05-.05h.15l.05.05.55.5.15.1.55.75.05.05.5.2h.05l-.05.1-.1.25-.05.1-.05.2-.05.4zm-1.6.55h-.05z" transform="translate(17.3 1.05)"/><path fill="url(#T)" d="m16.3 32.1.2-.05h.1l.6.5-.1.1-.1.1h.1l.8.55.25.3.1.1.1.2h-.25q-.6.05-1.75 1.15l-.75.2.25-.9.2-.45.05-.15.05-.65-.1-.55v-.05l.05-.05.2-.05z" transform="translate(17.3 1.05)"/><path fill="#bd9f9f" d="m6.55 29.9-.4.8-.25.7q.15-.3.55-.3.6.05.55-.2l-.05-.4.05-.2.35.05q.35 0 .9.9l.2.95q.6-1.05 1.05-1.15l-.15.25-.3.55-.2.45h-.4l-.1.1.55.15q.3.1.25.3l-.2.35-.2.35.15.35q-.15-.25-.45-.25l-.2-.05-.15.05-.5-.3-.25-.35-.35.1-.2.1v-.05L6.6 33q.05-.15-.35-.55l-.35-.55.1.8-.05.1-.35-.05h-.15l-.15.05q-.55 0-1.15-.45l-.65-.6h.1l-.2-.45-.05-.65-.05-.2v.35l.2.85-.1-.05h-.05v-.05H3.1l-.35-.4.1.35-.9-.55-.3-.7q.25-.2.25-.75-.05-.85.55-.7.6.05.6.4l-.25.8-.3.7.15.4q.4-.25.5-.85.05-.55.45-.65.75-.45 1.35-.45l.3.15.25.05v.15l.05.1-.1-.05-1.65.3.2.15q.55.35.85 1.9l.55.6q.2-.4.25-.95t.45-1.2l.4-.45zm3.15 4.25-.05-.1q-.05-.5.3-.65l.25-.55.1-.85-.05-.15.55.55.85 1.05.35.55.1.3v.05l-.05.25-.2.2-.05-.05-.05.05h-.05l-.2-.15q-.8-.8-1.25-.65z"/><path fill="#d4a7a7" d="m10.25 31.85-.1.4-.2.85L9.9 32v-.45l.25-.5.1.05-.05.65q-.05-.15-.05 0l.1.05zm-9.1-2.35L1 29.3H.7q-.35-.1-.55-.4H.2l.2-.15-.1-.25q0-.25.35-.15l.4.75zm1.6-1.65.4.3v.05l-1.7.15-.2-.05H1.2q1.05-.5 1.4-.45zm1.5.9.1.1h.1v.05l-.25.2h-.85l.7-.35z"/><path fill="#eec0c0" d="m11.9 33.5.2.8-.1-.3-.1-.35-.15-.45zm-.05 1.3v.1l-.1-.1.05-.05zM6.8 33.15l-.5-.25-.35-.1.05-.1-.1-.8.35.55q.4.4.35.55zm-3.3-1.4-.1-.15.1.05-.2-.85v-.35l.05.2.05.65.2.45z"/><path fill="url(#U)" d="m-10.75 28.85 1.25.4 1.7.55h-.15l.25.1.1.05h.2l.2.05h.05l-.25.5v.45l.05 1.1.2-.85.1-.4.05.15-.1.85-.25.55q-.35.15-.3.65l.05.1-.25.25h-.1l-.15-.15-.3-.35-.15-.35.2-.35.2-.35q.05-.2-.25-.3l-.55-.15.1-.1h.4l.2-.45.3-.55.15-.25q-.45.1-1.05 1.15l-.2-.95q-.55-.9-.9-.9l-.35-.05-.05.2.05.4q.05.25-.55.2-.4 0-.55.3l.25-.7zm3.6 1.15 1.75.35v2.1l-.15-.3.15.45.1.35-.35-.55-.85-1.05-.55-.55v-.05l-.1-.05q0-.15.05 0l.05-.65z" transform="translate(17.3 1.05)"/><path fill="url(#V)" d="m-14.2 30.5-.1-.05h-.15l-.1-.35zm-1.45-1.3.15-.5h-.25l-.4-.15v-.1l-.1-.4-.4-.75q-.35-.1-.35.15l.1.25-.2.15h-.05l-.15-.5.05-.4.65.1 1.05-.35.8-.1.1.05v.1l.1.05h-.15q-.35-.05-1.4.45h.05l.2.05 1.7-.15v-.05l.85.5.25.1h-.2l-.7.35h.85l.25-.2v-.05h.1l.4.3q-.6 0-1.35.45-.4.1-.45.65-.1.6-.5.85l-.15-.4.3-.7.25-.8q0-.35-.6-.4-.6-.15-.55.7 0 .55-.25.75" transform="translate(17.3 1.05)"/><path fill="url(#W)" d="m-11.8 28.3.95.5.05.05-.4.45q-.4.65-.45 1.2t-.25.95l-.55-.6q-.3-1.55-.85-1.9l-.2-.15 1.65-.3.1.05-.05-.1z" transform="translate(17.3 1.05)"/><path fill="#9a7e21" d="M16.55 3.9Q16 2.9 16 1.4l.05-.9.3-.5.65 3.55-.4.3zm.5-.35 3.05-2 .05.45-2.9 2.05.1.35.35 1.25.7 1.8v.05l-.55.1-1-2.6-.15-.55.5-.35-.05-.1zm-.45.95-2.55 1.8-.1-.3.1-.1.3-.3 2.15-1.7zm21.2-.35 2.85 1.8q.45.4.15.55l-.45-.25-1.5-1-1.15-.8-.3 1.35-.85.1.2-.3.35-1.05.1-.35-3.35-1.65-.05-.85 3.55 2.1 1.1-3.05.2.75zl-.45-.35-.15.4.5.25zM33.25 2.5l-2.1 2.2-.05.05 2.05 1.35.15.15-.75.15-1.85-1.15-1.55 1.8-.25.25-.75.3-.5.3 2.4-2.85.15-.15-3.3-2.1V2l3.75 2.45L33.1 1.9zM30.2 4.9l.5.35.4-.5-.45-.3zm-3.8-2.35-3.25 2.3 1.5 2.3 1.2 1.8-.1.05q-.55.05-.85-.3l-.6-.9-1.7-2.6-3.25 2.35-.05.05-.25.1v.05l-.1-.2q0-.3 3.4-2.75-1.35-2-1.55-2.7l.2-.55 1.9 2.85 3.4-2.35zM22.9 4.4l-.5.35-.05.05.15.25.1.15.55-.35z"/><path fill="#725c15" d="M17 3.55h.05l.1.45.05.1-.5.35-.1.05-.1-.6h.05l.05.1v-.15zm20.8.6-.1.3-.5-.25.15-.4zm-7.6.75.45-.45.45.3-.4.5zm-7.3-.5.25.45-.55.35-.1-.15-.15-.25.05-.05z"/></g></defs></svg>