<svg xmlns="http://www.w3.org/2000/svg" xmlns:ffdec="https://www.free-decompiler.com/flash" xmlns:xlink="http://www.w3.org/1999/xlink" ffdec:objectType="frame" width="40.85" height="20.5"><use ffdec:characterId="1" xlink:href="#a" width="40.85" height="20.5"/><defs><linearGradient id="b" x1="-819.2" x2="819.2" gradientTransform="rotate(90 1.65 7.2)scale(.0125)" gradientUnits="userSpaceOnUse" spreadMethod="pad"><stop offset="0" stop-opacity=".6"/><stop offset="1" stop-opacity="0"/></linearGradient><g id="a" fill-rule="evenodd"><path fill="#992d62" d="m13.7.3 1.8.2q5.45.5 10.15.15h.05l2.2-.2L30.15 0l9.25 8.75 1.3 1.2q.05.75-.25 1.05.6.6.25 1.2l-.45.5q0 1.3-.75 1.3-.05.9-1.15.9l-.3.35-1.3.1q0 1.3-.85 1l-.05.05q-.5.6-1.3.45l-.65-.25q-.3.85-.95.7l-.7-.25-.95.1-.35-.45q-.55 1.15-1.6.65-.45.95-1.1.4l-.45.4q-.6.35-1.2-.45l-.1.1q-.45.3-1.05-.9v-.05l-.6.45q-.75.3-1.35-.45-.55.9-1.45.25-.35 1.15-1.2.8-.2 1.2-1.35.6-.1 1.3-1.35 1.05-.35.8-1 .65l-.5-.25-.75.5q-.35.1-.65-.3l-1.2.1-.15-.65q-.8.05-.8-.4l.1-.45q-.8.15-1.05-.25v-.3q-.6.25-.9 0l-.35-.35-1.1.1-.1-.6q-1-.15-.6-.75l.65-.55-.15-.4h-.35l-1.2.05q-.45.55-.8.15l-.4-.45-.75-.05-.15-.35-.95.1-.25-.3-1.1.15-.15-.45-.7-.05q-.65-.25-.25-1.1l-.45-.25q-.3-.35.1-.75l-.4-.15-.3-.4q-1 .2-1.05-.4l.15-.65-.45-.25-.15-.4.05-.1.2-.35-.2-.35q-.15-.25.2-.4L12.9.2z"/><path fill-opacity=".298" d="m30.15 0 7.6 9.9.65.45.25-.3.55-.25q.35-.4-.25-.9l.45-.15 1.3 1.2q.05.75-.25 1.05l-.35.1q-.2.8-1.15.65.4.35.2.6l-.25.25.05.55-.15.35-.6.15v.5l-.05.15q-.2.55-1.05.2L27.9.45zM6.1 15.35 5.95 15l-.95.1-.25-.3 2.05-1.6.25.25q.55.2 1.15-.25l.15.2-.25 1.8.8-1.3 1.1-.2q.3.35.6.2l-.55 1.35 1.35-1.4q-.25.35-.05.7l.4.35.05.35q.1.65.65.75l.7-.15q-.05.9.7.95l-.65 1.95q-.8.15-1.05-.25v-.3q-.6.25-.9 0l-.35-.35-1.1.1-.1-.6q-1-.15-.6-.75l.65-.55-.15-.4h-.35l-1.2.05q-.45.55-.8.15l-.4-.45zM12.9.2l.8.1-8.45 11.1-.55-.05q-.45.1-.5.75-.05.7-.65.6-.6-.15-.55-.7l-.8.35-.4-.15-.3-.4q-1 .2-1.05-.4l.15-.65-.45-.25-.15-.4.05-.1.2-.35-.2-.35q-.15-.25.2-.4l.15-.1.55.3q-.65.45-.35.85l.5.35.2.3q.25.15.7-.35l8.95-8.7zm21.2 13.05q.35.25.25.8v.45l.15.25 1.35 1.65q-.5.6-1.3.45l-.65-.25q-.3.85-.95.7l-.7-.25-.95.1-.35-.45q-.55 1.15-1.6.65-.45.95-1.1.4l-.45.4q-.6.35-1.2-.45l-.1.1.35-4.55.05-.15q1.35.15 1.9-.95l1.3 2.6-.65-3.15q.2-.3-.15-.6l.4-.4.45-.2.2.75q.35.75.75.8h.45L31.9 14l.2-2.1.85-.05q-.35 1.1.65 1.3zm-8.35.5.45.2-.75 2.95v-.05l-.6.45q-.75.3-1.35-.45-.55.9-1.45.25-.35 1.15-1.2.8-.2 1.2-1.35.6-.1 1.3-1.35 1.05-.35.8-1 .65l-.5-.25-.75.5-.55-3.65q.5.15 1.15-.7.95 1.05 1.8-.35.55.3.85-.5h.6l.2-.1.4 2.75.6-2.85q.45.05.85-.3.8.8 1.1.15.5.45 1.6-.5.95.65 1.25-.65"/><path fill-opacity=".498" d="m35.9 16.35-.05.05-1.35-1.65.35.05q.6.05.75-.5.55.7 1.05.45l.45-.25q.85.35 1.05-.2l.05-.15v-.5l.6-.15.15-.35-.05-.55.25-.25q.2-.25-.2-.6.95.15 1.15-.65l.35-.1q.6.6.25 1.2l-.45.5q0 1.3-.75 1.3-.05.9-1.15.9l-.3.35-1.3.1q0 1.3-.85 1m-3.8-4.45-.2 2.1-.35-2.05.25-.65zm-6.65 5 .75-2.95.65-.7-.35 4.55q-.45.3-1.05-.9m4.65-2.15-1.3-2.6.05-.2.6-.35zm-9.15.3-.6 2.85-.4-2.75.05-.05.35-.5.4.35zm-6 1.45.4.3.55 3.65q-.35.1-.65-.3l-1.2.1-.15-.65q-.8.05-.8-.4l.1-.45.65-1.95h.2zM5.2 11.75l.25.4.1.55q.3.55 1.15.4l.1.1-2.05 1.6-1.1.15-.15-.45-.7-.05q-.65-.25-.25-1.1l-.45-.25q-.3-.35.1-.75L3 12q-.05.55.55.7.6.1.65-.6.05-.65.5-.75l.55.05zm3.4 1.95.3.2-.8 1.3.25-1.8zm2 .2.55-.8.4.55-.15.2-1.35 1.4z"/><path fill-opacity=".047" d="M18.35.7 16.5 16.1q-.65.85-1.15.7l-.4-.3-.9.3h-.2q-.75-.05-.7-.95l-.7.15q-.55-.1-.65-.75l-.05-.35-.4-.35q-.2-.35.05-.7l.15-.2-.4-.55L15.5.5zm7.3-.05 3.65 10.3V11l.05.05q.3.25.1.55l-.6.35-.05.2q-.55 1.1-1.9.95l-.05.15-.65.7-.45-.2q-.3 1.3-1.25.65-1.1.95-1.6.5L22 .8z"/><path fill="url(#b)" d="m6.8-4 3.65.1h.95l.9-.05.85-.05h.5l.45-.05h.05l2.2-.2 2.25-.45 9.25 8.75 1.3 1.2q.05.75-.25 1.05.6.6.25 1.2l-.45.5q0 1.3-.75 1.3-.05.9-1.15.9l-.3.35-1.3.1q0 1.3-.85 1l-.05.05q-.5.6-1.3.45l-.65-.25q-.3.85-.95.7l-.7-.25-.95.1-.35-.45q-.55 1.15-1.6.65-.45.95-1.1.4l-.45.4q-.6.35-1.2-.45l-.1.1q-.45.3-1.05-.9v-.05l-.6.45q-.75.3-1.35-.45-.55.9-1.45.25-.35 1.15-1.2.8-.2 1.2-1.35.6-.1 1.3-1.35 1.05-.35.8-1 .65l-.5-.25-.75.5q-.35.1-.65-.3l-1.2.1-.15-.65q-.8.05-.8-.4l.1-.45q-.8.15-1.05-.25v-.3q-.6.25-.9 0l-.35-.35-1.1.1-.1-.6q-1-.15-.6-.75l.65-.55-.15-.4h-.35l-1.2.05q-.45.55-.8.15l-.4-.45-.75-.05-.15-.35-.95.1-.25-.3-1.1.15-.15-.45-.7-.05Q-9.4 9.5-9 8.65l-.45-.25q-.3-.35.1-.75l-.4-.15-.3-.4q-1 .2-1.05-.4l.15-.65-.45-.25-.15-.4.05-.1.2-.35-.2-.35q-.15-.25.2-.4L1.35-4.5l.8.1 1.8.2.25.05z" transform="translate(11.55 4.7)"/></g></defs></svg>