<?xml version="1.0" encoding="UTF-8" standalone="no"?>
<svg xmlns:ffdec="https://www.free-decompiler.com/flash" xmlns:xlink="http://www.w3.org/1999/xlink" ffdec:objectType="frame" height="22.5px" width="20.75px" xmlns="http://www.w3.org/2000/svg">
  <g transform="matrix(1.0, 0.0, 0.0, 1.0, 0.45, -3.15)">
    <use ffdec:characterId="1" height="22.5" transform="matrix(1.0, 0.0, 0.0, 1.0, -0.45, 3.15)" width="20.75" xlink:href="#shape0"/>
  </g>
  <defs>
    <g id="shape0" transform="matrix(1.0, 0.0, 0.0, 1.0, 0.45, -3.15)">
      <path d="M17.55 3.2 Q18.0 4.8 19.6 6.4 L20.3 7.05 20.2 7.6 20.15 7.85 Q18.6 7.45 17.35 4.75 L17.3 4.05 17.3 3.45 17.3 3.2 17.55 3.2 M20.1 8.15 L19.85 9.4 19.4 11.7 18.75 14.7 18.25 17.1 17.9 18.9 17.95 18.95 17.9 19.45 17.7 20.5 17.75 21.9 17.7 22.05 17.15 23.0 16.95 23.35 16.95 23.7 17.15 24.45 17.0 25.05 16.85 25.25 16.75 25.35 16.7 25.35 16.45 25.55 15.5 25.55 15.45 25.55 14.9 25.2 15.25 24.85 15.25 24.75 14.8 24.0 Q15.7 24.05 16.6 23.55 L15.4 23.65 15.2 23.65 15.15 23.35 15.1 23.3 14.9 23.2 14.85 23.1 14.65 22.8 14.7 22.7 14.9 22.65 15.65 22.5 15.85 21.8 15.85 21.7 15.7 21.4 15.45 21.15 15.2 20.95 15.2 20.9 15.15 20.85 15.15 20.15 15.2 19.85 15.2 19.4 15.25 18.95 15.35 17.95 Q15.0 19.55 14.95 21.1 L14.85 21.1 14.8 21.1 15.05 21.5 15.3 22.0 15.15 22.25 14.7 22.1 Q14.15 22.1 14.05 22.45 L12.3 22.05 12.55 21.3 12.65 21.3 12.65 21.2 13.05 20.7 13.05 20.6 13.05 20.3 12.95 20.05 Q12.25 18.85 12.3 17.65 L12.35 17.65 12.45 17.65 12.4 17.25 12.4 17.05 Q12.15 15.2 12.6 13.35 L12.8 11.7 Q12.75 10.4 13.2 9.25 L13.2 9.2 12.05 9.0 11.9 8.9 Q12.5 8.5 12.8 8.45 L14.55 8.0 12.15 8.15 12.1 8.15 11.5 7.85 10.15 7.35 10.1 6.7 10.55 6.75 10.1 6.75 10.75 6.75 12.25 6.4 10.05 6.35 10.05 5.5 10.2 5.5 Q12.95 5.0 15.05 3.3 L15.2 3.2 17.0 3.2 17.1 5.25 17.1 6.9 16.95 8.55 16.65 11.65 16.25 14.45 15.55 17.6 15.45 17.95 15.65 18.0 16.4 14.85 17.05 10.75 17.35 7.2 17.35 6.75 17.35 5.4 18.95 7.5 Q19.65 8.1 20.1 8.15 M10.8 8.2 L10.2 8.3 10.2 8.0 10.8 8.2 M2.55 3.15 L3.45 3.15 3.45 3.2 9.7 3.2 9.65 3.7 Q8.6 4.15 7.65 4.75 L6.65 5.35 9.6 5.5 9.65 6.35 7.9 6.3 9.7 6.6 9.7 7.0 9.75 7.2 8.0 6.75 8.05 6.8 9.8 7.8 9.85 8.35 9.35 8.4 9.05 8.25 8.1 8.0 7.15 7.85 7.35 9.95 7.2 13.15 7.15 16.25 Q7.2 17.05 7.65 17.7 L8.05 18.15 Q8.55 18.65 8.0 18.5 L7.9 18.5 7.25 18.35 7.5 18.75 Q8.25 20.3 7.8 20.55 L6.95 20.75 7.45 21.35 7.7 22.1 Q6.95 22.7 5.9 22.6 5.85 22.15 5.25 22.15 L4.8 22.3 4.6 22.05 4.9 21.55 5.2 21.1 5.15 20.45 5.05 20.0 5.0 19.25 4.85 18.4 4.7 17.95 4.05 14.85 3.5 10.9 3.3 7.1 3.3 6.6 3.25 6.65 3.05 6.8 3.0 6.85 2.95 7.0 2.95 7.55 3.1 10.35 Q3.15 12.05 3.75 14.55 L4.45 17.55 4.55 18.0 4.7 19.45 4.8 20.85 4.75 20.95 4.7 21.0 Q4.25 21.3 4.05 21.75 L4.05 21.85 Q4.0 22.25 4.25 22.55 L5.05 22.7 5.2 22.7 5.3 22.85 5.1 23.15 5.05 23.25 4.85 23.35 4.8 23.4 Q4.7 23.75 4.85 23.9 L4.95 23.9 5.05 23.9 5.05 23.95 5.15 23.9 5.9 22.75 8.05 22.65 8.05 22.7 7.1 23.5 Q7.7 23.4 7.95 23.65 L6.15 25.0 5.15 25.15 5.0 24.7 5.05 24.65 Q5.65 24.3 5.7 23.75 L5.35 23.8 4.65 24.8 4.65 24.9 5.1 25.25 Q5.4 25.35 4.55 25.55 L3.45 25.6 3.2 25.4 3.15 25.4 3.05 25.3 2.9 25.1 2.7 24.5 Q2.7 24.05 2.95 23.75 L2.95 23.4 2.7 23.05 2.15 22.1 2.1 21.95 2.15 20.55 1.95 19.5 1.9 19.0 1.75 18.05 1.25 16.3 Q0.45 13.75 0.05 10.0 L-0.05 8.8 -0.25 8.1 -0.1 8.1 1.0 7.45 3.0 5.0 3.05 4.1 2.75 4.7 Q1.45 7.25 -0.15 7.75 L-0.3 7.8 -0.35 7.55 -0.45 7.0 -0.2 6.8 0.3 6.35 Q2.05 4.75 2.55 3.15 M-0.2 6.65 L-0.1 3.15 0.0 3.15 Q-0.25 4.2 -0.1 5.8 L-0.05 6.5 -0.2 6.65 M3.05 3.6 L3.1 3.25 3.05 3.45 3.05 3.75 3.05 3.6 M12.15 23.7 L12.05 23.6 13.2 23.7 13.85 23.9 14.3 24.0 14.9 24.6 14.95 24.65 14.8 25.1 14.1 24.8 Q12.9 24.4 12.15 23.7 M11.95 22.65 L11.95 22.6 13.85 22.7 14.05 22.7 14.65 23.65 13.85 23.5 Q12.85 23.25 11.95 22.65" fill="#1c2c4f" fill-rule="evenodd" stroke="none"/>
      <path d="M17.55 3.2 L17.8 3.2 17.85 3.35 Q18.35 4.9 19.65 6.25 L20.3 6.9 20.3 6.95 20.3 7.05 19.6 6.4 Q18.0 4.8 17.55 3.2 M20.15 7.85 L20.15 7.95 20.1 8.15 Q19.65 8.1 18.95 7.5 L17.35 5.4 17.35 4.75 Q18.6 7.45 20.15 7.85 M15.45 25.55 L15.15 25.45 15.0 25.4 14.0 25.2 13.6 25.05 11.9 24.7 11.45 24.75 11.35 24.75 10.65 24.75 10.25 24.15 10.0 23.5 10.7 22.5 10.5 21.5 10.3 20.8 10.4 20.45 10.45 20.35 Q10.55 20.2 10.65 20.2 L10.8 19.8 10.8 19.4 10.8 18.05 Q11.35 17.6 12.3 17.65 12.25 18.85 12.95 20.05 L13.05 20.3 13.05 20.6 13.05 20.7 12.65 21.2 12.65 21.3 12.55 21.3 12.3 22.05 14.05 22.45 Q14.15 22.1 14.7 22.1 L15.15 22.25 15.3 22.0 15.05 21.5 14.8 21.1 14.85 21.1 14.95 21.1 Q15.0 19.55 15.35 17.95 L15.25 18.95 15.2 19.4 15.2 19.85 15.15 20.15 15.15 20.85 15.2 20.9 15.2 20.95 15.45 21.15 15.7 21.4 15.85 21.7 15.85 21.8 15.65 22.5 14.9 22.65 14.7 22.7 14.65 22.8 14.85 23.1 14.9 23.2 15.1 23.3 15.15 23.35 15.2 23.65 15.4 23.65 16.6 23.55 Q15.7 24.05 14.8 24.0 L15.25 24.75 15.25 24.85 14.9 25.2 15.45 25.55 M5.9 22.6 L5.9 22.65 5.9 22.75 5.15 23.9 5.05 23.95 5.05 23.9 4.95 23.9 4.85 23.9 Q4.7 23.75 4.8 23.4 L4.85 23.35 5.05 23.25 5.1 23.15 5.3 22.85 5.2 22.7 5.05 22.7 4.25 22.55 Q4.0 22.25 4.05 21.85 L4.05 21.75 Q4.25 21.3 4.7 21.0 L4.75 20.95 4.8 20.85 4.8 21.1 5.0 20.15 4.8 19.05 4.8 19.0 4.7 18.75 4.7 18.35 4.8 18.35 4.85 18.4 5.0 19.25 5.05 20.0 5.15 20.45 5.2 21.1 4.9 21.55 4.6 22.05 4.8 22.3 5.25 22.15 Q5.85 22.15 5.9 22.6 M5.15 25.15 L5.1 25.25 4.65 24.9 4.65 24.8 5.35 23.8 5.7 23.75 Q5.65 24.3 5.05 24.65 L5.0 24.7 5.15 25.15 M-0.25 8.1 L-0.3 7.9 -0.3 7.8 -0.15 7.75 Q1.45 7.25 2.75 4.7 L3.05 4.1 3.0 5.0 1.0 7.45 -0.1 8.1 -0.25 8.1 M-0.45 7.0 L-0.45 6.9 -0.45 6.85 -0.2 6.65 -0.05 6.5 0.25 6.25 0.25 6.2 Q1.65 4.85 2.2 3.3 L2.25 3.15 2.55 3.15 Q2.05 4.75 0.3 6.35 L-0.2 6.8 -0.45 7.0 M11.95 22.65 Q12.85 23.25 13.85 23.5 L14.65 23.65 14.05 22.7 13.85 22.7 11.95 22.6 11.95 22.65 M12.15 23.7 Q12.9 24.4 14.1 24.8 L14.8 25.1 14.95 24.65 14.9 24.6 14.3 24.0 13.85 23.9 13.2 23.7 12.05 23.6 12.15 23.7" fill="#010612" fill-rule="evenodd" stroke="none"/>
      <path d="M0.0 3.15 L2.25 3.15 2.2 3.3 Q1.65 4.85 0.25 6.2 L0.25 6.25 -0.05 6.5 -0.1 5.8 Q-0.25 4.2 0.0 3.15" fill="#121f3c" fill-rule="evenodd" stroke="none"/>
      <path d="M17.8 3.2 L19.9 3.2 20.0 5.85 19.95 6.55 19.65 6.25 Q18.3 4.85 17.8 3.2" fill="#121f3c" fill-rule="evenodd" stroke="none"/>
      <path d="M12.65 18.55 Q13.15 19.95 12.85 19.55 L13.85 20.7 14.9 21.1 14.85 21.1 Q13.9 20.95 13.05 20.3 L12.85 19.75 12.55 18.25 12.65 18.55" fill="#1c2c4f" fill-rule="evenodd" stroke="none"/>
      <path d="M14.9 21.1 L15.0 21.15 15.05 21.2 15.15 19.45 Q15.2 17.9 15.6 16.6 L16.25 14.15 16.65 11.65 16.95 8.55 17.1 6.9 17.1 5.25 17.0 3.2 17.3 3.2 17.3 3.45 17.3 4.05 17.35 4.75 17.35 5.4 17.35 6.75 17.35 7.2 17.05 10.75 16.4 14.85 15.65 18.5 Q15.3 19.85 15.55 21.25 L17.55 21.6 17.25 21.7 16.35 21.7 16.15 21.7 15.35 21.65 14.45 21.55 12.5 21.2 11.0 20.7 Q10.9 20.45 10.9 21.0 L10.85 20.0 10.8 15.25 10.8 11.0 10.8 10.9 10.75 10.8 10.3 10.15 10.25 10.15 10.05 10.1 9.9 10.1 9.45 10.15 9.3 10.25 9.2 10.35 8.95 10.95 8.95 11.0 9.1 15.2 9.25 18.1 9.25 19.45 9.25 19.85 9.4 20.25 9.6 20.4 9.65 20.5 9.75 20.85 9.55 21.55 9.35 22.55 10.05 23.55 9.8 24.2 9.4 24.8 8.65 24.8 8.55 24.8 8.1 24.75 6.35 25.1 5.95 25.25 4.95 25.45 4.8 25.5 4.4 25.6 Q5.05 25.15 5.85 24.85 7.2 24.4 7.95 23.65 L6.8 23.75 6.1 23.95 Q4.6 24.3 3.3 23.6 L4.5 23.7 6.1 23.55 Q7.15 23.3 8.05 22.7 L8.05 22.65 6.1 22.75 5.05 22.7 7.7 22.1 7.45 21.35 7.35 21.35 7.35 21.25 6.95 20.75 6.95 20.65 Q6.9 19.45 7.2 18.25 L7.2 18.2 7.15 17.75 7.1 17.0 7.1 16.65 7.2 13.15 7.35 9.95 7.15 7.85 8.1 8.0 9.05 8.25 9.35 8.4 9.85 8.35 9.8 7.8 8.05 6.8 8.0 6.75 9.75 7.2 9.7 7.0 9.7 6.6 8.1 6.35 8.0 6.35 7.9 6.3 9.65 6.35 9.6 5.5 6.65 5.35 7.65 4.75 Q8.6 4.15 9.65 3.7 L9.7 3.2 10.05 3.2 10.05 3.5 10.75 3.2 15.2 3.2 15.05 3.3 Q12.95 5.0 10.2 5.5 L10.05 5.5 10.05 6.35 12.25 6.4 10.75 6.75 10.1 6.75 10.55 6.75 10.1 6.7 10.15 7.35 11.5 7.85 12.1 8.15 12.15 8.15 14.55 8.0 12.8 8.45 Q12.5 8.5 11.9 8.9 L12.05 9.0 13.2 9.2 13.2 9.25 Q12.75 10.4 12.8 11.7 L12.65 13.8 12.55 15.8 12.55 17.2 12.6 17.65 12.65 18.55 12.55 18.25 12.85 19.75 13.05 20.3 Q13.9 20.95 14.85 21.1 L14.9 21.1 M10.8 8.2 L10.2 8.0 10.2 8.3 10.8 8.2 M3.45 3.2 Q3.25 5.05 3.3 7.1 L3.5 10.9 4.1 14.65 4.75 17.95 4.85 18.45 5.15 21.1 4.85 21.15 4.75 21.2 4.7 19.45 4.55 18.0 4.45 17.55 3.75 14.55 Q3.15 12.05 3.1 10.35 L2.9 6.5 Q2.85 4.4 3.1 3.15 L3.45 3.2" fill="#010612" fill-rule="evenodd" stroke="none"/>
      <path d="M10.05 3.2 L10.75 3.2 10.05 3.5 10.05 3.2" fill="#1c1c1c" fill-rule="evenodd" stroke="none"/>
      <path d="M19.15 9.2 L18.9 9.3 18.55 9.15 18.4 8.8 Q18.4 8.6 18.55 8.45 18.7 8.3 18.9 8.3 L19.15 8.4 19.0 8.35 Q18.8 8.35 18.7 8.5 L18.55 8.8 18.7 9.1 19.0 9.25 19.15 9.2 M18.85 9.8 L18.7 9.75 Q18.5 9.75 18.4 9.9 L18.25 10.2 18.4 10.5 18.7 10.65 18.85 10.6 18.6 10.7 18.25 10.55 18.1 10.2 Q18.1 10.0 18.25 9.85 18.4 9.7 18.6 9.7 L18.85 9.8 M0.75 8.4 L1.0 8.3 1.35 8.45 1.5 8.8 1.35 9.15 1.0 9.3 0.75 9.2 0.9 9.25 1.2 9.1 1.35 8.8 1.2 8.5 Q1.1 8.35 0.9 8.35 L0.75 8.4 M1.05 9.8 L1.3 9.7 1.65 9.85 1.8 10.2 1.65 10.55 1.3 10.7 1.05 10.6 1.2 10.65 1.5 10.5 1.65 10.2 1.5 9.9 Q1.4 9.75 1.2 9.75 L1.05 9.8" fill="#000000" fill-rule="evenodd" stroke="none"/>
      <path d="M19.15 8.4 L19.25 8.45 19.3 8.5 19.45 8.8 19.3 9.1 19.25 9.15 19.15 9.2 19.0 9.25 18.7 9.1 18.55 8.8 18.7 8.5 Q18.8 8.35 19.0 8.35 L19.15 8.4 M18.85 9.8 L18.95 9.85 19.0 9.9 19.15 10.2 19.0 10.5 18.95 10.55 18.85 10.6 18.7 10.65 18.4 10.5 18.25 10.2 18.4 9.9 Q18.5 9.75 18.7 9.75 L18.85 9.8 M0.75 9.2 L0.65 9.15 0.6 9.1 0.45 8.8 0.6 8.5 0.65 8.45 0.75 8.4 0.9 8.35 Q1.1 8.35 1.2 8.5 L1.35 8.8 1.2 9.1 0.9 9.25 0.75 9.2 M1.05 9.8 L1.2 9.75 Q1.4 9.75 1.5 9.9 L1.65 10.2 1.5 10.5 1.2 10.65 1.05 10.6 0.95 10.55 0.9 10.5 0.75 10.2 0.9 9.9 0.95 9.85 1.05 9.8" fill="#c9d9ff" fill-rule="evenodd" stroke="none"/>
    </g>
  </defs>
</svg>
