<svg xmlns="http://www.w3.org/2000/svg" xmlns:ffdec="https://www.free-decompiler.com/flash" xmlns:xlink="http://www.w3.org/1999/xlink" ffdec:objectType="frame" width="21.7" height="24.3"><use ffdec:characterId="1" xlink:href="#a" width="21.7" height="24.3"/><defs><g id="a" fill-rule="evenodd"><path fill="#415826" d="m19.85 0 1.2.1v.25l.1.1v.3l.3 1.5.25 3.05q0 2.25-1.85 9.4l-1.3 4.55q.6.1.6.5l-.85 2.15-.1.9-.05.3-1.1.35-2.05.35-1.05-.1-1.45-.3-1.05-.5.05-.15-.1-.1-.05-.2v-.05l.05-1-.2-1.15v-.15l-.1-.05-.1-.45q-.1-.4.4-.45l.65-.1h.1l.05-.8.1-2.95.1-2-.05-2.3q0-.75-.4-.95l-.6-.25h-.3l-.3-.05q-.75 0-1.25 1.45h-.05l-.15 1.4v3.95l-.05 2.1v.45h.1q1.1.1 1.1.5l-.2.7-.15 2.65-1.05.55q-1.35.8-2.4.8l-2.2-.3-1-.5-.05-.75-.6-1.85-.2-.35q0-.35.85-.65l-.8-2.45-1.2-4.3L.35 8.9Q0 7.6 0 5.6l.15-1.65.15-1.2.2-1.25V.05h19.3z"/><path fill-opacity=".298" d="M6.05 14.45q1.6.85 3.05 2.2l.1 2.4.1-.05 1.1.4-.75.6-.45.25v.1h-.05l-1.3.55-.05.05q-.85.35-1.35.65h-.8q-.85-.05-1.9-.6l-1-.6.35-.35.25.05.2-.2.7.15Q2.8 16.25 2.8 15l.25-.95q.95-.7 3 .4m10.65-.35q1.9-.55 2.35.65l-1.65 4.6.75-.05.4-.1.5.25.1.2v.1q-.3.5-2.55 1h-.8l-.4.15-.5-.2-.95-.25-.5-.2-.9-.3-.95-.3-.55-.35.45-.2h.25l.45-.05.2-.2-.1-.1v-.6l-.1-.25.05-.15v-.2l.05-1.1v-.05q1.75-1.25 3.25-1.85z"/><path fill-opacity=".6" d="m21.3 1.7.2 1h-3.55l-1 10.9v.05q-.85 2.55-1.8 7l-.6.05-.4-.2q.95-4.5 1.8-7.05l1-10.75h-5.7l.05.25V9.7l-.4.05-.5-.05-.1-.15v-6.5h-.05V2.9l-.1-.3h-.5l-.15.1H3.95L5.2 13.65q1.35 2.9 1.95 7.7H7.1l-.95.35q-.55-4.85-1.9-7.7l-.05-.2L2.95 2.7H.35l.15-.95V1.7h16.95l.15.05.15-.05z"/><path fill="#fff" fill-opacity=".298" d="m11.4 21.4-.2-1.15v-.15l-.1-.05-.1-.45v-.2l.25.15 1.15.4 1.2.5q1.1.4 1.95.4 1.35 0 3.4-.95l.2-.05-.85 2.05-.1.9-.05.3-1.1.35-2.05.35-1.05-.1-1.45-.3-1.05-.5.05-.15-.1-.1-.05-.2v-.05zm-8.8-.85.05-.1.8.55q1.3.65 2.9.65.55 0 2.6-1.15l1.5-.95v.05l-.2.7-.15 2.65-1.05.55q-1.35.8-2.4.8l-2.2-.3-1-.5-.05-.75-.6-1.85z"/><path fill-opacity=".298" d="M20.45 2.45 18.8 4.1l-2.7.15-1.7.25 1-1 1.3-.6q1.2-1.15 1.55-.95l1 .45.8-.35q.4 0 .4.4M17.2 4.8h.3l-.8.1h-.3zm-2.25-1.6-1 .2q-1.65.75-4.3.65-1.65-.4-4.6-1.6 0-.5.4-.35l1.3.25.15-.15.55-.15L11 2.7l3.8.45zM11.35 6l1.35-.1.85.35.2.15-.25.4-1.5.5-1.05.1h-.1l.1-.25-.05-.2-2.1-.5-.25-.1q.55-.35 2.15-.4L11 6l.15-.1zM1.7 2.45q0-.5.75-.5L6.5 4q-2.05.95-3.95-.8-.5-.45-.8-.6zM13.85 4.3l-.05.15-.8.35-1.85.7-1 .15q-1.3 0-2.75-.6l-.7-.3.1-.05H5.35l1.8-.15-.15.1 4.65-.05zM4.1 20.9l2.35.5q.05 0 2.25-1.05l.6-.45q.55-.45.7-.35.05-.3.25-.3l.2.15.05.1v.1l-.25.35v.1q-.35.9-.4 1.5l-.05.35-.05.65-.2.4-.5.3-1.4.45q-.6 0-.8-.75l-.1-.75.1-.15H6.6l-2.4-.45q-1.3-.45-1.6-1v-.25l.2-.05zm10.75-.3 2.7-.5 1.4-.6q.25 0 .3.2 0 .35-1.4.95-1.5.6-2.6.6H15l.15.2.05.85q-.05.8-.65.9l-.95-.05-1.45-.35-.4-.55v-.1l.1-.85-.3-.95-.1-.2-.05-.05-.4-.5v-.1q0-.3.25-.2l.45.15 1.5.6q1.15.55 1.65.55"/></g></defs></svg>