<?xml version="1.0" encoding="UTF-8" standalone="no"?>
<svg xmlns:ffdec="https://www.free-decompiler.com/flash" xmlns:xlink="http://www.w3.org/1999/xlink" ffdec:objectType="frame" height="21.9px" width="22.2px" xmlns="http://www.w3.org/2000/svg">
  <g transform="matrix(1.0, 0.0, 0.0, 1.0, 0.55, -1.3)">
    <use ffdec:characterId="1" height="21.9" transform="matrix(1.0, 0.0, 0.0, 1.0, -0.55, 1.3)" width="22.2" xlink:href="#shape0"/>
  </g>
  <defs>
    <g id="shape0" transform="matrix(1.0, 0.0, 0.0, 1.0, 0.55, -1.3)">
      <path d="M14.95 23.15 L14.65 23.15 14.75 22.45 14.9 21.6 14.85 21.5 14.9 21.35 15.35 21.3 15.1 22.05 14.95 23.15 M11.1 21.95 L11.1 21.75 11.3 21.15 11.3 21.1 13.45 21.85 13.55 21.85 11.1 21.95 M10.0 7.7 L7.75 8.4 4.85 8.85 Q6.05 9.65 7.45 10.3 8.4 10.65 8.8 11.15 L8.45 11.5 8.25 11.55 7.95 11.55 7.8 11.6 7.8 11.65 7.8 12.0 Q6.95 12.05 6.05 11.6 L5.95 11.6 Q6.85 12.6 7.85 12.75 L7.9 13.1 8.0 13.9 8.25 16.45 Q8.25 17.25 7.65 17.85 L4.9 18.05 Q6.05 18.8 7.2 18.55 L9.2 18.5 Q8.3 19.05 6.95 19.05 L5.65 19.2 8.0 19.4 Q7.35 20.0 6.35 20.05 L5.75 20.3 5.75 20.35 8.4 20.7 6.15 21.3 6.55 22.75 6.6 23.15 6.15 23.15 6.0 22.05 5.7 21.15 5.9 21.15 Q6.7 21.3 6.9 20.85 L5.2 20.65 5.3 19.5 5.2 19.4 4.5 18.55 6.95 18.65 4.8 18.6 4.45 18.45 3.1 17.05 2.95 16.45 Q1.95 13.3 1.95 9.25 1.9 6.7 2.4 4.15 3.2 4.6 4.25 4.7 L4.15 4.6 2.7 2.9 2.7 2.75 Q4.25 4.5 6.2 5.1 L7.85 5.35 9.8 5.6 9.95 5.6 9.95 5.65 6.7 5.8 Q8.25 6.6 9.8 6.75 L9.95 6.75 10.0 7.7 M18.2 3.0 L18.25 3.15 18.0 3.45 18.0 3.35 17.95 3.2 18.2 3.0 M18.55 4.25 Q19.05 6.0 19.1 7.95 L19.15 9.25 Q19.15 13.3 18.15 16.45 L18.0 17.05 16.65 18.45 16.3 18.6 15.95 18.6 16.0 18.55 16.5 17.8 17.0 17.25 17.75 16.55 17.95 16.1 18.2 14.85 18.7 11.95 18.7 9.45 18.4 4.95 18.3 4.45 18.25 4.4 18.55 4.25 M16.6 18.55 L15.9 19.4 15.8 19.5 15.9 20.65 14.2 20.85 14.3 21.0 13.8 21.0 13.55 20.95 13.55 20.9 13.65 20.8 14.0 20.7 14.55 20.55 15.2 20.55 15.45 20.35 15.45 20.05 15.4 19.85 15.35 19.55 15.7 18.95 15.75 18.9 16.6 18.55 M17.8 3.7 L16.95 4.6 16.85 4.7 18.05 4.45 18.2 5.15 18.45 9.45 18.45 11.75 17.95 14.9 17.6 16.25 17.45 16.55 17.3 16.75 16.7 17.15 16.2 17.8 16.05 18.05 13.45 17.85 Q12.85 17.25 12.85 16.45 L13.1 13.9 13.2 13.1 13.25 12.75 Q14.25 12.6 15.15 11.6 L15.05 11.6 13.3 12.0 13.3 11.65 13.3 11.6 13.15 11.55 12.85 11.55 12.65 11.5 12.3 11.15 Q12.7 10.65 13.65 10.3 15.05 9.65 16.25 8.85 L15.9 8.85 12.9 8.1 11.2 7.6 11.35 6.95 11.4 6.75 Q12.9 6.6 14.4 5.8 L11.6 5.7 11.65 5.6 13.25 5.35 14.9 5.1 Q16.45 4.65 17.75 3.45 L17.8 3.6 17.8 3.7 M14.0 11.3 L14.4 11.3 Q15.35 11.15 16.25 10.7 L16.3 10.65 Q15.0 10.55 14.1 11.25 L14.0 11.3 M4.8 10.65 L4.85 10.7 6.7 11.3 7.1 11.3 7.0 11.25 Q6.1 10.55 4.8 10.65 M15.95 18.2 L15.75 18.5 15.7 18.55 15.65 18.6 14.15 18.65 15.45 18.9 15.3 19.2 14.15 19.05 Q12.8 19.05 11.9 18.5 L13.9 18.55 Q14.9 18.75 15.95 18.2 M15.2 20.25 L14.75 20.05 Q13.75 20.0 13.1 19.4 L15.25 19.25 15.1 19.6 15.2 19.85 15.2 19.9 15.2 20.25 M13.3 20.9 L12.7 20.7 13.5 20.6 13.3 20.9" fill="#2a2a2a" fill-rule="evenodd" stroke="none"/>
      <path d="M14.35 23.15 L14.25 23.15 11.95 22.7 11.1 21.95 13.55 21.85 13.45 21.85 11.3 21.1 11.3 20.8 11.5 21.0 12.05 21.15 12.1 21.15 13.0 21.3 13.5 21.3 14.6 21.45 14.55 21.6 14.55 21.7 14.35 23.15 M11.15 20.5 L11.05 19.95 11.1 19.35 11.05 18.8 10.5 17.45 10.45 16.5 Q10.45 15.4 10.75 13.9 L11.05 11.4 10.4 9.5 10.4 9.0 10.45 8.85 10.45 7.55 10.4 7.6 10.0 7.7 9.95 6.75 9.8 6.75 Q8.25 6.6 6.7 5.8 L9.95 5.65 9.95 5.6 9.8 5.6 7.85 5.35 6.2 5.1 Q4.25 4.5 2.7 2.75 L3.0 2.7 2.9 2.75 Q2.8 2.8 3.05 2.35 L3.4 1.7 3.75 1.35 16.75 1.35 17.0 1.8 17.6 3.05 17.7 3.3 17.75 3.45 Q16.45 4.65 14.9 5.1 L13.25 5.35 11.65 5.6 11.6 5.7 14.4 5.8 Q12.9 6.6 11.4 6.75 L11.35 6.95 11.2 7.6 12.9 8.1 15.9 8.85 16.25 8.85 Q15.05 9.65 13.65 10.3 12.7 10.65 12.3 11.15 L12.65 11.5 12.85 11.55 13.15 11.55 13.3 11.6 13.3 11.65 13.3 12.0 15.05 11.6 15.15 11.6 Q14.25 12.6 13.25 12.75 L13.2 13.1 13.1 13.9 12.85 16.45 Q12.85 17.25 13.45 17.85 L16.05 18.05 15.95 18.2 Q14.9 18.75 13.9 18.55 L11.9 18.5 Q12.8 19.05 14.15 19.05 L15.3 19.2 15.25 19.25 13.1 19.4 Q13.75 20.0 14.75 20.05 L15.2 20.25 Q14.25 20.15 13.7 20.5 L13.5 20.6 12.7 20.7 13.3 20.9 13.3 21.0 12.95 21.0 11.8 20.75 11.4 20.6 11.15 20.5 M2.4 4.15 L2.5 3.75 2.6 3.3 2.7 2.9 4.15 4.6 4.25 4.7 Q3.2 4.6 2.4 4.15 M16.95 1.35 L17.35 1.35 17.7 1.7 18.1 2.7 18.2 3.0 17.95 3.2 17.95 3.15 17.85 2.9 17.2 1.7 16.95 1.35 M18.25 3.15 L18.55 4.25 18.25 4.4 18.25 4.35 18.0 3.45 18.25 3.15 M16.65 18.45 L16.8 18.4 16.6 18.55 15.75 18.9 15.95 18.6 16.3 18.6 16.65 18.45 M18.05 4.45 L16.85 4.7 16.95 4.6 17.8 3.7 18.05 4.4 18.05 4.45 M14.0 11.3 L14.1 11.25 Q15.0 10.55 16.3 10.65 L16.25 10.7 Q15.35 11.15 14.4 11.3 L14.0 11.3 M15.45 18.9 L14.15 18.65 15.65 18.6 15.45 18.9 M13.55 20.95 L13.8 21.0 13.6 21.0 13.55 20.95 M14.85 21.5 L14.8 21.35 14.9 21.35 14.85 21.5" fill="#121212" fill-rule="evenodd" stroke="none"/>
      <path d="M21.15 4.35 L20.2 3.3 Q19.5 5.0 19.4 6.0 19.3 7.05 19.5 7.2 L20.15 7.3 20.65 7.3 21.45 7.05 21.45 7.6 20.15 7.7 Q19.85 7.55 20.35 8.2 20.95 8.8 21.5 8.35 L21.65 12.45 21.3 15.4 21.0 16.9 20.2 16.95 Q17.95 15.9 18.9 16.65 L20.5 18.3 19.35 19.25 17.75 20.45 16.9 20.7 16.85 20.8 16.65 20.8 15.3 21.0 14.3 21.0 14.2 20.85 15.9 20.65 15.8 19.5 15.9 19.4 16.6 18.55 16.8 18.4 16.65 18.45 18.0 17.05 18.15 16.45 Q19.15 13.3 19.15 9.25 L19.1 7.95 Q19.05 6.0 18.55 4.25 L18.25 3.15 18.2 3.0 18.1 2.7 17.7 1.7 17.35 1.35 19.95 1.35 Q20.8 2.65 21.15 4.35 M17.1 22.15 Q16.45 22.95 14.95 23.15 L15.1 22.05 15.35 21.3 16.15 21.2 16.6 21.15 16.5 21.65 16.5 21.9 17.1 22.15 M19.4 13.1 L19.65 13.2 19.8 13.2 20.45 13.1 20.5 13.0 20.6 12.85 20.65 12.85 20.65 12.75 20.7 12.5 20.6 12.0 Q20.45 11.75 20.15 11.65 L20.1 11.65 19.7 11.65 19.75 10.3 19.45 11.75 19.15 12.3 19.2 12.85 18.9 14.5 Q18.75 14.7 18.75 15.0 L18.75 15.45 18.75 15.7 18.75 16.1 18.85 15.65 19.2 15.85 19.35 15.85 19.85 15.85 20.05 15.75 20.2 15.55 20.2 15.5 20.3 15.25 20.25 15.2 20.3 14.95 20.15 14.65 19.7 14.35 19.6 14.3 19.2 14.35 19.35 13.4 19.4 13.1" fill="#040404" fill-rule="evenodd" stroke="none"/>
      <path d="M21.15 4.35 L21.25 4.85 21.45 6.6 21.45 7.05 20.65 7.3 20.15 7.3 19.5 7.2 Q19.3 7.05 19.4 6.0 19.5 5.0 20.2 3.3 L21.15 4.35 M21.45 7.6 L21.5 8.35 Q20.95 8.8 20.35 8.2 19.85 7.55 20.15 7.7 L21.45 7.6 M21.0 16.9 L20.65 18.1 20.5 18.3 18.9 16.65 Q17.95 15.9 20.2 16.95 L21.0 16.9 M17.75 20.45 L17.35 20.7 17.3 20.7 16.85 20.8 16.9 20.7 17.75 20.45 M17.2 21.05 L17.15 21.4 17.1 22.15 16.5 21.9 16.5 21.65 16.6 21.15 17.2 21.05 M19.4 13.1 L19.35 13.4 19.2 14.35 Q19.0 14.35 18.9 14.5 L19.2 12.85 19.4 13.1 M18.85 15.65 L18.75 16.1 18.75 15.7 18.75 15.45 18.85 15.65 M19.45 11.75 L19.75 10.3 19.7 11.65 19.45 11.75" fill="#2c2c2c" fill-rule="evenodd" stroke="none"/>
      <path d="M14.65 23.15 L14.65 23.2 14.5 23.15 14.35 23.15 14.55 21.7 14.85 21.65 14.85 21.6 14.55 21.6 14.6 21.45 13.5 21.3 13.0 21.3 12.1 21.15 12.05 21.15 11.8 20.75 12.95 21.0 13.3 21.0 13.3 20.9 13.5 20.6 13.7 20.5 Q14.25 20.15 15.2 20.25 L15.2 19.9 15.4 19.85 15.45 20.05 15.45 20.35 15.2 20.55 14.55 20.55 14.0 20.7 13.65 20.8 13.55 20.9 13.55 20.95 13.6 21.0 13.8 21.0 14.3 21.0 15.3 21.0 16.65 20.8 16.6 21.15 16.15 21.2 15.35 21.3 14.9 21.35 14.8 21.35 14.85 21.5 14.9 21.6 14.75 22.45 14.65 23.15 M16.75 1.35 L16.75 1.3 17.0 1.3 16.95 1.35 17.2 1.7 17.85 2.9 17.95 3.15 17.7 3.3 17.6 3.05 17.0 1.8 16.75 1.35 M18.05 4.4 L17.8 3.7 17.8 3.6 18.0 3.35 18.0 3.45 18.25 4.35 18.05 4.4 M16.2 17.8 L16.7 17.15 17.3 16.75 17.45 16.55 17.75 16.55 17.0 17.25 16.5 17.8 16.2 17.8 M15.7 18.55 L16.0 18.55 15.95 18.6 15.75 18.9 15.7 18.95 15.45 18.9 15.65 18.6 15.7 18.55" fill="#747474" fill-rule="evenodd" stroke="none"/>
      <path d="M17.35 20.7 L17.4 20.7 17.2 21.05 16.6 21.15 16.65 20.8 16.85 20.8 17.3 20.7 17.35 20.7 M11.3 20.8 L11.2 20.65 11.15 20.5 11.4 20.6 11.8 20.75 12.05 21.15 11.5 21.0 11.3 20.8 M17.7 3.3 L17.95 3.15 17.95 3.2 18.0 3.35 17.8 3.6 17.75 3.45 17.7 3.3 M18.05 4.45 L18.05 4.4 18.25 4.35 18.25 4.4 18.3 4.45 18.4 4.95 18.7 9.45 18.7 11.95 18.2 14.85 17.95 16.1 17.75 16.55 17.45 16.55 17.6 16.25 17.95 14.9 18.45 11.75 18.45 9.45 18.2 5.15 18.05 4.45 M16.05 18.05 L16.2 17.8 16.5 17.8 16.0 18.55 15.7 18.55 15.75 18.5 15.95 18.2 16.05 18.05 M15.25 19.25 L15.3 19.2 15.45 18.9 15.7 18.95 15.35 19.55 15.4 19.85 15.2 19.9 15.2 19.85 15.1 19.6 15.25 19.25 M14.55 21.6 L14.85 21.6 14.85 21.65 14.55 21.7 14.55 21.6" fill="#c2c2c2" fill-rule="evenodd" stroke="none"/>
      <path d="M19.7 11.65 L20.1 11.65 20.15 11.65 Q20.45 11.75 20.6 12.0 L20.7 12.5 20.65 12.75 20.65 12.85 20.6 12.85 20.5 13.0 20.45 13.1 19.8 13.2 19.65 13.2 19.4 13.1 19.2 12.85 19.15 12.3 19.45 11.75 19.7 11.65 M19.2 14.35 L19.6 14.3 19.7 14.35 20.15 14.65 20.3 14.95 20.25 15.2 20.3 15.25 20.2 15.5 20.2 15.55 20.05 15.75 19.85 15.85 19.35 15.85 19.2 15.85 18.85 15.65 18.75 15.45 18.75 15.0 Q18.75 14.7 18.9 14.5 19.0 14.35 19.2 14.35 M20.25 12.6 L20.45 12.4 20.3 12.45 Q20.15 12.2 20.0 12.25 L19.9 12.35 Q19.6 12.15 19.85 11.9 L19.8 11.8 Q19.75 11.8 19.65 11.9 L19.6 11.9 Q19.15 12.35 19.45 12.85 L19.5 12.85 19.55 12.9 Q19.5 12.5 19.7 12.45 L19.75 12.65 19.95 12.75 19.95 12.8 20.1 12.95 Q20.35 13.05 20.45 12.8 L20.45 12.7 20.25 12.6 M19.75 15.3 L19.95 15.1 19.8 15.15 19.55 14.9 19.4 15.05 Q19.1 14.8 19.35 14.55 L19.3 14.55 19.2 14.55 19.1 14.65 Q18.75 15.0 18.9 15.45 L19.0 15.55 19.1 15.6 Q19.0 15.25 19.2 15.15 L19.35 15.4 19.55 15.45 19.5 15.5 19.65 15.7 Q19.9 15.8 19.95 15.55 L19.95 15.35 19.75 15.3" fill="#a87b0d" fill-rule="evenodd" stroke="none"/>
      <path d="M19.95 12.75 L19.75 12.65 19.7 12.45 Q19.5 12.5 19.55 12.9 L19.5 12.85 19.45 12.85 Q19.15 12.35 19.6 11.9 L19.65 11.9 Q19.75 11.8 19.8 11.8 L19.85 11.9 Q19.6 12.15 19.9 12.35 L20.0 12.25 Q20.15 12.2 20.3 12.45 L20.45 12.4 20.25 12.6 20.05 12.55 19.95 12.75 M19.55 15.45 L19.35 15.4 19.2 15.15 Q19.0 15.25 19.1 15.6 L19.0 15.55 18.9 15.45 Q18.75 15.0 19.1 14.65 L19.2 14.55 19.3 14.55 19.35 14.55 Q19.1 14.8 19.4 15.05 L19.55 14.9 19.8 15.15 19.95 15.1 19.75 15.3 19.6 15.2 19.55 15.45" fill="#ffd88e" fill-rule="evenodd" stroke="none"/>
      <path d="M19.95 12.75 L20.05 12.55 20.25 12.6 20.45 12.7 20.45 12.8 Q20.35 13.05 20.1 12.95 L19.95 12.8 19.95 12.75 M19.55 15.45 L19.6 15.2 19.75 15.3 19.95 15.35 19.95 15.55 Q19.9 15.8 19.65 15.7 L19.5 15.5 19.55 15.45" fill="#ffffff" fill-rule="evenodd" stroke="none"/>
      <path d="M-0.05 4.35 Q0.3 2.65 1.15 1.35 L4.9 1.3 3.7 1.4 3.4 1.7 Q1.9 5.15 1.95 9.25 1.95 13.3 2.95 16.45 L3.1 17.05 4.45 18.45 4.3 18.4 4.5 18.55 5.2 19.4 5.3 19.5 5.2 20.65 6.9 20.85 Q6.7 21.3 5.9 21.15 L5.7 21.15 6.0 22.05 6.15 23.15 Q4.65 22.95 4.0 22.15 L4.6 21.9 4.6 21.65 4.2 20.7 3.35 20.45 1.75 19.25 0.6 18.3 2.2 16.65 Q3.15 15.9 0.9 16.95 L0.1 16.9 -0.2 15.4 -0.55 12.45 -0.4 8.35 Q0.15 8.8 0.75 8.2 1.25 7.55 0.95 7.7 L-0.35 7.6 -0.35 7.05 0.45 7.3 0.95 7.3 1.6 7.2 1.7 6.0 Q1.6 5.0 0.9 3.3 L-0.05 4.35 M2.35 15.7 L1.35 10.3 Q1.05 10.3 1.75 13.4 1.7 13.65 2.35 16.1 L2.35 15.7" fill="#040404" fill-rule="evenodd" stroke="none"/>
      <path d="M10.0 21.95 L7.55 21.85 7.65 21.85 9.8 21.1 9.8 21.15 10.0 21.75 10.0 21.95" fill="#2a2a2a" fill-rule="evenodd" stroke="none"/>
      <path d="M10.0 21.95 L9.15 22.7 6.85 23.15 6.6 23.15 6.55 22.75 6.15 21.3 8.4 20.7 5.75 20.35 5.75 20.3 6.35 20.05 Q7.35 20.0 8.0 19.4 L5.65 19.2 6.95 19.05 Q8.3 19.05 9.2 18.5 L7.2 18.55 Q6.05 18.8 4.9 18.05 L7.65 17.85 Q8.25 17.25 8.25 16.45 L8.0 13.9 7.9 13.1 7.85 12.75 Q6.85 12.6 5.95 11.6 L6.05 11.6 Q6.95 12.05 7.8 12.0 L7.8 11.65 7.8 11.6 7.95 11.55 8.25 11.55 8.45 11.5 8.8 11.15 Q8.4 10.65 7.45 10.3 6.05 9.65 4.85 8.85 L8.2 8.1 9.8 7.6 10.0 7.55 10.4 7.5 10.65 7.5 10.65 8.85 10.7 9.5 10.05 11.4 Q10.05 12.4 10.35 13.9 L10.65 16.5 10.6 17.45 10.05 18.8 Q9.95 19.05 10.0 19.35 L10.05 19.95 9.85 20.7 Q9.65 20.95 9.8 21.1 L7.65 21.85 7.55 21.85 10.0 21.95 M4.5 18.55 L4.3 18.4 4.45 18.45 4.8 18.6 6.95 18.65 4.5 18.55 M4.8 10.65 Q6.1 10.55 7.0 11.25 L7.1 11.3 6.7 11.3 4.85 10.7 4.8 10.65" fill="#121212" fill-rule="evenodd" stroke="none"/>
      <path d="M-0.05 4.35 L0.9 3.3 Q1.6 5.0 1.7 6.0 L1.6 7.2 0.95 7.3 0.45 7.3 -0.35 7.05 -0.35 6.6 -0.15 4.85 -0.05 4.35 M-0.35 7.6 L0.95 7.7 Q1.25 7.55 0.75 8.2 0.15 8.8 -0.4 8.35 L-0.35 7.6 M0.1 16.9 L0.9 16.95 Q3.15 15.9 2.2 16.65 L0.6 18.3 0.45 18.1 0.1 16.9 M3.35 20.45 L4.2 20.7 4.6 21.65 4.6 21.9 4.0 22.15 3.95 21.4 Q3.95 20.7 3.35 20.45 M2.35 15.7 L2.35 16.1 Q1.7 13.65 1.75 13.4 1.05 10.3 1.35 10.3 L2.35 15.7" fill="#2c2c2c" fill-rule="evenodd" stroke="none"/>
      <path d="M0.95 11.65 L1.0 11.65 Q1.8 11.45 1.95 12.3 2.0 13.0 1.45 13.2 L1.3 13.2 0.65 13.1 0.6 13.0 0.5 12.85 0.45 12.85 0.45 12.75 0.4 12.5 0.5 12.0 Q0.65 11.75 0.95 11.65 M1.15 12.75 L1.35 12.65 1.4 12.45 1.55 12.9 1.6 12.85 Q1.95 12.35 1.5 11.9 L1.45 11.9 1.3 11.8 1.25 11.9 Q1.5 12.15 1.2 12.35 L1.1 12.25 Q0.95 12.2 0.8 12.45 L0.65 12.4 0.85 12.6 0.65 12.7 0.65 12.8 Q0.75 13.05 1.0 12.95 L1.15 12.8 1.15 12.75 M0.8 15.25 L0.85 15.2 0.8 14.95 0.95 14.65 Q1.15 14.4 1.4 14.35 L1.5 14.3 Q2.3 14.2 2.35 15.0 2.45 15.65 1.9 15.85 L1.75 15.85 1.25 15.85 1.05 15.75 0.9 15.55 0.9 15.5 0.8 15.25 M1.55 15.45 L1.75 15.4 1.9 15.15 2.0 15.6 2.1 15.55 Q2.4 15.05 2.0 14.65 L1.9 14.55 1.8 14.55 1.75 14.55 Q2.0 14.8 1.7 15.05 L1.55 14.9 1.3 15.15 1.15 15.1 1.35 15.3 1.15 15.35 1.15 15.55 Q1.2 15.8 1.45 15.7 L1.6 15.5 1.55 15.45" fill="#a87b0d" fill-rule="evenodd" stroke="none"/>
      <path d="M0.85 12.6 L0.65 12.4 0.8 12.45 Q0.95 12.2 1.1 12.25 L1.2 12.35 Q1.5 12.15 1.25 11.9 L1.3 11.8 1.45 11.9 1.5 11.9 Q1.95 12.35 1.6 12.85 L1.55 12.9 1.4 12.45 1.35 12.65 1.15 12.75 1.05 12.55 0.85 12.6 M1.35 15.3 L1.15 15.1 1.3 15.15 1.55 14.9 1.7 15.05 Q2.0 14.8 1.75 14.55 L1.8 14.55 1.9 14.55 2.0 14.65 Q2.4 15.05 2.1 15.55 L2.0 15.6 1.9 15.15 1.75 15.4 1.55 15.45 1.5 15.2 1.35 15.3" fill="#ffd88e" fill-rule="evenodd" stroke="none"/>
      <path d="M1.15 12.75 L1.15 12.8 1.0 12.95 Q0.75 13.05 0.65 12.8 L0.65 12.7 0.85 12.6 1.05 12.55 1.15 12.75 M1.55 15.45 L1.6 15.5 1.45 15.7 Q1.2 15.8 1.15 15.55 L1.15 15.35 1.35 15.3 1.5 15.2 1.55 15.45" fill="#ffffff" fill-rule="evenodd" stroke="none"/>
      <path d="M3.4 3.3 L3.3 3.6 3.1 3.35 3.15 3.15 3.4 3.3 M3.05 4.4 L3.05 4.45 2.9 5.15 Q2.65 6.7 2.65 9.45 L2.65 11.75 3.15 14.9 3.5 16.25 3.65 16.55 3.35 16.55 3.15 16.1 2.9 14.85 2.4 11.95 2.4 9.45 Q2.4 6.65 2.7 4.95 L2.8 4.45 2.85 4.35 3.05 4.4 M4.9 17.8 L5.35 18.5 5.4 18.55 5.1 18.55 4.6 17.8 4.9 17.8 M5.65 18.9 L6.0 19.6 5.9 19.85 5.9 19.9 5.7 19.85 5.75 19.55 5.4 18.95 5.65 18.9 M9.3 20.75 L9.7 20.6 Q10.1 20.35 9.9 20.65 L9.6 21.0 9.05 21.15 9.3 20.75 M6.55 21.6 L6.55 21.7 6.2 21.6 6.55 21.6 M4.5 21.15 L3.9 21.05 3.7 20.7 3.8 20.7 4.45 20.8 4.5 21.15" fill="#c2c2c2" fill-rule="evenodd" stroke="none"/>
      <path d="M3.15 3.15 L3.25 2.9 3.85 1.5 3.95 1.3 4.35 1.3 4.1 1.8 3.5 3.05 3.4 3.3 3.15 3.15 M3.3 3.6 L3.05 4.4 2.85 4.35 3.1 3.35 3.3 3.6 M3.65 16.55 L3.8 16.75 4.4 17.15 4.9 17.8 4.6 17.8 4.1 17.25 3.35 16.55 3.65 16.55 M5.4 18.55 L5.65 18.9 5.4 18.95 5.1 18.55 5.4 18.55 M5.9 19.9 L5.9 20.25 7.4 20.5 7.6 20.6 7.8 20.9 7.8 21.0 8.15 21.0 9.3 20.75 9.05 21.15 9.0 21.15 8.1 21.3 7.6 21.3 6.5 21.45 6.55 21.6 6.2 21.6 6.55 21.7 6.75 23.15 6.6 23.15 6.45 23.2 6.35 22.45 6.2 21.6 6.3 21.35 4.95 21.2 4.5 21.15 4.45 20.8 5.8 21.0 7.5 21.0 7.55 20.9 7.45 20.8 7.1 20.7 6.55 20.55 5.9 20.55 5.65 20.35 5.65 20.05 5.7 19.85 5.9 19.9" fill="#747474" fill-rule="evenodd" stroke="none"/>
    </g>
  </defs>
</svg>
