<svg xmlns="http://www.w3.org/2000/svg" xmlns:ffdec="https://www.free-decompiler.com/flash" xmlns:xlink="http://www.w3.org/1999/xlink" ffdec:objectType="frame" width="21.65" height="24.65"><g transform="translate(.95 -.55)"><use ffdec:characterId="2" xlink:href="#a" width="21.65" height="28.85" transform="matrix(1 0 0 .8196 -.95 .597)"/><use ffdec:characterId="3" xlink:href="#b" width="18.45" height="24.65" transform="translate(.6 .55)"/></g><defs><path id="c" fill="#333" fill-rule="evenodd" d="M20.75-2.2q.05 5.65-.55 9.65l-1.6 9.05-1.3 6.65-.65 3.25-6 .15.05-1.7q-.15-2.1.05-5.95.05-3.9.6-9.15-.55-.9-1.35-.85-.15 0-.65.3-.55.3-.6.6l.2 7.65.4 7.15.05 2.05-5.85-.35-2.2-10.35-1.6-9.45L-.9-.05V-2.2h21.65" transform="translate(.9 2.2)"/><use ffdec:characterId="1" xlink:href="#c" id="a" width="21.65" height="28.85"/><g id="b" fill-rule="evenodd"><path fill-opacity=".2" d="m5.1 4.6-.5-.3-.75-.7 2.45.2 1.35.45 1.6.5L7.5 5l-1.8-.1zm8.6.8.45-.05-.6.35-.8.3-.35-.1.35-.2zM9.65.05h.45v1.1l-.05.4.05.3V2q.1.7.85.7l.4-.05h.05l1.05.25-2.25 1.2h-.45v.1l.05.3.05 1.3 1-.35q.5-.2.9-.25l-1.1.95-.8.2.15.9.1-.05 1.3-.15-.25.1-.5.45v.15l.2.15 1.4-.15.45-.1-.2.2-.7.3-.2.1h-1.2l-.2.2-.1-.05v.05l.05.1v.05l.25.3 1.4.3h.05q-.55.4-.7.95v.15l-.05.15-.05 3.7q-.15.85-.05 3.1.05 2.25.2 2.9l.35 1.9.1.85v.65l-.7-.1-.65.05h-.2v-.6l-.05-.25v-.9q-.25-1.2.05-4.5l.05-.25.05-2.75.45-4.25-.15-.3-.6-.35-.85-.05-.65.25q-.2.05-.25.25L8.2 13l.2 4.35.25 2.85.15 2.2v1.15H7.35l-.45-.1-.35.05h-.2l1-9.45.25-3-.25-1.5-.3-.6h.5q1.8 0 1.8-.5 0-.4-.5-.25l-.2.05h-.1L7.8 7.9l-.1-.05h.45L9.2 7.6l.15-.1.2-.6-.2-.45-.2-.1-.25-.05h-.1l-.6-.4-.15-.2v-.05L9 5.8h.1l.2.05h.1l.05-.2v-.1L9.4 4.7l-.15-.55V4.1h-.6l-1.6-.7-1.2-.7-.1-.05.05-.05.75.1q2.65 0 2.65-1.35L9.15 1 9.1.1l.35-.05zm7.4 4.75v.05l-.7.7-1.95.55-1.1.3 1.3-.65q1.6-.8 2.45-.95M12.15 21l.15-1.55.6 1.9.35 1.1.2 1 .4.05-1.7.05z"/><path fill-opacity=".298" d="M2.65 16.95h.1q-.15.05-.15.3 0 .5.65.5l.35-.3h.1l.05.15-.25.35-.35.15q-.7 0-.7-.5 0-.55.2-.65m.2 3.5q0-.35.35-.55l.25-.05q-.35 0-.35.35 0 .5.5.5t.5-.3l.1.2-.35.45H3.3l-.45-.3zm12.65-2.8.1-.1.45.25.3-.35q0-.35-.4-.45h-.05v-.05q.45-.15.7.15l.25.45-.45.55h-.5zm.25 3.4q-.65 0-.65-.5l.05-.1.45.25.3-.1v-.25q0-.35-.3-.4.45-.2.75.35l-.15.5z"/><path fill-opacity=".2" d="m11.8 24.65.05-.05.15.05h-.2"/><path fill-opacity=".325" d="M0 .2.05.05l.7.05L1 .05v.1L2.1 19.8l-.35-1.15-.9-3.1zm2.85 0L2.9 0l.35.05h.6v.1l1 23.4h-.2l-.8.1zm2.6-.05.05-.1.95-.05v.15L6.6 14.6l.55 8.9h-1l-.55-8.9zm6.8-.05h1v.1l-.75 23.3-.6.05-.4-.05zM15 .1h.85l-.3 14.55-.65 8.8q-.35 0-.55.15l-.5-.1.7-8.9.3-14.5zm2.45-.05h1V6.7l-.8 10.1-.5 2.1-.45 1.65-.3 1.15-.2.85 1.25-15.9V.05"/><path fill-opacity=".2" d="M2.55 16.7q.25-.25.8-.25 1 0 1 1 0 .8-.75 1.1h-.4L3 18.3q0-.15.45-.3l.4-.4-.2-.4q-.25-.25-.7-.25l-.2.1-.2-.05zm1.7 2.75.15.1q.4.2.4.85 0 .75-.65 1h-.8l-.2-.25.2-.2h.7l.15-.3v-.05l-.1-.2-.2-.15-.05-.05-.15.05-.2-.1.05-.1-.1-.05-.2.1-.4.45-.2-.1.35-.8q.3-.4.95-.25zM16 19.4l.1.1.45.9-.2.5-.15-.05-.05-.15.15-.3-.05-.15-.15-.05V20l-.15-.1h-.1l-.2-.05v-.1q-.45 0-.6.4l-.1.4.1.4.55.05.1.1.2-.15.2.2-.2.25-.4.15-.7-.25q-.45-.2-.45-.75l.3-.75.7-.5zm.15-3.05.1.05q.65.35.7 1.05l-.15.1-.2-.05v-.25l-.2-.2-.15-.15h-.45l-.35.25v.05l-.05.05-.15.3q.05.5.6.5l.55-.1.2-.25.2.2-.1.15.05.1-.25.15-.65.15q-1 0-1-1 0-.3.15-.5.1-.55 1.05-.6z"/><path d="m2.55 22.15 1.45.6 2.7.3q1.5-.2 2.1-.65l.05.65v.15l-.1.45q-.2.05-.35.2l-1.35.35-2.4-.1-1.75-.5zm7.4 1.05v-.15l.05-.65 2.15.65 2.8-.3 1.45-.6-.35 1.45-1.75.5-2.5.1-1.4-.35-.35-.2z"/><path fill="#f90" d="M2.35 16.9q.3-.25.7-.25.35 0 .6.25l.25.65-.25.6q-.25.3-.6.3-.4 0-.7-.3l-.25-.6q0-.4.25-.65m.45 2.95.65-.25q.4 0 .65.25l.25.65-.25.65-.65.25-.65-.25-.25-.65q0-.4.25-.65m13.25-3.2.7.25.25.65-.25.6-.7.3q-.35 0-.6-.3l-.25-.6q0-.4.25-.65t.6-.25m-1.3 3.85q0-.4.25-.65t.65-.25l.65.25.25.65-.25.65-.65.25-.65-.25z"/></g></defs></svg>