<svg xmlns="http://www.w3.org/2000/svg" xmlns:ffdec="https://www.free-decompiler.com/flash" xmlns:xlink="http://www.w3.org/1999/xlink" ffdec:objectType="frame" width="34.25" height="17.4"><use ffdec:characterId="1" xlink:href="#a" width="34.25" height="17.4"/><defs><g id="a" fill-rule="evenodd"><path fill="#cdc2b1" d="m27.3 14.05.25.35.25.25-.55.4q-.65.25-1.4-.3l-.35-.45h-.05l-.35.5-.3.25q-.45.45-1 .3-.35 0-.65-.3l.15-.4.25.05q.55.05 1-.35l.25-.25.4-.4.05-.05.35.25q.65.5 1.4.3zm-20-1.3.15.35.2.25 1.05.2h.4l.5-.2.05.1.1.35q.4.75 1 .9.8.15 1.35-.45l.3-.35.05.05.45.35.35.2 1 .25.4-.3.4-.6-.15.6-.15.5q-.25.45-.65.5l-1-.15-.35-.25-.4-.4h-.05l-.3.45q-.7.6-1.4.5-.65-.15-.95-1.05l-.2-.4v-.1l-.5.25-.4.1q-.55.05-1-.3l-.05-.05q-.45-.4-.35-1.1z"/><path fill="#c4b195" d="m23.4 13.65 1.2-.3 1.95-.5q.15.6.55 1l.1.05.1.15-.3.15q-.75.2-1.4-.3l-.35-.25-.05.05-.4.4-.25.25q-.45.4-1 .35l-.25-.05.05-.35v-.45zm-15.55-1.7 2.4.75 4.35 1.05.45.05v.05l-.4.6-.4.3-1-.25-.35-.2-.45-.35-.05-.05-.3.35q-.55.6-1.35.45-.6-.15-1-.9l-.1-.35-.05-.1-.5.2h-.4l-1.05-.2-.2-.25-.15-.35.15-.25.2-.45z"/><path fill="#d9c19f" d="m30.35 9.8 2.05-1.4.95.95-.05.2.2-.1-.15-.1.1-.3.1.2.1.25q.3.55 0 1-.25.5-.8.6l-.4.1-.5.05v.1l.05.4q0 .8-.5 1.2l-1.3.2-.15-.05-.4-.2-.05.05-.15.5-.1.15q-.15.1-.2.15-.3.5-.8.6h-.4L27.3 14l-.1-.1-.1-.05q-.4-.4-.55-1l3.55-1.45 1.05-.55.1-.05zm-7.45 3.95.5-.1-.05.2-.3.6-.2.15-.15.1q-.5.2-1 0l-.4-.15-.45-.25-.1.05-.15.35q-.5.7-1.2.7-.75 0-1.2-.7l-.2-.4h-.1l-.45.25-.4.15q-.55.2-1 0-.55-.25-.65-.85l.75.05v-.05l-.2-1.35q3.45.45 6.6 0l.1 1.25zm-15.05-1.8-.2.1-.35.4v.05l-.55.1q-.55.05-.9-.35l-.4-.3-.3-.35-.05.05-.3.2-1.35.15q-.7-.25-.85-1.1l-.05-.35-.1-.05-.55.05-.35-.05q-.6.05-.95-.4Q.2 9.7.35 9l.05-.1 1.05-1.35.45-.25 3.55 2-1.3 1 .05.1 1.05.45z"/><path fill="#faebd7" d="m27.2 13.9.1.1.65.35h.4q.5-.1.8-.6.05-.05.2-.15l.1-.15.15-.5.05-.05.4.2.15.05 1.3-.2q.5-.4.5-1.2l-.05-.4v-.1l.5-.05.4-.1q.55-.1.8-.6.3-.45 0-1l.3.35q.5.7.2 1.25l-.85.7-.4.05h-.5v.1l.05.45q.1.9-.45 1.3l-1.5.05-.3-.25-.15.05-.1.5-.3.35-.8.55q-.55.1-1.05-.3l-.25-.25-.25-.35zM7.65 12.05l-.2.45-.15.25-.15.2q-.3.35-.75.35-.55.15-.95-.3l-.35-.35-.25-.4-.05.1-.4.2q-.8.55-1.4.3-.65-.3-.75-1.15v-.45l-.05-.1-.6.1h-.4q-.6.05-.95-.45-.45-.4-.15-1.25L.35 9q-.15.7.25 1.1.35.45.95.4l.35.05.55-.05.1.05.05.35q.15.85.85 1.1l1.35-.15.3-.2.05-.05.3.35.4.3q.35.4.9.35l.55-.1v-.05zm7.7 1.8h.05q.1.6.65.85.45.2 1 0l.4-.15.45-.25h.1l.2.4q.45.7 1.2.7.7 0 1.2-.7l.15-.35.1-.05.45.25.4.15q.5.2 1 0l.15-.1.2-.15.3-.6v.45l-.05.35-.15.4-.45.4-1.05.05-.4-.15-.4-.35-.1.1-.2.4q-.5.75-1.2.75t-1.2-.75l-.15-.45-.1-.05-.45.35-.4.15-1-.05q-.65-.3-.7-1.15z"/><path fill="#c4a476" d="m29.05 9.55.75-.35L31.65 8l1.25-1.05.65.55-1.05.85-.1.05-2.05 1.4-.9.45zm-14.25 1.8 1 .15.3.05q3.3.5 6.4.05l.2-.05 1.15-.2.35.9-1 .2-.65.05q-3.15.45-6.6 0l-.4-.05-.45-.1-.35-.05zm-7.55-2.6-.85.95-.95-.4-3.55-2-.1-.05-.9-.6L2.35 6l1.8 1.1.45.25 1.3.75.6.3z"/><path fill="#937449" d="M32.9 6.95 31.65 8 29.8 9.2l-.75.35L26.3 5.1q1.4-.5 2.8-1.2zm-3.45 3.3.9-.45.9 1-.1.05-.8-.3zM32.4 8.4l.1-.05 1.05-.85.2.15-.3 1.4-.1.3.15.1-.2.1.05-.2zm-8.8 4.55-.7.8h-.25l-.1-1.25.65-.05 1-.2v.05zm.25-1.6-1.15.2-.2.05q-3.1.45-6.4-.05l-.3-.05-1-.15.25-5.35 6.9.2zm-9.1.95.35.05.45.1.4.05.2 1.35-.55-.6zM2.35 6 7.9 3.4q1.3.8 2.95 1.45l-3.6 3.9-.75-.35-.6-.3-1.3-.75-.45-.25zM6.4 9.7l-.05.1-1.05.25-1.1.35-.05-.1 1.3-1zM1.8 7.25l-.85.65L.9 6.65z"/><path fill="#664415" d="m29.05 9.55.4.7.9.3-.55.25-3.35 1.35-1.25.35-.85.2-.75.25.6-.65v-.05l-.35-.9-1.9-5.15.25-.05 4.05-1 .05-.05zm-14.25 1.8-.05.95.85.95-.25-.05h-.15l-.55-.1q-3.25-.5-6.6-1.85l-2.2-1-.55-.2 1.05-.25.05-.1.85-.95 3.6-3.9 3 .9 1.2.25z"/><path fill="#936424" d="m30.35 10.55.8.3-1.05.55-3.55 1.45-1.95.5-1.2.3-.5.1.7-.8.75-.25.85-.2 1.25-.35 3.35-1.35zm-25.05-.5.55.2 2.2 1q3.35 1.35 6.6 1.85l.55.1h.15l.25.05.55.6v.05l-.75-.05h-.05l-.3-.05-.45-.05-4.35-1.05-2.4-.75-2.6-1.1-1.05-.45z"/><path fill="#c4b195" d="M28.5 6.6v.65l-.15.3-.9.3-.35.05-.45-.1-.05.05-.05.35-.75.95-1.2-.25-.3-.25-.05.05-.35.35-.25.25q-.4.35-.85.3l-.45-.2-.4-.5-.05-.1q-.3-.65-.2-1.45l.4-1.1.3-.35q.55-.6 1.1-.55l.45.1q.15-.2.4-.3h.4l.1-.15.15-.2q.45-.4 1.2-.35l1.1.4.35.35.8 1.05.05.1zm-19.95.9v-.35L9.15 6l.3-.4q.5-.4 1.05-.55l1.25.15.2.2.1.15.4-.1.45.25.45-.15q.55-.1 1.1.4l.35.3.55 1.05q.25.75 0 1.45v.1L15 9.4l-.35.25-.9-.2-.3-.2-.4-.3L13 8.9l-.25.3q-.5.55-1.2.4-.5-.1-.85-.8l-.1-.35-.05-.05-.45.15h-.35l-.9-.15-.2-.25z"/><path fill="#cdc2b1" d="m21.95 8.9.4.5.45.2q.45.05.85-.3l.25-.25.35-.35.05-.05.3.25 1.2.25.75-.95.05-.35.05-.05.45.1.35-.05.9-.3.15-.3V6.6l.2.4q.2.75-.1 1.15l-.05.05q-.35.4-.9.4l-.35-.05-.45-.15v.1l-.1.4q-.15.8-.7 1.05-.6.2-1.25-.3l-.3-.4h-.05l-.3.45-.25.25q-.4.4-.9.25-.35 0-.65-.35l-.2-.4zM8.55 7.5l.1.65.2.25.9.15h.35l.45-.15.05.05.1.35q.35.7.85.8.7.15 1.2-.4l.25-.3.05.05.4.3.3.2.9.2.35-.25.35-.55-.15.55-.15.45q-.2.4-.55.45l-.9-.15-.3-.2-.35-.4h-.05l-.25.45q-.6.55-1.2.45-.6-.15-.85-.95l-.2-.4V9l-.4.25-.35.1q-.5.05-.9-.3L8.7 9q-.4-.35-.3-1.05z"/><path fill="#d9c19f" d="m26 8.9-.1-.05q-.45-.5-.55-1.35-.15-.85.25-1.6.3-.75.9-.85h.45l.3-.4.35-.15.15-.4q.3-.5 1.1-.65l1.55.2q.8.35 1.15.95l.1.25q.25.5 0 .9l-.7.55-.35.1-.45.05v.1l.05.35q0 .75-.45 1.1l-1.25.15-.35-.2-.05.05-.15.45-.25.3-.7.55q-.55.1-1-.4m-10.4-.2v-.1q-.05-.7.35-1.45t1.15-1.1l1.25-.15.35.25.45-.1.4.1.35-.25 1.25.15q.75.35 1.15 1.1l.35 1.45-.05.25q-.1.55-.55.75t-.9 0l-.35-.1-.4-.25-.05.05-.15.3q-.45.65-1.05.65-.65 0-1.05-.65l-.2-.35h-.05l-.4.25-.35.1q-.5.2-.9 0-.5-.25-.6-.9M2.45 4.4l.05-.1q.25-.7.9-1.25.65-.5 1.45-.55.85-.05 1.25.35l.25.4.4.05.35.3.45-.15q.6.05 1.05.65.55.6.65 1.45.05.85-.25 1.5l-.15.15q-.35.55-.8.5-.5.05-.8-.35L6.9 7.1l-.25-.35-.05.05-.25.2-1.2.15q-.6-.25-.75-1l-.05-.35-.05-.05-.5.05-.3-.05-.85-.35q-.35-.35-.2-1"/><path fill="#faebd7" d="m31.65 4.85.25.3q.45.65.2 1.15l-.75.65L31 7h-.45v.1l.05.4q.1.85-.4 1.2l-1.3.05-.3-.25-.1.05-.1.45-.25.35-.7.5q-.6.1-1.15-.5L26 8.9q.45.5 1 .4l.7-.55.25-.3.15-.45.05-.05.35.2L29.75 8q.45-.35.45-1.1l-.05-.35v-.1l.45-.05.35-.1.7-.55q.25-.4 0-.9m-9.05 4v.4q-.05.8-.55 1.05l-.95.05-.35-.15-.35-.3-.05.1-.2.35q-.45.7-1.05.7t-1.05-.7l-.15-.4-.05-.05-.4.3-.35.15-.9-.05q-.55-.25-.6-1.05V8.7q.1.65.6.9.4.2.9 0l.35-.1.4-.25h.05l.2.35q.4.65 1.05.65.6 0 1.05-.65l.15-.3.05-.05.4.25.35.1q.45.2.9 0t.55-.75M8.85 7.2l-.2.4q-.35.75-.9.75l-.85-.3-.3-.3-.2-.4-.05.1-.35.2q-.7.5-1.25.25T4.1 6.85v-.4l-.05-.1-.5.1H3.2q-.55.05-.85-.4-.4-.4-.15-1.15l.25-.5q-.15.65.2 1l.85.35.3.05.5-.05.05.05.05.35q.15.75.75 1L6.35 7l.25-.2.05-.05.25.35.35.25q.3.4.8.35.45.05.8-.5"/><path fill="#937449" d="m25.2.8 1.05-.4.4.9q.4 1.2 2.8 1.65l.85.15-2.05 1.45-.65.35zm6.15 2.35.3.45-.25 1.1-.85-.85zm-2.6 1.95.75.9.05.05-.1.05-.7-.3-.8-.25zM22.2 8.75H22l-.1-1.15 1.45-.25v.05l-.5.6zM16.1 7.6l.2 1.25-.5-.55-.75-.9zM5.8 5.65l-.05-.05 1.15-.95.85.4-.05.05-.9.25zM3.7 2.8l-.75.6-.05-1.15h.05zm1-.85 1.2-.3Q8.75.95 10.25 0l1.4.6L8.5 4.15l-.65-.3zm10.65-.3 6.05.15 1.65 4.75-1.2.2Q19 7.2 16 6.7l-.9-.15z"/><path fill="#c4a476" d="m27.6 4.9.65-.35L30.3 3.1l1.05.05-.8.7-1.8 1.25-.8.45zm-5.7 2.7q-2.75.4-5.8 0l-1.05-.2.05-.85.9.15q3 .5 5.85.05l1.2-.2.3.8zm-15-2.95L3.7 2.8l-.75-.55 1.75-.3 3.15 1.9.65.3-.75.9z"/><path fill="#664415" d="m25.2.8 2.4 4.1.35.65.8.25-.5.25q-1.8.95-4 1.55l-.75.2-.65.2.5-.6v-.05l-.3-.8L21.4 1.8l.2-.05 3.55-.9zM11.65.6l2.65.8 1.05.25-.25 4.9-.05.85.75.9-.8-.15q-3.8-.6-7.75-2.6l-.45-.2.9-.25.05-.05.75-.9z"/><path fill="#936424" d="m29.45 6.1-.9.5q-2.4 1.2-4.85 1.8l-1.5.35.65-.75.65-.2.75-.2q2.2-.6 4-1.55l.5-.25zM16.3 8.85v.05l-1.35-.15-3.85-.95q-2.35-.7-4.35-1.7l-.95-.45 1-.3.45.2q3.95 2 7.75 2.6l.8.15z"/><path fill="#8e0202" d="M29.7 15.85q.5-.8.35-4.4l.05-.05 1.05-.55h.05l-.2 2.6-.15 1.2-.2.85zM30 10v-.05l.05.05zM6.35 15.95l-.95-.35-.2-.85-.15-1.2-.2-2.9.4.2.2.1.55.25q-.2 3.9.35 4.75"/><path fill="#2a0000" d="M30.65 15.5q-.45 1.6-1.1 1.55-2.5.95-4.2-1.5l-.95-2.05.1-.1.1-.05 1.1-.25.4 1q1.3 2.25 3.05 1.85l.55-.1zm-24.3.45.55.1q1.75.4 3.05-1.85l.6-1.4h.05l1.35.35-1.25 2.5Q9 18.1 6.5 17.15q-.65.05-1.1-1.55z"/></g></defs></svg>