<?xml version="1.0" encoding="UTF-8" standalone="no"?>
<svg xmlns:ffdec="https://www.free-decompiler.com/flash" xmlns:xlink="http://www.w3.org/1999/xlink" ffdec:objectType="frame" height="19.3px" width="21.1px" xmlns="http://www.w3.org/2000/svg">
  <g transform="matrix(1.0, 0.0, 0.0, 1.0, 0.55, -1.95)">
    <use ffdec:characterId="1" height="19.3" transform="matrix(1.0, 0.0, 0.0, 1.0, -0.55, 1.95)" width="21.1" xlink:href="#shape0"/>
  </g>
  <defs>
    <g id="shape0" transform="matrix(1.0, 0.0, 0.0, 1.0, 0.55, -1.95)">
      <path d="M6.3 8.6 Q2.55 7.8 1.55 6.8 4.6 7.85 5.55 7.85 3.65 7.15 3.1 6.6 6.2 7.65 10.9 8.05 15.1 8.4 16.2 8.0 L14.3 8.45 13.1 8.45 16.8 9.1 Q13.5 9.5 9.2 9.25 4.9 9.0 3.7 8.45 L6.3 8.6" fill="#081b2d" fill-rule="evenodd" stroke="none"/>
      <path d="M4.7 10.0 L6.05 9.6 7.85 8.95 10.2 9.0 14.5 8.9 Q14.4 9.15 13.35 9.35 L11.2 9.6 12.35 10.6 10.85 10.0 9.35 9.8 7.1 9.9 5.15 10.0 4.7 10.0" fill="#081b2d" fill-rule="evenodd" stroke="none"/>
      <path d="M0.3 2.0 Q0.9 2.65 9.25 3.3 L19.9 3.7 20.15 5.0 Q19.5 6.05 10.0 5.1 0.8 4.15 0.05 3.5 L0.1 2.5 Q0.1 1.8 0.3 2.0" fill="#06121c" fill-rule="evenodd" stroke="none"/>
      <path d="M5.95 10.85 L6.5 10.35 7.65 9.75 8.05 9.6 9.65 9.5 Q9.35 9.55 8.95 9.9 L8.5 10.35 Q8.4 10.5 8.6 11.0 L8.35 11.9 8.4 18.35 8.2 18.6 8.0 18.65 7.95 15.3 8.0 11.9 Q8.0 11.45 7.65 11.35 L6.8 11.3 8.1 10.55 7.3 10.5 5.95 10.85" fill="#081b2d" fill-rule="evenodd" stroke="none"/>
      <path d="M20.35 5.95 L19.9 6.35 15.9 6.15 18.1 6.0 20.3 5.7 Q20.5 5.6 20.35 5.95" fill="#081b2d" fill-rule="evenodd" stroke="none"/>
      <path d="M19.8 7.75 L18.2 7.6 15.7 7.05 17.95 7.15 20.05 7.1 Q20.3 7.1 19.8 7.75" fill="#081b2d" fill-rule="evenodd" stroke="none"/>
      <path d="M2.15 17.75 L5.1 17.8 8.6 17.15 8.75 18.3 8.6 19.25 5.9 19.75 Q3.55 19.95 2.7 19.7 L2.25 18.75 Q2.05 18.05 2.15 17.75" fill="#191f21" fill-rule="evenodd" stroke="none"/>
      <path d="M7.55 19.4 L5.8 19.6 5.6 17.8 7.35 17.6 7.55 19.4 Z" fill="none" stroke="#bcbcbc" stroke-linecap="round" stroke-linejoin="round" stroke-width="0.55"/>
      <path d="M5.6 17.8 Q5.55 17.65 5.75 17.75 L6.0 17.95 6.1 19.25 6.45 19.35 6.5 19.5 5.8 19.6 5.6 17.8" fill="#dddddd" fill-rule="evenodd" stroke="none"/>
      <path d="M6.3 18.85 L5.25 18.95 5.2 18.5 6.25 18.4 6.3 18.85" fill="#bcbcbc" fill-rule="evenodd" stroke="none"/>
      <path d="M6.3 18.85 L5.25 18.95 5.2 18.5 6.25 18.4 6.3 18.85 Z" fill="none" stroke="#bcbcbc" stroke-linecap="round" stroke-linejoin="round" stroke-width="0.25"/>
      <path d="M5.15 18.55 L5.25 18.4 6.3 18.35 6.35 18.45 6.35 18.55 5.15 18.65 5.15 18.55" fill="#dddddd" fill-rule="evenodd" stroke="none"/>
      <path d="M4.75 18.35 Q4.85 18.6 4.55 18.7 L4.15 18.55 Q4.05 18.3 4.35 18.2 4.65 18.1 4.75 18.35" fill="#bcbcbc" fill-rule="evenodd" stroke="none"/>
      <path d="M4.25 18.5 L4.3 18.35 Q4.45 18.2 4.45 18.4 L4.4 18.55 4.25 18.5" fill="#ebeced" fill-rule="evenodd" stroke="none"/>
      <path d="M4.85 19.2 L4.85 19.4 4.7 19.55 4.3 19.4 Q4.2 19.1 4.5 19.05 4.75 18.9 4.85 19.2" fill="#bcbcbc" fill-rule="evenodd" stroke="none"/>
      <path d="M4.4 19.35 L4.45 19.15 4.6 19.2 4.55 19.4 4.4 19.35" fill="#ebeced" fill-rule="evenodd" stroke="none"/>
      <path d="M3.5 18.35 Q3.65 18.6 3.3 18.7 3.05 18.8 2.95 18.55 2.8 18.3 3.1 18.2 3.4 18.1 3.5 18.35" fill="#bcbcbc" fill-rule="evenodd" stroke="none"/>
      <path d="M3.05 18.5 Q2.9 18.35 3.1 18.35 L3.25 18.4 3.2 18.55 3.05 18.5" fill="#ebeced" fill-rule="evenodd" stroke="none"/>
      <path d="M3.65 19.2 L3.45 19.55 Q3.15 19.65 3.05 19.4 2.95 19.15 3.25 19.05 3.55 18.85 3.65 19.2" fill="#bcbcbc" fill-rule="evenodd" stroke="none"/>
      <path d="M3.15 19.35 L3.2 19.15 3.4 19.2 3.35 19.4 3.15 19.35" fill="#ebeced" fill-rule="evenodd" stroke="none"/>
      <path d="M8.45 17.9 L8.25 18.25 Q7.95 18.35 7.85 18.05 7.75 17.8 8.1 17.7 8.45 17.6 8.45 17.9" fill="#bcbcbc" fill-rule="evenodd" stroke="none"/>
      <path d="M8.0 18.0 Q7.95 17.85 8.05 17.85 L8.2 17.9 8.1 18.05 8.0 18.0" fill="#ebeced" fill-rule="evenodd" stroke="none"/>
      <path d="M8.5 18.75 L8.25 19.1 Q7.9 19.2 7.9 18.9 7.8 18.65 8.1 18.55 8.4 18.45 8.5 18.75" fill="#bcbcbc" fill-rule="evenodd" stroke="none"/>
      <path d="M8.0 18.85 L8.05 18.7 8.2 18.75 8.15 18.9 Q8.0 19.05 8.0 18.85" fill="#ebeced" fill-rule="evenodd" stroke="none"/>
      <path d="M11.0 18.25 L12.95 18.2 Q15.1 18.85 15.0 19.25 14.9 20.65 13.05 20.75 11.3 20.8 10.9 20.25 11.15 19.25 11.0 18.25" fill="#183349" fill-rule="evenodd" stroke="none"/>
      <path d="M17.3 21.05 L16.1 20.95 Q14.95 20.4 15.0 19.25 15.0 18.95 16.2 19.0 L17.5 19.05 Q17.65 18.95 17.65 19.15 L17.5 19.65 Q17.2 20.0 17.3 21.05" fill="#183349" fill-rule="evenodd" stroke="none"/>
      <path d="M10.95 20.0 L12.6 20.4 14.0 20.2 15.0 19.25 Q14.7 20.9 12.9 20.85 L11.0 20.35 10.9 20.25 10.95 20.0" fill="#071016" fill-rule="evenodd" stroke="none"/>
      <path d="M17.35 21.0 L17.15 21.15 Q15.1 21.15 15.0 19.35 15.85 21.2 17.3 20.85 L17.35 21.0" fill="#071016" fill-rule="evenodd" stroke="none"/>
      <path d="M17.3 20.4 Q15.4 20.55 11.0 19.25 L11.0 18.5 14.8 19.35 17.5 19.65 17.3 20.4" fill="#000000" fill-rule="evenodd" stroke="none"/>
      <path d="M15.8 20.65 L14.1 20.45 14.35 18.65 16.05 18.85 15.8 20.65 Z" fill="none" stroke="#bcbcbc" stroke-linecap="round" stroke-linejoin="round" stroke-width="0.55"/>
      <path d="M14.35 18.65 Q14.35 18.45 14.5 18.6 L14.65 18.85 14.5 20.15 14.75 20.35 14.8 20.5 14.4 20.55 14.1 20.45 14.35 18.65" fill="#dddddd" fill-rule="evenodd" stroke="none"/>
      <path d="M14.75 19.85 L13.7 19.7 13.75 19.25 14.85 19.35 14.75 19.85" fill="#bcbcbc" fill-rule="evenodd" stroke="none"/>
      <path d="M14.75 19.85 L13.7 19.7 13.75 19.25 14.85 19.35 14.75 19.85 Z" fill="none" stroke="#bcbcbc" stroke-linecap="round" stroke-linejoin="round" stroke-width="0.25"/>
      <path d="M13.7 19.25 Q13.75 19.15 13.85 19.15 L14.85 19.3 14.9 19.55 13.7 19.35 13.7 19.25" fill="#dddddd" fill-rule="evenodd" stroke="none"/>
      <path d="M11.45 10.65 Q11.45 10.15 10.75 9.95 L9.6 9.8 8.75 10.0 Q8.35 10.35 8.5 10.6 8.7 10.95 8.4 11.5 8.2 12.0 8.4 18.35 8.15 18.85 6.2 19.05 4.05 19.25 2.55 18.45 2.1 17.4 1.15 13.2 L0.05 7.95 -0.3 6.5 -0.5 5.8 -0.25 4.55 0.25 3.4 19.9 4.95 20.1 5.2 20.45 5.45 Q20.7 5.5 20.15 6.35 L20.15 7.1 19.8 8.1 19.45 9.45 18.45 13.95 17.15 19.05 14.35 19.15 Q11.8 18.9 11.25 18.25 11.45 17.4 11.45 10.65" fill="#212121" fill-rule="evenodd" stroke="none"/>
      <path d="M3.1 6.6 Q6.2 7.65 10.9 8.05 15.1 8.4 16.2 8.0 L14.3 8.45 13.1 8.45 16.8 9.1 Q13.5 9.5 9.2 9.25 4.9 9.0 3.7 8.45 L6.3 8.6 Q2.55 7.8 1.55 6.8 4.6 7.85 5.55 7.85 3.65 7.15 3.1 6.6" fill="#000000" fill-rule="evenodd" stroke="none"/>
      <path d="M7.85 8.95 L10.2 9.0 14.5 8.9 Q14.4 9.15 13.35 9.35 L11.2 9.6 12.35 10.6 10.85 10.0 9.35 9.8 7.1 9.9 5.15 10.0 4.7 10.0 6.05 9.6 7.85 8.95" fill="#000000" fill-rule="evenodd" stroke="none"/>
      <path d="M0.3 2.0 Q0.9 2.65 9.25 3.3 L19.9 3.7 20.15 5.0 Q19.5 6.05 10.0 5.1 0.8 4.15 0.05 3.5 L0.1 2.5 Q0.1 1.8 0.3 2.0" fill="#4c081a" fill-rule="evenodd" stroke="none"/>
      <path d="M-0.2 2.55 L0.05 2.55 Q1.15 3.6 9.35 5.9 17.8 8.25 19.75 7.85 L19.9 8.05 18.5 8.45 Q16.3 8.6 12.15 7.45 8.05 6.3 3.5 4.65 L-0.2 3.2 -0.2 2.55" fill="#0a0a0a" fill-rule="evenodd" stroke="none"/>
      <path d="M-0.2 2.55 Q0.75 3.55 8.45 5.85 16.65 8.3 19.9 8.05 L19.75 9.35 19.4 9.95 Q17.6 10.45 9.2 8.2 0.8 5.95 -0.45 4.65 -0.65 4.3 -0.45 3.4 L-0.2 2.55" fill="#3c3e3f" fill-rule="evenodd" stroke="none"/>
      <path d="M0.75 3.65 L0.45 3.95 Q0.15 3.95 0.15 3.65 L0.45 3.4 Q0.75 3.4 0.75 3.65" fill="#bcbcbc" fill-rule="evenodd" stroke="none"/>
      <path d="M0.3 3.6 Q0.2 3.5 0.4 3.5 L0.5 3.6 0.4 3.75 0.3 3.6" fill="#ebeced" fill-rule="evenodd" stroke="none"/>
      <path d="M0.6 4.5 L0.3 4.75 -0.05 4.5 Q-0.05 4.2 0.3 4.2 L0.6 4.5" fill="#bcbcbc" fill-rule="evenodd" stroke="none"/>
      <path d="M0.1 4.45 L0.2 4.35 0.3 4.45 0.2 4.55 0.1 4.45" fill="#ebeced" fill-rule="evenodd" stroke="none"/>
      <path d="M2.0 4.15 Q2.0 4.4 1.7 4.4 1.35 4.4 1.35 4.15 1.35 3.85 1.7 3.85 L2.0 4.15" fill="#bcbcbc" fill-rule="evenodd" stroke="none"/>
      <path d="M1.5 4.1 L1.6 4.0 1.7 4.1 1.6 4.2 1.5 4.1" fill="#ebeced" fill-rule="evenodd" stroke="none"/>
      <path d="M1.8 5.0 L1.5 5.25 1.2 5.0 Q1.2 4.7 1.5 4.7 L1.8 5.0" fill="#bcbcbc" fill-rule="evenodd" stroke="none"/>
      <path d="M1.3 4.95 L1.4 4.8 1.55 4.95 1.45 5.05 1.3 4.95" fill="#ebeced" fill-rule="evenodd" stroke="none"/>
      <path d="M3.4 4.65 L3.05 4.9 2.75 4.65 Q2.75 4.35 3.05 4.35 3.4 4.35 3.4 4.65" fill="#bcbcbc" fill-rule="evenodd" stroke="none"/>
      <path d="M2.9 4.6 L3.0 4.45 3.1 4.6 3.0 4.7 2.9 4.6" fill="#ebeced" fill-rule="evenodd" stroke="none"/>
      <path d="M3.2 5.45 L2.9 5.75 Q2.55 5.75 2.55 5.45 L2.9 5.2 Q3.2 5.2 3.2 5.45" fill="#bcbcbc" fill-rule="evenodd" stroke="none"/>
      <path d="M2.7 5.45 L2.8 5.3 2.95 5.4 2.85 5.55 2.7 5.45" fill="#ebeced" fill-rule="evenodd" stroke="none"/>
      <path d="M4.65 5.1 L4.3 5.4 Q4.0 5.4 4.0 5.1 4.0 4.85 4.3 4.85 4.65 4.85 4.65 5.1" fill="#bcbcbc" fill-rule="evenodd" stroke="none"/>
      <path d="M4.15 5.1 L4.25 4.95 4.35 5.05 4.25 5.2 4.15 5.1" fill="#ebeced" fill-rule="evenodd" stroke="none"/>
      <path d="M4.45 5.95 L4.15 6.25 Q3.85 6.25 3.85 5.95 3.85 5.7 4.15 5.7 L4.45 5.95" fill="#bcbcbc" fill-rule="evenodd" stroke="none"/>
      <path d="M3.95 5.9 L4.05 5.8 4.2 5.9 4.1 6.05 3.95 5.9" fill="#ebeced" fill-rule="evenodd" stroke="none"/>
      <path d="M5.95 5.55 L5.65 5.8 5.3 5.55 Q5.3 5.25 5.65 5.25 L5.95 5.55" fill="#bcbcbc" fill-rule="evenodd" stroke="none"/>
      <path d="M5.45 5.5 L5.55 5.4 Q5.7 5.25 5.7 5.5 L5.6 5.6 5.45 5.5" fill="#ebeced" fill-rule="evenodd" stroke="none"/>
      <path d="M5.75 6.4 L5.45 6.65 5.15 6.4 Q5.15 6.1 5.45 6.1 L5.75 6.4" fill="#bcbcbc" fill-rule="evenodd" stroke="none"/>
      <path d="M5.25 6.35 L5.35 6.2 Q5.5 6.2 5.5 6.3 L5.4 6.45 5.25 6.35" fill="#ebeced" fill-rule="evenodd" stroke="none"/>
      <path d="M7.5 6.05 L7.15 6.3 6.85 6.05 Q6.85 5.75 7.15 5.75 L7.5 6.05" fill="#bcbcbc" fill-rule="evenodd" stroke="none"/>
      <path d="M7.0 6.0 Q6.85 5.85 7.1 5.85 L7.2 5.95 7.1 6.1 7.0 6.0" fill="#ebeced" fill-rule="evenodd" stroke="none"/>
      <path d="M7.3 6.85 L7.0 7.15 Q6.65 7.15 6.65 6.85 6.65 6.6 7.0 6.6 L7.3 6.85" fill="#bcbcbc" fill-rule="evenodd" stroke="none"/>
      <path d="M6.8 6.85 Q6.8 6.7 6.9 6.7 L7.0 6.8 Q7.15 6.95 6.9 6.95 L6.8 6.85" fill="#ebeced" fill-rule="evenodd" stroke="none"/>
      <path d="M8.8 6.45 L8.5 6.7 8.15 6.45 Q8.15 6.15 8.5 6.15 L8.8 6.45" fill="#bcbcbc" fill-rule="evenodd" stroke="none"/>
      <path d="M8.3 6.4 L8.4 6.3 8.55 6.4 8.45 6.5 8.3 6.4" fill="#ebeced" fill-rule="evenodd" stroke="none"/>
      <path d="M8.6 7.3 L8.3 7.55 8.0 7.3 Q8.0 7.0 8.3 7.0 L8.6 7.3" fill="#bcbcbc" fill-rule="evenodd" stroke="none"/>
      <path d="M8.1 7.25 L8.2 7.1 8.35 7.25 8.25 7.35 8.1 7.25" fill="#ebeced" fill-rule="evenodd" stroke="none"/>
      <path d="M10.15 6.8 L9.85 7.1 Q9.5 7.1 9.5 6.8 9.5 6.55 9.85 6.55 L10.15 6.8" fill="#bcbcbc" fill-rule="evenodd" stroke="none"/>
      <path d="M9.65 6.8 L9.75 6.65 9.9 6.75 9.8 6.9 9.65 6.8" fill="#ebeced" fill-rule="evenodd" stroke="none"/>
      <path d="M9.95 7.65 L9.65 7.95 Q9.35 7.95 9.35 7.65 9.35 7.4 9.65 7.4 L9.95 7.65" fill="#bcbcbc" fill-rule="evenodd" stroke="none"/>
      <path d="M9.45 7.6 L9.55 7.5 Q9.7 7.5 9.7 7.6 L9.6 7.75 9.45 7.6" fill="#ebeced" fill-rule="evenodd" stroke="none"/>
      <path d="M14.5 7.85 L14.15 8.15 Q13.85 8.15 13.85 7.85 13.85 7.6 14.15 7.6 L14.5 7.85" fill="#bcbcbc" fill-rule="evenodd" stroke="none"/>
      <path d="M14.0 7.85 Q13.95 7.7 14.1 7.7 L14.2 7.8 14.1 7.95 14.0 7.85" fill="#ebeced" fill-rule="evenodd" stroke="none"/>
      <path d="M14.3 8.7 L14.0 9.0 Q13.65 9.0 13.65 8.7 13.65 8.45 14.0 8.45 L14.3 8.7" fill="#bcbcbc" fill-rule="evenodd" stroke="none"/>
      <path d="M13.8 8.65 L13.9 8.55 14.05 8.65 13.9 8.8 13.8 8.65" fill="#ebeced" fill-rule="evenodd" stroke="none"/>
      <path d="M15.6 7.95 L15.9 8.25 15.6 8.5 Q15.3 8.5 15.3 8.25 15.3 7.95 15.6 7.95" fill="#bcbcbc" fill-rule="evenodd" stroke="none"/>
      <path d="M15.4 8.2 L15.5 8.1 15.65 8.2 15.55 8.3 15.4 8.2" fill="#ebeced" fill-rule="evenodd" stroke="none"/>
      <path d="M15.75 9.1 L15.4 9.35 15.1 9.1 Q15.1 8.8 15.4 8.8 15.75 8.8 15.75 9.1" fill="#bcbcbc" fill-rule="evenodd" stroke="none"/>
      <path d="M15.25 9.05 L15.35 8.9 15.45 9.05 15.35 9.15 15.25 9.05" fill="#ebeced" fill-rule="evenodd" stroke="none"/>
      <path d="M17.45 8.5 L17.15 8.8 16.8 8.5 Q16.8 8.25 17.15 8.25 L17.45 8.5" fill="#bcbcbc" fill-rule="evenodd" stroke="none"/>
      <path d="M16.95 8.45 L17.05 8.35 17.2 8.45 17.1 8.6 16.95 8.45" fill="#ebeced" fill-rule="evenodd" stroke="none"/>
      <path d="M17.25 9.35 Q17.25 9.6 16.95 9.6 L16.65 9.35 Q16.65 9.05 16.95 9.05 L17.25 9.35" fill="#bcbcbc" fill-rule="evenodd" stroke="none"/>
      <path d="M16.75 9.3 L16.85 9.2 17.0 9.3 16.9 9.4 16.75 9.3" fill="#ebeced" fill-rule="evenodd" stroke="none"/>
      <path d="M19.0 8.65 L18.65 8.95 Q18.35 8.95 18.35 8.65 18.35 8.4 18.65 8.4 19.0 8.4 19.0 8.65" fill="#bcbcbc" fill-rule="evenodd" stroke="none"/>
      <path d="M18.5 8.65 Q18.45 8.5 18.6 8.5 L18.7 8.6 18.6 8.75 18.5 8.65" fill="#ebeced" fill-rule="evenodd" stroke="none"/>
      <path d="M18.8 9.5 L18.5 9.8 Q18.15 9.8 18.15 9.5 18.15 9.2 18.5 9.2 L18.8 9.5" fill="#bcbcbc" fill-rule="evenodd" stroke="none"/>
      <path d="M18.3 9.45 L18.4 9.35 18.55 9.45 18.4 9.55 18.3 9.45" fill="#ebeced" fill-rule="evenodd" stroke="none"/>
      <path d="M12.9 9.25 L10.55 8.6 11.25 6.2 13.55 6.85 12.9 9.25 Z" fill="none" stroke="#bcbcbc" stroke-linecap="round" stroke-linejoin="round" stroke-width="0.75"/>
      <path d="M11.25 6.2 Q11.3 5.95 11.45 6.2 L11.65 6.55 11.15 8.3 11.5 8.6 11.5 8.85 10.95 8.85 Q10.5 8.75 10.55 8.6 L11.25 6.2" fill="#dddddd" fill-rule="evenodd" stroke="none"/>
      <path d="M11.6 7.9 L10.15 7.5 10.35 6.9 11.75 7.3 11.6 7.9" fill="#bcbcbc" fill-rule="evenodd" stroke="none"/>
      <path d="M11.6 7.9 L10.15 7.5 10.35 6.9 11.75 7.3 11.6 7.9 Z" fill="none" stroke="#bcbcbc" stroke-linecap="round" stroke-linejoin="round" stroke-width="0.35000000000000003"/>
      <path d="M10.2 6.95 L10.45 6.8 11.15 7.0 11.85 7.25 11.85 7.5 10.2 7.0 10.2 6.95" fill="#dddddd" fill-rule="evenodd" stroke="none"/>
      <path d="M7.65 9.75 L8.05 9.6 9.65 9.5 Q9.35 9.55 8.95 9.9 L8.5 10.35 Q8.4 10.5 8.6 11.0 L8.35 11.9 8.4 18.35 8.2 18.6 8.0 18.65 7.95 15.3 8.0 11.9 Q8.0 11.45 7.65 11.35 L6.8 11.3 8.1 10.55 7.3 10.5 5.95 10.85 6.5 10.35 7.65 9.75" fill="#000000" fill-rule="evenodd" stroke="none"/>
      <path d="M20.3 5.7 Q20.5 5.6 20.35 5.95 L19.9 6.35 15.9 6.15 18.1 6.0 20.3 5.7" fill="#000000" fill-rule="evenodd" stroke="none"/>
      <path d="M20.05 7.1 Q20.3 7.1 19.8 7.75 L18.2 7.6 15.7 7.05 17.95 7.15 20.05 7.1" fill="#000000" fill-rule="evenodd" stroke="none"/>
      <path d="M2.15 17.75 L5.1 17.8 8.6 17.15 8.75 18.3 8.6 19.25 5.9 19.75 Q3.55 19.95 2.7 19.7 L2.25 18.75 Q2.05 18.05 2.15 17.75" fill="#3c3e3f" fill-rule="evenodd" stroke="none"/>
      <path d="M7.55 19.4 L5.8 19.6 5.6 17.8 7.35 17.6 7.55 19.4 Z" fill="none" stroke="#bcbcbc" stroke-linecap="round" stroke-linejoin="round" stroke-width="0.55"/>
      <path d="M5.6 17.8 Q5.55 17.65 5.75 17.75 L6.0 17.95 6.1 19.25 6.45 19.35 6.5 19.5 5.8 19.6 5.6 17.8" fill="#dddddd" fill-rule="evenodd" stroke="none"/>
      <path d="M6.3 18.85 L5.25 18.95 5.2 18.5 6.25 18.4 6.3 18.85" fill="#bcbcbc" fill-rule="evenodd" stroke="none"/>
      <path d="M6.3 18.85 L5.25 18.95 5.2 18.5 6.25 18.4 6.3 18.85 Z" fill="none" stroke="#bcbcbc" stroke-linecap="round" stroke-linejoin="round" stroke-width="0.25"/>
      <path d="M5.15 18.55 L5.25 18.4 6.3 18.35 6.35 18.45 6.35 18.55 5.15 18.65 5.15 18.55" fill="#dddddd" fill-rule="evenodd" stroke="none"/>
      <path d="M4.75 18.35 Q4.85 18.6 4.55 18.7 L4.15 18.55 Q4.05 18.3 4.35 18.2 4.65 18.1 4.75 18.35" fill="#bcbcbc" fill-rule="evenodd" stroke="none"/>
      <path d="M4.25 18.5 L4.3 18.35 Q4.45 18.2 4.45 18.4 L4.4 18.55 4.25 18.5" fill="#ebeced" fill-rule="evenodd" stroke="none"/>
      <path d="M4.85 19.2 L4.85 19.4 4.7 19.55 4.3 19.4 Q4.2 19.1 4.5 19.05 4.75 18.9 4.85 19.2" fill="#bcbcbc" fill-rule="evenodd" stroke="none"/>
      <path d="M4.4 19.35 L4.45 19.15 4.6 19.2 4.55 19.4 4.4 19.35" fill="#ebeced" fill-rule="evenodd" stroke="none"/>
      <path d="M3.5 18.35 Q3.65 18.6 3.3 18.7 3.05 18.8 2.95 18.55 2.8 18.3 3.1 18.2 3.4 18.1 3.5 18.35" fill="#bcbcbc" fill-rule="evenodd" stroke="none"/>
      <path d="M3.05 18.5 Q2.9 18.35 3.1 18.35 L3.25 18.4 3.2 18.55 3.05 18.5" fill="#ebeced" fill-rule="evenodd" stroke="none"/>
      <path d="M3.65 19.2 L3.45 19.55 Q3.15 19.65 3.05 19.4 2.95 19.15 3.25 19.05 3.55 18.85 3.65 19.2" fill="#bcbcbc" fill-rule="evenodd" stroke="none"/>
      <path d="M3.15 19.35 L3.2 19.15 3.4 19.2 3.35 19.4 3.15 19.35" fill="#ebeced" fill-rule="evenodd" stroke="none"/>
      <path d="M8.45 17.9 L8.25 18.25 Q7.95 18.35 7.85 18.05 7.75 17.8 8.1 17.7 8.45 17.6 8.45 17.9" fill="#bcbcbc" fill-rule="evenodd" stroke="none"/>
      <path d="M8.0 18.0 Q7.95 17.85 8.05 17.85 L8.2 17.9 8.1 18.05 8.0 18.0" fill="#ebeced" fill-rule="evenodd" stroke="none"/>
      <path d="M8.5 18.75 L8.25 19.1 Q7.9 19.2 7.9 18.9 7.8 18.65 8.1 18.55 8.4 18.45 8.5 18.75" fill="#bcbcbc" fill-rule="evenodd" stroke="none"/>
      <path d="M8.0 18.85 L8.05 18.7 8.2 18.75 8.2 18.85 8.15 18.9 8.05 18.9 8.0 18.85" fill="#ebeced" fill-rule="evenodd" stroke="none"/>
      <path d="M11.0 18.25 L12.95 18.2 Q15.1 18.85 15.0 19.25 14.9 20.65 13.05 20.75 11.3 20.8 10.9 20.25 11.15 19.25 11.0 18.25" fill="#930d2a" fill-rule="evenodd" stroke="none"/>
      <path d="M16.1 20.95 Q14.95 20.4 15.0 19.25 15.0 18.95 16.2 19.0 L17.5 19.05 Q17.65 18.95 17.65 19.15 L17.5 19.65 Q17.2 20.0 17.3 21.05 L16.1 20.95" fill="#930d2a" fill-rule="evenodd" stroke="none"/>
      <path d="M10.95 20.0 L12.6 20.4 14.0 20.2 15.0 19.25 Q14.7 20.9 12.9 20.85 L11.0 20.35 10.9 20.25 10.95 20.0" fill="#4c081a" fill-rule="evenodd" stroke="none"/>
      <path d="M17.15 21.15 Q15.1 21.15 15.0 19.35 15.85 21.2 17.3 20.85 L17.35 21.0 17.15 21.15" fill="#4c081a" fill-rule="evenodd" stroke="none"/>
      <path d="M11.0 18.5 L14.8 19.35 17.5 19.65 17.3 20.4 Q15.4 20.55 11.0 19.25 L11.0 18.5" fill="#000000" fill-rule="evenodd" stroke="none"/>
      <path d="M14.35 18.65 L16.05 18.85 15.8 20.65 14.1 20.45 14.35 18.65 Z" fill="none" stroke="#bcbcbc" stroke-linecap="round" stroke-linejoin="round" stroke-width="0.55"/>
      <path d="M14.35 18.65 Q14.35 18.45 14.5 18.6 L14.65 18.85 14.5 20.15 14.75 20.35 14.8 20.5 14.4 20.55 14.1 20.45 14.35 18.65" fill="#dddddd" fill-rule="evenodd" stroke="none"/>
      <path d="M14.75 19.85 L13.7 19.7 13.75 19.25 14.85 19.35 14.75 19.85" fill="#bcbcbc" fill-rule="evenodd" stroke="none"/>
      <path d="M14.75 19.85 L13.7 19.7 13.75 19.25 14.85 19.35 14.75 19.85 Z" fill="none" stroke="#bcbcbc" stroke-linecap="round" stroke-linejoin="round" stroke-width="0.25"/>
      <path d="M13.7 19.25 Q13.75 19.15 13.85 19.15 L14.85 19.3 14.9 19.55 13.7 19.35 13.7 19.25" fill="#dddddd" fill-rule="evenodd" stroke="none"/>
    </g>
  </defs>
</svg>
