<svg xmlns="http://www.w3.org/2000/svg" xmlns:ffdec="https://www.free-decompiler.com/flash" xmlns:xlink="http://www.w3.org/1999/xlink" ffdec:objectType="frame" width="33.2" height="20.3"><g transform="translate(7.3 .2)"><use ffdec:characterId="1" xlink:href="#a" width="33.1" height="6.75" transform="translate(-7.3 13.35)"/><use ffdec:characterId="3" xlink:href="#b" width="32.95" height="17.3" transform="translate(-7.05 -.2)"/><use ffdec:characterId="4" xlink:href="#c" width="23.5" height="16.15" transform="translate(-1.8 -.2)"/></g><defs><g id="a" fill-rule="evenodd"><path fill-opacity=".298" d="m33.1 2.55-.8.35.2.85q-.25 0-.45.15l-.15.05-.05.05-.25-.85-1.35.5.25.85-.45.15-.25.1-.2-.85-1.9.55.2.85-.35.1-.45.15h-.05l-.15-.9-1.75.4.1.95H25l-.7.15-.1-.9-1.7.25.1.95h-.15l-.75.1-.1-.95-1.95.15v.95l-.9.05-.05-.95h-2.3l-.05.9-1.25-.05v-.9l-2.25-.25-.1.9-.95-.1.1-.9-1.8-.3-.15.85-.9-.2.15-.85-1.9-.45-.25.8-1-.25.2-.85-1.9-.6-.3.8-.8-.25.25-.8-1.65-.65-.3.8-.9-.4L1 2.3l-1-.4.3-.8 1 .45L1.8.4l.75.4-.4 1.05 1.65.65.4-1.05.8.3-.35 1 1.85.6.3-1 1.1.3-.3.95 1.75.45.2-1.05.2.05.65.15-.15 1 1.7.3.1-1.05.95.15-.1 1.05 2.2.2V3.8l1.35.05-.05 1.05h2.25l-.05-1.1.95-.05.05 1.15 1.95-.15-.1-1.2.85-.1.15 1.2 1.65-.25-.15-1.25.9-.2L25 4.2l1.7-.35-.25-1.3.85-.2.25 1.25 1.85-.55-.35-1.3.65-.25.35 1.35 1.35-.5L31 1l.65-.3.4 1.4.8-.35z"/><path fill="#fff" d="m33.1 2.15-.8.35.2.85q-.25 0-.45.15l-.15.05-.05.05-.25-.85-1.35.5.25.85-.45.15-.25.1-.2-.85-1.9.55.2.85-.35.1-.45.15h-.05l-.15-.9-1.75.4.1.95H25l-.7.15-.1-.9-1.7.25.1.95h-.15l-.75.1-.1-.95-1.95.15v.95l-.9.05-.05-.95h-2.3l-.05.9-1.25-.05v-.9l-2.25-.25-.1.9-.95-.1.1-.9-1.8-.3-.15.85-.9-.2.15-.85-1.9-.45-.25.8-1-.25.2-.85-1.9-.6-.3.8-.8-.25.25-.8-1.65-.65-.3.8-.9-.4L1 1.9l-1-.4.3-.8 1 .45L1.8 0l.75.4-.4 1.05 1.65.65.4-1.05.8.3-.35 1 1.85.6.3-1 1.1.3-.3.95 1.75.45.2-1.05.2.05.65.15-.15 1 1.7.3.1-1.05.95.15-.1 1.05 2.2.2V3.4l1.35.05-.05 1.05h2.25l-.05-1.1.95-.05.05 1.15 1.95-.15-.1-1.2.85-.1.15 1.2L24.1 4l-.15-1.25.9-.2L25 3.8l1.7-.35-.25-1.3.85-.2.25 1.25 1.85-.55-.35-1.3.65-.25.35 1.35 1.35-.5L31 .6l.65-.3.4 1.4.8-.35z"/></g><g id="c" fill-rule="evenodd"><path fill="#ccc" d="m23 15.4-.05.05q-.45.6-1.25.7l-.45-.05-.25-3.5h-.05l-.85-3.85h.05l-1.2-3.7h-.05L17.4 1.4q.15-.15.35-.15l-.4.05L17.1 0h2.05l-.2.35-.75.75 1 .05q.8.35 1.1 1.15.35.8 0 1.5l-.65.95h.75q-.3.4-.3.95 0 .7.5 1.2t1.15.5l-.1.2q-.25.7-.9 1h.5l-.3.45q-.15.3-.15.65 0 .7.5 1.2l.05.05q.5.45 1.15.45h.2l-.05.1-.1.1-.35.55.15.05-.15.1-.3.2-.05.1-.25.35-.05.1q-.15.3-.15.65 0 .6.35 1.05l.15.15.05.05q.45.4 1.05.45M3.1 4.75h.75L3.2 3.8q-.35-.7 0-1.5.3-.8 1.1-1.15l1-.05-.75-.75-.2-.35H6.4l-.25 1.3-.35-.05q.15 0 .3.15L4.6 5.05h-.05l-1.2 3.7h.05l-.85 3.85H2.5l-.25 3.5-.45.05q-.85-.1-1.3-.8l-.1-.15q.6-.05 1.05-.45l.05-.05.15-.15L2 13.5l-.15-.65-.05-.1-.25-.35-.05-.1-.2-.15-.35-.55-.2-.4H.9q.65 0 1.15-.45l.05-.05q.5-.5.5-1.2l-.15-.65-.15-.3.45.05q-.65-.3-.9-1l-.15-.4q.6 0 1.1-.5t.5-1.2z"/><path fill="#fff" d="M23 15.4q-.6-.05-1.05-.45l-.05-.05-.15-.15q-.35-.45-.35-1.05 0-.35.15-.65l.05-.1.25-.35.05-.1.3-.2.15-.1.45.25q.65.55.65 1.5.15.8-.45 1.4zm-.3-4h-.2q-.65 0-1.15-.45l-.05-.05q-.5-.5-.5-1.2 0-.35.15-.65l.3-.45.6.15h.05l.05.05q.7.45.85 1.35l-.05 1.1zm-.95-4q-.65 0-1.15-.5t-.5-1.2q0-.55.3-.95l.35.1q.75.4 1 1.25.25.7 0 1.3M.4 15.2q-.5-.55-.35-1.25 0-.95.65-1.5l.6-.3.2.15.05.1.25.35.05.1.15.65-.35 1.05-.15.15-.05.05q-.45.4-1.05.45m.35-4L.7 10.15q.15-.9.85-1.35l.75-.25.15.3.15.65q0 .7-.5 1.2l-.05.05q-.5.45-1.15.45zm.95-4q-.15-.5.05-1.1.25-.85 1-1.25l.35-.1.2.75q0 .7-.5 1.2t-1.1.5m13.85-3.1q.2-.15.5-.15l.55.15.2.55-.2.5-.55.2q-.3 0-.5-.2l-.2-.5zm1.3 4.1q.2-.15.5-.15l.55.15.2.55-.2.5-.55.2q-.3 0-.5-.2l-.2-.5zM7.6 5.15q-.2.2-.55.2-.3 0-.5-.2l-.2-.5.2-.55q.2-.15.5-.15l.55.15.2.55zm-1.55 4.3q-.3 0-.5-.2l-.2-.5.2-.55q.2-.15.5-.15l.55.15.2.55-.2.5zm-1.4 3.25.5-.15.55.15.2.55-.2.5-.55.2q-.3 0-.5-.2l-.2-.5q0-.35.2-.55m13.1 1.05-.2-.5.2-.55q.2-.15.5-.15l.55.15.2.55-.2.5-.55.2q-.3 0-.5-.2"/><path fill-opacity=".298" d="M21.8 0q-1.1.65-2.95 1.3-3.6 1.35-7.05 1.4T4.75 1.4Q2.95.7 1.8 0zm0 2.4q0 5.5-1.1 6.2-1.1 1.4-8.9 1.6 3.25-.75 6.95-3.25Q20.6 5.7 21.8 2.4m-19-.9q5.9 3.7 8.6 4.3L6.3 4.7Q3.55 4 2.8 1.5m6.9 12.65.7.8-1.5-.8-.1-.05-3.5-1.8q-5.9-3-4.2-10.9.55 1.65 1.95 3.85Q5.6 9.4 9.65 14.1z"/></g><path id="d" fill="#a30f0f" fill-rule="evenodd" d="M2.5 16.35q-5.95-1.15-9.55-3.3L-7 13l2.7-6.5Q-2.55 2.9-.1-.2h20.15q2.35 3.05 3.65 6.55l2.2 7.3q-11.5 5.05-23.4 2.7" transform="translate(7.05 .2)"/><use ffdec:characterId="2" xlink:href="#d" id="b" width="32.95" height="17.3"/></defs></svg>