<svg xmlns="http://www.w3.org/2000/svg" xmlns:ffdec="https://www.free-decompiler.com/flash" xmlns:xlink="http://www.w3.org/1999/xlink" ffdec:objectType="frame" width="39.7" height="16.5"><use ffdec:characterId="1" xlink:href="#a" width="39.7" height="16.5"/><defs><radialGradient id="b" cx="0" cy="0" r="819.2" gradientTransform="matrix(0 0 0 0 0 0)" gradientUnits="userSpaceOnUse" spreadMethod="pad"><stop offset=".071" stop-color="#f77"/><stop offset=".729" stop-color="#ffbfbf"/><stop offset="1" stop-color="#ff7b7b"/></radialGradient><radialGradient id="c" cx="0" cy="0" r="819.2" gradientTransform="translate(4.3 8.95)scale(.0025)" gradientUnits="userSpaceOnUse" spreadMethod="pad"><stop offset=".071" stop-color="#464646"/><stop offset=".6" stop-color="#333"/><stop offset="1" stop-color="#6d6d6d"/></radialGradient><radialGradient id="d" cx="0" cy="0" r="819.2" gradientTransform="translate(7.05 3.1)scale(.0037)" gradientUnits="userSpaceOnUse" spreadMethod="pad"><stop offset=".024" stop-color="#6b6b6b"/><stop offset=".62" stop-color="#545454"/><stop offset=".992" stop-color="#959595"/></radialGradient><radialGradient id="e" cx="0" cy="0" r="819.2" gradientTransform="translate(4.8 3.2)scale(.0066)" gradientUnits="userSpaceOnUse" spreadMethod="pad"><stop offset=".024" stop-color="#6b6b6b"/><stop offset=".62" stop-color="#545454"/><stop offset=".992" stop-color="#959595"/></radialGradient><radialGradient id="f" cx="0" cy="0" r="819.2" gradientTransform="matrix(-.0071 0 0 .0071 15.5 2.35)" gradientUnits="userSpaceOnUse" spreadMethod="pad"><stop offset="0" stop-color="#d7d7d7"/><stop offset=".576" stop-color="#666"/><stop offset="1" stop-color="#9f9f9f"/></radialGradient><radialGradient id="g" cx="0" cy="0" r="819.2" gradientTransform="matrix(-.0071 0 0 .0071 15.5 2.35)" gradientUnits="userSpaceOnUse" spreadMethod="pad"><stop offset=".071" stop-color="#464646"/><stop offset=".6" stop-color="#333"/><stop offset="1" stop-color="#6d6d6d"/></radialGradient><radialGradient id="h" cx="0" cy="0" r="819.2" gradientTransform="matrix(-.0071 0 0 .0071 15.5 2.35)" gradientUnits="userSpaceOnUse" spreadMethod="pad"><stop offset=".024" stop-color="#6b6b6b"/><stop offset=".62" stop-color="#545454"/><stop offset=".992" stop-color="#959595"/></radialGradient><radialGradient id="i" cx="0" cy="0" r="819.2" gradientTransform="matrix(-.0009 0 0 .0009 19.65 1.65)" gradientUnits="userSpaceOnUse" spreadMethod="pad"><stop offset="0" stop-color="#d7d7d7"/><stop offset=".62" stop-color="#a6a6a6"/><stop offset="1" stop-color="#d9d9d9"/></radialGradient><radialGradient id="j" cx="0" cy="0" r="819.2" gradientTransform="matrix(-.0066 0 0 .0066 15.25 3.2)" gradientUnits="userSpaceOnUse" spreadMethod="pad"><stop offset=".024" stop-color="#6b6b6b"/><stop offset=".62" stop-color="#545454"/><stop offset=".992" stop-color="#959595"/></radialGradient><radialGradient id="k" cx="0" cy="0" r="819.2" gradientTransform="matrix(-.0037 0 0 .0037 13 3.1)" gradientUnits="userSpaceOnUse" spreadMethod="pad"><stop offset=".024" stop-color="#6b6b6b"/><stop offset=".62" stop-color="#545454"/><stop offset=".992" stop-color="#959595"/></radialGradient><radialGradient id="l" cx="0" cy="0" r="819.2" gradientTransform="translate(11.85 8.25)scale(.0225)" gradientUnits="userSpaceOnUse" spreadMethod="pad"><stop offset=".173" stop-color="#830000"/><stop offset=".671" stop-color="#bf2aad"/></radialGradient><radialGradient id="m" cx="0" cy="0" r="819.2" gradientTransform="translate(-4.6 4.65)scale(.007)" gradientUnits="userSpaceOnUse" spreadMethod="pad"><stop offset=".173" stop-color="#830000"/><stop offset=".671" stop-color="#bf2aad"/></radialGradient><radialGradient id="n" cx="0" cy="0" r="819.2" gradientTransform="translate(11.85 8.25)scale(.0225)" gradientUnits="userSpaceOnUse" spreadMethod="pad"><stop offset="0" stop-color="#3f001b"/><stop offset=".541" stop-color="#3a0000"/></radialGradient><radialGradient id="o" cx="0" cy="0" r="819.2" gradientTransform="translate(-4.6 4.65)scale(.007)" gradientUnits="userSpaceOnUse" spreadMethod="pad"><stop offset="0" stop-color="#3f001b"/><stop offset=".541" stop-color="#3a0000"/></radialGradient><radialGradient id="p" cx="0" cy="0" r="819.2" gradientTransform="translate(-3.15 6.5)scale(.0083)" gradientUnits="userSpaceOnUse" spreadMethod="pad"><stop offset="0" stop-color="#3f001b"/><stop offset=".541" stop-color="#3a0000"/></radialGradient><radialGradient id="q" cx="0" cy="0" r="819.2" gradientTransform="translate(4.55 2.35)scale(.0071)" gradientUnits="userSpaceOnUse" spreadMethod="pad"><stop offset="0" stop-color="#d7d7d7"/><stop offset=".576" stop-color="#666"/><stop offset="1" stop-color="#9f9f9f"/></radialGradient><radialGradient id="r" cx="0" cy="0" r="819.2" gradientTransform="translate(4.55 2.35)scale(.0071)" gradientUnits="userSpaceOnUse" spreadMethod="pad"><stop offset=".024" stop-color="#6b6b6b"/><stop offset=".62" stop-color="#545454"/><stop offset=".992" stop-color="#959595"/></radialGradient><radialGradient id="s" cx="0" cy="0" r="819.2" gradientTransform="translate(4.55 2.35)scale(.0071)" gradientUnits="userSpaceOnUse" spreadMethod="pad"><stop offset=".071" stop-color="#464646"/><stop offset=".6" stop-color="#333"/><stop offset="1" stop-color="#6d6d6d"/></radialGradient><radialGradient id="t" cx="0" cy="0" r="819.2" gradientTransform="translate(.4 1.65)scale(.0009)" gradientUnits="userSpaceOnUse" spreadMethod="pad"><stop offset="0" stop-color="#d7d7d7"/><stop offset=".62" stop-color="#a6a6a6"/><stop offset="1" stop-color="#d9d9d9"/></radialGradient><radialGradient id="u" cx="0" cy="0" r="819.2" gradientTransform="translate(9.9 3.85)scale(.0042)" gradientUnits="userSpaceOnUse" spreadMethod="pad"><stop offset="0" stop-color="#d7d7d7"/><stop offset=".62" stop-color="#a6a6a6"/><stop offset="1" stop-color="#d9d9d9"/></radialGradient><radialGradient id="v" cx="0" cy="0" r="819.2" gradientTransform="matrix(0 0 0 0 -4.5 .35)" gradientUnits="userSpaceOnUse" spreadMethod="pad"><stop offset=".024" stop-color="#6b6b6b"/><stop offset=".62" stop-color="#545454"/><stop offset=".992" stop-color="#959595"/></radialGradient><radialGradient id="w" cx="0" cy="0" r="819.2" gradientTransform="translate(9.9 3.85)scale(.0042)" gradientUnits="userSpaceOnUse" spreadMethod="pad"><stop offset="0" stop-color="#d7d7d7"/><stop offset=".576" stop-color="#666"/><stop offset="1" stop-color="#9f9f9f"/></radialGradient><radialGradient id="x" cx="0" cy="0" r="819.2" gradientTransform="translate(10 4.15)scale(.0042)" gradientUnits="userSpaceOnUse" spreadMethod="pad"><stop offset="0"/><stop offset=".761" stop-color="#272727"/><stop offset="1"/></radialGradient><radialGradient id="y" cx="0" cy="0" r="819.2" gradientTransform="translate(3.6 7.3)scale(.0009)" gradientUnits="userSpaceOnUse" spreadMethod="pad"><stop offset="0" stop-color="#333"/><stop offset="1" stop-color="#989898"/></radialGradient><radialGradient id="z" cx="0" cy="0" r="819.2" gradientTransform="translate(3.6 7.1)scale(.0009)" gradientUnits="userSpaceOnUse" spreadMethod="pad"><stop offset="0" stop-color="#d7d7d7"/><stop offset=".576" stop-color="#666"/><stop offset="1" stop-color="#9f9f9f"/></radialGradient><radialGradient id="A" cx="0" cy="0" r="819.2" gradientTransform="translate(2.3 5.95)scale(.0009)" gradientUnits="userSpaceOnUse" spreadMethod="pad"><stop offset="0" stop-color="#333"/><stop offset="1" stop-color="#989898"/></radialGradient><radialGradient id="B" cx="0" cy="0" r="819.2" gradientTransform="translate(2.3 5.75)scale(.0009)" gradientUnits="userSpaceOnUse" spreadMethod="pad"><stop offset="0" stop-color="#d7d7d7"/><stop offset=".576" stop-color="#666"/><stop offset="1" stop-color="#9f9f9f"/></radialGradient><radialGradient id="C" cx="0" cy="0" r="819.2" gradientTransform="translate(.7 4.5)scale(.0009)" gradientUnits="userSpaceOnUse" spreadMethod="pad"><stop offset="0" stop-color="#d7d7d7"/><stop offset=".576" stop-color="#666"/><stop offset="1" stop-color="#9f9f9f"/></radialGradient><radialGradient id="D" cx="0" cy="0" r="819.2" gradientTransform="translate(.7 4.7)scale(.0009)" gradientUnits="userSpaceOnUse" spreadMethod="pad"><stop offset="0" stop-color="#333"/><stop offset="1" stop-color="#989898"/></radialGradient><radialGradient id="E" cx="0" cy="0" r="819.2" gradientTransform="translate(-.35 3.1)scale(.0009)" gradientUnits="userSpaceOnUse" spreadMethod="pad"><stop offset="0" stop-color="#333"/><stop offset="1" stop-color="#989898"/></radialGradient><radialGradient id="F" cx="0" cy="0" r="819.2" gradientTransform="translate(-.35 2.9)scale(.0009)" gradientUnits="userSpaceOnUse" spreadMethod="pad"><stop offset="0" stop-color="#d7d7d7"/><stop offset=".576" stop-color="#666"/><stop offset="1" stop-color="#9f9f9f"/></radialGradient><radialGradient id="G" cx="0" cy="0" r="819.2" gradientTransform="matrix(-.0009 0 0 .0009 20.75 2.9)" gradientUnits="userSpaceOnUse" spreadMethod="pad"><stop offset="0" stop-color="#d7d7d7"/><stop offset=".576" stop-color="#666"/><stop offset="1" stop-color="#9f9f9f"/></radialGradient><radialGradient id="H" cx="0" cy="0" r="819.2" gradientTransform="matrix(-.0009 0 0 .0009 20.75 3.1)" gradientUnits="userSpaceOnUse" spreadMethod="pad"><stop offset="0" stop-color="#333"/><stop offset="1" stop-color="#989898"/></radialGradient><radialGradient id="I" cx="0" cy="0" r="819.2" gradientTransform="matrix(-.0009 0 0 .0009 19.7 4.5)" gradientUnits="userSpaceOnUse" spreadMethod="pad"><stop offset="0" stop-color="#d7d7d7"/><stop offset=".576" stop-color="#666"/><stop offset="1" stop-color="#9f9f9f"/></radialGradient><radialGradient id="J" cx="0" cy="0" r="819.2" gradientTransform="matrix(-.0009 0 0 .0009 18.1 5.95)" gradientUnits="userSpaceOnUse" spreadMethod="pad"><stop offset="0" stop-color="#333"/><stop offset="1" stop-color="#989898"/></radialGradient><radialGradient id="K" cx="0" cy="0" r="819.2" gradientTransform="matrix(-.0009 0 0 .0009 19.7 4.7)" gradientUnits="userSpaceOnUse" spreadMethod="pad"><stop offset="0" stop-color="#333"/><stop offset="1" stop-color="#989898"/></radialGradient><radialGradient id="L" cx="0" cy="0" r="819.2" gradientTransform="matrix(-.0009 0 0 .0009 18.1 5.75)" gradientUnits="userSpaceOnUse" spreadMethod="pad"><stop offset="0" stop-color="#d7d7d7"/><stop offset=".576" stop-color="#666"/><stop offset="1" stop-color="#9f9f9f"/></radialGradient><radialGradient id="M" cx="0" cy="0" r="819.2" gradientTransform="matrix(-.0009 0 0 .0009 16.8 7.1)" gradientUnits="userSpaceOnUse" spreadMethod="pad"><stop offset="0" stop-color="#d7d7d7"/><stop offset=".576" stop-color="#666"/><stop offset="1" stop-color="#9f9f9f"/></radialGradient><radialGradient id="N" cx="0" cy="0" r="819.2" gradientTransform="matrix(-.0009 0 0 .0009 16.8 7.3)" gradientUnits="userSpaceOnUse" spreadMethod="pad"><stop offset="0" stop-color="#333"/><stop offset="1" stop-color="#989898"/></radialGradient><radialGradient id="O" cx="0" cy="0" r="819.2" gradientTransform="matrix(-.0009 0 0 .0009 13.65 9.2)" gradientUnits="userSpaceOnUse" spreadMethod="pad"><stop offset="0" stop-color="#333"/><stop offset="1" stop-color="#989898"/></radialGradient><radialGradient id="P" cx="0" cy="0" r="819.2" gradientTransform="matrix(-.0009 0 0 .0009 13.65 9)" gradientUnits="userSpaceOnUse" spreadMethod="pad"><stop offset="0" stop-color="#d7d7d7"/><stop offset=".576" stop-color="#666"/><stop offset="1" stop-color="#9f9f9f"/></radialGradient><radialGradient id="Q" cx="0" cy="0" r="819.2" gradientTransform="matrix(-.0009 0 0 .0009 15.1 8.35)" gradientUnits="userSpaceOnUse" spreadMethod="pad"><stop offset="0" stop-color="#333"/><stop offset="1" stop-color="#989898"/></radialGradient><radialGradient id="R" cx="0" cy="0" r="819.2" gradientTransform="matrix(-.0009 0 0 .0009 15.1 8.15)" gradientUnits="userSpaceOnUse" spreadMethod="pad"><stop offset="0" stop-color="#d7d7d7"/><stop offset=".576" stop-color="#666"/><stop offset="1" stop-color="#9f9f9f"/></radialGradient><radialGradient id="S" cx="0" cy="0" r="819.2" gradientTransform="matrix(-.0009 0 0 .0009 11.85 9.5)" gradientUnits="userSpaceOnUse" spreadMethod="pad"><stop offset="0" stop-color="#d7d7d7"/><stop offset=".576" stop-color="#666"/><stop offset="1" stop-color="#9f9f9f"/></radialGradient><radialGradient id="T" cx="0" cy="0" r="819.2" gradientTransform="matrix(-.0009 0 0 .0009 11.85 9.7)" gradientUnits="userSpaceOnUse" spreadMethod="pad"><stop offset="0" stop-color="#333"/><stop offset="1" stop-color="#989898"/></radialGradient><radialGradient id="U" cx="0" cy="0" r="819.2" gradientTransform="matrix(-.0009 0 0 .0009 9.75 9.75)" gradientUnits="userSpaceOnUse" spreadMethod="pad"><stop offset="0" stop-color="#d7d7d7"/><stop offset=".576" stop-color="#666"/><stop offset="1" stop-color="#9f9f9f"/></radialGradient><radialGradient id="V" cx="0" cy="0" r="819.2" gradientTransform="matrix(-.0009 0 0 .0009 9.75 9.95)" gradientUnits="userSpaceOnUse" spreadMethod="pad"><stop offset="0" stop-color="#333"/><stop offset="1" stop-color="#989898"/></radialGradient><radialGradient id="W" cx="0" cy="0" r="819.2" gradientTransform="matrix(-.0009 0 0 .0009 7.45 9.2)" gradientUnits="userSpaceOnUse" spreadMethod="pad"><stop offset="0" stop-color="#d7d7d7"/><stop offset=".576" stop-color="#666"/><stop offset="1" stop-color="#9f9f9f"/></radialGradient><radialGradient id="X" cx="0" cy="0" r="819.2" gradientTransform="matrix(-.0009 0 0 .0009 7.45 9.4)" gradientUnits="userSpaceOnUse" spreadMethod="pad"><stop offset="0" stop-color="#333"/><stop offset="1" stop-color="#989898"/></radialGradient><radialGradient id="Y" cx="0" cy="0" r="819.2" gradientTransform="translate(5.3 8.5)scale(.0009)" gradientUnits="userSpaceOnUse" spreadMethod="pad"><stop offset="0" stop-color="#333"/><stop offset="1" stop-color="#989898"/></radialGradient><radialGradient id="Z" cx="0" cy="0" r="819.2" gradientTransform="translate(5.3 8.3)scale(.0009)" gradientUnits="userSpaceOnUse" spreadMethod="pad"><stop offset="0" stop-color="#d7d7d7"/><stop offset=".576" stop-color="#666"/><stop offset="1" stop-color="#9f9f9f"/></radialGradient><radialGradient id="aa" cx="0" cy="0" r="819.2" gradientTransform="translate(-2.75 7.6)scale(.0109)" gradientUnits="userSpaceOnUse" spreadMethod="pad"><stop offset=".235" stop-color="#d9d9d9"/><stop offset=".459" stop-color="#fff7c4"/><stop offset=".729" stop-color="#fff"/></radialGradient><radialGradient id="ab" cx="0" cy="0" r="819.2" gradientTransform="translate(-4.5 7.85)scale(.0012)" gradientUnits="userSpaceOnUse" spreadMethod="pad"><stop offset=".537" stop-color="#a8a19d"/><stop offset="1" stop-color="#c9beba"/></radialGradient><radialGradient id="ac" cx="0" cy="0" r="819.2" gradientTransform="translate(-4.15 8.8)scale(.0006)" gradientUnits="userSpaceOnUse" spreadMethod="pad"><stop offset=".537" stop-color="#a8a19d"/><stop offset="1" stop-color="#c9beba"/></radialGradient><radialGradient id="ad" cx="0" cy="0" r="819.2" gradientTransform="translate(-3.7 9.4)scale(.0009)" gradientUnits="userSpaceOnUse" spreadMethod="pad"><stop offset=".537" stop-color="#a8a19d"/><stop offset="1" stop-color="#c9beba"/></radialGradient><radialGradient id="ae" cx="0" cy="0" r="819.2" gradientTransform="translate(-2.75 7.6)scale(.0109)" gradientUnits="userSpaceOnUse" spreadMethod="pad"><stop offset=".537" stop-color="#a8a19d"/><stop offset="1" stop-color="#c9beba"/></radialGradient><radialGradient id="af" cx="0" cy="0" r="819.2" gradientTransform="matrix(0 0 0 0 0 0)" gradientUnits="userSpaceOnUse" spreadMethod="pad"><stop offset=".537" stop-color="#a8a19d"/><stop offset="1" stop-color="#c9beba"/></radialGradient><radialGradient id="ag" cx="0" cy="0" r="819.2" gradientTransform="translate(-2.75 7.6)scale(.0109)" gradientUnits="userSpaceOnUse" spreadMethod="pad"><stop offset=".475" stop-color="#d0bcb5"/><stop offset="1" stop-color="#fff7c4"/></radialGradient><radialGradient id="ah" cx="0" cy="0" r="819.2" gradientTransform="matrix(-.0109 0 0 .0109 23.05 7.35)" gradientUnits="userSpaceOnUse" spreadMethod="pad"><stop offset=".537" stop-color="#a8a19d"/><stop offset="1" stop-color="#c9beba"/></radialGradient><radialGradient id="ai" cx="0" cy="0" r="819.2" gradientTransform="matrix(-.0109 0 0 .0109 23.05 7.35)" gradientUnits="userSpaceOnUse" spreadMethod="pad"><stop offset=".235" stop-color="#d9d9d9"/><stop offset=".459" stop-color="#fff7c4"/><stop offset=".729" stop-color="#fff"/></radialGradient><radialGradient id="aj" cx="0" cy="0" r="819.2" gradientTransform="matrix(-.0009 0 0 .0009 24 9.15)" gradientUnits="userSpaceOnUse" spreadMethod="pad"><stop offset=".537" stop-color="#a8a19d"/><stop offset="1" stop-color="#c9beba"/></radialGradient><radialGradient id="ak" cx="0" cy="0" r="819.2" gradientTransform="matrix(0 0 0 0 20.3 -.25)" gradientUnits="userSpaceOnUse" spreadMethod="pad"><stop offset=".537" stop-color="#a8a19d"/><stop offset="1" stop-color="#c9beba"/></radialGradient><radialGradient id="al" cx="0" cy="0" r="819.2" gradientTransform="matrix(-.0006 0 0 .0006 24.45 8.55)" gradientUnits="userSpaceOnUse" spreadMethod="pad"><stop offset=".537" stop-color="#a8a19d"/><stop offset="1" stop-color="#c9beba"/></radialGradient><radialGradient id="am" cx="0" cy="0" r="819.2" gradientTransform="matrix(-.0012 0 0 .0012 24.8 7.6)" gradientUnits="userSpaceOnUse" spreadMethod="pad"><stop offset=".537" stop-color="#a8a19d"/><stop offset="1" stop-color="#c9beba"/></radialGradient><radialGradient id="an" cx="0" cy="0" r="819.2" gradientTransform="matrix(-.0109 0 0 .0109 23.05 7.35)" gradientUnits="userSpaceOnUse" spreadMethod="pad"><stop offset=".475" stop-color="#d0bcb5"/><stop offset="1" stop-color="#fff7c4"/></radialGradient><g id="a" fill-rule="evenodd"><path fill="url(#b)" d="M22.8 11.75 21 13.1h-.35l-1.75-1.2h-.4L17.4 13q-1 .8-2.15.8l-1.15-1.45-.75-.7q-.15-.2-.15-.75 0-1.15 3.2-2.05T23 8.1h2.1q.55-.1 1.7.4 1.2.5 1.2.85l-.4 1.25q-.5.9-1 .9l-1.95-.85q-.35 0-1.85 1.1M6.1 9.3l.45.5.85.95.7 1.05-1.2 1.95q-.35 0-1.15-.6l-.9-.85-.75-.85-1.8-.55q-.8 0-2.65 1.5l-.65-1q0-.35-.75-.8l-1.05-.75-.8-.85-2.85 1.3-.15-.1.25-.8q-.6-.85-.6-1.3 0-.95.3-1.4.45-.7 1.7-1.1l1.9.05L.3 6.75l3.35 1.3-.9.45q-.5.15.05.55 1.8 1.4 3.3.25" transform="translate(9.95 .8)"/><path fill="url(#c)" d="m3.65 8.05.4.15q1.15.35 2.05 1.1-1.5 1.15-3.3-.25-.55-.4-.05-.55z" transform="translate(9.95 .8)"/><path fill="#07003f" d="M20.15 5.15V4.5l.1.25-.05.4zm-4.9-1.45.9.25 3.5.55h.15v.65h-.15l-3.1-.3-3.6-.6Q11.3 3.7 9.8 2.7h-.05l.1-.05.3-.25 3.6.8.9.3z"/><path fill="url(#d)" d="m5.2 2.7 1.65.25.6.1 2.25.35h.1l.05.3H9.7l-3.5-.55-.9-.25 3 .6Q7.25 3.05 6 2.9z" transform="translate(9.95 .8)"/><path fill="#fff" d="M29.85 1.15h.05l.05.05H30v.1l-1.35.8-2.45 1.1-.9.3-3.5.8 2.2-.6.6-.15 2.75-1zM15.15 3.5l.8.2q1.25.15 2.3.6l-3-.6-.6-.2-.9-.3.5.1z"/><path fill="url(#e)" d="M9.85 4.35v.15H9.7l-.85-.05-3.35-.4q-1.85-.1-3.65-.75L-.3 1.95l.1-.05h.05q1.5 1 3.15 1.55l3.6.6 3.1.3z" transform="translate(9.95 .8)"/><path fill="url(#f)" d="m20.05.5.1.15.4.8.1.15v.05q.15.2-.1.45l-1 .8q-1.4.8-3.9 1.3l-5.3.5.05-.05h-.05l-.15-.05h-.05l.05-.1h.15l.85-.05 1.3-.05 2.3-.3 1.9-.35 1.3-.4q1.1-.4 1.9-1l.45-.4.3-.35-.45.3q-1.5 1-3.15 1.55l-3.6.6-3.1.3h-.1l.05-.4-.1-.25h.15l1.45-.2h.05l3.5-.8.9-.3 2.45-1.1zm-.95.95.4.7.6-.55q-.3.25-.45-.25-.1-.55-.55.1" transform="translate(9.95 .8)"/><path fill="url(#g)" d="M10.25 4.35h.1l3.1-.3 3.6-.6Q18.7 2.9 20.2 1.9l.45-.3-.3.35-.45.4q-.8.6-1.9 1l-1.3.4-1.9.35-2.3.3-1.3.05-.85.05h-.15z" transform="translate(9.95 .8)"/><path fill="url(#h)" d="m10.2 3.7-.15-.25.2-.05h.1l1-.05.65-.15.1-.05h.05l1.4-.4 2.65-.9.45-.2.65-.3 2.4-1.2.2.2-2.5 1.4-2.75 1-.6.15-2.2.6h-.05l-1.45.2z" transform="translate(9.95 .8)"/><path fill="url(#i)" d="M19.1 1.45q.45-.65.55-.1.15.5.45.25l-.6.55z" transform="translate(9.95 .8)"/><path fill="url(#j)" d="M10.2 4.5v-.15h.05z" transform="translate(9.95 .8)"/><path fill="url(#k)" d="M10.35 3.4 12 3.2l-.65.15z" transform="translate(9.95 .8)"/><path fill="url(#l)" d="m20.25 2.4.3-.3Q23.65 3.8 26 4l3.6.05.15-.05-.05.2-.05.15-.15 1.15.15 1.9-.05.85-.25.7-.05.1h-.05v.05l-.15-.05-2.4-.65q-1.85-.65-3.5-1.7-2-1.2-4.2-3.5l.4-.2.8 1 .8.45q-.15-.8-1-1.5l-.2-.2.3-.2.4.25zm6.15 7.45-.2.1-1.5 1.5-.05.05-.15.2-.2.2-.6-.4Q20 9.1 16.85 5.9L15.1 4.3h.1l1.1.9.8.5q-.2-.9-.8-1.6l.55-.15 1.9 1.85 4 2.35 3.5 1.65zm-4.95.7q-.45.05-.95.45l-.1.05q-.6.4-1.25 1.25l-.25.35-.15.1-.1.1-.15-.2-1.65-1.85q-1.55-1.75-3.7-6.25l.45-.05.55 1.2.15-1.25.15-.05.45 1.15q1.25 2.05 3.3 3.2l1.7.95zm-5.55.8h-.1q-.2 0-.65.25l-.8.65-.2.25-.15.15-1.3 1.3-.1.05-.05.05-2 .35h-.2q-1.5-.05-2.25-1.3l-.1-.15-.1-.2q-.55-1.1-1.05-1.3l-.8-.15-.15.1-.05-.05 1.75-3.6.75-2.85v-.25l-.2-.2h.45l.65.9q-.45 1.2-.15 2.5l.05.05 1-2.85h.05q.4-.05.65.8.25.8.8 1.45-.05-1.35.25-2.65l.5-.05q.25 1.55 1.1 3.3 1 2.05 2.3 3.35zM2.7 12.7l-.8-.75-.75-1.3-.4-.4Q.4 9.85-.1 9.9l-.15.05H-.3l.05-.05.1-.05Q1.55 9 3.45 7.5 5.5 5.85 5.8 4.1l.45.1Q6 4.7 5.9 5.35l.05.25.55-1.35.25.05-.55 3.05-.7 1.75-.4.7-1.35 1.85-.9.9zm-7-2-.45-1.05-.15-.45-.05-.2-.1-.7-.2-.6-.55-.5-.1-.05-.15-.05 3.75-.7q2-.7 3.7-1.75L2.85 3.6l.7.2-1 .9-.15.25q.95-.1 1.75-.8Q1.75 6.95-.3 8.4l-1.6 1.05zm33.25-3v-.05z" transform="translate(9.95 .8)"/><path fill="url(#m)" d="M-9.1 7.35V7.3l-.05-.15-.25-1.4-.5-1.2-.05-.2q6.1-.05 9.65-2.4l.45.4q-.5.1-.85.5l-.4.65q-.1.3 1.7-.8l.2.1-2.45 1.55q-1.35.9-3 1.6L-8.9 7.3z" transform="translate(9.95 .8)"/><path fill="url(#n)" d="M29.25 9.1v.05l-.8 1.25-.2.25-.1.05-.25.2-.1.05-.55.4q-.8.4-1 0v-.2l.05-.1.25-.45.05-.05.15-.45q0-.25-.3-.25h-.05l-.15-.05-3.5-1.65-4-2.35-1.9-1.85L19 3.2q2.2 2.3 4.2 3.5 1.65 1.05 3.5 1.7l2.4.65zm-4.95 2.8-1.65 1-1.5.25q-.8 0-.7-.45 0-.35.5-.7.15-.2.45-.3l.45-.3.2-.2.05-.1v-.2l-.2-.2v-.05l-.1-.05h-.05l-.15-.05h-.15L19.9 9.7l-1.7-.95q-2.05-1.15-3.3-3.2l-.45-1.15.65-.1 1.75 1.6Q20 9.1 23.7 11.5zm-5.65.95-.9.75-.15.1-.4.15-1 .15q-1.2 0-1.2-.7 0-.3.5-.7l.05-.05.1-.1.6-.75-.3-.35h-.05l-.1-.1q-1.3-1.3-2.3-3.35-.85-1.75-1.1-3.3l.75-.05q2.15 4.5 3.7 6.25l1.65 1.85zM5.9 11.4l-.05.05q-.05.2.05.4l.5.6.45.45.2.35q.2.55-.7.85l-.35.05-.4-.05-.6-.25-1.2-.5-.45-.25-.6-.35-.05-.05.15-.15.9-.9L5.1 9.8l.4-.7.7-1.75.55-3.05 1.4.15.2.2v.25L7.6 7.75l-1.75 3.6zM-.3 9.95l-.3.3.35 1.35.05.25q0 .7-.75.7h-.1l-.25-.05q-1.2-.25-1.95-.7l-.4-.25-.5-.6-.15-.25 2.4-1.25L-.3 8.4q2.05-1.45 4.45-4.25-.8.7-1.75.8l.15-.25 1-.9.8.15h.05l1.1.1.3.05q-.3 1.75-2.35 3.4Q1.55 9-.15 9.85l-.1.05zM6.25 4.2l.25.05-.55 1.35-.05-.25q.1-.65.35-1.15m2.35.25h.25l.85.05h.15l.35.25V4.6l.15.05h.05l-.05.05 1.55-.05q-.3 1.3-.25 2.65-.55-.65-.8-1.45-.25-.85-.65-.8h-.05l-1 2.85-.05-.05q-.3-1.3.15-2.5zm5 .05.7-.05-.15 1.25zm1.6-.2.45-.1.65-.1q.6.7.8 1.6l-.8-.5zM19.4 3l.15-.1q.15-.1.25-.15l.2.2q.85.7 1 1.5L20.2 4zm.7-.45.15-.15.25.4z" transform="translate(9.95 .8)"/><path fill="url(#o)" d="m.15 2.35.45.35q-1.8 1.1-1.7.8l.4-.65q.35-.4.85-.5" transform="translate(9.95 .8)"/><path fill="url(#p)" d="M-6.05 7.1q-.35-.1-.55.25l-.05.4.15 1.05.25.95-.2.45h-.35l-1.05-.7-.1-.1q-.75-.7-1.1-1.8l-.05-.25.2-.05 4.25-1.35q1.65-.7 3-1.6L.8 2.8q.45.3 1.05.5l1 .3L1.4 4.65Q-.3 5.7-2.3 6.4z" transform="translate(9.95 .8)"/><path fill="#e57e8e" d="m39.6 5.15-.15 1.15.1.95L37.3 6.1l-.45-.2 2.8-.9zm-8.05 6.2h-.15q-.45.05-.95.45l-.55-1.2-.05-.1-.15-.2 2.05 1.1h-.05zm2.1.95.8.2-.2.2-.2.15zm-1.6-.55v-.05l-.2-.2.3.2h-.05zm1.55-1.4 2.55.4-1.5 1.5zm5.3-1.9v.05zm-.8.45-1.05-.8 2.5-.6.05.7-.05.85-.25.7zm-15.55 3.45 1.55.95-.15.15-1.3 1.3-.15-2.45zm1.2-1.15q1.85.75 2 .85l.15.1h-.15q-.2 0-.65.25l-.8.65zm4.45.05 2.15.6q-.6.4-1.25 1.25l-.25.35-.2-.95zM12.45 9.8l-1 2.25-.35-.6-.4-.4q-.35-.4-.85-.35l-.15.05q1.25-.6 2.7-.9zm.05 3.6-.65-.65-.2-.35 2.3-1.1.1-.05-.3 1.05q-.7.5-1.25 1.1m3.5-1.3.55-.45 1.35-1-.05 2.9q-.55-1.1-1.05-1.3zm4.45 3.1h-.15q-1.5-.05-2.25-1.3l1.45-1.6.9 2.85zm2.05-.35-2 .35.5-2.3 1.15 1.4zm-21.7-7-.25-1.3-.5-1.2 2.5.4L1 7.8zm3.9.65L4.15 8H6.8L5 9.8l-.1-.7zm1.25 3.45-.15-.2-.15-.25-.45-1.05 2.85-.2-1 1.15zm3.75.45.05.25-.2.55z"/><path fill="#d04e62" d="m32.15 11.7.2.1-.25.15 1.55.35.4.55-1.45.85-.65-1.15-.15-.35.2-.2.05-.1v-.15l.05-.05zM1 7.8H.95l-.15.15v-.1zm6.05 3.6-.75.95-.35-.4z"/><path fill="#a83143" d="m32.6 13.7-1.5.25q-.8 0-.7-.45 0-.35.5-.7l1.6.85zm6.6-3.75-.8 1.25-.2.25L36.75 10l2.45-.15zm-2.65 1.4 1.55.15-.25.2-.1.05-.55.4q-.8.4-1 0v-.2l.05-.1.25-.45zm-10.1 1.25 2 .85.1.05.15.05-.1.1-.9.75-.15.1-.4.15-.5-1.6zm-12.7-.3-.05.15-.4 1.45-.6-.35-.05-.05-.15-.1q.55-.6 1.25-1.1m1.85.25-.05 2.35-.6-.25-1.2-.5 1.65-1.4zm.7 2.35-.35.05.85-1.25.2.35q.2.55-.7.85m10.85-.25-1 .15q-1.2 0-1.2-.7 0-.3.5-.7zM.85 8.1l2.45-.3-1.15 2.05-.15.35Q1.25 9.5.9 8.4l-.05-.25zM3.5 11h-.35l-1.05-.7 1.35-.7.25.95zm6.05 2.2-.55.15.7-.95zm-.25-2.1-.4 2.25-.25-.05q-1.2-.25-1.95-.7z"/><path fill="url(#q)" d="m8.25 3.5 1.45.2h.15l-.1.25.05.4h-.1l-3.1-.3-3.6-.6Q1.35 2.9-.15 1.9l-.45-.3.1-.15.4-.8L0 .5q.65.5 1.35.8Q3 2.2 4.7 2.7l3.6.8zm1.6 1 .05.1-.2.05h-.05l.05.05-5.3-.5Q1.9 3.7.5 2.9-.9 2.05-.6 1.65V1.6q.9 1.1 2.65 1.75l3.2.75 3.6.35.85.05z" transform="translate(9.95 .8)"/><path fill="url(#r)" d="m.15.35.2-.2 2.4 1.2.65.3.45.2 2.65.9 1.45.4.75.2 1 .05.3.05-.15.25H9.7l-1.45-.2L6 2.9 2.65 1.75z" transform="translate(9.95 .8)"/><path fill="#fff" d="m10.1 1.15 2.5 1.4 3.35 1.15 2.25.6h.05l-3.6-.8q-1.7-.5-3.35-1.4-.7-.3-1.35-.8v-.1H10l.05-.05z"/><path fill="url(#s)" d="m9.8 4.35.05.15H9.7l-.85-.05-3.6-.35-3.2-.75Q.3 2.7-.6 1.6l.45.3q1.5 1 3.15 1.55l3.6.6 3.1.3z" transform="translate(9.95 .8)"/><path fill="url(#t)" d="m.55 2.15-.6-.55q.3.25.45-.25.1-.55.55.1z" transform="translate(9.95 .8)"/><path fill="url(#u)" d="m11.9 2.25-.05-.05h-4l-.35.45q-.3.45-.3 1.2 0 1.7 1.7 1.65l2.7.05q0-.05.15-.1l.5-.5.25-.4.1-.75q-.2-1.55-.7-1.55m.15.95L12 3.15q-.25-.75-2-.5l.15.15Q10.4 3.85 10 5l.05.1h.1l.05.05L10 5h1.45l.05-.05q.85-.55.55-1.75m.8-.05v.15l-.1 1.2-.35.75-.1.1-.5.4H7.95l-.5-.4-.1-.1-.25-.45-.05-.1v-.1L7 4.5q-.2-.5-.1-1.2.05-.7.9-1.35h4.15q.75.55.9 1.2m-.75 1.5-.55.55L9 5.25q-.8.1-1.15-.4-.4-.5-.4-1 0-1.05.5-1.4h3.85q.55.5.55 1.4zM7.7 3.5q-.1-.45-.1.15l.15.8q.25.65.75.65l.6.05-.75-.6q-.6-.65-.65-1.05m2.15-.8-.5.2q-.35.4-.3 1.05.05.55.6.95l.35-.65q.15-.8-.15-1.55" transform="translate(9.95 .8)"/><path fill="url(#v)" d="M11.9 2.25q.5 0 .7 1.55l-.1.75-.25.4-.5.5q-.15.05-.15.1L8.9 5.5q-1.7.05-1.7-1.65 0-.75.3-1.2l.35-.45h4zm.2 2.4.25-.8q0-.9-.55-1.4H7.95q-.5.35-.5 1.4 0 .5.4 1 .35.5 1.15.4l2.55-.05z" transform="translate(9.95 .8)"/><path fill="url(#w)" d="M12.05 3.2q.3 1.2-.55 1.75l-.05.05H10l.2.15-.05-.05h-.1L10 5q.4-1.15.15-2.2L10 2.65q1.75-.25 2 .5z" transform="translate(9.95 .8)"/><path fill="url(#x)" d="m12.85 3.15.1.45-.1 1.2-.35.75-.1.1-.5.4H8.05l-.5-.4-.1-.1-.35-.75.25.45.1.1.5.4h3.85l.5-.4.1-.1.35-.75.1-1.2z" transform="translate(9.95 .8)"/><path fill="#fff" d="M19.8 3.5q.3.75.15 1.55l-.35.65q-.55-.4-.6-.95-.05-.65.3-1.05zm-2.15.8q.05.4.65 1.05l.75.6-.6-.05q-.5 0-.75-.65l-.15-.8q0-.6.1-.15M30.45 3.65v-.2h.3v.25h-.3zm-1.05 1.6v-.2h.3v.25h-.3zm-1.5 1.3h-.1V6.3h.3v.25zM23.45 9.8h-.1v-.25h.3v.25zm1.45-.85h-.1V8.7h.3v.25zm-3.35 1.3v-.2h.3v.25h-.3zm-2 .3h-.1v-.25h.3v.25zm6.95-2.7v-.2h.3v.25h-.3zM9.75 3.7h-.2v-.25h.3v.25zm1.05 1.6h-.2v-.25h.3v.25zm1.7 1.2v.05h-.3V6.3h.3zm1.2 1.4h-.2v-.25h.3v.25zm1.7 1.2h-.2v-.25h.3v.25zm1.75.85v-.2h.3V10h-.3z"/><path fill="url(#y)" d="m4.1 6.9.05.2v.1H4.1v.15l-.15.15-.35.15-.4-.15-.15-.3.7-.1h.1v-.05z" transform="translate(9.95 .8)"/><path fill="url(#z)" d="M3.05 7.2v-.1l.15-.35q.15-.2.4-.2l.35.2.15.15-.25.15v-.2h-.3v.25h.2z" transform="translate(9.95 .8)"/><path fill="url(#A)" d="m2.8 5.55.05.2-.2.4-.35.15-.4-.15-.15-.3.7-.1h.1V5.7z" transform="translate(9.95 .8)"/><path fill="url(#B)" d="m2.8 5.55-.25.15v-.2h-.3v.25h.2l-.7.1v-.1q0-.2.15-.35.15-.2.4-.2l.35.2z" transform="translate(9.95 .8)"/><path fill="url(#C)" d="M.15 4.6v-.1l.15-.35q.15-.2.4-.2l.35.2.15.15-.25.15v-.2h-.3v.25h.2z" transform="translate(9.95 .8)"/><path fill="url(#D)" d="m.15 4.6.7-.1h.1v-.05l.25-.15.05.2-.2.4-.35.15-.4-.15z" transform="translate(9.95 .8)"/><path fill="url(#E)" d="m-.9 3 .7-.1h.1v-.05l.25-.15.05.2-.2.4-.35.15-.4-.15z" transform="translate(9.95 .8)"/><path fill="url(#F)" d="M-.9 3v-.1l.15-.35.4-.2.35.2.15.15-.25.15v-.2h-.3v.25h.2z" transform="translate(9.95 .8)"/><path fill="url(#G)" d="m20.25 2.7.15-.15.35-.2.4.2.15.35V3l-.7-.1h.2v-.25h-.3v.2z" transform="translate(9.95 .8)"/><path fill="url(#H)" d="m20.25 2.7.25.15v.05h.1l.7.1-.15.3-.4.15-.35-.15-.2-.4z" transform="translate(9.95 .8)"/><path fill="url(#I)" d="m19.2 4.3.15-.15.35-.2.4.2.15.35v.1l-.7-.1h.2v-.25h-.3v.2z" transform="translate(9.95 .8)"/><path fill="url(#J)" d="m18.65 5.85-.15.3-.4.15-.35-.15-.2-.4.05-.2.25.15v.05h.1z" transform="translate(9.95 .8)"/><path fill="url(#K)" d="m20.25 4.6-.15.3-.4.15-.35-.15-.2-.4.05-.2.25.15v.05h.1z" transform="translate(9.95 .8)"/><path fill="url(#L)" d="m18.65 5.85-.7-.1h.2V5.5h-.3v.2l-.25-.15.15-.15.35-.2.4.2.15.35z" transform="translate(9.95 .8)"/><path fill="url(#M)" d="M16.65 7.1h.2v-.25h-.3v.2l-.25-.15.15-.15q.15-.2.35-.2l.4.2.15.35v.1z" transform="translate(9.95 .8)"/><path fill="url(#N)" d="M16.55 7.05v.05h.1l.7.1-.15.3-.4.15-.35-.15-.2-.4.05-.2z" transform="translate(9.95 .8)"/><path fill="url(#O)" d="m14.2 9.1-.15.3-.4.15-.35-.15-.2-.4.05-.2.25.15V9h.1z" transform="translate(9.95 .8)"/><path fill="url(#P)" d="m14.2 9.1-.7-.1h.2v-.25h-.3v.2l-.25-.15.15-.15q.15-.2.35-.2l.4.2.15.35z" transform="translate(9.95 .8)"/><path fill="url(#Q)" d="M14.85 8.1v.05h.1l.7.1-.15.3-.4.15-.35-.15-.2-.4.05-.2z" transform="translate(9.95 .8)"/><path fill="url(#R)" d="m14.85 8.1-.25-.15.15-.15q.15-.2.35-.2l.4.2.15.35v.1l-.7-.1h.2V7.9h-.3z" transform="translate(9.95 .8)"/><path fill="url(#S)" d="m11.35 9.3.15-.15.35-.2.4.2.15.35v.1l-.7-.1h.2v-.25h-.3v.2z" transform="translate(9.95 .8)"/><path fill="url(#T)" d="m11.35 9.3.25.15v.05h.1l.7.1-.15.3-.4.15q-.2 0-.35-.15l-.2-.4z" transform="translate(9.95 .8)"/><path fill="url(#U)" d="m10.3 9.85-.7-.1h.2V9.5h-.3v.2l-.25-.15.15-.15.35-.2.4.2.15.35z" transform="translate(9.95 .8)"/><path fill="url(#V)" d="m10.3 9.85-.15.3-.4.15q-.2 0-.35-.15l-.2-.4.05-.2.25.15v.05h.1z" transform="translate(9.95 .8)"/><path fill="url(#W)" d="m6.95 9 .15-.15q.15-.2.35-.2l.4.2.15.35v.1l-.7-.1h.2v-.25h-.3v.2z" transform="translate(9.95 .8)"/><path fill="url(#X)" d="m6.95 9 .25.15v.05h.1l.7.1-.15.3-.4.15-.35-.15-.2-.4z" transform="translate(9.95 .8)"/><path fill="url(#Y)" d="m5.8 8.1.05.2-.2.4-.35.15-.4-.15-.15-.3.7-.1h.1v-.05z" transform="translate(9.95 .8)"/><path fill="url(#Z)" d="M4.75 8.4v-.1q0-.2.15-.35.15-.2.4-.2l.35.2.15.15-.25.15v-.2h-.3v.25h.2z" transform="translate(9.95 .8)"/><path fill="url(#aa)" d="m1.35.6.1.05-.6.4-.15.15-.6.05.55.45.05.05h.25l1.5 1.1.8.8.1.15Q3 3.55 2.7 3.65l-.05-.1v-.1l-.5-.6L1.1 2.1v.1l.9.75-.45.9h.1l.45-.8.45.6-.5 1.45q.55-.4.65-1.05v.15l-.1.85-.2.05-.15.05-.7.45-.05-.3.45-.8q.2-.45-.05-.25l-.45.5L1.3 3.7l-.1-1 .05-.3-.15-.05L1 2.2l-.25-.05L.4 2l.1.5-.1.15L0 1.8l-.05.1.15.65-.15-.1-.2.4-.5-.35.45-.55h-.15L-.6 1.8l.55-.65V1.1l-.6.15V1.2l-.1.05-.25.05-.05-.05-.15-.05v-.1q.2-.25.55-.2h.2L-.6.85l.6-.6.35-.1.1.1-.2.25-.55.35-.1.05zm1.4 3.15.7.35.05.35-.65.5-.1-.05v-.1l.05-.6zM2.9 6 1.8 7.4l-.35.1.35-.8-.1-.65L2 6l.3-.05-.35.75V7h.1v-.05l.35-1zM-.45 3.95l-.7 1.55-.05.1h-.45q-.25-1.25.3-2.35l-.1.05q-.75 1.3-.65 2.3l-.55-.1h-.1l-.05-.2q0-.7 1.15-1.9l.5-.5.2-.05q.05.55.5 1.1M-1.4 8.3l.2.35.05.2q-.1.1-.7-.35l.3.25.55.45-.15.05-1.15-.45-.35-.2v.1l.5.85.1.15-.8-.2-.05-.15q-.2-.55-.95-1.1h.05v-.1l-.05-.05-1.3-.7h.25l.65.2.75.3.25.05-.2-.4-.5-1.25v-.15l.7 1.25.05.2.05.15-.1-.35q-.15-.6.05-1.1l.05.25Q-2.8 8-2 8.7l-.05-.1q-.4-.65-.3-1.55l.6.85v.05l.3.25zm-.4 1.9.05.2q-.55-.25-1-.35l-.05-.25v-.2zm.15.8v.25l-.1 1.05-.85-1.1v.1l.45 1.1-.8.1v-.1l.2-1.5v-.65q.6.3 1.1.75m-2.7 1.35.1-.15.8-1.3-.05.05-.5.6.2-.95-.35-.75.85-.85.3.5-.1-.05.1.05.1.4-.15.1h-.25l.15.05.05.05-.3.35h.15l.3-.3.1.05v.75l-.2 1.4v.15l-.65-.05.55-1.2-.9 1.15zm.5-3.25.05-.05h-.05l.1-.15.05-.1.05-.1-.1-.15h-.1l-.1.05-.2.1-.45.1.05-.3.2-.25h.3l.75.7h-.05l-.2.05zM-4 4.95l.05-.2.65-.75.95-.85 1.1-.25-.55.55Q-2.9 4.6-2.9 5.3v.15l-.5-.15h-.05l.7-1.05h-.05q-.7.35-.85.95zm.4-1.4.4-.5v.15h-.05zm.55-.6.15-.2q.45-.4 1.05-.65l.9.35Q-1.6 2.6-2.2 3l.4-.4h-.05l-1.3.55zm1.2-1.9-.3.1.6-.75.35.1q-.45.1-.65.55m-1.05.45-.65.4-2.35-.25H-6Q-4.95.95-3.75.6q-.7.4-1.2 1.15h.1l1.3-1.2.5-.15h.5q-.75.45-.9.85h.05l1-.85h.65Q-2.4.75-2.9 1.5m-5.75 3.15-.1-.25-.2-.45.05-.2 1.35-1.25h.1q-.8.95-1.2 2.15M-7.2 1.2l.1-.1Q-5.95-.1-4.95.05L-5-.05l.1-.15 1.7.35-1.4-.5.85-.2h.5l1.15.5h.05l-.4-.5h.2l.65.2.3.4.05.05q.25.05.35-.4l.3.25-.25.35.05.1.65-.7.05.05-.5 1.1-.3-.2h.2v-.1L-1.55.3h-.7l.55-.3-.65.3L-3 .25l-.95.25V.45l-1.3.25-.8.15.05.05h.55l.6-.05q-.85.3-1.35.75zm5.95.75.35-.05.4.15-.3.35zm.3.5.05.05h-.05z" transform="translate(9.95 .8)"/><path fill="url(#ab)" d="m-4.35 8.25.1-.1q-.55-.35-.95-.45v-.3h.05l1.3.7.05.05v.1h-.05l-.2-.15v.15z" transform="translate(9.95 .8)"/><path fill="url(#ac)" d="m-3.85 9.05-.3-.2-.3.1-.2-.05.05-.1.45-.1.2-.1.1-.05h.1l.1.15-.05.1-.05.1z" transform="translate(9.95 .8)"/><path fill="url(#ad)" d="m-4.15 9.85-.05-.15.35-.6.3-.1.2-.05h.05V9z" transform="translate(9.95 .8)"/><path fill="url(#ae)" d="m.7 1.2.35.35-.1.2H.7L.65 1.7.1 1.25zm2 2.45.05.1.05.45-.05.6v.1l.1.05.65-.5q0 .65-.55 1.45L2.9 6l-.5-.05-.35 1V7h-.1v-.3l.35-.75L2 6l-.3.05-.1-.3-.05-.15.7-.45.15-.05.2-.05.1-.85v-.15q-.1.65-.65 1.05l.5-1.45-.45-.6-.45.8h-.1l.45-.9-.9-.75v-.1l1.05.75.5.6v.1zM1.2 2.7l-.1-.35.15.05zm-.45-.55-.2.3-.05.05L.4 2zm-.35.5H.3l-.2-.1-.15-.65.05-.1zm-.65.2-.15.75-.05.35q-.45-.55-.5-1.1l-.2.05-.5.5Q-2.8 4.6-2.8 5.3l.05.2h.1l.55.1q-.1-1 .65-2.3l.1-.05q-.55 1.1-.3 2.35h.45l-.25.85.05.4-.15.1-.15-1.2.3 2.5v.05l-.05-.1-.3-.25V7.9l-.6-.85q-.1.9.3 1.55l.05.1q-.8-.7-1.15-2.15l-.05-.25q-.2.5-.05 1.1l.1.35-.05-.15-.05-.2-.7-1.25-.1-.95.05-.25.35.25q.15-.6.85-.95h.05l-.7 1.05h.05l.5.15V5.3q0-.7 1.1-1.85l.55-.55-1.1.25-.95.85.25-.35-.45.3q-.65.45-.3-.05l.2-.35.35-.35h.05v-.15l.15-.1-.1.2 1.3-.55h.05l-.4.4q.6-.4 1.25-.55l-.9-.35.5-.15h.1l.2-.1.3-.05-.05-.05.1-.05h.05l-.25-.15-.1-.25.25-.05.05.05.05-.05.6-.15v.05l-.55.65.15.15h.15l-.45.55zm-1.8 6.85.25.5-1-.6-.05-.1zm.3.7.1.6q-.5-.45-1.1-.75v-.2q.45.1 1 .35m0 1.9-.1.35-.05.15-.75 1.3-.25-.5-.55 1.1-.25-1.4V15l-.55.45.25-1.65-.6.8q-.6.75-1.95.8l-.3-.15-.45-.45q1.2-.05 2.05-.65l.85-1.05.15-.2.05-.15q.7-.7-.2.1l-.25.2-.1-.2.05-.05.2-.25.15-.2.3.05.9-1.15-.55 1.2.65.05-.45 1.35h.1l.45-1.35.8-.1-.45-1.1v-.1zm-2.5-.1.15-.4.1-.25.5-.6.05-.05zM-1.2 1.1V.9l-.65.15q.2-.45.65-.55l-.35-.1-.6.75-.6.25-.15.1Q-2.4.75-1.75.4h-.65l-1 .85h-.05q.15-.4.9-.85h-.5l-.5.15-1.3 1.2h-.1Q-4.45 1-3.75.6-4.95.95-6 1.65h.1l2.35.25-.05.05-.25.15-2.6 1.15-.05-.2.5-.3.45-.65.05-.05q-1.1.6-1.9 1.55l-.55 1.05q-.4.85-.7.8v-.8q.4-1.2 1.2-2.15h-.1L-8.9 3.75l.6-1.15.65-.9.45-.5 1 .4q.5-.45 1.35-.75l-.6.05H-6l-.05-.05.8-.15 1.3-.25V.5L-3 .25l.65.05.65-.3-.55.3h.7l.85.25v.1h-.2l.3.2.5-1.1.05.1-.2.35.1.05H0l-.6.6.15.05h-.2q-.35-.05-.55.2M-4.9-.2l.25-.15h.05l1.4.5zm1.65-.35h.8l.4.5h-.05zm1.65.2.4.25v-.25h.15l.15.05q-.1.45-.35.4L-1.3.05zm1 .3.3-.3.15.05-.65.7-.05-.1zM.25.5.2.55.35.7.4.75q.3-.4.85-.25l.1.1L-.4.9l.1-.05zm-1.5 1.45.45.45.3-.35-.4-.15zm.3.5v.05h.05zM-3 9.5l-.1-.05zm-.05.5-.05.1-.05-.05-.15-.05zm.1.15.05-.1.05.15z" transform="translate(9.95 .8)"/><path fill="url(#af)" d="m-3.3 8.95-.75-.7V8.1l.2.15q.75.55.95 1.1l.05.15.05.1v.2l.05.25v.85l-.2 1.5v.1l-.45 1.35h-.1l.45-1.35v-.15l.2-1.4v-.75l-.05-.15-.05.1-.3.3h-.15l.3-.35.05-.1.15-.1-.1-.4-.3-.5z" transform="translate(9.95 .8)"/><path fill="url(#ag)" d="m-3.45 14.7-.25.3v-1.7zm-.8.75-.05.05-.9.2-1.35-.3q1.35-.05 1.95-.8l.6-.8z" transform="translate(9.95 .8)"/><path fill="url(#ah)" d="m20.4-.5.5 1.1.3-.2H21V.3q.45-.25.85-.25h.7L22-.25l.65.3.65-.05.95.25V.2l1.3.25.8.15-.05.05h-.55l-.6-.05 1.35.75 1-.4.45.5.65.9.6 1.15-1.35-1.25h-.1q.8.95 1.2 2.15v.8q-.3.05-.7-.8l-.55-1.05q-.8-.95-1.9-1.55l.05.05.45.65.5.3-.05.2q-2.05-.8-2.6-1.15l-.25-.15-.05-.05 2.35-.25h.1Q25.25.7 24.05.35q.7.4 1.2 1.15h-.1L23.85.3l-.5-.15h-.5l.9.85h-.05l-1-.85h-.65l1.15 1.1-.15-.1-.6-.25-.6-.75-.35.1q.45.1.65.55L21.5.65v.2q-.2-.25-.55-.2h-.2L20.9.6l-.6-.6h.15q.15 0 .1-.05l-.2-.35zm4.8.05-1.7.35 1.4-.5h.05zM23.55-.8l-1.15.5h-.05l.4-.5zm-1.65.2-.3.4-.05.05q-.25.05-.35-.4l.15-.05h.15v.25zm-1 .3.25.35-.05.1-.65-.7.15-.05zm1.25 2.15-.9.35q.65.15 1.25.55l-.4-.4h.05l1.3.55-.1-.2.15.1v.15h.05l.35.35.2.35q.35.5-.3.05l-.45-.3.25.35-.95-.85-1.1-.25.55.55q1.1 1.15 1.1 1.85v.15l.5-.15h.05q-.1-.5-.7-1.05h.05q.7.35.85.95l.35-.25.05.25-.1.95-.7 1.25q.15-.6-.05-1.1l-.05.25q-.35 1.45-1.15 2.15l.05-.1q.4-.65.3-1.55l-.6.85v.05l-.3.25-.05.1V8l.3-2.5-.15 1.2-.15-.1.05-.4-.25-.85h.45q.25-1.25-.3-2.35l.1.05q.75 1.3.65 2.3l.55-.1h.1l.05-.2q0-.7-1.15-1.9l-.5-.5-.2-.05q-.05.55-.5 1.1l-.05-.35-.15-.75q.3-.3.5-.35l-.45-.55h.15l.15-.15-.55-.65V.85l.6.15.05.05.05-.05.25.05-.1.25-.25.15H21l.1.05-.05.05.3.05.2.1h.1zm2.15 9.45.1.25.15.4-.8-1.3.05.05zm.35.8.15.2.2.25.05.05-.1.2-.25-.2q-.9-.8-.2-.1l.05.15.15.2.85 1.05q.85.6 2.05.65l-.45.45-.3.15q-1.35-.05-1.95-.8l-.6-.8.25 1.65-.55-.45v-1.7l-.25 1.4-.55-1.1-.25.5-.75-1.3-.05-.15-.1-.35.85-1.1v.1l-.45 1.1.8.1.45 1.35h.1l-.45-1.35.65-.05-.55-1.2.9 1.15zm-2.7-1.35.1-.6 1-.35v.2zm.15-.8.25-.5.8-.2-.05.1zM20.2 2.3l-.2.1h-.1l.4-.85.05.1zm-.4-.05-.05-.05-.2-.3.35-.15zm-.6-.15-.1.35-.05-.3zm-.45 3.25-.05.15-.1.3-.3-.05-.3-.05.35.75v.3h-.1V6.7l-.35-1-.5.05-.05-.1q-.55-.8-.55-1.45l.65.5.1-.05v-.1l-.05-.6.05-.45.05-.1.05-.1v-.1l.5-.6 1.05-.75v.1l-.9.75.45.9h-.1l-.45-.8-.45.6.5 1.45q-.55-.4-.65-1.05v.15l.1.85.2.05.15.05zm.6-3.85-.1-.2q0-.15.35-.35l.6.05-.55.45-.05.05zm-.4-1.15.1-.1q.55-.15.85.25l.05-.05.15-.15.5.3.1.05zm2.3 1.85-.05.05h.05zm.3-.5-.35-.05-.4.15.3.35zm1.8 8.05h.25l-.15.05-.05.05zm-.1.15-.1.05.05-.15z" transform="translate(9.95 .8)"/><path fill="url(#ai)" d="m20.4-.5.05-.05.65.7.05-.1-.25-.35.3-.25q.1.45.35.4l.05-.05.3-.4.65-.2h.2l-.4.5h.05l1.15-.5h.5l.85.2-1.4.5 1.7-.35.1.15-.05.1q1-.15 2.15 1.05l.1.1-1 .4L25.15.6l.6.05h.55l.05-.05-.8-.15-1.3-.25v.05L23.3 0l-.65.05-.65-.3.55.3h-.7q-.4 0-.85.25v.1h.2l-.3.2zm-.1.5.6.6-.15.05h.2q.35-.05.55.2v.1l-.15.05-.05.05-.25-.05-.1-.05V1l-.6-.15V.9l.55.65-.15.15h-.15l.45.55q-.2.05-.5.35l-.2-.4-.15.1.15-.65-.05-.1-.4.85-.1-.15.1-.5-.35.15-.25.05-.1.15-.15.05.05.3-.1 1-.15 1.05-.45-.5q-.25-.2-.05.25l.45.8-.05.3-.7-.45-.15-.05-.2-.05-.1-.85V3.8q.1.65.65 1.05l-.5-1.45.45-.6.45.8h.1l-.45-.9.9-.75v-.1l-1.05.75-.5.6v.1l-.05.1q-.3-.1-.65.15l.1-.15.8-.8 1.5-1.1h.25l.05-.05.55-.45-.6-.05-.15-.15-.6-.4.1-.05 1.75.3-.1-.05-.5-.3-.05-.05-.2-.25.1-.1zm1.85.8q-.2-.45-.65-.55l.35-.1.6.75zm1.05.45L22.05.15h.65l1 .85h.05l-.9-.85h.5l.5.15 1.3 1.2h.1q-.5-.75-1.2-1.15 1.2.35 2.25 1.05h-.1l-2.35.25zm5.75 3.15q-.4-1.2-1.2-2.15h.1L29.2 3.5l.05.2-.2.45zm-6.8-2.55 1.05.65.15.2.1.2-1.3-.55h-.05l.4.4q-.6-.4-1.25-.55zm1.35.95.4.5-.35-.35h-.05zm.1.95.65.75.05.2-.35.25q-.15-.6-.85-.95h-.05q.6.55.7 1.05h-.05l-.5.15v-.15q0-.7-1.1-1.85l-.55-.55 1.1.25zm.65 2.15v.15l-.5 1.25-.2.4.25-.05.75-.3.65-.2h.25l-1.3.7-.05.05V8h.05q-.75.55-.95 1.1l-.05.15-.8.2.1-.15.5-.85v-.1l-.35.2-1.15.45-.15-.05.55-.45.3-.25q-.6.45-.7.35l.05-.2.2-.35.05-.1.3-.25v-.05l.6-.85q.1.9-.3 1.55l-.05.1q.8-.7 1.15-2.15l.05-.25q.2.5.05 1.1zm.4 2.1.2.25.05.3-.45-.1-.2-.1-.1-.05h-.1l-.1.15.05.1.05.1.1.15h-.05l.05.05-.3-.1-.2-.05h-.05l.75-.7zm-.2 1.6-.35.75.2.95-.5-.6-.05-.05.8 1.3.1.15-.3.05-.9-1.15.55 1.2-.65.05v-.15l-.2-1.4v-.75l.1-.05.3.3h.15l-.3-.35.05-.05.15-.05h-.25l-.15-.1.1-.4.3-.5zm-2.4 2.45-.1-1.05v-.25l1.1-.75v.65l.2 1.5v.1l-.8-.1.45-1.1v-.1zm0-1.9.05-.2 1-.6v.2l-.05.25zm-.55-4.8-.05-.1-.7-1.55q.45-.55.5-1.1l.2.05.5.5q1.15 1.2 1.15 1.9l-.05.2h-.1l-.55.1q.1-1-.65-2.3l-.1-.05q.55 1.1.3 2.35zm-2.9.45-.1.65.35.8-.35-.1-1.1-1.4.5-.05.35 1v.05h.1v-.3L18 5.7l.3.05zm-1.8-1.6.05-.35.7-.35-.05.45.05.6v.1l-.1.05zm4.45-2v.05h-.05zm.3-.5-.45.45-.3-.35.4-.15z" transform="translate(9.95 .8)"/><path fill="url(#aj)" d="m24.15 8.85.35.6-.05.15-.85-.85V8.7h.05l.2.05z" transform="translate(9.95 .8)"/><path fill="url(#ak)" d="m23.15 9.25.05-.15q.2-.55.95-1.1l.2-.15V8l-.75.7v.05l-.3.5-.1.4.15.1.05.1.3.35h-.15l-.3-.3-.05-.1-.05.15v.75l.2 1.4v.15l.45 1.35h-.1l-.45-1.35v-.1l-.2-1.5V9.8l.05-.25v-.2z" transform="translate(9.95 .8)"/><path fill="url(#al)" d="m24.9 8.55.05.1-.2.05-.3-.1-.3.2-.1-.15-.05-.1-.05-.1.1-.15h.1l.1.05.2.1z" transform="translate(9.95 .8)"/><path fill="url(#am)" d="M25.45 7.15h.05v.3q-.4.1-.95.45l.1.1h-.3v-.15l-.2.15h-.05v-.1l.05-.05z" transform="translate(9.95 .8)"/><path fill="url(#an)" d="m26.85 15.15-1.35.3-.9-.2-.05-.05-.25-1.65.6.8q.6.75 1.95.8m-2.85-.4-.25-.3.25-1.4z" transform="translate(9.95 .8)"/></g></defs></svg>