<?xml version="1.0" encoding="UTF-8" standalone="no"?>
<svg xmlns:ffdec="https://www.free-decompiler.com/flash" xmlns:xlink="http://www.w3.org/1999/xlink" ffdec:objectType="frame" height="8.9px" width="23.15px" xmlns="http://www.w3.org/2000/svg">
  <g transform="matrix(1.0, 0.0, 0.0, 1.0, 1.75, -2.2)">
    <use ffdec:characterId="1" height="8.9" transform="matrix(1.0, 0.0, 0.0, 1.0, -1.75, 2.2)" width="23.15" xlink:href="#shape0"/>
  </g>
  <defs>
    <g id="shape0" transform="matrix(1.0, 0.0, 0.0, 1.0, 1.75, -2.2)">
      <path d="M20.8 4.2 L21.15 4.95 21.4 6.45 Q21.4 7.05 21.05 7.65 L20.6 7.85 18.75 8.5 Q19.3 7.8 19.1 6.95 L19.05 6.85 Q18.65 8.15 17.5 8.8 L17.35 8.85 17.05 8.05 17.0 8.0 Q16.5 8.05 16.25 8.4 L16.2 8.45 16.1 9.0 16.05 9.05 15.95 9.05 13.4 8.75 Q13.35 9.25 13.65 9.4 L13.35 9.45 Q12.75 9.35 11.95 8.85 L10.45 8.7 11.2 9.55 10.4 9.5 10.25 9.15 10.1 8.95 10.1 3.7 11.0 3.9 11.55 3.8 10.45 3.4 10.1 3.2 10.1 3.15 10.75 3.15 12.7 3.1 12.1 3.45 12.15 3.6 12.95 3.6 14.1 3.15 14.55 2.85 15.25 2.8 14.9 3.2 14.9 3.3 15.15 3.4 Q15.5 3.4 15.95 3.0 L16.2 2.8 16.85 2.75 16.75 2.95 16.8 3.1 17.35 3.1 Q17.45 2.95 17.85 2.7 L18.4 2.65 18.6 2.9 18.95 2.9 19.0 2.75 18.8 2.65 19.9 2.55 20.8 4.2 M12.5 10.65 L12.7 9.85 13.15 9.75 13.35 9.75 13.55 10.1 13.15 10.5 12.9 10.8 12.6 11.05 12.25 11.05 12.0 11.1 10.85 10.85 10.4 10.55 11.0 10.05 10.75 10.05 10.8 9.95 11.45 10.0 11.4 10.1 Q11.05 10.85 11.75 10.35 L11.85 10.25 12.05 10.0 12.2 9.95 12.45 10.55 12.5 10.65 M14.65 10.75 Q14.55 10.95 14.25 10.95 L13.5 10.95 13.75 10.75 13.8 10.7 Q13.95 10.45 13.7 10.2 L13.55 9.7 15.85 9.35 16.2 9.95 15.25 9.75 15.2 9.75 15.0 9.8 14.3 9.9 14.25 9.9 14.2 10.35 14.2 10.45 14.65 10.75 M19.95 8.7 L20.0 8.7 Q20.55 9.05 20.55 9.15 L20.15 9.7 19.65 10.0 19.3 9.85 19.6 9.75 19.65 9.65 19.6 9.6 19.65 9.45 19.55 8.85 19.95 8.7 M17.05 9.95 Q17.55 9.95 17.8 10.25 L16.75 10.5 16.45 10.55 15.85 10.5 16.4 10.25 16.4 10.1 16.05 9.35 16.8 9.25 17.1 9.85 17.05 9.85 17.05 9.95 M19.3 9.85 L19.05 10.05 18.65 10.0 18.6 9.8 18.65 9.65 19.3 9.85 M18.65 9.55 L18.3 9.5 18.15 9.6 Q17.6 9.5 17.15 9.8 L17.15 9.2 19.1 8.95 19.3 9.3 Q19.0 9.2 18.65 9.55 M9.05 3.0 L9.4 3.3 9.6 3.45 Q9.9 6.9 9.6 9.1 L9.5 9.3 9.5 9.35 9.4 9.35 8.45 9.45 9.2 8.6 7.7 8.75 Q6.9 9.25 6.3 9.35 L6.0 9.3 Q6.3 9.15 6.25 8.65 L3.7 8.95 3.6 8.95 3.55 8.9 3.45 8.35 3.4 8.3 Q3.15 7.95 2.65 7.9 L2.6 7.95 Q2.3 8.25 2.3 8.75 L2.15 8.7 Q1.0 8.05 0.6 6.75 L0.55 6.85 Q0.35 7.7 0.9 8.4 L-0.95 7.75 -1.4 7.55 -1.75 6.35 -1.5 4.85 -1.15 4.1 -0.3 2.6 0.35 2.65 0.2 2.8 0.2 3.15 0.9 2.7 1.05 2.7 1.0 3.2 Q1.0 3.55 1.25 3.55 L2.0 2.75 3.55 2.8 3.85 3.15 Q4.2 3.45 4.5 3.45 L4.95 3.15 5.15 2.85 6.25 2.9 6.05 3.35 6.2 3.55 Q6.3 3.4 6.9 3.15 L7.3 2.9 7.6 2.9 Q7.65 3.35 8.05 3.35 L8.25 3.15 8.1 2.9 9.05 2.9 9.05 3.0 M3.6 9.25 Q3.35 9.5 3.25 10.0 L3.25 10.15 Q3.3 10.3 3.8 10.4 L3.2 10.45 2.9 10.4 1.85 10.15 Q2.1 9.85 2.6 9.85 L2.6 9.75 2.55 9.75 2.85 9.15 3.6 9.25 M2.5 9.1 L2.5 9.7 1.5 9.5 1.35 9.4 1.0 9.45 Q0.65 9.1 0.35 9.2 L0.55 8.85 2.5 9.1 M1.05 9.7 L1.0 9.9 0.6 9.95 0.35 9.75 0.0 9.9 -0.5 9.6 -0.9 9.05 -0.35 8.6 -0.3 8.6 0.1 8.75 0.0 9.35 0.05 9.5 0.0 9.55 0.05 9.65 0.35 9.75 1.0 9.55 1.05 9.7 M4.45 9.65 L4.4 9.65 3.45 9.85 3.8 9.25 6.1 9.6 Q5.95 9.8 5.95 10.1 5.7 10.35 5.85 10.6 L5.9 10.65 6.15 10.85 5.4 10.85 Q5.1 10.85 5.0 10.65 5.2 10.45 5.45 10.35 L5.45 10.25 5.4 9.8 5.35 9.8 4.65 9.7 4.45 9.65 M7.15 10.55 L7.2 10.45 Q7.3 9.9 7.45 9.85 L7.6 9.9 7.8 10.15 7.9 10.25 Q8.6 10.75 8.25 10.0 L8.2 9.9 9.15 9.8 9.0 9.9 8.9 9.85 8.9 9.9 8.65 9.95 9.25 10.45 8.8 10.75 7.65 11.0 7.4 10.95 7.05 10.95 6.75 10.7 6.5 10.4 6.1 10.0 6.3 9.65 6.5 9.65 6.95 9.75 7.15 10.55" fill="#d79e00" fill-rule="evenodd" stroke="none"/>
      <path d="M2.6 7.95 L2.65 7.9 Q3.15 7.95 3.4 8.3 L3.45 8.35 3.55 8.9 3.6 8.95 3.7 8.95 6.25 8.65 Q6.3 9.15 6.0 9.3 L6.3 9.35 Q6.9 9.25 7.7 8.75 L9.2 8.6 8.45 9.45 9.4 9.35 9.5 9.35 9.4 9.55 9.4 9.6 9.15 9.8 8.2 9.9 8.25 10.0 Q8.6 10.75 7.9 10.25 L7.8 10.15 7.6 9.9 7.45 9.85 Q7.3 9.9 7.2 10.45 L7.15 10.55 6.95 9.75 6.5 9.65 6.3 9.65 6.1 10.0 6.5 10.4 6.35 10.3 6.3 10.6 6.15 10.85 5.9 10.65 5.85 10.6 Q5.7 10.35 5.95 10.1 5.95 9.8 6.1 9.6 L3.8 9.25 3.45 9.85 4.4 9.65 4.0 9.7 4.05 10.1 3.9 10.4 3.8 10.4 Q3.3 10.3 3.25 10.15 L3.25 10.0 Q3.35 9.5 3.6 9.25 L2.85 9.15 2.55 9.75 2.6 9.75 2.6 9.85 Q2.1 9.85 1.85 10.15 L1.75 10.0 1.5 9.5 2.5 9.7 2.5 9.1 0.55 8.85 0.35 9.2 Q0.65 9.1 1.0 9.45 L0.95 9.45 1.0 9.55 0.35 9.75 0.05 9.65 0.0 9.55 0.05 9.5 0.0 9.35 0.1 8.75 -0.3 8.6 -0.25 8.6 -0.8 8.2 -1.4 7.55 -0.95 7.75 0.9 8.4 Q0.35 7.7 0.55 6.85 L0.6 6.75 Q1.0 8.05 2.15 8.7 L2.3 8.75 Q2.3 8.25 2.6 7.95 M19.05 10.05 L19.3 9.85 19.65 10.0 19.15 10.05 19.05 10.05 M15.0 9.8 Q14.65 9.85 14.7 10.35 L14.65 10.75 14.2 10.45 14.2 10.35 14.25 9.9 14.3 9.9 15.0 9.8 M19.7 2.2 L19.9 2.55 18.8 2.65 19.0 2.75 18.95 2.9 18.6 2.9 18.4 2.65 17.85 2.7 Q17.45 2.95 17.35 3.1 L16.8 3.1 16.75 2.95 16.85 2.75 16.2 2.8 15.95 3.0 Q15.5 3.4 15.15 3.4 L14.9 3.3 14.9 3.2 15.25 2.8 14.55 2.85 14.1 3.15 12.95 3.6 12.15 3.6 12.1 3.45 12.7 3.1 10.75 3.15 10.1 3.15 10.1 3.2 10.45 3.4 11.55 3.8 11.0 3.9 10.1 3.7 10.1 8.95 9.95 8.8 9.9 8.8 9.7 8.9 9.6 9.1 Q9.9 6.9 9.6 3.45 L9.4 3.3 9.05 3.0 9.05 2.9 8.1 2.9 8.25 3.15 8.05 3.35 Q7.65 3.35 7.6 2.9 L7.3 2.9 6.9 3.15 Q6.3 3.4 6.2 3.55 L6.05 3.35 6.25 2.9 5.15 2.85 4.95 3.15 4.5 3.45 Q4.2 3.45 3.85 3.15 L3.55 2.8 2.0 2.75 1.25 3.55 Q1.0 3.55 1.0 3.2 L1.05 2.7 0.9 2.7 0.2 3.15 0.2 2.8 0.35 2.65 -0.3 2.6 -0.15 2.25 9.4 2.5 9.6 2.5 9.7 2.5 9.9 2.5 9.95 2.5 10.1 2.5 16.25 2.35 19.7 2.2 M21.05 7.65 L20.45 8.3 19.9 8.7 19.95 8.7 19.55 8.85 19.65 9.45 19.6 9.6 19.65 9.65 19.6 9.75 19.3 9.85 18.65 9.65 18.7 9.55 18.65 9.55 Q19.0 9.2 19.3 9.3 L19.1 8.95 17.15 9.2 17.15 9.8 Q17.6 9.5 18.15 9.6 L17.9 10.1 17.8 10.25 Q17.55 9.95 17.05 9.95 L17.05 9.85 17.1 9.85 16.8 9.25 16.05 9.35 16.4 10.1 16.4 10.25 15.85 10.5 15.75 10.5 15.6 10.2 15.65 9.8 15.25 9.75 16.2 9.95 15.85 9.35 13.55 9.7 13.7 10.2 Q13.95 10.45 13.8 10.7 L13.75 10.75 13.5 10.95 13.35 10.7 13.3 10.4 13.15 10.5 13.55 10.1 13.35 9.75 13.15 9.75 12.7 9.85 12.5 10.65 12.45 10.55 12.2 9.95 12.05 10.0 11.85 10.25 11.75 10.35 Q11.05 10.85 11.4 10.1 L11.45 10.0 10.8 9.95 10.4 9.5 11.2 9.55 10.45 8.7 11.95 8.85 Q12.75 9.35 13.35 9.45 L13.65 9.4 Q13.35 9.25 13.4 8.75 L15.95 9.05 16.05 9.05 16.1 9.0 16.2 8.45 16.25 8.4 Q16.5 8.05 17.0 8.0 L17.05 8.05 17.35 8.85 17.5 8.8 Q18.65 8.15 19.05 6.85 L19.1 6.95 Q19.3 7.8 18.75 8.5 L20.6 7.85 21.05 7.65 M0.35 9.75 L0.6 9.95 0.5 9.95 0.0 9.9 0.35 9.75 M4.65 9.7 L5.35 9.8 5.4 9.8 5.45 10.25 5.45 10.35 Q5.2 10.45 5.0 10.65 L4.95 10.25 Q5.0 9.75 4.65 9.7" fill="#9f540d" fill-rule="evenodd" stroke="none"/>
    </g>
  </defs>
</svg>
