<?xml version="1.0" encoding="UTF-8" standalone="no"?>
<svg xmlns:ffdec="https://www.free-decompiler.com/flash" xmlns:xlink="http://www.w3.org/1999/xlink" ffdec:objectType="frame" height="26.3px" width="21.5px" xmlns="http://www.w3.org/2000/svg">
  <g transform="matrix(1.0, 0.0, 0.0, 1.0, 0.2, 0.1)">
    <use ffdec:characterId="1" height="26.3" transform="matrix(1.0, 0.0, 0.0, 1.0, -0.2, -0.1)" width="21.5" xlink:href="#shape0"/>
  </g>
  <defs>
    <g id="shape0" transform="matrix(1.0, 0.0, 0.0, 1.0, 0.2, 0.1)">
      <path d="M21.0 7.1 L20.1 11.05 17.05 23.05 Q16.35 21.45 16.25 17.4 16.3 14.0 16.7 12.3 L14.65 18.6 Q14.0 21.35 16.15 22.85 L14.25 24.0 13.85 24.15 12.6 23.95 Q11.4 23.75 12.35 24.3 L14.15 24.95 15.25 24.95 Q15.45 24.8 15.7 24.8 16.5 24.8 15.6 26.1 L13.7 26.15 12.85 25.6 14.55 25.3 12.5 24.6 11.2 23.25 10.75 22.5 10.85 22.3 10.95 22.15 Q13.55 20.85 15.15 13.9 12.85 18.35 12.4 15.4 L11.95 11.75 11.95 11.25 11.95 11.05 Q11.9 9.9 11.05 9.7 L11.05 1.95 13.65 1.95 14.45 1.95 17.2 1.95 17.45 2.8 Q18.5 5.9 21.0 7.1 M9.95 9.7 Q9.25 10.05 9.25 11.25 L9.2 11.25 9.2 11.5 9.55 20.8 9.5 20.8 9.1 11.8 8.95 15.45 Q8.8 18.4 5.9 14.15 7.3 19.05 8.4 20.3 L10.1 22.2 10.2 22.35 10.3 22.55 9.85 23.3 9.2 24.0 8.25 24.2 Q7.3 24.4 7.2 24.2 L6.8 24.05 Q6.2 23.8 5.25 22.9 6.1 22.05 6.45 20.8 6.7 19.85 6.4 18.65 L4.65 12.75 4.85 17.3 4.55 20.8 4.0 23.1 3.4 20.8 3.0 19.05 1.7 14.0 Q0.35 9.3 0.0 6.8 L1.95 5.45 Q3.55 4.05 4.3 1.95 L6.45 1.95 7.45 1.95 9.95 1.95 9.95 9.7 M7.35 26.2 L5.45 26.15 Q4.55 24.85 5.35 24.85 L6.05 25.0 7.3 25.0 Q8.1 24.85 8.85 24.35 L8.55 24.65 Q7.2 25.45 5.85 25.45 L8.2 25.65 7.35 26.2 M5.6 22.9 L6.8 23.6 8.25 23.95 9.1 23.05 9.9 22.55 8.0 22.45 5.6 22.9 M11.95 23.0 L12.8 23.9 14.25 23.55 15.45 22.85 14.0 22.8 11.15 22.5 11.95 23.0" fill="#2a2a2a" fill-rule="evenodd" stroke="none"/>
      <path d="M13.7 26.15 L11.4 26.05 11.45 25.45 10.65 24.25 11.2 23.25 12.5 24.6 14.55 25.3 12.85 25.6 13.7 26.15 M9.85 23.3 L10.4 24.3 9.6 25.5 9.65 26.1 7.35 26.2 8.2 25.65 5.85 25.45 Q7.2 25.45 8.55 24.65 L8.85 24.35 9.2 24.0 9.85 23.3 M5.6 22.9 L8.0 22.45 9.9 22.55 9.1 23.05 8.25 23.95 6.8 23.6 5.6 22.9 M11.95 23.0 L11.15 22.5 14.0 22.8 15.45 22.85 14.25 23.55 12.8 23.9 11.95 23.0" fill="#000000" fill-rule="evenodd" stroke="none"/>
      <path d="M-0.05 1.95 L0.2 -0.1 1.5 -0.1 1.15 1.95 -0.05 1.95 M6.45 -0.1 L7.45 -0.1 7.45 1.95 6.45 1.95 6.45 -0.1 M13.65 -0.1 L14.45 -0.1 14.45 1.95 13.65 1.95 13.65 -0.1 M19.7 -0.05 L20.75 -0.05 21.1 1.95 20.05 1.95 19.7 -0.05" fill="#484848" fill-rule="evenodd" stroke="none"/>
      <path d="M1.5 -0.1 L4.85 -0.1 6.45 -0.1 6.45 1.95 4.3 1.95 Q3.55 4.05 1.95 5.45 L0.0 6.8 -0.2 4.85 -0.05 1.95 1.15 1.95 1.5 -0.1 M7.45 -0.1 L9.95 -0.1 11.05 -0.1 13.65 -0.1 13.65 1.95 11.05 1.95 11.05 9.7 10.45 9.6 9.95 9.7 9.95 1.95 7.45 1.95 7.45 -0.1 M14.45 -0.1 L16.85 -0.05 19.7 -0.05 20.05 1.95 21.1 1.95 Q21.4 3.65 21.2 5.15 L21.0 7.1 Q18.5 5.9 17.45 2.8 L17.2 1.95 14.45 1.95 14.45 -0.1" fill="#151515" fill-rule="evenodd" stroke="none"/>
      <path d="M17.05 23.05 L17.5 24.5 16.55 25.45 16.4 26.05 15.6 26.1 Q16.5 24.8 15.7 24.8 15.45 24.8 15.25 24.95 L14.15 24.95 12.35 24.3 Q11.4 23.75 12.6 23.95 L13.85 24.15 14.25 24.0 16.15 22.85 Q14.0 21.35 14.65 18.6 L16.7 12.3 Q16.3 14.0 16.25 17.4 16.35 21.45 17.05 23.05" fill="url(#gradient0)" fill-rule="evenodd" stroke="none"/>
      <path d="M5.45 26.15 L4.65 26.1 4.5 25.5 3.55 24.55 4.0 23.1 4.55 20.8 4.85 17.3 4.65 12.75 6.4 18.65 Q6.7 19.85 6.45 20.8 6.1 22.05 5.25 22.9 6.2 23.8 6.8 24.05 L7.2 24.2 Q7.3 24.4 8.25 24.2 L9.2 24.0 8.85 24.35 Q8.1 24.85 7.3 25.0 L6.05 25.0 5.35 24.85 Q4.55 24.85 5.45 26.15" fill="url(#gradient1)" fill-rule="evenodd" stroke="none"/>
      <path d="M10.95 22.15 L11.55 20.95 11.95 11.75 12.4 15.4 Q12.85 18.35 15.15 13.9 13.55 20.85 10.95 22.15" fill="url(#gradient2)" fill-rule="evenodd" stroke="none"/>
      <path d="M9.5 20.8 L9.5 21.0 10.1 22.2 8.4 20.3 Q7.3 19.05 5.9 14.15 8.8 18.4 8.95 15.45 L9.1 11.8 9.5 20.8" fill="url(#gradient3)" fill-rule="evenodd" stroke="none"/>
    </g>
    <linearGradient gradientTransform="matrix(0.0, -0.0084, 0.0089, 0.0, 14.7, 18.8)" gradientUnits="userSpaceOnUse" id="gradient0" spreadMethod="pad" x1="-819.2" x2="819.2">
      <stop offset="0.0" stop-color="#000000"/>
      <stop offset="1.0" stop-color="#484848"/>
    </linearGradient>
    <linearGradient gradientTransform="matrix(0.0, -0.0085, 0.0089, 0.0, 6.35, 18.85)" gradientUnits="userSpaceOnUse" id="gradient1" spreadMethod="pad" x1="-819.2" x2="819.2">
      <stop offset="0.0" stop-color="#000000"/>
      <stop offset="1.0" stop-color="#484848"/>
    </linearGradient>
    <linearGradient gradientTransform="matrix(0.0, -0.0053, 0.0063, 0.0, 13.05, 16.95)" gradientUnits="userSpaceOnUse" id="gradient2" spreadMethod="pad" x1="-819.2" x2="819.2">
      <stop offset="0.0" stop-color="#000000"/>
      <stop offset="1.0" stop-color="#484848"/>
    </linearGradient>
    <linearGradient gradientTransform="matrix(0.0, -0.0057, 0.0063, 0.0, 8.0, 17.0)" gradientUnits="userSpaceOnUse" id="gradient3" spreadMethod="pad" x1="-819.2" x2="819.2">
      <stop offset="0.0" stop-color="#000000"/>
      <stop offset="1.0" stop-color="#484848"/>
    </linearGradient>
  </defs>
</svg>
