<?xml version="1.0" encoding="UTF-8" standalone="no"?>
<svg xmlns:ffdec="https://www.free-decompiler.com/flash" xmlns:xlink="http://www.w3.org/1999/xlink" ffdec:objectType="frame" height="37.1px" width="53.9px" xmlns="http://www.w3.org/2000/svg">
  <g transform="matrix(1.0, 0.0, 0.0, 1.0, 17.3, 1.05)">
    <use ffdec:characterId="1" height="37.1" transform="matrix(1.0, 0.0, 0.0, 1.0, -17.3, -1.05)" width="53.9" xlink:href="#shape0"/>
  </g>
  <defs>
    <g id="shape0" transform="matrix(1.0, 0.0, 0.0, 1.0, 17.3, 1.05)">
      <path d="M24.85 6.95 L24.85 6.9 24.95 7.1 24.85 6.95" fill="url(#gradient0)" fill-rule="evenodd" stroke="none"/>
      <path d="M9.8 29.15 L9.05 24.6 8.15 15.7 Q10.0 16.8 11.6 17.25 L13.75 17.7 14.8 17.8 17.85 17.8 Q20.4 17.7 23.1 15.8 25.8 13.85 25.8 10.4 25.8 9.1 25.2 7.55 L25.15 7.4 28.9 15.7 32.5 23.65 33.15 25.2 Q33.25 26.1 28.65 27.6 24.05 29.05 19.15 29.55 L9.8 29.15" fill="url(#gradient1)" fill-rule="evenodd" stroke="none"/>
      <path d="M-13.65 24.45 L-9.2 15.6 -8.9 15.05 -3.35 5.35 Q-2.5 5.9 -0.6 6.5 L0.8 6.95 1.2 7.05 1.15 7.05 1.0 7.15 1.35 7.1 1.1 7.85 Q0.6 9.15 -0.4 12.6 L-1.85 17.5 -3.65 23.15 Q-4.45 26.1 -4.4 28.3 L-4.4 28.4 Q-6.7 28.55 -10.1 27.0 -13.5 25.4 -13.7 24.45 L-13.65 24.45" fill="url(#gradient2)" fill-rule="evenodd" stroke="none"/>
      <path d="M-13.65 24.45 L-13.7 24.45 Q-13.5 25.4 -10.1 27.0 -6.7 28.55 -4.4 28.4 -5.2 30.05 -5.0 30.25 L-5.55 30.2 -10.0 28.95 Q-13.15 27.8 -14.5 26.15 L-13.7 24.35 -13.65 24.45" fill="url(#gradient3)" fill-rule="evenodd" stroke="none"/>
      <path d="M33.15 25.2 L34.0 27.5 Q33.95 27.9 30.9 29.1 L25.25 30.85 19.3 31.75 9.95 31.5 9.8 29.15 19.15 29.55 Q24.05 29.05 28.65 27.6 33.25 26.1 33.15 25.2" fill="url(#gradient4)" fill-rule="evenodd" stroke="none"/>
      <path d="M24.1 5.3 Q22.85 6.55 18.0 7.25 L8.85 7.85 3.25 7.45 1.9 7.1 1.35 7.0 1.0 7.05 1.15 6.95 1.2 6.95 0.8 6.85 -0.6 6.4 Q-2.5 5.8 -3.35 5.25 L-3.5 5.15 -3.6 4.95 -3.3 4.3 -0.95 -1.0 Q-0.55 0.45 10.0 0.65 20.5 0.85 21.2 -0.55 L24.3 5.6 24.1 5.3" fill="url(#gradient5)" fill-rule="evenodd" stroke="none"/>
      <path d="M27.75 12.35 L27.6 12.85 28.1 13.15 28.9 14.25 29.15 15.55 29.05 15.85 29.05 16.0 Q29.5 16.05 29.95 16.8 30.35 17.5 30.35 18.05 L30.3 18.5 30.3 18.6 30.7 19.0 31.15 20.05 31.2 20.8 31.1 21.0 30.95 21.3 30.9 21.15 30.9 20.9 30.5 21.4 Q30.95 21.75 30.95 21.4 32.0 22.4 32.0 23.4 L32.1 23.9 32.45 24.3 32.75 25.25 32.7 25.6 Q32.35 25.8 32.55 26.05 31.25 25.55 31.2 25.15 L31.15 24.65 Q30.05 24.35 29.95 23.2 29.9 22.1 30.3 21.85 L30.3 21.8 Q30.0 21.55 29.85 21.6 L29.8 21.55 29.7 21.5 Q29.05 21.15 29.0 20.6 28.7 19.7 28.95 18.9 L28.7 18.8 28.6 18.75 Q27.85 18.3 27.75 17.35 L27.75 16.25 Q27.95 16.1 27.75 16.05 L27.35 15.8 Q26.65 15.3 26.7 14.4 L26.8 13.2 25.8 12.55 25.75 12.5 Q25.6 12.2 25.6 11.25 L25.8 10.25 26.1 10.25 Q26.85 10.3 27.2 10.85 L27.65 11.65 27.75 12.35 M26.2 15.25 Q26.35 15.9 26.15 16.25 L25.95 16.6 26.1 16.55 27.0 17.35 27.5 18.3 27.35 19.1 27.15 19.25 27.35 19.35 27.4 19.45 28.15 20.3 28.4 21.2 28.15 21.95 28.1 21.95 28.05 22.0 Q27.9 22.05 28.35 22.15 L29.05 22.55 Q29.6 23.05 29.65 23.7 L29.45 24.4 29.95 24.6 Q30.6 24.9 30.7 25.75 L30.45 26.55 30.4 26.6 29.7 27.3 28.45 26.9 27.9 26.0 27.9 25.55 Q26.8 25.2 26.7 24.05 L26.75 22.5 27.1 22.6 27.7 22.75 27.85 22.05 27.8 21.8 27.15 22.3 26.65 22.4 26.65 22.35 26.55 22.35 Q25.9 21.9 25.9 21.35 25.65 20.55 25.9 19.7 L25.65 19.65 25.65 19.6 Q24.9 19.05 24.8 18.1 24.8 17.1 24.95 17.0 25.1 16.8 24.9 16.8 L24.45 16.55 Q23.85 16.05 23.9 15.05 L24.1 13.7 24.15 13.4 24.35 13.5 24.5 13.3 Q25.2 13.65 25.6 14.2 26.1 14.65 26.2 15.25 M21.25 14.05 L21.35 14.1 21.6 13.95 22.65 14.85 Q23.15 15.4 23.2 16.05 L23.1 17.0 22.9 17.35 23.05 17.3 23.85 18.15 24.3 19.1 24.15 19.95 23.95 20.05 24.1 20.15 24.15 20.25 24.8 21.2 25.0 22.05 24.75 22.8 24.7 22.8 24.65 22.85 24.9 23.0 25.7 23.45 Q26.2 23.95 26.2 24.6 L25.95 25.3 26.45 25.5 Q27.1 25.8 27.1 26.7 L26.85 27.6 26.75 27.65 25.75 28.45 24.85 27.85 Q24.35 27.3 24.35 26.85 L24.35 26.35 Q23.25 25.95 23.25 24.8 L23.4 23.25 23.55 23.25 23.55 23.15 23.3 23.15 23.3 23.1 23.15 23.1 Q22.55 22.6 22.55 22.1 22.35 21.25 22.65 20.45 L22.45 20.35 22.35 20.3 Q21.65 19.75 21.6 18.75 21.65 17.85 21.8 17.7 22.0 17.55 21.8 17.5 L21.35 17.2 Q20.8 16.7 20.9 15.7 20.95 14.65 21.15 14.4 L21.25 14.05 M20.55 21.05 L20.6 21.15 21.3 22.05 21.5 22.95 21.2 23.65 21.15 23.65 21.1 23.7 21.4 23.85 22.2 24.3 Q22.65 24.8 22.65 25.45 L22.45 26.15 22.9 26.35 Q23.6 26.65 23.6 27.6 L23.35 28.45 23.25 28.5 Q23.7 29.35 21.45 28.8 L21.35 28.7 Q20.85 28.15 20.85 27.7 L20.85 27.2 Q19.75 26.8 19.75 25.7 L19.9 24.1 20.2 24.3 20.8 24.45 20.9 23.7 20.85 23.45 20.3 23.95 19.8 24.05 19.8 24.0 19.65 23.95 Q19.05 23.5 19.05 22.95 18.85 22.05 19.15 21.3 L18.95 21.2 18.85 21.15 Q18.15 20.6 18.1 19.65 18.15 18.7 18.3 18.55 18.5 18.4 18.3 18.35 L17.85 18.1 Q17.3 17.55 17.4 16.55 17.45 15.55 17.65 15.25 L17.75 14.9 17.85 14.95 18.1 14.8 19.15 15.75 19.7 16.95 19.6 17.8 19.4 18.2 19.55 18.2 20.3 19.05 20.75 20.0 20.6 20.8 20.4 20.9 20.55 21.05 M29.4 24.55 L29.45 24.4 29.4 24.4 29.4 24.55 M0.35 7.65 L-0.2 8.1 Q-0.1 8.45 -0.15 9.05 -0.2 9.6 -0.6 10.0 L-1.45 10.65 -1.2 12.05 Q-1.3 13.25 -2.9 13.8 L-2.8 13.8 Q-2.35 14.6 -2.75 15.8 -2.85 16.45 -3.55 16.95 -3.85 17.2 -4.1 17.25 L-4.25 17.3 -4.1 18.9 Q-4.15 19.55 -4.95 19.95 L-5.05 20.0 -5.25 20.1 -5.35 21.8 Q-5.4 22.35 -6.1 22.75 L-6.2 22.8 -6.25 22.8 -6.3 22.8 Q-5.7 23.55 -6.05 24.75 L-7.1 26.05 -7.05 26.7 -7.15 27.5 Q-7.05 27.65 -7.4 27.65 L-8.65 27.15 -10.0 26.55 -9.95 26.05 Q-9.8 25.4 -8.8 25.05 L-8.65 23.45 -8.25 22.7 -8.0 22.15 -7.95 22.2 -7.65 22.3 -7.7 21.9 -7.85 21.45 -7.55 20.6 -6.75 19.7 -6.65 19.65 -6.55 19.5 -6.7 19.4 -6.75 18.55 -6.15 17.65 -5.2 16.85 -5.05 16.95 -5.2 16.45 -5.35 15.8 -4.85 14.4 Q-4.5 13.85 -3.55 13.55 L-3.55 13.65 -3.45 13.6 -3.4 13.65 -3.5 13.5 -3.55 13.45 -3.6 13.0 -3.45 11.95 Q-3.2 11.2 -2.5 10.85 L-1.9 10.3 -2.15 9.9 -2.25 9.3 -1.7 8.05 -1.25 7.55 -1.3 7.0 -0.75 6.0 0.95 6.55 Q0.85 7.1 0.35 7.65 M16.15 18.55 L16.9 19.4 17.3 20.4 17.1 21.2 16.9 21.3 17.05 21.45 17.1 21.5 17.75 22.5 17.9 23.4 17.55 24.1 17.5 24.1 17.45 24.15 17.7 24.35 18.45 24.8 Q18.9 25.35 18.9 26.0 L18.6 26.75 19.05 26.95 Q19.7 27.3 19.65 28.15 L19.35 29.0 19.4 29.1 19.25 29.05 Q18.65 29.95 17.4 29.2 L17.3 29.1 Q16.85 28.55 16.85 28.1 L16.9 27.65 Q15.85 27.2 15.9 26.0 L16.15 24.5 16.2 24.4 16.05 24.4 16.05 24.35 15.95 24.3 Q15.35 23.8 15.4 23.3 15.25 22.4 15.6 21.6 L15.35 21.5 15.3 21.45 Q14.65 20.85 14.65 19.9 14.75 18.95 14.9 18.85 15.1 18.7 14.9 18.65 L14.5 18.3 Q13.95 17.75 14.1 16.8 L14.45 15.5 14.55 15.2 14.7 15.25 14.9 15.1 15.9 16.1 Q16.35 16.65 16.4 17.25 L16.2 18.2 16.0 18.55 16.15 18.55 M11.6 15.0 L11.7 15.05 11.95 14.95 12.85 16.0 Q13.25 16.6 13.2 17.25 L12.95 18.15 12.7 18.5 12.85 18.5 13.5 19.45 13.8 20.45 13.55 21.25 13.35 21.3 13.45 21.45 13.5 21.55 14.05 22.6 14.1 23.5 13.7 24.15 13.65 24.15 13.6 24.2 13.85 24.4 14.55 24.95 Q14.95 25.5 14.85 26.15 L14.5 26.85 14.95 27.1 Q15.55 27.5 15.4 28.4 L15.05 29.2 13.6 29.55 13.0 29.15 Q12.6 28.55 12.65 28.1 L12.75 27.6 Q11.75 27.05 11.9 25.9 L12.3 24.4 12.55 24.6 13.15 24.85 13.4 24.15 13.4 23.9 12.7 24.3 12.2 24.3 12.2 24.25 12.1 24.2 Q11.55 23.65 11.65 23.15 11.6 22.25 12.0 21.5 L11.8 21.35 11.75 21.3 Q11.15 20.65 11.25 19.7 11.4 18.8 11.6 18.7 11.8 18.55 11.6 18.5 L11.25 18.1 Q10.75 17.5 11.0 16.55 11.25 15.55 11.45 15.3 L11.6 15.0 M18.55 26.7 L18.5 26.85 18.6 26.75 18.55 26.7 M14.4 26.95 L14.5 26.85 14.45 26.8 14.4 26.95 M25.95 25.3 L25.9 25.25 25.85 25.45 25.95 25.3 M22.4 26.15 L22.35 26.3 22.45 26.15 22.4 26.15 M-1.1 5.9 Q-1.2 6.4 -1.8 7.0 L-2.35 7.4 -2.35 8.35 Q-2.45 8.9 -2.85 9.3 L-3.45 9.8 -3.6 11.3 Q-3.75 12.5 -5.4 12.95 L-5.5 13.5 -5.45 14.75 Q-5.5 15.55 -6.2 16.0 L-6.8 16.3 -6.95 16.35 -6.85 17.95 Q-6.95 18.6 -7.8 18.95 L-7.9 19.0 -8.1 19.05 -8.1 19.3 -7.95 20.55 Q-7.95 21.6 -9.25 22.1 L-9.15 23.7 Q-9.2 24.65 -10.25 24.9 L-10.25 25.55 -10.4 26.3 Q-12.1 26.55 -13.05 24.6 -12.9 24.1 -12.35 23.95 L-12.3 23.85 -12.2 23.85 Q-12.25 23.4 -11.6 22.55 L-10.5 21.45 -10.65 21.0 -10.75 20.3 -10.4 19.45 -9.55 18.6 -9.45 18.55 -9.35 18.4 -9.5 18.3 -9.5 17.45 -8.85 16.55 -7.85 15.85 -7.7 15.95 -7.85 15.45 -7.85 14.6 Q-7.7 14.0 -7.1 13.6 L-6.25 12.95 -6.0 12.75 -5.9 12.75 -5.85 12.8 -5.95 12.6 -6.0 12.55 -6.05 12.1 -5.95 11.1 Q-5.8 10.4 -5.1 9.95 L-4.35 9.4 -4.4 9.1 -4.5 8.5 -3.85 7.3 -3.4 6.8 -3.4 6.25 -2.85 5.3 -1.1 5.9 M-5.4 12.95 L-5.85 12.8 -5.6 12.95 -5.4 12.95 M-2.9 13.8 L-3.4 13.65 -3.1 13.8 -2.9 13.8 M-7.35 26.0 L-7.35 26.15 -7.1 26.05 -7.1 25.95 -7.25 26.0 -7.35 26.0 M-10.5 24.85 L-10.55 25.0 -10.25 24.9 -10.25 24.8 -10.4 24.85 -10.5 24.85" fill="#461919" fill-opacity="0.29803923" fill-rule="evenodd" stroke="none"/>
      <path d="M26.25 12.5 Q25.8 12.1 25.65 11.05 L25.85 9.55 25.1 9.05 24.75 8.05 24.85 7.15 24.7 7.05 24.9 7.1 25.75 7.75 Q26.35 8.35 26.4 9.05 L26.3 10.15 26.15 10.1 26.3 10.25 26.1 11.25 Q26.1 12.2 26.25 12.5" fill="url(#gradient6)" fill-rule="evenodd" stroke="none"/>
      <path d="M26.25 12.5 Q26.1 12.2 26.1 11.25 L26.3 10.25 26.15 10.1 26.3 10.15 27.45 10.85 Q28.0 11.4 28.05 11.95 L28.0 12.8 27.95 12.95 28.6 13.15 29.4 14.25 29.65 15.55 29.55 15.85 29.55 16.0 Q30.0 16.05 30.45 16.8 30.85 17.5 30.85 18.05 L30.8 18.5 30.8 18.6 31.2 19.0 31.65 20.05 31.7 20.8 31.6 21.0 31.45 21.3 31.4 21.15 31.4 20.9 31.0 21.4 Q31.45 21.75 31.45 21.4 32.5 22.4 32.5 23.4 L32.6 23.9 32.95 24.3 33.3 25.05 33.3 25.4 Q33.45 26.2 32.25 26.0 31.75 25.55 31.7 25.15 L31.65 24.65 Q30.55 24.35 30.45 23.2 30.4 22.1 30.8 21.85 L30.8 21.8 30.35 21.6 30.3 21.55 30.2 21.5 Q29.55 21.15 29.5 20.6 29.2 19.7 29.45 18.9 L29.2 18.8 29.1 18.75 Q28.35 18.3 28.25 17.35 L28.25 16.25 Q28.45 16.1 28.25 16.05 L27.85 15.8 Q27.15 15.3 27.2 14.4 L27.3 13.2 26.3 12.55 26.25 12.5" fill="url(#gradient7)" fill-rule="evenodd" stroke="none"/>
      <path d="M26.7 15.25 Q26.85 15.9 26.65 16.25 L26.45 16.6 26.6 16.55 27.5 17.35 28.0 18.3 27.85 19.1 27.65 19.25 27.85 19.35 27.9 19.45 28.65 20.3 28.9 21.2 28.65 21.95 28.6 21.95 28.55 22.0 Q28.4 22.05 28.85 22.15 L29.55 22.55 Q30.1 23.05 30.15 23.7 L29.95 24.4 30.45 24.6 Q31.1 24.9 31.2 25.75 31.25 26.3 30.95 26.55 L30.9 26.6 Q30.45 27.2 29.65 27.3 L28.95 26.9 28.4 26.0 28.4 25.55 Q27.3 25.2 27.2 24.05 L27.25 22.5 27.6 22.6 28.2 22.75 28.35 22.05 28.3 21.8 27.65 22.3 27.15 22.4 27.15 22.35 27.05 22.35 Q26.4 21.9 26.4 21.35 26.15 20.55 26.4 19.7 L26.15 19.65 26.15 19.6 Q25.4 19.05 25.3 18.1 25.3 17.1 25.45 17.0 25.6 16.8 25.4 16.8 25.25 16.7 24.95 16.55 24.35 16.05 24.4 15.05 L24.6 13.7 24.65 13.4 24.85 13.5 25.0 13.3 26.1 14.2 Q26.6 14.65 26.7 15.25 M29.9 24.4 L29.9 24.55 29.95 24.4 29.9 24.4" fill="url(#gradient8)" fill-rule="evenodd" stroke="none"/>
      <path d="M21.75 14.05 L21.85 14.1 22.1 13.95 23.15 14.85 Q23.65 15.4 23.7 16.05 L23.6 17.0 23.4 17.35 23.8 17.45 Q24.1 17.5 24.4 18.25 L24.55 19.35 24.3 20.1 Q24.15 20.4 24.45 20.05 L24.6 20.15 24.65 20.25 25.3 21.2 25.5 22.05 25.25 22.8 25.2 22.8 25.15 22.85 25.4 23.0 26.2 23.45 Q26.7 23.95 26.7 24.6 L26.45 25.3 26.95 25.5 Q27.6 25.8 27.6 26.7 L27.55 27.8 Q26.75 28.4 25.25 28.35 26.15 28.35 25.35 27.85 24.85 27.3 24.85 26.85 L24.85 26.35 Q23.75 25.95 23.75 24.8 L23.9 23.25 24.05 23.25 24.05 23.15 23.8 23.15 23.8 23.1 23.65 23.1 Q23.05 22.6 23.05 22.1 22.85 21.25 23.15 20.45 L22.95 20.35 22.85 20.3 Q22.15 19.75 22.1 18.75 22.15 17.85 22.3 17.7 22.5 17.55 22.3 17.5 L21.85 17.2 Q21.3 16.7 21.4 15.7 21.45 14.65 21.65 14.4 L21.75 14.05 M26.35 25.45 L26.45 25.3 26.4 25.25 26.35 25.45" fill="url(#gradient9)" fill-rule="evenodd" stroke="none"/>
      <path d="M21.1 21.15 L21.8 22.05 22.0 22.95 21.7 23.65 21.65 23.65 21.6 23.7 21.9 23.85 22.7 24.3 Q23.15 24.8 23.15 25.45 L22.95 26.15 23.4 26.35 Q24.1 26.65 24.1 27.6 L23.85 28.45 23.75 28.5 Q24.1 28.8 22.35 29.0 L21.35 27.7 21.35 27.2 Q20.25 26.8 20.25 25.7 L20.4 24.1 20.7 24.3 21.3 24.45 21.4 23.7 21.35 23.45 20.8 23.95 20.3 24.05 20.3 24.0 20.15 23.95 Q19.55 23.5 19.55 22.95 19.35 22.05 19.65 21.3 L19.45 21.2 19.35 21.15 Q18.65 20.6 18.6 19.65 18.65 18.7 18.8 18.55 19.0 18.4 18.8 18.35 L18.35 18.1 Q17.8 17.55 17.9 16.55 17.95 15.55 18.15 15.25 L18.25 14.9 18.35 14.95 18.6 14.8 19.65 15.75 Q20.15 16.25 20.2 16.95 L20.1 17.8 19.9 18.2 20.05 18.2 20.8 19.05 21.25 20.0 21.1 20.8 20.9 20.9 21.05 21.05 21.1 21.15 M22.9 26.15 L22.85 26.3 22.95 26.15 22.9 26.15" fill="url(#gradient10)" fill-rule="evenodd" stroke="none"/>
      <path d="M8.5 15.3 L8.6 15.35 8.85 15.25 9.85 16.3 10.25 17.3 10.05 18.3 9.8 18.8 9.95 18.85 10.45 19.45 10.7 20.5 10.45 21.55 10.25 21.6 10.35 21.75 10.4 21.85 10.95 22.9 11.0 23.8 Q10.95 24.45 10.6 24.45 L10.55 24.45 10.5 24.5 10.75 24.7 11.25 25.4 11.45 26.35 11.4 27.15 11.85 27.4 Q12.45 27.8 12.3 28.7 L12.15 29.25 9.85 29.35 Q9.5 28.8 9.55 28.4 L9.65 27.9 Q8.65 27.35 8.8 26.2 L9.2 24.7 9.4 24.6 9.1 24.6 9.1 24.55 9.0 24.5 Q8.45 23.95 8.55 23.45 8.5 22.75 8.75 22.2 L8.5 21.9 Q7.7 21.05 7.9 20.1 8.05 19.1 8.4 19.0 L8.5 18.8 7.8 18.2 Q7.25 17.65 7.45 16.45 7.65 15.2 8.05 15.3 L8.5 15.3 M11.3 27.25 L11.4 27.15 11.35 27.1 11.3 27.25" fill="url(#gradient11)" fill-rule="evenodd" stroke="none"/>
      <path d="M15.4 15.1 L16.4 16.1 Q16.85 16.65 16.9 17.25 L16.7 18.2 16.5 18.55 16.65 18.55 17.4 19.4 17.8 20.4 17.6 21.2 17.4 21.3 17.55 21.45 17.6 21.5 18.25 22.5 18.4 23.4 18.05 24.1 18.0 24.1 17.95 24.15 18.2 24.35 18.95 24.8 Q19.4 25.35 19.4 26.0 L19.1 26.75 19.55 26.95 Q20.2 27.3 20.15 28.15 L19.85 29.0 19.9 29.1 19.8 29.2 Q18.85 29.7 17.9 29.2 L17.8 29.1 Q17.35 28.55 17.35 28.1 L17.4 27.65 Q16.35 27.2 16.4 26.0 L16.65 24.5 16.7 24.4 16.55 24.4 16.55 24.35 16.45 24.3 Q15.85 23.8 15.9 23.3 15.75 22.4 16.1 21.6 L15.85 21.5 15.8 21.45 Q15.15 20.85 15.15 19.9 15.25 18.95 15.4 18.85 15.6 18.7 15.4 18.65 L15.0 18.3 Q14.45 17.75 14.6 16.8 L14.95 15.5 15.05 15.2 15.2 15.25 15.4 15.1 M19.05 26.7 L19.0 26.85 19.1 26.75 19.05 26.7" fill="url(#gradient12)" fill-rule="evenodd" stroke="none"/>
      <path d="M12.1 15.0 L12.2 15.05 12.45 14.95 13.35 16.0 13.7 17.25 13.45 18.15 13.2 18.5 13.35 18.5 14.0 19.45 Q14.35 20.1 14.3 20.45 L14.05 21.25 13.85 21.3 13.95 21.45 14.0 21.55 14.55 22.6 14.6 23.5 14.2 24.15 14.15 24.15 14.1 24.2 14.35 24.4 15.05 24.95 Q15.45 25.5 15.35 26.15 L15.0 26.85 15.45 27.1 Q16.05 27.5 15.9 28.4 L15.75 29.35 13.7 29.5 13.5 29.15 Q13.1 28.55 13.15 28.1 L13.25 27.6 Q12.25 27.05 12.4 25.9 L12.8 24.4 13.05 24.6 13.65 24.85 13.9 24.15 13.9 23.9 Q13.7 24.25 13.2 24.3 L12.7 24.3 12.7 24.25 12.6 24.2 Q12.05 23.65 12.15 23.15 12.1 22.25 12.5 21.5 L12.3 21.35 12.25 21.3 Q11.65 20.65 11.75 19.7 L12.1 18.7 Q12.3 18.55 12.1 18.5 L11.75 18.1 Q11.25 17.5 11.5 16.55 11.75 15.55 11.95 15.3 L12.1 15.0 M14.9 26.95 L15.0 26.85 14.95 26.8 14.9 26.95" fill="url(#gradient13)" fill-rule="evenodd" stroke="none"/>
      <path d="M27.35 12.15 L27.6 13.05 27.8 13.7 Q27.8 14.05 28.15 14.35 L28.75 15.0 Q29.05 15.3 29.0 15.75 28.95 16.2 29.35 17.0 L29.8 17.65 30.1 18.25 30.1 18.8 30.45 19.6 30.75 20.25 30.75 20.95 31.15 21.65 31.55 22.2 31.4 23.15 Q31.4 23.65 31.7 23.95 32.05 24.3 32.05 24.8 32.05 25.2 32.85 25.45 32.85 25.95 33.1 26.0 L32.4 26.05 Q32.15 26.05 31.45 24.45 L30.8 24.0 Q30.45 23.55 30.45 22.95 30.45 22.2 30.75 21.7 L29.6 21.0 Q29.35 20.7 29.35 19.85 29.35 19.3 29.5 19.05 L28.5 18.35 Q28.0 18.05 28.0 17.15 28.0 16.3 28.25 16.1 27.3 15.8 27.3 13.95 L27.5 13.25 26.35 12.65 Q25.9 12.35 25.9 11.65 L26.0 11.1 Q26.2 10.7 27.35 12.15 M25.85 17.35 Q25.85 18.4 26.55 19.1 L27.15 20.05 Q27.05 20.85 27.55 21.8 28.05 22.65 28.5 22.75 28.4 22.8 28.4 23.35 28.4 24.05 28.8 24.6 29.0 24.85 29.65 25.1 L29.75 25.9 Q29.95 26.7 30.4 26.8 L29.2 27.3 Q28.95 27.3 28.6 26.5 L28.25 25.35 Q27.7 25.5 27.4 24.8 27.15 24.25 27.15 23.5 27.15 23.35 27.3 23.15 L27.4 22.8 26.15 21.8 Q25.9 21.45 25.9 20.65 L25.9 20.05 26.25 19.55 25.3 18.75 Q25.15 18.6 25.15 17.95 L25.15 17.4 25.55 16.8 Q24.3 17.0 24.3 15.1 24.3 14.5 24.9 13.9 L24.95 14.25 24.9 14.3 24.9 15.05 25.15 15.7 Q25.55 16.5 26.0 16.5 L25.85 17.35 M22.1 17.75 Q22.2 17.3 22.5 17.35 L22.5 17.25 Q21.65 17.45 21.6 17.0 L22.2 16.55 Q22.65 16.25 22.75 16.3 L22.7 16.55 22.9 17.1 23.0 18.0 Q22.9 18.7 23.3 19.35 L23.95 20.1 23.8 20.35 23.85 21.25 Q24.0 21.95 24.3 22.4 L24.6 23.0 24.6 24.45 Q24.55 25.8 25.2 25.95 25.8 26.1 25.75 26.5 25.55 27.7 26.95 28.05 L26.4 28.35 25.75 28.45 25.2 27.6 24.7 26.55 24.35 26.15 23.9 25.75 Q23.65 25.4 23.65 24.65 L23.7 23.95 24.0 23.35 23.55 22.85 Q23.1 22.35 23.1 21.5 L23.1 20.95 23.5 20.4 Q22.75 20.15 22.45 19.75 22.1 19.3 22.1 18.45 L22.1 17.75 M20.85 23.05 L21.5 23.65 21.45 24.2 Q21.4 24.65 21.5 25.0 21.65 25.55 22.25 25.85 21.85 25.95 21.85 26.65 21.85 27.25 22.45 27.85 L23.0 28.4 22.7 28.75 22.25 28.85 Q21.6 28.85 21.3 27.25 L20.45 26.65 Q20.2 26.4 20.2 25.25 L20.4 24.1 Q19.4 23.45 19.4 22.25 L19.5 21.75 19.75 21.1 Q18.6 20.75 18.6 19.4 L18.9 18.7 19.05 17.95 19.25 17.95 19.5 18.3 19.45 19.1 Q19.45 20.55 19.9 20.95 20.35 21.35 20.35 21.95 20.35 22.65 20.85 23.05 M7.6 16.1 L7.95 15.65 8.35 15.75 8.65 16.15 8.65 16.2 8.5 16.9 Q8.5 17.5 8.85 17.95 L9.2 18.5 9.0 19.6 Q8.75 20.4 9.05 20.8 L9.7 21.3 9.45 21.9 9.4 23.1 Q9.2 23.45 9.6 24.0 L10.0 24.6 9.85 25.75 10.25 26.65 Q10.6 27.1 10.55 27.45 10.35 28.45 11.15 29.15 L11.15 29.4 10.8 29.45 Q9.6 29.45 9.6 28.4 L9.8 27.5 9.35 26.7 Q8.9 25.8 8.9 24.7 L9.0 24.05 Q8.7 23.85 8.7 22.95 L8.85 22.1 8.25 21.2 Q8.1 20.85 8.1 20.05 8.1 19.55 8.4 19.25 8.65 19.0 8.5 18.85 L7.85 18.2 Q7.35 17.75 7.6 16.6 L7.6 16.1 M14.75 17.8 L15.85 18.0 15.85 18.9 16.2 19.45 16.2 20.25 Q16.15 20.8 16.5 21.2 L16.85 21.85 Q16.85 22.65 17.3 23.75 L17.35 24.2 17.5 24.9 18.1 25.8 17.95 26.65 Q17.95 27.55 19.5 29.35 L18.5 29.6 Q17.3 29.6 17.3 28.05 L17.4 27.55 16.6 25.7 16.8 25.1 16.95 24.35 16.15 23.6 Q15.9 23.25 15.9 22.45 L16.0 21.9 16.25 21.35 Q15.15 21.2 15.15 19.65 L15.45 18.65 14.75 18.05 14.75 17.8 M12.4 17.7 L12.35 18.0 12.65 18.65 12.5 19.45 Q12.5 20.6 13.4 21.25 L13.05 21.8 12.95 22.55 13.15 23.5 13.7 24.1 13.2 25.8 Q13.2 26.65 14.1 27.55 L13.95 28.2 Q13.95 28.65 14.35 29.1 L14.8 29.6 13.8 29.7 13.25 29.05 13.0 28.1 Q13.0 27.65 13.2 27.5 L13.2 27.4 12.4 26.7 12.35 25.65 12.4 24.7 12.75 24.1 Q12.15 23.2 12.15 22.65 12.15 21.4 12.65 21.35 11.75 21.0 11.75 19.4 11.75 19.0 12.15 18.45 L12.2 18.4 Q11.65 18.35 11.4 17.25 L11.4 17.2 12.4 17.7" fill="#ffe5e5" fill-opacity="0.5019608" fill-rule="evenodd" stroke="none"/>
      <path d="M-2.4 15.35 L-1.3 14.45 -1.05 14.6 -0.95 14.55 -0.85 14.85 -0.6 16.15 Q-0.5 17.1 -1.1 17.65 L-1.5 17.95 Q-1.7 18.0 -1.5 18.15 -1.35 18.3 -1.35 19.25 -1.4 20.2 -2.1 20.7 L-2.2 20.75 -2.4 20.9 Q-2.1 21.65 -2.3 22.55 -2.3 23.1 -2.9 23.55 L-3.0 23.6 -3.05 23.65 -3.5 23.55 -4.15 23.05 -4.15 23.3 -4.05 24.0 -3.4 23.85 -3.15 23.7 -3.0 25.25 Q-3.0 26.4 -4.05 26.8 L-4.05 27.3 Q-4.05 27.75 -4.55 28.3 L-4.65 28.4 -6.5 28.1 -6.6 28.2 -6.6 28.1 -6.6 28.0 -6.85 27.2 Q-6.85 26.25 -6.15 25.95 L-5.65 25.75 -5.6 25.9 -5.6 25.75 -5.65 25.75 -5.9 25.05 Q-5.9 24.4 -5.4 23.9 L-4.65 23.5 -4.35 23.3 -4.4 23.25 -4.45 23.25 -4.75 22.5 -4.55 21.65 -3.85 20.7 -3.8 20.6 -3.7 20.45 -3.85 20.4 -4.0 19.6 -3.55 18.65 -2.75 17.75 -2.6 17.8 -2.8 17.4 -2.9 16.5 Q-2.85 15.85 -2.4 15.35" fill="url(#gradient14)" fill-rule="evenodd" stroke="none"/>
      <path d="M0.25 11.25 L0.6 12.7 Q0.6 13.85 -0.9 14.55 L-1.3 14.45 -1.35 14.45 -1.4 14.4 -1.45 14.35 -1.5 14.3 -1.65 13.85 -1.8 13.15 Q-1.8 11.85 -0.5 11.1 L-0.4 11.1 -0.6 10.7 -0.8 10.15 Q-0.8 9.6 -0.4 8.9 L0.0 8.35 -0.15 7.8 0.35 6.55 2.0 7.05 1.55 8.25 1.05 8.75 1.2 9.65 0.95 10.65 0.25 11.25" fill="url(#gradient15)" fill-rule="evenodd" stroke="none"/>
      <path d="M-6.35 12.8 L-6.45 12.6 -6.5 12.55 -6.55 12.1 -6.45 11.1 Q-6.3 10.4 -5.6 9.95 L-4.85 9.4 -4.9 9.1 -5.0 8.5 -4.35 7.3 -3.9 6.8 -3.9 6.25 -3.35 5.3 -1.6 5.9 Q-1.7 6.4 -2.3 7.0 L-2.85 7.4 -2.85 8.35 Q-2.95 8.9 -3.35 9.3 L-3.95 9.8 -4.1 11.3 Q-4.25 12.5 -5.9 12.95 L-6.35 12.8" fill="url(#gradient16)" fill-rule="evenodd" stroke="none"/>
      <path d="M-5.9 12.95 L-6.0 13.5 -5.95 14.75 Q-6.0 15.55 -6.7 16.0 L-7.3 16.3 -7.45 16.35 -7.35 17.95 Q-7.45 18.6 -8.3 18.95 L-8.4 19.0 -8.6 19.05 -8.6 19.3 -8.45 20.55 Q-8.45 21.6 -9.75 22.1 L-9.65 23.7 Q-9.7 24.65 -10.75 24.9 L-10.75 25.55 -10.9 26.3 Q-13.05 25.5 -13.55 24.6 -13.4 24.1 -12.85 23.95 L-12.8 23.85 -12.7 23.85 Q-12.75 23.4 -12.1 22.55 L-11.0 21.45 -11.15 21.0 -11.25 20.3 -10.9 19.45 -10.05 18.6 -9.95 18.55 -9.85 18.4 -10.0 18.3 -10.0 17.45 -9.35 16.55 -8.35 15.85 -8.2 15.95 -8.35 15.45 -8.35 14.6 -7.6 13.6 -6.75 12.95 -6.5 12.75 -6.4 12.75 -6.35 12.8 -6.1 12.95 -5.9 12.95 M-10.75 24.8 L-10.9 24.85 -11.0 24.85 -11.05 25.0 -10.75 24.9 -10.75 24.8" fill="url(#gradient17)" fill-rule="evenodd" stroke="none"/>
      <path d="M-3.9 13.65 L-4.0 13.5 -4.05 13.45 -4.1 13.0 -3.95 11.95 Q-3.7 11.2 -3.0 10.85 L-2.4 10.3 -2.65 9.9 -2.75 9.3 -2.2 8.05 -1.75 7.55 -1.8 7.0 -1.25 6.0 0.45 6.55 Q0.35 7.1 -0.15 7.65 L-0.7 8.1 Q-0.6 8.45 -0.65 9.05 -0.7 9.6 -1.1 10.0 L-1.95 10.65 -1.7 12.05 Q-1.8 13.25 -3.4 13.8 L-3.9 13.65" fill="url(#gradient18)" fill-rule="evenodd" stroke="none"/>
      <path d="M-3.4 13.8 L-3.3 13.8 Q-2.85 14.6 -3.25 15.8 -3.35 16.45 -4.05 16.95 L-4.6 17.25 -4.75 17.3 -4.6 18.9 Q-4.65 19.55 -5.45 19.95 L-5.55 20.0 -5.75 20.1 -5.85 21.8 Q-5.9 22.35 -6.6 22.75 L-6.7 22.8 -6.75 22.8 -6.8 22.8 Q-6.2 23.55 -6.55 24.75 L-7.6 26.05 -7.55 26.7 -7.65 27.5 Q-7.55 27.65 -7.9 27.65 L-9.15 27.15 -10.5 26.55 -10.45 26.05 Q-10.3 25.4 -9.3 25.05 L-9.15 23.45 -8.75 22.7 -8.5 22.15 -8.45 22.2 -8.15 22.3 -8.2 21.9 -8.35 21.45 -8.05 20.6 -7.25 19.7 -7.15 19.65 -7.05 19.5 -7.2 19.4 -7.25 18.55 -6.65 17.65 -5.7 16.85 -5.55 16.95 -5.7 16.45 -5.85 15.8 Q-5.7 14.9 -5.35 14.4 -5.0 13.85 -4.05 13.55 L-4.05 13.65 -3.95 13.6 -3.9 13.65 -3.6 13.8 -3.4 13.8 M-7.6 25.95 L-7.75 26.0 -7.85 26.0 -7.85 26.15 -7.6 26.05 -7.6 25.95" fill="url(#gradient19)" fill-rule="evenodd" stroke="none"/>
      <path d="M0.7 9.25 Q0.4 9.15 0.15 9.55 -0.15 9.95 -0.15 10.8 L-0.1 11.2 -0.6 10.75 -0.85 10.05 Q-0.85 9.45 -0.45 9.05 -0.05 8.7 0.35 8.8 -0.2 8.25 -0.2 7.25 -0.2 6.6 0.5 6.6 1.0 6.6 1.05 7.65 0.55 7.85 0.55 8.6 L0.7 9.25 M-1.45 5.95 L-0.4 6.2 -0.55 6.45 -0.7 6.55 Q-1.25 7.0 -1.25 8.3 -1.5 8.3 -1.9 8.7 -2.45 9.25 -2.45 10.15 L-2.4 10.65 -2.1 10.95 -2.85 11.4 Q-3.45 11.95 -3.45 12.7 L-3.25 13.5 -3.05 13.9 Q-3.4 13.9 -4.0 14.45 -4.9 15.3 -4.9 16.65 L-4.7 17.35 -5.65 17.6 Q-6.45 18.05 -6.45 19.25 L-6.1 20.15 -6.55 20.45 -7.2 21.2 Q-7.45 22.0 -7.35 22.75 L-7.8 22.85 Q-8.0 23.15 -8.0 23.8 L-7.8 24.7 -7.75 24.7 Q-8.55 24.8 -8.55 26.1 L-8.5 26.75 -8.3 27.05 -9.7 26.8 Q-10.7 26.65 -10.7 26.05 -10.7 25.6 -10.2 25.3 L-9.35 25.1 Q-9.35 23.65 -8.7 23.05 L-8.05 22.4 -8.2 21.6 -8.35 20.85 -7.9 19.9 Q-7.45 19.3 -7.0 19.2 L-7.25 18.5 Q-7.25 18.05 -6.5 17.4 -5.8 16.7 -5.35 16.9 L-5.75 15.3 Q-5.75 13.75 -3.8 13.45 -4.1 13.4 -4.1 12.75 -4.1 11.95 -3.45 11.45 L-2.55 11.05 -2.65 9.3 Q-2.65 8.65 -2.45 8.45 L-1.4 7.75 -1.7 6.7 -1.5 6.05 -1.45 5.95 M-2.7 5.45 L-3.1 6.25 -3.2 7.1 Q-3.75 7.35 -4.0 8.45 L-4.35 9.6 -4.6 9.7 -4.8 9.35 -5.0 8.8 -4.65 7.75 -3.8 7.05 -4.05 6.4 -3.7 5.65 -3.15 5.3 -2.7 5.45 M-5.6 10.5 L-5.9 11.5 -5.85 11.95 -5.65 12.45 -7.0 13.8 Q-7.55 14.65 -7.3 16.15 -8.3 16.3 -8.7 16.8 -9.15 17.35 -9.15 18.55 L-9.05 18.9 Q-8.9 19.0 -8.9 19.15 -9.55 19.35 -10.0 20.15 -10.55 21.05 -10.55 22.15 L-10.4 22.45 Q-10.7 22.45 -11.15 22.8 -11.75 23.3 -11.75 24.0 L-11.5 24.75 -12.15 24.95 Q-12.6 25.15 -12.4 25.75 L-12.4 25.8 -13.75 24.5 -13.1 24.0 -12.4 23.75 Q-12.75 23.25 -11.95 22.35 -11.3 21.55 -10.8 21.45 -11.4 20.85 -11.4 20.35 -11.4 19.7 -10.85 19.0 -10.35 18.3 -9.85 18.35 L-10.1 17.8 Q-10.1 17.25 -9.45 16.8 L-8.15 16.05 -8.15 15.9 -8.3 15.1 Q-8.3 14.3 -7.4 13.4 -6.65 13.0 -6.65 12.85 L-6.55 12.2 Q-6.35 11.15 -5.6 10.5 M-0.1 11.2 L0.0 11.6 Q-0.4 11.6 -0.75 12.15 -1.25 12.8 -1.25 14.0 L-1.2 14.45 -1.15 14.6 -1.2 14.5 -2.15 16.75 Q-2.4 17.65 -2.0 18.25 L-2.8 18.8 Q-3.35 19.8 -3.25 20.6 L-2.8 21.75 -3.55 22.05 Q-3.85 22.15 -3.85 23.15 L-3.75 23.75 -4.25 24.3 Q-4.6 24.8 -4.6 25.65 L-4.15 26.4 -4.15 26.45 -4.9 26.65 Q-5.65 27.1 -5.65 28.05 L-5.5 28.55 -5.85 28.55 -6.25 28.3 Q-6.5 28.1 -6.7 28.1 L-6.9 26.45 Q-6.9 25.8 -6.55 25.4 -6.25 25.0 -5.75 25.0 L-5.9 25.0 -5.95 24.6 -5.5 23.8 -4.2 23.6 -4.75 22.3 -4.2 21.3 Q-3.65 20.7 -3.35 20.65 L-3.75 20.2 -4.05 19.4 -3.4 18.2 Q-2.9 17.7 -2.5 17.6 L-2.65 17.35 -2.75 16.25 Q-2.75 15.55 -1.25 14.5 -1.85 13.9 -1.85 13.0 -1.85 12.25 -1.3 11.75 -0.8 11.2 -0.1 11.2" fill="#ffe5e5" fill-opacity="0.49803922" fill-rule="evenodd" stroke="none"/>
      <path d="M22.1 21.75 Q23.05 20.2 23.5 20.1 23.9 20.0 27.35 22.7 L27.45 22.75 28.35 20.7 29.3 19.25 Q30.9 20.15 32.5 22.05 32.8 24.95 31.85 26.7 L29.55 25.25 28.2 24.1 28.1 24.0 28.0 24.15 26.0 28.5 Q25.8 28.65 24.2 27.85 L21.75 26.4 21.4 26.9 20.1 28.4 Q18.9 29.7 18.45 29.7 L16.55 28.3 14.7 26.55 14.65 26.5 14.45 26.2 14.4 26.2 13.5 27.5 12.1 29.2 11.4 29.9 9.2 28.05 9.15 28.0 Q8.05 26.8 8.15 26.15 8.25 25.45 9.0 24.0 9.8 22.5 10.25 22.2 10.5 21.55 11.35 22.3 L13.0 23.75 14.2 24.85 15.8 23.0 Q17.55 20.95 17.85 20.95 L21.05 23.5 22.1 21.75 M24.05 21.7 L23.3 22.9 22.3 25.15 25.3 26.85 26.75 23.85 24.05 21.7 M29.5 20.7 L28.65 22.85 30.0 24.3 Q31.35 25.5 31.6 24.95 31.85 24.4 31.55 22.45 30.9 21.35 29.5 20.65 L29.5 20.7 M18.0 22.75 Q17.7 22.85 16.7 24.05 L15.65 25.5 Q18.1 28.15 18.5 28.05 L20.9 25.25 18.0 22.75 M13.0 25.35 L10.9 23.4 9.55 25.5 Q9.1 26.3 9.3 26.55 L10.3 27.55 11.25 28.3 13.1 25.75 13.0 25.35 M-12.55 24.55 L-12.55 21.25 -12.5 20.8 -12.1 20.05 -9.6 18.25 Q-9.2 18.25 -9.0 18.65 L-8.9 22.25 -6.65 20.35 Q-5.2 19.3 -4.9 19.5 -4.6 19.7 -4.0 21.05 L-3.1 23.3 Q-2.7 24.2 -3.2 24.85 L-4.1 25.75 -6.0 26.9 Q-7.4 27.8 -7.5 27.65 L-8.2 25.75 -9.05 22.75 -12.05 24.9 -12.55 24.55 M-11.75 22.05 L-11.8 23.65 -9.85 21.85 -9.95 19.6 Q-11.6 20.7 -11.7 21.15 L-11.75 22.05 M-7.95 22.95 Q-7.1 25.95 -6.85 26.0 L-4.2 24.15 Q-4.3 23.45 -4.7 22.55 L-5.45 20.9 -7.95 22.95" fill="#5d4747" fill-opacity="0.5019608" fill-rule="evenodd" stroke="none"/>
      <path d="M23.3 22.4 L22.3 24.65 25.3 26.35 26.75 23.35 24.05 21.2 23.3 22.4 M22.1 21.25 Q23.05 19.7 23.5 19.6 23.9 19.5 27.35 22.2 L27.45 22.25 28.35 20.2 29.3 18.75 Q30.9 19.65 32.5 21.55 33.1 24.75 31.85 26.2 L29.55 24.75 28.2 23.6 28.1 23.5 28.0 23.65 26.0 28.0 Q25.8 28.15 24.2 27.35 L21.75 25.9 21.4 26.4 20.1 27.9 Q18.9 29.2 18.45 29.2 L16.55 27.8 14.7 26.05 14.65 26.0 14.45 25.7 14.4 25.7 13.5 27.0 12.1 28.7 11.4 29.4 9.2 27.55 8.6 27.0 7.85 26.15 Q7.75 25.8 8.75 23.9 9.8 22.0 10.25 21.7 10.5 21.05 11.35 21.8 L13.0 23.25 14.2 24.35 15.8 22.5 Q17.55 20.45 17.85 20.45 L21.05 23.0 22.1 21.25 M29.5 20.2 L28.65 22.35 29.9 23.85 Q31.15 25.1 31.4 24.55 31.65 24.0 31.55 21.95 30.9 20.85 29.5 20.15 L29.5 20.2 M18.0 22.25 Q17.7 22.35 16.7 23.55 L15.65 25.0 Q18.1 27.65 18.5 27.55 L20.9 24.75 18.0 22.25 M26.95 23.1 L26.95 23.15 26.95 23.1 M13.0 24.85 L10.9 22.9 9.55 25.0 Q9.1 25.8 9.3 26.05 L10.3 27.05 11.25 27.8 13.1 25.25 13.0 24.85" fill="url(#gradient20)" fill-rule="evenodd" stroke="none"/>
      <path d="M-11.75 21.55 L-11.8 23.15 -9.85 21.35 -9.95 19.1 Q-11.6 20.2 -11.7 20.65 L-11.75 21.55 M-12.55 20.75 L-12.5 20.3 -12.1 19.55 -9.6 17.75 Q-9.2 17.75 -9.0 18.15 L-8.9 21.75 -6.65 19.85 Q-5.2 18.8 -4.9 19.0 -4.6 19.2 -4.0 20.55 L-3.1 22.8 Q-2.7 23.7 -3.2 24.35 L-4.1 25.25 -6.0 26.4 Q-7.4 27.3 -7.5 27.15 L-8.2 25.25 -9.05 22.25 -12.05 24.4 -12.55 24.05 -12.55 20.75 M-7.95 22.45 Q-7.1 25.45 -6.85 25.5 L-4.2 23.65 Q-4.3 22.95 -4.7 22.05 L-5.45 20.4 -7.95 22.45" fill="url(#gradient21)" fill-rule="evenodd" stroke="none"/>
      <path d="M24.85 6.95 L25.0 7.25 25.15 7.7 25.45 8.8 Q25.7 9.65 25.75 11.75 25.8 13.85 23.4 15.9 21.0 17.9 19.3 18.15 L16.75 18.35 14.7 18.15 11.8 17.5 Q10.05 17.0 8.15 15.7 5.65 14.55 3.55 12.0 1.85 9.9 1.1 7.75 1.25 7.15 0.2 6.35 L0.95 6.65 3.0 7.35 7.75 8.1 9.75 8.55 15.5 8.95 20.25 8.4 21.9 7.9 23.5 7.3 24.5 6.8 24.65 6.7 24.85 6.95" fill="url(#gradient22)" fill-rule="evenodd" stroke="none"/>
      <path d="M25.85 10.95 Q25.9 11.65 25.55 12.95 L24.85 14.75 24.15 15.65 23.6 16.2 23.15 16.55 Q22.9 16.7 22.6 16.95 L21.75 17.45 20.35 18.05 18.15 18.55 15.8 18.5 14.6 18.4 13.7 18.2 11.7 17.75 9.5 16.85 7.25 15.6 5.3 14.0 Q3.45 12.2 2.25 10.2 L0.5 7.1 0.15 6.3 0.85 6.6 Q1.3 6.4 2.25 8.2 3.15 10.0 5.5 12.5 7.85 14.95 10.45 16.0 L15.1 17.3 19.5 17.15 Q21.85 16.7 23.8 14.45 25.75 12.15 25.5 9.9 L25.3 8.35 25.5 8.95 25.85 10.95" fill="#583a28" fill-rule="evenodd" stroke="none"/>
      <path d="M24.55 6.2 L24.75 6.7 24.85 6.9 24.85 6.95 24.65 6.7 24.55 6.8 Q23.45 7.6 21.2 8.15 L20.25 8.4 15.5 8.95 9.75 8.55 9.6 8.55 6.7 8.2 2.75 7.4 2.25 7.25 1.5 6.85 1.9 7.1 3.25 7.45 8.85 7.85 18.0 7.25 Q22.85 6.55 24.1 5.3 L24.55 6.2" fill="#7e4d1f" fill-rule="evenodd" stroke="none"/>
      <path d="M-13.95 26.75 L-13.6 25.95 -13.25 25.05 -12.8 25.4 -12.5 25.7 -13.4 27.35 -13.95 26.75 M-11.5 26.2 Q-10.65 26.2 -10.65 26.55 L-11.35 28.25 -12.15 27.9 -11.5 26.2 M-5.8 28.25 L-5.1 28.45 -5.65 30.2 -6.4 30.05 -6.1 29.25 -5.8 28.25 M-8.25 29.45 L-7.8 27.95 -6.95 28.05 -7.6 29.75 -8.25 29.45 M-9.65 27.0 L-9.6 27.0 Q-8.9 27.25 -8.9 27.55 L-9.4 29.1 -9.85 28.95 -10.3 28.8 Q-9.65 27.55 -9.65 27.0 M24.65 30.5 L24.65 30.8 24.35 31.05 24.05 31.05 23.55 29.2 Q23.85 28.9 24.25 28.9 L24.65 30.5 M22.0 29.3 L22.35 29.3 22.65 30.8 22.35 31.4 22.0 31.4 21.8 29.75 21.85 29.7 21.75 29.7 21.8 29.75 21.75 29.8 21.5 29.5 22.0 29.3 M25.8 28.5 L26.05 28.5 26.4 30.0 26.35 30.4 25.95 30.65 25.4 28.75 25.8 28.5 M27.15 28.25 L27.6 28.05 27.95 28.6 28.15 29.55 Q28.15 30.1 27.75 30.1 L27.6 30.05 Q27.6 29.0 27.15 28.25 M29.0 27.55 L29.45 27.4 29.8 28.0 30.05 29.0 29.95 29.3 29.55 29.45 29.05 27.75 29.05 27.9 29.0 27.9 29.0 27.55 M31.0 27.45 L30.85 27.2 30.8 27.1 Q30.8 26.8 31.35 26.7 L31.75 28.25 31.7 28.7 31.3 28.85 31.0 27.45 M32.95 26.0 L33.45 27.8 33.35 28.0 33.0 28.15 32.85 28.1 32.45 26.25 32.35 26.3 32.9 25.95 32.95 26.0 M15.85 29.95 L15.85 31.75 15.15 31.75 15.1 29.95 15.85 29.95 M12.5 29.8 L13.3 29.8 13.5 31.15 13.5 31.75 13.05 31.75 12.55 31.65 12.5 29.8 M10.4 29.6 L11.2 29.6 11.2 31.45 10.45 31.45 10.4 29.6 M17.25 29.75 L18.05 29.75 18.25 31.45 18.1 31.65 Q17.9 31.65 17.8 31.8 L17.35 31.8 17.25 29.75 M19.7 29.8 L20.0 29.7 Q20.35 29.7 20.45 30.05 L20.5 30.9 20.5 31.4 20.05 31.55 Q19.8 31.55 19.75 31.0 L19.7 29.8" fill="#461919" fill-opacity="0.29803923" fill-rule="evenodd" stroke="none"/>
      <path d="M20.35 4.8 L20.4 4.8 Q22.0 4.8 22.95 5.4 L23.25 6.55 23.5 8.0 23.5 8.2 Q23.5 9.7 23.0 10.85 L22.95 10.35 22.3 8.35 Q21.75 6.7 20.35 4.8 M9.1 7.75 Q11.1 6.25 13.65 5.55 L14.05 7.55 Q14.45 9.5 15.4 11.35 L16.7 13.6 Q13.85 13.1 11.7 10.7 L9.5 7.7 9.1 7.75 M14.35 5.35 L19.65 4.8 Q20.7 5.85 21.7 8.4 22.75 10.9 22.6 11.6 L22.1 12.2 Q20.65 13.7 18.2 13.7 L17.65 13.7 17.6 13.7 16.9 12.65 16.1 11.2 15.2 8.6 14.35 5.35" fill="#9f765e" fill-rule="evenodd" stroke="none"/>
      <path d="M22.95 5.4 Q24.45 6.35 24.2 8.95 24.1 11.6 22.75 13.2 21.35 14.75 18.7 15.15 16.0 15.5 13.25 13.95 10.45 12.35 9.2 9.1 L8.85 8.35 8.65 8.0 9.1 7.75 9.5 7.7 11.7 10.7 Q13.85 13.1 16.7 13.6 L17.1 13.65 17.6 13.7 17.65 13.7 18.2 13.7 Q20.65 13.7 22.1 12.2 L22.6 11.6 22.85 11.25 23.0 10.85 Q23.5 9.7 23.5 8.2 L23.5 8.0 23.25 6.55 22.95 5.4" fill="#853030" fill-rule="evenodd" stroke="none"/>
      <path d="M13.65 5.55 L14.5 5.3 14.05 5.4 15.05 5.2 14.35 5.35 15.2 8.6 16.1 11.2 16.9 12.65 17.6 13.7 17.1 13.65 16.7 13.6 15.4 11.35 Q14.45 9.5 14.05 7.55 L13.65 5.55 M19.65 4.8 L19.9 4.8 20.35 4.8 Q21.75 6.7 22.3 8.35 L22.95 10.35 23.0 10.85 22.85 11.25 22.6 11.6 Q22.75 10.9 21.7 8.4 20.7 5.85 19.65 4.8" fill="#b84848" fill-rule="evenodd" stroke="none"/>
      <path d="M24.1 11.2 L25.15 13.85 27.0 19.0 26.1 20.75 25.95 20.1 24.85 16.3 23.6 12.1 24.1 11.2" fill="url(#gradient23)" fill-rule="evenodd" stroke="none"/>
      <path d="M24.45 9.7 L27.8 17.2 27.2 18.5 24.1 11.1 24.45 9.7" fill="url(#gradient24)" fill-rule="evenodd" stroke="none"/>
      <path d="M23.55 14.7 L24.4 18.45 25.2 21.35 24.0 22.05 23.35 18.2 Q22.7 15.15 21.95 13.75 L22.3 13.45 22.95 12.9 23.55 14.7" fill="url(#gradient25)" fill-rule="evenodd" stroke="none"/>
      <path d="M21.7 18.05 L23.1 22.65 21.9 23.3 Q20.45 16.3 19.55 14.85 L20.0 14.8 20.65 14.55 21.7 18.05" fill="url(#gradient26)" fill-rule="evenodd" stroke="none"/>
      <path d="M10.6 10.7 L10.8 15.75 Q11.5 20.8 11.9 21.1 L11.55 20.95 10.8 20.65 Q9.75 18.7 9.6 14.2 L9.65 9.05 10.45 10.5 10.6 10.7" fill="url(#gradient27)" fill-rule="evenodd" stroke="none"/>
      <path d="M16.4 15.25 Q16.15 16.85 16.6 18.85 L17.45 22.45 17.6 23.1 18.15 24.1 Q16.6 23.4 16.1 23.4 L15.5 18.85 14.95 14.9 15.45 15.1 16.4 15.25" fill="url(#gradient28)" fill-rule="evenodd" stroke="none"/>
      <path d="M17.55 15.2 L18.4 15.15 18.65 16.65 19.45 19.45 Q20.5 22.9 21.2 23.7 L19.75 23.8 18.5 20.0 Q17.3 16.25 17.3 15.2 L17.55 15.2" fill="url(#gradient29)" fill-rule="evenodd" stroke="none"/>
      <path d="M13.3 14.0 L14.4 20.25 15.1 23.1 13.95 22.55 13.8 22.5 Q12.95 20.7 12.3 16.85 11.8 14.0 11.75 12.4 L12.85 13.55 13.3 14.0" fill="url(#gradient30)" fill-rule="evenodd" stroke="none"/>
      <path d="M23.75 7.9 Q24.1 10.15 22.55 11.9 20.75 13.85 18.05 13.85 L14.9 13.3 Q13.1 12.65 12.3 11.7 L11.35 10.6 10.6 9.5 Q9.8 7.6 9.05 7.75 L9.7 9.05 Q10.1 10.2 10.75 11.15 13.65 14.95 17.85 14.95 L19.85 14.65 20.5 14.4 20.85 14.3 Q21.8 13.85 22.7 13.45 21.3 15.3 17.8 15.4 14.25 15.5 11.7 13.1 10.2 11.85 8.65 9.6 L4.6 8.85 2.1 8.15 Q0.6 7.6 0.2 6.5 L5.5 7.6 8.2 7.95 Q8.6 7.55 8.95 7.7 L10.95 6.6 Q11.5 7.95 13.35 8.75 14.85 9.45 17.85 9.55 20.85 9.65 21.75 8.6 22.6 7.5 22.65 7.0 22.65 6.45 22.8 5.9 22.85 5.35 22.6 5.25 L22.95 5.4 Q23.4 5.65 23.75 7.9" fill="#000000" fill-opacity="0.2509804" fill-rule="evenodd" stroke="none"/>
      <path d="M10.05 12.3 L10.15 12.25 10.55 11.9 10.6 11.4 10.55 11.25 10.6 11.35 11.15 12.0 10.05 12.3 M1.5 11.05 L1.5 10.95 1.35 9.9 1.4 9.55 Q1.35 10.2 1.9 10.55 2.5 10.95 2.5 11.2 L2.7 11.4 2.05 11.15 1.5 11.05 M-2.1 10.3 L-2.3 10.15 -2.1 10.15 -2.45 9.15 -2.35 8.65 -2.35 8.9 -2.2 9.75 Q-1.95 9.9 -1.95 10.3 L-2.1 10.3" fill="#eec0c0" fill-rule="evenodd" stroke="none"/>
      <path d="M-5.5 8.05 L-5.6 8.0 -5.85 7.7 -6.25 7.75 Q-6.85 7.75 -7.1 7.4 L-7.0 7.35 Q-6.6 7.35 -6.75 7.1 L-6.9 6.8 Q-6.9 6.45 -6.45 6.45 -6.1 6.45 -5.8 7.4 L-5.5 8.05 M-3.4 5.2 L-2.8 5.55 -2.8 5.65 -5.2 6.2 -5.5 6.2 -5.5 6.15 -3.65 5.2 -3.4 5.2 M-1.15 6.1 L-1.0 6.15 -0.85 6.15 -0.85 6.2 Q-0.85 6.35 -1.25 6.5 L-2.45 6.7 -1.5 6.1 -1.15 6.1 M7.6 7.65 L7.65 7.7 7.7 8.55 7.6 9.3 Q7.4 9.6 7.3 10.4 L7.3 8.95 7.3 8.3 Q7.4 7.75 7.6 7.65" fill="#d4a7a7" fill-rule="evenodd" stroke="none"/>
      <path d="M10.4 11.05 L10.1 10.65 9.35 9.05 Q9.0 8.05 8.35 8.2 7.7 8.3 7.75 8.9 L7.75 10.0 7.3 10.8 Q6.9 11.1 7.0 11.8 7.05 12.45 6.55 12.45 L6.3 12.15 5.95 11.8 5.65 11.35 5.95 10.85 6.2 10.35 Q6.2 10.0 5.8 9.9 L5.05 9.9 5.15 9.75 Q5.25 9.6 5.75 9.6 6.0 9.55 6.05 8.95 L6.45 8.15 6.65 7.75 Q6.0 8.05 5.15 9.65 L4.7 8.4 Q4.0 7.35 3.5 7.4 L2.95 7.4 2.9 7.65 3.0 8.2 Q3.0 8.55 2.25 8.7 1.55 8.8 1.4 9.3 L1.7 8.25 Q2.0 7.3 2.35 6.95 L4.15 7.2 5.95 7.7 Q6.15 7.5 6.35 7.55 L6.75 7.65 6.95 7.65 7.2 7.65 7.6 7.65 9.1 7.65 9.8 9.7 9.9 9.95 10.4 11.05 M7.6 7.65 Q7.4 7.75 7.3 8.3 L7.3 8.95 7.3 10.4 Q7.4 9.6 7.6 9.3 L7.7 8.55 7.65 7.7 7.6 7.65" fill="url(#gradient31)" fill-rule="evenodd" stroke="none"/>
      <path d="M0.75 6.5 L2.15 6.9 2.25 6.95 1.65 7.75 Q1.05 8.7 1.0 9.5 L0.65 10.85 -0.1 10.15 Q-0.65 8.2 -1.5 7.85 L-1.75 7.75 Q-0.45 6.8 0.55 6.8 L0.75 6.9 0.8 6.7 0.75 6.5" fill="url(#gradient32)" fill-rule="evenodd" stroke="none"/>
      <path d="M-2.65 10.1 L-2.8 10.1 -3.0 10.1 -3.25 9.8 -3.6 9.15 -3.25 8.15 Q-2.9 7.65 -2.9 7.05 -2.9 6.55 -3.7 6.55 -4.6 6.55 -4.5 7.7 -4.45 8.5 -4.85 8.75 L-4.7 8.1 -4.9 8.15 -5.0 8.15 -5.5 8.05 -5.8 7.4 Q-6.1 6.45 -6.45 6.45 -6.9 6.45 -6.9 6.8 L-6.75 7.1 Q-6.6 7.35 -7.0 7.35 L-7.1 7.4 -7.3 6.7 -7.3 6.2 -6.35 6.05 Q-5.8 5.65 -4.85 5.35 L-3.75 5.05 -3.6 5.0 -3.5 5.15 -3.45 5.15 -3.4 5.2 -3.65 5.2 -5.5 6.15 -5.5 6.2 -5.2 6.2 -2.8 5.65 -2.8 5.55 -1.5 6.0 -1.15 6.1 -1.5 6.1 -2.45 6.7 -1.25 6.5 Q-0.85 6.35 -0.85 6.2 L-0.85 6.15 -0.75 6.2 -0.1 6.35 Q-0.9 6.55 -2.1 7.3 -2.55 7.6 -2.7 8.4 -2.85 9.25 -3.35 9.65 L-2.65 10.1" fill="url(#gradient33)" fill-rule="evenodd" stroke="none"/>
      <path d="M26.2 8.65 L26.35 8.55 26.7 8.2 27.0 7.3 26.9 7.05 26.85 6.95 25.9 6.2 24.75 5.75 24.45 5.8 24.4 6.1 25.2 7.05 25.95 7.85 Q25.95 8.05 25.6 8.1 L25.35 8.3 25.05 8.05 Q24.85 8.05 24.75 8.4 24.7 8.8 24.3 8.75 L23.85 6.95 23.4 5.75 Q23.35 5.6 23.65 5.35 L25.1 5.45 Q26.25 5.8 27.45 6.75 L27.05 6.65 Q26.9 6.75 27.05 7.5 L26.55 8.6 26.2 8.65" fill="url(#gradient34)" fill-rule="evenodd" stroke="none"/>
      <path d="M25.35 8.3 L25.6 8.1 Q25.95 8.05 25.95 7.85 L25.2 7.05 24.4 6.1 24.45 5.8 24.75 5.75 25.9 6.2 26.85 6.95 26.9 7.05 27.0 7.3 26.7 8.2 26.35 8.55 26.2 8.65 25.4 8.45 25.35 8.3 M10.55 11.25 L10.6 11.4 10.55 11.9 10.15 12.25 10.05 12.3 9.95 12.3 9.15 11.95 9.0 12.3 Q8.95 12.6 8.2 12.7 L7.9 12.7 6.5 12.45 6.55 12.45 Q7.05 12.45 7.0 11.8 6.9 11.1 7.3 10.8 L7.75 10.0 7.75 8.9 Q7.7 8.3 8.35 8.2 9.0 8.05 9.35 9.05 L10.1 10.65 10.4 11.05 10.55 11.25 M2.35 6.95 Q2.0 7.3 1.7 8.25 L1.4 9.3 Q1.55 8.8 2.25 8.7 3.0 8.55 3.0 8.2 L2.9 7.65 2.95 7.4 3.5 7.4 Q4.0 7.35 4.7 8.4 L5.15 9.65 Q6.0 8.05 6.65 7.75 L6.45 8.15 6.05 8.95 Q6.0 9.55 5.75 9.6 5.25 9.6 5.15 9.75 L5.05 9.9 5.8 9.9 Q6.2 10.0 6.2 10.35 L5.95 10.85 5.65 11.35 5.95 11.8 Q5.6 11.5 5.25 11.5 L4.9 11.6 4.6 11.7 Q4.0 11.7 3.9 11.35 L3.55 11.0 3.05 11.25 2.75 11.4 2.7 11.4 2.5 11.2 Q2.5 10.95 1.9 10.55 1.35 10.2 1.4 9.55 L1.35 9.9 1.5 10.95 1.5 11.05 1.1 11.1 0.95 11.1 0.55 11.25 Q-0.25 11.5 -1.1 11.0 L-2.1 10.3 -1.95 10.3 Q-1.95 9.9 -2.2 9.75 L-2.35 8.9 -2.35 8.65 -2.45 9.15 -2.1 10.15 -2.3 10.15 -2.35 10.1 -2.65 10.1 -3.35 9.65 Q-2.85 9.25 -2.7 8.4 -2.55 7.6 -2.1 7.3 -0.9 6.55 -0.1 6.35 L0.35 6.45 0.75 6.5 0.8 6.7 0.75 6.9 0.55 6.8 Q-0.45 6.8 -1.75 7.75 L-1.5 7.85 Q-0.65 8.2 -0.1 10.15 L0.65 10.85 1.0 9.5 Q1.05 8.7 1.65 7.75 L2.25 6.95 2.35 6.95 M-3.0 10.1 L-4.35 9.65 -4.85 8.75 Q-4.45 8.5 -4.5 7.7 -4.6 6.55 -3.7 6.55 -2.9 6.55 -2.9 7.05 -2.9 7.65 -3.25 8.15 L-3.6 9.15 -3.25 9.8 -3.0 10.1" fill="#bd9f9f" fill-rule="evenodd" stroke="none"/>
      <path d="M14.0 10.25 L14.85 10.05 14.9 10.05 Q15.8 10.05 16.45 10.7 17.1 11.35 17.1 12.3 17.1 13.25 16.45 13.9 15.8 14.55 14.85 14.55 13.9 14.55 13.25 13.9 12.6 13.25 12.6 12.3 12.6 11.35 13.25 10.7 L14.0 10.25 M15.85 10.45 L14.95 10.25 14.75 10.25 14.25 10.4 13.6 10.8 13.4 11.1 Q13.05 11.55 13.05 12.2 13.05 13.0 13.6 13.55 14.15 14.1 14.95 14.1 L15.8 13.95 16.0 13.85 16.35 13.55 16.45 13.45 16.9 12.2 Q16.9 11.4 16.45 10.9 L16.4 10.85 16.35 10.8 16.2 10.7 15.85 10.45" fill="#b84848" fill-rule="evenodd" stroke="none"/>
      <path d="M22.6 13.35 L22.6 11.6 22.55 11.2 22.65 11.55 22.6 13.35 M15.8 13.95 L14.95 14.1 Q14.15 14.1 13.6 13.55 13.05 13.0 13.05 12.2 13.05 11.55 13.4 11.1 L13.6 10.8 14.25 10.4 14.75 10.25 14.95 10.25 15.85 10.45 15.65 11.0 15.55 11.25 15.55 11.55 15.45 11.7 15.45 11.65 15.5 11.5 14.85 11.1 13.95 10.7 13.65 10.85 13.4 11.1 15.25 12.1 Q15.55 14.15 15.7 14.0 15.85 13.8 15.8 13.95 M16.45 10.9 Q16.9 11.4 16.9 12.2 L16.45 13.45 16.35 13.55 16.0 13.85 16.4 13.35 16.2 13.3 16.1 12.15 16.1 12.1 Q16.1 11.25 16.45 10.9" fill="#d75454" fill-rule="evenodd" stroke="none"/>
      <path d="M24.3 6.8 L23.85 6.9 23.75 7.6 Q23.75 8.3 24.35 9.0 24.9 9.65 25.5 9.7 L25.5 10.1 25.15 10.2 Q24.45 10.2 23.95 9.7 L23.15 8.5 23.05 7.6 23.1 7.3 23.5 6.7 23.8 6.65 24.3 6.8 M15.85 10.45 L16.2 10.7 16.35 10.8 16.4 10.85 16.45 10.9 Q16.1 11.25 16.1 12.1 L16.1 12.15 16.2 13.3 16.4 13.35 16.0 13.85 15.8 13.95 Q15.85 13.8 15.7 14.0 15.55 14.15 15.25 12.1 L13.4 11.1 13.65 10.85 13.95 10.7 14.85 11.1 15.5 11.5 15.45 11.65 15.45 11.7 15.55 11.55 15.55 11.25 15.65 11.0 15.85 10.45" fill="#b49240" fill-rule="evenodd" stroke="none"/>
      <path d="M21.55 9.95 L22.1 10.15 22.3 10.5 22.55 11.2 22.6 11.6 22.6 13.35 Q22.5 13.1 22.5 13.3 L22.4 13.25 20.9 12.55 Q19.8 12.2 19.8 11.45 19.8 10.45 20.35 10.45 20.85 10.45 21.2 10.85 L21.15 10.4 21.25 10.05 21.45 9.95 21.55 9.95 M20.95 11.0 Q20.5 11.0 20.5 11.2 20.5 11.7 21.3 12.0 22.2 12.4 22.35 12.65 L22.35 12.6 22.25 11.3 21.8 10.4 21.65 10.85 21.7 11.2 21.65 11.2 20.95 11.0" fill="#c297ec" fill-rule="evenodd" stroke="none"/>
      <path d="M22.3 10.5 L22.85 11.6 Q23.1 12.45 22.65 13.45 L22.6 13.5 21.5 14.25 Q20.65 14.45 19.95 13.95 19.25 13.45 19.0 12.5 18.8 11.6 19.2 10.85 19.6 10.05 20.45 9.85 L21.55 9.95 21.45 9.95 21.25 10.05 20.55 10.05 Q19.9 10.2 19.5 10.85 L19.45 11.2 Q19.25 11.75 19.55 12.35 L20.35 13.4 Q20.9 13.85 21.35 13.8 L22.05 13.55 22.15 13.45 22.3 13.3 22.4 13.25 22.5 13.3 Q22.5 13.1 22.6 13.35 L22.65 11.55 22.55 11.2 22.3 10.5" fill="#222c43" fill-rule="evenodd" stroke="none"/>
      <path d="M21.25 10.05 L21.15 10.4 21.2 10.85 Q20.85 10.45 20.35 10.45 19.8 10.45 19.8 11.45 19.8 12.2 20.9 12.55 L22.4 13.25 22.3 13.3 22.15 13.45 22.05 13.55 21.35 13.8 Q20.9 13.85 20.35 13.4 L19.55 12.35 Q19.25 11.75 19.45 11.2 L19.5 10.85 Q19.9 10.2 20.55 10.05 L21.25 10.05 M20.95 11.0 L21.65 11.2 21.7 11.2 21.65 10.85 21.8 10.4 22.25 11.3 22.35 12.6 22.35 12.65 Q22.2 12.4 21.3 12.0 20.5 11.7 20.5 11.2 20.5 11.0 20.95 11.0" fill="#6482b6" fill-rule="evenodd" stroke="none"/>
      <path d="M25.65 8.25 L25.5 8.05 25.45 8.0 25.45 8.05 25.3 8.4 24.95 8.7 Q24.55 8.7 24.55 8.2 24.55 7.9 24.85 7.9 L25.35 8.0 25.4 7.95 24.95 7.65 24.35 7.45 Q24.1 7.45 24.1 8.1 24.1 8.5 24.35 8.8 24.6 9.1 24.95 9.1 25.4 9.1 25.45 8.6 L25.5 9.7 Q24.9 9.65 24.35 9.0 23.75 8.3 23.75 7.6 L23.85 6.9 24.3 6.8 25.05 7.3 25.5 7.9 25.5 7.95 25.6 8.1 25.65 8.25" fill="#e5bd5c" fill-rule="evenodd" stroke="none"/>
      <path d="M21.35 5.2 L21.55 5.65 Q21.3 5.65 20.65 6.05 L20.05 6.45 19.7 5.95 Q19.7 5.55 20.6 5.2 L20.8 5.0 20.9 4.9 Q21.15 4.9 21.35 5.2 M21.85 6.55 L22.1 6.9 22.35 7.35 21.5 7.7 Q20.8 8.05 20.75 8.15 L20.45 7.55 Q20.45 7.25 21.15 6.85 L21.85 6.55 M23.15 9.25 L23.0 9.15 22.25 9.4 21.35 9.8 21.0 9.25 21.05 9.2 Q22.15 8.55 22.5 8.55 L22.8 8.5 23.2 9.25 23.15 9.25 M13.45 8.6 L12.95 8.05 Q13.0 7.75 13.8 6.95 14.55 6.15 14.85 6.05 L15.3 6.7 13.45 8.6 M14.9 10.05 L14.85 10.05 14.0 10.25 13.8 10.15 14.5 9.3 15.35 8.55 15.6 8.55 16.05 9.2 Q15.6 9.25 14.9 10.05" fill="#853030" fill-rule="evenodd" stroke="none"/>
      <path d="M25.5 9.7 L25.45 8.6 Q25.4 9.1 24.95 9.1 24.6 9.1 24.35 8.8 24.1 8.5 24.1 8.1 24.1 7.45 24.35 7.45 L24.95 7.65 25.4 7.95 25.35 8.0 24.85 7.9 Q24.55 7.9 24.55 8.2 24.55 8.7 24.95 8.7 L25.3 8.4 25.45 8.05 25.45 8.0 25.5 8.05 25.65 8.25 25.7 8.25 25.95 9.15 26.05 9.55 26.15 10.25 26.15 10.35 25.75 10.35 25.5 10.3 25.5 10.1 25.5 9.7 M25.6 8.1 L25.5 7.95 25.5 7.7 Q25.45 6.7 25.85 6.7 26.1 6.7 26.1 7.2 26.1 8.25 25.75 8.25 L25.7 8.25 25.6 8.1" fill="#ff7298" fill-rule="evenodd" stroke="none"/>
      <path d="M21.2 -0.5 Q23.9 4.25 24.1 5.35 L23.4 5.65 Q23.4 4.9 21.15 -0.1 L21.1 -0.2 21.05 -0.25 21.2 -0.5 M16.4 0.6 L17.15 4.95 16.65 5.05 16.6 4.85 16.25 2.75 15.85 0.6 16.4 0.6 M9.5 0.7 L9.4 6.5 Q9.3 8.0 9.05 7.8 9.35 7.4 8.4 7.7 L9.1 0.75 9.5 0.7 M1.15 5.9 L1.15 5.85 2.0 3.3 2.9 0.3 3.5 0.45 1.55 6.75 0.9 6.5 1.15 5.9" fill="#5f2f12" fill-rule="evenodd" stroke="none"/>
      <path d="M20.6 0.1 L20.25 0.95 20.05 1.95 18.9 1.0 18.2 0.65 19.35 0.4 20.6 0.1 M20.75 4.35 L21.35 4.85 20.7 4.85 20.75 4.35 M22.5 3.85 L21.05 2.8 21.7 1.65 22.5 3.85 M18.3 4.9 L17.0 5.0 16.75 2.2 18.95 3.4 18.3 4.9 M16.7 5.1 L15.2 3.85 16.2 2.45 16.7 5.1 M13.35 2.35 L12.25 1.6 11.15 0.8 14.7 0.75 13.35 2.35 M10.25 4.95 L9.4 5.7 9.5 2.75 11.3 4.0 10.25 4.95 M8.0 0.65 L6.9 1.35 5.75 2.25 5.7 2.2 4.75 0.45 7.75 0.7 8.0 0.65 M8.55 5.85 L7.5 3.8 8.25 3.15 9.1 2.5 8.55 5.85 M1.85 0.25 Q0.4 1.2 0.25 1.4 L0.25 1.45 -0.1 -0.35 1.1 0.0 1.85 0.25 M1.5 4.85 L0.95 3.1 Q1.75 2.4 2.4 2.1 1.95 3.0 1.5 4.85 M2.8 3.95 L2.15 4.5 Q2.7 2.35 3.1 1.85 L4.05 3.2 Q3.7 3.25 2.8 3.95 M2.85 6.9 L2.5 6.9 4.9 5.1 6.5 7.6 2.85 6.9 M-1.7 1.9 L-2.25 2.55 -3.05 3.7 -1.95 1.05 -1.7 1.9 M-0.65 6.0 L-2.7 5.4 Q-2.25 4.85 -1.15 4.4 L-0.95 5.2 -0.65 6.0" fill="#311707" fill-rule="evenodd" stroke="none"/>
      <path d="M-1.15 -0.5 L-0.5 2.75 -0.45 2.75 Q0.95 1.75 2.65 0.7 L2.7 1.15 -0.25 3.25 -0.15 3.6 0.2 4.9 0.7 6.25 0.0 6.05 -0.65 4.2 -0.8 3.65 -0.9 3.7 -3.05 5.25 -3.15 5.15 -3.3 5.0 -3.2 4.85 -1.0 3.1 -0.95 3.1 Q-1.5 2.1 -1.5 0.55 L-1.25 -0.35 -1.15 -0.5 M-0.9 3.2 L-0.9 3.05 -0.95 3.1 -0.9 3.2 M21.55 0.65 L20.7 3.35 22.65 4.7 23.4 5.4 23.1 5.4 21.75 4.5 20.6 3.65 20.35 4.65 19.7 4.65 19.95 3.75 20.05 3.4 16.65 1.75 16.6 0.85 Q17.25 0.95 20.2 3.0 L21.25 0.2 21.55 0.65 M16.05 1.7 L13.9 3.9 13.85 3.95 15.5 5.05 15.2 5.1 14.6 5.2 13.45 4.5 11.9 6.25 10.7 6.75 12.8 4.25 12.95 4.1 9.6 2.0 9.6 1.15 13.4 3.65 15.9 1.05 16.05 1.7 M9.05 1.75 L5.75 4.05 7.3 6.4 8.3 7.95 7.5 7.8 7.25 7.6 5.2 4.45 2.0 6.75 1.65 6.6 4.95 4.0 Q3.55 2.0 3.35 1.25 L3.55 0.7 5.5 3.6 Q7.9 1.9 8.8 1.3 L9.05 1.75" fill="#a34246" fill-rule="evenodd" stroke="none"/>
      <path d="M10.25 31.7 L10.1 30.85 15.95 31.5 18.35 31.4 22.1 31.0 27.95 29.65 Q31.8 28.65 33.85 27.4 L34.05 28.2 Q34.1 28.55 31.05 29.6 L24.9 31.3 17.25 32.25 10.25 31.7 M-5.2 29.85 L-5.4 30.65 -5.75 30.6 Q-7.05 30.5 -10.2 29.35 -13.35 28.2 -14.7 26.55 L-14.35 25.8 Q-13.4 27.35 -9.65 28.75 L-5.2 29.85" fill="#b67676" fill-rule="evenodd" stroke="none"/>
      <path d="M31.65 29.0 L32.05 28.7 32.15 28.75 32.15 28.8 32.4 29.0 33.25 29.0 32.55 28.65 32.35 28.65 32.6 28.55 33.45 28.05 33.45 28.1 35.15 28.3 35.35 28.25 35.4 28.25 Q34.4 27.7 34.05 27.75 L33.9 27.75 34.0 27.7 34.0 27.6 34.1 27.55 34.9 27.7 Q35.6 27.8 35.9 28.05 L36.55 27.95 36.6 28.35 36.45 28.85 36.4 28.85 Q36.1 28.9 36.2 28.7 L36.3 28.45 Q36.3 28.2 35.95 28.3 L35.55 29.05 35.45 29.45 35.45 29.55 35.05 29.7 34.95 29.7 34.8 29.7 34.9 30.2 34.7 29.45 Q34.75 28.6 34.15 28.7 33.55 28.75 33.55 29.1 L33.8 29.9 34.05 30.6 33.9 31.0 Q33.5 30.75 33.4 30.15 33.4 29.6 33.0 29.5 32.25 29.05 31.65 29.0 M33.7 31.4 L33.55 31.4 33.45 31.45 33.8 31.05 33.7 31.4" fill="url(#gradient35)" fill-rule="evenodd" stroke="none"/>
      <path d="M15.05 31.75 L15.05 31.7 15.1 31.7 15.05 31.75 M19.7 32.0 L19.7 31.95 19.75 32.0 19.85 32.1 19.8 32.15 19.7 32.0 M21.3 31.85 L21.35 31.95 21.45 31.85 21.65 31.95 22.2 32.65 21.4 32.2 21.25 31.95 21.3 31.85 M22.75 31.7 L23.2 31.5 23.35 31.55 23.95 32.1 24.35 32.55 24.5 32.75 24.45 32.75 24.25 32.7 24.2 32.7 Q22.8 31.95 22.75 31.75 L22.75 31.7 M23.9 31.75 Q23.85 31.45 23.95 31.35 L24.05 31.35 24.25 32.0 24.3 32.0 24.35 32.05 24.35 32.1 24.15 31.95 23.9 31.75 M32.15 28.75 L32.25 28.75 32.35 28.65 32.55 28.65 33.25 29.0 32.4 29.0 32.15 28.8 32.15 28.75 M33.45 28.05 L33.9 27.75 34.05 27.75 Q34.4 27.7 35.4 28.25 L35.35 28.25 35.15 28.3 33.45 28.1 33.45 28.05 M36.45 28.85 L35.9 29.25 35.6 29.25 35.45 29.45 35.55 29.05 35.95 28.3 Q36.3 28.2 36.3 28.45 L36.2 28.7 Q36.1 28.9 36.4 28.85 L36.45 28.85 M25.2 33.9 L25.15 33.95 24.55 34.05 24.45 34.0 24.25 33.9 24.1 34.05 24.3 33.65 24.65 33.25 Q24.85 33.05 25.0 33.05 25.3 33.1 25.2 33.35 L25.0 33.6 Q24.9 33.75 25.15 33.9 L25.2 33.9 M11.85 32.1 L11.85 32.05 11.95 32.05 12.25 31.45 12.3 31.45 12.3 32.05 12.05 32.4 11.4 33.3 11.65 32.5 11.85 32.1 M20.4 32.75 L20.45 32.8 21.05 33.45 21.35 33.95 21.2 33.95 21.1 33.9 20.75 33.65 20.55 33.5 19.8 32.8 19.85 32.25 19.85 32.05 19.95 32.2 20.4 32.75 M26.3 31.6 L26.3 31.55 26.4 31.5 Q26.4 31.35 26.35 31.5 L26.3 30.85 26.4 30.8 26.65 31.3 26.65 31.75 26.55 32.85 26.4 32.0 26.3 31.6" fill="#d4a7a7" fill-rule="evenodd" stroke="none"/>
      <path d="M15.85 32.25 L15.85 32.1 15.95 32.25 16.05 32.5 16.05 32.55 16.15 33.1 16.1 33.75 16.05 33.9 15.85 34.35 15.6 35.25 16.35 35.05 Q17.5 33.95 18.1 33.9 L18.35 33.9 18.25 33.7 18.15 33.6 17.9 33.3 18.6 33.9 18.55 33.85 18.55 34.0 17.85 35.05 17.75 34.75 Q17.65 34.55 16.8 34.95 L16.15 35.2 15.25 35.35 14.95 35.2 15.0 35.1 15.4 34.65 15.45 34.5 15.4 34.55 14.85 34.75 14.6 34.85 14.25 35.0 14.05 35.05 14.0 35.1 13.9 34.9 13.75 34.7 13.75 34.45 13.1 33.6 13.15 33.6 13.1 33.45 13.1 33.6 Q13.0 33.95 12.8 33.7 12.55 33.35 12.85 32.75 L12.9 32.15 12.9 31.85 Q13.2 32.2 13.15 33.4 L13.85 32.7 14.85 32.4 15.1 32.4 15.2 32.45 15.4 32.55 15.3 32.75 15.1 33.05 Q14.9 33.25 15.45 33.5 L15.75 33.9 15.75 34.05 15.8 33.9 15.85 33.7 15.9 33.3 16.0 32.45 15.85 32.4 15.8 32.35 15.85 32.25 M20.1 31.95 L20.35 32.0 20.65 31.95 21.75 33.1 Q22.1 33.4 21.95 34.0 L21.95 34.15 21.9 34.1 21.35 33.35 21.5 33.25 Q20.8 32.35 20.05 32.15 L19.95 32.2 20.05 32.1 20.1 31.95 M30.05 29.75 L30.1 29.75 30.45 30.2 30.9 31.4 31.15 32.35 31.7 31.75 Q32.0 30.2 32.6 29.9 L32.8 29.75 Q31.85 29.25 31.15 29.4 L31.05 29.45 31.1 29.35 31.1 29.2 31.35 29.15 31.65 29.0 Q32.25 29.05 33.0 29.5 33.4 29.6 33.4 30.15 33.5 30.75 33.9 31.0 L34.05 30.6 33.8 29.9 33.55 29.1 Q33.55 28.75 34.15 28.7 34.75 28.6 34.7 29.45 L34.9 30.2 34.6 30.9 33.7 31.4 33.8 31.05 33.45 31.45 33.2 31.45 33.2 31.5 33.15 31.5 33.05 31.55 33.25 30.7 33.25 30.35 33.2 30.55 33.15 31.2 32.95 31.65 33.05 31.65 32.4 32.25 31.2 32.65 31.05 32.6 30.9 32.6 30.55 32.65 30.5 32.55 30.65 31.75 30.3 32.3 Q29.85 32.7 29.9 32.85 L29.7 32.95 29.7 33.0 29.5 32.9 29.15 32.8 28.9 33.15 28.4 33.45 28.25 33.4 28.05 33.45 Q27.75 33.45 27.6 33.7 L27.75 33.35 27.55 33.0 27.35 32.6 Q27.3 32.4 27.65 32.35 L28.2 32.2 28.1 32.1 27.7 32.1 Q27.5 32.05 27.5 31.65 L27.2 31.05 27.1 30.85 Q27.5 31.0 28.1 32.0 L28.3 31.05 Q28.85 30.15 29.2 30.15 L29.55 30.1 29.6 30.3 29.55 30.7 Q29.5 30.95 30.1 30.95 30.5 30.95 30.65 31.25 L30.4 30.55 30.05 29.75 M26.95 34.15 L26.5 33.85 25.6 33.65 25.4 33.7 25.55 33.4 25.65 32.95 Q25.35 33.05 25.0 32.75 L24.35 32.1 24.35 32.05 24.65 32.25 25.0 32.4 25.35 32.6 26.2 33.05 26.65 33.4 26.55 33.15 26.85 33.6 26.9 33.65 26.9 33.7 26.95 34.0 26.95 34.15 M25.15 33.95 L25.0 34.35 24.8 34.5 24.75 34.5 24.7 34.45 24.65 34.5 24.6 34.5 24.6 34.4 24.55 34.3 24.45 34.0 24.55 34.05 25.15 33.95 M23.5 34.55 Q22.95 34.15 22.75 34.7 L22.2 35.5 22.2 35.4 22.25 35.0 22.4 34.75 22.45 34.45 22.5 34.35 22.45 34.35 22.35 33.9 Q22.25 33.35 22.4 32.85 22.55 32.5 23.1 32.7 23.75 32.8 23.4 33.75 23.2 34.3 23.5 34.55 M20.05 35.9 Q19.1 35.45 18.95 35.65 18.75 35.85 18.55 35.85 L18.8 35.65 18.9 35.45 19.0 35.3 19.0 35.25 Q19.25 34.9 19.1 34.55 L19.3 33.75 20.05 33.7 20.4 34.0 20.15 34.6 20.1 34.75 19.7 35.0 19.6 35.45 20.05 35.9 M11.05 34.35 L10.7 33.9 9.3 33.8 9.0 33.85 8.95 33.8 9.0 33.75 8.9 33.75 8.8 33.45 8.95 33.2 8.95 33.15 9.2 32.95 9.35 32.85 9.8 32.7 11.1 32.25 11.85 32.1 11.7 32.2 11.35 33.0 11.25 33.55 11.35 33.95 11.2 34.25 11.15 34.3 11.05 34.35 M26.3 31.6 L26.25 31.75 26.3 32.5 26.15 32.15 26.0 31.95 26.3 31.6 M26.45 33.0 L26.55 33.15 26.2 32.8 26.45 33.0" fill="#bd9f9f" fill-rule="evenodd" stroke="none"/>
      <path d="M30.1 29.75 L30.15 29.7 31.1 29.2 31.1 29.35 31.05 29.45 31.15 29.4 Q31.85 29.25 32.8 29.75 L32.6 29.9 Q32.0 30.2 31.7 31.75 L31.15 32.35 30.9 31.4 30.45 30.2 30.1 29.75" fill="url(#gradient36)" fill-rule="evenodd" stroke="none"/>
      <path d="M33.15 31.5 L33.05 31.65 32.95 31.65 33.15 31.2 33.2 30.55 33.25 30.35 33.25 30.7 33.05 31.55 33.15 31.5 M30.55 32.65 L30.2 32.75 29.7 32.95 29.9 32.85 Q29.85 32.7 30.3 32.3 L30.65 31.75 30.5 32.55 30.55 32.65 M24.75 34.5 L24.65 34.6 24.65 34.5 24.7 34.45 24.75 34.5 M17.7 35.6 L17.6 35.65 17.5 35.6 17.6 35.5 Q17.65 35.4 17.75 35.4 L17.9 35.35 18.2 34.95 18.3 34.8 18.45 34.7 18.25 34.95 17.75 35.5 17.65 35.55 17.7 35.6 M14.95 35.2 L14.6 35.15 14.5 35.15 14.05 35.05 14.25 35.0 14.6 34.85 14.85 34.75 15.4 34.55 15.45 34.5 15.4 34.65 15.0 35.1 14.95 35.2 M12.25 35.1 L12.15 35.1 12.15 35.05 12.25 35.0 12.25 35.05 12.25 35.1 M8.95 33.8 L8.85 33.8 8.9 33.75 9.0 33.75 8.95 33.8 M8.95 33.15 L9.55 32.65 9.8 32.45 9.45 32.75 9.35 32.85 9.2 32.95 8.95 33.15" fill="#eec0c0" fill-rule="evenodd" stroke="none"/>
      <path d="M24.7 31.25 L24.65 31.1 26.4 30.8 26.45 30.8 26.65 30.75 26.85 30.75 26.95 30.7 27.2 30.6 27.05 30.6 28.75 30.1 30.05 29.75 30.4 30.55 30.65 31.25 Q30.5 30.95 30.1 30.95 29.5 30.95 29.55 30.7 L29.6 30.3 29.55 30.1 29.2 30.15 Q28.85 30.15 28.3 31.05 L28.1 32.0 Q27.5 31.0 27.1 30.85 L27.2 31.05 27.5 31.65 Q27.5 32.05 27.7 32.1 L28.1 32.1 28.2 32.2 27.65 32.35 Q27.3 32.4 27.35 32.6 L27.55 33.0 27.75 33.35 27.6 33.7 27.3 34.0 27.15 34.15 27.05 34.15 26.95 34.15 26.95 34.0 26.9 33.7 26.9 33.65 26.85 33.6 26.55 33.15 26.45 33.0 26.5 33.0 26.4 32.75 26.3 32.5 26.25 31.75 26.3 31.6 26.4 32.0 26.55 32.85 26.65 31.75 26.65 31.3 26.4 30.8 26.3 30.85 26.35 31.5 Q26.4 31.35 26.4 31.5 L26.3 31.55 26.3 31.6 26.0 31.95 25.7 31.05 24.7 31.25" fill="url(#gradient37)" fill-rule="evenodd" stroke="none"/>
      <path d="M23.95 31.35 L24.7 31.25 25.7 31.05 26.0 31.95 26.15 32.15 26.3 32.5 26.4 32.75 26.5 33.0 26.45 33.0 26.2 32.8 26.55 33.15 26.65 33.4 26.2 33.05 25.35 32.6 25.0 32.4 24.65 32.25 24.35 32.05 24.3 32.0 24.25 32.0 24.05 31.35 23.95 31.35" fill="url(#gradient38)" fill-rule="evenodd" stroke="none"/>
      <path d="M15.2 32.15 L15.65 32.25 15.85 32.25 15.8 32.35 15.85 32.4 15.2 32.25 15.2 32.15 M15.95 32.25 L16.0 32.25 16.3 32.1 16.3 32.4 16.1 32.45 16.05 32.5 15.95 32.25 M16.6 32.05 L17.2 31.9 17.3 31.95 17.65 32.0 18.35 32.05 18.95 32.05 19.0 32.05 19.05 32.05 19.7 32.0 19.8 32.15 19.15 32.8 19.1 32.8 19.0 32.8 18.8 32.75 18.55 32.75 18.7 32.85 19.1 33.45 18.85 33.65 18.5 33.35 18.5 33.4 Q18.85 33.5 18.85 34.3 L18.6 33.9 17.9 33.3 17.1 32.75 17.0 32.75 17.1 32.65 17.2 32.55 16.6 32.05" fill="url(#gradient39)" fill-rule="evenodd" stroke="none"/>
      <path d="M19.75 32.0 L20.1 31.95 20.05 32.1 19.95 32.2 20.05 32.15 Q20.8 32.35 21.5 33.25 L21.35 33.35 21.2 33.25 20.65 32.75 20.6 32.7 20.45 32.7 20.4 32.75 19.95 32.2 19.85 32.05 19.85 32.1 19.75 32.0" fill="url(#gradient40)" fill-rule="evenodd" stroke="none"/>
      <path d="M20.65 31.95 L21.2 31.8 21.3 31.85 21.25 31.95 21.4 32.2 22.2 32.65 21.65 31.95 21.45 31.85 21.75 31.85 22.75 31.7 22.75 31.75 Q22.8 31.95 24.2 32.7 L24.25 32.7 24.45 32.75 24.5 32.75 24.35 32.55 23.95 32.1 23.35 31.55 23.2 31.5 23.35 31.5 23.35 31.45 23.5 31.45 23.9 31.75 24.15 31.95 24.35 32.1 25.0 32.75 Q25.35 33.05 25.65 32.95 L25.55 33.4 25.4 33.7 25.2 33.9 25.15 33.9 Q24.9 33.75 25.0 33.6 L25.2 33.35 Q25.3 33.1 25.0 33.05 24.85 33.05 24.65 33.25 L24.3 33.65 24.1 34.05 24.05 34.1 24.05 34.2 23.6 34.2 23.5 34.2 23.4 34.05 23.55 34.6 23.5 34.55 Q23.2 34.3 23.4 33.75 23.75 32.8 23.1 32.7 22.55 32.5 22.4 32.85 22.25 33.35 22.35 33.9 L22.45 34.35 21.95 34.15 21.95 34.0 Q22.1 33.4 21.75 33.1 L20.65 31.95 M22.45 34.45 L22.4 34.75 22.25 35.0 22.3 34.8 22.35 34.7 22.45 34.45" fill="url(#gradient41)" fill-rule="evenodd" stroke="none"/>
      <path d="M9.55 32.65 L9.7 32.4 10.05 31.85 10.2 31.45 12.3 31.45 12.35 31.5 12.6 31.55 12.75 31.65 12.85 31.7 13.15 31.75 13.1 31.7 14.7 32.15 14.95 31.95 15.2 32.15 15.2 32.25 15.85 32.4 16.0 32.45 15.9 33.3 15.85 33.7 15.8 33.9 15.75 34.05 15.75 33.9 15.45 33.5 Q14.9 33.25 15.1 33.05 L15.3 32.75 15.4 32.55 15.2 32.45 15.1 32.4 14.85 32.4 13.85 32.7 13.15 33.4 Q13.2 32.2 12.9 31.85 L12.9 32.15 12.85 32.75 Q12.55 33.35 12.8 33.7 13.0 33.95 13.1 33.6 L13.1 33.45 13.15 33.6 13.1 33.6 13.75 34.45 13.75 34.7 13.55 35.0 12.75 35.1 12.25 35.1 12.25 35.05 12.25 35.0 12.15 35.05 12.15 35.1 Q11.0 35.0 11.0 34.5 L11.05 34.45 11.05 34.35 11.15 34.3 11.2 34.25 11.35 33.95 11.25 33.55 11.35 33.0 11.7 32.2 11.85 32.1 11.1 32.25 9.8 32.7 9.35 32.85 9.45 32.75 9.8 32.45 9.55 32.65 M11.85 32.1 L11.65 32.5 11.4 33.3 12.05 32.4 12.3 32.05 12.3 31.45 12.25 31.45 11.95 32.05 11.85 32.05 11.85 32.1" fill="url(#gradient42)" fill-rule="evenodd" stroke="none"/>
      <path d="M22.2 35.5 L21.9 35.35 Q21.65 35.1 20.7 35.95 L20.25 35.95 20.05 35.9 19.6 35.45 19.7 35.0 20.1 34.75 20.15 34.6 20.4 34.0 20.05 33.7 19.3 33.75 19.1 34.55 Q19.25 34.9 19.0 35.25 L19.0 35.3 18.9 35.45 18.8 35.65 18.55 35.85 18.3 35.8 18.15 35.7 18.0 35.7 17.8 35.55 17.75 35.6 17.7 35.6 17.65 35.55 17.75 35.5 18.25 34.95 18.45 34.7 18.3 34.8 18.2 34.95 17.9 35.35 17.75 35.4 Q17.65 35.4 17.6 35.5 L17.5 35.6 17.6 35.65 17.25 35.7 17.5 35.4 17.7 35.25 17.85 35.05 18.55 34.0 18.55 33.85 18.6 33.9 18.85 34.3 Q18.85 33.5 18.5 33.4 L18.5 33.35 18.85 33.65 19.1 33.45 18.7 32.85 18.55 32.75 18.8 32.75 19.0 32.8 19.1 32.8 19.15 32.8 19.8 32.15 19.85 32.1 19.85 32.05 19.85 32.25 19.8 32.8 20.55 33.5 20.75 33.65 21.1 33.9 21.2 33.95 21.35 33.95 21.05 33.45 20.45 32.8 20.4 32.75 20.45 32.7 20.6 32.7 20.65 32.75 21.2 33.25 21.35 33.35 21.9 34.1 21.95 34.15 22.45 34.35 22.5 34.35 22.45 34.45 22.35 34.7 22.3 34.8 22.25 35.0 22.2 35.4 22.2 35.5 M20.6 36.05 L20.55 36.05 20.6 36.05" fill="url(#gradient43)" fill-rule="evenodd" stroke="none"/>
      <path d="M16.3 32.1 L16.5 32.05 16.6 32.05 17.2 32.55 17.1 32.65 17.0 32.75 17.1 32.75 17.9 33.3 18.15 33.6 18.25 33.7 18.35 33.9 18.1 33.9 Q17.5 33.95 16.35 35.05 L15.6 35.25 15.85 34.35 16.05 33.9 16.1 33.75 16.15 33.1 16.05 32.55 16.05 32.5 16.1 32.45 16.3 32.4 16.3 32.1" fill="url(#gradient44)" fill-rule="evenodd" stroke="none"/>
      <path d="M-10.75 28.85 L-11.15 29.65 -11.4 30.35 Q-11.25 30.05 -10.85 30.05 -10.25 30.1 -10.3 29.85 L-10.35 29.45 -10.3 29.25 -9.95 29.3 Q-9.6 29.3 -9.05 30.2 L-8.85 31.15 Q-8.25 30.1 -7.8 30.0 L-7.95 30.25 -8.25 30.8 -8.45 31.25 -8.85 31.25 -8.95 31.35 -8.4 31.5 Q-8.1 31.6 -8.15 31.8 L-8.35 32.15 -8.55 32.5 -8.4 32.85 Q-8.55 32.6 -8.85 32.6 L-9.05 32.55 -9.2 32.6 -9.7 32.3 -9.95 31.95 -10.3 32.05 -10.5 32.15 -10.5 32.1 -10.7 31.95 Q-10.65 31.8 -11.05 31.4 L-11.4 30.85 -11.3 31.65 -11.35 31.75 -11.7 31.7 -11.85 31.7 -12.0 31.75 Q-12.55 31.75 -13.15 31.3 L-13.8 30.7 -13.7 30.7 -13.9 30.25 -13.95 29.6 -14.0 29.4 -14.0 29.75 -13.8 30.6 -13.9 30.55 -13.95 30.55 -13.95 30.5 -14.2 30.5 -14.55 30.1 -14.45 30.45 -15.35 29.9 -15.65 29.2 Q-15.4 29.0 -15.4 28.45 -15.45 27.6 -14.85 27.75 -14.25 27.8 -14.25 28.15 L-14.5 28.95 -14.8 29.65 -14.65 30.05 Q-14.25 29.8 -14.15 29.2 -14.1 28.65 -13.7 28.55 -12.95 28.1 -12.35 28.1 L-12.05 28.25 -11.8 28.3 -11.8 28.45 -11.75 28.55 -11.85 28.5 -13.5 28.8 -13.3 28.95 Q-12.75 29.3 -12.45 30.85 L-11.9 31.45 Q-11.7 31.05 -11.65 30.5 -11.6 29.95 -11.2 29.3 L-10.8 28.85 -10.75 28.85 M-7.6 33.1 L-7.65 33.0 Q-7.7 32.5 -7.35 32.35 L-7.1 31.8 -7.0 30.95 -7.05 30.8 -6.5 31.35 -5.65 32.4 -5.3 32.95 -5.2 33.25 -5.2 33.3 -5.25 33.55 -5.45 33.75 -5.5 33.7 -5.55 33.75 -5.6 33.75 -5.8 33.6 Q-6.6 32.8 -7.05 32.95 L-7.6 33.1" fill="#bd9f9f" fill-rule="evenodd" stroke="none"/>
      <path d="M-7.05 30.8 L-7.15 31.2 -7.35 32.05 -7.4 30.95 -7.4 30.5 -7.15 30.0 -7.05 30.05 -7.1 30.7 Q-7.15 30.55 -7.15 30.7 L-7.05 30.75 -7.05 30.8 M-16.15 28.45 L-16.3 28.25 -16.6 28.25 Q-16.95 28.15 -17.15 27.85 L-17.1 27.85 -16.9 27.7 -17.0 27.45 Q-17.0 27.2 -16.65 27.3 L-16.25 28.05 -16.15 28.45 M-14.55 26.8 L-14.15 27.1 -14.15 27.15 -15.85 27.3 -16.05 27.25 -16.1 27.25 Q-15.05 26.75 -14.7 26.8 L-14.55 26.8 M-13.05 27.7 L-12.95 27.8 -12.85 27.8 -12.85 27.85 -13.1 28.05 -13.95 28.05 -13.25 27.7 -13.05 27.7" fill="#d4a7a7" fill-rule="evenodd" stroke="none"/>
      <path d="M-5.4 32.45 L-5.2 33.25 -5.3 32.95 -5.4 32.6 -5.55 32.15 -5.4 32.45 M-5.45 33.75 L-5.45 33.85 -5.55 33.75 -5.5 33.7 -5.45 33.75 M-10.5 32.1 L-11.0 31.85 -11.35 31.75 -11.3 31.65 -11.4 30.85 -11.05 31.4 Q-10.65 31.8 -10.7 31.95 L-10.5 32.1 M-13.8 30.7 L-13.9 30.55 -13.8 30.6 -14.0 29.75 -14.0 29.4 -13.95 29.6 -13.9 30.25 -13.7 30.7 -13.8 30.7" fill="#eec0c0" fill-rule="evenodd" stroke="none"/>
      <path d="M-10.75 28.85 L-9.5 29.25 -7.8 29.8 -7.95 29.8 -7.7 29.9 -7.6 29.95 -7.4 29.95 -7.2 30.0 -7.15 30.0 -7.4 30.5 -7.4 30.95 -7.35 32.05 -7.15 31.2 -7.05 30.8 -7.0 30.95 -7.1 31.8 -7.35 32.35 Q-7.7 32.5 -7.65 33.0 L-7.6 33.1 -7.85 33.35 -7.95 33.35 -8.1 33.2 -8.4 32.85 -8.55 32.5 -8.35 32.15 -8.15 31.8 Q-8.1 31.6 -8.4 31.5 L-8.95 31.35 -8.85 31.25 -8.45 31.25 -8.25 30.8 -7.95 30.25 -7.8 30.0 Q-8.25 30.1 -8.85 31.15 L-9.05 30.2 Q-9.6 29.3 -9.95 29.3 L-10.3 29.25 -10.35 29.45 -10.3 29.85 Q-10.25 30.1 -10.85 30.05 -11.25 30.05 -11.4 30.35 L-11.15 29.65 -10.75 28.85 M-7.15 30.0 L-5.4 30.35 -5.4 31.55 -5.4 32.2 -5.4 32.45 -5.55 32.15 -5.4 32.6 -5.3 32.95 -5.65 32.4 -6.5 31.35 -7.05 30.8 -7.05 30.75 -7.15 30.7 Q-7.15 30.55 -7.1 30.7 L-7.05 30.05 -7.15 30.0" fill="url(#gradient45)" fill-rule="evenodd" stroke="none"/>
      <path d="M-14.2 30.5 L-14.3 30.45 -14.45 30.45 -14.55 30.1 -14.2 30.5 M-15.65 29.2 L-15.5 28.7 -15.65 28.7 -15.75 28.7 -16.15 28.55 -16.15 28.5 -16.15 28.45 -16.25 28.05 -16.65 27.3 Q-17.0 27.2 -17.0 27.45 L-16.9 27.7 -17.1 27.85 -17.15 27.85 -17.3 27.35 -17.25 26.95 -16.6 27.05 -15.55 26.7 -14.75 26.6 -14.65 26.65 -14.65 26.75 -14.55 26.8 -14.7 26.8 Q-15.05 26.75 -16.1 27.25 L-16.05 27.25 -15.85 27.3 -14.15 27.15 -14.15 27.1 -13.3 27.6 -13.05 27.7 -13.25 27.7 -13.95 28.05 -13.1 28.05 -12.85 27.85 -12.85 27.8 -12.75 27.8 -12.35 28.1 Q-12.95 28.1 -13.7 28.55 -14.1 28.65 -14.15 29.2 -14.25 29.8 -14.65 30.05 L-14.8 29.65 -14.5 28.95 -14.25 28.15 Q-14.25 27.8 -14.85 27.75 -15.45 27.6 -15.4 28.45 -15.4 29.0 -15.65 29.2" fill="url(#gradient46)" fill-rule="evenodd" stroke="none"/>
      <path d="M-11.8 28.3 L-10.85 28.8 -10.8 28.85 -11.2 29.3 Q-11.6 29.95 -11.65 30.5 -11.7 31.05 -11.9 31.45 L-12.45 30.85 Q-12.75 29.3 -13.3 28.95 L-13.5 28.8 -11.85 28.5 -11.75 28.55 -11.8 28.45 -11.8 28.3" fill="url(#gradient47)" fill-rule="evenodd" stroke="none"/>
      <path d="M-0.75 2.85 Q-1.3 1.85 -1.3 0.35 L-1.25 -0.55 -0.95 -1.05 -0.3 2.5 -0.7 2.8 -0.75 2.85 M-0.25 2.5 L2.8 0.5 2.85 0.95 -0.05 3.0 0.05 3.35 0.4 4.6 1.1 6.4 1.1 6.45 0.55 6.55 -0.45 3.95 -0.6 3.4 -0.1 3.05 -0.15 2.95 -0.25 2.5 M-0.7 3.45 L-3.25 5.25 -3.35 4.95 -3.25 4.85 -2.95 4.55 -0.8 2.85 -0.7 3.45 M20.5 3.1 L23.35 4.9 Q23.8 5.3 23.5 5.45 L23.05 5.2 21.55 4.2 20.4 3.4 20.1 4.75 19.25 4.85 19.45 4.55 19.8 3.5 19.9 3.15 16.55 1.5 16.5 0.65 20.05 2.75 21.15 -0.3 21.35 0.45 20.5 3.1 20.05 2.75 19.9 3.15 20.4 3.4 20.5 3.1 M15.95 1.45 L13.85 3.65 13.8 3.7 15.85 5.05 16.0 5.2 15.25 5.35 13.4 4.2 11.85 6.0 11.6 6.25 10.85 6.55 10.35 6.85 12.75 4.0 12.9 3.85 9.6 1.75 9.6 0.95 13.35 3.4 15.8 0.85 15.95 1.45 M12.9 3.85 L13.4 4.2 13.8 3.7 13.35 3.4 12.9 3.85 M9.1 1.5 L5.85 3.8 7.35 6.1 8.55 7.9 8.45 7.95 Q7.9 8.0 7.6 7.65 L7.0 6.75 5.3 4.15 2.05 6.5 2.0 6.55 1.75 6.65 1.75 6.7 1.65 6.5 Q1.65 6.2 5.05 3.75 3.7 1.75 3.5 1.05 L3.7 0.5 5.6 3.35 9.0 1.0 9.1 1.5 M5.6 3.35 L5.1 3.7 5.05 3.75 5.2 4.0 5.3 4.15 5.85 3.8 5.6 3.35" fill="#9a7e21" fill-rule="evenodd" stroke="none"/>
      <path d="M-0.3 2.5 L-0.25 2.5 -0.15 2.95 -0.1 3.05 -0.6 3.4 -0.7 3.45 -0.8 2.85 -0.75 2.85 -0.7 2.95 -0.7 2.8 -0.3 2.5 M20.5 3.1 L20.4 3.4 19.9 3.15 20.05 2.75 20.5 3.1 M12.9 3.85 L13.35 3.4 13.8 3.7 13.4 4.2 12.9 3.85 M5.6 3.35 L5.85 3.8 5.3 4.15 5.2 4.0 5.05 3.75 5.1 3.7 5.6 3.35" fill="#725c15" fill-rule="evenodd" stroke="none"/>
    </g>
    <radialGradient cx="0" cy="0" gradientTransform="matrix(2.0E-4, 0.0, 0.0, 2.0E-4, 24.9, 7.0)" gradientUnits="userSpaceOnUse" id="gradient0" r="819.2" spreadMethod="pad">
      <stop offset="0.0" stop-color="#f0dfcf"/>
      <stop offset="1.0" stop-color="#9a938c"/>
    </radialGradient>
    <radialGradient cx="0" cy="0" gradientTransform="matrix(0.0244, 0.0, 0.0, 0.0194, 24.85, 19.35)" gradientUnits="userSpaceOnUse" id="gradient1" r="819.2" spreadMethod="pad">
      <stop offset="0.0" stop-color="#f3ede8"/>
      <stop offset="1.0" stop-color="#f0d2b5"/>
    </radialGradient>
    <radialGradient cx="0" cy="0" gradientTransform="matrix(0.0153, 0.0, 0.0, 0.0153, -9.0, 16.8)" gradientUnits="userSpaceOnUse" id="gradient2" r="819.2" spreadMethod="pad">
      <stop offset="0.0" stop-color="#f3ede8"/>
      <stop offset="1.0" stop-color="#f0d2b5"/>
    </radialGradient>
    <radialGradient cx="0" cy="0" gradientTransform="matrix(0.0268, 0.0082, -0.0025, 0.0081, -9.6, 27.25)" gradientUnits="userSpaceOnUse" id="gradient3" r="819.2" spreadMethod="pad">
      <stop offset="0.0" stop-color="#f0dfcf"/>
      <stop offset="1.0" stop-color="#9a938c"/>
    </radialGradient>
    <radialGradient cx="0" cy="0" gradientTransform="matrix(0.0383, -0.0082, 0.0032, 0.015, 21.95, 28.15)" gradientUnits="userSpaceOnUse" id="gradient4" r="819.2" spreadMethod="pad">
      <stop offset="0.0" stop-color="#f0dfcf"/>
      <stop offset="1.0" stop-color="#9a938c"/>
    </radialGradient>
    <radialGradient cx="0" cy="0" gradientTransform="matrix(0.0176, 0.0, 0.0, 0.0176, 12.1, 0.6)" gradientUnits="userSpaceOnUse" id="gradient5" r="819.2" spreadMethod="pad">
      <stop offset="0.0" stop-color="#9a5718"/>
      <stop offset="1.0" stop-color="#69390c"/>
    </radialGradient>
    <radialGradient cx="0" cy="0" gradientTransform="matrix(0.0047, 0.0, 0.0, 0.0047, 26.3, 9.9)" gradientUnits="userSpaceOnUse" id="gradient6" r="819.2" spreadMethod="pad">
      <stop offset="0.0" stop-color="#d0bfba"/>
      <stop offset="1.0" stop-color="#e9ae9c"/>
    </radialGradient>
    <radialGradient cx="0" cy="0" gradientTransform="matrix(0.0094, 0.0, 0.0, 0.0094, 30.4, 19.4)" gradientUnits="userSpaceOnUse" id="gradient7" r="819.2" spreadMethod="pad">
      <stop offset="0.0" stop-color="#d0bfba"/>
      <stop offset="1.0" stop-color="#e9ae9c"/>
    </radialGradient>
    <radialGradient cx="0" cy="0" gradientTransform="matrix(0.0096, 0.0, 0.0, 0.0096, 27.8, 20.15)" gradientUnits="userSpaceOnUse" id="gradient8" r="819.2" spreadMethod="pad">
      <stop offset="0.0" stop-color="#d0bfba"/>
      <stop offset="1.0" stop-color="#e9ae9c"/>
    </radialGradient>
    <radialGradient cx="0" cy="0" gradientTransform="matrix(0.0093, 0.0, 0.0, 0.0093, 24.5, 20.95)" gradientUnits="userSpaceOnUse" id="gradient9" r="819.2" spreadMethod="pad">
      <stop offset="0.0" stop-color="#d0bfba"/>
      <stop offset="1.0" stop-color="#e9ae9c"/>
    </radialGradient>
    <radialGradient cx="0" cy="0" gradientTransform="matrix(0.0096, 0.0, 0.0, 0.0096, 21.0, 21.8)" gradientUnits="userSpaceOnUse" id="gradient10" r="819.2" spreadMethod="pad">
      <stop offset="0.0" stop-color="#d0bfba"/>
      <stop offset="1.0" stop-color="#e9ae9c"/>
    </radialGradient>
    <radialGradient cx="0" cy="0" gradientTransform="matrix(0.0096, 0.0, 0.0, 0.0096, 10.05, 22.5)" gradientUnits="userSpaceOnUse" id="gradient11" r="819.2" spreadMethod="pad">
      <stop offset="0.0" stop-color="#d0bfba"/>
      <stop offset="1.0" stop-color="#e9ae9c"/>
    </radialGradient>
    <radialGradient cx="0" cy="0" gradientTransform="matrix(0.0095, 0.0, 0.0, 0.0095, 17.35, 22.15)" gradientUnits="userSpaceOnUse" id="gradient12" r="819.2" spreadMethod="pad">
      <stop offset="0.0" stop-color="#d0bfba"/>
      <stop offset="1.0" stop-color="#e9ae9c"/>
    </radialGradient>
    <radialGradient cx="0" cy="0" gradientTransform="matrix(0.0096, 0.0, 0.0, 0.0096, 13.65, 22.2)" gradientUnits="userSpaceOnUse" id="gradient13" r="819.2" spreadMethod="pad">
      <stop offset="0.0" stop-color="#d0bfba"/>
      <stop offset="1.0" stop-color="#e9ae9c"/>
    </radialGradient>
    <radialGradient cx="0" cy="0" gradientTransform="matrix(0.0096, 0.0, 0.0, 0.0096, -3.7, 21.45)" gradientUnits="userSpaceOnUse" id="gradient14" r="819.2" spreadMethod="pad">
      <stop offset="0.0" stop-color="#d0bfba"/>
      <stop offset="1.0" stop-color="#e9ae9c"/>
    </radialGradient>
    <radialGradient cx="0" cy="0" gradientTransform="matrix(0.0056, 0.0, 0.0, 0.0056, 0.1, 10.55)" gradientUnits="userSpaceOnUse" id="gradient15" r="819.2" spreadMethod="pad">
      <stop offset="0.0" stop-color="#d0bfba"/>
      <stop offset="1.0" stop-color="#e9ae9c"/>
    </radialGradient>
    <radialGradient cx="0" cy="0" gradientTransform="matrix(0.006, 0.0, 0.0, 0.006, -4.1, 9.15)" gradientUnits="userSpaceOnUse" id="gradient16" r="819.2" spreadMethod="pad">
      <stop offset="0.0" stop-color="#d0bfba"/>
      <stop offset="1.0" stop-color="#e9ae9c"/>
    </radialGradient>
    <radialGradient cx="0" cy="0" gradientTransform="matrix(0.0096, 0.0, 0.0, 0.0096, -9.7, 19.5)" gradientUnits="userSpaceOnUse" id="gradient17" r="819.2" spreadMethod="pad">
      <stop offset="0.0" stop-color="#d0bfba"/>
      <stop offset="1.0" stop-color="#e9ae9c"/>
    </radialGradient>
    <radialGradient cx="0" cy="0" gradientTransform="matrix(0.0059, 0.0, 0.0, 0.0059, -1.85, 9.9)" gradientUnits="userSpaceOnUse" id="gradient18" r="819.2" spreadMethod="pad">
      <stop offset="0.0" stop-color="#d0bfba"/>
      <stop offset="1.0" stop-color="#e9ae9c"/>
    </radialGradient>
    <radialGradient cx="0" cy="0" gradientTransform="matrix(0.0093, 0.0, 0.0, 0.0093, -6.8, 20.6)" gradientUnits="userSpaceOnUse" id="gradient19" r="819.2" spreadMethod="pad">
      <stop offset="0.0" stop-color="#d0bfba"/>
      <stop offset="1.0" stop-color="#e9ae9c"/>
    </radialGradient>
    <radialGradient cx="0" cy="0" gradientTransform="matrix(0.0192, 0.0, 0.0, 0.0151, 20.35, 24.1)" gradientUnits="userSpaceOnUse" id="gradient20" r="819.2" spreadMethod="pad">
      <stop offset="0.0" stop-color="#a6857b"/>
      <stop offset="1.0" stop-color="#e2a491"/>
    </radialGradient>
    <radialGradient cx="0" cy="0" gradientTransform="matrix(0.0067, 0.0, 0.0, 0.0067, -7.75, 22.45)" gradientUnits="userSpaceOnUse" id="gradient21" r="819.2" spreadMethod="pad">
      <stop offset="0.0" stop-color="#a6857b"/>
      <stop offset="1.0" stop-color="#e2a491"/>
    </radialGradient>
    <radialGradient cx="0" cy="0" gradientTransform="matrix(0.0175, 0.0, 0.0, 0.0175, 16.7, 11.0)" gradientUnits="userSpaceOnUse" id="gradient22" r="819.2" spreadMethod="pad">
      <stop offset="0.0" stop-color="#9a5718"/>
      <stop offset="1.0" stop-color="#80460f"/>
    </radialGradient>
    <radialGradient cx="0" cy="0" gradientTransform="matrix(0.0062, 0.0, 0.0, 0.0062, 25.3, 15.95)" gradientUnits="userSpaceOnUse" id="gradient23" r="819.2" spreadMethod="pad">
      <stop offset="0.0" stop-color="#8c3c3c"/>
      <stop offset="1.0" stop-color="#632424"/>
    </radialGradient>
    <radialGradient cx="0" cy="0" gradientTransform="matrix(0.0058, 0.0, 0.0, 0.0058, 25.85, 14.25)" gradientUnits="userSpaceOnUse" id="gradient24" r="819.2" spreadMethod="pad">
      <stop offset="0.0" stop-color="#8c3c3c"/>
      <stop offset="1.0" stop-color="#632424"/>
    </radialGradient>
    <radialGradient cx="0" cy="0" gradientTransform="matrix(0.0064, 0.0, 0.0, 0.0064, 23.6, 17.5)" gradientUnits="userSpaceOnUse" id="gradient25" r="819.2" spreadMethod="pad">
      <stop offset="0.0" stop-color="#8c3c3c"/>
      <stop offset="1.0" stop-color="#632424"/>
    </radialGradient>
    <radialGradient cx="0" cy="0" gradientTransform="matrix(0.0054, 0.0, 0.0, 0.0054, 21.3, 18.9)" gradientUnits="userSpaceOnUse" id="gradient26" r="819.2" spreadMethod="pad">
      <stop offset="0.0" stop-color="#8c3c3c"/>
      <stop offset="1.0" stop-color="#632424"/>
    </radialGradient>
    <radialGradient cx="0" cy="0" gradientTransform="matrix(0.0077, 0.0, 0.0, 0.0077, 10.75, 15.05)" gradientUnits="userSpaceOnUse" id="gradient27" r="819.2" spreadMethod="pad">
      <stop offset="0.0" stop-color="#8c3c3c"/>
      <stop offset="1.0" stop-color="#632424"/>
    </radialGradient>
    <radialGradient cx="0" cy="0" gradientTransform="matrix(0.0059, 0.0, 0.0, 0.0059, 16.55, 19.5)" gradientUnits="userSpaceOnUse" id="gradient28" r="819.2" spreadMethod="pad">
      <stop offset="0.0" stop-color="#8c3c3c"/>
      <stop offset="1.0" stop-color="#632424"/>
    </radialGradient>
    <radialGradient cx="0" cy="0" gradientTransform="matrix(0.0057, 0.0, 0.0, 0.0057, 19.25, 19.5)" gradientUnits="userSpaceOnUse" id="gradient29" r="819.2" spreadMethod="pad">
      <stop offset="0.0" stop-color="#8c3c3c"/>
      <stop offset="1.0" stop-color="#632424"/>
    </radialGradient>
    <radialGradient cx="0" cy="0" gradientTransform="matrix(0.007, 0.0, 0.0, 0.007, 13.4, 17.75)" gradientUnits="userSpaceOnUse" id="gradient30" r="819.2" spreadMethod="pad">
      <stop offset="0.0" stop-color="#8c3c3c"/>
      <stop offset="1.0" stop-color="#632424"/>
    </radialGradient>
    <linearGradient gradientTransform="matrix(2.0E-4, -0.0055, 0.0034, 1.0E-4, 5.9, 9.7)" gradientUnits="userSpaceOnUse" id="gradient31" spreadMethod="pad" x1="-819.2" x2="819.2">
      <stop offset="0.0" stop-color="#ffe9e9"/>
      <stop offset="1.0" stop-color="#eec0c0"/>
    </linearGradient>
    <linearGradient gradientTransform="matrix(0.0024, 0.0, 0.0, 0.0027, 0.25, 8.65)" gradientUnits="userSpaceOnUse" id="gradient32" spreadMethod="pad" x1="-819.2" x2="819.2">
      <stop offset="0.0" stop-color="#ffe9e9"/>
      <stop offset="1.0" stop-color="#eec0c0"/>
    </linearGradient>
    <linearGradient gradientTransform="matrix(0.0044, 0.0, 0.0, 0.0031, -3.7, 7.55)" gradientUnits="userSpaceOnUse" id="gradient33" spreadMethod="pad" x1="-819.2" x2="819.2">
      <stop offset="0.0" stop-color="#ffe9e9"/>
      <stop offset="1.0" stop-color="#eec0c0"/>
    </linearGradient>
    <linearGradient gradientTransform="matrix(0.0025, 0.0, 0.0, 0.0021, 25.4, 7.0)" gradientUnits="userSpaceOnUse" id="gradient34" spreadMethod="pad" x1="-819.2" x2="819.2">
      <stop offset="0.0" stop-color="#ffe9e9"/>
      <stop offset="1.0" stop-color="#eec0c0"/>
    </linearGradient>
    <linearGradient gradientTransform="matrix(-0.003, 5.0E-4, 0.0, 0.0023, 34.2, 29.4)" gradientUnits="userSpaceOnUse" id="gradient35" spreadMethod="pad" x1="-819.2" x2="819.2">
      <stop offset="0.0" stop-color="#ffe9e9"/>
      <stop offset="1.0" stop-color="#eec0c0"/>
    </linearGradient>
    <linearGradient gradientTransform="matrix(-0.0017, 3.0E-4, 0.0, 0.0019, 31.45, 30.65)" gradientUnits="userSpaceOnUse" id="gradient36" spreadMethod="pad" x1="-819.2" x2="819.2">
      <stop offset="0.0" stop-color="#ffe9e9"/>
      <stop offset="1.0" stop-color="#eec0c0"/>
    </linearGradient>
    <linearGradient gradientTransform="matrix(-2.0E-4, -0.004, -0.0023, 5.0E-4, 27.6, 32.2)" gradientUnits="userSpaceOnUse" id="gradient37" spreadMethod="pad" x1="-819.2" x2="819.2">
      <stop offset="0.0" stop-color="#ffe9e9"/>
      <stop offset="1.0" stop-color="#eec0c0"/>
    </linearGradient>
    <linearGradient gradientTransform="matrix(-0.0012, -0.0038, 0.0023, -4.0E-4, 23.3, 33.05)" gradientUnits="userSpaceOnUse" id="gradient38" spreadMethod="pad" x1="-819.2" x2="819.2">
      <stop offset="0.0" stop-color="#ffe9e9"/>
      <stop offset="1.0" stop-color="#eec0c0"/>
    </linearGradient>
    <linearGradient gradientTransform="matrix(0.0013, -0.0045, -0.0023, -5.0E-4, 15.75, 33.7)" gradientUnits="userSpaceOnUse" id="gradient39" spreadMethod="pad" x1="-819.2" x2="819.2">
      <stop offset="0.0" stop-color="#ffe9e9"/>
      <stop offset="1.0" stop-color="#eec0c0"/>
    </linearGradient>
    <linearGradient gradientTransform="matrix(-0.0017, -4.0E-4, -7.0E-4, 0.0021, 19.95, 33.7)" gradientUnits="userSpaceOnUse" id="gradient40" spreadMethod="pad" x1="-819.2" x2="819.2">
      <stop offset="0.0" stop-color="#ffe9e9"/>
      <stop offset="1.0" stop-color="#eec0c0"/>
    </linearGradient>
    <linearGradient gradientTransform="matrix(-0.003, -7.0E-4, -8.0E-4, 0.0025, 22.9, 33.55)" gradientUnits="userSpaceOnUse" id="gradient41" spreadMethod="pad" x1="-819.2" x2="819.2">
      <stop offset="0.0" stop-color="#ffe9e9"/>
      <stop offset="1.0" stop-color="#eec0c0"/>
    </linearGradient>
    <linearGradient gradientTransform="matrix(0.002, -0.0035, -0.0022, -8.0E-4, 12.55, 33.3)" gradientUnits="userSpaceOnUse" id="gradient42" spreadMethod="pad" x1="-819.2" x2="819.2">
      <stop offset="0.0" stop-color="#ffe9e9"/>
      <stop offset="1.0" stop-color="#eec0c0"/>
    </linearGradient>
    <linearGradient gradientTransform="matrix(-0.0028, -0.0011, -0.0012, 0.002, 19.6, 34.35)" gradientUnits="userSpaceOnUse" id="gradient43" spreadMethod="pad" x1="-819.2" x2="819.2">
      <stop offset="0.0" stop-color="#ffe9e9"/>
      <stop offset="1.0" stop-color="#eec0c0"/>
    </linearGradient>
    <linearGradient gradientTransform="matrix(-0.0016, -6.0E-4, -0.001, 0.0016, 16.7, 34.0)" gradientUnits="userSpaceOnUse" id="gradient44" spreadMethod="pad" x1="-819.2" x2="819.2">
      <stop offset="0.0" stop-color="#ffe9e9"/>
      <stop offset="1.0" stop-color="#eec0c0"/>
    </linearGradient>
    <linearGradient gradientTransform="matrix(2.0E-4, -0.004, 0.0023, 5.0E-4, -8.35, 31.35)" gradientUnits="userSpaceOnUse" id="gradient45" spreadMethod="pad" x1="-819.2" x2="819.2">
      <stop offset="0.0" stop-color="#ffe9e9"/>
      <stop offset="1.0" stop-color="#eec0c0"/>
    </linearGradient>
    <linearGradient gradientTransform="matrix(0.003, 6.0E-4, -1.0E-4, 0.0023, -14.9, 28.45)" gradientUnits="userSpaceOnUse" id="gradient46" spreadMethod="pad" x1="-819.2" x2="819.2">
      <stop offset="0.0" stop-color="#ffe9e9"/>
      <stop offset="1.0" stop-color="#eec0c0"/>
    </linearGradient>
    <linearGradient gradientTransform="matrix(0.0017, 3.0E-4, -1.0E-4, 0.0019, -12.2, 29.75)" gradientUnits="userSpaceOnUse" id="gradient47" spreadMethod="pad" x1="-819.2" x2="819.2">
      <stop offset="0.0" stop-color="#ffe9e9"/>
      <stop offset="1.0" stop-color="#eec0c0"/>
    </linearGradient>
  </defs>
</svg>
