<svg xmlns="http://www.w3.org/2000/svg" xmlns:ffdec="https://www.free-decompiler.com/flash" xmlns:xlink="http://www.w3.org/1999/xlink" ffdec:objectType="frame" width="45.35" height="23.35"><use ffdec:characterId="1" xlink:href="#a" width="45.35" height="23.35"/><defs><g id="a" fill-rule="evenodd"><path fill="#fff" d="m14.1 16.9 2.9-.1 4.8-.45q2.85-.05 4 .05l3.85.05 3.65-.25 2.25-.45 2.55-.05q1.15.05 2.35-.55l1.25-.55h.05l.15.05.25.2-.8.3q-4.1 1.95-8.55 2.95-1.2.25-2.05.9l.5.45q1.05 1.3 1.8 1.2l1.05-.35q.3-.3.4-1.35l.95.6 1.8.05q.9-.55.95-.9l.05-.7q1.6 1.5 2.7.45Q42 17.4 41.8 17l-.2-.45 1.7.35h.1l.4-.15.35.35 1.15.8-.05.05-.15.15-.1.05-2.9.15.05.15-.05-.05v.7h-.05q-.4 1.05-1.05 1.45l-1.5-.05-.05-.05-.55-.35-.05-.05-.1.5-.85.85-1 .35q-.65.1-1.7-.95l.05.3-.05-.05-.2.75q-1.3 1.25-2.55.15-.65-.6-.65-.15l-.05.05-.3.7-1.1.3q-1.1.25-1.85-.6-.75-.9-.6-.2l-.05-.1-.45.8-.15.15-.85.15q-.55.15-1.25-.3l-1.1-.8v-.05l-.05.05.05-.15-.15.25-.4.35q-1.3 1.2-3.05.3l-.45-.55.15-.55-.9.85-2.85-.15-.35-.75.1-.45-.95.8-2.85-.05-.25-.9v-.15l.25-.4-1.15.55-2.5.1-.2-.2-.5-.65q.15-.3-.1-.25l-1.7.55h-.45q-.7-.15-1.2-.6-.45-.5-.5-1.5l.25-.2-1.3.15q-1.75.1-2.9-.7l-.1-.4 1.05-.7.2-.15.05-.05 2.8.05q.35-.2.7.4l.7 1.45.1.1 2.5-.15.35-.3v.75q1.05 1.45 2.8.75.75-.2 1.25-.8l-.15.8q.45 1.4 2.3 1.25 1.8-.45 2-2.1-1.15-1.15-2.55-1.65M2.2 14.85l.1-.15.25-.05.55.1zm7.45 1.5 1.3.2h-.1zm7.15 3.5q.7 2.05 2.85.9l.95-1.05q.15 1.3 1.75 1.65h.1q1.1-.3 1.55-1.4v-.1q.7 1.85 2.95 1.15.6-.2.75-.95.85 1.35 2.95.85l.65-.8-1.35-.7q-1.15-.75-4.15-.75l-6.35-.55q-1.4-.45-2.5.5v.1z"/><path fill="#d2ecff" d="m42.15 14.85.4.5.15.25.3.2.1.1.7.85-.4.15h-.1l-1.7-.35.2.45q.2.4-.85 1.45-1.1 1.05-2.7-.45l-.05.7q-.05.35-.95.9l-1.8-.05-.95-.6q-.1 1.05-.4 1.35l-1.05.35q-.75.1-1.8-1.2l-.5-.45q.85-.65 2.05-.9 4.45-1 8.55-2.95zm3.1 3.1q-.4.8-1.35.85-1.25.05-1.75-.35l-.05-.15 2.9-.15.1-.05zM42.1 19.1l-.3.9q-.5.85-1.45.85-.65 0-1.1-.35l-.35-.4.55.35.05.05 1.5.05q.65-.4 1.05-1.45zm-3.35 1.45-.25.5q-.5.9-1.2.95l-1.25-.2q-.55-.25-.8-.7l-.05-.3q1.05 1.05 1.7.95l1-.35zM35 21.8q-.35.85-1.2.85-1.15 0-1.6-.5l-.4-.35q0-.45.65.15 1.25 1.1 2.55-.15m-3.55.75v.05q-.3.5-1.35.55-1.1 0-1.6-.55l-.6-.55q-.15-.7.6.2.75.85 1.85.6zm-4.2.35q-.4.35-1.1.35-.85 0-1.45-.5l-.65-.65v.05l-.2.25q-.65.85-1.45.95-.95.1-1.6-.4l-.35-.25q1.75.9 3.05-.3l.4-.35.15-.25-.05.15.05-.05v.05l1.1.8q.7.45 1.25.3zM20 22.15v-.05l-.45.65q-.7.55-1.7.4-1.05-.15-1.45-.85l2.85.15.9-.85zm-3.95-.6-.05-.2-.5.75q-.4.5-1.55.5-1.2-.05-1.55-.65l-.05-.1 2.85.05.95-.8zm-3.95-.75-.45.25q-.55.5-1.4.5-.95 0-1.55-.5l2.5-.1 1.15-.55zM8 20.2l-.1-.1q-.45.45-1.45.45l-.7-.05h.45l1.7-.55q.25-.05.1.25m-3.45-.3-.25-.25-.45-1.1.05-.15-.8.15q-1.65.2-2.45-.35l-.55-.55q1.15.8 2.9.7l1.3-.15-.25.2q.05 1 .5 1.5M1.3 16.35l.4-.3.2-.15q1.2-1 .3-.95v-.1l.9-.1.2.1 1.5.75 4.85.75 1.2.2h.1l.2.05 2.5.3h.45q1.4.5 2.55 1.65-.2 1.65-2 2.1-1.85.15-2.3-1.25l.15-.8q-.5.6-1.25.8-1.75.7-2.8-.75v-.75l-.35.3-2.5.15-.1-.1-.7-1.45q-.35-.6-.7-.4zm15.5 3.5.15-1.15v-.1q1.1-.95 2.5-.5l6.35.55q3 0 4.15.75l1.35.7-.65.8q-2.1.5-2.95-.85-.15.75-.75.95-2.25.7-2.95-1.15v.1q-.45 1.1-1.55 1.4h-.1q-1.6-.35-1.75-1.65l-.95 1.05q-2.15 1.15-2.85-.9"/><path fill="#ffeecd" d="m43.55 13.75.05.1.15.1.9.85.55.35.15-.1-.1.4-.15.15-.1.05-2.9.15.05.15-.05-.05v.7h-.05q-.4 1.05-1.05 1.45L39.5 18l-.05-.05-.55-.35-.05-.05-.1.5-.85.85-1 .35q-.65.1-1.7-.95l.05.3-.05-.05-.2.75q-1.3 1.25-2.55.15-.65-.6-.65-.15l-.05.05-.3.7-1.1.3q-1.1.25-1.85-.6-.75-.9-.6-.2l-.05-.1-.45.8-.15.15-.85.15q-.55.15-1.25-.3l-1.1-.8v-.05l-.05.05.05-.15-.15.25-.4.35q-1.3 1.2-3.05.3l-.45-.55.15-.55-.9.85-2.85-.15-.35-.75.1-.45-.95.8-2.85-.05-.25-.9v-.15l.25-.4-1.15.55-2.5.1-.2-.2-.5-.65.2-.6q-.8.6-2 .9h-.45q-.7-.15-1.2-.6-.45-.5-.5-1.5l.25-.2-1.3.15q-1.75.1-2.9-.7l-.1-.4 1.7-1.2.2-.15 1.7 1.1 2.5 1.35q1.9.9 3.75 1l3.65.25 3.95.65 3.25.45 2.75.25L27 18.4l4.2-.4 3.65-.8L38 15.95l2.7-1.1z"/><path fill="#e5cc9b" d="M1.9 13.4q1.2-1 .3-.95v-.05l.1-.2.25-.05.75.2 1.5.75 8.85 1.3 3.35-.1 4.8-.45q2.85-.05 4 .05l3.85.05 3.65-.25 2.25-.45 2.55-.05q1.15.05 2.35-.55l1.25-.55h.05l.15.05.65.7.15.25.3.2.55.45-2.85 1.1-2.7 1.1-3.15 1.25-3.65.8-4.2.4-3.55.05-2.75-.25-3.25-.45-3.95-.65-3.65-.25q-1.85-.1-3.75-1L3.6 14.5zm43.35 2.05q-.4.8-1.35.85-1.25.05-1.75-.35l-.05-.15 2.9-.15.1-.05zM42.1 16.6l-.3.9q-.5.85-1.45.85-.65 0-1.1-.35l-.35-.4.55.35.05.05 1.5.05q.65-.4 1.05-1.45zm-3.35 1.45-.25.5q-.5.9-1.2.95l-1.25-.2q-.55-.25-.8-.7l-.05-.3q1.05 1.05 1.7.95l1-.35zM35 19.3q-.35.85-1.2.85-1.15 0-1.6-.5l-.4-.35q0-.45.65.15 1.25 1.1 2.55-.15m-3.55.75v.05q-.3.5-1.35.55-1.1 0-1.6-.55l-.6-.55q-.15-.7.6.2.75.85 1.85.6zm-4.2.35q-.4.35-1.1.35-.85 0-1.45-.5l-.65-.65v.05l-.2.25q-.65.85-1.45.95-.95.1-1.6-.4l-.35-.25q1.75.9 3.05-.3l.4-.35.15-.25-.05.15.05-.05v.05l1.1.8q.7.45 1.25.3zM20 19.65v-.05l-.45.65q-.7.55-1.7.4-1.05-.15-1.45-.85l2.85.15.9-.85zm-3.95-.6-.05-.2-.5.75q-.4.5-1.55.5-1.2-.05-1.55-.65l-.05-.1 2.85.05.95-.8zm-3.95-.75-.45.25q-.55.5-1.4.5-.95 0-1.55-.5l2.5-.1 1.15-.55zM8 17.7l-.1-.1q-.45.45-1.45.45l-.7-.05h.45q1.2-.3 2-.9zm-3.45-.3-.25-.25-.45-1.1.05-.15-.8.15q-1.65.2-2.45-.35l-.55-.55q1.15.8 2.9.7l1.3-.15-.25.2q.05 1 .5 1.5"/><path fill="#45b9a2" fill-opacity=".988" d="m35.8 16.3-.05-.05q-.2-.35-.1 0l-2.4-4.05-2.2-3.75-2-3.55-1.65-3.4-.7-1.4h2.8l14.35 12.45Q41.7 14 39.7 14.75l-3.05 1.2-.7.3zM23.7 6.2l.6 5.4q.25 2.6.85 6.45H25l-1.5-.1h-.15q-3.95 0-10.3-1.4l-2.65-.1 2.15-3.25 3.65-6.45L19.85.1h3.3z"/><path fill-opacity=".298" d="m33.15 3.25 10.7 9.3Q41.7 14 39.7 14.75l-3.05 1.2-.7.3-.15.05-.05-.05q-.2-.35-.1 0l-2.4-4.05-2.2-3.75-1.1-1.95.7 1.35q2.2 3.8 1.85 3.95-.55.15-2.25-2.6L26.8 3.4l-1.05-1.9-.3-.45-.6-.95h5.6l.25.25 2.35 2.8zm-6.1 1.55q2 2.6 3.05 5.6.9 2.5 3.1 3.4l-1.65.35-.1-.3-4.85-9.6zM19.4 1.5l-1.05 1.9-3.4 5.55q-1.7 2.55-3.1 3.5l.4-.45 1-1.5 1.25-1.9.6-1.15.7-2.5q.4-1.8-1.45.4Q12.5 7.5 13 6l.6-1.35q.2-.7-.05-.6l-.55.2q-.3.1-1.15.75l-2.1 1.35.85-1.25 1.5-1.95q1.1-1.55 2.35-2.8L14.7.1h5.6l-.6.95zm-.85 2.75-4.85 9.6-.1.3-1.65-.35q2.2-.9 3.1-3.4 1.05-3 3.05-5.6z"/><path fill="#fff" d="m27.05 0 .15.45.8 2.1q-.4-.95.35 1L30.2 7.8l1.9 3.65 1.9 3.2 1.25 1.85-.6.2.2-.1-.2.05.15-.05q-.6-.4-1.45-2l-2-3.75-1.8-3.4-1.5-3.6L26.7.05h.05l.05.05.05-.05zM25.2.1l.3 1.15.5 3.15q.35 2.05 1.15 4.9l1.2 4.2 1.5 4.2-.45.05-1.55-4.5q-.9-2.7-1.75-6.6Q25.25 2.7 24.9.1zM33.1 17q-.25.35-1.95-3.6L28.3 6.25 26.25.1h.3v.25l.2.55.55 1.85q.55 1.75 1.8 4.7l2.6 5.75q1.3 2.75 1.95 3.75zM26.1.1Q27.35 6 27.8 7l1.3 3.7q.8 2.65 1.75 4.7l.9 2-.5.05-1.1-2.65-2.05-5.55Q27.05 6.1 25.8.1zm-2.35 0 .35 3.35.4 3.9.4 4.05.65 3.9.4 2.75-.4-.1-.4-1.9-.4-3-.35-3.5-.35-3.5-.2-2.45L23.4.1zm1 2.7q.25 1.95.85 4.8l.95 5.45.6 3q.35 1.85.6 1.85l-.6.05-.8-3.85-1.3-7.5L24 .1h.4z"/><path fill="#357ea0" d="m26.7.05 1.35 3.8 1.5 3.6 1.8 3.4 2 3.75q.85 1.6 1.45 2l-.15.05-1 .3q-.65-1-1.95-3.75l-2.6-5.75q-1.25-2.95-1.8-4.7L26.75.9l-.2-.55v-.3zM33.55 17l-1.8.4-.9-2q-.95-2.05-1.75-4.7L27.8 7q-.45-1-1.7-6.9h.15l2.05 6.15 2.85 7.15q1.7 3.95 1.95 3.6zm2.25-.7-.55.2L34 14.65l-1.9-3.2-1.9-3.65-1.85-4.25q-.75-1.95-.35-1l.1.3.1.2.85 1.85 2 3.55 2.2 3.75 2.4 4.05q-.1-.35.1 0zM25.2.1h.6q1.25 6 2.3 9.15l2.05 5.55 1.1 2.65-1.4.25-1.5-4.2-1.2-4.2q-.8-2.85-1.15-4.9l-.5-3.15zm-.8 0h.5q.35 2.6 1.2 6.55.85 3.9 1.75 6.6l1.55 4.5-1.05.1-.6.05q-.25 0-.6-1.85l-.6-3-.95-5.45q-.6-2.85-.85-4.8zm-1 0 .45 3.5.2 2.45.35 3.5.35 3.5.4 3 .4 1.9-.4.1q-.6-3.85-.85-6.45l-.6-5.4-.55-6.1zm.6 0 1.05 6.5 1.3 7.5.8 3.85-1.2.1-.4-2.75-.65-3.9-.4-4.05-.4-3.9L23.75.1zm-7.8 6.65-3.65 6.45-2.15 3.25q-2.85-.3-4.8-1.35l-4.35-2.65.2-.2.4-.4L16.1.1h3.75z"/><path fill="#47b9a2" d="M17.9 1.35 17.75.9q0-.25.15-.45.2-.15.45-.15l.4.15L19 1l-.2.45-.45.15zm-1.35.8-.5.15-.4-.25-.1-.5q-.05-.3.2-.45l.6-.15.35.35.1.35zm-3.15.15.9-.65.05.3-.2.5-.45.15-.4-.2zm.55 2.7-.45.15-.45-.25-.15-.45.15-.45.45-.15q.25 0 .4.15l.25.55zm3.2-.9-.2.45-.45.2-.45-.25-.15-.45.15-.45.45-.15q.25 0 .4.15zm-1.8 1.8.25.45-.2.45-.45.2-.45-.2-.15-.45q0-.25.15-.45.2-.15.45-.15zm-2.85 2-.45.15-.45-.25-.15-.45.15-.45.45-.15.4.15.25.5zm2.2.75.25.4-.4.65-.3.05-.4-.2-.15-.45q0-.25.15-.45.2-.15.45-.15t.4.15m-2.25 3 .45-.15q.25 0 .4.15l.05.15-.2.4-.3.55-.4-.2-.15-.45zm-1.9-5.85-.15-.45.15-.45.45-.15.4.15.25.5-.2.5-.45.15zM6.9 9.15l-.2.5-.45.15-.45-.25-.15-.45.15-.45.45-.15q.25 0 .4.15.25.2.25.5m-2.8.8.3.15q.25.2.25.45L4.4 11q-.15.2-.4.2t-.45-.2l-.15-.45.6-.5zm1.7 1.65.45-.15q.25 0 .4.15.25.2.25.45l-.25.45q-.15.2-.4.2l-.45-.2-.15-.45zm3.55-4.7q.25.2.25.5l-.25.5-.4.15-.45-.25-.15-.45.15-.45.45-.15q.25 0 .4.15m-.3 2.75.1.4-.15.55-.4.15-.45-.25-.2-.5.2-.4q.2-.15.45-.2.25.05.45.25m.65 2.55.3.45-.15.45q-.15.2-.45.2l-.55-.2-.15-.45.15-.45.45-.15q.25 0 .4.15m1.5-2.75q.25 0 .4.15l.25.5-.2.5-.45.15-.45-.25-.15-.45.15-.45zm.45 4.2.25.45-.25.45q-.15.2-.4.2l-.45-.2-.15-.45.15-.45.45-.15zM7.5 15.2l-.45-.2-.15-.45.15-.45.45-.15q.25 0 .4.15l.25.45-.25.45q-.15.2-.4.2m2.1.05q.25 0 .4.15l.25.45-.25.45-.05.1-.2.05-.6-.2-.15-.4.15-.45zM3.85 13.8l-.45-.2-.15-.45.15-.45.45-.15q.25 0 .4.15l.25.45-.25.45q-.15.2-.4.2"/><path fill-opacity=".298" d="M20.6.05h.4V.1q0 .5-2.75 6.45l-3.8 8.25h-1l-1.9-.2h-.15q-.8-.6-2.4-1.25l-2.3-.75q-2.85-1.5-3.2-2.15l.6-.7.2-.25q.5.25.5.6v.1l.55.3 1.9 1 2.2.65q1.25.35 1.2.85l.95.45.75.2h1.25zM36 12.1l1.85-.55 1.9-1 .55-.3v-.1q0-.35-1-1.05l1 .25q-.25 0 1.25 1.25l.15.1-.25.3q-.35.15-.6.35l-.5.45-.5.45-.9.2q-1.2 0-2.45.65l-1.9 1-.05.05-.85.5h-.15l-1.9.2h-1l-3.8-8.25L24 .1l1.1.1h.15l3 6 3.25 7.5h1.25l.75-.2.55-.25.4-.2.05-.2q.15-.35 1.15-.65zm5.1-.4.15-.15.15-.1z"/><path fill="#2ca6e9" d="m39.3 11.2-.15.35q-1.35.15-2.35.55l-1.65.85-1.95.85-1.65.35-.1-.3L24.55.1h5.9l.25.25L41.25 8.6q-.3 1.6-1.1 1.95-.75.35-.85.65M14.7.1h5.9l-6.9 13.75-.1.3-1.65-.35-1.95-.85-1.65-.85L6 11.55l-.15-.35q-.1-.3-.85-.65-.8-.35-1.1-1.95L14.45.35z"/><path fill-opacity=".298" d="m34.25 5.05-.8-.65q-.65-.15-.9.15v.05q-.15.15-.15.5l.1.7.3.8q.6 1.55 1.6 2.45l-2.45-2.1q-3.55-2.95-1.3.9 2.2 3.8 1.85 3.95-.55.15-2.25-2.6L26.8 3.4l-1.05-1.9-.3-.45-.6-.95h5.6l.25.25 2.35 2.8L34.3 5.1zM40.3 7.7l.1.2-.3.3q-.3.15-.25.5l-.25.5q-.25.3-.65.3l-.05.05.1.3-.1-.15-.15-.35.3-.1q.3 0 .45-.2l.15-.2-.05-.75q.6-.1.7-.4m-7.35 4.05.55.25h.05l-1.05-1.45-.7-1.5q1.35 1 2.3 2.35l.1.15.5 1.3v.2l-.05-.05-.95-.85-.4.15.05.05.2.3-.15.15-.2-.05-.25-.25v-.15l-.2.25-.6.15-.4-.1-.25.35-.3.25v-.45l.35-.2.2-.25.3.15.35.05.25-.15.05-.1.2-.6zm2.2-3.15-.05-.1-.8-2.3L36 8.25l.3.5.3 1.15q-1.2-.4-1.45-1.3m3.6.75h-.1l.05.35-.15-.1-2.05-2.35q1.7.9 2.25 2.1m-6.7-5v.05l.05-.05zM19.4 1.5l-1.05 1.9-3.4 5.55q-1.35 2-2.45 3.05l-.15.2.15.25.45.2.5-.3.2.85-.05-.05-.25-.35-.4.1-.6-.15-.2-.25-.05-.05h-.25l-.55-.2-.05-.05h-.1l-.25-.2-.65-.1-.65-.35-.3.1-.65-.45-.4.1q-.6 0-.7-.6l-.35.05-.4-.05v.05h-.15l-.2.2-.1.25-.1.2-.1.05-.2-.6.1-.8.15-.35-.05-.05-.65-.3-.25-.5q.05-.35-.25-.5l-.3-.3.1-.2.4.2.4.3-.1.45q0 .6.65.6l.2-.15.15.1.1-.1.2.1-.25.5v.05l.45.3h.65l.25.2-.1.25q0 .35.45.35l.35-.1.25-.15.25.4.2.25q.3 0 .3-.4h.25l.2.45q.1.25.6.25.35 0 .35-.45.35 0 .35.2l-.1.2.1.25.15.1.5-.1.25-.2.1-.15.15.1.75-1.15 1.25-1.9.6-1.15.7-2.5q.4-1.8-1.45.4Q12.5 7.5 13 6l.6-1.35q.2-.7-.05-.6l-.55.2q-.3.1-1.15.75l-2.1 1.35.85-1.25 1.5-1.95q1.1-1.55 2.35-2.8L14.7.1h5.6l-.6.95zM6.55 10.6h.05z"/><path fill="#d2ecff" d="m30.9 12.8-.65-.45q-.3-.4-.3-.75v-.05l.35-.05 3-.7 3.4-1.15.4-.25 1.4-1.2.6-1.3v-.2h.05l.05-.05q.25 1.65-1.25 2.65t-3.65 1.55l-3.15.65-.85.1q0 .75.55 1.15z"/><path fill="#fff" d="M39.2 6.65q.4-.05.7.25.4.3.4.7v.1q-.1.3-.7.4l.05.75-.15.2q-.15.2-.45.2l-.4.1q.1.4-.15.6l-1.1.3q.05.65-.6.65l-.55-.15q-.1.6-.55.6l-.45-.25-.1.35-.55.2-.3-.1-.2-.25v-.05q-.1.8-.6.75l-.55-.25-.05-.05-.2.6-.05.1-.25.15-.35-.05-.25-.2-.05.05-.2.25-.35.2h-.3l-.05-.05q-.55-.4-.55-1.15l.85-.1 3.15-.65q2.15-.55 3.65-1.55t1.25-2.65M5.9 6.8q-.35 1.6 1 2.55t3.7 1.6l3.35.7.85.1q0 .75-.55 1.15l-.05.05h-.1q-.35 0-.55-.2l-.25-.3-.6.25-.25-.15-.05-.1-.2-.6-.05.05-.55.25q-.5.05-.6-.75l-.5.4-.55-.2-.1-.35-.45.25q-.45 0-.55-.6l-.55.15q-.65 0-.6-.65l-1.1-.3q-.25-.2-.15-.6-.9-.2-1-.5-.15-.35.05-.75-.7-.1-.7-.5t.4-.7q.3-.3.7-.25"/><path fill="#d2ecff" d="m5.9 6.8.05.05H6v.2l.6 1.3L8 9.55l.4.25 3.4 1.15 3 .7.35.05v.05l-.3.75-.65.45.05-.05q.55-.4.55-1.15l-.85-.1-3.35-.7q-2.35-.65-3.7-1.6t-1-2.55"/></g></defs></svg>