<svg xmlns="http://www.w3.org/2000/svg" xmlns:ffdec="https://www.free-decompiler.com/flash" xmlns:xlink="http://www.w3.org/1999/xlink" ffdec:objectType="frame" width="21.4" height="17.25"><use ffdec:characterId="2" xlink:href="#a" width="21.4" height="17.25"/><defs><use ffdec:characterId="1" xlink:href="#b" id="a" width="21.4" height="17.25"/><g id="b" fill-rule="evenodd"><path fill="#ccc" d="M1.65 0H14.6l2.4.05h3.9l.35 2q.3 1.9-.1 5.15l-.5 4.65-.5 4.35-.1.6-2.25.35-1.85.1-2.05-.15-2.05-.5q.1-5.9-.2-6.5l-.35-.3-.7-.1-.5.1q-.25.1-.35.3-.15.1-.2 2.8l.05 3.7-1.5.35-2.6.15h-.8l-2.45-.25-1.15-.25-.95-9.7L0 4.75l.1-2.7L.35 0z"/><path fill="#484848" d="M.1 2.05.35 0h1.3L1.3 2.05zM6.6 0h1v2.05h-1zm7.2 0h.8v2.05h-.8zm6.05.05h1.05l.35 2H20.2z"/><path fill="#999" d="M1.65 0H6.6v2.05H4.45q-.75 2.1-2.35 3.5L.15 6.9 0 4.75l.1-2.7h1.2zM7.6 0h6.2v2.05h-2.6l.1 7.75-.7-.1-.5.1V2.05H7.6zm7 0 2.4.05h2.85l.35 2h1.05q.3 1.9-.1 5.15-2.5-1.2-3.55-4.3l-.25-.85H14.6zM3.05 13.85l.7.5q1.75.4 3.3-1.05-1.75 4-3.3 2.25zM4.7 17.1l-2.45-.25-.9-6.75q1.5 5.8 3.35 7m3.4-.15-2.6.15q1.85-2.2 3.4-8.5-.55 2.75-.5 5.85.05 1.9-.3 2.5m8.3-1.9q1.35.55 2.25-.45-1.05 3.6-3.2.95L14 13.3q1.05 1.2 2.4 1.75m-.45 2.2-2.05-.15-1.35-7q1.8 5.5 3.4 7.15m4.1-.45-2.25.35q2.1-2.65 2.35-5.8v4.85z"/></g></defs></svg>