<svg xmlns="http://www.w3.org/2000/svg" xmlns:ffdec="https://www.free-decompiler.com/flash" xmlns:xlink="http://www.w3.org/1999/xlink" ffdec:objectType="frame" width="22.65" height="17.4"><use ffdec:characterId="1" xlink:href="#a" width="22.65" height="17.4"/><defs><g id="a" fill-rule="evenodd"><path fill="#74001f" d="m19.35 7.35-1.85-4.1.3-.75 2.35-.15-.5 3.75zm-5.8-4.25q.2.75.5.75-1.05 3.9-.45 8.45l2.45.25.8 2.15 1.45-.3.6 2.35-7.65.3.35-3.8V7.3l-.65-.8q-.5-.35-1-.35-.25-.1-.85.35-.6.5-.6 1.05l-.1 5.55.4 3.8-7.8-.3 1-3.8-1.65-7Q-.1 3.7 0 1.35L.1.25q5.1 1.65 9.3 2l4.05.25z"/><path fill-opacity=".4" d="M18.25.95Q17 11 17.15 13.05l.65 3.9-1.35.2-.55-4.2q.5-9.7 1.05-11.65zm-3.75.25q-.55 10.05-.4 12.1l-.15 4.1-1.5-.15.4-4.05q-.25-9.7.3-11.65zM2.15.85l1.3.35Q4 3.15 4.5 12.85l-.55 4.2-1.35-.15.65-3.95Q3.4 10.9 2.15.85m3.55.25 1.35.35q.55 1.95.3 11.65l.4 3.95-1.5.15-.15-4q.15-2.05-.4-12.1m4.8.75.15 4.35H9.5L9 1.85z"/><path fill="#fc3" d="M20.25 1.35v1l-2.3.15-.3.75 1.75 4.1.05.2.4.8q1.2 2.5 2.8 4.55-1.15.7-3.6 1.35l-2.2.45-.95-2.15-2.3-.25q-.6-4.65.4-8.45-.25 0-.45-.75l-.1-.6-3.9-.25q-4.7-.5-9.45-2V0h20z"/><path fill="#d16d20" d="M20.8 13.5q-.45 0-.45-.5 0-.7.9-.8t.9.6l-.15.35-.3.15zM20.1.85l-.4.55-.55.45q-.45 0-.45-.5t.7-.8.7.3m-9.8.8q-.55 0-.9-.35L9.15.95q0-.5.45-.5 1.75-.75 1.75.3l-.4.55zm3.95.8-.25-.4q0-.6.75-.4.7.25.7.65l-.45.45q-.45 0-.75-.3m.85 5.4-.3.4-.4.3-.45-.2-.15-.25q0-.2.55-.55l.55-.2q.2 0 .2.5M17.55 6l-.25.6-.85.35q-.45 0-.6-.3l-.1-.35q1.8-1.8 1.8-.3m2.1 2.65-.2.65-.65.4-.75-.5-.15-.6q0-.65.9-.7.85-.05.85.75M6.3.9l-.15.3-.3.15-.7-.25-.3-.4q0-.5.75-.4.7.1.7.6M18.4 11l-.25.6q-.35.35-.95.35l-.65-.25-.1-.3q0-.8.85-.8l.6-.15q.5 0 .5.55m-4.25.4.45.45-.45.45q-.45 0-.45-.45 0-.5.45-.45"/><path fill="#a30f0f" d="m15.65 11.25-2.3.05-.05-1.1 2.15-.2zm6.3.7-5.55 1.9-.4-1.05q1.8-.35 5.2-1.95z"/><path fill-opacity=".298" d="m21.9 13.3-5-7.25L15.7 4l.95-.4 1.2-3.6h2.25l.15 1.35v1L18 2.5l-.35.75 2.1 5q1.2 2.45 2.9 4.65zm-6.65-9.25.2 2.3v2.7q.05 1.85.6 3.5l-.6.1q-.45-2.95-1.8-5.9.15-1.35.55-2.75z"/></g></defs></svg>