<svg xmlns="http://www.w3.org/2000/svg" xmlns:ffdec="https://www.free-decompiler.com/flash" xmlns:xlink="http://www.w3.org/1999/xlink" ffdec:objectType="frame" width="54.1" height="25.15"><use ffdec:characterId="1" xlink:href="#a" width="54.1" height="25.15"/><defs><g id="a" fill-rule="evenodd"><path fill="#fff" d="m30.7 14.05 3.3-.35h2.8l1.3-.15 6.3-.65H46l1.85 1.95q1 .9 2 2.3l-.1.25.05.05 1.35 1.8.1.15h-.05q-1.05.1-1.65.75h-.05l-.6.3-.45.3-2.2.3q-.5.15-.65.5l-.3-2-1.35-.4 1.3 2.35.35.45.65-.05 1.15-.25q-.85.65-2.95.95l-3.05.1-.3-.1q-1-.85-2.1-.35l-.05.1.1-3.55v-.65l.1.35q.5 1.65 1.4 3.15v-.9q-.15-2.05-.85-3.85l-.75-.45-.1-1.6-.05-.4-1.5.45.9 4.15-1.1-.75-.05 1.5q.15 1.8.65 3.5h-.4q-.45.05-1.05.8l-.95.45q-1 .6-2.6.6l-1.5-.25 1.15-.65.1-.1-.05-.6.25-1.45.1-3.15-.1-1.2.75 2.35 1.7 3.4.05-3.65-.75-3.8-1.85-1.55-.1.15.05 2.25-.95-2.8zm18.6-.4.45.4 1.5 1.4 1.65 1.85q1.35 1.55 1.15 1.95L52.5 20.5l-1.45.75-.75.1-.25-.25.05-.1.65-.2.05-.05h.05l.55-.7.45-.85-.45-1.9q-.8-2.05-2.1-3.65m-7.75 2.65-1.45-1.25q-.3 1.7.55 3.55 1.05 2.2 3.05 3.4l-.55-2.7-1.7-3.8zm-4.85 8.45.15-.15h.05q.4 0 .8-.55l.3-.7.2-.65.3-2 .25 1.8.1.4.05.05.05.1q.8.65 2.1.85l-.45.55q-.8.5-2.5.5H38zM8.1 12.55h1.6l6.3.65 1.3.15h2.8l3.3.35-.85.05q-.65 1.4-.95 2.8l.05-2.25-.1-.15-1.85 1.55q-.55 1.9-.75 3.8-.2 1.8.05 3.65l1.7-3.4.75-2.35-.1 1.2.1 3.15q.05.8.25 1.45-.15.25-.05.6l.1.1 1.15.65-1.5.25q-1.6 0-2.6-.6l-.95-.45q-.6-.75-1.05-.8h-.4q.5-1.7.65-3.5l-.05-1.5-1.1.75.9-4.15-1.5-.45-.05.4-.1 1.6-.75.45q-.7 1.8-.85 3.85v.9q.9-1.5 1.4-3.15l.1-.35v.65l.1 3.55-.05-.1q-1.1-.5-2.1.35l-.3.1-3.05-.1q-2.1-.3-2.95-.95l1.15.25.65.05.35-.45 1.3-2.35-1.35.4-.3 2-.65-.5-2.2-.3-.45-.3-.6-.3h-.05q-.6-.65-1.65-.75h-.05l.1-.15 1.35-1.8.05-.05-.1-.25 2-2.3zm16.15 1.25 3.2.3h.5l1-.25q.6 0 .9.3l.2.35.05.85v.05l.15.7q.35 1.95 1.05 3.95l.95 3.3-.3-.05-.6.15-.6.15-.2.15-.35.2-.95.4-.3-.1-.05-.05-.2-.2-.15-.15q-.6-.5-1.4-.55l-.35-3.75-.1-3.95-.75.05.1-.1q-.4-.3-1.35.25l.05.8q.9 3.55 2.2 7v.45l.05.05 1 .45h-.85q-1.85-.1-2.6-.65l-.35-.3-.55-.4-.05.05q-.75-.55-1.75-.25l.95-3.3 1.05-3.95zM17.4 24.4l-1.3.2H16q-1.7 0-2.5-.5l-.45-.55q1.3-.2 2.1-.85l.05-.1.05-.05.1-.4.25-1.8.3 2 .2.65.3.7q.4.55.8.55h.05zM4.05 20.75 3.8 21l-.75-.1-1.45-.75L.05 18.9q-.2-.4 1.15-1.95l1.65-1.85 1.5-1.4.45-.4q-1.3 1.6-2.1 3.65l-.45 1.9.45.85.55.7h.05l.05.05.65.2zm25.75 3.1v-.05l-.35.25zm-17.15-8.7-1.7 3.8-.55 2.7q2-1.2 3.05-3.4.85-1.85.55-3.55-.9.5-1.45 1.25z"/><path fill="#c1dbe8" d="m30.7 14.05.85.05.95 2.8-.05-2.25.1-.15 1.85 1.55.75 3.8-.05 3.65-1.7-3.4-.75-2.35.1 1.2-.1 3.15-.25 1.45.05.6-.1.1-1.15.65-.1-.1q-.35-.3-.55-1.05l.2-.15.6-.15.6-.15.3.05-.95-3.3q-.7-2-1.05-3.95l-.15-.7v-.05l-.05-.85-.2-.35h.05l.15-.05zm5.55 10.05q.6-.75 1.05-.8h.4q-.5-1.7-.65-3.5l.05-1.5 1.1.75-.9-4.15 1.5-.45.05.4.1 1.6.75.45q.7 1.8.85 3.85v.9q-.9-1.5-1.4-3.15l-.1-.35v.65l-.1 3.55.05-.1q1.1-.5 2.1.35l-.35-.05.3.85v.5q-1.3-.2-2.1-.85l-.05-.1-.05-.05-.1-.4-.25-1.8-.3 2-.2.65-.3.7q-.4.55-.8.55h-.05l-.15.15-.2-.2v-.1l-.2-.4zm11.15-2.45-1.15.25-.65.05-.35-.45-1.3-2.35 1.35.4.3 2q.15-.35.65-.5l2.2-.3-.7.6zm2.15-1.5q.6-.65 1.65-.75h.05l-.1-.15-1.35-1.8-.05-.05.1-.25q-1-1.4-2-2.3L46 12.9h1l2.3.75q1.3 1.6 2.1 3.65l.45 1.9-.45.85-.55.7h-.05l-.05.05-.65.2-.05.1H50l-.15-.25-.2-.5v-.05zm-8-3.85-.1-.8 1.7 3.8.55 2.7q-2-1.2-3.05-3.4-.85-1.85-.55-3.55zM23.4 13.7l.65.05.15.05h.05l-.4 1.95-1.05 3.95-.95 3.3q1-.3 1.75.25l-.05.15-.55 1.05-.1.1-1.15-.65-.1-.1q-.1-.35.05-.6-.2-.65-.25-1.45l-.1-3.15.1-1.2-.75 2.35-1.7 3.4q-.25-1.85-.05-3.65.2-1.9.75-3.8l1.85-1.55.1.15-.05 2.25q.3-1.4.95-2.8zM28 24.55l-1-.45-.05-.05v-.45q-1.3-3.45-2.2-7l-.05-.8q.95-.55 1.35-.25l-.1.1.75-.05.1 3.95.35 3.75q.8.05 1.4.55l.15.15.2.2v.05zm-10.15-.8-.05-.05-.2.4v.1l-.2.2-.15-.15h-.05q-.4 0-.8-.55l-.3-.7-.2-.65-.3-2-.25 1.8-.1.4-.05.05-.05.1q-.8.65-2.1.85v-.5l.3-.85-.35.05q1-.85 2.1-.35l.05.1-.1-3.55v-.65l-.1.35q-.5 1.65-1.4 3.15v-.9q.15-2.05.85-3.85l.75-.45.1-1.6.05-.4 1.5.45-.9 4.15 1.1-.75.05 1.5q-.15 1.8-.65 3.5h.4q.45.05 1.05.8M6.7 21.3l-.35-.3-.7-.6 2.2.3.65.5.3-2 1.35-.4-1.3 2.35-.35.45-.65-.05zm-2.15-1.5-.1.15V20l-.2.5-.15.25h-.05l-.05-.1-.65-.2-.05-.05h-.05l-.55-.7-.45-.85.45-1.9q.8-2.05 2.1-3.65l2.3-.75h1L6.25 14.5l-2 2.3.1.25-.05.05-1.35 1.8-.1.15h.05q1.05.1 1.65.75m8.1-4.65-.1.8q.55-.75 1.45-1.25.3 1.7-.55 3.55-1.05 2.2-3.05 3.4l.55-2.7z"/><path fill="#d73333" d="m28.9 24.2.05.05.05.05-.05-.05h-.05z"/><path fill="#9a1313" d="m30.5.1.05 1.85.75 1.3 2.4 4.35q1.75 3.2 2.35 5.05l.85 2.75-1.2.2-3.75.35-5.5.35-7.25-.25-2.6-.25.9-3q.6-1.85 2.35-5.05 1.7-3.25 2.55-4.45l.75-1.35-.1-1.75zm6.25-.05V2.7q2.9 1 7.1 3.85 3.8 2.55 5.7 4.65-.8.7-2.35 1.4L43.45 14l-4.5 1.05-1.4.25q-.65-2.45-1.4-4.15L34 6.8l-2.85-4.7L31.1.05h5.65M22.45.2l.1 1.85q-1.65 2.4-3 4.9-1.4 2.45-2.15 4.35l-1.5 4.45v.05l-3.15-.45-3.6-.8-2.9-.9-2.15-.95.25-.35q3.45-3.85 6.5-6 3-2.15 5.3-3.05l1.35-.6V.45zm27.6 11.6.2.2 2.65 3.15q1.2 1.4.8 1.3-.4-.15-1.15.5l-2.45.1-.55 1.25-1.15.35q-.7 0-1.3-.35l-.55.9q-.65.7-1.3.7l-1.1-.3-.35-.4q-.25 1.15-1.95 1.15l-.75-.25-.35-.3-.15.15-.05.2q-.25.9-1.35.95-1.1.1-1.5-.85l-.45.6q-.45.55-1.3.55-.9 0-1.6-.85l-.4.65-1.3.4h-.35q-.8 0-1.35-.4l-.25-.25-.45.6q-.65.65-1.5.65-.9 0-1.3-.5l-.3-.5-.65.65q-.7.65-1.35.65-.85 0-1.4-.65l-.3-.65q-.45.9-1.55.9-1.15 0-1.55-.45l-.4-.65q-.7.85-1.55.85-.9 0-1.35-.5l-.45-.65q-.4.95-1.5.9-1.05-.05-1.3-.95l-.05-.2-.15-.15-.4.3-.75.2q-1.7 0-1.95-1.1l-.3.35-1.15.35q-.65 0-1.3-.7l-.55-.9-1.25.3-1.15-.3q-.4-.35-.6-1.25l-2.45-.1q-.7-.65-.7-1.25l2.55-2.95 1.4.6 1.9.65 3.1.95 4.05.75 7.9.65 6.95.05 2.85-.2 1.75-.2 5.05-.55 4.75-1.1 3.35-1.15 2.15-1zm-3.35 3.95v-.15l-.95.2.15.25zm-1.5.25q-.65 0-.9.25l.25.15q.7 0 .8-.4zm2.2-.5.95-.2-1.1.05zm-4.35 1.1q.45 0 .7-.3v-.1h-.2l-.7.1-.05.1zm-.55 2.6.15.2H43l.4-.35q0-.2-.35-.2-.4 0-.55.35m1.6-.8-.05.1.3.35.4.2.15-.1-.25-.4zm2.9-1.1.3.4.4.2.15-.1q.1-.3-.25-.45l-.55-.15zm-1.9.4-.05.2.05.4.1.15.2-.6-.2-.4zm.95 1.2.4-.3q0-.2-.35-.2-.4 0-.55.35l.15.15zm-3.95-2.5q-.8 0-.9.3l.15.15.8-.1.1-.2zm-2.4.55.3.15.75-.1.05-.25h-.25l-.75.1zm-.5.05-.55.05q-.4.05-.45.15l.25.15.7-.1zm-1.65.15-.9.05-.15.1v.2h.35l.75-.05.05-.25zm.35 2.4.3.35.4.2.15-.1-.25-.4-.55-.15zm1-.6.05.45.15.1.2-.6-.2-.4-.15.25zm3.1-.8-.05.25.05.4.15.1.2-.6q0-.4-.2-.4zm-2 1.3-.55.35.15.15h.35l.4-.3q0-.2-.35-.2m.95-.5.3.4.4.2.15-.1q.1-.35-.25-.45l-.55-.15zm10-4.8-.8.35.2.2q.6 0 .75-.55zm.25 1.75.15.1.2-.6q0-.4-.2-.4l-.15.25-.05.2zm-1.05.15.3.35.4.25.15-.1q.1-.35-.25-.45l-.55-.15zm1.55.25.15.15h.35l.4-.3q0-.2-.35-.2-.4 0-.55.35m-2.85-1.15 1-.25v-.15q-.8 0-1.05.3zm-.8 1.4-.05.2.05.4.15.1.2-.55-.2-.45zm1.05.65q-.4 0-.55.4l.15.15h.35l.4-.3zm-24.4 4.2.15-.15-.55-.4q-.35 0-.35.2l.4.35zm.7-1-.05-.25-.15-.25q-.2 0-.2.45l.2.55.15-.1zm1 .55-.05-.1-.55.15q-.35.1-.25.45l.15.1.4-.2zm-8.85-.15h.35l.15-.15q-.15-.35-.55-.35-.35 0-.35.2zm1.2.05.15.1.35-.2.3-.35-.05-.1-.5.15q-.35.1-.25.4m3.25.2.15.15.4-.25.3-.35-.05-.1-.55.15q-.35.1-.25.4m-.35-.5.15-.1.05-.45-.05-.2-.15-.25q-.2 0-.2.4zm-.5.45.15-.15q-.15-.35-.55-.35-.35 0-.35.2l.4.3zm-.5-3.1v.05h-.55L20 18l.05.2h.8l.05-.2zm-2.1 1.7-.15-.25-.2.4.2.6.15-.1.05-.45zm-1.1-1.65h.35v-.15l-.15-.1-.9-.05-.1.05.05.2zm1.75.1-.8-.15-.1.05.05.2.7.05zm7.6 0-.15-.1h-.75l-.1.05.05.2h.9zm-4.5.1.05-.1-.9-.15-.1.05.05.2.65.05zm2.2-.15-.1.05.05.2h.7l.05-.15-.15-.1zm-.6.05-.25-.1V18h-.55l-.1.05.05.2h.6zm9.75-.6-.25.1.05.2h.8l.05-.2-.1-.05h-.55zm-.85.4.05-.15-.15-.1h-.6l.05.25zm-.3 1.5-.05.2.05.4.15.1.2-.55q0-.45-.2-.45zm2.8-1.6.7-.05.05-.2-.1-.05-.85.15zm.45 1.6.05.4.15.1.2-.6q0-.4-.2-.4l-.15.25zm-7.45 1.9.15-.2q-.15-.35-.55-.35-.3 0-.3.2l.35.35zm.3-1.1.2.6.15-.1.05-.4-.05-.25-.15-.25zm1.4.65-.05-.1-.55.15q-.35.1-.25.45l.15.1.4-.2zm1.45-.5-.15.2q0 .35 1.05.35l.15-.1-.25-.3zm.15-2.7-.25.15h-.5l-.1.05.05.25h.1l.75-.15.1-.2zm-4.15.3-.1.05.05.25h.1l.7-.05v-.2l-.15-.1v.05zm1.35 0 .05.25h.1l1-.1.1-.15-1.15-.05zm7.65 2.45h.3l.4-.35q0-.2-.35-.2t-.5.35zm-1 .15.15-.1q.1-.35-.25-.45l-.55-.15-.05.1.3.4zm-2.3.05h.35l.4-.3q0-.25-.35-.25l-.55.4zm-18.45-.1.15-.15q-.15-.4-.5-.4t-.35.2q0 .15.4.35zm1.4-.05.3-.4-.05-.1-.55.15q-.35.1-.25.45l.15.1zm-4.85-1.05q-.35 0-.35.2l.4.3h.35l.15-.15zm-.95-.4-.05-.1-.55.15q-.35.1-.25.45l.15.1.4-.2zm.95-1.9.25-.15-.05-.1-.7-.1h-.2v.1zm-3.05 1.8q-.35 0-.35.2l.4.35h.35l.15-.2q-.15-.35-.55-.35m1.05-.7-.15-.25-.2.4.2.6.15-.1.05-.4zm-.85-1.6q.15 0 .15-.3l-.95-.2v.15zm.7-.1h-.15q.1.45.85.45l.25-.15q-.25-.3-.95-.3m6.1 2.5q-.2 0-.2.45l.2.55.15-.1.05-.4-.05-.25zm.65-1.1.25-.15q-.05-.1-.45-.15l-.55-.05.05.25zm-3.7 1.55.15-.15.05-.4-.05-.2-.15-.25q-.2 0-.2.4zm1.15-.05-.55.15q-.35.1-.25.4l.15.1.4-.2.3-.35zm-.2-2.2q-.1-.25-.9-.25l-.15.1.1.2.8.1zm.7.05h-.25l.05.3.75.1.3-.15-.1-.15zm-7.35 1.05.15.15.4-.25.3-.35-.05-.1-.55.15zm-1.2-.55q-.35 0-.35.2l.4.3h.35l.15-.15q-.15-.35-.55-.35m1-.05.05-.45-.05-.2-.15-.25-.15.4.15.6zm-4.15-.7h.35l.15-.15q-.15-.4-.55-.4l-.35.25zm2-.55-.55.2-.25.4.15.1.4-.2.3-.35zm-1-.65-.15-.3q-.2 0-.2.45l.2.55.15-.1.05-.4zM4.15 15l-.8-.4H3.2q.15.55.75.55zm1.85.8.9.2.15-.15zm-1.55-.6v.15l1.05.3.05-.15q-.25-.3-1.1-.3"/><path fill="#f5c850" d="m17.45 11.1 1-.6q-.65 1.3-.95 2.3l-.9 3 2.6.25 2.2.15.1.65-7.45-.65-4.05-.75-1.65-.5.2-.55.6.15 3.6.8 3.15.45v-.05l1.5-4.45zm15.1 4.8 3.15-.3 1.2-.2-.85-2.75-.8-2-.1-.2-.05-.1.95.55.05.1.05.15q.75 1.7 1.4 4.15l1.4-.25 4.5-1.05 1.45-.45.4.65-2 .65-4.75 1.1-5.05.55-.95.1zm15.3-3.6 1.7-1.1.3.35.15.15.05.1-1.25.9-.65.35zM5.6 14.1l-.6-.25-1.4-.6.5-.55 1.65.75z"/><path fill="#fff7d4" d="m44.9 13.55 2.3-.95.65-.3.3.75-1.5.65-1.35.5zm-36.55 1.4L6.9 14.5l-1.3-.4.15-.65.5.2 2.3.75z"/><path fill="#cb7b00" d="m17.45 11.1.65-1.4 1.2-2.35.25-.4q1.35-2.5 3-4.9L22.45.2h.6l.1 1.75-.75 1.35-2.3 3.95-.25.5-.7 1.25-.7 1.5zm3.95 5.1 5.05.1 5.5-.35.6-.05v.7l-.8.1-2.85.2-6.95-.05h-.45zm13.7-5.85-1.2-2.4-.2-.35-.85-1.6-1.55-2.75-.75-1.3L30.5.1V.05h.6l.05 2.05 2.45 4 .4.7.85 1.5 1.05 2.3.15.3z"/></g></defs></svg>