<?xml version="1.0" encoding="UTF-8" standalone="no"?>
<svg xmlns:ffdec="https://www.free-decompiler.com/flash" xmlns:xlink="http://www.w3.org/1999/xlink" ffdec:objectType="frame" height="27.6px" width="21.75px" xmlns="http://www.w3.org/2000/svg">
  <g transform="matrix(1.0, 0.0, 0.0, 1.0, 0.85, -3.05)">
    <use ffdec:characterId="1" height="27.6" transform="matrix(1.0, 0.0, 0.0, 1.0, -0.85, 3.05)" width="21.75" xlink:href="#shape0"/>
  </g>
  <defs>
    <g id="shape0" transform="matrix(1.0, 0.0, 0.0, 1.0, 0.85, -3.05)">
      <path d="M20.5 3.15 L20.4 6.9 19.95 9.55 19.3 12.25 18.1 16.6 17.0 19.7 16.1 22.55 15.9 22.6 15.85 22.75 15.65 23.05 15.45 23.3 14.75 24.1 14.05 24.7 12.65 23.85 Q11.45 23.0 11.1 22.35 L11.1 22.3 11.05 22.15 11.15 19.9 11.1 20.3 11.25 16.6 11.2 16.6 11.25 16.5 11.4 13.8 11.35 10.55 Q11.15 9.8 10.6 9.6 L10.0 9.45 9.45 9.6 Q8.9 9.8 8.65 10.55 L8.6 13.8 8.85 16.6 8.85 16.35 9.1 21.55 9.1 22.15 9.05 22.3 9.05 22.35 7.5 23.85 6.1 24.7 5.4 24.1 4.7 23.3 4.5 23.05 4.3 22.75 4.25 22.6 4.2 22.6 3.8 21.4 2.25 17.25 2.0 16.6 0.75 12.15 Q-0.15 8.7 -0.35 6.8 L-0.4 3.05 20.5 3.15" fill="url(#gradient0)" fill-rule="evenodd" stroke="none"/>
      <path d="M3.0 30.65 L2.95 30.65 3.05 30.6 3.0 30.65" fill="url(#gradient1)" fill-rule="evenodd" stroke="none"/>
      <path d="M20.75 7.5 L19.95 8.55 18.85 9.7 Q17.95 10.4 16.75 10.8 L16.7 10.95 16.65 11.15 Q15.05 11.85 13.45 11.85 L12.65 11.85 12.65 11.55 11.8 11.45 11.0 11.45 11.0 11.35 11.05 11.1 11.3 11.05 13.5 11.3 Q15.3 11.3 16.8 10.6 L17.2 10.4 18.1 9.85 18.8 9.3 19.0 9.1 19.95 8.1 20.05 7.95 20.55 7.25 20.65 7.45 20.75 7.5" fill="url(#gradient2)" fill-rule="evenodd" stroke="none"/>
      <path d="M20.85 4.8 L19.95 6.0 18.95 6.7 18.1 7.1 17.9 7.55 16.2 7.75 Q15.2 7.75 14.55 7.25 L13.55 6.65 13.1 6.6 Q12.75 6.55 12.45 6.9 L12.45 6.85 11.7 7.5 11.9 6.85 12.35 6.35 Q12.8 6.05 13.4 6.05 14.1 6.05 14.7 6.65 15.35 7.2 16.9 7.2 L18.15 6.95 18.9 6.55 19.4 6.1 19.65 5.85 19.95 5.55 20.7 4.75 20.85 4.75 20.85 4.8 M12.6 8.5 L13.2 8.6 13.75 8.35 14.15 8.05 14.35 8.15 14.4 8.25 Q14.4 9.15 13.25 9.15 L12.65 9.1 12.6 8.5" fill="url(#gradient3)" fill-rule="evenodd" stroke="none"/>
      <path d="M-0.8 4.8 L-0.8 4.75 -0.65 4.75 0.4 5.85 0.65 6.1 1.15 6.55 1.9 6.95 3.15 7.2 Q4.7 7.2 5.35 6.65 5.95 6.05 6.65 6.05 7.25 6.05 7.7 6.35 L8.15 6.85 8.35 7.5 7.6 6.85 7.6 6.9 Q7.3 6.55 6.95 6.6 L6.5 6.65 5.5 7.25 Q4.85 7.75 3.85 7.75 L2.15 7.55 1.95 7.1 1.1 6.7 Q-0.2 5.95 -0.8 4.8 M7.4 9.1 L6.8 9.15 Q5.65 9.15 5.65 8.25 L5.7 8.15 Q5.75 8.05 5.9 8.05 6.1 8.05 6.3 8.35 L6.85 8.6 7.45 8.5 7.4 9.1" fill="url(#gradient4)" fill-rule="evenodd" stroke="none"/>
      <path d="M-0.7 7.5 L-0.6 7.45 -0.5 7.25 0.0 7.95 1.05 9.1 1.25 9.3 1.95 9.85 2.85 10.4 3.25 10.6 Q4.75 11.3 6.55 11.3 L8.75 11.05 9.0 11.1 9.05 11.35 9.05 11.45 8.25 11.45 7.4 11.55 7.4 11.85 6.6 11.85 Q5.0 11.85 3.4 11.15 L3.35 10.95 3.3 10.8 Q2.1 10.4 1.2 9.7 L-0.7 7.5" fill="url(#gradient5)" fill-rule="evenodd" stroke="none"/>
      <path d="M7.65 14.05 L7.05 14.45 5.1 15.5 3.9 15.85 2.9 15.95 2.7 15.95 1.85 15.9 1.4 15.7 3.95 15.5 3.95 15.2 4.05 15.2 4.0 15.25 Q4.75 15.1 4.75 14.6 L4.5 13.75 4.2 13.45 3.85 13.35 3.65 13.3 Q2.65 13.3 2.65 14.1 L2.6 14.35 2.65 14.55 3.0 15.05 3.35 15.15 Q3.75 15.0 3.55 14.7 3.25 14.45 3.3 14.25 3.3 14.05 3.65 14.05 L3.65 14.1 Q3.85 14.75 3.6 15.25 L3.5 15.25 Q2.85 15.2 2.6 14.8 L2.6 14.7 Q2.3 14.25 2.5 13.6 L3.0 13.1 3.8 13.0 3.75 12.8 Q5.25 12.9 5.25 14.35 L5.1 14.95 5.1 15.0 6.85 13.95 7.5 13.35 7.65 14.05 M3.95 14.1 L4.1 14.55 4.0 15.15 3.95 15.2 3.95 14.1" fill="url(#gradient6)" fill-rule="evenodd" stroke="none"/>
      <path d="M8.95 15.55 Q9.55 16.9 8.05 18.1 7.0 18.9 6.65 20.0 L7.0 20.7 6.7 20.7 6.3 20.35 6.3 19.95 Q6.3 19.1 7.55 18.05 8.8 17.0 8.8 16.25 L8.7 15.85 8.7 15.45 8.95 15.55" fill="url(#gradient7)" fill-rule="evenodd" stroke="none"/>
      <path d="M2.85 19.7 L3.0 19.65 3.05 19.65 4.1 20.5 5.15 20.85 Q6.6 21.15 6.8 21.4 L7.0 21.95 7.0 22.15 Q7.05 22.6 6.55 22.75 L6.05 22.65 Q6.55 22.4 6.55 21.95 L6.5 21.85 Q6.2 21.15 5.35 21.2 3.5 21.05 2.85 19.7" fill="url(#gradient8)" fill-rule="evenodd" stroke="none"/>
      <path d="M16.3 12.8 L16.25 13.0 17.05 13.1 17.55 13.6 Q17.75 14.25 17.45 14.7 L17.45 14.8 Q17.2 15.2 16.55 15.25 L16.45 15.25 Q16.2 14.75 16.4 14.1 L16.4 14.05 Q16.75 14.05 16.75 14.25 L16.5 14.7 Q16.3 15.0 16.7 15.15 L17.05 15.05 17.4 14.55 17.45 14.35 17.4 14.1 Q17.4 13.3 16.4 13.3 L16.2 13.35 15.85 13.45 15.55 13.75 Q15.3 14.1 15.3 14.6 15.3 15.1 16.05 15.25 L16.0 15.2 16.1 15.2 16.1 15.5 18.65 15.7 18.2 15.9 17.35 15.95 17.15 15.95 16.15 15.85 14.95 15.5 Q14.0 15.15 13.0 14.45 L12.4 14.05 12.55 13.35 13.2 13.95 14.95 15.0 14.95 14.95 14.8 14.35 Q14.8 12.9 16.3 12.8 M16.1 14.1 L16.1 15.2 16.05 15.15 15.95 14.55 16.1 14.1" fill="url(#gradient9)" fill-rule="evenodd" stroke="none"/>
      <path d="M13.15 20.7 L13.5 20.0 Q13.15 18.9 12.1 18.1 10.6 16.9 11.2 15.55 L11.45 15.45 11.45 15.85 11.35 16.25 Q11.35 17.0 12.6 18.05 13.85 19.1 13.85 19.95 L13.85 20.35 13.45 20.7 13.15 20.7" fill="url(#gradient10)" fill-rule="evenodd" stroke="none"/>
      <path d="M14.1 22.65 L13.6 22.75 Q13.1 22.6 13.15 22.15 L13.15 21.95 13.35 21.4 Q13.55 21.15 15.0 20.85 L16.05 20.5 17.1 19.65 17.15 19.65 17.3 19.7 Q16.65 21.05 14.8 21.2 13.95 21.15 13.65 21.85 L13.6 21.95 Q13.6 22.4 14.1 22.65" fill="url(#gradient11)" fill-rule="evenodd" stroke="none"/>
      <path d="M20.75 7.5 L20.85 7.6 20.9 7.6 Q20.9 8.2 19.95 9.05 L18.9 9.85 18.65 10.05 18.0 10.5 16.65 11.15 16.7 10.95 16.75 10.8 Q17.95 10.4 18.85 9.7 L19.95 8.55 20.75 7.5 M12.65 11.85 Q11.15 11.75 11.0 11.45 L11.8 11.45 12.65 11.55 12.65 11.85" fill="url(#gradient12)" fill-rule="evenodd" stroke="none"/>
      <path d="M20.85 4.8 L20.9 5.0 Q20.9 5.6 19.95 6.4 L19.7 6.6 19.3 6.9 18.7 7.25 17.9 7.55 18.1 7.1 18.95 6.7 19.95 6.0 20.85 4.8 M12.45 6.9 L12.4 7.0 12.2 7.7 Q12.15 8.3 12.6 8.5 L12.65 9.1 Q11.7 8.85 11.7 7.65 L11.7 7.5 12.45 6.85 12.45 6.9" fill="url(#gradient13)" fill-rule="evenodd" stroke="none"/>
      <path d="M8.35 7.5 L8.35 7.65 Q8.35 8.85 7.4 9.1 L7.45 8.5 Q7.9 8.3 7.85 7.7 L7.65 7.0 7.6 6.9 7.6 6.85 8.35 7.5 M2.15 7.55 L1.35 7.25 0.75 6.9 0.35 6.6 Q-0.85 5.65 -0.85 5.0 L-0.8 4.8 Q-0.2 5.95 1.1 6.7 L1.95 7.1 2.15 7.55" fill="url(#gradient14)" fill-rule="evenodd" stroke="none"/>
      <path d="M3.4 11.15 L2.05 10.5 1.4 10.05 1.15 9.85 Q-0.85 8.45 -0.85 7.6 L-0.8 7.6 -0.7 7.5 1.2 9.7 Q2.1 10.4 3.3 10.8 L3.35 10.95 3.4 11.15 M9.05 11.45 Q8.9 11.75 7.4 11.85 L7.4 11.55 8.25 11.45 9.05 11.45" fill="url(#gradient15)" fill-rule="evenodd" stroke="none"/>
      <path d="M7.5 13.35 L8.7 12.05 8.95 12.4 Q8.95 13.0 7.65 14.05 L7.5 13.35 M1.4 15.7 L1.4 15.65 1.35 15.25 1.45 15.2 1.8 15.3 2.7 15.4 2.8 15.4 2.7 15.4 Q2.1 15.1 2.15 14.1 2.15 13.5 2.5 13.2 2.85 12.75 3.7 12.8 L3.75 12.8 3.8 13.0 3.0 13.1 2.5 13.6 Q2.3 14.25 2.6 14.7 L2.6 14.8 Q2.85 15.2 3.5 15.25 L3.6 15.25 Q3.85 14.75 3.65 14.1 L3.65 14.05 3.7 14.05 3.95 14.1 3.95 15.2 3.95 15.5 1.4 15.7" fill="url(#gradient16)" fill-rule="evenodd" stroke="none"/>
      <path d="M16.3 12.8 L16.35 12.8 Q17.2 12.75 17.55 13.2 17.9 13.5 17.9 14.1 17.95 15.1 17.35 15.4 L18.25 15.3 18.6 15.2 18.7 15.25 18.65 15.65 18.65 15.7 16.1 15.5 16.1 15.2 16.1 14.1 16.35 14.05 16.4 14.05 16.4 14.1 Q16.2 14.75 16.45 15.25 L16.55 15.25 Q17.2 15.2 17.45 14.8 L17.45 14.7 Q17.75 14.25 17.55 13.6 L17.05 13.1 16.25 13.0 16.3 12.8 M12.4 14.05 Q11.1 13.0 11.1 12.4 11.1 12.15 11.35 12.05 L12.55 13.35 12.4 14.05" fill="url(#gradient17)" fill-rule="evenodd" stroke="none"/>
      <path d="M7.0 20.7 L6.65 20.0 Q7.0 18.9 8.05 18.1 9.55 16.9 8.95 15.55 9.2 15.65 9.25 15.8 L9.3 16.3 Q9.3 17.1 8.55 17.95 L7.05 19.4 7.5 20.05 7.1 20.7 7.0 20.7" fill="url(#gradient18)" fill-rule="evenodd" stroke="none"/>
      <path d="M6.05 22.65 L5.7 22.3 5.75 21.95 Q5.8 21.7 6.0 21.65 L4.75 21.3 Q2.7 20.65 2.7 20.15 2.7 19.8 2.85 19.7 3.5 21.05 5.35 21.2 6.2 21.15 6.5 21.85 L6.55 21.95 Q6.55 22.4 6.05 22.65" fill="url(#gradient19)" fill-rule="evenodd" stroke="none"/>
      <path d="M11.2 15.55 Q10.6 16.9 12.1 18.1 13.15 18.9 13.5 20.0 L13.15 20.7 13.05 20.7 12.65 20.05 Q12.65 19.7 13.1 19.4 L11.6 17.95 Q10.85 17.1 10.85 16.3 L10.9 15.8 11.2 15.55" fill="url(#gradient20)" fill-rule="evenodd" stroke="none"/>
      <path d="M14.1 22.65 Q13.6 22.4 13.6 21.95 L13.65 21.85 Q13.95 21.15 14.8 21.2 16.65 21.05 17.3 19.7 L17.45 20.15 Q17.45 20.65 15.4 21.3 L14.15 21.65 14.4 21.95 14.45 22.3 14.1 22.65" fill="url(#gradient21)" fill-rule="evenodd" stroke="none"/>
    </g>
    <radialGradient cx="0" cy="0" gradientTransform="matrix(0.0225, 0.0, 0.0, 0.0225, 10.05, 18.2)" gradientUnits="userSpaceOnUse" id="gradient0" r="819.2" spreadMethod="pad">
      <stop offset="0.37254901960784315" stop-color="#6e1a7e"/>
      <stop offset="0.796078431372549" stop-color="#000000"/>
    </radialGradient>
    <radialGradient cx="0" cy="0" gradientTransform="matrix(0.0039, 0.0, 0.0, 0.0039, 3.55, 31.95)" gradientUnits="userSpaceOnUse" id="gradient1" r="819.2" spreadMethod="pad">
      <stop offset="0.1411764705882353" stop-color="#ec9712"/>
      <stop offset="0.44313725490196076" stop-color="#ffd754"/>
      <stop offset="0.6705882352941176" stop-color="#ffd138"/>
      <stop offset="1.0" stop-color="#ffc400"/>
    </radialGradient>
    <radialGradient cx="0" cy="0" gradientTransform="matrix(-0.0076, 0.0, 0.0, 0.0076, 15.95, 9.55)" gradientUnits="userSpaceOnUse" id="gradient2" r="819.2" spreadMethod="pad">
      <stop offset="0.0" stop-color="#8a8a8a"/>
      <stop offset="0.5372549019607843" stop-color="#c2c2c2"/>
      <stop offset="1.0" stop-color="#8e8e8e"/>
    </radialGradient>
    <radialGradient cx="0" cy="0" gradientTransform="matrix(-0.0062, 0.0, 0.0, 0.0062, 16.3, 6.9)" gradientUnits="userSpaceOnUse" id="gradient3" r="819.2" spreadMethod="pad">
      <stop offset="0.0" stop-color="#8a8a8a"/>
      <stop offset="0.5372549019607843" stop-color="#c2c2c2"/>
      <stop offset="1.0" stop-color="#8e8e8e"/>
    </radialGradient>
    <radialGradient cx="0" cy="0" gradientTransform="matrix(0.0062, 0.0, 0.0, 0.0062, 3.75, 6.9)" gradientUnits="userSpaceOnUse" id="gradient4" r="819.2" spreadMethod="pad">
      <stop offset="0.0" stop-color="#8a8a8a"/>
      <stop offset="0.5372549019607843" stop-color="#c2c2c2"/>
      <stop offset="1.0" stop-color="#8e8e8e"/>
    </radialGradient>
    <radialGradient cx="0" cy="0" gradientTransform="matrix(0.0076, 0.0, 0.0, 0.0076, 4.1, 9.55)" gradientUnits="userSpaceOnUse" id="gradient5" r="819.2" spreadMethod="pad">
      <stop offset="0.0" stop-color="#8a8a8a"/>
      <stop offset="0.5372549019607843" stop-color="#c2c2c2"/>
      <stop offset="1.0" stop-color="#8e8e8e"/>
    </radialGradient>
    <radialGradient cx="0" cy="0" gradientTransform="matrix(0.0054, 0.0, 0.0, 0.0054, 5.15, 14.0)" gradientUnits="userSpaceOnUse" id="gradient6" r="819.2" spreadMethod="pad">
      <stop offset="0.0" stop-color="#8a8a8a"/>
      <stop offset="0.5372549019607843" stop-color="#c2c2c2"/>
      <stop offset="1.0" stop-color="#8e8e8e"/>
    </radialGradient>
    <radialGradient cx="0" cy="0" gradientTransform="matrix(0.0035, 0.0, 0.0, 0.0035, 7.7, 18.1)" gradientUnits="userSpaceOnUse" id="gradient7" r="819.2" spreadMethod="pad">
      <stop offset="0.0" stop-color="#8a8a8a"/>
      <stop offset="0.5372549019607843" stop-color="#c2c2c2"/>
      <stop offset="1.0" stop-color="#8e8e8e"/>
    </radialGradient>
    <radialGradient cx="0" cy="0" gradientTransform="matrix(0.0035, 0.0, 0.0, 0.0035, 4.95, 21.2)" gradientUnits="userSpaceOnUse" id="gradient8" r="819.2" spreadMethod="pad">
      <stop offset="0.0" stop-color="#8a8a8a"/>
      <stop offset="0.5372549019607843" stop-color="#c2c2c2"/>
      <stop offset="1.0" stop-color="#8e8e8e"/>
    </radialGradient>
    <radialGradient cx="0" cy="0" gradientTransform="matrix(-0.0054, 0.0, 0.0, 0.0054, 14.9, 14.0)" gradientUnits="userSpaceOnUse" id="gradient9" r="819.2" spreadMethod="pad">
      <stop offset="0.0" stop-color="#8a8a8a"/>
      <stop offset="0.5372549019607843" stop-color="#c2c2c2"/>
      <stop offset="1.0" stop-color="#8e8e8e"/>
    </radialGradient>
    <radialGradient cx="0" cy="0" gradientTransform="matrix(-0.0035, 0.0, 0.0, 0.0035, 12.45, 18.1)" gradientUnits="userSpaceOnUse" id="gradient10" r="819.2" spreadMethod="pad">
      <stop offset="0.0" stop-color="#8a8a8a"/>
      <stop offset="0.5372549019607843" stop-color="#c2c2c2"/>
      <stop offset="1.0" stop-color="#8e8e8e"/>
    </radialGradient>
    <radialGradient cx="0" cy="0" gradientTransform="matrix(-0.0035, 0.0, 0.0, 0.0035, 15.2, 21.2)" gradientUnits="userSpaceOnUse" id="gradient11" r="819.2" spreadMethod="pad">
      <stop offset="0.0" stop-color="#8a8a8a"/>
      <stop offset="0.5372549019607843" stop-color="#c2c2c2"/>
      <stop offset="1.0" stop-color="#8e8e8e"/>
    </radialGradient>
    <radialGradient cx="0" cy="0" gradientTransform="matrix(-0.0076, 0.0, 0.0, 0.0076, 15.95, 9.55)" gradientUnits="userSpaceOnUse" id="gradient12" r="819.2" spreadMethod="pad">
      <stop offset="0.0" stop-color="#bfbfbf"/>
      <stop offset="0.5647058823529412" stop-color="#fafafa"/>
      <stop offset="0.7843137254901961" stop-color="#f4f4f4"/>
      <stop offset="1.0" stop-color="#c2c2c2"/>
    </radialGradient>
    <radialGradient cx="0" cy="0" gradientTransform="matrix(-0.0062, 0.0, 0.0, 0.0062, 16.3, 6.9)" gradientUnits="userSpaceOnUse" id="gradient13" r="819.2" spreadMethod="pad">
      <stop offset="0.0" stop-color="#bfbfbf"/>
      <stop offset="0.5647058823529412" stop-color="#fafafa"/>
      <stop offset="0.7843137254901961" stop-color="#f4f4f4"/>
      <stop offset="1.0" stop-color="#c2c2c2"/>
    </radialGradient>
    <radialGradient cx="0" cy="0" gradientTransform="matrix(0.0062, 0.0, 0.0, 0.0062, 3.75, 6.9)" gradientUnits="userSpaceOnUse" id="gradient14" r="819.2" spreadMethod="pad">
      <stop offset="0.0" stop-color="#bfbfbf"/>
      <stop offset="0.5647058823529412" stop-color="#fafafa"/>
      <stop offset="0.7843137254901961" stop-color="#f4f4f4"/>
      <stop offset="1.0" stop-color="#c2c2c2"/>
    </radialGradient>
    <radialGradient cx="0" cy="0" gradientTransform="matrix(0.0076, 0.0, 0.0, 0.0076, 4.1, 9.55)" gradientUnits="userSpaceOnUse" id="gradient15" r="819.2" spreadMethod="pad">
      <stop offset="0.0" stop-color="#bfbfbf"/>
      <stop offset="0.5647058823529412" stop-color="#fafafa"/>
      <stop offset="0.7843137254901961" stop-color="#f4f4f4"/>
      <stop offset="1.0" stop-color="#c2c2c2"/>
    </radialGradient>
    <radialGradient cx="0" cy="0" gradientTransform="matrix(0.0054, 0.0, 0.0, 0.0054, 5.15, 14.0)" gradientUnits="userSpaceOnUse" id="gradient16" r="819.2" spreadMethod="pad">
      <stop offset="0.0" stop-color="#bfbfbf"/>
      <stop offset="0.5647058823529412" stop-color="#fafafa"/>
      <stop offset="0.7843137254901961" stop-color="#f4f4f4"/>
      <stop offset="1.0" stop-color="#c2c2c2"/>
    </radialGradient>
    <radialGradient cx="0" cy="0" gradientTransform="matrix(-0.0054, 0.0, 0.0, 0.0054, 14.9, 14.0)" gradientUnits="userSpaceOnUse" id="gradient17" r="819.2" spreadMethod="pad">
      <stop offset="0.0" stop-color="#bfbfbf"/>
      <stop offset="0.5647058823529412" stop-color="#fafafa"/>
      <stop offset="0.7843137254901961" stop-color="#f4f4f4"/>
      <stop offset="1.0" stop-color="#c2c2c2"/>
    </radialGradient>
    <radialGradient cx="0" cy="0" gradientTransform="matrix(0.0035, 0.0, 0.0, 0.0035, 8.0, 18.15)" gradientUnits="userSpaceOnUse" id="gradient18" r="819.2" spreadMethod="pad">
      <stop offset="0.0" stop-color="#bfbfbf"/>
      <stop offset="0.5647058823529412" stop-color="#fafafa"/>
      <stop offset="0.7843137254901961" stop-color="#f4f4f4"/>
      <stop offset="1.0" stop-color="#c2c2c2"/>
    </radialGradient>
    <radialGradient cx="0" cy="0" gradientTransform="matrix(0.0032, 0.0, 0.0, 0.0032, 4.6, 21.15)" gradientUnits="userSpaceOnUse" id="gradient19" r="819.2" spreadMethod="pad">
      <stop offset="0.0" stop-color="#bfbfbf"/>
      <stop offset="0.5647058823529412" stop-color="#fafafa"/>
      <stop offset="0.7843137254901961" stop-color="#f4f4f4"/>
      <stop offset="1.0" stop-color="#c2c2c2"/>
    </radialGradient>
    <radialGradient cx="0" cy="0" gradientTransform="matrix(-0.0035, 0.0, 0.0, 0.0035, 12.15, 18.15)" gradientUnits="userSpaceOnUse" id="gradient20" r="819.2" spreadMethod="pad">
      <stop offset="0.0" stop-color="#bfbfbf"/>
      <stop offset="0.5647058823529412" stop-color="#fafafa"/>
      <stop offset="0.7843137254901961" stop-color="#f4f4f4"/>
      <stop offset="1.0" stop-color="#c2c2c2"/>
    </radialGradient>
    <radialGradient cx="0" cy="0" gradientTransform="matrix(-0.0032, 0.0, 0.0, 0.0032, 15.55, 21.15)" gradientUnits="userSpaceOnUse" id="gradient21" r="819.2" spreadMethod="pad">
      <stop offset="0.0" stop-color="#bfbfbf"/>
      <stop offset="0.5647058823529412" stop-color="#fafafa"/>
      <stop offset="0.7843137254901961" stop-color="#f4f4f4"/>
      <stop offset="1.0" stop-color="#c2c2c2"/>
    </radialGradient>
  </defs>
</svg>
