<svg xmlns="http://www.w3.org/2000/svg" xmlns:ffdec="https://www.free-decompiler.com/flash" xmlns:xlink="http://www.w3.org/1999/xlink" ffdec:objectType="frame" width="68.9" height="40.25"><use ffdec:characterId="1" xlink:href="#a" width="68.9" height="40.25"/><defs><radialGradient id="h" cx="0" cy="0" r="819.2" gradientTransform="matrix(-.0007 .0014 .0014 .0007 36.35 10.35)" gradientUnits="userSpaceOnUse" spreadMethod="pad"><stop offset=".141" stop-color="#ae8609"/><stop offset=".553" stop-color="#aa8200"/><stop offset="1" stop-color="#dbb06c"/></radialGradient><radialGradient id="i" cx="0" cy="0" r="819.2" gradientTransform="matrix(-.0019 .0017 .0017 .0019 32.65 20.85)" gradientUnits="userSpaceOnUse" spreadMethod="pad"><stop offset=".553" stop-color="#eebf25"/><stop offset="1" stop-color="#dbb06c"/></radialGradient><radialGradient id="j" cx="0" cy="0" r="819.2" gradientTransform="rotate(63.435 -16.298 -7.648)scale(.0016)" gradientUnits="userSpaceOnUse" spreadMethod="pad"><stop offset=".553" stop-color="#eebf25"/><stop offset="1" stop-color="#dbb06c"/></radialGradient><radialGradient id="k" cx="0" cy="0" r="819.2" gradientTransform="rotate(10.62 -150.535 26.743)scale(.0016)" gradientUnits="userSpaceOnUse" spreadMethod="pad"><stop offset=".553" stop-color="#eebf25"/><stop offset="1" stop-color="#dbb06c"/></radialGradient><radialGradient id="l" cx="0" cy="0" r="819.2" gradientTransform="rotate(41.82 -33.361 -5.475)scale(.0025)" gradientUnits="userSpaceOnUse" spreadMethod="pad"><stop offset=".553" stop-color="#eebf25"/><stop offset="1" stop-color="#dbb06c"/></radialGradient><radialGradient id="m" cx="0" cy="0" r="819.2" gradientTransform="rotate(-34.695 46.208 10.394)scale(.0016)" gradientUnits="userSpaceOnUse" spreadMethod="pad"><stop offset=".553" stop-color="#eebf25"/><stop offset="1" stop-color="#dbb06c"/></radialGradient><radialGradient id="n" cx="0" cy="0" r="819.2" gradientTransform="translate(-22.45 12.55)scale(.0027)" gradientUnits="userSpaceOnUse" spreadMethod="pad"><stop offset=".141" stop-color="#ae8609"/><stop offset=".553" stop-color="#aa8200"/><stop offset="1" stop-color="#dbb06c"/></radialGradient><radialGradient id="o" cx="0" cy="0" r="819.2" gradientTransform="translate(42.6 12.55)scale(.0027)" gradientUnits="userSpaceOnUse" spreadMethod="pad"><stop offset=".141" stop-color="#ae8609"/><stop offset=".553" stop-color="#aa8200"/><stop offset="1" stop-color="#dbb06c"/></radialGradient><radialGradient id="p" cx="0" cy="0" r="819.2" gradientTransform="rotate(-66.801 15.591 24.533)scale(.0015)" gradientUnits="userSpaceOnUse" spreadMethod="pad"><stop offset=".553" stop-color="#eebf25"/><stop offset="1" stop-color="#dbb06c"/></radialGradient><radialGradient id="q" cx="0" cy="0" r="819.2" gradientTransform="rotate(45 -24.94 36.07)scale(-.0016 .0016)" gradientUnits="userSpaceOnUse" spreadMethod="pad"><stop offset=".553" stop-color="#eebf25"/><stop offset="1" stop-color="#dbb06c"/></radialGradient><radialGradient id="r" cx="0" cy="0" r="819.2" gradientTransform="matrix(-.0016 .0003 .0003 .0016 18.15 28.2)" gradientUnits="userSpaceOnUse" spreadMethod="pad"><stop offset=".553" stop-color="#eebf25"/><stop offset="1" stop-color="#dbb06c"/></radialGradient><radialGradient id="s" cx="0" cy="0" r="819.2" gradientTransform="translate(22.9 .85)scale(.0039)" gradientUnits="userSpaceOnUse" spreadMethod="pad"><stop offset=".141" stop-color="#ae8609"/><stop offset=".553" stop-color="#aa8200"/><stop offset="1" stop-color="#dbb06c"/></radialGradient><radialGradient id="t" cx="0" cy="0" r="819.2" gradientTransform="translate(-2.65 .85)scale(.0037)" gradientUnits="userSpaceOnUse" spreadMethod="pad"><stop offset=".141" stop-color="#ae8609"/><stop offset=".553" stop-color="#aa8200"/><stop offset="1" stop-color="#dbb06c"/></radialGradient><radialGradient id="u" cx="0" cy="0" r="819.2" gradientTransform="translate(15.2 2.05)scale(.0014)" gradientUnits="userSpaceOnUse" spreadMethod="pad"><stop offset=".553" stop-color="#eebf25"/><stop offset="1" stop-color="#dbb06c"/></radialGradient><radialGradient id="v" cx="0" cy="0" r="819.2" gradientTransform="translate(13.9 2.8)scale(.0016)" gradientUnits="userSpaceOnUse" spreadMethod="pad"><stop offset=".553" stop-color="#eebf25"/><stop offset="1" stop-color="#dbb06c"/></radialGradient><radialGradient id="w" cx="0" cy="0" r="819.2" gradientTransform="translate(12.65 3.45)scale(.0014)" gradientUnits="userSpaceOnUse" spreadMethod="pad"><stop offset=".553" stop-color="#eebf25"/><stop offset="1" stop-color="#dbb06c"/></radialGradient><radialGradient id="x" cx="0" cy="0" r="819.2" gradientTransform="translate(11.45 4.05)scale(.0012)" gradientUnits="userSpaceOnUse" spreadMethod="pad"><stop offset=".553" stop-color="#eebf25"/><stop offset="1" stop-color="#dbb06c"/></radialGradient><radialGradient id="y" cx="0" cy="0" r="819.2" gradientTransform="translate(10.15 4.25)scale(.0016)" gradientUnits="userSpaceOnUse" spreadMethod="pad"><stop offset=".553" stop-color="#eebf25"/><stop offset="1" stop-color="#dbb06c"/></radialGradient><radialGradient id="z" cx="0" cy="0" r="819.2" gradientTransform="translate(7.7 3.5)scale(.0013)" gradientUnits="userSpaceOnUse" spreadMethod="pad"><stop offset=".553" stop-color="#eebf25"/><stop offset="1" stop-color="#dbb06c"/></radialGradient><radialGradient id="A" cx="0" cy="0" r="819.2" gradientTransform="translate(5.05 2.05)scale(.0014)" gradientUnits="userSpaceOnUse" spreadMethod="pad"><stop offset=".553" stop-color="#eebf25"/><stop offset="1" stop-color="#dbb06c"/></radialGradient><radialGradient id="B" cx="0" cy="0" r="819.2" gradientTransform="translate(6.4 2.75)scale(.0015)" gradientUnits="userSpaceOnUse" spreadMethod="pad"><stop offset=".553" stop-color="#eebf25"/><stop offset="1" stop-color="#dbb06c"/></radialGradient><radialGradient id="C" cx="0" cy="0" r="819.2" gradientTransform="translate(8.9 4.05)scale(.0013)" gradientUnits="userSpaceOnUse" spreadMethod="pad"><stop offset=".553" stop-color="#eebf25"/><stop offset="1" stop-color="#dbb06c"/></radialGradient><radialGradient id="D" cx="0" cy="0" r="819.2" gradientTransform="translate(16.4 7.7)scale(.0024)" gradientUnits="userSpaceOnUse" spreadMethod="pad"><stop offset=".141" stop-color="#fff9f5"/><stop offset="1" stop-color="#dec2a7"/></radialGradient><radialGradient id="E" cx="0" cy="0" r="819.2" gradientTransform="matrix(0 0 0 0 0 0)" gradientUnits="userSpaceOnUse" spreadMethod="pad"><stop offset=".553" stop-color="#eebf25"/><stop offset="1" stop-color="#dbb06c"/></radialGradient><linearGradient id="b" x1="-819.2" x2="819.2" gradientTransform="matrix(.0036 .0043 -.0063 .0053 37.45 15.05)" gradientUnits="userSpaceOnUse" spreadMethod="pad"><stop offset="0" stop-color="#2c2c2c"/><stop offset="1" stop-color="#585858"/></linearGradient><linearGradient id="c" x1="-819.2" x2="819.2" gradientTransform="matrix(0 .0028 -.0093 -.0001 9.4 32.8)" gradientUnits="userSpaceOnUse" spreadMethod="pad"><stop offset="0" stop-color="#2c2c2c"/><stop offset="1" stop-color="#585858"/></linearGradient><linearGradient id="d" x1="-819.2" x2="819.2" gradientTransform="matrix(-.0033 .0043 -.0047 -.0037 -9.2 28.2)" gradientUnits="userSpaceOnUse" spreadMethod="pad"><stop offset="0" stop-color="#2c2c2c"/><stop offset="1" stop-color="#585858"/></linearGradient><linearGradient id="e" x1="-819.2" x2="819.2" gradientTransform="matrix(.0005 -.0045 .0207 .0025 -3.8 30.95)" gradientUnits="userSpaceOnUse" spreadMethod="pad"><stop offset="0" stop-color="#3c3c3c"/><stop offset="1" stop-color="#191919"/></linearGradient><linearGradient id="f" x1="-819.2" x2="819.2" gradientTransform="matrix(-.0011 -.0044 .0202 -.0051 23.45 29.3)" gradientUnits="userSpaceOnUse" spreadMethod="pad"><stop offset="0" stop-color="#3c3c3c"/><stop offset="1" stop-color="#191919"/></linearGradient><linearGradient id="g" x1="-819.2" x2="819.2" gradientTransform="matrix(-.0005 .0179 -.0182 -.0005 10.3 25.4)" gradientUnits="userSpaceOnUse" spreadMethod="pad"><stop offset="0" stop-opacity=".8"/><stop offset="1" stop-color="#fff" stop-opacity=".498"/></linearGradient><g id="a" fill-rule="evenodd"><path fill="#191919" d="m58.7 30.55-.2-.25.05.05z"/><path fill="#171515" fill-opacity=".8" d="m59.5 13.75.95.45v.05q1 .25 1.75.6.6.25 1.05.6l1.35 1 .95.3.25 1.95-.05 1.1v.05l-.1.3-.3-.35-.3-.3-.25-.25-2.05-1.8-4.3-2.85-2.5-1.5-3.1-1.8-.65-.35q1.75.3 4.35 1.45 1.35.6 2.95 1.35m-57.3 5.1L2.15 17q0-.2 1.55-.65l3.45-.5-2.1 1.2zm26.25 5q3.05-3.25 4.75-3.9-.5.55-2.3 5.05l-1.95 4.7q-.3.05-.3.25L26.6 31.1l-1.75 1.3-1.6 1.35q-2.15 1.95-2.85 3.6v-.05q.5-2.15 1.3-3.75.9-1.95 2.25-3.1l.1-.2q.8-2.15 2.75-4.5z"/><path fill="#191919" fill-opacity=".498" d="m65.05 19.5-1.45-.7-1.1-.1-1.6-.1-.95-.2-.9-.3-1.15-.3-.6.1q.05 1.2 2.95 3.95 2.8 2.75 4.15 3.05l.1-1.1.6.55.1.05-.3.4q-.4 1.2-2.55 3.85-1.55 1.85-2.65 2.7l-.45-.45-.65-.7-.5-.5.4.6-1-1-2.2-1.95-6.95-5-5.15-3.25 6.25 10.7 1.75 3.15 1.85 3.2-.05.05.25.35.1.2-1.4.55-.75-1.2q-1.15-1.8-2.3-2.85-.65-.65-1.35-1l.75 1.05.8 1.55.95 2-.15-.05-.75.1-1.15.35-2.05 1.05q-1.85.9-2.75.9l-1.75-.1-.05.05v-.05l-.05-.1-1.45-4.9-2.15-4.2-2.55-3.95.25 2.25-.05.7q-.35-.05-1.15-1.85l-.55-1.35-.15.25Q31.2 29 28.8 34.1q-.9 2.6-1.5 5.15L25.4 39l-2.1-.05-3.15-.55-2.3-1-.4-.25.1-.35q2.3-7 4.05-9.6l-2 2.1 1.05-1.85.5-.9-.6 1-3.65 3.3-1.35 1.35-2.05 2.25.1.15q.75.8-.25 0l-.05-.05L12 34q-.6-.2-2.1-1.35l-1.5-1.3 1.5.25.35-.05-1.55-.9-2.2-1.25-2.2-2.55-.05-.05q4.6-6 11.15-10.5l.25-.15-.7.2-.15.05-.15.05L8.1 19.7q-3.35 1.95-6.15 4.35l1.2-1.15.05-.1q-1.35-2-1.5-3.55l.5-.4 2.85-1.8 2.1-1.2 4.9-2.75 3.1-1.8 1.1-.6 1.15-.8 3.3-2.55 1.6-.95 1.45-.7.3-.6.1.05.25-.1 20.1.05.05.05.1-.05.5 1.05.55.25 1.6.95 3.3 2.55 1.15.8.45.25.65.35 3.1 1.8 2.5 1.5 4.3 2.85 2.05 1.8zm-36.6 4.35-1.65 1.9q-1.95 2.35-2.75 4.5l-.1.2q-1.35 1.15-2.25 3.1-.8 1.6-1.3 3.75v.05q.7-1.65 2.85-3.6l1.6-1.35 1.75-1.3 2.05-1.15q0-.2.3-.25L30.9 25q1.8-4.5 2.3-5.05-1.7.65-4.75 3.9"/><path fill="#0e0e0e" fill-opacity=".6" d="M65.75 19.8h.35l.45.05.45.25-1.7 2.1q-.6.75-.8 1.6l-.1 1.1q-1.35-.3-4.15-3.05-2.9-2.75-2.95-3.95l.6-.1 1.15.3.9.3.95.2 1.6.1 1.1.1 1.45.7.3.3.3.35.1-.3zm-13.8 17.5-.25.05h-1.3l-.2-.45-.15-.05-.95-2-.8-1.55-.75-1.05q.7.35 1.35 1 1.15 1.05 2.3 2.85zm-34.5-.15-.15.45-1.4-.65-2-1.75.05-.05-.6-.55q1 .8.25 0l-.1-.15 2.05-2.25 1.35-1.35 3.65-3.3.6-1-.5.9-1.05 1.85 2-2.1q-1.75 2.6-4.05 9.6zm-9.05-5.8-.05-.1.35-.6 1.55.9-.35.05zM4.25 26.8q-1.6-2.1-2.35-2.7l.05-.05q2.8-2.4 6.15-4.35l6.55-3.25.15-.05.15-.05.7-.2-.25.15Q8.85 20.8 4.25 26.8"/><path fill="#191919" fill-opacity=".4" d="m59.7 31.35.3.4-1.25.95q-.65.3-1.05.55l-4.3 3.55-.05-.05-.1-.2-.25-.35.05-.05-1.85-3.2-1.75-3.15-6.25-10.7 5.15 3.25 6.95 5 2.2 1.95 1 1-.4-.6.5.5.65.7zm-18.3 7.8v.1l-.15.05-.75.4-2.25.45-1.2.1q-1.55 0-2.8-.55l-.85-.5q-.8-.35-1.3-.35-.6 0-1.4.45l-.5.2-1.65.2-1.1-.35-.15-.1q.6-2.55 1.5-5.15 2.4-5.1 4.75-8.15l.15-.25.55 1.35q.8 1.8 1.15 1.85l.05-.7-.25-2.25 2.55 3.95 2.15 4.2 1.45 4.9.05.1zm17.3-8.6-.15-.2-.05-.05z"/><path fill="#191919" fill-opacity=".6" d="m66.55 19.85-.45-.05h-.35l.05-1.1-.25-1.95-.95-.3-1.35-1q-.45-.35-1.05-.6-.75-.35-1.75-.6v-.05l-.95-.45.95-.05.95.2.6.65q.2-.3 2.3-.75h2.85q.9 2.25-.35 5.2z"/><path fill="#2c2a2a" d="m64.05 21.6 1.05.95.1.05-.8 1.1-.65.25-.05-.05-.1-.1q-3.2-2.7-5.7-3.2-1.2-.2-3.6-5.85-1.8-4.3-2.75-5.7l-.35-.45.5.45 3.55 3.5q4.25 4.75 8.8 9.05M52.2 9.15q1.75.3 4.35 1.45l3.9 1.8v.05q1.8.45 2.8 1.2l1.35 1 .95.3.25 1.95-.15 1.45-.85-.9-2.05-1.8q-4.6-3.15-6.8-4.35l-3.1-1.8zM4.3 23.9l-.95-1.75h.05l-.1-.1-.55-.55.45-.5q.95-.95 2.55-1.85l1.75-1 5.25-5.6L16.8 8.6q-.95 1.05-3.1 6.15-2.4 5.65-3.6 5.85-2.25.45-5.05 2.7l-.65.5zm-2.1-6.85-.05-1.85q0-.2 1.55-.65l3.45-.5-2.1 1.2z"/><path fill="#4d4a4a" d="M3.2 21q-1.35-2-1.5-3.55l.5-.4 2.85-1.8 2.1-1.2 4.9-2.75 3.1-1.8 1.1-.6 1.15-.8-.35.35-.25.15-4.05 3.95-5.25 5.6-1.75 1q-1.6.9-2.55 1.85"/><path fill="#1e1e1e" d="m63.7 23.9-.05.05-.25.15h-.05l-.75.45q-.55.4-1 .95l-1 1.2-.25.4q-2.65 2.15-5.3 3.15-.2-1.2-1.35-1.7h-.15L53 29q-.35.9-.1 1.9l-.8.1-10.35 1.3-.3-2.25q-.35-4.5-.2-12.85.25-8.8.95-12.4.25-1.25.45-1.45 1.2.25 3.05 1.25l1.6.95 3.3 2.55.35.35.25.15.35.45q.95 1.4 2.75 5.7 2.4 5.65 3.6 5.85 2.5.5 5.7 3.2zM17.4 8.1l3.3-2.55 1.6-.95q1.85-1 3.05-1.25l.45 1.45q.7 3.6.95 12.4.15 8.35-.2 12.85l-.3 2.25L15.9 31l-.6-.1q.7-.95-.7-1.45-.9.25-1.4 1.25l-.1-.1v.25q-1.75-.4-3.55-1.65-.3-.75-1-1.05L7.2 27.2 6 25.1q-.6-1.2-1.25-1.2l-.35.1-.1-.1.1-.1.65-.5q2.8-2.25 5.05-2.7 1.2-.2 3.6-5.85 2.15-5.1 3.1-6.15l.25-.15z"/><path fill="url(#b)" d="m41.25 15.65.95 1.05q-.6-.15-.7.15l-.7.5q-.9.7-1.15 1.55-4.55-4.3-8.8-9.05l-3.55-3.5-.5-.45-.25-.15-.35-.35 1.15.8.45.25.65.35 3.1 1.8q2.2 1.2 6.8 4.35l2.05 1.8z" transform="translate(24.4 2.7)"/><path fill="#2c2c2c" d="M49.45 28 43.2 17.3l5.15 3.25 6.95 5 2.2 1.95 1.35 1.45-.3-.4-.45-.65 1.15 1.2.75.85-1.25.95q-.65.3-1.05.55l-.8.6-2.55 2.15-2.65-3.5zM8.3 29.7l.1-.05.9-.15q.75 0 1.55.55l-.1.25-.2 1z"/><path fill="#0e0e0e" d="m50.05 35.05-.95-2-1.55-2.6q1.9 1.05 3.65 3.85l.75 1.2-.25.05h-1.3l-.2-.45zm3.3-.1-.1-.2-.25-.35.05-.05-3.6-6.35 2.25 2.7 2.65 3.5-.6.5-.15.15-.2.15zm-35.1-20.5-1 1.85q-4.4 8.1-6.5 11.35l3.1-2.45q2.5-2.05 6.5-4.65l5.25-3.3h-.05l-4.4 7.5-.6 1-3.65 3.3-3.55 3.75-.45-.6-.35-.55-1.15-1.2-.55-.4q-.8-.55-1.55-.55l-.9.15-.1.05h-.1l1.4-2.25 2.15-3.25q1.8-3.45 3.85-6.4zM30.9 23.2l-1.95 4.7q-.3.05-.3.25-1.25.45-3.8 2.45-3.5 2.75-4.45 4.95v-.05q1.1-4.75 3.55-6.85l.1-.2q1.15-2.95 4.4-6.4 3.05-3.25 4.75-3.9-.5.55-2.3 5.05"/><path fill="url(#c)" d="M10 20.45q1.65 1.95 3.35 4.95l2.15 4.2 1.45 4.9.05.1v.15l-.15.05-.75.4-2.25.45-1.2.1q-1.55 0-2.8-.55L9 34.7q-.8-.35-1.3-.35-.6 0-1.4.45l-.5.2-1.65.2-1.1-.35-.15-.1q.6-2.55 1.5-5.15 2.8-5.95 5.5-9.15l.05 5.1z" transform="translate(24.4 2.7)"/><path fill="url(#d)" d="m-11.05 30.1 3.55-3.75 3.65-3.3.6-1-.5.9-2.4 4.15-.4.75-1.9 3.25-.1.2-.15.25-.05.1.25.1.05.2h-.2l-1.55-1.05z" transform="translate(24.4 2.7)"/><path fill="url(#e)" d="m-3.25 22.05 4.4-7.5h.05l-5.25 3.3q-4 2.6-6.5 4.65l-3.1 2.45q2.1-3.25 6.5-11.35l1-1.85L-.35.6l.1.05.25-.1h9.9v19.9q-2.7 3.2-5.5 9.15-.9 2.6-1.5 5.15L1 34.5l-2.1-.05-3.15-.55-2.3-1-1.4-.95-.1-.05h-.05l-.2-.05-.2-.1-.25-.1.05-.1.15-.25.1-.2 1.9-3.25.4-.75 2.4-4.15zM6.5 20.5q1.8-4.5 2.3-5.05-1.7.65-4.75 3.9-3.25 3.45-4.4 6.4l-.1.2Q-2.9 28.05-4 32.8v.05q.95-2.2 4.45-4.95 2.55-2 3.8-2.45 0-.2.3-.25z" transform="translate(24.4 2.7)"/><path fill="url(#f)" d="m33.7 25.2.45.65.3.4-1.35-1.45-2.2-1.95-6.95-5-5.15-3.25 6.25 10.7 3.6 6.35-.05.05.25.35.1.2-1.4.55-.75-1.2q-1.75-2.8-3.65-3.85l1.55 2.6.95 2-.15-.05-.45-.05q-.55 0-1.45.5l-1.15.75-.55.35q-1.55.85-3.1.85l-1.75-.1-.05.05v-.05l-.05-.1-1.45-4.9-2.15-4.2q-1.7-3-3.35-4.95V.55h9.9l.25.1.1-.05 6.8 13Q31.6 22 33.7 25.2" transform="translate(24.4 2.7)"/><path fill="#fff" fill-opacity=".298" d="M61.25 12.35h2.55q.85 1.85-.3 4.3l-.2.75.4.2-1.55 1.75q-.55.6-.7 1.3l.5.45.1.05-.25.35q-.35 1-2.3 3.2l-2.4 2.25.25.35q-.2.4-1.1.75l-.95.5-3.9 2.95-.05-.05-1.25.45-.2.05h-1.2l-.15-.4h-.15l-.15-.05-.65.05-1.05.3q-1 .5-1.85.9-1.7.75-2.5.75l-1.55-.1-.05.05v.05l-.15.05-.65.35-2.05.35-1.1.1-2.5-.45q0-.15-.8-.4l-1.15-.3q-.55 0-1.25.35l-.45.2-1.5.15-1-.3-.15-.1-1.7-.2-1.9-.05-2.85-.45-2.05-.8q-.25-.15-.35-.2l-.15.35-1.25-.55-1.8-1.45v-.05l-.5-.45-.05-.05-1.2-.45-1.9-1.1-1.35-1.1-.05-.1.35-.5-2-1.05-2-2.1q-1.45-1.8-2.15-2.3l1.15-1v-.05q-1.2-1.7-1.35-2.95l.45-.35L5.15 15q0-.15 1.4-.55l3.15-.4 4.4-2.3 2.8-1.5 1-.5q.4-.3 1.05-.65l2.95-2.15 1.45-.75 1.3-.6.3-.5.05.05.25-.1h8.95l.05 2.6v-2.6h8.95l.25.1.05-.05.45.85.5.25q.75.3 1.45.75l3 2.15 1.05.65.4.2q1.55.25 3.9 1.2l2.65 1.15.9-.05.85.15.55.55q.15-.25 2.05-.6"/><path fill="#383838" d="M62.7 14.3h-.05q1.05 1.15 1.05 2.5 0 .9-.75 1.25l-.6.15q-.55-.05-1.55-.8-.75-.55-2.1-1.4l2.95 2.85.05.15.15 1.25q0 1.4-1.45 2.25-.6-1.1-1.15-1.65l-4.5-3.75-.6-.5-2.05-.9h-.9v.2l.9 1.2.7 1.1q.15.6.65 1.05l.95.65.1.05-1.5-.2-2-1.55v.6l.55 1.75L50.7 19l-4.3-5.9q-2.3-3.05-4.45-4.8-1.8-1.4-2.55-1.3v.9l1.1 5.35.55 2.15.65 1q1.25 2.05 2.4 5.4l.75 2.4.25.8-1.1-2.8-.05.3.5 4-.1 1.5q-1.75-3.95-2.25-4.4l-.7 5.6h.2q1 .9 1.9.9 1.3-.3 1.5-.55l.4.15q.25 0 .5-.2l.2-.45.55 2.45-2.3.25h-.4l-.6-.65-1.9-1.8q.55.65.9 1.6l.1.65-.3-.15-.1.3q-.4.8-1.45 1.3l-2.35.5-.7-.95-.65-.9 1.15-1.05q.6 0 1.3 1.05L40.2 33l-2.3-5.2q-1.6-4.3-1.6-9.9l.05-4.5L36 5.9h-.1q-1.1 2.6-1.6 5.3l-.05.25-.1.45-.7 4.55-.1 1.45-.05 4v1q.05 3.05.55 5.6l-.15.45-.3 1.25-.7-.2-.6-.2-.15.35-.5-1.2q-.6-1.35-.95-1.45-.3.55-.3 2.8l.3 1.3.8-.2.25-.1-.05.2.7.1-.25.3-.85.95q-.5.55.9.4l-1.1.25-.5-1.5-.4-2.7-.05-.4-.05-1.85.2-5.45.2-1.2q-1.25 1.75-2.15 5.25-.5 2.1-.9 4.65v.25l-.15 1.05-.1.5v.1l-.05-.05-.4-.75-.3.15.05-1.8-.6 1-.4.95-.95.05q-3.15 0-4.8-1.7-1.2-1.2-1.25-2.65l-.4.15.3-.75.35-.6.25-.3.25-.05.45-.15.9-.3.8 2.4.8.85.7.75v-.7l-.25-1.1.95-1.35 2.9-3.95 1.7-2.65q1.1-1.85 2.1-2.85l3-2.75.6-.6.1-.3v-.1q-.4-1.25-.4-2.85l-.1-4.45-1 .55.35.1q-.7.35-2.25 2.55-2.35 3.3-5.2 8.85-1.35 2.6-2.15 6.5l-.7 3.1-.35-.7-.15-1.25q-.05-.65-.7-.65l-1.05.2.55-3.45q.45-2.15 1.85-4.05v-.8l-2.1 1.95-1.3 1.4.3-.55 1.7-2.05 2-2.05 4.5-4.55q3.1-3.4 5.15-6.35h9.6L52.4 8.05q10.4 3.8 12.45 5.65l-.95.3-.25-.15q-1.6-1.1-3-1.5h-.5l2.15 1.6zm-4.75 8.9v.15q-.1 2.4-1.8 3.55-1.4.9-3.35.9l-1.2-.1-.95-1-.55-.55-.2-.1.1-.45.2-.45q0-2.3-1.25-4.8l-.7-1.3.2.2 3.45 3 .85 1.35 1 1.4q.5 0 .95-.8.4-.75.4-1.55 0-.95-1.1-2.05l-.85-.7q1.6.25 2.95 1.3l.9.8q.85.75.95 1.2M36.7 33.25l-.35-.15h-.1l-.85.75.95-1.45.35-.5.05.1q.15.95-.05 1.25m-1.35.6L35 34l-.6.25v.05h-.1v-.05l-.65-.25-.65-.35-.15-.45-.45-1.55q.45.1.75.35.6.5 1.15.5l.5-.35zM12.4 26.8l-.45-.4-.3-.3q-.15-.45.1-1.4.35-1.55 1.7-3.1l.7-.65-1.8 1.2-1.4 1.2-.15.45v-.25l-.05-.4q-1.2-.05-2.4-.65Q7 21.75 6.9 20.55l.5-.9 1.05-1.5.3-.35q1.55-1.5 2-1.7l-.2.05-.4.2q2.1-2.15 3.05-2.55 1.9-.9 2.65-2l1.25-1.5v-.4h-.9l-2.5 1.75-1.15.8-.6.35q-1.55.5-4.2 1.95l-2.7 1.6.15-.75 1.1-1.55 1.35-1.6-2.25.65-1.25.35Q6.5 11.7 16.25 8.1q5.25-1.95 10.1-3.6h4.7L30 5.1q-1.25.6-2.05 1.85L26.4 8.8q-1.4 1-2.5 2.25l-.65.75-4.95 2.95q-4.45 2.8-5.25 4l1.45-.65q.9 0 .9.9l-.3 1.15-.6 1.65-.1 1.2q-.75 1-.9 1.7-.1.6-.7 1.4zM6 18.15l-.25-.1-.55-.45zm48.45-6.75q-5.45-2.45-9.7-3l2.55 1.8 2.5 1.75q1.65 1.2 3.4 1.85l4.45 1.25q2.2.5 3.75 1.35-.95-2.3-6.95-5m-9.65 5.35.3.65.75 1.75-.05-.05-.1.5h-.25l-.55-.45-.3-1.05v-1.3zm2.85 5.95.75 1.5-.4-.6zM37.4 13.9l.1.6.45 3.05q.5 3.2.75 3.75.75 1.75 1.7 3h.3l.2-4.3q0-3.85-1.3-6.6l-1.1-3.2q-.5-1.55-1-1.4l-.05 2.4zM25.5 27.35l.25.6.3.7.4.5.6.85.6-4.4.6-1.95.7-1.7.1-.35.1-.35Q24.8 24.6 24.8 25q0 .8.7 2.35m-7.3-5.9-.5.95q-.6.75-.6 1.4l.3 1.1-.5-.9q0-.55 1.05-2.2l.15-.2zm-.8 3.45.1.2.25.4-.6-.2.05-.1z"/><path fill="#272727" d="m63.9 14-1.2.3-.4-.35-2.15-1.6h.5q1.4.4 3 1.5zm-1.55 4.2-.9.05h-.25l.45.6L58.7 16q1.35.85 2.1 1.4 1 .75 1.55.8m-2.75 4.65-1.65.3v.05q-.1-.45-.95-1.2l-.9-.8q-1.35-1.05-2.95-1.3l-.85-.1.7-.05 1.5.2q1.35.4 3.35 1.7zm-8 4.85-.5-.1-.75-.2v.2l-.1.5-.15-.3-1.1-1.95-.25-.35-.45-.4h.25l.1.1.3.25.65.5.3.1.2.1.55.55zm-7.65 4.05-1.5-.2-.1-.65q-.35-.95-.9-1.6l1.9 1.8zm-5.7 1.75h-.05l-1.5-.25q.2-.3.05-1.25l-.05-.1q-.15-.9-.75-1.4v-.15l.95 1.3.65.9zm-5.25.15-.6-.55h-.1l-.3.15q-1.4.15-.9-.4l.85-.95.25-.3.1-.3.1.35.45 1.55zm-6.75-2.1-.95.15.4-.95.6-1zm-8.35-4-.3.05-.3.05-1.15.15 1.9-2 .7-.6.75-.5-.1.3-.6.9-.25.3-.35.6zm-6.25-1.45q-.7-.95-.85-2.3l.15-.45 1.4-1.2 1.8-1.2-.7.65q-1.35 1.55-1.7 3.1-.25.95-.1 1.4M6.9 20.55l-.05-.3.1-1.25.1-.2.45-.55h-.9l3.55-1.9.4-.2.2-.05q-.45.2-2 1.7l-.3.35-1.05 1.5zM5.2 15.6l.8-1.3-2.2-.6.35-.25 1.25-.35 2.25-.65-1.35 1.6z"/><path fill-opacity=".812" d="m22.35 27.4.7-3.1q.8-3.9 2.15-6.5 2.85-5.55 5.2-8.85 1.55-2.2 2.25-2.55l-.35-.1 1-.55.1 4.45q0 1.6.4 2.85v.1l-.1.3-.6.6-3 2.75q-1 1-2.1 2.85l-1.7 2.65-2.9 3.95-.95 1.35-.35.3z"/><path fill-opacity=".8" d="M60.4 22.5h-.05q-.4.2-.75.35l-1.75-1.2q-2-1.3-3.35-1.7l-.1-.05-.95-.65q-.5-.45-.65-1.05l-.7-1.1-.9-1.2v-.2h.9l2.05.9.6.5 4.5 3.75q.55.55 1.15 1.65m-10.15 5.6q-.25 1.05-1.1 1.95-1 1-2.5 1.45l-.55-2.45-1-4V25l-.25-.8-.75-2.4q-1.15-3.35-2.4-5.4l-.65-1-.55-2.15-1.1-5.35V7q.75-.1 2.55 1.3 2.15 1.75 4.45 4.8l4.3 5.9.85 1.55.55 1.85-.2-.15-3.45-3-.2-.2q-2.7-2.35-3.35-2.35l-.1.05-.2.05v1.3l.3 1.05.55.45h.25l.1-.5.05.05q.5.4 1.05 1.7l.75 1.85.35.9.4.6 1 1.4.2.35-.65-.5-.3-.25-.1-.1h-.25l.45.4.25.35 1.1 1.95zM35.4 33.85h-.05l-.55-1.7-.5-1.65-.45-2q-.5-2.55-.55-5.6v-1l.05-4 .1-1.45.7-4.55.1-.45.05-.25q.5-2.7 1.6-5.3h.1l.35 7.5-.05 4.5q0 5.6 1.6 9.9l2.3 5.2-.85-1.35q-.7-1.05-1.3-1.05l-1.15 1.05-.95-1.3v.15q.6.5.75 1.4l-.35.5zm-4.5-.35h-.4l-2.4-.5-1.05-.75-.05-.05v-.1l.1-.5.15-1.05v-.25q.4-2.55.9-4.65.9-3.5 2.15-5.25l-.2 1.2-.2 5.45.05 1.85.05.4.4 2.7zm-14.75-5.7h-.25l-1.05-.05-.8-.15-1.5-.7-.15-.1.4-.7q.6-.8.7-1.4.15-.7.9-1.7l.1-1.2.6-1.65.3-1.15q0-.9-.9-.9l-1.45.65q.8-1.2 5.25-4l4.95-2.95.65-.75Q25 9.8 26.4 8.8l1.55-1.85Q28.75 5.7 30 5.1l1.05-.6h1.7q-2.05 2.95-5.15 6.35l-4.5 4.55-2 2.05-1.7 2.05-.3.55-.9 1.4-.1.15-.15.2Q16.9 23.45 16.9 24l.5.9-.2.3-.05.1.6.2.3.3zM6.6 18.25l-.6-.1-.8-.55-.2-.8.05-.45 2.7-1.6q2.65-1.45 4.2-1.95l.6-.35 1.15-.8 2.5-1.75h.9v.4l-1.25 1.5q-.75 1.1-2.65 2-.95.4-3.05 2.55zm47.85-6.85q6 2.7 6.95 5-1.55-.85-3.75-1.35L53.2 13.8q-1.75-.65-3.4-1.85l-2.5-1.75-2.55-1.8q4.25.55 9.7 3M37.4 13.9l.05-2.7.05-2.4q.5-.15 1 1.4l1.1 3.2q1.3 2.75 1.3 6.6l-.2 4.3h-.3q-.95-1.25-1.7-3-.25-.55-.75-3.75l-.45-3.05zm-4.1 9 .6 5.15.05.15q.3 2.55.85 3.65l.3.45.4-3.85q0-1.6-.85-4.4l-.1-.25-.4-.55q-.4-.4-.85-.35"/><path fill="url(#g)" d="M36.05 12.3q0 .9-.65 1.25l-1.35.2h-.2l.45.75.1 1.25q0 1.4-1.3 2.25-1.1.6-2.15.65-.05 2.55-1.6 3.75-1.2.9-2.95.9l-1.5-.2-.65-.2q-.05 1.45-1.1 2.65-1.45 1.7-4.25 1.7l-1.95-.35q-.25 1-1.35 1.6l-2.15.5-1.6-.4h-.1l-1.1.9-.55.25v.05H10v-.05l-.55-.25q-.65-.3-1.1-.9h-.1q-.7.4-1.6.4-1.2 0-2.15-.5-1.1-.6-1.35-1.6l-1.95.35q-2.8 0-4.25-1.7-1.05-1.2-1.1-2.65l-.65.2-1.5.2q-1.75 0-2.95-.9-1.55-1.2-1.6-3.75Q-11.9 18.6-13 18q-1.3-.85-1.3-2.25l.1-1.25.45-.75h-.2l-1.35-.2q-.65-.35-.65-1.25 0-1.35.9-2.5L-17 9.2q1.7-1.7 11-5.6L2.95 0h14.2q4.3 1.6 8.9 3.55 9.2 3.8 11.05 5.65l-1.95.6q.9 1.15.9 2.5" transform="translate(24.4 2.7)"/><path fill="#100f0f" fill-opacity=".8" d="m59.8 10.3-1.2-.6h-2v1.4l1.4 2.1q1.3-.1 1.8.4l.2.25-.05.05.15.15h.2q.45 0 .85.4l.2.2q.55.6.55 1.2l-.15.85-.65.1-1.25-.4-.5-.3-.15-.15-.05.05.2.1.3 1.25v.7l-.5.4q-.5 0-1.2-.55l-.15-.1-.4.25-.15.5q-.25.65-.7.65-.4 0-.9-.5l-.4-.5-.9-.25-.15-.05-.2-.05v.85h-.6l-1.1-.6-.55-.55h-.05l-.05 1.4h-.75l-.6-.35q.7.7.7 1.5 0 .65-.5.8h-.1l.05.25q.4.05.65.25.55.35.55 1.35l-.15.8-.5.15-.3-.05.05.7-.35.85-.75.25q-.5 0-.85-.5h-.3l-1.35-.15-.3-.45-.75.2q-.75 0-1.25-.5l-.05.25.15.2.05.9-.25 1.15-.6.2-.35-.25v.05l-.05.25.4-.05.35.3.15.85-.05.55-.6.35h-.55l-.05.3-1.05-.45-.3.2-.65.1q-.65 0-.8-.35l-.15-.8-.05-.05-.7.45h-.9q-1.3 0-1.55-.5l-.1-.75-.45.1-.65-.15q-1.4-.35-1.4-2.2l.1-.85v-.05l-.45-.2q-.8-.35-.8-.85v-.05h-.25l-.35-.05v.05q0 1.5-1.1 1.5l-.4-.05q0 1.55-1 1.8h-.95l-.15.35q-.45.75-1.25.75t-1.15-.85l-.05-.15h-.1q-1.1 0-1.1-.8 0-.4.15-.7l-.15-.1-.5.5h-1.9l-.1-.9q0-.8.5-1.2l-.05-.1-.1-.2-1.1-.35q-.4-.35-.4-1.2l.05-.95v-.1l.75-.4-.3-.35-.3-.1-.2.05-.35.1-.1.05v.1l-.15.15v.55q-.3.7-1.2.7h-.15l-.75-.35-.65-.65-.15-.1v-.15l-.2-.05-.3.7q-.35.5-1.05.5-.55 0-.7-.25l-.1-.7.25-.75.15-.2-.15-.1-.75.6-1.3.25-.7-.1-.15-.55q.5-1.25 1.3-1.8l-.1-.1q-.3.25-.65.3h-2.4q-.4-.1-.4-.8t.9-1.05l1.1-.35-2.1.05q-2-.15-2-1.1 0-.6.85-1.2l1-.55-1.6-.35q-1.25-.45-1.25-1.25 0-1.2 2.75-1.4l.45.1-.95-.3-1.3.4-1.3.4q1.75-2.15 7.85-4.55Q22.1 2.85 26.8 2.9q-.8 2.25.7 4.1 1.7 2.1 5.5 2.1 3.45 0 7.7-3.2l3.6-3.2q1.3 0 8.75 3.35 7 3.15 8.35 4.05l-.15.1-.05.1zm-9.95 8.25h.4l-.3-.15z"/><path fill="#fff" fill-opacity=".2" d="m46.3 10.25-.2.3-.2.45-.3.9-.7-1.45-2.3-4.05-.8-1.2.35.3q1.2.85 2.75 2.8zm-23.7 0L24 8.3q1.55-1.95 2.75-2.8l.35-.3-.8 1.2-2.3 4.05-.7 1.45-.3-.9-.2-.45z"/><path fill="#fff" fill-opacity=".298" d="m28.45 3.55.5.25-1.35 1 .4-.75.05-.05.05-.05.05-.1zm11.5.25.5-.25.3.3.05.1.05.05.05.05.4.75q-.9-.75-1.35-1"/><path fill="#fff" fill-opacity=".4" d="m35.05 21.85-.55.45v.1l-.05-.05-.05.05v-.1l-1.05-.9v-1.45l.05-1.25.2-1.7.4-2.2q.15-.95.35-1.05zM32.65 5.2l.05-.05v.05zm3.55-.05.05.05h-.05zm-.25 8.55-.9-1.35q-.4-.9-.45-1.35l-.05-.2.05-.5.2-1 .25-1.8-.25-1.65V5.1l.4.35.25.25.1.9q.35.25.6 2.3.2 1.85-.1 2.6l-.1 1.5zM33.7 5.45l.4-.35v.75q-.25.2-.25 1.65v.1l.1 1.15v.4q0 1.15-.95 2l-.75.85-.1-.3-.05-.85q0-1.4.4-2.75l.8-2.1z"/><path fill="#747474" fill-opacity=".2" d="M50.1 18.35v.15l-.2-.2-.05-.05-.25-.3q-2.3-2.3-4.45-3.3v-.05l.45-2.65v-.05l.3-.9.2-.45.2-.3.25-.5q.75-1 1.7-1l.65.2.6.65.35.75q.35.95.35 2.35 0 4-.2 5.2z"/><path fill="#fff" fill-opacity=".259" d="m28.95 3.8.35-.1.6.4.7 1.4.25.3-1.7 2.65q-3.65 6.05-3.75 9.2v-3.3q.4-5.8.85-6.8L27.6 4.8z"/><path fill="#747474" fill-opacity=".4" d="m42.15 21-1.1-.5q-1.35-.65-2.45-.65-1.3 0-2.75 1.25l-.8.75-.7-8.1q-.2.1-.35 1.05l-.4 2.2-.2 1.7-.05 1.25v1.45l-.3-.3q-1.45-1.25-2.75-1.25-1.1 0-2.45.65l-1.1.5q.55-4.85 2.15-9.6 1.55-4.8 2.1-5.5l.5.05q.35-.55 1.15-.75h.05v-.05l.7-.25h.15l.75.2.15.2.15-.2.75-.2h.15l.7.25v.05h.05q.8.2 1.15.75l.5-.05q.55.7 2.1 5.5 1.6 4.75 2.15 9.6m-6.7-15.3-.25-.25-.4-.35v.75l.25 1.65-.25 1.8-.2 1-.05.5.05.2q.05.45.45 1.35l.9 1.35.15.3.8 1.8q1.05 1.65 1.65 1.85v-.25l.7-2.8-.1-1.2q-.2-1.95-.95-3.85l-1.5-2.8-.65-.75q-.25-.3-.65-.45zm-1.75-.25-.4.55-.8 2.1q-.4 1.35-.4 2.75l.05.85.1.3.75-.85q.95-.85.95-2v-.4l-.1-1.15v-.1q0-1.45.25-1.65V5.1z"/><path fill="#fff" fill-opacity=".6" d="m52.9 12-.3 1.3q-1.25 5-2.5 5.05l-.1-.45q.2-1.2.2-5.2 0-1.4-.35-2.35l-.35-.75-.6-.65L46.6 7l1.55.75L49.4 8.9q1.55 1.75 3.2 2.75z"/><path fill="#464646" fill-opacity=".6" d="m62.35.9.2-.05.2-.05.1.05V.9l.15.35.15.8-.1 1.25.25-.05h.4l.9.1.8.55h.1l.2 1q0 2.15-.75 4.05 2.35.9 2.35 1.75 0 .8-1.25 2-1.3 1.2-2.15 1.2-.5 0-.9-.6l-.15-.1-8-4.85-.6-.25-.15.25.6-1.2-.75 1.2Q53.35 9.9 52.9 12l-.3-.35q-1.65-1-3.2-2.75l-1.25-1.15L46.6 7l2.3 1.95-.65-.2q-.95 0-1.7 1l-.25.5-1.4-1.95q-1.55-1.95-2.75-2.8l-.35-.3-.9-1.15-.05-.05-.05-.05-.05-.1-.3-.3.4-.05 1.1.3h.15l1.6-.3 1.45-.15 1.45-.1q2.45 0 6.05 1.15 2.05.65 1.75 2.85v.1l.15-.4.85-1.5q.8-1.1 1.75-1 .8.7.6 2.25t-.05.75v.15q-.1.65.25 1.35h.3l.2.05.15-.2.3-.2q.65-.65 1.15-2.15l.4-1.5.6-2.15.3-.75q.45-.95 1-1.15M18.8 18.35q-1.25-.05-2.5-5.05-.6-2.95-1.35-4.95l-.75-1.2.6 1.2-.15-.25-.6.25-7 4.25-1 .6-.15.1q-.4.6-.9.6-.85 0-2.15-1.2L2.2 12q-.6-.75-.6-1.3 0-.85 2.35-1.75-.75-1.9-.75-4.05l.2-1h.1q.15-.4.8-.55l.9-.1h.4l.25.05-.1-1.25.15-.8.15-.35V.85l.1-.05.2.05.2.05q.55.2 1 1.15l.3.75.6 2.15.4 1.5q.5 1.5 1.15 2.15l.3.2.15.2.2-.05h.3q.35-.7.25-1.35v-.15q.15.8-.05-.75t.6-2.25q.95-.1 1.75 1l.85 1.5.15.4v-.1q-.3-2.2 1.75-2.85 3.6-1.15 6.05-1.15l1.45.1 1.45.15 1.75.3 1.1-.3.4.05-.3.3-.05.1-.05.05-.05.05-.9 1.15-.35.3q-1.2.85-2.75 2.8l-1.4 1.95-.25-.5q-.75-1-1.7-1-.7 0-1.25.85-.7 1.1-.7 3.1 0 4 .2 5.2zM60.95 8.8l-.15.2.1-.1.05-.05zm-53 0v.05L8 8.9l.1.1z"/><path fill="#fff" fill-opacity=".298" d="m35.45 5.7-.05-.15q.4.15.65.45l.65.75 1.5 2.8q.75 1.9.95 3.85l.1 1.2-.7 2.8v.25q-.6-.2-1.65-1.85l-.8-1.8-.15-.3V13l.1-1.5q.3-.75.1-2.6-.25-2.05-.6-2.3z"/><path fill-opacity=".498" d="M23.75 14.65q-2.15 1-4.45 3.3l-.25.3-.05.05-.2.2v-.15l.1-.45q-.2-1.2-.2-5.2 0-2 .7-3.1.55-.85 1.25-.85.95 0 1.7 1l.25.5.2.3.2.45.3.9v.05l.45 2.65z"/><path fill="#c9c9c9" fill-opacity=".6" d="m45.15 3.35 1-.3L53.9 1.6l8.45-.7q-.55.2-1 1.15l-.3.75-.6 2.15-.4 1.5q-.5 1.5-1.15 2.15l-.3.2-.15.2-.2-.05h-.3q-.35-.7-.25-1.35v-.15q-.15.8.05-.75t-.6-2.25q-.95-.1-1.75 1l-.85 1.5-.15.4v-.1q.3-2.2-1.75-2.85-3.6-1.15-6.05-1.15zM6.55.9l8.45.7 7.75 1.45 1 .3-1.45-.1q-2.45 0-6.05 1.15-2.05.65-1.75 2.85v.1l-.15-.4-.85-1.5q-.8-1.1-1.75-1-.8.7-.6 2.25t.05.75v.15q.1.65-.25 1.35h-.3l-.2.05-.15-.2-.3-.2q-.65-.65-1.15-2.15l-.4-1.5-.6-2.15-.3-.75Q7.1 1.1 6.55.9"/><path fill="#989898" fill-opacity=".8" d="m45.15 14.65-.05.15-.15 1.6q-.2 2.75-.95 4-.7.85-1.85.6-.55-4.85-2.15-9.6-1.55-4.8-2.1-5.5l.15-.1.25-.3.7-1.4.6-.4.35.1q.45.25 1.35 1l-.4-.75.9 1.15.8 1.2 2.3 4.05.7 1.45v.05l-.45 2.65zM26.75 21q-1.15.25-1.85-.6-.75-1.25-.95-4l-.15-1.6-.05-.15v-.05l-.45-2.65v-.05l.7-1.45 2.3-4.05.8-1.2.9-1.15-.4.75-1.35 2.75q-.45 1-.85 6.8v3.3q.1-3.15 3.75-9.2l1.7-2.65.15.1q-.55.7-2.1 5.5-1.6 4.75-2.15 9.6"/><path fill="url(#h)" d="m36.45 10.8-.7.6.15-.9-.4-.5-.25-.25.95.15.75-.7-.15.95.7.8z" transform="translate(24.4 2.7)"/><path fill="url(#i)" d="m34.15 19.35-.8 1.45.7 1.6-1.5-.85-1.5.6.85-1.4-.4-.9-.25-.55 1.35.75z" transform="translate(24.4 2.7)"/><path fill="url(#j)" d="m-15.95 10.8-1.05.15.7-.8-.15-.95.75.7.95-.15-.25.25-.4.5.15.9z" transform="translate(24.4 2.7)"/><path fill="url(#k)" d="m2.35 27.7-.15-.1.3-.65.05.3.1.35zm.35.55.2-.25.65.35-.75.15zm-.25.55-.4.65-.1-.75.2-.1zm-.8-.5L1 28l.75-.15.05.2z" transform="translate(24.4 2.7)"/><path fill="url(#l)" d="m-11 19.85-.4.9.85 1.4-1.5-.6-1.5.85.7-1.6-.8-1.45 1.55.7 1.35-.75z" transform="translate(24.4 2.7)"/><path fill="url(#m)" d="m2.35 27.7.9-.3-.55.85.25.95-.5-.4-.3-.2-.2.1-.75.25.45-.65.15-.25-.3-.9.25.15z" transform="translate(24.4 2.7)"/><path fill="url(#n)" d="m-22.95 11.05.8.65 1.6-.25-.5.3-.8.55.25 1.7-1.2-1.25-1.6.2 1.35-.9z" transform="translate(24.4 2.7)"/><path fill="url(#o)" d="m42.25 11.7.8-.65.1 1 1.35.9-1.6-.2L41.7 14l.25-1.7-.8-.55-.5-.3z" transform="translate(24.4 2.7)"/><path fill="url(#p)" d="m-13.6 29.4-.7-.6.25-.05.7.05.65-.7-.05 1 .7.7-1-.1-.6.8z" transform="translate(24.4 2.7)"/><path fill="url(#q)" d="m17.9 27.5.35.2.15-.05.45-.25.25-.1-.25.6-.15.3.1.15.35.75-.6-.3-.25-.15-.2.15-.75.35.3-.65.15-.3-.1-.25-.3-.7z" transform="translate(24.4 2.7)"/><path fill="url(#r)" d="m17.9 27.5.05-.25.05-.3.4.7-.15.05zm.95.4.65.1-.7.35-.1-.15zm-.3.9-.1.65-.35-.65.2-.15zm-.9-.3-.7-.15.75-.4.1.25z" transform="translate(24.4 2.7)"/><path fill="#9f7d00" d="m34.4 25.25.1.05-.05-.05 1.85.9.3-1 .3-.95.05.15v-.15l.65 2 1-.5.85-.45v.05l.1-.05-1 1.85 2.05.7-2 .65.95 1.9-.1-.05v.05l-1.8-.95-.65 2v-.1l-.05.1-.65-2-1.85.95.05-.05-.1.05.95-1.95-2-.65 2-.7zm2.4.8-.2.65h-.05l-1.2-.55.65 1.15-1.35.45 1.35.45-.65 1.2 1.15-.55.05.05.05-.05.4 1.2.35-1.2.1.05v-.05l1.1.55-.6-1.2 1.3-.4-1.3-.45.6-1.15-.45.2q-.3.2-.65.35l-.05.05v-.05h-.05v.05l-.4-1.2z"/><path fill="#4d4615" d="M25.25 24.3h-.2v-.15zm9.05 2.1q.45 0 .45.45 0 .5-.5.5-.3 0-.4-.2v-.35q0-.25.2-.35zm-23.45 2.2h-.25z"/><path fill="#eebf25" d="m37.85 28.05.25-.05q.7 0 .7.5 0 .9-.75.9-.4 0-.5-.2l-.15-.4q0-.55.45-.75m1.85.1q.45 0 .45.4 0 .65-.45.65l-.45-.3-.05-.15v-.05q0-.45.35-.5z"/><path fill="#e5c012" d="M65.15 17q-.15.3-.45.2l-.05-.05-.3-.1-.1-.2-.2-.25.05-.1q.1-.3.45-.25l.2.2.25.05zm.05 3.2v.25l-.35.45-.25.05q-.3 0-.5-.3l-.05-.15.2-.4.35-.2h.05q.35-.05.5.25zm-18.8.55.15-.3.3-.35h.3l.25.3.05.55-.35.5-.35-.05-.15-.15-.15-.25-.05-.2zm.35-1.05-.15-.25v-.05l.15-.45.2-.25h.15l.45.35v.3l-.3.35zm-.7-1.8v-.2q.1-.1.15-.1l.2-.05.2-.1h.15l.3.35q.2.55-.35.75l-.4.05-.2-.35zm12.1-3-.2-.3q-.05-.25.05-.4l.3-.25q.55-.2.75.25.2.55-.3.7zm.8-1.65H59q0-.2.15-.25.6-.25.8.25.15.4-.2.55l-.5-.05-.2-.1v-.1zm-2.2 1.65-.1-.35.2-.3q.6-.15.8.35.15.45-.15.55l-.65-.05zm-10.2 6.7.05.15.1-.1.2.35.05.5-.4.5h-.3l-.3-.25-.05-.05V22l.1-.2.15-.1.05-.05zm-.95 1.55.4.1.05.05.1.3.05.4-.05.2-.45.25h-.05l-.05.1h.25l.15.15v.5l-.25.25-.1.15h-.2l-.15.05-.2-.05h-.05l.05-.1v-.15l-.05.05-.1-.1-.15-.05v.2l-.15.3-.2.05-.05.05-.25.1h-.25l.05.05.05.3-.25.45q-.4.25-.65 0l.15.4-.15.3-.1.1-.1.05-.75-.1v-.05l-.05-.2v-.3l.1-.25.65-.1.05.15.1.05-.05-.1.05-.05v-.05l-.1-.45.05-.05q-.1-.2.05-.3l.05-.1h.1l.25-.25.15.1.15.2-.05-.1q-.05-.25.05-.3v-.05q.1-.2.35-.25l.65.15V25l.25-.35.25-.15-.05-.05-.15-.4q-.1-.75.6-.9m.45 2.7q.5 0 .5.7 0 .5-.65.5-.45 0-.45-.6l.05-.3h.05v-.1l.2-.25h.2zm17.2-8.15.1.05h.1l.3.45-.05.25-.45.25-.2-.1h-.1q-.3-.15-.2-.45l-.05-.05.25-.3q.1-.2.3-.1m.15-.15v-.2q.2-.4.75-.3l.15.1q.4.2.3.5-.2.55-.55.5l-.45-.4-.05-.05zm-1.75 1.7-.1.4-.3.1q-.25.05-.45-.2l-.2-.4q-.25-.6.2-.8h.1q.4-.2.65.4zm.25-.3.05-.1.2-.15q.5-.15.65.25.15.6-.1.7h-.45l-.1-.1-.1-.15zm-1.55.3-.25.5-.35-.25-.1-.2-.05-.15-.05-.05-.05-.3q-.05-.25.2-.3.4-.15.6.35zM55.1 16.4l.25-.1.2.55-.05.2-.15.2-.2.2-.25-.05-.05-.05-.05-.1.1-.55.05-.15zm.85.6q.4-.15.65.5v.35l-.35.2-.35-.1-.15-.15v-.25l-.05-.05v-.25q0-.2.25-.25m2.9 2.45-.35-.15-.1-.2-.05-.3v-.2l.05-.15.25-.2q.35-.1.55.45v.35zm.3 6.4.4.05.15.2.05.05.1.2v.2l-.2.35h-.35l-.3-.25q-.25-.65.15-.8m-.15-1.5.25-.05q.65 0 .65.5l-.15.5-.15.15h-.3q-.6 0-.6-.5v-.05l.1-.5zm-.3-1.6h.2l.25.05.4.55v.05l-.05.45-.2.15-.65-.15-.35-.4v-.4l.1.05-.05-.15.3-.15zm-.3-1.5q-.15-.4.15-.5l.05-.05h.2l.1-.05h.1q.2 0 .3.15.15.45-.25.6-.5.2-.65-.15m.1-.8-.1.05-.35-.05-.15-.3-.05-.05-.05-.1q-.15-.3.2-.45.45-.15.65.4l.05.2v.05l-.05.05-.1.15zm6.15 1 .15.1.05.05.45.4-.6.6q-.35.15-.55-.3l-.05-.15q-.2-.55.3-.75zM63.3 23.8h-.05l.1.2q.15.35-.4.55-.5.2-.75-.35l-.05-.05-.05-.2v-.1q.05-.3.4-.45.45-.15.7.15l.05.15zm.45.15-.05-.25-.15-.25q-.1-.35.3-.5l.1-.05.35.15.2.15.15.25.05.1-.35.45zM27 24.2l.15.05.15.55-.15.6-.3.05q-.3 0-.5-.2l-.25-.55q0-.6.45-.6h.05zm33.4-.05v-.1l-.2-.5q0-.65.65-.7l.35.15.25.1.05.05.1.15.05.05-.05.45v.05q-.15.35-.7.35l-.45-.1zm-35.35 0v-.1l-.05.05-.1-.45.1-.5q.05-.1.2-.1l.3-.05.35.05.05.05.1.1.15.25v.2l-.05.15.05.3-.1.1-.35.2h-.2l-.25-.1zm3.25.9.15.25v.3q-.2.45-.7.3h-.15l-.15-.5.05-.25v-.2l.4-.15.25.05.15.15zm3.1.35.15.3.1.3-.05.25-.05.1-.55.15q-.4-.15-.4-.45l.1-.25.05-.25q.15-.35.55-.2zm-2.35.05v-.05q.2-.55.75-.35l.45.6-.05.15-.05.1-.05-.05-.05.25q-.1.35-.65.1-.5-.15-.35-.75M31.6 27q.45 0 .45.5 0 .45-.55.45l-.3-.1-.1-.35q0-.25.15-.35.1-.15.35-.15m9.65.7q.55-.2.75.35v.05q.15.6-.35.75l-.6.1-.2-.3q-.15-.15.05-.5zm-8.75 0 .3-.1q.35 0 .35.6 0 .45-.5.45-.35 0-.4-.4v-.1q.05-.35.25-.45m26.9.85-.25.1-.25-.45q-.25-.7.05-.8l.3.05.4.55.05.25zm-3 1.55q.45-.2.7.4l.1.5-.25.4-.3.1-.35-.2-.2-.4q-.25-.6.2-.8zm2.95-.05-.5-.1-.3-.25q-.2-.55.15-.65h.35l.15.05.1.2.15.15.1.25zm-.9.3.1.15v.25l-.05.45q-.35.05-.55-.25l-.25-.35q-.2-.5.2-.65l.4.1.15.25zm-3.15-.15q.35-.05.55.4l.05.4-.15.4-.05.1h-.05l-.4-.25-.1-.2-.1-.15v-.05l-.05-.3.2-.3zm-2.25.25-.4-.05-.15-.25v-.65l.2-.25q.35-.15.6.55l.05.5zm.85-.25.25-.2q.35-.15.55.4v.4l-.4.4-.3-.15-.1-.25-.05-.25v-.2zm-3.55-2.1.25-.05v.1l.1-.05-.1-.05q.35-.15.5.4.15.5-.25.7h-.1l-.1.05-.25-.1h-.05l-.25-.4q-.2-.4.25-.6m1.75 1.5-.35.2-.35-.1-.1-.15v-.25l-.05-.05-.05-.25.25-.3q.4-.1.65.55zM12.15 14.9l-.1.2-.65.05q-.3-.1-.15-.55.2-.5.8-.35l.2.3zm.65-.4.2-.35.2-.05q.7 0 .7.5 0 .45-.4.45l-.35-.05-.35-.4v-.1m1.3 1.6.05-.05q.45 0 .45.7t-.55.7h-.3l-.15-.1-.05-.1-.1-.15-.05-.05v-.1l-.05-.1v-.2l.15-.4h.05zm-1.8 1.75v-.35q.25-.65.65-.5.25.05.25.25v.25l-.05.05v.25l-.15.15-.35.1zm-.4-.1v.65l-.15.25-.4.05-.25-.15.05-.45q.25-.7.6-.6.15.05.15.25m-1.6 2.95.05.05q.3.1.15.5-.15.35-.65.15-.4-.15-.25-.6.1-.15.3-.15h.1l.1.05zm-5.5-4.2.05.1-.2.25-.1.2-.3.1-.05.05q-.3.1-.45-.2-.1-.35.15-.5l.25-.05.2-.2q.35-.05.45.25m-.05.55q.55-.1.75.3v.2l-.15.15-.05.05-.45.4-.3-.1v-.15h-.1l-.15-.25q-.1-.3.3-.5zm1.2.75.25.3-.05.05q.1.3-.25.45h-.05l-.2.1-.45-.25q-.15-.45.25-.7l.2-.05q.2-.1.3.1m.25 1.85q-.25-.1-.1-.7.15-.4.65-.25l.25.25-.15.45-.1.15-.1.1zm1.9-1.3q.45.2.2.8l-.2.4q-.2.25-.45.2l-.3-.1-.1-.35v-.05l.1-.5q.25-.6.65-.4zm1.1 3.75.05-.05.25-.3.2-.05.25.05.25.15v.15q-.2.5-.7.35h-.05l-.3-.15zm-4.35-.3v.15l-.05.2-.05.15-.3.35-.25-.05-.6-.6.45-.4.05-.05.15-.1.2-.05h.05zm.6.3.1.05q.4.15.3.5l-.15.25-.05.25-.6.05-.2-.1-.15-.35.05-.1.1-.2.05-.05.2-.15zm5.15.7.3.15-.05.15.1-.05v.4l-.35.4-.65.15-.2-.15-.05-.45v-.05l.4-.55.25-.05h.2zm13.05-6.35.15.4-.2.55-.6-.05q-.5-.15-.3-.7.15-.5.7-.3zm-1 1.2.15.1v.2l-.05.35-.2.35-.4-.05q-.55-.2-.35-.75.15-.4.45-.35l.2.1zm-.9 1.55.45-.35h.15l.2.25.15.45v.05l-.15.25-.05.05h-.3l-.15-.05-.3-.35zm-18.8 2v-.25L3 20.9l.1-.1q.1-.2.4-.15h.05l.3.15.05.05q.25.2.2.4l-.05.15q-.25.4-.75.25zm15.6 6.9q.45.2.25.6l-.25.4h-.05l-.25.1-.1-.05h-.1q-.4-.2-.25-.7.15-.55.5-.4zm-.25.05v-.1l-.1.05zM14.75 30l.25.2.05.15v.2l-.05.25-.1.25-.3.15-.4-.4v-.4q.2-.55.55-.4m2.9-.75-.05.05v.25l-.1.15-.35.1-.35-.2v-.35q.25-.65.65-.55l.25.3zm-1.8 1.2-.3-.15.05-.5q.25-.7.6-.55l.2.25v.65l-.15.25zm-2.25-.25.1.05.2.3-.05.3v.05l-.1.15-.1.2-.4.25h-.05l-.05-.1L13 31l.05-.4q.2-.45.55-.4m-1-.1q.45.2.2.8l-.2.4-.35.2-.3-.1-.25-.4.1-.5q.25-.6.7-.4zm-2-1.5h.35q.35.1.15.65l-.3.25-.5.1-.2-.35.1-.25.15-.15.1-.2zm1 .85q.4.15.2.65l-.25.35q-.2.3-.55.25l-.05-.45V30l.1-.15v-.05l.15-.25z"/><path fill="#795d16" d="m45.4 27-.05.1q0 .65-.45.65-.8 0-.8-.5l.1-.5v-.15h.8l.4.2zm-20.2-.4v.6q-.65.4-1 .4l-.1-.25v-.05L24 27v-.2l.4-.2zm18.3 1.75.3-.35.1-.05.25-.05.45.15.1.45-.1.4-.45.1q-.25 0-.45-.2zM42.9 30v-.4l.1-.3.45-.1.4.2h.05v.7h-.8l-.05-.05zm-17-1.65-.2.45-.45.2-.45-.1-.1-.4.1-.45q.3-.15.45-.15l.25.05.1.05zm-.4 1.05h.8l.2.2v.4l-.3.1h-.7z"/><path fill="#9f7d00" d="m39.75 32.8.35.15.05.2-.05.05.1.2v.15q-.1.15-.35.15l-.5-.05-.15-.25q0-.6.55-.6m1.15-1.6q.6 0 .6.65l-.2.4-.05.05v.05l-.05.05-.25.15h-.3q-.5 0-.6-.45 0-.45.4-.45.15-.45.45-.45m-2.3 2.4.3.5-.05.25-.4.15-.4-.05q-.15-.05-.15-.35 0-.65.4-.6zm-2.2 1.3.05.2v.05l-.05.15v.15l-.35.3-.1.05-.05-.05-.35-.3-.15-.3q.1-.4.45-.45h.2zm1.3.05q0 .2-.35.2l-.55-.2-.15-.25q-.05-.55.4-.5l.4.1.1.1.15.15v.4m-2.9-.05q.5.05.45.5v.4l-.35.2-.35.05-.4-.25-.15-.4q0-.55.65-.5zm-4.7-1.6-.05.1-.25.2-.35.1-.35-.2-.05-.15v-.15l.05-.1.1-.2.35-.15q.55.05.55.55m.6.25.2-.1q.4-.05.4.55v.4h-.4l-.45-.1v-.25zm-2.3-2.15q.35 0 .5.55h.15v.4l-.1.1-.1.05-.15.1-.05.05-.25.1-.3-.15-.05-.05v-.1q-.25-.05-.25-.4 0-.65.6-.65m5.5 3.7-.15.35-.5.35-.2-.35-.1-.2v-.4q.15-.2.4-.15.5 0 .55.4m-1.7-.85.15-.05q.4 0 .4.45l-.25.3-.55.2-.25-.2v-.4l.1-.15.1-.1z"/><path fill="#746e00" d="m54.1 15.05.45-.15.4.15.3.5q0 .45-.6.45t-.6-.6zm1.85-.6q.05.55-.6.55l-.45-.1-.1-.3.05-.25.15-.2.4-.15q.55 0 .55.45m9.45-1.1h.1q.6 0 .6.6 0 .45-.35.55l.15.1.05.1v.3l-.1.1q-.15.45-.7.3.6.3.4.7-.15.45-.55.3l-.2-.05-.1-.05-.15-.05q-.3-.25-.2-.65.2-.45.75-.25l-.15-.15-.15-.25v-.3l.3-.25-.2-.45q0-.7.5-.6m-11.85 3.2q-.45 0-.6-.25l-.1.25-.3.15h-.1l-.05.05q-.6-.05-.6-.5l-.05-.1.1-.15.2-.25.2-.1q.45-.1.65.2l-.05.2v.05l.05-.1h.05l-.05-.05.2-.45v-.05l.15-.1.15-.1v.1l.4.2.15.4q.05.55-.4.6m-7.25.5-.6.05-.2-.55.15-.4.25-.1q.55-.2.7.3.2.55-.3.7m.6 9.85.05-.15q.15-.15.3-.2.35-.15.55.4l-.05.35-.35.45-.35-.15-.1-.25v-.25zm2.25-.05q.1-.15.25-.2l.1-.05q.45-.15.65.45l.1.5-.1.35-.05.05-.15.05-.1.05q-.3 0-.5-.2l-.2-.45zm-.25.3.05.4-.25.5-.35-.25-.15-.2-.05-.15v-.05l-.1-.3.3-.35q.35-.1.55.4M27.25 22.7v.05l-.05.15-.35-.05h-.05q-.45-.25-.3-.75l.1-.1h.3l.2.15.15.15zm-.4-1.6.45-.05.1.1.05.05.2.15-.05.35-.1.2-.3-.05-.1-.05-.35-.2-.05-.35zm32.1.65.25-.05.2.05.25.3.05.05.05.15-.3.15h-.05q-.5.15-.7-.35v-.15q.05-.1.25-.15m-1.95-4q0-.2.15-.25.35-.1.6.6l.05.45-.25.15-.4-.05-.15-.25zM24.75 22.8l.35.15.1.1q-.15 0-.2.1l-.1.5.1.45h-.05l-.4-.1q-.75-.25-.5-.95l.3-.3h.05zm-.1 2.75-.05.25v.05l-.05.25-.1.15-.4.1-.3-.2-.05-.4q.25-.65.65-.5zm.6-.85.05.15.1.15.1.55v.1h-.1l-.25.1-.15-.2-.15-.2-.05-.2.2-.55zm1.1-1.1-.1.15.1-.2.3-.5.1.05.15.2.05.2-.15.25h-.05zm15.7-2.5.15.15-.05.35-.35.2-.1.05-.3.05-.1-.2-.05-.35.2-.15.05-.05.1-.1zm1.7 3.15.2.2-.05.2.05.15.1.15v.1q-.25.05-.35.25v.05l-.1-.2-.1-.15-.05.05-.1-.15-.1-.15-.3.15-.1-.3v-.1l.05-.4.25-.05zm-1.8-2.1.1.1q.15.5-.3.75h-.05l-.35.05-.05-.15v-.45l.15-.15.2-.15zm-.1 1.05.1.15.05-.05h.05q.45 0 .45.45l-.5.4-.35-.3-.1-.2.05-.2.15-.2zm-32.9-9.95q.2-.5.8-.25.15.05.15.25h.05l-.1.3v.1l-.2.1-.5.05q-.35-.15-.2-.55m.9.95q.2-.45.75-.25l.3.25q.1.15.05.4l-.2.3h-.6q-.5-.15-.3-.7m-.45 4.6-.05.3-.05.05-.05.15-.1.2q-.2.3-.35.25l-.25-.5.05-.4q.2-.5.6-.35.25.05.2.3m1.1-.35.05.15v.2l-.05.3-.1.2-.35.15-.35-.4v-.35q.2-.55.55-.45zm-.25 1.8-.05-.05v-.05l.05-.2q.2-.55.65-.4.35.15.2.45l-.05.1-.05.05-.15.3-.35.05-.1-.05-.05-.05zm-3.35 3-.05.05q-.25.55-.75.35-.55-.2-.4-.55l.1-.2h-.05l.05-.1.05-.15q.25-.3.7-.15.55.2.35.75M4.55 15.6q.1.4-.2.65l-.15.05-.1.05-.2.05q-.4.15-.55-.3-.2-.4.4-.7-.55.15-.7-.3l-.1-.1.05-.4.3-.2-.35-.25.15-.05-.05-.05q-.2-.5.3-.65h.2l.1.05-.1.2.2.2.2-.1v.1l-.1.15v.05l-.1.15-.2.15-.1.1.2-.05q.3-.05.45.25v.3l-.15.25-.15.15q.55-.2.75.25M9.2 26.1l.15-.2.4-.05q.4.15.15.8-.1.2-.3.25h-.35l-.2-.35v-.2l.1-.2zm.8 1 .3-.05q.3.1.05.8l-.25.45-.25-.1-.3-.3.05-.25zm-1-1.35q-.45 0-.45-.35l.1-.4q.2-.3.55-.3l.15.05q.15 0 .2.15l.15.05-.1.3q-.05.5-.6.5m13.9-5.3.15.3v.05L23 21l-.15.25-.15.15-.35.05-.35-.5.05-.55.25-.3h.3zm-.4 6.4.1-.5q.25-.7.55-.55l.2.25-.05.65-.15.25-.4.05zm-1.4.1q.2-.55.55-.4.15.05.3.2l.05.15-.05.2v.25l-.1.25-.35.15-.35-.45zm-1.6-.3.25.2v.55l-.2.45q-.2.2-.5.2l-.1-.05-.15-.05-.05-.05-.1-.35.1-.5q.2-.6.65-.45zm1.05.1q.25.1.3.35l-.1.3v.05l-.05.15-.15.2-.35.25-.25-.5.05-.4q.2-.5.55-.4m3.1-4.2-.3.25h-.3l-.4-.5.05-.5.2-.35.1.1.05-.15.35.05.05.05q.1 0 .15.1l.1.2v.7z"/><path fill="#ffd81e" d="m32.1 24.2.05.15v-.15l.65 2 1-.5.85-.45v.05l.1-.05-1 1.85 2.05.7-2 .65.95 1.9-.1-.05v.05l-1.8-.95-.65 2v-.1l-.05.1-.65-2-1.85.95.05-.05-.1.05.95-1.95-2-.65 2-.7-.95-1.8.1.05-.05-.05 1.85.9.3-1zm-1.55 1.95.65 1.15-1.35.45 1.35.45-.65 1.2 1.15-.55.05.05.05-.05.4 1.2.35-1.2.1.05v-.05l1.1.55-.6-1.2 1.3-.4-1.3-.45.6-1.15-.45.2-.65.35-.05.05v-.05h-.05v.05l-.4-1.2-.15.45-.2.65h-.05z"/><path fill="#683733" d="m38.3 1.85.1.35-.35.2-1.3.85-1.05.5-.15-.2-.05-.1h.05q.75-1.4 1.8-1.45z"/><path fill="#311312" d="M34.75 2.65v-.2l-.5-.15zm-1.5-.6.9-.5 1.05-.25q.75-.15.15-.25l.85.1.25.3 2.35-.15q0 .1.2-.1v.6l.9-.25.6-.3q.55-.1 1.3.5l-.3.5-.2.45.05.15q.25.45 1.15.6.35.05.7.25.65.25.9.85 0 .8-1.45.9-1.05.1-1.7-.35-.85-.6-1.85-.6l.65.55.5.5q.1.5-.95.6L38.45 6h.3l-.05-.05-.5-.25.25.3-.65.05h-.2l-.05-.45q-.2-.55-1.25-1.05l-.6.05-.8-.4-.4-.1-.8-.25V3.8l-.1.05-.8-.25q.15.45-.2 1.1-.45.55-.3 1l.2.3h.05l.25.3h-.2l-.5.25-.15-.3-.3.3.05.05.4-.05-.45.25-.25-.05-1.35-.15q-.2-.2-.1-.5l.05-.55q-.8.25-1 .95l-1 .65-.95.15q-.6-.1-.85-.4l-.3-.4q-.15-.35.2-.55.15-.15.25-.15l.5-.85q-.2-.1-.05-.15l-.55-.25-.55-.25q.05-.55.45-.7l.8.05 1.1-.05.2-.15.1-.05.3-.05.7-.15V3l.1-.1v-.55l-.35-.05-.5-.8 1.55-.2q1.85.05 2.8.8l.25.05zm5.05-.2-.95.15q-1.05.05-1.8 1.45h-.05l.05.1.15.2 1.05-.5 1.3-.85.35-.2zm2.3 1.9-2-.1q-.65.05-.75.2l-.3.2v.1h1.55l1-.2zm-8.25-.05-.15.1-1.15-.4-1.65-.1-.95.2.25.2.25.05L30 3.9l.9.05h1.5v-.1zM30 4.75l-.35.05-1.45.55.45.05 1.2-.15.4-.2.8-.2-.05-.1-.5-.05z"/><path fill="#484343" d="M24.45 2.95V2.9l.3-.5zm.55.75.1.05-.15.05zM23.95 5l.4-.4.45-.45-.6.7z"/><path fill="#683733" d="M25.95 2.55q.25-.4 1-.45h.15l.95-.05q1.95.85 1.85 1.4-.1.35-1 .35h-.25l.2.45.05.55-.35.95q0 .15-.4.2-.5 0-.55.3l.25.45.25.4-1.15 1.15-.15.05-.65.05-.5-.3-.6-.3q-.4-.1-.9.7l-.15.2-.05.1q-.6.85-1.1.8l-.25-.35-.25-.55-.3-1.05.1-.25q.1-.2.35-.25.4 0 .75-.95l.2-.4.25.05 1-.15.85-.05.75.25.65.45.2.1.3.05.2-.55-.7-.75q-.75-.5-.7-.8l.25-.3.45-.05h.25l.25-.1.15-.05.4-.2-.95-.3h-.1l-1.65.1.1.15h-.05l-.3-.05v-.6q0-.25.25-.3zm-8.15 1.3.3-.55-.1-.5.2-.25.65.2.3.2q-.15.45-.9.7zm3.6-2.1.05-.4.65-1.3.7.6.25.4q-.1.4-.8.8l-.85-.05zm4.35 4.35h-.05q-1.45-.4-2 0l.8.8q.55.25.9.85.15-.5.8-.65l.75-.25-.6-.5-.5-.25v-.05zm-4.1-3.65-.25-.25.05-.35.75.15q.8.05 1.6 1.6h.1l.05-.05.2-.15-.45.5-.95-.55zm.55 1.95h-1.25l-.85-.3-.35-.2 1.5-.1.65.25.3.25z"/><path fill="#311312" d="m26.8 8.3-.4.3-.85.4q-.45 0-.7-.3-.2-.3-.4-.3l-.3.05q.5-.8.9-.7l.6.3.5.3zm-4.2.9-.05.05-.1.35H22l-1-.15q.7-2.6 1.1-2.75l-.55-.1-.65.15q-.95-.15-.85-.8l.35-.6.55-.55q-.8 0-1.5.7-.5.5-1.3.35-1.1-.15-1-1 .15-.7.65-1l.45-.2q.75-.25.9-.7l.05-.15-.15-.55-.25-.5.95-.55.5.3v-.2l.25-.35.8.65.1.15v.05l.85.05q.7-.4.8-.8v-.1l.15-.7.65-.1q1.1 1.4 1.75 1.85l.2.25.15.3-.65.1q-.25.05-.25.3v.6l.3.05h.05l-.1-.15 1.65-.1h.1l.95.3-.4.2-.15.05-.25.1h-.25l-.45.05-.25.3q-.05.3.7.8l.7.75-.2.55-.3-.05-.2-.1-.65-.45-.75-.25-.85.05-1 .15-.25-.05-.2.4q-.35.95-.75.95-.25.05-.35.25l-.1.25.3 1.05zm1.85-6.25.3-.55-.3.5zm.55.75.05-.05v-.1L25 3.5zl-.05.1.15-.05zm.85 2.4.5.25.6.5-.75.25q-.65.15-.8.65-.35-.6-.9-.85l-.8-.8q.55-.4 2 0h.15m-4.2-3.65 1.1.9.95.55.45-.5-.2.15-.05.05h-.1Q23 2.05 22.2 2l-.75-.15-.05.35zm.55 1.95v-.1l-.3-.25-.65-.25-1.5.1.35.2.85.3zm1.75.6.25-.15.6-.7-.45.45zm-2.4 1.6.15-.4-.4.25v.1z"/><path fill="#484343" d="M31.95 5.45h.45l.8.15.1.25-.4.4.1.55-.35-.25zM25.45 4l.2.45.1.5-.15-.2-.2-.75v-.05z"/><path fill="#683733" d="m29.25 2.15.1-.05 1.05-.2q.2.1 0 1.3l-.2.35-.05-.05-.95-.25-.05-.2-.1-.15-.1-.65zm-2.5 1.8q1.6-.85 2.4-.6l.9.2-.15.3-.25.05-1.75.25-1.3.05-.1-.05zm3.95 2h-.45l-1.1-.15-1.25-.55.05-.1.4-.05.85.1z"/><path fill="#311312" d="M25.4 4q-.55.1-1.65.95t.05-1.25q1.1-2.1 1.75-1.6l.3-.05q.7-.9 2.3-1l1.35.2-.25.9-.3.1.1.65.1.15.05.2.95.25.05.05.2-.15 1.2-.1q.3.05.05.35l-.1.15.75-.05q.45.15.7.85l-.55.35-.5.35v.15l.7 1.1.35.25q.5.6.15 1.3-.3.8-1.8.35-.85-.3-1.2-1-.3-.9-1.2-1.3l.25.75v.65q-.2.6-1.35.25l-.65-.4-.5-.3h-.25l.35-.4q.35-.65-.35-1.6-.4-.75-.25-1.35l-.75.25-.05-.05zm1.1.15.1.05 1.3-.05 1.75-.25.25-.05.15-.3-.9-.2q-.8-.25-2.4.6l-.2-.1zm4.2 1.8-1.5-.75-.85-.1-.4.05-.05.1 1.25.55 1.1.15zm-3.15 1.5.05-.05-.25-.4-.15.4z"/><path fill="#232020" d="m44.8 2.45-.35-.4.35.2zM42.85 3.7h-.1l-.1-.1.15-.1z"/><path fill="#683733" d="m40.35 1.95.25.1v.25l-.1.35-.05.1-.05.2-.65.15-.25.1-.05.05q-.2.05-.25.15l-.95.05-.1-.15q-.25-.25.05-.3l1.1.1.15.15-.15-.35q-.2-1.1 0-1.2l.95.2zm-2.5 3L37.2 6l-.3.2.1-.5-.35-.35.05-.25.75-.15zm3.95 2.1.4-.3-.3.05-.05-.05.25-.35.1.35.5-.25h.2l-.05-.05.3.05q.6.1.7.6.35-.55.85-.8l.7-.75q-.5-.35-1.8 0h-.05l-.1-.05v.05q-.4.1-.45.25l-.35.35-.05-.05-.1-.35.55-.4.7-.25.75.05.9.15.25-.05.2.35q.3.9.65.9l.35.2.1.25-.3.95-.2.5-.25.35q-.45 0-1-.75l-.05-.1-.15-.2q-.45-.7-.8-.6-.35 0-.55.25l-.45.3-.6-.05-.15-.05zm9.05-3.55-.45-.2q-.65-.2-.8-.6l.25-.2.6-.2.2.25-.1.45zm-3.3-1.9v.05h-.05l.05.35-.25.2-1 .85-.85.5-.1-.2-.05-.1h.05q.7-1.4 1.45-1.45l.7-.15h-.75L46 .95l.25-.4.65-.55.6 1.2zm.1 1.85 1.4.1-.35.2-.75.25H46.8v-.1l.25-.2q.1-.15.6-.25m-2.8.75.35.35-.25-.15-.45-.45.25.15zm-2-.5v.1H41.6l-.75-.05-.9-.2-.2-.05-.15-.25.85-.2 1.35.15.85.4.1.1zm.8.35q0-.25.15-.4l.05-.05v.05l-.15.7q-.15 0-.15.15zm-2.9.65.4-.05.4.05.05.1-.7.25-.45.25-1.05.15H39l1.4-.7z"/><path fill="#311312" d="m40.35 1.95-.25-.85 1.25-.15q1.45.1 2.1.9l.2.05.05-.1q.6-.4 1.6-1.7l.6.1.1.65v.1l.75.7h.75l-.7.15q-.75.05-1.45 1.45h-.05l.05.1.1.2.85-.5 1-.85.25-.2-.05-.35h.05V1.6l.05-.15.75-.6.25.3v.2l.45-.25q.35-.05.85.5l-.2.45-.15.5.05.15q.15.4.8.6l.45.2q.45.3.6.9.05.8-.95.95-.7.1-1.2-.35-.6-.65-1.35-.65l.5.55.3.55q.1.55-.75.7L47.4 6h.2v-.1l-.35-.25.15.35-.5.1q.35.15 1 2.55l-.9.1h-.45l-.05-.3-.05-.05.2-.5.3-.95-.1-.25-.35-.2q-.35 0-.65-.9l-.2-.35-.25.05-.9-.15-.75-.05-.7.25-.55.4.1.35.05.05.35-.35q.05-.15.45-.25h.15q1.3-.35 1.8 0l-.7.75q-.5.25-.85.8-.1-.5-.7-.6l-.3-.05.05.05h-.2l-.5.25-.1-.35-.25.35.05.05.3-.05-.4.3-.2.05q-1.05.35-1.2-.2v-.6l.2-.7q-.8.4-1.1 1.2-.3.65-1.1.9-1.35.45-1.65-.3-.3-.65.15-1.2l.3-.2.65-1.05v-.1l-.45-.35-.5-.3q.25-.65.65-.8l.7.05.95-.05q.05-.1.25-.15l.05-.05.25-.1.65-.15.05-.2.05-.1.1-.35v-.25zm4.45.5v-.2l-.35-.2zm2.85 1q-.5.1-.6.25l-.25.2V4h1.15l.75-.25.35-.2zm-2.8.75-.1-.1-.25-.15.45.45.25.15zM45 7.7l-.25-.05q-.2 0-.4.3l-.6.25-.8-.35-.35-.25.6.05.45-.3q.2-.25.55-.25.35-.1.8.6m-1.35-3.65-.1.45q0-.15.15-.15l.15-.7V3.6l-.05.05q-.15.15-.15.4m-1-.45-.85-.4-1.35-.15-.85.2.15.25.2.05.9.2.75.05h1.25v-.1l-.05-.2zm-1.9 1.1-.35.05-1.4.7h.4l1.05-.15.45-.25.7-.25-.05-.1-.4-.05z"/><path fill="#624f12" fill-opacity=".945" d="m47.9 4.35-.4-.45-.85-.6-1.05-.55q-.45-.2-.5-.65.1.1.75.4 1.1.5 1.6.95l.85.85-.25.05zM24.05 2.1q.3.2-.25.5l-.4.3q-1 .55-1.65 1.5h-.15l-.85-.1.85-.85 1.6-.95z"/><path fill="#e5c012" fill-opacity=".949" d="M48.8 5h-2.5l-3.2-.25-2.65-1-.6-.25-.15-.15.75.3L41.7 4l1.45.25 2.8.15h1.5l.45-.05h.15l.25-.05zm-27.05-.6h1.35l2.8-.15L27.35 4l1.25-.35.75-.3-.15.15-.6.25q-1.45.75-2.65 1l-3.2.25h-2.5l.5-.7.85.1z"/><path fill="url(#s)" d="m20.7-.6-.05-.05h.05q2.05.6 2.9 1.4l1.45 1.3.15.15-.8.1-.5-.7-.85-.85q-.5-.45-1.6-.95-.65-.3-.75-.4" transform="translate(24.4 2.7)"/><path fill="url(#t)" d="m-4.15 2.3-.8-.1.15-.15 1.45-1.3q.85-.8 2.9-1.4h.05l.05.05-.85.4-1.6.95-.85.85z" transform="translate(24.4 2.7)"/><path fill="url(#u)" d="M15.65 1.95 15.6 2l.1.2v.15l-.35.15-.5-.05-.15-.25q0-.6.55-.6.3 0 .35.15z" transform="translate(24.4 2.7)"/><path fill="url(#v)" d="m14.1 2.4.3.5-.05.25-.4.15-.4-.05-.15-.35q0-.65.4-.6z" transform="translate(24.4 2.7)"/><path fill="url(#w)" d="m12.3 3.75-.15-.25q-.05-.55.4-.5l.4.1.1.1.15.15v.4l-.35.2z" transform="translate(24.4 2.7)"/><path fill="url(#x)" d="m11.55 3.5.35.2.05.2v.05l-.05.15v.15l-.35.3-.1.05-.05-.05-.35-.3-.15-.3q.1-.4.45-.45z" transform="translate(24.4 2.7)"/><path fill="url(#y)" d="M10.75 4.2v.4l-.35.2-.35.05-.4-.25-.15-.4q0-.55.65-.5h.15q.5.05.45.5" transform="translate(24.4 2.7)"/><path fill="url(#z)" d="M7.7 3.05 7.85 3q.4 0 .4.45l-.25.3-.55.2-.25-.2v-.4l.1-.15.1-.1z" transform="translate(24.4 2.7)"/><path fill="url(#A)" d="m5.3 2.4-.35.1-.35-.2-.05-.15V2l.05-.1.1-.2.35-.15q.55.05.55.55l-.05.1z" transform="translate(24.4 2.7)"/><path fill="url(#B)" d="m5.95 2.85.25-.5.2-.1q.4-.05.4.55v.4h-.4l-.45-.1z" transform="translate(24.4 2.7)"/><path fill="url(#C)" d="M9.25 4.25q-.15.25-.5.35l-.2-.35-.1-.2v-.4q.15-.2.4-.15l.55.4z" transform="translate(24.4 2.7)"/><path fill="url(#D)" d="m16.65 6.4.15.4 1.05-.5-.55 1 1.05.4-1.05.35.55 1-1.05-.5-.4 1.1-.35-1.1-1 .5.5-1-1.15-.35 1.15-.4-.5-1.05 1 .5.1-.3.25-.75z" transform="translate(24.4 2.7)"/><path fill="url(#E)" d="M16.3 2.2V3q-.2 0-.3.1l-.3-.6q.15-.2.3-.25zM15.8 4l.5-.1.1.1v.7l-.6.1-.1-.2zm.35 2.45-.45-.85 1.2-.1V6l-.25.4-.25-.7z" transform="translate(24.4 2.7)"/></g></defs></svg>