<svg xmlns="http://www.w3.org/2000/svg" xmlns:ffdec="https://www.free-decompiler.com/flash" xmlns:xlink="http://www.w3.org/1999/xlink" ffdec:objectType="frame" width="32.65" height="19.55"><g transform="translate(6.45 -.05)"><use ffdec:characterId="2" xlink:href="#a" width="32.65" height="19.5" transform="translate(-6.45 .1)"/><use ffdec:characterId="3" xlink:href="#b" width="32.65" height="19.55" transform="translate(-6.45 .05)"/></g><defs><path id="c" fill="#333" fill-rule="evenodd" d="M24.7 18.5q-1-.95-2.15-.95-1.45.85-.6 1.75-.6 1.15-6 1.2T9.9 19.3q.85-.9-.6-1.75-1.15 0-2.15.95-3.85-.2-5.8-2.2-.4-1.05.6-2.05-2.6-.65-2.3-2.85L6.05 1H25.8l6.4 10.4q.3 2.2-2.3 2.85 1 1 .6 2.05-1.95 2-5.8 2.2" transform="translate(.4 -1)"/><use ffdec:characterId="1" xlink:href="#c" id="a" width="32.65" height="19.5"/><g id="b" fill-rule="evenodd"><path fill="#ffcc79" d="M28.25 12q2.5-.5 2.85-2.05l.45-1.25 1.05 1.75q.3 2.2-2.3 2.85 1 1 .6 2.05-1.95 2-5.8 2.2-1-.95-2.15-.95-1.45.85-.6 1.75-.6 1.15-6 1.2t-6.05-1.2q.85-.9-.6-1.75-1.15 0-2.15.95-3.85-.2-5.8-2.2-.4-1.05.6-2.05-2.6-.65-2.3-2.85l1.2-1.9.2 1.15q.05.8 1 1.45.95.6 2.4.85.6 2.95 3.2 2.8 2-.1 2.7.45l.9.7 1.95.7 2.75.2q2.7-.15 4.4-1 1.25-1.05 2.1-1.15l1.45.15q1.7.25 2.55-.4.75-.6 1.4-2.45"/><path fill-opacity=".2" d="M11.5 9.9v.05l.1 1.95-.1 4.05q-.2 2.7-.6 2.8-.45.05-.5-.2-.1-.25.05-.5l.15-.45-.6-.8q-.45-.4-.65-.2-.3-.05-.8.25-.7.45-.2-.1l1.6-2.7 1.05-2.9.05-.15zm12.65-1.1-.05.1v.05zm-3.05 2.8.1-1.95v-.6l.5 1.8q.6 2 1.75 3.95t1.8 2.65l.05.05-.15.05-.05-.05-1.2-.8-.6-.15q-.5 0-.9.4-.35.3-.35.6l.35.85q-.25 0-.4.25l-.05.1q-.4-.35-.65-2.85-.25-2.95-.2-4.3m6.5-2.15q.4 1.25 1.95 2.65l1.15 1.1h-.25l-.05.1.25.35.35.85-.1.8-.25.3-1.05-1.15-1.15-1.75q-.95-2.25-1.05-3.65zm-.7-8.3.5.85-.4.4-.2-.05V3l.6 1.85.05.1-1.1-1.05-.65-.8-.9.4-.25-.45V3l-.5.1v.15l.45 1.1.45 1.25-.2 1.2-.1.55h-.05q-.5-.5-1-.75l-1.55-1.75-.2-.2L21.5 4h-1.05l-.1.15-.2.3-.95 1.6-.4-.75-.35-.55-.15-1-.3-1-.05.8.05.5h-2.45l-.3.95q-.3.6-.3 1.05l.3 1.25v.65l-.9-1.45-.55-.75-.2-.45-.35-.8-.1-.65-1.5-.05.05-.65-.3-.4q-.35.3-.45 1.05l-.1 1.3v.1l-.4.5L8.8 6.95l-.75.65q-.1-.3-.05-.75l.3-2.45.05-.15.05-.8V3.4l-.15-.05.05-.05.05-.05q-.55-.05-.8-.3l-.15.2-.2.85-.8.75h-.05l-.1-1.2.25-.8L5.8 2l.3-.55L6.85.2 7.5.05l.3.05.25-.05 1.5.05 3.8-.05h.6l.65.05 8.95-.1h.9l.3.05.15-.05h.8q.5.05.7.25l.05.05zm-15.65 6.8q-.25 1.85-1.4 3.7l-1.3 2.65.2-1.5q0-1.55.6-2.2l1.1-1.5zM5 3.45l-.25.4v-.1zm-.7 0 .2-.2-.1.1-.2.4zm1.15 5.1q-.1 1.4-1.05 3.65l-1.65 2.85-.65.5q-.3.2-.45-.4-.15-.65.25-1.25v-.05l.05-.1.25-.35.2-.1-.65-.15L3.3 11.6q1.55-1.4 1.95-2.65zm-4.2 6.9.05.3-.1-.2z"/></g></defs></svg>