<?xml version="1.0" encoding="UTF-8" standalone="no"?>
<svg xmlns:ffdec="https://www.free-decompiler.com/flash" xmlns:xlink="http://www.w3.org/1999/xlink" ffdec:objectType="frame" height="19.55px" width="32.65px" xmlns="http://www.w3.org/2000/svg">
  <g transform="matrix(1.0, 0.0, 0.0, 1.0, 6.45, -0.05)">
    <use ffdec:characterId="2" height="19.5" id="Color" transform="matrix(1.0, 0.0, 0.0, 1.0, -6.45, 0.1)" width="32.65" xlink:href="#sprite0"/>
    <use ffdec:characterId="3" height="19.55" transform="matrix(1.0, 0.0, 0.0, 1.0, -6.45, 0.05)" width="32.65" xlink:href="#shape1"/>
  </g>
  <defs>
    <g id="sprite0" transform="matrix(1.0, 0.0, 0.0, 1.0, 0.4, -1.0)">
      <use ffdec:characterId="1" height="19.5" transform="matrix(1.0, 0.0, 0.0, 1.0, -0.4, 1.0)" width="32.65" xlink:href="#shape0"/>
    </g>
    <g id="shape0" transform="matrix(1.0, 0.0, 0.0, 1.0, 0.4, -1.0)">
      <path d="M24.7 18.5 Q23.7 17.55 22.55 17.55 21.1 18.4 21.95 19.3 21.35 20.45 15.95 20.5 10.55 20.55 9.9 19.3 10.75 18.4 9.3 17.55 8.15 17.55 7.15 18.5 3.3 18.3 1.35 16.3 0.95 15.25 1.95 14.25 -0.65 13.6 -0.35 11.4 L6.05 1.0 25.8 1.0 32.2 11.4 Q32.5 13.6 29.9 14.25 30.9 15.25 30.5 16.3 28.55 18.3 24.7 18.5" fill="#004785" fill-rule="evenodd" stroke="none"/>
    </g>
    <g id="shape1" transform="matrix(1.0, 0.0, 0.0, 1.0, 6.45, -0.05)">
      <path d="M21.8 12.05 Q24.3 11.55 24.65 10.0 L25.1 8.75 26.15 10.5 Q26.45 12.7 23.85 13.35 24.85 14.35 24.45 15.4 22.5 17.4 18.65 17.6 17.65 16.65 16.5 16.65 15.05 17.5 15.9 18.4 15.3 19.55 9.9 19.6 4.5 19.65 3.85 18.4 4.7 17.5 3.25 16.65 2.1 16.65 1.1 17.6 -2.75 17.4 -4.7 15.4 -5.1 14.35 -4.1 13.35 -6.7 12.7 -6.4 10.5 L-5.2 8.6 -5.0 9.75 Q-4.95 10.55 -4.0 11.2 -3.05 11.8 -1.6 12.05 -1.0 15.0 1.6 14.85 3.6 14.75 4.3 15.3 L5.2 16.0 7.15 16.7 9.9 16.9 Q12.6 16.75 14.3 15.9 15.55 14.85 16.4 14.75 L17.85 14.9 Q19.55 15.15 20.4 14.5 21.15 13.9 21.8 12.05" fill="#ffcc79" fill-rule="evenodd" stroke="none"/>
      <path d="M5.05 9.95 L5.05 10.0 5.15 11.95 5.05 16.0 Q4.85 18.7 4.45 18.8 4.0 18.85 3.95 18.6 3.85 18.35 4.0 18.1 L4.15 17.65 3.55 16.85 Q3.1 16.45 2.9 16.65 2.6 16.6 2.1 16.9 1.4 17.35 1.9 16.8 L3.5 14.1 4.55 11.2 4.6 11.05 5.05 9.95 M17.7 8.85 L17.65 8.95 17.65 9.0 17.7 8.85 M14.65 11.65 L14.75 9.7 14.75 9.1 15.25 10.9 Q15.85 12.9 17.0 14.85 18.15 16.8 18.8 17.5 L18.85 17.55 18.7 17.6 18.65 17.55 17.45 16.75 16.85 16.6 Q16.35 16.6 15.95 17.0 15.6 17.3 15.6 17.6 L15.95 18.45 Q15.7 18.45 15.55 18.7 L15.5 18.8 Q15.1 18.45 14.85 15.95 14.6 13.0 14.65 11.65 M21.15 9.5 Q21.55 10.75 23.1 12.15 L24.25 13.25 24.0 13.25 23.95 13.35 24.2 13.7 24.55 14.55 24.45 15.35 24.2 15.65 23.15 14.5 22.0 12.75 Q21.05 10.5 20.95 9.1 L21.15 9.5 M20.45 1.2 L20.95 2.05 20.55 2.45 20.35 2.4 20.35 2.6 20.35 2.65 20.35 3.05 20.95 4.9 21.0 5.0 19.9 3.95 19.25 3.15 18.35 3.55 18.1 3.1 18.1 3.05 17.6 3.15 17.6 3.3 18.05 4.4 18.5 5.65 18.3 6.85 18.2 7.4 18.15 7.4 Q17.65 6.9 17.15 6.65 L15.6 4.9 15.4 4.7 15.05 4.05 14.85 4.05 14.0 4.05 13.9 4.2 13.7 4.5 12.75 6.1 12.35 5.35 12.0 4.8 11.85 3.8 11.55 2.8 11.5 3.6 11.55 4.1 10.35 4.1 9.1 4.1 8.8 5.05 Q8.5 5.65 8.5 6.1 L8.8 7.35 8.8 8.0 7.9 6.55 7.35 5.8 7.15 5.35 6.8 4.55 6.7 3.9 5.2 3.85 5.25 3.2 4.95 2.8 Q4.6 3.1 4.5 3.85 L4.4 5.15 4.4 5.25 4.0 5.75 2.35 7.0 1.6 7.65 Q1.5 7.35 1.55 6.9 L1.85 4.45 1.9 4.3 1.95 3.5 1.95 3.45 1.8 3.4 1.85 3.35 1.9 3.3 Q1.35 3.25 1.1 3.0 L0.95 3.2 0.75 4.05 -0.05 4.8 -0.1 4.8 -0.2 3.6 0.05 2.8 -0.65 2.05 -0.35 1.5 0.4 0.25 1.05 0.1 1.35 0.15 1.6 0.1 3.1 0.15 6.9 0.1 7.5 0.1 8.15 0.15 17.1 0.05 17.15 0.05 18.0 0.05 18.3 0.1 18.45 0.05 18.65 0.05 19.25 0.05 Q19.75 0.1 19.95 0.3 L20.0 0.35 20.45 1.2 M4.8 8.0 Q4.55 9.85 3.4 11.7 L2.1 14.35 2.3 12.85 Q2.3 11.3 2.9 10.65 L4.0 9.15 4.8 8.0 M-1.45 3.5 L-1.7 3.9 -1.7 3.8 -1.45 3.5 M-2.15 3.5 L-1.95 3.3 -2.05 3.4 -2.25 3.8 -2.15 3.5 M-1.0 8.6 Q-1.1 10.0 -2.05 12.25 L-3.7 15.1 -4.35 15.6 Q-4.65 15.8 -4.8 15.2 -4.95 14.55 -4.55 13.95 L-4.55 13.9 -4.5 13.8 -4.25 13.45 -4.05 13.35 -4.7 13.2 -3.15 11.65 Q-1.6 10.25 -1.2 9.0 L-1.0 8.6 M-5.2 15.5 L-5.15 15.8 -5.25 15.6 -5.2 15.5" fill="#000000" fill-opacity="0.2" fill-rule="evenodd" stroke="none"/>
    </g>
  </defs>
</svg>
