<svg xmlns="http://www.w3.org/2000/svg" xmlns:ffdec="https://www.free-decompiler.com/flash" xmlns:xlink="http://www.w3.org/1999/xlink" ffdec:objectType="frame" width="21.5" height="26.3"><use ffdec:characterId="1" xlink:href="#a" width="21.5" height="26.3"/><defs><g id="a" fill-rule="evenodd"><path fill="#61b1a6" d="M12.15 11.35v-.2q-.05-1.15-.9-1.35V2.05h6.15l.25.85Q18.7 6 21.2 7.2l-.9 3.95-3.05 12q-.7-1.6-.8-5.65.05-3.4.45-5.1l-2.05 6.3q-.65 2.75 1.5 4.25l-1.9 1.15-.4.15-1.25-.2q-1.2-.2-.25.35.95.5 1.8.65h1.1l.45-.15q.8 0-.1 1.3l-1.9.05-.85-.55 1.7-.3-2.05-.7-1.3-1.35-.45-.75.1-.2.1-.15q2.6-1.3 4.2-8.25-2.3 4.45-2.75 1.5l-.45-3.65zm-2.7 0H9.4v.25l.35 9.3H9.7l-.4-9-.15 3.65Q9 18.5 6.1 14.25q1.4 4.9 2.5 6.15l1.7 1.9.1.15.1.2-.45.75-.65.7-.95.2q-.95.2-1.05 0l-.4-.15L5.45 23q.85-.85 1.2-2.1.25-.95-.05-2.15l-1.75-5.9.2 4.55-.3 3.5-.55 2.3-.6-2.3-.4-1.75-1.3-5.05Q.55 9.4.2 6.9l1.95-1.35q1.6-1.4 2.35-3.5h5.65V9.8q-.7.35-.7 1.55M5.8 23l1.2.7 1.45.35.85-.9.8-.5-1.9-.1zm2.95 1.75q-1.35.8-2.7.8l2.35.2-.85.55-1.9-.05q-.9-1.3-.1-1.3l.7.15H7.5l1.55-.65zm3.4-1.65.85.9 1.45-.35 1.2-.7-1.45-.05-2.85-.3z"/><path fill="#87c2a6" d="M7.65 0v2.05h-1V0zm7 0v2.05h-.8V0zm6.3.05.35 2h-1.05l-.35-2zM1.7 0l-.35 2.05H.15L.4 0z"/><path fill="#258774" d="M13.85 0v2.05h-2.6V9.8l-.6-.1-.5.1V2.05h-2.5V0h6.2m3.2.05h2.85l.35 2h1.05q.3 1.7.1 3.2l-.2 1.95Q18.7 6 17.65 2.9l-.25-.85h-2.75V0zM5.05 0h1.6v2.05H4.5q-.75 2.1-2.35 3.5L.2 6.9 0 4.95l.15-2.9h1.2L1.7 0zm4.1 15.55.15-3.65.4 9v.2l.6 1.2-1.7-1.9q-1.1-1.25-2.5-6.15 2.9 4.25 3.05 1.3m-4.1 1.85-.2-4.55 1.75 5.9q.3 1.2.05 2.15-.35 1.25-1.2 2.1L7 24.15l.4.15q.1.2 1.05 0l.95-.2.65-.7.55 1-.8 1.2.05.6-2.3.1.85-.55-2.35-.2q1.35 0 2.7-.8l.3-.3-1.55.65H6.25l-.7-.15q-.8 0 .1 1.3l-.8-.05-.15-.6-.95-.95.45-1.45.55-2.3zM5.8 23l2.4-.45 1.9.1-.8.5-.85.9L7 23.7zm7.2 1-.85-.9-.8-.5 2.85.3 1.45.05-1.2.7zm-.4-8.5q.45 2.95 2.75-1.5-1.6 6.95-4.2 8.25l.6-1.2.4-9.2zm-1.2 7.85 1.3 1.35 2.05.7-1.7.3.85.55-2.3-.1.05-.6-.8-1.2zm1.4.7 1.25.2.4-.15 1.9-1.15q-2.15-1.5-1.5-4.25l2.05-6.3q-.4 1.7-.45 5.1.1 4.05.8 5.65l.45 1.45-.95.95-.15.6-.8.05q.9-1.3.1-1.3l-.45.15h-1.1q-.85-.15-1.8-.65-.95-.55.25-.35"/></g></defs></svg>