<?xml version="1.0" encoding="UTF-8" standalone="no"?>
<svg xmlns:ffdec="https://www.free-decompiler.com/flash" xmlns:xlink="http://www.w3.org/1999/xlink" ffdec:objectType="frame" height="12.8px" width="32.0px" xmlns="http://www.w3.org/2000/svg">
  <g transform="matrix(1.0, 0.0, 0.0, 1.0, 5.95, -1.65)">
    <use ffdec:characterId="1" height="12.8" transform="matrix(1.0, 0.0, 0.0, 1.0, -5.95, 1.65)" width="32.0" xlink:href="#shape0"/>
  </g>
  <defs>
    <g id="shape0" transform="matrix(1.0, 0.0, 0.0, 1.0, 5.95, -1.65)">
      <path d="M22.55 11.05 L22.35 11.0 22.2 10.9 22.1 11.15 21.85 11.6 21.65 11.8 21.0 12.3 18.85 13.0 15.7 13.3 15.5 13.3 14.9 13.2 14.8 13.1 Q14.65 13.45 12.85 14.1 L10.15 14.45 10.05 14.45 7.25 14.1 Q5.45 13.45 5.3 13.1 L5.15 13.2 4.4 13.3 3.95 13.3 1.25 13.0 Q-0.1 12.75 -0.9 12.3 L-1.55 11.8 -1.75 11.6 -2.0 11.15 -2.1 10.9 -2.15 10.95 -2.45 11.05 -2.95 10.95 -4.0 10.5 -5.95 9.1 -5.7 8.85 Q-4.4 8.2 -3.05 6.55 -1.05 4.15 -0.55 1.65 L0.25 2.05 0.6 2.25 0.8 2.35 1.5 2.65 1.55 2.65 1.65 2.7 2.5 2.75 6.25 3.4 6.4 3.4 6.4 3.45 6.85 3.45 7.5 3.55 10.05 3.65 12.6 3.55 13.0 3.5 13.15 3.5 13.25 3.45 13.7 3.45 13.7 3.4 17.6 2.75 18.4 2.7 18.45 2.7 18.5 2.7 19.3 2.35 19.5 2.25 19.85 2.05 20.65 1.65 Q21.15 4.15 23.15 6.55 24.5 8.2 25.8 8.85 L26.05 9.1 24.1 10.5 23.5 10.8 22.55 11.05" fill="#e5baff" fill-rule="evenodd" stroke="none"/>
      <path d="M20.35 3.3 L20.1 3.1 19.9 2.75 Q20.1 2.7 20.55 3.15 L20.35 3.3 M20.5 4.2 L20.45 4.45 20.45 4.5 20.15 4.7 19.95 4.7 20.05 4.85 19.7 5.2 19.65 5.2 19.45 5.1 19.25 4.85 18.95 5.1 18.6 4.95 18.55 4.9 18.6 4.65 18.85 4.5 18.7 4.5 Q18.4 4.5 18.35 4.1 L18.35 3.85 18.55 3.7 18.95 3.75 19.2 3.9 Q19.05 3.7 19.2 3.45 19.3 3.2 19.6 3.2 L19.85 3.4 20.05 3.65 19.9 3.95 20.1 3.95 20.45 4.05 20.5 4.2 M21.05 5.7 L21.2 5.6 21.4 5.55 21.6 5.7 21.65 5.55 21.8 5.35 21.9 5.35 22.05 5.45 22.1 5.45 22.15 5.7 22.1 5.85 22.15 5.85 Q22.4 5.8 22.3 6.2 L22.3 6.25 22.2 6.3 21.95 6.4 22.05 6.65 21.85 6.85 21.8 6.9 21.65 6.8 21.6 6.6 21.6 6.7 21.2 6.85 21.05 6.8 21.05 6.6 21.2 6.3 21.35 6.2 21.05 6.1 21.05 5.7 M21.9 6.1 L21.75 5.95 21.65 6.0 21.5 6.2 21.5 6.35 21.6 6.35 21.75 6.4 21.9 6.2 21.9 6.1 M23.7 8.4 L23.75 8.45 23.55 8.85 23.4 9.0 23.65 9.05 Q23.9 9.2 23.55 9.6 L23.55 9.65 23.25 9.75 22.95 9.7 22.8 10.15 22.4 10.3 22.4 10.35 22.2 10.05 22.35 9.75 22.2 9.85 Q21.95 10.1 21.6 9.85 L21.4 9.65 21.5 9.4 21.85 9.05 22.2 9.0 21.9 8.65 Q21.8 8.35 22.05 8.15 L22.4 8.05 22.75 8.1 22.8 8.45 23.0 8.25 23.4 8.1 23.55 8.2 23.7 8.4 M23.1 9.2 L22.95 8.95 22.8 8.95 22.45 9.05 22.4 9.3 22.45 9.45 22.7 9.55 22.95 9.35 23.1 9.2 M24.45 9.15 L24.2 9.7 24.1 9.75 24.0 9.55 24.3 9.0 24.45 9.15 M20.4 6.65 L20.25 6.75 20.15 6.6 20.1 6.45 20.1 5.95 20.2 5.95 20.4 6.4 20.4 6.65 M16.1 2.75 Q16.2 2.4 16.6 2.4 L16.9 2.55 16.9 2.6 16.95 2.65 17.2 3.0 17.05 3.45 17.3 3.4 Q17.7 3.35 17.8 3.55 L17.85 3.75 17.8 4.1 17.8 4.15 17.35 4.45 17.1 4.45 17.2 4.65 Q17.35 5.1 16.75 5.15 L16.7 5.15 16.4 5.0 16.15 4.65 15.7 5.0 Q15.35 5.05 15.25 4.8 L15.2 4.7 15.25 4.35 15.6 4.2 15.4 4.2 Q14.95 4.2 14.9 3.65 L14.9 3.45 14.9 3.25 Q15.05 3.0 15.2 3.05 L15.7 3.15 16.05 3.35 Q15.85 3.05 16.05 2.75 L16.1 2.75 M16.65 4.3 L16.75 3.95 16.6 3.75 16.2 3.6 16.0 3.75 15.9 3.95 16.05 4.3 16.4 4.35 16.65 4.3 M17.45 5.85 L17.65 5.8 17.9 6.05 17.95 6.2 18.0 6.1 Q18.25 6.0 18.35 6.35 L18.3 6.55 18.1 6.7 18.35 6.95 18.3 7.2 18.25 7.2 18.05 7.25 17.9 7.05 17.9 7.15 17.65 7.5 17.55 7.5 17.4 7.55 17.3 7.35 17.3 7.1 17.4 6.85 17.05 6.9 16.8 6.65 16.95 6.45 17.1 6.25 17.4 6.3 17.3 6.15 17.35 5.85 17.45 5.85 M19.15 4.2 L19.1 4.35 19.2 4.6 19.45 4.65 19.65 4.6 19.7 4.35 19.6 4.2 19.3 4.1 19.15 4.2 M11.75 4.55 L11.8 4.7 11.85 4.6 Q12.1 4.5 12.2 4.85 L12.15 5.05 11.95 5.2 12.2 5.45 12.15 5.7 12.1 5.7 11.9 5.75 11.75 5.55 11.75 5.65 11.5 6.0 11.4 6.0 11.25 6.05 11.15 5.85 11.15 5.6 11.25 5.35 10.9 5.4 10.65 5.15 10.8 4.95 10.95 4.75 11.25 4.8 11.15 4.65 11.2 4.35 11.3 4.35 11.5 4.3 11.75 4.55 M11.7 4.95 L11.5 4.9 11.4 5.05 11.35 5.25 11.45 5.35 11.55 5.35 11.75 5.3 11.8 5.1 11.7 4.95 M13.35 5.15 L13.35 5.05 13.5 5.0 13.7 5.0 13.85 5.1 13.85 4.85 Q13.9 4.7 14.1 4.7 L14.25 4.8 14.35 4.95 14.25 5.15 14.35 5.15 14.6 5.2 14.6 5.3 14.6 5.4 14.6 5.45 14.4 5.55 14.3 5.55 14.35 5.65 14.15 5.85 14.1 5.85 14.0 5.8 13.9 5.65 13.7 5.8 13.5 5.7 13.5 5.55 13.6 5.55 13.65 5.45 13.6 5.45 13.35 5.25 13.35 5.15 M13.9 5.2 L13.85 5.3 13.8 5.35 13.85 5.45 14.15 5.35 14.1 5.3 13.9 5.2 M14.75 6.95 L14.75 6.75 14.9 6.75 15.3 6.8 15.4 6.9 15.25 7.05 14.9 7.05 14.75 6.95 M12.9 7.45 L12.75 7.65 12.4 7.65 Q11.8 7.4 11.9 7.2 L12.05 7.15 12.25 7.25 12.85 7.35 12.9 7.45 M13.4 7.75 Q13.5 7.55 13.75 7.55 L13.95 7.7 14.1 7.95 14.0 8.2 14.15 8.2 14.4 8.3 14.45 8.4 14.4 8.65 14.4 8.7 14.15 8.85 14.0 8.85 14.1 9.0 13.8 9.3 13.75 9.3 13.6 9.2 13.45 9.0 13.2 9.2 12.9 9.05 12.85 9.05 12.9 8.8 13.1 8.7 12.95 8.7 12.65 8.35 12.65 8.1 12.85 7.95 13.2 8.05 13.4 8.15 Q13.25 7.95 13.4 7.75 M13.75 8.4 L13.5 8.35 13.35 8.4 13.3 8.55 13.4 8.75 13.6 8.8 13.75 8.75 13.8 8.55 13.75 8.4 M10.85 7.3 L10.9 7.5 10.85 7.85 10.85 7.9 10.4 8.2 10.15 8.2 10.25 8.4 Q10.4 8.85 9.8 8.9 L9.75 8.9 Q9.5 8.9 9.45 8.75 L9.2 8.4 8.75 8.75 Q8.4 8.8 8.3 8.55 L8.25 8.45 8.3 8.1 8.65 7.95 8.45 7.95 Q8.0 7.95 7.95 7.4 L7.95 7.2 7.95 7.0 Q8.1 6.75 8.25 6.8 L8.75 6.9 9.1 7.1 Q8.9 6.8 9.1 6.5 L8.0 6.7 9.15 6.5 Q9.25 6.15 9.65 6.15 L9.95 6.3 9.95 6.35 10.0 6.4 10.25 6.75 10.1 7.2 10.35 7.15 Q10.75 7.1 10.85 7.3 M11.25 11.65 L11.4 11.55 11.55 11.5 Q11.65 11.5 11.75 11.65 L11.75 11.55 11.85 11.3 11.95 11.3 12.05 11.35 12.1 11.35 12.15 11.55 12.15 11.65 12.25 11.65 12.4 11.8 12.4 11.85 12.35 11.95 12.15 12.05 12.25 12.25 12.15 12.45 12.0 12.4 12.0 12.3 11.9 12.25 11.9 12.3 11.65 12.5 11.55 12.5 11.45 12.45 11.45 12.3 11.45 12.1 11.6 11.95 11.35 11.9 11.25 11.65 M11.9 11.7 L11.85 11.75 11.7 11.95 11.8 12.0 11.85 12.05 11.95 12.05 11.9 11.7 M15.05 10.75 L15.55 10.4 15.6 10.5 15.15 10.95 15.05 10.75 M17.9 6.8 L17.95 6.6 17.85 6.45 17.65 6.4 17.55 6.55 17.5 6.75 17.6 6.85 17.7 6.85 17.9 6.8 M16.85 9.15 L17.0 9.3 16.9 9.5 17.0 9.5 17.25 9.6 17.25 9.7 17.25 9.85 17.25 9.9 17.05 10.0 16.9 10.0 17.0 10.15 16.75 10.35 16.7 10.35 16.6 10.3 16.45 10.15 16.25 10.3 Q16.1 10.35 16.05 10.2 L16.0 10.15 16.05 10.0 16.2 9.9 16.1 9.9 15.85 9.65 15.85 9.45 16.0 9.35 16.25 9.4 16.45 9.5 Q16.3 9.35 16.45 9.2 16.5 9.0 16.7 9.0 L16.85 9.15 M16.75 9.8 L16.7 9.7 16.5 9.65 16.4 9.7 16.35 9.8 16.45 9.95 16.6 10.0 16.7 9.95 16.75 9.8 M17.7 10.5 L17.95 10.3 18.4 10.4 18.7 10.55 Q18.5 10.3 18.7 10.0 18.8 9.7 19.15 9.7 L19.45 9.95 19.65 10.25 19.5 10.6 19.7 10.6 Q20.05 10.55 20.1 10.75 L20.15 10.9 20.1 11.2 20.1 11.3 19.75 11.5 19.55 11.5 19.65 11.7 Q19.75 12.05 19.25 12.1 L19.2 12.1 18.95 12.0 18.75 11.7 18.4 12.0 Q18.1 12.05 18.0 11.8 L17.95 11.75 18.0 11.45 18.3 11.3 18.1 11.3 Q17.8 11.3 17.7 10.8 L17.7 10.5 M15.4 12.35 L15.2 12.05 15.35 12.0 15.45 12.05 15.45 11.75 15.55 11.75 15.7 12.0 15.9 11.95 16.0 12.05 15.85 12.25 16.0 12.5 15.8 12.75 15.6 12.65 15.45 12.75 15.35 12.7 15.35 12.35 15.4 12.35 M18.55 11.1 L18.7 11.4 18.95 11.45 19.2 11.4 19.25 11.1 19.15 10.9 18.8 10.8 Q18.7 10.8 18.65 10.9 L18.55 11.1 M6.9 4.6 L7.05 4.7 7.05 4.45 7.3 4.3 7.45 4.4 7.55 4.55 7.45 4.75 7.55 4.75 7.8 4.8 7.8 4.9 7.8 5.0 7.8 5.05 7.6 5.15 7.5 5.15 7.55 5.25 7.35 5.45 7.3 5.45 7.2 5.4 7.1 5.25 6.9 5.4 6.7 5.3 6.7 5.15 6.8 5.15 6.85 5.05 6.8 5.05 6.55 4.85 6.55 4.75 6.55 4.65 Q6.65 4.55 6.7 4.6 L6.9 4.6 M5.15 4.15 Q4.85 4.15 4.6 3.85 L4.45 3.5 4.6 3.5 Q4.85 3.5 5.35 4.0 L5.15 4.15 M7.35 4.95 L7.3 4.9 7.1 4.8 7.05 4.9 7.0 4.95 7.05 5.05 7.35 4.95 M5.2 5.6 L5.25 5.75 5.2 6.25 5.2 6.3 Q5.05 6.6 4.7 6.6 L4.5 6.6 4.6 6.8 Q4.7 7.4 4.15 7.45 L4.05 7.45 Q3.7 7.45 3.65 7.25 L3.55 7.2 3.45 7.0 3.4 6.9 3.4 6.95 3.15 6.85 Q2.7 6.85 2.55 7.2 L2.35 7.0 2.35 6.9 2.35 6.5 2.75 6.3 2.5 6.3 Q2.05 6.3 1.95 5.7 L1.95 5.55 1.95 5.3 2.35 5.0 2.9 5.15 3.25 5.35 Q3.05 5.1 3.25 4.75 3.4 4.3 3.9 4.3 L4.3 4.65 4.55 5.0 4.4 5.45 4.7 5.4 5.2 5.6 M9.4 4.4 L9.2 4.65 Q8.7 4.65 8.7 4.3 L8.8 4.2 9.25 4.2 9.4 4.4 M0.3 2.5 L0.45 2.7 0.35 2.9 0.5 2.9 0.8 3.0 0.8 3.1 0.8 3.3 0.55 3.45 0.4 3.45 0.45 3.55 0.2 3.85 0.0 3.75 -0.1 3.55 -0.35 3.75 -0.6 3.65 -0.65 3.6 -0.6 3.4 -0.4 3.35 -0.5 3.35 -0.8 3.05 -0.8 2.9 -0.8 2.8 -0.65 2.7 -0.35 2.75 -0.15 2.85 -0.15 2.55 Q-0.1 2.35 0.15 2.35 L0.3 2.5 M1.9 4.45 L1.65 4.25 1.65 3.85 1.9 4.0 2.1 4.3 1.9 4.45 M0.2 3.2 L0.15 3.1 -0.1 3.0 -0.2 3.1 -0.25 3.2 -0.15 3.4 0.0 3.4 0.15 3.4 0.2 3.2 M0.15 4.9 L0.05 5.1 0.15 5.1 0.4 5.15 0.4 5.25 0.4 5.35 0.4 5.4 0.2 5.5 0.1 5.5 0.15 5.6 -0.05 5.8 -0.1 5.8 -0.2 5.75 -0.3 5.6 Q-0.35 5.75 -0.5 5.75 L-0.7 5.65 -0.7 5.5 -0.55 5.4 -0.6 5.4 -0.85 5.2 -0.85 5.1 -0.85 5.0 -0.7 4.95 -0.5 4.95 -0.35 5.05 -0.35 4.8 -0.1 4.65 0.05 4.75 0.15 4.9 M2.75 7.75 L2.75 7.8 2.75 8.0 2.55 8.1 2.5 8.1 2.55 8.15 2.4 8.4 2.35 8.4 2.2 8.3 2.15 8.2 1.95 8.3 1.8 8.25 1.8 8.2 1.8 8.05 1.9 8.0 1.85 8.0 1.65 7.8 1.65 7.75 1.65 7.65 Q1.7 7.55 1.8 7.55 L1.95 7.6 2.1 7.7 2.1 7.5 2.1 7.45 Q2.15 7.35 2.3 7.35 L2.4 7.35 2.4 7.4 2.45 7.45 2.5 7.55 2.45 7.7 2.55 7.7 2.75 7.75 M3.45 5.7 L3.25 5.85 3.05 6.1 3.3 6.45 3.65 6.5 3.9 6.45 4.05 6.1 3.85 5.85 3.45 5.7 M1.55 6.75 L1.15 7.0 Q0.7 7.0 0.75 6.65 L1.45 6.65 1.55 6.75 M2.3 8.05 L2.35 7.95 2.3 7.85 2.15 7.8 2.1 7.85 2.0 7.95 2.1 8.05 2.2 8.05 2.3 8.05 M0.0 9.55 L-0.3 9.4 -0.3 9.2 -0.15 9.2 0.25 9.4 0.0 9.55 M0.4 10.8 L0.3 10.65 0.05 10.55 -0.1 10.65 -0.25 10.8 -0.05 11.05 0.15 11.05 0.3 11.05 0.4 10.8 M0.3 9.65 L0.6 9.85 0.75 10.1 0.65 10.4 0.85 10.35 Q1.1 10.35 1.15 10.5 L1.2 10.6 1.15 10.9 1.15 10.95 0.85 11.15 0.7 11.15 0.8 11.25 Q0.85 11.65 0.5 11.7 L0.4 11.7 0.15 11.55 0.0 11.35 -0.35 11.55 -0.7 11.4 -0.7 11.35 -0.7 11.05 -0.45 10.95 -0.6 10.95 -0.95 10.55 -0.95 10.3 -0.7 10.1 -0.35 10.2 -0.1 10.3 -0.1 9.95 Q0.0 9.65 0.3 9.65 M2.5 10.95 L2.65 10.75 2.95 10.8 2.85 10.65 2.9 10.35 3.0 10.35 3.2 10.3 3.45 10.55 3.5 10.7 3.55 10.6 3.9 10.85 3.85 11.05 3.65 11.2 3.9 11.45 3.85 11.7 3.8 11.7 3.6 11.75 3.45 11.55 3.45 11.65 3.2 12.0 3.1 12.0 2.95 12.05 2.85 11.85 2.85 11.6 2.95 11.35 2.6 11.4 2.35 11.15 2.5 10.95 M9.25 7.35 L9.05 7.5 8.95 7.7 9.1 8.05 9.45 8.1 9.7 8.05 9.8 7.7 9.65 7.5 9.25 7.35 M3.4 10.95 L3.2 10.9 3.1 11.05 3.05 11.25 3.15 11.35 3.25 11.35 3.45 11.3 3.5 11.1 3.4 10.95 M7.9 8.5 L7.9 8.6 7.9 8.75 7.9 8.8 7.65 8.95 7.5 8.95 7.6 9.05 7.35 9.3 7.3 9.3 7.15 9.2 7.0 9.05 6.8 9.2 6.55 9.1 6.5 9.1 6.55 8.9 6.75 8.8 6.6 8.8 6.35 8.5 6.35 8.35 Q6.45 8.2 6.5 8.25 L6.8 8.3 7.0 8.4 Q6.85 8.25 7.0 8.05 7.05 7.9 7.25 7.9 L7.45 8.05 7.6 8.2 7.5 8.4 7.65 8.4 7.9 8.5 M7.1 6.55 Q7.25 6.15 7.7 6.15 L7.8 6.25 7.25 6.65 7.1 6.55 M5.65 8.95 L5.55 9.0 5.25 8.25 Q5.7 8.1 5.7 8.65 L5.65 8.95 M6.95 8.6 L6.9 8.7 7.0 8.85 7.15 8.9 7.3 8.85 7.35 8.7 7.25 8.6 7.05 8.5 6.95 8.6 M6.5 9.9 L6.9 10.25 6.95 10.45 7.1 10.3 Q7.55 10.05 7.75 10.55 L7.75 10.6 7.7 11.0 7.45 11.3 7.9 11.65 Q8.05 12.0 7.85 12.15 L7.75 12.2 7.4 12.3 7.15 12.0 7.2 12.2 Q7.35 12.6 6.85 12.85 L6.7 12.9 6.5 12.95 6.15 12.7 6.1 12.2 6.2 11.85 5.65 12.0 Q5.25 12.0 5.15 11.55 5.1 11.4 5.3 11.15 L5.55 10.85 6.0 10.85 5.9 10.6 Q5.75 10.25 5.9 10.1 6.0 10.0 6.05 10.0 L6.45 9.9 6.5 9.9 M7.1 11.5 L7.05 11.2 6.95 10.95 6.6 10.95 6.45 11.15 6.45 11.55 6.6 11.7 6.85 11.8 7.1 11.5 M9.55 12.25 L8.9 12.95 8.8 12.9 8.75 12.75 8.95 12.45 9.45 12.15 9.55 12.25 M-0.35 5.25 L-0.4 5.3 -0.35 5.45 -0.2 5.5 -0.1 5.45 -0.05 5.3 -0.1 5.25 -0.3 5.15 -0.35 5.25 M-0.4 7.15 L-0.75 6.9 Q-0.75 6.65 -0.2 6.65 0.1 6.65 0.05 6.8 L-0.1 7.0 -0.4 7.15 M-1.75 7.05 L-1.5 7.3 -1.35 7.55 -1.4 7.85 -1.2 7.8 Q-0.95 7.8 -0.85 7.95 L-0.8 8.05 -0.85 8.4 Q-0.95 8.6 -1.2 8.6 L-1.35 8.6 -1.3 8.75 Q-1.2 9.15 -1.6 9.15 L-1.7 9.15 -1.95 9.05 -2.1 8.8 -2.5 9.05 Q-2.8 9.05 -2.9 8.85 L-2.9 8.8 -2.9 8.55 -2.6 8.4 -2.75 8.4 -3.15 8.0 -3.15 7.9 -3.15 7.75 -2.9 7.55 -2.5 7.65 -2.25 7.8 -2.25 7.35 -1.75 7.05 M-1.75 8.5 L-1.7 8.25 -1.8 8.1 -2.1 8.0 -2.25 8.1 -2.35 8.25 -2.2 8.5 -1.95 8.55 -1.75 8.5 M-3.95 9.0 L-3.85 9.1 -4.0 9.25 -4.5 9.3 -4.6 9.1 -4.5 9.0 -3.95 9.0" fill="#de71fc" fill-rule="evenodd" stroke="none"/>
      <path d="M23.75 7.15 Q23.75 7.8 23.2 7.8 L22.45 7.75 22.05 8.25 21.3 8.45 20.8 8.35 20.5 8.35 20.1 8.9 19.35 9.05 18.95 9.0 18.55 9.3 17.95 9.5 17.0 9.15 16.05 9.7 15.15 9.55 Q14.95 10.0 14.3 10.0 L13.45 9.8 12.2 10.2 11.3 10.0 10.85 10.4 10.2 10.45 10.05 10.45 9.65 10.4 9.0 10.1 8.25 10.3 8.15 10.3 7.55 10.3 6.9 9.9 6.8 9.85 6.45 10.0 6.25 10.15 5.4 10.15 4.85 9.8 4.8 9.8 3.9 10.0 Q3.3 10.0 3.1 9.65 L2.8 9.75 2.65 9.75 Q1.9 9.75 1.75 9.4 L1.7 9.4 Q0.95 9.55 0.35 9.0 L-1.0 8.7 -1.35 8.4 -1.75 8.4 -2.6 7.8 -2.95 7.7 Q-3.55 7.6 -3.55 7.35 L-3.05 6.55 -3.0 6.55 -2.85 6.7 Q-1.35 8.2 2.9 8.7 L10.05 9.05 11.85 9.05 19.5 8.2 Q20.75 7.95 21.9 7.3 L23.3 6.45 23.6 6.75 23.75 7.15" fill="#fffbfb" fill-rule="evenodd" stroke="none"/>
      <path d="M18.4 2.7 Q18.4 4.75 20.05 7.7 21.4 10.1 22.35 10.9 M13.0 3.5 Q13.25 11.0 14.9 13.15 M6.4 3.35 L6.55 4.95 Q6.55 7.0 5.85 10.85 L5.6 12.3 5.1 13.15 M1.5 2.75 Q-0.4 10.1 -2.2 10.85" fill="none" stroke="#ffffff" stroke-linecap="round" stroke-linejoin="round" stroke-width="0.2"/>
      <path d="M23.5 10.8 L22.55 11.05 22.35 11.0 Q21.4 10.1 20.05 7.7 18.4 4.75 18.4 2.7 L18.45 2.7 18.5 2.7 Q19.2 5.15 20.65 7.45 22.05 9.65 23.5 10.8 M13.5 5.9 L14.1 9.25 14.85 12.05 15.5 13.3 14.9 13.2 Q13.25 11.0 13.0 3.5 L13.15 3.5 13.5 5.9 M5.6 12.3 L5.15 13.2 4.4 13.3 3.95 13.3 Q5.3 11.35 5.8 8.7 L6.25 3.4 6.4 3.4 6.4 3.45 6.55 4.95 Q6.55 7.0 5.85 10.85 L5.6 12.3 M1.45 3.15 L1.25 3.9 Q-0.5 10.05 -2.1 10.9 L-2.15 10.95 -2.45 11.05 -2.95 10.95 Q-2.05 9.85 -0.9 7.6 L1.5 2.75 1.45 3.15" fill="#000000" fill-opacity="0.2" fill-rule="evenodd" stroke="none"/>
    </g>
  </defs>
</svg>
