<?xml version="1.0" encoding="UTF-8" standalone="no"?>
<svg xmlns:ffdec="https://www.free-decompiler.com/flash" xmlns:xlink="http://www.w3.org/1999/xlink" ffdec:objectType="frame" height="26.3px" width="21.5px" xmlns="http://www.w3.org/2000/svg">
  <g transform="matrix(1.0, 0.0, 0.0, 1.0, 0.7, 0.1)">
    <use ffdec:characterId="1" height="26.3" transform="matrix(1.0, 0.0, 0.0, 1.0, -0.7, -0.1)" width="21.5" xlink:href="#shape0"/>
  </g>
  <defs>
    <g id="shape0" transform="matrix(1.0, 0.0, 0.0, 1.0, 0.7, 0.1)">
      <path d="M11.45 11.25 L11.45 11.05 Q11.4 9.9 10.55 9.7 L10.55 1.95 13.15 1.95 13.95 1.95 16.7 1.95 16.95 2.8 Q18.0 5.9 20.5 7.1 L19.6 11.05 16.55 23.05 Q15.85 21.45 15.75 17.4 15.8 14.0 16.2 12.3 L14.15 18.6 Q13.5 21.35 15.65 22.85 L13.75 24.0 13.35 24.15 12.1 23.95 Q10.9 23.75 11.85 24.3 12.8 24.8 13.65 24.95 L14.75 24.95 15.2 24.8 Q16.0 24.8 15.1 26.1 L13.2 26.15 12.35 25.6 14.05 25.3 12.0 24.6 10.7 23.25 10.25 22.5 10.35 22.3 10.45 22.15 Q13.05 20.85 14.65 13.9 12.35 18.35 11.9 15.4 L11.45 11.75 11.45 11.25 M8.75 11.25 L8.7 11.25 8.7 11.5 9.05 20.8 9.0 20.8 8.6 11.8 8.45 15.45 Q8.3 18.4 5.4 14.15 6.8 19.05 7.9 20.3 L9.6 22.2 9.7 22.35 9.8 22.55 9.35 23.3 8.7 24.0 7.75 24.2 Q6.8 24.4 6.7 24.2 L6.3 24.05 4.75 22.9 Q5.6 22.05 5.95 20.8 6.2 19.85 5.9 18.65 L4.15 12.75 4.35 17.3 4.05 20.8 3.5 23.1 2.9 20.8 2.5 19.05 1.2 14.0 Q-0.15 9.3 -0.5 6.8 L1.45 5.45 Q3.05 4.05 3.8 1.95 L5.95 1.95 6.95 1.95 9.45 1.95 9.45 9.7 Q8.75 10.05 8.75 11.25 M5.1 22.9 L6.3 23.6 7.75 23.95 8.6 23.05 9.4 22.55 7.5 22.45 5.1 22.9 M8.05 24.65 Q6.7 25.45 5.35 25.45 L7.7 25.65 6.85 26.2 4.95 26.15 Q4.05 24.85 4.85 24.85 L5.55 25.0 6.8 25.0 8.35 24.35 8.05 24.65 M11.45 23.0 L12.3 23.9 13.75 23.55 14.95 22.85 13.5 22.8 10.65 22.5 11.45 23.0" fill="#61b1a6" fill-rule="evenodd" stroke="none"/>
      <path d="M6.95 -0.1 L6.95 1.95 5.95 1.95 5.95 -0.1 6.95 -0.1 M13.95 -0.1 L13.95 1.95 13.15 1.95 13.15 -0.1 13.95 -0.1 M20.25 -0.05 L20.6 1.95 19.55 1.95 19.2 -0.05 20.25 -0.05 M1.0 -0.1 L0.65 1.95 -0.55 1.95 -0.3 -0.1 1.0 -0.1" fill="#87c2a6" fill-rule="evenodd" stroke="none"/>
      <path d="M13.15 -0.1 L13.15 1.95 10.55 1.95 10.55 9.7 9.95 9.6 9.45 9.7 9.45 1.95 6.95 1.95 6.95 -0.1 9.45 -0.1 10.55 -0.1 13.15 -0.1 M16.35 -0.05 L19.2 -0.05 19.55 1.95 20.6 1.95 Q20.9 3.65 20.7 5.15 L20.5 7.1 Q18.0 5.9 16.95 2.8 L16.7 1.95 13.95 1.95 13.95 -0.1 16.35 -0.05 M4.35 -0.1 L5.95 -0.1 5.95 1.95 3.8 1.95 Q3.05 4.05 1.45 5.45 L-0.5 6.8 -0.7 4.85 -0.55 1.95 0.65 1.95 1.0 -0.1 4.35 -0.1 M8.45 15.45 L8.6 11.8 9.0 20.8 9.0 21.0 9.6 22.2 7.9 20.3 Q6.8 19.05 5.4 14.15 8.3 18.4 8.45 15.45 M4.35 17.3 L4.15 12.75 5.9 18.65 Q6.2 19.85 5.95 20.8 5.6 22.05 4.75 22.9 L6.3 24.05 6.7 24.2 Q6.8 24.4 7.75 24.2 L8.7 24.0 9.35 23.3 9.9 24.3 9.1 25.5 9.15 26.1 6.85 26.2 7.7 25.65 5.35 25.45 Q6.7 25.45 8.05 24.65 L8.35 24.35 6.8 25.0 5.55 25.0 4.85 24.85 Q4.05 24.85 4.95 26.15 L4.15 26.1 4.0 25.5 3.05 24.55 3.5 23.1 4.05 20.8 4.35 17.3 M5.1 22.9 L7.5 22.45 9.4 22.55 8.6 23.05 7.75 23.95 6.3 23.6 5.1 22.9 M12.3 23.9 L11.45 23.0 10.65 22.5 13.5 22.8 14.95 22.85 13.75 23.55 12.3 23.9 M11.9 15.4 Q12.35 18.35 14.65 13.9 13.05 20.85 10.45 22.15 L11.05 20.95 11.45 11.75 11.9 15.4 M10.7 23.25 L12.0 24.6 14.05 25.3 12.35 25.6 13.2 26.15 10.9 26.05 10.95 25.45 10.15 24.25 10.7 23.25 M12.1 23.95 L13.35 24.15 13.75 24.0 15.65 22.85 Q13.5 21.35 14.15 18.6 L16.2 12.3 Q15.8 14.0 15.75 17.4 15.85 21.45 16.55 23.05 L17.0 24.5 16.05 25.45 15.9 26.05 15.1 26.1 Q16.0 24.8 15.2 24.8 L14.75 24.95 13.65 24.95 Q12.8 24.8 11.85 24.3 10.9 23.75 12.1 23.95" fill="#258774" fill-rule="evenodd" stroke="none"/>
    </g>
  </defs>
</svg>
