<?xml version="1.0" encoding="UTF-8" standalone="no"?>
<svg xmlns:ffdec="https://www.free-decompiler.com/flash" xmlns:xlink="http://www.w3.org/1999/xlink" ffdec:objectType="frame" height="12.2px" width="14.3px" xmlns="http://www.w3.org/2000/svg">
  <g transform="matrix(1.0, 0.0, 0.0, 1.0, 3.1, 0.55)">
    <use ffdec:characterId="14" height="3.3" transform="matrix(1.0, 0.0, 0.0, 1.0, -3.1, 6.3)" width="13.1" xlink:href="#shape0"/>
  </g>
  <defs>
    <g id="shape0" transform="matrix(1.0, 0.0, 0.0, 1.0, 3.1, -6.3)">
      <path d="M1.75 7.85 L1.5 7.8 -2.15 7.2 -2.15 7.15 -1.9 7.15 2.45 7.45 7.85 6.9 6.65 7.35 4.1 7.85 1.75 7.85" fill="#5d2900" fill-opacity="0.29803923" fill-rule="evenodd" stroke="none"/>
      <path d="M0.25 8.95 L-1.15 8.35 -3.1 7.5 4.4 8.35 Q6.8 8.1 8.6 7.3 L9.05 7.1 10.0 6.3 8.8 7.65 10.0 7.8 8.6 8.05 8.35 8.05 8.1 8.25 9.1 8.3 8.65 8.55 8.05 8.65 7.55 8.6 7.3 8.75 7.95 8.85 8.25 8.85 7.8 9.1 7.3 9.2 7.15 9.2 6.6 9.15 7.15 9.25 7.0 9.25 6.35 9.25 3.6 9.6 0.25 8.95 M-1.15 8.35 L-1.0 8.4 -2.05 7.9 -1.15 8.35" fill="#513624" fill-rule="evenodd" stroke="none"/>
    </g>
  </defs>
</svg>
