<svg xmlns="http://www.w3.org/2000/svg" xmlns:ffdec="https://www.free-decompiler.com/flash" xmlns:xlink="http://www.w3.org/1999/xlink" ffdec:objectType="frame" width="14.3" height="12.2"><use ffdec:characterId="15" xlink:href="#a" width="13.6" height="8.6" transform="translate(.7 3.6)"/><defs><radialGradient id="c" cx="0" cy="0" r="819.2" gradientTransform="matrix(.004 0 0 .0028 3.25 8.15)" gradientUnits="userSpaceOnUse" spreadMethod="pad"><stop offset=".169" stop-opacity=".349"/><stop offset=".847" stop-opacity="0"/></radialGradient><linearGradient id="b" x1="-819.2" x2="819.2" gradientTransform="matrix(.0001 -.0031 .0058 .0002 2.9 8.9)" gradientUnits="userSpaceOnUse" spreadMethod="pad"><stop offset=".09" stop-color="#fff" stop-opacity=".671"/><stop offset=".635" stop-color="#fff" stop-opacity="0"/></linearGradient><g id="a" fill-rule="evenodd"><path fill="#fff" d="m9 2.95 1 .4.9.85-.05 1.4L9.7 7.4q-.9.95-3.1 1h-.1l-3.1-.15-1.65-.55q-.8-.3-1.3-1.65l-.1-.35q-.4-1.15.1-2.1.5-1.1 1.45-1.35l.9.05-.6 1.6.3 1.7.05.1q.85 1.45 3.2 1.45h.85Q8.05 6.9 8.65 6l.3-1.3q0-.9-.3-1.25v-.4z"/><path fill="#c26a00" d="m2.1 2.15.2-.2.35-.05-.75.9z"/><path fill="#695755" d="m9.35 2.6.2.25L9.7 5v.1l-.05.25L8.9 7Q7.7 8.45 4.75 8.4l-.2-.05q-3.4-1.2-2.85-4.6l.4-.85.8-.85.85-.5q.4-.2.8 0L6.4 2q.5 0 1.05.35l.9.35.25.05.05-.1L9 2.5z"/><path fill="url(#b)" d="M2.8 11.45q-1.95-.05-3.35-.9-1.3-.8-1.25-1.9.05-1.05 1.45-1.75T3 6.3t3.35.8q1.35.8 1.3 1.9-.05 1.05-1.5 1.75-1.4.75-3.35.7" transform="translate(2.4 -3.05)"/><path fill="url(#c)" d="M.4 8.15q0-.95.8-1.65.85-.7 2-.7 1.2 0 2 .7.85.7.85 1.65T5.2 9.8q-.8.65-2 .65-1.15 0-2-.65-.8-.7-.8-1.65" transform="translate(2.4 -3.05)"/><path fill-opacity=".086" d="M6.55 4.45q.45.3.45.75l-.4.65-.85.3-.9-.3q-.35-.25-.4-.7-.05-.4.25-.7.35-.3.9-.3t.95.3"/><path fill-opacity=".212" d="m5.25 1.45.35.2q4.4.65 5.4 3l-.25 1.45Q5.2 3.2.2 5.05l.05-1.2q1.3-2.9 5-2.4"/><path fill="#513624" d="m12.65 4.6-.7.15-.05.05 1.45.35-.9.3-.7-.05-.2-.05L10.4 6.6l.1-.3.2-.95v-.3l-.35-.55-.5-.55Q7.55 2.1 4.15 2.1q-1.35 0-2.7 1.05L.1 4.2l.05-.4.6-.95q-.25.1-.6.35L0 3.25l.1-.55q.05-.5.65-.85l1.2-.6L3.5.95l3.25.45 1.65.55 1.35.65h.35l.35.05.55-.05h.85l-1.25.6h.05l.35.15 1.35.15 1-.05-.8.25-1 .2.15.1.1.05 1.15.1h.15l.5-.1-.55.35-.3.15zm-8.4 3.95-.9-.1L2 8h.05l-.1-.05-.4-.2 2 .35.6.1 1.1.1h1.2l1.7-.15L9.8 7.7l-.05.05-.6.25-.9.3-.55.15h-.25l-.6.1-1.25.05z"/><path fill-opacity=".298" d="m8.7 1.55-1.05-.4L4.55.5 3.45.45l-1.6.3-.9.3-.45.2 1.15-.7Q2.3.15 2.7.1L3 0l-.05.1.95-.1 1.3.1 1.65.45Q8 .95 8.6 1.4z"/><path fill="#fff" d="M3.7 4.05q.45 0 .45.35l-.4.3q-.55 0-.55-.3t.5-.35m0 3.1-.2.15-.25.1H3l-.5-.2-.2-.4q-.1-.25.95-.35.8 0 .8.3zm1 0 .25.15-.25.15-.2-.05-.05-.15zm2.1-.5L7 6.4l1.45.05q.6.6.15.85l-.85.25-.6-.2q-.5-.4-.35-.7m-.45.5-.1.25H5.9l-.3-.25q-.05-.25.35-.25zm2.1-1.1-.1-.2.4-.25.35.3-.3.2z"/></g></defs></svg>