<svg xmlns="http://www.w3.org/2000/svg" xmlns:ffdec="https://www.free-decompiler.com/flash" xmlns:xlink="http://www.w3.org/1999/xlink" ffdec:objectType="frame" width="15.35" height="12.95"><g transform="translate(2.15 .8)"><use ffdec:characterId="2" xlink:href="#a" width="9.15" height="10.4" transform="translate(-.2 1.4)"/><use ffdec:characterId="14" xlink:href="#b" width="15.35" height="12.95" transform="translate(-2.15 -.8)"/><use ffdec:characterId="5" xlink:href="#c" width="2.1" height="2" transform="translate(4.2 8.85)"/></g><defs><linearGradient id="e" x1="-819.2" x2="819.2" gradientTransform="matrix(0 .006 .006 0 4.6 5)" gradientUnits="userSpaceOnUse" spreadMethod="pad"><stop offset="0" stop-color="#560000"/><stop offset="1" stop-color="#f76fdf"/></linearGradient><linearGradient id="f" x1="-819.2" x2="819.2" gradientTransform="matrix(-.0002 -.0027 -.0027 .0002 4.1 8.9)" gradientUnits="userSpaceOnUse" spreadMethod="pad"><stop offset="0" stop-color="#fff" stop-opacity=".157"/><stop offset=".404" stop-color="#fff" stop-opacity=".2"/><stop offset="1" stop-color="#fff" stop-opacity="0"/></linearGradient><path id="d" fill="url(#e)" fill-rule="evenodd" d="M9.15 2.9v.35l-.5 2.8q-.6 2.15-1.45 3.1-.6.7-1.55 1l-1.85.25h-.3l-1.4-.35Q.35 9.05.05 5.7V4.2q.15-.95.5-1.5l2.1-1.05Q5.85.1 8.7 0q.55.95.45 2.9"/><path id="g" fill="#ffc4d1" fill-opacity=".514" fill-rule="evenodd" d="M0 .95Q0 .6.3.3l.75-.3.35.1q.8.3.7.9l-.35.75q-.35.3-.8.25-.6-.05-.8-.45Q0 1.35 0 .95"/><use ffdec:characterId="1" xlink:href="#d" id="a" width="9.15" height="10.4"/><use ffdec:characterId="4" xlink:href="#g" id="c" width="2.1" height="2"/><g id="b"><path fill="#fff" fill-rule="evenodd" d="M12.9 5.15v.3l-.3 2.45-1 2.35-.35.4q-.75.8-1.7 1.25l-1.95.45q.95-.3 1.55-1 .85-.95 1.45-3.1l.5-2.8V5.1q.1-1.95-.45-2.9h2.2zM3 12q-1-.75-1.95-3.05L.6 7.4l-.05-.85.05-.35 1.9-1.3L2 6.4v1.5q.3 3.35 2.05 4.35l1.4.35-1.4-.1q-.6-.15-1.05-.5"/><path fill="url(#f)" fill-rule="evenodd" d="M1.55 6.6h.35l1.5-.1 1.95-.15h.8v.05l.05-.05 1.05-.05q-.1 2.4-.4 3.05l-.25.6-.2.25q-.75 1.05-2.15 1.1-1.5.05-2.35-.7l-.65-.85q-.5-.95-.6-3l.55-.1h.35zm.45.9-.05-.05v.15z" transform="translate(2.15 .8)"/><path fill-opacity=".498" fill-rule="evenodd" d="m8.1 5.45.2 1.75v.25q-.3 3.6-2 3.6-1.9 0-2.2-2.65v-1l.1-.7v-.1l.05.05V6.5l.4-1.4Q5.15 3.9 6 3.8q.25-.25.85 0 .8.3 1.2 1.55z"/><path fill="#fff" fill-rule="evenodd" d="M4.05 6.55 3.6 6.1l-.2-.75q.05-.5.5-.9t1-.4l.5.1q.95.5.95 1.3l-.05.15-.6.85q-.5.35-1 .3l-.5-.15zm.5 3.6.5-.15.6.25.3.6-.15.4q-.3.4-.8.4-.9-.05-.9-.85 0-.4.45-.65"/><path fill-opacity=".298" fill-rule="evenodd" d="m13.15 2.05.25.85-.2 1.3-.15.65q-.3-.4-1.25-.6l-3.55-.3q-1.95 0-4.55 1.6-2.15 1.3-2.95 2.5l-.2-.7-.05-1.4.25-.35 1.05-.8q.85-.85 1.8-1.4.7-.5 2.8-1.25 2.4-.9 3.75-.9 2.45 0 3 .8"/><path fill="#3a2d2b" fill-rule="evenodd" d="m13.55.55-4-.15-2.35.75L9.55.4zl-6.35.6zq.95.5 1.15 1.6l.05 1.7q-.3-1.5-1.2-1.75l-.3 3.3v.05q-.4 2.85-1.35 4.4l.7-1.95.3-2.45v-.3l.15.05.25-1.85-.05-1.1-.2-.3-.1-.05-.05-.05q-.2-.35-.85-.4L9.9 1.5l-2.5.1q-.95.4-2 .95-1.15.45-1.8 1-1.95 1.3-2.95 2.6l-.2.2.2-.2q1-1.3 2.95-2.6.65-.55 1.8-1 1.05-.55 2-.95l2.5-.1 2.15-.05q.65.05.85.4l.05.05.1.05.2.3.05 1.1-.25 1.85-.15-.05-.05-2.95h-2.2l-.75-.7.75.7Q7.8 2.3 4.6 3.85L2.5 4.9.6 6.2l-.15.15-.35.6Q-.2 6.1 1.25 4.8q2.7-2.35 5.95-3.65 1.4-.75 3.7-1 2.8-.35 4.4.55zm-9.95 3q-.65.5-1.1 1.35.45-.85 1.1-1.35m4 8.8 1.95-.45q-.5.5-2.45.85l-1.95.1-1.1-.2-.4-.2.4.15h1.7z"/><path fill="none" stroke="#3a2d2b" stroke-linecap="round" stroke-linejoin="round" stroke-width=".15" d="M7.2 1.15 9.55.4l4 .15L15.3.7q-1.6-.9-4.4-.55-2.3.25-3.7 1l6.35-.6q.95.5 1.15 1.6l.05 1.7q-.3-1.5-1.2-1.75l-.3 3.3v.05q-.4 2.85-1.35 4.4l-.3.4-.35.4M.45 6.35l.2-.2q1-1.3 2.95-2.6.65-.55 1.8-1 1.05-.55 2-.95l2.5-.1 2.15-.05q.65.05.85.4l.05.05.1.05.2.3.05 1.1-.25 1.85-.15-.05v.3l-.3 2.45-.7 1.95M10.65 2.2h2.2l.05 2.95m-3-3.65.75.7Q7.8 2.3 4.6 3.85L2.5 4.9.6 6.2l-.15.15-.35.6Q-.2 6.1 1.25 4.8q2.7-2.35 5.95-3.65M2.5 4.9q.45-.85 1.1-1.35m2.15 9.05h-1.7l-.4-.15.4.2 1.1.2 1.95-.1q1.95-.35 2.45-.85l-1.95.45"/></g></defs></svg>