<svg xmlns="http://www.w3.org/2000/svg" xmlns:ffdec="https://www.free-decompiler.com/flash" xmlns:xlink="http://www.w3.org/1999/xlink" ffdec:objectType="frame" width="13.95" height="9.7"><g transform="translate(3.25 -.9)"><use ffdec:characterId="1" xlink:href="#a" width="11.85" height="7.55" transform="matrix(1 0 0 .543 -2.1 6.08)"/><use ffdec:characterId="3" xlink:href="#b" width="10.15" height="8.25" transform="matrix(-1 0 0 .5445 9.2 5.768)"/><use ffdec:characterId="7" xlink:href="#c" width="13.95" height="5.2" transform="translate(-3.25 5.25)"/></g><defs><g id="a" fill-rule="evenodd"><path fill="#fff" d="m.6 3.85 2.25-.75 8.85-.6-.1 1.1-.1.15q-.55 1.75-1.6 3l-1.05.6-1.6.15-1.9.05-1.2-.05Q2.1 7.3.85 4.45z"/><path fill="#c9c9c9" d="m.6 3.85-.5-1.3-.1-.4 1.2-.65.4-.2L5.85.35l4.65-.1.65.15q.5.15.7.4l-.15 1.7-8.85.6z"/></g><g id="d" fill-rule="evenodd"><path fill="url(#e)" d="M5.1-2.4Q4.85.55 3.45 2.35 2 4.15-.1 4.15q-2 0-3.45-1.6Q-5 1-5.05-1.7l.2-1.9 1.8-.5h2.1l3.2.55z" transform="translate(5.05 4.1)"/><path fill="#cfc0dc" d="M5.45 7.5q-1.6 0-2.55-.7L1.35 5.15h1.4q1.4 1.2 3.1 1.2 2.45 0 3.4-2.45-.1 1.05-1.15 2.35Q7 7.5 5.45 7.5"/></g><g id="c" fill-rule="evenodd"><path fill="#fff" d="M6.25 3.05q.2.5-1.05.6l-1.05.1-.5.05h-.3l-.4-.15-.2-.25L3 3l.15-.1.95-.25h1.2q.85.1.95.4M11.15 2l-.6-.15-.25-.3.25-.35.6-.1.6.1.25.35-.25.3z"/><path fill="#28493e" d="m11.35 4.45-.6.3.3-.25z"/><path fill="url(#f)" d="m10.7 6.2-.35.65-.85 1.2.25-1.55-.7-.2-.65-.1q-1.8-.25-4.85.1L.4 6.7l-.95.15-1.55.4-1.05.3.9-.55 1.15-.5.45-.1 3.1-.65L5.1 5.3l2.45.15 2.6.65z" transform="translate(3.25 -5.25)"/><path fill="url(#g)" d="m2.05 10.15 1.2.05 1.9-.05 1.6-.05 1.05-.35-.3.25-.9.4-1.55.05-1.9-.1-1.75-.2z" transform="translate(3.25 -5.25)"/><path fill="#703b1a" fill-opacity=".498" d="M1.5.65q2-.6 4.3-.65L0 1.25z"/></g><radialGradient id="f" cx="0" cy="0" r="819.2" gradientTransform="matrix(.0087 0 0 .0047 3.8 6.65)" gradientUnits="userSpaceOnUse" spreadMethod="pad"><stop offset="0" stop-color="#1a0d05"/><stop offset="1" stop-color="#23312b"/></radialGradient><radialGradient id="g" cx="0" cy="0" r="819.2" gradientTransform="matrix(.0048 0 0 .0026 4.6 10.1)" gradientUnits="userSpaceOnUse" spreadMethod="pad"><stop offset="0" stop-color="#1a0d05"/><stop offset="1" stop-color="#23312b"/></radialGradient><linearGradient id="e" x1="-819.2" x2="819.2" gradientTransform="matrix(.0001 .0052 .005 -.0001 .05 0)" gradientUnits="userSpaceOnUse" spreadMethod="pad"><stop offset="0" stop-color="#32104f"/><stop offset=".839" stop-color="#784f9c"/></linearGradient><use ffdec:characterId="2" xlink:href="#d" id="b" width="10.15" height="8.25"/></defs></svg>