<?xml version="1.0" encoding="UTF-8" standalone="no"?>
<svg xmlns:ffdec="https://www.free-decompiler.com/flash" xmlns:xlink="http://www.w3.org/1999/xlink" ffdec:objectType="frame" height="9.7px" width="13.95px" xmlns="http://www.w3.org/2000/svg">
  <g transform="matrix(1.0, 0.0, 0.0, 1.0, 3.25, -0.9)">
    <use ffdec:characterId="1" height="7.55" transform="matrix(1.0, 0.0, 0.0, 0.543, -2.1, 6.0805)" width="11.85" xlink:href="#shape0"/>
    <use ffdec:characterId="3" height="8.25" transform="matrix(-1.0, 0.0, 0.0, 0.5445, 9.2, 5.7675)" width="10.15" xlink:href="#sprite0"/>
    <use ffdec:characterId="7" height="5.2" transform="matrix(1.0, 0.0, 0.0, 1.0, -3.25, 5.25)" width="13.95" xlink:href="#shape2"/>
  </g>
  <defs>
    <g id="shape0" transform="matrix(1.0, 0.0, 0.0, 1.0, 2.1, -2.45)">
      <path d="M-1.5 6.3 L0.75 5.55 9.6 4.95 9.5 6.05 9.4 6.2 Q8.85 7.95 7.8 9.2 L6.75 9.8 5.15 9.95 3.25 10.0 2.05 9.95 Q0.0 9.75 -1.25 6.9 L-1.5 6.3" fill="#ffffff" fill-rule="evenodd" stroke="none"/>
      <path d="M-1.5 6.3 L-2.0 5.0 -2.1 4.6 -0.9 3.95 -0.5 3.75 3.75 2.8 8.4 2.7 9.05 2.85 Q9.55 3.0 9.75 3.25 L9.6 4.95 0.75 5.55 -1.5 6.3" fill="#c9c9c9" fill-rule="evenodd" stroke="none"/>
    </g>
    <g id="sprite0" transform="matrix(1.0, 0.0, 0.0, 1.0, 5.05, 4.1)">
      <use ffdec:characterId="2" height="8.25" transform="matrix(1.0, 0.0, 0.0, 1.0, -5.05, -4.1)" width="10.15" xlink:href="#shape1"/>
    </g>
    <g id="shape1" transform="matrix(1.0, 0.0, 0.0, 1.0, 5.05, 4.1)">
      <path d="M5.1 -2.4 Q4.85 0.55 3.45 2.35 2.0 4.15 -0.1 4.15 -2.1 4.15 -3.55 2.55 -5.0 1.0 -5.05 -1.7 L-4.85 -3.6 -3.05 -4.1 -0.95 -4.1 2.25 -3.55 5.1 -2.4" fill="url(#gradient0)" fill-rule="evenodd" stroke="none"/>
      <path d="M0.4 3.4 Q-1.2 3.4 -2.15 2.7 L-3.7 1.05 -2.3 1.05 Q-0.9 2.25 0.8 2.25 3.25 2.25 4.2 -0.2 4.1 0.85 3.05 2.15 1.95 3.4 0.4 3.4" fill="#cfc0dc" fill-rule="evenodd" stroke="none"/>
    </g>
    <linearGradient gradientTransform="matrix(1.0E-4, 0.0052, 0.005, -1.0E-4, 0.05, 0.0)" gradientUnits="userSpaceOnUse" id="gradient0" spreadMethod="pad" x1="-819.2" x2="819.2">
      <stop offset="0.0" stop-color="#32104f"/>
      <stop offset="0.8392156862745098" stop-color="#784f9c"/>
    </linearGradient>
    <g id="shape2" transform="matrix(1.0, 0.0, 0.0, 1.0, 3.25, -5.25)">
      <path d="M3.0 8.3 Q3.2 8.8 1.95 8.9 L0.9 9.0 0.4 9.05 0.1 9.05 -0.3 8.9 -0.5 8.65 -0.25 8.25 -0.1 8.15 0.85 7.9 2.05 7.9 Q2.9 8.0 3.0 8.3 M7.9 7.25 L7.3 7.1 7.05 6.8 7.3 6.45 7.9 6.35 8.5 6.45 8.75 6.8 8.5 7.1 7.9 7.25" fill="#ffffff" fill-rule="evenodd" stroke="none"/>
      <path d="M8.1 9.7 L7.5 10.0 7.8 9.75 8.1 9.7" fill="#28493e" fill-rule="evenodd" stroke="none"/>
      <path d="M10.7 6.2 L10.35 6.85 9.5 8.05 9.75 6.5 9.05 6.3 8.4 6.2 Q6.6 5.95 3.55 6.3 L0.4 6.7 -0.55 6.85 -2.1 7.25 -3.15 7.55 -2.25 7.0 -1.1 6.5 -0.65 6.4 2.45 5.75 5.1 5.3 7.55 5.45 10.15 6.1 10.7 6.2" fill="url(#gradient1)" fill-rule="evenodd" stroke="none"/>
      <path d="M2.05 10.15 L3.25 10.2 5.15 10.15 6.75 10.1 7.8 9.75 7.5 10.0 6.6 10.4 5.05 10.45 3.15 10.35 1.4 10.15 2.05 10.15" fill="url(#gradient2)" fill-rule="evenodd" stroke="none"/>
      <path d="M-1.75 5.9 Q0.25 5.3 2.55 5.25 L-3.25 6.5 -1.75 5.9" fill="#703b1a" fill-opacity="0.49803922" fill-rule="evenodd" stroke="none"/>
    </g>
    <radialGradient cx="0" cy="0" gradientTransform="matrix(0.0087, 0.0, 0.0, 0.0047, 3.8, 6.65)" gradientUnits="userSpaceOnUse" id="gradient1" r="819.2" spreadMethod="pad">
      <stop offset="0.0" stop-color="#1a0d05"/>
      <stop offset="1.0" stop-color="#23312b"/>
    </radialGradient>
    <radialGradient cx="0" cy="0" gradientTransform="matrix(0.0048, 0.0, 0.0, 0.0026, 4.6, 10.1)" gradientUnits="userSpaceOnUse" id="gradient2" r="819.2" spreadMethod="pad">
      <stop offset="0.0" stop-color="#1a0d05"/>
      <stop offset="1.0" stop-color="#23312b"/>
    </radialGradient>
  </defs>
</svg>
