<svg xmlns="http://www.w3.org/2000/svg" xmlns:ffdec="https://www.free-decompiler.com/flash" xmlns:xlink="http://www.w3.org/1999/xlink" ffdec:objectType="frame" width="13.95" height="9.7"><g transform="translate(3.25 -.9)"><use ffdec:characterId="1" xlink:href="#a" width="11.85" height="7.55" transform="translate(-2.1 2.45)"/><use ffdec:characterId="3" xlink:href="#b" width="10.15" height="8.25" transform="matrix(-1 0 0 1 9.2 1.85)"/><use ffdec:characterId="8" xlink:href="#c" width="13.95" height="9.55" transform="translate(-3.25 .9)"/></g><defs><g id="a" fill-rule="evenodd"><path fill="#fff" d="m.6 3.85 2.25-.75 8.85-.6-.1 1.1-.1.15q-.55 1.75-1.6 3l-1.05.6-1.6.15-1.9.05-1.2-.05Q2.1 7.3.85 4.45z"/><path fill="#c9c9c9" d="m.6 3.85-.5-1.3-.1-.4 1.2-.65.4-.2L5.85.35l4.65-.1.65.15q.5.15.7.4l-.15 1.7-8.85.6z"/></g><g id="d" fill-rule="evenodd"><path fill="url(#e)" d="M5.1-2.4Q4.85.55 3.45 2.35 2 4.15-.1 4.15q-2 0-3.45-1.6Q-5 1-5.05-1.7l.2-1.9 1.8-.5h2.1l3.2.55z" transform="translate(5.05 4.1)"/><path fill="#cfc0dc" d="M5.45 7.5q-1.6 0-2.55-.7L1.35 5.15h1.4q1.4 1.2 3.1 1.2 2.45 0 3.4-2.45-.1 1.05-1.15 2.35Q7 7.5 5.45 7.5"/></g><g id="c" fill-rule="evenodd"><path fill="#fff" d="m11.15 3.7-.6-.25-.25-.6.25-.6q.25-.25.6-.25l.6.25.25.6-.25.6zM5.3 4.9q.85.2.95.75.2.85-1.05 1.1l-1.05.2-.5.05h-.3l-.4-.3-.2-.4.25-.75.15-.25.95-.4z"/><path fill="#28493e" d="m10.75 8.7.3-.4.3-.15z"/><path fill="#703b1a" fill-opacity=".498" d="M1.5 1.25q2-1.1 4.3-1.2-2.1 1.1-5.8 2.3z"/><path fill="url(#f)" d="m10.7 2.65-.35 1.25-.85 2.15.25-2.8q-.2-.25-.7-.4L8.4 2.7l-4.85.15-3.15.7-.95.35-1.55.7-1.05.55.9-1.05 1.15-.85.45-.25 3.1-1.2L5.1 1l2.45.25q1.4.45 2.6 1.2z" transform="translate(3.25 -.9)"/><path fill="url(#g)" d="m2.05 9.95 1.2.05 1.9-.05 1.6-.15 1.05-.6-.3.4-.9.8-1.55.05-1.9-.15-1.75-.35z" transform="translate(3.25 -.9)"/></g><radialGradient id="f" cx="0" cy="0" r="819.2" gradientTransform="translate(3.8 3.45)scale(.0087)" gradientUnits="userSpaceOnUse" spreadMethod="pad"><stop offset="0" stop-color="#1a0d05"/><stop offset="1" stop-color="#23312b"/></radialGradient><radialGradient id="g" cx="0" cy="0" r="819.2" gradientTransform="translate(4.6 9.85)scale(.0048)" gradientUnits="userSpaceOnUse" spreadMethod="pad"><stop offset="0" stop-color="#1a0d05"/><stop offset="1" stop-color="#23312b"/></radialGradient><linearGradient id="e" x1="-819.2" x2="819.2" gradientTransform="matrix(.0001 .0052 .005 -.0001 .05 0)" gradientUnits="userSpaceOnUse" spreadMethod="pad"><stop offset="0" stop-color="#32104f"/><stop offset=".839" stop-color="#784f9c"/></linearGradient><use ffdec:characterId="2" xlink:href="#d" id="b" width="10.15" height="8.25"/></defs></svg>