<svg xmlns="http://www.w3.org/2000/svg" width="13.15" height="10.2"><use><animate attributeName="xlink:href" begin="0s" dur="1.0s" repeatCount="indefinite" values="#EyeR8_a;#EyeR8_b;#EyeR8_c;#EyeR8_b;#EyeR8_a"/></use><defs><path id="a" fill="#fff" fill-rule="evenodd" d="m7.3 4.9.05-.1-.15-.05zm1.25.1q.75.95.8 1.55 0 .55-2.1 2.35t-4.6 1.9q-2.5.05-3.75-1.55l-.65-1-.2-.5-.25-.45-.1-.75q.05-1.05 1.65-2.3Q1.2 2.8 3.9 2.65q2.8.6 3.75 1.3z"/><path id="b" fill="#325903" fill-rule="evenodd" d="m5.05 7.35-1.45.2q-1.05 0-1.85-.45Q.9 6.65.3 5.55q-.6-1.05-.55-2.2Q0 .25 3.35 0l1.3.05 1.5.95q.9.95 1.05 2.35.1 1.4-.35 2.25l-.9 1.2z"/><g id="c" fill-rule="evenodd"><path fill="#fff" fill-opacity=".259" d="M1.4 5.2q.5-.5 1-.6l1.2.1q.65.3.9 1.15.2.85-.35 1.45l-1.2.75q-.7.1-1.3-.4-.5-.4-.6-1.15-.05-.7.35-1.3m3.5.4.1-.05q.3 0 .4.85.35 2.55-1.9 3.05Q1.2 9.9.65 8.1H.6l-.2-.7-.05-.7.05-.45.15-.15H.7v.25l-.05.05.05.35.35.95.95.75h1.25q.5-.05.8-.3l.5-.5.3-.6V5.6z"/><path fill="#fff" d="M2.2 5.65q-.05.6-.65.55-.65-.05-.6-.6 0-.6.65-.6.6 0 .6.65m2.7 1.5q.9.2.95.75.1.65-.6.75-.9.1-1.2-1.05-.1-.6.85-.45"/><path fill="#9c6" fill-opacity=".506" d="m3.85 8.05.25.9q-.05.6-.75.75l-.9.05H2.4q-.85 0-1.4-.65T.65 7.7q.15-.8 1.05-.75.85.05 1.35.4z"/><path fill-opacity=".2" d="M8.5 4.5q1.1 1.1 1.1 1.8L8.1 7.8l-.5-.7-.6-.7Q5.65 4.95 3.75 4.95q-2.55 0-3.9 1.45l-.45.65-1.1 1.35-.2-.5-.35-.6-.2-.5v-.05q0-.9 1.45-2.1 2.1-1.7 5.6-1.7 1.7 0 3 .85z"/><path fill="#513624" d="m7.6 3.05.5.4 2.1 2.35-1.8 2.4-1.25.85.6-.85.25-.45.5-1.5L8.45 6 7.6 4.65q-.65-.8-1.4-1.05L3.9 3q-1-.05-2.7.65-1.75.7-2.55 1.85l-.6.8-.25.5-.15.25-.1-.05-.3-.9.05-.1-.15-.45L-1.65 4l1.4-1.1 1.4-.55.5-.15 3.15-.3 1 .3z"/><path fill="#6b3a00" fill-opacity=".694" d="M.05 1.8q-1.3.55-2.1 1.35l-.75.75.2-1.1q.1-.8 1.75-1.7Q.75.15 5.7 1q-4.4.2-5.65.8"/></g></defs></svg>