<svg xmlns="http://www.w3.org/2000/svg" xmlns:ffdec="https://www.free-decompiler.com/flash" xmlns:xlink="http://www.w3.org/1999/xlink" ffdec:objectType="frame" width="12.8" height="13.5"><g transform="translate(-1.15 1.75)"><use ffdec:characterId="1" xlink:href="#a" width="9.8" height="11.15" transform="translate(4.05 .55)"/><use ffdec:characterId="3" xlink:href="#b" width="8.25" height="11" transform="matrix(-1 0 0 1 13.6 .6)"/><use ffdec:characterId="4" xlink:href="#c" width="5.2" height="6.9" transform="translate(6.75 3.3)"/><use ffdec:characterId="6" xlink:href="#d" width="4.35" height="5.65" transform="matrix(-1 0 0 1 11.6 3.25)"/><use ffdec:characterId="7" xlink:href="#e" width="12.45" height="12.55" transform="translate(1.15 -1.75)"/></g><defs><linearGradient id="g" x1="-819.2" x2="819.2" gradientTransform="matrix(-.0002 .0066 -.0067 -.0003 4.1 5.5)" gradientUnits="userSpaceOnUse" spreadMethod="pad"><stop offset="0" stop-color="#ff6200"/><stop offset="1" stop-color="#870000"/></linearGradient><linearGradient id="h" x1="-819.2" x2="819.2" gradientTransform="matrix(-.0002 .0066 -.0067 -.0003 6.3 5.6)" gradientUnits="userSpaceOnUse" spreadMethod="pad"><stop offset="0" stop-color="#ff6200"/><stop offset="1" stop-color="#870000"/></linearGradient><linearGradient id="i" x1="-819.2" x2="819.2" gradientTransform="matrix(-.0002 .0066 -.0067 -.0003 2.95 5.45)" gradientUnits="userSpaceOnUse" spreadMethod="pad"><stop offset="0" stop-color="#ff6200"/><stop offset="1" stop-color="#870000"/></linearGradient><path id="a" fill="#fff" fill-rule="evenodd" d="M6.1 1.95Q4.95 2.85 4.55 4q-.3.95-.5 3.55-.15 1.55 1.25 2.8 1.25 1.1 2.8 1.3 2.4.25 3.85-.65 2.4-1.55 1.8-6-.65-4.65-4-4.45-2.1.1-3.65 1.4" transform="translate(-4.05 -.55)"/><path id="c" fill="#fff" fill-opacity=".298" fill-rule="evenodd" d="m11.95 7.2-.3 1.4-.55 1q-.45.6-1.2.6-1.1 0-1.95-.55-.9-.65-1.15-1.8V6.5L7.25 5l.3-.65q.65-.5 1.35-.9l.45-.15.8.4q1.05.55 1.5 1.7z" transform="translate(-6.75 -3.3)"/><path id="j" fill="#581800" fill-rule="evenodd" d="M4.35 2.9v.05Q4.3 4.3 3.45 5.1q-.2.35-1.15.5l-.2.05q-.9-.05-1.5-.9-.65-.85-.6-2Q.1 1.7.6.95l.75-.7L2.3 0q.9.05 1.5.9t.55 2"/><use ffdec:characterId="2" xlink:href="#f" id="b" width="8.25" height="11"/><use ffdec:characterId="5" xlink:href="#j" id="d" width="4.35" height="5.65"/><g id="f" fill-rule="evenodd"><path fill="url(#g)" d="M6.35 5.6q-.05 1.35-.9 2.15h.1q.55 0 .95.4.5-.95.6-2.55zM1.5 5.4q0 2.3.5 3.05l.65-.2q.4 0 .65.25l.3.65-.1.3.65.1h.1l-.2-.7.25-.6-.2.05q-.9-.05-1.5-.9-.65-.85-.6-2zM0 5.2q.05-2.1 1.15-3.65Q2.55-.5 5 .15q2.05.55 2.85 3.2.7 2.35.15 4.55-.9 3.45-4.65 3.05Q-.1 10.65 0 5.2"/><path fill="url(#h)" d="M6.35 5.6h.75Q7 7.2 6.5 8.15q-.4-.4-.95-.4h-.1q.85-.8.9-2.15"/><path fill="url(#i)" d="M1.5 5.4H2q-.05 1.15.6 2 .6.85 1.5.9l.2-.05-.25.6.2.7h-.1l-.65-.1.1-.3-.3-.65q-.25-.25-.65-.25l-.65.2q-.5-.75-.5-3.05"/></g><g id="e" fill-rule="evenodd"><path fill="#fff" d="M6.75 3.8q.45 0 .85.4l.45.65v.3q-.2.7-.7.9l-.85.1-.7-.45q-.35-.35-.3-.8 0-.45.4-.8t.85-.3m.45 6.8q.4 0 .65.25l.3.65-.1.3q-.4.6-.9.5-.95 0-.95-.9.1-.4.35-.6z"/><path fill="#fff" fill-opacity=".498" d="M11.5 11.35q-.05.55-.55.9-.45.35-1 .3-.9-.05-1.15-.65l-.2-.7.25-.6q.5-.5 1.15-.5h.1q.55 0 .95.4z"/><path fill="#3a2d2b" d="m3.1 7.5-.05.25-.1 1.4q.05.95.75 2.7V12l-.05.05-.05.05-.1-.05L2.75 11l-.05-.15v.05l-1.4.5 1.3-.8.1-.1-.3-.95-.75.15L.6 9.5l-.5-.1v-.05h.1l1.95-.4-.1-.75-1.9-.45q-.35-.25.25-.1h1.65l.25-1.7q.65-1.85 2-3.15l.2-.2Q6.75 1 8.7.85q1.6-.2 2.65.35.95.45 1.05 1.25v.05l-.05.1h-.1l-.05-.05-.75-.45q1 .65.85 2.25v.1l-.1.05-.05-.05-.05-.05-.15-.15-.05-.05q-.75-.9-1.55-1.2v-.05q-1.25-.65-2.6-.4-1.65.2-3.1 2Q3.5 5.85 3.1 7.5M8.75.05q2.3-.3 3.65 1.35v.2h-.2Q10.95.05 8.6.35 6.35.65 4.55 2.5l-1.1 1Q1.85 5 1.3 6.85l-.15.1H1.1l-.1-.2Q1.5 4.8 3.95 2.6 6.45.35 8.75.05"/><path fill="#020202" fill-opacity=".298" d="M11.9 4.2q-3.35-.6-5.95.85Q4.6 5.8 3.1 7.5q.4-1.65 1.55-2.95 1.45-1.8 3.1-2 1.35-.25 2.6.4V3q.8.3 1.55 1.2"/></g></defs></svg>