<?xml version="1.0" encoding="UTF-8" standalone="no"?>
<svg xmlns:ffdec="https://www.free-decompiler.com/flash" xmlns:xlink="http://www.w3.org/1999/xlink" ffdec:objectType="frame" height="13.5px" width="12.8px" xmlns="http://www.w3.org/2000/svg">
  <g transform="matrix(1.0, 0.0, 0.0, 1.0, -1.15, 1.75)">
    <use ffdec:characterId="8" height="7.9" transform="matrix(1.0, 0.0, 0.0, 1.0, 4.05, 3.85)" width="9.8" xlink:href="#shape0"/>
    <use ffdec:characterId="3" height="11.0" transform="matrix(-1.0, 0.0, 0.0, 0.7063, 13.6, 3.85)" width="8.25" xlink:href="#sprite0"/>
    <use ffdec:characterId="4" height="6.9" transform="matrix(1.0, 0.0, 0.0, 0.7029, 6.75, 5.8196)" width="5.2" xlink:href="#shape2"/>
    <use ffdec:characterId="6" height="5.65" transform="matrix(-1.0, 0.0, 0.0, 0.7063, 11.6, 5.75)" width="4.35" xlink:href="#sprite1"/>
    <use ffdec:characterId="9" height="8.9" transform="matrix(1.0, 0.0, 0.0, 1.0, 1.15, 2.2)" width="12.45" xlink:href="#shape4"/>
  </g>
  <defs>
    <g id="shape0" transform="matrix(1.0, 0.0, 0.0, 1.0, -4.05, -3.85)">
      <path d="M6.1 4.85 Q4.95 5.45 4.55 6.3 4.25 6.95 4.05 8.8 3.9 9.9 5.3 10.75 6.55 11.55 8.1 11.7 10.5 11.85 11.95 11.2 14.35 10.15 13.75 7.0 13.1 3.7 9.75 3.85 7.65 3.9 6.1 4.85" fill="#ffffff" fill-rule="evenodd" stroke="none"/>
    </g>
    <g id="sprite0" transform="matrix(1.0, 0.0, 0.0, 1.0, 0.0, 0.0)">
      <use ffdec:characterId="2" height="11.0" transform="matrix(1.0, 0.0, 0.0, 1.0, 0.0, 0.0)" width="8.25" xlink:href="#shape1"/>
    </g>
    <g id="shape1" transform="matrix(1.0, 0.0, 0.0, 1.0, 0.0, 0.0)">
      <path d="M6.35 5.6 Q6.3 6.95 5.45 7.75 L5.55 7.75 Q6.1 7.75 6.5 8.15 7.0 7.2 7.1 5.6 L6.35 5.6 M1.5 5.4 Q1.5 7.7 2.0 8.45 L2.65 8.25 Q3.05 8.25 3.3 8.5 L3.6 9.15 3.5 9.45 4.15 9.55 4.25 9.55 4.05 8.85 4.3 8.25 4.1 8.3 Q3.2 8.25 2.6 7.4 1.95 6.55 2.0 5.4 L1.5 5.4 M0.0 5.2 Q0.05 3.1 1.15 1.55 2.55 -0.5 5.0 0.15 7.05 0.7 7.85 3.35 8.55 5.7 8.0 7.9 7.1 11.35 3.35 10.95 -0.1 10.65 0.0 5.2" fill="url(#gradient0)" fill-rule="evenodd" stroke="none"/>
      <path d="M6.35 5.6 L7.1 5.6 Q7.0 7.2 6.5 8.15 6.1 7.75 5.55 7.75 L5.45 7.75 Q6.3 6.95 6.35 5.6" fill="url(#gradient1)" fill-rule="evenodd" stroke="none"/>
      <path d="M1.5 5.4 L2.0 5.4 Q1.95 6.55 2.6 7.4 3.2 8.25 4.1 8.3 L4.3 8.25 4.05 8.85 4.25 9.55 4.15 9.55 3.5 9.45 3.6 9.15 3.3 8.5 Q3.05 8.25 2.65 8.25 L2.0 8.45 Q1.5 7.7 1.5 5.4" fill="url(#gradient2)" fill-rule="evenodd" stroke="none"/>
    </g>
    <linearGradient gradientTransform="matrix(-2.0E-4, 0.0066, -0.0067, -3.0E-4, 4.1, 5.5)" gradientUnits="userSpaceOnUse" id="gradient0" spreadMethod="pad" x1="-819.2" x2="819.2">
      <stop offset="0.0" stop-color="#ff6200"/>
      <stop offset="1.0" stop-color="#870000"/>
    </linearGradient>
    <linearGradient gradientTransform="matrix(-2.0E-4, 0.0066, -0.0067, -3.0E-4, 6.3, 5.6)" gradientUnits="userSpaceOnUse" id="gradient1" spreadMethod="pad" x1="-819.2" x2="819.2">
      <stop offset="0.0" stop-color="#ff6200"/>
      <stop offset="1.0" stop-color="#870000"/>
    </linearGradient>
    <linearGradient gradientTransform="matrix(-2.0E-4, 0.0066, -0.0067, -3.0E-4, 2.95, 5.45)" gradientUnits="userSpaceOnUse" id="gradient2" spreadMethod="pad" x1="-819.2" x2="819.2">
      <stop offset="0.0" stop-color="#ff6200"/>
      <stop offset="1.0" stop-color="#870000"/>
    </linearGradient>
    <g id="shape2" transform="matrix(1.0, 0.0, 0.0, 1.0, -6.75, -3.3)">
      <path d="M11.95 7.2 L11.65 8.6 11.1 9.6 Q10.65 10.2 9.9 10.2 8.8 10.2 7.95 9.65 7.05 9.0 6.8 7.85 L6.8 6.5 7.25 5.0 7.55 4.35 Q8.2 3.85 8.9 3.45 L9.35 3.3 10.15 3.7 Q11.2 4.25 11.65 5.4 L11.95 7.2" fill="#ffffff" fill-opacity="0.29803923" fill-rule="evenodd" stroke="none"/>
    </g>
    <g id="sprite1" transform="matrix(1.0, 0.0, 0.0, 1.0, 0.0, 0.0)">
      <use ffdec:characterId="5" height="5.65" transform="matrix(1.0, 0.0, 0.0, 1.0, 0.0, 0.0)" width="4.35" xlink:href="#shape3"/>
    </g>
    <g id="shape3" transform="matrix(1.0, 0.0, 0.0, 1.0, 0.0, 0.0)">
      <path d="M4.35 2.9 L4.35 2.95 Q4.3 4.3 3.45 5.1 3.25 5.45 2.3 5.6 L2.1 5.65 Q1.2 5.6 0.6 4.75 -0.05 3.9 0.0 2.75 0.1 1.7 0.6 0.95 L1.35 0.25 2.3 0.0 Q3.2 0.05 3.8 0.9 4.4 1.75 4.35 2.9" fill="#581800" fill-rule="evenodd" stroke="none"/>
    </g>
    <g id="shape4" transform="matrix(1.0, 0.0, 0.0, 1.0, -1.15, -2.2)">
      <path d="M7.9 4.9 Q8.35 4.9 8.75 5.2 L9.2 5.65 9.2 5.85 8.5 6.5 7.65 6.55 Q7.3 6.5 6.95 6.25 6.6 6.0 6.65 5.65 6.65 5.35 7.05 5.1 L7.9 4.9 M9.3 10.35 L9.2 10.55 8.3 10.9 Q7.35 10.9 7.35 10.25 L7.7 9.85 Q7.95 9.7 8.35 9.7 L9.0 9.9 9.3 10.35" fill="#ffffff" fill-rule="evenodd" stroke="none"/>
      <path d="M12.1 10.85 L11.1 11.1 Q10.2 11.05 9.95 10.6 L9.75 10.1 10.0 9.7 Q10.5 9.35 11.15 9.35 L11.25 9.35 Q11.8 9.35 12.2 9.65 L12.65 10.25 12.1 10.85" fill="#ffffff" fill-opacity="0.49803922" fill-rule="evenodd" stroke="none"/>
      <path d="M13.05 5.2 Q12.3 4.55 11.5 4.35 L11.5 4.3 8.9 4.0 Q7.25 4.15 5.8 5.45 4.65 6.35 4.25 7.5 L4.2 7.7 4.1 8.7 Q4.15 9.35 4.85 10.6 L4.85 10.7 4.8 10.75 4.75 10.75 4.65 10.75 3.9 10.0 3.85 9.9 2.45 10.25 3.75 9.7 3.85 9.65 3.55 8.95 2.8 9.05 1.75 8.9 1.25 8.85 1.25 8.8 1.35 8.8 3.3 8.55 3.2 8.0 1.3 7.7 Q0.95 7.5 1.55 7.6 L3.2 7.6 3.45 6.4 Q4.1 5.1 5.45 4.2 L5.65 4.05 Q7.9 2.9 9.85 2.8 L12.5 3.05 Q13.45 3.4 13.55 3.95 L13.55 4.0 13.5 4.05 13.4 4.05 13.35 4.0 12.6 3.7 Q13.6 4.15 13.45 5.3 L13.45 5.35 13.35 5.4 13.3 5.35 13.25 5.3 13.1 5.2 13.05 5.2 M13.55 3.2 L13.55 3.35 13.35 3.35 Q12.1 2.25 9.75 2.45 7.45 2.65 5.65 4.0 L4.6 4.7 Q3.0 5.75 2.45 7.05 L2.3 7.1 2.25 7.1 2.15 7.0 Q2.65 5.6 5.1 4.05 7.6 2.45 9.9 2.25 12.2 2.05 13.55 3.2" fill="#3a2d2b" fill-rule="evenodd" stroke="none"/>
      <path d="M4.25 7.5 Q4.65 6.35 5.8 5.45 7.25 4.15 8.9 4.0 L11.5 4.3 11.5 4.35 Q12.3 4.55 13.05 5.2 9.7 4.75 7.1 5.8 5.75 6.3 4.25 7.5" fill="#020202" fill-opacity="0.29803923" fill-rule="evenodd" stroke="none"/>
    </g>
  </defs>
</svg>
