<svg xmlns="http://www.w3.org/2000/svg" xmlns:ffdec="https://www.free-decompiler.com/flash" xmlns:xlink="http://www.w3.org/1999/xlink" ffdec:objectType="frame" width="16.6" height="11.25"><g transform="translate(-.45 .2)"><use ffdec:characterId="9" xlink:href="#a" width="14.5" height="9.1" transform="translate(1.15 1.9)"/><use ffdec:characterId="3" xlink:href="#b" width="9.55" height="9.95" transform="translate(3.9 1.05)"/><use ffdec:characterId="10" xlink:href="#c" width="16.6" height="10.1" transform="translate(.45 -.2)"/></g><defs><linearGradient id="e" x1="-819.2" x2="819.2" gradientTransform="matrix(-.0004 .0053 -.0066 -.0004 -.05 0)" gradientUnits="userSpaceOnUse" spreadMethod="pad"><stop offset="0" stop-color="#01518a"/><stop offset="1" stop-color="#33c390"/></linearGradient><linearGradient id="f" x1="-819.2" x2="819.2" gradientTransform="matrix(-.0004 .0053 -.0066 -.0004 -.05 0)" gradientUnits="userSpaceOnUse" spreadMethod="pad"><stop offset="0" stop-color="#01518a"/><stop offset="1" stop-color="#33c390"/></linearGradient><linearGradient id="g" x1="-819.2" x2="819.2" gradientTransform="matrix(-.0005 .0034 -.0066 -.0008 .3 -1.25)" gradientUnits="userSpaceOnUse" spreadMethod="pad"><stop offset="0" stop-color="#0e3143"/><stop offset="1" stop-color="#0e3143" stop-opacity="0"/></linearGradient><linearGradient id="h" x1="-819.2" x2="819.2" gradientTransform="matrix(-.0093 0 0 .0052 8.1 4.35)" gradientUnits="userSpaceOnUse" spreadMethod="pad"><stop offset="0" stop-color="#745"/><stop offset=".541" stop-color="#77546a"/><stop offset="1" stop-color="#745"/></linearGradient><g id="a" fill-rule="evenodd"><path fill="#fff" d="M.2 3.45q5.8-1.1 10.65-.1Q13 3.8 14.4 4.5L13.8 6q-1.1 2.05-3.3 2.6L7 9.1l-2.8-.6Q2.6 8 1.4 6.05z"/><path fill="#e2d4e7" d="M14.4 4.5q-1.4-.7-3.55-1.15Q6 2.35.2 3.45L0 2.5Q2.25.75 5.2.2q5.85-1.1 9.3 3.95z"/></g><g id="d" fill-rule="evenodd"><path fill="url(#e)" d="M3.45-3.5Q4.8-2.05 4.8 0q0 2-1.35 3.5Q2.15 5 .25 5q-2.3 0-3.7-1.5Q-4.75 2-4.75 0q0-2.05 1.45-3.7Q-2.15-4.95.25-4.95q1.9 0 3.2 1.45" transform="translate(4.75 4.95)"/><path fill="url(#f)" d="M3.45-3.5Q4.8-2.05 4.8 0q0 2-1.35 3.5Q2.15 5 .25 5q-2.3 0-3.7-1.5Q-4.75 2-4.75 0q0-2.05 1.45-3.7Q-2.15-4.95.25-4.95q1.9 0 3.2 1.45" transform="translate(4.75 4.95)"/><path fill="#0d4954" fill-opacity=".8" d="m3.9 3.5 1.05-.35q.55 0 .95.35.4.5.4 1.15 0 .75-.4 1.15l-.95.45q-.65 0-1.05-.45-.4-.4-.4-1.15 0-.65.4-1.15"/><path fill="#e1ffaf" fill-opacity=".498" d="M7.8 8.25q-1.35 1-2.9 1.2l-.25.05-.15-.05-1.8-.6-1.15-.8-.25-.25-.4-1.05Q.65 6 .8 5.6q.2-.4.9-.4.2 0 .9 1.35T4.7 7.9q1.5 0 2.25-1.05.65-.9 1.15-.9t.25 1.1z"/><path fill="url(#g)" d="M3.45-3.5Q4.8-2.05 4.8 0q0 2-1.35 3.5Q2.15 5 .25 5q-2.3 0-3.7-1.5Q-4.75 2-4.75 0q0-2.05 1.45-3.7Q-2.15-4.95.25-4.95q1.9 0 3.2 1.45m-.4 6.8.05-.05q1.3-1.2 1.1-3-.15-1.8-.9-2.7-.9-.95-2.85-1.1-1.95-.25-3.3 1-1.3 1.25-1.4 3Q-4.3 2.05-3 3.4q1.25 1.15 2.9 1.15l.25-.05q1.55-.2 2.9-1.2" transform="translate(4.75 4.95)"/></g><g id="c" fill-rule="evenodd"><path fill="#fff" d="m10.35 6 1.4-.2 1.2.2q.65.25.65.65l-.65.5-1.2.3-1.4-.3q-.5-.2-.5-.5 0-.4.5-.65"/><path fill="#fff" fill-opacity=".498" d="m7.9 8-.2.85-.3 1.1-.1.15q-.7-.35-.25-1.1l.75-1zm-1.95.05q.8-.5.9-.5l-.5 1-1.05.8-.2-.5z"/><path fill="#8c744e" fill-opacity=".498" d="m15.65 3.1.95 1.7L11.3 0q2.8 1.15 4.35 3.1"/><path fill="url(#h)" d="m16.9 5.3-1.4-.55-.4-.15.3.9.35.8-.3-.3q-4.55-4.1-9.4-3.05-2.45.55-4 1.95l.8 3.7Q1.45 7.5.45 3.7l1.9-.85.65-.2-1.35-.45.3-.2 3.85-.8v-.05l1.05-.1L8.5 1l2.65.35.75.2.05.05.25.1 1.4.9.5.45 2.7 2.15z" transform="translate(-.45 .2)"/></g><use ffdec:characterId="2" xlink:href="#d" id="b" width="9.55" height="9.95"/></defs></svg>