<svg xmlns="http://www.w3.org/2000/svg" xmlns:ffdec="https://www.free-decompiler.com/flash" xmlns:xlink="http://www.w3.org/1999/xlink" ffdec:objectType="frame" width="12.35" height="11.25"><use ffdec:characterId="4" xlink:href="#a" width="11.9" height="7.5" transform="translate(.45 3.75)"/><defs><radialGradient id="b" cx="0" cy="0" r="819.2" gradientTransform="matrix(-.0041 0 0 .0028 9.35 8.25)" gradientUnits="userSpaceOnUse" spreadMethod="pad"><stop offset="0" stop-color="#fff" stop-opacity=".31"/><stop offset=".737" stop-color="#fff" stop-opacity="0"/></radialGradient><g id="a" fill-rule="evenodd"><path fill="#fff" fill-opacity=".706" d="m4.85 6.95.4.05h.3zm2.45 0h-.1L6.6 7h.2zm1.8-.4-1.45.35.8-.15.85-.25.5-.3zm1.05-2.85-.05-.05-.1-.15q0-.2.4-.2.25 0 .4.3l.1.5v.1l.15-.2.1.05v.25l-.15.2-.4 1.1-.25.35V6q-.9 1.1-3.5 1.2H5.2q-2.15-.3-3.35-1.5Q.8 4.65.8 3.45l.15-.15.2.6.6-1.15.35-.45q.45-.4.9-.4.35 0 .35.2 0 .25-.65.5l-.15.3v.4L2.5 4l-.2.35.7 1.1.1.15h.1q1.35.9 3.5.9l1.2-.2 1.7-1.1.4-1.1z"/><path fill="#85003a" d="M10.25 4q0 .9-.7 1.65-1.05 1.2-3.15 1.2L3.5 6.3q-.85-.45-1.15-1.1T2.1 4.05l.2-1q.1-.45.85-1.25.9-.75 3.05-.75 2.4 0 3.4 1.25.65.7.65 1.7"/><path fill="url(#b)" d="M7.5 7.05q.8-.55 1.85-.55t1.85.55q.75.5.75 1.2t-.75 1.2l-1.85.5q-1.05 0-1.85-.5-.75-.5-.75-1.2t.75-1.2" transform="translate(-3.3 -3.85)"/><path fill="#b4346c" d="m8.85 4.4-.7 1.2q-.55.65-1.95.75l-1.95-.3q-.65-.4-.8-1.05l-.1-1.1.45-.8q-.1.2-.05.9l.2.85.3.45.55.4.8.2.8-.1h.1l.7-.2q1.05-.5 1.25-1.35l.15-.85v-.1q.35.5.25 1.1"/><path fill="#ffe39c" fill-opacity=".122" d="m8.05 3.65.1.25q0 .45-.55.45L7 4.2q-.25-.25-.15-.5.15-.2.6-.2zM6.35 5.2q.1.85-1.35.9-1.5.1-1.5-1 0-.7 1.1-1h.75q.95.2 1 1.1"/><path fill="#fff" d="m8.2 5.4-.05.15h-.4L7.6 5.4v-.2zm.75-.4-.35.1q-.45 0-.45-.3 0-.25.6-.25l.35.25zm-4.65.05L4 5.1q-.7-.1-.95-.45l-.3-.55q0-.2.3-.5.2-.25.75-.35h.5l.75.35.3.75q-.05.45-1.05.7m1.75.6q0-.55.55-.45t.55.55q0 .35-.5.35-.6 0-.6-.45"/><path fill="#2c0900" fill-opacity=".239" d="M9.9 2.4q1.2 1 1.2 1.85l-.15.6-.15-.1q-.05-.4-1.45-1.2Q8 2.7 5.85 2.6T2.2 3.65q-1 .75-1.1 1.15l-.15-.2-.2-.4-.05-.1-.05-.5q0-.85 1.1-1.6 1.4-.9 3.8-.9 2.7 0 4.35 1.3"/><path fill="#5d2900" fill-opacity=".298" d="m7.75.2.5.05q2.75.35 3.5 2.1l-.4-.35Q10 .75 7.4.4L5.9.25 3.05.4 3.7.1 5.55 0 7.7.2z"/><path fill="#200900" d="M9 6.9q.3.05.3.2l-.05.1-.7-.2-.5.1-.5.1.05.1-.1.2-.45-.25-1.25.1-.9-.1-.5.25h-.1l-.1-.2.1-.15-.6-.2h-.05l-.1.05-.5.05-.15.05-.2-.1q0-.2.45-.25l-.65-.4V6.3l.15-.05q.15 0 .9.35 1 .4 2.3.4l2.4-.3 1.4-.3.2.1zm0-5.65 1.4.8.9.85.6.7q-.45.25-.8.85l-.1.25-.05-.1L9.65 3q-.95-.9-2.1-1.2L4.8 1.6q-1.6.05-2.45.8-.85.7-1.1 1.35-.2.6-.1.85v.25l-.95-2L.05 1.8 0 1.55l.75.05.9-.15 1.3-.35 2.1-.4H6.4l.4.05z"/></g></defs></svg>