<?xml version="1.0" encoding="UTF-8" standalone="no"?>
<svg xmlns:ffdec="https://www.free-decompiler.com/flash" xmlns:xlink="http://www.w3.org/1999/xlink" ffdec:objectType="frame" height="11.25px" width="12.35px" xmlns="http://www.w3.org/2000/svg">
  <g transform="matrix(1.0, 0.0, 0.0, 1.0, -2.85, -0.1)">
    <use ffdec:characterId="5" height="11.25" transform="matrix(1.0, 0.0, 0.0, 1.0, 3.3, 0.1)" width="11.9" xlink:href="#shape0"/>
  </g>
  <defs>
    <g id="shape0" transform="matrix(1.0, 0.0, 0.0, 1.0, -3.3, -0.1)">
      <path d="M11.75 10.2 L12.6 9.85 13.1 9.35 12.4 9.9 10.95 10.45 11.75 10.2 M10.6 10.5 L10.5 10.5 9.75 10.55 9.15 10.55 9.0 10.55 8.15 10.5 8.55 10.6 10.1 10.6 10.6 10.5 M13.45 5.6 L13.4 5.55 13.3 5.35 Q13.3 5.0 13.7 5.0 L14.1 5.5 14.2 6.2 14.2 6.3 14.2 6.35 14.35 6.1 14.45 6.15 14.45 6.55 14.3 6.8 13.9 8.5 13.65 9.0 13.65 9.1 Q12.75 10.75 10.15 10.85 L8.5 10.85 Q6.35 10.45 5.15 8.6 4.1 7.05 4.1 5.25 L4.25 5.05 4.45 5.95 5.05 4.2 5.4 3.55 Q5.85 2.9 6.3 2.9 6.65 2.9 6.65 3.2 L6.0 4.0 5.85 4.45 5.85 5.0 5.8 6.05 5.6 6.6 Q5.8 7.5 6.3 8.25 L6.4 8.45 6.5 8.5 Q7.85 9.8 10.0 9.8 L11.2 9.5 Q12.25 8.8 12.9 7.85 L13.3 6.25 13.45 5.6" fill="#ffffff" fill-opacity="0.7058824" fill-rule="evenodd" stroke="none"/>
      <path d="M12.9 3.5 Q13.55 4.6 13.55 6.1 13.55 7.4 12.85 8.55 11.8 10.35 9.7 10.35 7.65 10.3 6.8 9.55 5.95 8.85 5.65 7.9 5.35 6.9 5.4 6.15 L5.6 4.65 Q5.7 3.95 6.45 2.8 7.35 1.65 9.5 1.65 11.9 1.65 12.9 3.5" fill="#85003a" fill-rule="evenodd" stroke="none"/>
      <path d="M7.5 4.85 Q8.3 4.05 9.35 4.05 10.4 4.05 11.2 4.85 11.95 5.6 11.95 6.65 11.95 7.7 11.2 8.5 10.4 9.25 9.35 9.25 8.3 9.25 7.5 8.5 6.75 7.7 6.75 6.65 6.75 5.6 7.5 4.85" fill="url(#gradient0)" fill-rule="evenodd" stroke="none"/>
      <path d="M11.9 5.05 Q12.25 5.75 12.15 6.65 12.05 7.55 11.45 8.5 10.9 9.45 9.5 9.6 8.2 9.7 7.55 9.15 6.9 8.55 6.75 7.6 L6.65 5.95 Q6.75 5.25 7.1 4.75 7.0 5.05 7.05 6.05 L7.25 7.35 7.55 8.05 8.1 8.65 8.9 8.9 9.7 8.75 9.8 8.75 10.5 8.45 Q11.55 7.75 11.75 6.45 L11.9 5.15 11.9 5.05" fill="#b4346c" fill-rule="evenodd" stroke="none"/>
      <path d="M11.35 5.55 L11.45 5.95 Q11.45 6.6 10.9 6.6 L10.3 6.35 Q10.05 6.0 10.15 5.65 10.3 5.35 10.75 5.35 11.15 5.25 11.35 5.55 M9.65 7.9 Q9.75 9.15 8.3 9.25 6.8 9.35 6.8 7.75 6.8 6.7 7.9 6.25 L8.65 6.25 Q9.6 6.55 9.65 7.9" fill="#ffe39c" fill-opacity="0.11764706" fill-rule="evenodd" stroke="none"/>
      <path d="M11.9 7.7 Q11.45 7.7 11.45 7.25 11.45 6.9 12.05 6.9 12.4 6.9 12.4 7.25 L12.25 7.55 11.9 7.7 M10.9 8.2 L10.9 7.85 Q11.5 7.85 11.5 8.2 L11.45 8.4 11.05 8.4 10.9 8.2 M7.6 4.95 Q8.0 5.1 8.35 5.5 L8.65 6.6 Q8.6 7.25 7.6 7.65 L7.3 7.7 Q6.6 7.6 6.35 7.05 L6.05 6.2 6.35 5.5 Q6.55 5.1 7.1 4.95 L7.6 4.95 M9.9 7.9 Q10.45 8.05 10.45 8.7 10.45 9.25 9.95 9.25 9.35 9.25 9.35 8.55 9.35 7.75 9.9 7.9" fill="#ffffff" fill-rule="evenodd" stroke="none"/>
      <path d="M13.2 3.65 Q14.4 5.15 14.4 6.45 L14.25 7.35 14.1 7.2 Q14.05 6.6 12.65 5.4 11.3 4.15 9.15 4.0 7.0 3.85 5.5 5.55 4.5 6.7 4.4 7.25 L4.25 6.95 4.05 6.4 4.0 6.25 3.95 5.5 Q3.95 4.2 5.05 3.1 6.45 1.7 8.85 1.7 11.55 1.7 13.2 3.65" fill="#2c0900" fill-opacity="0.23921569" fill-rule="evenodd" stroke="none"/>
      <path d="M15.05 3.6 L14.65 3.1 Q13.3 1.2 10.7 0.65 L9.2 0.45 6.35 0.65 7.0 0.25 8.85 0.1 11.0 0.35 11.05 0.35 11.55 0.45 Q14.3 1.0 15.05 3.6" fill="#5d2900" fill-opacity="0.29803923" fill-rule="evenodd" stroke="none"/>
      <path d="M12.55 10.9 Q12.25 10.9 11.85 10.55 L11.35 10.7 10.85 10.85 10.9 11.05 10.8 11.35 10.35 10.95 9.1 11.1 8.2 10.95 7.7 11.35 7.6 11.3 7.5 11.0 7.6 10.8 7.0 10.5 6.95 10.5 6.85 10.55 6.35 10.65 6.2 10.7 6.0 10.6 Q6.0 10.3 6.45 10.2 L5.8 9.6 5.8 9.55 Q5.8 9.45 5.95 9.45 L6.85 10.0 Q7.85 10.55 9.15 10.55 L11.55 10.15 12.95 9.7 13.15 9.8 12.3 10.4 12.6 10.7 12.55 10.9 M13.7 3.15 L14.6 4.45 15.2 5.5 Q14.75 5.85 14.4 6.75 L14.3 7.1 14.25 7.0 Q13.95 5.95 12.95 4.6 12.0 3.2 10.85 2.8 L8.1 2.45 Q6.5 2.55 5.65 3.65 4.8 4.75 4.55 5.7 4.35 6.6 4.45 7.0 L4.45 7.35 3.5 4.35 3.35 2.75 3.3 2.4 4.05 2.45 4.95 2.25 6.25 1.7 Q7.15 1.25 8.35 1.15 L9.7 1.15 10.1 1.2 Q11.45 1.5 12.3 1.95 L13.7 3.15" fill="#200900" fill-rule="evenodd" stroke="none"/>
    </g>
    <radialGradient cx="0" cy="0" gradientTransform="matrix(-0.0041, 0.0, 0.0, 0.0041, 9.35, 6.65)" gradientUnits="userSpaceOnUse" id="gradient0" r="819.2" spreadMethod="pad">
      <stop offset="0.0" stop-color="#ffffff" stop-opacity="0.30588236"/>
      <stop offset="0.7372549019607844" stop-color="#ffffff" stop-opacity="0.0"/>
    </radialGradient>
  </defs>
</svg>
