<svg xmlns="http://www.w3.org/2000/svg" xmlns:ffdec="https://www.free-decompiler.com/flash" xmlns:xlink="http://www.w3.org/1999/xlink" ffdec:objectType="frame" width="12.85" height="10.45"><g transform="translate(2.65 -.45)"><use ffdec:characterId="10" xlink:href="#a" width="10.65" height="7.45" transform="translate(-1.95 2.85)"/><use ffdec:characterId="11" xlink:href="#b" width="6.35" height="7.4" transform="translate(-.1 2.6)"/><use ffdec:characterId="12" xlink:href="#c" width="12.85" height="10.45" transform="translate(-2.65 .45)"/></g><defs><path id="a" fill="#fff" fill-rule="evenodd" d="m6.35 4.15-.2-.9q0-.4.45-.4.6 0 1.4 1.1l.7 1.35Q6.25 9.8 5.75 9.95h-.5L5.2 9.8Q6.55 7.25 6.55 5zM.8 10.3q-1.05 0-2-2.05-.75-1.7-.75-2.45l.2-.8q.3-.6.9-.6.35 0 .65 3l.8 1.35.65 1.15q0 .4-.45.4" transform="translate(1.95 -2.85)"/><path id="d" fill="#d75d21" fill-rule="evenodd" d="m6.35 2.65-.1 1L6.2 4l-.25.9Q5.2 7.35 3.5 7.35l-.2.05-1.7-.35h-.05l-.6-.7-.2-.3-.25-.5-.3-.8-.2-1.7L.05 2l.15-.35.15-.2.1-.15L.7 1l.7-.45 1-.4L3.5 0l1.05.1.6.25.8.8.4 1.05z"/><linearGradient id="e" x1="-819.2" x2="819.2" gradientTransform="matrix(-.0002 .0062 -.0068 -.0002 3.1 6.9)" gradientUnits="userSpaceOnUse" spreadMethod="pad"><stop offset=".227" stop-opacity=".506"/><stop offset=".698" stop-opacity="0"/></linearGradient><use ffdec:characterId="2" xlink:href="#d" id="b" width="6.35" height="7.4"/><g id="c" fill-rule="evenodd"><path fill="url(#e)" d="m6.5 3.3.2 2.6-.85 2.65q-.5 2.15-2.55 2.15l-1.35-.25q-.65-.2-.95-.5L.6 9.3l-.8-.65q-.35-.75-.35-3.2l.05-1.3.15-.65.45-.55.4-.55.2-.15.65-.25 1.9-.25.7.05 1.65.55q.8.2.9.95" transform="translate(2.65 -.45)"/><path fill-opacity=".451" d="M5.05 5.85q.05-.7.7-.65.6.05.7.65 0 .75-.7.7-.75-.05-.7-.7"/><path fill-opacity=".125" d="M7.2 4.1q.6.5.55 1.7-.1 1.15-.65 1.85-.6.65-1.4.7-.85 0-1.45-.65-.7-.65-.75-1.65-.05-1.15.6-1.8.7-.7 1.55-.7t1.55.55M5.05 5.85q-.05.65.7.7.7.05.7-.7-.1-.6-.7-.65-.65-.05-.7.65"/><path fill-opacity=".2" d="M9.5 5.45 8.85 3.4q0-.5.4-.65.45-.15.7.65l.25.2.4.35.35.3.15.4q.45-.05.45.6 0 .5-.45.55 0 .35-.7.9h-.15q-.5-.65-.9-.7l-.25-.2v-.2zm-7.4-.1.1.5v.25l-.55.3-.5.6-.35-.85-.15-.75.35-.6q.4-.35 1-.35.25 0 .25.3z"/><path fill-opacity=".298" d="M6.9.3 4.7.25 4.2.3Q2.85.4 1.5 1.55l-1.5.9.3-.35.7-.85.55-.45Q2.25.3 2.9.15L4.35 0h1.4l1.2.2z"/><path fill="#333" d="m9.5 3.4-.4-.35.35 1.25.05.45v.15l-.15 1.6-.15.55-.15.5-.25.5-.75 1.1.05.2h.1l.35-.15.3-.15-.1.2-.15.35-.55.4-.55.15-.5.15-1.25.15-1.25-.1-.95-.2-.2-.1-.45-.2-.35-.35-.15-.1h.25l.25-.2-.1-.15-.3-.7-.2-.45v-.05l-.05-.05-.05-.2-.35-1.35-.05-.3V4.8l.1-.3-.15.25-.25.2-.3.3-.5.5-.3.3.1-.45.1-1 .25-.75-.5.65-.2.5-.05-.25.25-.7.5-1.2Q3.2.95 5.4.85q3.15-.1 4.95 1.4 1.05.8 1.4 1.65l.05-.05 1.05 1.8-.95-.5-.4.55-.6.8-.85 1-.55.55.85-1.55.35-.9.1-.65q0-.4-1.35-1.65zm-.6.95L8.5 3.3l-.8-.8-.6-.25-1.05-.1-1.1.15-1 .4q-.55.25-.7.45l-.25.3-.1.15-.15.2-.15.35-.05 1.05.2 1.7.3.8.25.5.2.3.6.7h.05l1.7.35.2-.05q1.7 0 2.45-2.45l.25-.9.05-.35.1-1z"/><path fill="#fff" fill-opacity=".988" d="M8.4 5.4h-.6q-.85-.25-.85-.85 0-.35.3-.6.25-.25.75-.25t.75.35L9 4.6q0 .6-.6.8M4.7 7.5l-1.05.95-1.35.15q-.3-.5.4-.9L4 7.2q.65-.05.7.3m-.3 1.55q.1-.35.5-.6l.4.05v.6l-.3.55-.55-.05q-.25-.2-.05-.55"/></g></defs></svg>