<svg xmlns="http://www.w3.org/2000/svg" xmlns:ffdec="https://www.free-decompiler.com/flash" xmlns:xlink="http://www.w3.org/1999/xlink" ffdec:objectType="frame" width="13.25" height="12.65"><use ffdec:characterId="4" xlink:href="#a" width="12.4" height="8.9" transform="translate(.35 3.75)"/><defs><linearGradient id="b" x1="-819.2" x2="819.2" color-interpolation="linearRGB" gradientTransform="matrix(0 .0033 .0044 0 9.3 7.85)" gradientUnits="userSpaceOnUse" spreadMethod="pad"><stop offset="0" stop-opacity="0"/><stop offset="1" stop-color="#fff" stop-opacity=".498"/></linearGradient><linearGradient id="c" x1="-819.2" x2="819.2" gradientTransform="matrix(.0001 -.002 -.0023 -.0001 9.15 7.6)" gradientUnits="userSpaceOnUse" spreadMethod="pad"><stop offset="0" stop-opacity=".067"/><stop offset="1" stop-opacity=".576"/></linearGradient><g id="a" fill-rule="evenodd"><path fill="#f5f5f5" d="m10.65 5.3-.05-.25-.65.7-.45.5q-.4 0-.4-.8h-.05Q7.45 6.9 7.35 8.1l.85-.25q.7-.3.95-.3l.15.05q1.35-1 1.35-2.3m-.8-1.65-.4.15-1.05-.5-2.05-.45-1.1.2-1.05.25q-.45.15-.5.4l-.05.35-.75 1.5.1.5.05.2.6.45.25.1.1.05.6.3.9.35 1.25.5.6-1.4.75-.95q.65-.7 1.05-.7l.3.05.15.2.7-.95zM9.1 2.6v.05l.15.2zm-.15-1 .8.3q.55 0 1.35.6l.8.7q.5.65.5 1.6 0 1.25-1.1 2.45-1.15 1.2-2.85 1.4L7.1 8.9h-2l-1.85-.35-1.1-.35Q1.5 7.85.95 6.65L.45 5.1Q.45 4 1.5 2.9q1.35-1.45 3.45-1.45l2.65.25 1 .25-.1-.15q0-.35.45-.2"/><path fill-opacity=".2" d="M9.75.75 7.85.2 10.2.05q1.1.25 1.5.75l.55.75.15.25-1.5-.7z"/><path fill="#163c91" d="M9.85 3.2q1.3.95 1.25 2.35 0 1.35-1.15 2.3-1.15.9-3.2.95-2 .1-3.35-.95-1.3-1.05-1.25-2.4t1.4-2.35q1.35-1.05 3.2-.95 1.75.1 3.1 1.05"/><path fill="url(#b)" d="M6.6 5.95q.95-.75 2.6-.8 1.6-.1 2.7.8 1.1.85 1.05 1.9Q12.9 9 11.8 9.8q-1.1.85-2.6.75-1.4-.1-2.5-.85-1.05-.8-1-1.9 0-1.15.9-1.85" transform="translate(-2.65 -2.3)"/><path fill="url(#c)" d="M7.9 6.45q.6-.35 1.4-.35t1.35.45q.6.5.55 1.15l-.65 1.15q-.65.5-1.45.4-.8 0-1.35-.5t-.5-1.15q.1-.7.65-1.15" transform="translate(-2.65 -2.3)"/><path fill-opacity=".2" d="M1.85 7.55 1.1 6l-.05-1q.05-.5.25-.9.2-.45.75-.95l1.45-.9 1.8-.4 1.65-.1 1.55.15.9.25 1.05.45 1 .5.5.35.1.05-5-.2q-2.75.35-4.1 1.55t-1.1 2.7"/><path fill="#333" d="m12.05 3.5-.1-.05-.5-.35-1-.5-1.05-.45-.9-.25-1.55-.15-1.65.1-1.8.4-1.45.9q-.55.5-.75.95-.2.4-.25.9l.05 1 .75 1.55.65.85L.8 7Q.15 6.1.05 5.45L0 4.3l.35-1L1 2.4l1.1-.65 1-.4 1.05-.25L5.4.9h1.75l1.15.2 1.7.5q1.15.45 1.6.9.5.5.65 1.1z"/><path fill="#fff" fill-opacity=".498" d="m6.7 4.1.2.25-.2.35-.4.1-.45-.1-.15-.35.15-.25q.2-.15.45-.15t.4.15"/><path fill="#fff" fill-opacity=".439" d="M7.8 7.05q-.55.4-1.35.4T5.1 7t-.55-.95l.05-.2.5.75q.45.4 1.5.4 1.1 0 1.75-1v.1q0 .6-.55.95"/><path fill="#fff" d="m9.75 2.95.45.65q.15.4-.2.65l-1 .3-1.15-.35q-.4-.3-.3-.65 0-.45.45-.7.45-.3.85-.25.45.05.9.35"/></g></defs></svg>