<svg xmlns="http://www.w3.org/2000/svg" xmlns:ffdec="https://www.free-decompiler.com/flash" xmlns:xlink="http://www.w3.org/1999/xlink" ffdec:objectType="frame" width="13.25" height="12.65"><use ffdec:characterId="5" xlink:href="#a" width="12.4" height="12.65" transform="translate(.35)"/><defs><linearGradient id="b" x1="-819.2" x2="819.2" color-interpolation="linearRGB" gradientTransform="matrix(0 .0047 .0044 0 9.3 6.4)" gradientUnits="userSpaceOnUse" spreadMethod="pad"><stop offset="0" stop-opacity="0"/><stop offset="1" stop-color="#fff" stop-opacity=".498"/></linearGradient><linearGradient id="c" x1="-819.2" x2="819.2" gradientTransform="matrix(.0001 -.0029 -.0023 -.0001 9.15 6.1)" gradientUnits="userSpaceOnUse" spreadMethod="pad"><stop offset="0" stop-opacity=".067"/><stop offset="1" stop-opacity=".576"/></linearGradient><g id="a" fill-rule="evenodd"><path fill="#f5f5f5" d="m10.65 7.55-.05-.35q-.35.15-.65.95l-.45.75q-.4 0-.4-1.15h-.05q-1.6 2.05-1.7 3.75l.85-.35.95-.4.15.05q1.35-1.4 1.35-3.25M9.45 5.4 8.4 4.7Q7.3 4 6.35 4l-1.1.3-1.05.4q-.45.2-.5.55l-.05.5Q2.9 7.65 2.9 7.9l.1.7.05.25.6.65.25.2.1.05.6.4.9.55 1.25.7.6-2L8.1 8q.65-1 1.05-1l.3.1.15.25.7-1.35-.45-.8q-.1.2-.4.2M9.1 3.75l.15.3-.15-.35zM7.6 2.4l1 .35-.1-.2q0-.55.45-.3l.8.4q.55 0 1.35.85l.8 1.05q.5.9.5 2.25 0 1.8-1.1 3.5-1.15 1.7-2.85 2l-1.35.35h-2l-1.85-.45-1.1-.55q-.65-.5-1.2-2.2-.5-1.7-.5-2.2Q.45 5.7 1.5 4.1q1.35-2.05 3.45-2.05z"/><path fill-opacity=".2" d="m11.7 1.1.55 1.05.15.4-1.5-1L9.75 1 7.85.25l2.35-.2q1.1.35 1.5 1.05"/><path fill="#163c91" d="M6.75 3q1.75.15 3.1 1.5 1.3 1.4 1.25 3.35 0 1.95-1.15 3.3-1.15 1.3-3.2 1.4-2 .1-3.35-1.4-1.3-1.5-1.25-3.4.05-1.95 1.4-3.4T6.75 3"/><path fill="url(#b)" d="M6.6 3.7q.95-1.05 2.6-1.15 1.6-.1 2.7 1.15 1.1 1.2 1.05 2.75-.05 1.6-1.15 2.75-1.1 1.2-2.6 1.1-1.4-.15-2.5-1.2-1.05-1.15-1-2.75 0-1.6.9-2.65" transform="translate(-2.65 1.45)"/><path fill="url(#c)" d="M7.9 4.45q.6-.55 1.4-.55.8.05 1.35.7.6.7.55 1.65-.1 1-.65 1.6-.65.7-1.45.6-.8-.05-1.35-.7-.55-.75-.5-1.7.1-1 .65-1.6" transform="translate(-2.65 1.45)"/><path fill-opacity=".2" d="m1.85 10.75-.75-2.2-.05-1.45q.05-.7.25-1.3.2-.65.75-1.35Q2.6 3.7 3.5 3.2q.95-.5 1.8-.6l1.65-.15 1.55.25.9.35 1.05.6 1 .7.5.5.1.1-5-.25q-2.75.5-4.1 2.2t-1.1 3.85"/><path fill="#333" d="m1.85 10.75.65 1.2-1.7-2Q.15 8.7.05 7.75L0 6.1q.1-.7.35-1.45T1 3.4l1.1-.95 1-.6 1.05-.35 1.25-.25.85-.05.9.05 1.15.25q.6.1 1.7.75l1.6 1.3q.5.7.65 1.55l-.3-.25-.5-.5-1-.7-1.05-.6-.9-.35-1.55-.25-1.65.15q-.85.1-1.8.6-.9.5-1.45 1.25-.55.7-.75 1.35-.2.6-.25 1.3l.05 1.45z"/><path fill="#fff" fill-opacity=".498" d="m6.3 5.6.4.2.2.4-.2.45-.4.15-.45-.15-.15-.45q0-.25.15-.4z"/><path fill="#fff" fill-opacity=".439" d="M8.35 8.65q0 .85-.55 1.35-.55.6-1.35.6T5.1 9.95 4.55 8.6l.05-.3.5 1.05q.45.6 1.5.6 1.1 0 1.75-1.4z"/><path fill="#fff" d="M7.85 5.95q-.4-.4-.3-.95 0-.6.45-1t.85-.3q.45.05.9.45l.45.95q.15.55-.2.95t-1 .4q-.7-.05-1.15-.5"/></g></defs></svg>