<svg xmlns="http://www.w3.org/2000/svg" xmlns:ffdec="https://www.free-decompiler.com/flash" xmlns:xlink="http://www.w3.org/1999/xlink" ffdec:objectType="frame" width="21.45" height="12.95"><g transform="translate(4.45 2.35)"><use ffdec:characterId="13" xlink:href="#a" width="14.55" height="10.85" transform="translate(.75 -.95)"/><use ffdec:characterId="3" xlink:href="#b" width="9.85" height="9.4" transform="matrix(-.9999 0 0 1.1984 12.7 -1.374)"/><use ffdec:characterId="14" xlink:href="#c" width="21.45" height="12.85" transform="translate(-4.45 -2.35)"/></g><defs><g id="d" fill-rule="evenodd"><path fill="url(#e)" d="m11 5-.15 2.25q-.35 1.85-1.35 3-1.3 1.5-3.4 1.5-2.9.35-4-1.9Q1 7.55 1.45 4.7v-.15l.1-.3q2.05-2.55 9.6-1.6l-.25.05v.05q-.1.75.1 2.25" transform="translate(-1.3 -2.4)"/><path fill="#330505" d="m9.05 3.2-.1-3 .55.1.1 1.65-.15 3.45-.4 1.2q-.55 1.2-1.95 2 1.3-.95 1.65-2.15.3-1.05.3-3.25M.1 2.65l.05-.6.75-.5Q.55 1.8.55 4.1q0 2.35.95 3.75.55.9 1.35 1.3l-1.3-.6-.2-.2-.15-.2-1-2.3z"/><path fill="#140533" d="M6 2.7q.65.55.65 1.35T6 5.35q-.65.55-1.6.55t-1.6-.55q-.65-.5-.65-1.3T2.8 2.7t1.6-.55T6 2.7"/><path fill="#070985" d="M3 7.2 1.7 5.55q1.25 1.05 2.4 1.3l1.8-.1 1.2-.95q.5-.55.8-1.9L7.8 3l.35 1.3Q8.15 5.9 7 7q-1.2 1.05-2.25.9-1.1-.15-1.75-.7"/></g><g id="c" fill-rule="evenodd"><path fill-opacity=".298" d="M10 .9q3.95 0 6.7 2l2.8 2.5.1.1q-2.9-.75-6.4-.75-3.15 0-5.4 1.1-1.75.85-1.9 1.6-.55-2.3-.55-3.1 0-1.5 1.05-2.4Q7.65.9 10 .9"/><path d="m6.05 3.45-.15.05v.05L5.6 5.5q-.05 1 .2 1.6l.15.5L5 6.05l-.55-1.3L3.7 5l-1.35.2-.75-.1.85-.5.9-.8.1-.15.55-.7.25-.3-.6-.2q-.75-.15-2.3-1.4Q-.6-.45.25.15l1.2.6h.1l3.1.4h1l.45-.05L8.25.55l4.55.1q2.8.45 4.8 2.35l.25.3q-2.6-1.95-7.75-1.95-1.1 0-2.85.8-.9.45-1.15 1z"/><path fill="#690e0e" d="m6.05 3.45.05-.3q.25-.55 1.15-1 1.75-.8 2.85-.8 5.15 0 7.75 1.95 1.2 1.15 1.8 2.15-.85-1.15-3.4-2.25Q12.8 1.65 10 2.1q-2.65.5-3.95 1.35"/><path fill="#830000" d="m7.85 11.95.85-.75-.85-.9 1.6.9.5.2 1.1.45 2.3.4.4.05h-.15q-.85.2-1.4.5l.05-.3-.95-.15-.4-.1-.55.2-.9.4v-.05l.7-.75-.2-.1-.6-.3-.5.05-1 .3z"/><path fill="#d7b790" d="M20.4 2.05q.9.5 1 .95l-.1.7-.3.45q-.4.1-.85-1.15-.35-.85-2.75-2.3z"/><path fill="#fff" d="m9.8 5.05-.05.2q-.1.2-.45.2-.5 0-.5-.55 0-.4.5-.4l.2.05.15.1zm.75-2.2q.7-.15 1.3.65.65.9.4 1.3l-.75.25q-.4-.05-1.35-.7l-1.05-.8-.4-.05 1.35-.6z"/><path fill="url(#f)" d="m10.7 6.25 1.3 1.2q.4.75.05 1.35-.25.6-1.05.75-.9.2-1.75-.3-.85-.4-1.15-1.1-.45-.75-.2-1.35.35-.6 1.2-.75z" transform="translate(4.45 2.35)"/></g><radialGradient id="f" cx="0" cy="0" r="819.2" gradientTransform="matrix(-.0025 -.0021 -.002 .002 10 7.8)" gradientUnits="userSpaceOnUse" spreadMethod="pad"><stop offset=".502" stop-color="#fff"/><stop offset=".894" stop-color="#fff" stop-opacity="0"/></radialGradient><linearGradient id="e" x1="-819.2" x2="819.2" gradientTransform="matrix(0 -.004 .005 .0001 6.6 7.4)" gradientUnits="userSpaceOnUse" spreadMethod="pad"><stop offset="0" stop-color="#82bfde"/><stop offset=".302" stop-color="#009dec"/><stop offset="1" stop-color="#003"/></linearGradient><path id="a" fill="#fff" fill-rule="evenodd" d="M8.1-.4q1.75.4 2.7.9l1.6.4.7.3h-.4l.4.05.4.25.85.9.85.75q.35.4-.8 3.45T9.55 9.9q-3.65.15-5.8-1.8-2.1-2-2.7-3.65Q.5 2.75 1 2.1L1.7.9l1.1-1q1.35-.85 2.85-.85z" transform="translate(-.75 .95)"/><use ffdec:characterId="2" xlink:href="#d" id="b" width="9.85" height="9.4"/></defs></svg>