<svg xmlns="http://www.w3.org/2000/svg" xmlns:ffdec="https://www.free-decompiler.com/flash" xmlns:xlink="http://www.w3.org/1999/xlink" ffdec:objectType="frame" width="21.45" height="12.95"><g transform="translate(4.45 2.35)"><use ffdec:characterId="18" xlink:href="#a" width="14.55" height="6.4" transform="translate(.75 3.65)"/><use ffdec:characterId="3" xlink:href="#b" width="9.85" height="9.4" transform="matrix(-.9999 0 0 .7066 12.7 3.396)"/><use ffdec:characterId="19" xlink:href="#c" width="21.45" height="7.6" transform="translate(-4.45 2.8)"/></g><defs><g id="d" fill-rule="evenodd"><path fill="url(#e)" d="m11 5-.15 2.25q-.35 1.85-1.35 3-1.3 1.5-3.4 1.5-2.9.35-4-1.9Q1 7.55 1.45 4.7v-.15l.1-.3q2.05-2.55 9.6-1.6l-.25.05v.05q-.1.75.1 2.25" transform="translate(-1.3 -2.4)"/><path fill="#330505" d="m9.05 3.2-.1-3 .55.1.1 1.65-.15 3.45-.4 1.2q-.55 1.2-1.95 2 1.3-.95 1.65-2.15.3-1.05.3-3.25M.1 2.65l.05-.6.75-.5Q.55 1.8.55 4.1q0 2.35.95 3.75.55.9 1.35 1.3l-1.3-.6-.2-.2-.15-.2-1-2.3z"/><path fill="#140533" d="M6 2.7q.65.55.65 1.35T6 5.35q-.65.55-1.6.55t-1.6-.55q-.65-.5-.65-1.3T2.8 2.7t1.6-.55T6 2.7"/><path fill="#070985" d="M3 7.2 1.7 5.55q1.25 1.05 2.4 1.3l1.8-.1 1.2-.95q.5-.55.8-1.9L7.8 3l.35 1.3Q8.15 5.9 7 7q-1.2 1.05-2.25.9-1.1-.15-1.75-.7"/></g><g id="c" fill-rule="evenodd"><path fill-opacity=".298" d="m19.5 3.2.1.05-6.4-.45q-3.15 0-5.4.65-1.75.5-1.9.95-.55-1.35-.55-1.8 0-.9 1.05-1.45 1.25-.6 3.6-.6 3.95 0 6.7 1.15 1.4.6 2.8 1.5"/><path d="m6.05 2.05-.15.05-.3 1.15q-.05.6.2.95l.15.3L5 3.6l-.55-.8-.75.15-1.35.15L1.6 3l.85-.25.9-.5.1-.1.55-.4.25-.15-.6-.15-2.3-.8Q-.6-.25.25.1l1.2.35h.1l3.1.25h1L6.1.65l2.15-.3Q10 .15 12.8.4t4.8 1.4l.25.15Q15.25.8 10.1.8l-2.85.5q-.9.25-1.15.55z"/><path fill="#690e0e" d="m6.05 2.05.05-.2q.25-.3 1.15-.55L10.1.8q5.15 0 7.75 1.15l1.8 1.3q-.85-.7-3.4-1.35Q12.8 1 10 1.25z"/><path fill="#830000" d="M7.85 7.1v-.05l.85-.45-.85-.5 1.6.5.5.15 1.1.25 2.3.25h.25l-1.4.3.05-.15-.95-.1-.4-.05-.55.1q-.75.15-.9.25v-.05l.7-.45-.2-.05-.6-.15h-.5z"/><path fill="#d7b790" d="M20.15 1.8Q19.8 1.3 17.4.45l3 .75q.9.3 1 .6l-.1.4-.3.25q-.4.05-.85-.65"/><path fill="#fff" d="M10.55 1.7q.7-.1 1.3.4.65.5.4.75L11.5 3l-1.35-.4-1.05-.5h-.4l1.35-.4zM9.8 3l-.05.1-.45.15q-.5 0-.5-.35 0-.25.5-.25l.2.05.15.05z"/><path fill="url(#f)" d="M10.7 7.9q.9.3 1.3.7.4.45.05.8-.25.35-1.05.45l-1.75-.2Q8.4 9.4 8.1 9q-.45-.45-.2-.8.35-.35 1.2-.45z" transform="translate(4.45 -2.8)"/></g><radialGradient id="f" cx="0" cy="0" r="819.2" gradientTransform="matrix(-.0025 -.0013 -.002 .0012 10 8.8)" gradientUnits="userSpaceOnUse" spreadMethod="pad"><stop offset=".502" stop-color="#fff"/><stop offset=".894" stop-color="#fff" stop-opacity="0"/></radialGradient><linearGradient id="e" x1="-819.2" x2="819.2" gradientTransform="matrix(0 -.004 .005 .0001 6.6 7.4)" gradientUnits="userSpaceOnUse" spreadMethod="pad"><stop offset="0" stop-color="#82bfde"/><stop offset=".302" stop-color="#009dec"/><stop offset="1" stop-color="#003"/></linearGradient><path id="a" fill="#fff" fill-rule="evenodd" d="m12.4 4.75.7.15h-.4l.4.05.4.15q.35.25.85.5l.85.45q.35.25-.8 2.05t-4.85 1.95q-3.65.1-5.8-1.05-2.1-1.2-2.7-2.2Q.5 5.8 1 5.45l.7-.7q.25-.3 1.1-.6 1.35-.5 2.85-.5l2.45.3 2.7.55z" transform="translate(-.75 -3.65)"/><use ffdec:characterId="2" xlink:href="#d" id="b" width="9.85" height="9.4"/></defs></svg>