<?xml version="1.0" encoding="UTF-8" standalone="no"?>
<svg xmlns:ffdec="https://www.free-decompiler.com/flash" xmlns:xlink="http://www.w3.org/1999/xlink" ffdec:objectType="frame" height="12.95px" width="21.45px" xmlns="http://www.w3.org/2000/svg">
  <g transform="matrix(1.0, 0.0, 0.0, 1.0, 4.45, 2.35)">
    <use ffdec:characterId="18" height="6.4" transform="matrix(1.0, 0.0, 0.0, 1.0, 0.75, 3.65)" width="14.55" xlink:href="#shape0"/>
    <use ffdec:characterId="3" height="9.4" transform="matrix(-0.9999, 0.0, 0.0, 0.7066, 12.7001, 3.3959)" width="9.85" xlink:href="#sprite0"/>
    <use ffdec:characterId="19" height="7.6" transform="matrix(1.0, 0.0, 0.0, 1.0, -4.45, 2.8)" width="21.45" xlink:href="#shape2"/>
  </g>
  <defs>
    <g id="shape0" transform="matrix(1.0, 0.0, 0.0, 1.0, -0.75, -3.65)">
      <path d="M12.4 4.75 L13.1 4.9 12.7 4.9 13.1 4.95 13.5 5.1 Q13.85 5.35 14.35 5.6 L15.2 6.05 Q15.55 6.3 14.4 8.1 13.25 9.9 9.55 10.05 5.9 10.15 3.75 9.0 1.65 7.8 1.05 6.8 0.5 5.8 1.0 5.45 L1.7 4.75 Q1.95 4.45 2.8 4.15 4.15 3.65 5.65 3.65 L8.1 3.95 10.8 4.5 12.4 4.75" fill="#ffffff" fill-rule="evenodd" stroke="none"/>
    </g>
    <g id="sprite0" transform="matrix(1.0, 0.0, 0.0, 1.0, -1.3, -2.4)">
      <use ffdec:characterId="2" height="9.4" transform="matrix(1.0, 0.0, 0.0, 1.0, 1.3, 2.4)" width="9.85" xlink:href="#shape1"/>
    </g>
    <g id="shape1" transform="matrix(1.0, 0.0, 0.0, 1.0, -1.3, -2.4)">
      <path d="M11.0 5.0 L10.85 7.25 Q10.5 9.1 9.5 10.25 8.2 11.75 6.1 11.75 3.2 12.1 2.1 9.85 1.0 7.55 1.45 4.7 L1.45 4.55 1.55 4.25 Q3.6 1.7 11.15 2.65 L10.9 2.7 10.9 2.75 Q10.8 3.5 11.0 5.0" fill="url(#gradient0)" fill-rule="evenodd" stroke="none"/>
      <path d="M10.35 5.6 L10.25 2.6 10.8 2.7 10.9 4.35 10.75 7.8 10.35 9.0 Q9.8 10.2 8.4 11.0 9.7 10.05 10.05 8.85 10.35 7.8 10.35 5.6 M1.4 5.05 L1.45 4.45 2.2 3.95 Q1.85 4.2 1.85 6.5 1.85 8.85 2.8 10.25 3.35 11.15 4.15 11.55 L2.85 10.95 2.65 10.75 2.5 10.55 1.5 8.25 1.4 5.05" fill="#330505" fill-rule="evenodd" stroke="none"/>
      <path d="M7.3 5.1 Q7.95 5.65 7.95 6.45 7.95 7.25 7.3 7.75 6.65 8.3 5.7 8.3 4.75 8.3 4.1 7.75 3.45 7.25 3.45 6.45 3.45 5.65 4.1 5.1 4.75 4.55 5.7 4.55 6.65 4.55 7.3 5.1" fill="#140533" fill-rule="evenodd" stroke="none"/>
      <path d="M4.3 9.6 L3.0 7.95 Q4.25 9.0 5.4 9.25 L7.2 9.15 8.4 8.2 Q8.9 7.65 9.2 6.3 L9.1 5.4 9.45 6.7 Q9.45 8.3 8.3 9.4 7.1 10.45 6.05 10.3 4.95 10.15 4.3 9.6" fill="#070985" fill-rule="evenodd" stroke="none"/>
    </g>
    <linearGradient gradientTransform="matrix(0.0, -0.004, 0.005, 1.0E-4, 6.6, 7.4)" gradientUnits="userSpaceOnUse" id="gradient0" spreadMethod="pad" x1="-819.2" x2="819.2">
      <stop offset="0.0" stop-color="#82bfde"/>
      <stop offset="0.30196078431372547" stop-color="#009dec"/>
      <stop offset="1.0" stop-color="#000033"/>
    </linearGradient>
    <g id="shape2" transform="matrix(1.0, 0.0, 0.0, 1.0, 4.45, -2.8)">
      <path d="M15.05 6.0 L15.15 6.05 8.75 5.6 Q5.6 5.6 3.35 6.25 1.6 6.75 1.45 7.2 0.9 5.85 0.9 5.4 0.9 4.5 1.95 3.95 3.2 3.35 5.55 3.35 9.5 3.35 12.25 4.5 13.65 5.1 15.05 6.0" fill="#000000" fill-opacity="0.29803923" fill-rule="evenodd" stroke="none"/>
      <path d="M1.6 4.85 L1.45 4.9 1.15 6.05 Q1.1 6.65 1.35 7.0 L1.5 7.3 0.55 6.4 0.0 5.6 -0.75 5.75 -2.1 5.9 -2.85 5.8 -2.0 5.55 -1.1 5.05 -1.0 4.95 -0.45 4.55 -0.2 4.4 -0.8 4.25 -3.1 3.45 Q-5.05 2.55 -4.2 2.9 L-3.0 3.25 -2.9 3.25 0.2 3.5 1.2 3.5 1.65 3.45 3.8 3.15 Q5.55 2.95 8.35 3.2 11.15 3.45 13.15 4.6 L13.4 4.75 Q10.8 3.6 5.65 3.6 L2.8 4.1 Q1.9 4.35 1.65 4.65 L1.6 4.85" fill="#000000" fill-rule="evenodd" stroke="none"/>
      <path d="M1.6 4.85 L1.65 4.65 Q1.9 4.35 2.8 4.1 L5.65 3.6 Q10.8 3.6 13.4 4.75 L15.2 6.05 Q14.35 5.35 11.8 4.7 8.35 3.8 5.55 4.05 L1.6 4.85" fill="#690e0e" fill-rule="evenodd" stroke="none"/>
      <path d="M3.4 9.9 L3.4 9.85 4.25 9.4 3.4 8.9 5.0 9.4 5.5 9.55 6.6 9.8 8.9 10.05 9.15 10.05 7.75 10.35 7.8 10.2 6.85 10.1 6.45 10.05 5.9 10.15 Q5.15 10.3 5.0 10.4 L5.0 10.35 5.7 9.9 5.5 9.85 4.9 9.7 4.4 9.7 3.4 9.9" fill="#830000" fill-rule="evenodd" stroke="none"/>
      <path d="M15.7 4.6 Q15.35 4.1 12.95 3.25 L15.95 4.0 Q16.85 4.3 16.95 4.6 L16.85 5.0 16.55 5.25 Q16.15 5.3 15.7 4.6" fill="#d7b790" fill-rule="evenodd" stroke="none"/>
      <path d="M6.1 4.5 Q6.8 4.4 7.4 4.9 8.05 5.4 7.8 5.65 L7.05 5.8 5.7 5.4 4.65 4.9 4.25 4.9 5.6 4.5 6.1 4.5 M5.35 5.8 L5.3 5.9 4.85 6.05 Q4.35 6.05 4.35 5.7 4.35 5.45 4.85 5.45 L5.05 5.5 5.2 5.55 5.35 5.8" fill="#ffffff" fill-rule="evenodd" stroke="none"/>
      <path d="M10.7 7.9 Q11.6 8.2 12.0 8.6 12.4 9.05 12.05 9.4 11.8 9.75 11.0 9.85 L9.25 9.65 Q8.4 9.4 8.1 9.0 7.65 8.55 7.9 8.2 8.25 7.85 9.1 7.75 L10.7 7.9" fill="url(#gradient1)" fill-rule="evenodd" stroke="none"/>
    </g>
    <radialGradient cx="0" cy="0" gradientTransform="matrix(-0.0025, -0.0013, -0.002, 0.0012, 10.0, 8.8)" gradientUnits="userSpaceOnUse" id="gradient1" r="819.2" spreadMethod="pad">
      <stop offset="0.5019607843137255" stop-color="#ffffff"/>
      <stop offset="0.8941176470588236" stop-color="#ffffff" stop-opacity="0.0"/>
    </radialGradient>
  </defs>
</svg>
