<svg xmlns="http://www.w3.org/2000/svg" xmlns:ffdec="https://www.free-decompiler.com/flash" xmlns:xlink="http://www.w3.org/1999/xlink" ffdec:objectType="frame" width="12.85" height="10.45"><g transform="translate(-1.65 -.45)"><use ffdec:characterId="1" xlink:href="#a" width="10.65" height="7.45" transform="translate(3.15 2.85)"/><use ffdec:characterId="3" xlink:href="#b" width="6.35" height="7.4" transform="matrix(-1 0 0 1 11.95 2.6)"/><use ffdec:characterId="4" xlink:href="#c" width="12.85" height="10.45" transform="translate(1.65 .45)"/></g><defs><path id="a" fill="#fff" fill-rule="evenodd" d="M5.25 2.85q.45 0 .45.4l-.2.9-.2.85q0 2.25 1.35 4.8l-.05.15h-.5Q5.6 9.8 3.15 5.3q0-.35.7-1.35.8-1.1 1.4-1.1m6.8 4.55q.3-3 .65-3 .6 0 .9.6l.2.8q0 .75-.75 2.45-.95 2.05-2 2.05-.45 0-.45-.4l.65-1.15z" transform="translate(-3.15 -2.85)"/><path id="d" fill="#2b9c7a" fill-rule="evenodd" d="m6.35 2.65-.1 1L6.2 4l-.25.9Q5.2 7.35 3.5 7.35l-.2.05-1.7-.35h-.05l-.6-.7-.2-.3-.25-.5-.3-.8-.2-1.7L.05 2l.15-.35.15-.2.1-.15L.7 1l.7-.45 1-.4L3.5 0l1.05.1.6.25.8.8.4 1.05z"/><linearGradient id="e" x1="-819.2" x2="819.2" gradientTransform="matrix(.0002 .0062 .0068 -.0002 8.75 6.9)" gradientUnits="userSpaceOnUse" spreadMethod="pad"><stop offset=".227" stop-opacity=".498"/><stop offset=".698" stop-opacity="0"/></linearGradient><use ffdec:characterId="2" xlink:href="#d" id="b" width="6.35" height="7.4"/><g id="c" fill-rule="evenodd"><path fill="url(#e)" d="m12.35 4.15.05 1.3q0 2.45-.35 3.2l-.8.65-.4.65-.95.5-1.35.25Q6.5 10.7 6 8.55L5.15 5.9l.2-2.6q.1-.75.9-.95L7.9 1.8l.7-.05 1.9.25.65.25.2.15.4.55.45.55z" transform="translate(-1.65 -.45)"/><path fill-opacity=".451" d="M7.1 5.2q.65-.05.7.65.05.65-.7.7-.7.05-.7-.7.1-.6.7-.65"/><path fill-opacity=".106" d="M9.35 6.05q-.05 1-.75 1.65-.6.65-1.45.65-.8-.05-1.4-.7-.55-.7-.65-1.85-.05-1.2.55-1.7.7-.55 1.55-.55t1.55.7q.65.65.6 1.8M7.1 5.2q-.6.05-.7.65 0 .75.7.7.75-.05.7-.7-.05-.7-.7-.65"/><path fill-opacity=".2" d="M3.6 2.75q.4.15.4.65l-.65 2.05.4.15v.2L3.5 6l-.9.7h-.15q-.7-.55-.7-.9-.45-.05-.45-.55 0-.65.45-.6l.15-.4.35-.3.4-.35.25-.2q.25-.8.7-.65m8.25 2.05.35.6-.15.75-.35.85-.5-.6-.55-.3v-.25l.1-.5-.15-.6q0-.3.25-.3.6 0 1 .35"/><path fill-opacity=".298" d="m11.3.8.55.45.7.85.3.35-1.5-.9Q10 .4 8.65.3l-.5-.05-2.2.05L5.9.2 7.1 0h1.4l1.45.15Q10.6.3 11.3.8"/><path fill="#333" d="m10.1 3.8-.15-.2-.1-.15-.25-.3-.7-.45-1-.4-1.1-.15-1.05.1-.6.25q-.4.1-.8.8l-.4 1.05v.45l.1 1 .05.35.25.9Q5.1 9.5 6.8 9.5l.2.05 1.7-.35h.05l.6-.7.2-.3.25-.5.3-.8.2-1.7-.05-1.05zm1.55 1.45-.3-.3-.25-.2-.15-.25.1.3v1.15l-.05.3-.35 1.35-.05.2-.05.05v.05l-.2.45-.3.7-.1.15.25.2h.25l-.15.1-.35.35-.45.2-.2.1-.95.2-1.25.1-1.25-.15-.5-.15L4.8 10l-.55-.4-.15-.35-.1-.2.3.15.35.15h.1l.05-.2-.75-1.1-.25-.5-.15-.5-.15-.55-.15-1.6v-.15l.05-.45.35-1.25-.4.35.05-.1Q2.05 4.55 2.05 4.95l.1.65.35.9.85 1.55-.55-.55-.85-1-.6-.8-.4-.55-.95.5 1.05-1.8.05.05q.35-.85 1.4-1.65Q4.3.75 7.45.85q2.2.1 4.55 2l.5 1.2.25.7-.05.25-.2-.5-.5-.65.25.75.1 1 .1.45-.3-.3z"/><path fill="#fff" fill-opacity=".988" d="M10.65 4.6q0 .6-.6.8h-.6q-.85-.25-.85-.85 0-.35.3-.6.25-.25.75-.25t.75.35zm-3.7 3.9v.6l-.3.55-.55-.05q-.25-.2-.05-.55.1-.35.5-.6zm-1.3-1.3q.65-.05.7.3l-1.05.95-1.35.15q-.3-.5.4-.9.65-.45 1.3-.5"/></g></defs></svg>