<?xml version="1.0" encoding="UTF-8" standalone="no"?>
<svg xmlns:ffdec="https://www.free-decompiler.com/flash" xmlns:xlink="http://www.w3.org/1999/xlink" ffdec:objectType="frame" height="10.45px" width="12.85px" xmlns="http://www.w3.org/2000/svg">
  <g transform="matrix(1.0, 0.0, 0.0, 1.0, -1.65, -0.45)">
    <use ffdec:characterId="1" height="7.45" transform="matrix(1.0, 0.0, 0.0, 1.0, 3.15, 2.85)" width="10.65" xlink:href="#shape0"/>
    <use ffdec:characterId="3" height="7.4" id="Color" transform="matrix(-1.0, 0.0, 0.0, 1.0, 11.95, 2.6)" width="6.35" xlink:href="#sprite0"/>
    <use ffdec:characterId="4" height="10.45" transform="matrix(1.0, 0.0, 0.0, 1.0, 1.65, 0.45)" width="12.85" xlink:href="#shape2"/>
  </g>
  <defs>
    <g id="shape0" transform="matrix(1.0, 0.0, 0.0, 1.0, -3.15, -2.85)">
      <path d="M5.25 2.85 Q5.7 2.85 5.7 3.25 L5.5 4.15 5.3 5.0 Q5.3 7.25 6.65 9.8 L6.6 9.95 6.1 9.95 Q5.6 9.8 3.15 5.3 3.15 4.95 3.85 3.95 4.65 2.85 5.25 2.85 M12.05 7.4 Q12.35 4.4 12.7 4.4 13.3 4.4 13.6 5.0 L13.8 5.8 Q13.8 6.55 13.05 8.25 12.1 10.3 11.05 10.3 10.6 10.3 10.6 9.9 L11.25 8.75 12.05 7.4" fill="#ffffff" fill-rule="evenodd" stroke="none"/>
    </g>
    <g id="sprite0" transform="matrix(1.0, 0.0, 0.0, 1.0, 0.0, 0.0)">
      <use ffdec:characterId="2" height="7.4" transform="matrix(1.0, 0.0, 0.0, 1.0, 0.0, 0.0)" width="6.35" xlink:href="#shape1"/>
    </g>
    <g id="shape1" transform="matrix(1.0, 0.0, 0.0, 1.0, 0.0, 0.0)">
      <path d="M6.35 2.65 L6.25 3.65 6.2 4.0 5.95 4.9 Q5.2 7.35 3.5 7.35 L3.3 7.4 1.6 7.05 1.55 7.05 0.95 6.35 0.75 6.05 0.5 5.55 0.2 4.75 0.0 3.05 0.05 2.0 0.2 1.65 0.35 1.45 0.45 1.3 0.7 1.0 1.4 0.55 2.4 0.15 3.5 0.0 4.55 0.1 5.15 0.35 5.95 1.15 6.35 2.2 6.35 2.65" fill="#2b9c7a" fill-rule="evenodd" stroke="none"/>
    </g>
    <g id="shape2" transform="matrix(1.0, 0.0, 0.0, 1.0, -1.65, -0.45)">
      <path d="M12.35 4.15 L12.4 5.45 Q12.4 7.9 12.05 8.65 L11.25 9.3 10.85 9.95 9.9 10.45 8.55 10.7 Q6.5 10.7 6.0 8.55 L5.15 5.9 5.35 3.3 Q5.45 2.55 6.25 2.35 L7.9 1.8 8.6 1.75 10.5 2.0 11.15 2.25 11.35 2.4 11.75 2.95 12.2 3.5 12.35 4.15" fill="url(#gradient0)" fill-rule="evenodd" stroke="none"/>
      <path d="M8.75 5.65 Q9.4 5.6 9.45 6.3 9.5 6.95 8.75 7.0 8.05 7.05 8.05 6.3 8.15 5.7 8.75 5.65" fill="#000000" fill-opacity="0.4509804" fill-rule="evenodd" stroke="none"/>
      <path d="M11.0 6.5 Q10.95 7.5 10.25 8.15 9.65 8.8 8.8 8.8 8.0 8.75 7.4 8.1 6.85 7.4 6.75 6.25 6.7 5.05 7.3 4.55 8.0 4.0 8.85 4.0 9.7 4.0 10.4 4.7 11.05 5.35 11.0 6.5 M8.75 5.65 Q8.15 5.7 8.05 6.3 8.05 7.05 8.75 7.0 9.5 6.95 9.45 6.3 9.4 5.6 8.75 5.65" fill="#000000" fill-opacity="0.105882354" fill-rule="evenodd" stroke="none"/>
      <path d="M5.25 3.2 Q5.65 3.35 5.65 3.85 L5.0 5.9 5.4 6.05 5.4 6.25 5.15 6.45 4.25 7.15 4.1 7.15 Q3.4 6.6 3.4 6.25 2.95 6.2 2.95 5.7 2.95 5.05 3.4 5.1 L3.55 4.7 3.9 4.4 4.3 4.05 4.55 3.85 Q4.8 3.05 5.25 3.2 M13.5 5.25 L13.85 5.85 13.7 6.6 13.35 7.45 12.85 6.85 12.3 6.55 12.3 6.3 12.4 5.8 12.25 5.2 Q12.25 4.9 12.5 4.9 13.1 4.9 13.5 5.25" fill="#000000" fill-opacity="0.2" fill-rule="evenodd" stroke="none"/>
      <path d="M12.95 1.25 L13.5 1.7 14.2 2.55 14.5 2.9 13.0 2.0 Q11.65 0.85 10.3 0.75 L9.8 0.7 7.6 0.75 7.55 0.65 8.75 0.45 9.75 0.45 10.15 0.45 11.6 0.6 Q12.25 0.75 12.95 1.25" fill="#000000" fill-opacity="0.29803923" fill-rule="evenodd" stroke="none"/>
      <path d="M11.75 4.25 L11.6 4.05 11.5 3.9 11.25 3.6 10.55 3.15 9.55 2.75 8.45 2.6 7.4 2.7 6.8 2.95 Q6.4 3.05 6.0 3.75 L5.6 4.8 5.6 5.25 5.7 6.25 5.75 6.6 6.0 7.5 Q6.75 9.95 8.45 9.95 L8.65 10.0 10.35 9.65 10.4 9.65 11.0 8.95 11.2 8.65 11.45 8.15 11.75 7.35 11.95 5.65 11.9 4.6 11.75 4.25 M13.3 5.7 L13.0 5.4 12.75 5.2 12.6 4.95 12.7 5.25 12.7 5.5 12.7 5.6 12.7 5.8 12.7 6.4 12.65 6.7 12.3 8.05 12.25 8.25 12.2 8.3 12.2 8.35 12.0 8.8 11.7 9.5 11.6 9.65 11.85 9.85 12.1 9.85 11.95 9.95 11.6 10.3 11.15 10.5 10.95 10.6 10.0 10.8 8.75 10.9 7.5 10.75 7.0 10.6 6.45 10.45 5.9 10.05 5.75 9.7 5.65 9.5 5.95 9.65 6.3 9.8 6.4 9.8 6.45 9.6 5.7 8.5 5.45 8.0 5.3 7.5 5.15 6.95 5.0 5.35 5.0 5.2 5.05 4.75 5.4 3.5 5.0 3.85 5.05 3.75 Q3.7 5.0 3.7 5.4 L3.8 6.05 4.15 6.95 5.0 8.5 4.45 7.95 3.6 6.95 3.0 6.15 2.6 5.6 1.65 6.1 2.7 4.3 2.75 4.35 Q3.1 3.5 4.15 2.7 5.95 1.2 9.1 1.3 11.3 1.4 13.65 3.3 L14.15 4.5 14.4 5.2 14.35 5.45 14.15 4.95 13.65 4.3 13.9 5.05 14.0 6.05 14.1 6.5 13.8 6.2 13.3 5.7" fill="#333333" fill-rule="evenodd" stroke="none"/>
      <path d="M12.3 5.05 Q12.3 5.65 11.7 5.85 L11.1 5.85 Q10.25 5.6 10.25 5.0 10.25 4.65 10.55 4.4 10.8 4.15 11.3 4.15 11.8 4.15 12.05 4.5 L12.3 5.05 M8.6 8.95 L8.6 9.55 8.3 10.1 7.75 10.05 Q7.5 9.85 7.7 9.5 7.8 9.15 8.2 8.9 L8.6 8.95 M7.3 7.65 Q7.95 7.6 8.0 7.95 L6.95 8.9 5.6 9.05 Q5.3 8.55 6.0 8.15 6.65 7.7 7.3 7.65" fill="#ffffff" fill-opacity="0.9882353" fill-rule="evenodd" stroke="none"/>
    </g>
    <linearGradient gradientTransform="matrix(2.0E-4, 0.0062, 0.0068, -2.0E-4, 8.75, 6.9)" gradientUnits="userSpaceOnUse" id="gradient0" spreadMethod="pad" x1="-819.2" x2="819.2">
      <stop offset="0.22745098039215686" stop-color="#000000" stop-opacity="0.49803922"/>
      <stop offset="0.6980392156862745" stop-color="#000000" stop-opacity="0.0"/>
    </linearGradient>
  </defs>
</svg>
