<svg xmlns="http://www.w3.org/2000/svg" xmlns:ffdec="https://www.free-decompiler.com/flash" xmlns:xlink="http://www.w3.org/1999/xlink" ffdec:objectType="frame" width="12.75" height="11.35"><g transform="translate(-2.3 -.9)"><use ffdec:characterId="11" xlink:href="#a" width="11.6" height="9.5" transform="translate(3.35 2.6)"/><use ffdec:characterId="3" xlink:href="#b" width="9.3" height="9.45" transform="matrix(-1 0 0 1 13.8 2.6)"/><use ffdec:characterId="12" xlink:href="#c" width="12.75" height="11.35" transform="translate(2.3 .9)"/></g><defs><radialGradient id="g" cx="0" cy="0" r="819.2" gradientTransform="matrix(-.0042 0 0 .0042 8.9 7.65)" gradientUnits="userSpaceOnUse" spreadMethod="pad"><stop offset=".082" stop-color="#fff" stop-opacity=".322"/><stop offset=".682" stop-color="#fff" stop-opacity="0"/></radialGradient><radialGradient id="h" cx="0" cy="0" r="819.2" gradientTransform="matrix(-.0085 0 0 .0085 9.05 4.65)" gradientUnits="userSpaceOnUse" spreadMethod="pad"><stop offset=".361"/><stop offset=".671" stop-color="#511000"/><stop offset="1" stop-color="#743208"/></radialGradient><radialGradient id="i" cx="0" cy="0" r="819.2" gradientTransform="matrix(-.0045 0 0 .0045 8.95 11.8)" gradientUnits="userSpaceOnUse" spreadMethod="pad"><stop offset=".361"/><stop offset=".671" stop-color="#511000"/><stop offset="1" stop-color="#743208"/></radialGradient><linearGradient id="d" x1="-819.2" x2="819.2" gradientTransform="matrix(.0002 .0023 .0058 -.0004 9.05 7)" gradientUnits="userSpaceOnUse" spreadMethod="pad"><stop offset="0" stop-color="#9a9a9a"/><stop offset=".439" stop-color="#fff"/></linearGradient><linearGradient id="f" x1="-819.2" x2="819.2" gradientTransform="matrix(0 .0046 -.0058 0 4.7 4.75)" gradientUnits="userSpaceOnUse" spreadMethod="pad"><stop offset="0" stop-color="#1c0020"/><stop offset=".639" stop-color="#b955cb"/><stop offset="1" stop-color="#ffa3a3"/></linearGradient><path id="a" fill="url(#d)" fill-rule="evenodd" d="M14 3.95q.9.6.95 2.3.1 1.65-1.1 3.55-1.15 1.9-3.9 2.3h-1.9l-2.5-.85q-1-.45-1.45-1.45l-.5-1.55-.25-1.55q-.15-1 1.1-2.3 1.7-1.8 4.85-1.8 2.65 0 4.7 1.35" transform="translate(-3.35 -2.6)"/><path id="e" fill="url(#f)" fill-rule="evenodd" d="M9.3 4.75q0 1.2-.75 2.65-.6 1.1-1.65 1.9l-.8.15-3.05-.05-.7-.3-1.05-1L.55 7Q0 5.8 0 4.4q0-1.6.75-2.65Q1.95 0 4.8 0q2.65 0 3.8 1.85.7 1.2.7 2.9"/><use ffdec:characterId="2" xlink:href="#e" id="b" width="9.3" height="9.45"/><g id="c" fill-rule="evenodd"><path fill="url(#g)" d="M7.05 9.5q-.8-.75-.8-1.85t.8-1.9Q7.8 5 8.9 5t1.9.75q.75.8.75 1.9T10.8 9.5q-.8.8-1.9.8t-1.85-.8" transform="translate(-2.3 -.9)"/><path fill="#fff" d="M10.4 4.1q.3 0 .5.25l.15.45-.15.4-.55.15-.5-.35-.1-.35q0-.55.6-.55zM2.45 8.4q0-.45.4-.45.35 0 .35.35l-.1.3-.5.05zm1.15.7-.35.3q-.3 0-.25-.3 0-.3.35-.3z"/><path fill="#fff" fill-opacity=".298" d="m9.65 8.8-1.2 1.05-1.85.45q-1.05.1-2.1-.6L3.4 8.45l-.15-.55q-.2-1.15.45-.8l.6.75.65.6q.65.45 1.45.5 1.25.05 2-.6l1.2-.85q.45-.15.45.25z"/><path fill="#bf3400" fill-opacity=".4" d="m8.7.15 1.55.4q.45.15 1.4.75t.95.95Q11.05.9 8.7.45L8.2.4l-2 .05L4.05.9l-1 .5L1.6 2.5Q.55 3.4.15 4.55l.1-.45q.6-1.65 2.3-2.95Q4.3-.15 7.75 0z"/><path fill="url(#h)" d="M10.15 1.7q1.15.15 2.25.75l.85.55 1.05 1 .75 1.05q-.6-.6-1.9-1.05Q11 3.15 9.1 3.15q-2.85 0-4.4 1.6Q3.7 5.8 3.55 7l-.15.7q-.3-.7-.3-1.45v-.7l-.35-.1-.45-.15h.45l.45-.35.1-.35-.85-.5 1-.05.3-.5-.7-.25-.35-.4-.15-.2q.5.35 1.3.35l.4-.05q1.15-.95 3.4-1.25z" transform="translate(-2.3 -.9)"/><path fill="url(#i)" d="M11.35 11.55 13 11.1l-.75.45-2.15.55-1.05.1L6.3 12q-1.15-.4-1.7-1.35l.7.45.75.3 2.7.35z" transform="translate(-2.3 -.9)"/></g></defs></svg>