<?xml version="1.0" encoding="UTF-8" standalone="no"?>
<svg xmlns:ffdec="https://www.free-decompiler.com/flash" xmlns:xlink="http://www.w3.org/1999/xlink" ffdec:objectType="frame" height="11.35px" width="12.75px" xmlns="http://www.w3.org/2000/svg">
  <g transform="matrix(1.0, 0.0, 0.0, 1.0, -2.3, -0.9)">
    <use ffdec:characterId="13" height="5.9" transform="matrix(1.0, 0.0, 0.0, 1.0, 3.35, 5.15)" width="11.6" xlink:href="#shape0"/>
    <use ffdec:characterId="3" height="9.45" id="Color" transform="matrix(-1.0, 0.0, 0.0, 0.625, 13.8, 5.15)" width="9.3" xlink:href="#sprite0"/>
    <use ffdec:characterId="14" height="7.1" transform="matrix(1.0, 0.0, 0.0, 1.0, 2.3, 4.05)" width="12.75" xlink:href="#shape2"/>
  </g>
  <defs>
    <g id="shape0" transform="matrix(1.0, 0.0, 0.0, 1.0, -3.35, -5.15)">
      <path d="M14.0 5.95 Q14.9 6.35 14.95 7.4 15.05 8.45 13.85 9.65 12.7 10.8 9.95 11.05 L8.05 11.05 5.55 10.55 Q4.55 10.25 4.1 9.65 L3.6 8.65 3.35 7.7 Q3.2 7.05 4.45 6.25 6.15 5.15 9.3 5.15 11.95 5.15 14.0 5.95" fill="url(#gradient0)" fill-rule="evenodd" stroke="none"/>
    </g>
    <linearGradient gradientTransform="matrix(2.0E-4, 0.0014, 0.0058, -3.0E-4, 9.05, 7.9)" gradientUnits="userSpaceOnUse" id="gradient0" spreadMethod="pad" x1="-819.2" x2="819.2">
      <stop offset="0.0" stop-color="#9a9a9a"/>
      <stop offset="0.4392156862745098" stop-color="#ffffff"/>
    </linearGradient>
    <g id="sprite0" transform="matrix(1.0, 0.0, 0.0, 1.0, 0.0, 0.0)">
      <use ffdec:characterId="2" height="9.45" transform="matrix(1.0, 0.0, 0.0, 1.0, 0.0, 0.0)" width="9.3" xlink:href="#shape1"/>
    </g>
    <g id="shape1" transform="matrix(1.0, 0.0, 0.0, 1.0, 0.0, 0.0)">
      <path d="M9.3 4.75 Q9.3 5.95 8.55 7.4 7.95 8.5 6.9 9.3 L6.1 9.45 3.05 9.4 2.35 9.1 1.3 8.1 0.55 7.0 Q0.0 5.8 0.0 4.4 0.0 2.8 0.75 1.75 1.95 0.0 4.8 0.0 7.45 0.0 8.6 1.85 9.3 3.05 9.3 4.75" fill="url(#gradient1)" fill-rule="evenodd" stroke="none"/>
    </g>
    <linearGradient gradientTransform="matrix(0.0, 0.0046, -0.0058, 0.0, 4.7, 4.75)" gradientUnits="userSpaceOnUse" id="gradient1" spreadMethod="pad" x1="-819.2" x2="819.2">
      <stop offset="0.0" stop-color="#1c0020"/>
      <stop offset="0.6392156862745098" stop-color="#b955cb"/>
      <stop offset="1.0" stop-color="#ffa3a3"/>
    </linearGradient>
    <g id="shape2" transform="matrix(1.0, 0.0, 0.0, 1.0, -2.3, -4.05)">
      <path d="M8.9 9.95 Q7.8 9.95 7.05 9.45 6.25 8.95 6.25 8.3 6.25 7.6 7.05 7.1 7.8 6.65 8.9 6.65 10.0 6.65 10.8 7.1 11.55 7.6 11.55 8.3 11.55 8.95 10.8 9.45 10.0 9.95 8.9 9.95" fill="url(#gradient2)" fill-rule="evenodd" stroke="none"/>
      <path d="M12.7 6.65 Q13.0 6.65 13.2 6.8 L13.35 7.05 13.2 7.3 12.65 7.4 Q12.3 7.4 12.15 7.2 L12.05 6.95 Q12.05 6.65 12.65 6.65 L12.7 6.65 M4.75 9.3 Q4.75 9.05 5.15 9.05 5.5 9.05 5.5 9.25 L5.4 9.45 4.9 9.45 4.75 9.3 M5.55 9.95 Q5.25 9.95 5.3 9.75 5.3 9.55 5.65 9.55 L5.9 9.75 Q5.9 9.95 5.55 9.95" fill="#ffffff" fill-rule="evenodd" stroke="none"/>
      <path d="M11.9 8.75 Q12.35 8.65 12.35 8.9 L11.95 9.55 Q11.55 9.95 10.75 10.2 L8.9 10.5 6.8 10.15 5.7 9.35 5.55 9.0 Q5.35 8.3 6.0 8.5 L6.6 8.95 7.25 9.35 8.7 9.65 10.7 9.3 11.9 8.75" fill="#ffffff" fill-opacity="0.29803923" fill-rule="evenodd" stroke="none"/>
      <path d="M11.0 4.15 L12.55 4.4 13.95 4.9 Q14.9 5.25 14.9 5.45 13.35 4.65 11.0 4.35 L10.5 4.3 8.5 4.35 6.35 4.65 5.35 4.95 3.9 5.65 Q2.85 6.2 2.45 6.9 L2.55 6.65 Q3.15 5.6 4.85 4.8 6.6 3.95 10.05 4.05 L11.0 4.15" fill="#bf3400" fill-opacity="0.4" fill-rule="evenodd" stroke="none"/>
      <path d="M10.15 4.55 L12.4 5.05 13.25 5.4 Q13.6 5.45 14.3 6.0 L15.05 6.65 13.15 6.0 9.1 5.45 Q6.25 5.45 4.7 6.45 3.7 7.15 3.55 7.9 L3.4 8.3 Q3.1 7.9 3.1 7.4 L3.1 6.95 2.75 6.9 2.3 6.8 2.75 6.8 Q3.15 6.75 3.2 6.6 L3.3 6.4 2.45 6.05 3.45 6.05 3.75 5.7 3.05 5.55 2.7 5.3 2.55 5.2 3.85 5.4 4.25 5.4 Q5.4 4.8 7.65 4.6 L10.15 4.55" fill="url(#gradient3)" fill-rule="evenodd" stroke="none"/>
      <path d="M13.0 10.45 L12.25 10.7 10.1 11.05 9.05 11.15 6.3 11.0 Q5.15 10.75 4.6 10.15 L5.3 10.45 6.05 10.65 8.75 10.85 13.0 10.45" fill="url(#gradient4)" fill-rule="evenodd" stroke="none"/>
    </g>
    <radialGradient cx="0" cy="0" gradientTransform="matrix(-0.0042, 0.0, 0.0, 0.0026, 8.9, 8.3)" gradientUnits="userSpaceOnUse" id="gradient2" r="819.2" spreadMethod="pad">
      <stop offset="0.08235294117647059" stop-color="#ffffff" stop-opacity="0.31764707"/>
      <stop offset="0.6823529411764706" stop-color="#ffffff" stop-opacity="0.0"/>
    </radialGradient>
    <radialGradient cx="0" cy="0" gradientTransform="matrix(-0.0085, 0.0, 0.0, 0.0053, 9.05, 6.4)" gradientUnits="userSpaceOnUse" id="gradient3" r="819.2" spreadMethod="pad">
      <stop offset="0.3607843137254902" stop-color="#000000"/>
      <stop offset="0.6705882352941176" stop-color="#511000"/>
      <stop offset="1.0" stop-color="#743208"/>
    </radialGradient>
    <radialGradient cx="0" cy="0" gradientTransform="matrix(-0.0045, 0.0, 0.0, 0.0028, 8.95, 10.9)" gradientUnits="userSpaceOnUse" id="gradient4" r="819.2" spreadMethod="pad">
      <stop offset="0.3607843137254902" stop-color="#000000"/>
      <stop offset="0.6705882352941176" stop-color="#511000"/>
      <stop offset="1.0" stop-color="#743208"/>
    </radialGradient>
  </defs>
</svg>
