<?xml version="1.0" encoding="UTF-8" standalone="no"?>
<svg xmlns:ffdec="https://www.free-decompiler.com/flash" xmlns:xlink="http://www.w3.org/1999/xlink" ffdec:objectType="frame" height="11.35px" width="12.75px" xmlns="http://www.w3.org/2000/svg">
  <g transform="matrix(1.0, 0.0, 0.0, 1.0, -2.3, -0.9)">
    <use ffdec:characterId="3" height="9.45" id="Color" transform="matrix(-1.0, 0.0, 0.0, 0.625, 13.8, 5.15)" width="9.3" xlink:href="#sprite0"/>
    <use ffdec:characterId="15" height="3.1" transform="matrix(1.0, 0.0, 0.0, 1.0, 2.5, 6.8)" width="12.0" xlink:href="#shape1"/>
  </g>
  <defs>
    <g id="sprite0" transform="matrix(1.0, 0.0, 0.0, 1.0, 0.0, 0.0)">
      <use ffdec:characterId="2" height="9.45" transform="matrix(1.0, 0.0, 0.0, 1.0, 0.0, 0.0)" width="9.3" xlink:href="#shape0"/>
    </g>
    <g id="shape0" transform="matrix(1.0, 0.0, 0.0, 1.0, 0.0, 0.0)">
      <path d="M9.3 4.75 Q9.3 5.95 8.55 7.4 7.95 8.5 6.9 9.3 L6.1 9.45 3.05 9.4 2.35 9.1 1.3 8.1 0.55 7.0 Q0.0 5.8 0.0 4.4 0.0 2.8 0.75 1.75 1.95 0.0 4.8 0.0 7.45 0.0 8.6 1.85 9.3 3.05 9.3 4.75" fill="url(#gradient0)" fill-rule="evenodd" stroke="none"/>
    </g>
    <linearGradient gradientTransform="matrix(0.0, 0.0046, -0.0058, 0.0, 4.7, 4.75)" gradientUnits="userSpaceOnUse" id="gradient0" spreadMethod="pad" x1="-819.2" x2="819.2">
      <stop offset="0.0" stop-color="#1c0020" stop-opacity="0.0"/>
      <stop offset="0.6392156862745098" stop-color="#b955cb" stop-opacity="0.0"/>
      <stop offset="1.0" stop-color="#ffa3a3" stop-opacity="0.0"/>
    </linearGradient>
    <g id="shape1" transform="matrix(1.0, 0.0, 0.0, 1.0, -2.5, -6.8)">
      <path d="M10.95 7.95 L13.6 7.45 Q9.8 8.75 7.7 8.45 L7.05 8.4 4.95 8.0 4.0 7.55 3.15 6.8 3.65 7.0 Q4.0 7.3 5.1 7.65 L8.05 8.1 10.95 7.95" fill="#bf3400" fill-opacity="0.4" fill-rule="evenodd" stroke="none"/>
      <path d="M3.0 7.15 L3.35 7.5 3.8 7.9 Q4.4 8.4 7.0 8.85 L9.1 8.85 Q13.0 8.4 14.5 7.4 13.0 9.25 8.65 9.9 L6.85 9.9 5.1 9.6 3.9 9.6 3.75 9.5 4.6 9.2 4.45 9.1 4.35 9.0 3.9 8.95 3.4 8.85 3.35 8.85 3.0 8.75 3.9 8.65 3.8 8.55 2.5 8.15 2.95 8.2 3.5 8.15 3.0 7.15" fill="url(#gradient1)" fill-rule="evenodd" stroke="none"/>
    </g>
    <radialGradient cx="0" cy="0" gradientTransform="matrix(-0.0085, 0.0, 0.0, 0.0078, 8.5, 8.55)" gradientUnits="userSpaceOnUse" id="gradient1" r="819.2" spreadMethod="pad">
      <stop offset="0.3607843137254902" stop-color="#000000"/>
      <stop offset="0.6705882352941176" stop-color="#511000"/>
      <stop offset="1.0" stop-color="#743208"/>
    </radialGradient>
  </defs>
</svg>
