<svg xmlns="http://www.w3.org/2000/svg" xmlns:ffdec="https://www.free-decompiler.com/flash" xmlns:xlink="http://www.w3.org/1999/xlink" ffdec:objectType="frame" width="12.75" height="11.35"><g transform="translate(-2.3 -.9)"><use ffdec:characterId="13" xlink:href="#a" width="11.6" height="5.9" transform="translate(3.35 5.15)"/><use ffdec:characterId="3" xlink:href="#b" width="9.3" height="9.45" transform="matrix(-1 0 0 .625 13.8 5.15)"/><use ffdec:characterId="16" xlink:href="#c" width="12.75" height="7.1" transform="translate(2.3 4.05)"/></g><defs><radialGradient id="g" cx="0" cy="0" r="819.2" gradientTransform="matrix(-.0042 0 0 .0026 8.9 8.3)" gradientUnits="userSpaceOnUse" spreadMethod="pad"><stop offset=".082" stop-color="#fff" stop-opacity=".314"/><stop offset=".682" stop-color="#fff" stop-opacity="0"/></radialGradient><radialGradient id="h" cx="0" cy="0" r="819.2" gradientTransform="matrix(-.0085 0 0 .0053 9.05 6.4)" gradientUnits="userSpaceOnUse" spreadMethod="pad"><stop offset=".361"/><stop offset=".671" stop-color="#511000"/><stop offset="1" stop-color="#743208"/></radialGradient><radialGradient id="i" cx="0" cy="0" r="819.2" gradientTransform="matrix(-.0045 0 0 .0028 8.95 10.9)" gradientUnits="userSpaceOnUse" spreadMethod="pad"><stop offset=".361"/><stop offset=".671" stop-color="#511000"/><stop offset="1" stop-color="#743208"/></radialGradient><linearGradient id="d" x1="-819.2" x2="819.2" gradientTransform="matrix(.0002 .0014 .0058 -.0003 9.05 7.9)" gradientUnits="userSpaceOnUse" spreadMethod="pad"><stop offset="0" stop-color="#9a9a9a"/><stop offset=".439" stop-color="#fff"/></linearGradient><linearGradient id="f" x1="-819.2" x2="819.2" gradientTransform="matrix(0 .0046 -.0058 0 4.7 4.75)" gradientUnits="userSpaceOnUse" spreadMethod="pad"><stop offset="0" stop-color="#1c0020"/><stop offset=".639" stop-color="#b955cb"/><stop offset="1" stop-color="#ffa3a3"/></linearGradient><path id="a" fill="url(#d)" fill-rule="evenodd" d="M14 5.95q.9.4.95 1.45.1 1.05-1.1 2.25-1.15 1.15-3.9 1.4h-1.9l-2.5-.5q-1-.3-1.45-.9l-.5-1-.25-.95q-.15-.65 1.1-1.45 1.7-1.1 4.85-1.1 2.65 0 4.7.8" transform="translate(-3.35 -5.15)"/><path id="e" fill="url(#f)" fill-rule="evenodd" d="M9.3 4.75q0 1.2-.75 2.65-.6 1.1-1.65 1.9l-.8.15-3.05-.05-.7-.3-1.05-1L.55 7Q0 5.8 0 4.4q0-1.6.75-2.65Q1.95 0 4.8 0q2.65 0 3.8 1.85.7 1.2.7 2.9"/><use ffdec:characterId="2" xlink:href="#e" id="b" width="9.3" height="9.45"/><g id="c" fill-rule="evenodd"><path fill="url(#g)" d="M11.55 8.3q0 .65-.75 1.15-.8.5-1.9.5t-1.85-.5q-.8-.5-.8-1.15 0-.7.8-1.2.75-.45 1.85-.45t1.9.45q.75.5.75 1.2" transform="translate(-2.3 -4.05)"/><path fill="#fff" d="M10.4 2.6q.3 0 .5.15l.15.25-.15.25-.55.1q-.35 0-.5-.2l-.1-.25q0-.3.6-.3zM2.45 5.25q0-.25.4-.25.35 0 .35.2l-.1.2h-.5zm.8.65q-.3 0-.25-.2 0-.2.35-.2l.25.2q0 .2-.35.2"/><path fill="#fff" fill-opacity=".298" d="M9.6 4.7q.45-.1.45.15l-.4.65q-.4.4-1.2.65l-1.85.3-2.1-.35-1.1-.8-.15-.35q-.2-.7.45-.5l.6.45.65.4 1.45.3 2-.35z"/><path fill="#bf3400" fill-opacity=".4" d="m8.7.1 1.55.25 1.4.5q.95.35.95.55Q11.05.6 8.7.3L8.2.25 6.2.3 4.05.6l-1 .3-1.45.7Q.55 2.15.15 2.85l.1-.25q.6-1.05 2.3-1.85Q4.3-.1 7.75 0z"/><path fill="url(#h)" d="m10.15 4.55 2.25.5.85.35q.35.05 1.05.6l.75.65-1.9-.65-4.05-.55q-2.85 0-4.4 1-1 .7-1.15 1.45l-.15.4q-.3-.4-.3-.9v-.45l-.35-.05-.45-.1h.45q.4-.05.45-.2l.1-.2-.85-.35h1l.3-.35-.7-.15-.35-.25-.15-.1 1.3.2h.4q1.15-.6 3.4-.8z" transform="translate(-2.3 -4.05)"/><path fill="url(#i)" d="m13 10.45-.75.25-2.15.35-1.05.1L6.3 11q-1.15-.25-1.7-.85l.7.3.75.2 2.7.2z" transform="translate(-2.3 -4.05)"/></g></defs></svg>