<svg xmlns="http://www.w3.org/2000/svg" xmlns:ffdec="https://www.free-decompiler.com/flash" xmlns:xlink="http://www.w3.org/1999/xlink" ffdec:objectType="frame" width="15" height="11.75"><g transform="translate(2.95 .35)"><use ffdec:characterId="20" xlink:href="#a" width="15" height="8.05" transform="translate(-2.95 3.35)"/><use ffdec:characterId="15" xlink:href="#b" width="9.2" height="9.15" transform="matrix(1 0 0 .6831 -1 4.85)"/><use ffdec:characterId="21" xlink:href="#c" width="12" height="6.25" transform="translate(-1.75 4.85)"/></g><defs><linearGradient id="e" x1="-819.2" x2="819.2" gradientTransform="matrix(0 -.0038 -.0056 0 3.65 8)" gradientUnits="userSpaceOnUse" spreadMethod="pad"><stop offset=".153" stop-opacity=".498"/><stop offset="1" stop-opacity="0"/></linearGradient><linearGradient id="f" x1="-819.2" x2="819.2" gradientTransform="matrix(0 -.0029 -.0056 0 3.65 7.2)" gradientUnits="userSpaceOnUse" spreadMethod="pad"><stop offset=".553" stop-opacity="0"/><stop offset="1" stop-opacity=".498"/></linearGradient><g id="a"><path fill="#3a2d2b" fill-rule="evenodd" d="M1.2 3q-.6.25-1.2.65.35-.95 1.6-1.7L.05 1.9q4.1-1 8.4-1.15Q13.1.55 15 1.5l-.2.05-1 .05q1.3 1.25.9 2.5l-.6-.4q-.25 1-1.5 2l.3-.7.15-.55q.45-1.75-.6-2.45Q12 1.6 11 1.55l-.75-.05h-.05l-6.35.65-1.55.35-.05.05V2.5l-1.05.45zm8.2 4.3.65-.2-.25.2-1 .35.6.05-1.45.15.5.15-1.2-.05L4.4 7.9l-.85.1.4-.2-1.5-.15.8-.05-.55-.25-.1-.1-.1-.15.25.15 1.25.3h.25l.2.05 1.45.15h.05l2.3-.2z"/><path fill="#fff" fill-rule="evenodd" d="M1.2 3v-.05l1.05-.45v.05q-.35.65-.35 1.5l.4 1.55q.6 1.45 1.85 1.95H4l-1.25-.3-.25-.15.1.15-.05-.05Q1.1 5.6 1.2 3m9-1.5h.05l.75.05 1.4.45q1.05.7.6 2.45l-.15.55-.05.1q-.65.95-3.4 2.2l-1.15.25q2.65-1.65 2.9-3.5.15-1.3-.95-2.55"/><path fill="none" stroke="#3a2d2b" stroke-linecap="round" stroke-linejoin="round" stroke-width=".15" d="M1.75.85q2.35-.85 6-.8"/></g><g id="c" fill-rule="evenodd"><path fill="url(#e)" d="M5.3 10.95 3 11.1l-1.45-.15q-1.45-.4-2.15-2-.75-1.6-.05-3.1L.9 5.5l6.4-.65q2.65 3.1-2 6.1" transform="translate(1.75 -4.85)"/><path fill-opacity=".498" d="M6.5 3.25q0 .6-.45 1-.45.45-1.1.45t-1.1-.45q-.45-.4-.45-1 0-.65.45-1.1h.05V2.1h.05v-.05H3.9l-.1.05-3.05.45L1.1 1 2.65.65 9.05 0q1.1 1.3.95 2.55L6.1 2h-.3l.25.15q.45.45.45 1.1"/><path fill="url(#f)" d="M4.75 8.1q0 .6-.45 1-.45.45-1.1.45T2.1 9.1q-.45-.4-.45-1 0-.65.45-1.1h.05v-.05h.05V6.9h-.05l-.1.05L-1 7.4l.35-1.55L.9 5.5l6.4-.65q1.1 1.3.95 2.55l-3.9-.55h-.3L4.3 7q.45.45.45 1.1" transform="translate(1.75 -4.85)"/><path fill="#fff" d="M3.95.7q.5.2.5.75 0 .5-.5 1L2.8 3.1 1.6 3q-.5-.2-.5-.75-.1-.55.4-1 .5-.5 1.25-.6zm2.4 3.85q0-.35.3-.45l.7-.1.75.4.25.6-.3.45-.7.05q-.4-.1-.7-.4t-.3-.55"/><path fill="#fff" fill-opacity=".6" d="m5.45.95.45-.1.3.1.1.3-.25.25h-.4l-.4-.1-.05-.25q.05-.15.25-.2"/><path fill-opacity=".298" d="M11.25.5q.9.6.7 1.85-.95-.4-2-.65-5-1.25-9.2.15L0 2.1l.05-.65L1.1 1 2.65.65 9.05 0q1.6 0 2.2.5"/></g><path id="d" fill="#325903" fill-rule="evenodd" d="M9.2 3.75q-.25 2.7-2.9 5.15L4 9.15h-.05l-1.45-.2Q1.1 8.3.4 6.05q-.35-1.2-.4-2.3Q0 2.6.35 1.5L1.9.95Q6-.1 8.25 0q1.1 1.85.95 3.75"/><use ffdec:characterId="14" xlink:href="#d" id="b" width="9.2" height="9.15"/></defs></svg>