<svg xmlns="http://www.w3.org/2000/svg" xmlns:ffdec="https://www.free-decompiler.com/flash" xmlns:xlink="http://www.w3.org/1999/xlink" ffdec:objectType="frame" width="14.95" height="11.95"><use ffdec:characterId="3" xlink:href="#a" width="12.75" height="5.15" transform="translate(.3 6.45)"/><defs><g id="a"><path fill="#3a2d2b" fill-rule="evenodd" d="m1.15 4-.35.8.8-.5zl.45.3 2.1.5 4.1-.1 1.45-.45 2.25.85-1.4-1.25.3-.15.5-.3.05-.05q1.25-.75 1.75-1.9-1.05 1.4-2.6 1.3 1.4-.5 1.95-2.7-.9 1.5-2.15 2.1l-3.2 1-6.65-.6 1 .65q.1.15.05.45zm8.1.25.85-.4z"/><path fill="none" stroke="#3a2d2b" stroke-linecap="round" stroke-linejoin="round" stroke-width=".15" d="m1.6 4.3-.8.5.35-.8zl2.1.5 4.1-.1 1.45-.45 2.25.85-1.4-1.25.3-.15.5-.3.05-.05q1.25-.75 1.75-1.9-1.05 1.4-2.6 1.3 1.4-.5 1.95-2.7-.9 1.5-2.15 2.1l-3.2 1-6.65-.6 1 .65q.1.15.05.45l.05.35m8.95-.15-.85.4M1 1.35q2.05.95 4.35.75"/></g></defs></svg>