<?xml version="1.0" encoding="UTF-8" standalone="no"?>
<svg xmlns:ffdec="https://www.free-decompiler.com/flash" xmlns:xlink="http://www.w3.org/1999/xlink" ffdec:objectType="frame" height="10.15px" width="16.2px" xmlns="http://www.w3.org/2000/svg">
  <g transform="matrix(1.0, 0.0, 0.0, 1.0, 1.0, 0.0)">
    <use ffdec:characterId="2" height="8.05" transform="matrix(-1.0, 0.0, 0.0, 0.6949, 11.8, 4.35)" width="8.35" xlink:href="#sprite0"/>
    <use ffdec:characterId="4" height="7.05" transform="matrix(1.0, 0.0, 0.0, 1.0, -1.0, 2.95)" width="16.2" xlink:href="#shape1"/>
  </g>
  <defs>
    <g id="sprite0" transform="matrix(1.0, 0.0, 0.0, 1.0, 0.0, 0.0)">
      <use ffdec:characterId="1" height="8.05" transform="matrix(1.0, 0.0, 0.0, 1.0, 0.0, 0.0)" width="8.35" xlink:href="#shape0"/>
    </g>
    <g id="shape0" transform="matrix(1.0, 0.0, 0.0, 1.0, 0.0, 0.0)">
      <path d="M8.2 1.05 L6.8 1.45 6.8 1.5 6.9 1.95 7.5 2.3 7.75 2.7 7.65 3.2 7.8 3.65 7.3 5.25 Q7.2 5.0 6.9 5.05 6.75 4.65 5.95 4.75 L5.65 4.8 5.65 4.9 4.9 5.4 4.9 5.5 5.2 6.1 5.35 6.3 5.3 6.55 5.4 6.85 5.7 7.15 5.4 7.35 4.3 7.7 3.2 7.4 2.95 7.1 2.85 7.05 2.4 7.3 Q1.65 7.3 0.85 5.3 L0.9 4.8 0.85 4.6 Q0.55 4.5 0.45 3.1 L0.5 2.75 0.5 2.7 0.5 2.55 0.05 2.2 0.0 2.05 0.05 1.85 0.1 1.7 Q0.45 1.1 1.85 0.7 L2.35 0.6 2.45 0.55 5.5 0.15 7.45 0.0 8.2 1.05" fill="url(#gradient0)" fill-rule="evenodd" stroke="none"/>
      <path d="M0.05 2.2 L0.5 2.55 0.5 2.7 0.5 2.75 0.45 3.1 Q0.55 4.5 0.85 4.6 L0.9 4.8 0.85 5.3 Q1.65 7.3 2.4 7.3 L2.85 7.05 2.95 7.1 3.2 7.4 4.3 7.7 5.4 7.35 5.7 7.15 5.4 6.85 5.3 6.55 5.35 6.3 5.2 6.1 4.9 5.5 4.9 5.4 5.65 4.9 5.65 4.8 5.95 4.75 Q6.75 4.65 6.9 5.05 7.2 5.0 7.3 5.25 L7.8 3.65 7.65 3.2 7.75 2.7 7.5 2.3 6.9 1.95 6.8 1.5 6.8 1.45 8.2 1.05 Q8.5 2.5 8.2 3.65 L7.4 5.7 7.4 5.75 7.55 5.95 7.4 6.2 7.0 6.45 6.85 6.6 Q6.7 7.35 5.85 7.7 L4.0 8.05 3.1 7.9 3.15 7.8 Q1.7 7.55 0.85 5.95 0.1 4.6 0.05 2.85 L0.05 2.2 M0.1 1.7 L0.05 1.85 0.05 1.7 0.1 1.7" fill="url(#gradient1)" fill-rule="evenodd" stroke="none"/>
      <path d="M2.35 0.6 L1.85 0.7 Q0.45 1.1 0.1 1.7 L0.05 1.7 0.25 1.0 2.35 0.6" fill="url(#gradient2)" fill-rule="evenodd" stroke="none"/>
    </g>
    <linearGradient gradientTransform="matrix(0.0, 0.0047, 0.0047, 0.0, 6.35, 3.65)" gradientUnits="userSpaceOnUse" id="gradient0" spreadMethod="pad" x1="-819.2" x2="819.2">
      <stop offset="0.0" stop-color="#7e7e7e"/>
      <stop offset="1.0" stop-color="#151515"/>
    </linearGradient>
    <linearGradient gradientTransform="matrix(0.0, 0.0047, 0.0047, 0.0, 3.95, 3.6)" gradientUnits="userSpaceOnUse" id="gradient1" spreadMethod="pad" x1="-819.2" x2="819.2">
      <stop offset="0.0" stop-color="#7e7e7e"/>
      <stop offset="1.0" stop-color="#151515"/>
    </linearGradient>
    <linearGradient gradientTransform="matrix(0.0, 0.0047, 0.0047, 0.0, 1.7, 3.6)" gradientUnits="userSpaceOnUse" id="gradient2" spreadMethod="pad" x1="-819.2" x2="819.2">
      <stop offset="0.0" stop-color="#7e7e7e"/>
      <stop offset="1.0" stop-color="#151515"/>
    </linearGradient>
    <g id="shape1" transform="matrix(1.0, 0.0, 0.0, 1.0, 1.0, -2.95)">
      <path d="M10.9 8.55 L10.95 8.45 11.45 7.55 11.75 6.3 11.75 5.5 11.55 5.05 13.6 5.55 13.05 7.2 12.85 7.55 Q12.05 8.9 11.15 9.35 L8.65 9.75 Q9.8 9.6 10.6 8.9 L10.9 8.55 M8.85 8.75 L8.65 9.1 8.55 9.15 7.9 9.3 7.75 9.3 Q7.05 9.25 7.0 8.8 L7.0 8.7 7.05 8.75 7.0 8.65 7.2 8.4 7.25 8.35 7.3 8.35 7.45 8.25 7.6 8.25 7.85 8.15 7.95 8.15 8.55 8.3 8.6 8.35 8.6 8.4 8.65 8.35 8.75 8.45 8.8 8.5 8.75 8.55 8.75 8.6 8.85 8.75 M6.2 6.75 L5.8 6.75 Q5.0 6.75 4.65 6.2 L4.45 5.8 4.6 5.45 Q5.15 4.9 6.0 4.9 L6.6 5.05 7.0 5.2 7.15 5.35 7.4 5.85 7.35 6.05 6.85 6.55 6.75 6.6 6.2 6.75 M1.05 5.1 L1.05 5.05 1.15 5.25 1.05 5.1 M1.35 4.35 L4.35 4.35 Q4.0 4.75 3.8 5.3 3.65 5.85 3.8 6.8 L3.95 7.55 4.35 8.25 4.9 8.9 4.95 8.95 6.15 9.55 4.65 9.3 4.55 9.25 3.15 8.6 2.85 8.4 Q1.5 6.95 1.35 5.3 L1.35 4.35" fill="#ffffff" fill-rule="evenodd" stroke="none"/>
      <path d="M10.9 8.55 L10.6 8.9 10.55 8.9 9.75 9.05 9.5 9.05 8.85 8.75 8.75 8.6 8.75 8.55 8.8 8.5 8.85 8.35 8.75 8.45 Q8.75 8.25 9.1 8.0 L9.3 7.85 9.85 7.7 10.65 7.95 10.95 8.35 10.9 8.55" fill="#ffffff" fill-opacity="0.49803922" fill-rule="evenodd" stroke="none"/>
      <path d="M7.0 8.8 L6.8 8.6 6.45 7.95 6.3 7.55 6.2 6.75 6.75 6.6 6.85 6.55 7.35 6.05 7.4 5.85 7.15 5.35 7.0 5.2 6.6 5.05 6.95 4.5 8.45 4.6 8.8 5.25 9.05 6.45 8.95 6.2 9.05 7.0 Q9.05 7.35 9.0 7.05 L9.0 7.1 8.95 7.4 8.75 8.15 8.65 8.35 8.6 8.4 8.6 8.35 8.55 8.3 7.95 8.15 7.85 8.15 7.6 8.25 7.45 8.25 7.3 8.35 7.25 8.35 7.2 8.4 6.95 8.45 7.0 8.7 7.0 8.65 7.05 8.75 7.0 8.7 7.0 8.8" fill="#000000" fill-opacity="0.4" fill-rule="evenodd" stroke="none"/>
      <path d="M13.8 3.65 L12.05 3.15 10.2 3.0 Q15.3 2.7 15.2 4.8 14.95 4.1 13.8 3.65" fill="url(#gradient3)" fill-rule="evenodd" stroke="none"/>
      <path d="M3.8 4.25 L4.85 4.25 6.1 4.15 4.8 4.15 3.8 4.25 M7.2 4.35 L7.05 4.3 6.9 4.3 7.2 4.35 M11.35 4.5 L13.2 5.1 Q13.8 5.3 13.45 6.45 13.15 7.6 13.05 6.9 12.65 6.4 11.45 5.85 L7.7 5.15 6.05 5.15 1.95 5.75 1.3 5.95 1.05 5.3 0.75 4.55 0.85 4.15 Q1.25 3.8 2.7 3.7 L6.1 3.45 7.6 3.8 11.35 4.5" fill="#000000" fill-opacity="0.29803923" fill-rule="evenodd" stroke="none"/>
      <path d="M14.1 5.9 L14.0 5.95 13.9 5.85 13.85 5.8 13.75 5.75 13.55 5.65 13.5 5.65 11.5 5.15 8.45 4.7 8.4 4.7 4.3 4.45 1.45 4.45 1.45 5.3 1.4 5.25 1.45 5.95 Q1.75 7.2 2.85 8.4 0.8 7.05 0.7 4.85 L0.65 4.75 0.6 4.7 0.55 4.65 Q-0.15 4.85 -0.6 5.3 L-0.65 5.4 -0.75 5.4 -0.8 5.35 -0.85 5.3 Q-0.85 4.0 0.8 3.6 L-1.0 3.1 2.5 3.45 5.25 3.45 5.95 3.45 7.15 3.55 10.1 3.7 12.65 4.25 Q14.45 5.3 14.15 5.85 L14.1 5.9 M5.0 9.5 L4.55 9.25 4.65 9.3 6.15 9.55 8.2 9.8 8.55 9.8 10.35 9.7 8.95 9.95 8.55 9.95 7.0 9.9 6.95 9.9 6.8 9.9 5.0 9.5" fill="#3c312f" fill-rule="evenodd" stroke="none"/>
      <path d="M4.65 9.3 L6.15 9.55 M10.35 9.7 L8.95 9.95 8.55 9.95 7.0 9.9 6.95 9.9 6.8 9.9 5.0 9.5" fill="none" stroke="#3c312f" stroke-linecap="round" stroke-linejoin="round" stroke-width="0.15000000000000002"/>
    </g>
    <radialGradient cx="0" cy="0" gradientTransform="matrix(-0.0014, 0.0019, -0.0027, -0.001, 12.8, 3.0)" gradientUnits="userSpaceOnUse" id="gradient3" r="819.2" spreadMethod="pad">
      <stop offset="0.0" stop-color="#3e3023"/>
      <stop offset="1.0" stop-color="#33271f"/>
    </radialGradient>
  </defs>
</svg>
