<svg xmlns="http://www.w3.org/2000/svg" xmlns:ffdec="https://www.free-decompiler.com/flash" xmlns:xlink="http://www.w3.org/1999/xlink" ffdec:objectType="frame" width="16.2" height="10.15"><use ffdec:characterId="5" xlink:href="#a" width="11.95" height="4.6" transform="translate(3.6 4.35)"/><defs><g id="a"><path fill="#3a2d2b" fill-rule="evenodd" d="m10.6 3.7.35-.35zl-1.95.6-3.8.15L3.4 4.1l-.8-.35-.25-.15-.5-.25-.05-.05Q.55 2.65.05 1.5l.65.4.5.05q-.25-.05-.45-.8L.6.05q1.15 1.8 2.5 2.35 1.3.6 3.1.8 2.65.4 5.7-1.35l-.9.7V3l-.05.35.5 1z"/><path fill="none" stroke="#3a2d2b" stroke-linecap="round" stroke-linejoin="round" stroke-width=".15" d="m10.95 3.35-.35.35.85.65zL11 3v-.45l.9-.7Q8.85 3.6 6.2 3.2 4.4 3 3.1 2.4 1.75 1.85.6.05l.15 1.1q.2.75.45.8L.7 1.9l-.65-.4q.5 1.15 1.75 1.8l.05.05.5.25.25.15.8.35 1.45.35 3.8-.15 1.95-.6m.4-3q-1.85 1.1-4.05 1"/></g></defs></svg>