<?xml version="1.0" encoding="UTF-8" standalone="no"?>
<svg xmlns:ffdec="https://www.free-decompiler.com/flash" xmlns:xlink="http://www.w3.org/1999/xlink" ffdec:objectType="frame" height="10.75px" width="13.15px" xmlns="http://www.w3.org/2000/svg">
  <g transform="matrix(1.0, 0.0, 0.0, 1.0, -2.6, 0.15)">
    <use ffdec:characterId="5" height="10.75" transform="matrix(1.0, 0.0, 0.0, 1.0, 2.6, -0.15)" width="12.45" xlink:href="#shape0"/>
  </g>
  <defs>
    <g id="shape0" transform="matrix(1.0, 0.0, 0.0, 1.0, -2.6, 0.15)">
      <path d="M14.75 5.5 Q14.75 7.35 13.25 8.9 11.65 10.6 9.4 10.6 L8.8 10.55 Q6.65 10.45 5.5 8.5 4.7 7.15 4.45 6.2 L4.2 4.95 4.4 3.95 4.5 3.6 5.0 2.55 Q5.9 1.15 9.65 0.8 11.55 1.25 12.9 2.5 L14.65 4.75 14.7 4.75 14.7 4.8 14.75 5.5" fill="#ffffff" fill-rule="evenodd" stroke="none"/>
      <path d="M9.9 1.65 Q12.05 1.95 12.65 3.1 13.35 4.2 13.4 5.85 13.45 7.45 12.4 8.95 11.4 10.4 9.35 10.35 7.4 10.3 6.65 8.75 5.9 7.2 6.0 5.7 6.15 4.15 7.0 2.95 7.9 1.7 9.9 1.65" fill="url(#gradient0)" fill-rule="evenodd" stroke="none"/>
      <path d="M11.9 5.35 L12.0 6.1 11.95 6.55 11.7 6.3 11.9 5.35 M11.55 6.75 L11.9 7.0 11.7 7.75 11.4 7.35 11.3 7.25 11.55 6.8 11.55 6.75 M10.6 8.1 L11.15 7.55 11.5 8.1 11.0 8.7 10.6 8.1 M10.65 8.95 L9.9 9.2 9.9 8.6 9.85 8.4 10.3 8.3 10.5 8.65 10.65 8.95 M7.2 5.8 L7.95 4.85 Q7.7 5.1 7.6 5.75 L7.2 5.8 M7.6 6.8 L7.15 7.0 7.05 7.05 7.05 6.25 7.6 6.1 7.6 6.45 7.6 6.8 M8.6 9.05 L7.75 8.55 7.85 8.45 8.2 8.1 8.75 8.35 8.6 9.05 M7.6 8.15 L7.5 8.25 7.3 7.9 7.15 7.35 7.65 7.15 7.95 7.8 7.6 8.15 M9.05 8.45 L9.45 8.45 9.5 9.25 9.15 9.2 8.9 9.15 9.05 8.45" fill="#2e1400" fill-opacity="0.9529412" fill-rule="evenodd" stroke="none"/>
      <path d="M12.7 9.25 L12.5 9.2 11.65 9.4 10.65 9.1 Q10.2 8.65 10.25 8.1 10.25 7.5 10.9 7.05 11.5 6.55 12.15 6.9 L12.9 7.65 12.85 8.6 12.7 9.25" fill="#ffffff" fill-rule="evenodd" stroke="none"/>
      <path d="M13.25 3.0 L14.65 4.7 14.7 4.75 14.85 5.5 Q14.85 6.25 14.45 6.85 14.25 6.25 13.3 5.5 L12.2 4.7 Q10.65 3.95 8.7 4.0 6.75 4.05 5.75 4.85 4.75 5.65 4.55 6.2 L4.35 5.75 4.05 5.25 4.05 4.6 Q4.05 3.0 5.45 2.0 6.8 1.05 9.0 1.05 11.2 1.05 13.25 3.0" fill="#000000" fill-opacity="0.3254902" fill-rule="evenodd" stroke="none"/>
      <path d="M14.05 3.5 L14.9 5.65 Q14.05 4.3 12.9 3.25 11.05 1.7 8.45 1.6 6.25 1.9 5.2 3.25 4.4 4.3 4.5 6.25 3.15 3.7 3.65 3.55 L3.05 3.3 2.6 2.9 2.8 2.85 3.35 2.9 3.9 2.85 4.35 2.3 4.0 2.3 3.4 2.0 3.0 1.35 Q3.6 1.85 4.25 1.85 L4.85 1.8 5.05 1.7 5.45 1.4 5.4 1.4 Q4.65 1.1 4.65 0.8 L5.95 0.95 6.35 0.9 6.45 0.9 6.6 0.85 7.05 0.75 6.95 0.75 9.4 0.45 11.5 0.75 Q12.15 0.85 13.4 1.7 14.7 2.5 15.05 3.9 L15.05 3.95 13.45 2.65 14.05 3.5 M13.25 0.55 L14.5 1.8 14.7 2.15 Q14.05 1.35 12.85 0.75 11.6 0.15 9.05 -0.05 L8.15 0.05 9.5 -0.15 Q12.25 -0.25 13.25 0.55" fill="#000000" fill-rule="evenodd" stroke="none"/>
    </g>
    <radialGradient cx="0" cy="0" gradientTransform="matrix(-0.0061, 0.0, 0.0, 0.0061, 9.7, 6.0)" gradientUnits="userSpaceOnUse" id="gradient0" r="819.2" spreadMethod="pad">
      <stop offset="0.0" stop-color="#3c1000"/>
      <stop offset="0.7686274509803922" stop-color="#543200" stop-opacity="0.9882353"/>
    </radialGradient>
  </defs>
</svg>
