<svg xmlns="http://www.w3.org/2000/svg" xmlns:ffdec="https://www.free-decompiler.com/flash" xmlns:xlink="http://www.w3.org/1999/xlink" ffdec:objectType="frame" width="14.95" height="11.95"><use ffdec:characterId="7" xlink:href="#a" width="14.95" height="11.95"/><defs><linearGradient id="b" x1="-819.2" x2="819.2" gradientTransform="matrix(-.0002 .0066 .0066 .0002 8.85 6.5)" gradientUnits="userSpaceOnUse" spreadMethod="pad"><stop offset="0" stop-color="#210202"/><stop offset=".682" stop-color="#c90063"/></linearGradient><g id="a" fill-rule="evenodd"><path fill="#fff" d="M12.05 3.3q1.55.9 2.25 2.05l.15.2-.2 2.55q-.35 1.75-1.5 2.65v.05l-.9.55q-.55.25-.75.4l-.3-.05-.5.1-1.1.1-.25-.15-2.45-.4-.25-.1v.05l-.5-.2q-1.1-.45-2.05-1.35V9.6l-.05-.05-.6-2.05-.25-3.2q.1-1.4 1.65-2.05 1.35-.6 3.2-.35 2.5.3 4.35 1.4z"/><path fill="url(#b)" d="M12.95 9.8q-.75 1.9-2.55 2.05-4.1.35-5.3-2.7-1.25-3.1-.65-5.2.55-2.05 2.7-2.6 2.6-.7 4.3.6 1.8 1.35 1.95 4.4.15 2-.45 3.45" transform="translate(0 -.4)"/><path fill="#fff" fill-opacity=".251" d="M11.65 5.5h.85q.1 2.6-.6 3.6l-.3.5q-.95.9-2.4.9-1.4 0-2.35-1.35Q6 7.9 5.9 5.75l.7-.05v.5Q6.65 7.4 7 8l.65.75.95.4H9q1.6-.2 2.05-.85l.4-.85.2-.55.05-1.1z"/><path fill-opacity=".988" d="M8.95 2.7q.3-.4.6.8l.2 1.65.05.65v1.1L9.7 8l-.2.85v.1l-.15.25-.15.15L9 9.3l-.25-.5-.2-.95-.1-1.65v-.5l.2-2.1z"/><path fill="#fff" d="M6.45 3.95q0-.5.5-.9.45-.4 1.05-.4t1 .55q.4.25.35.9 0 .5-.55.9l-1.05.35-.65-.2q-.7-.45-.65-1.2"/><path fill="#fff" fill-opacity=".4" d="m11.4 8.35.65.65.15.55q-.05.7-.6 1.2-.55.45-1.2.4-1-.05-1.4-.95l-.1-.6.05-.2.05-.35q.45-1 1.55-1 .5 0 .85.3"/><path fill-opacity=".251" d="M14.45 6.5q-.8-1.75-2.55-2.7-1.7-.9-3.7-.75h-.8q-2 .3-3.35 1.3Q3.3 4.9 2.2 6.2q-.15-.2-.15-.75Q2.05.95 7 .95l1.5.15q2.65.75 4.25 1.85 1.8 1.25 1.8 2.75z"/><path fill="#3a2d2b" d="M14.3 2.6q-1-1.2-3.15-1.8L9.8.45q1.1.35 2.05.95 2.75 1.65 3.05 4.5v.05l.05.5-.1-.1-.1-.3-.1-.05-.2-.45-.15-.2q-.7-1.15-2.25-2.05H12q-1.85-1.1-4.35-1.4-1.85-.25-3.2.35Q2.9 2.9 2.8 4.3l.25 3.2.6 2.05.05.05v.05q-.6-.3-1.4-1.7t-1-3.35q-.7.2-1.15.65l-.1.05H0l.55-1.5q.4-1.05 1.75-2.15l.15-.1.25-.2-.3.05-.8.2h-.3l-.5.15q-.35.15.1-.1l.45-.3Q3.15.25 5.65.1h.05L6.8 0l.9.05h.1Q9.35-.1 11.2.5q1.85.55 3.15 1.95l.2.2-.1-.05-.05.05zm-1.7 8.5-.3.2q-.65.65-2.7.65l-2.75-.35-.75-.35.8.2 1.4.2H10l1.7-.25.7-.25-.05.05z"/></g></defs></svg>