<?xml version="1.0" encoding="UTF-8" standalone="no"?>
<svg xmlns:ffdec="https://www.free-decompiler.com/flash" xmlns:xlink="http://www.w3.org/1999/xlink" ffdec:objectType="frame" height="12.45px" width="12.35px" xmlns="http://www.w3.org/2000/svg">
  <g transform="matrix(1.0, 0.0, 0.0, 1.0, 3.05, 1.0)">
    <use ffdec:characterId="14" height="2.85" transform="matrix(1.0, 0.0, 0.0, 1.0, -2.85, 6.25)" width="12.15" xlink:href="#shape0"/>
  </g>
  <defs>
    <g id="shape0" transform="matrix(1.0, 0.0, 0.0, 1.0, 2.85, -6.25)">
      <path d="M0.45 8.8 L-1.3 8.15 -2.75 7.25 -2.85 7.15 -2.75 7.2 Q-1.15 7.75 1.35 7.9 3.85 8.05 5.0 7.85 L6.9 7.35 8.75 6.25 8.1 7.0 9.3 7.15 7.9 7.4 7.65 7.4 7.4 7.6 8.4 7.65 7.95 7.9 7.35 8.0 6.85 7.95 6.6 8.1 7.25 8.2 7.55 8.2 7.1 8.45 6.6 8.55 6.45 8.55 5.9 8.5 6.45 8.6 6.0 8.55 Q4.1 9.2 2.75 9.1 L0.45 8.8" fill="#000000" fill-rule="evenodd" stroke="none"/>
      <path d="M1.3 7.35 L1.05 7.3 -2.6 6.7 -2.6 6.65 -2.35 6.65 2.0 6.95 7.4 6.4 6.2 6.85 3.65 7.35 1.3 7.35" fill="#8b6941" fill-rule="evenodd" stroke="none"/>
    </g>
  </defs>
</svg>
