<svg xmlns="http://www.w3.org/2000/svg" xmlns:ffdec="https://www.free-decompiler.com/flash" xmlns:xlink="http://www.w3.org/1999/xlink" ffdec:objectType="frame" width="13.95" height="12.2"><g transform="translate(-1.35 .65)"><use ffdec:characterId="1" xlink:href="#a" width="10.8" height="9.25" transform="translate(3.95 2)"/><use ffdec:characterId="3" xlink:href="#b" width="8.1" height="9.85" transform="matrix(-1 0 0 1 13.3 1.4)"/><use ffdec:characterId="4" xlink:href="#c" width="13.6" height="12.2" transform="translate(1.35 -.65)"/></g><defs><g id="a" fill-rule="evenodd"><path fill="#fff" d="m8.15.6.9-.05q.95.35 1.45 1.9.5 1.35.1 3l-.1.45q-.4 1.5-1 2.1l-.3.25-1.65.8-3.1.2h-.1q-2.05-.1-3-1.25l-.1-.15Q.35 6.5.1 5.25-.1 3.95.05 3.3t.9-1.2q.7-.55 1-.55l.35.1v.55Q2 2.7 2 4q0 1.15.3 1.85.6 1.3 2.05 1.6l.85.05q2.35 0 3.2-2.05l.05-.15.3-2.45z"/><path fill="#c26a00" d="m8.65.1.2.3.2.9L8.3 0z"/></g><g id="c" fill-rule="evenodd"><path fill="url(#e)" d="M12.85 4.8q1.4 1 1.45 2.5.05 1.55-1.25 2.7-1.4 1.15-3.35 1.25t-3.35-1L6 10q-1.1-.95-1.15-2.25Q4.8 6.2 6.15 5.1q1.4-1.05 3.35-1.15 1.95-.15 3.35.85" transform="translate(-1.35 .65)"/><path fill="url(#f)" d="M9.3 3.25q1.15 0 2 1 .8.95.8 2.3 0 1.4-.8 2.35-.85.95-2 .95-1.2 0-2-.95-.85-.95-.85-2.35 0-1.35.85-2.3.8-1 2-1" transform="translate(-1.35 .65)"/><path fill-opacity=".086" d="M6.55 7.35q0-.65.45-1.05.4-.4.95-.4t.9.4q.3.4.25 1t-.4 1q-.3.4-.9.4-.55 0-.85-.4-.35-.35-.4-.95"/><path fill-opacity=".212" d="M13.35 7.15q-5-2.6-10.55 1.5L2.55 6.6q1-3.35 5.4-4.25l.35-.3q3.7-.7 5 3.4z"/><path fill="#513624" d="m11.55 11.3-1.35.65-.9.15-1.35.1-1.25-.1-.6-.1-.25-.05-.55-.2-.9-.4-.6-.35-.05-.1 1.65.65 1.7.2h1.2l1.1-.1.6-.15 2-.5-.4.25-.1.05zm.1-9.45 1.2.85q.6.5.65 1.2l.1.8-.15-.05-.6-.55.6 1.4.05.55-1.35-1.5q-1.35-1.5-2.7-1.5-3.4 0-5.7 2.65l-.5.75v.05l-.35.75v.4L3.1 9l.1.45q-.25 0-1.15-1.8l-.2.1-.7.05-.9-.4q1.15-.15 1.45-.5l-.05-.1-.7-.2-.1-.05-.3-.2-.55-.5.5.15h.15l1.15-.15.1-.1.15-.15-1-.25-.8-.4 1 .1L2.6 4.8l.35-.15L3 4.6l-1.25-.85.85.05.55.05.35-.05h.05l.3-.05 1.35-.9-.15.05 1.8-.85q1.6-.6 3.25-.6.9 0 1.55.4"/><path fill-opacity=".298" d="m9.65 0 .95.1-.05-.1.3.1 1.05.65q.65.45 1.15 1l-.45-.25-.9-.45q-.65-.35-1.6-.4L9 .7q-1.6.15-3.1.9l-.9.45-.1.05.05-.1q.6-.7 1.75-1.25L8.35.1z"/><path fill="#fff" d="M9.35 9.05q.8-.75 1.45.1.6.8.15 1.2l-.5.3-.35.05-.25-.05-.35-.25q-.5-.55-.35-1zm1.35-.8q0-.35.4-.3.35.05.35.4l-.3.3-.35-.1zm-4.6-1.6q-.55 0-.55-.45 0-.4.5-.45.45-.05.45.5 0 .4-.4.4m-1.45 3q-.1-.4.95-.55.8 0 .8.45l-.35.6-.2.2-.25.15h-.25l-.5-.3zm3.6.85q-.3 0-.3-.35-.05-.4.35-.35t.4.35l-.1.3zm-1.4 0-.05-.2.25-.2.25.25-.25.2z"/></g><radialGradient id="f" cx="0" cy="0" r="819.2" gradientTransform="matrix(-.004 0 0 .004 9.25 6.55)" gradientUnits="userSpaceOnUse" spreadMethod="pad"><stop offset=".169" stop-opacity=".333"/><stop offset=".847" stop-opacity="0"/></radialGradient><linearGradient id="e" x1="-819.2" x2="819.2" gradientTransform="matrix(-.0001 -.0045 -.0058 .0002 9.6 7.6)" gradientUnits="userSpaceOnUse" spreadMethod="pad"><stop offset=".09" stop-color="#fff" stop-opacity=".671"/><stop offset=".635" stop-color="#fff" stop-opacity="0"/></linearGradient><path id="d" fill="#695755" fill-rule="evenodd" d="m7.75 1.6.2.35L8.1 5v.15l-.05.4-.75 2.3q-1.2 2.05-4.15 2l-.2-.05Q-.45 8.1.1 3.25l.4-1.2.8-1.2.85-.7.8-.05L4.8.75q.5 0 1.05.5.5.5.9.5L7 1.8l.05-.1q.1-.15.35-.2z"/><use ffdec:characterId="2" xlink:href="#d" id="b" width="8.1" height="9.85"/></defs></svg>