<?xml version="1.0" encoding="UTF-8" standalone="no"?>
<svg xmlns:ffdec="https://www.free-decompiler.com/flash" xmlns:xlink="http://www.w3.org/1999/xlink" ffdec:objectType="frame" height="12.95px" width="21.45px" xmlns="http://www.w3.org/2000/svg">
  <g transform="matrix(1.0, 0.0, 0.0, 1.0, 3.9, 2.35)">
    <use ffdec:characterId="1" height="10.85" transform="matrix(1.0, 0.0, 0.0, 1.0, -2.2, -0.95)" width="14.55" xlink:href="#shape0"/>
    <use ffdec:characterId="3" height="9.4" transform="matrix(0.9999, 0.0, 0.0, 1.1984, 0.3999, -1.3738)" width="9.85" xlink:href="#sprite0"/>
    <use ffdec:characterId="4" height="12.85" transform="matrix(1.0, 0.0, 0.0, 1.0, -3.9, -2.35)" width="21.45" xlink:href="#shape2"/>
  </g>
  <defs>
    <g id="shape0" transform="matrix(1.0, 0.0, 0.0, 1.0, 2.2, 0.95)">
      <path d="M5.0 -0.4 L7.45 -0.95 Q8.95 -0.95 10.3 -0.1 L11.4 0.9 12.1 2.1 Q12.6 2.75 12.05 4.45 11.45 6.1 9.35 8.1 7.2 10.05 3.55 9.9 -0.15 9.65 -1.3 6.6 -2.45 3.55 -2.1 3.15 L-1.25 2.4 -0.4 1.5 0.0 1.25 0.4 1.2 0.0 1.2 Q0.3 0.95 0.7 0.9 L2.3 0.5 Q3.25 0.0 5.0 -0.4" fill="#ffffff" fill-rule="evenodd" stroke="none"/>
    </g>
    <g id="sprite0" transform="matrix(1.0, 0.0, 0.0, 1.0, -1.3, -2.4)">
      <use ffdec:characterId="2" height="9.4" transform="matrix(1.0, 0.0, 0.0, 1.0, 1.3, 2.4)" width="9.85" xlink:href="#shape1"/>
    </g>
    <g id="shape1" transform="matrix(1.0, 0.0, 0.0, 1.0, -1.3, -2.4)">
      <path d="M11.0 5.0 L10.85 7.25 Q10.5 9.1 9.5 10.25 8.2 11.75 6.1 11.75 3.2 12.1 2.1 9.85 1.0 7.55 1.45 4.7 L1.45 4.55 1.55 4.25 Q3.6 1.7 11.15 2.65 L10.9 2.7 10.9 2.75 Q10.8 3.5 11.0 5.0" fill="url(#gradient0)" fill-rule="evenodd" stroke="none"/>
      <path d="M10.35 5.6 L10.25 2.6 10.8 2.7 10.9 4.35 10.75 7.8 10.35 9.0 Q9.8 10.2 8.4 11.0 9.7 10.05 10.05 8.85 10.35 7.8 10.35 5.6 M1.4 5.05 L1.45 4.45 2.2 3.95 Q1.85 4.2 1.85 6.5 1.85 8.85 2.8 10.25 3.35 11.15 4.15 11.55 L2.85 10.95 2.65 10.75 2.5 10.55 1.5 8.25 1.4 5.05" fill="#330505" fill-rule="evenodd" stroke="none"/>
      <path d="M7.3 5.1 Q7.95 5.65 7.95 6.45 7.95 7.25 7.3 7.75 6.65 8.3 5.7 8.3 4.75 8.3 4.1 7.75 3.45 7.25 3.45 6.45 3.45 5.65 4.1 5.1 4.75 4.55 5.7 4.55 6.65 4.55 7.3 5.1" fill="#140533" fill-rule="evenodd" stroke="none"/>
      <path d="M4.3 9.6 L3.0 7.95 Q4.25 9.0 5.4 9.25 L7.2 9.15 8.4 8.2 Q8.9 7.65 9.2 6.3 L9.1 5.4 9.45 6.7 Q9.45 8.3 8.3 9.4 7.1 10.45 6.05 10.3 4.95 10.15 4.3 9.6" fill="#070985" fill-rule="evenodd" stroke="none"/>
    </g>
    <linearGradient gradientTransform="matrix(0.0, -0.004, 0.005, 1.0E-4, 6.6, 7.4)" gradientUnits="userSpaceOnUse" id="gradient0" spreadMethod="pad" x1="-819.2" x2="819.2">
      <stop offset="0.0" stop-color="#82bfde"/>
      <stop offset="0.30196078431372547" stop-color="#009dec"/>
      <stop offset="1.0" stop-color="#000033"/>
    </linearGradient>
    <g id="shape2" transform="matrix(1.0, 0.0, 0.0, 1.0, 3.9, 2.35)">
      <path d="M7.55 -1.45 Q9.9 -1.45 11.15 -0.4 12.2 0.5 12.2 2.0 L11.65 5.1 Q11.5 4.35 9.75 3.5 7.5 2.4 4.35 2.4 0.85 2.4 -2.05 3.15 L-1.95 3.05 Q-0.55 1.55 0.85 0.55 3.6 -1.45 7.55 -1.45" fill="#000000" fill-opacity="0.29803923" fill-rule="evenodd" stroke="none"/>
      <path d="M-0.3 0.95 L-0.05 0.65 Q1.95 -1.25 4.75 -1.7 L9.3 -1.8 11.45 -1.25 11.9 -1.2 12.9 -1.2 16.0 -1.6 16.1 -1.6 17.3 -2.2 Q18.15 -2.8 16.2 -1.3 14.65 -0.05 13.9 0.1 L13.3 0.3 13.55 0.6 14.1 1.3 14.2 1.45 15.1 2.25 15.95 2.75 15.2 2.85 13.85 2.65 13.1 2.4 12.55 3.7 11.6 5.25 11.75 4.75 11.95 3.15 11.65 1.2 11.65 1.15 11.5 1.1 11.45 0.8 Q11.2 0.25 10.3 -0.2 8.55 -1.0 7.45 -1.0 2.3 -1.0 -0.3 0.95" fill="#000000" fill-rule="evenodd" stroke="none"/>
      <path d="M11.5 1.1 Q10.2 0.25 7.55 -0.25 4.75 -0.7 1.3 0.85 -1.25 1.95 -2.1 3.1 L-0.3 0.95 Q2.3 -1.0 7.45 -1.0 8.55 -1.0 10.3 -0.2 11.2 0.25 11.45 0.8 L11.5 1.1" fill="#690e0e" fill-rule="evenodd" stroke="none"/>
      <path d="M4.2 9.9 L6.5 9.5 7.6 9.05 8.1 8.85 9.7 7.95 8.85 8.85 9.7 9.6 9.7 9.65 8.7 9.35 8.2 9.3 7.6 9.6 7.4 9.7 8.1 10.45 8.1 10.5 7.2 10.1 6.65 9.9 6.25 10.0 5.3 10.15 5.35 10.45 Q4.8 10.15 3.95 9.95 L3.8 9.95 4.2 9.9" fill="#830000" fill-rule="evenodd" stroke="none"/>
      <path d="M-2.85 -0.3 L0.15 -1.65 Q-2.25 -0.2 -2.6 0.65 -3.05 1.9 -3.45 1.8 L-3.75 1.35 -3.85 0.65 Q-3.75 0.2 -2.85 -0.3" fill="#d7b790" fill-rule="evenodd" stroke="none"/>
      <path d="M8.85 1.15 L8.45 1.2 7.4 2.0 6.05 2.7 Q5.6 2.75 5.3 2.45 5.05 2.05 5.7 1.15 6.3 0.35 7.0 0.5 L7.5 0.55 8.85 1.15 M7.8 2.9 L7.75 2.7 7.9 2.3 8.05 2.2 8.25 2.15 Q8.75 2.15 8.75 2.55 8.75 3.1 8.25 3.1 7.9 3.1 7.8 2.9" fill="#ffffff" fill-rule="evenodd" stroke="none"/>
      <path d="M3.85 9.25 Q3.0 9.75 2.1 9.55 1.3 9.4 1.05 8.8 0.7 8.2 1.1 7.45 1.5 6.75 2.4 6.25 L4.0 6.05 Q4.85 6.2 5.2 6.8 5.45 7.4 5.0 8.15 4.7 8.85 3.85 9.25" fill="url(#gradient1)" fill-rule="evenodd" stroke="none"/>
    </g>
    <radialGradient cx="0" cy="0" gradientTransform="matrix(0.0025, -0.0021, 0.002, 0.002, 3.1, 7.8)" gradientUnits="userSpaceOnUse" id="gradient1" r="819.2" spreadMethod="pad">
      <stop offset="0.5019607843137255" stop-color="#ffffff"/>
      <stop offset="0.8941176470588236" stop-color="#ffffff" stop-opacity="0.0"/>
    </radialGradient>
  </defs>
</svg>
