<svg xmlns="http://www.w3.org/2000/svg" xmlns:ffdec="https://www.free-decompiler.com/flash" xmlns:xlink="http://www.w3.org/1999/xlink" ffdec:objectType="frame" width="21.45" height="12.95"><g transform="translate(3.9 2.35)"><use ffdec:characterId="1" xlink:href="#a" width="14.55" height="10.85" transform="translate(-2.2 -.95)"/><use ffdec:characterId="3" xlink:href="#b" width="9.85" height="9.4" transform="matrix(.9999 0 0 1.1984 .4 -1.374)"/><use ffdec:characterId="4" xlink:href="#c" width="21.45" height="12.85" transform="translate(-3.9 -2.35)"/></g><defs><g id="d" fill-rule="evenodd"><path fill="url(#e)" d="m11 5-.15 2.25q-.35 1.85-1.35 3-1.3 1.5-3.4 1.5-2.9.35-4-1.9Q1 7.55 1.45 4.7v-.15l.1-.3q2.05-2.55 9.6-1.6l-.25.05v.05q-.1.75.1 2.25" transform="translate(-1.3 -2.4)"/><path fill="#330505" d="m9.05 3.2-.1-3 .55.1.1 1.65-.15 3.45-.4 1.2q-.55 1.2-1.95 2 1.3-.95 1.65-2.15.3-1.05.3-3.25M.1 2.65l.05-.6.75-.5Q.55 1.8.55 4.1q0 2.35.95 3.75.55.9 1.35 1.3l-1.3-.6-.2-.2-.15-.2-1-2.3z"/><path fill="#140533" d="M6 2.7q.65.55.65 1.35T6 5.35q-.65.55-1.6.55t-1.6-.55q-.65-.5-.65-1.3T2.8 2.7t1.6-.55T6 2.7"/><path fill="#070985" d="M3 7.2 1.7 5.55q1.25 1.05 2.4 1.3l1.8-.1 1.2-.95q.5-.55.8-1.9L7.8 3l.35 1.3Q8.15 5.9 7 7q-1.2 1.05-2.25.9-1.1-.15-1.75-.7"/></g><g id="c" fill-rule="evenodd"><path fill-opacity=".298" d="M11.45.9q2.35 0 3.6 1.05 1.05.9 1.05 2.4l-.55 3.1q-.15-.75-1.9-1.6-2.25-1.1-5.4-1.1-3.5 0-6.4.75l.1-.1q1.4-1.5 2.8-2.5 2.75-2 6.7-2"/><path d="m3.6 3.3.25-.3q2-1.9 4.8-2.35l4.55-.1 2.15.55.45.05h1l3.1-.4h.1l1.2-.6q.85-.6-1.1.9-1.55 1.25-2.3 1.4l-.6.2.25.3.55.7.1.15.9.8.85.5-.75.1-1.35-.2-.75-.25-.55 1.3-.95 1.55.15-.5.2-1.6-.3-1.95V3.5l-.15-.05-.05-.3q-.25-.55-1.15-1-1.75-.8-2.85-.8-5.15 0-7.75 1.95"/><path fill="#690e0e" d="M15.4 3.45q-1.3-.85-3.95-1.35-2.8-.45-6.25 1.1-2.55 1.1-3.4 2.25L3.6 3.3q2.6-1.95 7.75-1.95 1.1 0 2.85.8.9.45 1.15 1z"/><path fill="#830000" d="m8.1 12.25 2.3-.4 1.1-.45.5-.2 1.6-.9-.85.9.85.75V12l-1-.3-.5-.05-.6.3-.2.1.7.75v.05l-.9-.4-.55-.2-.4.1-.95.15.05.3q-.55-.3-1.4-.5H7.7z"/><path fill="#d7b790" d="m1.05 2.05 3-1.35Q1.65 2.15 1.3 3 .85 4.25.45 4.15l-.3-.45-.1-.7q.1-.45 1-.95"/><path fill="#fff" d="m12.75 3.5-.4.05-1.05.8-1.35.7q-.45.05-.75-.25-.25-.4.4-1.3.6-.8 1.3-.65l.5.05zM11.7 5.25l-.05-.2.15-.4.15-.1.2-.05q.5 0 .5.4 0 .55-.5.55-.35 0-.45-.2"/><path fill="url(#f)" d="M3.85 9.25q-.85.5-1.75.3-.8-.15-1.05-.75-.35-.6.05-1.35.4-.7 1.3-1.2l1.6-.2q.85.15 1.2.75.25.6-.2 1.35-.3.7-1.15 1.1" transform="translate(3.9 2.35)"/></g><radialGradient id="f" cx="0" cy="0" r="819.2" gradientTransform="matrix(.0025 -.0021 .002 .002 3.1 7.8)" gradientUnits="userSpaceOnUse" spreadMethod="pad"><stop offset=".502" stop-color="#fff"/><stop offset=".894" stop-color="#fff" stop-opacity="0"/></radialGradient><linearGradient id="e" x1="-819.2" x2="819.2" gradientTransform="matrix(0 -.004 .005 .0001 6.6 7.4)" gradientUnits="userSpaceOnUse" spreadMethod="pad"><stop offset="0" stop-color="#82bfde"/><stop offset=".302" stop-color="#009dec"/><stop offset="1" stop-color="#003"/></linearGradient><path id="a" fill="#fff" fill-rule="evenodd" d="m5-.4 2.45-.55q1.5 0 2.85.85l1.1 1 .7 1.2q.5.65-.05 2.35-.6 1.65-2.7 3.65-2.15 1.95-5.8 1.8-3.7-.25-4.85-3.3t-.8-3.45l.85-.75.85-.9.4-.25.4-.05H0Q.3.95.7.9L2.3.5Q3.25 0 5-.4" transform="translate(2.2 .95)"/><use ffdec:characterId="2" xlink:href="#d" id="b" width="9.85" height="9.4"/></defs></svg>