<svg xmlns="http://www.w3.org/2000/svg" xmlns:ffdec="https://www.free-decompiler.com/flash" xmlns:xlink="http://www.w3.org/1999/xlink" ffdec:objectType="frame" width="21.45" height="12.95"><g transform="translate(3.9 2.35)"><use ffdec:characterId="3" xlink:href="#a" width="9.85" height="9.4" transform="matrix(.8344 0 0 .608 1.185 4.91)"/><use ffdec:characterId="7" xlink:href="#b" width="16" height="2.65" transform="translate(-3.15 7.25)"/></g><defs><linearGradient id="d" x1="-819.2" x2="819.2" gradientTransform="matrix(0 -.004 .005 .0001 6.6 7.4)" gradientUnits="userSpaceOnUse" spreadMethod="pad"><stop offset="0" stop-color="#82bfde" stop-opacity="0"/><stop offset=".302" stop-color="#009dec" stop-opacity="0"/><stop offset="1" stop-color="#003" stop-opacity="0"/></linearGradient><path id="b" fill-rule="evenodd" d="m12.85 8-2.6.9-1.9.2-1.55-.2q.45.3 1.65.65-3.35.7-5.95-.1L-.6 8.7l-1.3.25-1.25.25 2.2-1.1.25-.15.6-.15.8.1 1.35.3 2.5.25q1.55.05 2.95-.5l1.6-.7h.1l.8.4z" transform="translate(3.15 -7.25)"/><use ffdec:characterId="2" xlink:href="#c" id="a" width="9.85" height="9.4"/><g id="c" fill-rule="evenodd"><path fill="url(#d)" d="m11 5-.15 2.25q-.35 1.85-1.35 3-1.3 1.5-3.4 1.5-2.9.35-4-1.9Q1 7.55 1.45 4.7v-.15l.1-.3q2.05-2.55 9.6-1.6l-.25.05v.05q-.1.75.1 2.25" transform="translate(-1.3 -2.4)"/><path fill="#330505" fill-opacity="0" d="m9.05 3.2-.1-3 .55.1.1 1.65-.15 3.45-.4 1.2q-.55 1.2-1.95 2 1.3-.95 1.65-2.15.3-1.05.3-3.25M.1 2.65l.05-.6.75-.5Q.55 1.8.55 4.1q0 2.35.95 3.75.55.9 1.35 1.3l-1.3-.6-.2-.2-.15-.2-1-2.3z"/><path fill="#140533" fill-opacity="0" d="M6 2.7q.65.55.65 1.35T6 5.35q-.65.55-1.6.55t-1.6-.55q-.65-.5-.65-1.3T2.8 2.7t1.6-.55T6 2.7"/><path fill="#070985" fill-opacity="0" d="M3 7.2 1.7 5.55q1.25 1.05 2.4 1.3l1.8-.1 1.2-.95q.5-.55.8-1.9L7.8 3l.35 1.3Q8.15 5.9 7 7q-1.2 1.05-2.25.9-1.1-.15-1.75-.7"/></g></defs></svg>