<svg xmlns="http://www.w3.org/2000/svg" xmlns:ffdec="https://www.free-decompiler.com/flash" xmlns:xlink="http://www.w3.org/1999/xlink" ffdec:objectType="frame" width="21.45" height="12.95"><g transform="translate(3.9 2.35)"><use ffdec:characterId="8" xlink:href="#a" width="14.55" height="6.4" transform="translate(-2.2 3.65)"/><use ffdec:characterId="3" xlink:href="#b" width="9.85" height="9.4" transform="matrix(.9999 0 0 .7066 .4 3.396)"/><use ffdec:characterId="9" xlink:href="#c" width="21.45" height="7.6" transform="translate(-3.9 2.8)"/></g><defs><g id="d" fill-rule="evenodd"><path fill="url(#e)" d="m11 5-.15 2.25q-.35 1.85-1.35 3-1.3 1.5-3.4 1.5-2.9.35-4-1.9Q1 7.55 1.45 4.7v-.15l.1-.3q2.05-2.55 9.6-1.6l-.25.05v.05q-.1.75.1 2.25" transform="translate(-1.3 -2.4)"/><path fill="#330505" d="m9.05 3.2-.1-3 .55.1.1 1.65-.15 3.45-.4 1.2q-.55 1.2-1.95 2 1.3-.95 1.65-2.15.3-1.05.3-3.25M.1 2.65l.05-.6.75-.5Q.55 1.8.55 4.1q0 2.35.95 3.75.55.9 1.35 1.3l-1.3-.6-.2-.2-.15-.2-1-2.3z"/><path fill="#140533" d="M6 2.7q.65.55.65 1.35T6 5.35q-.65.55-1.6.55t-1.6-.55q-.65-.5-.65-1.3T2.8 2.7t1.6-.55T6 2.7"/><path fill="#070985" d="M3 7.2 1.7 5.55q1.25 1.05 2.4 1.3l1.8-.1 1.2-.95q.5-.55.8-1.9L7.8 3l.35 1.3Q8.15 5.9 7 7q-1.2 1.05-2.25.9-1.1-.15-1.75-.7"/></g><g id="c" fill-rule="evenodd"><path fill-opacity=".298" d="M15.05 1.15q1.05.55 1.05 1.45l-.55 1.8q-.15-.45-1.9-.95l-5.4-.65-6.4.45.1-.05q1.4-.9 2.8-1.5Q7.5.55 11.45.55q2.35 0 3.6.6"/><path d="m3.6 1.95.25-.15q2-1.15 4.8-1.4T13.2.35l2.15.3.45.05h1l3.1-.25h.1L21.2.1q.85-.35-1.1.55l-2.3.8-.6.15.25.15.55.4.1.1.9.5.85.25-.75.1-1.35-.15L17 2.8l-.55.8-.95.9.15-.3.2-.95-.3-1.15-.15-.05-.05-.2-1.15-.55-2.85-.5Q6.2.8 3.6 1.95"/><path fill="#690e0e" d="m15.4 2.05-3.95-.8Q8.65 1 5.2 1.9q-2.55.65-3.4 1.35l1.8-1.3Q6.2.8 11.35.8l2.85.5 1.15.55z"/><path fill="#830000" d="M8.1 7.25 10.4 7l1.1-.25.5-.15 1.6-.5-.85.5.85.45v.05l-1-.2h-.5l-.6.15-.2.05.7.45v.05l-.9-.25-.55-.1-.4.05-.95.1.05.15-1.4-.3z"/><path fill="#d7b790" d="m.45 2.45-.3-.25-.1-.4 1-.6 3-.75Q1.65 1.3 1.3 1.8q-.45.7-.85.65"/><path fill="#fff" d="M12.65 2.9q0 .35-.5.35l-.45-.15-.05-.1.15-.25.15-.05.2-.05q.5 0 .5.25m-1.35-.3L9.95 3l-.75-.15q-.25-.25.4-.75.6-.5 1.3-.4h.5l1.35.4h-.4z"/><path fill="url(#f)" d="M4 7.75q.85.1 1.2.45.25.35-.2.8-.3.4-1.15.65l-1.75.2q-.8-.1-1.05-.45-.35-.35.05-.8.4-.4 1.3-.7z" transform="translate(3.9 -2.8)"/></g><radialGradient id="f" cx="0" cy="0" r="819.2" gradientTransform="matrix(.0025 -.0013 .002 .0012 3.1 8.8)" gradientUnits="userSpaceOnUse" spreadMethod="pad"><stop offset=".502" stop-color="#fff"/><stop offset=".894" stop-color="#fff" stop-opacity="0"/></radialGradient><linearGradient id="e" x1="-819.2" x2="819.2" gradientTransform="matrix(0 -.004 .005 .0001 6.6 7.4)" gradientUnits="userSpaceOnUse" spreadMethod="pad"><stop offset="0" stop-color="#82bfde"/><stop offset=".302" stop-color="#009dec"/><stop offset="1" stop-color="#003"/></linearGradient><path id="a" fill="#fff" fill-rule="evenodd" d="M12.1 5.45q.5.35-.05 1.35-.6 1-2.7 2.2-2.15 1.15-5.8 1.05Q-.15 9.9-1.3 8.1t-.8-2.05l.85-.45.85-.5.4-.15.4-.05H0l.7-.15 1.6-.25L5 3.95l2.45-.3 2.85.5q.85.3 1.1.6z" transform="translate(2.2 -3.65)"/><use ffdec:characterId="2" xlink:href="#d" id="b" width="9.85" height="9.4"/></defs></svg>