<?xml version="1.0" encoding="UTF-8" standalone="no"?>
<svg xmlns:ffdec="https://www.free-decompiler.com/flash" xmlns:xlink="http://www.w3.org/1999/xlink" ffdec:objectType="frame" height="12.95px" width="21.45px" xmlns="http://www.w3.org/2000/svg">
  <g transform="matrix(1.0, 0.0, 0.0, 1.0, 3.9, 2.35)">
    <use ffdec:characterId="8" height="6.4" transform="matrix(1.0, 0.0, 0.0, 1.0, -2.2, 3.65)" width="14.55" xlink:href="#shape0"/>
    <use ffdec:characterId="3" height="9.4" transform="matrix(0.9999, 0.0, 0.0, 0.7066, 0.3999, 3.3959)" width="9.85" xlink:href="#sprite0"/>
    <use ffdec:characterId="9" height="7.6" transform="matrix(1.0, 0.0, 0.0, 1.0, -3.9, 2.8)" width="21.45" xlink:href="#shape2"/>
  </g>
  <defs>
    <g id="shape0" transform="matrix(1.0, 0.0, 0.0, 1.0, 2.2, -3.65)">
      <path d="M12.1 5.45 Q12.6 5.8 12.05 6.8 11.45 7.8 9.35 9.0 7.2 10.15 3.55 10.05 -0.15 9.9 -1.3 8.1 -2.45 6.3 -2.1 6.05 L-1.25 5.6 -0.4 5.1 0.0 4.95 0.4 4.9 0.0 4.9 0.7 4.75 2.3 4.5 5.0 3.95 7.45 3.65 10.3 4.15 Q11.15 4.45 11.4 4.75 L12.1 5.45" fill="#ffffff" fill-rule="evenodd" stroke="none"/>
    </g>
    <g id="sprite0" transform="matrix(1.0, 0.0, 0.0, 1.0, -1.3, -2.4)">
      <use ffdec:characterId="2" height="9.4" transform="matrix(1.0, 0.0, 0.0, 1.0, 1.3, 2.4)" width="9.85" xlink:href="#shape1"/>
    </g>
    <g id="shape1" transform="matrix(1.0, 0.0, 0.0, 1.0, -1.3, -2.4)">
      <path d="M11.0 5.0 L10.85 7.25 Q10.5 9.1 9.5 10.25 8.2 11.75 6.1 11.75 3.2 12.1 2.1 9.85 1.0 7.55 1.45 4.7 L1.45 4.55 1.55 4.25 Q3.6 1.7 11.15 2.65 L10.9 2.7 10.9 2.75 Q10.8 3.5 11.0 5.0" fill="url(#gradient0)" fill-rule="evenodd" stroke="none"/>
      <path d="M10.35 5.6 L10.25 2.6 10.8 2.7 10.9 4.35 10.75 7.8 10.35 9.0 Q9.8 10.2 8.4 11.0 9.7 10.05 10.05 8.85 10.35 7.8 10.35 5.6 M1.4 5.05 L1.45 4.45 2.2 3.95 Q1.85 4.2 1.85 6.5 1.85 8.85 2.8 10.25 3.35 11.15 4.15 11.55 L2.85 10.95 2.65 10.75 2.5 10.55 1.5 8.25 1.4 5.05" fill="#330505" fill-rule="evenodd" stroke="none"/>
      <path d="M7.3 5.1 Q7.95 5.65 7.95 6.45 7.95 7.25 7.3 7.75 6.65 8.3 5.7 8.3 4.75 8.3 4.1 7.75 3.45 7.25 3.45 6.45 3.45 5.65 4.1 5.1 4.75 4.55 5.7 4.55 6.65 4.55 7.3 5.1" fill="#140533" fill-rule="evenodd" stroke="none"/>
      <path d="M4.3 9.6 L3.0 7.95 Q4.25 9.0 5.4 9.25 L7.2 9.15 8.4 8.2 Q8.9 7.65 9.2 6.3 L9.1 5.4 9.45 6.7 Q9.45 8.3 8.3 9.4 7.1 10.45 6.05 10.3 4.95 10.15 4.3 9.6" fill="#070985" fill-rule="evenodd" stroke="none"/>
    </g>
    <linearGradient gradientTransform="matrix(0.0, -0.004, 0.005, 1.0E-4, 6.6, 7.4)" gradientUnits="userSpaceOnUse" id="gradient0" spreadMethod="pad" x1="-819.2" x2="819.2">
      <stop offset="0.0" stop-color="#82bfde"/>
      <stop offset="0.30196078431372547" stop-color="#009dec"/>
      <stop offset="1.0" stop-color="#000033"/>
    </linearGradient>
    <g id="shape2" transform="matrix(1.0, 0.0, 0.0, 1.0, 3.9, -2.8)">
      <path d="M11.15 3.95 Q12.2 4.5 12.2 5.4 L11.65 7.2 Q11.5 6.75 9.75 6.25 L4.35 5.6 -2.05 6.05 -1.95 6.0 Q-0.55 5.1 0.85 4.5 3.6 3.35 7.55 3.35 9.9 3.35 11.15 3.95" fill="#000000" fill-opacity="0.29803923" fill-rule="evenodd" stroke="none"/>
      <path d="M-0.3 4.75 L-0.05 4.6 Q1.95 3.45 4.75 3.2 7.55 2.95 9.3 3.15 L11.45 3.45 11.9 3.5 12.9 3.5 16.0 3.25 16.1 3.25 17.3 2.9 Q18.15 2.55 16.2 3.45 L13.9 4.25 13.3 4.4 13.55 4.55 14.1 4.95 14.2 5.05 15.1 5.55 15.95 5.8 15.2 5.9 13.85 5.75 13.1 5.6 12.55 6.4 11.6 7.3 11.75 7.0 11.95 6.05 11.65 4.9 11.5 4.85 11.45 4.65 10.3 4.1 7.45 3.6 Q2.3 3.6 -0.3 4.75" fill="#000000" fill-rule="evenodd" stroke="none"/>
      <path d="M11.5 4.85 L7.55 4.05 Q4.75 3.8 1.3 4.7 -1.25 5.35 -2.1 6.05 L-0.3 4.75 Q2.3 3.6 7.45 3.6 L10.3 4.1 11.45 4.65 11.5 4.85" fill="#690e0e" fill-rule="evenodd" stroke="none"/>
      <path d="M4.2 10.05 L6.5 9.8 7.6 9.55 8.1 9.4 9.7 8.9 8.85 9.4 9.7 9.85 9.7 9.9 8.7 9.7 8.2 9.7 7.6 9.85 7.4 9.9 8.1 10.35 8.1 10.4 7.2 10.15 6.65 10.05 6.25 10.1 5.3 10.2 5.35 10.35 3.95 10.05 4.2 10.05" fill="#830000" fill-rule="evenodd" stroke="none"/>
      <path d="M-3.45 5.25 L-3.75 5.0 -3.85 4.6 -2.85 4.0 0.15 3.25 Q-2.25 4.1 -2.6 4.6 -3.05 5.3 -3.45 5.25" fill="#d7b790" fill-rule="evenodd" stroke="none"/>
      <path d="M8.75 5.7 Q8.75 6.05 8.25 6.05 L7.8 5.9 7.75 5.8 7.9 5.55 8.05 5.5 8.25 5.45 Q8.75 5.45 8.75 5.7 M7.4 5.4 L6.05 5.8 5.3 5.65 Q5.05 5.4 5.7 4.9 6.3 4.4 7.0 4.5 L7.5 4.5 8.85 4.9 8.45 4.9 7.4 5.4" fill="#ffffff" fill-rule="evenodd" stroke="none"/>
      <path d="M4.0 7.75 Q4.85 7.85 5.2 8.2 5.45 8.55 5.0 9.0 4.7 9.4 3.85 9.65 L2.1 9.85 Q1.3 9.75 1.05 9.4 0.7 9.05 1.1 8.6 1.5 8.2 2.4 7.9 L4.0 7.75" fill="url(#gradient1)" fill-rule="evenodd" stroke="none"/>
    </g>
    <radialGradient cx="0" cy="0" gradientTransform="matrix(0.0025, -0.0013, 0.002, 0.0012, 3.1, 8.8)" gradientUnits="userSpaceOnUse" id="gradient1" r="819.2" spreadMethod="pad">
      <stop offset="0.5019607843137255" stop-color="#ffffff"/>
      <stop offset="0.8941176470588236" stop-color="#ffffff" stop-opacity="0.0"/>
    </radialGradient>
  </defs>
</svg>
