<svg xmlns="http://www.w3.org/2000/svg" xmlns:ffdec="https://www.free-decompiler.com/flash" xmlns:xlink="http://www.w3.org/1999/xlink" ffdec:objectType="frame" width="12.8" height="13.45"><g transform="translate(1.45 1.75)"><use ffdec:characterId="16" xlink:href="#a" width="9.8" height="11.15" transform="translate(-1.35 .55)"/><use ffdec:characterId="3" xlink:href="#b" width="8.25" height="11" transform="translate(-1.1 .6)"/><use ffdec:characterId="17" xlink:href="#c" width="5.2" height="6.9" transform="translate(.55 3.3)"/><use ffdec:characterId="6" xlink:href="#d" width="4.35" height="5.65" transform="translate(.9 3.25)"/><use ffdec:characterId="22" xlink:href="#e" width="12.45" height="12.55" transform="translate(-1.1 -1.75)"/></g><defs><linearGradient id="g" x1="-819.2" x2="819.2" gradientTransform="matrix(-.0002 .0066 -.0067 -.0003 4.1 5.5)" gradientUnits="userSpaceOnUse" spreadMethod="pad"><stop offset="0" stop-color="#d28ae5"/><stop offset="1" stop-color="#51038e"/></linearGradient><linearGradient id="h" x1="-819.2" x2="819.2" gradientTransform="matrix(-.0002 .0066 -.0067 -.0003 6.3 5.6)" gradientUnits="userSpaceOnUse" spreadMethod="pad"><stop offset="0" stop-color="#d28ae5"/><stop offset="1" stop-color="#51038e"/></linearGradient><linearGradient id="i" x1="-819.2" x2="819.2" gradientTransform="matrix(-.0002 .0066 -.0067 -.0003 2.95 5.45)" gradientUnits="userSpaceOnUse" spreadMethod="pad"><stop offset="0" stop-color="#d28ae5"/><stop offset="1" stop-color="#51038e"/></linearGradient><path id="a" fill="#fff" fill-rule="evenodd" d="M6.4 1.95q1.15.9 1.55 2.05l.5 3.55q.15 1.55-1.25 2.8-1.25 1.1-2.8 1.3Q2 11.9.55 11q-2.4-1.55-1.8-6Q-.6.35 2.75.55q2.1.1 3.65 1.4" transform="translate(1.35 -.55)"/><path id="c" fill="#fff" fill-opacity=".298" fill-rule="evenodd" d="m3.6 3.45 1.35.9.3.65.45 1.5v1.35Q5.45 9 4.55 9.65q-.85.55-1.95.55-.75 0-1.2-.6l-.55-1q-.3-.7-.3-1.4 0-.9.3-1.8.45-1.15 1.5-1.7l.8-.4z" transform="translate(-.55 -3.3)"/><path id="j" fill="#45245d" fill-rule="evenodd" d="M4.35 2.9v.05Q4.3 4.3 3.45 5.1q-.2.35-1.15.5l-.2.05q-.9-.05-1.5-.9-.65-.85-.6-2Q.1 1.7.6.95l.75-.7L2.3 0q.9.05 1.5.9t.55 2"/><use ffdec:characterId="2" xlink:href="#f" id="b" width="8.25" height="11"/><use ffdec:characterId="5" xlink:href="#j" id="d" width="4.35" height="5.65"/><g id="f" fill-rule="evenodd"><path fill="url(#g)" d="M6.35 5.6q-.05 1.35-.9 2.15h.1q.55 0 .95.4.5-.95.6-2.55zM1.5 5.4q0 2.3.5 3.05l.65-.2q.4 0 .65.25l.3.65-.1.3.65.1h.1l-.2-.7.25-.6-.2.05q-.9-.05-1.5-.9-.65-.85-.6-2zM0 5.2q.05-2.1 1.15-3.65Q2.55-.5 5 .15q2.05.55 2.85 3.2.7 2.35.15 4.55-.9 3.45-4.65 3.05Q-.1 10.65 0 5.2"/><path fill="url(#h)" d="M6.35 5.6h.75Q7 7.2 6.5 8.15q-.4-.4-.95-.4h-.1q.85-.8.9-2.15"/><path fill="url(#i)" d="M1.5 5.4H2q-.05 1.15.6 2 .6.85 1.5.9l.2-.05-.25.6.2.7h-.1l-.65-.1.1-.3-.3-.65q-.25-.25-.65-.25l-.65.2q-.5-.75-.5-3.05"/></g><g id="e" fill-rule="evenodd"><path fill="#fff" d="m3.5 5.15-.7.9-.85.1-.7-.45q-.35-.35-.3-.8 0-.45.4-.8t.85-.3q.45 0 .85.4l.45.65zm-.2 5.7.3.65-.1.3q-.4.6-.9.5-.95 0-.95-.9.1-.4.35-.6t.65-.2z"/><path fill="#fff" fill-opacity=".498" d="M5.55 10.1q.55 0 .95.4.45.45.45.85-.05.55-.55.9l-1 .3q-.9-.05-1.15-.65l-.2-.7.25-.6q.5-.5 1.15-.5z"/><path fill="#3a2d2b" d="m.55 4.2-.05.05-.15.15-.05.05-.05.05-.1-.05v-.1Q0 2.75 1 2.1q-.45.1-.75.45L.2 2.6H.1l-.05-.1v-.05q.1-.8 1.05-1.25L3.75.85Q5.7 1 7.95 2.6l.2.2q1.35 1.3 2 3.15l.25 1.7h1.65q.6-.15.25.1l-1.9.45-.1.75q1.15.5 1.95.4h.1v.05l-.5.1-1.05.2-.75-.15-.3.95.1.1q.75.7 1.3.8-.9-.1-1.4-.5v-.05L9.7 11l-.75 1.05-.1.05-.05-.05-.05-.05v-.15l.75-2.7-.1-1.4-.05-.25q-.4-1.65-1.55-2.95-1.45-1.8-3.1-2-1.35-.25-2.6.4V3zm10.8 2.75h-.05l-.15-.1Q10.6 5 9 3.5q-1.6-1.55-1.05-.95-1.8-1.9-4.1-2.2Q1.5.05.25 1.6h-.2v-.2Q1.4-.25 3.7.05T8.5 2.6q2.45 2.2 2.95 4.15z"/><path fill="#020202" fill-opacity=".298" d="M.55 4.2 2.1 3v-.05q1.25-.65 2.6-.4 1.65.2 3.1 2 1.15 1.3 1.55 2.95-1.5-1.7-2.85-2.45Q3.9 3.6.55 4.2"/></g></defs></svg>