<svg xmlns="http://www.w3.org/2000/svg" xmlns:ffdec="https://www.free-decompiler.com/flash" xmlns:xlink="http://www.w3.org/1999/xlink" ffdec:objectType="frame" width="13.25" height="12.65"><use ffdec:characterId="3" xlink:href="#a" width="13.25" height="3.15" transform="translate(0 7.6)"/><defs><g id="a" fill-rule="evenodd"><path fill="#333" d="m12 2.15-1.35.5-2 .45L4 2.95h-.9l.6-.1-.6.05h-.15l-.55-.1-.5-.2h.35l.7-.1-.3-.15-.55.05-.65-.1L1 2.05 2.05 2l-.25-.15h-.3L0 1.6l1.3-.15-.7-.7.45.2 1.85.5 2.2.4q2.4.45 8.05-.2l.1-.05-.1.1z"/><path fill-opacity=".239" d="M10.6.05q1 .15 1.6.55t-.15.4l-1.25.05L8.15 1l-.4-.05Q8 .65 8.8.3q.8-.4 1.8-.25"/></g></defs></svg>