<?xml version="1.0" encoding="UTF-8" standalone="no"?>
<svg xmlns:ffdec="https://www.free-decompiler.com/flash" xmlns:xlink="http://www.w3.org/1999/xlink" ffdec:objectType="frame" height="10.2px" width="13.15px" xmlns="http://www.w3.org/2000/svg">
  <g transform="matrix(1.0, 0.0, 0.0, 1.0, 2.95, -0.6)">
    <use ffdec:characterId="11" height="8.15" transform="matrix(1.0, 0.0, 0.0, 1.0, -2.3, 2.65)" width="11.65" xlink:href="#shape0"/>
    <use ffdec:characterId="12" height="7.55" id="Color" transform="matrix(0.9448, 0.0, 0.0, 1.0, -0.6362, 2.95)" width="7.45" xlink:href="#sprite0"/>
    <use ffdec:characterId="13" height="9.15" transform="matrix(1.0, 0.0, 0.0, 1.0, -2.85, 0.6)" width="13.05" xlink:href="#shape2"/>
  </g>
  <defs>
    <g id="shape0" transform="matrix(1.0, 0.0, 0.0, 1.0, 2.3, -2.65)">
      <path d="M8.55 5.0 Q9.3 5.95 9.35 6.55 9.35 7.1 7.25 8.9 5.15 10.7 2.65 10.8 0.15 10.85 -1.1 9.25 L-1.75 8.25 -1.95 7.75 -2.2 7.3 -2.3 6.55 Q-2.25 5.5 -0.65 4.25 1.2 2.8 3.9 2.65 6.7 3.25 7.65 3.95 L8.55 5.0 M7.3 4.9 L7.35 4.8 7.2 4.75 7.3 4.9" fill="#ffffff" fill-rule="evenodd" stroke="none"/>
    </g>
    <g id="sprite0" transform="matrix(1.0, 0.0, 0.0, 1.0, 0.25, 0.0)">
      <use ffdec:characterId="2" height="7.55" transform="matrix(1.0, 0.0, 0.0, 1.0, -0.25, 0.0)" width="7.45" xlink:href="#shape1"/>
    </g>
    <g id="shape1" transform="matrix(1.0, 0.0, 0.0, 1.0, 0.25, 0.0)">
      <path d="M5.05 7.35 L3.6 7.55 Q2.55 7.55 1.75 7.1 0.9 6.65 0.3 5.55 -0.3 4.5 -0.25 3.35 0.0 0.25 3.35 0.0 L4.65 0.05 6.15 1.0 Q7.05 1.95 7.2 3.35 7.3 4.75 6.85 5.6 L5.95 6.8 5.05 7.35" fill="#666666" fill-rule="evenodd" stroke="none"/>
    </g>
    <g id="shape2" transform="matrix(1.0, 0.0, 0.0, 1.0, 2.85, -0.6)">
      <path d="M1.4 5.2 Q1.9 4.7 2.4 4.6 L3.6 4.7 Q4.25 5.0 4.5 5.85 4.7 6.7 4.15 7.3 L2.95 8.05 Q2.25 8.15 1.65 7.65 1.15 7.25 1.05 6.5 1.0 5.8 1.4 5.2 M4.9 5.6 L5.0 5.55 Q5.3 5.55 5.4 6.4 5.75 8.95 3.5 9.45 1.2 9.9 0.65 8.1 L0.6 8.1 0.4 7.4 0.35 6.7 0.4 6.25 0.55 6.1 0.7 6.1 0.7 6.35 0.65 6.4 0.7 6.75 1.05 7.7 2.0 8.45 3.25 8.45 Q3.75 8.4 4.05 8.15 L4.55 7.65 4.85 7.05 4.85 5.8 4.85 5.6 4.9 5.6" fill="#ffffff" fill-opacity="0.25882354" fill-rule="evenodd" stroke="none"/>
      <path d="M2.2 5.65 Q2.15 6.25 1.55 6.2 0.9 6.15 0.95 5.6 0.95 5.0 1.6 5.0 2.2 5.0 2.2 5.65 M4.9 7.15 Q5.8 7.35 5.85 7.9 5.95 8.55 5.25 8.65 4.35 8.75 4.05 7.6 3.95 7.0 4.9 7.15" fill="#ffffff" fill-rule="evenodd" stroke="none"/>
      <path d="M4.1 8.95 Q4.05 9.55 3.35 9.7 L2.45 9.75 2.4 9.75 Q1.55 9.75 1.0 9.1 0.45 8.45 0.65 7.7 0.8 6.9 1.7 6.95 2.55 7.0 3.05 7.35 L3.85 8.05 4.1 8.95" fill="#adadad" fill-opacity="0.5019608" fill-rule="evenodd" stroke="none"/>
      <path d="M8.5 4.5 Q9.6 5.6 9.6 6.3 L8.1 7.8 7.6 7.1 7.0 6.4 Q5.65 4.95 3.75 4.95 1.2 4.95 -0.15 6.4 L-0.6 7.05 -1.7 8.4 -1.9 7.9 -2.25 7.3 -2.45 6.8 -2.45 6.75 Q-2.45 5.85 -1.0 4.65 1.1 2.95 4.6 2.95 6.3 2.95 7.6 3.8 L8.5 4.5" fill="#000000" fill-opacity="0.2" fill-rule="evenodd" stroke="none"/>
      <path d="M7.6 3.05 L8.1 3.45 10.2 5.8 8.4 8.2 7.15 9.05 7.75 8.2 8.0 7.75 8.5 6.25 8.45 6.0 7.6 4.65 Q6.95 3.85 6.2 3.6 L3.9 3.0 Q2.9 2.95 1.2 3.65 -0.55 4.35 -1.35 5.5 L-1.95 6.3 -2.2 6.8 -2.35 7.05 -2.45 7.0 -2.75 6.1 -2.7 6.0 -2.85 5.55 -1.65 4.0 -0.25 2.9 1.15 2.35 1.65 2.2 4.8 1.9 5.8 2.2 7.6 3.05" fill="#513624" fill-rule="evenodd" stroke="none"/>
      <path d="M0.05 1.8 Q-1.25 2.35 -2.05 3.15 L-2.8 3.9 -2.6 2.8 Q-2.5 2.0 -0.85 1.1 0.75 0.15 5.7 1.0 1.3 1.2 0.05 1.8" fill="#6b3a00" fill-opacity="0.69411767" fill-rule="evenodd" stroke="none"/>
    </g>
  </defs>
</svg>
