<svg xmlns="http://www.w3.org/2000/svg" xmlns:ffdec="https://www.free-decompiler.com/flash" xmlns:xlink="http://www.w3.org/1999/xlink" ffdec:objectType="frame" width="13.85" height="11.3"><use ffdec:characterId="7" xlink:href="#a" width="13.85" height="11.3"/><defs><radialGradient id="c" cx="0" cy="0" r="819.2" gradientTransform="matrix(-.0086 .0008 .0009 .009 9.1 4.9)" gradientUnits="userSpaceOnUse" spreadMethod="pad"><stop offset=".494" stop-color="#0b0001"/><stop offset="1" stop-color="#740c00"/></radialGradient><radialGradient id="d" cx="0" cy="0" r="819.2" gradientTransform="matrix(-.0047 0 0 .005 9.65 12)" gradientUnits="userSpaceOnUse" spreadMethod="pad"><stop offset=".157" stop-color="#0b0001"/><stop offset=".694" stop-color="#740c00"/></radialGradient><linearGradient id="b" x1="-819.2" x2="819.2" gradientTransform="matrix(-.0048 0 0 .0066 9.85 7.15)" gradientUnits="userSpaceOnUse" spreadMethod="pad"><stop offset="0" stop-color="#d01e3a"/><stop offset=".294" stop-color="#cf1f3e"/><stop offset="1" stop-color="#9a41bb"/></linearGradient><g id="a" fill-rule="evenodd"><path fill="#fff" d="m13.25 3.85.05.35-.05 2-.55 1.6-.9 1.7-1.2.95-.95.4-1.15.25H6.9q-1.95-.3-2.8-1.3l-.8-1-.35-.4v-.05L2.25 7q-.7-1.45-.75-3.3-.05-1.9.75-2.05L6.1 1.2l.15-.1 1.5-.25 1.35.3.4.35 1.8 1 1.4.95z"/><path fill="url(#b)" d="M11.65 2.3q1 .7 1.7 2.85.5 1.4.45 2.9l-.2 1.35q-.55 2.15-2.8 2.95-2.25.7-3.6-1.1Q5.75 9.4 5.85 7.5v-.1q.1-1.9 1-3.45.9-1.7 2.4-2.05t2.4.4" transform="translate(-2.25 -1.55)"/><path fill="#fff" fill-opacity=".251" d="M10.85 7.6v.05q0 .45-1 1.55-.95 1.05-2.2 1.15-1.25.05-2.25-.9-.9-.9-1.05-1.75l.95 1.05q.75.8 2.35.8t2.8-1.45z"/><path fill="#2c0013" fill-opacity=".298" d="M9.4.75q1 .7 1.7 2.85.5 1.4.45 2.9-.55-1.3-1.6-1.15.1.9-.3 2.15T7.85 9q-1.45.15-2.1-.8-.6-1-.55-1.85.05-.9-.35-.9l-1.25.4q.1-1.9 1-3.45Q5.5.7 7 .35t2.4.4"/><path fill="#ff87c3" fill-opacity=".6" d="M7.6 9.5v-.05h.05zm-.8-2.05-.1-.1.1.05z"/><path fill="#ff87c3" fill-opacity=".988" d="m8.55 7.85.1.35v.1l-.5.55-.75.1h.15l-.25-.2-.25-.5-.1-.8h.1l1 .05.45.2zm-.1-1.3-.05.1-.1.1-.55.25-.8.2q-.2-.9 0-1.2.05-.25.45-.45h.1q.45-.1.8.25.3.25.15.75M5.4 5.7l.75.1.2.45.05.3.1.7-.25.05-.75.05-.5-.4-.2-.35q.05-.85.55-.9zm1.15 1.85L6.6 8.7l-.4.5h-.1l-.7-.05q-.45-.5-.25-1l.3-.3h.15l.25-.15z"/><path fill="#fff" d="M9.6 5.35q-.7 0-1.1-.5l-.25-.7q0-.35.15-.6.3-.6.75-.6 1.3 0 1.3 1.35 0 1.05-.85 1.05"/><path fill="#310700" fill-opacity=".239" d="M8.5 1.15q2.5.3 3.5 1l1.4.85v.05l.05.3-.05.9q0-.35-1.4-.9-1.25-.75-4.1-.55-2.9.1-4.4 1.5L2 5.85q-.45.05-.9-2.55 0-.35 1.55-1Q4.5 1.6 7 1.3z"/><path fill="url(#c)" d="m15.9 3.25-.35-.15-1.65-.55-2.4-.45 1.85.45q.75.25 1.15.6l1.15 1.45.45 1.15-.7-.65q-.7-.65-1.95-1.3l-3.4-.45q-1.55 0-2.95.5-1.35.45-2.25.95l-1 .5.95 3.65-1.6-2.3-.95-1.85 1.6-1.3Q5.3 2.4 6.9 2.05l2.05-.4 1.75-.1q1.8.05 3.15.6z" transform="translate(-2.25 -1.55)"/><path fill="url(#d)" d="m11.05 12.25.55-.1-.05.05 1.6-.25q-1.5.8-3.3.9-1.85.05-3.1-1l-.55-.65q.75.65 2.4.9z" transform="translate(-2.25 -1.55)"/></g></defs></svg>