<?xml version="1.0" encoding="UTF-8" standalone="no"?>
<svg xmlns:ffdec="https://www.free-decompiler.com/flash" xmlns:xlink="http://www.w3.org/1999/xlink" ffdec:objectType="frame" height="11.3px" width="13.85px" xmlns="http://www.w3.org/2000/svg">
  <g transform="matrix(1.0, 0.0, 0.0, 1.0, -2.25, -1.55)">
    <use ffdec:characterId="7" height="11.3" transform="matrix(1.0, 0.0, 0.0, 1.0, 2.25, 1.55)" width="13.85" xlink:href="#shape0"/>
  </g>
  <defs>
    <g id="shape0" transform="matrix(1.0, 0.0, 0.0, 1.0, -2.25, -1.55)">
      <path d="M15.5 5.4 L15.55 5.75 15.5 7.75 14.95 9.35 14.05 11.05 12.85 12.0 11.9 12.4 10.75 12.65 9.15 12.65 Q7.2 12.35 6.35 11.35 L5.55 10.35 5.2 9.95 5.2 9.9 4.5 8.55 Q3.8 7.1 3.75 5.25 3.7 3.35 4.5 3.2 L8.35 2.75 8.5 2.65 10.0 2.4 11.35 2.7 11.75 3.05 13.55 4.05 14.95 5.0 15.5 5.4" fill="#ffffff" fill-rule="evenodd" stroke="none"/>
      <path d="M11.65 2.3 Q12.65 3.0 13.35 5.15 13.85 6.55 13.8 8.05 L13.6 9.4 Q13.05 11.55 10.8 12.35 8.55 13.05 7.2 11.25 5.75 9.4 5.85 7.5 L5.85 7.4 Q5.95 5.5 6.85 3.95 7.75 2.25 9.25 1.9 10.75 1.55 11.65 2.3" fill="url(#gradient0)" fill-rule="evenodd" stroke="none"/>
      <path d="M13.1 9.15 L13.1 9.2 Q13.1 9.65 12.1 10.75 11.15 11.8 9.9 11.9 8.65 11.95 7.65 11.0 6.75 10.1 6.6 9.25 L7.55 10.3 Q8.3 11.1 9.9 11.1 11.5 11.1 12.7 9.65 L13.1 9.15" fill="#ffffff" fill-opacity="0.2509804" fill-rule="evenodd" stroke="none"/>
      <path d="M11.65 2.3 Q12.65 3.0 13.35 5.15 13.85 6.55 13.8 8.05 13.25 6.75 12.2 6.9 12.3 7.8 11.9 9.05 11.5 10.3 10.1 10.55 8.65 10.7 8.0 9.75 7.4 8.75 7.45 7.9 7.5 7.0 7.1 7.0 L5.85 7.4 Q5.95 5.5 6.85 3.95 7.75 2.25 9.25 1.9 10.75 1.55 11.65 2.3" fill="#2c0013" fill-opacity="0.29803923" fill-rule="evenodd" stroke="none"/>
      <path d="M9.85 11.05 L9.85 11.0 9.9 11.0 9.85 11.05 M9.05 9.0 L8.95 8.9 9.05 8.95 9.05 9.0" fill="#ff87c3" fill-opacity="0.6" fill-rule="evenodd" stroke="none"/>
      <path d="M10.8 9.4 L10.9 9.75 10.9 9.85 10.4 10.4 9.65 10.5 9.8 10.5 9.55 10.3 9.3 9.8 9.2 9.0 9.3 9.0 10.3 9.05 10.75 9.25 10.8 9.4 M10.7 8.1 L10.65 8.2 10.55 8.3 10.0 8.55 9.2 8.75 Q9.0 7.85 9.2 7.55 9.25 7.3 9.65 7.1 L9.75 7.1 Q10.2 7.0 10.55 7.35 10.85 7.6 10.7 8.1 M7.65 7.25 L8.4 7.35 8.6 7.8 8.65 8.1 8.75 8.8 8.5 8.85 7.75 8.9 7.25 8.5 7.05 8.15 Q7.1 7.3 7.6 7.25 L7.65 7.25 M8.8 9.1 L8.85 10.25 8.45 10.75 8.35 10.75 7.65 10.7 Q7.2 10.2 7.4 9.7 L7.7 9.4 7.85 9.4 8.1 9.25 8.8 9.1" fill="#ff87c3" fill-opacity="0.9882353" fill-rule="evenodd" stroke="none"/>
      <path d="M11.85 6.9 Q11.15 6.9 10.75 6.4 L10.5 5.7 Q10.5 5.35 10.65 5.1 10.95 4.5 11.4 4.5 12.7 4.5 12.7 5.85 12.7 6.9 11.85 6.9" fill="#ffffff" fill-rule="evenodd" stroke="none"/>
      <path d="M10.75 2.7 Q13.25 3.0 14.25 3.7 L15.65 4.55 15.65 4.6 15.7 4.9 15.65 5.8 Q15.65 5.45 14.25 4.9 13.0 4.15 10.15 4.35 7.25 4.45 5.75 5.85 L4.25 7.4 Q3.8 7.45 3.35 4.85 3.35 4.5 4.9 3.85 6.75 3.15 9.25 2.85 L10.75 2.7" fill="#310700" fill-opacity="0.23921569" fill-rule="evenodd" stroke="none"/>
      <path d="M15.9 3.25 L15.55 3.1 13.9 2.55 11.5 2.1 13.35 2.55 Q14.1 2.8 14.5 3.15 L15.65 4.6 16.1 5.75 15.4 5.1 Q14.7 4.45 13.45 3.8 L10.05 3.35 Q8.5 3.35 7.1 3.85 5.75 4.3 4.85 4.8 L3.85 5.3 4.8 8.95 3.2 6.65 2.25 4.8 3.85 3.5 Q5.3 2.4 6.9 2.05 L8.95 1.65 10.7 1.55 Q12.5 1.6 13.85 2.15 L15.9 3.25" fill="url(#gradient1)" fill-rule="evenodd" stroke="none"/>
      <path d="M11.05 12.25 L11.6 12.15 11.55 12.2 13.15 11.95 Q11.65 12.75 9.85 12.85 8.0 12.9 6.75 11.85 L6.2 11.2 Q6.95 11.85 8.6 12.1 L11.05 12.25" fill="url(#gradient2)" fill-rule="evenodd" stroke="none"/>
    </g>
    <linearGradient gradientTransform="matrix(-0.0048, 0.0, 0.0, 0.0066, 9.85, 7.15)" gradientUnits="userSpaceOnUse" id="gradient0" spreadMethod="pad" x1="-819.2" x2="819.2">
      <stop offset="0.0" stop-color="#d01e3a"/>
      <stop offset="0.29411764705882354" stop-color="#cf1f3e"/>
      <stop offset="1.0" stop-color="#9a41bb"/>
    </linearGradient>
    <radialGradient cx="0" cy="0" gradientTransform="matrix(-0.0086, 8.0E-4, 9.0E-4, 0.009, 9.1, 4.9)" gradientUnits="userSpaceOnUse" id="gradient1" r="819.2" spreadMethod="pad">
      <stop offset="0.49411764705882355" stop-color="#0b0001"/>
      <stop offset="1.0" stop-color="#740c00"/>
    </radialGradient>
    <radialGradient cx="0" cy="0" gradientTransform="matrix(-0.0047, 0.0, 0.0, 0.005, 9.65, 12.0)" gradientUnits="userSpaceOnUse" id="gradient2" r="819.2" spreadMethod="pad">
      <stop offset="0.1568627450980392" stop-color="#0b0001"/>
      <stop offset="0.6941176470588235" stop-color="#740c00"/>
    </radialGradient>
  </defs>
</svg>
