<?xml version="1.0" encoding="UTF-8" standalone="no"?>
<svg xmlns:ffdec="https://www.free-decompiler.com/flash" xmlns:xlink="http://www.w3.org/1999/xlink" ffdec:objectType="frame" height="11.3px" width="13.85px" xmlns="http://www.w3.org/2000/svg">
  <g transform="matrix(1.0, 0.0, 0.0, 1.0, -2.25, -1.55)">
    <use ffdec:characterId="8" height="7.1" transform="matrix(1.0, 0.0, 0.0, 1.0, 2.25, 5.75)" width="13.85" xlink:href="#shape0"/>
  </g>
  <defs>
    <g id="shape0" transform="matrix(1.0, 0.0, 0.0, 1.0, -2.25, -5.75)">
      <path d="M11.75 6.7 L13.55 7.35 14.95 7.95 15.5 8.2 15.55 8.4 15.5 9.65 14.95 10.65 14.05 11.75 12.85 12.35 11.9 12.6 10.75 12.75 9.15 12.75 Q7.2 12.55 6.35 11.95 L5.55 11.3 5.2 11.05 5.2 11.0 4.5 10.15 Q3.8 9.25 3.75 8.1 3.7 6.9 4.5 6.8 L8.35 6.55 8.5 6.45 10.0 6.3 11.35 6.5 11.75 6.7" fill="#ffffff" fill-rule="evenodd" stroke="none"/>
      <path d="M13.35 8.05 Q13.85 8.9 13.8 9.85 L13.6 10.7 Q13.05 12.05 10.8 12.55 8.55 13.0 7.2 11.85 5.75 10.7 5.85 9.5 L5.85 9.45 Q5.95 8.25 6.85 7.3 7.75 6.2 9.25 6.0 10.75 5.75 11.65 6.25 12.65 6.7 13.35 8.05" fill="url(#gradient0)" fill-rule="evenodd" stroke="none"/>
      <path d="M12.7 10.85 L13.1 10.55 13.1 10.6 Q13.1 10.85 12.1 11.55 11.15 12.2 9.9 12.3 8.65 12.3 7.65 11.7 6.75 11.15 6.6 10.6 L7.55 11.25 Q8.3 11.75 9.9 11.75 11.5 11.75 12.7 10.85" fill="#ffffff" fill-opacity="0.2509804" fill-rule="evenodd" stroke="none"/>
      <path d="M11.65 6.25 Q12.65 6.7 13.35 8.05 13.85 8.9 13.8 9.85 13.25 9.05 12.2 9.15 12.3 9.7 11.9 10.5 11.5 11.25 10.1 11.45 8.65 11.5 8.0 10.95 7.4 10.3 7.45 9.75 7.5 9.2 7.1 9.2 L5.85 9.45 Q5.95 8.25 6.85 7.3 7.75 6.2 9.25 6.0 10.75 5.75 11.65 6.25" fill="#2c0013" fill-opacity="0.29803923" fill-rule="evenodd" stroke="none"/>
      <path d="M9.05 10.4 L9.05 10.45 8.95 10.4 9.05 10.4 M9.9 11.7 L9.85 11.75 9.85 11.7 9.9 11.7" fill="#ff87c3" fill-opacity="0.6" fill-rule="evenodd" stroke="none"/>
      <path d="M11.05 10.7 L11.15 10.95 11.15 11.0 Q11.0 11.25 10.65 11.35 L9.9 11.4 10.05 11.4 9.8 11.25 9.55 10.95 9.45 10.45 10.55 10.5 11.0 10.6 11.05 10.7 M10.25 10.15 L9.45 10.3 Q9.25 9.75 9.45 9.55 9.5 9.4 9.9 9.25 L10.0 9.25 10.8 9.4 Q11.1 9.6 10.95 9.9 L10.9 9.95 10.8 10.0 10.25 10.15 M7.3 9.9 Q7.35 9.4 7.85 9.35 L7.9 9.35 8.65 9.4 8.85 9.7 8.9 9.9 9.0 10.35 8.75 10.35 8.0 10.4 7.5 10.15 7.3 9.9 M8.1 10.7 L8.35 10.6 9.05 10.5 9.1 11.25 8.7 11.55 8.6 11.55 7.9 11.5 Q7.45 11.2 7.65 10.9 L7.95 10.7 8.1 10.7" fill="#ff87c3" fill-opacity="0.9882353" fill-rule="evenodd" stroke="none"/>
      <path d="M12.1 9.15 Q11.4 9.15 11.0 8.8 L10.75 8.4 Q10.75 8.15 10.9 8.0 11.2 7.65 11.65 7.65 12.95 7.65 12.95 8.5 12.95 9.15 12.1 9.15" fill="#ffffff" fill-rule="evenodd" stroke="none"/>
      <path d="M10.75 6.5 L14.25 7.1 15.65 7.65 15.65 7.7 15.7 7.9 15.65 8.45 Q15.65 8.2 14.25 7.9 L10.15 7.55 Q7.25 7.6 5.75 8.5 4.2 9.35 4.25 9.45 3.8 9.5 3.35 7.85 3.35 7.65 4.9 7.2 L9.25 6.6 10.75 6.5" fill="#310700" fill-opacity="0.23921569" fill-rule="evenodd" stroke="none"/>
      <path d="M10.7 5.75 L13.85 6.15 15.9 6.85 15.55 6.75 13.9 6.4 11.5 6.1 13.35 6.4 14.5 6.8 15.65 7.7 16.1 8.4 15.4 8.0 Q14.7 7.6 13.45 7.2 L10.05 6.9 7.1 7.2 4.85 7.8 3.85 8.15 4.8 10.4 3.2 9.0 2.25 7.8 3.85 7.0 Q5.3 6.3 6.9 6.1 L8.95 5.85 10.7 5.75" fill="url(#gradient1)" fill-rule="evenodd" stroke="none"/>
      <path d="M6.75 12.25 L6.2 11.85 8.6 12.4 11.05 12.5 11.55 12.45 13.15 12.3 9.85 12.85 Q8.0 12.9 6.75 12.25" fill="url(#gradient2)" fill-rule="evenodd" stroke="none"/>
    </g>
    <linearGradient gradientTransform="matrix(-0.0048, 0.0, 0.0, 0.0041, 9.85, 9.3)" gradientUnits="userSpaceOnUse" id="gradient0" spreadMethod="pad" x1="-819.2" x2="819.2">
      <stop offset="0.0" stop-color="#d01e3a"/>
      <stop offset="0.29411764705882354" stop-color="#cf1f3e"/>
      <stop offset="1.0" stop-color="#9a41bb"/>
    </linearGradient>
    <radialGradient cx="0" cy="0" gradientTransform="matrix(-0.0086, 5.0E-4, 9.0E-4, 0.0057, 9.1, 7.9)" gradientUnits="userSpaceOnUse" id="gradient1" r="819.2" spreadMethod="pad">
      <stop offset="0.49411764705882355" stop-color="#0b0001"/>
      <stop offset="1.0" stop-color="#740c00"/>
    </radialGradient>
    <radialGradient cx="0" cy="0" gradientTransform="matrix(-0.0047, 0.0, 0.0, 0.0032, 9.65, 12.35)" gradientUnits="userSpaceOnUse" id="gradient2" r="819.2" spreadMethod="pad">
      <stop offset="0.1568627450980392" stop-color="#0b0001"/>
      <stop offset="0.6941176470588235" stop-color="#740c00"/>
    </radialGradient>
  </defs>
</svg>
