<svg xmlns="http://www.w3.org/2000/svg" xmlns:ffdec="https://www.free-decompiler.com/flash" xmlns:xlink="http://www.w3.org/1999/xlink" ffdec:objectType="frame" width="14.45" height="12.6"><g transform="translate(2.55)"><use ffdec:characterId="3" xlink:href="#a" width="8.7" height="10.4" transform="translate(.2 1.7)"/><use ffdec:characterId="17" xlink:href="#b" width="13.2" height="5" transform="translate(-2.55 6.55)"/></g><defs><radialGradient id="d" cx="0" cy="0" r="819.2" gradientTransform="translate(5.7 7.4)scale(.0075)" gradientUnits="userSpaceOnUse" spreadMethod="pad"><stop offset=".024" stop-color="#fff7fd" stop-opacity="0"/><stop offset=".486" stop-color="#ee94de" stop-opacity="0"/><stop offset="1" stop-color="#3400b4" stop-opacity="0"/></radialGradient><radialGradient id="f" cx="0" cy="0" r="819.2" gradientTransform="translate(5.6 5.8)scale(.0052)" gradientUnits="userSpaceOnUse" spreadMethod="pad"><stop offset=".251" stop-color="#9f74c9" stop-opacity="0"/><stop offset="1" stop-color="#540ac4" stop-opacity="0"/><stop offset="1" stop-color="#0087ff" stop-opacity="0"/></radialGradient><radialGradient id="g" cx="0" cy="0" r="819.2" gradientTransform="translate(5.7 5.7)scale(.0033)" gradientUnits="userSpaceOnUse" spreadMethod="pad"><stop offset=".004" stop-color="#fff4ad" stop-opacity="0"/><stop offset="1" stop-color="#f7b858" stop-opacity="0"/></radialGradient><radialGradient id="h" cx="0" cy="0" r="819.2" gradientTransform="translate(4.35 9.35)scale(.0087)" gradientUnits="userSpaceOnUse" spreadMethod="pad"><stop offset="0" stop-color="#ffd4d4"/><stop offset=".647" stop-color="#461119"/></radialGradient><g id="c" fill-rule="evenodd"><path fill="url(#d)" d="M1.65 5.05q0-2.2.85-3 .85-.75 1.75-1l2.1-.4 2.85.1q.65.6.9 1.65.55 2-.8 5.25-1.35 3.2-3.3 3.3Q4 11 2.85 9.1q-1.2-1.85-1.2-4.05" transform="translate(-1.65 -.6)"/><path fill="url(#e)" d="m10.25 3.9-.7 2.55-1 2.45-.15.15 1.05-3q.35-1.45.05-2.5-.9-.6-4.15 0-3.15.6-3.1.95v1.65q0 .85.85 2.55T5.7 11q-1.75-.4-2.95-1.95-1.2-1.6-1.1-3.75.05-2.2 1.1-3.3Q3.75.9 6.1.7l3.9.35.35 1.9z" transform="translate(-1.65 -.6)"/><path fill="url(#f)" d="M8.4 2.55 7.3 5.2l2.1 2L6.5 7 5.2 9.6l-.55-2.85L1.8 6.5l2.4-1.55L3.8 2l2.1 1.95z" transform="translate(-1.65 -.6)"/><path fill="url(#g)" d="m7.45 3.65-.7 1.7L8.1 6.6l-1.85-.15-.8 1.65-.35-1.8-1.8-.15 1.5-.95-.25-1.9L5.9 4.55z" transform="translate(-1.65 -.6)"/><path fill="#fff3fe" fill-opacity="0" d="m5.75 7.7.15-.2.35-.2q.6-.1-.15 1.4l-.25-.3-.1-.1zm-.55.35.1.6q.05.55-.25.75h-.4q-1.1-.4-.2-1.3zm1.85-.75q-.55.05-.55-.6 0-.7.55-.5.4.15 0 1.1m-.1-2.2.3-.3v-.05l.1-.05q.5.1 0 1h-.4z"/></g><g id="b" fill-rule="evenodd"><path fill="url(#h)" d="m7.2 11.1-1.8.4-2.95-.05-2.95-.55-1.7-.65q-.6-.35-.2-.2l2.15.4q1.75.35 3.45-.05l3.45-1.15q1.8-.7 3.35-2.35-.45 1.7-1.1 2.65l1.75-1.25q-.5 1.15-1.75 1.9l-.05.05-.5.3-.3.15z" transform="translate(2.55 -6.55)"/><path fill="#eeb1ba" d="m5.3 2.8-.6-.35.95-.2 1-.2h.2q2.5 0 5.2-2.05L10.2 1.6q-1.7 1.35-3 1.45z"/></g><linearGradient id="e" x1="-819.2" x2="819.2" gradientTransform="matrix(-.0001 .0032 -.0058 -.0002 5.75 3.1)" gradientUnits="userSpaceOnUse" spreadMethod="pad"><stop offset="0" stop-color="#270046" stop-opacity="0"/><stop offset="1" stop-color="#912ea3" stop-opacity="0"/></linearGradient><use ffdec:characterId="2" xlink:href="#c" id="a" width="8.7" height="10.4"/></defs></svg>