<svg xmlns="http://www.w3.org/2000/svg" xmlns:ffdec="https://www.free-decompiler.com/flash" xmlns:xlink="http://www.w3.org/1999/xlink" ffdec:objectType="frame" width="12.65" height="9.65"><use ffdec:characterId="11" xlink:href="#a" width="12.65" height="9.65"/><defs><linearGradient id="b" x1="-819.2" x2="819.2" gradientTransform="matrix(0 .0046 -.0048 0 2.55 6.45)" gradientUnits="userSpaceOnUse" spreadMethod="pad"><stop offset="0" stop-color="#540000"/><stop offset="1" stop-opacity="0"/></linearGradient><g id="a" fill-rule="evenodd"><path fill="#fff" d="M11.15 3.8q.3.55-.05 1.85T9.85 8q-.95.95-2.7 1.3l-2.4-.05q-2-.4-3-1.25Q.7 7.15.55 6.1.35 5 .6 4.65l.5-1 .35-.7q.65-.65 2.15-.9.55-.1 1.25-.6l1.65-.3V1.1q3.25.55 3.85 1.6z"/><path fill="#db2626" d="m9 7-.75 1.35-1.4.45-1.4.1-1.2-.45Q3.6 8.05 3.1 7q-.55-1.05-.5-2.5.05-1.4 1.15-2.65l-.3.4q.45-.45.65-.45l1.85-.45h.8q1.95.75 2.4 2.4Q9.6 5.3 9 7"/><path fill="url(#b)" d="M4.25 2.9q-.2-.6.75.85t.8 3.15q-.2 1.65-.9 2.75l-.95.4L.7 9.9l-.45-.55Q-.9 7.9-.9 6.2q-.15-1.3.5-2.3l.95-.65q1.1-.6 2.65-.55z" transform="translate(3.55 -1.35)"/><path fill-opacity=".502" d="M6 3.25q1.4.1 1.8 1.55.3 1.2-.25 1.85-.6.8-1.65.65-1.4-.15-1.6-1.45-.25-1.5.5-2.1.6-.55 1.2-.5"/><path fill="#ff7b7b" fill-opacity=".459" d="m8 8.2-1.95.5-.85-.1q-1.05-.25-1.1-1-.1-.75.4-1.25.65-.65 1.85-.65 1.25 0 1.85.7.35.4.35.9T8 8.2"/><path fill-opacity=".2" d="m7.5 4.2.35.4.35 1.05q.05.7-.35 1.3-.45.6-1.6.7-1.25.05-1.7-.6-.45-.7-.4-1.4l.1-.75v.3l.2.95.7.9 1.25.15q.8-.05 1.15-.6l.3-1-.15-.85z"/><path fill="#fff" d="M8.05 3.4q.95 0 .95 1 0 1.1-1.05 1.1-.6 0-.9-.45l-.2-.55q0-.35.25-.65.35-.45.95-.45M3.8 5.75v-.2q0-.35.4-.35.3 0 .3.35 0 .4-.35.4-.3 0-.35-.2"/><path fill-opacity=".165" d="M6.85 1.35q1.55 0 3.1 1.2t1.55 2.5-.35 1.3q.2-.35-1.2-1.6T6.7 3.5q-1.9 0-3.35.9-1.5.9-2.2 1.85l-.3.35-.1.1-.15-.5-.05-.75V5.4q.15-.1.15-.45l.2-.75 1.15-1.3q.6-.55 2.1-1.05l1.25-.3.75-.15.1-.05z"/><path d="M9.75 1.3 7.4 1q1.15.15 2.1.75h.1l.9.2.75-.15-.25.35-.45.4.05.1h.4l1-.1.1.1-.35.35-.5.45.1.1.15.1 1.1.35.05-.05-.25.25-.7.25q-.4 0-.2.15l.9.35-1.05 1.25-.95 1.25q-.3.25.15-.65l.2-.65q.45-1.8-1-3.15-1.5-1.35-3.5-1.15Q4.25 2 3 2.9L1.15 4.6.3 5.95l.1-.65q.25-1.2.85-2.2L0 4.2l1.8-2q.8-.55 1.4-.8l.9-.3.4-.15L6 .7h1.35q2.2.3 2.75.7zm1.15 1.65h.1zM7.65 9.1l.6-.2.05-.05q.2.25.05.65l-.6-.35zm-.1.1-.05.45-.7-.45.75-.1zm2.25-.45-.85-.1.25.45-.9-.25L9.65 8v.05l.35.55z"/><path fill="#936440" d="M4.1.55 3.4.7q-.5.1-1.95.9L.05 2.75q1-2.6 4.2-2.7Q7.4-.1 5.85.2z"/></g></defs></svg>