<?xml version="1.0" encoding="UTF-8" standalone="no"?>
<svg xmlns:ffdec="https://www.free-decompiler.com/flash" xmlns:xlink="http://www.w3.org/1999/xlink" ffdec:objectType="frame" height="12.2px" width="14.3px" xmlns="http://www.w3.org/2000/svg">
  <g transform="matrix(1.0, 0.0, 0.0, 1.0, 3.1, 0.55)">
    <use ffdec:characterId="10" height="9.25" transform="matrix(1.0, 0.0, 0.0, 1.0, -2.25, 2.1)" width="10.8" xlink:href="#shape0"/>
    <use ffdec:characterId="11" height="9.85" id="Color" transform="matrix(1.0, 0.0, 0.0, 1.0, -0.8, 1.5)" width="8.1" xlink:href="#sprite0"/>
    <use ffdec:characterId="12" height="12.2" transform="matrix(1.0, 0.0, 0.0, 1.0, -2.4, -0.55)" width="13.6" xlink:href="#shape2"/>
  </g>
  <defs>
    <g id="shape0" transform="matrix(1.0, 0.0, 0.0, 1.0, 2.25, -2.1)">
      <path d="M8.5 5.4 L8.45 7.35 Q8.2 8.6 7.3 9.95 6.4 11.25 4.2 11.35 L4.1 11.35 1.0 11.15 Q0.15 10.85 -0.65 10.35 -1.45 9.9 -1.95 8.0 L-2.05 7.55 Q-2.45 5.9 -1.95 4.55 -1.45 3.0 -0.5 2.65 L0.4 2.7 -0.2 4.95 0.1 7.4 0.15 7.55 Q1.0 9.6 3.35 9.6 L4.2 9.55 Q5.65 9.25 6.25 7.95 L6.55 6.1 Q6.55 4.8 6.25 4.3 L6.25 3.75 6.6 3.65 Q6.9 3.65 7.6 4.2 8.35 4.75 8.5 5.4" fill="#ffffff" fill-rule="evenodd" stroke="none"/>
      <path d="M-0.3 2.5 L-0.1 2.2 0.25 2.1 -0.5 3.4 -0.3 2.5" fill="#c26a00" fill-rule="evenodd" stroke="none"/>
    </g>
    <g id="sprite0" transform="matrix(1.0, 0.0, 0.0, 1.0, 0.0, 0.0)">
      <use ffdec:characterId="2" height="9.85" transform="matrix(1.0, 0.0, 0.0, 1.0, 0.0, 0.0)" width="8.1" xlink:href="#shape1"/>
    </g>
    <g id="shape1" transform="matrix(1.0, 0.0, 0.0, 1.0, 0.0, 0.0)">
      <path d="M7.75 1.6 L7.95 1.95 8.1 5.0 8.1 5.15 8.05 5.55 7.3 7.85 Q6.1 9.9 3.15 9.85 L2.95 9.8 Q-0.45 8.1 0.1 3.25 L0.5 2.05 1.3 0.85 2.15 0.15 2.95 0.1 4.8 0.75 Q5.3 0.75 5.85 1.25 6.35 1.75 6.75 1.75 L7.0 1.8 7.05 1.7 Q7.15 1.55 7.4 1.5 L7.75 1.6" fill="#c26a00" fill-rule="evenodd" stroke="none"/>
    </g>
    <g id="shape2" transform="matrix(1.0, 0.0, 0.0, 1.0, 2.4, 0.55)">
      <path d="M2.8 11.35 Q0.85 11.25 -0.55 10.1 -1.85 8.95 -1.8 7.4 -1.75 5.9 -0.35 4.9 1.05 3.9 3.0 4.05 4.95 4.15 6.35 5.2 7.7 6.3 7.65 7.85 7.6 9.35 6.15 10.35 4.75 11.45 2.8 11.35" fill="url(#gradient0)" fill-rule="evenodd" stroke="none"/>
      <path d="M0.4 6.65 Q0.4 5.3 1.2 4.35 2.05 3.35 3.2 3.35 4.4 3.35 5.2 4.35 6.05 5.3 6.05 6.65 6.05 8.05 5.2 9.0 4.4 9.95 3.2 9.95 2.05 9.95 1.2 9.0 0.4 8.05 0.4 6.65" fill="url(#gradient1)" fill-rule="evenodd" stroke="none"/>
      <path d="M4.15 5.75 Q4.6 6.15 4.6 6.8 L4.2 7.75 Q3.9 8.15 3.35 8.15 2.75 8.15 2.45 7.75 2.1 7.35 2.05 6.75 2.0 6.15 2.3 5.75 2.65 5.35 3.2 5.35 3.75 5.35 4.15 5.75" fill="#000000" fill-opacity="0.08627451" fill-rule="evenodd" stroke="none"/>
      <path d="M2.85 1.5 L3.2 1.8 Q7.6 2.7 8.6 6.05 L8.35 8.1 Q2.8 4.0 -2.2 6.6 L-2.15 4.9 Q-0.85 0.8 2.85 1.5" fill="#000000" fill-opacity="0.21176471" fill-rule="evenodd" stroke="none"/>
      <path d="M10.25 5.95 L9.55 6.15 9.5 6.25 Q9.8 6.6 10.95 6.75 L10.05 7.15 9.35 7.1 9.15 7.0 Q8.25 8.8 8.0 8.8 L8.1 8.35 8.3 7.0 8.3 6.6 7.95 5.85 7.95 5.8 7.45 5.05 Q5.15 2.4 1.75 2.4 0.4 2.4 -0.95 3.9 L-2.3 5.4 -2.25 4.85 -1.65 3.45 -2.25 4.0 -2.4 4.05 -2.3 3.25 Q-2.25 2.55 -1.65 2.05 -1.1 1.55 -0.45 1.2 0.2 0.8 1.1 0.8 L4.35 1.4 6.15 2.25 6.0 2.2 7.35 3.1 7.65 3.15 7.7 3.15 8.05 3.2 8.6 3.15 9.45 3.1 Q8.8 3.8 8.2 3.95 L8.25 4.0 8.6 4.15 9.95 4.4 10.95 4.3 10.15 4.7 9.15 4.95 9.3 5.1 9.4 5.2 10.55 5.35 10.7 5.35 11.2 5.2 10.65 5.7 10.35 5.9 10.25 5.95 M0.95 11.4 L-0.4 10.75 -0.35 10.75 -0.45 10.7 -0.85 10.45 1.15 10.95 1.75 11.1 2.85 11.2 3.6 11.2 4.05 11.2 5.75 11.0 7.4 10.35 7.35 10.45 6.75 10.8 5.85 11.2 Q5.35 11.35 5.3 11.4 L5.05 11.45 4.45 11.55 3.2 11.65 1.85 11.55 0.95 11.4" fill="#513624" fill-rule="evenodd" stroke="none"/>
      <path d="M0.6 -0.55 L0.55 -0.45 1.5 -0.55 2.8 -0.45 4.45 0.2 Q5.6 0.75 6.2 1.45 L6.3 1.6 5.25 1.05 Q3.75 0.3 2.15 0.15 L1.05 0.1 Q0.1 0.15 -0.55 0.5 L-1.45 0.95 -1.9 1.2 -0.75 0.2 0.3 -0.45 0.6 -0.55" fill="#000000" fill-opacity="0.29803923" fill-rule="evenodd" stroke="none"/>
      <path d="M1.35 6.1 Q0.8 6.1 0.8 5.65 0.8 5.25 1.3 5.2 1.75 5.15 1.75 5.7 1.75 6.1 1.35 6.1 M4.6 8.5 Q5.4 7.75 6.05 8.6 6.65 9.4 6.2 9.8 5.75 10.2 5.35 10.15 4.95 10.1 4.75 9.85 4.25 9.3 4.4 8.85 L4.6 8.5 M1.65 9.0 L1.3 9.6 1.1 9.8 0.85 9.95 0.6 9.95 0.1 9.65 -0.1 9.1 Q-0.2 8.7 0.85 8.55 1.65 8.55 1.65 9.0 M2.05 9.75 Q2.05 9.55 2.3 9.55 L2.55 9.8 2.3 10.0 2.1 9.95 2.05 9.75 M3.85 9.9 L3.5 9.95 Q3.2 9.95 3.2 9.6 3.15 9.2 3.55 9.25 3.95 9.3 3.95 9.6 L3.85 9.9 M6.05 8.0 L5.95 7.7 Q5.95 7.35 6.35 7.4 6.7 7.45 6.7 7.8 L6.4 8.1 6.05 8.0" fill="#ffffff" fill-rule="evenodd" stroke="none"/>
    </g>
    <linearGradient gradientTransform="matrix(1.0E-4, -0.0045, 0.0058, 2.0E-4, 2.9, 7.7)" gradientUnits="userSpaceOnUse" id="gradient0" spreadMethod="pad" x1="-819.2" x2="819.2">
      <stop offset="0.09019607843137255" stop-color="#ffffff" stop-opacity="0.67058825"/>
      <stop offset="0.6352941176470588" stop-color="#ffffff" stop-opacity="0.0"/>
    </linearGradient>
    <radialGradient cx="0" cy="0" gradientTransform="matrix(0.004, 0.0, 0.0, 0.004, 3.25, 6.65)" gradientUnits="userSpaceOnUse" id="gradient1" r="819.2" spreadMethod="pad">
      <stop offset="0.16862745098039217" stop-color="#000000" stop-opacity="0.35686275"/>
      <stop offset="0.8470588235294118" stop-color="#000000" stop-opacity="0.0"/>
    </radialGradient>
  </defs>
</svg>
