<?xml version="1.0" encoding="UTF-8" standalone="no"?>
<svg xmlns:ffdec="https://www.free-decompiler.com/flash" xmlns:xlink="http://www.w3.org/1999/xlink" ffdec:objectType="frame" height="16.6px" width="14.9px" xmlns="http://www.w3.org/2000/svg">
  <g transform="matrix(1.0, 0.0, 0.0, 1.0, 3.1, 0.7)">
    <use ffdec:characterId="24" height="10.5" transform="matrix(1.0, 0.0, 0.0, 1.0, -0.55, 5.4)" width="12.15" xlink:href="#shape0"/>
    <use ffdec:characterId="30" height="4.45" transform="matrix(1.0, 0.0, 0.0, 1.0, -1.25, 6.45)" width="11.05" xlink:href="#shape1"/>
    <use ffdec:characterId="12" height="8.25" transform="matrix(-1.0, 0.0, 0.0, 0.473, 8.35, 6.521)" width="7.65" xlink:href="#sprite0"/>
    <use ffdec:characterId="14" height="41.45" transform="matrix(0.0668, 0.0, 0.0, 0.0316, 5.2131, 7.3305)" width="38.1" xlink:href="#sprite5"/>
    <use ffdec:characterId="31" height="5.65" transform="matrix(1.0, 0.0, 0.0, 1.0, -2.85, 5.65)" width="14.65" xlink:href="#shape8"/>
  </g>
  <defs>
    <g id="shape0" transform="matrix(1.0, 0.0, 0.0, 1.0, 0.55, -5.4)">
      <path d="M11.3 8.95 L11.2 9.0 11.55 10.05 11.6 10.05 11.6 10.2 11.6 10.65 11.6 11.25 Q11.35 13.05 9.9 14.35 L9.8 14.45 7.7 15.6 5.5 15.9 3.8 15.75 3.25 15.6 Q2.3 15.3 1.4 14.6 L1.25 14.45 0.25 13.3 Q-0.4 12.35 -0.5 11.25 L-0.55 10.65 -0.5 10.25 -0.5 10.1 -0.45 9.25 -0.25 8.85 0.1 8.2 Q0.5 7.55 1.05 6.95 L1.25 6.9 1.4 6.8 Q2.5 5.95 3.8 5.6 L5.5 5.4 7.45 5.65 8.2 5.95 8.7 6.15 9.6 6.75 9.8 6.9 9.9 6.95 10.9 8.2 11.05 8.5 11.3 8.95" fill="url(#gradient0)" fill-rule="evenodd" stroke="none"/>
    </g>
    <radialGradient cx="0" cy="0" gradientTransform="matrix(0.0108, -0.0069, 0.0058, 0.0113, 7.4, 9.9)" gradientUnits="userSpaceOnUse" id="gradient0" r="819.2" spreadMethod="pad">
      <stop offset="0.0" stop-color="#ff6666" stop-opacity="0.6"/>
      <stop offset="0.0" stop-color="#ff6666" stop-opacity="0.85882354"/>
      <stop offset="0.6666666666666666" stop-color="#ffffff" stop-opacity="0.0"/>
    </radialGradient>
    <g id="shape1" transform="matrix(1.0, 0.0, 0.0, 1.0, 1.25, -6.45)">
      <path d="M9.65 8.3 L9.8 8.85 Q9.85 9.3 8.85 10.05 7.85 10.75 6.6 10.85 L2.9 10.85 Q0.45 10.75 -0.65 9.75 L-1.25 8.6 Q-1.25 8.0 -0.75 7.5 -0.5 7.15 0.35 6.9 L5.1 6.65 Q8.2 7.0 9.25 7.8 L9.65 8.3" fill="url(#gradient1)" fill-rule="evenodd" stroke="none"/>
      <path d="M3.4 7.9 Q0.8 7.95 -1.2 8.9 -1.35 8.6 -1.0 8.0 L-0.65 7.4 -0.45 7.2 Q-0.1 6.95 0.45 6.8 L5.2 6.6 Q8.3 6.95 9.35 7.7 L9.75 8.2 9.75 8.4 Q9.65 9.1 9.05 9.6 6.85 7.8 3.4 7.9" fill="url(#gradient2)" fill-rule="evenodd" stroke="none"/>
      <path d="M8.65 8.6 Q8.65 9.5 7.45 10.1 6.3 10.75 4.6 10.75 2.9 10.75 1.7 10.1 0.55 9.5 0.55 8.6 L0.45 7.75 Q0.5 7.35 0.95 7.1 L2.65 6.65 4.6 6.5 Q6.8 6.5 7.9 7.1 L8.6 7.8 8.65 8.6" fill="url(#gradient3)" fill-rule="evenodd" stroke="none"/>
    </g>
    <linearGradient gradientTransform="matrix(4.0E-4, -0.003, -0.0063, -2.0E-4, 4.45, 8.7)" gradientUnits="userSpaceOnUse" id="gradient1" spreadMethod="pad" x1="-819.2" x2="819.2">
      <stop offset="0.0" stop-color="#ffffff"/>
      <stop offset="0.3803921568627451" stop-color="#ededed"/>
      <stop offset="1.0" stop-color="#999999"/>
    </linearGradient>
    <linearGradient gradientTransform="matrix(1.0E-4, -0.0017, -0.0064, 0.0, 4.55, 7.9)" gradientUnits="userSpaceOnUse" id="gradient2" spreadMethod="pad" x1="-819.2" x2="819.2">
      <stop offset="0.0" stop-color="#9f9f9f"/>
      <stop offset="1.0" stop-color="#3a0d0d" stop-opacity="0.8"/>
    </linearGradient>
    <linearGradient gradientTransform="matrix(-2.0E-4, -0.0025, 0.0053, -1.0E-4, -6.2, 8.4)" gradientUnits="userSpaceOnUse" id="gradient3" spreadMethod="pad" x1="-819.2" x2="819.2">
      <stop offset="0.0" stop-color="#80575a"/>
      <stop offset="0.23529411764705882" stop-color="#736e66"/>
      <stop offset="1.0" stop-color="#3c5433"/>
    </linearGradient>
    <g id="sprite0" transform="matrix(1.0, 0.0, 0.0, 1.0, 0.4, -0.15)">
      <use ffdec:characterId="4" height="37.0" transform="matrix(-0.0668, 0.0, 0.0, 0.0668, 2.5, 0.4)" width="34.0" xlink:href="#sprite1"/>
      <use ffdec:characterId="5" height="8.25" transform="matrix(1.0, 0.0, 0.0, 1.0, -0.4, 0.15)" width="7.65" xlink:href="#shape3"/>
      <use ffdec:characterId="11" height="6.45" transform="matrix(-1.0, 0.0, 0.0, 1.0, 6.75, 1.95)" width="6.05" xlink:href="#sprite2"/>
    </g>
    <g id="sprite1" transform="matrix(1.0, 0.0, 0.0, 1.0, 0.0, 0.0)">
      <use ffdec:characterId="3" height="37.0" transform="matrix(1.0, 0.0, 0.0, 1.0, 0.0, 0.0)" width="34.0" xlink:href="#shape2"/>
    </g>
    <g id="shape2" transform="matrix(1.0, 0.0, 0.0, 1.0, 0.0, 0.0)">
      <path d="M17.0 0.0 Q24.05 0.0 29.05 5.55 34.0 11.15 34.0 19.0 34.0 26.75 29.05 31.9 24.15 37.0 17.0 37.0 9.85 37.0 5.0 31.9 0.0 26.75 0.0 19.0 0.0 11.15 5.0 5.55 9.95 0.0 17.0 0.0" fill="#ffffff" fill-rule="evenodd" stroke="none"/>
    </g>
    <g id="shape3" transform="matrix(1.0, 0.0, 0.0, 1.0, 0.4, -0.15)">
      <path d="M6.8 1.9 L7.25 3.3 7.05 4.85 Q6.75 6.6 5.5 7.6 4.3 8.6 2.7 8.35 1.2 8.15 0.25 6.75 -0.6 5.45 -0.3 3.7 L-0.15 2.1 Q0.0 1.35 0.5 0.85 1.05 0.45 2.2 0.25 L4.0 0.2 Q6.05 0.55 6.8 1.9" fill="url(#gradient4)" fill-rule="evenodd" stroke="none"/>
    </g>
    <linearGradient gradientTransform="matrix(-7.0E-4, 0.0048, -0.0048, -8.0E-4, 13.3, 5.55)" gradientUnits="userSpaceOnUse" id="gradient4" spreadMethod="pad" x1="-819.2" x2="819.2">
      <stop offset="0.14901960784313725" stop-color="#461c1c"/>
      <stop offset="0.47058823529411764" stop-color="#547364"/>
      <stop offset="0.6941176470588235" stop-color="#a4bdaf"/>
      <stop offset="1.0" stop-color="#bcd7b1"/>
    </linearGradient>
    <g id="sprite2" transform="matrix(1.0, 0.0, 0.0, 1.0, 0.0, 0.3)">
      <use ffdec:characterId="7" height="70.45" transform="matrix(0.0668, 0.0, 0.0, 0.0668, -0.0033, 1.3467)" width="90.6" xlink:href="#sprite3"/>
      <use ffdec:characterId="9" height="64.6" transform="matrix(0.0668, 0.0, 0.0, 0.0668, -0.0033, 1.85)" width="63.05" xlink:href="#sprite4"/>
      <use ffdec:characterId="10" height="4.95" transform="matrix(1.0, 0.0, 0.0, 1.0, 1.0, -0.3)" width="4.8" xlink:href="#shape6"/>
    </g>
    <g id="sprite3" transform="matrix(1.0, 0.0, 0.0, 1.0, 0.05, 0.05)">
      <use ffdec:characterId="6" height="70.45" transform="matrix(1.0, 0.0, 0.0, 1.0, -0.05, -0.05)" width="90.6" xlink:href="#shape4"/>
    </g>
    <g id="shape4" transform="matrix(1.0, 0.0, 0.0, 1.0, 0.05, 0.05)">
      <path d="M4.55 0.3 Q5.5 1.55 5.55 7.1 5.55 10.95 6.3 14.55 9.7 31.6 27.45 47.55 36.35 55.55 44.55 60.1 57.75 65.05 75.45 53.05 84.35 47.1 90.55 40.1 79.3 64.5 56.8 69.25 45.55 71.6 36.55 69.1 17.55 65.15 8.1 50.1 0.75 38.4 0.05 22.0 -0.55 8.95 2.45 1.95 3.65 -0.85 4.55 0.3" fill="#ffffff" fill-rule="evenodd" stroke="none"/>
    </g>
    <g id="sprite4" transform="matrix(1.0, 0.0, 0.0, 1.0, 0.05, 0.0)">
      <use ffdec:characterId="8" height="64.6" transform="matrix(1.0, 0.0, 0.0, 1.0, -0.05, 0.0)" width="63.05" xlink:href="#shape5"/>
    </g>
    <g id="shape5" transform="matrix(1.0, 0.0, 0.0, 1.0, 0.05, 0.0)">
      <path d="M61.0 46.0 L63.0 64.0 51.55 64.5 51.9 45.35 61.0 46.0" fill="url(#gradient5)" fill-rule="evenodd" stroke="none"/>
      <path d="M18.0 3.0 Q18.75 8.0 21.1 14.55 L0.45 12.95 Q-0.15 6.25 0.0 0.0 L18.0 3.0" fill="url(#gradient6)" fill-rule="evenodd" stroke="none"/>
      <path d="M37.25 38.6 L18.25 52.35 Q13.4 48.1 9.7 42.4 L28.75 29.55 Q32.5 34.9 37.25 38.6" fill="url(#gradient7)" fill-rule="evenodd" stroke="none"/>
      <path d="M5.95 35.3 Q3.05 28.75 1.55 20.8 L21.75 16.2 Q24.35 23.15 28.25 28.8 L5.95 35.3" fill="url(#gradient8)" fill-rule="evenodd" stroke="none"/>
      <path d="M49.95 44.85 L42.1 63.4 Q33.85 61.85 26.9 58.25 L39.75 40.35 Q44.35 43.45 49.95 44.85" fill="url(#gradient9)" fill-rule="evenodd" stroke="none"/>
    </g>
    <radialGradient cx="0" cy="0" gradientTransform="matrix(0.0136, 0.0, 0.0, 0.0136, 57.3, 54.95)" gradientUnits="userSpaceOnUse" id="gradient5" r="819.2" spreadMethod="pad">
      <stop offset="0.0" stop-color="#ffffff"/>
      <stop offset="1.0" stop-color="#e9f3b0"/>
    </radialGradient>
    <radialGradient cx="0" cy="0" gradientTransform="matrix(0.0167, 0.0, 0.0, 0.0167, 10.55, 7.3)" gradientUnits="userSpaceOnUse" id="gradient6" r="819.2" spreadMethod="pad">
      <stop offset="0.0" stop-color="#ffffff"/>
      <stop offset="1.0" stop-color="#e9f3b0"/>
    </radialGradient>
    <radialGradient cx="0" cy="0" gradientTransform="matrix(0.04, -0.0497, 0.046, 0.037, 33.65, 28.65)" gradientUnits="userSpaceOnUse" id="gradient7" r="819.2" spreadMethod="pad">
      <stop offset="0.0" stop-color="#ffffff"/>
      <stop offset="1.0" stop-color="#e9f3b0"/>
    </radialGradient>
    <radialGradient cx="0" cy="0" gradientTransform="matrix(0.0174, 0.0, 0.0, 0.0174, 14.9, 25.75)" gradientUnits="userSpaceOnUse" id="gradient8" r="819.2" spreadMethod="pad">
      <stop offset="0.0" stop-color="#ffffff"/>
      <stop offset="1.0" stop-color="#e9f3b0"/>
    </radialGradient>
    <radialGradient cx="0" cy="0" gradientTransform="matrix(0.017, 0.0, 0.0, 0.017, 38.45, 51.9)" gradientUnits="userSpaceOnUse" id="gradient9" r="819.2" spreadMethod="pad">
      <stop offset="0.0" stop-color="#ffffff"/>
      <stop offset="1.0" stop-color="#e9f3b0"/>
    </radialGradient>
    <g id="shape6" transform="matrix(1.0, 0.0, 0.0, 1.0, -1.0, 0.3)">
      <path d="M5.25 3.85 Q4.6 4.6 3.55 4.65 2.6 4.7 1.85 4.05 1.1 3.35 1.0 2.3 0.95 1.2 1.6 0.5 2.25 -0.25 3.2 -0.3 4.25 -0.35 5.0 0.3 5.75 0.9 5.8 2.0 5.9 3.05 5.25 3.85" fill="url(#gradient10)" fill-rule="evenodd" stroke="none"/>
    </g>
    <linearGradient gradientTransform="matrix(0.0, -0.0029, 0.0031, -1.0E-4, 3.35, 2.15)" gradientUnits="userSpaceOnUse" id="gradient10" spreadMethod="pad" x1="-819.2" x2="819.2">
      <stop offset="0.0" stop-color="#a29988"/>
      <stop offset="0.20392156862745098" stop-color="#9ca8a0"/>
      <stop offset="0.26666666666666666" stop-color="#94a199"/>
      <stop offset="0.6" stop-color="#435f53"/>
      <stop offset="1.0" stop-color="#49332f"/>
    </linearGradient>
    <g id="sprite5" transform="matrix(1.0, 0.0, 0.0, 1.0, 2.05, 2.2)">
      <use ffdec:characterId="13" height="41.45" transform="matrix(1.0, 0.0, 0.0, 1.0, -2.05, -2.2)" width="38.1" xlink:href="#shape7"/>
    </g>
    <g id="shape7" transform="matrix(1.0, 0.0, 0.0, 1.0, 2.05, 2.2)">
      <path d="M17.0 -2.2 Q24.9 -2.2 30.5 4.0 36.05 10.25 36.05 19.0 36.05 27.75 30.5 33.55 25.0 39.25 17.0 39.25 9.0 39.25 3.55 33.55 -2.05 27.75 -2.05 19.0 -2.05 10.25 3.55 4.0 9.1 -2.2 17.0 -2.2" fill="url(#gradient11)" fill-rule="evenodd" stroke="none"/>
    </g>
    <radialGradient cx="0" cy="0" gradientTransform="matrix(0.0265, 0.0, 0.0, 0.0265, 17.0, 18.5)" gradientUnits="userSpaceOnUse" id="gradient11" r="819.2" spreadMethod="pad">
      <stop offset="0.0" stop-color="#faf0dc"/>
      <stop offset="0.5843137254901961" stop-color="#e7d9c7" stop-opacity="0.8980392"/>
      <stop offset="1.0" stop-color="#ffffff" stop-opacity="0.0"/>
    </radialGradient>
    <g id="shape8" transform="matrix(1.0, 0.0, 0.0, 1.0, 2.85, -5.65)">
      <path d="M0.6 9.7 Q0.5 9.55 0.75 9.45 L1.2 9.35 1.75 9.35 Q2.05 9.4 2.1 9.55 L1.95 9.75 1.45 9.9 0.9 9.85 0.6 9.7 M6.6 7.65 L7.1 7.75 7.35 8.0 7.1 8.25 6.6 8.4 6.1 8.25 5.85 8.0 6.1 7.75 6.6 7.65" fill="#ffffff" fill-rule="evenodd" stroke="none"/>
      <path d="M-1.8 7.3 L-2.25 7.65 -2.2 7.1 -0.75 6.5 3.2 6.0 Q-0.35 6.5 -1.8 7.3" fill="#d4b18e" fill-rule="evenodd" stroke="none"/>
      <path d="M-2.25 9.1 L-2.25 9.05 -2.2 9.05 -2.25 9.1" fill="#a87676" fill-rule="evenodd" stroke="none"/>
      <path d="M-2.15 9.0 L-1.8 8.65 -1.65 8.55 -1.15 8.2 -1.1 8.15 -1.05 8.15 -0.95 8.05 -0.9 8.05 -0.55 7.85 -0.5 7.85 -0.35 7.75 0.55 7.35 2.15 6.95 4.35 6.8 5.8 6.9 6.7 7.1 7.45 7.3 8.2 7.55 8.5 7.65 8.7 7.75 9.15 7.9 9.25 7.95 8.7 7.55 8.55 7.45 8.2 7.25 7.45 6.95 7.0 6.8 7.45 6.9 8.2 7.1 8.5 7.2 8.7 7.3 Q9.15 7.45 9.6 7.75 L10.0 8.0 10.05 8.0 10.15 8.1 10.2 8.1 9.2 7.25 9.6 7.55 10.65 8.25 11.7 8.45 11.8 8.45 11.7 8.5 10.9 8.6 10.45 8.6 10.25 8.55 10.3 8.8 10.3 9.45 10.05 9.9 9.85 10.15 9.6 10.3 8.9 10.55 8.9 10.5 8.8 10.55 8.7 10.6 8.45 10.65 8.3 10.65 8.25 10.65 8.4 10.55 8.65 10.4 8.7 10.35 8.8 10.25 8.85 10.2 9.1 9.9 9.15 9.75 9.15 9.55 8.95 8.75 8.7 8.45 8.6 8.35 8.55 8.3 8.45 8.25 8.2 8.15 7.45 7.8 5.55 7.35 2.8 7.3 2.75 7.3 1.35 7.45 Q0.9 7.55 0.4 7.75 L-1.0 8.35 -2.1 9.0 -2.15 9.0 M9.2 7.25 L8.7 7.1 8.2 6.9 7.45 6.7 2.1 6.5 1.95 6.55 1.6 6.6 0.85 6.85 Q-0.05 7.05 -0.75 7.4 L-2.25 6.75 -2.3 6.45 -2.05 6.7 -1.9 6.8 -0.4 7.15 -0.35 7.15 0.0 6.95 -0.65 6.65 -0.8 6.45 -0.9 6.25 Q-0.3 6.8 0.4 6.8 L-0.05 6.6 0.0 6.6 -0.2 6.4 0.3 6.55 0.35 6.55 0.8 6.65 1.1 6.55 1.0 6.55 1.8 6.45 1.4 6.2 1.15 5.8 3.05 6.2 3.25 6.2 4.1 6.2 4.3 6.2 4.25 6.1 4.2 6.0 4.25 5.7 4.25 5.75 4.3 5.65 4.45 5.9 4.5 5.95 4.5 6.0 5.25 6.2 5.35 6.25 5.45 6.25 5.55 6.25 7.45 6.55 8.2 6.8 8.7 7.0 9.2 7.25" fill="url(#gradient12)" fill-rule="evenodd" stroke="none"/>
      <path d="M9.2 7.25 L10.2 8.1 10.15 8.1 10.05 8.0 10.0 8.0 9.6 7.75 Q9.15 7.45 8.7 7.3 L8.5 7.2 8.2 7.1 7.45 6.9 7.0 6.8 7.45 6.95 8.2 7.25 8.55 7.45 8.7 7.55 9.25 7.95 9.15 7.9 8.7 7.75 8.5 7.65 8.2 7.55 7.45 7.3 6.7 7.1 5.8 6.9 4.35 6.8 2.15 6.95 0.55 7.35 -0.35 7.75 -0.5 7.85 -0.55 7.85 -0.9 8.05 -0.95 8.05 -1.05 8.15 -1.1 8.15 -1.15 8.2 -1.65 8.55 -1.8 8.65 -2.15 9.0 -2.25 9.05 -2.3 9.1 -2.2 8.95 -2.0 8.65 -1.45 8.0 -2.85 7.8 -1.3 7.8 -1.15 7.7 -1.1 7.65 -1.0 7.6 -1.0 7.55 -0.85 7.45 -0.8 7.45 -0.75 7.4 Q-0.05 7.05 0.85 6.85 L1.6 6.6 1.95 6.55 2.1 6.5 7.45 6.7 8.2 6.9 8.7 7.1 9.2 7.25" fill="url(#gradient13)" fill-rule="evenodd" stroke="none"/>
      <path d="M2.45 10.8 L2.7 10.85 3.55 10.95 3.05 10.85 2.85 10.8 6.4 10.95 5.85 11.05 5.45 11.1 5.3 11.15 5.45 11.25 5.15 11.1 4.65 11.15 4.6 11.3 4.45 11.15 3.6 11.15 3.0 11.1 2.5 11.0 3.4 11.0 2.85 10.95 2.4 10.9 2.4 10.8 2.45 10.8" fill="url(#gradient14)" fill-rule="evenodd" stroke="none"/>
    </g>
    <radialGradient cx="0" cy="0" gradientTransform="matrix(0.0093, 0.0, 0.0, 0.0044, 3.75, 8.8)" gradientUnits="userSpaceOnUse" id="gradient12" r="819.2" spreadMethod="pad">
      <stop offset="0.0" stop-color="#481c1c"/>
      <stop offset="0.5764705882352941" stop-color="#461c1c"/>
      <stop offset="1.0" stop-color="#a87676"/>
    </radialGradient>
    <linearGradient gradientTransform="matrix(0.0061, 0.0, 0.0, 0.473, 3.35, 5.95)" gradientUnits="userSpaceOnUse" id="gradient13" spreadMethod="pad" x1="-819.2" x2="819.2">
      <stop offset="0.0" stop-color="#592e2e"/>
      <stop offset="0.48627450980392156" stop-color="#a87676"/>
      <stop offset="0.9568627450980393" stop-color="#7a4c4c"/>
    </linearGradient>
    <linearGradient gradientTransform="matrix(0.0024, 1.0E-4, -1.0E-4, 4.0E-4, 4.35, 11.15)" gradientUnits="userSpaceOnUse" id="gradient14" spreadMethod="pad" x1="-819.2" x2="819.2">
      <stop offset="0.0" stop-color="#774d4d"/>
      <stop offset="1.0" stop-color="#481c1c"/>
    </linearGradient>
  </defs>
</svg>
