<svg xmlns="http://www.w3.org/2000/svg" xmlns:ffdec="https://www.free-decompiler.com/flash" xmlns:xlink="http://www.w3.org/1999/xlink" ffdec:objectType="frame" width="14.95" height="11.95"><use ffdec:characterId="7" xlink:href="#a" width="14.95" height="11.95"/><defs><linearGradient id="b" x1="-819.2" x2="819.2" gradientTransform="rotate(88.264 -1.475 5.183)scale(.0066)" gradientUnits="userSpaceOnUse" spreadMethod="pad"><stop offset="0" stop-color="#1d4968"/><stop offset=".682" stop-color="#37d7b7"/></linearGradient><g id="a" fill-rule="evenodd"><path fill="#fff" d="m12.15 4.3-.25 3.2-.6 2.05-.05.05v.15q-.95.9-2.05 1.35l-.5.2v-.05l-.25.1-2.45.4-.25.15-1.1-.1-.5-.1-.3.05-.75-.4-.9-.55v-.05Q1.05 9.85.7 8.1L.5 5.55l.15-.2Q1.35 4.2 2.9 3.3h.05Q4.8 2.2 7.3 1.9l3.2.35q1.55.65 1.65 2.05"/><path fill="url(#b)" d="M5.45 1.35q2.15.55 2.7 2.6.6 2.1-.65 5.2-1.2 3.05-5.3 2.7Q.4 11.7-.35 9.8q-.6-1.45-.45-3.45.15-3.05 1.95-4.4 1.7-1.3 4.3-.6" transform="translate(2.35 -.4)"/><path fill="#fff" fill-opacity=".251" d="m8.35 5.7.7.05q-.1 2.15-.95 3.4-.95 1.35-2.35 1.35-1.45 0-2.4-.9l-.3-.5q-.7-1-.6-3.6h.85l-.05.3q-.05.6.05 1.1l.2.55.4.85q.45.65 2.05.85h.4l.95-.4.65-.75q.35-.6.4-1.8z"/><path fill="#194e5b" fill-opacity=".988" d="m6 2.7.3.9.2 2.1v.5l-.1 1.65-.2.95-.25.5-.2.05-.15-.15-.15-.25v-.1L5.25 8l-.1-1.1V5.8l.05-.65.2-1.65q.3-1.2.6-.8"/><path fill="#fff" d="M3.35 5.15q-.7-.45-.65-1.2 0-.5.5-.9.45-.4 1.05-.4t1 .55q.4.25.35.9 0 .5-.55.9L4 5.35z"/><path fill="#fff" fill-opacity=".4" d="m5.15 9.6.05-.2.05-.35q.45-1 1.55-1 .5 0 .85.3L8.3 9l.15.55q-.05.7-.6 1.2l-1.2.4q-1-.05-1.4-.95z"/><path fill-opacity=".251" d="M3.05 3.8Q1.3 4.75.5 6.5l-.1-.8q0-1.5 1.8-2.75 1.6-1.1 4.25-1.85l1.5-.15q4.95 0 4.95 4.5l-.15.75-1.85-1.85q-1.35-1-3.35-1.3h-.8q-2-.15-3.7.75"/><path fill="#3a2d2b" d="m2.65 11.3-.3-.2.25.1-.05-.05.7.25 1.7.25h1.7l1.4-.2.8-.2q-.15.05-.75.35l-2.75.35q-2.05 0-2.7-.65m11-9.7h-.3l-.8-.2-.3-.05.25.2.15.1Q14 2.75 14.4 3.8l.55 1.5h-.05l-.1-.05q-.45-.45-1.15-.65-.2 1.95-1 3.35t-1.4 1.7V9.6l.05-.05.6-2.05.25-3.2q-.1-1.4-1.65-2.05L7.3 1.9q-2.5.3-4.35 1.4H2.9Q1.35 4.2.65 5.35l-.15.2L.3 6l-.1.05-.1.3-.1.1.05-.5V5.9q.3-2.85 3.05-4.5.95-.6 2.05-.95Q4.5.55 3.8.8 1.65 1.4.65 2.6l-.1.05L.5 2.6l-.1.05.2-.2Q1.9 1.05 3.75.5 5.6-.1 7.15.05h.1l.9-.05 1.1.1h.05q2.5.15 4.3 1.25l.45.3q.45.25.1.1z"/></g></defs></svg>