<?xml version="1.0" encoding="UTF-8" standalone="no"?>
<svg xmlns:ffdec="https://www.free-decompiler.com/flash" xmlns:xlink="http://www.w3.org/1999/xlink" ffdec:objectType="frame" height="10.2px" width="16.2px" xmlns="http://www.w3.org/2000/svg">
  <g transform="matrix(1.0, 0.0, 0.0, 1.0, 2.9, 0.0)">
    <use ffdec:characterId="12" height="4.6" transform="matrix(1.0, 0.0, 0.0, 1.0, -0.75, 4.35)" width="11.95" xlink:href="#shape0"/>
  </g>
  <defs>
    <g id="shape0" transform="matrix(1.0, 0.0, 0.0, 1.0, 0.75, -4.35)">
      <path d="M0.25 7.7 L0.6 8.05 0.25 7.7 -0.25 8.7 0.6 8.05 2.55 8.65 6.35 8.8 7.8 8.45 8.6 8.1 8.85 7.95 9.35 7.7 9.4 7.65 Q10.65 7.0 11.15 5.85 L10.5 6.25 10.0 6.3 10.45 5.5 10.6 4.4 Q9.45 6.2 8.1 6.75 6.8 7.35 5.0 7.55 2.35 7.95 -0.7 6.2 L0.2 6.9 0.2 7.35 0.25 7.7" fill="#3a2d2b" fill-rule="evenodd" stroke="none"/>
      <path d="M0.6 8.05 L0.25 7.7 0.2 7.35 0.2 6.9 -0.7 6.2 Q2.35 7.95 5.0 7.55 6.8 7.35 8.1 6.75 9.45 6.2 10.6 4.4 L10.45 5.5 10.0 6.3 10.5 6.25 11.15 5.85 Q10.65 7.0 9.4 7.65 L9.35 7.7 8.85 7.95 8.6 8.1 7.8 8.45 6.35 8.8 2.55 8.65 0.6 8.05 -0.25 8.7 0.25 7.7 M0.2 5.05 Q2.05 6.15 4.25 6.05" fill="none" stroke="#3a2d2b" stroke-linecap="round" stroke-linejoin="round" stroke-width="0.15000000000000002"/>
    </g>
  </defs>
</svg>
