<svg xmlns="http://www.w3.org/2000/svg" xmlns:ffdec="https://www.free-decompiler.com/flash" xmlns:xlink="http://www.w3.org/1999/xlink" ffdec:objectType="frame" width="16.2" height="10.2"><use ffdec:characterId="12" xlink:href="#a" width="11.95" height="4.6" transform="translate(2.15 4.35)"/><defs><g id="a"><path fill="#3a2d2b" fill-rule="evenodd" d="m1 3.35.35.35zl-.5 1 .85-.65 1.95.6 3.8.15 1.45-.35.8-.35.25-.15.5-.25.05-.05q1.25-.65 1.75-1.8l-.65.4-.5.05.45-.8.15-1.1q-1.15 1.8-2.5 2.35-1.3.6-3.1.8-2.65.4-5.7-1.35l.9.7V3z"/><path fill="none" stroke="#3a2d2b" stroke-linecap="round" stroke-linejoin="round" stroke-width=".15" d="M1.35 3.7 1 3.35.95 3v-.45l-.9-.7Q3.1 3.6 5.75 3.2q1.8-.2 3.1-.8 1.35-.55 2.5-2.35l-.15 1.1-.45.8.5-.05.65-.4q-.5 1.15-1.75 1.8l-.05.05-.5.25-.25.15-.8.35-1.45.35-3.8-.15zl-.85.65.5-1M.95.7Q2.8 1.8 5 1.7"/></g></defs></svg>