<svg xmlns="http://www.w3.org/2000/svg" xmlns:ffdec="https://www.free-decompiler.com/flash" xmlns:xlink="http://www.w3.org/1999/xlink" ffdec:objectType="frame" width="16.2" height="10.2"><g transform="translate(2.9)"><use ffdec:characterId="9" xlink:href="#a" width="8.35" height="8.05" transform="matrix(1 0 0 .7043 .5 4.45)"/><use ffdec:characterId="13" xlink:href="#b" width="16.2" height="7.15" transform="translate(-2.9 3.05)"/></g><defs><linearGradient id="d" x1="-819.2" x2="819.2" gradientTransform="matrix(0 .0047 .0047 0 6.35 3.65)" gradientUnits="userSpaceOnUse" spreadMethod="pad"><stop offset="0" stop-color="#7e7e7e"/><stop offset="1" stop-color="#151515"/></linearGradient><linearGradient id="e" x1="-819.2" x2="819.2" gradientTransform="matrix(0 .0047 .0047 0 3.95 3.6)" gradientUnits="userSpaceOnUse" spreadMethod="pad"><stop offset="0" stop-color="#7e7e7e"/><stop offset="1" stop-color="#151515"/></linearGradient><linearGradient id="f" x1="-819.2" x2="819.2" gradientTransform="matrix(0 .0047 .0047 0 1.7 3.6)" gradientUnits="userSpaceOnUse" spreadMethod="pad"><stop offset="0" stop-color="#7e7e7e"/><stop offset="1" stop-color="#151515"/></linearGradient><g id="c" fill-rule="evenodd"><path fill="url(#d)" d="m8.2 1.05-1.4.4v.05l.1.45.6.35.25.4-.1.5.15.45-.5 1.6q-.1-.25-.4-.2-.15-.4-.95-.3l-.3.05v.1l-.75.5v.1l.3.6.15.2-.05.25.1.3.3.3-.3.2-1.1.35-1.1-.3-.25-.3-.1-.05-.45.25q-.75 0-1.55-2l.05-.5-.05-.2q-.3-.1-.4-1.5l.05-.35v-.2L.05 2.2 0 2.05l.05-.2.05-.15q.35-.6 1.75-1l.5-.1.1-.05L5.5.15 7.45 0z"/><path fill="url(#e)" d="m.05 2.2.45.35v.2l-.05.35q.1 1.4.4 1.5l.05.2-.05.5q.8 2 1.55 2l.45-.25.1.05.25.3 1.1.3 1.1-.35.3-.2-.3-.3-.1-.3.05-.25-.15-.2-.3-.6v-.1l.75-.5v-.1l.3-.05q.8-.1.95.3.3-.05.4.2l.5-1.6-.15-.45.1-.5-.25-.4-.6-.35-.1-.45v-.05l1.4-.4q.3 1.45 0 2.6L7.4 5.7v.05l.15.2-.15.25-.4.25-.15.15q-.15.75-1 1.1L4 8.05l-.9-.15.05-.1Q1.7 7.55.85 5.95.1 4.6.05 2.85zm.05-.5-.05.15V1.7z"/><path fill="url(#f)" d="m2.35.6-.5.1q-1.4.4-1.75 1H.05l.2-.7z"/></g><g id="b"><path fill-opacity=".4" fill-rule="evenodd" d="m6.5 2.3.25-.6 1.5-.15.5.85.2.65.05.7-.1.95-.1.25-.2.15q-.35.25-.35.45-.3-.25-.8-.25l-.5.1-.2.1-.25-.35-.15-.35-.1-.5v-.6l.1-.05.5-.5.05-.2-.25-.5zm1.8 3.35-.05-.05.1-.15z"/><path fill="#fff" fill-rule="evenodd" d="M13.85 2.4q-.15 1.65-1.5 3.15l-.3.2-1.4.65-.1.05-1.5.25 1.2-.65.05-.05.55-.6.4-.7.15-.8V2.4l-.55-1h3zm.3-.2-.1.1.1-.15zm-5.8 3.7-.2.35-.1.05-.65.15h-.15q-.75-.05-.75-.6l.25-.35.2-.1.5-.1q.5 0 .8.25l-.05.1.05-.05.05.05h-.05v.05zm-2.1-2.2-.95.15q-.8 0-1.15-.55l-.2-.4.15-.35q.55-.6 1.4-.6.45 0 1 .35l.15.15.25.5-.05.2-.5.5zm-2.8-1.1v.8l.3 1.3.5.9q.85 1.15 2.3 1.3l-2.5-.4q-.9-.5-1.7-1.8l-.2-.35q-.6-1.1-.55-1.7l2.05-.55z"/><path fill="#fff" fill-opacity=".498" fill-rule="evenodd" d="m8.8 4.95.55-.15.8.25.3.45-.35.5h-.05l-.8.2L9 6.15l-.65-.25-.1-.2v-.05h.05l.05-.2-.1.15-.05.05.05-.1q0-.2.35-.45z"/><path fill="url(#g)" fill-rule="evenodd" d="m.25 3.25-1.75.5q-1.15.45-1.4 1.15-.1-2.1 5-1.8z" transform="translate(2.9 -3.05)"/><path fill-opacity=".298" fill-rule="evenodd" d="m2 2.2 1.85-.65L7.6.85l1.5-.3 3.4.2q1.45.1 1.85.5l.1.35-.3.8-.25.65-.65-.2-4.1-.65H7.5q-2.55.15-3.75.7-1.2.6-1.6 1.1-.1.7-.4-.45Q1.4 2.4 2 2.2m6.3-.85h-.15L8 1.4zm.7-.1 1.35.1h1.45l-1.4-.15H9.1z"/><path fill="#3c312f" fill-rule="evenodd" d="m1.45 2.8-.1.1H1.3l-.05.1-.05.05L1.1 3l-.05-.05q-.3-.55 1.5-1.6L5.1.75l2.4-.1 1.75-.1h.7L12.7.5l3.5-.35-1.8.5q1.65.4 1.65 1.7l-.05.1h-.15l-.05-.05v-.05l-1.15-.6h-.05l-.05.1-.05.1q-.1 2.2-2.15 3.6 1.1-1.2 1.4-2.5l.05-.75-.05.1v-.9h-2.9l-2.55.15h-.05L6.8 1.8h-.05l-3.05.4-2 .5h-.05zm8.75 3.8-1.8.45h-.2l-1.55.05h-.4l-1.4-.25 1.8.1H7l2.05-.25 1.5-.25q-.15.1-.35.15"/><path fill="none" stroke="#3c312f" stroke-linecap="round" stroke-linejoin="round" stroke-width=".15" d="m4.85 6.85 1.4.25h.4l1.55-.05h.2l1.8-.45m.35-.15-1.5.25"/></g><radialGradient id="g" cx="0" cy="0" r="819.2" gradientTransform="matrix(.0014 .0019 .0027 -.001 -.5 3.1)" gradientUnits="userSpaceOnUse" spreadMethod="pad"><stop offset="0" stop-color="#3e3023"/><stop offset="1" stop-color="#33271f"/></radialGradient><use ffdec:characterId="1" xlink:href="#c" id="a" width="8.35" height="8.05"/></defs></svg>