<?xml version="1.0" encoding="UTF-8" standalone="no"?>
<svg xmlns:ffdec="https://www.free-decompiler.com/flash" xmlns:xlink="http://www.w3.org/1999/xlink" ffdec:objectType="frame" height="10.2px" width="16.2px" xmlns="http://www.w3.org/2000/svg">
  <g transform="matrix(1.0, 0.0, 0.0, 1.0, 2.9, 0.0)">
    <use ffdec:characterId="9" height="8.05" transform="matrix(1.0, 0.0, 0.0, 0.7043, 0.5, 4.45)" width="8.35" xlink:href="#sprite0"/>
    <use ffdec:characterId="13" height="7.15" transform="matrix(1.0, 0.0, 0.0, 1.0, -2.9, 3.05)" width="16.2" xlink:href="#shape1"/>
  </g>
  <defs>
    <g id="sprite0" transform="matrix(1.0, 0.0, 0.0, 1.0, 0.0, 0.0)">
      <use ffdec:characterId="1" height="8.05" transform="matrix(1.0, 0.0, 0.0, 1.0, 0.0, 0.0)" width="8.35" xlink:href="#shape0"/>
    </g>
    <g id="shape0" transform="matrix(1.0, 0.0, 0.0, 1.0, 0.0, 0.0)">
      <path d="M8.2 1.05 L6.8 1.45 6.8 1.5 6.9 1.95 7.5 2.3 7.75 2.7 7.65 3.2 7.8 3.65 7.3 5.25 Q7.2 5.0 6.9 5.05 6.75 4.65 5.95 4.75 L5.65 4.8 5.65 4.9 4.9 5.4 4.9 5.5 5.2 6.1 5.35 6.3 5.3 6.55 5.4 6.85 5.7 7.15 5.4 7.35 4.3 7.7 3.2 7.4 2.95 7.1 2.85 7.05 2.4 7.3 Q1.65 7.3 0.85 5.3 L0.9 4.8 0.85 4.6 Q0.55 4.5 0.45 3.1 L0.5 2.75 0.5 2.7 0.5 2.55 0.05 2.2 0.0 2.05 0.05 1.85 0.1 1.7 Q0.45 1.1 1.85 0.7 L2.35 0.6 2.45 0.55 5.5 0.15 7.45 0.0 8.2 1.05" fill="url(#gradient0)" fill-rule="evenodd" stroke="none"/>
      <path d="M0.05 2.2 L0.5 2.55 0.5 2.7 0.5 2.75 0.45 3.1 Q0.55 4.5 0.85 4.6 L0.9 4.8 0.85 5.3 Q1.65 7.3 2.4 7.3 L2.85 7.05 2.95 7.1 3.2 7.4 4.3 7.7 5.4 7.35 5.7 7.15 5.4 6.85 5.3 6.55 5.35 6.3 5.2 6.1 4.9 5.5 4.9 5.4 5.65 4.9 5.65 4.8 5.95 4.75 Q6.75 4.65 6.9 5.05 7.2 5.0 7.3 5.25 L7.8 3.65 7.65 3.2 7.75 2.7 7.5 2.3 6.9 1.95 6.8 1.5 6.8 1.45 8.2 1.05 Q8.5 2.5 8.2 3.65 L7.4 5.7 7.4 5.75 7.55 5.95 7.4 6.2 7.0 6.45 6.85 6.6 Q6.7 7.35 5.85 7.7 L4.0 8.05 3.1 7.9 3.15 7.8 Q1.7 7.55 0.85 5.95 0.1 4.6 0.05 2.85 L0.05 2.2 M0.1 1.7 L0.05 1.85 0.05 1.7 0.1 1.7" fill="url(#gradient1)" fill-rule="evenodd" stroke="none"/>
      <path d="M2.35 0.6 L1.85 0.7 Q0.45 1.1 0.1 1.7 L0.05 1.7 0.25 1.0 2.35 0.6" fill="url(#gradient2)" fill-rule="evenodd" stroke="none"/>
    </g>
    <linearGradient gradientTransform="matrix(0.0, 0.0047, 0.0047, 0.0, 6.35, 3.65)" gradientUnits="userSpaceOnUse" id="gradient0" spreadMethod="pad" x1="-819.2" x2="819.2">
      <stop offset="0.0" stop-color="#7e7e7e"/>
      <stop offset="1.0" stop-color="#151515"/>
    </linearGradient>
    <linearGradient gradientTransform="matrix(0.0, 0.0047, 0.0047, 0.0, 3.95, 3.6)" gradientUnits="userSpaceOnUse" id="gradient1" spreadMethod="pad" x1="-819.2" x2="819.2">
      <stop offset="0.0" stop-color="#7e7e7e"/>
      <stop offset="1.0" stop-color="#151515"/>
    </linearGradient>
    <linearGradient gradientTransform="matrix(0.0, 0.0047, 0.0047, 0.0, 1.7, 3.6)" gradientUnits="userSpaceOnUse" id="gradient2" spreadMethod="pad" x1="-819.2" x2="819.2">
      <stop offset="0.0" stop-color="#7e7e7e"/>
      <stop offset="1.0" stop-color="#151515"/>
    </linearGradient>
    <g id="shape1" transform="matrix(1.0, 0.0, 0.0, 1.0, 2.9, -3.05)">
      <path d="M3.6 5.35 L3.85 4.75 5.35 4.6 5.85 5.45 6.05 6.1 6.1 6.8 6.0 7.75 5.9 8.0 5.7 8.15 Q5.35 8.4 5.35 8.6 5.05 8.35 4.55 8.35 L4.05 8.45 3.85 8.55 3.6 8.2 3.45 7.85 3.35 7.35 3.35 6.75 3.45 6.7 3.95 6.2 4.0 6.0 3.75 5.5 3.6 5.35 M5.4 8.7 L5.35 8.65 5.45 8.5 5.4 8.7" fill="#000000" fill-opacity="0.4" fill-rule="evenodd" stroke="none"/>
      <path d="M10.95 5.45 Q10.8 7.1 9.45 8.6 L9.15 8.8 7.75 9.45 7.65 9.5 6.15 9.75 7.35 9.1 7.4 9.05 7.95 8.45 8.35 7.75 8.5 6.95 8.5 5.45 7.95 4.45 10.95 4.45 10.95 5.45 M11.25 5.25 L11.15 5.35 11.25 5.2 11.25 5.25 M5.45 8.95 L5.25 9.3 5.15 9.35 4.5 9.5 4.35 9.5 Q3.6 9.45 3.6 8.9 L3.85 8.55 4.05 8.45 4.55 8.35 Q5.05 8.35 5.35 8.6 L5.3 8.7 5.35 8.65 5.4 8.7 5.35 8.7 5.35 8.75 5.45 8.95 M3.35 6.75 L2.4 6.9 Q1.6 6.9 1.25 6.35 L1.05 5.95 1.2 5.6 Q1.75 5.0 2.6 5.0 3.05 5.0 3.6 5.35 L3.75 5.5 4.0 6.0 3.95 6.2 3.45 6.7 3.35 6.75 M0.55 5.65 L0.55 6.45 0.85 7.75 1.35 8.65 Q2.2 9.8 3.65 9.95 L1.15 9.55 Q0.25 9.05 -0.55 7.75 L-0.75 7.4 Q-1.35 6.3 -1.3 5.7 L0.75 5.15 0.55 5.65" fill="#ffffff" fill-rule="evenodd" stroke="none"/>
      <path d="M5.9 8.0 L6.45 7.85 7.25 8.1 7.55 8.55 7.2 9.05 7.15 9.05 6.35 9.25 6.1 9.2 5.45 8.95 5.35 8.75 5.35 8.7 5.4 8.7 5.45 8.5 5.35 8.65 5.3 8.7 5.35 8.6 Q5.35 8.4 5.7 8.15 L5.9 8.0" fill="#ffffff" fill-opacity="0.49803922" fill-rule="evenodd" stroke="none"/>
      <path d="M0.25 3.25 L-1.5 3.75 Q-2.65 4.2 -2.9 4.9 -3.0 2.8 2.1 3.1 L0.25 3.25" fill="url(#gradient3)" fill-rule="evenodd" stroke="none"/>
      <path d="M-0.9 5.25 L0.95 4.6 4.7 3.9 6.2 3.6 9.6 3.8 Q11.05 3.9 11.45 4.3 L11.55 4.65 11.25 5.45 11.0 6.1 10.35 5.9 6.25 5.25 4.6 5.25 Q2.05 5.4 0.85 5.95 -0.35 6.55 -0.75 7.05 -0.85 7.75 -1.15 6.6 -1.5 5.45 -0.9 5.25 M5.4 4.4 L5.25 4.4 5.1 4.45 5.4 4.4 M6.1 4.3 L7.45 4.4 8.9 4.4 7.5 4.25 6.2 4.25 6.1 4.3" fill="#000000" fill-opacity="0.29803923" fill-rule="evenodd" stroke="none"/>
      <path d="M-1.45 5.85 L-1.55 5.95 -1.6 5.95 -1.65 6.05 -1.7 6.1 -1.8 6.05 -1.85 6.0 Q-2.15 5.45 -0.35 4.4 L2.2 3.8 4.6 3.7 6.35 3.6 7.05 3.6 9.8 3.55 13.3 3.2 11.5 3.7 Q13.15 4.1 13.15 5.4 L13.1 5.5 13.05 5.5 12.95 5.5 12.9 5.45 12.9 5.4 11.75 4.8 11.7 4.8 11.65 4.9 11.6 5.0 Q11.5 7.2 9.45 8.6 10.55 7.4 10.85 6.1 L10.9 5.35 10.85 5.45 10.85 4.55 8.0 4.55 7.95 4.55 5.4 4.7 5.35 4.7 3.9 4.85 3.85 4.85 0.8 5.25 -1.2 5.75 -1.25 5.75 -1.45 5.85 M7.3 9.65 L5.5 10.1 5.35 10.1 5.3 10.1 3.75 10.15 3.35 10.15 1.95 9.9 3.75 10.0 4.1 10.0 6.15 9.75 7.65 9.5 Q7.5 9.6 7.3 9.65" fill="#3c312f" fill-rule="evenodd" stroke="none"/>
      <path d="M1.95 9.9 L3.35 10.15 3.75 10.15 5.3 10.1 5.35 10.1 5.5 10.1 7.3 9.65 M7.65 9.5 L6.15 9.75" fill="none" stroke="#3c312f" stroke-linecap="round" stroke-linejoin="round" stroke-width="0.15000000000000002"/>
    </g>
    <radialGradient cx="0" cy="0" gradientTransform="matrix(0.0014, 0.0019, 0.0027, -0.001, -0.5, 3.1)" gradientUnits="userSpaceOnUse" id="gradient3" r="819.2" spreadMethod="pad">
      <stop offset="0.0" stop-color="#3e3023"/>
      <stop offset="1.0" stop-color="#33271f"/>
    </radialGradient>
  </defs>
</svg>
