<?xml version="1.0" encoding="UTF-8" standalone="no"?>
<svg xmlns:ffdec="https://www.free-decompiler.com/flash" xmlns:xlink="http://www.w3.org/1999/xlink" ffdec:objectType="frame" height="10.2px" width="16.2px" xmlns="http://www.w3.org/2000/svg">
  <g transform="matrix(1.0, 0.0, 0.0, 1.0, 2.9, 0.0)">
    <use ffdec:characterId="9" height="8.05" transform="matrix(1.0, 0.0, 0.0, 1.0, 0.5, 2.0)" width="8.35" xlink:href="#sprite0"/>
    <use ffdec:characterId="14" height="10.15" transform="matrix(1.0, 0.0, 0.0, 1.0, -2.9, 0.0)" width="16.2" xlink:href="#shape1"/>
  </g>
  <defs>
    <g id="sprite0" transform="matrix(1.0, 0.0, 0.0, 1.0, 0.0, 0.0)">
      <use ffdec:characterId="1" height="8.05" transform="matrix(1.0, 0.0, 0.0, 1.0, 0.0, 0.0)" width="8.35" xlink:href="#shape0"/>
    </g>
    <g id="shape0" transform="matrix(1.0, 0.0, 0.0, 1.0, 0.0, 0.0)">
      <path d="M8.2 1.05 L6.8 1.45 6.8 1.5 6.9 1.95 7.5 2.3 7.75 2.7 7.65 3.2 7.8 3.65 7.3 5.25 Q7.2 5.0 6.9 5.05 6.75 4.65 5.95 4.75 L5.65 4.8 5.65 4.9 4.9 5.4 4.9 5.5 5.2 6.1 5.35 6.3 5.3 6.55 5.4 6.85 5.7 7.15 5.4 7.35 4.3 7.7 3.2 7.4 2.95 7.1 2.85 7.05 2.4 7.3 Q1.65 7.3 0.85 5.3 L0.9 4.8 0.85 4.6 Q0.55 4.5 0.45 3.1 L0.5 2.75 0.5 2.7 0.5 2.55 0.05 2.2 0.0 2.05 0.05 1.85 0.1 1.7 Q0.45 1.1 1.85 0.7 L2.35 0.6 2.45 0.55 5.5 0.15 7.45 0.0 8.2 1.05" fill="url(#gradient0)" fill-rule="evenodd" stroke="none"/>
      <path d="M0.05 2.2 L0.5 2.55 0.5 2.7 0.5 2.75 0.45 3.1 Q0.55 4.5 0.85 4.6 L0.9 4.8 0.85 5.3 Q1.65 7.3 2.4 7.3 L2.85 7.05 2.95 7.1 3.2 7.4 4.3 7.7 5.4 7.35 5.7 7.15 5.4 6.85 5.3 6.55 5.35 6.3 5.2 6.1 4.9 5.5 4.9 5.4 5.65 4.9 5.65 4.8 5.95 4.75 Q6.75 4.65 6.9 5.05 7.2 5.0 7.3 5.25 L7.8 3.65 7.65 3.2 7.75 2.7 7.5 2.3 6.9 1.95 6.8 1.5 6.8 1.45 8.2 1.05 Q8.5 2.5 8.2 3.65 L7.4 5.7 7.4 5.75 7.55 5.95 7.4 6.2 7.0 6.45 6.85 6.6 Q6.7 7.35 5.85 7.7 L4.0 8.05 3.1 7.9 3.15 7.8 Q1.7 7.55 0.85 5.95 0.1 4.6 0.05 2.85 L0.05 2.2 M0.1 1.7 L0.05 1.85 0.05 1.7 0.1 1.7" fill="url(#gradient1)" fill-rule="evenodd" stroke="none"/>
      <path d="M2.35 0.6 L1.85 0.7 Q0.45 1.1 0.1 1.7 L0.05 1.7 0.25 1.0 2.35 0.6" fill="url(#gradient2)" fill-rule="evenodd" stroke="none"/>
    </g>
    <linearGradient gradientTransform="matrix(0.0, 0.0047, 0.0047, 0.0, 6.35, 3.65)" gradientUnits="userSpaceOnUse" id="gradient0" spreadMethod="pad" x1="-819.2" x2="819.2">
      <stop offset="0.0" stop-color="#7e7e7e"/>
      <stop offset="1.0" stop-color="#151515"/>
    </linearGradient>
    <linearGradient gradientTransform="matrix(0.0, 0.0047, 0.0047, 0.0, 3.95, 3.6)" gradientUnits="userSpaceOnUse" id="gradient1" spreadMethod="pad" x1="-819.2" x2="819.2">
      <stop offset="0.0" stop-color="#7e7e7e"/>
      <stop offset="1.0" stop-color="#151515"/>
    </linearGradient>
    <linearGradient gradientTransform="matrix(0.0, 0.0047, 0.0047, 0.0, 1.7, 3.6)" gradientUnits="userSpaceOnUse" id="gradient2" spreadMethod="pad" x1="-819.2" x2="819.2">
      <stop offset="0.0" stop-color="#7e7e7e"/>
      <stop offset="1.0" stop-color="#151515"/>
    </linearGradient>
    <g id="shape1" transform="matrix(1.0, 0.0, 0.0, 1.0, 2.9, 0.0)">
      <path d="M3.6 3.25 L3.85 2.4 5.35 2.2 5.85 3.4 6.05 4.35 6.1 5.3 6.0 6.65 5.9 7.05 5.7 7.25 Q5.35 7.6 5.35 7.9 5.05 7.5 4.55 7.5 L4.05 7.65 3.85 7.8 3.6 7.3 3.45 6.8 3.35 6.1 3.35 5.25 3.45 5.15 3.95 4.45 4.0 4.2 3.75 3.45 3.6 3.25 M5.4 8.0 L5.35 7.95 5.45 7.75 5.4 8.0" fill="#000000" fill-opacity="0.4" fill-rule="evenodd" stroke="none"/>
      <path d="M10.95 3.4 Q10.8 5.75 9.45 7.85 L9.15 8.15 7.75 9.1 7.65 9.15 6.15 9.5 7.35 8.6 7.4 8.55 7.95 7.65 8.35 6.65 8.5 5.55 8.5 3.4 7.95 2.0 10.95 2.0 10.95 3.4 M11.25 3.1 L11.15 3.3 11.25 3.05 11.25 3.1 M3.6 3.25 L3.75 3.45 4.0 4.2 3.95 4.45 3.45 5.15 3.35 5.25 2.4 5.5 Q1.6 5.5 1.25 4.7 L1.05 4.1 1.2 3.6 Q1.75 2.8 2.6 2.8 3.05 2.8 3.6 3.25 M3.85 7.8 L4.05 7.65 4.55 7.5 Q5.05 7.5 5.35 7.9 L5.3 8.0 5.35 7.95 5.4 8.0 5.35 8.05 5.35 8.1 5.45 8.35 5.25 8.85 5.15 8.95 4.5 9.15 4.35 9.15 Q3.6 9.1 3.6 8.3 L3.85 7.8 M0.55 4.85 L0.85 6.65 1.35 7.95 Q2.2 9.55 3.65 9.8 2.0 9.85 1.15 9.2 0.25 8.55 -0.55 6.65 L-0.75 6.15 Q-1.35 4.6 -1.3 3.75 L0.75 3.0 0.55 3.7 0.55 4.85" fill="#ffffff" fill-rule="evenodd" stroke="none"/>
      <path d="M5.35 7.9 Q5.35 7.6 5.7 7.25 L5.9 7.05 Q6.15 6.8 6.45 6.8 6.95 6.8 7.25 7.2 L7.55 7.8 7.2 8.55 7.15 8.55 6.35 8.8 6.1 8.75 5.45 8.35 5.35 8.1 5.35 8.05 5.4 8.0 5.45 7.75 5.35 7.95 5.3 8.0 5.35 7.9" fill="#ffffff" fill-opacity="0.49803922" fill-rule="evenodd" stroke="none"/>
      <path d="M0.25 0.3 Q-0.65 0.45 -1.5 1.0 -2.65 1.65 -2.9 2.65 -3.0 -0.35 2.1 0.05 L0.25 0.3" fill="url(#gradient3)" fill-rule="evenodd" stroke="none"/>
      <path d="M-0.9 3.1 L0.95 2.2 4.7 1.2 6.2 0.75 9.6 1.1 Q11.05 1.2 11.45 1.75 L11.55 2.3 11.25 3.4 11.0 4.35 10.35 4.05 Q9.15 3.55 6.25 3.15 L4.6 3.15 Q2.05 3.35 0.85 4.15 -0.35 4.95 -0.75 5.65 -0.85 6.7 -1.15 5.05 -1.5 3.4 -0.9 3.1 M5.4 1.95 L5.25 1.95 5.1 2.0 5.4 1.95 M6.1 1.75 L7.45 1.9 8.9 1.9 7.5 1.7 Q6.5 1.55 6.2 1.7 L6.1 1.75" fill="#000000" fill-opacity="0.29803923" fill-rule="evenodd" stroke="none"/>
      <path d="M-1.25 3.85 L-1.45 4.0 -1.55 4.1 -1.6 4.15 -1.65 4.25 -1.7 4.3 -1.8 4.25 -1.85 4.2 Q-2.15 3.4 -0.35 1.9 0.75 1.35 2.2 1.1 L5.15 0.85 4.65 0.95 6.35 0.75 7.05 0.75 9.8 0.7 13.3 0.2 11.5 0.9 Q13.15 1.5 13.15 3.35 L13.1 3.45 13.05 3.5 12.95 3.5 12.9 3.4 12.9 3.35 Q12.45 2.7 11.75 2.45 L11.7 2.5 11.65 2.6 11.6 2.75 Q11.5 5.9 9.45 7.85 10.55 6.15 10.85 4.3 L10.9 3.3 10.85 3.4 10.85 2.15 8.0 2.15 7.95 2.15 5.4 2.35 5.35 2.35 3.9 2.55 3.85 2.55 0.8 3.15 Q-0.65 3.45 -1.2 3.85 L-1.25 3.85 M7.3 9.4 L5.5 10.0 5.35 10.0 5.3 10.0 3.75 10.1 3.35 10.05 Q2.2 9.95 1.85 9.65 L1.95 9.7 3.75 9.85 4.1 9.85 6.15 9.5 7.65 9.15 7.75 9.1 7.3 9.4" fill="#3c312f" fill-rule="evenodd" stroke="none"/>
      <path d="M1.85 9.65 Q2.2 9.95 3.35 10.05 L3.75 10.1 5.3 10.0 5.35 10.0 5.5 10.0 7.3 9.4 M7.65 9.15 L6.15 9.5" fill="none" stroke="#3c312f" stroke-linecap="round" stroke-linejoin="round" stroke-width="0.15000000000000002"/>
    </g>
    <radialGradient cx="0" cy="0" gradientTransform="matrix(0.0014, 0.0027, 0.0027, -0.0014, -0.5, 0.1)" gradientUnits="userSpaceOnUse" id="gradient3" r="819.2" spreadMethod="pad">
      <stop offset="0.0" stop-color="#3e3023"/>
      <stop offset="1.0" stop-color="#33271f"/>
    </radialGradient>
  </defs>
</svg>
