<svg xmlns="http://www.w3.org/2000/svg" xmlns:ffdec="https://www.free-decompiler.com/flash" xmlns:xlink="http://www.w3.org/1999/xlink" ffdec:objectType="frame" width="16.2" height="10.2"><g transform="translate(2.9)"><use ffdec:characterId="9" xlink:href="#a" width="8.35" height="8.05" transform="translate(.5 2)"/><use ffdec:characterId="14" xlink:href="#b" width="16.2" height="10.15" transform="translate(-2.9)"/></g><defs><linearGradient id="d" x1="-819.2" x2="819.2" gradientTransform="matrix(0 .0047 .0047 0 6.35 3.65)" gradientUnits="userSpaceOnUse" spreadMethod="pad"><stop offset="0" stop-color="#7e7e7e"/><stop offset="1" stop-color="#151515"/></linearGradient><linearGradient id="e" x1="-819.2" x2="819.2" gradientTransform="matrix(0 .0047 .0047 0 3.95 3.6)" gradientUnits="userSpaceOnUse" spreadMethod="pad"><stop offset="0" stop-color="#7e7e7e"/><stop offset="1" stop-color="#151515"/></linearGradient><linearGradient id="f" x1="-819.2" x2="819.2" gradientTransform="matrix(0 .0047 .0047 0 1.7 3.6)" gradientUnits="userSpaceOnUse" spreadMethod="pad"><stop offset="0" stop-color="#7e7e7e"/><stop offset="1" stop-color="#151515"/></linearGradient><g id="c" fill-rule="evenodd"><path fill="url(#d)" d="m8.2 1.05-1.4.4v.05l.1.45.6.35.25.4-.1.5.15.45-.5 1.6q-.1-.25-.4-.2-.15-.4-.95-.3l-.3.05v.1l-.75.5v.1l.3.6.15.2-.05.25.1.3.3.3-.3.2-1.1.35-1.1-.3-.25-.3-.1-.05-.45.25q-.75 0-1.55-2l.05-.5-.05-.2q-.3-.1-.4-1.5l.05-.35v-.2L.05 2.2 0 2.05l.05-.2.05-.15q.35-.6 1.75-1l.5-.1.1-.05L5.5.15 7.45 0z"/><path fill="url(#e)" d="m.05 2.2.45.35v.2l-.05.35q.1 1.4.4 1.5l.05.2-.05.5q.8 2 1.55 2l.45-.25.1.05.25.3 1.1.3 1.1-.35.3-.2-.3-.3-.1-.3.05-.25-.15-.2-.3-.6v-.1l.75-.5v-.1l.3-.05q.8-.1.95.3.3-.05.4.2l.5-1.6-.15-.45.1-.5-.25-.4-.6-.35-.1-.45v-.05l1.4-.4q.3 1.45 0 2.6L7.4 5.7v.05l.15.2-.15.25-.4.25-.15.15q-.15.75-1 1.1L4 8.05l-.9-.15.05-.1Q1.7 7.55.85 5.95.1 4.6.05 2.85zm.05-.5-.05.15V1.7z"/><path fill="url(#f)" d="m2.35.6-.5.1q-1.4.4-1.75 1H.05l.2-.7z"/></g><g id="b"><path fill-opacity=".4" fill-rule="evenodd" d="m6.5 3.25.25-.85 1.5-.2.5 1.2.2.95.05.95-.1 1.35-.1.4-.2.2q-.35.35-.35.65-.3-.4-.8-.4l-.5.15-.2.15-.25-.5-.15-.5-.1-.7v-.85l.1-.1.5-.7.05-.25-.25-.75zM8.3 8l-.05-.05.1-.2z"/><path fill="#fff" fill-rule="evenodd" d="M13.85 3.4q-.15 2.35-1.5 4.45l-.3.3-1.4.95-.1.05-1.5.35 1.2-.9.05-.05.55-.9.4-1 .15-1.1V3.4L10.85 2h3zm.3-.3-.1.2.1-.25zm-7.65.15.15.2.25.75-.05.25-.5.7-.1.1-.95.25q-.8 0-1.15-.8l-.2-.6.15-.5q.55-.8 1.4-.8.45 0 1 .45m.25 4.55.2-.15.5-.15q.5 0 .8.4L8.2 8l.05-.05.05.05-.05.05v.05l.1.25-.2.5-.1.1-.65.2h-.15Q6.5 9.1 6.5 8.3zm-3.3-2.95.3 1.8.5 1.3q.85 1.6 2.3 1.85-1.65.05-2.5-.6-.9-.65-1.7-2.55l-.2-.5q-.6-1.55-.55-2.4L3.65 3l-.2.7z"/><path fill="#fff" fill-opacity=".498" fill-rule="evenodd" d="M8.25 7.9q0-.3.35-.65l.2-.2q.25-.25.55-.25.5 0 .8.4l.3.6-.35.75h-.05l-.8.25L9 8.75l-.65-.4-.1-.25v-.05L8.3 8l.05-.25-.1.2L8.2 8z"/><path fill="url(#g)" fill-rule="evenodd" d="M.25.3q-.9.15-1.75.7-1.15.65-1.4 1.65-.1-3 5-2.6z" transform="translate(2.9)"/><path fill-opacity=".298" fill-rule="evenodd" d="m2 3.1 1.85-.9 3.75-1L9.1.75l3.4.35q1.45.1 1.85.65l.1.55-.3 1.1-.25.95-.65-.3q-1.2-.5-4.1-.9H7.5q-2.55.2-3.75 1t-1.6 1.5q-.1 1.05-.4-.6Q1.4 3.4 2 3.1m6.3-1.15h-.15L8 2zm.7-.2 1.35.15h1.45l-1.4-.2q-1-.15-1.3 0z"/><path fill="#3c312f" fill-rule="evenodd" d="m1.65 3.85-.2.15-.1.1-.05.05-.05.1-.05.05-.1-.05-.05-.05q-.3-.8 1.5-2.3 1.1-.55 2.55-.8L8.05.85l-.5.1 1.7-.2h.7L12.7.7l3.5-.5-1.8.7q1.65.6 1.65 2.45l-.05.1-.05.05h-.1l-.05-.1v-.05q-.45-.65-1.15-.9l-.05.05-.05.1-.05.15q-.1 3.15-2.15 5.1 1.1-1.7 1.4-3.55l.05-1-.05.1V2.15h-2.9l-2.55.2h-.05l-1.45.2h-.05l-3.05.6q-1.45.3-2 .7zM10.2 9.4l-1.8.6h-.2l-1.55.1-.4-.05q-1.15-.1-1.5-.4l.1.05 1.8.15H7l2.05-.35 1.5-.35.1-.05z"/><path fill="none" stroke="#3c312f" stroke-linecap="round" stroke-linejoin="round" stroke-width=".15" d="M4.75 9.65q.35.3 1.5.4l.4.05L8.2 10h.2l1.8-.6m.35-.25-1.5.35"/></g><radialGradient id="g" cx="0" cy="0" r="819.2" gradientTransform="matrix(.0014 .0027 .0027 -.0014 -.5 .1)" gradientUnits="userSpaceOnUse" spreadMethod="pad"><stop offset="0" stop-color="#3e3023"/><stop offset="1" stop-color="#33271f"/></radialGradient><use ffdec:characterId="1" xlink:href="#c" id="a" width="8.35" height="8.05"/></defs></svg>