<?xml version="1.0" encoding="UTF-8" standalone="no"?>
<svg xmlns:ffdec="https://www.free-decompiler.com/flash" xmlns:xlink="http://www.w3.org/1999/xlink" ffdec:objectType="frame" height="11.35px" width="11.2px" xmlns="http://www.w3.org/2000/svg">
  <g transform="matrix(1.0, 0.0, 0.0, 1.0, 1.05, -1.7)">
    <use ffdec:characterId="1" height="9.75" transform="matrix(1.0, 0.0, 0.0, 0.7128, -1.0, 5.8597)" width="10.55" xlink:href="#shape0"/>
    <use ffdec:characterId="3" height="9.3" transform="matrix(1.0, 0.0, 0.0, 0.7163, -0.25, 5.85)" width="6.75" xlink:href="#sprite0"/>
    <use ffdec:characterId="5" height="7.7" transform="matrix(1.0, 0.0, 0.0, 1.0, -1.05, 4.8)" width="11.2" xlink:href="#shape2"/>
  </g>
  <defs>
    <g id="shape0" transform="matrix(1.0, 0.0, 0.0, 1.0, 1.0, -3.1)">
      <path d="M0.95 11.7 Q-0.9 9.8 -1.0 5.8 L1.3 3.7 Q3.65 2.85 6.1 3.2 L7.0 3.35 Q8.3 3.7 9.2 4.2 L9.55 7.15 9.1 8.65 Q8.05 11.4 5.65 12.35 L2.85 12.8 Q1.9 12.65 0.95 11.7" fill="#ffffff" fill-rule="evenodd" stroke="none"/>
    </g>
    <g id="sprite0" transform="matrix(1.0, 0.0, 0.0, 1.0, 0.0, 0.0)">
      <use ffdec:characterId="2" height="9.3" transform="matrix(1.0, 0.0, 0.0, 1.0, 0.0, 0.0)" width="6.75" xlink:href="#shape1"/>
    </g>
    <g id="shape1" transform="matrix(1.0, 0.0, 0.0, 1.0, 0.0, 0.0)">
      <path d="M6.6 4.3 L6.45 5.3 6.35 5.7 6.15 6.35 5.45 7.65 Q4.4 9.4 3.1 9.3 1.55 9.25 0.8 7.35 -0.1 5.6 0.0 3.05 L0.05 1.8 1.55 0.6 Q3.9 -0.25 6.35 0.1 6.85 1.65 6.7 3.5 L6.6 4.3" fill="#e56c44" fill-rule="evenodd" stroke="none"/>
    </g>
    <g id="shape2" transform="matrix(1.0, 0.0, 0.0, 1.0, 1.05, -4.8)">
      <path d="M6.1 5.9 Q6.6 7.0 6.45 8.35 L6.35 8.9 6.2 9.6 6.1 9.9 5.9 10.35 5.2 11.3 Q4.15 12.55 2.85 12.5 1.3 12.45 0.55 11.1 -0.35 9.85 -0.25 8.0 L-0.2 7.1 1.3 6.25 6.1 5.9" fill="url(#gradient0)" fill-rule="evenodd" stroke="none"/>
      <path d="M1.1 9.7 L0.05 9.85 -0.1 9.85 -0.5 9.85 -0.7 9.15 -0.7 8.9 -0.2 8.85 -0.1 8.85 1.1 9.0 1.65 9.35 1.1 9.7" fill="#ffffff" fill-rule="evenodd" stroke="none"/>
      <path d="M4.05 7.65 L4.25 6.8 Q4.45 6.45 4.75 6.45 5.05 6.45 5.25 6.8 L5.45 7.65 5.25 8.5 Q5.05 8.85 4.75 8.85 4.45 8.85 4.25 8.5 L4.05 7.65" fill="#000000" fill-opacity="0.49803922" fill-rule="evenodd" stroke="none"/>
      <path d="M1.55 11.5 Q2.95 11.85 4.05 11.05 L4.9 10.25 Q4.95 10.85 4.45 11.35 3.95 11.9 3.2 12.05 L2.0 11.85 1.55 11.5" fill="#ffffff" fill-opacity="0.8" fill-rule="evenodd" stroke="none"/>
      <path d="M6.05 5.95 L1.25 6.3 -1.05 7.8 0.35 5.95 Q2.7 5.05 5.5 5.2 L6.95 5.25 10.15 5.95 10.05 6.95 9.7 8.3 9.5 8.75 9.15 6.65 6.95 6.05 6.05 5.95 M1.7 5.2 L0.6 5.55 Q1.4 4.8 3.25 4.8 L4.95 5.0 1.7 5.2" fill="#2d4565" fill-rule="evenodd" stroke="none"/>
    </g>
    <linearGradient gradientTransform="matrix(0.0, 0.0044, 0.0057, 0.0, 3.15, 9.15)" gradientUnits="userSpaceOnUse" id="gradient0" spreadMethod="pad" x1="-819.2" x2="819.2">
      <stop offset="0.0" stop-color="#4c2c0d"/>
      <stop offset="0.6392156862745098" stop-color="#7f4b17" stop-opacity="0.0"/>
    </linearGradient>
  </defs>
</svg>
