<?xml version="1.0" encoding="UTF-8" standalone="no"?>
<svg xmlns:ffdec="https://www.free-decompiler.com/flash" xmlns:xlink="http://www.w3.org/1999/xlink" ffdec:objectType="frame" height="11.35px" width="11.2px" xmlns="http://www.w3.org/2000/svg">
  <g transform="matrix(1.0, 0.0, 0.0, 1.0, 1.05, -1.7)">
    <use ffdec:characterId="1" height="9.75" transform="matrix(1.0, 0.0, 0.0, 1.0, -1.0, 3.1)" width="10.55" xlink:href="#shape0"/>
    <use ffdec:characterId="3" height="9.3" transform="matrix(1.0, 0.0, 0.0, 1.0, -0.25, 3.1)" width="6.75" xlink:href="#sprite0"/>
    <use ffdec:characterId="4" height="10.7" transform="matrix(1.0, 0.0, 0.0, 1.0, -1.05, 1.7)" width="11.2" xlink:href="#shape2"/>
  </g>
  <defs>
    <g id="shape0" transform="matrix(1.0, 0.0, 0.0, 1.0, 1.0, -3.1)">
      <path d="M0.95 11.7 Q-0.9 9.8 -1.0 5.8 L1.3 3.7 Q3.65 2.85 6.1 3.2 L7.0 3.35 Q8.3 3.7 9.2 4.2 L9.55 7.15 9.1 8.65 Q8.05 11.4 5.65 12.35 L2.85 12.8 Q1.9 12.65 0.95 11.7" fill="#ffffff" fill-rule="evenodd" stroke="none"/>
    </g>
    <g id="sprite0" transform="matrix(1.0, 0.0, 0.0, 1.0, 0.0, 0.0)">
      <use ffdec:characterId="2" height="9.3" transform="matrix(1.0, 0.0, 0.0, 1.0, 0.0, 0.0)" width="6.75" xlink:href="#shape1"/>
    </g>
    <g id="shape1" transform="matrix(1.0, 0.0, 0.0, 1.0, 0.0, 0.0)">
      <path d="M6.6 4.3 L6.45 5.3 6.35 5.7 6.15 6.35 5.45 7.65 Q4.4 9.4 3.1 9.3 1.55 9.25 0.8 7.35 -0.1 5.6 0.0 3.05 L0.05 1.8 1.55 0.6 Q3.9 -0.25 6.35 0.1 6.85 1.65 6.7 3.5 L6.6 4.3" fill="#e56c44" fill-rule="evenodd" stroke="none"/>
    </g>
    <g id="shape2" transform="matrix(1.0, 0.0, 0.0, 1.0, 1.05, -1.7)">
      <path d="M6.45 6.6 L6.35 7.4 6.2 8.4 6.1 8.8 5.9 9.45 5.2 10.75 Q4.15 12.5 2.85 12.4 1.3 12.35 0.55 10.45 -0.35 8.7 -0.25 6.15 L-0.2 4.9 1.3 3.7 Q3.65 2.85 6.1 3.2 6.6 4.75 6.45 6.6" fill="url(#gradient0)" fill-rule="evenodd" stroke="none"/>
      <path d="M0.05 8.75 L-0.1 8.75 -0.5 8.75 -0.7 7.75 -0.7 7.4 -0.2 7.35 -0.1 7.35 1.1 7.55 Q1.65 7.75 1.65 8.05 L1.1 8.55 0.05 8.75" fill="#ffffff" fill-rule="evenodd" stroke="none"/>
      <path d="M4.75 7.35 Q4.45 7.35 4.25 6.85 L4.05 5.65 4.25 4.45 Q4.45 3.95 4.75 3.95 L5.25 4.45 5.45 5.65 5.25 6.85 4.75 7.35" fill="#000000" fill-opacity="0.49803922" fill-rule="evenodd" stroke="none"/>
      <path d="M4.9 9.25 Q4.95 10.1 4.45 10.85 L3.2 11.8 Q2.6 12.0 2.0 11.55 L1.55 11.05 Q2.95 11.55 4.05 10.4 L4.9 9.25" fill="#ffffff" fill-opacity="0.8" fill-rule="evenodd" stroke="none"/>
      <path d="M6.95 3.4 L6.05 3.25 Q3.6 2.9 1.25 3.75 L-1.05 5.85 0.35 3.25 Q2.7 2.0 5.5 2.25 L6.95 2.3 Q8.75 2.65 10.15 3.25 L10.05 4.7 9.7 6.55 9.5 7.2 9.15 4.25 Q8.25 3.75 6.95 3.4 M1.7 2.2 L0.6 2.7 Q1.4 1.65 3.25 1.7 L4.95 1.95 1.7 2.2" fill="#2d4565" fill-rule="evenodd" stroke="none"/>
    </g>
    <linearGradient gradientTransform="matrix(0.0, 0.0061, 0.0057, 0.0, 3.15, 7.75)" gradientUnits="userSpaceOnUse" id="gradient0" spreadMethod="pad" x1="-819.2" x2="819.2">
      <stop offset="0.0" stop-color="#4c2c0d"/>
      <stop offset="0.6392156862745098" stop-color="#7f4b17" stop-opacity="0.0"/>
    </linearGradient>
  </defs>
</svg>
