<svg xmlns="http://www.w3.org/2000/svg" xmlns:ffdec="https://www.free-decompiler.com/flash" xmlns:xlink="http://www.w3.org/1999/xlink" ffdec:objectType="frame" width="11.2" height="11.35"><g transform="translate(1.05 -1.7)"><use ffdec:characterId="1" xlink:href="#a" width="10.55" height="9.75" transform="translate(-1 3.1)"/><use ffdec:characterId="3" xlink:href="#b" width="6.75" height="9.3" transform="translate(-.25 3.1)"/><use ffdec:characterId="4" xlink:href="#c" width="11.2" height="10.7" transform="translate(-1.05 1.7)"/></g><defs><path id="a" fill="#fff" fill-rule="evenodd" d="M.95 11.7Q-.9 9.8-1 5.8l2.3-2.1q2.35-.85 4.8-.5l.9.15q1.3.35 2.2.85l.35 2.95-.45 1.5q-1.05 2.75-3.45 3.7l-2.8.45q-.95-.15-1.9-1.1" transform="translate(1 -3.1)"/><path id="d" fill="#e56c44" fill-rule="evenodd" d="m6.6 4.3-.15 1-.1.4-.2.65-.7 1.3Q4.4 9.4 3.1 9.3 1.55 9.25.8 7.35-.1 5.6 0 3.05L.05 1.8 1.55.6Q3.9-.25 6.35.1q.5 1.55.35 3.4z"/><linearGradient id="e" x1="-819.2" x2="819.2" gradientTransform="matrix(0 .0061 .0057 0 3.15 7.75)" gradientUnits="userSpaceOnUse" spreadMethod="pad"><stop offset="0" stop-color="#4c2c0d"/><stop offset=".639" stop-color="#7f4b17" stop-opacity="0"/></linearGradient><use ffdec:characterId="2" xlink:href="#d" id="b" width="6.75" height="9.3"/><g id="c" fill-rule="evenodd"><path fill="url(#e)" d="m6.45 6.6-.1.8-.15 1-.1.4-.2.65-.7 1.3Q4.15 12.5 2.85 12.4q-1.55-.05-2.3-1.95-.9-1.75-.8-4.3L-.2 4.9l1.5-1.2q2.35-.85 4.8-.5.5 1.55.35 3.4" transform="translate(1.05 -1.7)"/><path fill="#fff" d="M1.1 7.05H.55l-.2-1V5.7l.5-.05h.1l1.2.2q.55.2.55.5l-.55.5z"/><path fill-opacity=".498" d="M5.8 5.65q-.3 0-.5-.5l-.2-1.2.2-1.2q.2-.5.5-.5l.5.5.2 1.2-.2 1.2z"/><path fill="#fff" fill-opacity=".8" d="M5.95 7.55q.05.85-.45 1.6l-1.25.95q-.6.2-1.2-.25l-.45-.5q1.4.5 2.5-.65z"/><path fill="#2d4565" d="m8 1.7-.9-.15q-2.45-.35-4.8.5L0 4.15l1.4-2.6Q3.75.3 6.55.55L8 .6q1.8.35 3.2.95L11.1 3l-.35 1.85-.2.65-.35-2.95q-.9-.5-2.2-.85M2.75.5l-1.1.5q.8-1.05 2.65-1L6 .25z"/></g></defs></svg>