<?xml version="1.0" encoding="UTF-8" standalone="no"?>
<svg xmlns:ffdec="https://www.free-decompiler.com/flash" xmlns:xlink="http://www.w3.org/1999/xlink" ffdec:objectType="frame" height="8.3px" width="12.45px" xmlns="http://www.w3.org/2000/svg">
  <g transform="matrix(1.0, 0.0, 0.0, 1.0, -3.4, -2.4)">
    <use ffdec:characterId="5" height="8.3" transform="matrix(1.0, 0.0, 0.0, 1.0, 3.4, 2.4)" width="12.4" xlink:href="#shape0"/>
  </g>
  <defs>
    <g id="shape0" transform="matrix(1.0, 0.0, 0.0, 1.0, -3.4, -2.4)">
      <path d="M4.85 7.4 Q6.25 6.65 7.75 6.3 L11.75 6.45 Q13.55 7.0 14.45 8.15 L13.8 9.35 13.65 9.5 13.25 9.65 12.35 10.15 10.95 10.4 10.3 10.6 Q8.15 10.35 7.15 9.75 L6.3 9.15 6.2 9.2 5.95 8.95 5.65 8.55 5.25 8.25 5.2 8.25 4.85 7.4" fill="#ffffff" fill-rule="evenodd" stroke="none"/>
      <path d="M4.85 7.4 L4.45 6.1 Q4.45 5.35 5.75 4.55 7.35 3.55 9.8 3.55 12.15 3.55 13.35 4.75 L14.95 6.4 Q14.9 7.25 14.45 8.15 13.55 7.0 11.75 6.45 L7.75 6.3 Q6.25 6.65 4.85 7.4" fill="#c4c4c4" fill-rule="evenodd" stroke="none"/>
      <path d="M12.8 8.2 Q11.9 9.7 10.2 9.7 8.55 9.7 7.9 9.05 7.35 8.45 7.15 7.9 L6.95 6.75 7.0 6.15 Q7.1 5.05 7.7 4.4 8.35 3.7 9.65 3.75 L11.4 4.1 12.25 4.6 12.8 5.05 Q13.3 6.05 13.15 7.05 L12.8 8.2" fill="#71548a" fill-rule="evenodd" stroke="none"/>
      <path d="M10.85 8.8 L10.15 9.05 Q9.2 9.25 8.7 8.8 L7.9 7.65 Q7.65 6.9 8.2 5.6 L8.1 6.55 8.05 6.45 Q8.3 7.6 9.0 8.05 9.7 8.45 10.75 8.05 11.85 7.6 11.75 6.6 L11.7 5.65 11.95 6.15 Q12.45 8.0 10.85 8.8" fill="#5c0f62" fill-opacity="0.8117647" fill-rule="evenodd" stroke="none"/>
      <path d="M11.95 8.8 Q11.15 9.55 10.1 9.55 9.05 9.55 8.25 8.8 7.5 8.0 7.5 6.95 7.5 5.9 8.25 5.15 9.05 4.35 10.1 4.35 11.15 4.35 11.95 5.15 12.7 5.9 12.7 6.95 12.7 8.0 11.95 8.8" fill="url(#gradient0)" fill-rule="evenodd" stroke="none"/>
      <path d="M11.4 4.1 L12.25 4.6 12.8 5.05 Q13.3 6.05 13.15 7.05 11.9 6.2 10.0 6.2 L7.0 6.3 7.0 6.15 Q7.1 5.05 7.7 4.4 8.35 3.7 9.65 3.75 L11.4 4.1" fill="#000000" fill-opacity="0.29803923" fill-rule="evenodd" stroke="none"/>
      <path d="M12.05 10.3 L11.15 10.55 9.5 10.7 8.1 10.45 Q7.4 10.15 6.15 9.3 L6.1 9.2 5.95 9.0 6.0 8.9 7.05 9.5 Q8.35 10.1 9.55 10.15 L8.95 10.2 Q12.35 10.2 13.75 9.4 13.2 9.95 12.05 10.3 M15.55 7.15 L13.45 5.5 12.35 4.8 Q10.9 4.15 10.05 4.1 L8.3 4.25 Q7.4 4.4 6.75 4.75 L6.4 5.0 6.05 5.2 Q4.85 6.1 4.95 6.7 L5.45 8.1 Q5.9 8.9 5.2 8.25 L4.0 7.1 Q3.45 6.6 3.45 6.2 L5.15 4.5 Q6.3 3.35 7.8 3.15 L10.4 3.0 Q11.5 3.05 12.6 3.65 13.7 4.25 14.25 5.0 L14.95 6.15 15.55 7.15" fill="#311200" fill-rule="evenodd" stroke="none"/>
      <path d="M15.7 5.6 Q14.75 4.35 13.15 3.4 L12.25 2.95 Q9.1 1.9 5.7 3.4 4.95 3.75 3.5 5.25" fill="none" stroke="#2e1200" stroke-linecap="round" stroke-linejoin="round" stroke-width="0.2"/>
      <path d="M13.15 8.05 L12.85 8.2 12.6 8.1 12.6 7.8 12.8 7.8 13.15 8.05 M13.05 7.5 Q12.75 7.5 12.55 7.3 L12.4 7.05 Q12.4 6.7 12.9 6.8 13.4 6.9 13.4 7.15 L13.05 7.5 M9.8 7.5 Q10.25 7.5 10.25 7.85 L10.05 8.3 9.55 8.5 Q9.2 8.5 9.2 8.2 9.2 7.5 9.8 7.5 M7.8 6.3 Q8.75 6.15 8.8 6.75 L8.5 7.75 7.55 8.0 Q6.9 7.9 6.9 7.35 6.9 6.4 7.8 6.3" fill="#ffffff" fill-rule="evenodd" stroke="none"/>
    </g>
    <radialGradient cx="0" cy="0" gradientTransform="matrix(0.0041, 0.0, 0.0, 0.0041, 10.1, 6.95)" gradientUnits="userSpaceOnUse" id="gradient0" r="819.2" spreadMethod="pad">
      <stop offset="0.0" stop-color="#ffffff" stop-opacity="0.3254902"/>
      <stop offset="0.7372549019607844" stop-color="#ffffff" stop-opacity="0.0"/>
    </radialGradient>
  </defs>
</svg>
