<svg xmlns="http://www.w3.org/2000/svg" xmlns:ffdec="https://www.free-decompiler.com/flash" xmlns:xlink="http://www.w3.org/1999/xlink" ffdec:objectType="frame" width="12.85" height="10.45"><use ffdec:characterId="6" xlink:href="#a" width="12.15" height="2.55" transform="translate(.3 6.45)"/><defs><g id="a" fill-rule="evenodd"><path fill="#333" d="m11 1.5-1.25.55-1.8.45-4.3-.15h-.8l.55-.1-.55.05H2.7l-.5-.1-.45-.25h.3l.65-.1-.25-.15-.5.05-.6-.1L.9 1.4l1-.05-.25-.2H1.4L0 .9 1.2.75.55 0l.4.2 1.7.55 2.05.4 7.35-.2.1-.05-.1.1z"/><path fill-opacity=".298" d="M12.15.3 8.5.9l-.25.05H5.9L3.35.45 2.15 0l5.4.55 4.35-.3h.25z"/></g></defs></svg>