<?xml version="1.0" encoding="UTF-8" standalone="no"?>
<svg xmlns:ffdec="https://www.free-decompiler.com/flash" xmlns:xlink="http://www.w3.org/1999/xlink" ffdec:objectType="frame" height="10.1px" width="12.5px" xmlns="http://www.w3.org/2000/svg">
  <g transform="matrix(1.0, 0.0, 0.0, 1.0, 2.0, -1.75)">
    <use ffdec:characterId="13" height="6.3" transform="matrix(1.0, 0.0, 0.0, 1.0, -1.55, 4.65)" width="10.65" xlink:href="#shape0"/>
    <use ffdec:characterId="3" height="9.65" transform="matrix(1.0, 0.0, 0.0, 1.0, -2.0, 1.75)" width="12.5" xlink:href="#sprite0"/>
    <use ffdec:characterId="14" height="9.65" transform="matrix(1.0, 0.0, 0.0, 1.0, -2.0, 1.75)" width="12.5" xlink:href="#shape2"/>
  </g>
  <defs>
    <g id="shape0" transform="matrix(1.0, 0.0, 0.0, 1.0, 1.55, -4.65)">
      <path d="M7.3 5.3 L8.2 5.65 9.1 7.2 Q9.2 8.3 8.0 9.7 L6.0 10.95 6.9 9.4 7.6 7.55 7.5 6.1 7.3 5.3 M-0.55 8.5 L-0.3 10.0 Q-1.25 8.65 -1.5 7.4 L-1.5 5.95 -1.45 5.45 -0.65 5.05 -0.3 4.9 -0.3 4.95 -0.4 4.95 -0.75 6.5 -0.8 7.15 -0.75 7.5 -0.65 7.95 -0.55 8.4 -0.55 8.5" fill="#ffffff" fill-rule="evenodd" stroke="none"/>
      <path d="M6.9 9.4 L6.55 9.95 7.05 8.1 7.2 7.35 6.75 5.1 7.2 5.25 7.3 5.3 7.5 6.1 7.6 7.55 6.9 9.4 M-0.3 4.95 L0.3 4.65 -0.25 6.8 -0.4 9.05 -0.55 8.5 -0.55 8.4 -0.65 7.95 -0.7 7.5 -0.75 7.35 -0.75 6.5 -0.4 4.95 -0.3 4.95" fill="#000000" fill-rule="evenodd" stroke="none"/>
      <path d="M-0.7 7.5 L-0.65 7.95 -0.75 7.5 -0.7 7.5" fill="url(#gradient0)" fill-rule="evenodd" stroke="none"/>
    </g>
    <radialGradient cx="0" cy="0" gradientTransform="matrix(-0.0042, -5.0E-4, -5.0E-4, 0.0042, 3.1, 9.75)" gradientUnits="userSpaceOnUse" id="gradient0" r="819.2" spreadMethod="pad">
      <stop offset="0.2823529411764706" stop-color="#f96477"/>
      <stop offset="1.0" stop-color="#7f0c19"/>
    </radialGradient>
    <g id="sprite0" transform="matrix(1.0, 0.0, 0.0, 1.0, 0.0, 0.0)">
      <use ffdec:characterId="2" height="9.65" transform="matrix(1.0, 0.0, 0.0, 1.0, 0.0, 0.0)" width="12.5" xlink:href="#shape1"/>
    </g>
    <g id="shape1" transform="matrix(1.0, 0.0, 0.0, 1.0, 0.0, 0.0)">
      <path d="M0.55 1.55 L1.45 0.9 2.9 0.1 Q4.45 -0.25 6.2 0.75 L3.3 0.6 1.6 1.1 0.55 1.55 M12.5 6.15 L10.85 7.45 10.0 7.95 Q11.2 6.55 11.1 5.45 L10.2 3.9 9.3 3.55 9.5 4.35 9.6 5.8 8.85 7.65 8.0 9.15 9.55 8.45 8.05 9.65 Q3.2 8.9 0.9 8.15 L1.8 8.3 1.7 8.25 1.5 6.85 1.45 6.75 1.35 6.2 1.3 5.75 1.25 5.75 1.2 5.4 1.25 4.75 Q1.3 3.85 1.6 3.2 L1.35 3.3 0.0 4.05 0.05 2.85 1.3 2.1 Q2.9 1.35 3.95 1.25 L7.35 1.65 Q9.7 2.25 11.3 3.45 12.3 4.75 12.5 6.15" fill="url(#gradient1)" fill-rule="evenodd" stroke="none"/>
      <path d="M8.5 5.75 Q9.35 6.3 9.15 7.0 L8.0 9.2 7.9 9.2 5.15 8.85 1.75 8.25 1.3 5.75 1.5 5.35 Q1.75 4.9 2.3 4.8 L2.7 4.8 3.15 5.5 3.35 6.05 3.5 6.7 Q3.9 7.45 5.0 7.5 L6.5 7.35 7.05 6.55 7.45 6.0 Q8.0 5.35 8.5 5.75" fill="url(#gradient2)" fill-rule="evenodd" stroke="none"/>
    </g>
    <linearGradient gradientTransform="matrix(0.0, 0.0045, 0.0045, 0.0, 5.35, 5.45)" gradientUnits="userSpaceOnUse" id="gradient1" spreadMethod="pad" x1="-819.2" x2="819.2">
      <stop offset="0.0" stop-color="#073c00"/>
      <stop offset="1.0" stop-color="#65933b"/>
    </linearGradient>
    <radialGradient cx="0" cy="0" gradientTransform="matrix(-0.0042, -5.0E-4, -5.0E-4, 0.0042, 5.15, 8.0)" gradientUnits="userSpaceOnUse" id="gradient2" r="819.2" spreadMethod="pad">
      <stop offset="0.2823529411764706" stop-color="#ffcc00" stop-opacity="0.6"/>
      <stop offset="1.0" stop-color="#e5c64c" stop-opacity="0.2"/>
    </radialGradient>
    <g id="shape2" transform="matrix(1.0, 0.0, 0.0, 1.0, 2.0, -1.75)">
      <path d="M6.75 5.1 L7.2 7.1 5.15 6.4 4.7 5.8 Q4.0 5.2 3.1 5.25 2.35 5.3 1.85 5.85 L-0.1 5.75 0.3 4.65 2.05 4.05 Q4.05 4.2 6.75 5.1 M7.6 7.3 L7.5 6.1 7.3 5.3 8.2 5.65 9.1 7.2 9.1 7.75 9.05 7.85 8.95 8.15 Q8.35 7.65 7.6 7.3 M-2.0 5.8 L-0.65 5.05 -0.5 5.0 -0.4 4.95 -0.65 5.75 -1.5 5.8 -2.0 5.8" fill="#000000" fill-opacity="0.29803923" fill-rule="evenodd" stroke="none"/>
      <path d="M7.3 5.3 L7.15 5.25 6.75 5.1 Q4.05 4.2 2.05 4.05 L0.3 4.65 -0.4 4.95 -0.5 5.0 -0.65 5.05 -2.0 5.8 -1.95 4.6 -0.7 3.85 Q0.9 3.1 1.95 3.0 L5.35 3.4 Q7.7 4.0 9.3 5.2 10.3 6.5 10.5 7.9 L8.85 9.2 8.0 9.7 9.05 7.85 9.1 7.75 9.1 7.2 8.2 5.65 7.3 5.3 M7.55 10.2 L6.05 11.4 Q1.2 10.65 -1.1 9.9 L6.0 10.9 7.55 10.2" fill="url(#gradient3)" fill-rule="evenodd" stroke="none"/>
      <path d="M6.75 5.1 L7.15 5.25 7.3 5.3 7.5 6.1 7.6 7.3 7.6 7.55 Q7.55 8.25 6.55 9.95 L7.2 7.35 7.2 7.1 6.75 5.1 M-0.4 4.95 L0.3 4.65 -0.1 5.75 -0.4 9.05 -0.75 7.35 -0.65 5.75 -0.4 4.95 M1.85 5.85 Q2.35 5.3 3.1 5.25 4.0 5.2 4.7 5.8 L5.15 6.4 5.4 7.35 5.4 7.75 5.0 8.3 4.45 9.1 2.95 9.25 Q1.85 9.2 1.45 8.45 L1.3 7.8 1.1 7.25 Q1.15 6.55 1.7 6.0 L1.85 5.85" fill="#000000" fill-rule="evenodd" stroke="none"/>
      <path d="M4.2 2.5 L1.3 2.35 Q0.3 2.5 -0.4 2.85 L-1.45 3.3 -0.55 2.65 Q0.4 1.95 0.9 1.85 2.45 1.5 4.2 2.5" fill="url(#gradient4)" fill-rule="evenodd" stroke="none"/>
      <path d="M1.0 5.95 L1.45 6.5 1.0 7.0 -0.05 7.25 -1.1 7.0 Q-1.5 6.8 -1.5 6.5 -1.5 6.2 -1.1 5.95 L-0.05 5.8 1.0 5.95" fill="#ffffff" fill-rule="evenodd" stroke="none"/>
    </g>
    <linearGradient gradientTransform="matrix(0.0076, 0.0, 0.0, -0.0041, 4.25, 6.35)" gradientUnits="userSpaceOnUse" id="gradient3" spreadMethod="pad" x1="-819.2" x2="819.2">
      <stop offset="0.0" stop-color="#000000" stop-opacity="0.6"/>
      <stop offset="1.0" stop-color="#000000" stop-opacity="0.9019608"/>
    </linearGradient>
    <linearGradient gradientTransform="matrix(0.0034, 0.0, 0.0, 9.0E-4, 1.35, 2.5)" gradientUnits="userSpaceOnUse" id="gradient4" spreadMethod="pad" x1="-819.2" x2="819.2">
      <stop offset="0.0" stop-color="#000000" stop-opacity="0.6"/>
      <stop offset="1.0" stop-color="#000000" stop-opacity="0.9019608"/>
    </linearGradient>
  </defs>
</svg>
