<svg xmlns="http://www.w3.org/2000/svg" xmlns:ffdec="https://www.free-decompiler.com/flash" xmlns:xlink="http://www.w3.org/1999/xlink" ffdec:objectType="frame" width="12.5" height="10.1"><g transform="translate(2 -1.75)"><use ffdec:characterId="13" xlink:href="#a" width="10.65" height="6.3" transform="translate(-1.55 4.65)"/><use ffdec:characterId="3" xlink:href="#b" width="12.5" height="9.65" transform="translate(-2 1.75)"/><use ffdec:characterId="14" xlink:href="#c" width="12.5" height="9.65" transform="translate(-2 1.75)"/></g><defs><linearGradient id="f" x1="-819.2" x2="819.2" gradientTransform="matrix(0 .0045 .0045 0 5.35 5.45)" gradientUnits="userSpaceOnUse" spreadMethod="pad"><stop offset="0" stop-color="#073c00"/><stop offset="1" stop-color="#65933b"/></linearGradient><linearGradient id="h" x1="-819.2" x2="819.2" gradientTransform="matrix(.0076 0 0 -.0041 4.25 6.35)" gradientUnits="userSpaceOnUse" spreadMethod="pad"><stop offset="0" stop-opacity=".6"/><stop offset="1" stop-opacity=".902"/></linearGradient><linearGradient id="i" x1="-819.2" x2="819.2" gradientTransform="matrix(.0034 0 0 .0009 1.35 2.5)" gradientUnits="userSpaceOnUse" spreadMethod="pad"><stop offset="0" stop-opacity=".6"/><stop offset="1" stop-opacity=".902"/></linearGradient><g id="a" fill-rule="evenodd"><path fill="#fff" d="m8.85.65.9.35.9 1.55q.1 1.1-1.1 2.5l-2 1.25.9-1.55.7-1.85-.1-1.45zM1 3.85l.25 1.5Q.3 4 .05 2.75V1.3L.1.8.9.4l.35-.15V.3h-.1L.8 1.85l-.05.65.05.35.1.45.1.45z"/><path d="m8.45 4.75-.35.55.5-1.85.15-.75L8.3.45l.45.15.1.05.2.8.1 1.45zM1.25.3l.6-.3-.55 2.15-.15 2.25L1 3.85v-.1L.9 3.3l-.05-.45L.8 2.7v-.85L1.15.3z"/><path fill="url(#d)" d="m-.7 7.5.05.45-.1-.45z" transform="translate(1.55 -4.65)"/></g><g id="e" fill-rule="evenodd"><path fill="url(#f)" d="m.55 1.55.9-.65L2.9.1q1.55-.35 3.3.65L3.3.6l-1.7.5zm11.95 4.6-1.65 1.3-.85.5q1.2-1.4 1.1-2.5l-.9-1.55-.9-.35.2.8.1 1.45-.75 1.85L8 9.15l1.55-.7-1.5 1.2Q3.2 8.9.9 8.15l.9.15-.1-.05-.2-1.4-.05-.1-.1-.55-.05-.45h-.05L1.2 5.4l.05-.65q.05-.9.35-1.55l-.25.1L0 4.05l.05-1.2L1.3 2.1q1.6-.75 2.65-.85l3.4.4q2.35.6 3.95 1.8 1 1.3 1.2 2.7"/><path fill="url(#g)" d="M8.5 5.75q.85.55.65 1.25L8 9.2h-.1l-2.75-.35-3.4-.6-.45-2.5.2-.4q.25-.45.8-.55h.4l.45.7.2.55.15.65q.4.75 1.5.8l1.5-.15.55-.8.4-.55Q8 5.35 8.5 5.75"/></g><g id="c" fill-rule="evenodd"><path fill-opacity=".298" d="m8.75 3.35.45 2-2.05-.7-.45-.6q-.7-.6-1.6-.55-.75.05-1.25.6L1.9 4l.4-1.1 1.75-.6q2 .15 4.7 1.05m.85 2.2-.1-1.2-.2-.8.9.35.9 1.55V6l-.05.1-.1.3q-.6-.5-1.35-.85M0 4.05l1.35-.75.15-.05.1-.05-.25.8-.85.05z"/><path fill="url(#h)" d="m7.3 5.3-.15-.05-.4-.15q-2.7-.9-4.7-1.05l-1.75.6-.7.3-.1.05-.15.05L-2 5.8l.05-1.2 1.25-.75Q.9 3.1 1.95 3l3.4.4Q7.7 4 9.3 5.2q1 1.3 1.2 2.7L8.85 9.2 8 9.7l1.05-1.85.05-.1V7.2l-.9-1.55zm.25 4.9-1.5 1.2Q1.2 10.65-1.1 9.9l7.1 1z" transform="translate(2 -1.75)"/><path d="m8.75 3.35.4.15.15.05.2.8.1 1.2v.25q-.05.7-1.05 2.4l.65-2.6v-.25zM1.6 3.2l.7-.3L1.9 4l-.3 3.3-.35-1.7.1-1.6zm2.25.9q.5-.55 1.25-.6.9-.05 1.6.55l.45.6.25.95V6l-.4.55-.55.8-1.5.15q-1.1-.05-1.5-.8l-.15-.65-.2-.55q.05-.7.6-1.25z"/><path fill="url(#i)" d="m4.2 2.5-2.9-.15q-1 .15-1.7.5l-1.05.45.9-.65q.95-.7 1.45-.8 1.55-.35 3.3.65" transform="translate(2 -1.75)"/><path fill="#fff" d="m3 4.2.45.55-.45.5-1.05.25L.9 5.25q-.4-.2-.4-.5t.4-.55l1.05-.15z"/></g><radialGradient id="d" cx="0" cy="0" r="819.2" gradientTransform="matrix(-.0042 -.0005 -.0005 .0042 3.1 9.75)" gradientUnits="userSpaceOnUse" spreadMethod="pad"><stop offset=".282" stop-color="#f96477"/><stop offset="1" stop-color="#7f0c19"/></radialGradient><radialGradient id="g" cx="0" cy="0" r="819.2" gradientTransform="matrix(-.0042 -.0005 -.0005 .0042 5.15 8)" gradientUnits="userSpaceOnUse" spreadMethod="pad"><stop offset=".282" stop-color="#fc0" stop-opacity=".6"/><stop offset="1" stop-color="#e5c64c" stop-opacity=".2"/></radialGradient><use ffdec:characterId="2" xlink:href="#e" id="b" width="12.5" height="9.65"/></defs></svg>