<svg xmlns="http://www.w3.org/2000/svg" xmlns:ffdec="https://www.free-decompiler.com/flash" xmlns:xlink="http://www.w3.org/1999/xlink" ffdec:objectType="frame" width="12.5" height="10.1"><use ffdec:characterId="17" xlink:href="#a" width="12.5" height="3.9" transform="translate(0 6.2)"/><defs><linearGradient id="b" x1="-819.2" x2="819.2" gradientTransform="matrix(.0076 0 0 .0036 4.25 8.95)" gradientUnits="userSpaceOnUse" spreadMethod="pad"><stop offset="0" stop-opacity=".6"/><stop offset="1" stop-opacity=".902"/></linearGradient><linearGradient id="c" x1="-819.2" x2="819.2" gradientTransform="matrix(.0034 -.0004 -.0001 -.0008 1.35 9.65)" gradientUnits="userSpaceOnUse" spreadMethod="pad"><stop offset="0" stop-opacity=".6"/><stop offset="1" stop-opacity=".902"/></linearGradient><g id="a" fill-rule="evenodd"><path fill="#fff" fill-opacity="0" d="m8.9 2.8-.35.2.5-.6.15-.25-.45-.7.45.05.1.05.9.1.9.5q.1.3-1.1.75l-2 .4zm-7.65-.9-.05.2.05.1.1.15-.05-.15-.05-.05zm.3-.45.05-.05h.1l.6-.1-.55.7-.15.7-.1-.1.2.4-1.2-.8v-.45l.05-.2.8-.1z"/><path fill="#fff" fill-opacity="0" d="M3.85 1.7 1.9 1.65 1.6 2.7l-.35-.55.1-.5-.85.05H0l.05-.4 1.25-.25L3.95.8l3.4.1 3.95.6q1 .4 1.2.85l-1.65.4-.85.15.95-.45-1.35-.3v.1L8.55 3l.65-.85V2.1l-2.05-.25.25.3v.15l-.4.15-.55.3h-1.5l-1.5-.25-.15-.2-.2-.15q.05-.25.6-.4zm5.7 1.35-1.5.4L.9 3l7.1.3zM2.9.45l3.3.2L3.3.6 1.6.75.55.9l.9-.2z"/><path fill="#fff" fill-opacity="0" d="M3.45 1.9 3 2.05l-1.05.1-1.05-.1-.4-.15.4-.15 1.05-.05L3 1.75z"/><path fill="url(#b)" d="m.3 10.4 1.75.55 4.7-.9.4-.15.15-.05.9-.3.9-1.35.05-.25h1.3q-.3 1-1.15 2Q7.7 11 5.35 11.5l-3.4.35-2.65-.75-1.25-.65L-2 9.4l1.35.7h.15l.1.05z" transform="translate(2 -7.95)"/><path fill="url(#c)" d="m1 10.25-1.55-.5-1-.4 1.1.2 1.8.2 2.8-.45q-1.6 1.1-3.15.95" transform="translate(2 -7.95)"/></g></defs></svg>