<?xml version="1.0" encoding="UTF-8" standalone="no"?>
<svg xmlns:ffdec="https://www.free-decompiler.com/flash" xmlns:xlink="http://www.w3.org/1999/xlink" ffdec:objectType="frame" height="10.1px" width="12.5px" xmlns="http://www.w3.org/2000/svg">
  <g transform="matrix(1.0, 0.0, 0.0, 1.0, 2.0, -1.75)">
    <use ffdec:characterId="18" height="2.9" transform="matrix(1.0, 0.0, 0.0, 1.0, -1.55, 8.3)" width="10.65" xlink:href="#shape0"/>
    <use ffdec:characterId="3" height="9.65" transform="matrix(1.0, 0.0, 0.0, 0.4588, -2.0, 6.95)" width="12.5" xlink:href="#sprite0"/>
    <use ffdec:characterId="19" height="4.4" transform="matrix(1.0, 0.0, 0.0, 1.0, -2.0, 7.0)" width="12.5" xlink:href="#shape2"/>
  </g>
  <defs>
    <g id="shape0" transform="matrix(1.0, 0.0, 0.0, 1.0, 1.55, -8.3)">
      <path d="M6.9 10.45 L7.6 9.65 7.5 9.0 7.3 8.65 8.2 8.8 9.1 9.5 Q9.2 9.95 8.0 10.6 L6.0 11.2 6.9 10.45 M-0.5 10.15 L-0.3 10.75 -1.5 9.6 -1.5 8.95 -1.45 8.65 -0.65 8.5 -0.45 8.5 -0.75 9.15 -0.8 9.45 -0.75 9.6 -0.65 9.8 -0.55 10.0 -0.55 10.1 -0.5 10.15" fill="#ffffff" fill-rule="evenodd" stroke="none"/>
      <path d="M6.9 10.45 L6.55 10.75 7.05 9.85 7.2 9.5 6.75 8.5 7.2 8.55 7.3 8.65 7.5 9.0 7.6 9.65 6.9 10.45 M-0.5 10.15 L-0.55 10.1 -0.55 10.0 -0.65 9.8 -0.7 9.6 -0.75 9.5 -0.75 9.15 -0.45 8.5 -0.4 8.4 -0.3 8.4 0.3 8.3 -0.25 9.3 -0.4 10.3 -0.5 10.15" fill="#000000" fill-rule="evenodd" stroke="none"/>
      <path d="M-0.7 9.6 L-0.65 9.8 -0.75 9.6 -0.7 9.6" fill="url(#gradient0)" fill-rule="evenodd" stroke="none"/>
    </g>
    <radialGradient cx="0" cy="0" gradientTransform="matrix(-0.0042, -2.0E-4, -5.0E-4, 0.0019, 3.1, 10.65)" gradientUnits="userSpaceOnUse" id="gradient0" r="819.2" spreadMethod="pad">
      <stop offset="0.2823529411764706" stop-color="#f96477"/>
      <stop offset="1.0" stop-color="#7f0c19"/>
    </radialGradient>
    <g id="sprite0" transform="matrix(1.0, 0.0, 0.0, 1.0, 0.0, 0.0)">
      <use ffdec:characterId="2" height="9.65" transform="matrix(1.0, 0.0, 0.0, 1.0, 0.0, 0.0)" width="12.5" xlink:href="#shape1"/>
    </g>
    <g id="shape1" transform="matrix(1.0, 0.0, 0.0, 1.0, 0.0, 0.0)">
      <path d="M0.55 1.55 L1.45 0.9 2.9 0.1 Q4.45 -0.25 6.2 0.75 L3.3 0.6 1.6 1.1 0.55 1.55 M12.5 6.15 L10.85 7.45 10.0 7.95 Q11.2 6.55 11.1 5.45 L10.2 3.9 9.3 3.55 9.5 4.35 9.6 5.8 8.85 7.65 8.0 9.15 9.55 8.45 8.05 9.65 Q3.2 8.9 0.9 8.15 L1.8 8.3 1.7 8.25 1.5 6.85 1.45 6.75 1.35 6.2 1.3 5.75 1.25 5.75 1.2 5.4 1.25 4.75 Q1.3 3.85 1.6 3.2 L1.35 3.3 0.0 4.05 0.05 2.85 1.3 2.1 Q2.9 1.35 3.95 1.25 L7.35 1.65 Q9.7 2.25 11.3 3.45 12.3 4.75 12.5 6.15" fill="url(#gradient1)" fill-rule="evenodd" stroke="none"/>
      <path d="M8.5 5.75 Q9.35 6.3 9.15 7.0 L8.0 9.2 7.9 9.2 5.15 8.85 1.75 8.25 1.3 5.75 1.5 5.35 Q1.75 4.9 2.3 4.8 L2.7 4.8 3.15 5.5 3.35 6.05 3.5 6.7 Q3.9 7.45 5.0 7.5 L6.5 7.35 7.05 6.55 7.45 6.0 Q8.0 5.35 8.5 5.75" fill="url(#gradient2)" fill-rule="evenodd" stroke="none"/>
    </g>
    <linearGradient gradientTransform="matrix(0.0, 0.0045, 0.0045, 0.0, 5.35, 5.45)" gradientUnits="userSpaceOnUse" id="gradient1" spreadMethod="pad" x1="-819.2" x2="819.2">
      <stop offset="0.0" stop-color="#073c00"/>
      <stop offset="1.0" stop-color="#65933b"/>
    </linearGradient>
    <radialGradient cx="0" cy="0" gradientTransform="matrix(-0.0042, -5.0E-4, -5.0E-4, 0.0042, 5.15, 8.0)" gradientUnits="userSpaceOnUse" id="gradient2" r="819.2" spreadMethod="pad">
      <stop offset="0.2823529411764706" stop-color="#ffcc00" stop-opacity="0.6"/>
      <stop offset="1.0" stop-color="#e5c64c" stop-opacity="0.2"/>
    </radialGradient>
    <g id="shape2" transform="matrix(1.0, 0.0, 0.0, 1.0, 2.0, -7.0)">
      <path d="M5.15 9.1 Q5.0 9.0 4.7 8.85 L3.1 8.55 1.85 8.85 -0.1 8.8 0.3 8.3 2.05 8.05 6.75 8.5 7.2 9.45 5.15 9.1 M7.6 9.5 L7.5 9.0 7.3 8.65 8.2 8.8 9.1 9.5 9.1 9.75 9.05 9.8 8.95 9.95 7.6 9.5 M-0.65 8.8 L-1.5 8.85 -2.0 8.85 -0.65 8.5 -0.5 8.5 -0.4 8.4 -0.65 8.8" fill="#000000" fill-opacity="0.29803923" fill-rule="evenodd" stroke="none"/>
      <path d="M1.85 8.85 L3.1 8.55 4.7 8.85 Q5.0 9.0 5.15 9.1 L5.4 9.5 5.4 9.75 5.0 9.95 4.45 10.4 2.95 10.4 Q1.85 10.4 1.45 10.0 L1.3 9.75 1.1 9.5 Q1.15 9.15 1.7 8.95 1.75 8.85 1.85 8.85 M7.2 9.45 L6.75 8.5 7.15 8.55 7.3 8.65 7.5 9.0 7.6 9.5 7.6 9.65 6.55 10.75 7.2 9.5 7.2 9.45 M0.3 8.3 L-0.1 8.8 -0.4 10.3 -0.75 9.5 -0.65 8.8 -0.4 8.4 0.3 8.3" fill="#000000" fill-rule="evenodd" stroke="none"/>
      <path d="M6.75 8.5 L2.05 8.05 0.3 8.3 -0.4 8.4 -0.5 8.5 -0.65 8.5 -2.0 8.85 -1.95 8.3 -0.7 7.9 1.95 7.55 5.35 7.7 9.3 8.55 Q10.3 9.15 10.5 9.8 L8.85 10.4 8.0 10.6 8.95 9.95 9.05 9.8 9.1 9.75 9.1 9.5 8.2 8.8 7.3 8.65 7.15 8.55 6.75 8.5 M6.0 11.2 L7.55 10.8 Q6.9 11.2 6.05 11.4 L-1.1 10.75 6.0 11.2" fill="url(#gradient3)" fill-rule="evenodd" stroke="none"/>
      <path d="M0.9 7.05 L4.2 7.35 1.3 7.25 -0.4 7.5 -1.45 7.7 -0.55 7.4 0.9 7.05" fill="url(#gradient4)" fill-rule="evenodd" stroke="none"/>
      <path d="M1.45 9.15 L1.0 9.35 -0.05 9.5 -1.1 9.35 -1.5 9.15 Q-1.5 9.0 -1.1 8.95 L-0.05 8.85 1.0 8.95 1.45 9.15" fill="#ffffff" fill-rule="evenodd" stroke="none"/>
    </g>
    <linearGradient gradientTransform="matrix(0.0076, 0.0, 0.0, -0.0019, 4.25, 9.1)" gradientUnits="userSpaceOnUse" id="gradient3" spreadMethod="pad" x1="-819.2" x2="819.2">
      <stop offset="0.0" stop-color="#000000" stop-opacity="0.6"/>
      <stop offset="1.0" stop-color="#000000" stop-opacity="0.9019608"/>
    </linearGradient>
    <linearGradient gradientTransform="matrix(0.0034, 0.0, 0.0, 4.0E-4, 1.35, 7.35)" gradientUnits="userSpaceOnUse" id="gradient4" spreadMethod="pad" x1="-819.2" x2="819.2">
      <stop offset="0.0" stop-color="#000000" stop-opacity="0.6"/>
      <stop offset="1.0" stop-color="#000000" stop-opacity="0.9019608"/>
    </linearGradient>
  </defs>
</svg>
