<?xml version="1.0" encoding="UTF-8" standalone="no"?>
<svg xmlns:ffdec="https://www.free-decompiler.com/flash" xmlns:xlink="http://www.w3.org/1999/xlink" ffdec:objectType="frame" height="10.2px" width="13.1px" xmlns="http://www.w3.org/2000/svg">
  <g transform="matrix(1.0, 0.0, 0.0, 1.0, -2.2, -0.6)">
    <use ffdec:characterId="8" height="8.15" transform="matrix(1.0, 0.0, 0.0, 1.0, 3.05, 2.65)" width="11.65" xlink:href="#shape0"/>
    <use ffdec:characterId="3" height="7.55" id="Color" transform="matrix(-0.9448, 0.0, 0.0, 1.0, 13.0362, 2.95)" width="7.45" xlink:href="#sprite0"/>
    <use ffdec:characterId="9" height="9.05" transform="matrix(1.0, 0.0, 0.0, 1.0, 2.2, 0.6)" width="13.05" xlink:href="#shape2"/>
  </g>
  <defs>
    <g id="shape0" transform="matrix(1.0, 0.0, 0.0, 1.0, -3.05, -2.65)">
      <path d="M5.1 4.9 L5.2 4.75 5.05 4.8 5.1 4.9 M14.15 8.25 L13.5 9.25 Q12.25 10.85 9.75 10.8 7.25 10.7 5.15 8.9 3.05 7.1 3.05 6.55 3.1 5.95 3.85 5.0 L4.75 3.95 Q5.7 3.25 8.5 2.65 11.2 2.8 13.05 4.25 14.65 5.5 14.7 6.55 L14.6 7.3 14.35 7.75 14.15 8.25" fill="#ffffff" fill-rule="evenodd" stroke="none"/>
    </g>
    <g id="sprite0" transform="matrix(1.0, 0.0, 0.0, 1.0, 0.25, 0.0)">
      <use ffdec:characterId="2" height="7.55" transform="matrix(1.0, 0.0, 0.0, 1.0, -0.25, 0.0)" width="7.45" xlink:href="#shape1"/>
    </g>
    <g id="shape1" transform="matrix(1.0, 0.0, 0.0, 1.0, 0.25, 0.0)">
      <path d="M5.05 7.35 L3.6 7.55 Q2.55 7.55 1.75 7.1 0.9 6.65 0.3 5.55 -0.3 4.5 -0.25 3.35 0.0 0.25 3.35 0.0 L4.65 0.05 6.15 1.0 Q7.05 1.95 7.2 3.35 7.3 4.75 6.85 5.6 L5.95 6.8 5.05 7.35" fill="#554164" fill-rule="evenodd" stroke="none"/>
    </g>
    <g id="shape2" transform="matrix(1.0, 0.0, 0.0, 1.0, -2.2, -0.6)">
      <path d="M11.7 6.1 L11.85 6.1 12.0 6.25 12.05 6.7 12.0 7.4 11.8 8.1 11.75 8.1 Q11.2 9.9 8.9 9.45 6.65 8.95 7.0 6.4 7.1 5.55 7.4 5.55 L7.5 5.6 7.55 5.6 7.55 5.8 7.55 7.05 7.85 7.65 8.35 8.15 Q8.65 8.4 9.15 8.45 L10.4 8.45 11.35 7.7 11.7 6.75 11.75 6.4 11.7 6.35 11.7 6.1 M10.75 7.65 Q10.15 8.15 9.45 8.05 8.7 7.95 8.25 7.3 7.7 6.7 7.9 5.85 8.15 5.0 8.8 4.7 L10.0 4.6 Q10.5 4.7 11.0 5.2 11.4 5.8 11.35 6.5 11.25 7.25 10.75 7.65" fill="#ffffff" fill-opacity="0.25882354" fill-rule="evenodd" stroke="none"/>
      <path d="M13.4 4.65 Q14.85 5.85 14.85 6.75 L14.85 6.8 14.65 7.3 14.3 7.9 14.1 8.4 13.0 7.05 12.55 6.4 Q11.2 4.95 8.65 4.95 6.75 4.95 5.4 6.4 L4.8 7.1 4.3 7.8 2.8 6.3 Q2.8 5.6 3.9 4.5 L4.8 3.8 Q6.1 2.95 7.8 2.95 11.3 2.95 13.4 4.65" fill="#000000" fill-opacity="0.2" fill-rule="evenodd" stroke="none"/>
      <path d="M15.15 6.1 L14.85 7.0 14.75 7.05 14.6 6.8 14.35 6.3 13.75 5.5 Q12.95 4.35 11.2 3.65 9.5 2.95 8.5 3.0 L6.2 3.6 Q5.45 3.85 4.8 4.65 L3.95 6.0 3.9 6.25 Q3.9 6.7 4.4 7.75 L4.65 8.2 5.25 9.05 4.0 8.2 Q2.75 6.85 2.2 5.8 L4.3 3.45 4.8 3.05 Q5.45 2.6 6.6 2.2 L7.6 1.9 10.75 2.2 11.25 2.35 12.65 2.9 14.05 4.0 15.25 5.55 15.1 6.0 15.15 6.1" fill="#513624" fill-rule="evenodd" stroke="none"/>
      <path d="M14.45 3.15 Q13.65 2.35 12.35 1.8 11.1 1.2 6.7 1.0 11.65 0.15 13.25 1.1 14.9 2.0 15.0 2.8 L15.2 3.9 14.45 3.15" fill="#6b3a00" fill-opacity="0.69411767" fill-rule="evenodd" stroke="none"/>
      <path d="M10.35 7.5 Q10.25 6.9 11.2 7.05 12.1 7.25 12.15 7.8 12.25 8.45 11.55 8.55 10.65 8.65 10.35 7.5 M7.25 5.5 Q7.25 4.9 7.9 4.9 8.5 4.9 8.5 5.55 8.45 6.15 7.85 6.1 7.2 6.05 7.25 5.5" fill="#ffffff" fill-rule="evenodd" stroke="none"/>
      <path d="M10.4 8.85 Q10.35 9.45 9.65 9.6 L8.75 9.65 8.7 9.65 Q7.85 9.65 7.3 9.0 6.75 8.35 6.95 7.6 7.1 6.8 8.0 6.85 8.85 6.9 9.35 7.25 L10.15 7.95 10.4 8.85" fill="#986dad" fill-opacity="0.49803922" fill-rule="evenodd" stroke="none"/>
    </g>
  </defs>
</svg>
