<?xml version="1.0" encoding="UTF-8" standalone="no"?>
<svg xmlns:ffdec="https://www.free-decompiler.com/flash" xmlns:xlink="http://www.w3.org/1999/xlink" ffdec:objectType="frame" height="10.8px" width="13.6px" xmlns="http://www.w3.org/2000/svg">
  <g transform="matrix(1.0, 0.0, 0.0, 1.0, 3.5, 0.05)">
    <use ffdec:characterId="22" height="2.4" transform="matrix(1.0, 0.0, 0.0, 1.0, -3.25, 6.9)" width="13.25" xlink:href="#shape0"/>
  </g>
  <defs>
    <g id="shape0" transform="matrix(1.0, 0.0, 0.0, 1.0, 3.25, -6.9)">
      <path d="M9.4 6.9 L8.7 7.6 10.0 7.75 8.5 8.0 8.2 8.0 7.95 8.15 9.0 8.2 8.55 8.45 7.9 8.55 7.35 8.5 7.05 8.65 7.75 8.75 8.1 8.75 7.6 8.95 7.05 9.05 6.9 9.05 6.3 9.0 6.9 9.1 6.75 9.1 6.0 9.1 1.35 9.25 -0.65 8.8 -2.0 8.3 -3.15 7.85 -3.25 7.75 -3.15 7.8 Q2.5 8.45 4.9 8.0 L7.1 7.6 8.95 7.1 9.4 6.9" fill="#2e1200" fill-rule="evenodd" stroke="none"/>
      <path d="M-3.0 7.05 Q4.05 8.1 6.25 7.1" fill="none" stroke="#2e1200" stroke-linecap="round" stroke-linejoin="round" stroke-width="0.2"/>
    </g>
  </defs>
</svg>
