<?xml version="1.0" encoding="UTF-8" standalone="no"?>
<svg xmlns:ffdec="https://www.free-decompiler.com/flash" xmlns:xlink="http://www.w3.org/1999/xlink" ffdec:objectType="frame" height="10.2px" width="13.1px" xmlns="http://www.w3.org/2000/svg">
  <g transform="matrix(1.0, 0.0, 0.0, 1.0, -2.2, -0.6)">
    <use ffdec:characterId="7" height="7.95" transform="matrix(1.0, 0.0, 0.0, 1.0, 2.2, 2.85)" width="13.05" xlink:href="#shape0"/>
  </g>
  <defs>
    <g id="shape0" transform="matrix(1.0, 0.0, 0.0, 1.0, -2.2, -2.85)">
      <path d="M5.1 6.2 L5.2 6.1 5.05 6.15 5.1 6.2 M14.15 8.85 L13.5 9.6 Q12.25 10.85 9.75 10.8 7.25 10.75 5.15 9.35 3.05 7.95 3.05 7.5 3.1 7.05 3.85 6.3 L4.75 5.5 Q5.7 4.95 8.5 4.45 11.2 4.6 13.05 5.7 14.65 6.7 14.7 7.5 L14.6 8.1 14.35 8.45 14.15 8.85" fill="#ffffff" fill-rule="evenodd" stroke="none"/>
      <path d="M11.15 10.25 L9.4 10.6 8.05 10.45 7.2 10.0 6.35 9.05 Q5.9 8.4 6.0 7.3 6.15 6.2 7.0 5.5 7.55 4.95 8.4 4.75 L9.65 4.7 Q12.8 4.9 13.05 7.3 13.1 8.2 12.5 9.05 L11.15 10.25" fill="#914f00" fill-rule="evenodd" stroke="none"/>
      <path d="M11.7 7.15 L11.85 7.15 12.0 7.25 12.05 7.6 12.0 8.15 11.8 8.7 11.75 8.7 Q11.2 10.1 8.9 9.75 6.65 9.4 7.0 7.4 7.1 6.75 7.4 6.75 L7.5 6.75 7.55 6.75 7.55 6.9 7.55 7.9 7.85 8.35 8.35 8.75 9.15 9.0 10.4 9.0 11.35 8.4 11.7 7.65 11.75 7.4 11.7 7.35 11.7 7.15 M11.35 7.45 Q11.25 8.05 10.75 8.35 L9.45 8.65 Q8.7 8.6 8.25 8.1 7.7 7.6 7.9 6.95 8.15 6.3 8.8 6.05 L10.0 6.0 Q10.5 6.05 11.0 6.45 L11.35 7.45" fill="#ffffff" fill-opacity="0.25882354" fill-rule="evenodd" stroke="none"/>
      <path d="M13.4 6.0 Q14.85 6.95 14.85 7.65 L14.85 7.7 14.65 8.1 14.3 8.55 14.1 8.95 13.0 7.9 12.55 7.4 Q11.2 6.25 8.65 6.25 6.75 6.25 5.4 7.4 L4.8 7.95 4.3 8.5 2.8 7.3 Q2.8 6.75 3.9 5.9 L4.8 5.35 Q6.1 4.7 7.8 4.7 11.3 4.7 13.4 6.0" fill="#000000" fill-opacity="0.2" fill-rule="evenodd" stroke="none"/>
      <path d="M11.25 4.25 L12.65 4.65 14.05 5.5 15.25 6.75 15.1 7.1 15.15 7.15 14.85 7.85 14.75 7.9 14.6 7.7 14.35 7.3 13.75 6.7 Q12.95 5.8 11.2 5.25 9.5 4.7 8.5 4.75 L6.2 5.2 Q5.45 5.4 4.8 6.0 L3.95 7.1 3.9 7.25 4.4 8.45 4.65 8.8 5.25 9.45 4.0 8.8 2.2 6.9 4.3 5.1 4.8 4.8 6.6 4.1 7.6 3.9 10.75 4.1 11.25 4.25" fill="#513624" fill-rule="evenodd" stroke="none"/>
      <path d="M14.45 4.85 Q13.65 4.25 12.35 3.8 L6.7 3.2 Q11.65 2.5 13.25 3.25 14.9 3.95 15.0 4.6 L15.2 5.45 14.45 4.85" fill="#6b3a00" fill-opacity="0.69411767" fill-rule="evenodd" stroke="none"/>
      <path d="M10.35 8.25 Q10.25 7.8 11.2 7.9 12.1 8.05 12.15 8.5 12.25 9.0 11.55 9.05 10.65 9.15 10.35 8.25 M8.5 6.75 Q8.45 7.2 7.85 7.15 7.2 7.1 7.25 6.7 7.25 6.2 7.9 6.2 8.5 6.2 8.5 6.75" fill="#ffffff" fill-rule="evenodd" stroke="none"/>
      <path d="M10.4 9.3 Q10.35 9.75 9.65 9.9 L8.75 9.9 8.7 9.9 Q7.85 9.9 7.3 9.4 6.75 8.9 6.95 8.3 7.1 7.7 8.0 7.75 L9.35 8.05 10.15 8.6 10.4 9.3" fill="#c9a06e" fill-opacity="0.5019608" fill-rule="evenodd" stroke="none"/>
    </g>
  </defs>
</svg>
