<?xml version="1.0" encoding="UTF-8" standalone="no"?>
<svg xmlns:ffdec="https://www.free-decompiler.com/flash" xmlns:xlink="http://www.w3.org/1999/xlink" ffdec:objectType="frame" height="8.3px" width="12.45px" xmlns="http://www.w3.org/2000/svg">
  <g transform="matrix(1.0, 0.0, 0.0, 1.0, -3.4, -2.4)">
    <use ffdec:characterId="3" height="3.0" transform="matrix(1.0, 0.0, 0.0, 1.0, 3.7, 6.0)" width="12.15" xlink:href="#shape0"/>
  </g>
  <defs>
    <g id="shape0" transform="matrix(1.0, 0.0, 0.0, 1.0, -3.7, -6.0)">
      <path d="M11.8 8.55 L10.45 8.85 9.4 8.95 8.65 9.0 7.3 8.85 6.1 8.6 5.7 8.4 5.6 8.4 4.65 8.25 5.15 8.15 5.2 8.15 4.85 8.0 4.5 8.0 4.1 7.85 4.6 7.75 4.5 7.65 4.65 7.65 Q3.9 7.6 3.7 7.2 L4.2 7.35 3.8 6.75 5.7 7.5 7.9 7.75 8.95 7.85 9.55 7.85 10.3 7.75 11.1 7.65 12.05 7.5 15.85 6.6 13.4 8.05 11.8 8.55" fill="#311200" fill-rule="evenodd" stroke="none"/>
      <path d="M15.55 6.1 Q8.55 8.2 4.75 6.8" fill="none" stroke="#2e1200" stroke-linecap="round" stroke-linejoin="round" stroke-width="0.2"/>
    </g>
  </defs>
</svg>
