<svg xmlns="http://www.w3.org/2000/svg" xmlns:ffdec="https://www.free-decompiler.com/flash" xmlns:xlink="http://www.w3.org/1999/xlink" ffdec:objectType="frame" width="14.5" height="13"><g transform="translate(2.2 .95)"><use ffdec:characterId="1" xlink:href="#a" width="14.05" height="13" transform="translate(-1.75 -.95)"/><use ffdec:characterId="3" xlink:href="#b" width="9" height="9.15" transform="translate(-.15 1.95)"/><use ffdec:characterId="4" xlink:href="#c" width="12" height="9.3" transform="translate(-.85 1.8)"/></g><defs><g id="a"><path fill="#3a2d2b" fill-rule="evenodd" d="m.9 5.3-.9.6 1.1-2.25q3.75-1.75 7.85-2.2l5.05.3h.05l-.2 1-.5 3.4-1.1 2.9.25-.85.2-.95q.5-2.8-.6-3.9-.25-.3-.85-.35L9.9 2.9q-1.95-.05-6.1.95l-1.85.7zm2.15 6.8 2.9.2 3.2-.05-1.55.55-2.95.1-1.05-.4z"/><path fill="#fff" fill-rule="evenodd" d="M12.5 8.2q-1 1.95-3.4 3.2l-1.15.4q2.45-2.2 2.6-3.95.25-3.4-.65-4.95l1.35.1q.6.05.85.35 1.1 1.1.6 3.9zM1.95 4.55l-.35 2.1.4 2.3Q2.55 11 3.7 11.7h-.05l-1.2-.35-.25-.2.05.2v-.05Q.85 8.9.9 5.3z"/><path fill="none" stroke="#3a2d2b" stroke-linecap="round" stroke-linejoin="round" stroke-width=".15" d="M2.25 2.35 4.7.95Q6.4 0 7.75.05"/></g><g id="c" fill-rule="evenodd"><path fill="url(#e)" d="M.25 3.45 1.8 2.9q4.2-1 6.4-.95.9 1.55.65 4.95-.15 1.75-2.6 3.95l-.9.15-1.45.1-1.9-.35Q.85 10.05.3 8l-.4-2.3q0-1.2.35-2.25" transform="translate(.85 -1.8)"/><path fill-opacity=".498" d="M9.05.15q.85 1.35.7 3.6L8.5 3.4l-2.2-.5.2 1.8q0 .9-.45 1.5-.45.65-1.1.65t-1.1-.65q-.45-.6-.45-1.5l.2-1.05.2-.6Q2.35 3.2.75 3.7l.35-2.05 1.55-.55q4.2-1 6.4-.95"/><path fill="url(#f)" d="m8.95 5.55-3.7-.8.25.7.15 1.1q0 .9-.45 1.5-.45.65-1.1.65T3 8.05q-.45-.6-.45-1.5Q2.55 5.7 3 5l-.65-.1-2.45.65q0-1.2.35-2.25l1.55-.55q4.2-1 6.4-.95.65 1.75.75 3.75" transform="translate(.85 -1.8)"/><path fill="#fff" fill-opacity=".4" d="M4.6 6.75q1 .35 1.9-1.25l-.05 1.05q-.35 1-1.65 1.05Q3.75 7 3.75 6.1z"/><path fill="#fff" d="M1.55 2.2q.1-.15 1.05-.35.9-.2.9 0l.05.95-.3 1.15-.85.3q-1 .3-.95 0l-.1-1z"/><path fill="#fff" fill-opacity=".694" d="M7.6 7.25 7 6.6l-.4-.55.1-.1.4-.05q.2-.1.6.15l.45.65.35.6h-.6z"/><path fill-opacity=".298" d="M11.25.5q.9.9.7 3.05-1.1-.65-2-.95-5-1.9-9.2.15l-.75.4.05-.65 1.2-.8q1.3-.65 1.55-.7Q6.95 0 9.05.05l1.35.1q.6.05.85.35"/></g><radialGradient id="e" cx="0" cy="0" r="819.2" gradientTransform="matrix(-.0073 0 0 .0073 4.4 6.55)" gradientUnits="userSpaceOnUse" spreadMethod="pad"><stop offset="0" stop-opacity="0"/><stop offset=".714" stop-opacity=".2"/></radialGradient><linearGradient id="f" x1="-819.2" x2="819.2" gradientTransform="matrix(0 -.0042 -.0056 0 4.55 5.25)" gradientUnits="userSpaceOnUse" spreadMethod="pad"><stop offset=".553" stop-opacity="0"/><stop offset="1" stop-opacity=".498"/></linearGradient><path id="d" fill="#793c67" fill-rule="evenodd" d="M8.95 4.95Q8.8 6.7 6.35 8.9l-.9.15-1.45.1-1.9-.35Q.95 8.1.4 6.05L0 3.75q0-1.05.35-2.1L2.2.95q4.15-1 6.1-.95.9 1.55.65 4.95"/><use ffdec:characterId="2" xlink:href="#d" id="b" width="9" height="9.15"/></defs></svg>