<svg xmlns="http://www.w3.org/2000/svg" xmlns:ffdec="https://www.free-decompiler.com/flash" xmlns:xlink="http://www.w3.org/1999/xlink" ffdec:objectType="frame" width="12.25" height="12.45"><g transform="translate(-3.35 1)"><use ffdec:characterId="1" xlink:href="#a" width="10.15" height="10.85" transform="translate(4.7 .6)"/><use ffdec:characterId="3" xlink:href="#b" width="7.5" height="8.95" transform="matrix(-1 0 0 1 13.6 2.1)"/><use ffdec:characterId="4" xlink:href="#c" width="11.75" height="12.05" transform="translate(3.85 -1)"/></g><defs><path id="a" fill="#fff" fill-rule="evenodd" d="M10.2.6q2.8 0 4 2.5.65 1.35.65 2.85 0 1.65-1 3.6-1 1.9-3.85 1.9T5.9 9.4Q4.7 7.3 4.7 6.1q0-1.6 1.1-2.95L7.6 1.5Q9 .6 10.2.6" transform="translate(-4.7 -.6)"/><path id="d" fill="#a62d7c" fill-rule="evenodd" d="m7.5 4.1-.2 1.8-.4 1.15-.85 1.05L5 8.75l-1.15.2-1.4-.2-1.2-.7Q.75 7.55.4 6.7 0 5.85 0 4.55q0-1.35.3-2.2.35-.9.85-1.4Q1.65.4 2.4.2L3.75 0l1.2.2q.5.2 1.1.75.6.45 1 1.2.4.8.45 1.95"/><linearGradient id="e" x1="-819.2" x2="819.2" gradientTransform="matrix(-.0004 .0054 .0045 .0003 9.8 6.6)" gradientUnits="userSpaceOnUse" spreadMethod="pad"><stop offset=".067" stop-opacity=".4"/><stop offset=".365" stop-opacity="0"/></linearGradient><use ffdec:characterId="2" xlink:href="#d" id="b" width="7.5" height="8.95"/><g id="c" fill-rule="evenodd"><path fill="url(#e)" d="M13.6 6.65q0 1.3-.4 2.15l-.85 1.35q-.5.5-1.2.7l-1.4.2-1.15-.2-1.05-.65-.85-1.05L6.3 8l-.2-1.8q.05-1.15.45-1.95.4-.75 1-1.2l1.1-.75 1.2-.2 1.35.2q.75.2 1.25.75l.85 1.4z" transform="translate(-3.85 1)"/><path fill="#fff" fill-opacity=".259" d="M7 5.5q.6.4.75 1.4.1.95-.5 1.6-.55.6-1.35.6-.75 0-1.25-.6-.45-.65-.45-1.45t.5-1.35q.55-.55 1.1-.55.6-.05 1.2.35m1.25.95.1-.05q.3 0 .3 1.1 0 3.15-2.4 3.4-2.35.2-2.75-2.15h-.05l-.1-.9L3.4 7l.1-.55.15-.15h.2v.3l-.05.05v.45l.25 1.25.85 1.1 1.25.25.9-.25.55-.55.35-.7.2-1.55.05-.25zm-.25 2-.1.3v.05z"/><path fill-opacity=".2" d="m11.15 6.05-.1 1.1-.1.6-.1.45q-.05-.6-1-1.8T6.5 4.85t-3.85 1.7Q1.3 8.6 1.45 9.6l-.1-.1-.3-.5-.4-1.45Q.45 6.4.7 5.6l.6-1.25.85-.95 1.5-1 4.95-.15q2.55 1.05 2.55 3.8"/><path d="M11.75 5.65V6l-.5-.65.05.55-.05.45v.2l-.05.3-.05.25-.1.35-.05.15v-.25l-.05-.5V6.6l-.25-1.1q-.3-.85-1.25-1.8t-2.1-1.25q-2.1-.35-3.65.75-1.55 1.05-2.2 2.6-.6 1.55-.2 3.1l.2.75Q.35 8.8 0 7.5q0-.8.45-2Q.95 4.25 2.2 3t3.5-1.5 3.8.95q1.45 1.15 1.85 2z"/><path fill="#6b3a00" fill-opacity=".694" d="M5.95.6 5.4.7l.25-.15L7.55 0 8 .05q1.2.3 1.9.95l1 1.1.45.65.3.4-.6-.5-.75-.7Q9.75 1.45 8.55.9z"/><path fill="#fff" d="M8.1 5.65q.85.1.85.9 0 .7-.85.7-.45 0-.65-.3L7.3 6.5q0-.95.8-.85m-3.65 1.7q.35.2.25.55l-.9.65q-.8.25-.8-.5-.05-.75.55-.85z"/><path fill="#ffa8ce" fill-opacity=".42" d="m8.15 8.45.6.8-.15.75-.85.9q-1.1.75-2.6.45-1.5-.35-1.5-1.1.05-.8.75-1.5.65-.7 1.9-.7t1.85.4"/></g></defs></svg>