<svg xmlns="http://www.w3.org/2000/svg" xmlns:ffdec="https://www.free-decompiler.com/flash" xmlns:xlink="http://www.w3.org/1999/xlink" ffdec:objectType="frame" width="12.25" height="12.45"><use ffdec:characterId="6" xlink:href="#a" width="12.15" height="2.85" transform="translate(0 7.25)"/><defs><g id="a" fill-rule="evenodd"><path d="m10.6 1.9-1.75.65-2.3.3q-1.35.1-3.25-.55l-.45.05.55-.1-.55.05H2.7l-.5-.1-.45-.25h.3l.65-.1-.25-.15-.5.05-.6-.1L.9 1.4l1-.05-.25-.2H1.4L0 .9 1.2.75.55 0 2.4 1.1l1.9.5q1.15.2 3.65.05l4.1-.7.1-.05-.1.1z"/><path fill="#8b6941" d="M8.25 1.05 8 1.1H5.65L3.1.6 1.9.15 7.3.7l4.35-.3h.25v.05z"/></g></defs></svg>