<?xml version="1.0" encoding="UTF-8" standalone="no"?>
<svg xmlns:ffdec="https://www.free-decompiler.com/flash" xmlns:xlink="http://www.w3.org/1999/xlink" ffdec:objectType="frame" height="12.45px" width="12.25px" xmlns="http://www.w3.org/2000/svg">
  <g transform="matrix(1.0, 0.0, 0.0, 1.0, -3.35, 1.0)">
    <use ffdec:characterId="6" height="2.85" transform="matrix(1.0, 0.0, 0.0, 1.0, 3.35, 6.25)" width="12.15" xlink:href="#shape0"/>
  </g>
  <defs>
    <g id="shape0" transform="matrix(1.0, 0.0, 0.0, 1.0, -3.35, -6.25)">
      <path d="M13.95 8.15 L12.2 8.8 9.9 9.1 Q8.55 9.2 6.65 8.55 L6.2 8.6 6.75 8.5 6.2 8.55 6.05 8.55 5.55 8.45 5.1 8.2 5.4 8.2 6.05 8.1 5.8 7.95 5.3 8.0 4.7 7.9 4.25 7.65 5.25 7.6 5.0 7.4 4.75 7.4 3.35 7.15 4.55 7.0 3.9 6.25 5.75 7.35 7.65 7.85 Q8.8 8.05 11.3 7.9 L15.4 7.2 15.5 7.15 15.4 7.25 13.95 8.15" fill="#000000" fill-rule="evenodd" stroke="none"/>
      <path d="M11.6 7.3 L11.35 7.35 9.0 7.35 6.45 6.85 5.25 6.4 10.65 6.95 15.0 6.65 15.25 6.65 15.25 6.7 11.6 7.3" fill="#8b6941" fill-rule="evenodd" stroke="none"/>
    </g>
  </defs>
</svg>
