<?xml version="1.0" encoding="UTF-8" standalone="no"?>
<svg xmlns:ffdec="https://www.free-decompiler.com/flash" xmlns:xlink="http://www.w3.org/1999/xlink" ffdec:objectType="frame" height="12.45px" width="12.25px" xmlns="http://www.w3.org/2000/svg">
  <g transform="matrix(1.0, 0.0, 0.0, 1.0, -3.35, 1.0)">
    <use ffdec:characterId="7" height="9.75" transform="matrix(1.0, 0.0, 0.0, 1.0, 3.85, 1.7)" width="11.75" xlink:href="#shape0"/>
  </g>
  <defs>
    <g id="shape0" transform="matrix(1.0, 0.0, 0.0, 1.0, -3.85, -1.7)">
      <path d="M10.2 2.95 Q13.0 2.95 14.2 4.9 14.85 5.95 14.85 7.1 14.85 8.45 13.85 10.0 12.85 11.45 10.0 11.45 7.15 11.45 5.9 9.85 4.7 8.2 4.7 7.25 4.7 6.0 5.8 4.95 L7.6 3.65 Q9.0 2.95 10.2 2.95" fill="#ffffff" fill-rule="evenodd" stroke="none"/>
      <path d="M13.2 9.35 L12.35 10.45 Q11.85 10.85 11.15 10.95 L9.75 11.15 8.6 10.95 7.55 10.45 6.7 9.65 6.3 8.75 6.1 7.35 Q6.15 6.4 6.55 5.8 L7.55 4.85 8.65 4.25 9.85 4.1 11.2 4.25 12.45 4.85 Q12.95 5.25 13.3 5.95 L13.6 7.7 Q13.6 8.7 13.2 9.35" fill="#a62d7c" fill-rule="evenodd" stroke="none"/>
      <path d="M13.6 6.65 Q13.6 7.95 13.2 8.8 L12.35 10.15 Q11.85 10.65 11.15 10.85 L9.75 11.05 8.6 10.85 7.55 10.2 6.7 9.15 6.3 8.0 6.1 6.2 Q6.15 5.05 6.55 4.25 6.95 3.5 7.55 3.05 L8.65 2.3 9.85 2.1 11.2 2.3 Q11.95 2.5 12.45 3.05 L13.3 4.45 13.6 6.65" fill="url(#gradient0)" fill-rule="evenodd" stroke="none"/>
      <path d="M12.2 6.7 Q12.5 6.7 12.5 7.6 12.5 10.05 10.1 10.2 7.75 10.4 7.35 8.55 L7.3 8.55 7.2 7.85 7.25 7.15 7.35 6.75 7.5 6.65 7.7 6.65 7.7 6.9 7.65 6.9 7.65 7.25 Q7.65 7.75 7.9 8.25 8.25 8.85 8.75 9.1 L10.0 9.3 10.9 9.1 11.45 8.65 11.8 8.1 12.0 6.9 12.05 6.7 12.1 6.75 12.2 6.7 M11.6 7.1 Q11.7 7.85 11.1 8.35 L9.75 8.8 Q9.0 8.8 8.5 8.35 8.05 7.85 8.05 7.2 8.05 6.6 8.55 6.2 9.1 5.7 9.65 5.7 10.25 5.65 10.85 6.0 11.45 6.35 11.6 7.1 M11.85 8.3 L11.75 8.55 11.75 8.6 11.85 8.3" fill="#ffffff" fill-opacity="0.25882354" fill-rule="evenodd" stroke="none"/>
      <path d="M15.0 6.4 L14.9 7.3 14.8 7.8 14.7 8.1 13.7 6.7 Q12.75 5.75 10.35 5.5 7.95 5.2 6.5 6.85 5.15 8.45 5.3 9.25 L5.2 9.15 4.9 8.75 4.5 7.6 Q4.3 6.7 4.55 6.1 L5.15 5.1 6.0 4.35 7.5 3.55 Q10.05 2.7 12.45 3.45 15.0 4.25 15.0 6.4" fill="#000000" fill-opacity="0.2" fill-rule="evenodd" stroke="none"/>
      <path d="M15.2 5.2 L15.6 6.15 15.6 6.4 15.1 5.9 15.15 6.35 15.1 6.65 15.1 6.85 15.05 7.1 15.0 7.25 14.9 7.55 14.85 7.65 14.85 7.45 14.8 7.1 14.8 6.9 14.55 6.0 13.3 4.6 Q12.35 3.85 11.2 3.6 9.1 3.35 7.55 4.2 6.0 5.0 5.35 6.25 4.75 7.45 5.15 8.65 L5.35 9.3 Q4.2 8.6 3.85 7.6 3.85 6.95 4.3 6.0 4.8 5.0 6.05 4.05 7.3 3.1 9.55 2.85 11.8 2.65 13.35 3.6 14.8 4.5 15.2 5.2" fill="#000000" fill-rule="evenodd" stroke="none"/>
      <path d="M15.5 4.15 L14.9 3.8 14.15 3.25 Q13.6 2.85 12.4 2.4 L9.8 2.15 9.25 2.25 9.5 2.1 11.4 1.7 11.85 1.75 Q13.05 1.95 13.75 2.5 L14.75 3.35 15.2 3.85 15.5 4.15" fill="#6b3a00" fill-opacity="0.69411767" fill-rule="evenodd" stroke="none"/>
      <path d="M11.95 7.35 Q11.5 7.35 11.3 7.1 L11.15 6.8 Q11.15 6.05 11.95 6.15 12.8 6.2 12.8 6.85 12.8 7.35 11.95 7.35 M8.3 7.45 L8.55 7.85 7.65 8.4 Q6.85 8.6 6.85 8.0 6.8 7.4 7.4 7.35 L8.3 7.45" fill="#ffffff" fill-rule="evenodd" stroke="none"/>
      <path d="M12.45 9.5 L11.6 10.2 Q10.5 10.85 9.0 10.6 7.5 10.3 7.5 9.75 7.55 9.1 8.25 8.55 8.9 8.0 10.15 8.0 L12.0 8.3 12.6 8.95 12.45 9.5" fill="#ffa8ce" fill-opacity="0.41960785" fill-rule="evenodd" stroke="none"/>
    </g>
    <linearGradient gradientTransform="matrix(-4.0E-4, 0.0054, 0.0045, 3.0E-4, 9.8, 6.6)" gradientUnits="userSpaceOnUse" id="gradient0" spreadMethod="pad" x1="-819.2" x2="819.2">
      <stop offset="0.06666666666666667" stop-color="#000000" stop-opacity="0.4"/>
      <stop offset="0.36470588235294116" stop-color="#000000" stop-opacity="0.0"/>
    </linearGradient>
  </defs>
</svg>
