<svg xmlns="http://www.w3.org/2000/svg" xmlns:ffdec="https://www.free-decompiler.com/flash" xmlns:xlink="http://www.w3.org/1999/xlink" ffdec:objectType="frame" width="12.25" height="12.45"><use ffdec:characterId="7" xlink:href="#a" width="11.75" height="9.75" transform="translate(.5 2.7)"/><defs><linearGradient id="b" x1="-819.2" x2="819.2" gradientTransform="matrix(-.0004 .0054 .0045 .0003 9.8 6.6)" gradientUnits="userSpaceOnUse" spreadMethod="pad"><stop offset=".067" stop-opacity=".4"/><stop offset=".365" stop-opacity="0"/></linearGradient><g id="a" fill-rule="evenodd"><path fill="#fff" d="M6.35 1.25q2.8 0 4 1.95.65 1.05.65 2.2 0 1.35-1 2.9-1 1.45-3.85 1.45t-4.1-1.6Q.85 6.5.85 5.55q0-1.25 1.1-2.3l1.8-1.3q1.4-.7 2.6-.7"/><path fill="#a62d7c" d="m9.35 7.65-.85 1.1q-.5.4-1.2.5l-1.4.2-1.15-.2-1.05-.5-.85-.8-.4-.9-.2-1.4q.05-.95.45-1.55l1-.95 1.1-.6L6 2.4l1.35.15 1.25.6q.5.4.85 1.1L9.75 6q0 1-.4 1.65"/><path fill="url(#b)" d="M13.6 6.65q0 1.3-.4 2.15l-.85 1.35q-.5.5-1.2.7l-1.4.2-1.15-.2-1.05-.65-.85-1.05L6.3 8l-.2-1.8q.05-1.15.45-1.95.4-.75 1-1.2l1.1-.75 1.2-.2 1.35.2q.75.2 1.25.75l.85 1.4z" transform="translate(-3.85 -1.7)"/><path fill="#fff" fill-opacity=".259" d="M8.35 5q.3 0 .3.9 0 2.45-2.4 2.6-2.35.2-2.75-1.65h-.05l-.1-.7.05-.7.1-.4.15-.1h.2v.25H3.8v.35q0 .5.25 1 .35.6.85.85l1.25.2.9-.2.55-.45.35-.55.2-1.2.05-.2.05.05zm-.6.4q.1.75-.5 1.25L5.9 7.1q-.75 0-1.25-.45-.45-.5-.45-1.15 0-.6.5-1Q5.25 4 5.8 4q.6-.05 1.2.3t.75 1.1M8 6.6l-.1.25v.05z"/><path fill-opacity=".2" d="m11.15 4.7-.1.9-.1.5-.1.3-1-1.4Q8.9 4.05 6.5 3.8q-2.4-.3-3.85 1.35-1.35 1.6-1.2 2.4l-.1-.1-.3-.4-.4-1.15Q.45 5 .7 4.4l.6-1 .85-.75 1.5-.8Q6.2 1 8.6 1.75q2.55.8 2.55 2.95"/><path d="m11.35 3.5.4.95v.25l-.5-.5.05.45-.05.3v.2l-.05.25-.05.15-.1.3-.05.1v-.2l-.05-.35v-.2l-.25-.9-1.25-1.4q-.95-.75-2.1-1-2.1-.25-3.65.6-1.55.8-2.2 2.05-.6 1.2-.2 2.4l.2.65Q.35 6.9 0 5.9q0-.65.45-1.6.5-1 1.75-1.95t3.5-1.2q2.25-.2 3.8.75 1.45.9 1.85 1.6"/><path fill="#6b3a00" fill-opacity=".694" d="m11.65 2.45-.6-.35-.75-.55q-.55-.4-1.75-.85L5.95.45l-.55.1.25-.15 1.9-.4.45.05q1.2.2 1.9.75l1 .85.45.5z"/><path fill="#fff" d="M8.1 5.65q-.45 0-.65-.25l-.15-.3q0-.75.8-.65.85.05.85.7 0 .5-.85.5m-3.65.1.25.4-.9.55q-.8.2-.8-.4-.05-.6.55-.65z"/><path fill="#ffa8ce" fill-opacity=".42" d="m8.6 7.8-.85.7q-1.1.65-2.6.4-1.5-.3-1.5-.85.05-.65.75-1.2.65-.55 1.9-.55l1.85.3.6.65z"/></g></defs></svg>