<?xml version="1.0" encoding="UTF-8" standalone="no"?>
<svg xmlns:ffdec="https://www.free-decompiler.com/flash" xmlns:xlink="http://www.w3.org/1999/xlink" ffdec:objectType="frame" height="13.45px" width="12.8px" xmlns="http://www.w3.org/2000/svg">
  <g transform="matrix(1.0, 0.0, 0.0, 1.0, 1.45, 1.75)">
    <use ffdec:characterId="20" height="5.15" transform="matrix(1.0, 0.0, 0.0, 1.0, -1.45, 4.7)" width="11.35" xlink:href="#shape0"/>
  </g>
  <defs>
    <g id="shape0" transform="matrix(1.0, 0.0, 0.0, 1.0, 1.45, -4.7)">
      <path d="M-0.4 8.7 L0.0 9.0 -0.4 8.7 -0.75 9.5 0.0 9.0 1.85 9.5 5.5 9.4 6.8 8.95 8.8 9.8 7.55 8.55 Q7.7 8.45 7.8 8.4 L8.25 8.1 8.3 8.05 8.25 8.1 7.8 8.4 9.6 8.55 8.3 8.05 Q9.4 7.3 9.85 6.15 8.9 7.55 7.55 7.45 8.8 6.95 9.25 4.75 8.45 6.25 7.35 6.85 L4.5 7.85 Q2.75 8.25 -1.4 7.25 L-0.5 7.9 Q-0.4 8.05 -0.45 8.35 L-0.4 8.7 M6.8 8.95 L7.55 8.55 6.8 8.95" fill="#3a2d2b" fill-rule="evenodd" stroke="none"/>
      <path d="M0.0 9.0 L-0.4 8.7 -0.45 8.35 Q-0.4 8.05 -0.5 7.9 L-1.4 7.25 Q2.75 8.25 4.5 7.85 L7.35 6.85 Q8.45 6.25 9.25 4.75 8.8 6.95 7.55 7.45 8.9 7.55 9.85 6.15 9.4 7.3 8.3 8.05 L8.25 8.1 7.8 8.4 Q7.7 8.45 7.55 8.55 L6.8 8.95 5.5 9.4 1.85 9.5 0.0 9.0 -0.75 9.5 -0.4 8.7 M6.8 8.95 L8.8 9.8 7.55 8.55 M7.8 8.4 L9.6 8.55 8.3 8.05 M-0.55 6.05 Q1.25 7.0 3.3 6.8" fill="none" stroke="#3a2d2b" stroke-linecap="round" stroke-linejoin="round" stroke-width="0.15000000000000002"/>
    </g>
  </defs>
</svg>
