<?xml version="1.0" encoding="UTF-8" standalone="no"?>
<svg xmlns:ffdec="https://www.free-decompiler.com/flash" xmlns:xlink="http://www.w3.org/1999/xlink" ffdec:objectType="frame" height="11.95px" width="14.95px" xmlns="http://www.w3.org/2000/svg">
  <g transform="matrix(1.0, 0.0, 0.0, 1.0, 0.0, -0.4)">
    <use ffdec:characterId="2" height="8.55" transform="matrix(1.0, 0.0, 0.0, 1.0, 0.0, 3.8)" width="14.95" xlink:href="#shape0"/>
  </g>
  <defs>
    <g id="shape0" transform="matrix(1.0, 0.0, 0.0, 1.0, 0.0, -3.8)">
      <path d="M14.3 7.65 L14.45 7.8 14.25 9.6 Q13.9 10.85 12.75 11.5 L11.85 11.9 11.1 12.2 10.8 12.15 10.3 12.25 9.2 12.3 8.95 12.2 6.5 11.9 6.25 11.85 5.75 11.75 Q4.65 11.4 3.7 10.75 L3.7 10.65 3.65 10.65 3.05 9.15 2.8 6.9 Q2.9 5.9 4.45 5.45 L7.65 5.2 Q10.15 5.4 12.0 6.2 L12.05 6.2 Q13.6 6.8 14.3 7.65" fill="#ffffff" fill-rule="evenodd" stroke="none"/>
      <path d="M11.45 4.95 Q13.25 5.9 13.4 8.1 13.55 9.5 12.95 10.55 12.2 11.9 10.4 12.0 6.3 12.25 5.1 10.1 3.85 7.85 4.45 6.4 5.0 4.9 7.15 4.55 9.75 4.05 11.45 4.95" fill="url(#gradient0)" fill-rule="evenodd" stroke="none"/>
      <path d="M11.45 9.15 L11.65 8.75 11.7 7.95 11.65 7.75 12.5 7.75 Q12.6 9.6 11.9 10.3 L11.6 10.65 Q10.65 11.3 9.2 11.3 7.8 11.3 6.85 10.35 6.0 9.45 5.9 7.9 L6.6 7.9 6.6 8.25 Q6.65 9.1 7.0 9.5 L7.65 10.05 8.6 10.35 9.0 10.35 Q10.6 10.2 11.05 9.75 L11.45 9.15" fill="#ffffff" fill-opacity="0.2509804" fill-rule="evenodd" stroke="none"/>
      <path d="M8.65 6.4 L8.95 5.75 Q9.25 5.5 9.55 6.35 L9.75 7.5 9.8 8.0 9.8 8.75 9.7 9.55 9.5 10.15 9.5 10.2 9.35 10.4 9.25 10.45 9.2 10.5 9.0 10.45 8.75 10.1 8.55 9.45 8.45 8.25 8.45 7.9 8.65 6.4" fill="#000000" fill-opacity="0.9882353" fill-rule="evenodd" stroke="none"/>
      <path d="M7.95 5.7 Q8.55 5.7 8.95 6.1 9.35 6.3 9.3 6.75 L8.75 7.4 7.7 7.65 7.05 7.5 Q6.35 7.2 6.4 6.65 6.4 6.3 6.9 6.0 L7.95 5.7" fill="#ffffff" fill-rule="evenodd" stroke="none"/>
      <path d="M10.5 9.55 L11.35 9.75 12.0 10.25 12.15 10.65 Q12.1 11.15 11.55 11.5 L10.35 11.75 Q9.35 11.75 8.95 11.1 L8.85 10.65 8.9 10.5 8.95 10.25 Q9.4 9.55 10.5 9.55" fill="#ffffff" fill-opacity="0.4" fill-rule="evenodd" stroke="none"/>
      <path d="M14.45 8.45 Q13.65 7.2 11.9 6.55 10.2 5.9 8.2 6.0 L7.4 6.0 Q5.4 6.2 4.05 6.95 3.3 7.3 2.2 8.25 L2.05 7.7 Q2.05 4.5 7.0 4.5 L8.5 4.6 Q11.15 5.15 12.75 5.95 14.55 6.8 14.55 7.9 L14.45 8.45" fill="#000000" fill-opacity="0.2509804" fill-rule="evenodd" stroke="none"/>
      <path d="M14.3 5.7 Q13.3 4.85 11.15 4.4 L9.8 4.15 11.85 4.85 Q14.6 6.0 14.9 8.05 L14.95 8.4 Q14.95 8.55 14.85 8.35 L14.75 8.15 14.65 8.1 14.45 7.8 14.3 7.65 Q13.6 6.8 12.05 6.2 L12.0 6.2 Q10.15 5.4 7.65 5.2 L4.45 5.45 Q2.9 5.9 2.8 6.9 L3.05 9.15 3.65 10.65 3.7 10.65 3.7 10.7 2.3 9.5 Q1.5 8.5 1.3 7.1 0.6 7.25 0.15 7.55 L0.05 7.6 0.0 7.6 0.55 6.55 Q0.95 5.8 2.3 5.0 L2.45 4.95 2.7 4.8 2.4 4.85 1.6 4.95 1.45 4.95 1.3 4.95 0.8 5.1 Q0.45 5.2 0.9 5.0 L1.35 4.8 Q3.15 4.0 5.65 3.9 L5.7 3.9 6.8 3.85 7.7 3.85 7.8 3.85 11.2 4.2 Q13.05 4.6 14.35 5.6 L14.55 5.7 14.4 5.7 14.3 5.7 M12.6 11.75 L12.3 11.85 Q11.65 12.35 9.6 12.35 L6.85 12.1 6.25 11.9 6.9 12.0 8.3 12.1 10.0 12.1 11.7 11.95 12.4 11.75 12.35 11.8 12.6 11.75" fill="#3a2d2b" fill-rule="evenodd" stroke="none"/>
    </g>
    <linearGradient gradientTransform="matrix(-2.0E-4, 0.0047, 0.0066, 2.0E-4, 8.85, 8.2)" gradientUnits="userSpaceOnUse" id="gradient0" spreadMethod="pad" x1="-819.2" x2="819.2">
      <stop offset="0.0" stop-color="#000000"/>
      <stop offset="0.6823529411764706" stop-color="#8c8c8c"/>
    </linearGradient>
  </defs>
</svg>
