<?xml version="1.0" encoding="UTF-8" standalone="no"?>
<svg xmlns:ffdec="https://www.free-decompiler.com/flash" xmlns:xlink="http://www.w3.org/1999/xlink" ffdec:objectType="frame" height="12.45px" width="12.35px" xmlns="http://www.w3.org/2000/svg">
  <g transform="matrix(1.0, 0.0, 0.0, 1.0, 3.05, 1.0)">
    <use ffdec:characterId="10" height="10.85" transform="matrix(1.0, 0.0, 0.0, 1.0, -2.3, 0.6)" width="10.15" xlink:href="#shape0"/>
    <use ffdec:characterId="11" height="8.95" id="Color" transform="matrix(1.0, 0.0, 0.0, 1.0, -1.05, 2.1)" width="7.5" xlink:href="#sprite0"/>
    <use ffdec:characterId="12" height="12.05" transform="matrix(1.0, 0.0, 0.0, 1.0, -3.05, -1.0)" width="11.75" xlink:href="#shape2"/>
  </g>
  <defs>
    <g id="shape0" transform="matrix(1.0, 0.0, 0.0, 1.0, 2.3, -0.6)">
      <path d="M6.65 9.4 Q5.4 11.45 2.55 11.45 -0.3 11.45 -1.3 9.55 -2.3 7.6 -2.3 5.95 -2.3 4.45 -1.65 3.1 -0.45 0.6 2.35 0.6 3.55 0.6 4.95 1.5 L6.75 3.15 Q7.85 4.5 7.85 6.1 7.85 7.3 6.65 9.4" fill="#ffffff" fill-rule="evenodd" stroke="none"/>
    </g>
    <g id="sprite0" transform="matrix(1.0, 0.0, 0.0, 1.0, 0.0, 0.0)">
      <use ffdec:characterId="2" height="8.95" transform="matrix(1.0, 0.0, 0.0, 1.0, 0.0, 0.0)" width="7.5" xlink:href="#shape1"/>
    </g>
    <g id="shape1" transform="matrix(1.0, 0.0, 0.0, 1.0, 0.0, 0.0)">
      <path d="M7.5 4.1 L7.3 5.9 6.9 7.05 6.05 8.1 5.0 8.75 3.85 8.95 2.45 8.75 1.25 8.05 Q0.75 7.55 0.4 6.7 0.0 5.85 0.0 4.55 0.0 3.2 0.3 2.35 0.65 1.45 1.15 0.95 1.65 0.4 2.4 0.2 L3.75 0.0 4.95 0.2 Q5.45 0.4 6.05 0.95 6.65 1.4 7.05 2.15 7.45 2.95 7.5 4.1" fill="#a62d7c" fill-rule="evenodd" stroke="none"/>
    </g>
    <g id="shape2" transform="matrix(1.0, 0.0, 0.0, 1.0, 3.05, 1.0)">
      <path d="M3.9 2.3 L5.0 3.05 Q5.6 3.5 6.0 4.25 6.4 5.05 6.45 6.2 L6.25 8.0 5.85 9.15 5.0 10.2 3.95 10.85 2.8 11.05 1.4 10.85 0.2 10.15 -0.65 8.8 Q-1.05 7.95 -1.05 6.65 L-0.75 4.45 0.1 3.05 Q0.6 2.5 1.35 2.3 L2.7 2.1 3.9 2.3" fill="url(#gradient0)" fill-rule="evenodd" stroke="none"/>
      <path d="M5.3 6.0 L5.35 6.85 5.25 7.75 5.2 7.75 Q4.8 10.1 2.45 9.9 0.05 9.65 0.05 6.5 0.05 5.4 0.35 5.4 L0.45 5.45 0.5 5.4 0.55 5.65 0.75 7.2 1.1 7.9 1.65 8.45 2.55 8.7 3.8 8.45 4.65 7.35 4.9 6.1 4.9 5.65 4.85 5.6 4.85 5.3 5.05 5.3 5.2 5.45 5.3 6.0 M1.7 4.5 Q2.3 4.1 2.9 4.15 3.45 4.15 4.0 4.7 4.5 5.25 4.5 6.05 4.5 6.85 4.05 7.5 3.55 8.1 2.8 8.1 2.0 8.1 1.45 7.5 0.85 6.85 0.95 5.9 1.1 4.9 1.7 4.5 M0.8 7.75 L0.7 7.45 0.8 7.8 0.8 7.75" fill="#ffffff" fill-opacity="0.25882354" fill-rule="evenodd" stroke="none"/>
      <path d="M8.0 4.6 Q8.25 5.4 8.05 6.55 L7.65 8.0 7.35 8.5 7.25 8.6 Q7.4 7.6 6.05 5.55 4.6 3.5 2.2 3.85 -0.2 4.2 -1.15 5.4 -2.1 6.6 -2.15 7.2 L-2.25 6.75 -2.35 6.15 -2.45 5.05 Q-2.45 2.3 0.1 1.25 L5.05 1.4 Q6.0 1.9 6.55 2.4 L7.4 3.35 8.0 4.6" fill="#000000" fill-opacity="0.2" fill-rule="evenodd" stroke="none"/>
      <path d="M-2.65 3.45 Q-2.25 2.6 -0.8 1.45 0.75 0.25 3.0 0.5 5.25 0.75 6.5 2.0 7.75 3.25 8.25 4.5 L8.7 6.5 Q8.35 7.8 7.2 8.65 L7.4 7.9 Q7.8 6.35 7.2 4.8 6.55 3.25 5.0 2.2 3.45 1.1 1.35 1.45 0.2 1.75 -0.75 2.7 L-2.0 4.5 -2.25 5.6 -2.25 5.85 -2.3 6.35 -2.3 6.6 -2.35 6.45 -2.45 6.1 -2.5 5.85 -2.55 5.55 -2.55 5.35 -2.6 4.9 -2.55 4.35 -3.05 5.0 -3.05 4.65 -2.65 3.45" fill="#000000" fill-rule="evenodd" stroke="none"/>
      <path d="M0.15 -0.1 L-1.6 0.95 -2.35 1.65 -2.95 2.15 -2.65 1.75 -2.2 1.1 -1.2 0.0 Q-0.5 -0.65 0.7 -0.95 L1.15 -1.0 3.05 -0.45 Q3.15 -0.4 3.3 -0.3 L2.75 -0.4 0.15 -0.1" fill="#6b3a00" fill-opacity="0.69411767" fill-rule="evenodd" stroke="none"/>
      <path d="M3.8 5.55 Q3.8 4.6 4.6 4.7 5.45 4.8 5.45 5.6 5.45 6.3 4.6 6.3 L3.95 6.0 3.8 5.55 M1.4 6.9 L0.5 7.55 Q-0.3 7.8 -0.3 7.05 -0.35 6.3 0.25 6.2 L1.15 6.35 Q1.5 6.55 1.4 6.9" fill="#ffffff" fill-rule="evenodd" stroke="none"/>
      <path d="M4.85 7.45 L5.45 8.25 5.3 9.0 4.45 9.9 Q3.35 10.65 1.85 10.35 0.35 10.0 0.35 9.25 0.4 8.45 1.1 7.75 1.75 7.05 3.0 7.05 L4.85 7.45" fill="#ffa8ce" fill-opacity="0.41960785" fill-rule="evenodd" stroke="none"/>
    </g>
    <linearGradient gradientTransform="matrix(4.0E-4, 0.0054, -0.0045, 3.0E-4, 2.75, 6.6)" gradientUnits="userSpaceOnUse" id="gradient0" spreadMethod="pad" x1="-819.2" x2="819.2">
      <stop offset="0.06666666666666667" stop-color="#000000" stop-opacity="0.4"/>
      <stop offset="0.36470588235294116" stop-color="#000000" stop-opacity="0.0"/>
    </linearGradient>
  </defs>
</svg>
