<svg xmlns="http://www.w3.org/2000/svg" xmlns:ffdec="https://www.free-decompiler.com/flash" xmlns:xlink="http://www.w3.org/1999/xlink" ffdec:objectType="frame" width="12.85" height="9.65"><use ffdec:characterId="1" xlink:href="#a" width="12.65" height="9.65"/><defs><linearGradient id="b" x1="-819.2" x2="819.2" gradientTransform="matrix(0 .0046 .0048 0 9.55 6.45)" gradientUnits="userSpaceOnUse" spreadMethod="pad"><stop offset="0" stop-color="#540000"/><stop offset="1" stop-opacity="0"/></linearGradient><g id="a" fill-rule="evenodd"><path fill="#fff" d="M9.05 2.05q1.5.25 2.15.9l.35.7.5 1q.25.35.05 1.45-.15 1.05-1.2 1.9-1 .85-3 1.25l-2.4.05Q3.75 8.95 2.8 8q-.9-1.05-1.25-2.35T1.5 3.8l.8-1.1q.6-1.05 3.85-1.6v.05l1.65.3q.7.5 1.25.6"/><path fill="#db2626" d="M8.9 1.85Q10 3.1 10.05 4.5q.05 1.45-.5 2.5-.5 1.05-1.15 1.45-.6.4-1.2.45l-1.4-.1q-.95-.15-1.4-.45Q4 8.05 3.65 7q-.6-1.7-.15-3.25.45-1.65 2.4-2.4h.8l1.85.45q.2 0 .65.45z"/><path fill="url(#b)" d="m11.4 9.9-3.25.15-.95-.4q-.7-1.1-.9-2.75-.15-1.7.8-3.15t.75-.85l1.05-.2q1.55-.05 2.65.55l.95.65q.65 1 .5 2.3 0 1.7-1.15 3.15z" transform="translate(-3 -1.35)"/><path fill-opacity=".502" d="M6.65 3.25q.6-.05 1.2.5.75.6.5 2.1-.2 1.3-1.6 1.45-1.05.15-1.65-.65Q4.55 6 4.85 4.8q.4-1.45 1.8-1.55"/><path fill="#ff7b7b" fill-opacity=".459" d="m5.95 8.7-.8-.25q-1.05-.4-1-1.15t.6-1.2q.75-.5 1.95-.3 1.25.15 1.75.9.3.45.2.95-.05.5-.65.8z"/><path fill-opacity=".2" d="M8.4 5.2v-.3l.1.75q.05.7-.4 1.4-.45.65-1.7.6-1.15-.1-1.6-.7-.4-.6-.35-1.3.1-.75.35-1.05l.35-.4-.2.55q-.15.35-.15.85 0 .45.3 1 .35.55 1.15.6l1.25-.15.7-.9z"/><path fill="#fff" d="M8.3 5.5q-.6 0-.9-.45l-.2-.55.25-.65q.35-.45.95-.45.95 0 .95 1 0 1.1-1.05 1.1m-3.45.05q0 .4-.35.4l-.35-.2v-.2q0-.35.4-.35.3 0 .3.35"/><path fill-opacity=".169" d="m7.25 1.55 1.25.3q1.5.5 2.1 1.05l1.15 1.3.2.75q0 .35.15.45v.05l-.05.75-.15.5-.1-.1-.3-.35q-.7-.95-2.2-1.85-1.45-.9-3.35-.9-1.85 0-3.25 1.25t-1.2 1.6q-.35 0-.35-1.3t1.55-2.5 3.1-1.2h.6l.1.05z"/><path d="M9.45 1.4q.6.25 1.4.8l1.8 2-1.25-1.1q.6 1 .85 2.2l.1.65-.85-1.35-1.85-1.7Q8.4 2 6.4 1.85q-2-.2-3.5 1.15-1.45 1.35-1 3.15l.2.65q.45.9.15.65L1.3 6.2.25 4.95l.9-.35q.2-.15-.2-.15l-.7-.25L0 3.95.05 4l1.1-.35.15-.1.1-.1L.9 3l-.35-.35.1-.1 1 .1h.4l.05-.1-.45-.4-.25-.35.75.15.9-.2h.1q.95-.6 2.1-.75l-2.35.3-.35.1Q3.1 1 5.3.7h1.35l1.5.25.4.15zM4.4 8.9l.6.2-.1.05-.6.35q-.15-.4.05-.65l-.9.25.25-.45-.85.1q-.3.15-.2-.15.1-.35.35-.55V8l1.35.85zm.7.2.75.1-.7.45-.05-.45z"/><path fill="#936440" d="m9.25.7-.7-.15L6.8.2Q5.25-.1 8.4.05q3.2.1 4.2 2.7L11.2 1.6Q9.75.8 9.25.7"/></g></defs></svg>