<svg xmlns="http://www.w3.org/2000/svg" xmlns:ffdec="https://www.free-decompiler.com/flash" xmlns:xlink="http://www.w3.org/1999/xlink" ffdec:objectType="frame" width="12.45" height="8.3"><use ffdec:characterId="2" xlink:href="#a" width="12.4" height="5.95" transform="translate(0 2.35)"/><defs><radialGradient id="b" cx="0" cy="0" r="819.2" gradientTransform="matrix(.0041 0 0 .0029 10.1 8)" gradientUnits="userSpaceOnUse" spreadMethod="pad"><stop offset="0" stop-color="#fff" stop-opacity=".325"/><stop offset=".737" stop-color="#fff" stop-opacity="0"/></radialGradient><g id="a"><path fill="#fff" fill-rule="evenodd" d="M1.45 3.6q1.4-.55 2.9-.8l4 .1q1.8.4 2.7 1.2l-.65.85-.15.15-.4.1q-.7.2-.9.35l-1.4.15-.65.15-3.15-.6-.85-.4h-.1l-.25-.15-.3-.3-.4-.2H1.8z"/><path fill="#c4c4c4" fill-rule="evenodd" d="m1.45 3.6-.4-.95q0-.55 1.3-1.1 1.6-.7 4.05-.7 2.35 0 3.55.85l1.6 1.15q-.05.6-.5 1.25-.9-.8-2.7-1.2l-4-.1q-1.5.25-2.9.8"/><path fill="#666" fill-rule="evenodd" d="M9.4 4.15Q8.5 5.2 6.8 5.2q-1.65 0-2.3-.45-.55-.4-.75-.8l-.2-.85.05-.4q.1-.8.7-1.25.65-.5 1.95-.45L8 1.2l.85.4.55.3q.5.7.35 1.45z"/><path fill="#333" fill-rule="evenodd" d="m7.45 4.6-.7.15L5.3 4.6l-.8-.85q-.25-.55.3-1.45l-.1.65-.05-.05q.25.8.95 1.15.7.3 1.75 0 1.1-.35 1-1.05l-.05-.65.25.35q.5 1.3-1.1 1.9"/><path fill="url(#b)" fill-rule="evenodd" d="M10.1 9.85q-1.05 0-1.85-.5Q7.5 8.75 7.5 8t.75-1.3q.8-.55 1.85-.55t1.85.55q.75.55.75 1.3t-.75 1.35z" transform="translate(-3.4 -4.75)"/><path fill-opacity=".298" fill-rule="evenodd" d="m8 1.2.85.4.55.3q.5.7.35 1.45Q8.5 2.7 6.6 2.7l-3 .1v-.1q.1-.8.7-1.25.65-.5 1.95-.45z"/><path fill="#311200" fill-rule="evenodd" d="m12.15 3.4-2.1-1.2-1.1-.5-2.3-.5-1.75.15-1.55.35q-.2 0-.35.15L2.65 2q-1.2.65-1.1 1.1l.5 1q.45.55-.25.1L.6 3.35Q.05 3 .05 2.7l1.7-1.2Q2.9.7 4.4.55L7 .45 9.2.9q1.1.45 1.65.95l.7.85zm-3.5 2.25-.9.2-1.65.1-1.4-.2-1.95-.8-.05-.1-.15-.15.05-.05 1.05.45 2.5.45-.6.05q3.4 0 4.8-.6z"/><path fill="none" stroke="#2e1200" stroke-linecap="round" stroke-linejoin="round" stroke-width=".2" d="M12.3 2.3q-.95-.9-2.55-1.55L8.85.4Q5.7-.35 2.3.75L.1 2.05"/><path fill="#fff" fill-rule="evenodd" d="m9.75 4.05-.3.1-.25-.05v-.25h.2zm-.1-.4-.5-.15L9 3.35q0-.25.5-.2t.5.25zm-3.25 0q.45 0 .45.25l-.2.3-.5.15-.35-.2q0-.5.6-.5m-2-.85q.95-.1 1 .3l-.3.75-.95.15q-.65-.05-.65-.45 0-.7.9-.75"/></g></defs></svg>