<svg xmlns="http://www.w3.org/2000/svg" xmlns:ffdec="https://www.free-decompiler.com/flash" xmlns:xlink="http://www.w3.org/1999/xlink" ffdec:objectType="frame" width="11.2" height="11.3"><g transform="translate(-2.8 -1.7)"><use ffdec:characterId="8" xlink:href="#a" width="10.55" height="9.75" transform="translate(3.4 3)"/><use ffdec:characterId="10" xlink:href="#b" width="6.75" height="9.3" transform="translate(6.4 3)"/><use ffdec:characterId="11" xlink:href="#c" width="11.2" height="10.6" transform="translate(2.8 1.7)"/></g><defs><path id="a" fill="#fff" fill-rule="evenodd" d="m11.65 3.6 2.3 2.1q-.1 4-1.95 5.9-.95.95-1.9 1.1l-2.8-.45q-2.4-.95-3.45-3.7l-.45-1.5.35-2.95q.9-.5 2.2-.85l.9-.15q2.45-.35 4.8.5" transform="translate(-3.4 -3)"/><path id="d" fill="#e56c44" fill-rule="evenodd" d="m5.2.6 1.5 1.2.05 1.25q.1 2.55-.8 4.3-.75 1.9-2.3 1.95-1.3.1-2.35-1.65l-.7-1.3-.2-.65-.1-.4-.15-1-.1-.8Q-.1 1.65.4.1q2.45-.35 4.8.5"/><linearGradient id="e" x1="-819.2" x2="819.2" gradientTransform="matrix(0 .0061 -.0057 0 9.75 7.65)" gradientUnits="userSpaceOnUse" spreadMethod="pad"><stop offset="0" stop-color="#4c2b0b"/><stop offset=".631" stop-color="#4c2b0b" stop-opacity="0"/></linearGradient><use ffdec:characterId="9" xlink:href="#d" id="b" width="6.75" height="9.3"/><g id="c" fill-rule="evenodd"><path fill="url(#e)" d="M13.15 6.05q.1 2.55-.8 4.3-.75 1.9-2.3 1.95-1.3.1-2.35-1.65L7 9.35l-.2-.65-.1-.4-.15-1-.1-.8q-.15-1.85.35-3.4 2.45-.35 4.8.5l1.5 1.2z" transform="translate(-2.8 -1.7)"/><path fill="#fff" d="m3.9 5.6 1.2.2.55.5-.55.5-1.05.2H3.9l-1.25-.2q-.5-.2-.5-.5t.5-.5l1.15-.2z"/><path fill-opacity=".498" d="m8.85 5.3-.5.5q-.3 0-.5-.5l-.2-1.2.2-1.2q.2-.5.5-.5l.5.5.2 1.2z"/><path fill="#fff" fill-opacity=".8" d="M9.2 7.7q.05.85-.45 1.6l-1.25.95L6.3 10l-.45-.5q1.4.5 2.5-.65z"/><path fill="#2d4565" d="m9.8 1.5 1.4 2.6L8.9 2q-2.35-.85-4.8-.5l-.9.15L1 2.5.65 5.45l-.2-.65Q.2 4.05.1 2.95L0 1.5Q1.4.9 3.2.55L4.65.5q2.8-.25 5.15 1M8.45.5 5.2.25 6.9 0q1.85-.05 2.65 1z"/></g></defs></svg>