<?xml version="1.0" encoding="UTF-8" standalone="no"?>
<svg xmlns:ffdec="https://www.free-decompiler.com/flash" xmlns:xlink="http://www.w3.org/1999/xlink" ffdec:objectType="frame" height="11.3px" width="11.2px" xmlns="http://www.w3.org/2000/svg">
  <g transform="matrix(1.0, 0.0, 0.0, 1.0, -2.8, -1.7)">
    <use ffdec:characterId="8" height="9.75" transform="matrix(1.0, 0.0, 0.0, 1.0, 3.4, 3.0)" width="10.55" xlink:href="#shape0"/>
    <use ffdec:characterId="10" height="9.3" transform="matrix(1.0, 0.0, 0.0, 1.0, 6.4, 3.0)" width="6.75" xlink:href="#sprite0"/>
    <use ffdec:characterId="11" height="10.6" transform="matrix(1.0, 0.0, 0.0, 1.0, 2.8, 1.7)" width="11.2" xlink:href="#shape2"/>
  </g>
  <defs>
    <g id="shape0" transform="matrix(1.0, 0.0, 0.0, 1.0, -3.4, -3.0)">
      <path d="M11.65 3.6 L13.95 5.7 Q13.85 9.7 12.0 11.6 11.05 12.55 10.1 12.7 L7.3 12.25 Q4.9 11.3 3.85 8.55 L3.4 7.05 3.75 4.1 Q4.65 3.6 5.95 3.25 L6.85 3.1 Q9.3 2.75 11.65 3.6" fill="#ffffff" fill-rule="evenodd" stroke="none"/>
    </g>
    <g id="sprite0" transform="matrix(1.0, 0.0, 0.0, 1.0, 0.0, 0.0)">
      <use ffdec:characterId="9" height="9.3" transform="matrix(1.0, 0.0, 0.0, 1.0, 0.0, 0.0)" width="6.75" xlink:href="#shape1"/>
    </g>
    <g id="shape1" transform="matrix(1.0, 0.0, 0.0, 1.0, 0.0, 0.0)">
      <path d="M5.2 0.6 L6.7 1.8 6.75 3.05 Q6.85 5.6 5.95 7.35 5.2 9.25 3.65 9.3 2.35 9.4 1.3 7.65 L0.6 6.35 0.4 5.7 0.3 5.3 0.15 4.3 0.05 3.5 Q-0.1 1.65 0.4 0.1 2.85 -0.25 5.2 0.6" fill="#e56c44" fill-rule="evenodd" stroke="none"/>
    </g>
    <g id="shape2" transform="matrix(1.0, 0.0, 0.0, 1.0, -2.8, -1.7)">
      <path d="M13.15 6.05 Q13.25 8.6 12.35 10.35 11.6 12.25 10.05 12.3 8.75 12.4 7.7 10.65 L7.0 9.35 6.8 8.7 6.7 8.3 6.55 7.3 6.45 6.5 Q6.3 4.65 6.8 3.1 9.25 2.75 11.6 3.6 L13.1 4.8 13.15 6.05" fill="url(#gradient0)" fill-rule="evenodd" stroke="none"/>
      <path d="M6.7 7.3 L7.9 7.5 8.45 8.0 7.9 8.5 6.85 8.7 6.7 8.7 5.45 8.5 Q4.95 8.3 4.95 8.0 4.95 7.7 5.45 7.5 L6.6 7.3 6.7 7.3" fill="#ffffff" fill-rule="evenodd" stroke="none"/>
      <path d="M11.65 7.0 L11.15 7.5 Q10.85 7.5 10.65 7.0 L10.45 5.8 10.65 4.6 Q10.85 4.1 11.15 4.1 L11.65 4.6 11.85 5.8 11.65 7.0" fill="#000000" fill-opacity="0.49803922" fill-rule="evenodd" stroke="none"/>
      <path d="M12.0 9.4 Q12.05 10.25 11.55 11.0 L10.3 11.95 9.1 11.7 8.65 11.2 Q10.05 11.7 11.15 10.55 L12.0 9.4" fill="#ffffff" fill-opacity="0.8" fill-rule="evenodd" stroke="none"/>
      <path d="M12.6 3.2 L14.0 5.8 11.7 3.7 Q9.35 2.85 6.9 3.2 L6.0 3.35 3.8 4.2 3.45 7.15 3.25 6.5 Q3.0 5.75 2.9 4.65 L2.8 3.2 Q4.2 2.6 6.0 2.25 L7.45 2.2 Q10.25 1.95 12.6 3.2 M11.25 2.2 L8.0 1.95 9.7 1.7 Q11.55 1.65 12.35 2.7 L11.25 2.2" fill="#2d4565" fill-rule="evenodd" stroke="none"/>
    </g>
    <linearGradient gradientTransform="matrix(0.0, 0.0061, -0.0057, 0.0, 9.75, 7.65)" gradientUnits="userSpaceOnUse" id="gradient0" spreadMethod="pad" x1="-819.2" x2="819.2">
      <stop offset="0.0" stop-color="#4c2b0b"/>
      <stop offset="0.6313725490196078" stop-color="#4c2b0b" stop-opacity="0.0"/>
    </linearGradient>
  </defs>
</svg>
