<svg xmlns="http://www.w3.org/2000/svg" xmlns:ffdec="https://www.free-decompiler.com/flash" xmlns:xlink="http://www.w3.org/1999/xlink" ffdec:objectType="frame" width="11.2" height="11.3"><g transform="translate(-2.8 -1.7)"><use ffdec:characterId="8" xlink:href="#a" width="10.55" height="9.75" transform="matrix(1 0 0 .7179 3.4 5.754)"/><use ffdec:characterId="10" xlink:href="#b" width="6.75" height="9.3" transform="matrix(1 0 0 .7252 6.4 5.7)"/><use ffdec:characterId="12" xlink:href="#c" width="11.2" height="7.7" transform="translate(2.8 4.75)"/></g><defs><path id="a" fill="#fff" fill-rule="evenodd" d="m11.65 3.6 2.3 2.1q-.1 4-1.95 5.9-.95.95-1.9 1.1l-2.8-.45q-2.4-.95-3.45-3.7l-.45-1.5.35-2.95q.9-.5 2.2-.85l.9-.15q2.45-.35 4.8.5" transform="translate(-3.4 -3)"/><path id="d" fill="#e56c44" fill-rule="evenodd" d="m5.2.6 1.5 1.2.05 1.25q.1 2.55-.8 4.3-.75 1.9-2.3 1.95-1.3.1-2.35-1.65l-.7-1.3-.2-.65-.1-.4-.15-1-.1-.8Q-.1 1.65.4.1q2.45-.35 4.8.5"/><linearGradient id="e" x1="-819.2" x2="819.2" gradientTransform="matrix(0 .0044 -.0057 0 9.75 9.1)" gradientUnits="userSpaceOnUse" spreadMethod="pad"><stop offset="0" stop-color="#4c2b0b"/><stop offset=".631" stop-color="#4c2b0b" stop-opacity="0"/></linearGradient><use ffdec:characterId="9" xlink:href="#d" id="b" width="6.75" height="9.3"/><g id="c" fill-rule="evenodd"><path fill="url(#e)" d="m11.6 6.15 1.5.85.05.9q.1 1.85-.8 3.15-.75 1.35-2.3 1.4-1.3.1-2.35-1.2L7 10.3l-.2-.45-.1-.3-.15-.7-.1-.6Q6.3 6.9 6.8 5.8z" transform="translate(-2.8 -4.75)"/><path fill="#fff" d="m3.9 4.1 1.2.15q.55.1.55.35l-.55.35-1.05.15H3.9l-1.25-.15-.5-.35q0-.25.5-.35L3.8 4.1z"/><path fill-opacity=".498" d="M7.85 3.85 7.65 3l.2-.9.5-.35q.3 0 .5.35l.2.9-.2.85-.5.4z"/><path fill="#fff" fill-opacity=".8" d="M5.85 6.9q1.4.35 2.5-.45l.85-.85q.05.6-.45 1.15t-1.25.7l-1.2-.2z"/><path fill="#2d4565" d="M8.45.4 5.2.2 6.9 0q1.85 0 2.65.75zm1.35.7L11.2 3 8.9 1.45 4.1 1.1l-.9.1-2.2.65-.35 2.1-.2-.45Q.2 2.95.1 2.15L0 1.1 3.2.4h1.45q2.8-.2 5.15.7"/></g></defs></svg>