<?xml version="1.0" encoding="UTF-8" standalone="no"?>
<svg xmlns:ffdec="https://www.free-decompiler.com/flash" xmlns:xlink="http://www.w3.org/1999/xlink" ffdec:objectType="frame" height="11.3px" width="11.2px" xmlns="http://www.w3.org/2000/svg">
  <g transform="matrix(1.0, 0.0, 0.0, 1.0, -2.8, -1.7)">
    <use ffdec:characterId="13" height="2.55" transform="matrix(1.0, 0.0, 0.0, 1.0, 2.8, 10.45)" width="10.55" xlink:href="#shape0"/>
  </g>
  <defs>
    <g id="shape0" transform="matrix(1.0, 0.0, 0.0, 1.0, -2.8, -10.45)">
      <path d="M11.25 11.0 L12.35 10.5 Q11.55 11.55 9.7 11.5 L8.0 11.25 11.25 11.0 M10.5 12.0 Q12.3 11.75 13.35 11.1 L11.95 12.1 Q9.75 13.25 6.7 12.95 L5.9 12.85 3.35 12.15 2.9 11.15 2.8 10.6 2.85 10.45 Q5.2 11.65 7.45 11.95 L10.1 12.05 10.5 12.0" fill="#2d4565" fill-rule="evenodd" stroke="none"/>
    </g>
  </defs>
</svg>
