<?xml version="1.0" encoding="UTF-8" standalone="no"?>
<svg xmlns:ffdec="https://www.free-decompiler.com/flash" xmlns:xlink="http://www.w3.org/1999/xlink" ffdec:objectType="frame" height="10.2px" width="13.1px" xmlns="http://www.w3.org/2000/svg">
  <g transform="matrix(1.0, 0.0, 0.0, 1.0, -2.2, -0.6)">
    <use ffdec:characterId="6" height="2.55" transform="matrix(1.0, 0.0, 0.0, 1.0, 2.35, 6.8)" width="12.95" xlink:href="#shape0"/>
  </g>
  <defs>
    <g id="shape0" transform="matrix(1.0, 0.0, 0.0, 1.0, -2.35, -6.8)">
      <path d="M12.75 8.85 L10.85 9.3 6.25 9.15 5.55 9.15 5.4 9.15 6.0 9.05 5.4 9.1 5.25 9.1 4.7 9.0 4.25 8.75 4.55 8.75 5.25 8.65 5.0 8.5 4.45 8.55 3.8 8.45 3.35 8.2 4.4 8.15 4.15 7.95 3.85 7.95 2.35 7.7 3.65 7.55 2.95 6.8 3.4 7.0 5.2 7.55 7.4 7.95 15.2 7.75 15.3 7.7 15.2 7.8 14.1 8.3 12.75 8.85" fill="#513624" fill-rule="evenodd" stroke="none"/>
      <path d="M10.75 7.25 L15.05 7.05 15.3 7.05 15.3 7.1 11.45 7.7 11.15 7.75 8.65 7.75 5.95 7.25 4.65 6.8 10.75 7.25" fill="#6b3a00" fill-opacity="0.69411767" fill-rule="evenodd" stroke="none"/>
    </g>
  </defs>
</svg>
