<?xml version="1.0" encoding="UTF-8" standalone="no"?>
<svg xmlns:ffdec="https://www.free-decompiler.com/flash" xmlns:xlink="http://www.w3.org/1999/xlink" ffdec:objectType="frame" height="11.25px" width="12.95px" xmlns="http://www.w3.org/2000/svg">
  <g transform="matrix(1.0, 0.0, 0.0, 1.0, 2.95, 0.0)">
    <use ffdec:characterId="8" height="7.75" transform="matrix(1.0, 0.0, 0.0, 1.0, -2.95, 3.5)" width="11.9" xlink:href="#shape0"/>
  </g>
  <defs>
    <g id="shape0" transform="matrix(1.0, 0.0, 0.0, 1.0, 2.95, -3.5)">
      <path d="M6.95 5.95 L7.3 6.4 7.9 7.6 8.1 6.95 8.25 7.1 Q8.25 8.35 7.2 9.4 6.0 10.7 3.85 10.95 L2.2 10.95 Q-0.4 10.9 -1.3 9.75 L-1.3 9.65 -1.55 9.35 -1.95 8.15 -2.1 8.0 -2.1 7.7 -2.0 7.7 -1.85 7.85 -1.85 7.75 -1.75 7.3 -1.35 6.9 Q-0.95 6.9 -0.95 7.2 L-1.05 7.3 -1.1 7.3 -0.95 7.8 -0.55 8.85 1.15 10.0 2.35 10.25 Q4.5 10.25 5.85 9.35 L5.95 9.3 6.05 9.2 6.75 8.05 6.55 7.65 6.5 6.9 6.5 6.55 6.35 6.25 5.7 5.7 6.05 5.45 Q6.5 5.45 6.95 5.95 M1.4 10.7 L-0.05 10.3 -0.75 9.95 -0.25 10.3 0.6 10.5 1.4 10.7 M1.75 10.75 L2.25 10.8 2.4 10.8 1.85 10.75 1.75 10.75 M3.7 10.8 L3.8 10.8 4.2 10.75 3.7 10.8" fill="#ffffff" fill-opacity="0.7058824" fill-rule="evenodd" stroke="none"/>
      <path d="M5.8 5.35 L6.65 6.65 6.85 7.7 6.6 8.85 5.45 10.0 2.55 10.6 Q0.45 10.6 -0.6 9.35 -1.3 8.55 -1.3 7.65 -1.3 6.6 -0.65 5.85 0.35 4.6 2.75 4.6 4.9 4.6 5.8 5.35" fill="#5f284f" fill-rule="evenodd" stroke="none"/>
      <path d="M1.05 9.3 Q0.3 8.75 0.3 8.05 0.3 7.3 1.05 6.8 1.85 6.25 2.9 6.25 3.95 6.25 4.75 6.8 5.5 7.3 5.5 8.05 5.5 8.75 4.75 9.3 3.95 9.85 2.9 9.85 1.85 9.85 1.05 9.3" fill="url(#gradient0)" fill-rule="evenodd" stroke="none"/>
      <path d="M5.0 8.5 L5.2 7.65 5.15 6.7 5.6 7.55 5.5 8.7 Q5.35 9.35 4.7 9.75 4.05 10.15 2.75 10.05 1.35 10.0 0.8 9.3 0.2 8.65 0.1 8.05 0.0 7.4 0.35 6.9 L0.35 7.0 0.5 7.9 Q0.7 8.8 1.75 9.25 L2.45 9.5 2.55 9.5 3.35 9.6 4.15 9.4 4.7 9.0 5.0 8.5" fill="#8c4e81" fill-rule="evenodd" stroke="none"/>
      <path d="M4.95 7.55 Q4.95 8.0 4.4 8.0 L3.8 7.8 Q3.55 7.6 3.65 7.3 L4.25 7.15 Q4.65 7.05 4.85 7.3 L4.95 7.55 M2.15 7.75 Q3.1 7.95 3.15 8.85 3.25 9.75 1.8 9.85 0.3 9.9 0.3 8.8 0.3 8.1 1.4 7.75 L2.15 7.75" fill="#ffe39c" fill-opacity="0.1254902" fill-rule="evenodd" stroke="none"/>
      <path d="M4.4 9.1 L4.4 8.85 Q5.0 8.85 5.0 9.1 L4.95 9.25 4.55 9.25 4.4 9.1 M2.15 8.0 Q2.1 8.45 1.1 8.75 L0.8 8.75 Q0.1 8.7 -0.15 8.3 L-0.45 7.7 -0.15 7.25 Q0.05 6.95 0.6 6.9 L1.1 6.9 Q1.5 6.95 1.85 7.25 L2.15 8.0 M3.45 9.85 Q2.85 9.85 2.85 9.35 2.85 8.8 3.4 8.85 3.95 9.0 3.95 9.45 3.95 9.85 3.45 9.85 M5.4 8.75 L4.95 8.45 Q4.95 8.2 5.55 8.2 5.9 8.2 5.9 8.45 L5.75 8.65 5.4 8.75" fill="#ffffff" fill-rule="evenodd" stroke="none"/>
      <path d="M6.75 7.3 Q5.25 6.1 3.1 6.2 0.95 6.3 -0.4 7.2 -1.8 8.0 -1.85 8.45 L-2.0 8.5 -2.15 7.9 Q-2.15 7.0 -0.95 5.95 0.7 4.6 3.4 4.6 5.8 4.6 7.2 5.6 8.3 6.35 8.3 7.25 L8.25 7.75 8.2 7.85 8.0 8.25 7.85 8.45 Q7.75 8.1 6.75 7.3" fill="#2c0900" fill-opacity="0.23921569" fill-rule="evenodd" stroke="none"/>
      <path d="M5.9 3.9 L3.05 3.75 1.55 3.9 Q-1.05 4.25 -2.4 5.6 L-2.8 5.95 Q-2.05 4.15 0.7 3.75 L1.2 3.7 1.25 3.7 3.4 3.5 5.25 3.6 5.9 3.9" fill="#5d2900" fill-opacity="0.3019608" fill-rule="evenodd" stroke="none"/>
      <path d="M8.2 5.15 L8.95 5.1 Q8.85 5.15 8.9 5.35 L8.75 6.45 7.8 8.5 7.8 8.25 7.7 7.35 Q7.45 6.7 6.6 5.95 5.75 5.2 4.15 5.15 L1.4 5.35 Q0.25 5.65 -0.7 6.6 L-2.0 8.25 -2.05 8.35 -2.15 8.1 Q-2.5 7.5 -2.95 7.25 L-2.35 6.55 -1.45 5.65 -0.05 4.8 2.15 4.25 2.55 4.2 3.9 4.2 6.0 4.6 7.3 5.0 8.2 5.15 M0.9 10.8 L0.4 10.75 -0.3 10.95 -0.35 10.8 -0.05 10.6 Q-0.65 10.4 -0.9 10.2 L-0.7 10.15 0.7 10.45 3.1 10.75 5.4 10.35 Q6.15 10.0 6.3 10.0 L6.45 10.0 6.45 10.05 5.8 10.45 6.25 10.8 6.05 10.8 5.9 10.8 5.4 10.75 5.3 10.7 5.25 10.7 4.65 10.9 4.75 11.05 4.65 11.2 4.55 11.25 4.05 11.0 3.15 11.1 1.9 11.0 1.45 11.25 1.35 11.1 1.4 10.9 0.9 10.8" fill="#200900" fill-rule="evenodd" stroke="none"/>
    </g>
    <radialGradient cx="0" cy="0" gradientTransform="matrix(0.0041, 0.0, 0.0, 0.0029, 2.9, 8.05)" gradientUnits="userSpaceOnUse" id="gradient0" r="819.2" spreadMethod="pad">
      <stop offset="0.0" stop-color="#ffffff" stop-opacity="0.3137255"/>
      <stop offset="0.7372549019607844" stop-color="#ffffff" stop-opacity="0.0"/>
    </radialGradient>
  </defs>
</svg>
