<?xml version="1.0" encoding="UTF-8" standalone="no"?>
<svg xmlns:ffdec="https://www.free-decompiler.com/flash" xmlns:xlink="http://www.w3.org/1999/xlink" ffdec:objectType="frame" height="11.45px" width="12.45px" xmlns="http://www.w3.org/2000/svg">
  <g transform="matrix(1.0, 0.0, 0.0, 1.0, 3.15, 0.65)">
    <use ffdec:characterId="10" height="7.35" transform="matrix(1.0, 0.0, 0.0, 1.0, -2.6, 3.45)" width="11.9" xlink:href="#shape0"/>
  </g>
  <defs>
    <g id="shape0" transform="matrix(1.0, 0.0, 0.0, 1.0, 2.6, -3.45)">
      <path d="M6.55 9.45 Q5.6 10.55 3.05 10.75 L3.35 10.7 Q0.1 10.9 -1.05 9.6 -2.25 8.25 -2.15 7.15 L-2.0 5.85 -1.3 5.35 Q0.45 4.55 2.35 4.55 3.45 4.55 4.85 5.15 L6.4 5.8 7.55 6.65 Q7.8 7.05 7.65 7.7 L6.55 9.45" fill="#ffffff" fill-rule="evenodd" stroke="none"/>
      <path d="M9.0 7.65 L8.3 7.5 7.9 7.25 8.0 7.15 7.45 6.65 7.55 6.55 9.3 7.7 9.0 7.65" fill="#008546" fill-rule="evenodd" stroke="none"/>
      <path d="M1.15 4.65 L2.6 4.7 3.7 4.85 4.95 5.1 5.3 5.4 5.5 5.7 5.7 5.55 5.95 6.1 Q6.4 7.25 5.8 8.7 5.15 10.15 3.05 10.4 1.0 10.65 0.1 9.55 -0.85 8.4 -0.55 6.9 -0.3 5.35 1.15 4.65" fill="#850049" fill-rule="evenodd" stroke="none"/>
      <path d="M5.7 5.55 Q6.05 5.4 6.35 6.15 6.75 7.1 6.3 8.3 5.8 9.55 4.95 10.1 4.1 10.6 3.15 10.65 L1.55 10.6 Q0.8 10.45 0.35 10.1 L-0.4 9.3 -0.85 8.25 Q-1.05 7.55 -0.85 6.65 -0.65 5.75 -0.05 5.2 0.6 4.65 0.7 4.65 L1.15 4.65 Q-0.3 5.35 -0.55 6.9 -0.85 8.4 0.1 9.55 1.0 10.65 3.05 10.4 5.15 10.15 5.8 8.7 6.4 7.25 5.95 6.1 L5.7 5.55" fill="#480033" fill-rule="evenodd" stroke="none"/>
      <path d="M5.5 5.35 Q6.6 5.8 6.45 7.3 6.25 8.85 5.15 9.75 3.95 10.7 2.45 10.65 1.0 10.55 0.1 9.9 -0.75 9.2 -0.8 7.6 -0.95 6.0 0.15 5.15 1.3 4.35 2.85 4.65 L5.5 5.35" fill="url(#gradient0)" fill-rule="evenodd" stroke="none"/>
      <path d="M4.35 6.3 L4.8 7.2 4.95 8.3 4.8 8.85 4.4 9.4 Q4.05 9.85 2.45 9.75 0.9 9.7 0.6 8.45 0.35 7.2 0.8 6.75 L0.95 6.7 1.05 6.8 0.9 7.4 Q0.7 7.85 1.2 8.7 1.8 9.55 2.95 9.4 4.1 9.3 4.5 8.55 L4.65 7.15 4.35 6.3" fill="url(#gradient1)" fill-rule="evenodd" stroke="none"/>
      <path d="M3.0 9.1 Q1.5 9.15 1.4 7.8 1.35 6.75 2.3 6.5 L3.15 6.45 Q4.2 6.7 4.25 7.7 L4.0 8.55 Q3.65 9.1 3.0 9.1" fill="url(#gradient2)" fill-rule="evenodd" stroke="none"/>
      <path d="M7.0 8.6 L6.3 7.85 Q5.75 7.4 3.85 7.0 L0.6 6.8 -0.85 7.05 -1.5 7.2 -2.1 7.4 -2.15 7.4 -2.2 6.95 -2.1 6.15 Q-1.95 5.9 -1.2 5.5 0.25 4.7 2.25 4.7 L4.5 5.2 6.05 5.85 Q7.6 6.35 7.6 7.35 L7.15 8.8 7.0 8.6" fill="#000000" fill-opacity="0.3137255" fill-rule="evenodd" stroke="none"/>
      <path d="M0.0 7.5 L-0.1 7.4 -0.35 7.1 -0.1 6.5 Q0.15 6.25 0.7 6.05 L2.1 5.95 2.45 6.25 2.5 6.7 Q2.35 7.3 1.3 7.5 L0.0 7.5 M3.05 7.4 L3.1 7.5 Q3.25 7.85 2.85 7.95 L2.35 7.85 2.3 7.7 2.35 7.6 2.4 7.55 2.6 7.45 2.9 7.4 3.05 7.4" fill="#ffffff" fill-rule="evenodd" stroke="none"/>
      <path d="M3.95 9.35 Q3.9 9.2 4.25 9.2 4.85 9.25 4.9 9.6 L4.45 9.95 4.05 9.85 Q3.75 9.65 3.85 9.45 L3.95 9.35 M3.3 9.65 Q3.65 9.85 3.4 10.1 L2.8 10.15 2.7 9.95 Q2.65 9.75 2.85 9.65 L3.0 9.65 3.3 9.65" fill="#ffffff" fill-opacity="0.4509804" fill-rule="evenodd" stroke="none"/>
      <path d="M2.45 6.25 L3.0 6.6 Q3.2 6.9 3.05 7.3 L3.15 7.3 3.05 7.4 2.9 7.4 2.6 7.45 2.4 7.55 2.35 7.6 2.3 7.7 2.35 7.85 2.05 7.9 0.45 7.8 0.0 7.5 1.3 7.5 Q2.35 7.3 2.5 6.7 L2.45 6.25" fill="#000000" fill-opacity="0.43137255" fill-rule="evenodd" stroke="none"/>
      <path d="M1.45 4.35 L1.65 4.35 2.1 4.4 2.7 4.45 3.55 4.6 4.55 4.9 6.0 5.7 6.05 5.7 6.1 5.6 Q6.1 5.25 4.85 4.8 L6.2 5.4 7.65 6.4 8.25 6.95 8.5 7.2 8.7 7.5 8.65 7.5 8.7 7.55 8.2 7.35 7.9 7.75 7.9 7.7 8.05 7.25 8.0 7.2 7.9 7.15 7.7 7.15 7.65 7.25 6.6 5.9 6.5 6.0 7.2 7.15 7.2 7.2 6.85 6.85 5.15 5.7 Q3.85 5.05 2.6 4.95 L1.4 5.0 1.25 4.9 0.35 4.95 0.3 4.9 0.15 4.9 -0.6 5.2 -0.55 5.05 -0.65 4.95 0.15 4.6 -0.9 4.9 -1.4 5.05 -0.7 4.7 -0.05 4.55 1.1 4.35 1.45 4.35" fill="url(#gradient3)" fill-rule="evenodd" stroke="none"/>
      <path d="M4.85 4.8 Q6.1 5.25 6.1 5.6 L6.05 5.7 6.0 5.7 4.55 4.9 3.55 4.6 2.7 4.45 2.1 4.4 1.65 4.35 1.45 4.35 1.35 4.3 0.9 4.25 -0.55 4.5 -1.55 4.85 -2.6 5.3 -1.35 4.65 -0.9 4.45 1.3 4.15 Q2.85 4.15 4.6 4.7 L4.85 4.8 M-1.4 5.05 L-0.9 4.9 0.15 4.6 -0.65 4.95 -0.55 5.05 -0.6 5.2 0.15 4.9 0.3 4.9 0.35 4.95 1.25 4.9 1.4 5.0 Q0.1 5.25 -0.2 5.45 L-0.75 5.7 -1.15 5.9 -1.45 6.15 -2.15 6.8 -2.05 5.4 -1.4 5.05 M7.2 7.2 L7.2 7.15 6.5 6.0 6.6 5.9 7.65 7.25 7.7 7.15 7.9 7.15 8.0 7.2 8.05 7.25 7.9 7.7 7.9 7.75 8.2 7.35 8.7 7.55 8.65 7.5 8.7 7.5 9.25 7.7 8.15 7.5 7.95 7.85 7.1 8.85 7.2 8.6 7.2 8.4 7.4 7.6 7.2 7.25 7.25 7.25 7.2 7.2 M5.2 4.6 L4.8 4.45 Q6.45 4.9 7.45 5.75 L8.25 6.5 8.8 7.05 8.25 6.6 7.65 6.15 Q6.3 5.05 5.2 4.6" fill="url(#gradient4)" fill-rule="evenodd" stroke="none"/>
      <path d="M0.2 3.85 L-0.9 4.1 -1.55 4.25 -2.25 4.6 -2.55 4.8 -2.05 4.2 -0.9 3.6 0.05 3.45 2.45 3.8 0.2 3.85" fill="#4a1400" fill-opacity="0.29803923" fill-rule="evenodd" stroke="none"/>
      <path d="M3.75 10.75 L1.55 10.75 1.25 10.7 0.25 10.45 -0.25 10.2 0.75 10.35 3.65 10.5 5.3 10.3 3.75 10.75" fill="url(#gradient5)" fill-rule="evenodd" stroke="none"/>
    </g>
    <radialGradient cx="0" cy="0" gradientTransform="matrix(0.0053, 2.0E-4, -3.0E-4, 0.0036, 2.65, 7.8)" gradientUnits="userSpaceOnUse" id="gradient0" r="819.2" spreadMethod="pad">
      <stop offset="0.0" stop-color="#ffffff" stop-opacity="0.7058824"/>
      <stop offset="0.7019607843137254" stop-color="#ffffff" stop-opacity="0.0"/>
    </radialGradient>
    <radialGradient cx="0" cy="0" gradientTransform="matrix(1.0875, -0.0462, 0.0659, 0.6421, 0.45, 2.9)" gradientUnits="userSpaceOnUse" id="gradient1" r="819.2" spreadMethod="pad">
      <stop offset="0.0" stop-color="#41012b" stop-opacity="0.65882355"/>
      <stop offset="0.7019607843137254" stop-color="#0a2e00" stop-opacity="0.047058824"/>
    </radialGradient>
    <radialGradient cx="0" cy="0" gradientTransform="matrix(1.0902, 0.011, 7.0E-4, 0.7645, 0.9, 1.8)" gradientUnits="userSpaceOnUse" id="gradient2" r="819.2" spreadMethod="pad">
      <stop offset="0.0" stop-color="#41012b" stop-opacity="0.65882355"/>
      <stop offset="0.7019607843137254" stop-color="#0a2e00" stop-opacity="0.047058824"/>
    </radialGradient>
    <linearGradient gradientTransform="matrix(1.0, 0.0, 0.0, 0.6435, 0.9, 2.55)" gradientUnits="userSpaceOnUse" id="gradient3" spreadMethod="pad" x1="-819.2" x2="819.2">
      <stop offset="0.0" stop-color="#331000"/>
      <stop offset="0.13725490196078433" stop-color="#270f03"/>
      <stop offset="0.5215686274509804" stop-color="#000000"/>
      <stop offset="0.8784313725490196" stop-color="#2e0f02"/>
      <stop offset="1.0" stop-color="#4a1e0b"/>
    </linearGradient>
    <linearGradient gradientTransform="matrix(0.0, 0.0, 0.0, 0.0, 0.9, 2.8)" gradientUnits="userSpaceOnUse" id="gradient4" spreadMethod="pad" x1="-819.2" x2="819.2">
      <stop offset="0.0" stop-color="#331000"/>
      <stop offset="0.13725490196078433" stop-color="#270f03"/>
      <stop offset="0.5215686274509804" stop-color="#000000"/>
      <stop offset="0.8784313725490196" stop-color="#2e0f02"/>
      <stop offset="1.0" stop-color="#4a1e0b"/>
    </linearGradient>
    <linearGradient gradientTransform="matrix(0.0, 0.0, 0.0, 0.0, 0.85, 2.8)" gradientUnits="userSpaceOnUse" id="gradient5" spreadMethod="pad" x1="-819.2" x2="819.2">
      <stop offset="0.0" stop-color="#331000"/>
      <stop offset="0.13725490196078433" stop-color="#270f03"/>
      <stop offset="0.5215686274509804" stop-color="#000000"/>
      <stop offset="0.8784313725490196" stop-color="#2e0f02"/>
      <stop offset="1.0" stop-color="#4a1e0b"/>
    </linearGradient>
  </defs>
</svg>
