<?xml version="1.0" encoding="UTF-8" standalone="no"?>
<svg xmlns:ffdec="https://www.free-decompiler.com/flash" xmlns:xlink="http://www.w3.org/1999/xlink" ffdec:objectType="frame" height="10.8px" width="13.6px" xmlns="http://www.w3.org/2000/svg">
  <g transform="matrix(1.0, 0.0, 0.0, 1.0, 3.5, 0.05)">
    <use ffdec:characterId="15" height="10.8" transform="matrix(1.0, 0.0, 0.0, 1.0, -3.5, -0.05)" width="13.6" xlink:href="#shape0"/>
    <use ffdec:characterId="16" height="6.75" id="Color" transform="matrix(0.9197, 0.0, 0.0, 0.9197, -0.1, 2.8)" width="6.4" xlink:href="#sprite0"/>
    <clipPath id="clipPath0" transform="matrix(1.0, 0.0, 0.0, 1.0, 0.0, 0.0)">
      <path d="M4.95 8.1 Q4.15 9.05 2.8 9.05 1.45 9.05 0.55 7.9 -0.35 6.7 -0.1 5.45 0.15 4.15 0.85 3.55 1.55 2.9 2.75 2.85 3.95 2.8 4.85 3.6 5.7 4.45 5.75 5.8 5.8 7.2 4.95 8.1" fill="#85003a" fill-rule="evenodd" stroke="none"/>
    </clipPath>
    <g clip-path="url(#clipPath0)">
      <use ffdec:characterId="18" height="8.2" transform="matrix(1.0, 0.0, 0.0, 1.0, -0.8, 1.95)" width="7.2" xlink:href="#shape3"/>
    </g>
    <use ffdec:characterId="19" height="3.35" transform="matrix(1.0, 0.0, 0.0, 1.0, 2.5, 4.75)" width="4.35" xlink:href="#shape4"/>
  </g>
  <defs>
    <g id="shape0" transform="matrix(1.0, 0.0, 0.0, 1.0, 3.5, 0.05)">
      <path d="M9.65 3.9 L9.7 4.25 7.8 7.45 6.75 8.85 Q6.05 9.6 4.05 10.6 0.4 10.7 -0.65 9.75 -1.7 8.75 -2.05 7.35 -2.45 5.85 -1.95 3.85 -1.1 2.45 0.95 1.8 L2.8 1.55 6.7 1.85 Q8.45 2.05 9.5 3.45 L9.65 3.9" fill="#ffffff" fill-rule="evenodd" stroke="none"/>
      <path d="M6.85 2.45 L8.15 3.1 Q8.9 3.1 9.05 3.4 L9.1 3.8 9.5 4.55 9.35 4.75 9.05 5.15 8.9 5.55 9.0 5.85 Q9.0 6.35 8.6 6.35 L8.4 6.2 7.85 7.85 7.85 7.9 7.4 8.5 6.45 9.45 5.5 9.9 5.5 9.85 Q6.75 8.4 7.3 6.95 L7.7 5.65 Q6.35 4.75 4.8 4.35 L1.9 4.3 Q1.2 4.45 -0.15 5.15 L-0.45 5.1 -1.35 5.25 -2.2 5.8 -2.2 5.5 -2.05 4.3 -1.95 4.05 -1.85 3.7 -1.45 3.5 -1.1 3.35 -0.35 2.85 0.55 2.4 1.0 2.55 1.65 2.35 Q2.25 2.05 2.55 2.05 4.5 1.85 5.3 2.05 6.1 2.1 6.85 2.45" fill="#000000" fill-opacity="0.2" fill-rule="evenodd" stroke="none"/>
      <path d="M8.7 2.35 L9.25 2.55 9.3 2.6 9.55 2.7 9.85 2.9 10.0 2.95 10.1 3.15 10.05 3.55 10.05 3.65 9.95 3.65 9.8 4.0 9.9 4.1 9.8 4.05 Q9.05 6.3 8.3 7.65 L8.2 7.75 7.05 8.9 7.0 8.85 7.5 7.85 7.8 7.3 8.3 6.05 8.4 5.8 8.6 4.9 8.6 4.8 8.7 4.35 Q8.7 3.55 8.1 3.35 L8.05 3.35 7.8 3.2 6.0 2.65 3.15 2.25 Q-0.4 2.6 -3.25 5.35 -2.9 4.55 -1.55 3.1 L-3.3 4.0 Q-2.9 3.4 -2.0 2.75 -1.15 2.05 0.1 1.65 L3.1 1.05 Q4.85 0.8 7.7 1.9 L8.65 2.35 8.7 2.35 M1.15 10.65 L0.7 10.5 0.3 10.25 0.5 10.25 1.0 10.3 1.75 10.35 1.85 10.35 2.25 10.4 4.65 10.1 5.05 9.95 5.45 9.85 Q5.85 9.65 6.1 9.6 L5.5 10.05 4.9 10.4 4.3 10.55 2.95 10.75 2.9 10.75 1.15 10.65" fill="#2e1200" fill-rule="evenodd" stroke="none"/>
      <path d="M4.95 0.05 L1.2 0.45 Q0.45 0.65 -0.2 1.0 L-0.6 1.2 -1.05 1.4 -2.2 2.2 -3.4 3.1" fill="none" stroke="#2e1200" stroke-linecap="round" stroke-linejoin="round" stroke-width="0.2"/>
      <path d="M6.45 5.8 Q6.5 7.5 5.5 8.65 4.45 9.8 2.8 9.8 1.1 9.8 0.0 8.3 -1.1 6.85 -0.8 5.3 -0.5 3.75 0.35 2.95 1.25 2.15 2.75 2.1 4.25 2.0 5.3 3.05 6.35 4.1 6.45 5.8" fill="#2e1200" fill-rule="evenodd" stroke="none"/>
    </g>
    <g id="sprite0" transform="matrix(1.0, 0.0, 0.0, 1.0, 0.0, 0.0)">
      <use ffdec:characterId="2" height="6.75" transform="matrix(1.0, 0.0, 0.0, 1.0, 0.0, 0.0)" width="6.4" xlink:href="#shape1"/>
    </g>
    <g id="shape1" transform="matrix(1.0, 0.0, 0.0, 1.0, 0.0, 0.0)">
      <path d="M5.55 5.75 Q4.65 6.75 3.2 6.75 1.7 6.75 0.75 5.5 -0.25 4.2 0.05 2.85 0.3 1.45 1.05 0.8 1.85 0.05 3.15 0.0 4.45 -0.05 5.4 0.85 6.35 1.75 6.4 3.25 6.45 4.75 5.55 5.75" fill="#914f00" fill-rule="evenodd" stroke="none"/>
    </g>
    <g id="shape3" transform="matrix(1.0, 0.0, 0.0, 1.0, 0.8, -1.95)">
      <path d="M6.3 5.95 Q6.6 7.55 5.95 8.7 5.3 9.8 3.8 10.05 L3.6 10.05 3.45 10.1 Q1.9 10.35 0.7 9.3 -0.5 8.3 -0.75 6.45 -0.95 4.6 0.3 3.25 1.5 1.8 3.1 1.95 4.7 2.1 5.4 3.2 6.05 4.3 6.3 5.95" fill="url(#gradient0)" fill-rule="evenodd" stroke="none"/>
      <path d="M5.4 5.0 L5.5 5.1 5.5 5.25 5.45 5.35 5.45 5.4 5.3 5.5 4.95 5.65 4.6 5.6 4.55 5.35 4.55 5.3 4.85 5.1 5.4 5.0 M2.4 4.0 L2.3 4.15 2.25 4.25 Q2.1 4.1 2.0 4.1 L2.0 3.6 2.1 3.6 2.4 4.0 M0.75 5.9 L0.45 5.65 0.55 5.5 1.4 5.8 1.45 6.1 1.3 6.1 0.75 5.9 M0.35 6.0 L0.35 5.95 0.45 6.05 0.35 6.0 M2.1 5.05 Q2.45 4.65 2.95 4.65 3.45 4.65 3.8 5.05 4.2 5.45 4.2 6.0 4.2 6.55 3.8 6.95 L2.95 7.4 2.1 6.95 Q1.75 6.6 1.7 6.1 L1.7 6.0 Q1.7 5.45 2.1 5.05 M1.4 4.85 L0.9 4.65 1.4 4.45 1.55 4.7 1.4 4.85 M4.95 4.0 L4.95 4.1 4.55 4.65 4.2 4.45 4.25 4.15 Q4.35 3.95 4.9 4.0 L4.95 4.0 M3.7 3.75 L3.2 4.15 3.2 4.05 3.35 3.75 Q3.5 3.6 3.6 3.6 L3.65 3.6 3.7 3.75 M4.55 6.4 L4.55 6.25 5.05 6.2 5.25 6.4 4.95 6.6 Q4.6 6.55 4.55 6.4" fill="#000000" fill-opacity="0.29803923" fill-rule="evenodd" stroke="none"/>
      <path d="M0.9 8.25 Q1.25 6.35 3.1 6.4 4.9 6.5 5.1 8.1 5.25 9.7 3.75 9.7 1.5 9.7 0.95 8.95 L0.9 8.25" fill="#ffffff" fill-opacity="0.29803923" fill-rule="evenodd" stroke="none"/>
    </g>
    <linearGradient gradientTransform="matrix(6.0E-4, 0.0049, -0.0046, 5.0E-4, 3.05, 6.0)" gradientUnits="userSpaceOnUse" id="gradient0" spreadMethod="pad" x1="-819.2" x2="819.2">
      <stop offset="0.0" stop-color="#000000" stop-opacity="0.6313726"/>
      <stop offset="1.0" stop-color="#ffffff" stop-opacity="0.0"/>
    </linearGradient>
    <g id="shape4" transform="matrix(1.0, 0.0, 0.0, 1.0, -2.5, -4.75)">
      <path d="M4.95 4.85 L5.0 5.1 4.65 5.45 Q4.35 5.45 4.35 5.3 L4.35 5.15 Q4.35 4.55 4.95 4.85 M2.5 7.5 Q2.5 6.85 3.05 6.95 3.55 7.0 3.6 7.55 3.6 8.05 3.0 8.05 2.4 8.05 2.5 7.5" fill="#ffffff" fill-rule="evenodd" stroke="none"/>
      <path d="M6.85 7.55 Q6.85 8.1 5.95 8.1 4.1 8.1 4.0 6.95 4.0 5.75 5.45 6.3 6.85 6.8 6.85 7.55" fill="#ffffff" fill-opacity="0.6" fill-rule="evenodd" stroke="none"/>
    </g>
  </defs>
</svg>
