<?xml version="1.0" encoding="UTF-8" standalone="no"?>
<svg xmlns:ffdec="https://www.free-decompiler.com/flash" xmlns:xlink="http://www.w3.org/1999/xlink" ffdec:objectType="frame" height="12.2px" width="14.3px" xmlns="http://www.w3.org/2000/svg">
  <g transform="matrix(1.0, 0.0, 0.0, 1.0, 3.1, 0.55)">
    <use ffdec:characterId="13" height="8.6" transform="matrix(1.0, 0.0, 0.0, 1.0, -2.4, 3.05)" width="13.6" xlink:href="#shape0"/>
  </g>
  <defs>
    <g id="shape0" transform="matrix(1.0, 0.0, 0.0, 1.0, 2.4, -3.05)">
      <path d="M6.6 6.0 L7.6 6.4 8.5 7.25 8.45 8.65 7.3 10.45 Q6.4 11.4 4.2 11.45 L4.1 11.45 1.0 11.3 -0.65 10.75 Q-1.45 10.45 -1.95 9.1 L-2.05 8.75 Q-2.45 7.6 -1.95 6.65 -1.45 5.55 -0.5 5.3 L0.4 5.35 -0.2 6.95 0.1 8.65 0.15 8.75 Q1.0 10.2 3.35 10.2 L4.2 10.2 Q5.65 9.95 6.25 9.05 L6.55 7.75 Q6.55 6.85 6.25 6.5 L6.25 6.1 6.6 6.0" fill="#ffffff" fill-rule="evenodd" stroke="none"/>
      <path d="M-0.3 5.2 L-0.1 5.0 0.25 4.95 -0.5 5.85 -0.3 5.2 M6.95 5.65 L7.15 5.9 7.3 8.05 7.3 8.15 7.25 8.4 6.5 10.05 Q5.3 11.5 2.35 11.45 L2.15 11.4 Q-1.25 10.2 -0.7 6.8 L-0.3 5.95 0.5 5.1 1.35 4.6 Q1.75 4.4 2.15 4.6 L4.0 5.05 Q4.5 5.05 5.05 5.4 L5.95 5.75 6.2 5.8 6.25 5.7 6.6 5.55 6.95 5.65" fill="#8a5eaf" fill-rule="evenodd" stroke="none"/>
      <path d="M2.8 11.45 Q0.85 11.4 -0.55 10.55 -1.85 9.75 -1.8 8.65 -1.75 7.6 -0.35 6.9 1.05 6.2 3.0 6.3 4.95 6.4 6.35 7.1 7.7 7.9 7.65 9.0 7.6 10.05 6.15 10.75 4.75 11.5 2.8 11.45" fill="url(#gradient0)" fill-rule="evenodd" stroke="none"/>
      <path d="M0.4 8.15 Q0.4 7.2 1.2 6.5 2.05 5.8 3.2 5.8 4.4 5.8 5.2 6.5 6.05 7.2 6.05 8.15 6.05 9.1 5.2 9.8 4.4 10.45 3.2 10.45 2.05 10.45 1.2 9.8 0.4 9.1 0.4 8.15" fill="url(#gradient1)" fill-rule="evenodd" stroke="none"/>
      <path d="M4.15 7.5 Q4.6 7.8 4.6 8.25 L4.2 8.9 3.35 9.2 2.45 8.9 Q2.1 8.65 2.05 8.2 2.0 7.8 2.3 7.5 2.65 7.2 3.2 7.2 3.75 7.2 4.15 7.5" fill="#000000" fill-opacity="0.08627451" fill-rule="evenodd" stroke="none"/>
      <path d="M2.85 4.5 L3.2 4.7 Q7.6 5.35 8.6 7.7 L8.35 9.15 Q2.8 6.25 -2.2 8.1 L-2.15 6.9 Q-0.85 4.0 2.85 4.5" fill="#000000" fill-opacity="0.21176471" fill-rule="evenodd" stroke="none"/>
      <path d="M10.25 7.65 L9.55 7.8 9.5 7.85 10.95 8.2 10.05 8.5 9.35 8.45 9.15 8.4 8.0 9.65 8.1 9.35 8.3 8.4 8.3 8.1 7.95 7.55 7.45 7.0 Q5.15 5.15 1.75 5.15 0.4 5.15 -0.95 6.2 L-2.3 7.25 -2.25 6.85 -1.65 5.9 Q-1.9 6.0 -2.25 6.25 L-2.4 6.3 -2.3 5.75 Q-2.25 5.25 -1.65 4.9 L-0.45 4.3 1.1 4.0 4.35 4.45 6.0 5.0 7.35 5.65 7.7 5.65 8.05 5.7 8.6 5.65 9.45 5.65 8.2 6.25 8.25 6.25 8.6 6.4 9.95 6.55 10.95 6.5 10.15 6.75 9.15 6.95 9.3 7.05 9.4 7.1 10.55 7.2 10.7 7.2 11.2 7.1 10.65 7.45 10.35 7.6 10.25 7.65 M1.85 11.6 L0.95 11.5 -0.4 11.05 -0.35 11.05 -0.45 11.0 -0.85 10.8 1.15 11.15 1.75 11.25 2.85 11.35 3.6 11.35 4.05 11.35 5.75 11.2 7.4 10.75 7.35 10.8 6.75 11.05 5.85 11.35 5.3 11.5 5.05 11.5 4.45 11.6 3.2 11.65 1.85 11.6" fill="#513624" fill-rule="evenodd" stroke="none"/>
      <path d="M6.3 4.6 L5.25 4.2 2.15 3.55 1.05 3.5 -0.55 3.8 -1.45 4.1 -1.9 4.3 -0.75 3.6 Q-0.1 3.2 0.3 3.15 L0.6 3.05 0.55 3.15 1.5 3.05 2.8 3.15 4.45 3.6 Q5.6 4.0 6.2 4.45 L6.3 4.6" fill="#000000" fill-opacity="0.29803923" fill-rule="evenodd" stroke="none"/>
      <path d="M1.3 7.1 Q1.75 7.1 1.75 7.45 L1.35 7.75 Q0.8 7.75 0.8 7.45 0.8 7.15 1.3 7.1 M1.3 10.2 L1.1 10.35 0.85 10.45 0.6 10.45 0.1 10.25 -0.1 9.85 Q-0.2 9.6 0.85 9.5 1.65 9.5 1.65 9.8 L1.3 10.2 M2.05 10.3 L2.3 10.2 2.55 10.35 2.3 10.5 2.1 10.45 2.05 10.3 M3.95 10.2 L3.85 10.45 3.5 10.45 3.2 10.2 Q3.15 9.95 3.55 9.95 L3.95 10.2 M4.4 9.7 L4.6 9.45 6.05 9.5 Q6.65 10.1 6.2 10.35 L5.35 10.6 4.75 10.4 Q4.25 10.0 4.4 9.7 M6.05 9.1 L5.95 8.9 6.35 8.65 6.7 8.95 6.4 9.15 6.05 9.1" fill="#ffffff" fill-rule="evenodd" stroke="none"/>
    </g>
    <linearGradient gradientTransform="matrix(1.0E-4, -0.0031, 0.0058, 2.0E-4, 2.9, 8.9)" gradientUnits="userSpaceOnUse" id="gradient0" spreadMethod="pad" x1="-819.2" x2="819.2">
      <stop offset="0.09019607843137255" stop-color="#ffffff" stop-opacity="0.67058825"/>
      <stop offset="0.6352941176470588" stop-color="#ffffff" stop-opacity="0.0"/>
    </linearGradient>
    <radialGradient cx="0" cy="0" gradientTransform="matrix(0.004, 0.0, 0.0, 0.0028, 3.25, 8.15)" gradientUnits="userSpaceOnUse" id="gradient1" r="819.2" spreadMethod="pad">
      <stop offset="0.16862745098039217" stop-color="#000000" stop-opacity="0.3529412"/>
      <stop offset="0.8470588235294118" stop-color="#000000" stop-opacity="0.0"/>
    </radialGradient>
  </defs>
</svg>
