<svg xmlns="http://www.w3.org/2000/svg" xmlns:ffdec="https://www.free-decompiler.com/flash" xmlns:xlink="http://www.w3.org/1999/xlink" ffdec:objectType="frame" width="14.3" height="12.2"><use ffdec:characterId="14" xlink:href="#a" width="13.1" height="3.3" transform="translate(0 6.85)"/><defs><g id="a" fill-rule="evenodd"><path fill="#5d2900" fill-opacity=".298" d="M4.85 1.55 4.6 1.5.95.9V.85h.25l4.35.3 5.4-.55-1.2.45-2.55.5z"/><path fill="#513624" d="m3.35 2.65-1.4-.6L0 1.2l7.5.85Q9.9 1.8 11.7 1l.45-.2.95-.8-1.2 1.35 1.2.15-1.4.25h-.25l-.25.2 1 .05-.45.25-.6.1-.5-.05-.25.15.65.1h.3l-.45.25-.5.1h-.15l-.55-.05.55.1h-.8L6.7 3.3zm-1.4-.6.15.05-1.05-.5z"/></g></defs></svg>