<?xml version="1.0" encoding="UTF-8" standalone="no"?>
<svg xmlns:ffdec="https://www.free-decompiler.com/flash" xmlns:xlink="http://www.w3.org/1999/xlink" ffdec:objectType="frame" height="9.65px" width="12.65px" xmlns="http://www.w3.org/2000/svg">
  <g transform="matrix(1.0, 0.0, 0.0, 1.0, 3.55, -1.35)">
    <use ffdec:characterId="9" height="3.55" transform="matrix(1.0, 0.0, 0.0, 1.0, -3.45, 5.45)" width="12.15" xlink:href="#shape0"/>
  </g>
  <defs>
    <g id="shape0" transform="matrix(1.0, 0.0, 0.0, 1.0, 3.45, -5.45)">
      <path d="M4.1 8.95 L2.95 9.0 1.95 8.85 0.6 8.55 -1.0 8.05 -3.45 6.6 -0.9 7.25 -2.6 6.15 -2.6 6.1 -0.1 7.35 1.1 7.75 2.85 7.95 3.85 8.0 3.8 7.95 5.75 7.55 7.25 6.95 5.85 7.75 6.7 7.5 8.6 6.75 8.2 7.35 8.7 7.2 Q8.5 7.6 7.75 7.65 L7.9 7.65 7.8 7.75 8.3 7.85 7.9 8.0 7.55 8.0 7.2 8.15 7.25 8.15 7.75 8.25 6.8 8.4 6.7 8.4 6.45 8.55 5.6 8.75 4.1 8.95 M7.35 6.75 L7.35 6.7 7.4 6.75 7.35 6.75" fill="#000000" fill-rule="evenodd" stroke="none"/>
      <path d="M2.0 7.2 Q1.0 7.2 -0.4 6.65 L-2.3 5.5 -2.15 5.45 1.65 6.75 Q2.95 7.15 2.0 7.2" fill="#936440" fill-rule="evenodd" stroke="none"/>
    </g>
  </defs>
</svg>
