<svg xmlns="http://www.w3.org/2000/svg" xmlns:ffdec="https://www.free-decompiler.com/flash" xmlns:xlink="http://www.w3.org/1999/xlink" ffdec:objectType="frame" width="12.5" height="9.35"><use ffdec:characterId="3" xlink:href="#a" width="11.35" height="3.4" transform="translate(.75 4.05)"/><defs><g id="a" fill-rule="evenodd"><path fill="#e9a067" d="M11.1 0q-.6.6-2.5 1l-1.5.2H4.5L2.35.8l.45.05L6.3.8 8.85.5l.4-.05L9.4.4l.55-.1z"/><path fill="#231311" d="m6.95 2.05.85-.15 3.55-.9L9.1 2.45l-1.5.5-1.3.3-.95.1-.7.05-.8-.05-1.5-.45-.45-.1h-.1l-.9-.15.45-.1h.05l-.3-.15H.75L.4 2.25l.45-.1-.1-.1H.9Q.2 2 0 1.6l.5.15-.4-.6 1.8.75 2.05.25.95.1h.6l.7-.1z"/></g></defs></svg>