<?xml version="1.0" encoding="UTF-8" standalone="no"?>
<svg xmlns:ffdec="https://www.free-decompiler.com/flash" xmlns:xlink="http://www.w3.org/1999/xlink" ffdec:objectType="frame" height="9.35px" width="12.5px" xmlns="http://www.w3.org/2000/svg">
  <g transform="matrix(1.0, 0.0, 0.0, 1.0, -3.2, -1.2)">
    <use ffdec:characterId="3" height="3.4" transform="matrix(1.0, 0.0, 0.0, 1.0, 3.95, 5.25)" width="11.35" xlink:href="#shape0"/>
  </g>
  <defs>
    <g id="shape0" transform="matrix(1.0, 0.0, 0.0, 1.0, -3.95, -5.25)">
      <path d="M15.05 5.25 Q14.45 5.85 12.55 6.25 L11.05 6.45 10.65 6.45 8.45 6.45 6.3 6.05 6.75 6.1 10.25 6.05 12.8 5.75 13.2 5.7 13.35 5.65 13.9 5.55 15.05 5.25" fill="#e9a067" fill-rule="evenodd" stroke="none"/>
      <path d="M10.9 7.3 L11.75 7.15 15.3 6.25 13.05 7.7 11.55 8.2 10.25 8.5 9.3 8.6 8.6 8.65 7.8 8.6 6.3 8.15 5.85 8.05 5.75 8.05 4.85 7.9 5.3 7.8 5.35 7.8 5.05 7.65 4.7 7.65 4.35 7.5 4.8 7.4 4.7 7.3 4.85 7.3 Q4.15 7.25 3.95 6.85 L4.45 7.0 4.05 6.4 5.85 7.15 7.9 7.4 8.85 7.5 9.45 7.5 10.15 7.4 10.9 7.3" fill="#231311" fill-rule="evenodd" stroke="none"/>
    </g>
  </defs>
</svg>
