<?xml version="1.0" standalone="no"?>
<svg width="200px" height="298px" xmlns="http://www.w3.org/2000/svg" xmlns:xlink="http://www.w3.org/1999/xlink" version="1.1" id="main">
  <use>
    <animate attributeName="xlink:href" begin="0s" dur="1.0s" repeatCount="indefinite"
     values="#EyeL2_a;#EyeL2_b;#EyeL2_c;#EyeL2_b;#EyeL2_a"
    />
  </use>
  <defs>
    <g id="EyeL2_a" transform="matrix(1.0, 0.0, 0.0, 1.0, -0.9, 0.95)">
      <use height="13.0" transform="matrix(1.0, 0.0, 0.0, 1.0, 0.9, -0.95)" width="14.05" xlink:href="#EyeL2_a_1"/>
      <use height="9.15" id="Color" transform="matrix(1.0, 0.0, 0.0, 1.0, 4.35, 1.95)" width="9.0" xlink:href="#EyeL2_a_2"/>
      <use height="9.3" transform="matrix(1.0, 0.0, 0.0, 1.0, 2.05, 1.8)" width="12.0" xlink:href="#EyeL2_a_3"/>
    </g>
     <g id="EyeL2_a_1" transform="matrix(1.0, 0.0, 0.0, 1.0, -0.9, 0.95)">
      <path d="M2.45 7.25 L2.7 8.1 1.6 5.2 Q1.1 2.85 1.1 1.8 L0.9 0.8 0.95 0.8 6.0 0.5 Q10.1 0.95 13.85 2.7 L14.95 4.95 14.05 4.35 13.0 3.6 11.15 2.9 5.05 1.95 3.7 2.05 Q3.1 2.1 2.85 2.4 1.75 3.5 2.25 6.3 L2.45 7.25 M11.35 11.55 L10.3 11.95 7.35 11.85 5.8 11.3 9.0 11.35 11.9 11.15 11.35 11.55" fill="#3a2d2b" fill-rule="evenodd" stroke="none"/>
      <path d="M2.45 7.25 L2.25 6.3 Q1.75 3.5 2.85 2.4 3.1 2.1 3.7 2.05 L5.05 1.95 Q4.15 3.5 4.4 6.9 4.55 8.65 7.0 10.85 L5.85 10.45 Q3.45 9.2 2.45 7.25 M13.0 3.6 L14.05 4.35 Q14.1 7.95 12.7 10.35 L12.7 10.4 12.75 10.2 12.5 10.4 11.3 10.75 11.25 10.75 Q12.4 10.05 12.95 8.0 L13.35 5.7 13.0 3.6" fill="#ffffff" fill-rule="evenodd" stroke="none"/>
      <path d="M12.7 1.4 L10.25 0.0 Q8.55 -0.95 7.2 -0.9" fill="none" stroke="#3a2d2b" stroke-linecap="round" stroke-linejoin="round" stroke-width="0.15000000000000002"/>
    </g>
    <g id="EyeL2_a_2" transform="matrix(1.0, 0.0, 0.0, 1.0, 0.0, 0.0)">
      <path d="M3.55 9.05 L2.65 8.9 Q0.2 6.7 0.05 4.95 -0.2 1.55 0.7 0.0 2.65 -0.05 6.8 0.95 L8.65 1.65 9.0 3.75 8.6 6.05 Q8.05 8.1 6.9 8.8 L5.0 9.15 3.55 9.05" fill="#006633" fill-rule="evenodd" stroke="none"/>
    </g>
    <g id="EyeL2_a_3" transform="matrix(1.0, 0.0, 0.0, 1.0, -2.05, -1.8)">
      <path d="M11.2 10.75 L9.3 11.1 7.85 11.0 6.95 10.85 Q4.5 8.65 4.35 6.9 4.1 3.5 5.0 1.95 7.2 1.9 11.4 2.9 L12.95 3.45 Q13.3 4.5 13.3 5.7 L12.9 8.0 Q12.35 10.05 11.2 10.75" fill="url(#gradient_EyeL2_a_1)" fill-rule="evenodd" stroke="none"/>
      <path d="M10.35 7.9 Q10.35 8.8 9.3 9.4 8.0 9.35 7.65 8.35 L7.6 7.3 Q8.5 8.9 9.5 8.55 L10.35 7.9" fill="#ffffff" fill-opacity="0.4" fill-rule="evenodd" stroke="none"/>
      <path d="M10.25 4.85 L10.45 5.45 10.65 6.5 Q10.65 7.4 10.2 8.0 L9.1 8.65 Q8.45 8.65 8.0 8.0 7.55 7.4 7.55 6.5 L7.75 4.7 5.55 5.2 4.3 5.55 Q4.15 3.3 5.0 1.95 7.2 1.9 11.4 2.9 L12.95 3.45 Q13.3 4.5 13.3 5.5 L10.25 4.85" fill="#000000" fill-opacity="0.49803922" fill-rule="evenodd" stroke="none"/>
      <path d="M12.95 3.3 Q13.3 4.35 13.3 5.55 L10.85 4.9 10.2 5.0 Q10.65 5.7 10.65 6.55 10.65 7.45 10.2 8.05 L9.1 8.7 Q8.45 8.7 8.0 8.05 7.55 7.45 7.55 6.55 L7.7 5.45 7.95 4.75 4.25 5.55 Q4.35 3.55 5.0 1.8 7.2 1.75 11.4 2.75 L12.95 3.3" fill="url(#gradient_EyeL2_a_2)" fill-rule="evenodd" stroke="none"/>
      <path d="M6.95 3.55 L7.0 4.5 6.7 5.65 5.85 5.95 Q4.85 6.25 4.9 5.95 L4.8 4.95 5.0 3.9 Q5.1 3.75 6.05 3.55 6.95 3.35 6.95 3.55" fill="#ffffff" fill-rule="evenodd" stroke="none"/>
      <path d="M11.05 8.4 L10.65 7.85 10.75 7.75 11.15 7.7 11.75 7.85 12.2 8.5 12.55 9.1 11.95 9.1 11.65 9.05 11.05 8.4" fill="#ffffff" fill-opacity="0.69411767" fill-rule="evenodd" stroke="none"/>
      <path d="M14.05 4.95 L13.3 4.55 Q9.1 2.5 4.1 4.4 3.2 4.7 2.1 5.35 1.9 3.2 2.8 2.3 3.05 2.0 3.65 1.95 L5.0 1.85 Q7.1 1.8 11.25 2.8 L12.8 3.5 14.0 4.3 14.05 4.95" fill="#000000" fill-opacity="0.29803923" fill-rule="evenodd" stroke="none"/>
    </g>
    <radialGradient cx="0" cy="0" gradientTransform="matrix(0.0073, 0.0, 0.0, 0.0073, 8.8, 6.55)" gradientUnits="userSpaceOnUse" id="gradient_EyeL2_a_1" r="819.2" spreadMethod="pad">
      <stop offset="0.0" stop-color="#000000" stop-opacity="0.0"/>
      <stop offset="0.7137254901960784" stop-color="#000000" stop-opacity="0.2"/>
    </radialGradient>
    <linearGradient gradientTransform="matrix(0.0, -0.0042, 0.0056, 0.0, 8.65, 5.25)" gradientUnits="userSpaceOnUse" id="gradient_EyeL2_a_2" spreadMethod="pad" x1="-819.2" x2="819.2">
      <stop offset="0.5529411764705883" stop-color="#000000" stop-opacity="0.0"/>
      <stop offset="1.0" stop-color="#000000" stop-opacity="0.49803922"/>
    </linearGradient>

    <g id="EyeL2_b" transform="matrix(1.0, 0.0, 0.0, 1.0, -0.9, 0.95)">
      <use height="9.4" transform="matrix(1.0, 0.0, 0.0, 1.0, 0.9, 2.65)" width="14.05" xlink:href="#EyeL2_b_1"/>
      <use height="9.15" id="Color" transform="matrix(1.0, 0.0, 0.0, 0.7295, 4.35, 4.75)" width="9.0" xlink:href="#EyeL2_b_2"/>
      <use height="6.7" transform="matrix(1.0, 0.0, 0.0, 1.0, 2.05, 4.65)" width="12.0" xlink:href="#EyeL2_b_3"/>
    </g>
    <g id="EyeL2_b_1" transform="matrix(1.0, 0.0, 0.0, 1.0, -0.9, -2.65)">
      <path d="M13.0 5.95 L11.15 5.45 5.05 4.75 3.7 4.85 Q3.1 4.85 2.85 5.1 1.75 5.9 2.25 7.9 L2.45 8.6 2.7 9.2 1.6 7.1 Q1.1 5.4 1.1 4.65 L0.9 3.95 0.95 3.95 6.0 3.7 Q10.1 4.05 13.85 5.3 L14.95 6.9 14.05 6.5 13.0 5.95 M11.35 11.7 L10.3 12.0 7.35 11.9 5.8 11.5 9.0 11.55 11.9 11.4 11.35 11.7" fill="#3a2d2b" fill-rule="evenodd" stroke="none"/>
      <path d="M13.0 5.95 L14.05 6.5 Q14.1 9.1 12.7 10.8 L12.7 10.85 12.75 10.7 12.5 10.85 11.3 11.1 11.25 11.1 Q12.4 10.6 12.95 9.15 L13.35 7.45 13.0 5.95 M2.45 8.6 L2.25 7.9 Q1.75 5.9 2.85 5.1 3.1 4.85 3.7 4.85 L5.05 4.75 Q4.15 5.9 4.4 8.35 4.55 9.6 7.0 11.2 L5.85 10.9 Q3.45 10.0 2.45 8.6" fill="#ffffff" fill-rule="evenodd" stroke="none"/>
      <path d="M12.7 4.35 L10.25 3.35 Q8.55 2.65 7.2 2.7" fill="none" stroke="#3a2d2b" stroke-linecap="round" stroke-linejoin="round" stroke-width="0.15000000000000002"/>
    </g>
    <g id="EyeL2_b_2" transform="matrix(1.0, 0.0, 0.0, 1.0, 0.0, 0.0)">
      <path d="M3.55 9.05 L2.65 8.9 Q0.2 6.7 0.05 4.95 -0.2 1.55 0.7 0.0 2.65 -0.05 6.8 0.95 L8.65 1.65 9.0 3.75 8.6 6.05 Q8.05 8.1 6.9 8.8 L5.0 9.15 3.55 9.05" fill="#006633" fill-rule="evenodd" stroke="none"/>
    </g>
    <g id="EyeL2_b_3" transform="matrix(1.0, 0.0, 0.0, 1.0, -2.05, -4.65)">
      <path d="M13.3 7.45 L12.9 9.15 Q12.35 10.6 11.2 11.1 L9.3 11.35 7.85 11.3 6.95 11.2 Q4.5 9.6 4.35 8.35 4.1 5.9 5.0 4.75 L11.4 5.45 12.95 5.85 Q13.3 6.6 13.3 7.45" fill="url(#gradient_EyeL2_b_1)" fill-rule="evenodd" stroke="none"/>
      <path d="M10.35 9.15 Q10.35 9.7 9.3 10.05 8.0 10.0 7.65 9.4 L7.6 8.75 Q8.5 9.75 9.5 9.55 10.05 9.45 10.35 9.15" fill="#ffffff" fill-opacity="0.49803922" fill-rule="evenodd" stroke="none"/>
      <path d="M10.2 9.15 Q9.75 9.6 9.1 9.6 8.45 9.6 8.0 9.15 7.55 8.7 7.55 8.05 L7.75 6.75 5.55 7.1 4.3 7.35 Q4.15 5.75 5.0 4.75 L11.4 5.45 12.95 5.85 13.3 7.3 10.25 6.85 10.45 7.3 10.65 8.05 10.2 9.15" fill="#000000" fill-opacity="0.49803922" fill-rule="evenodd" stroke="none"/>
      <path d="M12.95 5.75 Q13.3 6.5 13.3 7.35 L10.85 6.9 10.2 6.95 Q10.65 7.45 10.65 8.1 L10.2 9.15 Q9.75 9.65 9.1 9.65 8.45 9.65 8.0 9.15 7.55 8.75 7.55 8.1 L7.7 7.3 Q7.85 6.8 7.95 6.8 L4.25 7.35 Q4.35 5.9 5.0 4.65 L11.4 5.35 12.95 5.75" fill="url(#gradient_EyeL2_b_2)" fill-rule="evenodd" stroke="none"/>
      <path d="M4.9 7.65 L4.8 6.9 5.0 6.15 6.05 5.9 Q6.95 5.75 6.95 5.9 L7.0 6.6 6.7 7.45 5.85 7.65 Q4.85 7.85 4.9 7.65" fill="#ffffff" fill-rule="evenodd" stroke="none"/>
      <path d="M11.15 8.85 L11.75 8.95 12.2 9.4 12.55 9.85 11.95 9.85 11.65 9.8 Q11.3 9.65 11.05 9.35 L10.65 8.95 10.75 8.9 11.15 8.85" fill="#ffffff" fill-opacity="0.69411767" fill-rule="evenodd" stroke="none"/>
      <path d="M14.0 6.45 L14.05 6.9 13.3 6.65 Q9.1 5.15 4.1 6.55 L2.1 7.2 Q1.9 5.65 2.8 5.0 3.05 4.8 3.65 4.75 L5.0 4.7 11.25 5.35 12.8 5.9 14.0 6.45" fill="#000000" fill-opacity="0.29803923" fill-rule="evenodd" stroke="none"/>
    </g>
    <radialGradient cx="0" cy="0" gradientTransform="matrix(0.0073, 0.0, 0.0, 0.0052, 8.8, 8.1)" gradientUnits="userSpaceOnUse" id="gradient_EyeL2_b_1" r="819.2" spreadMethod="pad">
      <stop offset="0.0" stop-color="#000000" stop-opacity="0.0"/>
      <stop offset="0.7137254901960784" stop-color="#000000" stop-opacity="0.2"/>
    </radialGradient>
    <linearGradient gradientTransform="matrix(0.0, -0.003, 0.0056, 0.0, 8.65, 7.15)" gradientUnits="userSpaceOnUse" id="gradient_EyeL2_b_2" spreadMethod="pad" x1="-819.2" x2="819.2">
      <stop offset="0.5529411764705883" stop-color="#000000" stop-opacity="0.0"/>
      <stop offset="1.0" stop-color="#000000" stop-opacity="0.49803922"/>
    </linearGradient>

    <g id="EyeL2_c" transform="matrix(1.0, 0.0, 0.0, 1.0, -0.9, 0.95)">
      <use height="4.55" transform="matrix(1.0, 0.0, 0.0, 1.0, 1.8, 6.4)" width="12.0" xlink:href="#EyeL2_c_1"/>
      <use height="9.15" id="Color" transform="matrix(1.0, 0.0, 0.0, 0.7295, 4.35, 4.75)" width="9.0" xlink:href="#EyeL2_c_2"/>
    </g>
    <g id="EyeL2_c_1" transform="matrix(1.0, 0.0, 0.0, 1.0, -1.8, -6.4)">
      <path d="M12.75 9.55 L11.65 10.15 10.1 10.65 6.05 10.85 2.7 9.9 Q2.4 9.8 2.2 8.55 L1.85 6.45 Q2.75 7.7 3.95 8.3 5.2 8.9 7.15 9.3 L13.75 8.9 12.75 9.55" fill="#3a2d2b" fill-rule="evenodd" stroke="none"/>
      <path d="M12.75 9.55 L13.75 8.9 7.15 9.3 Q5.2 8.9 3.95 8.3 2.75 7.7 1.85 6.45 L2.2 8.55 Q2.4 9.8 2.7 9.9 L6.05 10.85 10.1 10.65 11.65 10.15 12.75 9.55 M12.8 7.5 Q10.75 8.45 8.5 8.25" fill="none" stroke="#3a2d2b" stroke-linecap="round" stroke-linejoin="round" stroke-width="0.15000000000000002"/>
    </g>
    <g id="EyeL2_c_2" transform="matrix(1.0, 0.0, 0.0, 1.0, 0.0, 0.0)">
      <path d="M3.55 9.05 L2.65 8.9 Q0.2 6.7 0.05 4.95 -0.2 1.55 0.7 0.0 2.65 -0.05 6.8 0.95 L8.65 1.65 9.0 3.75 8.6 6.05 Q8.05 8.1 6.9 8.8 L5.0 9.15 3.55 9.05" fill="#006633" fill-opacity="0.0" fill-rule="evenodd" stroke="none"/>
    </g>

  </defs>
</svg>