<?xml version="1.0" encoding="UTF-8" standalone="no"?>
<svg xmlns:ffdec="https://www.free-decompiler.com/flash" xmlns:xlink="http://www.w3.org/1999/xlink" ffdec:objectType="frame" height="11.95px" width="14.95px" xmlns="http://www.w3.org/2000/svg">
  <g transform="matrix(1.0, 0.0, 0.0, 1.0, 2.35, -0.4)">
    <use ffdec:characterId="9" height="5.15" transform="matrix(1.0, 0.0, 0.0, 1.0, -2.05, 6.85)" width="12.75" xlink:href="#shape0"/>
  </g>
  <defs>
    <g id="shape0" transform="matrix(1.0, 0.0, 0.0, 1.0, 2.05, -6.85)">
      <path d="M8.05 10.7 L8.35 10.55 8.85 10.25 8.9 10.2 Q10.15 9.45 10.65 8.3 9.6 9.7 8.05 9.6 9.45 9.1 10.0 6.9 9.1 8.4 7.85 9.0 L4.65 10.0 -2.0 9.4 -1.0 10.05 Q-0.9 10.2 -0.95 10.5 L-0.9 10.85 -0.45 11.15 -0.9 10.85 -1.25 11.65 -0.45 11.15 1.65 11.65 5.75 11.55 7.2 11.1 9.45 11.95 8.05 10.7 7.2 11.1 8.05 10.7" fill="#3a2d2b" fill-rule="evenodd" stroke="none"/>
      <path d="M-0.9 10.85 L-0.95 10.5 Q-0.9 10.2 -1.0 10.05 L-2.0 9.4 4.65 10.0 7.85 9.0 Q9.1 8.4 10.0 6.9 9.45 9.1 8.05 9.6 9.6 9.7 10.65 8.3 10.15 9.45 8.9 10.2 L8.85 10.25 8.35 10.55 8.05 10.7 7.2 11.1 5.75 11.55 1.65 11.65 -0.45 11.15 -0.9 10.85 -1.25 11.65 -0.45 11.15 M8.05 10.7 L9.45 11.95 7.2 11.1 M-1.05 8.2 Q1.0 9.15 3.3 8.95" fill="none" stroke="#3a2d2b" stroke-linecap="round" stroke-linejoin="round" stroke-width="0.15000000000000002"/>
    </g>
  </defs>
</svg>
