<?xml version="1.0" encoding="UTF-8" standalone="no"?>
<svg xmlns:ffdec="https://www.free-decompiler.com/flash" xmlns:xlink="http://www.w3.org/1999/xlink" ffdec:objectType="frame" height="12.85px" width="13.15px" xmlns="http://www.w3.org/2000/svg">
  <g transform="matrix(1.0, 0.0, 0.0, 1.0, 3.3, 1.05)">
    <use ffdec:characterId="6" height="6.75" transform="matrix(1.0, 0.0, 0.0, 1.0, -1.6, 5.0)" width="10.8" xlink:href="#shape0"/>
    <use ffdec:characterId="3" height="12.1" transform="matrix(1.0, 0.0, 0.0, 0.5916, -0.85, 4.5824)" width="8.4" xlink:href="#sprite0"/>
    <use ffdec:characterId="9" height="7.15" transform="matrix(1.0, 0.0, 0.0, 1.0, -2.1, 4.2)" width="11.95" xlink:href="#shape2"/>
    <use ffdec:characterId="5" height="1.6" transform="matrix(1.0, 0.0, 0.0, 1.0, -1.8, -1.05)" width="2.65" xlink:href="#shape3"/>
  </g>
  <defs>
    <g id="shape0" transform="matrix(1.0, 0.0, 0.0, 1.0, 1.6, -5.0)">
      <path d="M6.9 5.9 Q8.0 6.35 8.5 6.8 9.2 7.45 9.2 8.25 L9.2 9.05 9.2 9.4 9.05 9.7 8.7 10.65 8.75 10.7 8.3 11.05 5.85 11.65 3.95 11.75 2.8 11.75 1.2 11.5 -0.25 10.85 Q-1.65 10.25 -1.6 7.85 L-1.45 6.45 -1.0 5.6 -0.25 5.25 -0.1 5.2 Q-0.1 5.05 0.25 5.05 L0.55 5.1 1.7 5.0 1.85 5.0 4.15 5.1 4.3 5.1 5.65 5.35 6.55 5.75 6.75 5.85 6.75 5.8 6.9 5.9" fill="#ffffff" fill-rule="evenodd" stroke="none"/>
      <path d="M6.75 5.8 L6.9 5.9 Q8.0 6.35 8.5 6.8 9.15 7.4 9.2 8.1 L7.0 7.7 2.75 7.3 -1.2 7.65 -1.6 7.75 -1.45 6.45 -1.0 5.6 -0.25 5.25 -0.1 5.2 Q-0.1 5.05 0.25 5.05 L0.55 5.1 1.7 5.0 1.85 5.0 4.15 5.1 4.3 5.1 5.65 5.35 6.55 5.75 6.75 5.85 6.75 5.8" fill="url(#gradient0)" fill-rule="evenodd" stroke="none"/>
    </g>
    <linearGradient gradientTransform="matrix(0.0066, 0.0, 0.0, 0.0019, 3.8, 6.55)" gradientUnits="userSpaceOnUse" id="gradient0" spreadMethod="pad" x1="-819.2" x2="819.2">
      <stop offset="0.0" stop-color="#000000" stop-opacity="0.14901961"/>
      <stop offset="1.0" stop-color="#ffffff"/>
    </linearGradient>
    <g id="sprite0" transform="matrix(1.0, 0.0, 0.0, 1.0, 3.7, 6.2)">
      <use ffdec:characterId="2" height="12.1" transform="matrix(1.0, 0.0, 0.0, 1.0, -3.7, -6.2)" width="8.4" xlink:href="#shape1"/>
    </g>
    <g id="shape1" transform="matrix(1.0, 0.0, 0.0, 1.0, 3.7, 6.2)">
      <path d="M3.75 -4.3 L4.2 -3.8 4.45 -3.15 4.65 -1.5 4.65 0.3 4.35 2.45 3.6 4.45 Q2.8 5.9 0.55 5.9 -1.5 5.9 -2.5 4.5 L-2.75 4.1 Q-3.7 2.55 -3.7 0.25 -3.7 -3.7 -2.65 -5.3 -2.1 -6.0 -1.2 -6.0 L0.45 -5.85 Q2.65 -5.85 3.75 -4.3" fill="#433838" fill-rule="evenodd" stroke="none"/>
      <path d="M3.5 -4.45 L3.9 -4.0 4.2 -3.4 4.35 -1.75 4.35 0.0 4.05 2.1 3.35 4.05 Q2.65 5.45 0.55 5.45 -1.3 5.45 -2.25 4.15 L-2.45 3.75 Q-3.35 2.25 -3.35 -0.05 -3.35 -3.9 -2.35 -5.45 -1.85 -6.2 -1.05 -6.2 L0.5 -6.0 Q2.5 -6.0 3.5 -4.45" fill="#1d6864" fill-rule="evenodd" stroke="none"/>
      <path d="M3.35 4.05 Q2.65 5.45 0.55 5.45 -1.3 5.45 -2.25 4.15 L-2.45 3.75 -2.95 2.65 -2.8 2.65 0.75 3.1 Q2.4 3.1 4.0 2.35 L3.35 4.05" fill="#55c68b" fill-rule="evenodd" stroke="none"/>
    </g>
    <g id="shape2" transform="matrix(1.0, 0.0, 0.0, 1.0, 2.1, -4.2)">
      <path d="M3.2 4.2 Q6.45 4.4 8.2 6.1 9.85 7.6 9.85 9.7 L9.4 10.25 9.2 10.45 8.35 11.3 8.3 11.35 8.3 11.3 8.95 9.4 Q8.95 7.7 6.7 6.35 4.55 5.05 2.1 5.05 L0.0 5.5 Q-1.2 5.95 -1.85 6.5 L-1.7 6.05 -1.35 5.45 -2.1 5.45 -1.3 5.2 -0.9 5.05 -0.8 4.95 -0.7 4.9 -0.7 4.85 -0.6 4.85 1.7 4.3 3.2 4.2" fill="#433838" fill-rule="evenodd" stroke="none"/>
      <path d="M6.6 10.7 L6.3 10.7 5.65 10.6 5.3 10.35 5.65 10.05 6.3 10.0 6.6 10.0 7.5 10.05 7.9 10.35 7.5 10.6 6.6 10.7" fill="#ffffff" fill-rule="evenodd" stroke="none"/>
    </g>
    <g id="shape3" transform="matrix(1.0, 0.0, 0.0, 1.0, 1.8, 1.05)">
      <path d="M0.15 -1.05 L0.85 -1.05 0.85 -1.0 Q-0.25 -0.85 -1.8 0.55 L-1.35 -0.25 Q-0.8 -0.65 0.15 -1.05" fill="#433838" fill-rule="evenodd" stroke="none"/>
    </g>
  </defs>
</svg>
