<?xml version="1.0" encoding="UTF-8" standalone="no"?>
<svg xmlns:ffdec="https://www.free-decompiler.com/flash" xmlns:xlink="http://www.w3.org/1999/xlink" ffdec:objectType="frame" height="11.95px" width="14.95px" xmlns="http://www.w3.org/2000/svg">
  <g transform="matrix(1.0, 0.0, 0.0, 1.0, 2.35, -0.4)">
    <use ffdec:characterId="4" height="8.55" transform="matrix(1.0, 0.0, 0.0, 1.0, -2.35, 3.8)" width="14.95" xlink:href="#shape0"/>
  </g>
  <defs>
    <g id="shape0" transform="matrix(1.0, 0.0, 0.0, 1.0, 2.35, -3.8)">
      <path d="M0.6 6.2 Q2.45 5.4 4.95 5.2 L8.15 5.45 Q9.7 5.9 9.8 6.9 L9.55 9.15 8.95 10.65 8.9 10.65 8.9 10.75 6.85 11.75 6.35 11.85 6.1 11.9 3.65 12.2 3.4 12.3 2.3 12.25 1.8 12.15 1.5 12.2 0.75 11.9 -0.15 11.5 Q-1.3 10.85 -1.65 9.6 L-1.85 7.8 -1.7 7.65 Q-1.0 6.8 0.55 6.2 L0.6 6.2" fill="#ffffff" fill-rule="evenodd" stroke="none"/>
      <path d="M5.45 4.55 Q7.6 4.9 8.15 6.4 8.75 7.85 7.5 10.1 6.3 12.25 2.2 12.0 0.4 11.9 -0.35 10.55 -0.95 9.5 -0.8 8.1 -0.65 5.9 1.15 4.95 2.85 4.05 5.45 4.55" fill="url(#gradient0)" fill-rule="evenodd" stroke="none"/>
      <path d="M0.1 7.75 L0.95 7.75 0.9 7.95 0.95 8.75 1.15 9.15 1.55 9.75 Q2.0 10.2 3.6 10.35 L4.0 10.35 4.95 10.05 5.6 9.5 6.0 8.25 6.0 7.9 6.7 7.9 Q6.6 9.45 5.75 10.35 4.8 11.3 3.4 11.3 1.95 11.3 1.0 10.65 L0.7 10.3 Q0.0 9.6 0.1 7.75" fill="#ffffff" fill-opacity="0.2509804" fill-rule="evenodd" stroke="none"/>
      <path d="M3.95 6.4 L4.15 7.9 4.15 8.25 4.05 9.45 3.85 10.1 3.6 10.45 3.4 10.5 3.35 10.45 3.25 10.4 3.1 10.2 3.1 10.15 2.9 9.55 2.8 8.75 2.8 8.0 2.85 7.5 3.05 6.35 Q3.35 5.5 3.65 5.75 L3.95 6.4" fill="#000000" fill-opacity="0.9882353" fill-rule="evenodd" stroke="none"/>
      <path d="M1.9 5.7 Q2.5 5.7 2.9 6.1 3.3 6.3 3.25 6.75 L2.7 7.4 1.65 7.65 1.0 7.5 Q0.3 7.2 0.35 6.65 0.35 6.3 0.85 6.0 1.3 5.7 1.9 5.7" fill="#ffffff" fill-rule="evenodd" stroke="none"/>
      <path d="M2.8 10.65 L2.85 10.5 2.9 10.25 Q3.35 9.55 4.45 9.55 L5.3 9.75 5.95 10.25 6.1 10.65 Q6.05 11.15 5.5 11.5 L4.3 11.75 Q3.3 11.75 2.9 11.1 L2.8 10.65" fill="#ffffff" fill-opacity="0.4" fill-rule="evenodd" stroke="none"/>
      <path d="M0.7 6.55 Q-1.05 7.2 -1.85 8.45 L-1.95 7.9 Q-1.95 6.8 -0.15 5.95 1.45 5.15 4.1 4.6 L5.6 4.5 Q10.55 4.5 10.55 7.7 L10.4 8.25 8.55 6.95 Q7.2 6.2 5.2 6.0 L4.4 6.0 Q2.4 5.9 0.7 6.55" fill="#000000" fill-opacity="0.2509804" fill-rule="evenodd" stroke="none"/>
      <path d="M0.3 11.85 L0.0 11.75 0.25 11.8 0.2 11.75 0.9 11.95 2.6 12.1 4.3 12.1 5.7 12.0 6.35 11.9 5.75 12.1 3.0 12.35 0.3 11.85 M11.3 4.95 L11.15 4.95 11.0 4.95 10.2 4.85 9.9 4.8 10.15 4.95 10.3 5.0 Q11.65 5.8 12.05 6.55 L12.6 7.6 12.55 7.6 12.45 7.55 Q12.0 7.25 11.3 7.1 11.1 8.5 10.3 9.5 L8.9 10.7 8.9 10.65 8.95 10.65 9.55 9.15 9.8 6.9 Q9.7 5.9 8.15 5.45 L4.95 5.2 Q2.45 5.4 0.6 6.2 L0.55 6.2 Q-1.0 6.8 -1.7 7.65 L-1.85 7.8 -2.05 8.1 -2.15 8.15 -2.25 8.35 Q-2.35 8.55 -2.35 8.4 L-2.3 8.05 Q-2.0 6.0 0.75 4.85 1.7 4.4 2.8 4.15 L1.45 4.4 Q-0.7 4.85 -1.7 5.7 L-1.8 5.7 -1.95 5.7 -1.75 5.6 Q-0.45 4.6 1.4 4.2 L4.8 3.85 4.9 3.85 5.8 3.85 6.9 3.9 6.95 3.9 Q9.45 4.0 11.25 4.8 L11.7 5.0 Q12.15 5.2 11.8 5.1 L11.3 4.95" fill="#3a2d2b" fill-rule="evenodd" stroke="none"/>
    </g>
    <linearGradient gradientTransform="matrix(2.0E-4, 0.0047, -0.0066, 2.0E-4, 3.75, 8.2)" gradientUnits="userSpaceOnUse" id="gradient0" spreadMethod="pad" x1="-819.2" x2="819.2">
      <stop offset="0.0" stop-color="#240202"/>
      <stop offset="0.6823529411764706" stop-color="#045410"/>
    </linearGradient>
  </defs>
</svg>
