<?xml version="1.0" encoding="UTF-8" standalone="no"?>
<svg xmlns:ffdec="https://www.free-decompiler.com/flash" xmlns:xlink="http://www.w3.org/1999/xlink" ffdec:objectType="frame" height="10.65px" width="12.8px" xmlns="http://www.w3.org/2000/svg">
  <g transform="matrix(1.0, 0.0, 0.0, 1.0, -3.2, -1.15)">
    <use ffdec:characterId="5" height="9.9" transform="matrix(1.0, 0.0, 0.0, 1.0, 3.2, 1.15)" width="12.8" xlink:href="#shape0"/>
  </g>
  <defs>
    <g id="shape0" transform="matrix(1.0, 0.0, 0.0, 1.0, -3.2, -1.15)">
      <path d="M12.95 1.7 L14.75 2.6 Q16.0 3.3 16.0 3.75 L15.95 3.95 Q15.8 4.0 15.15 3.65 L14.3 3.25 14.4 3.25 12.9 2.6 Q12.05 2.25 11.1 2.25 L6.1 2.25 Q6.65 1.8 7.75 1.45 L9.7 1.15 Q11.8 1.15 12.95 1.7" fill="#9a7e65" fill-opacity="0.49803922" fill-rule="evenodd" stroke="none"/>
      <path d="M14.8 4.65 Q14.85 6.05 14.3 7.9 L13.25 10.45 9.85 11.05 6.3 10.45 Q5.1 7.85 4.95 4.9 8.0 3.85 11.95 4.2 L14.8 4.65" fill="#ffffff" fill-rule="evenodd" stroke="none"/>
      <path d="M4.95 4.9 L5.05 2.8 Q9.7 1.55 13.05 2.6 L13.4 2.75 Q14.15 3.15 14.7 3.75 L14.8 4.65 11.95 4.2 Q8.0 3.85 4.95 4.9" fill="#cbcbcb" fill-rule="evenodd" stroke="none"/>
      <path d="M10.15 1.85 Q12.05 1.85 13.25 3.05 14.15 4.05 14.15 6.2 14.15 7.7 13.45 8.85 12.45 10.55 10.15 10.55 6.2 10.55 6.2 6.2 6.2 4.0 7.05 3.1 8.2 1.85 10.15 1.85" fill="url(#gradient0)" fill-rule="evenodd" stroke="none"/>
      <path d="M8.65 7.85 Q8.0 7.15 8.0 6.1 8.0 5.05 8.65 4.25 9.3 3.5 10.15 3.5 11.0 3.5 11.7 4.25 12.3 5.05 12.3 6.1 12.3 7.15 11.7 7.85 11.0 8.65 10.15 8.65 9.3 8.65 8.65 7.85" fill="url(#gradient1)" fill-rule="evenodd" stroke="none"/>
      <path d="M7.55 3.6 Q8.0 3.6 8.3 3.9 8.65 4.25 8.65 4.7 L8.3 5.45 Q8.0 5.8 7.55 5.8 7.1 5.8 6.75 5.45 6.45 5.15 6.45 4.7 6.45 4.25 6.75 3.9 7.1 3.6 7.55 3.6" fill="#ffffff" fill-rule="evenodd" stroke="none"/>
      <path d="M11.65 6.15 Q12.4 6.15 12.95 6.7 13.5 7.25 13.5 8.0 13.5 8.75 12.95 9.3 12.4 9.85 11.65 9.85 10.9 9.85 10.35 9.3 9.8 8.75 9.8 8.0 9.8 7.25 10.35 6.7 10.9 6.15 11.65 6.15" fill="url(#gradient2)" fill-rule="evenodd" stroke="none"/>
      <path d="M16.0 4.7 Q14.15 3.3 11.6 2.75 8.75 2.1 6.4 3.2 L5.4 4.8 4.3 5.8 4.7 5.0 5.0 4.1 3.25 5.75 4.1 4.05 3.2 3.9 4.45 2.8 3.65 1.9 3.35 1.4 4.85 2.35 5.25 2.4 6.9 1.8 9.05 1.55 Q12.45 1.55 14.55 3.15 15.6 3.95 16.0 4.7" fill="url(#gradient3)" fill-rule="evenodd" stroke="none"/>
    </g>
    <radialGradient cx="0" cy="0" gradientTransform="matrix(-0.0073, 0.0, 0.0, 0.0073, 10.1, 9.45)" gradientUnits="userSpaceOnUse" id="gradient0" r="819.2" spreadMethod="pad">
      <stop offset="0.0" stop-color="#70d8b1"/>
      <stop offset="1.0" stop-color="#34978f"/>
    </radialGradient>
    <radialGradient cx="0" cy="0" gradientTransform="matrix(-0.003, 0.0043, 0.0043, 0.003, 10.15, 7.45)" gradientUnits="userSpaceOnUse" id="gradient1" r="819.2" spreadMethod="pad">
      <stop offset="0.0" stop-color="#000000" stop-opacity="0.0"/>
      <stop offset="1.0" stop-color="#041620" stop-opacity="0.64705884"/>
    </radialGradient>
    <radialGradient cx="0" cy="0" gradientTransform="matrix(0.0056, 0.0, 0.0, 0.0056, 11.0, 5.95)" gradientUnits="userSpaceOnUse" id="gradient2" r="819.2" spreadMethod="pad">
      <stop offset="0.5058823529411764" stop-color="#ffffff" stop-opacity="0.0"/>
      <stop offset="1.0" stop-color="#ffffff" stop-opacity="0.91764706"/>
    </radialGradient>
    <linearGradient gradientTransform="matrix(-1.026, 0.0, 0.0, 1.14, 13.05, -0.5)" gradientUnits="userSpaceOnUse" id="gradient3" spreadMethod="pad" x1="-819.2" x2="819.2">
      <stop offset="0.0" stop-color="#000410"/>
      <stop offset="0.5058823529411764" stop-color="#080831"/>
      <stop offset="1.0" stop-color="#000107"/>
    </linearGradient>
  </defs>
</svg>
