<?xml version="1.0" encoding="UTF-8" standalone="no"?>
<svg xmlns:ffdec="https://www.free-decompiler.com/flash" xmlns:xlink="http://www.w3.org/1999/xlink" ffdec:objectType="frame" height="11.3px" width="13.85px" xmlns="http://www.w3.org/2000/svg">
  <g transform="matrix(1.0, 0.0, 0.0, 1.0, 3.1, -1.55)">
    <use ffdec:characterId="3" height="2.4" transform="matrix(1.0, 0.0, 0.0, 1.0, -2.9, 8.9)" width="12.25" xlink:href="#shape0"/>
  </g>
  <defs>
    <g id="shape0" transform="matrix(1.0, 0.0, 0.0, 1.0, 2.9, -8.9)">
      <path d="M2.5 11.15 L1.15 10.85 -0.45 10.35 -2.9 8.9 0.0 9.65 1.4 9.9 3.3 9.95 5.45 9.8 7.0 9.4 8.25 9.0 7.05 9.65 4.1 10.25 6.6 10.05 9.15 9.05 Q9.6 8.65 9.05 9.45 8.5 10.15 7.4 10.65 L6.85 10.9 5.75 11.15 4.5 11.3 3.6 11.3 2.5 11.15" fill="url(#gradient0)" fill-rule="evenodd" stroke="none"/>
    </g>
    <radialGradient cx="0" cy="0" gradientTransform="matrix(0.0079, 0.0, 0.0, 0.0083, 3.2, 10.1)" gradientUnits="userSpaceOnUse" id="gradient0" r="819.2" spreadMethod="pad">
      <stop offset="0.49411764705882355" stop-color="#0b0001"/>
      <stop offset="1.0" stop-color="#740c00"/>
    </radialGradient>
  </defs>
</svg>
