<?xml version="1.0" encoding="UTF-8" standalone="no"?>
<svg xmlns:ffdec="https://www.free-decompiler.com/flash" xmlns:xlink="http://www.w3.org/1999/xlink" ffdec:objectType="frame" height="11.3px" width="13.85px" xmlns="http://www.w3.org/2000/svg">
  <g transform="matrix(1.0, 0.0, 0.0, 1.0, 3.1, -1.55)">
    <use ffdec:characterId="5" height="11.3" transform="matrix(1.0, 0.0, 0.0, 1.0, -3.1, 1.55)" width="13.85" xlink:href="#shape0"/>
  </g>
  <defs>
    <g id="shape0" transform="matrix(1.0, 0.0, 0.0, 1.0, 3.1, -1.55)">
      <path d="M9.25 5.25 Q9.2 7.1 8.5 8.55 L7.8 9.9 7.8 9.95 7.45 10.35 6.65 11.35 Q5.8 12.35 3.85 12.65 L2.25 12.65 1.1 12.4 0.15 12.0 -1.05 11.05 -1.95 9.35 -2.5 7.75 -2.55 5.75 -2.5 5.4 -1.95 5.0 -0.55 4.05 1.25 3.05 1.65 2.7 3.0 2.4 4.5 2.65 4.65 2.75 8.5 3.2 Q9.3 3.35 9.25 5.25" fill="#ffffff" fill-rule="evenodd" stroke="none"/>
      <path d="M6.15 3.95 Q7.05 5.5 7.15 7.4 L7.15 7.5 Q7.25 9.4 5.8 11.25 4.45 13.05 2.2 12.35 -0.05 11.55 -0.6 9.4 L-0.8 8.05 Q-0.85 6.55 -0.35 5.15 0.35 3.0 1.35 2.3 2.25 1.55 3.75 1.9 5.25 2.25 6.15 3.95" fill="url(#gradient0)" fill-rule="evenodd" stroke="none"/>
      <path d="M3.1 11.1 Q4.7 11.1 5.45 10.3 L6.4 9.25 Q6.25 10.1 5.35 11.0 4.35 11.95 3.1 11.9 1.85 11.8 0.9 10.75 -0.1 9.65 -0.1 9.2 L-0.1 9.15 0.3 9.65 Q1.5 11.1 3.1 11.1" fill="#ffffff" fill-opacity="0.2509804" fill-rule="evenodd" stroke="none"/>
      <path d="M3.75 1.9 Q5.25 2.25 6.15 3.95 7.05 5.5 7.15 7.4 L5.9 7.0 Q5.5 7.0 5.55 7.9 5.6 8.75 5.0 9.75 4.35 10.7 2.9 10.55 1.5 10.3 1.1 9.05 0.7 7.8 0.8 6.9 -0.25 6.75 -0.8 8.05 -0.85 6.55 -0.35 5.15 0.35 3.0 1.35 2.3 2.25 1.55 3.75 1.9" fill="#2c0013" fill-opacity="0.29803923" fill-rule="evenodd" stroke="none"/>
      <path d="M3.95 8.95 L4.05 8.9 3.95 9.0 3.95 8.95 M3.15 11.0 L3.15 11.05 3.1 11.0 3.15 11.0" fill="#ff87c3" fill-opacity="0.6" fill-rule="evenodd" stroke="none"/>
      <path d="M3.2 7.1 Q3.65 7.0 4.0 7.35 4.3 7.6 4.15 8.1 L4.1 8.2 4.0 8.3 3.45 8.55 2.65 8.75 Q2.45 7.85 2.65 7.55 2.7 7.3 3.1 7.1 L3.2 7.1 M3.75 9.05 L4.2 9.25 4.25 9.4 4.35 9.75 4.35 9.85 3.85 10.4 3.1 10.5 3.25 10.5 3.0 10.3 2.75 9.8 2.65 9.0 3.75 9.05 M1.1 7.25 L1.85 7.35 2.05 7.8 2.1 8.1 2.2 8.8 1.95 8.85 1.2 8.9 0.7 8.5 0.5 8.15 Q0.55 7.3 1.05 7.25 L1.1 7.25 M2.25 9.1 L2.3 10.25 1.9 10.75 1.8 10.75 1.1 10.7 Q0.65 10.2 0.85 9.7 L1.15 9.4 1.3 9.4 1.55 9.25 2.25 9.1" fill="#ff87c3" fill-opacity="0.9882353" fill-rule="evenodd" stroke="none"/>
      <path d="M6.15 5.85 Q6.15 6.9 5.3 6.9 4.6 6.9 4.2 6.4 L3.95 5.7 Q3.95 5.35 4.1 5.1 4.4 4.5 4.85 4.5 6.15 4.5 6.15 5.85" fill="#ffffff" fill-rule="evenodd" stroke="none"/>
      <path d="M8.75 7.4 L7.25 5.85 Q5.75 4.45 2.85 4.35 0.0 4.15 -1.25 4.9 -2.65 5.45 -2.65 5.8 L-2.7 4.9 -2.65 4.6 -2.65 4.55 Q-2.55 4.45 -1.25 3.7 -0.25 3.0 2.25 2.7 L3.75 2.85 Q6.25 3.15 8.1 3.85 9.65 4.5 9.65 4.85 9.2 7.45 8.75 7.4" fill="#310700" fill-opacity="0.23921569" fill-rule="evenodd" stroke="none"/>
      <path d="M8.15 4.8 L5.9 3.85 Q4.5 3.35 2.95 3.35 L-0.45 3.8 Q-1.7 4.45 -2.4 5.1 L-3.1 5.75 -2.65 4.6 -1.5 3.15 Q-1.1 2.8 -0.35 2.55 L1.5 2.1 -0.9 2.55 -2.55 3.1 -2.9 3.25 -0.85 2.15 Q0.5 1.6 2.3 1.55 L4.05 1.65 6.1 2.05 Q7.7 2.4 9.15 3.5 L10.75 4.8 9.8 6.65 8.2 8.95 9.15 5.3 8.15 4.8" fill="url(#gradient1)" fill-rule="evenodd" stroke="none"/>
      <path d="M1.95 12.25 L4.4 12.1 Q6.05 11.85 6.8 11.2 L6.25 11.85 Q5.0 12.9 3.15 12.85 1.35 12.75 -0.15 11.95 L1.45 12.2 1.4 12.15 1.95 12.25" fill="url(#gradient2)" fill-rule="evenodd" stroke="none"/>
    </g>
    <linearGradient gradientTransform="matrix(0.0048, 0.0, 0.0, 0.0066, 3.15, 7.15)" gradientUnits="userSpaceOnUse" id="gradient0" spreadMethod="pad" x1="-819.2" x2="819.2">
      <stop offset="0.0" stop-color="#d01e3a"/>
      <stop offset="0.29411764705882354" stop-color="#cf1f3e"/>
      <stop offset="1.0" stop-color="#9a41bb"/>
    </linearGradient>
    <radialGradient cx="0" cy="0" gradientTransform="matrix(0.0086, 8.0E-4, -9.0E-4, 0.009, 3.9, 4.9)" gradientUnits="userSpaceOnUse" id="gradient1" r="819.2" spreadMethod="pad">
      <stop offset="0.49411764705882355" stop-color="#0b0001"/>
      <stop offset="1.0" stop-color="#740c00"/>
    </radialGradient>
    <radialGradient cx="0" cy="0" gradientTransform="matrix(0.0047, 0.0, 0.0, 0.005, 3.35, 12.0)" gradientUnits="userSpaceOnUse" id="gradient2" r="819.2" spreadMethod="pad">
      <stop offset="0.1568627450980392" stop-color="#0b0001"/>
      <stop offset="0.6941176470588235" stop-color="#740c00"/>
    </radialGradient>
  </defs>
</svg>
