<svg xmlns="http://www.w3.org/2000/svg" xmlns:ffdec="https://www.free-decompiler.com/flash" xmlns:xlink="http://www.w3.org/1999/xlink" ffdec:objectType="frame" width="13.85" height="11.3"><use ffdec:characterId="5" xlink:href="#a" width="13.85" height="11.3"/><defs><radialGradient id="c" cx="0" cy="0" r="819.2" gradientTransform="matrix(.0086 .0008 -.0009 .009 3.9 4.9)" gradientUnits="userSpaceOnUse" spreadMethod="pad"><stop offset=".494" stop-color="#0b0001"/><stop offset="1" stop-color="#740c00"/></radialGradient><radialGradient id="d" cx="0" cy="0" r="819.2" gradientTransform="matrix(.0047 0 0 .005 3.35 12)" gradientUnits="userSpaceOnUse" spreadMethod="pad"><stop offset=".157" stop-color="#0b0001"/><stop offset=".694" stop-color="#740c00"/></radialGradient><linearGradient id="b" x1="-819.2" x2="819.2" gradientTransform="matrix(.0048 0 0 .0066 3.15 7.15)" gradientUnits="userSpaceOnUse" spreadMethod="pad"><stop offset="0" stop-color="#d01e3a"/><stop offset=".294" stop-color="#cf1f3e"/><stop offset="1" stop-color="#9a41bb"/></linearGradient><g id="a" fill-rule="evenodd"><path fill="#fff" d="M12.35 3.7Q12.3 5.55 11.6 7l-.7 1.35v.05l-.35.4-.8 1q-.85 1-2.8 1.3h-1.6l-1.15-.25-.95-.4-1.2-.95-.9-1.7L.6 6.2l-.05-2 .05-.35.55-.4 1.4-.95 1.8-1 .4-.35L6.1.85l1.5.25.15.1 3.85.45q.8.15.75 2.05"/><path fill="url(#b)" d="M6.15 3.95q.9 1.55 1 3.45v.1q.1 1.9-1.35 3.75-1.35 1.8-3.6 1.1-2.25-.8-2.8-2.95l-.2-1.35q-.05-1.5.45-2.9Q.35 3 1.35 2.3q.9-.75 2.4-.4t2.4 2.05" transform="translate(3.1 -1.55)"/><path fill="#fff" fill-opacity=".251" d="M6.2 9.55q1.6 0 2.35-.8L9.5 7.7q-.15.85-1.05 1.75-1 .95-2.25.9-1.25-.1-2.2-1.15-1-1.1-1-1.55V7.6l.4.5q1.2 1.45 2.8 1.45"/><path fill="#2c0013" fill-opacity=".298" d="M6.85.35q1.5.35 2.4 2.05.9 1.55 1 3.45L9 5.45q-.4 0-.35.9.05.85-.55 1.85-.65.95-2.1.8-1.4-.25-1.8-1.5t-.3-2.15Q2.85 5.2 2.3 6.5q-.05-1.5.45-2.9.7-2.15 1.7-2.85.9-.75 2.4-.4"/><path fill="#ff87c3" fill-opacity=".6" d="m7.05 7.4.1-.05-.1.1zm-.8 2.05v.05l-.05-.05z"/><path fill="#ff87c3" fill-opacity=".988" d="M6.3 5.55q.45-.1.8.25.3.25.15.75l-.05.1-.1.1-.55.25-.8.2q-.2-.9 0-1.2.05-.25.45-.45zm.55 1.95.45.2.05.15.1.35v.1l-.5.55-.75.1h.15l-.25-.2-.25-.5-.1-.8zM4.2 5.7l.75.1.2.45.05.3.1.7-.25.05-.75.05-.5-.4-.2-.35q.05-.85.55-.9zm1.15 1.85L5.4 8.7l-.4.5h-.1l-.7-.05q-.45-.5-.25-1l.3-.3h.15l.25-.15z"/><path fill="#fff" d="M9.25 4.3q0 1.05-.85 1.05-.7 0-1.1-.5l-.25-.7q0-.35.15-.6.3-.6.75-.6 1.3 0 1.3 1.35"/><path fill="#310700" fill-opacity=".239" d="m11.85 5.85-1.5-1.55q-1.5-1.4-4.4-1.5-2.85-.2-4.1.55-1.4.55-1.4.9l-.05-.9.05-.3V3q.1-.1 1.4-.85 1-.7 3.5-1l1.5.15q2.5.3 4.35 1 1.55.65 1.55 1-.45 2.6-.9 2.55"/><path fill="url(#c)" d="M8.15 4.8 5.9 3.85q-1.4-.5-2.95-.5l-3.4.45q-1.25.65-1.95 1.3l-.7.65.45-1.15 1.15-1.45q.4-.35 1.15-.6L1.5 2.1l-2.4.45-1.65.55-.35.15 2.05-1.1Q.5 1.6 2.3 1.55l1.75.1 2.05.4q1.6.35 3.05 1.45l1.6 1.3-.95 1.85-1.6 2.3.95-3.65z" transform="translate(3.1 -1.55)"/><path fill="url(#d)" d="m1.95 12.25 2.45-.15q1.65-.25 2.4-.9l-.55.65q-1.25 1.05-3.1 1-1.8-.1-3.3-.9l1.6.25-.05-.05z" transform="translate(3.1 -1.55)"/></g></defs></svg>