<?xml version="1.0" encoding="UTF-8" standalone="no"?>
<svg xmlns:ffdec="https://www.free-decompiler.com/flash" xmlns:xlink="http://www.w3.org/1999/xlink" ffdec:objectType="frame" height="12.85px" width="12.5px" xmlns="http://www.w3.org/2000/svg">
  <g transform="matrix(1.0, 0.0, 0.0, 1.0, -1.3, 1.05)">
    <use ffdec:characterId="3" height="12.1" transform="matrix(-1.0, 0.0, 0.0, 0.9559, 12.6, 0.1735)" width="8.4" xlink:href="#sprite0"/>
    <use ffdec:characterId="13" height="1.6" transform="matrix(1.0, 0.0, 0.0, 1.0, 10.85, -1.05)" width="2.65" xlink:href="#shape1"/>
    <use ffdec:characterId="16" height="3.15" transform="matrix(1.0, 0.0, 0.0, 1.0, 1.3, 8.65)" width="12.5" xlink:href="#shape2"/>
  </g>
  <defs>
    <g id="sprite0" transform="matrix(1.0, 0.0, 0.0, 1.0, 3.7, 6.2)">
      <use ffdec:characterId="2" height="12.1" transform="matrix(1.0, 0.0, 0.0, 1.0, -3.7, -6.2)" width="8.4" xlink:href="#shape0"/>
    </g>
    <g id="shape0" transform="matrix(1.0, 0.0, 0.0, 1.0, 3.7, 6.2)">
      <path d="M3.75 -4.3 L4.2 -3.8 4.45 -3.15 4.65 -1.5 4.65 0.3 4.35 2.45 3.6 4.45 Q2.8 5.9 0.55 5.9 -1.5 5.9 -2.5 4.5 L-2.75 4.1 Q-3.7 2.55 -3.7 0.25 -3.7 -3.7 -2.65 -5.3 -2.1 -6.0 -1.2 -6.0 L0.45 -5.85 Q2.65 -5.85 3.75 -4.3" fill="#433838" fill-opacity="0.0" fill-rule="evenodd" stroke="none"/>
      <path d="M3.5 -4.45 L3.9 -4.0 4.2 -3.4 4.35 -1.75 4.35 0.0 4.05 2.1 3.35 4.05 Q2.65 5.45 0.55 5.45 -1.3 5.45 -2.25 4.15 L-2.45 3.75 Q-3.35 2.25 -3.35 -0.05 -3.35 -3.9 -2.35 -5.45 -1.85 -6.2 -1.05 -6.2 L0.5 -6.0 Q2.5 -6.0 3.5 -4.45" fill="#872727" fill-opacity="0.0" fill-rule="evenodd" stroke="none"/>
      <path d="M3.35 4.05 Q2.65 5.45 0.55 5.45 -1.3 5.45 -2.25 4.15 L-2.45 3.75 -2.95 2.65 -2.8 2.65 0.75 3.1 Q2.4 3.1 4.0 2.35 L3.35 4.05" fill="#e93e63" fill-opacity="0.0" fill-rule="evenodd" stroke="none"/>
    </g>
    <g id="shape1" transform="matrix(1.0, 0.0, 0.0, 1.0, -10.85, 1.05)">
      <path d="M11.55 -1.05 Q12.5 -0.65 13.05 -0.25 L13.5 0.55 Q11.95 -0.85 10.85 -1.0 L10.85 -1.05 11.55 -1.05" fill="#433838" fill-rule="evenodd" stroke="none"/>
    </g>
    <g id="shape2" transform="matrix(1.0, 0.0, 0.0, 1.0, -1.3, -8.65)">
      <path d="M12.5 9.65 L12.55 9.7 11.85 10.15 11.35 10.25 11.25 10.25 10.2 10.1 10.1 10.05 10.1 10.0 12.0 9.8 12.5 9.65 M11.9 10.8 L11.95 10.75 12.1 10.75 12.8 10.5 13.5 10.2 13.3 10.5 12.85 10.95 13.8 10.95 12.8 11.1 12.3 11.2 12.2 11.3 12.1 11.35 11.95 11.35 9.3 11.75 7.75 11.8 Q4.6 11.7 3.15 10.75 2.4 10.25 2.15 9.75 L1.8 9.6 1.3 9.2 1.35 9.2 2.0 9.35 2.0 8.75 2.05 8.65 2.65 9.2 2.7 9.25 2.75 9.3 2.9 9.5 Q3.65 10.2 6.35 10.6 L10.7 10.85 11.3 10.8 11.9 10.8" fill="#433838" fill-rule="evenodd" stroke="none"/>
    </g>
  </defs>
</svg>
