<svg xmlns="http://www.w3.org/2000/svg" xmlns:ffdec="https://www.free-decompiler.com/flash" xmlns:xlink="http://www.w3.org/1999/xlink" ffdec:objectType="frame" width="13.25" height="12.65"><use ffdec:characterId="9" xlink:href="#a" width="13.25" height="3.15" transform="translate(0 7.6)"/><defs><g id="a" fill-rule="evenodd"><path fill="#333" d="m12.65.75-.7.7 1.3.15-1.5.25h-.3L11.2 2l1.05.05-.45.25-.65.1-.55-.05-.3.15.7.1h.35l-.5.2-.55.1h-.15l-.6-.05.6.1h-.9L4.6 3.1l-2-.45-1.35-.5L.1 1.7 0 1.6l.1.05q5.65.65 8.05.2l2.2-.4 1.85-.5z"/><path fill-opacity=".239" d="M5.5.95 5.1 1l-2.65.05L1.2 1Q.45 1 1.05.6t1.6-.55 1.8.25q.8.35 1.05.65"/></g></defs></svg>