<?xml version="1.0" encoding="UTF-8" standalone="no"?>
<svg xmlns:ffdec="https://www.free-decompiler.com/flash" xmlns:xlink="http://www.w3.org/1999/xlink" ffdec:objectType="frame" height="13.7px" width="9.45px" xmlns="http://www.w3.org/2000/svg">
  <g transform="matrix(1.0, 0.0, 0.0, 1.0, -0.15, -1.55)">
    <use ffdec:characterId="1" height="13.7" transform="matrix(1.0, 0.0, 0.0, 1.0, 0.15, 1.55)" width="9.45" xlink:href="#shape0"/>
  </g>
  <defs>
    <g id="shape0" transform="matrix(1.0, 0.0, 0.0, 1.0, -0.15, -1.55)">
      <path d="M5.4 4.55 L5.4 5.1 5.45 5.1 5.5 5.15 Q6.65 5.65 7.2 6.25 L7.7 6.95 7.75 6.9 7.75 7.0 8.05 7.4 Q7.9 7.35 8.05 7.55 L7.85 7.7 Q7.75 7.75 7.6 7.9 L7.95 8.75 Q8.3 9.75 8.65 9.95 L8.8 10.15 8.9 10.15 9.2 10.2 9.35 10.2 9.5 10.25 9.45 10.3 9.4 10.4 9.3 10.65 9.2 10.85 9.2 10.95 9.0 11.15 8.65 11.6 8.6 11.65 8.5 11.7 8.45 11.75 8.45 11.8 8.45 11.95 8.45 12.0 8.5 12.05 8.55 12.1 8.6 12.35 8.8 12.7 8.95 13.0 Q8.95 13.6 6.9 14.35 L6.85 14.35 6.15 14.6 3.75 15.25 2.6 15.25 2.5 14.65 2.5 13.75 2.45 13.7 2.45 13.6 2.45 13.5 2.45 13.45 2.4 13.4 2.4 13.35 2.35 13.3 2.3 13.3 2.3 13.2 2.25 13.15 2.15 13.05 1.9 12.95 1.85 12.4 1.85 11.75 1.8 11.7 1.8 11.65 1.75 11.6 1.7 11.6 1.6 11.55 1.5 11.55 1.5 11.6 1.45 11.15 1.5 11.1 1.55 11.1 1.6 11.05 1.6 11.0 1.8 11.3 2.0 11.5 2.1 11.5 2.15 11.5 2.2 11.45 2.3 11.35 2.35 11.3 2.35 11.25 2.1 10.75 2.1 10.7 2.0 10.6 1.85 10.35 1.15 9.9 1.05 8.85 1.05 7.95 0.75 7.6 0.5 7.25 0.4 7.2 0.15 7.15 Q0.2 6.7 0.6 6.7 L0.5 6.75 0.6 6.75 1.15 6.6 1.8 6.35 1.9 6.3 2.65 6.1 2.8 6.05 2.9 6.05 2.95 6.0 3.65 5.7 3.7 5.65 4.4 4.9 4.6 4.6 4.55 4.6 4.9 4.4 5.2 4.45 5.4 4.55 M4.6 9.2 L4.6 9.25 4.7 9.4 4.85 9.4 4.55 9.15 4.6 9.2 M3.2 12.0 L3.15 12.15 3.2 12.5 3.25 12.05 3.2 12.0 M4.4 9.9 L4.35 9.7 4.3 9.65 4.4 9.9 M2.1 10.7 L2.1 10.6 2.05 10.6 2.1 10.7 M2.35 8.55 L2.3 8.55 2.4 8.9 2.35 8.55 M8.95 10.3 L8.8 10.2 8.95 10.4 8.95 10.3 M5.0 12.45 L4.95 12.8 5.1 13.1 5.05 12.85 5.05 12.8 5.1 12.45 5.15 12.25 5.0 12.45" fill="#514141" fill-opacity="0.6" fill-rule="evenodd" stroke="none"/>
      <path d="M5.25 1.55 Q5.1 2.1 5.1 3.35 L5.1 3.65 5.0 4.15 5.05 4.5 5.0 4.6 5.0 4.85 4.9 5.6 4.55 5.55 4.55 5.05 4.65 4.7 4.7 3.9 4.75 3.8 4.75 3.7 4.4 3.5 5.25 1.55 M1.05 5.35 L1.55 4.05 2.15 5.25 Q2.4 5.5 2.15 5.6 L1.9 5.7 2.35 6.85 Q2.3 7.25 2.6 7.65 L2.6 8.85 2.2 8.85 2.15 7.9 2.15 7.5 1.8 6.65 1.7 6.45 1.45 5.8 1.4 5.65 0.9 5.65 1.05 5.35 M3.4 4.7 Q3.1 4.4 2.85 4.45 L3.7 2.3 4.1 4.5 3.8 4.65 3.85 5.55 3.85 5.6 3.85 6.5 3.85 7.0 3.35 7.2 3.35 6.5 3.35 6.45 3.35 5.9 3.3 5.8 3.4 4.7" fill="#514141" fill-rule="evenodd" stroke="none"/>
      <path d="M7.7 6.7 L7.75 6.65 7.75 6.75 7.7 6.7 M1.3 10.45 L0.75 10.25 0.7 9.75 1.15 10.1 1.3 10.45 M4.6 4.35 L4.55 4.35 4.65 4.3 4.6 4.35 M2.3 5.95 L2.4 6.0 2.15 6.05 2.3 5.95 M2.6 6.65 L2.65 6.7 2.6 6.7 2.6 6.65 M3.8 7.75 L4.0 8.0 3.95 8.0 3.8 7.75 M6.7 12.35 L6.75 12.35 6.7 12.35" fill="#7c7785" fill-opacity="0.92941177" fill-rule="evenodd" stroke="none"/>
      <path d="M2.65 5.85 L2.8 5.8 2.85 5.8 2.7 5.85 2.4 6.0 2.3 5.95 2.45 5.9 2.7 5.85 2.65 5.85 M2.95 5.75 L3.65 5.45 3.4 5.6 2.95 5.75" fill="#c9c5d2" fill-opacity="0.92941177" fill-rule="evenodd" stroke="none"/>
      <path d="M3.05 6.75 L3.15 6.75 2.95 6.8 2.7 6.75 2.65 6.7 2.6 6.65 2.8 6.7 2.95 6.75 3.05 6.75 M6.85 12.75 L6.95 12.8 7.05 12.9 6.85 12.9 6.8 12.9 6.9 12.8 6.85 12.75" fill="url(#gradient0)" fill-rule="evenodd" stroke="none"/>
      <path d="M4.75 9.15 L5.35 9.95 5.25 9.9 5.0 9.8 4.6 9.0 4.7 9.15 4.75 9.15 M6.1 11.35 L6.2 11.5 6.65 12.25 6.55 12.5 Q6.05 12.3 6.05 11.7 L6.1 11.35 M2.0 7.2 L2.55 7.05 2.7 7.0 2.75 7.0 3.0 7.8 2.95 8.05 2.8 7.95 2.55 7.85 2.35 8.15 Q1.85 8.0 1.85 7.6 1.85 7.35 2.0 7.2 M4.3 9.15 L4.3 8.95 Q4.3 8.85 4.5 8.85 L4.55 8.9 4.6 8.95 4.4 9.2 4.35 9.4 4.35 9.45 4.3 9.4 4.3 9.15 M2.65 8.9 L2.75 8.9 2.8 8.9 2.9 8.9 Q3.8 9.15 3.8 10.4 L3.65 11.45 3.45 11.4 3.3 11.65 2.8 11.35 Q2.35 10.95 2.35 10.2 L2.45 9.35 2.5 9.25 2.65 8.9 M1.25 7.5 L1.45 7.45 1.5 7.75 1.25 7.5 M1.95 10.45 L1.95 10.5 2.0 10.9 1.75 10.45 1.95 10.45 M3.85 12.25 L4.4 13.05 4.65 13.55 3.7 13.7 3.45 13.5 3.4 13.05 3.5 12.4 3.85 12.25" fill="#7979e0" fill-rule="evenodd" stroke="none"/>
      <path d="M4.6 8.95 L4.6 9.0 5.0 9.8 5.0 9.95 4.7 9.95 4.45 9.8 4.4 9.65 4.35 9.45 4.35 9.4 4.4 9.2 4.6 8.95 M2.95 8.05 L3.0 8.1 3.05 8.4 3.05 8.7 2.9 8.9 2.8 8.9 2.75 8.9 2.65 8.9 2.4 8.65 2.35 8.3 2.3 8.3 2.35 8.15 2.55 7.85 2.8 7.95 2.95 8.05 M3.25 11.8 L3.3 11.65 3.45 11.4 3.65 11.45 3.7 11.45 3.9 11.95 3.9 12.15 3.85 12.25 3.5 12.4 3.35 12.4 3.2 12.25 3.25 11.8 M5.15 12.0 L5.25 11.95 5.35 12.0 5.5 12.05 5.6 12.15 5.75 12.65 5.75 12.7 Q5.75 13.25 5.4 13.25 L5.2 13.15 5.1 12.85 5.05 12.6 5.05 12.55 5.1 12.2 5.15 12.0" fill="#35352d" fill-opacity="0.92941177" fill-rule="evenodd" stroke="none"/>
      <path d="M4.65 4.3 L4.9 4.15 5.2 4.2 5.4 4.3 Q5.1 4.95 4.6 5.4 L3.6 6.05 3.3 5.85 3.4 5.6 3.65 5.45 3.7 5.4 4.4 4.65 4.6 4.35 4.65 4.3 M9.35 9.95 L9.5 10.0 9.6 10.4 9.5 10.65 9.15 11.15 8.5 11.8 7.95 12.25 7.8 12.35 7.65 12.4 7.1 12.65 6.85 12.75 6.9 12.8 6.6 12.8 6.65 12.8 6.55 12.5 6.65 12.25 6.7 12.35 Q7.55 12.2 8.35 11.5 9.15 10.8 9.35 9.95 M1.4 10.45 L1.3 10.45 1.15 10.1 1.85 10.1 1.7 10.05 1.9 10.05 2.1 10.05 2.1 10.1 2.15 10.25 2.1 10.35 2.05 10.35 2.1 10.45 1.95 10.45 1.95 10.4 1.5 10.45 1.4 10.45 M3.5 6.7 L3.7 6.6 Q5.65 8.5 7.1 11.65 L7.25 12.0 7.1 12.1 6.2 10.35 5.35 9.0 5.15 8.65 3.8 6.95 3.5 6.7 M4.3 6.15 L4.45 6.05 7.0 9.4 7.0 9.5 7.65 10.5 8.1 11.35 7.85 11.55 7.65 11.3 6.75 9.6 6.15 8.65 5.9 8.3 4.3 6.15" fill="#e2e2e2" fill-rule="evenodd" stroke="none"/>
      <path d="M7.6 7.65 L7.95 8.5 Q8.3 9.5 8.65 9.7 L8.8 9.9 8.8 9.95 8.95 10.15 8.4 11.05 8.4 10.85 Q7.95 10.85 7.65 10.5 L7.0 9.5 7.0 9.4 6.8 8.7 6.7 8.6 6.65 8.35 6.8 8.3 7.3 7.9 7.6 7.65" fill="url(#gradient1)" fill-rule="evenodd" stroke="none"/>
      <path d="M5.45 4.85 L5.5 4.9 Q6.65 5.4 7.2 6.0 L7.7 6.7 7.75 6.75 7.65 7.05 7.45 7.25 6.75 7.75 6.55 7.9 6.05 6.75 Q5.5 6.0 4.75 5.75 L5.45 4.85" fill="url(#gradient2)" fill-rule="evenodd" stroke="none"/>
      <path d="M7.75 6.75 L8.05 7.15 Q7.9 7.1 8.05 7.3 L7.85 7.45 7.75 7.25 7.65 7.05 7.75 6.75 M7.45 7.25 L7.5 7.4 7.55 7.45 7.6 7.5 7.55 7.65 7.6 7.65 7.3 7.9 6.8 8.3 6.75 7.75 7.45 7.25" fill="#c5c0cd" fill-opacity="0.92941177" fill-rule="evenodd" stroke="none"/>
      <path d="M7.85 7.45 Q7.75 7.5 7.6 7.65 L7.55 7.65 7.6 7.5 7.55 7.45 7.5 7.4 7.45 7.25 7.65 7.05 7.75 7.25 7.85 7.45 M6.75 7.75 L6.8 8.3 6.65 8.35 6.55 7.9 6.75 7.75" fill="#86818e" fill-opacity="0.92941177" fill-rule="evenodd" stroke="none"/>
      <path d="M5.4 4.3 L5.4 4.85 5.45 4.85 4.75 5.75 4.45 6.05 4.3 6.15 3.7 6.6 3.5 6.7 3.35 6.7 3.15 6.75 3.05 6.75 2.65 6.65 2.35 6.25 2.4 6.0 2.7 5.85 2.85 5.8 2.9 5.8 2.95 5.75 3.4 5.6 3.3 5.85 3.6 6.05 4.6 5.4 Q5.1 4.95 5.4 4.3" fill="url(#gradient3)" fill-rule="evenodd" stroke="none"/>
      <path d="M8.8 9.9 L8.9 9.9 9.2 9.95 9.35 9.95 Q9.15 10.8 8.35 11.5 7.55 12.2 6.7 12.35 L6.75 12.35 6.8 12.25 7.1 12.1 7.25 12.0 7.3 12.0 7.85 11.55 8.1 11.35 8.15 11.3 8.4 11.05 8.95 10.15 8.95 10.05 8.8 9.95 8.8 9.9" fill="#a18b93" fill-opacity="0.92941177" fill-rule="evenodd" stroke="none"/>
      <path d="M6.85 14.1 L6.15 14.35 5.75 13.2 6.55 12.85 6.85 14.1 M3.15 6.75 L3.35 6.7 3.5 6.7 3.8 6.95 5.15 8.65 5.35 9.0 6.2 10.35 7.1 12.1 6.8 12.25 6.75 12.35 6.7 12.35 6.65 12.25 6.2 11.5 6.1 11.35 6.0 11.2 5.95 11.05 5.8 10.8 5.6 10.4 5.35 9.95 4.75 9.15 4.85 9.15 4.55 8.9 4.0 8.0 3.8 7.75 3.5 7.35 3.05 6.9 3.0 6.85 2.95 6.8 3.15 6.75 M3.7 6.6 L4.3 6.15 5.9 8.3 6.15 8.65 6.75 9.6 7.65 11.3 7.85 11.55 7.3 12.0 7.25 12.0 7.1 11.65 Q5.65 8.5 3.7 6.6 M4.45 6.05 L4.75 5.75 Q5.5 6.0 6.05 6.75 L6.55 7.9 6.65 8.35 6.7 8.6 6.8 8.7 7.0 9.4 4.45 6.05 M0.95 7.55 L1.25 7.5 1.5 7.75 1.55 8.85 Q1.65 9.6 1.9 10.05 L1.7 10.05 1.5 10.0 1.0 7.9 1.0 7.75 0.95 7.55 M8.1 11.35 L7.65 10.5 Q7.95 10.85 8.4 10.85 L8.4 11.05 8.15 11.3 8.1 11.35" fill="#b1a4a4" fill-rule="evenodd" stroke="none"/>
      <path d="M2.4 13.8 L2.35 13.8 Q1.5 13.9 1.5 13.35 L1.65 12.7 1.4 10.45 1.5 10.45 1.75 10.45 2.0 10.9 1.95 11.2 1.9 11.25 1.95 11.2 2.0 11.1 2.0 11.25 Q1.8 12.55 2.1 13.2 L2.3 13.35 2.15 13.35 2.5 13.5 2.6 13.6 2.6 13.75 2.5 13.8 2.4 13.8" fill="url(#gradient4)" fill-rule="evenodd" stroke="none"/>
      <path d="M0.7 9.75 L0.55 8.8 0.55 7.65 0.6 7.65 1.0 7.75 1.0 7.9 1.05 9.45 1.15 10.05 1.15 10.1 0.7 9.75" fill="url(#gradient5)" fill-rule="evenodd" stroke="none"/>
      <path d="M0.6 7.65 L0.5 7.6 Q0.15 7.4 0.15 7.0 0.15 6.45 0.6 6.45 L0.5 6.5 0.6 6.5 Q0.3 7.05 0.6 7.25 L0.95 7.5 0.95 7.55 1.0 7.75 0.6 7.65" fill="url(#gradient6)" fill-rule="evenodd" stroke="none"/>
      <path d="M1.0 7.9 L1.5 10.0 1.15 10.05 1.05 9.45 1.0 7.9" fill="url(#gradient7)" fill-rule="evenodd" stroke="none"/>
      <path d="M8.5 11.8 L8.6 12.1 8.8 12.45 8.95 12.75 Q8.95 13.35 6.9 14.1 L6.85 14.1 6.55 12.85 6.6 12.8 6.9 12.8 6.8 12.9 6.85 12.9 7.05 12.9 6.95 12.8 6.85 12.75 7.1 12.65 7.65 12.4 7.8 12.35 7.95 12.25 8.5 11.8" fill="url(#gradient8)" fill-rule="evenodd" stroke="none"/>
      <path d="M6.15 14.35 L3.75 15.0 2.6 15.0 2.4 13.8 2.5 13.8 2.6 13.75 2.9 13.75 3.7 13.7 4.65 13.55 5.1 13.45 5.75 13.2 6.15 14.35" fill="url(#gradient9)" fill-rule="evenodd" stroke="none"/>
      <path d="M1.15 6.35 L1.8 6.1 1.9 6.05 Q1.7 6.15 1.7 6.55 1.7 7.05 2.0 7.2 1.85 7.35 1.85 7.6 1.85 8.0 2.35 8.15 L2.3 8.3 1.75 7.9 1.5 7.75 1.45 7.45 1.25 7.5 0.95 7.55 0.95 7.5 0.95 7.45 1.15 7.45 1.0 6.8 1.15 6.35 M3.05 6.9 L3.5 7.35 3.45 7.4 3.0 8.1 2.95 8.05 3.0 7.8 2.75 7.0 3.05 6.9 M6.0 11.2 L6.1 11.35 6.05 11.7 Q6.05 12.3 6.55 12.5 L6.65 12.8 6.6 12.8 6.45 12.8 5.75 12.7 5.75 12.65 5.6 12.15 6.0 11.2 M2.9 8.9 L3.05 8.7 3.25 8.85 4.3 9.4 4.4 9.65 4.45 9.8 3.7 11.45 3.65 11.45 3.8 10.4 Q3.8 9.15 2.9 8.9 M2.0 10.9 L2.1 10.45 2.1 10.35 2.15 10.25 2.45 9.35 2.35 10.2 Q2.35 10.95 2.8 11.35 L3.3 11.65 3.25 11.8 3.2 11.75 2.0 10.9 M2.9 13.75 L3.35 12.4 3.5 12.4 3.4 13.05 3.45 13.5 3.7 13.7 2.9 13.75 M3.85 12.25 L3.9 12.15 4.7 12.45 4.95 12.55 5.1 12.85 5.2 13.15 5.1 13.45 4.65 13.55 4.4 13.05 3.85 12.25" fill="#4444ad" fill-rule="evenodd" stroke="none"/>
      <path d="M0.6 6.5 L1.15 6.35 1.0 6.8 1.15 7.45 0.95 7.45 0.95 7.5 0.6 7.25 Q0.3 7.05 0.6 6.5 M3.5 7.35 L3.8 7.75 3.95 8.0 4.0 8.0 4.55 8.9 4.5 8.85 Q4.3 8.85 4.3 8.95 L4.3 9.15 4.05 9.0 3.45 8.35 3.45 7.4 3.5 7.35 M4.7 9.95 L5.0 9.95 Q5.45 10.35 5.45 11.3 L5.35 12.0 5.25 11.95 5.15 12.0 5.0 12.2 Q4.3 12.05 4.3 11.05 4.3 10.25 4.7 9.95 M1.5 7.75 L1.75 7.9 2.15 8.55 2.25 9.4 2.1 10.1 2.1 10.05 1.9 10.05 Q1.65 9.6 1.55 8.85 L1.5 7.75 M2.0 11.25 Q2.6 11.5 2.6 12.75 L2.5 13.5 2.15 13.35 2.3 13.35 2.1 13.2 Q1.8 12.55 2.0 11.25" fill="#ffeed4" fill-opacity="0.92941177" fill-rule="evenodd" stroke="none"/>
      <path d="M1.9 6.05 L2.65 5.85 2.7 5.85 2.45 5.9 2.3 5.95 2.15 6.05 2.4 6.0 2.35 6.25 2.65 6.65 3.05 6.75 2.95 6.75 2.8 6.7 2.6 6.65 2.6 6.7 2.65 6.7 2.7 6.75 2.95 6.8 3.0 6.85 3.05 6.9 2.75 7.0 2.7 7.0 2.55 7.05 2.0 7.2 Q1.7 7.05 1.7 6.55 1.7 6.15 1.9 6.05 M5.35 9.95 L5.6 10.4 5.8 10.8 5.95 11.05 6.0 11.2 5.6 12.15 5.5 12.05 5.35 12.0 5.45 11.3 Q5.45 10.35 5.0 9.95 L5.0 9.8 5.25 9.9 5.35 9.95 M3.45 7.4 L3.45 8.35 4.05 9.0 4.3 9.15 4.3 9.4 3.25 8.85 3.05 8.7 3.05 8.4 3.0 8.1 3.45 7.4 M2.4 8.65 L2.65 8.9 2.5 9.25 2.45 9.35 2.15 10.25 2.1 10.1 2.25 9.4 2.15 8.55 1.75 7.9 2.3 8.3 2.4 8.65 M4.45 9.8 L4.7 9.95 Q4.3 10.25 4.3 11.05 4.3 12.05 5.0 12.2 L4.95 12.55 4.7 12.45 3.9 12.15 3.9 11.95 3.7 11.45 4.45 9.8 M2.0 10.9 L3.2 11.75 3.15 11.9 3.2 12.25 3.35 12.4 2.9 13.75 2.6 13.75 2.6 13.6 2.5 13.5 2.6 12.75 Q2.6 11.5 2.0 11.25 L2.0 11.1 2.0 10.9 M5.2 13.15 L5.4 13.25 Q5.75 13.25 5.75 12.7 L6.45 12.8 6.6 12.8 6.55 12.85 5.75 13.2 5.1 13.45 5.2 13.15" fill="#d4b567" fill-opacity="0.92941177" fill-rule="evenodd" stroke="none"/>
      <path d="M2.85 7.0 L2.85 6.9 2.9 6.85 2.9 6.8 3.55 6.6 3.95 6.4 4.35 6.1 4.4 6.1 4.35 6.1 4.35 6.05 4.45 6.0 4.5 5.95 4.55 5.95 4.6 5.95 4.75 6.0 4.75 6.05 5.85 6.95 6.2 7.65 6.3 7.85 6.35 8.45 6.45 8.55 6.5 8.6 6.65 8.7 6.7 8.7 6.7 8.75 6.7 8.7 6.75 8.65 6.7 8.55 6.6 8.5 6.65 8.4 6.7 8.3 6.9 8.2 7.05 8.15 7.05 8.1 7.1 8.1 7.1 8.05 7.15 8.05 7.2 8.0 7.25 7.9 7.35 7.8 7.5 7.8 7.55 7.95 7.7 8.3 7.3 8.75 7.15 8.8 7.1 8.85 6.8 9.0 6.8 9.05 6.7 9.0 6.75 9.3 Q6.7 9.5 6.8 9.7 L6.85 9.7 6.9 9.75 7.05 10.0 7.6 10.65 7.95 10.95 8.05 11.0 8.15 11.05 8.2 11.2 Q6.95 10.9 6.25 9.8 L6.2 9.65 6.05 9.35 6.05 9.3 6.05 9.1 6.05 9.0 6.0 8.95 6.0 8.9 5.95 8.85 5.95 8.5 5.95 8.35 5.85 8.0 5.65 7.6 5.6 7.5 5.5 7.35 5.35 7.2 5.35 7.15 4.9 6.85 4.8 6.75 4.05 7.15 3.85 7.2 3.75 7.25 Q5.45 9.35 6.0 10.5 L6.8 12.2 Q6.3 11.95 5.9 11.05 L5.2 9.7 4.15 8.45 3.45 7.4 3.4 7.4 3.3 7.35 3.25 7.35 3.25 7.25 3.25 7.2 3.2 7.2 3.15 7.15 2.9 7.0 2.85 7.0 M1.8 12.45 L1.7 11.65 1.75 10.5 2.0 10.45 2.05 10.6 2.0 11.4 1.8 12.45 M2.45 13.65 L3.05 13.7 5.9 13.2 5.0 13.55 2.8 14.0 2.4 13.75 2.5 13.7 2.45 13.65" fill="#483d3f" fill-opacity="0.49803922" fill-rule="evenodd" stroke="none"/>
      <path d="M3.25 7.25 L2.85 7.45 2.8 7.45 2.15 7.7 2.05 7.7 2.05 7.75 2.0 7.75 1.9 7.8 1.8 7.75 1.75 7.8 1.65 7.8 1.6 7.85 1.5 7.95 1.5 8.0 1.5 8.3 1.5 8.35 1.5 8.55 1.5 8.75 1.5 8.95 1.5 9.0 1.7 9.8 1.75 10.0 1.8 10.0 1.85 10.05 1.85 10.1 1.7 10.1 1.3 10.1 1.25 9.8 1.2 9.5 1.15 9.2 1.15 9.1 1.1 9.05 1.1 8.65 1.1 8.3 1.1 8.2 1.1 8.1 1.2 7.45 2.05 7.25 Q2.45 7.05 2.85 7.0 L2.9 7.0 3.15 7.15 3.2 7.2 3.25 7.2 3.25 7.25 M2.0 11.4 L1.95 12.0 1.95 12.35 Q1.9 13.1 2.45 13.65 L2.5 13.7 2.4 13.75 2.0 13.55 1.85 13.25 1.8 12.9 1.8 12.8 1.8 12.6 1.8 12.45 2.0 11.4 M8.4 11.85 L8.4 12.0 8.55 12.35 Q7.9 12.9 7.0 13.05 L6.95 13.1 6.9 13.1 6.8 13.15 6.8 13.25 6.75 13.6 6.8 13.65 6.8 13.75 6.85 13.8 6.85 13.85 6.9 13.9 6.85 14.0 6.7 13.7 6.55 13.25 6.5 12.95 6.5 12.9 6.55 12.85 6.55 12.8 6.6 12.8 6.6 12.7 6.7 12.8 6.7 12.75 Q7.55 12.55 8.2 12.0 L8.25 11.95 8.3 11.9 8.4 11.85" fill="#483d3f" fill-opacity="0.69411767" fill-rule="evenodd" stroke="none"/>
    </g>
    <linearGradient gradientTransform="matrix(0.0, 0.0, 0.0, 0.0, 0.05, 0.45)" gradientUnits="userSpaceOnUse" id="gradient0" spreadMethod="reflect" x1="-819.2" x2="819.2">
      <stop offset="0.0" stop-color="#8f8fa1"/>
      <stop offset="1.0" stop-color="#d4d4d4"/>
    </linearGradient>
    <linearGradient gradientTransform="matrix(0.0012, -7.0E-4, 0.0011, 0.0018, 7.8, 9.35)" gradientUnits="userSpaceOnUse" id="gradient1" spreadMethod="reflect" x1="-819.2" x2="819.2">
      <stop offset="0.25882352941176473" stop-color="#ded6d7"/>
      <stop offset="0.6549019607843137" stop-color="#836675"/>
      <stop offset="1.0" stop-color="#e0cbd2"/>
    </linearGradient>
    <linearGradient gradientTransform="matrix(-0.0012, 0.0014, -0.0014, -0.0012, 6.25, 6.35)" gradientUnits="userSpaceOnUse" id="gradient2" spreadMethod="reflect" x1="-819.2" x2="819.2">
      <stop offset="0.3137254901960784" stop-color="#f3eeef"/>
      <stop offset="0.6549019607843137" stop-color="#836675"/>
      <stop offset="1.0" stop-color="#e0cbd2"/>
    </linearGradient>
    <linearGradient gradientTransform="matrix(-0.0012, 0.0014, -0.0014, -0.0012, 6.25, 6.35)" gradientUnits="userSpaceOnUse" id="gradient3" spreadMethod="reflect" x1="-819.2" x2="819.2">
      <stop offset="0.2196078431372549" stop-color="#f3eeef"/>
      <stop offset="0.9294117647058824" stop-color="#a69399"/>
    </linearGradient>
    <linearGradient gradientTransform="matrix(7.0E-4, 0.0, 0.0, 0.002, 2.0, 12.1)" gradientUnits="userSpaceOnUse" id="gradient4" spreadMethod="reflect" x1="-819.2" x2="819.2">
      <stop offset="0.25882352941176473" stop-color="#ded6d7"/>
      <stop offset="0.8980392156862745" stop-color="#836675"/>
      <stop offset="1.0" stop-color="#e0cbd2"/>
    </linearGradient>
    <linearGradient gradientTransform="matrix(4.0E-4, 0.0, 0.0, 0.0015, 0.85, 8.85)" gradientUnits="userSpaceOnUse" id="gradient5" spreadMethod="reflect" x1="-819.2" x2="819.2">
      <stop offset="0.25882352941176473" stop-color="#ded6d7"/>
      <stop offset="0.9254901960784314" stop-color="#836675"/>
      <stop offset="1.0" stop-color="#e0cbd2"/>
    </linearGradient>
    <linearGradient gradientTransform="matrix(5.0E-4, 0.0, 0.0, 8.0E-4, 0.55, 7.1)" gradientUnits="userSpaceOnUse" id="gradient6" spreadMethod="reflect" x1="-819.2" x2="819.2">
      <stop offset="0.2196078431372549" stop-color="#f3eeef"/>
      <stop offset="0.9294117647058824" stop-color="#a69399"/>
    </linearGradient>
    <linearGradient gradientTransform="matrix(3.0E-4, 0.0, 0.0, 0.0013, 1.2, 8.95)" gradientUnits="userSpaceOnUse" id="gradient7" spreadMethod="reflect" x1="-819.2" x2="819.2">
      <stop offset="0.25882352941176473" stop-color="#ded6d7"/>
      <stop offset="0.9254901960784314" stop-color="#836675"/>
      <stop offset="1.0" stop-color="#e0cbd2"/>
    </linearGradient>
    <linearGradient gradientTransform="matrix(0.0014, -5.0E-4, 5.0E-4, 0.0013, 7.75, 12.95)" gradientUnits="userSpaceOnUse" id="gradient8" spreadMethod="reflect" x1="-819.2" x2="819.2">
      <stop offset="0.25882352941176473" stop-color="#ded6d7"/>
      <stop offset="0.9254901960784314" stop-color="#836675"/>
      <stop offset="1.0" stop-color="#e0cbd2"/>
    </linearGradient>
    <linearGradient gradientTransform="matrix(-0.0016, 5.0E-4, -3.0E-4, -0.0011, 3.55, 14.2)" gradientUnits="userSpaceOnUse" id="gradient9" spreadMethod="reflect" x1="-819.2" x2="819.2">
      <stop offset="0.25882352941176473" stop-color="#ded6d7"/>
      <stop offset="0.9254901960784314" stop-color="#836675"/>
      <stop offset="1.0" stop-color="#e0cbd2"/>
    </linearGradient>
  </defs>
</svg>
