<?xml version="1.0" encoding="UTF-8" standalone="no"?>
<svg xmlns:ffdec="https://www.free-decompiler.com/flash" xmlns:xlink="http://www.w3.org/1999/xlink" ffdec:objectType="frame" height="5.55px" width="5.45px" xmlns="http://www.w3.org/2000/svg">
  <g transform="matrix(1.0, 0.0, 0.0, 1.0, 0.75, -1.85)">
    <use ffdec:characterId="10" height="5.05" id="Color" transform="matrix(1.1587, 0.0, 0.0, 1.0617, -0.75, 1.8907)" width="4.7" xlink:href="#sprite0"/>
    <use ffdec:characterId="11" height="5.55" transform="matrix(1.0, 0.0, 0.0, 1.0, -0.6, 1.85)" width="4.55" xlink:href="#shape1"/>
  </g>
  <defs>
    <g id="sprite0" transform="matrix(1.0, 0.0, 0.0, 1.0, 0.0, 0.15)">
      <use ffdec:characterId="9" height="5.05" transform="matrix(1.0, 0.0, 0.0, 1.0, 0.0, -0.15)" width="4.7" xlink:href="#shape0"/>
    </g>
    <g id="shape0" transform="matrix(1.0, 0.0, 0.0, 1.0, 0.0, 0.15)">
      <path d="M4.7 3.0 Q3.6 5.3 1.3 4.85 L0.0 0.5 1.2 0.0 Q2.5 -0.35 3.05 0.25 L4.7 3.0" fill="#65933b" fill-rule="evenodd" stroke="none"/>
    </g>
    <g id="shape1" transform="matrix(1.0, 0.0, 0.0, 1.0, 0.6, -1.85)">
      <path d="M2.7 2.25 L3.15 2.85 2.6 3.05 2.5 3.1 Q1.7 3.85 1.7 5.4 2.8 6.2 3.95 6.2 2.75 7.7 0.8 7.3 L-0.6 2.55 Q0.0 2.2 0.7 2.0 2.1 1.6 2.7 2.25" fill="#000000" fill-opacity="0.29803923" fill-rule="evenodd" stroke="none"/>
    </g>
  </defs>
</svg>
