<svg xmlns="http://www.w3.org/2000/svg" xmlns:ffdec="https://www.free-decompiler.com/flash" xmlns:xlink="http://www.w3.org/1999/xlink" ffdec:objectType="frame" width="11.3" height="12.05"><use ffdec:characterId="5" xlink:href="#a" width="11.3" height="12.05"/><defs><g id="a" fill-rule="evenodd"><path fill="#232300" d="m1.9 3.45-.3-.4-.05-.1-.1-.2-.4-.6-.05-.1-.55-.85L.1.75V.6L.05.55 0 .7.05.55v-.3L1 0l.15.1 1.4 1.25.25.3.25.4.3.7.35.6.4.4v.65q.05.4.75.95l.6.45.95.95.05.1.1.15.35.45.1.35.25.25.65.55 1.75 3q-2.5 1.35-4.2-1.15l-.2-.55v-.1l-1-2.1-1.2-2.35-.35-.6zm2.8.2h.15l.05.4-.25.15q-.2 0-.25-.15l.2-.35zm-.4.9.15-.05.1-.05.55.05h.05l.35.35.35.3L5.3 5l-.4-.05-.6-.35z"/><path fill="#330" d="m1.9 3.45.8 1.3.35.6 1.2 2.35 1 2.1v.1l-.1-.2-2.2-4.35-.7-1.25zm7.75 8.15-1.75-3-.65-.55L7 7.8l-.1-.35L6.55 7l-.1-.15-.05-.1-.95-.95-.6-.45q-.7-.55-.75-.95v-.65l-.4-.4-.35-.6-.3-.7-.25-.4-.25-.3L1.15.1q1.4.2 3.8 2.4l2.8 2.85 1.55 1.8.3.45 1.7 2.55zM4.7 3.65l-.1.05-.2.35q.05.15.25.15l.25-.15-.05-.4zm-.4.9v.05l.6.35.4.05.55.15-.35-.3-.35-.35H5.1l-.55-.05-.1.05z"/></g></defs></svg>