<svg xmlns="http://www.w3.org/2000/svg" xmlns:ffdec="https://www.free-decompiler.com/flash" xmlns:xlink="http://www.w3.org/1999/xlink" ffdec:objectType="frame" width="7.1" height="8.65"><use ffdec:characterId="5" xlink:href="#a" width="7.1" height="8.65"/><defs><g id="a" fill-rule="evenodd"><path fill="#b4abad" d="m6.95 7.6.15.2-2.4.85-.1-.2z"/><path fill="#fff" d="m4.6 8.45-.2-.5-.05-.1 2.35-.8.25.55z"/><path fill="#004f2e" d="M4.8 2.2v.95l-2.05.2q.4-.05 2.05-1.15m2.25 3.65-.1.2q-.4.45-2.75.7.8-.25 2.5-1.7.35-.3.35.8"/><path fill="#0e8050" d="m4.85 3.15 2 1.6.15.35.05.75q0-1.1-.35-.8Q5 6.5 4.2 6.75q2.35-.25 2.75-.7l-.25 1-2.35.8.05.1q-.8.3-.85.35L0 0q.55 0 1.3.45l.95.55 1.35.45L4.75 2zM4.8 2.2Q3.15 3.3 2.75 3.35l2.05-.2z"/></g></defs></svg>