<?xml version="1.0" encoding="UTF-8" standalone="no"?>
<svg xmlns:ffdec="https://www.free-decompiler.com/flash" xmlns:xlink="http://www.w3.org/1999/xlink" ffdec:objectType="frame" height="9.5px" width="8.5px" xmlns="http://www.w3.org/2000/svg">
  <g transform="matrix(1.0, 0.0, 0.0, 1.0, 0.65, -2.15)">
    <use ffdec:characterId="3" height="9.5" transform="matrix(1.0, 0.0, 0.0, 1.0, -0.65, 2.15)" width="8.5" xlink:href="#shape0"/>
  </g>
  <defs>
    <g id="shape0" transform="matrix(1.0, 0.0, 0.0, 1.0, 0.65, -2.15)">
      <path d="M0.6 8.8 L-0.65 4.3 Q-0.55 3.25 0.05 2.65 0.35 2.3 1.2 2.2 L2.65 2.3 Q4.0 3.65 6.45 7.55 3.8 8.65 0.8 8.8 L0.6 8.8 M7.25 8.95 L7.85 9.95 Q4.7 11.45 1.35 11.65 L1.0 10.35 1.05 10.5 1.35 10.5 2.7 10.3 6.5 9.25 7.25 8.95" fill="#231818" fill-rule="evenodd" stroke="none"/>
      <path d="M6.45 7.55 L6.6 7.85 6.75 8.1 6.85 8.2 6.95 8.4 7.2 8.85 7.25 8.95 6.5 9.25 2.7 10.3 1.35 10.5 1.05 10.5 1.0 10.35 0.8 9.55 0.7 9.15 0.6 8.9 0.6 8.8 0.8 8.8 Q3.8 8.65 6.45 7.55" fill="#999999" fill-rule="evenodd" stroke="none"/>
    </g>
  </defs>
</svg>
