<?xml version="1.0" encoding="UTF-8" standalone="no"?>
<svg xmlns:ffdec="https://www.free-decompiler.com/flash" xmlns:xlink="http://www.w3.org/1999/xlink" ffdec:objectType="frame" height="7.65px" width="6.55px" xmlns="http://www.w3.org/2000/svg">
  <g transform="matrix(1.0, 0.0, 0.0, 1.0, -3.6, -6.2)">
    <use ffdec:characterId="5" height="7.65" transform="matrix(1.0, 0.0, 0.0, 1.0, 3.6, 6.2)" width="6.55" xlink:href="#shape0"/>
  </g>
  <defs>
    <g id="shape0" transform="matrix(1.0, 0.0, 0.0, 1.0, -3.6, -6.2)">
      <path d="M10.1 8.3 Q10.05 8.9 9.65 8.9 L6.7 6.75 6.7 6.7 6.75 6.7 Q7.85 6.7 9.1 7.5 L10.1 8.3 M5.6 8.2 Q5.7 7.6 6.2 7.6 6.85 7.6 8.5 9.8 8.5 10.5 7.6 10.5 6.8 10.5 6.35 10.05 L5.6 8.9 5.6 8.2" fill="#000000" fill-opacity="0.49803922" fill-rule="evenodd" stroke="none"/>
      <path d="M10.1 8.3 L10.05 9.4 Q9.9 10.3 9.35 10.2 8.8 10.05 8.55 10.4 8.25 10.75 7.25 11.1 L4.9 11.6 4.4 9.45 3.9 8.8 3.9 8.3 4.15 8.25 Q4.95 7.95 5.75 7.3 L5.9 7.2 Q6.3 6.85 6.6 6.75 L6.7 6.7 6.7 6.75 9.65 8.9 Q10.05 8.9 10.1 8.3 M5.6 8.2 L5.6 8.9 6.35 10.05 Q6.8 10.5 7.6 10.5 8.5 10.5 8.5 9.8 6.85 7.6 6.2 7.6 5.7 7.6 5.6 8.2" fill="#000000" fill-opacity="0.8" fill-rule="evenodd" stroke="none"/>
      <path d="M5.65 7.75 L5.1 6.85 Q5.35 6.65 5.55 6.55 L5.95 7.0 6.25 7.4 5.65 7.75" fill="#3f0f1e" fill-rule="evenodd" stroke="none"/>
      <path d="M5.55 6.55 L6.05 6.2 6.8 7.0 6.25 7.4 5.95 7.0 5.55 6.55" fill="#af7789" fill-rule="evenodd" stroke="none"/>
      <path d="M5.65 7.75 L5.55 7.8 Q4.4 8.5 3.85 8.5 L3.6 7.8 Q4.45 7.25 5.1 6.85 L5.65 7.75" fill="#621830" fill-rule="evenodd" stroke="none"/>
      <path d="M5.45 12.15 L8.7 11.0 9.65 12.45 9.35 12.55 9.3 12.8 8.75 13.0 8.85 12.7 8.1 12.9 8.35 13.1 7.75 13.35 7.65 13.25 7.65 13.35 7.1 13.55 7.1 13.15 6.35 13.35 6.7 13.65 6.1 13.85 5.95 13.45 5.8 13.05 5.8 13.0 5.5 12.2 5.45 12.15" fill="url(#gradient0)" fill-rule="evenodd" stroke="none"/>
      <path d="M6.9 11.85 L6.7 11.9 Q5.8 11.05 5.9 10.45 L6.1 10.35 Q6.05 10.7 6.45 11.2 L6.5 11.3 6.9 11.85 M6.85 10.1 L7.0 10.0 7.9 11.25 7.4 11.45 7.1 11.1 6.55 10.15 6.85 10.1" fill="#b10450" fill-rule="evenodd" stroke="none"/>
      <path d="M8.1 11.35 L8.05 11.4 7.6 11.65 7.45 11.6 6.9 11.25 6.45 10.15 6.4 10.1 7.3 9.75 7.35 9.85 Q7.9 9.55 8.05 9.6 L8.4 9.75 8.1 9.95 8.0 10.05 7.8 10.5 Q8.05 10.75 8.7 10.25 L8.6 10.6 8.0 11.25 8.1 11.35 M6.7 11.9 L6.3 11.85 6.15 12.0 5.85 12.35 Q5.05 11.6 5.15 11.05 L5.9 10.45 Q5.8 11.05 6.7 11.9 M6.85 10.1 L6.55 10.15 7.1 11.1 7.4 11.45 7.9 11.25 7.0 10.0 6.85 10.1" fill="#720635" fill-rule="evenodd" stroke="none"/>
      <path d="M7.3 9.75 L7.25 9.75 7.2 9.3 7.4 9.25 7.65 9.15 8.15 9.1 8.2 9.15 8.45 9.15 8.7 9.4 8.85 9.55 8.95 9.75 Q9.25 10.15 9.15 10.6 L9.05 10.65 8.1 11.35 8.0 11.25 8.6 10.6 8.7 10.25 8.9 10.05 9.05 9.95 8.85 9.65 8.6 9.85 8.55 9.75 8.4 9.75 8.05 9.6 Q7.9 9.55 7.35 9.85 L7.3 9.75" fill="#d7cbd4" fill-rule="evenodd" stroke="none"/>
      <path d="M7.45 11.6 L7.1 11.65 6.9 11.85 6.5 11.3 6.45 11.2 Q6.05 10.7 6.1 10.35 L6.1 10.3 6.45 10.15 6.9 11.25 7.45 11.6 M8.55 9.75 L8.6 9.85 8.85 9.65 9.05 9.95 8.9 10.05 8.7 10.25 Q8.05 10.75 7.8 10.5 L8.0 10.05 8.4 9.85 8.55 9.75" fill="#9c9c9c" fill-rule="evenodd" stroke="none"/>
    </g>
    <linearGradient gradientTransform="matrix(0.0048, -0.0023, 0.0034, 0.0071, 7.7, 18.0)" gradientUnits="userSpaceOnUse" id="gradient0" spreadMethod="pad" x1="-819.2" x2="819.2">
      <stop offset="0.0" stop-color="#4f296d"/>
      <stop offset="0.6784313725490196" stop-color="#aa96e9"/>
      <stop offset="1.0" stop-color="#4f296d"/>
    </linearGradient>
  </defs>
</svg>
