<?xml version="1.0" encoding="UTF-8" standalone="no"?>
<svg xmlns:ffdec="https://www.free-decompiler.com/flash" xmlns:xlink="http://www.w3.org/1999/xlink" ffdec:objectType="frame" height="8.65px" width="7.1px" xmlns="http://www.w3.org/2000/svg">
  <g transform="matrix(1.0, 0.0, 0.0, 1.0, -0.4, -2.4)">
    <use ffdec:characterId="5" height="8.65" transform="matrix(1.0, 0.0, 0.0, 1.0, 0.4, 2.4)" width="7.1" xlink:href="#shape0"/>
  </g>
  <defs>
    <g id="shape0" transform="matrix(1.0, 0.0, 0.0, 1.0, -0.4, -2.4)">
      <path d="M7.35 10.0 L7.5 10.2 5.1 11.05 5.0 10.85 7.35 10.0" fill="#b4abad" fill-rule="evenodd" stroke="none"/>
      <path d="M5.0 10.85 L4.8 10.35 4.75 10.25 7.1 9.45 7.35 10.0 5.0 10.85" fill="#ffffff" fill-rule="evenodd" stroke="none"/>
      <path d="M5.2 4.6 L5.2 5.55 3.15 5.75 Q3.55 5.7 5.2 4.6 M7.45 8.25 L7.35 8.45 Q6.95 8.9 4.6 9.15 5.4 8.9 7.1 7.45 7.45 7.15 7.45 8.25" fill="#bd2929" fill-rule="evenodd" stroke="none"/>
      <path d="M5.25 5.55 L7.25 7.15 7.4 7.5 7.45 8.25 Q7.45 7.15 7.1 7.45 5.4 8.9 4.6 9.15 6.95 8.9 7.35 8.45 L7.1 9.45 4.75 10.25 4.8 10.35 Q4.0 10.65 3.95 10.7 L0.4 2.4 Q0.95 2.4 1.7 2.85 L2.65 3.4 4.0 3.85 5.15 4.4 5.25 5.55 M5.2 4.6 Q3.55 5.7 3.15 5.75 L5.2 5.55 5.2 4.6" fill="#d26666" fill-rule="evenodd" stroke="none"/>
    </g>
  </defs>
</svg>
