<svg xmlns="http://www.w3.org/2000/svg" xmlns:ffdec="https://www.free-decompiler.com/flash" xmlns:xlink="http://www.w3.org/1999/xlink" ffdec:objectType="frame" width="22.8" height="41.55"><use ffdec:characterId="1" xlink:href="#a" width="22.8" height="41.55"/><defs><linearGradient id="b" x1="-819.2" x2="819.2" gradientTransform="matrix(.0017 0 0 .004 16.05 38.6)" gradientUnits="userSpaceOnUse" spreadMethod="pad"><stop offset="0" stop-color="#ff2020"/><stop offset="1" stop-color="#980b0b"/></linearGradient><g id="a"><path fill="#069" fill-rule="evenodd" d="m11.4 8.35 1.55-1.75Q13.8 5.35 14 3.5q3.95 2.45 6.15 10.85 1.15 4.3 1.65 8.75-1.5 1.7-10.25 1.8Q2.7 25 .8 23.2q.55-4.35 1.85-9Q5.25 5 8.8 3.7q.45 3.35 2.55 4.7z"/><path fill="#999" fill-rule="evenodd" d="m11.55 8.15-.1.15-1.6 2.15Q6.65 6.95 6.75 5l.8-.65 1.3-.85q.4 1.8 1.35 3z"/><path fill="#ccc" fill-rule="evenodd" d="M11.55 8.15Q13.3 5.8 13.9 3.4l2.4 1.65-1.05 2.45q-1.45 2.8-3.5 4.85-2.55 2.55-6.6 4.55L1.6 18.4l.65-3.2q5.65-2.55 7.6-4.75l1.6-2.15z"/><path fill="#099" fill-rule="evenodd" d="M11.45 16.05q2.55-3.1 4.3-6.85L17 6.1l1.1 1.6q-2.7 6.4-5.15 9.4l-.05.05-.3.35-.05-.1zm1.1 4.05-.05.65q0 .6-1.05.5l-1.25-1.4 1.2-.95z"/><path fill="#00c2c2" fill-rule="evenodd" d="m11.45 16.05 1.1 1.35.05.1-.85 1-.05.05-.1.1-.2.25-1.15-1.3-.1-.1Q7.55 14.45 4.9 7.25l.85-1.3L7.1 9.2q1.8 3.9 4.35 6.85"/><path fill="#066" fill-rule="evenodd" d="m12.6 17.5.3-.35.05-.05q2.45-3 5.15-9.4l.6 1.8q-2.25 5.95-4.95 9.2l-1.2 1.4-1.15-1.2.2-.25.1-.1.05-.05z"/><path fill="#228a8a" fill-rule="evenodd" d="M10.2 19.85q-1.5.4-1.05-1.15l1-1 .1-.1 1.15 1.3z"/><path fill="#008585" fill-rule="evenodd" d="M9.15 18.7Q6.4 15.55 4 8.95l.9-1.7q2.65 7.2 5.25 10.25l.1.1-.1.1z"/><path fill="#960" fill-rule="evenodd" d="m14.85 4.6 1.1-.65q2.35-1.25 2.8-.55l-.2 1.75Q18 7.5 16.3 11.85l-.05-.15q-.45-4.15-1.4-7.1m-7 .95q-.8 2.9-1.25 6.6l-.1.95L5 9.35Q3.25 4.3 4.55 3.9q1.65-.1 3.3 1.65"/><path fill="#f90" fill-rule="evenodd" d="M16.3 11.85q1.7-4.35 2.25-6.7l.2-1.75q-.45-.7-2.8.55l-1.1.65-.35-1.05 1.85-1.05.75-.2q2.45-.45 3.15.3.45-.2.1 1.4-.55 3.1-3.85 11.45zm-9.9-9.2 2 1.15-.55 1.75Q6.2 3.8 4.55 3.9q-1.3.4.45 5.45l1.5 3.75-.25 3.85Q3.4 8.25 2.75 5q-.3-1.7 0-1.6.9-1.45 3.55-.8z"/><path fill="#ccc" fill-rule="evenodd" d="M16.5 15.45Q19.8 7.1 20.35 4q.35-1.6-.1-1.4-.7-.75-3.15-.3l-.75.2q3.85-4.35 3.4-.85Q23.45 0 21.9 2.9q2 .95-.55 2.25 1.8 1.2-.2 2.5.85 1.25.15 1.95-.7.65-1.95 1.1 2.2 1.5 0 2.7 1.8 1.45-1.65 2.05 1 1.35.7 2.45-.35 1.05-1.95 2.75zm-10.25 1.5-.05.65q-.05 1.6.05 3.1-4.05-2.15-2.05-5.2v-.05q-3.25-.9-.15-2.6-3.85-.25-1.4-2.5l.1-.1q-.1-.3-1.75-.7-1.65-.45.9-1.7-2.55-1.9-.55-2.6-2.65-2.65 0-2.15Q-.05.5 3.3 1.95q-.55-4.2 3.1.7l-.1-.05q-2.65-.65-3.55.8-.3-.1 0 1.6.65 3.25 3.5 11.95"/><path fill="#fff" fill-rule="evenodd" d="m18.5 11.75.35-.3.45.05.6.15.15.25-.2.25-.55.2q-.35 0-.5-.2zm1.75-2.85-.2-.35.2-.2h.4l.45.15.1.25-.15.2-.45.05zM19.15.25l.35.05.15.35-.25.55-.4.3h-.4l-.15-.4.2-.45q.2-.25.5-.4m3.2 3.85-.6.45-.55.1q-.3-.05-.5-.25l.1-.45q.15-.25.5-.35l.8-.2.3.3zm-.4-2.5v.35l-.5.4-.45.05-.4-.25.1-.35.4-.3.65-.1zm-.1 4.45-.05.25-.35.25-.3.05-.3-.15V6.2q.15-.15.35-.2l.5-.1zM4.55.75l.15.45-.15.4-.4-.05-.4-.3-.2-.6.2-.3L4.1.3zm-2.9 1 .65.15.4.35.05.35q-.1.2-.4.2l-.5-.1-.45-.4v-.35q.05-.2.25-.2m.5 2.1.05.45-.55.2q-.25.15-.55-.15l-.55-.5v-.4l.3-.25.8.25zm-.35 4.7.2.25-.25.3q-.1.15-.35.1l-.45-.1-.15-.2.1-.25.5-.1zM2.15 7l-.55-.15-.55-.5v-.4l.3-.25.8.25q.35.15.5.4l.05.45zM2 11.95l-.05-.3q.15-.3.45-.45l.4-.3.4.1-.05.5-.3.4-.55.15zm2.1 1.5-.05.5-.3.4-.55.15-.3-.1-.05-.3q.15-.3.45-.45l.4-.3zm15.1.65-.1.3-.3.05-.5-.2q-.3-.15-.3-.4v-.5l.4-.1.4.35z"/><path fill="#b4b4b4" fill-rule="evenodd" d="m21.45 20.8.3-.1-.1 1.8-.15.5q-1.05.85-2.65 1.3l-3.85.6-2.7.3q-4.9.25-9.8-.95l-2.15-1.2.1-1.35.25.2 1.7.55 4.15.8 4.4.15 1.05-.05 4.8-.85 3.35-1.1z"/><path fill="#ececec" fill-rule="evenodd" d="M1.35 19.05v-1.4q10 2.5 20 0v2.3l-.25.1-3.1.75-4 .35-2.35-.1-1.9-.15-3.7-.65-3.2-.75z"/><path fill="#959595" fill-rule="evenodd" d="M21.5 23q-2.2 6.4-10.25 4.25-5.7-1.6-8.75-3 4.9 1.2 9.8.95 1.95 1.45 5.15.9 1.35-.55 1.4-1.8 1.6-.45 2.65-1.3"/><path fill="#069" fill-rule="evenodd" d="m.8 20.9.2-1.95.35.1 1.5.45q-.55.85-2.05 1.4m20.55-.95.3-.1-.2.95-1.3.6.95-1.35zm-14.8 3.3-4.15-.8q2.65-.7 3.65-2.2l3.7.65q-.15 1.15-3.2 2.35"/><path fill="#0cf" fill-rule="evenodd" d="m.7 21.9.1-1q1.5-.55 2.05-1.4l3.2.75q-1 1.5-3.65 2.2zm19.45-.5-3.35 1.1q1.25-.85 1.2-1.7l3.1-.75zM12 23.35l-1.05.05-4.4-.15q3.05-1.2 3.2-2.35l1.9.15 2.35.1q-.3 1.1-2 2.2"/><path fill="#e34545" fill-rule="evenodd" d="M17.15 25.75q.55 0 .95.4t.4.95-.4.95-.95.4-.95-.4-.4-.95.4-.95.95-.4"/><path fill="#2ebb79" fill-rule="evenodd" d="M19.15 29.5q-.6-.55-1.4-.65-1-.05-1.75.55-.75.65-.85 1.65-.05.95.55 1.75.65.8 1.65.85l1.45-.3-1.45.3q-1-.05-1.65-.85-.6-.8-.55-1.75.1-1 .85-1.65.75-.6 1.75-.55.8.1 1.4.65m1-.1q.5.5-1.4 1.9l-.25-.4q-.4-.35-.9-.35l-.95.2q-.4.45-.4 1-.05.5.25.9.4.45.95.45.55.05.9-.35l.25-.25q1.85 1.45 1.3 1.95-1.1 1.05-2.6.95t-2.5-1.2q-1-1.05-.95-2.6.15-1.45 1.2-2.5 1.1-.95 2.6-.9 1.5.15 2.5 1.2"/><path fill="none" stroke="#61dea4" stroke-linecap="round" stroke-linejoin="round" stroke-width=".5" d="m18.8 33.35-1.45.3q-1-.05-1.65-.85-.6-.8-.55-1.75.1-1 .85-1.65.75-.6 1.75-.55.8.1 1.4.65"/><path fill="url(#b)" fill-rule="evenodd" d="m15.95 35.35.65.8.7 2.6q.35 1.25-.1 2.75l-.2-.1.2-1.2q0-.7-.4-1.65l-.15 2.95-.3.3q.1-1.4-.25-2.65l-.05 2.6q-.15.25-.65-.2-.25-.45-.25-2.75L15 40.15l-.05 1.3-.25-.05q-.15-.3.05-2.45.2-2.2.45-2.6.3-.95.75-1" transform="translate(1.35 -.3)"/><path fill="none" stroke="#af3434" stroke-linecap="round" stroke-linejoin="round" d="m17.95 33.35-.1 1.65m-1.1-1.75-.15 1.65m1.15-6.4.1 1.7m-1.3-1.6.1 1.7"/><path fill-opacity=".298" fill-rule="evenodd" d="m14.65 3.75 1.3 2.15q1.05 1.45 1.3 2.5l1.35 6.95 1.5 2.55-3.55.65-1.15.15q1.05-6.05.65-7.95l-1.9-7.05zm-1.9 2.55q.75-1.05 1.1-2.6 0 1.25-1.25 3.05-1.25 1.85-1.25 1.35l-1.9-2.8-.7-1.7q2.4 4.8 4 2.7m-7.2 1.65q.55-1.6 1.5-2.65l1.3-1.35q-.5 1.45-.7 2.65-.25 1.2-.6 4.95-.35 3.7-.2 3.9L6.7 16.8q-.3 1 .5 1.65l.5.15-4.05-.3.75 1.2q1.85 2.7 7.15 3.85-3.55.45-6.25-.1l-4.1-1.1.4-2.75q.05-.1.15-.05h.3l.2-1.4q.4 0 2.7-5.75l.15-1.65q0-1.35.45-2.6m11.8 19.5 1-.25-.3.55-.7.35-.9-.1q-.35-.15-.35-.45l-.05-.1zm.85-5.35q2.5-.8 2.85-1.35l-.15 2q-.75.75-3.75 1.6l-4.75.95 2.75.65.9.15-.9.2-6.1-.25q-5.5-.9-8.1-3.85 5.35 2.55 11.1 2.05 5.7-.55 7.75-1.85 1.85-1.15-2.25-.1zm-.8 7.3q1.1-.15 1.9.95l-.5.6q-.5-.8-1.55-.6t-1.15 1q-.15.8.25 1.35-.95-.95-.5-2.05.4-1.1 1.55-1.25m-2.55 3.55q1.4 1.75 3.85 1.2l1.1-.25q.25 0-.3.65-.8 1-2.6.75-1.3-.2-2.05-1.25-.8-1.15-.75-2.9.05.9.75 1.8"/><path fill="#fff" fill-opacity=".298" fill-rule="evenodd" d="m17.2 26.95-.4.15-.4-.15q-.15-.15-.15-.4t.15-.4.4-.15l.4.15.15.4z"/></g></defs></svg>