<svg xmlns="http://www.w3.org/2000/svg" xmlns:ffdec="https://www.free-decompiler.com/flash" xmlns:xlink="http://www.w3.org/1999/xlink" ffdec:objectType="frame" width="35.6" height="44.25"><use ffdec:characterId="3" xlink:href="#a" width="35.6" height="44.25"/><defs><linearGradient id="b" x1="-819.2" x2="819.2" gradientTransform="matrix(0 .0251 -.0086 0 20.85 22.8)" gradientUnits="userSpaceOnUse" spreadMethod="pad"><stop offset="0" stop-color="#310000"/><stop offset=".988" stop-color="#5f341b"/></linearGradient><linearGradient id="c" x1="-819.2" x2="819.2" gradientTransform="matrix(0 .0061 -.0054 0 10.1 9)" gradientUnits="userSpaceOnUse" spreadMethod="pad"><stop offset="0" stop-color="#5e99c6"/><stop offset="1" stop-color="#bcb0fd"/></linearGradient><linearGradient id="d" x1="-819.2" x2="819.2" gradientTransform="matrix(0 .0252 -.0085 0 -.75 22.9)" gradientUnits="userSpaceOnUse" spreadMethod="pad"><stop offset="0" stop-color="#310000"/><stop offset=".988" stop-color="#5f341b"/></linearGradient><linearGradient id="e" x1="-819.2" x2="819.2" gradientTransform="matrix(0 .027 -.014 0 10.3 22)" gradientUnits="userSpaceOnUse" spreadMethod="pad"><stop offset="0" stop-color="#fc3"/><stop offset=".412" stop-color="#c07001"/><stop offset=".439" stop-color="#fc3"/><stop offset=".718" stop-color="#c07001"/><stop offset=".796" stop-color="#fc3"/></linearGradient><g id="a" fill-rule="evenodd"><path fill="#fc3" d="m11.25 2.4.35-.4q2.85-1.95 6.1-2h.1q3.45.1 6.15 2l.35.35-.75 1.05q-1 1.5-1.5 3.05v.1q-.45 1.3-.5 2.8l-.05.4.05.55.45 2.55q.35 2.1.6 2.65-.35.55-.15 1.15l.3.65.15.2.4 1.65.85 3.75q2.25 10.6 5.25 20.6l-1.35.75-2.2-8.45-.3-1.35q-3.25-12.2-4.5-20.2l-.1-.5-.1-.65-.1-.95-.15-.5-.1-.9.55-1.05.2-.45-.3-1.05.2-.85.35-1.2.7-1.7-.45-.35V2.05q-2-.9-4.05-.95-2.5.05-4.25 1v2.15l.15.05-.2.15.75 1.85.3 1.05.15 1q-.35.65-.25 1l.5.95-.15.9-.05.7-.2 1.1-.1.75-.15.7-4.35 20.4-.3 1.35-.2.8-1.85 7.25-1.5-.9L9.35 30.8l1.9-8 .85-3.7.4-1.7.15-.15q.65-.75.25-1.55l-.1-.25.7-2.8.4-2.9V9.4l-.1-1.45-.4-1.6-.05-.05q-.5-1.6-1.45-2.9z"/><path fill="#fff" d="m13.6 4.3-.15-.05V2.1q1.75-.95 4.25-1 2.05.05 4.05.95v2.2q-1.15.8-2.45 1.05l-.6-.6q-.55.1-1 .65-.45-.65-.85-.65-.2 0-.65.65Q15 5.2 13.6 4.3m7.55 3.05-.2.85-.35-.7zm-6.7 0 .5.3-.35.7z"/><path fill="#211c12" d="M21.05 14.25q1.25 8 4.5 20.2-3.7-2.3-6.4-4.6L19 29.7l.45-.3v-1.25q.25-5.7 0-11.6l-.2-.2zm-6.85.2 2.3 2.85-.15 13q-2.75 2.75-6.5 4.55z"/><path fill="#c8a379" d="M25.85 35.8Q21.2 33.1 18 30.35q-3.7 3.55-8.45 5.85l.3-1.35q3.75-1.8 6.5-4.55l.15-13-2.3-2.85.15-.7q.55 1.05 2.7 3.35.3 4.2-.05 12.8l.4-.35q.6-6.3.1-12.55l-3.05-4 .2-1.1q1.35 2.2 3.65 4.95.45 7.6.1 12.4l.45-.5h.05l-.05-.05q.4-5.4-.05-12L15 11.65l-.3-.45.15-.9q1.3 2.35 2.8 3.75 1.5-1.3 2.85-3.3l.1.9-2.65 2.85.3.35 1.1-1.05 1.4-1.65.1.95-2.15 2.5.3.4.15-.15 1.1-1.25.7-.85.1.5-1.8 2.1.2.2q.25 5.9 0 11.6v1.25l-.45.3.15.15q2.7 2.3 6.4 4.6z"/><path fill="#92693d" d="m20.6 11.65.15.5-1.4 1.65-1.1 1.05-.3-.35zm.25 1.45.1.65-.7.85-1.1 1.25L19 16l-.3-.4zm-6.15-1.9.3.45 3.8 5.05q.45 6.6.05 12v.05l-.45.5q.35-4.8-.1-12.4-2.3-2.75-3.65-4.95zm-.25 1.8 3.05 4q.5 6.25-.1 12.55l-.4.35q.35-8.6.05-12.8-2.15-2.3-2.7-3.35z"/><path fill="#fbc630" d="m12.8 15.45.1.25q.4.8-.25 1.55l-.15.15-1.05.1q-.7-.5-1.2-.25l.05.05q1.15.45 1.1 1.6l-.05.15-.45.5-.4.05-.45-.25q-.25-.3-.05-.6.05-.25.55-.4l-.55-.6h-.2l-.45.25-.35.25q-.5.4-.2 1.05l.25.4.3.35.6.6.3.15.15.15q.6.85.6 1.8 0 1-.6 1.7l-.35.4-.7.35H9q-1.65-.5-1.25-2h.05q.2-.5.7-.5.5.05.45.5-.45.15-.4.65.1.4.55.4l.25-.1.35-.3.1-.65-.25-.9-.2-.2-.5-.2-.65.15-.85.5-.35-.9q-.3-.85-.15-1.85l1.5.35q-.8-1.1-.75-2.15.1-1.15 1-2.2.35-.1.2.5-.2.7.15.8l.4-.35q.6-.45 1.05-.5.5-.05 1 .35l.8.05q.4-.2.1-.85h-.2l-.5.05-.2-.4.2-.4.45-.1.45.1zm9.8.05.3-.4.45-.1.4.1.25.45-.25.35-.65-.05q-.2.35-.1.6l.2.3.8-.1q.5-.35 1-.35l1.45.95q.35-.15.15-.9-.15-.6.2-.5.9 1.1 1 2.15.05 1.15-.75 2.3l1.45-.4q.2.95-.1 1.8l-.35.9-.75-.4-.85-.25-.6.45q-.3.3-.3.85 0 .5.15.7l.6.4q.45 0 .5-.5.1-.4-.35-.6-.05-.45.45-.5.5 0 .75.5.4 1.5-1.25 2.05-.6 0-1.05-.45L25 24.6q-.6-.75-.6-1.8 0-1 .6-1.75l1.4-1.35q.7-.8-.15-1.6l-.75-.25q-.4.05-.65.55l.55.45-.05.55-.1.1-.55.2-.3-.05L24 19q-.05-1.25 1.1-1.65l.05-.05q-.5-.3-1.2.2-.6.25-1.05 0l-.15-.2-.3-.65q-.2-.6.15-1.15m1.15-11.95q.75 1.15.65 2-.1.65-.9 1.15l-.25.05.4.5.1.4-.5.55-.5.2-.55-.2.55-.25.15-.35-.15-.55-.45-.5.8-.35q.95-.65.65-2.65m-1.4 6.4q-.35.45-.6-.2-.15-.75.55-.85.65-.2.95.65l.05.3q.25 1.1.7.85.4-.3-.15-.55-.25-.45.3-.4.7.2.85.55l-.4.95q.9.65.65 1.25l-.5.55-.35.05q-.45.1-.65-.4.75.1.75-.35t-.4-.6q-.35-.05-.6.2-.7.7-.3 1.15l1.3 1.35.5.35q.55.2.7-.2.15-.35-.35-.4l-.55-.05q-.15-.1.2-.35 1.3-.55 1.55.9-.3.9-1.2 1-.25 0-1.25-.75l-1.6-1.7q-.4-.6 0-1.35.4-.7.85-.75-.55 0-.5-.9l-.1-.4zm-10.6-2.8.4-.45q-2.1-.9-.5-3.2-.4 2.6 1.45 2.9l-.45.55-.15.55.15.4.5.2-.5.15-.5-.1q-.4-.2-.5-.55zm.35 2.6.1-.3.1-.2q.2-.35.5-.4h.3q.7.1.6.85-.3.6-.65.2-.25-.35-.35-.2l-.1.2-.05.3q0 .85-.5.85l.85.75.15.95-.45.7-1.25 1.25-.8.6-1.05.25-.15-.05-.1-.15-.4-.65q.1-.8.5-1l1.05.05.25.3-.6.1q-.5.05-.35.4.1.4.7.15l.5-.35 1.3-1.3.15-.35-.05-.4-.4-.4q-.25-.25-.6-.2-.4.05-.4.6 0 .45.75.35-.2.45-.65.4l-.2-.05q-.4-.1-.65-.65-.25-.6.65-1.2-.4-.55-.3-.95.05-.35.65-.55.65 0 .3.45-.45.2-.05.55.4.15.7-.9"/><path fill="url(#b)" d="m16.6 2.25 1.5 1.8q-.55.7-.95 1.55l-.5 1.25v.1L17.9 10l1.7 4.35.5 1.05.85 2.25.75 1.85 1.05 2.7-.35 1.4 1.25 1.65-.9 1.4 1.05 2.65.5 1.4 3.6 9.3-6.2 3.4q-3-10-5.25-20.6l-.85-3.75-.4-1.65q.45.25 1.05 0 .7-.5 1.2-.2l-.05.05q-1.15.4-1.1 1.65l.4.65.3.05.55-.2.1-.1.05-.55-.55-.45q.25-.5.65-.55l.75.25q.85.8.15 1.6l-1.4 1.35q-.6.75-.6 1.75 0 1.05.6 1.8l.35.25q.45.45 1.05.45 1.65-.55 1.25-2.05-.25-.5-.75-.5-.5.05-.45.5.45.2.35.6-.05.5-.5.5l-.6-.4q-.15-.2-.15-.7 0-.55.3-.85l.6-.45.85.25.75.4.35-.9q.3-.85.1-1.8l-1.45.4q.8-1.15.75-2.3-.1-1.05-1-2.15-.35-.1-.2.5.2.75-.15.9l-1.45-.95q-.5 0-1 .35l-.8.1-.2-.3q-.1-.25.1-.6l.65.05.25-.35-.25-.45-.4-.1-.45.1-.3.4q-.25-.55-.6-2.65l-.45-2.55-.05-.55.05-.4q.05-1.5.5-2.8v-.1q.5-1.55 1.5-3.05zm-.55 1.2q.3 2-.65 2.65l-.8.35.45.5.15.55-.15.35-.55.25.55.2.5-.2.5-.55-.1-.4-.4-.5.25-.05q.8-.5.9-1.15.1-.85-.65-2m-1.4 6.4.4-.1.1.4q-.05.9.5.9-.45.05-.85.75-.4.75 0 1.35l1.6 1.7q1 .75 1.25.75.9-.1 1.2-1-.25-1.45-1.55-.9-.35.25-.2.35l.55.05q.5.05.35.4-.15.4-.7.2l-.5-.35L15.5 13q-.4-.45.3-1.15.25-.25.6-.2.4.15.4.6t-.75.35q.2.5.65.4l.35-.05.5-.55q.25-.6-.65-1.25l.4-.95q-.15-.35-.85-.55-.55-.05-.3.4.55.25.15.55-.45.25-.7-.85l-.05-.3q-.3-.85-.95-.65-.7.1-.55.85.25.65.6.2" transform="translate(7.7 .1)"/><path fill="url(#c)" d="M5.9 4.2q1.4.9 2.6 1.05.45-.65.65-.65.4 0 .85.65.45-.55 1-.65l.6.6q1.3-.25 2.45-1.05V4l.45.35-.7 1.7-.35 1.2-.55.15.35.7.3 1.05-.2.45-.55 1.05q-1.35 2-2.85 3.3-1.5-1.4-2.8-3.75l-.5-.95q-.1-.35.25-1l.35-.7-.5-.3-.3-1.05-.75-1.85z" transform="translate(7.7 .1)"/><path fill="url(#d)" d="m-1.7 43.25-6-3.25 3.55-9.3 1.5-4.05-.8-1.4 1.25-1.65-.4-1.4 1.9-4.55L.6 14.4l1.05-2.65.7-1.75 1.1-2.85-1.4-3.1 1.5-1.75.65 1q.95 1.3 1.45 2.9l.05.05.4 1.6.1 1.45v.35l-.4 2.9-.7 2.8-.3-.4-.45-.1-.45.1-.2.4.2.4.5-.05h.2q.3.65-.1.85l-.8-.05q-.5-.4-1-.35-.45.05-1.05.5l-.4.35q-.35-.1-.15-.8.15-.6-.2-.5-.9 1.05-1 2.2-.05 1.05.75 2.15l-1.5-.35q-.15 1 .15 1.85l.35.9.85-.5.65-.15.5.2.2.2.25.9-.1.65-.35.3-.25.1q-.45 0-.55-.4-.05-.5.4-.65.05-.45-.45-.5-.5 0-.7.5H.05q-.4 1.5 1.25 2h.35l.7-.35.35-.4q.6-.7.6-1.7 0-.95-.6-1.8l-.15-.15-.3-.15-.6-.6-.3-.35-.25-.4q-.3-.65.2-1.05l.35-.25.45-.25h.2l.55.6q-.5.15-.55.4-.2.3.05.6l.45.25.4-.05.45-.5.05-.15q.05-1.15-1.1-1.6l-.05-.05q.5-.25 1.2.25l1.05-.1-.4 1.7-.85 3.7-1.9 8zm5.75-36.2-.1.45q.1.35.5.55l.5.1.5-.15-.5-.2-.15-.4.15-.55.45-.55Q3.55 6 3.95 3.4q-1.6 2.3.5 3.2zm.35 2.6q-.3 1.05-.7.9-.4-.35.05-.55.35-.45-.3-.45-.6.2-.65.55-.1.4.3.95-.9.6-.65 1.2.25.55.65.65l.2.05q.45.05.65-.4-.75.1-.75-.35 0-.55.4-.6.35-.05.6.2l.4.4.05.4-.15.35-1.3 1.3-.5.35q-.6.25-.7-.15-.15-.35.35-.4l.6-.1-.25-.3-1.05-.05q-.4.2-.5 1l.4.65.1.15.15.05 1.05-.25.8-.6 1.25-1.25.45-.7-.15-.95-.85-.75q.5 0 .5-.85l.05-.3.1-.2q.1-.15.35.2.35.4.65-.2.1-.75-.6-.85h-.3q-.3.05-.5.4l-.1.2z" transform="translate(7.7 .1)"/><path fill="#dce6ed" d="m21.45 2.3-3.4.65-.3 2.15q.3-.45.95-.55l.75.65 1.5-.65v-1.5h-.05l.65-.4.05.3.05 1.15.15-.1v.15h-.05v.1l-.35.25-.8.45-1.2.4-.25-.3-.3-.25-.1-.05h-.05q-.5.05-.8.35l-.15.25-.1-.05-.3-.35-.15-.05-.05-.05-.05-.05H17l-.15-.05-.35.25-.3.35-.25-.05L14.8 5l-.35-.2h-.05l-.35-.2-.45-.25-.1-.05-.05-.05v-.2L13.5 4V2.4h.1l.8.6v1.05l.55.55-.1-1.55h.05l.45.2v1.7l.8.25.25-.3q.2-.2.5-.35l.75.5-.15-2.1-2.45-.3-1.35-.45-.3-.1q4.65-2 8.45.05z"/><path fill="#34688f" d="m21.2 7.1-.05.05L20.8 7l.5-.25z"/><path fill="#35598e" d="m21.8 4.15.15.1.2.15-.7.35-1.15.55-.45.35.25.05h.6l.9-.45v.2l-.55.5-.9.35h-.05l.1.15.05.05 1.1-.3-.05.2-.8.45.2.6-.05.05h-.05l-.3-.65h-.05l-.1-.2-.75-1.3 1.2-.4.8-.45.35-.2v-.15zm-8.35.25-.05-.1h.1l.1.05.45.25.35.2h.05l.35.2 1.15.3.25.1.05.1-.25.45-1 1.75-.05-.1.1-.45-.15-.1-.2-.15-.15-.05v.3l-.1.2-.1-.1-.3-1.3-.05-.2-.1-.25-.45-.95zm.9 1.7.1.25.05.25h.1l.4.05h.3l.45-.7.1-.1q.1-.3-.3-.4l-.75-.2-.95-.5-.05-.05.25.65.5.35.5.15.35.15-.75.1z"/><path fill="#d9ddf0" d="m16.8 5.45.1-.15.3.05.25.2.05.4-.1.7-.1.35v.05l-.15.3-.1.2-.05.15-.05.15-.25.5.25-1.15v-.55l-.1-.65-.05-.35zM16.55 9h.1l.1.2.2.55.35 1 .15.25.1.1-.05.05-.15-.15-.05-.05-.4-.75-.35-1.05zm-1.85-.5.4-.75 1-1.8q-1.65 3.15-1.35 3.8-.5-.35-.05-1.25"/><path fill-opacity=".298" d="m30.25 22.4.05.7q-.05.95-1.3.95L27.95 24l1.15-.75zm-.6.8h-.1l-.05.15h.1zm-11.7-12.65-.3.35h-.1l-.05-.2-.3-.9-.3-.65-.15-.3.45-1.1.05-.15.25-.95.2-1v-.1q1.2 1.95 1.2 3.35zm-3.5 4.25.3.4-4.05 19.05-.4.25-.35.25 4.3-20.2.1.05zm2 8.15-.1.8-.4-.15-1.4-1.15zM13.8 24.1l2.55.75v-.1l.15.5v1.05l-.2.05q-.55 0-1.6-1l-1.05-1.15v-.1zm7.25-9.8.2 1.1-.45-.2-1.1 1.1.15.25v6.6l.85-.2q.5-.25.45 0l-.6.55-.65.45.2.45 2.15-.75.1.1q-.75 1.4-2.45 1.8l-.25 4.6-.6-.5.4-.25.15-3.9-.05-.05-.1-8.9-.15-.2.45-.55zm5.85 11.1.25-.3 3.65.35.4-.05-.6 1.1-.2.05.1.2L35.55 40l-1.25.7-3.4-10.45q-1.45.9-3.1 1.25l.5 1.45-.45.2-.65-1.55-.25-.55 1-.25q1.85-.55 2.75-1.1l-1.05-3.1-.15-.05q-.95-.25-2.6-1.15m-2.15 8.45-.05-.05.5-.4.25.95zM8.7 25.45 6.1 26.6l-.15.05-1.05 3.1q1.25.8 3.7 1.4l-.85 2.05-.45-.2.5-1.45q-1.65-.35-3.1-1.25L1.3 40.75l-1.25-.7L5.2 26.6q-.6-.2-.8-1.15l4.05-.3zM6.6 24q-1.25 0-1.3-.95l.05-.7 1.15.85 1.15.75z"/><path fill="#fff" fill-opacity=".298" d="m30.95 30.5-.1.3q0 .2-1 .65l-1.5.45-.15-.05-.3-.2 2-.6zm-26.3.05 1.05.55 2 .6-.3.2-.15.05-1.5-.45-1-.65z"/><path fill="#600" fill-opacity=".298" d="m21.55 2.65-.1-.35.4-.15Q18.05.1 13.4 2.1l.1.3V4l-.05.05v.2l.05.05h-.1l.05.1-2.2-1.95Q13.7.1 17.85.1t6.45 2.3l-2.15 2-.2-.15-.15-.1V4l-.15.1-.05-1.15z"/><path fill="#300" fill-opacity=".298" d="m14.35 14.6-.1-.1v-.1l.6-4.05.4.7-.8 3.75zM10.7 34.25l-.6 1.65-.55.25.35-1.35.05-.05.35-.25zm8.6-17.9h-.05l-1.6-2.25.45-.45 1.15 2.05q1.15-.9 1.2-4.85l.6 3.45-1.3 1.5-.25.2zm-.9 14.45-.4-.35 1-.75.6.5zm6.3 3 .05.05.7.55.35 1.35-.85-.5z"/><path fill="#ffeeca" d="m23.4 5.5.3-1-.05-.85-.1-.15.05-.05q.4.15.6.95l-.15 1.15q-.25.65-1.05 1.1l.25.6q0 .95-.8.95h-.15l.35-.4.1-.5-.3-.45-.25-.35.4-.2zm4.8 16.65-.1.25-.25.2-.3-.25-.35-.3-.65-.05q-1 0-1 1.2 0 .9.5.9.6 0 .6-.45L26.4 23q-.05-.25.25-.25.35 0 .55.45l.15.5q0 .85-1.2.85-1.15 0-1.05-1.65t2-1.55q1.1.4 1.1.8m-5.75-13.2-.4.25.25.3.1.3q0 .25-.45.25-.35 0-.35-.35 0-.7.5-.9h.4l.6.35zM24 11.9q-.3 0-.6.25l-.25.35.05.35.7.95.45.45.7.4q.4.1.35-.2-.05-.35-.45-.3l-.3-.2q.05-.25.35-.25h.4q.6.2.6.7l-.25.5q-.15.2-.6.25-.4 0-1.3-.95l-1-1.4q-.05-.5.3-.9t.95-.35.6.75q.1.65-.65.65-.3 0-.3-.25 0-.15.25-.2l.3-.2-.05-.2zm-.15-2.1.2-.05q.45 0 .45.6l-.45.55h-.45q-.2-.05-.25-.3l-.1-.4-.05-.45.15.3.4.55.2-.1.15-.15-.15-.2-.15-.2zM11.8 3.5l-.1.15-.05.85.3 1q.4.7.8.8l.4.2-.25.35-.3.45.1.5.35.4h-.15q-.8 0-.8-.95l.25-.6q-.8-.45-1.05-1.1-.15-.35-.15-1.15.2-.8.6-.95zm.2 6.55.15-.3-.05.45-.1.4-.25.3h-.45q-.45-.2-.45-.55 0-.6.45-.6l.2.05.05.15-.15.2-.15.2.15.15.2.1zm-.75 1.5q.6-.05.95.35t.3.9q-.1.45-1 1.4l-1.3.95q-.45-.05-.6-.25l-.25-.45v-.05q0-.5.6-.7h.4q.3 0 .35.25l-.3.2q-.4-.05-.45.3-.05.3.35.2l.7-.4.45-.45.7-.95.05-.35-.25-.35q-.3-.25-.6-.25-.2 0-.25.2l-.05.2.3.2.25.2-.3.25q-.75 0-.65-.65 0-.7.6-.75m1.65-2.6-.65.2.6-.35h.4q.5.2.5.9l-.35.35-.45-.25.1-.3.25-.3q.05-.25-.4-.25m-.8 6.25q.6.15.6 1 0 .8-.9.8l-1.5-.65.1-.1.45.05.95.3h.25q.35-.1.25-.4l-.05-.3-.25.05-.5-.2-.1-.2q0-.15.35-.35zM9.4 18l-.05.05q-.5.2-.55.8l.55 1.2.4.5-.4-.15-.1-.1-.75-.65q-.35-.45-.05-1.35.25-.7.9-.8h.45q1.05.1 1.15 1t-.4.9q-.55 0-.65-.25v-.55q0-.3.5-.4l-.25-.25zm-.05 3.5q.85.3.9 1.4.1 1.55-.9 1.65H9.2q-1.2 0-1.2-.85l.15-.5q.2-.45.55-.45l.25.25-.25.65q0 .45.6.45h.05q.45-.05.45-.9 0-.8-.45-1.05L8.8 22l-.65.05-.35.3-.3.25-.25-.2-.1-.25q0-.4 1.1-.8zm14.25-6.3.35.35-.1.2q-.15.2-.5.2l-.25-.05-.05.3q-.1.3.25.4h.25l.2-.05.75-.25.45-.05.1.1-1.5.65q-.9 0-.9-.8v-.15q.05-.7.6-.85zm1.35 3 .5.4v.55l-.65.25q-.5 0-.4-.9.1-.85 1.1-1h.05q1.05-.1 1.35.8l.05.2q.2.75-.25 1.35l-.5.4-.6.3.95-1.7q-.05-.65-.6-.85l-.75-.05z"/><path fill="url(#e)" d="M15.9 3.3q-1 1.45-1.45 3l-.05.05v.1q-.45 1.3-.5 2.8v.05l-.05.35.05.55.45 2.55.05.15q.3 1.95.55 2.5-.35.55-.15 1.15l.15.4.15.25.15.2.75 3.05.5 2.35q2.25 10.6 5.25 20.6-.65.4-1.35.75l-2.2-8.45-.3-1.35q-2.2-7.4-2.8-10.8l-.8-4.35-.35-1.75-.55-3.3-.1-.5v-.2l-.1-.45-.1-.95-.15-.5-.1-.9.55-1.05.1-.2.1-.25-.3-1.05.2-.85.35-1.2.7-1.7h-.05l.35-.35L16 3.2zm-10.55.35.45.5h.05l.05.1-.15.1.75 1.85.3 1.05.15 1-.25.7v.3l.5.95-.2 1.6v.05l-.2 1.05-.1.75L1.65 36.6l-1.8 7.55-1-.6 2.8-12.9 3.2-13.35.15-.15q.65-.75.25-1.55l-.1-.25.7-2.8.05-.3.35-2.6V9.1l-.1-1.25-.4-1.6-.05-.05q-.5-1.6-1.45-2.9l-.65-1z" transform="translate(7.7 .1)"/><path fill="#fff" fill-opacity=".2" d="M21.2 9.15q-.1.95-1.85 3L17.65 14l-.7-.7-.5-.65 1.15-1.7.1-.15.45-.6.65-1.1.55-1.5q0-.3-.6-1.25l-.7-1h-.25l-.05-.05.35-.3.55-.2q.45.05 1.55 2.05 1.05 1.9 1 2.3"/><path fill="#fc3" d="m18.65 8.75-.75 1.2-.55-1.15.55-.95z"/><path fill="#d9ddf0" d="M19.7 6.2v.05l.3.55.5 1-.1.05-.6-.9-.3-.45-1.25-1.2q0-.2.4-.2t1.05 1.1m-2.1 7.55-.3-.25q2.25-1.6 3.7-4.3-.95 2.45-3.4 4.55"/><path fill="#3e2423" d="m17.25 20 .15-.55.55-.2.5.2.25.55-.25.55-.5.25-.55-.25zm-.05 2.7.2-.6q.2-.2.5-.2l.55.2.2.6-.2.55q-.2.2-.55.2-.3 0-.5-.2zm.05-5.2q0-.35.15-.55.25-.25.55-.25l.5.25.25.55-.25.55-.5.25-.55-.25zm1.2 7.3.25.6-.25.55-.5.2-.55-.2-.15-.55q0-.35.15-.6l.55-.2zm0 2.8.25.6-.25.55-.5.2-.55-.2-.15-.55q0-.35.15-.6l.55-.2z"/><path fill="#fff" d="M17.9 7.8v1.05h-.6z"/><path fill="#704936" d="M17.5 17.3q0-.35.3-.35l.3.25-.3.35q-.3 0-.3-.25m.3 2.2q.35-.05.35.3 0 .4-.35.4l-.3-.15v-.15q0-.4.3-.4m0 2.75q.3-.1.3.2l-.1.25-.3.15-.2-.15-.05-.1q0-.25.35-.35m-.3 3.2-.05-.15q0-.35.35-.4.35 0 .35.3 0 .4-.4.4-.2 0-.25-.15m.3 2.2q.45 0 .35.3 0 .35-.4.35l-.25-.1-.05-.15q0-.4.35-.4"/><path fill="#b87756" d="m17.9 8.85.75-.05-.75 1.1z"/></g></defs></svg>