<svg xmlns="http://www.w3.org/2000/svg" xmlns:ffdec="https://www.free-decompiler.com/flash" xmlns:xlink="http://www.w3.org/1999/xlink" ffdec:objectType="frame" width="10.5" height="11.65"><use ffdec:characterId="1" xlink:href="#a" width="10.5" height="11.65"/><defs><g id="a" fill-rule="evenodd"><path d="m1.45 8.2 2.9-.2Q5.6 7.65 7.2 6.45q.15-.1 1.3.6l1.1.7q-1.3 1.9-3.1 2.85-2.05 1-5.15 1.05z"/><path fill="#999" d="M1.45 8.2 0 1.4l.2-.3L1.25.2q1.3-.65 2.45.9l.3.4.25.35.3.4 1.4 2.2.25.4.05.05.15.2.8 1.35Q5.6 7.65 4.35 8z"/><path fill="#7300fb" d="M1.05 2.6.4 2.3l-.25-.6q0-.35.25-.65L1.05.8l.6.25.3.65-.3.6q-.25.3-.6.3m3.6.05.3.65-.3.6q-.25.3-.6.3l-.65-.3-.25-.6q0-.35.25-.65l.65-.25zM3 6l-.3.6-.6.3-.65-.3L1.2 6l.25-.65q.3-.25.65-.25l.6.25zM5.05 5.25V5.2h.05l.7-.5.1-.15.1.15v-.05q.55-.3 1.4-.45l1.7.15v.05l.1 1.8-.05.35 1.35 1.4-1.15 1.2-1.85-2.1-.6-.6-.35-.15-.1.2.5 1.45L8.1 10.1l-1.4.55-.1.05-.55-.8-.45-1.05L4 8.7q-.15-1.4.5-2.55l.45-.9z"/><path fill="#5000b0" d="m9 7.6-.05-.1 1.55.45-1.15 1.2-1.85-2.1 1.7 1.1zM6.55 9.3v-.05l.4.25.5.45.1.05-.6-2.05L8.1 10.1l-1.4.55v-.9zM9.1 4.35v.05l.1 1.8-.75-.15L7.4 5.9 7 5.85l-.2-.15-.15.05.25.7-.35-.15Q6.8 6.2 6 5l-.2-.3.1-.15.1.15v-.05l.65 1 1.75-.1.35.05.2-.7zm-4.05.9V5.2h.05l.25.4.7.6.5.1-.1.2.05.3-.85-.6.15.85v.4q0 .65.3 1.25l-.5.15L4 8.7l1.4-.35.15-1.8.1-.4-.2-.2z"/><path fill-opacity=".298" d="M1.4.2q.4 0 1.75 2.95l1.3 2.95q-.45.8-.5 2.45l1.6.35.8 1.65q-2.85 1-4.15.95L.1 1.4Q.7.2 1.4.2"/></g></defs></svg>