<svg xmlns="http://www.w3.org/2000/svg" xmlns:ffdec="https://www.free-decompiler.com/flash" xmlns:xlink="http://www.w3.org/1999/xlink" ffdec:objectType="frame" width="7.1" height="8.65"><use ffdec:characterId="5" xlink:href="#a" width="7.1" height="8.65"/><defs><g id="a" fill-rule="evenodd"><path fill="#183349" d="m4.35 7.85 2.35-.8.25.55-2.35.85z"/><path fill="#071016" d="m4.7 8.65-.1-.2 2.35-.85.15.2z"/><path fill="#0f6182" d="m2.25 1 1.35.45L4.75 2l.1 1.15 2 1.6.15.35.05.75q-.25.5-.35 1.25l-1.55.55q-1.55.55-1.6.65L0 0q.55 0 1.3.45z"/><path fill="#093947" d="M4.8 2.2v.95l-2.05.2q.4-.05 2.05-1.15M6.7 5.05q.35-.3.35.8 0 .6-2.85.9.8-.25 2.5-1.7"/></g></defs></svg>