<svg xmlns="http://www.w3.org/2000/svg" xmlns:ffdec="https://www.free-decompiler.com/flash" xmlns:xlink="http://www.w3.org/1999/xlink" ffdec:objectType="frame" width="10.35" height="11.65"><use ffdec:characterId="3" xlink:href="#a" width="10.35" height="11.65"/><defs><radialGradient id="b" cx="0" cy="0" r="819.2" gradientTransform="translate(8.9 13.2)scale(.0141)" gradientUnits="userSpaceOnUse" spreadMethod="pad"><stop offset=".169" stop-color="#bd2149"/><stop offset="1" stop-color="#661d28"/></radialGradient><g id="a" fill-rule="evenodd"><path fill="url(#b)" d="m4.75 5.75 2.8 4.05 1.75.8-.2.55.6.2-.05.6.3.2v.05l-.5 1.2q-1 1.45-3.6.65l-.35-.75-.65-.6-.05-1.05-.35-1L3.05 8l-1.9-2.85Q.1 4.25-.4 2.7q2.4.1 3.25.8.55.45 1.9 2.25" transform="translate(.4 -2.7)"/><path fill-opacity=".498" d="M5.65 9.55 7 9.6l-.25.35-.8.15q.15-.3-.05-.45zM8.75 8l-.6.75.85-.2q-.7.6-1.5.7 0-.35.65-.85zm-1.2 2.05 2-1-1.7 1.15q.25.4 1.7-.7-.95 1.25-2.45 1.4z"/><path fill-opacity=".498" d="m3.45 5.3-1.9-2.85Q.5 1.55 0 0l1.1.1 7.55 11.45-2.4-.2-.35-.75-.65-.6-.05-1.05-.35-1z"/></g></defs></svg>