<?xml version="1.0" encoding="UTF-8" standalone="no"?>
<svg xmlns:ffdec="https://www.free-decompiler.com/flash" xmlns:xlink="http://www.w3.org/1999/xlink" ffdec:objectType="frame" height="27.3px" width="24.3px" xmlns="http://www.w3.org/2000/svg">
  <g transform="matrix(1.0, 0.0, 0.0, 1.0, 1.9, -0.5)">
    <use ffdec:characterId="3" height="27.3" transform="matrix(1.0, 0.0, 0.0, 1.0, -1.9, 0.5)" width="24.3" xlink:href="#shape0"/>
  </g>
  <defs>
    <g id="shape0" transform="matrix(1.0, 0.0, 0.0, 1.0, 1.9, -0.5)">
      <path d="M3.5 26.8 L2.7 26.6 2.4 26.1 2.35 26.05 1.65 26.3 Q0.8 26.3 0.55 25.35 L0.3 25.55 -0.4 25.65 Q-1.35 25.65 -1.9 25.05 L-0.7 24.05 -0.45 23.8 -0.1 24.0 0.7 24.15 1.45 24.4 3.5 24.75 3.1 24.7 Q2.85 24.6 2.8 25.0 L2.85 25.0 3.5 26.8 M3.8 24.8 L5.95 25.15 6.6 25.25 6.9 25.2 9.7 25.65 11.1 25.55 12.15 25.25 12.65 25.2 13.35 25.25 13.85 25.05 Q18.5 24.5 20.65 23.6 L22.4 25.15 21.45 26.0 20.75 26.0 20.0 25.65 Q20.05 26.65 19.5 26.65 19.05 26.65 18.6 26.2 18.4 27.1 17.85 27.1 L17.35 27.0 17.6 26.4 17.75 25.15 14.3 25.7 10.15 26.15 Q7.0 26.2 4.25 24.95 L3.8 24.8 M10.65 25.85 L10.5 25.85 10.6 25.85 10.65 25.85" fill="#ffffff" fill-rule="evenodd" stroke="none"/>
      <path d="M3.5 24.75 L3.8 24.8 4.25 24.95 Q7.0 26.2 10.15 26.15 L14.3 25.7 17.75 25.15 17.6 26.4 17.35 27.0 17.15 26.85 16.8 26.5 16.65 27.1 16.05 27.45 15.4 27.3 15.05 27.0 15.0 26.95 Q14.7 27.8 14.25 27.8 L13.5 27.6 13.1 27.3 Q12.8 27.8 12.15 27.8 L11.3 27.55 11.0 27.15 Q10.65 27.75 9.7 27.75 9.2 27.75 8.8 27.45 L8.45 27.15 8.1 27.45 7.25 27.65 Q6.8 27.65 6.55 27.35 L6.25 26.9 Q6.25 27.2 5.4 27.2 4.45 27.2 4.25 26.45 4.0 26.8 3.5 26.8 L2.85 25.0 2.8 25.0 Q2.85 24.6 3.1 24.7 L3.5 24.75" fill="#cde2f5" fill-rule="evenodd" stroke="none"/>
      <path d="M21.35 24.0 Q16.3 26.6 10.65 26.55 L9.25 26.5 9.2 26.5 Q4.3 26.2 -1.0 24.0 L-0.75 22.75 0.85 24.1 0.9 24.15 1.0 24.15 1.75 24.45 2.6 24.7 2.85 24.75 2.9 24.75 6.8 25.7 9.05 25.9 10.0 25.95 10.5 25.95 11.25 25.95 14.3 25.75 Q16.35 25.45 15.7 25.4 15.0 25.35 16.3 25.0 L18.85 24.3 18.85 24.25 19.5 24.15 19.5 24.1 19.75 24.05 19.85 24.15 20.0 24.05 20.0 23.95 21.2 23.35 21.35 24.0 M10.55 1.15 L10.6 1.2 10.6 1.15 12.05 2.65 12.6 3.45 13.05 4.05 15.1 7.05 Q18.6 12.25 21.05 22.75 L19.7 23.55 19.65 23.5 19.55 23.55 19.4 23.5 19.75 23.0 19.6 22.8 19.15 22.7 19.2 22.65 19.65 22.0 19.35 21.75 18.8 21.9 19.3 21.4 19.55 20.95 19.25 20.65 18.9 20.65 18.75 20.7 19.15 19.8 Q19.15 19.35 18.25 19.25 L18.65 18.8 18.75 18.35 Q18.75 17.95 18.25 18.0 L18.45 17.55 Q18.45 17.0 17.65 17.1 L18.05 16.2 18.0 15.8 17.1 15.55 17.55 14.7 Q17.5 14.1 16.85 14.1 L16.65 14.15 16.85 13.3 16.8 12.95 16.25 12.75 16.45 12.25 Q16.45 11.65 15.75 11.55 L16.0 10.95 Q16.0 10.4 15.2 9.95 L15.45 9.45 Q15.45 8.9 14.9 8.85 L15.25 8.35 Q15.25 8.05 14.45 7.85 L14.5 7.8 14.8 7.25 14.65 6.85 14.15 6.6 Q14.35 5.6 13.15 5.55 L13.05 5.35 13.15 4.75 12.95 4.05 12.65 4.05 12.9 4.8 12.8 5.35 13.0 5.75 13.1 5.9 Q13.95 5.65 13.95 6.3 L13.75 6.55 13.75 6.8 Q14.55 6.95 14.55 7.25 L14.1 7.9 14.5 8.2 15.0 8.3 14.7 8.6 14.55 8.85 14.9 9.1 15.2 9.45 15.0 9.8 14.8 10.1 14.85 10.25 15.55 10.45 15.75 10.95 15.4 11.75 16.05 12.0 16.2 12.25 15.9 12.85 15.95 13.0 16.5 13.05 16.6 13.3 16.3 14.35 16.35 14.5 16.9 14.4 Q17.3 14.4 17.3 14.7 L16.8 15.55 16.8 15.85 17.6 15.85 17.8 16.2 17.3 17.2 17.35 17.35 18.05 17.4 18.2 17.55 17.95 17.9 17.7 18.2 17.75 18.35 18.5 18.35 18.05 18.9 17.8 19.35 17.85 19.5 Q18.9 19.5 18.9 19.8 L18.3 20.8 18.35 20.95 19.25 20.95 19.2 21.4 18.7 21.8 18.4 22.0 18.45 22.15 18.85 22.15 19.35 22.05 18.65 22.8 18.7 22.95 19.5 23.05 18.85 23.7 18.9 23.85 18.95 23.9 18.5 24.0 18.45 23.85 18.55 23.8 18.4 23.55 18.3 23.35 17.9 21.9 17.85 21.65 17.8 21.65 17.6 20.9 17.6 20.8 17.55 20.7 17.45 20.4 17.5 20.35 17.4 20.25 17.3 19.8 17.35 19.75 17.25 19.65 17.2 19.55 16.95 18.7 15.95 15.0 15.8 14.45 15.6 13.8 15.4 13.2 15.15 12.4 15.15 12.45 14.5 10.4 13.8 8.05 13.45 6.9 13.4 6.85 12.95 5.75 12.85 5.75 12.85 6.0 13.1 6.75 Q12.95 6.75 12.8 6.9 L11.8 4.05 11.4 4.05 13.5 10.0 13.5 10.1 14.5 12.85 17.45 24.1 17.45 24.25 16.35 24.6 16.55 24.35 16.0 24.55 15.95 24.6 15.8 24.45 Q15.8 24.3 16.65 23.8 L16.55 23.7 15.65 23.6 15.65 23.25 16.4 22.65 16.25 22.55 15.5 22.4 15.35 22.25 15.55 21.85 16.0 21.5 15.9 21.4 Q15.0 21.4 15.0 21.0 L15.2 20.65 15.65 20.25 15.5 20.15 14.75 20.0 14.7 19.75 14.9 19.45 15.25 19.0 15.15 18.9 14.5 18.75 14.45 18.55 14.65 18.1 15.15 17.75 15.0 17.65 14.45 17.65 14.25 17.3 14.55 16.9 14.95 16.45 14.85 16.35 14.15 16.2 14.1 15.95 14.3 15.45 14.8 14.95 14.6 14.85 13.8 14.8 13.65 14.5 13.8 14.2 14.2 13.85 14.1 13.75 13.2 13.75 13.2 13.35 13.55 12.9 13.85 12.55 13.7 12.45 12.9 12.2 13.5 11.6 12.55 10.95 12.95 10.05 12.8 9.95 12.25 9.85 12.2 9.65 Q12.2 9.45 12.35 9.35 L12.7 9.0 12.65 8.95 12.5 8.9 12.0 8.9 11.85 8.65 12.05 8.25 12.35 8.0 Q11.7 7.7 11.7 7.35 L11.85 7.0 12.15 6.6 11.9 6.45 Q11.45 6.7 11.45 7.35 L11.85 8.1 Q11.6 8.2 11.6 8.65 11.6 9.1 12.1 9.2 11.95 9.25 11.95 9.65 L12.0 9.95 12.45 10.2 Q12.3 10.45 12.3 10.9 L12.4 11.35 12.95 11.75 12.65 12.2 13.35 12.75 13.3 12.8 12.95 13.15 12.95 13.55 Q12.95 14.0 13.5 14.05 L13.4 14.5 Q13.4 14.9 14.15 15.2 L14.1 15.3 Q13.85 15.5 13.85 16.0 L13.9 16.3 14.4 16.55 14.35 16.6 14.1 17.0 14.0 17.35 Q14.0 17.75 14.55 17.95 14.2 18.0 14.2 18.55 L14.25 18.9 14.75 19.15 14.7 19.2 Q14.45 19.35 14.45 19.8 L14.5 20.15 15.1 20.45 15.05 20.5 14.85 20.75 14.75 21.0 Q14.75 21.5 15.4 21.7 15.1 21.9 15.1 22.2 15.1 22.65 15.8 22.8 L15.75 22.85 15.4 23.1 15.4 23.7 15.85 23.95 15.55 24.45 15.65 24.8 12.9 25.1 10.4 25.05 10.3 23.1 10.3 19.85 10.4 16.85 10.45 14.45 10.4 11.4 Q10.3 9.9 10.35 8.25 L10.65 4.5 10.65 4.05 10.05 4.05 10.0 4.8 9.9 7.45 9.95 7.45 9.9 7.45 9.9 8.7 9.8 12.65 9.6 16.5 9.65 20.5 9.4 24.45 9.3 25.3 8.55 25.35 5.15 24.95 5.15 24.9 4.7 24.5 4.8 24.45 5.4 24.25 5.65 24.0 5.2 23.45 Q6.0 23.1 6.0 22.9 L5.8 22.55 5.5 22.25 6.0 21.7 5.55 21.15 6.05 20.65 5.75 20.3 5.85 20.25 6.35 20.05 6.5 19.75 5.9 19.15 6.0 19.1 6.85 18.5 6.75 18.2 6.4 17.95 6.9 17.75 7.1 17.4 6.65 16.75 7.4 16.15 6.95 15.5 7.8 14.8 7.6 14.35 7.35 14.0 8.05 13.4 7.85 13.05 7.6 12.75 8.25 12.4 8.4 12.05 8.25 11.7 7.95 11.3 Q9.1 11.0 9.1 10.5 L8.7 9.6 Q9.55 9.2 9.55 8.65 L9.35 8.2 9.05 7.8 9.5 7.15 9.2 6.55 8.8 6.35 Q8.9 5.85 9.4 5.4 10.0 4.9 10.0 4.05 L9.8 4.05 9.55 4.9 8.7 5.7 8.55 6.2 8.35 6.2 8.15 6.9 8.05 6.9 8.85 5.05 9.3 4.05 8.9 4.05 8.75 4.3 Q8.3 4.9 8.05 5.8 L7.2 8.2 Q6.55 9.7 6.0 12.0 L5.55 13.75 5.35 14.5 5.3 14.5 5.3 14.65 5.0 15.45 4.5 17.0 4.0 18.9 3.55 20.7 2.95 22.5 2.25 23.8 1.6 23.9 1.7 23.75 1.3 23.45 1.0 23.0 Q1.0 22.65 1.55 22.55 L2.05 22.25 1.8 22.0 1.55 21.45 Q1.55 21.2 2.0 21.05 L2.4 20.75 2.25 20.35 2.1 19.9 Q2.1 19.65 2.55 19.35 L3.0 19.05 2.65 18.35 Q2.65 18.0 3.0 17.7 L3.3 17.35 3.05 16.55 3.2 16.15 Q3.4 15.8 3.95 16.0 L4.1 15.75 3.95 15.2 3.75 14.7 Q3.75 14.35 3.9 14.2 L4.5 13.85 Q4.15 13.25 4.15 13.0 4.15 12.25 5.1 12.2 L5.15 12.05 4.75 11.35 Q4.75 11.0 5.2 10.8 L5.65 10.55 5.5 10.2 5.35 9.85 5.55 9.35 Q5.85 9.05 6.35 9.0 L6.4 8.85 6.2 8.3 6.4 7.65 6.9 7.45 7.25 7.15 Q7.25 6.4 7.55 6.0 L7.6 6.35 7.6 6.15 7.6 5.9 7.8 5.75 7.7 5.65 7.65 5.7 Q7.8 4.7 8.55 4.05 L8.3 4.05 Q7.5 4.6 7.3 5.3 L7.45 5.8 Q7.0 6.1 7.0 7.0 6.35 7.15 6.1 7.55 5.95 7.8 5.95 8.3 L6.05 8.75 Q5.1 9.25 5.1 9.9 L5.3 10.5 Q4.5 10.55 4.5 11.35 L4.75 12.0 4.1 12.35 3.9 13.0 4.15 13.75 Q3.5 14.0 3.5 14.7 L3.8 15.7 Q2.8 15.6 2.8 16.6 L3.0 17.25 2.7 17.65 Q2.4 18.0 2.4 18.35 L2.65 19.05 Q2.3 19.0 2.05 19.35 L1.85 19.9 2.1 20.7 Q1.3 20.95 1.3 21.45 L1.65 22.25 Q0.75 22.4 0.75 23.0 L0.95 23.5 0.75 23.35 0.75 23.5 -0.45 22.55 -0.7 22.35 Q1.55 11.3 7.75 4.05 L9.6 2.05 9.75 1.9 9.8 1.85 10.3 1.35 10.35 1.35 10.55 1.15 M3.3 22.65 L3.5 22.05 3.8 22.15 3.65 22.75 3.3 22.65 M3.25 22.9 L3.6 23.05 3.45 23.45 3.1 23.3 3.15 23.15 3.25 22.9 M1.0 23.65 L1.0 23.6 1.1 23.7 1.0 23.65 M3.7 21.2 L4.05 21.35 3.9 21.9 3.55 21.75 3.7 21.2 M3.95 20.7 L4.2 20.7 4.1 21.1 3.8 20.95 3.9 20.55 3.95 20.7 M4.45 19.75 L4.15 19.75 4.25 19.3 4.5 19.3 4.45 19.6 4.45 19.75 M4.05 20.0 L4.35 20.0 4.25 20.45 3.95 20.45 4.05 20.0 M4.5 18.45 L4.65 18.5 4.55 19.05 4.35 19.05 4.5 18.45 M4.7 17.65 L4.8 17.7 4.7 18.25 4.55 18.2 4.7 17.65 M5.0 16.6 L5.05 16.65 4.85 17.4 4.75 17.4 4.95 16.65 5.0 16.6 M5.2 15.75 L5.3 15.8 5.1 16.45 5.05 16.4 5.2 15.75 M5.65 14.8 L5.55 15.05 5.4 15.55 5.3 15.5 5.5 14.8 5.65 14.8 M5.7 14.05 L5.95 14.05 5.8 14.5 5.6 14.45 5.7 14.05 M6.2 13.25 L6.05 13.75 5.8 13.75 5.95 13.2 6.2 13.25 M6.45 11.65 L6.7 11.65 6.65 11.9 6.4 11.85 6.45 11.65 M6.3 12.2 L6.3 12.25 6.6 12.1 6.3 13.05 6.05 12.95 6.1 12.75 6.3 12.2 M7.0 9.9 L7.25 9.95 7.1 10.4 6.8 10.5 7.0 9.9 M6.75 10.75 L6.8 10.75 6.95 11.1 6.8 11.35 6.55 11.35 6.75 10.75 M7.35 8.9 L7.4 9.0 7.55 8.95 7.35 9.7 7.15 9.65 7.1 9.65 7.35 8.9 M7.65 8.0 L7.85 7.9 7.65 8.65 7.5 8.65 7.4 8.75 7.65 8.0 M8.0 7.1 L8.0 7.15 8.1 7.15 7.95 7.65 7.8 7.65 8.0 7.1 M8.95 6.75 L9.25 7.15 8.6 7.75 8.95 8.15 9.3 8.65 8.85 9.2 Q8.35 9.5 8.35 9.55 L8.6 9.95 8.85 10.45 8.3 10.95 Q7.7 11.15 7.7 11.3 L8.15 12.0 7.75 12.4 Q7.3 12.6 7.3 12.7 L7.55 13.05 7.8 13.4 7.45 13.7 7.05 14.0 7.3 14.4 7.55 14.75 7.15 15.1 Q6.7 15.25 6.7 15.5 L7.15 16.15 6.6 16.45 6.4 16.7 6.85 17.45 6.25 17.65 6.05 17.85 6.35 18.25 6.6 18.6 5.9 18.85 Q5.6 18.9 5.6 19.1 5.6 19.45 6.25 19.75 L6.2 19.85 5.35 20.1 5.5 20.4 5.75 20.7 5.4 20.9 5.15 21.25 5.75 21.7 Q5.75 21.85 5.35 22.0 5.0 22.15 5.0 22.35 5.25 22.4 5.75 22.9 L4.8 23.3 5.05 23.7 5.35 24.05 4.75 24.2 4.3 24.45 4.5 24.7 4.7 24.8 4.15 24.7 4.1 24.6 4.05 24.6 3.8 24.6 3.4 24.35 4.1 22.5 4.4 21.35 4.4 21.25 4.55 20.65 4.6 20.55 4.55 20.5 4.6 20.2 4.95 18.4 4.95 18.35 5.05 17.75 5.1 17.6 5.1 17.55 5.55 15.85 5.65 15.7 5.6 15.65 5.65 15.5 5.95 14.7 5.95 14.65 7.05 11.55 7.05 11.35 7.7 9.6 8.5 7.1 8.55 7.0 8.5 6.95 8.6 6.7 8.6 6.9 8.65 6.6 8.8 6.65 8.8 6.6 8.95 6.75 M14.7 12.15 L14.6 12.2 14.45 11.8 14.6 11.8 14.7 12.15 M14.4 11.6 L14.25 11.2 14.4 11.15 14.55 11.55 14.4 11.6 M13.8 9.8 L13.7 9.4 13.85 9.3 14.0 9.8 13.8 9.8 M14.1 10.7 L14.2 10.65 14.25 10.55 14.35 10.95 14.2 10.95 14.1 10.7 M14.2 10.4 L14.0 10.4 13.9 10.0 14.05 9.95 14.2 10.4 M13.7 8.7 L13.8 9.1 13.6 9.15 13.45 8.75 13.7 8.7 M13.65 8.55 L13.4 8.6 13.25 8.15 13.45 8.0 13.65 8.55 M12.9 7.15 L13.15 7.0 13.4 7.85 13.15 7.9 12.9 7.15 M3.4 23.7 L3.25 24.25 3.15 24.15 Q2.95 23.95 3.05 23.6 L3.4 23.7 M17.7 24.2 L17.7 24.1 17.5 22.9 17.9 22.7 17.95 23.0 Q17.6 23.05 17.6 23.25 L17.7 23.45 18.05 23.35 18.15 23.6 17.65 23.6 17.75 23.85 18.2 23.85 18.3 24.1 18.15 24.1 17.7 24.2 M17.3 21.95 L17.65 21.95 17.8 22.45 17.6 22.5 17.45 22.65 17.3 21.95 M17.2 21.6 L17.35 21.5 17.55 21.5 17.6 21.7 17.25 21.75 17.2 21.6 M17.4 21.05 L17.45 21.25 17.3 21.25 17.1 21.35 17.05 21.1 17.4 21.05 M17.25 20.55 L17.3 20.75 17.0 20.85 16.9 20.5 17.05 20.6 17.25 20.55 M17.0 19.65 L16.9 19.65 16.75 19.8 16.65 19.5 16.9 19.35 17.0 19.65 M16.8 20.1 L17.1 19.95 17.2 20.3 Q16.95 20.35 16.9 20.5 L16.8 20.1 M16.65 18.8 L16.75 18.8 16.85 19.15 16.65 19.2 16.6 19.25 16.5 18.95 16.5 18.85 16.65 18.8 M15.05 13.65 L15.15 13.6 15.25 13.9 15.1 13.9 15.05 13.65 M14.85 13.0 L15.0 13.0 15.1 13.4 15.0 13.45 14.85 13.0 M14.75 12.7 L14.65 12.45 14.8 12.35 14.9 12.7 14.75 12.7 M16.55 18.2 L16.65 18.55 16.4 18.6 16.35 18.3 16.55 18.2 M16.1 17.5 L16.3 17.4 16.4 17.6 16.15 17.65 16.1 17.5 M16.3 18.1 L16.25 17.95 16.45 17.85 16.5 18.0 16.3 18.1 M15.95 16.9 L16.15 16.85 16.25 17.15 16.1 17.15 16.05 17.2 15.95 16.9 M16.05 16.55 L15.9 16.6 15.85 16.4 16.0 16.3 16.05 16.55 M15.75 16.05 L15.7 15.8 15.8 15.75 15.9 16.0 15.75 16.05 M15.5 15.2 L15.6 15.1 15.7 15.45 15.6 15.5 15.5 15.2 M15.35 14.7 L15.45 14.65 15.55 14.95 15.5 14.95 15.45 15.0 15.35 14.7 M15.3 14.1 L15.4 14.4 15.3 14.4 15.2 14.1 15.3 14.1" fill="#aacd00" fill-rule="evenodd" stroke="none"/>
      <path d="M21.2 23.35 L20.0 23.95 20.0 24.05 19.85 24.15 19.75 24.05 19.5 24.1 19.5 24.15 18.85 24.25 18.85 24.3 16.3 25.0 Q15.0 25.35 15.7 25.4 16.35 25.45 14.3 25.75 L11.25 25.95 10.5 25.95 10.0 25.95 9.05 25.9 6.8 25.7 2.9 24.75 2.85 24.75 2.6 24.7 1.75 24.45 1.0 24.15 0.9 24.15 0.85 24.1 -0.75 22.75 -0.7 22.35 -0.45 22.55 0.75 23.5 0.75 23.35 0.95 23.5 0.75 23.0 Q0.75 22.4 1.65 22.25 L1.3 21.45 Q1.3 20.95 2.1 20.7 L1.85 19.9 2.05 19.35 Q2.3 19.0 2.65 19.05 L2.4 18.35 Q2.4 18.0 2.7 17.65 L3.0 17.25 2.8 16.6 Q2.8 15.6 3.8 15.7 L3.5 14.7 Q3.5 14.0 4.15 13.75 L3.9 13.0 4.1 12.35 4.75 12.0 4.5 11.35 Q4.5 10.55 5.3 10.5 L5.1 9.9 Q5.1 9.25 6.05 8.75 L5.95 8.3 Q5.95 7.8 6.1 7.55 6.35 7.15 7.0 7.0 7.0 6.1 7.45 5.8 L7.3 5.3 Q7.5 4.6 8.3 4.05 L8.55 4.05 Q7.8 4.7 7.65 5.7 L7.7 5.65 7.8 5.75 7.6 5.9 7.6 6.15 7.6 6.35 7.55 6.0 Q7.25 6.4 7.25 7.15 L6.9 7.45 6.4 7.65 6.2 8.3 6.4 8.85 6.35 9.0 Q5.85 9.05 5.55 9.35 L5.35 9.85 5.5 10.2 5.65 10.55 5.2 10.8 Q4.75 11.0 4.75 11.35 L5.15 12.05 5.1 12.2 Q4.15 12.25 4.15 13.0 4.15 13.25 4.5 13.85 L3.9 14.2 Q3.75 14.35 3.75 14.7 L3.95 15.2 4.1 15.75 3.95 16.0 Q3.4 15.8 3.2 16.15 L3.05 16.55 3.3 17.35 3.0 17.7 Q2.65 18.0 2.65 18.35 L3.0 19.05 2.55 19.35 Q2.1 19.65 2.1 19.9 L2.25 20.35 2.4 20.75 2.0 21.05 Q1.55 21.2 1.55 21.45 L1.8 22.0 2.05 22.25 1.55 22.55 Q1.0 22.65 1.0 23.0 L1.3 23.45 1.7 23.75 1.6 23.9 2.25 23.8 2.95 22.5 3.55 20.7 4.0 18.9 4.5 17.0 5.0 15.45 5.3 14.65 5.3 14.5 5.35 14.5 5.55 13.75 6.0 12.0 Q6.55 9.7 7.2 8.2 L8.05 5.8 Q8.3 4.9 8.75 4.3 L8.9 4.05 9.3 4.05 8.85 5.05 8.05 6.9 8.15 6.9 8.35 6.2 8.55 6.2 8.7 5.7 9.55 4.9 9.8 4.05 10.0 4.05 Q10.0 4.9 9.4 5.4 8.9 5.85 8.8 6.35 L9.2 6.55 9.5 7.15 9.05 7.8 9.35 8.2 9.55 8.65 Q9.55 9.2 8.7 9.6 L9.1 10.5 Q9.1 11.0 7.95 11.3 L8.25 11.7 8.4 12.05 8.25 12.4 7.6 12.75 7.85 13.05 8.05 13.4 7.35 14.0 7.6 14.35 7.8 14.8 6.95 15.5 7.4 16.15 6.65 16.75 7.1 17.4 6.9 17.75 6.4 17.95 6.75 18.2 6.85 18.5 6.0 19.1 5.9 19.15 6.5 19.75 6.35 20.05 5.85 20.25 5.75 20.3 6.05 20.65 5.55 21.15 6.0 21.7 5.5 22.25 5.8 22.55 6.0 22.9 Q6.0 23.1 5.2 23.45 L5.65 24.0 5.4 24.25 4.8 24.45 4.7 24.5 5.15 24.9 5.15 24.95 8.55 25.35 9.3 25.3 9.4 24.45 9.65 20.5 9.6 16.5 9.8 12.65 9.9 8.7 9.9 7.45 9.95 7.45 9.9 7.45 10.0 4.8 10.05 4.05 10.65 4.05 10.65 4.5 10.35 8.25 Q10.3 9.9 10.4 11.4 L10.45 14.45 10.4 16.85 10.3 19.85 10.3 23.1 10.4 25.05 12.9 25.1 15.65 24.8 15.55 24.45 15.85 23.95 15.4 23.7 15.4 23.1 15.75 22.85 15.8 22.8 Q15.1 22.65 15.1 22.2 15.1 21.9 15.4 21.7 14.75 21.5 14.75 21.0 L14.85 20.75 15.05 20.5 15.1 20.45 14.5 20.15 14.45 19.8 Q14.45 19.35 14.7 19.2 L14.75 19.15 14.25 18.9 14.2 18.55 Q14.2 18.0 14.55 17.95 14.0 17.75 14.0 17.35 L14.1 17.0 14.35 16.6 14.4 16.55 13.9 16.3 13.85 16.0 Q13.85 15.5 14.1 15.3 L14.15 15.2 Q13.4 14.9 13.4 14.5 L13.5 14.05 Q12.95 14.0 12.95 13.55 L12.95 13.15 13.3 12.8 13.35 12.75 12.65 12.2 12.95 11.75 12.4 11.35 12.3 10.9 Q12.3 10.45 12.45 10.2 L12.0 9.95 11.95 9.65 Q11.95 9.25 12.1 9.2 11.6 9.1 11.6 8.65 11.6 8.2 11.85 8.1 L11.45 7.35 Q11.45 6.7 11.9 6.45 L12.15 6.6 11.85 7.0 11.7 7.35 Q11.7 7.7 12.35 8.0 L12.05 8.25 11.85 8.65 12.0 8.9 12.5 8.9 12.65 8.95 12.7 9.0 12.35 9.35 Q12.2 9.45 12.2 9.65 L12.25 9.85 12.8 9.95 12.95 10.05 12.55 10.95 13.5 11.6 12.9 12.2 13.7 12.45 13.85 12.55 13.55 12.9 13.2 13.35 13.2 13.75 14.1 13.75 14.2 13.85 13.8 14.2 13.65 14.5 13.8 14.8 14.6 14.85 14.8 14.95 14.3 15.45 14.1 15.95 14.15 16.2 14.85 16.35 14.95 16.45 14.55 16.9 14.25 17.3 14.45 17.65 15.0 17.65 15.15 17.75 14.65 18.1 14.45 18.55 14.5 18.75 15.15 18.9 15.25 19.0 14.9 19.45 14.7 19.75 14.75 20.0 15.5 20.15 15.65 20.25 15.2 20.65 15.0 21.0 Q15.0 21.4 15.9 21.4 L16.0 21.5 15.55 21.85 15.35 22.25 15.5 22.4 16.25 22.55 16.4 22.65 15.65 23.25 15.65 23.6 16.55 23.7 16.65 23.8 Q15.8 24.3 15.8 24.45 L15.95 24.6 16.0 24.55 16.55 24.35 16.35 24.6 17.45 24.25 17.45 24.1 14.5 12.85 13.5 10.1 13.5 10.0 11.4 4.05 11.8 4.05 12.8 6.9 Q12.95 6.75 13.1 6.75 L12.85 6.0 12.85 5.75 12.95 5.75 13.4 6.85 13.45 6.9 13.8 8.05 14.5 10.4 15.15 12.45 15.15 12.4 15.4 13.2 15.6 13.8 15.8 14.45 15.95 15.0 16.95 18.7 17.2 19.55 17.25 19.65 17.35 19.75 17.3 19.8 17.4 20.25 17.5 20.35 17.45 20.4 17.55 20.7 17.6 20.8 17.6 20.9 17.8 21.65 17.85 21.65 17.9 21.9 18.3 23.35 18.4 23.55 18.55 23.8 18.45 23.85 18.5 24.0 18.95 23.9 18.9 23.85 18.85 23.7 19.5 23.05 18.7 22.95 18.65 22.8 19.35 22.05 18.85 22.15 18.45 22.15 18.4 22.0 18.7 21.8 19.2 21.4 19.25 20.95 18.35 20.95 18.3 20.8 18.9 19.8 Q18.9 19.5 17.85 19.5 L17.8 19.35 18.05 18.9 18.5 18.35 17.75 18.35 17.7 18.2 17.95 17.9 18.2 17.55 18.05 17.4 17.35 17.35 17.3 17.2 17.8 16.2 17.6 15.85 16.8 15.85 16.8 15.55 17.3 14.7 Q17.3 14.4 16.9 14.4 L16.35 14.5 16.3 14.35 16.6 13.3 16.5 13.05 15.95 13.0 15.9 12.85 16.2 12.25 16.05 12.0 15.4 11.75 15.75 10.95 15.55 10.45 14.85 10.25 14.8 10.1 15.0 9.8 15.2 9.45 14.9 9.1 14.55 8.85 14.7 8.6 15.0 8.3 14.5 8.2 14.1 7.9 14.55 7.25 Q14.55 6.95 13.75 6.8 L13.75 6.55 13.95 6.3 Q13.95 5.65 13.1 5.9 L13.0 5.75 12.8 5.35 12.9 4.8 12.65 4.05 12.95 4.05 13.15 4.75 13.05 5.35 13.15 5.55 Q14.35 5.6 14.15 6.6 L14.65 6.85 14.8 7.25 14.5 7.8 14.45 7.85 Q15.25 8.05 15.25 8.35 L14.9 8.85 Q15.45 8.9 15.45 9.45 L15.2 9.95 Q16.0 10.4 16.0 10.95 L15.75 11.55 Q16.45 11.65 16.45 12.25 L16.25 12.75 16.8 12.95 16.85 13.3 16.65 14.15 16.85 14.1 Q17.5 14.1 17.55 14.7 L17.1 15.55 18.0 15.8 18.05 16.2 17.65 17.1 Q18.45 17.0 18.45 17.55 L18.25 18.0 Q18.75 17.95 18.75 18.35 L18.65 18.8 18.25 19.25 Q19.15 19.35 19.15 19.8 L18.75 20.7 18.9 20.65 19.25 20.65 19.55 20.95 19.3 21.4 18.8 21.9 19.35 21.75 19.65 22.0 19.2 22.65 19.15 22.7 19.6 22.8 19.75 23.0 19.4 23.5 19.55 23.55 19.65 23.5 19.7 23.55 21.05 22.75 21.2 23.35 M12.9 7.15 L13.15 7.9 13.4 7.85 13.15 7.0 12.9 7.15 M13.65 8.55 L13.45 8.0 13.25 8.15 13.4 8.6 13.65 8.55 M13.45 8.75 L13.6 9.15 13.8 9.1 13.7 8.7 13.45 8.75 M14.1 10.7 L14.2 10.95 14.35 10.95 14.25 10.55 14.2 10.65 14.1 10.7 M14.05 9.95 L13.9 10.0 14.0 10.4 14.2 10.4 14.05 9.95 M13.8 9.8 L14.0 9.8 13.85 9.3 13.7 9.4 13.8 9.8 M14.55 11.55 L14.4 11.15 14.25 11.2 14.4 11.6 14.55 11.55 M14.6 11.8 L14.45 11.8 14.6 12.2 14.7 12.15 14.6 11.8 M8.95 6.75 L8.8 6.6 8.8 6.65 8.65 6.6 8.6 6.9 8.6 6.7 8.5 6.95 8.55 7.0 8.5 7.1 7.7 9.6 7.05 11.35 7.05 11.55 5.95 14.65 5.95 14.7 5.65 15.5 5.6 15.65 5.65 15.7 5.55 15.85 5.1 17.55 5.1 17.6 5.05 17.75 4.95 18.35 4.95 18.4 4.6 20.2 4.55 20.5 4.6 20.55 4.55 20.65 4.4 21.25 4.4 21.35 4.1 22.5 3.4 24.35 3.8 24.6 4.05 24.6 4.1 24.6 4.15 24.7 4.7 24.8 4.5 24.7 4.3 24.45 4.75 24.2 5.35 24.05 5.05 23.7 4.8 23.3 5.75 22.9 Q5.25 22.4 5.0 22.35 5.0 22.15 5.35 22.0 5.75 21.85 5.75 21.7 L5.15 21.25 5.4 20.9 5.75 20.7 5.5 20.4 5.35 20.1 6.2 19.85 6.25 19.75 Q5.6 19.45 5.6 19.1 5.6 18.9 5.9 18.85 L6.6 18.6 6.35 18.25 6.05 17.85 6.25 17.65 6.85 17.45 6.4 16.7 6.6 16.45 7.15 16.15 6.7 15.5 Q6.7 15.25 7.15 15.1 L7.55 14.75 7.3 14.4 7.05 14.0 7.45 13.7 7.8 13.4 7.55 13.05 7.3 12.7 Q7.3 12.6 7.75 12.4 L8.15 12.0 7.7 11.3 Q7.7 11.15 8.3 10.95 L8.85 10.45 8.6 9.95 8.35 9.55 Q8.35 9.5 8.85 9.2 L9.3 8.65 8.95 8.15 8.6 7.75 9.25 7.15 8.95 6.75 M8.1 7.15 L8.0 7.15 8.0 7.1 7.8 7.65 7.95 7.65 8.1 7.15 M7.65 8.0 L7.4 8.75 7.5 8.65 7.65 8.65 7.85 7.9 7.65 8.0 M7.35 8.9 L7.1 9.65 7.15 9.65 7.35 9.7 7.55 8.95 7.4 9.0 7.35 8.9 M7.0 9.9 L6.8 10.5 7.1 10.4 7.25 9.95 7.0 9.9 M6.75 10.75 L6.55 11.35 6.8 11.35 6.95 11.1 6.8 10.75 6.75 10.75 M6.3 12.2 L6.1 12.75 6.05 12.95 6.3 13.05 6.6 12.1 6.3 12.25 6.3 12.2 M6.65 11.9 L6.7 11.65 6.45 11.65 6.4 11.85 6.65 11.9 M6.2 13.25 L5.95 13.2 5.8 13.75 6.05 13.75 6.2 13.25 M5.95 14.05 L5.7 14.05 5.6 14.45 5.8 14.5 5.95 14.05 M5.65 14.8 L5.5 14.8 5.3 15.5 5.4 15.55 5.55 15.05 5.65 14.8 M5.3 15.8 L5.2 15.75 5.05 16.4 5.1 16.45 5.3 15.8 M5.0 16.6 L4.95 16.65 4.75 17.4 4.85 17.4 5.05 16.65 5.0 16.6 M4.7 17.65 L4.55 18.2 4.7 18.25 4.8 17.7 4.7 17.65 M4.5 18.45 L4.35 19.05 4.55 19.05 4.65 18.5 4.5 18.45 M4.05 20.0 L3.95 20.45 4.25 20.45 4.35 20.0 4.05 20.0 M4.5 19.3 L4.25 19.3 4.15 19.75 4.45 19.75 4.45 19.6 4.5 19.3 M3.9 20.55 L3.8 20.95 4.1 21.1 4.2 20.7 3.95 20.7 3.9 20.55 M3.7 21.2 L3.55 21.75 3.9 21.9 4.05 21.35 3.7 21.2 M1.0 23.65 L1.1 23.7 1.0 23.6 1.0 23.65 M3.3 22.65 L3.65 22.75 3.8 22.15 3.5 22.05 3.3 22.65 M3.25 22.9 L3.15 23.15 3.1 23.3 3.45 23.45 3.6 23.05 3.25 22.9 M3.15 24.15 L3.25 24.25 3.4 23.7 3.05 23.6 Q2.95 23.95 3.15 24.15 M15.35 14.7 L15.45 15.0 15.5 14.95 15.55 14.95 15.45 14.65 15.35 14.7 M15.3 14.1 L15.2 14.1 15.3 14.4 15.4 14.4 15.3 14.1 M15.5 15.2 L15.6 15.5 15.7 15.45 15.6 15.1 15.5 15.2 M15.75 16.05 L15.9 16.0 15.8 15.75 15.7 15.8 15.75 16.05 M16.0 16.3 L15.85 16.4 15.9 16.6 16.05 16.55 16.0 16.3 M15.95 16.9 L16.05 17.2 16.1 17.15 16.25 17.15 16.15 16.85 15.95 16.9 M16.1 17.5 L16.15 17.65 16.4 17.6 16.3 17.4 16.1 17.5 M16.3 18.1 L16.5 18.0 16.45 17.85 16.25 17.95 16.3 18.1 M16.55 18.2 L16.35 18.3 16.4 18.6 16.65 18.55 16.55 18.2 M14.9 12.7 L14.8 12.35 14.65 12.45 14.75 12.7 14.9 12.7 M14.85 13.0 L15.0 13.45 15.1 13.4 15.0 13.0 14.85 13.0 M15.05 13.65 L15.1 13.9 15.25 13.9 15.15 13.6 15.05 13.65 M16.5 18.95 L16.6 19.25 16.65 19.2 16.85 19.15 16.75 18.8 16.65 18.8 16.5 18.85 16.5 18.95 M17.0 19.65 L16.9 19.35 16.65 19.5 16.75 19.8 16.9 19.65 17.0 19.65 M16.8 20.1 L16.9 20.5 Q16.95 20.35 17.2 20.3 L17.1 19.95 16.8 20.1 M17.25 20.55 L17.05 20.6 16.9 20.5 17.0 20.85 17.3 20.75 17.25 20.55 M17.45 21.25 L17.4 21.05 17.05 21.1 17.1 21.35 17.3 21.25 17.45 21.25 M17.2 21.6 L17.25 21.75 17.6 21.7 17.55 21.5 17.35 21.5 17.2 21.6 M17.3 21.95 L17.45 22.65 17.6 22.5 17.8 22.45 17.65 21.95 17.3 21.95 M17.7 24.2 L18.15 24.1 18.3 24.1 18.2 23.85 17.75 23.85 17.65 23.6 18.15 23.6 18.05 23.35 17.7 23.45 17.6 23.25 Q17.6 23.05 17.95 23.0 L17.9 22.7 17.5 22.9 17.7 24.1 17.7 24.2" fill="#819c00" fill-rule="evenodd" stroke="none"/>
      <path d="M12.2 9.7 L11.95 9.75 Q11.3 9.7 11.2 9.5 L11.0 9.15 11.0 9.0 Q11.0 8.6 11.25 8.4 11.4 8.15 11.85 8.2 12.6 8.25 12.55 9.0 12.55 9.55 12.2 9.7 M11.8 13.1 L12.0 13.0 Q12.2 13.0 12.2 13.3 L11.9 13.6 11.6 13.35 11.5 13.4 11.5 13.7 11.9 13.85 Q12.5 13.85 12.5 13.25 L12.4 13.0 12.0 12.75 Q11.7 12.75 11.7 12.9 L11.8 13.1 M11.9 8.35 Q11.6 8.35 11.55 8.5 L11.65 8.7 11.85 8.6 12.05 8.9 11.75 9.2 11.45 8.95 11.35 9.0 11.35 9.3 11.75 9.45 Q12.35 9.45 12.35 8.85 L12.25 8.6 11.9 8.35 M12.35 14.1 L12.1 14.15 Q11.45 14.1 11.35 13.9 L11.15 13.55 11.15 13.4 11.35 12.8 Q11.55 12.55 11.95 12.6 12.7 12.65 12.7 13.4 12.7 13.95 12.35 14.1 M12.45 18.35 L12.2 18.4 11.45 18.15 11.25 17.8 11.25 17.65 11.45 17.05 Q11.6 16.8 12.05 16.85 12.8 16.9 12.8 17.65 12.8 18.2 12.45 18.35 M12.1 17.25 Q12.3 17.25 12.3 17.55 L12.0 17.85 11.7 17.6 11.6 17.65 11.6 17.95 12.0 18.1 Q12.6 18.1 12.6 17.5 L12.5 17.25 Q12.3 17.0 12.1 17.0 11.8 17.0 11.8 17.15 L11.9 17.35 12.1 17.25 M11.45 21.25 Q11.6 21.0 12.05 21.05 12.8 21.1 12.8 21.85 12.8 22.4 12.45 22.55 L12.2 22.6 11.45 22.35 11.25 22.0 11.25 21.85 11.45 21.25 M12.1 21.2 Q11.8 21.2 11.8 21.35 L11.9 21.55 12.1 21.45 Q12.3 21.45 12.3 21.75 L12.0 22.05 11.7 21.8 11.6 21.85 11.6 22.15 12.0 22.3 Q12.6 22.3 12.6 21.7 L12.5 21.45 Q12.3 21.2 12.1 21.2" fill="#97826f" fill-rule="evenodd" stroke="none"/>
      <path d="M11.25 8.4 Q11.0 8.6 11.0 9.0 L11.0 9.15 11.2 9.5 Q11.3 9.7 11.95 9.75 L12.2 9.7 Q12.05 9.9 11.75 9.9 L11.0 9.65 10.8 9.3 10.8 9.15 Q10.8 8.55 11.25 8.4 M11.9 8.35 L12.25 8.6 12.35 8.85 Q12.35 9.45 11.75 9.45 L11.35 9.3 11.35 9.0 11.45 8.95 11.75 9.2 12.05 8.9 11.85 8.6 11.65 8.7 11.55 8.5 Q11.6 8.35 11.9 8.35 M11.8 13.1 L11.7 12.9 Q11.7 12.75 12.0 12.75 L12.4 13.0 12.5 13.25 Q12.5 13.85 11.9 13.85 L11.5 13.7 11.5 13.4 11.6 13.35 11.9 13.6 12.2 13.3 Q12.2 13.0 12.0 13.0 L11.8 13.1 M12.35 14.1 L11.9 14.3 11.15 14.05 10.95 13.7 10.95 13.55 Q10.95 12.95 11.35 12.8 L11.15 13.4 11.15 13.55 11.35 13.9 Q11.45 14.1 12.1 14.15 L12.35 14.1 M11.45 17.05 L11.25 17.65 11.25 17.8 11.45 18.15 12.2 18.4 12.45 18.35 12.0 18.55 Q11.35 18.5 11.25 18.3 L11.05 17.95 11.05 17.8 Q11.05 17.2 11.45 17.05 M12.1 17.25 L11.9 17.35 11.8 17.15 Q11.8 17.0 12.1 17.0 12.3 17.0 12.5 17.25 L12.6 17.5 Q12.6 18.1 12.0 18.1 L11.6 17.95 11.6 17.65 11.7 17.6 12.0 17.85 12.3 17.55 Q12.3 17.25 12.1 17.25 M12.45 22.55 L12.0 22.75 Q11.35 22.7 11.25 22.5 L11.05 22.15 11.05 22.0 Q11.05 21.4 11.45 21.25 L11.25 21.85 11.25 22.0 11.45 22.35 12.2 22.6 12.45 22.55 M12.1 21.2 Q12.3 21.2 12.5 21.45 L12.6 21.7 Q12.6 22.3 12.0 22.3 L11.6 22.15 11.6 21.85 11.7 21.8 12.0 22.05 12.3 21.75 Q12.3 21.45 12.1 21.45 L11.9 21.55 11.8 21.35 Q11.8 21.2 12.1 21.2" fill="#4d3c2e" fill-rule="evenodd" stroke="none"/>
      <path d="M12.95 1.4 L13.1 1.45 13.1 1.4 13.15 1.45 13.55 1.75 Q13.55 2.05 14.05 2.25 L14.2 2.75 14.05 3.15 Q14.45 3.2 14.45 3.55 L14.4 3.75 14.1 4.1 14.05 4.15 14.0 4.2 14.4 4.8 14.35 5.05 14.05 5.4 13.8 5.5 13.85 5.5 14.1 6.0 Q14.1 6.65 13.25 6.65 L13.3 6.95 Q13.3 7.45 12.9 7.45 L12.4 7.25 12.35 7.15 12.3 7.3 12.35 7.25 12.35 7.3 12.25 7.4 11.8 7.65 11.4 7.5 11.45 7.45 11.25 7.35 11.2 7.25 11.2 7.3 11.15 7.25 10.85 7.3 Q10.35 7.3 10.3 6.55 L10.25 6.7 9.7 7.2 9.45 7.15 9.4 7.3 9.35 7.35 8.8 7.6 Q8.45 7.6 8.35 7.35 L8.3 7.3 8.25 7.25 8.25 7.2 8.3 7.25 8.25 7.1 8.15 7.2 7.65 7.4 Q7.2 7.4 7.2 6.9 L7.25 6.6 Q6.35 6.6 6.35 5.95 6.35 5.75 6.65 5.45 L6.7 5.45 6.4 5.35 6.1 5.0 6.05 4.75 6.5 4.15 6.55 4.15 6.45 4.1 6.35 4.05 6.05 3.7 6.0 3.5 Q6.0 3.15 6.4 3.1 L6.25 2.7 6.45 2.2 6.95 1.7 Q7.2 1.35 7.6 1.35 L7.9 1.4 7.6 1.8 7.5 2.0 7.45 2.05 7.4 2.2 7.2 2.95 7.05 3.6 7.05 3.8 7.1 4.35 7.1 4.4 Q7.3 5.4 7.75 6.05 8.25 6.65 9.0 6.55 L9.3 6.5 9.45 6.45 9.5 6.45 9.8 6.35 9.9 6.15 9.95 6.15 10.15 5.9 10.45 6.15 11.1 6.5 11.0 6.5 11.05 6.55 11.3 6.6 11.75 6.65 Q12.4 6.65 12.6 6.35 L12.8 6.1 12.9 6.0 13.0 5.85 13.2 5.4 13.4 4.25 13.15 2.55 12.85 1.7 12.95 1.6 12.8 1.45 12.95 1.4 M13.5 2.45 L13.4 2.45 13.4 2.5 13.45 2.5 13.5 2.5 13.5 2.45 M10.45 7.45 L10.5 7.4 10.5 7.5 10.45 7.45 M6.95 2.4 L6.95 2.35 6.8 2.35 6.95 2.4" fill="#ffffff" fill-rule="evenodd" stroke="none"/>
      <path d="M13.4 4.55 L14.25 5.3 14.05 5.4 13.8 5.5 13.85 5.5 14.1 6.0 Q14.1 6.65 13.25 6.65 L13.3 6.95 Q13.3 7.45 12.9 7.45 L12.4 7.25 12.35 7.15 12.3 7.3 12.35 7.25 12.35 7.3 12.25 7.4 11.8 7.65 11.4 7.5 11.45 7.45 11.35 7.4 10.9 6.45 11.1 6.5 11.0 6.5 11.05 6.55 11.3 6.6 11.75 6.65 Q12.4 6.65 12.6 6.35 L12.8 6.1 12.9 6.0 13.0 5.85 13.2 5.4 13.4 4.55 M9.15 7.5 L8.8 7.6 Q8.45 7.6 8.35 7.35 L8.3 7.3 8.25 7.25 8.25 7.2 8.3 7.25 8.25 7.1 8.15 7.2 7.65 7.4 Q7.2 7.4 7.2 6.9 L7.25 6.6 Q6.35 6.6 6.35 5.95 6.35 5.75 6.65 5.45 L6.7 5.45 6.4 5.35 6.25 5.25 7.1 4.45 Q7.3 5.4 7.75 6.05 8.25 6.65 9.0 6.55 L9.3 6.5 9.45 6.45 9.5 6.45 9.6 6.45 9.15 7.5" fill="#ffffff" fill-rule="evenodd" stroke="none"/>
      <path d="M13.4 4.55 L13.4 3.95 13.15 2.55 12.85 1.7 12.95 1.6 12.8 1.45 12.95 1.4 13.1 1.45 13.1 1.4 13.15 1.45 13.55 1.75 Q13.55 2.05 14.05 2.25 L14.2 2.75 14.05 3.15 Q14.45 3.2 14.45 3.55 L14.4 3.75 14.1 4.1 14.05 4.15 14.0 4.2 14.4 4.8 14.35 5.05 14.25 5.3 13.4 4.55 M11.35 7.4 L11.25 7.35 11.2 7.25 11.2 7.3 11.15 7.25 10.85 7.3 Q10.35 7.3 10.3 6.55 L10.25 6.7 9.7 7.2 9.45 7.15 9.4 7.3 9.35 7.35 9.15 7.5 9.6 6.45 9.8 6.35 9.9 6.15 9.95 6.15 10.15 5.9 10.45 6.15 10.9 6.45 11.35 7.4 M6.25 5.25 L6.1 5.0 6.05 4.75 6.5 4.15 6.55 4.15 6.45 4.1 6.35 4.05 6.05 3.7 6.0 3.5 Q6.0 3.15 6.4 3.1 L6.25 2.7 6.45 2.2 6.95 1.7 Q7.2 1.35 7.6 1.35 L8.2 1.55 8.1 1.8 7.95 2.05 7.7 2.2 Q7.6 2.15 7.65 2.35 L7.4 2.9 7.05 3.6 7.05 3.8 7.1 4.35 7.1 4.4 7.1 4.45 6.25 5.25 M13.5 2.5 L13.5 2.45 13.4 2.45 13.4 2.5 13.45 2.5 13.5 2.5 M6.8 2.35 L6.95 2.4 6.95 2.35 6.8 2.35" fill="#cde2f5" fill-rule="evenodd" stroke="none"/>
      <path d="M12.55 1.25 L13.35 2.9 13.5 4.15 13.6 4.7 13.6 4.85 13.2 5.75 Q12.5 6.9 11.55 6.9 10.95 6.9 10.55 6.55 10.2 6.25 10.2 6.0 L10.15 5.95 Q9.8 6.5 9.15 6.7 L8.55 6.7 Q7.7 6.3 7.4 5.6 6.95 4.7 6.95 4.3 6.95 3.45 7.55 2.3 L7.6 2.2 8.15 1.4 Q8.85 0.55 9.8 0.55 10.85 0.55 11.9 1.05 L11.9 1.0 12.3 1.2 12.4 1.25 12.55 1.25" fill="#aacd00" fill-rule="evenodd" stroke="none"/>
      <path d="M13.35 2.6 L13.45 2.85 Q13.45 3.3 12.35 4.15 11.1 5.1 10.05 5.1 9.05 5.1 7.95 4.15 L7.15 3.25 Q7.3 2.45 8.65 0.8 L9.45 0.5 10.3 0.5 12.2 1.1 13.0 1.8 13.35 2.6 M10.05 13.2 L10.0 20.3 9.9 21.6 9.8 24.0 Q9.9 25.7 9.7 25.6 L8.55 25.5 7.95 25.45 7.55 25.4 6.75 25.35 6.4 25.4 3.9 24.75 0.85 23.6 0.15 23.15 2.15 23.9 4.35 24.45 5.05 24.55 5.75 24.6 Q7.85 24.05 8.65 22.45 9.25 21.5 9.45 20.2 L9.7 17.65 10.05 13.2" fill="#000000" fill-opacity="0.29803923" fill-rule="evenodd" stroke="none"/>
      <path d="M15.05 7.2 L15.15 7.3 Q15.1 6.5 15.45 5.95 L15.7 5.65 16.4 5.2 17.1 5.2 17.8 5.8 17.85 5.9 17.8 6.5 17.75 6.7 17.25 7.7 17.3 7.75 17.0 8.0 17.4 7.95 Q18.0 7.95 18.85 8.5 L19.35 8.9 Q19.6 9.2 19.35 9.65 L18.6 10.2 Q17.9 10.5 16.75 9.9 L17.0 10.25 16.75 10.1 17.05 10.6 17.3 11.45 17.35 11.55 17.35 11.65 17.3 11.75 Q16.85 12.6 15.85 12.55 L15.7 12.5 14.9 11.45 14.85 10.35 Q14.8 10.3 14.7 10.4 14.05 11.35 12.7 11.15 L12.55 11.1 12.0 10.5 12.0 10.4 Q12.05 9.7 12.5 9.3 13.0 8.9 13.75 8.95 L13.6 9.2 13.55 9.55 Q13.0 9.8 12.8 10.15 12.6 10.5 12.95 10.85 13.35 11.05 15.0 9.35 14.95 10.35 15.35 10.75 15.6 11.75 15.95 12.05 L16.5 11.9 Q16.9 11.3 16.1 10.0 L15.95 9.8 15.9 9.7 15.35 9.25 16.5 9.55 17.45 9.7 Q18.5 9.85 18.5 9.45 18.5 9.0 17.75 8.75 L16.05 8.7 16.1 8.65 16.4 8.4 16.85 7.8 16.85 7.45 Q17.45 6.2 17.0 5.95 16.65 5.7 16.25 6.1 L15.85 6.7 15.65 7.3 15.45 8.15 15.45 8.25 15.35 8.4 15.15 8.0 14.9 7.75 14.8 7.55 14.55 7.4 14.05 6.9 13.3 6.95 Q13.15 7.25 13.4 7.8 L14.3 8.55 14.35 8.7 14.2 8.7 14.05 8.75 13.5 8.35 Q13.0 8.05 12.65 7.05 L12.7 6.35 13.3 5.8 13.4 5.8 13.85 5.95 14.2 6.2 Q14.65 6.4 14.8 6.9 L15.15 7.4 15.05 7.2" fill="#439866" fill-rule="evenodd" stroke="none"/>
      <path d="M15.45 8.15 L15.65 7.3 15.85 6.7 16.25 6.1 Q16.65 5.7 17.0 5.95 17.45 6.2 16.85 7.45 L16.4 7.2 Q15.7 7.05 15.45 8.15 M16.1 8.65 L16.05 8.7 17.75 8.75 Q18.5 9.0 18.5 9.45 18.5 9.85 17.45 9.7 L16.5 9.55 16.7 9.5 17.2 9.1 Q17.25 8.9 17.0 8.85 L15.75 8.8 15.75 8.75 15.9 8.7 16.1 8.65 M15.95 9.8 L16.1 10.0 Q16.9 11.3 16.5 11.9 L15.95 12.05 Q15.6 11.75 15.35 10.75 L15.7 10.85 15.75 10.85 Q16.15 10.9 16.25 10.5 L15.95 9.8 M15.0 9.35 Q13.35 11.05 12.95 10.85 12.6 10.5 12.8 10.15 13.0 9.8 13.55 9.55 L13.85 9.75 Q14.25 9.85 15.0 9.35 M14.55 7.4 L14.45 7.4 Q14.0 7.3 13.95 7.65 L14.1 8.25 14.3 8.55 13.4 7.8 Q13.15 7.25 13.3 6.95 L14.05 6.9 14.55 7.4" fill="#aacd00" fill-rule="evenodd" stroke="none"/>
      <path d="M15.05 7.2 L15.15 6.5 15.45 5.8 15.95 5.1 Q16.35 4.6 17.15 4.8 L17.45 4.95 17.55 5.15 Q18.25 5.5 18.2 6.05 L18.1 6.4 18.0 6.7 17.55 7.55 17.45 7.6 17.3 7.75 17.25 7.7 17.75 6.7 17.8 6.5 17.85 5.9 17.8 5.8 17.1 5.2 16.4 5.2 15.7 5.65 15.45 5.95 Q15.1 6.5 15.15 7.3 L15.05 7.2 M19.35 8.9 Q19.7 9.25 19.6 9.8 19.5 10.35 18.75 10.55 L17.0 10.25 16.75 9.9 Q17.9 10.5 18.6 10.2 L19.35 9.65 Q19.6 9.2 19.35 8.9 M17.3 11.75 L17.3 11.85 17.15 12.4 17.05 12.65 17.0 12.65 16.6 13.05 Q16.25 13.25 15.5 13.05 14.7 12.7 14.75 11.85 L14.75 10.8 14.85 10.35 14.15 11.2 Q13.15 12.0 12.4 11.5 11.6 11.05 11.65 10.45 L11.85 9.9 12.5 9.3 Q12.05 9.7 12.0 10.4 L12.0 10.5 12.55 11.1 12.7 11.15 Q14.05 11.35 14.7 10.4 14.8 10.3 14.85 10.35 L14.9 11.45 15.7 12.5 15.85 12.55 Q16.85 12.6 17.3 11.75 M13.75 8.9 L13.4 8.6 Q12.4 8.05 12.25 7.35 12.05 6.7 12.5 6.15 12.95 5.75 13.3 5.8 L12.7 6.35 12.65 7.05 Q13.0 8.05 13.5 8.35 L14.05 8.75 13.95 8.8 13.75 8.9" fill="#5b3d05" fill-rule="evenodd" stroke="none"/>
      <path d="M13.75 8.95 L13.85 8.9 13.95 8.8 14.05 8.75 14.2 8.7 14.35 8.7 14.3 8.55 14.1 8.25 13.95 7.65 Q14.0 7.3 14.45 7.4 L14.55 7.4 14.8 7.55 14.9 7.75 15.15 8.0 15.35 8.4 15.45 8.25 15.45 8.15 Q15.7 7.05 16.4 7.2 L16.85 7.45 16.85 7.8 16.4 8.4 16.1 8.65 15.9 8.7 15.75 8.75 15.75 8.8 17.0 8.85 Q17.25 8.9 17.2 9.1 L16.7 9.5 16.5 9.55 15.35 9.25 15.9 9.7 15.95 9.8 16.25 10.5 Q16.15 10.9 15.75 10.85 L15.7 10.85 15.35 10.75 Q14.95 10.35 15.0 9.35 14.25 9.85 13.85 9.75 L13.55 9.55 13.6 9.2 13.75 8.95" fill="#ffd79c" fill-rule="evenodd" stroke="none"/>
      <path d="M13.85 8.9 L13.75 8.9 13.95 8.8 13.85 8.9" fill="#ad0e4b" fill-rule="evenodd" stroke="none"/>
    </g>
  </defs>
</svg>
