<svg xmlns="http://www.w3.org/2000/svg" xmlns:ffdec="https://www.free-decompiler.com/flash" xmlns:xlink="http://www.w3.org/1999/xlink" ffdec:objectType="frame" width="20" height="22.45"><use ffdec:characterId="3" xlink:href="#a" width="20" height="22.45"/><defs><g id="a" fill-rule="evenodd"><path fill="#fff" d="m15.5.7.3-.2.35.65-.15.4-.15.2.35-.05.25.65-.15.85q-.2.6-.6.6h-.1l-.1.1-.1-.25-.25.05-.05-.2.1-.1-.2.1-.7-.85-.65-.9.2-.05.1-.05h-.15l-.05-.25.7-.3zm-9 .6.3.1-.05.25H6.6l.1.05.2.05-.65.9-.7.85-.15-.05.05.05-.05.2-.15-.05.15-.2L6.55 1.6zM4.8 3.8q-.35-.05-.55-.6l-.15-.85q0-.5.25-.65l.35.05-.05-.05.6-.05.35.1-.85.75-.35.25.05.4zm-.3-2.3-.1-.35.35-.65.3.2 1.05.4.15.1-.8.1z"/><path fill="#ccc" d="m6.25 1.2.1-.05.15.1v.05l.05.3L5.4 3.45l-.15.2-.3.4-.15-.25-.35-.65-.05-.4.35-.25.85-.75-.35-.1-.6.05-.2-.2h.05l.95-.2zM15.9 1.7l-.6-.05-.35.1.85.75.35.25-.05.4-.5.9L14 1.6l.05-.35.15-.1.9.15 1 .2z"/><path fill="#65933b" d="m8.55 10.3 1.55 1.55 1.55-1.55-1.55-1.55zm0-4.1 1.55 1.55 1.55-1.55-1.55-1.55zm3.25-2q.75.05 1.3-.45.75 1.2 1.2 2.8.9 3.25.5 6.55l-5.1-.45-4.15.4q-.4-3.3.5-6.55.45-1.6 1.1-2.7.5.45 1.25.4.9-.1 1.7-.8.8.7 1.7.8M.35 18.8v-.05q9.2 1.1 18.8 0l.4-.05q.55 1.65.4 3.3-9.95.9-19.9-.05H0l.05-.45z"/><path fill="#fff" d="M14.3 6.6q-.45-1.6-1.2-2.8-.55.55-1.3.45-.8-.05-1.7-.8-.9.75-1.7.8-.7.05-1.25-.4-.65 1.05-1.1 2.7-.9 3.15-.5 6.55l4.15-.4 5.1.45q.4-3.4-.5-6.55M12.1 0l2.1 1.1-.15.7q2.35 2.6 3.1 4.1 1.3 2.6.4 4.25 1.1 2.95 1.85 8.15l.15 1.05-.4.1Q9.9 20.55.2 19.35l.3-1.15q.7-4.25 2.15-8-.8-1.6.1-3.65.9-2.2 3.45-4.55L6 1.1 8.1 0l.7 1.3q.75 1.2 1.3 1.3.55-.1 1.3-1.3zM8.55 6.25 10.1 4.7l1.55 1.55L10.1 7.8zm0 4.1L10.1 8.8l1.55 1.55-1.55 1.55z"/><path fill-opacity=".2" d="M14.4 2.15q-.1.9-.95 1.9v.05q-1.1.85-2.85.5l1.6 1.6-2 2 1.95 2.2-1.7 1.8 4.35.5v.45l-5.1-.45-4.15.4q-.4-3.3.5-6.55l.9-2.3q-.9-1-1.15-1.9l.1-.1.25-.25h.05q.3 1.25.95 1.85.35.35.9.4h.35q.9-.1 1.7-.8.8.7 1.7.8.75.05 1.3-.45h.05q.6-.65.9-2zM9.3 4.4q-.9.6-2.05 0-.95 1.75-1.3 4.05t-.05 4.2l4.1-.4-.3-.75.4.4 1.55-1.55L10 8.7l.1-.9 1.55-1.55L10.1 4.7q-.05-.7-.8-.3"/><path fill-opacity=".298" d="M20 21.7v.3q-10.2.85-20 0v-.3q10 .9 20 0"/><path fill-opacity=".2" d="m2.05 11.85.25-.8.35-.85Q2.1 9.1 2.4 7.9q7.7 4.1 15.4.05.3 1.2-.25 2.2l.95 3.35.75 3.25.35 2.65q-1.1-.5-2.15-1.3l1.15-.25q.4-.3.3-1.25l-.1-.5q-1.05-.1-1.8-.6 1.25-.5 1-1.6l-.8-.35q1.1-.7-.1-1.85h-.05q-7.5-.85-15 .15"/></g></defs></svg>