<svg xmlns="http://www.w3.org/2000/svg" xmlns:ffdec="https://www.free-decompiler.com/flash" xmlns:xlink="http://www.w3.org/1999/xlink" ffdec:objectType="frame" width="6.55" height="7.65"><use ffdec:characterId="5" xlink:href="#a" width="6.55" height="7.65"/><defs><linearGradient id="b" x1="-819.2" x2="819.2" gradientTransform="matrix(.0048 -.0023 .0034 .0071 7.7 18)" gradientUnits="userSpaceOnUse" spreadMethod="pad"><stop offset="0" stop-color="#4f296d"/><stop offset=".678" stop-color="#aa96e9"/><stop offset="1" stop-color="#4f296d"/></linearGradient><g id="a" fill-rule="evenodd"><path fill-opacity=".498" d="M6.5 2.1q-.05.6-.45.6L3.1.55V.5h.05q1.1 0 2.35.8zM2 2q.1-.6.6-.6.65 0 2.3 2.2 0 .7-.9.7-.8 0-1.25-.45L2 2.7z"/><path fill-opacity=".8" d="m6.5 2.1-.05 1.1q-.15.9-.7.8-.55-.15-.8.2-.3.35-1.3.7l-2.35.5-.5-2.15-.5-.65v-.5l.25-.05q.8-.3 1.6-.95L2.3 1q.4-.35.7-.45L3.1.5v.05L6.05 2.7q.4 0 .45-.6M2 2v.7l.75 1.15Q3.2 4.3 4 4.3q.9 0 .9-.7-1.65-2.2-2.3-2.2-.5 0-.6.6"/><path fill="#3f0f1e" d="M2.05 1.55 1.5.65q.25-.2.45-.3l.4.45.3.4z"/><path fill="#af7789" d="m1.95.35.5-.35.75.8-.55.4-.3-.4z"/><path fill="#621830" d="m2.05 1.55-.1.05q-1.15.7-1.7.7L0 1.6q.85-.55 1.5-.95z"/><path fill="url(#b)" d="M5.45 12.15 8.7 11l.95 1.45-.3.1-.05.25-.55.2.1-.3-.75.2.25.2-.6.25-.1-.1v.1l-.55.2v-.4l-.75.2.35.3-.6.2-.15-.4-.15-.4V13l-.3-.8z" transform="translate(-3.6 -6.2)"/><path fill="#b10450" d="m3.3 5.65-.2.05q-.9-.85-.8-1.45l.2-.1q-.05.35.35.85l.05.1zM3.25 3.9l.15-.1.9 1.25-.5.2-.3-.35-.55-.95z"/><path fill="#720635" d="m4.5 5.15-.05.05-.45.25-.15-.05-.55-.35-.45-1.1-.05-.05.9-.35.05.1q.55-.3.7-.25l.35.15-.3.2-.1.1-.2.45q.25.25.9-.25L5 4.4l-.6.65zm-1.4.55-.4-.05-.15.15-.3.35q-.8-.75-.7-1.3l.75-.6q-.1.6.8 1.45m.15-1.8-.3.05.55.95.3.35.5-.2-.9-1.25z"/><path fill="#d7cbd4" d="M3.7 3.55h-.05L3.6 3.1l.2-.05.25-.1.5-.05.05.05h.25l.25.25.15.15.1.2q.3.4.2.85l-.1.05-.95.7-.1-.1.6-.65.1-.35.2-.2.15-.1-.2-.3-.25.2-.05-.1H4.8l-.35-.15q-.15-.05-.7.25z"/><path fill="#9c9c9c" d="m3.85 5.4-.35.05-.2.2-.4-.55-.05-.1q-.4-.5-.35-.85V4.1l.35-.15.45 1.1zm1.1-1.85.05.1.25-.2.2.3-.15.1-.2.2q-.65.5-.9.25l.2-.45.4-.2z"/></g></defs></svg>