<?xml version="1.0" encoding="UTF-8" standalone="no"?>
<svg xmlns:ffdec="https://www.free-decompiler.com/flash" xmlns:xlink="http://www.w3.org/1999/xlink" ffdec:objectType="frame" height="57.1px" width="45.75px" xmlns="http://www.w3.org/2000/svg">
  <g transform="matrix(1.0, 0.0, 0.0, 1.0, 12.7, 3.55)">
    <use ffdec:characterId="1" height="57.1" transform="matrix(1.0, 0.0, 0.0, 1.0, -12.7, -3.55)" width="45.75" xlink:href="#shape0"/>
  </g>
  <defs>
    <g id="shape0" transform="matrix(1.0, 0.0, 0.0, 1.0, 12.7, 3.55)">
      <path d="M11.9 2.7 Q12.25 2.75 12.85 3.35 L12.95 3.4 12.6 4.15 11.9 2.7 M12.9 4.25 Q19.05 12.8 20.0 23.6 L20.05 24.5 Q20.05 24.9 17.95 25.0 L13.4 25.15 6.95 25.05 5.7 25.0 5.65 25.0 5.5 25.0 4.45 24.95 -0.05 24.6 0.0 23.9 0.0 23.85 0.05 23.3 Q1.05 12.65 7.3 4.15 L7.3 4.05 8.05 5.8 8.0 5.1 7.25 3.4 7.45 3.2 8.2 2.8 8.3 2.9 8.25 2.95 8.55 2.95 8.8 3.15 Q7.9 4.85 8.15 6.55 L8.2 6.55 9.3 3.5 10.0 4.05 8.6 6.15 8.55 6.05 8.5 6.0 8.4 6.35 8.65 6.8 8.65 6.75 9.85 4.75 10.05 4.05 10.05 4.0 10.1 4.05 Q11.15 6.25 11.75 6.5 L12.05 6.05 12.1 6.2 12.15 6.25 Q12.65 5.55 12.65 4.8 L12.9 4.25 M10.35 4.0 L11.15 3.4 11.85 5.55 11.6 5.95 10.35 4.0" fill="#333333" fill-rule="evenodd" stroke="none"/>
      <path d="M11.85 3.0 L11.85 3.05 11.85 3.0 M11.15 3.4 L11.55 2.95 11.8 2.95 11.7 2.7 11.9 2.7 12.6 4.15 12.95 3.4 13.0 3.45 12.75 4.05 12.9 4.25 12.65 4.8 Q12.65 5.55 12.15 6.25 L12.1 6.2 12.05 6.05 11.75 6.5 Q11.15 6.25 10.1 4.05 L10.05 4.0 10.1 4.05 10.15 4.0 10.15 4.05 10.3 4.05 10.35 4.0 11.6 5.95 11.85 5.55 11.15 3.4 M7.3 4.05 L7.2 3.55 7.25 3.4 8.0 5.1 8.05 5.8 7.3 4.05 M8.8 3.15 L9.3 3.5 8.2 6.55 8.15 6.55 Q7.9 4.85 8.8 3.15 M10.0 4.05 L10.05 4.05 9.85 4.75 8.65 6.75 8.65 6.8 8.4 6.35 8.5 6.0 8.55 6.05 8.6 6.15 10.0 4.05" fill="#000000" fill-rule="evenodd" stroke="none"/>
      <path d="M-0.05 24.25 L-0.05 24.0 2.05 24.25 2.6 24.35 2.85 24.35 4.55 24.55 4.45 25.0 Q4.35 25.8 4.6 26.35 L1.95 26.1 2.45 25.45 2.4 24.8 2.3 24.65 -0.05 24.25 M5.5 24.6 Q10.4 25.0 13.4 24.6 L14.95 24.35 15.0 26.05 5.4 26.4 5.4 26.2 5.5 24.6 M15.85 24.25 L16.2 24.2 17.25 24.0 19.95 23.5 20.0 23.7 Q18.4 23.9 17.2 24.4 L17.35 25.7 15.5 26.0 Q16.0 25.15 15.85 24.25" fill="#431900" fill-rule="evenodd" stroke="none"/>
      <path d="M20.0 23.7 L20.2 24.55 Q20.3 25.05 20.0 25.15 L17.35 25.7 17.2 24.4 Q18.4 23.9 20.0 23.7 M1.95 26.1 L-0.15 25.75 -0.05 24.25 2.3 24.65 2.4 24.8 2.45 25.45 1.95 26.1" fill="#722f07" fill-rule="evenodd" stroke="none"/>
      <path d="M4.55 24.55 L5.5 24.6 5.4 26.2 5.4 26.4 4.6 26.35 Q4.35 25.8 4.45 25.0 L4.55 24.55 M14.95 24.35 L15.85 24.25 Q16.0 25.15 15.5 26.0 L15.0 26.05 14.95 24.35" fill="#1c0a00" fill-rule="evenodd" stroke="none"/>
      <path d="M10.8 6.9 L10.8 6.95 10.25 6.95 10.05 7.0 10.05 7.15 9.65 10.55 9.5 12.6 9.4 13.4 9.3 14.75 9.0 17.5 8.65 20.0 8.4 22.1 Q9.05 23.55 10.35 24.6 L10.45 24.75 Q11.8 23.65 12.55 22.2 L12.75 21.85 12.8 22.3 12.35 23.0 11.2 24.5 10.4 25.3 9.2 23.75 8.4 22.65 8.1 22.1 8.2 21.6 8.45 19.9 8.7 18.1 8.75 17.7 8.8 17.3 8.85 16.75 8.95 15.6 9.25 12.7 9.4 11.2 9.7 8.2 9.75 7.6 9.85 6.85 9.65 6.9 9.65 6.8 9.65 6.75 9.65 6.9 9.5 6.6 9.45 6.35 Q9.2 5.75 9.2 4.65 L9.2 4.45 9.35 4.4 9.55 4.35 Q9.35 5.5 9.9 6.45 L9.95 6.5 11.15 6.65 11.1 6.7 11.0 6.8 10.85 6.8 10.8 6.9" fill="#4d0000" fill-rule="evenodd" stroke="none"/>
      <path d="M9.5 5.2 Q9.45 4.75 9.55 4.35 L10.35 4.2 10.45 4.2 Q10.7 4.45 10.4 4.7 10.5 5.1 10.0 5.1 L9.5 5.2 M11.2 6.5 L11.15 6.65 10.85 6.6 11.2 6.5 M10.8 6.6 L10.6 6.55 10.7 6.55 10.8 6.55 10.8 6.6 M9.55 12.05 L9.6 11.15 9.65 10.55 10.05 7.15 10.05 7.0 10.25 6.95 10.8 6.95 10.9 7.5 10.9 7.6 11.0 8.5 11.35 10.7 11.45 11.45 11.1 11.75 11.1 11.85 9.7 12.15 9.55 12.05 M11.55 12.3 L11.6 12.65 11.6 12.7 11.1 16.2 Q10.6 19.05 8.7 20.7 L8.55 20.8 8.65 20.0 8.9 18.4 9.0 17.5 9.1 16.4 Q10.85 14.75 11.55 12.3" fill="#a10000" fill-rule="evenodd" stroke="none"/>
      <path d="M11.45 4.65 L11.45 4.75 11.25 6.15 11.25 6.2 11.2 6.35 11.2 6.5 10.85 6.6 10.8 6.6 10.8 6.55 10.7 6.55 10.6 6.55 9.95 6.55 9.85 6.4 9.6 5.8 10.15 5.85 10.9 5.6 Q11.35 5.35 11.45 4.65 M11.6 12.7 L12.1 16.95 12.0 15.4 12.1 16.25 12.55 20.6 12.75 21.85 12.55 22.2 Q11.8 23.65 10.45 24.75 L10.35 24.6 Q9.05 23.55 8.4 22.1 L8.55 20.8 8.7 20.7 Q10.6 19.05 11.1 16.2 L11.6 12.7" fill="#7b0303" fill-rule="evenodd" stroke="none"/>
      <path d="M10.45 4.2 L10.8 4.25 11.0 4.3 11.45 4.65 Q11.35 5.35 10.9 5.6 L10.15 5.85 9.6 5.8 9.55 5.55 9.5 5.2 10.0 5.1 Q10.5 5.1 10.4 4.7 10.7 4.45 10.45 4.2 M11.45 11.45 L11.55 12.3 Q10.85 14.75 9.1 16.4 L9.15 16.1 9.3 14.75 9.3 14.7 9.4 13.4 9.5 12.6 9.55 12.05 9.7 12.15 11.1 11.85 11.1 11.75 11.45 11.45" fill="#af2e2e" fill-rule="evenodd" stroke="none"/>
      <path d="M13.45 9.95 L13.15 8.15 12.55 5.9 12.55 5.8 12.85 5.3 13.35 6.7 Q15.85 13.9 16.5 20.7 L15.7 21.95 15.7 21.9 15.2 18.0 14.25 13.35 14.2 13.1 14.2 13.15 13.95 12.1 13.45 9.95 M7.1 4.95 L7.45 5.45 7.45 5.55 6.8 7.8 6.5 9.65 6.0 11.8 5.75 12.8 5.75 12.75 4.7 17.8 4.2 21.75 4.2 21.8 3.35 20.55 Q4.05 13.65 6.6 6.35 L7.1 4.95" fill="#722f07" fill-rule="evenodd" stroke="none"/>
      <path d="M12.85 5.3 L12.55 5.8 12.55 5.9 13.15 8.15 13.45 9.95 13.3 9.3 12.1 5.25 12.15 5.2 12.25 5.0 12.25 4.9 12.3 4.85 12.5 4.4 12.85 5.3 M14.25 13.35 L15.2 18.0 15.7 21.9 15.7 21.95 16.5 20.7 16.7 25.05 15.9 24.0 Q15.4 24.55 15.3 22.4 L15.3 21.4 Q15.2 18.85 14.25 13.35 M7.1 4.95 L7.5 4.0 7.7 4.45 7.75 4.5 7.75 4.6 7.85 4.8 7.9 4.85 6.65 9.0 6.5 9.65 6.8 7.8 7.45 5.55 7.45 5.45 7.1 4.95 M5.75 12.8 Q4.7 18.55 4.6 21.25 L4.6 22.25 4.55 25.0 3.15 24.95 3.35 20.55 4.2 21.8 4.2 21.75 4.7 17.8 5.75 12.75 5.75 12.8" fill="#431900" fill-rule="evenodd" stroke="none"/>
      <path d="M15.95 24.45 L16.05 24.4 Q16.35 24.4 16.35 24.6 L16.3 24.75 15.95 24.45 M3.7 25.05 L3.65 24.9 Q3.65 24.7 3.95 24.7 L4.05 24.75 3.7 25.05 M16.0 25.15 L16.1 25.1 16.35 25.3 Q15.9 25.35 16.0 25.15 M3.65 25.6 Q3.65 25.4 3.9 25.4 L4.0 25.45 Q4.1 25.65 3.65 25.6" fill="#d0d0d0" fill-rule="evenodd" stroke="none"/>
      <path d="M16.3 24.75 L16.25 24.8 16.1 24.85 15.85 24.75 15.85 24.65 15.9 24.45 15.95 24.45 16.3 24.75 M3.7 25.05 L4.05 24.75 4.1 24.75 4.15 24.95 4.15 25.05 3.9 25.15 3.75 25.1 3.7 25.05 M16.0 25.15 Q15.9 25.35 16.35 25.3 L16.1 25.55 15.9 25.3 16.0 25.15 M4.0 25.45 L4.1 25.6 3.9 25.85 3.65 25.6 Q4.1 25.65 4.0 25.45" fill="#808080" fill-rule="evenodd" stroke="none"/>
      <path d="M11.45 2.8 L11.4 2.85 11.4 2.75 11.45 2.8 M17.1 4.65 L16.6 4.5 15.75 4.0 14.85 3.35 14.8 3.3 14.55 3.1 14.45 2.95 Q13.9 2.5 14.05 2.1 14.2 1.6 14.65 1.15 14.95 0.8 15.45 0.6 L15.95 0.45 Q19.65 -0.75 21.25 2.15 20.85 2.25 20.45 2.5 L19.9 2.8 18.75 3.55 18.15 3.95 18.0 4.05 17.1 4.6 17.1 4.65 M20.7 20.75 L20.65 20.8 20.75 20.8 20.75 20.85 20.8 21.1 Q20.65 22.6 19.45 23.75 L17.8 25.55 17.7 25.05 Q17.3 25.15 17.0 25.35 L16.8 25.4 16.85 25.6 16.9 25.85 16.85 25.75 16.85 25.85 16.8 25.85 17.0 26.8 Q17.45 28.7 17.8 29.2 L18.65 30.2 18.7 30.25 Q18.5 32.65 18.95 35.45 L20.45 45.35 19.5 47.0 19.15 47.65 Q17.75 47.3 16.2 46.45 L14.7 45.55 14.7 45.6 14.2 45.25 14.45 44.45 14.8 41.35 15.65 28.5 Q17.1 24.0 17.45 20.4 L17.8 15.25 17.8 12.75 19.85 18.15 20.7 20.75 M-0.1 32.95 L-0.1 33.0 -4.7 30.65 -4.85 30.5 -4.6 30.0 -2.55 26.1 -2.0 24.95 -1.5 23.7 Q0.55 25.5 2.95 26.15 L0.9 23.75 Q-0.35 22.55 -0.45 21.0 L0.5 18.15 2.55 12.75 2.55 15.25 Q2.55 16.8 2.9 20.4 3.25 24.0 4.7 28.5 5.1 36.5 5.55 41.35 L5.9 44.45 6.15 45.25 5.65 45.6 5.65 45.55 4.15 46.45 Q1.75 47.75 -0.45 47.9 0.3 41.75 1.4 35.45 2.05 31.55 1.4 28.45 1.1 28.3 1.0 28.7 L-0.1 32.95 M-9.2 44.7 L-9.6 44.3 Q-12.0 42.0 -12.7 39.1 -12.15 39.05 -10.95 38.15 -9.15 40.1 -6.75 41.35 L-6.0 41.65 Q-7.0 43.45 -9.2 44.7 M-7.4 40.4 Q-9.25 39.55 -10.35 38.15 L-10.4 38.1 -10.75 37.6 -10.75 37.35 -10.6 36.95 -10.5 36.75 -9.3 35.95 -7.8 34.95 -7.75 34.8 -7.65 34.85 -5.7 35.95 -5.5 36.0 -4.25 36.35 -3.55 36.45 Q-5.65 38.3 -7.4 40.4 M21.45 27.0 L21.75 26.75 22.2 26.35 22.55 26.0 22.7 25.7 22.9 26.1 24.95 30.0 25.2 30.5 25.05 30.65 24.25 31.05 24.15 31.0 24.05 31.15 23.35 31.5 23.25 31.4 23.25 31.6 22.2 32.1 21.75 31.45 20.55 29.95 19.35 28.85 19.35 28.7 19.25 28.55 19.65 28.3 19.7 28.3 19.85 28.2 20.35 27.85 20.55 27.75 20.8 27.55 21.1 27.3 21.4 27.05 21.45 27.0 M16.4 30.45 Q16.4 31.2 17.1 31.2 18.05 31.2 18.1 30.45 18.1 29.4 17.25 29.45 16.4 29.5 16.4 30.45 M18.0 34.45 Q18.0 33.4 17.15 33.45 16.3 33.5 16.3 34.45 16.3 35.2 17.0 35.2 17.95 35.2 18.0 34.45 M3.1 29.45 Q2.25 29.4 2.25 30.45 2.3 31.2 3.25 31.2 3.95 31.2 3.95 30.45 3.95 29.5 3.1 29.45 M3.55 38.7 Q4.25 38.7 4.25 37.95 4.25 37.0 3.4 36.95 2.55 36.9 2.55 37.95 2.6 38.7 3.55 38.7 M2.75 41.6 Q2.8 42.35 3.75 42.35 4.45 42.35 4.45 41.6 4.45 40.65 3.6 40.6 2.75 40.55 2.75 41.6 M3.35 35.2 Q4.05 35.2 4.05 34.45 4.05 33.5 3.2 33.45 2.35 33.4 2.35 34.45 2.4 35.2 3.35 35.2 M16.8 38.7 Q17.75 38.7 17.8 37.95 17.8 36.9 16.95 36.95 16.1 37.0 16.1 37.95 16.1 38.7 16.8 38.7 M16.6 42.35 Q17.55 42.35 17.6 41.6 17.6 40.55 16.75 40.6 15.9 40.65 15.9 41.6 15.9 42.35 16.6 42.35 M28.0 34.85 L28.1 34.8 28.15 34.95 29.65 35.95 30.85 36.75 30.95 36.95 31.1 37.35 31.1 37.6 30.95 37.9 30.9 37.85 30.1 38.8 29.9 39.0 28.05 40.25 27.75 40.4 24.15 36.7 24.1 36.45 24.6 36.35 25.85 36.0 26.05 35.95 Q27.2 35.65 28.0 34.85 M31.3 38.15 Q32.5 39.05 33.05 39.1 32.35 42.0 29.95 44.3 L29.55 44.7 Q27.35 43.45 26.35 41.65 L27.1 41.35 Q29.5 40.1 31.3 38.15 M20.7 32.85 L20.45 33.0 20.45 32.95 20.15 31.9 20.4 32.3 20.7 32.85" fill="#9f4f04" fill-rule="evenodd" stroke="none"/>
      <path d="M-0.45 47.9 L-1.1 47.9 -5.4 47.25 Q-7.1 46.65 -9.2 44.7 -7.0 43.45 -6.0 41.65 L-4.5 41.5 -4.6 41.2 -4.8 41.25 -4.8 41.2 -4.85 41.2 -4.9 41.1 -5.4 41.1 -7.4 40.4 Q-5.65 38.3 -3.55 36.45 L-2.55 36.35 -1.25 36.1 Q-2.0 38.3 -3.45 40.05 L-3.85 40.7 -4.1 40.95 -4.3 41.05 -4.25 41.4 Q-3.15 40.8 -2.1 39.2 -2.4 39.8 -1.7 38.7 L-0.5 35.95 0.1 33.8 0.2 33.15 0.0 33.05 -0.1 32.95 1.0 28.7 Q1.1 28.3 1.4 28.45 2.05 31.55 1.4 35.45 0.3 41.75 -0.45 47.9 M20.45 45.35 L18.95 35.45 Q18.5 32.65 18.7 30.25 L18.85 30.4 19.0 30.6 20.15 31.9 20.45 32.95 20.35 33.05 20.15 33.15 20.25 33.8 20.85 35.95 Q21.4 37.55 22.05 38.7 L22.5 39.4 22.05 41.85 Q21.6 43.45 20.85 44.7 L20.45 45.35 M19.35 28.85 L19.1 28.6 19.25 28.55 19.35 28.7 19.35 28.85 M20.1 33.45 L20.15 33.45 20.1 33.2 20.05 33.2 20.1 33.45 M0.25 33.45 L0.3 33.2 0.25 33.2 0.2 33.45 0.25 33.45 M24.15 36.7 L27.75 40.4 25.75 41.1 25.25 41.1 25.15 41.1 24.85 40.9 24.65 40.9 24.45 40.7 24.45 40.4 24.45 40.35 24.15 36.7 M29.55 44.7 Q27.45 46.65 25.75 47.25 L21.75 47.9 22.6 46.4 Q23.65 44.85 24.0 43.4 L24.4 41.3 24.6 41.4 24.85 41.5 25.4 41.65 26.35 41.65 Q27.35 43.45 29.55 44.7 M22.55 38.2 L22.05 37.3 22.0 37.15 21.6 36.1 22.3 36.3 22.55 38.2" fill="#874100" fill-rule="evenodd" stroke="none"/>
      <path d="M21.0 22.75 Q21.25 22.3 20.95 21.55 L20.8 21.1 20.75 20.85 20.75 20.8 20.65 20.8 20.7 20.75 20.8 20.7 21.95 20.3 21.95 20.5 21.85 20.95 21.55 21.8 21.4 22.05 21.2 22.45 21.0 22.75 M12.7 7.95 L12.7 8.0 12.7 8.05 12.9 8.6 12.95 8.75 13.25 9.65 13.35 10.05 13.65 11.2 13.8 11.8 13.9 12.1 13.9 12.15 14.0 12.45 14.1 13.0 14.2 13.4 14.3 13.85 14.45 14.7 14.45 14.75 14.5 14.9 14.5 14.95 14.75 16.4 14.8 16.6 14.8 16.65 15.0 18.2 15.05 18.4 15.05 18.45 15.25 20.05 15.25 20.1 15.25 20.3 15.25 20.35 15.3 20.6 15.3 20.65 15.35 21.5 15.35 21.55 15.4 21.85 15.4 21.9 15.4 22.1 15.4 22.15 15.5 23.8 15.5 23.85 15.55 24.05 15.55 24.1 15.55 24.15 15.55 24.25 15.5 24.25 15.4 24.3 14.5 24.45 14.35 21.3 Q14.35 18.05 13.6 13.85 L12.6 9.8 11.8 6.65 11.8 6.6 11.8 6.45 12.1 5.95 12.1 6.0 12.1 6.05 12.25 6.45 12.25 6.5 12.65 7.8 12.7 7.95 M19.15 47.65 L19.5 47.0 20.45 45.35 20.85 44.7 Q21.6 43.45 22.05 41.85 L22.5 39.4 22.5 39.3 22.55 38.2 22.3 36.3 22.0 35.35 22.0 35.3 21.7 34.65 21.35 34.0 21.25 33.85 20.9 33.15 20.7 32.85 20.4 32.3 20.15 31.9 19.0 30.6 18.85 30.4 18.7 30.25 18.65 30.2 17.8 29.2 Q17.45 28.7 17.0 26.8 L16.8 25.85 16.85 25.85 16.85 25.75 16.9 25.85 17.0 25.95 17.55 26.9 17.8 27.25 18.6 28.1 18.8 28.3 19.1 28.6 19.35 28.85 20.55 29.95 21.75 31.45 22.2 32.1 22.3 32.25 22.3 32.3 23.0 33.5 23.1 33.7 23.55 34.65 23.65 34.85 23.9 35.65 23.9 35.75 24.1 36.45 24.15 36.7 24.45 40.35 24.45 40.4 24.45 40.7 24.4 41.3 24.0 43.4 Q23.65 44.85 22.6 46.4 L21.75 47.9 Q21.5 48.45 21.4 48.9 21.25 49.8 21.25 50.8 21.25 51.7 21.75 52.4 L22.4 53.2 Q21.1 52.4 20.1 51.4 L18.9 50.0 18.75 49.6 18.75 49.55 Q18.8 48.5 19.15 47.65 M16.4 30.45 Q16.4 29.5 17.25 29.45 18.1 29.4 18.1 30.45 18.05 31.2 17.1 31.2 16.4 31.2 16.4 30.45 M18.0 34.45 Q17.95 35.2 17.0 35.2 16.3 35.2 16.3 34.45 16.3 33.5 17.15 33.45 18.0 33.4 18.0 34.45 M16.6 42.35 Q15.9 42.35 15.9 41.6 15.9 40.65 16.75 40.6 17.6 40.55 17.6 41.6 17.55 42.35 16.6 42.35 M16.8 38.7 Q16.1 38.7 16.1 37.95 16.1 37.0 16.95 36.95 17.8 36.9 17.8 37.95 17.75 38.7 16.8 38.7 M26.05 34.7 Q25.6 34.55 25.6 33.95 L25.6 33.75 25.6 33.65 25.65 33.6 Q25.8 33.1 26.3 33.1 L26.45 33.1 26.55 33.15 26.85 33.25 26.95 33.35 27.0 33.45 27.1 33.8 27.1 33.9 27.1 33.95 27.0 34.5 26.35 34.75 26.05 34.7" fill="#000000" fill-rule="evenodd" stroke="none"/>
      <path d="M15.05 4.25 L15.5 4.45 15.3 5.35 15.3 5.45 15.25 5.55 15.5 5.65 16.6 6.15 16.6 6.1 16.6 6.0 16.8 4.95 17.25 5.15 17.0 6.2 17.0 6.3 17.0 6.35 18.3 6.95 18.25 7.1 18.25 7.15 18.2 7.25 16.9 6.6 16.9 6.65 16.7 7.75 17.9 8.35 17.85 8.65 17.6 8.55 17.35 8.45 16.6 8.15 16.6 8.3 16.25 8.2 16.25 8.0 16.05 7.95 14.9 7.5 14.85 7.45 14.75 8.1 14.7 8.25 14.7 8.65 15.1 8.95 16.05 9.45 16.05 9.3 16.2 8.55 16.4 8.7 16.5 8.75 16.45 8.9 16.35 9.45 16.35 9.6 17.3 10.1 17.25 10.4 16.3 9.95 16.15 10.95 17.05 11.45 17.1 11.45 17.05 11.5 17.05 11.6 17.0 11.9 16.1 11.35 16.0 12.2 16.3 12.35 16.9 12.7 16.85 12.85 16.85 13.0 15.95 12.5 15.9 12.8 15.85 13.15 15.85 13.25 15.8 13.75 16.7 14.25 16.75 14.25 16.75 14.4 16.75 14.6 16.7 14.6 15.9 14.15 Q15.65 14.0 15.65 14.4 L15.65 15.1 15.65 15.25 15.7 15.3 16.6 15.8 16.75 15.85 16.75 16.15 16.65 16.1 16.6 16.1 15.75 15.65 15.65 15.6 15.7 16.8 15.7 16.85 15.9 16.95 16.6 17.4 16.75 17.45 16.75 17.65 16.6 17.6 15.95 17.25 15.75 17.15 15.8 17.75 15.35 15.8 15.35 15.4 15.25 15.35 15.15 14.95 15.35 15.05 15.35 14.35 15.35 13.95 14.8 13.75 14.7 13.3 14.85 13.35 15.45 13.55 15.45 13.45 15.5 13.1 15.55 12.65 15.6 12.35 15.25 12.2 14.4 11.75 14.35 11.35 14.15 9.4 14.2 9.0 14.15 8.95 14.15 8.4 14.3 8.5 14.45 7.6 14.5 7.35 14.25 7.25 14.15 7.25 14.2 6.8 14.55 6.9 14.7 5.95 14.75 5.8 14.3 5.65 14.4 5.2 14.8 5.35 14.85 5.2 14.85 5.1 15.0 4.5 15.05 4.3 15.05 4.25 M15.05 4.5 L15.15 4.5 15.1 4.45 15.05 4.5 M14.95 7.05 L15.3 7.2 15.65 7.35 15.7 7.35 16.35 7.6 16.5 6.5 16.5 6.45 15.85 6.2 15.2 5.95 15.15 6.15 15.0 6.85 14.95 7.05 M14.35 11.35 L15.15 11.75 15.65 12.05 15.7 11.8 15.8 11.15 14.85 10.7 14.45 10.55 14.4 11.3 14.35 11.35 M14.5 10.15 L14.7 10.25 Q15.2 10.4 15.75 10.7 L15.85 10.75 16.0 9.8 15.2 9.45 14.6 9.2 14.55 9.7 14.5 10.15 M16.7 19.05 L16.7 19.35 16.65 19.35 16.15 19.05 16.05 19.0 15.95 18.6 16.1 18.7 16.65 19.05 16.7 19.05 M16.65 20.85 L16.65 21.1 16.6 21.1 16.35 20.95 16.3 20.7 16.6 20.85 16.65 20.85 M25.6 30.7 L25.9 31.15 26.15 31.6 26.15 31.65 26.25 31.8 26.6 31.6 26.8 31.9 26.85 32.0 26.45 32.15 26.9 33.2 26.95 33.25 27.0 33.35 27.55 33.05 27.6 33.2 27.75 33.6 27.15 33.8 27.2 33.95 27.5 34.75 27.45 34.8 27.35 34.95 27.25 34.95 27.2 35.0 27.0 34.5 27.1 33.95 27.1 33.9 27.1 33.8 27.0 33.45 26.95 33.35 26.85 33.25 26.55 33.15 26.15 32.3 25.3 32.6 25.65 33.6 25.6 33.65 25.6 33.75 25.6 33.95 Q25.6 34.55 26.05 34.7 L26.25 35.45 25.95 35.55 25.85 35.55 25.5 34.3 24.45 34.6 25.0 35.7 24.6 35.7 24.25 34.65 23.65 34.85 23.55 34.65 24.15 34.45 24.15 34.4 24.05 34.2 24.0 34.05 23.95 34.0 23.7 33.3 23.0 33.5 22.3 32.3 22.5 32.2 22.9 33.2 23.3 33.05 23.55 32.95 23.5 32.85 23.45 32.75 23.15 31.85 23.2 31.8 23.4 31.7 23.8 32.6 23.85 32.7 23.9 32.85 24.85 32.45 24.8 32.25 24.75 32.2 24.3 31.2 24.55 31.05 24.6 31.0 25.1 32.05 25.1 32.1 25.2 32.3 25.95 31.95 25.9 31.75 25.85 31.75 25.2 30.75 25.3 30.7 25.6 30.7 M24.25 31.05 L24.2 31.1 24.15 31.0 24.25 31.05 M23.3 31.55 L23.25 31.6 23.25 31.4 23.3 31.55 M25.0 32.75 L24.15 33.1 24.0 33.15 24.2 33.8 24.25 34.0 24.3 34.15 24.4 34.35 24.4 34.4 25.45 34.0 25.4 33.8 25.25 33.6 25.0 32.75 M21.05 34.1 L21.0 34.0 21.0 33.95 21.25 33.85 21.35 34.0 21.05 34.1" fill="#875100" fill-rule="evenodd" stroke="none"/>
      <path d="M14.6 4.1 L15.05 4.25 15.05 4.3 15.0 4.5 14.85 5.1 14.85 5.2 14.8 5.35 14.4 5.2 14.6 4.1 M15.5 4.45 L16.65 4.9 16.8 4.95 16.6 6.0 16.6 6.1 16.6 6.15 15.5 5.65 15.25 5.55 15.3 5.45 15.3 5.35 15.5 4.45 M21.0 22.75 L21.2 22.45 21.4 22.05 21.4 22.1 22.3 23.0 21.9 23.8 21.8 23.95 21.7 23.85 21.05 22.8 21.0 22.75 M21.85 20.95 L21.95 20.5 21.95 20.3 22.15 20.3 22.65 21.35 22.45 22.5 21.7 21.5 21.85 20.95 M19.6 24.25 L19.9 24.0 19.95 23.95 20.4 24.8 20.6 25.15 20.45 25.25 19.8 25.75 19.55 25.3 19.5 25.15 19.6 24.25 M20.25 23.65 L20.4 23.5 20.8 23.0 21.5 24.0 21.6 24.2 20.85 24.95 20.7 24.6 20.25 23.65 M22.75 25.65 L22.15 24.45 22.05 24.3 22.6 23.5 22.95 24.05 23.35 24.75 22.75 25.65 M23.5 24.35 L22.8 23.05 23.0 21.95 23.7 23.25 23.7 23.35 23.5 24.35 M17.25 5.15 L18.7 5.7 18.55 6.35 18.35 6.9 18.3 6.95 17.0 6.35 17.0 6.3 17.0 6.2 17.25 5.15 M18.2 7.25 L17.95 8.25 17.9 8.35 16.7 7.75 16.9 6.65 16.9 6.6 18.2 7.25 M17.6 8.55 L16.6 8.3 16.6 8.15 17.35 8.45 17.6 8.55 M16.25 8.2 L16.15 8.2 14.95 7.8 15.6 8.2 16.0 8.45 16.2 8.55 16.05 9.3 16.05 9.45 15.1 8.95 14.7 8.65 14.7 8.25 14.75 8.1 14.85 7.45 14.9 7.5 16.05 7.95 16.25 8.0 16.25 8.2 M16.5 8.75 L17.1 9.1 17.5 9.35 17.3 10.1 16.35 9.6 16.35 9.45 16.45 8.9 16.5 8.75 M17.25 10.4 L17.2 10.9 17.15 11.15 17.15 11.1 17.1 11.25 17.1 11.45 17.05 11.45 16.15 10.95 16.3 9.95 17.25 10.4 M14.3 5.65 L14.75 5.8 14.7 5.95 14.55 6.9 14.2 6.8 14.3 5.65 M14.15 7.25 L14.25 7.25 14.5 7.35 14.45 7.6 14.3 8.5 14.15 8.4 14.15 7.25 M14.95 7.05 L15.0 6.85 15.15 6.15 15.2 5.95 15.85 6.2 16.5 6.45 16.5 6.5 16.35 7.6 15.7 7.35 15.65 7.35 15.3 7.2 14.95 7.05 M14.35 11.35 L14.4 11.3 14.45 10.55 14.85 10.7 15.8 11.15 15.7 11.8 15.65 12.05 15.15 11.75 14.35 11.35 M14.4 11.75 L15.25 12.2 15.6 12.35 15.55 12.65 15.5 13.1 15.45 13.45 15.45 13.55 14.85 13.35 14.7 13.3 14.4 11.75 M14.8 13.75 L15.35 13.95 15.35 14.35 15.35 15.05 15.15 14.95 15.0 14.4 14.8 13.75 M15.25 15.35 L15.35 15.4 15.35 15.8 15.25 15.35 M15.8 17.75 L15.75 17.15 15.95 17.25 16.6 17.6 16.75 17.65 16.75 18.05 16.7 19.05 16.65 19.05 16.1 18.7 15.95 18.6 15.8 17.75 M16.75 17.45 L16.6 17.4 15.9 16.95 15.7 16.85 15.7 16.8 15.65 15.6 15.75 15.65 16.6 16.1 16.65 16.1 16.75 16.15 16.75 17.45 M16.75 15.85 L16.6 15.8 15.7 15.3 15.65 15.25 15.65 15.1 15.65 14.4 Q15.65 14.0 15.9 14.15 L16.7 14.6 16.75 14.6 16.75 15.85 M16.75 14.25 L16.7 14.25 15.8 13.75 15.85 13.25 15.85 13.15 15.9 12.8 15.95 12.5 16.85 13.0 16.85 13.15 16.8 13.55 16.8 13.7 16.75 14.25 M16.9 12.7 L16.3 12.35 16.0 12.2 16.1 11.35 17.0 11.9 16.9 12.7 M14.5 10.15 L14.55 9.7 14.6 9.2 15.2 9.45 16.0 9.8 15.85 10.75 15.75 10.7 Q15.2 10.4 14.7 10.25 L14.5 10.15 M16.05 19.0 L16.15 19.05 16.65 19.35 16.7 19.35 16.65 20.85 16.6 20.85 16.3 20.7 16.05 19.0 M16.65 21.1 L16.55 22.05 16.55 22.35 16.35 20.95 16.6 21.1 16.65 21.1 M20.6 27.15 L20.1 26.25 20.0 26.05 20.75 25.45 21.05 26.0 21.45 27.0 21.4 27.05 21.1 27.3 20.6 27.15 M21.75 26.75 L21.25 25.6 21.05 25.25 21.5 24.85 21.8 24.55 21.95 24.75 22.55 26.0 22.2 26.35 21.75 26.75 M19.7 26.3 L19.75 26.25 19.85 26.45 20.15 27.05 20.1 27.0 19.7 26.3 M25.6 30.7 L25.7 30.7 26.5 31.45 26.5 31.5 26.6 31.6 26.25 31.8 26.15 31.65 26.15 31.6 25.9 31.15 25.6 30.7 M26.85 32.0 L27.5 33.0 27.5 33.05 27.55 33.05 27.0 33.35 26.95 33.25 26.9 33.2 26.45 32.15 26.85 32.0 M27.75 33.6 L27.75 33.65 27.75 33.8 27.8 34.25 27.65 34.5 27.5 34.75 27.2 33.95 27.15 33.8 27.75 33.6 M24.2 31.1 L24.05 31.15 24.15 31.0 24.2 31.1 M23.35 31.5 L23.3 31.55 23.25 31.4 23.35 31.5 M22.5 32.2 L22.5 32.15 22.6 32.1 22.95 31.95 23.15 31.85 23.45 32.75 23.5 32.85 23.55 32.95 23.3 33.05 22.9 33.2 22.5 32.2 M23.4 31.7 L23.65 31.6 23.7 31.6 23.75 31.55 24.3 31.2 24.75 32.2 24.8 32.25 24.85 32.45 23.9 32.85 23.85 32.7 23.8 32.6 23.4 31.7 M24.6 31.0 L24.85 30.85 25.2 30.75 25.85 31.75 25.9 31.75 25.95 31.95 25.2 32.3 25.1 32.1 25.1 32.05 24.6 31.0 M23.55 34.65 L23.1 33.7 23.0 33.5 23.7 33.3 23.95 34.0 24.0 34.05 24.05 34.2 24.15 34.4 24.15 34.45 23.55 34.65 M25.0 32.75 L25.25 33.6 25.4 33.8 25.45 34.0 24.4 34.4 24.4 34.35 24.3 34.15 24.25 34.0 24.2 33.8 24.0 33.15 24.15 33.1 25.0 32.75 M22.0 35.3 L21.65 35.0 21.6 34.95 21.55 34.85 21.5 34.8 21.15 34.3 21.05 34.1 21.35 34.0 21.7 34.65 22.0 35.3 M20.95 33.95 L20.85 33.65 20.75 33.4 20.8 33.4 20.8 33.3 20.9 33.15 21.25 33.85 21.0 33.95 20.95 33.95 M23.65 34.85 L24.25 34.65 24.6 35.7 24.35 35.7 23.9 35.75 23.9 35.65 23.65 34.85 M25.0 35.7 L24.45 34.6 25.5 34.3 25.85 35.55 25.75 35.6 25.7 35.6 25.55 35.65 25.35 35.65 25.25 35.7 25.0 35.7 M26.25 35.45 L26.05 34.7 26.35 34.75 27.0 34.5 27.2 35.0 26.65 35.3 26.6 35.3 26.25 35.45 M25.65 33.6 L25.3 32.6 26.15 32.3 26.55 33.15 26.45 33.1 26.3 33.1 Q25.8 33.1 25.65 33.6" fill="#bd8701" fill-rule="evenodd" stroke="none"/>
      <path d="M11.45 2.8 L11.85 1.95 12.1 1.45 12.3 0.9 12.7 -0.1 12.8 -0.3 13.8 -2.85 14.1 -3.55 14.65 -3.25 16.45 -2.3 17.5 -1.75 18.05 -1.45 18.1 -1.45 18.25 -1.35 19.25 -0.7 Q21.05 0.45 21.5 1.6 L21.5 2.1 21.25 2.15 Q19.65 -0.75 15.95 0.45 L15.45 0.6 Q14.95 0.8 14.65 1.15 14.2 1.6 14.05 2.1 13.9 2.5 14.45 2.95 L14.55 3.1 14.8 3.3 14.85 3.35 15.75 4.0 16.6 4.5 17.1 4.65 17.0 4.7 16.65 4.9 15.5 4.45 15.05 4.25 14.6 4.1 13.8 3.75 13.45 3.65 13.3 3.6 12.3 3.2 11.95 3.1 11.7 3.05 11.65 3.05 11.45 2.85 11.4 2.9 11.4 2.85 11.45 2.8 M20.8 21.1 L20.95 21.55 Q21.25 22.3 21.0 22.75 L20.85 22.95 20.75 22.9 20.8 23.0 20.4 23.5 20.25 23.65 19.95 23.95 19.9 24.0 19.6 24.25 19.2 24.55 18.9 24.8 18.35 25.3 18.15 25.5 17.85 25.7 17.8 25.55 19.45 23.75 Q20.65 22.6 20.8 21.1 M16.15 8.2 L16.4 8.7 16.2 8.55 16.0 8.45 15.6 8.2 14.95 7.8 16.15 8.2 M17.15 11.15 L17.25 11.3 17.75 12.6 17.8 12.75 17.8 15.25 17.45 20.4 Q17.1 24.0 15.65 28.5 L15.65 28.4 15.65 28.25 15.65 28.15 15.65 28.1 15.85 27.3 16.0 26.45 16.05 26.15 16.1 25.8 16.2 25.45 16.3 24.75 16.35 24.35 16.35 24.25 16.4 23.85 16.4 23.6 16.5 22.8 16.5 22.75 16.5 22.65 16.55 22.4 16.55 22.35 16.55 22.05 16.65 21.1 16.65 20.85 16.7 19.35 16.7 19.05 16.75 18.05 16.75 17.65 16.75 17.45 16.75 16.15 16.75 15.85 16.75 14.6 16.75 14.4 16.75 14.25 16.8 13.7 16.8 13.55 16.85 13.15 16.85 13.0 16.85 12.85 16.9 12.7 17.0 11.9 17.05 11.6 17.05 11.5 17.1 11.45 17.1 11.25 17.15 11.1 17.15 11.15 M20.1 33.45 L20.05 33.2 20.1 33.2 20.15 33.45 20.1 33.45 M28.0 34.85 Q27.2 35.65 26.05 35.95 L25.85 36.0 24.6 36.35 24.1 36.45 23.9 35.75 24.35 35.7 24.6 35.7 25.0 35.7 25.25 35.7 25.35 35.65 25.55 35.65 25.7 35.6 25.75 35.6 25.95 35.55 26.25 35.45 26.6 35.3 26.65 35.3 27.2 35.0 27.25 34.95 27.35 34.95 27.45 34.8 27.5 34.75 27.65 34.5 27.8 34.25 27.8 34.45 27.9 34.45 27.9 34.7 28.0 34.85 M27.75 40.4 L28.05 40.25 29.9 39.0 30.1 38.8 30.9 37.85 30.95 37.9 31.3 38.15 Q29.5 40.1 27.1 41.35 L25.4 41.65 24.85 41.5 24.6 41.4 24.4 41.3 24.45 40.7 24.65 40.9 24.85 40.9 25.15 41.1 25.25 41.1 25.75 41.1 27.75 40.4 M25.2 30.5 L25.3 30.7 25.2 30.75 24.85 30.85 24.6 31.0 24.55 31.05 24.3 31.2 23.75 31.55 23.7 31.6 23.65 31.6 23.4 31.7 23.2 31.8 22.95 31.95 22.6 32.1 22.5 32.15 22.5 32.2 22.3 32.3 22.3 32.25 22.2 32.1 23.25 31.6 23.3 31.55 23.35 31.5 24.05 31.15 24.2 31.1 24.25 31.05 25.05 30.65 25.2 30.5 M20.45 32.95 L20.45 33.0 20.7 32.85 20.9 33.15 20.8 33.3 20.8 33.4 20.75 33.4 20.85 33.65 20.95 33.95 21.0 34.0 21.05 34.1 21.15 34.3 21.5 34.8 21.55 34.85 21.6 34.95 21.65 35.0 22.0 35.3 22.0 35.35 22.3 36.3 21.6 36.1 22.0 37.15 22.05 37.3 22.55 38.2 22.5 39.3 22.5 39.4 22.05 38.7 Q21.4 37.55 20.85 35.95 L20.25 33.8 20.15 33.15 20.35 33.05 20.45 32.95" fill="#4f2600" fill-rule="evenodd" stroke="none"/>
      <path d="M15.05 4.5 L15.1 4.45 15.15 4.5 15.05 4.5" fill="#6b3400" fill-rule="evenodd" stroke="none"/>
      <path d="M11.4 2.9 L11.45 2.85 11.65 3.05 11.7 3.05 11.95 3.1 11.9 3.35 11.85 3.55 11.8 3.7 11.7 4.15 11.6 3.6 11.55 3.4 11.4 2.9 M12.3 3.2 L13.3 3.6 13.45 3.65 13.3 4.3 13.3 4.35 13.2 4.75 12.1 4.4 12.0 4.35 12.0 4.3 12.15 3.85 12.15 3.75 12.3 3.2 M13.8 3.75 L14.6 4.1 14.4 5.2 13.5 4.85 13.55 4.5 13.6 4.45 13.65 4.2 13.8 3.75 M17.85 25.7 L18.15 25.5 18.25 25.9 18.6 26.7 18.3 26.9 18.25 26.75 17.85 25.7 M18.35 25.3 L18.9 24.8 19.25 25.45 19.55 25.9 18.95 26.45 18.55 25.75 18.35 25.3 M19.2 24.55 L19.6 24.25 19.5 25.15 19.2 24.55 M11.85 4.9 L11.9 4.75 13.1 5.15 13.1 5.3 12.85 6.3 12.1 6.0 12.1 5.95 12.1 5.9 11.95 5.15 11.95 5.2 11.85 4.9 M12.25 6.45 L12.8 6.7 12.7 7.75 12.7 7.95 12.65 7.75 12.25 6.45 M12.95 8.7 L12.95 8.3 14.15 8.95 14.2 9.0 14.15 9.4 14.1 9.95 13.25 9.6 12.95 8.7 M14.15 8.4 L13.85 8.25 13.6 8.15 13.15 7.95 13.0 7.9 13.1 7.05 13.1 6.8 13.25 6.85 14.15 7.25 14.15 8.4 M14.2 6.8 L13.1 6.4 13.35 5.4 13.4 5.25 14.0 5.5 14.3 5.65 14.2 6.8 M15.5 23.8 L15.4 22.15 15.4 22.1 16.25 22.7 16.5 22.8 16.4 23.6 16.4 23.85 16.35 24.25 16.35 24.35 16.3 24.35 16.1 24.25 16.05 24.2 16.0 24.15 15.85 24.05 15.5 23.8 M15.25 20.05 L15.05 18.45 15.05 18.4 15.45 18.65 15.45 18.75 15.35 20.1 15.25 20.05 M13.35 10.0 L14.05 10.35 13.95 11.25 13.65 11.15 13.35 10.0 M13.8 11.75 L13.9 11.75 13.9 12.05 13.8 11.75 M14.3 13.8 L14.3 13.45 14.8 13.75 15.0 14.4 15.15 14.95 14.45 14.7 14.3 13.8 M14.5 14.9 L15.25 15.35 15.35 15.8 15.4 16.5 15.4 16.7 14.75 16.35 14.5 14.9 M14.8 16.6 L15.4 16.95 15.45 18.35 15.0 18.15 14.8 16.6 M14.7 13.3 L14.3 13.1 14.35 12.55 14.35 12.25 14.35 11.7 14.4 11.75 14.7 13.3 M15.95 18.6 L15.75 18.5 15.8 17.75 15.95 18.6 M16.55 22.35 L16.55 22.4 16.5 22.4 16.35 22.35 15.4 21.85 15.35 21.5 15.55 20.5 16.25 20.9 16.35 20.95 16.55 22.35 M16.3 24.75 L16.2 25.45 16.1 25.8 16.05 26.15 15.6 25.85 15.6 25.25 15.6 25.0 15.55 24.55 15.55 24.4 15.6 24.45 15.65 24.5 15.9 24.65 16.1 24.75 16.3 24.75 M16.0 26.45 L15.85 27.3 15.65 28.1 15.6 26.1 16.0 26.45 M16.3 20.7 L15.9 20.5 15.6 20.25 15.65 19.85 15.75 18.85 16.05 19.0 16.3 20.7 M15.25 20.3 L15.35 20.35 15.3 20.6 15.25 20.3 M20.6 27.15 L21.1 27.3 20.8 27.55 20.6 27.15 M18.4 27.25 L18.85 26.95 19.35 27.75 19.7 28.3 19.65 28.3 19.25 28.55 19.1 28.6 18.8 28.3 18.4 27.25 M19.85 28.2 L19.7 27.6 19.1 26.75 19.7 26.3 20.1 27.0 20.15 27.05 20.55 27.75 20.35 27.85 19.85 28.2" fill="#8a5b00" fill-rule="evenodd" stroke="none"/>
      <path d="M11.95 3.1 L12.3 3.2 12.15 3.75 12.15 3.85 12.0 4.3 12.0 4.35 12.1 4.4 13.2 4.75 13.3 4.35 13.3 4.3 13.45 3.65 13.8 3.75 13.65 4.2 13.6 4.45 13.55 4.5 13.5 4.85 14.4 5.2 14.3 5.65 14.0 5.5 13.4 5.25 13.35 5.4 13.1 6.4 14.2 6.8 14.15 7.25 13.25 6.85 13.1 6.8 13.1 7.05 13.0 7.9 13.15 7.95 13.6 8.15 13.85 8.25 14.15 8.4 14.15 8.95 12.95 8.3 12.95 8.7 12.9 8.55 12.7 8.0 12.7 7.95 12.7 7.75 12.8 6.7 12.25 6.45 12.1 6.0 12.85 6.3 13.1 5.3 13.1 5.15 11.9 4.75 11.85 4.9 11.8 4.7 11.75 4.45 11.7 4.25 11.7 4.15 11.8 3.7 11.85 3.55 11.9 3.35 11.95 3.1 M18.15 25.5 L18.35 25.3 18.55 25.75 18.95 26.45 19.55 25.9 19.25 25.45 18.9 24.8 19.2 24.55 19.5 25.15 19.7 26.3 19.1 26.75 19.7 27.6 19.85 28.2 19.7 28.3 19.35 27.75 18.85 26.95 18.4 27.25 18.3 26.9 18.6 26.7 18.25 25.9 18.15 25.5 M15.55 24.25 L15.55 24.15 15.55 24.1 15.55 24.05 15.5 23.8 15.85 24.05 16.0 24.15 16.05 24.2 16.1 24.25 16.3 24.35 16.35 24.35 16.3 24.75 16.1 24.75 15.9 24.65 15.65 24.5 15.6 24.45 15.55 24.4 15.55 24.25 M15.4 22.1 L15.4 21.9 15.4 21.85 16.35 22.35 16.5 22.4 16.55 22.4 16.5 22.65 16.5 22.75 16.5 22.8 16.25 22.7 15.4 22.1 M15.35 21.5 L15.3 20.65 15.3 20.6 15.35 20.35 15.25 20.3 15.25 20.1 15.25 20.05 15.35 20.1 15.45 18.75 15.45 18.65 15.05 18.4 15.0 18.15 15.45 18.35 15.4 16.95 14.8 16.6 14.75 16.35 15.4 16.7 15.4 16.5 15.35 15.8 15.8 17.75 15.75 18.5 15.95 18.6 16.05 19.0 15.75 18.85 15.65 19.85 15.6 20.25 15.9 20.5 16.3 20.7 16.35 20.95 16.25 20.9 15.55 20.5 15.35 21.5 M14.15 9.4 L14.35 11.35 14.4 11.75 14.35 11.7 14.35 12.25 14.35 12.55 14.3 13.1 14.7 13.3 14.8 13.75 14.3 13.45 14.3 13.8 14.2 13.35 14.1 12.95 14.0 12.4 13.9 12.1 13.9 12.05 13.9 11.75 13.8 11.75 13.65 11.15 13.95 11.25 14.05 10.35 13.35 10.0 13.25 9.6 14.1 9.95 14.15 9.4 M15.15 14.95 L15.25 15.35 14.5 14.9 14.45 14.7 15.15 14.95 M16.05 26.15 L16.0 26.45 15.6 26.1 15.6 25.85 16.05 26.15 M20.15 27.05 L20.6 27.15 20.8 27.55 20.55 27.75 20.15 27.05" fill="#5b2d00" fill-rule="evenodd" stroke="none"/>
      <path d="M21.4 22.05 L21.55 21.8 21.7 21.5 22.45 22.5 22.65 21.35 23.0 21.95 22.8 23.05 23.5 24.35 23.35 24.75 22.95 24.05 22.6 23.5 22.05 24.3 22.15 24.45 22.75 25.65 22.7 25.7 22.55 26.0 21.95 24.75 21.8 24.55 21.5 24.85 21.05 25.25 21.25 25.6 21.75 26.75 21.45 27.0 21.05 26.0 20.75 25.45 20.0 26.05 20.1 26.25 20.6 27.15 20.15 27.05 19.85 26.45 19.75 26.25 19.7 26.3 19.5 25.15 19.55 25.3 19.8 25.75 20.45 25.25 20.6 25.15 20.4 24.8 19.95 23.95 20.25 23.65 20.7 24.6 20.85 24.95 21.6 24.2 21.5 24.0 20.8 23.0 20.75 22.9 20.85 22.95 21.0 22.75 21.05 22.8 21.7 23.85 21.8 23.95 21.9 23.8 22.3 23.0 21.4 22.1 21.4 22.05" fill="#8a5400" fill-rule="evenodd" stroke="none"/>
      <path d="M16.9 25.85 L16.85 25.6 16.8 25.4 17.0 25.35 17.15 25.75 17.55 26.9 17.0 25.95 16.9 25.85 M18.25 26.75 L18.3 26.9 18.4 27.25 18.8 28.3 18.6 28.1 17.8 27.25 18.0 27.05 18.25 26.75 M22.1 53.25 L21.45 52.85 22.65 53.55 22.1 53.25" fill="#1c0a00" fill-rule="evenodd" stroke="none"/>
      <path d="M17.8 25.55 L17.85 25.7 18.25 26.75 18.0 27.05 17.8 27.25 17.55 26.9 17.15 25.75 17.0 25.35 Q17.3 25.15 17.7 25.05 L17.8 25.55" fill="#582508" fill-rule="evenodd" stroke="none"/>
      <path d="M-4.85 30.7 L-4.8 30.7 -4.25 31.0 -4.75 32.05 -4.75 32.1 -4.85 32.3 -5.6 31.95 -5.55 31.75 -5.5 31.75 -4.85 30.7 M-3.8 31.0 L-3.35 31.6 Q-3.15 31.65 -2.9 31.4 L-3.45 32.6 -3.5 32.7 -3.55 32.85 -4.5 32.45 -4.45 32.25 -4.4 32.2 -3.8 31.0 M-2.8 31.85 L-2.15 32.15 -2.55 33.2 -2.95 33.05 -3.2 32.95 -3.15 32.85 -3.1 32.75 -2.8 31.85 M-1.6 31.95 L-1.6 32.5 -1.15 32.75 -1.5 33.5 -1.5 33.6 -1.55 33.6 -2.15 33.35 -2.1 33.1 -1.6 31.95 M-1.0 32.85 Q-0.45 33.15 -0.45 33.3 L-0.45 33.4 -0.4 33.4 -0.6 33.95 -0.65 33.95 -1.25 33.75 -1.25 33.7 -1.2 33.65 -1.0 32.85 M-0.7 34.1 L-1.15 34.8 -1.25 34.95 -1.3 35.0 -1.4 35.1 -1.55 35.3 -1.6 35.35 -1.75 35.25 -1.65 35.0 -1.65 34.9 -1.6 34.8 -1.3 33.95 -0.7 34.1 M-2.15 35.55 L-2.1 35.6 -3.05 35.75 -3.05 35.7 -3.2 35.75 -2.9 35.05 -2.6 35.15 -2.1 35.4 -2.15 35.55 M-3.5 35.75 L-4.0 35.7 -4.25 35.7 -3.9 34.65 -3.2 34.9 -3.5 35.75 M-4.65 35.7 L-4.9 35.7 -5.0 35.65 -5.2 35.65 -5.5 35.55 -5.15 34.3 -4.1 34.6 -4.65 35.7 M-5.9 35.45 L-6.25 35.3 -6.3 35.3 -6.85 35.0 -6.65 34.5 -6.0 34.75 -5.7 34.7 -5.9 35.45 M-7.15 34.75 L-7.45 34.25 -7.4 33.8 -7.4 33.65 -7.4 33.6 -6.8 33.8 -6.85 33.95 -7.15 34.75 M-7.2 33.05 L-7.15 33.05 -7.15 33.0 -6.5 32.0 -6.1 32.15 -6.55 33.2 -6.6 33.25 -6.65 33.35 -7.2 33.05 M-6.25 31.6 L-6.15 31.5 -6.15 31.45 Q-5.6 30.7 -5.35 30.7 L-5.25 30.7 -5.55 31.15 -5.8 31.6 -5.8 31.65 -5.9 31.8 -6.25 31.6 M-6.2 33.15 L-5.8 32.3 -4.95 32.6 -5.3 33.6 -5.35 33.85 -5.45 33.95 Q-5.55 33.1 -6.0 33.1 L-6.05 33.1 -6.2 33.15 M-3.35 33.3 L-2.65 33.5 -3.1 34.7 -3.8 34.45 -3.8 34.4 -3.7 34.2 -3.65 34.05 -3.6 34.0 -3.35 33.3 M-3.85 33.8 L-3.9 34.0 -3.95 34.15 -4.05 34.35 -4.05 34.4 -5.1 34.0 -5.05 33.8 -4.9 33.6 -4.65 32.75 -3.8 33.1 -3.65 33.15 -3.85 33.8 M-2.4 33.6 L-1.6 33.85 -1.85 34.65 -1.9 34.8 -1.95 34.9 -2.0 35.15 -2.8 34.8 -2.75 34.65 -2.7 34.55 -2.65 34.35 -2.4 33.6" fill="#bd8701" fill-rule="evenodd" stroke="none"/>
      <path d="M-5.25 30.7 L-4.95 30.7 -4.85 30.7 -5.5 31.75 -5.55 31.75 -5.6 31.95 -4.85 32.3 -4.75 32.1 -4.75 32.05 -4.25 31.0 -3.8 31.0 -4.4 32.2 -4.45 32.25 -4.5 32.45 -3.55 32.85 -3.5 32.7 -3.45 32.6 -2.9 31.4 -2.85 31.8 -2.8 31.85 -3.1 32.75 -3.15 32.85 -3.2 32.95 -2.95 33.05 -2.55 33.2 -2.15 32.15 -1.6 31.95 -2.1 33.1 -2.15 33.35 -1.55 33.6 -1.5 33.6 -1.5 33.5 -1.15 32.75 -1.0 32.85 -1.2 33.65 -1.25 33.7 -1.25 33.75 -0.65 33.95 -0.65 34.0 -0.7 34.1 -1.3 33.95 -1.6 34.8 -1.65 34.9 -1.65 35.0 -1.75 35.25 -1.6 35.35 -1.7 35.5 -1.75 35.5 -1.85 35.5 -2.15 35.55 -2.1 35.4 -2.6 35.15 -2.9 35.05 -3.2 35.75 -3.05 35.7 -3.05 35.75 -3.2 35.75 -3.5 35.75 -3.2 34.9 -3.9 34.65 -4.25 35.7 -4.65 35.7 -4.1 34.6 -5.15 34.3 -5.5 35.55 -5.9 35.45 -5.7 34.7 Q-5.6 34.6 -5.65 34.4 -5.75 34.1 -5.5 33.95 L-5.45 33.95 -5.35 33.85 -5.25 33.7 -5.3 33.6 -4.95 32.6 -5.8 32.3 -6.2 33.15 -6.45 33.25 -6.5 33.25 -6.6 33.35 -6.65 33.45 -6.75 33.8 -6.75 33.95 -6.65 34.5 -6.85 35.0 -6.9 34.95 -7.0 34.95 -7.15 34.75 -6.85 33.95 -6.8 33.8 -7.4 33.6 -7.25 33.2 -7.2 33.05 -6.65 33.35 -6.6 33.25 -6.55 33.2 -6.1 32.15 -6.5 32.0 -6.45 31.9 -6.25 31.6 -5.9 31.8 -5.8 31.65 -5.8 31.6 -5.55 31.15 -5.25 30.7 M-2.4 33.6 L-2.65 34.35 -2.7 34.55 -2.75 34.65 -2.8 34.8 -2.0 35.15 -1.95 34.9 -1.9 34.8 -1.85 34.65 -1.6 33.85 -2.4 33.6 M-3.85 33.8 L-3.65 33.15 -3.8 33.1 -4.65 32.75 -4.9 33.6 -5.05 33.8 -5.1 34.0 -4.05 34.4 -4.05 34.35 -3.95 34.15 -3.9 34.0 -3.85 33.8 M-3.35 33.3 L-3.6 34.0 -3.65 34.05 -3.7 34.2 -3.8 34.4 -3.8 34.45 -3.1 34.7 -2.65 33.5 -3.35 33.3" fill="#875100" fill-rule="evenodd" stroke="none"/>
      <path d="M8.4 6.05 L8.55 6.4 8.55 6.55 8.55 6.6 7.75 9.75 6.75 13.8 Q6.0 18.0 6.0 21.25 L5.85 24.55 5.8 24.65 5.15 24.6 5.05 24.55 4.8 24.55 4.75 24.5 4.2 24.5 4.05 24.25 4.15 24.0 4.05 21.5 Q4.05 20.15 4.4 17.25 L4.9 13.35 Q4.95 12.4 5.95 9.25 6.1 8.6 6.8 7.35 7.5 6.1 7.95 5.9 L8.1 5.85 8.25 5.9 8.4 6.05" fill="#000000" fill-rule="evenodd" stroke="none"/>
      <path d="M8.9 2.8 L8.95 2.75 8.95 2.85 8.9 2.8 M3.25 4.65 L3.25 4.6 2.35 4.05 2.2 3.95 1.6 3.55 0.45 2.8 -0.1 2.5 Q-0.5 2.25 -0.9 2.15 0.7 -0.75 4.4 0.45 5.1 0.7 5.4 1.15 L5.7 1.45 Q6.3 2.2 5.9 2.65 L5.8 3.1 5.55 3.3 5.5 3.35 4.6 4.0 3.75 4.5 3.25 4.65 M8.3 6.2 L8.3 6.25 8.3 6.15 8.3 6.2" fill="#9f4f04" fill-rule="evenodd" stroke="none"/>
      <path d="M5.2 4.5 L5.25 4.45 5.3 4.5 5.2 4.5" fill="#6b3400" fill-rule="evenodd" stroke="none"/>
      <path d="M-0.9 2.15 L-1.15 2.1 -1.15 1.6 Q-0.7 0.45 1.1 -0.7 L2.1 -1.35 2.25 -1.45 2.3 -1.45 2.85 -1.75 3.9 -2.3 5.7 -3.25 6.25 -3.55 6.55 -2.85 7.55 -0.3 7.65 -0.1 8.05 0.9 8.25 1.45 8.5 1.95 8.9 2.75 8.9 2.8 8.95 2.85 8.95 2.9 8.9 2.85 8.7 3.05 8.65 3.05 7.05 3.6 3.7 4.9 3.35 4.7 3.25 4.65 3.75 4.5 4.6 4.0 5.5 3.35 5.55 3.3 5.8 3.1 5.9 2.65 Q6.3 2.2 5.7 1.45 L5.4 1.15 Q5.1 0.7 4.4 0.45 0.7 -0.75 -0.9 2.15 M4.85 7.5 L5.3 6.75 5.45 6.95 5.45 6.85 5.6 6.75 5.75 6.95 5.4 7.5 5.4 7.55 5.9 7.1 6.0 7.2 Q5.7 7.4 5.7 7.9 L5.8 8.1 4.65 9.0 4.5 8.9 4.25 9.3 3.8 9.5 3.7 9.3 4.65 7.3 4.85 7.5 M3.3 11.6 L3.55 13.55 Q3.8 15.45 3.7 18.35 3.65 21.25 3.95 23.85 4.25 26.45 4.7 28.15 L4.7 28.25 4.7 28.4 4.7 28.5 Q3.25 24.0 2.9 20.4 2.55 16.8 2.55 15.25 L2.55 12.75 2.6 12.6 3.1 11.3 3.2 11.15 3.2 11.1 3.3 11.6 M0.25 33.45 L0.2 33.45 0.25 33.2 0.3 33.2 0.25 33.45 M0.2 33.15 L0.1 33.8 -0.5 35.95 -1.7 38.7 Q-2.4 39.8 -2.1 39.2 -4.35 42.6 -6.75 41.35 -9.15 40.1 -10.95 38.15 L-10.55 37.85 Q-8.95 40.2 -5.4 41.1 L-4.8 41.1 -4.5 40.9 -4.3 40.9 Q-2.2 38.9 -1.25 36.1 L-2.55 36.35 Q-3.1 36.55 -4.25 36.35 L-5.5 36.0 -5.7 35.95 -7.65 34.85 -7.55 34.7 -7.55 34.45 -7.45 34.45 -7.45 34.25 -7.0 34.95 -6.9 34.95 -6.3 35.3 -6.25 35.3 -5.2 35.65 -5.0 35.65 -4.9 35.7 -4.0 35.7 -3.5 35.75 -3.05 35.7 -2.35 35.6 Q-1.7 35.5 -1.15 34.8 -0.6 34.0 -0.4 33.4 L-0.45 33.4 -0.45 33.3 Q-0.45 33.1 -1.6 32.5 -2.0 32.2 -2.85 31.8 L-3.35 31.6 Q-4.45 30.8 -4.95 30.7 L-4.85 30.5 -4.7 30.65 -0.1 33.0 -0.1 32.95 0.0 33.05 0.2 33.15 M2.95 26.15 Q0.55 25.5 -1.5 23.7 L-0.85 22.0 -0.45 21.0 Q-0.35 22.55 0.9 23.75 L2.95 26.15" fill="#4f2600" fill-rule="evenodd" stroke="none"/>
      <path d="M3.95 30.45 Q3.95 31.2 3.25 31.2 2.3 31.2 2.25 30.45 2.25 29.4 3.1 29.45 3.95 29.5 3.95 30.45 M3.35 35.2 Q2.4 35.2 2.35 34.45 2.35 33.4 3.2 33.45 4.05 33.5 4.05 34.45 4.05 35.2 3.35 35.2 M3.55 38.7 Q2.6 38.7 2.55 37.95 2.55 36.9 3.4 36.95 4.25 37.0 4.25 37.95 4.25 38.7 3.55 38.7 M4.45 41.6 Q4.45 42.35 3.75 42.35 2.8 42.35 2.75 41.6 2.75 40.55 3.6 40.6 4.45 40.65 4.45 41.6 M-5.25 33.95 Q-5.25 34.75 -6.0 34.75 -6.85 34.75 -6.75 33.95 -6.75 33.1 -6.0 33.1 -5.25 33.1 -5.25 33.95" fill="#000000" fill-rule="evenodd" stroke="none"/>
      <path d="M8.4 3.1 L8.65 3.05 8.7 3.05 8.9 2.85 8.95 2.9 8.8 3.4 8.75 3.6 8.65 4.15 8.55 3.7 8.5 3.55 8.45 3.35 8.4 3.1 M8.5 4.9 L8.4 5.2 8.4 5.15 8.25 6.0 8.05 6.15 7.5 6.3 7.25 5.3 7.25 5.15 Q7.55 4.95 7.9 4.9 L8.45 4.75 8.5 4.9 M8.1 6.45 L7.7 7.75 7.65 7.95 7.65 7.75 7.55 6.7 8.1 6.45 M7.4 8.7 L7.1 9.6 6.25 9.95 6.2 9.4 6.15 9.0 6.2 8.95 7.4 8.3 7.4 8.7 M7.0 10.0 L6.7 11.15 6.4 11.25 6.3 10.35 7.0 10.0 M6.55 11.75 L6.45 12.05 6.45 11.75 6.55 11.75 M6.05 13.8 L5.9 14.7 5.2 14.95 5.0 15.05 5.0 14.35 5.0 13.95 5.55 13.75 6.05 13.45 6.05 13.8 M5.85 14.9 L5.6 16.35 4.95 16.7 4.95 16.5 5.0 15.8 5.0 15.4 5.1 15.35 5.85 14.9 M5.55 16.6 L5.35 18.15 4.9 18.35 4.95 16.95 5.55 16.6 M5.3 18.4 L5.1 20.05 5.0 20.1 4.9 18.75 4.9 18.65 5.3 18.4 M5.1 20.3 L5.05 20.6 5.0 20.35 5.1 20.3 M5.0 21.5 L4.95 21.85 3.8 22.4 3.8 22.35 3.7 21.1 4.0 20.95 4.8 20.5 5.0 21.5 M4.95 22.1 L4.85 23.8 4.0 24.35 3.95 23.85 3.85 22.8 4.95 22.1 M4.8 24.4 L4.75 25.85 4.3 26.15 4.05 24.75 4.25 24.75 4.8 24.4 M4.75 26.1 L4.7 28.15 4.35 26.45 4.75 26.1 M3.7 20.85 L3.65 19.35 4.3 19.0 4.6 18.85 4.7 19.85 4.75 20.25 4.05 20.7 3.7 20.85 M3.65 19.05 L3.6 18.05 3.6 17.65 4.6 17.15 4.55 17.75 4.6 18.5 4.4 18.6 3.65 19.05 M3.6 17.45 L3.6 16.15 3.7 16.1 4.7 15.6 4.65 16.8 4.65 16.85 3.6 17.45 M3.6 15.85 L3.6 14.6 4.45 14.15 Q4.7 14.0 4.7 14.4 L4.7 15.25 3.6 15.85 M3.6 14.25 L3.55 13.7 3.5 13.15 3.5 13.0 Q3.9 12.7 4.4 12.5 L4.45 12.8 4.5 13.15 4.5 13.25 4.55 13.75 3.6 14.25 M3.45 12.7 L3.35 11.9 4.25 11.35 4.35 12.2 4.05 12.35 3.45 12.7 M3.25 11.45 L3.2 11.1 3.2 11.15 3.15 10.9 3.1 10.4 4.05 9.95 4.2 10.95 3.25 11.45 M3.05 10.1 L2.85 9.35 Q2.9 9.25 3.25 9.1 L3.85 8.75 4.0 9.6 3.05 10.1 M4.15 8.55 L4.35 8.45 4.75 8.2 5.4 7.8 4.1 8.2 4.1 8.0 5.5 7.45 5.6 8.1 5.65 8.65 5.25 8.95 4.3 9.45 4.15 8.55 M3.75 8.3 L2.75 8.55 3.0 8.45 3.75 8.15 3.75 8.3 M2.45 8.35 L2.4 8.25 2.15 7.25 3.45 6.6 3.45 6.65 3.65 7.75 2.45 8.35 M2.05 6.95 L2.0 6.9 1.8 6.35 1.65 5.7 3.1 5.15 3.35 6.2 3.35 6.3 3.35 6.35 2.05 6.95 M3.55 4.95 L3.7 4.9 4.85 4.45 5.05 5.35 5.05 5.45 5.1 5.55 4.85 5.65 3.75 6.15 3.75 6.1 3.75 6.0 3.55 4.95 M5.3 4.25 L5.75 4.1 6.55 3.75 6.75 4.45 6.8 4.5 6.85 4.85 5.95 5.2 5.55 5.35 5.5 5.2 5.5 5.1 5.35 4.5 5.3 4.25 M6.9 3.65 L7.05 3.6 8.05 3.2 8.2 3.75 8.2 3.85 8.35 4.3 8.35 4.35 8.25 4.4 8.0 4.5 7.15 4.75 7.05 4.35 7.05 4.3 6.9 3.65 M5.2 6.15 L5.4 7.05 4.0 7.6 3.85 6.5 3.85 6.45 4.5 6.2 5.15 5.95 5.2 6.15 M5.6 5.8 L6.05 5.65 6.35 5.5 6.95 5.25 7.0 5.4 7.25 6.4 6.15 6.8 5.8 6.9 5.65 5.95 5.6 5.8 M4.5 10.75 L4.35 9.8 5.15 9.45 5.75 9.2 5.85 10.15 4.6 10.7 4.5 10.75 M4.55 11.15 Q5.15 10.8 5.9 10.55 L5.95 11.3 6.0 11.35 Q5.35 11.65 4.7 12.05 L4.65 11.8 4.55 11.15 M7.25 7.05 L7.35 7.9 Q6.8 8.1 6.2 8.4 L6.05 8.5 5.9 7.6 5.85 7.35 6.1 7.25 6.2 7.25 7.25 6.8 7.25 7.05 M6.0 11.7 L6.0 12.25 6.0 12.55 6.05 13.1 5.65 13.3 5.5 13.35 4.9 13.55 4.85 13.1 4.8 12.65 4.75 12.35 5.95 11.75 6.0 11.7" fill="#bd8701" fill-rule="evenodd" stroke="none"/>
      <path d="M8.65 4.15 L8.65 4.25 8.6 4.45 8.55 4.7 8.5 4.9 8.45 4.75 7.9 4.9 Q7.55 4.95 7.25 5.15 L7.25 5.3 7.5 6.3 8.05 6.15 8.25 6.0 8.1 6.4 8.1 6.45 7.55 6.7 7.65 7.75 7.65 7.95 7.65 8.0 7.45 8.55 7.4 8.7 7.4 8.3 6.2 8.95 6.15 9.0 6.2 9.4 6.25 9.95 7.1 9.6 7.0 10.0 6.3 10.35 6.4 11.25 6.7 11.15 6.55 11.75 6.45 11.75 6.45 12.05 6.45 12.1 6.35 12.4 6.25 12.95 6.15 13.35 6.05 13.8 6.05 13.45 5.55 13.75 5.0 13.95 5.0 14.35 5.0 15.05 5.2 14.95 5.9 14.7 5.85 14.9 5.1 15.35 5.0 15.4 5.0 15.8 4.95 16.5 4.95 16.7 5.6 16.35 5.55 16.6 4.95 16.95 4.9 18.35 5.35 18.15 5.3 18.4 4.9 18.65 4.9 18.75 5.0 20.1 5.1 20.05 5.1 20.3 5.0 20.35 5.05 20.6 5.0 21.5 4.8 20.5 4.0 20.95 3.7 21.1 3.7 20.85 4.05 20.7 4.75 20.25 4.7 19.85 4.6 18.85 4.3 19.0 3.65 19.35 3.65 19.05 4.4 18.6 4.6 18.5 4.55 17.75 4.6 17.15 3.6 17.65 3.6 17.45 4.65 16.85 4.65 16.8 4.7 15.6 3.7 16.1 3.6 16.15 3.6 15.85 4.7 15.25 4.7 14.4 Q4.7 14.0 4.45 14.15 L3.6 14.6 3.6 14.4 3.6 14.25 4.55 13.75 4.5 13.25 4.5 13.15 4.45 12.8 4.4 12.5 Q3.9 12.7 3.5 13.0 L3.45 12.7 4.05 12.35 4.35 12.2 4.25 11.35 3.35 11.9 3.3 11.6 3.25 11.45 4.2 10.95 4.05 9.95 3.1 10.4 3.05 10.1 4.0 9.6 3.85 8.75 4.15 8.55 4.3 9.45 5.25 8.95 5.65 8.65 5.6 8.1 5.5 7.45 4.1 8.0 4.1 8.2 3.75 8.3 3.75 8.15 3.0 8.45 2.75 8.55 2.5 8.65 2.45 8.35 3.65 7.75 3.45 6.65 3.45 6.6 2.15 7.25 2.1 7.15 2.1 7.1 2.05 6.95 3.35 6.35 3.35 6.3 3.35 6.2 3.1 5.15 3.55 4.95 3.75 6.0 3.75 6.1 3.75 6.15 4.85 5.65 5.1 5.55 5.05 5.45 5.05 5.35 4.85 4.45 5.3 4.25 5.35 4.5 5.5 5.1 5.5 5.2 5.55 5.35 5.95 5.2 6.85 4.85 6.8 4.5 6.75 4.45 6.55 3.75 6.9 3.65 7.05 4.3 7.05 4.35 7.15 4.75 8.0 4.5 8.25 4.4 8.35 4.35 8.35 4.3 8.2 3.85 8.2 3.75 8.05 3.2 8.4 3.1 8.45 3.35 8.5 3.55 8.55 3.7 8.65 4.15 M4.95 21.85 L4.95 22.1 3.85 22.8 3.8 22.4 4.95 21.85 M4.85 23.8 L4.8 24.4 4.25 24.75 4.05 24.75 4.0 24.35 4.85 23.8 M4.75 25.85 L4.75 26.1 4.35 26.45 4.3 26.15 4.75 25.85 M5.25 4.45 L5.2 4.5 5.3 4.5 5.25 4.45 M5.2 6.15 L5.15 5.95 4.5 6.2 3.85 6.45 3.85 6.5 4.0 7.6 5.4 7.05 5.2 6.15 M5.6 5.8 L5.65 5.95 5.8 6.9 6.15 6.8 7.25 6.4 7.0 5.4 6.95 5.25 6.35 5.5 6.05 5.65 5.6 5.8 M4.55 11.15 L4.65 11.8 4.7 12.05 Q5.35 11.65 6.0 11.35 L5.95 11.3 5.9 10.55 Q5.15 10.8 4.55 11.15 M4.5 10.75 L4.6 10.7 5.85 10.15 5.75 9.2 5.15 9.45 4.35 9.8 4.5 10.75 M7.25 7.05 L7.25 6.8 6.2 7.25 6.1 7.25 5.85 7.35 5.9 7.6 6.05 8.5 6.2 8.4 Q6.8 8.1 7.35 7.9 L7.25 7.05 M6.0 11.7 L5.95 11.75 4.75 12.35 4.8 12.65 4.85 13.1 4.9 13.55 5.5 13.35 5.65 13.3 6.05 13.1 6.0 12.55 6.0 12.25 6.0 11.7" fill="#875100" fill-rule="evenodd" stroke="none"/>
      <path d="M8.7 3.05 L8.9 2.85 8.95 2.9 8.8 3.4 8.75 3.6 8.65 4.15 8.55 3.7 8.5 3.55 8.45 3.35 8.4 3.1 8.65 3.05 8.7 3.05 M6.75 4.45 L6.8 4.5 6.85 4.85 5.95 5.2 5.75 4.1 6.55 3.75 6.75 4.45 M6.9 3.65 L7.05 3.6 8.05 3.2 8.2 3.75 8.2 3.85 8.35 4.3 8.35 4.35 8.25 4.4 8.0 4.5 7.15 4.75 7.05 4.35 7.05 4.3 6.9 3.65 M6.35 5.5 L6.95 5.25 7.0 5.4 7.25 6.4 6.15 6.8 6.05 5.65 6.35 5.5 M7.25 5.15 Q7.55 4.95 7.9 4.9 L8.45 4.75 8.5 4.9 8.4 5.2 8.4 5.15 8.25 6.0 8.05 6.15 7.5 6.3 7.25 5.3 7.25 5.15 M7.65 7.95 L7.65 7.75 7.55 6.7 8.1 6.45 7.7 7.75 7.65 7.95 M7.25 7.05 L7.35 7.9 Q6.8 8.1 6.2 8.4 L6.2 7.25 7.25 6.8 7.25 7.05 M6.2 8.95 L7.4 8.3 7.4 8.7 7.1 9.6 6.25 9.95 6.2 9.4 6.15 9.0 6.2 8.95 M6.0 11.7 L6.0 12.25 6.0 12.55 6.05 13.1 5.65 13.3 5.95 11.75 6.0 11.7 M6.4 11.25 L6.3 10.35 7.0 10.0 6.7 11.15 6.4 11.25 M6.55 11.75 L6.45 12.05 6.45 11.75 6.55 11.75 M5.1 15.35 L5.85 14.9 5.6 16.35 4.95 16.7 4.95 16.5 5.0 15.8 5.1 15.35 M6.05 13.45 L6.05 13.8 5.9 14.7 5.2 14.95 5.35 14.4 5.55 13.75 6.05 13.45 M5.35 18.15 L4.9 18.35 4.95 16.95 5.55 16.6 5.35 18.15 M4.6 18.5 L4.4 18.6 4.55 17.75 4.6 18.5 M4.9 18.65 L5.3 18.4 5.1 20.05 5.0 20.1 4.9 18.75 4.9 18.65 M4.6 18.85 L4.7 19.85 4.75 20.25 4.05 20.7 4.3 19.0 4.6 18.85 M5.0 20.35 L5.1 20.3 5.05 20.6 5.0 20.35 M4.0 20.95 L4.8 20.5 5.0 21.5 4.95 21.85 3.8 22.4 3.8 22.35 4.0 20.95 M4.85 23.8 L4.0 24.35 3.95 23.85 3.85 22.8 4.95 22.1 4.85 23.8 M4.7 28.15 L4.35 26.45 4.75 26.1 4.7 28.15 M4.05 24.75 L4.25 24.75 4.8 24.4 4.75 25.85 4.3 26.15 4.05 24.75" fill="#8a5b00" fill-rule="evenodd" stroke="none"/>
      <path d="M7.1 9.6 L7.0 10.0 6.3 10.35 6.4 11.25 6.7 11.15 6.55 11.75 6.45 11.75 6.45 12.05 6.45 12.1 6.35 12.4 6.25 12.95 6.15 13.35 6.05 13.8 6.05 13.45 5.55 13.75 5.65 13.3 6.05 13.1 6.0 12.55 6.0 12.25 6.0 11.7 5.95 11.75 6.0 11.35 6.2 9.4 6.25 9.95 7.1 9.6 M7.05 4.3 L7.05 4.35 7.15 4.75 8.0 4.5 8.25 4.4 8.35 4.35 8.35 4.3 8.2 3.85 8.2 3.75 8.05 3.2 8.4 3.1 8.45 3.35 8.5 3.55 8.55 3.7 8.65 4.15 8.65 4.25 8.6 4.45 8.55 4.7 8.5 4.9 8.45 4.75 7.95 4.85 7.25 5.15 7.25 5.3 7.5 6.3 8.05 6.15 8.25 6.0 8.1 6.4 8.1 6.45 7.55 6.7 7.65 7.75 7.65 7.95 7.65 8.0 7.45 8.55 7.4 8.7 7.4 8.3 6.2 8.95 6.2 8.4 Q6.8 8.1 7.35 7.9 L7.25 7.05 7.25 6.8 6.2 7.25 6.15 6.8 7.25 6.4 7.0 5.4 6.95 5.25 6.35 5.5 6.05 5.65 5.95 5.2 6.85 4.85 6.8 4.5 6.75 4.45 6.55 3.75 6.9 3.65 7.05 4.3 M5.1 15.35 L5.2 14.95 5.9 14.7 5.85 14.9 5.1 15.35 M5.3 18.4 L4.9 18.65 4.9 18.75 5.0 20.1 5.1 20.05 5.1 20.3 5.0 20.35 5.05 20.6 5.0 21.5 4.8 20.5 4.0 20.95 4.05 20.7 4.75 20.25 4.7 19.85 4.6 18.85 4.3 19.0 4.4 18.6 4.6 18.5 4.55 17.75 5.0 15.8 4.95 16.5 4.95 16.7 5.6 16.35 5.55 16.6 4.95 16.95 4.9 18.35 5.35 18.15 5.3 18.4 M3.8 22.4 L3.85 22.4 4.95 21.85 4.95 22.1 3.85 22.8 3.8 22.4 M4.85 23.8 L4.8 24.4 4.25 24.75 4.05 24.75 4.0 24.35 4.85 23.8 M4.35 26.45 L4.3 26.15 4.75 25.85 4.75 26.1 4.35 26.45" fill="#5b2d00" fill-rule="evenodd" stroke="none"/>
      <path d="M5.35 1.65 L4.55 0.95 4.55 0.7 Q5.25 0.65 5.7 1.15 L6.3 2.15 Q6.4 2.65 5.75 3.05 5.05 3.45 4.7 3.25 4.7 3.05 5.2 2.8 L5.7 2.45 5.35 1.65" fill="#9f4f04" fill-rule="evenodd" stroke="none"/>
      <path d="M-0.6 21.55 Q-0.9 22.25 -0.65 22.75 -1.6 21.35 -1.6 20.3 L-1.05 20.45 Q-0.5 20.65 -0.4 20.75 L-0.6 21.55" fill="#000000" fill-rule="evenodd" stroke="none"/>
      <path d="M0.4 23.95 L0.45 24.0 0.75 24.25 1.15 24.55 0.85 25.15 0.55 25.75 -0.1 25.25 -0.25 25.15 0.4 23.95 M1.45 24.8 L2.0 25.3 1.4 26.45 0.8 25.9 1.45 24.8 M2.2 25.5 L3.05 26.1 2.65 27.25 1.75 26.7 2.2 25.5 M2.55 27.45 L2.5 27.55 2.4 27.7 2.4 27.75 1.9 28.8 0.7 28.3 0.65 28.3 1.0 27.75 1.5 26.95 2.05 27.35 2.55 27.45 M0.5 28.2 L0.0 27.85 -0.2 27.75 0.2 27.05 0.5 26.45 0.6 26.25 0.65 26.3 1.25 26.75 0.65 27.6 0.5 28.2 M-0.45 27.55 L-0.75 27.3 -1.05 27.05 -1.1 27.0 -0.7 26.0 -0.4 25.45 0.35 26.05 0.25 26.25 -0.25 27.15 -0.45 27.55 M-1.4 26.75 L-1.85 26.35 -2.2 26.0 -1.6 24.75 -1.45 24.55 -1.15 24.85 -0.7 25.25 -0.9 25.6 -1.4 26.75 M-2.4 25.65 L-3.0 24.75 -2.6 24.05 -2.25 23.5 -1.7 24.3 -2.4 25.65 M-3.15 24.35 L-3.35 23.35 -3.35 23.25 -2.65 21.95 -2.45 23.05 -3.15 24.35 M-2.3 21.35 L-1.8 20.3 -1.6 20.3 -1.35 21.5 -2.1 22.5 -2.3 21.35 M-1.05 22.05 L-0.65 22.75 -0.7 22.8 -1.45 23.95 -1.95 23.0 Q-1.5 22.35 -1.05 22.05 M-0.45 23.0 L-0.05 23.5 0.1 23.65 -0.35 24.6 -0.5 24.95 -1.25 24.2 -0.45 23.0" fill="#bd8701" fill-rule="evenodd" stroke="none"/>
      <path d="M0.1 23.65 L0.4 23.95 -0.25 25.15 -0.1 25.25 0.55 25.75 0.85 25.15 1.15 24.55 1.45 24.8 0.8 25.9 1.4 26.45 2.0 25.3 2.2 25.5 1.75 26.7 2.65 27.25 2.7 27.3 2.55 27.45 2.05 27.35 1.5 26.95 1.0 27.75 0.65 28.3 0.5 28.2 0.65 27.6 1.25 26.75 0.65 26.3 0.6 26.25 0.5 26.45 0.2 27.05 -0.2 27.75 -0.45 27.55 -0.25 27.15 0.25 26.25 0.35 26.05 -0.4 25.45 -0.7 26.0 -1.1 27.0 -1.4 26.75 -0.9 25.6 -0.7 25.25 -1.15 24.85 -1.45 24.55 -1.6 24.75 -2.2 26.0 -2.4 25.65 -1.7 24.3 -2.25 23.5 -2.6 24.05 -3.0 24.75 -3.15 24.35 -2.45 23.05 -2.65 21.95 -2.3 21.35 -2.1 22.5 -1.35 21.5 -1.05 22.05 Q-1.5 22.35 -1.95 23.0 L-1.45 23.95 -0.7 22.8 -0.65 22.75 -0.5 22.95 -0.4 22.9 -0.45 23.0 -1.25 24.2 -0.5 24.95 -0.35 24.6 0.1 23.65" fill="#8a5400" fill-rule="evenodd" stroke="none"/>
      <path d="M1.15 24.55 L1.45 24.8 0.8 25.9 1.4 26.45 2.0 25.3 2.2 25.5 1.75 26.7 2.65 27.25 2.75 27.3 2.7 27.5 2.55 27.45 2.05 27.35 1.5 26.95 1.0 27.75 0.65 28.3 0.5 28.2 0.65 27.6 1.25 26.75 0.65 26.3 0.85 25.15 1.15 24.55 M-0.2 27.75 L-0.45 27.55 -0.25 27.15 0.2 27.05 -0.2 27.75" fill="#5b2d00" fill-rule="evenodd" stroke="none"/>
      <path d="M0.85 25.15 L0.75 24.25 1.15 24.55 0.85 25.15 M1.45 24.8 L2.0 25.3 1.4 26.45 0.8 25.9 1.45 24.8 M2.2 25.5 L3.05 26.1 2.65 27.25 1.75 26.7 2.2 25.5 M2.55 27.45 L1.9 28.8 0.7 28.3 0.65 28.3 1.0 27.75 1.5 26.95 2.05 27.35 2.55 27.45 M0.5 28.2 L0.0 27.85 -0.2 27.75 0.2 27.05 0.25 27.0 0.65 26.3 1.25 26.75 0.65 27.6 0.5 28.2 M-0.45 27.55 L-0.75 27.3 -0.25 27.15 -0.45 27.55" fill="#8a5b00" fill-rule="evenodd" stroke="none"/>
      <path d="M2.1 26.75 L2.65 27.35 3.35 25.35 3.55 25.4 3.5 25.6 2.9 27.45 2.85 27.65 2.6 28.25 2.05 29.65 1.6 29.5 Q1.25 29.35 1.25 29.2 L1.25 29.0 2.1 26.75" fill="#1c0a00" fill-rule="evenodd" stroke="none"/>
      <path d="M2.1 26.75 L2.65 25.05 3.35 25.35 2.65 27.35 2.1 26.75" fill="#582508" fill-rule="evenodd" stroke="none"/>
      <path d="M3.2 25.75 L3.3 25.75 3.35 25.8 3.2 25.75 M-2.3 53.55 L-1.1 52.85 -1.75 53.25 -2.3 53.55" fill="#1c0a00" fill-rule="evenodd" stroke="none"/>
      <path d="M3.5 25.85 L3.55 25.85 3.35 26.8 2.55 29.2 1.7 30.2 1.5 30.4 1.35 30.6 -0.05 32.3 -1.35 34.65 Q-2.2 36.15 -2.2 38.2 -2.2 40.2 -1.7 41.85 L-0.5 44.7 0.85 47.0 Q1.5 48.1 1.6 49.55 L1.6 49.6 1.45 50.0 0.25 51.4 Q-0.75 52.4 -2.05 53.2 L-1.4 52.4 Q-0.9 51.7 -0.9 50.8 -0.9 49.8 -1.05 48.9 -1.25 47.95 -2.25 46.4 -3.3 44.85 -3.65 43.4 L-4.1 40.4 -4.1 40.35 -3.8 36.7 -3.55 35.65 -2.75 33.7 -1.95 32.25 -1.4 31.45 -0.2 29.95 1.75 28.1 Q3.05 26.8 3.35 25.95 L3.5 25.75 3.5 25.85" fill="#000000" fill-rule="evenodd" stroke="none"/>
    </g>
  </defs>
</svg>
