<svg xmlns="http://www.w3.org/2000/svg" xmlns:ffdec="https://www.free-decompiler.com/flash" xmlns:xlink="http://www.w3.org/1999/xlink" ffdec:objectType="frame" width="22.1" height="27.3"><use ffdec:characterId="3" xlink:href="#a" width="22.1" height="27.3"/><defs><g id="a" fill-rule="evenodd"><path fill="#fff" d="m14.05 1.2.15.1.45.8.7 1.5.8 1.75.25.55 1.7 4 .85 2.2 1.15 3.5.75 2.8.8 3.95.35 2.45q0 .45-.65.7l-2.15.6-6.2 1.05-5-.05-5.55-1q-1.9-.55-2.45-1l.1-1.5q.2-3.35 1.1-6.95l.95-3.5 2.1-5.4q1.3-3.05 3.15-5.9l.45-.65.35-.3.5-.2.25.05.25.7q.15.6 1.55.75 1.35.15 1.75-.85l.4-.65.4.05.25.1z"/><path fill="#e0b31c" d="m12.45 1.6.05-.05 1.9-.05.2.35h-1.95l-.55.1zm-4.1-.15h.85l.15.2.25.25-1.45-.2-.8.1.25-.45z"/><path fill="#b1b1b1" d="M12.2 2.9h-1.3l-.1-.05-2.95-.1-1 .05.2-.4h.05l.8-.1 1.35.05 1.6.1.1.05 3.85.1.1-.05.15.35H15l-.1.1h-2.3zm3.75 2.05.2.4H16L6.7 5l-.75.1h-.5l.4-.6L7 4.6h1.4l6.55.4h.1zM14.3 7.8l3 .15.15.45h-.8l-.5-.1-.75-.05-1.85.05q-1.95.2-3.7 0l-4.2-.1-.1-.05H4.1l.2-.4h1.2l.1.05 4 .1q1.95.2 2.65 0h1.35zM10.9 11l2.75-.3h1.6v-.05l.9.1.6.05 1.8.2.2.5-1.3-.15-1.15-.25h-2.6l-2.8.3H2.7l.2-.45h3.45l.1.05H8l.5.05L9 11zm-2.05 4.15-5.1-.2-2.05-.2.1-.4.15.1 2.95.1.15.05 2.45.05 1.35.1 7.8-.45 3.1.05.1.35.05.05h-3.85l-1.2.05-4.35.3zm-4.65 3 2.15.2 2.45-.25h2.95l2.1.25h1.65l.1.05h2.2l3-.2.05.3-.3.05-2.6.25-4.1-.05-2.15-.25-2.4.15-2.9.1-2.2-.2H.8l.1-.4zm16.6 6.25.65.05.65-.1q-.3.25 0 .5l-2.2.15-4.5.65-2.5.3-2.15.3H8.6l-.6.05-2.05-.3-1.5-.35-4.25-1-.05-.2v-.4l.6.35 1.9.5 2.55.5 2.75.5 2.75-.05 2.2-.3 2.5-.3 3.85-.55zm-.95-2.6 1.7-.05.1.4-2.9.15-.7.1-.5.05h-1.4l-.65.05h-1.4l-.1.05h-2.9l-2.35-.2h-1.5l-.1-.05-6.85-.55.05-.35 6.8.5.1.05H8.8l1.4.05.95.15h2.8l.1-.05h1.4q.25-.15.7-.15l.55-.05 1.8-.05h.95z"/><path fill="#565656" d="M21.4 20.5h-.15l-6.15.35-2.2-.25-8.7-.4-.4-.05H1.7L.55 20.1l.05-.5h.25l3.5.2H6.2l.5-.05 6.2.45 1.15.1 1.1.15h1.4l3.1-.35h1.65l.05.25zM15.5 3.9l-1.75.15-1.9.05-5.7-.15.3-.55L9 3.7h2.75l1.35-.2h2.2zm-2.9 3-.3-.05h-1.65L9.8 6.8H8.45L4.8 6.65l.25-.4.2-.05h2.9l1.7.15.8.1h1.65l.35.05 1.1-.15 1.75.1h.65l.45-.05.2.45h-1.3l-1.1-.05-1.35.05zm5.25 2.4.2.45.05.1h-1.95l-1.2.05L6 9.85l-.1-.05H3.35l.15-.4h2.4l.1.05h3.25l2.05-.05.55.1L16 9.3h1.85m-8.5 3.1 6.5-.1.4.1h2.4l.45-.05.2.45h-10l-.05.05H7.3l-.7.1H4.3l-1-.05-.7-.1-.35.05.15-.45h.2l1.7.15h2.3l.7-.1h2zm-5.7 4.55-.65-.1-1.75.15.05-.75 1.7.2.65.1h1.8l.85-.1 10.95-.35.95.1.9-.05 1.2.1.1.35.05.15-3.6-.2-4.6.15-6 .15-.8.1zM17 23.3l1.2.1 2.45-.15L21.7 23l.1.4.05.15h-.55l-3.1.25-1.2-.1-2.15.2-1.25.1-2.55.3H8.8l-.9-.15L5.3 24l-.45.05-.4-.05-2.75-.4-.2-.05-1.3-.35v-.45l.75.3 3.5.55.4.05.45-.05h.55l.75.15h1.3l1 .15h2.05l2.6-.3h.25l2.35-.2z"/><path fill="#d09400" fill-opacity=".298" d="m13 1.5.35-.6.45.1q.55.3.55.7l-.1.35-.15.1q-.85.6-1.65.6l-.5-.1-.4-.1q.8-.1 1.45-1.05"/><path fill-opacity=".2" d="m11.65 1.9-.1.1-.1.15.05.4.6 3.75.3 4.2.1 1.65.3 2.25.45 4.45.3-.1.55.1.9-.3 1.15-.7q1.85-1.3 2.8-3l.6-1 1.55 5.45q.65 2.5.95 5.1l-.9-1.2q-2.1-2.55-4.65-3.25l-2.3-.65-1.25.45q-.2 0-.2-.7l.05-.35q-.2-.6-.25-1.55l-.35-2.85-.75-6.15q-.5-4.3-.5-5.8v-.3L11.1 2v-.1h.1l.45-.05zm-3.5.45L7.5 1.9l.2-.35q.3-.5.7-.55.1.45.85 1l.75.45.15-.35.6-.05-.2 2.75-.55 5.8-.6 4.9q-.2 1.35-.25 2.65L9.1 19.4v.1l-.25.2-2.25-.4-1.2-.15q-1.75.65-3.6 2.3L.2 23v-.25l.6-4.25q.65-3.45 1.2-4.75l.2-.4L3.55 15l1.1 1.25.2.15q1.65 1.55 3.25 2.2H8l-1.65.2 2.25.4v-.45l.2-1.4-.15-.35q0-1.75.55-5.35l.25-2.8.5-2.7-.1-2 .1-1.05.05-.55-.5.05zm6 24.6-3 .25-1.4-.05.4-1.5.4-2.05.45-3.85q1 .6 2.15 3.85zm.35-2.55q0-1 1.85.1 1.8 1.05 1.8 1.9l-1.65.35-.95.1-.65-.95z"/><path fill="#ad861b" d="m21.1 16.4.2.65.1.2q-2.75 1.25-8.1 2.1l-1-9.45-.8-7.05v-.1l-.1-.3V2.4l-.05-.45.05-.15.05.05.2-.15.05-.1.05-.05.85-.95.65-.5-.05-.05.25-.05.65.85.25.5h-.05l1.4 2.35h.05l.1.2h-.05l.55.95v.05l.05.05V4.8l.1.4.05.05.45.85v.05l.25.45.05.05.1.15.05.2q2.1 4.4 3.65 9.4M10.5 1.95l-.9 8-1 9.45q-5.35-.85-8.1-2.1l.1-.2Q3.45 7.55 8.45.05z"/><path fill="#7e5e05" d="m21.3 17.05.1.2q-2.75 1.25-8.1 2.1l-1-9.45.3 1.4.55 3.8.5 3.75 1.45-.15 3-.7zM13.45 0l.65.85.25.5h-.05l-.25.1.1 1Q13.95 3.6 13 3.9l-.35.15h-.05V5l.25 2.4v.4l-.25-1.5-.8-3.4.05-.05.5.5q.25.25.6.2L13.6 3l.25-.75v-.6l-.15-.8-.25-.65.2 1.05-.05.35-.65.3-.1.05-.2.05-.95.3-.25-.4.2-.2.05-.1.05-.05.85-.95.65-.5-.05-.05zm-5 .05L8.7.1l-.05.05.65.5.85.95.05.05.3.35-.3.35-.95-.3-.2-.05-.1-.05-.8-.35-.05.2.2.95.15-.05.55.7.4.1.35-.55.1-.1.2-.2.45-.2v.05l-.4.8v.15L9.6 6.1l-.25 1.6-.3.9V7.45l.25-2.4V4.1h-.05l-.35-.15q-.95-.3-1.15-1.45l.1-1-.3-.1.25-.5q.45-.85.65-.85M14 7l-.05-.15-.2-.75.5.3v.2l.15.65.4.65.55.4 1.1.1q.7 0 .7-1.55l-.05-.15v-.05l-.1-.5.25.55V8l-.5.6v.05l-.55.15h-.35Q14.8 8.8 14 7m-9.1-.85-.1.55v.05l-.05.15q0 1.55.7 1.55l1.1-.1.55-.4.4-.65.15-.65-.05-.55.55-.6.2.25-.45 1.8-.3.65v.05l-.4.45-.85.35-.45.1q-.9 0-.75-.3V8.8q-.7-.45-.75-1.5zm3.75 4.9.15-.7L8.45 14l-.6 2.4.15.2q0 1.85-.5 1.85l-.2-.1h-.05l-.15.1-.2-.05v-.05l-1.35-.2h-.1l-1-.2-.2-.25.05-.1-.55-.15-2.55-.8.45-.1.25.05.4.05.5.15 2.7.6 1.55.2.65-2.25zm.65.3.3-1.4-1 9.45q-5.35-.85-8.1-2.1l.1-.2 3.2.95 3 .7 1.45.15.5-3.75zm4.9 3.95.65 2.25 1.55-.2 1.45-.3.1.35-3.35.9h-.05l-.25.05-.5-3.9-.35-2.6zm6.45 1.25-2.3.7-.1-.3.85-.2.5-.15.4-.05.25-.05z"/><path fill="#2c1a00" d="m21.15 16.6-.85.25-2.05.7-.7.25-.1.1h-.2l-.45.15-2.4.45-.25-.05h-.05L14 18l-.1-.9-.4-3.05-.05-.1L12.9 10v-.25l-.15-1.25-.2-.85-.25-1.6-.5-2.2-.15-.8V3l-.1-.15h-.05v-.1l-.1-.3V2.4l-.05-.45.05-.15.05.05.2-.15-.2.2.25.4.1.2.1.1.7.5h.45l.3-.4.15-.45.1-.65.05-.35-.2-1.05.25.65.15.8v.6L13.6 3l-.65.55q-.35.05-.6-.2l-.5-.5-.05.05.8 3.4.25 1.5.35 2.5.25 1.55.35 2.6.5 3.9.25-.05h.05l3.35-.9-.1-.35-1.8-7.8h-.65q-.4-.1-.85-.7l-.1-.1-.15-.15-.5-.9-.7-1.8v-.1l-.1-.7.05-.2v-.05q0-.35.95-.7l1.25-.2V3.6l.25.05.2.05h.05l.1.2h-.05l-.45-.15q-.85 0-1.4.5-.4.35-.4.6l.2.45.1.1.05.1.3.25q.45.35 1 .35h.15l.05-.05q1.05-.05.95-1.15l.05.05V4.8l.1.4.05.05-.15.6-.65.6-.95.05-.55-.1-.5-.3.2.75L14 7q.8 1.8 1.85 1.8h.35l.55-.15V8.6l.5-.6V6.7L17 6.15l.25.45.05.05.1.15.05.2v.2l.05.05v.85l-.35.7-.15.1.15.35-.2.3-.25-.45h-.05l-.3.1.4 1.5.6 2.5.9 3.75.1.3.45-.15-.25-.45-.15-.45q.5-.5.65.65l-.05.2 1.65-.5.45-.15zM6.55 5.35l.3-.3-.3-.3q-.3 0-.3.3l.05.15zM8.2.9l.25-.65-.2 1.05.15 1 .35.75.55.1.7-.5.1-.1.4-.7.05.15-.15.75v.1l-.15.1v.15l-.5 2.2Q9.2 7.65 9 9.8l-1.2 8.7h-.05l-.25.05-2.4-.45-1.45-.5-2.05-.7-.85-.25.05-.2 2.2.65V17v.05V17q0-.4.25-.55t.25.15l-.1.45-.05.15.2.1 1-4.05.6-2.5.4-1.5-.2-.05-.05.15-.25.3-.2-.25L5 9l-.25-.15q-.25-.2-.35-.7-.1-.4.1-1.3l.1-.15.05-.05v1.4l.5.6v.05l.1.05.15.05.3.05h.35q1.05 0 1.85-1.8l.05-.15.2-.75-1.05.4-.95-.05q-.55-.15-.65-.6l-.15-.6.15-.45v.2l.05-.15q-.1 1.15.95 1.2l.05.05h.15l1-.35.3-.25.05-.1.1-.1.2-.45-.4-.6q-.55-.5-1.4-.5l-.5.15.1-.2.25-.05.25-.05v.05l1.25.2q.95.35.95.7v.05l.05.2-.1.7v.1l-.7 1.8-.7 1.1-.05.05-.85.7h-.65l-1.9 8.15 3.65.95.5-3.9.6-4.15.6-4q.35-2.1.8-3.4l-.05-.05-.5.5-.6.2q-.4 0-.65-.55-.3-.55-.25-.75v-.6q0-.45.15-.8m7.1 3.75-.1.05-.15.25.05.1-.05.05.1.15h.15l.1.05h.1l.05-.05h.05l.1-.2V4.8l.1.4q0 .45-.6.45-.4 0-.4-.5 0-.55.5-.5m-9.2.55q-.05-.5.45-.55t.55.5q0 .55-.4.55-.6 0-.6-.5M5 10.4l-.25.25-.2-.25q0-.35.35-.6l.2.2zm-.55 1.7.05.15-.1.4-.2.25-.2-.35.1-.35q.15-.25.35-.1m-.15-.5-.05-.15.25-.4q.25-.3.25.1l-.3.5zm-.6 2.15q0-.2.3-.5l.2.25q0 .45-.3.45l-.15-.05zm.1 1.75-.1.4-.2.25-.2-.25q0-.5.3-.6zm.2-1-.25.55-.2-.05-.05-.15q0-.55.3-.65zm13.05-4.3-.1-.35.2-.2.3.6-.2.3zm.15.8q0-.4.25-.15l.25.5-.2.3-.2-.35zm.4.9.3.6-.2.3-.2-.3-.1-.35zm.6 1.6-.2.3q-.35-.35-.35-.6l.2-.25zm-.3.95-.05-.35q0-.4.25-.15l.25.6-.2.3q-.2 0-.25-.4m.4.5.35.6-.2.25q-.35 0-.35-.6z"/><path fill="#fff" d="M15.4 4.65h.1v.05l.2.1v.25l-.1.2h-.05l-.05.05h-.1l-.1-.05h-.15l-.1-.15.05-.05-.05-.1.15-.25.1-.05zm-9.1.5L6.25 5q0-.2.35-.35l.3.25-.2.4h-.25z"/></g></defs></svg>