<svg xmlns="http://www.w3.org/2000/svg" xmlns:ffdec="https://www.free-decompiler.com/flash" xmlns:xlink="http://www.w3.org/1999/xlink" ffdec:objectType="frame" width="23.65" height="25.25"><use ffdec:characterId="3" xlink:href="#a" width="23.65" height="25.25"/><defs><g id="a"><path fill="#d4cca6" fill-rule="evenodd" d="m23.55 21.9-.1.9-.35-.2-2-1.2 1.05-.95.4.5zm-22.4.75q-.8-.2-1.05-.95l-.1-.85 2.15-.35 1.35.1z"/><path fill="#a69f7e" fill-rule="evenodd" d="M3.55 21.8v-.9l-.95-1.5q1.45 0 1.7.5v.25l.4 2.15 2.35-1.05-.9 2.4q-1-1.2-2.6-1.85m5.55-1.15 4.1-1.6.85 5.15q-1-.8-2-1.15-1.55-.4-1.95 1.4h-.25zm9.25 3.15-.9-2.4.1.05 2.65-1.3.35-.4 1.35-.2-.95 1.5v.9q-1.6.65-2.6 1.85"/><path fill="#fff5c6" fill-rule="evenodd" d="m2.6 19.4.95 1.5v3.55l-.7-.15q-1.45-.4-2-1.6l1.25-1.2.15-.45v-.25zm3.55 4.25.9-2.4.75-.45 1.3-.15.75 3.8-3.5-.4-.45.15zm7.05-4.6 1.9-.8.65 2.95 1.05.15.75.45 1.15 2.95-.45-.15-1.7.05q-1.45.75-2.5.55v-1zm8.7.5.5 2.1 1.25 1.2q-.55 1.2-2 1.6l-.7.15v-3.55z"/><path fill="#d4cca6" fill-rule="evenodd" d="M3.55 21.8q1.6.65 2.6 1.85l-.25.55-2.35.25zm10.5 3.4-1-.6-2.95-.15q.4-1.8 1.95-1.4 1 .35 2 1.15zm6.9-.6-2.35-.25-.25-.55q1-1.2 2.6-1.85z"/><path fill="#1e0800" fill-rule="evenodd" d="M15.35 21.7q-2.9-1.1-4.9-.65l-1.55.75-1.85-10.05 8.85 2.2z"/><path fill="#741f00" fill-rule="evenodd" d="m8.55 14 .75.45v2.7l-.2 3.7-.3 1.2-3.1.9-3.65-2.4 2.25-9 2.35 1.35-.35 6.15-.6 3.2 2.85-1.2Q9 17.6 8.55 14m9.1-1.1L20 11.55l2.25 9-3.65 2.4-3.1-.9-.3-1.2-.2-3.7v-2.7l.75-.45q-.45 3.6 0 7.05l2.85 1.2-.6-3.2z"/><path fill="#1e0800" fill-rule="evenodd" d="m6.65 12.9 1.9 1.1q.45 3.6 0 7.05l-2.85 1.2.6-3.2zm11 0 .35 6.15.6 3.2-2.85-1.2q-.45-3.45 0-7.05z"/><path fill="#a69f7e" fill-rule="evenodd" d="m6.8 8.5.4.25q1.95.7 4.85-.5l2.5 1.05 1.1.25q1.55-.05 2.9-.85h.65l-.2 5.05-3.75-.1-6.9-.15-2.05-.05.7-4.6zm8.45 4.5-.95.1q-.85-.1-2.35-.6h-.1l2.8-1.5-2.8 1.5h.1q1.5.5 2.35.6zm-6.9-2.1q1.15.8 3.5 1.6l-3.5 1 3.5-1q-2.35-.8-3.5-1.6m7.2 2.4-.3.35z"/><path fill="#c9c2a2" fill-rule="evenodd" d="m6.8 8.5-.7-1.25.7-.85-1-2.75 2.4-1.4 6.85.1.65-.45 3.7 2.35-.2 4.45h-.65q-1.35.8-2.9.85l-1.1-.25-2.5-1.05q-2.9 1.2-4.85.5z"/><path fill="none" stroke="#960" stroke-linecap="round" stroke-linejoin="round" stroke-width=".5" d="m15.25 13.65-.05.05-.9.7-2.25.85 2.25.25.95.1m-6.9-2.1 3.5-1q-2.35-.8-3.5-1.6m6.3.1-2.8 1.5h.1q1.5.5 2.35.6l.95-.1m-6.7 2.8 2.85-.4.65-.15-.2-.05q-1.75-.4-3.5-1.7m6.9.15.3-.35m-6.7 7.75 2.85-.4.65-.15-.2-.05q-1.75-.4-3.5-1.5m0-.4q1.85-.2 3.5-.8-2.35-.8-3.5-1.6m6.3.1-.65.45-2.15 1.05h.1l2.05.55 1.25-.05m.3.3-1.55 1.2-1.95.75 1.95.25 1.25.1"/><path fill="#dba900" fill-rule="evenodd" d="m12.05 10.4.1-.05.25 1-.8.1-.45.25-1.4.65-.25-1.3v-.15l.3-.7v-.05q.4 1.85 2.05.35zm2.15.55 2.25-.45.35.85 1.15.7H16.2l-1.05.3-.95.25zm-3.75 2.55.3-.1 2.1.25v1.15l-.35.9q-.05-.9-2.05-1.2h-.4zm4.85 1.25.1-.65q.75.15 1.85-.55l.45.65q-.3.45-1.1.6z"/><path fill="#fff5c6" fill-rule="evenodd" d="M14.2 10.8q-.15-1.5-.7-2.85-1.25-3-.8-3.75l.15-.15h.1q.45.15.85.75.6.5 1.25 2l.05.2.15.2.7 1.75.5 1.55-2.25.45v-.15M7.6 9.6l.9-1.7 1.3-2.2h.2l-.1-.15.85-1.15q.45 2.45-.6 5l-.1.1-.25.65v.05q-.2-.45-1.6-.6zm3.55 2.1.45-.25.8-.1.45 2.3-2.1-.25-.3.1.15-.35zm-2.7-1.1.6.9v2.15l-.45-.1q-.85-.25-1.2-.95l.75-.75.1-.25v-.15zm6.95 2.9-.25-1.15 1.05-.3h.3v.15l.1.3.55 1 .1.05q-1.1.7-1.85.55z"/><path fill="#d4cca6" fill-rule="evenodd" d="m12 3.35-.2 2.6q-.1 3.25.25 4.45l-.2.1Q10.2 12 9.8 10.15l.25-.65.1-.1q1.05-2.55.6-5l.1-.15q.35-.75 1.15-.9m-2.95 8.7q.95.4 1.55 1.1l-.15.35-1.4.15zm3.95 1.6q.25-1.1 1.2-.85l.1.05 1.1.65v.6l-.6-.35z"/><path fill="#a69f7e" fill-rule="evenodd" d="M15.05 6.8q-.65-1.5-1.25-2-.4-.6-.85-.75h-.1l-.15.15q-.45.75.8 3.75.55 1.35.7 2.85l-1.1-.45q-.6-.15-.95 0l-.1.05q-.35-1.2-.25-4.45l.2-2.6.25-.05 1.45.2zM13 1.6l1.15.5-.55.85-1.3-.25-1.3.25-.15-.25.25-.5.55-.55.65.95v.05zm-1.85 10.1-.55 1.45q-.6-.7-1.55-1.1v-.55l-.6-.9q.9 0 1.05.3v.15l.25 1.3zm1.7 1.95-.45-2.3q1.4-.1 1.8 1.25l.95-.25.25 1.15-1.1-.65-.1-.05q-.95-.25-1.2.85z"/><path fill="#960" fill-rule="evenodd" d="M12.15 10.35q.35-.15.95 0l1.1.55v1.7q-.4-1.35-1.8-1.25zM7.6 9.6h.6q1.4.15 1.6.6l-.3.7q-.15-.3-1.05-.3h-.2l-1.15.15h-.15zm-.2 3q.35.7 1.2.95l.45.1v.8l-1.2-.2-1-.6-.35-.45zm5.45 2.2v-1.15H13l1.8.1.6.35-.1.65-.8-.3-.2-.05-1.3-.1q-.15.2-.15.5"/><path fill="#5d3e00" fill-rule="evenodd" d="m8.45 10.6-.2.85-1.15-.7 1.15-.15zm.6 3.85v-.8l1.4-.15-.4 1z"/><path fill="none" stroke="#069" stroke-linecap="round" stroke-linejoin="round" stroke-width=".1" d="m9.05 13.65 1.4-.15"/><path fill="#dba900" fill-rule="evenodd" d="M14.8 5.6v.65l-2.55 2.1-.1.1-.05-.1L9.55 6.2v-.6l.05.05 2.5 2.1v.05h.05l.1-.05 2.5-2.05z"/><path fill="#db3c00" fill-rule="evenodd" d="M11.7 3.65V3.5q0-.25.15-.4t.4-.15l.4.15.05.05.1.15q-.2.3-.75.35zm2.95 1.4.15-.1v.65l-.05.1-2.5 2.05-.1.05h-.05v-.05l-2.5-2.1-.05-.05v-.65l.2.15 2.35 2 .05.1v-.05l.1-.05 2.35-2zm-1.85.15-.05.05q-.2.25-.7.3h-.35V5.4q0-.25.15-.4t.4-.15l.4.15.05.05z"/><path fill="#872703" fill-rule="evenodd" d="M12.8 3.3v.2l-.15.4-.4.15-.4-.15-.15-.25h.35q.55-.05.75-.35m-1.1 2.25h.35q.5-.05.7-.3l.05-.05v.3l-.15.3-.4.15-.4-.15z"/><path fill="#fff5c6" fill-rule="evenodd" d="m11.7 3.65.15.25.4.15.4-.15.15-.4v-.2l-.1-.15-.05-.05-.4-.15q-.25 0-.4.15t-.15.4zM9.75 5.1q.4-1.55.2-2.15l-.4-.3h5.25l-.4.3q-.15.5.1 1.6l.1.55-2.35 2-.1.05v.05l-.05-.1zm3.05.1-.1-.15-.05-.05-.4-.15q-.25 0-.4.15t-.15.4v.15l.15.25.4.15.4-.15.15-.3v-.3"/><path fill="none" stroke="#6ff" stroke-linecap="round" stroke-linejoin="round" stroke-width=".1" d="m14.5 4.55.15.5"/><path fill="#dba900" fill-rule="evenodd" d="m21.95 10.75.4.55-1.45-.1q-.3.2-.65.85l-.25.45-1.45 3.55-.9 2.75-.05-1.85.7-2.05 1-2.4q.75-1.5 1.4-1.85zM20.9 1.4l.25.3.9 1.35.8 1.85-1.55.1-1.9.05-1.2.05v-.95l3.95.3zm-14 15.55-.05 1.85-.9-2.75q-1.5-4.2-2.35-4.85l-1.45.1.4-.55 1.25-.1q1.05.55 2.4 4.25zM2.45 3.05l.9-1.35.25-.3-1.25 3.05 3.95-.3v.95l-1.2-.05L3.2 5l-1.55-.1z"/><path fill="#2a0000" fill-rule="evenodd" d="M21.55 5.3 21 9.45 19.4 7.4l-.55-.75-.65-1.55 3.35.1zm-1.05 7.55 1.5 6.5-3.45.5-.85.6L19 16.4l1.35-3.25zM17.45 3.5l-1.05-1L15.2 1l-1-.2-.15-.05 3.6-.35.4 2.05zM6.85.4l3.6.35-.15.05-1 .2-1.2 1.5q-.8.4-1.05 1l-.6-1.05zM6.8 20.3l.05.15H6.8l-.8-.6q-1.2-.5-3.45-.5l1.5-6.45v-.05l.15.3 1.35 3.25zM3.5 9.45 2.95 5.3v-.1l3.35-.1-.65 1.55-.55.75z"/><path fill="#aa2f01" fill-rule="evenodd" d="m22.05 3.05.6.95.65 1.1-1.05.15-.3-.05-.4.1v-.1l-3.35-.1 1.2-.05L21.3 5l1.55-.1zM17.65.4l2.3-.4.95 1.4 1.25 3.05-3.95-.3-.15-1.7zM6.85.4l-.4 2.05-.15 1.7-3.95.3L3.6 1.4 4.55 0zm-3.9 4.9-.4-.1-.3.05L1.2 5.1 1.85 4l.6-.95-.8 1.85L3.2 5l1.9.05 1.2.05-3.35.1z"/><path fill="#741f00" fill-rule="evenodd" d="m21 9.45.1.15.1.1.75 1.05-1.25-.1q-.65.35-1.4 1.85l-1 2.4-.7 2.05-.2-9.15-.05-.25V7.3q-.3-1.8-.1-3.05l.2-.75.6-1.05.15 1.7v.95l.65 1.55.55.75zm1.35 1.85.3.45-1.3-.2-.7.95-.15.35-.15.3L19 16.4l-1.3 4.05-.05-1.65.9-2.75L20 12.5l.25-.45q.35-.65.65-.85zM6.45 2.45l.6 1.05.2.75q.2 1.25-.1 3.05v.25l-.05.25-.2 9.15-.7-2.05q-1.35-3.7-2.4-4.25l-1.25.1.75-1.05.1-.1.1-.15L5.1 7.4l.55-.75.65-1.55v-.95zm.4 16.35-.05 1.5-1.25-3.9-1.35-3.25-.15-.3v.05q-.5-1.05-.9-1.35l-1.3.2.3-.45 1.45-.1q.85.65 2.35 4.85z"/><path fill="#fff5c6" fill-rule="evenodd" d="m13.15.3.25-.2 2.2 1h.05l.75 1.6-1.7 1.5q-.15-.85-.55-1.35l-.25-.6-1.25-.85.7-.15 1.25.65.3-.2q.25-.25.65-.6l-.3.05zM8.2 2.7l.75-1.6H9l2.2-1 .25.2-2.1.85-.3-.05.65.6.3.2 1.25-.65.7.15-1.25.85-.1.25-.15.35q-.4.5-.55 1.35z"/><path fill="#a69f7e" fill-rule="evenodd" d="m13.35 1.25-.2-.15V1L13 .8l-.1-.3.25-.2 2.1.85.3-.05q-.4.35-.65.6l-.3.2zM11.45.3l.25.2-.1.3-.15.2v.1l-.2.15L10 1.9l-.3-.2-.65-.6.3.05z"/><path fill="#960" fill-rule="evenodd" d="m16.4 2.7.2.45-.1.4-.4.45-1.2 1.1-.15.15-.9.6.1-.2v-.1q.25-.9.15-2.15v-.05l-.6-1-.55-.55-.5.8h-.1l.25-1.05.2.1-.2-.2.05-.05 1.25.85.25.6q.4.5.55 1.35zm-4.45-1.3.05.05-.2.2.2-.1.3 1.05h-.1l-.55-.8-.55.55-.6 1v.05q-.05.85.25 2.45h-.2l-.7-.6-.15-.15L8.5 4l-.4-.45-.1-.4.2-.45 1.7 1.5q.15-.85.55-1.35l.15-.35.1-.25z"/></g></defs></svg>