<?xml version="1.0" encoding="UTF-8" standalone="no"?>
<svg xmlns:ffdec="https://www.free-decompiler.com/flash" xmlns:xlink="http://www.w3.org/1999/xlink" ffdec:objectType="frame" height="28.8px" width="25.0px" xmlns="http://www.w3.org/2000/svg">
  <g transform="matrix(1.0, 0.0, 0.0, 1.0, 2.7, -3.55)">
    <use ffdec:characterId="1" height="28.8" transform="matrix(1.0, 0.0, 0.0, 1.0, -2.7, 3.55)" width="25.0" xlink:href="#shape0"/>
  </g>
  <defs>
    <g id="shape0" transform="matrix(1.0, 0.0, 0.0, 1.0, 2.7, -3.55)">
      <path d="M9.5 10.05 L9.45 10.05 9.45 10.0 9.5 10.05 M6.95 5.85 L6.9 5.9 6.9 5.85 6.95 5.85" fill="#aa132d" fill-rule="evenodd" stroke="none"/>
      <path d="M9.35 8.45 L9.4 8.45 9.45 8.55 9.35 8.45 M10.5 8.45 L10.6 8.35 10.5 8.5 10.5 8.45" fill="#545454" fill-rule="evenodd" stroke="none"/>
      <path d="M11.85 3.75 L11.95 3.65 12.05 3.7 12.0 3.85 11.85 3.75 M13.2 5.5 L13.15 5.6 13.1 5.6 13.0 5.55 13.1 5.45 Q13.2 5.35 13.2 5.5 M13.25 5.8 L13.25 5.75 13.35 5.85 13.4 5.95 13.3 5.95 13.2 5.9 13.25 5.8 M12.85 5.2 L12.95 5.05 13.05 5.15 13.0 5.25 12.85 5.2 M12.7 4.7 L12.8 4.75 12.75 4.9 12.65 4.8 Q12.55 4.7 12.7 4.7 M12.5 4.5 L12.4 4.4 12.45 4.3 12.6 4.35 12.5 4.5 M12.3 4.15 L12.15 4.1 12.25 3.95 12.35 4.05 12.3 4.15 M7.4 4.3 L7.5 4.4 7.35 4.5 7.3 4.35 7.4 4.3 M7.05 4.75 L7.2 4.7 7.25 4.8 7.15 4.9 7.05 4.75 M6.95 5.05 L7.05 5.2 6.9 5.25 6.85 5.15 6.95 5.05 M6.7 5.5 Q6.7 5.35 6.8 5.45 L6.85 5.55 6.75 5.6 6.7 5.5 M6.5 5.85 L6.65 5.75 6.7 5.9 6.6 5.95 6.5 5.85 M8.05 3.75 L7.9 3.85 7.85 3.7 7.95 3.65 8.05 3.75 M7.7 4.1 L7.6 4.15 7.55 4.05 7.65 3.95 7.7 4.1" fill="#d3d3d3" fill-rule="evenodd" stroke="none"/>
      <path d="M11.85 3.75 L12.0 3.85 12.05 3.7 11.95 3.65 11.85 3.75 M11.65 3.85 L11.85 3.6 Q12.1 3.5 12.1 3.75 L12.15 3.95 12.15 3.9 Q12.4 3.9 12.45 4.05 L12.4 4.25 12.55 4.25 12.65 4.4 12.6 4.65 Q12.85 4.6 12.9 4.8 L12.85 5.0 13.1 5.15 13.1 5.35 13.3 5.55 13.3 5.65 13.3 5.7 13.45 5.85 13.45 6.0 13.25 6.15 Q13.0 6.3 13.0 6.0 L13.0 5.85 12.95 5.85 12.85 5.7 12.85 5.65 12.85 5.5 12.65 5.3 12.7 5.1 12.45 4.9 12.45 4.75 12.5 4.7 12.2 4.5 12.25 4.4 12.1 4.35 12.0 4.2 Q11.95 4.1 12.05 4.05 L11.95 4.05 11.65 3.85 M12.3 4.15 L12.35 4.05 12.25 3.95 12.15 4.1 12.3 4.15 M12.5 4.5 L12.6 4.35 12.45 4.3 12.4 4.4 12.5 4.5 M12.7 4.7 Q12.55 4.7 12.65 4.8 L12.75 4.9 12.8 4.75 12.7 4.7 M12.85 5.2 L13.0 5.25 13.05 5.15 12.95 5.05 12.85 5.2 M13.25 5.8 L13.2 5.9 13.3 5.95 13.4 5.95 13.35 5.85 13.25 5.75 13.25 5.8 M13.2 5.5 Q13.2 5.35 13.1 5.45 L13.0 5.55 13.1 5.6 13.15 5.6 13.2 5.5 M6.9 5.9 L6.9 6.0 6.8 6.15 6.6 6.15 6.45 6.0 6.45 5.85 6.65 5.75 6.6 5.55 6.8 5.35 6.75 5.15 Q6.85 5.0 7.0 5.0 L7.0 4.8 Q7.1 4.6 7.3 4.65 L7.25 4.4 Q7.25 4.15 7.5 4.25 L7.45 4.05 Q7.55 3.9 7.75 3.9 L7.8 3.95 7.75 3.75 Q7.85 3.5 8.05 3.6 8.35 3.6 8.2 3.85 L7.95 4.05 7.9 4.05 7.9 4.2 7.8 4.35 7.7 4.35 7.7 4.5 7.45 4.7 7.45 4.75 7.45 4.9 7.2 5.1 7.2 5.3 7.1 5.45 7.05 5.5 7.05 5.65 7.05 5.75 7.0 5.85 6.95 5.85 6.9 5.85 6.9 5.9 M7.7 4.1 L7.65 3.95 7.55 4.05 7.6 4.15 7.7 4.1 M8.05 3.75 L7.95 3.65 7.85 3.7 7.9 3.85 8.05 3.75 M6.5 5.85 L6.6 5.95 6.7 5.9 6.65 5.75 6.5 5.85 M6.7 5.5 L6.75 5.6 6.85 5.55 6.8 5.45 Q6.7 5.35 6.7 5.5 M6.95 5.05 L6.85 5.15 6.9 5.25 7.05 5.2 6.95 5.05 M7.05 4.75 L7.15 4.9 7.25 4.8 7.2 4.7 7.05 4.75 M7.4 4.3 L7.3 4.35 7.35 4.5 7.5 4.4 7.4 4.3" fill="#3a3a3a" fill-rule="evenodd" stroke="none"/>
      <path d="M10.6 8.35 Q11.0 7.95 11.7 7.7 L13.1 7.45 Q13.45 8.1 13.2 9.25 L13.4 9.85 13.45 10.15 13.35 10.6 12.65 10.75 11.95 10.7 Q11.05 10.55 10.5 10.05 L10.45 10.1 9.95 10.1 9.5 10.05 9.45 10.0 9.45 9.95 Q8.9 10.5 8.0 10.75 L7.35 10.85 7.25 10.95 7.35 10.95 Q8.9 11.0 9.45 10.1 L9.0 12.9 8.1 11.7 6.55 11.7 7.35 10.85 6.6 10.7 6.55 10.35 6.5 10.15 6.5 9.95 Q6.5 9.5 6.7 9.35 6.35 8.25 6.75 7.55 L8.1 7.75 9.35 8.45 9.45 8.55 9.5 8.5 Q9.65 8.2 9.95 8.4 L10.5 8.45 10.5 8.5 10.6 8.35 M10.7 8.95 L10.4 9.1 10.35 9.1 10.3 9.5 10.35 9.55 11.25 9.8 11.4 9.75 11.4 9.7 11.45 9.6 11.05 9.4 10.7 9.3 10.6 9.3 10.45 9.25 10.6 9.25 10.7 9.25 11.4 9.05 11.4 9.0 11.45 9.0 11.45 8.9 Q11.55 8.65 11.1 8.8 L10.7 8.95 M10.5 10.3 Q11.95 11.15 12.65 10.9 L12.7 10.85 13.4 11.55 13.2 11.6 11.8 11.65 10.95 12.9 10.65 11.35 10.5 10.3 M8.4 8.9 Q8.55 9.2 9.2 9.25 L9.3 9.25 9.4 9.25 Q8.6 9.4 8.5 9.55 L8.5 9.6 8.5 9.7 9.3 9.65 9.35 9.6 9.6 9.45 9.5 9.05 9.35 8.95 9.25 8.9 8.75 8.75 Q8.3 8.7 8.4 8.9" fill="#ffffff" fill-rule="evenodd" stroke="none"/>
      <path d="M10.7 8.95 L11.1 8.8 Q11.55 8.65 11.45 8.9 L11.45 9.0 11.4 9.0 11.4 9.05 10.7 9.25 10.6 9.25 10.45 9.25 10.6 9.3 10.7 9.3 11.05 9.4 11.45 9.6 11.4 9.7 11.4 9.75 11.25 9.8 10.35 9.55 10.3 9.5 10.35 9.1 10.4 9.1 10.7 8.95 M7.35 10.95 L7.25 10.95 7.35 10.85 8.0 10.75 Q8.9 10.5 9.45 9.95 L9.45 10.0 9.45 10.05 9.45 10.1 Q8.9 11.0 7.35 10.95 M8.4 8.9 Q8.3 8.7 8.75 8.75 L9.25 8.9 9.35 8.95 9.5 9.05 9.6 9.45 9.35 9.6 9.3 9.65 8.5 9.7 8.5 9.6 8.5 9.55 Q8.6 9.4 9.4 9.25 L9.3 9.25 9.2 9.25 Q8.55 9.2 8.4 8.9 M11.95 10.7 L12.65 10.75 12.7 10.85 12.65 10.9 Q11.95 11.15 10.5 10.3 L10.45 10.3 10.45 10.1 10.5 10.05 Q11.05 10.55 11.95 10.7" fill="#ec8695" fill-rule="evenodd" stroke="none"/>
      <path d="M18.25 26.5 L18.6 27.15 Q19.6 28.45 21.05 28.5 L21.6 28.55 Q22.8 30.2 22.0 31.8 L20.1 29.95 19.2 30.35 18.7 30.65 Q17.45 31.9 16.45 31.85 L16.35 31.8 14.25 30.65 13.9 30.45 12.6 31.15 12.4 31.3 11.15 31.95 9.3 32.35 8.1 32.15 6.9 31.3 6.95 31.3 5.4 30.05 5.1 29.8 4.6 30.2 3.1 31.0 2.4 31.15 Q1.85 31.1 1.15 30.55 0.4 30.0 0.2 29.4 L-0.1 29.05 -0.35 28.8 -1.0 29.4 -2.25 30.65 -2.5 30.05 -2.5 29.6 -2.5 30.15 Q-2.85 29.1 -2.25 28.15 L-1.35 28.1 -0.7 28.05 0.85 27.8 2.6 27.4 2.75 27.6 Q3.35 28.7 3.9 29.0 L4.4 29.05 4.5 29.05 5.55 28.45 4.9 28.95 7.2 28.55 8.05 28.35 9.9 27.5 Q10.7 28.7 11.6 28.6 L11.8 28.6 11.85 28.6 12.7 27.5 12.75 27.45 13.0 27.0 Q13.45 26.35 14.0 26.15 L14.8 27.15 Q16.3 28.8 17.1 28.75 L17.3 28.7 17.65 28.35 18.05 26.85 18.25 26.5" fill="#ffcbc2" fill-rule="evenodd" stroke="none"/>
      <path d="M10.4 5.85 L10.6 5.95 Q11.0 5.55 11.35 5.6 L11.55 5.8 11.75 5.95 11.95 5.7 Q12.05 5.55 12.25 5.6 L12.5 5.8 12.6 5.95 12.85 5.7 12.95 5.85 12.9 5.95 12.75 6.35 13.4 6.4 13.4 6.35 13.45 6.0 13.45 5.85 13.3 5.7 13.3 5.65 13.6 5.95 13.85 5.9 14.25 5.95 Q13.95 6.2 14.0 6.45 L14.05 6.45 15.05 7.3 15.8 8.1 15.8 9.65 Q18.1 13.9 19.45 19.9 20.8 26.25 21.9 28.5 L21.6 28.55 21.05 28.5 Q19.6 28.45 18.6 27.15 L18.25 26.5 18.05 26.85 16.15 20.55 Q14.4 15.05 13.95 14.6 16.0 24.6 16.2 27.85 16.75 28.7 17.1 28.75 16.3 28.8 14.8 27.15 L14.0 26.15 Q13.45 26.35 13.0 27.0 L12.75 27.45 Q12.85 26.4 11.9 21.95 L10.0 14.6 9.95 20.6 9.7 27.15 9.9 27.5 8.05 28.35 7.2 28.55 4.9 28.95 5.55 28.45 5.6 28.4 6.55 27.4 6.7 27.05 7.25 20.25 7.75 14.6 Q7.15 15.45 4.9 20.75 2.7 26.0 2.45 27.05 L2.5 27.15 2.6 27.4 0.85 27.8 -0.7 28.05 -1.3 28.1 -1.3 28.05 -2.6 28.1 -2.7 28.1 -2.6 28.05 Q-1.95 27.65 -1.3 26.25 -0.2 23.9 0.6 19.45 0.85 17.75 2.35 14.0 3.65 10.6 4.25 9.65 4.1 8.3 4.25 8.1 L5.0 7.25 6.0 6.45 5.65 6.0 Q6.1 5.75 6.45 6.0 L6.6 6.15 6.8 6.15 6.9 6.35 7.4 6.3 7.35 6.0 7.15 5.8 7.0 5.85 7.05 5.75 7.5 5.95 8.1 5.75 8.6 5.95 8.75 5.75 9.15 5.65 9.4 5.85 9.6 5.95 Q9.95 5.6 10.15 5.65 L10.4 5.85 M-1.3 28.05 L-1.2 28.0 -1.0 28.0 -0.6 27.9 0.25 27.5 1.9 22.95 4.15 14.95 Q3.15 15.9 1.0 21.85 -0.3 25.5 -1.3 27.05 L-2.25 28.05 -1.3 28.05 M8.15 6.0 Q8.1 5.85 7.95 5.85 L7.8 5.95 7.85 6.3 8.25 6.25 8.15 6.0 M9.15 5.8 Q8.95 5.65 8.75 6.0 L8.85 6.25 9.5 6.25 9.15 5.8 M6.4 6.15 L6.0 5.95 Q5.8 5.9 6.2 6.45 L6.65 6.4 6.4 6.15 M10.4 6.3 L10.25 5.95 9.8 5.85 9.8 6.25 9.9 6.25 10.4 6.3 M13.95 6.45 L13.9 6.4 Q14.2 5.8 13.9 5.95 L13.65 6.4 13.95 6.45 M13.2 9.25 Q13.45 8.1 13.1 7.45 L11.7 7.7 Q11.0 7.95 10.6 8.35 L10.5 8.45 9.95 8.4 Q9.65 8.2 9.5 8.5 L9.45 8.55 9.4 8.45 9.35 8.45 8.1 7.75 6.75 7.55 Q6.35 8.25 6.7 9.35 6.5 9.5 6.5 9.95 L6.5 10.15 4.5 9.85 4.2 10.75 4.5 10.8 5.1 10.55 6.2 10.35 6.55 10.35 6.6 10.7 7.35 10.85 6.55 11.7 6.75 11.7 6.55 11.9 8.05 11.9 9.1 13.2 9.6 10.45 9.9 10.45 10.3 10.45 10.9 13.1 11.95 11.85 13.35 11.75 13.2 11.6 13.4 11.55 12.7 10.85 13.45 10.8 13.55 10.45 Q13.55 10.2 13.85 10.3 L15.2 10.55 16.1 10.55 15.65 9.85 13.45 10.15 13.4 9.85 13.2 9.25 M12.4 6.15 Q12.5 5.9 12.1 5.75 L11.85 6.3 12.35 6.35 12.4 6.15 M11.2 5.75 Q10.8 5.7 10.9 6.0 L10.85 6.3 11.45 6.3 11.45 6.2 Q11.4 5.8 11.2 5.75 M16.0 15.6 Q16.4 16.1 17.6 20.75 L19.1 26.3 19.7 27.65 Q19.95 28.25 20.45 28.4 L20.9 28.5 21.8 28.5 Q21.1 28.45 19.35 23.5 L18.25 19.95 Q17.3 17.25 16.0 15.6" fill="#db5a5a" fill-rule="evenodd" stroke="none"/>
      <path d="M11.2 5.75 Q11.4 5.8 11.45 6.2 L11.45 6.3 10.85 6.3 10.9 6.0 Q10.8 5.7 11.2 5.75 M12.4 6.15 L12.35 6.35 11.85 6.3 12.1 5.75 Q12.5 5.9 12.4 6.15 M13.0 6.0 Q13.0 6.3 13.25 6.15 L13.45 6.0 13.4 6.35 13.4 6.4 12.75 6.35 12.9 5.95 12.95 5.85 13.0 5.85 13.0 6.0 M13.65 6.4 L13.9 5.95 Q14.2 5.8 13.9 6.4 L13.95 6.45 13.65 6.4 M13.35 10.6 L13.45 10.15 15.65 9.85 16.1 10.55 15.2 10.55 13.85 10.3 Q13.55 10.2 13.55 10.45 L13.45 10.8 12.7 10.85 12.65 10.75 13.35 10.6 M10.45 10.1 L10.45 10.3 10.5 10.3 10.65 11.35 10.95 12.9 11.8 11.65 13.2 11.6 13.35 11.75 11.95 11.85 10.9 13.1 10.3 10.45 9.9 10.45 9.6 10.45 9.1 13.2 8.05 11.9 6.55 11.9 6.75 11.7 8.1 11.7 9.0 12.9 9.45 10.1 9.45 10.05 9.5 10.05 9.95 10.1 10.45 10.1 M10.4 6.3 L9.9 6.25 9.8 6.25 9.8 5.85 10.25 5.95 10.4 6.3 M6.9 5.9 L6.95 5.85 7.0 5.85 7.15 5.8 7.35 6.0 7.4 6.3 6.9 6.35 6.8 6.15 6.9 6.0 6.9 5.9 M6.4 6.15 L6.65 6.4 6.2 6.45 Q5.8 5.9 6.0 5.95 L6.4 6.15 M8.15 6.0 L8.25 6.25 7.85 6.3 7.8 5.95 7.95 5.85 Q8.1 5.85 8.15 6.0 M9.15 5.8 L9.5 6.25 8.85 6.25 8.75 6.0 Q8.95 5.65 9.15 5.8 M4.2 10.75 L4.5 9.85 6.5 10.15 6.55 10.35 6.2 10.35 5.1 10.55 4.5 10.8 4.2 10.75 M10.0 14.6 L11.9 21.95 Q12.85 26.4 12.75 27.45 L12.7 27.5 11.85 28.6 11.8 28.6 11.6 28.6 Q10.7 28.7 9.9 27.5 L9.7 27.15 9.95 20.6 10.0 14.6 M4.9 20.75 Q7.15 15.45 7.75 14.6 L7.25 20.25 6.7 27.05 6.55 27.4 5.6 28.4 5.4 28.7 Q5.25 29.0 4.5 29.05 L4.4 29.05 3.9 29.0 Q3.35 28.7 2.75 27.6 L2.6 27.4 2.5 27.15 2.45 27.05 Q2.7 26.0 4.9 20.75 M4.15 14.95 L1.9 22.95 0.25 27.5 -0.65 28.05 -2.25 28.05 Q-1.0 27.45 1.0 21.85 3.15 15.9 4.15 14.95 M16.0 15.6 Q17.3 17.25 18.25 19.95 L19.35 23.5 Q21.1 28.45 21.8 28.5 L20.9 28.5 20.45 28.4 Q19.95 28.25 19.7 27.65 L19.1 26.3 17.6 20.75 Q16.4 16.1 16.0 15.6 M13.95 14.6 Q14.4 15.05 16.15 20.55 L18.05 26.85 17.65 28.35 17.3 28.7 17.1 28.75 Q16.75 28.7 16.2 27.85 16.0 24.6 13.95 14.6" fill="#9c2c2c" fill-rule="evenodd" stroke="none"/>
      <path d="M16.35 31.8 L14.25 30.65 13.9 30.45 Q14.85 29.95 15.2 30.0 L15.75 30.4 Q15.75 31.0 16.05 31.45 L16.35 31.8 M3.75 29.2 Q4.1 29.0 5.1 29.8 L4.6 30.2 3.1 31.0 3.35 30.75 3.55 30.0 3.7 29.25 3.75 29.2 M21.9 30.7 L22.0 31.8 20.1 29.95 21.05 29.9 Q21.7 30.05 21.9 30.7 M-1.35 28.45 L-1.25 28.4 Q-0.8 28.35 -0.35 28.8 L-1.0 29.4 -2.25 30.65 -2.5 30.05 -2.5 29.6 -2.05 28.9 -2.15 29.0 -1.35 28.45" fill="#000000" fill-opacity="0.4" fill-rule="evenodd" stroke="none"/>
      <path d="M15.75 30.4 Q15.7 29.75 14.5 27.0 L14.35 26.55 14.8 27.15 Q16.3 28.8 17.1 28.75 L17.3 28.75 Q18.15 30.35 18.7 30.65 17.45 31.9 16.45 31.85 L16.35 31.8 16.05 31.45 Q15.75 31.0 15.75 30.4 M11.8 28.6 Q12.1 30.6 12.45 31.2 L12.4 31.3 11.15 31.95 9.3 32.35 8.1 32.15 6.9 31.3 6.95 31.3 Q7.5 30.8 8.05 28.35 L9.9 27.5 Q10.7 28.7 11.6 28.6 L11.8 28.6 M3.1 31.0 L2.4 31.15 Q1.85 31.1 1.15 30.55 0.4 30.0 0.2 29.4 L2.75 27.6 Q3.35 28.7 3.9 29.0 L3.75 29.2 3.7 29.25 3.55 30.0 3.35 30.75 3.1 31.0" fill="#000000" fill-opacity="0.2" fill-rule="evenodd" stroke="none"/>
      <path d="M17.1 28.75 Q16.3 28.8 14.8 27.15 L14.0 26.15 14.5 26.05 Q15.05 26.05 16.1 27.7 L16.2 27.85 Q16.75 28.7 17.1 28.75 M19.55 27.3 L19.7 27.65 Q19.95 28.25 20.45 28.4 L20.9 28.5 21.05 28.5 Q19.6 28.45 18.6 27.15 L18.25 26.5 Q18.5 26.1 18.9 26.15 L19.55 27.3 M9.9 27.5 L8.05 28.35 7.2 28.55 4.9 28.95 5.55 28.45 5.6 28.4 6.55 27.4 6.6 27.3 Q7.55 26.1 8.4 26.1 L9.7 27.15 9.9 27.5 M2.5 27.15 L2.6 27.4 0.85 27.8 -0.7 28.05 -1.3 28.1 -1.35 28.1 -2.25 28.15 -2.6 28.1 -1.3 28.05 Q-0.2 27.9 0.55 27.35 1.6 26.6 1.95 26.7 L2.5 27.15" fill="#2a0000" fill-opacity="0.7490196" fill-rule="evenodd" stroke="none"/>
    </g>
  </defs>
</svg>
