<?xml version="1.0" encoding="UTF-8" standalone="no"?>
<svg xmlns:ffdec="https://www.free-decompiler.com/flash" xmlns:xlink="http://www.w3.org/1999/xlink" ffdec:objectType="frame" height="47.3px" width="36.75px" xmlns="http://www.w3.org/2000/svg">
  <g transform="matrix(1.0, 0.0, 0.0, 1.0, 4.0, -3.65)">
    <use ffdec:characterId="5" height="47.3" transform="matrix(1.0, 0.0, 0.0, 1.0, -4.0, 3.65)" width="36.75" xlink:href="#shape0"/>
  </g>
  <defs>
    <g id="shape0" transform="matrix(1.0, 0.0, 0.0, 1.0, 4.0, -3.65)">
      <path d="M10.05 26.6 L10.05 26.1 10.25 25.8 10.3 25.75 10.4 25.65 10.55 25.6 11.05 25.5 11.1 25.5 11.25 25.55 11.3 25.55 11.55 25.75 11.75 26.4 11.25 26.9 10.5 27.1 Q10.15 27.1 10.05 26.6 M9.3 15.35 L9.7 15.05 9.65 15.8 9.65 16.05 9.65 15.85 9.7 16.45 9.5 16.4 9.0 16.8 8.75 17.0 8.05 16.65 7.85 16.6 6.9 16.5 6.85 16.5 6.6 16.55 6.8 16.5 6.95 16.45 7.85 16.0 8.45 15.8 9.3 15.35 M10.3 15.85 L10.3 15.8 10.25 15.05 10.65 15.35 11.5 15.8 12.1 16.0 12.55 16.3 10.65 16.65 10.3 16.6 10.3 16.55 10.3 16.5 10.3 15.85 M13.1 16.5 L13.0 16.45 13.05 16.5 13.4 16.55 13.1 16.5" fill="#b10000" fill-rule="evenodd" stroke="none"/>
      <path d="M0.15 24.45 L-1.15 23.95 -1.15 23.8 -1.0 22.7 -0.3 23.7 0.15 24.45 M2.05 14.75 L2.05 14.65 2.1 14.5 2.35 14.15 3.5 13.9 7.3 14.6 Q8.55 14.85 9.05 15.15 L9.3 15.35 8.45 15.8 7.85 16.0 8.0 15.9 7.6 16.0 6.95 16.15 6.5 16.2 5.95 16.2 5.9 16.2 5.7 16.2 5.65 16.2 3.8 15.95 Q2.65 15.6 2.35 14.95 L2.3 14.75 2.2 14.95 2.2 15.05 2.15 14.95 2.05 14.75 M10.65 15.35 L10.9 15.15 Q11.4 14.85 12.65 14.6 L16.45 13.9 17.6 14.15 17.85 14.5 17.9 14.7 17.9 14.75 17.85 14.95 17.8 15.05 17.2 15.6 16.4 15.95 14.3 16.2 14.25 16.2 13.45 16.2 13.35 16.2 13.0 16.15 12.75 16.1 12.35 16.0 11.95 15.9 12.1 16.0 11.5 15.8 10.65 15.35" fill="#d2cece" fill-rule="evenodd" stroke="none"/>
      <path d="M13.1 26.9 L10.85 27.35 10.75 27.35 10.4 27.45 10.05 27.5 10.05 26.6 Q10.15 27.1 10.5 27.1 L11.25 26.9 11.75 26.4 11.75 26.25 11.55 25.75 11.3 25.55 11.25 25.55 11.1 25.5 11.55 25.25 11.55 24.95 Q9.8 24.95 8.55 24.3 L8.85 24.3 Q9.65 24.3 9.65 23.15 L9.65 23.05 9.7 22.6 9.45 21.95 10.4 22.1 10.3 22.35 10.25 22.6 10.3 23.0 10.25 23.45 Q10.35 24.25 11.4 24.25 12.05 24.25 12.05 23.2 L11.8 22.35 11.55 22.1 11.5 22.05 13.05 21.25 13.4 20.95 13.4 21.3 14.1 20.8 Q14.75 20.35 14.7 19.5 L14.45 18.15 13.95 17.6 13.75 18.35 Q14.35 18.75 14.35 19.3 L14.1 20.15 13.65 20.65 13.6 20.7 14.05 19.4 14.0 19.0 Q13.5 20.0 12.75 20.6 L12.95 19.7 Q12.95 18.85 12.4 18.7 L11.95 18.3 12.4 18.1 Q13.4 17.65 13.5 17.1 L14.6 17.15 Q16.35 17.0 16.8 16.4 L17.2 15.6 17.8 15.05 Q17.95 15.55 17.2 16.55 L17.05 16.65 16.5 17.0 16.05 17.25 16.05 17.2 15.05 17.45 14.9 17.5 14.6 17.5 14.45 17.5 14.55 17.6 14.7 17.85 Q15.05 18.45 15.05 19.6 15.05 20.7 14.2 21.3 L14.8 21.6 Q15.35 22.1 15.35 23.4 L15.1 24.9 14.05 26.2 13.4 26.5 13.5 26.75 13.35 26.8 13.1 26.85 13.1 26.9 M10.05 26.1 L10.05 26.0 9.9 26.3 9.9 26.1 9.55 25.65 10.15 25.65 10.2 25.65 10.55 25.6 10.4 25.65 10.3 25.75 10.25 25.8 10.05 26.1 M8.2 27.15 L6.9 26.9 6.85 26.9 6.35 26.8 6.2 26.75 6.3 26.5 5.65 26.2 Q4.9 25.6 4.6 24.9 4.35 24.35 4.35 23.4 4.35 22.1 4.9 21.6 L5.5 21.3 Q4.65 20.7 4.65 19.6 4.65 18.1 5.25 17.5 L5.15 17.45 4.15 17.2 4.15 17.25 3.7 17.0 3.15 16.65 2.7 16.25 2.6 16.1 2.15 14.95 2.2 15.05 2.2 14.95 Q2.65 16.05 3.95 16.6 L6.1 17.1 6.7 17.0 6.65 17.1 Q6.65 17.75 8.25 18.2 L8.0 18.3 Q7.5 18.6 7.45 19.1 L7.15 19.9 6.95 19.55 Q6.7 19.05 6.25 19.0 5.95 19.15 5.95 19.5 5.95 20.25 8.05 21.65 L8.9 21.8 8.55 21.95 8.1 22.3 Q7.7 22.8 7.7 23.45 L7.75 23.75 Q6.75 22.65 6.4 22.65 L6.05 23.15 Q6.05 23.5 6.75 24.3 L7.7 25.2 8.8 25.5 8.5 25.65 Q8.3 25.65 8.0 25.9 L7.8 26.75 8.2 27.15 M9.65 15.85 L9.75 15.55 9.75 16.45 9.7 16.45 9.65 15.85 M10.0 16.5 L10.2 16.5 10.2 15.55 10.3 15.85 10.3 16.5 10.3 16.55 10.3 16.6 10.0 16.5 M8.75 18.3 L10.35 18.55 11.0 18.5 10.95 18.6 Q10.7 18.75 10.7 19.3 L10.9 20.45 Q11.15 20.9 12.0 20.9 L12.3 20.9 Q11.3 21.4 9.9 21.4 9.25 21.4 8.4 20.9 L8.85 20.7 Q9.35 20.35 9.35 19.75 L9.25 19.15 9.2 19.05 9.2 19.0 9.15 18.75 8.85 18.4 8.75 18.3 M13.0 16.45 L12.55 16.3 12.1 16.0 12.8 16.15 13.05 16.5 13.0 16.45 M8.75 17.0 L8.05 17.2 7.3 16.95 7.15 16.85 7.85 16.6 8.05 16.65 8.75 17.0 M6.0 17.5 Q5.45 17.65 5.25 18.15 5.05 18.6 5.0 19.5 4.95 20.35 5.6 20.8 L6.55 21.4 6.55 20.95 6.55 20.8 6.5 20.8 6.3 20.65 5.85 20.15 Q5.6 19.8 5.6 19.3 5.6 18.75 6.2 18.35 L6.15 18.1 6.0 17.5 M6.0 22.2 L6.0 22.15 6.4 21.75 5.9 21.55 Q4.8 22.05 4.8 23.25 4.8 24.15 5.2 24.7 5.55 25.25 6.6 26.0 L6.8 25.8 6.75 25.25 6.75 24.9 6.65 24.85 Q5.6 24.3 5.6 23.3 5.6 22.7 6.0 22.2 M13.75 21.85 Q14.05 22.1 14.05 22.9 14.05 23.45 13.45 24.15 L13.25 24.4 13.15 26.0 14.5 24.7 Q14.9 24.15 14.9 23.25 14.9 22.05 13.8 21.55 L13.45 21.7 13.75 21.85" fill="#660000" fill-rule="evenodd" stroke="none"/>
      <path d="M20.95 22.7 L21.1 23.8 21.1 23.95 19.8 24.45 20.25 23.7 20.95 22.7 M18.95 24.8 L18.75 24.9 15.7 26.1 Q15.9 23.45 16.2 21.95 L16.8 20.0 17.5 20.9 19.1 22.15 Q20.05 22.6 20.45 22.45 L19.55 23.55 Q19.1 24.3 18.95 24.8 M4.25 26.1 L1.2 24.9 1.0 24.8 0.4 23.55 Q-0.1 22.65 -0.55 22.4 L0.55 21.95 Q1.8 21.55 2.6 20.7 L3.15 20.0 3.15 20.05 3.75 21.95 4.25 26.1" fill="#289cb8" fill-rule="evenodd" stroke="none"/>
      <path d="M-0.7 21.4 L0.0 19.4 1.1 17.05 2.6 18.95 1.6 20.1 Q0.55 21.0 -0.7 21.4 M18.85 17.05 L19.95 19.4 20.65 21.4 Q19.5 21.35 18.45 20.4 L17.35 18.95 Q17.95 17.9 18.85 17.05" fill="#1c819a" fill-rule="evenodd" stroke="none"/>
      <path d="M9.9 26.3 L9.9 26.6 9.45 27.1 9.55 26.95 9.7 26.35 9.65 26.15 9.55 26.55 9.3 26.6 9.5 26.1 Q9.5 25.7 9.05 25.7 L8.8 26.15 Q8.8 26.6 9.25 26.6 L9.15 26.6 8.7 26.4 8.65 26.2 8.7 25.95 8.75 25.9 8.8 25.75 8.55 25.95 Q8.4 26.05 8.4 26.55 L8.45 26.75 8.2 26.4 8.4 25.75 8.5 25.65 8.8 25.5 8.9 25.5 9.5 25.65 9.55 25.65 9.9 26.1 9.9 26.3 M8.25 18.2 L8.3 18.15 8.5 18.1 8.7 18.25 8.75 18.3 8.85 18.4 9.15 18.75 9.2 19.0 9.2 19.05 9.2 19.15 Q9.0 20.15 8.45 20.25 L8.35 20.25 7.7 20.05 7.55 19.95 7.4 19.4 7.4 19.35 7.4 19.2 7.45 19.1 Q7.5 18.6 8.0 18.3 L8.25 18.2 M11.0 18.5 L11.1 18.4 11.25 18.25 11.45 18.1 11.65 18.15 11.95 18.3 12.4 18.7 12.55 19.2 12.55 19.35 12.55 19.4 12.4 19.95 12.25 20.05 11.6 20.25 11.5 20.25 Q10.95 20.15 10.75 19.15 L10.75 19.0 10.95 18.6 11.0 18.5 M8.4 18.6 L8.25 18.95 8.25 19.05 8.25 19.35 8.5 19.45 Q8.85 19.45 8.85 18.95 8.85 18.6 8.45 18.6 L8.4 18.6 M7.85 19.15 Q7.85 18.85 8.0 18.7 L7.75 18.9 Q7.6 19.0 7.6 19.5 7.6 20.0 8.1 20.1 8.6 20.2 8.75 19.9 L8.9 19.3 8.85 19.1 8.75 19.5 8.35 19.55 Q7.85 19.55 7.85 19.15 M8.9 21.8 L9.0 21.8 9.45 21.95 9.7 22.6 9.65 23.05 Q9.5 23.5 9.0 23.5 8.35 23.5 8.25 22.9 L8.2 22.6 8.25 22.45 8.55 21.95 8.9 21.8 M10.4 22.1 L10.95 21.8 11.4 21.95 11.5 22.05 11.55 22.1 11.7 22.45 11.75 22.6 11.7 22.9 11.7 22.8 11.55 22.2 11.4 22.05 11.3 22.0 11.35 22.05 11.45 22.45 11.2 22.85 11.25 22.5 11.1 22.1 10.95 22.05 10.7 22.05 10.7 22.1 10.65 22.4 11.15 22.85 10.95 22.85 10.55 22.8 10.45 22.4 10.4 22.6 10.55 23.2 Q10.7 23.5 11.2 23.4 L11.65 23.05 Q11.5 23.5 10.95 23.5 10.4 23.5 10.3 23.0 L10.25 22.6 10.3 22.35 10.4 22.1 M8.95 22.85 L9.1 22.8 9.15 22.3 9.15 22.25 9.05 22.0 Q8.8 22.05 8.7 22.15 L8.6 22.25 8.7 22.0 8.45 22.2 Q8.3 22.3 8.3 22.8 8.3 23.3 8.8 23.4 9.3 23.5 9.45 23.2 L9.6 22.75 9.6 22.6 9.55 22.4 9.55 22.6 9.45 22.8 9.05 22.85 8.95 22.85 M11.4 18.55 L11.4 18.65 11.3 18.65 11.3 18.95 11.85 19.3 12.05 19.0 11.8 18.55 11.4 18.55 M12.2 18.9 L11.95 18.7 12.1 19.15 11.6 19.55 11.2 19.5 11.1 19.1 11.05 19.3 11.2 19.9 Q11.35 20.2 11.85 20.1 12.35 20.0 12.35 19.5 L12.2 18.9" fill="#aaa2a2" fill-rule="evenodd" stroke="none"/>
      <path d="M7.85 19.15 Q7.85 19.55 8.35 19.55 L8.75 19.5 8.85 19.1 8.9 19.3 8.75 19.9 Q8.6 20.2 8.1 20.1 7.6 20.0 7.6 19.5 7.6 19.0 7.75 18.9 L8.0 18.7 Q7.85 18.85 7.85 19.15 M8.6 22.25 L8.55 22.45 Q8.55 22.8 8.9 22.85 L8.95 22.85 9.05 22.85 9.45 22.8 9.55 22.6 9.55 22.4 9.6 22.6 9.6 22.75 9.45 23.2 Q9.3 23.5 8.8 23.4 8.3 23.3 8.3 22.8 8.3 22.3 8.45 22.2 L8.7 22.0 8.6 22.25 M12.2 18.9 L12.35 19.5 Q12.35 20.0 11.85 20.1 11.35 20.2 11.2 19.9 L11.05 19.3 11.1 19.1 11.2 19.5 11.6 19.55 12.1 19.15 11.95 18.7 12.2 18.9 M11.7 22.9 L11.65 23.05 11.2 23.4 Q10.7 23.5 10.55 23.2 L10.4 22.6 10.45 22.4 10.55 22.8 10.95 22.85 11.15 22.85 11.2 22.85 11.45 22.45 11.35 22.05 11.3 22.0 11.4 22.05 11.55 22.2 11.7 22.8 11.7 22.9 M9.25 26.6 L9.3 26.6 9.55 26.55 9.65 26.15 9.7 26.35 9.55 26.95 9.45 27.1 8.9 27.15 8.45 26.75 8.4 26.55 Q8.4 26.05 8.55 25.95 L8.8 25.75 8.75 25.9 8.7 25.95 8.65 26.2 8.7 26.4 9.15 26.6 9.25 26.6" fill="#706969" fill-rule="evenodd" stroke="none"/>
      <path d="M8.4 18.6 L8.45 18.6 Q8.85 18.6 8.85 18.95 8.85 19.45 8.5 19.45 L8.25 19.35 8.25 19.05 8.25 18.95 8.4 18.6 M8.6 22.25 L8.7 22.15 Q8.8 22.05 9.05 22.0 L9.15 22.25 9.15 22.3 9.1 22.8 8.95 22.85 8.9 22.85 Q8.55 22.8 8.55 22.45 L8.6 22.25 M11.2 22.85 L11.15 22.85 10.65 22.4 10.7 22.1 10.7 22.05 10.95 22.05 11.1 22.1 11.25 22.5 11.2 22.85 M9.25 26.6 Q8.8 26.6 8.8 26.15 L9.05 25.7 Q9.5 25.7 9.5 26.1 L9.3 26.6 9.25 26.6" fill="#dbd5d5" fill-rule="evenodd" stroke="none"/>
      <path d="M9.9 26.6 L9.9 27.5 9.55 27.45 9.3 27.4 9.2 27.35 9.1 27.35 8.2 27.15 7.8 26.75 8.0 25.9 Q8.3 25.65 8.5 25.65 L8.4 25.75 8.2 26.4 8.45 26.75 8.9 27.15 9.45 27.1 9.9 26.6 M9.75 16.45 L9.75 16.5 10.0 16.5 10.3 16.6 10.65 16.65 12.55 16.3 13.0 16.45 13.1 16.5 13.1 16.55 13.5 16.95 13.5 17.1 Q13.4 17.65 12.4 18.1 L11.95 18.3 11.65 18.15 11.45 18.1 11.25 18.25 11.1 18.4 11.0 18.5 10.35 18.55 8.75 18.3 8.7 18.25 8.5 18.1 8.3 18.15 8.25 18.2 Q6.65 17.75 6.65 17.1 L6.7 17.0 6.9 16.6 7.15 16.85 7.3 16.95 8.05 17.2 8.75 17.0 9.0 16.8 9.5 16.4 9.7 16.45 9.75 16.45 M7.45 19.1 L7.4 19.2 7.4 19.35 7.4 19.4 7.55 19.95 7.7 20.05 8.35 20.25 8.45 20.25 Q9.0 20.15 9.2 19.15 L9.2 19.05 9.25 19.15 9.35 19.75 Q9.35 20.35 8.85 20.7 L8.4 20.9 Q9.25 21.4 9.9 21.4 11.3 21.4 12.3 20.9 L12.0 20.9 Q11.15 20.9 10.9 20.45 L10.7 19.3 Q10.7 18.75 10.95 18.6 L10.75 19.0 10.75 19.15 Q10.95 20.15 11.5 20.25 L11.6 20.25 12.25 20.05 12.4 19.95 12.55 19.4 12.55 19.35 12.55 19.2 12.4 18.7 Q12.95 18.85 12.95 19.7 L12.75 20.6 Q13.5 20.0 14.0 19.0 L14.05 19.4 13.6 20.7 13.45 20.8 13.4 20.8 13.4 20.95 13.05 21.25 11.5 22.05 11.4 21.95 10.95 21.8 10.4 22.1 9.45 21.95 9.0 21.8 8.9 21.8 8.05 21.65 Q5.95 20.25 5.95 19.5 5.95 19.15 6.25 19.0 6.7 19.05 6.95 19.55 L7.15 19.9 7.45 19.1 M8.8 25.5 L7.7 25.2 6.75 24.3 Q6.05 23.5 6.05 23.15 L6.4 22.65 Q6.75 22.65 7.75 23.75 L7.7 23.45 Q7.7 22.8 8.1 22.3 L8.55 21.95 8.25 22.45 8.25 22.9 Q8.35 23.5 9.0 23.5 9.5 23.5 9.65 23.05 L9.65 23.15 Q9.65 24.3 8.85 24.3 L8.55 24.3 Q9.8 24.95 11.55 24.95 L11.55 25.25 11.1 25.5 11.05 25.5 10.55 25.6 10.2 25.65 10.15 25.65 9.55 25.65 9.5 25.65 8.9 25.5 8.8 25.5 M11.55 22.1 L11.8 22.35 12.05 23.2 Q12.05 24.25 11.4 24.25 10.35 24.25 10.25 23.45 L10.3 23.0 Q10.4 23.5 10.95 23.5 11.5 23.5 11.65 23.05 L11.7 22.9 11.75 22.6 11.7 22.45 11.55 22.1" fill="#2c0404" fill-rule="evenodd" stroke="none"/>
      <path d="M15.7 26.1 L13.6 26.8 13.1 26.9 13.1 26.85 13.35 26.8 13.5 26.75 13.4 26.5 14.05 26.2 15.1 24.9 15.35 23.4 Q15.35 22.1 14.8 21.6 L14.2 21.3 Q15.05 20.7 15.05 19.6 15.05 18.45 14.7 17.85 L14.55 17.6 14.45 17.5 14.6 17.5 14.9 17.5 15.05 17.45 16.05 17.2 16.05 17.25 16.5 17.0 17.05 16.65 17.2 16.55 Q17.95 15.55 17.8 15.05 L17.85 14.95 17.9 14.75 18.05 15.15 18.15 15.3 18.3 15.65 18.4 15.95 18.8 16.85 18.85 17.05 Q17.95 17.9 17.35 18.95 L17.35 18.9 17.0 19.45 16.75 19.85 16.8 20.0 16.2 21.95 Q15.9 23.45 15.7 26.1" fill="url(#gradient0)" fill-rule="evenodd" stroke="none"/>
      <path d="M6.2 26.75 L4.95 26.35 4.25 26.1 3.75 21.95 3.15 20.05 3.15 20.0 2.85 19.3 2.65 18.8 2.6 18.95 1.1 17.05 1.8 15.3 1.9 15.15 2.05 14.75 2.15 14.95 2.6 16.1 2.7 16.25 3.15 16.65 3.7 17.0 4.15 17.25 4.15 17.2 5.15 17.45 5.25 17.5 Q4.65 18.1 4.65 19.6 4.65 20.7 5.5 21.3 L4.9 21.6 Q4.35 22.1 4.35 23.4 4.35 24.35 4.6 24.9 4.9 25.6 5.65 26.2 L6.3 26.5 6.2 26.75" fill="url(#gradient1)" fill-rule="evenodd" stroke="none"/>
      <path d="M2.2 14.95 L2.3 14.75 2.35 14.95 Q2.65 15.6 3.8 15.95 L5.65 16.2 5.7 16.2 5.9 16.2 5.95 16.2 6.5 16.2 6.95 16.15 7.85 16.0 6.95 16.45 6.8 16.5 6.6 16.55 6.85 16.5 6.9 16.5 7.85 16.6 7.15 16.85 6.9 16.6 6.7 17.0 6.1 17.1 3.95 16.6 Q2.65 16.05 2.2 14.95 M13.5 17.1 L13.5 16.95 13.1 16.55 13.1 16.5 13.4 16.55 13.05 16.5 12.8 16.15 13.0 16.15 13.35 16.2 13.45 16.2 14.25 16.2 14.3 16.2 16.4 15.95 17.2 15.6 16.8 16.4 Q16.35 17.0 14.6 17.15 L13.5 17.1 M6.0 17.5 L6.15 18.1 6.2 18.35 Q5.6 18.75 5.6 19.3 5.6 19.8 5.85 20.15 L6.3 20.65 6.5 20.8 6.55 20.8 6.55 20.95 6.55 21.4 5.6 20.8 Q4.95 20.35 5.0 19.5 5.05 18.6 5.25 18.15 5.45 17.65 6.0 17.5 M13.4 20.95 L13.4 20.8 13.45 20.8 13.6 20.7 13.65 20.65 14.1 20.15 14.35 19.3 Q14.35 18.75 13.75 18.35 L13.95 17.6 14.45 18.15 14.7 19.5 Q14.75 20.35 14.1 20.8 L13.4 21.3 13.4 20.95 M6.0 22.2 Q5.6 22.7 5.6 23.3 5.6 24.3 6.65 24.85 L6.75 24.9 6.75 25.25 6.8 25.8 6.6 26.0 Q5.55 25.25 5.2 24.7 4.8 24.15 4.8 23.25 4.8 22.05 5.9 21.55 L6.4 21.75 6.0 22.15 6.0 22.2 M13.75 21.85 L13.45 21.7 13.8 21.55 Q14.9 22.05 14.9 23.25 14.9 24.15 14.5 24.7 L13.15 26.0 13.25 24.4 13.45 24.15 Q14.05 23.45 14.05 22.9 14.05 22.1 13.75 21.85" fill="#430a0a" fill-rule="evenodd" stroke="none"/>
      <path d="M1.0 24.8 L0.5 24.6 0.15 24.45 -0.3 23.7 -1.0 22.7 -0.95 22.3 -0.7 21.4 Q0.55 21.0 1.6 20.1 L2.6 18.95 2.65 18.8 2.85 19.3 3.15 20.0 2.6 20.7 Q1.8 21.55 0.55 21.95 L-0.55 22.4 Q-0.1 22.65 0.4 23.55 L1.0 24.8" fill="url(#gradient2)" fill-rule="evenodd" stroke="none"/>
      <path d="M20.95 22.7 L20.25 23.7 19.8 24.45 19.45 24.6 18.95 24.8 Q19.1 24.3 19.55 23.55 L20.45 22.45 Q20.05 22.6 19.1 22.15 L17.5 20.9 16.8 20.0 16.75 19.85 17.0 19.45 17.35 18.9 17.35 18.95 18.45 20.4 Q19.5 21.35 20.65 21.4 L20.9 22.3 20.95 22.7" fill="url(#gradient3)" fill-rule="evenodd" stroke="none"/>
      <path d="M11.7 12.3 L11.7 12.2 11.7 12.15 11.7 12.1 11.75 12.05 11.85 12.0 11.9 11.95 12.05 11.85 12.2 11.8 12.3 11.7 12.35 11.7 12.75 11.6 12.95 11.4 13.05 11.25 13.05 11.2 13.1 11.15 13.3 11.0 13.35 11.0 13.7 10.95 13.75 10.95 13.85 10.8 13.95 10.65 14.0 10.6 14.05 10.55 14.15 10.5 14.2 10.5 14.7 10.45 14.75 10.45 14.85 10.35 15.1 9.95 15.2 9.8 15.3 9.7 15.5 9.6 15.55 9.6 15.85 9.6 15.9 9.6 16.0 9.65 16.0 9.75 15.95 9.85 15.6 9.85 15.55 9.85 15.55 9.9 15.5 9.9 15.45 9.95 15.4 10.0 15.35 10.05 15.3 10.1 15.3 10.2 15.25 10.2 15.2 10.25 15.2 10.3 15.15 10.35 15.1 10.4 15.1 10.45 15.05 10.5 15.0 10.55 15.0 10.6 14.9 10.65 14.85 10.7 14.8 10.7 14.25 10.8 14.2 10.85 14.1 10.9 14.1 10.95 14.05 11.0 14.0 11.1 13.9 11.15 13.85 11.2 13.35 11.3 13.3 11.35 13.25 11.4 13.25 11.5 13.2 11.5 13.15 11.55 13.15 11.6 13.1 11.65 13.05 11.75 12.95 11.8 12.9 11.85 12.35 11.95 12.3 12.0 12.25 12.0 12.2 12.05 12.15 12.1 12.1 12.15 12.0 12.2 11.95 12.25 11.9 12.3 11.75 12.3 11.7 12.3 M7.9 11.8 L8.05 11.85 8.2 11.95 8.25 12.0 8.35 12.05 8.4 12.1 8.4 12.15 8.4 12.2 8.4 12.3 8.35 12.3 8.2 12.3 8.15 12.25 8.1 12.2 8.0 12.15 7.95 12.1 7.9 12.05 7.85 12.0 7.8 12.0 7.75 11.95 7.2 11.85 7.15 11.8 7.05 11.75 7.0 11.65 6.95 11.6 6.95 11.55 6.9 11.5 6.85 11.5 6.85 11.4 6.8 11.35 6.75 11.3 6.25 11.2 6.2 11.15 6.1 11.1 6.05 11.0 6.0 10.95 6.0 10.9 5.9 10.85 5.85 10.8 5.3 10.7 5.25 10.7 5.2 10.65 5.1 10.6 5.1 10.55 5.05 10.5 5.0 10.45 5.0 10.4 4.95 10.35 4.9 10.3 4.9 10.25 4.85 10.2 4.8 10.2 4.8 10.1 4.75 10.05 4.7 10.0 4.65 9.95 4.6 9.9 4.55 9.9 4.55 9.85 4.5 9.85 4.15 9.85 4.1 9.75 4.1 9.65 4.2 9.6 4.25 9.6 4.55 9.6 4.6 9.6 4.8 9.7 4.9 9.8 5.0 9.95 5.25 10.35 5.35 10.45 5.4 10.45 5.9 10.5 5.95 10.5 6.05 10.55 6.1 10.6 6.15 10.65 6.25 10.8 6.35 10.95 6.4 10.95 6.75 11.0 6.8 11.0 7.0 11.15 7.05 11.2 7.05 11.25 7.15 11.4 7.35 11.6 7.75 11.7 7.8 11.7 7.9 11.8" fill="#ffecf6" fill-rule="evenodd" stroke="none"/>
      <path d="M12.05 11.85 L11.9 11.95 11.85 12.0 11.75 12.05 11.7 12.1 11.7 12.15 11.7 12.2 11.7 12.3 11.3 12.45 10.8 12.65 10.6 12.75 10.1 13.05 10.0 13.1 10.05 13.05 10.85 12.35 10.9 12.45 11.8 11.8 12.05 11.85 M11.75 12.3 L11.9 12.3 11.95 12.25 12.0 12.2 12.1 12.15 12.15 12.1 12.2 12.05 12.25 12.0 12.3 12.0 12.35 11.95 12.9 11.85 12.95 11.8 13.05 11.75 13.1 11.65 13.15 11.6 13.15 11.55 13.2 11.5 13.25 11.5 13.25 11.4 13.3 11.35 13.35 11.3 13.85 11.2 13.9 11.15 14.0 11.1 14.05 11.0 14.1 10.95 14.1 10.9 14.2 10.85 14.25 10.8 14.8 10.7 14.85 10.7 14.9 10.65 15.0 10.6 15.0 10.55 15.05 10.5 15.1 10.45 15.1 10.4 15.15 10.35 15.2 10.3 15.2 10.25 15.25 10.2 15.3 10.2 15.3 10.1 15.35 10.05 15.4 10.0 15.45 9.95 15.5 9.9 15.55 9.9 15.55 9.85 15.6 9.85 15.95 9.85 16.35 10.85 Q16.35 11.3 13.45 12.5 L11.35 13.15 11.05 13.2 11.6 12.5 11.75 12.3 M15.85 9.6 L15.55 9.6 15.5 9.6 15.3 9.7 15.2 9.8 15.1 9.95 14.85 10.35 14.75 10.45 14.7 10.45 14.2 10.5 14.15 10.5 14.05 10.55 14.0 10.6 13.95 10.65 13.85 10.8 13.75 10.95 13.7 10.95 13.35 11.0 13.3 11.0 13.1 11.15 13.05 11.2 13.05 11.25 12.95 11.4 12.75 11.6 12.35 11.7 12.3 11.7 12.2 11.8 12.25 11.7 12.45 11.35 12.9 11.3 Q13.15 10.35 13.75 10.8 14.0 9.7 14.6 10.05 14.9 9.25 15.35 9.2 L15.65 9.15 15.85 9.6 M4.25 9.6 L4.45 9.15 4.75 9.2 Q5.2 9.25 5.5 10.05 6.1 9.7 6.35 10.8 6.95 10.35 7.2 11.3 L7.65 11.35 7.85 11.7 7.9 11.8 7.8 11.7 7.75 11.7 7.35 11.6 7.15 11.4 7.05 11.25 7.05 11.2 7.0 11.15 6.8 11.0 6.75 11.0 6.4 10.95 6.35 10.95 6.25 10.8 6.15 10.65 6.1 10.6 6.05 10.55 5.95 10.5 5.9 10.5 5.4 10.45 5.35 10.45 5.25 10.35 5.0 9.95 4.9 9.8 4.8 9.7 4.6 9.6 4.55 9.6 4.25 9.6 M8.05 11.85 L8.3 11.8 Q8.55 11.75 9.2 12.45 L9.25 12.35 9.6 12.7 10.05 13.05 9.5 12.75 9.3 12.65 8.8 12.45 8.4 12.3 8.4 12.2 8.4 12.15 8.4 12.1 8.35 12.05 8.25 12.0 8.2 11.95 8.05 11.85 M8.35 12.3 L8.5 12.5 9.05 13.2 8.75 13.15 Q7.75 13.05 6.65 12.5 3.75 11.3 3.75 10.85 L4.15 9.85 4.5 9.85 4.55 9.85 4.55 9.9 4.6 9.9 4.65 9.95 4.7 10.0 4.75 10.05 4.8 10.1 4.8 10.2 4.85 10.2 4.9 10.25 4.9 10.3 4.95 10.35 5.0 10.4 5.0 10.45 5.05 10.5 5.1 10.55 5.1 10.6 5.2 10.65 5.25 10.7 5.3 10.7 5.85 10.8 5.9 10.85 6.0 10.9 6.0 10.95 6.05 11.0 6.1 11.1 6.2 11.15 6.25 11.2 6.75 11.3 6.8 11.35 6.85 11.4 6.85 11.5 6.9 11.5 6.95 11.55 6.95 11.6 7.0 11.65 7.05 11.75 7.15 11.8 7.2 11.85 7.75 11.95 7.8 12.0 7.85 12.0 7.9 12.05 7.95 12.1 8.0 12.15 8.1 12.2 8.15 12.25 8.2 12.3 8.35 12.3" fill="#d4d4d4" fill-rule="evenodd" stroke="none"/>
      <path d="M18.35 14.75 L18.25 14.85 18.2 14.9 17.7 15.15 17.0 13.5 16.85 13.2 17.2 13.5 17.8 14.15 18.35 14.75 M15.35 15.15 L15.1 15.1 Q14.75 15.35 14.65 15.7 L14.7 15.8 14.2 15.8 14.65 13.65 15.35 15.15 M10.45 12.8 L10.3 12.85 10.5 12.8 11.45 12.35 12.25 12.25 12.7 12.3 Q11.65 12.9 11.05 12.9 L10.65 12.8 10.55 12.8 10.5 12.8 10.45 12.8 M13.35 11.7 L13.45 11.6 13.8 11.4 14.45 11.2 15.55 11.0 15.5 11.05 Q15.15 11.75 13.9 11.85 L13.7 11.85 13.95 13.5 13.95 13.6 13.9 13.8 14.2 13.75 13.5 15.4 Q13.2 15.0 13.2 14.45 L13.3 13.7 13.8 13.8 13.9 13.8 13.4 13.2 12.8 12.35 13.35 11.7 M16.1 10.6 L16.2 10.75 Q16.35 10.95 15.75 12.95 L15.8 11.45 15.75 10.6 15.8 10.5 16.1 10.6 M15.85 10.5 L15.85 10.45 15.95 10.45 Q16.3 9.8 17.9 9.75 L17.4 10.2 Q16.6 10.55 16.05 10.5 L15.95 10.5 15.85 10.5 M4.35 10.5 L4.4 10.6 Q4.3 10.55 4.35 11.45 L4.4 12.95 Q3.8 10.95 3.95 10.75 L4.05 10.6 4.35 10.5 M4.1 10.5 L2.75 10.2 2.25 9.75 Q3.85 9.8 4.2 10.45 L4.3 10.45 4.3 10.5 4.1 10.5 M1.8 14.75 L2.35 14.15 3.0 13.5 3.3 13.2 3.15 13.5 2.45 15.15 1.95 14.9 1.9 14.85 1.8 14.75 M4.8 15.15 L5.5 13.65 5.95 15.8 5.45 15.8 5.5 15.7 5.05 15.1 4.8 15.15 M6.8 11.7 L7.35 12.35 6.75 13.2 6.3 13.8 6.65 13.8 7.15 13.7 7.25 14.45 6.95 15.4 6.3 13.8 6.2 13.9 6.2 13.6 6.2 13.5 6.45 11.85 6.25 11.85 Q5.0 11.75 4.65 11.05 L4.6 11.0 5.7 11.2 6.35 11.4 6.7 11.6 6.8 11.7 M7.9 12.25 L8.7 12.35 9.65 12.8 9.6 12.8 9.5 12.8 9.1 12.9 Q8.5 12.9 7.45 12.3 L7.9 12.25 M8.75 13.35 L8.8 13.25 8.8 13.4 8.75 13.35 M4.15 13.25 L4.6 13.45 4.5 13.5 4.15 13.95 4.1 13.95 4.05 13.6 4.15 13.25 M3.45 12.9 L3.05 13.2 2.45 13.35 1.95 13.25 2.0 13.2 Q2.7 12.7 3.4 12.7 L3.45 12.9 M17.15 12.7 Q17.8 12.75 18.45 13.2 L18.5 13.25 18.0 13.35 17.4 13.2 17.0 12.9 17.05 12.7 17.15 12.7 M11.35 13.4 L11.35 13.25 11.4 13.35 11.35 13.4 M16.3 13.25 L16.4 13.6 16.35 13.95 16.3 13.95 16.0 13.5 15.85 13.45 16.3 13.25" fill="#d2cece" fill-rule="evenodd" stroke="none"/>
      <path d="M10.15 26.75 L10.25 26.85 10.1 26.8 10.15 26.85 10.1 26.85 10.0 26.85 10.05 26.8 9.9 26.85 10.0 26.75 9.85 26.65 9.9 26.65 10.0 26.65 10.15 26.65 10.25 26.65 10.3 26.65 10.15 26.75" fill="#b19489" fill-rule="evenodd" stroke="none"/>
      <path d="M13.45 11.6 L13.5 11.45 13.5 11.5 14.7 10.8 15.7 10.55 15.55 10.4 16.0 10.1 16.65 9.8 17.4 9.65 18.15 9.7 Q18.45 9.8 17.1 12.05 L17.15 12.7 17.15 12.45 18.8 12.65 20.3 13.4 20.25 13.45 20.25 13.5 Q19.85 14.35 19.0 14.35 L18.95 14.35 18.35 14.75 17.8 14.15 17.2 13.5 16.85 13.2 17.0 13.5 17.7 15.15 17.0 15.35 15.35 15.15 14.65 13.65 14.2 15.8 13.0 15.8 12.5 15.75 Q12.3 15.75 11.85 16.25 L11.9 16.4 11.15 16.4 10.3 16.5 10.3 13.35 10.25 13.0 10.45 12.8 10.5 12.8 10.55 12.8 10.65 12.8 11.05 12.9 Q11.65 12.9 12.7 12.3 L12.25 12.25 11.45 12.35 10.5 12.8 10.3 12.85 11.85 12.05 12.7 11.95 12.8 11.95 12.8 12.05 13.25 11.75 13.35 11.7 12.8 12.35 13.4 13.2 13.9 13.8 13.8 13.8 13.3 13.7 13.2 14.45 Q13.2 15.0 13.5 15.4 L14.2 13.75 13.9 13.8 13.95 13.6 13.95 13.5 13.7 11.85 13.9 11.85 Q15.15 11.75 15.5 11.05 L15.55 11.0 14.45 11.2 13.8 11.4 13.45 11.6 M15.8 10.5 L15.75 10.6 15.8 11.45 15.75 12.95 Q16.35 10.95 16.2 10.75 L16.1 10.6 16.15 10.6 16.05 10.5 Q16.6 10.55 17.4 10.2 L17.9 9.75 Q16.3 9.8 15.95 10.45 L15.85 10.45 15.85 10.5 15.8 10.5 M17.15 12.7 L17.05 12.7 17.0 12.9 17.4 13.2 18.0 13.35 18.5 13.25 18.45 13.2 Q17.8 12.75 17.15 12.7 M16.3 13.25 L15.85 13.45 16.0 13.5 16.3 13.95 16.35 13.95 16.4 13.6 16.3 13.25 M11.35 13.4 L11.4 13.35 11.35 13.25 11.35 13.4" fill="url(#gradient4)" fill-rule="evenodd" stroke="none"/>
      <path d="M4.05 10.6 L3.95 10.75 Q3.8 10.95 4.4 12.95 L4.35 11.45 Q4.3 10.55 4.4 10.6 L4.35 10.5 4.3 10.5 4.3 10.45 4.2 10.45 Q3.85 9.8 2.25 9.75 L2.75 10.2 4.1 10.5 4.0 10.6 4.05 10.6 M1.8 14.75 L1.2 14.35 1.15 14.35 Q0.3 14.35 -0.05 13.5 L-0.1 13.45 -0.15 13.4 1.35 12.65 3.0 12.45 3.0 12.7 3.05 12.05 Q1.7 9.8 2.0 9.7 L2.75 9.65 3.5 9.8 4.15 10.1 4.6 10.4 4.45 10.55 5.45 10.8 Q6.15 11.0 6.65 11.5 L6.65 11.45 6.7 11.6 6.35 11.4 5.7 11.2 4.6 11.0 4.65 11.05 Q5.0 11.75 6.25 11.85 L6.45 11.85 6.2 13.5 6.2 13.6 6.2 13.9 6.3 13.8 6.95 15.4 7.25 14.45 7.15 13.7 6.65 13.8 6.3 13.8 6.75 13.2 7.35 12.35 6.8 11.7 6.9 11.75 7.35 12.05 7.35 11.95 7.45 11.95 8.3 12.05 9.85 12.85 9.7 12.8 9.9 13.0 9.85 13.35 9.85 16.5 9.0 16.4 8.25 16.4 8.3 16.25 7.65 15.75 7.15 15.8 5.95 15.8 5.5 13.65 4.8 15.15 3.15 15.35 2.45 15.15 3.15 13.5 3.3 13.2 3.0 13.5 2.35 14.15 1.8 14.75 M7.9 12.25 L7.45 12.3 Q8.5 12.9 9.1 12.9 L9.5 12.8 9.6 12.8 9.65 12.8 8.7 12.35 7.9 12.25 M8.75 13.35 L8.8 13.4 8.8 13.25 8.75 13.35 M4.15 13.25 L4.05 13.6 4.1 13.95 4.15 13.95 4.5 13.5 4.6 13.45 4.15 13.25 M3.45 12.9 L3.4 12.7 Q2.7 12.7 2.0 13.2 L1.95 13.25 2.45 13.35 3.05 13.2 3.45 12.9" fill="url(#gradient5)" fill-rule="evenodd" stroke="none"/>
      <path d="M5.1 13.6 L5.25 13.55 5.6 13.75 5.25 13.7 5.1 13.6 M14.9 13.6 L14.75 13.7 14.4 13.75 14.75 13.55 14.9 13.6" fill="#510000" fill-rule="evenodd" stroke="none"/>
      <path d="M15.85 11.75 L15.85 11.6 16.05 11.7 15.9 11.35 Q16.05 11.0 16.3 11.1 L16.4 11.25 Q16.5 10.8 16.75 11.0 16.95 11.0 16.9 11.1 L16.95 11.0 Q16.8 11.05 16.9 10.9 16.95 10.7 17.3 10.7 17.65 10.7 17.7 10.5 L17.4 11.95 17.3 12.2 17.4 12.15 17.2 12.3 17.15 12.25 16.8 12.4 17.2 11.9 17.2 11.6 Q16.65 11.7 16.65 12.2 L16.7 12.45 16.35 12.7 Q16.25 12.5 16.4 12.3 L16.55 12.55 16.45 11.95 15.85 11.75 M17.25 12.45 L17.4 12.35 17.35 12.45 17.7 12.4 19.1 12.65 18.8 12.95 18.5 13.25 18.3 13.15 18.25 13.15 18.35 13.35 18.35 13.5 17.95 13.6 18.05 13.75 17.7 13.95 17.4 13.8 17.4 14.0 17.1 14.0 16.9 13.5 16.85 13.7 16.6 13.5 16.6 13.45 16.85 13.45 16.9 13.45 17.45 13.4 16.9 12.95 17.25 12.55 17.25 12.45 M2.8 12.3 L2.6 12.15 2.7 12.2 2.6 11.95 2.3 10.5 Q2.35 10.7 2.7 10.7 3.05 10.7 3.1 10.9 L3.05 11.0 3.1 11.1 Q3.05 11.0 3.25 11.0 3.5 10.8 3.6 11.25 L3.7 11.1 Q3.95 11.0 4.1 11.35 L3.95 11.7 4.15 11.6 4.15 11.75 3.55 11.95 3.5 12.55 3.6 12.3 3.65 12.7 3.45 12.55 3.3 12.45 3.35 12.2 Q3.35 11.7 2.8 11.6 L2.8 11.9 3.2 12.4 2.85 12.25 2.8 12.3 M2.9 14.0 L2.6 14.0 2.6 13.8 2.3 13.95 Q1.95 13.95 1.95 13.75 L2.05 13.6 1.7 13.5 1.65 13.35 1.75 13.15 1.7 13.15 1.5 13.25 1.2 12.95 0.9 12.65 2.3 12.4 2.65 12.45 2.6 12.35 2.75 12.45 2.75 12.55 3.1 12.95 2.55 13.4 3.1 13.45 3.15 13.45 3.4 13.45 3.4 13.5 3.15 13.7 3.1 13.5 2.9 14.0 M4.2 13.05 L4.25 13.15 4.05 12.95 4.2 13.05 M4.1 13.5 L3.5 13.45 3.8 13.4 4.1 13.5 M16.35 12.7 L16.3 12.75 16.35 12.7 M16.1 12.85 L15.95 12.95 15.75 13.15 15.8 13.05 16.1 12.85 M15.85 13.5 L15.9 13.5 16.2 13.4 16.5 13.45 15.85 13.5" fill="#b10000" fill-rule="evenodd" stroke="none"/>
      <path d="M15.85 11.75 L16.45 11.95 16.55 12.55 16.4 12.3 Q16.25 12.5 16.35 12.7 L16.3 12.75 16.15 12.85 16.1 12.85 15.8 13.05 15.75 13.05 15.7 13.05 15.65 13.1 14.85 13.45 14.8 13.45 14.1 12.9 Q14.35 12.8 14.55 12.65 L14.45 12.65 14.5 12.6 14.75 12.55 15.05 12.25 15.2 12.2 15.5 11.7 15.85 11.75 M16.7 12.45 L16.65 12.2 Q16.65 11.7 17.2 11.6 L17.2 11.9 16.8 12.4 16.7 12.45 M17.1 14.0 L16.5 14.7 15.95 14.5 15.8 14.6 15.4 14.45 15.15 14.6 15.05 14.6 14.55 14.55 14.9 13.7 14.95 13.7 15.85 13.5 16.5 13.45 16.2 13.4 16.4 13.3 16.45 13.25 16.55 13.2 16.9 12.95 17.45 13.4 16.9 13.45 16.85 13.45 16.6 13.45 16.6 13.5 16.85 13.7 16.9 13.5 17.1 14.0 M4.15 11.75 L4.5 11.7 4.8 12.2 4.95 12.25 5.25 12.55 5.5 12.6 5.55 12.65 5.45 12.65 5.9 12.9 5.2 13.45 5.15 13.45 4.35 13.1 4.3 13.05 4.2 13.05 4.05 12.95 3.9 12.85 3.85 12.85 3.7 12.75 3.65 12.7 3.6 12.3 3.5 12.55 3.55 11.95 4.15 11.75 M4.95 14.6 L4.85 14.6 4.6 14.45 4.2 14.6 4.05 14.5 3.5 14.7 2.9 14.0 3.1 13.5 3.15 13.7 3.4 13.5 3.4 13.45 3.15 13.45 3.1 13.45 2.55 13.4 3.1 12.95 3.45 13.2 3.55 13.25 3.6 13.3 3.8 13.4 3.5 13.45 4.1 13.5 4.15 13.5 5.05 13.7 5.1 13.7 5.45 14.55 4.95 14.6 M3.2 12.4 L2.8 11.9 2.8 11.6 Q3.35 11.7 3.35 12.2 L3.3 12.45 3.2 12.4" fill="#910202" fill-rule="evenodd" stroke="none"/>
      <path d="M15.05 14.6 L14.75 14.85 14.25 15.0 14.0 14.9 13.8 15.0 13.6 15.0 13.6 14.65 13.55 14.65 13.35 14.8 12.9 14.55 Q12.8 14.55 12.55 14.7 L12.5 14.75 13.0 14.1 12.35 13.75 12.7 13.7 12.85 13.5 12.95 13.25 13.2 13.3 13.25 13.25 13.1 12.9 13.25 12.85 13.45 12.85 13.65 12.65 14.2 12.6 14.45 12.65 14.55 12.65 Q14.35 12.8 14.1 12.9 L14.8 13.45 14.85 13.5 14.9 13.6 14.9 13.7 14.55 14.55 15.05 14.6 M5.55 12.65 L5.8 12.6 6.35 12.65 6.55 12.85 6.75 12.85 6.9 12.9 6.75 13.25 6.8 13.3 7.05 13.25 7.15 13.5 7.3 13.7 7.65 13.75 7.0 14.1 7.5 14.75 7.45 14.7 7.1 14.55 6.65 14.8 6.45 14.65 6.4 14.65 6.4 15.0 6.2 15.0 6.0 14.9 5.75 15.0 5.25 14.85 4.95 14.6 5.45 14.55 5.1 13.7 5.1 13.6 5.25 13.7 5.6 13.75 5.25 13.55 5.1 13.6 5.15 13.5 5.2 13.45 5.9 12.9 5.45 12.65 5.55 12.65 M14.9 13.6 L14.75 13.55 14.4 13.75 14.75 13.7 14.9 13.6" fill="#660000" fill-rule="evenodd" stroke="none"/>
      <path d="M16.35 12.7 L16.7 12.45 16.8 12.4 17.15 12.25 17.2 12.3 17.25 12.45 17.25 12.55 16.9 12.95 16.55 13.2 16.45 13.25 16.4 13.3 16.2 13.4 15.9 13.5 15.85 13.5 14.95 13.7 14.9 13.7 14.9 13.6 14.85 13.5 14.8 13.45 14.85 13.45 15.65 13.1 15.7 13.05 15.75 13.05 15.8 13.05 15.75 13.15 15.95 12.95 16.1 12.85 16.15 12.85 16.3 12.75 16.35 12.7 M2.75 12.45 L2.8 12.3 2.85 12.25 3.2 12.4 3.3 12.45 3.45 12.55 3.65 12.7 3.7 12.75 3.85 12.85 3.9 12.85 4.05 12.95 4.25 13.15 4.2 13.05 4.3 13.05 4.35 13.1 5.15 13.45 5.2 13.45 5.15 13.5 5.1 13.6 5.1 13.7 5.05 13.7 4.15 13.5 4.1 13.5 3.8 13.4 3.6 13.3 3.55 13.25 3.45 13.2 3.1 12.95 2.75 12.55 2.75 12.45" fill="#2c0404" fill-rule="evenodd" stroke="none"/>
      <path d="M5.05 8.0 L5.05 8.4 4.8 8.85 4.4 9.2 4.85 7.8 5.05 8.0" fill="#000000" fill-opacity="0.11764706" fill-rule="evenodd" stroke="none"/>
      <path d="M15.15 8.75 L14.9 8.3 14.9 7.9 15.1 7.7 15.6 9.1 Q15.3 9.0 15.15 8.75" fill="#000000" fill-opacity="0.11372549" fill-rule="evenodd" stroke="none"/>
      <path d="M10.75 11.3 Q10.05 12.3 9.95 13.25 L9.8 12.65 9.65 12.3 Q9.3 11.2 8.5 10.3 L11.6 10.25 10.75 11.3" fill="url(#gradient6)" fill-rule="evenodd" stroke="none"/>
      <path d="M6.75 18.8 Q7.3 19.9 8.35 20.55 9.4 21.2 10.5 21.1 11.55 21.0 12.45 20.35 13.35 19.65 13.4 18.75 L13.4 18.7 Q13.9 18.55 14.05 18.95 14.05 19.85 13.3 20.6 12.3 21.7 10.4 21.7 7.0 21.7 6.15 19.05 6.15 18.55 6.75 18.8" fill="url(#gradient7)" fill-rule="evenodd" stroke="none"/>
      <path d="M6.75 22.45 Q7.3 23.55 8.35 24.2 9.4 24.85 10.5 24.75 11.55 24.65 12.45 24.0 13.35 23.3 13.4 22.4 L13.65 22.15 14.05 22.6 Q14.05 23.5 13.3 24.25 12.3 25.35 10.4 25.35 7.0 25.35 6.15 22.7 6.35 22.2 6.75 22.45" fill="url(#gradient8)" fill-rule="evenodd" stroke="none"/>
      <path d="M12.6 15.6 L12.55 15.7 12.5 15.7 12.6 15.6" fill="#d778ab" fill-rule="evenodd" stroke="none"/>
      <path d="M7.35 15.6 L6.4 14.0 6.35 13.85 6.65 13.8 6.7 13.8 6.7 13.75 6.75 13.75 7.15 13.55 7.35 13.5 8.1 13.25 8.6 13.25 8.95 13.25 9.5 13.4 9.8 13.45 9.5 13.5 9.4 13.85 9.45 14.55 9.45 14.65 9.6 14.85 9.7 14.95 8.65 17.1 7.35 15.6 M10.65 13.3 L10.9 13.25 11.3 13.25 11.8 13.25 12.6 13.5 12.75 13.55 13.1 13.75 13.15 13.75 13.15 13.8 13.2 13.8 13.6 13.85 13.45 14.0 13.35 14.15 13.3 14.25 13.2 14.45 13.1 14.65 13.05 14.7 12.6 15.6 12.5 15.7 12.25 16.0 11.25 17.1 10.25 15.1 10.45 14.9 10.7 14.1 10.7 13.5 10.65 13.3 M12.75 15.7 L12.85 15.75 12.8 15.85 13.0 15.9 13.35 16.2 13.1 16.6 13.05 16.65 13.05 16.6 12.8 16.55 12.35 16.5 12.55 16.2 12.55 16.15 12.75 15.7 M6.85 16.6 L6.8 16.65 6.8 16.6 6.55 16.2 6.9 15.9 7.1 15.85 7.05 15.75 7.1 15.7 7.2 15.95 7.3 16.0 7.4 16.2 7.55 16.5 7.05 16.55 6.85 16.6" fill="#1c819a" fill-rule="evenodd" stroke="none"/>
      <path d="M7.35 15.6 L8.65 17.1 9.7 14.95 9.6 14.85 9.45 14.65 9.45 14.55 9.4 13.85 9.5 13.5 9.8 13.45 9.9 13.45 9.9 13.5 10.0 13.5 10.05 13.45 10.1 13.45 10.2 13.45 10.3 13.45 10.6 13.3 10.65 13.3 10.7 13.5 10.7 14.1 10.45 14.9 10.25 15.1 11.25 17.1 12.25 16.0 12.5 15.7 12.5 15.75 12.55 15.75 12.55 15.7 12.65 15.6 12.75 15.7 12.55 16.15 12.55 16.2 12.35 16.5 12.8 16.55 13.05 16.6 13.05 16.65 12.8 16.9 12.05 17.45 11.8 17.7 11.45 17.85 11.15 17.95 11.0 18.0 10.65 18.1 10.65 17.95 10.65 17.85 10.6 17.7 10.55 17.4 10.3 16.65 10.2 16.3 10.15 15.95 10.05 15.35 10.05 15.3 10.05 15.1 10.0 15.05 10.0 14.9 9.95 14.65 9.95 14.6 9.9 14.6 9.9 14.85 9.85 15.0 9.85 15.1 9.85 15.25 9.85 15.3 9.7 15.95 9.65 16.3 9.6 16.65 9.4 17.4 9.3 17.75 9.25 17.85 9.25 17.95 9.2 18.1 8.9 18.0 8.75 17.95 8.5 17.85 8.1 17.7 8.0 17.65 7.85 17.45 7.5 17.2 7.1 16.9 6.85 16.65 6.85 16.6 7.05 16.55 7.55 16.5 7.4 16.2 7.3 16.0 7.2 15.95 7.1 15.7 7.3 15.6 7.35 15.7 7.4 15.75 7.45 15.75 7.4 15.7 7.35 15.6" fill="#073b48" fill-rule="evenodd" stroke="none"/>
      <path d="M11.1 8.6 L11.0 9.05 10.55 9.55 9.9 9.65 9.45 9.4 9.4 9.35 Q8.75 8.6 9.3 7.75 L9.5 7.25 10.1 7.2 10.55 7.25 10.65 7.4 11.1 8.1 11.1 8.2 11.1 8.6 M12.3 4.8 L12.4 4.9 12.95 5.55 13.45 6.45 Q13.45 7.05 12.95 7.05 12.2 7.05 12.2 6.05 L12.3 4.8 M11.0 4.35 L11.15 4.35 11.55 4.5 11.75 5.0 11.65 5.3 11.35 5.5 Q10.65 5.5 10.65 4.85 10.65 4.4 11.0 4.35 M12.35 4.35 L12.45 4.05 Q12.5 3.95 12.6 3.95 13.15 3.95 13.15 4.3 13.15 4.8 12.8 4.8 12.35 4.8 12.35 4.35 M7.0 4.9 L7.1 4.8 7.2 6.05 Q7.2 7.05 6.45 7.05 5.95 7.05 5.95 6.45 5.95 6.15 6.45 5.55 L7.0 4.9 M7.3 4.05 L7.4 4.35 6.95 4.8 Q6.6 4.8 6.6 4.3 6.6 3.95 7.15 3.95 L7.3 4.05 M8.6 4.35 L8.75 4.35 Q9.1 4.4 9.1 4.85 9.1 5.5 8.4 5.5 L8.1 5.3 8.0 5.0 8.2 4.5 8.6 4.35 M1.0 17.8 L1.15 17.1 Q1.35 16.45 2.7 18.75 L2.1 19.7 1.0 17.8 M4.0 22.1 L4.4 25.8 4.0 25.2 3.1 21.45 3.05 21.05 1.6 22.35 1.2 21.6 Q3.05 20.5 3.2 19.9 L3.25 19.95 Q3.7 19.95 4.0 22.1 M9.15 24.55 L9.2 24.5 9.25 24.45 9.5 24.1 Q9.9 23.5 9.9 22.6 L9.85 21.85 10.55 21.85 Q10.4 22.1 10.4 22.7 10.4 24.0 10.8 24.6 L10.6 24.65 10.85 24.65 10.9 24.65 11.6 24.35 11.7 25.35 11.7 25.45 11.2 25.5 9.65 25.3 8.25 25.0 8.4 24.25 9.15 24.55 M9.35 20.9 L9.35 20.8 9.55 19.4 9.35 18.3 10.9 18.3 10.75 18.8 10.65 19.7 Q10.65 20.3 11.0 20.9 L11.6 20.65 11.7 21.65 11.7 21.75 11.2 21.8 10.6 21.75 9.85 21.65 9.65 21.6 8.25 21.3 8.4 20.55 9.35 20.9 M19.05 17.8 L17.95 19.7 17.35 18.75 Q18.45 16.2 18.9 17.1 L19.05 17.8 M15.75 22.85 Q15.65 21.45 16.8 19.95 L16.85 19.9 Q17.0 20.5 18.85 21.6 L18.45 22.35 17.0 21.05 16.95 21.45 16.05 25.2 15.65 25.8 15.75 22.85" fill="#000000" fill-opacity="0.2" fill-rule="evenodd" stroke="none"/>
      <path d="M10.05 4.5 L10.3 4.75 10.9 5.65 Q11.55 7.0 11.55 7.8 11.55 8.35 11.1 8.7 11.5 7.9 11.3 7.4 L11.25 7.6 11.25 7.55 10.8 5.85 10.05 4.5" fill="#eef1ff" fill-rule="evenodd" stroke="none"/>
      <path d="M9.45 6.55 L9.5 6.4 9.95 5.15 10.0 5.2 9.95 6.3 9.95 6.55 9.9 6.55 9.6 6.95 9.45 6.55" fill="#ffe2b6" fill-rule="evenodd" stroke="none"/>
      <path d="M10.0 5.2 L10.3 5.7 10.65 6.4 10.65 6.45 10.7 6.55 10.55 6.95 10.2 6.55 10.05 6.45 9.95 6.3 10.0 5.2" fill="#fff4e5" fill-rule="evenodd" stroke="none"/>
      <path d="M10.95 7.45 L10.95 7.5 10.9 7.75 10.85 8.0 10.75 7.6 10.65 7.05 10.95 7.45 M9.6 8.35 L9.45 8.25 9.2 7.75 9.15 7.5 9.15 7.45 9.6 6.95 9.75 7.35 9.95 7.7 9.95 8.15 9.75 8.25 9.6 8.35 M10.2 7.75 L10.2 7.7 10.4 7.35 10.55 6.95 10.6 7.0 10.2 7.75 M10.05 8.0 L10.0 8.05 10.0 8.0 10.05 8.0" fill="#f0ab42" fill-rule="evenodd" stroke="none"/>
      <path d="M10.7 6.55 L10.95 7.45 10.65 7.05 10.6 7.0 10.55 6.95 10.7 6.55 M9.15 7.45 L9.45 6.55 9.6 6.95 9.15 7.45" fill="#e0cc3f" fill-rule="evenodd" stroke="none"/>
      <path d="M9.95 6.3 L10.05 6.45 10.2 6.55 10.55 6.95 10.4 7.35 10.2 7.7 10.2 7.75 10.15 7.8 10.15 7.85 10.05 7.95 10.05 8.0 10.0 8.0 9.95 8.15 9.95 7.7 9.95 6.55 9.95 6.3" fill="#ffdaa3" fill-rule="evenodd" stroke="none"/>
      <path d="M10.55 8.35 L10.2 8.55 10.05 8.6 9.95 8.6 9.95 8.55 9.75 8.5 9.85 8.35 9.95 8.2 10.05 8.05 10.35 8.25 10.55 8.35 M9.95 6.55 L9.95 7.7 9.75 7.35 9.6 6.95 9.9 6.55 9.95 6.55" fill="#a16b1a" fill-rule="evenodd" stroke="none"/>
      <path d="M10.85 8.0 L10.65 8.25 10.55 8.35 10.35 8.25 10.05 8.05 10.0 8.05 10.05 8.0 10.05 7.95 10.15 7.85 10.15 7.8 10.2 7.75 10.6 7.0 10.65 7.05 10.75 7.6 10.85 8.0" fill="#db9222" fill-rule="evenodd" stroke="none"/>
      <path d="M9.75 8.5 L9.6 8.35 9.75 8.25 9.95 8.15 10.0 8.0 10.0 8.05 10.05 8.05 9.95 8.2 9.85 8.35 9.75 8.5" fill="#e59823" fill-rule="evenodd" stroke="none"/>
      <path d="M10.65 5.65 L10.55 5.65 10.55 5.5 10.65 5.65 M11.1 8.7 L10.85 8.9 10.2 9.05 9.95 9.05 9.25 8.8 Q8.6 8.45 8.6 7.8 8.6 7.0 9.2 5.65 L9.9 4.65 9.85 4.75 9.35 5.85 Q8.85 6.95 8.85 7.6 8.85 8.25 9.35 8.55 L9.5 8.7 9.95 8.8 10.2 8.8 10.95 8.5 11.25 7.55 11.25 7.6 11.3 7.4 Q11.5 7.9 11.1 8.7" fill="#e1e3ec" fill-rule="evenodd" stroke="none"/>
      <path d="M10.65 5.65 L10.55 5.5 10.55 5.65 10.65 5.65 M9.9 4.65 L10.1 4.6 10.05 4.5 10.8 5.85 11.25 7.55 10.95 8.5 10.2 8.8 9.95 8.8 9.5 8.7 9.35 8.55 Q8.85 8.25 8.85 7.6 8.85 6.95 9.35 5.85 L9.85 4.75 9.9 4.65 M10.7 6.55 L10.65 6.45 10.65 6.4 10.3 5.7 10.0 5.2 9.95 5.15 9.5 6.4 9.45 6.55 9.15 7.45 9.15 7.5 9.2 7.75 9.45 8.25 9.6 8.35 9.75 8.5 9.95 8.55 9.95 8.6 10.05 8.6 10.2 8.55 10.55 8.35 10.65 8.25 10.85 8.0 10.9 7.75 10.95 7.5 10.95 7.45 10.7 6.55" fill="#ceced0" fill-rule="evenodd" stroke="none"/>
      <path d="M11.25 5.3 L10.95 5.1 10.75 4.65 10.95 4.2 11.4 4.0 11.85 4.2 12.05 4.65 11.85 5.1 11.9 4.85 11.85 4.6 11.5 4.5 Q11.2 4.5 11.2 5.0 L11.2 5.25 11.25 5.3 M12.8 4.65 L12.5 4.45 12.35 4.15 12.45 3.85 12.5 3.8 12.85 3.65 13.2 3.8 13.35 4.15 13.2 4.45 13.25 4.3 13.2 4.1 12.95 4.0 Q12.7 4.0 12.7 4.4 L12.7 4.6 12.8 4.65 M12.45 3.95 L12.5 4.1 12.7 4.15 12.75 4.1 12.75 4.05 12.75 3.95 12.75 3.85 12.7 3.8 12.55 3.8 12.45 3.85 12.45 3.95 M11.1 4.2 L11.0 4.2 10.9 4.3 10.9 4.4 10.95 4.6 11.2 4.65 11.25 4.6 11.3 4.55 11.3 4.45 11.3 4.4 11.3 4.3 11.2 4.25 11.15 4.2 11.1 4.2 M7.4 3.85 L7.5 4.15 7.35 4.45 7.05 4.65 7.15 4.6 7.15 4.4 6.9 4.0 6.65 4.1 6.6 4.3 6.65 4.45 6.5 4.15 6.65 3.8 Q6.8 3.65 7.0 3.65 L7.35 3.8 7.4 3.85 7.3 3.8 7.15 3.8 7.1 3.85 7.1 3.95 7.1 4.05 7.1 4.1 7.15 4.15 7.35 4.1 7.4 3.95 7.4 3.85 M8.9 4.6 L8.95 4.4 8.95 4.3 8.85 4.2 8.75 4.2 8.7 4.2 8.65 4.25 8.55 4.3 8.55 4.4 8.55 4.45 8.55 4.55 8.6 4.6 8.65 4.65 8.9 4.6 M8.0 5.1 L7.8 4.65 8.0 4.2 8.45 4.0 8.9 4.2 9.1 4.65 8.9 5.1 8.45 5.3 8.65 5.25 8.65 5.0 Q8.65 4.5 8.35 4.5 L8.0 4.6 7.95 4.85 8.0 5.1" fill="#eeeeee" fill-rule="evenodd" stroke="none"/>
      <path d="M11.25 5.3 L11.2 5.25 11.2 5.0 Q11.2 4.5 11.5 4.5 L11.85 4.6 11.9 4.85 11.85 5.1 Q11.65 5.3 11.45 5.3 L11.4 5.3 11.25 5.3 M13.2 4.45 L12.9 4.65 12.8 4.65 12.7 4.6 12.7 4.4 Q12.7 4.0 12.95 4.0 L13.2 4.1 13.25 4.3 13.2 4.45 M11.55 5.2 L11.7 5.2 11.75 5.15 11.75 5.05 11.65 5.0 11.55 5.1 11.55 5.2 M12.95 4.55 L13.1 4.55 13.1 4.45 13.05 4.4 12.95 4.45 12.95 4.55 M7.05 4.65 L6.95 4.65 6.65 4.45 6.6 4.3 6.65 4.1 6.9 4.0 7.15 4.4 7.15 4.6 7.05 4.65 M6.8 4.4 L6.75 4.45 6.75 4.55 6.9 4.55 6.9 4.45 6.8 4.4 M8.45 5.3 L8.4 5.3 8.0 5.1 7.95 4.85 8.0 4.6 8.35 4.5 Q8.65 4.5 8.65 5.0 L8.65 5.25 8.45 5.3 M8.3 5.2 L8.3 5.1 8.2 5.0 8.1 5.05 8.1 5.15 8.15 5.2 8.3 5.2" fill="#dfdfec" fill-rule="evenodd" stroke="none"/>
      <path d="M11.1 4.2 L11.15 4.2 11.2 4.25 11.3 4.3 11.3 4.4 11.3 4.45 11.3 4.55 11.25 4.6 11.2 4.65 10.95 4.6 10.9 4.4 10.9 4.3 11.0 4.2 11.1 4.2 M12.45 3.95 L12.45 3.85 12.55 3.8 12.7 3.8 12.75 3.85 12.75 3.95 12.75 4.05 12.75 4.1 12.7 4.15 12.5 4.1 12.45 3.95 M11.55 5.2 L11.55 5.1 11.65 5.0 11.75 5.05 11.75 5.15 11.7 5.2 11.55 5.2 M12.95 4.55 L12.95 4.45 13.05 4.4 13.1 4.45 13.1 4.55 12.95 4.55 M7.4 3.85 L7.4 3.95 7.35 4.1 7.15 4.15 7.1 4.1 7.1 4.05 7.1 3.95 7.1 3.85 7.15 3.8 7.3 3.8 7.4 3.85 M6.8 4.4 L6.9 4.45 6.9 4.55 6.75 4.55 6.75 4.45 6.8 4.4 M8.9 4.6 L8.65 4.65 8.6 4.6 8.55 4.55 8.55 4.45 8.55 4.4 8.55 4.3 8.65 4.25 8.7 4.2 8.75 4.2 8.85 4.2 8.95 4.3 8.95 4.4 8.9 4.6 M8.3 5.2 L8.15 5.2 8.1 5.15 8.1 5.05 8.2 5.0 8.3 5.1 8.3 5.2" fill="#ffffff" fill-rule="evenodd" stroke="none"/>
      <path d="M12.45 5.8 L12.45 5.75 12.55 5.45 12.6 5.4 12.65 5.3 12.65 5.25 12.35 4.65 12.35 4.55 12.95 5.2 13.0 5.3 13.4 5.75 13.0 5.6 12.75 5.4 12.7 5.4 12.95 6.1 13.1 6.35 13.05 6.3 13.0 6.3 12.85 6.15 12.8 6.15 12.75 6.1 12.65 5.95 12.45 5.8 M6.75 6.3 L6.7 6.3 6.65 6.35 6.8 6.1 7.05 5.4 7.0 5.4 Q6.85 5.45 6.75 5.6 6.5 5.65 6.35 5.75 L6.75 5.3 6.8 5.2 7.4 4.55 7.4 4.65 7.1 5.25 7.1 5.3 7.15 5.4 7.2 5.45 7.3 5.75 7.3 5.8 7.1 5.95 7.0 6.1 6.95 6.15 6.9 6.15 6.75 6.3" fill="#b6c8ff" fill-rule="evenodd" stroke="none"/>
      <path d="M12.35 4.65 L12.65 5.25 12.65 5.3 12.6 5.4 12.55 5.45 12.45 5.75 12.45 5.8 12.4 5.75 12.25 5.6 12.25 5.5 12.25 5.3 12.3 5.0 12.35 4.65 M7.4 4.65 L7.45 5.0 7.5 5.3 7.5 5.5 7.5 5.6 7.35 5.75 7.3 5.8 7.3 5.75 7.2 5.45 7.15 5.4 7.1 5.3 7.1 5.25 7.4 4.65" fill="#dbfbff" fill-rule="evenodd" stroke="none"/>
      <path d="M12.75 6.1 L12.8 6.15 12.85 6.15 13.0 6.3 13.05 6.35 13.0 6.35 12.85 6.5 12.8 6.6 12.7 6.6 12.5 6.5 12.5 6.2 12.4 5.9 12.4 5.8 12.75 6.1 M13.1 6.35 L12.95 6.1 13.05 5.8 13.0 5.75 13.0 5.6 13.4 5.75 13.45 5.95 13.4 6.3 13.35 6.4 13.25 6.35 13.1 6.35 M7.25 6.5 L7.05 6.6 6.95 6.6 6.9 6.5 6.75 6.35 6.7 6.35 6.75 6.3 6.9 6.15 6.95 6.15 7.0 6.1 7.35 5.8 7.35 5.9 7.25 6.2 7.25 6.5 M6.65 6.35 L6.5 6.35 6.4 6.4 6.35 6.3 6.3 5.95 6.35 5.75 Q6.5 5.65 6.75 5.6 L6.75 5.75 6.7 5.8 6.8 6.1 6.65 6.35" fill="#9ab0f0" fill-rule="evenodd" stroke="none"/>
      <path d="M12.95 6.1 L12.7 5.4 12.75 5.4 13.0 5.6 13.0 5.75 13.05 5.8 12.95 6.1 M12.25 5.6 L12.4 5.75 12.45 5.8 12.4 5.8 12.4 5.9 12.5 6.2 12.5 6.5 12.45 6.35 12.35 6.3 12.3 6.2 12.25 5.6 M12.8 6.6 L12.85 6.5 13.0 6.35 13.05 6.35 13.1 6.4 13.2 6.45 13.3 6.5 13.15 6.6 13.2 6.6 13.15 6.65 13.0 6.65 12.8 6.6 M7.5 5.6 L7.45 6.2 7.4 6.3 7.3 6.35 7.25 6.5 7.25 6.2 7.35 5.9 7.35 5.8 7.3 5.8 7.35 5.75 7.5 5.6 M6.95 6.6 L6.75 6.65 6.6 6.65 6.55 6.6 6.6 6.6 6.45 6.5 6.55 6.45 6.65 6.4 6.7 6.35 6.75 6.35 6.9 6.5 6.95 6.6 M6.75 5.6 Q6.85 5.45 7.0 5.4 L7.05 5.4 6.8 6.1 6.7 5.8 6.75 5.75 6.75 5.6" fill="#546eb8" fill-rule="evenodd" stroke="none"/>
      <path d="M12.5 26.6 L11.65 27.25 10.75 27.7 14.0 27.45 Q13.45 28.25 11.4 28.8 L9.65 28.7 7.75 28.15 Q6.7 27.95 3.95 26.8 L6.05 27.45 8.2 27.7 6.4 27.2 Q4.2 26.35 1.85 24.6 -0.55 22.8 0.05 19.3 0.6 20.7 0.75 20.55 L0.85 20.95 Q2.85 24.8 4.85 25.85 6.85 26.9 8.6 26.9 L12.5 26.6" fill="url(#gradient9)" fill-rule="evenodd" stroke="none"/>
      <path d="M-1.3 20.95 L-1.4 23.0 Q-2.35 26.1 1.6 28.2 5.5 30.3 8.3 30.2 9.15 31.05 5.0 30.4 1.15 29.7 -0.8 28.6 -3.6 27.0 -3.6 24.35 L-3.4 23.4 -3.25 23.2 -1.55 21.25 -1.45 21.05 -1.3 20.95" fill="url(#gradient10)" fill-rule="evenodd" stroke="none"/>
      <path d="M-3.85 27.25 L-2.7 29.1 -1.25 30.45 0.7 31.65 6.25 32.05 Q10.15 31.9 10.8 32.05 L10.9 32.1 10.5 32.55 8.55 33.45 Q7.1 34.1 4.85 33.95 2.55 33.8 -0.1 31.8 -3.35 29.35 -3.85 27.25" fill="url(#gradient11)" fill-rule="evenodd" stroke="none"/>
      <path d="M17.8 29.1 L20.7 29.35 Q23.7 29.55 26.25 29.3 28.8 29.05 27.85 27.15 L28.2 27.6 28.5 28.05 28.5 28.1 28.9 28.85 28.9 29.0 28.95 29.1 Q29.1 30.0 28.9 30.4 L28.5 31.45 27.75 32.65 Q27.2 33.2 25.9 33.15 24.55 33.05 23.1 32.2 19.85 32.0 18.0 30.75 16.95 30.05 16.35 29.0 L17.25 29.1 17.8 29.1 M28.9 29.2 L28.7 29.55 Q28.25 30.1 24.15 30.3 L18.95 29.85 Q21.35 30.35 23.0 31.05 L25.1 31.6 26.5 31.8 27.35 31.95 27.5 32.15 Q27.75 32.5 28.35 31.6 28.9 30.65 28.9 29.2" fill="url(#gradient12)" fill-rule="evenodd" stroke="none"/>
      <path d="M23.1 23.6 L23.55 23.45 24.25 23.3 24.55 23.25 25.0 23.2 Q25.9 23.2 26.35 23.55 L26.2 24.2 25.9 24.95 24.7 26.35 Q23.65 27.4 22.45 27.15 L24.3 24.8 23.6 24.0 23.25 23.7 23.1 23.6 M27.1 23.85 L26.95 23.65 26.95 23.6 27.25 24.0 27.1 23.85" fill="url(#gradient13)" fill-rule="evenodd" stroke="none"/>
      <path d="M22.45 27.15 Q23.65 27.4 24.7 26.35 L25.9 24.95 26.2 24.2 26.35 23.55 Q25.9 23.2 25.0 23.2 L24.55 23.25 24.25 23.3 23.55 23.45 23.1 23.6 22.55 23.35 24.25 22.8 25.05 22.7 25.7 22.8 26.2 22.9 26.95 23.6 26.95 23.65 27.1 23.85 27.0 23.75 27.2 23.95 Q28.0 24.95 28.0 26.5 L27.85 27.15 Q28.8 29.05 26.25 29.3 23.7 29.55 20.7 29.35 L17.8 29.1 20.15 28.5 20.3 28.4 20.95 27.9 22.05 27.35 22.45 27.15 M0.75 20.55 Q0.6 20.7 0.05 19.3 -0.55 22.8 1.85 24.6 4.2 26.35 6.4 27.2 L8.2 27.7 6.05 27.45 3.95 26.8 Q6.7 27.95 7.75 28.15 L9.65 28.7 11.4 28.8 Q13.45 28.25 14.0 27.45 L10.75 27.7 11.65 27.25 12.5 26.6 12.95 26.3 13.4 26.2 13.45 26.15 13.3 26.0 13.45 26.15 13.5 26.1 13.6 26.15 13.65 26.25 15.0 27.6 15.75 28.6 15.0 29.4 12.45 31.05 10.8 32.05 Q10.15 31.9 6.25 32.05 L0.7 31.65 -1.25 30.45 -2.7 29.1 -3.85 27.25 -3.95 26.6 Q-4.1 24.4 -3.4 23.4 L-3.6 24.35 Q-3.6 27.0 -0.8 28.6 1.15 29.7 5.0 30.4 9.15 31.05 8.3 30.2 5.5 30.3 1.6 28.2 -2.35 26.1 -1.4 23.0 L-1.3 20.95 -1.1 20.85 -1.1 20.75 Q-1.1 18.9 0.1 18.6 L0.1 18.7 0.05 18.85 0.2 18.8 0.75 20.55 M28.9 29.2 Q28.9 30.65 28.35 31.6 27.75 32.5 27.5 32.15 L27.35 31.95 26.5 31.8 25.1 31.6 23.0 31.05 Q21.35 30.35 18.95 29.85 L24.15 30.3 Q28.25 30.1 28.7 29.55 L28.9 29.2" fill="#0b252a" fill-rule="evenodd" stroke="none"/>
      <path d="M24.55 32.6 L24.8 33.15 25.15 33.85 27.4 38.0 27.0 38.3 26.05 36.55 25.6 35.5 25.15 34.1 24.95 33.65 24.55 32.6 M13.0 33.65 L13.1 33.05 Q13.0 32.65 13.3 32.0 L13.1 33.65 13.0 33.65 M12.05 25.4 L11.25 27.2 10.25 29.6 8.75 32.3 Q8.55 32.6 8.25 31.75 7.9 30.85 9.45 28.05 L10.95 25.55 10.9 25.95 11.0 25.9 11.35 25.6 12.05 25.4" fill="url(#gradient14)" fill-rule="evenodd" stroke="none"/>
      <path d="M18.0 36.4 L18.15 37.15 17.25 37.05 17.15 36.5 17.0 35.55 17.0 35.6 18.0 36.4 M13.0 34.1 L12.9 34.05 12.6 34.0 12.9 34.0 13.0 34.0 13.0 34.1 M8.4 32.7 L8.0 32.2 8.0 32.05 7.85 31.7 Q7.55 30.85 9.05 27.95 10.5 25.0 11.2 24.85 L11.25 24.85 12.1 24.9 12.35 25.2 12.4 25.3 12.05 25.4 11.35 25.6 11.0 25.9 10.9 25.95 10.95 25.55 9.45 28.05 Q7.9 30.85 8.25 31.75 8.55 32.6 8.75 32.3 L10.05 32.8 10.15 33.25 Q10.75 33.0 11.55 33.25 L13.0 33.65 13.1 33.65 14.15 33.95 14.3 34.0 13.9 34.0 13.3 33.95 13.05 33.9 12.95 33.9 11.45 33.65 10.2 33.35 10.0 33.3 8.6 32.75 8.4 32.7 M14.15 34.2 L14.35 34.25 15.8 34.95 15.75 35.8 15.8 36.6 15.8 36.9 15.7 36.85 14.1 36.65 14.1 35.4 14.1 35.1 14.15 34.2" fill="#310808" fill-rule="evenodd" stroke="none"/>
      <path d="M24.15 31.65 L24.55 32.6 24.95 33.65 25.15 34.1 25.6 35.5 26.05 36.55 27.0 38.3 25.85 39.0 24.95 37.05 24.15 35.05 22.9 32.5 22.9 31.8 24.15 31.65 M23.85 39.7 L22.35 40.1 21.75 38.1 21.55 37.3 Q21.2 37.0 20.65 35.5 L19.8 33.5 Q20.0 33.25 20.7 33.1 L21.4 33.0 Q21.8 33.0 22.1 34.45 L22.1 34.55 Q22.45 36.25 22.8 36.4 L23.5 38.6 23.85 39.7 M19.15 50.65 L16.8 50.95 Q15.9 42.0 15.8 36.9 L17.25 37.05 17.9 41.7 18.8 48.35 19.15 50.65 M14.55 50.85 L13.2 50.8 12.9 37.25 12.9 36.45 14.1 36.65 14.1 37.3 14.35 46.85 14.55 50.85 M11.55 33.25 L11.8 32.5 12.8 30.3 11.9 31.55 11.9 31.5 Q12.1 30.75 12.85 29.45 L13.05 29.1 Q14.15 27.4 15.3 27.4 L16.4 27.6 16.4 27.7 Q15.65 28.0 14.3 30.15 L13.95 30.8 13.6 31.1 13.45 31.5 13.3 32.0 Q13.0 32.65 13.1 33.05 L13.0 33.65 11.55 33.25 M12.35 25.2 L12.85 25.0 Q13.1 25.0 13.9 25.5 L14.8 26.1 13.6 26.45 12.4 26.9 11.6 27.7 11.4 28.0 12.9 27.5 10.15 33.25 10.05 32.8 8.75 32.3 10.25 29.6 11.25 27.2 12.05 25.4 12.4 25.3 12.35 25.2" fill="#030e10" fill-rule="evenodd" stroke="none"/>
      <path d="M12.9 36.45 L12.95 34.8 13.0 34.1 13.0 34.0 14.15 34.2 14.1 35.1 14.1 35.4 14.1 36.65 12.9 36.45 M13.45 31.5 L14.2 31.5 14.4 31.6 Q14.2 32.4 14.15 33.95 L13.1 33.65 13.3 32.0 13.45 31.5 M15.8 34.95 L16.7 35.4 17.0 35.55 17.15 36.5 17.25 37.05 15.8 36.9 15.8 36.6 15.75 35.8 15.8 34.95" fill="#000000" fill-rule="evenodd" stroke="none"/>
      <path d="M16.8 50.95 L14.55 50.85 14.35 46.85 14.1 37.3 14.1 36.65 15.7 36.85 15.8 36.9 Q15.9 42.0 16.8 50.95" fill="url(#gradient15)" fill-rule="evenodd" stroke="none"/>
      <path d="M18.15 37.15 L19.25 43.4 20.5 50.35 20.4 50.4 19.15 50.65 18.8 48.35 17.9 41.7 17.25 37.05 18.15 37.15" fill="url(#gradient16)" fill-rule="evenodd" stroke="none"/>
      <path d="M22.0 22.1 L22.55 22.45 22.3 22.3 22.0 22.1 M23.0 25.35 L23.45 27.1 Q22.4 27.65 21.95 27.6 L22.9 28.85 24.15 31.65 22.9 31.8 22.9 32.5 24.15 35.05 24.95 37.05 25.85 39.0 23.9 39.7 23.85 39.7 23.5 38.6 22.8 36.4 Q22.45 36.25 22.1 34.55 L22.1 34.45 Q21.8 33.0 21.4 33.0 L20.7 33.1 Q20.0 33.25 19.8 33.5 L20.65 35.5 Q21.2 37.0 21.55 37.3 L21.75 38.1 22.35 40.1 21.2 40.1 19.4 33.9 Q18.05 30.0 17.2 28.8 16.55 27.9 16.15 28.45 16.2 30.0 16.8 32.2 L17.3 33.95 17.55 34.7 18.0 36.4 17.0 35.6 17.0 35.55 16.7 35.4 15.8 34.95 14.35 34.25 14.15 34.2 13.0 34.0 12.9 34.0 12.6 34.0 11.4 33.8 10.2 33.5 9.85 33.4 9.75 33.35 9.65 33.3 9.5 33.25 9.25 33.15 9.1 33.1 8.4 32.7 8.6 32.75 10.0 33.3 10.2 33.35 11.45 33.65 12.95 33.9 13.05 33.9 13.3 33.95 13.9 34.0 14.3 34.0 14.15 33.95 Q14.2 32.4 14.4 31.6 L14.2 31.5 13.45 31.5 13.6 31.1 13.95 30.8 14.3 30.15 Q15.65 28.0 16.4 27.7 L16.4 27.6 15.3 27.4 Q14.15 27.4 13.05 29.1 L12.85 29.45 Q12.1 30.75 11.9 31.5 L11.9 31.55 12.8 30.3 11.8 32.5 11.55 33.25 Q10.75 33.0 10.15 33.25 L12.9 27.5 11.4 28.0 11.6 27.7 12.4 26.9 13.6 26.45 14.8 26.1 13.9 25.5 Q13.1 25.0 12.85 25.0 L12.35 25.2 12.1 24.9 11.25 24.85 11.5 24.6 11.55 24.55 11.95 24.2 12.0 24.15 Q12.15 24.6 12.85 24.85 L15.75 25.7 17.7 26.75 18.1 26.8 18.75 27.0 20.0 27.5 Q21.0 27.5 22.35 26.1 L23.0 25.35" fill="url(#gradient17)" fill-rule="evenodd" stroke="none"/>
      <path d="M22.0 22.1 L22.3 22.3 22.55 22.45 22.55 22.8 22.7 24.15 23.0 25.35 22.35 26.1 Q21.0 27.5 20.0 27.5 L18.75 27.0 18.1 26.8 17.7 26.75 15.75 25.7 12.85 24.85 Q12.15 24.6 12.0 24.15 L12.45 23.5 Q13.0 22.8 13.45 22.55 L15.65 21.7 Q18.15 20.45 19.35 21.15 20.55 21.85 21.65 22.05 L22.0 22.1" fill="#3f0000" fill-rule="evenodd" stroke="none"/>
      <path d="M22.35 27.95 L22.05 27.55 20.85 26.7 20.5 26.7 20.75 26.45 20.25 25.75 Q20.7 24.2 21.85 23.1 21.0 23.55 20.65 24.25 L20.6 24.3 Q21.3 22.45 22.15 21.8 23.05 20.9 24.15 20.9 24.7 20.9 24.7 21.45 L24.7 21.55 24.85 21.55 Q25.7 21.55 25.7 21.85 L25.4 22.2 25.2 22.4 25.1 22.5 25.6 22.4 Q26.15 22.4 26.15 22.95 L26.0 23.4 25.9 23.45 Q26.45 23.45 26.45 24.0 L26.15 24.45 26.25 24.55 Q26.6 24.65 26.6 25.15 L26.55 25.3 27.0 25.8 26.5 26.35 26.45 26.35 26.5 26.4 26.7 26.65 26.8 26.95 26.55 27.45 26.35 27.65 26.55 27.8 26.65 28.15 26.15 28.75 25.05 28.6 24.2 28.3 22.35 27.95" fill="url(#gradient18)" fill-rule="evenodd" stroke="none"/>
      <path d="M17.9 35.6 Q17.7 36.35 17.3 36.35 16.7 36.35 16.55 35.5 L16.35 35.95 15.95 36.0 15.35 35.8 Q15.0 35.5 15.25 34.85 L15.15 34.85 14.75 35.15 Q13.9 35.15 14.3 33.55 L13.6 33.55 13.6 32.45 12.95 32.95 Q12.55 32.85 12.4 32.6 L12.45 32.0 12.5 31.75 11.8 31.75 12.2 31.15 12.0 31.15 Q11.15 31.15 11.15 30.55 L11.35 30.1 11.65 29.85 11.65 30.1 12.3 30.1 12.55 30.05 12.4 30.35 Q12.4 31.05 12.95 31.05 L13.1 31.05 13.65 30.95 16.05 30.0 18.0 29.1 18.35 28.9 19.05 28.25 19.2 28.9 Q19.55 30.55 19.55 33.8 L19.45 34.75 19.35 34.95 19.2 35.3 18.9 35.55 18.65 35.65 18.45 35.6 17.95 34.95 17.95 35.1 17.95 35.4 17.9 35.6" fill="url(#gradient19)" fill-rule="evenodd" stroke="none"/>
      <path d="M26.15 28.75 L26.6 28.9 26.65 28.95 26.8 28.95 27.15 29.2 27.35 29.6 Q27.35 30.15 26.7 30.3 L26.7 30.35 26.65 30.5 26.8 30.45 26.95 30.45 27.45 30.7 Q28.15 31.1 28.15 31.6 L27.85 31.9 27.2 31.9 27.3 32.0 Q27.8 32.5 27.8 32.9 27.8 33.25 27.4 33.5 L26.85 33.7 26.5 33.65 26.25 33.6 26.35 34.15 Q26.35 34.75 25.65 34.75 L24.95 34.35 24.7 33.85 24.55 33.75 24.7 34.4 Q24.7 35.0 24.15 35.0 L23.35 34.65 23.45 35.6 Q23.45 36.4 22.75 36.4 L22.65 36.4 22.6 36.5 22.55 36.4 22.35 36.25 22.25 36.25 22.0 36.0 Q22.05 37.3 21.3 37.3 L20.95 37.25 Q20.65 37.15 20.6 36.6 L20.6 36.7 20.55 37.05 19.8 36.5 19.5 35.9 19.1 36.35 18.85 36.45 Q18.25 36.45 18.0 36.1 L17.9 35.6 17.95 35.4 17.95 35.1 17.95 34.95 18.45 35.6 18.65 35.65 18.9 35.55 19.2 35.3 19.35 34.95 19.45 34.75 19.55 33.8 Q19.55 30.55 19.2 28.9 L19.05 28.25 18.35 28.9 18.0 29.1 16.05 30.0 13.65 30.95 13.1 31.05 12.95 31.05 Q12.4 31.05 12.4 30.35 L12.55 30.05 12.3 30.1 11.65 30.1 11.65 29.85 Q10.75 29.8 11.15 29.0 L11.4 28.85 Q10.3 28.8 10.3 28.0 10.3 27.25 10.8 27.05 10.0 26.55 10.0 26.2 10.0 25.75 10.75 25.5 L11.6 25.3 12.25 25.2 Q10.6 25.15 11.0 24.25 11.35 23.95 11.7 24.0 L12.15 24.05 Q11.7 23.7 11.7 23.35 L11.8 22.95 12.35 22.85 12.75 22.95 12.65 22.5 Q12.65 21.9 13.15 21.9 13.35 21.9 14.05 22.4 L14.55 22.8 14.6 22.85 14.7 23.0 15.0 23.3 14.95 23.85 16.75 24.9 18.85 27.25 19.1 27.6 19.35 27.95 19.1 28.2 19.45 28.2 20.65 29.05 Q21.45 30.15 22.15 31.8 L22.5 32.7 22.35 32.15 22.85 32.15 24.15 32.3 24.25 32.3 23.55 30.3 22.35 27.95 24.2 28.3 25.05 28.6 26.15 28.75 M12.3 28.2 L12.35 28.2 12.45 28.1 12.3 28.2" fill="url(#gradient20)" fill-rule="evenodd" stroke="none"/>
      <path d="M16.4 28.9 L16.5 28.9 Q18.1 29.75 19.65 29.55 L19.75 31.9 Q20.3 32.75 19.8 34.8 19.25 36.85 18.0 38.15 16.75 39.4 14.35 39.55 L10.9 39.65 10.9 39.55 Q12.4 38.9 12.4 35.95 12.4 32.3 12.65 31.6 13.25 29.9 15.9 29.05 L16.4 28.9 M14.75 34.3 Q15.65 32.65 16.3 32.25 16.9 31.8 15.65 32.25 L15.65 32.1 15.0 32.1 14.75 32.2 Q13.7 32.35 13.7 35.75 L13.75 36.6 Q13.85 35.95 14.75 34.3 M18.2 33.7 L18.2 33.85 18.25 34.4 18.25 34.55 18.15 35.2 17.25 37.2 16.7 37.95 18.15 36.6 19.25 35.05 19.5 34.5 19.35 33.6 18.8 33.55 18.2 33.7 M17.1 33.15 L17.2 33.65 17.25 33.0 17.2 32.55 17.2 32.5 17.15 32.65 17.1 33.15 M17.15 32.75 L13.4 38.3 Q16.4 37.1 17.45 35.1 18.5 33.1 17.2 33.9 L17.05 33.35 17.15 32.75 M15.9 38.35 L15.8 38.45 15.95 38.4 15.9 38.35" fill="url(#gradient21)" fill-rule="evenodd" stroke="none"/>
      <path d="M22.95 30.8 L22.35 30.55 Q20.4 29.65 20.4 28.6 20.4 27.65 21.0 27.05 L21.2 26.85 21.4 26.7 22.35 25.95 24.55 25.6 Q26.15 25.6 28.55 27.05 L29.15 27.45 30.9 28.55 31.05 28.65 31.8 29.05 32.75 29.0 32.4 29.25 29.65 30.2 Q27.1 31.1 25.65 31.1 24.35 31.1 23.4 30.1 L23.35 30.1 23.35 30.05 23.3 29.85 22.95 29.85 22.95 30.8 M25.7 29.85 L29.1 29.3 29.0 29.3 27.95 29.45 26.3 29.0 24.55 28.55 24.1 28.6 24.05 28.7 23.95 29.1 Q23.95 29.65 24.5 29.8 L25.7 29.85 M29.65 28.8 L27.75 27.75 Q26.05 26.85 25.15 26.85 L23.45 27.05 23.65 27.05 Q23.95 27.05 25.85 28.0 28.0 28.9 29.65 28.8" fill="url(#gradient22)" fill-rule="evenodd" stroke="none"/>
      <path d="M29.65 28.8 Q28.0 28.9 25.85 28.0 23.95 27.05 23.65 27.05 L23.45 27.05 25.15 26.85 Q26.05 26.85 27.75 27.75 L29.65 28.8 M25.7 29.85 L24.5 29.8 Q23.95 29.65 23.95 29.1 L24.05 28.7 24.1 28.6 24.55 28.55 26.3 29.0 27.95 29.45 29.0 29.3 29.1 29.3 25.7 29.85" fill="#74561a" fill-rule="evenodd" stroke="none"/>
      <path d="M14.75 34.3 Q13.85 35.95 13.75 36.6 L13.7 35.75 Q13.7 32.35 14.75 32.2 L15.0 32.1 15.65 32.1 15.65 32.25 Q16.9 31.8 16.3 32.25 15.65 32.65 14.75 34.3 M18.2 33.7 L18.8 33.55 19.35 33.6 19.5 34.5 19.25 35.05 18.15 36.6 16.7 37.95 17.25 37.2 18.15 35.2 18.25 34.55 18.25 34.4 18.2 33.85 18.2 33.7 M15.9 38.35 L15.95 38.4 15.8 38.45 15.9 38.35 M17.15 32.75 L17.05 33.35 17.2 33.9 Q18.5 33.1 17.45 35.1 16.4 37.1 13.4 38.3 L17.15 32.75 M17.1 33.15 L17.15 32.65 17.2 32.5 17.2 32.55 17.25 33.0 17.2 33.65 17.1 33.15 M22.95 30.8 L22.95 29.85 23.3 29.85 23.35 30.05 23.35 30.1 23.4 30.1 Q24.35 31.1 25.65 31.1 27.1 31.1 29.65 30.2 L32.4 29.25 Q30.0 30.7 28.25 31.35 L25.45 31.7 23.95 31.1 22.95 30.8" fill="#ad760c" fill-rule="evenodd" stroke="none"/>
      <path d="M22.75 24.9 L22.75 23.95 22.7 23.95 22.45 24.15 22.15 24.05 22.15 23.2 22.25 23.2 22.65 23.5 22.65 23.45 22.5 23.1 22.15 22.9 22.2 22.9 22.85 23.35 22.95 23.6 23.0 24.0 22.9 24.65 22.75 24.9 M21.7 23.3 L21.7 23.55 21.9 24.5 22.15 25.0 Q21.7 24.75 21.6 23.7 L21.7 23.3 M20.5 24.3 L20.45 24.25 20.2 24.25 20.2 24.55 20.5 24.55 20.5 24.3 M15.45 23.05 L15.75 23.0 16.0 23.05 16.2 23.3 16.3 23.5 16.2 23.4 16.15 23.6 15.85 24.0 15.2 24.0 15.2 23.5 15.5 23.15 15.45 23.05 M17.7 22.6 L17.4 22.35 17.5 22.3 17.7 22.6 M18.45 22.0 L18.65 22.05 19.05 22.45 Q19.2 22.8 18.65 22.8 L18.0 22.7 19.0 22.7 19.0 22.55 Q18.15 22.55 18.15 22.25 L18.45 22.0 M15.9 23.4 L15.6 23.4 15.5 23.45 15.5 23.7 15.9 23.7 15.95 23.45 15.9 23.4 M18.9 24.45 L19.4 24.45 19.75 24.0 19.75 23.9 19.7 23.9 19.25 23.95 19.4 23.9 19.6 23.85 20.2 23.9 20.4 24.0 Q20.95 24.4 20.95 25.0 20.95 26.25 20.15 26.25 19.65 26.25 19.25 25.85 18.85 25.4 18.85 24.85 L18.9 24.45 M19.5 24.65 L19.4 24.9 19.75 25.2 19.85 25.0 19.85 24.45 19.6 24.45 19.5 24.6 19.5 24.65 M19.95 25.35 L19.7 25.75 19.7 26.15 20.3 26.2 20.65 25.55 20.45 24.8 20.05 25.2 19.95 25.35 M15.9 26.9 L16.1 27.0 16.0 27.3 15.65 27.3 15.6 27.1 15.65 26.9 15.9 26.9 M16.0 26.55 L15.7 26.7 Q15.35 27.05 15.35 27.55 L15.35 27.6 15.35 27.7 15.25 27.3 15.25 26.75 15.35 26.65 15.65 26.5 15.7 26.5 15.75 26.5 15.8 26.5 16.0 26.55 M15.45 28.5 L15.65 28.5 15.75 28.2 15.9 28.2 Q16.35 28.2 16.45 27.9 L16.5 27.25 16.5 26.9 16.65 27.45 Q16.65 28.55 15.75 28.55 L15.45 28.5 M15.7 31.75 L15.65 31.65 Q15.5 31.4 15.5 31.0 15.5 30.7 15.95 30.15 L16.3 30.1 Q16.7 30.1 17.0 30.5 L17.2 31.05 Q17.2 31.45 16.8 31.7 L16.1 31.9 15.8 31.8 16.2 31.8 16.25 31.55 16.15 31.3 15.75 31.3 15.7 31.45 15.7 31.75 M16.1 30.25 L15.95 30.3 15.75 30.65 Q15.75 31.15 16.35 31.15 16.75 31.15 16.75 30.6 L16.5 30.2 16.4 30.25 16.1 30.25 M18.8 33.25 Q18.9 32.95 19.25 32.8 19.5 32.6 19.85 32.55 L20.25 32.5 Q20.7 32.5 20.75 33.1 20.8 33.65 20.5 34.05 20.15 34.45 19.5 34.3 L18.7 33.95 18.7 33.9 18.7 33.6 18.7 33.55 18.75 33.35 18.8 33.25 M20.1 33.4 L20.2 33.4 20.4 33.45 20.2 33.95 19.7 33.95 19.7 33.45 20.1 33.4 M19.7 32.65 Q19.15 32.85 19.15 33.45 19.15 34.0 20.0 34.0 L20.6 33.8 20.65 33.3 Q20.65 32.65 20.1 32.65 L19.7 32.65 M23.65 28.2 L24.05 27.9 Q24.55 27.9 24.55 28.6 L24.15 29.35 24.1 29.4 24.15 29.2 23.65 29.2 23.6 28.85 23.6 28.5 23.9 28.15 23.65 28.2 M23.2 29.55 L23.15 29.5 23.1 29.15 23.1 29.1 23.2 29.55 M24.05 32.15 L24.25 32.35 23.8 32.8 Q23.25 32.8 23.25 32.35 L23.45 32.0 23.5 32.0 24.05 32.15 M22.75 33.35 L22.75 33.2 22.85 33.05 23.2 33.05 23.2 33.3 23.2 33.4 22.75 33.35" fill="#d9995b" fill-rule="evenodd" stroke="none"/>
      <path d="M16.0 29.3 L16.4 29.3 16.9 29.3 16.95 29.25 16.95 29.3 17.15 29.4 Q17.85 29.9 17.95 30.95 L18.0 30.95 18.0 31.4 17.4 32.2 17.25 32.3 16.65 32.4 Q14.9 32.4 14.9 30.85 14.9 30.1 15.05 29.9 15.25 29.6 15.95 29.35 L16.0 29.3 M15.8 31.8 L16.1 31.9 16.8 31.7 Q17.2 31.45 17.2 31.05 L17.0 30.5 Q16.7 30.1 16.3 30.1 L15.95 30.15 Q15.5 30.7 15.5 31.0 15.5 31.4 15.65 31.65 L15.7 31.75 15.8 31.8" fill="url(#gradient23)" fill-rule="evenodd" stroke="none"/>
      <path d="M22.75 24.9 L22.9 24.65 23.0 24.0 22.95 23.6 22.85 23.35 22.2 22.9 22.15 22.9 Q21.85 22.95 21.7 23.3 L21.6 23.7 Q21.7 24.75 22.15 25.0 L22.4 25.05 22.75 24.9 M21.55 21.95 L21.8 22.05 22.35 22.35 23.1 23.1 23.3 23.45 23.35 23.5 23.45 24.3 23.2 24.0 23.0 24.95 22.25 25.2 Q21.55 25.2 21.2 24.8 L21.2 24.75 20.95 24.2 20.85 23.45 Q20.85 21.9 21.7 22.15 L21.55 21.95 M17.35 21.7 L17.6 21.6 17.65 21.6 18.65 21.65 18.75 21.65 19.4 22.1 19.6 22.3 19.5 22.5 19.15 23.3 18.75 23.35 18.95 23.2 18.8 23.2 18.0 23.4 Q17.0 23.4 17.0 22.55 L17.0 22.15 17.2 21.95 17.35 21.7 M17.5 22.3 L17.4 22.35 17.7 22.6 17.75 22.6 18.0 22.7 18.65 22.8 Q19.2 22.8 19.05 22.45 L18.65 22.05 18.45 22.0 17.9 22.0 17.65 22.15 17.5 22.3 M20.25 27.2 L20.5 27.15 20.8 26.95 20.85 26.95 20.8 27.1 20.7 27.35 21.15 27.95 20.9 27.65 20.3 27.2 20.25 27.2" fill="url(#gradient24)" fill-rule="evenodd" stroke="none"/>
      <path d="M24.0 30.2 L24.45 30.75 Q24.75 31.35 24.65 32.3 24.5 33.25 24.2 33.6 L23.8 33.9 23.85 33.75 24.2 33.35 Q23.5 33.5 23.6 33.65 L23.15 33.7 22.2 33.55 Q21.85 33.4 21.9 32.55 21.95 31.65 22.9 31.35 23.8 31.0 24.0 30.2 M21.45 33.3 L21.25 33.9 21.25 33.75 Q21.25 32.25 19.6 32.25 L19.45 32.25 19.15 32.4 19.0 32.45 18.25 33.1 Q17.95 33.6 17.95 34.05 L17.95 34.25 17.7 34.1 Q16.95 33.6 16.8 32.95 L16.7 32.7 16.65 32.55 16.8 32.55 16.9 32.5 17.2 32.35 17.25 32.3 17.4 32.2 18.0 31.4 18.0 30.95 17.95 30.95 Q17.85 29.9 17.15 29.4 L17.2 29.4 17.55 29.15 17.7 29.8 17.75 29.85 18.15 30.35 18.3 30.5 18.95 30.9 19.7 31.1 20.75 30.9 21.0 30.75 21.05 30.75 21.0 30.8 20.9 31.5 Q20.9 32.3 21.4 33.25 L21.45 33.3 M14.3 28.9 L14.3 28.85 14.15 28.7 13.75 28.1 13.5 27.5 13.55 27.05 13.85 27.35 14.4 27.7 Q14.45 27.1 14.75 26.85 L14.9 26.8 15.0 26.7 15.2 26.55 15.45 26.5 15.5 26.5 15.65 26.5 15.35 26.65 Q15.0 26.9 15.0 27.6 L15.1 28.15 15.25 28.4 15.4 28.5 15.45 28.5 15.75 28.55 Q16.65 28.55 16.65 27.45 L16.5 26.9 16.3 26.7 16.25 26.65 Q16.75 26.95 16.75 27.7 L16.65 28.55 16.25 29.0 15.95 29.3 15.75 29.3 Q15.0 29.3 14.3 28.9 M23.2 33.4 L23.4 33.4 Q24.1 33.4 24.25 32.7 24.4 31.95 24.1 31.7 23.75 31.4 23.4 31.4 23.05 31.35 22.65 31.8 22.25 32.25 22.35 32.7 L22.55 33.25 22.75 33.35 23.2 33.4" fill="url(#gradient25)" fill-rule="evenodd" stroke="none"/>
      <path d="M20.95 24.2 L21.2 24.75 21.2 24.8 21.3 25.35 21.3 25.4 21.15 26.4 21.15 26.25 20.7 26.9 20.15 26.95 Q19.3 26.95 18.75 26.45 18.15 25.95 18.15 25.15 18.15 24.45 18.3 24.15 L19.0 23.45 19.1 23.4 19.2 23.3 19.65 23.3 Q20.3 23.4 20.75 23.95 L20.95 24.2 M24.9 28.35 L24.6 29.35 24.3 29.6 23.2 29.95 Q22.45 30.05 21.9 29.4 21.3 28.7 21.4 27.7 21.45 27.15 21.85 26.85 22.1 26.65 22.5 26.55 L22.75 26.5 Q23.45 26.4 23.95 26.9 L24.35 27.3 24.9 28.35 M14.3 24.9 L14.25 24.4 Q14.2 23.55 14.6 23.2 L15.15 22.8 15.2 22.75 15.7 22.65 15.85 22.65 15.95 22.65 16.1 22.7 16.15 22.7 16.6 23.2 16.65 23.9 16.55 24.35 15.95 24.9 14.8 25.25 14.3 24.9 M15.45 23.05 L15.4 23.05 15.25 23.1 14.9 23.5 14.9 23.55 14.85 24.05 14.85 24.1 14.85 24.25 15.05 24.45 15.45 24.6 16.1 24.1 16.3 23.9 16.35 23.85 16.35 23.75 16.3 23.5 16.2 23.3 16.0 23.05 15.75 23.0 15.45 23.05 M17.35 24.1 L17.35 24.15 17.8 23.7 17.95 23.6 17.4 24.15 17.2 24.45 17.35 24.1 M19.25 23.95 L19.0 24.25 18.9 24.45 18.85 24.85 Q18.85 25.4 19.25 25.85 19.65 26.25 20.15 26.25 20.95 26.25 20.95 25.0 20.95 24.4 20.4 24.0 L20.2 23.9 19.6 23.85 19.4 23.9 19.25 23.95 M17.9 27.8 L17.85 27.85 17.9 27.8 M20.75 30.9 L21.0 30.6 20.95 30.3 Q20.7 30.65 20.15 30.65 19.7 30.65 19.55 30.4 L20.2 30.55 20.4 30.55 20.5 30.55 20.85 30.35 21.15 29.35 21.15 29.15 21.05 28.8 Q20.85 28.4 20.35 28.35 L20.25 28.35 19.6 28.75 19.4 29.2 18.3 28.7 18.2 28.4 18.15 28.0 18.2 27.7 18.35 27.6 Q18.85 27.3 19.85 27.25 L20.25 27.2 20.3 27.2 20.9 27.65 21.05 27.95 21.5 28.95 21.6 29.45 21.6 29.95 21.55 30.1 21.1 30.7 21.05 30.75 21.0 30.75 20.75 30.9 M24.1 29.4 L24.15 29.35 24.55 28.6 Q24.55 27.9 24.05 27.9 L23.65 28.2 23.55 28.25 Q23.15 28.6 23.1 29.05 L23.1 29.1 23.1 29.15 23.15 29.5 23.2 29.55 23.4 29.65 24.1 29.4" fill="url(#gradient26)" fill-rule="evenodd" stroke="none"/>
      <path d="M22.15 22.9 L22.5 23.1 22.65 23.45 22.65 23.5 22.25 23.2 22.15 23.2 22.15 24.05 22.45 24.15 22.7 23.95 22.75 23.95 22.75 24.9 22.4 25.05 22.15 25.0 21.9 24.5 21.7 23.55 21.7 23.3 Q21.85 22.95 22.15 22.9 M20.5 24.3 L20.5 24.55 20.2 24.55 20.2 24.25 20.45 24.25 20.5 24.3 M16.3 23.5 L16.35 23.75 16.35 23.85 16.3 23.9 16.1 24.1 15.45 24.6 15.05 24.45 14.85 24.25 14.85 24.1 14.85 24.05 14.9 23.55 14.9 23.5 15.25 23.1 15.4 23.05 15.45 23.05 15.5 23.15 15.2 23.5 15.2 24.0 15.85 24.0 16.15 23.6 16.2 23.4 16.3 23.5 M17.5 22.3 L17.65 22.15 17.9 22.0 18.45 22.0 18.15 22.25 Q18.15 22.55 19.0 22.55 L19.0 22.7 18.0 22.7 17.75 22.6 17.7 22.6 17.5 22.3 M15.9 23.4 L15.95 23.45 15.9 23.7 15.5 23.7 15.5 23.45 15.6 23.4 15.9 23.4 M18.9 24.45 L19.0 24.25 19.25 23.95 19.7 23.9 19.75 23.9 19.75 24.0 19.4 24.45 18.9 24.45 M19.95 25.35 L20.05 25.2 20.45 24.8 20.65 25.55 20.3 26.2 19.7 26.15 19.7 25.75 19.95 25.35 M19.5 24.65 L19.5 24.6 19.6 24.45 19.85 24.45 19.85 25.0 19.75 25.2 19.4 24.9 19.5 24.65 M19.55 30.4 L19.5 30.35 19.3 29.85 19.4 29.2 19.6 28.75 20.25 28.35 20.35 28.35 Q20.85 28.4 21.05 28.8 L20.8 28.75 20.75 28.8 20.7 28.8 20.5 29.05 20.5 29.25 20.7 29.45 21.1 29.45 21.15 29.15 21.15 29.35 20.85 30.35 20.85 30.25 20.5 30.25 20.5 30.3 20.45 30.5 20.5 30.55 20.4 30.55 20.2 30.55 19.55 30.4 M15.9 26.9 L15.65 26.9 15.6 27.1 15.65 27.3 16.0 27.3 16.1 27.0 15.9 26.9 M16.25 26.65 L16.3 26.7 16.5 26.9 16.5 27.25 16.45 27.9 Q16.35 28.2 15.9 28.2 L15.75 28.2 15.65 28.5 15.45 28.5 15.4 28.5 15.25 28.4 15.1 28.15 15.0 27.6 Q15.0 26.9 15.35 26.65 L15.25 26.75 15.25 27.3 15.35 27.7 15.35 27.6 15.35 27.55 Q15.35 27.05 15.7 26.7 L16.0 26.55 16.05 26.55 16.1 26.6 16.25 26.65 M15.8 31.8 L15.7 31.75 15.7 31.45 15.75 31.3 16.15 31.3 16.25 31.55 16.2 31.8 15.8 31.8 M16.1 30.25 L16.4 30.25 16.5 30.2 16.75 30.6 Q16.75 31.15 16.35 31.15 15.75 31.15 15.75 30.65 L15.95 30.3 16.1 30.25 M19.65 29.95 L19.6 30.1 Q19.6 30.45 19.85 30.45 L20.1 30.15 19.95 29.9 19.8 29.9 19.65 29.95 M20.1 33.4 L19.7 33.45 19.7 33.95 20.2 33.95 20.4 33.45 20.2 33.4 20.1 33.4 M19.7 32.65 L20.1 32.65 Q20.65 32.65 20.65 33.3 L20.6 33.8 20.0 34.0 Q19.15 34.0 19.15 33.45 19.15 32.85 19.7 32.65 M24.1 29.4 L23.4 29.65 23.2 29.55 23.1 29.1 23.1 29.05 Q23.15 28.6 23.55 28.25 L23.65 28.2 23.9 28.15 23.6 28.5 23.6 28.85 23.65 29.2 24.15 29.2 24.1 29.4 M24.05 32.15 L23.5 32.0 23.45 32.0 23.25 32.35 Q23.25 32.8 23.8 32.8 L24.25 32.35 24.05 32.15 M22.75 33.35 L22.55 33.25 22.35 32.7 Q22.25 32.25 22.65 31.8 23.05 31.35 23.4 31.4 23.75 31.4 24.1 31.7 24.4 31.95 24.25 32.7 24.1 33.4 23.4 33.4 L23.2 33.4 23.2 33.3 23.2 33.05 22.85 33.05 22.75 33.2 22.75 33.35" fill="#bd6b1b" fill-rule="evenodd" stroke="none"/>
      <path d="M21.05 28.8 L21.15 29.15 21.1 29.45 20.7 29.45 20.5 29.25 20.5 29.05 20.7 28.8 20.75 28.8 20.8 28.75 21.05 28.8 M20.85 30.35 L20.5 30.55 20.45 30.5 20.5 30.3 20.5 30.25 20.85 30.25 20.85 30.35 M19.65 29.95 L19.8 29.9 19.95 29.9 20.1 30.15 19.85 30.45 Q19.6 30.45 19.6 30.1 L19.65 29.95" fill="#f5ad67" fill-rule="evenodd" stroke="none"/>
      <path d="M22.5 26.25 L23.2 26.3 Q24.0 26.45 24.5 27.15 L24.9 28.3 24.9 28.35 24.35 27.3 23.95 26.9 Q23.45 26.4 22.75 26.5 L22.5 26.55 Q22.1 26.65 21.85 26.85 21.45 27.15 21.4 27.7 21.3 28.7 21.9 29.4 22.45 30.05 23.2 29.95 L24.3 29.6 24.6 29.35 24.45 29.55 Q24.15 29.9 23.75 30.05 L22.7 30.25 22.05 30.0 21.65 29.6 21.6 29.95 21.6 29.45 21.5 28.95 21.05 27.95 20.9 27.65 21.15 27.95 20.7 27.35 20.8 27.1 20.85 26.95 21.15 26.65 21.55 26.5 22.5 26.25 M16.65 32.55 L16.0 32.6 Q15.05 32.6 14.35 32.1 13.6 31.5 13.6 30.65 L13.6 30.6 Q13.6 29.25 14.3 28.9 15.0 29.3 15.75 29.3 L15.95 29.3 16.0 29.3 15.95 29.35 Q15.25 29.6 15.05 29.9 14.9 30.1 14.9 30.85 14.9 32.4 16.65 32.4 L17.25 32.3 17.2 32.35 16.9 32.5 16.8 32.55 16.65 32.55 M14.65 25.55 L14.5 25.4 14.3 24.9 14.8 25.25 15.95 24.9 16.55 24.35 16.65 23.9 16.6 23.2 16.15 22.7 16.45 22.85 16.5 22.9 16.75 23.1 16.95 23.35 17.3 23.95 17.35 24.1 17.2 24.45 17.4 24.15 17.95 23.6 Q18.2 23.45 18.55 23.35 L18.75 23.35 19.15 23.3 19.2 23.3 19.1 23.4 19.0 23.45 18.3 24.15 Q18.15 24.45 18.15 25.15 18.15 25.95 18.75 26.45 19.3 26.95 20.15 26.95 L20.7 26.9 21.15 26.25 21.15 26.4 21.05 26.65 20.85 26.9 20.8 26.95 20.5 27.15 20.25 27.2 19.85 27.25 Q18.85 27.3 18.35 27.6 L18.2 27.7 18.15 28.0 18.2 28.4 18.3 28.7 19.4 29.2 19.3 29.85 19.5 30.35 19.55 30.4 Q19.7 30.65 20.15 30.65 20.7 30.65 20.95 30.3 L21.0 30.6 20.75 30.9 19.7 31.1 18.95 30.9 18.3 30.5 18.15 30.35 17.75 29.85 17.7 29.8 17.55 29.15 Q17.55 28.4 17.85 27.85 L17.9 27.8 18.05 27.55 17.95 27.5 17.1 26.7 16.8 26.05 16.7 26.05 16.5 26.1 15.05 25.65 14.65 25.55" fill="#d4a9a2" fill-rule="evenodd" stroke="none"/>
      <path d="M21.55 21.95 L21.7 22.15 Q20.85 21.9 20.85 23.45 L20.95 24.2 20.75 23.95 Q20.3 23.4 19.65 23.3 L19.2 23.3 19.15 23.3 19.5 22.5 19.6 22.3 19.65 22.3 19.75 22.15 20.55 21.95 21.55 21.95 M21.2 24.8 Q21.55 25.2 22.25 25.2 L23.0 24.95 23.2 24.0 23.45 24.3 23.45 24.45 Q23.45 25.2 22.75 26.0 L22.6 26.15 22.5 26.25 21.55 26.5 21.15 26.65 20.85 26.95 20.8 26.95 20.85 26.9 21.05 26.65 21.15 26.4 21.3 25.4 21.3 25.35 21.2 24.8 M23.75 30.05 L24.0 30.2 Q23.8 31.0 22.9 31.35 21.95 31.65 21.9 32.55 21.85 33.4 22.2 33.55 L23.15 33.7 23.6 33.65 Q23.5 33.5 24.2 33.35 L23.85 33.75 23.8 33.9 22.95 34.25 Q21.8 34.1 21.45 33.25 L21.45 33.3 21.4 33.25 Q20.9 32.3 20.9 31.5 L21.0 30.8 21.05 30.75 21.1 30.7 21.55 30.1 21.6 29.95 21.65 29.6 22.05 30.0 22.7 30.25 23.75 30.05 M21.25 33.9 Q20.85 34.75 19.8 34.75 L19.15 34.7 17.95 34.25 17.95 34.05 Q17.95 33.6 18.25 33.1 L19.0 32.45 19.15 32.4 19.45 32.25 19.6 32.25 Q21.25 32.25 21.25 33.75 L21.25 33.9 M13.55 27.05 Q13.6 26.65 13.8 26.35 L14.2 25.9 14.1 25.85 14.5 25.65 14.6 25.55 14.65 25.55 15.05 25.65 16.5 26.1 16.7 26.05 16.8 26.05 17.1 26.7 17.95 27.5 18.05 27.55 17.9 27.8 17.85 27.85 Q17.55 28.4 17.55 29.15 L17.2 29.4 17.15 29.4 16.95 29.3 16.95 29.25 16.9 29.3 16.4 29.3 16.0 29.3 15.95 29.3 16.25 29.0 16.65 28.55 16.75 27.7 Q16.75 26.95 16.25 26.65 L16.1 26.6 16.05 26.55 16.0 26.55 15.8 26.5 15.75 26.5 15.7 26.5 15.65 26.5 15.5 26.5 15.45 26.5 15.2 26.55 15.0 26.7 14.9 26.8 14.75 26.85 Q14.45 27.1 14.4 27.7 L13.85 27.35 13.55 27.05 M16.75 23.1 L16.7 23.0 16.7 22.6 16.95 22.05 17.35 21.7 17.2 21.95 17.0 22.15 17.0 22.55 Q17.0 23.4 18.0 23.4 L18.8 23.2 18.95 23.2 18.75 23.35 18.55 23.35 Q18.2 23.45 17.95 23.6 L17.8 23.7 17.35 24.15 17.35 24.1 17.3 23.95 16.95 23.35 16.75 23.1 M18.8 33.25 L18.75 33.35 18.7 33.55 18.7 33.6 18.7 33.9 18.7 33.95 19.5 34.3 Q20.15 34.45 20.5 34.05 20.8 33.65 20.75 33.1 20.7 32.5 20.25 32.5 L19.85 32.55 Q19.5 32.6 19.25 32.8 18.9 32.95 18.8 33.25" fill="#7b1212" fill-rule="evenodd" stroke="none"/>
    </g>
    <linearGradient gradientTransform="matrix(0.0035, 0.0, 0.0, 0.0074, 15.95, 20.8)" gradientUnits="userSpaceOnUse" id="gradient0" spreadMethod="pad" x1="-819.2" x2="819.2">
      <stop offset="0.023529411764705882" stop-color="#770000"/>
      <stop offset="1.0" stop-color="#b10000"/>
    </linearGradient>
    <linearGradient gradientTransform="matrix(0.0032, 0.0, 0.0, 0.0073, 3.7, 20.75)" gradientUnits="userSpaceOnUse" id="gradient1" spreadMethod="pad" x1="-819.2" x2="819.2">
      <stop offset="0.0" stop-color="#b10000"/>
      <stop offset="1.0" stop-color="#770000"/>
    </linearGradient>
    <linearGradient gradientTransform="matrix(0.0025, 0.0, 0.0, 0.0037, 1.05, 21.8)" gradientUnits="userSpaceOnUse" id="gradient2" spreadMethod="pad" x1="-819.2" x2="819.2">
      <stop offset="0.0" stop-color="#b10000"/>
      <stop offset="1.0" stop-color="#770000"/>
    </linearGradient>
    <linearGradient gradientTransform="matrix(0.0026, 0.0, 0.0, 0.0036, 18.85, 21.85)" gradientUnits="userSpaceOnUse" id="gradient3" spreadMethod="pad" x1="-819.2" x2="819.2">
      <stop offset="0.023529411764705882" stop-color="#770000"/>
      <stop offset="1.0" stop-color="#b10000"/>
    </linearGradient>
    <radialGradient cx="0" cy="0" gradientTransform="matrix(0.0076, 0.0, 0.0, 0.0076, 15.3, 13.05)" gradientUnits="userSpaceOnUse" id="gradient4" r="819.2" spreadMethod="reflect">
      <stop offset="0.0" stop-color="#dbdbdb"/>
      <stop offset="0.6078431372549019" stop-color="#ffffff"/>
    </radialGradient>
    <radialGradient cx="0" cy="0" gradientTransform="matrix(-0.0076, 0.0, 0.0, 0.0076, 4.85, 13.05)" gradientUnits="userSpaceOnUse" id="gradient5" r="819.2" spreadMethod="reflect">
      <stop offset="0.0" stop-color="#dbdbdb"/>
      <stop offset="0.6078431372549019" stop-color="#ffffff"/>
    </radialGradient>
    <linearGradient gradientTransform="matrix(0.0, 0.0019, -0.0018, 0.0, 10.05, 11.75)" gradientUnits="userSpaceOnUse" id="gradient6" spreadMethod="pad" x1="-819.2" x2="819.2">
      <stop offset="0.0" stop-color="#000000" stop-opacity="0.0"/>
      <stop offset="1.0" stop-color="#000000" stop-opacity="0.29803923"/>
    </linearGradient>
    <linearGradient gradientTransform="matrix(-1.0E-4, -0.004, 0.0018, 0.0, 12.95, 22.05)" gradientUnits="userSpaceOnUse" id="gradient7" spreadMethod="pad" x1="-819.2" x2="819.2">
      <stop offset="0.20392156862745098" stop-color="#e59895"/>
      <stop offset="1.0" stop-color="#f3d1d1"/>
    </linearGradient>
    <linearGradient gradientTransform="matrix(-1.0E-4, -0.004, 0.0018, 0.0, 12.95, 25.7)" gradientUnits="userSpaceOnUse" id="gradient8" spreadMethod="pad" x1="-819.2" x2="819.2">
      <stop offset="0.20392156862745098" stop-color="#e59895"/>
      <stop offset="1.0" stop-color="#f3d1d1"/>
    </linearGradient>
    <linearGradient gradientTransform="matrix(0.0085, 0.0, 0.0, 0.0059, 7.0, 24.1)" gradientUnits="userSpaceOnUse" id="gradient9" spreadMethod="pad" x1="-819.2" x2="819.2">
      <stop offset="0.0" stop-color="#174148"/>
      <stop offset="1.0" stop-color="#2d737e"/>
    </linearGradient>
    <linearGradient gradientTransform="matrix(0.0074, 0.0, 0.0, 0.006, 2.4, 25.8)" gradientUnits="userSpaceOnUse" id="gradient10" spreadMethod="pad" x1="-819.2" x2="819.2">
      <stop offset="0.0" stop-color="#174148"/>
      <stop offset="1.0" stop-color="#2d737e"/>
    </linearGradient>
    <linearGradient gradientTransform="matrix(0.009, 0.0, 0.0, 0.0041, 3.5, 30.55)" gradientUnits="userSpaceOnUse" id="gradient11" spreadMethod="pad" x1="-819.2" x2="819.2">
      <stop offset="0.0" stop-color="#174148"/>
      <stop offset="1.0" stop-color="#2d737e"/>
    </linearGradient>
    <linearGradient gradientTransform="matrix(0.0077, 0.0, 0.0, 0.0037, 22.65, 30.15)" gradientUnits="userSpaceOnUse" id="gradient12" spreadMethod="pad" x1="-819.2" x2="819.2">
      <stop offset="0.2" stop-color="#2d737e"/>
      <stop offset="0.9058823529411765" stop-color="#174148"/>
    </linearGradient>
    <linearGradient gradientTransform="matrix(0.0029, 0.0, 0.0, 0.0027, 24.85, 24.95)" gradientUnits="userSpaceOnUse" id="gradient13" spreadMethod="pad" x1="-819.2" x2="819.2">
      <stop offset="0.2" stop-color="#2d737e"/>
      <stop offset="0.9058823529411765" stop-color="#174148"/>
    </linearGradient>
    <linearGradient gradientTransform="matrix(0.0118, 0.0, 0.0, 0.0178, 17.7, 36.25)" gradientUnits="userSpaceOnUse" id="gradient14" spreadMethod="pad" x1="-819.2" x2="819.2">
      <stop offset="0.0" stop-color="#95172b"/>
      <stop offset="0.5098039215686274" stop-color="#3f0000"/>
    </linearGradient>
    <linearGradient gradientTransform="matrix(0.0118, 0.0, 0.0, 0.0178, 17.7, 36.25)" gradientUnits="userSpaceOnUse" id="gradient15" spreadMethod="pad" x1="-819.2" x2="819.2">
      <stop offset="0.0" stop-color="#de2845"/>
      <stop offset="0.5098039215686274" stop-color="#3f0000"/>
    </linearGradient>
    <linearGradient gradientTransform="matrix(0.0118, 0.0, 0.0, 0.0178, 17.7, 36.25)" gradientUnits="userSpaceOnUse" id="gradient16" spreadMethod="pad" x1="-819.2" x2="819.2">
      <stop offset="0.0" stop-color="#c62f47"/>
      <stop offset="0.7490196078431373" stop-color="#3f0000"/>
    </linearGradient>
    <linearGradient gradientTransform="matrix(0.0118, 0.0, 0.0, 0.0178, 17.7, 36.25)" gradientUnits="userSpaceOnUse" id="gradient17" spreadMethod="pad" x1="-819.2" x2="819.2">
      <stop offset="0.0" stop-color="#95172b"/>
      <stop offset="0.8784313725490196" stop-color="#3f0000"/>
    </linearGradient>
    <radialGradient cx="0" cy="0" gradientTransform="matrix(0.0058, 0.0, 0.0, 0.0058, 25.95, 22.3)" gradientUnits="userSpaceOnUse" id="gradient18" r="819.2" spreadMethod="pad">
      <stop offset="0.0" stop-color="#21c1e7"/>
      <stop offset="1.0" stop-color="#1f88a1"/>
    </radialGradient>
    <radialGradient cx="0" cy="0" gradientTransform="matrix(0.0067, 0.0, 0.0, 0.0067, 15.35, 32.3)" gradientUnits="userSpaceOnUse" id="gradient19" r="819.2" spreadMethod="pad">
      <stop offset="0.0" stop-color="#21c1e7"/>
      <stop offset="1.0" stop-color="#1f88a1"/>
    </radialGradient>
    <radialGradient cx="0" cy="0" gradientTransform="matrix(0.0064, 0.0065, -0.0045, 0.0045, 18.95, 27.2)" gradientUnits="userSpaceOnUse" id="gradient20" r="819.2" spreadMethod="pad">
      <stop offset="0.0" stop-color="#003746"/>
      <stop offset="1.0" stop-color="#12687e"/>
    </radialGradient>
    <linearGradient gradientTransform="matrix(0.002, -0.0034, 0.0056, 0.0033, 14.25, 36.95)" gradientUnits="userSpaceOnUse" id="gradient21" spreadMethod="pad" x1="-819.2" x2="819.2">
      <stop offset="0.0" stop-color="#720e0e"/>
      <stop offset="1.0" stop-color="#7b5712"/>
    </linearGradient>
    <linearGradient gradientTransform="matrix(1.0, 0.0, 0.0, 1.0, 28.5, 5.3)" gradientUnits="userSpaceOnUse" id="gradient22" spreadMethod="pad" x1="-819.2" x2="819.2">
      <stop offset="0.0" stop-color="#720e0e"/>
      <stop offset="1.0" stop-color="#7b5712"/>
    </linearGradient>
    <radialGradient cx="0" cy="0" gradientTransform="matrix(0.0037, 0.0, 0.0, 0.0037, 15.8, 30.75)" gradientUnits="userSpaceOnUse" id="gradient23" r="819.2" spreadMethod="pad">
      <stop offset="0.0" stop-color="#e7baba"/>
      <stop offset="1.0" stop-color="#ffe7e7"/>
    </radialGradient>
    <radialGradient cx="0" cy="0" gradientTransform="matrix(0.0054, 0.0, 0.0, 0.0054, 20.05, 24.75)" gradientUnits="userSpaceOnUse" id="gradient24" r="819.2" spreadMethod="pad">
      <stop offset="0.0" stop-color="#720e0e"/>
      <stop offset="1.0" stop-color="#e02d2d"/>
    </radialGradient>
    <radialGradient cx="0" cy="0" gradientTransform="matrix(0.0096, 0.0, 0.0, 0.0096, 19.1, 30.15)" gradientUnits="userSpaceOnUse" id="gradient25" r="819.2" spreadMethod="pad">
      <stop offset="0.0" stop-color="#720e0e"/>
      <stop offset="1.0" stop-color="#e02d2d"/>
    </radialGradient>
    <radialGradient cx="0" cy="0" gradientTransform="matrix(0.0054, -2.0E-4, 2.0E-4, 0.0054, 19.55, 26.9)" gradientUnits="userSpaceOnUse" id="gradient26" r="819.2" spreadMethod="pad">
      <stop offset="0.0" stop-color="#e7baba"/>
      <stop offset="1.0" stop-color="#ffe7e7"/>
    </radialGradient>
  </defs>
</svg>
