<?xml version="1.0" encoding="UTF-8" standalone="no"?>
<svg xmlns:ffdec="https://www.free-decompiler.com/flash" xmlns:xlink="http://www.w3.org/1999/xlink" ffdec:objectType="frame" height="10.65px" width="8.4px" xmlns="http://www.w3.org/2000/svg">
  <g transform="matrix(1.0, 0.0, 0.0, 1.0, -0.05, -2.65)">
    <use ffdec:characterId="5" height="10.65" transform="matrix(1.0, 0.0, 0.0, 1.0, 0.05, 2.65)" width="8.4" xlink:href="#shape0"/>
  </g>
  <defs>
    <g id="shape0" transform="matrix(1.0, 0.0, 0.0, 1.0, -0.05, -2.65)">
      <path d="M4.85 6.5 L8.45 11.65 Q7.7 14.25 6.05 12.7 2.25 5.7 0.1 2.95 0.05 2.7 1.35 2.95 2.25 3.15 4.85 6.5" fill="#333333" fill-rule="evenodd" stroke="none"/>
      <path d="M0.05 2.65 L0.3 2.65 1.35 2.95 2.7 3.2 4.1 2.8 4.5 4.3 Q4.5 4.7 5.0 5.05 5.5 5.4 5.6 6.4 5.7 7.4 4.85 7.95 L3.75 8.7 3.35 8.3 3.45 8.2 Q2.4 7.15 1.0 4.5 L0.05 2.9 0.05 2.65" fill="#ffffff" fill-rule="evenodd" stroke="none"/>
      <path d="M0.9 2.7 L0.95 2.75 2.2 3.5 3.0 3.95 4.65 4.7 4.85 4.9 4.1 4.8 3.4 4.65 3.95 5.15 5.1 6.45 5.6 7.25 5.15 7.85 4.7 8.05 4.55 8.15 3.9 8.75 3.7 8.8 3.4 7.95 2.6 5.95 2.0 4.75 1.25 3.3 0.9 2.7" fill="#000000" fill-opacity="0.2" fill-rule="evenodd" stroke="none"/>
    </g>
  </defs>
</svg>
