<svg xmlns="http://www.w3.org/2000/svg" xmlns:ffdec="https://www.free-decompiler.com/flash" xmlns:xlink="http://www.w3.org/1999/xlink" ffdec:objectType="frame" width="11" height="12.6"><use ffdec:characterId="5" xlink:href="#a" width="11" height="12.6"/><defs><g id="a" fill-rule="evenodd"><path fill="#ad861b" d="M1.2 0q1.6 0 3.75 1.5l.65.65.95 1L8.2 5.5l1.4 2.1.65.95.4.6.35.6-.5 1.1q-.8 1.15-2.35.8l-1.5-.55-.4-.2q-.75-.35-.9-.75Q4.3 9.45 0 .25L.15.2z"/><path fill="#7e5e05" d="m3.55 7.55-1.7-3.3-1.2-2.7L.15.3 1.7.45Q2.95.9 3.6 1.8l2.05 2.9 2.2 3.95L9.4 12q.05.6-.75.6-.85 0-1.65-.6l-1.1-.95-.5-.6q-1-1.25-1.85-2.9"/></g></defs></svg>