<?xml version="1.0" encoding="UTF-8" standalone="no"?>
<svg xmlns:ffdec="https://www.free-decompiler.com/flash" xmlns:xlink="http://www.w3.org/1999/xlink" ffdec:objectType="frame" height="10.9px" width="9.5px" xmlns="http://www.w3.org/2000/svg">
  <g transform="matrix(1.0, 0.0, 0.0, 1.0, -0.25, -2.75)">
    <use ffdec:characterId="3" height="10.9" transform="matrix(1.0, 0.0, 0.0, 1.0, 0.25, 2.75)" width="9.5" xlink:href="#shape0"/>
  </g>
  <defs>
    <g id="shape0" transform="matrix(1.0, 0.0, 0.0, 1.0, -0.25, -2.75)">
      <path d="M1.55 10.45 L1.4 9.6 1.25 8.95 0.55 6.15 Q-0.25 3.3 1.15 2.9 L1.25 2.9 Q0.9 2.9 3.05 6.65 L4.4 8.9 4.65 9.2 Q5.4 10.15 5.75 9.85 L5.85 9.65 5.95 9.7 6.15 9.5 6.1 9.45 6.25 9.2 6.45 9.3 6.75 9.35 6.9 9.15 6.95 9.15 7.0 8.95 7.3 8.75 7.45 8.85 7.6 8.95 7.4 8.9 7.3 9.15 7.55 9.25 7.45 9.3 7.5 9.35 7.45 9.45 7.35 9.4 7.2 9.3 7.15 9.3 6.95 9.6 6.85 9.45 6.75 9.4 6.7 9.5 6.7 9.8 6.7 9.85 6.5 9.55 6.35 9.45 6.25 9.65 6.4 10.0 6.05 10.0 Q5.95 10.05 6.0 10.2 L6.1 10.35 6.0 10.4 5.65 10.65 5.5 10.7 5.4 10.75 5.5 10.6 5.5 10.55 5.3 10.4 5.1 10.7 4.85 10.7 4.8 10.5 4.7 10.4 4.5 10.65 4.45 10.8 4.1 10.95 4.05 10.8 3.8 10.7 3.7 10.85 3.65 10.95 3.5 10.75 3.25 11.0 3.2 11.05 3.05 10.7 2.95 10.6 2.85 10.8 2.75 10.7 2.7 10.7 2.45 10.7 Q2.25 10.5 1.9 10.55 L1.85 10.45 1.65 10.35 1.55 10.45" fill="#430000" fill-rule="evenodd" stroke="none"/>
      <path d="M7.5 9.35 L7.45 9.3 7.55 9.25 7.5 9.35 M7.6 8.95 L7.45 8.85 7.3 8.75 7.0 8.95 6.95 9.15 6.9 9.15 6.75 9.35 6.45 9.3 6.25 9.2 6.1 9.45 6.15 9.5 5.95 9.7 5.85 9.65 5.75 9.85 Q5.4 10.15 4.65 9.2 L4.4 8.9 3.05 6.65 Q0.9 2.9 1.25 2.9 L2.5 2.95 Q2.95 3.15 3.45 3.85 L4.8 5.6 5.85 6.95 Q6.65 7.95 5.9 7.0 L6.45 7.6 6.5 7.65 6.85 8.0 7.6 8.85 7.6 8.95" fill="#aa0000" fill-rule="evenodd" stroke="none"/>
      <path d="M1.55 10.45 L1.65 10.35 1.85 10.45 1.9 10.55 Q2.25 10.5 2.45 10.7 L2.7 10.7 2.75 10.7 2.85 10.8 2.95 10.6 3.05 10.7 3.2 11.05 3.25 11.0 3.5 10.75 3.65 10.95 3.7 10.85 3.8 10.7 4.05 10.8 4.1 10.95 4.45 10.8 4.5 10.65 4.7 10.4 4.8 10.5 4.85 10.7 5.1 10.7 5.3 10.4 5.5 10.55 5.5 10.6 5.4 10.75 5.5 10.7 5.65 10.65 6.0 10.4 6.05 10.6 6.0 10.7 6.0 10.8 5.95 10.95 5.7 11.15 5.7 11.3 5.85 11.6 5.95 11.7 5.7 11.9 Q5.6 12.05 5.85 12.15 L6.1 12.25 6.05 12.35 6.05 12.4 6.1 12.45 5.95 12.55 5.9 12.65 6.05 12.9 6.5 12.95 6.55 12.95 6.25 13.05 6.35 13.25 6.1 13.3 5.9 13.05 5.85 13.1 5.85 13.25 5.8 13.3 5.65 13.3 5.7 13.4 5.4 13.5 5.15 13.35 5.2 13.55 5.15 13.65 5.0 13.65 4.9 13.4 Q4.45 13.55 4.3 13.65 L4.2 13.65 4.15 13.5 3.85 13.6 3.85 13.45 3.65 13.5 3.65 13.35 3.55 13.35 3.4 13.6 3.2 13.65 3.15 13.3 2.95 13.3 2.4 13.45 2.4 13.35 2.0 13.4 2.0 13.15 2.1 13.0 1.35 12.9 1.35 12.7 1.5 12.6 1.4 12.5 0.9 12.5 0.9 12.25 0.95 12.2 0.7 12.05 0.3 11.85 0.3 11.65 0.7 11.65 0.6 11.35 0.5 11.05 0.55 10.55 Q0.9 10.7 1.1 10.35 L1.55 10.45 M7.55 9.25 L7.3 9.15 7.4 8.9 7.6 8.95 7.6 8.85 7.6 8.6 7.75 8.4 8.0 8.5 8.35 8.15 8.5 8.35 8.55 8.4 8.75 8.1 9.1 8.5 9.35 8.55 Q9.7 8.75 9.55 9.1 L9.5 9.2 9.75 9.6 9.75 9.7 9.35 10.1 9.65 10.2 9.65 10.35 9.2 10.55 9.0 10.65 9.3 10.75 9.3 10.9 9.2 11.0 9.15 11.05 8.7 11.3 8.55 11.3 8.65 11.5 8.7 11.55 Q8.45 11.6 8.4 11.75 L8.1 11.85 8.1 12.05 7.8 12.3 7.6 12.25 7.45 12.35 7.5 12.55 7.1 12.6 7.1 12.8 6.8 12.95 6.65 12.95 6.6 12.95 6.8 12.85 6.85 12.8 6.75 12.55 7.0 12.5 7.05 12.2 7.55 12.2 7.55 12.0 7.95 11.85 8.0 11.8 8.1 11.8 8.35 11.6 8.55 11.1 9.2 11.0 9.15 10.9 8.85 10.75 8.95 10.55 9.2 10.55 9.2 10.3 9.05 10.0 9.3 9.8 9.2 9.6 8.95 9.55 9.0 9.5 9.15 9.5 9.35 9.35 9.4 9.25 9.15 9.15 8.9 9.2 8.8 9.25 Q8.95 9.05 8.75 8.9 L8.8 8.85 8.7 8.55 8.55 8.85 8.5 8.8 8.4 8.75 8.35 8.8 8.25 8.85 8.0 8.75 7.85 8.95 7.95 9.1 7.8 9.05 7.75 9.0 7.7 9.0 Q7.6 9.15 7.65 9.35 L7.5 9.35 7.55 9.25" fill="#b3b3b3" fill-rule="evenodd" stroke="none"/>
      <path d="M6.0 10.4 L6.1 10.35 6.0 10.2 Q5.95 10.05 6.05 10.0 L6.4 10.0 6.25 9.65 6.35 9.45 6.5 9.55 6.7 9.85 6.7 9.8 6.7 9.5 6.75 9.4 6.85 9.45 6.95 9.6 7.15 9.3 7.2 9.3 7.35 9.4 7.45 9.45 7.5 9.35 7.65 9.35 Q7.6 9.15 7.7 9.0 L7.75 9.0 7.8 9.05 7.95 9.1 7.85 8.95 8.0 8.75 8.25 8.85 8.35 8.8 8.4 8.75 8.5 8.8 8.55 8.85 8.7 8.55 8.8 8.85 8.75 8.9 Q8.95 9.05 8.8 9.25 L8.9 9.2 9.15 9.15 9.4 9.25 9.35 9.35 9.15 9.5 9.0 9.5 8.95 9.55 9.2 9.6 9.3 9.8 9.05 10.0 9.2 10.3 9.2 10.55 8.95 10.55 8.85 10.75 9.15 10.9 9.2 11.0 8.55 11.1 8.35 11.6 8.1 11.8 8.0 11.8 7.95 11.85 7.55 12.0 7.55 12.2 7.05 12.2 7.0 12.5 6.75 12.55 6.85 12.8 6.8 12.85 6.6 12.95 6.55 12.95 6.5 12.95 6.05 12.9 5.9 12.65 5.95 12.55 6.1 12.45 6.05 12.4 6.05 12.35 6.1 12.25 5.85 12.15 Q5.6 12.05 5.7 11.9 L5.95 11.7 5.85 11.6 5.7 11.3 5.7 11.15 5.95 10.95 6.0 10.8 6.0 10.7 6.05 10.6 6.0 10.4" fill="#ffffff" fill-rule="evenodd" stroke="none"/>
      <path d="M4.85 9.35 L4.45 8.9 6.45 7.6 6.5 7.65 6.85 8.0 6.3 8.5 6.1 8.65 5.35 9.15 4.85 9.35" fill="#ffffff" fill-rule="evenodd" stroke="none"/>
      <path d="M4.85 9.35 L4.75 9.4 4.5 9.45 3.95 9.65 1.4 9.6 1.25 8.95 3.7 9.1 4.25 8.95 4.4 8.9 4.45 8.9 4.85 9.35" fill="#b3b3b3" fill-rule="evenodd" stroke="none"/>
    </g>
  </defs>
</svg>
