<?xml version="1.0" encoding="UTF-8" standalone="no"?>
<svg xmlns:ffdec="https://www.free-decompiler.com/flash" xmlns:xlink="http://www.w3.org/1999/xlink" ffdec:objectType="frame" height="10.8px" width="9.85px" xmlns="http://www.w3.org/2000/svg">
  <g transform="matrix(1.0, 0.0, 0.0, 1.0, 0.15, -1.3)">
    <use ffdec:characterId="1" height="10.8" transform="matrix(1.0, 0.0, 0.0, 1.0, -0.15, 1.3)" width="9.85" xlink:href="#shape0"/>
  </g>
  <defs>
    <g id="shape0" transform="matrix(1.0, 0.0, 0.0, 1.0, 0.15, -1.3)">
      <path d="M7.4 7.9 L7.45 8.15 7.15 8.75 6.65 9.05 6.5 8.95 6.3 8.45 6.5 7.95 7.0 7.75 7.4 7.9" fill="#ffffff" fill-rule="evenodd" stroke="none"/>
      <path d="M7.4 7.9 L7.5 7.95 7.7 8.45 7.5 8.95 Q7.3 9.15 7.0 9.15 L6.65 9.05 7.15 8.75 7.45 8.15 7.4 7.9" fill="#adadad" fill-rule="evenodd" stroke="none"/>
      <path d="M9.25 8.65 L9.5 8.85 9.5 9.0 9.1 9.05 8.65 9.4 8.3 9.95 8.1 10.2 6.85 10.5 5.5 10.65 5.4 10.65 4.45 10.8 2.4 10.95 1.5 10.95 1.15 10.9 1.25 10.4 Q1.45 10.9 2.2 10.55 L3.15 10.6 3.95 10.55 6.7 10.15 Q8.05 10.3 8.4 9.0 8.55 8.7 9.1 8.65 L9.2 8.65 9.25 8.65" fill="#1c1c1c" fill-rule="evenodd" stroke="none"/>
      <path d="M4.45 3.65 L4.45 3.7 6.15 5.75 6.55 6.25 7.15 7.05 7.45 7.45 7.5 7.5 8.4 9.0 Q8.05 10.3 6.7 10.15 L3.95 10.55 3.15 10.6 Q2.85 10.0 2.85 9.05 L2.85 8.55 2.95 7.35 3.45 6.75 Q2.6 6.9 1.2 6.2 L0.75 4.7 0.75 4.4 0.7 4.2 0.7 4.1 0.5 4.3 0.45 4.4 0.15 4.95 Q-0.55 2.8 1.25 1.85 2.2 1.35 3.3 1.3 3.3 2.4 3.9 2.95 L3.7 3.3 3.05 4.15 3.7 3.95 4.45 3.65 M3.9 4.0 Q3.7 5.0 0.8 4.4 L3.1 5.5 Q3.8 5.1 3.9 4.25 L3.9 4.0 M6.65 9.05 L7.0 9.15 Q7.3 9.15 7.5 8.95 L7.7 8.45 7.5 7.95 7.4 7.9 7.0 7.75 6.5 7.95 6.3 8.45 6.5 8.95 6.65 9.05" fill="#3c3c3c" fill-rule="evenodd" stroke="none"/>
      <path d="M1.25 10.4 Q1.15 10.15 1.2 9.75 L1.2 9.45 1.25 9.4 0.65 6.9 Q0.05 6.25 -0.15 5.5 L0.05 5.1 0.15 4.95 0.45 4.4 0.5 4.3 0.7 4.1 0.7 4.2 0.75 4.4 0.75 4.7 1.2 6.2 Q2.6 6.9 3.45 6.75 L2.95 7.35 2.85 8.55 2.85 9.05 Q2.85 10.0 3.15 10.6 L2.2 10.55 Q1.45 10.9 1.25 10.4 M8.4 9.0 L7.5 7.5 7.6 7.55 7.85 7.75 8.2 7.95 9.15 8.6 9.2 8.65 9.1 8.65 Q8.55 8.7 8.4 9.0 M3.9 4.0 L3.9 4.25 Q3.8 5.1 3.1 5.5 L0.8 4.4 Q3.7 5.0 3.9 4.0" fill="#272727" fill-rule="evenodd" stroke="none"/>
      <path d="M3.9 2.95 L3.9 2.85 3.9 2.95 4.35 3.05 4.25 3.45 4.45 3.65 3.7 3.95 3.05 4.15 3.7 3.3 3.9 2.95" fill="#585858" fill-rule="evenodd" stroke="none"/>
      <path d="M6.55 6.25 Q7.4 6.2 9.6 8.65 L9.25 8.65 9.2 8.65 9.15 8.6 8.2 7.95 7.85 7.75 7.6 7.55 7.5 7.5 7.45 7.45 7.15 7.05 6.55 6.25" fill="#3a3a3a" fill-rule="evenodd" stroke="none"/>
      <path d="M9.5 9.0 L9.7 9.2 Q9.75 9.9 9.25 9.9 L8.7 9.45 8.65 9.4 9.1 9.05 9.5 9.0 M8.25 10.8 L8.1 10.95 Q7.75 11.25 6.8 11.45 L5.45 11.45 5.5 10.65 6.85 10.5 8.1 10.2 8.25 10.8 M4.55 11.25 L4.2 11.35 3.35 11.8 2.9 12.1 2.6 12.05 2.4 10.95 4.45 10.8 4.55 11.25 M2.15 11.75 L1.65 11.7 1.55 11.8 Q1.65 11.15 1.9 11.05 L2.15 11.75" fill="#87969f" fill-rule="evenodd" stroke="none"/>
      <path d="M9.25 9.9 L9.15 9.9 Q8.8 9.85 8.55 10.3 L8.25 10.8 8.1 10.2 8.3 9.95 8.65 9.4 8.7 9.45 9.25 9.9 M5.45 11.45 L5.2 11.35 4.55 11.25 4.45 10.8 5.4 10.65 5.5 10.65 5.45 11.45 M2.6 12.05 L2.4 11.9 2.15 11.75 1.9 11.05 Q1.65 11.15 1.55 11.8 L1.4 11.85 1.5 10.95 2.4 10.95 2.6 12.05" fill="#eefaff" fill-rule="evenodd" stroke="none"/>
    </g>
  </defs>
</svg>
