<svg xmlns="http://www.w3.org/2000/svg" xmlns:ffdec="https://www.free-decompiler.com/flash" xmlns:xlink="http://www.w3.org/1999/xlink" ffdec:objectType="frame" width="28" height="41.35"><use ffdec:characterId="6" xlink:href="#a" width="28" height="41.35"/><defs><g id="a" fill-rule="evenodd"><path fill="#fc3" d="m4.25 36.2.4.15q.3.25.3.65l-.3.55-.45.25h-.1l-.6-.25-.2-.55.2-.65.6-.2zM1.3 41.3h-.15l-.65-.25-.25-.65.25-.7q.3-.25.65-.25l.2.05q.3 0 .45.2.3.3.3.7t-.3.65q-.15.2-.5.25"/><path fill="#f60" d="m4.2 37.8-.3.05q-.35 0-.6-.3L3.05 37l.25-.7.6-.2.35.1-.15-.05-.6.2-.2.65.2.55.6.25zm-2.9 3.5-.35.05-.7-.3L0 40.4l.25-.75q.35-.25.7-.25l.4.1-.2-.05q-.35 0-.65.25l-.25.7.25.65.65.25z"/><path fill="#fff" d="m4.3 35.75-.35.3-.45-.15-.25-.4.15-.4.35-.25.45.1.25.4zm-.2 0 .05-.25-.15-.3-.35-.05-.25.15-.1.3.2.25.25.15z"/><path fill="#ccc" d="m4.1 35.75-.35.25-.25-.15-.2-.25.1-.3.25-.15.35.05.15.3z"/><path fill="#fff" d="m4.15 34.75-.35.3-.45-.15-.25-.4.15-.45q.1-.2.35-.2l.45.05.25.45zm-.3-.6-.35-.05-.25.15-.1.35.2.25.25.1.35-.2.05-.25z"/><path fill="#ccc" d="m3.85 34.15.15.35-.05.25-.35.2-.25-.1-.2-.25.1-.35.25-.15z"/><path fill="#fff" d="m3.05 33.75-.1-.25.15-.45.35-.2.45.05.25.45-.15.35-.35.3-.3-.05h.1l.35-.2.05-.25-.15-.35-.35-.05q-.15 0-.25.15l-.1.35z"/><path fill="#ccc" d="m3.35 33.95-.15-.1-.15-.1L3 33.6l.1-.35q.1-.15.25-.15l.35.05.15.35-.05.25-.35.2z"/><path fill="#fff" d="m3.75 31.8.25.45-.15.4-.35.3-.45-.15-.25-.4.15-.45.35-.2zm-.1.85.05-.25-.15-.35L3.2 32l-.25.15-.1.35.2.25.25.1z"/><path fill="#ccc" d="m3.65 32.65-.35.2-.25-.1-.2-.25.1-.35.25-.15.35.05.15.35z"/><path fill="#fff" d="M3.05 31.85h.1l.35-.2.05-.25-.15-.35-.35-.05-.25.15-.1.35.05.15-.1-.25.15-.45.35-.2.45.05.25.45-.15.35-.35.3z"/><path fill="#ccc" d="m2.75 31.65-.05-.15.1-.35.25-.15.35.05.15.35-.05.25-.35.2h-.1l-.15-.1z"/><path fill="#fff" d="m3.25 29.95-.35-.05-.25.15-.1.35.2.25.25.1.35-.2.05-.25zm.15-.25.3.45q0 .2-.15.4l-.4.3-.4-.15-.25-.4.1-.45.4-.2z"/><path fill="#ccc" d="m3.25 29.95.15.35-.05.25-.35.2-.25-.1-.2-.25.1-.35.25-.15z"/><path fill="#fff" d="M.5 38.85v-.2l.2-.5.55-.1.4.25q.15.25.15.5-.05.3-.25.45l-.55.1-.25-.1.15.05.35-.15.15-.25v-.4q-.15-.15-.4-.15l-.3.1-.2.35z"/><path fill="#ccc" d="m.75 39.25-.1-.15h-.1l-.05-.25v-.05l.2-.35.3-.1q.25 0 .4.15v.4l-.15.25-.35.15z"/><path fill="#fff" d="M.65 37.65v-.15l.2-.45.5-.15q.25.05.45.25l.15.55-.3.4-.45.15-.25-.1h.1l.35-.1.2-.3-.05-.4q-.2-.15-.4-.15l-.3.1-.2.3zm.2.4-.1-.1-.05-.1.05.05z"/><path fill="#ccc" d="m.95 38.15-.1-.1-.1-.15-.05-.05-.05-.15v-.1l.2-.3.3-.1q.2 0 .4.15l.05.4-.2.3-.35.1z"/><path fill="#fff" d="M1.5 35.75q.25 0 .45.3l.15.5-.3.4-.45.15-.45-.3-.1-.45.2-.45zm-.2.3-.3.05-.2.35.1.3.3.25.35-.1.2-.35-.05-.35q-.2-.15-.4-.15"/><path fill="#ccc" d="M1.3 36.05q.2 0 .4.15l.05.35-.2.35-.35.1-.3-.25-.1-.3.2-.35z"/><path fill="#fff" d="M1.2 35.8h.1l.4-.15.2-.25-.1-.4-.35-.1-.35.05-.15.35v.1-.25l.2-.45.5-.15.45.3.15.5-.3.35-.45.15z"/><path fill="#ccc" d="M.95 35.4v-.1l.15-.35.35-.05.35.1.1.4-.2.25-.4.15h-.1l-.1-.1v-.1z"/><path fill="#fff" d="m1.05 34.05.25-.45.5-.2q.25.05.45.35l.1.45-.25.45-.5.1q-.25 0-.4-.2zm0 .15.15.3.25.15.4-.05.15-.35-.1-.35q-.1-.15-.3-.15l-.35.05z"/><path fill="#ccc" d="m1.05 34.2.2-.4.35-.05q.2 0 .3.15l.1.35-.15.35-.4.05-.25-.15z"/><path fill="#fff" d="M1.25 32.95v-.1l.25-.5.45-.15.45.3q.15.2.15.45 0 .3-.3.45l-.5.1H1.7l.3-.2.15-.25v-.35l-.4-.2-.25.05zm.3.55-.2-.2-.05-.1.05.05z"/><path fill="#ccc" d="M1.7 33.5h-.15l-.2-.25-.05-.05-.05-.25.25-.4.25-.05.4.2v.35L2 33.3z"/><path fill="#fff" d="m1.5 32.1-.15-.4.2-.5.5-.15q.25.1.45.3l.15.45-.3.45-.45.1h-.05l.25-.2.2-.25-.05-.35-.4-.15-.3.1-.2.3z"/><path fill="#ccc" d="M1.85 32.35h-.1l-.25-.25-.15-.3.2-.3.3-.1.4.15.05.35-.2.25z"/><path fill="#fff" d="m1.45 30.75-.05-.3.25-.45.5-.1.4.25.15.5-.25.45-.45.15-.35-.2.15.05.4-.1.2-.25-.1-.4q-.15-.15-.35-.15l-.35.05-.15.4z"/><path fill="#ccc" d="M1.45 30.75v-.1l.15-.4.35-.05q.2 0 .35.15l.1.4-.2.25-.4.1-.15-.05-.1-.1z"/><path fill="#fff" d="M1.55 29.5v-.15l.25-.5.5-.05.4.2.15.5-.25.45-.5.15-.25-.1h.1l.4-.15q.15-.05.15-.25.05-.15-.05-.4-.15-.15-.35-.15l-.35.05-.2.35z"/><path fill="#ccc" d="m1.85 30-.15-.15v-.1h-.05l-.05-.2-.05-.05v-.05l.2-.35.35-.05q.2 0 .35.15.1.25.05.4 0 .2-.15.25l-.4.15z"/><path fill="#346495" d="m24.4 18.1.85 2.35 1.6 4.7 1.1 2.8q-.5 1.3-1.7 2.65l-2.5 2.2q-.9.55-2.5-1.85-1.8-2.65-2.1-4.75l-.7-3.7h.05q-.35-1.7-.35-2.8-.05-1 .05-1.45l-.05-1.45-.35-8.3 1.5-2.3h.85l.7-.2 1.7 1.5-1.15 2.35zM19.85 2.25l-.05-.05Q18 1.1 17.1.85l-.5-.8 1.5.25 2.55.05zM12.1 0l-.55.85q-1.2.25-3.05 1.5L7.9.3h2.4zM6 7.3l2.1-1.85.8.5.95.15q1 2.2 1.15 2.25l-.6 8.3-.2 2.95L10 23v.35l-.25 2.2v.85q-.15 2.25-1.95 4.85-1.65 2.4-2.5 2.05l.05-.05H5.3q-1.6-.85-3-2.45-1.25-1.55-1.75-3.3l.85-2.2.35-.75v-.15l.75-2 .4-1.2.2-.3.15-.5.9-2.3 2.95-7.9z"/><path fill="#fc3" d="m8.8 2.15 1-.55q1.3-.7 1.75-.8l1.6.25.5-.2 1.7.2L17.1.8l2.85 1.35 1.65.65-.15 1.4-.6 1.75q-.2.25-.7.3l-.85.15-1.45 2.05-.55.3h-.8l-.45-1.1q1.45-.5 2.5-1.85 1.4-.25 1.95-1.75l.3-1.5-.7-.3-.2-.1q.05 1.7-1.9 3.2-.7.95-2.3 1.4l-.8-1.9h-1.1l-.55 1.95q-1.8-.45-2.55-1.45-1.95-1.5-1.9-3.2m2.15 6.15-1.3-1.95-.95-.25-.8-.6q-.2-.3-.45-1.55l-.2-1.2.65-.2.3 1.5q.55 1.5 1.95 1.75 1.15 1.5 2.8 1.9l-.3 1zm4.3 2.65q0 .5-.35.8-.3.35-.8.35t-.85-.35q-.3-.3-.3-.8 0-.45.3-.85.4-.3.85-.3.5 0 .8.3.35.35.35.85m-2.3 5q0-.45.3-.85.4-.3.85-.3.5 0 .8.3.35.35.35.85t-.35.8q-.3.35-.8.35t-.85-.35q-.3-.3-.3-.8"/><path fill="#a30f0f" d="m17.85 8.45.25 6.25.1 2.05.05 1.45v.85h-.05v.05l-.1.2-.05.3-.65.7h-.05l-1 1-.05.1-.15.1L14 19.35l-1.9 2.2-1.9-2 .3-4.8.45-6.45 1.7.4.3-1q-1.65-.4-2.8-1.9-1.4-.25-1.95-1.75l-.3-1.5.7-.3.2-.1q-.05 1.7 1.9 3.2.75 1 2.55 1.45l.55-1.95h1.1l.8 1.9q1.6-.45 2.3-1.4 1.95-1.5 1.9-3.2l.2.1.7.3-.3 1.5q-.55 1.5-1.95 1.75-1.05 1.35-2.5 1.85l.45 1.1h.8zm-4.9 7.5q0 .5.3.8.35.35.85.35t.8-.35q.35-.3.35-.8t-.35-.85q-.3-.3-.8-.3-.45 0-.85.3-.3.4-.3.85m2.3-5q0-.5-.35-.85-.3-.3-.8-.3-.45 0-.85.3-.3.4-.3.85 0 .5.3.8.35.35.85.35t.8-.35q.35-.3.35-.8"/><path fill="#096" d="m18.25 18.2.1 1.2q.05 2.55.25 3.5l-.05.1.6 3.15q-2.1.95-4.9 1-2.3.05-4.5-.8v-.25l-.05-.25.25-3v-.2l.05-.1.2-3 1.9 2 1.9-2.2 2.15 2.15.15-.1.05-.1 1-1h.05l.65-.7.05-.3.1-.2v-.05h.05z"/><path fill-opacity=".4" d="m20.7.25-.75 2.05-.55-.35.45-1.6zM9.1 1.95l-.55.35L7.8.25l.85.1z"/><path fill="#cb4d4e" d="m22.55 7.4-.05.1-.2.6-.1.3q-1.05 3.25-3.3 5.7V16l.05.3.05 2.8.45 3.2.55 3.05.55 2.15.95 2.3q.7 1.5 1.5 2.15 1.35-.4 3.45-3.05l1.1-2.1.45 1.45q-.3 1.2-2.2 3.1-.95.95-1.85 1.55l-1 .45q-2.7-1.8-3.85-6.15-.7-1.95-1.1-7.6l.25-1.05-.2-4.25-.15-.35 2.2-3.75.9-2.05.75-1.4.45.4zM7.5 8.35Q8 9.8 8.65 10.7l1.45 1.95.55.65v.65h-.05v.1q0 4.85-.35 8.1l-.4 3.55h.05l-.05.5v.05l-.4 2.2q-1.05 3.15-3.85 5l-1-.55-1.85-1.6Q.8 29.3.6 27.45l.5-1.3.95 2.3.7 1.15 1.2 1.15 1.25.8.25.2.4-.35.9-.85 1.65-3.8.4-2.2.2-2.2.3-4.15.1-2.3.1-2.1-.75-.95q-1.9-2.5-2.75-5.6l.45-.35.45-.4zm13.8 17.1 3.45-2.05.6.95-3.55 2.05zm-13.9 0-.5.95-3.55-2.05.6-.95z"/><path fill="#a30f0f" fill-opacity=".498" d="M16.05 1.65q1.05 0 1.05.75l-.15.35-.45.2q-.5 0-.75-.4l-.2-.5q0-.4.5-.4m-.2 3.6.4-.1.7.3.2.35-.15.4-.45.25q-.75 0-.75-.9zM19 3.85l-.3.5-.6.2q-.35 0-.55-.3l-.15-.3q0-.55.75-.55.85 0 .85.45M18.3 6q0-.85.95-.85.4 0 .65.45l.15.55q-.45.65-1.15.65-.6 0-.6-.8m-5.5-4.65.15.25-.2.5-.6.25q-.8 0-.8-.6 0-.65.85-.65.4 0 .6.25M9.5 2.7h.5q.9 0 .9.85 0 .5-.5.5l-.3-.2-.15-.25-.65-.2-.05-.25.1-.3zm3.5.95.1.45-.2.4-.55.25q-.6 0-.6-.5l.3-.55.55-.4zM11.7 6.3l-.15.5-.2.5-.45.45q-.55 0-.7-.45l-.05-.6q0-.9 1-.9.55 0 .55.5"/><path fill-opacity=".2" d="m24.6 23.1.15.25.2.3q-.55.55-3.55 2.15.1-.5-.3-.4l1.75-1.3zM19.55 3.85l-.8.25q-.45 0-.85-.45l-.3-.5q0-.45.65-.45l1.2.2.55.5zM15.5 3.5v.75l3.95 2.1 1.35-.15.45.25.3.35-1.75 1.1q-.8 2.05-2.05 2.05-1.3 0-1.8-.45l-.75-.45q-.7 0-1.15.55t-1.9.55L11 9.95q-1.25-.7-1.9-1.45L8 7.55q-.5-.3-.5-1.35l.25-.45.25-.2q1.6.6 1.95.45.25-.3 3.1-1.75.05-1.3.35-2.45l.15 1 .3 1.4.95.1.45-2.45zm-5.1.35-.45.55-1.15.35q-.35 0-.35-.45l.1-.55 1.3-.25q.55 0 .55.35M7.75 11.3l.75 1.35 2.1 2.3q-.1.45-.05 1.3l.05.2.1.25-.1.55v.7l-.4-.45-1.7-1.55L7 14.5l-4.35 7.95 4.4-12.1q.05-.2.7.95m-3.5 11.75 1.15.55q1.5 1 1.8 1l.2-.1.05.1q0 .4-.45.4l-1.05-.35-.85-.5-.85-.3-.35-.25.3-.45zm9.8-3.7 1.9 1.95 1.6-1.4.45-.65.15-.15.05-.15-.05-.2.05-.75-.05-1.1q-.05-.5-.35-.45-.2.05-.25.45-.3-.35.95-2.05l2.05-2.8q.65-1.45.95-1.75l.9 2.15.05.05v.05l.6 1.75v.05l2.55 7.45-3.8-7.1h-.05l-.2-.25q-.35 0-1.25 1.6l-.5.9v-.1l-.5.9v.15l-.05.1-.05.3q-.3.55-.3.8l-.55 1.2-1 1.3-.7.75-.45.3-.85-.5-.6-.5-.65-.45-1.35 1-.9.55-1.5-1.55.1-1.35v-.05l.75.85.85.75.85-.85z"/><path fill-opacity=".2" d="m18.7 7.55.25-.4q.55 0 .85.45l.2.5-.1.45.35.65-.15.55.15.65-.25.65.25.7-.25.8.1.4-.2.45-.2.6-.2.75-.15.35-.2.65-.4.4.15.35-.75.9-.2.35-.35.5.05.25q0 .95-.8 1v.35l-.4.35-.5.45-.25.3-.4.35-.65.6-.1.35-.3.35-.75.15v.05l-.1.3-.45.25-.3.05h-.05v.2l-.3.45-.7.25-.05-.05-.25.35-.75.05-.25.35-1 .1-.2.4-.75.15-.55-.2q-.25.4-1 .3l-.45-.3q-.3.35-.8.25l-.45-.2-.15-.2-.35.1-.3.05-.55-.3-.25.1-.4.05-.5-.2-.15-.25-.15.05-.3.05q-.35-.1-.3-.5.05-.2.25-.15.15 0 .2.1l.15-.25.35-.1.25.35.3.35q.2.05.25-.25 0-.35.35-.3l.25.35.3.4.2-.3.4-.25.3.4.4.4.4-.3q.1-.25.4-.2l.25.25.3.25.4-.15-.15-.25q.05-.2.35-.15l.3.15.2.2.55-.35q-.05-.5.4-.45l.2.15q.45.1.6-.25.05-.4.3-.35l.25.2.35.15.3-.15-.05-.25-.1-.15q.1-.3.45-.25l.15.15.05.2.4-.3-.05-.3-.1-.2q.05-.25.3-.2l.4.25q.4.05.45-.2l-.25-.5q.05-.2.45-.15l.2.1.2.05q.45.05.5-.25l-.2-.15-.15-.35q.05-.25.35-.2l.25.15.45-.2-.25-.4q0-.2.25-.15l.3.1q.35.05.4-.2l-.2-.6q.05-.25.3-.2l.25.15.3-.05.2-.1-.2-.3-.3.05q-.2-.05-.15-.3.05-.3.5-.2l.15.05.55-.45-.25-.55q0-.25.4-.4l.35-.3-.2-.4q0-.5.9-.4-.3-.25-.3-.65 0-.35.4-.45l.4-.3-.3-.5q0-.3.65-.5l-.25-.55.65-.55-.4-.3-.1-.3.05-.25.6-.15.05-.3-.3-.35q-.3-.25-.3-.45l.6-.5-.45-.3-.1-.3.2-.2.3-.3-.4-.35-.2-.25q0-.25.2-.35l.15-.2-.25-.25-.25.1q-.2 0-.3-.15z"/><path fill="#fff" d="M16.4 19h-.1l-.3-.4v-.4l.35-.4h.5l.3.3-.05.55-.3.3-.2.05.15-.1.25-.15v-.4l-.2-.2-.35-.05-.25.35v.25q.05.25.2.3"/><path fill="#ccc" d="M16.4 19q-.15-.05-.2-.3v-.25l.25-.35.35.05.2.2v.4l-.25.15-.15.1h-.2"/><path fill="#fff" d="M17.25 17.95H17l-.3-.45.05-.35.35-.4.45.05.3.3v.5l-.15.15v-.05l.05-.35-.2-.2-.4-.05-.25.3v.2l.25.35z"/><path fill="#ccc" d="M17.25 17.95h-.1l-.25-.35v-.2l.25-.3.4.05.2.2-.05.35v.05l-.25.1z"/><path fill="#fff" d="m18.15 16.7.05-.1v-.4l-.15-.2-.4-.05-.25.3v.3l.25.3h.2l-.35.05-.3-.45q-.05-.2.05-.4l.3-.45.5.1.25.25q.2.3.05.55z"/><path fill="#ccc" d="M17.85 16.85h-.2l-.25-.3v-.3l.25-.3.4.05.15.2v.4l-.05.1h-.05v.05h-.15z"/><path fill="#fff" d="M18.7 15.55v-.1l.05-.4-.3-.2-.3-.05-.3.3v.35l.25.25.1.05-.2-.05-.35-.35.05-.5.35-.35.45.05q.2.05.35.25v.55z"/><path fill="#ccc" d="m18.2 15.75-.1-.05-.25-.25v-.35l.3-.3.3.05.3.2-.05.4v.1l-.3.1-.05.05z"/><path fill="#fff" d="m18.75 14.55.05-.05.3-.2.05-.35-.25-.2h-.4l-.25.2-.05.35.2.25-.3-.35q-.15-.25 0-.5l.4-.25.4-.05.4.35-.1.5-.35.25z"/><path fill="#ccc" d="m18.4 14.55-.2-.25.05-.35.25-.2h.4l.25.2-.05.35-.3.2-.05.05-.25.05z"/><path fill="#fff" d="m19.45 13.2.05-.1.05-.35-.3-.25-.3-.05-.25.3-.05.3.25.35-.15-.05-.3-.3q-.05-.3.05-.5l.3-.35.5-.05.25.4q.2.25.05.45z"/><path fill="#ccc" d="m18.9 13.4-.25-.35.05-.3.25-.3.3.05.3.25-.05.35-.05.1-.25.15h-.15z"/><path fill="#fff" d="M18.65 11.35q.05-.25.35-.35l.45-.05.3.35v.55l-.35.25h-.5l-.25-.35zm.8-.05-.45-.05-.15.3-.1.3.25.25h.35l.25-.25v-.35z"/><path fill="#ccc" d="m19.45 11.3.15.2v.35l-.25.25H19l-.25-.25.1-.3.15-.3z"/><path fill="#fff" d="M19.7 10.65v-.45l-.2-.2h-.35l-.25.3v.25l.25.35h.2H19l-.3-.45v-.4l.35-.4.5.1.25.25v.5z"/><path fill="#ccc" d="M19.35 10.9h-.2l-.25-.35v-.25l.25-.3h.35l.2.2v.45l-.25.15z"/><path fill="#fff" d="M18.8 9.15q-.1.1-.05.25l.2.25.35-.1.3-.05-.05-.45-.15-.2-.4-.05zm-.15-.25.3-.4.45.05.3.25.05.55-.4.25-.5.1q-.2-.1-.25-.4z"/><path fill="#ccc" d="m18.8 9.15.2-.35.4.05.15.2.05.45-.3.05-.35.1-.2-.25q-.05-.15.05-.25"/><path fill="#fff" d="m19.2 7.45.3.25.05.55-.4.25-.5.1-.25-.4q-.1-.15.05-.4l.3-.4zm0 .3-.4-.05-.2.35q-.1.1-.05.25l.2.25.35-.1.3-.05-.05-.45z"/><path fill="#ccc" d="m19.2 7.75.15.2.05.45-.3.05-.35.1-.2-.25q-.05-.15.05-.25l.2-.35zM1.45 23.9v-.05l.25-.25.35-.05.3.15q.1.2.05.35l-.15.2-.4.1-.25-.2-.1-.1z"/><path fill="#fff" d="m1.5 24.05.1.1.25.2.4-.1.15-.2q.05-.15-.05-.35l-.3-.15-.35.05-.25.25v.05-.15l.3-.35.5-.1.4.25.1.45-.25.35-.5.1-.4-.25zM2.7 24.35v-.25l.25-.4.5-.05q.25.05.4.25l.15.45-.3.35-.5.1-.3-.15.2.05.35-.05.15-.25q.05-.2-.05-.35t-.3-.2l-.35.05-.2.35z"/><path fill="#ccc" d="M2.7 24.35v-.1l.2-.35.35-.05q.2.05.3.2t.05.35l-.15.25-.35.05-.2-.05-.1-.15z"/><path fill="#fff" d="m4.6 23.95.4.2.15.5-.3.3-.5.15q-.25-.05-.4-.3l-.1-.4.25-.4zm-.65.85.3.2.35-.1.15-.2-.05-.4-.3-.15-.35.05-.2.3z"/><path fill="#ccc" d="m3.95 24.8-.1-.3.2-.3.35-.05.3.15.05.4-.15.2-.35.1z"/><path fill="#fff" d="m5.4 25.15.2.05.35-.05.15-.3-.05-.3-.3-.2-.35.05-.2.2.25-.4.5-.05.4.25.15.45-.3.35-.5.1z"/><path fill="#ccc" d="m5.2 24.6.2-.2.35-.05.3.2.05.3-.15.3-.35.05-.2-.05-.1-.15-.1-.35z"/><path fill="#fff" d="m7.4 24.9-.05-.35-.4-.2-.3.05-.2.35.1.25.25.2.45-.05zm.3-.05-.2.4-.55.05-.4-.25-.15-.4.3-.4.45-.1.5.3z"/><path fill="#ccc" d="m7.4 24.9-.15.25-.45.05-.25-.2-.1-.25.2-.35.3-.05.4.2z"/><path fill="#fff" d="m7.7 24.65-.05-.35.3-.35.5-.05.45.2.05.45-.2.35-.55.15-.25-.1h.1l.45-.05.15-.3-.05-.3q-.1-.15-.35-.2l-.35.05-.2.3z"/><path fill="#ccc" d="m7.95 24.95-.15-.2-.1-.1v-.2l.2-.3.35-.05q.25.05.35.2l.05.3-.15.3-.45.05z"/><path fill="#fff" d="M9.4 23.8h-.25l-.25.3.15.3.2.2.45-.1.15-.2-.05-.4zm.7 0 .05.45-.2.35-.55.1-.35-.25q-.25-.25-.2-.45.05-.25.35-.35l.4-.1z"/><path fill="#ccc" d="m9.4 23.8.4.1.05.4-.15.2-.45.1-.2-.2-.15-.3.25-.3z"/><path fill="#fff" d="m10.25 24.15.2.1.35-.1.15-.25v-.35l-.35-.15-.3.05-.3.3.05.2q-.1-.15-.05-.3l.3-.4.45-.1q.3.05.45.25l.15.5-.3.3-.5.1z"/><path fill="#ccc" d="m10.05 23.95-.05-.2.3-.3.3-.05.35.15v.35l-.15.25-.35.1-.2-.1-.1-.1z"/><path fill="#fff" d="m11.2 23.3-.15-.45.3-.35.45-.05.45.2.1.45-.25.35-.5.15zm.15-.6q-.25.1-.3.25l.15.3.25.25.4-.15.15-.2v-.35l-.4-.15z"/><path fill="#ccc" d="m11.35 22.7.25-.05.4.15v.35l-.15.2-.4.15-.25-.25-.15-.3q.05-.15.3-.25"/><path fill="#fff" d="m12 22.55-.05-.25q.05-.25.35-.4l.4-.05.5.2.1.5-.25.3-.55.15-.25-.15.15.05.4-.05.15-.25-.05-.35-.35-.2-.3.05-.25.35z"/><path fill="#ccc" d="m12.25 22.85-.1-.15-.15-.15v-.1l.25-.35.3-.05.35.2.05.35-.15.25-.4.05z"/><path fill="#fff" d="m12.85 21.9-.05-.3.3-.35.5-.1q.25.05.45.25l.05.45-.2.3-.55.15-.25-.1h.1l.4-.05.2-.25-.1-.35-.3-.2-.35.05-.2.35z"/><path fill="#ccc" d="m13.1 22.2-.15-.2-.1-.1v-.15l.2-.35.35-.05.3.2.1.35-.2.25-.4.05zM13.65 21.15V21l.2-.25.35-.05.3.15.05.3-.15.3-.4.1-.25-.2z"/><path fill="#fff" d="m14 21.55.4-.1.15-.3-.05-.3-.3-.15-.35.05-.2.25v.15l-.05-.25.3-.35.5-.1q.25.05.4.25l.1.45-.25.35-.5.1z"/><path fill="#fff" d="m15.35 20.05-.4-.15-.25.05-.3.3.15.3.25.2.4-.1.15-.2zm-.65-.25q.2-.15.45-.15l.45.3.1.45-.25.35-.55.05q-.25 0-.35-.2l-.15-.45z"/><path fill="#ccc" d="M15.35 20.05v.4l-.15.2-.4.1-.25-.2-.15-.3.3-.3.25-.05z"/><path fill="#fff" d="M15.75 19.05h-.3l-.25.3.15.3.25.2.4-.1.15-.2-.05-.4zm.2-.25.45.25.1.45-.25.35-.5.1-.4-.25q-.25-.25-.2-.45.05-.25.35-.35z"/><path fill="#ccc" d="m15.75 19.05.35.1.05.4-.15.2-.4.1-.25-.2-.15-.3.25-.3z"/></g></defs></svg>