<?xml version="1.0" encoding="UTF-8" standalone="no"?>
<svg xmlns:ffdec="https://www.free-decompiler.com/flash" xmlns:xlink="http://www.w3.org/1999/xlink" ffdec:objectType="frame" height="34.05px" width="45.2px" xmlns="http://www.w3.org/2000/svg">
  <g transform="matrix(1.0, 0.0, 0.0, 1.0, 12.65, -5.65)">
    <use ffdec:characterId="5" height="34.05" transform="matrix(1.0, 0.0, 0.0, 1.0, -12.65, 5.65)" width="45.2" xlink:href="#shape0"/>
  </g>
  <defs>
    <g id="shape0" transform="matrix(1.0, 0.0, 0.0, 1.0, 12.65, -5.65)">
      <path d="M15.45 29.55 L15.5 29.55 15.5 29.6 15.6 29.95 14.8 29.95 14.25 29.75 13.75 29.4 Q13.4 30.3 12.6 30.1 L11.8 29.65 Q11.3 30.9 9.85 29.75 9.15 30.5 8.35 30.15 L7.65 29.6 Q6.85 30.35 6.3 29.9 L5.9 29.3 5.15 29.85 4.35 29.85 4.4 29.65 4.4 29.55 5.3 29.4 6.25 28.45 6.15 28.8 Q6.05 29.15 6.35 29.4 L7.2 29.55 8.1 28.8 8.1 29.25 Q8.2 29.85 8.8 29.85 9.75 29.7 9.75 28.8 L9.9 28.8 Q9.9 29.65 10.85 29.8 11.55 29.85 11.6 29.25 L11.7 28.8 Q11.9 29.35 12.5 29.6 L13.35 29.45 Q13.65 29.15 13.5 28.55 13.9 29.15 14.6 29.4 L15.45 29.55" fill="#cbcbcb" fill-rule="evenodd" stroke="none"/>
      <path d="M4.5 29.55 L4.4 29.55 4.8 28.1 8.15 28.75 9.75 28.8 9.75 28.9 Q9.7 29.7 8.8 29.85 8.2 29.85 8.1 29.25 L8.1 28.85 7.2 29.55 6.35 29.4 Q6.05 29.15 6.15 28.8 L6.25 28.5 Q5.85 29.15 5.3 29.4 L4.5 29.55 M9.9 28.9 L9.9 28.8 13.5 28.55 14.15 28.45 14.45 28.4 15.2 28.2 15.25 28.3 15.45 29.55 14.6 29.4 13.55 28.65 Q13.65 29.15 13.35 29.45 L12.5 29.6 Q11.9 29.35 11.7 28.8 L11.6 29.25 Q11.55 29.85 10.85 29.8 9.95 29.65 9.9 28.9" fill="#ffffff" fill-rule="evenodd" stroke="none"/>
      <path d="M4.5 29.55 L4.45 29.6 4.45 29.7 Q3.9 32.45 4.0 34.3 L4.15 35.5 4.1 35.5 5.1 38.75 5.15 38.95 5.2 39.1 4.15 39.45 2.45 39.55 2.45 39.15 2.2 37.6 1.35 37.55 0.7 39.2 0.75 39.35 -0.4 38.95 -1.2 38.45 Q-1.4 38.25 -1.25 37.85 L-1.15 37.7 -1.05 37.55 -0.9 37.15 -0.8 36.8 Q-0.55 36.0 -1.1 35.5 L-2.25 36.25 Q-3.3 36.05 -3.6 35.3 L-3.7 34.6 -3.7 34.55 -3.05 33.8 -2.9 33.35 -3.05 32.85 -3.7 32.3 -5.2 33.55 Q-5.35 34.1 -6.2 33.35 L-6.6 32.9 -6.7 32.7 -6.55 32.2 Q-6.3 31.75 -6.55 31.3 L-6.7 31.2 -8.6 31.95 Q-9.0 32.1 -9.6 31.45 L-10.1 30.85 -10.05 30.65 Q-9.8 29.1 -10.5 28.5 L-11.8 29.5 -12.65 28.2 -12.15 27.95 -12.1 27.95 -11.0 27.7 -9.65 27.6 -9.65 27.35 -9.35 26.15 Q-8.55 24.45 -6.65 22.55 L-4.5 20.4 Q-2.1 18.35 -1.15 16.75 L0.0 14.1 0.85 12.05 1.6 10.35 Q2.7 7.9 4.0 6.75 5.9 4.7 8.1 6.4 9.2 7.2 9.9 8.5 13.15 4.05 16.05 6.75 17.25 7.9 18.45 10.35 L19.2 12.05 19.95 14.1 21.15 16.75 Q22.15 18.35 24.45 20.4 L26.45 22.25 Q28.45 24.3 29.35 26.15 L29.7 27.35 29.65 27.7 30.95 27.8 32.1 28.1 32.55 28.4 31.75 29.7 30.5 28.6 Q30.0 29.05 29.95 29.95 L30.0 30.55 30.0 30.85 30.05 30.95 29.6 31.5 Q28.9 32.2 28.55 32.0 L26.7 31.3 26.5 31.45 Q26.25 31.8 26.5 32.3 L26.7 32.8 26.55 33.0 26.2 33.4 25.85 33.7 25.15 33.65 23.65 32.45 23.05 32.95 22.85 33.45 23.05 33.9 23.65 34.6 23.55 35.4 Q23.3 36.15 22.25 36.35 L21.0 35.65 Q20.55 36.05 20.7 36.9 L20.8 37.3 20.95 37.6 21.0 37.75 21.2 37.95 21.2 38.5 20.4 39.1 19.2 39.4 19.25 39.3 18.65 37.6 17.75 37.7 17.5 39.25 17.5 39.65 15.85 39.55 14.8 39.2 14.85 39.05 14.9 38.95 15.9 35.5 16.05 34.35 16.0 34.35 Q16.1 32.5 15.5 29.7 L15.5 29.65 15.45 29.65 15.45 29.55 15.25 28.3 15.2 28.2 14.45 28.4 14.15 28.45 13.5 28.55 9.9 28.8 9.9 28.9 9.75 28.9 9.75 28.8 8.15 28.75 4.8 28.1 4.4 29.55 4.5 29.55 M8.45 24.15 L6.25 27.65 8.45 28.05 13.7 27.8 Q12.0 25.45 11.35 24.15 10.0 21.55 9.85 18.65 9.8 21.55 8.45 24.15 M-4.55 32.1 L-4.85 32.3 -4.95 32.5 -4.55 32.1 M24.8 32.45 Q24.6 32.2 24.45 32.2 L24.9 32.6 24.8 32.45" fill="url(#gradient0)" fill-rule="evenodd" stroke="none"/>
      <path d="M8.45 24.15 Q9.8 21.55 9.85 18.65 10.0 21.55 11.35 24.15 12.0 25.45 13.7 27.8 L8.45 28.05 6.25 27.65 8.45 24.15" fill="url(#gradient1)" fill-rule="evenodd" stroke="none"/>
      <path d="M2.85 37.95 Q3.1 38.25 2.75 38.65 L2.45 39.2 2.2 37.65 Q2.7 37.75 2.85 37.95 M0.7 39.25 Q0.35 38.15 0.55 37.8 0.7 37.55 1.35 37.55 L0.7 39.25 M19.25 39.35 L18.65 37.65 Q19.25 37.6 19.45 37.9 19.65 38.25 19.25 39.35 M17.5 39.3 L17.15 38.75 Q16.85 38.4 17.05 38.1 17.2 37.85 17.75 37.75 L17.5 39.3 M30.5 28.65 L31.1 28.3 32.55 28.45 31.75 29.75 30.5 28.65 M24.5 32.3 L24.85 32.55 25.15 33.5 25.2 33.75 23.7 32.55 Q24.2 32.15 24.5 32.3 M22.15 35.4 Q22.4 35.65 22.25 36.45 L21.0 35.7 21.45 35.2 22.05 35.3 22.15 35.4 M27.55 31.0 L27.9 31.15 28.15 31.4 28.3 31.85 28.55 32.05 26.7 31.35 Q27.05 31.0 27.55 31.0 M-5.15 33.35 L-4.9 32.35 -4.75 32.15 Q-4.25 31.95 -3.7 32.35 L-5.2 33.6 -5.15 33.35 M-7.55 30.95 Q-7.05 30.9 -6.7 31.25 L-8.6 31.95 -8.4 31.75 -8.25 31.3 -7.9 31.05 -7.55 30.95 M-2.25 36.3 Q-2.4 35.5 -2.15 35.3 L-2.1 35.15 -1.5 35.1 -1.1 35.55 -2.25 36.3 M-12.65 28.25 L-11.15 28.2 Q-10.8 28.3 -10.5 28.55 L-11.8 29.55 -12.65 28.25" fill="#bf5f7f" fill-opacity="0.49803922" fill-rule="evenodd" stroke="none"/>
      <path d="M24.45 20.4 L26.45 22.25 Q22.45 19.75 21.25 18.45 20.45 17.5 19.85 15.45 L19.2 12.05 19.95 14.1 21.15 16.75 Q22.15 18.35 24.45 20.4 M12.65 11.3 Q12.45 14.05 13.05 17.25 L13.45 18.95 16.2 28.2 Q16.85 31.7 16.5 34.4 L16.55 34.4 16.35 35.55 Q15.9 37.45 14.9 39.0 L15.9 35.55 16.05 34.4 16.0 34.4 Q16.1 32.55 15.5 29.75 L15.5 29.7 15.45 29.7 15.2 28.4 15.25 28.4 15.2 28.3 15.2 28.25 15.05 27.7 14.6 26.2 14.4 25.7 13.45 22.7 12.25 18.35 12.25 18.2 11.8 15.5 11.75 15.15 11.75 15.05 11.7 14.45 11.5 11.3 12.65 11.3 M16.05 6.7 L16.6 7.3 16.95 7.8 16.95 7.9 16.95 8.05 Q17.1 8.75 14.75 8.95 L15.85 8.3 Q16.7 7.55 16.05 6.85 L16.0 6.8 15.95 6.8 15.85 6.65 16.05 6.7 M17.7 8.95 L18.8 11.2 18.85 11.25 18.8 11.3 18.8 11.4 17.8 11.9 14.3 12.0 16.7 11.25 Q18.8 10.2 17.45 8.8 L17.7 8.95 M2.35 8.9 L2.5 8.8 Q1.2 10.2 3.3 11.25 L5.65 12.0 2.15 11.9 Q1.45 11.7 1.2 11.4 L1.2 11.3 1.2 11.25 Q1.7 9.95 2.35 8.9 M4.0 6.7 L4.15 6.65 4.05 6.8 4.0 6.8 3.95 6.85 Q3.3 7.55 4.15 8.3 L5.25 8.95 Q2.85 8.75 3.0 8.05 L3.0 7.9 3.4 7.35 4.0 6.7 M8.45 11.25 L8.2 14.45 8.15 14.95 Q7.9 17.85 7.45 19.45 L5.55 25.45 5.5 25.65 5.45 25.65 5.1 26.8 5.0 27.3 4.95 27.45 4.8 28.15 4.8 28.2 4.4 29.7 4.4 29.8 Q3.85 32.5 3.95 34.35 L4.0 34.35 4.15 35.55 4.1 35.55 5.1 38.85 5.15 39.05 5.15 38.95 5.2 39.1 Q3.3 39.8 2.45 39.55 2.2 39.45 2.45 39.15 L2.75 38.6 Q3.0 38.25 2.85 37.9 L2.5 36.1 3.4 38.4 3.05 39.05 Q4.0 39.3 5.15 39.05 4.05 37.5 3.6 35.55 L3.4 34.45 3.35 34.45 Q2.95 31.75 3.65 28.2 L4.0 27.2 4.05 27.05 6.2 19.45 6.35 18.95 Q7.45 14.7 7.2 11.25 L8.45 11.25 M19.95 35.45 L19.85 35.2 20.85 37.3 21.0 37.6 21.05 37.75 21.25 37.95 21.25 38.5 20.45 39.1 19.25 39.4 19.2 39.4 19.5 38.55 19.55 38.55 19.5 37.85 18.95 36.05 19.9 37.8 19.95 38.05 19.95 38.45 20.65 38.1 20.6 37.8 19.8 35.2 19.95 35.45 M0.7 12.75 L0.1 15.55 Q-0.5 17.75 -1.35 18.65 -2.65 20.0 -6.65 22.55 L-4.5 20.4 Q-2.1 18.35 -1.15 16.75 L0.0 14.1 0.85 12.05 0.7 12.75 M0.15 35.4 L0.25 35.15 -0.6 37.8 -0.7 38.1 0.1 38.5 0.05 37.9 0.1 37.7 1.1 36.0 0.6 37.75 Q0.45 37.95 0.6 38.55 L0.75 39.2 0.8 39.35 0.75 39.35 -0.4 38.95 -1.2 38.45 Q-1.4 38.3 -1.25 37.85 L-1.15 37.7 0.2 35.15 0.15 35.4 M26.45 29.45 L26.2 29.5 Q23.55 30.1 22.6 31.0 L20.95 33.25 20.9 31.15 20.15 26.05 19.05 20.95 Q19.95 22.5 23.45 26.3 L26.45 29.45 M31.0 27.8 L32.15 28.1 29.95 28.45 28.7 28.75 29.55 28.05 29.7 27.7 31.0 27.8 M17.2 38.7 L17.5 39.25 Q17.75 39.55 17.5 39.65 16.7 39.9 14.8 39.2 L14.85 39.05 Q15.95 39.25 16.85 39.05 L16.55 38.4 17.4 36.2 17.05 38.05 Q16.95 38.35 17.2 38.7 M28.2 29.0 L28.3 29.1 28.25 29.0 29.9 30.45 29.95 30.55 30.05 30.85 30.1 30.95 29.65 31.5 29.45 31.75 Q28.85 32.25 28.55 32.05 L28.3 31.8 28.15 31.45 28.15 31.35 28.15 31.3 27.95 31.1 26.6 30.05 28.3 31.0 28.35 31.35 29.3 31.15 28.2 29.05 28.25 29.1 28.2 29.0 M24.5 32.2 L23.4 31.05 24.7 31.85 Q25.5 32.3 25.3 33.0 L25.9 32.8 25.3 30.35 25.35 30.4 25.95 31.45 26.7 32.8 26.7 32.85 26.55 33.05 26.2 33.45 Q25.3 34.25 25.15 33.7 L25.1 33.45 25.1 33.35 25.05 33.05 25.05 33.0 25.1 33.0 24.95 32.6 24.85 32.45 24.5 32.2 M23.1 33.9 L23.7 34.6 23.6 35.4 23.35 35.9 Q22.95 36.25 22.25 36.45 L22.25 36.35 22.3 35.7 22.35 35.7 22.2 35.35 22.1 35.25 20.75 34.1 22.3 34.95 22.6 35.55 Q23.2 35.25 23.25 34.7 L23.2 34.5 Q22.5 34.15 22.5 33.45 L22.2 32.05 22.25 32.1 22.3 32.25 22.25 32.0 22.9 33.45 23.1 33.9 M-10.1 30.85 L-10.05 30.65 -9.9 30.35 -8.3 29.0 -9.4 31.15 -8.25 31.3 -8.4 31.7 -8.6 31.95 Q-9.0 32.15 -9.6 31.45 L-10.1 30.85 M-8.7 28.65 L-9.95 28.3 -12.15 28.0 -12.1 27.95 -10.95 27.7 -9.6 27.6 -9.45 28.05 -8.7 28.65 M-6.45 29.45 L-3.5 26.3 Q0.0 22.5 0.9 20.95 L-0.2 26.05 -1.0 31.05 -1.05 33.0 Q-2.3 31.15 -2.6 31.0 -3.6 30.1 -6.15 29.5 L-6.45 29.45 M-5.4 30.4 L-5.35 30.25 -5.9 32.8 -5.35 33.0 Q-5.55 32.2 -4.75 31.75 L-3.2 31.0 -4.5 32.1 -4.8 32.3 -4.9 32.5 -5.05 33.0 -5.1 33.3 -5.15 33.55 -5.4 33.8 -6.2 33.35 -6.6 32.9 -6.7 32.7 -5.4 30.25 -5.4 30.4 M-6.55 29.9 L-7.85 31.0 -8.15 31.25 -8.4 31.3 -8.35 30.9 -6.55 29.9 M-2.9 33.35 L-2.2 31.95 -2.55 33.4 Q-2.55 34.05 -3.25 34.45 L-3.25 34.5 -3.2 34.45 Q-3.35 35.2 -2.55 35.55 -2.65 35.1 -2.3 34.85 L-0.8 33.9 -2.05 35.1 -2.1 35.25 -2.25 35.7 -2.2 36.25 -2.25 36.25 Q-3.3 36.1 -3.6 35.3 L-3.7 34.6 -3.7 34.55 -3.05 33.8 -2.9 33.35" fill="#f9b8c1" fill-opacity="0.49803922" fill-rule="evenodd" stroke="none"/>
      <path d="M9.9 11.25 L11.0 11.3 11.1 14.7 11.45 19.3 Q11.85 21.1 12.55 22.85 13.45 25.3 14.4 25.75 L14.6 26.25 15.05 27.75 15.2 28.3 Q14.6 28.0 14.1 27.2 L13.3 25.95 Q10.15 20.3 9.9 12.2 9.85 15.5 9.3 18.5 L8.25 22.2 8.15 22.5 8.05 22.7 7.1 24.8 6.6 25.9 Q5.45 27.75 4.85 28.2 L4.8 28.2 4.8 28.15 4.95 27.45 5.0 27.3 5.1 26.85 5.45 25.7 5.5 25.7 Q6.35 25.15 7.3 22.8 L8.4 19.25 8.75 14.65 8.85 11.25 9.9 11.25" fill="#f3f3f3" fill-opacity="0.49803922" fill-rule="evenodd" stroke="none"/>
      <path d="M3.45 29.35 L4.6 28.9 4.4 29.6 4.4 29.7 4.35 29.9 Q3.85 32.5 3.95 34.3 L4.1 35.5 2.4 35.5 Q1.0 35.25 0.2 34.55 L-0.75 33.55 -0.9 33.3 -1.1 33.0 Q-2.3 31.2 -2.65 31.0 -3.6 30.1 -6.2 29.5 L-6.5 29.45 -8.3 28.9 -8.8 28.65 -9.55 28.05 -9.65 27.6 -9.7 27.35 -9.4 26.15 -8.9 25.35 Q-8.75 26.3 -8.0 26.85 -7.2 27.35 -5.8 27.3 L-4.5 27.3 -3.4 27.45 Q-2.4 27.8 -1.05 29.05 L-0.8 29.25 Q0.4 30.05 2.5 29.55 L3.45 29.35 M16.45 29.35 L17.45 29.6 20.7 29.35 21.0 29.1 Q22.4 27.85 23.4 27.5 L24.4 27.35 25.75 27.35 Q27.2 27.4 28.0 26.9 28.7 26.3 28.9 25.4 L29.35 26.2 29.7 27.4 29.65 27.75 29.5 28.1 28.65 28.8 28.15 29.0 26.45 29.5 26.2 29.55 Q23.5 30.15 22.6 31.0 L20.95 33.3 20.7 33.6 19.8 34.6 Q18.95 35.3 17.7 35.5 L15.9 35.55 16.05 34.35 Q16.15 32.6 15.65 30.05 L15.55 29.7 15.55 29.65 15.45 28.9 16.45 29.35" fill="#fce2e5" fill-opacity="0.49803922" fill-rule="evenodd" stroke="none"/>
      <path d="M13.9 8.95 L13.95 8.95 14.85 9.7 Q15.05 10.1 14.75 10.6 L14.8 10.55 14.05 11.35 13.95 11.4 11.5 11.35 11.7 14.45 11.75 15.05 11.75 15.15 11.8 15.5 12.25 18.35 13.45 22.7 14.4 25.75 Q13.45 25.3 12.55 22.85 11.85 21.1 11.45 19.3 L11.1 14.7 11.0 11.35 8.85 11.35 8.75 14.65 8.4 19.25 7.3 22.8 Q6.35 25.25 5.45 25.7 L7.45 19.45 Q7.9 17.85 8.15 14.95 L8.2 14.45 8.45 11.35 5.5 11.35 5.45 11.3 4.75 10.5 4.75 10.55 Q4.1 9.7 5.4 8.9 L5.45 8.9 13.9 8.95 M12.2 10.2 L12.4 9.75 Q12.6 9.6 12.85 9.6 L13.3 9.75 13.5 10.2 13.3 10.55 12.85 10.8 12.4 10.55 12.2 10.2 M14.55 10.45 Q14.8 10.1 14.65 9.8 14.45 9.45 13.9 9.2 L5.5 9.15 Q4.5 9.75 4.95 10.4 L5.55 11.1 13.95 11.15 14.55 10.45 M7.5 9.75 L7.7 10.2 7.5 10.55 7.0 10.8 6.55 10.55 6.35 10.2 6.55 9.75 Q6.75 9.6 7.0 9.6 7.25 9.6 7.5 9.75" fill="#bf5f7f" fill-opacity="0.49803922" fill-rule="evenodd" stroke="none"/>
      <path d="M13.95 11.75 L5.75 11.65 Q4.9 11.4 4.65 10.65 L4.7 10.25 4.85 10.55 5.5 11.3 7.25 11.3 8.5 11.3 8.6 11.3 8.7 11.3 8.9 11.3 9.95 11.3 11.55 11.35 12.7 11.35 13.95 11.35 14.65 10.6 14.8 10.05 Q15.2 11.0 13.95 11.75 M9.3 18.5 Q9.85 15.5 9.9 12.2 10.15 20.3 13.3 25.95 L14.1 27.2 Q14.6 28.0 15.2 28.3 L15.2 28.4 15.45 29.7 15.5 29.7 15.5 29.75 Q16.1 32.55 16.0 34.4 L15.85 35.65 14.85 39.05 14.75 39.15 Q15.2 36.6 15.15 34.35 L14.95 31.0 14.6 29.55 14.15 28.6 13.5 28.7 13.45 28.65 13.45 28.7 9.9 28.95 9.75 28.95 8.15 28.9 5.8 28.45 5.75 28.5 5.3 29.55 4.9 31.0 4.7 34.35 Q4.65 36.55 5.05 38.9 L4.05 35.65 4.1 35.65 3.95 34.4 Q3.85 32.55 4.4 29.8 L4.4 29.7 4.8 28.2 6.6 25.9 7.1 24.8 8.25 22.2 9.3 18.5 M8.5 24.15 L6.35 27.6 8.5 28.05 13.65 27.8 11.35 24.15 Q10.0 21.55 9.85 18.65 9.8 21.55 8.5 24.15" fill="#cbcbcb" fill-opacity="0.49803922" fill-rule="evenodd" stroke="none"/>
    </g>
    <linearGradient gradientTransform="matrix(0.0, -0.0212, 0.0208, 0.0, 10.25, 22.0)" gradientUnits="userSpaceOnUse" id="gradient0" spreadMethod="pad" x1="-819.2" x2="819.2">
      <stop offset="0.0" stop-color="#ffffff"/>
      <stop offset="0.4745098039215686" stop-color="#fff6f3"/>
      <stop offset="1.0" stop-color="#ffe5e9"/>
    </linearGradient>
    <linearGradient gradientTransform="matrix(0.0, -0.0056, 0.0208, 0.0, 9.55, 23.85)" gradientUnits="userSpaceOnUse" id="gradient1" spreadMethod="pad" x1="-819.2" x2="819.2">
      <stop offset="0.0" stop-color="#ffffff"/>
      <stop offset="0.4745098039215686" stop-color="#fff6f3"/>
      <stop offset="1.0" stop-color="#ffe5e9"/>
    </linearGradient>
  </defs>
</svg>
