<?xml version="1.0" encoding="UTF-8" standalone="no"?>
<svg xmlns:ffdec="https://www.free-decompiler.com/flash" xmlns:xlink="http://www.w3.org/1999/xlink" ffdec:objectType="frame" height="72.75px" width="92.1px" xmlns="http://www.w3.org/2000/svg">
  <g transform="matrix(1.0, 0.0, 0.0, 1.0, 36.0, 38.15)">
    <use ffdec:characterId="7" height="72.75" transform="matrix(1.0, 0.0, 0.0, 1.0, -36.0, -38.15)" width="92.1" xlink:href="#shape0"/>
    <filter id="filter0">
      <feColorMatrix in="SourceGraphic" result="filterResult0" type="matrix" values="0 0 0 0 1.0,0 0 0 0 0.0,0 0 0 0 1.0,0 0 0 1 0"/>
      <feConvolveMatrix divisor="9.0" in="filterResult0" kernelMatrix="1 1 1 1 1 1 1 1 1" order="3 3" result="filterResult1"/>
      <feComposite in="SourceGraphic" in2="filterResult1" operator="over" result="filterResult2"/>
    </filter>
    <use ffdec:characterId="9" filter="url(#filter0)" height="2.3" transform="matrix(1.0, 0.0, 0.0, 1.0, 9.0, 11.4)" width="2.05" xlink:href="#sprite0"/>
    <use ffdec:characterId="10" height="8.35" transform="matrix(1.0, 0.0, 0.0, 1.0, 6.8, 14.35)" width="6.25" xlink:href="#shape2"/>
  </g>
  <defs>
    <g id="shape0" transform="matrix(1.0, 0.0, 0.0, 1.0, 36.0, 38.15)">
      <path d="M0.15 -0.6 L0.55 -0.25 1.65 -0.15 2.85 -0.15 3.2 0.0 3.05 -0.4 Q2.8 -0.75 2.2 -0.9 3.25 -0.9 4.05 -0.4 L4.65 0.05 Q3.75 -1.05 4.1 -1.7 4.0 -0.8 5.15 -0.45 L5.95 0.05 6.1 0.4 6.25 0.2 6.1 -0.7 Q7.1 -0.3 7.7 1.45 L7.85 1.1 Q7.95 0.65 7.65 0.45 8.0 0.55 8.4 0.95 9.05 1.6 9.25 2.8 L9.15 3.05 Q8.75 2.45 8.25 2.4 L8.6 3.0 8.7 3.9 8.65 3.9 8.3 3.9 8.05 3.2 8.15 3.85 8.05 3.85 7.7 3.75 7.65 3.75 7.0 3.85 6.75 3.25 6.75 3.95 6.35 4.1 Q6.1 3.3 5.6 3.0 L5.05 2.85 Q5.8 3.45 5.65 4.1 L5.35 4.65 Q5.5 3.7 4.75 3.3 4.05 2.95 3.7 3.45 3.35 4.0 3.9 4.35 L3.05 4.25 Q2.65 4.45 2.8 4.8 2.95 5.2 3.7 5.2 2.9 5.9 4.35 6.05 3.1 6.0 2.7 6.5 2.4 6.95 2.9 7.2 L3.85 7.1 4.35 6.8 4.05 7.3 3.2 7.75 Q4.0 7.75 4.45 8.05 L4.75 8.3 4.1 8.15 3.0 8.2 4.5 8.95 4.3 9.4 4.25 9.5 3.9 10.25 2.5 13.65 Q1.5 16.45 0.9 19.55 0.45 21.9 0.15 24.35 L-0.25 24.65 Q0.3 23.75 -0.4 23.9 L-1.05 24.5 -1.45 24.7 Q-1.25 24.5 -1.45 24.15 L-1.4 23.8 -1.95 24.05 -2.45 25.35 Q-2.7 24.6 -2.45 24.15 L-3.05 24.5 -3.55 24.95 -3.65 25.1 -3.6 24.9 -3.55 24.8 -3.55 24.35 -4.3 24.6 -5.3 25.7 Q-5.15 25.15 -5.3 24.95 L-5.4 24.7 -5.55 25.15 Q-5.7 25.5 -6.05 25.4 L-6.25 25.5 -6.55 25.55 -7.0 25.2 -7.4 25.1 Q-8.05 26.15 -8.5 25.9 L-8.05 25.25 -8.0 25.05 -8.35 25.2 -8.85 25.8 -8.7 25.15 -8.55 24.95 Q-9.4 25.1 -10.0 25.95 -9.8 25.55 -9.9 25.3 L-9.9 25.0 -10.25 25.4 Q-10.7 25.75 -10.9 25.55 -11.25 25.95 -11.5 25.45 L-11.25 25.2 Q-11.05 24.9 -11.4 24.7 -11.85 24.55 -12.1 25.15 L-12.2 25.95 Q-12.25 26.1 -12.45 26.05 -12.7 26.1 -12.75 26.75 -12.8 26.25 -13.15 26.05 L-13.4 26.0 Q-13.7 26.65 -13.2 27.15 L-13.55 27.15 -14.0 27.4 -13.95 28.35 -12.9 29.1 -13.4 29.15 Q-13.75 29.3 -13.2 29.7 -12.75 30.05 -12.4 30.05 L-12.05 29.95 -10.55 29.9 -10.7 30.4 Q-10.85 31.05 -11.25 31.15 L-10.65 31.35 -11.25 31.75 -12.75 31.9 Q-12.65 32.5 -12.25 32.7 L-12.6 32.7 -13.3 32.35 -13.75 32.4 -15.0 31.9 Q-15.15 32.25 -14.95 32.35 -15.85 31.95 -16.3 31.2 L-16.4 31.85 Q-17.1 30.95 -17.4 29.5 L-17.7 29.95 Q-17.9 28.65 -17.7 27.35 -17.8 27.3 -18.1 27.55 L-18.25 27.6 -17.85 26.4 Q-18.3 26.3 -18.65 26.85 L-18.15 25.7 -17.8 25.25 -18.55 25.5 -17.6 24.25 -16.95 23.35 -17.2 23.4 Q-17.5 23.4 -17.65 23.65 L-16.2 21.35 -15.2 20.4 Q-15.75 19.85 -15.65 19.5 -14.95 20.05 -13.65 19.85 L-12.55 19.6 -12.7 19.35 Q-12.9 19.2 -13.2 19.15 L-11.25 18.95 -10.55 19.3 -10.85 18.3 Q-10.6 18.8 -9.95 18.95 L-9.3 19.0 -9.65 18.15 Q-9.35 18.8 -8.1 19.35 L-6.8 19.8 -7.1 19.3 -6.1 19.8 Q-6.65 19.2 -6.5 18.75 -6.25 19.4 -5.7 19.4 -4.7 19.45 -4.35 20.05 L-4.6 19.15 -4.05 19.7 -3.55 19.95 Q-3.1 20.0 -2.8 19.55 L-3.2 19.1 -2.9 18.95 Q-2.7 18.9 -2.35 19.25 L-1.6 19.5 -1.35 18.95 -1.65 18.4 -1.85 18.45 -1.55 18.15 Q-1.1 18.0 -0.55 18.55 L-1.0 17.55 -0.7 17.7 0.6 17.9 Q1.2 17.95 0.75 17.75 L0.1 17.3 1.0 17.15 1.05 17.0 -0.05 16.45 Q0.85 16.65 1.35 16.05 L0.9 16.0 0.85 16.0 -0.05 15.75 Q0.75 15.7 1.2 15.15 L1.55 14.65 1.0 14.7 Q0.4 14.8 -0.1 15.2 L0.2 14.25 0.55 13.85 0.05 14.25 Q-0.5 14.65 -0.85 14.7 L-0.25 13.7 -0.35 12.2 Q-0.55 11.4 -0.85 11.75 -1.3 12.3 -0.7 13.3 -1.55 12.85 -1.6 11.9 L-1.45 11.1 -1.75 11.5 -2.4 11.9 Q-2.1 11.45 -2.1 10.75 L-2.1 10.1 -2.45 10.35 Q-2.8 10.65 -2.8 11.05 -3.05 9.7 -2.15 8.6 L-2.65 9.05 Q-3.25 9.55 -3.65 9.5 -2.95 9.1 -2.95 8.55 -2.95 7.05 -2.55 6.8 -3.2 6.85 -3.85 8.1 L-3.8 7.15 Q-3.55 6.1 -2.6 5.9 L-3.35 5.95 -4.4 5.85 Q-3.6 5.85 -2.85 5.15 L-2.25 4.4 Q-3.3 4.45 -3.9 5.15 L-3.45 4.15 Q-2.8 3.1 -1.65 3.1 -2.25 2.55 -3.45 3.3 -2.95 2.3 -1.2 2.4 -0.75 2.4 -0.35 1.65 L-0.05 0.9 Q-0.75 0.95 -1.9 1.75 L-1.15 0.85 Q-0.15 0.05 1.2 0.4 0.3 0.1 0.15 -0.6 M17.85 -0.9 Q17.25 -0.75 17.0 -0.4 L16.85 0.0 17.2 -0.15 18.4 -0.15 19.5 -0.25 19.9 -0.6 Q19.75 0.1 18.85 0.4 20.2 0.05 21.2 0.85 L21.95 1.75 Q20.8 0.95 20.1 0.9 L20.4 1.65 Q20.8 2.4 21.25 2.4 23.0 2.3 23.5 3.3 22.3 2.55 21.7 3.1 22.85 3.1 23.5 4.15 L23.95 5.15 Q23.35 4.45 22.3 4.4 L22.9 5.15 Q23.65 5.85 24.45 5.85 L23.4 5.95 22.65 5.9 Q23.6 6.1 23.85 7.15 L23.9 8.1 Q23.25 6.85 22.6 6.8 23.0 7.05 23.0 8.55 23.0 9.1 23.7 9.5 23.3 9.55 22.7 9.05 L22.2 8.6 Q23.1 9.7 22.85 11.05 L22.5 10.35 22.15 10.1 22.15 10.75 Q22.15 11.45 22.45 11.9 22.15 11.9 21.8 11.5 L21.5 11.1 21.65 11.9 Q21.6 12.85 20.75 13.3 21.35 12.3 20.9 11.75 20.6 11.4 20.4 12.2 L20.3 13.7 Q20.55 14.45 20.9 14.7 L20.0 14.25 19.5 13.85 19.85 14.25 20.15 15.2 Q19.65 14.8 19.05 14.7 L18.5 14.65 18.85 15.15 Q19.3 15.7 20.1 15.75 L19.2 16.0 19.15 16.0 18.7 16.05 Q19.2 16.65 20.1 16.45 L19.0 17.0 Q18.8 17.1 19.05 17.15 L19.95 17.3 19.3 17.75 Q18.85 17.95 19.45 17.9 L20.75 17.7 21.05 17.55 20.6 18.55 Q21.15 18.0 21.6 18.15 L21.9 18.45 21.7 18.4 Q21.45 18.6 21.4 18.95 21.4 19.3 21.65 19.5 21.85 19.7 22.4 19.25 L22.95 18.95 23.25 19.1 22.85 19.55 Q23.15 20.0 23.6 19.95 L24.1 19.7 24.65 19.15 24.4 20.05 Q24.75 19.45 25.75 19.4 26.3 19.4 26.55 18.75 26.7 19.2 26.15 19.8 L27.2 19.25 27.15 19.3 26.85 19.8 28.15 19.35 Q29.4 18.8 29.7 18.15 L29.35 19.0 30.0 18.95 Q30.65 18.8 30.9 18.3 L30.6 19.3 31.3 18.95 33.25 19.15 32.75 19.35 32.6 19.6 33.7 19.85 Q35.0 20.05 35.7 19.5 35.8 19.85 35.25 20.4 L36.25 21.35 37.7 23.65 Q37.55 23.4 37.25 23.4 L37.0 23.35 37.65 24.25 38.6 25.5 37.85 25.25 38.2 25.7 38.7 26.85 Q38.35 26.3 37.9 26.4 L38.3 27.6 38.15 27.55 37.75 27.35 Q37.95 28.65 37.75 29.95 L37.45 29.5 Q37.15 30.95 36.45 31.85 L36.35 31.2 Q35.9 31.95 35.0 32.35 35.2 32.25 35.05 31.9 34.35 32.4 33.8 32.4 L33.35 32.35 32.65 32.7 32.3 32.7 Q32.7 32.5 32.8 31.9 L31.3 31.75 30.7 31.35 31.3 31.15 Q30.9 31.05 30.75 30.4 L30.6 29.9 32.1 29.95 32.45 30.05 Q32.8 30.05 33.25 29.7 33.8 29.3 33.45 29.15 L32.95 29.1 34.0 28.35 34.05 27.4 Q33.9 27.15 33.6 27.15 L33.25 27.15 Q33.75 26.65 33.45 26.0 L33.2 26.05 Q32.85 26.25 32.8 26.75 32.75 26.1 32.5 26.05 32.3 26.1 32.25 25.95 L32.15 25.15 Q31.9 24.55 31.45 24.7 31.1 24.9 31.3 25.2 L31.55 25.45 Q31.3 25.95 30.95 25.55 L30.3 25.4 29.95 25.0 29.95 25.3 Q29.85 25.55 30.05 25.95 29.45 25.1 28.6 24.95 L28.75 25.15 28.9 25.8 28.4 25.2 28.05 25.05 28.1 25.25 28.55 25.9 Q28.1 26.15 27.45 25.1 L27.05 25.2 26.6 25.55 26.3 25.5 26.1 25.4 Q25.75 25.5 25.6 25.15 L25.45 24.7 25.35 24.95 Q25.2 25.15 25.35 25.7 L24.35 24.6 23.6 24.35 23.6 24.8 23.65 24.9 23.75 25.15 23.6 24.95 23.1 24.5 22.5 24.15 Q22.75 24.6 22.5 25.35 L22.0 24.05 21.45 23.8 21.5 24.15 Q21.3 24.5 21.5 24.7 L21.1 24.5 20.45 23.9 Q19.75 23.75 20.3 24.65 L19.9 24.35 19.15 19.55 Q18.55 16.45 17.55 13.65 L16.15 10.25 15.8 9.5 15.75 9.4 15.55 8.95 17.05 8.2 15.95 8.15 15.3 8.3 15.6 8.05 Q16.05 7.75 16.9 7.75 16.4 7.75 16.0 7.3 L15.7 6.8 16.2 7.1 17.15 7.2 Q17.65 6.95 17.35 6.5 16.95 6.0 15.7 6.05 17.15 5.9 16.35 5.2 17.1 5.2 17.25 4.8 17.4 4.45 17.0 4.25 L16.15 4.35 Q16.7 4.0 16.35 3.45 16.0 2.95 15.3 3.3 14.55 3.7 14.7 4.65 L14.4 4.1 Q14.25 3.45 15.0 2.85 L14.45 3.0 Q13.95 3.3 13.7 4.1 L13.3 3.95 13.3 3.25 13.05 3.85 12.4 3.75 12.35 3.75 12.0 3.85 11.9 3.85 12.0 3.2 11.75 3.9 11.4 3.9 11.35 3.9 11.45 3.0 11.8 2.4 Q11.3 2.45 10.9 3.05 L10.8 2.8 Q11.0 1.6 11.65 0.95 12.05 0.55 12.4 0.45 12.1 0.65 12.2 1.1 L12.35 1.45 Q12.95 -0.3 13.95 -0.7 13.65 -0.15 13.8 0.2 L13.95 0.4 14.1 0.05 14.9 -0.45 Q16.05 -0.8 15.95 -1.7 16.3 -1.05 15.4 0.05 L16.0 -0.4 Q16.8 -0.9 17.85 -0.9" fill="#e81b39" fill-rule="evenodd" stroke="none"/>
      <path d="M21.0 8.35 Q21.35 8.35 21.05 8.75 20.7 9.1 20.2 8.95 L19.75 8.7 Q20.2 9.9 19.35 10.5 19.25 9.8 18.55 9.45 18.9 10.4 18.55 10.75 18.35 11.0 18.45 11.15 L18.75 11.95 18.45 11.9 Q18.1 11.8 18.2 11.25 17.9 11.7 18.1 12.35 L18.3 12.9 17.95 13.5 17.55 13.65 16.15 10.25 15.8 9.5 15.75 9.4 15.55 8.95 17.05 8.2 15.95 8.15 15.3 8.3 15.6 8.05 Q16.05 7.75 16.9 7.75 16.4 7.75 16.0 7.3 L15.7 6.8 16.2 7.1 17.15 7.2 Q17.65 6.95 17.35 6.5 16.95 6.0 15.7 6.05 17.15 5.9 16.35 5.2 17.1 5.2 17.25 4.8 17.4 4.45 17.0 4.25 L16.15 4.35 Q16.7 4.0 16.35 3.45 16.0 2.95 15.3 3.3 14.55 3.7 14.7 4.65 L14.4 4.1 Q14.25 3.45 15.0 2.85 L14.45 3.0 Q13.95 3.3 13.65 4.1 L13.3 3.95 13.3 3.25 13.05 3.85 12.4 3.75 12.55 3.35 13.3 2.55 12.7 2.7 Q13.45 1.5 14.4 1.2 15.35 0.9 15.15 1.65 16.95 0.95 16.55 2.05 17.7 1.25 17.4 2.3 19.1 1.7 19.15 2.55 L18.9 2.9 17.9 3.0 18.25 3.4 19.05 3.35 Q19.55 2.7 20.2 3.75 L19.05 4.85 20.35 5.1 19.35 5.6 Q20.55 5.6 20.8 6.0 20.2 5.85 19.65 6.35 20.55 6.7 20.5 7.3 20.9 6.85 21.3 7.3 21.55 7.55 21.0 7.95 L20.4 8.3 21.0 8.35 M22.8 21.05 Q22.45 21.75 22.6 21.9 22.8 21.3 23.4 21.2 L23.6 21.15 24.45 21.1 25.1 21.2 25.25 21.05 Q25.0 21.4 25.15 21.85 L25.45 22.25 Q25.45 21.7 26.05 21.35 L26.75 21.3 27.1 21.75 Q27.6 22.25 28.15 22.2 27.65 22.0 27.7 21.65 L27.8 21.4 28.35 22.0 28.75 22.1 Q29.25 22.0 29.85 22.75 29.9 21.95 29.35 21.55 30.3 21.1 31.1 22.05 L31.15 21.6 Q31.25 21.1 31.7 20.95 32.2 20.85 32.05 21.15 L31.75 21.75 32.4 21.4 33.1 21.45 Q33.3 22.0 32.7 22.15 33.25 22.35 33.15 23.35 L34.0 22.5 Q34.2 22.9 33.65 23.95 L34.55 23.35 34.1 24.6 Q35.0 24.05 35.65 24.15 36.3 25.2 35.45 25.35 35.0 25.4 35.0 25.95 L35.2 26.5 Q35.15 25.85 35.75 25.7 L36.2 25.6 Q36.9 26.1 35.55 27.3 36.65 27.5 35.35 28.15 36.5 28.3 35.05 29.55 35.75 29.75 35.05 30.45 34.35 31.1 32.9 31.2 L33.35 30.7 32.3 31.0 Q31.15 30.95 30.6 29.9 L32.1 29.95 32.45 30.05 Q32.8 30.05 33.25 29.7 33.8 29.3 33.45 29.15 L32.95 29.1 34.0 28.35 34.05 27.4 Q33.9 27.15 33.6 27.15 L33.25 27.15 Q33.75 26.65 33.45 26.0 L33.2 26.05 Q32.85 26.25 32.8 26.75 32.75 26.1 32.5 26.05 32.3 26.1 32.25 25.95 L32.15 25.15 Q31.9 24.55 31.45 24.7 31.1 24.9 31.3 25.2 L31.55 25.45 Q31.3 25.95 30.95 25.55 L30.3 25.4 29.95 25.0 29.95 25.3 Q29.85 25.55 30.05 25.95 29.45 25.1 28.6 24.95 L28.75 25.15 28.9 25.8 28.4 25.2 28.05 25.05 28.1 25.25 28.55 25.9 Q28.1 26.15 27.45 25.1 L27.05 25.2 26.6 25.55 26.3 25.5 26.1 25.4 Q25.75 25.5 25.6 25.15 L25.45 24.7 25.35 24.95 Q25.2 25.15 25.35 25.7 L24.35 24.6 23.6 24.35 23.6 24.8 23.65 24.9 23.75 25.15 23.6 24.95 23.1 24.5 22.5 24.15 Q22.75 24.6 22.5 25.35 L22.0 24.05 21.45 23.8 21.5 24.15 Q21.3 24.5 21.5 24.7 L21.1 24.5 20.45 23.9 Q19.75 23.75 20.3 24.65 L19.9 24.35 19.15 19.55 Q19.75 19.4 20.65 19.55 19.9 20.1 20.3 20.3 L20.55 20.95 Q20.65 21.25 20.8 20.95 L21.35 20.25 21.95 20.0 21.8 20.45 21.6 20.95 21.8 21.35 21.85 21.55 22.45 20.8 23.15 20.35 22.8 21.05 M7.35 2.7 Q7.05 2.4 6.75 2.55 L7.5 3.35 7.65 3.75 7.0 3.85 6.75 3.25 6.75 3.95 6.4 4.1 Q6.1 3.3 5.6 3.0 L5.05 2.85 Q5.8 3.45 5.65 4.1 L5.35 4.65 Q5.5 3.7 4.75 3.3 4.05 2.95 3.7 3.45 3.35 4.0 3.9 4.35 L3.05 4.25 Q2.65 4.45 2.8 4.8 2.95 5.2 3.7 5.2 2.9 5.9 4.35 6.05 3.1 6.0 2.7 6.5 2.4 6.95 2.9 7.2 L3.85 7.1 4.35 6.8 4.05 7.3 3.2 7.75 Q4.0 7.75 4.45 8.05 L4.75 8.3 4.1 8.15 3.0 8.2 4.5 8.95 4.3 9.4 4.25 9.5 3.9 10.25 2.5 13.65 2.1 13.5 1.75 12.9 1.95 12.35 Q2.15 11.7 1.85 11.25 1.95 11.8 1.6 11.9 L1.3 11.95 1.6 11.15 1.5 10.75 Q1.15 10.4 1.5 9.45 0.8 9.8 0.7 10.5 -0.15 9.9 0.3 8.7 L-0.15 8.95 -1.0 8.75 Q-1.3 8.35 -0.95 8.35 L-0.35 8.3 -0.95 7.95 Q-1.5 7.55 -1.25 7.3 -0.85 6.85 -0.45 7.3 -0.5 6.7 0.4 6.35 -0.15 5.85 -0.75 6.0 -0.5 5.6 0.7 5.6 L-0.3 5.1 Q-0.05 4.85 1.0 4.85 L-0.15 3.75 Q0.5 2.7 1.0 3.35 L1.8 3.4 2.15 3.0 1.15 2.9 0.9 2.55 Q0.95 1.7 2.65 2.3 2.35 1.25 3.5 2.05 3.1 0.95 4.9 1.65 4.7 0.9 5.65 1.2 6.6 1.5 7.35 2.7 M0.9 19.55 Q0.45 21.9 0.15 24.35 L-0.25 24.65 Q0.3 23.75 -0.4 23.9 L-1.05 24.5 -1.45 24.7 Q-1.25 24.5 -1.45 24.15 L-1.4 23.8 -1.95 24.05 -2.45 25.35 Q-2.7 24.6 -2.45 24.15 L-3.05 24.5 -3.55 24.95 -3.65 25.1 -3.6 24.9 -3.55 24.8 -3.55 24.35 -4.3 24.6 -5.3 25.7 Q-5.15 25.15 -5.3 24.95 L-5.4 24.7 -5.55 25.15 Q-5.7 25.5 -6.05 25.4 L-6.25 25.5 -6.55 25.55 -7.0 25.2 -7.4 25.1 Q-8.05 26.15 -8.5 25.9 L-8.05 25.25 -8.0 25.05 -8.35 25.2 -8.85 25.8 -8.7 25.15 -8.55 24.95 Q-9.4 25.1 -10.0 25.95 -9.8 25.55 -9.9 25.3 L-9.9 25.0 -10.25 25.4 Q-10.7 25.75 -10.9 25.55 -11.25 25.95 -11.5 25.45 L-11.25 25.2 Q-11.05 24.9 -11.4 24.7 -11.85 24.55 -12.1 25.15 L-12.2 25.95 Q-12.25 26.1 -12.45 26.05 -12.7 26.1 -12.75 26.75 -12.8 26.25 -13.15 26.05 L-13.4 26.0 Q-13.7 26.65 -13.2 27.15 L-13.55 27.15 -14.0 27.4 -13.95 28.35 -12.9 29.1 -13.4 29.15 Q-13.75 29.3 -13.2 29.7 -12.75 30.05 -12.4 30.05 L-12.05 29.95 -10.55 29.9 Q-11.1 30.95 -12.25 31.0 L-13.3 30.7 -12.85 31.2 Q-14.3 31.1 -15.0 30.45 -15.7 29.75 -15.0 29.55 -16.45 28.3 -15.3 28.15 -16.6 27.5 -15.5 27.3 -16.85 26.1 -16.15 25.6 L-15.7 25.7 Q-15.1 25.85 -15.15 26.5 L-14.95 25.95 Q-14.95 25.4 -15.4 25.35 -16.25 25.2 -15.6 24.15 -14.95 24.05 -14.05 24.6 L-14.5 23.35 -13.6 23.95 Q-14.15 22.9 -13.95 22.5 L-13.1 23.35 Q-13.2 22.35 -12.65 22.15 -13.25 22.0 -13.05 21.45 L-12.35 21.4 -11.7 21.75 -12.0 21.15 Q-12.15 20.85 -11.65 20.95 -11.2 21.1 -11.1 21.6 L-11.05 22.05 Q-10.25 21.1 -9.3 21.55 -9.85 21.95 -9.8 22.75 -9.2 22.0 -8.7 22.1 L-8.3 22.0 -7.75 21.4 -7.65 21.65 Q-7.6 22.0 -8.1 22.2 -7.55 22.25 -7.05 21.75 L-6.7 21.3 -6.0 21.35 Q-5.4 21.7 -5.4 22.25 L-5.1 21.85 Q-4.95 21.4 -5.2 21.05 L-5.05 21.2 -4.4 21.1 -3.55 21.15 -3.35 21.2 Q-2.75 21.3 -2.55 21.9 -2.4 21.75 -2.75 21.05 L-3.1 20.35 -2.4 20.8 -1.8 21.55 -1.75 21.35 -1.55 20.95 -1.75 20.45 -1.9 20.0 -1.3 20.25 -0.75 20.95 Q-0.6 21.25 -0.5 20.95 L-0.25 20.3 Q0.15 20.1 -0.6 19.55 0.3 19.4 0.9 19.55" fill="#000000" fill-opacity="0.6" fill-rule="evenodd" stroke="none"/>
      <path d="M8.95 7.5 L10.1 8.75 11.2 7.5 Q10.25 8.65 10.05 11.6 9.85 8.65 8.95 7.5" fill="url(#gradient0)" fill-rule="evenodd" stroke="none"/>
      <path d="M10.05 10.8 Q10.5 7.1 16.3 4.95 21.85 2.95 26.7 -1.55 27.95 -2.7 28.85 -5.55 30.0 -9.05 30.5 -14.65 L30.8 -19.55 32.65 -19.6 Q34.7 -19.85 35.7 -20.75 36.9 -21.8 36.95 -23.5 37.0 -25.15 35.8 -25.95 40.1 -32.7 48.55 -36.1 52.6 -37.75 55.9 -38.1 L56.1 -38.15 Q50.8 -35.6 46.6 -29.4 L41.9 -21.05 Q33.2 -5.05 30.0 -0.85 27.7 2.2 22.3 4.85 19.45 6.25 14.85 7.85 12.8 8.55 11.2 9.8 L10.05 10.85 10.05 10.8" fill="url(#gradient1)" fill-rule="evenodd" stroke="none"/>
      <path d="M10.05 10.85 L8.9 9.8 Q7.3 8.55 5.25 7.85 0.65 6.25 -2.2 4.85 -7.6 2.2 -9.9 -0.85 -13.1 -5.05 -21.8 -21.05 L-26.5 -29.4 Q-30.7 -35.6 -36.0 -38.15 L-35.8 -38.1 Q-32.5 -37.75 -28.45 -36.1 -20.0 -32.7 -15.7 -25.95 -16.9 -25.15 -16.85 -23.5 -16.8 -21.8 -15.6 -20.75 -14.6 -19.85 -12.55 -19.6 L-10.7 -19.55 -10.4 -14.65 Q-9.9 -9.05 -8.75 -5.55 -7.85 -2.7 -6.6 -1.55 -1.75 2.95 3.8 4.95 9.6 7.1 10.05 10.8 L10.05 10.85" fill="url(#gradient2)" fill-rule="evenodd" stroke="none"/>
      <path d="M40.05 -29.35 Q38.75 -28.0 37.95 -26.65 39.4 -26.7 39.9 -28.05 L40.05 -29.35 M36.95 -23.5 Q37.0 -25.15 35.8 -25.95 40.1 -32.7 48.55 -36.1 52.6 -37.75 55.9 -38.1 53.2 -37.2 50.05 -35.75 43.6 -32.75 41.3 -30.05 L41.25 -28.2 Q40.85 -26.2 38.95 -25.4 L38.85 -23.0 Q38.25 -20.3 35.85 -18.95 35.8 -17.95 35.3 -16.9 34.35 -14.85 32.4 -14.75 31.65 -3.9 25.65 1.25 23.0 3.55 16.2 5.9 13.25 6.95 11.35 8.95 10.4 10.0 10.05 10.8 9.7 10.0 8.75 8.95 6.85 6.95 3.9 5.9 -2.9 3.55 -5.55 1.25 -11.55 -3.9 -12.3 -14.75 -14.25 -14.85 -15.2 -16.9 -15.7 -17.95 -15.75 -18.95 -18.15 -20.3 -18.75 -23.0 L-18.85 -25.4 Q-20.75 -26.2 -21.15 -28.2 L-21.2 -30.05 Q-23.5 -32.75 -29.95 -35.75 -33.1 -37.2 -35.8 -38.1 -32.5 -37.75 -28.45 -36.1 -20.0 -32.7 -15.7 -25.95 -16.9 -25.15 -16.85 -23.5 -16.8 -21.8 -15.6 -20.75 -14.6 -19.85 -12.55 -19.6 L-10.7 -19.55 -10.4 -14.65 Q-9.9 -9.05 -8.75 -5.55 -7.85 -2.7 -6.6 -1.55 -1.75 2.95 3.8 4.95 9.6 7.1 10.05 10.8 10.5 7.1 16.3 4.95 21.85 2.95 26.7 -1.55 27.95 -2.7 28.85 -5.55 30.0 -9.05 30.5 -14.65 L30.8 -19.55 32.65 -19.6 Q34.7 -19.85 35.7 -20.75 36.9 -21.8 36.95 -23.5 M34.45 -18.5 Q34.15 -18.3 33.1 -18.2 L32.1 -18.1 Q32.45 -15.3 33.5 -16.65 L34.45 -18.5 M-19.8 -28.05 Q-19.3 -26.7 -17.85 -26.65 -18.65 -28.0 -19.95 -29.35 L-19.8 -28.05 M-14.35 -18.5 L-13.4 -16.65 Q-12.35 -15.3 -12.0 -18.1 L-13.0 -18.2 -14.35 -18.5" fill="#ffffcb" fill-opacity="0.8" fill-rule="evenodd" stroke="none"/>
      <path d="M15.0 5.15 L15.05 5.05 15.2 6.0 Q15.35 7.0 15.6 7.25 L14.05 8.7 Q15.05 6.6 15.0 5.15" fill="url(#gradient3)" fill-rule="evenodd" stroke="none"/>
      <path d="M17.3 9.8 L17.05 10.85 16.95 10.95 14.3 12.6 15.35 10.85 Q16.35 8.7 16.05 6.8 17.3 8.45 17.3 9.8" fill="url(#gradient4)" fill-rule="evenodd" stroke="none"/>
      <path d="M4.9 6.0 L5.05 5.05 5.1 5.15 Q5.05 6.6 6.05 8.7 L4.5 7.25 4.9 6.0" fill="url(#gradient5)" fill-rule="evenodd" stroke="none"/>
      <path d="M4.1 6.8 Q3.8 8.7 4.75 10.85 L5.8 12.6 3.2 10.95 3.1 10.85 Q2.85 10.5 2.85 9.8 2.8 8.45 4.1 6.8" fill="url(#gradient6)" fill-rule="evenodd" stroke="none"/>
      <path d="M14.05 8.7 L13.3 9.15 10.05 10.8 10.05 10.5 Q10.15 9.7 11.0 8.9 L11.85 8.25 12.75 7.6 15.0 5.15 Q15.05 6.6 14.05 8.7" fill="url(#gradient7)" fill-rule="evenodd" stroke="none"/>
      <path d="M10.05 10.8 L13.3 9.15 14.05 8.7 15.6 7.25 16.05 6.8 Q16.35 8.7 15.35 10.85 L14.3 12.6 10.05 10.8" fill="url(#gradient8)" fill-rule="evenodd" stroke="none"/>
      <path d="M6.05 8.7 L6.8 9.15 10.05 10.8 5.8 12.6 4.75 10.85 Q3.8 8.7 4.1 6.8 L4.5 7.25 6.05 8.7" fill="url(#gradient9)" fill-rule="evenodd" stroke="none"/>
      <path d="M10.05 10.5 L10.05 10.8 6.8 9.15 6.05 8.7 Q5.05 6.6 5.1 5.15 6.5 6.95 7.4 7.6 L8.3 8.3 9.1 8.9 Q9.95 9.7 10.05 10.5" fill="url(#gradient10)" fill-rule="evenodd" stroke="none"/>
      <path d="M10.05 14.4 L9.7 14.4 9.55 14.35 9.1 14.3 Q8.15 14.25 7.85 14.55 4.75 17.65 3.7 21.75 L3.7 21.8 3.6 21.85 1.7 22.6 1.65 22.6 1.15 21.45 1.15 21.4 1.7 20.85 2.1 20.7 1.5 19.8 Q3.3 17.35 6.1 14.8 L8.6 12.75 10.05 14.4" fill="url(#gradient11)" fill-rule="evenodd" stroke="none"/>
      <path d="M10.05 14.4 L11.5 12.75 14.0 14.8 17.85 18.8 18.6 19.8 18.0 20.7 18.4 20.85 18.95 21.4 18.95 21.45 18.45 22.6 18.4 22.6 16.45 21.8 16.45 21.75 15.35 18.8 Q14.2 16.5 12.3 14.55 12.0 14.25 11.0 14.3 L10.75 14.35 10.45 14.35 10.05 14.4" fill="url(#gradient12)" fill-rule="evenodd" stroke="none"/>
      <path d="M14.1 10.6 Q14.95 9.8 15.1 10.3 L15.6 8.1 14.3 9.2 13.85 9.45 Q14.25 9.8 14.1 10.6 M13.45 8.75 Q13.3 8.75 13.05 8.9 L12.65 9.2 12.55 8.3 11.75 8.85 Q10.85 9.45 10.8 10.45 L13.15 9.25 13.45 8.75 M12.95 8.05 L12.95 8.7 Q13.5 8.25 13.7 8.3 L14.35 6.7 12.95 8.05 M14.25 10.8 L13.75 11.15 Q13.9 10.1 13.35 9.75 L10.85 11.15 10.05 10.8 9.25 11.15 6.7 9.75 Q6.15 10.1 6.3 11.15 L5.8 10.8 5.15 10.75 6.3 12.4 5.8 12.6 4.75 10.85 Q3.8 8.7 4.1 6.8 L4.5 7.25 6.05 8.7 Q5.05 6.6 5.1 5.15 6.5 6.95 7.4 7.6 L9.1 8.9 Q9.95 9.7 10.05 10.5 L10.05 10.45 Q10.2 9.65 11.0 8.9 L12.75 7.6 15.0 5.15 Q15.05 6.6 14.05 8.7 L15.6 7.25 16.05 6.8 Q16.35 8.7 15.35 10.85 L14.3 12.6 13.8 12.4 14.9 10.75 14.25 10.8 M4.95 10.3 Q5.1 9.8 5.95 10.6 5.8 9.8 6.2 9.45 L5.75 9.2 4.45 8.1 Q4.55 9.3 4.95 10.3 M7.1 8.05 L5.7 6.7 6.35 8.3 7.1 8.7 7.1 8.05 M6.9 9.2 L9.25 10.4 Q9.15 9.45 8.3 8.85 L7.5 8.3 7.4 9.2 7.0 8.9 6.6 8.75 6.9 9.2 M9.3 14.0 L8.7 13.35 Q6.3 14.55 1.85 20.3 L1.5 19.8 Q3.3 17.35 6.1 14.8 L8.6 12.75 10.05 14.4 11.5 12.75 14.0 14.8 Q16.85 17.35 18.6 19.8 L18.3 20.3 Q13.85 14.55 11.45 13.35 L10.85 14.0 12.1 14.0 Q14.65 16.05 16.15 19.25 16.9 20.85 17.1 22.1 L16.45 21.8 16.45 21.75 Q15.35 17.65 12.3 14.55 12.0 14.25 11.0 14.3 L10.75 14.35 10.45 14.35 10.05 14.4 9.7 14.4 9.55 14.35 9.1 14.3 Q8.15 14.25 7.85 14.55 4.75 17.65 3.7 21.75 L3.7 21.8 3.6 21.85 3.05 22.1 Q3.25 20.85 4.0 19.25 5.5 16.05 8.05 14.0 L9.3 14.0" fill="#ffffcb" fill-opacity="0.8" fill-rule="evenodd" stroke="none"/>
      <path d="M10.05 10.8 L11.85 12.05 14.2 13.65 17.05 11.35 17.45 12.75 13.7 14.55 11.5 12.75 10.05 14.4 8.6 12.75 6.4 14.55 2.65 12.75 3.1 11.35 6.15 13.7 8.3 12.1 10.05 10.8 M9.0 12.5 L10.05 13.7 11.05 12.5 10.05 11.4 9.0 12.5" fill="url(#gradient13)" fill-rule="evenodd" stroke="none"/>
      <path d="M16.95 10.95 L17.05 11.35 14.2 13.65 11.85 12.05 10.05 10.8 14.3 12.6 16.95 10.95 M10.05 10.8 L8.3 12.1 6.15 13.7 3.1 11.35 3.2 10.95 5.8 12.6 10.05 10.8" fill="#332120" fill-rule="evenodd" stroke="none"/>
      <path d="M10.4 6.2 L10.55 5.85 10.4 5.45 10.0 5.3 Q9.8 5.3 9.65 5.45 9.5 5.6 9.5 5.85 L9.65 6.2 10.0 6.35 10.4 6.2 M10.7 5.15 L11.0 5.85 10.7 6.5 10.05 6.8 9.35 6.5 Q9.1 6.25 9.15 5.85 9.1 5.45 9.35 5.2 L9.4 5.15 10.05 4.95 Q10.45 4.9 10.7 5.15" fill="url(#gradient14)" fill-rule="evenodd" stroke="none"/>
      <path d="M10.4 6.2 L10.0 6.35 9.65 6.2 9.5 5.85 Q9.5 5.6 9.65 5.45 9.8 5.3 10.0 5.3 L10.4 5.45 10.55 5.85 10.4 6.2" fill="url(#gradient15)" fill-rule="evenodd" stroke="none"/>
      <path d="M10.0 5.05 Q10.0 3.95 11.05 3.3 L12.1 2.85 11.85 4.25 Q11.1 5.1 10.0 5.1 L10.0 5.05" fill="url(#gradient16)" fill-rule="evenodd" stroke="none"/>
      <path d="M10.0 5.05 Q8.9 5.05 8.15 4.2 L7.9 2.8 8.95 3.25 Q10.0 3.9 10.0 5.05" fill="url(#gradient17)" fill-rule="evenodd" stroke="none"/>
      <path d="M20.35 18.25 L21.1 18.2 20.15 18.8 Q19.3 19.5 19.4 20.35 19.45 20.95 19.85 21.35 L19.85 21.4 18.95 21.4 18.4 20.85 18.0 20.7 18.6 19.8 19.5 18.8 Q19.95 18.4 20.35 18.25" fill="url(#gradient18)" fill-rule="evenodd" stroke="none"/>
      <path d="M0.7 20.35 Q0.85 19.15 -1.0 18.2 L-0.25 18.25 Q0.55 18.55 1.5 19.8 L2.1 20.7 1.7 20.85 1.15 21.4 0.25 21.4 0.25 21.35 Q0.65 20.95 0.7 20.35" fill="url(#gradient19)" fill-rule="evenodd" stroke="none"/>
      <path d="M19.85 21.4 L19.85 21.35 Q19.45 20.95 19.4 20.35 19.3 19.5 20.15 18.8 L21.1 18.2 21.15 18.2 21.2 18.25 20.65 18.8 Q19.8 19.75 20.3 20.55 L21.15 21.35 19.85 21.4" fill="url(#gradient20)" fill-rule="evenodd" stroke="none"/>
      <path d="M20.3 24.05 L20.35 24.1 20.55 25.05 20.6 25.1 18.85 25.75 19.1 25.1 18.9 24.3 Q18.4 23.1 16.9 22.7 L16.25 21.9 16.3 21.85 16.45 21.75 16.45 21.8 18.4 22.6 20.3 24.05" fill="url(#gradient21)" fill-rule="evenodd" stroke="none"/>
      <path d="M20.55 25.05 L20.9 24.15 21.8 24.0 21.85 24.0 22.15 24.05 Q21.75 24.1 21.5 24.55 L21.3 25.0 Q21.45 26.6 22.1 26.8 L22.8 26.65 Q22.65 27.35 21.95 27.6 L21.1 27.4 20.6 25.1 20.55 25.05" fill="url(#gradient22)" fill-rule="evenodd" stroke="none"/>
      <path d="M19.1 25.1 L18.45 24.55 18.4 24.45 17.8 24.0 17.15 23.65 Q16.35 24.05 16.15 24.75 L16.1 25.25 16.05 25.2 15.9 25.0 15.85 24.25 Q15.95 23.2 16.85 22.7 L16.9 22.7 Q18.4 23.1 18.9 24.3 L19.1 25.1" fill="url(#gradient23)" fill-rule="evenodd" stroke="none"/>
      <path d="M21.3 28.45 Q21.05 30.15 20.1 31.15 L19.2 31.8 18.1 30.1 Q19.15 30.15 19.45 29.5 L19.55 28.8 17.95 28.85 18.0 28.85 Q19.25 28.55 19.7 27.85 19.85 25.8 18.8 25.8 L18.85 25.75 20.6 25.1 21.1 27.4 21.3 28.4 21.3 28.45" fill="url(#gradient24)" fill-rule="evenodd" stroke="none"/>
      <path d="M21.95 27.6 Q21.95 29.05 23.15 29.0 L23.25 30.5 Q22.05 30.45 21.3 28.5 L21.3 28.45 21.3 28.4 21.1 27.4 21.95 27.6" fill="url(#gradient25)" fill-rule="evenodd" stroke="none"/>
      <path d="M-1.05 21.35 L-0.2 20.55 Q0.45 19.55 -1.1 18.25 L-1.05 18.2 -1.0 18.2 Q0.85 19.15 0.7 20.35 0.65 20.95 0.25 21.35 L0.25 21.4 -1.05 21.35" fill="url(#gradient26)" fill-rule="evenodd" stroke="none"/>
      <path d="M3.2 22.7 L3.25 22.7 Q4.15 23.2 4.25 24.25 L4.2 25.0 4.05 25.2 4.0 25.25 3.95 24.75 Q3.75 24.05 2.95 23.65 L2.3 24.0 1.7 24.45 1.65 24.55 1.0 25.1 1.2 24.3 Q1.7 23.1 3.2 22.7" fill="url(#gradient27)" fill-rule="evenodd" stroke="none"/>
      <path d="M-0.2 24.05 L1.7 22.6 3.65 21.8 3.65 21.75 3.8 21.85 3.85 21.9 3.2 22.7 Q1.7 23.1 1.2 24.3 L1.0 25.1 1.25 25.75 -0.5 25.1 -0.45 25.05 -0.25 24.1 -0.2 24.05" fill="url(#gradient28)" fill-rule="evenodd" stroke="none"/>
      <path d="M0.25 21.4 L0.95 22.55 -0.2 24.05 -0.35 22.8 -1.1 21.35 -1.05 21.35 0.25 21.4" fill="url(#gradient29)" fill-rule="evenodd" stroke="none"/>
      <path d="M1.25 25.75 L1.3 25.8 Q0.25 25.8 0.4 27.85 0.85 28.55 2.1 28.85 L2.15 28.85 0.55 28.8 0.65 29.5 Q0.95 30.15 2.0 30.1 L0.9 31.8 0.0 31.15 Q-0.95 30.15 -1.2 28.45 L-1.2 28.4 -0.95 27.4 -0.5 25.1 1.25 25.75" fill="url(#gradient30)" fill-rule="evenodd" stroke="none"/>
      <path d="M-1.85 27.6 Q-2.55 27.35 -2.7 26.65 L-2.0 26.8 Q-1.35 26.6 -1.2 25.0 L-1.4 24.55 Q-1.65 24.1 -2.05 24.05 L-1.75 24.0 -1.7 24.0 -0.8 24.15 -0.45 25.05 -0.5 25.1 -0.95 27.4 -1.85 27.6" fill="url(#gradient31)" fill-rule="evenodd" stroke="none"/>
      <path d="M-1.2 28.45 L-1.2 28.5 Q-1.95 30.45 -3.15 30.5 L-3.05 29.0 Q-1.85 29.05 -1.85 27.6 L-0.95 27.4 -1.2 28.4 -1.2 28.45" fill="url(#gradient32)" fill-rule="evenodd" stroke="none"/>
      <path d="M22.4 34.6 Q21.6 34.3 20.8 33.6 L19.55 32.25 Q20.95 31.55 21.5 29.45 L21.5 29.4 21.65 30.1 22.4 34.6" fill="url(#gradient33)" fill-rule="evenodd" stroke="none"/>
      <path d="M21.65 30.1 L21.55 29.65 Q22.0 31.0 23.25 31.25 L23.25 31.3 22.9 33.6 22.4 34.6 21.65 30.1" fill="url(#gradient34)" fill-rule="evenodd" stroke="none"/>
      <path d="M-1.45 29.65 L-1.4 29.4 -1.4 29.45 Q-0.85 31.55 0.55 32.25 -0.85 34.1 -2.3 34.6 L-1.45 29.65" fill="url(#gradient35)" fill-rule="evenodd" stroke="none"/>
      <path d="M-1.45 29.65 L-2.3 34.6 -2.8 33.6 -3.15 31.3 -3.15 31.25 Q-1.9 31.0 -1.45 29.65" fill="url(#gradient36)" fill-rule="evenodd" stroke="none"/>
      <path d="M19.85 21.4 L21.15 21.35 21.2 21.35 20.45 22.8 20.3 24.05 19.15 22.55 19.85 21.4" fill="url(#gradient37)" fill-rule="evenodd" stroke="none"/>
      <path d="M20.3 24.05 L18.4 22.6 18.45 22.6 18.95 21.45 18.95 21.4 19.85 21.4 19.15 22.55 20.3 24.05" fill="url(#gradient38)" fill-rule="evenodd" stroke="none"/>
      <path d="M0.25 21.4 L1.15 21.4 1.15 21.45 1.65 22.6 1.7 22.6 -0.2 24.05 0.95 22.55 0.25 21.4" fill="url(#gradient39)" fill-rule="evenodd" stroke="none"/>
      <path d="M3.25 22.7 L3.2 22.7 3.85 21.9 Q5.05 22.9 4.65 24.1 L4.2 25.0 4.25 24.25 Q4.15 23.2 3.25 22.7" fill="url(#gradient40)" fill-rule="evenodd" stroke="none"/>
      <path d="M16.9 22.7 L16.85 22.7 Q15.95 23.2 15.85 24.25 L15.9 25.0 15.45 24.1 Q15.05 22.9 16.25 21.9 L16.9 22.7" fill="url(#gradient41)" fill-rule="evenodd" stroke="none"/>
      <path d="M17.75 26.15 L18.8 25.8 Q19.85 25.8 19.7 27.85 19.25 28.55 18.0 28.85 19.2 28.35 19.25 27.25 L19.0 26.25 17.8 26.15 17.75 26.15" fill="url(#gradient42)" fill-rule="evenodd" stroke="none"/>
      <path d="M1.3 25.8 L2.35 26.15 2.3 26.15 1.1 26.25 0.85 27.25 Q0.9 28.35 2.1 28.85 0.85 28.55 0.4 27.85 0.25 25.8 1.3 25.8" fill="url(#gradient43)" fill-rule="evenodd" stroke="none"/>
      <path d="M21.5 29.4 L21.5 29.45 Q20.95 31.55 19.55 32.25 L19.35 32.05 19.2 31.8 20.1 31.15 Q21.05 30.15 21.3 28.45 L21.3 28.5 21.5 29.4" fill="url(#gradient44)" fill-rule="evenodd" stroke="none"/>
      <path d="M21.3 28.5 Q22.05 30.45 23.25 30.5 L23.25 30.65 23.25 31.25 Q22.0 31.0 21.55 29.65 L21.5 29.4 21.3 28.5" fill="url(#gradient45)" fill-rule="evenodd" stroke="none"/>
      <path d="M-1.2 28.5 L-1.2 28.45 Q-0.95 30.15 0.0 31.15 L0.9 31.8 0.75 32.05 0.55 32.25 Q-0.85 31.55 -1.4 29.45 L-1.4 29.4 -1.2 28.5" fill="url(#gradient46)" fill-rule="evenodd" stroke="none"/>
      <path d="M-1.2 28.5 L-1.4 29.4 -1.45 29.65 Q-1.9 31.0 -3.15 31.25 L-3.15 30.65 -3.15 30.5 Q-1.95 30.45 -1.2 28.5" fill="url(#gradient47)" fill-rule="evenodd" stroke="none"/>
      <path d="M21.8 24.0 L20.9 24.15 20.55 25.05 20.35 24.1 20.3 24.05 20.45 22.8 Q20.75 23.6 21.8 24.0" fill="url(#gradient48)" fill-rule="evenodd" stroke="none"/>
      <path d="M18.8 25.8 L17.75 26.15 17.65 26.15 Q18.4 25.75 18.5 24.75 L18.45 24.55 19.1 25.1 18.85 25.75 18.8 25.8" fill="url(#gradient49)" fill-rule="evenodd" stroke="none"/>
      <path d="M2.35 26.15 L1.3 25.8 1.25 25.75 1.0 25.1 1.65 24.55 1.6 24.75 Q1.7 25.75 2.45 26.15 L2.35 26.15" fill="url(#gradient50)" fill-rule="evenodd" stroke="none"/>
      <path d="M-0.2 24.05 L-0.25 24.1 -0.45 25.05 -0.8 24.15 -1.7 24.0 Q-0.65 23.6 -0.35 22.8 L-0.2 24.05" fill="url(#gradient51)" fill-rule="evenodd" stroke="none"/>
    </g>
    <linearGradient gradientTransform="matrix(0.0, 0.0017, -0.0018, 0.0, 10.05, 8.75)" gradientUnits="userSpaceOnUse" id="gradient0" spreadMethod="pad" x1="-819.2" x2="819.2">
      <stop offset="0.0" stop-color="#a66b24" stop-opacity="0.0"/>
      <stop offset="1.0" stop-color="#663f14" stop-opacity="0.8"/>
    </linearGradient>
    <linearGradient gradientTransform="matrix(0.033, -0.0111, 0.0058, 0.0173, 36.45, -4.65)" gradientUnits="userSpaceOnUse" id="gradient1" spreadMethod="pad" x1="-819.2" x2="819.2">
      <stop offset="0.25098039215686274" stop-color="#190703"/>
      <stop offset="0.8470588235294118" stop-color="#695541"/>
      <stop offset="1.0" stop-color="#cea57e"/>
    </linearGradient>
    <linearGradient gradientTransform="matrix(-0.0311, -0.0124, 0.0111, -0.0277, -14.4, -13.65)" gradientUnits="userSpaceOnUse" id="gradient2" spreadMethod="pad" x1="-819.2" x2="819.2">
      <stop offset="0.25098039215686274" stop-color="#190703"/>
      <stop offset="0.8470588235294118" stop-color="#695541"/>
      <stop offset="1.0" stop-color="#cea57e"/>
    </linearGradient>
    <linearGradient gradientTransform="matrix(0.0, 0.0018, -0.0022, 0.0, 14.85, 6.9)" gradientUnits="userSpaceOnUse" id="gradient3" spreadMethod="pad" x1="-819.2" x2="819.2">
      <stop offset="0.0" stop-color="#695541"/>
      <stop offset="1.0" stop-color="#190703"/>
    </linearGradient>
    <linearGradient gradientTransform="matrix(0.0, 0.0036, -0.0035, 0.0, 15.8, 9.75)" gradientUnits="userSpaceOnUse" id="gradient4" spreadMethod="pad" x1="-819.2" x2="819.2">
      <stop offset="0.0" stop-color="#695541"/>
      <stop offset="1.0" stop-color="#190703"/>
    </linearGradient>
    <linearGradient gradientTransform="matrix(0.0, 0.0019, -0.0022, 0.0, 5.3, 6.9)" gradientUnits="userSpaceOnUse" id="gradient5" spreadMethod="pad" x1="-819.2" x2="819.2">
      <stop offset="0.0" stop-color="#695541"/>
      <stop offset="1.0" stop-color="#190703"/>
    </linearGradient>
    <linearGradient gradientTransform="matrix(1.0E-4, 0.0033, -0.0035, 0.0, 4.3, 9.7)" gradientUnits="userSpaceOnUse" id="gradient6" spreadMethod="pad" x1="-819.2" x2="819.2">
      <stop offset="0.0" stop-color="#695541"/>
      <stop offset="1.0" stop-color="#190703"/>
    </linearGradient>
    <linearGradient gradientTransform="matrix(-0.003, 0.0, 0.0, -0.0034, 12.5, 8.05)" gradientUnits="userSpaceOnUse" id="gradient7" spreadMethod="pad" x1="-819.2" x2="819.2">
      <stop offset="0.0" stop-color="#f5e6cf"/>
      <stop offset="0.5098039215686274" stop-color="#705b46"/>
      <stop offset="1.0" stop-color="#1a0806"/>
    </linearGradient>
    <linearGradient gradientTransform="matrix(-0.0031, 0.0, 0.0, -0.0035, 13.45, 9.95)" gradientUnits="userSpaceOnUse" id="gradient8" spreadMethod="pad" x1="-819.2" x2="819.2">
      <stop offset="0.0" stop-color="#f5e6cf"/>
      <stop offset="0.5098039215686274" stop-color="#705b46"/>
      <stop offset="1.0" stop-color="#1a0806"/>
    </linearGradient>
    <linearGradient gradientTransform="matrix(0.0037, 0.0, 0.0, 0.0035, 7.05, 9.7)" gradientUnits="userSpaceOnUse" id="gradient9" spreadMethod="pad" x1="-819.2" x2="819.2">
      <stop offset="0.0" stop-color="#f5e6cf"/>
      <stop offset="0.5098039215686274" stop-color="#705b46"/>
      <stop offset="1.0" stop-color="#1a0806"/>
    </linearGradient>
    <linearGradient gradientTransform="matrix(0.003, 0.0, 0.0, 0.0034, 7.55, 7.95)" gradientUnits="userSpaceOnUse" id="gradient10" spreadMethod="pad" x1="-819.2" x2="819.2">
      <stop offset="0.0" stop-color="#f5e6cf"/>
      <stop offset="0.5098039215686274" stop-color="#705b46"/>
      <stop offset="1.0" stop-color="#1a0806"/>
    </linearGradient>
    <linearGradient gradientTransform="matrix(-0.0014, 0.0021, -0.005, -0.0033, 4.35, 17.5)" gradientUnits="userSpaceOnUse" id="gradient11" spreadMethod="pad" x1="-819.2" x2="819.2">
      <stop offset="0.0" stop-color="#f5e6cf"/>
      <stop offset="0.5098039215686274" stop-color="#705b46"/>
      <stop offset="1.0" stop-color="#1a0806"/>
    </linearGradient>
    <linearGradient gradientTransform="matrix(0.0011, 0.0026, -0.0033, 0.0014, 11.75, 19.25)" gradientUnits="userSpaceOnUse" id="gradient12" spreadMethod="pad" x1="-819.2" x2="819.2">
      <stop offset="0.0" stop-color="#f5e6cf"/>
      <stop offset="0.5098039215686274" stop-color="#705b46"/>
      <stop offset="1.0" stop-color="#1a0806"/>
    </linearGradient>
    <linearGradient gradientTransform="matrix(0.009, 0.0, 0.0, 0.0023, 10.05, 12.65)" gradientUnits="userSpaceOnUse" id="gradient13" spreadMethod="pad" x1="-819.2" x2="819.2">
      <stop offset="0.09803921568627451" stop-color="#231716"/>
      <stop offset="0.24705882352941178" stop-color="#eddec9"/>
      <stop offset="0.396078431372549" stop-color="#3c2826"/>
      <stop offset="0.6078431372549019" stop-color="#3c2826"/>
      <stop offset="0.7529411764705882" stop-color="#eddec9"/>
      <stop offset="0.8901960784313725" stop-color="#231716"/>
    </linearGradient>
    <radialGradient cx="0" cy="0" gradientTransform="matrix(7.0E-4, 0.0, 0.0, 7.0E-4, 9.4, 6.2)" gradientUnits="userSpaceOnUse" id="gradient14" r="819.2" spreadMethod="pad">
      <stop offset="0.0" stop-color="#ffffff"/>
      <stop offset="1.0" stop-color="#4a2b1f"/>
    </radialGradient>
    <radialGradient cx="0" cy="0" gradientTransform="matrix(9.0E-4, 0.0, 0.0, 9.0E-4, 9.9, 5.5)" gradientUnits="userSpaceOnUse" id="gradient15" r="819.2" spreadMethod="pad">
      <stop offset="0.21568627450980393" stop-color="#ffffff"/>
      <stop offset="0.5647058823529412" stop-color="#ff0000"/>
    </radialGradient>
    <linearGradient gradientTransform="matrix(-0.0013, 0.0, 0.0, -0.0014, 11.05, 3.95)" gradientUnits="userSpaceOnUse" id="gradient16" spreadMethod="pad" x1="-819.2" x2="819.2">
      <stop offset="0.0" stop-color="#695541"/>
      <stop offset="1.0" stop-color="#190703"/>
    </linearGradient>
    <linearGradient gradientTransform="matrix(0.0013, 0.0, 0.0, 0.0014, 8.95, 3.9)" gradientUnits="userSpaceOnUse" id="gradient17" spreadMethod="pad" x1="-819.2" x2="819.2">
      <stop offset="0.0" stop-color="#695541"/>
      <stop offset="1.0" stop-color="#190703"/>
    </linearGradient>
    <linearGradient gradientTransform="matrix(-9.0E-4, 0.0019, -0.0018, -9.0E-4, 19.65, 19.65)" gradientUnits="userSpaceOnUse" id="gradient18" spreadMethod="pad" x1="-819.2" x2="819.2">
      <stop offset="0.21568627450980393" stop-color="#251311"/>
      <stop offset="0.5058823529411764" stop-color="#ecddc9"/>
    </linearGradient>
    <linearGradient gradientTransform="matrix(9.0E-4, 0.0019, 0.0018, -9.0E-4, 0.45, 19.65)" gradientUnits="userSpaceOnUse" id="gradient19" spreadMethod="pad" x1="-819.2" x2="819.2">
      <stop offset="0.21568627450980393" stop-color="#251311"/>
      <stop offset="0.5058823529411764" stop-color="#ecddc9"/>
    </linearGradient>
    <linearGradient gradientTransform="matrix(5.0E-4, -0.0013, 0.0018, 7.0E-4, 20.2, 19.95)" gradientUnits="userSpaceOnUse" id="gradient20" spreadMethod="pad" x1="-819.2" x2="819.2">
      <stop offset="0.0" stop-color="#f5e6cf"/>
      <stop offset="0.5098039215686274" stop-color="#705b46"/>
      <stop offset="1.0" stop-color="#1a0806"/>
    </linearGradient>
    <linearGradient gradientTransform="matrix(-0.0026, -0.0012, 0.001, -0.0022, 18.4, 23.75)" gradientUnits="userSpaceOnUse" id="gradient21" spreadMethod="pad" x1="-819.2" x2="819.2">
      <stop offset="0.0" stop-color="#f5e6cf"/>
      <stop offset="0.5098039215686274" stop-color="#705b46"/>
      <stop offset="1.0" stop-color="#1a0806"/>
    </linearGradient>
    <linearGradient gradientTransform="matrix(0.0, -0.0017, 0.0022, 0.0, 21.65, 25.5)" gradientUnits="userSpaceOnUse" id="gradient22" spreadMethod="pad" x1="-819.2" x2="819.2">
      <stop offset="0.0" stop-color="#f5e6cf"/>
      <stop offset="0.5098039215686274" stop-color="#705b46"/>
      <stop offset="1.0" stop-color="#1a0806"/>
    </linearGradient>
    <linearGradient gradientTransform="matrix(-0.0014, -3.0E-4, 3.0E-4, -0.0015, 17.05, 23.75)" gradientUnits="userSpaceOnUse" id="gradient23" spreadMethod="pad" x1="-819.2" x2="819.2">
      <stop offset="0.0" stop-color="#f5e6cf"/>
      <stop offset="0.5098039215686274" stop-color="#705b46"/>
      <stop offset="1.0" stop-color="#1a0806"/>
    </linearGradient>
    <linearGradient gradientTransform="matrix(-9.0E-4, -0.0027, 0.0039, -0.0013, 19.75, 28.3)" gradientUnits="userSpaceOnUse" id="gradient24" spreadMethod="pad" x1="-819.2" x2="819.2">
      <stop offset="0.0" stop-color="#f5e6cf"/>
      <stop offset="0.5098039215686274" stop-color="#705b46"/>
      <stop offset="1.0" stop-color="#1a0806"/>
    </linearGradient>
    <linearGradient gradientTransform="matrix(2.0E-4, -0.0015, 0.0019, 3.0E-4, 22.15, 28.95)" gradientUnits="userSpaceOnUse" id="gradient25" spreadMethod="pad" x1="-819.2" x2="819.2">
      <stop offset="0.0" stop-color="#f5e6cf"/>
      <stop offset="0.5098039215686274" stop-color="#705b46"/>
      <stop offset="1.0" stop-color="#1a0806"/>
    </linearGradient>
    <linearGradient gradientTransform="matrix(-5.0E-4, -0.0013, -0.0018, 7.0E-4, -0.1, 19.95)" gradientUnits="userSpaceOnUse" id="gradient26" spreadMethod="pad" x1="-819.2" x2="819.2">
      <stop offset="0.0" stop-color="#f5e6cf"/>
      <stop offset="0.5098039215686274" stop-color="#705b46"/>
      <stop offset="1.0" stop-color="#1a0806"/>
    </linearGradient>
    <linearGradient gradientTransform="matrix(0.0014, -3.0E-4, -3.0E-4, -0.0015, 3.05, 23.75)" gradientUnits="userSpaceOnUse" id="gradient27" spreadMethod="pad" x1="-819.2" x2="819.2">
      <stop offset="0.0" stop-color="#f5e6cf"/>
      <stop offset="0.5098039215686274" stop-color="#705b46"/>
      <stop offset="1.0" stop-color="#1a0806"/>
    </linearGradient>
    <linearGradient gradientTransform="matrix(0.0026, -0.0012, -0.001, -0.0022, 1.7, 23.75)" gradientUnits="userSpaceOnUse" id="gradient28" spreadMethod="pad" x1="-819.2" x2="819.2">
      <stop offset="0.0" stop-color="#f5e6cf"/>
      <stop offset="0.5098039215686274" stop-color="#705b46"/>
      <stop offset="1.0" stop-color="#1a0806"/>
    </linearGradient>
    <linearGradient gradientTransform="matrix(-4.0E-4, -0.0012, -0.0016, 5.0E-4, 0.0, 22.15)" gradientUnits="userSpaceOnUse" id="gradient29" spreadMethod="pad" x1="-819.2" x2="819.2">
      <stop offset="0.0" stop-color="#f5e6cf"/>
      <stop offset="0.5098039215686274" stop-color="#705b46"/>
      <stop offset="1.0" stop-color="#1a0806"/>
    </linearGradient>
    <linearGradient gradientTransform="matrix(9.0E-4, -0.0027, -0.0039, -0.0013, 0.35, 28.3)" gradientUnits="userSpaceOnUse" id="gradient30" spreadMethod="pad" x1="-819.2" x2="819.2">
      <stop offset="0.0" stop-color="#f5e6cf"/>
      <stop offset="0.5098039215686274" stop-color="#705b46"/>
      <stop offset="1.0" stop-color="#1a0806"/>
    </linearGradient>
    <linearGradient gradientTransform="matrix(0.0, -0.0017, -0.0022, 0.0, -1.55, 25.5)" gradientUnits="userSpaceOnUse" id="gradient31" spreadMethod="pad" x1="-819.2" x2="819.2">
      <stop offset="0.0" stop-color="#f5e6cf"/>
      <stop offset="0.5098039215686274" stop-color="#705b46"/>
      <stop offset="1.0" stop-color="#1a0806"/>
    </linearGradient>
    <linearGradient gradientTransform="matrix(-2.0E-4, -0.0015, -0.0019, 3.0E-4, -2.05, 28.95)" gradientUnits="userSpaceOnUse" id="gradient32" spreadMethod="pad" x1="-819.2" x2="819.2">
      <stop offset="0.0" stop-color="#f5e6cf"/>
      <stop offset="0.5098039215686274" stop-color="#705b46"/>
      <stop offset="1.0" stop-color="#1a0806"/>
    </linearGradient>
    <linearGradient gradientTransform="matrix(-1.0E-4, -0.0019, 0.0031, -2.0E-4, 22.1, 31.95)" gradientUnits="userSpaceOnUse" id="gradient33" spreadMethod="pad" x1="-819.2" x2="819.2">
      <stop offset="0.0" stop-color="#f5e6cf"/>
      <stop offset="0.5098039215686274" stop-color="#705b46"/>
      <stop offset="1.0" stop-color="#1a0806"/>
    </linearGradient>
    <linearGradient gradientTransform="matrix(-2.0E-4, -0.0022, 0.003, -2.0E-4, 22.65, 33.05)" gradientUnits="userSpaceOnUse" id="gradient34" spreadMethod="pad" x1="-819.2" x2="819.2">
      <stop offset="0.0" stop-color="#f5e6cf"/>
      <stop offset="0.5098039215686274" stop-color="#705b46"/>
      <stop offset="1.0" stop-color="#1a0806"/>
    </linearGradient>
    <linearGradient gradientTransform="matrix(1.0E-4, -0.0017, -0.0031, -2.0E-4, -1.95, 32.05)" gradientUnits="userSpaceOnUse" id="gradient35" spreadMethod="pad" x1="-819.2" x2="819.2">
      <stop offset="0.0" stop-color="#f5e6cf"/>
      <stop offset="0.5098039215686274" stop-color="#705b46"/>
      <stop offset="1.0" stop-color="#1a0806"/>
    </linearGradient>
    <linearGradient gradientTransform="matrix(0.0, -0.0019, -0.003, 0.0, -2.55, 33.2)" gradientUnits="userSpaceOnUse" id="gradient36" spreadMethod="pad" x1="-819.2" x2="819.2">
      <stop offset="0.0" stop-color="#f5e6cf"/>
      <stop offset="0.5098039215686274" stop-color="#705b46"/>
      <stop offset="1.0" stop-color="#1a0806"/>
    </linearGradient>
    <linearGradient gradientTransform="matrix(4.0E-4, -0.0012, 0.0016, 5.0E-4, 20.0, 22.25)" gradientUnits="userSpaceOnUse" id="gradient37" spreadMethod="pad" x1="-819.2" x2="819.2">
      <stop offset="0.0" stop-color="#f5e6cf"/>
      <stop offset="0.5098039215686274" stop-color="#705b46"/>
      <stop offset="1.0" stop-color="#1a0806"/>
    </linearGradient>
    <linearGradient gradientTransform="matrix(0.0, -0.0015, 0.0016, 1.0E-4, 19.1, 22.4)" gradientUnits="userSpaceOnUse" id="gradient38" spreadMethod="pad" x1="-819.2" x2="819.2">
      <stop offset="0.5058823529411764" stop-color="#ecddc9"/>
      <stop offset="0.796078431372549" stop-color="#48332e"/>
    </linearGradient>
    <linearGradient gradientTransform="matrix(0.0, -0.0015, -0.0016, 1.0E-4, 1.0, 22.4)" gradientUnits="userSpaceOnUse" id="gradient39" spreadMethod="pad" x1="-819.2" x2="819.2">
      <stop offset="0.5058823529411764" stop-color="#ecddc9"/>
      <stop offset="0.796078431372549" stop-color="#48332e"/>
    </linearGradient>
    <linearGradient gradientTransform="matrix(-0.0011, -6.0E-4, -0.001, 0.0016, 4.0, 23.45)" gradientUnits="userSpaceOnUse" id="gradient40" spreadMethod="pad" x1="-819.2" x2="819.2">
      <stop offset="0.5058823529411764" stop-color="#ecddc9"/>
      <stop offset="0.796078431372549" stop-color="#48332e"/>
    </linearGradient>
    <linearGradient gradientTransform="matrix(0.0011, -6.0E-4, 0.001, 0.0016, 16.1, 23.45)" gradientUnits="userSpaceOnUse" id="gradient41" spreadMethod="pad" x1="-819.2" x2="819.2">
      <stop offset="0.5058823529411764" stop-color="#ecddc9"/>
      <stop offset="0.796078431372549" stop-color="#48332e"/>
    </linearGradient>
    <linearGradient gradientTransform="matrix(-5.0E-4, -0.0014, 0.0017, -7.0E-4, 18.65, 27.35)" gradientUnits="userSpaceOnUse" id="gradient42" spreadMethod="pad" x1="-819.2" x2="819.2">
      <stop offset="0.5058823529411764" stop-color="#ecddc9"/>
      <stop offset="0.796078431372549" stop-color="#48332e"/>
    </linearGradient>
    <linearGradient gradientTransform="matrix(5.0E-4, -0.0014, -0.0017, -7.0E-4, 1.45, 27.35)" gradientUnits="userSpaceOnUse" id="gradient43" spreadMethod="pad" x1="-819.2" x2="819.2">
      <stop offset="0.5058823529411764" stop-color="#ecddc9"/>
      <stop offset="0.796078431372549" stop-color="#48332e"/>
    </linearGradient>
    <linearGradient gradientTransform="matrix(0.0019, -0.001, 0.0011, 0.002, 20.05, 30.7)" gradientUnits="userSpaceOnUse" id="gradient44" spreadMethod="pad" x1="-819.2" x2="819.2">
      <stop offset="0.20392156862745098" stop-color="#48332e"/>
      <stop offset="0.5058823529411764" stop-color="#ecddc9"/>
      <stop offset="0.796078431372549" stop-color="#48332e"/>
    </linearGradient>
    <linearGradient gradientTransform="matrix(-0.0014, -2.0E-4, 2.0E-4, -0.0016, 22.4, 30.35)" gradientUnits="userSpaceOnUse" id="gradient45" spreadMethod="pad" x1="-819.2" x2="819.2">
      <stop offset="0.20392156862745098" stop-color="#48332e"/>
      <stop offset="0.5058823529411764" stop-color="#ecddc9"/>
      <stop offset="0.796078431372549" stop-color="#48332e"/>
    </linearGradient>
    <linearGradient gradientTransform="matrix(-0.0019, -0.001, -0.0011, 0.002, -1.0, 31.85)" gradientUnits="userSpaceOnUse" id="gradient46" spreadMethod="pad" x1="-819.2" x2="819.2">
      <stop offset="0.20392156862745098" stop-color="#48332e"/>
      <stop offset="0.5058823529411764" stop-color="#ecddc9"/>
      <stop offset="0.796078431372549" stop-color="#48332e"/>
    </linearGradient>
    <linearGradient gradientTransform="matrix(0.0014, 0.0, 0.0, -0.0017, -2.25, 30.35)" gradientUnits="userSpaceOnUse" id="gradient47" spreadMethod="pad" x1="-819.2" x2="819.2">
      <stop offset="0.20392156862745098" stop-color="#48332e"/>
      <stop offset="0.5058823529411764" stop-color="#ecddc9"/>
      <stop offset="0.796078431372549" stop-color="#48332e"/>
    </linearGradient>
    <linearGradient gradientTransform="matrix(-0.0012, 2.0E-4, -2.0E-4, -0.0013, 20.85, 22.55)" gradientUnits="userSpaceOnUse" id="gradient48" spreadMethod="pad" x1="-819.2" x2="819.2">
      <stop offset="0.5058823529411764" stop-color="#ecddc9"/>
      <stop offset="0.796078431372549" stop-color="#48332e"/>
    </linearGradient>
    <linearGradient gradientTransform="matrix(4.0E-4, -9.0E-4, 9.0E-4, 4.0E-4, 18.15, 25.2)" gradientUnits="userSpaceOnUse" id="gradient49" spreadMethod="pad" x1="-819.2" x2="819.2">
      <stop offset="0.5058823529411764" stop-color="#ecddc9"/>
      <stop offset="0.796078431372549" stop-color="#48332e"/>
    </linearGradient>
    <linearGradient gradientTransform="matrix(-4.0E-4, -0.001, -9.0E-4, 4.0E-4, 1.75, 25.35)" gradientUnits="userSpaceOnUse" id="gradient50" spreadMethod="pad" x1="-819.2" x2="819.2">
      <stop offset="0.5058823529411764" stop-color="#ecddc9"/>
      <stop offset="0.796078431372549" stop-color="#48332e"/>
    </linearGradient>
    <linearGradient gradientTransform="matrix(0.0011, 3.0E-4, 3.0E-4, -0.0013, -0.55, 22.5)" gradientUnits="userSpaceOnUse" id="gradient51" spreadMethod="pad" x1="-819.2" x2="819.2">
      <stop offset="0.5058823529411764" stop-color="#ecddc9"/>
      <stop offset="0.796078431372549" stop-color="#48332e"/>
    </linearGradient>
    <g id="sprite0" transform="matrix(1.0, 0.0, 0.0, 1.0, 0.0, 0.0)">
      <use ffdec:characterId="8" height="2.3" transform="matrix(1.0, 0.0, 0.0, 1.0, 0.0, 0.0)" width="2.05" xlink:href="#shape1"/>
    </g>
    <g id="shape1" transform="matrix(1.0, 0.0, 0.0, 1.0, 0.0, 0.0)">
      <path d="M2.05 1.1 L1.05 2.3 1.05 1.1 2.05 1.1" fill="#ff19f0" fill-rule="evenodd" stroke="none"/>
      <path d="M1.05 2.3 L0.0 1.1 1.05 1.1 1.05 2.3" fill="#ff66f5" fill-rule="evenodd" stroke="none"/>
      <path d="M0.0 1.1 L1.05 0.0 1.05 1.1 0.0 1.1" fill="#ffd9fc" fill-rule="evenodd" stroke="none"/>
      <path d="M1.05 0.0 L2.05 1.1 1.05 1.1 1.05 0.0" fill="#ffb1fa" fill-rule="evenodd" stroke="none"/>
    </g>
    <g id="shape2" transform="matrix(1.0, 0.0, 0.0, 1.0, -6.8, -14.35)">
      <path d="M8.05 17.15 L8.3 16.7 8.35 16.55 8.65 16.05 9.7 14.4 10.05 14.4 10.45 14.35 10.6 14.6 11.5 16.05 11.8 16.6 11.9 16.7 12.1 17.05 11.8 16.95 11.55 16.95 11.15 17.1 10.7 17.55 10.5 17.85 10.25 15.3 10.05 17.85 Q10.05 17.35 9.4 17.3 L9.05 17.3 8.6 17.3 Q8.35 17.35 8.55 17.7 L8.75 18.1 8.05 17.5 7.95 17.4 8.05 17.15" fill="url(#gradient52)" fill-rule="evenodd" stroke="none"/>
      <path d="M8.05 17.15 L7.6 16.8 Q7.2 16.5 7.05 16.8 L6.95 17.35 Q6.75 17.15 6.8 16.8 L6.85 16.55 6.85 16.45 9.55 14.35 9.7 14.4 8.65 16.05 8.35 16.55 8.3 16.7 8.05 17.15" fill="url(#gradient53)" fill-rule="evenodd" stroke="none"/>
      <path d="M10.45 14.35 L10.75 14.35 13.05 16.8 13.05 17.05 12.9 17.4 Q13.05 16.8 12.3 17.05 L12.15 17.1 12.1 17.05 11.9 16.7 11.8 16.6 11.5 16.05 10.6 14.6 10.45 14.35" fill="url(#gradient54)" fill-rule="evenodd" stroke="none"/>
      <path d="M7.05 16.8 Q7.2 16.5 7.6 16.8 L6.95 17.35 7.05 16.8 M8.6 17.3 L9.05 17.3 9.4 17.3 8.75 18.1 8.55 17.7 Q8.35 17.35 8.6 17.3 M10.05 17.85 L10.1 14.35 10.6 17.7 10.0 18.05 10.05 17.85 M11.8 16.95 L12.1 17.05 12.15 17.1 12.2 17.3 Q12.3 17.85 11.8 18.0 L11.65 18.05 11.15 17.1 11.55 16.95 11.8 16.95 M12.9 17.4 L12.3 17.05 Q13.05 16.8 12.9 17.4" fill="#473327" fill-rule="evenodd" stroke="none"/>
      <path d="M9.95 22.2 L9.95 21.85 10.2 21.65 10.25 21.85 10.3 22.2 10.25 22.55 10.2 22.7 9.95 22.55 9.95 22.2" fill="#f2cda5" fill-rule="evenodd" stroke="none"/>
    </g>
    <linearGradient gradientTransform="matrix(-1.0E-4, -0.0018, 0.0023, -1.0E-4, 9.9, 15.7)" gradientUnits="userSpaceOnUse" id="gradient52" spreadMethod="pad" x1="-819.2" x2="819.2">
      <stop offset="0.0" stop-color="#f5e6cf"/>
      <stop offset="1.0" stop-color="#705b46"/>
    </linearGradient>
    <linearGradient gradientTransform="matrix(8.0E-4, 5.0E-4, -0.001, 0.0015, 8.0, 15.95)" gradientUnits="userSpaceOnUse" id="gradient53" spreadMethod="pad" x1="-819.2" x2="819.2">
      <stop offset="0.0" stop-color="#f5e6cf"/>
      <stop offset="1.0" stop-color="#35221a"/>
    </linearGradient>
    <linearGradient gradientTransform="matrix(-8.0E-4, 5.0E-4, -0.001, -0.0016, 11.8, 15.85)" gradientUnits="userSpaceOnUse" id="gradient54" spreadMethod="pad" x1="-819.2" x2="819.2">
      <stop offset="0.0" stop-color="#f5e6cf"/>
      <stop offset="1.0" stop-color="#35221a"/>
    </linearGradient>
  </defs>
</svg>
