<?xml version="1.0" encoding="UTF-8" standalone="no"?>
<svg xmlns:ffdec="https://www.free-decompiler.com/flash" xmlns:xlink="http://www.w3.org/1999/xlink" ffdec:objectType="frame" height="11.5px" width="8.65px" xmlns="http://www.w3.org/2000/svg">
  <g transform="matrix(1.0, 0.0, 0.0, 1.0, 0.2, -1.65)">
    <use ffdec:characterId="1" height="11.5" transform="matrix(1.0, 0.0, 0.0, 1.0, -0.2, 1.65)" width="8.65" xlink:href="#shape0"/>
  </g>
  <defs>
    <g id="shape0" transform="matrix(1.0, 0.0, 0.0, 1.0, 0.2, -1.65)">
      <path d="M8.45 10.75 L2.4 13.15 -0.2 3.95 Q0.4 -0.05 3.05 2.9 5.65 5.8 8.45 10.75" fill="#e96060" fill-rule="evenodd" stroke="none"/>
      <path d="M4.6 7.7 Q5.35 7.7 6.0 8.85 L6.05 8.85 6.05 8.8 Q6.05 7.85 6.2 7.65 L6.4 7.25 6.55 7.5 6.6 7.6 6.6 7.65 7.45 8.95 8.0 10.0 8.1 10.0 2.1 12.35 1.5 10.4 1.4 10.05 1.25 9.45 1.8 9.4 Q2.3 9.4 2.95 9.9 L3.05 9.95 2.95 9.5 Q2.95 8.9 3.25 8.4 3.7 7.7 4.6 7.7" fill="#ffffff" fill-rule="evenodd" stroke="none"/>
      <path d="M0.4 2.15 L0.7 1.9 1.25 2.75 2.6 4.7 4.4 7.65 4.7 8.2 5.7 9.05 5.85 9.6 4.85 10.35 2.7 11.3 5.05 10.85 7.75 10.0 6.35 11.2 4.8 11.85 3.1 12.45 2.25 12.85 Q1.9 12.35 1.2 9.4 L0.1 5.15 -0.15 4.3 -0.2 3.5 0.0 2.7 0.4 2.15" fill="#6d0326" fill-opacity="0.40784314" fill-rule="evenodd" stroke="none"/>
    </g>
  </defs>
</svg>
