<?xml version="1.0" encoding="UTF-8" standalone="no"?>
<svg xmlns:ffdec="https://www.free-decompiler.com/flash" xmlns:xlink="http://www.w3.org/1999/xlink" ffdec:objectType="frame" height="12.3px" width="10.4px" xmlns="http://www.w3.org/2000/svg">
  <g transform="matrix(1.0, 0.0, 0.0, 1.0, 0.1, -1.8)">
    <use ffdec:characterId="5" height="12.3" transform="matrix(1.0, 0.0, 0.0, 1.0, -0.1, 1.8)" width="10.4" xlink:href="#shape0"/>
  </g>
  <defs>
    <g id="shape0" transform="matrix(1.0, 0.0, 0.0, 1.0, 0.1, -1.8)">
      <path d="M3.6 1.9 L3.5 1.9 2.7 2.8 2.65 3.45 5.6 8.15 8.85 14.05 7.5 14.1 Q6.0 14.05 3.45 9.95 L0.25 4.55 Q-0.35 3.25 0.1 2.65 0.95 1.5 3.6 1.9" fill="#000000" fill-rule="evenodd" stroke="none"/>
      <path d="M8.85 14.05 L5.6 8.15 2.65 3.45 2.7 2.8 3.5 1.9 3.6 1.9 3.8 1.9 Q4.95 2.05 5.8 3.15 L7.75 7.0 9.75 10.8 Q10.25 11.4 10.3 12.35 10.3 13.3 9.35 13.8 L8.85 14.05" fill="url(#gradient0)" fill-rule="evenodd" stroke="none"/>
    </g>
    <linearGradient gradientTransform="matrix(0.0047, 0.0, 0.0, 0.0074, 6.45, 7.95)" gradientUnits="userSpaceOnUse" id="gradient0" spreadMethod="pad" x1="-819.2" x2="819.2">
      <stop offset="0.23529411764705882" stop-color="#070707"/>
      <stop offset="0.7843137254901961" stop-color="#4f4f4f"/>
    </linearGradient>
  </defs>
</svg>
