<?xml version="1.0" encoding="UTF-8" standalone="no"?>
<svg xmlns:ffdec="https://www.free-decompiler.com/flash" xmlns:xlink="http://www.w3.org/1999/xlink" ffdec:objectType="frame" height="13.85px" width="13.75px" xmlns="http://www.w3.org/2000/svg">
  <g transform="matrix(1.0, 0.0, 0.0, 1.0, 0.0, 0.0)">
    <use ffdec:characterId="9" height="13.85" transform="matrix(1.0, 0.0, 0.0, 1.0, 0.0, 0.0)" width="13.75" xlink:href="#shape0"/>
  </g>
  <defs>
    <g id="shape0" transform="matrix(1.0, 0.0, 0.0, 1.0, 0.0, 0.0)">
      <path d="M11.7 4.0 L11.85 4.0 12.35 3.85 12.85 4.35 13.1 4.95 12.5 5.8 Q12.05 6.5 10.85 6.7 L9.5 6.9 9.2 6.95 8.9 6.9 8.95 6.85 10.65 6.1 10.9 5.95 10.65 5.95 10.5 6.05 Q9.6 6.2 8.9 6.55 L8.85 6.45 9.4 6.0 9.55 5.75 8.65 6.4 Q8.35 6.4 8.35 6.65 L8.15 6.8 8.7 5.95 Q9.75 4.5 11.7 4.0 M11.3 2.45 L11.3 2.5 9.95 4.45 8.9 5.55 Q8.5 5.85 8.2 6.1 8.95 5.15 9.4 3.85 L9.45 3.65 8.3 5.4 8.25 5.35 Q8.15 5.2 8.0 5.2 L7.95 5.2 8.05 4.6 8.1 4.5 7.5 5.25 8.1 2.85 8.55 1.6 8.6 1.5 8.7 1.45 Q9.45 0.7 10.1 0.75 L10.45 0.75 11.2 1.4 11.3 1.65 11.3 2.45 M13.6 8.25 L13.75 8.95 13.55 9.6 13.3 10.0 13.25 10.0 12.2 9.95 10.25 9.1 10.4 9.15 Q11.6 9.8 12.95 9.55 L11.8 9.35 Q10.45 8.95 9.4 8.35 L9.3 8.25 9.05 8.05 10.4 8.4 10.95 8.55 Q10.35 8.0 9.45 7.75 L8.8 7.55 10.25 7.8 11.05 7.85 Q10.4 7.45 9.65 7.4 L13.1 7.7 13.6 8.25 M10.95 10.65 L11.0 10.85 Q11.3 11.55 11.25 12.35 L11.2 12.5 Q10.9 13.1 10.2 13.1 9.55 13.1 8.95 12.5 L8.35 11.35 8.35 10.85 8.0 9.55 7.95 9.05 8.5 11.15 8.7 11.65 8.15 9.0 7.8 8.1 9.15 9.95 9.35 10.35 8.7 8.8 8.35 8.2 9.65 9.85 9.85 10.0 9.3 8.9 8.95 8.35 9.65 9.0 10.65 11.3 10.75 11.75 Q11.2 11.15 10.35 9.75 L10.95 10.65 M7.05 0.35 Q7.6 1.5 7.55 3.15 L7.35 5.55 7.3 5.45 7.3 5.0 7.15 5.4 7.1 5.45 Q7.0 5.45 6.95 5.55 L7.0 3.15 6.95 2.6 Q6.4 3.8 6.6 5.5 L6.55 5.4 6.55 5.35 6.5 5.2 6.2 4.6 6.05 4.35 6.05 5.05 6.05 5.1 6.0 5.35 6.05 5.55 6.1 5.8 6.05 5.85 6.05 5.8 6.0 5.75 5.3 3.5 Q4.85 1.8 5.55 0.25 L6.7 0.1 7.05 0.35 M5.2 5.55 L5.1 5.55 4.3 4.4 3.8 3.75 4.0 4.1 4.25 4.5 5.0 5.6 4.95 5.75 4.95 5.85 4.7 5.65 4.25 5.4 4.15 5.35 4.05 5.2 3.3 4.75 2.9 4.45 2.25 4.1 1.75 3.35 1.5 2.1 Q1.5 1.75 1.65 1.55 1.95 1.2 2.75 1.2 3.3 1.2 3.85 1.5 L4.25 2.05 4.85 3.55 4.9 3.65 5.8 5.6 4.95 4.85 5.2 5.55 M1.9 4.4 L2.25 4.45 4.5 5.85 5.25 6.3 4.1 5.85 2.4 5.55 3.75 6.15 4.8 6.6 4.9 6.7 4.15 6.7 4.1 6.7 1.15 6.1 2.05 6.55 3.4 6.85 4.35 7.05 1.95 7.05 1.9 7.0 1.45 6.85 0.35 6.2 Q0.0 5.8 0.0 5.35 L0.25 4.75 Q0.6 4.4 1.4 4.4 L1.9 4.4 M7.1 9.05 L7.05 8.75 7.15 8.7 7.25 9.55 7.4 10.35 7.65 9.55 7.65 8.95 8.0 11.7 8.2 13.0 8.15 13.15 Q7.85 14.0 6.9 13.85 5.9 13.7 5.65 13.0 5.5 12.45 5.65 11.1 L5.9 10.65 Q5.85 11.6 6.1 12.5 L6.15 12.55 6.2 12.55 6.05 12.0 Q6.0 10.95 6.1 10.0 L6.2 9.8 6.1 9.95 6.2 9.55 6.25 9.4 6.45 8.95 6.6 8.75 6.65 8.65 6.7 9.3 6.7 11.05 7.1 9.05 M4.3 9.15 L4.25 9.2 4.85 8.75 4.9 8.75 4.9 8.7 5.15 8.4 5.45 8.2 5.6 8.25 5.55 8.35 3.9 10.15 3.15 10.95 3.2 11.0 3.3 11.0 5.5 9.05 5.95 8.65 5.85 8.95 4.5 11.0 4.7 10.85 5.55 10.1 5.4 11.1 5.35 11.45 Q4.9 12.45 4.5 12.65 L3.2 12.85 Q2.45 12.7 2.25 12.0 L2.2 11.25 2.4 10.7 3.45 9.65 4.3 9.15 M4.65 7.25 L4.5 7.3 4.35 7.3 Q3.3 7.65 2.5 8.1 L4.15 7.7 3.4 8.25 4.6 7.65 5.2 7.55 5.0 7.85 2.4 9.0 2.1 9.05 3.15 9.0 4.05 8.7 3.2 9.35 1.8 10.15 Q0.95 10.2 0.6 9.85 L0.15 9.1 0.15 8.8 0.35 8.35 0.8 7.95 3.3 7.35 4.65 7.25" fill="#ff9595" fill-rule="evenodd" stroke="none"/>
      <path d="M11.3 2.9 Q11.2 3.4 10.5 3.95 L10.5 4.0 10.15 4.35 Q10.8 3.85 11.5 3.8 L12.35 3.85 11.85 4.0 11.7 4.0 Q9.75 4.5 8.7 5.95 L8.15 6.8 8.35 6.65 8.4 6.75 8.4 6.8 8.65 7.0 8.75 7.0 8.9 6.9 9.2 6.95 9.5 6.9 10.85 6.7 Q12.05 6.5 12.5 5.8 L13.1 4.95 13.1 5.05 Q13.1 6.2 10.95 6.95 12.05 7.05 13.05 7.65 L13.1 7.7 9.65 7.4 Q10.4 7.45 11.05 7.85 L10.25 7.8 8.8 7.55 9.45 7.75 Q10.35 8.0 10.95 8.55 L10.4 8.4 9.05 8.05 9.3 8.25 9.4 8.35 Q10.45 8.95 11.8 9.35 L12.95 9.55 Q11.6 9.8 10.4 9.15 L10.25 9.1 12.2 9.95 13.25 10.0 12.45 10.15 11.2 9.85 10.9 9.7 10.65 9.6 10.45 9.5 10.65 9.75 10.65 9.8 10.7 9.9 10.8 10.0 10.95 10.25 11.25 10.9 11.4 11.8 11.25 12.35 Q11.3 11.55 11.0 10.85 L10.95 10.65 10.35 9.75 Q11.2 11.15 10.75 11.75 L10.65 11.3 9.65 9.0 8.95 8.35 9.3 8.9 9.85 10.0 9.65 9.85 8.35 8.2 8.7 8.8 9.35 10.35 9.15 9.95 7.8 8.1 8.15 9.0 8.7 11.65 8.5 11.15 7.95 9.05 8.0 9.55 8.35 10.85 8.35 11.35 8.25 11.15 Q8.4 12.25 8.2 13.0 L8.0 11.7 7.65 8.95 7.65 9.55 7.4 10.35 7.25 9.55 7.15 8.7 7.15 8.65 7.2 8.45 6.9 8.2 Q6.65 8.15 6.65 8.4 L6.65 8.5 6.65 8.65 6.95 8.75 7.05 8.75 7.1 9.05 6.7 11.05 6.7 9.3 6.65 8.65 6.6 8.75 6.45 8.95 6.25 9.4 6.2 9.55 6.1 9.95 6.2 9.8 6.1 10.0 Q6.0 10.95 6.05 12.0 L6.2 12.55 6.15 12.55 6.1 12.5 Q5.85 11.6 5.9 10.65 L5.65 11.1 5.85 10.15 5.35 11.45 5.4 11.1 5.55 10.1 4.7 10.85 4.5 11.0 5.85 8.95 5.95 8.65 5.5 9.05 3.3 11.0 3.2 11.0 3.15 10.95 3.9 10.15 5.55 8.35 5.6 8.25 5.65 8.25 5.8 8.2 5.9 8.0 Q5.9 7.85 5.6 7.8 L5.4 8.0 5.45 8.15 5.45 8.2 5.15 8.4 4.9 8.7 4.9 8.75 4.85 8.75 4.25 9.2 4.3 9.15 3.45 9.65 3.65 9.5 2.2 10.05 1.8 10.15 3.2 9.35 4.05 8.7 3.15 9.0 2.1 9.05 2.4 9.0 5.0 7.85 5.2 7.55 4.6 7.65 3.4 8.25 4.15 7.7 2.5 8.1 Q3.3 7.65 4.35 7.3 L4.5 7.3 4.65 7.25 3.3 7.35 0.8 7.95 1.2 7.7 2.3 7.3 2.7 7.25 2.05 7.25 Q1.15 7.0 0.55 6.45 L0.35 6.2 1.45 6.85 1.9 7.0 1.95 7.05 4.35 7.05 3.4 6.85 2.05 6.55 1.15 6.1 4.1 6.7 4.15 6.7 4.9 6.7 5.0 6.7 5.1 6.65 5.2 6.45 4.95 6.2 Q4.8 6.2 4.8 6.45 L4.8 6.6 3.75 6.15 2.4 5.55 4.1 5.85 5.25 6.3 4.5 5.85 2.25 4.45 2.4 4.5 3.3 4.75 2.25 4.1 2.9 4.45 3.3 4.75 4.05 5.2 4.15 5.35 4.25 5.4 4.7 5.65 4.95 5.85 5.0 5.9 5.25 6.05 5.3 6.05 5.5 5.9 5.55 5.75 Q5.55 5.55 5.25 5.55 L5.2 5.55 4.95 4.85 5.8 5.6 4.9 3.65 4.85 3.55 4.25 2.05 3.85 1.5 4.2 1.7 5.0 3.05 Q4.7 1.4 5.25 0.55 L5.55 0.25 Q4.85 1.8 5.3 3.5 L6.0 5.75 6.05 5.8 6.05 5.85 6.05 6.1 6.05 6.3 Q6.05 6.45 6.35 6.45 L6.65 6.3 6.65 6.1 Q6.65 5.8 6.35 5.75 L6.1 5.8 6.05 5.55 6.25 5.55 Q6.55 5.6 6.55 5.4 L6.6 5.5 Q6.4 3.8 6.95 2.6 L7.0 3.15 6.95 5.55 6.9 5.75 6.95 5.9 7.2 6.0 7.45 5.75 7.4 5.55 7.35 5.55 7.55 3.15 Q7.6 1.5 7.05 0.35 L7.6 1.25 7.75 3.3 8.55 1.6 8.1 2.85 7.5 5.25 8.1 4.5 8.05 4.6 7.95 5.2 7.8 5.3 7.8 5.55 7.85 5.7 8.0 5.75 Q8.35 5.75 8.35 5.55 L8.3 5.4 9.45 3.65 9.4 3.85 Q8.95 5.15 8.2 6.1 8.5 5.85 8.9 5.55 L9.95 4.45 11.3 2.5 11.3 2.45 11.3 1.65 11.4 2.15 11.3 2.9 M10.9 5.95 L10.65 6.1 8.95 6.85 8.95 6.7 8.9 6.55 Q9.6 6.2 10.5 6.05 L10.65 5.95 10.9 5.95 M6.05 4.35 L6.2 4.6 6.5 5.2 6.45 5.15 Q6.4 5.0 6.2 5.0 L6.05 5.05 6.05 4.35 M7.3 5.0 L7.3 5.45 7.15 5.4 7.3 5.0 M9.4 6.0 L8.85 6.45 8.65 6.4 9.55 5.75 9.4 6.0 M6.1 8.0 L6.15 8.15 6.35 8.25 6.5 8.2 6.6 8.0 6.35 7.75 Q6.1 7.7 6.1 8.0 M5.5 7.4 L5.5 7.55 5.8 7.65 5.9 7.65 6.05 7.55 6.05 7.35 5.75 7.1 Q5.5 7.05 5.5 7.25 L5.5 7.3 5.5 7.4 M5.7 6.75 L5.95 6.7 5.95 6.6 Q5.95 6.25 5.65 6.25 L5.45 6.55 5.45 6.7 5.7 6.75 M6.9 7.5 Q6.65 7.5 6.65 7.7 L6.65 7.85 6.7 7.9 6.8 7.9 7.0 7.85 7.1 7.65 6.9 7.5 M6.8 7.25 L6.9 7.1 6.65 6.9 Q6.4 6.9 6.4 7.15 L6.45 7.25 Q6.5 7.4 6.65 7.4 L6.8 7.25 M7.35 6.75 L7.4 6.6 Q7.4 6.25 7.2 6.25 L7.15 6.25 Q6.85 6.2 6.85 6.5 L6.9 6.7 7.2 6.8 7.35 6.75 M7.8 8.1 L7.9 7.95 7.85 7.8 7.7 7.7 7.5 7.8 7.4 7.95 7.65 8.2 7.8 8.1 M7.65 7.35 L7.6 7.2 7.45 7.15 7.25 7.25 7.2 7.4 7.4 7.6 7.65 7.35 M8.2 7.45 Q8.05 7.5 8.05 7.65 L8.35 7.85 8.6 7.65 8.55 7.55 8.35 7.4 8.2 7.45 M7.65 6.2 L7.6 6.4 7.85 6.65 8.15 6.45 8.1 6.2 7.8 6.1 Q7.75 6.1 7.65 6.2 M8.15 6.95 Q8.1 6.8 7.95 6.8 L7.8 6.9 7.75 7.1 7.95 7.3 8.2 7.1 8.15 6.95 M4.8 7.05 L4.85 7.25 5.1 7.4 5.3 7.25 5.35 7.1 5.05 6.8 Q4.8 6.8 4.8 7.05 M4.0 4.1 L3.8 3.75 4.3 4.4 5.1 5.55 5.0 5.6 4.25 4.5 4.0 4.1" fill="#d75252" fill-rule="evenodd" stroke="none"/>
      <path d="M6.05 5.1 L6.05 5.05 6.2 5.0 Q6.4 5.0 6.45 5.15 L6.5 5.2 6.55 5.35 6.55 5.4 Q6.55 5.6 6.25 5.55 L6.05 5.55 6.0 5.35 6.05 5.1 M5.55 5.75 L5.5 5.9 5.3 6.05 5.25 6.05 5.0 5.9 4.95 5.85 4.95 5.75 5.0 5.6 5.1 5.55 5.2 5.55 5.25 5.55 Q5.55 5.55 5.55 5.75 M6.05 5.85 L6.1 5.8 6.35 5.75 Q6.65 5.8 6.65 6.1 L6.65 6.3 6.35 6.45 Q6.05 6.45 6.05 6.3 L6.05 6.1 6.05 5.85 M6.95 5.55 Q7.0 5.45 7.1 5.45 L7.15 5.4 7.3 5.45 7.35 5.55 7.4 5.55 7.45 5.75 7.2 6.0 6.95 5.9 6.9 5.75 6.95 5.55 M8.3 5.4 L8.35 5.55 Q8.35 5.75 8.0 5.75 L7.85 5.7 7.8 5.55 7.8 5.3 7.95 5.2 8.0 5.2 Q8.15 5.2 8.25 5.35 L8.3 5.4 M4.8 7.05 Q4.8 6.8 5.05 6.8 L5.35 7.1 5.3 7.25 5.1 7.4 4.85 7.25 4.8 7.05 M4.95 6.2 L5.2 6.45 5.1 6.65 5.0 6.7 4.9 6.7 4.8 6.6 4.8 6.45 Q4.8 6.2 4.95 6.2 M8.95 6.7 L8.95 6.85 8.9 6.9 8.75 7.0 8.65 7.0 8.4 6.8 8.4 6.75 8.35 6.65 Q8.35 6.4 8.65 6.4 L8.85 6.45 8.9 6.55 8.95 6.7 M7.65 6.2 Q7.75 6.1 7.8 6.1 L8.1 6.2 8.15 6.45 7.85 6.65 7.6 6.4 7.65 6.2 M8.15 6.95 L8.2 7.1 7.95 7.3 7.75 7.1 7.8 6.9 7.95 6.8 Q8.1 6.8 8.15 6.95 M7.65 7.35 L7.4 7.6 7.2 7.4 7.25 7.25 7.45 7.15 7.6 7.2 7.65 7.35 M8.2 7.45 L8.35 7.4 8.55 7.55 8.6 7.65 8.35 7.85 8.05 7.65 Q8.05 7.5 8.2 7.45 M7.9 7.95 L7.8 8.1 7.65 8.2 7.4 7.95 7.5 7.8 7.7 7.7 7.85 7.8 7.9 7.95 M7.2 6.8 L6.9 6.7 6.85 6.5 Q6.85 6.2 7.15 6.25 L7.2 6.25 Q7.4 6.25 7.4 6.6 L7.35 6.75 7.2 6.8 M6.8 7.25 L6.65 7.4 Q6.5 7.4 6.45 7.25 L6.4 7.15 Q6.4 6.9 6.65 6.9 L6.9 7.1 6.8 7.25 M6.9 7.5 L7.1 7.65 7.0 7.85 6.8 7.9 6.7 7.9 6.65 7.85 6.65 7.7 Q6.65 7.5 6.9 7.5 M5.95 6.7 L5.7 6.75 5.45 6.7 5.45 6.55 5.65 6.25 Q5.95 6.25 5.95 6.6 L5.95 6.7 M5.5 7.3 L5.5 7.25 Q5.5 7.05 5.75 7.1 L6.05 7.35 6.05 7.55 5.9 7.65 5.8 7.65 5.5 7.55 5.5 7.4 5.5 7.3 M6.1 8.0 Q6.1 7.7 6.35 7.75 L6.6 8.0 6.5 8.2 6.35 8.25 6.15 8.15 6.1 8.0 M5.8 8.2 L5.65 8.25 5.6 8.25 5.45 8.2 5.45 8.15 5.4 8.0 5.6 7.8 Q5.9 7.85 5.9 8.0 L5.8 8.2 M6.65 8.4 Q6.65 8.15 6.9 8.2 L7.2 8.45 7.15 8.65 7.15 8.7 7.05 8.75 6.95 8.75 6.65 8.65 6.65 8.5 6.65 8.4" fill="#ffffff" fill-rule="evenodd" stroke="none"/>
    </g>
  </defs>
</svg>
