<?xml version="1.0" encoding="UTF-8" standalone="no"?>
<svg xmlns:ffdec="https://www.free-decompiler.com/flash" xmlns:xlink="http://www.w3.org/1999/xlink" ffdec:objectType="frame" height="12.7px" width="12.6px" xmlns="http://www.w3.org/2000/svg">
  <g transform="matrix(1.0, 0.0, 0.0, 1.0, 0.8, -1.9)">
    <use ffdec:characterId="3" height="12.7" transform="matrix(1.0, 0.0, 0.0, 1.0, -0.8, 1.9)" width="12.6" xlink:href="#shape0"/>
  </g>
  <defs>
    <g id="shape0" transform="matrix(1.0, 0.0, 0.0, 1.0, 0.8, -1.9)">
      <path d="M10.0 8.5 Q9.05 9.8 7.1 10.55 L5.8 11.15 7.05 12.75 7.1 12.75 Q8.55 12.9 10.1 11.9 9.15 12.6 7.3 13.4 4.8 14.35 2.4 14.6 L2.3 14.3 1.95 13.05 1.3 10.95 0.6 8.8 -0.2 7.0 Q-0.8 5.9 -0.8 5.0 -0.8 4.0 -0.15 3.1 0.65 2.05 2.0 1.95 L1.95 2.9 1.95 3.0 4.15 7.85 5.05 9.25 Q6.75 9.2 8.4 8.55 6.65 10.05 4.55 10.6 7.25 10.3 9.6 8.5 L9.75 8.4 10.0 8.5" fill="#000000" fill-rule="evenodd" stroke="none"/>
      <path d="M10.0 8.5 L10.6 8.75 11.8 10.15 10.65 11.45 10.1 11.9 Q8.55 12.9 7.1 12.75 L7.05 12.75 5.8 11.15 7.1 10.55 Q9.05 9.8 10.0 8.5" fill="url(#gradient0)" fill-rule="evenodd" stroke="none"/>
      <path d="M2.0 1.95 L2.35 1.9 Q3.55 1.9 3.95 2.45 L5.35 4.3 Q7.05 6.1 8.05 6.7 L9.6 7.65 9.6 8.05 9.7 8.4 9.75 8.4 9.6 8.5 Q7.25 10.3 4.55 10.6 6.65 10.05 8.4 8.55 6.75 9.2 5.05 9.25 L4.15 7.85 1.95 3.0 1.95 2.9 2.0 1.95" fill="url(#gradient1)" fill-rule="evenodd" stroke="none"/>
      <path d="M3.1 11.5 L3.75 11.3 Q4.65 11.95 4.85 12.85 L3.85 13.1 Q2.85 12.5 3.1 11.5 M4.55 10.95 L4.7 10.8 4.95 10.65 5.95 11.1 6.4 11.95 6.35 12.35 5.9 12.5 Q5.45 11.4 4.55 10.95 M1.0 11.5 L1.25 11.6 2.0 11.65 2.8 13.25 1.85 13.3 1.05 11.6 1.0 11.55 1.0 11.5" fill="#ffcb4c" fill-rule="evenodd" stroke="none"/>
      <path d="M3.75 11.3 L4.55 10.95 Q5.45 11.4 5.9 12.5 L4.85 12.85 Q4.65 11.95 3.75 11.3" fill="#fff0cb" fill-opacity="0.9411765" fill-rule="evenodd" stroke="none"/>
      <path d="M2.0 11.65 L2.45 11.6 3.1 11.5 Q2.85 12.5 3.85 13.1 L3.05 13.25 2.8 13.25 2.0 11.65 M4.95 10.65 L6.15 9.65 8.55 10.05 8.1 11.55 6.55 12.25 6.35 12.35 6.4 11.95 5.95 11.1 4.95 10.65 M7.45 11.35 L7.75 11.05 7.8 11.0 Q7.9 10.4 7.35 10.3 7.05 10.15 6.75 10.3 6.35 10.75 6.45 10.9 6.3 11.1 6.7 11.35 L7.35 11.45 7.45 11.35" fill="#c09428" fill-rule="evenodd" stroke="none"/>
      <path d="M3.1 11.5 L2.45 11.6 2.0 11.65 1.25 11.6 1.0 11.5 1.2 11.3 1.5 11.3 1.7 11.4 2.9 11.25 3.0 11.2 3.1 11.15 3.65 10.9 3.95 10.75 4.05 10.75 4.15 10.7 5.15 10.15 5.25 10.05 6.2 9.4 7.5 9.6 8.35 9.7 8.6 9.85 8.55 10.05 6.15 9.65 4.95 10.65 4.7 10.8 4.55 10.95 3.75 11.3 3.1 11.5 M7.55 11.2 L7.6 11.15 7.6 10.85 7.45 10.55 Q7.1 10.3 6.65 10.55 L6.55 10.7 6.45 10.9 Q6.35 10.75 6.75 10.3 7.05 10.15 7.35 10.3 7.9 10.4 7.8 11.0 L7.75 11.05 7.45 11.35 7.55 11.2" fill="#6b4c00" fill-rule="evenodd" stroke="none"/>
      <path d="M4.2 9.55 L4.15 9.6 3.85 9.45 3.6 9.25 Q3.45 8.85 3.85 8.65 L4.05 8.65 Q3.7 8.95 3.95 9.4 L3.95 9.45 4.2 9.55 M6.55 10.7 L6.65 10.55 Q7.1 10.3 7.45 10.55 L7.6 10.85 7.6 11.15 7.55 11.2 7.55 10.95 7.5 10.9 6.55 10.7" fill="#666666" fill-rule="evenodd" stroke="none"/>
      <path d="M4.4 9.55 L4.2 9.55 3.95 9.45 3.95 9.4 Q3.7 8.95 4.05 8.65 L4.25 8.65 4.65 9.0 Q4.8 9.45 4.55 9.5 L4.4 9.55 M4.15 9.0 Q3.9 9.0 3.95 9.25 L4.4 9.3 4.45 9.3 4.4 9.05 4.15 9.0 M7.55 11.2 L7.45 11.35 7.35 11.45 6.7 11.35 Q6.3 11.1 6.45 10.9 L6.55 10.7 7.5 10.9 7.55 10.95 7.55 11.2 M7.2 11.25 L7.3 10.85 6.9 10.95 6.85 11.15 7.1 11.3 7.2 11.25" fill="#b3b3b3" fill-rule="evenodd" stroke="none"/>
      <path d="M6.7 8.3 L6.05 8.9 Q5.05 8.1 4.9 7.25 L5.5 6.85 Q5.85 7.75 6.7 8.3 M4.15 9.0 L4.4 9.05 4.45 9.3 4.4 9.3 3.95 9.25 Q3.9 9.0 4.15 9.0 M7.2 11.25 L7.1 11.3 6.85 11.15 6.9 10.95 7.3 10.85 7.2 11.25" fill="#ffffff" fill-rule="evenodd" stroke="none"/>
      <path d="M6.05 8.9 L5.75 9.2 4.45 10.0 4.2 10.05 2.75 9.5 3.1 7.9 4.5 7.4 4.7 7.3 4.9 7.25 Q5.05 8.1 6.05 8.9 M4.25 8.65 L3.55 8.55 Q3.3 8.75 3.4 9.0 3.3 9.45 3.95 9.65 L4.0 9.65 4.4 9.55 4.55 9.5 Q4.8 9.45 4.65 9.0 L4.25 8.65" fill="#747474" fill-rule="evenodd" stroke="none"/>
      <path d="M6.55 4.9 L6.6 4.9 6.65 4.95 8.1 6.3 Q8.3 6.35 7.75 7.0 L6.4 5.7 6.6 5.1 6.55 4.9 M7.25 7.65 L6.7 8.3 Q5.85 7.75 5.5 6.85 L5.9 6.45 Q7.0 6.65 7.25 7.65" fill="#adaeaf" fill-rule="evenodd" stroke="none"/>
      <path d="M7.75 7.0 L7.65 7.15 7.25 7.65 Q7.0 6.65 5.9 6.45 L6.2 5.95 6.4 5.7 7.75 7.0" fill="#8a8a8a" fill-rule="evenodd" stroke="none"/>
      <path d="M2.75 9.5 L2.55 9.45 2.65 8.8 Q2.7 7.95 2.85 7.8 L3.8 7.35 3.9 7.35 4.8 6.85 4.85 6.8 5.1 6.6 5.15 6.6 5.55 6.3 5.7 6.15 6.25 5.35 6.2 5.2 6.3 4.95 6.55 4.9 6.6 5.1 6.4 5.7 6.2 5.95 5.9 6.45 5.5 6.85 4.9 7.25 4.7 7.3 4.5 7.4 3.1 7.9 2.75 9.5 M4.4 9.55 L4.0 9.65 3.95 9.65 Q3.3 9.45 3.4 9.0 3.3 8.75 3.55 8.55 L4.25 8.65 4.05 8.65 3.85 8.65 Q3.45 8.85 3.6 9.25 L3.85 9.45 4.15 9.6 4.2 9.55 4.4 9.55" fill="#4d4d4d" fill-rule="evenodd" stroke="none"/>
    </g>
    <linearGradient gradientTransform="matrix(0.0037, 0.0, 0.0, 0.0026, 8.8, 10.6)" gradientUnits="userSpaceOnUse" id="gradient0" spreadMethod="pad" x1="-819.2" x2="819.2">
      <stop offset="0.0" stop-color="#4f4f4f"/>
      <stop offset="1.0" stop-color="#070707"/>
    </linearGradient>
    <linearGradient gradientTransform="matrix(0.0048, 0.0, 0.0, 0.0053, 5.85, 6.25)" gradientUnits="userSpaceOnUse" id="gradient1" spreadMethod="pad" x1="-819.2" x2="819.2">
      <stop offset="0.2980392156862745" stop-color="#4f4f4f"/>
      <stop offset="1.0" stop-color="#070707"/>
    </linearGradient>
  </defs>
</svg>
