<svg xmlns="http://www.w3.org/2000/svg" xmlns:ffdec="https://www.free-decompiler.com/flash" xmlns:xlink="http://www.w3.org/1999/xlink" ffdec:objectType="frame" width="23.65" height="24.8"><use ffdec:characterId="1" xlink:href="#a" width="23.65" height="24.8"/><defs><g id="a" fill-rule="evenodd"><path fill-opacity=".298" d="M8.5 11.85q1.6.7 1.6 1.6l-.05.1-2.75.4q-1.1 0-2.3-.7-1.15-.7-1.25-1.5.1-.15.65-.3l1.45-.2q1.25 0 2.65.6m5.7-6.45 1.4-.35.7-.35q.25 0 .8 1.45l-1.05.9-1.85.3q-2.05-.1-2.5-1-2.15 1.1-3.25 1.1-1.95 0-2.8-1.2l.3-1.05.75.25 1.35.2 1.6-.3q1.15-.35 1.3-.8H11q.3.3 1.4.6zm3.05 7.85-2.6.7-1.4-.25q-.5-.2-.4-.5 1.15-2.3 4-2.3 1.2 0 2.15.65 0 1-1.75 1.7"/><path fill="#fff" d="m22.7 18.7.15.2-.75.45-1.95 1q-1.9 1-3.9 1.3L14 21.9h-.3v-.2h-.4v.2h-.55l-.4-.05-2-.2-.2-.05-.25-.05v-.45l.05-16.6.1.35q.25-.95.25 1.5l-.05 3.8-.05 3.7.05 4.55.15 2.95 1.45.3q1.15.1 1.1-.65l-.1-1.85V10.9l-.1-3.8q-.15-1.3 0-2.55l.2.05.35 16.95v.1l.4.05v-.15l-.35-16.9.8.1-.4.4v7.7l.15 3.7.1 3.2v1.8l2.95-.35 3.15-1.1zM9.55 4.6 9.5 20.9v.55l-.3-.05-.8-.25-3.95-1.55q-1.9-1-3.4-2.2l.2-.35 2.6 1.8q1.45.85 2.85 1.4l2.45.85v-.4l-.05-3.95.05-3.95V8.9l.1-3.8-2.45-.25z"/><path fill="#f244c7" d="M13.35 4.65 13.25.3h.4q1.7 1.8 3.25 4.15 3.15 4.7 2.5 7.4l2 4.5.3.7.85 1.35.15.3-2.6 1.4-3.15 1.1-2.95.35v-1.8l-.1-3.2-.15-3.7v-7.7l.4-.4zm-12.1 12.4v-.1l.05-.05.05-.15 2-4.75q-.25-3.35 2.7-7.85 1.5-2.25 3-3.85h.5v4.3l-2.75.25 2.45.25-.1 3.8v3.9l-.05 3.95.05 3.95v.4l-2.45-.85q-1.4-.55-2.85-1.4z"/><path fill="#fdd7ed" d="M9.95 4.5V.3h2.9l.1 4.3-.2-.05q-.15 1.25 0 2.55l.1 3.8v8.25l.1 1.85q.05.75-1.1.65l-1.45-.3-.15-2.95-.05-4.55.05-3.7.05-3.8q0-2.45-.25-1.5zm1.6-1.6.5-.25.25-.5-.25-.55-.5-.2-.55.2-.2.55.2.5q.25.25.55.25m0 4.8.5-.25.25-.5-.25-.55-.5-.2-.55.2-.2.55.2.5q.25.25.55.25m.5.9-.5-.2-.55.2-.2.55.2.5q.25.25.55.25l.5-.25.25-.5zm-.5-3.4.5-.25.25-.5-.25-.55-.5-.2-.55.2-.2.55.2.5q.25.25.55.25M11 17.7l-.2.55.2.5q.25.25.55.25l.5-.25.25-.5-.25-.55-.5-.2zm0-6.8-.2.55.2.5q.25.25.55.25l.5-.25.25-.5-.25-.55-.5-.2zm.25 4.35-.25.15-.2.55.2.5q.25.25.55.25l.5-.25.2-.2.05-.3v-.1l-.25-.45-.35-.2h-.15zm-.45-1.5.2.5q.25.25.55.25l.5-.25.15-.1.1-.4-.25-.55-.5-.2-.55.2-.05.1q-.15.2-.15.45"/><path fill="#dbbbbb" d="M11.55 2.9q-.3 0-.55-.25l-.2-.5.2-.55.55-.2.5.2.25.55-.25.5z"/><path fill="#ac4e68" d="m23.1 19.35-1.35.8q-1.35.8-3.25 1.4l-3.7.8-3.75-.1-3.85-.95q-1.95-.65-3.6-1.65l-2.7-1.8.15-.45q1.5 1.2 3.4 2.2l3.95 1.55 1.1.3v-.55L9.55.3V.25h.4V.3L9.9 21.1v.45l.25.05 2.2.25.7.05h.25v-.35L12.85.3l.4-.05V.3l.45 21.25v.35l2.55-.25q2-.3 3.9-1.3l1.95-1 .75-.45.1.2.1.2z"/><path fill="#e2970a" d="m.05 20.75.95.75q.7.3 2.05-.5l.55-.7-.1.3-.3.6-.45.45-.1.05-.5.2-.7.1-.55-.05-.45-.25-.3-.5zm3.9 2.45 2.6-.15.55-.8.1.7q.55 1.35 2.45 1.3l1.65-.45.15-.3-.05-.05.15-.1.15-.3h.05l.05.1v-.05l.05.05-.05.15-.15.25-.15.25-.25.2-.05.05-.1.05-.65.35-.65.2h-.4l-.05-.05q-1.3-.15-1.75-.7-.4-.45-.45-.85v-.25l-.1.1-.25.25-.7.5-.6.15h-.4q-.3 0-.9-.4zm7.9 0q1.15 1.5 3.3 1.1l.55-.15-.15.2q-.3.35-1 .45l-.55-.05-.25-.05v.05l-.4-.1v-.05l-.1-.05-.35-.1-.75-.6-.25-.55zm4.4-.2v-.05q1.65 1.6 3.3.35l.55-1.05-.3 1.15q-.5.7-1.35.7l-1.25-.2-.8-.65zM20 21.6l-.05-.1q1.35 1.2 3.2.55l.4-.3.05-.1-.05.3-.35.45-.6.3h-.75l-1.05-.3-.7-.7z"/><path fill="#6b3630" d="m12.05 3.9.25.55-.25.5-.5.25q-.3 0-.55-.25l-.2-.5.2-.55.55-.2zm.25 5.25-.25.5-.5.25q-.3 0-.55-.25l-.2-.5.2-.55.55-.2.5.2zm-.75-1.45q-.3 0-.55-.25l-.2-.5.2-.55.55-.2.5.2.25.55-.25.5zm-.6 5.6.05-.1.55-.2.5.2.25.55-.1.4-.15.1-.5.25q-.3 0-.55-.25l-.2-.5q0-.25.15-.45m.05-2.4.55-.2.5.2.25.55-.25.5-.5.25q-.3 0-.55-.25l-.2-.5zm.25 4.35.3-.05h.15l.35.2.25.45v.1l-.05.3z"/><path fill="#8b463f" d="m12.25 16.25-.2.2-.5.25q-.3 0-.55-.25l-.2-.5.2-.55.25-.15zM11 17.7l.55-.2.5.2.25.55-.25.5-.5.25q-.3 0-.55-.25l-.2-.5z"/><path fill="#fee034" d="m.9 17.85 2.7 1.8q1.65 1 3.6 1.65l3.85.95 3.75.1 3.7-.8q1.9-.6 3.25-1.4l1.35-.8.3.65.25 1.3-.05.35-.05.1-.4.3q-1.85.65-3.2-.55l.05.1-.05-.05v.1l.05.2.05.1.05.3-.55 1.05q-1.65 1.25-3.3-.35V23l-.05-.1v.1l-.05.1-.45 1.05-.55.15q-2.15.4-3.3-1.1v-.1.05l-.05-.05v.05l-.05-.1h-.05l-.15.3-.15.1.05.05-.15.3-1.65.45q-1.9.05-2.45-1.3l-.1-.7-.55.8-2.6.15q-.4-.4-.45-1.05l-.05-.95.15-.8-.1.2.1-.3-.55.7q-1.35.8-2.05.5l-.95-.75.1-1.05.35-.85.1-.35z"/><path fill="#b93378" fill-opacity=".298" d="m16.05 6.05-1.85.3q-2.05-.1-2.5-1-2.15 1.1-3.25 1.1-1.95 0-2.8-1.2l.3-1.05.75.25 1.35.2 1.6-.3q1.15-.35 1.3-.8H11q.3.3 1.4.6l1.8.25 1.4-.35.7-.35q.25 0 .8 1.45z"/><path fill="#b93378" fill-opacity=".533" d="m10.05 12.55-2.75.4q-1.1 0-2.3-.7-1.15-.7-1.25-1.5.1-.15.65-.3l1.45-.2q1.25 0 2.65.6 1.6.7 1.6 1.6zm8.95-2q0 1-1.75 1.7l-2.6.7-1.4-.25q-.5-.2-.4-.5 1.15-2.3 4-2.3 1.2 0 2.15.65"/><path fill="#fddcef" d="M5.45 2.25 6.6 1.6l2.9.45q1.95.3 3.9 0 1.3 0 2.45-.6l1.15.7-2.25 1.65q-1.55.45-3.25-1.1-1.9 1.4-3.6 1.15-1.4-.2-2.45-1.6"/><path fill="#deb0bf" d="m6.6 1.6.65-.4.1-.1L9.05.05l4.4-.05 2.4 1.45q-1.15.6-2.45.6-1.95.3-3.9 0z"/><path fill="#c00a6f" d="m6.5 16.55.8.4-.2.3q-1 1.45-2.15 1.45-.7 0-1.15-.35l-.35-.45.7.2q1.85 0 2.35-1.55m13.65.9q-.25 1.65-1.75 1.65-1.1 0-2.1-1.55l-.2-.3.35-.2.2-.1q.1.45.35.75l.6.6q.3.3 1.05.3l.15.1q.9-.1 1.35-1.25"/><path fill="#d91384" d="M17 2.15q.45.2 1.25.9-3.7 4.05-6.75.95-1.85 1.9-4.2 1.25-1.75-.5-3.1-2.1l1.25-.9q1.05 1.4 2.45 1.6 1.7.25 3.6-1.15 1.7 1.55 3.25 1.1zM3.45 17.9l-.3-1.1v-.35l.55-2.5 1.95 2 .7.5.15.1Q6 18.1 4.15 18.1zm13.2-.95q1.85-1.15 3-2.95l.55 2.7-.05.75q-.45 1.15-1.35 1.25l-.15-.1q-.75 0-1.05-.3l-.6-.6q-.25-.3-.35-.75"/><path fill="#fff" d="M4.3 12.65q.6 1.3 2.1 2.4l1.2.85-.5.95q-2.15-1.1-3.4-2.9l.15-.3zm12.15 4.45-.35-1.15v-.2l1.8-1.45 1.2-1.55.4.95.15.3q-1.2 1.9-3.2 3.1"/><path fill="#ef9db4" d="m4.3 12.65 2.25 1.85 1.25.85.15.1-.15.55-.5.95-.2-.1.5-.95-1.2-.85q-1.5-1.1-2.1-2.4m14.8.1-1.2 1.55-1.8 1.45v.2l.35 1.15-.35.15-.5-1.2-.1-.4.4-.25.95-.75 2.2-2z"/></g></defs></svg>