<?xml version="1.0" encoding="UTF-8" standalone="no"?>
<svg xmlns:ffdec="https://www.free-decompiler.com/flash" xmlns:xlink="http://www.w3.org/1999/xlink" ffdec:objectType="frame" height="24.9px" width="38.0px" xmlns="http://www.w3.org/2000/svg">
  <g transform="matrix(1.0, 0.0, 0.0, 1.0, 9.0, -2.7)">
    <use ffdec:characterId="5" height="24.9" transform="matrix(1.0, 0.0, 0.0, 1.0, -9.0, 2.7)" width="38.0" xlink:href="#shape0"/>
  </g>
  <defs>
    <g id="shape0" transform="matrix(1.0, 0.0, 0.0, 1.0, 9.0, -2.7)">
      <path d="M11.75 4.2 L10.6 6.0 10.3 6.4 10.35 6.45 12.95 9.65 13.2 9.95 12.8 10.15 12.55 9.85 10.55 7.45 10.05 6.8 9.5 7.45 7.95 9.35 7.5 9.85 7.25 10.15 6.85 9.95 7.1 9.65 7.95 8.7 9.7 6.45 9.75 6.4 9.45 6.0 Q8.5 4.7 8.3 4.2 L8.8 4.4 10.0 6.0 10.05 6.1 10.15 6.0 11.25 4.4 11.75 4.2" fill="#43211d" fill-opacity="0.4" fill-rule="evenodd" stroke="none"/>
      <path d="M10.35 6.3 L12.95 9.25 13.2 9.5 12.8 9.7 12.55 9.45 10.55 7.2 10.05 6.6 9.5 7.2 7.5 9.45 7.25 9.7 6.85 9.5 7.1 9.25 9.7 6.3 9.75 6.25 8.3 4.2 8.8 4.4 10.05 5.95 11.25 4.4 11.75 4.2 10.3 6.25 10.35 6.3" fill="#5a4ba1" fill-rule="evenodd" stroke="none"/>
      <path d="M4.25 8.5 L4.4 8.35 4.75 7.8 5.45 7.1 5.45 7.15 5.45 7.65 5.4 7.6 4.55 8.65 4.25 8.5 M14.55 7.15 L14.55 7.1 15.2 7.8 15.65 8.35 15.75 8.5 15.5 8.65 14.6 7.6 14.55 7.65 14.55 7.15" fill="#353b79" fill-rule="evenodd" stroke="none"/>
      <path d="M-0.55 20.65 L-0.35 20.65 -0.25 20.75 -0.45 20.75 -0.55 20.65" fill="#d9d7d9" fill-rule="evenodd" stroke="none"/>
      <path d="M14.55 7.65 L14.6 7.6 15.5 8.65 15.3 8.7 15.25 8.75 14.55 8.8 14.55 7.65 M10.5 11.85 L11.0 12.05 11.55 12.3 11.6 12.35 12.1 12.65 11.25 12.55 Q10.65 12.45 10.0 12.8 9.3 12.45 8.7 12.55 L7.9 12.65 8.4 12.35 8.45 12.3 9.05 12.05 9.45 11.85 9.8 11.85 10.0 12.1 10.25 11.85 10.5 11.85 M4.7 8.75 L4.65 8.7 4.55 8.65 5.4 7.6 5.45 7.65 5.45 8.8 4.7 8.75 M5.2 12.6 L5.35 12.75 4.7 12.55 5.2 12.6" fill="#a989c2" fill-rule="evenodd" stroke="none"/>
      <path d="M14.55 7.65 L14.55 8.8 14.5 8.8 13.1 8.75 Q14.35 7.75 14.55 7.65 M5.45 8.8 L5.45 7.65 6.9 8.75 5.55 8.8 5.45 8.8" fill="#bf9dd9" fill-rule="evenodd" stroke="none"/>
      <path d="M6.25 15.5 L6.4 16.25 6.45 16.85 4.85 17.4 4.4 16.7 5.15 15.05 5.2 15.05 5.85 15.3 6.25 15.5 M2.5 22.65 L2.7 22.95 Q2.65 24.35 1.35 24.75 L-0.55 25.15 -1.1 24.55 Q2.3 24.45 2.5 22.65 M17.35 22.95 L17.5 22.65 Q17.65 24.45 21.1 24.55 L20.5 25.15 18.6 24.75 Q17.4 24.35 17.35 22.95" fill="#cbc5cb" fill-rule="evenodd" stroke="none"/>
      <path d="M5.95 12.9 L6.2 14.55 Q6.0 14.65 5.65 14.9 L5.4 15.05 5.2 15.05 5.15 15.05 5.05 14.9 4.95 14.55 5.45 13.55 5.6 12.9 5.6 13.0 5.95 13.0 5.95 12.9" fill="#d9d3d9" fill-rule="evenodd" stroke="none"/>
      <path d="M6.25 14.9 L6.25 15.5 5.85 15.3 5.2 15.05 5.4 15.05 6.25 14.9 M13.8 14.9 L14.6 15.05 14.8 15.05 14.1 15.3 13.8 15.5 13.8 14.9" fill="#938b93" fill-rule="evenodd" stroke="none"/>
      <path d="M15.1 17.4 L15.0 17.55 14.9 17.45 13.75 17.3 13.6 17.3 Q13.5 17.15 13.55 16.85 L15.1 17.4 M6.2 14.55 L6.25 14.9 5.4 15.05 5.65 14.9 Q6.0 14.65 6.2 14.55 M6.45 16.85 L6.4 17.3 6.3 17.3 5.1 17.45 5.0 17.55 4.85 17.4 6.45 16.85 M13.8 14.9 L13.85 14.55 14.35 14.9 14.6 15.05 13.8 14.9" fill="#eeeeee" fill-rule="evenodd" stroke="none"/>
      <path d="M23.65 22.2 L23.8 22.3 23.7 22.3 Q23.45 22.3 23.65 22.2 M-3.75 22.3 L-3.65 22.2 Q-3.5 22.3 -3.65 22.3 L-3.75 22.3" fill="#c6c5c6" fill-rule="evenodd" stroke="none"/>
      <path d="M20.6 20.7 L20.45 20.7 20.5 20.65 20.6 20.7" fill="#e7e7e7" fill-rule="evenodd" stroke="none"/>
      <path d="M25.0 22.65 L25.85 23.75 25.85 23.8 25.8 23.85 25.7 23.8 25.5 23.65 25.4 23.55 24.2 22.65 25.0 22.65 M-5.5 23.7 L-5.7 23.8 -5.8 23.85 -5.85 23.8 -5.85 23.75 -4.95 22.65 -4.9 22.65 -4.2 22.65 -5.4 23.55 -5.5 23.7" fill="#c4c2c4" fill-rule="evenodd" stroke="none"/>
      <path d="M5.35 24.7 L5.4 24.7 5.4 24.75 5.35 24.75 5.35 24.7 M14.6 24.7 L14.65 24.7 14.65 24.75 14.6 24.75 14.6 24.7" fill="#a19ea1" fill-rule="evenodd" stroke="none"/>
      <path d="M6.3 21.35 L7.95 21.95 9.65 22.35 9.9 22.4 9.95 22.4 10.0 23.4 10.05 22.4 10.1 22.4 10.05 23.25 10.0 23.95 10.05 24.6 10.05 25.05 10.0 25.05 9.9 25.05 9.6 25.0 8.35 25.1 6.2 23.2 4.55 21.95 3.75 21.4 3.5 21.1 3.45 20.9 2.85 19.7 3.0 19.75 4.65 20.45 4.75 20.45 4.65 20.5 4.65 20.55 4.85 20.6 4.95 20.65 5.0 20.75 5.15 20.85 5.3 21.05 5.4 21.15 5.45 21.25 5.6 21.5 6.2 23.0 6.3 21.9 6.3 21.35 M1.8 19.15 L0.95 18.65 1.0 18.6 2.45 19.5 1.8 19.15 M16.95 19.75 L17.1 19.7 Q16.85 19.95 16.55 20.9 L16.5 21.1 16.25 21.4 Q15.9 21.6 15.5 21.95 14.85 22.35 13.85 23.2 L11.65 25.1 10.4 25.0 10.1 25.05 10.1 22.4 10.35 22.35 12.1 21.95 13.75 21.35 13.75 21.9 13.85 23.0 14.4 21.5 14.55 21.25 14.65 21.15 14.7 21.05 14.85 20.85 15.0 20.75 15.05 20.65 15.15 20.6 15.3 20.55 15.3 20.5 15.2 20.45 15.3 20.45 16.95 19.75 M18.15 19.2 L19.0 18.6 19.05 18.65 18.2 19.15 18.15 19.2" fill="#121580" fill-rule="evenodd" stroke="none"/>
      <path d="M1.2 18.0 L0.95 17.45 0.55 16.7 0.5 16.65 Q0.55 16.55 0.7 16.55 L1.5 17.25 1.2 18.0 M19.5 16.65 L19.45 16.7 19.05 17.45 18.75 18.0 18.55 17.25 Q18.95 16.65 19.3 16.55 L19.5 16.65" fill="#878087" fill-rule="evenodd" stroke="none"/>
      <path d="M20.5 20.65 L20.65 20.7 Q23.3 21.5 24.3 22.2 L24.95 22.6 24.9 22.6 24.75 22.55 24.7 22.5 23.65 22.2 20.6 20.7 20.5 20.65 M-4.9 22.6 L-4.3 22.2 Q-3.3 21.5 -0.55 20.65 L-3.65 22.2 -4.7 22.5 -4.75 22.55 -4.85 22.6 -4.9 22.6" fill="#d4cfcf" fill-rule="evenodd" stroke="none"/>
      <path d="M26.2 24.15 L26.0 24.0 26.05 24.0 26.1 24.05 26.2 24.1 26.3 24.15 27.3 24.75 27.35 24.9 Q27.25 24.75 26.85 24.75 L25.05 25.3 21.5 25.85 18.45 25.3 Q17.25 24.95 16.8 23.8 L16.75 23.55 17.35 22.95 Q17.4 24.35 18.6 24.75 L20.5 25.15 20.85 25.15 22.5 25.1 Q24.25 25.1 26.2 24.15 M-7.3 24.75 L-6.35 24.15 -6.25 24.1 -6.1 24.05 -6.05 24.05 -6.05 24.0 -6.0 24.0 -6.05 24.05 -6.25 24.15 Q-4.25 25.1 -2.5 25.1 L-0.85 25.15 -0.55 25.15 1.35 24.75 Q2.65 24.35 2.7 22.95 L2.9 23.35 2.9 23.55 3.0 23.5 3.25 23.55 3.2 23.8 Q2.8 24.95 1.6 25.3 L-1.55 25.85 -5.05 25.3 -6.85 24.75 -7.35 24.9 -7.3 24.75" fill="#e7e3e7" fill-rule="evenodd" stroke="none"/>
      <path d="M9.75 10.4 L10.0 10.35 10.25 10.4 10.6 10.45 10.45 11.3 10.5 11.85 10.25 11.85 10.0 12.1 9.8 11.85 9.45 11.85 9.5 11.3 9.35 10.45 9.75 10.4" fill="#a39ea3" fill-rule="evenodd" stroke="none"/>
      <path d="M11.85 8.6 L11.9 8.55 12.05 8.6 11.85 8.6 M16.4 9.2 L16.45 9.25 16.7 9.45 16.75 9.7 16.7 9.7 16.5 9.35 16.4 9.2 M17.2 11.9 L17.3 11.85 17.2 12.05 17.05 12.1 17.2 11.9 M19.0 18.6 Q19.6 18.15 19.25 18.55 L19.1 18.6 19.05 18.65 19.0 18.6 M13.45 18.1 L14.2 17.8 15.0 17.6 15.85 18.85 15.6 19.6 15.55 19.8 15.55 19.9 15.5 20.0 15.35 20.3 15.3 20.45 15.2 20.45 15.3 20.5 15.25 20.5 15.15 20.6 15.05 20.65 15.0 20.75 14.85 20.85 14.7 21.05 14.65 21.15 14.55 21.25 14.4 21.5 13.85 23.0 13.75 21.9 13.75 21.35 13.8 21.3 13.8 21.25 14.95 20.55 14.9 20.45 14.75 20.2 Q14.7 19.95 13.85 20.5 12.95 21.1 13.15 20.25 L13.45 18.1" fill="url(#gradient0)" fill-rule="evenodd" stroke="none"/>
      <path d="M15.25 8.75 L15.3 8.7 15.3 8.75 15.25 8.75" fill="url(#gradient1)" fill-rule="evenodd" stroke="none"/>
      <path d="M0.75 18.55 Q0.4 18.15 1.0 18.6 L0.95 18.65 0.95 18.6 0.75 18.55 M2.75 11.85 L2.8 11.9 2.9 12.1 2.8 12.05 2.75 11.85 M3.3 9.7 L3.25 9.7 3.35 9.45 3.55 9.25 3.6 9.2 3.5 9.35 3.3 9.7 M8.0 8.6 L8.1 8.55 8.15 8.6 8.0 8.6 M6.5 18.1 L6.85 20.25 Q7.05 21.1 6.2 20.5 5.3 19.95 5.25 20.2 L5.1 20.45 5.05 20.55 6.25 21.25 6.3 21.35 6.3 21.9 6.2 23.0 5.6 21.5 5.45 21.25 5.4 21.15 5.3 21.05 5.15 20.85 5.0 20.75 4.95 20.65 4.85 20.6 4.7 20.5 4.65 20.5 4.75 20.45 4.65 20.45 4.65 20.3 4.55 20.0 4.5 19.9 4.5 19.8 4.45 19.6 4.1 18.85 5.0 17.6 5.75 17.8 6.5 18.1" fill="url(#gradient2)" fill-rule="evenodd" stroke="none"/>
      <path d="M4.65 8.7 L4.7 8.75 4.65 8.75 4.65 8.7" fill="url(#gradient3)" fill-rule="evenodd" stroke="none"/>
      <path d="M0.9 16.1 L0.95 15.95 1.1 15.9 1.25 15.75 1.55 15.2 2.35 13.3 Q2.75 12.2 2.55 11.85 L2.7 11.8 2.75 11.85 2.8 12.05 2.9 12.1 Q3.5 12.3 3.9 12.55 L5.2 12.9 5.15 13.05 5.1 13.05 5.1 13.2 5.1 13.25 4.95 14.05 4.4 14.8 4.4 14.9 4.75 14.95 4.75 15.25 4.5 16.05 3.9 16.8 4.15 17.25 4.3 17.55 4.4 17.7 3.95 18.5 3.55 18.8 2.75 17.45 Q2.0 16.3 1.15 15.9 L0.95 16.1 0.9 16.1" fill="url(#gradient4)" fill-rule="evenodd" stroke="none"/>
      <path d="M5.1 13.2 L5.1 13.05 5.15 13.05 5.1 13.2" fill="url(#gradient5)" fill-rule="evenodd" stroke="none"/>
      <path d="M0.5 16.65 L0.6 16.35 0.65 16.25 0.7 16.2 0.9 16.1 0.95 16.1 0.65 16.3 1.3 16.3 2.55 17.65 2.7 17.85 2.95 18.3 3.9 19.7 3.95 19.8 3.9 19.95 4.05 20.0 Q4.3 20.05 4.4 20.2 L4.5 20.25 4.6 20.3 4.65 20.3 4.65 20.45 3.0 19.75 2.15 18.15 1.5 17.25 0.7 16.55 Q0.55 16.55 0.5 16.65" fill="url(#gradient6)" fill-rule="evenodd" stroke="none"/>
      <path d="M0.75 18.6 L0.65 18.5 0.75 18.55 0.75 18.6 M4.65 20.5 L4.7 20.5 4.85 20.6 4.65 20.55 4.65 20.5 M5.35 24.7 L5.3 24.6 5.4 24.7 5.35 24.7 M7.5 25.1 L7.45 25.1 7.1 24.75 7.5 25.1" fill="url(#gradient7)" fill-rule="evenodd" stroke="none"/>
      <path d="M5.1 20.45 L5.85 20.85 6.25 21.25 5.05 20.55 5.1 20.45" fill="url(#gradient8)" fill-rule="evenodd" stroke="none"/>
      <path d="M10.05 25.05 L10.05 24.6 10.0 23.95 10.05 23.25 10.1 22.4 10.1 25.05 10.05 25.05" fill="url(#gradient9)" fill-rule="evenodd" stroke="none"/>
      <path d="M19.15 16.1 L19.3 16.2 19.35 16.25 19.4 16.35 19.5 16.65 19.3 16.55 Q18.95 16.65 18.55 17.25 L17.85 18.15 16.95 19.75 15.3 20.45 15.35 20.3 15.4 20.3 15.55 20.25 15.65 20.2 Q15.7 20.05 15.9 20.0 L16.1 19.95 16.05 19.8 16.1 19.7 17.0 18.3 17.35 17.85 17.45 17.65 18.65 16.3 19.35 16.3 19.05 16.1 19.15 16.1" fill="url(#gradient10)" fill-rule="evenodd" stroke="none"/>
      <path d="M19.25 18.55 L19.35 18.5 19.25 18.6 19.25 18.55 M14.65 24.7 L14.6 24.7 14.7 24.6 14.65 24.7 M12.55 25.1 L12.45 25.1 12.9 24.75 12.55 25.1 M15.3 20.5 L15.3 20.55 15.15 20.6 15.25 20.5 15.3 20.5" fill="url(#gradient11)" fill-rule="evenodd" stroke="none"/>
      <path d="M14.9 13.2 L14.85 13.05 14.9 13.05 14.9 13.2" fill="url(#gradient12)" fill-rule="evenodd" stroke="none"/>
      <path d="M13.8 21.25 L14.1 20.85 Q14.6 20.75 14.9 20.45 L14.95 20.55 13.8 21.25" fill="url(#gradient13)" fill-rule="evenodd" stroke="none"/>
      <path d="M9.1 9.8 L9.75 10.4 9.35 10.45 9.35 10.35 9.3 10.45 6.05 10.55 4.85 10.45 4.65 10.35 4.55 10.3 Q3.9 9.95 3.85 9.25 4.0 9.95 4.55 10.15 L4.65 10.25 5.75 10.3 9.1 9.8 M10.25 10.4 L10.95 9.8 14.2 10.3 15.35 10.25 15.5 10.15 16.15 9.25 Q16.1 9.95 15.5 10.3 L15.3 10.35 15.1 10.45 13.95 10.55 10.65 10.45 10.6 10.35 10.6 10.45 10.25 10.4" fill="#ffffff" fill-rule="evenodd" stroke="none"/>
      <path d="M18.3 21.9 Q18.65 21.6 19.55 21.15 L20.4 20.75 20.6 20.7 23.65 22.2 Q23.1 22.2 22.2 23.25 L21.1 24.55 Q17.65 24.45 17.5 22.65 L17.6 22.4 17.65 22.4 18.3 21.9" fill="url(#gradient14)" fill-rule="evenodd" stroke="none"/>
      <path d="M14.0 12.9 L14.0 13.0 14.4 13.0 14.4 12.9 14.55 13.55 15.05 14.55 14.95 14.9 14.85 15.05 14.8 15.05 14.6 15.05 14.35 14.9 13.85 14.55 14.0 12.9" fill="url(#gradient15)" fill-rule="evenodd" stroke="none"/>
      <path d="M14.85 15.05 L15.65 16.7 15.1 17.4 13.55 16.85 13.6 16.25 13.8 15.5 14.1 15.3 14.8 15.05 14.85 15.05" fill="url(#gradient16)" fill-rule="evenodd" stroke="none"/>
      <path d="M17.3 11.85 L17.35 11.8 17.45 11.85 Q17.3 12.2 17.65 13.3 17.95 14.35 18.5 15.2 L18.7 15.75 18.85 15.9 19.05 15.95 19.15 16.1 19.05 16.1 18.85 15.95 18.8 15.9 Q18.0 16.3 17.3 17.45 L16.45 18.8 16.05 18.5 Q15.65 18.1 15.65 17.7 L15.7 17.55 15.8 17.25 16.1 16.8 Q15.8 16.7 15.55 16.05 L15.2 15.25 15.2 14.95 15.65 14.9 15.65 14.8 Q15.2 14.7 15.05 14.05 L14.9 13.25 14.9 13.2 14.9 13.05 14.85 13.05 14.8 12.9 16.1 12.55 Q16.5 12.3 17.05 12.1 L17.2 12.05 17.3 11.85" fill="url(#gradient17)" fill-rule="evenodd" stroke="none"/>
      <path d="M15.75 8.5 L15.9 8.35 16.1 8.65 16.1 8.7 16.15 8.75 16.1 8.85 14.6 9.3 14.5 9.3 14.5 8.85 14.5 8.8 14.55 8.8 15.25 8.75 15.3 8.75 15.3 8.7 15.5 8.65 15.75 8.5" fill="url(#gradient18)" fill-rule="evenodd" stroke="none"/>
      <path d="M3.85 8.75 L3.9 8.7 3.9 8.65 Q3.8 8.5 4.05 8.35 L4.25 8.5 4.55 8.65 4.65 8.7 4.65 8.75 4.7 8.75 5.45 8.8 5.55 8.8 5.55 8.85 5.55 9.3 5.4 9.3 3.9 8.85 3.85 8.75" fill="url(#gradient19)" fill-rule="evenodd" stroke="none"/>
      <path d="M24.95 22.6 L25.0 22.65 24.2 22.65 Q23.4 22.75 22.7 23.35 L21.55 24.55 20.85 25.15 20.5 25.15 21.1 24.55 22.2 23.25 Q23.1 22.2 23.65 22.2 23.45 22.3 23.7 22.3 L23.8 22.3 23.65 22.2 24.7 22.5 24.75 22.55 24.9 22.6 24.95 22.6 M-4.9 22.65 L-4.9 22.6 -4.85 22.6 -4.75 22.55 -4.7 22.5 -3.65 22.2 Q-3.05 22.2 -2.2 23.25 L-1.1 24.55 -0.55 25.15 -0.85 25.15 -1.6 24.55 -2.75 23.35 Q-3.45 22.75 -4.2 22.65 L-4.9 22.65 M-3.75 22.3 L-3.65 22.3 Q-3.5 22.3 -3.65 22.2 L-3.75 22.3" fill="#5f555f" fill-rule="evenodd" stroke="none"/>
      <path d="M25.65 23.8 L26.2 24.15 Q24.25 25.1 22.5 25.1 L20.85 25.15 21.55 24.55 23.4 24.3 25.65 23.8 M-6.05 24.05 L-5.65 23.8 -3.45 24.3 -1.6 24.55 -0.85 25.15 -2.5 25.1 Q-4.25 25.1 -6.25 24.15 L-6.05 24.05" fill="#807e80" fill-rule="evenodd" stroke="none"/>
      <path d="M25.5 23.65 L25.65 23.8 23.4 24.3 21.55 24.55 22.7 23.35 Q23.4 22.75 24.2 22.65 L25.4 23.55 25.5 23.65" fill="url(#gradient20)" fill-rule="evenodd" stroke="none"/>
      <path d="M2.35 22.4 L2.4 22.4 2.5 22.65 Q2.3 24.45 -1.1 24.55 L-2.2 23.25 Q-3.05 22.2 -3.65 22.2 L-0.55 20.65 -0.45 20.75 0.4 21.05 1.7 21.9 2.3 22.4 2.35 22.4" fill="url(#gradient21)" fill-rule="evenodd" stroke="none"/>
      <path d="M-5.65 23.8 L-5.5 23.7 -5.4 23.55 -4.2 22.65 Q-3.45 22.75 -2.75 23.35 L-1.6 24.55 -3.45 24.3 -5.65 23.8" fill="url(#gradient22)" fill-rule="evenodd" stroke="none"/>
      <path d="M16.15 8.75 L16.2 8.8 16.4 9.2 16.5 9.35 16.7 9.7 16.95 10.25 17.0 10.45 17.05 10.55 17.2 11.15 17.05 11.55 16.65 12.0 15.25 12.55 14.8 12.6 14.95 12.3 15.4 10.85 15.5 10.3 Q16.1 9.95 16.15 9.25 L16.15 9.2 16.1 8.85 16.15 8.75" fill="url(#gradient23)" fill-rule="evenodd" stroke="none"/>
      <path d="M3.4 12.0 L2.9 11.55 2.8 11.15 2.9 10.55 2.95 10.45 3.0 10.25 3.3 9.7 3.5 9.35 3.6 9.2 3.8 8.8 3.85 8.75 3.9 8.85 3.85 9.2 3.85 9.25 Q3.9 9.95 4.55 10.3 L4.6 10.85 Q4.75 11.85 5.05 12.3 L5.2 12.6 4.7 12.55 3.4 12.0" fill="url(#gradient24)" fill-rule="evenodd" stroke="none"/>
      <path d="M16.65 12.0 L17.2 11.9 17.05 12.1 Q16.5 12.3 16.1 12.55 L14.8 12.9 14.85 13.05 14.9 13.2 14.9 13.25 15.05 14.05 Q15.2 14.7 15.65 14.8 L15.65 14.9 15.2 14.95 15.2 15.25 15.55 16.05 Q15.8 16.7 16.1 16.8 L15.8 17.25 15.7 17.55 15.65 17.7 Q15.65 18.1 16.05 18.5 L16.45 18.8 17.3 17.45 Q18.0 16.3 18.8 15.9 L18.85 15.95 19.05 16.1 19.35 16.3 18.65 16.3 17.45 17.65 17.35 17.85 17.0 18.3 16.1 19.7 16.05 19.8 16.1 19.95 15.9 20.0 Q15.7 20.05 15.65 20.2 L15.55 20.25 15.35 20.3 15.5 20.0 15.55 19.95 15.55 19.9 15.65 19.55 15.6 19.6 15.85 18.85 15.0 17.6 14.2 17.8 13.45 18.1 13.5 17.3 13.6 17.3 13.75 17.3 14.9 17.45 15.0 17.55 15.1 17.4 15.65 16.7 14.85 15.05 14.95 14.9 15.05 14.55 14.55 13.55 14.4 12.9 14.4 13.0 14.0 13.0 14.0 12.9 13.95 12.9 12.1 12.65 11.6 12.35 11.55 12.3 11.0 12.05 10.5 11.85 10.45 11.3 10.6 10.45 10.6 10.35 10.65 10.45 11.5 11.45 Q12.35 12.4 13.3 12.6 L14.55 12.7 14.6 12.7 14.65 12.75 15.25 12.55 16.65 12.0" fill="url(#gradient25)" fill-rule="evenodd" stroke="none"/>
      <path d="M2.8 11.9 L3.4 12.0 4.7 12.55 5.35 12.75 5.4 12.7 5.45 12.7 6.7 12.6 Q7.6 12.4 8.5 11.45 L9.3 10.45 9.35 10.35 9.35 10.45 9.5 11.3 9.45 11.85 9.05 12.05 8.45 12.3 8.4 12.35 7.9 12.65 6.05 12.9 6.0 12.9 5.95 12.9 5.95 13.0 5.6 13.0 5.6 12.9 5.45 13.55 4.95 14.55 5.05 14.9 5.15 15.05 4.4 16.7 4.85 17.4 5.0 17.55 5.1 17.45 6.3 17.3 6.4 17.3 6.5 17.3 6.5 18.1 5.75 17.8 5.0 17.6 4.1 18.85 4.45 19.6 4.4 19.55 4.5 19.9 4.5 19.95 4.55 20.0 4.65 20.3 4.5 20.25 4.4 20.2 Q4.3 20.05 4.05 20.0 L3.9 19.95 3.95 19.8 3.9 19.7 2.95 18.3 2.7 17.85 2.55 17.65 1.3 16.3 0.65 16.3 0.95 16.1 1.15 15.9 Q2.0 16.3 2.75 17.45 L3.55 18.8 3.95 18.5 4.4 17.7 4.3 17.55 4.15 17.25 3.9 16.8 4.5 16.05 4.75 15.25 4.75 14.95 4.4 14.9 4.4 14.8 4.95 14.05 5.1 13.25 5.1 13.2 5.15 13.05 5.2 12.9 3.9 12.55 Q3.5 12.3 2.9 12.1 L2.8 11.9" fill="url(#gradient26)" fill-rule="evenodd" stroke="none"/>
      <path d="M10.65 10.45 L13.95 10.55 15.1 10.45 15.3 10.35 15.5 10.3 15.4 10.85 14.95 12.3 14.8 12.6 14.65 12.75 14.6 12.7 14.55 12.7 13.3 12.6 Q12.35 12.4 11.5 11.45 L10.65 10.45" fill="url(#gradient27)" fill-rule="evenodd" stroke="none"/>
      <path d="M4.55 10.3 L4.65 10.35 4.85 10.45 6.05 10.55 9.3 10.45 8.5 11.45 Q7.6 12.4 6.7 12.6 L5.45 12.7 5.4 12.7 5.35 12.75 5.2 12.6 5.05 12.3 Q4.75 11.85 4.6 10.85 L4.55 10.3" fill="url(#gradient28)" fill-rule="evenodd" stroke="none"/>
      <path d="M7.45 8.65 L7.6 8.6 7.9 8.7 8.0 8.6 8.15 8.6 8.15 8.55 8.55 8.55 8.65 9.15 8.2 9.05 8.15 9.05 6.0 9.3 5.55 9.3 5.55 8.85 5.55 8.8 6.9 8.75 7.45 8.65 M11.35 9.15 L11.45 8.55 11.85 8.55 11.85 8.6 12.05 8.6 12.1 8.7 12.35 8.6 12.55 8.65 12.6 8.65 13.1 8.75 14.5 8.8 14.5 8.85 14.5 9.3 13.95 9.3 11.85 9.05 11.8 9.05 11.35 9.15" fill="#d0d0d0" fill-rule="evenodd" stroke="none"/>
      <path d="M8.65 9.15 L8.75 9.4 9.1 9.8 5.75 10.3 4.65 10.25 4.55 10.15 Q4.0 9.95 3.85 9.25 L3.85 9.2 3.9 8.85 5.4 9.3 5.55 9.3 6.0 9.3 8.15 9.05 8.2 9.05 8.65 9.15 M10.95 9.8 L11.2 9.4 11.35 9.15 11.8 9.05 11.85 9.05 13.95 9.3 14.5 9.3 14.6 9.3 16.1 8.85 16.15 9.2 16.15 9.25 15.5 10.15 15.35 10.25 14.2 10.3 10.95 9.8" fill="#f3f1f3" fill-rule="evenodd" stroke="none"/>
      <path d="M5.45 7.15 L7.45 8.65 6.9 8.75 5.45 7.65 5.45 7.15 M12.6 8.65 L14.55 7.15 14.55 7.65 Q14.35 7.75 13.1 8.75 L12.6 8.65" fill="#7a59cb" fill-rule="evenodd" stroke="none"/>
      <path d="M18.75 18.0 L19.0 18.6 18.15 19.2 17.95 19.3 17.5 19.5 17.1 19.7 16.95 19.75 17.85 18.15 18.55 17.25 18.75 18.0" fill="url(#gradient29)" fill-rule="evenodd" stroke="none"/>
      <path d="M1.0 18.6 L1.2 18.0 1.5 17.25 2.15 18.15 3.0 19.75 2.85 19.7 2.55 19.55 2.45 19.5 1.0 18.6" fill="url(#gradient30)" fill-rule="evenodd" stroke="none"/>
      <path d="M19.4 19.3 Q19.6 19.8 20.3 20.5 L20.4 20.6 20.65 20.7 20.5 20.65 20.45 20.7 20.6 20.7 20.4 20.75 19.55 21.15 Q18.65 21.6 18.3 21.9 18.5 20.15 19.4 19.3 M-0.35 20.65 L-0.4 20.6 -0.25 20.5 0.6 19.3 Q1.55 20.15 1.7 21.9 L0.4 21.05 -0.45 20.75 -0.25 20.75 -0.35 20.65" fill="#7979e0" fill-rule="evenodd" stroke="none"/>
      <path d="M19.4 19.3 Q18.5 20.15 18.3 21.9 L17.65 22.4 17.95 21.4 Q18.55 19.5 19.25 18.6 19.15 18.8 19.4 19.3 M0.6 19.3 L0.75 18.6 Q1.5 19.5 2.05 21.4 L2.35 22.4 2.3 22.4 1.7 21.9 Q1.55 20.15 0.6 19.3" fill="#292985" fill-rule="evenodd" stroke="none"/>
      <path d="M12.1 12.65 L13.95 12.9 14.0 12.9 13.85 14.55 13.8 14.9 13.8 15.5 13.6 16.25 13.55 16.85 Q13.5 17.15 13.6 17.3 L13.5 17.3 13.45 18.1 13.15 20.25 Q12.95 21.1 13.85 20.5 14.7 19.95 14.75 20.2 L14.9 20.45 Q14.6 20.75 14.1 20.85 L13.8 21.25 13.8 21.3 13.75 21.35 12.1 21.95 10.35 22.35 10.1 22.4 10.05 22.4 10.05 21.95 10.0 21.95 10.0 12.8 Q10.65 12.45 11.25 12.55 L12.1 12.65" fill="url(#gradient31)" fill-rule="evenodd" stroke="none"/>
      <path d="M7.9 12.65 L8.7 12.55 Q9.3 12.45 10.0 12.8 L10.0 21.95 10.05 21.95 10.05 22.4 9.95 22.4 9.9 22.4 9.65 22.35 7.95 21.95 6.3 21.35 6.25 21.25 5.85 20.85 5.1 20.45 5.25 20.2 Q5.3 19.95 6.2 20.5 7.05 21.1 6.85 20.25 L6.5 18.1 6.5 17.3 6.4 17.3 6.45 16.85 6.4 16.25 6.25 15.5 6.25 14.9 6.2 14.55 5.95 12.9 6.0 12.9 6.15 13.05 6.05 12.9 7.9 12.65" fill="url(#gradient32)" fill-rule="evenodd" stroke="none"/>
      <path d="M27.3 24.75 L29.0 25.9 Q28.0 25.7 25.55 26.7 23.1 27.6 21.15 27.6 19.25 27.6 17.45 26.75 L16.2 26.0 16.55 24.4 16.8 23.8 Q17.25 24.95 18.45 25.3 L21.5 25.85 25.05 25.3 26.85 24.75 Q27.25 24.75 27.35 24.9 L27.3 24.75" fill="url(#gradient33)" fill-rule="evenodd" stroke="none"/>
      <path d="M3.8 26.0 Q3.2 26.4 2.55 26.75 0.75 27.6 -1.15 27.6 -3.05 27.6 -5.5 26.7 -8.05 25.7 -9.0 25.9 L-7.3 24.75 -7.35 24.9 -6.85 24.75 -5.05 25.3 -1.55 25.85 1.6 25.3 Q2.8 24.95 3.2 23.8 L3.45 24.4 3.8 26.0" fill="url(#gradient34)" fill-rule="evenodd" stroke="none"/>
      <path d="M2.45 19.5 L2.55 19.55 2.85 19.7 3.45 20.9 3.5 21.1 3.75 21.4 4.55 21.95 6.2 23.2 8.35 25.1 8.2 25.1 7.5 25.1 7.1 24.75 7.45 25.1 5.4 24.7 5.3 24.6 4.3 23.55 2.8 22.35 2.8 22.1 2.75 21.75 2.75 21.7 2.35 20.45 1.8 19.15 2.45 19.5 M17.1 19.7 L17.5 19.5 17.95 19.3 18.15 19.2 18.2 19.15 17.65 20.45 17.3 21.7 17.3 21.75 17.25 22.1 17.25 22.35 15.7 23.55 14.7 24.6 14.6 24.7 12.55 25.1 12.9 24.75 12.45 25.1 11.8 25.1 11.65 25.1 13.85 23.2 Q14.85 22.35 15.5 21.95 15.9 21.6 16.25 21.4 L16.5 21.1 16.55 20.9 Q16.85 19.95 17.1 19.7" fill="#a04baa" fill-rule="evenodd" stroke="none"/>
      <path d="M0.75 18.55 L0.95 18.6 0.95 18.65 1.8 19.15 2.35 20.45 2.75 21.7 2.75 21.75 2.8 22.1 2.8 22.35 4.3 23.55 5.3 24.6 5.35 24.7 4.4 24.55 Q3.9 24.5 3.25 23.55 L3.0 23.5 2.9 23.55 2.9 23.35 2.7 22.95 2.5 22.65 2.4 22.4 2.35 22.4 2.05 21.4 Q1.5 19.5 0.75 18.6 L0.75 18.55 M19.05 18.65 L19.1 18.6 19.25 18.55 19.25 18.6 Q18.55 19.5 17.95 21.4 L17.65 22.4 17.6 22.4 17.5 22.65 17.35 22.95 16.75 23.55 15.65 24.55 14.65 24.7 14.7 24.6 15.7 23.55 17.25 22.35 17.25 22.1 17.3 21.75 17.3 21.7 17.65 20.45 18.2 19.15 19.05 18.65" fill="#c383d0" fill-rule="evenodd" stroke="none"/>
      <path d="M16.2 26.0 L16.1 25.85 15.15 26.05 13.95 26.25 13.0 26.3 Q12.8 26.3 12.55 26.45 L11.4 26.8 10.15 26.8 10.1 25.1 10.0 25.05 9.9 25.1 9.85 26.8 8.6 26.8 7.45 26.45 6.95 26.3 6.05 26.25 4.8 26.05 3.9 25.85 3.8 26.0 3.45 24.4 3.2 23.8 3.25 23.55 Q3.9 24.5 4.4 24.55 L5.35 24.7 5.35 24.75 5.4 24.75 5.4 24.7 7.45 25.1 7.5 25.1 8.2 25.1 8.35 25.1 9.6 25.0 9.9 25.05 10.0 25.05 10.05 25.05 10.1 25.05 10.4 25.0 11.65 25.1 11.8 25.1 12.45 25.1 12.55 25.1 14.6 24.7 14.6 24.75 14.65 24.75 14.65 24.7 15.65 24.55 16.75 23.55 16.8 23.8 16.55 24.4 16.2 26.0" fill="#783780" fill-rule="evenodd" stroke="none"/>
      <path d="M6.6 18.1 L6.6 17.9 8.5 18.3 9.15 18.5 9.6 18.65 10.05 18.85 10.45 18.65 10.9 18.5 11.55 18.3 13.45 17.9 13.45 18.1 13.15 20.25 Q12.95 21.1 13.85 20.5 14.7 19.95 14.75 20.2 L14.9 20.45 Q14.6 20.75 14.1 20.85 L13.8 21.25 13.8 21.3 13.75 21.35 12.1 21.95 11.65 22.1 11.25 22.2 10.4 22.35 10.15 22.4 9.9 22.4 9.65 22.35 8.4 22.1 7.95 21.95 6.3 21.35 6.25 21.3 6.25 21.25 5.95 20.85 Q5.45 20.75 5.15 20.45 L5.3 20.2 Q5.35 19.95 6.2 20.5 7.1 21.1 6.9 20.25 L6.6 18.1 M10.05 13.55 L10.0 13.55 8.7 13.6 6.8 13.55 6.1 13.5 6.05 12.9 6.1 12.9 7.95 12.65 8.8 12.55 10.05 12.8 11.25 12.55 12.1 12.65 13.95 12.9 14.0 12.9 13.95 13.5 13.25 13.55 11.35 13.6 10.05 13.55" fill="#44257e" fill-opacity="0.49803922" fill-rule="evenodd" stroke="none"/>
      <path d="M10.1 3.05 L10.3 3.1 11.1 2.95 Q11.25 2.85 11.5 2.7 L11.5 3.05 Q10.9 3.6 10.1 3.5 L10.1 3.45 10.05 3.2 10.1 3.05 M11.65 3.8 L11.7 3.85 11.7 3.75 11.85 3.6 11.9 3.55 12.1 3.95 12.05 4.0 11.5 4.35 10.1 4.9 10.05 4.35 10.8 4.3 Q11.25 4.25 11.65 3.8 M10.0 3.05 L10.0 3.0 10.05 3.0 10.0 3.05" fill="url(#gradient35)" fill-rule="evenodd" stroke="none"/>
      <path d="M10.1 3.45 L10.1 3.5 Q10.9 3.6 11.5 3.05 L11.6 3.65 11.65 3.75 11.65 3.8 Q11.25 4.25 10.8 4.3 L10.05 4.35 9.3 4.3 Q8.85 4.25 8.45 3.8 L8.45 3.75 8.5 3.65 8.6 3.05 Q9.15 3.55 10.0 3.5 L10.05 3.45 10.1 3.45" fill="#353b79" fill-rule="evenodd" stroke="none"/>
      <path d="M10.1 3.05 L10.05 3.2 10.1 3.45 10.05 3.45 10.0 3.5 Q9.15 3.55 8.6 3.05 L8.6 2.7 9.0 2.95 9.8 3.1 10.0 3.05 10.05 3.0 10.1 3.0 10.1 3.05 M10.1 4.9 L10.0 4.9 8.6 4.35 8.05 4.0 8.0 3.95 8.2 3.55 8.25 3.6 8.4 3.75 8.4 3.85 8.45 3.8 Q8.85 4.25 9.3 4.3 L10.05 4.35 10.1 4.9" fill="url(#gradient36)" fill-rule="evenodd" stroke="none"/>
      <path d="M14.95 18.95 Q14.9 20.0 18.05 21.0 L17.05 22.0 16.9 22.15 16.35 22.15 Q15.35 22.15 14.5 21.7 L13.65 20.85 14.55 19.7 14.95 18.95 M3.1 22.15 L2.9 22.0 1.9 21.0 Q5.1 20.0 5.0 18.95 L5.4 19.7 6.35 20.85 5.45 21.7 3.65 22.15 3.1 22.15" fill="#ffffff" fill-rule="evenodd" stroke="none"/>
      <path d="M10.45 20.7 Q11.75 19.85 13.15 19.45 14.45 18.95 15.5 17.95 L14.95 18.95 14.55 19.7 13.65 20.85 12.75 21.6 11.9 21.85 11.25 22.1 10.85 22.25 Q11.25 21.1 10.45 20.7" fill="url(#gradient37)" fill-rule="evenodd" stroke="none"/>
      <path d="M4.45 17.95 Q5.5 18.95 6.85 19.45 8.25 19.85 9.5 20.7 8.75 21.1 9.15 22.25 L8.75 22.1 8.1 21.85 7.25 21.6 6.35 20.85 5.4 19.7 5.0 18.95 4.45 17.95" fill="url(#gradient38)" fill-rule="evenodd" stroke="none"/>
      <path d="M16.9 22.15 L16.7 22.3 Q15.85 23.15 15.55 23.7 L14.45 23.8 Q13.75 23.8 12.95 23.3 12.2 22.8 11.9 21.85 L12.75 21.6 13.65 20.85 14.5 21.7 Q15.35 22.15 16.35 22.15 L16.9 22.15" fill="url(#gradient39)" fill-rule="evenodd" stroke="none"/>
      <path d="M4.4 23.7 L3.3 22.3 3.1 22.15 3.65 22.15 5.45 21.7 6.35 20.85 7.25 21.6 8.1 21.85 Q7.8 22.8 7.0 23.3 L5.5 23.8 4.4 23.7" fill="url(#gradient40)" fill-rule="evenodd" stroke="none"/>
      <path d="M7.2 25.0 Q5.65 23.85 4.5 24.05 L4.4 23.7 5.5 23.8 7.0 23.3 Q7.8 22.8 8.1 21.85 L8.75 22.1 9.15 22.25 9.45 23.2 8.85 24.25 Q8.25 25.0 7.5 25.0 L7.2 25.0" fill="url(#gradient41)" fill-rule="evenodd" stroke="none"/>
      <path d="M15.55 23.7 L15.45 24.05 Q14.35 23.85 12.8 25.0 L12.45 25.0 Q11.75 25.0 11.15 24.25 L10.5 23.2 10.85 22.25 11.25 22.1 11.9 21.85 Q12.2 22.8 12.95 23.3 13.75 23.8 14.45 23.8 L15.55 23.7" fill="url(#gradient42)" fill-rule="evenodd" stroke="none"/>
      <path d="M12.8 25.0 L12.35 25.3 Q11.75 25.8 11.15 26.8 L10.0 27.6 10.0 27.5 9.95 27.6 8.85 26.8 Q8.25 25.8 7.65 25.3 L7.2 25.0 7.5 25.0 Q8.25 25.0 8.85 24.25 L9.45 23.2 9.45 23.25 Q9.6 24.6 9.95 25.1 L10.0 25.15 10.0 25.1 Q10.4 24.6 10.5 23.25 L10.5 23.2 11.15 24.25 Q11.75 25.0 12.45 25.0 L12.8 25.0" fill="url(#gradient43)" fill-rule="evenodd" stroke="none"/>
      <path d="M9.95 21.15 L10.0 21.1 10.0 21.15 10.25 21.5 10.35 22.4 10.0 22.55 9.95 22.55 9.65 22.4 Q9.5 21.9 9.75 21.5 L9.95 21.15" fill="url(#gradient44)" fill-rule="evenodd" stroke="none"/>
      <path d="M9.5 20.7 L9.95 19.95 10.0 19.85 10.0 19.95 10.45 20.7 Q11.25 21.1 10.85 22.25 L10.5 23.2 10.5 23.25 Q10.4 24.6 10.0 25.1 L10.0 25.15 9.95 25.1 Q9.6 24.6 9.45 23.25 L9.45 23.2 9.15 22.25 Q8.75 21.1 9.5 20.7 M9.95 21.15 L9.75 21.5 Q9.5 21.9 9.65 22.4 L9.95 22.55 10.0 22.55 10.35 22.4 10.25 21.5 10.0 21.15 10.0 21.1 9.95 21.15" fill="url(#gradient45)" fill-rule="evenodd" stroke="none"/>
      <path d="M4.45 17.95 L4.35 17.75 4.0 17.05 Q4.8 18.0 7.15 18.7 9.35 19.3 9.75 19.7 L10.25 19.7 Q10.65 19.3 12.85 18.7 15.2 18.0 15.95 17.05 L15.65 17.75 15.5 17.95 Q14.45 18.95 13.15 19.45 11.75 19.85 10.45 20.7 L10.0 19.95 10.0 19.85 9.95 19.95 9.5 20.7 Q8.25 19.85 6.85 19.45 5.5 18.95 4.45 17.95" fill="url(#gradient46)" fill-rule="evenodd" stroke="none"/>
      <path d="M7.5 16.3 L7.45 16.2 Q7.15 15.25 8.25 15.25 L9.7 15.55 9.8 15.55 10.0 15.9 10.05 15.9 10.05 15.85 10.35 15.6 10.55 15.45 10.85 15.4 11.15 15.3 11.9 15.25 Q12.8 15.25 12.65 16.0 L12.6 16.2 12.4 16.65 Q12.15 17.05 11.75 17.1 L10.6 16.95 10.05 16.7 9.45 16.95 9.4 17.0 8.3 17.1 7.95 17.0 7.5 16.3 M9.3 13.3 L9.2 13.25 8.65 13.1 8.05 13.1 7.95 13.15 7.75 13.5 7.95 14.0 8.05 14.15 8.85 14.15 9.15 14.1 9.45 13.95 9.75 13.7 9.75 13.55 9.65 13.5 9.65 13.45 9.3 13.3 M9.65 12.9 L9.75 12.9 10.0 13.3 10.05 13.3 10.05 13.25 10.4 13.0 10.65 12.75 11.0 12.65 11.35 12.6 12.2 12.6 Q13.25 12.6 13.1 13.45 L13.05 13.6 12.8 14.15 Q12.5 14.65 12.05 14.7 L10.7 14.5 10.05 14.15 9.35 14.5 9.3 14.55 8.0 14.7 7.6 14.55 7.1 13.75 7.05 13.6 Q6.7 12.6 7.95 12.6 L9.65 12.9 M9.7 16.0 L9.4 15.9 9.3 15.85 8.85 15.75 8.3 15.75 8.25 15.75 8.05 16.05 8.25 16.5 8.3 16.65 9.0 16.65 9.25 16.6 9.55 16.45 9.8 16.25 9.8 16.1 9.7 16.05 9.7 16.0 M11.7 16.65 Q12.0 16.6 12.0 16.05 12.0 15.6 11.25 15.75 L10.75 15.85 10.7 15.9 10.35 16.1 10.35 16.3 Q10.6 16.6 11.05 16.65 L11.7 16.65 M12.35 13.5 Q12.35 13.0 11.45 13.1 L10.85 13.25 10.8 13.3 10.4 13.55 10.4 13.75 Q10.7 14.1 11.25 14.15 L12.0 14.15 Q12.35 14.1 12.35 13.5" fill="#000000" fill-opacity="0.6" fill-rule="evenodd" stroke="none"/>
      <path d="M10.05 13.0 L10.05 12.9 10.4 12.6 10.65 12.45 11.0 12.3 11.35 12.3 12.2 12.2 Q13.25 12.2 13.1 13.1 12.95 12.65 12.0 12.65 L11.3 12.8 11.25 12.8 11.1 12.8 10.9 12.9 10.85 12.9 10.8 13.0 10.4 13.25 10.4 13.4 Q10.65 14.15 11.7 14.15 L12.65 13.9 12.8 13.8 12.05 14.4 10.7 14.15 10.05 13.85 9.35 14.15 9.3 14.25 8.0 14.4 7.6 14.25 7.1 13.4 Q7.4 13.85 8.0 13.85 L8.85 13.8 9.15 13.75 9.2 13.75 9.3 13.75 9.8 13.4 9.8 13.3 10.05 13.0 M9.55 16.2 L9.85 16.0 9.85 15.9 10.05 15.6 10.05 15.55 10.35 15.3 10.55 15.15 10.85 15.1 11.15 15.05 11.9 15.0 Q12.8 15.0 12.65 15.75 12.55 15.4 11.7 15.4 L11.15 15.45 11.1 15.5 11.05 15.5 10.8 15.55 10.75 15.55 10.7 15.6 10.35 15.85 10.35 16.0 Q10.55 16.65 11.45 16.65 L12.3 16.4 12.4 16.35 Q12.15 16.75 11.75 16.8 L10.6 16.7 10.05 16.35 9.45 16.7 9.4 16.7 8.3 16.8 7.95 16.7 7.5 16.0 Q7.75 16.35 8.3 16.35 L9.0 16.35 9.25 16.3 9.55 16.2" fill="#ffeed4" fill-rule="evenodd" stroke="none"/>
      <path d="M13.1 13.1 L13.05 13.3 12.8 13.8 12.65 13.9 11.7 14.15 Q10.65 14.15 10.4 13.4 10.7 13.75 11.25 13.8 L12.0 13.8 Q12.35 13.75 12.35 13.15 12.35 12.6 11.45 12.75 L11.3 12.8 12.0 12.65 Q12.95 12.65 13.1 13.1 M7.1 13.4 L7.05 13.3 Q6.7 12.2 7.95 12.2 9.05 12.2 9.65 12.6 L9.75 12.6 10.0 13.0 10.05 13.0 9.8 13.3 9.8 13.4 9.3 13.75 9.45 13.6 9.75 13.35 9.75 13.25 9.65 13.15 9.65 13.1 9.3 13.0 9.2 12.9 8.65 12.75 8.05 12.75 7.95 12.85 7.75 13.15 7.95 13.7 8.05 13.8 8.85 13.8 8.0 13.85 Q7.4 13.85 7.1 13.4 M9.55 16.2 Q9.65 16.0 9.8 16.0 L9.8 15.85 9.7 15.75 9.4 15.6 9.3 15.55 8.85 15.45 8.3 15.45 8.25 15.5 8.05 15.75 8.25 16.25 8.3 16.35 Q7.75 16.35 7.5 16.0 L7.45 15.9 Q7.15 15.0 8.25 15.0 L9.7 15.25 9.8 15.25 10.0 15.6 10.05 15.6 9.85 15.9 9.85 16.0 9.55 16.2 M12.4 16.35 L12.3 16.4 11.45 16.65 Q10.55 16.65 10.35 16.0 10.6 16.3 11.05 16.35 L11.7 16.35 Q12.0 16.3 12.0 15.75 12.0 15.3 11.25 15.45 L11.15 15.45 11.7 15.4 Q12.55 15.4 12.65 15.75 L12.6 15.9 12.4 16.35" fill="#d4b567" fill-rule="evenodd" stroke="none"/>
    </g>
    <linearGradient gradientTransform="matrix(0.0, 0.0, 0.0, 0.0, 20.55, -1.2)" gradientUnits="userSpaceOnUse" id="gradient0" spreadMethod="reflect" x1="-819.2" x2="819.2">
      <stop offset="0.0" stop-color="#9c9696"/>
      <stop offset="1.0" stop-color="#d4d4d4"/>
    </linearGradient>
    <linearGradient gradientTransform="matrix(0.0, 0.0, 0.0, 0.0, 20.55, -1.2)" gradientUnits="userSpaceOnUse" id="gradient1" spreadMethod="reflect" x1="-819.2" x2="819.2">
      <stop offset="0.0" stop-color="#365b45"/>
      <stop offset="1.0" stop-color="#d4d4d4"/>
    </linearGradient>
    <linearGradient gradientTransform="matrix(0.0, 0.0, 0.0, 0.0, -0.6, -1.2)" gradientUnits="userSpaceOnUse" id="gradient2" spreadMethod="reflect" x1="-819.2" x2="819.2">
      <stop offset="0.0" stop-color="#9c9696"/>
      <stop offset="1.0" stop-color="#d4d4d4"/>
    </linearGradient>
    <linearGradient gradientTransform="matrix(0.0, 0.0, 0.0, 0.0, -0.6, -1.2)" gradientUnits="userSpaceOnUse" id="gradient3" spreadMethod="reflect" x1="-819.2" x2="819.2">
      <stop offset="0.0" stop-color="#365b45"/>
      <stop offset="1.0" stop-color="#d4d4d4"/>
    </linearGradient>
    <linearGradient gradientTransform="matrix(-0.0032, -0.003, -0.0035, 0.0038, 3.1, 15.95)" gradientUnits="userSpaceOnUse" id="gradient4" spreadMethod="pad" x1="-819.2" x2="819.2">
      <stop offset="0.0" stop-color="#674e6d"/>
      <stop offset="0.49019607843137253" stop-color="#c4bdc6"/>
      <stop offset="0.6980392156862745" stop-color="#ede8f3"/>
    </linearGradient>
    <linearGradient gradientTransform="matrix(-0.0032, -0.003, -0.0035, 0.0038, 3.1, 15.95)" gradientUnits="userSpaceOnUse" id="gradient5" spreadMethod="pad" x1="-819.2" x2="819.2">
      <stop offset="0.49019607843137253" stop-color="#c4bdc6"/>
      <stop offset="0.6980392156862745" stop-color="#ede8f3"/>
    </linearGradient>
    <linearGradient gradientTransform="matrix(-0.0016, -0.002, -0.0021, 0.0016, 2.7, 18.2)" gradientUnits="userSpaceOnUse" id="gradient6" spreadMethod="reflect" x1="-819.2" x2="819.2">
      <stop offset="0.0" stop-color="#797070"/>
      <stop offset="1.0" stop-color="#e7e7e7"/>
    </linearGradient>
    <linearGradient gradientTransform="matrix(0.0, 0.0, 0.0, 0.0, -0.6, -1.2)" gradientUnits="userSpaceOnUse" id="gradient7" spreadMethod="reflect" x1="-819.2" x2="819.2">
      <stop offset="0.0" stop-color="#c24a1e"/>
      <stop offset="1.0" stop-color="#d4d4d4"/>
    </linearGradient>
    <linearGradient gradientTransform="matrix(0.0, 0.0, 0.0, 0.0, -0.6, -1.2)" gradientUnits="userSpaceOnUse" id="gradient8" spreadMethod="reflect" x1="-819.2" x2="819.2">
      <stop offset="0.0" stop-color="#b1d0be"/>
      <stop offset="1.0" stop-color="#d4d4d4"/>
    </linearGradient>
    <linearGradient gradientTransform="matrix(0.0, 0.0, 0.0, 0.0, 20.6, -1.2)" gradientUnits="userSpaceOnUse" id="gradient9" spreadMethod="reflect" x1="-819.2" x2="819.2">
      <stop offset="0.0" stop-color="#c24a1e"/>
      <stop offset="1.0" stop-color="#d4d4d4"/>
    </linearGradient>
    <linearGradient gradientTransform="matrix(0.0016, -0.002, 0.0021, 0.0016, 17.35, 18.2)" gradientUnits="userSpaceOnUse" id="gradient10" spreadMethod="reflect" x1="-819.2" x2="819.2">
      <stop offset="0.0" stop-color="#797070"/>
      <stop offset="1.0" stop-color="#e7e7e7"/>
    </linearGradient>
    <linearGradient gradientTransform="matrix(0.0, 0.0, 0.0, 0.0, 20.55, -1.2)" gradientUnits="userSpaceOnUse" id="gradient11" spreadMethod="reflect" x1="-819.2" x2="819.2">
      <stop offset="0.0" stop-color="#c24a1e"/>
      <stop offset="1.0" stop-color="#d4d4d4"/>
    </linearGradient>
    <linearGradient gradientTransform="matrix(0.0032, -0.003, 0.0035, 0.0038, 16.85, 15.95)" gradientUnits="userSpaceOnUse" id="gradient12" spreadMethod="pad" x1="-819.2" x2="819.2">
      <stop offset="0.49019607843137253" stop-color="#c4bdc6"/>
      <stop offset="0.6980392156862745" stop-color="#ede8f3"/>
    </linearGradient>
    <linearGradient gradientTransform="matrix(0.0, 0.0, 0.0, 0.0, 20.55, -1.2)" gradientUnits="userSpaceOnUse" id="gradient13" spreadMethod="reflect" x1="-819.2" x2="819.2">
      <stop offset="0.0" stop-color="#b1d0be"/>
      <stop offset="1.0" stop-color="#d4d4d4"/>
    </linearGradient>
    <linearGradient gradientTransform="matrix(0.0028, 0.0025, -0.0016, 0.0017, 20.55, 22.6)" gradientUnits="userSpaceOnUse" id="gradient14" spreadMethod="pad" x1="-819.2" x2="819.2">
      <stop offset="0.0" stop-color="#8d868e"/>
      <stop offset="0.6980392156862745" stop-color="#ffffff"/>
    </linearGradient>
    <linearGradient gradientTransform="matrix(7.0E-4, 0.0, 0.0, 0.0013, 14.45, 13.95)" gradientUnits="userSpaceOnUse" id="gradient15" spreadMethod="pad" x1="-819.2" x2="819.2">
      <stop offset="0.0" stop-color="#ede8f3"/>
      <stop offset="1.0" stop-color="#948b96"/>
    </linearGradient>
    <linearGradient gradientTransform="matrix(0.0013, 0.0, 0.0, 0.0014, 14.6, 16.2)" gradientUnits="userSpaceOnUse" id="gradient16" spreadMethod="pad" x1="-819.2" x2="819.2">
      <stop offset="0.0" stop-color="#ede8f3"/>
      <stop offset="1.0" stop-color="#948b96"/>
    </linearGradient>
    <linearGradient gradientTransform="matrix(0.0038, -0.002, 0.0024, 0.0045, 16.65, 16.05)" gradientUnits="userSpaceOnUse" id="gradient17" spreadMethod="pad" x1="-819.2" x2="819.2">
      <stop offset="0.0" stop-color="#3f3441"/>
      <stop offset="0.38823529411764707" stop-color="#a89faa"/>
      <stop offset="0.6509803921568628" stop-color="#ffffff"/>
      <stop offset="1.0" stop-color="#a89faa"/>
    </linearGradient>
    <linearGradient gradientTransform="matrix(0.0, 0.0, 0.0, 0.0, 20.55, -1.2)" gradientUnits="userSpaceOnUse" id="gradient18" spreadMethod="reflect" x1="-819.2" x2="819.2">
      <stop offset="0.0" stop-color="#665959"/>
      <stop offset="1.0" stop-color="#d4d4d4"/>
    </linearGradient>
    <linearGradient gradientTransform="matrix(0.0, 0.0, 0.0, 0.0, -0.6, -1.2)" gradientUnits="userSpaceOnUse" id="gradient19" spreadMethod="reflect" x1="-819.2" x2="819.2">
      <stop offset="0.0" stop-color="#665959"/>
      <stop offset="1.0" stop-color="#d4d4d4"/>
    </linearGradient>
    <linearGradient gradientTransform="matrix(0.0025, 0.0, 0.0, 0.0012, 23.6, 23.6)" gradientUnits="userSpaceOnUse" id="gradient20" spreadMethod="pad" x1="-819.2" x2="819.2">
      <stop offset="0.0" stop-color="#8d868e"/>
      <stop offset="0.6980392156862745" stop-color="#ffffff"/>
    </linearGradient>
    <linearGradient gradientTransform="matrix(-0.0026, 0.0027, -0.0017, -0.0017, -0.6, 22.6)" gradientUnits="userSpaceOnUse" id="gradient21" spreadMethod="pad" x1="-819.2" x2="819.2">
      <stop offset="0.0" stop-color="#8d868e"/>
      <stop offset="0.6980392156862745" stop-color="#ffffff"/>
    </linearGradient>
    <linearGradient gradientTransform="matrix(-0.0021, 0.0013, -6.0E-4, -0.001, -3.65, 23.6)" gradientUnits="userSpaceOnUse" id="gradient22" spreadMethod="pad" x1="-819.2" x2="819.2">
      <stop offset="0.0" stop-color="#8d868e"/>
      <stop offset="0.6980392156862745" stop-color="#ffffff"/>
    </linearGradient>
    <linearGradient gradientTransform="matrix(0.0015, 0.0, 0.0, 0.0023, 16.0, 10.65)" gradientUnits="userSpaceOnUse" id="gradient23" spreadMethod="reflect" x1="-819.2" x2="819.2">
      <stop offset="0.0" stop-color="#625959"/>
      <stop offset="0.9450980392156862" stop-color="#afa2af"/>
    </linearGradient>
    <linearGradient gradientTransform="matrix(-0.0015, 0.0, -1.0E-4, -0.0023, 4.0, 10.75)" gradientUnits="userSpaceOnUse" id="gradient24" spreadMethod="reflect" x1="-819.2" x2="819.2">
      <stop offset="0.0" stop-color="#625959"/>
      <stop offset="0.9450980392156862" stop-color="#afa2af"/>
    </linearGradient>
    <linearGradient gradientTransform="matrix(0.0, -0.0054, 0.0061, 0.0, 15.0, 15.3)" gradientUnits="userSpaceOnUse" id="gradient25" spreadMethod="pad" x1="-819.2" x2="819.2">
      <stop offset="0.0" stop-color="#2e272e"/>
      <stop offset="1.0" stop-color="#796e79"/>
    </linearGradient>
    <linearGradient gradientTransform="matrix(4.0E-4, -0.0054, 0.0061, 5.0E-4, 5.05, 15.3)" gradientUnits="userSpaceOnUse" id="gradient26" spreadMethod="pad" x1="-819.2" x2="819.2">
      <stop offset="0.0" stop-color="#2e272e"/>
      <stop offset="1.0" stop-color="#796e79"/>
    </linearGradient>
    <linearGradient gradientTransform="matrix(0.0, 0.0016, -0.0015, 0.0, 13.05, 11.5)" gradientUnits="userSpaceOnUse" id="gradient27" spreadMethod="pad" x1="-819.2" x2="819.2">
      <stop offset="0.0" stop-color="#878287"/>
      <stop offset="1.0" stop-color="#d4d4d4"/>
      <stop offset="1.0" stop-color="#d9d3d9"/>
    </linearGradient>
    <linearGradient gradientTransform="matrix(0.0, 0.0016, -0.0015, 0.0, 6.9, 11.5)" gradientUnits="userSpaceOnUse" id="gradient28" spreadMethod="pad" x1="-819.2" x2="819.2">
      <stop offset="0.0" stop-color="#878287"/>
      <stop offset="1.0" stop-color="#d4d4d4"/>
      <stop offset="1.0" stop-color="#d9d3d9"/>
    </linearGradient>
    <linearGradient gradientTransform="matrix(0.0013, 0.0, 0.0, 0.0015, 17.95, 18.5)" gradientUnits="userSpaceOnUse" id="gradient29" spreadMethod="reflect" x1="-819.2" x2="819.2">
      <stop offset="0.0" stop-color="#5d4483"/>
      <stop offset="1.0" stop-color="#ba89d4"/>
    </linearGradient>
    <linearGradient gradientTransform="matrix(-0.0011, -5.0E-4, 6.0E-4, -0.0014, 2.0, 18.5)" gradientUnits="userSpaceOnUse" id="gradient30" spreadMethod="reflect" x1="-819.2" x2="819.2">
      <stop offset="0.0" stop-color="#5d4483"/>
      <stop offset="1.0" stop-color="#ba89d4"/>
    </linearGradient>
    <linearGradient gradientTransform="matrix(0.003, 0.0, 0.0, 0.0061, 12.4, 17.5)" gradientUnits="userSpaceOnUse" id="gradient31" spreadMethod="reflect" x1="-819.2" x2="819.2">
      <stop offset="0.0" stop-color="#8080e5"/>
      <stop offset="1.0" stop-color="#4444ad"/>
    </linearGradient>
    <linearGradient gradientTransform="matrix(-0.003, 0.0, 0.0, 0.0061, 7.55, 17.5)" gradientUnits="userSpaceOnUse" id="gradient32" spreadMethod="reflect" x1="-819.2" x2="819.2">
      <stop offset="0.0" stop-color="#7979e0"/>
      <stop offset="1.0" stop-color="#5252ba"/>
    </linearGradient>
    <linearGradient gradientTransform="matrix(0.0078, 0.0, 0.0, 0.0023, 22.6, 25.7)" gradientUnits="userSpaceOnUse" id="gradient33" spreadMethod="reflect" x1="-819.2" x2="819.2">
      <stop offset="0.0" stop-color="#9898f7"/>
      <stop offset="1.0" stop-color="#4444ad"/>
    </linearGradient>
    <linearGradient gradientTransform="matrix(-0.0078, 0.0, 0.0, 0.0023, -2.6, 25.7)" gradientUnits="userSpaceOnUse" id="gradient34" spreadMethod="reflect" x1="-819.2" x2="819.2">
      <stop offset="0.0" stop-color="#9595f4"/>
      <stop offset="1.0" stop-color="#4a4ab2"/>
    </linearGradient>
    <linearGradient gradientTransform="matrix(0.0, 0.0, 0.0, 0.0, 20.15, -0.15)" gradientUnits="userSpaceOnUse" id="gradient35" spreadMethod="reflect" x1="-819.2" x2="819.2">
      <stop offset="0.0" stop-color="#9c9696"/>
      <stop offset="1.0" stop-color="#d4d4d4"/>
    </linearGradient>
    <linearGradient gradientTransform="matrix(0.0, 0.0, 0.0, 0.0, -0.05, -0.15)" gradientUnits="userSpaceOnUse" id="gradient36" spreadMethod="reflect" x1="-819.2" x2="819.2">
      <stop offset="0.0" stop-color="#9c9696"/>
      <stop offset="1.0" stop-color="#d4d4d4"/>
    </linearGradient>
    <linearGradient gradientTransform="matrix(0.0031, 0.0, 0.0, 0.0026, 12.95, 20.1)" gradientUnits="userSpaceOnUse" id="gradient37" spreadMethod="reflect" x1="-819.2" x2="819.2">
      <stop offset="0.0" stop-color="#9f959f"/>
      <stop offset="1.0" stop-color="#645964"/>
    </linearGradient>
    <linearGradient gradientTransform="matrix(0.0031, 0.0, 0.0, 0.0026, 6.95, 20.1)" gradientUnits="userSpaceOnUse" id="gradient38" spreadMethod="reflect" x1="-819.2" x2="819.2">
      <stop offset="0.0" stop-color="#645964"/>
      <stop offset="1.0" stop-color="#9f959f"/>
    </linearGradient>
    <linearGradient gradientTransform="matrix(0.001, -0.0014, 0.0015, 0.001, 14.35, 22.35)" gradientUnits="userSpaceOnUse" id="gradient39" spreadMethod="reflect" x1="-819.2" x2="819.2">
      <stop offset="0.0" stop-color="#e2e2e2"/>
      <stop offset="1.0" stop-color="#908c93"/>
    </linearGradient>
    <linearGradient gradientTransform="matrix(-0.0011, -0.0016, 0.0015, -0.001, 5.6, 22.4)" gradientUnits="userSpaceOnUse" id="gradient40" spreadMethod="reflect" x1="-819.2" x2="819.2">
      <stop offset="0.0" stop-color="#dddcde"/>
      <stop offset="1.0" stop-color="#908c93"/>
    </linearGradient>
    <linearGradient gradientTransform="matrix(-0.001, -9.0E-4, 0.0013, -0.0014, 7.5, 23.6)" gradientUnits="userSpaceOnUse" id="gradient41" spreadMethod="reflect" x1="-819.2" x2="819.2">
      <stop offset="0.0" stop-color="#dedede"/>
      <stop offset="1.0" stop-color="#908c93"/>
    </linearGradient>
    <linearGradient gradientTransform="matrix(0.001, -0.0014, 0.0016, 0.0011, 12.45, 23.55)" gradientUnits="userSpaceOnUse" id="gradient42" spreadMethod="reflect" x1="-819.2" x2="819.2">
      <stop offset="0.0" stop-color="#dbdbdb"/>
      <stop offset="1.0" stop-color="#908c93"/>
    </linearGradient>
    <linearGradient gradientTransform="matrix(0.0, -0.0023, 0.0027, 0.0, 10.0, 25.4)" gradientUnits="userSpaceOnUse" id="gradient43" spreadMethod="reflect" x1="-819.2" x2="819.2">
      <stop offset="0.0" stop-color="#dbdbdb"/>
      <stop offset="1.0" stop-color="#7b797b"/>
    </linearGradient>
    <linearGradient gradientTransform="matrix(0.0, 9.0E-4, -9.0E-4, 0.0, 10.05, 21.85)" gradientUnits="userSpaceOnUse" id="gradient44" spreadMethod="pad" x1="-819.2" x2="819.2">
      <stop offset="0.0" stop-color="#353535"/>
      <stop offset="1.0" stop-color="#878287"/>
      <stop offset="1.0" stop-color="#d9d3d9"/>
    </linearGradient>
    <radialGradient cx="0" cy="0" gradientTransform="matrix(0.0027, 0.0, 0.0, 0.0027, 9.9, 22.9)" gradientUnits="userSpaceOnUse" id="gradient45" r="819.2" spreadMethod="pad">
      <stop offset="0.0" stop-color="#a6a2aa"/>
      <stop offset="0.8666666666666667" stop-color="#ffffff"/>
    </radialGradient>
    <radialGradient cx="0" cy="0" gradientTransform="matrix(0.0046, 0.0, 0.0, 0.0046, 10.0, 19.6)" gradientUnits="userSpaceOnUse" id="gradient46" r="819.2" spreadMethod="pad">
      <stop offset="0.0" stop-color="#a6a2aa"/>
      <stop offset="0.8666666666666667" stop-color="#ffffff"/>
    </radialGradient>
  </defs>
</svg>
