<svg xmlns="http://www.w3.org/2000/svg" xmlns:ffdec="https://www.free-decompiler.com/flash" xmlns:xlink="http://www.w3.org/1999/xlink" ffdec:objectType="frame" width="9.25" height="11.35"><g transform="translate(.1 -2.15)"><use ffdec:characterId="4" xlink:href="#a" width="9.25" height="11.35" transform="translate(-.1 2.15)"/><use ffdec:characterId="5" xlink:href="#b" width="9.05" height="11.15" transform="translate(-.05 2.3)"/></g><defs><path id="c" fill="#333" fill-rule="evenodd" d="M3.3.45Q9.9 7.7 10 8.9q.1 1.4-1.3 2.1l-2.1.25q-.75-.75-2.85-4.45l-3-5.75Q.6.4 1.6.15q1.05-.3 1.7.3" transform="translate(-.75 -.05)"/><use ffdec:characterId="3" xlink:href="#c" id="a" width="9.25" height="11.35"/><g id="b"><path fill="none" stroke="#ccc" stroke-linecap="round" stroke-linejoin="round" stroke-width=".1" d="m1.6.05.55.65M4.2 3.05l.5.65M3.4 2.2l.5.55m-1.3-1.6.5.7M8.8 9.2l.2.3m-.95-1.4.45.65M7.3 7.1l.5.7M6.5 6l.55.75M5.75 5l.5.7m-1.3-1.65.55.65"/><path fill-opacity=".298" fill-rule="evenodd" d="m7.8 10.85-2.1.05Q4.55 9.65 2.45 5.6L0 .9Q-.15-.05 1.1.65l3.5 5.2z"/></g></defs></svg>