<?xml version="1.0" encoding="UTF-8" standalone="no"?>
<svg xmlns:ffdec="https://www.free-decompiler.com/flash" xmlns:xlink="http://www.w3.org/1999/xlink" ffdec:objectType="frame" height="8.3px" width="8.7px" xmlns="http://www.w3.org/2000/svg">
  <g transform="matrix(1.0, 0.0, 0.0, 1.0, 0.25, -2.1)">
    <use ffdec:characterId="5" height="8.3" transform="matrix(1.0, 0.0, 0.0, 1.0, -0.25, 2.1)" width="8.7" xlink:href="#shape0"/>
  </g>
  <defs>
    <g id="shape0" transform="matrix(1.0, 0.0, 0.0, 1.0, 0.25, -2.1)">
      <path d="M5.6 6.0 L5.65 6.0 Q6.15 7.5 5.0 6.35 L5.6 6.0" fill="#aa0000" fill-rule="evenodd" stroke="none"/>
      <path d="M3.55 2.9 L7.0 3.95 7.0 4.25 5.75 5.9 6.4 4.7 6.45 4.4 6.05 4.15 6.0 4.1 6.05 4.0 6.3 4.15 6.4 4.1 6.45 4.0 6.3 3.8 5.8 3.7 5.6 3.7 5.45 4.05 5.5 4.2 5.4 4.25 5.4 4.5 5.15 4.6 4.9 4.6 4.9 4.9 4.95 4.95 4.9 5.2 4.8 5.2 4.8 5.45 Q3.9 5.3 3.35 4.65 L2.65 3.75 2.6 3.25 2.9 2.95 3.55 2.9" fill="#cbdcec" fill-rule="evenodd" stroke="none"/>
      <path d="M7.0 4.25 L7.0 4.45 Q7.0 5.55 5.95 7.05 4.6 8.9 2.7 8.9 1.6 8.9 0.6 6.4 -0.25 4.3 -0.25 3.15 L-0.25 2.45 0.0 2.2 0.2 2.1 0.8 2.1 3.25 2.8 3.0 2.7 3.55 2.9 2.9 2.95 2.6 3.25 2.65 3.75 3.35 4.65 Q3.9 5.3 4.8 5.45 L4.8 5.2 4.9 5.2 4.95 4.95 4.9 4.9 4.9 4.6 5.15 4.6 5.4 4.5 5.4 4.25 5.5 4.2 5.45 4.05 5.6 3.7 5.8 3.7 6.3 3.8 6.45 4.0 6.4 4.1 6.3 4.15 6.05 4.0 6.0 4.1 6.05 4.15 6.45 4.4 6.4 4.7 5.75 5.9 7.0 4.25 M5.6 6.0 L5.0 6.35 Q6.15 7.5 5.65 6.0 L5.6 6.0" fill="#96b5d2" fill-rule="evenodd" stroke="none"/>
      <path d="M6.05 4.15 L6.05 4.05 5.8 4.05 5.75 3.8 5.95 3.75 5.95 3.7 5.8 3.4 5.8 3.15 6.05 3.15 6.2 2.65 6.45 2.8 6.55 2.8 6.55 2.4 7.05 2.6 7.3 2.5 Q7.7 2.5 7.75 2.9 L7.75 3.0 8.15 3.25 8.2 3.3 8.0 3.85 8.35 3.8 8.45 3.9 8.15 4.35 8.05 4.5 8.3 4.45 8.4 4.55 8.35 4.8 8.1 5.2 7.95 5.3 8.15 5.4 8.2 5.45 8.05 5.75 7.85 6.0 7.95 6.2 7.8 6.5 7.6 6.6 7.5 6.75 7.65 6.9 7.3 7.15 7.2 7.15 Q7.45 7.15 7.45 7.35 L7.25 7.6 7.15 7.7 7.05 7.75 6.8 7.95 7.05 8.1 6.8 8.25 6.55 8.15 6.5 8.2 6.6 8.3 6.6 8.4 6.45 8.5 6.5 8.55 6.35 8.8 6.05 8.8 6.2 8.9 6.15 9.05 6.05 9.1 5.85 8.95 5.45 9.45 5.35 9.55 5.25 9.4 5.0 9.65 4.95 9.55 4.8 9.65 4.75 9.55 4.65 9.6 4.65 9.9 4.5 10.0 4.3 9.7 4.1 9.8 3.7 10.2 3.65 10.15 3.35 10.4 3.2 10.15 3.25 10.0 2.55 10.3 2.45 10.1 2.5 9.95 2.35 9.95 1.9 10.15 1.8 9.95 1.85 9.85 1.8 9.85 1.55 9.9 1.1 9.9 1.0 9.7 Q1.0 9.6 1.3 9.55 L1.1 9.3 0.85 9.15 0.65 8.65 Q1.05 8.6 1.05 8.2 L1.5 7.9 1.75 7.9 1.8 7.95 2.35 7.85 Q2.4 7.7 2.6 7.7 L2.65 7.7 2.75 7.75 2.75 7.5 2.9 7.5 3.2 7.75 3.25 7.7 3.3 7.35 3.55 7.45 3.55 7.35 3.55 7.15 3.8 7.1 3.9 7.2 4.15 6.95 4.1 6.75 4.15 6.45 4.3 6.45 4.45 6.65 4.65 6.5 4.65 6.15 4.9 6.15 4.95 6.25 4.95 6.4 5.05 6.3 5.15 6.2 5.3 5.8 5.45 5.95 5.4 6.05 5.55 6.3 5.45 6.6 5.75 6.9 5.75 6.95 5.9 6.95 5.8 7.2 6.05 7.4 6.3 7.35 6.3 7.45 6.35 7.5 6.4 7.5 6.35 7.7 6.35 7.8 6.6 7.9 7.0 7.75 7.2 7.5 7.2 7.45 7.05 7.3 7.2 7.1 7.1 6.8 7.55 6.6 7.45 6.4 7.7 6.05 7.75 6.0 7.8 5.95 7.9 5.65 7.85 5.15 8.35 4.75 8.25 4.65 7.95 4.7 7.9 4.45 8.15 4.35 8.0 4.1 7.75 3.95 7.85 3.65 7.65 3.5 7.45 3.6 7.45 3.55 7.55 3.45 7.7 3.2 7.65 3.1 7.4 3.1 7.2 3.3 7.15 3.4 6.95 3.1 6.95 3.05 6.7 2.85 6.7 3.15 6.65 3.15 6.5 3.15 6.5 3.25 6.45 3.35 6.2 3.35 6.2 3.6 6.35 3.7 6.05 3.75 6.2 4.05 6.05 4.15" fill="#b3b3b3" fill-rule="evenodd" stroke="none"/>
      <path d="M5.3 5.8 L5.35 5.7 5.2 5.6 5.15 5.45 5.15 5.4 5.45 5.25 5.15 5.0 5.15 4.8 5.3 4.8 5.6 4.95 5.6 4.9 5.4 4.65 5.4 4.55 5.55 4.55 5.7 4.6 5.75 4.3 5.75 4.25 5.95 4.25 6.05 4.25 6.05 4.15 6.2 4.05 6.05 3.75 6.35 3.7 6.2 3.6 6.2 3.35 6.45 3.35 6.5 3.25 6.5 3.15 6.65 3.15 6.7 3.15 6.7 2.85 6.95 3.05 6.95 3.1 7.15 3.4 7.2 3.3 7.4 3.1 7.65 3.1 7.7 3.2 7.55 3.45 7.45 3.55 7.45 3.6 7.65 3.5 7.85 3.65 7.75 3.95 8.0 4.1 8.15 4.35 7.9 4.45 7.95 4.7 8.25 4.65 8.35 4.75 7.85 5.15 7.9 5.65 7.8 5.95 7.75 6.0 7.7 6.05 7.45 6.4 7.55 6.6 7.1 6.8 7.2 7.1 7.05 7.3 7.2 7.45 7.2 7.5 7.0 7.75 6.6 7.9 6.35 7.8 6.35 7.7 6.4 7.5 6.35 7.5 6.3 7.45 6.3 7.35 6.05 7.4 5.8 7.2 5.9 6.95 5.75 6.95 5.75 6.9 5.45 6.6 5.55 6.3 5.4 6.05 5.45 5.95 5.3 5.8" fill="#ffffff" fill-rule="evenodd" stroke="none"/>
    </g>
  </defs>
</svg>
