<svg xmlns="http://www.w3.org/2000/svg" xmlns:ffdec="https://www.free-decompiler.com/flash" xmlns:xlink="http://www.w3.org/1999/xlink" ffdec:objectType="frame" width="22.4" height="23.5"><use ffdec:characterId="3" xlink:href="#a" width="22.4" height="23.5"/><defs><g id="a" fill-rule="evenodd"><path fill="#c94200" d="m21.3 22.6-5 .35-1.25.05-.3.1h-.25l-2.7.15-1.95.05-.1.05-3-.05-2.3-.3-1.6-.3-1.95-.55L.5 22l-.25-.1-.25-.3q0-.5 1.6-5.1t2.9-7.6Q5.8 5.85 7.65 3L8.7 1.45l.55 1.05q.85 1.15 2 1.15 1 0 1.65-1.2l.8-.85.1-.15 1.05 1.95.45 1.05 1.1 2.15 1.75 3.75 2.9 7.4.6 1.85.1.1.5 1.55q.35.95-.05 1.2l-.45.2-.1-.15z"/><path fill="#9a1900" d="M13.75 3.65V3.6l.6-.1.55-.1q.2.05.05.5-.15.4-.9.65L13 4.8q-.35.05-.35 1.6l-.2 6.95q-.25 5.4-.75 4.75-.5-.7-.5-1.15l.25-3.45q.05-2.3.25-3.3l-.1-4.05q.05-2.5 2.15-2.5m8 16.4.25.65-.55.15-3.2-.15q-1.05-.6-1.45-1.4l-.55-1.55-.35-2.15.55 2 .45.95.95 1.2q.7.6 2 .6zM7.35 3.4l.55.1.6.1v.05q2.1 0 2.15 2.5l-.1 4.05.25 3.3.25 3.45-.3.45q-.65 0-.85-4.95L9.6 6.2q0-1.35-.35-1.4L8.2 4.55q-.75-.25-.9-.65-.15-.45.05-.5M6.5 13.75l-.05.4-1.75.3q-.9.05-1.75.4l-.75-.1.15-.25v-.15l1.75-.2 1.7-.35zm-2.15 6 .95-1.2.45-.95.55-2-.35 2.15-.55 1.55q-.4.8-1.45 1.4l-3.2.15-.55-.15.25-.65 1.9.3q1.3 0 2-.6m2.6 3 2 .1.95.05h.45l.2.15h.05l.3.05.7-.25.9-.05.85-.05 1.1.05.55-.05 1.5-.15 1.3-.2.4-.05 2.3-.2 1.7.1q.05.35-1.45.6l-3.05.4-3.75.2h-4.3v-.05l-1 .05-1-.05-2.35-.2-3.65-.65q-.95-.25-1.4-.8v-.35H.4l2.1.65 3.9.65zm12.9-8.35v.15l.15.25-.75.1-1.75-.4-1.75-.3-.05-.4.7.05 1.7.35z"/><path fill="#d76933" d="m17 .4.1 1.4q0 .55-.6.95l-1.1.75-.75.45-1.05.3-1.4.2V23.5h-.65l-1.3-.15-.05-19-1.3-.3-1.25-.15L6 3.1q-1.3-.75-1.2-1.3l.1-.8q.1-.9.7-.9l1.35.2 1.2.3q.5.15 1.35 1.25l1.2 1.55.1.15.05.05.1.05.15.15.45-.25v-.1q.75-.35 2-2.5.3-.5 1.75-.75l1.35-.1q.2 0 .35.3M6.45 14.7v.6l-1.35.35-2.6.45H1.4l.3-.6.35-.8.6.05 2.25-.45 1.6-.55zM10.7 4.4v-.05zm6.25 11.25-1.2-.35-.05-.8-.15-.75 1.6.55 2.25.45.6-.05.35.8.3.6h-1.1z"/><path fill="#8a2400" d="m11 20.1.05-.15.15-.05.15.05.05.15v.8l-.05.15-.15.05-.15-.05-.05-.15zm.05 2.75L11 22.7v-.8l.05-.15.15-.05.15.05.05.15v.8l-.05.15-.15.05zm0-3.6L11 19.1v-.8l.05-.15.15-.05.15.05.05.15v.8l-.05.15-.15.05zM11 16.5l.05-.15.15-.05.15.05.05.15v.8l-.05.15-.15.05-.15-.05-.05-.15zm0-1v-.8l.05-.15.15-.05.15.05.05.15v.8l-.05.15-.15.05-.15-.05zm0-2.6.05-.15.15-.05.15.05.05.15v.8l-.05.15-.15.05-.15-.05-.05-.15zm.05-.85L11 11.9v-.8l.05-.15.15-.05.15.05.05.15v.8l-.05.15-.15.05zm.15-2.95.15.05.05.15v.8l-.05.15-.15.05-.15-.05-.05-.15v-.8l.05-.15zm0-1.8.15.05.05.15v.8l-.05.15-.15.05-.15-.05L11 8.3v-.8l.05-.15zm.2-1.6v.8l-.05.15-.15.05-.15-.05L11 6.5v-.8l.05-.15.15-.05.15.05zm-.05-1.95.05.15v.8l-.05.15-.15.05-.15-.05L11 4.7v-.8l.05-.15.15-.05z"/><path fill="#c24407" d="M16.95.2h-.1l-.6.5-1.75 1.5q-.75.55-1.7.75l.45-.1.2-.1.3-.05.95-.25 1.05-.5-.15.2-.9.95-.3.2-2.45.5-.2-.05h-.15l.05-.05-.15-.1.85-.75.7-1.1.6-.95.3-.25L15 .2l1.9-.05zM7 2.2l-.15-.15 1 .4.85.25.3.05.2.05.6.1L8 2.1l-1.1-.7-.3-.25L5.9.2V.15L7.55.5q1.15.25 1.5.6L10 2.45l.25.4.05.05.1.15.3.45-.05.05.05.05h-.1l-.2.05-2.3-.45-.25-.15z"/><path fill="#fff" d="M13.35 11.1 13.3 4l.05-.15.2-.1q.25-.05.3.5v6.85l-.3-.05h-.15zm-4.9-2.8.05-4.5.05-.1.2-.05q.25 0 .3.35l-.1 4.35-.3-.1H8.5z"/><path fill="#524970" d="m13.35 11.1.05-.05h.15l.3.05.35.3.1.55V12l.05.15-.1.4-.2.3-.4.2-.6-.25-.2-.25v-.4q0-.9.5-1.05m-4.9-2.8.05-.05h.15l.3.1.3.3.1.55v.05l.05.15-.1.4-.2.3-.45.15L8.1 10l-.2-.25v-.4q.05-.9.55-1.05m5.6 4-.3-.2-.4.05-.05-.05q0-.35.4-.7l-.15-.1-.15.15q-.3.3-.3.7 0 .5.55.55zM8.4 9.35l-.05-.05.4-.7-.1-.1-.2.15q-.3.3-.3.7 0 .5.55.55l.4-.35-.3-.25z"/><path fill="#d4d4d4" d="m8.4 9.35.4-.05.3.25-.4.35q-.55-.05-.55-.55 0-.4.3-.7l.2-.15.1.1-.4.7zm5.65 2.95-.4.4q-.55-.05-.55-.55 0-.4.3-.7l.15-.15.15.1q-.4.35-.4.7l.05.05.4-.05z"/></g></defs></svg>