<svg xmlns="http://www.w3.org/2000/svg" xmlns:ffdec="https://www.free-decompiler.com/flash" xmlns:xlink="http://www.w3.org/1999/xlink" ffdec:objectType="frame" width="10.15" height="11.25"><use ffdec:characterId="1" xlink:href="#a" width="10.15" height="11.25"/><defs><g id="a" fill-rule="evenodd"><path fill="#fff" d="M1 .1q1.3-.35 2.4.7l1.75 1.85q1.2.6 1.25.8l.05 1.1-.1 1.05q-.1.3-1.3.6L2 7.1q-.4 0-.8-.7l-.4-.95L.1 1.9Q-.25.45 1 .1"/><path fill="#f99" d="m8.2 5.15.1.35-.15.45q.55 0 .85.3l.25.4-.4.5.75.35.3.5-.45.5-.05.05.6.5.15.35-.25.55q-.3.25-.75.3-3.5.85-6.9.9-1-1.95-1-4.8 2.65.1 5.65-.9L7.6 5l.25-.05z"/><path d="M7.2 9.35q0-.2.15-.35l.35-.1.35.1.15.35-.15.35-.15.15h-.3l-.25-.15zm0-1.85.35.1.15.35-.15.35-.35.15-.35-.15-.15-.35.15-.35zm-.8-1.35.35-.1.35.1.15.35-.15.35-.35.15-.35-.15-.15-.35q0-.2.15-.35"/><path fill="#d6dee1" d="M.8.1q1 5.15 2.8 6.1l-1.25.25-.7.05q-.55.05-.8-.8L.1 2.1Q-.25.75.8.1"/><path fill="#d04848" d="m2.35 6.7 1.2-.15q-.05.3.45 1.65.5 1.3 2.1 1.85l1.65.25h.3l.55-.1-.5-2.15-.75-2.15.9 1.8.9 2 .35-.15q.65-.2.65.2l-.25.4-.65.25-2.7.5-4.3.35-.4-.95-.3-1-.15-1.35-.05-.9.15-.25.15-.05zM7.8 5.45q.2-.25.4-.2l.05.15-.15.4-.25.25-.25-.25zm1.85 2.3.2.3q0 .25-.5.45H9l-.25-.3.15-.2.4-.25zm-1-1.35q.5-.2.5.2l-.45.55h-.4l-.2-.25q0-.3.55-.5m-2.5 4.05v.05h.05z"/></g></defs></svg>