<svg xmlns="http://www.w3.org/2000/svg" xmlns:ffdec="https://www.free-decompiler.com/flash" xmlns:xlink="http://www.w3.org/1999/xlink" ffdec:objectType="frame" width="10.45" height="10"><use ffdec:characterId="3" xlink:href="#a" width="10.45" height="10"/><defs><radialGradient id="b" cx="0" cy="0" r="819.2" gradientTransform="translate(5.75 9.9)scale(.006)" gradientUnits="userSpaceOnUse" spreadMethod="pad"><stop offset="0" stop-color="#f6a7a2"/><stop offset="1" stop-color="#c8476d"/></radialGradient><radialGradient id="c" cx="0" cy="0" r="819.2" gradientTransform="translate(5.75 9.9)scale(.006)" gradientUnits="userSpaceOnUse" spreadMethod="pad"><stop offset="0" stop-color="#b6514a"/><stop offset="1" stop-color="#a11d43"/></radialGradient><radialGradient id="e" cx="0" cy="0" r="819.2" gradientTransform="matrix(.0012 -.0004 .0007 .0014 6.05 6.65)" gradientUnits="userSpaceOnUse" spreadMethod="pad"><stop offset="0" stop-color="#a83951"/><stop offset="1" stop-color="#832d44"/></radialGradient><radialGradient id="f" cx="0" cy="0" r="819.2" gradientTransform="matrix(.0012 -.0004 .0007 .0014 4.25 7.15)" gradientUnits="userSpaceOnUse" spreadMethod="pad"><stop offset="0" stop-color="#a83951"/><stop offset="1" stop-color="#832d44"/></radialGradient><radialGradient id="g" cx="0" cy="0" r="819.2" gradientTransform="matrix(.001 -.0003 .0005 .0011 4 6.75)" gradientUnits="userSpaceOnUse" spreadMethod="pad"><stop offset="0" stop-color="#b13c56"/><stop offset="1" stop-color="#871c39"/></radialGradient><radialGradient id="h" cx="0" cy="0" r="819.2" gradientTransform="matrix(.0008 -.0002 .0005 .001 3.9 6.2)" gradientUnits="userSpaceOnUse" spreadMethod="pad"><stop offset="0" stop-color="#e06b85"/><stop offset="1" stop-color="#b73a5c"/></radialGradient><radialGradient id="i" cx="0" cy="0" r="819.2" gradientTransform="matrix(.001 -.0003 .0005 .0011 5.9 6.15)" gradientUnits="userSpaceOnUse" spreadMethod="pad"><stop offset="0" stop-color="#b13c56"/><stop offset="1" stop-color="#871c39"/></radialGradient><radialGradient id="j" cx="0" cy="0" r="819.2" gradientTransform="matrix(.0008 -.0002 .0005 .001 5.5 5.7)" gradientUnits="userSpaceOnUse" spreadMethod="pad"><stop offset="0" stop-color="#e06b85"/><stop offset="1" stop-color="#b73a5c"/></radialGradient><radialGradient id="k" cx="0" cy="0" r="819.2" gradientTransform="matrix(.0012 -.0004 .0007 .0014 10.5 12.65)" gradientUnits="userSpaceOnUse" spreadMethod="pad"><stop offset="0" stop-color="#a83951"/><stop offset="1" stop-color="#832d44"/></radialGradient><radialGradient id="l" cx="0" cy="0" r="819.2" gradientTransform="matrix(.0012 -.0004 .0007 .0014 8.7 13.15)" gradientUnits="userSpaceOnUse" spreadMethod="pad"><stop offset="0" stop-color="#a83951"/><stop offset="1" stop-color="#832d44"/></radialGradient><radialGradient id="m" cx="0" cy="0" r="819.2" gradientTransform="matrix(.001 -.0003 .0005 .0011 8.45 12.75)" gradientUnits="userSpaceOnUse" spreadMethod="pad"><stop offset="0" stop-color="#b13c56"/><stop offset="1" stop-color="#871c39"/></radialGradient><radialGradient id="n" cx="0" cy="0" r="819.2" gradientTransform="matrix(.0008 -.0002 .0005 .001 8.35 12.2)" gradientUnits="userSpaceOnUse" spreadMethod="pad"><stop offset="0" stop-color="#e06b85"/><stop offset="1" stop-color="#b73a5c"/></radialGradient><radialGradient id="o" cx="0" cy="0" r="819.2" gradientTransform="matrix(.001 -.0003 .0005 .0011 10.35 12.15)" gradientUnits="userSpaceOnUse" spreadMethod="pad"><stop offset="0" stop-color="#b13c56"/><stop offset="1" stop-color="#871c39"/></radialGradient><radialGradient id="p" cx="0" cy="0" r="819.2" gradientTransform="matrix(.0008 -.0002 .0005 .001 9.95 11.7)" gradientUnits="userSpaceOnUse" spreadMethod="pad"><stop offset="0" stop-color="#e06b85"/><stop offset="1" stop-color="#b73a5c"/></radialGradient><linearGradient id="d" x1="-819.2" x2="819.2" gradientTransform="matrix(.0021 0 0 .0007 3.35 5.9)" gradientUnits="userSpaceOnUse" spreadMethod="pad"><stop offset="0" stop-color="#f7de85"/><stop offset=".286" stop-color="#d9b94b"/><stop offset=".506" stop-color="#fff"/><stop offset=".522" stop-color="#f9b572"/><stop offset=".702" stop-color="#cd8b38"/><stop offset="1" stop-color="#f7de85"/></linearGradient><g id="a" fill-rule="evenodd"><path fill="#cd92a6" d="m5.3 8.65.3.1h.2l-.25.65-.1.15.3.3.05.05-.05.1h-.6l-.45-.55.15-.25.15-.1zm1.5 0 .1-.05.2-.1.95.8.25.25q-.2.3-.55.3-.3 0-.3-.5h-.1zm.55-.3.1-.15 1 .25q.55 0 .55.5l-.1.25-.35-.15-.15-.1zm.25-.55.05-.2q.2-.25.6-.3l.35-.05q.3 0 .55.95l-.35-.25h-.65z"/><path fill="#eebdc0" d="m4.85 8.2.45.45-.3.45-.15.1-.35-.05q-.15 0-.25.15L4 9l-.2-.35.6.05zm.95.55h.55l.45-.1.55.7h-.4l-.05.15.2.3h-.55q-.3-.5-.7-.5H5.8q-.15 0-.25.1zm1.3-.25.25-.15 1.05.6h-.05q-.35 0-.35.2l.05.15zm.35-.3L7.5 8l.1-.2.55.15h.3v.5z"/><path fill="#984c66" d="m5.8 9.3-.05.55-.3-.3.1-.15q.1-.1.25-.1"/><path fill="url(#b)" d="m6 12.7-1.25-1.8L2.6 6.85l.1.1.05.2.25.25.35-.05-.05-.2-.05-.1.05-.2h.25l.35.35.4-.2-.35-.4v-.05h.45l.55.35.1-.3q.15 0 .3.2l.25.2h.15q.55.05 2 1.2 1.4 1.15 1.05 2.2-.75-.05-1.5.35-.9.5-.95 1v.35h.6q.8.05 2.05-1h.1l.35.45-.05.25q-.4.05-.6.3l-.05.2-.1.2-.05.2-.1.15-.25.15-.2.1-.1.05-.45.1h-.75l-.3-.1z" transform="translate(-1.15 -4.5)"/><path fill="url(#c)" d="M9.05 11.1H9q-1.25 1.05-2.05 1h-.6v-.35q.05-.5.95-1 .75-.4 1.5-.35l.05.4q-.05.2.2.25z" transform="translate(-1.15 -4.5)"/><path fill="#ffd4e0" fill-opacity=".498" d="m5.7 4.5-.1-.1h-.1v.1l.05.1h.15zm-.4.05.05.05v.05l.1.05-.05-.1v-.05l-.05-.05v.05zm0 .1-.1-.1-.1.1.05.2h.15v-.2m.5-.3-.05-.05v-.05H5.7l-.05.1.1.05zm-.1-.25.05.05.1.05.05-.05h.05l-.05-.1-.1-.1zm.1-.55-.05-.05-.05.1.1.05h.05zm.1.3-.05-.05-.1-.05v.05l.05.05h.1m-.95.85v.05L5 4.8v.05-.15zm-.15-.05-.1-.05v.15l.05.05.1-.05-.05-.05zm-.3 0V4.6h.05v-.1H4.5l-.05.05zm-.15-.15h.05l-.05-.15-.05.05zm.5-.85-.05.05.05.05.05.1h.05V3.7zm-.25-.2-.05-.05-.15.05-.1.05-.05.1v.05l.1.2.2.1.25.05.1.05h.05l-.05-.1-.05-.1-.2-.2v-.1zm.5-.3h-.15l-.05.05-.05.05-.05.05.05.1.05.1.15.2.1.2h.05v-.25l.05-.1V3.3zm-.95-.75-.05-.05v.1l.1.05zm-1.3 2.5.1.05L3 4.9h-.05v-.05L2.9 4.8v.1zm.2 0v.05H3l.05.05.05.05.05-.05v-.05L3.1 4.9zm.3.15V5l.05-.1-.1-.05-.05.05V5zm.1-.1h.1l.05-.05-.05-.05h-.1v.1m.2-.25-.05.05v.1l.1.05v-.1zm.15.05V4.7l-.05-.05v.15zm-.95 0L2.8 4.7h-.05l-.05.05.05.05h.1zm1.05-1.1-.1.1.05.25.05.2.2.25.1-.25-.1-.3.05-.15-.05-.1zm-.45.1-.15.05h-.05v.05l.1.3h.1l.05-.1h.05l.05-.1V3.9l.05-.05zm.3-.45.05.2v.05h.05V3.5h.05l.1-.05V3.4l-.05-.05-.1-.1v.05zM2.6 4v.05l.1.1v.05h.1l.05.05h.05l.15-.05L3 4.1l-.05-.05v-.1l-.2-.1-.1.05zm-.2-1.05h.05l.05-.05-.05-.05-.05.05h-.05zm-.15-.1-.05.05v.05h.05zm-.3.05v.05L2 3l.05-.05V2.9zm1.8-.3h-.1l.05.05h.1V2.6zm.15-.1v.05l.05.05H4v-.05h.05V2.5L4 2.45zm-.3.25.05-.1h-.1l-.05.05.05.1h.05zm-.95.2.05-.05v-.05l-.1.05-.05-.05.05.1zm.15.2h-.1l-.1-.05-.1-.05h-.05v.1l-.05.15.05.2.1.1h.15l.15.05.15.05v-.05h.25l.25-.05.1-.3-.1-.3h-.25l-.05.05h-.15l-.15.1zm0-.25.15.1.05-.05V2.9l-.1-.1zm.35-.1-.05-.05-.05.05zm.1-.05v.05h.15l-.1-.1zm.2-.6H3.4l.05.1h.1v-.1h.2l.15-.05q.15 0 .3.2l.05.1h.05l.15.1h.1l-.05.05-.05.05-.05.05-.1-.05h-.05l-.05.05v.1h-.05l-.1.05h-.2q-.1.1-.05.15l.05.05.25.25.3.05.1-.05.1-.05.1-.1h.05l.1-.55.15.05v.1l.05.05h.05v.05l.05-.05h.1l.15.1-.1-.05-.1.2.15.1v.05l.35.2.25.05-.05-.1-.1-.15-.1-.1.8.6h-.1l-.05-.05-.15-.1-.1.05-.05.1v.1l.1.05.05.1-.1.2-.1.15v.1l.05.15-.1.15-.1.05h-.1l-.05.1.05.05-.05.05v.05L5.65 5H5.6l-.1.05L5.45 5l-.1-.05H5.3l-.1.1-.1.05-.1.05L4.85 5l-.05-.05h-.4l-.1-.1V4.8l-.05-.1H4.1l-.05.05V5l-.1.1H3.9l-.05.05-.2.05-.1.05h-.1l-.2.05H3l-.45-.8v-.2l-.1-.25-.05-.1-.05-.1H2.2l-.05-.15h.2v-.15L2.3 3.5l-.05-.05-.05-.05v.1l-.1.1v.05l-.05-.15.05-.15-.05-.2h-.2l-.4-.8.1.1h.15l.05-.1h.2v.1l.1.05h.1l.05-.1h.05v-.05h.15l.35.35.4-.2-.1-.1.15-.25.05-.1z"/><path fill="#eebdc0" d="m3.95 1.7.75-.15.2.25-.1.3-1.05-.4zm-.15.7-.55-.35H2.8v.05l-.25-.4.4-.05h.1zm-1.1.25-.3-.3h-.25l-.05.2.05.1-.45-.8.35-.1zm-1.15-.2-.1-.1-.25-.05-.1.05.1-.4.2-.05zM.5 1.3q-.5.1-.5-.2L.35.75l.5.3-.35.2zM1.45.15h.2V.4H2l-.2.45-.45.05zM2.6.05l.2.15.35.2.2-.05-.5.5-.4-.05z"/><path fill="#cd92a6" d="M4.8 2.1h.1l-.15.3-.15.1h-.15l-.25-.2q-.15-.2-.3-.2l-.1.3-.75-.75.7.05zm-2 0 .35.4-.4.2-.05-.05-.65-.9.5-.05zm-.65.55.05.2-.35.05-.25-.25V2.6l-.05-.15-.15-.55.25-.05h.05zm-1.05-.3.1.35H.9L.95 2l.25-.05zM.35.75H.3L.2.5.4.3l.15.15Q.75.1 1.3.1l.15.05-.1.75L.9 1l-.05.05zM2 .4l.05-.05V.3q-.15-.25 0-.3h.35l.2.05-.15.75h-.1L1.8.85zM3.35.35v-.3q.55-.1.95.4l-.8.5V.9L2.85.85z"/><path fill="url(#d)" d="m2.1 6.5-.45-.7v-.05l.35-.2.05-.05.45-.1.45-.05.55-.05h.1l.4.05.65.05v.05l.45.75h-.2l-.7-.05h-.1l-.4.05-.5.05-.35.1H2.8l-.25.05-.2.05z" transform="translate(-1.15 -4.5)"/><path fill="#561426" fill-opacity=".498" d="m9.65 7.5.15.5-.05.2-.05.1h-.4l.25.2-.4.15-.15.1L8.2 8h-.05l-.2.1H7.8v.05l.05 1.1-.1.05-.55.25V8.9l-.1.1-.2.15-.15-.05-.15-.15-.3-.4.25-.2-.2-.1-.1-.05-.15-.4q-.05-.35.05-.4l.4-.05H7l.35.2.2.15.15-.1h.25l.1-.25.05-.3.35-.25.35-.2.3.3.25.4-.05.15v.05zm-1.85.6-.25-.4.2.35v.05z"/><path fill="#541224" fill-opacity=".498" d="m4.05 1.6.75.6.75.85v.05l.05.1-.15.1-.05.1-.65-.55L3.8 2h-.05l-.2.1H3.4v.05l.05 1.15-.05.7-.35-.2-.45.15.2-.5V2.9l-.1.1-.2.15-.15-.05-.15-.15-.3-.4.25-.2-.2-.1-.1-.05-.15-.4q-.05-.35.05-.4l.4-.05h.45l.35.2.2.15.15-.1h.25v-.05h.05V1.5h.1l.3.1zm-.65.5-.25-.4.2.35v.05z"/><path fill="url(#e)" d="m5.8 6.05.8.75.55.35-.45.1-.05.3L6 7l-1-.9.15-.15.15-.2.2-.05z" transform="translate(-1.15 -4.5)"/><path fill="#b5375c" d="m5.05.95-.6.4-.4.2-.2.05-.2-.35.1-.25.05-.3q.1-.1.35-.25l.35-.2.3.3z"/><path fill="url(#f)" d="M4.35 6.2h.25l.1 1.25-.05.7-.35-.2-.45.15.2-.5-.1-1.05-.05-.3q.05-.15.2-.1z" transform="translate(-1.15 -4.5)"/><path fill="#b5375c" d="m2.7 1 .35.2.2.15.2.35-.7.15h-.8l-.15-.4q-.05-.35.05-.4l.4-.05z"/><path fill="#db1d12" d="m1.95 1.85 1.5-.15-.45.15-.7.15-.25-.1z"/><path fill="url(#g)" d="m4.5 6.15.15.1-.1.2-.25.3-.35.4-.2.15-.15-.05-.15-.15-.3-.4q0-.2.7-.4z" transform="translate(-1.15 -4.5)"/><path fill="url(#h)" d="m4.6 6.25-.15.25-.4.25-.4.15-.15-.2-.2-.35L3.25 6v-.25l.25-.05.4.05.45.2.15.1z" transform="translate(-1.15 -4.5)"/><path fill="url(#i)" d="m6.65 6.15-.05.2-.05.1h-.3l-.5-.1-.55-.15-.2-.05V6l.2-.1.45-.15.85-.1z" transform="translate(-1.15 -4.5)"/><path fill="url(#j)" d="m5.9 5.2.2.35.15.35v.15l-.4.2-.5-.05-.2-.05H5l-.1-.2.05-.2.2-.4.25-.25.25-.05z" transform="translate(-1.15 -4.5)"/><path fill="#d05375" d="M3.4 1.25h.25l.2.4-.2.1H3.5l-.25-.4z"/><path fill="url(#k)" d="m10.25 12.05.8.75.55.35-.45.1-.05.3-.65-.55-1-.9.15-.15.15-.2.2-.05z" transform="translate(-1.15 -4.5)"/><path fill="#b5375c" d="m9.5 6.95-.6.4-.4.2-.2.05-.2-.35.1-.25.05-.3.35-.25.35-.2.3.3z"/><path fill="url(#l)" d="M8.8 12.2h.25l.1 1.25-.05.7-.35-.2-.45.15.2-.5-.1-1.05-.05-.3.2-.1z" transform="translate(-1.15 -4.5)"/><path fill="#b5375c" d="m7.15 7 .35.2.2.15.2.35-.7.15h-.8l-.15-.4q-.05-.35.05-.4L6.7 7z"/><path fill="#db1d12" d="m6.4 7.85 1.5-.15-.45.15-.7.15-.25-.1z"/><path fill="url(#m)" d="m8.95 12.15.15.1-.1.2-.25.3-.35.4-.2.15-.15-.05-.15-.15-.3-.4q0-.2.7-.4z" transform="translate(-1.15 -4.5)"/><path fill="url(#n)" d="m9.05 12.25-.15.25-.4.25-.4.15-.15-.2-.2-.35L7.7 12v-.25l.25-.05.4.05.45.2.15.1z" transform="translate(-1.15 -4.5)"/><path fill="url(#o)" d="m11.1 12.15-.05.2-.05.1h-.3l-.5-.1-.55-.15-.2-.05V12l.2-.1.45-.15.85-.1z" transform="translate(-1.15 -4.5)"/><path fill="url(#p)" d="m10.35 11.2.2.35.15.35v.15l-.4.2-.5-.05-.2-.05h-.15l-.1-.2.05-.2.2-.4.25-.25.25-.05z" transform="translate(-1.15 -4.5)"/><path fill="#d05375" d="M7.85 7.25h.25l.2.4-.2.1h-.15l-.25-.4z"/></g></defs></svg>