<?xml version="1.0" encoding="UTF-8" standalone="no"?>
<svg xmlns:ffdec="https://www.free-decompiler.com/flash" xmlns:xlink="http://www.w3.org/1999/xlink" ffdec:objectType="frame" height="29.4px" width="45.2px" xmlns="http://www.w3.org/2000/svg">
  <g transform="matrix(1.0, 0.0, 0.0, 1.0, 13.0, -2.7)">
    <use ffdec:characterId="5" height="29.4" transform="matrix(1.0, 0.0, 0.0, 1.0, -13.0, 2.7)" width="45.2" xlink:href="#shape0"/>
  </g>
  <defs>
    <g id="shape0" transform="matrix(1.0, 0.0, 0.0, 1.0, 13.0, -2.7)">
      <path d="M12.35 9.7 L11.6 8.55 Q12.3 8.55 13.25 9.6 L15.15 6.8 Q16.75 9.45 18.1 14.65 L32.1 25.0 Q32.4 26.7 31.8 28.3 L31.05 29.5 Q29.4 30.95 27.95 31.3 L26.85 31.45 26.8 31.45 27.6 30.25 Q28.35 29.15 27.85 28.95 L26.55 29.3 25.0 27.55 Q24.15 27.95 23.3 28.65 L23.75 29.45 23.4 29.5 Q22.85 29.5 22.6 29.2 L22.55 29.15 Q21.3 27.25 19.95 27.35 L18.1 26.95 17.55 26.45 16.5 24.7 16.35 24.75 Q15.15 25.0 14.05 25.6 L13.55 26.0 13.5 27.25 11.3 28.7 9.8 29.3 9.75 29.3 9.4 28.1 7.25 28.9 Q6.85 29.5 6.8 30.35 L6.8 31.15 Q4.75 32.05 3.75 32.1 L2.6 31.8 2.1 31.55 1.0 30.7 Q1.5 30.65 1.8 30.1 L1.7 30.05 Q1.45 29.5 0.75 29.15 L-0.25 28.75 Q-0.25 29.35 -0.85 30.5 L-0.95 30.5 Q-2.45 30.75 -2.85 30.2 L-3.95 29.15 -4.85 28.5 -6.65 28.3 Q-7.5 28.0 -7.7 27.4 L-6.95 26.75 -7.75 25.85 -8.25 25.3 Q-9.65 26.05 -10.3 26.55 L-11.45 25.95 Q-11.7 26.0 -11.45 27.25 L-11.15 28.55 -12.15 27.6 Q-13.15 26.15 -13.0 23.7 L1.8 14.75 Q3.1 9.5 4.65 6.85 L6.45 9.6 Q7.4 8.55 8.1 8.55 L7.35 9.7 Q9.1 10.5 9.85 10.55 L9.65 10.0 8.9 8.45 8.65 7.8 11.1 7.75 10.8 8.45 10.1 10.0 9.85 10.55 11.3 10.15 12.35 9.7" fill="#fff2f6" fill-rule="evenodd" stroke="none"/>
      <path d="M25.65 20.25 L25.65 28.25 25.4 27.95 25.4 20.05 25.65 20.25 M30.45 23.8 L30.45 30.05 30.2 30.2 30.2 23.6 30.45 23.8 M27.85 21.85 L27.85 31.35 27.6 31.35 27.6 21.7 27.85 21.85 M23.05 18.3 L23.05 29.45 22.8 29.35 22.8 18.15 23.05 18.3 M20.55 16.45 L20.55 27.4 20.3 27.35 20.3 16.3 20.55 16.45 M16.05 8.5 L16.05 24.85 15.8 24.9 15.8 7.95 16.05 8.5 M14.05 8.45 L14.05 25.65 13.8 25.85 13.8 8.85 14.05 8.45 M11.3 10.15 L11.45 10.1 11.45 28.65 11.3 28.7 11.2 28.8 11.2 10.2 11.3 10.15 M4.15 7.85 L4.15 32.05 3.9 32.1 3.9 8.4 4.15 7.85 M9.25 7.5 L9.25 28.15 9.0 28.25 9.0 7.6 9.25 7.5 M6.65 9.45 L6.65 31.25 6.4 31.35 6.4 9.5 6.45 9.6 6.65 9.45 M1.8 14.75 L1.85 14.65 1.85 31.35 1.6 31.2 1.6 14.9 1.8 14.75 M18.15 14.7 L18.15 27.0 18.1 26.95 17.9 26.75 17.9 13.8 18.1 14.65 18.15 14.7 M-4.95 18.85 L-4.95 28.5 -5.2 28.45 -5.2 19.0 -4.95 18.85 M-10.05 21.95 L-10.05 26.4 -10.3 26.55 -10.3 22.1 -10.05 21.95 M-7.55 20.45 L-7.55 26.05 -7.75 25.85 -7.8 25.75 -7.8 20.6 -7.55 20.45 M-0.15 15.95 L-0.15 28.8 -0.25 28.75 -0.4 29.55 -0.4 16.1 -0.15 15.95 M-2.75 17.55 L-2.75 30.3 -2.85 30.2 -3.0 30.05 -3.0 17.7 -2.75 17.55 M-12.45 23.4 L-12.45 27.05 -12.7 26.45 -12.7 23.55 -12.45 23.4 M-7.55 27.3 L-7.55 27.65 -7.7 27.4 -7.55 27.3" fill="#cb6598" fill-rule="evenodd" stroke="none"/>
      <path d="M17.85 13.8 L18.05 14.6 12.35 15.55 Q5.85 16.2 1.8 14.75 L2.0 14.0 Q6.2 15.35 12.5 14.7 L17.85 13.8" fill="#ff80aa" fill-rule="evenodd" stroke="none"/>
      <path d="M17.85 24.55 L17.6 26.25 17.5 26.4 16.5 24.7 17.85 24.55 M12.7 26.55 L13.55 26.0 13.5 27.25 12.7 26.55 M6.8 30.35 L6.8 31.15 6.75 31.15 5.75 30.6 5.35 30.15 6.65 29.25 7.25 28.9 Q6.85 29.5 6.8 30.35 M9.4 28.1 L10.35 27.85 9.8 29.3 9.75 29.3 9.4 28.1 M23.75 29.45 L23.4 29.5 Q22.85 29.5 22.6 29.2 L23.3 28.65 23.75 29.45 M26.7 27.8 L26.55 29.3 25.0 27.55 Q25.95 27.05 26.7 27.15 L26.7 27.8 M-0.25 28.75 Q-0.25 29.35 -0.85 30.5 L-0.95 30.5 Q-1.2 29.9 -1.95 29.25 L-2.65 28.75 Q-1.25 28.4 -0.25 28.75 M-6.95 26.75 L-6.4 27.45 -7.3 27.5 -7.7 27.4 -6.95 26.75 M-10.05 25.05 L-9.85 24.45 Q-9.1 24.55 -8.25 25.3 -9.65 26.05 -10.3 26.55 L-10.05 25.05" fill="#000000" fill-opacity="0.69411767" fill-rule="evenodd" stroke="none"/>
      <path d="M11.3 10.95 Q12.85 10.85 14.45 11.55 L13.7 13.8 13.15 13.85 12.45 13.8 14.25 15.5 13.65 16.65 13.25 17.8 Q13.45 18.5 14.8 18.8 L16.0 19.0 16.85 20.05 17.2 20.8 Q17.0 20.5 16.2 20.3 L15.5 20.15 14.95 20.0 Q13.25 19.6 13.05 19.0 L13.0 18.95 Q12.85 18.35 12.85 17.2 L12.7 15.85 11.15 13.6 9.9 12.05 10.1 12.05 10.4 11.05 11.3 10.95 M9.35 11.0 L9.4 11.45 9.6 12.05 9.85 12.05 8.6 13.6 7.05 15.85 Q6.9 16.1 6.9 17.2 L6.75 18.95 6.7 19.0 Q6.5 19.6 4.8 20.0 L4.7 20.05 4.65 20.05 3.1 20.45 2.55 20.8 2.9 20.05 Q3.3 19.2 3.75 19.0 6.2 18.75 6.5 17.8 L6.1 16.65 5.5 15.5 7.3 13.8 6.6 13.85 6.05 13.8 Q5.25 12.15 5.3 11.55 7.45 10.65 9.25 11.0 L9.35 11.0" fill="#cb2929" fill-rule="evenodd" stroke="none"/>
      <path d="M11.3 11.65 L10.3 11.4 10.4 11.05 11.3 11.2 12.05 11.6 11.3 11.65 M7.7 11.6 Q8.4 11.05 9.35 11.0 L9.4 11.45 7.7 11.6 M6.6 13.85 L6.05 13.8 Q8.15 12.4 9.65 12.05 L8.8 12.8 7.55 13.7 7.3 13.8 6.6 13.85 M4.7 20.05 L4.65 20.05 3.1 20.45 2.55 20.8 2.9 20.05 Q3.3 19.2 3.75 19.0 6.2 18.75 6.5 17.8 L6.75 18.95 6.7 19.0 Q6.5 19.6 4.8 20.0 L4.7 20.05 M10.95 12.8 L10.1 12.05 11.3 12.45 Q12.4 12.9 13.7 13.8 L13.15 13.85 12.45 13.8 12.2 13.7 11.3 13.1 10.95 12.8 M13.05 19.0 L13.0 18.95 13.25 17.8 Q13.45 18.5 14.8 18.8 L16.0 19.0 16.85 20.05 17.2 20.8 Q17.0 20.5 16.2 20.3 L15.5 20.15 14.95 20.0 Q13.25 19.6 13.05 19.0" fill="#7f1919" fill-rule="evenodd" stroke="none"/>
      <path d="M10.1 12.05 L9.6 12.05 9.4 11.45 9.35 11.0 9.35 10.65 9.6 10.6 10.5 10.65 10.45 10.9 10.1 12.05" fill="#7f1919" fill-rule="evenodd" stroke="none"/>
      <path d="M16.25 5.05 L13.25 9.6 Q12.3 8.55 11.6 8.55 L12.35 9.7 11.3 10.15 9.85 10.55 Q9.1 10.5 7.35 9.7 L8.1 8.55 Q7.4 8.55 6.45 9.6 L3.45 5.05 3.75 4.5 Q4.8 3.1 6.2 2.7 L6.25 2.75 7.95 3.75 6.85 3.85 6.9 4.0 7.65 5.65 8.45 7.45 8.65 7.8 8.9 8.45 9.65 10.0 9.85 10.55 10.1 10.0 10.8 8.45 11.1 7.75 11.25 7.45 11.3 7.35 12.05 5.65 12.8 4.05 12.9 3.9 11.7 3.75 13.45 2.8 13.5 2.7 Q14.9 3.1 15.95 4.5 L16.25 5.05" fill="#ffb4cd" fill-rule="evenodd" stroke="none"/>
      <path d="M9.05 8.5 L8.95 8.6 Q8.5 8.75 8.15 9.35 L9.7 9.9 9.8 9.95 9.8 10.05 9.7 10.15 9.6 10.15 7.9 9.55 7.85 9.5 7.85 9.4 7.85 9.35 Q8.25 8.55 8.85 8.35 L8.95 8.35 9.05 8.4 9.05 8.5 M3.8 4.4 L3.85 4.45 6.55 8.35 Q7.6 7.35 8.45 7.35 L8.55 7.35 8.6 7.45 8.55 7.55 8.45 7.6 Q7.65 7.65 6.6 8.65 L6.55 8.7 6.45 8.7 6.4 8.65 3.65 4.6 3.65 4.5 3.7 4.4 3.8 4.4 M11.3 8.95 L10.75 8.6 10.7 8.5 10.7 8.4 10.75 8.35 10.85 8.35 11.3 8.6 11.85 9.35 11.9 9.4 11.85 9.5 11.8 9.55 10.15 10.15 10.05 10.15 10.0 10.05 10.0 9.95 10.05 9.9 11.6 9.35 11.3 8.95 M16.1 4.5 L16.05 4.6 13.3 8.65 13.25 8.7 13.2 8.7 13.15 8.65 Q12.1 7.65 11.3 7.6 L11.25 7.6 11.15 7.55 11.15 7.45 11.2 7.35 11.25 7.35 11.3 7.35 Q12.15 7.4 13.2 8.35 L15.85 4.45 15.95 4.4 16.05 4.4 16.1 4.5" fill="#ffffff" fill-rule="evenodd" stroke="none"/>
      <path d="M12.9 3.9 L11.7 3.75 13.45 2.8 12.9 3.9 M12.35 9.7 L11.6 8.55 Q12.3 8.55 13.25 9.6 L15.15 6.8 15.5 7.4 13.55 10.15 12.85 9.95 12.15 10.3 11.3 10.65 10.45 10.9 10.5 10.65 9.6 10.6 9.35 10.65 9.35 11.0 9.25 11.0 8.0 10.5 6.85 9.95 6.15 10.15 4.3 7.45 4.65 6.85 6.45 9.6 Q7.4 8.55 8.1 8.55 L7.35 9.7 Q9.1 10.5 9.85 10.55 L11.3 10.15 12.35 9.7 M6.95 24.15 L8.8 20.95 7.1 25.1 Q5.4 29.4 5.35 30.15 L5.75 30.6 6.75 31.15 Q5.3 31.3 4.35 30.45 4.95 27.9 6.95 24.15 M9.85 12.05 L9.9 12.05 11.15 13.6 12.7 15.85 12.85 17.2 Q12.85 18.35 13.0 18.95 L13.05 19.0 Q13.25 19.6 14.95 20.0 L15.5 20.15 16.2 20.3 18.75 24.6 17.6 26.25 17.85 24.55 17.8 24.35 16.0 21.05 15.1 20.7 14.15 20.4 Q12.75 20.15 12.6 19.3 12.35 19.05 12.25 17.75 L12.15 16.1 11.3 14.7 11.0 14.25 9.9 12.75 8.75 14.2 7.55 16.1 7.45 17.75 7.1 19.3 Q6.95 20.15 5.55 20.4 L4.6 20.7 2.75 30.55 1.05 30.75 1.0 30.7 Q1.5 30.65 1.8 30.1 L1.7 30.05 4.45 20.75 Q3.6 21.05 2.5 21.55 L2.75 21.05 3.1 20.45 4.65 20.05 4.7 20.05 4.8 20.0 Q6.5 19.6 6.7 19.0 L6.75 18.95 6.9 17.2 Q6.9 16.1 7.05 15.85 L8.6 13.6 9.85 12.05 M7.95 3.75 L6.85 3.85 6.25 2.75 7.95 3.75 M10.35 28.9 L9.85 29.3 9.8 29.3 10.35 27.85 11.0 19.15 11.05 27.8 10.75 28.35 10.35 28.9 M13.45 27.3 L12.6 27.05 12.15 26.8 11.8 17.3 12.7 26.55 13.5 27.25 13.45 27.3 M31.8 28.3 L31.05 29.5 Q29.4 30.95 27.95 31.3 L26.85 31.45 28.1 30.8 Q29.45 29.6 29.9 27.2 L20.6 18.3 31.1 26.9 31.45 26.6 Q31.95 26.0 32.05 24.95 L32.1 25.0 Q32.4 26.7 31.8 28.3 M20.75 27.5 L17.95 21.2 22.55 29.15 Q21.65 27.8 20.75 27.5 M27.1 27.0 L17.95 17.65 28.1 26.8 Q27.7 28.7 26.55 29.3 L27.1 27.65 27.1 27.0 M-4.85 28.5 L-6.65 28.3 Q-7.5 28.0 -7.7 27.4 L-7.3 27.5 -6.4 27.45 0.1 20.9 -4.8 28.55 -4.85 28.5 M-1.95 29.25 Q-1.2 29.9 -0.95 30.5 L-2.8 30.25 -3.5 28.65 -0.2 23.75 -1.35 25.8 Q-2.6 28.05 -2.7 28.7 L-2.65 28.75 -1.95 29.25 M-10.3 24.9 L-10.3 26.55 -10.35 26.55 -11.45 25.95 Q-11.7 26.0 -11.45 27.25 L-11.15 28.55 -12.15 27.6 Q-13.15 26.15 -13.0 23.75 -12.25 25.25 -10.7 25.25 L-10.8 24.8 -10.9 23.65 1.15 17.4 -10.15 24.2 -10.3 24.9" fill="#000000" fill-opacity="0.4" fill-rule="evenodd" stroke="none"/>
      <path d="M22.3 19.75 L22.3 19.6 22.35 19.55 22.2 18.6 Q22.5 17.65 23.7 17.05 L24.8 16.65 Q25.1 17.6 24.9 19.45 25.5 19.6 25.85 21.0 L24.6 20.9 23.4 20.8 22.3 19.75" fill="url(#gradient0)" fill-rule="evenodd" stroke="none"/>
      <path d="M24.6 20.9 L26.8 23.6 24.85 23.8 23.7 25.3 22.25 21.0 22.3 19.75 23.4 20.8 24.6 20.9" fill="url(#gradient1)" fill-rule="evenodd" stroke="none"/>
      <path d="M19.15 21.95 L18.95 20.5 Q17.8 19.2 17.8 18.1 L19.15 18.25 21.05 18.65 Q21.45 18.8 21.65 19.35 L21.75 19.7 21.8 20.05 21.8 20.1 Q21.35 21.65 19.2 22.35 L19.15 21.95" fill="url(#gradient2)" fill-rule="evenodd" stroke="none"/>
      <path d="M19.15 21.95 L19.2 22.35 Q21.35 21.65 21.8 20.1 22.1 21.5 21.15 25.55 20.2 25.1 19.95 24.4 L18.0 24.15 19.15 21.95" fill="url(#gradient3)" fill-rule="evenodd" stroke="none"/>
      <path d="M-2.6 20.1 L-2.6 20.05 -2.55 19.7 -2.45 19.35 Q-2.25 18.8 -1.85 18.65 L0.05 18.25 1.4 18.1 Q1.4 19.2 0.25 20.5 L0.05 21.9 0.0 22.35 Q-2.15 21.65 -2.6 20.1" fill="url(#gradient4)" fill-rule="evenodd" stroke="none"/>
      <path d="M-2.6 20.1 Q-2.15 21.65 0.0 22.35 L0.05 21.9 1.2 24.15 -0.75 24.4 Q-1.0 25.1 -1.95 25.55 -2.9 21.5 -2.6 20.1" fill="url(#gradient5)" fill-rule="evenodd" stroke="none"/>
      <path d="M-3.1 19.75 L-3.05 21.0 -4.5 25.3 -5.65 23.8 -7.6 23.6 -5.4 20.9 -4.2 20.8 -3.1 19.75" fill="url(#gradient6)" fill-rule="evenodd" stroke="none"/>
      <path d="M-5.4 20.9 L-6.65 21.0 Q-6.3 19.6 -5.7 19.45 -5.9 17.6 -5.6 16.65 L-4.5 17.05 Q-3.3 17.65 -3.0 18.6 L-3.15 19.55 -3.1 19.6 -3.1 19.75 -4.2 20.8 -5.4 20.9" fill="url(#gradient7)" fill-rule="evenodd" stroke="none"/>
      <path d="M21.65 19.35 Q21.45 18.8 21.05 18.65 21.55 18.3 22.15 18.4 L22.2 18.6 22.35 19.55 21.8 20.05 21.75 19.7 21.65 19.35" fill="url(#gradient8)" fill-rule="evenodd" stroke="none"/>
      <path d="M-2.95 18.4 Q-2.35 18.3 -1.85 18.65 -2.25 18.8 -2.45 19.35 L-2.55 19.7 -2.6 20.05 -3.15 19.55 -3.0 18.6 -2.95 18.4" fill="url(#gradient9)" fill-rule="evenodd" stroke="none"/>
      <path d="M24.65 20.9 L24.95 21.4 Q22.6 21.55 22.3 20.75 L22.35 19.8 23.4 20.8 24.65 20.9 M21.8 21.35 L21.05 22.15 Q20.0 22.95 18.7 22.8 L19.15 21.9 19.2 22.35 Q21.35 21.65 21.8 20.1 L21.8 20.05 21.8 21.35 M22.7 18.65 L23.9 18.55 Q23.4 19.15 22.3 19.0 L22.7 18.65 M21.55 19.3 Q20.85 19.7 19.9 19.3 20.65 18.8 21.55 19.3 M0.05 21.9 L0.5 22.8 Q-0.8 22.95 -1.85 22.15 L-2.6 21.35 -2.6 20.05 -2.6 20.1 Q-2.15 21.65 0.0 22.35 L0.05 21.9 M-5.45 20.9 L-4.2 20.8 -3.15 19.8 -3.1 20.75 Q-3.4 21.55 -5.75 21.4 L-5.45 20.9 M-3.45 18.65 L-3.05 19.0 Q-4.15 19.15 -4.65 18.55 L-3.45 18.65 M-0.65 19.3 Q-1.6 19.7 -2.3 19.3 -1.4 18.8 -0.65 19.3" fill="#000000" fill-opacity="0.4" fill-rule="evenodd" stroke="none"/>
    </g>
    <linearGradient gradientTransform="matrix(0.0021, -7.0E-4, 8.0E-4, 0.0025, 24.0, 18.8)" gradientUnits="userSpaceOnUse" id="gradient0" spreadMethod="pad" x1="-819.2" x2="819.2">
      <stop offset="0.0" stop-color="#ffccdc"/>
      <stop offset="1.0" stop-color="#ff6698"/>
    </linearGradient>
    <linearGradient gradientTransform="matrix(0.0011, 0.0027, -0.0031, 0.0012, 24.35, 21.85)" gradientUnits="userSpaceOnUse" id="gradient1" spreadMethod="pad" x1="-819.2" x2="819.2">
      <stop offset="0.0" stop-color="#ffccdc"/>
      <stop offset="1.0" stop-color="#ff6698"/>
    </linearGradient>
    <linearGradient gradientTransform="matrix(-0.0019, 7.0E-4, -9.0E-4, -0.0024, 20.1, 20.2)" gradientUnits="userSpaceOnUse" id="gradient2" spreadMethod="pad" x1="-819.2" x2="819.2">
      <stop offset="0.0" stop-color="#ffccdc"/>
      <stop offset="1.0" stop-color="#ff6698"/>
    </linearGradient>
    <linearGradient gradientTransform="matrix(-9.0E-4, 0.0027, -0.0032, -0.001, 20.0, 22.7)" gradientUnits="userSpaceOnUse" id="gradient3" spreadMethod="pad" x1="-819.2" x2="819.2">
      <stop offset="0.0" stop-color="#ffccdc"/>
      <stop offset="1.0" stop-color="#ff6698"/>
    </linearGradient>
    <linearGradient gradientTransform="matrix(0.0019, 7.0E-4, 9.0E-4, -0.0024, -0.9, 20.2)" gradientUnits="userSpaceOnUse" id="gradient4" spreadMethod="pad" x1="-819.2" x2="819.2">
      <stop offset="0.0" stop-color="#ffccdc"/>
      <stop offset="1.0" stop-color="#ff6698"/>
    </linearGradient>
    <linearGradient gradientTransform="matrix(9.0E-4, 0.0027, 0.0032, -0.001, -0.8, 22.7)" gradientUnits="userSpaceOnUse" id="gradient5" spreadMethod="pad" x1="-819.2" x2="819.2">
      <stop offset="0.0" stop-color="#ffccdc"/>
      <stop offset="1.0" stop-color="#ff6698"/>
    </linearGradient>
    <linearGradient gradientTransform="matrix(-0.0011, 0.0027, 0.0031, 0.0012, -5.15, 21.85)" gradientUnits="userSpaceOnUse" id="gradient6" spreadMethod="pad" x1="-819.2" x2="819.2">
      <stop offset="0.0" stop-color="#ffccdc"/>
      <stop offset="1.0" stop-color="#ff6698"/>
    </linearGradient>
    <linearGradient gradientTransform="matrix(-0.0021, -7.0E-4, -8.0E-4, 0.0025, -4.8, 18.8)" gradientUnits="userSpaceOnUse" id="gradient7" spreadMethod="pad" x1="-819.2" x2="819.2">
      <stop offset="0.0" stop-color="#ffccdc"/>
      <stop offset="1.0" stop-color="#ff6698"/>
    </linearGradient>
    <linearGradient gradientTransform="matrix(2.0E-4, 8.0E-4, -0.001, 3.0E-4, 21.7, 19.2)" gradientUnits="userSpaceOnUse" id="gradient8" spreadMethod="pad" x1="-819.2" x2="819.2">
      <stop offset="0.0" stop-color="#ffccdc"/>
      <stop offset="1.0" stop-color="#ff6698"/>
    </linearGradient>
    <linearGradient gradientTransform="matrix(-3.0E-4, 7.0E-4, -9.0E-4, -4.0E-4, -2.8, 19.1)" gradientUnits="userSpaceOnUse" id="gradient9" spreadMethod="pad" x1="-819.2" x2="819.2">
      <stop offset="0.0" stop-color="#ffccdc"/>
      <stop offset="1.0" stop-color="#ff6698"/>
    </linearGradient>
  </defs>
</svg>
