<svg xmlns="http://www.w3.org/2000/svg" xmlns:ffdec="https://www.free-decompiler.com/flash" xmlns:xlink="http://www.w3.org/1999/xlink" ffdec:objectType="frame" width="19.05" height="35.7"><use ffdec:characterId="1" xlink:href="#a" width="19.05" height="35.7"/><defs><linearGradient id="b" x1="-819.2" x2="819.2" gradientTransform="matrix(-.0011 -.0089 .011 -.0013 9.05 21.55)" gradientUnits="userSpaceOnUse" spreadMethod="pad"><stop offset="0" stop-color="#8a3b3b"/><stop offset="1" stop-color="#330303"/></linearGradient><linearGradient id="c" x1="-819.2" x2="819.2" gradientTransform="matrix(-.0011 -.0089 .011 -.0013 -13.8 32.95)" gradientUnits="userSpaceOnUse" spreadMethod="pad"><stop offset="0" stop-color="#8a3b3b"/><stop offset="1" stop-color="#330303"/></linearGradient><g id="a" fill-rule="evenodd"><path fill="#3e0a0a" d="m6.4 5.15.35.55v.05h.05l.15.3-.2-.3zm1.3 2.7-.25.95-.45.55q-.9.9-2.55.9L3.15 10l-.25-.25q-.15.5-.15 1.2l-.1.15q-.25.1-.7-2.55Q1.5 5.85 0 1.1.05.85 1.3.4L2.6 0l.1.05.05.05Q2.4 2.2 2.4 3.55q0 1.75 4.05 2.2h.25l-1.15.85-.45.55-.55.95v.1l-.05.1-.4 1v.05l1.7-.15-.15-.55V8.4L7 8.2l.1-.05z"/><path fill="#bf283d" d="m6.95 6.05.15.15v.05l-.05.05q-.3.1-.85.7-.45.5-.55.9v.75l.15.55-1.7.15V9.3l.4-1 .05-.1v-.1l.55-.95.45-.55 1.15-.85h-.25Q2.4 5.3 2.4 3.55q0-1.35.35-3.45l.75.7-.3 1.35L3 3.5q-.1.55.7.9l2.7.75.35.6z"/><path fill="#d9cdcf" d="m4 1.4 1.5 2.2.65 1.1-1.35-.55q-.95-.65-.95-2 0-.5.15-.75m3.1 4.85.3.45.1.2v.35l.2.55v.05l-.6.3-.1.05q-.15-.35-.15-.8l.2-1.1z"/><path fill="#b4aaab" d="m3.5.8.05.05.2.25.25.3q-.15.25-.15.75 0 1.35.95 2l1.35.55.25.45-2.7-.75q-.8-.35-.7-.9l.2-1.35zm2.15 7.6v-.5q.1-.4.55-.9.55-.6.85-.7l-.2 1.1q0 .45.15.8z"/><path fill="#911a1a" d="m10.35 11.75.75.85.35.7-.05.3v-.15q0-.7-1.5-1.95h-.45l.3-.25.05-.05zm1 2q.45.9 2.15 2.25l.15.1-.25-.1-1.05-.4q-1.25-.55-1.25-1.2l.15-.5zM16 20.7q.45 1.25 2.15 3.1 1.1 1.15.85 1.3l-.05-.1h-.4v-.05l-.05.05-.05-.05-.15-.05.35.2-.4-.2q-1.15-.5-1.65-1.15l-1.3-1.45v-.2q.05-.9.65-1.45l-.2.25zm1.5 8.1.4 1.7.1 1.85q0 .85-.1.05v-.3l-.05-.1v.45-.2l-.05-.45-.1-.3-.35-.45-.7-.95-.1-.4.55-.65.3-.5v.3zM4.7 11.6l-.05-.1-.15-.45V11l.1.05h.2v.1z"/><path fill="#4f1919" d="m2.2 13.55.05-.35-.1-3.65q-.05-.65.6-.7l.9-.15.8-.15.5.05q.5.1.9.5l.35-.25.35-.15.6-.15q.7 0 1.35.5l.35.35.95-.15q.95 0 1.3.4l.25 1.1q0 .75-.4 1l-.25.05h-.1l-.25-.05-.55-.55-.05-.05-.2-.35-.05-.1v.05l-.1.1-.2.1-.85.1-1-.25-.4-.45q-.1 1.15-1.1 1.15l-1.05-.35v-.1h-.2L4.5 11v.05l.15.45.05.1.1.35-.35.55-.55.25v-.15l-.45-.1q-.25 0-.75.4l-.4.45zm0 .75-.05-.05v-.05zm-.1-.35V14v-.1z"/><path fill="#5b2b2b" d="m7.9 26.25-.15-.15L6 24.55l.15.05q1.45.65 1.75 1.65m-3.4-5.7-.45.1-.8-.55-.85-.65z"/><path fill="#875757" d="m15.1 32.9-1-.65-1.1-3.5-.5-1.5q1.2 1 2.1 1.05l.05.35.05.3zm-3.2-2.05v-.05zm-.05-1.5-.65-.15-.95-.15L9.9 29l-1.55-6.7.05.05q1.85 2.7 3.4 4.2zM8 26.45l-.1-.2q-.3-1-1.75-1.65L6 24.55l-.05-.05-.2-1.65-.35-2.8 1.35 1.1L8 22.5l.1.1.15.25q-.1.05-.1 1.45zm-5.6-7-.05-.05-.55-1.25-.35-.85q.15-.65.7-1.05l.45-.35v.1l.1.15h-.05l-.05.1q0 .95 1.3 1.85.35.25.55 1l.2.45-.1.35-.05.65zm14.95 11.6.35.45.1.3.05.45zm.5 1.25V32l.05.1v.3z"/><path fill="url(#b)" d="m10.95 15.75-.05.15-.1.15-.15.5q0 .65 1.25 1.2l1.05.4-.4.05h-.35q1.05 1.15 1.9 3.5l.75 2.85v-.3.2l.1.15.85 2.05q.3.9 0 1.15l-.1.05h-.2q-.8-.1-.9.6l-.1.45-.3 1.05-.05.05v.05q-1.25-.6-1.9-1.2l-.9-1.1-.85-.9-1.75-2.3q-1.3-1.9-2.1-1.9l-1.2-.3q-.4-.25-.8-1.3-1.2-2.05-1.2-2.6l.15-.4.15-.3-.4-.8q-.4-.35-.4-.95v-.6l.1-.15.05-.1h.35v-.25l.55-.25.35-.55-.1-.35.1-.45 1.05.35q1 0 1.1-1.15l.4.45 1 .25.85-.1.2-.1.1-.1v-.05l.05.1.2.35.05.05-.05.05-.3.25h.45q1.5 1.25 1.5 1.95zm5.3 5.35-.15.7-.55 1.05zm-14.1-3.05L2.2 18l.15-.15-.1.3v.15l-.1-.15zm.95-2.9h-.05.1zm4.65 9.15.1.8-.05-.1-.15-.25.1.1z" transform="translate(.45 -2.15)"/><path fill="#583939" d="M19 25.6v.15q.15 1.6-.8 2.55l-.05.05-.65.45-.1.05v-.3l-.3.5-.55.65.1.4.7.95.5 1.2v.2-.15l.05.1v.4q0 1.1-.5 2.35l-.4.55-.4-.45-.75-1.4-.75-.95-.4-3.95-.05-.3-.05-.35h.1l.4-.05q.6.15 1.35.6h.05v-.3l-.7-1.2-.1-.3v-.1l.05-.05.1-.05.55-.55q.35-.5 2.45-.7zm-4.9 6.65-.1-.05-.85-.45-1.25-.9v-.05l-.05-.1v-1.35l-.05-2.8.05.05.65.65.5 1.5zM9.9 29q-.6-.15-1.15-.6Q8 27.7 8 26.8v-.35l.15-2.15q0-1.4.1-1.45l.05.1-.1-.8.05.05.1.1zm-3.95-4.5-.15-.15-.4-.55q-.75-1.05-.85-2.15l.05-.35-.1-.35v-.4l.05-.65.1-.35.05.1q.1.2.3.25l.4.15.35 2.8zm12.55.5.05-.05V25z"/><path fill="#4d1010" d="M14.6 27.9v-.05zm.35-1.15.1-.45q.1-.7.9-.6h.2-.1l-.75.4zm1.3-1.1q.3-.25 0-1.15l-.85-2.05.65 1.1.55 1.5q0 .4-.35.6m2.4-.55v-.05l.2.05zm-2.95 1.95.1.3-.1-.2z"/><path fill="url(#c)" d="m13.2 18.25 2.25 1.1.4.4.2.35.2 1-.7 1.75-.25.2.2-.25q-.6.55-.65 1.45v.3l-.75-2.85q-.85-2.35-1.9-3.5h.35l.4-.05zm5.35 9v.5h-.15q-2.1.2-2.45.7l-.55.55-.1.05-.05.05v.2l.1.2.7 1.2v.3H16q-.75-.45-1.35-.6l-.4.05h-.1q-.9-.05-2.1-1.05l-.65-.65-.05-.05q-1.55-1.5-3.4-4.2l-.05-.05-.1-.1-.05-.05v.55l-.1-.1-.1-.1L6.3 23.3l-1.35-1.1-.4-.15q-.2-.05-.3-.25l-.05-.1-.2-.45q-.2-.75-.55-1-1.3-.9-1.3-1.85l.05-.1h.05v-.15l.1-.3v-.2l-.2-.6-.15-.2-.1-.15-.15-.2v-.05l-.05-.1v-.05l-.05-.2V16l.1-.3.1-.2.4-.45q.5-.4.75-.4l.45.1v.4H3.1l-.05.1-.1.15v.6q0 .6.4.95l.4.8-.15.3-.15.4q0 .55 1.2 2.6.4 1.05.8 1.3l1.2.3q.8 0 2.1 1.9l1.75 2.3.85.9.9 1.1q.65.6 1.9 1.2V30l.05-.05.3-1.05.35-.65.75-.4h.1l.1-.05q.35-.2.35-.6l-.55-1.5-.65-1.1-.1-.15 1.3 1.45q.5.65 1.65 1.15l.4.2-.35-.2.15.05.05.05h.45zM3.1 15.15h.05-.1zm15.1 12.1h.2l-.2-.05z" transform="translate(.45 -2.15)"/><path fill="#931c2c" d="m7.05 11.7-.25-.5-1.75-2.75-.25-.3.5-.05 1.05.5q1 .65 2.1 2.4l-1.3.75-.05-.05zM4.4 8.15l-.2 2.65-.7-.9-1.8.6.4-1.45.3-1-.05-.1 1.65.1h.4zm2.75-1.1v-.1q.4-.15 1.05 0h-.15H9l.2.45-.2.05v.3l.25.45-.1-.1-.7-.45q-.8-.55-1.3-.6M9.5 9.6l-.05.1-.25.5-.1.1-.95-1.2-.6-.65h.2l1.4.9z"/><path fill="#bf283d" d="m4.8 8.15.25.3L6.8 11.2l.25.5v.1l-.4.1h-.1l-.2.05v-.05l.05-.15-.75.05-.05.05-1.15-.25-.05-.05q-.35-.35-.2-.75l.2-2.65zM8.45 11q-1.1-1.75-2.1-2.4L5.3 8.1l1-.25h.1l.1.05.05-.05.05-.05.3-.2.25-.55q.5.05 1.3.6l.7.45.1.1.25.55.1.4-.1.45-.35-.25-1.4-.9h-.2l.6.65.95 1.2z"/></g></defs></svg>