<?xml version="1.0" encoding="UTF-8" standalone="no"?>
<svg xmlns:ffdec="https://www.free-decompiler.com/flash" xmlns:xlink="http://www.w3.org/1999/xlink" ffdec:objectType="frame" height="27.9px" width="22.8px" xmlns="http://www.w3.org/2000/svg">
  <g transform="matrix(1.0, 0.0, 0.0, 1.0, 0.9, -1.35)">
    <use ffdec:characterId="3" height="27.9" transform="matrix(1.0, 0.0, 0.0, 1.0, -0.9, 1.35)" width="22.8" xlink:href="#shape0"/>
  </g>
  <defs>
    <g id="shape0" transform="matrix(1.0, 0.0, 0.0, 1.0, 0.9, -1.35)">
      <path d="M13.0 25.15 L12.75 24.65 9.05 24.0 8.9 24.55 8.75 25.15 7.7 25.15 7.55 24.75 7.65 24.75 7.8 24.5 Q7.95 24.35 8.1 24.35 L7.45 23.55 8.45 23.45 8.6 23.45 9.05 23.5 9.2 23.5 9.75 23.55 13.15 23.55 13.3 23.85 14.75 23.8 15.05 24.1 14.8 24.3 14.7 24.2 14.25 24.2 14.95 24.4 15.2 24.55 14.45 24.95 13.9 25.05 13.8 25.05 13.0 25.15 M14.1 24.9 L13.95 24.9 13.9 25.0 14.1 24.9" fill="#9aa9b1" fill-rule="evenodd" stroke="none"/>
      <path d="M8.75 25.15 L8.9 24.55 9.05 24.0 12.75 24.65 13.0 25.15 12.75 25.2 11.35 25.2 11.25 25.15 8.75 25.15 M7.55 24.75 L7.7 25.15 7.2 25.15 6.2 25.15 6.05 25.15 6.0 25.0 6.25 24.75 Q6.6 24.6 7.2 24.75 L7.55 24.75 M14.1 24.9 L13.9 25.0 13.95 24.9 14.1 24.9" fill="#ffffff" fill-rule="evenodd" stroke="none"/>
      <path d="M14.65 24.8 L13.55 24.55 13.7 24.25 14.65 24.35 14.65 24.8 M12.85 19.95 L14.65 20.15 14.65 20.75 12.85 20.6 12.85 19.95" fill="#a1a057" fill-rule="evenodd" stroke="none"/>
      <path d="M14.65 20.15 L16.1 20.35 16.85 20.5 Q20.75 21.1 21.05 22.65 L21.35 24.65 21.3 25.1 20.35 25.2 16.85 25.05 14.65 24.8 14.65 24.35 13.7 24.25 Q14.15 23.15 13.3 21.9 12.95 20.55 12.1 19.9 L12.85 19.95 12.85 20.6 14.65 20.75 14.65 20.15 M12.5 24.35 L9.3 23.85 8.95 23.8 9.7 21.8 9.75 21.9 10.0 22.1 10.2 21.85 10.15 21.7 10.15 21.65 10.9 21.75 12.0 23.2 11.9 23.35 11.95 23.5 12.1 23.55 12.15 23.55 12.5 24.35 M8.65 23.75 L6.0 23.15 4.05 22.65 3.95 22.75 3.8 22.85 Q3.05 22.85 3.15 21.85 3.15 20.45 6.0 20.0 L7.5 19.8 7.65 19.85 Q6.6 20.35 5.75 21.3 L5.7 21.55 8.6 21.5 Q7.8 22.6 8.65 23.75 M11.05 22.6 Q10.8 22.55 10.8 22.8 L10.85 22.95 10.75 23.15 10.95 23.35 11.2 23.1 11.2 23.0 11.3 22.8 11.05 22.6 M9.45 22.8 L9.3 23.0 9.5 23.2 9.8 22.95 9.8 22.85 9.85 22.7 9.8 22.55 Q9.65 22.4 9.5 22.55 L9.4 22.7 9.45 22.8" fill="#ffffff" fill-rule="evenodd" stroke="none"/>
      <path d="M13.55 24.55 L13.5 24.55 12.85 24.4 12.5 24.35 12.15 23.55 12.1 23.55 11.95 23.5 11.9 23.35 12.0 23.2 10.9 21.75 10.15 21.65 10.15 21.7 10.2 21.85 10.0 22.1 9.75 21.9 9.7 21.8 8.95 23.8 8.65 23.75 Q7.8 22.6 8.6 21.5 L5.7 21.55 5.75 21.3 Q6.6 20.35 7.65 19.85 L8.85 19.9 8.95 19.8 8.95 19.75 10.3 19.8 12.1 19.9 Q12.95 20.55 13.3 21.9 14.15 23.15 13.7 24.25 L13.55 24.55 M9.45 22.8 L9.4 22.7 9.5 22.55 Q9.65 22.4 9.8 22.55 L9.85 22.7 9.8 22.85 9.8 22.95 9.5 23.2 9.3 23.0 9.45 22.8 M11.05 22.6 L11.3 22.8 11.2 23.0 11.2 23.1 10.95 23.35 10.75 23.15 10.85 22.95 10.8 22.8 Q10.8 22.55 11.05 22.6" fill="#9aa9b1" fill-rule="evenodd" stroke="none"/>
      <path d="M21.4 21.8 L21.45 21.95 19.55 23.5 16.5 25.65 14.7 27.15 14.7 27.1 14.55 26.75 14.2 25.4 14.0 25.7 14.0 25.45 13.85 24.2 13.4 22.6 12.45 21.1 12.2 20.75 11.75 20.95 Q12.55 22.2 12.7 23.75 L12.7 23.85 12.7 24.05 Q11.9 22.5 10.8 21.25 L10.5 20.95 10.3 20.75 10.05 20.5 10.0 20.45 10.0 20.5 9.75 21.25 9.65 21.5 8.8 21.7 7.4 24.65 6.7 27.1 7.1 27.55 7.5 27.95 6.9 27.8 6.0 27.45 Q4.8 27.05 2.9 25.9 0.95 24.75 -0.35 23.05 L-0.2 22.75 0.9 24.05 Q1.75 24.95 3.55 25.95 5.3 26.9 4.85 26.5 L4.4 26.05 Q3.85 25.35 3.5 24.25 L3.5 24.2 6.55 26.9 Q7.0 24.25 8.3 21.85 L7.7 22.05 6.65 22.25 6.0 22.4 Q6.45 24.05 6.2 25.75 4.7 25.1 3.5 23.15 L3.35 22.65 2.15 22.75 1.0 22.6 0.05 22.2 0.4 21.7 0.65 21.15 0.75 21.05 Q2.8 19.2 5.9 19.2 L9.1 19.55 10.0 19.9 10.15 19.8 10.4 19.55 11.85 18.55 Q13.2 17.75 14.2 17.55 L20.3 18.4 20.2 18.85 20.95 20.75 19.3 20.7 19.75 20.8 19.3 20.85 18.5 22.7 17.45 23.65 16.4 24.05 Q17.8 23.2 17.75 21.6 16.5 21.05 14.9 24.55 L14.45 25.1 14.65 26.3 Q14.7 26.75 15.25 26.3 15.75 25.85 17.45 24.7 L20.2 22.65 Q21.3 21.75 21.4 21.8 M11.65 4.9 L11.7 4.75 Q11.95 3.8 11.8 4.9 L11.9 5.2 11.85 5.5 11.8 5.05 11.8 5.75 11.85 5.95 11.9 6.05 Q12.05 5.7 12.1 6.1 L12.55 6.0 12.8 6.05 12.8 6.5 Q12.8 7.8 11.85 10.55 10.7 13.7 9.7 13.7 9.35 13.7 8.6 12.25 L7.65 10.2 Q6.85 7.8 6.85 6.15 L6.95 5.85 6.85 5.6 Q6.85 5.3 7.2 5.3 L7.95 6.0 8.15 6.15 8.8 8.35 9.6 10.65 9.6 10.7 9.6 10.65 10.0 7.6 Q9.45 7.8 8.9 6.8 L10.0 7.2 10.0 6.95 10.15 7.2 10.45 6.4 10.3 7.95 10.95 8.0 11.0 8.05 11.0 7.9 11.65 4.9 M11.9 5.75 L11.85 5.6 11.95 5.45 11.9 5.75 M8.25 5.25 L8.25 5.0 8.4 5.05 8.4 5.25 8.25 5.25 M8.8 4.25 L9.0 4.15 9.05 4.15 9.05 4.1 9.1 4.2 9.0 4.65 8.95 4.3 8.8 4.25 M10.8 8.75 L10.25 8.65 Q9.9 9.65 10.05 10.9 L10.8 8.75 M12.7 20.6 L13.05 21.25 13.75 22.75 13.95 23.7 Q14.2 24.7 14.25 23.05 14.3 21.4 15.0 20.4 L14.5 20.4 13.5 21.45 13.5 21.4 Q13.6 20.75 13.95 20.4 L13.4 20.35 13.2 20.45 12.9 20.55 12.7 20.6" fill="#000000" fill-rule="evenodd" stroke="none"/>
      <path d="M21.4 21.8 Q21.3 21.75 20.2 22.65 L17.45 24.7 Q15.75 25.85 15.25 26.3 14.7 26.75 14.65 26.3 L14.45 25.1 14.9 24.55 Q16.5 21.05 17.75 21.6 17.8 23.2 16.4 24.05 L17.45 23.65 18.5 22.7 19.3 20.85 19.75 20.8 19.3 20.7 20.95 20.75 21.4 21.8 M20.3 18.4 L14.2 17.55 Q14.95 17.35 15.5 17.55 L15.5 17.5 19.2 17.5 20.35 18.25 20.3 18.4 M0.05 22.2 L1.0 22.6 2.15 22.75 3.35 22.65 3.5 23.15 Q4.7 25.1 6.2 25.75 6.45 24.05 6.0 22.4 L6.65 22.25 7.7 22.05 8.3 21.85 Q7.0 24.25 6.55 26.9 L3.5 24.2 3.5 24.25 Q3.85 25.35 4.4 26.05 L4.85 26.5 Q5.3 26.9 3.55 25.95 1.75 24.95 0.9 24.05 L-0.2 22.75 0.05 22.2 M-0.35 23.05 Q0.95 24.75 2.9 25.9 4.8 27.05 6.0 27.45 L6.9 27.8 7.5 27.95 7.1 27.55 6.7 27.1 7.4 24.65 8.8 21.7 9.65 21.5 Q8.05 26.0 7.95 28.65 L7.9 29.25 7.65 29.2 Q4.85 28.3 1.95 26.45 -1.1 24.45 -0.9 24.1 L-0.45 23.2 -0.4 23.1 -0.35 23.05 M12.7 24.05 L12.7 23.85 12.7 23.75 Q12.55 22.2 11.75 20.95 L12.2 20.75 12.45 21.1 13.4 22.6 13.85 24.2 14.0 25.45 14.0 25.7 14.2 25.4 14.55 26.75 14.7 27.1 14.7 27.15 16.5 25.65 19.55 23.5 21.45 21.95 21.9 22.95 20.65 23.95 18.4 25.3 Q15.3 27.55 14.3 28.65 L14.2 28.75 14.15 28.65 13.55 26.75 12.95 24.6 12.7 24.1 12.7 24.05 M10.45 6.4 L10.55 6.4 10.75 5.6 Q11.1 4.55 11.4 4.55 L11.65 4.6 11.65 4.9 11.0 7.9 11.0 8.05 10.95 8.0 10.3 7.95 10.45 6.4 M11.9 5.2 L11.9 5.35 11.95 5.45 12.0 5.5 11.9 5.75 11.95 5.45 11.85 5.6 11.85 5.5 11.9 5.2 M8.15 6.15 L7.95 5.45 Q7.95 5.3 8.25 5.25 L8.4 5.25 8.4 5.05 8.35 4.7 Q8.4 4.25 8.75 4.25 L8.8 4.25 8.95 4.3 9.0 4.65 9.1 4.2 9.4 4.7 9.65 5.4 10.0 6.75 10.0 6.9 10.0 6.95 10.0 7.2 8.9 6.8 Q9.45 7.8 10.0 7.6 L9.6 10.65 9.6 10.7 9.6 10.65 8.8 8.35 8.15 6.15 M9.0 4.15 L9.0 4.1 9.05 4.15 9.0 4.15 M10.8 8.75 L10.05 10.9 Q9.9 9.65 10.25 8.65 L10.8 8.75 M12.7 20.6 L12.9 20.55 13.2 20.45 13.4 20.35 13.95 20.4 Q13.6 20.75 13.5 21.4 L13.5 21.45 14.5 20.4 15.0 20.4 Q14.3 21.4 14.25 23.05 14.2 24.7 13.95 23.7 L13.75 22.75 13.05 21.25 12.7 20.6" fill="#333333" fill-rule="evenodd" stroke="none"/>
      <path d="M17.9 20.3 L18.1 20.25 20.8 19.45 21.15 19.35 21.45 20.45 21.5 20.7 20.1 20.7 19.9 20.85 19.75 20.8 19.7 20.65 18.75 20.45 17.9 20.3 M21.65 21.05 L21.7 21.0 21.7 21.3 19.15 22.0 16.95 22.5 13.9 22.95 13.45 23.0 12.9 23.0 12.65 23.05 10.35 23.05 9.2 22.95 9.2 22.85 9.25 22.7 11.85 22.85 12.35 22.8 12.15 21.15 12.9 21.1 12.95 21.1 Q13.2 21.95 12.95 22.8 L13.5 22.75 14.4 22.65 16.95 22.2 19.95 21.55 21.65 21.05 M9.85 21.85 Q9.85 21.65 10.2 21.65 L10.25 21.85 10.15 22.0 9.9 22.0 9.85 21.85 M14.95 21.45 L15.2 21.7 15.2 21.75 15.0 21.9 14.95 21.9 14.7 21.65 Q14.7 21.35 14.95 21.45 M11.35 21.8 Q11.35 21.55 11.6 21.6 L11.8 21.85 11.55 22.05 11.35 21.9 11.35 21.8 M13.15 21.8 Q13.15 21.55 13.4 21.55 L13.65 21.85 13.55 22.05 13.4 22.1 13.35 22.05 13.15 21.9 13.15 21.8 M18.15 20.9 Q18.15 20.65 18.55 20.75 L18.6 20.9 18.4 21.1 18.2 21.05 18.15 20.9 M16.95 21.25 L16.7 21.45 16.5 21.2 16.75 21.05 16.95 21.25" fill="#9aa9b1" fill-rule="evenodd" stroke="none"/>
      <path d="M21.5 20.7 L21.65 21.05 19.95 21.55 16.95 22.2 14.4 22.65 13.5 22.75 12.95 22.8 Q13.2 21.95 12.95 21.1 L17.9 20.3 18.75 20.45 19.7 20.65 19.75 20.8 19.9 20.85 20.1 20.7 21.5 20.7 M9.25 22.7 L9.5 21.8 9.7 21.2 12.15 21.15 12.35 22.8 11.85 22.85 9.25 22.7 M9.85 21.85 L9.9 22.0 10.15 22.0 10.25 21.85 10.2 21.65 Q9.85 21.65 9.85 21.85 M14.95 21.45 Q14.7 21.35 14.7 21.65 L14.95 21.9 15.0 21.9 15.2 21.75 15.2 21.7 14.95 21.45 M11.35 21.8 L11.35 21.9 11.55 22.05 11.8 21.85 11.6 21.6 Q11.35 21.55 11.35 21.8 M13.15 21.8 L13.15 21.9 13.35 22.05 13.4 22.1 13.55 22.05 13.65 21.85 13.4 21.55 Q13.15 21.55 13.15 21.8 M16.95 21.25 L16.75 21.05 16.5 21.2 16.7 21.45 16.95 21.25 M18.15 20.9 L18.2 21.05 18.4 21.1 18.6 20.9 18.55 20.75 Q18.15 20.65 18.15 20.9" fill="#ffffff" fill-rule="evenodd" stroke="none"/>
      <path d="M18.95 22.95 L18.95 23.0 18.9 23.2 18.85 23.35 18.7 23.6 18.75 23.5 Q18.6 24.0 16.9 23.2 15.0 22.4 13.95 22.45 14.1 21.9 14.75 21.25 L15.25 21.25 Q17.35 21.5 18.1 22.05 L18.85 22.85 18.95 22.95 M17.85 22.75 L17.8 22.75 17.85 22.95 18.1 22.95 18.15 22.9 18.15 22.65 17.85 22.7 17.85 22.75 M16.0 21.95 Q15.65 21.95 15.65 22.2 L15.7 22.35 16.0 22.3 16.0 21.95 M17.2 22.25 Q16.8 22.15 16.8 22.4 L16.85 22.55 17.15 22.55 17.2 22.5 17.2 22.25" fill="#ffffff" fill-rule="evenodd" stroke="none"/>
      <path d="M14.75 21.25 L14.8 21.15 Q13.65 20.9 16.05 21.15 17.9 21.55 18.45 22.0 18.95 22.45 18.95 22.95 L18.85 22.85 18.1 22.05 Q17.35 21.5 15.25 21.25 L14.75 21.25 M17.2 22.25 L17.2 22.5 17.15 22.55 16.85 22.55 16.8 22.4 Q16.8 22.15 17.2 22.25 M16.0 21.95 L16.0 22.3 15.7 22.35 15.65 22.2 Q15.65 21.95 16.0 21.95 M17.85 22.75 L17.85 22.7 18.15 22.65 18.15 22.9 18.1 22.95 17.85 22.95 17.8 22.75 17.85 22.75" fill="#9aa9b1" fill-rule="evenodd" stroke="none"/>
      <path d="M15.5 22.45 L15.5 22.2 15.4 21.95 15.35 21.9 15.1 21.15 15.0 21.0 14.55 20.6 14.4 20.6 13.6 20.55 13.45 20.55 13.3 20.55 13.3 20.6 13.15 20.6 13.1 21.2 13.3 22.15 13.7 22.9 13.5 22.9 13.3 22.6 13.3 22.55 13.25 22.5 13.2 22.35 13.05 21.9 12.95 21.25 13.0 20.65 13.0 20.7 13.0 20.6 13.0 20.5 13.2 20.3 13.3 20.3 13.85 20.3 14.35 20.35 Q14.6 20.4 15.0 20.6 15.6 21.2 15.6 21.8 L15.55 22.2 15.5 22.45 M12.75 20.5 Q12.6 21.1 12.7 21.6 L12.7 21.7 12.85 22.55 13.1 23.1 13.0 23.1 12.8 23.0 Q12.6 22.85 12.55 22.2 L12.5 21.3 12.5 21.15 12.5 21.05 Q12.5 20.5 12.7 20.5 L12.75 20.5 M13.5 23.45 L13.35 23.15 13.75 23.15 14.05 23.15 14.7 23.0 14.65 23.0 15.1 22.65 15.25 22.75 15.3 22.75 14.25 23.35 13.5 23.45 M14.15 21.1 L14.05 20.9 14.15 20.85 14.35 20.9 14.3 20.85 14.65 21.05 14.4 21.35 14.35 21.3 14.35 21.35 14.4 21.35 14.3 21.65 14.25 21.6 14.25 21.35 14.3 21.35 14.15 21.1 M13.2 21.35 L13.85 21.65 14.0 21.7 14.15 21.9 14.4 22.05 Q14.0 22.05 13.7 21.65 L13.8 22.1 13.6 22.2 13.55 22.2 13.25 21.8 13.2 21.35 M13.7 21.3 L13.35 20.9 13.75 20.9 13.75 21.3 13.7 21.3 M15.15 21.45 L15.15 21.85 14.9 21.85 15.0 21.9 14.9 22.05 14.65 22.05 14.65 21.9 14.9 21.85 14.65 21.85 14.6 21.8 14.85 21.2 15.0 21.4 15.15 21.45 M14.8 22.2 L15.15 22.15 Q15.05 22.7 14.55 22.7 L14.5 22.55 14.8 22.2 M14.1 22.35 L14.35 22.45 14.3 22.65 14.05 22.65 14.0 22.4 14.1 22.35 M13.6 22.2 L13.8 22.35 13.75 22.6 13.55 22.6 13.5 22.3 13.6 22.2" fill="#fff458" fill-rule="evenodd" stroke="none"/>
      <path d="M13.2 20.3 L13.0 20.5 13.0 20.6 13.0 20.7 13.0 20.65 12.95 21.25 13.05 21.9 13.2 22.35 13.25 22.5 13.3 22.55 13.3 22.6 13.5 22.9 13.7 22.9 13.3 22.15 13.1 21.2 13.15 20.6 13.3 20.6 13.3 20.55 13.45 20.55 13.6 20.55 14.4 20.6 14.55 20.6 15.0 21.0 15.1 21.15 15.35 21.9 15.4 21.95 15.5 22.2 15.5 22.45 15.25 22.75 15.1 22.65 14.65 23.0 14.7 23.0 14.05 23.15 13.75 23.15 13.35 23.15 13.5 23.45 13.35 23.45 12.8 23.15 12.8 23.0 13.0 23.1 13.1 23.1 12.85 22.55 12.7 21.7 12.7 21.6 Q12.6 21.1 12.75 20.5 L13.2 20.3 M13.7 21.3 L13.75 21.3 13.75 20.9 13.35 20.9 13.7 21.3 M13.2 21.35 L13.25 21.8 13.55 22.2 13.6 22.2 13.8 22.1 13.7 21.65 Q14.0 22.05 14.4 22.05 L14.15 21.9 14.0 21.7 13.85 21.65 13.2 21.35 M14.15 21.1 L14.3 21.35 14.25 21.35 14.25 21.6 14.3 21.65 14.4 21.35 14.35 21.35 14.35 21.3 14.4 21.35 14.65 21.05 14.3 20.85 14.35 20.9 14.15 20.85 14.05 20.9 14.15 21.1 M15.15 21.45 L15.0 21.4 14.85 21.2 14.6 21.8 14.65 21.85 14.9 21.85 14.65 21.9 14.65 22.05 14.9 22.05 15.0 21.9 14.9 21.85 15.15 21.85 15.15 21.45 M14.8 22.2 L14.5 22.55 14.55 22.7 Q15.05 22.7 15.15 22.15 L14.8 22.2 M13.6 22.2 L13.5 22.3 13.55 22.6 13.75 22.6 13.8 22.35 13.6 22.2 M14.1 22.35 L14.0 22.4 14.05 22.65 14.3 22.65 14.35 22.45 14.1 22.35" fill="#cb6f00" fill-rule="evenodd" stroke="none"/>
      <path d="M6.3 10.7 L6.25 10.65 6.3 10.7" fill="#213a00" fill-rule="evenodd" stroke="none"/>
      <path d="M6.25 10.65 L6.1 10.6 5.85 10.5 5.8 10.45 3.45 10.2 3.5 10.0 Q4.05 8.35 5.8 5.25 L6.65 3.8 Q6.25 5.0 6.35 6.3 6.5 8.25 7.45 10.2 8.4 12.25 9.75 14.15 L9.95 14.45 11.8 11.1 Q13.15 8.5 13.35 6.65 L13.45 3.6 13.9 4.3 17.05 9.6 15.1 9.85 14.45 10.15 14.35 10.15 14.4 10.25 Q14.8 11.95 15.65 13.4 L17.25 14.1 17.35 14.15 17.85 14.3 18.2 14.4 Q18.6 14.45 19.0 13.3 L19.55 14.5 20.0 15.05 Q21.25 16.4 21.35 17.0 L21.35 17.1 21.0 17.9 20.95 18.0 20.9 18.1 21.05 18.5 18.8 18.2 14.9 17.9 11.55 18.25 8.1 19.05 4.5 19.85 Q2.9 20.2 0.5 19.8 L0.55 19.75 0.3 19.45 -0.15 18.95 Q-0.75 18.35 -0.75 17.85 -0.75 16.85 -0.05 16.0 L1.65 13.9 1.8 13.7 1.75 13.8 Q2.1 14.75 2.4 14.9 L2.55 14.95 3.5 14.65 5.1 13.95 5.4 13.45 6.3 11.2 6.4 10.85 6.4 10.7 6.3 10.7 6.25 10.65" fill="#4b80a1" fill-rule="evenodd" stroke="none"/>
      <path d="M21.6 19.85 L21.7 20.1 21.7 20.35 21.3 20.4 20.9 20.4 20.0 20.35 19.7 20.3 18.4 20.15 15.25 19.8 12.45 20.15 11.95 20.25 11.6 20.3 10.85 20.5 9.55 20.85 8.75 21.05 8.7 21.05 6.55 21.6 5.3 21.8 4.9 21.85 4.4 21.95 4.1 21.95 4.0 21.95 3.3 22.0 2.3 22.05 2.25 22.05 1.7 22.05 1.0 22.0 0.7 21.9 -0.1 21.65 0.2 21.15 0.25 21.05 0.25 21.0 0.45 20.3 0.45 20.0 0.5 19.8 Q2.9 20.2 4.5 19.85 L8.1 19.05 11.55 18.25 14.9 17.9 18.8 18.2 21.05 18.5 21.15 18.75 21.55 19.7 21.6 19.85 M12.15 2.0 L13.45 3.6 13.35 6.65 Q13.15 8.5 11.8 11.1 L9.95 14.45 9.75 14.15 Q8.4 12.25 7.45 10.2 6.5 8.25 6.35 6.3 6.25 5.0 6.65 3.8 L7.55 2.5 7.95 2.15 7.8 4.65 Q7.8 6.5 8.15 7.85 L8.3 8.3 9.85 12.4 10.85 10.05 10.85 9.95 10.9 9.95 11.3 8.6 11.6 7.15 11.55 7.1 11.6 7.1 11.8 5.1 11.75 5.05 11.75 4.8 11.8 4.8 11.8 1.75 12.15 2.0 M14.4 10.25 L14.35 10.15 14.45 10.15 15.1 9.85 17.05 9.6 17.3 9.65 17.8 10.25 Q18.45 11.2 18.95 13.15 L19.0 13.25 19.0 13.3 Q18.6 14.45 18.2 14.4 L17.85 14.3 17.35 14.15 17.25 14.1 15.65 13.4 Q14.8 11.95 14.4 10.25 M3.45 10.2 L5.8 10.45 5.85 10.5 6.1 10.6 6.3 10.7 6.4 10.7 6.3 11.2 5.4 13.45 5.1 13.95 3.5 14.65 2.55 14.95 2.4 14.9 Q2.1 14.75 1.75 13.8 L1.8 13.7 Q2.25 12.0 2.8 11.0 L3.45 10.2 M0.55 19.9 L0.65 19.95 0.6 19.85 0.55 19.9" fill="#259f98" fill-rule="evenodd" stroke="none"/>
      <path d="M16.75 9.65 L16.65 9.75 17.1 10.25 17.15 10.3 16.45 10.4 16.15 9.85 16.05 9.85 16.05 10.15 16.25 10.4 15.65 10.55 15.25 9.95 16.75 9.65 M14.7 10.2 L15.0 10.05 15.3 10.65 15.1 10.7 15.0 10.75 14.75 10.3 14.7 10.2 M17.3 9.65 L17.8 10.25 17.45 10.25 Q17.2 9.85 16.8 9.65 L17.3 9.65 M5.85 11.35 L5.7 11.3 5.9 10.6 6.0 10.65 6.0 10.7 5.85 11.35 M4.25 10.8 L4.4 10.35 4.3 10.25 4.05 10.6 3.85 11.1 3.45 11.05 3.8 10.3 3.75 10.2 Q3.5 10.25 3.3 10.6 3.15 10.85 3.15 11.05 L2.8 11.0 3.45 10.2 Q4.65 10.1 5.7 10.55 L5.55 10.85 5.45 11.25 4.9 11.2 5.0 10.8 5.2 10.45 5.1 10.35 4.8 10.65 4.7 11.15 4.1 11.1 4.25 10.8" fill="#ffffff" fill-opacity="0.49803922" fill-rule="evenodd" stroke="none"/>
      <path d="M20.95 18.0 L19.35 17.5 16.15 17.0 14.8 16.95 17.85 16.6 21.35 17.0 21.35 17.1 21.0 17.9 20.95 18.0 M21.15 18.75 L20.95 18.75 21.0 18.8 Q21.3 19.4 20.95 19.55 L20.9 19.6 Q20.5 19.45 20.5 18.7 L20.0 18.6 19.95 18.65 Q20.4 19.3 19.9 19.5 L19.65 19.45 Q19.5 18.65 19.1 18.5 18.7 18.45 18.85 18.75 19.15 19.5 18.8 19.5 18.45 19.5 18.4 19.35 18.3 18.6 17.85 18.35 17.7 18.2 17.9 18.9 18.1 19.55 17.5 19.3 L17.6 19.25 16.95 18.25 16.65 18.2 Q16.9 18.9 16.75 19.05 L16.35 19.0 16.0 18.5 15.9 18.2 Q15.25 18.1 15.5 18.8 L15.45 18.9 14.85 19.0 14.85 18.9 Q14.9 18.2 14.3 18.2 L14.3 18.35 Q14.55 19.25 13.75 19.15 13.6 19.2 13.6 18.95 13.55 18.2 13.15 18.25 L13.05 18.25 Q12.75 18.65 12.9 19.2 L12.35 19.35 12.15 18.45 11.3 18.7 11.3 19.65 11.25 19.7 10.8 19.95 10.75 19.9 Q10.35 19.75 10.4 19.0 L9.6 19.05 9.7 19.5 9.7 20.05 9.35 20.1 8.7 20.3 8.65 20.35 8.55 19.35 7.65 19.6 7.7 20.45 7.7 20.55 7.2 20.85 Q6.95 20.95 6.95 20.6 7.0 19.7 6.75 19.75 L6.7 19.75 Q6.1 19.95 6.2 20.8 L6.2 20.85 5.45 21.05 5.4 21.0 Q5.2 20.7 5.25 20.2 L4.55 20.25 4.25 21.25 4.15 21.25 Q3.45 21.3 3.75 20.5 L3.75 20.45 2.85 20.5 2.85 20.6 Q3.05 21.35 2.5 21.4 L2.45 21.4 Q2.05 21.2 2.25 20.35 L1.3 20.45 1.3 20.55 Q1.45 21.25 1.05 21.35 0.7 21.4 0.85 20.85 1.05 20.15 0.45 20.3 L0.45 20.0 0.5 19.8 Q2.9 20.2 4.5 19.85 L8.1 19.05 11.55 18.25 14.9 17.9 18.8 18.2 21.05 18.5 21.15 18.75 M12.2 2.5 L13.25 3.7 13.2 3.85 12.25 3.0 12.3 3.5 12.5 3.95 13.3 4.75 13.15 4.8 12.45 4.35 12.3 4.2 12.3 4.85 13.3 5.75 13.25 5.9 12.25 5.45 12.2 6.1 12.45 6.25 13.25 6.85 13.05 7.0 12.15 6.5 12.05 7.15 12.35 7.3 12.95 7.75 12.75 7.9 12.0 7.6 11.95 7.6 11.8 8.25 12.0 8.35 12.75 8.9 12.7 9.0 11.75 8.55 11.55 9.1 11.9 9.25 12.4 9.65 12.35 9.8 11.5 9.3 11.25 10.0 11.9 10.65 11.6 10.8 11.15 10.3 10.8 11.2 11.2 11.85 11.15 12.0 11.05 12.05 10.65 11.45 10.4 12.1 10.5 12.4 Q10.75 13.0 10.5 13.15 L10.35 13.2 10.2 12.7 Q9.95 13.2 9.75 12.7 L9.65 13.4 9.5 13.45 9.35 13.35 9.35 13.25 9.5 12.65 9.3 12.2 9.05 12.55 8.9 12.5 9.15 11.85 8.9 11.15 8.5 11.85 8.35 11.8 8.55 11.05 8.75 10.7 8.5 10.1 8.15 10.7 7.95 10.65 Q8.1 9.9 8.35 9.6 L8.3 9.5 8.05 8.85 7.65 9.6 7.45 9.55 7.95 8.45 7.75 7.8 7.25 8.6 7.1 8.6 7.05 8.45 7.45 7.6 7.65 7.35 7.45 6.55 6.9 7.4 6.8 7.2 Q6.8 6.95 7.15 6.4 L7.4 6.05 7.35 5.45 7.35 5.3 6.75 6.1 6.6 5.9 7.0 5.2 7.3 4.85 7.3 4.15 6.65 4.85 6.6 4.65 7.15 3.9 7.35 3.65 7.55 2.5 7.95 2.15 7.8 4.65 Q7.8 6.5 8.15 7.85 L8.3 8.3 9.85 12.4 10.85 10.05 10.85 9.95 10.9 9.95 11.3 8.6 11.6 7.15 11.55 7.1 11.6 7.1 11.8 5.1 11.75 5.05 11.75 4.8 11.8 4.8 11.8 1.75 12.15 2.0 12.2 2.5 M14.3 11.05 Q13.8 9.65 14.4 10.25 14.8 11.95 15.65 13.4 L17.25 14.1 17.35 14.15 17.85 14.3 18.2 14.4 18.1 14.55 18.05 14.6 Q16.5 14.35 15.35 13.6 L14.3 11.05 M12.15 11.8 L12.35 11.3 12.25 13.0 Q11.95 15.0 10.4 15.2 11.05 13.4 12.15 11.8 M6.3 12.3 Q5.65 14.15 4.8 14.65 L2.55 15.25 2.4 14.9 2.55 14.95 3.5 14.65 5.1 13.95 5.4 13.45 6.3 11.2 6.4 10.85 Q6.9 10.4 6.3 12.3 M9.2 14.95 L9.2 14.85 9.9 14.65 10.55 14.2 10.6 14.25 10.3 14.95 Q9.65 15.45 9.2 14.95 M2.2 19.4 Q1.3 19.45 0.5 19.0 L0.4 18.95 6.15 18.8 2.0 19.45 2.2 19.4 M0.55 19.9 L0.65 19.95 0.6 19.85 0.55 19.9 M3.8 18.4 L8.8 18.25 6.8 18.65 5.0 18.7 Q3.25 18.7 3.8 18.4 M10.35 17.9 Q11.95 16.05 14.05 16.9 L14.25 16.95 Q14.65 16.9 14.0 17.05 L12.8 17.35 11.75 17.7 10.45 17.85 10.35 17.9" fill="#000000" fill-opacity="0.29803923" fill-rule="evenodd" stroke="none"/>
      <path d="M11.5 3.3 L11.8 2.35 11.8 1.35 12.8 2.55 13.35 2.9 Q13.6 3.05 13.65 3.85 L13.7 4.25 13.45 3.9 13.4 3.85 Q12.5 3.3 11.5 3.3 M13.7 6.4 L13.65 7.4 11.3 4.95 10.0 9.15 9.95 7.45 9.5 5.8 9.0 4.5 8.85 4.9 8.6 5.45 8.1 6.15 7.0 7.35 6.65 5.85 Q7.45 5.85 8.05 4.7 L8.95 3.55 Q9.25 4.0 9.7 4.1 L9.9 5.55 Q10.05 7.45 10.3 6.55 L10.55 5.25 10.7 4.2 11.05 3.9 Q11.8 5.2 13.2 6.05 L13.7 6.4 M6.75 4.0 L6.85 2.9 7.05 2.85 Q8.1 2.4 8.55 1.55 L8.5 2.05 Q8.45 2.35 8.75 3.35 8.6 3.05 8.05 3.05 7.5 3.05 6.75 4.0" fill="#000000" fill-rule="evenodd" stroke="none"/>
      <path d="M13.7 4.25 L13.7 6.4 13.2 6.05 Q11.8 5.2 11.05 3.9 L11.5 3.3 Q12.5 3.3 13.4 3.85 L13.45 3.9 13.7 4.25 M6.65 5.85 L6.6 5.5 Q6.5 4.75 6.75 4.0 7.5 3.05 8.05 3.05 8.6 3.05 8.75 3.35 L8.95 3.55 8.05 4.7 Q7.45 5.85 6.65 5.85" fill="#191919" fill-rule="evenodd" stroke="none"/>
    </g>
  </defs>
</svg>
