<svg xmlns="http://www.w3.org/2000/svg" xmlns:ffdec="https://www.free-decompiler.com/flash" xmlns:xlink="http://www.w3.org/1999/xlink" ffdec:objectType="frame" width="25" height="28.8"><use ffdec:characterId="1" xlink:href="#a" width="25" height="28.8"/><defs><g id="a" fill-rule="evenodd"><path fill="#aa132d" d="M12.2 6.5h-.05v-.05zM9.65 2.3l-.05.05V2.3z"/><path fill="#545454" d="M12.05 4.9h.05l.05.1zm1.15 0 .1-.1-.1.15z"/><path fill="#d3d3d3" d="m14.55.2.1-.1.1.05-.05.15zm1.35 1.75-.05.1h-.05L15.7 2l.1-.1q.1-.1.1.05m.05.3V2.2l.1.1.05.1H16l-.1-.05zm-.4-.6.1-.15.1.1-.05.1zm-.15-.5.1.05-.05.15-.1-.1q-.1-.1.05-.1m-.2-.2-.1-.1.05-.1.15.05zM15 .6l-.15-.05.1-.15.1.1zm-4.9.15.1.1-.15.1L10 .8zm-.35.45.15-.05.05.1-.1.1zm-.1.3.1.15-.15.05-.05-.1zm-.25.45q0-.15.1-.05l.05.1-.1.05zm-.2.35.15-.1.05.15-.1.05zM10.75.2l-.15.1-.05-.15.1-.05zm-.35.35-.1.05-.05-.1.1-.1z"/><path fill="#3a3a3a" d="m14.55.2.15.1.05-.15-.1-.05zm-.2.1.2-.25q.25-.1.25.15l.05.2V.35q.25 0 .3.15l-.05.2h.15l.1.15-.05.25q.25-.05.3.15l-.05.2.25.15v.2l.2.2v.15l.15.15v.15l-.2.15q-.25.15-.25-.15V2.3h-.05l-.1-.15v-.2l-.2-.2.05-.2-.25-.2V1.2l.05-.05-.3-.2.05-.1L14.8.8l-.1-.15q-.05-.1.05-.15h-.1zm.65.3.05-.1-.1-.1-.1.15zm.2.35.1-.15-.15-.05-.05.1zm.2.2q-.15 0-.05.1l.1.1.05-.15zm.15.5.15.05.05-.1-.1-.1zm.4.6-.05.1.1.05h.1l-.05-.1-.1-.1zm-.05-.3q0-.15-.1-.05l-.1.1.1.05h.05zm-6.3.4v.1l-.1.15h-.2l-.15-.15V2.3l.2-.1L9.3 2l.2-.2-.05-.2q.1-.15.25-.15v-.2q.1-.2.3-.15L9.95.85q0-.25.25-.15l-.05-.2q.1-.15.3-.15l.05.05-.05-.2q.1-.25.3-.15.3 0 .15.25l-.25.2h-.05v.15l-.1.15h-.1v.15l-.25.2v.2l-.25.2v.2l-.1.15-.05.05v.25l-.05.1h-.1zm.8-1.8L10.35.4l-.1.1.05.1zm.35-.35-.1-.1-.1.05.05.15zM9.2 2.3l.1.1.1-.05-.05-.15zm.2-.35.05.1.1-.05-.05-.1q-.1-.1-.1.05m.25-.45-.1.1.05.1.15-.05zm.1-.3.1.15.1-.1-.05-.1zm.35-.45L10 .8l.05.15.15-.1z"/><path fill="#fff" d="M13.3 4.8q.4-.4 1.1-.65l1.4-.25q.35.65.1 1.8l.2.6.05.3-.1.45-.7.15-.7-.05q-.9-.15-1.45-.65l-.05.05h-.5l-.45-.05-.05-.05V6.4q-.55.55-1.45.8l-.65.1-.1.1h.1q1.55.05 2.1-.85l-.45 2.8-.9-1.2H9.25l.8-.85-.75-.15-.05-.35-.05-.2v-.2q0-.45.2-.6-.35-1.1.05-1.8l1.35.2 1.25.7.1.1.05-.05q.15-.3.45-.1l.55.05v.05zm.1.6-.3.15h-.05l-.05.4.05.05.9.25.15-.05v-.05l.05-.1-.4-.2-.35-.1h-.1l-.15-.05h.25l.7-.2v-.05h.05v-.1q.1-.25-.35-.1zm-.2 1.35q1.45.85 2.15.6l.05-.05.7.7-.2.05-1.4.05-.85 1.25-.3-1.55zm-2.1-1.4q.15.3.8.35h.2q-.8.15-.9.3v.15l.8-.05.05-.05.25-.15-.1-.4-.15-.1-.1-.05-.5-.15q-.45-.05-.35.15"/><path fill="#9c7faf" d="m13.4 5.4.4-.15q.45-.15.35.1v.1h-.05v.05l-.7.2h-.25l.15.05h.1l.35.1.4.2-.05.1v.05l-.15.05-.9-.25-.05-.05.05-.4h.05zm-3.35 2h-.1l.1-.1.65-.1q.9-.25 1.45-.8v.15q-.55.9-2.1.85m1.05-2.05q-.1-.2.35-.15l.5.15.1.05.15.1.1.4-.25.15-.05.05-.8.05V6q.1-.15.9-.3h-.2q-.65-.05-.8-.35m3.55 1.8.7.05.05.1-.05.05q-.7.25-2.15-.6h-.05v-.2l.05-.05q.55.5 1.45.65"/><path fill="#e989e8" d="m20.95 22.95.35.65q1 1.3 2.45 1.35l.55.05q1.2 1.65.4 3.25l-1.9-1.85-.9.4-.5.3q-1.25 1.25-2.25 1.2l-.1-.05-2.1-1.15-.35-.2-1.3.7-.2.15-1.25.65-1.85.4-1.2-.2-1.2-.85h.05L8.1 26.5l-.3-.25-.5.4-1.5.8-.7.15q-.55-.05-1.25-.6-.75-.55-.95-1.15l-.3-.35-.25-.25-.65.6L.45 27.1l-.25-.6v-.45.55q-.35-1.05.25-2l.9-.05.65-.05 1.55-.25 1.75-.4.15.2q.6 1.1 1.15 1.4l.5.05h.1l1.05-.6-.65.5 2.3-.4.85-.2 1.85-.85q.8 1.2 1.7 1.1h.25l.85-1.1.05-.05.25-.45q.45-.65 1-.85l.8 1q1.5 1.65 2.3 1.6l.2-.05.35-.35.4-1.5z"/><path fill="#7943a8" d="m13.1 2.3.2.1q.4-.4.75-.35l.2.2.2.15.2-.25q.1-.15.3-.1l.25.2.1.15.25-.25.1.15-.05.1-.15.4.65.05V2.8l.05-.35V2.3L16 2.15V2.1l.3.3.25-.05.4.05q-.3.25-.25.5h.05l1 .85.75.8V6.1q2.3 4.25 3.65 10.25 1.35 6.35 2.45 8.6l-.3.05-.55-.05q-1.45-.05-2.45-1.35l-.35-.65-.2.35-1.9-6.3q-1.75-5.5-2.2-5.95 2.05 10 2.25 13.25.55.85.9.9-.8.05-2.3-1.6l-.8-1q-.55.2-1 .85l-.25.45q.1-1.05-.85-5.5l-1.9-7.35-.05 6-.25 6.55.2.35-1.85.85-.85.2-2.3.4.65-.5.05-.05.95-1 .15-.35.55-6.8.5-5.65q-.6.85-2.85 6.15-2.2 5.25-2.45 6.3l.05.1.1.25-1.75.4L2 24.5l-.6.05v-.05l-1.3.05H0l.1-.05q.65-.4 1.3-1.8 1.1-2.35 1.9-6.8.25-1.7 1.75-5.45 1.3-3.4 1.9-4.35-.15-1.35 0-1.55l.75-.85 1-.8-.35-.45q.45-.25.8 0l.15.15h.2l.1.2.5-.05-.05-.3-.2-.2-.15.05.05-.1.45.2.6-.2.5.2.15-.2.4-.1.25.2.2.1q.35-.35.55-.3zM1.4 24.5l.1-.05h.2l.4-.1.85-.4L4.6 19.4l2.25-8q-1 .95-3.15 6.9-1.3 3.65-2.3 5.2l-.95 1zm9.45-22.05q-.05-.15-.2-.15l-.15.1.05.35.4-.05zm1-.2q-.2-.15-.4.2l.1.25h.65zM9.1 2.6l-.4-.2q-.2-.05.2.5l.45-.05zm4 .15-.15-.35-.45-.1v.4h.1zm3.55.15-.05-.05q.3-.6 0-.45l-.25.45zm-.75 2.8q.25-1.15-.1-1.8l-1.4.25q-.7.25-1.1.65l-.1.1-.55-.05q-.3-.2-.45.1l-.05.05-.05-.1h-.05l-1.25-.7L9.45 4q-.4.7-.05 1.8-.2.15-.2.6v.2l-2-.3-.3.9.3.05.6-.25 1.1-.2h.35l.05.35.75.15-.8.85h.2l-.2.2h1.5l1.05 1.3.5-2.75h.7l.6 2.65 1.05-1.25 1.4-.1-.15-.15.2-.05-.7-.7.75-.05.1-.35q0-.25.3-.15L17.9 7h.9l-.45-.7-2.2.3-.05-.3zm-.8-3.1q.1-.25-.3-.4l-.25.55.5.05zm-1.2-.4q-.4-.05-.3.25l-.05.3h.6v-.1q-.05-.4-.25-.45m4.8 9.85q.4.5 1.6 5.15l1.5 5.55.6 1.35q.25.6.75.75l.45.1h.9q-.7-.05-2.45-5l-1.1-3.55q-.95-2.7-2.25-4.35"/><path fill="#62098e" d="M13.9 2.2q.2.05.25.45v.1h-.6l.05-.3q-.1-.3.3-.25m1.2.4-.05.2-.5-.05.25-.55q.4.15.3.4m.6-.15q0 .3.25.15l.2-.15-.05.35v.05l-.65-.05.15-.4.05-.1h.05zm.65.4.25-.45q.3-.15 0 .45l.05.05zm-.3 4.2.1-.45 2.2-.3.45.7h-.9l-1.35-.25q-.3-.1-.3.15l-.1.35-.75.05-.05-.1zm-2.9-.5v.2h.05l.15 1.05.3 1.55.85-1.25 1.4-.05.15.15-1.4.1-1.05 1.25L13 6.9h-.7l-.5 2.75-1.05-1.3h-1.5l.2-.2h1.35l.9 1.2.45-2.8V6.5h.05l.45.05zm-.05-3.8-.5-.05h-.1v-.4l.45.1zm-3.5-.4.05-.05h.05l.15-.05.2.2.05.3-.5.05-.1-.2.1-.15zm-.5.25.25.25-.45.05q-.4-.55-.2-.5zm1.75-.15.1.25-.4.05-.05-.35.15-.1q.15 0 .2.15m1-.2.35.45h-.65l-.1-.25q.2-.35.4-.2M6.9 7.2l.3-.9 2 .3.05.2H8.9L7.8 7l-.6.25zm5.8 3.85 1.9 7.35q.95 4.45.85 5.5l-.05.05-.85 1.1h-.25q-.9.1-1.7-1.1l-.2-.35.25-6.55zM7.6 17.2q2.25-5.3 2.85-6.15l-.5 5.65-.55 6.8-.15.35-.95 1-.2.3q-.15.3-.9.35h-.1l-.5-.05q-.55-.3-1.15-1.4l-.15-.2-.1-.25-.05-.1q.25-1.05 2.45-6.3m-.75-5.8-2.25 8-1.65 4.55-.9.55H.45q1.25-.6 3.25-6.2 2.15-5.95 3.15-6.9m11.85.65q1.3 1.65 2.25 4.35l1.1 3.55q1.75 4.95 2.45 5h-.9l-.45-.1q-.5-.15-.75-.75l-.6-1.35-1.5-5.55q-1.2-4.65-1.6-5.15m-2.05-1q.45.45 2.2 5.95l1.9 6.3-.4 1.5-.35.35-.2.05q-.35-.05-.9-.9-.2-3.25-2.25-13.25"/><path fill-opacity=".4" d="m19.05 28.25-2.1-1.15-.35-.2q.95-.5 1.3-.45l.55.4q0 .6.3 1.05zm-12.6-2.6q.35-.2 1.35.6l-.5.4-1.5.8.25-.25.2-.75.15-.75zm18.15 1.5.1 1.1-1.9-1.85.95-.05q.65.15.85.8M1.35 24.9l.1-.05q.45-.05.9.4l-.65.6L.45 27.1l-.25-.6v-.45l.45-.7-.1.1z"/><path fill-opacity=".2" d="M18.45 26.85q-.05-.65-1.25-3.4l-.15-.45.45.6q1.5 1.65 2.3 1.6h.2q.85 1.6 1.4 1.9-1.25 1.25-2.25 1.2l-.1-.05-.3-.35q-.3-.45-.3-1.05m-3.95-1.8q.3 2 .65 2.6l-.05.1-1.25.65-1.85.4-1.2-.2-1.2-.85h.05q.55-.5 1.1-2.95l1.85-.85q.8 1.2 1.7 1.1zm-8.7 2.4-.7.15q-.55-.05-1.25-.6-.75-.55-.95-1.15l2.55-1.8q.6 1.1 1.15 1.4l-.15.2-.05.05-.15.75-.2.75z"/><path fill="#1c002a" fill-opacity=".749" d="M19.8 25.2q-.8.05-2.3-1.6l-.8-1 .5-.1q.55 0 1.6 1.65l.1.15q.55.85.9.9m2.45-1.45.15.35q.25.6.75.75l.45.1h.15q-1.45-.05-2.45-1.35l-.35-.65q.25-.4.65-.35zm-9.65.2-1.85.85-.85.2-2.3.4.65-.5.05-.05.95-1 .05-.1q.95-1.2 1.8-1.2l1.3 1.05zm-7.4-.35.1.25-1.75.4L2 24.5l-.6.05h-.05l-.9.05-.35-.05 1.3-.05q1.1-.15 1.85-.7 1.05-.75 1.4-.65z"/></g></defs></svg>