<?xml version="1.0" encoding="UTF-8" standalone="no"?>
<svg xmlns:ffdec="https://www.free-decompiler.com/flash" xmlns:xlink="http://www.w3.org/1999/xlink" ffdec:objectType="frame" height="10.9px" width="10.4px" xmlns="http://www.w3.org/2000/svg">
  <g transform="matrix(1.0, 0.0, 0.0, 1.0, -0.2, -5.6)">
    <use ffdec:characterId="1" height="10.9" transform="matrix(1.0, 0.0, 0.0, 1.0, 0.2, 5.6)" width="10.4" xlink:href="#shape0"/>
  </g>
  <defs>
    <g id="shape0" transform="matrix(1.0, 0.0, 0.0, 1.0, -0.2, -5.6)">
      <path d="M0.5 6.65 L0.2 5.6 2.5 6.65 5.25 7.35 5.9 7.15 Q6.3 7.75 6.3 8.25 L6.2 8.15 5.55 8.4 2.8 7.7 0.5 6.65" fill="url(#gradient0)" fill-rule="evenodd" stroke="none"/>
      <path d="M3.2 12.4 L3.15 12.4 2.05 12.25 2.0 11.45 2.05 11.5 2.6 11.5 3.7 11.4 4.7 11.05 Q5.85 10.4 6.5 8.4 L6.65 8.55 6.95 9.05 6.9 9.45 Q6.4 11.3 5.25 11.95 L4.75 12.2 3.2 12.4" fill="url(#gradient1)" fill-rule="evenodd" stroke="none"/>
      <path d="M3.2 12.4 L4.75 12.2 6.15 12.7 8.0 13.0 8.9 12.85 Q9.35 13.05 9.35 13.6 L8.75 13.95 8.0 14.05 Q6.3 14.05 3.2 12.4 M3.7 11.4 L2.6 11.5 2.05 11.5 2.0 11.45 1.75 11.25 1.45 11.05 1.45 10.35 Q1.7 10.8 3.7 11.4" fill="url(#gradient2)" fill-rule="evenodd" stroke="none"/>
      <path d="M2.2 11.35 L2.55 11.1 2.9 11.0 3.05 11.05 3.75 11.7 4.55 12.55 3.5 13.05 2.3 13.5 1.9 13.45 1.65 13.35 Q1.25 13.35 1.25 13.15 1.25 12.4 1.65 12.25 L3.45 13.0 2.2 11.35 M3.85 10.8 L3.75 10.55 4.3 10.2 4.65 10.2 4.7 10.55 4.85 10.65 5.55 12.1 5.15 12.25 4.55 12.55 3.9 10.8 3.85 10.8 M5.65 10.45 L5.65 10.4 5.45 10.05 6.05 9.9 6.35 9.9 6.45 10.15 6.6 11.15 6.9 11.75 5.95 12.0 5.65 10.45 M6.95 10.15 Q6.9 9.85 7.0 9.8 L7.35 9.8 8.0 9.9 7.9 10.3 7.8 11.65 7.7 11.65 7.4 10.15 7.3 11.7 7.05 11.75 6.95 10.15 M7.65 13.05 L7.95 13.0 8.4 14.0 8.4 14.05 8.5 14.75 8.4 14.75 8.15 14.65 7.5 14.7 7.4 14.35 6.7 13.2 7.25 13.1 7.75 14.05 7.65 13.05 M8.6 12.95 L9.05 12.9 Q10.15 13.55 10.6 14.4 L10.25 14.45 9.6 14.5 9.3 14.45 9.45 13.95 9.4 13.95 8.6 12.95 M6.6 14.65 L6.6 14.7 6.85 15.15 6.7 15.35 6.25 15.5 Q5.95 15.5 5.95 15.2 L6.05 14.95 6.0 14.95 5.3 13.65 6.1 13.4 6.25 13.7 6.6 14.65 M4.7 15.55 L4.85 15.75 4.7 16.05 4.3 16.2 4.1 16.0 3.8 14.8 3.6 14.3 4.55 13.95 4.75 15.3 4.7 15.55 M3.25 16.1 L3.25 16.3 3.4 16.4 3.35 16.45 3.1 16.5 1.8 16.25 2.2 15.4 2.65 14.65 2.75 14.6 2.25 15.95 2.25 16.15 3.1 14.6 3.25 16.1" fill="#cd92a6" fill-rule="evenodd" stroke="none"/>
      <path d="M1.65 12.25 L2.0 12.15 Q2.35 12.15 2.35 11.75 L2.2 11.4 2.2 11.35 3.45 13.0 1.65 12.25 M3.05 11.05 L3.5 11.2 3.75 11.1 3.9 10.9 3.85 10.8 3.9 10.8 4.55 12.55 3.75 11.7 3.05 11.05 M4.85 10.65 L4.95 10.65 5.65 10.45 5.95 12.0 5.55 12.1 4.85 10.65 M6.45 10.15 L6.95 10.15 7.05 11.75 6.9 11.75 6.6 11.15 6.45 10.15 M7.9 10.3 L8.3 10.35 8.65 10.5 9.1 10.55 Q8.95 11.0 7.95 11.6 L7.8 11.65 7.9 10.3 M7.7 11.65 L7.3 11.7 7.4 10.15 7.7 11.65 M7.95 13.0 L8.6 12.95 9.4 13.95 8.9 13.85 8.4 14.0 7.95 13.0 M7.4 14.35 L7.3 14.3 Q6.6 14.3 6.6 14.65 L6.25 13.7 6.1 13.4 6.35 13.3 6.7 13.2 7.4 14.35 M6.0 14.95 L5.3 15.15 Q4.75 15.4 4.7 15.55 L4.75 15.3 4.55 13.95 5.3 13.65 6.0 14.95 M4.1 16.0 L3.25 16.0 3.25 16.1 3.1 14.6 2.25 16.15 2.25 15.95 2.75 14.6 3.1 14.5 3.1 14.6 3.2 14.45 3.6 14.3 3.8 14.8 4.1 16.0 M7.25 13.1 L7.65 13.05 7.75 14.05 7.25 13.1" fill="#eebdc0" fill-rule="evenodd" stroke="none"/>
      <path d="M8.35 11.5 L9.25 13.2 7.2 13.3 Q4.7 13.7 2.5 15.25 L2.0 13.35 3.8 12.2 Q6.05 11.15 8.35 11.5" fill="url(#gradient3)" fill-rule="evenodd" stroke="none"/>
    </g>
    <linearGradient gradientTransform="matrix(0.0037, 0.0, 0.0, 0.0017, 3.25, 7.0)" gradientUnits="userSpaceOnUse" id="gradient0" spreadMethod="pad" x1="-819.2" x2="819.2">
      <stop offset="0.0" stop-color="#cb776d"/>
      <stop offset="1.0" stop-color="#9d486f"/>
    </linearGradient>
    <linearGradient gradientTransform="matrix(0.003, 0.0, 0.0, 0.0024, 4.45, 10.4)" gradientUnits="userSpaceOnUse" id="gradient1" spreadMethod="pad" x1="-819.2" x2="819.2">
      <stop offset="0.0" stop-color="#cb776d"/>
      <stop offset="1.0" stop-color="#9d486f"/>
    </linearGradient>
    <linearGradient gradientTransform="matrix(0.0038, 0.0, 0.0, 0.0011, 6.25, 13.1)" gradientUnits="userSpaceOnUse" id="gradient2" spreadMethod="pad" x1="-819.2" x2="819.2">
      <stop offset="0.0" stop-color="#cb776d"/>
      <stop offset="1.0" stop-color="#9d486f"/>
    </linearGradient>
    <linearGradient gradientTransform="matrix(0.0041, -0.0016, 9.0E-4, 0.0022, 5.6, 13.3)" gradientUnits="userSpaceOnUse" id="gradient3" spreadMethod="pad" x1="-819.2" x2="819.2">
      <stop offset="0.0" stop-color="#c8476d"/>
      <stop offset="0.49411764705882355" stop-color="#f6a7a2"/>
      <stop offset="1.0" stop-color="#c8476d"/>
    </linearGradient>
  </defs>
</svg>
