<svg xmlns="http://www.w3.org/2000/svg" xmlns:ffdec="https://www.free-decompiler.com/flash" xmlns:xlink="http://www.w3.org/1999/xlink" ffdec:objectType="frame" width="10" height="11.95"><use ffdec:characterId="5" xlink:href="#a" width="10" height="11.95"/><defs><linearGradient id="b" x1="-819.2" x2="819.2" gradientTransform="matrix(.0034 -.0012 .001 .003 2.85 7.85)" gradientUnits="userSpaceOnUse" spreadMethod="pad"><stop offset="0" stop-color="#694733"/><stop offset=".216" stop-color="#a9856f"/><stop offset=".51" stop-color="#694733"/><stop offset=".816" stop-color="#a9856f"/><stop offset="1" stop-color="#694733"/></linearGradient><linearGradient id="c" x1="-819.2" x2="819.2" gradientTransform="matrix(.0049 -.002 .0013 .003 6.2 14.5)" gradientUnits="userSpaceOnUse" spreadMethod="pad"><stop offset="0" stop-color="#694733"/><stop offset=".216" stop-color="#a9856f"/><stop offset=".51" stop-color="#694733"/><stop offset=".816" stop-color="#a9856f"/><stop offset="1" stop-color="#694733"/></linearGradient><linearGradient id="e" x1="-819.2" x2="819.2" gradientTransform="matrix(.0036 -.0012 .001 .003 2.9 8.25)" gradientUnits="userSpaceOnUse" spreadMethod="pad"><stop offset="0" stop-color="#a6836d"/><stop offset=".259" stop-color="#f3d3a2"/><stop offset=".396" stop-color="#b28e78"/><stop offset=".541" stop-color="#a6836d"/><stop offset=".557" stop-color="#e9dece"/><stop offset=".667" stop-color="#f3d3a2"/><stop offset=".753" stop-color="#a6836d"/><stop offset=".859" stop-color="#f3d3a2"/><stop offset="1" stop-color="#b28e78"/></linearGradient><linearGradient id="f" x1="-819.2" x2="819.2" gradientTransform="matrix(.0048 -.002 .0013 .003 6.1 14.1)" gradientUnits="userSpaceOnUse" spreadMethod="pad"><stop offset="0" stop-color="#a6836d"/><stop offset=".259" stop-color="#f3d3a2"/><stop offset=".396" stop-color="#b28e78"/><stop offset=".541" stop-color="#a6836d"/><stop offset=".557" stop-color="#e9dece"/><stop offset=".667" stop-color="#f3d3a2"/><stop offset=".753" stop-color="#a6836d"/><stop offset=".859" stop-color="#f3d3a2"/><stop offset="1" stop-color="#b28e78"/></linearGradient><radialGradient id="d" cx="0" cy="0" r="819.2" gradientTransform="matrix(.0044 -.0014 .0022 .0067 4.8 11.3)" gradientUnits="userSpaceOnUse" spreadMethod="pad"><stop offset="0" stop-color="#fff"/><stop offset=".714" stop-color="#f1dbff"/></radialGradient><g id="a" fill-rule="evenodd"><path fill="url(#b)" d="m5 6.05.05.05Q4 6.85 3.6 8.05q-.2.65-.3 2.45Q2.65 9.35.8 8.25H.75L.7 7l1.15.8q.65.55.95 1.25 0-3.25 2-3.8z" transform="translate(-.6 -5.25)"/><path fill="url(#c)" d="m6.35 14.95-2.1-1.35q-.2 1.3-.9 2.3-.65.95-1.5 1.3l.15-.65v-.8.15q.9-.3 1.4-1.8.35-1.15.3-2.25.65 1.3 2.85 2.15 2.1.8 3.2.55l.85.8-1.25.3q-1.4 0-3-.7" transform="translate(-.6 -5.25)"/><path fill="url(#d)" d="m3.35 10.9.35-2.45q.4-1.2 1.55-1.95l2.7 4.2 1.65 3.45q-1.1.25-3.15-.55-2.15-.85-2.8-2.15.05 1.1-.3 2.25Q2.9 15.2 2 15.5v-.15l-.5-2.85Q.75 9.6.7 8.65q1.95 1.1 2.65 2.25" transform="translate(-.6 -5.25)"/><path fill="url(#e)" d="m4.1 7.7.25.6-.3.15-.3-.1-.05.1-.05.3.3.4q0 .4-.3.4H3.5l-.15 1.35-.45-.6-.3.05q-.35 0-.35-.6V9.7l-.2-.15-.3.1-.3-.1-.05-.45-.1-.1v.15l-.3.1L.65 9 .6 7.4l1.2.8.95 1.05.1.05q.05-3.15 2.1-3.65l.25.8.05.05-.4.3.2.35-.35.35-.35-.2z" transform="translate(-.6 -5.25)"/><path fill="url(#f)" d="M4.4 12.35q.15-.25.35-.25.45 0 .45.3l-.2.35-.05.1.35.2q.05-.35.35-.45.4-.15.4.35l-.1.45.3.1q.05-.45.35-.45.45 0 .45.3l-.15.4.45.15q.1-.45.65-.4v.6l.5.1v-.1q0-.45.35-.35l.3.45.45-.05.8.8-1.2.3q-1.4 0-2.95-.7L4.2 13.2q-.2 1.3-.9 2.3-.6.95-1.45 1.3l.15-.65V15.1q.45-.25.55.1l.15-.15-.2-.5q0-.75.4-.35l.2.2.1-.3-.15-.15-.15-.35q0-.5.5-.2l.05.05.1-.4q-.6 0-.6-.5 0-.35.45-.25l.25.1v-.95l.25.35.25-.15q.35-.1.35.2l-.15.5.05.05z" transform="translate(-.6 -5.25)"/></g></defs></svg>