<svg xmlns="http://www.w3.org/2000/svg" xmlns:ffdec="https://www.free-decompiler.com/flash" xmlns:xlink="http://www.w3.org/1999/xlink" ffdec:objectType="frame" width="9.5" height="11.65"><g transform="translate(.3 -2.45)"><use ffdec:characterId="4" xlink:href="#a" width="9.5" height="11.65" transform="translate(-.3 2.45)"/><use ffdec:characterId="5" xlink:href="#b" width="8.5" height="11.25" transform="translate(-.3 2.8)"/></g><defs><path id="c" fill="#a30f0f" fill-rule="evenodd" d="M7.75 5.7 9.1 7.15l-.05.05-.15.1-.3.25L10 9.6q.4.6-2.5 2.4L5.9 9.4h-.05l-.45-.8L5 8 .6 1.25Q.45.7.9.45L1.7.4Q2.4.55 4.75 3L7.4 5.95z" transform="translate(-.55 -.35)"/><use ffdec:characterId="3" xlink:href="#c" id="a" width="9.5" height="11.65"/><g id="b" fill-opacity=".298" fill-rule="evenodd"><path d="m3.55 3 2.3 2.95.2.35.85 1.2 1-.6.15-.1.05.1.2.2-1.1.85L8.45 9.8q.4.6-1.5 1.45L5.6 9.05l-.25-.35-.25-.4-.1-.2-.4-.6-1.15-1.8L.05.5Q-.05-.05.2 0l.65.2Q1.4.35 3.55 3"/><path d="m5.15 7.25.2-.05.15.05.1.2-.1.15-.15.1-.2-.1-.05-.15zm2.55-1.2-.1.15-.15.1-.2-.1-.05-.15.05-.2.2-.05.15.05zm-1.2.8-.15.1-.2-.1-.05-.15.05-.2.2-.05.15.05.1.2z"/></g></defs></svg>