<svg xmlns="http://www.w3.org/2000/svg" xmlns:ffdec="https://www.free-decompiler.com/flash" xmlns:xlink="http://www.w3.org/1999/xlink" ffdec:objectType="frame" width="8.65" height="11.5"><use ffdec:characterId="1" xlink:href="#a" width="8.65" height="11.5"/><defs><g id="a" fill-rule="evenodd"><path fill="#753fa3" d="M8.65 9.1 2.6 11.5 0 2.3q.6-4 3.25-1.05 2.6 2.9 5.4 7.85"/><path fill="#fff" d="M4.8 6.05q.75 0 1.4 1.15h.05v-.05q0-.95.15-1.15l.2-.4.15.25.05.1V6l.85 1.3.55 1.05h.1l-6 2.35-.6-1.95-.1-.35-.15-.6.55-.05q.5 0 1.15.5l.1.05-.1-.45q0-.6.3-1.1.45-.7 1.35-.7"/><path fill="#50036d" fill-opacity=".408" d="M.6.5.9.25l.55.85L2.8 3.05 4.6 6l.3.55 1 .85.15.55-1 .75-2.15.95 2.35-.45 2.7-.85-1.4 1.2L5 10.2l-1.7.6-.85.4q-.35-.5-1.05-3.45L.3 3.5l-.25-.85-.05-.8.2-.8z"/></g></defs></svg>