<?xml version="1.0" encoding="UTF-8" standalone="no"?>
<svg xmlns:ffdec="https://www.free-decompiler.com/flash" xmlns:xlink="http://www.w3.org/1999/xlink" ffdec:objectType="frame" height="12.65px" width="12.4px" xmlns="http://www.w3.org/2000/svg">
  <g transform="matrix(1.0, 0.0, 0.0, 1.0, 0.75, -1.75)">
    <use ffdec:characterId="1" height="12.65" transform="matrix(1.0, 0.0, 0.0, 1.0, -0.75, 1.75)" width="12.4" xlink:href="#shape0"/>
  </g>
  <defs>
    <g id="shape0" transform="matrix(1.0, 0.0, 0.0, 1.0, 0.75, -1.75)">
      <path d="M10.2 4.2 L9.35 4.25 8.8 4.6 8.75 4.65 8.85 5.6 9.35 5.25 10.15 4.25 10.2 4.2 M1.2 13.05 L1.1 13.15 1.05 13.25 0.0 12.15 0.75 11.25 1.55 9.8 1.75 10.0 2.2 10.0 Q3.35 9.45 5.25 9.35 6.75 9.15 7.3 8.15 L8.1 6.65 8.4 5.15 8.4 4.25 9.65 3.5 Q10.4 2.9 10.5 3.5 L10.6 3.95 10.65 4.8 10.7 4.95 10.75 5.0 Q10.7 5.55 10.95 5.8 10.05 5.75 9.55 6.25 L9.55 6.35 10.55 6.45 11.0 6.4 11.05 6.95 11.1 7.05 11.05 7.15 11.1 7.45 Q10.3 7.45 10.1 7.75 L10.05 7.8 Q9.95 8.2 10.25 8.15 L10.35 8.15 11.5 7.8 11.65 8.55 11.65 8.65 11.65 9.2 11.4 10.0 11.35 10.15 11.3 9.45 11.35 9.5 11.35 9.35 11.25 9.35 Q10.8 8.9 10.25 8.7 L10.15 8.65 9.75 9.1 9.7 9.15 11.2 9.35 10.8 9.9 10.7 10.2 9.8 9.75 9.75 9.8 9.5 10.3 9.45 10.25 8.8 10.8 8.7 10.65 8.7 10.6 7.85 10.7 Q7.65 11.95 7.95 13.55 L7.65 13.65 7.25 13.8 7.45 13.45 6.5 13.6 6.6 12.55 4.95 12.65 5.4 13.55 Q4.9 13.5 4.8 14.0 L4.85 14.05 5.4 14.1 5.3 14.2 4.7 14.2 3.95 14.1 4.25 12.95 3.3 12.7 3.1 13.6 2.85 13.65 2.75 13.65 2.8 13.7 Q2.55 13.85 2.8 14.35 L1.65 13.75 1.6 13.65 2.15 13.45 2.15 13.4 1.9 12.95 2.15 12.3 2.1 12.3 1.55 12.1 1.55 12.15 1.2 13.05 M11.25 4.95 L11.35 5.25 11.5 6.4 11.5 6.45 11.1 6.2 11.05 6.25 Q10.75 6.1 11.05 5.85 L11.1 5.9 11.1 5.8 11.25 4.95 M10.2 10.7 L10.25 10.7 9.95 11.15 9.6 10.5 10.2 10.7 M8.4 12.8 L8.35 12.05 Q8.2 11.0 8.55 11.45 L8.65 11.25 9.1 12.35 8.95 12.6 8.95 12.45 8.5 12.7 8.4 12.8 M9.55 12.55 L9.55 12.5 9.65 12.05 9.6 12.0 9.45 12.1 9.05 11.2 9.8 11.45 10.05 11.45 10.6 11.4 10.1 12.05 9.55 12.55 M1.55 13.7 L1.45 13.65 1.55 13.5 1.6 13.65 1.55 13.7" fill="url(#gradient0)" fill-rule="evenodd" stroke="none"/>
      <path d="M10.2 4.2 L10.15 4.25 9.35 5.25 8.85 5.6 8.75 4.65 8.8 4.6 9.35 4.25 10.2 4.2 M1.2 13.05 L1.55 12.15 1.55 12.1 2.1 12.3 2.15 12.3 1.9 12.95 2.15 13.4 2.15 13.45 1.6 13.65 1.65 13.75 1.55 13.7 1.6 13.65 1.55 13.5 1.45 13.65 1.35 13.6 1.35 13.5 1.4 13.25 1.6 12.95 1.6 12.65 1.5 12.65 1.45 12.75 1.2 13.05 M2.8 14.35 Q2.55 13.85 2.8 13.7 L2.75 13.65 2.85 13.65 3.1 13.6 3.3 12.7 4.25 12.95 3.95 14.1 3.75 13.85 3.8 13.6 3.45 13.55 3.3 13.9 2.95 14.4 2.9 14.4 2.8 14.35 M5.4 14.1 L4.85 14.05 4.8 14.0 Q4.9 13.5 5.4 13.55 L4.95 12.65 6.6 12.55 6.5 13.6 7.45 13.45 7.25 13.8 6.65 13.85 6.5 13.75 6.35 13.6 6.3 13.55 5.85 13.6 5.65 13.65 5.45 13.65 5.45 13.8 5.4 14.1 M7.95 13.55 Q7.65 11.95 7.85 10.7 L8.7 10.6 8.7 10.65 8.8 10.8 9.45 10.25 9.5 10.3 9.6 10.5 9.95 11.15 10.25 10.7 10.2 10.7 10.4 10.65 10.25 10.8 10.6 10.95 10.7 11.15 10.6 11.4 10.05 11.45 9.8 11.45 9.05 11.2 9.45 12.1 9.6 12.0 9.65 12.05 9.55 12.5 9.55 12.55 9.5 12.6 9.15 12.85 8.95 12.65 8.95 12.6 9.1 12.35 8.65 11.25 8.55 11.45 Q8.2 11.0 8.35 12.05 L8.4 12.8 Q8.25 12.9 8.25 13.15 L7.95 13.55 M10.8 9.9 L11.2 9.35 9.7 9.15 9.75 9.1 10.15 8.65 10.25 8.7 Q10.8 8.9 11.25 9.35 L11.35 9.35 11.35 9.5 11.3 9.45 11.35 10.15 11.2 10.4 11.1 10.5 11.05 10.5 10.7 10.35 10.8 9.9 M11.5 7.8 L10.35 8.15 10.25 8.15 Q9.95 8.2 10.05 7.8 L10.1 7.75 Q10.3 7.45 11.1 7.45 L11.1 7.6 11.5 7.6 11.5 7.8 M11.1 7.05 L11.05 6.95 11.0 6.4 10.55 6.45 9.55 6.35 9.55 6.25 Q10.05 5.75 10.95 5.8 10.7 5.55 10.75 5.0 L10.8 5.0 11.15 4.7 11.25 4.95 11.1 5.8 11.1 5.9 11.05 5.85 Q10.75 6.1 11.05 6.25 L11.1 6.2 11.5 6.45 11.3 6.8 11.1 7.05" fill="#c7e2e2" fill-rule="evenodd" stroke="none"/>
      <path d="M9.5 10.3 L9.75 9.8 9.8 9.75 10.7 10.2 10.8 9.9 10.7 10.35 10.65 10.3 10.4 10.65 10.2 10.7 9.6 10.5 9.5 10.3" fill="url(#gradient1)" fill-rule="evenodd" stroke="none"/>
      <path d="M-0.45 4.35 L-0.75 3.25 Q-0.75 3.05 0.4 2.65 L2.15 2.2 2.1 2.15 2.05 2.15 2.8 1.75 Q4.9 3.1 6.5 3.55 L7.0 3.65 8.25 3.7 8.9 3.5 Q10.35 5.75 10.35 8.8 L10.15 9.7 8.85 9.95 8.5 9.9 6.9 9.4 6.3 9.05 5.2 8.25 Q4.3 7.65 1.9 4.7 L-0.4 4.3 -0.45 4.35" fill="#691d5b" fill-rule="evenodd" stroke="none"/>
      <path d="M-0.45 4.35 L-0.4 4.3 1.9 4.7 Q4.3 7.65 5.2 8.25 L6.3 9.05 6.9 9.4 8.5 9.9 8.85 9.95 10.15 9.7 Q10.2 10.1 9.0 11.55 7.75 13.0 5.25 13.15 2.75 13.3 1.45 12.35 0.15 11.4 0.15 10.75 L0.25 10.3 0.4 8.65 0.4 8.3 0.4 7.9 0.0 5.9 -0.45 4.35" fill="#5b004a" fill-rule="evenodd" stroke="none"/>
      <path d="M6.15 9.0 Q6.9 8.5 7.05 7.15 7.3 5.5 6.6 3.75 L6.5 3.55 7.0 3.65 Q7.5 4.65 7.65 5.75 L7.9 5.7 Q8.5 5.6 8.6 5.9 L8.65 5.85 Q8.85 5.65 9.0 5.6 L8.8 5.0 8.15 5.35 7.7 5.1 7.55 4.7 Q7.55 4.25 7.95 4.2 8.3 4.15 8.3 4.55 L8.25 4.75 8.1 4.75 7.95 4.55 7.8 4.7 7.8 5.0 8.15 5.1 8.55 4.95 8.75 4.8 8.25 3.7 8.9 3.5 Q10.35 5.75 10.35 8.8 L10.15 9.7 8.85 9.95 8.85 9.9 9.3 8.7 9.15 8.65 Q8.85 8.65 8.6 8.95 L8.5 9.1 8.7 9.8 8.7 9.85 8.7 9.9 8.45 9.85 8.45 9.75 8.45 9.7 Q8.35 9.1 7.95 9.1 7.55 9.1 7.45 9.4 L7.4 9.55 7.15 9.45 7.2 9.35 7.2 9.3 Q7.3 8.8 7.85 8.8 L7.75 8.45 7.05 9.25 7.0 9.3 6.9 9.4 6.15 9.0 M9.05 5.8 L8.75 6.15 Q8.45 6.45 8.5 6.75 L8.65 7.45 8.65 7.6 8.95 7.35 9.3 6.9 9.05 5.8 M8.0 5.95 L7.7 6.05 7.75 6.7 8.3 6.65 8.25 6.55 8.45 6.1 8.0 5.95 M7.8 6.85 L7.75 6.9 7.75 7.0 7.7 7.7 8.05 7.75 8.45 7.7 8.35 7.25 Q8.3 6.85 7.8 6.85 M9.35 7.3 L9.25 7.45 Q8.75 8.0 8.0 8.0 L7.65 8.0 7.6 8.2 7.95 8.3 8.1 8.7 8.1 8.85 8.3 8.9 8.5 8.6 9.35 8.35 9.35 7.3 M8.05 9.75 L7.8 9.7 7.85 9.55 7.9 9.55 8.0 9.45 8.05 9.6 8.05 9.75" fill="#ffda2c" fill-rule="evenodd" stroke="none"/>
      <path d="M6.15 9.0 L6.9 9.4 6.1 9.95 5.9 10.35 6.05 10.85 Q6.25 11.2 6.65 11.2 L6.8 11.15 6.8 11.1 6.85 11.1 6.9 10.85 Q6.95 10.55 6.65 10.55 L6.4 10.75 6.3 10.7 6.25 10.55 6.5 10.25 6.9 10.25 7.15 10.85 7.15 11.0 7.5 11.0 7.65 11.05 7.85 11.35 8.3 10.85 8.45 10.0 8.45 9.85 8.7 9.9 8.7 10.05 8.7 10.2 8.85 9.95 10.15 9.7 9.7 10.65 9.0 11.55 8.65 11.9 Q7.45 13.0 5.25 13.15 2.75 13.3 1.45 12.35 0.15 11.4 0.15 10.75 L0.25 10.3 0.35 10.5 0.7 9.3 0.75 9.0 0.35 8.65 0.35 8.3 0.4 7.9 Q0.45 8.2 2.5 9.15 L6.15 9.0 M7.15 9.45 L7.4 9.55 7.5 9.85 7.8 9.85 7.8 9.7 8.05 9.75 Q8.05 10.2 7.65 10.2 7.15 10.2 7.15 9.6 L7.15 9.45 M4.75 11.75 L4.45 12.2 4.5 12.35 5.65 12.3 5.3 11.75 5.2 11.5 4.75 11.75 M2.9 10.65 L3.0 10.65 Q3.6 10.6 3.6 11.6 L3.55 12.15 3.5 12.2 4.2 12.3 4.2 12.2 4.4 11.65 Q3.75 11.3 3.75 10.55 L3.8 10.2 2.8 9.95 2.7 10.15 2.9 10.65 M4.1 10.25 L4.0 10.6 4.6 11.5 Q4.8 11.3 5.1 11.25 L5.0 10.75 5.05 10.2 4.15 10.25 4.1 10.25 M2.45 11.55 L2.4 11.4 2.4 11.25 2.15 11.15 1.9 11.25 1.85 11.25 1.55 11.6 3.05 12.1 3.15 12.15 3.3 11.95 3.35 11.6 Q3.45 10.95 3.0 10.95 2.8 10.95 2.75 11.1 L2.65 11.35 2.8 11.45 2.9 11.6 2.8 11.8 2.45 11.55 M1.5 9.9 L1.6 9.45 0.9 9.1 0.95 9.3 Q0.95 10.25 0.5 10.8 L1.15 11.4 Q1.7 11.15 1.7 10.65 L1.6 10.5 1.3 10.45 1.15 10.75 1.0 10.65 1.0 10.4 Q1.2 10.05 1.55 10.15 L1.5 9.9 M1.9 9.6 L1.75 9.85 1.85 10.2 1.85 10.35 1.95 10.65 1.95 10.85 2.5 10.9 2.65 10.75 2.45 10.55 2.45 10.15 2.5 9.85 1.9 9.6 M5.45 10.15 L5.25 10.7 5.35 11.2 5.4 11.2 5.4 11.4 5.55 11.75 5.95 12.1 6.1 12.25 6.7 12.05 7.6 11.55 7.55 11.45 7.25 11.25 6.95 11.35 6.6 11.45 Q5.65 11.45 5.65 10.35 L5.7 10.1 5.45 10.15" fill="#d28528" fill-rule="evenodd" stroke="none"/>
    </g>
    <radialGradient cx="0" cy="0" gradientTransform="matrix(0.0, 0.0, 0.0, 0.0, 0.0, 0.0)" gradientUnits="userSpaceOnUse" id="gradient0" r="819.2" spreadMethod="pad">
      <stop offset="0.22745098039215686" stop-color="#ffffff"/>
      <stop offset="1.0" stop-color="#ffffff"/>
    </radialGradient>
    <radialGradient cx="0" cy="0" gradientTransform="matrix(0.0014, 0.0, 0.0, 0.0014, 10.1, 10.25)" gradientUnits="userSpaceOnUse" id="gradient1" r="819.2" spreadMethod="pad">
      <stop offset="0.22745098039215686" stop-color="#ffffff"/>
      <stop offset="1.0" stop-color="#ffffff"/>
    </radialGradient>
  </defs>
</svg>
