<?xml version="1.0" encoding="UTF-8" standalone="no"?>
<svg xmlns:ffdec="https://www.free-decompiler.com/flash" xmlns:xlink="http://www.w3.org/1999/xlink" ffdec:objectType="frame" height="11.15px" width="12.2px" xmlns="http://www.w3.org/2000/svg">
  <g transform="matrix(1.0, 0.0, 0.0, 1.0, 0.4, -1.55)">
    <use ffdec:characterId="1" height="11.15" transform="matrix(1.0, 0.0, 0.0, 1.0, -0.4, 1.55)" width="12.2" xlink:href="#shape0"/>
  </g>
  <defs>
    <g id="shape0" transform="matrix(1.0, 0.0, 0.0, 1.0, 0.4, -1.55)">
      <path d="M2.65 1.8 L11.8 6.15 11.55 7.1 Q10.85 9.05 8.1 11.55 L4.5 5.5 3.05 8.45 Q2.15 9.9 1.4 10.4 L-0.35 5.1 Q-0.6 2.15 0.8 1.75 L2.65 1.8" fill="#8cdfff" fill-rule="evenodd" stroke="none"/>
      <path d="M8.8 12.7 L8.1 11.45 Q10.15 9.85 11.2 7.2 12.2 4.55 11.55 8.2 10.85 11.8 8.8 12.7" fill="#ffcc66" fill-rule="evenodd" stroke="none"/>
      <path d="M10.75 6.8 L11.35 6.05 11.7 6.25 10.55 8.65 8.8 10.85 8.05 11.45 7.6 10.6 5.15 6.45 Q4.65 8.3 3.6 9.6 L1.8 11.35 1.8 11.3 1.5 10.3 1.35 10.3 1.15 9.75 0.25 6.85 -0.35 4.7 -0.35 4.35 -0.4 3.85 -0.2 2.75 0.25 2.15 0.55 1.85 1.45 2.8 2.6 3.8 3.95 4.35 6.3 4.9 Q7.75 5.2 8.65 5.8 L9.6 6.45 9.35 6.9 9.0 7.55 8.9 7.75 8.65 8.25 8.8 8.3 10.1 6.85 10.2 6.95 10.1 7.4 9.5 8.4 9.2 9.1 10.2 7.85 10.75 6.8" fill="#000000" fill-opacity="0.2" fill-rule="evenodd" stroke="none"/>
    </g>
  </defs>
</svg>
