<?xml version="1.0" encoding="UTF-8" standalone="no"?>
<svg xmlns:ffdec="https://www.free-decompiler.com/flash" xmlns:xlink="http://www.w3.org/1999/xlink" ffdec:objectType="frame" height="10.5px" width="9.7px" xmlns="http://www.w3.org/2000/svg">
  <g transform="matrix(1.0, 0.0, 0.0, 1.0, 0.55, -3.25)">
    <use ffdec:characterId="3" height="10.5" transform="matrix(1.0, 0.0, 0.0, 1.0, -0.55, 3.25)" width="9.7" xlink:href="#shape0"/>
  </g>
  <defs>
    <g id="shape0" transform="matrix(1.0, 0.0, 0.0, 1.0, 0.55, -3.25)">
      <path d="M4.8 5.65 L4.45 5.7 4.6 5.5 4.8 5.65" fill="#aa0000" fill-rule="evenodd" stroke="none"/>
      <path d="M1.1 8.8 L1.35 8.8 2.0 11.15 2.1 12.0 6.05 11.65 Q4.55 11.4 3.7 9.6 L3.25 8.45 3.3 8.45 3.8 7.95 4.1 7.95 Q4.95 7.45 5.15 6.55 L5.4 7.1 6.55 9.25 7.85 10.85 8.1 11.25 8.15 11.85 5.85 12.1 8.6 12.4 Q9.05 12.7 9.15 13.25 L9.15 13.35 9.1 13.65 9.1 13.4 5.45 12.9 2.6 13.15 5.6 12.15 5.2 12.1 2.05 12.45 2.0 12.4 1.95 12.4 1.9 11.85 1.8 11.2 1.1 8.8 M5.25 11.0 L5.35 11.1 6.35 11.3 6.65 11.3 7.35 11.25 5.25 11.0" fill="#cbdcec" fill-rule="evenodd" stroke="none"/>
      <path d="M4.45 5.7 L4.8 5.65 4.85 5.8 5.1 6.45 5.15 6.55 Q4.95 7.45 4.1 7.95 L3.8 7.95 3.3 8.45 3.25 8.45 3.7 9.6 Q4.55 11.4 6.05 11.65 L2.1 12.0 2.0 11.15 1.35 8.8 1.1 8.8 1.0 8.55 0.95 8.4 0.8 8.15 0.85 8.0 0.7 7.4 0.75 7.0 Q0.7 6.75 0.85 6.9 L0.95 7.05 1.25 7.7 1.75 7.4 Q3.0 6.85 3.3 6.55 L4.45 5.75 4.45 5.7 M8.15 11.85 L8.15 11.95 8.55 12.35 8.6 12.4 5.85 12.1 8.15 11.85 M9.1 13.65 L9.0 13.75 8.9 13.75 7.95 13.45 6.65 13.25 4.6 13.2 2.55 13.55 2.45 13.25 2.45 13.2 2.4 12.9 2.05 12.45 5.2 12.1 5.6 12.15 2.6 13.15 5.45 12.9 9.1 13.4 9.1 13.65 M5.25 11.0 L7.35 11.25 6.65 11.3 6.35 11.3 5.35 11.1 5.25 11.0" fill="#96b5d2" fill-rule="evenodd" stroke="none"/>
      <path d="M3.85 7.2 L3.7 7.25 3.4 7.15 3.1 7.6 2.9 7.55 2.85 7.55 2.7 7.7 2.55 7.6 2.65 7.35 2.5 7.25 2.35 7.4 2.2 7.2 2.35 7.0 2.4 7.0 2.3 6.75 Q2.25 6.65 2.35 6.6 L2.25 6.5 2.2 6.5 Q1.95 6.55 1.95 6.25 L1.95 6.1 1.9 5.85 1.8 5.7 2.0 5.4 2.15 5.45 2.35 5.3 2.3 5.3 2.25 5.15 2.3 5.0 2.55 5.0 2.75 4.65 3.35 4.45 3.35 4.4 3.45 4.4 3.5 4.35 3.3 4.05 Q3.3 3.65 3.6 3.65 L3.85 3.7 4.25 3.95 4.6 4.05 4.9 4.95 4.85 4.95 Q5.3 5.2 5.0 5.85 L4.8 5.8 4.7 5.8 4.8 5.85 4.85 6.2 4.45 6.5 4.3 6.5 4.3 6.8 4.25 6.8 4.0 7.1 3.85 7.2" fill="#ffffff" fill-rule="evenodd" stroke="none"/>
      <path d="M5.15 5.3 L5.15 5.4 5.35 5.55 5.35 5.75 5.1 5.95 5.1 6.05 5.2 6.2 5.15 6.35 4.95 6.45 4.6 6.45 4.9 6.7 4.8 6.75 4.45 6.8 4.5 6.85 4.5 7.15 4.4 7.2 3.95 7.15 3.85 7.2 3.9 7.3 3.75 7.55 3.5 7.45 3.2 7.6 3.2 7.75 3.1 7.9 3.0 7.7 2.95 7.7 2.75 8.05 2.4 7.95 2.05 8.25 1.9 8.2 1.8 8.4 1.65 8.55 1.5 8.55 1.45 8.5 1.5 8.3 1.25 8.45 1.1 8.3 0.8 8.65 0.65 8.45 0.85 8.2 0.6 8.1 0.45 8.2 0.15 8.1 0.2 7.8 -0.25 7.45 -0.1 7.1 -0.1 7.05 -0.45 6.6 -0.4 6.45 -0.55 6.35 -0.5 6.1 -0.2 6.1 -0.35 5.9 -0.4 5.55 -0.2 5.55 0.0 5.6 0.25 5.4 0.45 5.5 0.5 5.4 0.65 5.25 0.95 5.45 1.0 5.45 1.05 5.05 Q1.3 5.05 1.4 5.2 L1.75 5.0 1.8 5.15 1.9 5.15 1.9 4.9 2.1 5.0 2.25 4.95 2.15 4.75 2.35 4.5 2.55 4.65 2.65 4.2 2.65 4.05 2.85 4.05 3.0 4.2 3.05 4.15 Q3.05 3.55 3.25 3.65 L3.25 3.45 Q3.2 3.25 3.45 3.25 L3.75 3.6 3.9 3.55 4.05 3.4 4.25 3.7 4.45 3.85 4.65 3.7 Q4.85 3.7 4.9 3.85 L4.95 4.05 4.85 4.5 4.9 4.5 Q5.25 4.7 5.25 5.0 L5.15 5.3 M3.85 7.2 L4.0 7.1 4.25 6.8 4.3 6.8 4.3 6.5 4.45 6.5 4.85 6.2 4.8 5.85 4.7 5.8 4.8 5.8 5.0 5.85 Q5.3 5.2 4.85 4.95 L4.9 4.95 4.6 4.05 4.25 3.95 3.85 3.7 3.6 3.65 Q3.3 3.65 3.3 4.05 L3.5 4.35 3.45 4.4 3.35 4.4 3.35 4.45 2.75 4.65 2.55 5.0 2.3 5.0 2.25 5.15 2.3 5.3 2.35 5.3 2.15 5.45 2.0 5.4 1.8 5.7 1.9 5.85 1.95 6.1 1.95 6.25 Q1.95 6.55 2.2 6.5 L2.25 6.5 2.35 6.6 Q2.25 6.65 2.3 6.75 L2.4 7.0 2.35 7.0 2.2 7.2 2.35 7.4 2.5 7.25 2.65 7.35 2.55 7.6 2.7 7.7 2.85 7.55 2.9 7.55 3.1 7.6 3.4 7.15 3.7 7.25 3.85 7.2" fill="#d0d0d0" fill-rule="evenodd" stroke="none"/>
    </g>
  </defs>
</svg>
