<svg xmlns="http://www.w3.org/2000/svg" xmlns:ffdec="https://www.free-decompiler.com/flash" xmlns:xlink="http://www.w3.org/1999/xlink" ffdec:objectType="frame" width="10.4" height="10.9"><use ffdec:characterId="1" xlink:href="#a" width="10.4" height="10.9"/><defs><linearGradient id="b" x1="-819.2" x2="819.2" gradientTransform="matrix(.0037 0 0 .0017 3.25 7)" gradientUnits="userSpaceOnUse" spreadMethod="pad"><stop offset="0" stop-color="#cb776d"/><stop offset="1" stop-color="#9d486f"/></linearGradient><linearGradient id="c" x1="-819.2" x2="819.2" gradientTransform="matrix(.003 0 0 .0024 4.45 10.4)" gradientUnits="userSpaceOnUse" spreadMethod="pad"><stop offset="0" stop-color="#cb776d"/><stop offset="1" stop-color="#9d486f"/></linearGradient><linearGradient id="d" x1="-819.2" x2="819.2" gradientTransform="matrix(.0038 0 0 .0011 6.25 13.1)" gradientUnits="userSpaceOnUse" spreadMethod="pad"><stop offset="0" stop-color="#cb776d"/><stop offset="1" stop-color="#9d486f"/></linearGradient><linearGradient id="e" x1="-819.2" x2="819.2" gradientTransform="matrix(.0041 -.0016 .0009 .0022 5.6 13.3)" gradientUnits="userSpaceOnUse" spreadMethod="pad"><stop offset="0" stop-color="#c8476d"/><stop offset=".494" stop-color="#f6a7a2"/><stop offset="1" stop-color="#c8476d"/></linearGradient><g id="a" fill-rule="evenodd"><path fill="url(#b)" d="M.5 6.65.2 5.6l2.3 1.05 2.75.7.65-.2q.4.6.4 1.1l-.1-.1-.65.25-2.75-.7z" transform="translate(-.2 -5.6)"/><path fill="url(#c)" d="M3.2 12.4h-.05l-1.1-.15-.05-.8.05.05h.55l1.1-.1 1-.35q1.15-.65 1.8-2.65l.15.15.3.5-.05.4q-.5 1.85-1.65 2.5l-.5.25z" transform="translate(-.2 -5.6)"/><path fill="url(#d)" d="m3.2 12.4 1.55-.2 1.4.5L8 13l.9-.15q.45.2.45.75l-.6.35-.75.1q-1.7 0-4.8-1.65m.5-1-1.1.1h-.55L2 11.45l-.25-.2-.3-.2v-.7q.25.45 2.25 1.05" transform="translate(-.2 -5.6)"/><path fill="#cd92a6" d="m2 5.75.35-.25.35-.1.15.05.7.65.8.85-1.05.5-1.2.45-.4-.05-.25-.1q-.4 0-.4-.2 0-.75.4-.9l1.8.75zm1.65-.55-.1-.25.55-.35h.35l.05.35.15.1.7 1.45-.4.15-.6.3L3.7 5.2zm1.8-.35V4.8l-.2-.35.6-.15h.3l.1.25.15 1 .3.6-.95.25zm1.3-.3q-.05-.3.05-.35h.35l.65.1-.1.4-.1 1.35h-.1l-.3-1.5-.1 1.55-.25.05zm.7 2.9.3-.05.45 1v.05l.1.7h-.1l-.25-.1-.65.05-.1-.35-.7-1.15.55-.1.5.95zm.95-.1.45-.05q1.1.65 1.55 1.5l-.35.05-.65.05-.3-.05.15-.5H9.2zm-2 1.7v.05l.25.45-.15.2-.45.15q-.3 0-.3-.3l.1-.25H5.8l-.7-1.3.8-.25.15.3zm-1.9.9.15.2-.15.3-.4.15-.2-.2-.3-1.2-.2-.5.95-.35.2 1.35zm-1.45.55v.2l.15.1-.05.05-.25.05-1.3-.25.4-.85.45-.75.1-.05-.5 1.35v.2L2.9 9z"/><path fill="#eebdc0" d="m1.45 6.65.35-.1q.35 0 .35-.4L2 5.8v-.05L3.25 7.4zm1.4-1.2.45.15.25-.1.15-.2-.05-.1h.05l.65 1.75-.8-.85zm1.8-.4h.1l.7-.2.3 1.55-.4.1zm1.6-.5h.5l.1 1.6H6.7l-.3-.6zm1.45.15.4.05.35.15.45.05Q8.75 5.4 7.75 6l-.15.05zm-.2 1.35-.4.05.1-1.55zm.25 1.35.65-.05.8 1-.5-.1-.5.15zM7.2 8.75l-.1-.05q-.7 0-.7.35l-.35-.95-.15-.3.25-.1.35-.1zm-1.4.6-.7.2q-.55.25-.6.4l.05-.25-.2-1.35.75-.3zM3.9 10.4h-.85v.1L2.9 9l-.85 1.55v-.2L2.55 9l.35-.1V9l.1-.15.4-.15.2.5zm3.15-2.9.4-.05.1 1z"/><path fill="url(#e)" d="m8.35 11.5.9 1.7-2.05.1q-2.5.4-4.7 1.95l-.5-1.9 1.8-1.15q2.25-1.05 4.55-.7" transform="translate(-.2 -5.6)"/></g></defs></svg>