<svg xmlns="http://www.w3.org/2000/svg" xmlns:ffdec="https://www.free-decompiler.com/flash" xmlns:xlink="http://www.w3.org/1999/xlink" ffdec:objectType="frame" width="23.05" height="16.8"><g transform="translate(1.45 -5.05)"><use ffdec:characterId="5" xlink:href="#a" width="23.05" height="6" transform="translate(-1.45 14.1)"/><use ffdec:characterId="7" xlink:href="#b" width="149.15" height="250.3" transform="translate(-.152 20.158)scale(.0067)"/><use ffdec:characterId="7" xlink:href="#b" width="149.15" height="250.3" transform="translate(2.748 18.958)scale(.0067)"/><use ffdec:characterId="7" xlink:href="#b" width="149.15" height="250.3" transform="translate(5.598 17.258)scale(.0067)"/><use ffdec:characterId="7" xlink:href="#b" width="149.15" height="250.3" transform="translate(7.948 15.558)scale(.0067)"/><use ffdec:characterId="7" xlink:href="#b" width="149.15" height="250.3" transform="matrix(-.0067 0 0 .0067 20.302 20.158)"/><use ffdec:characterId="7" xlink:href="#b" width="149.15" height="250.3" transform="matrix(-.0067 0 0 .0067 17.402 18.958)"/><use ffdec:characterId="7" xlink:href="#b" width="149.15" height="250.3" transform="matrix(-.0067 0 0 .0067 14.552 17.258)"/><use ffdec:characterId="7" xlink:href="#b" width="149.15" height="250.3" transform="matrix(-.0067 0 0 .0067 12.202 15.558)"/><use ffdec:characterId="8" xlink:href="#c" width="17.1" height="9.15" transform="translate(1.4 5.05)"/><filter id="d"><feColorMatrix in="SourceGraphic" result="filterResult0" values="0 0 0 0 1.0,0 0 0 0 1.0,0 0 0 0 1.0,0 0 0 1 0"/><feConvolveMatrix divisor="25" in="filterResult0" kernelMatrix="1 1 1 1 1 1 1 1 1 1 1 1 1 1 1 1 1 1 1 1 1 1 1 1 1" order="5 5" result="filterResult1"/><feComposite in="SourceGraphic" in2="filterResult1" result="filterResult2"/></filter><use ffdec:characterId="10" xlink:href="#e" width="2.35" height="6.95" filter="url(#d)" transform="translate(8.9 12.6)"/><use ffdec:characterId="12" xlink:href="#f" width="13.3" height="12.9" transform="rotate(-59.995 12.212 .338)scale(.1558)"/><use ffdec:characterId="12" xlink:href="#f" width="13.3" height="12.9" transform="rotate(-90 10.425 3.23)scale(.2488)"/><use ffdec:characterId="12" xlink:href="#f" width="13.3" height="12.9" transform="rotate(-104.993 12.7 .336)scale(.366 -.366)"/><use ffdec:characterId="14" xlink:href="#g" width="21.15" height="21.9" transform="translate(7.404 6.348)scale(.265)"/></g><defs><radialGradient id="h" cx="0" cy="0" r="819.2" gradientTransform="translate(21.15 19.65)scale(.0008)" gradientUnits="userSpaceOnUse" spreadMethod="pad"><stop offset="0" stop-color="#fff3c9"/><stop offset="1" stop-color="#ffcb98"/></radialGradient><radialGradient id="i" cx="0" cy="0" r="819.2" gradientTransform="translate(8.5 14.55)scale(.0008)" gradientUnits="userSpaceOnUse" spreadMethod="pad"><stop offset="0" stop-color="#fff3c9"/><stop offset="1" stop-color="#ffcb98"/></radialGradient><radialGradient id="j" cx="0" cy="0" r="819.2" gradientTransform="translate(7.2 15.7)scale(.0008)" gradientUnits="userSpaceOnUse" spreadMethod="pad"><stop offset="0" stop-color="#fff3c9"/><stop offset="1" stop-color="#ffcb98"/></radialGradient><radialGradient id="k" cx="0" cy="0" r="819.2" gradientTransform="translate(6 16.55)scale(.0008)" gradientUnits="userSpaceOnUse" spreadMethod="pad"><stop offset="0" stop-color="#fff3c9"/><stop offset="1" stop-color="#ffcb98"/></radialGradient><radialGradient id="l" cx="0" cy="0" r="819.2" gradientTransform="translate(4.7 17.4)scale(.0008)" gradientUnits="userSpaceOnUse" spreadMethod="pad"><stop offset="0" stop-color="#fff3c9"/><stop offset="1" stop-color="#ffcb98"/></radialGradient><radialGradient id="m" cx="0" cy="0" r="819.2" gradientTransform="translate(1.8 18.7)scale(.0008)" gradientUnits="userSpaceOnUse" spreadMethod="pad"><stop offset="0" stop-color="#fff3c9"/><stop offset="1" stop-color="#ffcb98"/></radialGradient><radialGradient id="n" cx="0" cy="0" r="819.2" gradientTransform="translate(3.25 18.15)scale(.0008)" gradientUnits="userSpaceOnUse" spreadMethod="pad"><stop offset="0" stop-color="#fff3c9"/><stop offset="1" stop-color="#ffcb98"/></radialGradient><radialGradient id="o" cx="0" cy="0" r="819.2" gradientTransform="translate(.4 19.15)scale(.0008)" gradientUnits="userSpaceOnUse" spreadMethod="pad"><stop offset="0" stop-color="#fff3c9"/><stop offset="1" stop-color="#ffcb98"/></radialGradient><radialGradient id="p" cx="0" cy="0" r="819.2" gradientTransform="translate(16.95 18.15)scale(.0008)" gradientUnits="userSpaceOnUse" spreadMethod="pad"><stop offset="0" stop-color="#fff3c9"/><stop offset="1" stop-color="#ffcb98"/></radialGradient><radialGradient id="q" cx="0" cy="0" r="819.2" gradientTransform="translate(15.5 17.4)scale(.0008)" gradientUnits="userSpaceOnUse" spreadMethod="pad"><stop offset="0" stop-color="#fff3c9"/><stop offset="1" stop-color="#ffcb98"/></radialGradient><radialGradient id="r" cx="0" cy="0" r="819.2" gradientTransform="translate(18.4 18.7)scale(.0008)" gradientUnits="userSpaceOnUse" spreadMethod="pad"><stop offset="0" stop-color="#fff3c9"/><stop offset="1" stop-color="#ffcb98"/></radialGradient><radialGradient id="s" cx="0" cy="0" r="819.2" gradientTransform="translate(13 15.7)scale(.0008)" gradientUnits="userSpaceOnUse" spreadMethod="pad"><stop offset="0" stop-color="#fff3c9"/><stop offset="1" stop-color="#ffcb98"/></radialGradient><radialGradient id="t" cx="0" cy="0" r="819.2" gradientTransform="translate(11.7 14.55)scale(.0008)" gradientUnits="userSpaceOnUse" spreadMethod="pad"><stop offset="0" stop-color="#fff3c9"/><stop offset="1" stop-color="#ffcb98"/></radialGradient><radialGradient id="u" cx="0" cy="0" r="819.2" gradientTransform="translate(14.2 16.55)scale(.0008)" gradientUnits="userSpaceOnUse" spreadMethod="pad"><stop offset="0" stop-color="#fff3c9"/><stop offset="1" stop-color="#ffcb98"/></radialGradient><radialGradient id="v" cx="0" cy="0" r="819.2" gradientTransform="translate(19.8 19.15)scale(.0008)" gradientUnits="userSpaceOnUse" spreadMethod="pad"><stop offset="0" stop-color="#fff3c9"/><stop offset="1" stop-color="#ffcb98"/></radialGradient><radialGradient id="w" cx="0" cy="0" r="819.2" gradientTransform="translate(-1 19.65)scale(.0008)" gradientUnits="userSpaceOnUse" spreadMethod="pad"><stop offset="0" stop-color="#fff3c9"/><stop offset="1" stop-color="#ffcb98"/></radialGradient><radialGradient id="y" cx="0" cy="0" r="819.2" gradientTransform="matrix(.0112 0 0 .0133 9.95 12.45)" gradientUnits="userSpaceOnUse" spreadMethod="pad"><stop offset=".502" stop-color="#ba4764"/><stop offset="1" stop-color="#f1a3a3"/></radialGradient><radialGradient id="z" cx="0" cy="0" r="819.2" gradientTransform="translate(10 9.65)scale(.0095)" gradientUnits="userSpaceOnUse" spreadMethod="pad"><stop offset="0" stop-color="#f6a7a2"/><stop offset="1" stop-color="#c8476d"/></radialGradient><radialGradient id="A" cx="0" cy="0" r="819.2" gradientTransform="translate(14.95 9.5)scale(.0037)" gradientUnits="userSpaceOnUse" spreadMethod="pad"><stop offset="0" stop-color="#f6a7a2"/><stop offset="1" stop-color="#c8476d"/></radialGradient><radialGradient id="B" cx="0" cy="0" r="819.2" gradientTransform="translate(5.25 9.45)scale(.0045)" gradientUnits="userSpaceOnUse" spreadMethod="pad"><stop offset="0" stop-color="#f6a7a2"/><stop offset="1" stop-color="#c8476d"/></radialGradient><radialGradient id="F" cx="0" cy="0" r="819.2" gradientTransform="translate(10 12.3)scale(.0098)" gradientUnits="userSpaceOnUse" spreadMethod="pad"><stop offset="0" stop-color="#f8ecd6"/><stop offset="1" stop-color="#f9e2c2"/></radialGradient><radialGradient id="H" cx="0" cy="0" r="819.2" gradientTransform="translate(0 -2.1)scale(.0005)" gradientUnits="userSpaceOnUse" spreadMethod="pad"><stop offset="0" stop-color="#fff3c9"/><stop offset="1" stop-color="#ffcb98"/></radialGradient><radialGradient id="I" cx="0" cy="0" r="819.2" gradientTransform="translate(0 -3.1)scale(.0005)" gradientUnits="userSpaceOnUse" spreadMethod="pad"><stop offset="0" stop-color="#fff3c9"/><stop offset="1" stop-color="#ffcb98"/></radialGradient><radialGradient id="J" cx="0" cy="0" r="819.2" gradientTransform="translate(0 -1.1)scale(.0005)" gradientUnits="userSpaceOnUse" spreadMethod="pad"><stop offset="0" stop-color="#fff3c9"/><stop offset="1" stop-color="#ffcb98"/></radialGradient><radialGradient id="L" cx="0" cy="0" r="819.2" gradientTransform="rotate(6.882 -2.67 -2.76)scale(.0117)" gradientUnits="userSpaceOnUse" spreadMethod="pad"><stop offset=".012" stop-color="#81935c"/><stop offset="1" stop-color="#37432c"/></radialGradient><radialGradient id="N" cx="0" cy="0" r="819.2" gradientTransform="rotate(7.125 20.87 43.85)scale(.0073)" gradientUnits="userSpaceOnUse" spreadMethod="pad"><stop offset="0" stop-color="#fa4e71"/><stop offset="1" stop-color="#fa244f"/></radialGradient><radialGradient id="O" cx="0" cy="0" r="819.2" gradientTransform="rotate(6.843 66.026 2.347)scale(.0076)" gradientUnits="userSpaceOnUse" spreadMethod="pad"><stop offset="0" stop-color="#ff98ac"/><stop offset="1" stop-color="#ff5677"/></radialGradient><radialGradient id="P" cx="0" cy="0" r="819.2" gradientTransform="matrix(.0068 .0008 -.0009 .0073 .05 -3.65)" gradientUnits="userSpaceOnUse" spreadMethod="pad"><stop offset="0" stop-color="#e22047"/><stop offset="1" stop-color="#c60027"/></radialGradient><radialGradient id="Q" cx="0" cy="0" r="819.2" gradientTransform="rotate(6.843 66.026 2.347)scale(.0076)" gradientUnits="userSpaceOnUse" spreadMethod="pad"><stop offset="0" stop-color="#bf7281"/><stop offset="1" stop-color="#b83e56"/></radialGradient><radialGradient id="R" cx="0" cy="0" r="819.2" gradientTransform="rotate(7.696 27.743 23.896)scale(.0037)" gradientUnits="userSpaceOnUse" spreadMethod="pad"><stop offset="0" stop-color="#e22047"/><stop offset="1" stop-color="#c60027"/></radialGradient><radialGradient id="S" cx="0" cy="0" r="819.2" gradientTransform="matrix(.0068 .0008 -.0009 .0073 .05 -3.65)" gradientUnits="userSpaceOnUse" spreadMethod="pad"><stop offset="0" stop-color="#b11937"/><stop offset="1" stop-color="#7b0018"/></radialGradient><radialGradient id="T" cx="0" cy="0" r="819.2" gradientTransform="rotate(7.125 22.204 26.432)scale(.004)" gradientUnits="userSpaceOnUse" spreadMethod="pad"><stop offset="0" stop-color="#e22047"/><stop offset="1" stop-color="#c60027"/></radialGradient><radialGradient id="U" cx="0" cy="0" r="819.2" gradientTransform="rotate(7.125 22.204 26.432)scale(.004)" gradientUnits="userSpaceOnUse" spreadMethod="pad"><stop offset="0" stop-color="#b11937"/><stop offset="1" stop-color="#7b0018"/></radialGradient><radialGradient id="V" cx="0" cy="0" r="819.2" gradientTransform="rotate(7.125 20.87 43.85)scale(.0073)" gradientUnits="userSpaceOnUse" spreadMethod="pad"><stop offset=".004" stop-color="#c63e59"/><stop offset=".984" stop-color="#af1937"/></radialGradient><radialGradient id="W" cx="0" cy="0" r="819.2" gradientTransform="rotate(7.696 27.743 23.896)scale(.0037)" gradientUnits="userSpaceOnUse" spreadMethod="pad"><stop offset="0" stop-color="#b11937"/><stop offset="1" stop-color="#7b0018"/></radialGradient><radialGradient id="X" cx="0" cy="0" r="819.2" gradientTransform="rotate(7.352 12.845 29.65)scale(.0031)" gradientUnits="userSpaceOnUse" spreadMethod="pad"><stop offset="0" stop-color="#e22047"/><stop offset="1" stop-color="#c60027"/></radialGradient><radialGradient id="Y" cx="0" cy="0" r="819.2" gradientTransform="rotate(7.326 -5.31 -9.462)scale(.007)" gradientUnits="userSpaceOnUse" spreadMethod="pad"><stop offset="0" stop-color="#e22047"/><stop offset="1" stop-color="#c60027"/></radialGradient><radialGradient id="ab" cx="0" cy="0" r="819.2" gradientTransform="rotate(7.326 -5.31 -9.462)scale(.007)" gradientUnits="userSpaceOnUse" spreadMethod="pad"><stop offset="0" stop-color="#b11937"/><stop offset="1" stop-color="#7b0018"/></radialGradient><radialGradient id="ad" cx="0" cy="0" r="819.2" gradientTransform="rotate(7.125 -2.512 11.444)scale(.0032)" gradientUnits="userSpaceOnUse" spreadMethod="pad"><stop offset="0" stop-color="#b90b2e"/><stop offset="1" stop-color="#89001c"/></radialGradient><radialGradient id="ae" cx="0" cy="0" r="819.2" gradientTransform="rotate(7.125 -2.512 11.444)scale(.0032)" gradientUnits="userSpaceOnUse" spreadMethod="pad"><stop offset="0" stop-color="#70061b"/><stop offset="1" stop-color="#46000e"/></radialGradient><radialGradient id="ah" cx="0" cy="0" r="819.2" gradientTransform="rotate(7.386 -13.206 18.355)scale(.0054)" gradientUnits="userSpaceOnUse" spreadMethod="pad"><stop offset="0" stop-color="#b90b2e"/><stop offset="1" stop-color="#89001c"/></radialGradient><radialGradient id="ai" cx="0" cy="0" r="819.2" gradientTransform="matrix(.0081 .001 -.001 .0081 4.4 4.3)" gradientUnits="userSpaceOnUse" spreadMethod="pad"><stop offset="0" stop-color="#fa4e71"/><stop offset="1" stop-color="#fa244f"/></radialGradient><radialGradient id="aj" cx="0" cy="0" r="819.2" gradientTransform="rotate(6.17 -24.678 42.732)scale(.0037)" gradientUnits="userSpaceOnUse" spreadMethod="pad"><stop offset="0" stop-color="#e22047"/><stop offset="1" stop-color="#c60027"/></radialGradient><radialGradient id="ak" cx="0" cy="0" r="819.2" gradientTransform="matrix(.0081 .001 -.001 .0081 4.4 4.3)" gradientUnits="userSpaceOnUse" spreadMethod="pad"><stop offset=".004" stop-color="#c63e59"/><stop offset=".984" stop-color="#af1937"/></radialGradient><radialGradient id="al" cx="0" cy="0" r="819.2" gradientTransform="rotate(6.934 -41.763 7.914)scale(.0075)" gradientUnits="userSpaceOnUse" spreadMethod="pad"><stop offset="0" stop-color="#fa4e71"/><stop offset="1" stop-color="#fa244f"/></radialGradient><radialGradient id="ao" cx="0" cy="0" r="819.2" gradientTransform="rotate(5 -97.108 -16.983)scale(.008)" gradientUnits="userSpaceOnUse" spreadMethod="pad"><stop offset="0" stop-color="#ff98ac"/><stop offset="1" stop-color="#ff335b"/></radialGradient><radialGradient id="ap" cx="0" cy="0" r="819.2" gradientTransform="rotate(5 -97.108 -16.983)scale(.008)" gradientUnits="userSpaceOnUse" spreadMethod="pad"><stop offset="0" stop-color="#bf7281"/><stop offset="1" stop-color="#b83e56"/></radialGradient><radialGradient id="aq" cx="0" cy="0" r="819.2" gradientTransform="rotate(6.71 -3.626 -54.563)scale(.0086)" gradientUnits="userSpaceOnUse" spreadMethod="pad"><stop offset="0" stop-color="#fa4368"/><stop offset="1" stop-color="#fa2e57"/></radialGradient><radialGradient id="ar" cx="0" cy="0" r="819.2" gradientTransform="rotate(6.71 -3.626 -54.563)scale(.0086)" gradientUnits="userSpaceOnUse" spreadMethod="pad"><stop offset="0" stop-color="#c23450"/><stop offset="1" stop-color="#af203d"/></radialGradient><linearGradient id="C" x1="-819.2" x2="819.2" gradientTransform="matrix(0 -.0016 .0018 0 10 10.2)" gradientUnits="userSpaceOnUse" spreadMethod="pad"><stop offset="0" stop-opacity="0"/><stop offset="1" stop-color="#7e2121" stop-opacity=".498"/></linearGradient><linearGradient id="D" x1="-819.2" x2="819.2" gradientTransform="matrix(.0035 -.002 .0009 .0015 13.3 7.35)" gradientUnits="userSpaceOnUse" spreadMethod="pad"><stop offset="0" stop-color="#f7de85"/><stop offset=".286" stop-color="#d9b94b"/><stop offset=".506" stop-color="#fff"/><stop offset=".522" stop-color="#f9b572"/><stop offset=".702" stop-color="#cd8b38"/><stop offset="1" stop-color="#f7de85"/></linearGradient><linearGradient id="E" x1="-819.2" x2="819.2" gradientTransform="matrix(.003 .0018 -.0009 .0015 7 7.05)" gradientUnits="userSpaceOnUse" spreadMethod="pad"><stop offset="0" stop-color="#f7de85"/><stop offset=".286" stop-color="#d9b94b"/><stop offset=".506" stop-color="#fff"/><stop offset=".522" stop-color="#f9b572"/><stop offset=".702" stop-color="#cd8b38"/><stop offset="1" stop-color="#f7de85"/></linearGradient><linearGradient id="Z" x1="-819.2" x2="819.2" gradientTransform="matrix(.0036 .0004 -.0002 .0013 1.75 -1.85)" gradientUnits="userSpaceOnUse" spreadMethod="pad"><stop offset="0" stop-color="#b90b2e"/><stop offset="1" stop-color="#89001c"/></linearGradient><linearGradient id="aa" x1="-819.2" x2="819.2" gradientTransform="matrix(.0036 .0004 -.0002 .0013 1.75 -1.85)" gradientUnits="userSpaceOnUse" spreadMethod="pad"><stop offset="0" stop-color="#8c0822"/><stop offset="1" stop-color="#640014"/></linearGradient><linearGradient id="ac" x1="-819.2" x2="819.2" gradientTransform="matrix(.0018 .0002 -.0002 .0019 3.25 .25)" gradientUnits="userSpaceOnUse" spreadMethod="pad"><stop offset="0" stop-color="#b90b2e"/><stop offset="1" stop-color="#89001c"/></linearGradient><linearGradient id="af" x1="-819.2" x2="819.2" gradientTransform="matrix(-.0015 -.0003 .0004 -.0018 -.3 -.35)" gradientUnits="userSpaceOnUse" spreadMethod="pad"><stop offset="0" stop-color="#b90b2e"/><stop offset="1" stop-color="#89001c"/></linearGradient><linearGradient id="ag" x1="-819.2" x2="819.2" gradientTransform="matrix(-.0015 -.0003 .0004 -.0018 -.3 -.35)" gradientUnits="userSpaceOnUse" spreadMethod="pad"><stop offset="0" stop-color="#8c0822"/><stop offset="1" stop-color="#640014"/></linearGradient><linearGradient id="am" x1="-819.2" x2="819.2" gradientTransform="matrix(.0018 .0002 -.0002 .0019 3.25 .25)" gradientUnits="userSpaceOnUse" spreadMethod="pad"><stop offset="0" stop-color="#8c0822"/><stop offset="1" stop-color="#640014"/></linearGradient><linearGradient id="an" x1="-819.2" x2="819.2" gradientTransform="matrix(.0023 .0003 -.0002 .0015 .15 2.3)" gradientUnits="userSpaceOnUse" spreadMethod="pad"><stop offset="0" stop-color="#89001c"/><stop offset="1" stop-color="#b90b2e"/></linearGradient><linearGradient id="as" x1="-819.2" x2="819.2" gradientTransform="matrix(.0023 .0003 -.0002 .0015 .15 2.3)" gradientUnits="userSpaceOnUse" spreadMethod="pad"><stop offset="0" stop-color="#8c0822"/><stop offset="1" stop-color="#640014"/></linearGradient><g id="a" fill-rule="evenodd"><path fill="url(#h)" d="m21.5 19.95-.35.15q-.2 0-.3-.15l-.15-.35v-.15l.15-.15q.1-.15.3-.15t.35.15l.1.3z" transform="translate(1.45 -14.1)"/><path fill="url(#i)" d="m8.7 14.15.1.05.1.1.05.1v.15l-.15.3-.3.15-.35-.15-.1-.1-.05-.2.15-.35.35-.1z" transform="translate(1.45 -14.1)"/><path fill="url(#j)" d="m7.5 15.35.1.1.05.05v.15L7.5 16l-.3.15-.35-.15-.05-.1-.05-.05-.05-.2.15-.3q.15-.15.35-.15.15 0 .3.15" transform="translate(1.45 -14.1)"/><path fill="url(#k)" d="m6.45 16.55-.15.3-.35.15-.3-.15-.1-.1-.05-.2q0-.2.15-.35l.3-.1.35.1.1.1.05.1z" transform="translate(1.45 -14.1)"/><path fill="url(#l)" d="M5.15 17.25v.15l-.15.3-.35.15-.3-.15-.05-.1-.05-.05-.05-.15.15-.35.3-.15.35.15.1.15z" transform="translate(1.45 -14.1)"/><path fill="url(#m)" d="m2.1 18.35.15.2v.15l-.15.3-.3.15-.35-.15-.05-.1-.05-.05-.05-.15q0-.2.15-.35t.35-.15q.15 0 .3.15" transform="translate(1.45 -14.1)"/><path fill="url(#n)" d="m2.8 18.3-.05-.15.15-.35q.15-.15.35-.15l.3.15.15.15v.2l-.15.3-.3.15-.35-.15-.05-.1z" transform="translate(1.45 -14.1)"/><path fill="url(#o)" d="m.7 18.8.15.2v.15l-.15.3-.3.15-.35-.15-.1-.1-.05-.2.15-.35.35-.1z" transform="translate(1.45 -14.1)"/><path fill="url(#p)" d="M16.45 18.15v-.2l.15-.15q.15-.15.3-.15l.35.15.15.35-.05.15-.05.05-.05.1-.35.15-.3-.15z" transform="translate(1.45 -14.1)"/><path fill="url(#q)" d="m15.8 17.05.15.35-.05.15-.05.05-.05.1-.3.15-.35-.15-.15-.3v-.15l.05-.05.1-.15q.15-.15.35-.15.15 0 .3.15" transform="translate(1.45 -14.1)"/><path fill="url(#r)" d="m17.9 18.55.15-.2.3-.15q.2 0 .35.15l.15.35-.05.15-.05.05-.05.1-.35.15-.3-.15-.15-.3z" transform="translate(1.45 -14.1)"/><path fill="url(#s)" d="M12.95 15.2q.2 0 .35.15l.15.3-.05.2-.05.05-.05.1-.35.15-.3-.15-.15-.35v-.15l.05-.05.1-.1z" transform="translate(1.45 -14.1)"/><path fill="url(#t)" d="m11.2 14.4.05-.1.1-.1.1-.05.2-.05.35.1.15.35-.05.2-.1.1-.35.15-.3-.15-.15-.3z" transform="translate(1.45 -14.1)"/><path fill="url(#u)" d="m14.2 16.1.3.1.15.35-.05.2-.1.1-.3.15-.35-.15-.15-.3v-.15l.05-.1.1-.1z" transform="translate(1.45 -14.1)"/><path fill="url(#v)" d="m19.75 18.7.35.1.15.35-.05.2-.1.1-.35.15q-.2 0-.3-.15l-.15-.3V19l.15-.2q.1-.1.3-.1" transform="translate(1.45 -14.1)"/><path fill="url(#w)" d="m-.55 19.6-.15.35-.3.15-.35-.15-.1-.35.1-.3.35-.15q.2 0 .3.15l.15.15z" transform="translate(1.45 -14.1)"/></g><g id="x" fill-rule="evenodd"><path fill="#edb0bd" d="m118.15 40.15-34.1 53.3L74.6 0z"/><path fill="#f2b8c8" d="M65.15 93.45 74.6 0l9.45 93.45z"/><path fill="#e13749" d="m31.05 40.15 34.1 53.3-12.7 11.75-17.7.5z"/><path fill="#e67c8c" d="m74.6 0-9.45 93.45-34.1-53.3z"/><path fill="#f2b8c8" d="m96.75 105.2 17.7.5-1.9 33.35z"/><path fill="#ed94a8" d="m112.55 139.05 1.9-33.35 34.7 1.05z"/><path fill="#da829a" d="m84.05 93.45 34.1-53.3-3.7 65.55-17.7-.5z"/><path fill="#e66579" d="m149.15 106.75-34.7-1.05 3.7-65.55z"/><path fill="#950a37" d="m47.55 205 11.65 7.1-14.9 38.2-22.85-14z"/><path fill="#cb5b79" d="m90 212.1 14.85 38.2H44.3l14.9-38.2z"/><path fill="#ed94a8" d="m112.55 184.55 36.6 11.6-47.5 8.85z"/><path fill="#e15463" d="m90 212.1 11.65-7.1 26.1 31.3-22.9 14z"/><path fill="#e68b99" d="m127.75 236.3-26.1-31.3 47.5-8.85z"/><path fill="#cb4366" d="M34.75 105.7 0 106.75l31.05-66.6z"/><path fill="#e67e8e" d="M149.15 106.75v89.4l-36.6-11.6v-45.5z"/><path fill="#950a37" d="m34.75 105.7 1.9 33.35L0 106.75z"/><path fill="#71454d" d="m47.55 205-26.1 31.3L0 196.15z"/><path fill="#cb647f" d="m0 106.75 36.65 32.3v45.5L0 196.15z"/><path fill="#ed94a8" d="m36.65 139.05-1.9-33.35 17.7-.5z"/><path fill="#e66579" d="m0 196.15 36.65-11.6L47.55 205z"/><path fill="#ffcdda" d="m36.65 139.4 15.8-33.85 12.7-11.75h18.9l12.7 11.75 15.8 33.85v45.5l-10.9 20.45-11.65 7.1H59.2l-11.65-7.1-10.9-20.45z"/></g><g id="c" fill-rule="evenodd"><path fill="url(#y)" d="M14.8 11.5q0 .2.15.2l.4-.25v.2q.75-.35.95-.35l.2.2.4-.55.2-.1q.45 1.25 1.4 1.45 0 .55-.55.6-.6.05-.65-.3l-.05.25-.25-.25-.05-.05v.1l-.1.05-.3-.25-.1.1-.25-.3.05.45-.05.1-.15-.2v.5l-.05.15-.05-.2-.1-.05-.05.4-.25-.15-.15.3L15 13l-.25.25-.55-.65h-.05l.05.1v.55l-.15-.25h-.1l.1.25v.3l-.1.1-.2-.15-.05.3-.15-.15-.15.3-.35-.2-.2.15-.3-.4-.05-.1-.05.15q-.2 0-.45-.7h-.05l.05.25-.2.4-.2-.45-.15.65-.2-.2-.15.45-.2-.15-.2.25-.3-.4v.15l-.25-.3L10 13l-.15.5-.25.3v-.15l-.3.4-.2-.25-.2.15-.15-.45-.2.2-.15-.65-.2.45-.2-.4.05-.25H8l-.45.7-.05-.15-.05.1-.3.4-.2-.15-.35.2-.15-.3-.15.15-.05-.3-.25.15-.05-.1v-.3L6 13h-.05l-.15.25v-.55l.05-.1H5.8l-.55.65L5 13l-.4.55-.15-.3-.25.15-.05-.4-.1.05-.05.2-.05-.15v-.5l-.15.2-.05-.1.05-.45-.25.3-.1-.1-.3.25-.1-.05v-.1L3 12.6l-.25.25-.05-.25-.55.35q-.7.1-.75-.5 1.05-.35 1.5-1.6l.2.1.4.55.2-.2q.2 0 .95.35v-.2l.4.25.15-.2 1.45.15L10 11.2l3.35.45z" transform="translate(-1.4 -5.05)"/><path fill="url(#z)" d="m14.65 7.7-.05.35h.35q.1-.45.35-.45l.25.15.3-.15 1.45 1.05.05.15.1 1q0 .8-.35 1.15l-.2.1-.2.15-.4.15-.95.25v-.1l-.4.15-.15-.1-1.45.05-3.35-.35-3.35.35-1.45-.05-.15.1-.4-.15v.1l-.95-.25-.15-.15-.45-.15-.2-.1q-.35-.35-.35-1.15l.1-1v-.05l.05-.1L4.15 7.6l.3.15.25-.15q.25 0 .35.45h.35l-.05-.35h.45l.05.1h.1l-.15.25.35.25h.4l-.1-.2V8h.35l.2.15.05.05-.1.1.65.3-.1-.25h.55l.1.05v.05l.2.55H9l-.2-.3.05-.05.5.35.65-.1.65.1.5-.35.05.05-.2.3h.65l.2-.55V8.4l.1-.05h.55l-.1.25q.3-.05.65-.3l-.1-.1.05-.05.2-.15h.35v.1l-.1.2h.4l.35-.25-.15-.25h.1l.05-.1z" transform="translate(-1.4 -5.05)"/><path fill="url(#A)" d="m15.7 9.35.85.15L16 8.45zm.15 1.15.05.05.05-.05.5-.7-.9-.2-.55.65zm.85-.25-.05-.25-.45.65.45.2zm-1.8 1.15-.05.2 1.55-.15h.1l.1-.35-.65-.2q-.5.45-1.05.5m.05-.9v.25l-.05.4.7-.35-.05-.05zm-.3-1.1h-.05l.2.5.45-.35zm-.2-.3.05.05.85.15.15-.3.2-.5h-1zm-.15-.6h-.25l.2.25zm.5-.3h.25l.8.05-.9-.7zm-1.45-.4.3.25.15-.4zm1.2-.2h-.5v.2l-.05.35-.05.1h.4zm.1-.4.3.1H15v.05q1.95.85 1.95 2.9V11l-.4.75-.15-.1-1.35.15-.05.05h-.4l-.1-.05-.05-.1.15-.4v-.05l.1-.5-.05-.35-.15-.15v-.15l.05-.1-.25-.65-.15-.15v-.1l-.5-.6-.15-.15-.45-.55-.1-.05-.05-.1V7.6l.1-.1.05.05 1.6-.4z" transform="translate(-1.4 -5.05)"/><path fill="url(#B)" d="m4.8 9.25.85-.15.05-.05-.25-.6h-1l.2.5zm-.5 1.2.85-.25-.55-.65-.9.2.5.7.05.05zm.25.3.7.35-.05-.4v-.25l-.6.25zm-1.1-.55.05.6.45-.2-.45-.65zm.2 1.2h.1l1.55.15-.05-.2q-.55-.05-1.05-.5l-.65.2zm-.45-.45v-.75q0-2.05 1.95-2.9v-.05h.05l.3-.1V7.1l1.6.4.05-.05.1.1v.05l-.05.1-.1.05-.45.55-.15.15-.5.6v.1l-.15.15-.25.65.05.1v.15l-.15.15-.05.35.1.5v.05l.15.4-.05.1-.1.05h-.4l-.05-.05-1.35-.15-.15.1zM4.45 9.3l-.3-.9-.55 1.05zM5.6 7.55l.2.65h.4l-.05-.1-.05-.35v-.2zm.25.9.05.25.2-.25zm-.5-.3L5.2 7.5l-.9.7.8-.05zm1.45-.4-.45-.15.15.4zm-1.3 1.6-.6.15.45.35.2-.5z" transform="translate(-1.4 -5.05)"/><path fill="url(#C)" d="m14.95 11.65-.15-.1-1.45.05-3.35-.35-3.35.35-1.45-.05-.15.1-.4-.15v.1l-.95-.25-.3-.3h-.3l-.2-.1q-.35-.35-.35-1.15l.1-1v-.05l1.9.5q1.45.7 2 .85l3.45.4h.1l3.45-.4 2-.85q1-.45 1.8-.45l.1 1q0 .8-.35 1.15l-.2.1-.25.3h-.35l-.95.25v-.1z" transform="translate(-1.4 -5.05)"/><path fill="url(#D)" d="m10.1 8.35.3-.4.4-.4.15-.15.05-.05q.2-.2.55-.35l.3-.2.45-.2h.05l.25-.1.65-.2.3-.1.5-.15h.6l.1.2.25.55-.9.2-.35.05h-.05l-.75.2-.3.15-.7.3-.3.2-1.55.95z" transform="translate(-1.4 -5.05)"/><path fill="url(#E)" d="m10.1 8.85-.1.05-1.65-1q-.15-.15-.3-.2l-.7-.3-.3-.15-.55-.15-.2-.05L5.9 7 5 6.8l.25-.55.1-.2h.6l.5.15.5.15.45.15.25.1h.05l.45.2.3.2.55.35.05.05.15.15.4.4.3.4.05-.05.05-.1.05.1.05.05z" transform="translate(-1.4 -5.05)"/><path fill="#cd92a6" d="M10.45.95 10.5.9l-.05-.05h-.15v-.1q.2-.3.6-.3h.1v.75l-.05.35h-.05l-.45.2.05-.35zm1.05-.4v-.1L11.35.3l.5-.25h.45v.3l-.15.8-.3.1-.65.2q.35-.25.3-.9m1.25-.3V0h.35l.7.45-.45.75-.1-.2h-.6zm-2.6 1.7q-.35.15-.55.35l.05-.15-.15-.55h-.1l.2-.3.25-.2h.05l.1.2.15.4zm3.1.7-.55-.7.9-.2 1 .2v.35l-.1.2-.05.05-.3.15-.25-.15q-.25 0-.35.45h-.35zM12.3 2l.45.75h-.1l.15.25-.35.25h-.4l.1-.2v-.1l-.6-.75zm-.7 1.1-.05.05.1.1q-.35.25-.65.3l.1-.25-.55-.65.7-.3.2.3zM4.55 1h-.6l-.1.2L3.4.45 4.1 0h.35v.25q-.1.55.1.75M4.9.35v-.3h.45l.5.25-.15.15v.1q-.05.65.3.9l-.45-.15-.5-.15zm1.3.3v-.2h.1q.4 0 .6.3v.1h-.15L6.7.9l.05.05-.05.45.05.35-.45-.2h-.05L6.2 1.2zm1 .65.05-.2h.1l.25.2.2.3h-.1q-.15 0-.15.55l.05.15-.55-.35V1.7zM3.95 2.65 4 3h-.35q-.1-.45-.35-.45l-.25.15-.3-.15-.05-.05-.1-.2v-.35l1-.2.9.2zM4.9 2l.2.05.55.15-.6.75v.1l.1.2h-.4L4.4 3l.15-.25h-.1zm1.05.35.7.3-.55.65.1.25-.65-.3.1-.1-.05-.05.15-.45z"/><path fill="#eebdc0" d="m10.45.95.05.45-.05.35-.3.2V1.7L10 1.3zm.5.6L11 1.2V.65l.5-.1q.05.65-.3.9zM12.3.35h.45v-.1l-.1.75-.5.15zm.4 1.6.55.7h-.45l-.05.1L12.3 2h.05zm-.55 1h-.35l-.2.15-.15-.45-.2-.3.3-.15zM4.45.25v.1h.45l.15.8-.5-.15q-.2-.2-.1-.75m1.25.3.5.1v.55l.05.35-.25-.1q-.35-.25-.3-.9m1.05.4.45.35-.15.4v.25l-.3-.2-.05-.35zm.95.65-.05.05.25.4-.1.45-.15-.15-.05-.05-.05-.15q0-.55.15-.55M3.95 2.65l.55-.7.4.05-.45.75-.05-.1zm1.7-.45.3.15-.2.3-.15.45-.2-.15h-.35z"/><path fill="url(#F)" d="m14 12.3.05-.15-.05-.1-.25.15.1.2zm-1.9-.15.05-.1-.1-.1h-.15l.1.25zm2.95-.6.35-.05.1-.05h.25l.95-.25h.15v-.05l.05-.1.2-.1.1.2q.45.85 1.3 1.05 0 .45-.55.5-.6.05-.65-.25l-.05.2-.25-.2-.05-.05v.1l-.1.05-.3-.25-.1.1-.25-.25.05.4-.05.05-.15-.15v.45l-.05.05-.05-.1-.1-.05-.05.3-.25-.15-.15.3-.4-.45-.25.15-.55-.5h-.05l.05.1v.4l-.15-.15h-.1l.1.15v.3l-.1.05-.2-.1-.05.25-.15-.15-.15.3-.35-.2-.2.15-.3-.35-.05-.1-.05.15q-.2 0-.45-.6h-.05l.05.25-.2.3-.2-.35-.15.5-.2-.15-.15.4-.2-.15-.2.2-.3-.35v.15l-.25-.25-.15-.4-.15.4-.25.25v-.15l-.3.35-.2-.2-.2.15-.15-.4-.2.15-.15-.5-.2.35-.2-.3.05-.25H8l-.45.6-.05-.15-.05.1-.3.35-.2-.15-.35.2-.15-.3-.15.15-.05-.25-.25.1-.05-.05v-.3L6 12.8h-.05l-.15.15v-.4l.05-.1H5.8l-.55.5L5 12.8l-.4.45-.15-.3-.25.15-.05-.3-.1.05-.05.1-.05-.05v-.45l-.15.15-.05-.05.05-.4-.25.25-.1-.1-.3.25-.1-.05v-.1l-.05.05-.25.2-.05-.2-.55.3q-.7.1-.75-.45 1.05-.3 1.5-1.35l.2.1.45.15.15.15.95.25v-.1l.4.15.15-.1 1.45.05 3.35-.35 3.35.35 1.5-.05zm-.5.5-.1-.1h-.15l.1.25.1-.05zm1.75-.4h-.05l.1.25.1-.05.05-.15.05-.05-.1-.1zm1.15.4.05.25.25-.15-.1-.1zm-.45-.1h-.2l.05.25.25-.15zm-1 .3.05-.1-.1-.1h-.15l.1.25zM4.35 12.2l-.1-.1H4.1l.1.25.1-.05zM4 11.8l-.1-.1h-.15l.1.25.1-.05zm-.9 0 .05.25.25-.15-.1-.1zm-.15.3-.1-.1h-.2l.05.25zm-.8 0 .05.25.25-.15-.1-.1zm6.15.15.05-.1-.1-.1H8.1l.1.25zm1.75.05-.2.05.1.25.2-.2zm-4.45-.2-.2.05.05.25.25-.2zm.55.05.05-.1-.1-.1h-.15l.1.25zm4.55.85-.1-.1h-.2l.05.25zm-.15-.45-.1-.1h-.15l.1.25.1-.05zm.7.4-.1-.1-.2.05.05.25zm.15-.55.05.25.25-.2-.1-.1zm1.25.05h-.25l.1.25.25-.15zm.5.4h-.2l.05.25.25-.15zm.6-.1-.2.05.1.25.2-.2zm1.2-.35.05.25.25-.15-.1-.1zm.55.1.1.25.1-.05.05-.15-.05-.1zm-10.85.1-.1-.1H4.4l.1.25.1-.05zm.45 0 .05-.1-.1-.1H4.9l.1.25zm1.35.05-.1-.1H6.2l.1.25.1-.05zm.05.45.25-.15-.1-.1h-.2zm.7-.05-.1-.1h-.2l.05.25zm.4-.25.25-.2-.1-.1-.2.05zm1.1-.2-.1-.1h-.2l.05.25zm.4.3-.1-.1h-.2l.05.25zm.55.05-.1-.1-.2.05.05.25z" transform="translate(-1.4 -5.05)"/><path fill="#e27e8b" d="m10.7 7.1-.1.05-.1-.25h.15l.1.1zm1.9.15-.15.1-.1-.2.25-.15.05.1zm.55-.25-.05.1-.1.05-.1-.25h.15zm1.45.2-.1.05-.1-.25h.15l.1.1zm1-.3.1.1-.25.15-.05-.25zm.45.1h.2l.1.1-.25.15zm-15.3.05h.2l.1.1-.25.15zm.8 0-.25.15-.05-.25h.2zm.15-.3h.2l.1.1-.25.15zm.9 0-.05.1-.1.05-.1-.25h.15zm.35.4-.05.1-.1.05-.1-.25h.15zm1.8-.05-.1.05-.1-.25h.15l.1.1zm-.55-.05.1.1-.25.2L4 7.1zm4.45.2.1.1-.2.2-.1-.25zM6.9 7.2l-.1.05L6.7 7h.15l.1.1zm1.35.7L8 8.1l-.05-.25.2-.05zm-.55-.05L7.45 8l-.05-.25h.2zm-.4-.3-.25.15L7 7.45h.2zm-1.1.2-.05-.25.2-.05.1.1zM5.8 8l-.25.15-.05-.25h.2zm-.7.05-.05-.25h.2l.1.1zm-.05-.45L5 7.7l-.1.05-.1-.25h.15zM3.7 7.55l-.1.05-.1-.25h.15l.1.1zm-.45 0-.05.1-.1.05-.1-.25h.15zm10.85-.1.2-.05.05.1-.05.15-.1.05zm-.55-.1h.2l.1.1-.25.15zm-1.2.35.1.1-.2.2-.1-.25zm-.6.1.1.1-.25.15-.05-.25zm-.5-.4.1.1-.25.15-.1-.25zM10 7.35l.2-.05.1.1-.25.2zm-.15.55-.25.2-.05-.25.2-.05zm-.7-.4-.05.1-.1.05-.1-.25h.15zm.15.45-.25.15L9 7.85h.2z"/><path fill="#691b1b" fill-opacity=".498" d="m11.5 4.05.4.15.85 1.05.95 1.95.55.95-1-.3-1.1-.05h-1.2L9.9 7.5l-.4-.2-.6.3h-.05l-.35.35-.65.35-.75.25q-.45.1-.7.3l-.6.3.15-.75.3-1.45.3-.6-.3.05H5.8l-.5-.2-.45-.05H4.4l.3-.35.65-.65.45-.35.2-.05v-.4l.1-.5.15-.4.25-.25v-.05h.05l.85-.25.2-.45.3-.35.3-.25h.05V1.8l.45-.15.5-.05.35.1.25.15.45.3.4.3.05.15.2.15.35.35v.05l.15.35.1.5zM9 3.35V3.3l-.05.05z"/></g><g id="G" fill-rule="evenodd"><path fill="url(#H)" d="m.35-2.1-.1.25-.25.1-.25-.1-.1-.25.1-.25.25-.1.25.1z" transform="translate(1.15 3.45)"/><path fill="url(#I)" d="m.25-3.35.1.25v.05l-.1.2-.25.1-.25-.1-.1-.2v-.05l.1-.25.25-.1z" transform="translate(1.15 3.45)"/><path fill="url(#J)" d="m0-.75-.25-.1-.1-.25.1-.25.25-.1.25.1.1.25-.1.25z" transform="translate(1.15 3.45)"/><path fill="#ed94a8" d="m1.85 3.7-.55.8-.15-1.45z"/><path fill="#f2b8c8" d="m1 4.5.15-1.45.15 1.45z"/><path fill="#e13749" d="m.5 3.7.5.8-.2.2H.55z"/><path fill="#e66579" d="M1.15 3.05 1 4.5l-.5-.8z"/><path fill="#f2b8c8" d="M1.5 4.7h.3l-.05.5z"/><path fill="#ed94a8" d="m1.75 5.2.05-.5h.55z"/><path fill="#da829a" d="m1.3 4.5.55-.8-.05 1h-.3z"/><path fill="#e66579" d="M2.35 4.7H1.8l.05-1z"/><path fill="#950a37" d="m.75 6.25.15.1-.2.6-.35-.2z"/><path fill="#cb1142" d="m1.4 6.35.25.6H.7l.2-.6z"/><path fill="#ed94a8" d="m1.75 5.95.6.15-.75.15z"/><path fill="#e13749" d="m1.4 6.35.2-.1.4.5-.35.2z"/><path fill="#e66579" d="m2 6.75-.4-.5.75-.15z"/><path fill="#cb1142" d="M.55 4.7H0l.5-1z"/><path fill="#e66579" d="m1.75 5.2.6-.5v1.4l-.6-.15z"/><path fill="#950a37" d="M.55 4.7v.5L0 4.7z"/><path fill="#712532" d="m.75 6.25-.4.5L0 6.1z"/><path fill="#cb1142" d="m0 4.7.55.5v.75L0 6.1z"/><path fill="#ed94a8" d="M.55 5.2v-.5H.8z"/><path fill="#e66579" d="m0 6.1.55-.15.2.3z"/><path fill="#ee9bb0" d="M.55 5.95V5.2l.25-.5.2-.2h.3l.2.2.25.5v.75l-.15.3-.2.1H.9l-.15-.1z"/></g><g id="K" fill-rule="evenodd"><path fill="url(#L)" d="M6.55-.55Q6.8.7 6.4 1.9q-.45 1.2-1.6 2L3.65 5.7q-.75.6-1.7.75l-1.9-.3Q-1 5.65-1.9 4.65q-.8-1-1.4-2.65l-.95-3.05-.95-3q-.65-1.55-1.45-2.4.95.45 2.9.8l5.6 1.15q2 .45 3.2 1.6 1.15 1 1.5 2.35" transform="translate(6.65 6.45)"/><path fill="#29380b" d="M10.8 3.6q.6 1 .2 2.35-.35 1.3-1.15 1.75l.95 1.2.05.15q.5-.15 1.05-1.4.65-1.2.55-2 .45.9-.15 2.2l-.65.85-.75.35.65 1.1-.15.1-.1.25-.7-.95-.85 1.05-1.25.75q-1.55.7-2.5 0 .85.15 2.35-.55l2.15-1.45L9.35 8l-.4.8-1.05.75q-1.6.8-2.95.55 1.1-.05 2.6-.9 1.55-.75 1.8-1.25l-1.4-1.6-.5.55-1.1.45L3.7 7.3 6.2 7q1.4-.3 1.7-.7L6.5 4.8q-.2.45-1.3.75L3.25 5.5l1.85-.2q1.05-.3 1.35-.55l-1.4-1.4q-.2.25-.65.35h-.95l.85-.15q.45-.05.75-.25L2.9 1.45 5.3 3l.2-.6q.05-.4-.05-.65l.2.7-.3.65 1.5 1.25.4-1.2V1.8q.35.6.3 1.5-.15.75-.6 1.15l1.4 1.5.55-1.6-.05-1.7q.5.75.35 1.9-.15 1-.7 1.5l1.25 1.5.85-1.85q.35-1.3.2-2.1"/></g><g id="M" fill-rule="evenodd"><path fill="url(#N)" d="m7.1-7.35.9.55 1.2 1.4v.05l.65 1.45.35 1.55V-.8L9.95.4 9.8.25l-.15-.1L9.5.2l-.05.1-.5.95L8.2 2h-.05l-.85.4-.15.05v.05l-.5.05L6 2.5h-.05l.1-.5v-.15l.7-.65q.75-.8.9-2.05Q8-3.45 5.55-5q-.9-.6-2-.85l-1.35-.2h-.05l-.2-.05-.35-.1-.15-.15-.05-.05.75.1h.15l.1-.05.05-.15.1-.2.05-.1.05-.05.5-.4 1.1-.35v-.05l.8-.05 1.3.1.15-.05.3.15h.1l.05.05z" transform="translate(10.55 10.95)"/><path fill="url(#O)" d="m-5.25-6.15.75-1.55v-.05l1.1-1.3 1.2-.95.05-.05v-.05l1.7-.65 2-.15h.05l1.2.35 1.05.55 1.6 1.05 1.45 1.2.2.4-.15-.1-.05-.05h-.1l-.3-.15-.15.05-1.3-.1-.8.05v.05l-1.1.35-.5.4-.05.05-.5-.15-1-.4q-1.85-.2-3.05.7l-1.15 1.4-2-.4-.15-.05-.05-.15v-.2z" transform="translate(10.55 10.95)"/><path fill="url(#P)" d="m1.4-6.4.05.05.15.15.35.1.2.05h.1q.75.3 1.2.8l.5.7L3-4.9l-.05-.05-.4-.35-.95-.35-1.95.2q-.9.35-1.5 1.05l-.1.05-.85.45-.05.05-1 .8-.2.2-.35.35.2-.45V-3l.15-.3H-4l.85-1.35.35-.35.15-.1.05-.05.2-.2v.05l.05-.05.25-.2.6-.35 1.9-.5.45-.05zM.8-4.65H.7l-.1.05-.05-.05.15-.05z" transform="translate(10.55 10.95)"/><path fill="url(#Q)" d="m2.6-6.8-.05.1-.1.2-.05.15-.1.05h-.15l-.75-.1-.55-.05-.45.05-1.9.5-.6.35-.25.2h-.05l-.2.2-.05.05h-.1l-.1-.05-.1-.05H-3l-.1-.05 1.15-1.4q1.2-.9 3.05-.7l1 .4z" transform="translate(10.55 10.95)"/><path fill="url(#R)" d="M2.95-4.95 3-4.9l.95.35.05.1v.05l.05.15v.05l.1.25.05.1-.05.05.1.1.35.3.5.6-.25-.2-.2-.2-.2-.1-.05-.05q-1.25-1.3-2.15-1.4L.7-4.7v-.05L.6-4.9l.05-.15.2-.1z" transform="translate(10.55 10.95)"/><path fill="url(#S)" d="M-1.85-4.4q.6-.7 1.5-1.05l1.95-.2.95.35.4.35-2.1-.2-.2.1-.05.15.1.15v.05l-.15.05L.3-4.7l-1.35.05z" transform="translate(10.55 10.95)"/><path fill="url(#T)" d="m2.95-3.55-.4-.15-.55.05h-.15l-.5-.6v-.05H1.3l-.1-.1-.5-.2v-.05h.1l.05.05 1.65.25.2.05 1.45.75.25.2.05.05.2.1.2.2.25.2.05.05q.65.85.9 1.8l.05.2h-.15L5.8-.6l-.05.1-.3-1.25-1-.95-.6-.6z" transform="translate(10.55 10.95)"/><path fill="url(#U)" d="M1.85-3.65H2l.55-.05.4.15-.7.3-.1.05-.05-.15zm2.6.95 1 .95.3 1.25-.05.1-.15-.15-.4-.95-.5-1H4.6z" transform="translate(10.55 10.95)"/><path fill="url(#V)" d="m2.2-6.05 1.35.2q1.1.25 2 .85Q8-3.45 7.65-.85 7.5.4 6.75 1.2l-.7.65.1-1.7L6.2.1l-.1-.85-.05-.2q-.25-.95-.9-1.8L5.1-2.8l-.5-.6-.35-.3-.1-.1.05-.05-.05-.1-.1-.25v-.05L4-4.4v-.05l-.05-.1-.5-.7q-.45-.5-1.2-.8z" transform="translate(10.55 10.95)"/><path fill="url(#W)" d="m4.4-3.35-.25-.2L2.7-4.3l-.2-.05L.85-4.6.8-4.65.7-4.7l1.55-.05q.9.1 2.15 1.4" transform="translate(10.55 10.95)"/><path fill="url(#X)" d="m2.95-3.55.9.25.6.6.15.2h.05l.5 1 .4.95.15.15L4.9.7l-.15-1v-.1L4.7-.45l-.1-.95v-.05q-.45-1.1-1.05-1.35l-1.4-.3v-.1l.1-.05z" transform="translate(10.55 10.95)"/><path fill="url(#Y)" d="m-4.4-2.5.35-.35.2-.2 1-.8.05-.05.85-.45.1-.05.8-.25L.3-4.7l.25.05.05.05h.1l.5.2.1.1h.05v.05l.5.6.25.3.05.15v.1l-.1.1-.1.05h-.2L1.6-3l-.8-.3q-.85-.1-1.55.65l-.6 1.3-.1-.05-.1-.1.05-.15.15-.4v-.05l.85-1.3v-.05l.3-.25.45-.15-.85.1-.55.3q-1.35.25-2 .9-.75.7-.95 2.45-.3 2.4 1.5 3.75 1.25.9 3.3 1.15h1.1l.3-.2h.05l.25-.05h.15l.05.05.05.1V5l-.7.7v.05l-.8.4H1.1v.05l-1.9-.05-1.75-.85-.3-.25-.1-.05-.55-.6-.6-.75-.65-.7-.65-.6h-.05l-.1-.15v-.1l-.1-.85.15-1.55v-.05l.1-.2.05-.25.15-.4h.05l.45-.75.25-.4v-.05z" transform="translate(10.55 10.95)"/><path fill="url(#Z)" d="M1.95-2.95Q3.55-2.2 4.4-.2l-.45-.2H3.9l-.6-.45-.65-.55L2-1.65l-.05-.05H1.8l-.05-.05-.15.05H.4l-1.55.45h-.2l-.1-.05v-.1l.1.05h.15l.1-.15.3-.4v-.05L.35-2.7l.05-.05h.05l.95-.2h.55" transform="translate(10.55 10.95)"/><path fill="url(#aa)" d="m2.15-3.1 1.4.3q.6.25 1.05 1.35v.05l.1.95.05.05-.05.1v.05l-.1.1h-.05L4.4-.2q-.85-2-2.45-2.75l.1-.05z" transform="translate(10.55 10.95)"/><path fill="url(#ab)" d="M1.75-2.95H1.4l-.95.2H.4l-.05.05-1.15.75v.05l-.3.4-.1.15h-.15l.6-1.3Q-.05-3.4.8-3.3l.8.3zm-3.4 6.45.6.4 1.3.6 1.85.1-.3.2H.7q-2.05-.25-3.3-1.15Q-4.4 2.3-4.1-.1q.2-1.75.95-2.45.65-.65 2-.9l-.45.3L-2.4-2v.05Q-3.05-.3-2.75 1.5l.25.85.5.8.05.05z" transform="translate(10.55 10.95)"/><path fill="url(#ac)" d="M4.75-.4v.1l.15 1-.1.1-.45-.4-.35.95-.3.45-1-2.4-.2-.25-.35-.4-.2-.25-.15-.1-.05-.15.05.05h.15l.05.05.65.25.65.55.6.45h.05l.45.2.15.05h.05l.1-.1V-.3z" transform="translate(10.55 10.95)"/><path fill="url(#ad)" d="M1.55-1.7h.05l.15-.05.05.15.15.1.2.25.45 1.6.15 1.3-.75.1-1.4.05-1.05-.25-.1-.05-.15-.05Q.1 1.3.7.6q.65-.85.8-1.9z" transform="translate(10.55 10.95)"/><path fill="url(#ae)" d="M1.4-1.7h.15l-.05.4Q1.35-.25.7.6q-.6.7-1.4.85l-.1-.2Q.4.45 1.35-1.6v-.05zm.75.45.35.4.2.25 1 2.4v.05l-.95.7-.2.1q-.15.05-.25.15v-.1h-.1v-.1l-.1-.05-1.2-.3-.65-.3-.35-.2-.35-.2L.6 1.8 2 1.75l.75-.1L2.6.35z" transform="translate(10.55 10.95)"/><path fill="url(#af)" d="M1.35-1.65v.05Q.4.45-.8 1.25l-.1-.05-.55-.55-.15-.1h-.15V.6l-.05.05.15-1.2.2-.15L.1-1.35z" transform="translate(10.55 10.95)"/><path fill="url(#ag)" d="m-1.45-1.3.1.05h.2L.4-1.7h1l-.05.05-1.25.3-1.55.65-.2.15z" transform="translate(10.55 10.95)"/><path fill="url(#ah)" d="m5.75-.5.05-.1.15-.15h.15l.1.85-.05.05V.9L5.6 2.2l-.35.6v.05l-.85.9-1.35.75-.2.05-.25.05-.05-.05H2.4l-.25.05H2.1L.25 4.5l-1.3-.6-.6-.4v-.05l.05-.05.15-.05h.05l.25.05.85-.05.85-.05H.6L1.8 3l.5-.2q.1-.1.25-.15l.2-.1.95-.7V1.8l.65-.55L4.8.8l.1-.1.8-1.1z" transform="translate(10.55 10.95)"/><path fill="url(#ai)" d="m9.95.4.15.1v.05l.3.65q.3.85.15 1.8l-.35 1.1-.55.95-.8.85-1.6 1.05L4.7 8.2l-.05-.15V8l-.1-.05h-.2l-2.1.2-1-.15h-.2l-.1-.05-.6-.25-.05-.05-.55-.45-.4-.4 2.3.1 1.45-.2.9-.25 1.5-.35q1.8-.6 2-2.15L7.4 2.8l-.1-.4.85-.4h.05l.75-.75.5-.95.05-.1.15-.05.15.1z" transform="translate(10.55 10.95)"/><path fill="url(#aj)" d="M6.05 1.85V2l-.1.5-.1.05-.15.1v.05l-.25.6-.25.25v.05l-.05.15-.05.05.15.2.2.2.05.15-.15.2v.05l-.55.35-.75.3-.45-.05-.05-.05-.35-.3V4.8l-.15-.3 1.35-.75.85-.9V2.8l.35-.6.55-1.3V.15z" transform="translate(10.55 10.95)"/><path fill="url(#ak)" d="M5.95 2.5H6l.65.05.5-.05v-.05l.15-.05.1.4.1 1.15q-.2 1.55-2 2.15L4 6.45l.5-.15.05-.05.7-.45h.05l.3-.45.1-.45-.1-.4-.1-.15-.05-.15-.2-.2-.15-.2.05-.05.05-.15v-.05l.25-.25.25-.6v-.05l.15-.1z" transform="translate(10.55 10.95)"/><path fill="url(#al)" d="m3.05 4.5.15.3v.05l.35.3.05.05.45.05.75-.3.55-.35v-.05l.15-.2.1.15.1.4-.1.45-.3.45h-.05l-.7.45-.05.05-.5.15-.9.25-1.45.2-2.3-.1-.05-.15-.1-.1-.1-.05-.65-.15-1.55-.6h-.15l-.1.05h-.05l-.1-.1h-.05l-.5-.4-.75-.95-.15-.4L-3.5 5l.3.2h.05l.1.05.15-.15h.05v-.05l.3.25 1.75.85 1.9.05v-.05h.05l.8-.4V5.7l.7-.7v-.3l-.05-.1.25-.05z" transform="translate(10.55 10.95)"/><path fill="url(#am)" d="m3.7 1.8.3-.45.35-.95.45.4-.45.45z" transform="translate(10.55 10.95)"/><path fill="url(#an)" d="m-.8 1.25.1.2.15.05.1.05.35.2.35.2.65.3 1.2.3.1.05v.1h.1v.1l-.5.2-1.2.3H.55l-.85.05-.85.05-.4-.7q-.3-.85-.15-2.15h.1l.15.1.55.55z" transform="translate(10.55 10.95)"/><path fill="url(#ao)" d="M4.7 8.2v.05l-.1.1q-2.35 1.9-4.2 2.4-2.4.65-4.8-.6h-.05l-1.4-1.05-1.25-1.3-.15-.25-.6-.95-.25-.65V5.9l.05-.15V5.7l.05-.05.85.45.05.05 1.5.4 1.1.35 1.35-.05.85-.1 1.2.55 2 .65h.05l.1.05h.2l1 .15 2.1-.2h.2l.1.05v.05z" transform="translate(10.55 10.95)"/><path fill="url(#ap)" d="m-.65 6.8.4.4.55.45.05.05.6.25H.9l-2-.65-1.2-.55-.85.1-1.35.05-1.1-.35 1 .15 1-.1v-.05h.05l.45-.15.1-.15V6.1l-.1-.15-.3-.15h.05l.1-.05h.15l1.55.6.65.15.1.05.1.1z" transform="translate(10.55 10.95)"/><path fill="url(#aq)" d="m-8 5.65-.4-.3-1.05-1.05-.6-.95-.35-1.2-.15-1.25.05-1.9.35-1.8v-.05l.6-1.25.9-1.05.05-.05h.05q1.25-.95 3.3-.95l-.05.1v.2l.05.15.15.05 2 .4.1.05h.05l.1.05.1.05h.1l-.15.1q-.9.05-1.85 1.5-.85 1.25-.95 2.15l-.05.05-.8.1-.15.1-.65.45-.35 1Q-7.75 1.4-7 2.3l1.1 1.3 1.05 1.3.8.4.5.4h.05l.1.1.3.15.1.15v.15l-.1.15-.45.15h-.05v.05l-1 .1-1-.15-1.5-.4-.05-.05zm5.65-11-.05.05v-.05z" transform="translate(10.55 10.95)"/><path fill="url(#ar)" d="m-2.8-5-.35.35L-4-3.3h-.05l-.15.3v.05l-.2.45-.05.1v.05l-.25.4-.45.75h-.05l-.2-.1h-.25l.05-.05q.1-.9.95-2.15Q-3.7-4.95-2.8-5m-2.15 8.95.15.4.75.95-.8-.4-1.05-1.3L-7 2.3q-.75-.9-.6-1.95l.35-1 .65-.45v.05l-.5.5-.1.55.1.6-.05.05.55.95.7.8-.05.05.85.75.05.15H-5l-.05.1z" transform="translate(10.55 10.95)"/><path fill="#ec3459" d="M7.7 16v.05h-.05l-.15.15-.1-.05h-.05l-.3-.2L5.6 14.9l-.1-.5.05-.1H5.5l-.05-.15-.85-.75.05-.05-.7-.8-.55-.95.05-.05-.1-.6.1-.55.5-.5v.15q.05.05-.05.15l-.2.3-.1.65v.05l.4.8.85.9.15.15v.1l.1.15h.05l.65.6.65.7.6.75.55.6z"/><path fill="#f61845" d="m3.95 9.85.15-.1.8-.1h.25l.2.1-.15.4-.05.25-.1.2v.05L4.9 12.2l.1.85-.15-.15L4 12l-.4-.8v-.05l.1-.65.2-.3q.1-.1.05-.15v-.2"/><path fill="#b90b2e" d="M9.1 9.55v.1l-.2.75-.15 1.2H8.7l-.05.1-.05.05v2.4l-.05-.05-.5-.8-.25-.85q-.3-1.8.35-3.45v-.05l.8-1.15.45-.3.55-.3.85-.1-.45.15-.3.25v.05l-.85 1.3v.05l-.15.4-.05.15z"/><path fill="url(#as)" d="m-1.15 3.4-.25-.05h-.05l-.15.05-.05.05v.05l-.3-.3V.8l.05-.05.05-.1h.05l.05-.05V.55h.05q-.15 1.3.15 2.15z" transform="translate(10.55 10.95)"/></g><use ffdec:characterId="6" xlink:href="#x" id="b" width="149.15" height="250.3"/><use ffdec:characterId="9" xlink:href="#G" id="e" width="2.35" height="6.95"/><use ffdec:characterId="11" xlink:href="#K" id="f" width="13.3" height="12.9"/><use ffdec:characterId="13" xlink:href="#M" id="g" width="21.15" height="21.9"/></defs></svg>