<?xml version="1.0" encoding="UTF-8" standalone="no"?>
<svg xmlns:ffdec="https://www.free-decompiler.com/flash" xmlns:xlink="http://www.w3.org/1999/xlink" ffdec:objectType="frame" height="12.3px" width="11.65px" xmlns="http://www.w3.org/2000/svg">
  <g transform="matrix(1.0, 0.0, 0.0, 1.0, 0.3, -1.8)">
    <use ffdec:characterId="4" height="11.65" id="Color" transform="matrix(1.0, 0.0, 0.0, 1.0, -0.3, 2.45)" width="9.5" xlink:href="#sprite0"/>
    <use ffdec:characterId="5" height="12.3" transform="matrix(1.0, 0.0, 0.0, 1.0, -0.3, 1.8)" width="11.65" xlink:href="#shape1"/>
  </g>
  <defs>
    <g id="sprite0" transform="matrix(1.0, 0.0, 0.0, 1.0, -0.55, -0.35)">
      <use ffdec:characterId="3" height="11.65" transform="matrix(1.0, 0.0, 0.0, 1.0, 0.55, 0.35)" width="9.5" xlink:href="#shape0"/>
    </g>
    <g id="shape0" transform="matrix(1.0, 0.0, 0.0, 1.0, -0.55, -0.35)">
      <path d="M7.5 12.0 L0.6 1.25 Q0.45 0.7 0.9 0.45 L1.7 0.4 Q2.4 0.55 4.75 3.0 7.7 5.95 10.0 9.6 10.4 10.2 7.5 12.0" fill="#cccccc" fill-rule="evenodd" stroke="none"/>
    </g>
    <g id="shape1" transform="matrix(1.0, 0.0, 0.0, 1.0, 0.3, -1.8)">
      <path d="M9.45 3.35 L10.75 3.5 Q11.9 4.65 10.9 7.0 9.55 10.0 4.45 10.7 L3.55 9.35 Q7.55 9.0 8.9 6.4 9.75 4.8 9.45 3.35" fill="#996600" fill-rule="evenodd" stroke="none"/>
      <path d="M3.55 9.35 L0.6 4.9 Q-1.05 1.95 0.3 2.0 7.35 1.2 9.45 3.35 9.75 4.8 8.9 6.4 7.55 9.0 3.55 9.35" fill="#7b5812" fill-rule="evenodd" stroke="none"/>
      <path d="M8.4 13.1 L6.5 14.1 Q1.95 7.35 0.7 5.15 -0.6 2.7 0.0 2.0 5.55 2.2 8.4 13.1" fill="#000000" fill-opacity="0.29803923" fill-rule="evenodd" stroke="none"/>
    </g>
  </defs>
</svg>
