<?xml version="1.0" encoding="UTF-8" standalone="no"?>
<svg xmlns:ffdec="https://www.free-decompiler.com/flash" xmlns:xlink="http://www.w3.org/1999/xlink" ffdec:objectType="frame" height="27.25px" width="22.3px" xmlns="http://www.w3.org/2000/svg">
  <g transform="matrix(1.0, 0.0, 0.0, 1.0, 1.2, -0.6)">
    <use ffdec:characterId="3" height="27.25" transform="matrix(1.0, 0.0, 0.0, 1.0, -1.2, 0.6)" width="22.3" xlink:href="#shape0"/>
  </g>
  <defs>
    <g id="shape0" transform="matrix(1.0, 0.0, 0.0, 1.0, 1.2, -0.6)">
      <path d="M10.95 2.85 L11.1 2.95 12.25 1.85 13.15 1.8 Q13.05 3.0 13.3 3.4 14.85 5.95 14.5 8.8 14.4 11.05 13.7 13.05 L13.2 14.45 Q12.3 17.35 10.1 19.45 7.45 17.25 6.75 13.95 6.3 11.8 6.35 9.7 L6.45 8.25 Q6.8 5.65 6.15 1.9 L8.1 1.9 8.55 2.55 9.15 3.0 9.45 2.6 10.0 2.75 10.1 2.75 10.25 2.8 10.4 2.7 10.75 3.0 10.95 2.85" fill="#f2f2f2" fill-rule="evenodd" stroke="none"/>
      <path d="M10.2 2.75 L10.3 2.85 10.2 3.15 10.35 3.35 Q10.65 2.95 10.8 2.95 10.95 2.95 10.95 3.05 L12.05 2.0 12.2 1.85 12.5 1.9 13.25 1.9 12.55 2.75 Q11.65 3.65 10.8 3.65 L10.5 3.65 9.1 3.75 Q8.0 3.75 7.35 2.75 L7.0 1.95 7.55 2.0 8.05 1.9 8.15 2.05 Q8.8 3.05 9.25 3.05 L9.65 2.7 9.8 2.85 10.05 2.75 10.2 2.75 M7.95 14.65 Q7.15 13.5 6.65 11.15 L6.6 10.85 6.35 9.75 Q6.0 7.8 6.0 6.3 L6.45 5.55 6.4 5.55 6.45 5.55 Q6.6 5.45 6.85 5.3 L7.85 4.55 Q8.85 3.9 9.45 4.0 L9.1 4.4 9.15 4.45 9.1 4.6 9.4 5.1 Q9.8 5.85 10.15 5.85 10.55 5.85 10.65 5.3 L10.75 4.65 10.95 4.45 10.9 4.45 Q11.15 3.8 12.05 4.55 L13.65 5.9 13.4 6.05 13.05 6.0 13.05 6.05 13.25 7.25 Q13.25 8.2 13.5 8.55 L13.75 9.2 13.85 9.25 13.85 9.45 13.9 9.4 Q14.4 9.4 14.4 9.95 L13.15 13.0 Q13.15 13.8 12.75 14.45 11.9 15.7 9.65 15.7 8.8 15.7 8.2 14.95 L8.25 14.95 10.0 13.7 11.05 14.4 12.15 14.85 12.35 14.75 Q12.15 14.25 11.25 13.85 L10.1 13.2 9.1 13.85 7.95 14.65 M11.75 5.1 Q11.25 7.1 10.05 7.0 8.85 6.85 8.55 6.0 L8.3 5.05 7.85 5.25 Q7.55 5.35 7.5 5.6 L7.4 6.1 Q7.2 6.9 7.45 8.45 7.7 9.95 8.5 10.95 9.3 11.9 11.15 11.9 11.6 11.9 12.3 11.2 L12.7 10.0 12.65 7.6 12.3 5.75 12.05 5.35 11.75 5.1" fill="#000000" fill-opacity="0.2" fill-rule="evenodd" stroke="none"/>
      <path d="M8.2 14.95 L8.05 14.9 7.95 14.65 9.1 13.85 10.1 13.2 11.25 13.85 Q12.15 14.25 12.35 14.75 L12.15 14.85 11.05 14.4 10.0 13.7 8.25 14.95 8.2 14.95" fill="#000000" fill-opacity="0.6" fill-rule="evenodd" stroke="none"/>
      <path d="M3.5 0.9 L3.55 0.9 3.55 0.95 3.5 0.9" fill="#e5e5e5" fill-rule="evenodd" stroke="none"/>
      <path d="M12.8 4.2 L16.7 7.55 Q17.85 9.85 18.8 12.9 20.3 17.5 21.1 25.4 L16.0 27.7 15.85 26.1 Q14.9 21.15 13.85 13.75 13.65 9.2 12.75 4.35 L12.8 4.2 M1.45 11.9 Q2.95 8.5 4.5 6.6 L7.0 3.8 7.1 4.2 Q6.9 9.4 5.8 14.6 4.35 23.4 4.0 26.8 L3.9 27.8 -1.2 25.4 Q-0.4 17.5 1.1 12.9 L1.45 11.9" fill="#333333" fill-rule="evenodd" stroke="none"/>
      <path d="M13.75 1.35 L14.0 0.7 16.4 1.0 14.5 3.9 12.75 3.9 13.35 2.4 13.75 1.35 M7.25 3.9 L5.45 3.9 4.0 1.75 3.85 1.05 3.85 0.95 5.8 0.7 6.45 2.1 7.25 3.9" fill="#ffffff" fill-opacity="0.29803923" fill-rule="evenodd" stroke="none"/>
      <path d="M17.5 11.9 L17.5 12.1 17.6 12.65 17.5 12.95 17.55 12.9 17.3 13.9 Q17.15 14.9 16.15 15.6 L16.1 15.65 16.15 14.7 Q16.3 14.1 17.15 13.1 L17.2 13.05 17.25 13.2 17.25 13.15 17.2 12.95 17.4 11.9 17.5 11.9" fill="#000000" fill-opacity="0.2" fill-rule="evenodd" stroke="none"/>
      <path d="M17.1 8.4 L17.15 8.5 16.55 11.1 Q15.65 15.0 15.65 16.05 L15.65 16.5 16.05 16.25 16.6 15.95 16.9 15.65 Q17.3 15.25 17.45 15.2 L16.8 16.15 15.75 17.65 15.75 17.7 15.7 17.75 15.8 18.0 Q15.95 19.4 16.45 20.7 L17.4 20.0 Q18.05 20.0 18.05 20.75 18.05 21.3 17.55 21.65 L17.0 21.9 17.9 23.45 20.0 25.9 18.35 26.7 16.1 27.65 Q15.9 27.7 16.05 27.6 L15.75 26.25 15.55 24.95 Q15.4 24.25 15.05 24.45 L15.0 24.1 14.4 20.25 14.6 19.05 14.4 16.0 Q14.4 14.2 14.55 13.8 L15.4 10.6 15.9 7.9 Q16.0 7.05 16.7 6.25 L16.8 6.2 17.05 6.65 17.0 6.7 16.7 7.55 17.1 8.4 M3.65 7.55 L3.6 7.1 3.75 7.1 Q4.4 7.1 4.45 7.7 L4.35 8.1 4.45 8.9 4.45 9.1 5.3 12.55 5.7 14.25 5.9 14.35 Q6.35 14.7 6.35 15.2 L6.15 16.4 6.35 17.65 Q6.35 18.55 5.85 18.65 L5.55 20.25 5.5 20.75 Q4.95 20.8 4.7 22.4 L4.45 24.6 4.2 26.45 4.05 27.8 2.35 27.15 0.15 25.95 Q2.05 25.35 3.4 22.35 L3.7 21.65 3.4 21.65 Q2.45 21.65 2.2 20.95 L2.1 20.3 2.15 19.95 2.4 19.95 3.0 19.7 3.35 20.35 3.8 20.0 4.2 19.9 4.3 19.9 4.55 18.3 4.6 18.05 4.6 17.7 4.0 17.2 Q3.5 16.65 3.5 16.3 L3.55 16.2 4.4 16.7 4.55 16.8 Q4.45 16.2 3.2 14.6 L3.15 14.55 2.95 13.65 2.95 12.95 4.15 14.55 3.85 13.1 Q3.2 10.35 3.15 8.75 L3.15 8.7 3.35 8.35 3.65 7.55" fill="#000000" fill-opacity="0.4" fill-rule="evenodd" stroke="none"/>
      <path d="M3.9 9.8 Q3.95 9.6 4.15 9.55 L4.55 9.55 4.8 9.8 4.85 10.2 Q3.85 12.6 3.2 15.1 L2.1 19.6 Q1.7 21.5 1.15 26.5 L1.1 26.5 0.2 26.0 1.1 19.4 Q1.5 17.35 2.25 14.85 2.85 12.3 3.9 9.8 M16.0 9.55 L16.3 9.85 Q18.7 15.95 19.2 19.95 L19.95 26.05 19.9 26.05 18.95 26.4 18.2 20.1 Q17.7 16.15 15.35 10.2 L15.35 9.8 15.65 9.55 16.0 9.55" fill="#000000" fill-opacity="0.4" fill-rule="evenodd" stroke="none"/>
      <path d="M11.05 2.95 Q11.5 3.6 11.5 4.5 L11.5 4.8 11.05 6.05 Q10.6 6.7 10.0 6.7 9.4 6.7 8.95 6.05 8.5 5.4 8.5 4.55 L8.5 4.5 Q8.5 3.6 8.95 2.95 L9.05 2.85 Q9.45 2.3 10.0 2.3 10.55 2.3 11.0 2.85 L11.05 2.95 M10.65 3.75 L10.5 3.35 Q10.35 3.2 10.1 3.2 9.9 3.2 9.7 3.35 L9.55 3.75 9.7 4.1 10.1 4.3 10.5 4.1 10.65 3.75 M4.0 21.0 Q3.75 21.35 3.25 21.35 L2.5 21.0 Q2.15 20.75 2.15 20.25 2.15 19.75 2.5 19.5 2.85 19.2 3.25 19.2 3.75 19.2 4.0 19.5 4.35 19.75 4.35 20.25 L4.1 20.9 4.1 20.95 4.0 21.0 M16.75 19.3 Q17.15 19.3 17.5 19.65 L17.8 20.4 17.5 21.1 Q17.15 21.45 16.75 21.45 16.4 21.45 16.15 21.25 L16.05 21.15 16.0 21.1 15.85 21.0 15.65 20.4 Q15.65 19.9 16.0 19.65 16.25 19.3 16.75 19.3" fill="#cc9933" fill-rule="evenodd" stroke="none"/>
      <path d="M10.65 3.75 L10.5 4.1 10.1 4.3 9.7 4.1 9.55 3.75 9.7 3.35 Q9.9 3.2 10.1 3.2 10.35 3.2 10.5 3.35 L10.65 3.75" fill="#ffffff" fill-rule="evenodd" stroke="none"/>
      <path d="M16.3 1.5 L15.4 4.65 15.4 4.85 14.45 4.4 13.5 4.0 12.8 3.65 12.9 3.45 Q13.5 3.0 14.8 2.3 L16.3 1.5 M17.2 6.3 L17.15 6.65 16.8 8.25 16.75 8.35 14.6 17.05 13.4 9.9 12.9 6.2 12.6 4.1 14.65 4.9 16.1 5.65 17.2 6.3 M7.35 4.05 L7.15 5.7 6.55 10.0 5.35 17.0 3.1 7.85 2.9 7.2 4.9 5.8 7.35 4.05 M5.1 5.25 L4.3 2.95 4.1 2.2 4.05 2.0 7.25 3.85 5.1 5.25" fill="#914f00" fill-rule="evenodd" stroke="none"/>
      <path d="M12.9 3.45 L13.5 2.05 14.15 0.65 16.45 0.95 16.3 1.5 14.8 2.3 Q13.5 3.0 12.9 3.45 M15.4 4.85 L15.4 4.9 17.1 6.2 17.2 6.3 16.1 5.65 14.65 4.9 12.6 4.1 12.6 4.05 12.8 3.65 13.5 4.0 14.45 4.4 15.4 4.85 M4.05 2.0 L3.85 1.05 3.85 0.85 5.8 0.6 6.45 2.0 7.3 3.85 7.3 3.9 7.35 4.0 7.35 4.05 4.9 5.8 2.9 7.2 2.75 6.9 3.25 6.6 4.3 5.85 5.1 5.35 5.1 5.25 7.25 3.85 4.05 2.0" fill="#513624" fill-rule="evenodd" stroke="none"/>
      <path d="M13.15 10.45 L13.3 11.45 12.1 14.2 13.5 12.65 13.55 12.75 Q13.1 13.4 13.05 14.2 13.3 15.4 13.75 14.2 L13.8 14.4 14.3 17.95 14.65 20.95 15.15 24.8 15.3 27.1 15.25 27.1 12.8 27.85 12.0 27.05 10.6 25.65 Q10.2 24.2 10.15 22.55 L10.15 19.25 10.75 18.1 Q11.65 16.15 11.6 15.05 L10.2 17.95 10.25 17.0 11.85 13.35 13.15 10.45 M4.65 27.0 L4.8 25.5 5.15 21.55 5.6 17.65 Q5.75 15.75 6.2 13.75 L6.25 13.7 6.4 13.75 6.85 13.8 6.8 13.35 6.4 12.9 6.5 12.5 6.6 12.6 Q7.4 13.2 7.75 13.9 L7.75 13.8 6.65 11.8 6.9 10.7 8.0 13.15 8.1 13.4 9.75 16.95 9.85 17.75 8.45 15.05 Q8.7 17.3 9.85 18.7 L9.95 18.85 9.95 19.85 9.8 23.75 9.7 25.5 8.05 27.1 7.3 27.8 4.65 27.0" fill="#333333" fill-rule="evenodd" stroke="none"/>
      <path d="M15.3 27.1 L15.15 24.8 14.65 20.95 14.3 17.95 13.8 14.4 13.75 14.2 Q13.3 15.4 13.05 14.2 13.1 13.4 13.55 12.75 L13.5 12.65 12.1 14.2 13.3 11.45 13.15 10.45 13.4 9.9 13.6 10.95 14.15 14.0 15.2 21.25 15.95 26.85 15.3 27.1 M10.25 17.0 L10.2 17.95 11.6 15.05 Q11.65 16.15 10.75 18.1 L10.15 19.25 10.15 22.55 Q10.2 24.2 10.6 25.65 L10.05 25.15 10.0 25.2 9.7 25.5 9.8 23.75 9.95 19.85 9.95 18.85 9.85 18.7 Q8.7 17.3 8.45 15.05 L9.85 17.75 9.75 16.95 10.0 17.5 10.25 17.0 M6.9 10.7 L6.65 11.8 7.75 13.8 7.75 13.9 Q7.4 13.2 6.6 12.6 L6.5 12.5 6.4 12.9 6.8 13.35 6.85 13.8 6.4 13.75 6.25 13.7 6.2 13.75 Q5.75 15.75 5.6 17.65 L5.15 21.55 4.8 25.5 4.65 27.0 4.0 26.8 4.75 21.3 Q5.05 17.45 5.85 13.3 L6.25 11.3 6.55 10.0 6.9 10.7" fill="#000000" fill-rule="evenodd" stroke="none"/>
      <path d="M10.15 6.15 Q9.4 6.15 9.05 5.4 L8.85 4.55 Q8.85 4.05 9.25 3.45 L9.4 3.25 9.3 3.9 9.4 4.55 Q9.6 5.1 10.25 5.1 10.9 5.1 11.05 4.45 L11.15 4.75 Q11.15 6.15 10.15 6.15" fill="#000000" fill-opacity="0.2" fill-rule="evenodd" stroke="none"/>
      <path d="M10.3 4.4 L9.8 4.1 9.75 3.85 Q9.75 2.85 10.4 3.0 11.05 3.1 11.05 3.75 11.05 4.4 10.3 4.4" fill="#ffffff" fill-opacity="0.4" fill-rule="evenodd" stroke="none"/>
      <path d="M3.95 20.4 Q3.9 21.05 3.5 21.05 2.8 21.05 2.65 20.65 L2.6 20.35 2.9 20.4 Q3.4 20.4 3.4 19.85 L3.4 19.7 3.5 19.7 3.95 20.4 M16.75 19.85 L16.7 20.0 Q16.7 20.5 17.3 20.5 L17.45 20.5 17.0 21.05 16.3 20.9 16.3 20.85 16.15 20.5 Q16.15 20.2 16.5 19.85 L16.75 19.85" fill="#000000" fill-opacity="0.2" fill-rule="evenodd" stroke="none"/>
      <path d="M2.95 19.5 L3.35 19.45 Q3.8 19.45 4.05 19.85 L4.2 20.4 4.1 20.75 4.0 20.8 3.95 20.4 3.5 19.7 3.4 19.7 3.3 19.7 3.3 19.65 Q3.4 19.5 3.0 19.5 L2.95 19.5 M16.75 19.85 L16.5 19.85 Q16.15 20.2 16.15 20.5 L16.3 20.85 16.3 20.9 16.25 20.95 16.15 21.0 15.9 20.5 Q15.9 19.6 16.7 19.6 L16.8 19.6 16.8 19.75 16.8 19.85 16.75 19.85 M17.3 19.8 L17.4 19.85 17.4 19.9 17.3 19.8" fill="#ffffff" fill-opacity="0.4" fill-rule="evenodd" stroke="none"/>
      <path d="M3.3 19.7 L2.95 20.05 2.6 20.05 2.5 19.8 Q2.5 19.55 2.95 19.5 L3.0 19.5 Q3.4 19.5 3.3 19.65 L3.3 19.7 M16.8 19.6 L17.0 19.55 17.3 19.8 17.4 19.9 17.5 19.95 17.2 20.2 16.8 19.85 16.8 19.75 16.8 19.6" fill="#f2f2f2" fill-rule="evenodd" stroke="none"/>
      <path d="M3.75 21.5 L3.1 20.45 3.15 20.45 3.5 20.55 Q10.15 25.45 16.65 20.55 L17.05 20.45 17.2 20.5 16.2 21.7 14.35 23.1 Q9.6 25.2 4.8 22.6 L3.75 21.5" fill="#000000" fill-opacity="0.29803923" fill-rule="evenodd" stroke="none"/>
      <path d="M3.05 20.5 Q10.0 25.65 16.8 20.5" fill="none" stroke="#cc9933" stroke-linecap="round" stroke-linejoin="round" stroke-width="0.5"/>
    </g>
  </defs>
</svg>
