<svg xmlns="http://www.w3.org/2000/svg" xmlns:ffdec="https://www.free-decompiler.com/flash" xmlns:xlink="http://www.w3.org/1999/xlink" ffdec:objectType="frame" width="8.95" height="7.15"><g transform="translate(.7 -6.25)"><use ffdec:characterId="11" xlink:href="#a" width="7.7" height="6.75" transform="matrix(1.1587 0 0 1.0617 -.692 6.244)"/><use ffdec:characterId="12" xlink:href="#b" width="8.55" height="7" transform="translate(-.6 6.35)"/></g><defs><path id="c" fill="#3cc" fill-rule="evenodd" d="M1.75 6.35q2.15 0 3.7-1.45l-.4-.75 2.2-.2.5 4.8-2 1-3.25.95q-.35-.25-2.45-4L1.6 5.55l.15.7z" transform="translate(-.05 -3.95)"/><use ffdec:characterId="10" xlink:href="#c" id="a" width="7.7" height="6.75"/><g id="b" fill-rule="evenodd"><path fill="#fff" d="m2.4 3.55-1.2.15-.65-.15L0 2.8l2.45.05Q5.45 2.4 8.1 0l.15.7-2.3 1.45Q4 3.25 2.4 3.55m5.15-1.6.25 1 .55-.25.2.8-.55.35.25.95-.7.4-.2-1.05-.75.4-.25-.8.8-.45-.2-.95z"/><path fill-opacity=".2" d="m5.3 5.65.45.4Q4.4 6.8 2.85 7l-.5-1.3-.95-1.65L.6 2.7q2.8.55 5.35-1.2l-.15.25Q4.75 3.55 4.75 4.5q0 .55.55 1.15"/></g></defs></svg>