<svg xmlns="http://www.w3.org/2000/svg" xmlns:ffdec="https://www.free-decompiler.com/flash" xmlns:xlink="http://www.w3.org/1999/xlink" ffdec:objectType="frame" width="6.85" height="8.3"><g transform="translate(-.65 -1.75)"><use ffdec:characterId="5" xlink:href="#a" width="2.8" height="1.55" transform="translate(4.05 8.5)"/><use ffdec:characterId="7" xlink:href="#b" width="6.25" height="6.8" transform="rotate(-.453 219.53 -81.25)skewY(2.588)"/><use ffdec:characterId="8" xlink:href="#c" width="6.85" height="6.75" transform="translate(.65 3.25)"/></g><defs><path id="a" fill-opacity=".298" fill-rule="evenodd" d="m4.55 10.05-.5-1.4 1.3-.15v.45L6.5 8.7l.35.55q-.9.55-2.3.8" transform="translate(-4.05 -8.5)"/><path id="d" fill="#333" fill-rule="evenodd" d="M7.1 2.95q0 1.45-1.15 2.1l.45.55Q5 6.7 3.6 6.6l-.35-1.05-.15-.05q-.65-.3-1.05-1.15l-.95-2Q.5 1.2 1.3.5t2.15-.7q1.3-.05 2.45.65t1.2 2.5" transform="translate(-.85 .2)"/><use ffdec:characterId="6" xlink:href="#d" id="b" width="6.25" height="6.8"/><g id="c" fill-rule="evenodd"><path fill="#fff" d="m5.55 4.35 1.3.8Q5.3 6.4 3.25 6.75l-.5-1.4q1.4.1 2.8-1"/><path fill="#333" d="m5.9 5.5-.3.15-.35-.15-.1-.3.1-.35.35-.1.3.1.15.35z"/><path fill-opacity=".298" d="M5.25 1.25 5.7 0l.55 1.7q0 1.45-1.15 2.1l-.65.25q-1.1 1.2 0 2.4l-1.2.3L2.4 4.3l-.15-.05Q1.6 3.95 1.2 3.1l-.95-2Q-.1.5 0 0l1 1.25q1.25 1.3 2.45 1.25t1.8-1.25"/></g></defs></svg>