<?xml version="1.0" encoding="UTF-8" standalone="no"?>
<svg xmlns:ffdec="https://www.free-decompiler.com/flash" xmlns:xlink="http://www.w3.org/1999/xlink" ffdec:objectType="frame" height="24.6px" width="17.75px" xmlns="http://www.w3.org/2000/svg">
  <g transform="matrix(1.0, 0.0, 0.0, 1.0, -1.35, -0.95)">
    <use ffdec:characterId="3" height="24.6" transform="matrix(1.0, 0.0, 0.0, 1.0, 1.35, 0.95)" width="17.75" xlink:href="#shape0"/>
  </g>
  <defs>
    <g id="shape0" transform="matrix(1.0, 0.0, 0.0, 1.0, -1.35, -0.95)">
      <path d="M3.85 19.3 L3.9 19.35 4.45 19.3 4.7 19.95 3.4 19.4 3.65 19.35 3.85 19.3 M17.55 18.7 L17.85 18.8 17.75 19.6 16.5 20.05 17.55 18.7 M15.5 19.95 L15.75 19.3 16.3 19.35 16.35 19.3 16.55 19.35 16.8 19.4 Q16.15 19.85 15.5 19.95" fill="#666666" fill-rule="evenodd" stroke="none"/>
      <path d="M4.7 19.95 L4.7 20.0 4.2 20.65 4.35 21.05 3.3 20.95 Q3.7 21.65 4.4 22.0 L4.0 22.4 4.0 22.6 2.7 22.8 2.6 22.85 3.9 23.95 3.8 24.05 3.8 24.25 2.5 24.35 3.65 25.3 3.15 25.25 3.3 25.55 1.65 25.0 1.75 24.95 1.5 24.4 2.7 24.05 1.8 23.6 1.95 23.5 1.75 23.0 Q2.2 22.95 2.45 22.55 L2.4 22.5 2.05 22.0 2.2 21.8 2.0 21.05 3.1 20.75 2.2 20.25 2.5 20.25 2.45 19.6 3.7 20.05 2.65 18.7 3.15 18.5 3.85 19.3 3.65 19.35 3.4 19.4 4.7 19.95 M17.55 18.7 L16.5 20.05 17.75 19.6 17.7 20.25 18.0 20.25 17.1 20.75 Q17.6 21.1 18.2 21.05 L18.0 21.8 18.15 22.0 17.8 22.5 17.75 22.55 18.45 23.0 18.25 23.5 18.4 23.6 17.5 24.05 18.7 24.4 18.45 24.95 18.55 25.0 16.9 25.55 17.05 25.25 16.55 25.3 17.7 24.35 16.4 24.25 16.4 24.05 16.3 23.95 17.6 22.85 17.5 22.8 16.2 22.6 16.2 22.4 15.8 22.0 16.9 20.95 15.85 21.05 16.0 20.65 15.5 20.0 15.5 19.95 Q16.15 19.85 16.8 19.4 L16.55 19.35 16.35 19.3 17.05 18.5 17.55 18.7" fill="#510b2a" fill-rule="evenodd" stroke="none"/>
      <path d="M4.35 21.05 L4.5 21.7 4.4 22.0 Q3.7 21.65 3.3 20.95 L4.35 21.05 M4.0 22.6 L4.1 22.85 4.15 23.4 3.9 23.95 2.6 22.85 2.7 22.8 4.0 22.6 M3.8 24.25 L3.85 24.8 3.65 25.3 2.5 24.35 3.8 24.25 M1.5 24.4 L1.4 24.0 1.55 23.55 1.8 23.6 2.7 24.05 1.5 24.4 M1.75 23.0 L1.65 22.65 2.05 22.0 2.4 22.5 2.45 22.55 Q2.2 22.95 1.75 23.0 M2.0 21.05 L1.8 20.5 2.2 20.25 3.1 20.75 2.0 21.05 M2.45 19.6 L2.35 18.8 2.65 18.7 3.7 20.05 2.45 19.6 M18.0 20.25 L18.4 20.5 18.2 21.05 Q17.6 21.1 17.1 20.75 L18.0 20.25 M18.15 22.0 L18.55 22.65 18.45 23.0 17.75 22.55 17.8 22.5 18.15 22.0 M18.4 23.6 L18.65 23.55 18.8 24.0 18.7 24.4 17.5 24.05 18.4 23.6 M16.55 25.3 L16.35 24.8 16.4 24.25 17.7 24.35 16.55 25.3 M16.3 23.95 L16.05 23.4 Q16.0 23.15 16.1 22.85 L16.2 22.6 17.5 22.8 17.6 22.85 16.3 23.95 M15.8 22.0 L15.7 21.7 15.85 21.05 16.9 20.95 15.8 22.0" fill="#b10450" fill-rule="evenodd" stroke="none"/>
      <path d="M7.9 19.6 L8.05 19.15 8.05 19.2 7.9 19.6 M10.75 17.1 L10.7 17.15 10.65 17.05 10.75 17.1" fill="#333333" fill-rule="evenodd" stroke="none"/>
      <path d="M6.5 19.55 L6.5 19.25 6.5 18.2 Q6.55 17.7 6.75 17.75 7.4 17.85 7.25 19.0 L7.2 19.15 7.1 19.0 Q6.7 18.95 6.5 19.45 L6.5 19.55 M8.05 19.1 Q8.15 18.35 8.35 18.15 8.5 17.95 9.4 18.5 9.3 19.45 8.7 19.2 L8.05 19.1 M1.4 16.95 L1.95 16.9 2.35 17.0 2.3 17.25 Q2.2 17.65 1.65 17.85 L1.55 17.9 1.9 17.5 1.6 17.15 1.4 16.95 M2.1 18.45 L2.15 18.4 2.9 18.1 2.85 18.5 2.5 19.25 2.1 18.45 M3.05 19.75 L3.8 18.7 Q4.25 19.1 4.15 20.15 L3.95 19.85 3.75 19.5 3.35 19.6 3.05 19.75 M4.85 20.15 L4.85 20.05 5.1 18.4 5.3 18.45 5.7 19.55 5.75 19.7 5.5 19.5 5.15 19.55 4.95 20.05 4.85 20.15 M17.85 19.5 L17.5 19.25 16.9 18.4 Q16.8 18.05 17.1 17.75 L17.45 17.5 18.1 17.9 18.55 18.65 Q18.05 18.65 17.8 18.9 L17.85 19.5 M19.0 17.75 L18.2 17.6 Q17.45 17.4 17.35 17.05 L17.5 16.85 17.7 16.7 18.5 16.9 18.5 17.25 18.9 17.65 19.0 17.75 M11.4 18.65 L11.45 18.6 11.3 18.6 11.5 18.5 12.85 18.4 Q12.95 19.0 12.55 19.9 L12.55 19.95 12.5 19.7 Q12.9 19.2 11.45 18.65 L11.4 18.65 M13.55 20.05 L13.5 19.4 Q13.45 18.6 14.05 18.45 L14.6 18.65 14.95 19.35 14.7 20.3 14.5 20.1 Q14.25 19.6 13.95 19.7 L13.65 19.95 13.55 20.05 M15.7 20.15 L15.55 19.75 Q15.25 18.5 15.75 18.4 16.65 18.15 17.0 19.55 L17.05 20.0 16.85 19.9 16.25 19.75 15.75 20.05 15.7 20.15" fill="#510b2a" fill-rule="evenodd" stroke="none"/>
      <path d="M7.2 19.15 L7.25 19.0 Q7.4 17.85 6.75 17.75 6.55 17.7 6.5 18.2 L6.5 19.25 6.5 19.55 6.35 19.8 6.1 19.95 5.75 19.7 5.7 19.55 5.3 18.45 5.1 18.4 4.85 20.05 4.85 20.15 4.4 20.25 4.15 20.15 Q4.25 19.1 3.8 18.7 L3.05 19.75 2.9 19.75 Q2.55 19.7 2.5 19.3 L2.5 19.25 2.85 18.5 2.9 18.1 2.15 18.4 2.1 18.45 2.1 18.4 1.65 18.35 1.7 18.3 1.55 17.95 1.55 17.9 1.65 17.85 Q2.2 17.65 2.3 17.25 L2.35 17.0 1.95 16.9 1.4 16.95 1.35 16.65 Q1.4 16.2 2.3 16.05 L8.85 17.3 9.45 18.6 9.4 18.5 Q8.5 17.95 8.35 18.15 8.15 18.35 8.05 19.1 L8.05 19.15 7.9 19.6 7.6 19.7 7.3 19.35 7.2 19.15" fill="url(#gradient0)" fill-rule="evenodd" stroke="none"/>
      <path d="M18.55 18.65 L18.1 17.9 17.45 17.5 17.1 17.75 Q16.8 18.05 16.9 18.4 L17.5 19.25 17.85 19.5 17.45 19.9 17.05 20.0 17.0 19.55 Q16.65 18.15 15.75 18.4 15.25 18.5 15.55 19.75 L15.7 20.15 15.25 20.45 Q14.85 20.55 14.7 20.3 L14.95 19.35 14.6 18.65 14.05 18.45 Q13.45 18.6 13.5 19.4 L13.55 20.05 Q13.4 20.25 13.15 20.25 L12.6 20.0 12.55 19.95 12.55 19.9 Q12.95 19.0 12.85 18.4 L11.5 18.5 11.3 18.6 11.45 18.6 11.4 18.65 Q10.9 18.65 11.95 17.4 L12.2 17.0 17.95 16.2 18.1 16.2 18.7 16.2 18.8 16.35 18.5 16.8 18.5 16.9 17.7 16.7 17.5 16.85 17.35 17.05 Q17.45 17.4 18.2 17.6 L19.0 17.75 19.1 18.05 Q19.05 18.65 18.7 18.65 L18.55 18.65" fill="url(#gradient1)" fill-rule="evenodd" stroke="none"/>
      <path d="M18.2 15.85 L15.7 16.7 12.35 16.85 12.0 16.8 12.0 16.75 11.2 16.55 Q9.9 16.25 8.8 16.55 L4.95 16.8 Q3.4 16.75 1.85 15.9 L2.0 15.4 8.6 15.85 8.85 15.85 11.15 15.85 11.4 15.85 18.1 15.4 18.2 15.85" fill="url(#gradient2)" fill-rule="evenodd" stroke="none"/>
      <path d="M18.2 15.85 L18.25 16.3 Q15.5 17.55 12.0 17.35 L11.75 17.35 11.45 17.35 11.4 17.35 11.15 17.35 8.85 17.35 8.6 17.35 8.55 17.35 Q4.55 17.7 1.75 16.25 L1.85 15.9 Q3.4 16.75 4.95 16.8 L8.8 16.55 Q9.9 16.25 11.2 16.55 L12.0 16.75 12.0 16.8 12.35 16.85 15.7 16.7 18.2 15.85" fill="url(#gradient3)" fill-rule="evenodd" stroke="none"/>
      <path d="M10.2 12.0 L10.0 11.95 9.95 11.8 9.75 11.7 9.65 11.15 9.95 10.0 10.15 9.3 Q10.75 11.85 10.2 12.0" fill="#000000" fill-opacity="0.29803923" fill-rule="evenodd" stroke="none"/>
      <path d="M4.35 14.0 L6.8 14.35 Q8.25 14.8 8.25 15.35 L8.2 15.4 5.65 15.75 2.95 15.35 Q1.9 14.95 2.4 14.3 L3.0 14.15 4.35 14.0 M13.85 15.7 L11.85 15.25 Q12.25 14.0 15.65 14.0 L17.8 14.35 Q17.95 15.35 16.35 15.55 L13.85 15.7" fill="#000000" fill-opacity="0.29803923" fill-rule="evenodd" stroke="none"/>
      <path d="M14.2 9.55 L13.75 9.05 15.4 9.05 15.65 9.1 Q16.5 10.6 16.5 12.95 L16.2 14.1 15.3 16.05 14.0 16.15 14.45 15.55 14.95 14.1 15.1 12.55 Q15.1 10.9 14.2 9.55" fill="url(#gradient4)" fill-rule="evenodd" stroke="none"/>
      <path d="M17.45 10.35 L17.9 10.9 Q19.0 12.35 18.45 14.1 L18.1 15.0 16.25 16.1 Q17.0 15.2 17.35 14.1 L17.55 13.15 Q17.75 11.5 17.45 10.35" fill="url(#gradient5)" fill-rule="evenodd" stroke="none"/>
      <path d="M13.7 12.95 L13.6 14.1 12.9 15.65 12.7 15.9 12.6 15.9 Q12.25 15.8 11.8 16.2 L12.4 14.35 12.45 14.1 Q12.7 13.3 13.1 12.65 L13.65 11.8 13.7 12.95" fill="url(#gradient6)" fill-rule="evenodd" stroke="none"/>
      <path d="M4.7 9.05 L6.35 9.05 5.9 9.55 Q5.0 10.9 5.0 12.55 L5.15 14.1 5.65 15.55 6.2 16.2 4.85 16.15 3.9 14.1 3.6 12.95 Q3.6 10.6 4.45 9.1 L4.7 9.05" fill="url(#gradient7)" fill-rule="evenodd" stroke="none"/>
      <path d="M7.1 9.7 Q6.65 10.9 6.95 11.25 7.25 11.6 7.25 12.5 L7.4 14.1 7.5 14.4 Q7.75 15.35 8.25 15.8 L7.35 16.0 7.0 15.6 Q6.5 14.9 6.35 14.1 6.2 13.6 6.2 13.1 6.2 11.7 6.65 10.55 L7.1 9.7" fill="url(#gradient8)" fill-rule="evenodd" stroke="none"/>
      <path d="M2.65 10.35 Q2.35 11.5 2.6 12.9 L2.9 14.1 3.85 16.1 Q2.4 15.55 2.0 15.0 L1.65 14.1 Q1.15 12.35 2.2 10.9 L2.65 10.35" fill="url(#gradient9)" fill-rule="evenodd" stroke="none"/>
      <path d="M12.8 10.15 L10.0 7.6 7.2 10.15 Q7.7 10.25 8.7 10.8 L9.95 11.8 10.0 11.9 Q10.25 11.4 11.3 10.8 12.3 10.25 12.8 10.15 M14.85 6.6 L17.2 9.85 18.35 11.6 Q18.75 12.15 18.6 13.3 18.3 12.95 16.7 12.95 14.35 12.95 12.5 13.65 L11.55 14.1 10.5 14.9 10.05 15.35 10.05 14.15 10.05 15.35 9.6 14.9 8.55 14.1 7.6 13.65 Q5.75 12.95 3.4 12.95 1.8 12.95 1.5 13.3 1.5 12.2 1.65 11.8 L2.75 10.0 5.2 6.7 Q6.7 4.8 6.8 3.9 L8.6 3.8 Q8.85 4.65 10.05 5.6 11.25 4.65 11.5 3.8 L13.3 3.9 Q13.4 4.8 14.85 6.6" fill="url(#gradient10)" fill-rule="evenodd" stroke="none"/>
      <path d="M11.15 11.2 Q11.65 10.75 12.2 10.45 L13.0 10.4 Q14.25 11.05 14.35 12.5 12.5 12.95 11.75 13.45 10.95 13.9 10.1 15.0 L10.1 14.9 Q10.05 13.2 10.35 12.4 10.65 11.6 11.15 11.2" fill="#f0deff" fill-opacity="0.2509804" fill-rule="evenodd" stroke="none"/>
      <path d="M11.9 4.05 L11.95 6.6 12.65 6.25 12.8 5.5 Q12.9 4.6 12.6 3.85 L12.15 4.0 11.9 4.05 M11.15 4.0 Q12.4 3.95 12.8 3.6 L12.8 3.65 13.05 5.55 12.8 6.7 12.6 6.7 11.8 6.85 11.75 6.85 11.65 6.6 10.4 6.3 10.05 6.0 Q11.2 6.05 11.2 5.5 11.25 5.1 10.65 5.0 L10.5 5.0 9.9 5.05 Q9.9 4.7 10.15 4.5 10.35 4.25 11.2 4.2 L11.15 4.0 M13.7 3.6 L14.1 3.5 14.15 3.45 14.3 3.45 Q14.8 3.85 14.7 5.55 L14.7 5.6 14.45 5.8 14.0 6.1 Q14.25 4.25 13.7 3.6 M9.6 6.8 Q6.05 6.55 5.3 5.85 L5.35 5.5 Q5.5 3.6 5.7 3.2 L6.9 3.55 9.45 3.95 9.25 4.2 8.25 3.9 7.85 4.0 7.6 4.0 Q7.35 4.1 7.25 4.4 L7.1 5.35 7.1 6.15 8.0 6.45 9.05 6.5 9.1 5.5 Q9.1 6.4 9.6 6.8" fill="#720635" fill-rule="evenodd" stroke="none"/>
      <path d="M11.9 4.05 L12.15 4.0 12.6 3.85 Q12.9 4.6 12.8 5.5 L12.65 6.25 11.95 6.6 11.9 4.05 M13.35 3.65 L13.7 3.6 Q14.25 4.25 14.0 6.1 L13.6 6.35 13.7 5.1 13.7 5.05 Q13.8 4.0 13.35 3.65 M9.25 4.2 L9.1 4.75 9.1 5.15 9.1 5.5 9.05 6.5 8.0 6.45 7.1 6.15 7.1 5.35 7.25 4.4 Q7.35 4.1 7.6 4.0 L7.85 4.0 8.25 3.9 9.25 4.2" fill="#b10450" fill-rule="evenodd" stroke="none"/>
      <path d="M9.45 3.95 L9.45 3.9 Q9.7 3.6 10.35 3.5 L10.6 3.4 10.85 3.45 11.2 3.95 11.15 4.0 11.2 4.2 Q10.35 4.25 10.15 4.5 9.9 4.7 9.9 5.05 L9.7 5.2 9.6 5.25 9.15 5.4 9.15 5.85 9.5 5.9 10.05 6.0 10.4 6.3 11.65 6.6 11.75 6.85 9.65 6.8 9.6 6.8 Q9.1 6.4 9.1 5.5 L9.1 5.15 9.1 4.75 9.25 4.2 9.45 3.95" fill="#aa94a5" fill-rule="evenodd" stroke="none"/>
      <path d="M10.65 5.0 Q11.25 5.1 11.2 5.5 11.2 6.05 10.05 6.0 L9.5 5.9 9.15 5.85 9.15 5.4 9.6 5.25 9.7 5.2 9.9 5.2 10.65 5.0" fill="#746969" fill-rule="evenodd" stroke="none"/>
      <path d="M12.8 3.65 L13.2 3.6 13.35 3.65 Q13.8 4.0 13.7 5.05 L13.7 5.1 13.6 6.35 13.2 6.4 12.8 6.7 13.05 5.55 12.8 3.65" fill="#6d6464" fill-rule="evenodd" stroke="none"/>
      <path d="M11.8 4.4 L9.75 4.4 9.65 4.4 Q9.15 3.95 9.1 3.1 L9.1 2.7 9.1 2.55 9.15 2.35 9.3 1.8 9.55 1.55 9.55 1.45 Q9.75 1.15 10.35 1.1 L10.65 0.95 10.95 0.95 11.3 1.5 11.3 1.55 11.35 1.75 Q10.35 1.85 10.15 2.05 9.95 2.3 9.9 2.65 L9.7 2.75 9.65 2.85 9.25 2.95 9.2 3.4 9.5 3.45 10.05 3.5 10.45 3.9 11.75 4.15 11.8 4.4" fill="#d7cbd4" fill-rule="evenodd" stroke="none"/>
      <path d="M13.75 3.95 L13.35 3.95 12.9 4.2 13.2 3.15 12.9 1.25 13.35 1.15 13.45 1.2 Q13.9 1.6 13.85 2.65 L13.85 2.7 13.75 3.95 M10.65 2.6 Q11.3 2.7 11.3 3.05 11.25 3.6 10.05 3.5 L9.5 3.45 9.2 3.4 9.25 2.95 9.65 2.85 9.7 2.75 9.9 2.75 10.65 2.6" fill="#9c9c9c" fill-rule="evenodd" stroke="none"/>
      <path d="M13.8 1.15 L14.2 1.1 14.3 1.0 14.5 1.0 Q14.95 1.45 14.85 3.1 L14.85 3.2 14.65 3.35 14.15 3.7 Q14.45 1.85 13.8 1.15 M12.9 4.2 Q12.75 4.2 12.7 4.3 L11.9 4.4 11.8 4.4 11.75 4.15 10.45 3.9 10.05 3.5 Q11.25 3.6 11.3 3.05 11.3 2.7 10.65 2.6 L10.5 2.6 9.9 2.65 Q9.95 2.3 10.15 2.05 10.35 1.85 11.35 1.75 L11.3 1.55 Q12.5 1.55 12.9 1.15 L12.9 1.25 13.2 3.15 12.9 4.2 M9.65 4.4 Q6.05 4.15 5.3 3.4 L5.3 3.1 Q5.5 1.15 5.65 1.05 L6.85 1.15 9.55 1.55 9.3 1.8 8.35 1.5 7.85 1.5 7.55 1.55 Q7.25 1.7 7.2 1.95 L7.1 2.9 7.05 3.7 Q7.2 3.95 8.0 4.05 L9.05 4.1 9.1 3.1 Q9.15 3.95 9.65 4.4 M12.0 1.6 L12.0 4.15 12.8 3.85 12.9 3.1 12.7 1.4 12.2 1.55 12.0 1.6" fill="#720635" fill-rule="evenodd" stroke="none"/>
      <path d="M14.15 3.7 L13.75 3.95 13.85 2.7 13.85 2.65 Q13.9 1.6 13.45 1.2 L13.8 1.15 Q14.45 1.85 14.15 3.7 M12.0 1.6 L12.2 1.55 12.7 1.4 12.9 3.1 12.8 3.85 12.0 4.15 12.0 1.6 M9.1 3.1 L9.05 4.1 8.0 4.05 Q7.2 3.95 7.05 3.7 L7.1 2.9 7.2 1.95 Q7.25 1.7 7.55 1.55 L7.85 1.5 8.35 1.5 9.3 1.8 9.15 2.35 9.1 2.55 9.1 2.7 9.1 3.1" fill="#b10450" fill-rule="evenodd" stroke="none"/>
      <path d="M13.55 8.75 Q12.15 9.4 12.2 9.65 L12.15 9.55 11.85 9.5 11.8 9.45 11.65 9.4 11.6 9.35 11.65 9.3 14.15 8.1 14.5 8.0 14.6 8.0 14.7 8.05 14.7 8.1 13.55 8.75 M12.2 9.7 L12.25 9.65 13.1 9.35 15.05 8.5 15.2 8.55 15.25 8.65 15.2 8.75 Q14.05 9.25 12.95 9.85 L12.25 9.9 12.25 9.85 12.2 9.7" fill="#ffc34f" fill-rule="evenodd" stroke="none"/>
      <path d="M12.8 8.2 L12.8 7.95 13.1 7.95 13.35 8.25 13.5 8.6 13.5 8.5 13.05 8.3 12.8 8.2 M14.6 8.2 L14.95 8.2 15.3 7.9 Q15.6 8.2 15.45 8.55 L15.7 8.75 15.2 8.45 14.6 8.2" fill="#ee6fa0" fill-rule="evenodd" stroke="none"/>
      <path d="M12.8 7.95 L13.0 7.6 13.4 7.6 Q13.95 7.6 14.15 8.25 L14.2 9.65 12.75 9.6 Q11.8 9.4 11.8 8.8 11.8 8.15 12.5 8.15 L12.55 8.15 12.8 8.2 13.05 8.3 13.5 8.5 13.5 8.6 13.35 8.25 13.1 7.95 12.8 7.95" fill="url(#gradient11)" fill-rule="evenodd" stroke="none"/>
      <path d="M14.6 8.2 L15.2 8.45 15.7 8.75 15.45 8.55 Q15.6 8.2 15.3 7.9 L15.45 7.9 Q15.85 7.9 15.95 8.15 L15.95 8.65 15.8 9.45 14.85 9.2 Q14.35 9.05 14.35 8.65 L14.5 8.2 14.6 8.2" fill="url(#gradient12)" fill-rule="evenodd" stroke="none"/>
    </g>
    <linearGradient gradientTransform="matrix(5.0E-4, -0.0027, 0.0025, 5.0E-4, 5.85, 17.4)" gradientUnits="userSpaceOnUse" id="gradient0" spreadMethod="pad" x1="-819.2" x2="819.2">
      <stop offset="0.0" stop-color="#b10450"/>
      <stop offset="1.0" stop-color="#200d38"/>
    </linearGradient>
    <linearGradient gradientTransform="matrix(-3.0E-4, -0.0026, 0.0026, -3.0E-4, 13.95, 17.5)" gradientUnits="userSpaceOnUse" id="gradient1" spreadMethod="pad" x1="-819.2" x2="819.2">
      <stop offset="0.0" stop-color="#b10450"/>
      <stop offset="1.0" stop-color="#200d38"/>
    </linearGradient>
    <radialGradient cx="0" cy="0" gradientTransform="matrix(0.01, 0.0, 0.0, 0.01, 10.05, 16.15)" gradientUnits="userSpaceOnUse" id="gradient2" r="819.2" spreadMethod="pad">
      <stop offset="0.0" stop-color="#000000"/>
      <stop offset="0.44313725490196076" stop-color="#6d3fc4"/>
      <stop offset="1.0" stop-color="#0f091c"/>
    </radialGradient>
    <linearGradient gradientTransform="matrix(0.0101, 0.0, 0.0, 9.0E-4, 10.0, 16.6)" gradientUnits="userSpaceOnUse" id="gradient3" spreadMethod="pad" x1="-819.2" x2="819.2">
      <stop offset="0.0" stop-color="#a23aa6"/>
      <stop offset="0.43137254901960786" stop-color="#d980fa"/>
      <stop offset="1.0" stop-color="#9239b4"/>
    </linearGradient>
    <linearGradient gradientTransform="matrix(0.0017, 0.0, 0.0, 0.0044, 15.1, 12.55)" gradientUnits="userSpaceOnUse" id="gradient4" spreadMethod="pad" x1="-819.2" x2="819.2">
      <stop offset="0.0" stop-color="#000000"/>
      <stop offset="1.0" stop-color="#6d3fc4"/>
    </linearGradient>
    <linearGradient gradientTransform="matrix(0.0015, 0.0, 0.0, 0.0035, 17.45, 13.2)" gradientUnits="userSpaceOnUse" id="gradient5" spreadMethod="pad" x1="-819.2" x2="819.2">
      <stop offset="0.0" stop-color="#000000"/>
      <stop offset="1.0" stop-color="#6d3fc4"/>
    </linearGradient>
    <linearGradient gradientTransform="matrix(0.0012, 0.0, 0.0, 0.0027, 12.75, 14.0)" gradientUnits="userSpaceOnUse" id="gradient6" spreadMethod="pad" x1="-819.2" x2="819.2">
      <stop offset="0.0" stop-color="#000000"/>
      <stop offset="1.0" stop-color="#6d3fc4"/>
    </linearGradient>
    <linearGradient gradientTransform="matrix(6.0E-4, -0.0051, 0.0044, 5.0E-4, 4.85, 14.85)" gradientUnits="userSpaceOnUse" id="gradient7" spreadMethod="pad" x1="-819.2" x2="819.2">
      <stop offset="0.0" stop-color="#000000"/>
      <stop offset="1.0" stop-color="#6d3fc4"/>
    </linearGradient>
    <linearGradient gradientTransform="matrix(-1.0E-4, -0.0013, 0.0038, -2.0E-4, 7.2, 15.25)" gradientUnits="userSpaceOnUse" id="gradient8" spreadMethod="pad" x1="-819.2" x2="819.2">
      <stop offset="0.0" stop-color="#000000"/>
      <stop offset="1.0" stop-color="#6d3fc4"/>
    </linearGradient>
    <linearGradient gradientTransform="matrix(1.0E-4, -0.0014, 0.0035, 2.0E-4, 2.55, 16.0)" gradientUnits="userSpaceOnUse" id="gradient9" spreadMethod="pad" x1="-819.2" x2="819.2">
      <stop offset="0.0" stop-color="#000000"/>
      <stop offset="1.0" stop-color="#6d3fc4"/>
    </linearGradient>
    <linearGradient gradientTransform="matrix(0.0, 0.0077, -0.007, 0.0, 10.0, 13.4)" gradientUnits="userSpaceOnUse" id="gradient10" spreadMethod="pad" x1="-819.2" x2="819.2">
      <stop offset="0.0" stop-color="#1f0b33"/>
      <stop offset="1.0" stop-color="#8738a6"/>
    </linearGradient>
    <linearGradient gradientTransform="matrix(9.0E-4, 0.0017, -0.0011, 6.0E-4, 13.15, 9.6)" gradientUnits="userSpaceOnUse" id="gradient11" spreadMethod="pad" x1="-819.2" x2="819.2">
      <stop offset="0.0" stop-color="#e73b6a"/>
      <stop offset="1.0" stop-color="#ffd7e2"/>
    </linearGradient>
    <linearGradient gradientTransform="matrix(5.0E-4, 9.0E-4, -8.0E-4, 5.0E-4, 15.15, 8.65)" gradientUnits="userSpaceOnUse" id="gradient12" spreadMethod="pad" x1="-819.2" x2="819.2">
      <stop offset="0.0" stop-color="#e73b6a"/>
      <stop offset="1.0" stop-color="#d42a59"/>
    </linearGradient>
  </defs>
</svg>
