<svg xmlns="http://www.w3.org/2000/svg" xmlns:ffdec="https://www.free-decompiler.com/flash" xmlns:xlink="http://www.w3.org/1999/xlink" ffdec:objectType="frame" width="11.65" height="12.3"><g transform="translate(.3 -1.8)"><use ffdec:characterId="4" xlink:href="#a" width="9.5" height="11.65" transform="translate(-.3 2.45)"/><use ffdec:characterId="5" xlink:href="#b" width="11.65" height="12.3" transform="translate(-.3 1.8)"/></g><defs><path id="c" fill="#ccc" fill-rule="evenodd" d="M7.5 12 .6 1.25Q.45.7.9.45L1.7.4Q2.4.55 4.75 3 7.7 5.95 10 9.6q.4.6-2.5 2.4" transform="translate(-.55 -.35)"/><use ffdec:characterId="3" xlink:href="#c" id="a" width="9.5" height="11.65"/><g id="b" fill-rule="evenodd"><path fill="#960" d="m9.75 1.55 1.3.15q1.15 1.15.15 3.5-1.35 3-6.45 3.7l-.9-1.35q4-.35 5.35-2.95.85-1.6.55-3.05"/><path fill="#7b5812" d="M3.85 7.55.9 3.1Q-.75.15.6.2q7.05-.8 9.15 1.35.3 1.45-.55 3.05-1.35 2.6-5.35 2.95"/><path fill-opacity=".298" d="m8.7 11.3-1.9 1Q2.25 5.55 1 3.35-.3.9.3.2q5.55.2 8.4 11.1"/></g></defs></svg>