<svg xmlns="http://www.w3.org/2000/svg" xmlns:ffdec="https://www.free-decompiler.com/flash" xmlns:xlink="http://www.w3.org/1999/xlink" ffdec:objectType="frame" width="22.5" height="23.55"><use ffdec:characterId="3" xlink:href="#a" width="22.5" height="23.55"/><defs><g id="a" fill-rule="evenodd"><path fill="#a30f0f" d="M9.6.95h.05l-1.6 2.8-1.2 2.3-1 2.4-.95 3-.5 2.2-.35 2.15-.65 2.9-.95 2.35L1.3 22.6l-.8-.3-.5.2q1.4-2.7 2-6.25.55-3.6 2.55-7.7l1-1.95L7.4 3.7zm1.1.6.1.05-1.5 5.45-1.45 5.6q-.75 2.95-1.1 5.4l-.4 4.15-.05 1h-.8l-1.65-.1H3.6l.95-3.1 1-3.9.65-3.95.8-3.9Q7.55 6.3 8.5 4.3l1.7-3 .05.05h.05l.15.1zm1.3 0 .3-.1 1.35 2.1 1.2 2.25 1 2.9 1.25 4.55 1.45 6.2.85 3.4-2 .55h-.5v-.3l-.6-4.45-.85-4.55-.65-2.8-1-3.55L13 4.9zm-.5.15h.1l.35 1.95.2 3.5.15 2.75.15 3.4.2 3.8.2 3.05.25 2.75-2-.2-.9.05v-6l.05-3.85.15-3.35.45-3.55.4-4.3zm11 20.05-.35.35-.4.15-1.1-2.85-1.1-3.95-1.25-4-1.5-3.75-2.1-3.8-1.95-2.7.2-.1q2 1.7 4.45 6.2t3.3 8.2q.85 3.75 1.35 4.9z"/><path fill="#fff" d="M10.8 1.6h.05l.4.1-.4 4.3-.45 3.55-.15 3.35-.05 3.85v6l-1.35.2-2.55.25.05-1 .4-4.15q.35-2.45 1.1-5.4l1.45-5.6zM9.65.95l.55.35-1.7 3q-.95 2-1.5 3.95l-.8 3.9-.65 3.95-1 3.9-.95 3.1-2.3-.5 1.15-1.55.95-2.35.65-2.9.35-2.15.5-2.2.95-3 1-2.4 1.2-2.3zm2.3 2.7L11.6 1.7l.4-.15 1 3.35.8 2.85 1 3.55.65 2.8.85 4.55.6 4.45v.3h-.55l-2.05-.3-1.2-.2-.25-2.75-.2-3.05-.2-3.8-.15-3.4-.15-2.75zm.35-2.2.15-.1.3-.15 1.95 2.7 2.1 3.8 1.5 3.75 1.25 4 1.1 3.95 1.1 2.85-1.65.55-.7.05-.85-3.4-1.45-6.2-1.25-4.55-1-2.9-1.2-2.25z"/><path fill-opacity=".2" d="m6.25 17.3.05.05-.2-.05zm7.05-14v.05zm-.1-2.1v.05l.3.35.05.1v.6l.05.05-.2.4q-.3.55-.85.55l-.9-.3-.35-.35q-.4.6-1.1.6-1.35 0-1.35-1.25l.25-.3.2-.35.2.15-.1.2.25.5.4.3q.4 0 .7-.5l.15-.25.35.1.45-.05.05.1q.25.45.8.45l.3-.55zM6.1 20.6l-.15 2.1-.2.5H4.4l-1.9-.25.75-1.45q.5-1.8 2.6-2.55zm8.25.05q1.5.85 2.6 2.15l.55.75-2-.1h-.05l-2.05-.35-4.35-.25q.35-.75 1.65-1.7 2.15-1.6 3.65-.5"/><path fill="#fff" d="M12.25 2.8q-.4 0-.7-.5l-.2-.65q1.3-.3 1.55-1 .4.55.4 1.1l-.05.5q-.25.55-1 .55m-1.9 0q-.75 0-1-.55l-.1-.5q0-.55.45-1.1.25.7 1.55 1l-.2.65z"/><path fill="#fc6" d="M13.4 1.85 13 1.2q-.1-.45.15-.8.25-.4.65-.4l.8.2.4.65-.2.8-.2.2V1.8l.2-.7q-.05-.35-.4-.55L13.85.4l-.5.35q-.2.3-.1.65z"/><path fill="#ffae12" d="m13.4 1.85-.15-.45q-.1-.35.1-.65l.5-.35.55.15q.35.2.4.55l-.2.7v.05l-.2.1-.3.15q-.3.05-.55-.2h-.05z"/><path fill="#9c3" d="M7.95 2.2q-.3-.2-.45-.7-.05-.45.2-.75.2-.4.65-.45l.75.2.35.7-.15.8-.15.2v-.1l.15-.7q0-.35-.35-.55L8.4.7q-.35.1-.55.35-.15.35-.15.65z"/><path fill="#6ba100" d="m7.95 2.2-.25-.5q0-.3.15-.65.2-.25.55-.35l.55.15q.35.2.35.55l-.15.7v.1l-.25.1-.25.15-.6-.2z"/><path fill="#47d2d2" d="m7.1 3.55-.45-.65q0-.45.25-.8.2-.35.6-.4l.75.15.4.7-.15.75-.4.35.2-.25.15-.6-.3-.55-.65-.15-.55.35-.1.65z"/><path fill="#298787" d="m7.1 3.55-.25-.45.1-.65.55-.35.65.15.3.55-.15.6-.2.25-.3.15-.6-.15-.05-.05z"/><path fill="#fc6" d="m6.6 5.4-.45-.65q-.05-.45.15-.8.25-.35.65-.4l.8.15.4.7-.2.75-.15.2V5.3l.15-.65-.35-.6L7 3.9l-.5.4q-.2.3-.15.65z"/><path fill="#ffae12" d="m6.6 5.4-.25-.45q-.05-.35.15-.65l.5-.4.6.15.35.6-.15.65v.05l-.2.15-.3.15-.6-.2h-.05z"/><path fill="#f69" d="M6.55 7.45q-.3-.25-.45-.7-.05-.4.2-.75.2-.4.65-.45t.75.2l.4.7-.2.75-.15.2v-.05l.15-.7-.3-.55-.6-.15q-.35.1-.55.4l-.1.6z"/><path fill="#ec3874" d="m6.55 7.45-.2-.5.1-.6q.2-.3.55-.4l.6.15.3.55-.15.7v.05l-.2.15-.3.15-.6-.2H6.6z"/><path fill="#47d2d2" d="m14.1 10.15-.5-.7q-.05-.4.2-.75.25-.4.65-.45l.8.2.35.65-.15.8-.15.2v-.05l.15-.7-.35-.55-.6-.15q-.35.1-.5.4-.2.25-.15.6z"/><path fill="#298787" d="m14.1 10.15-.25-.5q-.05-.35.15-.6.15-.3.5-.4l.6.15.35.55-.15.7v.05l-.25.15-.25.15-.65-.2z"/><path fill="#9c3" d="m6.9 9.1-.45-.65q-.05-.45.2-.8.2-.35.65-.4t.75.2q.35.2.4.65l-.2.8-.15.15V9l.15-.65-.3-.6-.65-.15q-.3.1-.5.4-.15.3-.15.65.05.3.25.45"/><path fill="#6ba100" d="M6.9 9.1q-.2-.15-.25-.45 0-.35.15-.65.2-.3.5-.4l.65.15.3.6L8.1 9v.05l-.2.15-.3.15-.6-.2h-.05z"/><path fill="#f69" d="M14.05 11.4v-.05l.15-.7-.3-.55-.6-.15q-.35.1-.55.4l-.1.6.2.5q-.3-.25-.45-.7-.05-.4.2-.75.2-.4.65-.45t.75.2l.4.7-.2.75z"/><path fill="#ec3874" d="m12.85 11.45-.2-.5.1-.6q.2-.3.55-.4l.6.15.3.55-.15.7v.05l-.2.15-.3.15-.6-.2h-.05z"/><path fill="#fc6" d="m11.05 11.85-.45-.7q-.05-.4.2-.75.2-.4.65-.45t.75.2l.4.7-.2.75-.15.2v-.05l.15-.7-.3-.55-.65-.15q-.3.1-.5.4l-.15.6z"/><path fill="#ffae12" d="m11.05 11.85-.25-.5.15-.6q.2-.3.5-.4l.65.15.3.55-.15.7v.05l-.2.15-.3.15-.6-.2h-.05z"/><path fill="#fc6" d="m7.95 10.6-.5-.7q-.05-.4.2-.75.25-.4.65-.45l.8.2.35.7-.15.75-.15.2v-.05l.15-.65-.35-.6-.6-.15-.5.4-.15.6z"/><path fill="#ffae12" d="m7.95 10.6-.25-.5.15-.6.5-.4.6.15.35.6-.15.65v.05l-.25.15-.25.15-.6-.2H8z"/><path fill="#47d2d2" d="M8.85 11v-.75q.2-.4.65-.45.45-.2.75 0l.5.7q.1.4-.15.7l-.55.6H9.8l.55-.45.1-.65-.4-.6h-.7l-.45.4z"/><path fill="#298787" d="m8.85 11 .05-.5.45-.4h.7l.4.6-.1.65-.55.45h-.25q-.2 0-.3-.15l-.4-.5V11"/><path fill="#47d2d2" d="m14.35 3.35-.45-.75.2-.75q.25-.4.65-.4.45-.05.8.2.3.2.4.65l-.25.8-.35.3.25-.25.15-.6-.4-.6-.55-.1q-.35.05-.55.3l-.15.65z"/><path fill="#298787" d="m14.35 3.35-.25-.55.15-.65q.2-.25.55-.3l.55.1.4.6-.15.6-.25.25-.3.15-.6-.15z"/><path fill="#f69" d="M16.15 5v-.05l.15-.7-.35-.55-.6-.2-.5.4-.15.65.2.45-.45-.65q-.05-.45.2-.75.25-.4.65-.5l.8.2.35.75-.15.75z"/><path fill="#ec3874" d="m14.9 5-.2-.45.15-.65.5-.4.6.2.35.55-.15.7V5l-.25.15-.3.1-.6-.15h-.05z"/><path fill="#fc6" d="M15 6.8q-.3-.2-.45-.65-.05-.45.2-.8T15.4 5l.8.2.35.65-.15.75-.2.2v-.05l.2-.65-.4-.6-.55-.15-.5.35-.15.65z"/><path fill="#ffae12" d="m15 6.8-.2-.45.15-.65.5-.35.55.15.4.6-.2.65v.05l-.2.15-.3.1-.6-.15h-.05z"/><path fill="#9c3" d="m14.8 8.7-.4-.65q-.1-.5.15-.8l.65-.45.75.2q.4.25.4.7l-.2.8-.15.2v-.1l.15-.7q0-.35-.3-.55l-.6-.15q-.35.1-.55.35l-.15.65z"/><path fill="#6ba100" d="m14.8 8.7-.25-.5.15-.65q.2-.25.55-.35l.6.15q.3.2.3.55l-.15.7v.1l-.25.1-.25.15-.6-.2z"/></g></defs></svg>