<?xml version="1.0" encoding="UTF-8" standalone="no"?>
<svg xmlns:ffdec="https://www.free-decompiler.com/flash" xmlns:xlink="http://www.w3.org/1999/xlink" ffdec:objectType="frame" height="12.45px" width="10.1px" xmlns="http://www.w3.org/2000/svg">
  <g transform="matrix(1.0, 0.0, 0.0, 1.0, 0.2, -1.95)">
    <use ffdec:characterId="8" height="12.45" transform="matrix(1.0, 0.0, 0.0, 1.0, -0.2, 1.95)" width="10.1" xlink:href="#shape0"/>
  </g>
  <defs>
    <g id="shape0" transform="matrix(1.0, 0.0, 0.0, 1.0, 0.2, -1.95)">
      <path d="M8.35 11.1 L9.9 13.95 7.8 13.9 7.15 14.25 6.25 14.3 Q5.85 14.05 5.15 12.5 L2.9 7.95 Q1.35 4.95 -0.15 2.85 -0.3 2.25 0.15 2.0 L0.95 2.05 Q1.9 2.65 4.75 6.1 7.55 9.55 8.35 11.1" fill="#2f7fb8" fill-rule="evenodd" stroke="none"/>
      <path d="M0.6 1.95 L1.25 2.6 4.6 6.9 5.0 7.6 6.25 9.45 8.65 13.7 8.2 13.8 8.0 13.8 7.75 13.95 7.5 14.1 7.45 14.1 6.8 14.3 6.55 14.3 6.45 14.4 6.1 14.15 6.05 14.1 6.0 14.0 5.95 13.95 5.4 13.0 5.0 12.0 4.75 11.55 3.85 10.1 2.95 8.15 0.8 4.4 -0.15 2.9 -0.15 2.5 0.2 2.2 0.6 1.95" fill="#000000" fill-opacity="0.2" fill-rule="evenodd" stroke="none"/>
    </g>
  </defs>
</svg>
