<?xml version="1.0" encoding="UTF-8" standalone="no"?>
<svg xmlns:ffdec="https://www.free-decompiler.com/flash" xmlns:xlink="http://www.w3.org/1999/xlink" ffdec:objectType="frame" height="23.3px" width="20.25px" xmlns="http://www.w3.org/2000/svg">
  <g transform="matrix(1.0, 0.0, 0.0, 1.0, 0.1, -3.85)">
    <use ffdec:characterId="5" height="23.3" transform="matrix(1.0, 0.0, 0.0, 1.0, -0.1, 3.85)" width="20.25" xlink:href="#shape0"/>
  </g>
  <defs>
    <g id="shape0" transform="matrix(1.0, 0.0, 0.0, 1.0, 0.1, -3.85)">
      <path d="M14.7 7.7 Q16.8 8.75 17.25 10.85 17.45 11.9 17.25 12.75 19.0 17.25 19.9 24.0 L19.9 24.05 19.2 24.2 13.6 25.0 12.2 25.1 12.05 19.2 Q12.1 13.0 12.8 12.6 L14.6 11.0 Q15.5 9.6 14.7 7.7" fill="url(#gradient0)" fill-rule="evenodd" stroke="none"/>
      <path d="M5.4 11.0 Q5.95 11.8 7.2 12.6 7.9 13.0 7.95 19.2 L7.8 25.15 0.8 24.15 0.1 23.95 Q0.8 17.85 2.75 12.75 2.55 11.9 2.75 10.85 3.2 8.75 5.3 7.7 4.5 9.6 5.4 11.0" fill="url(#gradient1)" fill-rule="evenodd" stroke="none"/>
      <path d="M12.9 4.0 L15.1 7.9 15.15 7.95 Q16.05 11.0 13.15 12.75 L12.95 13.05 Q12.45 14.1 12.45 19.0 L12.55 24.05 12.55 25.1 12.2 25.1 11.15 25.15 10.8 25.15 10.65 11.5 Q12.25 11.2 13.35 9.7 L13.35 9.65 13.3 9.5 12.95 8.05 Q13.5 7.45 13.05 7.2 L12.15 3.9 12.9 4.0" fill="url(#gradient2)" fill-rule="evenodd" stroke="none"/>
      <path d="M7.0 3.95 L7.75 3.85 6.9 7.45 6.85 7.65 7.1 8.0 7.1 8.05 6.65 9.7 6.75 9.8 Q7.8 11.2 9.35 11.5 L9.2 25.2 8.8 25.2 7.8 25.15 7.5 25.15 7.5 24.05 7.6 19.0 Q7.6 14.1 7.1 13.05 L6.9 12.75 Q4.0 11.0 4.9 7.95 L7.0 3.95" fill="url(#gradient3)" fill-rule="evenodd" stroke="none"/>
      <path d="M15.5 8.2 Q16.4 11.2 13.5 12.95 L13.35 13.15 14.4 13.3 Q15.95 13.4 17.25 12.7 19.2 17.8 19.9 23.9 L19.9 24.0 19.9 24.05 20.1 25.85 19.45 26.05 19.2 24.2 13.6 25.0 12.9 25.05 12.55 25.1 12.55 24.05 12.45 19.0 Q12.45 14.1 12.95 13.05 L13.15 12.75 Q16.05 11.0 15.15 7.95 L15.5 8.2 M3.2 13.85 L2.05 18.0 1.15 22.25 Q4.45 23.8 7.15 24.05 L7.25 19.2 Q7.25 14.45 6.75 13.3 5.65 14.15 4.35 14.1 L3.2 13.85 M4.55 8.2 L4.9 7.95 Q4.0 11.0 6.9 12.75 L7.1 13.05 Q7.6 14.1 7.6 19.0 L7.5 24.05 7.5 25.1 7.15 25.05 6.45 25.0 0.85 24.2 0.8 24.2 0.55 26.05 -0.1 25.85 0.1 23.95 0.15 24.0 0.15 23.9 Q0.85 17.8 2.8 12.7 4.1 13.4 5.65 13.3 L6.7 13.15 6.55 12.95 Q3.65 11.2 4.55 8.2 M16.85 13.85 L15.7 14.1 Q14.4 14.15 13.3 13.3 12.8 14.45 12.8 19.2 L12.9 24.05 Q15.6 23.8 18.9 22.25 L18.0 18.0 16.85 13.85" fill="#1e3666" fill-opacity="0.49803922" fill-rule="evenodd" stroke="none"/>
      <path d="M10.6 9.5 L10.65 11.5 10.8 25.15 12.2 25.1 13.6 25.0 19.2 24.2 19.9 24.05 20.1 25.85 19.45 26.05 13.15 26.95 Q5.65 27.6 0.55 26.05 L-0.1 25.85 0.1 23.95 0.8 24.15 7.8 25.15 9.2 25.2 9.35 11.5 9.4 9.5 6.7 9.5 7.1 8.05 12.95 8.05 12.95 8.1 13.3 9.5 10.6 9.5" fill="#212419" fill-rule="evenodd" stroke="none"/>
      <path d="M12.9 8.8 L12.75 9.05 12.5 9.2 12.2 9.05 12.1 8.8 12.2 8.5 12.5 8.4 12.75 8.5 12.9 8.8 M11.05 8.5 L11.2 8.8 11.05 9.05 10.8 9.2 10.5 9.05 10.4 8.8 10.5 8.5 10.8 8.4 11.05 8.5 M10.3 10.4 L10.05 10.55 9.75 10.4 9.65 10.15 9.75 9.85 10.05 9.75 10.3 9.85 10.45 10.15 10.3 10.4 M10.45 11.95 L10.3 12.2 10.05 12.35 9.75 12.2 9.65 11.95 9.75 11.65 10.05 11.55 10.3 11.65 10.45 11.95 M7.65 9.2 L7.35 9.05 7.25 8.8 7.35 8.5 7.65 8.4 7.9 8.5 8.05 8.8 7.9 9.05 7.65 9.2 M9.2 8.4 L9.45 8.5 9.6 8.8 9.45 9.05 9.2 9.2 8.9 9.05 8.8 8.8 8.9 8.5 9.2 8.4 M10.0 13.5 L10.25 13.6 10.4 13.9 10.25 14.15 10.0 14.3 9.7 14.15 9.6 13.9 9.7 13.6 10.0 13.5 M10.0 17.55 L10.25 17.65 10.4 17.95 10.25 18.2 10.0 18.35 9.7 18.2 9.6 17.95 9.7 17.65 10.0 17.55 M9.7 15.65 L10.0 15.55 10.25 15.65 10.4 15.95 10.25 16.2 10.0 16.35 9.7 16.2 9.6 15.95 9.7 15.65 M9.7 19.8 L10.0 19.7 10.25 19.8 10.4 20.1 10.25 20.35 10.0 20.5 9.7 20.35 9.6 20.1 9.7 19.8 M9.6 24.15 L9.7 23.85 10.0 23.75 10.25 23.85 10.4 24.15 10.25 24.4 10.0 24.55 9.7 24.4 9.6 24.15 M9.6 22.2 L9.7 21.9 10.0 21.8 10.25 21.9 10.4 22.2 10.25 22.45 10.0 22.6 9.7 22.45 9.6 22.2 M19.7 25.15 L19.55 25.5 19.2 25.65 Q19.0 25.65 18.85 25.5 L18.7 25.15 18.85 24.8 Q19.0 24.65 19.2 24.65 L19.55 24.8 19.7 25.15 M17.5 25.55 L17.35 25.9 17.0 26.05 16.65 25.9 16.5 25.55 16.65 25.2 Q16.8 25.05 17.0 25.05 L17.35 25.2 17.5 25.55 M13.75 25.95 Q13.75 25.75 13.9 25.6 14.05 25.45 14.25 25.45 14.45 25.45 14.6 25.6 L14.75 25.95 14.6 26.3 14.25 26.45 13.9 26.3 13.75 25.95 M12.1 26.5 L11.75 26.65 11.4 26.5 11.25 26.15 11.4 25.8 Q11.55 25.65 11.75 25.65 L12.1 25.8 12.25 26.15 12.1 26.5 M9.45 26.6 L9.1 26.75 8.75 26.6 8.6 26.25 8.75 25.9 Q8.9 25.75 9.1 25.75 L9.45 25.9 9.6 26.25 9.45 26.6 M6.8 26.1 L6.65 26.45 6.3 26.6 5.95 26.45 5.8 26.1 Q5.8 25.9 5.95 25.75 6.1 25.6 6.3 25.6 L6.65 25.75 6.8 26.1 M3.05 25.75 L3.2 25.4 3.55 25.25 3.9 25.4 4.05 25.75 3.9 26.1 3.55 26.25 3.2 26.1 3.05 25.75 M0.55 24.85 Q0.7 24.7 0.9 24.7 L1.25 24.85 1.4 25.2 1.25 25.55 0.9 25.7 0.55 25.55 0.4 25.2 0.55 24.85" fill="#a76ce2" fill-rule="evenodd" stroke="none"/>
      <path d="M13.0 8.25 L12.75 8.4 12.7 8.15 12.9 8.15 13.0 8.25 M13.15 9.2 L12.95 9.4 12.85 9.15 13.05 9.1 13.15 9.2 M11.25 8.25 Q11.25 8.0 11.55 8.1 L11.65 8.2 11.3 8.45 11.25 8.25 M10.55 9.25 L10.35 9.55 10.25 9.6 10.15 9.4 Q10.15 9.15 10.45 9.15 L10.55 9.25 M10.2 8.25 L10.4 8.25 10.5 8.35 10.25 8.5 10.2 8.25 M12.05 8.45 Q11.85 8.45 11.85 8.15 L12.25 8.3 12.05 8.45 M11.7 8.6 L11.9 8.75 11.65 8.9 11.55 8.65 11.7 8.6 M12.3 9.2 L12.05 9.45 11.95 9.25 Q11.95 9.0 12.2 9.1 L12.3 9.2 M11.65 9.25 L11.5 9.4 Q11.2 9.25 11.3 9.1 11.45 9.05 11.65 9.25 M10.3 11.0 L10.1 11.2 9.95 11.1 9.95 10.9 10.2 10.9 10.3 11.0 M10.65 11.35 L10.4 11.6 10.3 11.4 Q10.3 11.15 10.55 11.25 L10.65 11.35 M8.6 8.15 L8.85 8.4 8.65 8.55 8.45 8.45 8.45 8.15 8.6 8.15 M7.85 8.3 Q7.85 8.05 8.15 8.15 L8.25 8.25 7.9 8.5 7.85 8.3 M8.15 9.05 L8.35 9.25 8.2 9.4 8.05 9.3 8.05 9.05 8.15 9.05 M8.5 8.7 L8.25 8.85 8.15 8.6 8.4 8.6 8.5 8.7 M8.8 9.1 L8.9 9.2 8.65 9.45 8.55 9.25 Q8.55 9.0 8.8 9.1 M10.1 8.6 L10.2 8.7 9.95 8.85 9.9 8.6 10.1 8.6 M10.0 8.25 L9.65 8.55 9.55 8.35 9.65 8.2 9.9 8.15 10.0 8.25 M7.35 9.15 L7.1 9.45 7.0 9.25 7.05 9.05 7.25 9.05 7.35 9.15 M7.55 8.25 L7.35 8.4 7.2 8.35 7.15 8.1 7.3 8.1 7.55 8.25 M9.85 9.5 L9.65 9.35 9.65 9.1 10.05 9.35 9.85 9.5 M9.65 11.05 L9.9 11.25 9.7 11.4 9.5 11.1 9.65 11.05 M9.95 12.5 L9.55 12.8 9.5 12.6 Q9.5 12.4 9.85 12.4 L9.95 12.5 M9.45 13.2 L9.55 13.2 9.75 13.35 9.75 13.45 9.6 13.55 9.45 13.45 9.45 13.2 M9.9 12.9 L10.15 12.85 10.25 12.95 9.95 13.15 9.9 12.9 M10.0 14.85 L10.2 15.0 9.95 15.15 9.85 14.9 10.0 14.85 M9.85 14.35 L9.5 14.65 9.4 14.45 9.75 14.25 9.85 14.35 M9.8 15.4 L9.65 15.55 Q9.35 15.4 9.45 15.25 L9.8 15.4 M9.95 16.8 L10.15 16.95 9.95 17.15 9.85 17.05 9.85 16.8 9.95 16.8 M9.4 16.55 L9.75 16.45 9.85 16.55 9.45 16.8 9.4 16.55 M9.65 17.6 L9.45 17.45 9.45 17.2 9.85 17.45 9.65 17.6 M9.8 18.45 L9.4 18.7 9.25 18.6 Q9.35 18.35 9.7 18.35 L9.8 18.45 M0.05 24.4 L0.2 24.35 0.5 24.65 0.45 24.75 0.35 24.8 0.15 24.65 0.05 24.4 M9.85 19.0 L10.1 18.95 10.15 19.05 10.1 19.2 9.9 19.25 9.85 19.0 M9.6 19.5 L9.45 19.4 9.45 19.15 9.55 19.15 9.75 19.35 9.6 19.5 M9.9 21.1 L10.05 21.05 10.2 21.15 10.2 21.3 10.05 21.4 9.9 21.1 M9.8 20.65 L9.4 20.9 9.35 20.7 9.7 20.55 9.8 20.65 M9.45 21.4 L9.85 21.55 9.65 21.7 9.5 21.65 9.45 21.4 M10.1 23.1 L10.15 23.2 10.1 23.35 10.0 23.4 9.9 23.15 10.1 23.1 M9.35 22.9 Q9.35 22.7 9.65 22.7 L9.75 22.8 9.45 23.1 9.35 22.9 M9.6 23.7 L9.45 23.8 9.25 23.7 9.3 23.45 9.4 23.45 9.6 23.7 M9.75 24.6 L9.35 24.9 9.2 24.8 Q9.25 24.5 9.65 24.5 L9.75 24.6 M10.3 12.75 L10.25 12.45 10.35 12.45 10.55 12.6 10.3 12.75 M10.25 13.55 L10.2 13.35 10.5 13.2 10.6 13.3 10.25 13.55 M10.55 14.4 L10.5 14.5 10.4 14.55 10.3 14.3 10.45 14.3 10.55 14.4 M10.6 15.15 L10.25 15.55 10.15 15.35 Q10.15 15.05 10.55 15.05 L10.6 15.15 M10.45 16.85 L10.35 16.9 Q10.1 16.9 10.1 16.5 10.25 16.5 10.5 16.75 L10.45 16.85 M10.5 17.3 L10.15 17.6 10.05 17.4 Q10.05 17.2 10.4 17.2 L10.5 17.3 M10.55 18.5 L10.55 18.6 10.4 18.7 10.2 18.4 10.35 18.35 10.55 18.5 M10.55 19.2 L10.3 19.6 10.2 19.4 Q10.2 19.1 10.5 19.1 L10.55 19.2 M10.55 20.75 L10.4 20.85 10.25 20.75 10.25 20.5 10.35 20.5 10.55 20.75 M10.7 21.4 L10.4 21.75 10.3 21.55 Q10.3 21.3 10.6 21.3 L10.7 21.4 M10.6 22.9 L10.5 22.95 10.35 22.85 10.35 22.55 10.65 22.8 10.6 22.9 M10.7 23.45 L10.6 23.75 10.5 23.8 10.4 23.7 10.4 23.35 10.65 23.35 10.7 23.45 M10.55 24.55 L10.8 24.75 10.75 24.9 10.65 24.95 Q10.4 24.95 10.4 24.55 L10.55 24.55 M18.5 24.65 L18.75 24.8 18.75 24.9 18.6 25.0 18.3 24.75 18.3 24.65 18.5 24.65 M19.85 24.4 L19.7 24.7 19.6 24.75 19.5 24.55 Q19.5 24.3 19.75 24.3 L19.85 24.4 M19.65 25.4 L19.8 25.4 20.15 25.6 19.95 25.8 Q19.65 25.8 19.65 25.4 M18.35 25.2 L18.4 25.35 18.15 25.55 18.05 25.25 18.35 25.2 M18.15 24.85 L17.7 25.25 17.6 25.05 Q17.6 24.75 18.05 24.75 L18.15 24.85 M18.35 26.0 L18.2 26.2 17.65 25.8 17.65 25.7 17.8 25.7 Q18.15 25.7 18.35 26.0 M18.8 25.85 L18.55 26.1 18.45 25.85 18.5 25.65 18.6 25.65 18.8 25.85 M16.6 26.05 L16.15 26.4 16.1 26.2 Q16.1 25.95 16.5 25.95 L16.6 26.05 M15.95 25.15 L15.95 25.0 16.4 25.0 16.45 25.25 16.3 25.35 15.95 25.15 M15.5 25.65 Q15.5 25.45 15.8 25.45 L16.05 25.6 15.8 25.9 15.5 25.65 M15.3 26.55 L14.85 26.15 14.85 26.05 15.0 26.05 15.2 26.15 15.5 26.45 15.3 26.55 M14.8 25.5 Q14.8 25.15 15.15 25.15 L15.25 25.25 14.95 25.7 14.8 25.5 M13.9 25.45 L13.65 25.6 13.3 25.35 13.3 25.25 13.5 25.25 13.9 25.45 M12.8 25.35 L12.35 25.8 12.25 25.6 Q12.25 25.35 12.7 25.25 L12.8 25.35 M12.9 26.1 L12.9 25.75 13.1 25.75 13.35 25.9 13.1 26.15 12.9 26.1 M12.75 26.8 L12.35 26.5 12.35 26.4 12.5 26.4 12.9 26.6 12.85 26.75 12.75 26.8 M13.8 26.45 L13.35 26.8 13.3 26.6 13.45 26.45 13.7 26.35 13.8 26.45 M10.4 25.45 Q10.4 25.75 9.85 25.95 L9.8 25.75 Q9.8 25.55 10.0 25.5 L10.3 25.35 10.4 25.45 M10.7 25.4 L10.85 25.4 11.15 25.6 10.95 25.75 10.7 25.5 10.7 25.4 M10.55 25.9 L10.75 26.1 10.55 26.35 10.35 26.3 10.3 26.1 10.55 25.9 M11.3 26.6 L10.85 26.95 10.8 26.75 10.95 26.6 11.2 26.5 11.3 26.6 M10.0 24.8 L10.2 25.05 10.05 25.15 9.9 25.05 9.9 24.8 10.0 24.8 M8.1 26.15 L8.0 26.3 7.8 26.4 7.55 26.15 Q7.55 25.9 7.8 25.9 L8.1 26.15 M8.45 25.8 Q8.2 25.8 8.2 25.4 8.35 25.35 8.65 25.65 L8.45 25.8 M8.55 26.55 L8.15 26.95 8.05 26.75 Q8.05 26.5 8.45 26.45 L8.55 26.55 M9.9 26.75 L9.75 26.5 9.9 26.45 10.3 26.75 10.1 26.9 9.9 26.75 M7.2 25.4 L7.5 25.4 7.6 25.5 6.9 25.8 6.85 25.55 7.2 25.4 M5.85 25.65 L5.65 25.75 5.2 25.4 5.2 25.35 5.5 25.3 5.85 25.65 M5.7 26.4 L5.25 26.75 5.15 26.55 Q5.15 26.3 5.6 26.3 L5.7 26.4 M7.45 26.75 L7.4 26.85 7.3 26.9 6.85 26.55 6.85 26.35 7.0 26.35 7.45 26.75 M4.75 26.0 L4.75 25.7 5.0 25.7 5.25 25.85 Q5.25 26.1 4.95 26.1 L4.75 26.0 M4.3 25.5 L4.25 25.35 Q4.25 25.15 4.75 25.15 L4.85 25.25 4.4 25.55 4.3 25.5 M2.95 25.35 L2.75 25.2 2.65 24.95 Q2.85 24.9 3.1 25.15 L3.05 25.3 2.95 25.35 M2.95 26.0 L2.55 26.25 2.45 26.2 2.4 26.05 2.6 25.9 2.85 25.9 2.95 26.0 M4.6 26.65 L4.35 26.4 4.25 26.1 Q4.4 26.05 4.8 26.45 L4.6 26.65 M2.45 25.45 L2.2 25.7 2.05 25.65 2.05 25.3 2.25 25.3 2.45 25.45 M2.3 24.9 Q2.1 25.1 1.7 25.15 L1.65 24.9 2.2 24.8 2.3 24.9 M1.5 25.75 Q1.65 25.65 2.0 26.0 L1.8 26.15 Q1.5 26.15 1.5 25.75 M0.0 25.55 Q0.0 25.35 0.35 25.35 L0.45 25.45 0.1 25.75 0.0 25.55" fill="#fdf2dc" fill-rule="evenodd" stroke="none"/>
      <path d="M12.95 7.15 Q13.55 7.4 12.95 8.05 L10.4 8.05 10.4 7.35 Q10.45 7.05 10.85 7.0 11.35 6.95 11.4 7.25 L11.5 7.55 11.5 7.6 11.85 7.65 Q11.75 7.15 12.2 7.05 L12.7 7.1 12.95 7.15 M10.35 8.05 L7.15 8.05 7.1 8.0 6.85 7.65 Q6.75 7.35 7.3 7.2 L7.6 7.15 8.2 7.2 8.2 7.25 8.35 7.65 Q8.55 7.6 8.55 7.35 L8.45 7.0 Q8.4 6.8 8.85 6.8 9.4 6.75 9.8 7.0 L10.0 7.2 10.1 7.75 10.2 7.75 10.35 7.65 10.35 8.05 M10.6 9.5 L13.3 9.5 13.35 9.7 Q12.25 11.2 10.65 11.5 L10.6 9.5 M6.7 9.5 L9.4 9.5 9.35 11.5 Q7.75 11.2 6.65 9.7 L6.7 9.5" fill="#fcf2d7" fill-rule="evenodd" stroke="none"/>
      <path d="M12.9 8.05 Q13.1 7.4 12.25 7.4 11.9 7.4 11.85 7.65 11.75 7.15 12.2 7.05 L12.7 7.1 12.95 7.15 Q13.55 7.4 12.95 8.05 L12.9 8.05 M11.8 7.65 L11.8 8.05 11.6 8.05 11.5 7.6 11.5 7.65 10.9 7.45 10.65 7.45 10.4 7.75 10.4 7.4 Q10.45 7.1 10.85 7.05 11.35 7.0 11.4 7.3 L11.5 7.6 11.8 7.65 M10.35 8.05 L9.8 8.05 9.8 7.55 9.8 7.45 Q9.85 7.35 9.95 7.35 9.85 7.35 9.8 7.45 9.5 7.15 9.15 7.15 8.65 7.15 8.6 7.5 L8.8 8.05 8.2 8.05 8.0 7.7 7.95 7.65 7.05 7.7 7.05 8.25 7.0 8.15 6.75 7.6 Q6.65 7.15 7.25 7.15 L7.55 7.15 8.2 7.35 8.2 7.25 8.35 7.65 Q8.55 7.6 8.55 7.35 L8.45 7.0 Q8.4 6.8 8.85 6.8 9.4 6.75 9.8 7.0 L10.0 7.2 10.1 7.75 10.2 7.75 10.35 7.65 10.35 8.05 M10.65 11.0 L11.5 10.8 Q12.55 10.5 13.3 9.9 L12.65 10.65 10.9 11.9 11.15 25.15 10.8 25.15 10.65 11.5 10.65 11.0 M6.7 9.85 Q8.0 10.85 9.4 11.0 L9.35 11.5 9.2 25.2 8.8 25.2 9.05 11.9 Q8.2 11.6 7.3 10.65 L6.7 9.85" fill="#999282" fill-opacity="0.49803922" fill-rule="evenodd" stroke="none"/>
      <path d="M11.9 11.85 L11.95 11.85 12.0 11.7 12.15 11.65 12.3 11.7 12.35 11.85 12.3 12.0 12.15 12.05 12.05 12.05 12.0 12.1 10.5 12.7 11.05 12.8 11.9 12.95 11.95 12.95 11.95 12.9 12.1 12.85 12.25 12.9 12.3 13.05 12.25 13.2 12.1 13.25 11.95 13.2 11.9 13.2 11.0 13.05 10.0 12.85 9.95 12.85 7.95 13.1 7.9 13.1 7.75 13.15 7.6 13.1 7.55 13.05 7.55 12.95 7.6 12.8 7.75 12.75 7.9 12.8 7.95 12.85 9.4 12.7 7.9 12.05 7.75 12.05 7.6 12.0 7.55 11.95 7.55 11.85 7.6 11.7 7.75 11.65 7.9 11.7 7.95 11.85 8.0 11.85 Q8.85 12.3 9.95 12.6 L11.9 11.85 M8.15 13.9 L10.0 14.65 11.8 13.9 11.8 13.85 11.95 13.8 12.05 13.8 12.1 13.85 12.15 13.9 12.15 14.0 12.1 14.15 11.95 14.2 11.8 14.15 10.55 14.75 11.05 14.85 11.75 15.0 11.75 14.95 11.9 14.9 12.05 14.95 12.1 15.1 12.05 15.25 11.9 15.3 11.75 15.25 11.0 15.1 10.05 14.9 10.0 14.9 8.2 15.15 8.15 15.15 8.0 15.2 7.85 15.15 7.8 15.1 7.8 15.0 7.85 14.85 8.0 14.8 8.15 14.85 8.2 14.9 9.5 14.75 8.1 14.15 7.95 14.15 7.8 14.1 7.75 14.05 7.75 13.95 7.8 13.8 7.95 13.75 8.1 13.8 8.15 13.9 M8.15 16.1 L8.3 16.15 8.35 16.3 10.0 17.05 11.55 16.35 11.55 16.3 11.6 16.15 11.75 16.1 11.9 16.15 11.95 16.3 11.9 16.45 11.75 16.5 10.5 17.15 10.95 17.25 11.65 17.4 11.75 17.35 11.9 17.4 11.95 17.55 11.9 17.7 11.75 17.75 11.6 17.7 11.55 17.65 10.9 17.5 10.05 17.3 10.0 17.3 8.4 17.55 8.35 17.55 8.2 17.6 8.05 17.55 8.0 17.5 8.0 17.4 8.05 17.25 8.2 17.2 8.35 17.25 8.4 17.3 9.55 17.15 8.25 16.5 8.15 16.5 8.0 16.45 7.95 16.4 7.95 16.3 8.0 16.15 8.15 16.1 M8.05 21.2 L8.05 21.1 8.1 21.05 8.1 21.0 8.25 20.95 8.4 21.0 8.45 21.15 8.45 21.2 10.0 21.9 11.6 21.15 11.65 21.0 11.8 20.95 11.95 21.0 12.0 21.15 11.95 21.3 11.8 21.35 11.75 21.35 10.5 22.0 10.95 22.1 11.55 22.2 11.7 22.15 11.85 22.2 11.9 22.35 11.85 22.5 11.7 22.55 11.55 22.5 11.5 22.45 10.9 22.35 10.05 22.15 10.0 22.15 8.45 22.4 8.4 22.45 8.25 22.5 8.1 22.45 8.05 22.4 8.05 22.3 8.1 22.15 8.25 22.1 8.35 22.15 9.55 22.0 8.25 21.35 8.1 21.3 8.05 21.25 8.05 21.2 M10.05 19.7 L10.0 19.7 8.4 19.95 8.35 20.0 8.2 20.05 8.05 20.0 8.0 19.95 8.0 19.85 8.05 19.7 8.2 19.65 8.35 19.7 9.55 19.55 8.3 18.95 8.25 18.95 8.1 18.9 8.05 18.85 8.05 18.8 8.05 18.75 8.05 18.65 8.15 18.6 8.25 18.55 8.4 18.6 8.45 18.75 10.0 19.45 11.55 18.75 11.55 18.7 11.6 18.55 11.75 18.5 11.9 18.55 11.95 18.7 11.9 18.85 11.75 18.9 10.5 19.55 10.95 19.65 11.6 19.8 11.6 19.75 11.75 19.7 11.9 19.75 11.95 19.9 11.9 20.05 11.75 20.1 11.6 20.05 10.9 19.9 10.05 19.7 M8.25 23.6 L8.1 23.55 8.05 23.5 8.05 23.4 8.1 23.25 8.25 23.2 8.4 23.25 8.45 23.4 Q9.2 23.85 10.1 24.15 L11.6 23.45 11.6 23.4 11.65 23.25 11.8 23.2 11.95 23.25 12.0 23.3 12.0 23.35 12.05 23.4 12.05 23.5 12.0 23.65 11.85 23.7 11.75 23.7 10.6 24.25 11.05 24.35 11.75 24.5 11.85 24.45 12.0 24.5 12.05 24.65 12.0 24.8 11.85 24.85 11.7 24.8 11.65 24.75 11.0 24.6 10.15 24.4 10.1 24.4 8.45 24.65 8.4 24.65 8.25 24.7 8.1 24.65 8.05 24.6 8.05 24.5 8.1 24.35 8.25 24.3 8.4 24.35 8.45 24.4 9.65 24.25 8.35 23.6 8.25 23.6" fill="#000000" fill-rule="evenodd" stroke="none"/>
    </g>
    <linearGradient gradientTransform="matrix(0.0, 0.0107, -0.0107, -1.0E-4, 16.0, 16.4)" gradientUnits="userSpaceOnUse" id="gradient0" spreadMethod="pad" x1="-819.2" x2="819.2">
      <stop offset="0.0" stop-color="#1b5a99"/>
      <stop offset="0.5882352941176471" stop-color="#2be8c8"/>
      <stop offset="1.0" stop-color="#1b5a99"/>
    </linearGradient>
    <linearGradient gradientTransform="matrix(1.0E-4, 0.0108, -0.0107, 0.0, 4.05, 16.45)" gradientUnits="userSpaceOnUse" id="gradient1" spreadMethod="pad" x1="-819.2" x2="819.2">
      <stop offset="0.0" stop-color="#1b5a99"/>
      <stop offset="0.5882352941176471" stop-color="#2be8c8"/>
      <stop offset="1.0" stop-color="#1b5a99"/>
    </linearGradient>
    <linearGradient gradientTransform="matrix(-1.0E-4, -0.0094, 0.013, -1.0E-4, 12.75, 11.55)" gradientUnits="userSpaceOnUse" id="gradient2" spreadMethod="pad" x1="-819.2" x2="819.2">
      <stop offset="0.0" stop-color="#8fc1cc"/>
      <stop offset="0.38823529411764707" stop-color="#ffecb3"/>
      <stop offset="1.0" stop-color="#8fc1cc"/>
    </linearGradient>
    <linearGradient gradientTransform="matrix(0.0, -0.0093, 0.013, 0.0, 7.05, 11.5)" gradientUnits="userSpaceOnUse" id="gradient3" spreadMethod="pad" x1="-819.2" x2="819.2">
      <stop offset="0.0" stop-color="#8fc1cc"/>
      <stop offset="0.38823529411764707" stop-color="#ffecb3"/>
      <stop offset="1.0" stop-color="#8fc1cc"/>
    </linearGradient>
  </defs>
</svg>
