<?xml version="1.0" encoding="UTF-8" standalone="no"?>
<svg xmlns:ffdec="https://www.free-decompiler.com/flash" xmlns:xlink="http://www.w3.org/1999/xlink" ffdec:objectType="frame" height="8.65px" width="7.1px" xmlns="http://www.w3.org/2000/svg">
  <g transform="matrix(1.0, 0.0, 0.0, 1.0, -0.4, -2.4)">
    <use ffdec:characterId="5" height="8.65" transform="matrix(1.0, 0.0, 0.0, 1.0, 0.4, 2.4)" width="7.1" xlink:href="#shape0"/>
  </g>
  <defs>
    <g id="shape0" transform="matrix(1.0, 0.0, 0.0, 1.0, -0.4, -2.4)">
      <path d="M4.75 10.25 L7.1 9.45 7.35 10.0 5.0 10.85 4.75 10.25" fill="#183349" fill-rule="evenodd" stroke="none"/>
      <path d="M5.1 11.05 L5.0 10.85 7.35 10.0 7.5 10.2 5.1 11.05" fill="#071016" fill-rule="evenodd" stroke="none"/>
      <path d="M2.65 3.4 L4.0 3.85 5.15 4.4 5.25 5.55 7.25 7.15 7.4 7.5 7.45 8.25 Q7.2 8.75 7.1 9.5 L5.55 10.05 Q4.0 10.6 3.95 10.7 L0.4 2.4 Q0.95 2.4 1.7 2.85 L2.65 3.4" fill="#0f6182" fill-rule="evenodd" stroke="none"/>
      <path d="M5.2 4.6 L5.2 5.55 3.15 5.75 Q3.55 5.7 5.2 4.6" fill="#093947" fill-rule="evenodd" stroke="none"/>
      <path d="M7.1 7.45 Q7.45 7.15 7.45 8.25 7.45 8.85 4.6 9.15 5.4 8.9 7.1 7.45" fill="#093947" fill-rule="evenodd" stroke="none"/>
    </g>
  </defs>
</svg>
