<svg xmlns="http://www.w3.org/2000/svg" xmlns:ffdec="https://www.free-decompiler.com/flash" xmlns:xlink="http://www.w3.org/1999/xlink" ffdec:objectType="frame" width="10.5" height="8.9"><use ffdec:characterId="5" xlink:href="#a" width="10.5" height="8.9"/><defs><g id="a" fill-rule="evenodd"><path fill="#d9ca9d" d="m7.65 4.55.3.3.3 1-.05 1v.45-.25l-.05.1-.15-.1-.65-.9Q6.55 5 6.15 4.9l-.75.05-.5.15v.05l.2.2-.1.05.6 1.25.25 1.2V7.8L4.7 7.05 3.45 6.1l-.65.15v.3l-.4 1.2-.25.45-.25.25-.4.4.25-1.15q.15-.8.45-1.15l-.35-.3q.2-.1-.15-.35l-.3-.5v-.1l.05-.35q.05-.25.3-.2l.2.2.35-.05.25.1q.05.15.25.15l1.2-.9q.1-.25.55-.3l.8-.05.35-.45.15-.65.8-.2.95.05-.1.5q1.15-.2 1.85.7 1.85 2.65.7 1.55-1.5-1.45-1.95-1.45l-.4-.05q-.25.05-.65.4l-.3.05h.3H7h.25L7 4.4h.35zM1.4 8.9h-.05l-.3-1.7-.15-.35V6.6zm-.2-2.6q-.55-.5-.65-1v-.05l.2.15-.15-.05q0 .3.65.9l.05.05h-.1m-.7-2v-.05h.05zm.4 1.1h.4l-.2.05z"/><path fill="#c1b79c" d="m10.05 5.4.2.2-.4-.1q-1.35-.65-2.2-.95l-.3-.15H7l.25-.05H7h.05-.3l.3-.05q.4-.35.65-.4l.4.05q.45 0 1.95 1.45M8 7.05h-.05L6.4 6.2l-1.3-.85-.2-.2V5.1l.5-.15.75-.05q.4.1 1.2 1.25zm-2.15.8H5.5L4.25 7.2l-1-.8.05-.25h.1l.05-.05 1.25.95 1.15.75zm-4.35 1-.1.05-.5-2.3.3-.3h.1l-.05-.05q-.65-.6-.65-.9l.15.05H.9l.2.05.2-.05h.1l.3.5q.35.25.15.35l.35.3q-.3.35-.45 1.15zm-.95-3.6Q.25 4.95.3 4.2L.05 2.95l.6.1.95-.4.25-.05q.65-.15.9-1.4Q2.9.45 4.15.15L4.6.2h.15l.9-.2q.4-.1 1.25.85.75.75.6 1.2l-.05.15-.35-.35-.65-.7-.8-.05-.2.55-.6-.25-.15-.15-.1-.15-.7.35-.35.5.1.3-.15.8-.55-.35h-.2l-1.2.55-.05.15-.35.55Q1.05 3.6.5 3.6v.9zm.8 1.05.2-.15-.15.1z"/><path fill="#e2dcce" d="M.05 2.95 0 2.65q0-.25.3-.35l.65-.2.7-.6.15-.35.25-.65q.2-.45.85-.45l1.25.1Q2.9.45 2.75 1.2q-.25 1.25-.9 1.4l-.25.05-.95.4zm7.4-.75.2.15v.3H7.6l-.95-.05-.8.2-.15.65-.35.45-.8.05Q4.1 4 4 4.25l-1.2.9q-.2 0-.25-.15l-.25-.1-.35.05-.2-.2q-.25-.05-.3.2l-.05.35v.1H.75l-.2-.15L.5 4.5v-.2l.05-.05H.5V3.6q.55 0 .65.35l.35-.55.05-.15 1.2-.55h.2l.55.35.15-.8-.1-.3.35-.5.7-.35.1.15.15.15.6.25.2-.55.8.05.65.7z"/></g></defs></svg>