<svg xmlns="http://www.w3.org/2000/svg" xmlns:ffdec="https://www.free-decompiler.com/flash" xmlns:xlink="http://www.w3.org/1999/xlink" ffdec:objectType="frame" width="8.8" height="12.3"><g transform="translate(-.2 -2.5)"><use ffdec:characterId="8" xlink:href="#a" width="6.5" height="4.6" transform="matrix(1.0765 0 0 1 1.992 10.2)"/><use ffdec:characterId="9" xlink:href="#b" width="8.7" height="12.25" transform="translate(.2 2.5)"/></g><defs><path id="c" fill-rule="evenodd" d="m7.15 6 .35-.2.05.05.8 1.95Q6.8 9 2.45 10.35l-.6-2.15.2-.15H2L1.95 8q3.2-.75 5.45-2.25z" transform="translate(-1.85 -5.75)"/><use ffdec:characterId="7" xlink:href="#c" id="a" width="6.5" height="4.6"/><g id="b"><path fill="#fecc41" fill-rule="evenodd" d="M.3.8Q.55.45 1.7.2L3.2 0l1.2 1.5 2 2.85q1.85 2.35 1.05 3.6Q5.2 9.45 2 10.2l-.25-.35-.45-1L.4 4.6Q-.35 1.6.3.8"/><path fill="none" stroke="#333" stroke-linecap="round" stroke-linejoin="round" stroke-width=".1" d="m3.95 2.7.4.65m-1-1.8.35.75M2.55.25 3 1m2.7 4.9.35.8M5.1 4.85l.4.7m.75 1.5.35.85M4.55 3.7l.35.75"/><path fill-opacity=".298" fill-rule="evenodd" d="M.1 2.65Q-.15.5.85.4l1.6 3.2 1 2.6q1.1 2.3 1.8 2.4l1 .05-.7.6q-.65.6-.6.8.1.55 1.45.25 1.5-.35 2-1.2l.3.7-2.2 1.1-4.05 1.35-.6-2.05.45-.1q-1.1.2-1.65-4.85z"/></g></defs></svg>