<?xml version="1.0" encoding="UTF-8" standalone="no"?>
<svg xmlns:ffdec="https://www.free-decompiler.com/flash" xmlns:xlink="http://www.w3.org/1999/xlink" ffdec:objectType="frame" height="12.55px" width="9.35px" xmlns="http://www.w3.org/2000/svg">
  <g transform="matrix(1.0, 0.0, 0.0, 1.0, 0.25, -2.15)">
    <use ffdec:characterId="5" height="12.55" transform="matrix(1.0, 0.0, 0.0, 1.0, -0.25, 2.15)" width="9.35" xlink:href="#shape0"/>
  </g>
  <defs>
    <g id="shape0" transform="matrix(1.0, 0.0, 0.0, 1.0, 0.25, -2.15)">
      <path d="M8.25 14.3 Q7.65 14.7 6.75 14.7 5.55 14.7 5.15 14.0 L-0.1 4.45 Q-0.55 2.55 0.4 2.3 L3.05 6.9 5.9 11.25 Q6.85 12.75 7.55 13.4 L8.25 14.3" fill="#5b004a" fill-rule="evenodd" stroke="none"/>
      <path d="M0.4 2.3 L1.15 2.15 Q1.7 2.2 2.45 2.95 L3.3 3.85 3.35 3.85 4.75 5.85 5.8 7.35 7.25 9.3 8.75 11.3 Q9.1 11.8 9.1 12.4 L8.85 13.6 8.7 13.85 8.25 14.3 7.55 13.4 Q6.85 12.75 5.9 11.25 L3.05 6.9 0.4 2.3" fill="#691d5b" fill-rule="evenodd" stroke="none"/>
    </g>
  </defs>
</svg>
