<svg xmlns="http://www.w3.org/2000/svg" xmlns:ffdec="https://www.free-decompiler.com/flash" xmlns:xlink="http://www.w3.org/1999/xlink" ffdec:objectType="frame" width="8.75" height="11.6"><use ffdec:characterId="1" xlink:href="#a" width="8.75" height="11.6"/><defs><g id="a" fill-rule="evenodd"><path fill="#fff" d="M3.15.9q.7.9 2 1.8 1.2.6 1.25.8l.05 1.1-.1 1.05v.1l.7-.25q1.15.75 1.7 3.95-1.15 1.1-6 2.15-1.05-.75-1.1-4.5h.1l-.55-.65-.4-.95-.7-3.55Q-.25.5.9.1 2-.35 3.15.9"/><path fill="#d6dee1" d="M.8.15q.75 5.9 3.95 6.2L2.7 6.9q-.7.25-1.15 0t-.7-1.15L.1 2.15Q-.25.8.8.15"/><path fill="#ccc" d="m7.2 7.75.35.05-.25.3-.65.35-.8.15-.3-.15.2-.2.7-.35zm-.4-.95-.65.35-.8.15-.3-.15.2-.2.7-.35.75-.15.35.05z"/></g></defs></svg>