<svg xmlns="http://www.w3.org/2000/svg" xmlns:ffdec="https://www.free-decompiler.com/flash" xmlns:xlink="http://www.w3.org/1999/xlink" ffdec:objectType="frame" width="11.75" height="14.15"><use ffdec:characterId="1" xlink:href="#a" width="11.75" height="14.15"/><defs><radialGradient id="b" cx="0" cy="0" r="819.2" gradientTransform="translate(3.9 7.05)scale(.0099)" gradientUnits="userSpaceOnUse" spreadMethod="pad"><stop offset="0" stop-color="#232051"/><stop offset="1" stop-color="#060731"/></radialGradient><radialGradient id="c" cx="0" cy="0" r="819.2" gradientTransform="translate(-.2 -.4)scale(1.0471)" gradientUnits="userSpaceOnUse" spreadMethod="pad"><stop offset="0" stop-color="#0a0920"/><stop offset="1" stop-color="#010115"/></radialGradient><radialGradient id="d" cx="0" cy="0" r="819.2" gradientTransform="matrix(.37 0 0 .37 3.45 5.65)" gradientUnits="userSpaceOnUse" spreadMethod="pad"><stop offset="0" stop-color="#0b082c"/><stop offset="1" stop-color="#000007"/></radialGradient><radialGradient id="f" cx="0" cy="0" r="819.2" gradientTransform="translate(6.35 14.35)scale(.0074)" gradientUnits="userSpaceOnUse" spreadMethod="pad"><stop offset="0" stop-color="#f3f3f3"/><stop offset="1" stop-color="#cbcbcb"/></radialGradient><radialGradient id="i" cx="0" cy="0" r="819.2" gradientTransform="translate(3.9 7.05)scale(.0099)" gradientUnits="userSpaceOnUse" spreadMethod="pad"><stop offset="0" stop-color="#3e2051"/><stop offset=".702" stop-color="#230631"/><stop offset="1"/></radialGradient><linearGradient id="e" x1="-819.2" x2="819.2" gradientTransform="matrix(.0013 -.0004 .0005 .0017 3.25 10.1)" gradientUnits="userSpaceOnUse" spreadMethod="pad"><stop offset=".008" stop-color="#e2d25f"/><stop offset=".184" stop-color="#fff"/><stop offset=".325" stop-color="#de9d3b"/><stop offset=".459" stop-color="#e2d25f"/><stop offset="1" stop-color="#bf7c2a"/></linearGradient><linearGradient id="g" x1="-819.2" x2="819.2" gradientTransform="translate(-.2 -.4)scale(1.0471)" gradientUnits="userSpaceOnUse" spreadMethod="pad"><stop offset=".008" stop-color="#e2d25f"/><stop offset=".184" stop-color="#fff"/><stop offset=".325" stop-color="#de9d3b"/><stop offset=".459" stop-color="#e2d25f"/><stop offset="1" stop-color="#bf7c2a"/></linearGradient><linearGradient id="h" x1="-819.2" x2="819.2" gradientTransform="matrix(.0016 -.0009 .0008 .0014 5.75 9.5)" gradientUnits="userSpaceOnUse" spreadMethod="pad"><stop offset=".008" stop-color="#e2d25f"/><stop offset=".184" stop-color="#fff"/><stop offset=".325" stop-color="#de9d3b"/><stop offset=".459" stop-color="#e2d25f"/><stop offset="1" stop-color="#bf7c2a"/></linearGradient><g id="a" fill-rule="evenodd"><path fill="#999" d="M8.25 12.35H8.2l-.1.1-.35-.45.2-.05.3.35zm1.3-1.15.35.45-.2.1-.25-.25v-.3zm.65.5-.15-.1v-.3l.35.25zm-1.65-1.15q.2.1.2.55l-.15.1-.15-.1v-.55zm-.4.4-.25.15-.15-.2.25-.05q-.15-.05-.15-.3.2-.1.4.15l-.2.15zm.15.9-.15.1-.2-.1.05-.2.35.15zM8 11.6l-.25-.1v-.2h.2l.3.15zm.95-.2v-.5q.25 0 .35.45l-.05.1-.1.05zm-3.1.4-.3.35-.05-.2.2-.3zm.35.2-.25.35-.1-.2q0-.25.25-.25zm.3.3-.2.3-.1-.25.05-.3h.1zm.1-.1q.3-.1.3.3l-.05.25-.1.05-.15-.1zm.95 0 .3.35-.15.15-.25-.15v-.35zm-.4.1.25.4-.15.1q-.25-.25-.2-.5zm-2.6-.6h.2l.1.1-.25.15h.25l.05.1-.05.15-.1.1-.15-.15v-.2zm.85-.2.1.1-.25.25-.1-.2.05-.2zm-1.25 1.1.35.15-.15.2L4 12.6zm-.75.4q.25 0 .35.2l-.05.15-.1.1-.2-.15zm-.45.2h.1l.25.3-.1.15-.1.05-.15-.15zm1.1-.1-.15.1-.2-.3.15-.05.2.15zm.75-.75-.15.2h-.3v-.25h.35zm-2 1.1-.05.3-.15.1-.1-.3q0-.25.25-.25zm-.4 0-.1.3-.15.1-.15-.2q0-.35.35-.35zm-.45-.25.05.1-.45.4-.05-.2.2-.2zm8.6-1.85q.35 0 .55.15l-.3.15-.25-.1z"/><path fill="#ffe2a6" d="m3.85 10.95-.05-.1.05-.1.05.1H4h-.05l-.05.1zm.05-.25h.05l.05.05v.05zm-.25.6v.05h-.1zm-.6.2v.1l-.1.1-.05-.05h.05l.1-.05-.05-.05-.1.05v-.1zm-.75-.25.05.05.1-.05-.1.15-.05-.1z"/><path fill="#fff" d="M5.1 10.05h.05v.05l-.15.1-.05-.05v-.1zm2.35-1.1V9H7.4l-.15-.15h.15zm-.8.65.1-.05v.05l-.1.05zm-1.1.9.15-.05.05.05-.15.1zm1.2-.4.1.05-.1.05h-.1v-.1zm2.1-.5-.05.05-.05-.05-.05-.1h.05zm-.7-.2-.1.05-.1-.1h.2zM6.4 10.6l.1.05-.1.1-.05-.05v-.05zm-2.4.2v.05h-.1l-.05-.1v-.05h.05zm-.45.55-.05-.05v-.1h.1l.05.1zm-.65.3v-.05l.1-.05.05.05-.1.05zm-.45-.45h.05l-.05.05-.1.05-.05-.05v-.1h.1z"/><path fill="#ffedc6" d="m5.85 7 .05.1.1.15.4.2h.1l.05.05-.1.35.05.15.05.1.05.25v.05h-.05l-.2-.55.05-.25q-.5-.1-.6-.5V7zm-2.3.8.6.5-.1.3.05.25V9h-.05L4 8.6v-.25l-.5-.55z"/><path fill="url(#b)" d="M3.2 10.65 3 10.6l-.05-.05zM5.3 9.2l-.2.55h-.05zm-1.9 4.05-.1-.15.1.1z" transform="translate(.4 -1.9)"/><path fill="url(#c)" d="m3 3-.7.85-1.55.4H.2l1.2-.75L2.65 3zm.45.45.15.25.65 1.15-.15.05q-1.85.75-2.35 1zM.35 6.5l-.4-1.35q.35-.2.85-.35 1.15-.4 1.65-.5z" transform="translate(.4 -1.9)"/><path fill="url(#d)" d="M3.85 11.55H3.8l-.3-.5-.6-.35-.1-.1v-.05l-.05-.05.05-.15.1-.2V9.8l-.05-.45V9.2h.05l.05.05v.2L3 9.8l-.05.35v.05l-.05.3.05.05.05.05.2.05.4.35.25.5zm2.55-.8h-.05l-.3-.25-.25-.3-.4-.25L5 9.8h-.05v-.05l.25-.6-.1-.65v-.1h.05l.05.1.05.15v.1l.05.4v.05l-.25.55h.05l.15.05.6.3.55.55v.05h.05zm-2.65 2v-.15h.05l.1.05v.1l-.15.25h-.1v-.1zm-.45.35h-.05v-.05h.05l.25.2-.1.1-.1.15-.05-.1.1-.15v-.05zm-.35.4v.05l-.05.15-.1.1-.1-.05v-.05l.15-.1v-.15h.05z" transform="translate(.4 -1.9)"/><path fill="url(#e)" d="m2.95 9.25.15.25.7.65-.05.45q0 .55.15.95h-.05v-.05L3.6 11l-.4-.35-.25-.1-.05-.05.05-.3v-.05L3 9.8l-.05-.35zm.2.45H3.1l.5.55v.25l.05.4h.05v-.15l-.05-.25.1-.3z" transform="translate(.4 -1.9)"/><path fill="url(#f)" d="M8.55 12.1q1.55 1 2.8 1.35l-.4.15.1.35-.7-.25q0 .15-.2.15l-.35-.15v.25l-.6-.35v.1l.05.2h-.1l-.5-.45.05.2h-.15l-.7-.65.2.5-.15-.1v.05l.2.45-.2-.15.2.3v.35H8l-.15-.15v-.05l-.3-.35-.2.05.35.45.1-.1.1.4-.15.2-.4-.2-.05.4-.6-.25v.05l-.05.2-.3-.2-.2-.2-.15.4-.4-.65v.2l-.45-.5v.15H5l-.45-.75.1.25v.65h-.1l-.1-.15v.1l.1.25-.05.25h-.1l-.1-.05v.05l-.2.35-.35-.2-.15.45-.2-.2-.2.5-.2-.15-.2.45-.35-.35-.05.05v.3h-.35l-.25-.2-.2.2-.25-.35-.3.25-.3-.5.8-.75.6-1.1v.15q.4.45.85.45l.8-.65.3-1.35-.15-.35.55.6q.85.75 1.5.75.9 0 .9-1.15l-.2-.8-.2-.4q1.25 1.2 2.05 1.25m0 1.2.2.1.1-.05.05-.1q-.1-.45-.35-.45zm-.95.2.25-.15-.3-.15h-.2v.2zm.3.25.05-.05-.35-.15-.05.2.2.1zm-.15-.9-.1-.1.2-.15q-.2-.25-.4-.15 0 .25.15.3l-.25.05.15.2zm.4-.4h-.1V13l.15.1.15-.1q0-.45-.2-.55M9.8 13.6l.2-.15-.35-.25v.3zm-.65-.5h-.1v.3l.25.25.2-.1zm-2.4 1.1h-.1q-.05.25.2.5l.15-.1zm.4-.1h-.1v.35l.25.15.15-.15zm-.95 0v.5l.15.1.1-.05.05-.25q0-.4-.3-.3m-.1.1-.15-.25h-.1l-.05.3.1.25zm-.3-.3-.1-.1q-.25 0-.25.25l.1.2zm-.35-.2-.15-.15-.2.3.05.2zM5 13.4l-.2-.05-.05.2.1.2.25-.25zm-.85.2.05.25v.2l.15.15.1-.1.05-.15-.05-.1H4.2l.25-.15-.1-.1zm.25.65-.1-.05h-.35v.25h.3zm-.75.75v-.1l-.2-.15-.15.05.2.3zm-1.1.1v.35l.15.15.1-.05.1-.15-.25-.3zm.45-.2v.3l.2.15.1-.1.05-.15q-.1-.2-.35-.2m.75-.4H3.6l.35.35.15-.2zm6.4-1.25v.2l.25.1.3-.15q-.2-.15-.55-.15m-8.6 1.85-.25.1-.2.2.05.2.45-.4zm.45.25-.05-.15q-.35 0-.35.35l.15.2.15-.1zm.4 0-.05-.15q-.25 0-.25.25l.1.3.15-.1z" transform="translate(.4 -1.9)"/><path fill="url(#g)" d="M8.1 11.25q.25-.05.4.2l-.2.2zm-5.95 2.3q-.35-.05-.35-.3 0-.2.15-.25h.1v.1L2 13.05h-.1v.15l.05.1.1-.15zM4.75 12h.1l-.05.25h-.3l-.05-.05v-.15l.1-.15.15.05h-.15v.1l.05.05zm2.3-1.15.1.15-.05.05-.3-.15v-.25h.1l.1.1h-.15l.15.15h.05zm-.8.65v.05l.1-.05v-.05zm-1.1.9v-.05l.1-.05.2.05v.3l-.3-.05zl.05.1.15-.1-.05-.05zm.95-.8v-.2h.3v.25zm.25.4h.15l.1.3h-.3l-.1-.2-.05-.05.05-.05h.05v.1h.1l.1-.05zm1.35-.75h-.15l.1.1.1-.05.05.05-.2.1-.15-.35q.15 0 .25.15m.75.25-.1-.1H8.3l.05.1.05.05zM6 12.5l.2.25-.2.05-.2-.25zl-.05.05v.05l.05.05.1-.1zm-2.35.4h-.2v-.05h.05l.05-.1h.05v-.1l-.05-.05h-.1v.05l-.05.1-.05-.15.05-.05q.35-.05.35.2zm-.4.2h.05l.1.15-.1.15-.1.05-.2-.4zm0 .1-.05-.1h-.1v.1l.05.05h.1zm-.6.2.15.1-.3.2-.1-.3h.1v.15l.05.05.1-.1z" transform="translate(.4 -1.9)"/><path fill="url(#h)" d="m5.15 8.4.3.5H5.4V9q.1.4.6.5l-.05.25.2.55h.05v-.05l.15.3.05.1-.55-.55-.6-.3-.15-.05.2-.55v-.05l-.05-.4v-.1L5.2 8.5zm.35.6.5.35-.4-.2zm.6.35h.05v.05l-.05.5-.05-.15.1-.35zm.35 1.35.05.15-.05-.1z" transform="translate(.4 -1.9)"/><path fill="url(#i)" d="M3 3h-.35l-1.25.5-1.2.75h.55l1.55-.4zM-.05 5.15-.4 3.6q0-1.7 1.55-1.7h.4q1.15.3 1.9 1.55L1.75 5.9q.5-.25 2.35-1l.15-.05.65 1.5L6.8 9.2l1.3 2.05.2.4.25.45q-.8-.05-2.05-1.25l-.05-.15H6.4v-.05l-.05-.1-.15-.3-.05-.25-.05-.1.05-.5v-.05H6L5.5 9l-.05-.1-.3-.5H5.1v.1l.1.65-.25.6v.05H5l.4.15.4.25.25.3.3.25h.05l.15.25.15.25.2.8q0 1.15-.9 1.15-.65 0-1.5-.75l-.55-.6.15.35-.3 1.35-.8.65q-.45 0-.85-.45v-.2l-.1-.4.05-.05h-.05V13L1.2 9 .35 6.5l2.1-2.2q-.5.1-1.65.5-.5.15-.85.35m3 4.1L2.9 9.2h-.05v.15l.05.45v.35l-.1.2-.05.15.05.05v.05l.1.1.6.35.3.5h.1q-.15-.4-.15-.95l.05-.45-.7-.65zM4.75 12v-.05H4.7l-.15-.05-.1.15v.15l.05.05h.3l.05-.25zM7 10.75l-.1-.1h-.1v.25l.3.15.05-.05-.1-.15zm-.9.85.3.05v-.25h-.3zm-.95.8v.2l.3.05v-.3l-.2-.05-.1.05zm1.1-.4H6.2l-.05.05.05.05.1.2h.3l-.1-.3h-.25m1.45-.75q-.1-.15-.25-.15l.15.35.2-.1-.05-.05v-.05zM6 12.5l-.2.05.2.25.2-.05zm-2.35.4v.1h.1l.15-.25v-.1l-.1-.05h-.05v.15q0-.25-.35-.2l-.05.05.05.15.05.1v.05zm-.4.2L3 13.05l.2.4.1-.05.05.1.1-.15.1-.1-.25-.2h-.05zm-.3.4-.05-.05h-.05v.15l-.15.1v.05l.1.05.1-.1.05-.15zm-.45-.1h-.1l.1.3.3-.2-.15-.1z" transform="translate(.4 -1.9)"/></g></defs></svg>