<svg xmlns="http://www.w3.org/2000/svg" xmlns:ffdec="https://www.free-decompiler.com/flash" xmlns:xlink="http://www.w3.org/1999/xlink" ffdec:objectType="frame" width="6.05" height="6.85"><use ffdec:characterId="3" xlink:href="#a" width="6.05" height="6.85"/><defs><g id="a" fill-rule="evenodd"><path fill="#bf283d" d="m1.35 2.1.2-.15.25.05 2.15.8.35.2v.05l-.1.2v.15l-.05-.1v.1q-.1-.05-.1.05L4 3.4l-.05-.1-.4.35v.05l-.75.35h-.05l-.4-.35zm.45-.4.45-.55.1-.05h.1l.25-.05 1.6-.2h.15L4.9.9H5l.1.1L5 .95h-.05L3.6 1l.15.05 1.8.6.15.1.35.4-.15.55-.35.3-.45-.25-.2.6-.2-.15-.05-.05.3-.45.15-.55q-1.6-.65-2.5-.6zm3.3.85h-.05l.05.05zm0 .2q.1-.15.55.2v-.6l-.25-.3q-.4 0-.3.7"/><path fill="#d9cdcf" d="M5.1 3.55q.15.2-.7.95l.05-.5-.3-.7.05.1v-.15l.1.1.1.1.25-.3.05.05.2.15zM4.35 4.6l-.45.7-.95.35-.2-1.55.05-.05.75-.35zM2.9 5.65q-.95.7-1.5.8l-.1-.55.25-.55.35-.7zM4.3 3h.05l-.05.05z"/><path fill="#ada5a6" d="m.8 4.55.75-1.1.8.25.4.35h.05l-.05.05.2 1.55v.05l-.05-.05-1-1-.35.7-.25.55zM5.55 3l-.25.3-.2.25-.2-.2.2-.6zM4.4 4.5v.15l-.05-.05-.8-.9v-.05l.4-.35.05.1.05.05q0-.1.1-.05v-.1l.3.7zM4.35 3l.15.1.1.05h.05l-.25.3-.1-.1-.1-.1.1-.2z"/><path fill="#931c2c" d="M.1 2.85q.85-.4.95-.6.15-.15.25-.2l.05.05 1 1.6-.8-.25-.75 1.1-.4-.95-.25-.7zm1.45-.9.25-.25.8-.15q.9-.05 2.5.6l-.15.55-.3.45H4.6l-.1-.05-.15-.1H4.3l-.35-.2L1.8 2zm.7-.8.05-.05.1-.35-.3-.1.3-.25L3.85 0l.25.1.35.2.35.3.2.3h-.1L4.45.85H4.3l-1.6.2-.25.05h-.1zM5.1 1l.35.05.3.25.05.1v.15l-.05.1v.05l-.05.05-.15-.1-1.8-.6L3.6 1 4.95.95H5zm0 1.75q-.1-.7.3-.7l.25.3v.6q-.45-.35-.55-.2"/><path fill="#bfaaad" d="m1.35 2.1-.05-.05q-.1.05-.25.2-.1.2-.95.6L0 2.6Q1.3 1.65 1.5.4q.5.15.6.25l.3.1-.1.35-.05.05-.45.55-.25.25z"/><path fill-opacity=".251" d="m0 2.55.45-.7 1-1.35.05-.1q0 .65-.6 1.55l.2.25.3-.2L.2 3zM.95 5.1l-.1-.6.85-1.15 1.15.7.65-.35.45-.4.05.1.25-.45q.35 0 .35.3l.3-.35.1-.35.4.15-.4.5-.45.6-.85.3-.7.5h-.7q0-.35-.4-.35-.35 0-.45.15zM5.8 1.5v.2h-.1l-.05-.05q-.75-.55-1.9-.6L3.2 1l-.5.05-.25.05H2.4V.65h-.3Q2.35.2 3.4.15L4 .1h.1l.35.2.2.2.25.4.05.05.5.25zM4.15 5l.35.3-1.45.85-1.6.7-.15-.6h.15q.35.05 1.7-.7z"/></g></defs></svg>