<?xml version="1.0" encoding="UTF-8" standalone="no"?>
<svg xmlns:ffdec="https://www.free-decompiler.com/flash" xmlns:xlink="http://www.w3.org/1999/xlink" ffdec:objectType="frame" height="11.4px" width="8.95px" xmlns="http://www.w3.org/2000/svg">
  <g transform="matrix(1.0, 0.0, 0.0, 1.0, 0.0, -2.65)">
    <use ffdec:characterId="5" height="11.4" transform="matrix(1.0, 0.0, 0.0, 1.0, 0.0, 2.65)" width="8.95" xlink:href="#shape0"/>
  </g>
  <defs>
    <g id="shape0" transform="matrix(1.0, 0.0, 0.0, 1.0, 0.0, -2.65)">
      <path d="M0.0 2.95 Q0.65 1.9 3.5 4.4 6.3 6.9 8.95 12.3 7.9 14.2 6.0 13.05 3.65 7.8 0.0 2.95" fill="#ffffff" fill-rule="evenodd" stroke="none"/>
      <path d="M4.25 7.95 L6.35 11.75 Q6.9 13.1 6.9 13.85 6.85 14.55 6.1 13.05 L3.9 8.95 Q2.5 6.35 1.15 4.75 -0.2 3.1 0.1 2.95 0.35 2.8 1.55 4.15 L4.25 7.95" fill="#d6dee1" fill-rule="evenodd" stroke="none"/>
    </g>
  </defs>
</svg>
