<?xml version="1.0" encoding="UTF-8" standalone="no"?>
<svg xmlns:ffdec="https://www.free-decompiler.com/flash" xmlns:xlink="http://www.w3.org/1999/xlink" ffdec:objectType="frame" height="11.6px" width="8.75px" xmlns="http://www.w3.org/2000/svg">
  <g transform="matrix(1.0, 0.0, 0.0, 1.0, 0.0, -2.9)">
    <use ffdec:characterId="1" height="11.6" transform="matrix(1.0, 0.0, 0.0, 1.0, 0.0, 2.9)" width="8.75" xlink:href="#shape0"/>
  </g>
  <defs>
    <g id="shape0" transform="matrix(1.0, 0.0, 0.0, 1.0, 0.0, -2.9)">
      <path d="M3.15 3.8 Q3.85 4.7 5.15 5.6 6.35 6.2 6.4 6.4 L6.45 7.5 6.35 8.55 6.35 8.65 7.05 8.4 Q8.2 9.15 8.75 12.35 7.6 13.45 2.75 14.5 1.7 13.75 1.65 10.0 L1.75 10.0 1.2 9.35 0.8 8.4 0.1 4.85 Q-0.25 3.4 0.9 3.0 2.0 2.55 3.15 3.8" fill="#ffffff" fill-rule="evenodd" stroke="none"/>
      <path d="M0.8 3.05 Q1.55 8.95 4.75 9.25 L2.7 9.8 Q2.0 10.05 1.55 9.8 1.1 9.55 0.85 8.65 L0.1 5.05 Q-0.25 3.7 0.8 3.05" fill="#d6dee1" fill-rule="evenodd" stroke="none"/>
      <path d="M7.2 10.65 L7.55 10.7 7.3 11.0 6.65 11.35 5.85 11.5 5.55 11.35 5.75 11.15 6.45 10.8 7.2 10.65 M6.8 9.7 L6.15 10.05 5.35 10.2 5.05 10.05 5.25 9.85 5.95 9.5 6.7 9.35 7.05 9.4 6.8 9.7" fill="#cccccc" fill-rule="evenodd" stroke="none"/>
    </g>
  </defs>
</svg>
