<?xml version="1.0" encoding="UTF-8" standalone="no"?>
<svg xmlns:ffdec="https://www.free-decompiler.com/flash" xmlns:xlink="http://www.w3.org/1999/xlink" ffdec:objectType="frame" height="27.15px" width="10.65px" xmlns="http://www.w3.org/2000/svg">
  <g transform="matrix(1.0, 0.0, 0.0, 1.0, 0.4, -2.05)">
    <use ffdec:characterId="3" height="27.15" transform="matrix(1.0, 0.0, 0.0, 1.0, -0.4, 2.05)" width="10.65" xlink:href="#shape0"/>
  </g>
  <defs>
    <g id="shape0" transform="matrix(1.0, 0.0, 0.0, 1.0, 0.4, -2.05)">
      <path d="M9.35 23.25 Q9.25 23.85 7.75 26.15 L6.95 27.4 6.45 28.7 Q5.95 29.3 5.5 29.2 5.05 28.95 4.85 26.85 2.75 20.85 2.6 19.9 L2.15 18.45 1.6 16.9 1.65 16.95 3.85 14.65 5.05 12.85 Q5.95 11.4 6.35 11.4 L8.25 12.6 10.25 14.0 9.75 19.35 9.35 23.25" fill="url(#gradient0)" fill-rule="evenodd" stroke="none"/>
      <path d="M1.55 16.0 L1.0 11.6 -0.4 5.95 -0.2 3.65 Q-0.1 2.1 0.85 2.1 L2.2 2.05 Q2.6 2.05 3.55 3.75 L4.65 5.0 5.1 6.0 7.15 8.6 8.75 11.15 9.7 12.9 8.15 12.0 Q6.15 10.85 5.9 10.85 5.5 10.8 4.7 12.15 L3.85 13.5 2.9 14.55 1.55 16.0" fill="url(#gradient1)" fill-rule="evenodd" stroke="none"/>
      <path d="M9.7 12.9 L10.15 13.8 10.05 13.9 8.25 12.6 6.35 11.4 Q5.95 11.4 5.05 12.85 L3.85 14.65 1.65 16.95 1.55 16.0 2.9 14.55 3.85 13.5 4.7 12.15 Q5.5 10.8 5.9 10.85 6.15 10.85 8.15 12.0 L9.7 12.9" fill="url(#gradient2)" fill-rule="evenodd" stroke="none"/>
      <path d="M1.05 2.9 L2.35 2.8 3.05 2.85 3.55 3.75 Q1.25 3.35 1.05 2.9 M0.6 5.55 L0.6 6.2 1.25 10.9 1.15 12.9 1.0 11.6 -0.4 5.95 -0.25 3.95 0.05 3.8 0.65 3.8 1.3 3.85 0.65 4.4 0.25 5.05 Q0.25 5.35 0.6 5.55 M4.15 5.4 Q4.45 5.2 4.75 5.15 L5.1 6.0 5.35 6.3 4.15 5.4" fill="#000000" fill-opacity="0.49803922" fill-rule="evenodd" stroke="none"/>
      <path d="M3.25 14.2 L3.25 14.35 3.1 14.5 3.05 14.45 Q2.55 13.0 1.55 13.0 L1.45 13.05 1.3 13.75 Q1.4 13.6 1.65 13.6 2.25 13.6 2.6 13.9 L2.9 14.45 2.8 14.75 2.65 14.65 Q2.65 13.85 1.65 13.85 1.5 13.85 1.5 14.25 L1.75 15.35 1.7 15.45 1.8 15.7 1.6 15.9 1.55 15.85 1.2 13.75 1.15 13.2 Q1.25 12.75 1.55 12.75 2.15 12.75 2.75 13.35 3.25 13.85 3.25 14.2 M6.4 9.7 Q6.7 9.7 7.2 10.4 L7.65 11.4 7.55 11.65 7.4 11.55 Q7.0 10.3 6.4 9.95 L6.1 11.0 5.95 10.95 5.85 10.95 5.9 10.5 Q6.0 9.7 6.4 9.7 M6.4 10.75 L6.6 10.55 7.0 10.9 7.2 11.3 7.15 11.45 6.85 11.25 6.7 10.8 6.55 11.1 6.3 11.05 6.4 10.75 M5.0 11.75 L4.9 11.95 4.7 11.7 Q4.55 11.55 4.2 11.55 3.85 11.55 3.85 12.05 3.85 12.65 4.35 12.85 L4.35 12.95 4.2 13.1 3.8 12.65 3.6 12.1 Q3.6 11.3 4.2 11.3 5.0 11.3 5.0 11.75 M5.05 11.5 L4.75 11.25 3.85 11.05 Q3.4 11.05 3.4 11.9 3.4 12.45 4.05 13.15 L4.05 13.3 4.0 13.35 Q3.15 12.6 3.15 11.9 3.15 10.8 3.85 10.8 L4.75 11.0 Q5.15 11.15 5.15 11.3 L5.05 11.5 M4.9 9.55 L4.75 9.35 Q4.4 8.95 4.0 8.95 3.7 8.95 3.7 9.65 L3.8 10.05 3.75 10.2 3.85 10.2 4.0 10.2 3.95 10.05 4.2 9.5 4.9 9.55 M1.4 11.05 L1.45 11.25 Q1.45 10.5 1.85 10.5 2.2 10.5 2.55 10.75 L2.8 10.95 2.8 10.85 Q2.5 10.15 1.85 10.15 1.4 10.15 1.4 11.05 M2.5 11.45 L2.45 11.5 2.45 11.9 2.6 12.15 2.55 12.35 Q2.2 12.25 2.2 11.7 L2.2 11.45 2.5 11.2 2.65 11.2 Q2.3 10.75 1.8 10.75 L1.7 11.25 1.85 11.75 1.8 11.95 1.6 11.8 1.6 11.95 Q2.25 12.05 2.9 12.7 L2.95 12.75 2.7 11.55 2.5 11.45 M4.9 8.9 Q4.35 8.35 3.85 8.35 3.4 8.35 3.4 9.45 L3.45 9.9 3.4 10.25 3.6 10.25 Q3.45 10.1 3.45 9.7 3.45 8.9 3.8 8.7 4.35 8.4 5.25 9.65 L5.25 9.75 5.25 9.9 5.15 10.1 4.65 9.75 4.3 9.75 4.2 10.0 4.3 10.2 4.3 10.25 Q4.7 10.35 5.05 10.6 L5.3 10.8 5.2 10.45 Q5.2 10.1 5.35 9.7 L5.45 9.55 4.9 8.9 M3.85 8.1 Q4.2 8.1 4.9 8.65 L5.55 9.3 Q5.7 9.05 6.0 9.05 L6.45 9.15 6.45 9.1 Q6.45 8.55 7.2 8.55 L7.4 8.8 Q6.8 8.8 6.7 9.1 L6.8 9.2 6.8 9.3 7.2 9.65 Q7.25 9.35 7.55 9.35 L7.65 9.35 7.7 9.4 7.4 9.85 7.6 10.1 7.65 10.15 Q7.75 9.8 7.9 9.8 L7.95 9.8 8.05 10.0 7.85 10.5 8.15 11.0 8.45 10.65 8.6 10.85 Q8.35 10.9 8.35 11.35 L8.4 11.75 Q8.45 11.45 8.6 11.45 8.9 11.45 9.1 11.8 L9.25 12.2 9.15 12.45 9.0 12.35 8.85 12.0 8.7 11.75 8.65 11.8 8.6 12.15 8.5 12.1 8.05 11.85 8.0 11.65 7.65 10.75 7.6 10.8 7.5 10.75 7.45 10.6 7.5 10.45 7.3 10.15 7.15 9.95 6.05 9.3 Q5.45 9.3 5.45 10.45 L5.55 11.0 5.5 11.15 5.45 11.25 5.4 11.35 4.85 10.85 4.15 10.45 3.65 10.45 Q3.0 10.8 2.95 11.45 L2.95 11.55 Q2.95 12.1 3.3 12.85 L3.65 13.7 3.6 13.9 3.55 13.85 3.45 13.95 2.9 12.95 Q2.45 12.2 1.45 12.2 L1.1 12.3 1.1 12.05 1.3 12.0 Q1.15 11.7 1.15 11.1 1.15 9.9 1.8 9.9 L2.6 10.3 2.95 10.6 Q3.1 10.4 3.3 10.3 L3.2 10.25 3.15 9.45 Q3.15 8.1 3.85 8.1" fill="#e2d153" fill-opacity="0.8" fill-rule="evenodd" stroke="none"/>
    </g>
    <radialGradient cx="0" cy="0" gradientTransform="matrix(0.0107, 7.0E-4, -9.0E-4, 0.0142, 5.95, 20.1)" gradientUnits="userSpaceOnUse" id="gradient0" r="819.2" spreadMethod="pad">
      <stop offset="0.0" stop-color="#3c2c2c"/>
      <stop offset="1.0" stop-color="#000000"/>
    </radialGradient>
    <radialGradient cx="0" cy="0" gradientTransform="matrix(0.0131, 9.0E-4, -8.0E-4, 0.0121, 3.7, 8.15)" gradientUnits="userSpaceOnUse" id="gradient1" r="819.2" spreadMethod="pad">
      <stop offset="0.0" stop-color="#991625"/>
      <stop offset="1.0" stop-color="#3a090e"/>
    </radialGradient>
    <radialGradient cx="0" cy="0" gradientTransform="matrix(0.0131, 9.0E-4, -8.0E-4, 0.0121, 3.7, 8.15)" gradientUnits="userSpaceOnUse" id="gradient2" r="819.2" spreadMethod="pad">
      <stop offset="0.0" stop-color="#510f16"/>
      <stop offset="1.0" stop-color="#250306"/>
    </radialGradient>
  </defs>
</svg>
