<?xml version="1.0" encoding="UTF-8" standalone="no"?>
<svg xmlns:ffdec="https://www.free-decompiler.com/flash" xmlns:xlink="http://www.w3.org/1999/xlink" ffdec:objectType="frame" height="11.9px" width="9.6px" xmlns="http://www.w3.org/2000/svg">
  <g transform="matrix(1.0, 0.0, 0.0, 1.0, -0.35, -2.9)">
    <use ffdec:characterId="1" height="11.9" transform="matrix(1.0, 0.0, 0.0, 1.0, 0.35, 2.9)" width="9.6" xlink:href="#shape0"/>
  </g>
  <defs>
    <g id="shape0" transform="matrix(1.0, 0.0, 0.0, 1.0, -0.35, -2.9)">
      <path d="M2.95 3.55 Q4.7 5.6 5.4 7.25 L6.25 8.1 6.6 9.05 6.45 9.1 4.4 9.45 Q3.25 9.45 2.85 10.05 2.45 10.65 1.85 10.45 L1.85 10.55 Q1.3 10.5 0.9 9.95 L1.1 8.7 0.45 5.25 Q0.05 3.8 0.95 3.15 1.85 2.5 2.95 3.55" fill="#d92f2f" fill-rule="evenodd" stroke="none"/>
      <path d="M4.4 9.4 L6.45 9.05 6.6 9.05 Q8.9 10.75 9.95 12.3 L8.4 12.2 8.4 12.25 8.35 12.5 Q8.1 14.0 6.9 13.15 L6.45 12.8 4.65 14.2 Q4.2 14.75 3.35 13.95 L3.0 13.7 1.6 14.8 Q1.45 12.55 1.85 10.4 2.45 10.6 2.85 10.0 3.25 9.4 4.4 9.4" fill="#ffffff" fill-rule="evenodd" stroke="none"/>
      <path d="M6.35 12.5 L6.4 12.8 4.75 14.1 5.05 13.6 5.05 13.1 Q5.15 12.7 5.55 12.55 L6.35 12.5 M3.0 13.7 L1.6 14.8 Q1.95 13.05 3.0 13.7 M9.95 12.3 L8.4 12.2 Q8.7 11.15 9.95 12.3" fill="#000000" fill-opacity="0.44705883" fill-rule="evenodd" stroke="none"/>
      <path d="M3.6 7.45 L3.8 8.2 3.9 8.95 4.0 8.95 5.65 8.9 Q6.35 8.75 5.65 7.95 4.9 7.15 3.85 4.8 L5.1 6.65 5.95 7.75 6.65 8.75 Q6.65 8.95 6.1 9.15 L4.6 9.4 Q3.3 9.45 2.9 9.9 2.5 10.4 2.1 10.45 L1.45 10.45 Q1.05 10.4 1.0 10.0 L1.2 10.0 Q1.8 10.45 2.1 10.15 L2.35 9.55 2.1 9.15 1.9 8.55 1.9 8.2 Q2.0 8.15 2.25 8.35 L2.6 8.85 2.75 9.3 3.35 8.95 3.2 8.3 3.2 7.5 3.35 7.1 3.6 7.45 M6.35 12.5 Q6.3 11.45 5.8 10.75 7.1 11.05 8.4 12.25 L8.35 12.5 Q8.1 14.0 6.9 13.15 L6.45 12.8 6.35 12.5 M4.75 14.1 L4.65 14.2 Q4.2 14.75 3.35 13.95 L3.0 13.7 3.45 11.1 Q4.65 12.0 5.05 13.1 L5.05 13.6 4.75 14.1" fill="#000000" fill-opacity="0.2" fill-rule="evenodd" stroke="none"/>
    </g>
  </defs>
</svg>
