<svg xmlns="http://www.w3.org/2000/svg" xmlns:ffdec="https://www.free-decompiler.com/flash" xmlns:xlink="http://www.w3.org/1999/xlink" ffdec:objectType="frame" width="9.25" height="11.25"><use ffdec:characterId="5" xlink:href="#a" width="9.25" height="11.25"/><defs><g id="a" fill-rule="evenodd"><path fill="#fff" d="M5.6 11 3.9 7.8l3.3-1.05 2.05 3.65q-1.8 1.3-3.65.6"/><path fill="#fff" fill-opacity=".498" d="M3.75 8.2q2.1-.15 3.7-1.45h.05q.9.3 1.5 1-.65.8-1.55.45v1.05q-1.3.1-1.5-.45.2.6-.35 1.1-.8 0-1.05-.75.05.5-1 .65-.2-.95.2-1.6"/><path fill="#fff" d="M3.75 8.2q-1-.25-.5-1.05l-1.6-1.9Q.5 3.65 0 .9.55.25 2.35 0q2.4.65 4.55 2.45.35 1.3-.05 3.3.65.1.6 1-1.6 1.3-3.7 1.45"/><path fill="#ffe2e2" d="M4.05 7.8q.9-.05 1.6-.55.95-.65 1.4-.65-.2.95-2.5 1.65H4l-.8-.3zM2.1 5.85l.45-.65q.5-.5.8-.5l.95.45 1.2.45q.45.05.9-.4l.5-.55.1.3-.15.7-.75.6q-1.4.7-2.7.8-.4.05-1.3-1.2"/></g></defs></svg>