<?xml version="1.0" encoding="UTF-8" standalone="no"?>
<svg xmlns:ffdec="https://www.free-decompiler.com/flash" xmlns:xlink="http://www.w3.org/1999/xlink" ffdec:objectType="frame" height="15.15px" width="32.6px" xmlns="http://www.w3.org/2000/svg">
  <g transform="matrix(1.0, 0.0, 0.0, 1.0, 1.3, 1.2)">
    <use ffdec:characterId="3" height="15.15" transform="matrix(1.0, 0.0, 0.0, 1.0, -1.3, -1.2)" width="32.6" xlink:href="#shape0"/>
  </g>
  <defs>
    <g id="shape0" transform="matrix(1.0, 0.0, 0.0, 1.0, 1.3, 1.2)">
      <path d="M31.3 9.1 L31.1 8.95 Q27.7 5.65 25.05 4.75 L23.2 4.55 23.05 4.6 23.0 4.4 23.1 4.3 24.1 4.25 25.05 4.45 Q27.65 5.3 31.3 9.1" fill="url(#gradient0)" fill-rule="evenodd" stroke="none"/>
      <path d="M12.4 5.5 L12.35 5.45 12.15 5.35 12.95 5.1 13.6 4.8 14.25 4.45 Q16.5 3.15 16.75 2.05 17.05 0.6 16.6 -0.15 L19.7 0.85 20.1 1.0 21.55 1.5 21.8 2.0 22.05 2.5 22.55 2.35 23.0 2.2 23.15 2.3 23.85 2.55 23.25 2.55 22.85 2.55 22.7 2.5 22.7 2.55 22.8 2.65 22.85 2.75 23.2 3.05 24.0 3.1 24.65 3.1 26.15 4.05 25.55 4.1 25.45 4.05 Q24.25 3.9 23.3 3.4 L22.2 2.8 22.3 2.95 22.3 3.0 22.4 3.05 22.55 3.25 22.55 3.35 22.7 3.55 22.8 3.8 23.0 4.4 23.05 4.8 22.9 5.55 21.1 5.15 20.3 4.65 19.35 3.9 19.45 4.7 19.45 4.8 Q19.35 5.95 18.55 7.2 L16.7 5.4 16.25 4.7 Q13.65 5.65 12.4 5.45 L12.4 5.5 M21.5 3.35 L21.45 3.2 20.35 2.55 20.35 2.6 20.75 3.55 20.85 3.6 20.85 3.65 21.0 3.65 21.45 3.85 21.45 3.4 21.5 3.35 M22.0 3.1 L22.0 2.95 21.6 3.1 21.7 3.3 21.7 3.35 21.75 3.5 21.85 4.45 21.9 4.5 20.45 3.7 20.15 3.95 20.3 4.05 Q20.7 4.5 21.5 4.7 L21.7 4.75 22.25 4.8 22.15 3.65 22.0 3.1 M17.6 5.0 L17.7 5.1 17.8 5.15 18.0 5.35 18.25 4.8 18.4 4.65 18.5 4.55 17.8 3.65 17.75 3.6 17.45 4.85 17.6 5.0 M18.25 6.1 L17.4 5.3 17.2 4.95 16.75 5.05 16.85 5.25 17.0 5.4 17.25 5.75 18.3 6.7 Q19.25 5.75 19.3 4.8 L19.25 4.65 19.2 4.4 18.8 4.5 18.75 4.65 18.75 4.85 Q18.7 5.65 18.25 6.1" fill="url(#gradient1)" fill-rule="evenodd" stroke="none"/>
      <path d="M26.15 4.05 L26.2 4.2 25.9 4.25 24.15 4.0 Q23.1 3.65 22.4 3.05 L22.3 3.0 22.3 2.95 22.2 2.8 23.3 3.4 Q24.25 3.9 25.45 4.05 L25.55 4.1 26.15 4.05" fill="url(#gradient2)" fill-rule="evenodd" stroke="none"/>
      <path d="M25.9 4.25 L26.1 4.4 25.05 4.45 24.7 4.35 24.1 4.25 Q23.75 4.05 23.45 3.95 L22.55 3.35 22.55 3.25 22.4 3.05 Q23.1 3.65 24.15 4.0 L25.9 4.25" fill="url(#gradient3)" fill-rule="evenodd" stroke="none"/>
      <path d="M23.45 2.8 L23.55 2.8 24.0 3.1 23.2 3.05 22.85 2.75 23.0 2.75 23.45 2.8" fill="url(#gradient4)" fill-rule="evenodd" stroke="none"/>
      <path d="M23.2 2.65 L23.45 2.8 23.0 2.75 22.85 2.75 22.8 2.65 23.2 2.65" fill="url(#gradient5)" fill-rule="evenodd" stroke="none"/>
      <path d="M23.85 2.55 L24.0 2.8 23.2 2.65 22.8 2.65 22.7 2.55 22.7 2.5 22.85 2.55 23.25 2.55 23.85 2.55" fill="url(#gradient6)" fill-rule="evenodd" stroke="none"/>
      <path d="M20.35 2.6 L20.65 2.95 20.85 3.6 20.75 3.55 20.35 2.6" fill="url(#gradient7)" fill-rule="evenodd" stroke="none"/>
      <path d="M20.35 2.6 L20.35 2.55 21.45 3.2 21.5 3.35 20.9 3.05 20.65 2.95 20.35 2.6" fill="url(#gradient8)" fill-rule="evenodd" stroke="none"/>
      <path d="M20.65 2.95 L20.9 3.05 21.5 3.35 21.45 3.4 20.9 3.15 21.0 3.65 20.85 3.65 20.85 3.6 20.65 2.95" fill="url(#gradient9)" fill-rule="evenodd" stroke="none"/>
      <path d="M21.8 2.0 L22.45 2.25 22.55 2.35 22.05 2.5 21.8 2.0" fill="url(#gradient10)" fill-rule="evenodd" stroke="none"/>
      <path d="M26.1 4.4 Q29.5 6.55 31.3 9.1 27.65 5.3 25.05 4.45 L26.1 4.4 M24.1 4.25 L23.1 4.3 23.0 4.4 22.8 3.8 22.7 3.55 22.55 3.35 23.45 3.95 Q23.75 4.05 24.1 4.25" fill="url(#gradient11)" fill-rule="evenodd" stroke="none"/>
      <path d="M21.7 3.3 L22.0 3.1 22.15 3.65 22.25 4.8 21.7 4.75 21.5 4.7 Q20.7 4.5 20.3 4.05 L20.4 4.0 20.5 4.15 Q21.15 4.6 21.95 4.7 L22.0 4.55 22.0 4.25 22.0 3.95 21.85 3.7 21.75 3.5 21.7 3.35 21.7 3.3" fill="url(#gradient12)" fill-rule="evenodd" stroke="none"/>
      <path d="M22.0 3.1 L21.7 3.3 21.6 3.1 22.0 2.95 22.0 3.1" fill="url(#gradient13)" fill-rule="evenodd" stroke="none"/>
      <path d="M21.75 3.5 L21.85 3.7 22.0 3.95 22.0 4.55 21.05 4.35 20.65 4.15 20.5 4.0 20.4 4.0 20.3 4.05 20.15 3.95 20.45 3.7 21.9 4.5 21.85 4.45 21.75 3.5" fill="url(#gradient14)" fill-rule="evenodd" stroke="none"/>
      <path d="M22.0 3.95 L22.0 4.25 22.0 4.55 21.95 4.7 Q21.15 4.6 20.5 4.15 L20.4 4.0 20.5 4.0 20.65 4.15 21.05 4.35 22.0 4.55 22.0 3.95" fill="url(#gradient15)" fill-rule="evenodd" stroke="none"/>
      <path d="M21.45 3.4 L21.45 3.85 21.0 3.65 20.9 3.15 21.45 3.4" fill="url(#gradient16)" fill-rule="evenodd" stroke="none"/>
      <path d="M20.8 5.35 L20.95 5.2 21.05 5.25 20.95 5.4 20.8 5.35" fill="url(#gradient17)" fill-rule="evenodd" stroke="none"/>
      <path d="M9.85 10.1 L9.8 9.95 9.65 9.65 Q10.1 7.8 11.5 6.85 12.55 6.2 13.55 6.1 11.05 6.85 10.2 8.8 L9.85 10.1 M9.6 9.65 L8.65 8.6 Q6.6 6.9 3.25 6.8 L3.15 6.5 5.05 6.65 Q8.35 7.45 9.65 9.65 L9.6 9.65 M20.8 5.35 L20.95 5.4 Q19.8 6.65 19.5 8.4 L19.45 9.45 19.35 9.3 19.5 9.6 19.5 9.7 19.45 9.75 Q18.05 6.75 15.75 6.15 L13.55 6.1 16.85 6.25 16.9 6.25 18.1 7.2 18.8 8.25 19.35 9.3 19.35 8.45 Q19.35 6.45 20.8 5.35" fill="url(#gradient18)" fill-rule="evenodd" stroke="none"/>
      <path d="M23.0 4.4 L23.05 4.6 Q23.2 5.2 22.95 5.75 L21.05 5.25 20.95 5.2 20.35 4.9 19.45 4.15 Q19.75 5.25 19.15 6.35 L18.55 7.25 18.55 7.2 Q19.35 5.95 19.45 4.8 L19.45 4.7 19.35 3.9 20.3 4.65 21.1 5.15 22.9 5.55 23.05 4.8 23.0 4.4" fill="url(#gradient19)" fill-rule="evenodd" stroke="none"/>
      <path d="M12.35 5.7 L12.4 5.7 12.7 5.65 Q14.4 5.8 16.4 5.0 L16.7 5.7 18.55 7.25 19.15 6.35 Q19.75 5.25 19.45 4.15 L20.35 4.9 20.95 5.2 20.8 5.35 20.4 5.15 19.7 4.6 Q19.9 5.65 19.3 6.65 L18.65 7.55 18.1 7.2 16.9 6.25 16.85 6.25 16.25 5.4 13.15 5.85 12.35 5.7" fill="url(#gradient20)" fill-rule="evenodd" stroke="none"/>
      <path d="M23.05 4.6 L23.2 4.55 23.2 5.2 23.05 6.0 20.95 5.4 21.05 5.25 22.95 5.75 Q23.2 5.2 23.05 4.6" fill="url(#gradient21)" fill-rule="evenodd" stroke="none"/>
      <path d="M9.8 9.95 L9.6 9.65 9.65 9.65 Q8.35 7.45 5.05 6.65 L3.15 6.5 3.1 6.35 7.4 6.5 Q10.15 6.4 12.35 5.7 L13.15 5.85 16.25 5.4 16.85 6.25 13.55 6.1 Q12.55 6.2 11.5 6.85 10.1 7.8 9.65 9.65 L9.8 9.95 M18.1 7.2 L18.65 7.55 19.3 6.65 Q19.9 5.65 19.7 4.6 L20.4 5.15 20.8 5.35 Q19.35 6.45 19.35 8.45 L19.35 9.3 18.8 8.25 18.1 7.2 M19.5 9.6 L19.35 9.3 19.45 9.45 19.5 9.6" fill="url(#gradient22)" fill-rule="evenodd" stroke="none"/>
      <path d="M25.05 4.45 L24.1 4.25 24.7 4.35 25.05 4.45" fill="url(#gradient23)" fill-rule="evenodd" stroke="none"/>
      <path d="M31.1 8.95 Q29.45 8.0 27.15 7.45 22.5 6.5 19.65 9.8 L19.55 9.85 19.45 9.85 19.45 9.8 19.45 9.75 19.5 9.7 19.5 9.6 19.45 9.45 19.5 8.4 Q19.8 6.65 20.95 5.4 L23.05 6.0 23.2 5.2 23.2 4.55 25.05 4.75 Q27.7 5.65 31.1 8.95" fill="url(#gradient24)" fill-rule="evenodd" stroke="none"/>
      <path d="M18.55 7.25 L16.7 5.7 16.4 5.0 16.25 4.7 16.7 5.4 18.55 7.2 18.55 7.25" fill="url(#gradient25)" fill-rule="evenodd" stroke="none"/>
      <path d="M12.7 5.65 L12.55 5.6 12.4 5.5 12.4 5.45 Q13.65 5.65 16.25 4.7 L16.4 5.0 Q14.4 5.8 12.7 5.65" fill="url(#gradient26)" fill-rule="evenodd" stroke="none"/>
      <path d="M17.8 3.95 L17.6 5.0 17.45 4.85 17.75 3.6 17.8 3.65 17.8 3.95" fill="url(#gradient27)" fill-rule="evenodd" stroke="none"/>
      <path d="M17.7 5.1 L17.6 5.0 17.8 3.95 18.4 4.65 18.25 4.8 17.85 4.25 17.7 5.1" fill="url(#gradient28)" fill-rule="evenodd" stroke="none"/>
      <path d="M18.2 6.25 L17.2 5.4 17.1 5.2 17.05 5.2 16.85 5.25 16.75 5.05 17.2 4.95 17.4 5.3 18.25 6.1 18.2 6.25" fill="url(#gradient29)" fill-rule="evenodd" stroke="none"/>
      <path d="M16.85 5.25 L17.05 5.2 17.1 5.2 17.2 5.4 18.2 6.25 18.65 5.7 18.8 4.9 18.75 4.65 19.0 4.65 19.25 4.65 19.3 4.8 18.95 4.85 18.6 6.15 18.2 6.45 Q17.6 6.3 17.15 5.5 L17.15 5.35 17.0 5.4 16.85 5.25" fill="url(#gradient30)" fill-rule="evenodd" stroke="none"/>
      <path d="M17.0 5.4 L17.15 5.35 17.15 5.5 Q17.6 6.3 18.2 6.45 L18.6 6.15 18.95 4.85 19.3 4.8 Q19.25 5.75 18.3 6.7 L17.25 5.75 17.0 5.4" fill="url(#gradient31)" fill-rule="evenodd" stroke="none"/>
      <path d="M18.4 4.65 L17.8 3.95 17.8 3.65 18.5 4.55 18.4 4.65" fill="url(#gradient32)" fill-rule="evenodd" stroke="none"/>
      <path d="M17.7 5.1 L17.85 4.25 18.25 4.8 18.0 5.35 17.8 5.15 17.7 5.1" fill="url(#gradient33)" fill-rule="evenodd" stroke="none"/>
      <path d="M18.2 6.25 L18.25 6.1 Q18.7 5.65 18.75 4.85 L18.75 4.65 18.8 4.9 18.65 5.7 18.2 6.25 M19.25 4.65 L19.0 4.65 18.75 4.65 18.8 4.5 19.2 4.4 19.25 4.65" fill="url(#gradient34)" fill-rule="evenodd" stroke="none"/>
      <path d="M19.45 9.8 Q18.0 8.85 16.05 8.35 12.05 7.45 9.95 10.3 L9.85 10.1 10.2 8.8 Q11.05 6.85 13.55 6.1 L15.75 6.15 Q18.05 6.75 19.45 9.75 L19.45 9.8" fill="url(#gradient35)" fill-rule="evenodd" stroke="none"/>
      <path d="M14.25 4.45 Q15.95 3.35 16.35 2.15 16.85 0.8 16.6 -0.15 17.05 0.6 16.75 2.05 16.5 3.15 14.25 4.45" fill="url(#gradient36)" fill-rule="evenodd" stroke="none"/>
      <path d="M16.5 -0.3 L15.75 -0.5 15.95 -0.8 16.0 -0.85 16.5 -0.3" fill="#6d2650" fill-rule="evenodd" stroke="none"/>
      <path d="M15.6 -1.2 L16.3 -1.05 16.0 -0.85 15.95 -0.8 15.6 -1.2" fill="#aa2072" fill-rule="evenodd" stroke="none"/>
      <path d="M16.3 -1.05 L16.55 -0.3 16.5 -0.3 16.0 -0.85 16.3 -1.05" fill="#5b1e43" fill-rule="evenodd" stroke="none"/>
      <path d="M15.75 -0.5 L15.6 -1.2 15.95 -0.8 15.75 -0.5" fill="#cb6ea5" fill-rule="evenodd" stroke="none"/>
      <path d="M16.25 -0.6 L16.2 -0.4 15.85 -0.35 15.8 -0.35 15.95 -0.45 16.2 -0.45 16.25 -0.75 16.5 -1.0 16.25 -0.6 M16.8 0.1 L16.9 0.15 17.25 0.1 16.95 0.2 16.8 0.1" fill="#8c6722" fill-rule="evenodd" stroke="none"/>
      <path d="M16.55 -0.85 L16.3 -0.55 16.25 -0.6 16.5 -0.85 16.55 -0.85 M17.45 -0.05 L17.05 0.05 17.4 -0.05 17.45 -0.05" fill="#f7d698" fill-rule="evenodd" stroke="none"/>
      <path d="M16.25 -0.6 L16.3 -0.55 16.55 -0.85 Q16.6 -0.35 16.95 -0.2 L17.4 -0.05 17.05 0.05 17.45 -0.05 17.45 0.05 17.35 0.05 17.25 0.1 16.9 0.15 16.8 0.1 16.8 0.25 16.6 0.4 16.45 0.5 16.55 0.25 16.55 0.1 Q16.35 -0.4 15.85 -0.35 L16.2 -0.4 16.25 -0.6 16.5 -1.0 16.55 -1.0 16.5 -0.9 16.45 -0.85 16.5 -0.85 16.25 -0.6" fill="url(#gradient37)" fill-rule="evenodd" stroke="none"/>
      <path d="M5.2 2.75 L5.05 2.9 5.05 2.85 5.15 2.65 5.2 2.75 M4.2 2.85 Q4.2 2.75 4.35 2.75 L4.45 2.9 4.4 3.05 4.35 3.1 4.25 3.0 4.2 2.85 M4.8 2.95 L4.65 2.8 Q4.65 2.6 4.8 2.6 L4.9 2.75 4.8 2.95 M2.0 3.7 L2.0 3.85 1.9 3.85 1.8 3.65 1.9 3.55 2.0 3.7 M1.5 3.55 L1.6 3.7 1.65 3.85 1.55 3.9 Q1.4 3.9 1.4 3.65 L1.5 3.55 M1.3 4.25 L1.15 4.15 1.15 3.95 1.25 3.95 1.4 4.15 1.3 4.25 M1.1 4.55 L1.3 4.75 1.2 4.85 1.0 4.7 1.0 4.55 1.1 4.55 M0.95 5.3 L0.8 5.4 0.55 5.25 0.55 5.1 0.65 5.1 0.85 5.2 0.95 5.3 M0.55 5.65 L0.35 5.65 0.1 5.5 0.1 5.4 0.25 5.4 0.5 5.45 0.6 5.55 0.6 5.6 0.55 5.65 M0.2 5.75 L0.1 5.85 0.0 5.9 -0.3 5.8 -0.4 5.7 -0.4 5.55 -0.3 5.55 0.05 5.65 0.2 5.75 M4.05 3.4 L4.0 3.5 3.9 3.6 3.75 3.35 3.85 3.15 4.0 3.25 4.05 3.4 M3.3 3.65 L3.5 3.85 3.35 4.1 3.2 3.95 3.2 3.65 3.3 3.65 M2.8 4.2 L2.65 4.35 2.5 4.1 Q2.5 3.9 2.65 3.95 L2.8 4.2 M-0.15 6.1 L-0.2 6.2 Q-0.7 6.2 -0.8 6.0 -0.8 5.9 -0.6 5.9 L-0.35 5.95 -0.15 6.1 M-1.0 6.55 L-0.8 6.4 -0.4 6.55 -0.75 6.65 -1.0 6.55" fill="#b4b4b4" fill-rule="evenodd" stroke="none"/>
      <path d="M6.1 7.55 L6.1 7.65 6.2 7.8 5.95 7.8 4.9 7.7 3.85 7.3 3.5 8.05 3.05 8.55 2.9 8.35 3.35 7.9 Q3.7 7.55 3.6 7.1 L3.5 6.75 3.55 6.8 4.4 7.3 6.1 7.55" fill="#000000" fill-rule="evenodd" stroke="none"/>
      <path d="M3.1 3.5 L3.25 3.25 3.5 3.65 3.55 3.75 Q3.55 2.95 3.85 2.9 L3.9 2.9 4.05 3.05 4.2 2.5 4.3 2.45 4.5 2.7 4.55 2.55 4.95 2.5 5.0 2.6 5.05 2.5 5.25 2.4 5.4 2.45 5.45 2.5 5.4 2.55 5.0 3.2 Q4.55 3.75 4.55 4.55 L4.65 4.8 4.75 5.45 Q4.5 5.85 4.5 6.3 L4.55 6.55 4.5 6.55 4.0 6.4 3.85 6.35 3.75 6.3 3.35 5.25 3.15 4.05 3.1 3.5 M1.5 7.0 L-0.5 6.75 -1.2 6.8 -1.3 6.6 Q-1.3 6.25 -0.75 6.25 L-1.0 5.95 Q-1.0 5.65 -0.5 5.75 -0.7 5.55 -0.5 5.5 L-0.05 5.55 -0.05 5.4 0.25 5.2 0.35 5.25 0.35 5.15 0.3 5.1 0.35 5.05 Q0.35 4.95 0.6 4.95 L0.75 4.95 0.85 5.0 1.65 5.55 2.1 5.9 0.85 4.75 0.85 4.55 1.05 4.35 1.1 4.35 1.0 4.05 0.95 3.9 1.1 3.7 1.25 3.85 1.25 3.65 1.25 3.45 1.45 3.3 1.65 3.4 1.75 3.3 Q1.95 3.05 2.3 3.9 L2.5 3.65 Q2.8 3.65 2.9 4.15 L2.95 4.35 2.95 4.15 3.1 4.7 3.75 6.3 3.35 6.1 3.15 6.0 2.85 5.8 2.85 5.85 2.85 6.55 2.85 6.65 2.85 6.7 2.8 6.95 2.7 7.15 2.55 7.05 2.0 6.9 1.5 7.0 M2.0 3.7 L1.9 3.55 1.8 3.65 1.9 3.85 2.0 3.85 2.0 3.7 M4.8 2.95 L4.9 2.75 4.8 2.6 Q4.65 2.6 4.65 2.8 L4.8 2.95 M4.2 2.85 L4.25 3.0 4.35 3.1 4.4 3.05 4.45 2.9 4.35 2.75 Q4.2 2.75 4.2 2.85 M5.2 2.75 L5.15 2.65 5.05 2.85 5.05 2.9 5.2 2.75 M1.6 3.65 L1.65 3.75 1.65 3.7 1.6 3.65 M0.6 5.6 L0.6 5.55 0.5 5.45 0.25 5.4 0.1 5.4 0.1 5.5 0.35 5.65 0.55 5.65 0.6 5.65 0.6 5.6 M0.95 5.3 L0.85 5.2 0.65 5.1 0.55 5.1 0.55 5.25 0.8 5.4 0.95 5.3 M1.1 4.55 L1.0 4.55 1.0 4.7 1.2 4.85 1.3 4.75 1.1 4.55 M1.3 4.25 L1.4 4.15 1.25 3.95 1.15 3.95 1.15 4.15 1.3 4.25 M1.5 3.55 L1.4 3.65 Q1.4 3.9 1.55 3.9 L1.65 3.85 1.6 3.7 1.5 3.55 M0.2 5.75 L0.05 5.65 -0.3 5.55 -0.4 5.55 -0.4 5.7 -0.3 5.8 0.0 5.9 0.1 5.85 0.2 5.75 M4.05 3.4 L4.0 3.25 3.85 3.15 3.75 3.35 3.9 3.6 4.0 3.5 4.05 3.4 M3.25 3.45 L3.25 3.4 3.2 3.45 3.25 3.45 M3.3 3.65 L3.2 3.65 3.2 3.95 3.35 4.1 3.5 3.85 3.3 3.65 M2.8 4.2 L2.65 3.95 Q2.5 3.9 2.5 4.1 L2.65 4.35 2.8 4.2 M-1.0 6.55 L-0.75 6.65 -0.4 6.55 -0.8 6.4 -1.0 6.55 M-0.15 6.1 L-0.35 5.95 -0.6 5.9 Q-0.8 5.9 -0.8 6.0 -0.7 6.2 -0.2 6.2 L-0.15 6.1" fill="url(#gradient38)" fill-rule="evenodd" stroke="none"/>
      <path d="M0.85 5.0 L0.9 5.0 0.85 4.75 2.1 5.9 1.65 5.55 0.85 5.0 M2.95 4.15 L3.1 3.5 3.15 4.05 3.35 5.25 3.75 6.3 3.1 4.7 2.95 4.15 M3.15 4.05 L3.1 3.95 3.05 3.95 3.05 4.15 3.1 4.2 3.1 4.15 3.15 4.05" fill="url(#gradient39)" fill-rule="evenodd" stroke="none"/>
      <path d="M3.15 4.05 L3.1 4.15 3.1 4.2 3.05 4.15 3.05 3.95 3.1 3.95 3.15 4.05" fill="url(#gradient40)" fill-rule="evenodd" stroke="none"/>
      <path d="M4.9 5.25 L4.9 5.15 Q5.15 6.45 5.8 7.15 L6.05 7.35 6.0 7.35 4.15 7.0 3.35 6.6 3.4 6.65 3.35 6.65 Q3.6 7.25 3.1 7.85 L2.9 8.15 2.75 8.3 2.7 8.25 Q2.2 7.35 1.5 7.0 L1.95 7.0 2.6 7.25 2.7 7.15 2.8 6.95 2.85 6.7 2.85 6.65 2.85 6.55 2.85 5.85 2.85 5.8 3.15 6.0 3.35 6.1 3.75 6.3 3.85 6.35 4.0 6.4 4.5 6.55 4.65 6.6 Q4.65 5.8 4.9 5.25" fill="url(#gradient41)" fill-rule="evenodd" stroke="none"/>
      <path d="M4.75 5.45 L4.9 5.25 Q4.65 5.8 4.65 6.6 L4.5 6.55 4.55 6.55 4.5 6.3 Q4.5 5.85 4.75 5.45 M6.05 7.35 L6.05 7.5 6.1 7.55 4.4 7.3 3.55 6.8 3.5 6.75 3.4 6.65 3.35 6.6 4.15 7.0 6.0 7.35 6.05 7.35 M1.5 7.0 L2.0 6.9 2.55 7.05 2.7 7.15 2.6 7.25 1.95 7.0 1.5 7.0" fill="url(#gradient42)" fill-rule="evenodd" stroke="none"/>
      <path d="M2.9 8.35 L2.75 8.3 2.9 8.15 3.1 7.85 Q3.6 7.25 3.35 6.65 L3.4 6.65 3.5 6.75 3.6 7.1 Q3.7 7.55 3.35 7.9 L2.9 8.35" fill="url(#gradient43)" fill-rule="evenodd" stroke="none"/>
      <path d="M6.35 13.8 L6.15 13.55 5.6 13.45 5.5 12.75 Q6.75 12.2 7.9 12.2 L8.35 12.25 8.6 12.3 7.6 13.0 6.8 13.3 7.9 13.25 6.75 13.7 6.35 13.8" fill="url(#gradient44)" fill-rule="evenodd" stroke="none"/>
      <path d="M6.2 7.8 L6.5 8.25 7.7 10.15 8.4 11.75 9.2 12.7 9.25 12.9 9.2 13.05 9.1 13.15 Q8.8 13.3 8.8 13.4 8.05 13.95 7.0 13.95 L6.35 13.8 6.75 13.7 7.9 13.25 6.8 13.3 7.6 13.0 8.6 12.3 8.35 12.25 7.9 12.2 Q6.75 12.2 5.5 12.75 L5.2 12.15 4.5 11.05 Q3.55 9.85 3.05 8.55 L3.5 8.05 3.85 7.3 4.9 7.7 5.95 7.8 6.2 7.8" fill="url(#gradient45)" fill-rule="evenodd" stroke="none"/>
    </g>
    <linearGradient gradientTransform="matrix(0.0034, -0.0014, 0.0022, 0.0053, 26.7, 5.95)" gradientUnits="userSpaceOnUse" id="gradient0" spreadMethod="pad" x1="-819.2" x2="819.2">
      <stop offset="0.00784313725490196" stop-color="#f3b23a"/>
      <stop offset="0.3176470588235294" stop-color="#ffdba6"/>
      <stop offset="1.0" stop-color="#ad7817"/>
    </linearGradient>
    <linearGradient gradientTransform="matrix(0.0053, -0.0075, 0.0039, 0.0027, 21.4, 0.4)" gradientUnits="userSpaceOnUse" id="gradient1" spreadMethod="pad" x1="-819.2" x2="819.2">
      <stop offset="0.00784313725490196" stop-color="#e2d25f"/>
      <stop offset="0.1843137254901961" stop-color="#ffffff"/>
      <stop offset="0.3254901960784314" stop-color="#de9d3b"/>
      <stop offset="0.4588235294117647" stop-color="#e2d25f"/>
      <stop offset="1.0" stop-color="#bf7c2a"/>
    </linearGradient>
    <linearGradient gradientTransform="matrix(0.0018, -7.0E-4, 7.0E-4, 0.0016, 24.2, 3.5)" gradientUnits="userSpaceOnUse" id="gradient2" spreadMethod="pad" x1="-819.2" x2="819.2">
      <stop offset="0.00784313725490196" stop-color="#f3b23a"/>
      <stop offset="1.0" stop-color="#79591e"/>
    </linearGradient>
    <linearGradient gradientTransform="matrix(0.0034, -0.0014, 0.0022, 0.0053, 26.7, 5.95)" gradientUnits="userSpaceOnUse" id="gradient3" spreadMethod="pad" x1="-819.2" x2="819.2">
      <stop offset="0.0" stop-color="#23032a"/>
      <stop offset="1.0" stop-color="#912171"/>
    </linearGradient>
    <linearGradient gradientTransform="matrix(6.0E-4, -2.0E-4, 2.0E-4, 6.0E-4, 23.3, 2.85)" gradientUnits="userSpaceOnUse" id="gradient4" spreadMethod="pad" x1="-819.2" x2="819.2">
      <stop offset="0.0" stop-color="#24072a"/>
      <stop offset="1.0" stop-color="#91176e"/>
    </linearGradient>
    <linearGradient gradientTransform="matrix(6.0E-4, -2.0E-4, 2.0E-4, 6.0E-4, 23.3, 2.85)" gradientUnits="userSpaceOnUse" id="gradient5" spreadMethod="pad" x1="-819.2" x2="819.2">
      <stop offset="0.0" stop-color="#000000"/>
      <stop offset="1.0" stop-color="#350828"/>
    </linearGradient>
    <linearGradient gradientTransform="matrix(6.0E-4, -3.0E-4, 2.0E-4, 4.0E-4, 23.3, 2.65)" gradientUnits="userSpaceOnUse" id="gradient6" spreadMethod="pad" x1="-819.2" x2="819.2">
      <stop offset="0.00784313725490196" stop-color="#f3b23a"/>
      <stop offset="1.0" stop-color="#79591e"/>
    </linearGradient>
    <linearGradient gradientTransform="matrix(1.0E-4, -1.0E-4, 6.0E-4, 3.0E-4, 20.7, 3.05)" gradientUnits="userSpaceOnUse" id="gradient7" spreadMethod="pad" x1="-819.2" x2="819.2">
      <stop offset="0.00784313725490196" stop-color="#f3b23a"/>
      <stop offset="1.0" stop-color="#79591e"/>
    </linearGradient>
    <linearGradient gradientTransform="matrix(-4.0E-4, -2.0E-4, 2.0E-4, -6.0E-4, 20.95, 3.0)" gradientUnits="userSpaceOnUse" id="gradient8" spreadMethod="pad" x1="-819.2" x2="819.2">
      <stop offset="0.00784313725490196" stop-color="#f3b23a"/>
      <stop offset="1.0" stop-color="#79591e"/>
    </linearGradient>
    <linearGradient gradientTransform="matrix(4.0E-4, -3.0E-4, 7.0E-4, 7.0E-4, 20.95, 3.25)" gradientUnits="userSpaceOnUse" id="gradient9" spreadMethod="pad" x1="-819.2" x2="819.2">
      <stop offset="0.0" stop-color="#000000"/>
      <stop offset="1.0" stop-color="#350828"/>
    </linearGradient>
    <linearGradient gradientTransform="matrix(3.0E-4, -1.0E-4, 1.0E-4, 3.0E-4, 22.2, 2.2)" gradientUnits="userSpaceOnUse" id="gradient10" spreadMethod="pad" x1="-819.2" x2="819.2">
      <stop offset="0.0" stop-color="#24072a"/>
      <stop offset="1.0" stop-color="#91176e"/>
    </linearGradient>
    <linearGradient gradientTransform="matrix(0.0034, -0.0014, 0.0022, 0.0053, 26.7, 5.95)" gradientUnits="userSpaceOnUse" id="gradient11" spreadMethod="pad" x1="-819.2" x2="819.2">
      <stop offset="0.0" stop-color="#24072a"/>
      <stop offset="1.0" stop-color="#91176e"/>
    </linearGradient>
    <linearGradient gradientTransform="matrix(-0.0019, 0.0015, -7.0E-4, -9.0E-4, 21.35, 4.25)" gradientUnits="userSpaceOnUse" id="gradient12" spreadMethod="pad" x1="-819.2" x2="819.2">
      <stop offset="0.0" stop-color="#24072a"/>
      <stop offset="1.0" stop-color="#91176e"/>
    </linearGradient>
    <linearGradient gradientTransform="matrix(2.0E-4, -1.0E-4, 0.0, 1.0E-4, 21.8, 3.15)" gradientUnits="userSpaceOnUse" id="gradient13" spreadMethod="pad" x1="-819.2" x2="819.2">
      <stop offset="0.00784313725490196" stop-color="#f3b23a"/>
      <stop offset="1.0" stop-color="#79591e"/>
    </linearGradient>
    <linearGradient gradientTransform="matrix(9.0E-4, -4.0E-4, 3.0E-4, 8.0E-4, 21.2, 4.15)" gradientUnits="userSpaceOnUse" id="gradient14" spreadMethod="pad" x1="-819.2" x2="819.2">
      <stop offset="0.00784313725490196" stop-color="#f3b23a"/>
      <stop offset="1.0" stop-color="#79591e"/>
    </linearGradient>
    <linearGradient gradientTransform="matrix(-0.0019, 0.0015, -7.0E-4, -9.0E-4, 21.35, 4.25)" gradientUnits="userSpaceOnUse" id="gradient15" spreadMethod="pad" x1="-819.2" x2="819.2">
      <stop offset="0.0" stop-color="#000000"/>
      <stop offset="1.0" stop-color="#350828"/>
    </linearGradient>
    <linearGradient gradientTransform="matrix(4.0E-4, -3.0E-4, 7.0E-4, 7.0E-4, 20.95, 3.25)" gradientUnits="userSpaceOnUse" id="gradient16" spreadMethod="pad" x1="-819.2" x2="819.2">
      <stop offset="0.0" stop-color="#24072a"/>
      <stop offset="1.0" stop-color="#91176e"/>
    </linearGradient>
    <linearGradient gradientTransform="matrix(0.0096, -0.004, 0.0022, 0.0053, 12.7, 7.45)" gradientUnits="userSpaceOnUse" id="gradient17" spreadMethod="pad" x1="-819.2" x2="819.2">
      <stop offset="0.00784313725490196" stop-color="#20180a"/>
      <stop offset="1.0" stop-color="#69490d"/>
    </linearGradient>
    <linearGradient gradientTransform="matrix(0.0096, -0.004, 0.0022, 0.0053, 12.7, 7.45)" gradientUnits="userSpaceOnUse" id="gradient18" spreadMethod="pad" x1="-819.2" x2="819.2">
      <stop offset="0.00784313725490196" stop-color="#f3b23a"/>
      <stop offset="0.3176470588235294" stop-color="#ffdba6"/>
      <stop offset="1.0" stop-color="#ad7817"/>
    </linearGradient>
    <linearGradient gradientTransform="matrix(0.003, -0.0012, 7.0E-4, 0.0018, 20.4, 5.05)" gradientUnits="userSpaceOnUse" id="gradient19" spreadMethod="pad" x1="-819.2" x2="819.2">
      <stop offset="0.00784313725490196" stop-color="#f3b23a"/>
      <stop offset="1.0" stop-color="#79591e"/>
    </linearGradient>
    <linearGradient gradientTransform="matrix(0.0096, -0.004, 0.0022, 0.0053, 12.7, 7.45)" gradientUnits="userSpaceOnUse" id="gradient20" spreadMethod="pad" x1="-819.2" x2="819.2">
      <stop offset="0.0" stop-color="#000000"/>
      <stop offset="1.0" stop-color="#350828"/>
    </linearGradient>
    <radialGradient cx="0" cy="0" gradientTransform="matrix(0.0078, -0.0032, 0.0032, 0.0078, 24.6, 7.75)" gradientUnits="userSpaceOnUse" id="gradient21" r="819.2" spreadMethod="pad">
      <stop offset="0.0" stop-color="#38222a"/>
      <stop offset="1.0" stop-color="#480a36"/>
    </radialGradient>
    <linearGradient gradientTransform="matrix(0.0096, -0.004, 0.0022, 0.0053, 12.7, 7.45)" gradientUnits="userSpaceOnUse" id="gradient22" spreadMethod="pad" x1="-819.2" x2="819.2">
      <stop offset="0.0" stop-color="#24072a"/>
      <stop offset="1.0" stop-color="#91176e"/>
    </linearGradient>
    <linearGradient gradientTransform="matrix(0.0034, -0.0014, 0.0022, 0.0053, 26.7, 5.95)" gradientUnits="userSpaceOnUse" id="gradient23" spreadMethod="pad" x1="-819.2" x2="819.2">
      <stop offset="0.00784313725490196" stop-color="#85611f"/>
      <stop offset="0.3176470588235294" stop-color="#9c8666"/>
      <stop offset="1.0" stop-color="#724f0f"/>
    </linearGradient>
    <radialGradient cx="0" cy="0" gradientTransform="matrix(0.0078, -0.0032, 0.0032, 0.0078, 24.6, 7.75)" gradientUnits="userSpaceOnUse" id="gradient24" r="819.2" spreadMethod="pad">
      <stop offset="0.0" stop-color="#bb5c7f"/>
      <stop offset="1.0" stop-color="#74275e"/>
    </radialGradient>
    <linearGradient gradientTransform="matrix(7.0E-4, -3.0E-4, 8.0E-4, 0.0018, 17.5, 6.0)" gradientUnits="userSpaceOnUse" id="gradient25" spreadMethod="pad" x1="-819.2" x2="819.2">
      <stop offset="0.00784313725490196" stop-color="#f3b23a"/>
      <stop offset="1.0" stop-color="#79591e"/>
    </linearGradient>
    <linearGradient gradientTransform="matrix(0.0022, -9.0E-4, 3.0E-4, 7.0E-4, 14.35, 5.15)" gradientUnits="userSpaceOnUse" id="gradient26" spreadMethod="pad" x1="-819.2" x2="819.2">
      <stop offset="0.00784313725490196" stop-color="#f3b23a"/>
      <stop offset="1.0" stop-color="#79591e"/>
    </linearGradient>
    <linearGradient gradientTransform="matrix(5.0E-4, -2.0E-4, 3.0E-4, 7.0E-4, 17.6, 4.3)" gradientUnits="userSpaceOnUse" id="gradient27" spreadMethod="pad" x1="-819.2" x2="819.2">
      <stop offset="0.00784313725490196" stop-color="#f3b23a"/>
      <stop offset="1.0" stop-color="#79591e"/>
    </linearGradient>
    <linearGradient gradientTransform="matrix(0.0027, -0.0011, 4.0E-4, 0.001, 17.8, 4.5)" gradientUnits="userSpaceOnUse" id="gradient28" spreadMethod="pad" x1="-819.2" x2="819.2">
      <stop offset="0.0" stop-color="#000000"/>
      <stop offset="1.0" stop-color="#350828"/>
    </linearGradient>
    <linearGradient gradientTransform="matrix(6.0E-4, -2.0E-4, 4.0E-4, 9.0E-4, 17.55, 5.7)" gradientUnits="userSpaceOnUse" id="gradient29" spreadMethod="pad" x1="-819.2" x2="819.2">
      <stop offset="0.00784313725490196" stop-color="#f3b23a"/>
      <stop offset="1.0" stop-color="#79591e"/>
    </linearGradient>
    <linearGradient gradientTransform="matrix(0.0037, -3.0E-4, 1.0E-4, 0.0012, 17.2, 5.55)" gradientUnits="userSpaceOnUse" id="gradient30" spreadMethod="pad" x1="-819.2" x2="819.2">
      <stop offset="0.0" stop-color="#000000"/>
      <stop offset="1.0" stop-color="#350828"/>
    </linearGradient>
    <linearGradient gradientTransform="matrix(0.0037, -3.0E-4, 1.0E-4, 0.0012, 17.2, 5.55)" gradientUnits="userSpaceOnUse" id="gradient31" spreadMethod="pad" x1="-819.2" x2="819.2">
      <stop offset="0.0" stop-color="#24072a"/>
      <stop offset="1.0" stop-color="#91176e"/>
    </linearGradient>
    <linearGradient gradientTransform="matrix(2.0E-4, -1.0E-4, 3.0E-4, 7.0E-4, 18.05, 4.1)" gradientUnits="userSpaceOnUse" id="gradient32" spreadMethod="pad" x1="-819.2" x2="819.2">
      <stop offset="0.00784313725490196" stop-color="#f3b23a"/>
      <stop offset="1.0" stop-color="#79591e"/>
    </linearGradient>
    <linearGradient gradientTransform="matrix(0.0027, -0.0011, 4.0E-4, 0.001, 17.8, 4.5)" gradientUnits="userSpaceOnUse" id="gradient33" spreadMethod="pad" x1="-819.2" x2="819.2">
      <stop offset="0.0" stop-color="#24072a"/>
      <stop offset="1.0" stop-color="#91176e"/>
    </linearGradient>
    <linearGradient gradientTransform="matrix(9.0E-4, -4.0E-4, 4.0E-4, 9.0E-4, 18.75, 5.25)" gradientUnits="userSpaceOnUse" id="gradient34" spreadMethod="pad" x1="-819.2" x2="819.2">
      <stop offset="0.00784313725490196" stop-color="#f3b23a"/>
      <stop offset="1.0" stop-color="#79591e"/>
    </linearGradient>
    <radialGradient cx="0" cy="0" gradientTransform="matrix(0.0062, -0.0026, 0.0026, 0.0062, 14.2, 8.85)" gradientUnits="userSpaceOnUse" id="gradient35" r="819.2" spreadMethod="pad">
      <stop offset="0.0" stop-color="#bb5c7f"/>
      <stop offset="1.0" stop-color="#74275e"/>
    </radialGradient>
    <linearGradient gradientTransform="matrix(0.0031, -0.0013, 8.0E-4, 0.002, 14.85, 2.4)" gradientUnits="userSpaceOnUse" id="gradient36" spreadMethod="pad" x1="-819.2" x2="819.2">
      <stop offset="0.00784313725490196" stop-color="#f3b23a"/>
      <stop offset="1.0" stop-color="#79591e"/>
    </linearGradient>
    <radialGradient cx="0" cy="0" gradientTransform="matrix(0.0017, -7.0E-4, 7.0E-4, 0.0017, 16.05, 0.25)" gradientUnits="userSpaceOnUse" id="gradient37" r="819.2" spreadMethod="pad">
      <stop offset="0.00784313725490196" stop-color="#e2d25f"/>
      <stop offset="0.1843137254901961" stop-color="#ffffff"/>
      <stop offset="0.3254901960784314" stop-color="#de9d3b"/>
      <stop offset="0.4588235294117647" stop-color="#e2d25f"/>
      <stop offset="1.0" stop-color="#bf7c2a"/>
    </radialGradient>
    <radialGradient cx="0" cy="0" gradientTransform="matrix(0.007, 0.0, 0.0, 0.007, 4.2, 4.7)" gradientUnits="userSpaceOnUse" id="gradient38" r="819.2" spreadMethod="pad">
      <stop offset="0.0" stop-color="#d9d9d9"/>
      <stop offset="1.0" stop-color="#fcfcfc"/>
    </radialGradient>
    <radialGradient cx="0" cy="0" gradientTransform="matrix(0.007, 0.0, 0.0, 0.007, 4.2, 4.7)" gradientUnits="userSpaceOnUse" id="gradient39" r="819.2" spreadMethod="pad">
      <stop offset="0.00784313725490196" stop-color="#959595"/>
      <stop offset="1.0" stop-color="#c2c2c2"/>
    </radialGradient>
    <radialGradient cx="0" cy="0" gradientTransform="matrix(0.42, 0.0, 0.0, 0.42, 2.3, 4.75)" gradientUnits="userSpaceOnUse" id="gradient40" r="819.2" spreadMethod="pad">
      <stop offset="0.00784313725490196" stop-color="#959595"/>
      <stop offset="1.0" stop-color="#c2c2c2"/>
    </radialGradient>
    <linearGradient gradientTransform="matrix(0.0019, -0.0012, 8.0E-4, 0.0013, 4.25, 7.05)" gradientUnits="userSpaceOnUse" id="gradient41" spreadMethod="pad" x1="-819.2" x2="819.2">
      <stop offset="0.00784313725490196" stop-color="#e2d25f"/>
      <stop offset="0.1843137254901961" stop-color="#ffffff"/>
      <stop offset="0.3254901960784314" stop-color="#de9d3b"/>
      <stop offset="0.4588235294117647" stop-color="#e2d25f"/>
      <stop offset="1.0" stop-color="#bf7c2a"/>
    </linearGradient>
    <linearGradient gradientTransform="matrix(0.0019, -0.0012, 8.0E-4, 0.0013, 4.25, 7.05)" gradientUnits="userSpaceOnUse" id="gradient42" spreadMethod="pad" x1="-819.2" x2="819.2">
      <stop offset="0.00784313725490196" stop-color="#8c802d"/>
      <stop offset="1.0" stop-color="#724918"/>
    </linearGradient>
    <linearGradient gradientTransform="matrix(8.0E-4, -5.0E-4, 8.0E-4, 0.0013, 3.5, 7.85)" gradientUnits="userSpaceOnUse" id="gradient43" spreadMethod="pad" x1="-819.2" x2="819.2">
      <stop offset="0.00784313725490196" stop-color="#8c802d"/>
      <stop offset="1.0" stop-color="#724918"/>
    </linearGradient>
    <radialGradient cx="0" cy="0" gradientTransform="matrix(0.007, 0.0, 0.0, 0.007, 6.05, 11.35)" gradientUnits="userSpaceOnUse" id="gradient44" r="819.2" spreadMethod="pad">
      <stop offset="0.0" stop-color="#100e35"/>
      <stop offset="1.0" stop-color="#000000"/>
    </radialGradient>
    <radialGradient cx="0" cy="0" gradientTransform="matrix(0.007, 0.0, 0.0, 0.007, 6.05, 11.35)" gradientUnits="userSpaceOnUse" id="gradient45" r="819.2" spreadMethod="pad">
      <stop offset="0.0" stop-color="#3e2051"/>
      <stop offset="0.7019607843137254" stop-color="#230631"/>
      <stop offset="1.0" stop-color="#000000"/>
    </radialGradient>
  </defs>
</svg>
