<svg xmlns="http://www.w3.org/2000/svg" xmlns:ffdec="https://www.free-decompiler.com/flash" xmlns:xlink="http://www.w3.org/1999/xlink" ffdec:objectType="frame" width="11.65" height="12.2"><use ffdec:characterId="5" xlink:href="#a" width="11.65" height="12.2"/><defs><g id="a" fill-rule="evenodd"><path fill="#fff" d="M9.45 11.95Q7.95 10.35 7 8.4L3.65 7.2l-.15-.35q0-2.15 1.8-2.05 1.75.1 1.75 1.05l.25.25 1.6 2.05q1.6 1.95 1.65 2.55.05.55-.65 1-.25.1-.45.25"/><path fill="#ccc" d="M3.65 7.2 7 8.4q.95 1.95 2.45 3.55l-.85.15-.85.1q-2.05 0-4.1-5"/><path fill="#64933c" d="M8.4 4.7 6.6 3.2 2.75.35l.4.15.2.05L2.25 0Q5.55 1.5 7 2.7l2 1.45zM2.35.2l1.3 1.15q2.45 1.7 4.4 3.6l-.75.55-1 .6-1.85-2.35L1.65 0h.05zM8.5 5.3l.2-.25 1-1.2.6.5-.1.2Q9.05 6 7.35 7.1l-.5-.45zm-.75 2.15.35-.25q1.6-1.05 2.5-2.55l1.05.95-2.7 2.65z"/><path fill="#335f0c" d="m8.4 4.7.6-.55.3.05.35-.4.05.05-1 1.2zm-.35.25.3.3.25-.05-.3.2.2-.1-1.65 1.35.5.45L5 8.35l-2.5.95-.45-.65.5-.3.15-.1-.2-.35-.9-1.75L.8 4.4Q0 2.6 0 1.45L.1.6.5.25Q.85 1.8 1.65 3l1.4 2.45 1.4 1.9.6-.4-1.1-1.05Q1.8 3.25.9.1l.75-.1 2.8 3.75L6.3 6.1l1-.6zm-5.3 4.6q2.7-.75 5-2.1l1.2.8-.35.3q-1.8 1.5-5.1 2.15l-.75-1.05zm5.6-4.3-.45.05h.5z"/><path fill="#204600" d="M2.75.35 6.6 3.2l1.8 1.5.3.35-.2.25-.2.1.3-.2-.25.05-.3-.3q-1.95-1.9-4.4-3.6L2.35.2zm7.55 4 .3.3q-.9 1.5-2.5 2.55l-.35.25q-2.3 1.35-5 2.1L2.5 9.3 5 8.35 7.35 7.1Q9.05 6 10.2 4.55zM.9.1q.9 3.15 3.05 5.8l1.1 1.05-.6.4-1.4-1.9L1.65 3Q.85 1.8.5.25zm7.45 5.15.05.05h-.5z"/><path fill="#204600" d="M7.45 7Q9.1 5.95 10.2 4.55l.1-.2.3.3q-.9 1.5-2.5 2.55l-.25.2z"/><path fill="#122700" d="m7.45 7 .4.4-.1.05q-2.3 1.35-5 2.1L2.5 9.3 5 8.35 7.35 7.1zm-3 .35-1.4-1.9L1.65 3Q.85 1.8.5.25L.9.1q.9 3.15 3.05 5.8l1.1 1.05z"/></g></defs></svg>