<?xml version="1.0" encoding="UTF-8" standalone="no"?>
<svg xmlns:ffdec="https://www.free-decompiler.com/flash" xmlns:xlink="http://www.w3.org/1999/xlink" ffdec:objectType="frame" height="22.5px" width="24.95px" xmlns="http://www.w3.org/2000/svg">
  <g transform="matrix(1.0, 0.0, 0.0, 1.0, 2.4, -0.45)">
    <use ffdec:characterId="3" height="22.5" transform="matrix(1.0, 0.0, 0.0, 1.0, -2.4, 0.45)" width="24.95" xlink:href="#shape0"/>
  </g>
  <defs>
    <g id="shape0" transform="matrix(1.0, 0.0, 0.0, 1.0, 2.4, -0.45)">
      <path d="M10.1 13.45 L10.15 13.55 Q10.6 13.35 11.5 14.95 L13.7 17.65 Q15.1 19.4 16.25 20.2 L18.4 21.4 19.7 22.2 19.75 22.75 19.6 22.8 19.25 22.9 18.85 22.85 18.65 22.85 18.15 22.95 17.75 22.85 17.25 22.4 17.0 22.2 16.95 22.2 16.1 22.05 15.75 22.05 Q15.45 21.95 15.3 21.7 L14.75 21.2 14.65 21.1 14.3 20.9 Q13.35 20.85 13.25 19.9 L13.2 19.9 Q12.9 19.9 12.65 19.55 L12.45 19.15 12.4 19.1 12.2 19.0 11.75 18.6 11.35 18.2 Q10.75 18.2 10.75 17.45 L10.75 17.35 10.7 17.25 10.6 17.15 10.4 16.75 10.15 16.35 10.05 16.05 10.0 16.2 9.75 16.6 9.55 17.0 9.45 17.1 9.4 17.2 9.4 17.3 Q9.4 18.05 8.8 18.05 L8.4 18.45 7.95 18.85 7.75 18.95 7.7 19.0 7.5 19.4 6.95 19.75 6.9 19.75 Q6.8 20.7 5.85 20.75 L5.5 20.95 5.4 21.05 4.85 21.55 4.4 21.9 4.05 21.9 3.2 22.05 3.15 22.05 2.9 22.25 2.4 22.7 2.0 22.8 1.5 22.7 1.3 22.7 0.9 22.75 0.55 22.65 0.4 22.6 0.45 22.05 Q0.85 21.75 1.75 21.25 L3.9 20.05 6.45 17.5 8.65 14.8 Q9.65 13.0 10.1 13.45" fill="#9c9c9c" fill-opacity="0.3529412" fill-rule="evenodd" stroke="none"/>
      <path d="M-0.75 21.55 L-1.35 21.4 -1.15 21.15 -0.75 21.55" fill="#b41010" fill-rule="evenodd" stroke="none"/>
      <path d="M22.25 21.3 L22.0 21.25 21.7 21.5 21.05 21.0 21.05 21.05 20.55 21.7 20.45 21.7 20.45 21.75 20.2 21.75 Q20.05 21.4 19.7 21.55 L19.6 21.05 19.05 21.5 18.5 21.25 Q18.2 21.05 18.1 21.0 L17.75 21.1 17.15 20.85 16.95 20.75 16.85 20.75 16.55 20.7 16.3 20.7 16.35 20.55 16.35 20.35 16.35 20.2 15.95 20.45 15.5 20.15 15.15 20.05 15.3 19.95 15.5 19.8 15.7 19.55 15.75 19.4 15.6 19.25 Q15.55 19.65 15.1 19.65 L15.0 19.65 14.6 19.3 14.5 19.0 Q14.5 18.8 14.65 18.75 L14.65 18.6 14.3 18.7 13.8 18.35 13.45 17.9 13.35 17.9 12.8 17.65 12.6 17.3 12.65 17.1 12.7 17.0 13.05 16.75 12.9 16.5 12.85 16.7 12.55 16.9 12.4 16.9 12.3 16.9 12.25 16.9 Q11.75 16.85 11.75 16.3 L11.85 16.0 11.65 16.0 11.6 15.95 11.45 15.9 11.4 15.65 11.5 15.15 11.3 14.65 11.3 14.6 Q11.3 14.25 11.75 14.25 L11.8 14.15 11.55 13.85 11.25 13.95 11.05 13.75 10.95 13.8 10.9 13.8 10.5 13.55 10.9 13.55 12.45 13.55 12.5 13.95 12.7 14.4 12.7 14.45 12.85 14.65 12.8 14.8 12.95 14.95 12.8 15.3 12.95 15.45 Q13.35 15.35 13.35 15.65 L13.25 15.8 13.45 16.0 Q13.85 15.85 13.85 16.2 L13.75 16.4 13.85 16.5 13.95 16.7 14.1 16.9 14.1 16.95 14.25 17.2 14.6 17.5 Q14.9 17.4 14.9 17.8 L14.85 17.95 15.35 18.15 15.55 18.1 Q15.95 18.1 15.95 18.4 L15.85 18.75 15.9 18.75 16.2 18.7 Q16.7 18.75 16.7 19.15 L16.65 19.4 16.75 19.45 16.9 19.4 Q17.3 19.4 17.3 19.7 L17.25 19.85 17.45 19.9 18.05 19.8 Q18.35 19.8 18.7 20.1 L18.9 20.05 Q19.3 20.05 19.35 20.45 L19.45 20.35 19.65 20.15 19.9 20.1 20.25 20.25 20.6 20.4 20.7 20.3 21.2 20.2 21.65 20.4 21.8 20.35 Q22.3 20.35 22.3 20.85 L22.2 21.15 22.25 21.3 M17.4 20.2 L17.3 20.15 17.3 20.25 17.4 20.2 M14.05 17.75 L14.05 17.7 13.9 17.65 14.05 17.75" fill="#ffffff" fill-rule="evenodd" stroke="none"/>
      <path d="M14.05 17.75 L13.9 17.65 14.05 17.7 14.05 17.75 M17.4 20.2 L17.3 20.25 17.3 20.15 17.4 20.2" fill="#f3dfef" fill-rule="evenodd" stroke="none"/>
      <path d="M10.5 13.55 L10.9 13.8 10.95 13.8 11.05 13.75 11.25 13.95 11.55 13.85 11.8 14.15 11.75 14.25 Q11.3 14.25 11.3 14.6 L11.3 14.65 11.5 15.15 11.4 15.65 11.45 15.9 11.6 15.95 11.65 16.0 11.85 16.0 11.75 16.3 Q11.75 16.85 12.25 16.9 L12.3 16.9 12.4 16.9 12.55 16.9 12.85 16.7 12.9 16.5 13.05 16.75 12.7 17.0 12.65 17.1 12.6 17.3 12.8 17.65 13.35 17.9 13.45 17.9 13.8 18.35 14.3 18.7 14.65 18.6 14.65 18.75 Q14.5 18.8 14.5 19.0 L14.6 19.3 15.0 19.65 15.1 19.65 Q15.55 19.65 15.6 19.25 L15.75 19.4 15.7 19.55 15.5 19.8 15.3 19.95 15.15 20.05 15.5 20.15 15.95 20.45 16.35 20.2 16.35 20.35 16.35 20.55 16.3 20.7 16.55 20.7 16.85 20.75 16.95 20.75 17.15 20.85 17.75 21.1 18.1 21.0 Q18.2 21.05 18.5 21.25 L19.05 21.5 19.6 21.05 19.7 21.55 Q20.05 21.4 20.2 21.75 L20.45 21.75 20.45 21.7 20.55 21.7 21.05 21.05 21.05 21.0 21.7 21.5 22.0 21.25 22.25 21.3 22.35 21.3 22.55 21.5 22.15 21.75 Q21.75 21.75 21.75 22.05 L21.8 22.35 21.7 22.4 Q21.35 22.15 21.15 22.15 20.9 22.15 20.9 22.6 L20.75 22.6 20.45 22.3 19.7 22.5 19.2 22.65 Q19.05 22.45 18.65 22.35 18.65 22.6 18.15 22.6 17.9 22.6 17.75 22.2 L17.45 21.9 16.95 21.8 16.15 21.75 15.9 21.35 15.6 21.45 Q15.05 21.45 14.85 20.55 14.05 20.5 13.85 20.15 L13.8 19.55 Q13.3 19.45 12.9 19.15 L12.9 18.85 12.25 18.4 12.05 17.95 11.35 17.8 11.25 17.15 10.8 16.55 10.55 16.05 10.7 15.75 10.4 15.25 Q10.1 15.15 10.1 14.7 L10.25 14.0 Q10.35 13.45 10.5 13.55" fill="#d7d7d7" fill-rule="evenodd" stroke="none"/>
      <path d="M20.7 20.3 L20.6 20.4 20.25 20.25 19.9 20.1 19.65 20.15 19.45 20.35 19.35 20.45 Q19.3 20.05 18.9 20.05 L18.7 20.1 Q18.35 19.8 18.05 19.8 L17.45 19.9 17.25 19.85 17.3 19.7 Q17.3 19.4 16.9 19.4 L16.75 19.45 16.65 19.4 16.7 19.15 Q16.7 18.75 16.2 18.7 L15.9 18.75 15.85 18.75 15.95 18.4 Q15.95 18.1 15.55 18.1 L15.35 18.15 14.85 17.95 14.9 17.8 Q14.9 17.4 14.6 17.5 L14.25 17.2 14.1 16.95 14.1 16.9 13.95 16.7 13.85 16.5 13.75 16.4 13.85 16.2 Q13.85 15.85 13.45 16.0 L13.25 15.8 13.35 15.65 Q13.35 15.35 12.95 15.45 L12.8 15.3 12.95 14.95 12.8 14.8 12.85 14.65 12.7 14.45 12.7 14.4 12.5 13.95 12.45 13.55 10.9 13.55 10.85 13.4 10.55 12.3 Q11.6 11.7 13.4 11.7 16.0 11.7 16.65 12.2 L16.65 12.25 Q17.05 12.5 17.25 13.25 L17.5 13.6 17.5 13.65 18.15 15.3 18.1 15.25 16.15 14.9 16.55 15.45 16.5 16.6 16.5 16.2 15.1 14.9 14.9 14.9 14.75 14.85 14.65 14.9 13.6 14.9 Q14.55 16.85 15.75 17.8 L17.25 18.85 17.2 18.75 17.25 18.75 17.55 18.45 17.55 18.1 17.35 17.1 17.9 18.15 18.45 19.5 19.5 19.75 Q20.15 19.7 20.2 19.35 L20.7 20.3 M2.05 15.1 L2.7 13.45 2.7 13.4 2.95 13.05 Q3.15 12.3 3.55 12.05 L3.55 12.0 Q4.2 11.5 6.8 11.5 8.6 11.5 9.65 12.1 L9.35 13.2 Q8.55 15.75 6.9 17.65 4.9 19.95 3.65 20.6 L1.6 21.4 0.15 21.6 -0.75 21.55 -1.15 21.15 0.0 19.15 Q0.05 19.5 0.7 19.55 L1.75 19.3 2.3 17.95 Q2.6 17.25 2.85 16.9 L2.65 17.9 2.65 18.25 2.95 18.55 3.0 18.55 2.95 18.65 4.45 17.6 Q5.65 16.65 6.6 14.7 L5.55 14.7 5.45 14.65 5.3 14.7 5.1 14.7 Q4.0 15.5 3.7 16.0 L3.7 16.4 Q3.6 16.35 3.65 15.25 L4.05 14.7 2.1 15.05 2.05 15.1 M4.6 15.5 L5.1 15.15 4.8 16.1 4.25 16.75 4.25 16.35 Q4.25 15.85 4.6 15.5 M15.95 16.95 L15.4 16.3 15.1 15.35 15.6 15.7 Q15.95 16.05 15.95 16.55 L15.95 16.95" fill="#4c2a69" fill-rule="evenodd" stroke="none"/>
      <path d="M0.0 19.15 L2.05 15.1 2.1 15.05 4.05 14.7 3.65 15.25 Q3.6 16.35 3.7 16.4 L3.7 16.0 Q4.0 15.5 5.1 14.7 L5.3 14.7 5.45 14.65 5.55 14.7 6.6 14.7 Q5.65 16.65 4.45 17.6 L2.95 18.65 3.0 18.55 2.95 18.55 2.65 18.25 2.65 17.9 2.85 16.9 Q2.6 17.25 2.3 17.95 L1.75 19.3 0.7 19.55 Q0.05 19.5 0.0 19.15 M4.6 15.5 Q4.25 15.85 4.25 16.35 L4.25 16.75 4.8 16.1 5.1 15.15 4.6 15.5 M20.2 19.35 Q20.15 19.7 19.5 19.75 L18.45 19.5 17.9 18.15 17.35 17.1 17.55 18.1 17.55 18.45 17.25 18.75 17.2 18.75 17.25 18.85 15.75 17.8 Q14.55 16.85 13.6 14.9 L14.65 14.9 14.75 14.85 14.9 14.9 15.1 14.9 16.5 16.2 16.5 16.6 16.55 15.45 16.15 14.9 18.1 15.25 18.15 15.3 Q19.3 17.95 20.2 19.35 M15.95 16.95 L15.95 16.55 Q15.95 16.05 15.6 15.7 L15.1 15.35 15.4 16.3 15.95 16.95" fill="#7950a0" fill-rule="evenodd" stroke="none"/>
      <path d="M9.7 13.35 L9.3 13.6 9.15 13.55 8.95 13.75 8.65 13.65 Q8.4 13.65 8.4 13.95 L8.45 14.05 Q8.9 14.05 8.9 14.4 L8.7 14.95 8.8 15.45 8.75 15.7 8.6 15.75 8.55 15.8 8.35 15.8 8.45 16.1 Q8.45 16.65 7.95 16.7 L7.9 16.7 7.8 16.7 Q7.45 16.7 7.35 16.5 L7.3 16.3 Q7.15 16.3 7.15 16.55 L7.5 16.8 7.6 17.1 7.4 17.45 6.8 17.7 6.75 17.7 6.4 18.15 5.9 18.5 5.55 18.4 5.55 18.55 5.7 18.8 5.1 19.45 Q4.65 19.45 4.6 19.05 L4.45 19.2 4.5 19.35 4.7 19.6 5.05 19.85 4.7 19.95 4.25 20.25 3.85 20.0 3.8 19.8 3.8 19.85 3.85 20.15 3.85 20.35 3.9 20.5 3.65 20.5 3.35 20.55 3.25 20.55 3.05 20.65 2.45 20.9 2.1 20.8 1.7 21.05 1.15 21.3 Q0.65 21.3 0.6 20.85 L0.5 21.35 Q0.15 21.2 0.0 21.55 L-0.25 21.55 -0.25 21.5 -0.35 21.5 -0.85 20.85 -0.85 20.8 -1.5 21.3 -1.8 21.05 -2.05 21.1 -2.0 20.95 -2.1 20.65 Q-2.1 20.15 -1.6 20.15 L-1.45 20.2 -1.0 20.0 Q-0.5 20.0 -0.4 20.2 L-0.05 20.05 Q0.05 19.9 0.3 19.9 L0.55 19.95 0.75 20.15 0.85 20.25 Q0.9 19.85 1.3 19.85 L1.5 19.9 Q1.85 19.6 2.15 19.6 L2.75 19.7 2.95 19.65 2.9 19.5 3.3 19.2 3.45 19.25 3.55 19.2 3.5 18.95 Q3.5 18.55 4.0 18.5 L4.3 18.55 4.35 18.55 4.25 18.2 Q4.25 17.9 4.65 17.9 L4.85 17.95 5.35 17.75 5.3 17.6 Q5.3 17.2 5.6 17.3 L5.95 17.0 6.1 16.75 6.1 16.7 6.25 16.5 6.35 16.3 6.45 16.2 6.35 16.0 Q6.35 15.65 6.75 15.8 L6.95 15.6 6.85 15.45 Q6.85 15.15 7.25 15.25 L7.4 15.1 7.25 14.75 Q7.25 14.6 7.4 14.6 L7.35 14.45 7.5 14.25 7.5 14.2 7.7 13.75 Q7.65 13.4 7.75 13.35 L9.7 13.35 M6.15 17.5 L6.05 17.6 6.1 17.55 6.3 17.45 6.15 17.5 M2.9 20.05 L2.9 19.95 2.8 20.0 2.9 20.05" fill="#ffffff" fill-rule="evenodd" stroke="none"/>
      <path d="M6.15 17.5 L6.3 17.45 6.1 17.55 6.05 17.6 6.15 17.5 M2.9 20.05 L2.8 20.0 2.9 19.95 2.9 20.05" fill="#f3dfef" fill-rule="evenodd" stroke="none"/>
      <path d="M-2.05 21.1 L-1.8 21.05 -1.5 21.3 -0.85 20.8 -0.85 20.85 -0.35 21.5 -0.25 21.5 -0.25 21.55 0.0 21.55 Q0.15 21.2 0.5 21.35 L0.6 20.85 Q0.65 21.3 1.15 21.3 L1.7 21.05 2.1 20.8 2.45 20.9 3.05 20.65 3.25 20.55 3.35 20.55 3.65 20.5 3.9 20.5 3.85 20.35 3.85 20.15 3.8 19.85 3.8 19.8 3.85 20.0 4.25 20.25 4.7 19.95 5.05 19.85 4.7 19.6 4.5 19.35 4.45 19.2 4.6 19.05 Q4.65 19.45 5.1 19.45 L5.7 18.8 5.55 18.55 5.55 18.4 5.9 18.5 6.4 18.15 6.75 17.7 6.8 17.7 7.4 17.45 7.6 17.1 7.5 16.8 7.15 16.55 Q7.15 16.3 7.3 16.3 L7.35 16.5 Q7.45 16.7 7.8 16.7 L7.9 16.7 7.95 16.7 Q8.45 16.65 8.45 16.1 L8.35 15.8 8.55 15.8 8.6 15.75 8.75 15.7 8.8 15.45 8.7 14.95 8.9 14.4 Q8.9 14.05 8.45 14.05 L8.4 13.95 Q8.4 13.65 8.65 13.65 L8.95 13.75 9.15 13.55 9.3 13.6 9.7 13.35 9.95 13.8 Q9.95 14.2 10.1 14.5 10.1 14.95 9.8 15.05 9.5 15.2 9.5 15.55 L9.65 15.85 9.4 16.35 8.95 16.95 8.85 17.6 8.15 17.75 Q8.25 17.95 7.95 18.2 L7.3 18.65 7.3 18.95 6.4 19.35 6.35 19.95 Q6.15 20.3 5.35 20.35 5.15 21.25 4.6 21.25 L4.3 21.15 4.05 21.55 3.25 21.6 2.75 21.7 2.45 22.0 2.05 22.4 Q1.55 22.4 1.55 22.15 1.15 22.25 1.0 22.45 L0.5 22.3 -0.25 22.1 -0.55 22.4 -0.7 22.4 Q-0.7 21.95 -0.95 21.95 L-1.5 22.2 -1.6 22.15 -1.55 21.85 Q-1.55 21.55 -1.95 21.55 -2.35 21.5 -2.35 21.3 L-2.15 21.1 -2.05 21.1" fill="#d7d7d7" fill-rule="evenodd" stroke="none"/>
      <path d="M5.1 7.55 L5.35 7.35 6.45 6.75 Q8.15 6.85 9.15 7.4 10.2 7.9 10.1 7.9 11.8 6.85 13.65 6.75 L15.15 7.65 Q13.85 7.7 12.85 8.25 L11.9 8.65 Q12.15 8.9 12.0 9.35 L12.0 9.4 11.6 10.1 11.6 10.15 Q11.5 10.5 11.75 10.8 L12.0 11.25 12.0 11.85 13.65 11.05 15.3 11.0 Q16.45 11.1 17.5 12.25 L17.35 13.9 17.05 14.0 10.05 13.4 3.05 14.0 2.7 13.9 Q2.5 13.0 2.55 11.8 3.75 10.9 5.35 10.95 6.9 10.95 7.9 11.8 8.0 11.35 8.25 11.2 L8.25 11.1 Q8.25 10.6 8.5 10.3 L8.5 10.05 8.45 10.0 8.15 9.1 8.3 8.65 7.05 8.15 Q5.75 7.35 5.1 7.55" fill="#4c2a69" fill-rule="evenodd" stroke="none"/>
      <path d="M5.1 7.55 Q5.75 7.35 7.05 8.15 L8.3 8.65 8.15 9.1 8.45 10.0 8.5 10.05 8.5 10.3 Q8.25 10.6 8.25 11.1 L8.25 11.2 Q8.0 11.35 7.9 11.8 6.9 10.95 5.35 10.95 3.75 10.9 2.55 11.8 3.0 9.1 5.05 7.55 L5.1 7.55 M17.5 12.25 Q16.45 11.1 15.3 11.0 L13.65 11.05 12.0 11.85 12.0 11.25 11.75 10.8 Q11.5 10.5 11.6 10.15 L11.6 10.1 12.0 9.4 12.0 9.35 Q12.15 8.9 11.9 8.65 L12.85 8.25 Q13.85 7.7 15.15 7.65 17.35 9.35 17.5 12.25" fill="#7950a0" fill-rule="evenodd" stroke="none"/>
      <path d="M5.7 6.45 L5.65 6.3 Q5.65 6.1 6.05 6.05 L5.9 5.95 Q5.9 5.6 6.4 5.7 L6.6 5.8 6.75 5.8 7.0 5.95 7.1 5.95 7.65 5.7 7.85 5.9 8.15 6.15 8.25 6.1 Q8.65 6.1 8.9 6.4 L9.6 6.5 9.95 6.75 10.3 6.8 10.5 6.55 10.55 6.55 10.75 6.4 Q11.05 6.25 11.2 6.4 L11.25 6.35 11.6 6.05 11.9 5.95 12.25 6.05 12.3 6.1 12.4 6.05 Q12.5 5.9 12.75 5.9 L13.35 5.95 13.45 5.85 Q13.6 5.7 13.8 5.7 L14.05 5.95 14.25 5.9 Q14.5 5.9 14.5 6.05 L14.8 6.05 15.1 6.35 14.9 6.8 Q14.75 6.55 14.4 6.55 14.0 6.55 14.0 6.8 L14.0 6.9 13.75 6.85 13.7 6.8 13.2 6.95 13.15 6.9 12.35 7.1 12.3 7.15 Q11.75 6.9 11.55 7.45 L11.5 7.55 Q11.15 7.2 11.0 7.55 L10.95 7.55 Q10.75 7.45 10.5 7.75 L10.4 7.75 Q9.9 7.9 9.8 7.35 L9.8 7.45 8.4 7.15 8.35 7.15 Q8.35 6.8 8.05 7.15 L7.95 7.15 7.4 6.65 7.35 6.6 7.3 6.65 Q6.9 7.0 6.65 6.45 L6.6 6.5 5.7 6.45 M2.3 13.8 Q1.8 13.8 1.9 13.55 1.9 13.35 2.25 13.35 L2.45 13.1 2.4 13.05 Q2.4 12.8 2.7 12.8 2.8 12.65 3.1 12.65 L3.15 12.7 3.35 12.85 Q3.35 12.6 3.8 12.5 4.1 12.4 4.2 12.7 L4.25 12.7 4.5 12.55 5.2 12.7 5.7 12.65 6.25 12.7 6.45 12.65 6.5 12.65 6.65 12.6 Q6.7 12.15 7.2 12.25 L7.75 12.45 7.85 12.4 8.2 12.5 8.6 12.35 8.85 12.35 8.9 12.35 9.3 12.4 Q9.55 12.15 9.8 12.4 L9.95 12.4 10.2 12.35 Q10.3 12.2 10.5 12.2 10.7 12.2 10.8 12.35 L11.15 12.3 11.55 12.35 11.75 12.55 Q11.85 12.35 12.3 12.4 L12.75 12.6 12.85 12.55 13.15 12.7 13.25 12.55 13.9 12.35 14.15 12.6 14.35 12.7 14.4 12.75 14.75 12.7 Q15.2 12.75 15.35 12.95 L15.75 12.8 Q16.05 12.75 16.2 13.0 L16.5 12.95 16.8 13.0 17.1 13.1 17.35 13.05 Q17.85 13.0 17.85 13.45 L18.15 13.4 Q18.55 13.4 18.55 13.7 L18.55 13.95 18.55 14.1 Q18.55 14.35 18.2 14.35 L18.1 14.35 17.95 14.2 17.9 14.15 17.6 14.15 17.55 14.1 17.55 14.05 17.25 13.75 17.15 13.75 17.05 13.75 16.95 13.9 16.85 13.85 16.8 13.85 16.4 13.6 Q15.95 13.45 15.95 13.8 L16.0 13.9 15.9 14.0 15.85 14.1 14.95 13.8 14.9 13.85 14.75 13.85 14.7 13.8 14.5 13.75 14.35 13.55 14.25 13.65 Q14.1 13.95 13.75 13.5 L13.7 13.5 Q13.3 13.7 12.9 13.5 L12.85 13.55 Q12.6 13.8 12.1 13.3 L12.0 13.3 11.35 13.45 11.2 13.4 10.95 13.25 10.7 13.1 Q10.35 12.9 10.35 13.25 L10.4 13.4 10.1 13.3 10.0 13.4 9.65 13.5 Q9.65 13.2 9.4 13.3 9.15 13.35 9.15 13.55 L9.1 13.55 9.1 13.45 Q9.1 13.2 8.8 13.3 L8.5 13.65 8.15 13.8 8.0 13.75 7.95 13.7 7.95 13.6 Q7.95 13.3 7.65 13.45 L7.35 13.7 7.25 13.7 6.6 13.7 6.4 13.5 6.15 13.65 5.9 13.7 5.9 13.65 Q5.9 13.35 5.55 13.5 L5.4 13.65 5.3 13.65 5.15 13.8 4.8 13.9 4.9 13.75 Q4.9 13.4 4.45 13.55 L4.1 13.8 3.9 13.8 3.9 13.7 Q3.9 13.45 3.6 13.5 L3.25 13.8 2.7 13.85 2.65 13.85 2.6 13.8 2.45 13.8 2.3 13.8 M9.55 7.1 Q9.55 6.95 9.5 7.1 L9.45 7.25 9.55 7.25 9.55 7.1" fill="#ffffff" fill-rule="evenodd" stroke="none"/>
      <path d="M14.9 6.8 L15.0 6.8 15.0 6.95 14.55 7.25 14.5 7.25 14.3 7.35 14.1 7.35 13.65 7.45 13.45 7.45 13.35 7.5 13.2 7.6 13.15 7.6 13.05 7.6 12.75 7.5 12.65 7.75 Q12.55 7.9 12.3 7.9 L12.0 7.85 11.7 8.1 11.55 8.1 11.3 8.1 11.25 8.1 10.95 8.25 10.65 8.1 10.15 8.25 Q9.6 8.25 9.6 8.0 L9.25 8.15 9.05 8.05 8.9 8.05 8.4 7.9 8.25 7.9 7.8 7.75 7.6 7.75 7.35 7.7 7.2 7.7 6.8 7.55 6.8 7.5 6.45 7.3 6.4 7.25 6.25 7.25 5.9 7.15 5.8 7.05 5.75 6.9 5.65 6.5 5.7 6.45 6.6 6.5 6.65 6.45 Q6.9 7.0 7.3 6.65 L7.35 6.6 7.4 6.65 7.95 7.15 8.05 7.15 Q8.35 6.8 8.35 7.15 L8.4 7.15 9.8 7.45 9.8 7.35 Q9.9 7.9 10.4 7.75 L10.5 7.75 Q10.75 7.45 10.95 7.55 L11.0 7.55 Q11.15 7.2 11.5 7.55 L11.55 7.45 Q11.75 6.9 12.3 7.15 L12.35 7.1 13.15 6.9 13.2 6.95 13.7 6.8 13.75 6.85 14.0 6.9 14.0 6.8 Q14.0 6.55 14.4 6.55 14.75 6.55 14.9 6.8 M18.1 14.35 L17.8 14.6 17.7 14.6 17.4 14.85 17.2 14.5 17.2 14.4 16.8 14.6 16.5 14.85 16.15 14.55 15.9 14.55 15.45 14.8 15.0 14.55 14.7 14.65 14.45 14.4 14.45 14.25 14.1 14.0 14.0 14.25 13.7 14.4 Q13.15 14.4 13.05 14.1 L12.4 14.25 11.95 14.0 11.8 13.7 11.7 13.7 Q11.8 14.1 11.35 14.1 L11.0 13.95 10.75 14.05 10.4 13.8 10.35 13.7 10.35 13.75 10.05 14.2 Q9.7 14.2 9.7 13.8 L9.65 13.8 9.3 14.15 9.1 14.05 8.25 14.35 7.65 14.1 7.55 14.1 7.45 14.1 6.4 14.35 6.05 14.25 5.7 14.45 5.35 14.3 5.15 14.45 4.85 14.3 4.6 14.45 4.35 14.3 4.3 14.35 4.15 14.35 3.85 14.55 3.6 14.4 3.15 14.55 Q2.9 14.55 2.85 14.4 L2.8 14.2 Q2.2 14.45 2.2 14.0 L2.3 13.8 2.45 13.8 2.6 13.8 2.65 13.85 2.7 13.85 3.25 13.8 3.6 13.5 Q3.9 13.45 3.9 13.7 L3.9 13.8 4.1 13.8 4.45 13.55 Q4.9 13.4 4.9 13.75 L4.8 13.9 5.15 13.8 5.3 13.65 5.4 13.65 5.55 13.5 Q5.9 13.35 5.9 13.65 L5.9 13.7 6.15 13.65 6.4 13.5 6.6 13.7 7.25 13.7 7.35 13.7 7.65 13.45 Q7.95 13.3 7.95 13.6 L7.95 13.7 8.0 13.75 8.15 13.8 8.5 13.65 8.8 13.3 Q9.1 13.2 9.1 13.45 L9.1 13.55 9.15 13.55 Q9.15 13.35 9.4 13.3 9.65 13.2 9.65 13.5 L10.0 13.4 10.1 13.3 10.4 13.4 10.35 13.25 Q10.35 12.9 10.7 13.1 L10.95 13.25 11.2 13.4 11.35 13.45 12.0 13.3 12.1 13.3 Q12.6 13.8 12.85 13.55 L12.9 13.5 Q13.3 13.7 13.7 13.5 L13.75 13.5 Q14.1 13.95 14.25 13.65 L14.35 13.55 14.5 13.75 14.7 13.8 14.75 13.85 14.9 13.85 14.95 13.8 15.85 14.1 15.9 14.0 16.0 13.9 15.95 13.8 Q15.95 13.45 16.4 13.6 L16.8 13.85 16.85 13.85 16.95 13.9 17.05 13.75 17.15 13.75 17.25 13.75 17.55 14.05 17.55 14.1 17.6 14.15 17.9 14.15 17.95 14.2 18.1 14.35" fill="#d7d7d7" fill-rule="evenodd" stroke="none"/>
      <path d="M8.85 8.55 L8.8 8.4 Q8.8 8.15 9.1 8.15 L9.35 8.25 9.35 8.2 Q9.35 7.8 9.85 7.8 L10.05 7.85 10.3 7.7 10.5 7.9 10.55 7.9 10.8 8.05 11.05 8.25 11.0 8.35 11.35 8.6 11.4 8.65 11.35 8.75 11.45 8.9 11.2 9.15 10.95 9.0 10.9 9.1 11.05 9.25 10.75 9.5 10.55 9.4 10.55 9.35 10.5 9.45 10.45 9.45 10.35 9.55 10.1 9.75 9.9 9.65 9.8 9.6 9.75 9.55 Q9.8 9.25 9.5 9.5 L9.45 9.45 9.45 9.4 Q9.25 9.4 9.2 9.3 L9.15 9.15 9.25 9.0 9.2 9.0 9.0 8.85 8.95 8.7 9.05 8.6 8.85 8.55 M10.6 10.35 L10.85 10.5 Q11.05 10.5 11.1 10.65 L11.05 10.8 Q11.4 10.8 11.4 11.0 L11.45 11.05 11.4 11.2 11.5 11.3 11.25 11.6 11.0 11.45 10.95 11.55 11.1 11.65 10.8 11.95 10.6 11.8 10.6 11.75 10.5 11.9 10.4 11.95 10.15 12.2 9.95 12.05 9.85 12.0 9.8 11.95 Q9.85 11.65 9.55 11.95 L9.5 11.9 9.5 11.85 Q9.3 11.85 9.25 11.7 L9.2 11.6 9.3 11.4 9.25 11.4 9.05 11.25 9.0 11.15 9.1 11.0 8.9 10.95 8.85 10.85 Q8.85 10.55 9.15 10.55 L9.4 10.7 9.4 10.6 Q9.4 10.4 9.55 10.3 L9.9 10.2 10.1 10.25 Q10.15 10.1 10.35 10.1 L10.55 10.3 10.55 10.35 10.6 10.35 M10.15 8.65 L10.1 8.5 10.0 8.5 9.8 8.4 9.75 8.25 Q9.5 8.25 9.5 8.6 L9.55 8.8 9.65 8.75 9.9 8.95 9.9 9.0 10.3 9.05 10.55 9.05 10.5 9.0 10.5 8.85 10.5 8.75 10.35 8.75 10.15 8.65 M10.4 11.2 L10.2 11.05 10.15 10.9 10.05 10.9 9.85 10.85 9.8 10.7 9.8 10.65 9.55 11.0 9.6 11.25 9.7 11.2 Q9.95 11.1 9.95 11.35 L9.95 11.45 10.35 11.5 10.6 11.5 10.55 11.4 10.5 11.25 10.55 11.2 10.4 11.2" fill="#ffffff" fill-rule="evenodd" stroke="none"/>
      <path d="M11.4 8.65 L11.6 8.85 11.6 9.0 11.65 9.15 11.4 9.4 11.65 9.55 11.55 9.75 11.4 9.85 11.25 9.85 11.3 10.0 11.0 10.25 10.7 10.2 10.6 10.35 10.55 10.35 10.55 10.3 10.35 10.1 Q10.15 10.1 10.1 10.25 L9.9 10.2 9.55 10.3 9.5 10.2 9.35 10.2 9.05 10.0 9.05 9.85 9.0 9.85 8.8 9.75 8.75 9.6 8.8 9.45 8.65 9.35 8.6 9.1 8.9 8.65 8.85 8.55 9.05 8.6 8.95 8.7 9.0 8.85 9.2 9.0 9.25 9.0 9.15 9.15 9.2 9.3 Q9.25 9.4 9.45 9.4 L9.45 9.45 9.5 9.5 Q9.8 9.25 9.75 9.55 L9.8 9.6 9.9 9.65 10.1 9.75 10.35 9.55 10.45 9.45 10.5 9.45 10.55 9.35 10.55 9.4 10.75 9.5 11.05 9.25 10.9 9.1 10.95 9.0 11.2 9.15 11.45 8.9 11.35 8.75 11.4 8.65 M11.45 11.05 L11.65 11.25 11.65 11.4 11.7 11.6 11.45 11.8 Q11.6 11.8 11.7 11.95 L11.6 12.2 11.45 12.3 11.3 12.3 11.35 12.4 11.05 12.7 10.75 12.65 10.5 12.8 10.3 12.7 10.15 12.7 10.1 12.7 9.85 12.8 Q9.6 12.8 9.55 12.65 L9.4 12.65 9.1 12.4 9.1 12.3 9.05 12.3 Q8.9 12.3 8.85 12.15 L8.8 12.0 8.85 11.9 8.7 11.75 8.65 11.55 8.95 11.1 8.9 10.95 9.1 11.0 9.0 11.15 9.05 11.25 9.25 11.4 9.3 11.4 9.2 11.6 9.25 11.7 Q9.3 11.85 9.5 11.85 L9.5 11.9 9.55 11.95 Q9.85 11.65 9.8 11.95 L9.85 12.0 9.95 12.05 10.15 12.2 10.4 11.95 10.5 11.9 10.6 11.75 10.6 11.8 10.8 11.95 11.1 11.65 10.95 11.55 11.0 11.45 11.25 11.6 11.5 11.3 11.4 11.2 11.45 11.05 M10.15 8.65 L10.35 8.75 10.5 8.75 10.5 8.85 10.5 9.0 10.55 9.05 10.3 9.05 9.9 9.0 9.9 8.95 9.65 8.75 9.55 8.8 9.5 8.6 Q9.5 8.25 9.75 8.25 L9.8 8.4 10.0 8.5 10.1 8.5 10.15 8.65 M10.4 11.2 L10.55 11.2 10.5 11.25 10.55 11.4 10.6 11.5 10.35 11.5 9.95 11.45 9.95 11.35 Q9.95 11.1 9.7 11.2 L9.6 11.25 9.55 11.0 9.8 10.65 9.8 10.7 9.85 10.85 10.05 10.9 10.15 10.9 10.2 11.05 10.4 11.2" fill="#d7d7d7" fill-rule="evenodd" stroke="none"/>
      <path d="M17.35 6.75 L17.15 6.65 17.2 6.65 17.35 6.75 M2.55 6.55 L2.6 6.55 2.4 6.65 2.55 6.55" fill="#6d0000" fill-rule="evenodd" stroke="none"/>
      <path d="M-2.2 1.7 Q-1.75 1.35 -1.3 1.35 L-0.85 1.35 -0.85 1.5 -0.6 1.5 Q-0.45 1.5 -0.4 1.6 L-0.3 1.6 Q-0.1 1.65 -0.25 1.75 L-0.15 1.85 -0.05 1.6 0.0 1.6 0.1 1.6 0.25 1.75 0.7 1.7 0.75 1.75 Q0.65 1.9 0.9 2.15 L1.1 1.9 1.3 1.95 1.3 2.3 1.25 2.4 1.45 2.3 1.65 2.05 Q2.1 1.45 2.05 2.1 L2.05 2.15 2.35 2.1 2.65 1.95 Q3.05 2.0 3.0 2.35 L2.9 2.45 3.05 2.5 3.15 2.4 3.45 2.45 3.5 2.55 3.65 2.65 3.7 2.7 3.85 2.5 4.2 2.5 4.25 2.75 4.25 2.8 4.6 2.8 4.95 2.55 Q5.2 2.55 5.25 2.8 L5.3 2.8 5.5 2.9 Q5.95 2.5 5.95 3.1 L5.95 3.25 6.0 3.25 6.05 3.35 6.2 3.45 6.55 3.15 6.9 3.3 6.9 3.35 6.85 3.5 7.05 3.35 7.5 3.55 7.55 3.7 7.75 3.75 7.8 3.7 8.05 3.65 8.2 3.55 8.35 3.5 8.6 3.75 8.4 3.9 8.4 4.0 8.5 4.4 8.7 4.4 8.95 4.35 8.95 4.4 Q8.95 4.7 9.25 4.7 L9.45 4.7 9.55 4.6 9.55 4.75 9.55 4.85 9.2 5.2 8.85 5.55 Q8.6 5.55 8.55 5.4 L8.4 5.4 8.35 5.4 8.35 5.65 8.3 5.75 Q8.6 5.7 8.55 6.15 8.55 6.65 8.0 6.6 L7.8 6.6 7.85 6.8 7.55 7.05 7.25 6.6 7.2 6.75 7.2 6.85 7.2 6.95 6.9 7.25 6.65 7.2 6.65 7.05 6.3 7.15 6.25 7.15 6.1 7.15 6.05 7.2 Q5.95 7.7 5.5 7.4 L5.4 7.6 Q5.2 7.3 5.05 7.35 L4.95 7.35 4.9 7.75 4.85 7.8 Q4.25 7.4 4.15 8.05 L4.1 8.05 Q3.95 7.75 3.7 7.8 L3.4 8.0 3.3 8.05 3.0 8.15 3.0 8.2 3.15 8.5 2.9 8.85 2.65 8.65 2.45 8.8 2.5 9.1 2.25 9.35 1.95 9.05 1.55 9.2 Q1.7 10.3 1.15 10.3 0.75 10.3 0.75 9.95 L0.55 10.0 0.4 10.0 0.35 10.15 0.6 10.4 0.55 10.6 0.5 10.6 0.35 10.7 0.1 10.5 0.0 10.75 0.05 10.75 Q0.35 10.85 0.35 11.1 L0.05 11.35 Q-0.2 11.35 -0.25 11.1 L-0.35 11.1 -0.65 10.8 -0.65 10.75 -1.1 10.45 -0.85 10.2 -0.95 9.9 Q-0.95 9.55 -0.5 9.55 L-0.4 9.55 -0.5 9.2 -0.25 8.9 -0.15 8.95 -0.1 8.65 0.3 8.65 0.55 8.75 0.65 8.95 0.8 9.0 0.75 8.85 0.65 8.65 0.8 8.45 0.85 8.4 0.95 8.35 1.1 8.35 1.15 8.4 1.15 8.05 1.4 8.05 1.6 8.15 1.8 8.05 1.8 7.9 2.0 7.9 2.3 8.0 2.25 7.9 Q2.25 7.5 2.75 7.55 L2.85 7.6 3.15 7.3 3.15 7.15 Q3.15 6.85 3.5 6.85 L3.9 7.05 4.0 6.85 4.5 6.45 5.0 6.6 5.0 6.5 5.2 6.3 5.4 6.25 5.7 6.45 5.9 6.25 5.85 6.15 Q5.85 5.7 6.2 5.85 L6.5 6.05 6.65 6.0 6.75 6.0 Q6.8 5.65 7.15 5.7 L7.2 5.75 7.55 5.75 7.45 5.55 7.45 5.3 7.45 5.2 7.55 5.15 7.7 5.1 7.85 5.1 7.85 5.0 7.85 4.85 7.9 4.8 7.8 4.7 7.7 4.7 7.6 4.75 7.3 4.8 7.25 4.8 Q7.0 4.8 7.05 4.5 L7.2 4.2 7.05 4.2 6.8 4.35 6.5 4.15 6.4 4.1 Q6.1 4.1 6.0 3.9 L6.0 4.0 5.75 4.3 Q5.3 4.15 5.35 3.75 L5.3 3.6 5.2 3.6 4.9 3.95 4.6 3.7 4.35 3.35 4.15 3.6 4.05 3.7 3.7 3.95 3.45 3.6 Q3.2 3.5 3.3 3.3 L3.05 3.55 2.75 3.6 2.65 3.6 2.4 3.8 1.95 3.5 1.85 3.25 1.55 3.35 1.35 3.2 1.05 3.25 1.0 3.2 0.95 3.25 0.65 3.45 0.4 3.1 0.3 3.15 -0.2 3.3 -0.5 3.2 -0.55 3.05 -0.6 2.95 -0.75 3.15 -0.85 3.2 -1.05 3.2 -1.3 3.1 -1.5 3.05 -1.85 2.8 -1.65 2.7 -1.8 2.5 -2.05 2.55 -2.4 2.15 -2.2 1.95 -2.05 1.75 -2.2 1.7 M20.4 10.9 L20.1 11.2 20.0 11.2 Q19.95 11.45 19.7 11.45 L19.4 11.2 Q19.4 10.95 19.7 10.85 L19.75 10.85 19.65 10.6 19.4 10.8 19.25 10.7 19.2 10.7 19.15 10.5 Q19.2 10.3 19.4 10.25 L19.35 10.1 19.2 10.1 19.0 10.05 Q19.0 10.4 18.6 10.4 18.05 10.4 18.2 9.3 L17.8 9.15 17.5 9.45 17.25 9.2 17.3 8.9 17.1 8.75 16.85 8.95 Q16.6 8.95 16.6 8.6 16.6 8.3 16.75 8.3 L16.75 8.25 16.45 8.15 16.35 8.1 16.05 7.9 Q15.8 7.85 15.65 8.15 L15.6 8.15 Q15.5 7.5 14.9 7.9 L14.85 7.85 14.8 7.45 14.7 7.45 14.35 7.7 14.25 7.5 Q13.8 7.8 13.7 7.3 L13.65 7.25 13.5 7.25 13.45 7.25 13.1 7.15 13.1 7.3 12.85 7.35 12.55 7.05 12.55 6.95 12.55 6.85 12.5 6.7 12.2 7.15 11.9 6.9 11.95 6.7 11.75 6.7 Q11.2 6.75 11.2 6.25 11.15 5.8 11.45 5.85 L11.4 5.75 11.4 5.5 11.35 5.5 11.2 5.5 10.9 5.65 Q10.55 5.65 10.55 5.3 10.3 5.35 10.2 4.95 L10.2 4.85 10.2 4.7 10.3 4.8 10.5 4.8 10.8 4.5 10.8 4.45 11.05 4.5 11.25 4.5 11.35 4.1 11.35 4.0 11.15 3.85 Q11.15 3.6 11.4 3.6 L11.55 3.65 11.7 3.75 11.95 3.8 12.0 3.85 12.2 3.8 12.25 3.65 12.7 3.45 12.9 3.6 12.85 3.45 12.85 3.4 13.2 3.25 13.55 3.55 13.7 3.45 13.75 3.35 13.8 3.35 13.8 3.2 Q13.8 2.6 14.25 3.0 L14.45 2.9 14.5 2.9 Q14.55 2.65 14.8 2.65 14.95 2.65 15.15 2.9 L15.5 2.9 15.5 2.85 15.55 2.6 15.9 2.6 16.05 2.8 16.1 2.75 Q16.2 2.65 16.25 2.65 L16.3 2.55 16.6 2.5 16.7 2.6 16.85 2.55 16.75 2.45 Q16.7 2.1 17.1 2.05 L17.4 2.2 17.7 2.25 17.7 2.2 Q17.65 1.55 18.1 2.15 L18.3 2.4 18.5 2.5 18.45 2.4 18.45 2.05 18.65 2.0 18.85 2.25 19.0 1.85 19.05 1.8 19.5 1.85 19.65 1.7 19.75 1.7 19.8 1.7 19.9 1.95 20.0 1.85 Q19.85 1.75 20.05 1.7 L20.15 1.7 20.35 1.6 20.6 1.6 20.6 1.45 21.05 1.45 Q21.5 1.45 21.95 1.8 L21.8 1.85 21.95 2.05 22.15 2.25 21.8 2.65 21.55 2.6 21.4 2.8 21.6 2.9 21.25 3.15 21.05 3.2 20.8 3.3 20.6 3.3 20.5 3.25 20.35 3.05 20.3 3.15 20.25 3.3 19.95 3.4 19.45 3.25 19.35 3.2 19.1 3.55 18.8 3.35 18.75 3.3 18.7 3.35 18.4 3.3 18.2 3.45 17.9 3.35 17.8 3.6 17.35 3.9 Q17.1 4.05 17.1 3.7 L17.0 3.7 16.7 3.65 16.45 3.4 16.3 3.7 16.05 4.05 15.7 3.8 15.6 3.7 15.4 3.45 15.15 3.8 14.85 4.05 14.55 3.7 14.45 3.7 14.4 3.85 Q14.45 4.25 14.0 4.4 13.8 4.45 13.75 4.1 L13.75 4.0 Q13.65 4.2 13.35 4.2 L13.25 4.25 12.95 4.45 12.7 4.3 12.55 4.3 12.7 4.6 12.5 4.9 12.45 4.9 12.15 4.85 12.05 4.8 11.95 4.8 11.85 4.9 11.9 4.95 11.9 5.1 11.9 5.2 12.05 5.2 12.2 5.25 12.3 5.3 12.3 5.4 12.3 5.65 12.2 5.85 12.55 5.85 12.6 5.8 Q12.95 5.75 13.0 6.1 L13.1 6.1 13.25 6.15 Q13.35 6.0 13.55 5.95 13.9 5.8 13.9 6.25 L13.85 6.35 14.05 6.55 14.35 6.35 14.55 6.4 14.75 6.6 14.75 6.7 Q14.9 6.55 15.25 6.55 15.55 6.55 15.75 6.95 L15.85 7.15 16.25 6.95 16.6 7.25 16.6 7.4 16.9 7.7 17.0 7.65 Q17.5 7.6 17.5 8.0 L17.45 8.1 17.75 8.0 17.95 8.0 17.95 8.15 18.15 8.25 18.35 8.15 18.6 8.15 18.6 8.5 18.65 8.45 18.8 8.45 18.9 8.5 18.95 8.55 19.1 8.75 19.0 8.95 18.95 9.1 19.1 9.05 19.2 8.85 Q19.35 8.75 19.45 8.75 L19.85 8.75 19.9 9.05 20.0 9.0 20.25 9.3 20.15 9.65 20.25 9.65 Q20.7 9.65 20.7 10.0 L20.6 10.3 20.85 10.55 20.4 10.85 20.4 10.9 M11.85 5.95 L11.85 6.05 11.9 6.05 11.95 5.95 11.85 5.95 M7.9 5.85 L7.8 5.85 7.85 5.95 7.9 5.95 7.9 5.85" fill="#ffffff" fill-rule="evenodd" stroke="none"/>
      <path d="M11.9 4.95 L11.85 4.9 11.95 4.8 12.05 4.8 12.15 4.85 12.45 4.9 12.5 4.9 12.3 4.95 11.9 4.95 M12.05 5.2 Q12.3 5.0 12.3 5.25 L12.3 5.3 12.2 5.25 12.05 5.2 M12.3 5.65 L12.5 5.8 12.55 5.85 12.2 5.85 12.3 5.65 M11.85 5.95 L11.95 5.95 11.9 6.05 11.85 6.05 11.85 5.95 M7.2 5.75 L7.25 5.7 7.45 5.55 7.55 5.75 7.2 5.75 M7.45 5.2 L7.45 5.15 Q7.45 4.9 7.7 5.1 L7.55 5.15 7.45 5.2 M7.85 4.85 L7.45 4.85 7.25 4.8 7.3 4.8 7.6 4.75 7.7 4.7 7.8 4.7 7.9 4.8 7.85 4.85 M9.8 3.75 L9.85 3.7 9.85 3.75 9.8 3.8 9.8 3.75 M7.9 5.85 L7.9 5.95 7.85 5.95 7.8 5.85 7.9 5.85" fill="#f3dfef" fill-rule="evenodd" stroke="none"/>
      <path d="M-2.2 1.7 L-2.2 1.5 Q-2.2 1.3 -1.65 1.25 L-1.7 1.2 -1.95 0.9 -1.45 0.75 -1.15 0.8 Q-1.2 0.1 -0.6 0.9 L-0.55 0.8 Q-0.5 0.4 -0.1 0.5 0.15 0.5 0.2 0.65 L0.2 0.7 0.4 0.8 0.75 0.7 0.8 1.0 1.0 0.85 Q1.2 0.7 1.35 0.7 L1.55 0.9 1.45 1.1 1.45 1.15 1.5 1.15 1.6 1.1 1.95 1.05 Q2.15 1.1 2.2 1.25 L2.25 1.25 Q2.4 0.8 2.8 0.9 L2.95 1.2 2.95 1.25 3.25 1.3 3.45 1.3 Q3.8 1.3 3.8 1.6 L4.5 1.55 4.7 1.9 4.85 1.9 Q5.0 1.6 5.45 1.65 5.75 1.75 5.7 2.15 L5.75 2.15 5.95 2.15 6.1 2.3 6.25 2.25 6.45 2.3 6.45 2.15 Q6.5 1.75 6.85 2.0 L7.1 2.25 Q7.65 2.15 7.5 2.75 L7.45 2.9 7.5 2.9 7.65 2.95 8.2 2.8 Q8.55 2.9 8.5 3.25 L8.5 3.3 8.55 3.45 8.65 3.65 8.7 3.7 9.1 3.6 9.15 3.6 9.6 3.5 9.8 3.75 9.55 4.05 9.7 4.3 9.75 4.25 9.85 4.4 9.95 4.5 10.0 4.35 10.05 4.4 10.2 4.15 9.95 3.85 9.95 3.9 9.9 3.85 9.9 3.8 9.95 3.85 Q9.9 3.6 10.15 3.6 L10.6 3.7 10.65 3.7 11.05 3.8 11.1 3.75 11.2 3.55 11.25 3.4 11.25 3.35 Q11.2 3.0 11.55 2.9 L12.1 3.05 12.25 3.0 12.3 3.0 12.25 2.85 Q12.1 2.25 12.65 2.35 12.7 2.15 12.9 2.1 13.25 1.85 13.3 2.25 L13.3 2.4 13.5 2.35 13.65 2.4 13.8 2.25 14.0 2.25 14.05 2.25 Q14.0 1.85 14.3 1.75 14.75 1.7 14.9 2.0 L15.05 2.0 Q15.05 1.7 15.25 1.65 L15.95 1.7 Q15.95 1.4 16.3 1.4 L16.5 1.4 16.8 1.35 16.8 1.3 Q16.8 1.1 16.95 1.0 17.35 0.9 17.5 1.35 L17.55 1.35 17.8 1.15 18.15 1.2 18.25 1.25 18.3 1.25 18.3 1.2 18.2 1.0 18.4 0.8 18.75 0.95 18.95 1.1 Q18.85 0.85 19.0 0.8 L19.35 0.9 19.55 0.8 19.55 0.75 Q19.6 0.6 19.85 0.6 20.25 0.5 20.3 0.9 L20.35 1.0 Q20.95 0.2 20.9 0.9 L21.2 0.85 Q21.6 0.8 21.7 1.0 L21.45 1.3 21.4 1.35 Q21.95 1.4 21.95 1.6 L21.95 1.8 Q21.5 1.45 21.05 1.45 L20.6 1.45 20.6 1.6 20.35 1.6 20.15 1.7 20.05 1.7 Q19.85 1.75 20.0 1.85 L19.9 1.95 19.8 1.7 19.75 1.7 19.65 1.7 19.5 1.85 19.05 1.8 19.0 1.85 18.85 2.25 18.65 2.0 18.45 2.05 18.45 2.4 18.5 2.5 18.3 2.4 18.1 2.15 Q17.65 1.55 17.7 2.2 L17.7 2.25 17.4 2.2 17.1 2.05 Q16.7 2.1 16.75 2.45 L16.85 2.55 16.7 2.6 16.6 2.5 16.3 2.55 16.25 2.65 Q16.2 2.65 16.1 2.75 L16.05 2.8 15.9 2.6 15.55 2.6 15.5 2.85 15.5 2.9 15.15 2.9 Q14.95 2.65 14.8 2.65 14.55 2.65 14.5 2.9 L14.45 2.9 14.25 3.0 Q13.8 2.6 13.8 3.2 L13.8 3.35 13.75 3.35 13.7 3.45 13.55 3.55 13.2 3.25 12.85 3.4 12.85 3.45 12.9 3.6 12.7 3.45 12.25 3.65 12.2 3.8 12.0 3.85 11.95 3.8 11.7 3.75 11.55 3.65 11.4 3.6 Q11.15 3.6 11.15 3.85 L11.35 4.0 11.35 4.1 11.25 4.5 11.05 4.5 10.8 4.45 10.8 4.5 10.5 4.8 10.3 4.8 10.2 4.7 10.2 4.85 10.2 4.95 Q10.3 5.35 10.55 5.3 10.55 5.65 10.9 5.65 L11.2 5.5 11.35 5.5 11.4 5.5 11.4 5.75 11.45 5.85 Q11.15 5.8 11.2 6.25 11.2 6.75 11.75 6.7 L11.95 6.7 11.9 6.9 12.2 7.15 12.5 6.7 12.55 6.85 12.55 6.95 12.55 7.05 12.85 7.35 13.1 7.3 13.1 7.15 13.45 7.25 13.5 7.25 13.65 7.25 13.7 7.3 Q13.8 7.8 14.25 7.5 L14.35 7.7 14.7 7.45 14.8 7.45 14.85 7.85 14.9 7.9 Q15.5 7.5 15.6 8.15 L15.65 8.15 Q15.8 7.85 16.05 7.9 L16.35 8.1 16.45 8.15 16.75 8.25 16.75 8.3 Q16.6 8.3 16.6 8.6 16.6 8.95 16.85 8.95 L17.1 8.75 17.3 8.9 17.25 9.2 17.5 9.45 17.8 9.15 18.2 9.3 Q18.05 10.4 18.6 10.4 19.0 10.4 19.0 10.05 L19.2 10.1 19.35 10.1 19.4 10.25 Q19.2 10.3 19.15 10.5 L19.2 10.7 19.25 10.7 19.4 10.8 19.65 10.6 19.75 10.85 19.7 10.85 Q19.4 10.95 19.4 11.2 L19.7 11.45 Q19.95 11.45 20.0 11.2 L20.1 11.2 20.4 10.9 20.5 11.1 20.25 11.4 20.25 11.45 20.35 11.6 Q20.35 11.9 20.0 11.9 L19.8 11.8 19.5 12.05 19.45 12.05 19.35 12.05 19.2 11.9 19.1 11.9 18.9 11.7 Q18.5 11.7 18.5 11.1 L17.9 10.8 17.3 10.25 17.45 9.85 16.65 9.4 16.5 9.05 16.5 8.95 Q16.2 8.95 16.1 8.65 L16.0 8.5 15.65 8.7 15.55 8.65 15.35 8.8 15.2 8.8 15.1 8.8 15.05 8.75 14.85 8.6 14.65 8.7 14.35 8.5 14.3 8.4 14.0 8.25 13.85 8.3 Q13.55 8.3 13.55 7.9 L12.85 7.75 12.55 7.8 12.25 7.75 12.2 7.65 11.75 7.4 11.45 6.95 11.2 7.05 10.95 6.75 10.95 6.7 10.85 6.65 10.6 6.85 10.4 6.5 10.4 6.35 Q9.95 6.2 9.95 6.1 L10.0 5.95 9.9 5.95 9.9 6.05 9.8 6.05 9.35 6.25 9.35 6.4 Q9.35 6.75 9.15 6.75 L8.9 6.55 8.8 6.6 8.8 6.65 8.55 6.95 8.3 6.85 8.0 7.3 7.55 7.55 7.5 7.65 7.2 7.7 6.9 7.65 6.2 7.8 Q6.2 8.2 5.9 8.2 L5.75 8.15 5.45 8.3 5.4 8.4 5.1 8.6 4.9 8.5 4.7 8.65 4.65 8.7 4.55 8.7 4.4 8.7 4.2 8.55 4.1 8.6 3.75 8.4 3.65 8.55 3.25 8.85 3.25 8.95 3.1 9.3 2.3 9.75 2.45 10.15 1.85 10.7 1.25 11.0 Q1.25 11.6 0.85 11.6 L0.65 11.8 0.55 11.8 0.4 11.95 0.3 11.95 0.25 11.95 -0.05 11.7 -0.25 11.8 -0.6 11.5 -0.5 11.35 -0.5 11.3 -0.75 11.0 -0.65 10.8 -0.35 11.1 -0.25 11.1 Q-0.2 11.35 0.05 11.35 L0.35 11.1 Q0.35 10.85 0.05 10.75 L0.0 10.75 0.1 10.5 0.35 10.7 0.5 10.6 0.55 10.6 0.6 10.4 0.35 10.15 0.4 10.0 0.55 10.0 0.75 9.95 Q0.75 10.3 1.15 10.3 1.7 10.3 1.55 9.2 L1.95 9.05 2.25 9.35 2.5 9.1 2.45 8.8 2.65 8.65 2.9 8.85 3.15 8.5 3.0 8.2 3.0 8.15 3.3 8.05 3.4 8.0 3.7 7.8 Q3.95 7.75 4.1 8.05 L4.15 8.05 Q4.25 7.4 4.85 7.8 L4.9 7.75 4.95 7.35 5.05 7.35 Q5.2 7.3 5.4 7.6 L5.5 7.4 Q5.95 7.7 6.05 7.2 L6.1 7.15 6.25 7.15 6.3 7.15 6.65 7.05 6.65 7.2 6.9 7.25 7.2 6.95 7.2 6.85 7.2 6.75 7.25 6.6 7.55 7.05 7.85 6.8 7.8 6.6 8.0 6.6 Q8.55 6.65 8.55 6.15 8.6 5.7 8.3 5.75 L8.35 5.65 8.35 5.4 8.4 5.4 8.55 5.4 Q8.6 5.55 8.85 5.55 L9.2 5.2 9.55 4.85 9.55 4.75 9.55 4.6 9.45 4.7 9.25 4.7 Q8.95 4.7 8.95 4.4 L8.95 4.35 8.7 4.4 8.5 4.4 8.4 4.0 8.4 3.9 8.6 3.75 8.35 3.5 8.2 3.55 8.05 3.65 7.8 3.7 7.75 3.75 7.55 3.7 7.5 3.55 7.05 3.35 6.85 3.5 6.9 3.35 6.9 3.3 6.55 3.15 6.2 3.45 6.05 3.35 6.0 3.25 5.95 3.25 5.95 3.1 Q5.95 2.5 5.5 2.9 L5.3 2.8 5.25 2.8 Q5.2 2.55 4.95 2.55 L4.6 2.8 4.25 2.8 4.25 2.75 4.2 2.5 3.85 2.5 3.7 2.7 3.65 2.65 3.5 2.55 3.45 2.45 3.15 2.4 3.05 2.5 2.9 2.45 3.0 2.35 Q3.05 2.0 2.65 1.95 L2.35 2.1 2.05 2.15 2.05 2.1 Q2.1 1.45 1.65 2.05 L1.45 2.3 1.25 2.4 1.3 2.3 1.3 1.95 1.1 1.9 0.9 2.15 Q0.65 1.9 0.75 1.75 L0.7 1.7 0.25 1.75 0.1 1.6 0.0 1.6 -0.05 1.6 -0.15 1.85 -0.25 1.75 Q-0.1 1.65 -0.3 1.6 L-0.4 1.6 Q-0.45 1.5 -0.6 1.5 L-0.85 1.5 -0.85 1.35 -1.3 1.35 Q-1.75 1.35 -2.2 1.7 M10.0 5.3 L9.85 4.95 9.75 5.2 9.8 5.5 9.9 5.55 9.95 5.6 10.0 5.3 M9.8 5.75 L9.85 5.7 9.8 5.65 9.75 5.65 9.8 5.75" fill="#d7d7d7" fill-rule="evenodd" stroke="none"/>
      <path d="M20.6 3.3 L20.2 3.9 19.95 4.05 Q19.4 3.7 18.9 4.2 L18.8 4.25 15.15 4.75 16.75 4.75 17.6 5.3 18.05 5.6 16.35 5.35 16.1 5.3 15.65 5.2 14.9 5.05 14.8 5.25 14.8 5.35 14.95 5.35 15.5 5.45 15.75 5.45 16.2 5.8 16.25 5.85 16.2 5.95 14.85 5.7 14.8 5.7 14.95 5.95 15.5 6.25 16.95 7.2 17.45 7.5 17.8 7.8 17.85 7.75 18.35 7.75 18.65 8.05 18.75 8.0 Q19.35 8.0 19.35 8.35 L19.35 8.4 19.4 8.4 Q20.0 8.4 20.0 8.75 L19.9 9.05 19.85 8.75 19.45 8.75 Q19.35 8.75 19.2 8.85 L19.1 9.05 18.95 9.1 19.0 8.95 19.1 8.75 18.95 8.55 18.9 8.5 18.8 8.45 18.65 8.45 18.6 8.5 18.6 8.15 18.35 8.15 18.15 8.25 17.95 8.15 17.95 8.0 17.75 8.0 17.45 8.1 17.5 8.0 Q17.5 7.6 17.0 7.65 L16.9 7.7 16.6 7.4 16.6 7.25 16.25 6.95 15.85 7.15 15.75 6.95 Q15.55 6.55 15.25 6.55 14.9 6.55 14.75 6.7 L14.75 6.6 14.55 6.4 14.35 6.35 14.05 6.55 13.85 6.35 13.9 6.25 Q13.9 5.8 13.55 5.95 13.35 6.0 13.25 6.15 L13.1 6.1 13.0 6.1 Q12.95 5.75 12.6 5.8 L12.55 5.85 12.5 5.8 12.3 5.65 12.3 5.4 12.3 5.3 12.3 5.25 Q12.3 5.0 12.05 5.2 L11.9 5.2 11.9 5.1 11.9 4.95 12.3 4.95 12.5 4.9 12.7 4.6 12.55 4.3 12.7 4.3 12.95 4.45 13.25 4.25 13.35 4.2 Q13.65 4.2 13.75 4.0 L13.75 4.1 Q13.8 4.45 14.0 4.4 14.45 4.25 14.4 3.85 L14.45 3.7 14.55 3.7 14.85 4.05 15.15 3.8 15.4 3.45 15.6 3.7 15.7 3.8 16.05 4.05 16.3 3.7 16.45 3.4 16.7 3.65 17.0 3.7 17.1 3.7 Q17.1 4.05 17.35 3.9 L17.8 3.6 17.9 3.35 18.2 3.45 18.4 3.3 18.7 3.35 18.75 3.3 18.8 3.35 19.1 3.55 19.35 3.2 19.45 3.25 19.95 3.4 20.25 3.3 20.3 3.15 20.35 3.05 20.5 3.25 20.6 3.3 M19.4 7.05 L19.45 7.15 19.5 7.25 19.5 7.3 16.85 5.7 17.95 5.95 18.8 6.3 19.4 7.05 M-0.85 3.2 L-0.75 3.15 -0.6 2.95 -0.55 3.05 -0.5 3.2 -0.2 3.3 0.3 3.15 0.4 3.1 0.65 3.45 0.95 3.25 1.0 3.2 1.05 3.25 1.35 3.2 1.55 3.35 1.85 3.25 1.95 3.5 2.4 3.8 2.65 3.6 2.75 3.6 3.05 3.55 3.3 3.3 Q3.2 3.5 3.45 3.6 L3.7 3.95 4.05 3.7 4.15 3.6 4.35 3.35 4.6 3.7 4.9 3.95 5.2 3.6 5.3 3.6 5.35 3.75 Q5.3 4.15 5.75 4.3 L6.0 4.0 6.0 3.9 Q6.1 4.1 6.4 4.1 L6.5 4.15 6.8 4.35 7.05 4.2 7.2 4.2 7.05 4.5 Q7.0 4.8 7.25 4.8 L7.45 4.85 7.85 4.85 7.85 5.0 7.85 5.1 7.7 5.1 Q7.45 4.9 7.45 5.15 L7.45 5.2 7.45 5.3 7.45 5.55 7.25 5.7 7.2 5.75 7.15 5.7 Q6.8 5.65 6.75 6.0 L6.65 6.0 6.5 6.05 6.2 5.85 Q5.85 5.7 5.85 6.15 L5.9 6.25 5.7 6.45 5.4 6.25 5.2 6.3 5.0 6.5 5.0 6.6 4.5 6.45 4.0 6.85 3.9 7.05 3.5 6.85 Q3.15 6.85 3.15 7.15 L3.15 7.3 2.85 7.6 2.75 7.55 Q2.25 7.5 2.25 7.9 L2.3 8.0 2.0 7.9 1.8 7.9 1.8 8.05 1.6 8.15 1.4 8.05 1.15 8.05 1.15 8.4 1.1 8.35 0.95 8.35 0.85 8.4 0.8 8.45 0.65 8.65 0.75 8.85 0.8 9.0 0.65 8.95 0.55 8.75 0.3 8.65 -0.1 8.65 -0.15 8.95 -0.25 8.65 Q-0.25 8.3 0.35 8.3 L0.4 8.3 0.4 8.25 Q0.4 7.9 1.0 7.9 L1.1 7.95 1.4 7.65 1.9 7.65 1.95 7.7 2.3 7.4 Q2.6 7.15 2.8 7.1 L4.25 6.15 4.8 5.85 4.95 5.6 4.9 5.6 3.55 5.85 3.5 5.75 3.55 5.7 4.0 5.35 4.25 5.35 4.8 5.25 4.95 5.25 4.95 5.15 4.85 4.95 4.1 5.1 3.65 5.2 3.4 5.25 1.7 5.5 2.15 5.2 3.0 4.65 4.6 4.65 0.95 4.15 0.85 4.1 Q0.35 3.6 -0.2 3.95 L-0.45 3.8 -0.85 3.2 M0.35 6.95 L0.95 6.2 1.8 5.85 2.9 5.6 0.25 7.2 0.25 7.15 0.3 7.05 0.35 6.95" fill="#4c2a69" fill-rule="evenodd" stroke="none"/>
      <path d="M20.2 3.9 L19.95 4.3 Q19.55 4.85 19.35 5.75 L19.3 6.25 19.35 6.5 19.35 6.6 19.4 7.05 18.8 6.3 17.95 5.95 16.85 5.7 19.5 7.3 19.75 7.5 19.8 7.55 20.25 8.15 20.0 9.0 19.9 9.05 20.0 8.75 Q20.0 8.4 19.4 8.4 L19.35 8.4 19.35 8.35 Q19.35 8.0 18.75 8.0 L18.65 8.05 18.35 7.75 17.85 7.75 17.8 7.8 17.45 7.5 16.95 7.2 15.5 6.25 14.95 5.95 14.8 5.7 14.85 5.7 16.2 5.95 16.25 5.85 16.2 5.8 15.75 5.45 15.5 5.45 14.95 5.35 14.8 5.35 14.8 5.25 14.9 5.05 15.65 5.2 16.1 5.3 16.35 5.35 18.05 5.6 17.6 5.3 16.75 4.75 15.15 4.75 18.8 4.25 18.9 4.2 Q19.4 3.7 19.95 4.05 L20.2 3.9 M17.35 6.75 L17.2 6.65 17.15 6.65 17.35 6.75 M-0.45 3.8 L-0.2 3.95 Q0.35 3.6 0.85 4.1 L0.95 4.15 4.6 4.65 3.0 4.65 2.15 5.2 1.7 5.5 3.4 5.25 3.65 5.2 4.1 5.1 4.85 4.95 4.95 5.15 4.95 5.25 4.8 5.25 4.25 5.35 4.0 5.35 3.55 5.7 3.5 5.75 3.55 5.85 4.9 5.6 4.95 5.6 4.8 5.85 4.25 6.15 2.8 7.1 Q2.6 7.15 2.3 7.4 L1.95 7.7 1.9 7.65 1.4 7.65 1.1 7.95 1.0 7.9 Q0.4 7.9 0.4 8.25 L0.4 8.3 0.35 8.3 Q-0.25 8.3 -0.25 8.65 L-0.15 8.95 -0.25 8.9 -0.5 8.05 -0.05 7.45 0.0 7.4 0.25 7.2 2.9 5.6 1.8 5.85 0.95 6.2 0.35 6.95 0.4 6.5 0.4 6.4 0.45 6.15 0.4 5.65 Q0.2 4.75 -0.2 4.2 L-0.45 3.8 M2.55 6.55 L2.4 6.65 2.6 6.55 2.55 6.55" fill="#7950a0" fill-rule="evenodd" stroke="none"/>
    </g>
  </defs>
</svg>
