<?xml version="1.0" encoding="UTF-8" standalone="no"?>
<svg xmlns:ffdec="https://www.free-decompiler.com/flash" xmlns:xlink="http://www.w3.org/1999/xlink" ffdec:objectType="frame" height="11.35px" width="9.75px" xmlns="http://www.w3.org/2000/svg">
  <g transform="matrix(1.0, 0.0, 0.0, 1.0, 0.05, -2.45)">
    <use ffdec:characterId="3" height="11.35" transform="matrix(1.0, 0.0, 0.0, 1.0, -0.05, 2.45)" width="9.75" xlink:href="#shape0"/>
  </g>
  <defs>
    <g id="shape0" transform="matrix(1.0, 0.0, 0.0, 1.0, 0.05, -2.45)">
      <path d="M0.95 2.45 Q2.5 2.85 3.65 4.2 L4.55 5.45 7.1 8.65 9.7 11.9 8.85 13.05 Q7.3 14.5 4.8 13.0 L4.65 12.3 0.05 4.85 Q-0.25 3.3 0.25 2.7 0.55 2.4 0.95 2.45" fill="#fff2f6" fill-rule="evenodd" stroke="none"/>
      <path d="M0.0 3.4 L0.05 3.05 7.1 13.8 6.85 13.75 0.0 3.4 M1.7 2.7 L2.15 2.95 8.8 13.1 8.6 13.3 1.7 2.7 M4.65 12.3 L4.55 12.15 4.6 12.15 4.65 12.2 5.3 13.25 4.95 13.1 4.8 12.85 4.65 12.3" fill="#cb6598" fill-rule="evenodd" stroke="none"/>
      <path d="M1.85 4.85 L2.4 4.2 2.55 5.1 2.2 6.5 2.35 7.7 1.75 6.6 1.7 6.2 1.9 5.7 1.95 5.65 1.85 4.85" fill="#000000" fill-opacity="0.49803922" fill-rule="evenodd" stroke="none"/>
      <path d="M0.4 2.6 Q0.6 2.45 0.85 2.45 L7.95 13.65 Q6.6 14.1 4.8 13.0 L4.65 12.3 0.05 4.85 Q-0.25 3.3 0.25 2.7 L0.3 2.7 0.4 2.6" fill="#000000" fill-opacity="0.29803923" fill-rule="evenodd" stroke="none"/>
    </g>
  </defs>
</svg>
