<svg xmlns="http://www.w3.org/2000/svg" xmlns:ffdec="https://www.free-decompiler.com/flash" xmlns:xlink="http://www.w3.org/1999/xlink" ffdec:objectType="frame" width="32.6" height="15.15"><use ffdec:characterId="3" xlink:href="#a" width="32.6" height="15.15"/><defs><linearGradient id="b" x1="-819.2" x2="819.2" gradientTransform="matrix(.0034 -.0014 .0022 .0053 26.7 5.95)" gradientUnits="userSpaceOnUse" spreadMethod="pad"><stop offset=".008" stop-color="#f3b23a"/><stop offset=".318" stop-color="#ffdba6"/><stop offset="1" stop-color="#ad7817"/></linearGradient><linearGradient id="c" x1="-819.2" x2="819.2" gradientTransform="matrix(.0053 -.0075 .0039 .0027 21.4 .4)" gradientUnits="userSpaceOnUse" spreadMethod="pad"><stop offset=".008" stop-color="#e2d25f"/><stop offset=".184" stop-color="#fff"/><stop offset=".325" stop-color="#de9d3b"/><stop offset=".459" stop-color="#e2d25f"/><stop offset="1" stop-color="#bf7c2a"/></linearGradient><linearGradient id="d" x1="-819.2" x2="819.2" gradientTransform="matrix(.0018 -.0007 .0007 .0016 24.2 3.5)" gradientUnits="userSpaceOnUse" spreadMethod="pad"><stop offset=".008" stop-color="#f3b23a"/><stop offset="1" stop-color="#79591e"/></linearGradient><linearGradient id="e" x1="-819.2" x2="819.2" gradientTransform="matrix(.0034 -.0014 .0022 .0053 26.7 5.95)" gradientUnits="userSpaceOnUse" spreadMethod="pad"><stop offset="0" stop-color="#23032a"/><stop offset="1" stop-color="#912171"/></linearGradient><linearGradient id="f" x1="-819.2" x2="819.2" gradientTransform="rotate(-18.435 20.431 -70.366)scale(.0006)" gradientUnits="userSpaceOnUse" spreadMethod="pad"><stop offset="0" stop-color="#24072a"/><stop offset="1" stop-color="#91176e"/></linearGradient><linearGradient id="g" x1="-819.2" x2="819.2" gradientTransform="rotate(-18.435 20.431 -70.366)scale(.0006)" gradientUnits="userSpaceOnUse" spreadMethod="pad"><stop offset="0"/><stop offset="1" stop-color="#350828"/></linearGradient><linearGradient id="h" x1="-819.2" x2="819.2" gradientTransform="matrix(.0006 -.0003 .0002 .0004 23.3 2.65)" gradientUnits="userSpaceOnUse" spreadMethod="pad"><stop offset=".008" stop-color="#f3b23a"/><stop offset="1" stop-color="#79591e"/></linearGradient><linearGradient id="i" x1="-819.2" x2="819.2" gradientTransform="matrix(.0001 -.0001 .0006 .0003 20.7 3.05)" gradientUnits="userSpaceOnUse" spreadMethod="pad"><stop offset=".008" stop-color="#f3b23a"/><stop offset="1" stop-color="#79591e"/></linearGradient><linearGradient id="j" x1="-819.2" x2="819.2" gradientTransform="matrix(-.0004 -.0002 .0002 -.0006 20.95 3)" gradientUnits="userSpaceOnUse" spreadMethod="pad"><stop offset=".008" stop-color="#f3b23a"/><stop offset="1" stop-color="#79591e"/></linearGradient><linearGradient id="k" x1="-819.2" x2="819.2" gradientTransform="matrix(.0004 -.0003 .0007 .0007 20.95 3.25)" gradientUnits="userSpaceOnUse" spreadMethod="pad"><stop offset="0"/><stop offset="1" stop-color="#350828"/></linearGradient><linearGradient id="l" x1="-819.2" x2="819.2" gradientTransform="matrix(.0003 -.0001 .0001 .0003 22.2 2.2)" gradientUnits="userSpaceOnUse" spreadMethod="pad"><stop offset="0" stop-color="#24072a"/><stop offset="1" stop-color="#91176e"/></linearGradient><linearGradient id="m" x1="-819.2" x2="819.2" gradientTransform="matrix(.0034 -.0014 .0022 .0053 26.7 5.95)" gradientUnits="userSpaceOnUse" spreadMethod="pad"><stop offset="0" stop-color="#24072a"/><stop offset="1" stop-color="#91176e"/></linearGradient><linearGradient id="n" x1="-819.2" x2="819.2" gradientTransform="matrix(-.0019 .0015 -.0007 -.0009 21.35 4.25)" gradientUnits="userSpaceOnUse" spreadMethod="pad"><stop offset="0" stop-color="#24072a"/><stop offset="1" stop-color="#91176e"/></linearGradient><linearGradient id="o" x1="-819.2" x2="819.2" gradientTransform="matrix(.0002 -.0001 0 .0001 21.8 3.15)" gradientUnits="userSpaceOnUse" spreadMethod="pad"><stop offset=".008" stop-color="#f3b23a"/><stop offset="1" stop-color="#79591e"/></linearGradient><linearGradient id="p" x1="-819.2" x2="819.2" gradientTransform="matrix(.0009 -.0004 .0003 .0008 21.2 4.15)" gradientUnits="userSpaceOnUse" spreadMethod="pad"><stop offset=".008" stop-color="#f3b23a"/><stop offset="1" stop-color="#79591e"/></linearGradient><linearGradient id="q" x1="-819.2" x2="819.2" gradientTransform="matrix(-.0019 .0015 -.0007 -.0009 21.35 4.25)" gradientUnits="userSpaceOnUse" spreadMethod="pad"><stop offset="0"/><stop offset="1" stop-color="#350828"/></linearGradient><linearGradient id="r" x1="-819.2" x2="819.2" gradientTransform="matrix(.0004 -.0003 .0007 .0007 20.95 3.25)" gradientUnits="userSpaceOnUse" spreadMethod="pad"><stop offset="0" stop-color="#24072a"/><stop offset="1" stop-color="#91176e"/></linearGradient><linearGradient id="s" x1="-819.2" x2="819.2" gradientTransform="matrix(.0096 -.004 .0022 .0053 12.7 7.45)" gradientUnits="userSpaceOnUse" spreadMethod="pad"><stop offset=".008" stop-color="#20180a"/><stop offset="1" stop-color="#69490d"/></linearGradient><linearGradient id="t" x1="-819.2" x2="819.2" gradientTransform="matrix(.0096 -.004 .0022 .0053 12.7 7.45)" gradientUnits="userSpaceOnUse" spreadMethod="pad"><stop offset=".008" stop-color="#f3b23a"/><stop offset=".318" stop-color="#ffdba6"/><stop offset="1" stop-color="#ad7817"/></linearGradient><linearGradient id="u" x1="-819.2" x2="819.2" gradientTransform="matrix(.003 -.0012 .0007 .0018 20.4 5.05)" gradientUnits="userSpaceOnUse" spreadMethod="pad"><stop offset=".008" stop-color="#f3b23a"/><stop offset="1" stop-color="#79591e"/></linearGradient><linearGradient id="v" x1="-819.2" x2="819.2" gradientTransform="matrix(.0096 -.004 .0022 .0053 12.7 7.45)" gradientUnits="userSpaceOnUse" spreadMethod="pad"><stop offset="0"/><stop offset="1" stop-color="#350828"/></linearGradient><linearGradient id="x" x1="-819.2" x2="819.2" gradientTransform="matrix(.0096 -.004 .0022 .0053 12.7 7.45)" gradientUnits="userSpaceOnUse" spreadMethod="pad"><stop offset="0" stop-color="#24072a"/><stop offset="1" stop-color="#91176e"/></linearGradient><linearGradient id="y" x1="-819.2" x2="819.2" gradientTransform="matrix(.0034 -.0014 .0022 .0053 26.7 5.95)" gradientUnits="userSpaceOnUse" spreadMethod="pad"><stop offset=".008" stop-color="#85611f"/><stop offset=".318" stop-color="#9c8666"/><stop offset="1" stop-color="#724f0f"/></linearGradient><linearGradient id="A" x1="-819.2" x2="819.2" gradientTransform="matrix(.0007 -.0003 .0008 .0018 17.5 6)" gradientUnits="userSpaceOnUse" spreadMethod="pad"><stop offset=".008" stop-color="#f3b23a"/><stop offset="1" stop-color="#79591e"/></linearGradient><linearGradient id="B" x1="-819.2" x2="819.2" gradientTransform="matrix(.0022 -.0009 .0003 .0007 14.35 5.15)" gradientUnits="userSpaceOnUse" spreadMethod="pad"><stop offset=".008" stop-color="#f3b23a"/><stop offset="1" stop-color="#79591e"/></linearGradient><linearGradient id="C" x1="-819.2" x2="819.2" gradientTransform="matrix(.0005 -.0002 .0003 .0007 17.6 4.3)" gradientUnits="userSpaceOnUse" spreadMethod="pad"><stop offset=".008" stop-color="#f3b23a"/><stop offset="1" stop-color="#79591e"/></linearGradient><linearGradient id="D" x1="-819.2" x2="819.2" gradientTransform="matrix(.0027 -.0011 .0004 .001 17.8 4.5)" gradientUnits="userSpaceOnUse" spreadMethod="pad"><stop offset="0"/><stop offset="1" stop-color="#350828"/></linearGradient><linearGradient id="E" x1="-819.2" x2="819.2" gradientTransform="matrix(.0006 -.0002 .0004 .0009 17.55 5.7)" gradientUnits="userSpaceOnUse" spreadMethod="pad"><stop offset=".008" stop-color="#f3b23a"/><stop offset="1" stop-color="#79591e"/></linearGradient><linearGradient id="F" x1="-819.2" x2="819.2" gradientTransform="matrix(.0037 -.0003 .0001 .0012 17.2 5.55)" gradientUnits="userSpaceOnUse" spreadMethod="pad"><stop offset="0"/><stop offset="1" stop-color="#350828"/></linearGradient><linearGradient id="G" x1="-819.2" x2="819.2" gradientTransform="matrix(.0037 -.0003 .0001 .0012 17.2 5.55)" gradientUnits="userSpaceOnUse" spreadMethod="pad"><stop offset="0" stop-color="#24072a"/><stop offset="1" stop-color="#91176e"/></linearGradient><linearGradient id="H" x1="-819.2" x2="819.2" gradientTransform="matrix(.0002 -.0001 .0003 .0007 18.05 4.1)" gradientUnits="userSpaceOnUse" spreadMethod="pad"><stop offset=".008" stop-color="#f3b23a"/><stop offset="1" stop-color="#79591e"/></linearGradient><linearGradient id="I" x1="-819.2" x2="819.2" gradientTransform="matrix(.0027 -.0011 .0004 .001 17.8 4.5)" gradientUnits="userSpaceOnUse" spreadMethod="pad"><stop offset="0" stop-color="#24072a"/><stop offset="1" stop-color="#91176e"/></linearGradient><linearGradient id="J" x1="-819.2" x2="819.2" gradientTransform="rotate(-23.962 21.745 -41.552)scale(.001)" gradientUnits="userSpaceOnUse" spreadMethod="pad"><stop offset=".008" stop-color="#f3b23a"/><stop offset="1" stop-color="#79591e"/></linearGradient><linearGradient id="L" x1="-819.2" x2="819.2" gradientTransform="matrix(.0031 -.0013 .0008 .002 14.85 2.4)" gradientUnits="userSpaceOnUse" spreadMethod="pad"><stop offset=".008" stop-color="#f3b23a"/><stop offset="1" stop-color="#79591e"/></linearGradient><linearGradient id="Q" x1="-819.2" x2="819.2" gradientTransform="matrix(.0019 -.0012 .0008 .0013 4.25 7.05)" gradientUnits="userSpaceOnUse" spreadMethod="pad"><stop offset=".008" stop-color="#e2d25f"/><stop offset=".184" stop-color="#fff"/><stop offset=".325" stop-color="#de9d3b"/><stop offset=".459" stop-color="#e2d25f"/><stop offset="1" stop-color="#bf7c2a"/></linearGradient><linearGradient id="R" x1="-819.2" x2="819.2" gradientTransform="matrix(.0019 -.0012 .0008 .0013 4.25 7.05)" gradientUnits="userSpaceOnUse" spreadMethod="pad"><stop offset=".008" stop-color="#8c802d"/><stop offset="1" stop-color="#724918"/></linearGradient><linearGradient id="S" x1="-819.2" x2="819.2" gradientTransform="matrix(.0008 -.0005 .0008 .0013 3.5 7.85)" gradientUnits="userSpaceOnUse" spreadMethod="pad"><stop offset=".008" stop-color="#8c802d"/><stop offset="1" stop-color="#724918"/></linearGradient><radialGradient id="w" cx="0" cy="0" r="819.2" gradientTransform="rotate(-22.306 31.955 -58.513)scale(.0084)" gradientUnits="userSpaceOnUse" spreadMethod="pad"><stop offset="0" stop-color="#38222a"/><stop offset="1" stop-color="#480a36"/></radialGradient><radialGradient id="z" cx="0" cy="0" r="819.2" gradientTransform="rotate(-22.306 31.955 -58.513)scale(.0084)" gradientUnits="userSpaceOnUse" spreadMethod="pad"><stop offset="0" stop-color="#bb5c7f"/><stop offset="1" stop-color="#74275e"/></radialGradient><radialGradient id="K" cx="0" cy="0" r="819.2" gradientTransform="rotate(-22.751 29.094 -30.865)scale(.0067)" gradientUnits="userSpaceOnUse" spreadMethod="pad"><stop offset="0" stop-color="#bb5c7f"/><stop offset="1" stop-color="#74275e"/></radialGradient><radialGradient id="M" cx="0" cy="0" r="819.2" gradientTransform="rotate(-22.38 8.657 -40.441)scale(.0018)" gradientUnits="userSpaceOnUse" spreadMethod="pad"><stop offset=".008" stop-color="#e2d25f"/><stop offset=".184" stop-color="#fff"/><stop offset=".325" stop-color="#de9d3b"/><stop offset=".459" stop-color="#e2d25f"/><stop offset="1" stop-color="#bf7c2a"/></radialGradient><radialGradient id="N" cx="0" cy="0" r="819.2" gradientTransform="translate(4.2 4.7)scale(.007)" gradientUnits="userSpaceOnUse" spreadMethod="pad"><stop offset="0" stop-color="#d9d9d9"/><stop offset="1" stop-color="#fcfcfc"/></radialGradient><radialGradient id="O" cx="0" cy="0" r="819.2" gradientTransform="translate(4.2 4.7)scale(.007)" gradientUnits="userSpaceOnUse" spreadMethod="pad"><stop offset=".008" stop-color="#959595"/><stop offset="1" stop-color="#c2c2c2"/></radialGradient><radialGradient id="P" cx="0" cy="0" r="819.2" gradientTransform="matrix(.42 0 0 .42 2.3 4.75)" gradientUnits="userSpaceOnUse" spreadMethod="pad"><stop offset=".008" stop-color="#959595"/><stop offset="1" stop-color="#c2c2c2"/></radialGradient><radialGradient id="T" cx="0" cy="0" r="819.2" gradientTransform="translate(6.05 11.35)scale(.007)" gradientUnits="userSpaceOnUse" spreadMethod="pad"><stop offset="0" stop-color="#100e35"/><stop offset="1"/></radialGradient><radialGradient id="U" cx="0" cy="0" r="819.2" gradientTransform="translate(6.05 11.35)scale(.007)" gradientUnits="userSpaceOnUse" spreadMethod="pad"><stop offset="0" stop-color="#3e2051"/><stop offset=".702" stop-color="#230631"/><stop offset="1"/></radialGradient><g id="a" fill-rule="evenodd"><path fill="url(#b)" d="m31.3 9.1-.2-.15q-3.4-3.3-6.05-4.2l-1.85-.2-.15.05-.05-.2.1-.1 1-.05.95.2q2.6.85 6.25 4.65" transform="translate(1.3 1.2)"/><path fill="url(#c)" d="m12.4 5.5-.05-.05-.2-.1.8-.25.65-.3.65-.35q2.25-1.3 2.5-2.4.3-1.45-.15-2.2l3.1 1 .4.15 1.45.5.25.5.25.5.5-.15.45-.15.15.1.7.25h-1l-.15-.05v.05l.1.1.05.1.35.3.8.05h.65l1.5.95-.6.05-.1-.05q-1.2-.15-2.15-.65l-1.1-.6.1.15V3l.1.05.15.2v.1l.15.2.1.25.2.6.05.4-.15.75-1.8-.4-.8-.5-.95-.75.1.8v.1q-.1 1.15-.9 2.4L16.7 5.4l-.45-.7q-2.6.95-3.85.75zm9.1-2.15-.05-.15-1.1-.65v.05l.4.95.1.05v.05H21l.45.2V3.4zm.5-.25v-.15l-.4.15.1.2v.05l.05.15.1.95.05.05-1.45-.8-.3.25.15.1q.4.45 1.2.65l.2.05.55.05-.1-1.15zM17.6 5l.1.1.1.05.2.2.25-.55.15-.15.1-.1-.7-.9-.05-.05-.3 1.25zm.65 1.1-.85-.8-.2-.35-.45.1.1.2.15.15.25.35 1.05.95q.95-.95 1-1.9l-.05-.15-.05-.25-.4.1-.05.15v.2q-.05.8-.5 1.25" transform="translate(1.3 1.2)"/><path fill="url(#d)" d="m26.15 4.05.05.15-.3.05L24.15 4q-1.05-.35-1.75-.95L22.3 3v-.05l-.1-.15 1.1.6q.95.5 2.15.65l.1.05z" transform="translate(1.3 1.2)"/><path fill="url(#e)" d="m25.9 4.25.2.15-1.05.05-.35-.1-.6-.1q-.35-.2-.65-.3l-.9-.6v-.1l-.15-.2q.7.6 1.75.95z" transform="translate(1.3 1.2)"/><path fill="url(#f)" d="M23.45 2.8h.1l.45.3-.8-.05-.35-.3H23z" transform="translate(1.3 1.2)"/><path fill="url(#g)" d="m23.2 2.65.25.15-.45-.05h-.15l-.05-.1z" transform="translate(1.3 1.2)"/><path fill="url(#h)" d="m23.85 2.55.15.25-.8-.15h-.4l-.1-.1V2.5l.15.05h1" transform="translate(1.3 1.2)"/><path fill="url(#i)" d="m20.35 2.6.3.35.2.65-.1-.05z" transform="translate(1.3 1.2)"/><path fill="url(#j)" d="M20.35 2.6v-.05l1.1.65.05.15-.6-.3-.25-.1z" transform="translate(1.3 1.2)"/><path fill="url(#k)" d="m20.65 2.95.25.1.6.3-.05.05-.55-.25.1.5h-.15V3.6z" transform="translate(1.3 1.2)"/><path fill="url(#l)" d="m21.8 2 .65.25.1.1-.5.15z" transform="translate(1.3 1.2)"/><path fill="url(#m)" d="M26.1 4.4q3.4 2.15 5.2 4.7-3.65-3.8-6.25-4.65zm-2-.15-1 .05-.1.1-.2-.6-.1-.25-.15-.2.9.6q.3.1.65.3" transform="translate(1.3 1.2)"/><path fill="url(#n)" d="m21.7 3.3.3-.2.15.55.1 1.15-.55-.05-.2-.05q-.8-.2-1.2-.65l.1-.05.1.15q.65.45 1.45.55l.05-.15v-.6l-.15-.25-.1-.2-.05-.15z" transform="translate(1.3 1.2)"/><path fill="url(#o)" d="m22 3.1-.3.2-.1-.2.4-.15z" transform="translate(1.3 1.2)"/><path fill="url(#p)" d="m21.75 3.5.1.2.15.25v.6l-.95-.2-.4-.2L20.5 4h-.1l-.1.05-.15-.1.3-.25 1.45.8-.05-.05z" transform="translate(1.3 1.2)"/><path fill="url(#q)" d="M22 3.95v.6l-.05.15q-.8-.1-1.45-.55L20.4 4h.1l.15.15.4.2.95.2z" transform="translate(1.3 1.2)"/><path fill="url(#r)" d="M21.45 3.4v.45l-.45-.2-.1-.5z" transform="translate(1.3 1.2)"/><path fill="url(#s)" d="m20.8 5.35.15-.15.1.05-.1.15z" transform="translate(1.3 1.2)"/><path fill="url(#t)" d="m9.85 10.1-.05-.15-.15-.3q.45-1.85 1.85-2.8 1.05-.65 2.05-.75-2.5.75-3.35 2.7zm-.25-.45L8.65 8.6Q6.6 6.9 3.25 6.8l-.1-.3 1.9.15q3.3.8 4.6 3zm11.2-4.3.15.05q-1.15 1.25-1.45 3l-.05 1.05-.1-.15.15.3v.1l-.05.05q-1.4-3-3.7-3.6l-2.2-.05 3.3.15h.05l1.2.95.7 1.05.55 1.05v-.85q0-2 1.45-3.1" transform="translate(1.3 1.2)"/><path fill="url(#u)" d="m23 4.4.05.2q.15.6-.1 1.15l-1.9-.5-.1-.05-.6-.3-.9-.75q.3 1.1-.3 2.2l-.6.9V7.2q.8-1.25.9-2.4v-.1l-.1-.8.95.75.8.5 1.8.4.15-.75z" transform="translate(1.3 1.2)"/><path fill="url(#v)" d="M12.35 5.7h.05l.3-.05q1.7.15 3.7-.65l.3.7 1.85 1.55.6-.9q.6-1.1.3-2.2l.9.75.6.3-.15.15-.4-.2-.7-.55q.2 1.05-.4 2.05l-.65.9-.55-.35-1.2-.95h-.05l-.6-.85-3.1.45z" transform="translate(1.3 1.2)"/><path fill="url(#w)" d="m23.05 4.6.15-.05v.65l-.15.8-2.1-.6.1-.15 1.9.5q.25-.55.1-1.15" transform="translate(1.3 1.2)"/><path fill="url(#x)" d="m9.8 9.95-.2-.3h.05q-1.3-2.2-4.6-3l-1.9-.15-.05-.15 4.3.15q2.75-.1 4.95-.8l.8.15 3.1-.45.6.85-3.3-.15q-1 .1-2.05.75-1.4.95-1.85 2.8zm8.3-2.75.55.35.65-.9q.6-1 .4-2.05l.7.55.4.2q-1.45 1.1-1.45 3.1v.85l-.55-1.05zm1.4 2.4-.15-.3.1.15z" transform="translate(1.3 1.2)"/><path fill="url(#y)" d="m25.05 4.45-.95-.2.6.1z" transform="translate(1.3 1.2)"/><path fill="url(#z)" d="M31.1 8.95q-1.65-.95-3.95-1.5-4.65-.95-7.5 2.35l-.1.05h-.1v-.1l.05-.05v-.1l-.05-.15.05-1.05q.3-1.75 1.45-3l2.1.6.15-.8v-.65l1.85.2q2.65.9 6.05 4.2" transform="translate(1.3 1.2)"/><path fill="url(#A)" d="M18.55 7.25 16.7 5.7l-.3-.7-.15-.3.45.7 1.85 1.8z" transform="translate(1.3 1.2)"/><path fill="url(#B)" d="m12.7 5.65-.15-.05-.15-.1v-.05q1.25.2 3.85-.75l.15.3q-2 .8-3.7.65" transform="translate(1.3 1.2)"/><path fill="url(#C)" d="M17.8 3.95 17.6 5l-.15-.15.3-1.25.05.05z" transform="translate(1.3 1.2)"/><path fill="url(#D)" d="m17.7 5.1-.1-.1.2-1.05.6.7-.15.15-.4-.55z" transform="translate(1.3 1.2)"/><path fill="url(#E)" d="m18.2 6.25-1-.85-.1-.2h-.05l-.2.05-.1-.2.45-.1.2.35.85.8z" transform="translate(1.3 1.2)"/><path fill="url(#F)" d="m16.85 5.25.2-.05h.05l.1.2 1 .85.45-.55.15-.8-.05-.25h.5l.05.15-.35.05-.35 1.3-.4.3q-.6-.15-1.05-.95v-.15L17 5.4z" transform="translate(1.3 1.2)"/><path fill="url(#G)" d="m17 5.4.15-.05v.15q.45.8 1.05.95l.4-.3.35-1.3.35-.05q-.05.95-1 1.9l-1.05-.95z" transform="translate(1.3 1.2)"/><path fill="url(#H)" d="m18.4 4.65-.6-.7v-.3l.7.9z" transform="translate(1.3 1.2)"/><path fill="url(#I)" d="m17.7 5.1.15-.85.4.55-.25.55-.2-.2z" transform="translate(1.3 1.2)"/><path fill="url(#J)" d="m18.2 6.25.05-.15q.45-.45.5-1.25v-.2l.05.25-.15.8zm1.05-1.6h-.5l.05-.15.4-.1z" transform="translate(1.3 1.2)"/><path fill="url(#K)" d="M19.45 9.8q-1.45-.95-3.4-1.45-4-.9-6.1 1.95l-.1-.2.35-1.3q.85-1.95 3.35-2.7l2.2.05q2.3.6 3.7 3.6z" transform="translate(1.3 1.2)"/><path fill="url(#L)" d="M14.25 4.45q1.7-1.1 2.1-2.3.5-1.35.25-2.3.45.75.15 2.2-.25 1.1-2.5 2.4" transform="translate(1.3 1.2)"/><path fill="#6d2650" d="m17.8.9-.75-.2.2-.3.05-.05z"/><path fill="#aa2072" d="m16.9 0 .7.15-.3.2-.05.05z"/><path fill="#5b1e43" d="m17.6.15.25.75h-.05l-.5-.55z"/><path fill="#cb6ea5" d="M17.05.7 16.9 0l.35.4z"/><path fill="#8c6722" d="m17.55.6-.05.2-.35.05h-.05l.15-.1h.25l.05-.3.25-.25zm.55.7.1.05.35-.05-.3.1z"/><path fill="#f7d698" d="m17.85.35-.25.3-.05-.05.25-.25zm.9.8-.4.1.35-.1z"/><path fill="url(#M)" d="m16.25-.6.05.05.25-.3q.05.5.4.65l.45.15-.35.1.4-.1v.1h-.1l-.1.05-.35.05-.1-.05v.15l-.2.15-.15.1.1-.25V.1q-.2-.5-.7-.45l.35-.05zl.25-.4h.05l-.05.1-.05.05h.05z" transform="translate(1.3 1.2)"/><path fill="#b4b4b4" d="m6.5 3.95-.15.15v-.05l.1-.2zm-1 .1q0-.1.15-.1l.1.15-.05.15-.05.05-.1-.1zm.6.1L5.95 4q0-.2.15-.2l.1.15zm-2.8.75v.15h-.1l-.1-.2.1-.1zm-.5-.15.1.15.05.15-.1.05q-.15 0-.15-.25zm-.2.7-.15-.1v-.2h.1l.15.2zm-.2.3.2.2-.1.1-.2-.15v-.15zm-.15.75-.15.1-.25-.15V6.3h.1l.2.1zm-.4.35h-.2L1.4 6.7v-.1h.15l.25.05.1.1v.05zm-.35.1-.1.1-.1.05L1 7l-.1-.1v-.15H1l.35.1zM5.35 4.6l-.05.1-.1.1-.15-.25.1-.2.15.1zm-.75.25.2.2-.15.25-.15-.15v-.3zm-.5.55-.15.15-.15-.25q0-.2.15-.15zM1.15 7.3l-.05.1q-.5 0-.6-.2 0-.1.2-.1l.25.05zm-.85.45.2-.15.4.15-.35.1z"/><path d="M7.4 8.75v.1l.1.15h-.25L6.2 8.9l-1.05-.4-.35.75-.45.5-.15-.2.45-.45q.35-.35.25-.8l-.1-.35.05.05.85.5z"/><path fill="url(#N)" d="m3.1 3.5.15-.25.25.4.05.1q0-.8.3-.85h.05l.15.15.15-.55.1-.05.2.25.05-.15.4-.05.05.1.05-.1.2-.1.15.05.05.05-.05.05-.4.65q-.45.55-.45 1.35l.1.25.1.65q-.25.4-.25.85l.05.25H4.5L4 6.4l-.15-.05-.1-.05-.4-1.05-.2-1.2zM1.5 7l-2-.25-.7.05-.1-.2q0-.35.55-.35l-.25-.3q0-.3.5-.2-.2-.2 0-.25l.45.05V5.4l.3-.2.1.05v-.1L.3 5.1l.05-.05q0-.1.25-.1h.15l.1.05.8.55.45.35L.85 4.75v-.2l.2-.2h.05l-.1-.3-.05-.15.15-.2.15.15v-.4l.2-.15.2.1.1-.1q.2-.25.55.6l.2-.25q.3 0 .4.5l.05.2v-.2l.15.55.65 1.6-.4-.2-.2-.1-.3-.2v.9l-.05.25-.1.2-.15-.1L2 6.9zM2 3.7l-.1-.15-.1.1.1.2H2zm2.8-.75.1-.2-.1-.15q-.15 0-.15.2zm-.6-.1.05.15.1.1.05-.05.05-.15-.1-.15q-.15 0-.15.1m1-.1-.05-.1-.1.2v.05zm-3.6.9.05.1V3.7zM.6 5.6v-.05l-.1-.1-.25-.05H.1v.1l.25.15H.6zm.35-.3-.1-.1-.2-.1h-.1v.15l.25.15zm.15-.75H1v.15l.2.15.1-.1zm.2-.3.1-.1-.15-.2h-.1v.2zm.2-.7-.1.1q0 .25.15.25l.1-.05-.05-.15zM.2 5.75l-.15-.1-.35-.1h-.1v.15l.1.1.3.1.1-.05zM4.05 3.4 4 3.25l-.15-.1-.1.2.15.25.1-.1zm-.8.05V3.4l-.05.05zm.05.2h-.1v.3l.15.15.15-.25zm-.5.55-.15-.25q-.15-.05-.15.15l.15.25zM-1 6.55l.25.1.35-.1-.4-.15zm.85-.45-.2-.15-.25-.05q-.2 0-.2.1.1.2.6.2z" transform="translate(1.3 1.2)"/><path fill="url(#O)" d="M.85 5H.9l-.05-.25L2.1 5.9l-.45-.35zm2.1-.85.15-.65.05.55.2 1.2.4 1.05-.65-1.6zm.2-.1-.05-.1h-.05v.2l.05.05v-.05z" transform="translate(1.3 1.2)"/><path fill="url(#P)" d="m3.15 4.05-.05.1v.05l-.05-.05v-.2h.05z" transform="translate(1.3 1.2)"/><path fill="url(#Q)" d="M4.9 5.25v-.1q.25 1.3.9 2l.25.2H6L4.15 7l-.8-.4.05.05h-.05q.25.6-.25 1.2l-.2.3-.15.15-.05-.05Q2.2 7.35 1.5 7h.45l.65.25.1-.1.1-.2.05-.25v-.9l.3.2.2.1.4.2.1.05.15.05.5.15.15.05q0-.8.25-1.35" transform="translate(1.3 1.2)"/><path fill="url(#R)" d="m4.75 5.45.15-.2q-.25.55-.25 1.35l-.15-.05h.05L4.5 6.3q0-.45.25-.85m1.3 1.9v.15l.05.05-1.7-.25-.85-.5-.05-.05-.1-.1-.05-.05.8.4L6 7.35zM1.5 7l.5-.1.55.15.15.1-.1.1L1.95 7z" transform="translate(1.3 1.2)"/><path fill="url(#S)" d="m2.9 8.35-.15-.05.15-.15.2-.3q.5-.6.25-1.2h.05l.1.1.1.35q.1.45-.25.8z" transform="translate(1.3 1.2)"/><path fill="url(#T)" d="m6.35 13.8-.2-.25-.55-.1-.1-.7q1.25-.55 2.4-.55l.45.05.25.05-1 .7-.8.3 1.1-.05-1.15.45z" transform="translate(1.3 1.2)"/><path fill="url(#U)" d="m6.2 7.8.3.45 1.2 1.9.7 1.6.8.95.05.2-.05.15-.1.1q-.3.15-.3.25-.75.55-1.8.55l-.65-.15.4-.1 1.15-.45-1.1.05.8-.3 1-.7-.25-.05-.45-.05q-1.15 0-2.4.55l-.3-.6-.7-1.1q-.95-1.2-1.45-2.5l.45-.5.35-.75 1.05.4 1.05.1z" transform="translate(1.3 1.2)"/></g></defs></svg>