<svg xmlns="http://www.w3.org/2000/svg" xmlns:ffdec="https://www.free-decompiler.com/flash" xmlns:xlink="http://www.w3.org/1999/xlink" ffdec:objectType="frame" width="11.65" height="12.2"><use ffdec:characterId="5" xlink:href="#a" width="11.65" height="12.2"/><defs><g id="a" fill-rule="evenodd"><path fill="#d0f1ff" d="m3.65 7.2-.15-.35q0-2.15 1.8-2.05 1.75.1 1.75 1.05l.25.25 1.6 2.05q1.6 1.95 1.65 2.55.05.55-.65 1-.25.1-.45.25Q7.95 10.35 7 8.4z"/><path fill="#8cdfff" d="M3.65 7.2 7 8.4q.95 1.95 2.45 3.55l-.85.15-.85.1q-2.05 0-4.1-5"/><path fill="#e5e5e5" d="m9.65 3.8.05.05.6.5.3.3 1.05.95-2.7 2.65-.35.3q-1.8 1.5-5.1 2.15l-.75-1.05v-.1L2.5 9.3l-.45-.65.5-.3.15-.1-.2-.35-.9-1.75L.8 4.4Q0 2.6 0 1.45L.1.6.5.25.9.1l.75-.1h.05l.65.2.4.15.4.15.2.05L2.25 0Q5.55 1.5 7 2.7l2 1.45.3.05z"/><path fill-opacity=".498" d="m8.4 4.7.3.35-.2.25-.2.1.3-.2-.25.05-.3-.3q-1.95-1.9-4.4-3.6L2.35.2l.4.15L6.6 3.2zm1.8-.15.1-.2.3.3q-.9 1.5-2.5 2.55l-.35.25q-2.3 1.35-5 2.1L2.5 9.3 5 8.35 7.35 7.1Q9.05 6 10.2 4.55m-7.15.9L1.65 3Q.85 1.8.5.25L.9.1q.9 3.15 3.05 5.8l1.1 1.05-.6.4z"/><path fill-opacity=".298" d="m9.65 3.8.05.05-1 1.2-.3-.35.6-.55.3.05zm-5.2-.05L6.3 6.1l1-.6.75-.55.3.3.25-.05-.3.2.2-.1-1.65 1.35.5.45.1-.1.4.4-.1.05 1.2.8-.35.3q-1.8 1.5-5.1 2.15l-.75-1.05v-.1L2.5 9.3l-.45-.65.5-.3.15-.1-.2-.35-.9-1.75L.8 4.4Q0 2.6 0 1.45L.1.6.5.25.9.1l.75-.1zm3.9 1.5-.45.05h.5z"/></g></defs></svg>