<?xml version="1.0" encoding="UTF-8" standalone="no"?>
<svg xmlns:ffdec="https://www.free-decompiler.com/flash" xmlns:xlink="http://www.w3.org/1999/xlink" ffdec:objectType="frame" height="33.2px" width="27.8px" xmlns="http://www.w3.org/2000/svg">
  <g transform="matrix(1.0, 0.0, 0.0, 1.0, 4.5, -0.65)">
    <use ffdec:characterId="3" height="33.2" transform="matrix(1.0, 0.0, 0.0, 1.0, -4.5, 0.65)" width="27.8" xlink:href="#shape0"/>
  </g>
  <defs>
    <g id="shape0" transform="matrix(1.0, 0.0, 0.0, 1.0, 4.5, -0.65)">
      <path d="M19.05 14.15 L18.95 13.8 Q18.95 13.05 20.2 13.05 21.4 13.05 21.4 13.75 L21.4 13.9 Q21.3 13.45 20.25 13.5 L19.45 13.65 19.25 13.75 19.05 14.05 19.05 14.15 M22.6 18.3 L22.5 18.35 21.8 18.35 22.2 19.55 22.25 20.75 22.15 21.1 21.95 21.15 19.95 21.15 19.85 20.85 21.25 20.95 21.7 20.85 Q21.25 20.8 21.0 20.35 L20.8 19.8 20.85 19.5 21.35 18.85 21.5 18.8 Q21.25 18.55 20.0 18.45 L19.65 18.45 19.0 18.45 18.95 18.3 21.45 18.4 21.8 18.35 22.6 18.3 M23.05 30.5 L23.3 31.0 23.2 31.5 23.2 31.55 23.1 31.75 22.8 32.3 22.8 32.35 22.7 32.4 22.5 32.35 22.55 32.25 22.65 32.05 23.0 30.75 23.05 30.5 M21.35 33.0 L20.85 32.55 20.5 32.05 20.3 31.65 20.55 32.05 20.85 32.5 21.35 33.0 M18.85 17.95 L19.6 17.9 19.7 17.9 19.6 17.85 19.5 17.8 19.5 17.7 19.6 17.7 19.7 17.75 19.9 17.75 19.7 17.9 19.6 18.0 19.25 18.0 18.9 18.15 18.85 17.95 M20.9 17.7 L22.4 17.7 22.95 17.65 23.05 17.85 22.9 18.05 20.85 18.1 20.75 18.0 20.75 17.95 20.7 17.9 20.75 17.85 20.75 17.75 20.85 17.75 20.9 17.7 M20.75 31.05 L20.9 31.45 Q21.25 32.3 21.9 32.3 L22.35 31.85 22.55 31.3 22.5 31.3 22.55 31.25 22.7 31.2 22.55 31.95 22.35 32.3 22.25 32.4 21.9 32.75 Q21.4 32.7 20.9 31.8 L20.85 31.75 20.55 31.15 20.75 31.05" fill="#fecc41" fill-rule="evenodd" stroke="none"/>
      <path d="M19.05 14.15 L19.05 14.05 19.25 13.75 19.45 13.65 20.25 13.5 Q21.3 13.45 21.4 13.9 L21.4 13.95 21.4 14.05 21.35 14.0 21.35 14.05 21.3 14.15 21.2 14.3 21.1 14.3 21.05 14.35 21.0 14.35 20.85 14.25 20.55 14.2 19.55 14.25 19.5 14.4 19.35 14.35 19.3 14.35 19.3 14.3 19.05 14.15 M21.4 17.45 L22.65 17.4 22.95 17.5 23.05 17.55 23.1 17.85 23.1 18.1 22.85 18.2 22.6 18.3 21.8 18.35 21.45 18.4 18.95 18.3 18.9 18.15 19.25 18.0 19.6 18.0 19.7 17.9 19.9 17.75 19.9 17.7 19.85 17.65 19.85 17.5 21.4 17.45 M22.9 30.35 L23.05 30.5 23.0 30.75 22.65 32.05 22.55 32.25 22.5 32.35 22.7 32.4 22.8 32.35 21.95 33.15 21.35 33.0 20.85 32.5 20.55 32.05 20.3 31.65 20.15 31.3 20.55 31.15 20.85 31.75 20.9 31.8 Q21.4 32.7 21.9 32.75 L22.25 32.4 22.35 32.3 22.55 31.95 22.7 31.2 22.55 31.25 22.5 31.3 22.55 31.3 22.35 31.85 21.9 32.3 Q21.25 32.3 20.9 31.45 L20.75 31.05 20.85 31.0 20.95 30.95 21.1 31.35 21.55 31.8 21.85 32.0 21.95 32.0 22.0 32.0 22.05 31.9 22.45 31.3 22.55 31.1 22.8 30.35 22.85 30.3 22.9 30.35 M20.75 14.1 L20.95 14.15 20.65 13.85 19.95 13.75 19.9 13.75 Q19.35 13.85 19.25 14.15 L19.25 14.25 19.3 14.3 19.3 14.25 20.35 14.05 20.75 14.1 M20.9 17.7 L20.85 17.75 20.75 17.75 20.75 17.85 20.7 17.9 20.75 17.95 20.75 18.0 20.85 18.1 22.9 18.05 23.05 17.85 22.95 17.65 22.4 17.7 20.9 17.7 M19.0 18.45 L19.65 18.45 20.0 18.45 Q21.25 18.55 21.5 18.8 L21.35 18.85 20.85 19.5 20.8 19.8 21.0 20.35 Q21.25 20.8 21.7 20.85 L21.25 20.95 19.85 20.85 19.85 20.75 20.15 20.4 20.3 19.9 20.25 19.55 19.7 18.95 19.5 18.8 19.1 18.65 19.0 18.45" fill="#cc6600" fill-rule="evenodd" stroke="none"/>
      <path d="M21.4 14.05 L21.3 14.15 21.35 14.05 21.35 14.0 21.4 14.05 M20.75 14.1 L20.35 14.05 19.3 14.25 19.3 14.3 19.25 14.25 19.25 14.15 Q19.35 13.85 19.9 13.75 L19.95 13.75 20.65 13.85 20.95 14.15 20.75 14.1 M19.1 18.65 L19.5 18.8 19.7 18.95 20.25 19.55 20.3 19.9 20.15 20.4 19.85 20.75 19.85 20.7 19.4 19.45 19.35 19.45 19.1 18.65" fill="#cc9900" fill-rule="evenodd" stroke="none"/>
      <path d="M21.1 14.3 L21.4 17.45 19.85 17.5 19.85 17.65 19.9 17.7 19.9 17.75 19.7 17.75 19.6 17.7 19.3 14.35 19.35 14.35 19.5 14.4 19.45 14.4 19.5 14.55 19.45 14.6 19.5 14.6 19.6 15.8 20.1 17.15 20.05 17.3 20.7 17.3 20.7 17.2 Q20.2 16.85 20.2 15.0 20.2 14.5 20.45 14.5 L21.1 14.55 21.1 14.4 21.0 14.35 21.05 14.35 21.1 14.3 M19.6 17.9 L19.6 17.85 19.7 17.9 19.6 17.9" fill="#333333" fill-rule="evenodd" stroke="none"/>
      <path d="M10.35 24.5 L10.1 24.35 9.9 24.1 9.85 24.1 9.85 23.95 10.35 23.95 10.35 24.05 10.35 24.5 M21.0 14.35 L21.1 14.4 21.1 14.55 20.45 14.5 Q20.2 14.5 20.2 15.0 20.2 16.85 20.7 17.2 L20.7 17.3 20.05 17.3 20.1 17.15 19.6 15.8 19.5 14.6 19.45 14.6 19.5 14.55 19.45 14.4 19.5 14.4 19.55 14.25 20.55 14.2 20.85 14.25 21.0 14.35" fill="#232323" fill-rule="evenodd" stroke="none"/>
      <path d="M22.85 29.9 L22.9 30.0 22.55 30.1 20.95 30.95 20.85 31.0 20.75 31.05 20.55 31.15 20.15 31.3 17.85 32.05 16.95 32.2 15.9 32.4 15.45 32.45 15.05 32.5 13.65 32.5 Q12.85 31.25 12.2 29.85 L11.75 28.75 10.9 26.2 10.55 24.9 10.35 24.05 10.35 23.95 10.05 22.4 9.85 23.95 9.8 24.05 9.45 25.8 8.9 27.8 8.65 28.5 6.95 32.6 4.3 32.25 3.15 32.05 -0.5 31.2 -1.55 30.85 -3.55 30.1 -0.3 20.75 -0.15 20.85 1.2 21.15 0.25 23.1 0.2 23.15 0.15 23.4 Q0.45 23.5 0.9 23.75 L1.3 24.0 Q2.45 24.7 2.8 25.5 L2.95 26.1 2.55 27.05 Q1.05 30.1 -0.05 31.15 L0.65 31.35 0.9 31.35 1.5 31.4 Q1.9 31.45 2.45 30.85 L2.65 30.6 4.05 28.4 Q4.8 27.0 5.55 24.65 L6.3 21.15 9.8 21.6 10.0 21.65 10.3 21.6 10.8 21.6 16.9 21.2 18.8 21.4 Q19.65 21.4 19.85 20.85 L19.95 21.15 22.85 29.9 M-0.1 20.15 L1.2 16.4 3.35 16.4 3.0 16.7 2.7 17.25 2.5 16.9 2.35 16.75 2.35 17.0 2.25 17.45 3.85 17.7 6.8 18.3 Q6.9 17.2 7.2 17.35 L8.05 17.9 Q7.45 16.65 6.35 16.65 5.9 16.65 5.65 16.95 L5.45 17.35 4.65 16.4 18.3 16.4 18.85 17.95 18.9 18.15 18.95 18.3 19.0 18.45 19.1 18.65 19.35 19.45 10.8 19.8 10.3 19.8 10.3 18.15 10.05 17.95 Q9.6 18.35 9.6 19.5 L9.6 19.75 8.65 19.65 6.05 19.7 1.15 19.45 0.85 19.45 0.15 19.55 -0.05 20.05 -0.1 20.15 M15.9 32.4 L15.95 32.3 16.15 31.75 16.15 31.6 15.55 30.0 14.95 27.8 14.85 25.45 Q14.7 24.15 14.15 23.9 L13.85 23.85 13.45 23.9 Q13.0 24.0 12.9 24.45 L12.9 25.1 13.3 28.95 13.6 30.3 Q14.0 31.95 14.6 32.45 L15.0 32.4 15.5 32.35 15.65 32.35 15.9 32.4 M18.35 28.0 Q19.45 29.7 20.15 29.7 L20.75 29.45 20.85 29.0 20.8 28.75 20.35 26.95 Q19.75 25.15 18.75 24.95 L18.5 24.9 18.25 25.05 18.0 25.15 17.25 24.85 Q16.95 24.7 16.95 25.4 16.95 25.8 18.1 27.65 L18.35 28.0 M-1.25 26.9 L-1.35 27.15 -1.3 27.2 -1.25 26.9" fill="#333300" fill-rule="evenodd" stroke="none"/>
      <path d="M3.35 16.4 L4.05 16.25 4.65 16.4 5.45 17.35 5.65 16.95 Q5.9 16.65 6.35 16.65 7.45 16.65 8.05 17.9 L7.2 17.35 Q6.9 17.2 6.8 18.3 L3.85 17.7 2.25 17.45 2.35 17.0 2.35 16.75 2.5 16.9 2.7 17.25 3.0 16.7 3.35 16.4 M-1.25 26.9 L-1.3 27.2 -1.35 27.15 -1.25 26.9" fill="#000000" fill-opacity="0.29803923" fill-rule="evenodd" stroke="none"/>
      <path d="M-0.3 20.75 L-0.4 20.55 -0.1 20.15 -0.05 20.05 0.15 19.55 0.85 19.45 1.15 19.45 6.05 19.7 8.65 19.65 9.6 19.75 9.7 21.35 9.8 21.6 6.3 21.15 5.55 24.65 Q4.8 27.0 4.05 28.4 L2.65 30.6 2.45 30.85 Q1.9 31.45 1.5 31.4 L0.9 31.35 0.65 31.35 -0.05 31.15 Q1.05 30.1 2.55 27.05 L2.95 26.1 2.8 25.5 Q2.45 24.7 1.3 24.0 L0.9 23.75 Q0.45 23.5 0.15 23.4 L0.2 23.15 0.25 23.1 1.2 21.15 -0.15 20.85 -0.3 20.75 M19.85 20.75 L19.85 20.85 Q19.65 21.4 18.8 21.4 L16.9 21.2 10.8 21.6 10.3 21.6 10.3 19.8 10.8 19.8 19.35 19.45 19.4 19.45 19.85 20.7 19.85 20.75 M15.9 32.4 L15.65 32.35 15.5 32.35 15.0 32.4 14.6 32.45 Q14.0 31.95 13.6 30.3 L13.3 28.95 12.9 25.1 12.9 24.45 Q13.0 24.0 13.45 23.9 L13.85 23.85 14.15 23.9 Q14.7 24.15 14.85 25.45 L14.95 27.8 15.55 30.0 16.15 31.6 16.15 31.75 15.95 32.3 15.9 32.4 M18.35 28.0 L18.1 27.65 Q16.95 25.8 16.95 25.4 16.95 24.7 17.25 24.85 L18.0 25.15 18.25 25.05 18.5 24.9 18.75 24.95 Q19.75 25.15 20.35 26.95 L20.8 28.75 20.85 29.0 20.75 29.45 20.15 29.7 Q19.45 29.7 18.35 28.0" fill="#232300" fill-rule="evenodd" stroke="none"/>
      <path d="M10.3 21.6 L10.0 21.65 9.8 21.6 9.7 21.35 9.6 19.75 9.6 19.5 Q9.6 18.35 10.05 17.95 L10.3 18.15 10.3 19.8 10.3 21.6" fill="#141414" fill-rule="evenodd" stroke="none"/>
      <path d="M10.55 24.9 L10.5 24.75 10.35 24.5 10.35 24.05 10.55 24.9 M9.85 24.1 L9.8 24.05 9.85 23.95 9.85 24.1" fill="#1c1c1c" fill-rule="evenodd" stroke="none"/>
      <path d="M21.95 21.15 L22.85 29.9 19.95 21.15 21.95 21.15 M22.9 30.0 L22.9 30.25 22.9 30.35 22.85 30.3 22.8 30.35 22.55 31.1 22.45 31.3 22.05 31.9 22.0 32.0 21.95 32.0 21.85 32.0 21.55 31.8 21.1 31.35 20.95 30.95 22.55 30.1 22.9 30.0" fill="#613104" fill-rule="evenodd" stroke="none"/>
      <path d="M20.75 24.45 L20.5 24.5 20.4 24.8 20.5 25.0 20.75 25.15 21.0 25.0 21.1 24.8 21.0 24.5 20.75 24.45 M20.4 23.0 L20.3 22.8 18.9 22.75 13.7 22.55 11.45 22.35 9.85 22.2 9.85 22.15 9.95 21.95 9.85 21.65 9.55 21.5 9.3 21.65 Q9.15 21.7 9.2 21.9 L9.3 22.1 5.85 21.45 5.6 21.4 5.4 21.2 Q5.4 20.8 7.0 20.75 L7.5 20.75 7.65 20.75 9.05 20.85 13.0 20.9 16.6 20.7 18.2 20.6 19.85 20.5 20.4 23.0 M19.8 20.35 L19.7 20.1 19.75 20.1 19.8 20.35 M6.65 20.4 L6.05 20.4 3.5 20.3 6.65 20.4 M1.55 20.25 L1.4 20.25 1.15 20.2 1.55 20.25 M0.75 20.2 L0.65 20.25 0.4 20.2 0.3 20.15 0.75 20.2 M0.05 20.15 L0.1 20.2 -0.1 20.15 0.05 20.15 M-0.4 20.15 L-0.8 20.15 -0.8 20.3 5.05 21.7 5.85 21.85 5.95 21.9 9.8 22.55 10.7 22.7 11.45 22.85 12.4 22.85 12.7 22.65 12.8 22.75 12.9 22.8 12.8 22.95 12.45 22.9 11.1 22.9 Q10.25 23.3 10.25 23.85 L10.3 24.1 10.45 24.5 10.7 24.8 10.9 24.95 11.0 25.0 11.4 25.2 11.75 25.3 Q12.2 25.4 12.2 25.6 L12.2 25.65 Q4.65 24.7 -1.7 23.1 L-0.8 20.1 -0.4 20.15 M12.7 25.7 L12.75 25.4 Q12.75 25.1 11.7 24.8 L11.55 24.75 11.3 24.6 10.8 24.2 10.8 23.8 11.2 23.45 Q11.55 23.3 12.5 23.45 13.4 23.5 13.2 22.95 L19.35 23.3 22.9 23.35 22.8 23.1 22.85 23.1 22.9 23.35 23.25 26.5 17.2 26.0 17.2 25.9 14.8 25.75 14.7 25.75 14.55 25.75 14.45 25.75 14.2 25.8 14.25 25.85 12.7 25.7 M20.85 23.05 L20.65 23.1 20.45 23.05 20.85 23.05 M17.15 26.15 Q17.4 29.55 18.4 31.65 19.45 33.75 18.1 33.8 L17.6 33.75 16.4 33.05 15.8 32.3 15.2 31.25 Q14.65 30.15 14.35 26.5 L14.4 26.75 14.55 28.1 14.6 27.95 14.85 27.35 14.85 27.5 Q14.85 29.2 15.5 30.75 16.25 32.65 17.65 33.25 L18.15 33.25 Q18.55 33.05 18.55 32.55 L18.45 32.25 18.1 32.85 18.05 32.85 17.65 32.85 Q16.65 32.65 15.7 30.75 L15.45 29.8 15.25 28.7 15.25 28.55 15.25 26.85 Q15.25 26.55 16.0 26.45 16.75 26.4 16.75 27.1 L16.75 27.3 16.75 27.65 16.85 28.25 17.1 29.4 17.15 29.4 17.15 29.35 17.2 29.0 17.15 28.7 17.15 28.65 17.1 28.35 17.1 28.2 17.05 27.4 17.0 27.0 17.2 27.2 17.15 26.35 17.15 26.15 M0.65 20.35 L0.7 20.4 0.6 20.35 0.65 20.35 M8.55 23.95 L8.8 24.1 9.05 23.95 9.15 23.75 9.05 23.45 8.8 23.4 8.55 23.45 8.45 23.75 8.55 23.95 M5.35 22.9 L5.25 23.2 5.35 23.4 5.6 23.55 5.85 23.4 5.95 23.2 5.85 22.9 5.6 22.85 5.35 22.9 M2.9 22.3 L2.65 22.35 2.6 22.45 2.55 22.65 2.65 22.85 2.9 23.0 3.15 22.85 3.25 22.65 3.2 22.45 3.15 22.35 2.9 22.3 M0.75 22.2 L0.7 21.9 0.65 21.85 0.4 21.8 0.15 21.8 0.15 21.85 0.05 22.1 0.1 22.25 0.35 22.45 0.6 22.3 0.75 22.2 M14.95 24.5 L15.05 24.7 Q15.15 24.85 15.3 24.85 L15.55 24.7 15.65 24.5 15.55 24.2 15.3 24.15 15.05 24.2 14.95 24.5 M11.65 24.2 L11.75 24.4 12.0 24.55 12.25 24.4 12.35 24.2 12.25 23.9 12.0 23.85 11.75 23.9 11.65 24.2 M12.5 21.6 L12.25 21.55 12.0 21.6 11.9 21.9 12.0 22.1 12.25 22.25 12.5 22.1 12.6 21.9 12.5 21.6 M14.95 21.5 L14.7 21.55 14.6 21.85 14.7 22.05 14.95 22.2 15.2 22.05 15.3 21.85 15.2 21.55 14.95 21.5 M19.85 21.2 L19.6 21.25 19.5 21.55 19.6 21.75 19.85 21.9 20.1 21.8 20.05 21.55 19.95 21.2 19.85 21.2 M18.1 24.35 L17.85 24.4 17.75 24.7 17.85 24.9 18.1 25.05 18.35 24.9 18.45 24.7 18.35 24.4 18.1 24.35 M17.55 21.4 L17.3 21.45 17.2 21.75 17.3 21.95 Q17.4 22.1 17.55 22.1 L17.8 21.95 17.9 21.75 17.8 21.45 17.55 21.4 M16.35 29.8 L16.25 30.1 16.35 30.3 16.6 30.45 16.85 30.3 16.95 30.1 16.85 29.8 16.6 29.75 16.35 29.8 M16.05 27.7 L15.8 27.75 15.7 28.05 15.8 28.25 Q15.9 28.4 16.05 28.4 L16.3 28.25 16.4 28.05 16.3 27.75 16.05 27.7" fill="#5b3523" fill-rule="evenodd" stroke="none"/>
      <path d="M20.4 23.0 L20.45 23.05 20.65 23.1 20.85 23.05 22.8 23.05 22.8 23.1 22.9 23.35 19.35 23.3 13.2 22.95 Q13.4 23.5 12.5 23.45 11.55 23.3 11.2 23.45 L10.8 23.8 10.8 24.2 11.3 24.6 11.55 24.75 11.7 24.8 Q12.75 25.1 12.75 25.4 L12.7 25.7 12.45 25.75 Q12.25 25.75 12.2 25.65 L12.2 25.6 Q12.2 25.4 11.75 25.3 L11.4 25.2 11.0 25.0 10.9 24.95 10.7 24.8 10.45 24.5 10.3 24.1 10.25 23.85 Q10.25 23.3 11.1 22.9 L12.45 22.9 12.8 22.95 12.9 22.8 12.8 22.75 12.7 22.65 12.4 22.85 11.45 22.85 10.7 22.7 9.8 22.55 5.95 21.9 5.85 21.85 5.05 21.7 -0.8 20.3 -0.8 20.15 -0.4 20.15 -0.1 20.15 0.1 20.2 0.05 20.15 0.3 20.15 0.4 20.2 0.65 20.25 0.75 20.2 1.0 20.15 1.15 20.2 1.4 20.25 1.55 20.25 1.65 20.15 2.5 20.25 3.5 20.3 6.05 20.4 6.65 20.4 14.25 20.4 14.4 20.4 18.4 20.2 18.8 20.2 19.7 20.05 19.7 20.1 19.8 20.35 19.85 20.45 19.9 20.5 19.85 20.5 18.2 20.6 16.6 20.7 13.0 20.9 9.05 20.85 7.65 20.75 7.5 20.75 7.0 20.75 Q5.4 20.8 5.4 21.2 L5.6 21.4 5.85 21.45 9.3 22.1 9.35 22.15 9.4 22.2 9.45 22.25 9.85 22.2 11.45 22.35 13.7 22.55 18.9 22.75 20.3 22.8 20.4 23.0 M17.2 26.0 L17.15 26.15 17.15 26.35 17.2 27.2 17.0 27.0 17.05 27.4 17.1 28.2 17.1 28.35 17.15 28.65 17.15 28.7 17.2 29.0 17.15 29.35 17.15 29.4 17.1 29.4 16.85 28.25 16.75 27.65 16.75 27.3 16.75 27.1 Q16.75 26.4 16.0 26.45 15.25 26.55 15.25 26.85 L15.25 28.55 15.25 28.7 15.45 29.8 15.7 30.75 Q16.65 32.65 17.65 32.85 L18.05 32.85 18.1 32.85 18.45 32.25 18.55 32.55 Q18.55 33.05 18.15 33.25 L17.65 33.25 Q16.25 32.65 15.5 30.75 14.85 29.2 14.85 27.5 L14.85 27.35 14.6 27.95 14.55 28.1 14.4 26.75 14.35 26.5 14.3 26.3 14.3 26.15 14.25 25.85 14.2 25.8 14.45 25.75 14.55 25.75 14.7 25.75 14.8 25.75 17.2 25.9 17.2 26.0 M0.65 20.35 L0.6 20.35 0.7 20.4 0.65 20.35" fill="#3f2518" fill-rule="evenodd" stroke="none"/>
      <path d="M20.75 24.45 L21.0 24.5 21.1 24.8 21.0 25.0 20.75 25.15 20.5 25.0 20.4 24.8 20.5 24.5 20.75 24.45 M9.85 22.2 L9.45 22.25 9.4 22.2 9.35 22.15 9.3 22.1 9.2 21.9 Q9.15 21.7 9.3 21.65 L9.55 21.5 9.85 21.65 9.95 21.95 9.85 22.15 9.85 22.2 M0.75 22.2 L0.6 22.3 0.35 22.45 0.1 22.25 0.05 22.1 0.15 21.85 0.15 21.8 0.4 21.8 0.65 21.85 0.7 21.9 0.75 22.2 M2.9 22.3 L3.15 22.35 3.2 22.45 3.25 22.65 3.15 22.85 2.9 23.0 2.65 22.85 2.55 22.65 2.6 22.45 2.65 22.35 2.9 22.3 M5.35 22.9 L5.6 22.85 5.85 22.9 5.95 23.2 5.85 23.4 5.6 23.55 5.35 23.4 5.25 23.2 5.35 22.9 M8.55 23.95 L8.45 23.75 8.55 23.45 8.8 23.4 9.05 23.45 9.15 23.75 9.05 23.95 8.8 24.1 8.55 23.95 M14.95 21.5 L15.2 21.55 15.3 21.85 15.2 22.05 14.95 22.2 14.7 22.05 14.6 21.85 14.7 21.55 14.95 21.5 M12.5 21.6 L12.6 21.9 12.5 22.1 12.25 22.25 12.0 22.1 11.9 21.9 12.0 21.6 12.25 21.55 12.5 21.6 M11.65 24.2 L11.75 23.9 12.0 23.85 12.25 23.9 12.35 24.2 12.25 24.4 12.0 24.55 11.75 24.4 11.65 24.2 M14.95 24.5 L15.05 24.2 15.3 24.15 15.55 24.2 15.65 24.5 15.55 24.7 15.3 24.85 Q15.15 24.85 15.05 24.7 L14.95 24.5 M19.85 21.2 L19.95 21.2 20.05 21.55 20.1 21.8 19.85 21.9 19.6 21.75 19.5 21.55 19.6 21.25 19.85 21.2 M17.55 21.4 L17.8 21.45 17.9 21.75 17.8 21.95 17.55 22.1 Q17.4 22.1 17.3 21.95 L17.2 21.75 17.3 21.45 17.55 21.4 M18.1 24.35 L18.35 24.4 18.45 24.7 18.35 24.9 18.1 25.05 17.85 24.9 17.75 24.7 17.85 24.4 18.1 24.35 M16.05 27.7 L16.3 27.75 16.4 28.05 16.3 28.25 16.05 28.4 Q15.9 28.4 15.8 28.25 L15.7 28.05 15.8 27.75 16.05 27.7 M16.35 29.8 L16.6 29.75 16.85 29.8 16.95 30.1 16.85 30.3 16.6 30.45 16.35 30.3 16.25 30.1 16.35 29.8" fill="#24150e" fill-rule="evenodd" stroke="none"/>
      <path d="M11.95 22.95 L11.65 23.0 11.45 23.0 11.35 23.0 Q10.45 23.15 10.35 23.8 L10.45 24.4 10.75 24.7 11.2 24.95 12.0 25.2 12.45 25.4 12.1 25.7 11.7 25.65 Q10.6 25.55 10.1 24.9 9.7 24.4 9.7 23.9 9.7 23.15 10.55 22.65 L10.95 22.5 11.0 22.45 Q12.55 22.35 12.8 22.75 L12.9 22.9 12.9 22.95 12.65 23.1 11.95 22.95 M16.15 33.0 Q15.6 32.35 15.6 31.9 15.6 31.5 16.1 31.25 L18.05 31.25 Q18.55 31.2 18.9 31.95 L19.15 32.9 Q19.15 33.85 18.1 33.85 16.9 33.85 16.15 33.0" fill="#fecc41" fill-rule="evenodd" stroke="none"/>
      <path d="M9.7 23.9 L9.75 23.6 9.95 24.2 10.1 24.25 10.25 24.2 10.2 23.85 Q10.2 23.5 10.45 23.3 10.65 23.1 11.35 22.85 L12.9 23.05 12.7 23.25 12.55 23.25 12.0 23.15 Q10.75 23.15 10.6 23.75 L10.5 24.0 10.6 24.35 10.6 24.4 11.65 25.1 12.25 25.3 12.1 25.5 11.7 25.5 10.7 25.2 10.65 25.2 10.3 24.9 Q9.7 24.3 9.7 23.9" fill="#cc6600" fill-rule="evenodd" stroke="none"/>
      <path d="M17.85 31.5 L17.85 31.55 Q16.85 31.55 16.85 32.0 L17.05 32.4 Q17.35 32.75 18.0 32.75 18.9 32.75 18.9 32.0 L19.0 32.45 18.8 33.0 18.6 33.15 18.5 33.2 Q17.4 33.2 16.95 32.8 L16.6 32.55 16.55 32.5 Q16.05 31.95 16.05 31.5 L17.85 31.5 M18.0 33.7 Q17.75 33.7 17.05 33.3 L16.35 32.75 16.45 32.65 16.7 32.95 18.4 33.4 18.45 33.4 18.5 33.45 Q18.5 33.7 18.0 33.7" fill="#cc6600" fill-rule="evenodd" stroke="none"/>
      <path d="M20.15 17.5 L20.15 17.8 Q16.85 19.1 10.1 19.05 3.35 19.0 -0.25 17.8 L-0.25 17.5 Q1.75 10.05 6.85 3.2 L13.05 3.2 Q18.15 10.05 20.15 17.5" fill="#cc9966" fill-rule="evenodd" stroke="none"/>
      <path d="M16.3 18.25 L14.65 11.65 14.7 11.65 14.1 9.85 Q13.0 6.65 11.5 3.2 L12.05 3.2 14.55 9.7 15.15 11.5 16.8 18.15 16.3 18.25 M3.2 18.2 Q3.75 15.05 4.8 11.55 L4.85 11.55 5.45 9.75 Q6.45 6.6 7.95 3.2 L8.5 3.2 Q6.95 6.7 5.9 9.9 L5.3 11.7 Q4.25 15.2 3.7 18.25 L3.2 18.2 M16.95 12.15 L16.45 12.3 15.95 12.1 15.8 11.6 16.0 11.15 Q16.25 10.9 16.5 10.9 L17.0 11.2 17.2 11.65 16.95 12.15 M3.9 12.2 Q3.65 12.4 3.4 12.4 L2.9 12.2 2.7 11.7 2.9 11.25 Q3.1 11.0 3.4 11.0 3.65 11.0 3.9 11.25 L4.1 11.7 3.9 12.2 M2.85 14.75 L2.35 14.95 Q2.05 14.95 1.85 14.75 L1.65 14.25 1.85 13.8 Q2.05 13.55 2.35 13.55 L2.85 13.8 3.05 14.25 2.85 14.75 M1.55 16.0 Q1.75 16.05 1.95 16.25 L2.15 16.7 1.95 17.2 1.55 17.4 1.45 17.4 Q1.15 17.4 0.95 17.2 L0.75 16.7 0.95 16.25 Q1.15 16.0 1.45 16.0 L1.55 16.0 M18.3 16.0 Q18.6 16.0 18.8 16.25 L18.95 16.7 18.75 17.2 18.25 17.4 17.75 17.15 17.55 16.65 Q17.55 16.4 17.8 16.2 L18.3 16.0 M17.95 13.75 L18.15 14.25 17.95 14.7 17.45 14.9 16.95 14.7 16.75 14.2 16.95 13.75 17.45 13.5 17.95 13.75" fill="#000000" fill-opacity="0.2" fill-rule="evenodd" stroke="none"/>
      <path d="M16.3 18.25 L16.8 18.15 20.2 17.5 20.2 17.8 18.65 18.3 18.05 18.45 16.05 18.75 14.7 18.95 14.05 18.95 13.6 19.0 12.3 19.05 12.2 19.05 8.4 19.1 5.1 18.85 4.9 18.85 3.4 18.65 3.0 18.65 2.2 18.45 2.05 18.45 1.55 18.3 -0.25 17.8 -0.2 17.35 2.05 17.95 3.2 18.2 3.7 18.25 6.25 18.55 9.2 18.65 9.65 18.55 9.6 18.5 9.6 3.2 10.3 3.2 10.3 18.5 11.1 18.65 13.15 18.6 16.3 18.25" fill="#000000" fill-opacity="0.29803923" fill-rule="evenodd" stroke="none"/>
      <path d="M7.45 13.95 L10.05 16.2 12.6 14.0 M7.55 9.75 L10.0 11.65 12.5 9.5 M12.6 13.25 Q11.15 12.55 10.0 11.65 L7.45 13.2 M12.5 17.7 L10.05 16.2 Q8.9 17.05 7.55 17.7" fill="none" stroke="#232323" stroke-linecap="round" stroke-linejoin="round" stroke-width="1.0"/>
      <path d="M12.2 9.0 L12.3 9.0 12.75 9.1 11.4 10.2 10.75 10.85 10.25 11.25 8.6 12.3 7.95 12.7 7.5 13.0 7.05 13.4 Q6.95 13.55 6.8 13.15 6.6 12.7 7.7 12.25 L9.65 11.05 8.6 10.2 8.5 10.1 8.4 10.05 8.2 9.85 Q7.6 9.4 7.25 9.4 L7.2 9.4 7.25 9.35 Q7.45 9.0 7.8 9.05 8.15 9.1 9.05 9.9 L10.1 10.7 10.15 10.7 10.3 10.6 11.7 9.35 12.2 9.0 M11.05 11.5 L12.5 12.4 12.9 12.65 13.05 12.95 13.1 13.35 13.1 13.4 13.05 13.4 13.0 13.35 12.8 13.15 11.95 12.55 11.25 12.15 11.05 12.1 10.45 12.6 10.0 12.2 10.45 11.85 10.65 11.75 11.05 11.5 M7.6 13.65 L8.0 13.45 9.1 14.5 10.25 15.2 11.3 14.25 12.2 13.55 12.75 13.65 12.9 13.6 12.95 13.6 13.0 13.55 13.0 13.7 13.1 13.95 13.05 14.15 12.95 14.0 12.75 13.9 12.55 13.95 10.65 15.6 10.7 15.6 10.6 15.65 10.45 15.75 7.7 17.5 Q7.2 17.7 7.1 17.9 L7.05 17.6 7.05 17.4 Q7.1 17.25 7.8 16.8 L9.85 15.55 7.6 13.65 M11.2 15.95 Q11.85 16.6 12.4 16.8 L13.25 17.2 13.4 17.55 13.15 18.1 13.05 18.0 13.15 17.85 12.7 17.5 12.0 17.25 11.45 16.9 11.05 16.75 Q10.8 16.75 10.75 16.9 L10.65 17.05 10.55 17.1 Q10.35 16.95 10.2 16.95 L10.15 16.8 10.5 16.5 10.75 16.25 10.85 16.2 11.2 15.95" fill="#000000" fill-opacity="0.29803923" fill-rule="evenodd" stroke="none"/>
      <path d="M16.8 19.65 Q16.35 19.55 16.05 19.25 15.6 18.8 15.6 18.2 15.6 17.65 16.05 17.25 16.45 16.8 17.05 16.8 17.6 16.8 18.05 17.25 18.45 17.65 18.45 18.2 18.45 18.8 18.05 19.25 L17.7 19.5 17.2 19.65 17.05 19.65 16.8 19.65 M18.95 20.4 L18.95 20.45 19.0 20.55 19.0 21.1 18.85 21.15 18.15 21.25 17.45 21.35 17.15 21.4 17.15 21.35 17.25 21.35 17.45 21.15 17.4 21.1 17.3 20.85 17.15 20.6 17.3 20.55 18.15 20.45 18.9 20.45 18.95 20.4 M16.45 21.4 L16.4 21.4 16.35 21.3 16.3 21.1 16.4 21.2 16.4 21.25 16.45 21.4 M16.25 17.6 L16.0 18.25 16.25 18.9 17.0 19.3 17.2 19.3 17.6 19.25 18.0 18.9 18.3 18.15 Q18.3 17.15 17.05 17.15 16.55 17.15 16.25 17.6 M17.65 18.4 L17.65 18.2 17.5 17.8 17.35 17.7 17.6 17.8 17.75 18.2 17.65 18.4" fill="#333333" fill-rule="evenodd" stroke="none"/>
      <path d="M16.25 17.6 Q16.55 17.15 17.05 17.15 18.3 17.15 18.3 18.15 L18.0 18.9 17.6 19.25 17.2 19.3 17.0 19.3 16.25 18.9 16.0 18.25 16.25 17.6 M17.35 17.7 L17.25 17.65 17.15 17.6 17.05 17.6 Q16.75 17.6 16.6 17.8 16.45 17.95 16.45 18.25 L16.6 18.6 Q16.8 18.8 17.05 18.8 L17.55 18.5 17.65 18.4 17.75 18.2 17.6 17.8 17.35 17.7" fill="#1c1c1c" fill-rule="evenodd" stroke="none"/>
      <path d="M16.8 19.65 L17.05 19.65 17.2 19.65 17.3 19.85 17.5 19.75 17.55 19.75 17.75 19.7 17.85 19.7 17.9 19.7 18.0 19.8 17.9 19.9 17.85 19.95 17.55 20.0 17.3 19.95 17.35 20.2 17.4 20.2 17.4 20.25 17.35 20.25 17.2 20.3 17.15 20.3 17.05 20.3 17.0 20.3 16.9 20.25 16.85 20.05 16.9 19.95 16.8 19.65" fill="#a1a1a1" fill-rule="evenodd" stroke="none"/>
      <path d="M17.2 19.65 L17.7 19.5 17.85 19.7 17.75 19.7 17.55 19.75 17.5 19.75 17.3 19.85 17.2 19.65 M17.9 19.9 L18.05 20.2 17.8 20.2 17.4 20.25 17.4 20.2 17.35 20.2 17.3 19.95 17.55 20.0 17.85 19.95 17.9 19.9 M18.85 21.15 L19.4 22.7 19.6 23.35 18.15 23.3 17.55 23.25 16.85 21.4 17.15 21.4 17.45 21.35 18.15 21.25 18.85 21.15 M18.95 27.3 L18.45 26.1 20.45 26.3 20.8 27.3 Q21.4 29.3 20.65 29.4 19.95 29.5 18.95 27.3" fill="#f2f2f2" fill-rule="evenodd" stroke="none"/>
      <path d="M18.05 20.2 L18.8 20.1 18.95 20.4 18.9 20.45 18.15 20.45 17.3 20.55 17.15 20.6 17.3 20.85 17.4 21.1 17.45 21.15 17.25 21.35 17.15 21.35 17.15 21.4 16.85 21.4 16.8 21.4 16.6 21.5 16.45 21.4 16.4 21.25 16.4 21.2 16.3 21.1 16.15 20.75 16.15 20.45 16.3 20.3 16.45 20.3 17.0 20.3 17.05 20.3 17.15 20.3 17.2 20.3 17.35 20.25 17.4 20.25 17.8 20.2 18.05 20.2" fill="#232323" fill-rule="evenodd" stroke="none"/>
      <path d="M18.8 27.75 L18.3 26.5 18.2 26.05 18.3 26.05 19.05 26.15 Q20.15 29.2 20.7 29.2 L21.1 28.7 21.2 28.5 21.2 28.65 21.25 28.95 20.75 29.5 20.25 29.5 Q19.3 28.8 18.8 27.75 M16.6 21.5 L16.8 21.4 17.15 21.4 17.45 21.35 17.95 22.8 18.45 22.9 19.5 22.9 19.65 23.35 18.85 23.35 17.3 23.2 17.1 23.25 16.4 21.4 16.45 21.4 16.6 21.5" fill="#000000" fill-opacity="0.29803923" fill-rule="evenodd" stroke="none"/>
      <path d="M12.3 8.4 L13.3 8.3 Q14.5 8.2 15.5 7.75 L15.95 7.55 16.2 7.35 16.45 7.0 16.85 6.5 Q17.15 6.3 17.5 6.2 L17.55 6.3 17.5 6.55 17.35 6.95 17.05 7.45 16.0 8.6 14.25 9.6 12.45 10.1 10.05 10.3 7.1 9.85 4.85 8.95 4.45 8.7 3.85 8.2 3.1 7.55 2.65 6.9 2.45 6.55 2.45 6.45 2.6 6.3 3.15 6.15 4.25 6.6 5.3 6.95 6.3 7.3 7.25 7.55 9.1 8.1 10.8 8.4 12.3 8.4" fill="#000000" fill-opacity="0.29803923" fill-rule="evenodd" stroke="none"/>
      <path d="M15.8 2.15 L16.0 2.15 Q17.3 3.7 18.9 4.8 L18.1 6.15 16.85 7.55 Q15.65 8.55 14.1 8.85 L7.9 9.05 5.8 8.55 Q3.25 7.45 1.05 5.55 L1.55 5.05 2.75 3.65 Q3.4 2.65 4.3 2.9 L5.35 3.7 5.65 3.95 6.25 4.3 7.2 4.95 7.1 5.05 Q6.25 5.0 5.05 4.3 L5.5 5.05 Q5.6 5.75 5.35 6.25 L4.9 7.05 2.2 5.7 2.35 5.8 4.5 7.35 Q5.6 8.05 6.5 8.3 L8.6 8.7 8.7 8.05 Q8.65 7.7 9.25 7.1 9.8 6.45 10.4 6.6 11.0 6.75 11.35 7.1 11.65 7.4 11.75 8.0 L12.05 8.75 12.1 9.0 Q15.6 8.4 16.6 7.55 18.3 6.0 18.3 5.4 18.3 4.9 17.85 5.4 L17.1 6.35 16.05 7.2 16.0 7.25 15.55 6.15 15.25 5.85 14.9 5.95 Q14.45 6.3 14.05 6.15 L13.8 6.15 14.15 5.9 15.0 5.05 15.15 4.5 Q13.85 5.2 13.0 4.75 L13.6 4.45 14.85 3.55 15.25 3.25 15.8 2.7 Q16.3 2.15 15.8 2.15 M4.65 2.75 L4.65 2.7 Q5.05 1.7 6.0 0.9 L6.4 1.05 6.8 1.9 7.65 2.15 9.4 2.75 Q12.55 3.4 13.85 0.65 L14.65 0.7 15.1 1.8 15.55 2.15 15.25 2.35 14.4 2.9 14.15 3.1 12.1 4.05 12.55 3.65 14.1 2.3 14.4 1.55 14.25 1.0 13.35 2.05 Q12.1 3.1 10.4 3.1 L9.1 2.95 8.75 2.95 Q7.5 2.8 6.6 2.3 5.75 1.85 5.65 1.35 L5.3 1.8 5.25 2.3 6.15 3.0 Q6.75 3.4 7.1 3.3 L6.95 3.45 6.85 3.45 6.55 3.55 6.4 3.55 6.35 3.55 6.25 3.5 5.5 3.15 4.8 2.65 Q4.7 2.65 4.65 2.75" fill="#5b3523" fill-rule="evenodd" stroke="none"/>
      <path d="M15.55 2.15 L15.8 2.15 Q16.3 2.15 15.8 2.7 L15.25 3.25 14.85 3.55 13.6 4.45 13.0 4.75 Q13.85 5.2 15.15 4.5 L15.0 5.05 14.15 5.9 13.8 6.15 14.05 6.15 Q14.45 6.3 14.9 5.95 L15.25 5.85 15.55 6.15 16.0 7.25 16.05 7.2 17.1 6.35 17.85 5.4 Q18.3 4.9 18.3 5.4 18.3 6.0 16.6 7.55 15.6 8.4 12.1 9.0 L12.05 8.75 11.75 8.0 Q11.65 7.4 11.35 7.1 11.0 6.75 10.4 6.6 9.8 6.45 9.25 7.1 8.65 7.7 8.7 8.05 L8.6 8.7 6.5 8.3 Q5.6 8.05 4.5 7.35 L2.35 5.8 2.2 5.7 4.9 7.05 5.35 6.25 Q5.6 5.75 5.5 5.05 L5.05 4.3 Q6.25 5.0 7.1 5.05 L7.2 4.95 6.25 4.3 5.65 3.95 5.35 3.7 4.3 2.9 4.25 2.85 4.45 2.9 4.5 2.9 4.65 2.75 Q4.7 2.65 4.8 2.65 L5.5 3.15 6.25 3.5 6.35 3.55 6.4 3.55 6.55 3.55 6.85 3.45 6.95 3.45 7.1 3.3 Q6.75 3.4 6.15 3.0 L5.25 2.3 5.3 1.8 5.65 1.35 Q5.75 1.85 6.6 2.3 7.5 2.8 8.75 2.95 L9.1 2.95 10.4 3.1 Q12.1 3.1 13.35 2.05 L14.25 1.0 14.4 1.55 14.1 2.3 12.55 3.65 12.1 4.05 14.15 3.1 14.4 2.9 15.25 2.35 15.55 2.15" fill="#3f2518" fill-rule="evenodd" stroke="none"/>
      <path d="M-3.75 25.9 L-4.15 25.05 Q-3.9 23.35 -2.35 22.6 L1.1 23.8 Q2.55 24.5 3.85 25.55 2.1 26.35 0.15 26.65 -2.0 26.95 -3.75 25.9 M-2.35 24.7 Q-2.45 24.15 -3.05 24.2 -3.65 24.25 -3.55 24.85 -3.45 25.45 -2.85 25.35 -2.25 25.25 -2.35 24.7" fill="#333333" fill-rule="evenodd" stroke="none"/>
      <path d="M3.85 25.55 L1.8 29.6 0.9 30.75 Q0.1 31.6 -1.35 31.55 -2.8 31.5 -3.65 30.8 -4.55 30.0 -4.5 29.2 L-4.45 28.35 -4.25 27.45 -3.75 25.9 Q-2.0 26.95 0.15 26.65 2.1 26.35 3.85 25.55" fill="#cc9966" fill-rule="evenodd" stroke="none"/>
      <path d="M-2.35 24.7 Q-2.25 25.25 -2.85 25.35 -3.45 25.45 -3.55 24.85 -3.65 24.25 -3.05 24.2 -2.45 24.15 -2.35 24.7" fill="#f2f2f2" fill-rule="evenodd" stroke="none"/>
      <path d="M0.85 24.7 Q0.85 24.1 0.25 23.75 L-0.15 23.45 1.1 24.05 2.65 24.9 3.9 25.45 2.95 27.35 2.4 28.45 1.75 29.75 1.05 30.75 0.4 31.2 -0.2 31.4 -0.75 31.55 -1.45 31.55 -1.7 31.5 -3.05 31.1 -3.6 30.8 -3.9 30.6 -4.25 30.15 Q-3.5 30.7 -2.45 30.85 L-0.9 30.75 0.1 30.25 Q0.55 29.9 0.8 29.1 1.05 28.25 0.5 27.7 -0.1 27.15 -0.75 27.25 L-2.45 27.05 Q-3.45 26.75 -3.6 26.5 L-3.75 26.05 -3.95 25.6 -4.1 24.9 -4.05 24.45 -3.7 23.95 -3.5 24.35 -3.65 25.05 Q-3.7 25.55 -2.95 25.6 -2.2 25.65 -2.05 25.1 L-1.25 25.25 -0.05 25.25 0.8 25.05 0.75 25.05 0.8 25.0 0.85 24.7" fill="#000000" fill-opacity="0.29803923" fill-rule="evenodd" stroke="none"/>
      <path d="M0.2 26.65 L-0.6 27.95 Q-1.15 29.1 -1.15 30.1 L-1.15 31.5 -1.6 31.5 -1.65 30.65 Q-1.65 28.85 -0.5 26.85 L-0.35 26.65 -0.3 26.65 0.15 26.55 0.3 26.35 0.2 26.65 M-1.75 27.35 Q-1.6 27.5 -1.6 27.75 L-1.75 28.15 -2.15 28.3 -2.55 28.15 -2.7 27.75 -2.55 27.35 Q-2.4 27.2 -2.15 27.2 L-1.75 27.35 M-2.6 26.4 L-3.2 28.0 -3.45 30.0 -3.3 31.0 -3.65 30.7 -3.75 30.7 -3.85 29.6 Q-3.85 28.55 -3.5 27.6 L-3.0 26.3 -2.6 26.4 M-2.95 29.25 L-2.55 29.1 Q-2.3 29.1 -2.15 29.25 -2.0 29.4 -2.0 29.65 L-2.15 30.05 -2.55 30.2 -2.95 30.05 -3.1 29.65 -2.95 29.25" fill="#000000" fill-opacity="0.2" fill-rule="evenodd" stroke="none"/>
      <path d="M-3.15 24.15 L-2.7 24.05 Q-2.15 24.05 -2.05 24.4 L-2.0 24.95 -2.15 25.3 -2.2 25.45 -2.9 25.65 Q-3.75 25.65 -3.85 25.05 -3.85 24.7 -3.55 24.7 -3.5 25.0 -3.0 25.0 L-2.7 24.85 -2.65 24.7 -2.65 24.55 Q-2.65 24.2 -3.1 24.2 L-3.15 24.2 -3.15 24.15" fill="#000000" fill-opacity="0.29803923" fill-rule="evenodd" stroke="none"/>
    </g>
  </defs>
</svg>
