<svg xmlns="http://www.w3.org/2000/svg" xmlns:ffdec="https://www.free-decompiler.com/flash" xmlns:xlink="http://www.w3.org/1999/xlink" ffdec:objectType="frame" width="43.85" height="33.1"><use ffdec:characterId="1" xlink:href="#a" width="43.85" height="33.1"/><defs><radialGradient id="d" cx="0" cy="0" r="819.2" gradientTransform="translate(4.05 23.45)scale(.0165)" gradientUnits="userSpaceOnUse" spreadMethod="pad"><stop offset="0" stop-color="#ffe58e"/><stop offset="1" stop-color="#e0b833"/></radialGradient><radialGradient id="e" cx="0" cy="0" r="819.2" gradientTransform="matrix(-.0165 0 0 .0165 16.25 23.45)" gradientUnits="userSpaceOnUse" spreadMethod="pad"><stop offset="0" stop-color="#ffe58e"/><stop offset="1" stop-color="#e0b833"/></radialGradient><radialGradient id="f" cx="0" cy="0" r="819.2" gradientTransform="matrix(0 0 0 0 20.05 0)" gradientUnits="userSpaceOnUse" spreadMethod="pad"><stop offset="0" stop-color="#ffe58e" stop-opacity=".498"/><stop offset="1" stop-color="#e0b833" stop-opacity=".498"/></radialGradient><radialGradient id="g" cx="0" cy="0" r="819.2" gradientTransform="matrix(0 0 0 0 0 0)" gradientUnits="userSpaceOnUse" spreadMethod="pad"><stop offset="0" stop-color="#ffe58e" stop-opacity=".498"/><stop offset="1" stop-color="#e0b833" stop-opacity=".498"/></radialGradient><radialGradient id="h" cx="0" cy="0" r="819.2" gradientTransform="translate(9.95 10.35)scale(.009)" gradientUnits="userSpaceOnUse" spreadMethod="pad"><stop offset="0" stop-color="#3d4a9f"/><stop offset="1" stop-color="#0d225d"/></radialGradient><radialGradient id="i" cx="0" cy="0" r="819.2" gradientTransform="translate(10 14.15)scale(.0093)" gradientUnits="userSpaceOnUse" spreadMethod="pad"><stop offset="0" stop-color="#ffe58e"/><stop offset="1" stop-color="#e0b833"/></radialGradient><radialGradient id="j" cx="0" cy="0" r="819.2" gradientTransform="matrix(0 0 0 0 0 0)" gradientUnits="userSpaceOnUse" spreadMethod="pad"><stop offset="0" stop-color="#ffe58e"/><stop offset="1" stop-color="#e0b833"/></radialGradient><radialGradient id="k" cx="0" cy="0" r="819.2" gradientTransform="translate(12.5 12.05)scale(.0051)" gradientUnits="userSpaceOnUse" spreadMethod="pad"><stop offset="0" stop-color="#ffe58e"/><stop offset="1" stop-color="#e0b833"/></radialGradient><radialGradient id="l" cx="0" cy="0" r="819.2" gradientTransform="translate(3.55 11.7)scale(.001)" gradientUnits="userSpaceOnUse" spreadMethod="pad"><stop offset="0" stop-color="#ffe58e"/><stop offset="1" stop-color="#e0b833"/></radialGradient><radialGradient id="m" cx="0" cy="0" r="819.2" gradientTransform="translate(4.45 11.95)scale(.0012)" gradientUnits="userSpaceOnUse" spreadMethod="pad"><stop offset="0" stop-color="#ffe58e"/><stop offset="1" stop-color="#e0b833"/></radialGradient><radialGradient id="n" cx="0" cy="0" r="819.2" gradientTransform="translate(5.95 12.3)scale(.001)" gradientUnits="userSpaceOnUse" spreadMethod="pad"><stop offset="0" stop-color="#ffe58e"/><stop offset="1" stop-color="#e0b833"/></radialGradient><radialGradient id="o" cx="0" cy="0" r="819.2" gradientTransform="translate(7.5 12.55)scale(.0015)" gradientUnits="userSpaceOnUse" spreadMethod="pad"><stop offset="0" stop-color="#ffe58e"/><stop offset="1" stop-color="#e0b833"/></radialGradient><radialGradient id="p" cx="0" cy="0" r="819.2" gradientTransform="matrix(0 0 0 0 0 0)" gradientUnits="userSpaceOnUse" spreadMethod="pad"><stop offset="0" stop-color="#ffe58e"/><stop offset="1" stop-color="#e0b833"/></radialGradient><radialGradient id="q" cx="0" cy="0" r="819.2" gradientTransform="translate(10.1 3.85)scale(.0025)" gradientUnits="userSpaceOnUse" spreadMethod="pad"><stop offset="0" stop-color="#ffe58e"/><stop offset="1" stop-color="#e0b833"/></radialGradient><radialGradient id="z" cx="0" cy="0" r="819.2" gradientTransform="matrix(0 0 0 0 0 0)" gradientUnits="userSpaceOnUse" spreadMethod="pad"><stop offset="0" stop-color="#ffe58e"/><stop offset="1" stop-color="#e0b833"/></radialGradient><radialGradient id="A" cx="0" cy="0" r="819.2" gradientTransform="rotate(15.255 -21.727 29.324)scale(.0011)" gradientUnits="userSpaceOnUse" spreadMethod="pad"><stop offset="0" stop-color="#ffe58e"/><stop offset="1" stop-color="#e0b833"/></radialGradient><radialGradient id="B" cx="0" cy="0" r="819.2" gradientTransform="rotate(15.255 -21.727 29.324)scale(.0011)" gradientUnits="userSpaceOnUse" spreadMethod="pad"><stop offset="0" stop-color="#ffe58e"/><stop offset="1" stop-color="#ecdaa0"/></radialGradient><radialGradient id="C" cx="0" cy="0" r="819.2" gradientTransform="matrix(-.0011 .0003 .0003 .0011 12.95 6.75)" gradientUnits="userSpaceOnUse" spreadMethod="pad"><stop offset="0" stop-color="#ffe58e"/><stop offset="1" stop-color="#e0b833"/></radialGradient><radialGradient id="D" cx="0" cy="0" r="819.2" gradientTransform="matrix(-.0011 .0003 .0003 .0011 12.95 6.75)" gradientUnits="userSpaceOnUse" spreadMethod="pad"><stop offset="0" stop-color="#ffe58e"/><stop offset="1" stop-color="#ecdaa0"/></radialGradient><linearGradient id="b" x1="-819.2" x2="819.2" gradientTransform="matrix(-.0032 -.0146 .014 -.0031 22.1 22.8)" gradientUnits="userSpaceOnUse" spreadMethod="pad"><stop offset="0" stop-color="#676f89" stop-opacity=".686"/><stop offset="1" stop-color="#0c1d51" stop-opacity=".718"/></linearGradient><linearGradient id="c" x1="-819.2" x2="819.2" gradientTransform="matrix(.0047 -.015 .0139 .0044 -2.1 22.95)" gradientUnits="userSpaceOnUse" spreadMethod="pad"><stop offset="0" stop-color="#676f89" stop-opacity=".686"/><stop offset="1" stop-color="#0c1d51" stop-opacity=".718"/></linearGradient><linearGradient id="r" x1="-819.2" x2="819.2" gradientTransform="matrix(.0003 0 0 .0008 8.55 9.45)" gradientUnits="userSpaceOnUse" spreadMethod="pad"><stop offset="0" stop-color="#ffe58e"/><stop offset="1" stop-color="#e0b833"/></linearGradient><linearGradient id="s" x1="-819.2" x2="819.2" gradientTransform="matrix(.0003 0 0 .0008 7.6 8.5)" gradientUnits="userSpaceOnUse" spreadMethod="pad"><stop offset="0" stop-color="#ffe58e"/><stop offset="1" stop-color="#e0b833"/></linearGradient><linearGradient id="t" x1="-819.2" x2="819.2" gradientTransform="matrix(.0003 0 0 .0008 6.65 7.85)" gradientUnits="userSpaceOnUse" spreadMethod="pad"><stop offset="0" stop-color="#ffe58e"/><stop offset="1" stop-color="#e0b833"/></linearGradient><linearGradient id="u" x1="-819.2" x2="819.2" gradientTransform="matrix(.0003 0 0 .0008 9.4 10.45)" gradientUnits="userSpaceOnUse" spreadMethod="pad"><stop offset="0" stop-color="#ffe58e"/><stop offset="1" stop-color="#e0b833"/></linearGradient><linearGradient id="v" x1="-819.2" x2="819.2" gradientTransform="matrix(.0003 0 0 .0008 11.4 9.45)" gradientUnits="userSpaceOnUse" spreadMethod="pad"><stop offset="0" stop-color="#ffe58e"/><stop offset="1" stop-color="#e0b833"/></linearGradient><linearGradient id="w" x1="-819.2" x2="819.2" gradientTransform="matrix(.0003 0 0 .0008 10.55 10.45)" gradientUnits="userSpaceOnUse" spreadMethod="pad"><stop offset="0" stop-color="#ffe58e"/><stop offset="1" stop-color="#e0b833"/></linearGradient><linearGradient id="x" x1="-819.2" x2="819.2" gradientTransform="matrix(.0003 0 0 .0008 13.2 7.85)" gradientUnits="userSpaceOnUse" spreadMethod="pad"><stop offset="0" stop-color="#ffe58e"/><stop offset="1" stop-color="#e0b833"/></linearGradient><linearGradient id="y" x1="-819.2" x2="819.2" gradientTransform="matrix(.0003 0 0 .0008 12.25 8.5)" gradientUnits="userSpaceOnUse" spreadMethod="pad"><stop offset="0" stop-color="#ffe58e"/><stop offset="1" stop-color="#e0b833"/></linearGradient><g id="a" fill-rule="evenodd"><path fill="#15062c" fill-opacity=".6" d="M24.5 9.15h.1l.15.3-.2-.1z"/><path fill="#1f0c3c" fill-opacity=".498" d="M28.35 10.45h.1l.05.4zm-2.25-.15.25.15.05.05-.2.05z"/><path fill="url(#b)" d="m12.55 12.55-.35-1 .6.05.7-.1h1.05l.75-.15v-.15l.05-.1h.15l.05.2.6-.25.85.4q.1.8.9 2.7 1.2 2.9 3.3 5.95l2 3.05 2.35 2.95 2.5 2.85 1 .1 2.8.75.05.05-.6.85-1.25 1.45-1.6 1.25-3.7-.3h-.25v.15h-.15l-.15-.15-2.5.15-1.6-1.6 1.4 2.85h-.15q-1-1.5-1.95-3.8l-.6-1.2-2.35-4.65h-.05l.85 1.95 1.1 3 .7 2.35-.55.3q.45.2 1.25 1.75l.4.8-.65-.75-.15-.2V34q-1.3-1.65-1.85-3.35l-.05-.15-.05-.1-1.65-6.65h-.05l-.55-2.1-.3-1.05v.05l-2.25-7.9.2.1-.15-.3zm3.85 1.3.15.4-.05-.4zm-2.25-.15.1.25.2-.05-.05-.05z" transform="translate(11.95 -3.4)"/><path fill="url(#c)" d="m-1.75 33.2-2.5-.15-.15.15h-.15v-.15h-.25l-3.7.3-1.6-1.25-1.25-1.45-.6-.85.05-.05 2.8-.75 1-.1 2.5-2.85Q-4.55 25-3.25 23.1l2-3.05Q.85 17 2.05 14.1l.9-2.7.85-.4.6.25.05-.2h.15l.05.1v.15l.75.15h1.05l.7.1h-.1.1l.6-.05-.35 1h-.1l-.15.3.2-.1q-.8 2.3-2.25 7.9v-.05l-.3 1.05-.55 2.1H4.2l-1.65 6.65-.05.1-.05.15.05-.15q-.55 1.75-1.9 3.5V34l-.15.2-.65.75.4-.8Q1 32.6 1.45 32.4l-.55-.3.7-2.35 1.1-3 .85-1.95H3.5l-2.35 4.65-.6 1.2q-.95 2.3-1.95 3.8h-.15l1.4-2.85z" transform="translate(11.95 -3.4)"/><path fill="#0a1a4d" fill-opacity=".706" d="m32.1 31.6-.4-.8q-.8-1.55-1.25-1.75l.55-.3-.7-2.35-1.1-3-.85-1.95h.05l2.35 4.65.6 1.2q.95 2.3 1.95 3.8h.15l-1.4-2.85 1.6 1.6h-.05v.55l.1.55-.45.8-.6.35-.2-.25zm-21.9-1.8 1.6-1.6-1.4 2.85h.15q1-1.5 1.95-3.8l.6-1.2 2.35-4.65h.05l-.85 1.95-1.1 3-.7 2.35.55.3q-.45.2-1.25 1.75l-.4.8-.35.25-.2.25-.6-.35-.45-.8.1-.55v-.55z"/><path fill="url(#d)" d="m7.4 12.5.35-1 .2-.3q.1-.2.3-.2l.35.05.25.3q.4.2.4.65 0 .55-.4.7l.1.4q0 .75-.65.8l.2.55q0 .75-.6.8l.2.6q0 .75-.6.85l.15.5q0 .65-.5.8H7.1l.25.6q0 .8-.7.85l.3.6q0 .75-.65.8l.15.5q0 .75-.7.8.3.1.4.55l.05.25-.1.35-.6.4.25.65q0 .75-.75.75l.35.7-.2.55-.3.25.3.6q0 .7-.6.75l.2.55q0 .7-.55.8l.2.55q0 .7-.55.8l.1.45q0 .75-.65.8l.1.4q0 .7-.6.8l.15.2.05.35q0 .8-.75.8H2.2l.05.3q0 .75-.75.75h-.15v.2q0 .75-.75.75H.55l-.35.05q-.75 0-.75-.8H-.6l-.15-.2v-.05l.2-.25.35-.25.65-.75.15-.2v-.05q1.35-1.75 1.9-3.5l-.05.15.05-.15.05-.1L4.2 23.7h.05l.55-2.1.3-1.05v.05q1.45-5.6 2.25-7.9zm1.25-.6-.3.05h-.5l.45.35.25.25.2-.15.15-.15-.1-.2zm-.35 1-.3.05h-.5l.45.35.25.25.2-.15.15-.15-.1-.2zM8 14.8l.1-.05-.3-.4h-.5v-.05l-.2.05.45.35.25.25.2-.1zm-.7 1.3h.1q.3.05.4-.25l-.15-.15-.75.05.35.3zM7 17.7h.1l.1-.2q-.1-.45-.8-.35v-.05h-.1l.45.35zm-.45.75h-.5l.45.35.1.1.4-.25-.1-.2zm-2.1 5.75.5.3.25.2.2-.15.15-.15-.15-.2-.15-.15q-.2-.1-.3.1zm1.15-4.25h-.05l.45.35.1.1h.35l.05-.15-.2-.2zm-.4 1.35.4.25.2.2v-.05l.25-.25-.15-.2h-.6zm.7 1.7-.15-.2v-.05h-.1l-.7.15.35.2.25.2.2-.15zM5 25.85l-.15-.15-.3-.05H4.5l-.5.05.5.3.2.15zm-.75 1.2-.5.05.5.3.25.2-.05-.1.3-.3v-.1H4.7l-.1-.1-.2-.05q-.1 0-.15.1m-.1 1.85.1-.15.2-.25-.15-.15-.25-.05q-.2-.05-.3.15l-.5.15.55.2zm-1.05.7.5.35.2.2.2-.1.15-.1-.1-.2-.2-.15H3.1m.4 1.4h-.95l.5.35.2.2.25-.05.15-.25-.1-.25zm-.6 1.15-.05-.05q-.15-.15-.3 0l-.5-.05.45.4.1.15.35-.35zm-.3 1.45-.25-.15q-.15-.15-.3 0l-.55-.05.45.4.25.25h.15L2.4 34v-.05h.05l.25-.25zm-1.2.9-.5-.2.3.5.2.3h.25l.25-.05v-.25l-.15-.2zM.3 36.1l.25.05.25-.05.05-.25-.15-.2q-.1-.15-.3-.15l-.5-.25.25.5z" transform="translate(11.95 -3.4)"/><path fill="#15062c" fill-opacity=".6" d="m19.35 9.1-.05.2-.2.1.15-.3z"/><path fill="url(#e)" d="m12.55 11.5.35 1 .05.2 2.25 7.9v-.05l.3 1.05.55 2.1h.05l1.65 6.65.05.1.05.15q.55 1.7 1.85 3.35V34l.15.2.65.75.35.25.2.25v.05l-.15.2h-.05q0 .8-.75.8l-.35-.05h-.05q-.75 0-.75-.75v-.2h-.15q-.75 0-.75-.75l.05-.3h-.05q-.75 0-.75-.8l.05-.35.15-.2q-.6-.1-.6-.8l.1-.4q-.65-.05-.65-.8l.1-.45q-.55-.1-.55-.8l.2-.55q-.55-.1-.55-.8l.2-.55q-.6-.05-.6-.75 0-.45.3-.6l-.3-.25-.2-.55q.05-.55.35-.7-.75 0-.75-.75 0-.45.25-.65l-.6-.4-.1-.35.05-.25q.1-.45.4-.55-.7-.05-.7-.8 0-.35.15-.5-.65-.05-.65-.8 0-.4.3-.6-.7-.05-.7-.85.05-.45.25-.6h-.05q-.5-.15-.5-.8 0-.35.15-.5-.6-.1-.6-.85l.2-.6q-.6-.05-.6-.8l.2-.55q-.65-.05-.65-.8l.1-.4q-.4-.15-.4-.7 0-.45.4-.65.05-.2.25-.3l.35-.05.3.2zm-.6.45-.3-.05-.15.15-.1.2.15.15.2.15.25-.25.45-.35zm7.5 23.9.05.25.25.05.25-.05.15-.35.25-.5q-.4.15-.5.25-.2 0-.3.15zm-.35-1.05.3-.5-.5.2-.35.1-.15.2v.25l.25.05h.25zM16.75 31l-.1.25.15.25.25.05.2-.2.5-.35h-1m1.05 1.45.45-.4-.5.05q-.15-.15-.3 0l-.05.05-.05.1.35.35zm.05 1.5h.05V34l.05.05h.15l.25-.25.45-.4-.55.05q-.15-.15-.3 0l-.25.15-.1.1zm-1.7-4 .15.1q.05.15.2.1l.2-.2.5-.35h-.75l-.2.15zm.9-1.35-.5-.15-.3-.15-.25.05q-.15 0-.15.15l.2.25q-.1.15.1.15l.35-.1zm-1.2-1.1-.05.1.25-.2q.1-.1.5-.3l-.5-.05-.15-.1-.2.05-.1.1h-.05v.1q0 .25.3.3m-.1-1.85-.3.05-.15.15.3.3.2-.15.5-.3-.5-.05zm-.85-1.1q-.05.15.2.15l.25-.2.5-.3-.5-.05q-.1-.2-.3-.1l-.15.15-.15.2zM14.4 23l.15.15.2.15.25-.2.35-.2-.7-.15h-.1v.05zm.3-1.45q.1-.1.4-.25l-.1-.05h-.6l-.15.2.25.25v.05zm0-1.6-.7.1-.2.2.05.15h.35l.1-.1.45-.35zm-.95-1.5h-.35l-.1.2.4.25.1-.1.45-.35zm.15-1.3q-.7-.1-.8.35l.1.2h.1l.25-.25.45-.35h-.1zm-1.25-1.45-.15.15.4.25h.1l.05-.05.35-.3zM12 12.9l-.15.15-.1.2.15.15q-.05.15.2.15l.25-.25.45-.35h-.5zm1 1.4v.05h-.5l-.3.4.1.05v.05l.2.1.25-.25.45-.35z" transform="translate(11.95 -3.4)"/><path fill="url(#f)" d="m21.3 23.7.4.3-.35.3q-.3 0-.3-.3t.25-.3m-1.65 8.15q0-.3.3-.3.35 0 .35.3l-.3.3q-.35 0-.35-.3m.2-3.65-.35-.3q0-.3.3-.3.4 0 .4.3zm-1.95-2.6-.05.15-.25.15q-.35 0-.35-.3 0-.35.3-.35.35 0 .35.35m1.95-.8q.35 0 .35.3l-.3.3q-.35 0-.35-.3t.3-.3m-2.15-2.3-.25.15q-.3 0-.3-.3t.3-.3l.3.3zm-.85-2.85-.25.15q-.3 0-.3-.3t.3-.3l.3.3zm3 1.3q.05-.3.25-.3l.4.3-.35.3q-.3 0-.3-.3m-1.95-.9q.05-.3.3-.3.35 0 .35.3l-.3.3q-.35 0-.35-.3m.5-2.9-.05.15-.25.15q-.35 0-.35-.3t.3-.3q.35 0 .35.3M28.9 32q-.35 0-.35-.3t.3-.3q.4 0 .4.3zm-7.7.3q0-.3.25-.3.4 0 .4.3l-.35.3q-.3 0-.3-.3m3.8.1q-.3 0-.3-.3t.3-.3l.3.3zm-2.6-4.3.3.3-.3.3q-.3 0-.3-.3t.3-.3m-.1 2.65q0-.3.25-.3.4 0 .4.3l-.35.3q-.3 0-.3-.3m2.2-3.7q-.3 0-.3-.3t.3-.3l.3.3zm2.9 3.35-.35.3q-.3 0-.3-.3l.05-.15.2-.15q.4 0 .4.3m-1.45-1.75q.4 0 .4.3l-.35.3q-.3 0-.3-.3t.25-.3m4.65 1.4-.1.2-.25.15q-.3 0-.3-.3 0-.35.25-.35.4 0 .4.3" transform="translate(11.95 -3.4)"/><path fill="url(#g)" d="m1.7 17.3-.05-.15q0-.3.35-.3l.3.3q0 .3-.35.3zm1.5 2.35-.05-.15q0-.3.3-.3l.3.3-.3.3zm-1.35.1.3.3-.35.3q-.3 0-.3-.3t.35-.3m.45 2.6q0-.3.3-.3l.3.3-.3.3q-.2 0-.25-.15zM.5 25.1l-.35.3-.3-.3.35-.3zm1.65.5q0-.35.35-.35.3 0 .3.35l-.35.3-.25-.15zM.2 28.2l-.35-.3q0-.3.4-.3l.3.3q0 .3-.35.3m-.15 3.95-.3-.3q0-.3.35-.3l.3.3zm-.1-11.5.25.3-.3.3-.35-.3q0-.3.4-.3m-1.2 3.05q.25 0 .25.3t-.3.3l-.35-.3q0-.3.4-.3m-3.5 3.05.3-.3q.3 0 .3.3t-.3.3zm2.5 4q0 .3-.3.3l-.35-.3q0-.3.4-.3.25 0 .25.3m.2-2.35q0 .3-.3.3l-.3-.3.3-.3q.3 0 .3.3m-3.6.55q0 .3-.3.3l-.35-.3q0-.3.4-.3.25 0 .25.3m-1.1 1.3.05.15q0 .3-.3.3l-.35-.3q0-.3.4-.3.15 0 .2.15M-8.8 31.4q.3 0 .3.3t-.35.3l-.35-.3q0-.3.4-.3m4.15.7q0 .3-.3.3l-.3-.3.3-.3q.3 0 .3.3m3.5.2q0 .3-.3.3l-.35-.3q0-.3.4-.3.25 0 .25.3m-9.3-2.05-.1-.2q0-.3.4-.3.25 0 .25.35 0 .3-.3.3z" transform="translate(11.95 -3.4)"/><path fill="url(#h)" d="M11.9 3.8q1 1.35 1.4 3.25l.85.45.15.1.55.45.15.2v.05l1.5.9q.35.3.35.9l-.2.7-.05.1-.15.25-.25.3-.75.6h-.05l-1.15.25-1.6-.45h-5.3l-1.65.45-.45-.05-.35-.1-.35-.1-.8-.6-.25-.3-.15-.2-.05-.05-.2-.8q0-.6.35-.9l1.05-.65.45-.25v-.05l.15-.2.7-.55q.6-.4.85-.45.4-1.9 1.4-3.25l.65.05q-.75.8-1.55 3.25.6.25 1.45 1.25l.7.85.5.75.15.35.2-.3v-.05l.55-.8.6-.8q.85-1 1.5-1.25-.8-2.45-1.55-3.35z" transform="translate(11.95 -3.4)"/><path fill="#220423" fill-opacity=".694" d="M17.85 11.4h-.05l-.05.05.05.15.8 1.45.75-1.05-.55-1.4zm2.85-.9-1.05 1.55 1.1 1.65.3-.3.75-.75zm6-1.55.05-.1h.05l.1.05.05.05-.55 1.7v.05l.35.45.65-1.85-.35-.45v-.2h.2l.3.4.3-.75.05-.05h.1l.35.4v-.4h.2l.05.1-.05.65v.05l.55 1.05-.05.1-.05.05-.1-.05-.05-.05-.35-.75-.1.85v.1l.45.75.05.1-.05.05-.1.05-.1-.05-.3-.55-.5 1.25-.1.1-.35.1-.55-.5-.35.95-.05.05-.1.05-.05-.05-.65-.6-.85 1.3-.05.05-.1-.05-.85-.7-.9 1.3-.05.05h-.05l-.1-.05-.75-1.05-.7.7-.45.4-.1-.05q-.45-.3-1.2-1.7l-.8 1.1-.05.05h-.1l-.05-.05-.9-1.65-.85.95-.05.05-.1-.05-.05-.05-.55-1.5v-.05l-.9.55-.1.05-.1-.05v-.1l-.1-1.25v-.9l.35-.95.1-.05h.05l.1.1-.05.05q-.3.55-.3.9v.85l.05 1.05.8-.5q-.55-1.6-.45-2.25l.05-.1h.05l.1.05.05.05q-.05.6.45 2.1l.75-.5-.3-1.1v-.1l.1-.05h.1l.05.1.25.95.65-.65.1-.05h.1l.05.1-.05.1-.75.75.45 1.05.05-.05 1-.9-.25-1v-.1l.1-.05h.1l.05.1.2.85.6-.6.1-.05h.1l.05.1-.05.1-.7.75.55 1.35 1.05-1.5-.4-.7v-.1l.05-.05h.1l.05.05.3.55.35-.65.05-.05h.1l.1.05v.1l-.45.85 1.1 2.15.8-1.35-.95-1.7v-.05l.05-.1h.1l.05.05.85 1.55.8-1.45.05-.05h.1l.05.05.85 1.15.55-1.4.05-.1h.05l.1.05.05.05v.05q0 .35.75 1.3zm-8 6.1q-.3 0-.3-.45l.05-.5q.05-.45.3-.5l.1.6v.8zm2.1-.75h.1l.25.9-.15.55-.25-.05-.05-.55zm-4.6-3.35V11h.05l.45 1.3.75-.9-.45-1.05zm.5 2 .1.95-.1.45-.35-.3.2-1.1zm-2.05.3-.05-.45q0-.9.45-.85v1.15zM29.9 11.5v.1l-.2.05q-.2 0-.2-.4l-.1-.6.1-.1.4.55.1.2zm-2.25.5h.1l-.05-.05h-.15zm.05-2.7.45.7.15-.95-.3-.45zm.45 1.1-.55-.8-.65 1.8.55.5zm1 1.3.45.7v.5l-.15.05q-.35 0-.35-.45l-.1-.7zm-1.2.7.25.5.1.5-.25.35-.2-.25-.05-.25.05-.85zm-3.35-1.6-.85-1.1-.75 1.35.8 1.15zm2.05.65-.35-.5-.55.9.55.55zm-1.8-.65-.05.05-.85 1.55.7.7.85-1.3.1-.05h.1l-.1-.1.5-.95-.75-1.1zm-1.9 3.5.25 1.1-.25.35-.25-.25-.05-.25.15-.95zm-.8-1.75-.05.15.7.95.85-1.25-.8-1.1zm4.45.4.2.7.15.6-.25.25q-.25 0-.35-.3l-.05-.35.15-.9zm-1.45 1.6.1.65-.25.3-.25-.25.05-1.35h.15z"/><path fill="url(#i)" d="M5.9 14.45h-.05l-.05.05.05.15.8 1.45.75-1.05-.55-1.4zm2.85-.9L7.7 15.1l1.1 1.65.3-.3.75-.75zm7.6-1.45-.3-.45-.3.7.45.7zm-3.05.1.05-.1h.05l.1.05.05.05v.05q0 .35.75 1.3l.45-1.55.05-.1h.05l.1.05.05.05-.55 1.7v.05l.35.45.65-1.85-.35-.45v-.2h.2l.3.4.3-.75.05-.05h.1l.35.4v-.4h.2l.05.1-.05.65v.05l.55 1.05-.05.1-.05.05-.1-.05-.05-.05-.35-.75-.1.85v.1l.45.75.05.1-.05.05-.1.05-.1-.05-.3-.55-.5 1.25-.1.1-.35.1-.55-.5-.35.95-.05.05-.1.05-.05-.05-.65-.6-.85 1.3-.05.05-.1-.05-.85-.7-.9 1.3-.05.05h-.05l-.1-.05-.75-1.05-.7.7-.45.4-.1-.05q-.45-.3-1.2-1.7l-.8 1.1-.05.05h-.1l-.05-.05-.9-1.65-.85.95-.05.05-.1-.05-.05-.05-.55-1.5v-.05l-.9.55-.1.05-.1-.05v-.1l-.1-1.25v-.9l.35-.95.1-.05h.05l.1.1-.05.05q-.3.55-.3.9v.85l.05 1.05.8-.5q-.55-1.6-.45-2.25l.05-.1h.05l.1.05.05.05q-.05.6.45 2.1l.75-.5-.3-1.1V12l.1-.05h.1l.05.1.25.95.65-.65.1-.05H6l.05.1-.05.1-.75.75.45 1.05.05-.05 1-.9-.25-1v-.1l.1-.05h.1l.05.1.2.85.6-.6.1-.05h.1l.05.1-.05.1-.7.75.55 1.35 1.05-1.5-.4-.7v-.1l.05-.05h.1l.05.05.3.55.35-.65.05-.05h.1l.1.05v.1l-.45.85L10 15.5l.8-1.35-.95-1.7v-.05l.05-.1h.1l.05.05.85 1.55.8-1.45.05-.05h.1l.05.05.85 1.15zm-9 1.85.45 1.3.75-.9-.45-1.05-.8.6v.05zm11.9-.6-.55-.8-.65 1.8.55.5zM15.75 15h-.15l.1.05h.1zm-4.05.45-.8-1.1-.7 1.25-.05.15.7.95zm.95-1.6-.85-1.1-.75 1.35.8 1.15zm1.7 1.6.35-.95-.35-.5-.55.9zm-1.45-1.6-.05.05-.85 1.55.7.7.85-1.3.1-.05h.1l-.1-.1.5-.95-.75-1.1z" transform="translate(11.95 -3.4)"/><path fill="url(#j)" d="m6.9 18.05-.15.05q-.3 0-.3-.45l.05-.5q.05-.45.3-.5l.1.6zm1.95-.7h.1l.25.9-.15.55-.25-.05-.05-.55zm-4-.4-.1.45-.35-.3.2-1.1h.15zM2.7 16.3l-.05-.45q0-.9.45-.85v1.15zm15.25-1.65-.2.05q-.2 0-.2-.4l-.1-.6.1-.1.4.55.1.2-.1.2zm-1.95.8.25.5.1.5-.25.35-.2-.25-.05-.25.05-.85zm1.65 0v.5l-.15.05q-.35 0-.35-.45l-.1-.7.15-.1zM11 17.35l.25 1.1-.25.35-.25-.25-.05-.25.15-.95zM14.65 16l.2.7.15.6-.25.25q-.25 0-.35-.3l-.05-.35.15-.9zm-1.65.95.2.65.1.65-.25.3-.25-.25.05-1.35z" transform="translate(11.95 -3.4)"/><path fill="#15062c" d="m27.75 8.1.6-.25.2.55v.25l-.8-.5-.35 1.05-1.1-.65-.7.9-.9-.6-.55.9-1.1-.7-.7.85-.7-.75-.65.7-.65-.75-1.1.75q-.25 0-.65-.8l-1.15.5-.25-.8 1.35.25.05.05.05-.05 1.55.05h.1l.05.05.1-.05h1.3l1.35-.1 1.65-.15 1.6-.3zm-12.45.35.15-.3.4.25h-.05v.05l-.65.5V8.9zm.5 0 .05-.05.15.05 1.05.3-1.25.4-.05-.05v-.5z"/><path fill="url(#k)" d="m8.4 12.25.1-.05h1.3l1.35-.1 1.65-.15 1.6-.3 1.4-.4.6-.25.2.55v.25l-.8-.5-.35 1.05-1.1-.65-.7.9-.9-.6-.55.9-1.1-.7-.7.85-.7-.75-.65.7z" transform="translate(11.95 -3.4)"/><path fill="url(#l)" d="m3.35 11.6.15-.3.4.25h-.05v.05l-.65.5v-.05z" transform="translate(11.95 -3.4)"/><path fill="url(#m)" d="m3.85 11.6.05-.05.15.05 1.05.3-1.25.4-.05-.05v-.5z" transform="translate(11.95 -3.4)"/><path fill="url(#n)" d="m6.65 12.2-1.15.5-.25-.8 1.35.25z" transform="translate(11.95 -3.4)"/><path fill="url(#o)" d="M8.4 12.25 7.3 13q-.25 0-.65-.8l.05-.05 1.55.05h.1z" transform="translate(11.95 -3.4)"/><path fill-opacity=".498" d="m24.55.85.05.05-.85.35v.9l-.85-.25v-.05l-.5.75-.5-.55-.25.3-.5.15-.05-.7-.65.1h-.35v-.1l.35-.45-.75-.25.5-.55q-.05.6.65 1.1l.25.15.9.2.9-.15.85-.75.1-.4zM23.3.2l.15.2-.5.5-.8.15L21.2.9q-.55-.2-.55-.5l.2-.2 1.25.25z"/><path fill="url(#p)" d="m12.65 4.1-.85.35v.9l-.85-.25v-.05l-.5.75-.5-.55-.25.3-.5.15-.05-.7-.65.1h-.35V5l.35-.45-.75-.25.5-.55q-.05.6.65 1.1l.25.15.9.2.9-.15.85-.75.1-.4.7.15z" transform="translate(11.95 -3.4)"/><path fill="url(#q)" d="m11.35 3.4.15.2-.5.5-.8.15-.95-.15q-.55-.2-.55-.5l.2-.2 1.25.25z" transform="translate(11.95 -3.4)"/><path fill="url(#r)" d="m8.7 8.8.1.85-.25.45-.25-.25v-.1l.05-.2.15-.7z" transform="translate(11.95 -3.4)"/><path fill="url(#s)" d="m7.6 9.15-.25-.25v-.1l.05-.2.15-.7.2-.05.1.85z" transform="translate(11.95 -3.4)"/><path fill="url(#t)" d="m6.8 7.2.1.85-.25.45-.25-.25v-.1l.05-.2.15-.7z" transform="translate(11.95 -3.4)"/><path fill="url(#u)" d="m9.65 10.65-.25.45-.25-.25v-.1l.05-.2.15-.7.2-.05z" transform="translate(11.95 -3.4)"/><path fill="url(#v)" d="m11.25 8.8.2.05.15.7.05.2v.1l-.25.25-.25-.45z" transform="translate(11.95 -3.4)"/><path fill="url(#w)" d="m10.3 10.65.1-.85.2.05.15.7.05.2v.1l-.25.25q-.25 0-.25-.45" transform="translate(11.95 -3.4)"/><path fill="url(#x)" d="m13.25 7.25.15.7.05.2v.1l-.25.25q-.25 0-.25-.45l.1-.85z" transform="translate(11.95 -3.4)"/><path fill="url(#y)" d="m12.5 8.9-.25.25q-.25 0-.25-.45l.1-.85.2.05.15.7.05.2z" transform="translate(11.95 -3.4)"/><path fill="url(#z)" d="m12.65 7.35.2.2-.2.25-.15-.05-.05-.2zm-1.1.95.05-.05.1-.05.1.1.05.05.05.1-.05.05-.2.15-.2-.05-.05-.15q0-.15.15-.15m-.5 1.2-.1.2-.15.05-.15-.05v-.05l-.05-.15.2-.15V9.3l.05.05H11zm-2.65-1-.2.15-.15-.05L8 8.45l.1-.15.1-.05zm-.9-.85-.2.2-.2-.05-.05-.15q0-.25.4-.15zM9.25 9.7l-.2.15-.15-.05-.05-.15V9.6l.1-.15.1-.05.2.25zm.75.8.2.25-.2.15-.15-.05-.05-.15.1-.15z" transform="translate(11.95 -3.4)"/><path fill="url(#A)" d="m6.75 6.7-.05-.1.2-.5.25-.2.05.3v.25zm.3.2h.05l.05-.05.05-.05.1-.05.2-.1.1.05-.05.05-.05.05-.05.05-.1.15v.1l-.05.05v.15l-.1.1v.1l-.15.05-.3.05-.35-.2v-.1zm-.65-.15V6.6l-.05-.2q.2 0 .25.15v.25l-.25.1h.05z" transform="translate(11.95 -3.4)"/><path fill="#bf9b21" d="m19 3.5.1-.2.05-.1-.05.2zm.55-.2h.05l-.05.1-.15.15-.15.2.05-.05v-.1l.1-.15.05-.05.05-.05zm-.4.7.1-.1-.05.05-.1.2-.45.1-.35-.3V3.9l-.05-.15.1-.05V4l.35.2.3-.05.15-.05zm-.8-.4-.05-.1v-.2l-.05-.2.05-.1.05.2v.3h-.05l.05.05zm.3-.2.05-.05-.05-.05.05-.2-.05.1.05.1-.05.05z"/><path fill="url(#B)" d="m6.75 6.7.45-.25-.05.25-.1.2-.65.4v-.2h-.05L6.4 7v.05-.1l-.05-.05.25-.1h.1v-.05z" transform="translate(11.95 -3.4)"/><path fill="url(#C)" d="m13.15 6.7.05-.1-.2-.5-.25-.2-.05.3v.25zm-.3.2h-.05l-.05-.05-.05-.05-.1-.05-.2-.1-.1.05.05.05.05.05.05.05.1.15v.1l.05.05v.15l.1.1v.1l.15.05.3.05.35-.2v-.1zm.65-.15V6.6l.05-.2q-.2 0-.25.15v.25l.25.1h-.05z" transform="translate(11.95 -3.4)"/><path fill="#bf9b21" d="m24.8 3.5-.1-.2-.05-.1.05.2zm-.55-.2h-.05l.05.1.15.15.15.2-.05-.05v-.1l-.1-.15-.05-.05-.05-.05zm.4.7-.1-.1.05.05.1.2.45.1.35-.3V3.9l.05-.15-.1-.05V4l-.35.2-.3-.05-.15-.05zm.8-.4.05-.1v-.2l.05-.2-.05-.1-.05.2v.3h.05l-.05.05zm-.3-.2-.05-.05.05-.05-.05-.2.05.1-.05.1.05.05z"/><path fill="url(#D)" d="m13.15 6.7-.45-.25.05.25.1.2.65.4v-.2h.05L13.5 7v.05-.1l.05-.05-.25-.1h-.1v-.05z" transform="translate(11.95 -3.4)"/><path fill="#e7c349" d="m25.9 5.35 1 .2-.5.15-.3.25-.6-.4zm2.25.05-.9-.25h.6q.35-.25.85-.25.3 0 .3.4 0 .5-.4.5l-.2-.2h-.05zm-4 1 .4.3.35.25h-.15l-.15.2-.65-.6zm1.05.35-.6-.65.2-.15.7.4-.2.05-.1.2zm-1.7.1.3.4.1.4v-.1l-.15-.05q-.3 0-.3.3l-.2-.75.1-.05zM22.45 8.2v-.5l.3-.25.1.5q-.35 0-.4.25m-.9-.5v.5l-.4-.25.1-.5zm-1 .1-.3-.3-.15.05v.1l.1-.4.3-.4.15.15.1.05zm-1.15-.65-.15-.2h-.15l.35-.25.4-.3.2.15q-.5.35-.65.6m-.6-.4V6.6l-.1-.2-.2-.05.7-.4.2.15zm-.9-.8-.3-.25-.5-.15 1-.2.4.2zm-2.05-.55-.2.2h-.05l-.2.2q-.4 0-.4-.5 0-.4.3-.4l.85.25h.65q-.55 0-.95.25"/><path fill="#b18e18" d="m26.9 5.55-1-.2.55-.25.75.05h.05l.9.25q-.2 0-.45.45-.15.45-.55.3V6.1l.15-.25V5.6zm-1.4 0 .6.4.2.3.2.45-.4.1h-.15l-.1-.1-.05-.1-.25-.25h-.05l-.7-.4zm-1.35.85q.25-.2.45-.3l.6.65.2.4-.15.35q-.2 0-.2-.55h-.15l-.35-.25zm-.65.45.15-.1.3-.2.65.6.2.45q0 .4-.65.4-.2 0-.25-.35l-.1-.4zm-.25.2.2.75.2.35-.45.35-.35-.45v-.1l-.1-.5zm-.8 1.15.05.2h-.3l-.2-.15-.2.15h-.3l.05-.2v-.5l.45.4.45-.4zm-1.3-.25v.1l-.35.45q-.45 0-.45-.35l.2-.35.2-.75.5.4zm-1.05-.3-.25.35q-.65 0-.65-.4l.2-.45q.15-.25.65-.6l.3.2.15.1-.3.4zm-1-.7h-.15q0 .55-.2.55-.15 0-.15-.35l.2-.4.6-.65.45.3-.4.3zm-.95-.25-.1.1h-.15l-.4-.1.2-.45.2-.3.6-.4.7.4-.7.4h-.05q-.2 0-.25.25zm-1.3-.6v.05q-.4.15-.55-.3l-.45-.45q.4-.25.95-.25l.75-.05.55.25-1 .2-.4.05v.25z"/><path fill="#5b4c1a" d="M27.3 5.65v.2l-.15.25-.75-.4.5-.15zm-8.6.75-.3.15-.25.15.05-.1q.05-.25.25-.25h.05zm-1.1-.7-.75.4-.15-.25v-.2l.4-.1zm8.25 1-.25-.15-.3-.15.2-.05h.05l.25.25z"/></g></defs></svg>