<?xml version="1.0" encoding="UTF-8" standalone="no"?>
<svg xmlns:ffdec="https://www.free-decompiler.com/flash" xmlns:xlink="http://www.w3.org/1999/xlink" ffdec:objectType="frame" height="7.1px" width="14.1px" xmlns="http://www.w3.org/2000/svg">
  <g transform="matrix(1.0, 0.0, 0.0, 1.0, -1.25, -7.05)">
    <use ffdec:characterId="1" height="7.1" transform="matrix(1.0, 0.0, 0.0, 1.0, 1.25, 7.05)" width="14.1" xlink:href="#shape0"/>
  </g>
  <defs>
    <g id="shape0" transform="matrix(1.0, 0.0, 0.0, 1.0, -1.25, -7.05)">
      <path d="M11.0 9.75 L12.45 9.55 13.15 9.65 12.9 9.65 13.05 9.9 13.5 10.3 12.65 10.3 11.25 10.4 11.0 9.75 M9.2 11.25 L8.9 11.45 8.35 11.5 Q8.45 11.05 9.2 10.55 L9.2 11.25 M12.1 12.55 L14.05 12.25 Q15.35 11.85 15.35 11.65 L15.3 12.7 14.35 12.95 13.45 13.1 12.35 13.2 12.1 12.55 M9.1 12.8 Q8.5 12.6 8.3 12.25 L8.25 12.3 8.05 12.45 Q7.4 13.0 6.1 13.55 L5.75 13.7 5.5 13.05 5.8 12.95 6.7 12.5 5.15 12.4 5.1 12.3 4.8 11.55 4.85 11.55 6.7 9.95 4.55 9.85 4.45 8.85 5.2 7.7 Q5.0 7.9 4.4 8.15 L4.4 8.05 4.4 7.5 5.4 7.05 5.85 7.95 4.9 9.35 6.8 9.4 6.8 9.45 7.35 10.15 5.65 11.8 7.55 11.85 8.1 11.3 8.15 11.4 8.3 11.6 8.4 11.5 9.35 11.5 9.35 11.65 9.15 11.8 9.05 11.95 8.75 12.25 8.6 12.15 8.35 12.05 8.35 12.2 8.65 12.35 9.1 12.1 9.15 12.1 9.1 12.8" fill="#333333" fill-rule="evenodd" stroke="none"/>
      <path d="M11.25 10.4 Q10.05 10.6 9.2 11.25 L9.2 10.55 9.45 10.4 11.0 9.75 11.25 10.4 M12.35 13.2 L11.4 13.2 9.4 12.9 9.1 12.8 9.15 12.1 11.3 12.5 12.1 12.55 12.35 13.2 M5.75 13.7 L2.5 14.15 2.25 13.35 4.15 12.25 2.0 11.85 1.9 11.2 4.8 11.55 5.1 12.3 5.15 12.4 5.0 12.4 3.55 13.4 5.5 13.05 5.75 13.7 M4.55 9.85 L4.35 9.85 Q3.7 10.35 1.9 11.1 L1.8 10.5 3.5 9.65 Q2.2 9.5 1.45 9.15 L1.25 8.2 3.35 7.8 4.4 7.5 4.4 8.05 4.4 8.15 3.75 8.3 1.95 8.6 4.1 9.15 4.45 8.85 4.55 9.85" fill="#000000" fill-rule="evenodd" stroke="none"/>
    </g>
  </defs>
</svg>
