<?xml version="1.0" encoding="UTF-8" standalone="no"?>
<svg xmlns:ffdec="https://www.free-decompiler.com/flash" xmlns:xlink="http://www.w3.org/1999/xlink" ffdec:objectType="frame" height="7.6px" width="6.7px" xmlns="http://www.w3.org/2000/svg">
  <g transform="matrix(1.0, 0.0, 0.0, 1.0, -2.7, -5.9)">
    <use ffdec:characterId="8" height="7.6" transform="matrix(1.0, 0.0, 0.0, 1.0, 2.7, 5.9)" width="6.7" xlink:href="#shape0"/>
  </g>
  <defs>
    <g id="shape0" transform="matrix(1.0, 0.0, 0.0, 1.0, -2.7, -5.9)">
      <path d="M7.95 10.9 Q7.4 11.6 6.0 11.8 L4.6 10.45 5.75 10.5 Q5.5 9.0 6.2 7.3 L7.55 9.5 8.2 8.95 7.95 10.9" fill="#d97000" fill-rule="evenodd" stroke="none"/>
      <path d="M6.0 11.8 L5.15 11.9 2.75 9.6 4.85 9.7 Q4.85 7.95 6.3 5.9 L7.75 8.45 Q7.85 7.55 9.25 7.2 L8.6 10.4 7.95 10.9 8.2 8.95 7.55 9.5 6.2 7.3 Q5.5 9.0 5.75 10.5 L4.6 10.45 6.0 11.8" fill="#ffcc33" fill-rule="evenodd" stroke="none"/>
      <path d="M5.15 11.9 L6.0 11.8 Q7.4 11.6 7.95 10.9 L8.6 10.4 Q9.45 10.95 9.25 11.75 L9.1 12.05 Q8.1 13.35 6.05 13.5 L5.55 13.4 Q4.6 12.75 4.85 12.05 L5.15 11.9" fill="#4b216d" fill-rule="evenodd" stroke="none"/>
      <path d="M9.1 12.05 Q8.1 13.35 6.05 13.5 L5.55 13.4 Q4.9 12.95 4.8 12.5 L5.2 12.5 6.55 12.5 Q7.6 12.3 8.8 11.25 L9.05 10.8 Q9.4 11.2 9.25 11.75 L9.1 12.05" fill="#2d1441" fill-rule="evenodd" stroke="none"/>
      <path d="M8.3 10.55 Q8.5 10.4 8.6 10.4 8.9 10.4 9.15 10.65 L9.4 11.35 Q9.45 11.8 9.0 12.3 L8.35 12.7 8.65 12.0 8.55 11.8 8.15 11.95 7.55 12.25 7.1 12.4 8.15 11.65 8.3 11.45 8.45 11.05 Q8.45 10.7 8.2 10.65 L8.3 10.55" fill="#cd6af2" fill-rule="evenodd" stroke="none"/>
      <path d="M4.75 10.6 Q5.75 11.2 6.5 11.05 L6.0 10.3 5.8 9.4 5.85 8.5 6.2 7.35 6.25 7.75 6.2 8.15 Q6.3 10.45 7.25 10.85 L8.1 9.05 Q8.3 8.95 8.1 10.1 7.9 11.25 7.55 11.35 7.15 11.65 6.55 11.75 L6.05 11.8 4.55 10.5 4.75 10.6" fill="#a45600" fill-rule="evenodd" stroke="none"/>
      <path d="M4.75 9.6 L5.35 10.25 Q3.95 9.55 2.7 9.6 2.7 9.25 3.75 9.25 4.2 9.25 4.75 9.6 M9.25 7.2 L8.45 7.7 7.85 8.4 7.55 8.95 6.95 7.8 6.25 6.05 7.2 7.35 7.7 7.9 Q8.1 7.25 9.2 7.15 L9.25 7.2" fill="#ffff99" fill-rule="evenodd" stroke="none"/>
    </g>
  </defs>
</svg>
