<?xml version="1.0" encoding="UTF-8" standalone="no"?>
<svg xmlns:ffdec="https://www.free-decompiler.com/flash" xmlns:xlink="http://www.w3.org/1999/xlink" ffdec:objectType="frame" height="13.55px" width="11.0px" xmlns="http://www.w3.org/2000/svg">
  <g transform="matrix(1.0, 0.0, 0.0, 1.0, 0.85, -1.6)">
    <use ffdec:characterId="7" height="13.55" transform="matrix(1.0, 0.0, 0.0, 1.0, -0.85, 1.6)" width="11.0" xlink:href="#shape0"/>
  </g>
  <defs>
    <g id="shape0" transform="matrix(1.0, 0.0, 0.0, 1.0, 0.85, -1.6)">
      <path d="M5.9 6.9 L5.7 6.85 Q7.85 5.45 7.85 6.5 7.85 7.55 6.65 7.55 L6.3 7.2 Q6.15 6.9 5.9 6.9" fill="#3c0000" fill-rule="evenodd" stroke="none"/>
      <path d="M0.6 1.7 L0.6 1.75 0.45 1.7 0.6 1.8 0.65 2.0 -0.3 1.65 0.6 1.7" fill="#000000" fill-rule="evenodd" stroke="none"/>
      <path d="M3.65 3.05 L3.3 3.8 1.35 3.3 Q0.35 3.0 -0.65 2.5 L-0.8 2.45 Q-0.75 1.8 -0.3 1.65 L0.65 2.0 2.3 2.55 3.7 2.9 3.65 3.05" fill="#bbbbbb" fill-rule="evenodd" stroke="none"/>
      <path d="M3.85 2.7 L3.65 3.05 3.7 2.9 2.3 2.55 0.65 2.0 0.6 1.8 0.45 1.7 0.6 1.75 0.6 1.7 0.8 1.75 1.7 1.95 Q2.25 2.05 3.85 2.7 M3.3 3.8 L2.8 4.55 2.6 4.9 2.0 4.1 1.45 3.45 1.35 3.3 3.3 3.8 M8.55 13.6 L6.9 11.05 6.75 10.9 6.15 10.0 3.4 6.1 2.85 5.25 4.1 3.0 Q4.1 3.55 4.8 4.65 5.5 5.85 6.55 7.25 L6.95 7.75 7.5 8.45 8.0 9.15 9.1 10.6 10.0 11.95 Q10.3 12.4 9.95 12.55 L8.6 13.55 8.55 13.6" fill="#2a2a2a" fill-rule="evenodd" stroke="none"/>
      <path d="M3.85 2.7 L4.1 2.85 4.1 3.0 2.85 5.25 3.4 6.1 6.15 10.0 6.75 10.9 6.9 11.05 8.55 13.6 7.15 14.9 Q6.35 15.8 5.2 13.7 L4.1 11.8 1.55 7.8 1.2 7.2 1.15 7.15 Q0.0 5.3 -0.5 4.1 L-0.85 2.65 -0.8 2.45 -0.65 2.5 Q0.35 3.0 1.35 3.3 L1.45 3.45 2.0 4.1 2.6 4.9 2.8 4.55 3.3 3.8 3.65 3.05 3.85 2.7" fill="#121212" fill-rule="evenodd" stroke="none"/>
      <path d="M1.55 3.4 L1.35 3.3 Q0.35 3.0 -0.65 2.5 L-0.8 2.45 Q-0.75 1.8 -0.3 1.65 L0.65 2.0 0.9 2.1 1.55 3.4" fill="#9a9a9a" fill-rule="evenodd" stroke="none"/>
      <path d="M0.9 2.1 L2.3 2.55 3.15 2.8 3.7 2.9 3.3 3.8 1.55 3.4 0.9 2.1" fill="#ffffff" fill-rule="evenodd" stroke="none"/>
      <path d="M3.25 4.6 L3.4 4.3 6.0 7.75 9.65 12.7 9.4 12.85 5.75 7.85 3.25 4.6" fill="#c2c2c2" fill-rule="evenodd" stroke="none"/>
      <path d="M3.4 4.3 L3.25 4.6 3.0 4.25 3.15 4.0 3.25 4.1 3.4 4.3" fill="#000000" fill-rule="evenodd" stroke="none"/>
      <path d="M2.9 2.6 Q2.85 2.45 3.05 2.35 L3.1 2.35 3.3 2.5 3.2 2.8 2.95 2.8 2.9 2.7 2.9 2.6" fill="#ffffff" fill-rule="evenodd" stroke="none"/>
      <path d="M3.5 2.3 L3.55 2.35 3.55 2.5 3.6 2.6 3.55 2.65 3.55 2.7 3.45 3.0 3.4 3.05 Q3.05 3.35 2.7 3.3 L2.1 2.85 Q1.7 2.3 2.35 1.9 L2.9 1.8 3.15 1.9 3.2 1.95 3.35 2.15 3.5 2.3 M3.1 2.35 L3.05 2.25 2.95 2.2 Q2.65 2.55 2.6 2.35 L2.6 2.1 Q2.75 1.95 3.05 1.9 L2.45 2.05 Q2.2 2.25 2.3 2.65 2.35 3.05 2.75 3.0 L2.95 3.0 2.6 2.7 2.65 2.7 2.9 2.6 2.9 2.7 2.95 2.8 3.2 2.8 3.3 2.5 3.1 2.35" fill="#a87b0d" fill-rule="evenodd" stroke="none"/>
      <path d="M2.9 2.6 L2.65 2.7 2.6 2.7 2.95 3.0 2.75 3.0 Q2.35 3.05 2.3 2.65 2.2 2.25 2.45 2.05 L3.05 1.9 Q2.75 1.95 2.6 2.1 L2.6 2.35 Q2.65 2.55 2.95 2.2 L3.05 2.25 3.1 2.35 3.05 2.35 Q2.85 2.45 2.9 2.6" fill="#ffd88e" fill-rule="evenodd" stroke="none"/>
      <path d="M2.45 10.05 L2.15 9.55 3.1 9.3 Q4.6 8.85 5.7 8.2 L6.5 7.6 7.8 6.35 7.85 6.2 8.05 6.65 Q7.25 8.0 5.85 8.8 L5.55 8.95 Q4.05 9.65 2.45 10.05 M8.3 7.15 L8.95 8.3 9.1 8.55 Q8.35 9.65 7.05 10.4 L7.0 10.45 4.75 11.4 3.25 11.5 2.85 10.75 2.7 10.4 5.5 9.4 6.0 9.15 7.45 8.15 8.3 7.15 M9.2 8.75 L9.35 8.95 8.1 10.3 7.45 10.8 6.15 11.45 3.65 12.05 3.4 11.7 Q5.1 11.65 6.7 10.85 L7.2 10.6 Q8.45 9.85 9.2 8.75 M9.45 9.2 L9.75 9.55 8.35 10.75 7.85 11.1 6.85 11.7 5.3 12.3 4.0 12.5 3.75 12.25 3.75 12.2 Q5.5 12.1 7.05 11.2 L7.55 10.9 9.45 9.2" fill="#990000" fill-rule="evenodd" stroke="none"/>
      <path d="M8.05 6.65 L8.3 7.15 7.45 8.15 6.0 9.15 5.5 9.4 2.7 10.4 2.45 10.05 Q4.05 9.65 5.55 8.95 L5.85 8.8 Q7.25 8.0 8.05 6.65 M9.1 8.55 L9.2 8.75 Q8.45 9.85 7.2 10.6 L6.7 10.85 Q5.1 11.65 3.4 11.7 L3.25 11.5 4.75 11.4 7.0 10.45 7.05 10.4 Q8.35 9.65 9.1 8.55 M9.35 8.95 L9.45 9.2 7.55 10.9 7.05 11.2 Q5.5 12.1 3.75 12.2 L3.65 12.05 6.15 11.45 7.45 10.8 8.1 10.3 9.35 8.95" fill="#ffffff" fill-rule="evenodd" stroke="none"/>
      <path d="M2.45 10.05 L2.15 9.55 3.1 9.3 Q4.6 8.85 5.7 8.2 L5.8 8.55 5.85 8.8 5.55 8.95 Q4.05 9.65 2.45 10.05 M6.0 9.15 Q6.3 9.9 7.0 10.45 L4.75 11.4 3.25 11.5 2.85 10.75 2.7 10.4 5.5 9.4 6.0 9.15 M7.2 10.6 L7.45 10.8 6.15 11.45 3.65 12.05 3.4 11.7 Q5.1 11.65 6.7 10.85 L7.2 10.6 M7.55 10.9 L7.85 11.1 6.85 11.7 5.3 12.3 4.0 12.5 3.75 12.25 3.75 12.2 Q5.5 12.1 7.05 11.2 L7.55 10.9" fill="#4d0000" fill-rule="evenodd" stroke="none"/>
      <path d="M5.85 8.8 L6.0 9.15 5.5 9.4 2.7 10.4 2.45 10.05 Q4.05 9.65 5.55 8.95 L5.85 8.8 M7.0 10.45 L7.1 10.5 7.2 10.6 6.7 10.85 Q5.1 11.65 3.4 11.7 L3.25 11.5 4.75 11.4 7.0 10.45 M7.45 10.8 L7.55 10.9 7.05 11.2 Q5.5 12.1 3.75 12.2 L3.65 12.05 6.15 11.45 7.45 10.8" fill="#9c9c9c" fill-rule="evenodd" stroke="none"/>
      <path d="M3.85 3.45 L4.0 3.55 4.15 3.7 4.4 4.4 4.4 4.55 4.25 4.6 4.25 4.55 3.9 4.0 3.85 3.45 M4.95 5.55 L5.15 5.65 5.45 6.2 5.35 6.4 5.2 6.35 5.0 6.15 4.9 6.1 4.8 6.0 4.85 5.6 4.95 5.55 M5.55 7.7 L5.55 7.75 5.65 8.05 5.65 8.2 5.65 8.25 5.65 8.35 5.55 8.55 5.45 8.45 5.4 8.4 5.25 8.05 5.2 7.85 5.4 7.7 5.45 7.7 5.55 7.7 M5.05 9.8 L5.05 9.9 5.1 9.95 5.05 10.15 4.95 10.35 4.75 10.5 4.7 10.5 4.55 10.35 4.45 10.25 4.4 10.1 Q4.4 9.8 4.7 9.8 L4.9 9.85 4.9 9.75 5.0 9.85 5.0 9.8 5.05 9.8 M3.85 11.3 Q3.8 11.6 3.45 11.6 L3.3 11.7 3.05 11.6 3.35 11.4 3.25 11.25 3.3 11.15 3.45 11.1 3.85 11.3 M3.65 10.7 L3.65 10.65 3.6 10.55 3.65 10.45 Q3.65 10.15 3.9 10.0 L4.1 10.0 4.15 10.2 4.2 10.3 4.25 10.35 4.35 10.35 4.25 10.5 4.25 10.55 3.9 10.8 3.65 10.7 M4.4 9.5 L4.5 9.5 4.6 9.35 4.5 9.15 4.55 9.0 Q4.55 8.7 4.7 8.65 L4.8 8.55 4.9 8.5 4.9 8.55 5.0 8.55 5.1 8.6 Q5.3 8.5 5.3 8.9 L5.3 9.0 5.25 9.2 5.1 9.35 4.9 9.45 4.85 9.45 4.8 9.55 4.75 9.5 4.4 9.5 M5.0 7.45 L5.05 7.45 4.85 7.2 4.7 6.75 4.7 6.55 4.95 6.6 5.0 6.6 5.05 6.6 5.15 6.75 5.35 7.05 5.25 7.4 5.0 7.45 M4.4 5.8 L4.4 5.65 4.4 5.6 4.35 5.5 4.25 5.45 4.0 5.2 3.85 4.8 3.85 4.7 3.9 4.7 4.05 4.75 4.2 4.75 4.4 4.95 4.6 5.25 4.6 5.5 4.4 5.8" fill="#facd62" fill-rule="evenodd" stroke="none"/>
      <path d="M3.85 4.7 L3.75 4.55 Q3.4 4.4 3.4 3.9 L3.45 3.7 Q3.45 3.2 3.85 3.35 L3.85 3.45 3.9 4.0 4.25 4.55 4.25 4.6 4.4 4.55 4.75 4.7 5.0 5.25 4.95 5.55 4.85 5.6 4.8 6.0 4.9 6.1 5.0 6.15 5.2 6.35 5.35 6.4 5.5 6.5 5.75 7.05 5.55 7.7 5.45 7.7 5.4 7.7 5.2 7.85 5.25 8.05 5.4 8.4 5.45 8.45 5.55 8.55 5.6 8.6 5.7 9.0 5.55 9.45 5.1 9.8 5.05 9.8 5.0 9.8 5.0 9.85 4.9 9.75 4.9 9.85 4.7 9.8 Q4.4 9.8 4.4 10.1 L4.45 10.25 4.55 10.35 4.7 10.5 4.65 10.65 4.5 11.05 4.1 11.25 4.0 11.25 3.85 11.3 3.45 11.1 3.3 11.15 3.25 11.25 3.35 11.4 3.05 11.6 2.95 11.6 2.8 11.45 2.75 11.25 Q2.75 10.75 3.4 10.7 L3.55 10.7 3.65 10.7 3.9 10.8 4.25 10.55 4.25 10.5 4.35 10.35 4.25 10.35 4.2 10.3 4.15 10.2 4.1 10.0 4.1 9.9 Q4.1 9.65 4.35 9.55 L4.4 9.5 4.75 9.5 4.8 9.55 4.85 9.45 4.9 9.45 5.1 9.35 5.25 9.2 5.3 9.0 5.3 8.9 Q5.3 8.5 5.1 8.6 L5.0 8.55 4.9 8.55 4.9 8.5 4.85 8.35 4.8 7.95 4.85 7.55 5.0 7.45 5.25 7.4 5.35 7.05 5.15 6.75 5.05 6.6 5.0 6.6 4.95 6.6 4.7 6.55 Q4.4 6.4 4.4 5.9 L4.4 5.8 4.6 5.5 4.6 5.25 4.4 4.95 4.2 4.75 4.05 4.75 3.9 4.7 3.85 4.7" fill="#580000" fill-rule="evenodd" stroke="none"/>
      <path d="M3.85 3.4 L3.8 3.45 Q3.55 4.0 4.15 4.45 L4.2 4.75 4.2 4.85 4.25 4.9 4.6 5.35 4.65 5.8 4.7 5.85 4.8 6.0 4.9 6.1 4.95 6.6 4.9 6.65 4.9 6.75 5.3 7.3 5.45 7.55 5.4 7.6 Q5.05 7.7 5.05 8.2 L5.05 8.25 5.0 8.55 4.9 9.45 4.9 9.55 4.8 9.55 4.35 9.9 4.35 10.0 4.2 10.3 3.65 10.65 3.6 10.55 3.65 10.45 Q3.65 10.15 3.9 10.0 L4.1 10.0 4.1 9.9 Q4.1 9.65 4.35 9.55 L4.4 9.5 4.5 9.5 4.6 9.35 4.5 9.15 4.55 9.0 Q4.55 8.7 4.7 8.65 L4.8 8.55 4.9 8.5 4.85 8.35 4.8 7.95 4.85 7.55 5.0 7.45 5.05 7.45 4.85 7.2 4.7 6.75 4.7 6.55 Q4.4 6.4 4.4 5.9 L4.4 5.8 4.4 5.65 4.4 5.6 4.35 5.5 4.25 5.45 4.0 5.2 3.85 4.8 3.85 4.7 3.75 4.55 Q3.4 4.4 3.4 3.9 L3.45 3.7 Q3.45 3.2 3.85 3.35 L3.85 3.4 M3.55 10.7 L2.95 11.6 2.8 11.45 2.75 11.25 Q2.75 10.75 3.4 10.7 L3.55 10.7" fill="#000000" fill-opacity="0.29803923" fill-rule="evenodd" stroke="none"/>
    </g>
  </defs>
</svg>
