<svg xmlns="http://www.w3.org/2000/svg" xmlns:ffdec="https://www.free-decompiler.com/flash" xmlns:xlink="http://www.w3.org/1999/xlink" ffdec:objectType="frame" width="24.3" height="27.3"><use ffdec:characterId="3" xlink:href="#a" width="24.3" height="27.3"/><defs><g id="a" fill-rule="evenodd"><path fill="#fff" d="m5.4 26.3-.8-.2-.3-.5-.05-.05-.7.25q-.85 0-1.1-.95l-.25.2-.7.1q-.95 0-1.5-.6l1.2-1 .25-.25.35.2.8.15.75.25 2.05.35-.4-.05q-.25-.1-.3.3h.05zm.3-2 2.15.35.65.1.3-.05 2.8.45 1.4-.1 1.05-.3.5-.05.7.05.5-.2q4.65-.55 6.8-1.45l1.75 1.55-.95.85h-.7l-.75-.35q.05 1-.5 1-.45 0-.9-.45-.2.9-.75.9l-.5-.1.25-.6.15-1.25-3.45.55-4.15.45q-3.15.05-5.9-1.2zm6.85 1.05h-.15.15"/><path fill="#cde2f5" d="m5.4 24.25.3.05.45.15q2.75 1.25 5.9 1.2l4.15-.45 3.45-.55-.15 1.25-.25.6-.2-.15-.35-.35-.15.6-.6.35-.65-.15-.35-.3-.05-.05q-.3.85-.75.85l-.75-.2-.4-.3q-.3.5-.95.5l-.85-.25-.3-.4q-.35.6-1.3.6-.5 0-.9-.3l-.35-.3-.35.3-.85.2q-.45 0-.7-.3l-.3-.45q0 .3-.85.3-.95 0-1.15-.75-.25.35-.75.35l-.65-1.8H4.7q.05-.4.3-.3z"/><path fill="#aacd00" d="M23.25 23.5q-5.05 2.6-10.7 2.55l-1.4-.05h-.05Q6.2 25.7.9 23.5l.25-1.25 1.6 1.35.05.05h.1l.75.3.85.25.25.05h.05l3.9.95 2.25.2.95.05h1.25l3.05-.2q2.05-.3 1.4-.35-.7-.05.6-.4l2.55-.7v-.05l.65-.1v-.05l.25-.05.1.1.15-.1v-.1l1.2-.6zM12.45.65l.05.05V.65l1.45 1.5.55.8.45.6 2.05 3q3.5 5.2 5.95 15.7l-1.35.8-.05-.05-.1.05-.15-.05.35-.5-.15-.2-.45-.1.05-.05.45-.65-.3-.25-.55.15.5-.5.25-.45-.3-.3h-.35l-.15.05.4-.9q0-.45-.9-.55l.4-.45.1-.45q0-.4-.5-.35l.2-.45q0-.55-.8-.45l.4-.9-.05-.4-.9-.25.45-.85q-.05-.6-.7-.6l-.2.05.2-.85-.05-.35-.55-.2.2-.5q0-.6-.7-.7l.25-.6q0-.55-.8-1l.25-.5q0-.55-.55-.6l.35-.5q0-.3-.8-.5l.05-.05.3-.55-.15-.4-.5-.25q.2-1-1-1.05l-.1-.2.1-.6-.2-.7h-.3l.25.75-.1.55.2.4.1.15q.85-.25.85.4l-.2.25v.25q.8.15.8.45L16 7.4l.4.3.5.1-.3.3-.15.25.35.25.3.35-.2.35-.2.3.05.15.7.2.2.5-.35.8.65.25.15.25-.3.6.05.15.55.05.1.25-.3 1.05.05.15.55-.1q.4 0 .4.3l-.5.85v.3h.8l.2.35-.5 1 .05.15.7.05.15.15-.25.35-.25.3.05.15h.75l-.45.55-.25.45.05.15q1.05 0 1.05.3l-.6 1 .05.15h.9l-.05.45-.5.4-.3.2.05.15h.4l.5-.1-.7.75.05.15.8.1-.65.65.05.15.05.05-.45.1-.05-.15.1-.05-.15-.25-.1-.2-.4-1.45-.05-.25h-.05l-.2-.75v-.1l-.05-.1-.1-.3.05-.05-.1-.1-.1-.45.05-.05-.1-.1-.05-.1-.25-.85-1-3.7-.15-.55-.2-.65-.2-.6-.25-.8v.05L16.4 9.9l-.7-2.35-.35-1.15-.05-.05-.45-1.1h-.1v.25l.25.75q-.15 0-.3.15l-1-2.85h-.4l2.1 5.95v.1l1 2.75 2.95 11.25v.15l-1.1.35.2-.25-.55.2-.05.05-.15-.15q0-.15.85-.65l-.1-.1-.9-.1v-.35l.75-.6-.15-.1-.75-.15-.15-.15.2-.4.45-.35-.1-.1q-.9 0-.9-.4l.2-.35.45-.4-.15-.1-.75-.15-.05-.25.2-.3.35-.45-.1-.1-.65-.15-.05-.2.2-.45.5-.35-.15-.1h-.55l-.2-.35.3-.4.4-.45-.1-.1-.7-.15-.05-.25.2-.5.5-.5-.2-.1-.8-.05-.15-.3.15-.3.4-.35-.1-.1h-.9v-.4l.35-.45.3-.35-.15-.1-.8-.25.6-.6-.95-.65.4-.9-.15-.1-.55-.1-.05-.2q0-.2.15-.3l.35-.35-.05-.05-.15-.05h-.5l-.15-.25.2-.4.3-.25q-.65-.3-.65-.65l.15-.35.3-.4-.25-.15q-.45.25-.45.9l.4.75q-.25.1-.25.55t.5.55q-.15.05-.15.45l.05.3.45.25q-.15.25-.15.7l.1.45.55.4-.3.45.7.55-.05.05-.35.35v.4q0 .45.55.5l-.1.45q0 .4.75.7l-.05.1q-.25.2-.25.7l.05.3.5.25-.05.05-.25.4-.1.35q0 .4.55.6-.35.05-.35.6l.05.35.5.25-.05.05q-.25.15-.25.6l.05.35.6.3-.05.05-.2.25-.1.25q0 .5.65.7-.3.2-.3.5 0 .45.7.6l-.05.05-.35.25v.6l.45.25-.3.5.1.35-2.75.3-2.5-.05-.1-1.95v-3.25l.1-3 .05-2.4-.05-3.05q-.1-1.5-.05-3.15l.3-3.75v-.45h-.6l-.05.75-.1 2.65h.05-.05V8.2l-.1 3.95-.2 3.85.05 4-.25 3.95-.1.85-.75.05-3.4-.4v-.05L6.6 24l.1-.05.6-.2.25-.25-.45-.55q.8-.35.8-.55l-.2-.35-.3-.3.5-.55-.45-.55.5-.5-.3-.35.1-.05.5-.2.15-.3-.6-.6.1-.05.85-.6-.1-.3-.35-.25.5-.2.2-.35-.45-.65.75-.6-.45-.65.85-.7-.2-.45-.25-.35.7-.6-.2-.35-.25-.3.65-.35.15-.35-.15-.35-.3-.4Q11 10.5 11 10l-.4-.9q.85-.4.85-.95l-.2-.45-.3-.4.45-.65-.3-.6-.4-.2q.1-.5.6-.95.6-.5.6-1.35h-.2l-.25.85-.85.8-.15.5h-.2l-.2.7h-.1l.8-1.85.45-1h-.4l-.15.25q-.45.6-.7 1.5L9.1 7.7q-.65 1.5-1.2 3.8l-.45 1.75-.2.75H7.2v.15l-.3.8-.5 1.55-.5 1.9-.45 1.8-.6 1.8-.7 1.3-.65.1.1-.15-.4-.3-.3-.45q0-.35.55-.45l.5-.3-.25-.25-.25-.55q0-.25.45-.4l.4-.3-.15-.4L4 19.4q0-.25.45-.55l.45-.3-.35-.7q0-.35.35-.65l.3-.35-.25-.8.15-.4q.2-.35.75-.15l.15-.25-.15-.55-.2-.5q0-.35.15-.5l.6-.35q-.35-.6-.35-.85 0-.75.95-.8l.05-.15-.4-.7q0-.35.45-.55l.45-.25-.15-.35-.15-.35.2-.5q.3-.3.8-.35l.05-.15-.2-.55.2-.65.5-.2.35-.3q0-.75.3-1.15l.05.35V5.4l.2-.15-.1-.1-.05.05q.15-1 .9-1.65h-.25q-.8.55-1 1.25l.15.5q-.45.3-.45 1.2-.65.15-.9.55-.15.25-.15.75l.1.45Q7 8.75 7 9.4l.2.6q-.8.05-.8.85l.25.65-.65.35-.2.65.25.75q-.65.25-.65.95l.3 1q-1-.1-1 .9l.2.65-.3.4q-.3.35-.3.7l.25.7q-.35-.05-.6.3l-.2.55.25.8q-.8.25-.8.75l.35.8q-.9.15-.9.75l.2.5-.2-.15V23l-1.2-.95-.25-.2Q3.45 10.8 9.65 3.55l1.85-2 .15-.15.05-.05.5-.5h.05zM5.2 22.15l.2-.6.3.1-.15.6zm-.05.25.35.15-.15.4L5 22.8l.05-.15zm-2.25.75v-.05l.1.1zm2.7-2.45.35.15-.15.55-.35-.15zm.25-.5h.25l-.1.4-.3-.15.1-.4zm.5-.95h-.3l.1-.45h.25l-.05.3zm-.4.25h.3l-.1.45h-.3zm.45-1.55.15.05-.1.55h-.2zm.2-.8.1.05-.1.55-.15-.05zm.3-1.05.05.05-.2.75h-.1l.2-.75zm.2-.85.1.05-.2.65-.05-.05zm.45-.95-.1.25-.15.5-.1-.05.2-.7zm.05-.75h.25L7.7 14l-.2-.05zm.5-.8-.15.5H7.7l.15-.55zm.25-1.6h.25l-.05.25-.25-.05zm-.15.55v.05l.3-.15-.3.95-.25-.1.05-.2zm.7-2.3.25.05L9 9.9l-.3.1zm-.25.85h.05l.15.35-.15.25h-.25zm.6-1.85.05.1.15-.05-.2.75-.2-.05H9zm.3-.9.2-.1-.2.75H9.4l-.1.1zm.35-.9v.05h.1l-.15.5H9.7zm.95-.35.3.4-.65.6.35.4.35.5-.45.55q-.5.3-.5.35l.25.4.25.5-.55.5q-.6.2-.6.35l.45.7-.4.4q-.45.2-.45.3l.25.35.25.35-.35.3-.4.3.25.4.25.35-.4.35q-.45.15-.45.4l.45.65-.55.3-.2.25.45.75-.6.2-.2.2.3.4.25.35-.7.25q-.3.05-.3.25 0 .35.65.65l-.05.1-.85.25.15.3.25.3-.35.2-.25.35.6.45q0 .15-.4.3-.35.15-.35.35.25.05.75.55l-.95.4.25.4.3.35-.6.15-.45.25.2.25.2.1-.55-.1-.05-.1h-.3l-.4-.25L6 22l.3-1.15v-.1l.15-.6.05-.1-.05-.05.05-.3.35-1.8v-.05l.1-.6.05-.15v-.05l.45-1.7.1-.15-.05-.05.05-.15.3-.8v-.05l1.1-3.1v-.2L9.6 9.1l.8-2.5.05-.1-.05-.05.1-.25v.2l.05-.3.15.05V6.1zm5.75 5.4-.1.05-.15-.4h.15zm-.3-.55-.15-.4.15-.05.15.4zm-.6-1.8-.1-.4.15-.1.15.5zm.3.9.1-.05.05-.1.1.4h-.15zm.1-.3h-.2l-.1-.4.15-.05zm-.5-1.7.1.4-.2.05-.15-.4zm-.05-.15-.25.05-.15-.45.2-.15zm-.75-1.4.25-.15.25.85-.25.05zM5.3 23.2l-.15.55-.1-.1q-.2-.2-.1-.55zm14.3.5v-.1l-.2-1.2.4-.2.05.3q-.35.05-.35.25l.1.2.35-.1.1.25h-.5l.1.25h.45l.1.25h-.15zm-.4-2.25h.35l.15.5-.2.05-.15.15zm-.1-.35.15-.1h.2l.05.2-.35.05zm.2-.55.05.2h-.15l-.2.1-.05-.25zm-.15-.5.05.2-.3.1-.1-.35.15.1zm-.25-.9h-.1l-.15.15-.1-.3.25-.15zm-.2.45.3-.15.1.35q-.25.05-.3.2zm-.15-1.3h.1l.1.35-.2.05-.05.05-.1-.3v-.1zm-1.6-5.15.1-.05.1.3H17zm-.2-.65h.15l.1.4-.1.05zm-.1-.3-.1-.25.15-.1.1.35zm1.8 5.5.1.35-.25.05-.05-.3zM18 17l.2-.1.1.2-.25.05zm.2.6-.05-.15.2-.1.05.15zm-.35-1.2.2-.05.1.3H18l-.05.05zm.1-.35-.15.05-.05-.2.15-.1zm-.3-.5-.05-.25.1-.05.1.25zm-.25-.85.1-.1.1.35-.1.05zm-.15-.5.1-.05.1.3h-.05l-.05.05zm-.05-.6.1.3h-.1l-.1-.3z"/><path fill="#819c00" d="m23.1 22.85-1.2.6v.1l-.15.1-.1-.1-.25.05v.05l-.65.1v.05l-2.55.7q-1.3.35-.6.4.65.05-1.4.35l-3.05.2H11.9l-.95-.05-2.25-.2-3.9-.95h-.05l-.25-.05-.85-.25-.75-.3h-.1l-.05-.05-1.6-1.35.05-.4.25.2 1.2.95v-.15l.2.15-.2-.5q0-.6.9-.75l-.35-.8q0-.5.8-.75l-.25-.8.2-.55q.25-.35.6-.3l-.25-.7q0-.35.3-.7l.3-.4-.2-.65q0-1 1-.9l-.3-1q0-.7.65-.95l-.25-.75.2-.65.65-.35-.25-.65q0-.8.8-.85L7 9.4q0-.65.95-1.15l-.1-.45q0-.5.15-.75.25-.4.9-.55 0-.9.45-1.2l-.15-.5q.2-.7 1-1.25h.25q-.75.65-.9 1.65l.05-.05.1.1-.2.15v.45l-.05-.35q-.3.4-.3 1.15l-.35.3-.5.2-.2.65.2.55-.05.15q-.5.05-.8.35l-.2.5.15.35.15.35-.45.25q-.45.2-.45.55l.4.7-.05.15q-.95.05-.95.8 0 .25.35.85l-.6.35q-.15.15-.15.5l.2.5.15.55-.15.25q-.55-.2-.75.15l-.15.4.25.8-.3.35q-.35.3-.35.65l.35.7-.45.3q-.45.3-.45.55l.15.45.15.4-.4.3q-.45.15-.45.4l.25.55.25.25-.5.3q-.55.1-.55.45l.3.45.4.3-.1.15.65-.1.7-1.3.6-1.8.45-1.8.5-1.9.5-1.55.3-.8V14h.05l.2-.75.45-1.75q.55-2.3 1.2-3.8l.85-2.4q.25-.9.7-1.5l.15-.25h.4l-.45 1-.8 1.85h.1l.2-.7h.2l.15-.5.85-.8.25-.85h.2q0 .85-.6 1.35-.5.45-.6.95l.4.2.3.6-.45.65.3.4.2.45q0 .55-.85.95l.4.9q0 .5-1.15.8l.3.4.15.35-.15.35-.65.35.25.3.2.35-.7.6.25.35.2.45-.85.7.45.65-.75.6.45.65-.2.35-.5.2.35.25.1.3-.85.6-.1.05.6.6-.15.3-.5.2-.1.05.3.35-.5.5.45.55-.5.55.3.3.2.35q0 .2-.8.55l.45.55-.25.25-.6.2-.1.05.45.4v.05l3.4.4.75-.05.1-.85.25-3.95-.05-4 .2-3.85.1-3.95V6.95h.05-.05l.1-2.65.05-.75h.6V4l-.3 3.75q-.05 1.65.05 3.15l.05 3.05-.05 2.4-.1 3v3.25l.1 1.95 2.5.05 2.75-.3-.1-.35.3-.5-.45-.25v-.6l.35-.25.05-.05q-.7-.15-.7-.6 0-.3.3-.5-.65-.2-.65-.7l.1-.25.2-.25.05-.05-.6-.3-.05-.35q0-.45.25-.6l.05-.05-.5-.25-.05-.35q0-.55.35-.6-.55-.2-.55-.6l.1-.35.25-.4.05-.05-.5-.25-.05-.3q0-.5.25-.7l.05-.1q-.75-.3-.75-.7l.1-.45q-.55-.05-.55-.5v-.4l.35-.35.05-.05-.7-.55.3-.45-.55-.4-.1-.45q0-.45.15-.7l-.45-.25-.05-.3q0-.4.15-.45-.5-.1-.5-.55t.25-.55l-.4-.75q0-.65.45-.9l.25.15-.3.4-.15.35q0 .35.65.65l-.3.25-.2.4.15.25h.5l.15.05.05.05-.35.35q-.15.1-.15.3l.05.2.55.1.15.1-.4.9.95.65-.6.6.8.25.15.1-.3.35-.35.45v.4h.9l.1.1-.4.35-.15.3.15.3.8.05.2.1-.5.5-.2.5.05.25.7.15.1.1-.4.45-.3.4.2.35h.55l.15.1-.5.35-.2.45.05.2.65.15.1.1-.35.45-.2.3.05.25.75.15.15.1-.45.4-.2.35q0 .4.9.4l.1.1-.45.35-.2.4.15.15.75.15.15.1-.75.6v.35l.9.1.1.1q-.85.5-.85.65l.15.15.05-.05.55-.2-.2.25 1.1-.35v-.15L16.4 12.35l-1-2.75v-.1l-2.1-5.95h.4l1 2.85q.15-.15.3-.15l-.25-.75v-.25h.1l.45 1.1.05.05.35 1.15.7 2.35.65 2.05v-.05l.25.8.2.6.2.65.15.55 1 3.7.25.85.05.1.1.1-.05.05.1.45.1.1-.05.05.1.3.05.1v.1l.2.75h.05l.05.25.4 1.45.1.2.15.25-.1.05.05.15.45-.1-.05-.05-.05-.15.65-.65-.8-.1-.05-.15.7-.75-.5.1h-.4l-.05-.15.3-.2.5-.4.05-.45h-.9l-.05-.15.6-1q0-.3-1.05-.3l-.05-.15.25-.45.45-.55h-.75l-.05-.15.25-.3.25-.35-.15-.15-.7-.05-.05-.15.5-1-.2-.35h-.8v-.3l.5-.85q0-.3-.4-.3l-.55.1-.05-.15.3-1.05-.1-.25-.55-.05-.05-.15.3-.6-.15-.25-.65-.25.35-.8-.2-.5-.7-.2-.05-.15.2-.3.2-.35-.3-.35-.35-.25.15-.25.3-.3-.5-.1-.4-.3.45-.65q0-.3-.8-.45v-.25l.2-.25q0-.65-.85-.4l-.1-.15-.2-.4.1-.55-.25-.75h.3l.2.7-.1.6.1.2q1.2.05 1 1.05l.5.25.15.4-.3.55-.05.05q.8.2.8.5l-.35.5q.55.05.55.6l-.25.5q.8.45.8 1l-.25.6q.7.1.7.7l-.2.5.55.2.05.35-.2.85.2-.05q.65 0 .7.6l-.45.85.9.25.05.4-.4.9q.8-.1.8.45l-.2.45q.5-.05.5.35l-.1.45-.4.45q.9.1.9.55l-.4.9.15-.05h.35l.3.3-.25.45-.5.5.55-.15.3.25-.45.65-.05.05.45.1.15.2-.35.5.15.05.1-.05.05.05 1.35-.8zm-8.3-16.2.25.75.25-.05-.25-.85zm.75 1.4-.2-.55-.2.15.15.45zm-.2.2.15.4.2-.05-.1-.4zM16 10.2l.1.25h.15l-.1-.4-.05.1zm-.05-.75-.15.05.1.4h.2zm-.25-.15h.2l-.15-.5-.15.1zm.75 1.75-.15-.4-.15.05.15.4zm.05.25h-.15l.15.4.1-.05zm-5.65-5.05-.15-.15v.05l-.15-.05-.05.3v-.2l-.1.25.05.05-.05.1-.8 2.5-.65 1.75v.2l-1.1 3.1v.05l-.3.8-.05.15.05.05-.1.15-.45 1.7v.05l-.05.15-.1.6v.05l-.35 1.8-.05.3.05.05-.05.1-.15.6v.1L6 22l-.7 1.85.4.25H6l.05.1.55.1-.2-.1-.2-.25.45-.25.6-.15-.3-.35-.25-.4.95-.4q-.5-.5-.75-.55 0-.2.35-.35.4-.15.4-.3l-.6-.45.25-.35.35-.2-.25-.3-.15-.3.85-.25.05-.1q-.65-.3-.65-.65 0-.2.3-.25l.7-.25-.25-.35-.3-.4.2-.2.6-.2-.45-.75.2-.25.55-.3L8.6 15q0-.25.45-.4l.4-.35-.25-.35-.25-.4.4-.3.35-.3-.25-.35-.25-.35q0-.1.45-.3l.4-.4-.45-.7q0-.15.6-.35l.55-.5-.25-.5-.25-.4q0-.05.5-.35l.45-.55-.35-.5-.35-.4.65-.6zm-.85.4h-.1V6.6l-.2.55h.15zm-.45.85-.25.75.1-.1h.15l.2-.75zm-.3.9L9 9.15h.05l.2.05.2-.75-.15.05zm-.35 1-.2.6.3-.1.15-.45zm-.25.85-.2.6h.25l.15-.25-.15-.35zM8.2 11.7l-.2.55-.05.2.25.1.3-.95-.3.15zm.35-.3.05-.25h-.25l-.05.2zm-.45 1.35-.25-.05-.15.55h.25zm-.25.8H7.6l-.1.4.2.05zm-.3.75H7.4l-.2.7.1.05.15-.5zm-.35 1-.1-.05-.15.65.05.05zm-.3.8-.05.05-.2.75h.1l.2-.75zm-.3 1.05-.15.55.15.05.1-.55zm-.2.8-.15.6h.2l.1-.55zm-.45 1.55-.1.45h.3l.1-.45zm.45-.7h-.25l-.1.45h.3v-.15zm-.6 1.25-.1.4.3.15.1-.4h-.25zm-.2.65-.15.55.35.15.15-.55zm-2.7 2.45.1.05-.1-.1zm2.3-1 .35.1.15-.6-.3-.1zm-.05.25-.1.25-.05.15.35.15.15-.4zm-.1 1.25.1.1.15-.55-.35-.1q-.1.35.1.55m12.2-9.45.1.3.05-.05h.05l-.1-.3zm-.05-.6h-.1l.1.3h.1zm.2 1.1.1.3.1-.05-.1-.35zm.25.85.15-.05-.1-.25-.1.05zm.25.25-.15.1.05.2.15-.05zm-.05.6.1.3.05-.05h.15l-.1-.3zm.15.6.05.15.25-.05-.1-.2zm.2.6.2-.1-.05-.15-.2.1zm.25.1-.2.1.05.3.25-.05zm-1.65-5.5-.1-.35-.15.1.1.25zm-.05.3.15.45.1-.05-.1-.4zm.2.65.05.25h.15l-.1-.3zm1.45 5.3.1.3.05-.05.2-.05-.1-.35h-.1l-.15.05zm.5.7-.1-.3-.25.15.1.3.15-.15zm-.2.45.1.4q.05-.15.3-.2l-.1-.35zm.45.45-.2.05-.15-.1.1.35.3-.1zm.2.7-.05-.2-.35.05.05.25.2-.1zm-.25.35.05.15.35-.05-.05-.2h-.2zm.1.35.15.7.15-.15.2-.05-.15-.5zm.4 2.25.45-.1h.15l-.1-.25h-.45l-.1-.25h.5l-.1-.25-.35.1-.1-.2q0-.2.35-.25l-.05-.3-.4.2.2 1.2z"/><path fill="#97826f" d="m14.1 9.2-.25.05Q13.2 9.2 13.1 9l-.2-.35V8.5q0-.4.25-.6.15-.25.6-.2.75.05.7.8 0 .55-.35.7m-.4 3.4.2-.1q.2 0 .2.3l-.3.3-.3-.25-.1.05v.3l.4.15q.6 0 .6-.6l-.1-.25-.4-.25q-.3 0-.3.15zm.1-4.75q-.3 0-.35.15l.1.2.2-.1.2.3-.3.3-.3-.25-.1.05v.3l.4.15q.6 0 .6-.6l-.1-.25zm.45 5.75-.25.05q-.65-.05-.75-.25l-.2-.35v-.15l.2-.6q.2-.25.6-.2.75.05.75.8 0 .55-.35.7m.1 4.25-.25.05-.75-.25-.2-.35v-.15l.2-.6q.15-.25.6-.2.75.05.75.8 0 .55-.35.7m-.35-1.1q.2 0 .2.3l-.3.3-.3-.25-.1.05v.3l.4.15q.6 0 .6-.6l-.1-.25q-.2-.25-.4-.25-.3 0-.3.15l.1.2zm-.65 4q.15-.25.6-.2.75.05.75.8 0 .55-.35.7l-.25.05-.75-.25-.2-.35v-.15zm.65-.05q-.3 0-.3.15l.1.2.2-.1q.2 0 .2.3l-.3.3-.3-.25-.1.05v.3l.4.15q.6 0 .6-.6l-.1-.25q-.2-.25-.4-.25"/><path fill="#4d3c2e" d="M13.15 7.9q-.25.2-.25.6v.15l.2.35q.1.2.75.25l.25-.05q-.15.2-.45.2l-.75-.25-.2-.35v-.15q0-.6.45-.75m.65-.05.35.25.1.25q0 .6-.6.6l-.4-.15v-.3l.1-.05.3.25.3-.3-.2-.3-.2.1-.1-.2q.05-.15.35-.15m-.1 4.75-.1-.2q0-.15.3-.15l.4.25.1.25q0 .6-.6.6l-.4-.15v-.3l.1-.05.3.25.3-.3q0-.3-.2-.3zm.55 1-.45.2-.75-.25-.2-.35v-.15q0-.6.4-.75l-.2.6v.15l.2.35q.1.2.75.25zm-.9 2.95-.2.6v.15l.2.35.75.25.25-.05-.45.2q-.65-.05-.75-.25l-.2-.35v-.15q0-.6.4-.75m.65.2-.2.1-.1-.2q0-.15.3-.15.2 0 .4.25l.1.25q0 .6-.6.6l-.4-.15v-.3l.1-.05.3.25.3-.3q0-.3-.2-.3m.35 5.3-.45.2q-.65-.05-.75-.25l-.2-.35v-.15q0-.6.4-.75l-.2.6v.15l.2.35.75.25zM14 20.7q.2 0 .4.25l.1.25q0 .6-.6.6l-.4-.15v-.3l.1-.05.3.25.3-.3q0-.3-.2-.3l-.2.1-.1-.2q0-.15.3-.15"/><path fill="#fff" d="m14.85.9.15.05V.9l.05.05.4.3q0 .3.5.5l.15.5-.15.4q.4.05.4.4l-.05.2-.3.35-.05.05-.05.05.4.6-.05.25-.3.35-.25.1h.05l.25.5q0 .65-.85.65l.05.3q0 .5-.4.5l-.5-.2-.05-.1-.05.15.05-.05v.05l-.1.1-.45.25-.4-.15.05-.05-.2-.1-.05-.1v.05l-.05-.05-.3.05q-.5 0-.55-.75l-.05.15-.55.5-.25-.05-.05.15-.05.05-.55.25q-.35 0-.45-.25l-.05-.05-.05-.05V6.7l.05.05-.05-.15-.1.1-.5.2q-.45 0-.45-.5l.05-.3q-.9 0-.9-.65 0-.2.3-.5h.05l-.3-.1L8 4.5l-.05-.25.45-.6h.05l-.1-.05-.1-.05-.3-.35L7.9 3q0-.35.4-.4l-.15-.4.2-.5.5-.5Q9.1.85 9.5.85l.3.05-.3.4-.1.2-.05.05-.05.15-.2.75-.15.65v.2l.05.55v.05q.2 1 .65 1.65.5.6 1.25.5l.3-.05.15-.05h.05l.3-.1.1-.2h.05l.2-.25.3.25L13 6h-.1l.05.05.25.05.45.05q.65 0 .85-.3l.2-.25.1-.1.1-.15.2-.45.2-1.15-.25-1.7-.3-.85.1-.1-.15-.15zm.55 1.05h-.1V2h.1zm-3.05 5 .05-.05V7zM8.85 1.9v-.05H8.7z"/><path fill="#fff" d="m15.3 4.05.85.75-.2.1-.25.1h.05l.25.5q0 .65-.85.65l.05.3q0 .5-.4.5l-.5-.2-.05-.1-.05.15.05-.05v.05l-.1.1-.45.25-.4-.15.05-.05-.1-.05-.45-.95.2.05h-.1l.05.05.25.05.45.05q.65 0 .85-.3l.2-.25.1-.1.1-.15.2-.45zM11.05 7l-.35.1q-.35 0-.45-.25l-.05-.05-.05-.05V6.7l.05.05-.05-.15-.1.1-.5.2q-.45 0-.45-.5l.05-.3q-.9 0-.9-.65 0-.2.3-.5h.05l-.3-.1-.15-.1.85-.8q.2.95.65 1.6.5.6 1.25.5l.3-.05.15-.05h.15z"/><path fill="#cde2f5" d="M15.3 4.05v-.6l-.25-1.4-.3-.85.1-.1-.15-.15.15-.05.15.05V.9l.05.05.4.3q0 .3.5.5l.15.5-.15.4q.4.05.4.4l-.05.2-.3.35-.05.05-.05.05.4.6-.05.25-.1.25zM13.25 6.9l-.1-.05-.05-.1v.05l-.05-.05-.3.05q-.5 0-.55-.75l-.05.15-.55.5-.25-.05-.05.15-.05.05-.2.15.45-1.05.2-.1.1-.2h.05l.2-.25.3.25.45.3zm-5.1-2.15L8 4.5l-.05-.25.45-.6h.05l-.1-.05-.1-.05-.3-.35L7.9 3q0-.35.4-.4l-.15-.4.2-.5.5-.5Q9.1.85 9.5.85l.6.2-.1.25-.15.25-.25.15q-.1-.05-.05.15l-.25.55-.35.7v.2l.05.55v.1zM15.4 2v-.05h-.1V2h.1m-6.7-.15.15.05v-.05z"/><path fill="#aacd00" d="m14.45.75.8 1.65.15 1.25.1.55v.15l-.4.9q-.7 1.15-1.65 1.15-.6 0-1-.35-.35-.3-.35-.55l-.05-.05q-.35.55-1 .75h-.6Q9.6 5.8 9.3 5.1q-.45-.9-.45-1.3 0-.85.6-2l.05-.1.55-.8q.7-.85 1.65-.85 1.05 0 2.1.5V.5l.4.2.1.05z"/><path fill-opacity=".298" d="m15.25 2.1.1.25q0 .45-1.1 1.3-1.25.95-2.3.95-1 0-2.1-.95l-.8-.9q.15-.8 1.5-2.45l.8-.3h.85l1.9.6.8.7zm-3.3 10.6-.05 7.1-.1 1.3-.1 2.4q.1 1.7-.1 1.6l-1.15-.1-.6-.05-.4-.05-.8-.05-.35.05-2.5-.65-3.05-1.15-.7-.45 2 .75 2.2.55.7.1.7.05q2.1-.55 2.9-2.15.6-.95.8-2.25l.25-2.55z"/><path fill="#439866" d="m16.95 6.7.1.1q-.05-.8.3-1.35l.25-.3.7-.45h.7l.7.6.05.1-.05.6-.05.2-.5 1 .05.05-.3.25.4-.05q.6 0 1.45.55l.5.4q.25.3 0 .75l-.75.55q-.7.3-1.85-.3l.25.35-.25-.15.3.5.25.85.05.1v.1l-.05.1q-.45.85-1.45.8L17.6 12l-.8-1.05-.05-1.1q-.05-.05-.15.05-.65.95-2 .75l-.15-.05-.55-.6v-.1q.05-.7.5-1.1.5-.4 1.25-.35l-.15.25-.05.35q-.55.25-.75.6t.15.7q.4.2 2.05-1.5-.05 1 .35 1.4.25 1 .6 1.3l.55-.15q.4-.6-.4-1.9l-.15-.2-.05-.1-.55-.45 1.15.3.95.15q1.05.15 1.05-.25 0-.45-.75-.7l-1.7-.05.05-.05.3-.25.45-.6v-.35q.6-1.25.15-1.5-.35-.25-.75.15l-.4.6-.2.6-.2.85v.1l-.1.15-.2-.4-.25-.25-.1-.2-.25-.15-.5-.5-.75.05q-.15.3.1.85l.9.75.05.15h-.15l-.15.05-.55-.4q-.5-.3-.85-1.3l.05-.7.6-.55h.1l.45.15.35.25q.45.2.6.7l.35.5z"/><path fill="#aacd00" d="m17.35 7.65.2-.85.2-.6.4-.6q.4-.4.75-.15.45.25-.15 1.5l-.45-.25q-.7-.15-.95.95m.65.5-.05.05 1.7.05q.75.25.75.7 0 .4-1.05.25l-.95-.15.2-.05.5-.4q.05-.2-.2-.25l-1.25-.05v-.05l.15-.05zm-.15 1.15.15.2q.8 1.3.4 1.9l-.55.15q-.35-.3-.6-1.3l.35.1h.05q.4.05.5-.35zm-.95-.45q-1.65 1.7-2.05 1.5-.35-.35-.15-.7t.75-.6l.3.2q.4.1 1.15-.4m-.45-1.95h-.1q-.45-.1-.5.25l.15.6.2.3-.9-.75q-.25-.55-.1-.85l.75-.05z"/><path fill="#5b3d05" d="m16.95 6.7.1-.7.3-.7.5-.7q.4-.5 1.2-.3l.3.15.1.2q.7.35.65.9l-.1.35-.1.3-.45.85-.1.05-.15.15-.05-.05.5-1 .05-.2.05-.6-.05-.1-.7-.6h-.7l-.7.45-.25.3Q17 6 17.05 6.8zm4.3 1.7q.35.35.25.9t-.85.75l-1.75-.3-.25-.35q1.15.6 1.85.3l.75-.55q.25-.45 0-.75m-2.05 2.85v.1l-.15.55-.1.25h-.05l-.4.4q-.35.2-1.1 0-.8-.35-.75-1.2V10.3l.1-.45-.7.85q-1 .8-1.75.3-.8-.45-.75-1.05l.2-.55.65-.6q-.45.4-.5 1.1v.1l.55.6.15.05q1.35.2 2-.75.1-.1.15-.05l.05 1.1.8 1.05.15.05q1 .05 1.45-.8M15.65 8.4l-.35-.3q-1-.55-1.15-1.25-.2-.65.25-1.2.45-.4.8-.35l-.6.55-.05.7q.35 1 .85 1.3l.55.4-.1.05z"/><path fill="#ffd79c" d="m15.65 8.45.1-.05.1-.1.1-.05.15-.05h.15l-.05-.15-.2-.3-.15-.6q.05-.35.5-.25h.1l.25.15.1.2.25.25.2.4.1-.15v-.1q.25-1.1.95-.95l.45.25v.35l-.45.6-.3.25-.2.05-.15.05v.05l1.25.05q.25.05.2.25l-.5.4-.2.05-1.15-.3.55.45.05.1.3.7q-.1.4-.5.35h-.05l-.35-.1q-.4-.4-.35-1.4-.75.5-1.15.4l-.3-.2.05-.35z"/><path fill="#ad0e4b" d="M15.75 8.4h-.1l.2-.1z"/></g></defs></svg>