<svg xmlns="http://www.w3.org/2000/svg" xmlns:ffdec="https://www.free-decompiler.com/flash" xmlns:xlink="http://www.w3.org/1999/xlink" ffdec:objectType="frame" width="11" height="12.45"><use ffdec:characterId="5" xlink:href="#a" width="11" height="12.45"/><defs><g id="a" fill-rule="evenodd"><path fill="#ff8ec4" d="M1.2.4q1.6 0 3.75 1.5l.65.65.95 1L8.2 5.9 9.6 8l.65.95.4.6.35.6-.5 1.1q-.8 1.15-2.35.8l-1.5-.55-.4-.2q-.75-.35-.9-.75Q4.3 9.85 0 .65L.15.6z"/><path fill="#e8688b" d="M1.55.35q1.45.7 2.1 1.6l2 3.15 2.1 3.8 1.6 3.05q.15.5-.45.5l-1.6-.4-1.35-.7-.55-.5q-1-1.25-1.85-2.9l-1.7-3.3-1.2-2.7L0 .25z"/></g></defs></svg>