<?xml version="1.0" encoding="UTF-8" standalone="no"?>
<svg xmlns:ffdec="https://www.free-decompiler.com/flash" xmlns:xlink="http://www.w3.org/1999/xlink" ffdec:objectType="frame" height="10.05px" width="7.7px" xmlns="http://www.w3.org/2000/svg">
  <g transform="matrix(1.0, 0.0, 0.0, 1.0, -1.7, -3.25)">
    <use ffdec:characterId="5" height="10.05" transform="matrix(1.0, 0.0, 0.0, 1.0, 1.7, 3.25)" width="7.7" xlink:href="#shape0"/>
  </g>
  <defs>
    <g id="shape0" transform="matrix(1.0, 0.0, 0.0, 1.0, -1.7, -3.25)">
      <path d="M5.45 5.5 L5.85 6.15 7.55 8.2 7.7 8.4 7.75 8.45 7.8 8.3 8.05 8.05 8.45 8.45 8.15 8.95 8.25 9.05 Q8.85 9.75 9.15 10.95 L9.05 11.15 8.8 11.45 Q8.9 13.05 7.45 13.3 L5.95 13.2 Q5.9 12.95 6.0 12.75 L6.0 12.4 4.15 10.45 1.7 5.65 2.1 5.25 2.4 5.1 3.4 4.15 1.95 3.5 3.95 3.55 4.6 4.4 4.85 4.45 5.5 4.7 5.45 5.5" fill="#3c3c3c" fill-rule="evenodd" stroke="none"/>
      <path d="M3.65 9.25 Q5.55 11.65 7.45 10.9 8.15 10.65 8.7 10.15 L8.75 10.0 9.0 9.75 9.4 10.15 9.1 10.65 8.15 11.45 Q7.2 12.0 6.2 11.75 5.35 11.5 4.5 10.9 L3.65 9.25" fill="#2a0000" fill-rule="evenodd" stroke="none"/>
      <path d="M8.6 6.85 L8.9 7.1 8.7 7.3 8.45 7.5 8.25 7.7 8.15 7.85 8.05 7.8 7.8 7.9 7.5 7.95 7.0 7.65 6.95 7.6 6.95 7.65 6.75 7.5 6.65 7.5 6.65 7.45 6.3 7.3 6.3 7.35 6.25 7.3 6.1 7.25 6.05 7.1 5.85 7.15 5.6 6.95 5.3 6.85 5.1 6.85 4.95 6.85 4.65 6.9 4.0 7.1 4.65 6.75 5.15 6.7 Q6.05 6.6 6.9 7.25 L8.35 7.15 8.6 6.9 8.6 6.85" fill="#ffffff" fill-rule="evenodd" stroke="none"/>
      <path d="M4.0 7.1 Q3.2 6.15 4.75 5.25 5.25 4.95 5.9 4.8 L5.3 4.2 Q7.25 4.1 8.1 5.35 8.55 6.05 8.6 6.85 L8.6 6.9 8.35 7.15 6.9 7.25 Q6.05 6.6 5.15 6.7 L4.65 6.75 4.0 7.1" fill="#7e7e7e" fill-rule="evenodd" stroke="none"/>
      <path d="M8.7 7.3 L9.15 9.25 8.9 9.25 8.45 7.5 8.7 7.3 M8.25 7.7 L8.75 9.55 8.55 9.6 8.05 7.8 8.15 7.85 8.25 7.7 M7.8 7.9 L8.3 9.85 8.05 9.9 7.5 7.95 7.8 7.9 M7.0 7.65 L7.15 7.8 7.75 9.8 7.5 9.9 6.95 7.65 6.95 7.6 7.0 7.65 M6.65 7.5 L7.25 9.8 7.0 9.85 6.3 7.35 6.3 7.3 6.65 7.45 6.65 7.5 M6.1 7.25 L6.65 9.55 6.35 9.55 5.75 7.15 5.85 7.15 6.05 7.1 6.1 7.25" fill="#5babbf" fill-rule="evenodd" stroke="none"/>
    </g>
  </defs>
</svg>
