<svg xmlns="http://www.w3.org/2000/svg" xmlns:ffdec="https://www.free-decompiler.com/flash" xmlns:xlink="http://www.w3.org/1999/xlink" ffdec:objectType="frame" width="3.9" height="4"><use ffdec:characterId="3" xlink:href="#a" width="3.9" height="4"/><defs><g id="a" fill-rule="evenodd"><path fill="#ffcbc2" d="m.55 1.05.8-.45.6-.25q.5-.2 1.2.25.85.55.55 1.9l-.2.15q-.2.15-.65.4l-1 .5H1.8l.05.05H1.8q-.6 0-1.2-.4-.9-.6-.4-1.9z"/><path fill="#b82a2a" fill-opacity=".2" d="M2.8 1.95q.15-.1.25.3l.25.45v-.4q-.05-.5.05-.65l.25.3-.1.7q-.2.15-.65.4l-1 .5-.25-.25-.3-.55.4.2q.5.35.6.3l-.1-.2-.15-.3.3.05.35.1-.1-.3-.15-.35.25.25.3.3-.15-.35q-.2-.4-.05-.5"/><path fill="#db5a5a" d="M1.8 3.55h.05l1-.5q.45-.25.65-.4l.2-.15v-.05l.2.45L2.1 4l-.25-.4zM.2 1.2Q.05 1.1.05.7L.8.45 1.65 0l.3.35-.6.25-.8.45z"/></g></defs></svg>