<?xml version="1.0" encoding="UTF-8" standalone="no"?>
<svg xmlns:ffdec="https://www.free-decompiler.com/flash" xmlns:xlink="http://www.w3.org/1999/xlink" ffdec:objectType="frame" height="8.9px" width="10.5px" xmlns="http://www.w3.org/2000/svg">
  <g transform="matrix(1.0, 0.0, 0.0, 1.0, -2.35, -4.3)">
    <use ffdec:characterId="5" height="8.9" transform="matrix(1.0, 0.0, 0.0, 1.0, 2.35, 4.3)" width="10.5" xlink:href="#shape0"/>
  </g>
  <defs>
    <g id="shape0" transform="matrix(1.0, 0.0, 0.0, 1.0, -2.35, -4.3)">
      <path d="M10.0 8.85 L10.3 9.15 10.6 10.15 10.55 11.15 10.55 11.6 10.55 11.35 10.5 11.45 10.35 11.35 9.7 10.45 Q8.9 9.3 8.5 9.2 L7.75 9.25 7.25 9.4 7.25 9.45 7.45 9.65 7.35 9.7 7.95 10.95 8.2 12.15 8.2 12.1 7.05 11.35 5.8 10.4 5.15 10.55 5.15 10.85 4.75 12.05 4.5 12.5 4.25 12.75 3.85 13.15 4.1 12.0 Q4.25 11.2 4.55 10.85 L4.2 10.55 Q4.4 10.45 4.05 10.2 L3.75 9.7 3.75 9.6 3.8 9.25 Q3.85 9.0 4.1 9.05 L4.3 9.25 4.65 9.2 4.9 9.3 Q4.95 9.45 5.15 9.45 L6.35 8.55 Q6.45 8.3 6.9 8.25 L7.7 8.2 8.05 7.75 8.2 7.1 9.0 6.9 9.95 6.95 9.85 7.45 Q11.0 7.25 11.7 8.15 13.55 10.8 12.4 9.7 10.9 8.25 10.45 8.25 L10.05 8.2 Q9.8 8.25 9.4 8.6 L9.1 8.65 9.4 8.65 9.35 8.65 9.6 8.65 9.35 8.7 9.7 8.7 10.0 8.85 M3.75 13.2 L3.7 13.2 3.4 11.5 3.25 11.15 3.25 10.9 3.75 13.2 M3.55 10.6 Q3.0 10.1 2.9 9.6 L2.9 9.55 3.1 9.7 2.95 9.65 Q2.95 9.95 3.6 10.55 L3.65 10.6 3.6 10.6 3.55 10.6 M2.85 8.6 L2.85 8.55 2.9 8.55 2.85 8.6 M3.25 9.7 L3.65 9.7 3.45 9.75 3.25 9.7" fill="#d9ca9d" fill-rule="evenodd" stroke="none"/>
      <path d="M12.4 9.7 L12.6 9.9 12.2 9.8 Q10.85 9.15 10.0 8.85 L9.7 8.7 9.35 8.7 9.6 8.65 9.35 8.65 9.4 8.65 9.1 8.65 9.4 8.6 Q9.8 8.25 10.05 8.2 L10.45 8.25 Q10.9 8.25 12.4 9.7 M10.35 11.35 L10.3 11.35 8.75 10.5 7.45 9.65 7.25 9.45 7.25 9.4 7.75 9.25 8.5 9.2 Q8.9 9.3 9.7 10.45 L10.35 11.35 M8.2 12.15 L7.85 12.15 6.6 11.5 5.6 10.7 5.65 10.45 5.75 10.45 5.8 10.4 7.05 11.35 8.2 12.1 8.2 12.15 M3.85 13.15 L3.75 13.2 3.25 10.9 3.55 10.6 3.6 10.6 3.65 10.6 3.6 10.55 Q2.95 9.95 2.95 9.65 L3.1 9.7 3.15 9.7 3.25 9.7 3.45 9.75 3.65 9.7 3.75 9.7 4.05 10.2 Q4.4 10.45 4.2 10.55 L4.55 10.85 Q4.25 11.2 4.1 12.0 L3.85 13.15 M2.9 9.55 Q2.6 9.25 2.65 8.5 L2.4 7.25 3.0 7.35 3.95 6.95 4.2 6.9 Q4.85 6.75 5.1 5.5 5.25 4.75 6.5 4.45 L6.95 4.5 7.1 4.5 8.0 4.3 Q8.4 4.2 9.25 5.15 10.0 5.9 9.85 6.35 L9.8 6.5 9.45 6.15 8.8 5.45 8.0 5.4 7.8 5.95 7.2 5.7 7.05 5.55 6.95 5.4 6.25 5.75 5.9 6.25 6.0 6.55 5.85 7.35 5.3 7.0 5.1 7.0 3.9 7.55 3.85 7.7 3.5 8.25 Q3.4 7.9 2.85 7.9 L2.85 8.55 2.85 8.6 2.85 8.8 2.9 9.55 M3.7 10.6 L3.9 10.45 3.75 10.55 3.7 10.6" fill="#c1b79c" fill-rule="evenodd" stroke="none"/>
      <path d="M2.4 7.25 L2.35 6.95 Q2.35 6.7 2.65 6.6 L3.3 6.4 4.0 5.8 4.15 5.45 4.4 4.8 Q4.6 4.35 5.25 4.35 L6.5 4.45 Q5.25 4.75 5.1 5.5 4.85 6.75 4.2 6.9 L3.95 6.95 3.0 7.35 2.4 7.25 M9.8 6.5 L10.0 6.65 10.0 6.95 9.95 6.95 9.0 6.9 8.2 7.1 8.05 7.75 7.7 8.2 6.9 8.25 Q6.45 8.3 6.35 8.55 L5.15 9.45 Q4.95 9.45 4.9 9.3 L4.65 9.2 4.3 9.25 4.1 9.05 Q3.85 9.0 3.8 9.25 L3.75 9.6 3.75 9.7 3.65 9.7 3.25 9.7 3.15 9.7 3.1 9.7 2.9 9.55 2.85 8.8 2.85 8.6 2.9 8.55 2.85 8.55 2.85 7.9 Q3.4 7.9 3.5 8.25 L3.85 7.7 3.9 7.55 5.1 7.0 5.3 7.0 5.85 7.35 6.0 6.55 5.9 6.25 6.25 5.75 6.95 5.4 7.05 5.55 7.2 5.7 7.8 5.95 8.0 5.4 8.8 5.45 9.45 6.15 9.8 6.5" fill="#e2dcce" fill-rule="evenodd" stroke="none"/>
    </g>
  </defs>
</svg>
