<?xml version="1.0" encoding="UTF-8" standalone="no"?>
<svg xmlns:ffdec="https://www.free-decompiler.com/flash" xmlns:xlink="http://www.w3.org/1999/xlink" ffdec:objectType="frame" height="22.45px" width="20.0px" xmlns="http://www.w3.org/2000/svg">
  <g transform="matrix(1.0, 0.0, 0.0, 1.0, 0.0, -3.2)">
    <use ffdec:characterId="3" height="22.45" transform="matrix(1.0, 0.0, 0.0, 1.0, 0.0, 3.2)" width="20.0" xlink:href="#shape0"/>
  </g>
  <defs>
    <g id="shape0" transform="matrix(1.0, 0.0, 0.0, 1.0, 0.0, -3.2)">
      <path d="M15.5 3.9 L15.8 3.7 16.15 4.35 16.0 4.75 15.85 4.95 16.2 4.9 16.45 5.55 16.3 6.4 Q16.1 7.0 15.7 7.0 L15.6 7.0 15.5 7.1 15.4 6.85 15.15 6.9 15.1 6.7 15.2 6.6 15.0 6.7 14.3 5.85 13.65 4.95 13.85 4.9 13.95 4.85 13.8 4.85 13.75 4.6 14.45 4.3 15.5 3.9 M6.5 4.5 L6.8 4.6 6.75 4.85 6.6 4.85 6.7 4.9 6.9 4.95 6.25 5.85 5.55 6.7 5.4 6.65 5.45 6.7 5.4 6.9 5.25 6.85 5.4 6.65 6.55 4.8 6.5 4.5 M4.8 7.0 Q4.45 6.95 4.25 6.4 L4.1 5.55 Q4.1 5.05 4.35 4.9 L4.7 4.95 4.65 4.9 5.25 4.85 5.6 4.95 4.75 5.7 4.4 5.95 4.45 6.35 4.8 7.0 M4.5 4.7 L4.4 4.35 4.75 3.7 5.05 3.9 6.1 4.3 6.25 4.4 5.45 4.5 4.5 4.7" fill="#ffffff" fill-rule="evenodd" stroke="none"/>
      <path d="M6.25 4.4 L6.35 4.35 6.5 4.45 6.5 4.5 6.55 4.8 5.4 6.65 5.25 6.85 4.95 7.25 4.8 7.0 4.45 6.35 4.4 5.95 4.75 5.7 5.6 4.95 5.25 4.85 4.65 4.9 4.45 4.7 4.5 4.7 5.45 4.5 6.25 4.4" fill="#cccccc" fill-rule="evenodd" stroke="none"/>
      <path d="M15.9 4.9 L15.3 4.85 14.95 4.95 15.8 5.7 16.15 5.95 16.1 6.35 15.6 7.25 14.0 4.8 14.05 4.45 14.2 4.35 15.1 4.5 16.1 4.7 15.9 4.9" fill="#cccccc" fill-rule="evenodd" stroke="none"/>
      <path d="M8.55 13.5 L10.1 15.05 11.65 13.5 10.1 11.95 8.55 13.5 M8.55 9.4 L10.1 10.95 11.65 9.4 10.1 7.85 8.55 9.4 M13.1 6.95 Q13.85 8.15 14.3 9.75 15.2 13.0 14.8 16.3 L9.7 15.85 5.55 16.25 Q5.15 12.95 6.05 9.7 6.5 8.1 7.15 7.0 7.65 7.45 8.4 7.4 9.3 7.3 10.1 6.6 10.9 7.3 11.8 7.4 12.55 7.45 13.1 6.95 M0.35 21.95 Q9.55 23.05 19.15 21.95 L19.55 21.9 Q20.1 23.55 19.95 25.2 10.0 26.1 0.05 25.15 L0.0 25.15 0.05 24.7 0.35 22.0 0.35 21.95" fill="#333333" fill-rule="evenodd" stroke="none"/>
      <path d="M14.3 9.8 Q13.85 8.2 13.1 7.0 12.55 7.55 11.8 7.45 11.0 7.4 10.1 6.65 9.2 7.4 8.4 7.45 7.7 7.5 7.15 7.05 6.5 8.1 6.05 9.75 5.15 12.9 5.55 16.3 L9.7 15.9 14.8 16.35 Q15.2 12.95 14.3 9.8 M12.1 3.2 L14.2 4.3 14.05 5.0 Q16.4 7.6 17.15 9.1 18.45 11.7 17.55 13.35 18.65 16.3 19.4 21.5 L19.55 22.55 19.15 22.65 Q9.9 23.75 0.2 22.55 L0.5 21.4 Q1.2 17.15 2.65 13.4 1.85 11.8 2.75 9.75 3.65 7.55 6.2 5.2 L6.0 4.3 8.1 3.2 8.8 4.5 Q9.55 5.7 10.1 5.8 10.65 5.7 11.4 4.5 L12.1 3.2 M8.55 9.45 L10.1 7.9 11.65 9.45 10.1 11.0 8.55 9.45 M8.55 13.55 L10.1 12.0 11.65 13.55 10.1 15.1 8.55 13.55" fill="#ffffff" fill-rule="evenodd" stroke="none"/>
      <path d="M14.4 5.35 Q14.3 6.25 13.45 7.25 L13.45 7.3 Q12.35 8.15 10.6 7.8 L12.2 9.4 10.2 11.4 12.15 13.6 10.45 15.4 14.8 15.9 14.8 16.35 9.7 15.9 5.55 16.3 Q5.15 13.0 6.05 9.75 L6.95 7.45 Q6.05 6.45 5.8 5.55 L5.9 5.45 6.15 5.2 6.2 5.2 Q6.5 6.45 7.15 7.05 7.5 7.4 8.05 7.45 L8.1 7.45 8.4 7.45 Q9.3 7.35 10.1 6.65 10.9 7.35 11.8 7.45 12.55 7.5 13.1 7.0 L13.15 7.0 Q13.75 6.35 14.05 5.0 L14.4 5.35 M9.3 7.6 Q8.4 8.2 7.25 7.6 6.3 9.35 5.95 11.65 5.6 13.95 5.9 15.85 L10.0 15.45 9.7 14.7 10.1 15.1 11.65 13.55 10.0 11.9 10.1 11.0 11.65 9.45 10.1 7.9 Q10.05 7.2 9.3 7.6" fill="#000000" fill-opacity="0.2" fill-rule="evenodd" stroke="none"/>
      <path d="M20.0 24.9 L20.0 25.2 Q9.8 26.05 0.0 25.2 L0.0 24.9 Q10.0 25.8 20.0 24.9" fill="#000000" fill-opacity="0.29803923" fill-rule="evenodd" stroke="none"/>
      <path d="M2.05 15.05 L2.3 14.25 2.65 13.4 Q2.1 12.3 2.4 11.1 10.1 15.2 17.8 11.15 18.1 12.35 17.55 13.35 L18.5 16.7 19.25 19.95 19.6 22.6 Q18.5 22.1 17.45 21.3 L18.6 21.05 Q19.0 20.75 18.9 19.8 L18.8 19.3 Q17.75 19.2 17.0 18.7 18.25 18.2 18.0 17.1 L17.2 16.75 Q18.3 16.05 17.1 14.9 L17.05 14.9 Q9.55 14.05 2.05 15.05" fill="#000000" fill-opacity="0.2" fill-rule="evenodd" stroke="none"/>
    </g>
  </defs>
</svg>
