<svg xmlns="http://www.w3.org/2000/svg" xmlns:ffdec="https://www.free-decompiler.com/flash" xmlns:xlink="http://www.w3.org/1999/xlink" ffdec:objectType="frame" width="8.35" height="9.15"><use ffdec:characterId="3" xlink:href="#a" width="8.35" height="9.15"/><defs><g id="a" fill-rule="evenodd"><path fill="#fff" d="M2.4.05 2.75 0Q4.3-.05 5.7 1.25q1.35 1.25 1.55 2l.1 1.45L7 6.1l-.05.05H6.9l-.55.05-1.2-.25L3.5 4.7q-1.05-.95-1.75-2.75Q1.15.55 2.2.1zm4.9 6.2 1.05-.05-.15.7-1.15-.4zm.65 1.05-.35.35-.35.3-1-.9.65-.45q.6.3 1.05.7m-.9.85-.05.1-.65.05.05.15-.3.35-.4-1.45.1-.05.35-.2zm-1.6.9-.5.1.15-1.4q.35-.3.35 1.3m-1.85 0-.45-.15.8-1-.45-.15.75.05v.1z"/><path fill="#afcfec" d="m6.9 6.15.4.1-.25.25 1.15.4q-.2.3-.4.2l.15.2q-.45-.4-1.05-.7l-.65.45 1 .9-.2.2-.9-1.05-.35.2-.1.05.4 1.45-.35.15-.3.1q0-1.6-.35-1.3l-.15 1.4H4.9l-.05-.3-1 .3-.25-.1.65-1.15v-.1l-.75-.05-1.55-.8Q.55 6.1.3 4.2L.05 1.55 0 1.6l.05-.2L.2.85Q.25.55.75.3L2.4.05 2.2.1q-1.05.45-.45 1.85.7 1.8 1.75 2.75l1.65 1.25 1.2.25z"/></g></defs></svg>