<?xml version="1.0" encoding="UTF-8" standalone="no"?>
<svg xmlns:ffdec="https://www.free-decompiler.com/flash" xmlns:xlink="http://www.w3.org/1999/xlink" ffdec:objectType="frame" height="16.15px" width="16.35px" xmlns="http://www.w3.org/2000/svg">
  <g transform="matrix(1.0, 0.0, 0.0, 1.0, 5.4, 2.2)">
    <use ffdec:characterId="1" height="11.0" transform="matrix(1.0, 0.0, 0.0, 1.0, -0.15, 2.15)" width="9.85" xlink:href="#shape0"/>
    <clipPath id="clipPath0" transform="matrix(1.0, 0.0, 0.0, 1.0, 0.0, 0.0)">
      <path d="M6.0 7.75 Q4.4 9.8 1.25 9.4 L1.2 9.45 -0.15 3.4 Q0.85 1.8 2.0 2.25 3.1 2.65 6.0 7.75" fill="#d97000" fill-rule="evenodd" stroke="none"/>
    </clipPath>
    <g clip-path="url(#clipPath0)">
      <use ffdec:characterId="3" height="16.15" transform="matrix(1.0, 0.0, 0.0, 1.0, -5.4, -2.2)" width="16.15" xlink:href="#shape2"/>
    </g>
    <clipPath id="clipPath1" transform="matrix(1.0, 0.0, 0.0, 1.0, 0.0, 0.0)">
      <path d="M6.0 7.75 Q4.4 9.8 1.25 9.4 L1.2 9.45 -0.15 3.4 Q0.85 1.8 2.0 2.25 3.1 2.65 6.0 7.75" fill="#d97000" fill-rule="evenodd" stroke="none"/>
    </clipPath>
    <g clip-path="url(#clipPath1)">
      <use ffdec:characterId="4" height="16.1" transform="matrix(1.0, 0.0, 0.0, 1.0, -5.15, -2.2)" width="16.1" xlink:href="#shape3"/>
    </g>
  </g>
  <defs>
    <g id="shape0" transform="matrix(1.0, 0.0, 0.0, 1.0, 0.15, -2.15)">
      <path d="M1.25 9.4 L1.2 9.45 -0.15 3.4 Q0.85 1.8 2.0 2.25 3.1 2.65 6.0 7.75 4.4 9.8 1.25 9.4" fill="#d97000" fill-rule="evenodd" stroke="none"/>
      <path d="M6.0 7.75 Q7.0 7.65 7.25 8.5 4.9 11.0 1.3 10.55 L1.2 10.55 Q0.4 10.15 1.2 9.45 L1.25 9.4 Q4.4 9.8 6.0 7.75" fill="#4b216d" fill-rule="evenodd" stroke="none"/>
      <path d="M7.25 8.5 L9.7 10.25 Q9.4 10.95 8.35 11.4 L7.2 10.4 7.75 11.75 Q7.3 12.45 5.7 12.6 L4.65 11.0 5.1 12.75 3.3 13.0 2.95 11.8 2.75 13.0 1.2 13.05 Q0.75 12.95 1.3 10.55 4.9 11.0 7.25 8.5" fill="#ffcc33" fill-rule="evenodd" stroke="none"/>
      <path d="M2.5 11.6 L2.65 11.4 2.75 10.7 2.75 10.65 2.9 10.65 3.25 11.65 3.4 11.85 Q3.7 12.25 4.3 12.25 L4.5 12.2 4.4 11.55 4.25 10.5 4.25 10.4 4.6 10.3 5.3 11.25 5.4 11.35 Q5.95 11.8 6.6 11.8 L7.05 11.8 7.15 11.75 7.2 11.4 7.25 11.35 7.0 10.8 6.35 9.35 6.45 9.3 7.95 10.4 8.55 10.45 9.0 10.35 8.85 9.75 9.45 10.05 9.7 10.3 9.2 11.0 8.4 11.35 8.35 11.4 8.3 11.35 8.2 11.35 8.15 11.25 7.2 10.4 7.75 11.75 7.6 11.95 7.2 12.3 6.1 12.6 5.8 12.6 5.7 12.6 5.65 12.45 5.6 12.45 4.85 11.3 4.7 11.15 5.1 12.75 4.8 12.9 3.3 13.0 2.95 11.8 2.75 13.0 2.6 13.05 2.0 13.15 1.2 13.15 1.0 12.85 0.95 12.4 Q0.95 12.1 1.1 12.25 1.05 12.55 1.4 12.6 L1.65 12.5 2.3 12.1 2.5 11.6" fill="#bc6d03" fill-rule="evenodd" stroke="none"/>
      <path d="M1.85 10.95 L1.45 12.1 1.35 12.15 1.25 11.8 Q1.35 10.65 1.7 10.65 L1.85 10.95 M3.4 10.7 Q3.7 10.7 3.95 11.6 L3.9 11.8 3.8 11.85 3.15 11.0 3.15 10.7 3.4 10.7 M7.15 9.15 L7.75 9.45 8.3 9.9 8.3 10.15 8.15 10.2 7.4 9.8 6.95 9.2 7.15 9.15 M5.35 11.05 L4.95 10.4 Q4.95 10.2 5.3 10.2 L6.0 10.9 Q6.35 11.55 6.1 11.55 L5.35 11.05" fill="#ffff66" fill-rule="evenodd" stroke="none"/>
      <path d="M3.6 9.2 L6.0 7.75 Q6.25 7.55 6.65 7.75 7.1 8.0 7.2 8.35 7.35 8.75 6.1 9.5 L6.5 8.9 Q6.6 8.45 5.65 8.75 3.65 9.6 1.8 9.5 L3.6 9.2" fill="#bd3eee" fill-rule="evenodd" stroke="none"/>
    </g>
    <g id="shape2" transform="matrix(1.0, 0.0, 0.0, 1.0, 5.4, 2.2)">
      <path d="M-1.15 -2.2 L10.75 9.7 10.35 10.1 -1.55 -1.8 -1.15 -2.2 M-1.85 -1.5 L10.05 10.4 9.1 11.35 -2.8 -0.55 -1.85 -1.5 M-3.7 0.35 L8.2 12.25 7.8 12.65 -4.1 0.75 -3.7 0.35 M-4.45 1.1 L7.45 13.0 6.5 13.95 -5.4 2.05 -4.45 1.1" fill="#660000" fill-opacity="0.29803923" fill-rule="evenodd" stroke="none"/>
    </g>
    <g id="shape3" transform="matrix(1.0, 0.0, 0.0, 1.0, 5.15, 2.2)">
      <path d="M7.7 -1.25 L-4.2 10.65 -5.15 9.7 6.75 -2.2 7.7 -1.25 M8.45 -0.5 L-3.45 11.4 -3.85 11.0 8.05 -0.9 8.45 -0.5 M-2.6 12.25 L9.3 0.35 10.25 1.3 -1.65 13.2 -2.6 12.25 M-1.35 13.5 L10.55 1.6 10.95 2.0 -0.95 13.9 -1.35 13.5" fill="#660000" fill-opacity="0.29803923" fill-rule="evenodd" stroke="none"/>
    </g>
  </defs>
</svg>
