<?xml version="1.0" encoding="UTF-8" standalone="no"?>
<svg xmlns:ffdec="https://www.free-decompiler.com/flash" xmlns:xlink="http://www.w3.org/1999/xlink" ffdec:objectType="frame" height="8.95px" width="8.5px" xmlns="http://www.w3.org/2000/svg">
  <g transform="matrix(1.0, 0.0, 0.0, 1.0, 0.6, -2.25)">
    <use ffdec:characterId="5" height="8.95" transform="matrix(1.0, 0.0, 0.0, 1.0, -0.6, 2.25)" width="8.5" xlink:href="#shape0"/>
  </g>
  <defs>
    <g id="shape0" transform="matrix(1.0, 0.0, 0.0, 1.0, 0.6, -2.25)">
      <path d="M4.45 4.4 L4.95 4.8 5.8 5.45 5.65 5.7 4.45 4.5 4.45 4.4" fill="#000000" fill-rule="evenodd" stroke="none"/>
      <path d="M5.65 5.7 L5.3 6.3 4.45 5.75 3.7 5.2 1.25 3.0 1.1 2.8 2.55 3.2 2.75 3.25 4.05 4.05 4.45 4.4 4.45 4.5 5.65 5.7" fill="#333333" fill-rule="evenodd" stroke="none"/>
      <path d="M0.05 2.25 L2.5 5.35 Q4.05 7.35 6.0 7.4 L6.25 7.4 5.15 8.7 Q3.4 9.55 1.75 9.85 L1.8 9.9 Q3.85 9.65 5.25 8.8 L5.7 8.4 5.9 8.25 6.05 8.05 6.95 6.65 7.2 6.1 7.55 6.35 7.5 6.4 Q6.65 8.05 5.6 8.95 L6.8 8.3 6.9 8.3 6.75 9.0 5.85 9.7 5.0 10.1 3.85 10.55 1.5 11.15 1.45 11.2 1.35 11.2 1.3 11.1 1.1 10.7 1.05 10.65 0.95 10.45 0.35 9.05 -0.2 7.4 -0.55 5.65 -0.6 3.65 -0.5 2.6 -0.45 2.45 0.05 2.25" fill="#000000" fill-rule="evenodd" stroke="none"/>
      <path d="M0.05 2.25 L0.45 2.3 1.7 2.6 Q3.05 3.05 4.45 4.05 L4.65 4.2 7.2 6.1 6.95 6.65 6.05 8.05 5.9 8.25 5.7 8.4 5.25 8.8 Q3.85 9.65 1.8 9.9 L1.75 9.85 Q3.4 9.55 5.15 8.7 L6.25 7.4 6.0 7.4 Q4.05 7.35 2.5 5.35 L0.05 2.25 M7.55 6.35 L7.9 6.75 7.8 7.35 7.15 8.55 6.75 9.0 6.9 8.3 6.8 8.3 5.6 8.95 Q6.65 8.05 7.5 6.4 L7.55 6.35" fill="#333333" fill-rule="evenodd" stroke="none"/>
    </g>
  </defs>
</svg>
