<?xml version="1.0" encoding="UTF-8" standalone="no"?>
<svg xmlns:ffdec="https://www.free-decompiler.com/flash" xmlns:xlink="http://www.w3.org/1999/xlink" ffdec:objectType="frame" height="32.65px" width="21.4px" xmlns="http://www.w3.org/2000/svg">
  <g transform="matrix(1.0, 0.0, 0.0, 1.0, 0.65, -1.0)">
    <use ffdec:characterId="5" height="32.65" transform="matrix(1.0, 0.0, 0.0, 1.0, -0.65, 1.0)" width="21.4" xlink:href="#shape0"/>
  </g>
  <defs>
    <g id="shape0" transform="matrix(1.0, 0.0, 0.0, 1.0, 0.65, -1.0)">
      <path d="M7.1 4.4 L6.85 4.7 6.8 4.5 7.45 3.55 7.5 3.6 7.1 4.4 M8.65 1.1 L8.9 1.15 Q10.0 1.5 9.0 4.85 L8.85 4.75 9.75 7.45 9.15 9.0 9.15 9.05 9.35 9.3 9.45 9.5 9.55 9.7 9.9 10.75 9.95 10.85 10.1 11.35 10.1 11.25 10.15 11.1 10.45 9.95 10.55 9.45 10.55 9.3 10.55 9.25 9.9 7.45 9.85 7.4 11.0 4.25 10.65 3.0 Q10.35 1.4 11.05 1.15 L11.5 1.05 11.3 1.1 Q10.6 1.35 10.9 2.95 L11.25 4.2 10.1 7.35 10.15 7.4 10.7 8.85 10.8 9.2 10.8 9.25 10.8 9.4 10.7 9.9 10.4 11.05 10.35 11.2 10.2 11.65 10.05 12.0 10.0 12.15 10.0 12.0 9.75 10.8 9.7 10.7 9.35 9.65 9.25 9.45 9.15 9.25 8.95 9.0 8.95 8.95 9.55 7.4 8.6 4.65 8.8 4.8 8.85 4.75 Q9.8 1.45 8.7 1.1 L8.65 1.1 M13.2 4.5 L13.1 4.7 12.55 3.65 12.5 3.6 12.55 3.55 13.2 4.5" fill="#000000" fill-opacity="0.29803923" fill-rule="evenodd" stroke="none"/>
      <path d="M6.8 4.5 L6.65 4.65 6.3 3.8 6.6 3.6 7.0 2.45 Q7.1 1.45 7.5 1.15 L8.65 1.1 8.7 1.1 Q9.8 1.45 8.85 4.75 L8.8 4.8 8.8 4.7 Q8.95 1.95 8.7 1.55 L8.4 1.5 8.05 2.2 7.45 3.55 6.8 4.5 M11.5 1.05 L12.5 1.15 13.05 2.4 13.7 3.8 13.35 4.65 13.2 4.5 12.55 3.55 11.65 1.6 11.3 1.55 Q11.0 2.95 11.3 4.1 L11.3 4.2 11.25 4.2 10.9 2.95 Q10.6 1.35 11.3 1.1 L11.5 1.05 M10.7 8.85 L11.8 8.8 11.5 11.35 10.4 11.05 10.7 9.9 10.8 9.4 10.8 9.25 10.8 9.2 10.7 8.85 M11.45 11.65 L10.95 13.65 10.7 13.8 9.7 14.35 9.65 14.2 9.25 13.1 11.45 11.65 M8.3 9.05 L8.95 9.0 9.15 9.25 9.25 9.45 9.35 9.65 9.7 10.7 9.75 10.8 8.5 10.25 8.3 9.05" fill="#ffffff" fill-rule="evenodd" stroke="none"/>
      <path d="M11.3 4.2 L11.3 4.1 Q11.0 2.95 11.3 1.55 L11.65 1.6 12.55 3.55 12.5 3.6 12.45 3.7 12.05 4.0 11.85 4.2 Q11.55 4.05 11.3 4.2 M7.45 3.55 L8.05 2.2 8.4 1.5 8.7 1.55 Q8.95 1.95 8.8 4.7 L8.8 4.8 8.6 4.65 8.35 4.4 8.35 4.3 7.9 4.0 7.7 3.8 7.55 3.5 7.5 3.6 7.45 3.55" fill="#b6b6b6" fill-rule="evenodd" stroke="none"/>
      <path d="M11.3 4.2 Q11.55 4.05 11.85 4.2 L11.65 4.4 11.85 7.65 11.8 8.8 10.7 8.85 10.15 7.4 10.1 7.35 11.25 4.2 11.3 4.2 M9.75 10.8 L10.0 12.0 10.0 12.15 10.05 12.0 10.2 11.65 10.35 11.2 10.4 11.05 11.5 11.35 11.45 11.65 9.25 13.1 Q8.7 11.45 8.5 10.4 L8.5 10.25 9.75 10.8 M10.95 13.65 L10.35 15.4 10.2 15.7 9.7 14.35 10.7 13.8 10.95 13.65 M8.35 4.4 L8.6 4.65 9.55 7.4 8.95 8.95 8.95 9.0 8.3 9.05 Q8.0 6.8 8.35 4.4" fill="#cccccc" fill-rule="evenodd" stroke="none"/>
      <path d="M13.1 4.7 L13.9 5.9 15.5 8.3 Q14.15 7.7 12.15 5.1 L12.1 5.0 12.05 4.95 11.65 4.4 11.85 4.2 12.05 4.0 12.45 3.7 12.5 3.6 12.55 3.65 13.1 4.7" fill="#666666" fill-rule="evenodd" stroke="none"/>
      <path d="M20.55 23.05 Q19.5 25.5 16.35 28.9 L13.45 31.85 Q11.7 29.4 10.05 24.4 L8.85 20.15 7.85 21.1 8.55 19.75 8.8 19.3 9.05 18.7 9.2 18.35 9.35 18.0 9.4 17.9 9.5 17.65 9.45 17.6 10.2 15.7 10.35 15.4 10.95 13.65 11.45 11.65 11.5 11.35 11.8 8.8 11.85 7.65 11.65 4.4 12.05 4.95 12.1 5.0 12.15 5.1 Q14.15 7.7 15.5 8.3 L16.25 8.6 16.0 9.3 Q13.9 14.1 12.0 16.6 L10.95 17.9 9.75 19.2 11.1 23.45 Q12.65 28.05 13.9 29.7 L16.9 26.5 Q19.05 24.0 20.1 21.95 L20.3 21.5 20.4 21.9 20.4 22.0 20.45 22.05 17.3 26.4 13.85 30.05 Q12.1 27.6 10.45 22.6 L9.55 19.4 9.05 19.9 9.2 20.25 10.2 23.9 Q11.85 28.9 13.55 31.35 L16.35 28.6 Q19.35 25.4 20.5 22.85 L20.55 23.05 M0.15 19.7 Q-0.2 19.1 0.25 18.25 L0.8 17.55 5.3 22.7 4.75 23.8 Q4.35 24.3 3.85 24.2 2.85 24.0 0.15 19.7 M3.95 9.2 L3.8 8.45 4.35 8.2 Q6.85 6.85 7.85 5.45 L8.35 4.4 8.35 4.3 8.35 4.4 Q8.0 6.8 8.3 9.05 L8.5 10.25 8.5 10.4 Q8.7 11.45 9.25 13.1 L9.65 14.2 9.65 14.35 9.6 14.8 Q9.2 15.8 6.0 13.3 4.75 11.35 3.95 9.2 M19.35 17.7 L19.95 18.45 Q20.45 19.4 20.0 20.2 17.4 24.7 16.85 24.7 16.1 24.7 15.25 23.3 L19.35 17.7" fill="#333333" fill-rule="evenodd" stroke="none"/>
      <path d="M4.35 8.2 L6.1 5.9 7.1 4.4 7.5 3.6 7.55 3.5 7.7 3.8 7.9 4.0 8.35 4.3 8.35 4.4 7.85 5.45 Q6.85 6.85 4.35 8.2" fill="#565656" fill-rule="evenodd" stroke="none"/>
      <path d="M10.2 15.7 L9.45 17.6 Q7.4 15.55 6.0 13.3 9.2 15.8 9.6 14.8 L9.65 14.35 9.65 14.2 9.7 14.35 10.2 15.7" fill="#2a2a2a" fill-rule="evenodd" stroke="none"/>
      <path d="M20.55 23.05 L20.75 24.55 Q18.2 29.7 13.1 33.65 L11.5 31.5 Q10.9 30.55 10.4 29.2 L10.0 27.75 9.85 27.4 9.85 27.35 9.6 26.55 9.45 26.3 7.85 21.1 8.85 20.15 10.05 24.4 Q11.7 29.4 13.45 31.85 L16.35 28.9 Q19.5 25.5 20.55 23.05 M16.0 9.3 Q18.55 14.7 19.35 17.7 L15.25 23.3 Q16.1 24.7 16.85 24.7 17.4 24.7 20.0 20.2 L20.3 21.5 20.1 21.95 Q19.05 24.0 16.9 26.5 L13.9 29.7 Q12.65 28.05 11.1 23.45 L9.75 19.2 10.95 17.9 12.0 16.6 Q13.9 14.1 16.0 9.3 M20.45 22.05 L20.45 22.25 20.5 22.4 20.5 22.85 Q19.35 25.4 16.35 28.6 L13.55 31.35 Q11.85 28.9 10.2 23.9 L9.2 20.25 9.05 19.9 9.55 19.4 10.45 22.6 Q12.1 27.6 13.85 30.05 L17.3 26.4 20.45 22.05" fill="#e5e5e5" fill-rule="evenodd" stroke="none"/>
      <path d="M9.45 26.3 L9.6 26.55 Q8.25 28.6 6.45 30.05 3.85 27.65 -0.2 21.3 L-0.15 21.1 -0.1 20.9 Q3.5 27.05 6.5 29.7 L8.0 28.25 9.45 26.3 M9.85 27.4 L10.0 27.75 Q8.4 30.4 6.65 32.0 1.2 26.65 -0.5 22.85 L-0.45 22.6 1.0 25.0 Q2.9 28.1 6.65 31.55 8.85 29.6 9.85 27.4" fill="#000000" fill-rule="evenodd" stroke="none"/>
      <path d="M7.85 21.1 L9.45 26.3 8.0 28.25 6.5 29.7 Q3.5 27.05 -0.1 20.9 L0.15 19.7 Q2.85 24.0 3.85 24.2 4.35 24.3 4.75 23.8 L5.3 22.7 0.8 17.55 Q2.2 12.9 3.25 10.75 3.65 9.7 3.95 9.2 4.75 11.35 6.0 13.3 7.4 15.55 9.45 17.6 L9.5 17.65 9.4 17.9 9.35 18.0 9.2 18.35 9.05 18.7 8.8 19.3 8.55 19.75 7.85 21.1 M9.6 26.55 L9.85 27.35 9.85 27.4 Q8.85 29.6 6.65 31.55 2.9 28.1 1.0 25.0 L-0.45 22.6 -0.2 21.3 Q3.85 27.65 6.45 30.05 8.25 28.6 9.6 26.55 M10.0 27.75 L10.4 29.2 8.95 31.5 6.95 33.6 Q2.75 30.1 -0.65 24.7 L-0.55 23.3 -0.5 22.85 Q1.2 26.65 6.65 32.0 8.4 30.4 10.0 27.75" fill="#d7d7d7" fill-rule="evenodd" stroke="none"/>
      <path d="M11.8 20.3 L11.3 20.55 10.75 20.3 10.55 19.8 10.75 19.25 11.3 19.05 11.8 19.25 12.05 19.8 11.8 20.3" fill="#333333" fill-rule="evenodd" stroke="none"/>
      <path d="M15.15 16.7 L14.9 17.2 14.4 17.45 13.85 17.2 13.65 16.7 13.85 16.15 14.4 15.95 14.9 16.15 15.15 16.7" fill="#333333" fill-rule="evenodd" stroke="none"/>
      <path d="M12.6 22.5 L13.1 22.7 13.35 23.25 13.1 23.75 12.6 24.0 12.05 23.75 11.85 23.25 12.05 22.7 12.6 22.5" fill="#333333" fill-rule="evenodd" stroke="none"/>
      <path d="M15.15 19.6 L15.7 19.4 16.2 19.6 16.45 20.15 16.2 20.65 15.7 20.9 Q15.4 20.9 15.15 20.65 L14.95 20.15 15.15 19.6" fill="#333333" fill-rule="evenodd" stroke="none"/>
    </g>
  </defs>
</svg>
