<svg xmlns="http://www.w3.org/2000/svg" xmlns:ffdec="https://www.free-decompiler.com/flash" xmlns:xlink="http://www.w3.org/1999/xlink" ffdec:objectType="frame" width="45.2" height="29.4"><use ffdec:characterId="5" xlink:href="#a" width="45.2" height="29.4"/><defs><linearGradient id="b" x1="-819.2" x2="819.2" gradientTransform="matrix(.0021 -.0007 .0008 .0025 24 18.8)" gradientUnits="userSpaceOnUse" spreadMethod="pad"><stop offset="0" stop-color="#ffccdc"/><stop offset="1" stop-color="#ff6698"/></linearGradient><linearGradient id="c" x1="-819.2" x2="819.2" gradientTransform="matrix(.0011 .0027 -.0031 .0012 24.35 21.85)" gradientUnits="userSpaceOnUse" spreadMethod="pad"><stop offset="0" stop-color="#ffccdc"/><stop offset="1" stop-color="#ff6698"/></linearGradient><linearGradient id="d" x1="-819.2" x2="819.2" gradientTransform="matrix(-.0019 .0007 -.0009 -.0024 20.1 20.2)" gradientUnits="userSpaceOnUse" spreadMethod="pad"><stop offset="0" stop-color="#ffccdc"/><stop offset="1" stop-color="#ff6698"/></linearGradient><linearGradient id="e" x1="-819.2" x2="819.2" gradientTransform="matrix(-.0009 .0027 -.0032 -.001 20 22.7)" gradientUnits="userSpaceOnUse" spreadMethod="pad"><stop offset="0" stop-color="#ffccdc"/><stop offset="1" stop-color="#ff6698"/></linearGradient><linearGradient id="f" x1="-819.2" x2="819.2" gradientTransform="matrix(.0019 .0007 .0009 -.0024 -.9 20.2)" gradientUnits="userSpaceOnUse" spreadMethod="pad"><stop offset="0" stop-color="#ffccdc"/><stop offset="1" stop-color="#ff6698"/></linearGradient><linearGradient id="g" x1="-819.2" x2="819.2" gradientTransform="matrix(.0009 .0027 .0032 -.001 -.8 22.7)" gradientUnits="userSpaceOnUse" spreadMethod="pad"><stop offset="0" stop-color="#ffccdc"/><stop offset="1" stop-color="#ff6698"/></linearGradient><linearGradient id="h" x1="-819.2" x2="819.2" gradientTransform="matrix(-.0011 .0027 .0031 .0012 -5.15 21.85)" gradientUnits="userSpaceOnUse" spreadMethod="pad"><stop offset="0" stop-color="#ffccdc"/><stop offset="1" stop-color="#ff6698"/></linearGradient><linearGradient id="i" x1="-819.2" x2="819.2" gradientTransform="matrix(-.0021 -.0007 -.0008 .0025 -4.8 18.8)" gradientUnits="userSpaceOnUse" spreadMethod="pad"><stop offset="0" stop-color="#ffccdc"/><stop offset="1" stop-color="#ff6698"/></linearGradient><linearGradient id="j" x1="-819.2" x2="819.2" gradientTransform="matrix(.0002 .0008 -.001 .0003 21.7 19.2)" gradientUnits="userSpaceOnUse" spreadMethod="pad"><stop offset="0" stop-color="#ffccdc"/><stop offset="1" stop-color="#ff6698"/></linearGradient><linearGradient id="k" x1="-819.2" x2="819.2" gradientTransform="matrix(-.0003 .0007 -.0009 -.0004 -2.8 19.1)" gradientUnits="userSpaceOnUse" spreadMethod="pad"><stop offset="0" stop-color="#ffccdc"/><stop offset="1" stop-color="#ff6698"/></linearGradient><g id="a" fill-rule="evenodd"><path fill="#fff2f6" d="m25.35 7-.75-1.15q.7 0 1.65 1.05l1.9-2.8q1.6 2.65 2.95 7.85l14 10.35q.3 1.7-.3 3.3l-.75 1.2q-1.65 1.45-3.1 1.8l-1.1.15h-.05l.8-1.2q.75-1.1.25-1.3l-1.3.35L38 24.85q-.85.4-1.7 1.1l.45.8-.35.05q-.55 0-.8-.3l-.05-.05q-1.25-1.9-2.6-1.8l-1.85-.4-.55-.5L29.5 22l-.15.05q-1.2.25-2.3.85l-.5.4-.05 1.25L24.3 26l-1.5.6h-.05l-.35-1.2-2.15.8q-.4.6-.45 1.45v.8q-2.05.9-3.05.95l-1.15-.3-.5-.25L14 28q.5-.05.8-.6l-.1-.05q-.25-.55-.95-.9l-1-.4q0 .6-.6 1.75h-.1q-1.5.25-1.9-.3l-1.1-1.05-.9-.65-1.8-.2q-.85-.3-1.05-.9l.75-.65-.8-.9-.5-.55q-1.4.75-2.05 1.25l-1.15-.6q-.25.05 0 1.3l.3 1.3-1-.95q-1-1.45-.85-3.9l14.8-8.95q1.3-5.25 2.85-7.9l1.8 2.75q.95-1.05 1.65-1.05L20.35 7q1.75.8 2.5.85l-.2-.55-.75-1.55-.25-.65 2.45-.05-.3.7-.7 1.55-.25.55 1.45-.4z"/><path fill="#cb6598" d="M38.65 17.55v8l-.25-.3v-7.9zm4.8 3.55v6.25l-.25.15v-6.6zm-2.6-1.95v9.5h-.25V19zm-4.8-3.55v11.15l-.25-.1v-11.2zm-2.5-1.85V24.7l-.25-.05V13.6zm-4.5-7.95v16.35l-.25.05V5.25zm-2-.05v17.2l-.25.2v-17zm-2.75 1.7.15-.05v18.55l-.15.05-.1.1V7.5zm-7.15-2.3v24.2l-.25.05V5.7zm5.1-.35v20.65l-.25.1V4.9zm-2.6 1.95v21.8l-.25.1V6.8l.05.1zm-4.85 5.3.05-.1v16.7l-.25-.15V12.2zM31.15 12v12.3l-.05-.05-.2-.2V11.1l.2.85zm-23.1 4.15v9.65l-.25-.05V16.3zm-5.1 3.1v4.45l-.25.15V19.4zm2.5-1.5v5.6l-.2-.2-.05-.1V17.9zm7.4-4.5V26.1l-.1-.05-.15.8V13.4zm-2.6 1.6V27.6l-.1-.1-.15-.15V15zM.55 20.7v3.65l-.25-.6v-2.9zm4.9 3.9v.35l-.15-.25z"/><path fill="#ff80aa" d="m30.85 11.1.2.8-5.7.95q-6.5.65-10.55-.8l.2-.75q4.2 1.35 10.5.7z"/><path fill-opacity=".694" d="m30.85 21.85-.25 1.7-.1.15-1-1.7zm-5.15 2 .85-.55-.05 1.25zm-5.9 3.8v.8h-.05l-1-.55-.4-.45 1.3-.9.6-.35q-.4.6-.45 1.45m2.6-2.25.95-.25-.55 1.45h-.05zm14.35 1.35-.35.05q-.55 0-.8-.3l.7-.55zm2.95-1.65-.15 1.5L38 24.85q.95-.5 1.7-.4zm-26.95.95q0 .6-.6 1.75h-.1q-.25-.6-1-1.25l-.7-.5q1.4-.35 2.4 0m-6.7-2 .55.7-.9.05-.4-.1zm-3.1-1.7.2-.6q.75.1 1.6.85-1.4.75-2.05 1.25z"/><path fill="#cb2929" d="M24.3 8.25q1.55-.1 3.15.6l-.75 2.25-.55.05-.7-.05 1.8 1.7-.6 1.15-.4 1.15q.2.7 1.55 1l1.2.2.85 1.05.35.75q-.2-.3-1-.5l-.7-.15-.55-.15q-1.7-.4-1.9-1l-.05-.05q-.15-.6-.15-1.75l-.15-1.35-1.55-2.25-1.25-1.55h.2l.3-1zm-1.95.05.05.45.2.6h.25L21.6 10.9l-1.55 2.25q-.15.25-.15 1.35l-.15 1.75-.05.05q-.2.6-1.9 1l-.1.05h-.05l-1.55.4-.55.35.35-.75q.4-.85.85-1.05 2.45-.25 2.75-1.2l-.4-1.15-.6-1.15 1.8-1.7-.7.05-.55-.05q-.8-1.65-.75-2.25 2.15-.9 3.95-.55z"/><path fill="#7f1919" d="m24.3 8.95-1-.25.1-.35.9.15.75.4zm-3.6-.05q.7-.55 1.65-.6l.05.45zm-1.1 2.25-.55-.05q2.1-1.4 3.6-1.75l-.85.75-1.25.9-.25.1zm-1.9 6.2h-.05l-1.55.4-.55.35.35-.75q.4-.85.85-1.05 2.45-.25 2.75-1.2l.25 1.15-.05.05q-.2.6-1.9 1zm6.25-7.25-.85-.75 1.2.4q1.1.45 2.4 1.35l-.55.05-.7-.05-.25-.1-.9-.6zm2.1 6.2-.05-.05.25-1.15q.2.7 1.55 1l1.2.2.85 1.05.35.75q-.2-.3-1-.5l-.7-.15-.55-.15q-1.7-.4-1.9-1"/><path fill="#7f1919" d="M23.1 9.35h-.5l-.2-.6-.05-.45v-.35l.25-.05.9.05-.05.25z"/><path fill="#ffb4cd" d="m29.25 2.35-3 4.55q-.95-1.05-1.65-1.05L25.35 7l-1.05.45-1.45.4q-.75-.05-2.5-.85l.75-1.15q-.7 0-1.65 1.05l-3-4.55.3-.55Q17.8.4 19.2 0l.05.05 1.7 1-1.1.1.05.15.75 1.65.8 1.8.2.35.25.65.75 1.55.2.55.25-.55.7-1.55.3-.7.15-.3.05-.1.75-1.7.75-1.6.1-.15-1.2-.15L26.45.1l.05-.1q1.4.4 2.45 1.8z"/><path fill="#fff" d="m22.05 5.8-.1.1q-.45.15-.8.75l1.55.55.1.05v.1l-.1.1h-.1l-1.7-.6-.05-.05v-.15q.4-.8 1-1h.1l.1.05zM16.8 1.7l.05.05 2.7 3.9q1.05-1 1.9-1h.1l.05.1-.05.1-.1.05q-.8.05-1.85 1.05l-.05.05h-.1l-.05-.05-2.75-4.05v-.1l.05-.1zm7.5 4.55-.55-.35-.05-.1v-.1l.05-.05h.1l.45.25.55.75.05.05-.05.1-.05.05-1.65.6h-.1l-.05-.1v-.1l.05-.05 1.55-.55zm4.8-4.45-.05.1-2.75 4.05-.05.05h-.05l-.05-.05q-1.05-1-1.85-1.05h-.05l-.1-.05v-.1l.05-.1h.1q.85.05 1.9 1l2.65-3.9.1-.05h.1z"/><path fill-opacity=".4" d="m25.9 1.2-1.2-.15L26.45.1zM25.35 7l-.75-1.15q.7 0 1.65 1.05l1.9-2.8.35.6-1.95 2.75-.7-.2-.7.35-.85.35-.85.25.05-.25-.9-.05-.25.05v.35h-.1L21 7.8l-1.15-.55-.7.2-1.85-2.7.35-.6 1.8 2.75q.95-1.05 1.65-1.05L20.35 7q1.75.8 2.5.85l1.45-.4zm-5.4 14.45 1.85-3.2-1.7 4.15q-1.7 4.3-1.75 5.05l.4.45 1 .55q-1.45.15-2.4-.7.6-2.55 2.6-6.3m2.9-12.1h.05l1.25 1.55 1.55 2.25.15 1.35q0 1.15.15 1.75l.05.05q.2.6 1.9 1l.55.15.7.15 2.55 4.3-1.15 1.65.25-1.7-.05-.2-1.8-3.3-.9-.35-.95-.3q-1.4-.25-1.55-1.1-.25-.25-.35-1.55l-.1-1.65-.85-1.4-.3-.45-1.1-1.5-1.15 1.45-1.2 1.9-.1 1.65-.35 1.55q-.15.85-1.55 1.1l-.95.3-1.85 9.85-1.7.2L14 28q.5-.05.8-.6l-.1-.05 2.75-9.3q-.85.3-1.95.8l.25-.5.35-.6 1.55-.4h.05l.1-.05q1.7-.4 1.9-1l.05-.05.15-1.75q0-1.1.15-1.35l1.55-2.25zm-1.9-8.3-1.1.1-.6-1.1zm2.4 25.15-.5.4h-.05l.55-1.45.65-8.7.05 8.65-.3.55zm3.1-1.6-.85-.25-.45-.25-.35-9.5.9 9.25.8.7zm18.35 1-.75 1.2q-1.65 1.45-3.1 1.8l-1.1.15 1.25-.65q1.35-1.2 1.8-3.6l-9.3-8.9 10.5 8.6.35-.3q.5-.6.6-1.65l.05.05q.3 1.7-.3 3.3m-11.05-.8-2.8-6.3 4.6 7.95q-.9-1.35-1.8-1.65m6.35-.5-9.15-9.35L41.1 24.1q-.4 1.9-1.55 2.5l.55-1.65zM8.15 25.8l-1.8-.2q-.85-.3-1.05-.9l.4.1.9-.05 6.5-6.55-4.9 7.65zm2.9.75q.75.65 1 1.25l-1.85-.25-.7-1.6 3.3-4.9-1.15 2.05Q10.4 25.35 10.3 26l.05.05zM2.7 22.2v1.65h-.05l-1.1-.6q-.25.05 0 1.3l.3 1.3-1-.95q-1-1.45-.85-3.85.75 1.5 2.3 1.5l-.1-.45-.1-1.15 12.05-6.25-11.3 6.8z"/><path fill="url(#b)" d="M22.3 19.75v-.15l.05-.05-.15-.95q.3-.95 1.5-1.55l1.1-.4q.3.95.1 2.8.6.15.95 1.55l-1.25-.1-1.2-.1z" transform="translate(13 -2.7)"/><path fill="url(#c)" d="m24.6 20.9 2.2 2.7-1.95.2-1.15 1.5-1.45-4.3.05-1.25 1.1 1.05z" transform="translate(13 -2.7)"/><path fill="url(#d)" d="m19.15 21.95-.2-1.45q-1.15-1.3-1.15-2.4l1.35.15 1.9.4q.4.15.6.7l.1.35.05.35v.05q-.45 1.55-2.6 2.25z" transform="translate(13 -2.7)"/><path fill="url(#e)" d="m19.15 21.95.05.4q2.15-.7 2.6-2.25.3 1.4-.65 5.45-.95-.45-1.2-1.15L18 24.15z" transform="translate(13 -2.7)"/><path fill="url(#f)" d="M-2.6 20.1v-.05l.05-.35.1-.35q.2-.55.6-.7l1.9-.4 1.35-.15q0 1.1-1.15 2.4l-.2 1.4-.05.45q-2.15-.7-2.6-2.25" transform="translate(13 -2.7)"/><path fill="url(#g)" d="M-2.6 20.1q.45 1.55 2.6 2.25l.05-.45 1.15 2.25-1.95.25q-.25.7-1.2 1.15-.95-4.05-.65-5.45" transform="translate(13 -2.7)"/><path fill="url(#h)" d="m-3.1 19.75.05 1.25-1.45 4.3-1.15-1.5-1.95-.2 2.2-2.7 1.2-.1z" transform="translate(13 -2.7)"/><path fill="url(#i)" d="m-5.4 20.9-1.25.1q.35-1.4.95-1.55-.2-1.85.1-2.8l1.1.4q1.2.6 1.5 1.55l-.15.95.05.05v.15l-1.1 1.05z" transform="translate(13 -2.7)"/><path fill="url(#j)" d="M21.65 19.35q-.2-.55-.6-.7.5-.35 1.1-.25l.05.2.15.95-.55.5-.05-.35z" transform="translate(13 -2.7)"/><path fill="url(#k)" d="M-2.95 18.4q.6-.1 1.1.25-.4.15-.6.7l-.1.35-.05.35-.55-.5.15-.95z" transform="translate(13 -2.7)"/><path fill-opacity=".4" d="m37.65 18.2.3.5q-2.35.15-2.65-.65l.05-.95 1.05 1zm-2.85.45-.75.8q-1.05.8-2.35.65l.45-.9.05.45q2.15-.7 2.6-2.25v-.05zm.9-2.7 1.2-.1q-.5.6-1.6.45zm-1.15.65q-.7.4-1.65 0 .75-.5 1.65 0m-21.5 2.6.45.9q-1.3.15-2.35-.65l-.75-.8v-1.3.05q.45 1.55 2.6 2.25zm-5.5-1 1.25-.1 1.05-1 .05.95q-.3.8-2.65.65zm2-2.25.4.35q-1.1.15-1.6-.45zm2.8.65q-.95.4-1.65 0 .9-.5 1.65 0"/></g></defs></svg>