<svg xmlns="http://www.w3.org/2000/svg" xmlns:ffdec="https://www.free-decompiler.com/flash" xmlns:xlink="http://www.w3.org/1999/xlink" ffdec:objectType="frame" width="6.9" height="7.9"><use ffdec:characterId="3" xlink:href="#a" width="6.9" height="7.9"/><defs><radialGradient id="b" cx="0" cy="0" r="819.2" gradientTransform="translate(5.15 6.75)scale(.0046)" gradientUnits="userSpaceOnUse" spreadMethod="pad"><stop offset="0" stop-color="#3c3561"/><stop offset="1" stop-color="#1f174a"/></radialGradient><g id="a" fill-rule="evenodd"><path fill="#3c3561" d="m4.9 6.85.05.05.05.05-.45.5-.3.35-.1-.3q.45-.55.75-.65M.4 2.8l-.25-.15.05-.15.15-.8.4-1.25.4.3L.5 2.4zm2.55 3.9.2-.4h.35v.65zm.5.45v.6L3.4 7.6q0-.3-.45-.3l-.25.15.15-.5zm2.7-1.55q-.35 0-.35.6l.05.65-.25-.2-.05-.05q0-.85.25-1.1h.1z"/><path fill="#181043" d="m4.75 6.65-.55-.7-.05.05-.35-1.15q-.35-.8-.35-1.15 0-.25.3-.55t.55-.3l.55.25.5-.35.25.15.15.35-.85 1.7v-.1l-.45.75.85.8h.05l-.4.5-.05-.05zM5.6 5.4 5 5.15l.45-.35h.85v.3l-.4.4h-.1zM1.95.5l-.2.55-.2-.15.1-.3h.05l.05-.1zM.75 3.1l.35.25-.25.85-.4-.25zM2.1 6.4 2.05 6l.3-.9.45.35.15.3-.15.4.35.15.35-.3v.3l.3-.05.25.85v.05l-.6.05v-.05l.05-.2V6.3h-.35l-.2.4-.05.05q-.45 0-.8-.35M.75.45.8.4l.25-.4.35.3-.25.4v.05zm-.6 2.2.25.15v.05l-.2.9-.2-.4V3.3l.15-.6zM1.9 6.5l.25.3.35.2.35-.05-.15.5-.35.05-.3-.2.2-.2-.45-.25zm1.55 1.25v-.4l.7.05v.1l.1.3-.5.1zM6.7 4.7l.2-.05v.7l-.35.4-.15-.05-.15-.05H6.2l.5-.6zm-.85 2.15V7q0 .45-.4.45L5.2 7.2 5.15 7l.45-.35z"/><path fill="url(#b)" d="m6.75 9.35-.85-.8.45-.75v.1l.85-1.7-.15-.35-.25-.15-.5.35-.55-.25q-.25 0-.55.3t-.3.55q0 .35.35 1.15l.35 1.15.05-.05.55.7-.15-.05-.5.6-.05-.1-.25-.85-.3.05v-.3l-.35.3-.35-.15.15-.4-.15-.3-.45-.35-.3.9.05.4H3.3l-.1-.05-.15.1q-.4 0-.7-.45L2.1 8.1l.1-.6.15-.35-.1.5.15-.55-.05.05H2.3l.25-.85-.35-.25.75-2.15.05-.05.2.15.2-.55h.05l.05-.05v-.05h.05l1.35.15 1.15.25q.85.1 1.1.4l.55.8.5 1.1q0 .65-.85 1.35l-.45.35-.45.35.6.25q-.4.1-.4.55z" transform="translate(-1.45 -2.95)"/><path fill="#e0b833" d="m4.75 6.65.15.2q-.3.1-.75.65v-.1l-.05-.2.5-.6zm.6-.25H5.3l-.1-.45q0-.45.4-.55l.2.1q-.25.25-.25 1.1zM1.5.95.75 3.1.4 2.85V2.8l.1-.4.65-1.65V.7zM2.95 6.7l.55.25-.05.2-.6-.2.05-.2z"/><path fill="#b69219" d="m4.95 6.9.4-.5.2.2.05.05-.45.35-.1-.05H5zm-3.4-6L1.5.95 1.15.7 1.4.3l.25.3zM2 6.4h.1q.35.35.8.35l-.05.2L2.5 7l-.35-.2-.25-.3zm2.05.7.05.1.05.2-.7-.05V7.2l.6-.05zM.2 3.75l.2-.9.35.25-.3.85zm6 1.9-.05-.05-.25-.1.4-.4v-.3l.4-.1v.35z"/></g></defs></svg>