<svg xmlns="http://www.w3.org/2000/svg" xmlns:ffdec="https://www.free-decompiler.com/flash" xmlns:xlink="http://www.w3.org/1999/xlink" ffdec:objectType="frame" width="35.8" height="52"><use ffdec:characterId="3" xlink:href="#a" width="35.8" height="52"/><defs><g id="a" fill-rule="evenodd"><path fill="#6e7b7b" d="m17.8 24.45.05-3.9v-3.9l-.05-1.1q.35.45.3 1.3L18 20.7v2.65l.05 2.4.05 2.35h-.15z"/><path fill="#fff" d="M18.1 17.2v-.35q.05-.85-.3-1.3l.05 1.1v.2l-1.7.2-1.85 1.5q.15-2.55 2.8-3.15 2.3-.25 2.8 1.7l-.05.1q-1.25.75-1.75 0m-.2 1.3-.05 2.05-.05 3.9.15 3.65-1.3-.05L15.6 28q.05-1.75.4-3.5l.45-3.9.2-2.1zm2.5 9.5-2.3.1-.05-2.35-.05-2.4V18.5h1.2l.35 3.7.5 3.9z"/><path fill="#c7e2e2" d="M18.1 17.2q.5.75 1.75 0l.05-.1q-.5-1.95-2.8-1.7-2.65.6-2.8 3.15l1.85-1.5 1.7-.2.05 1.65h-1.25l-.2 2.1-.45 3.9q-.35 1.75-.4 3.5l-1.45-.05q-.75-.6-.75-3.3 0-5.75 1.5-8.9 1.3-2.75 3.25-2.6 1.9.15 3.25 2.95 1.5 3.05 1.5 7.85l-.2 2.9-.2.7-2.1.45-.35-1.9-.5-3.9-.35-3.7H18z"/><path fill="#691d5b" d="m10.25 1.5.05.1.25.45-.2.8L9 3.4l-.15.1.1-.55-.2-.55-.2-.2.6-.25-.05.2q0 .6.55.6l.5-.4-.2-.1-.3.25q-.3 0-.3-.3l.1-.4zm2.6-.7L13.7 2l-.55.1-.3-.25.2-.35-.1-.05-.3.2q-.2-.35-.25-.8zm1.35 1.85.65 1 1.8 2.9-.85.55-1.15.45q-1.3.75-1.5 1l-.1.15-1.85 2.15Q9.65 9.95 6.15 9h-.1q.1-.85.6-1.95.55-1.15 1.4-1.95l.1-.05q.75-.85 1.9-1.35 1.1-.5 4.15-1.05m-9 6.1L4 8.45l-.05-.05H3.9l.25-1.05.15.1h.15v.25l.7.75.1.2zm7.5-6.65.1.1h-.15zm-1.55-.9.2.35v.1q-.4.15-.35.8v.15l-.3.1.1-.7-.2-.55-.05-.1zm.45.35-.1-.45.65-.2.05.25q-.05.45.3.75l-.15.35-.5.15-.55.15-.05-.1.05-.3.15-.25.1-.05h.05q.35 0 .45.2l.15-.1-.6-.35zM31.5 8.6h-.05l-.05.05-1.2.3-.05-.1.1-.2.7-.75v-.25h.15l.15-.1zm-2.15.6h-.1q-3.5.95-5.05 1.85L22.35 8.9l2.35-2.1q1.1-.9 2.55-1.55l.1.05q.85.8 1.4 1.95.5 1.1.6 1.95m-.4-4.65-.15.35-.5.3-.2-.2.25-.25zm.3-.05.15.65-.05.3-.1.05.05.05-.35.55-.4-.65.45-.35zm.4.65-.05-.65.45.55.8 1.3q-.85.05-1.1 1.4l-.6-1.35.4-.8h.1l.15.25-.4.35.25.2q.35 0 .4-.6l-.2-.4-.25-.1zm.7 1.85q.2-.35.55-.4l.3.65-.1.1h-.25l-.55-.25zm.15.65h.2v.05l-.35.45-.3.15v-.4l.05-.5zm-25.8-.2h.2l.4-.25.05.5v.4l-.3-.15-.35-.45zm.35-.65.05.1q-.05.2-.55.25H4.3l-.1-.1.3-.65q.35.05.55.4m.7-1.4h.1l.4.8-.6 1.35q-.25-1.35-1.1-1.4l.8-1.3.45-.55-.05.65.05.15-.25.1-.2.4q.05.6.4.6L6 6l-.4-.35zm.4-1.15v.05l.25.6.45.35-.4.65-.35-.55.05-.05-.1-.05-.05-.3.15-.65zm1.7-.95q.3-.1.3.25l-.25.35-.35-.25q0-.3.3-.35m.7-.75L8.7 3l-.15.7-.1.05-.05-.2q0-.6-.55-.55-.55 0-.55.6l.2.35.35.25-.4.3-.35-.6.05-.2-.1-.1q-.25-.05-.2.25l.2.7.25.25-.2.2-.5-.3-.15-.35-.05-.25.05-.4.15-.25 1.05-.75.7-.4z"/><path fill="#ffda2c" d="m10.25 1.5-.8.3-.1.4q0 .3.3.3l.3-.25.2.1-.5.4q-.55 0-.55-.6l.05-.2-.6.25.2.2.2.55-.1.55.15-.1 1.35-.55.2-.8-.25-.45zM3.9 8.4 3 8.05q-.05-.85.8-2.55l.75-1.25.5-.6Q6.3 2.3 7.95 1.5q1.6-.85 4.3-1.5l.6.8-.45.05q.05.45.25.8l.3-.2.1.05-.2.35.3.25.55-.1.5.65q-3.05.55-4.15 1.05-1.15.5-1.9 1.35l-.1.05q-.85.8-1.4 1.95-.5 1.1-.6 1.95l-.85-.25.05-.1-.1-.2-.7-.75v-.25H4.3l-.15-.1zm7.7-6.85v.05l.6.35-.15.1q-.1-.2-.45-.2h-.05l-.1.05-.15.25-.05.3.05.1.55-.15.5-.15.15-.35q-.35-.3-.3-.75L12.15.9l-.65.2zm-.45-.35-.6.15.05.1.2.55-.1.7.3-.1v-.15q-.05-.65.35-.8v-.1zm1.55.9-.05.1h.15zm18.15 2.35.75 1.25q.85 1.7.8 2.55l-.9.35-.25-1.05-.15.1h-.15v.25l-.7.75-.1.2.05.1-.85.25q-.1-.85-.6-1.95-.55-1.15-1.4-1.95l-.1-.05.75-.35.35-.15-.25.25.2.2.5-.3.15-.35.3-.05zm-.35 3.2-.4-.25-.05.5v.4l.3-.15.35-.45v-.05zM30.35 7l-.05.1.55.25h.25l.1-.1-.3-.65q-.35.05-.55.4m-.7-1.85-.05.15.25.1.2.4q-.05.6-.4.6l-.25-.2.4-.35-.15-.25h-.1l-.4.8.6 1.35q.25-1.35 1.1-1.4l-.8-1.3-.45-.55zm-.4-.65-.25.6-.45.35.4.65.35-.55-.05-.05.1-.05.05-.3zM8.55 2.55l-.2-.25-.7.4-1.05.75-.15.25-.05.4.05.25.15.35.5.3.2-.2-.25-.25-.2-.7q-.05-.3.2-.25l.1.1-.05.2.35.6.4-.3-.35-.25-.2-.35q0-.6.55-.6.55-.05.55.55l.05.2.1-.05.15-.7zm-.7.75q-.3.05-.3.35l.35.25.25-.35q0-.35-.3-.25m-1.7.95v.05L6 4.95l.05.3.1.05-.05.05.35.55.4-.65-.45-.35-.25-.6zm-.4 1.15-.15.25L6 6l-.25.2q-.35 0-.4-.6l.2-.4.25-.1-.05-.15.05-.65-.45.55-.8 1.3q.85.05 1.1 1.4l.6-1.35-.4-.8zm-.7 1.4q-.2-.35-.55-.4l-.3.65.1.1h.25q.5-.05.55-.25zm-.35.65v.05l.35.45.3.15v-.4l-.05-.5-.4.25z"/><path fill="#d28528" d="m21.7 2.2.55.1.3-.25-.2-.35.1-.05.3.2.25-.8-.45-.05.6-.8q2.7.65 4.3 1.5 1.65.8 2.9 2.15l.5.6-1.6.05-.3.05.05-.25-.05-.4-.15-.25-1.05-.75-.7-.4-.2.25-.15.45.15.7.1.05.05-.2q0-.6.55-.55.55 0 .55.6l-.2.35-.35.25.4.3.35-.6-.05-.2.1-.1q.25-.05.2.25l-.2.7-.35.15-.75.35q-.75-.85-1.9-1.35-1.1-.5-4.15-1.05zm3.4-.4-.25.45.2.8 1.35.55.15.1-.1-.55.2-.55.2-.2-.6-.25.05.2q0 .6-.55.6l-.5-.4.2-.1.3.25.3-.3-.1-.4-.8-.3zm-1.05-.05v.1q.4.15.35.8v.15l.3.1-.1-.7.2-.55.05-.1-.6-.15zm-.8-.65-.05.25q.05.45-.3.75l.15.35.5.15.55.15.05-.1-.05-.3-.15-.25-.1-.05h-.05q-.35 0-.45.2l-.15-.1q.05-.35.6-.35v-.05l.1-.45zm4.3 2.4q-.3-.1-.3.25-.05.3.25.35l.35-.25zM22.6 2.4h.15l-.05-.1z"/><path fill="#5b004a" d="m21.7 2.2.85-1.2.45.05-.25.8-.3-.2-.1.05.2.35-.3.25zm.65 6.7-.1-.15q-.2-.25-1.5-1L19.6 7.3q-.85-.3-.85-.55l1.8-2.9.65-1q3.05.55 4.15 1.05 1.15.5 1.9 1.35-1.45.65-2.55 1.55zm.9-7.8.65.2-.1.45v.05q-.55 0-.6.35l.15.1q.1-.2.45-.2h.05l.1.05.15.25.05.3-.05.1-.55-.15-.5-.15-.15-.35q.35-.3.3-.75zm.8.65.2-.35.6.15-.05.1-.2.55.1.7-.3-.1v-.15q.05-.65-.35-.8zm1.05.05.05-.1.8.3.1.4-.3.3-.3-.25-.2.1.5.4q.55 0 .55-.6l-.05-.2.6.25-.2.2-.2.55.1.55-.15-.1-1.35-.55-.2-.8zm3.25 2.95.2-.7q.05-.3-.2-.25l-.1.1.05.2-.35.6-.4-.3.35-.25.2-.35q0-.6-.55-.6-.55-.05-.55.55l-.05.2-.1-.05-.15-.7.15-.45.2-.25.7.4 1.05.75.15.25.05.4-.05.25zm-.8-1.25.3.35-.35.25q-.3-.05-.25-.35 0-.35.3-.25M22.6 2.4l.1-.1.05.1z"/><path fill="#d28528" d="m8.55 2.2.2.2.2.55-.1.55.15-.1 1.35-.55.2-.8-.25-.45-.05-.1-.8.3-.1.4q0 .3.3.3l.3-.25.2.1-.5.4q-.55 0-.55-.6l.05-.2zm-2.1 2.15-.3-.05v-.05.05l-1.6-.05.5-.6Q6.3 2.3 7.95 1.5q1.6-.85 4.3-1.5l.6.8-.45.05q.05.45.25.8l.3-.2.1.05-.2.35.3.25.55-.1.5.65q-3.05.55-4.15 1.05-1.15.5-1.9 1.35L7.4 4.7l-.35-.15-.2-.7q-.05-.3.2-.25l.1.1-.05.2.35.6.4-.3-.35-.25-.2-.35q0-.6.55-.6.55-.05.55.55l.05.2.1-.05.15-.7-.15-.45-.2-.25-.7.4-1.05.75-.15.25-.05.4zm4.7-3.15-.6.15.05.1.2.55-.1.7.3-.1v-.15q-.05-.65.35-.8v-.1zm.45.35v.05l.6.35-.15.1q-.1-.2-.45-.2h-.05l-.1.05-.15.25-.05.3.05.1.55-.15.5-.15.15-.35q-.35-.3-.3-.75L12.15.9l-.65.2zm1.1.55-.05.1h.15zM7.85 3.3q-.3.05-.3.35l.35.25.25-.35q0-.35-.3-.25"/><path fill="#5b004a" d="m8.55 2.2.6-.25-.05.2q0 .6.55.6l.5-.4-.2-.1-.3.25q-.3 0-.3-.3l.1-.4.8-.3.05.1.25.45-.2.8L9 3.4l-.15.1.1-.55-.2-.55zm4.3-1.4L13.7 2l-.55.1-.3-.25.2-.35-.1-.05-.3.2q-.2-.35-.25-.8zm1.35 1.85.65 1 1.8 2.9-.85.55-1.15.45q-1.3.75-1.5 1l-.1.15-2.35-2.1-2.55-1.55q.75-.85 1.9-1.35 1.1-.5 4.15-1.05m-7.15 1.9-.6-.2-.05-.25.05-.4.15-.25 1.05-.75.7-.4.2.25.15.45-.15.7-.1.05-.05-.2q0-.6-.55-.55-.55 0-.55.6l.2.35.35.25-.4.3-.35-.6.05-.2-.1-.1q-.25-.05-.2.25zm.8-1.25q.3-.1.3.25l-.25.35-.35-.25q0-.3.3-.35m4.85-1.2.1.1h-.15zm-1.1-.55-.1-.45.65-.2.05.25q-.05.45.3.75l-.15.35-.5.15-.55.15-.05-.1.05-.3.15-.25.1-.05h.05q.35 0 .45.2l.15-.1-.6-.35zm-.45-.35.2.35v.1q-.4.15-.35.8v.15l-.3.1.1-.7-.2-.55-.05-.1z"/><path fill="#ffda2c" d="m23.35 7.05.7-.8 1.3.2L25 10.5q-.4.85-1.15 1.5l-.05.05.25-2.85.1-.95.1-1.05zm-1.4.75.2.05q.75.1 1 .6.1.45-.45.55h-.85l-.6-.05-.15-.05.75-1.1zm-1.15 2.3 1.15.2q.85 0 1 .65l-.05.35-2.05.1-.3-.05h-.05l-.2-.05.15-.85.05-.15.1-.2v-.05zm-.4 2.5 1.55.25q.85 0 1 .65l-.05.35-2.05.1-.55-.1h-.05l-.2-.05.1-1.25zm-.15 2.45 1.6.25q.85 0 1 .65l-.05.35-2.05.1-.55-.1h-.05l-.2-.05L20 15zm-.05 2.35 1.5.25q.85 0 1 .65l-.05.35-2.05.1-.35-.05h-.15l-.15-.05v-1.3zm0 2.55 1.4.25q.85 0 1 .65l-.05.35-2.05.1h-.2l-.25-.05-.05-1.3v-.05zm.2 2.35 1 .15q.85 0 1 .65l-.05.35-1.75.15-.25-.05-.2-1.3zm.55 2.75.6.1 1.3.1.1-.95.15-1.05.05-.95.1-1.5.1-1.45.95.15v.55l-.25 4.05-.2 3.7-.05.35.05 1.35v.15l-1.15-.25-1.2-1.55.55.05h.55l.2-1.45h-.15l-.95-.15-.4-.05-.45-.1-.2-.95-.05-.2.25.05zm-8.5-18-.9.15.1 1.05.1.95.25 2.85-.05-.05q-.75-.65-1.15-1.5l-.35-4.05 1.3-.2zm1.4.75h.1l.75 1.1-.15.05-.6.05h-.85q-.55-.1-.45-.55.25-.5 1-.6zm.45 26.55-.05.35-.4 2.6-1.15-1.4.1-.4.2-1.25.15-.9.05-.3.1-.4zm-1.35 8.4-.45 2.75-.2 1.3-.8 4.75-.05.35-.2.1-1.2-.25H10l-1.65-.3-.6-.8-.35-.6 1.05.3.45.1.3-.55v-.3q0-.65-.55-.65-.45 0-.45.3l-.05.45q-.25-.05-.2-.3 0-.35.15-.55l-.05-.35-.2-.45-.45.2h-.1l-.6-.2L6.35 47l.2-1.2.1-.25.1-.1-.6-.25-.2-.1.05.75v.1l-.5-2.45.4.25 1.3.65q1.1.45 3.9.9l.25-.8.35-2.45zm-7.65 7.8-.9-.35-.3-1.25-.05-.1L4 48.6l.1.05.15.1.05-.35v-.05q0-.2.35-.25l.05-.05.1.3-.1.05-.2.2v.05l.1.25.3.15.05.2.05.2.05.2zM2.7 49.3l-.05-.05-.85-.6-.8-.75-.05-.1L0 46.4l.55-1.65.2.4.05.1.15.35.25-.65-.35-.4v-.05l-.1-.3.1-.35v.05l.05.25.15.4.05.05.05.1.05.05.05-.05.05.1.05-.05.15-.2.1-.1.1-.15.05-.05.05-.05v-.5l.15-.55-.15-.2-.05-.2-.2-.05-.15.05-.2.1.15-.4h.2l.3.2.05.05.15.15.2-.55-.1-.2-.05-.05-.15-.2-.05-.05-.05-.05-.15-.4.4-1.15.1.2.1.1.05.15.15.15.1.1v.05l.1.15.05.05-.3 1.5v.05l-.25.65-.1.4.05.2h.05l.1-.1.05-.05v.3l-.25.2-.1.05-.5.75-.05.1-.05.1-.2.75.25.45.15.2v-.25l.25-.9.2-.2.3-.25v.2l-.2.2-.25.9v.65l.45.45.15.1zm-.45-10.6h.15l.05.05h.05v.2l.05.25.15.5.05.1v-.1L3 40h.05l.05.05 1.65.4h.05l.65-.05 2.45-.75L9.5 39l.1-.05v-.05q0-.3.15-.5l.55-.2.45.2.05.05.15.2.05.25-.25.5-.2.15-.25.05h-.1l-.45-.2-.05-.1.15-.1.4.15.35-.15.15-.25-.35.1q-.2 0-.25-.15v-.15q0-.35.35-.35l-.25-.05-.4.1-.1.4v.05l.25-.1v.05l-.65.4-2.5 1-1.45.4-.65.05h-.2l-.45-.1h-.05l-1-.3-.2-.15-.25-.4-.2-.25v-.1l-.15-.2zm1.3-3.75h.1l.05.05h.05v.35l-.05.15.3.45.5.5 1.3.25h.05l.65-.05q1-.15 2.6-.9l1.05-.45.1-.05v-.05q0-.3.15-.5.25-.2.55-.2l.45.2.15.15.1.35-.25.5-.45.2q-.3 0-.55-.2l-.05-.1.15-.1.4.15.35-.15.1-.1h-.2q-.2 0-.2-.35 0-.3.15-.35l-.2-.05-.4.1-.1.4v.05l.3-.15v.05l-.55.4h-.05l-2.3 1-1.2.4-.15.05-.75.1-.3-.05-.95-.35-.15-.1-.65-.95-.1-.15zm8.9-15.6.1 1.45.1 1.5.05.95.15 1.05.1.95 1.3-.1.6-.1h.1l.25-.05-.05.2-.2.95-.45.1-.4.05-.95.15H13l.2 1.45h.55l.55-.05-1.2 1.55-1.15.25v-.15l.05-1.35-.05-.35-.2-3.7-.25-4.05v-.55zm2.75 4.25-.3.05-1.45-.2-.05-.35q.15-.65 1-.65l1-.15.25-.05-.2 1.3zm.3-2.3h-.2l-2.05-.1-.05-.35q.15-.65 1-.65l1.4-.25.2-.05v.05l-.05 1.3zm0-2.6-.3.05-2.05-.1-.05-.35q.15-.65 1-.65l1.5-.25.25-.05v1.3l-.15.05zm-.45-2.3L13 16.3l-.05-.35q.15-.65 1-.65l1.6-.25.25-.05.05 1.25-.2.05zm-.1-2.45-2.05-.1-.05-.35q.15-.65 1-.65l1.55-.25.25-.05.1 1.25-.2.05zm.25-2.6-.25.05-2.05-.1-.05-.35q.15-.65 1-.65l1.15-.2.2-.05v.05l.1.2.05.15.15.85-.2.05zm7.35 21.35v.1l.05.25.05.3.15.9.2 1.25.1.4-1.15 1.4-.4-2.6-.05-.35 1-1.7zm2.15 12.6 3.9-.9 1.3-.65.3-.2.1-.05-.5 2.45v-.1l.05-.75-.2.1-.6.25.1.1.1.25.2 1.2-.35 1.05-.6.2h-.1l-.45-.2-.2.45-.05.35.15.55-.2.3-.05-.45q0-.3-.45-.3-.55 0-.55.65v.3l.3.55.45-.1 1.05-.3-.35.6-.6.8-1.65.3h-.05l-1.2.25-.2-.1-.05-.35-.8-4.75-.2-1.3-.45-2.75 1.25-.7.35 2.45zm.95-10 1.05.45q1.6.75 2.6.9l.65.05H30l1.3-.25.5-.5.3-.45-.05-.15V35h.05l.05-.05h.1v.5l-.1.15-.65.95-.15.1-.95.35-.3.05-.75-.1-.15-.05-1.2-.4q-1.65-.6-2.3-1h-.05l-.55-.4v-.05l.3.15v-.05l-.1-.4-.4-.1-.2.05.15.35-.2.35h-.2l.1.1.35.15.4-.15.15.1-.05.1-.55.2q-.3 0-.45-.2l-.25-.5.1-.35.15-.15.45-.2.55.2.15.5v.05zm.15 3.55v-.05l.25.1v-.05l-.1-.4-.4-.1-.25.05q.35 0 .35.35v.15l-.25.15-.35-.1.15.25.35.15.4-.15.15.1-.05.1-.45.2h-.1l-.3-.05-.15-.15-.25-.5.05-.25.15-.2.05-.05q.15-.2.45-.2l.55.2.15.5v.05l.1.05 1.6.65 2.45.75.65.05h.05q1.2-.05 1.65-.4l.05-.05h.05l.25-.3v.1l.05-.1.15-.5.05-.25v-.2h.05l.05-.05h.15v.5l-.15.2v.1l-.2.25-.25.4-.2.15-1 .3h-.05l-.45.1h-.2l-.65-.05-1.45-.4q-1.8-.6-2.5-1zM10.9 47.5l.1-.75.1-.55-.05.15-.8-.1v.5q.05.3.45.6zm-1.05-1.1.05-.2-.6-.1.05.65.1.4.3-.2.15-.15zm-1.55.55h-.15l.15.45-.1.15-.2.35.4.8.3-.05.55.35.2-.2q.2-.15.45-.15-.6-.85-.75-1.85H9.1zm.7-.35.05-.55-1.65-.4h-.05l-.45-.15-.2.5.4.45 1.1.25zm.55.9q.05.45.4.8l.75.65.1-.9q-.45-.15-.7-.7l-.1-.2-.3.25h-.2zm-.15 1.8.05.55-.2.7 1.15.2.25-1.45-.5-.4-.65.15zm16.5-3.1.05.2-.05.4.15.15.3.2.1-.4.05-.65zm1.75.75h-.15l-.8-.15h-.05q-.15 1-.75 1.85l.45.15.2.2q.2-.3.55-.35l.3.05.4-.8-.2-.35-.1-.15q0-.3.15-.45m-.85-.35.8.1 1.1-.25.4-.45-.2-.5-.45.15h-.05l-1.65.4zm-.7.8-.3-.25-.1.2-.7.7.1.9.75-.65.4-.8.05-.1zm2.55 2.1v-.05l-.25-.5q.05-.1.15-.1h.05l.25.2v.05zm-3.9-3.15-.05-.15.1.55.1.75.2-.15.45-.6v-.5zm.4 2.95.25 1.45 1.15-.2-.2-.7.05-.55-.1-.25q-.15-.15-.65-.15zm8.55-9.1.4 1.15-.15.4-.1.1-.15.2-.05.05-.1.2.2.55.15-.15.05-.05.3-.2h.2l.15.4-.2-.1-.15-.05-.2.05-.05.2-.15.2.15.55v.5l.1.1.1.15.1.1.15.2.05.05.05-.1.05.05.05-.05.05-.1.05-.05.15-.4.05-.25v-.05l.1.35-.1.3v.05l-.35.4.25.65.15-.35.05-.1.2-.4.55 1.65-.95 1.4-.05.1-.8.75-.85.6-.05.05.2-1.7.15-.1.45-.45v-.65l-.25-.9-.2-.2v-.2l.3.25.2.2.25.9v.25l.15-.2.25-.45-.2-.75-.05-.1-.05-.1-.5-.75-.1-.05-.25-.2v-.3l.15.15h.05l.05-.2-.1-.4-.25-.65v-.05l-.3-1.5.05-.05.1-.15v-.05l.1-.1.15-.2.05-.1.05-.1zm-2.3 10-.9.35.25-.9.05-.2.05-.2.05-.2.3-.15.1-.25v-.05l-.2-.2-.1-.05.1-.25v-.05l.05.05.35.25v.05l.05.35.15-.1.1-.05-.05.25-.05.1zm.6-7.95.2-.2.1-.1h.05v1.6h-.05l-.3.25-.15.2h-.05l.25.3.15.15.1.1V45l-.4.5v.15l.05.35h.1v-.05l.15-.25v.05l-.05.65h-.05l-.4-.2-.1-.3v-.45l.1-.2v-.05l.05-.05.2-.25.2-.15-.4-.35h-.05v-.05zm-.05 5.6-.05.3-.3-.4-.3-.1-.1-.05h-.05l.05-.05v-.05l.05.05h.05l.4.1zm-3-1.25-1.25.35q0 .95.65.95.9 0 .8-1.15v-.3zM3.5 45v-.45l.1-.1.15-.15L4 44l-.2-.2-.3-.25h-.05v-1.6h.05l.1.1.2.2.3 2.1v.05h-.05l-.4.35.2.15.25.3.1.25v.45l-.1.3-.4.2h-.05l-.05-.65v-.05l.15.25V46h.1l.05-.35v-.1q-.05-.3-.4-.55m.25 2.2h.15zm.8.35.05-.05v.05l.05.05-.1.05H4.5l-.15.05-.45.45-.05-.3.25-.2.4-.1zm2.1-1.1v.3q-.1 1.15.8 1.15.65 0 .65-.95l-1.25-.35zm.3 2.6.25-.2h.05q.1 0 .15.1l-.25.5v.05l-.2-.4z"/><path fill="#d28528" d="m24.05 6.25-.7.8-.5-.05h-.15l-.15-.05-.6-.1-1.8-.25-1.9-.25-.15-.6-.05-.45zm-5.6 2.25-.05-.15-.05-1.05 3.45.5h.05l-.75 1.1h-.05l-1.55-.2zm.15 1.2 2 .35v.05l-.1.2-.05.15-.15.85-1.65-.35zm.15 2.6 1.4.25-.1 1.25-1.15-.25h-.05v-.15zm.25 2.5 1 .2-.05 1.25-.8-.15V16l-.2-1.2zm-5.15-7.95-1.4.2-.7-.8 6-.95-.05.45-.15.6-1.9.25zm.1.95H14l3.45-.5-.05 1.05-.05.15-1.05.2-1.55.2h-.05zm3.25 1.9-.05 1.25-1.65.35-.15-.85-.05-.15-.1-.2v-.05zm-.15 2.6-.1 1.1v.15h-.05l-1.15.25-.1-1.25zm-.25 2.5h.05l-.2 1.2v.1l-.8.15L15.8 15zm-.3 2.45-.1.85-.05.45-.5.1v-1.3zm-.35 2.6L16 21.2l-.25.05.05-1.3v-.05zm-.3 2.35-.05.65-.05.5v.15l-.25.05h-.05l.2-1.3zm-.2 2.5-.05.4-.15.95-.5.1.2-.95.05-.2zm-.4 2.85-.2 1.4-1 .25q.1-1.05-.1 0l-.85.2 1.2-1.55.75-.2zM4.4 50.2l-.1-.05-1.6-.85-.2-1.7.05.05.05.05.35.25-.05-.3.2-.6-.35-.6q-.1-.45.25-.6h.05l-.1.35.25.6.2.1v.05l.35.1v.15H3.6l-.25-.05-.2.5v.1l.2.45.25.2.25-.55.05.3-.05.4.15.05.05.25.05.1zm7.55-15.3.1.4-.3.65-.65.3q-.4 0-.7-.3l-.15-.2-.05-.05.15-.1.05.1q.25.2.55.2l.45-.2.25-.5-.1-.35-.15-.15-.45-.2q-.3 0-.55.2-.15.2-.15.5v.05l-.1.05q0-.4.25-.7.3-.25.7-.25t.65.25zm-.6 3.75.05.35-.3.65-.65.3q-.4 0-.7-.3l-.15-.2v-.05l.1-.1.05.1.45.2h.1l.25-.05.2-.15.25-.5-.05-.25-.15-.2-.05-.05-.45-.2-.55.2q-.15.2-.15.5v.05l-.1.05.25-.7q.3-.25.7-.25t.65.25zm7.95-21.4.65.1v1.3l-.5-.1-.05-.45zm.35 2.6.35.05v.05l.05 1.3-.25-.05zm.3 2.35.2.05.2 1.3h-.05l-.25-.05v-.15l-.05-.5zm.2 2.5.45.3.05.2.2.95-.5-.1-.15-.95zm.4 2.85.3.15.1.05.55.1 1.2 1.55-.85-.2q-.2-1.05-.1 0l-1-.25zm5.65 11.9-.15.2-.7.3q-.4 0-.65-.3-.3-.25-.3-.65l.05-.35.25-.35q.25-.25.65-.25l.7.25.25.7-.1-.05v-.05l-.15-.5-.55-.2q-.3 0-.45.2l-.05.05-.15.2-.05.25.25.5.15.15.3.05h.1l.45-.2.05-.1.1.1zm-.6-3.75-.05.05-.15.2-.7.3q-.4 0-.65-.3-.3-.25-.3-.65l.1-.4.2-.3q.25-.25.65-.25t.7.25l.25.7-.1-.05v-.05l-.15-.5-.55-.2-.45.2-.15.15-.1.35.25.5q.15.2.45.2l.55-.2.05-.1zm-.5-.6-.05.1v.15l.25.15-.4.15-.35-.15-.1-.1h.2l.2-.35-.15-.35.2-.05.4.1.1.4v.05l-.3-.15zm.85 4.1-.4.15-.35-.15-.15-.25.35.1.25-.15v-.15q0-.35-.35-.35l.25-.05.4.1.1.4v.05l-.25-.1v.05l-.05.1v.15zM10.7 35.1v-.05l-.3.15v-.05l.1-.4.4-.1.2.05q-.15.05-.15.35 0 .35.2.35h.2l-.1.1-.35.15-.4-.15.25-.15v-.15zm-.7 3.75v-.05l-.25.1v-.05l.1-.4.4-.1.25.05q-.35 0-.35.35v.15q.05.15.25.15l.35-.1-.15.25-.35.15-.4-.15.2-.1v-.15zM33.1 49.3l-1.6.85-.1.05.3-1.25.05-.1.05-.25.15-.05v-.2l-.05-.2.05-.3.25.55.25-.2.2-.45v-.1l-.2-.5-.25.05h-.15v-.15l.35-.1v-.05l.2-.1.25-.6-.1-.35h.05q.35.15.25.6l-.35.6.2.6-.05.3.35-.25.05-.05.05-.05zm-.05-8.15.3 1.5-.05-.05-.1.1-.65.65.75.35.15.1v.3l-.1-.05-.1-.1-.75.9-.1.05-.1.1v-.45l.05.05.2-.1.35-.4.1-.35-.4-.15-.2-.05h-.05v-1.6l.1-.1.2-.25.35-.4zm.4 3.95v.2l-.05-.05h-.05l-.25-.1.05-.15h.1l.05.05zm-1.25.6h.1l.2.2-.35.5.05-.65zM2.8 41.2l.35.4.2.25.1.1v1.6H3.4l-.2.05-.4.15.1.35.35.4.2.1.05-.05V45l-.1-.1-.1-.05q-.55-.35-.75-.9L2.5 44l-.05.05-.1.05v-.3l.15-.1.75-.35-.65-.65-.1-.1-.05.05.3-1.5zm.85 5.2q-.35-.1-.35-.5l.2-.2h.1v.05zM2.5 45.05l.05-.05h.1l.05.15-.25.1H2.4l-.05.05v-.2z"/><path fill="#fff1af" d="m23.8 12.05.05-.05q.75-.65 1.15-1.5l-.2 2.95.05.25v.05l-.25 2.1-.2 2.2-.1 1.1v.35l-.95-.15.1-1.65.2-2.65.05-1.35zM13.85 37.3l-.9 5.45-1.25-.7.1-.7.1-.7.8-4.75zm-5.5 14.15L6.3 50.9l-.75-.25-.25-.1-.25-.9-.05-.2-.05-.2-.05-.2h.05l.05.05.1-.15.1-.3-.2-.3h-.2l-.1-.3h.2q.6 0 .6.6v.15l-.2.45.35.15.2-.5v-.35q0-.35-.15-.55l-.1-.1-.3-.2-.45-.1h-.2l-.05-.05v-.05h.45l.3.05.2.05q.3.1.45.35l.1.25.05.1v.45l-.05.3-.15.4-.05.05.1.05.65.3.15.05-.05-.3.1-.35.1-.2v.05l.2.4-.05.05v.2l.05.25.25.05.35.6zm2.6-37.75.05-.25-.2-2.95q.4.85 1.15 1.5l.05.05.1 1.65.05 1.35.2 2.65.1 1.65-.95.15v-.35l-.1-1.1-.2-2.2-.25-2.1zm-6.1 29.35.2.15.45.3.5 2.45v.3l-.1.2-.25.4h-.1l-.2-.1.4-.8-.15-.75-.1-.3-.6-.3v1.5q-.05.65-.4.9l-.05-.2.15-.2.15-.4v-.5l-.1-1.05v-.05l-.05-.15-.35-.3-.1.15-.05.1v-.05l-.3-2.1.05.05.25.2.05.05.15.1.1.05.05.05.15.1.15.15h.05zM23.1 35.9l.8 4.75.1.7.1.7-1.25.7-.9-5.45zm7.65 7.3.2-.15L31 43h.05v-.05h.05v-.05l.1-.05.15-.1.05-.05.1-.05.15-.1.05-.05.25-.2.05-.05-.3 2.1v.05l-.05-.1-.1-.15-.35.3-.05.15v.05l-.1 1.05v.5l.15.4.15.2-.05.2q-.35-.25-.4-.9v-1.5l-.6.3-.1.3-.15.75.4.8-.2.1h-.1l-.25-.4-.1-.2v-.3l.5-2.45zm-2.35 6.85.25-.05.05-.25v-.2l-.05-.05.2-.4v-.05l.1.2.1.35-.05.3.15-.05.65-.3.1-.05-.05-.05-.15-.4-.05-.3v-.35l.05-.25.05-.1.5-.45.15-.05h.15l.25-.05h.4v.05l-.05.05h-.2l-.45.1-.3.2-.1.1q-.15.2-.15.55v.35l.05.05.05.25v.05l.1.15.35-.15-.2-.45v-.15q0-.6.6-.6h.2v.05l-.1.25h-.15l-.25.3.1.3.1.15.05-.05h.05l-.05.2-.05.2-.05.2-.25.9-.25.1-.75.25-2.05.55.6-.8z"/><path fill="#de9c4d" d="m15.05 28.95-.75 5.4-1-1.7.05-.3.1-.55.2-.95v-.15l.25-1.15.05-.25v-.1q.2-1.05.1 0v.05l.25-.05zm6.8.35.05.25.25 1.15v.15l.2.95.1.55.05.25v.05l-1 1.7-.75-5.4.75.25.25.05v-.05q-.1-1.05.1 0z"/><path fill="#691d5b" d="m24.25 7.2-.1 1.05-.1.95-.25 2.85-.1 1.65-.05 1.35-.2 2.65-.1 1.65-.1 1.45-.1 1.5-.2 2-.1.95-1.3-.1-.6-.1-.35-1.45 1.75-.15.05-.35q-.15-.65-1-.65l-1-.15-.1-1h.2l2.05-.1.05-.35q-.15-.65-1-.65l-1.4-.25V18.7h.05l.35.05 2.05-.1.05-.35q-.15-.65-1-.65l-1.5-.25v-1.1l.55.1 2.05-.1.05-.35q-.15-.65-1-.65l-1.6-.25.05-1.2.55.1 2.05-.1.05-.35q-.15-.65-1-.65l-1.55-.25.15-1.1v-.15l.3.05 2.05-.1.05-.35q-.15-.65-1-.65l-1.15-.2.45-1.15.6.05h.85q.55-.1.45-.55-.25-.5-1-.6l-.2-.05.9-.8zm.55 12.2v-.15q.2-2.15.55-4l6.55 19.5-.25 1q-.6.6-1.6.6h-.15l-.3-.95-.45-1.55-.35-1.2-1.25-4.45-1.45-4.85-1.05-3.15-.25-.75zM11.55 7.2l1.4-.2.9.8-.2.05q-.75.1-1 .6-.1.45.45.55h.85l.6-.05.45 1.15-1.15.2q-.85 0-1 .65l.05.35 2.05.1.25-.05h.05v.15l.15 1.1-1.55.25q-.85 0-1 .65l.05.35 2.05.1.55-.1.05 1.2-1.6.25q-.85 0-1 .65l.05.35 2.05.1.55-.1v1.1l-1.5.25q-.85 0-1 .65l.05.35 2.05.1.3-.05h.1v1.25l-1.4.25q-.85 0-1 .65l.05.35 2.05.1h.2l-.1 1-1 .15q-.85 0-1 .65l.05.35 1.45.2.3-.05-.35 1.45-.6.1-1.3.1-.1-.95-.2-2-.1-1.5-.1-1.45-.1-1.65-.2-2.65-.05-1.35-.1-1.65-.25-2.85-.1-.95zm-11 37.55.2-.55.1.35.35.4-.25.65-.15-.35-.05-.1zm.3-.9.35-1 .2-.1.15-.05.2.05.05.2.15.2-.15.55v.5l-.05.05-.05.05-.1.15-.25.3-.05.05-.05-.1-.05.05-.05-.05-.05-.1-.05-.05-.15-.4-.05-.25zm.5-1.4.35-1.1.15.4.1.1.15.2.05.05.1.2-.2.55-.2-.2-.3-.2h-.2m.75-2.25.2-.55.7.8-.2.75-.2-.3-.1-.1-.15-.15-.05-.15-.1-.1zm.55-1.75.9-2.6.8.9-.7 1.45-.45 1.4-.3-.25-.05-.1zm1.25-3.7 6.55-19.5.55 4v.2l-.25.75-1.05 3.15-1.45 4.85L7 32.65l-.35 1.2-.45 1.55-.3.95h-.15q-1 0-1.6-.6zm9.45-6.85h-.15l-.2-1.45h.15l.95-.15.4-.05-.05.1-.6 1.5zm-2.3-7.05.05-.05v.9l.05 7.75.2.9 1-.2q.15 2.1.65 4.1l-.2 1.25-.1.4-.8 4.75-.1.7-.7 3.95q-2.8-.45-3.9-.9l-1.3-.65-.85-.55-.2-.15.2-.85.25-1.15.05-.25q1.15-.15 2.75-.8l1.45-.6.05.05.15.2q.3.3.7.3l.65-.3.3-.65-.05-.35-.05-.55-.05-.05-.75-.45-.1.05q-.5.05-.75.25l-.1.05q-.25.45-.2.9l-1.2.45-2.6.8v-.05L5.6 40l.15-.65.5-1.8.15-.5 1.1-.25.35-.05 1.85-.8.5-.25.05.05.15.2q.3.3.7.3l.65-.3.3-.65-.1-.4-.1-.5-.1-.05q-.45-.35-1-.35l-.1.05-.7.6v.5l-2.95 1-.4.1.05-.35 1-3.4 1.9-6.75zm13.65-.05.05.05 1.5 4.9 1.9 6.75 1 3.4.05.35-.4-.1-2.95-1v-.5l-.7-.6-.1-.05q-.55 0-1 .35l-.1.05-.1.5-.1.4q0 .4.3.65.25.3.65.3l.7-.3.15-.2.05-.05.5.25q.9.55 1.85.8l.35.05 1.1.25.15.5.5 1.8.15.65.05.05v.05l-2.6-.8-1.2-.45-.2-.9-.1-.05-.75-.25-.1-.05-.75.45-.05.05-.05.55-.05.35q0 .4.3.65.25.3.65.3l.7-.3.15-.2.05-.05 1.45.6 2.75.8.05.25.25 1.15.2.85-.2.15-.55.35-.3.2-1.3.65-3.9.9-.7-3.95-.1-.7-.8-4.75-.1-.4-.2-1.25.65-4.1 1 .2.2-.9q-.05-3.9.05-7.75zm-2.75 7.05-.6-1.5-.05-.1.4.05.95.15h.15l-.2 1.45h-.25zm-10.9 18.5-.15 1.15-.2-.15q-.4-.3-.45-.6v-.5zM9.9 46.2l-.05.2.05.4-.15.15-.3.2-.1-.4-.05-.65zm-1.6.75.8-.15h.05q.15 1 .75 1.85-.25 0-.45.15l-.2.2-.55-.35-.3.05-.4-.8.2-.35.1-.15-.15-.45zm.7-.35-.8.1-1.1-.25-.4-.45.2-.5.45.15h.05l1.65.4zm-3-.65v-.1l-.05-.75.2.1.6.25-.1.1-.1.25-.2 1.2.35 1.05.6.2h.1l.45-.2.2.45.05.35q-.15.2-.15.55-.05.25.2.3l.05-.45q0-.3.45-.3.55 0 .55.65v.3l-.3.55-.45-.1-1.05-.3-.25-.05-.05-.25v-.2l.05-.05v-.05l.25-.5q-.05-.1-.15-.1H7.2l-.25.2-.1.2-.1.35.05.3-.15-.05-.65-.3-.1-.05.05-.05.15-.4.05-.3v-.45l-.05-.1-.1-.25q-.15-.25-.45-.35l-.2-.05-.3-.05H4.8l-.15-.6q.25-.25.25-.8v-1.5l.6.3.1.3.15.75-.4.8.2.1h.1l.25-.4.1-.2v-.3m3.55 1.55-.05-.1h.2l.3-.25.1.2q.25.55.7.7l-.1.9-.75-.65q-.35-.35-.4-.8m-.15 1.8.1-.25.65-.15.5.4-.25 1.45-1.15-.2.2-.7zm18.25-2.35q-.15.15-.15.45l.1.15.2.35-.4.8-.3-.05q-.35.05-.55.35l-.2-.2-.45-.15q.6-.85.75-1.85h.05l.8.15zm-1.75-.75.6-.1-.05.65-.1.4-.3-.2-.15-.15.05-.4zm2.5 3.85-1.05.3-.45.1-.3-.55v-.3q0-.65.55-.65.45 0 .45.3l.05.45.2-.3-.15-.55.05-.35.2-.45.45.2h.1l.6-.2.35-1.05-.2-1.2-.1-.25-.1-.1.6-.25.2-.1-.05.75v.4l.1.2.25.4h.1l.2-.1-.4-.8.15-.75.1-.3.6-.3v1.5l.25.8-.15.6h-.2l-.25.05h-.15l-.15.05-.5.45-.05.1-.05.25v.35l.05.3.15.4.05.05-.1.05-.65.3-.15.05.05-.3-.1-.35-.1-.2-.25-.2h-.05q-.1 0-.15.1l.25.5v.05l.05.05v.2l-.05.25zm-2.3-2.65h.2l-.05.1-.4.8-.75.65-.1-.9.7-.7.1-.2zm.7-.8-.05-.55 1.65-.4h.05l.45-.15.2.5-.4.45-1.1.25zm-2.05-.25.8-.1v.5l-.45.6-.2.15zm.4 2.95.5-.4q.5 0 .65.15l.1.25-.05.55.2.7-1.15.2zm7.1-13.45.9 2.6-.2.8-.05.1-.3.25-.45-1.4-.7-1.45zm-1.3 4.3-.05-.1-.65-2.45-.15-.5 1.25-.3.2 1.5.15 1.7zm2.55-.5.2.55-.15.2-.05.1-.05.1-.15.2-.1.1-.2.3-.2-.75zm.6 1.7.35 1.1h-.2l-.3.2-.2.2-.2-.55.1-.2.05-.05.15-.2.1-.1zm.5 1.5.35 1v.05l-.05.25-.15.4-.05.05-.05.1-.05.05-.05-.05-.05.1-.05-.05-.15-.2-.1-.1-.1-.15-.1-.1v-.5l-.15-.55.15-.2.05-.2.2-.05.15.05zm.45 1.35.2.55-.2.4-.05.1-.15.35-.25-.65.35-.4zm-1.7-1.55v.05l.25.65.1.4-.05.2h-.05l-.15-.15-.15-.1v-.45l-.1-.55.1-.1zm.1 1.45.25.2.1.05.5.75.05.1.05.1.2.75-.25.45-.15.2v-.25l-.25-.9-.2-.2-.35-.3-.05-1zm0 1.2.2.2.25.9v.65l-.45.45-.15.1-.05.05.15-2.4zm-2.35-4.45h.6l-.05 1.7-.1.05-.05-.2-.35-1.3zm.45 3.3-.35 2.45-.15-.4v-.5l.1-1.05v-.05l.05-.15zM31 47.6l-.1.45q-.6 0-.6.6v.15l.2.45-.35.15-.1-.15v-.05l-.05-.25-.05-.15v-.25q0-.35.15-.55l.1-.1.3-.2.45-.1zm-2.05-1 .2-.15v.3q.1 1.15-.8 1.15-.65 0-.65-.95zm1.75 2.35-.1-.3.25-.3zM4.45 36.8l1.25.3-.15.5-.65 2.45-.05.1L4.1 40l.15-1.7zm-.35 4.05h.6l-.05.25-.35 1.3-.05.2-.1-.05zm-1.65 1.8.05-.05.1.1-.1.55v.45l-.2.15-.1.1h-.05l-.05-.2.1-.4.25-.65zm-.1 1.45.1-.05-.05 1-.35.3-.2.2-.25.9v.25l-.15-.2-.25-.45.2-.75.05-.1.05-.1.5-.75.1-.05zm1.9.05.35.3.05.15v.05l.1 1.05v.5l-.15.4zm-1.9 1.15.05-.05.15 2.4-.05-.05-.15-.1-.45-.45v-.65l.25-.9zm4.3 1.15.2.15 1.25.35q0 .95-.65.95-.9 0-.8-1.15zM4.8 47.6h.05l.45.1.3.2.1.1q.15.2.15.55v.1l-.2.75-.35-.15.2-.45v-.15q0-.6-.6-.6zm.15.75H5l.2.3-.1.3z"/><path fill="#5b004a" d="m18.25 6.35 1.9.25 1.8.25.6.1.15.05h.15l-.9.8h-.15l-3.45-.5-.05-.4zm3 2.6-.45 1.15-.2-.05-2-.35-.15-1.2 1.05.2 1.55.2h.05zm-.7 2.4v.15l-.15 1.1-.25-.05-1.4-.25-.1-1.35 1.65.35.2.05zm-.25 2.5-.05 1.2L20 15l-1-.2-.1-1.25 1.15.25.2.05zm-.1 2.45v1.1l-.25-.05-.65-.1-.1-.75v-.15l-.05-.25.8.15.2.05zm0 2.4v1.25l-.2-.05-.35-.05-.2-1.3.5.1.15.05zm.1 2.6.1 1-.25-.05-.2-.05-.15-1 .25.05zm.3 2.3.35 1.45h-.1L20.6 25l-.45-.3v-.1l-.1-.55v-.55l.25.05h.05zm3.8-5.55.2-2.2.25-2.1v-.05l.5 1.55q-.35 1.85-.55 4v.15zM12.95 7l.9-.15 1.8-.25 1.9-.25-.05.55-.05.4-3.45.5h-.15zm1.6 1.95.15-.05h.05l1.55-.2 1.05-.2-.15 1.2-2 .35-.2.05zm2.6 2-.1 1.35-1.4.25-.25.05-.15-1.1v-.15h.05l.2-.05zm-.25 2.6-.1 1.25-1 .2-.25.05-.05-1.2h.05l.2-.05zm-.25 2.55-.05.25v.15l-.1.75-.65.1-.25.05v-1.1h.05l.2-.05zm-.3 2.45-.2 1.3-.35.05-.2.05V18.7h.1l.15-.05zM16 21.2l-.15 1-.2.05-.25.05.1-1 .25-.05zm-.25 2.3v.55l-.1.55v.1l-.45.3-.25.05h-.1l.35-1.45.25-.05h.05zm-.3 2.55-.2 1.5-.2.1-.75.15-.45.05.6-1.5.05-.1.45-.1zM2.5 38.95l.15-.5.2.8.05.1.3.25.45-1.4.7-1.45.1.05-.2 1.5L4.1 40l.75.15-.05.3h-.05l-1.65-.4-.05-.05H3l-.25-.3v.1l-.05-.1-.15-.5zm1.25-3.75.15-.45.25 1q.6.6 1.6.6h.15l-.1.35-1.3-.25-.5-.5-.3-.45.05-.15zm6.7-19.95.5-1.55v.05l.25 2.1.2 2.2-.4 1.35v-.15zm.65 5.55.4-1.2v.45l.25 4.05.2 3.7.05.35-.05 1.35v.15l2-.35-.05.25-.25 1.15v.15l-.2.95-.1.55-.1.45-.05.25-.05.3-.15.9q-.5-2-.65-4.1l-1 .2-.2-.9-.05-7.75zM6.6 36.25l.4-.1 2.95-1v-.5l.7-.6.1-.05q.55 0 1 .35l.1.05.1.5-.2-.3q-.25-.25-.65-.25t-.7.25q-.25.3-.25.7l-1.05.45q-1.6.75-2.6.9v-.15l.05-.2zm3.1-.3-1.85.8-.35.05 1.45-.55zM5.55 40.1l2.6-.8 1.2-.45q-.05-.45.2-.9l.1-.05q.25-.2.75-.25l.1-.05.75.45.05.05.05.55-.25-.35q-.25-.25-.65-.25t-.7.25l-.25.7-1.6.65-2.45.75zm4.05-.65-.05-.05h.05zM24.3 19.6l.4 1.2v.9q-.1 3.85-.05 7.75l-.2.9-1-.2-.65 4.1-.15-.9-.05-.3-.05-.25v-.1l-.05-.1-.05-.25-.1-.55-.2-.95v-.15l-.25-1.15-.05-.25 2 .35v-.15l-.05-1.35.05-.35.2-3.7.25-4.05zm-3.45 6.55.45.1.05.1.6 1.5-.45-.05-.55-.05-.1-.05-.3-.15-.2-1.5zm5.4 13.25-.05.05v-.05zm-1.8-.75.05-.55.05-.05.75-.45.1.05.75.25.1.05.2.9 1.2.45 2.6.8.1.3-2.45-.75-1.6-.65-.25-.7-.7-.25q-.4 0-.65.25zm3.85-1.85-.35-.05q-.95-.25-1.85-.8l.75.3zm-4.45-1.9.1-.5.1-.05q.45-.35 1-.35l.1.05.7.6v.5l2.95 1 .4.1.05.05.05.2v.15q-1-.15-2.6-.9l-1.05-.45-.25-.7q-.3-.25-.7-.25t-.65.25zm6.05 1.45h.15q1 0 1.6-.6l.25-1 .15.45v.15l.05.15-.3.45-.5.5-1.3.25zm3.4 2.6-.05.25-.15.5-.05.1v-.1l-.25.3h-.05l-.05.05q-.45.35-1.65.4H31l-.05-.3.75-.15-.15-1.7-.2-1.5.1-.05.7 1.45.45 1.4.3-.25.05-.1.2-.8zM31 47.5l.15-.6.2.2.25.05-.2-.05h-.05l-.05-.1.05-.2-.15-.2.35-2.45.1.15.05.1h.05l.4.35-.2.15-.2.25-.05.05v.05l-.1.2v.45l.1.3.4.2h.05l.35-.5-.2-.2h-.1l-.15.25V46h-.1l-.05-.35v-.15l.4-.5.1-.1.1-.05.75-.9.1.1.05 1h-.1l-.05-.05h-.1l-.05.15.25.1h.05l-.15 2.4-.05.05-.35.25.05-.3-.2-.6.35-.6q.1-.45-.25-.6h-.05l.1.35-.25.6-.2.1v.05l-.35.1v.15h.15l.25-.05.2.5v.1l-.2.45-.25.2q-.05-.5-.5-.75l-.4-.1h-.05l-.05-.05zm1.8-7.05.2.75-.35.4-.35.35-.1.1-.2.2-.05.05-.25.2-.05.05.05-1.7q.65-.1 1.1-.4m.4 2.25.1.55v.45l-.75-.35zm-.85.85h.05l.2.05.4.15-.1.35-.35.4-.2.1-.05-.05-.1-.1-.15-.15-.25-.3h.05l.2-.2H32l.3-.25zm-.45 4.6.05.2v.2l-.15.05-.1.05-.15.1-.05-.35v-.05l-.35-.25-.05-.05h-.2l.1-.45h.2l.1.05.3.1zm-.9.2.1.05.2.2v.05l-.1.25-.3.15h-.05l-.05.05-.1-.15.15-.6H31M3.15 41.6l-.35-.4.2-.75q.45.3 1.1.4l.05 1.7-.05-.05-.25-.2-.25-.25-.1-.1zm-.55 1.1.65.65-.75.35v-.45zm-.15 1.35L2.5 44l.05-.05q.2.55.75.9l.1.05.1.1q.35.25.4.55v.1l-.05.35h-.1v-.05l-.15-.25h-.1l-.2.2q0 .4.35.5h.05l.4-.2.1-.3v-.45q-.05-.3-.35-.55l-.2-.15.4-.35h.05l.05-.1.1-.15.35 2.45-.15.2.05.2-.05.1H4.4l-.2.05.25-.05.2-.2.15.6h-.2l-.05.05-.45.1q-.45.25-.5.75l-.25-.2-.2-.45v-.1l.2-.5.25.05h.15v-.15l-.35-.1v-.05l-.2-.1-.25-.6.1-.35H3q-.35.15-.25.6l.35.6-.2.6.05.3-.35-.25-.05-.05-.15-2.4h.05l.25-.1-.05-.15h-.1l-.05.05h-.1zm1 .55-.2-.1-.35-.4-.1-.35.4-.15.2-.05h.1l.3.25h-.05L4 44l-.25.3-.15.15zm.3 2.6h.15zm1.15.85h-.2l-.4.3v.05l-.05.35-.15-.1-.1-.05-.15-.05q0-.7.5-.85l.15-.05h.05l.25-.05zm-.1.3h.15l.15.6-.1.15-.05-.05H4.9l-.3-.15-.1-.25v-.05l.2-.2z"/><path fill="#87121f" d="m24.4 18.05.4 1.35v.05l-.05 1.4-.05-.05-.4-1.2v-.45zm-13 0 .1 1.1v.45l-.4 1.2-.05.05-.05-1.4v-.05zm-5.85 22v.05l-.1.3-.65.05.05-.3zm24.7.05v-.05l.7.1.05.3-.65-.05zm-1-3.8h.2l.45.05.1.35h-.05l-.65-.05v-.15zm-22.75.35-.65.05H5.8l.1-.35.45-.05h.2l-.05.2z"/><path fill="#b15660" d="m11 19.45.05 1.4-1.5 4.9-1.9 6.75-1 3.4-.05.35-.05.05h-.2l-.45.05.3-.95.45-1.55.35-1.2 1.25-4.45 1.45-4.85 1.05-3.15zm-4.6 17.6-.15.5-.5 1.8-.15.65-.05.05-.7.1.05-.1.65-2.45.15-.5h.05zM5.35 40.8l-.05.25-.25 1.15-.2.85L4.8 43h-.05l-.15-.15-.15-.1-.05-.05-.1-.05-.05-.05.05-.2.35-1.3.05-.25zm19.4-19.95.05-1.4.25.75 1.05 3.15 1.45 4.85 1.25 4.45.35 1.2.45 1.55.3.95-.45-.05h-.2l-.05-.05-.05-.35-1-3.4-1.9-6.75zm6.2 22.2-.2-.85-.25-1.15-.05-.25.65.05.05.25.35 1.3.05.2-.05.05-.1.05-.05.05-.15.1-.1.05v.05h-.05V43H31zm-.7-3L30.2 40l-.15-.65-.5-1.8-.15-.5.65.05h.05l.15.5.65 2.45.05.1z"/><path fill="#bd7200" d="m2.3 39.65-.05-.05q-.3-.75 0-.9v.5l.15.2v.1l.2.25.25.4.2.15 1 .3h.05l.45.1h.2l.65-.05 1.45-.4 2.5-1 .65-.4.05.1v.15l-.2.1-.15.1-.1.1h-.05L8.1 40q-1.6.65-2.75.8l-.65.05h-.6q-.65-.1-1.1-.4zm1.25-3.8q-.3-.75 0-.9v.5l.1.15.65.95.15.1.95.35.3.05.75-.1.15-.05 1.2-.4 2.3-1h.05l.55-.4.05.1v.15l-.25.15-.15.1-.15.1-.5.25-.75.3-1.45.55-1.1.25-.65.05H5.7l-1.25-.3-.1-.05zm26.9 4.95L27.7 40l-1.45-.6h-.05l-.1-.1-.15-.1-.2-.1v-.15l.05-.1.65.4q.7.4 2.5 1l1.45.4.65.05h.2l.45-.1h.05l1-.3.2-.15.25-.4.2-.25v-.1l.15-.2v-.5q.3.15 0 .9l-.05.05-.7.8q-.45.3-1.1.4h-.6zm-1.05-3.75-1.1-.25-1.45-.55-.75-.3-.5-.25-.15-.1-.15-.1-.25-.15v-.15l.05-.1.55.4h.05q.65.4 2.3 1l1.2.4.15.05.75.1.3-.05.95-.35.15-.1.65-.95.1-.15v-.5q.3.15 0 .9l-.8.9-.1.05-1.25.3h-.05z"/><path fill="#fff" d="M19.5 4.35q.4.1.8.55l1.6 3q1.2 2.7 1.2 3.3v.2q0-.65-1.5-.7l-1.65-.05-1.35.05-.5.15v-.7l.2-1.45.2-2.35.55 1.5q.85-.4.55-1.5V5.8l.65 1.95q.05-1.1-.25-2.2l-.3-.75zm-6.8 7.05v-.2q0-.6 1.2-3.3l1.6-3q.4-.45.8-.55-.7 1-.8 2.45v.05l.1-.15q-.1.5-.05 1.05l.45-.8.65-1.35v.25q.5-1.55.5-.85l-.05 1.8q-.05 1 .45 2.35l.15 1.15-.2-.05h-.05l-.8.15-.75.2-.1.05-1.6.05q-1.5.05-1.5.7m6.2-5.75v.15h-.05z"/><path fill="#c7e2e2" d="m23.1 11.4-.15.45q-.15.35-.85.5h-.2l-.75.1-.95.25-.1-.2-.1-1.25.1-.05q.2-.25 1.3-.25 1.55 0 1.6.6h.05zm-.75 2.9-.1.2-.35.15-.95.1-1.25.3-.1-1.25v-.2l-.4-2.2.1-.05.15.45.2.55q0 1.05.85 1.05l1.2-.05q.75.4.65.95m-3 2.95-1.3.15v-.1q.65-.15.8-.85l.05-.05.35-1.2.05-.1.3-.1.05.3.3.45.3.05h.2l.2.05v-.05h.05l.05.05.3.35-.15.25.05.1h-.05l-.6.35zm-1.45.15-.55-.1h.55zm-.85-.7-.1.05h-.2l-1.3.1-.35-.05-.35-.05-.15-.15-.15-.2.2-.4.1-.1.1-.05h.05l1-.2h.05l.15-.35v-.25l-1.55-.35-.65-.05-.35-.15-.1-.2q-.1-.55.65-.95l1.2.05q.85 0 .85-1.05l.2-.55.15-.45.1.05-.3 1.65-.1.75-.1 1.2.4.1q.45.8.85.8.45 0 .45-.75l.1-.8.25-1.45v-.2l.2-1.25.1 1.55.1 1.8.05 1v.35q-.2-.15-.55 0l-.25-.6.05.7-.5.35zm-3.3-4.35h-.05q-.7-.15-.85-.5l-.15-.45.05.15h.05q.05-.6 1.6-.6l1.3.25.1.05-.1 1.25-.1.2-.95-.25-.75-.1zM17.1 4.2h.2q-.15 1.55 0 3.1l.25 1.85q-.5-1.35-.45-2.35l.05-1.8q0-.7-.5.85V5.6L16 6.95l-.45.8q-.05-.55.05-1.05.6-1.3 1.5-2.5m.7 0 .25-.05.7.05q1 1.3 1.35 2.75v-.1l-.1-1.3q.3 1.1.25 2.2L19.6 5.8v.55q.3 1.1-.55 1.5l-.55-1.5-.2 2.35-.2 1.45v.7l-.75.5.25-.25.35-.5-.15-.3h-.05l.05-.05-.05-.3-.2-2.2q-.15-1.5.05-2.75l.05.1v-.2zm1.1 1.45-.05.15h.05z"/><path fill="#6e7b7b" d="m22.05 12.35.35 1.7-.05.25q.1-.55-.65-.95l-1.2.05q-.85 0-.85-1.05l-.2-.55-.15-.45-.1.05.4 2.2v.2l.1 1.25 1.25-.3.95-.1-.5.15.1.75v.1l-.15.75-.15.2q-.45.5-1.85.65l.95-.35.6-.35h.05l-.05-.1.15-.25-.3-.35-.05-.05h-.05v.05l-.2-.05h-.2l-.3-.05-.3-.45-.05-.3-.3.1-.05.1-.35 1.2-.05.05q-.15.7-.8.85v.1h-.15v-.1h-.55l-.1-.05-.1-.1v-.3l-.1-.15.3-.1.5-.35-.05-.7.25.6q.35-.15.55 0v-.35l-.05-1-.1-1.8-.1-1.55-.2 1.25v.2l-.25 1.45-.1.8q0 .75-.45.75-.4 0-.85-.8l-.4-.1.1-1.2.1-.75.3-1.65-.1-.05-.15.45-.2.55q0 1.05-.85 1.05l-1.2-.05q-.75.4-.65.95l-.05-.25.35-1.7h.15l.75.1.95.25.1-.2.1-1.25-.1-.05-1.3-.25q-1.55 0-1.6.6h-.05l-.05-.15q0-.65 1.5-.7l1.6-.05.1-.05.75-.2.8-.15h.05l.2.05-.15-1.15-.25-1.85q-.15-1.55 0-3.1h.5l-.15.7h-.1l.05.1q-.2 1.25-.05 2.75l.2 2.2.05.3-.05.05h.05l.15.3-.35.5-.25.25.75-.5.5-.15 1.35-.05 1.65.05q1.5.05 1.5.7l-.05.15H23q-.05-.6-1.6-.6-1.1 0-1.3.25l-.1.05.1 1.25.1.2.95-.25.75-.1zm-7.6 4.05-.15-.55v-.2l.1-.7v-.15l-.5-.15.65.05 1.55.35v.25l-.15.35h-.05l-1 .2h-.05l-.1.05-.1.1zM16.3 4.35l.15-.05h.4l.25-.1q-.9 1.2-1.5 2.5l-.1.15V6.8q.1-1.45.8-2.45m2.45-.15.2.05v.05h.45l.1.05.2.45.3.75.1 1.3v.1q-.35-1.45-1.35-2.75"/></g></defs></svg>