<?xml version="1.0" encoding="UTF-8" standalone="no"?>
<svg xmlns:ffdec="https://www.free-decompiler.com/flash" xmlns:xlink="http://www.w3.org/1999/xlink" ffdec:objectType="frame" height="12.45px" width="11.0px" xmlns="http://www.w3.org/2000/svg">
  <g transform="matrix(1.0, 0.0, 0.0, 1.0, 1.05, -2.4)">
    <use ffdec:characterId="5" height="12.45" transform="matrix(1.0, 0.0, 0.0, 1.0, -1.05, 2.4)" width="11.0" xlink:href="#shape0"/>
  </g>
  <defs>
    <g id="shape0" transform="matrix(1.0, 0.0, 0.0, 1.0, 1.05, -2.4)">
      <path d="M0.15 2.8 Q1.75 2.8 3.9 4.3 L4.55 4.95 5.5 5.95 7.15 8.3 8.55 10.4 9.2 11.35 9.6 11.95 9.95 12.55 9.45 13.65 Q8.65 14.8 7.1 14.45 L5.6 13.9 5.2 13.7 Q4.45 13.35 4.3 12.95 3.25 12.25 -1.05 3.05 L-0.9 3.0 0.15 2.8" fill="#c94200" fill-rule="evenodd" stroke="none"/>
      <path d="M2.6 4.35 L4.6 7.5 6.7 11.3 8.3 14.35 Q8.45 14.85 7.85 14.85 L6.25 14.45 4.9 13.75 4.35 13.25 Q3.35 12.0 2.5 10.35 L0.8 7.05 -0.4 4.35 -1.05 2.65 0.5 2.75 Q1.95 3.45 2.6 4.35" fill="#9a1900" fill-rule="evenodd" stroke="none"/>
    </g>
  </defs>
</svg>
