<?xml version="1.0" encoding="UTF-8" standalone="no"?>
<svg xmlns:ffdec="https://www.free-decompiler.com/flash" xmlns:xlink="http://www.w3.org/1999/xlink" ffdec:objectType="frame" height="31.25px" width="26.9px" xmlns="http://www.w3.org/2000/svg">
  <g transform="matrix(1.0, 0.0, 0.0, 1.0, 3.1, -2.55)">
    <use ffdec:characterId="5" height="31.25" transform="matrix(1.0, 0.0, 0.0, 1.0, -3.1, 2.55)" width="26.9" xlink:href="#shape0"/>
  </g>
  <defs>
    <g id="shape0" transform="matrix(1.0, 0.0, 0.0, 1.0, 3.1, -2.55)">
      <path d="M-0.85 23.55 L-0.75 22.65 2.1 24.4 5.9 25.85 5.8 25.9 5.9 25.9 5.95 25.85 5.95 25.75 7.75 24.4 Q9.6 22.95 10.2 21.65 L11.6 23.0 14.5 25.3 Q16.35 25.2 19.65 23.9 L21.1 23.35 21.15 23.9 Q20.85 24.0 19.0 25.2 L15.3 27.4 Q15.0 27.6 14.25 26.95 L12.15 26.1 11.2 25.7 10.2 24.6 11.3 24.95 13.7 26.5 12.5 25.15 10.15 22.4 Q6.65 26.6 5.15 27.5 0.6 24.6 -0.85 23.55 M21.05 26.25 Q20.7 28.65 18.25 31.4 L15.85 33.65 Q14.2 32.55 12.55 29.95 L10.05 25.65 8.1 29.15 Q5.8 32.95 4.25 33.8 L2.9 32.35 0.8 29.4 2.4 31.0 4.3 32.3 Q7.1 29.65 10.1 25.25 14.7 31.45 16.0 31.8 19.45 28.95 21.05 26.25 M10.15 24.1 L9.65 23.7 9.6 23.45 Q9.6 22.85 10.2 22.9 10.75 22.9 10.9 23.25 11.05 23.55 10.8 23.85 10.5 24.15 10.15 24.1 M9.0 25.85 L8.25 26.7 Q7.75 27.1 5.85 27.75 6.15 27.2 9.9 24.7 L9.6 25.1 9.0 25.85" fill="#b1b1b1" fill-rule="evenodd" stroke="none"/>
      <path d="M21.15 23.9 L21.3 25.7 21.05 26.25 Q19.45 28.95 16.0 31.8 14.7 31.45 10.1 25.25 7.1 29.65 4.3 32.3 L2.4 31.0 0.8 29.4 -0.1 28.1 Q-0.75 26.8 -0.85 25.55 L-0.85 23.55 Q0.6 24.6 5.15 27.5 6.65 26.6 10.15 22.4 L12.5 25.15 13.7 26.5 11.3 24.95 10.2 24.6 11.2 25.7 12.15 26.1 14.25 26.95 Q15.0 27.6 15.3 27.4 L19.0 25.2 Q20.85 24.0 21.15 23.9 M10.15 24.1 Q10.5 24.15 10.8 23.85 11.05 23.55 10.9 23.25 10.75 22.9 10.2 22.9 9.6 22.85 9.6 23.45 L9.65 23.7 10.15 24.1 M9.0 25.85 L9.6 25.1 9.9 24.7 Q6.15 27.2 5.85 27.75 7.75 27.1 8.25 26.7 L9.0 25.85" fill="#e5e5e5" fill-rule="evenodd" stroke="none"/>
      <path d="M7.45 2.95 L7.85 2.6 9.65 2.95 9.3 4.1 9.05 4.9 8.25 7.3 Q7.7 6.9 7.25 5.35 L7.0 4.45 7.0 4.35 7.2 3.6 7.45 2.95 M10.45 2.95 L12.4 2.55 12.9 3.15 12.8 2.9 13.4 3.9 13.35 4.45 13.3 4.7 13.0 5.45 12.85 5.75 11.95 7.3 11.0 4.7 10.75 4.05 10.45 2.95 M13.95 6.8 L13.45 10.2 12.9 12.6 12.8 12.7 12.85 12.8 12.95 12.9 11.7 15.55 10.15 16.0 Q9.75 16.0 8.05 14.15 L7.8 13.6 7.8 13.5 7.65 13.1 7.65 13.0 6.85 8.55 6.4 5.9 6.45 5.85 7.05 7.25 7.8 8.8 8.45 8.25 9.0 7.5 9.8 8.8 10.7 6.8 10.7 6.7 11.9 8.9 13.95 6.8 M10.25 9.15 L10.15 9.15 9.7 9.2 9.7 9.65 9.7 9.9 9.7 9.95 9.75 10.0 10.2 10.15 Q10.75 10.15 10.75 9.65 10.75 9.15 10.25 9.15 M9.7 12.5 L9.7 12.75 Q9.8 13.05 10.4 13.05 L10.65 12.85 10.85 12.5 Q10.85 12.05 10.3 12.0 9.7 11.95 9.7 12.5 M9.75 15.05 L9.75 15.3 Q9.9 15.5 10.3 15.55 L10.4 15.55 Q10.85 15.55 10.85 15.05 10.85 14.55 10.35 14.55 L10.25 14.55 Q9.75 14.6 9.75 15.05" fill="#e9e9e9" fill-rule="evenodd" stroke="none"/>
      <path d="M9.65 2.95 L9.75 5.25 9.85 7.35 10.45 2.95 10.75 4.05 11.0 4.7 11.95 7.3 12.85 5.75 13.0 5.45 13.3 4.7 13.35 4.45 13.35 4.8 13.3 4.7 13.35 5.05 13.7 5.5 14.1 6.15 13.95 6.8 11.9 8.9 10.7 6.7 10.7 6.8 9.8 8.8 9.0 7.5 8.45 8.25 7.8 8.8 7.05 7.25 6.45 5.85 6.75 5.45 7.05 5.15 7.1 4.85 7.05 4.95 7.0 4.45 7.25 5.35 Q7.7 6.9 8.25 7.3 L9.05 4.9 9.3 4.1 9.65 2.95 M10.5 20.05 L10.25 21.0 10.15 21.4 10.15 20.9 10.15 20.8 10.15 20.5 10.15 20.45 8.1 14.3 8.1 14.25 8.05 14.15 Q9.75 16.0 10.15 16.0 L11.7 15.55 10.5 20.05 M10.25 9.15 Q10.75 9.15 10.75 9.65 10.75 10.15 10.2 10.15 L9.75 10.0 9.7 9.95 9.7 9.9 9.7 9.65 9.7 9.2 10.15 9.15 10.25 9.15 M9.7 12.5 Q9.7 11.95 10.3 12.0 10.85 12.05 10.85 12.5 L10.65 12.85 10.4 13.05 Q9.8 13.05 9.7 12.75 L9.7 12.5 M9.75 15.05 Q9.75 14.6 10.25 14.55 L10.35 14.55 Q10.85 14.55 10.85 15.05 10.85 15.55 10.4 15.55 L10.3 15.55 Q9.9 15.5 9.75 15.3 L9.75 15.05" fill="#b1b1b1" fill-rule="evenodd" stroke="none"/>
      <path d="M4.3 6.9 L5.55 6.1 4.4 7.05 4.3 6.9" fill="#4f2020" fill-rule="evenodd" stroke="none"/>
      <path d="M7.35 3.15 L7.45 2.95 7.2 3.6 7.1 3.6 7.35 3.15" fill="#2e1212" fill-rule="evenodd" stroke="none"/>
      <path d="M12.9 12.6 L12.85 12.75 12.85 12.8 12.8 12.7 12.9 12.6" fill="#583119" fill-rule="evenodd" stroke="none"/>
      <path d="M18.2 11.6 L18.95 13.8 17.45 15.7 17.2 15.95 16.7 16.55 16.05 17.25 15.35 17.9 14.75 18.45 14.15 18.95 11.0 21.05 14.15 17.95 14.7 17.25 15.3 16.4 15.35 16.3 16.05 15.3 16.25 15.05 16.8 14.2 17.45 13.1 18.2 11.6 M19.85 17.3 L21.2 22.1 22.5 23.2 Q23.5 24.3 23.75 25.05 L23.8 25.1 Q19.5 26.55 13.6 25.3 L18.5 23.4 Q18.9 23.05 19.85 17.3 M10.2 25.45 Q9.8 26.3 4.85 30.05 3.75 29.85 1.0 28.0 L-3.05 24.75 -2.45 23.65 -1.8 24.55 Q-1.35 24.85 -0.25 25.0 1.95 25.3 5.9 24.1 L6.1 24.0 Q2.3 22.95 1.8 19.95 1.3 16.95 1.2 14.35 L2.1 11.35 4.0 14.7 Q6.6 18.55 9.85 21.4 L9.9 21.45 9.8 21.7 9.4 22.45 Q9.0 22.95 9.1 23.6 L9.7 24.7 10.2 25.45 M10.35 23.0 Q10.95 22.15 13.45 20.5 15.95 18.8 13.0 21.4 L12.8 21.75 12.7 22.55 Q12.7 23.2 16.7 23.8 L12.25 24.5 11.7 24.35 11.8 24.2 11.9 24.0 12.0 23.5 Q12.0 23.05 11.4 22.8 L11.1 22.7 10.85 22.75 Q10.55 22.8 10.35 23.0" fill="#0b0b0b" fill-rule="evenodd" stroke="none"/>
      <path d="M18.95 13.8 L19.85 17.3 Q18.9 23.05 18.5 23.4 L13.6 25.3 Q19.5 26.55 23.8 25.1 L19.65 27.9 15.7 30.1 10.2 25.45 9.7 24.7 9.1 23.6 Q9.0 22.95 9.4 22.45 L9.8 21.7 9.9 21.45 10.2 21.65 11.0 21.05 14.15 18.95 14.75 18.45 15.35 17.9 16.05 17.25 16.7 16.55 17.2 15.95 17.45 15.7 18.95 13.8 M-2.45 23.65 L-0.7 22.05 0.15 18.9 1.2 14.35 Q1.3 16.95 1.8 19.95 2.3 22.95 6.1 24.0 L5.9 24.1 Q1.95 25.3 -0.25 25.0 -1.35 24.85 -1.8 24.55 L-2.45 23.65 M11.7 24.35 L12.25 24.5 16.7 23.8 Q12.7 23.2 12.7 22.55 L12.8 21.75 13.0 21.4 Q15.95 18.8 13.45 20.5 10.95 22.15 10.35 23.0 L10.2 23.15 Q10.0 23.45 10.25 24.0 10.45 24.5 11.05 24.5 L11.45 24.45 11.5 24.45 11.7 24.35" fill="#252525" fill-rule="evenodd" stroke="none"/>
      <path d="M11.7 24.35 L11.5 24.45 11.45 24.45 11.05 24.5 Q10.45 24.5 10.25 24.0 10.0 23.45 10.2 23.15 L10.35 23.0 Q10.55 22.8 10.85 22.75 L11.1 22.7 11.4 22.8 Q12.0 23.05 12.0 23.5 L11.9 24.0 11.8 24.2 11.7 24.35 M11.55 23.15 L11.55 23.0 10.8 23.05 10.85 23.2 11.45 23.2 11.55 23.15 M11.75 23.7 L11.85 23.65 11.8 23.75 11.75 23.7 M10.45 23.2 L10.3 23.2 10.3 23.75 10.35 23.8 10.3 24.0 10.45 24.1 10.45 24.15 10.5 24.15 10.6 24.3 11.25 24.3 11.85 23.8 11.95 23.7 11.85 23.6 11.85 23.65 11.7 23.5 10.85 23.55 10.55 23.2 10.45 23.25 10.45 23.2" fill="#fad350" fill-rule="evenodd" stroke="none"/>
      <path d="M18.85 4.0 L20.4 4.9 20.45 4.9 Q18.0 6.05 16.7 8.3 L17.65 8.75 19.2 9.6 18.2 11.6 17.45 13.1 16.8 14.2 16.25 15.05 16.05 15.3 15.35 16.3 15.3 16.4 14.7 17.25 14.15 17.95 11.0 21.05 10.2 21.65 9.9 21.45 9.85 21.4 Q6.6 18.55 4.0 14.7 L2.1 11.35 1.4 9.9 3.35 8.55 Q3.35 7.55 -0.8 5.5 L0.15 4.8 0.5 4.7 3.85 4.55 Q5.4 4.8 5.65 6.05 5.75 9.1 7.0 14.6 7.45 16.6 8.6 18.7 9.5 20.4 10.1 20.9 L10.15 20.8 10.15 20.9 10.15 21.4 10.25 21.0 10.5 20.05 13.0 13.8 14.45 8.35 15.1 5.75 Q15.25 5.1 15.6 4.6 16.1 3.65 18.15 3.85 L18.85 4.0 M4.3 6.9 L4.4 7.05 5.55 6.1 4.3 6.9 M10.45 23.2 L10.45 23.25 10.55 23.2 10.85 23.55 11.7 23.5 11.85 23.65 11.85 23.6 11.95 23.7 11.85 23.8 11.25 24.3 10.6 24.3 10.5 24.15 10.45 24.15 10.45 24.1 10.3 24.0 10.35 23.8 10.3 23.75 10.3 23.2 10.45 23.2 M11.75 23.7 L11.8 23.75 11.85 23.65 11.75 23.7" fill="#c2a02e" fill-rule="evenodd" stroke="none"/>
      <path d="M11.55 23.15 L11.45 23.2 10.85 23.2 10.8 23.05 11.55 23.0 11.55 23.15" fill="#ffe79a" fill-rule="evenodd" stroke="none"/>
      <path d="M0.15 4.8 Q3.6 2.55 7.35 3.15 L7.1 3.6 7.2 3.6 7.0 4.35 7.0 4.45 7.05 4.95 7.1 4.85 7.05 5.15 6.75 5.45 6.45 5.85 6.4 5.9 6.85 8.55 7.65 13.0 7.65 13.1 7.8 13.5 7.8 13.6 8.05 14.15 8.1 14.25 8.1 14.3 10.15 20.45 10.15 20.5 10.15 20.8 10.1 20.9 Q9.5 20.4 8.6 18.7 7.45 16.6 7.0 14.6 5.75 9.1 5.65 6.05 5.4 4.8 3.85 4.55 L0.5 4.7 0.15 4.8 M12.8 2.9 Q16.1 2.75 18.85 4.0 L18.15 3.85 Q16.1 3.65 15.6 4.6 15.25 5.1 15.1 5.75 L14.45 8.35 13.0 13.8 10.5 20.05 11.7 15.55 12.95 12.9 12.85 12.8 12.85 12.75 12.9 12.6 13.45 10.2 13.95 6.8 14.1 6.15 13.7 5.5 13.35 5.05 13.3 4.7 13.35 4.8 13.35 4.45 13.4 3.9 12.8 2.9" fill="#ffcc00" fill-rule="evenodd" stroke="none"/>
      <path d="M17.0 14.7 L17.65 13.5 17.45 19.6 16.8 20.15 16.75 20.2 16.2 20.65 15.85 20.85 15.75 20.85 15.6 20.75 14.95 20.2 14.3 19.65 14.35 18.35 14.9 17.6 15.55 16.75 16.0 16.15 16.25 15.8 16.5 15.45 17.0 14.7 M14.25 21.8 L15.4 21.8 15.75 20.95 15.9 20.95 16.15 21.8 17.25 21.9 16.35 22.5 16.65 23.65 15.75 22.95 14.8 23.55 15.15 22.5 14.25 21.8" fill="#000000" fill-rule="evenodd" stroke="none"/>
      <path d="M15.35 16.35 L15.8 15.75 16.05 15.4 16.0 20.25 15.65 20.45 15.55 20.45 15.4 20.35 15.35 16.35 M16.8 14.3 L17.45 13.1 17.25 19.2 16.6 19.75 16.55 19.8 16.8 14.3 M14.75 19.8 L14.1 19.25 14.15 17.95 14.7 17.2 14.75 19.8 M14.05 21.4 L15.2 21.4 15.55 20.55 15.7 20.55 15.95 21.4 17.05 21.5 16.15 22.1 16.45 23.25 15.55 22.55 14.6 23.15 14.95 22.1 14.05 21.4" fill="#ffcc00" fill-rule="evenodd" stroke="none"/>
      <path d="M15.35 16.35 L15.4 20.35 14.75 19.8 14.7 17.2 15.35 16.35 M16.0 20.25 L16.05 15.4 16.3 15.05 16.8 14.3 16.55 19.8 16.0 20.25" fill="#ffeb9c" fill-rule="evenodd" stroke="none"/>
      <path d="M0.3 5.45 Q3.0 5.05 6.05 5.35 L8.35 5.8 Q7.85 6.35 7.7 7.15 L7.4 7.05 Q6.95 6.8 6.35 6.7 L5.65 6.7 Q5.15 6.7 4.2 7.35 3.15 8.05 2.8 7.9 4.05 8.65 6.35 8.2 L7.65 7.95 7.65 8.1 7.95 9.25 6.1 10.35 4.0 11.7 Q2.7 10.75 1.95 9.25 L0.3 5.45 M11.75 5.75 Q15.85 4.6 19.6 4.85 19.25 9.6 17.3 11.0 L12.25 8.95 12.45 8.05 12.45 7.8 12.45 7.6 12.6 7.65 12.7 7.7 16.15 8.2 17.6 8.1 17.85 8.0 Q16.9 7.9 15.8 7.15 15.3 6.8 13.75 6.8 L12.35 6.95 11.75 5.75 M8.4 7.25 L8.5 6.9 8.8 6.35 9.0 6.2 Q9.4 5.75 10.05 5.75 10.75 5.75 11.25 6.35 L11.35 6.45 11.65 7.15 11.75 7.45 11.75 7.7 11.3 8.35 Q10.7 9.0 9.95 9.0 9.55 9.0 8.95 8.25 L8.4 7.25" fill="#cc0000" fill-rule="evenodd" stroke="none"/>
      <path d="M15.8 12.95 L16.95 15.1 17.7 16.55 Q15.7 15.8 15.2 15.8 L14.25 16.4 Q13.55 17.0 13.25 17.0 L13.1 16.95 13.1 16.9 12.65 14.65 Q12.4 13.4 11.35 11.25 L12.1 11.0 12.7 10.55 14.05 12.3 15.1 13.5 Q15.3 13.7 15.5 13.4 L15.8 12.95 M2.8 17.25 L3.95 14.85 5.15 12.5 Q4.95 12.95 5.2 13.4 L5.85 14.0 8.5 10.4 Q8.55 10.75 9.05 11.15 7.9 15.3 7.9 17.6 L6.65 16.6 5.85 16.0 2.8 17.25 M12.45 7.6 L12.35 6.95 13.75 6.8 Q15.3 6.8 15.8 7.15 16.9 7.9 17.85 8.0 L17.6 8.1 16.15 8.2 12.7 7.7 12.6 7.65 12.45 7.6 M7.65 7.95 L6.35 8.2 Q4.05 8.65 2.8 7.9 3.15 8.05 4.2 7.35 5.15 6.7 5.65 6.7 L6.35 6.7 Q6.95 6.8 7.4 7.05 L7.7 7.15 7.65 7.8 7.65 7.95" fill="#980026" fill-rule="evenodd" stroke="none"/>
      <path d="M8.35 5.8 L8.35 5.75 Q9.05 4.9 10.05 4.9 11.05 4.9 11.75 5.75 L12.35 6.95 12.45 7.6 12.45 7.8 12.45 8.05 11.55 9.45 Q10.9 10.3 9.6 10.15 8.3 10.0 7.7 8.1 L7.65 8.1 7.65 7.95 7.65 7.8 7.7 7.15 Q7.85 6.35 8.35 5.8 M11.75 7.7 L11.75 7.45 11.65 7.15 11.35 6.45 11.25 6.35 Q10.75 5.75 10.05 5.75 9.4 5.75 9.0 6.2 L8.8 6.35 8.5 6.9 8.4 7.25 8.35 7.3 8.3 7.75 8.3 7.8 Q8.3 8.5 8.65 9.1 L8.8 9.25 Q9.2 9.75 9.8 9.85 L10.05 9.85 10.4 9.85 11.25 9.25 11.55 8.8 11.75 7.8 11.75 7.7" fill="#ffcc00" fill-rule="evenodd" stroke="none"/>
      <path d="M14.55 10.55 L15.8 12.95 15.5 13.4 Q15.3 13.7 15.1 13.5 L14.05 12.3 12.7 10.55 12.1 11.0 11.35 11.25 Q12.4 13.4 12.65 14.65 L13.1 16.9 13.1 16.95 13.25 17.0 Q13.55 17.0 14.25 16.4 L15.2 15.8 Q15.7 15.8 17.7 16.55 L17.95 17.2 14.85 16.5 12.75 18.3 10.6 10.65 10.95 10.5 11.75 9.85 11.85 9.7 12.15 9.25 13.1 9.85 14.55 10.55 M9.65 10.65 L9.5 11.4 8.0 18.65 5.7 16.75 2.6 17.75 2.8 17.25 5.85 16.0 6.65 16.6 7.9 17.6 Q7.9 15.3 9.05 11.15 8.55 10.75 8.5 10.4 L5.85 14.0 5.2 13.4 Q4.95 12.95 5.15 12.5 L6.0 11.1 8.1 9.55 8.35 9.85 9.25 10.55 9.65 10.65" fill="#70001c" fill-rule="evenodd" stroke="none"/>
      <path d="M19.6 4.85 L20.05 4.9 Q20.55 7.45 17.75 11.85 L14.55 10.55 13.1 9.85 12.15 9.25 12.25 8.95 17.3 11.0 Q19.25 9.6 19.6 4.85 M6.0 11.1 L4.25 12.2 3.65 12.5 Q1.35 11.05 -0.2 5.55 L0.3 5.45 1.95 9.25 Q2.7 10.75 4.0 11.7 L6.1 10.35 7.95 9.25 8.1 9.55 6.0 11.1" fill="#a60000" fill-rule="evenodd" stroke="none"/>
      <path d="M10.6 10.65 L10.05 10.7 9.65 10.65 9.25 10.55 8.35 9.85 8.1 9.55 7.95 9.25 7.65 8.1 7.7 8.1 Q8.3 10.0 9.6 10.15 10.9 10.3 11.55 9.45 L12.45 8.05 12.25 8.95 12.15 9.25 11.85 9.7 11.75 9.85 10.95 10.5 10.6 10.65" fill="#c49d00" fill-rule="evenodd" stroke="none"/>
      <path d="M11.75 7.7 L11.75 7.8 11.55 8.8 11.25 9.25 10.4 9.85 10.05 9.85 9.8 9.85 Q9.2 9.75 8.8 9.25 L8.65 9.1 Q8.3 8.5 8.3 7.8 L8.3 7.75 8.35 7.3 8.4 7.25 8.95 8.25 Q9.55 9.0 9.95 9.0 10.7 9.0 11.3 8.35 L11.75 7.7" fill="#a80000" fill-rule="evenodd" stroke="none"/>
      <path d="M11.7 7.3 L10.7 8.05 11.1 9.2 10.05 8.5 9.05 9.2 9.45 8.05 8.5 7.25 9.65 7.25 10.1 6.1 10.5 7.25 11.7 7.3" fill="#ffcc00" fill-rule="evenodd" stroke="none"/>
      <path d="M9.55 7.0 L9.8 7.6 10.45 7.9 10.8 7.8 10.85 8.2 10.55 9.05 Q10.25 9.4 9.85 9.4 9.4 9.4 9.1 9.05 8.8 8.7 8.8 8.2 8.8 7.65 9.1 7.3 L9.55 7.0" fill="#000000" fill-opacity="0.2" fill-rule="evenodd" stroke="none"/>
      <path d="M10.8 7.8 L10.45 7.9 9.8 7.6 9.55 7.0 Q9.55 6.65 9.8 6.35 L10.45 6.1 Q10.8 6.1 11.05 6.35 L11.35 7.0 11.05 7.6 10.8 7.8" fill="#ffffff" fill-opacity="0.49803922" fill-rule="evenodd" stroke="none"/>
    </g>
  </defs>
</svg>
