<svg xmlns="http://www.w3.org/2000/svg" xmlns:ffdec="https://www.free-decompiler.com/flash" xmlns:xlink="http://www.w3.org/1999/xlink" ffdec:objectType="frame" width="17.8" height="22.55"><use ffdec:characterId="1" xlink:href="#a" width="17.8" height="22.55"/><defs><g id="a" fill-rule="evenodd"><path fill="#fff6f3" d="m12.05 7.45 2.05 1.9.7.75.45 1.1 1.15.1 1.05.25.35.25-.7 1.25-1.1-1q-.45.35-.45 1.25v.25l.05.3v.25l.05.1-.35.55q-.65.65-.95.45l-1.6-.6-.2.15q-.2.25 0 .8l.2.4-.15.25-.3.35-.2.15-.1.05q-.5.45-.6 0l-1.35-1.1-.5.55-.2.45.25.45.5.6-.1.7q-.2.7-1.1.95l-1.1-.7q-.45.4-.25 1.25l.15.3.1.35.05.1.2.2v.5l-.75.5-1.05.35.05-.15-.5-1.5-.8.1-.2 1.4v.4l-1.5-.1-.9-.35.05-.15.05-.1.8-3.15-.1-.45-.15-.7-.45-3.1-1.25-7.7Q.65 3.6.1 2.65-.2 1.3.6.55q.45-.35.9-.4 1.65-.55 2.85 1l1.25 1.3.55.5 2.3 1.9z"/><path fill="#fbbcc5" fill-opacity=".498" d="m12.15 7.5 2.05 1.9Q11.7 8.45 8.65 6 7.1 4.95 6.25 3l2.3 1.9zM9.7 17.15l.5.6-.1.7q-.2.7-1.1.95l.05-.7-.15-.3-.1-.05-1.15-1 1.35.7.25.6q.7-.3.55-1.05-.6-.3-.65-.95l-.25-1.3.55 1.35zm-5.9 1.5q-.35 1.75-1.2 3.15l.8-3.15zM2.55 21.9q.95.25 1.75 0l-.3-.6.75-2L4.5 21q-.2.25.1.65l.3.45v.4l-1.5-.1-.9-.35zm4.25-3.55 1 1.9.1.35.05.1.2.2v.5l-.75.5-1.05.35.05-.15.2-.65-.05-.65-.5-1.7.85 1.65.05.2v.45l.7-.4-.1-.25zm10.75-6.75-1.95.35-1.1.3.75-.65.1-.35 1.15.1zm-1.85 2.55.05.1-.35.55q-.65.65-.95.45l-.2-.25-.15-.3-.05-.1-.2-.1-1.2-1.05 1.55.85.05.35q.5.1.85-.2l-1-2 1.55 1.45zm-4.45 1.65-.35-.25-1-1.05 1.15.6q.7.5.5 1.15l.55-.2.05-.05-.55-2.25L12.85 16l-.15.25-.3.35-.2.15-.1.05q-.5.45-.6 0l-.05-.2-.05-.35z"/><path fill="#fce2e5" fill-opacity=".498" d="M10.3 12.25h1.35q1.45.05 2.25-.5.75-.55 1-1.6l.45 1.1-.1.35-.75.65-.45.15-1.5.55-.2.05q-2.4.6-3.1 1.4L7.8 16.55l-.2.25-.8.95q-.7.65-1.8.85l-1.6.05-.1-.45-.15-.7-.45-3.1.55.1q2.05.5 3.3-.3l.3-.25q1.4-1.25 2.4-1.55z"/><path fill="#bf5f7f" fill-opacity=".498" d="M4.55 21.7q-.3-.4-.1-.65.1-.2.6-.3l-.2 1.4zm4.5-3-.05.7-1.1-.7.4-.4.5.05.1.05zm-2.5 2.8-.2.65-.5-1.5q.5-.05.65.2zm7-7.15.3.15.2.1.05.1.15.3.2.25-1.6-.6q.3-.35.7-.3m-2.65 1.2.35.25.15.45.05.35.05.2-1.35-1.1zm6.9-3.7-.7 1.25-1.1-1 .5-.3z"/></g></defs></svg>