<?xml version="1.0" encoding="UTF-8" standalone="no"?>
<svg xmlns:ffdec="https://www.free-decompiler.com/flash" xmlns:xlink="http://www.w3.org/1999/xlink" ffdec:objectType="frame" height="25.35px" width="21.6px" xmlns="http://www.w3.org/2000/svg">
  <g transform="matrix(1.0, 0.0, 0.0, 1.0, 0.75, -1.3)">
    <use ffdec:characterId="3" height="25.3" transform="matrix(1.0, 0.0, 0.0, 1.0, -0.75, 1.35)" width="21.6" xlink:href="#shape0"/>
    <use ffdec:characterId="5" height="18.35" id="Color" transform="matrix(1.0, 0.0, 0.0, 1.0, 1.75, 3.5)" width="17.0" xlink:href="#sprite0"/>
    <use ffdec:characterId="6" height="22.6" transform="matrix(1.0, 0.0, 0.0, 1.0, -0.15, 1.3)" width="20.6" xlink:href="#shape2"/>
  </g>
  <defs>
    <g id="shape0" transform="matrix(1.0, 0.0, 0.0, 1.0, 0.75, -1.35)">
      <path d="M5.6 3.55 L5.7 3.4 Q5.8 3.3 5.85 3.35 L5.6 3.55" fill="#990000" fill-rule="evenodd" stroke="none"/>
      <path d="M15.0 6.5 L14.95 6.65 Q14.95 7.15 15.6 7.15 L16.65 7.35 17.8 7.5 18.0 7.5 17.6 9.7 17.45 9.95 17.4 10.45 17.55 11.5 18.6 14.45 19.85 17.3 20.0 18.35 18.55 20.0 17.3 17.1 Q16.1 14.1 16.2 13.9 L16.3 13.75 16.3 13.6 Q15.3 15.5 13.9 16.9 L11.8 18.5 12.5 14.2 12.55 13.9 13.05 11.45 13.05 11.25 13.1 11.05 12.85 10.2 13.1 9.6 13.65 7.9 13.65 7.6 13.7 6.9 13.7 6.85 13.7 6.65 13.75 6.65 Q13.8 6.5 14.0 6.5 L14.0 6.8 14.1 6.85 14.1 6.7 14.2 6.7 14.25 6.85 14.65 6.55 14.7 6.5 15.0 6.5 M2.95 7.7 L4.75 7.3 Q5.65 7.1 5.7 6.5 L5.8 6.5 6.1 6.55 6.55 6.55 6.5 6.7 Q6.7 9.0 7.1 10.2 L7.3 11.25 7.35 11.35 7.3 11.6 7.8 14.2 8.5 18.6 Q7.55 18.15 6.35 16.9 L4.4 14.25 2.0 20.0 -0.1 18.2 -0.05 18.1 1.8 14.75 2.85 12.35 3.3 11.0 3.45 10.5 3.45 10.1 Q3.45 9.65 3.05 9.4 L2.65 9.45 2.3 7.35 2.5 7.3 2.55 7.45 2.95 7.7 M3.35 11.05 L3.45 10.7 3.4 10.75 3.35 11.05" fill="#76d3e9" fill-rule="evenodd" stroke="none"/>
      <path d="M16.8 7.5 L15.35 15.1 M3.5 7.4 L5.1 15.25 M4.6 7.05 L6.35 16.2 M14.55 6.45 L12.55 17.95 M5.75 6.8 L7.7 17.95 M15.6 7.25 L13.9 16.15" fill="none" stroke="#ffffff" stroke-linecap="round" stroke-linejoin="round" stroke-opacity="0.6" stroke-width="0.5"/>
      <path d="M20.5 22.6 L20.5 22.65 20.85 23.5 20.85 23.6 20.7 23.7 Q14.5 26.9 12.2 26.4 L12.1 26.35 Q11.0 25.95 10.5 24.4 10.25 25.55 9.6 26.1 L9.5 26.15 9.1 26.45 Q8.25 27.05 3.65 25.65 L-0.7 24.15 -0.65 23.95 -0.45 23.25 -0.45 23.2 0.95 19.35 3.8 21.3 Q5.0 21.95 5.95 21.95 L6.25 21.75 Q6.8 21.4 7.15 21.45 L6.95 21.7 7.0 21.75 7.2 21.6 Q8.15 20.8 8.6 18.8 L7.9 15.1 Q7.2 12.1 7.4 11.75 7.45 9.85 9.4 5.85 L7.15 7.3 6.7 9.05 6.4 6.7 6.5 6.8 9.3 5.3 8.55 4.85 6.45 3.6 6.45 3.85 6.25 4.1 Q5.85 3.9 5.8 3.4 L5.55 2.85 5.2 2.2 8.4 1.35 10.2 2.95 10.25 3.05 12.1 1.4 15.05 2.1 14.9 2.75 14.6 3.2 14.6 3.25 14.5 3.35 14.45 3.4 14.25 3.55 14.3 3.55 14.25 3.6 14.2 3.7 14.1 3.7 14.1 3.65 13.8 3.75 13.4 3.75 13.45 3.75 Q12.55 4.15 11.6 4.85 L11.2 4.3 11.2 4.15 11.1 4.15 9.25 4.15 9.5 6.4 10.8 6.45 11.0 5.35 13.85 6.55 13.7 7.55 13.65 8.2 13.55 8.25 Q14.0 9.6 12.7 7.8 L11.2 6.0 12.95 10.25 13.2 11.15 Q12.75 11.3 12.7 11.8 L13.15 11.3 12.45 14.7 11.95 17.85 11.75 18.75 11.95 19.0 Q12.45 21.2 13.2 21.65 L16.6 21.5 Q18.15 20.85 19.35 19.5 L20.5 22.6" fill="#333333" fill-rule="evenodd" stroke="none"/>
      <path d="M5.05 18.75 L5.65 18.55 6.2 18.75 6.45 19.35 6.2 19.95 6.0 20.1 5.65 20.2 5.05 19.95 4.8 19.35 5.05 18.75 M14.15 18.9 L14.75 18.7 15.3 18.9 15.55 19.5 15.3 20.1 14.75 20.35 Q14.45 20.35 14.25 20.15 L13.9 19.55 13.9 19.5 14.15 18.9" fill="#dbdbdb" fill-rule="evenodd" stroke="none"/>
      <path d="M20.55 22.75 L20.85 23.55 20.65 23.7 Q16.5 26.15 14.15 26.35 L13.0 26.55 12.45 26.45 11.6 26.15 11.45 25.95 11.4 25.95 11.35 25.9 11.15 25.75 10.65 25.25 10.55 25.25 10.4 24.9 10.25 25.25 Q9.6 26.65 8.5 26.65 5.55 26.65 -0.75 24.25 L-0.65 23.95 -0.45 23.4 Q5.15 25.4 7.65 25.4 9.45 25.4 9.95 24.3 L10.15 23.55 10.1 23.3 9.8 19.75 9.95 19.25 Q9.95 18.6 9.55 18.45 9.25 18.35 9.15 18.55 L9.1 18.55 8.8 20.6 8.1 21.8 7.65 22.15 7.5 22.25 7.65 22.25 7.7 22.35 8.65 22.6 8.6 22.65 8.1 22.95 8.05 22.95 8.0 23.0 6.9 23.2 5.1 22.75 4.85 22.65 4.6 22.45 4.25 22.35 6.45 24.0 4.6 23.55 Q3.15 22.95 2.5 21.5 L2.0 21.15 0.75 19.85 1.05 19.25 0.95 19.15 0.85 19.0 0.85 18.95 2.4 20.4 Q4.15 21.8 5.9 21.8 7.6 21.8 8.15 20.1 L8.35 18.35 7.7 15.8 Q7.05 13.4 7.05 12.0 7.05 10.85 7.5 11.8 8.0 12.8 8.2 14.6 L8.85 17.45 8.85 17.5 8.95 17.65 8.95 17.8 9.0 17.9 9.4 18.15 9.85 17.7 9.85 17.65 10.0 16.6 10.2 15.2 10.15 14.45 10.1 14.45 10.05 14.25 Q9.85 13.95 9.1 13.95 L8.9 13.95 Q9.55 13.4 10.0 13.4 L10.0 13.35 9.8 11.5 10.0 9.55 9.05 9.55 8.8 9.35 Q9.25 8.95 9.8 8.8 L10.0 8.75 9.75 7.3 9.5 6.45 9.75 6.15 10.05 6.5 Q9.9 6.55 9.9 6.8 L10.1 7.15 10.2 7.3 10.2 7.4 10.4 7.75 10.5 8.35 10.3 9.1 10.3 9.45 10.45 9.7 10.45 9.9 11.15 10.05 Q10.1 10.8 10.1 11.2 L10.3 11.65 10.4 12.45 10.2 13.05 10.45 14.4 10.7 15.6 10.65 16.2 10.4 16.5 10.4 17.05 10.45 17.3 10.4 17.4 10.45 17.4 10.4 17.5 10.5 17.85 10.5 17.9 Q10.65 18.15 10.95 18.15 L11.0 18.15 Q11.65 18.15 12.05 15.35 L12.35 11.9 12.35 11.75 Q12.6 11.4 13.1 11.45 L13.15 11.75 12.45 15.0 12.25 15.75 12.3 16.1 12.25 16.35 12.0 17.6 12.05 17.65 11.9 17.75 11.95 18.1 12.1 18.55 12.15 18.75 12.55 19.85 12.55 19.95 12.5 20.25 12.5 20.3 Q13.15 21.25 14.1 21.25 15.65 21.25 17.45 19.95 L19.5 18.25 19.9 18.35 19.8 18.75 19.6 18.65 Q19.15 18.65 19.15 19.2 L19.25 19.2 19.4 19.25 19.35 19.45 19.5 19.85 19.5 19.9 18.45 20.8 17.85 22.0 17.35 22.7 15.2 23.1 15.45 22.95 15.9 22.3 16.85 21.6 Q16.9 21.5 17.0 21.5 L16.1 21.9 15.4 22.35 15.35 22.35 15.25 22.45 14.95 22.6 13.95 23.15 13.05 23.2 12.5 23.15 13.15 22.85 13.7 22.4 13.7 22.35 13.65 22.2 13.2 22.3 Q11.9 22.0 11.55 20.95 L11.45 20.6 11.5 20.35 11.2 19.1 Q10.95 18.3 10.65 18.45 10.4 18.6 10.4 19.05 L10.4 19.1 10.4 19.4 10.35 19.5 10.4 20.1 10.3 20.25 10.3 20.75 10.6 23.05 10.75 23.6 Q10.9 24.8 11.8 25.35 L12.0 25.45 12.85 25.7 13.1 25.75 13.45 25.75 Q14.05 25.75 15.95 24.9 L17.65 24.0 17.75 23.95 20.4 22.85 20.55 22.75" fill="#000000" fill-opacity="0.2901961" fill-rule="evenodd" stroke="none"/>
    </g>
    <g id="sprite0" transform="matrix(1.0, 0.0, 0.0, 1.0, -0.55, -0.35)">
      <use ffdec:characterId="4" height="18.35" transform="matrix(1.0, 0.0, 0.0, 1.0, 0.55, 0.35)" width="17.0" xlink:href="#shape1"/>
    </g>
    <g id="shape1" transform="matrix(1.0, 0.0, 0.0, 1.0, -0.55, -0.35)">
      <path d="M14.2 16.9 L14.5 16.25 14.2 15.55 Q13.95 15.3 13.55 15.3 L12.85 15.55 12.6 16.25 12.85 16.9 13.0 17.0 Q13.2 17.2 13.55 17.2 14.0 17.2 14.2 16.9 M7.3 15.35 Q6.8 17.4 5.7 18.15 4.55 18.85 2.5 17.9 0.4 16.95 0.55 16.4 L3.15 10.0 Q4.5 13.2 7.3 15.35 M5.1 16.75 L5.4 16.1 5.1 15.4 Q4.85 15.15 4.45 15.15 4.1 15.15 3.75 15.4 L3.5 16.1 3.75 16.75 4.45 17.05 4.85 16.95 5.1 16.75 M3.4 1.25 L4.75 0.45 Q4.25 1.7 4.55 3.2 L4.55 3.3 1.3 2.3 3.4 1.25 M16.05 2.15 L16.4 2.35 13.6 3.15 13.2 3.3 13.15 3.4 13.15 3.35 Q13.6 1.85 13.1 0.4 L13.25 0.5 13.65 0.8 14.3 1.2 14.65 1.4 16.05 2.15 M10.7 14.9 Q13.1 13.55 14.9 10.0 L17.55 16.25 14.5 18.5 12.55 18.4 Q11.35 17.9 10.7 14.9" fill="#2f7fb8" fill-rule="evenodd" stroke="none"/>
      <path d="M12.4 0.5 L12.45 0.5 12.55 0.5 13.1 0.4 Q13.6 1.85 13.15 3.35 L13.15 3.4 13.1 3.45 13.05 3.55 13.0 3.55 12.85 3.6 12.5 3.5 12.3 3.45 10.1 2.35 10.1 2.4 10.5 2.7 11.85 4.05 12.4 4.55 Q13.5 5.95 14.3 8.25 12.85 9.35 11.05 8.85 11.7 7.05 10.4 3.95 L10.25 3.6 10.1 3.45 10.05 3.6 9.6 3.5 8.6 3.55 8.5 3.4 8.35 3.35 7.55 4.4 7.3 4.85 Q6.45 7.3 7.0 8.85 5.2 9.35 3.75 8.25 4.5 6.15 5.45 4.8 L6.7 3.5 8.2 2.45 8.2 2.4 7.25 2.9 5.6 3.55 5.3 3.65 5.05 3.7 5.0 3.75 4.55 2.85 4.55 3.2 Q4.25 1.7 4.75 0.45 L4.95 0.35 5.1 0.4 6.75 0.65 8.05 1.1 8.0 1.0 8.05 0.8 8.1 0.65 8.8 0.5 8.95 0.45 9.25 0.45 10.2 0.6 10.2 0.95 11.25 0.65 12.4 0.5" fill="#ffffff" fill-rule="evenodd" stroke="none"/>
    </g>
    <g id="shape2" transform="matrix(1.0, 0.0, 0.0, 1.0, 0.15, -1.3)">
      <path d="M20.45 18.25 L20.35 18.5 20.05 18.9 19.95 19.0 17.05 21.3 Q14.65 22.6 13.1 21.6 L13.05 21.55 Q12.05 20.7 11.55 18.65 L11.5 18.6 11.6 18.4 11.9 17.45 12.1 17.4 12.15 17.4 12.2 17.35 13.65 16.1 Q15.35 14.0 16.35 10.65 L16.35 10.7 17.05 7.95 13.65 6.9 13.65 6.7 13.7 6.7 14.2 6.35 14.3 6.15 16.2 5.35 15.0 4.35 14.25 3.55 14.45 3.35 14.55 3.25 15.9 4.15 Q17.55 5.2 18.5 5.5 L18.2 5.6 17.35 5.9 15.4 6.75 17.65 7.2 18.2 7.3 18.1 7.65 17.6 9.9 17.1 11.55 Q16.1 14.7 14.75 16.35 L14.4 16.75 12.65 18.25 12.5 18.3 13.05 19.95 13.2 20.2 13.9 20.9 15.25 21.05 Q16.75 20.8 18.45 19.15 L19.9 17.4 20.25 17.95 20.45 18.25 M5.7 3.2 L5.9 3.55 5.95 3.65 5.3 4.3 4.1 5.3 6.0 6.1 6.1 6.25 6.6 6.9 3.25 7.9 3.95 10.65 3.95 10.6 Q4.95 13.95 6.65 16.05 L8.1 17.3 8.15 17.35 8.2 17.35 8.4 17.4 8.7 18.35 8.8 18.55 8.75 18.6 Q8.25 20.65 7.25 21.5 L7.2 21.55 Q5.65 22.55 3.25 21.25 L0.35 18.95 0.25 18.85 -0.05 18.45 -0.15 18.2 0.05 17.9 0.4 17.35 Q0.8 18.1 1.85 19.1 3.55 20.75 5.05 21.0 L6.4 20.85 7.1 20.15 7.25 19.9 7.8 18.25 7.65 18.2 6.0 16.85 5.85 16.7 Q4.2 14.65 3.2 11.5 L2.7 9.85 2.2 7.6 2.1 7.25 2.65 7.15 4.9 6.7 2.95 5.85 2.1 5.55 1.8 5.45 4.4 4.1 5.7 3.2" fill="#ffffff" fill-rule="evenodd" stroke="none"/>
      <path d="M10.8 8.3 L10.6 8.7 10.2 8.9 Q9.95 8.9 9.75 8.7 L9.6 8.3 Q9.6 8.05 9.75 7.85 9.95 7.7 10.2 7.7 L10.6 7.85 10.8 8.3 M10.55 11.85 L10.75 12.3 10.55 12.7 Q10.4 12.9 10.15 12.9 9.9 12.9 9.7 12.7 L9.55 12.3 Q9.55 12.05 9.7 11.85 9.9 11.7 10.15 11.7 10.4 11.7 10.55 11.85 M9.8 15.75 L10.25 15.6 Q10.5 15.6 10.65 15.75 L10.85 16.2 10.65 16.6 Q10.5 16.8 10.25 16.8 L9.8 16.6 9.65 16.2 9.8 15.75 M9.85 19.7 Q10.05 19.55 10.3 19.55 10.55 19.55 10.7 19.7 L10.9 20.15 10.7 20.55 10.3 20.75 Q10.05 20.75 9.85 20.55 L9.7 20.15 Q9.7 19.9 9.85 19.7" fill="#ffffff" fill-rule="evenodd" stroke="none"/>
      <path d="M15.4 3.8 L16.15 4.3 Q15.0 7.25 14.1 7.25 L13.85 7.1 13.85 7.0 13.65 7.0 12.75 6.8 13.1 7.4 Q13.8 8.7 13.8 9.25 13.8 9.7 13.45 9.7 L13.05 9.55 12.95 9.3 13.0 10.7 12.9 11.85 13.0 11.85 13.45 12.0 13.55 12.0 13.65 12.0 15.05 11.6 15.35 11.4 15.45 11.35 15.4 11.4 15.55 11.65 14.8 12.25 13.25 12.6 12.15 12.35 11.8 12.05 11.9 11.85 11.9 11.65 12.05 10.4 Q12.05 9.1 11.6 8.05 L11.35 7.45 11.2 7.25 10.85 7.0 10.4 7.05 9.7 7.0 Q9.1 7.6 8.75 8.45 8.45 8.95 8.45 10.55 L8.5 11.2 8.55 11.35 8.8 12.1 8.35 12.55 7.4 12.75 5.85 12.4 5.2 11.95 5.25 11.8 5.1 11.5 5.05 11.4 5.4 11.6 6.95 12.05 7.05 12.05 Q7.8 12.05 7.8 11.65 L7.75 11.45 7.7 10.95 7.9 8.3 7.8 8.45 6.95 9.85 7.1 8.55 7.4 7.6 7.55 7.25 6.75 7.9 6.65 7.9 4.3 4.15 4.7 3.95 5.05 3.65 5.45 3.4 5.75 3.15 5.8 3.3 6.1 3.6 6.3 3.5 7.45 3.65 8.55 3.95 9.1 4.2 9.4 4.05 9.5 4.8 9.85 5.45 10.4 5.75 10.6 5.75 10.9 5.5 10.9 5.4 11.05 5.0 11.1 4.75 11.3 4.05 11.7 4.05 11.5 4.45 11.85 4.35 Q12.6 4.25 12.6 4.65 12.6 5.1 11.7 5.1 L11.55 5.1 Q11.7 5.5 12.4 5.55 L12.6 5.65 12.9 5.8 13.15 6.05 Q13.55 6.4 13.85 6.4 L14.3 5.7 14.45 4.85 14.4 3.9 14.2 3.7 14.2 3.6 14.25 3.5 14.3 3.55 14.55 3.3 14.65 3.25 15.4 3.8 M17.6 11.4 L17.8 12.0 17.75 12.1 17.45 12.9 17.6 13.7 17.85 14.85 17.8 15.65 17.0 13.95 16.8 14.4 16.75 14.5 16.7 15.35 16.45 16.2 16.4 17.3 15.75 16.9 15.4 16.9 Q15.1 16.95 15.05 17.3 L13.85 18.4 13.45 18.75 13.75 19.85 Q13.95 20.65 14.75 20.65 15.75 20.65 17.1 19.85 L18.55 18.3 19.55 16.65 19.75 17.0 19.7 17.1 19.8 17.1 20.25 17.8 18.4 19.65 Q16.3 21.3 14.7 21.3 13.45 21.3 12.75 20.3 L12.3 19.4 11.75 19.55 11.75 19.4 11.55 18.6 11.9 18.5 Q12.25 18.35 12.8 18.15 L14.55 16.5 15.8 14.7 17.45 10.55 17.6 11.4 M6.85 3.75 Q6.3 3.75 6.2 4.0 L6.2 4.45 6.2 4.5 6.15 5.2 6.2 5.85 Q6.3 6.45 6.6 6.45 L7.2 6.15 7.6 5.85 7.65 5.8 8.6 5.4 9.05 5.3 9.2 5.25 9.15 5.2 9.1 5.2 9.1 5.15 8.65 5.2 Q7.85 5.2 7.85 4.8 7.85 4.35 8.65 4.55 L9.1 4.65 9.1 4.55 9.15 4.35 8.6 4.3 8.55 4.25 7.85 4.0 7.8 4.0 Q7.6 3.75 6.9 3.75 L6.85 3.75 M5.75 16.5 L7.5 18.15 Q8.05 18.35 8.4 18.5 L8.75 18.6 8.55 19.4 8.55 19.55 7.9 19.35 7.45 20.35 6.5 21.15 5.7 21.35 5.4 21.35 5.2 21.35 5.15 21.35 4.15 21.0 3.75 20.75 3.7 20.75 1.6 19.15 0.25 17.5 1.0 16.75 1.25 17.3 1.3 17.35 1.45 17.65 Q2.55 19.65 4.0 20.35 L4.05 20.35 4.1 20.4 5.25 20.55 Q6.2 20.55 6.75 20.0 L7.1 19.25 7.1 19.2 7.15 19.05 7.2 18.95 6.45 18.4 5.35 17.35 5.2 17.5 5.05 17.7 5.05 17.6 Q5.05 16.1 4.2 16.6 L3.4 17.45 3.45 17.1 3.6 16.3 3.85 15.8 4.05 15.5 3.7 14.85 2.8 12.65 2.9 12.45 3.2 11.55 3.7 12.9 3.75 12.9 3.75 13.0 3.9 13.25 4.65 14.9 5.0 15.55 5.1 15.65 5.6 16.35 5.75 16.5 M6.0 18.15 L6.3 18.55 6.0 18.15 M7.75 14.5 L7.8 14.75 7.2 14.8 Q6.0 15.0 5.7 15.6 L5.1 14.8 4.65 13.9 4.45 13.25 Q5.3 13.65 6.15 13.65 L7.25 13.35 7.55 13.05 7.65 13.05 7.6 13.25 7.75 14.5 M3.25 17.85 L3.35 17.5 3.4 17.65 3.3 17.85 3.25 17.85 M6.3 19.15 L5.95 19.0 Q5.45 18.95 5.45 19.4 L5.5 19.6 Q5.6 19.8 5.95 19.8 L6.0 19.8 5.7 19.85 Q5.05 19.85 5.05 19.3 5.05 18.75 5.65 18.75 6.2 18.75 6.3 19.15 M15.4 14.65 L14.8 15.5 Q14.45 14.95 13.05 14.85 L12.35 14.9 12.4 14.6 12.75 13.3 12.9 13.4 14.1 13.6 Q15.05 13.5 15.95 13.0 L15.85 13.7 15.4 14.65 M15.7 16.5 L15.7 16.55 15.7 16.5 M14.85 19.55 Q14.85 19.15 14.45 19.15 L14.15 19.25 Q14.25 18.95 14.7 18.95 15.15 18.95 15.25 19.55 15.25 20.05 14.7 20.05 L14.3 19.95 14.45 19.95 Q14.85 19.95 14.85 19.55" fill="#000000" fill-opacity="0.2" fill-rule="evenodd" stroke="none"/>
      <path d="M15.1 2.05 L15.0 2.5 13.6 2.8 Q11.4 3.35 11.25 3.75 L10.7 3.65 10.25 3.65 9.65 3.8 9.4 3.85 8.85 3.5 8.05 3.2 7.8 3.15 6.45 2.85 5.05 2.35 6.75 1.8 7.3 1.65 7.55 1.65 Q7.65 1.6 7.8 1.5 L8.6 1.35 9.3 2.0 10.35 2.65 Q10.65 2.65 12.35 1.3 L13.85 1.7 15.1 2.05" fill="#000000" fill-opacity="0.9607843" fill-rule="evenodd" stroke="none"/>
      <path d="M5.65 19.65 Q9.95 27.3 14.55 19.8" fill="none" stroke="#000000" stroke-linecap="round" stroke-linejoin="round" stroke-opacity="0.2" stroke-width="0.8"/>
      <path d="M5.85 19.3 Q9.75 26.95 14.4 19.5" fill="none" stroke="#d2d2d2" stroke-linecap="round" stroke-linejoin="round" stroke-width="0.5"/>
    </g>
  </defs>
</svg>
