<?xml version="1.0" encoding="UTF-8" standalone="no"?>
<svg xmlns:ffdec="https://www.free-decompiler.com/flash" xmlns:xlink="http://www.w3.org/1999/xlink" ffdec:objectType="frame" height="23.4px" width="29.7px" xmlns="http://www.w3.org/2000/svg">
  <g transform="matrix(1.0, 0.0, 0.0, 1.0, 4.8, -2.7)">
    <use ffdec:characterId="1" height="23.4" transform="matrix(1.0, 0.0, 0.0, 1.0, -4.8, 2.7)" width="29.7" xlink:href="#shape0"/>
  </g>
  <defs>
    <g id="shape0" transform="matrix(1.0, 0.0, 0.0, 1.0, 4.8, -2.7)">
      <path d="M11.7 3.0 L11.3 3.0 10.55 3.45 9.9 4.05 9.4 3.45 8.65 3.0 8.25 3.0 8.1 2.7 8.65 2.7 9.4 3.2 Q9.8 3.4 9.9 3.85 10.1 3.4 10.55 3.2 L11.3 2.7 11.85 2.7 11.7 3.0 M8.4 3.9 L8.4 4.05 8.35 4.35 8.3 4.35 8.25 4.35 8.4 3.9 M9.8 5.2 L9.8 5.35 Q9.7 5.9 9.05 5.9 L8.45 5.8 8.45 5.65 9.05 5.8 Q9.7 5.8 9.8 5.2 M8.45 5.35 L8.25 5.3 8.15 5.65 8.1 5.5 8.25 5.15 8.7 5.2 8.45 5.2 8.45 5.35 M11.85 5.65 L11.65 5.3 11.5 5.35 11.5 5.2 11.25 5.2 11.65 5.15 11.85 5.5 11.85 5.65 M11.5 5.65 L11.5 5.8 10.9 5.9 Q10.2 5.9 10.1 5.35 L10.1 5.2 Q10.2 5.8 10.9 5.8 L11.5 5.65 M11.6 4.35 L11.55 4.05 11.55 3.9 11.65 4.35 11.6 4.35" fill="url(#gradient0)" fill-rule="evenodd" stroke="none"/>
      <path d="M8.25 3.0 L8.65 3.0 9.4 3.45 9.9 4.05 10.55 3.45 11.3 3.0 11.7 3.0 11.85 3.0 11.55 3.85 11.55 3.9 11.55 4.05 11.6 4.35 11.65 4.45 11.65 4.55 10.6 4.6 10.1 5.2 10.1 5.35 Q10.2 5.9 10.9 5.9 L11.5 5.8 11.5 5.65 11.5 5.35 11.65 5.3 11.85 5.65 11.85 5.8 11.8 5.85 11.5 6.15 10.85 6.3 9.9 6.2 9.1 6.3 8.45 6.15 8.15 5.8 8.1 5.7 8.1 5.65 8.15 5.65 8.25 5.3 8.45 5.35 8.45 5.65 8.45 5.8 9.05 5.9 Q9.7 5.9 9.8 5.35 L9.8 5.2 9.25 4.55 8.25 4.55 8.3 4.45 8.35 4.35 8.4 4.05 8.4 3.9 8.4 3.85 8.1 3.0 8.25 3.0" fill="url(#gradient1)" fill-rule="evenodd" stroke="none"/>
      <path d="M8.35 4.35 L8.3 4.45 8.25 4.45 8.3 4.35 8.35 4.35 M8.1 5.7 L8.15 5.8 8.45 6.15 9.1 6.3 9.9 6.2 10.85 6.3 11.5 6.15 11.8 5.85 11.5 6.25 10.85 6.45 9.9 6.3 9.1 6.45 8.45 6.25 Q8.1 5.95 8.1 5.7 M11.65 4.45 L11.6 4.35 11.65 4.35 11.65 4.45" fill="url(#gradient2)" fill-rule="evenodd" stroke="none"/>
      <path d="M11.3 2.7 L11.85 2.7 Q11.55 3.1 11.55 3.75 L11.65 4.25 10.6 4.3 10.1 4.95 Q10.1 5.7 10.9 5.7 L11.5 5.55 11.5 5.1 11.25 5.1 11.65 5.05 11.85 5.4 11.5 5.9 10.85 6.1 9.9 5.95 9.1 6.1 8.45 5.9 8.1 5.4 8.25 5.05 8.7 5.1 8.45 5.1 8.45 5.55 9.05 5.7 Q9.8 5.7 9.8 4.95 L9.25 4.25 8.25 4.25 8.4 3.75 8.1 2.7 8.65 2.7 9.4 3.1 Q9.8 3.35 9.9 3.75 10.1 3.35 10.55 3.1 11.05 2.85 11.3 2.7" fill="url(#gradient3)" fill-rule="evenodd" stroke="none"/>
      <path d="M8.25 12.7 Q6.45 12.6 3.35 11.05 3.05 11.05 1.75 11.9 1.85 11.2 2.6 10.4 2.1 11.05 2.0 11.6 3.3 10.75 3.6 10.75 6.55 12.2 8.35 12.3 L8.25 12.7 M7.55 8.2 L7.35 8.5 7.3 8.6 7.55 8.2 M9.6 12.3 L9.6 12.35 9.5 12.45 9.6 12.3" fill="url(#gradient4)" fill-rule="evenodd" stroke="none"/>
      <path d="M9.55 12.9 L9.35 13.1 8.85 13.6 8.9 13.45 9.45 12.95 9.55 12.9 M8.75 15.7 L8.45 16.1 7.7 16.2 7.7 16.0 7.9 15.85 8.65 15.75 8.75 15.7 M9.3 22.3 L9.25 22.4 Q8.9 23.05 8.4 23.05 8.2 23.05 8.15 22.9 L8.35 22.5 8.6 22.7 9.3 22.3 M7.5 24.05 L6.7 24.65 6.45 24.55 6.6 24.15 6.9 24.4 Q7.2 24.4 7.5 24.05 M6.2 24.85 L5.7 25.35 Q5.1 25.85 4.45 25.85 3.95 25.85 3.9 25.3 L4.05 24.85 Q4.05 25.65 4.65 25.6 5.3 25.6 5.9 25.1 L6.2 24.85 M3.7 25.45 Q3.25 26.0 1.65 26.0 L1.0 25.85 0.65 25.45 0.75 25.35 0.4 25.55 1.0 25.2 0.9 25.3 Q0.9 25.5 1.25 25.7 L1.9 25.8 3.7 25.45 M-0.05 25.8 L-0.3 25.95 -1.35 26.1 -1.8 26.1 -2.0 25.7 -1.95 25.55 -3.95 26.1 -4.6 25.85 -4.8 25.45 -4.65 25.15 -4.4 25.0 -4.3 25.05 -4.35 25.1 -4.5 25.4 -4.3 25.8 -3.65 26.0 -1.95 25.55 -1.7 25.45 -1.75 25.6 -1.55 26.0 -1.1 25.95 -0.05 25.8 M-4.0 24.95 L-3.5 24.7 -2.8 24.4 Q-1.95 23.75 -1.05 22.5 0.1 20.95 0.5 19.85 L1.0 17.25 Q1.15 15.65 1.8 14.65 L1.75 14.6 1.7 14.5 1.7 14.25 1.85 13.9 2.1 13.7 1.95 14.0 1.95 14.25 2.0 14.35 2.05 14.4 Q1.4 15.45 1.25 17.05 L0.75 19.65 -0.8 22.3 Q-1.7 23.65 -2.55 24.3 L-2.8 24.4 -3.25 24.6 -3.85 24.95 -3.85 25.05 -4.0 24.95 M4.15 24.15 L4.25 24.15 4.2 24.25 4.15 24.15" fill="url(#gradient5)" fill-rule="evenodd" stroke="none"/>
      <path d="M7.3 8.6 L7.1 9.35 Q7.1 10.95 8.3 10.85 L9.0 10.55 9.65 10.1 9.5 10.85 Q9.5 11.4 10.1 12.0 L10.05 12.05 10.05 12.1 10.15 12.0 10.2 12.1 10.05 12.3 9.9 12.5 9.55 12.9 9.45 12.95 8.9 13.45 8.85 13.45 8.8 13.3 8.7 13.4 8.7 13.55 8.6 13.6 8.5 13.2 8.5 13.1 8.45 13.05 8.45 13.2 8.4 13.45 8.25 13.55 8.15 13.35 8.15 13.3 8.25 12.7 8.35 12.3 Q6.55 12.2 3.6 10.75 3.3 10.75 2.0 11.6 2.1 11.05 2.6 10.4 L4.3 8.65 Q4.65 8.05 6.05 7.65 L8.05 7.1 8.1 7.1 7.9 7.5 7.55 8.15 7.55 8.2 7.3 8.6 M9.6 12.3 L9.5 12.45 9.6 12.35 9.6 12.3" fill="url(#gradient6)" fill-rule="evenodd" stroke="none"/>
      <path d="M8.85 13.6 L8.8 14.05 8.95 15.2 8.75 15.7 8.65 15.75 7.9 15.85 7.7 16.0 7.7 16.2 7.7 16.3 8.7 18.25 Q9.7 20.05 9.7 20.85 L9.45 22.05 9.3 22.3 8.6 22.7 8.35 22.5 8.15 22.9 7.75 23.6 7.5 24.05 Q7.2 24.4 6.9 24.4 L6.6 24.15 6.45 24.55 6.2 24.85 5.9 25.1 Q5.3 25.6 4.65 25.6 4.05 25.65 4.05 24.85 L3.9 25.3 3.7 25.45 1.9 25.8 1.25 25.7 Q0.9 25.5 0.9 25.3 L1.0 25.2 0.4 25.55 -0.05 25.8 -1.1 25.95 -1.55 26.0 -1.75 25.6 -1.7 25.45 -1.95 25.55 -3.65 26.0 -4.3 25.8 -4.5 25.4 -4.35 25.1 -4.3 25.05 -4.1 24.9 -4.0 24.95 -3.85 25.05 -3.85 24.95 -3.25 24.6 -2.8 24.4 -2.55 24.3 Q-1.7 23.65 -0.8 22.3 L0.75 19.65 1.25 17.05 Q1.4 15.45 2.05 14.4 L2.0 14.35 1.95 14.25 1.95 14.0 2.1 13.7 2.1 13.6 2.35 13.35 3.0 14.0 4.3 14.35 7.55 13.55 8.15 13.35 8.25 13.55 8.4 13.45 8.45 13.2 8.5 13.2 8.6 13.6 8.7 13.55 8.7 13.4 8.8 13.3 8.85 13.45 8.9 13.45 8.85 13.6 M4.15 24.15 L4.2 24.25 4.25 24.15 4.15 24.15" fill="url(#gradient7)" fill-rule="evenodd" stroke="none"/>
      <path d="M18.0 13.7 L18.25 13.9 18.4 14.25 18.4 14.5 18.35 14.6 18.3 14.65 Q18.95 15.65 19.1 17.25 L19.6 19.85 Q20.0 20.95 21.15 22.5 22.05 23.75 22.9 24.4 L22.65 24.3 Q21.8 23.65 20.9 22.3 19.75 20.75 19.35 19.65 L18.85 17.05 Q18.7 15.45 18.05 14.4 L18.1 14.35 18.15 14.25 18.15 14.0 18.0 13.7 M22.9 24.4 L23.6 24.7 24.1 24.95 23.95 25.05 23.95 24.95 Q23.95 24.85 23.35 24.6 L22.9 24.4 M24.4 25.05 L24.5 25.0 Q24.6 25.0 24.75 25.15 L24.9 25.45 24.7 25.85 24.05 26.1 22.05 25.55 22.1 25.7 21.9 26.1 21.45 26.1 20.4 25.95 20.15 25.8 21.2 25.95 21.65 26.0 21.85 25.6 21.8 25.45 22.05 25.55 23.75 26.0 Q24.15 26.0 24.4 25.8 L24.6 25.4 24.45 25.1 24.4 25.05 M19.4 25.35 L19.35 25.35 19.45 25.45 19.1 25.85 18.45 26.0 Q16.85 26.0 16.4 25.45 L18.2 25.8 18.85 25.7 19.2 25.3 19.1 25.2 19.4 25.35 M16.2 25.3 Q16.15 25.85 15.65 25.85 15.0 25.85 14.4 25.35 L13.9 24.85 14.2 25.1 Q14.8 25.6 15.45 25.6 16.05 25.65 16.05 24.85 L16.2 25.3 M13.65 24.55 L13.4 24.65 Q13.05 24.65 12.6 24.05 12.9 24.4 13.2 24.4 L13.5 24.15 13.65 24.55 M11.95 22.9 Q11.9 23.05 11.7 23.05 11.2 23.05 10.85 22.4 L11.5 22.7 11.75 22.5 11.95 22.9 M12.4 16.2 L11.65 16.1 11.35 15.7 11.45 15.75 12.2 15.85 12.4 16.0 12.4 16.2 M11.25 13.6 L10.75 13.1 10.55 12.9 10.65 12.95 11.2 13.45 11.25 13.6 M15.95 24.15 L15.9 24.25 15.85 24.15 15.95 24.15" fill="url(#gradient8)" fill-rule="evenodd" stroke="none"/>
      <path d="M18.0 13.7 L18.15 14.0 18.15 14.25 18.1 14.35 18.05 14.4 Q18.7 15.45 18.85 17.05 L19.35 19.65 Q19.75 20.75 20.9 22.3 21.8 23.65 22.65 24.3 L22.9 24.4 23.35 24.6 Q23.95 24.85 23.95 24.95 L23.95 25.05 24.1 24.95 24.2 24.9 24.4 25.05 24.45 25.1 24.6 25.4 24.4 25.8 Q24.15 26.0 23.75 26.0 L22.05 25.55 21.8 25.45 21.85 25.6 21.65 26.0 21.2 25.95 20.15 25.8 19.7 25.55 19.4 25.35 19.1 25.2 19.2 25.3 18.85 25.7 18.2 25.8 16.4 25.45 16.2 25.3 16.05 24.85 Q16.05 25.65 15.45 25.6 14.8 25.6 14.2 25.1 L13.9 24.85 13.65 24.55 13.5 24.15 13.2 24.4 Q12.9 24.4 12.6 24.05 L12.35 23.6 11.95 22.9 11.75 22.5 11.5 22.7 10.85 22.4 10.85 22.35 10.8 22.3 10.65 22.05 10.4 20.85 Q10.4 20.05 11.4 18.25 L12.4 16.3 12.4 16.2 12.4 16.0 12.2 15.85 11.45 15.75 11.35 15.7 11.15 15.2 11.3 14.05 11.25 13.6 11.2 13.45 11.25 13.45 11.3 13.3 11.4 13.4 11.4 13.55 11.5 13.6 11.6 13.2 11.65 13.2 11.7 13.45 11.85 13.55 11.95 13.35 12.55 13.55 15.8 14.35 17.1 14.0 17.75 13.35 18.0 13.6 18.0 13.7 M15.95 24.15 L15.85 24.15 15.9 24.25 15.95 24.15" fill="url(#gradient9)" fill-rule="evenodd" stroke="none"/>
      <path d="M10.55 12.9 L10.2 12.5 10.05 12.3 9.9 12.1 9.95 12.0 10.05 12.1 10.05 12.05 10.0 12.0 Q10.6 11.4 10.6 10.85 L10.45 10.1 11.1 10.55 11.8 10.85 Q13.0 10.95 13.0 9.35 L12.8 8.6 12.75 8.5 12.55 8.2 12.55 8.15 12.2 7.5 12.0 7.1 12.05 7.1 14.05 7.65 Q15.45 8.05 15.8 8.65 16.95 9.6 17.5 10.4 18.0 11.05 18.1 11.6 16.8 10.75 16.5 10.75 13.55 12.2 11.75 12.3 L11.85 12.7 11.95 13.3 11.95 13.35 11.85 13.55 11.7 13.45 11.65 13.2 11.65 13.05 11.6 13.1 11.6 13.2 11.5 13.6 11.4 13.55 11.4 13.4 11.3 13.3 11.25 13.45 11.2 13.45 10.65 12.95 10.55 12.9 M10.5 12.3 L10.5 12.35 10.6 12.45 10.5 12.3" fill="url(#gradient10)" fill-rule="evenodd" stroke="none"/>
      <path d="M17.5 10.4 Q18.25 11.2 18.35 11.9 17.05 11.05 16.75 11.05 13.65 12.6 11.85 12.7 L11.75 12.3 Q13.55 12.2 16.5 10.75 16.8 10.75 18.1 11.6 18.0 11.05 17.5 10.4 M10.5 12.3 L10.6 12.45 10.5 12.35 10.5 12.3" fill="url(#gradient11)" fill-rule="evenodd" stroke="none"/>
      <path d="M3.35 10.8 Q3.05 10.8 1.75 11.65 1.95 10.4 4.1 8.7 4.45 8.15 5.85 7.75 L7.85 7.3 7.9 7.3 7.35 8.25 Q6.9 8.9 6.9 9.45 6.9 11.05 8.1 11.05 L8.8 10.75 9.45 10.3 9.3 11.05 Q9.3 11.6 9.9 12.2 L8.55 12.5 Q6.7 12.5 3.35 10.8" fill="url(#gradient12)" fill-rule="evenodd" stroke="none"/>
      <path d="M-4.15 24.8 L-3.95 25.1 -3.35 25.1 -2.1 24.85 -1.9 24.8 -1.15 24.15 -1.35 24.7 -1.05 24.95 -0.55 25.1 Q0.05 25.1 1.25 24.15 1.2 24.75 1.4 24.9 L2.05 24.95 Q3.2 24.95 4.0 24.1 L4.1 24.45 4.55 24.5 Q6.1 24.5 6.4 23.15 L6.4 23.45 6.8 23.45 7.4 22.55 7.65 21.6 8.0 22.0 8.3 22.0 Q8.85 21.6 8.85 20.65 8.85 19.9 8.0 18.6 7.15 17.3 7.15 16.65 7.15 15.45 7.8 15.5 8.45 15.5 8.45 14.75 L8.35 14.1 8.4 13.55 7.35 14.1 4.0 14.95 Q2.65 14.95 1.8 14.35 L1.75 14.3 1.7 14.25 1.7 14.0 1.85 13.65 2.1 13.4 2.75 14.0 4.1 14.3 7.35 13.65 Q9.2 13.1 9.8 12.3 L9.35 12.9 8.75 13.5 Q8.6 13.7 8.6 14.2 L8.75 15.3 8.45 15.85 7.7 15.95 Q7.55 15.95 7.5 16.05 L7.5 16.35 8.5 18.35 Q9.5 20.15 9.5 20.95 L9.25 22.15 Q8.9 22.8 8.4 22.8 L8.15 22.6 7.55 23.6 Q7.1 24.3 6.7 24.3 L6.4 24.05 5.7 25.0 Q5.1 25.5 4.45 25.5 3.85 25.5 3.85 24.7 3.7 25.65 1.65 25.65 L1.0 25.5 0.65 25.1 0.75 25.0 Q0.55 25.05 -0.3 25.6 L-1.35 25.75 -1.8 25.75 -2.0 25.35 -1.95 25.2 -3.95 25.75 -4.6 25.5 -4.8 25.1 -4.65 24.8 -4.4 24.65 -4.15 24.8" fill="url(#gradient13)" fill-rule="evenodd" stroke="none"/>
      <path d="M1.8 14.35 Q2.65 14.95 4.0 14.95 L7.35 14.1 8.4 13.55 8.35 14.1 8.45 14.75 Q8.45 15.5 7.8 15.5 7.15 15.45 7.15 16.65 7.15 17.3 8.0 18.6 8.85 19.9 8.85 20.65 8.85 21.6 8.3 22.0 L8.0 22.0 7.65 21.6 7.4 22.55 6.8 23.45 6.4 23.45 6.4 23.15 Q6.1 24.5 4.55 24.5 L4.1 24.45 4.0 24.1 Q3.2 24.95 2.05 24.95 L1.4 24.9 Q1.2 24.75 1.25 24.15 0.05 25.1 -0.55 25.1 L-1.05 24.95 -1.35 24.7 -1.15 24.15 -1.9 24.8 -2.1 24.85 -3.35 25.1 -3.95 25.1 -4.15 24.8 -4.15 24.7 -3.5 24.35 -2.8 24.05 -1.05 22.2 Q0.1 20.65 0.5 19.55 L1.0 16.95 Q1.15 15.35 1.8 14.35 M4.0 24.1 L4.05 24.0 3.95 24.0 4.0 24.1" fill="url(#gradient14)" fill-rule="evenodd" stroke="none"/>
      <path d="M1.75 11.65 Q3.05 10.8 3.35 10.8 6.7 12.5 8.55 12.5 L9.9 12.2 9.8 12.3 Q9.2 13.1 7.35 13.65 L4.1 14.3 2.75 14.0 2.1 13.4 Q1.7 12.8 1.7 11.95 L1.75 11.65" fill="url(#gradient15)" fill-rule="evenodd" stroke="none"/>
      <path d="M5.4 15.2 L5.6 15.15 5.65 15.2 5.65 15.3 5.2 15.75 5.2 15.8 5.15 16.1 5.15 16.2 5.15 16.4 5.1 16.6 5.1 16.65 5.1 16.85 5.55 16.65 Q5.8 16.6 5.85 16.85 L5.75 16.85 5.65 16.9 5.45 17.05 5.35 17.3 5.3 17.5 5.05 17.9 4.75 17.95 4.6 17.9 4.6 18.65 4.75 19.8 4.75 19.85 4.85 19.6 5.5 18.7 Q5.95 18.35 6.4 18.25 L7.0 18.25 7.55 18.5 7.95 18.95 8.15 19.95 7.7 20.75 Q7.15 21.35 6.65 21.15 L6.45 21.0 Q6.35 20.8 6.5 20.65 L6.6 20.9 6.85 21.0 7.35 20.85 7.7 20.55 7.9 20.1 7.85 19.65 7.55 19.3 7.45 19.2 7.35 19.0 7.35 19.15 7.45 19.25 7.55 19.55 7.4 19.95 7.3 20.05 7.25 19.95 7.2 19.8 7.05 19.6 6.7 19.55 6.35 19.5 6.1 19.15 Q6.05 18.9 6.15 18.75 L6.45 18.5 Q6.25 18.4 6.0 18.6 L5.55 18.9 4.95 19.75 4.8 20.45 5.0 20.35 5.25 20.3 5.7 20.35 5.7 20.7 5.65 20.75 5.55 20.7 5.45 20.55 Q5.2 20.5 5.1 20.75 L5.05 20.9 4.95 21.15 5.05 21.35 Q5.4 21.6 5.2 22.15 L4.9 22.65 4.8 22.6 4.65 22.75 4.45 22.8 4.4 22.8 3.9 22.8 3.7 22.8 3.35 22.5 3.4 22.05 3.75 21.65 3.9 21.0 Q3.75 20.8 3.55 20.9 L3.3 21.1 3.2 21.2 3.15 20.9 3.3 20.65 3.6 20.5 3.95 20.6 3.6 19.7 3.15 18.95 Q3.05 18.85 2.75 18.7 2.3 18.35 1.7 18.3 L0.7 18.25 0.75 18.05 0.8 17.95 0.95 17.5 1.3 17.4 Q1.85 17.05 1.95 17.05 L2.4 17.3 2.3 17.85 2.1 17.95 2.0 18.15 Q3.05 18.45 3.55 19.25 L4.0 20.05 4.1 20.4 4.1 20.35 4.3 20.05 4.45 19.95 4.55 19.85 4.6 19.95 4.55 20.3 4.6 20.6 4.65 20.5 4.65 20.0 4.75 19.9 4.65 19.85 4.5 19.65 4.5 19.25 4.45 19.15 4.3 18.55 4.25 17.8 3.9 17.55 3.8 17.25 3.9 16.75 3.85 16.3 3.65 16.25 3.6 16.2 3.45 16.25 3.45 16.15 3.65 15.95 4.0 15.9 4.2 16.2 4.2 16.35 4.25 16.65 4.25 16.75 4.35 16.6 4.6 16.05 4.8 15.75 5.2 15.4 5.4 15.2 M2.0 22.45 L1.95 22.4 1.9 22.5 1.9 22.65 1.95 22.55 2.0 22.45 M2.3 19.85 Q2.15 19.6 2.0 19.6 L1.5 20.0 1.45 20.15 1.35 20.25 1.1 20.3 0.85 20.2 0.8 19.75 0.45 20.05 0.35 20.35 0.4 20.8 Q0.55 21.3 1.15 21.6 L1.2 21.55 1.25 21.4 1.75 21.05 1.8 21.1 1.8 21.15 1.75 21.15 1.65 21.25 1.5 21.45 Q1.5 21.75 1.95 21.9 L2.3 22.05 2.6 22.3 2.55 22.75 2.2 22.95 2.15 23.1 2.05 23.3 1.8 23.35 1.45 23.1 1.1 22.85 0.7 22.9 Q0.55 22.85 0.5 23.0 L0.5 23.05 0.45 23.15 0.45 23.3 0.55 23.4 0.6 23.4 0.55 23.45 0.55 23.5 0.4 23.45 0.35 23.2 Q0.3 23.0 0.4 22.8 L0.8 22.45 1.05 22.45 1.0 22.35 0.95 22.15 1.25 22.0 1.05 21.95 0.05 21.65 -0.3 21.65 -0.9 21.9 -1.0 21.95 -0.65 21.6 -0.45 21.5 -0.3 21.45 -0.25 21.45 0.2 21.4 0.55 21.45 0.2 20.8 Q0.1 20.45 0.3 20.0 L0.6 19.65 0.7 19.55 0.95 19.4 1.05 19.3 2.05 19.25 Q2.6 19.5 2.55 20.05 L2.45 20.3 2.25 20.45 2.2 20.5 2.2 20.45 2.25 20.3 2.3 20.25 2.3 19.85 M4.55 21.4 L4.6 21.25 4.6 21.15 4.5 21.25 4.55 21.4 M4.15 21.25 L4.1 21.4 4.2 21.25 4.2 21.15 4.15 21.25 M0.8 16.5 L0.8 16.55 0.8 16.5 M2.5 23.0 L2.65 23.1 2.7 23.15 2.6 23.45 2.45 23.6 2.2 23.55 2.2 23.3 2.3 23.2 2.5 23.0 M-2.55 23.75 L-2.55 23.7 -2.1 23.4 -2.0 23.4 -1.7 23.5 Q-1.6 23.6 -1.65 23.8 L-1.8 24.1 Q-2.3 24.6 -2.2 24.8 L-2.05 24.85 -2.0 24.9 -2.35 25.0 -2.45 24.75 -2.45 24.45 -2.45 24.35 -3.0 24.8 -3.4 25.1 -3.55 25.1 -3.4 24.9 -3.05 24.5 -3.05 24.2 -3.1 24.3 -3.1 24.35 -3.15 24.5 -3.25 24.5 Q-3.4 24.8 -3.75 24.65 L-3.85 24.6 -3.65 24.5 -3.6 24.5 -3.4 24.3 -2.55 23.75" fill="#c5bbda" fill-opacity="0.49803922" fill-rule="evenodd" stroke="none"/>
      <path d="M8.45 14.75 L8.35 14.1 8.4 13.55 7.35 14.1 6.85 14.3 6.75 14.8 Q6.75 16.0 7.35 18.45 L7.55 19.45 7.9 21.15 7.9 21.9 8.0 22.0 8.3 22.0 Q8.85 21.6 8.85 20.65 8.85 19.9 8.0 18.6 7.15 17.3 7.15 16.65 7.15 15.45 7.8 15.5 8.45 15.5 8.45 14.75 M9.35 12.9 L8.75 13.5 Q8.6 13.7 8.6 14.2 L8.75 15.3 8.45 15.85 7.7 15.95 Q7.55 15.95 7.5 16.05 L7.5 16.35 8.5 18.35 Q9.5 20.15 9.5 20.95 L9.25 22.15 Q8.9 22.8 8.4 22.8 L8.15 22.6 7.55 23.6 Q7.1 24.3 6.7 24.3 L6.4 24.05 5.7 25.0 Q5.1 25.5 4.45 25.5 3.85 25.5 3.85 24.7 3.7 25.65 1.65 25.65 L1.0 25.5 0.65 25.1 0.75 25.0 Q0.55 25.05 -0.3 25.6 L-1.35 25.75 -1.8 25.75 -2.0 25.35 -1.95 25.2 -3.95 25.75 -4.6 25.5 -4.8 25.1 -4.65 24.85 -4.65 24.75 -4.45 24.65 -4.45 24.6 -4.25 24.6 -4.25 24.55 -4.15 24.55 -3.7 25.1 -3.35 25.1 -2.25 24.9 -3.65 24.5 -3.65 24.4 -2.15 24.8 -2.15 24.55 -2.05 23.55 -1.9 23.55 -2.05 24.7 -0.85 23.45 -2.0 23.4 -1.9 23.25 -0.75 23.3 -0.6 23.1 -0.95 22.4 -0.8 22.4 -0.65 22.8 -0.55 23.0 -0.25 22.5 0.05 21.9 -0.65 21.9 -0.65 21.8 0.1 21.8 0.35 21.35 Q0.05 21.15 0.05 20.85 L0.05 20.75 0.15 20.75 0.4 21.25 0.85 20.15 0.7 20.15 0.35 20.15 0.9 20.0 0.9 19.85 1.1 18.9 Q0.8 18.65 0.85 18.45 L0.9 18.45 1.15 18.65 1.35 17.35 0.9 17.5 1.2 17.2 1.4 17.1 1.45 16.85 1.55 16.4 Q1.05 16.1 1.15 15.8 L1.25 15.8 1.6 16.25 1.9 15.2 1.55 15.3 1.4 15.3 Q1.5 15.05 2.0 15.05 L2.2 14.6 1.8 14.35 1.75 14.3 1.7 14.25 1.7 14.0 1.85 13.65 2.1 13.4 2.75 14.0 4.1 14.3 7.35 13.65 Q9.2 13.1 9.8 12.3 L9.35 12.9 M6.45 14.4 L5.85 14.6 6.45 15.05 6.45 14.4 M6.45 15.2 L5.85 14.75 5.7 16.0 6.45 15.35 6.45 15.2 M6.45 15.6 L5.7 16.25 6.65 16.8 6.45 15.6 M5.7 18.0 Q6.0 17.5 6.7 17.15 L6.7 17.0 5.7 16.45 5.65 17.15 5.7 18.0 M6.75 17.3 L5.8 18.05 7.15 18.7 7.1 18.55 6.75 17.3 M5.4 14.75 L4.5 14.9 4.35 16.75 4.25 19.1 4.35 20.95 4.2 22.95 4.05 24.3 4.1 24.45 4.55 24.5 Q5.55 24.5 6.05 23.9 L6.05 23.65 Q5.2 17.5 5.2 16.4 L5.4 14.75 M4.2 15.35 L4.25 14.95 4.0 14.95 3.6 14.95 3.95 15.2 4.2 15.35 M3.4 15.05 L3.25 15.45 3.0 16.15 2.95 16.4 4.15 15.8 4.15 15.65 3.7 15.3 3.4 15.05 M2.9 16.6 L2.85 16.65 Q3.35 16.85 4.05 17.55 L4.1 15.95 2.95 16.55 2.9 16.6 M4.05 17.7 L2.85 16.75 2.75 17.2 2.55 18.5 Q3.0 18.15 4.05 17.8 L4.05 17.7 M3.1 14.9 L2.5 14.7 1.8 17.1 1.4 19.05 1.4 19.1 1.15 20.0 -0.15 22.7 -0.5 23.3 -0.55 23.4 -0.5 23.45 -0.6 23.45 -1.2 24.35 -1.35 24.7 -1.05 24.95 -0.55 25.1 Q-0.1 25.1 0.7 24.55 L1.4 22.4 2.15 19.8 2.35 17.4 Q2.45 16.35 2.8 15.6 L3.1 14.9 M4.05 20.1 L2.2 21.05 3.2 21.6 4.05 22.1 4.1 20.95 4.05 20.1 M4.0 19.1 L4.05 17.9 2.55 18.6 4.05 19.75 4.0 19.1 M2.45 19.05 L2.35 20.1 2.25 20.8 4.05 20.0 2.5 18.8 2.45 19.05 M1.25 24.2 L1.25 24.15 Q1.2 24.75 1.4 24.9 L2.05 24.95 3.15 24.75 2.25 24.2 Q1.7 23.85 1.5 23.55 L1.4 23.75 1.25 24.2 M1.6 23.2 L4.05 22.35 2.8 21.6 2.15 21.2 1.85 22.2 1.8 22.5 1.6 23.2 M3.2 24.7 L3.8 24.3 4.05 22.45 3.15 22.8 1.55 23.4 3.2 24.7 M7.15 18.85 L5.75 18.25 6.0 19.9 6.35 19.5 7.15 18.85 M6.05 20.25 L7.55 20.75 7.2 18.95 6.0 20.15 6.05 20.25 M6.75 20.7 L6.05 20.45 6.35 22.2 7.55 20.95 7.55 20.9 6.75 20.7 M6.45 22.65 L6.6 23.45 6.8 23.45 7.25 22.9 6.45 22.65 M6.4 22.3 L6.45 22.5 7.35 22.75 7.4 22.55 7.65 21.7 7.6 21.05 6.4 22.3" fill="url(#gradient16)" fill-rule="evenodd" stroke="none"/>
      <path d="M24.25 24.8 L24.05 25.1 23.45 25.1 22.2 24.85 22.0 24.8 21.25 24.15 21.45 24.7 21.15 24.95 20.65 25.1 Q20.05 25.1 18.85 24.15 L18.7 24.9 18.05 24.95 Q16.9 24.95 16.1 24.1 L16.0 24.45 15.55 24.5 Q14.0 24.5 13.7 23.15 L13.7 23.45 13.3 23.45 12.7 22.55 12.45 21.6 12.1 22.0 11.8 22.0 Q11.25 21.6 11.25 20.65 11.25 19.9 12.1 18.6 12.95 17.3 12.95 16.65 12.95 15.45 12.3 15.5 11.65 15.5 11.65 14.75 L11.75 14.1 11.7 13.55 12.75 14.1 Q15.1 14.95 16.1 14.95 17.45 14.95 18.3 14.35 18.95 15.35 19.1 16.95 L19.6 19.55 Q20.0 20.65 21.15 22.2 L22.9 24.05 23.6 24.35 Q24.25 24.6 24.25 24.7 L24.25 24.8 M16.1 24.1 L16.15 24.0 16.05 24.0 16.1 24.1" fill="url(#gradient17)" fill-rule="evenodd" stroke="none"/>
      <path d="M16.1 24.1 Q16.9 24.95 18.05 24.95 L18.7 24.9 18.85 24.15 Q20.05 25.1 20.65 25.1 L21.15 24.95 21.45 24.7 21.25 24.15 22.0 24.8 22.2 24.85 23.45 25.1 24.05 25.1 24.25 24.8 24.5 24.65 Q24.6 24.65 24.75 24.8 L24.9 25.1 24.7 25.5 24.05 25.75 22.05 25.2 22.1 25.35 21.9 25.75 21.45 25.75 20.4 25.6 19.35 25.0 19.45 25.1 19.1 25.5 18.45 25.65 Q16.4 25.65 16.25 24.7 16.25 25.5 15.65 25.5 15.0 25.5 14.4 25.0 13.8 24.5 13.7 24.05 L13.4 24.3 Q13.0 24.3 12.55 23.6 L11.95 22.6 11.7 22.8 Q11.2 22.8 10.85 22.15 L10.6 20.95 Q10.6 20.15 11.6 18.35 L12.6 16.35 12.6 16.05 12.4 15.95 11.65 15.85 11.35 15.3 11.5 14.2 11.35 13.5 10.75 12.9 10.3 12.3 Q10.9 13.1 12.75 13.65 L16.0 14.3 17.35 14.0 18.0 13.4 18.25 13.65 18.4 14.0 18.4 14.25 18.35 14.3 18.3 14.35 Q17.45 14.95 16.1 14.95 15.1 14.95 12.75 14.1 L11.7 13.55 11.75 14.1 11.65 14.75 Q11.65 15.5 12.3 15.5 12.95 15.45 12.95 16.65 12.95 17.3 12.1 18.6 11.25 19.9 11.25 20.65 11.25 21.6 11.8 22.0 L12.1 22.0 12.45 21.6 12.7 22.55 13.3 23.45 13.7 23.45 13.7 23.15 Q14.0 24.5 15.55 24.5 L16.0 24.45 16.1 24.1" fill="url(#gradient18)" fill-rule="evenodd" stroke="none"/>
      <path d="M12.25 7.3 L14.25 7.75 Q15.65 8.15 16.0 8.7 18.15 10.4 18.35 11.65 17.05 10.8 16.75 10.8 13.4 12.5 11.55 12.5 L10.2 12.2 Q10.8 11.6 10.8 11.05 L10.65 10.3 11.3 10.75 Q11.7 11.05 12.0 11.05 13.2 11.05 13.2 9.45 L12.75 8.25 12.2 7.3 12.25 7.3" fill="url(#gradient19)" fill-rule="evenodd" stroke="none"/>
      <path d="M18.35 11.65 L18.4 11.95 Q18.4 12.8 18.0 13.4 L17.35 14.0 16.0 14.3 12.75 13.65 Q10.9 13.1 10.3 12.3 L10.2 12.2 11.55 12.5 Q13.4 12.5 16.75 10.8 17.05 10.8 18.35 11.65" fill="url(#gradient20)" fill-rule="evenodd" stroke="none"/>
      <path d="M20.4 21.45 L20.55 21.5 20.75 21.6 21.1 21.95 21.0 21.9 20.4 21.65 20.05 21.65 19.05 21.95 18.85 22.0 19.15 22.15 19.1 22.35 19.05 22.45 19.3 22.45 19.7 22.8 19.75 23.2 19.7 23.45 19.55 23.5 19.55 23.45 19.5 23.4 19.55 23.4 19.65 23.3 19.65 23.15 19.6 23.05 19.6 23.0 19.4 22.9 19.0 22.85 18.65 23.1 18.3 23.35 18.05 23.3 17.95 23.1 17.9 22.95 17.55 22.75 17.5 22.3 17.8 22.05 Q18.0 22.0 18.15 21.9 L18.6 21.45 18.45 21.25 18.35 21.15 18.3 21.15 18.3 21.1 18.35 21.05 18.85 21.4 18.9 21.55 18.95 21.6 19.7 20.8 19.75 20.35 19.65 20.05 19.3 19.75 19.25 20.2 19.0 20.3 18.75 20.25 18.65 20.15 18.6 20.0 18.1 19.6 17.8 19.85 Q17.65 20.0 17.8 20.25 L17.85 20.3 17.9 20.45 17.9 20.5 17.85 20.45 17.65 20.3 17.55 20.05 Q17.5 19.5 18.05 19.25 L19.05 19.3 19.15 19.4 19.4 19.55 19.5 19.65 19.8 20.0 19.9 20.8 19.55 21.45 19.9 21.4 20.35 21.45 20.4 21.45 M21.75 23.8 Q21.7 23.6 21.8 23.5 L22.1 23.4 22.2 23.4 22.65 23.7 22.65 23.75 23.5 24.3 23.7 24.5 23.75 24.5 23.95 24.6 23.85 24.65 23.35 24.5 23.25 24.5 23.2 24.35 23.2 24.3 23.15 24.2 23.15 24.5 23.5 24.9 23.65 25.1 23.5 25.1 23.1 24.8 22.55 24.35 22.55 24.45 22.55 24.75 22.45 25.0 22.1 24.9 22.15 24.85 22.3 24.8 Q22.4 24.6 21.9 24.1 L21.75 23.8 M16.65 16.15 L16.65 16.25 16.5 16.2 16.45 16.25 16.25 16.3 16.2 16.75 16.3 17.25 16.2 17.55 15.85 17.8 15.8 18.55 15.65 19.15 15.6 19.25 15.6 19.65 15.45 19.85 15.35 19.9 15.45 20.0 15.45 20.5 15.5 20.6 15.55 20.3 15.5 19.95 15.55 19.85 15.65 19.95 15.8 20.05 16.0 20.35 16.0 20.4 16.1 20.05 16.55 19.25 Q17.05 18.45 18.1 18.15 L18.0 17.95 17.8 17.85 Q17.6 17.6 17.7 17.3 L18.15 17.05 18.8 17.4 19.15 17.5 19.3 17.95 19.35 18.05 19.4 18.25 18.4 18.3 Q17.8 18.35 17.35 18.7 L16.95 18.95 16.5 19.7 Q16.15 20.2 16.15 20.6 L16.5 20.5 16.8 20.65 16.95 20.9 16.9 21.2 16.8 21.1 16.55 20.9 Q16.35 20.8 16.2 21.0 16.05 21.35 16.35 21.65 L16.7 22.05 16.75 22.5 16.4 22.8 16.2 22.8 15.7 22.8 15.65 22.8 15.45 22.75 15.3 22.6 15.2 22.65 14.9 22.15 Q14.7 21.6 15.05 21.35 L15.15 21.15 15.05 20.9 15.0 20.75 Q14.9 20.5 14.65 20.55 L14.55 20.7 14.45 20.75 14.4 20.7 14.4 20.35 14.85 20.3 15.1 20.35 15.3 20.45 15.15 19.75 Q14.95 19.2 14.55 18.9 L14.1 18.6 13.65 18.5 13.95 18.75 14.0 19.15 13.75 19.5 13.4 19.55 13.05 19.6 12.9 19.8 12.85 19.95 12.8 20.05 12.7 19.95 12.55 19.55 12.65 19.25 12.75 19.15 12.75 19.0 12.65 19.2 12.55 19.3 Q12.35 19.4 12.25 19.65 12.1 19.9 12.2 20.1 L12.4 20.55 12.75 20.85 13.25 21.0 13.5 20.9 13.6 20.65 13.65 21.0 13.45 21.15 Q12.95 21.35 12.4 20.75 12.05 20.5 11.95 19.95 11.9 19.5 12.15 18.95 L12.55 18.5 13.1 18.25 13.7 18.25 Q14.15 18.35 14.6 18.7 L15.25 19.6 15.35 19.85 15.35 19.8 15.5 18.65 15.5 17.9 15.35 17.95 15.05 17.9 14.8 17.5 14.75 17.3 14.65 17.05 14.45 16.9 14.35 16.85 14.25 16.85 Q14.3 16.6 14.55 16.65 L15.0 16.85 15.0 16.65 15.0 16.6 14.95 16.4 14.95 16.2 14.95 16.1 14.9 15.8 14.9 15.75 14.45 15.3 14.45 15.2 14.5 15.15 14.7 15.2 14.9 15.4 15.3 15.75 15.5 16.05 15.75 16.6 15.85 16.75 15.85 16.65 15.9 16.35 15.9 16.2 16.1 15.9 16.45 15.95 16.65 16.15 M15.5 21.25 L15.55 21.4 15.6 21.25 15.5 21.15 15.5 21.25 M15.95 21.25 L15.9 21.15 15.9 21.25 16.0 21.4 15.95 21.25 M17.45 23.1 Q17.5 23.0 17.6 23.0 L17.8 23.2 17.9 23.3 17.9 23.55 17.65 23.6 17.5 23.45 17.4 23.15 17.45 23.1 M18.15 22.55 L18.2 22.65 18.2 22.5 18.15 22.4 18.1 22.45 Q18.05 22.6 18.15 22.55" fill="#c5bbda" fill-opacity="0.49803922" fill-rule="evenodd" stroke="none"/>
      <path d="M20.75 21.9 L20.05 21.9 20.35 22.5 20.65 23.0 20.75 22.8 20.9 22.4 21.05 22.4 20.7 23.1 20.85 23.3 22.0 23.25 22.1 23.4 20.95 23.45 22.15 24.7 22.0 23.55 22.15 23.55 22.25 24.55 22.25 24.8 23.75 24.4 23.75 24.5 22.35 24.9 23.45 25.1 23.8 25.1 Q24.05 24.65 24.25 24.55 L24.35 24.55 24.35 24.6 24.55 24.6 24.55 24.65 24.75 24.75 24.75 24.85 24.9 25.1 24.7 25.5 24.05 25.75 22.05 25.2 22.1 25.35 21.9 25.75 21.45 25.75 20.4 25.6 19.35 25.0 19.45 25.1 19.1 25.5 18.45 25.65 Q16.4 25.65 16.25 24.7 16.25 25.5 15.65 25.5 15.0 25.5 14.4 25.0 13.8 24.5 13.7 24.05 L13.4 24.3 Q13.0 24.3 12.55 23.6 L11.95 22.6 11.7 22.8 Q11.2 22.8 10.85 22.15 L10.6 20.95 Q10.6 20.15 11.6 18.35 L12.6 16.35 12.6 16.05 12.4 15.95 11.65 15.85 11.35 15.3 11.5 14.2 11.35 13.5 10.75 12.9 10.3 12.3 Q10.9 13.1 12.75 13.65 L16.0 14.3 17.35 14.0 18.0 13.4 18.25 13.65 18.4 14.0 18.4 14.25 18.35 14.3 18.3 14.35 17.9 14.6 18.1 15.05 Q18.6 15.05 18.7 15.3 L18.55 15.3 18.2 15.2 18.5 16.25 18.85 15.8 18.95 15.8 Q19.05 16.1 18.55 16.4 L18.65 16.85 18.7 17.1 18.9 17.2 19.2 17.5 18.75 17.35 18.95 18.65 19.2 18.45 19.25 18.45 19.0 18.9 19.2 19.85 19.2 20.0 19.75 20.15 19.25 20.15 19.7 21.25 19.95 20.75 20.05 20.75 20.05 20.85 19.75 21.35 20.0 21.8 20.75 21.8 20.75 21.9 M21.3 24.35 L20.7 23.45 20.6 23.45 20.65 23.4 20.6 23.3 20.25 22.7 18.95 20.0 18.7 19.1 18.7 19.05 18.3 17.1 17.6 14.7 17.0 14.9 17.3 15.6 17.75 17.4 17.95 19.8 Q18.0 20.4 18.7 22.4 L19.4 24.55 Q20.2 25.1 20.65 25.1 L21.15 24.95 21.45 24.7 21.3 24.35 M14.25 14.75 L13.65 15.2 13.65 15.35 14.4 16.0 14.25 14.75 M14.25 14.6 L13.65 14.4 13.65 15.05 14.25 14.6 M15.75 16.75 L15.6 14.9 14.7 14.75 14.9 16.4 14.05 23.65 14.05 23.9 Q14.55 24.5 15.55 24.5 L16.0 24.45 16.05 24.3 15.9 22.95 15.75 20.95 15.85 19.1 15.75 16.75 M16.05 17.7 L16.05 17.8 Q17.1 18.15 17.55 18.5 L17.35 17.2 17.25 16.75 16.05 17.7 M17.25 16.65 L17.2 16.6 17.15 16.55 16.0 15.95 16.05 17.55 Q16.75 16.85 17.25 16.65 M16.85 15.45 L16.7 15.05 16.4 15.3 15.95 15.65 15.95 15.8 17.15 16.4 17.1 16.15 16.85 15.45 M15.85 14.95 L15.9 15.35 16.15 15.2 16.5 14.95 16.1 14.95 15.85 14.95 M12.75 14.1 L11.7 13.55 11.75 14.1 11.65 14.75 Q11.65 15.5 12.3 15.5 12.95 15.45 12.95 16.65 12.95 17.3 12.1 18.6 11.25 19.9 11.25 20.65 11.25 21.6 11.8 22.0 L12.1 22.0 12.2 21.9 12.2 21.15 12.55 19.45 12.75 18.45 Q13.35 16.0 13.35 14.8 L13.25 14.3 12.75 14.1 M12.95 18.85 L13.75 19.5 14.1 19.9 14.35 18.25 12.95 18.85 M14.05 20.25 L14.1 20.15 12.9 18.95 12.55 20.75 14.05 20.25 M14.05 20.45 L13.35 20.7 12.55 20.9 12.55 20.95 13.75 22.2 14.05 20.45 M14.4 18.0 L14.45 17.15 14.4 16.45 Q13.75 16.7 13.4 17.0 L13.4 17.15 Q14.1 17.5 14.4 18.0 M13.35 17.3 L13.0 18.55 12.95 18.7 14.3 18.05 13.35 17.3 M13.65 15.6 L13.45 16.8 14.4 16.25 13.65 15.6 M12.75 22.75 L13.65 22.5 13.7 22.3 12.5 21.05 12.45 21.7 12.7 22.55 12.75 22.75 M16.05 19.75 L17.55 18.6 16.05 17.9 16.1 19.1 16.05 19.75 M16.05 20.1 L16.0 20.95 16.05 22.1 16.9 21.6 17.9 21.05 16.05 20.1 M17.85 20.8 L17.75 20.1 17.65 19.05 17.6 18.8 16.05 20.0 17.85 20.8 M13.65 22.65 L12.85 22.9 13.3 23.45 13.5 23.45 13.65 22.65 M16.9 24.7 L18.55 23.4 16.95 22.8 16.05 22.45 16.3 24.3 16.9 24.7 M18.5 23.2 L18.3 22.5 18.25 22.2 17.95 21.2 17.3 21.6 16.05 22.35 Q17.25 22.65 18.5 23.2 M17.85 24.2 L16.95 24.75 18.05 24.95 18.7 24.9 18.85 24.2 18.7 23.75 18.6 23.55 17.85 24.2" fill="url(#gradient21)" fill-rule="evenodd" stroke="none"/>
      <path d="M11.2 11.45 L11.25 11.45 11.2 11.5 11.25 12.05 11.05 12.6 10.55 13.05 10.0 13.2 9.45 13.05 8.95 12.6 8.8 12.05 8.8 11.45 9.05 10.85 9.5 10.2 9.8 9.85 10.0 9.75 10.05 9.75 10.25 9.85 10.55 10.2 11.0 10.9 11.2 11.45" fill="url(#gradient22)" fill-rule="evenodd" stroke="none"/>
      <path d="M11.2 11.2 L11.25 11.2 11.2 11.25 11.25 11.8 11.05 12.35 10.55 12.8 10.0 12.95 9.45 12.8 8.95 12.35 8.8 11.8 8.8 11.2 9.05 10.6 9.5 9.95 9.8 9.6 10.0 9.45 10.05 9.45 10.25 9.6 10.55 9.95 11.0 10.65 11.2 11.2" fill="url(#gradient23)" fill-rule="evenodd" stroke="none"/>
      <path d="M9.15 10.75 L9.2 11.1 9.0 11.25 9.0 11.2 9.15 10.75" fill="#9d626c" fill-rule="evenodd" stroke="none"/>
      <path d="M9.55 10.2 L10.0 10.1 9.4 10.95 9.2 11.1 9.15 10.75 9.55 10.2" fill="#db7f92" fill-rule="evenodd" stroke="none"/>
      <path d="M10.15 9.9 L10.4 10.2 10.0 10.1 10.0 9.8 10.15 9.9" fill="#9d626c" fill-rule="evenodd" stroke="none"/>
      <path d="M10.0 9.8 L10.0 10.1 9.55 10.2 9.8 9.9 9.95 9.8 10.0 9.8" fill="#9d626c" fill-rule="evenodd" stroke="none"/>
      <path d="M10.8 10.75 L10.75 11.1 10.55 10.95 10.0 10.1 10.4 10.2 10.8 10.75" fill="#db7f92" fill-rule="evenodd" stroke="none"/>
      <path d="M10.75 11.1 L10.8 10.75 10.95 11.2 10.95 11.25 10.75 11.1" fill="#9d626c" fill-rule="evenodd" stroke="none"/>
      <path d="M11.0 11.7 L10.8 11.35 10.95 11.25 11.0 11.7" fill="#9d626c" fill-rule="evenodd" stroke="none"/>
      <path d="M8.95 11.75 L9.15 11.35 9.4 11.55 10.0 12.4 9.1 12.15 8.95 11.75" fill="#db7f92" fill-rule="evenodd" stroke="none"/>
      <path d="M10.0 12.4 L9.5 12.55 9.1 12.15 10.0 12.4" fill="#eb90a8" fill-rule="evenodd" stroke="none"/>
      <path d="M9.5 12.55 L10.0 12.4 10.0 12.65 9.5 12.55" fill="#90616a" fill-rule="evenodd" stroke="none"/>
      <path d="M10.0 12.4 L10.45 12.55 10.0 12.65 10.0 12.4" fill="#9d626c" fill-rule="evenodd" stroke="none"/>
      <path d="M10.85 12.15 L10.45 12.55 10.0 12.4 10.85 12.15" fill="#b16271" fill-rule="evenodd" stroke="none"/>
      <path d="M9.0 11.25 L9.15 11.35 8.95 11.75 9.0 11.25" fill="#9d626c" fill-rule="evenodd" stroke="none"/>
      <path d="M10.8 11.35 L11.0 11.7 10.85 12.15 10.0 12.4 10.55 11.55 10.8 11.35" fill="#db7f92" fill-rule="evenodd" stroke="none"/>
      <path d="M10.0 10.1 L10.0 10.6 9.4 10.95 10.0 10.1" fill="#b16271" fill-rule="evenodd" stroke="none"/>
      <path d="M10.0 12.4 L10.0 11.9 10.55 11.55 10.0 12.4" fill="#eb90a8" fill-rule="evenodd" stroke="none"/>
      <path d="M10.0 10.1 L10.55 10.95 10.0 10.6 10.0 10.1" fill="#eb90a8" fill-rule="evenodd" stroke="none"/>
      <path d="M10.0 11.9 L10.0 12.4 9.4 11.55 10.0 11.9" fill="#b16271" fill-rule="evenodd" stroke="none"/>
      <path d="M10.95 11.25 L11.0 11.25 10.95 11.25" fill="#effa5f" fill-rule="evenodd" stroke="none"/>
      <path d="M9.0 11.25 L8.95 11.25 9.0 11.25" fill="#effa5f" fill-rule="evenodd" stroke="none"/>
      <path d="M11.0 11.25 L10.95 11.25 11.0 11.25" fill="#effa5f" fill-rule="evenodd" stroke="none"/>
      <path d="M9.25 11.25 L9.15 11.35 9.0 11.25 9.25 11.25" fill="#9d626c" fill-rule="evenodd" stroke="none"/>
      <path d="M10.55 10.95 L10.75 11.1 10.75 11.25 10.55 10.95" fill="#db7f92" fill-rule="evenodd" stroke="none"/>
      <path d="M9.25 11.25 L9.0 11.25 9.2 11.1 9.25 11.25" fill="#9d626c" fill-rule="evenodd" stroke="none"/>
      <path d="M10.75 11.25 L10.95 11.25 10.8 11.35 10.75 11.25" fill="#9d626c" fill-rule="evenodd" stroke="none"/>
      <path d="M10.95 11.25 L10.75 11.25 10.75 11.1 10.95 11.25" fill="#9d626c" fill-rule="evenodd" stroke="none"/>
      <path d="M10.75 11.25 L10.8 11.35 10.55 11.55 10.75 11.25" fill="#db7f92" fill-rule="evenodd" stroke="none"/>
      <path d="M9.2 11.1 L9.4 10.95 9.25 11.25 9.4 11.55 9.15 11.35 9.25 11.25 9.2 11.1" fill="#db7f92" fill-rule="evenodd" stroke="none"/>
      <path d="M9.4 10.95 L10.0 10.6 10.55 10.95 10.75 11.25 10.55 11.55 10.0 11.9 9.4 11.55 9.25 11.25 9.4 10.95" fill="#f5b8c9" fill-rule="evenodd" stroke="none"/>
      <path d="M13.8 11.7 L13.35 11.85 12.55 12.05 13.05 11.45 13.7 11.7 13.8 11.7 M14.15 10.3 Q13.5 10.4 13.1 10.65 14.1 9.65 13.4 8.45 L12.55 7.45 Q14.75 8.25 15.85 9.55 L16.5 10.7 Q15.45 10.05 14.15 10.3 M13.9 11.4 Q12.9 11.3 13.75 10.8 L15.3 10.6 16.15 10.8 Q14.85 11.5 13.9 11.4 M11.5 11.2 L11.55 11.2 Q11.7 11.4 12.15 11.4 12.65 11.4 13.0 11.05 L12.1 12.05 11.5 11.2 M4.2 9.55 Q5.3 8.25 7.5 7.45 L6.65 8.45 Q5.95 9.65 6.95 10.65 6.55 10.4 5.9 10.3 4.6 10.05 3.55 10.7 3.65 10.2 4.2 9.55 M4.75 10.6 L6.3 10.8 Q7.15 11.3 6.15 11.4 5.2 11.5 3.9 10.8 L4.75 10.6 M6.25 11.7 L6.35 11.7 7.0 11.45 7.5 12.05 6.7 11.85 6.25 11.7 M8.5 11.2 L8.55 11.2 7.95 12.05 7.05 11.05 Q7.4 11.4 7.9 11.4 L8.5 11.2" fill="#6a4834" fill-rule="evenodd" stroke="none"/>
    </g>
    <linearGradient gradientTransform="matrix(0.0033, 0.0, 0.0, 0.0021, 9.95, 4.5)" gradientUnits="userSpaceOnUse" id="gradient0" spreadMethod="pad" x1="-819.2" x2="819.2">
      <stop offset="0.0" stop-color="#694733"/>
      <stop offset="0.21568627450980393" stop-color="#a9856f"/>
      <stop offset="0.5098039215686274" stop-color="#694733"/>
      <stop offset="0.8156862745098039" stop-color="#a9856f"/>
      <stop offset="1.0" stop-color="#694733"/>
    </linearGradient>
    <linearGradient gradientTransform="matrix(0.0033, 0.0, 0.0, 0.002, 9.95, 4.65)" gradientUnits="userSpaceOnUse" id="gradient1" spreadMethod="pad" x1="-819.2" x2="819.2">
      <stop offset="0.0" stop-color="#694733"/>
      <stop offset="0.21568627450980393" stop-color="#a9856f"/>
      <stop offset="0.5098039215686274" stop-color="#694733"/>
      <stop offset="0.8156862745098039" stop-color="#a9856f"/>
      <stop offset="1.0" stop-color="#694733"/>
    </linearGradient>
    <linearGradient gradientTransform="matrix(0.0033, 0.0, 0.0, 0.0023, 9.95, 4.6)" gradientUnits="userSpaceOnUse" id="gradient2" spreadMethod="pad" x1="-819.2" x2="819.2">
      <stop offset="0.0" stop-color="#694733"/>
      <stop offset="0.21568627450980393" stop-color="#a9856f"/>
      <stop offset="0.5098039215686274" stop-color="#694733"/>
      <stop offset="0.8156862745098039" stop-color="#a9856f"/>
      <stop offset="1.0" stop-color="#694733"/>
    </linearGradient>
    <linearGradient gradientTransform="matrix(0.0033, 0.0, 0.0, 0.0021, 9.95, 4.4)" gradientUnits="userSpaceOnUse" id="gradient3" spreadMethod="pad" x1="-819.2" x2="819.2">
      <stop offset="0.0" stop-color="#a6836d"/>
      <stop offset="0.25882352941176473" stop-color="#f3d3a2"/>
      <stop offset="0.396078431372549" stop-color="#b28e78"/>
      <stop offset="0.5411764705882353" stop-color="#a6836d"/>
      <stop offset="0.5568627450980392" stop-color="#e9dece"/>
      <stop offset="0.6666666666666666" stop-color="#f3d3a2"/>
      <stop offset="0.7529411764705882" stop-color="#a6836d"/>
      <stop offset="0.8588235294117647" stop-color="#f3d3a2"/>
      <stop offset="1.0" stop-color="#b28e78"/>
    </linearGradient>
    <linearGradient gradientTransform="matrix(0.005, 0.0, 0.0, 0.0032, 5.8, 10.15)" gradientUnits="userSpaceOnUse" id="gradient4" spreadMethod="pad" x1="-819.2" x2="819.2">
      <stop offset="0.0" stop-color="#694733"/>
      <stop offset="0.21568627450980393" stop-color="#a9856f"/>
      <stop offset="0.5098039215686274" stop-color="#694733"/>
      <stop offset="0.8156862745098039" stop-color="#a9856f"/>
      <stop offset="1.0" stop-color="#694733"/>
    </linearGradient>
    <linearGradient gradientTransform="matrix(0.0089, 0.0, 0.0, 0.0083, 2.5, 19.3)" gradientUnits="userSpaceOnUse" id="gradient5" spreadMethod="pad" x1="-819.2" x2="819.2">
      <stop offset="0.0" stop-color="#694733"/>
      <stop offset="0.21568627450980393" stop-color="#a9856f"/>
      <stop offset="0.5098039215686274" stop-color="#694733"/>
      <stop offset="0.8156862745098039" stop-color="#a9856f"/>
      <stop offset="1.0" stop-color="#694733"/>
    </linearGradient>
    <linearGradient gradientTransform="matrix(0.0049, -1.0E-4, 0.0, 0.0032, 6.0, 9.8)" gradientUnits="userSpaceOnUse" id="gradient6" spreadMethod="pad" x1="-819.2" x2="819.2">
      <stop offset="0.0" stop-color="#694733"/>
      <stop offset="0.21568627450980393" stop-color="#a9856f"/>
      <stop offset="0.5098039215686274" stop-color="#694733"/>
      <stop offset="0.8156862745098039" stop-color="#a9856f"/>
      <stop offset="1.0" stop-color="#694733"/>
    </linearGradient>
    <linearGradient gradientTransform="matrix(0.0089, -2.0E-4, 0.0, 0.0083, 2.75, 19.05)" gradientUnits="userSpaceOnUse" id="gradient7" spreadMethod="pad" x1="-819.2" x2="819.2">
      <stop offset="0.0" stop-color="#694733"/>
      <stop offset="0.21568627450980393" stop-color="#a9856f"/>
      <stop offset="0.5098039215686274" stop-color="#694733"/>
      <stop offset="0.8156862745098039" stop-color="#a9856f"/>
      <stop offset="1.0" stop-color="#694733"/>
    </linearGradient>
    <linearGradient gradientTransform="matrix(-0.0089, 0.0, 0.0, 0.0083, 17.6, 19.3)" gradientUnits="userSpaceOnUse" id="gradient8" spreadMethod="pad" x1="-819.2" x2="819.2">
      <stop offset="0.0" stop-color="#694733"/>
      <stop offset="0.21568627450980393" stop-color="#a9856f"/>
      <stop offset="0.5098039215686274" stop-color="#694733"/>
      <stop offset="0.8156862745098039" stop-color="#a9856f"/>
      <stop offset="1.0" stop-color="#694733"/>
    </linearGradient>
    <linearGradient gradientTransform="matrix(-0.0089, -2.0E-4, 0.0, 0.0083, 17.35, 19.05)" gradientUnits="userSpaceOnUse" id="gradient9" spreadMethod="pad" x1="-819.2" x2="819.2">
      <stop offset="0.0" stop-color="#694733"/>
      <stop offset="0.21568627450980393" stop-color="#a9856f"/>
      <stop offset="0.5098039215686274" stop-color="#694733"/>
      <stop offset="0.8156862745098039" stop-color="#a9856f"/>
      <stop offset="1.0" stop-color="#694733"/>
    </linearGradient>
    <linearGradient gradientTransform="matrix(-0.0049, -1.0E-4, 0.0, 0.0032, 14.1, 9.8)" gradientUnits="userSpaceOnUse" id="gradient10" spreadMethod="pad" x1="-819.2" x2="819.2">
      <stop offset="0.0" stop-color="#694733"/>
      <stop offset="0.21568627450980393" stop-color="#a9856f"/>
      <stop offset="0.5098039215686274" stop-color="#694733"/>
      <stop offset="0.8156862745098039" stop-color="#a9856f"/>
      <stop offset="1.0" stop-color="#694733"/>
    </linearGradient>
    <linearGradient gradientTransform="matrix(-0.005, 0.0, 0.0, 0.0032, 14.3, 10.15)" gradientUnits="userSpaceOnUse" id="gradient11" spreadMethod="pad" x1="-819.2" x2="819.2">
      <stop offset="0.0" stop-color="#694733"/>
      <stop offset="0.21568627450980393" stop-color="#a9856f"/>
      <stop offset="0.5098039215686274" stop-color="#694733"/>
      <stop offset="0.8156862745098039" stop-color="#a9856f"/>
      <stop offset="1.0" stop-color="#694733"/>
    </linearGradient>
    <linearGradient gradientTransform="matrix(0.0099, 0.0, 0.0, 0.0032, 2.4, 15.55)" gradientUnits="userSpaceOnUse" id="gradient12" spreadMethod="pad" x1="-819.2" x2="819.2">
      <stop offset="0.0" stop-color="#a6836d"/>
      <stop offset="0.25882352941176473" stop-color="#f3d3a2"/>
      <stop offset="0.396078431372549" stop-color="#b28e78"/>
      <stop offset="0.5411764705882353" stop-color="#a6836d"/>
      <stop offset="0.5568627450980392" stop-color="#e9dece"/>
      <stop offset="0.6666666666666666" stop-color="#f3d3a2"/>
      <stop offset="0.7529411764705882" stop-color="#a6836d"/>
      <stop offset="0.8588235294117647" stop-color="#f3d3a2"/>
      <stop offset="1.0" stop-color="#b28e78"/>
    </linearGradient>
    <linearGradient gradientTransform="matrix(0.0089, 0.0, 0.0, 0.0082, 2.5, 19.0)" gradientUnits="userSpaceOnUse" id="gradient13" spreadMethod="pad" x1="-819.2" x2="819.2">
      <stop offset="0.0" stop-color="#a6836d"/>
      <stop offset="0.25882352941176473" stop-color="#f3d3a2"/>
      <stop offset="0.396078431372549" stop-color="#b28e78"/>
      <stop offset="0.5411764705882353" stop-color="#a6836d"/>
      <stop offset="0.5568627450980392" stop-color="#e9dece"/>
      <stop offset="0.6666666666666666" stop-color="#f3d3a2"/>
      <stop offset="0.7529411764705882" stop-color="#a6836d"/>
      <stop offset="0.8588235294117647" stop-color="#f3d3a2"/>
      <stop offset="1.0" stop-color="#b28e78"/>
    </linearGradient>
    <radialGradient cx="0" cy="0" gradientTransform="matrix(0.0158, 0.0, 0.0, 0.0158, 2.35, 19.35)" gradientUnits="userSpaceOnUse" id="gradient14" r="819.2" spreadMethod="pad">
      <stop offset="0.0" stop-color="#a184be"/>
      <stop offset="1.0" stop-color="#6b61a6"/>
    </radialGradient>
    <linearGradient gradientTransform="matrix(0.005, 0.0, 0.0, 0.0021, 5.8, 12.55)" gradientUnits="userSpaceOnUse" id="gradient15" spreadMethod="pad" x1="-819.2" x2="819.2">
      <stop offset="0.0" stop-color="#694733"/>
      <stop offset="0.21568627450980393" stop-color="#a9856f"/>
      <stop offset="0.5098039215686274" stop-color="#694733"/>
      <stop offset="0.8156862745098039" stop-color="#a9856f"/>
      <stop offset="1.0" stop-color="#694733"/>
    </linearGradient>
    <linearGradient gradientTransform="matrix(0.0089, 0.0, 0.0, 0.0082, 2.5, 19.0)" gradientUnits="userSpaceOnUse" id="gradient16" spreadMethod="pad" x1="-819.2" x2="819.2">
      <stop offset="0.0" stop-color="#a6836d"/>
      <stop offset="0.25882352941176473" stop-color="#f3d3a2"/>
      <stop offset="0.396078431372549" stop-color="#b28e78"/>
      <stop offset="0.5411764705882353" stop-color="#a6836d"/>
      <stop offset="0.5568627450980392" stop-color="#e9dece"/>
      <stop offset="0.6666666666666666" stop-color="#f3d3a2"/>
      <stop offset="0.7529411764705882" stop-color="#a6836d"/>
      <stop offset="0.8588235294117647" stop-color="#f3d3a2"/>
      <stop offset="1.0" stop-color="#b28e78"/>
    </linearGradient>
    <radialGradient cx="0" cy="0" gradientTransform="matrix(-0.0158, 0.0, 0.0, 0.0158, 17.75, 19.35)" gradientUnits="userSpaceOnUse" id="gradient17" r="819.2" spreadMethod="pad">
      <stop offset="0.0" stop-color="#a184be"/>
      <stop offset="1.0" stop-color="#6b61a6"/>
    </radialGradient>
    <linearGradient gradientTransform="matrix(-0.0089, 0.0, 0.0, 0.0082, 17.6, 19.0)" gradientUnits="userSpaceOnUse" id="gradient18" spreadMethod="pad" x1="-819.2" x2="819.2">
      <stop offset="0.0" stop-color="#a6836d"/>
      <stop offset="0.25882352941176473" stop-color="#f3d3a2"/>
      <stop offset="0.396078431372549" stop-color="#b28e78"/>
      <stop offset="0.5411764705882353" stop-color="#a6836d"/>
      <stop offset="0.5568627450980392" stop-color="#e9dece"/>
      <stop offset="0.6666666666666666" stop-color="#f3d3a2"/>
      <stop offset="0.7529411764705882" stop-color="#a6836d"/>
      <stop offset="0.8588235294117647" stop-color="#f3d3a2"/>
      <stop offset="1.0" stop-color="#b28e78"/>
    </linearGradient>
    <linearGradient gradientTransform="matrix(-0.0099, 0.0, 0.0, 0.0032, 17.7, 15.55)" gradientUnits="userSpaceOnUse" id="gradient19" spreadMethod="pad" x1="-819.2" x2="819.2">
      <stop offset="0.0" stop-color="#a6836d"/>
      <stop offset="0.25882352941176473" stop-color="#f3d3a2"/>
      <stop offset="0.396078431372549" stop-color="#b28e78"/>
      <stop offset="0.5411764705882353" stop-color="#a6836d"/>
      <stop offset="0.5568627450980392" stop-color="#e9dece"/>
      <stop offset="0.6666666666666666" stop-color="#f3d3a2"/>
      <stop offset="0.7529411764705882" stop-color="#a6836d"/>
      <stop offset="0.8588235294117647" stop-color="#f3d3a2"/>
      <stop offset="1.0" stop-color="#b28e78"/>
    </linearGradient>
    <linearGradient gradientTransform="matrix(-0.005, 0.0, 0.0, 0.0021, 14.3, 12.55)" gradientUnits="userSpaceOnUse" id="gradient20" spreadMethod="pad" x1="-819.2" x2="819.2">
      <stop offset="0.0" stop-color="#694733"/>
      <stop offset="0.21568627450980393" stop-color="#a9856f"/>
      <stop offset="0.5098039215686274" stop-color="#694733"/>
      <stop offset="0.8156862745098039" stop-color="#a9856f"/>
      <stop offset="1.0" stop-color="#694733"/>
    </linearGradient>
    <linearGradient gradientTransform="matrix(-0.0089, 0.0, 0.0, 0.0082, 17.6, 19.0)" gradientUnits="userSpaceOnUse" id="gradient21" spreadMethod="pad" x1="-819.2" x2="819.2">
      <stop offset="0.0" stop-color="#a6836d"/>
      <stop offset="0.25882352941176473" stop-color="#f3d3a2"/>
      <stop offset="0.396078431372549" stop-color="#b28e78"/>
      <stop offset="0.5411764705882353" stop-color="#a6836d"/>
      <stop offset="0.5568627450980392" stop-color="#e9dece"/>
      <stop offset="0.6666666666666666" stop-color="#f3d3a2"/>
      <stop offset="0.7529411764705882" stop-color="#a6836d"/>
      <stop offset="0.8588235294117647" stop-color="#f3d3a2"/>
      <stop offset="1.0" stop-color="#b28e78"/>
    </linearGradient>
    <linearGradient gradientTransform="matrix(0.0024, -0.0018, 0.0013, 0.0017, 10.0, 11.45)" gradientUnits="userSpaceOnUse" id="gradient22" spreadMethod="pad" x1="-819.2" x2="819.2">
      <stop offset="0.0" stop-color="#694733"/>
      <stop offset="0.21568627450980393" stop-color="#a9856f"/>
      <stop offset="0.5098039215686274" stop-color="#694733"/>
      <stop offset="0.8156862745098039" stop-color="#a9856f"/>
      <stop offset="1.0" stop-color="#694733"/>
    </linearGradient>
    <linearGradient gradientTransform="matrix(0.0028, -0.0017, 0.0011, 0.0018, 10.0, 11.2)" gradientUnits="userSpaceOnUse" id="gradient23" spreadMethod="pad" x1="-819.2" x2="819.2">
      <stop offset="0.0" stop-color="#a6836d"/>
      <stop offset="0.25882352941176473" stop-color="#f3d3a2"/>
      <stop offset="0.396078431372549" stop-color="#b28e78"/>
      <stop offset="0.5411764705882353" stop-color="#a6836d"/>
      <stop offset="0.5568627450980392" stop-color="#e9dece"/>
      <stop offset="0.6666666666666666" stop-color="#f3d3a2"/>
      <stop offset="0.7529411764705882" stop-color="#a6836d"/>
      <stop offset="0.8588235294117647" stop-color="#f3d3a2"/>
      <stop offset="1.0" stop-color="#b28e78"/>
    </linearGradient>
  </defs>
</svg>
