<svg xmlns="http://www.w3.org/2000/svg" xmlns:ffdec="https://www.free-decompiler.com/flash" xmlns:xlink="http://www.w3.org/1999/xlink" ffdec:objectType="frame" width="20.8" height="24.85"><use ffdec:characterId="3" xlink:href="#a" width="20.8" height="24.85"/><defs><g id="a"><path fill="#fff8db" fill-rule="evenodd" d="M11.15 2.1q1.55-.2 3.1 1 1.5 1.7 3.6 8.95 1.9 6.35 1.95 7.8l.15.95.3.5.05.7q-.05.4.2.55l.3.3-.3 1.1q-.85 2.3-18.95-1.3-1-.25-1.4-.85-.25-.45-.1-.75l.3-.1-.15-.4q-.2-.4 0-.55l.45-.1.45-1.5.25-2.55q.15-1.1 2.35-6.6l2.45-5.9 3.75-.8z"/><path fill="#d3d69f" fill-rule="evenodd" d="M13.65 9.3q.3-.55-.2-2.45-.5-1.85-1-2.15L9.2 4.6l-2.95-.05q-.15-.15.05-.6l.35-.8 7-.55q.5.05 2.3 4.75l2 5.2 1.1 4q.8 3.5.65 4.2-.15.75-5.5-.05-5.45-.85-3.85-1.15 1.4-.2 3.5-2.25 2-2.05 1.8-2.9-.15-.65-2.25-1l-2.6-.35q-.35-.1 1.05-1.6zm-10 12.1L.3 20.75l-.2-.45.05-.2zm.3 1.65 8.25.75q6.8.3 8.3-.65l-.15.75q-.55 1.15-7.4.5-5.95-.5-9-1.35m16.2-1.45-.15.7-15.25-.7 9 .45z"/><path fill="#0a0a0a" fill-rule="evenodd" d="m.65 19.75.2-1.15L13.8 7l1-.65q1.05-.65 1.1-.5l.2.55q-2.8 1.55-9.15 7.25Q1.1 19 .8 19.75z"/><path fill="#281707" fill-rule="evenodd" d="m15.15 4.2.95 2q-2.25.95-8.4 6.35-6.25 5.4-7.05 7.2Q.2 19.2.9 16.9q.9-2.6 7.35-7.7z"/><path fill="#bcbcbc" fill-rule="evenodd" d="m2.05 16.25-.3.25-.3-.25q0-.3.3-.3z"/><path fill="#ebeced" fill-rule="evenodd" d="m1.55 16.2.1-.15.15.15-.1.1z"/><path fill="#bcbcbc" fill-rule="evenodd" d="m3.45 14.65-.3.3q-.3 0-.3-.3 0-.25.3-.25z"/><path fill="#ebeced" fill-rule="evenodd" d="m2.95 14.65.1-.15q.15 0 .15.1l-.1.15z"/><path fill="#bcbcbc" fill-rule="evenodd" d="m5 13.05-.35.25-.3-.25q0-.3.3-.3.35 0 .35.3"/><path fill="#ebeced" fill-rule="evenodd" d="M4.5 13q-.1-.1.1-.1l.1.1-.1.1z"/><path fill="#bcbcbc" fill-rule="evenodd" d="M5.45 14q0 .3-.35.3-.3 0-.3-.3l.3-.25z"/><path fill="#ebeced" fill-rule="evenodd" d="m4.95 14 .1-.15.1.1-.1.15z"/><path fill="#bcbcbc" fill-rule="evenodd" d="m7.15 12.6-.3.3q-.35 0-.35-.3t.35-.3z"/><path fill="#ebeced" fill-rule="evenodd" d="m6.65 12.55.1-.1.15.1-.15.1z"/><path fill="#bcbcbc" fill-rule="evenodd" d="m6.65 11.7-.3.3Q6 12 6 11.7q0-.25.35-.25z"/><path fill="#ebeced" fill-rule="evenodd" d="m6.15 11.7.1-.15.15.1-.15.15z"/><path fill="#bcbcbc" fill-rule="evenodd" d="m8.25 10.4-.3.25q-.3 0-.3-.25 0-.3.3-.3z"/><path fill="#ebeced" fill-rule="evenodd" d="m7.75 10.35.15-.15.1.15-.1.1z"/><path fill="#bcbcbc" fill-rule="evenodd" d="m8.8 11.15-.3.3q-.3 0-.3-.3 0-.25.3-.25z"/><path fill="#ebeced" fill-rule="evenodd" d="m8.3 11.15.1-.15.15.1-.1.15z"/><path fill="#bcbcbc" fill-rule="evenodd" d="m10.5 9.75-.35.3q-.3 0-.3-.3l.3-.25z"/><path fill="#ebeced" fill-rule="evenodd" d="m10 9.7.1-.1.1.1-.1.15z"/><path fill="#bcbcbc" fill-rule="evenodd" d="m10 9.05-.3.25q-.35 0-.35-.25 0-.3.35-.3z"/><path fill="#ebeced" fill-rule="evenodd" d="m9.5 9 .1-.1.1.1-.1.1z"/><path fill="#bcbcbc" fill-rule="evenodd" d="m11.75 7.7-.3.25q-.3 0-.3-.25 0-.3.3-.3z"/><path fill="#ebeced" fill-rule="evenodd" d="M11.25 7.65q0-.15.15-.15l.1.1-.1.15z"/><path fill="#bcbcbc" fill-rule="evenodd" d="m12.25 8.4-.3.25q-.3 0-.3-.25 0-.3.3-.3z"/><path fill="#ebeced" fill-rule="evenodd" d="m11.75 8.35.15-.15.1.15-.1.1z"/><path fill="#bcbcbc" fill-rule="evenodd" d="m13.95 7.1-.35.3q-.3 0-.3-.3 0-.25.3-.25z"/><path fill="#ebeced" fill-rule="evenodd" d="m13.45 7.1.1-.15.1.1-.1.15z"/><path fill="#bcbcbc" fill-rule="evenodd" d="m13.45 6.4-.35.25-.3-.25q0-.3.3-.3.35 0 .35.3"/><path fill="#ebeced" fill-rule="evenodd" d="m12.95 6.35.1-.15.1.15-.1.1z"/><path fill="#bcbcbc" fill-rule="evenodd" d="m15.25 5.1-.3.25q-.3 0-.3-.25 0-.3.3-.3z"/><path fill="#ebeced" fill-rule="evenodd" d="M14.75 5.05q0-.1.15-.1l.1.1-.1.1z"/><path fill="#bcbcbc" fill-rule="evenodd" d="m15.9 5.85-.3.25-.35-.25q0-.3.35-.3z"/><path fill="#ebeced" fill-rule="evenodd" d="m15.4 5.8.1-.15.15.1-.15.15z"/><path fill="#bcbcbc" fill-rule="evenodd" d="m2.15 17.25-.3.3q-.3 0-.3-.3l.3-.25z"/><path fill="#ebeced" fill-rule="evenodd" d="m1.65 17.25.1-.15.15.1-.1.15z"/><path fill="#bcbcbc" fill-rule="evenodd" d="m3.75 15.7-.3.25q-.3 0-.3-.25 0-.3.3-.3z"/><path fill="#ebeced" fill-rule="evenodd" d="M3.25 15.65q0-.15.15-.15l.1.15-.1.1z"/><path fill="#0f6182" fill-rule="evenodd" d="m7.75 3.25-1.9 5.6Q4.4 13.4 4.3 14.4H2.55l-1.1-.1Q2.2 11.75 4 7.4 5.75 3.3 6.1 3z"/><path fill="#183349" fill-rule="evenodd" d="m7.15 3.2.6.05-1.7 5.4Q4.5 13.5 4.3 14.4l-.75-.1q.1-1 1.7-5.75 1.5-4.6 1.9-5.35"/><path fill="#071016" fill-rule="evenodd" d="M7.65 3.25h-.1.2l-1.7 5.4Q4.5 13.45 4.3 14.4l-.15-.05q.1-1.05 1.6-5.75 1.5-4.6 1.9-5.35"/><path fill="#0f6182" fill-rule="evenodd" d="M12.85 3.25 14.5 3q.35.3 2.1 4.4l2.55 6.9-1.25.2-1.6-.1q-.1-1-1.55-5.55z"/><path fill="#183349" fill-rule="evenodd" d="m13.45 3.2 1.9 5.35 1.7 5.75-.75.1-1.7-5.75-1.75-5.4z"/><path fill="#071016" fill-rule="evenodd" d="m12.95 3.25 1.9 5.35q1.5 4.7 1.6 5.75l-.15.05-1.7-5.75-1.75-5.4z"/><path fill="#050505" fill-rule="evenodd" d="m5.15.15.2-.1L6.7.3l3.4.2 5.15-.45.25.2-5.2 1L6.6 1 5.25.6z"/><path fill="#281707" fill-rule="evenodd" d="M15.4.15q.5.2.6 1.45t-.25 1.7l-5.2.4-5.4-.35q-.6-.3-.6-1.6.05-1.3.6-1.6l6.3.5z"/><path fill="#050505" fill-rule="evenodd" d="M6.9 2.05q0 .7-.65.7t-.65-.7q0-.65.65-.65t.65.65M10.65 2.05q0 .7-.65.7t-.65-.7q0-.65.65-.65t.65.65M14.75 2.05q0 .7-.65.7-.7 0-.7-.7 0-.65.7-.65.65 0 .65.65"/><path fill="none" stroke="#bcbcbc" stroke-linecap="round" stroke-linejoin="round" d="M11.65 3.65H8.6V.5h3.05z"/><path fill="#ddd" fill-rule="evenodd" d="M8.6.5q0-.3.25-.05l.4.35-.05 2.3.55.2.1.35-.65.15-.6-.15z"/><path fill="#bcbcbc" fill-rule="evenodd" d="M9.65 2.45h-1.9v-.8h1.9z"/><path fill="none" stroke="#bcbcbc" stroke-linecap="round" stroke-linejoin="round" stroke-width=".5" d="M9.65 2.45h-1.9v-.8h1.9z"/><path fill="#ddd" fill-rule="evenodd" d="M7.65 1.75q0-.2.25-.25l1.8.05.1.35-2.15-.05z"/><path fill="#093947" fill-rule="evenodd" d="m4.35 6.65-.1 1.45q-.05.75.45 1.3l-.95-.35q.15.45.85 1.15-.4 0-1.4-.8z"/><path fill="#093947" fill-rule="evenodd" d="m3.65 12-.3.05q-.3.05-.45.25-.4.55.6 1.45-1.3 0-1.7-.5l.65-1.95.75-1.9.3-.3q-.3.55-.45 1.4-.05.55.6 1.5M16.25 6.65 17.4 9.4q-1 .8-1.4.8l.85-1.15q-.6.35-.95.35.5-.55.45-1.3z"/><path fill="#093947" fill-rule="evenodd" d="m17.4 9.4.75 1.9.65 1.95q-.4.5-1.7.5 1-.9.6-1.45l-.45-.25-.3-.05q.65-.95.6-1.5l-.45-1.4z"/></g></defs></svg>