<?xml version="1.0" encoding="UTF-8" standalone="no"?>
<svg xmlns:ffdec="https://www.free-decompiler.com/flash" xmlns:xlink="http://www.w3.org/1999/xlink" ffdec:objectType="frame" height="31.1px" width="25.65px" xmlns="http://www.w3.org/2000/svg">
  <g transform="matrix(1.0, 0.0, 0.0, 1.0, 0.8, -2.5)">
    <use ffdec:characterId="1" height="31.1" transform="matrix(1.0, 0.0, 0.0, 1.0, -0.8, 2.5)" width="25.65" xlink:href="#shape0"/>
  </g>
  <defs>
    <g id="shape0" transform="matrix(1.0, 0.0, 0.0, 1.0, 0.8, -2.5)">
      <path d="M13.65 3.9 Q15.15 6.6 15.65 8.15 L15.8 8.5 16.55 10.6 Q17.65 13.55 18.8 14.35 18.8 15.55 17.7 16.05 L10.5 15.75 10.25 15.75 9.7 15.75 9.4 15.75 2.2 16.05 Q1.1 15.55 1.1 14.35 2.25 13.55 3.35 10.6 L4.1 8.5 4.25 8.15 Q4.75 6.6 6.5 3.8 8.8 3.2 6.8 4.7 L10.25 8.7 13.1 4.7 Q12.4 3.45 13.65 3.9" fill="url(#gradient0)" fill-rule="evenodd" stroke="none"/>
      <path d="M8.65 3.05 L8.9 2.65 Q9.05 3.55 11.65 8.0 L11.3 8.45 Q9.5 5.4 8.65 3.05" fill="#878283" fill-rule="evenodd" stroke="none"/>
      <path d="M8.65 3.05 Q9.5 5.4 11.3 8.45 L9.9 10.45 9.7 10.85 7.85 7.55 Q6.4 4.9 6.6 3.75 L8.5 2.55 8.65 3.05" fill="url(#gradient1)" fill-rule="evenodd" stroke="none"/>
      <path d="M3.65 16.5 L2.95 16.5 Q5.45 13.8 8.5 8.7 11.55 3.6 11.7 2.6 L11.95 3.0 Q10.6 6.75 6.85 12.2 L3.65 16.5" fill="#878283" fill-rule="evenodd" stroke="none"/>
      <path d="M11.95 3.0 L12.1 2.5 13.75 4.0 Q13.85 6.6 11.35 10.6 8.85 14.6 6.7 16.9 L3.05 17.2 3.65 16.5 6.85 12.2 Q10.6 6.75 11.95 3.0" fill="url(#gradient2)" fill-rule="evenodd" stroke="none"/>
      <path d="M4.25 14.15 L9.4 14.45 11.5 14.2 14.7 13.95 17.25 14.15 18.8 14.4 Q18.8 15.55 17.7 16.05 L10.5 15.75 10.25 15.75 9.7 15.75 9.4 15.75 2.2 16.05 Q1.1 15.55 1.1 14.4 L1.35 14.4 4.25 14.15" fill="#000000" fill-opacity="0.49803922" fill-rule="evenodd" stroke="none"/>
      <path d="M-0.8 23.5 L-0.75 23.25 1.4 15.4 9.3 14.9 10.05 14.9 11.45 14.95 18.55 15.4 20.7 23.25 20.75 23.4 18.3 23.6 11.0 24.15 0.2 23.55 -0.8 23.5" fill="url(#gradient3)" fill-rule="evenodd" stroke="none"/>
      <path d="M20.75 23.4 Q20.9 23.95 20.35 24.15 L16.4 24.65 10.15 25.0 9.8 25.0 3.55 24.65 -0.4 24.15 Q-0.9 23.95 -0.8 23.5 L0.2 23.55 11.0 24.15 18.3 23.6 20.75 23.4" fill="url(#gradient4)" fill-rule="evenodd" stroke="none"/>
      <path d="M24.85 18.55 L24.85 18.6 24.85 18.55" fill="#8dc63f" fill-rule="evenodd" stroke="none"/>
      <path d="M18.4 21.95 L18.4 21.85 18.35 21.8 18.3 21.75 18.25 21.8 18.25 21.9 18.25 21.95 18.3 22.0 18.4 21.95 M19.45 21.8 L19.45 21.7 19.35 21.65 19.3 21.7 19.3 21.8 19.35 21.9 19.4 21.9 19.45 21.85 19.45 21.8 M15.95 21.95 L15.9 21.9 15.85 21.95 15.8 22.0 15.85 22.1 15.9 22.15 15.95 22.1 16.0 22.0 15.95 21.95 M17.05 21.95 L17.05 21.85 16.95 21.85 16.9 21.85 16.9 21.95 16.9 22.05 17.0 22.1 17.05 22.05 17.05 21.95 M17.7 21.05 L17.55 21.05 17.6 21.3 17.7 21.05 M16.9 21.65 L16.85 21.6 16.85 21.7 16.9 21.65 M16.85 20.9 L16.8 21.05 16.75 21.1 16.8 21.3 17.05 21.55 17.25 21.65 17.4 21.6 17.45 21.45 17.45 21.2 17.2 20.95 16.95 20.85 16.85 20.9 M16.4 21.2 L16.3 21.35 16.25 21.65 16.3 21.95 16.45 22.1 16.55 21.95 16.6 21.65 16.55 21.3 16.4 21.2 M15.25 21.45 L15.3 21.2 15.15 21.2 15.25 21.45 M15.4 21.3 L15.4 21.55 15.4 21.6 Q15.45 21.75 15.6 21.7 L15.8 21.65 16.0 21.45 16.05 21.2 16.05 21.15 16.05 21.05 15.95 20.95 15.8 20.95 15.6 21.0 15.4 21.3 M16.95 20.1 L16.95 20.05 16.4 19.8 16.4 19.95 16.35 19.95 16.3 19.8 15.75 20.15 16.35 20.45 16.35 20.3 16.4 20.25 16.4 20.45 16.45 20.45 16.95 20.1 M19.9 20.9 L20.0 21.15 20.05 20.85 19.9 20.9 M19.25 21.5 L19.3 21.5 19.25 21.45 19.25 21.5 M19.35 20.7 L19.15 20.85 19.15 20.95 19.2 21.15 19.45 21.4 19.65 21.45 19.85 21.3 19.8 21.0 19.55 20.75 19.35 20.7 M18.7 21.2 L18.65 21.5 18.75 21.8 18.85 21.95 18.95 21.8 19.0 21.45 18.9 21.15 18.8 21.05 18.7 21.2 M18.2 20.8 L18.0 20.85 17.8 21.15 17.8 21.45 18.0 21.6 18.2 21.5 18.4 21.3 18.45 21.05 18.45 21.0 18.4 20.9 18.2 20.8 M19.3 19.95 L19.3 19.9 Q18.95 19.85 18.7 19.65 L18.7 19.8 18.65 19.8 18.65 19.65 18.6 19.65 18.1 20.0 18.65 20.3 18.65 20.15 18.7 20.1 18.7 20.15 18.75 20.3 Q19.0 20.05 19.3 19.95 M13.55 22.2 L13.6 22.1 13.55 22.05 13.5 22.0 13.45 22.05 13.4 22.1 13.45 22.2 13.5 22.25 13.55 22.2 M14.45 21.8 L14.5 21.75 14.45 21.75 14.45 21.8 M14.65 22.15 L14.65 22.05 14.65 22.0 14.55 21.95 14.5 22.0 14.5 22.1 14.5 22.15 14.6 22.2 14.65 22.15 M11.0 22.15 L11.05 22.25 11.1 22.3 11.15 22.25 11.2 22.15 11.15 22.1 11.1 22.05 11.05 22.1 11.0 22.15 M12.1 22.05 L12.1 22.15 12.1 22.25 12.15 22.25 12.25 22.25 12.25 22.15 12.2 22.05 12.1 22.05 M12.05 21.85 L12.1 21.85 12.05 21.8 12.05 21.85 M12.0 21.3 L12.0 21.5 12.25 21.75 12.45 21.85 12.65 21.7 12.7 21.65 12.65 21.4 12.4 21.15 12.2 21.05 Q12.05 21.05 12.0 21.2 L12.0 21.3 M11.6 21.35 L11.5 21.5 11.45 21.8 11.5 22.15 11.65 22.25 11.75 22.15 11.8 21.8 11.75 21.5 11.6 21.35 M10.5 21.3 L10.35 21.3 10.45 21.6 10.5 21.3 M11.05 21.1 L10.85 21.15 10.6 21.45 10.6 21.7 10.6 21.75 10.8 21.85 11.0 21.8 11.2 21.6 11.25 21.35 11.25 21.25 11.05 21.1 M11.7 19.95 L11.65 19.95 11.65 20.15 11.6 20.1 11.6 19.95 11.55 19.95 11.05 20.3 11.6 20.6 11.6 20.45 11.65 20.45 11.65 20.6 11.7 20.6 Q11.95 20.4 12.25 20.3 L12.25 20.25 Q11.95 20.2 11.7 19.95 M14.4 21.2 L14.4 21.4 14.65 21.7 14.85 21.75 15.05 21.6 15.1 21.6 15.05 21.3 14.8 21.05 14.6 21.0 Q14.45 21.0 14.4 21.15 L14.4 21.2 M14.15 21.45 L14.0 21.3 13.9 21.45 13.85 21.75 13.9 22.1 14.05 22.2 14.15 22.05 14.2 21.75 14.15 21.45 M12.9 21.25 L12.75 21.25 12.85 21.55 12.9 21.25 M13.2 21.1 L13.0 21.4 13.0 21.65 13.0 21.7 13.2 21.8 13.4 21.75 13.6 21.55 13.65 21.3 13.65 21.25 13.65 21.15 13.45 21.05 13.2 21.1 M13.95 19.9 L13.95 20.05 13.9 20.05 13.9 19.9 13.35 20.25 13.9 20.55 13.95 20.55 13.95 20.35 14.0 20.4 14.0 20.55 14.55 20.2 14.0 19.9 13.95 19.9 M8.7 22.05 L8.6 22.1 8.6 22.2 8.6 22.25 8.7 22.3 8.75 22.25 8.75 22.2 8.75 22.1 8.7 22.05 M8.8 21.9 L8.8 21.85 8.75 21.9 8.8 21.9 M9.65 22.2 L9.7 22.25 9.75 22.3 9.8 22.25 9.85 22.2 9.8 22.1 9.75 22.05 9.7 22.1 9.65 22.2 M9.65 21.9 L9.7 21.9 9.65 21.85 9.65 21.9 M6.35 22.25 L6.35 22.15 6.35 22.05 6.3 22.05 6.2 22.05 6.2 22.15 6.2 22.25 6.25 22.25 6.35 22.25 M7.4 22.25 L7.45 22.15 7.4 22.1 7.35 22.05 7.3 22.1 7.25 22.15 7.3 22.25 7.35 22.3 7.4 22.25 M7.25 21.85 L7.25 21.9 7.3 21.85 7.25 21.85 M6.95 21.5 L6.85 21.35 6.7 21.5 6.65 21.8 6.7 22.15 6.8 22.25 6.95 22.15 7.0 21.8 6.95 21.5 M5.8 21.4 L5.8 21.65 5.8 21.7 6.0 21.85 6.2 21.75 6.4 21.6 6.5 21.35 6.5 21.3 6.45 21.2 6.4 21.1 6.25 21.05 6.05 21.15 5.8 21.4 M5.55 21.25 L5.65 21.55 5.7 21.25 5.55 21.25 M6.85 19.95 L6.8 19.95 Q6.55 20.2 6.25 20.25 L6.25 20.3 Q6.55 20.4 6.8 20.6 L6.8 20.45 6.85 20.45 6.85 20.6 6.9 20.6 7.45 20.3 6.9 19.95 6.9 20.1 6.85 20.15 6.85 19.95 M10.0 21.15 L9.8 21.1 Q9.65 21.1 9.6 21.25 L9.6 21.3 9.65 21.5 9.85 21.8 10.05 21.9 10.25 21.75 10.3 21.7 10.25 21.45 10.0 21.15 M9.2 21.4 L9.1 21.5 9.05 21.85 9.1 22.15 9.2 22.3 9.35 22.15 9.4 21.85 9.35 21.5 9.2 21.4 M8.85 21.25 L8.65 21.1 8.45 21.15 8.2 21.45 8.2 21.7 8.2 21.75 8.4 21.9 8.6 21.8 8.8 21.6 8.85 21.4 8.9 21.35 8.9 21.3 8.85 21.3 8.85 21.25 M7.85 21.45 L7.65 21.15 7.4 21.1 Q7.25 21.1 7.2 21.25 L7.2 21.3 7.25 21.5 7.45 21.8 7.65 21.85 7.85 21.75 7.85 21.7 7.9 21.7 7.85 21.45 M8.1 21.3 L7.95 21.3 8.05 21.6 8.1 21.3 M9.15 20.0 L9.1 20.0 8.55 20.3 9.1 20.65 9.15 20.65 9.15 20.45 9.2 20.5 9.2 20.65 Q9.45 20.4 9.75 20.3 L9.2 20.0 9.2 20.15 9.15 20.15 9.15 20.0 M3.85 21.95 L3.8 22.0 3.8 22.05 3.8 22.15 3.85 22.2 3.95 22.15 3.95 22.1 3.95 22.0 3.85 21.95 M4.0 21.75 L3.95 21.8 4.0 21.8 4.0 21.75 M4.95 22.25 L5.0 22.2 5.05 22.1 5.0 22.05 4.95 22.0 4.9 22.05 4.85 22.1 4.9 22.2 4.95 22.25 M4.85 21.75 L4.85 21.85 4.9 21.8 4.85 21.75 M0.05 21.8 L0.05 21.85 0.05 21.95 0.1 22.0 0.2 21.95 0.2 21.85 0.2 21.8 0.15 21.75 0.05 21.8 M1.55 21.85 L1.45 21.85 1.4 21.85 1.35 21.95 1.4 22.05 1.45 22.05 1.5 22.05 1.55 21.95 1.55 21.85 M2.45 21.7 L2.5 21.7 2.45 21.65 2.45 21.7 M2.45 22.0 L2.45 22.1 2.55 22.15 2.6 22.1 2.6 22.0 2.6 21.95 2.55 21.9 2.5 21.95 2.45 22.0 M2.15 21.35 L2.05 21.2 1.9 21.3 1.85 21.65 1.9 21.95 2.0 22.1 2.1 21.95 2.2 21.65 2.15 21.35 M1.6 21.65 L1.55 21.65 1.6 21.7 1.6 21.65 M0.8 21.05 L0.85 21.3 0.95 21.05 0.8 21.05 M1.0 21.45 L1.2 21.65 1.4 21.55 1.6 21.4 1.7 21.15 1.7 21.05 1.6 20.9 1.5 20.85 1.3 20.95 Q1.1 21.0 1.05 21.2 0.95 21.35 1.0 21.45 M0.05 21.5 L0.05 21.6 0.1 21.55 0.05 21.5 M0.45 20.85 L0.25 20.8 0.15 20.8 0.05 20.9 0.05 21.0 0.05 21.2 0.25 21.5 0.45 21.6 0.65 21.45 0.7 21.45 0.65 21.15 0.45 20.85 M1.5 20.05 L1.5 20.1 Q1.8 20.2 2.05 20.45 L2.1 20.3 2.1 20.25 2.15 20.3 2.15 20.45 2.7 20.15 2.2 19.8 2.15 19.8 2.15 19.95 2.1 19.95 2.1 19.8 1.5 20.05 M4.55 21.45 L4.45 21.3 4.3 21.45 4.25 21.75 4.3 22.05 4.4 22.2 4.5 22.1 4.6 21.75 4.55 21.45 M4.8 21.25 L4.85 21.45 5.05 21.75 5.25 21.8 5.4 21.8 5.45 21.7 5.5 21.65 5.45 21.4 5.25 21.1 5.05 21.05 4.85 21.15 4.8 21.25 M3.45 21.3 L3.4 21.6 3.6 21.75 3.8 21.7 4.0 21.5 4.1 21.3 4.1 21.15 3.9 21.0 3.65 21.05 3.45 21.3 M3.35 21.2 L3.2 21.2 3.25 21.45 3.35 21.2 M3.05 21.3 L2.85 21.0 2.65 20.95 2.45 21.05 2.4 21.15 2.45 21.35 2.65 21.65 2.85 21.7 Q3.0 21.75 3.05 21.6 L3.1 21.55 3.05 21.3 M4.45 20.05 L4.45 19.9 3.9 20.2 4.4 20.55 4.45 20.55 4.45 20.4 4.5 20.35 4.5 20.55 4.55 20.55 Q4.8 20.35 5.1 20.25 L4.55 19.9 4.5 19.9 4.5 20.05 4.45 20.05 M20.3 21.35 L20.35 21.6 20.2 21.5 20.05 21.35 20.0 21.2 20.0 21.35 19.9 21.55 19.7 21.65 19.55 21.65 19.6 21.75 19.55 22.0 19.4 22.1 19.3 22.05 19.2 21.95 19.05 22.2 18.9 22.3 18.7 22.2 18.55 22.0 18.45 22.15 18.35 22.2 18.15 22.1 18.1 21.9 18.1 21.75 18.0 21.75 17.8 21.7 17.65 21.55 17.65 21.4 17.6 21.55 17.5 21.7 17.3 21.8 17.2 21.8 17.2 21.95 17.15 22.15 17.0 22.3 16.9 22.25 16.8 22.15 16.65 22.35 16.45 22.45 16.3 22.35 16.1 22.15 16.05 22.3 15.9 22.35 15.75 22.25 15.7 22.05 15.7 21.9 15.6 21.9 15.4 21.85 15.25 21.65 15.25 21.55 15.2 21.65 15.1 21.85 14.9 21.95 14.75 21.9 14.8 22.05 14.75 22.3 14.6 22.4 14.45 22.35 14.4 22.25 14.25 22.45 14.05 22.55 13.85 22.5 13.7 22.25 13.65 22.4 13.5 22.45 13.35 22.35 13.25 22.1 13.3 22.0 13.2 22.0 13.0 21.95 12.85 21.75 12.85 21.6 12.8 21.75 12.7 21.95 12.5 22.0 12.35 22.0 12.4 22.15 12.35 22.4 12.15 22.45 12.05 22.45 11.95 22.3 11.85 22.55 11.65 22.6 11.45 22.55 11.3 22.3 11.2 22.45 11.1 22.5 10.95 22.4 10.85 22.2 10.9 22.05 10.8 22.05 10.6 22.0 10.45 21.8 10.45 21.65 10.4 21.8 10.3 22.0 10.05 22.05 9.95 22.05 10.0 22.2 9.9 22.4 9.75 22.5 9.65 22.45 9.55 22.35 9.4 22.55 9.2 22.65 9.05 22.55 8.9 22.35 8.8 22.45 8.7 22.5 8.5 22.4 8.45 22.2 8.5 22.05 8.4 22.05 8.2 22.0 8.05 21.8 8.05 21.65 8.0 21.8 7.85 22.0 7.65 22.05 7.55 22.05 7.6 22.2 7.5 22.4 7.35 22.5 7.25 22.45 7.15 22.35 7.0 22.55 6.8 22.6 6.6 22.55 6.45 22.3 6.4 22.45 6.25 22.45 6.1 22.35 6.05 22.15 6.05 22.0 6.0 22.0 5.8 21.95 5.65 21.75 5.65 21.6 5.6 21.75 5.45 21.95 5.25 22.0 5.15 22.0 5.15 22.1 5.1 22.35 4.95 22.45 4.8 22.4 4.75 22.25 4.6 22.5 4.4 22.55 4.2 22.45 4.05 22.25 4.0 22.35 3.85 22.4 3.7 22.3 3.65 22.05 3.65 21.95 3.6 21.95 3.4 21.85 3.25 21.65 3.25 21.55 3.2 21.65 3.05 21.85 2.85 21.9 2.75 21.9 2.75 22.0 2.7 22.25 2.5 22.35 2.4 22.3 2.3 22.15 2.15 22.35 1.95 22.45 1.8 22.35 1.65 22.1 1.55 22.25 1.45 22.25 1.3 22.15 1.25 21.95 1.25 21.8 1.2 21.8 1.0 21.7 0.85 21.55 0.85 21.4 0.8 21.55 0.65 21.7 0.45 21.75 0.35 21.75 0.35 21.9 0.25 22.1 0.1 22.2 0.0 22.15 -0.1 22.0 -0.25 22.2 -0.45 22.3 -0.55 22.25 -0.45 21.95 -0.4 21.95 -0.3 21.8 -0.2 21.5 -0.25 21.2 0.0 20.2 0.35 20.0 0.15 19.9 0.4 19.2 9.25 19.5 19.65 19.1 19.95 20.35 20.2 21.1 20.2 21.25 20.3 21.35" fill="url(#gradient5)" fill-rule="evenodd" stroke="none"/>
      <path d="M15.05 18.15 L15.05 17.95 14.45 18.3 15.0 18.7 15.05 18.7 15.05 18.5 15.1 18.5 15.1 18.7 15.15 18.7 Q15.4 18.45 15.75 18.35 L15.15 17.95 15.15 18.0 15.1 18.15 15.05 18.15 M13.75 17.2 L13.9 17.2 13.85 16.9 13.75 17.2 M13.2 16.65 L13.0 16.85 12.95 17.1 12.9 17.1 12.9 17.15 12.95 17.25 13.15 17.4 13.4 17.35 13.65 17.05 13.65 16.75 13.45 16.55 Q13.35 16.55 13.2 16.65 M13.2 16.15 L13.15 16.1 13.1 16.15 13.05 16.25 13.1 16.3 13.15 16.35 13.2 16.3 13.25 16.25 13.2 16.15 M14.7 16.65 L14.7 16.6 14.65 16.6 14.7 16.65 M14.25 16.6 L14.1 16.65 14.0 16.75 Q13.95 16.9 14.05 17.05 L14.25 17.35 14.5 17.45 14.7 17.3 14.75 17.2 14.7 17.0 14.45 16.7 14.25 16.6 M14.65 16.2 L14.6 16.15 14.55 16.15 14.5 16.25 14.55 16.35 14.6 16.4 14.65 16.35 14.7 16.25 14.65 16.2 M12.5 18.1 L12.5 17.9 12.45 17.9 11.85 18.25 Q12.2 18.35 12.45 18.6 L12.5 18.6 12.5 18.4 12.55 18.45 12.55 18.6 13.15 18.3 13.2 18.25 13.15 18.25 12.6 17.9 12.55 17.9 12.55 18.05 12.5 18.1 M11.15 17.15 L11.3 17.15 11.25 16.85 11.15 17.15 M10.6 16.6 L10.4 16.8 10.35 17.05 10.3 17.1 10.3 17.15 10.35 17.15 10.35 17.2 10.55 17.35 10.8 17.3 11.05 17.0 11.05 16.7 10.85 16.55 10.6 16.6 M10.4 16.55 L10.45 16.5 10.4 16.5 10.4 16.55 M10.45 16.1 L10.45 16.2 10.45 16.3 10.55 16.3 10.6 16.3 10.6 16.2 10.6 16.1 10.55 16.05 10.45 16.1 M12.05 16.55 L12.1 16.6 12.1 16.5 12.05 16.55 M12.45 16.25 L12.35 16.6 12.4 16.95 12.55 17.1 12.7 16.95 12.75 16.6 12.7 16.25 12.55 16.1 12.45 16.25 M11.65 16.55 L11.4 16.7 11.45 17.0 11.65 17.3 11.9 17.4 12.1 17.25 12.15 17.15 12.1 16.95 11.85 16.6 11.65 16.55 M12.1 16.2 L12.05 16.1 12.0 16.05 11.9 16.1 11.9 16.2 11.9 16.3 12.0 16.35 12.05 16.3 12.1 16.2 M18.65 16.8 L18.4 16.85 18.2 17.05 18.1 17.3 18.1 17.35 18.15 17.45 18.35 17.6 18.55 17.55 18.85 17.25 18.9 17.0 18.85 16.95 18.65 16.8 M18.3 16.35 L18.3 16.45 18.3 16.55 18.35 16.55 18.45 16.55 18.45 16.45 18.45 16.35 18.4 16.3 18.3 16.35 M16.5 17.3 L16.45 17.0 16.35 17.25 16.5 17.3 M17.65 18.3 L17.65 18.1 17.6 18.1 17.0 18.4 17.6 18.8 17.6 18.6 17.65 18.6 17.65 18.8 17.7 18.8 Q17.95 18.55 18.3 18.5 L18.3 18.45 17.75 18.1 17.7 18.1 17.7 18.25 17.65 18.3 M15.8 16.75 L15.6 16.9 15.5 17.15 15.5 17.25 15.55 17.3 15.6 17.45 15.75 17.5 16.0 17.4 16.25 17.15 16.3 16.85 16.25 16.85 16.25 16.8 16.2 16.7 16.05 16.65 15.8 16.75 M15.3 17.0 L15.35 16.65 15.3 16.3 15.2 16.15 15.05 16.3 14.95 16.65 15.0 17.0 15.15 17.15 15.3 17.0 M15.75 16.2 L15.7 16.2 15.65 16.3 15.7 16.4 15.75 16.45 15.8 16.4 15.85 16.3 15.85 16.2 15.75 16.2 M17.65 16.45 L17.6 16.75 17.6 17.1 17.75 17.25 17.9 17.15 17.95 16.8 17.9 16.45 17.8 16.3 17.65 16.45 M17.3 16.7 L17.25 16.7 17.3 16.75 17.3 16.7 M17.2 16.5 L17.25 16.45 17.3 16.4 17.3 16.3 17.2 16.25 17.15 16.3 17.1 16.35 17.15 16.45 17.2 16.5 M16.85 16.7 L16.6 16.85 16.65 17.15 16.85 17.45 17.1 17.55 17.3 17.4 17.35 17.3 17.3 17.1 17.1 16.8 16.85 16.7 M4.85 18.15 L4.8 18.15 4.75 18.0 4.75 17.95 4.15 18.35 Q4.5 18.45 4.75 18.7 L4.8 18.7 4.8 18.5 4.85 18.5 4.85 18.7 4.9 18.65 5.45 18.3 4.85 17.95 4.85 18.15 M3.35 17.3 L3.5 17.25 3.45 17.0 3.35 17.3 M2.8 16.8 L2.6 17.0 2.55 17.25 2.55 17.3 2.55 17.4 2.8 17.55 3.0 17.45 3.25 17.15 3.25 16.85 3.15 16.75 3.0 16.7 2.8 16.8 M2.75 16.3 L2.7 16.25 2.6 16.3 2.6 16.4 2.65 16.45 2.7 16.5 2.75 16.45 2.8 16.35 2.75 16.3 M4.9 16.65 L4.85 16.3 4.7 16.15 4.6 16.3 4.55 16.65 4.6 17.0 4.75 17.15 4.9 17.0 4.9 16.65 M4.3 17.0 L4.05 16.75 3.8 16.65 Q3.65 16.65 3.6 16.8 L3.6 16.85 3.65 17.15 3.9 17.4 4.1 17.5 4.35 17.3 4.35 17.25 4.3 17.0 M4.2 16.2 L4.15 16.2 4.05 16.2 4.05 16.3 4.1 16.4 4.15 16.45 4.2 16.4 4.25 16.3 4.2 16.2 M1.55 18.45 L1.55 18.5 2.15 18.8 2.2 18.8 2.2 18.6 2.25 18.6 2.25 18.8 Q2.5 18.55 2.85 18.4 L2.25 18.1 2.2 18.1 2.2 18.3 2.15 18.25 2.15 18.1 2.1 18.1 1.55 18.45 M1.0 16.95 L1.0 17.0 1.05 17.25 1.3 17.55 1.55 17.6 1.65 17.55 1.75 17.45 1.75 17.35 1.7 17.15 1.45 16.85 1.2 16.8 1.0 16.95 M2.1 16.3 L2.0 16.45 1.95 16.8 2.0 17.15 2.15 17.25 2.3 17.1 2.3 16.75 2.25 16.45 2.1 16.3 M1.6 16.75 L1.65 16.8 1.65 16.75 1.6 16.75 M1.6 16.55 L1.6 16.45 1.6 16.35 1.5 16.3 1.45 16.35 1.45 16.45 1.45 16.55 1.55 16.55 1.6 16.55 M9.35 18.2 L9.35 18.25 Q9.7 18.35 9.95 18.6 L10.0 18.55 10.0 18.4 10.05 18.4 10.05 18.6 Q10.35 18.35 10.65 18.25 L10.65 18.2 10.05 17.85 10.05 18.05 10.0 18.05 10.0 17.9 9.95 17.85 9.35 18.2 M8.55 17.15 L8.7 17.15 8.65 16.85 8.55 17.15 M8.0 16.6 L7.8 16.8 7.75 17.1 7.7 17.1 7.7 17.15 7.75 17.15 7.75 17.25 7.95 17.4 8.2 17.3 8.45 17.0 8.45 16.7 8.25 16.55 8.0 16.6 M7.8 16.5 L7.8 16.55 7.85 16.55 7.8 16.5 M8.0 16.1 L7.9 16.05 7.85 16.1 7.8 16.2 7.85 16.3 7.9 16.35 8.0 16.3 8.0 16.2 8.0 16.1 M9.5 16.55 L9.5 16.5 9.45 16.5 9.5 16.55 M9.25 16.6 L9.05 16.55 Q8.85 16.55 8.8 16.7 L8.85 17.0 9.1 17.3 9.3 17.35 9.55 17.2 9.55 17.15 9.5 16.9 9.25 16.6 M9.45 16.1 L9.35 16.05 9.3 16.1 9.25 16.2 9.3 16.3 9.35 16.3 9.45 16.3 9.45 16.2 9.45 16.1 M9.95 16.1 Q9.9 16.1 9.8 16.2 L9.75 16.55 9.8 16.9 9.95 17.05 10.1 16.9 10.15 16.55 10.1 16.2 9.95 16.1 M6.7 18.25 L6.65 18.25 6.7 18.3 7.3 18.6 7.3 18.45 7.35 18.4 7.35 18.6 7.4 18.6 Q7.65 18.35 8.0 18.25 L7.4 17.9 7.35 17.9 7.35 18.1 7.3 18.05 7.3 17.9 7.25 17.9 6.7 18.25 M5.95 17.2 L6.1 17.2 6.05 16.9 5.95 17.2 M5.6 16.6 L5.4 16.7 5.2 16.9 5.15 17.15 5.15 17.2 5.15 17.3 Q5.2 17.45 5.4 17.45 L5.6 17.35 5.85 17.05 5.85 16.75 Q5.8 16.6 5.6 16.6 M5.35 16.15 L5.25 16.15 5.2 16.25 5.25 16.35 5.3 16.4 5.35 16.35 5.4 16.25 5.35 16.15 M7.15 16.6 L7.2 16.95 7.35 17.05 7.5 16.95 7.55 16.6 7.45 16.25 7.35 16.1 7.2 16.25 7.15 16.6 M6.9 16.95 L6.65 16.65 6.4 16.55 6.2 16.75 6.25 17.05 6.5 17.35 6.7 17.4 6.95 17.25 6.95 17.15 6.9 16.95 M6.9 16.55 L6.85 16.55 6.9 16.6 6.9 16.55 M6.75 16.1 L6.7 16.15 6.65 16.25 6.7 16.3 6.75 16.35 6.8 16.3 6.85 16.2 6.8 16.15 6.75 16.1 M7.1 15.8 L7.3 15.7 7.55 15.8 7.7 16.05 7.8 15.9 7.9 15.85 8.1 15.95 8.15 16.2 8.15 16.35 8.25 16.35 8.45 16.4 8.6 16.6 8.65 16.75 8.65 16.6 8.8 16.4 9.05 16.35 9.15 16.35 9.1 16.2 9.2 15.95 Q9.25 15.85 9.35 15.85 L9.5 15.9 9.6 16.0 9.75 15.8 9.95 15.7 10.15 15.8 10.3 16.0 10.4 15.9 10.55 15.85 10.7 15.95 10.8 16.2 10.75 16.35 10.85 16.35 11.05 16.4 11.2 16.6 11.25 16.75 11.25 16.6 11.4 16.4 11.65 16.35 11.75 16.35 11.75 16.2 11.8 15.95 12.0 15.85 12.1 15.9 12.2 16.05 Q12.35 15.7 12.55 15.7 L12.8 15.8 12.95 16.05 13.0 15.95 13.15 15.9 13.35 16.0 13.4 16.25 13.35 16.4 13.45 16.4 13.7 16.45 13.8 16.65 13.85 16.8 13.85 16.65 14.0 16.45 14.25 16.4 14.35 16.4 14.35 16.25 14.45 16.0 Q14.5 15.9 14.6 15.9 L14.75 15.95 14.8 16.1 15.0 15.85 15.2 15.8 15.4 15.9 15.55 16.15 15.65 16.0 15.75 15.95 15.95 16.05 16.0 16.3 16.0 16.45 16.05 16.45 16.3 16.55 16.4 16.75 16.45 16.9 16.5 16.75 16.65 16.55 16.85 16.5 17.0 16.5 16.95 16.35 17.05 16.1 17.25 16.05 17.35 16.1 17.45 16.2 17.6 16.0 17.8 15.9 18.0 16.0 18.15 16.25 18.25 16.15 18.4 16.1 18.55 16.2 18.6 16.45 18.6 16.6 18.65 16.6 18.9 16.7 18.95 16.75 19.05 17.15 18.95 17.4 19.1 17.45 19.05 17.15 19.7 19.45 9.95 19.1 0.3 19.45 0.85 17.45 0.95 17.4 0.9 17.25 1.05 16.65 1.2 16.6 1.3 16.6 1.3 16.45 Q1.25 16.3 1.35 16.2 1.4 16.1 1.5 16.1 L1.65 16.15 1.75 16.25 1.9 16.0 Q1.95 15.9 2.1 15.9 L2.3 16.0 2.45 16.2 2.55 16.1 2.65 16.05 2.85 16.1 2.95 16.35 2.9 16.5 3.0 16.5 3.25 16.55 3.4 16.75 3.45 16.9 3.45 16.75 3.6 16.55 3.8 16.45 3.9 16.5 3.9 16.3 3.95 16.05 Q4.0 15.95 4.1 15.95 L4.25 16.0 4.35 16.15 4.5 15.9 4.7 15.8 4.9 15.9 5.1 16.1 5.15 15.95 5.3 15.9 5.45 16.0 5.55 16.25 5.55 16.4 5.6 16.4 5.85 16.45 6.0 16.65 6.05 16.8 6.05 16.65 6.2 16.45 6.4 16.4 6.55 16.4 6.5 16.25 6.55 16.0 6.75 15.9 6.85 15.95 6.95 16.05 7.1 15.8" fill="url(#gradient6)" fill-rule="evenodd" stroke="none"/>
      <path d="M0.3 19.2 L0.2 19.2 0.15 19.15 Q-0.05 18.65 0.45 18.35 10.1 19.15 19.55 18.25 19.95 18.7 19.8 19.1 L19.8 19.05 19.7 19.2 Q10.45 19.9 0.3 19.2" fill="url(#gradient7)" fill-rule="evenodd" stroke="none"/>
      <path d="M19.8 19.1 Q19.5 19.5 19.7 19.7 10.4 20.4 0.2 19.7 0.45 19.35 0.3 19.2 10.45 19.9 19.7 19.2 L19.8 19.05 19.8 19.1" fill="#000000" fill-opacity="0.49803922" fill-rule="evenodd" stroke="none"/>
      <path d="M17.8 26.85 L17.85 26.65 18.0 26.6 18.2 26.7 18.5 27.85 18.55 29.25 18.45 29.4 18.25 29.45 18.1 29.35 18.05 29.2 18.05 28.95 18.05 28.85 18.1 28.1 17.95 26.95 17.8 26.85" fill="url(#gradient8)" fill-rule="evenodd" stroke="none"/>
      <path d="M17.5 29.1 L17.5 29.05 17.55 28.9 17.6 28.1 17.55 27.9 17.6 27.8 17.6 27.7 17.55 27.4 17.55 27.2 17.5 27.0 17.6 26.85 17.75 26.8 17.8 26.85 17.95 26.95 18.1 28.1 18.05 28.85 18.05 28.95 17.95 29.5 17.85 29.65 17.65 29.7 17.5 29.55 17.45 29.4 17.5 29.1" fill="url(#gradient9)" fill-rule="evenodd" stroke="none"/>
      <path d="M17.5 29.1 L17.35 29.2 17.15 29.15 17.05 29.0 17.1 27.6 Q17.2 26.65 17.4 26.45 17.45 26.35 17.6 26.35 L17.75 26.4 17.85 26.6 17.8 26.75 17.75 26.8 17.6 26.85 17.5 27.0 17.55 27.2 17.55 27.4 17.6 27.7 17.6 27.8 17.55 27.9 17.55 28.9 17.5 29.05 17.5 29.1" fill="url(#gradient10)" fill-rule="evenodd" stroke="none"/>
      <path d="M15.6 32.8 L15.6 33.1 15.55 33.25 15.4 33.35 15.2 33.3 15.1 33.15 15.15 31.75 Q15.25 30.8 15.45 30.6 L15.65 30.5 15.8 30.55 15.85 30.75 15.7 30.85 Q15.55 31.05 15.55 32.0 L15.6 32.75 15.6 32.8" fill="url(#gradient11)" fill-rule="evenodd" stroke="none"/>
      <path d="M15.6 32.8 L15.6 32.75 15.55 32.0 Q15.55 31.05 15.7 30.85 L15.85 30.75 15.9 30.7 16.05 30.75 16.15 30.9 16.1 31.1 16.1 31.3 16.05 31.6 16.05 31.7 16.1 31.8 16.05 32.0 16.1 32.8 16.15 32.95 16.15 33.0 16.2 33.3 16.15 33.45 16.0 33.6 15.8 33.55 15.7 33.4 15.6 32.8" fill="url(#gradient12)" fill-rule="evenodd" stroke="none"/>
      <path d="M15.9 30.7 L15.85 30.65 15.8 30.5 15.9 30.3 16.05 30.25 16.25 30.35 16.55 31.5 16.6 32.9 16.5 33.05 16.3 33.1 16.15 33.0 16.15 32.95 16.1 32.8 16.1 31.8 16.05 31.7 16.05 31.6 16.1 31.3 16.1 31.1 16.15 30.9 16.05 30.75 15.9 30.7" fill="url(#gradient13)" fill-rule="evenodd" stroke="none"/>
      <path d="M14.5 23.55 L14.5 22.3 14.65 18.55 Q14.65 18.35 14.8 18.2 14.95 18.05 15.15 18.05 L15.5 18.2 15.65 18.6 15.5 22.35 15.5 23.2 15.3 23.35 14.5 23.55" fill="url(#gradient14)" fill-rule="evenodd" stroke="none"/>
      <path d="M14.5 23.55 L15.3 23.35 15.5 23.2 Q15.55 26.95 16.15 29.65 L16.1 30.05 15.75 30.25 15.4 30.2 15.15 29.85 Q14.6 27.2 14.5 23.55" fill="url(#gradient15)" fill-rule="evenodd" stroke="none"/>
      <path d="M17.0 20.45 L16.65 18.0 16.75 17.6 Q16.85 17.45 17.1 17.4 L17.45 17.5 17.65 17.85 18.1 20.9 17.4 20.7 17.2 20.35 17.0 20.45" fill="url(#gradient16)" fill-rule="evenodd" stroke="none"/>
      <path d="M17.0 20.45 L17.2 20.35 17.4 20.7 18.1 20.9 18.1 21.0 Q18.5 24.5 18.3 26.25 L18.1 26.6 17.75 26.7 17.4 26.5 17.3 26.15 Q17.5 24.5 17.1 21.1 L17.0 20.45" fill="url(#gradient17)" fill-rule="evenodd" stroke="none"/>
      <path d="M15.3 29.8 L15.2 30.05 15.3 30.3 15.6 30.4 15.85 30.3 16.0 30.05 15.85 29.8 15.6 29.7 15.3 29.8 M16.55 30.3 Q16.3 30.95 15.2 30.7 14.65 30.2 15.05 29.55 15.5 29.6 16.05 29.15 L16.45 29.45 Q16.75 29.8 16.55 30.3" fill="url(#gradient18)" fill-rule="evenodd" stroke="none"/>
      <path d="M15.3 29.8 L15.6 29.7 15.85 29.8 16.0 30.05 15.85 30.3 15.6 30.4 15.3 30.3 15.2 30.05 15.3 29.8" fill="#e2bf68" fill-rule="evenodd" stroke="none"/>
      <path d="M18.5 27.15 L17.1 27.1 Q16.7 26.5 17.3 25.95 L18.4 25.9 18.7 26.3 Q18.85 26.75 18.5 27.15 M17.85 26.95 L18.05 26.75 18.0 26.45 Q17.9 26.3 17.75 26.3 L17.5 26.3 17.3 26.5 Q17.25 26.65 17.35 26.8 L17.55 27.0 17.85 26.95" fill="url(#gradient19)" fill-rule="evenodd" stroke="none"/>
      <path d="M17.85 26.95 L17.55 27.0 17.35 26.8 Q17.25 26.65 17.3 26.5 L17.5 26.3 17.75 26.3 Q17.9 26.3 18.0 26.45 L18.05 26.75 17.85 26.95" fill="#e2bf68" fill-rule="evenodd" stroke="none"/>
      <path d="M20.3 17.9 L19.65 18.4 19.3 18.4 19.5 18.7 Q19.75 18.95 19.5 19.35 L18.9 20.0 18.1 20.3 Q17.65 20.3 17.45 19.9 L17.4 19.7 17.2 20.0 16.6 20.25 15.75 19.95 15.15 19.35 Q15.0 18.9 15.3 18.6 L15.55 18.35 15.25 18.3 Q14.9 18.3 14.8 17.8 L14.85 16.9 Q15.0 16.3 15.3 16.05 L16.05 15.9 16.4 16.1 16.3 15.8 Q16.25 15.35 16.7 15.1 L17.7 14.9 Q18.35 15.0 18.6 15.25 19.0 15.6 18.7 16.15 L18.6 16.3 Q18.85 16.15 19.05 16.05 L19.8 16.2 20.3 17.0 20.3 17.9 M17.35 17.8 L17.45 17.8 17.45 17.75 17.35 17.8" fill="url(#gradient20)" fill-rule="evenodd" stroke="none"/>
      <path d="M17.45 17.8 L17.4 17.8 17.45 17.8 M16.95 16.95 L16.9 16.8 Q16.85 16.55 17.05 16.4 L17.6 16.35 18.05 16.5 Q18.25 16.7 18.1 17.0 L18.05 17.05 18.25 16.9 18.65 17.0 18.9 17.4 18.85 17.85 18.55 18.1 18.35 18.1 18.5 18.25 18.5 18.6 18.2 18.95 17.8 19.1 17.45 18.85 17.45 18.75 17.35 18.9 17.0 19.05 16.6 18.9 16.3 18.6 Q16.2 18.35 16.35 18.2 L16.5 18.05 16.35 18.05 16.1 17.8 16.15 17.3 16.35 16.9 16.75 16.85 16.95 16.95" fill="url(#gradient21)" fill-rule="evenodd" stroke="none"/>
      <path d="M18.05 18.15 L18.1 18.15 18.1 18.3 18.0 18.3 17.95 18.2 17.6 17.95 18.0 18.2 18.05 18.15 M17.9 17.0 L17.95 17.0 18.05 17.05 18.0 17.15 17.9 17.15 17.85 17.1 17.85 17.05 17.9 17.0 M17.55 18.4 L17.6 18.35 17.65 18.4 17.65 18.45 17.6 18.5 17.55 18.5 17.5 18.45 17.55 18.4 M17.3 18.45 L17.3 18.35 17.35 18.35 17.45 18.0 17.4 18.35 17.45 18.4 17.4 18.45 17.3 18.45 M17.5 17.95 L17.6 17.95 17.75 18.35 17.8 18.35 17.85 18.45 17.8 18.5 17.7 18.5 17.7 18.4 17.6 18.05 17.6 18.35 17.5 17.95 M17.6 17.85 L17.6 17.8 17.65 17.8 18.05 17.95 18.1 17.9 18.15 17.95 18.15 18.0 18.1 18.05 18.05 18.05 18.0 17.95 17.6 17.85 M17.0 18.3 L17.05 18.2 17.15 18.2 17.35 17.95 17.15 18.25 17.15 18.3 17.0 18.3 M16.85 18.2 L16.9 18.1 16.95 18.15 17.3 17.9 17.35 17.9 17.35 17.95 16.95 18.2 16.85 18.2 M16.8 17.9 L16.8 17.95 17.25 17.8 17.25 17.85 16.85 17.95 16.8 18.0 16.75 17.95 16.8 17.9 M17.6 17.65 L17.6 17.6 17.85 17.15 17.9 17.15 17.6 17.65 M17.5 17.6 L17.45 17.55 17.6 17.05 17.5 17.55 17.5 17.6 M17.6 17.75 L17.65 17.7 18.1 17.65 18.1 17.55 18.15 17.5 18.25 17.55 18.25 17.65 18.2 17.7 18.1 17.7 17.65 17.75 17.6 17.75 M17.25 17.7 L17.25 17.75 16.9 17.55 16.85 17.6 16.8 17.55 16.8 17.45 16.9 17.45 16.95 17.5 16.95 17.55 17.25 17.7 M17.35 17.7 L17.3 17.7 17.05 17.4 16.95 17.35 16.95 17.3 17.0 17.25 17.05 17.3 17.05 17.35 17.35 17.65 17.35 17.7 M17.25 17.05 L17.3 17.05 17.3 17.1 17.3 17.15 17.4 17.6 17.4 17.65 17.35 17.6 17.2 17.15 17.2 17.1 17.25 17.05 M17.5 17.0 L17.55 16.95 17.6 16.9 17.7 16.95 17.65 17.05 17.6 17.05 17.55 17.05 17.5 17.0" fill="#fff8cb" fill-rule="evenodd" stroke="none"/>
      <path d="M15.6 16.25 L15.5 16.55 15.5 16.6 16.1 16.45 Q17.95 16.45 17.95 18.9 L17.5 19.95 17.45 19.9 17.4 19.7 17.2 20.0 16.6 20.25 15.75 19.95 15.15 19.35 Q15.0 18.9 15.3 18.6 L15.55 18.35 15.25 18.3 Q14.9 18.3 14.8 17.8 L14.85 16.9 Q15.0 16.3 15.3 16.05 L15.55 15.9 15.6 16.25" fill="#000000" fill-opacity="0.2" fill-rule="evenodd" stroke="none"/>
      <path d="M9.8 18.1 Q10.0 17.3 10.45 16.95 10.95 16.5 11.5 16.75 L11.95 17.0 11.85 16.6 Q11.75 15.95 12.4 15.6 L13.8 15.35 Q14.65 15.45 15.05 15.85 15.55 16.35 15.15 17.1 L15.05 17.3 Q15.35 17.05 15.65 16.95 16.2 16.7 16.7 17.15 L17.4 18.25 Q17.6 18.95 17.4 19.5 17.15 20.1 16.45 20.2 L16.0 20.2 16.3 20.6 Q16.6 21.0 16.3 21.55 L15.45 22.45 Q14.85 22.85 14.3 22.85 13.7 22.85 13.45 22.3 L13.35 22.0 13.1 22.4 Q12.85 22.8 12.25 22.75 L11.05 22.35 10.25 21.5 Q10.0 20.9 10.45 20.45 L10.8 20.15 10.4 20.1 Q9.9 20.05 9.75 19.4 9.6 18.8 9.8 18.1 M13.45 19.35 L13.4 19.3 13.25 19.4 13.4 19.4 13.45 19.35" fill="url(#gradient22)" fill-rule="evenodd" stroke="none"/>
      <path d="M13.45 19.35 L13.4 19.35 13.35 19.4 13.4 19.4 13.45 19.35 M12.7 18.2 L12.65 18.0 Q12.6 17.65 12.9 17.45 L13.6 17.35 Q14.05 17.4 14.25 17.6 14.5 17.85 14.3 18.25 L14.25 18.35 14.55 18.15 15.1 18.25 15.45 18.8 15.4 19.45 14.95 19.8 14.7 19.8 14.9 20.0 14.85 20.45 14.45 20.95 13.9 21.15 13.45 20.85 13.4 20.7 13.25 20.9 12.8 21.1 12.25 20.9 11.85 20.45 Q11.7 20.15 11.9 19.9 L12.1 19.75 11.9 19.75 11.55 19.4 11.6 18.7 11.9 18.15 12.45 18.05 12.7 18.2" fill="url(#gradient23)" fill-rule="evenodd" stroke="none"/>
      <path d="M13.55 19.6 L13.6 19.6 13.85 20.15 13.9 20.15 13.95 20.25 13.95 20.3 13.9 20.35 13.8 20.35 13.75 20.3 13.8 20.2 13.6 19.7 13.65 20.15 13.7 20.2 13.7 20.3 13.65 20.35 13.55 20.35 13.5 20.25 13.55 20.2 13.6 20.15 13.5 19.6 13.5 19.55 13.55 19.6 M13.4 19.6 L13.45 19.65 13.35 20.15 13.4 20.2 13.35 20.25 13.3 20.3 13.25 20.3 13.2 20.25 13.2 20.15 13.3 20.15 13.4 19.65 13.4 19.6 M12.85 19.95 L12.9 19.9 12.95 19.9 13.0 19.95 13.3 19.55 13.3 19.6 13.0 20.0 13.0 20.05 12.95 20.1 12.85 20.1 12.8 20.05 12.85 19.95 M13.2 19.5 L13.25 19.5 13.25 19.55 12.75 19.9 12.7 19.95 12.65 19.95 12.6 19.9 12.65 19.8 12.7 19.85 13.2 19.5 M13.15 19.4 L13.15 19.45 12.6 19.6 12.55 19.65 12.5 19.65 12.45 19.6 12.45 19.55 12.5 19.5 12.55 19.55 13.15 19.4 M12.7 18.95 L12.7 19.0 13.15 19.25 13.15 19.3 12.65 19.05 12.6 19.1 12.55 19.05 12.5 19.0 12.5 18.95 12.55 18.9 12.65 18.9 12.7 18.95 M12.8 18.6 L12.9 18.65 12.9 18.75 13.25 19.15 13.25 19.2 13.2 19.2 12.85 18.8 12.75 18.75 12.7 18.7 12.75 18.65 12.8 18.6 M14.2 20.05 L14.15 19.95 14.15 19.9 13.6 19.6 13.6 19.55 13.65 19.55 14.2 19.9 14.25 19.85 14.3 19.85 14.35 19.9 14.35 20.0 14.3 20.05 14.2 20.05 M14.25 19.55 L14.3 19.5 14.35 19.5 14.4 19.55 14.4 19.65 14.35 19.7 14.25 19.7 14.2 19.6 13.65 19.45 13.65 19.4 13.7 19.4 14.25 19.55 M14.3 19.05 L14.4 18.95 14.5 19.0 14.55 19.05 14.55 19.15 14.45 19.25 14.35 19.2 14.3 19.2 13.7 19.3 13.65 19.3 13.7 19.25 14.3 19.15 14.3 19.05 M14.0 18.3 L14.05 18.25 14.15 18.25 14.25 18.35 14.2 18.45 14.15 18.5 14.05 18.5 13.65 19.15 13.6 19.1 14.0 18.45 14.05 18.45 14.0 18.4 14.0 18.3 M13.75 18.2 L13.7 18.3 13.65 18.35 13.5 19.05 13.5 19.1 13.45 19.05 13.6 18.35 13.55 18.35 13.5 18.25 13.55 18.2 13.6 18.15 13.65 18.15 13.75 18.2 M13.1 18.45 L13.1 18.4 13.15 18.3 13.2 18.35 13.2 18.4 13.2 18.45 13.35 19.1 13.35 19.15 13.3 19.1 13.1 18.45" fill="#fff8cb" fill-rule="evenodd" stroke="none"/>
    </g>
    <radialGradient cx="0" cy="0" gradientTransform="matrix(0.0121, 0.0, 0.0, 0.0121, 9.95, 10.4)" gradientUnits="userSpaceOnUse" id="gradient0" r="819.2" spreadMethod="pad">
      <stop offset="0.0" stop-color="#a01727"/>
      <stop offset="1.0" stop-color="#66000e"/>
    </radialGradient>
    <linearGradient gradientTransform="matrix(0.004, 0.0054, -0.0041, 0.003, 8.15, 6.3)" gradientUnits="userSpaceOnUse" id="gradient1" spreadMethod="pad" x1="-819.2" x2="819.2">
      <stop offset="0.0" stop-color="#7f7c7d"/>
      <stop offset="0.6862745098039216" stop-color="#261f20"/>
    </linearGradient>
    <linearGradient gradientTransform="matrix(0.0067, 0.0, 0.0, 0.009, 8.5, 9.85)" gradientUnits="userSpaceOnUse" id="gradient2" spreadMethod="pad" x1="-819.2" x2="819.2">
      <stop offset="0.0" stop-color="#7f7c7d"/>
      <stop offset="0.592156862745098" stop-color="#261f20"/>
    </linearGradient>
    <radialGradient cx="0" cy="0" gradientTransform="matrix(0.014, 0.0, 0.0, 0.014, 10.0, 19.95)" gradientUnits="userSpaceOnUse" id="gradient3" r="819.2" spreadMethod="pad">
      <stop offset="0.0" stop-color="#4f4446"/>
      <stop offset="1.0" stop-color="#261f20"/>
    </radialGradient>
    <radialGradient cx="0" cy="0" gradientTransform="matrix(0.014, 0.0, 0.0, 0.014, 10.0, 19.95)" gradientUnits="userSpaceOnUse" id="gradient4" r="819.2" spreadMethod="pad">
      <stop offset="0.0" stop-color="#2c2829"/>
      <stop offset="1.0" stop-color="#151414"/>
    </radialGradient>
    <radialGradient cx="0" cy="0" gradientTransform="matrix(0.0129, 0.0, 0.0, 0.0129, 9.9, 20.85)" gradientUnits="userSpaceOnUse" id="gradient5" r="819.2" spreadMethod="pad">
      <stop offset="0.0" stop-color="#cdcdcd"/>
      <stop offset="1.0" stop-color="#777777"/>
    </radialGradient>
    <radialGradient cx="0" cy="0" gradientTransform="matrix(0.027, 0.0, 0.0, 0.027, 9.95, 18.25)" gradientUnits="userSpaceOnUse" id="gradient6" r="819.2" spreadMethod="pad">
      <stop offset="0.0" stop-color="#b8b8b8"/>
      <stop offset="0.7764705882352941" stop-color="#777777"/>
    </radialGradient>
    <radialGradient cx="0" cy="0" gradientTransform="matrix(0.0119, 0.0, 0.0, 0.0119, 9.9, 18.85)" gradientUnits="userSpaceOnUse" id="gradient7" r="819.2" spreadMethod="pad">
      <stop offset="0.00392156862745098" stop-color="#a01727"/>
      <stop offset="1.0" stop-color="#38090e"/>
    </radialGradient>
    <radialGradient cx="0" cy="0" gradientTransform="matrix(-0.0019, 0.0, 0.0, 0.0019, 18.15, 28.0)" gradientUnits="userSpaceOnUse" id="gradient8" r="819.2" spreadMethod="pad">
      <stop offset="0.0" stop-color="#991625"/>
      <stop offset="1.0" stop-color="#3a090e"/>
    </radialGradient>
    <radialGradient cx="0" cy="0" gradientTransform="matrix(-0.0019, -2.0E-4, -2.0E-4, 0.0019, 17.7, 28.2)" gradientUnits="userSpaceOnUse" id="gradient9" r="819.2" spreadMethod="pad">
      <stop offset="0.0" stop-color="#991625"/>
      <stop offset="1.0" stop-color="#3a090e"/>
    </radialGradient>
    <radialGradient cx="0" cy="0" gradientTransform="matrix(0.0019, 0.0, 0.0, 0.0019, 17.45, 27.75)" gradientUnits="userSpaceOnUse" id="gradient10" r="819.2" spreadMethod="pad">
      <stop offset="0.0" stop-color="#991625"/>
      <stop offset="1.0" stop-color="#3a090e"/>
    </radialGradient>
    <radialGradient cx="0" cy="0" gradientTransform="matrix(0.0019, 0.0, 0.0, 0.0019, 15.5, 31.9)" gradientUnits="userSpaceOnUse" id="gradient11" r="819.2" spreadMethod="pad">
      <stop offset="0.0" stop-color="#991625"/>
      <stop offset="1.0" stop-color="#3a090e"/>
    </radialGradient>
    <radialGradient cx="0" cy="0" gradientTransform="matrix(0.0019, -2.0E-4, 2.0E-4, 0.0019, 15.95, 32.1)" gradientUnits="userSpaceOnUse" id="gradient12" r="819.2" spreadMethod="pad">
      <stop offset="0.0" stop-color="#991625"/>
      <stop offset="1.0" stop-color="#3a090e"/>
    </radialGradient>
    <radialGradient cx="0" cy="0" gradientTransform="matrix(-0.0019, 0.0, 0.0, 0.0019, 16.2, 31.65)" gradientUnits="userSpaceOnUse" id="gradient13" r="819.2" spreadMethod="pad">
      <stop offset="0.0" stop-color="#991625"/>
      <stop offset="1.0" stop-color="#3a090e"/>
    </radialGradient>
    <radialGradient cx="0" cy="0" gradientTransform="matrix(0.0076, 0.0, 0.0, 0.0076, 15.35, 24.15)" gradientUnits="userSpaceOnUse" id="gradient14" r="819.2" spreadMethod="pad">
      <stop offset="0.0" stop-color="#621820"/>
      <stop offset="1.0" stop-color="#3a090e"/>
    </radialGradient>
    <radialGradient cx="0" cy="0" gradientTransform="matrix(0.0076, 0.0, 0.0, 0.0076, 15.35, 24.15)" gradientUnits="userSpaceOnUse" id="gradient15" r="819.2" spreadMethod="pad">
      <stop offset="0.0" stop-color="#991625"/>
      <stop offset="1.0" stop-color="#3a090e"/>
    </radialGradient>
    <radialGradient cx="0" cy="0" gradientTransform="matrix(0.0059, 0.0, 0.0, 0.0059, 17.5, 22.05)" gradientUnits="userSpaceOnUse" id="gradient16" r="819.2" spreadMethod="pad">
      <stop offset="0.0" stop-color="#511118"/>
      <stop offset="1.0" stop-color="#3a090e"/>
    </radialGradient>
    <radialGradient cx="0" cy="0" gradientTransform="matrix(0.0059, 0.0, 0.0, 0.0059, 17.5, 22.05)" gradientUnits="userSpaceOnUse" id="gradient17" r="819.2" spreadMethod="pad">
      <stop offset="0.0" stop-color="#991625"/>
      <stop offset="1.0" stop-color="#3a090e"/>
    </radialGradient>
    <radialGradient cx="0" cy="0" gradientTransform="matrix(0.0016, 0.0, 0.0, 0.0016, 15.5, 29.95)" gradientUnits="userSpaceOnUse" id="gradient18" r="819.2" spreadMethod="pad">
      <stop offset="0.0" stop-color="#e0ad4c"/>
      <stop offset="1.0" stop-color="#8a4900"/>
    </radialGradient>
    <radialGradient cx="0" cy="0" gradientTransform="matrix(0.0015, 5.0E-4, -5.0E-4, 0.0015, 17.6, 26.5)" gradientUnits="userSpaceOnUse" id="gradient19" r="819.2" spreadMethod="pad">
      <stop offset="0.0" stop-color="#e0ad4c"/>
      <stop offset="1.0" stop-color="#8a4900"/>
    </radialGradient>
    <radialGradient cx="0" cy="0" gradientTransform="matrix(0.004, 0.0, 0.0, 0.004, 17.6, 17.6)" gradientUnits="userSpaceOnUse" id="gradient20" r="819.2" spreadMethod="pad">
      <stop offset="0.0" stop-color="#ffffff"/>
      <stop offset="1.0" stop-color="#f5cdd1"/>
    </radialGradient>
    <radialGradient cx="0" cy="0" gradientTransform="matrix(0.0017, 0.0, 0.0, -0.0017, 17.5, 17.7)" gradientUnits="userSpaceOnUse" id="gradient21" r="819.2" spreadMethod="pad">
      <stop offset="0.0" stop-color="#fb969b"/>
      <stop offset="0.6235294117647059" stop-color="#feb5b1"/>
      <stop offset="1.0" stop-color="#ffc3bb"/>
    </radialGradient>
    <radialGradient cx="0" cy="0" gradientTransform="matrix(0.0055, 0.0, 0.0, 0.0055, 13.6, 19.1)" gradientUnits="userSpaceOnUse" id="gradient22" r="819.2" spreadMethod="pad">
      <stop offset="0.0" stop-color="#ffffff"/>
      <stop offset="1.0" stop-color="#f5cdd1"/>
    </radialGradient>
    <radialGradient cx="0" cy="0" gradientTransform="matrix(0.0023, 0.0, 0.0, -0.0023, 13.5, 19.25)" gradientUnits="userSpaceOnUse" id="gradient23" r="819.2" spreadMethod="pad">
      <stop offset="0.0" stop-color="#fb969b"/>
      <stop offset="0.6235294117647059" stop-color="#feb5b1"/>
      <stop offset="1.0" stop-color="#ffc3bb"/>
    </radialGradient>
  </defs>
</svg>
