<svg xmlns="http://www.w3.org/2000/svg" xmlns:ffdec="https://www.free-decompiler.com/flash" xmlns:xlink="http://www.w3.org/1999/xlink" ffdec:objectType="frame" width="9.6" height="12.6"><use ffdec:characterId="1" xlink:href="#a" width="9.6" height="12.6"/><defs><g id="a" fill-rule="evenodd"><path fill="#e5e5e5" d="m1.5 2.25-.05-.1v.15zm.35-2.2L2.2 0h.15l1.5.35 1.1 1 2.4 3.4.15-.05.65-.15.05.15.25.9.1.5 1 3.8.05.3q-2.1 1.25-4.9 2l-1.55.4-.6-.1-.8-1.8-1-2.3v-.05L.7 8.2.2 7.05l.45-.2.8-.3.15-.1-.45-1.2L.5 3.2l-.05-.05-.4-.95L0 1.9Q0 1.25.75.6q.5-.45 1.1-.55"/><path fill="#069" d="m2.25 6.35 2.7-.85 2.4-.75.15-.05.65-.15.05.15.25.9q-.35.25-2.5.9l-3.6 1.15L.7 8.2.2 7.05l.45-.2z"/><path fill-opacity=".2" d="m7.4 8.8-.15.15.35.25.1-.05zm.45-.8.25.15.25.4v.3l.1.05v.35q-.75.6-1.1.65-.4.05-.6-.3l-.25-.7.1-.35.35-.4L7 8.1q.3-.3.75-.15L7.8 8z"/><path fill="#069" d="M6.75 9.05q0-.35.25-.6.3-.25.65-.25.4 0 .65.25l.25.6-.25.6-.65.25L7 9.65z"/><path fill-opacity=".2" d="m3 3.3.75 1.4 2.05-.15q-2.55.7-2.6.85l.3.05 2-.1-.25.05-1.65.65q-.4 1.1-.2 2.45t1 2.95l1.9-.1L9.55 9.9l.05.3q-2.1 1.25-4.9 2l-1.55.4-.6-.1-.8-1.8-1-2.3v-.05L.7 8.2.2 7.05l.45-.2.8-.3.15-.1-.45-1.2L.5 3.2l-.05-.05-.4-.95L0 1.9Q0 1.25.75.6q.5-.45 1.1-.55L2.2 0q.1 1.6.8 3.3"/></g></defs></svg>