<svg xmlns="http://www.w3.org/2000/svg" xmlns:ffdec="https://www.free-decompiler.com/flash" xmlns:xlink="http://www.w3.org/1999/xlink" ffdec:objectType="frame" width="12.65" height="12.6"><use ffdec:characterId="3" xlink:href="#a" width="12.65" height="12.6"/><defs><linearGradient id="b" x1="-819.2" x2="819.2" gradientTransform="matrix(-.0033 .0003 0 .0004 2.7 5.1)" gradientUnits="userSpaceOnUse" spreadMethod="pad"><stop offset="0" stop-color="#694733"/><stop offset=".216" stop-color="#a9856f"/><stop offset=".51" stop-color="#694733"/><stop offset=".816" stop-color="#a9856f"/><stop offset="1" stop-color="#694733"/></linearGradient><linearGradient id="c" x1="-819.2" x2="819.2" gradientTransform="matrix(-.0032 .0003 0 .0004 2.75 4.9)" gradientUnits="userSpaceOnUse" spreadMethod="pad"><stop offset="0" stop-color="#a6836d"/><stop offset=".259" stop-color="#f3d3a2"/><stop offset=".396" stop-color="#b28e78"/><stop offset=".541" stop-color="#a6836d"/><stop offset=".557" stop-color="#e9dece"/><stop offset=".667" stop-color="#f3d3a2"/><stop offset=".753" stop-color="#a6836d"/><stop offset=".859" stop-color="#f3d3a2"/><stop offset="1" stop-color="#b28e78"/></linearGradient><linearGradient id="d" x1="-819.2" x2="819.2" gradientTransform="matrix(.003 0 0 .0005 .1 2.85)" gradientUnits="userSpaceOnUse" spreadMethod="pad"><stop offset="0" stop-color="#a6836d"/><stop offset=".259" stop-color="#f3d3a2"/><stop offset=".396" stop-color="#b28e78"/><stop offset=".541" stop-color="#a6836d"/><stop offset=".557" stop-color="#e9dece"/><stop offset=".667" stop-color="#f3d3a2"/><stop offset=".753" stop-color="#a6836d"/><stop offset=".859" stop-color="#f3d3a2"/><stop offset="1" stop-color="#b28e78"/></linearGradient><linearGradient id="e" x1="-819.2" x2="819.2" gradientTransform="matrix(.003 0 0 .0005 .1 2.85)" gradientUnits="userSpaceOnUse" spreadMethod="pad"><stop offset="0" stop-color="#694733"/><stop offset=".216" stop-color="#a9856f"/><stop offset=".51" stop-color="#694733"/><stop offset=".816" stop-color="#a9856f"/><stop offset="1" stop-color="#694733"/></linearGradient><g id="a" fill-rule="evenodd"><path fill="#c6b2e3" d="M12 8.5q.65 1.2.65 2.2v.25q-.1.65-.7 1v-.1l-.75-.4-.15.35H11q-.35.6-.9.6l-.25-.1-1.05-.65q-.45.05-.75.5v.05q-.35.4-.9.4-.35 0-.45-.2l-.05-.05-.4-.75-.2-.05q-.3 0-.4.15l-.1.1H5.4q-.3 0-.3-.15l-.45.25q-.3 0-.3-.25l-.3-1-.3.05-.5-1.95L2.7 6.6.65.25h.4L1.1.3 2.3 2l.4.6q.95 1.6 1.65 2.3 1.45 1.5 3.9 2.7 2.15 1.05 3.1 1.05z"/><path fill="#9494bd" d="m7.05 7.65 5.6 3.3q-.1.65-.7 1v-.1l-.2-.45-.15-.15-3.85-3zm-6-7.4L2.7 6.6.65.25zm8.8 12.05-.2-.25-.15-.25-4.05-4.7 5.6 4.7H11q-.35.6-.9.6zm-3.25-.6L4 5.9l4.05 6.3q-.35.4-.9.4-.35 0-.45-.2l-.05-.05-.05-.25.1-.3zm-2.1-.3.35-.25-1.65-5.7 2.35 6.35H5.4q-.3 0-.3-.15l-.45.25q-.3 0-.3-.25v-.05z"/><path fill="#69649e" d="M8.8 11.65h.1l.6.15.15.25.2.25zm-2.55-.05h.15l.2.1.1.1-.1.3.05.25zm-1.75-.8.35.35-.35.25-.15.2v.05l-.3-1 .05-.05zm6.7.65.25-.25.15.05.15.15.2.45z"/><path fill="url(#b)" d="m1.55 3.45-.05.2-.1.15h.2l.1.2v.2l-.05.1h.2l.1.2v.2l.2.05.1.15v.2l.05-.05h.25l.1.2v.2l.15-.05.25.1.1.2-.05.15.2-.1.2.1.1.2v.1l.15-.1.2.1.1.2.2-.1.2.1.1.15v-.05l.2-.1.2.1.1.2-.1.2-.2.1-.2-.1-.05-.1h-.05l-.2.1-.2-.1-.1-.2-.2.1-.2-.1-.1-.2V6.3l-.15.05-.2-.1-.15-.2.1-.15-.25.1-.2-.1-.1-.2.05-.15-.1.05h-.2l-.15-.2v-.1l-.05-.05h-.2l-.1-.2v-.2l-.2-.05-.15-.15.05-.25v-.05L1.3 4.3l-.1-.15V3.9l.15-.1-.25-.05L1 3.6v-.25l.2-.1h.2z" transform="translate(.55 -2.3)"/><path fill="url(#c)" d="M1.25 3.05h.2l.15.2-.05.2-.1.15h.2l.1.2V4l-.05.1h.2l.1.2v.2l.2.05.1.15v.2l.05-.05h.25l.1.2v.2l.15-.05.2.1.1.2-.05.15.2-.1.2.1.1.2v.1l.15-.1.2.1.1.2.2-.1.2.1.1.15v-.05l.2-.1.2.1.1.2-.1.2-.2.1-.2-.1-.05-.1h-.05l-.2.1-.2-.1-.1-.2-.2.1-.2-.1-.1-.2V6.1l-.15.05-.2-.1-.1-.2.05-.15-.2.1-.2-.1-.1-.2.05-.15-.1.05h-.2l-.15-.2v-.1l-.05-.05h-.2l-.1-.2v-.2l-.2-.05-.15-.15.05-.25v-.05l-.15-.05-.1-.15V3.7l.15-.1-.25-.05-.1-.15v-.25z" transform="translate(.55 -2.3)"/><path fill="url(#d)" d="m-.4 2.55.15-.15.85-.1.8.1.35.35L1 2.9l-1-.05z" transform="translate(.55 -2.3)"/><path fill="url(#e)" d="m-.4 2.55.4.3 1 .05.75-.15-.35.3-.8.15-.85-.15-.3-.3z" transform="translate(.55 -2.3)"/></g></defs></svg>