<svg xmlns="http://www.w3.org/2000/svg" xmlns:ffdec="https://www.free-decompiler.com/flash" xmlns:xlink="http://www.w3.org/1999/xlink" ffdec:objectType="frame" width="45.75" height="57.1"><use ffdec:characterId="1" xlink:href="#a" width="45.75" height="57.1"/><defs><g id="a" fill-rule="evenodd"><path fill="#333" d="M24.6 6.25q.35.05.95.65l.1.05-.35.75zm1 1.55q6.15 8.55 7.1 19.35l.05.9q0 .4-2.1.5l-4.55.15-6.45-.1-1.25-.05h-.2l-1.05-.05-4.5-.35.05-.7v-.05l.05-.55Q13.75 16.2 20 7.7v-.1l.75 1.75-.05-.7-.75-1.7.2-.2.75-.4.1.1-.05.05h.3l.25.2q-.9 1.7-.65 3.4h.05L22 7.05l.7.55-1.4 2.1-.05-.1-.05-.05-.1.35.25.45v-.05l1.2-2 .2-.7v-.05l.05.05q1.05 2.2 1.65 2.45l.3-.45.05.15.05.05q.5-.7.5-1.45zm-2.55-.25.8-.6.7 2.15-.25.4z"/><path d="M24.55 6.55v.05zm-.7.4.4-.45h.25l-.1-.25h.2l.7 1.45.35-.75.05.05-.25.6.15.2-.25.55q0 .75-.5 1.45l-.05-.05-.05-.15-.3.45q-.6-.25-1.65-2.45l-.05-.05.05.05.05-.05v.05H23l.05-.05L24.3 9.5l.25-.4zM20 7.6l-.1-.5.05-.15.75 1.7.05.7zm1.5-.9.5.35-1.1 3.05h-.05q-.25-1.7.65-3.4m1.2.9h.05l-.2.7-1.2 2v.05l-.25-.45.1-.35.05.05.05.1z"/><path fill="#431900" d="M12.65 27.8v-.25l2.1.25.55.1h.25l1.7.2-.1.45q-.1.8.15 1.35l-2.65-.25.5-.65-.05-.65-.1-.15zm5.55.35q4.9.4 7.9 0l1.55-.25.05 1.7-9.6.35v-.2zm10.35-.35.35-.05 1.05-.2 2.7-.5.05.2q-1.6.2-2.8.7l.15 1.3-1.85.3q.5-.85.35-1.75"/><path fill="#722f07" d="m32.7 27.25.2.85q.1.5-.2.6l-2.65.55-.15-1.3q1.2-.5 2.8-.7m-18.05 2.4-2.1-.35.1-1.5 2.35.4.1.15.05.65z"/><path fill="#1c0a00" d="m17.25 28.1.95.05-.1 1.6v.2l-.8-.05q-.25-.55-.15-1.35zm10.4-.2.9-.1q.15.9-.35 1.75l-.5.05z"/><path fill="#4d0000" d="M23.5 10.45v.05h-.55l-.2.05v.15l-.4 3.4-.15 2.05-.1.8-.1 1.35-.3 2.75-.35 2.5-.25 2.1q.65 1.45 1.95 2.5l.1.15q1.35-1.1 2.1-2.55l.2-.35.05.45-.45.7-1.15 1.5-.8.8-1.2-1.55-.8-1.1-.3-.55.1-.5.25-1.7.25-1.8.05-.4.05-.4.05-.55.1-1.15.3-2.9.15-1.5.3-3 .05-.6.1-.75-.2.05v-.15.15l-.15-.3-.05-.25q-.25-.6-.25-1.7V8l.15-.05.2-.05q-.2 1.15.35 2.1l.05.05 1.2.15-.05.05-.1.1h-.15z"/><path fill="#a10000" d="M22.2 8.75q-.05-.45.05-.85l.8-.15h.1q.25.25-.05.5.1.4-.4.4zm1.7 1.3-.05.15-.3-.05zm-.4.1-.2-.05h.2zm-1.25 5.45.05-.9.05-.6.4-3.4v-.15l.2-.05h.55l.1.55v.1l.1.9.35 2.2.1.75-.35.3v.1l-1.4.3zm2 .25.05.35v.05l-.5 3.5q-.5 2.85-2.4 4.5l-.15.1.1-.8.25-1.6.1-.9.1-1.1q1.75-1.65 2.45-4.1"/><path fill="#7b0303" d="M24.15 8.2v.1l-.2 1.4v.05l-.05.15v.15l-.35.1h-.05v-.05h-.85l-.1-.15-.25-.6.55.05.75-.25q.45-.25.55-.95m.15 8.05.5 4.25-.1-1.55.1.85.45 4.35.2 1.25-.2.35q-.75 1.45-2.1 2.55l-.1-.15q-1.3-1.05-1.95-2.5l.15-1.3.15-.1q1.9-1.65 2.4-4.5z"/><path fill="#af2e2e" d="m23.15 7.75.35.05.2.05.45.35q-.1.7-.55.95l-.75.25-.55-.05-.05-.25-.05-.35.5-.1q.5 0 .4-.4.3-.25.05-.5m1 7.25.1.85q-.7 2.45-2.45 4.1l.05-.3.15-1.35v-.05l.1-1.3.1-.8.05-.55.15.1 1.4-.3v-.1z"/><path fill="#722f07" d="m26.15 13.5-.3-1.8-.6-2.25v-.1l.3-.5.5 1.4q2.5 7.2 3.15 14l-.8 1.25v-.05l-.5-3.9-.95-4.65-.05-.25v.05l-.25-1.05zm-6.35-5 .35.5v.1l-.65 2.25-.3 1.85-.5 2.15-.25 1v-.05l-1.05 5.05-.5 3.95v.05l-.85-1.25q.7-6.9 3.25-14.2z"/><path fill="#431900" d="m25.55 8.85-.3.5v.1l.6 2.25.3 1.8-.15-.65-1.2-4.05.05-.05.1-.2v-.1L25 8.4l.2-.45zm1.4 8.05.95 4.65.5 3.9v.05l.8-1.25.2 4.35-.8-1.05q-.5.55-.6-1.6v-1q-.1-2.55-1.05-8.05M19.8 8.5l.4-.95.2.45.05.05v.1l.1.2.05.05-1.25 4.15-.15.65.3-1.85.65-2.25V9zm-1.35 7.85Q17.4 22.1 17.3 24.8v1l-.05 2.75-1.4-.05.2-4.4.85 1.25v-.05l.5-3.95 1.05-5.05z"/><path fill="#d0d0d0" d="m28.65 28 .1-.05q.3 0 .3.2l-.05.15zm-12.25.6-.05-.15q0-.2.3-.2l.1.05zm12.3.1.1-.05.25.2q-.45.05-.35-.15m-12.35.45q0-.2.25-.2l.1.05q.1.2-.35.15"/><path fill="gray" d="m29 28.3-.05.05-.15.05-.25-.1v-.1l.05-.2h.05zm-12.6.3.35-.3h.05l.05.2v.1l-.25.1-.15-.05zm12.3.1q-.1.2.35.15l-.25.25-.2-.25zm-12 .3.1.15-.2.25-.25-.25q.45.05.35-.15"/><path fill="#9f4f04" d="m24.15 6.35-.05.05v-.1zM29.8 8.2l-.5-.15-.85-.5-.9-.65-.05-.05-.25-.2-.1-.15q-.55-.45-.4-.85.15-.5.6-.95.3-.35.8-.55l.5-.15q3.7-1.2 5.3 1.7-.4.1-.8.35l-.55.3-1.15.75-.6.4-.15.1-.9.55zm3.6 16.1-.05.05h.1v.05l.05.25q-.15 1.5-1.35 2.65l-1.65 1.8-.1-.5q-.4.1-.7.3l-.2.05.05.2.05.25-.05-.1v.1h-.05l.2.95q.45 1.9.8 2.4l.85 1 .05.05q-.2 2.4.25 5.2l1.5 9.9-.95 1.65-.35.65q-1.4-.35-2.95-1.2l-1.5-.9v.05l-.5-.35.25-.8.35-3.1.85-12.85q1.45-4.5 1.8-8.1l.35-5.15v-2.5l2.05 5.4zM12.6 36.5v.05L8 34.2l-.15-.15.25-.5 2.05-3.9.55-1.15.5-1.25q2.05 1.8 4.45 2.45l-2.05-2.4q-1.25-1.2-1.35-2.75l.95-2.85 2.05-5.4v2.5q0 1.55.35 5.15t1.8 8.1q.4 8 .85 12.85l.35 3.1.25.8-.5.35v-.05l-1.5.9q-2.4 1.3-4.6 1.45Q13 45.3 14.1 39q.65-3.9 0-7-.3-.15-.4.25zM3.5 48.25l-.4-.4q-2.4-2.3-3.1-5.2.55-.05 1.75-.95 1.8 1.95 4.2 3.2l.75.3q-1 1.8-3.2 3.05m1.8-4.3q-1.85-.85-2.95-2.25l-.05-.05-.35-.5v-.25l.15-.4.1-.2 1.2-.8 1.5-1 .05-.15.1.05L7 39.5l.2.05 1.25.35.7.1q-2.1 1.85-3.85 3.95m28.85-13.4.3-.25.45-.4.35-.35.15-.3.2.4 2.05 3.9.25.5-.15.15-.8.4-.1-.05-.1.15-.7.35-.1-.1v.2l-1.05.5-.45-.65-1.2-1.5-1.2-1.1v-.15l-.1-.15.4-.25h.05l.15-.1.5-.35.2-.1.25-.2.3-.25.3-.25zM29.1 34q0 .75.7.75.95 0 1-.75 0-1.05-.85-1t-.85 1m1.6 4q0-1.05-.85-1T29 38q0 .75.7.75.95 0 1-.75m-14.9-5q-.85-.05-.85 1 .05.75 1 .75.7 0 .7-.75 0-.95-.85-1m.45 9.25q.7 0 .7-.75 0-.95-.85-1t-.85 1q.05.75 1 .75m-.8 2.9q.05.75 1 .75.7 0 .7-.75 0-.95-.85-1t-.85 1m.6-6.4q.7 0 .7-.75 0-.95-.85-1t-.85 1q.05.75 1 .75m13.45 3.5q.95 0 1-.75 0-1.05-.85-1t-.85 1q0 .75.7.75m-.2 3.65q.95 0 1-.75 0-1.05-.85-1t-.85 1q0 .75.7.75m11.4-7.5.1-.05.05.15 1.5 1 1.2.8.1.2.15.4v.25l-.15.3-.05-.05-.8.95-.2.2-1.85 1.25-.3.15-3.6-3.7-.05-.25.5-.1 1.25-.35.2-.05q1.15-.3 1.95-1.1m3.3 3.3q1.2.9 1.75.95-.7 2.9-3.1 5.2l-.4.4q-2.2-1.25-3.2-3.05l.75-.3q2.4-1.25 4.2-3.2m-10.6-5.3-.25.15v-.05l-.3-1.05.25.4z"/><path fill="#874100" d="M12.25 51.45h-.65l-4.3-.65q-1.7-.6-3.8-2.55Q5.7 47 6.7 45.2l1.5-.15-.1-.3-.2.05v-.05h-.05l-.05-.1h-.5l-2-.7q1.75-2.1 3.85-3.95l1-.1 1.3-.25q-.75 2.2-2.2 3.95l-.4.65-.25.25-.2.1.05.35q1.1-.6 2.15-2.2-.3.6.4-.5l1.2-2.75.6-2.15.1-.65-.2-.1-.1-.1 1.1-4.25q.1-.4.4-.25.65 3.1 0 7-1.1 6.3-1.85 12.45m20.9-2.55-1.5-9.9q-.45-2.8-.25-5.2l.15.15.15.2 1.15 1.3.3 1.05-.1.1-.2.1.1.65.6 2.15q.55 1.6 1.2 2.75l.45.7-.45 2.45q-.45 1.6-1.2 2.85zm-1.1-16.5-.25-.25.15-.05.1.15zm.75 4.6h.05l-.05-.25h-.05zm-19.85 0 .05-.25h-.05l-.05.25zm23.9 3.25 3.6 3.7-2 .7h-.6l-.3-.2h-.2l-.2-.2v-.35zm5.4 8q-2.1 1.95-3.8 2.55l-4 .65.85-1.5q1.05-1.55 1.4-3l.4-2.1.2.1.25.1.55.15h.95q1 1.8 3.2 3.05m-7-6.5-.5-.9-.05-.15-.4-1.05.7.2z"/><path d="M33.7 26.3q.25-.45-.05-1.2l-.15-.45-.05-.25v-.05h-.1l.05-.05.1-.05 1.15-.4v.2l-.1.45-.3.85-.15.25-.2.4zm-8.3-14.8v.1l.2.55.05.15.3.9.1.4.3 1.15.15.6.1.3v.05l.1.3.1.55.1.4.1.45.15.85v.05l.05.15v.05l.25 1.45.05.2v.05l.2 1.55.05.2V22l.2 1.6v.3l.05.25v.05l.05.85v.05l.05.3v.3l.1 1.65v.05l.05.2v.2h-.05l-.1.05-.9.15-.15-3.15q0-3.25-.75-7.45l-1-4.05-.8-3.15V10l.3-.5v.1l.15.4v.05l.4 1.3zm6.45 39.7.35-.65.95-1.65.4-.65q.75-1.25 1.2-2.85l.45-2.45v-.1l.05-1.1-.25-1.9-.3-.95v-.05l-.3-.65-.35-.65-.1-.15-.35-.7-.2-.3-.3-.55-.25-.4-1.15-1.3-.15-.2-.15-.15-.05-.05-.85-1q-.35-.5-.8-2.4l-.2-.95h.05v-.1l.05.1.1.1.55.95.25.35.8.85.2.2.3.3.25.25 1.2 1.1 1.2 1.5.45.65.1.15v.05l.7 1.2.1.2.45.95.1.2.25.8v.1l.2.7.05.25.3 3.65v.35l-.05.6-.4 2.1q-.35 1.45-1.4 3l-.85 1.5q-.25.55-.35 1-.15.9-.15 1.9 0 .9.5 1.6l.65.8q-1.3-.8-2.3-1.8l-1.2-1.4-.15-.4v-.05q.05-1.05.4-1.9M29.1 34q0-.95.85-1t.85 1q-.05.75-1 .75-.7 0-.7-.75m1.6 4q-.05.75-1 .75-.7 0-.7-.75 0-.95.85-1t.85 1m-1.4 7.9q-.7 0-.7-.75 0-.95.85-1t.85 1q-.05.75-1 .75m.2-3.65q-.7 0-.7-.75 0-.95.85-1t.85 1q-.05.75-1 .75m9.25-4q-.45-.15-.45-.75v-.3l.05-.05q.15-.5.65-.5h.15l.1.05.3.1.1.1.05.1.1.35v.15l-.1.55-.65.25z"/><path fill="#875100" d="m27.75 7.8.45.2-.2.9V9l-.05.1.25.1 1.1.5v-.15l.2-1.05.45.2-.25 1.05v.15l1.3.6-.05.15v.05l-.05.1-1.3-.65v.05l-.2 1.1 1.2.6-.05.3-.25-.1-.25-.1-.75-.3v.15l-.35-.1v-.2l-.2-.05-1.15-.45-.05-.05-.1.65-.05.15v.4l.4.3.95.5v-.15l.15-.75.2.15.1.05-.05.15-.1.55v.15l.95.5-.05.3-.95-.45-.15 1 .9.5h.05l-.05.05v.1l-.05.3-.9-.55-.1.85.3.15.6.35-.05.15v.15l-.9-.5-.05.3-.05.35v.1l-.05.5.9.5h.05v.35h-.05l-.8-.45q-.25-.15-.25.25v.85l.05.05.9.5.15.05v.3l-.1-.05h-.05l-.85-.45-.1-.05.05 1.2v.05l.2.1.7.45.15.05v.2l-.15-.05-.65-.35-.2-.1.05.6-.45-1.95v-.4l-.1-.05-.1-.4.2.1v-1.1l-.55-.2-.1-.45.15.05.6.2V17l.05-.35.05-.45.05-.3-.35-.15-.85-.45-.05-.4-.2-1.95.05-.4-.05-.05v-.55l.15.1.15-.9.05-.25-.25-.1h-.1l.05-.45.35.1.15-.95.05-.15L27 9.2l.1-.45.4.15.05-.15v-.1l.15-.6.05-.2zm0 .25h.1L27.8 8zm-.1 2.55.35.15.35.15h.05l.65.25.15-1.1V10l-.65-.25-.65-.25-.05.2-.15.7zm-.6 4.3.8.4.5.3.05-.25.1-.65-.95-.45-.4-.15-.05.75zm.15-1.2.2.1q.5.15 1.05.45l.1.05.15-.95-.8-.35-.6-.25-.05.5zm2.2 8.9v.3h-.05l-.5-.3-.1-.05-.1-.4.15.1.55.35zm-.05 1.8v.25h-.05l-.25-.15-.05-.25.3.15zm8.95 9.85.3.45.25.45v.05l.1.15.35-.2.2.3.05.1-.4.15.45 1.05.05.05.05.1.55-.3.05.15.15.4-.6.2.05.15.3.8-.05.05-.1.15h-.1l-.05.05-.2-.5.1-.55v-.15l-.1-.35-.05-.1-.1-.1-.3-.1-.4-.85-.85.3.35 1-.05.05v.3q0 .6.45.75l.2.75-.3.1h-.1l-.35-1.25-1.05.3.55 1.1h-.4l-.35-1.05-.6.2-.1-.2.6-.2v-.05l-.1-.2-.05-.15-.05-.05-.25-.7-.7.2-.7-1.2.2-.1.4 1 .4-.15.25-.1-.05-.1-.05-.1-.3-.9.05-.05.2-.1.4.9.05.1.05.15.95-.4-.05-.2-.05-.05-.45-1 .25-.15.05-.05.5 1.05v.05l.1.2.75-.35-.05-.2h-.05l-.65-1 .1-.05zm-1.35.35-.05.05-.05-.1zm-.95.5-.05.05v-.2zm1.7 1.2-.85.35-.15.05.2.65.05.2.05.15.1.2v.05l1.05-.4-.05-.2-.15-.2zm-3.95 1.35-.05-.1v-.05l.25-.1.1.15z"/><path fill="#bd8701" d="m27.3 7.65.45.15v.05l-.05.2-.15.6v.1l-.05.15-.4-.15zm.9.35 1.15.45.15.05-.2 1.05v.15l-1.1-.5-.25-.1L28 9v-.1zm5.5 18.3.2-.3.2-.4v.05l.9.9-.4.8-.1.15-.1-.1-.65-1.05zm.85-1.8.1-.45v-.2h.2l.5 1.05-.2 1.15-.75-1zm-2.25 3.3.3-.25.05-.05.45.85.2.35-.15.1-.65.5-.25-.45-.05-.15zm.65-.6.15-.15.4-.5.7 1 .1.2-.75.75-.15-.35zm2.5 2-.6-1.2-.1-.15.55-.8.35.55.4.7zm.75-1.3-.7-1.3.2-1.1.7 1.3v.1zM29.95 8.7l1.45.55-.15.65-.2.55-.05.05-1.3-.6v-.15zm.95 2.1-.25 1-.05.1-1.2-.6.2-1.1v-.05zm-.6 1.3-1-.25v-.15l.75.3zm-1.35-.35h-.1l-1.2-.4.65.4.4.25.2.1-.15.75V13l-.95-.5-.4-.3v-.4l.05-.15.1-.65.05.05 1.15.45.2.05zm.25.55.6.35.4.25-.2.75-.95-.5V13l.1-.55zm.75 1.65-.05.5-.05.25v-.05l-.05.15v.2h-.05l-.9-.5.15-1zM27 9.2l.45.15-.05.15-.15.95-.35-.1zm-.15 1.6h.1l.25.1-.05.25-.15.9-.15-.1zm.8-.2.05-.2.15-.7.05-.2.65.25.65.25v.05l-.15 1.1-.65-.25h-.05l-.35-.15zm-.6 4.3.05-.05.05-.75.4.15.95.45-.1.65-.05.25-.5-.3zm.05.4.85.45.35.15-.05.3-.05.45-.05.35v.1l-.6-.2-.15-.05zm.4 2 .55.2v1.1l-.2-.1-.15-.55zm.45 1.6.1.05v.4zm.55 2.4-.05-.6.2.1.65.35.15.05v.4l-.05 1h-.05l-.55-.35-.15-.1zm.95-.3-.15-.05-.7-.45-.2-.1v-.05l-.05-1.2.1.05.85.45h.05l.1.05zm0-1.6-.15-.05-.9-.5-.05-.05v-.85q0-.4.25-.25l.8.45h.05zm0-1.6h-.05l-.9-.5.05-.5v-.1l.05-.35.05-.3.9.5v.15l-.05.4v.15zm.15-1.55-.6-.35-.3-.15.1-.85.9.55zm-2.4-2.55.05-.45.05-.5.6.25.8.35-.15.95-.1-.05q-.55-.3-1.05-.45zm1.55 8.85.1.05.5.3h.05l-.05 1.5h-.05l-.3-.15zm.6 2.1-.1.95v.3l-.2-1.4.25.15zm3.95 6.05-.5-.9-.1-.2.75-.6.3.55.4 1-.05.05-.3.25zm1.15-.4-.5-1.15-.2-.35.45-.4.3-.3.15.2.6 1.25-.35.35zm-2.05-.45.05-.05.1.2.3.6-.05-.05zm5.9 4.4h.1l.8.75v.05l.1.1-.35.2-.1-.15v-.05l-.25-.45zm1.25 1.3.65 1v.05h.05l-.55.3-.05-.1-.05-.05-.45-1.05zm.9 1.6v.2l.05.45-.15.25-.15.25-.3-.8-.05-.15zm-3.55-2.5-.15.05.1-.15zm-.85.4-.05.05-.05-.15zm-.85.7v-.05l.1-.05.35-.15.2-.1.3.9.05.1.05.1-.25.1-.4.15zm.9-.5.25-.1h.05l.05-.05.55-.35.45 1 .05.05.05.2-.95.4-.05-.15-.05-.1zm1.2-.7.25-.15.35-.1.65 1h.05l.05.2-.75.35-.1-.2v-.05zm-1.05 3.65-.45-.95-.1-.2.7-.2.25.7.05.05.05.15.1.2V38zm1.45-1.9.25.85.15.2.05.2-1.05.4v-.05l-.1-.2-.05-.15-.05-.2-.2-.65.15-.05zm-3 2.55-.35-.3-.05-.05-.05-.1-.05-.05-.35-.5-.1-.2.3-.1.35.65zm-1.05-1.35-.1-.3-.1-.25h.05v-.1l.1-.15.35.7-.25.1zm2.7.9.6-.2.35 1.05h-.25l-.45.05v-.1zm1.35.85-.55-1.1 1.05-.3.35 1.25-.1.05h-.05l-.15.05h-.2l-.1.05zm1.25-.25-.2-.75.3.05.65-.25.2.5-.55.3h-.05zm-.6-1.85-.35-1 .85-.3.4.85-.1-.05H39q-.5 0-.65.5"/><path fill="#4f2600" d="m24.15 6.35.4-.85.25-.5.2-.55.4-1 .1-.2 1-2.55.3-.7.55.3 1.8.95 1.05.55.55.3h.05l.15.1 1 .65q1.8 1.15 2.25 2.3v.5l-.25.05q-1.6-2.9-5.3-1.7l-.5.15q-.5.2-.8.55-.45.45-.6.95-.15.4.4.85l.1.15.25.2.05.05.9.65.85.5.5.15-.1.05-.35.2L28.2 8l-.45-.2-.45-.15-.8-.35-.35-.1-.15-.05-1-.4-.35-.1-.25-.05h-.05l-.2-.2-.05.05V6.4zm9.35 18.3.15.45q.3.75.05 1.2l-.15.2-.1-.05.05.1-.4.5-.15.15-.3.3-.05.05-.3.25-.4.3-.3.25-.55.5-.2.2-.3.2-.05-.15 1.65-1.8q1.2-1.15 1.35-2.65m-4.65-12.9.25.5-.2-.15-.2-.1-.4-.25-.65-.4zm1 2.95.1.15.5 1.3.05.15v2.5l-.35 5.15q-.35 3.6-1.8 8.1v-.4l.2-.8.15-.85.05-.3.05-.35.1-.35.1-.7.05-.4v-.1l.05-.4v-.25l.1-.8v-.15l.05-.25v-.35l.1-.95v-.25l.05-1.5v-.3l.05-1v-3.8l.05-.55v-.15l.05-.4v-.3l.05-.15.1-.8.05-.3v-.1l.05-.05v-.2l.05-.15zM32.8 37l-.05-.25h.05l.05.25zm7.9 1.4q-.8.8-1.95 1.1l-.2.05-1.25.35-.5.1-.2-.7.45-.05h.9l.1-.05h.2l.15-.05h.05l.2-.05.3-.1.35-.15h.05l.55-.3.05-.05h.1l.1-.15.05-.05.15-.25.15-.25v.2h.1v.25zm-.25 5.55.3-.15 1.85-1.25.2-.2.8-.95.05.05.35.25q-1.8 1.95-4.2 3.2l-1.7.3-.55-.15-.25-.1-.2-.1.05-.6.2.2h.2l.3.2h.6zm-2.55-9.9.1.2-.1.05-.35.1-.25.15-.05.05-.25.15-.55.35-.05.05h-.05l-.25.1-.2.1-.25.15-.35.15-.1.05v.05l-.2.1v-.05l-.1-.15 1.05-.5.05-.05.05-.05.7-.35.15-.05.05-.05.8-.4zm-4.75 2.45v.05l.25-.15.2.3-.1.15v.1h-.05l.1.25.1.3.05.05.05.1.1.2.35.5.05.05.05.1.05.05.35.3v.05l.3.95-.7-.2.4 1.05.05.15.5.9-.05 1.1v.1l-.45-.7q-.65-1.15-1.2-2.75l-.6-2.15-.1-.65.2-.1z"/><path fill="#6b3400" d="M27.75 8.05 27.8 8l.05.05z"/><path fill="#8a5b00" d="m24.1 6.45.05-.05.2.2h.05l.25.05-.05.25-.05.2-.05.15-.1.45-.1-.55-.05-.2zm.9.3 1 .4.15.05-.15.65v.05l-.1.4-1.1-.35-.1-.05v-.05l.15-.45v-.1zm1.5.55.8.35-.2 1.1-.9-.35.05-.35.05-.05.05-.25zm4.05 21.95.3-.2.1.4.35.8-.3.2-.05-.15zm.5-.4.55-.5.35.65.3.45-.6.55-.4-.7zm.85-.75.4-.3-.1.9zM24.55 8.45l.05-.15 1.2.4v.15l-.25 1-.75-.3v-.1l-.15-.75v.05zm.4 1.55.55.25-.1 1.05v.2l-.05-.2zm.7 2.25v-.4l1.2.65.05.05-.05.4-.05.55-.85-.35zm1.2-.3-.3-.15-.25-.1-.45-.2-.15-.05.1-.85v-.25l.15.05.9.4zm.05-1.6-1.1-.4.25-1 .05-.15.6.25.3.15zm1.3 17-.1-1.65v-.05l.85.6.25.1-.1.8v.25l-.05.4v.1H29l-.2-.1-.05-.05-.05-.05-.15-.1zm-.25-3.75-.2-1.6v-.05l.4.25v.1l-.1 1.35zm-1.9-10.05.7.35-.1.9-.3-.1zm.45 1.75h.1v.3zm.5 2.05V17l.5.3.2.65.15.55-.7-.25zm.2 1.1.75.45.1.45.05.7v.2l-.65-.35zm.3 1.7.6.35.05 1.4-.45-.2zm-.1-3.3-.4-.2.05-.55v-.85l.05.05zm1.25 5.3-.2-.1.05-.75zm.6 3.75v.05h-.05l-.15-.05-.95-.5-.05-.35.2-1 .7.4.1.05zM29 28.3l-.1.7-.1.35-.05.35-.45-.3v-.85l-.05-.45v-.15l.05.05.05.05.25.15.2.1zm-.3 1.7-.15.85-.2.8-.05-2zm.3-5.75-.4-.2-.3-.25.05-.4.1-1 .3.15zm-1.05-.4.1.05-.05.25zm5.35 6.85.5.15-.3.25zm-2.2.1.45-.3.5.8.35.55h-.05l-.4.25-.15.05-.3-.3zm1.45.95-.15-.6-.6-.85.6-.45.4.7.05.05.4.7-.2.1z"/><path fill="#5b2d00" d="m24.65 6.65.35.1-.15.55v.1l-.15.45v.05l.1.05 1.1.35.1-.4v-.05l.15-.65.35.1-.15.45-.05.25-.05.05-.05.35.9.35-.1.45-.3-.15-.6-.25-.05.15-.25 1 1.1.4-.05.45-.9-.4-.15-.05v.25l-.1.85.15.05.45.2.25.1.3.15v.55l-1.2-.65v.4l-.05-.15-.2-.55v-.25l.1-1.05-.55-.25-.15-.45.75.3.25-1V8.7l-1.2-.4-.05.15-.05-.2-.05-.25-.05-.2v-.1l.1-.45.05-.15.05-.2zm6.2 22.4.2-.2.2.45.4.7.6-.55-.3-.45-.35-.65.3-.25.3.6.2 1.15-.6.45.6.85.15.6-.15.1-.35-.55-.5-.8-.45.3-.1-.35.3-.2-.35-.8zm-2.6-1.25v-.2l-.05-.25.35.25.15.1.05.05.05.05.2.1h.05l-.05.4h-.2l-.2-.1-.25-.15-.05-.05-.05-.05zm-.15-2.15v-.25l.95.5.15.05h.05l-.05.25v.15l-.25-.1zm-.05-.6L28 24.2v-.05l.05-.25-.1-.05v-.25l.1.05.1-1.35v-.1l-.4-.25-.05-.25.45.2-.05-1.4-.6-.35-.05-.25.65.35v-.2l-.05-.7.45 1.95-.05.75.2.1.1.4-.3-.15-.1 1-.05.4.3.25.4.2.05.25-.1-.05-.7-.4zm-1.2-12.1.2 1.95.05.4-.05-.05v.85l-.05.55.4.2.1.45-.5-.3v.35l-.1-.45-.1-.4-.1-.55-.1-.3v-.35h-.1l-.15-.6.3.1.1-.9-.7-.35-.1-.4.85.35zm1 5.55.1.4-.75-.45-.05-.2zm.9 11.2-.05.3-.4-.35v-.25zm4.1.9.45.1.2.4-.25.2z"/><path fill="#8a5400" d="m34.1 25.6.15-.25.15-.3.75 1 .2-1.15.35.6-.2 1.1.7 1.3-.15.4-.4-.7-.35-.55-.55.8.1.15.6 1.2-.05.05-.15.3-.6-1.25-.15-.2-.3.3-.45.4.2.35.5 1.15-.3.25-.4-1-.3-.55-.75.6.1.2.5.9-.45-.1-.3-.6-.1-.2-.05.05-.2-1.15.05.15.25.45.65-.5.15-.1-.2-.35-.45-.85.3-.3.45.95.15.35.75-.75-.1-.2-.7-1-.05-.1.1.05.15-.2.05.05.65 1.05.1.1.1-.15.4-.8-.9-.9z"/><path fill="#1c0a00" d="m29.6 29.4-.05-.25-.05-.2.2-.05.15.4.4 1.15-.55-.95zm1.35.9.05.15.1.35.4 1.05-.2-.2-.8-.85.2-.2zm3.85 26.5-.65-.4 1.2.7z"/><path fill="#582508" d="m30.5 29.1.05.15.4 1.05-.25.3-.2.2-.25-.35-.4-1.15-.15-.4q.3-.2.7-.3z"/><path fill="#bd8701" d="M7.85 34.25h.05l.55.3-.5 1.05v.05l-.1.2-.75-.35.05-.2h.05zm1.05.3.45.6q.2.05.45-.2l-.55 1.2-.05.1-.05.15-.95-.4.05-.2.05-.05zm1 .85.65.3-.4 1.05-.4-.15-.25-.1.05-.1.05-.1zm1.2.1v.55l.45.25-.35.75v.1h-.05l-.6-.25.05-.25zm.6.9q.55.3.55.45v.1h.05l-.2.55h-.05l-.6-.2v-.05l.05-.05zm.3 1.25-.45.7-.1.15-.05.05-.1.1-.15.2-.05.05-.15-.1.1-.25v-.1l.05-.1.3-.85zm-1.45 1.45.05.05-.95.15v-.05l-.15.05.3-.7.3.1.5.25zm-1.35.2-.5-.05h-.25l.35-1.05.7.25zm-1.15-.05H7.8l-.1-.05h-.2l-.3-.1.35-1.25 1.05.3zM6.8 39l-.35-.15H6.4l-.55-.3.2-.5.65.25.3-.05zm-1.25-.7-.3-.5.05-.45v-.2l.6.2-.05.15zm-.05-1.7h.05v-.05l.65-1 .4.15-.45 1.05-.05.05-.05.1zm.95-1.45.1-.1V35q.55-.75.8-.75h.1l-.3.45-.25.45v.05l-.1.15zm.05 1.55.4-.85.85.3-.35 1-.05.25-.1.1q-.1-.85-.55-.85h-.05zm2.85.15.7.2-.45 1.2-.7-.25v-.05l.1-.2.05-.15.05-.05zm-.5.5-.05.2-.05.15-.1.2v.05l-1.05-.4.05-.2.15-.2.25-.85.85.35.15.05zm1.45-.2.8.25-.25.8-.05.15-.05.1-.05.25-.8-.35.05-.15.05-.1.05-.2z"/><path fill="#875100" d="M7.45 34.25h.4L7.2 35.3h-.05l-.05.2.75.35.1-.2v-.05l.5-1.05h.45l-.6 1.2-.05.05-.05.2.95.4.05-.15.05-.1.55-1.2.05.4.05.05-.3.9-.05.1-.05.1.25.1.4.15.4-1.05.55-.2-.5 1.15-.05.25.6.25h.05v-.1l.35-.75.15.1-.2.8-.05.05v.05l.6.2v.05l-.05.1-.6-.15-.3.85-.05.1v.1l-.1.25.15.1-.1.15h-.15l-.3.05.05-.15-.5-.25-.3-.1-.3.7.15-.05v.05H9.2l.3-.85-.7-.25-.35 1.05h-.4l.55-1.1-1.05-.3-.35 1.25-.4-.1.2-.75q.1-.1.05-.3-.1-.3.15-.45h.05l.1-.1.1-.15-.05-.1.35-1-.85-.3-.4.85-.25.1H6.2l-.1.1-.05.1-.1.35v.15l.1.55-.2.5-.05-.05h-.1l-.15-.2.3-.8.05-.15-.6-.2.15-.4.05-.15.55.3.05-.1.05-.05.45-1.05-.4-.15.05-.1.2-.3.35.2.1-.15v-.05l.25-.45zm2.85 2.9-.25.75-.05.2-.05.1-.05.15.8.35.05-.25.05-.1.05-.15.25-.8zm-1.45.2.2-.65-.15-.05-.85-.35-.25.85-.15.2-.05.2 1.05.4v-.05l.1-.2.05-.15zm.5-.5-.25.7-.05.05-.05.15-.1.2V38l.7.25.45-1.2z"/><path d="m21.1 9.6.15.35v.2l-.8 3.15-1 4.05q-.75 4.2-.75 7.45l-.15 3.3-.05.1-.65-.05-.1-.05h-.25l-.05-.05h-.55l-.15-.25.1-.25-.1-2.5q0-1.35.35-4.25l.5-3.9q.05-.95 1.05-4.1.15-.65.85-1.9t1.15-1.45l.15-.05.15.05z"/><path fill="#9f4f04" d="m21.6 6.35.05-.05v.1zM15.95 8.2v-.05l-.9-.55-.15-.1-.6-.4-1.15-.75-.55-.3q-.4-.25-.8-.35 1.6-2.9 5.3-1.7.7.25 1 .7l.3.3q.6.75.2 1.2l-.1.45-.25.2-.05.05-.9.65-.85.5zM21 9.75v.05-.1z"/><path fill="#6b3400" d="m17.9 8.05.05-.05.05.05z"/><path fill="#4f2600" d="m11.8 5.7-.25-.05v-.5Q12 4 13.8 2.85l1-.65.15-.1H15l.55-.3 1.05-.55L18.4.3l.55-.3.3.7 1 2.55.1.2.4 1 .2.55.25.5.4.8v.05l.05.05v.05l-.05-.05-.2.2h-.05l-1.6.55-3.35 1.3-.35-.2-.1-.05.5-.15.85-.5.9-.65.05-.05.25-.2.1-.45q.4-.45-.2-1.2l-.3-.3q-.3-.45-1-.7-3.7-1.2-5.3 1.7m5.75 5.35.45-.75.15.2v-.1l.15-.1.15.2-.35.55v.05l.5-.45.1.1q-.3.2-.3.7l.1.2-1.15.9-.15-.1-.25.4-.45.2-.1-.2.95-2zM16 15.15l.25 1.95q.25 1.9.15 4.8-.05 2.9.25 5.5t.75 4.3v.35q-1.45-4.5-1.8-8.1t-.35-5.15v-2.5l.05-.15.5-1.3.1-.15v-.05zM12.95 37h-.05l.05-.25H13zm-.05-.3-.1.65-.6 2.15-1.2 2.75q-.7 1.1-.4.5-2.25 3.4-4.65 2.15t-4.2-3.2l.4-.3q1.6 2.35 5.15 3.25h.6l.3-.2h.2q2.1-2 3.05-4.8l-1.3.25q-.55.2-1.7 0l-1.25-.35-.2-.05-1.95-1.1.1-.15V38h.1v-.2l.45.7h.1l.6.35h.05l1.05.35h.2l.1.05h.9l.5.05.45-.05.7-.1q.65-.1 1.2-.8.55-.8.75-1.4h-.05v-.1q0-.2-1.15-.8-.4-.3-1.25-.7l-.5-.2q-1.1-.8-1.6-.9l.1-.2.15.15 4.6 2.35v-.05l.1.1zm2.75-7q-2.4-.65-4.45-2.45l.65-1.7.4-1q.1 1.55 1.35 2.75z"/><path d="M16.65 34q0 .75-.7.75-.95 0-1-.75 0-1.05.85-1t.85 1m-.6 4.75q-.95 0-1-.75 0-1.05.85-1t.85 1q0 .75-.7.75m.2 3.5q-.95 0-1-.75 0-1.05.85-1t.85 1q0 .75-.7.75m.9 2.9q0 .75-.7.75-.95 0-1-.75 0-1.05.85-1t.85 1m-9.7-7.65q0 .8-.75.8-.85 0-.75-.8 0-.85.75-.85t.75.85"/><path fill="#bd8701" d="m21.1 6.65.25-.05h.05l.2-.2.05.05-.15.5-.05.2-.1.55-.1-.45-.05-.15-.05-.2zm.1 1.8-.1.3V8.7l-.15.85-.2.15-.55.15-.25-1V8.7q.3-.2.65-.25l.55-.15zM20.8 10l-.4 1.3-.05.2v-.2l-.1-1.05zm-.7 2.25-.3.9-.85.35-.05-.55-.05-.4.05-.05 1.2-.65zm-.4 1.3-.3 1.15-.3.1-.1-.9zm-.45 1.75-.1.3v-.3zm-.5 2.05-.15.9-.7.25-.2.1v-1.1l.55-.2.5-.3zm-.2 1.1-.25 1.45-.65.35v-.2l.05-.7v-.4l.1-.05zm-.3 1.7-.2 1.55-.45.2.05-1.4zm-.25 1.8-.2 1.65-.1.05-.1-1.35v-.1zm-.2 1.9-.05.3-.05-.25zm-.1 1.2-.05.35-1.15.55v-.05l-.1-1.25.3-.15.8-.45zm-.05.6-.1 1.7-.85.55-.05-.5-.1-1.05zm-.15 2.3-.05 1.45-.45.3-.25-1.4h.2zm-.05 1.7-.05 2.05-.35-1.7zM16.4 24.4l-.05-1.5.65-.35.3-.15.1 1 .05.4-.7.45zm-.05-1.8-.05-1v-.4l1-.5-.05.6.05.75-.2.1zM16.3 21v-1.3l.1-.05 1-.5-.05 1.2v.05zm0-1.6v-1.25l.85-.45q.25-.15.25.25v.85zm0-1.6-.05-.55-.05-.55v-.15q.4-.3.9-.5l.05.3.05.35v.1l.05.5zm-.15-1.55-.1-.8.9-.55.1.85-.3.15zm-.2-1.25-.05-.35v.05l-.05-.25-.05-.5.95-.45.15 1zm-.2-1.35-.2-.75q.05-.1.4-.25l.6-.35.15.85zm1.1-1.55.2-.1.4-.25.65-.4-1.3.4v-.2l1.4-.55.1.65.05.55-.4.3-.95.5zm-.4-.25-1 .25.25-.1.75-.3zm-1.3.05-.05-.1-.25-1 1.3-.65v.05l.2 1.1zm-.4-1.4-.05-.05-.2-.55-.15-.65 1.45-.55.25 1.05v.15zm1.5-2 .15-.05L17.55 8l.2.9V9l.05.1-.25.1-1.1.5v-.15zM18 7.8l.45-.15.8-.35.2.7.05.05.05.35-.9.35-.4.15-.05-.15v-.1l-.15-.6zm1.6-.6.15-.05 1-.4.15.55v.1l.15.45v.05l-.1.05-.25.1-.85.25-.1-.4v-.05zm-1.7 2.5.2.9-1.4.55-.15-1.1V10l.65-.25.65-.25zm.4-.35.45-.15.3-.15.6-.25.05.15.25 1-1.1.4-.35.1-.15-.95zm-1.1 4.95-.15-.95.8-.35.6-.25.1.95-1.25.55zm.05.4q.6-.35 1.35-.6l.05.75.05.05q-.65.3-1.3.7l-.05-.25zm2.7-4.1.1.85q-.55.2-1.15.5l-.15.1-.15-.9-.05-.25.25-.1h.1l1.05-.45zm-1.25 4.65v.85l.05.55-.4.2-.15.05-.6.2-.05-.45-.05-.45-.05-.3 1.2-.6z"/><path fill="#875100" d="M21.35 7.7v.1l-.05.2-.05.25-.05.2-.05-.15-.55.15q-.35.05-.65.25v.15l.25 1 .55-.15.2-.15-.15.4V10l-.55.25.1 1.05v.25l-.2.55-.05.15v-.4l-1.2.65-.05.05.05.4.05.55.85-.35-.1.4-.7.35.1.9.3-.1-.15.6h-.1v.35l-.1.3-.1.55-.1.4-.1.45V17l-.5.3-.55.2v1.1l.2-.1.7-.25-.05.2-.75.45-.1.05v.4l-.05.7v.2l.65-.35-.05.25-.6.35-.05 1.4.45-.2-.05.25-.4.25v.1l.1 1.35.1-.05v.25l-.1.05.05.25-.05.9-.2-1-.8.45-.3.15v-.25l.35-.15.7-.45-.05-.4-.1-1-.3.15-.65.35v-.3l.75-.45.2-.1-.05-.75.05-.6-1 .5V21l1.05-.6v-.05l.05-1.2-1 .5-.1.05v-.3l1.1-.6v-.85q0-.4-.25-.25l-.85.45v-.35l.95-.5-.05-.5v-.1l-.05-.35-.05-.3q-.5.2-.9.5l-.05-.3.6-.35.3-.15-.1-.85-.9.55-.05-.3-.05-.15.95-.5-.15-1-.95.45-.05-.3.95-.5-.15-.85.3-.2.15.9.95-.5.4-.3-.05-.55-.1-.65-1.4.55v.2l-.35.1v-.15l-.75.3-.25.1-.25.1-.05-.3 1.2-.6-.2-1.1v-.05l-1.3.65-.05-.1v-.05l-.05-.15 1.3-.6v-.15L15.8 8.7l.45-.2.2 1.05v.15l1.1-.5.25-.1-.05-.1v-.1l-.2-.9.45-.2.05.25.15.6v.1l.05.15.4-.15.9-.35-.05-.35-.05-.05-.2-.7.35-.1.15.65v.05l.1.4.85-.25.25-.1.1-.05v-.05l-.15-.45v-.1l-.15-.55.35-.1.05.25.05.2.05.15zm-3.7 17.7v.25l-1.1.7-.05-.4zm-.1 1.95-.05.6-.55.35h-.2l-.05-.4zm-.1 2.05v.25l-.4.35-.05-.3zm.5-21.4-.05.05h.1zm-.05 1.7-.05-.2-.65.25-.65.25v.05l.15 1.1 1.4-.55zm.4-.35.05.15.15.95.35-.1 1.1-.4-.25-1-.05-.15-.6.25-.3.15zm-1.05 5.35.1.65.05.25q.65-.4 1.3-.7l-.05-.05-.05-.75q-.75.25-1.35.6m-.05-.4.1-.05 1.25-.55-.1-.95-.6.25-.8.35zm2.75-3.7v-.25l-1.05.45h-.1l-.25.1.05.25.15.9.15-.1q.6-.3 1.15-.5zm-1.25 4.65-.05.05-1.2.6.05.3.05.45.05.45.6-.2.15-.05.4-.2-.05-.55v-.85"/><path fill="#8a5b00" d="m21.4 6.6.2-.2.05.05-.15.5-.05.2-.1.55-.1-.45-.05-.15-.05-.2-.05-.25.25-.05zM19.45 8l.05.05.05.35-.9.35-.2-1.1.8-.35zm.15-.8.15-.05 1-.4.15.55v.1l.15.45v.05l-.1.05-.25.1-.85.25-.1-.4v-.05zm-.55 1.85.6-.25.05.15.25 1-1.1.4-.1-1.15zm.9-.35q.3-.2.65-.25l.55-.15.05.15-.1.3V8.7l-.15.85-.2.15-.55.15-.25-1zm.4 2.8v-.2l-.1-1.05.55-.25-.4 1.3zm-.4-.9.1.85q-.55.2-1.15.5V10.8l1.05-.45zm-1.05 1.9 1.2-.65v.4l-.3.9-.85.35-.05-.55-.05-.4zm-.2 2.75v.85l.05.55-.4.2.3-1.55zm.4-.45-.1-.9.7-.35-.3 1.15zm.15.5-.1.3v-.3zm-1.45 3.6.75-.45-.25 1.45-.65.35v-.2l.05-.7zm.95-1.9v.35l-.15.9-.7.25.15-.55.2-.65zm-.7 4.7-.45.2.05-1.4.6-.35zm-.75.35-.2.1.15-.85zm.3.15.4-.25-.2 1.65-.1.05-.1-1.35zm-.3.2.1 1 .05.4-.7.45.25-1.7zm.4 1.5.1-.05-.05.3zm-1 .6.8-.45.2 1-.05.35-1.15.55v-.05zm.85 2.85-.85.55-.05-.5-.1-1.05 1.1-.7zm-.15 4.35-.35-1.7.4-.35zm-.65-3.4h.2l.55-.35-.05 1.45-.45.3z"/><path fill="#5b2d00" d="m19.8 13.15-.1.4-.7.35.1.9.3-.1-.15.6h-.1v.35l-.1.3-.1.55-.1.4-.1.45V17l-.5.3.1-.45.4-.2-.05-.55v-.85l-.05.05.05-.4.2-1.95.05.55zm-.05-5.3v.05l.1.4.85-.25.25-.1.1-.05v-.05l-.15-.45v-.1l-.15-.55.35-.1.05.25.05.2.05.15.1.45v.1l-.05.2-.05.25-.05.2-.05-.15-.5.1-.7.3v.15l.25 1 .55-.15.2-.15-.15.4V10l-.55.25.1 1.05v.25l-.2.55-.05.15v-.4l-1.2.65v-.55q.6-.3 1.15-.5l-.1-.85v-.25l-1.05.45-.05-.45 1.1-.4-.25-1-.05-.15-.6.25-.3.15-.1-.45.9-.35-.05-.35-.05-.05-.2-.7.35-.1zM17.8 18.9l.1-.4.7-.25-.05.2zm.2 3.05-.4.25v.1l.1 1.35.1-.05v.25l-.1.05.05.25-.05.9-.2-1-.8.45.05-.25.7-.45-.05-.4-.1-1-.3.15.1-.4.2-.1-.05-.75.45-1.95-.05.7v.2l.65-.35-.05.25-.6.35-.05 1.4.45-.2zm-1.5 4h.05l1.1-.55v.25l-1.1.7zm1.05 1.4-.05.6-.55.35h-.2l-.05-.4zm-.5 2.65-.05-.3.45-.3v.25z"/><path fill="#9f4f04" d="m18.05 5.2-.8-.7v-.25q.7-.05 1.15.45l.6 1q.1.5-.55.9-.7.4-1.05.2 0-.2.5-.45l.5-.35z"/><path d="M12.1 25.1q-.3.7-.05 1.2-.95-1.4-.95-2.45l.55.15q.55.2.65.3z"/><path fill="#bd8701" d="m13.1 27.5.05.05.3.25.4.3-.3.6-.3.6-.65-.5-.15-.1zm1.05.85.55.5-.6 1.15-.6-.55zm.75.7.85.6-.4 1.15-.9-.55zm.35 1.95-.05.1-.1.15v.05l-.5 1.05-1.2-.5h-.05l.35-.55.5-.8.55.4zm-2.05.75-.5-.35-.2-.1.4-.7.3-.6.1-.2.05.05.6.45-.6.85zm-.95-.65-.3-.25-.3-.25-.05-.05.4-1 .3-.55.75.6-.1.2-.5.9zm-.95-.8-.45-.4-.35-.35.6-1.25.15-.2.3.3.45.4-.2.35zm-1-1.1-.6-.9.4-.7.35-.55.55.8zm-.75-1.3-.2-1v-.1l.7-1.3.2 1.1zm.85-3 .5-1.05h.2l.25 1.2-.75 1zm1.25.7.4.7-.05.05-.75 1.15-.5-.95q.45-.65.9-.95m.6.95.4.5.15.15-.45.95-.15.35-.75-.75z"/><path fill="#8a5400" d="m12.8 27.2.3.3-.65 1.2.15.1.65.5.3-.6.3-.6.3.25-.65 1.1.6.55.6-1.15.2.2-.45 1.2.9.55.05.05-.15.15-.5-.1-.55-.4-.5.8-.35.55-.15-.1.15-.6.6-.85-.6-.45-.05-.05-.1.2-.3.6-.4.7-.25-.2.2-.4.5-.9.1-.2-.75-.6-.3.55-.4 1-.3-.25.5-1.15.2-.35-.45-.4-.3-.3-.15.2-.6 1.25-.2-.35.7-1.35-.55-.8-.35.55-.4.7-.15-.4.7-1.3-.2-1.1.35-.6.2 1.15.75-1 .3.55q-.45.3-.9.95l.5.95.75-1.15.05-.05.15.2.1-.05-.05.1-.8 1.2.75.75.15-.35z"/><path fill="#5b2d00" d="m13.85 28.1.3.25-.65 1.1.6.55.6-1.15.2.2-.45 1.2.9.55.1.05-.05.2-.15-.05-.5-.1-.55-.4-.5.8-.35.55-.15-.1.15-.6.6-.85-.6-.45.2-1.15zm-1.35 3.2-.25-.2.2-.4.45-.1z"/><path fill="#8a5b00" d="m13.55 28.7-.1-.9.4.3zm.6-.35.55.5-.6 1.15-.6-.55zm.75.7.85.6-.4 1.15-.9-.55zm.35 1.95-.65 1.35-1.2-.5h-.05l.35-.55.5-.8.55.4zm-2.05.75-.5-.35-.2-.1.4-.7.05-.05.4-.7.6.45-.6.85zm-.95-.65-.3-.25.5-.15z"/><path fill="#1c0a00" d="m14.8 30.3.55.6.7-2 .2.05-.05.2-.6 1.85-.05.2-.25.6-.55 1.4-.45-.15q-.35-.15-.35-.3v-.2z"/><path fill="#582508" d="m14.8 30.3.55-1.7.7.3-.7 2z"/><path fill="#1c0a00" d="M15.9 29.3h.1l.05.05zm-5.5 27.8 1.2-.7-.65.4z"/><path d="M16.2 29.4h.05l-.2.95-.8 2.4-.85 1-.2.2-.15.2-1.4 1.7-1.3 2.35q-.85 1.5-.85 3.55 0 2 .5 3.65l1.2 2.85 1.35 2.3q.65 1.1.75 2.55v.05l-.15.4-1.2 1.4q-1 1-2.3 1.8l.65-.8q.5-.7.5-1.6 0-1-.15-1.9-.2-.95-1.2-2.5-1.05-1.55-1.4-3l-.45-3v-.05l.3-3.65.25-1.05.8-1.95.8-1.45.55-.8 1.2-1.5 1.95-1.85q1.3-1.3 1.6-2.15l.15-.2z"/></g></defs></svg>