<?xml version="1.0" encoding="UTF-8" standalone="no"?>
<svg xmlns:ffdec="https://www.free-decompiler.com/flash" xmlns:xlink="http://www.w3.org/1999/xlink" ffdec:objectType="frame" height="26.65px" width="23.75px" xmlns="http://www.w3.org/2000/svg">
  <g transform="matrix(1.0, 0.0, 0.0, 1.0, 1.5, -2.0)">
    <use ffdec:characterId="5" height="26.65" transform="matrix(1.0, 0.0, 0.0, 1.0, -1.5, 2.0)" width="23.75" xlink:href="#shape0"/>
  </g>
  <defs>
    <g id="shape0" transform="matrix(1.0, 0.0, 0.0, 1.0, 1.5, -2.0)">
      <path d="M10.15 4.7 L10.4 4.5 Q10.6 4.3 11.25 4.25 11.65 4.25 11.8 4.4 L11.95 4.75 12.8 4.45 Q13.2 4.45 13.15 5.0 13.15 5.7 12.75 6.55 L12.65 6.75 12.65 6.7 11.8 6.0 10.95 5.25 10.8 5.1 10.45 4.7 10.15 4.7 M12.6 6.9 L12.1 7.95 11.8 8.45 11.5 8.9 11.2 8.4 11.0 7.5 11.05 7.1 11.0 6.75 11.2 6.25 11.8 6.75 12.35 6.95 12.6 6.9 M10.15 11.0 Q10.2 11.8 10.6 11.8 L10.85 11.7 11.1 11.95 Q11.1 12.35 10.65 12.35 10.05 12.35 9.65 11.1 9.65 11.55 9.35 11.55 9.0 11.55 8.9 10.9 L8.85 10.2 8.5 10.35 Q8.15 10.35 8.15 10.0 L8.45 9.55 8.65 9.2 8.3 8.55 8.45 8.05 8.35 7.75 8.15 7.85 8.0 7.8 7.9 7.6 8.0 7.5 7.65 7.5 Q7.35 7.5 7.35 7.2 7.35 6.9 8.1 6.25 L8.45 5.65 Q8.5 5.45 8.9 5.45 L9.95 4.75 9.55 5.4 9.1 5.85 8.7 6.5 Q8.7 6.85 8.95 6.85 L9.55 6.15 9.75 6.7 9.9 7.05 9.85 7.2 9.9 7.6 9.95 7.7 9.6 8.9 Q9.2 9.6 9.75 10.4 L10.15 11.0 M12.5 5.8 L12.5 5.85 12.55 5.45 12.4 5.65 12.5 5.8" fill="#ffffff" fill-rule="evenodd" stroke="none"/>
      <path d="M12.65 6.75 L12.6 6.9 12.35 6.95 11.8 6.75 11.2 6.25 11.2 6.1 11.2 6.05 Q11.2 5.65 11.0 5.6 L11.0 5.4 10.95 5.25 11.8 6.0 12.65 6.7 12.65 6.75 M9.95 4.75 L10.15 4.7 10.45 4.7 10.8 5.1 10.3 5.0 Q9.65 5.0 9.65 5.6 9.45 5.5 9.45 5.8 L9.55 6.15 8.95 6.85 Q8.7 6.85 8.7 6.5 L9.1 5.85 9.55 5.4 9.95 4.75" fill="#838383" fill-rule="evenodd" stroke="none"/>
      <path d="M11.5 8.9 L11.5 9.15 11.1 10.35 10.45 11.25 10.15 11.0 9.75 10.4 Q9.2 9.6 9.6 8.9 L9.95 7.7 9.9 7.6 9.85 7.2 9.9 7.05 9.75 6.7 9.55 6.15 9.45 5.8 Q9.45 5.5 9.65 5.6 9.65 5.0 10.3 5.0 L10.8 5.1 10.95 5.25 11.0 5.4 11.0 5.6 Q11.2 5.65 11.2 6.05 L11.2 6.1 11.2 6.25 11.0 6.75 11.05 7.1 11.0 7.5 11.2 8.4 11.5 8.9" fill="#000000" fill-rule="evenodd" stroke="none"/>
      <path d="M8.2 4.9 L7.8 3.7 Q7.75 3.5 7.85 3.4 L8.05 3.15 Q8.25 2.85 8.35 3.25 L8.4 3.2 8.9 3.0 9.25 3.1 9.45 3.4 10.25 4.55 10.5 4.3 11.6 2.95 11.8 3.0 12.25 3.2 12.35 3.25 Q12.85 3.2 12.9 3.45 L12.65 3.7 12.75 4.1 12.5 5.05 11.8 4.4 11.15 4.0 10.4 4.75 10.45 4.85 10.5 4.9 11.8 5.95 11.85 5.95 12.4 5.45 11.95 6.4 11.8 6.4 11.05 5.85 10.5 5.35 10.3 5.05 10.25 5.05 9.05 6.4 Q8.8 6.4 8.6 5.7 L8.5 5.6 9.05 6.0 10.0 4.9 Q9.65 3.85 9.4 4.2 L9.35 4.15 8.2 4.9" fill="#cccccc" fill-rule="evenodd" stroke="none"/>
      <path d="M12.5 5.05 L12.4 5.45 11.85 5.95 11.8 5.95 10.5 4.9 10.45 4.85 10.4 4.75 11.15 4.0 11.8 4.4 12.5 5.05 M8.5 5.6 L8.2 4.9 9.35 4.15 9.4 4.2 Q9.65 3.85 10.0 4.9 L9.05 6.0 8.5 5.6" fill="#ffffff" fill-rule="evenodd" stroke="none"/>
      <path d="M14.55 5.25 L15.35 6.75 16.75 9.7 17.8 12.3 17.85 12.45 18.85 15.1 19.4 16.0 20.05 17.15 20.5 18.55 20.5 18.65 20.1 19.25 19.75 19.65 Q19.45 19.8 19.6 19.9 L19.65 19.95 19.6 20.5 19.7 21.45 19.65 21.65 19.8 21.95 19.8 22.0 19.75 22.0 19.6 21.85 Q19.35 21.45 19.5 21.8 L19.55 22.0 1.0 21.35 1.15 20.65 1.15 19.95 0.85 19.6 0.1 19.0 -0.1 18.7 -0.15 18.65 -0.25 18.45 -0.3 18.3 0.05 17.25 1.0 15.3 2.8 11.45 3.5 9.5 4.85 6.65 5.45 5.5 6.9 8.7 7.65 10.0 8.6 9.8 7.8 11.05 9.75 13.15 10.85 14.7 10.7 15.1 Q10.35 15.65 10.55 16.5 L10.5 16.55 10.25 16.75 8.5 16.95 7.65 17.1 10.35 17.15 10.4 17.2 10.85 17.35 10.3 17.65 7.0 17.55 2.7 17.7 5.25 17.95 10.15 18.15 Q10.7 17.9 10.75 18.6 L7.1 18.8 2.45 18.3 1.0 18.5 Q0.5 18.7 0.95 19.6 L13.1 21.55 15.85 20.85 Q18.5 20.85 20.05 18.9 L19.95 18.85 Q19.2 18.1 18.15 18.3 L15.3 18.7 11.15 19.4 11.15 19.05 15.1 17.9 Q12.4 17.75 11.45 17.95 L11.3 17.5 11.05 17.15 13.35 17.15 17.15 16.5 18.05 16.05 17.95 15.3 17.7 14.85 13.0 16.2 11.2 16.6 11.5 15.6 11.65 15.55 11.25 14.4 10.35 13.0 10.45 12.95 10.55 12.9 10.25 12.5 10.2 12.45 10.05 12.65 9.95 12.5 9.85 12.4 9.75 12.3 8.75 11.05 8.8 10.95 9.0 9.45 8.05 9.5 8.05 9.4 Q7.6 8.7 7.6 7.9 L6.8 6.4 5.85 4.6 5.85 4.55 5.55 3.8 5.35 3.1 5.35 3.05 5.9 2.85 6.05 2.85 6.1 2.8 7.25 2.35 8.2 2.0 8.15 2.65 Q8.05 3.05 8.5 5.3 L8.6 5.7 Q9.05 7.7 10.25 10.25 L10.3 10.25 11.25 13.1 11.75 14.35 11.8 14.5 11.8 14.2 11.7 13.45 11.45 11.75 11.8 11.3 12.5 10.35 12.6 10.35 12.15 9.55 13.05 9.25 Q13.65 7.35 14.35 5.8 L14.55 5.25 M19.9 22.55 L20.75 23.95 22.1 26.1 Q21.1 27.15 19.45 27.7 L15.8 28.2 12.65 28.0 11.6 25.05 15.6 25.2 Q13.45 25.05 11.35 24.2 L16.2 24.5 18.0 23.85 Q19.15 23.3 19.9 22.55 M10.55 23.8 L10.5 24.3 10.5 24.35 Q7.95 25.85 4.85 25.25 L4.8 25.25 Q7.15 26.65 9.55 25.8 L9.9 25.75 9.2 28.15 Q7.65 28.55 5.9 28.2 L2.15 27.35 Q0.6 26.95 -1.0 25.65 L-1.25 26.05 -1.4 25.95 -1.45 25.95 -1.5 25.9 0.6 22.85 0.75 22.55 Q2.0 23.9 3.3 24.35 L5.95 24.9 8.4 24.8 Q9.55 24.5 10.55 23.8 M10.45 9.9 L10.6 9.6 10.65 9.55 11.8 6.8 11.95 6.3 12.45 4.1 12.5 3.65 12.65 2.15 13.25 2.3 14.25 2.7 14.75 2.85 14.9 2.95 Q15.15 2.95 14.85 3.5 L14.65 3.8 14.45 3.75 14.3 3.9 13.75 5.75 12.2 9.1 12.15 9.15 11.8 9.25 11.4 9.45 11.4 9.55 11.8 10.45 11.75 10.5 11.15 11.2 11.05 11.3 10.45 9.9" fill="#2a2a2a" fill-rule="evenodd" stroke="none"/>
      <path d="M14.55 5.25 L14.35 5.8 Q13.65 7.35 13.05 9.25 L12.15 9.55 12.6 10.35 12.5 10.35 11.8 11.3 11.45 11.75 11.7 13.45 11.8 14.2 11.8 14.5 11.75 14.35 11.25 13.1 10.3 10.25 10.35 10.05 10.45 9.9 11.05 11.3 11.15 11.2 11.75 10.5 11.8 10.45 11.4 9.55 11.4 9.45 11.8 9.25 12.15 9.15 12.2 9.1 13.75 5.75 14.3 3.9 14.45 3.75 14.65 3.8 14.2 4.6 14.25 4.65 14.35 4.8 14.45 5.05 14.55 5.25 M5.85 4.6 L6.8 6.4 7.6 7.9 Q7.6 8.7 8.05 9.4 L8.05 9.5 9.0 9.45 8.8 10.95 8.75 11.05 9.75 12.3 9.85 12.4 9.95 12.5 10.05 12.65 10.2 12.45 10.25 12.5 10.55 12.9 10.45 12.95 10.35 13.0 11.25 14.4 11.65 15.55 11.5 15.6 11.2 16.6 13.0 16.2 17.7 14.85 17.95 15.3 18.05 16.05 17.15 16.5 13.35 17.15 11.05 17.15 11.3 17.5 11.45 17.95 Q12.4 17.75 15.1 17.9 L11.15 19.05 11.15 19.4 15.3 18.7 18.15 18.3 Q19.2 18.1 19.95 18.85 L20.05 18.9 Q18.5 20.85 15.85 20.85 L13.1 21.55 0.95 19.6 Q0.5 18.7 1.0 18.5 L2.45 18.3 7.1 18.8 10.75 18.6 Q10.7 17.9 10.15 18.15 L5.25 17.95 2.7 17.7 7.0 17.55 10.3 17.65 10.85 17.35 10.4 17.2 10.35 17.15 7.65 17.1 8.5 16.95 10.25 16.75 10.5 16.55 10.55 16.5 Q10.35 15.65 10.7 15.1 L10.85 14.7 9.75 13.15 7.8 11.05 8.6 9.8 7.65 10.0 6.9 8.7 5.45 5.5 5.85 4.65 5.85 4.6 M1.0 21.35 L19.55 22.0 19.9 22.55 Q19.15 23.3 18.0 23.85 L16.2 24.5 11.35 24.2 Q13.45 25.05 15.6 25.2 L11.6 25.05 12.65 28.0 15.8 28.2 19.45 27.7 Q21.1 27.15 22.1 26.1 L22.25 26.3 20.9 27.25 18.1 28.3 12.7 28.55 12.5 28.55 10.9 24.3 10.75 23.75 10.75 23.7 10.6 23.15 10.55 23.8 Q9.55 24.5 8.4 24.8 L5.95 24.9 3.3 24.35 Q2.0 23.9 0.75 22.55 L0.6 22.4 0.75 22.3 0.85 22.1 1.0 21.35 M10.5 24.35 L10.25 25.6 10.2 25.6 9.55 28.5 3.4 28.15 Q0.5 27.45 -0.25 26.9 L-1.35 26.05 -1.45 25.95 -1.4 25.95 -1.25 26.05 -1.0 25.65 Q0.6 26.95 2.15 27.35 L5.9 28.2 Q7.65 28.55 9.2 28.15 L9.9 25.75 9.55 25.8 Q7.15 26.65 4.8 25.25 L4.85 25.25 Q7.95 25.85 10.5 24.35" fill="#121212" fill-rule="evenodd" stroke="none"/>
      <path d="M10.7 22.55 L10.75 22.45 10.8 22.45 10.85 22.35 Q10.85 22.05 11.05 22.25 L11.2 22.45 11.2 22.55 11.1 22.55 11.1 22.5 10.7 22.55 M11.4 24.05 L11.45 24.25 11.45 24.3 11.55 24.5 10.9 24.2 10.85 24.15 11.4 24.05 M12.1 25.9 L12.4 26.55 13.5 28.55 12.45 28.5 11.8 26.8 11.45 25.85 11.8 25.9 12.1 25.9 M10.75 25.65 L10.45 27.0 10.15 28.4 9.1 28.55 9.25 28.5 9.75 27.0 9.9 26.45 10.1 25.8 10.75 25.65" fill="#ffffff" fill-rule="evenodd" stroke="none"/>
      <path d="M11.2 22.55 L11.25 22.95 11.2 23.3 11.2 23.5 11.4 24.05 10.85 24.15 10.9 24.2 11.55 24.5 11.7 24.85 11.7 24.9 11.8 25.15 11.9 25.3 12.1 25.9 11.8 25.9 11.45 25.85 11.15 25.15 11.0 24.7 10.95 24.6 10.9 24.9 10.85 25.2 10.85 25.25 10.75 25.65 10.1 25.8 10.2 25.3 10.35 24.7 10.5 24.1 10.5 24.05 10.55 23.8 10.6 23.55 10.6 23.5 10.55 23.3 10.5 22.9 10.65 22.55 10.7 22.55 11.1 22.5 11.1 22.55 11.2 22.55" fill="#a6a6a6" fill-rule="evenodd" stroke="none"/>
      <path d="M14.3 3.45 L14.3 3.35 14.45 2.65 15.05 3.0 14.95 3.4 14.8 3.65 14.3 3.45 M13.7 6.6 L13.6 6.9 12.65 9.05 11.65 9.45 12.1 10.35 12.05 10.5 11.75 10.95 Q11.3 11.3 11.25 10.85 L11.6 10.4 11.1 9.2 12.35 8.7 13.3 6.45 13.7 6.6 M6.2 3.7 L5.55 3.8 5.35 3.1 5.35 3.05 5.9 2.85 6.2 3.7 M6.45 6.35 L7.1 6.2 7.95 8.65 8.15 9.25 9.55 9.25 8.9 10.95 9.95 12.1 10.0 12.15 10.25 12.45 11.5 13.85 10.85 14.0 8.25 10.95 8.95 9.7 9.0 9.6 7.9 9.8 6.9 7.5 6.45 6.35 M11.75 14.65 L11.6 15.5 11.6 15.75 10.95 15.6 11.1 14.75 11.75 14.65 M11.6 17.6 L11.6 19.0 11.4 19.0 10.95 18.9 10.95 18.65 10.95 18.6 11.05 17.35 11.6 17.6" fill="#ffffff" fill-rule="evenodd" stroke="none"/>
      <path d="M14.3 3.45 L14.8 3.65 14.45 4.4 14.2 5.25 13.7 6.6 13.3 6.45 13.65 5.4 14.3 3.45 M11.75 10.95 L10.95 12.1 10.75 11.65 10.7 11.5 11.2 10.95 11.25 10.85 Q11.3 11.3 11.75 10.95 M5.55 3.8 L6.2 3.7 7.1 6.2 6.45 6.35 5.85 4.65 5.85 4.55 5.55 3.8 M11.5 13.85 L11.8 14.2 11.8 14.35 11.75 14.65 11.1 14.75 11.1 14.7 11.15 14.4 10.85 14.0 11.5 13.85 M11.6 15.75 L11.6 16.0 11.7 16.4 Q11.55 15.5 11.6 17.2 L11.6 17.6 11.05 17.35 11.1 16.7 11.1 16.55 10.95 15.75 10.95 15.6 11.6 15.75 M11.6 19.0 L11.6 20.15 11.55 19.65 11.45 19.7 11.25 19.65 11.2 19.65 10.95 19.65 10.9 20.2 10.95 18.9 11.4 19.0 11.6 19.0" fill="#a6a6a6" fill-rule="evenodd" stroke="none"/>
      <path d="M12.4 10.4 L12.55 11.05 Q12.9 12.15 13.3 12.3 13.85 12.7 14.75 12.75 L16.2 12.5 16.7 11.8 16.55 10.85 16.0 10.05 14.65 10.1 14.35 10.15 13.4 10.2 12.4 10.4 M12.1 10.3 L12.25 10.1 13.15 10.05 13.55 10.05 13.85 10.05 14.35 9.95 16.25 9.9 16.75 10.75 17.05 11.8 16.75 12.55 17.25 13.8 Q17.35 14.1 16.95 14.4 L15.9 14.65 13.7 14.65 Q13.1 14.55 13.0 14.05 L12.85 13.3 12.6 12.45 12.35 11.55 12.4 11.5 12.3 11.3 12.1 10.3 M3.55 9.9 L5.45 9.95 5.95 10.05 6.25 10.05 6.65 10.05 7.55 10.1 7.7 10.3 7.5 11.3 7.4 11.5 7.45 11.55 7.2 12.45 6.95 13.3 6.8 14.05 Q6.7 14.55 6.1 14.65 L3.9 14.65 2.85 14.4 Q2.45 14.1 2.55 13.8 L3.05 12.55 Q2.75 12.2 2.75 11.8 L3.05 10.75 Q3.25 10.1 3.55 9.9 M3.25 10.85 Q3.05 11.35 3.1 11.8 3.1 12.2 3.6 12.5 L5.05 12.75 Q5.95 12.7 6.5 12.3 6.9 12.15 7.25 11.05 L7.4 10.4 6.4 10.2 5.45 10.15 5.15 10.1 3.8 10.05 3.25 10.85 M6.85 12.6 L6.55 12.75 5.1 13.0 5.25 12.95 5.0 12.95 3.25 12.7 2.85 13.8 4.05 14.35 5.35 14.4 Q6.15 14.5 6.45 14.0 L6.75 13.05 6.85 12.6 M16.95 13.8 L16.55 12.7 14.8 12.95 14.55 12.95 14.7 13.0 13.25 12.75 12.95 12.6 13.05 13.05 13.35 14.0 Q13.65 14.5 14.45 14.4 L15.75 14.35 16.95 13.8" fill="#000000" fill-rule="evenodd" stroke="none"/>
      <path d="M14.7 11.6 L14.8 11.35 15.0 11.4 15.2 11.45 15.2 11.6 14.85 11.8 14.7 11.65 14.7 11.6 M5.1 11.7 L5.2 11.45 5.4 11.5 5.6 11.55 5.6 11.7 5.25 11.9 5.1 11.75 5.1 11.7 M10.1 15.3 L10.1 15.5 9.8 15.7 9.6 15.5 9.65 15.35 9.7 15.3 10.0 15.25 10.1 15.3 M9.55 18.15 L9.65 17.9 9.85 17.95 10.05 18.0 10.05 18.15 9.7 18.35 9.55 18.2 9.55 18.15" fill="#ffffff" fill-rule="evenodd" stroke="none"/>
      <path d="M14.7 11.6 L14.5 11.55 14.45 11.3 Q14.25 11.4 14.3 11.8 L14.25 11.7 Q13.9 11.25 14.3 10.75 L14.35 10.7 14.5 10.7 14.55 10.7 Q14.3 10.95 14.55 11.15 L14.7 11.05 Q14.85 11.0 15.05 11.25 L15.15 11.2 15.0 11.4 14.8 11.35 14.7 11.6 M5.1 11.7 L4.9 11.65 4.85 11.4 Q4.65 11.5 4.7 11.9 L4.65 11.8 Q4.3 11.35 4.7 10.85 L4.75 10.8 4.9 10.8 4.95 10.8 Q4.7 11.05 4.95 11.25 L5.1 11.15 Q5.25 11.1 5.45 11.35 L5.55 11.3 5.4 11.5 5.2 11.45 5.1 11.7 M9.7 15.3 L9.45 15.2 9.4 15.15 Q9.3 15.4 9.45 15.65 L9.3 15.55 9.25 15.5 Q8.95 15.25 9.2 14.9 9.5 14.5 9.8 14.5 10.05 14.5 10.35 14.85 L9.85 14.65 9.7 14.9 Q9.55 15.1 10.15 15.05 L10.15 15.15 10.1 15.3 10.0 15.25 9.7 15.3 M9.55 18.15 L9.35 18.1 9.3 17.85 Q9.1 17.95 9.15 18.35 L9.1 18.25 Q8.75 17.8 9.15 17.3 L9.2 17.25 9.35 17.25 9.4 17.25 Q9.15 17.5 9.4 17.7 L9.55 17.6 Q9.7 17.55 9.9 17.8 L10.0 17.75 9.85 17.95 9.65 17.9 9.55 18.15" fill="#ffd88e" fill-rule="evenodd" stroke="none"/>
      <path d="M14.8 10.55 Q15.15 10.55 15.3 10.75 L15.5 11.0 15.45 11.25 15.5 11.35 15.45 11.6 15.4 11.65 15.3 11.8 15.25 11.9 14.6 12.0 14.4 12.0 Q13.85 11.8 13.9 11.2 13.95 10.4 14.7 10.5 L14.8 10.55 M15.0 11.4 L15.15 11.2 15.05 11.25 Q14.85 11.0 14.7 11.05 L14.55 11.15 Q14.3 10.95 14.55 10.7 L14.5 10.7 14.35 10.7 14.3 10.75 Q13.9 11.25 14.25 11.7 L14.3 11.8 Q14.25 11.4 14.45 11.3 L14.5 11.55 14.7 11.6 14.7 11.65 14.85 11.8 15.2 11.6 15.2 11.45 15.0 11.4 M5.4 11.5 L5.55 11.3 5.45 11.35 Q5.25 11.1 5.1 11.15 L4.95 11.25 Q4.7 11.05 4.95 10.8 L4.9 10.8 4.75 10.8 4.7 10.85 Q4.3 11.35 4.65 11.8 L4.7 11.9 Q4.65 11.5 4.85 11.4 L4.9 11.65 5.1 11.7 5.1 11.75 5.25 11.9 5.6 11.7 5.6 11.55 5.4 11.5 M4.8 12.1 Q4.25 11.9 4.3 11.3 4.35 10.5 5.1 10.6 L5.2 10.65 5.7 10.85 5.9 11.1 5.85 11.35 5.9 11.45 5.85 11.7 5.8 11.75 5.7 11.9 5.65 12.0 5.0 12.1 4.8 12.1 M9.7 15.3 L9.65 15.35 9.6 15.5 9.8 15.7 10.1 15.5 10.1 15.3 10.15 15.15 10.15 15.05 Q9.55 15.1 9.7 14.9 L9.85 14.65 10.35 14.85 Q10.05 14.5 9.8 14.5 9.5 14.5 9.2 14.9 8.95 15.25 9.25 15.5 L9.3 15.55 9.45 15.65 Q9.3 15.4 9.4 15.15 L9.45 15.2 9.7 15.3 M9.85 14.4 L10.3 14.65 10.45 14.95 10.45 15.0 10.45 15.3 10.4 15.55 10.4 15.65 10.3 15.75 10.3 15.85 10.15 15.85 10.15 15.9 9.9 16.05 9.75 16.05 Q9.3 16.0 9.05 15.7 L8.9 14.9 Q9.05 14.2 9.85 14.4 M9.65 17.1 L10.15 17.3 10.35 17.55 10.3 17.8 10.35 17.9 10.3 18.15 10.25 18.2 10.15 18.35 10.1 18.45 9.45 18.55 9.25 18.55 Q8.7 18.35 8.75 17.75 8.8 16.95 9.55 17.05 L9.65 17.1 M9.85 17.95 L10.0 17.75 9.9 17.8 Q9.7 17.55 9.55 17.6 L9.4 17.7 Q9.15 17.5 9.4 17.25 L9.35 17.25 9.2 17.25 9.15 17.3 Q8.75 17.8 9.1 18.25 L9.15 18.35 Q9.1 17.95 9.3 17.85 L9.35 18.1 9.55 18.15 9.55 18.2 9.7 18.35 10.05 18.15 10.05 18.0 9.85 17.95" fill="#a87b0d" fill-rule="evenodd" stroke="none"/>
      <path d="M12.45 15.15 L15.05 17.5 Q14.75 18.25 13.7 18.45 L12.75 17.65 11.0 16.1 12.45 15.15 M17.25 19.1 L18.0 19.6 18.3 19.55 19.75 19.35 19.75 19.45 20.0 22.5 18.75 22.75 18.45 21.1 Q18.45 21.2 18.55 21.15 L18.75 21.15 18.95 20.95 18.75 20.65 18.65 20.6 Q18.45 20.65 18.4 20.75 L18.4 20.65 18.4 19.85 17.95 19.9 17.85 19.9 17.75 19.95 17.3 20.05 17.4 19.9 16.35 20.05 15.95 20.1 17.1 19.15 17.25 19.1 M15.35 23.2 L14.95 23.25 12.35 23.45 12.45 22.65 12.5 21.9 12.5 21.7 12.4 20.05 15.15 19.85 15.25 19.85 15.45 19.85 15.75 20.1 15.8 20.1 15.85 20.1 15.45 20.15 15.4 22.9 15.35 23.2 M8.15 23.45 L4.75 23.2 4.5 21.7 4.65 21.7 4.8 21.35 4.5 21.1 4.45 21.1 4.45 20.2 4.45 20.15 3.8 20.1 3.45 20.05 3.15 20.05 3.1 20.05 3.05 20.0 3.05 20.05 1.35 19.9 1.05 22.5 1.05 22.6 0.5 22.5 0.7 19.45 1.35 19.55 4.5 19.85 8.1 20.05 7.95 21.5 7.95 21.7 7.95 21.8 7.95 22.1 8.0 22.55 8.15 23.45 M15.05 19.4 L15.0 19.4 15.1 19.4 15.05 19.4 M7.5 12.15 L5.75 9.0 Q4.65 6.7 4.45 5.2 4.2 3.65 4.45 3.6 L5.4 3.3 5.4 3.35 5.55 3.8 5.85 4.55 5.85 4.65 6.45 6.35 6.9 7.5 7.9 9.8 8.3 9.75 8.65 10.35 8.25 10.95 8.7 11.5 7.5 12.15 M8.8 20.05 L8.85 20.05 8.95 20.05 11.75 20.05 12.05 20.05 12.1 20.05 12.15 20.05 12.2 21.2 12.2 21.75 12.2 21.85 12.15 22.7 12.1 23.25 Q10.4 23.55 8.85 23.25 L8.75 22.65 8.7 22.15 8.7 22.0 8.7 21.95 8.65 21.85 8.75 21.85 10.35 21.9 10.7 21.8 10.9 21.55 10.7 21.4 10.45 21.35 9.1 21.45 9.05 21.45 8.7 21.35 8.7 21.2 8.7 21.15 8.8 20.05 M6.8 21.85 L6.95 21.5 6.65 21.25 6.55 21.3 Q6.4 21.35 6.4 21.55 L6.6 21.85 6.8 21.85 M14.1 21.9 L14.3 21.9 14.5 21.55 14.35 21.3 14.25 21.3 13.9 21.55 14.1 21.9 M10.95 20.25 L10.95 20.5 11.1 22.0 10.95 23.05 11.05 23.25 11.7 23.25 11.7 22.85 11.75 22.15 11.8 21.0 11.75 20.3 10.95 20.25 M17.95 19.85 L18.4 19.8 18.35 19.7 17.95 19.85 M15.45 19.35 L16.5 19.2 15.8 19.85 15.5 19.65 15.3 19.45 15.45 19.35" fill="#000000" fill-rule="evenodd" stroke="none"/>
      <path d="M5.9 2.85 L6.05 2.85 6.1 2.8 7.25 2.35 8.2 2.0 8.15 2.65 Q8.05 3.05 8.5 5.3 L8.6 5.7 Q9.05 7.7 10.25 10.25 L10.3 10.25 11.25 13.1 11.6 13.95 11.55 13.95 11.5 13.85 11.15 13.5 11.1 13.4 10.25 12.45 10.0 12.15 9.95 12.1 8.9 10.95 9.55 9.25 8.15 9.25 7.95 8.65 7.1 6.2 6.2 3.7 6.15 3.55 6.0 3.05 5.9 2.85" fill="#2a2a2a" fill-rule="evenodd" stroke="none"/>
      <path d="M18.75 22.75 L18.2 22.85 Q17.8 21.5 17.85 20.6 L17.75 19.95 17.85 19.9 17.95 19.9 18.4 19.85 18.4 20.65 18.4 20.75 18.4 20.9 18.45 21.1 18.75 22.75 M17.45 22.95 L15.35 23.2 15.4 22.9 15.45 20.15 15.85 20.1 15.85 20.15 15.95 20.1 16.35 20.05 17.4 19.9 17.3 20.05 Q16.9 20.75 17.45 22.95 M4.75 23.2 L3.85 23.1 Q3.6 21.7 3.85 20.3 L3.85 20.25 3.15 20.05 3.45 20.05 3.8 20.1 4.45 20.15 4.45 20.2 4.45 21.1 4.4 21.15 Q4.25 21.2 4.25 21.4 L4.45 21.7 4.5 21.7 4.75 23.2 M2.85 22.95 L2.45 22.85 1.05 22.6 1.05 22.5 1.35 19.9 3.05 20.05 2.85 22.95 M2.05 20.9 Q1.9 20.95 1.9 21.15 L2.1 21.4 2.3 21.4 2.45 21.1 2.15 20.85 2.05 20.9 M10.95 20.25 L11.75 20.3 11.8 21.0 11.75 22.15 11.7 22.85 11.7 23.25 11.05 23.25 10.95 23.05 11.1 22.0 10.95 20.5 10.95 20.25 M17.95 19.85 L18.35 19.7 18.4 19.8 17.95 19.85 M16.5 21.05 L16.4 21.05 Q16.1 21.0 16.1 21.25 16.1 21.55 16.25 21.65 L16.5 21.55 16.65 21.3 16.5 21.05" fill="#202020" fill-rule="evenodd" stroke="none"/>
      <path d="M18.2 22.85 L17.6 22.95 17.45 22.95 Q16.9 20.75 17.3 20.05 L17.75 19.95 17.85 20.6 Q17.8 21.5 18.2 22.85 M3.85 23.1 L2.85 22.95 3.05 20.05 3.05 20.0 3.1 20.05 3.15 20.05 3.85 20.25 3.85 20.3 Q3.6 21.7 3.85 23.1" fill="#414141" fill-rule="evenodd" stroke="none"/>
      <path d="M4.45 21.1 L4.5 21.1 4.8 21.35 4.65 21.7 4.65 21.3 4.45 21.15 4.4 21.15 4.45 21.1 M2.05 20.9 L2.15 20.85 2.45 21.1 2.3 21.4 2.3 21.05 2.05 20.9 M10.7 21.8 L10.35 21.9 8.75 21.85 8.65 21.85 8.7 21.95 8.7 22.0 8.7 22.15 8.75 22.65 8.2 22.6 8.0 22.55 7.95 22.1 7.95 21.8 7.95 21.7 8.05 21.7 10.7 21.8 M12.15 22.7 L12.2 21.85 12.5 21.9 12.45 22.65 12.15 22.7 M6.8 21.85 L6.8 21.45 6.55 21.3 6.65 21.25 6.95 21.5 6.8 21.85 M14.35 21.3 L14.05 21.5 14.1 21.9 13.9 21.55 14.25 21.3 14.35 21.3 M18.4 20.75 Q18.45 20.65 18.65 20.6 L18.75 20.65 18.55 20.8 18.55 21.15 Q18.45 21.2 18.45 21.1 L18.4 20.9 18.4 20.75 M16.25 21.65 Q16.1 21.55 16.1 21.25 16.1 21.0 16.4 21.05 L16.5 21.05 Q16.3 21.05 16.25 21.25 L16.25 21.65" fill="#646464" fill-rule="evenodd" stroke="none"/>
      <path d="M5.9 2.85 L6.0 3.05 6.15 3.55 6.2 3.7 6.1 3.75 5.55 3.8 5.4 3.35 5.4 3.3 5.35 3.1 5.35 3.05 5.9 2.85 M7.1 6.2 L7.95 8.65 8.15 9.25 9.55 9.25 8.9 10.95 9.95 12.1 10.0 12.15 10.25 12.45 11.1 13.4 11.15 13.5 11.5 13.85 11.45 13.9 11.2 13.75 10.9 13.55 9.95 12.8 9.7 12.55 8.7 11.5 8.25 10.95 8.65 10.35 8.95 9.7 9.0 9.6 8.3 9.75 7.9 9.8 6.9 7.5 6.45 6.35 6.7 6.3 6.75 6.25 7.1 6.2 M16.2 18.4 L16.25 18.35 16.35 18.4 16.6 18.65 16.6 18.7 16.7 19.05 16.2 18.65 15.45 19.35 15.3 19.45 15.5 19.65 15.45 19.65 15.3 19.75 15.0 19.45 15.05 19.4 15.1 19.4 16.2 18.4 M8.1 20.05 L8.15 19.8 8.2 19.75 Q10.35 19.3 12.35 19.75 L12.4 20.05 12.5 21.7 12.2 21.75 12.2 21.2 12.15 20.05 12.1 20.05 Q10.3 19.75 8.95 20.05 L8.85 20.05 8.8 20.05 8.55 20.05 8.45 20.5 Q8.4 20.95 8.5 21.25 L8.45 21.25 8.1 21.35 8.2 21.45 8.5 21.55 8.6 21.55 10.7 21.4 10.9 21.55 10.7 21.8 8.05 21.7 7.95 21.5 8.1 20.05 M9.4 14.85 L8.8 14.25 8.3 13.45 Q8.35 13.35 8.45 13.35 L8.9 13.0 9.05 12.95 9.15 13.1 8.6 13.5 8.55 13.5 8.95 14.0 9.35 14.4 9.6 14.6 9.45 14.45 9.7 14.5 10.4 13.95 10.55 14.2 9.4 14.85 M9.45 12.7 L9.6 12.85 9.55 12.9 9.65 13.0 9.9 13.4 9.85 13.45 9.75 13.5 9.0 12.6 9.4 12.7 9.45 12.7 M4.65 21.7 L4.5 21.7 4.45 21.7 4.25 21.4 Q4.25 21.2 4.4 21.15 L4.45 21.15 4.65 21.3 4.65 21.7 M2.3 21.4 L2.1 21.4 1.9 21.15 Q1.9 20.95 2.05 20.9 L2.3 21.05 2.3 21.4 M6.55 21.3 L6.8 21.45 6.8 21.85 6.6 21.85 6.4 21.55 Q6.4 21.35 6.55 21.3 M14.35 21.3 L14.5 21.55 14.3 21.9 14.1 21.9 14.05 21.5 14.35 21.3 M18.75 20.65 L18.95 20.95 18.75 21.15 18.55 21.15 18.55 20.8 18.75 20.65 M16.5 21.05 L16.65 21.3 16.5 21.55 16.25 21.65 16.25 21.25 Q16.3 21.05 16.5 21.05" fill="#ffffff" fill-rule="evenodd" stroke="none"/>
      <path d="M6.2 3.7 L7.1 6.2 6.75 6.25 6.7 6.3 6.45 6.35 5.85 4.65 5.85 4.55 5.55 3.8 6.1 3.75 6.2 3.7 M11.5 13.85 L11.55 13.95 11.5 13.95 11.45 13.9 11.5 13.85 M16.6 18.65 L16.7 18.75 16.8 18.85 17.1 19.1 17.05 19.1 17.1 19.15 15.95 20.1 15.85 20.15 15.85 20.1 15.8 20.1 15.75 20.1 15.45 19.85 15.3 19.75 15.45 19.65 15.5 19.65 15.8 19.85 16.5 19.2 16.6 19.15 16.7 19.05 16.6 18.7 16.6 18.65 M12.35 23.45 L11.65 23.55 8.2 23.45 8.15 23.45 8.0 22.55 8.2 22.6 8.75 22.65 8.85 23.25 Q10.4 23.55 12.1 23.25 L12.15 22.7 12.45 22.65 12.35 23.45 M9.8 14.85 L9.6 14.95 9.4 14.85 10.55 14.2 10.4 13.95 10.45 13.9 10.9 13.55 11.2 13.75 11.05 13.95 10.65 14.25 10.6 14.3 9.8 14.85 M9.7 12.55 L9.95 12.8 9.65 13.0 9.55 12.9 9.6 12.85 9.45 12.7 9.7 12.55 M9.85 13.45 L9.7 13.6 9.3 13.25 8.8 13.6 9.45 14.4 9.45 14.45 9.6 14.6 9.35 14.4 8.95 14.0 8.55 13.5 8.6 13.5 9.15 13.1 9.05 12.95 8.9 12.6 9.0 12.6 9.75 13.5 9.85 13.45 M12.2 21.75 L12.5 21.7 12.5 21.9 12.2 21.85 12.2 21.75 M10.7 21.4 L8.6 21.55 8.5 21.55 8.2 21.45 8.1 21.35 8.45 21.25 8.5 21.25 Q8.4 20.95 8.45 20.5 L8.55 20.05 8.8 20.05 8.7 21.15 8.7 21.2 8.7 21.35 9.05 21.45 9.1 21.45 10.45 21.35 10.7 21.4 M7.95 21.7 L7.95 21.5 8.05 21.7 7.95 21.7" fill="#a6a6a6" fill-rule="evenodd" stroke="none"/>
      <path d="M11.2 13.75 L12.45 15.15 11.0 16.1 10.05 15.15 9.8 14.85 10.6 14.3 10.65 14.25 11.05 13.95 11.2 13.75 M15.05 17.5 L16.05 18.3 16.2 18.4 15.1 19.4 15.0 19.4 14.7 19.2 14.25 18.85 13.7 18.45 Q14.75 18.25 15.05 17.5 M16.7 18.75 L17.25 19.1 17.1 19.15 17.05 19.1 17.1 19.1 16.8 18.85 16.7 18.75 M8.45 13.35 L7.65 12.35 7.5 12.15 8.7 11.5 9.7 12.55 9.45 12.7 9.4 12.7 9.0 12.6 8.9 12.6 9.05 12.95 8.9 13.0 8.45 13.35 M9.95 12.8 L10.9 13.55 10.45 13.9 10.4 13.95 9.7 14.5 9.45 14.45 9.45 14.4 8.8 13.6 9.3 13.25 9.7 13.6 9.85 13.45 9.9 13.4 9.65 13.0 9.95 12.8 M16.7 19.05 L16.6 19.15 16.5 19.2 15.45 19.35 16.2 18.65 16.7 19.05" fill="#171717" fill-rule="evenodd" stroke="none"/>
      <path d="M12.65 11.1 L12.8 11.05 12.85 11.05 12.8 11.0 12.7 10.35 12.25 9.9 12.2 9.85 12.4 9.65 12.8 9.8 13.0 9.95 Q13.4 10.3 13.2 10.65 L13.2 10.8 13.2 10.85 13.1 11.0 13.0 11.1 12.95 11.4 12.95 11.45 13.05 11.75 13.25 11.95 13.6 12.0 13.7 12.05 13.95 12.75 13.75 12.9 13.7 12.95 13.7 13.0 13.75 13.1 13.75 13.15 Q13.7 13.45 13.8 13.55 L14.15 13.75 14.2 13.75 14.4 13.6 14.6 13.55 14.95 13.8 15.2 14.1 15.3 14.3 15.2 14.35 15.2 14.6 15.2 14.65 15.35 14.95 15.5 15.05 15.8 15.05 15.9 15.05 16.0 14.95 16.05 14.9 16.2 14.95 16.2 14.9 16.4 14.7 16.45 14.65 16.55 14.65 17.0 14.75 17.1 14.8 17.2 14.95 17.25 15.05 17.25 15.15 17.15 15.2 17.35 15.25 17.4 15.3 17.85 15.25 17.9 15.2 18.05 14.95 18.1 14.9 18.25 14.8 19.2 14.75 19.3 14.9 19.3 14.95 19.1 14.95 19.3 15.1 19.25 15.2 19.15 15.1 18.65 15.0 18.5 15.1 18.45 15.2 18.35 15.5 18.2 15.5 18.25 15.6 18.15 15.6 18.05 15.7 17.6 15.8 17.15 15.6 16.95 15.55 17.0 15.35 17.05 15.25 17.05 15.2 16.9 15.05 Q16.7 14.85 16.45 15.05 L16.35 15.2 16.3 15.25 16.25 15.15 16.2 15.3 16.15 15.35 15.45 15.4 15.0 15.2 14.8 14.85 14.75 14.75 14.8 14.6 14.8 14.55 14.75 14.35 14.65 14.2 14.55 14.0 14.45 14.0 14.25 14.05 14.2 14.05 14.1 14.15 13.45 13.85 13.25 13.25 Q13.2 13.1 13.3 13.05 L13.4 12.95 13.4 12.65 13.45 12.55 13.45 12.4 13.35 12.35 13.1 12.15 12.95 12.15 12.7 12.0 Q12.45 11.8 12.5 11.45 12.45 11.2 12.65 11.1" fill="#580000" fill-rule="evenodd" stroke="none"/>
      <path d="M12.65 11.1 L12.55 11.0 Q12.3 10.8 12.2 10.3 L12.25 10.1 12.25 9.9 12.7 10.35 12.8 11.0 12.85 11.05 12.8 11.05 12.65 11.1 M13.2 10.8 L13.3 10.9 13.5 11.25 13.5 11.65 13.45 11.75 13.45 11.85 13.5 11.9 13.6 12.0 13.25 11.95 13.05 11.75 12.95 11.45 12.95 11.4 13.0 11.1 13.1 11.0 13.2 10.85 13.2 10.8 M13.95 12.75 L14.1 12.85 14.35 13.3 14.4 13.6 14.2 13.75 14.15 13.75 13.8 13.55 Q13.7 13.45 13.75 13.15 L13.75 13.1 13.7 13.0 13.7 12.95 13.75 12.9 13.95 12.75 M15.3 14.3 L15.4 14.25 15.4 14.3 16.0 14.5 16.2 14.65 16.2 14.7 16.25 14.7 16.3 14.7 16.35 14.7 16.4 14.7 16.2 14.9 16.2 14.95 16.05 14.9 16.0 14.95 15.9 15.05 15.8 15.05 15.5 15.05 15.35 14.95 15.2 14.65 15.2 14.6 15.2 14.35 15.3 14.3 M17.1 14.8 L17.3 14.65 17.85 14.75 17.95 14.85 18.05 14.95 17.9 15.2 17.85 15.25 17.4 15.3 17.35 15.25 17.15 15.2 17.25 15.15 17.25 15.05 17.2 14.95 17.1 14.8 M19.25 15.2 L19.1 15.3 18.6 15.5 18.35 15.5 18.45 15.2 18.5 15.1 18.65 15.0 19.15 15.1 19.25 15.2 M16.95 15.55 L16.95 15.6 16.65 15.6 16.45 15.55 16.25 15.45 16.25 15.4 16.2 15.3 16.25 15.15 16.3 15.25 16.35 15.2 16.45 15.05 Q16.7 14.85 16.9 15.05 L17.05 15.2 17.05 15.25 17.0 15.35 16.95 15.55 M14.75 14.75 Q14.7 14.8 14.55 14.65 L14.45 14.55 14.35 14.45 14.15 14.2 14.1 14.15 14.2 14.05 14.25 14.05 14.45 14.0 14.55 14.0 14.65 14.2 14.75 14.35 14.8 14.55 14.8 14.6 14.75 14.75 M13.3 13.05 L13.05 13.0 Q12.85 12.8 12.9 12.4 L12.95 12.15 13.1 12.15 13.35 12.35 13.45 12.4 13.45 12.55 13.4 12.65 13.4 12.95 13.3 13.05" fill="#facd62" fill-rule="evenodd" stroke="none"/>
    </g>
  </defs>
</svg>
