<?xml version="1.0" encoding="UTF-8" standalone="no"?>
<svg xmlns:ffdec="https://www.free-decompiler.com/flash" xmlns:xlink="http://www.w3.org/1999/xlink" ffdec:objectType="frame" height="11.65px" width="10.35px" xmlns="http://www.w3.org/2000/svg">
  <g transform="matrix(1.0, 0.0, 0.0, 1.0, 0.4, -2.7)">
    <use ffdec:characterId="3" height="11.65" transform="matrix(1.0, 0.0, 0.0, 1.0, -0.4, 2.7)" width="10.35" xlink:href="#shape0"/>
  </g>
  <defs>
    <g id="shape0" transform="matrix(1.0, 0.0, 0.0, 1.0, 0.4, -2.7)">
      <path d="M4.75 5.75 L7.55 9.8 9.3 10.6 9.1 11.15 9.7 11.35 9.65 11.95 9.95 12.15 9.95 12.2 9.45 13.4 Q8.45 14.85 5.85 14.05 L5.5 13.3 4.85 12.7 4.8 11.65 4.45 10.65 3.05 8.0 1.15 5.15 Q0.1 4.25 -0.4 2.7 2.0 2.8 2.85 3.5 3.4 3.95 4.75 5.75" fill="url(#gradient0)" fill-rule="evenodd" stroke="none"/>
      <path d="M5.25 12.25 L6.6 12.3 6.35 12.65 5.55 12.8 Q5.7 12.5 5.5 12.35 L5.25 12.25 M8.35 10.7 L7.75 11.45 8.6 11.25 Q7.9 11.85 7.1 11.95 7.1 11.6 7.75 11.1 L8.35 10.7 M7.15 12.75 L9.15 11.75 7.45 12.9 Q7.7 13.3 9.15 12.2 8.2 13.45 6.7 13.6 L7.15 12.75" fill="#000000" fill-opacity="0.49803922" fill-rule="evenodd" stroke="none"/>
      <path d="M3.05 8.0 L1.15 5.15 Q0.1 4.25 -0.4 2.7 L0.7 2.8 8.25 14.25 5.85 14.05 5.5 13.3 4.85 12.7 4.8 11.65 4.45 10.65 3.05 8.0" fill="#000000" fill-opacity="0.49803922" fill-rule="evenodd" stroke="none"/>
    </g>
    <radialGradient cx="0" cy="0" gradientTransform="matrix(0.0141, 0.0, 0.0, 0.0141, 8.9, 13.2)" gradientUnits="userSpaceOnUse" id="gradient0" r="819.2" spreadMethod="pad">
      <stop offset="0.16862745098039217" stop-color="#bd2149"/>
      <stop offset="1.0" stop-color="#661d28"/>
    </radialGradient>
  </defs>
</svg>
