<?xml version="1.0" encoding="UTF-8" standalone="no"?>
<svg xmlns:ffdec="https://www.free-decompiler.com/flash" xmlns:xlink="http://www.w3.org/1999/xlink" ffdec:objectType="frame" height="25.1px" width="23.55px" xmlns="http://www.w3.org/2000/svg">
  <g transform="matrix(1.0, 0.0, 0.0, 1.0, 0.05, -4.5)">
    <use ffdec:characterId="1" height="25.1" transform="matrix(1.0, 0.0, 0.0, 1.0, -0.05, 4.5)" width="23.55" xlink:href="#shape0"/>
  </g>
  <defs>
    <g id="shape0" transform="matrix(1.0, 0.0, 0.0, 1.0, 0.05, -4.5)">
      <path d="M8.2 10.8 L8.15 10.75 8.8 11.05 8.6 11.1 8.2 10.8 M6.1 10.55 L6.0 10.45 4.95 9.2 5.45 9.4 6.6 9.95 6.1 10.55 M3.5 9.45 L3.5 9.4 3.75 9.6 Q4.15 9.6 4.75 10.1 L5.25 10.75 5.2 10.95 5.0 11.3 4.6 11.8 Q3.75 11.6 3.6 10.8 L3.5 9.45 M3.45 8.65 L3.2 9.0 3.3 10.75 3.35 11.2 3.65 11.55 4.7 12.2 4.8 12.15 5.2 11.4 5.55 11.15 5.65 11.1 5.65 10.8 4.95 9.9 Q4.35 9.35 3.9 9.25 L3.65 9.05 3.8 8.8 4.1 8.9 4.05 8.95 Q4.95 9.25 5.5 10.05 L6.2 11.25 6.3 11.15 Q6.3 10.6 6.95 10.15 L7.7 10.5 7.7 10.55 7.95 11.0 8.65 11.4 9.05 11.15 16.55 14.6 Q14.8 15.25 12.9 16.2 9.1 18.1 8.35 19.8 7.6 21.5 4.8 21.4 L2.15 21.0 -0.05 7.3 3.45 8.65" fill="#350c1a" fill-rule="evenodd" stroke="none"/>
      <path d="M23.35 19.4 Q24.1 22.95 20.95 26.5 L17.95 29.6 Q17.85 22.9 16.75 19.9 16.05 18.05 10.1 15.2 8.4 14.35 6.75 13.7 L6.7 10.35 7.55 9.75 Q7.55 10.4 7.85 10.8 L8.45 10.45 8.65 10.05 8.25 9.2 7.55 8.4 7.5 8.5 8.4 10.0 7.95 10.3 7.9 10.25 7.85 9.8 7.45 9.5 Q7.1 9.5 6.7 9.9 L6.7 6.8 12.35 9.5 17.65 9.1 18.25 10.2 Q18.85 11.4 18.85 11.9 18.85 12.7 19.75 12.6 L20.1 13.85 20.35 16.6 Q20.3 17.65 22.4 17.5 L23.35 19.4" fill="#c60a47" fill-rule="evenodd" stroke="none"/>
      <path d="M17.95 29.4 L17.95 29.25 18.0 29.25 17.95 29.4 M7.75 10.65 L6.75 10.3 7.05 10.05 7.55 9.75 7.55 10.0 7.75 10.65 M7.05 10.05 L7.55 10.0 7.05 10.05" fill="#8a2c4a" fill-rule="evenodd" stroke="none"/>
      <path d="M7.9 9.95 L8.35 9.9 8.4 10.0 7.95 10.3 7.9 10.25 7.9 9.95" fill="#511b2d" fill-rule="evenodd" stroke="none"/>
      <path d="M9.25 12.35 L11.0 13.4 Q16.9 17.0 20.65 17.25 L20.7 17.25 22.4 17.5 23.35 19.4 Q24.1 22.95 20.95 26.5 L17.95 29.6 17.95 29.4 18.0 29.25 Q19.15 26.2 18.9 23.7 18.75 21.85 17.6 19.35 16.8 17.65 12.0 15.3 L7.85 13.55 6.75 13.45 6.7 10.6 8.85 12.1 9.25 12.35" fill="#950f3a" fill-rule="evenodd" stroke="none"/>
      <path d="M19.8 12.7 L20.1 13.85 20.3 15.2 20.3 15.25 Q18.2 15.5 13.4 13.9 L9.25 12.35 8.85 12.1 6.7 10.6 6.7 10.35 6.75 10.3 7.75 10.65 7.85 10.8 7.95 10.7 Q13.95 12.65 19.05 12.7 L19.8 12.7" fill="#8c173c" fill-rule="evenodd" stroke="none"/>
      <path d="M12.3 9.5 L12.35 9.5 17.65 9.1 18.25 10.2 Q18.85 11.4 18.85 11.9 18.85 12.7 19.75 12.6 L19.8 12.7 19.05 12.7 Q13.95 12.65 7.95 10.7 L8.45 10.45 8.65 10.05 8.6 9.85 12.3 9.5" fill="#620725" fill-rule="evenodd" stroke="none"/>
      <path d="M8.6 9.85 L8.25 9.2 7.55 8.4 7.5 8.5 8.35 9.9 7.9 9.95 7.85 9.8 7.45 9.5 Q7.1 9.5 6.7 9.9 L6.7 6.8 12.3 9.5 8.6 9.85" fill="#8e1c40" fill-rule="evenodd" stroke="none"/>
      <path d="M17.95 29.25 L18.0 29.25 17.95 29.4 M6.75 13.45 L6.05 13.4 M9.25 12.35 L8.85 12.1 6.7 10.6 6.2 10.2 Q4.1 10.55 2.55 11.1 M7.75 10.65 L6.75 10.3 6.4 10.15 6.2 10.2 5.9 10.0 4.8 9.55 M8.35 9.9 L8.6 9.85 M7.9 9.95 L8.35 9.9 M7.9 9.95 L7.55 10.0 7.05 10.05 6.4 10.15 5.9 10.0 M7.75 10.65 L7.95 10.7" fill="none" stroke="#cccccc" stroke-linecap="round" stroke-linejoin="round" stroke-width="0.1"/>
      <path d="M2.7 13.6 L2.65 13.6 1.95 13.1 Q1.4 12.4 1.95 11.3 L1.65 9.1 1.65 9.05 0.4 7.5 0.3 7.1 0.35 7.15 0.2 6.2 0.2 6.15 0.15 6.0 Q1.15 4.5 3.1 4.5 L4.85 4.85 5.9 5.15 6.3 5.8 6.55 6.15 6.65 6.3 7.75 7.95 7.9 8.2 Q8.65 9.1 9.2 9.35 L10.3 10.25 10.05 11.1 9.6 12.05 8.2 11.75 Q6.55 11.65 5.2 12.45 L5.15 12.5 4.6 12.9 Q4.35 12.95 3.95 13.25 L3.15 13.6 2.7 13.6" fill="#cc3366" fill-rule="evenodd" stroke="none"/>
      <path d="M9.6 12.05 L10.2 12.65 10.25 12.8 10.35 13.55 10.4 14.0 Q9.55 13.6 8.3 13.55 L6.65 13.7 Q5.05 14.1 3.6 15.35 L3.1 15.3 Q2.6 14.9 2.7 13.6 L3.15 13.6 3.95 13.25 Q4.35 12.95 4.6 12.9 L5.15 12.5 5.2 12.45 Q6.55 11.65 8.2 11.75 L9.6 12.05 M9.05 12.05 L8.6 12.25 8.4 12.7 8.6 13.15 9.05 13.35 Q9.3 13.35 9.5 13.15 L9.7 12.7 9.5 12.25 Q9.3 12.05 9.05 12.05" fill="#e20c53" fill-rule="evenodd" stroke="none"/>
      <path d="M9.05 12.05 Q9.3 12.05 9.5 12.25 L9.7 12.7 9.5 13.15 Q9.3 13.35 9.05 13.35 L8.6 13.15 8.4 12.7 8.6 12.25 9.05 12.05" fill="#bf994f" fill-rule="evenodd" stroke="none"/>
      <path d="M2.8 4.5 L3.25 5.7 Q4.15 7.85 4.15 8.35 L4.05 8.95 Q4.95 9.25 5.5 10.05 L6.2 11.25 6.3 11.15 Q6.3 10.4 7.55 9.75 L7.7 10.6 7.95 11.0 8.65 11.4 9.2 11.0 9.5 10.4 7.85 8.35 7.95 8.25 Q8.65 9.1 9.2 9.35 L10.3 10.25 10.05 11.1 9.6 12.05 8.2 11.75 Q6.55 11.65 5.2 12.45 L5.15 12.5 4.6 12.9 Q4.35 12.95 3.95 13.25 L3.15 13.6 2.65 13.6 2.2 13.35 2.5 13.4 2.85 13.15 2.95 12.85 3.4 12.5 3.7 12.25 3.35 11.35 3.4 11.35 3.65 11.55 4.7 12.2 4.8 12.15 5.2 11.4 5.55 11.15 5.65 11.1 5.65 10.8 4.95 9.9 Q4.35 9.35 3.9 9.25 L3.65 9.05 3.95 8.05 Q3.95 7.45 2.65 4.5 L2.8 4.5 M1.95 6.6 L2.0 7.2 1.5 8.85 0.4 7.5 0.3 7.1 0.35 7.15 0.3 6.9 0.9 6.95 Q1.75 6.95 1.95 6.6" fill="#93274b" fill-rule="evenodd" stroke="none"/>
    </g>
  </defs>
</svg>
