<svg xmlns="http://www.w3.org/2000/svg" xmlns:ffdec="https://www.free-decompiler.com/flash" xmlns:xlink="http://www.w3.org/1999/xlink" ffdec:objectType="frame" width="20.8" height="24.75"><use ffdec:characterId="3" xlink:href="#a" width="20.8" height="24.75"/><defs><g id="a"><path fill="#82cbbd" fill-rule="evenodd" d="M11.15 2q1.55-.2 3.1 1 1.5 1.7 3.6 8.95 1.9 6.35 1.95 7.8l.15.95.3.5.05.7q-.05.4.2.55l.3.3-.3 1.1q-.85 2.3-18.95-1.3-1-.25-1.4-.85-.25-.45-.1-.75l.3-.1-.15-.4q-.2-.4 0-.55l.45-.1.45-1.5.25-2.55q.15-1.1 2.35-6.6l2.45-5.9 3.75-.8z"/><path fill="#4dad9a" fill-rule="evenodd" d="M13.05 24.4q-5.95-.5-9-1.35l8.25.75q6.8.3 8.3-.65l-.15.75q-.55 1.15-7.4.5m7.2-2.8-.15.7-15.25-.7 9 .45zm-6.5-19q.5.05 2.3 4.75l2 5.2q.35.75 1.1 4 .8 3.5.65 4.2-.15.75-5.5-.05l-3.6-.65q-1.1-.35-.25-.5l.25-.05q1.35-.35 3.25-2.2 2-2.05 1.8-2.9-.15-.65-2.25-1l-2.6-.35q-.35-.1 1.05-1.6l1.8-2.15q.3-.55-.2-2.45-.5-1.85-1-2.15L9.3 4.6l-2.95-.05q-.15-.15.05-.6l.35-.8z"/><path fill="#fff" fill-rule="evenodd" d="m13.95 6.25.2.6-.25.15L.95 18.6l-.2 1.15Q.3 19.2 1 16.9q.9-2.6 7.35-7.7l5.35-3.95z"/><path fill="#bcbcbc" fill-rule="evenodd" d="m13.9 7 1-.65q1.05-.65 1.1-.5l.15.4.05.15q-2.8 1.55-9.15 7.25Q1.2 19 .9 19.75H.75l.2-1.15zM2.15 16.25l-.3.25-.3-.25q0-.3.3-.3z"/><path fill="#ebeced" fill-rule="evenodd" d="m1.65 16.2.1-.15.15.15-.1.1z"/><path fill="#bcbcbc" fill-rule="evenodd" d="m3.55 14.65-.3.3q-.3 0-.3-.3 0-.25.3-.25t.3.25"/><path fill="#ebeced" fill-rule="evenodd" d="m3.05 14.65.1-.15.15.1-.1.15z"/><path fill="#bcbcbc" fill-rule="evenodd" d="m5.1 13.05-.35.25-.3-.25q0-.3.3-.3.35 0 .35.3"/><path fill="#ebeced" fill-rule="evenodd" d="M4.6 13q-.1-.1.1-.1l.1.1-.1.1z"/><path fill="#bcbcbc" fill-rule="evenodd" d="m5.55 14-.35.3q-.3 0-.3-.3 0-.25.3-.25.35 0 .35.25"/><path fill="#ebeced" fill-rule="evenodd" d="m5.05 14 .1-.15.1.1-.1.15z"/><path fill="#bcbcbc" fill-rule="evenodd" d="m7.25 12.6-.3.3-.35-.3q0-.3.35-.3z"/><path fill="#ebeced" fill-rule="evenodd" d="m6.75 12.55.1-.1.15.1-.15.1z"/><path fill="#bcbcbc" fill-rule="evenodd" d="m6.75 11.7-.3.3q-.35 0-.35-.3 0-.25.35-.25z"/><path fill="#ebeced" fill-rule="evenodd" d="m6.25 11.7.1-.15.15.1-.15.15z"/><path fill="#bcbcbc" fill-rule="evenodd" d="M8.35 10.4q0 .25-.3.25l-.3-.25q0-.3.3-.3z"/><path fill="#ebeced" fill-rule="evenodd" d="M7.85 10.35 8 10.2l.1.15-.1.1z"/><path fill="#bcbcbc" fill-rule="evenodd" d="m8.9 11.15-.3.3q-.3 0-.3-.3 0-.25.3-.25z"/><path fill="#ebeced" fill-rule="evenodd" d="M8.4 11.15q0-.15.1-.15.15 0 .15.1l-.1.15z"/><path fill="#bcbcbc" fill-rule="evenodd" d="m10.6 9.75-.35.3q-.3 0-.3-.3 0-.25.3-.25z"/><path fill="#ebeced" fill-rule="evenodd" d="m10.1 9.7.1-.1.1.1-.1.15z"/><path fill="#bcbcbc" fill-rule="evenodd" d="m10.1 9.05-.3.25q-.35 0-.35-.25 0-.3.35-.3z"/><path fill="#ebeced" fill-rule="evenodd" d="m9.6 9 .1-.1.1.1-.1.1z"/><path fill="#bcbcbc" fill-rule="evenodd" d="m11.85 7.7-.3.25-.3-.25q0-.3.3-.3z"/><path fill="#ebeced" fill-rule="evenodd" d="M11.35 7.65q0-.15.15-.15l.1.1-.1.15z"/><path fill="#bcbcbc" fill-rule="evenodd" d="M12.35 8.4q0 .25-.3.25l-.3-.25q0-.3.3-.3z"/><path fill="#ebeced" fill-rule="evenodd" d="M11.85 8.35 12 8.2l.1.15-.1.1z"/><path fill="#bcbcbc" fill-rule="evenodd" d="m14.05 7.1-.35.3q-.3 0-.3-.3 0-.25.3-.25.35 0 .35.25"/><path fill="#ebeced" fill-rule="evenodd" d="m13.55 7.1.1-.15.1.1-.1.15z"/><path fill="#bcbcbc" fill-rule="evenodd" d="M13.55 6.4q0 .25-.35.25-.3 0-.3-.25 0-.3.3-.3.35 0 .35.3"/><path fill="#ebeced" fill-rule="evenodd" d="m13.05 6.35.1-.15.1.15-.1.1z"/><path fill="#bcbcbc" fill-rule="evenodd" d="M15.35 5.1q0 .25-.3.25l-.3-.25q0-.3.3-.3z"/><path fill="#ebeced" fill-rule="evenodd" d="M14.85 5.05q0-.1.15-.1l.1.1-.1.1z"/><path fill="#bcbcbc" fill-rule="evenodd" d="m16 5.85-.3.25q-.35 0-.35-.25 0-.3.35-.3z"/><path fill="#ebeced" fill-rule="evenodd" d="m15.5 5.8.1-.15.15.1-.15.15z"/><path fill="#bcbcbc" fill-rule="evenodd" d="m2.25 17.25-.3.3q-.3 0-.3-.3 0-.25.3-.25z"/><path fill="#ebeced" fill-rule="evenodd" d="m1.75 17.25.1-.15q.15 0 .15.1l-.1.15z"/><path fill="#bcbcbc" fill-rule="evenodd" d="M3.85 15.7q0 .25-.3.25l-.3-.25q0-.3.3-.3z"/><path fill="#ebeced" fill-rule="evenodd" d="M3.35 15.65q0-.15.15-.15l.1.15-.1.1z"/><path fill="#bcbcbc" fill-rule="evenodd" d="M8.2 1.5V.45l.15-.3Q8.5 0 8.7 0h3.05l.35.15.15.3V3.7l-.15.3-.35.15H8.7L8.35 4l-.15-.35v-1.2h-.35v-.6l.35.05zm1.4 1.65h1.65V1H9.4L9.35.8l-.4-.35Q8.7.2 8.7.5v3.15l.6.15.65-.15-.1-.35zm.15-1.2v.5h-.4l.05-.5z"/><path fill="#ddd" fill-rule="evenodd" d="M8.2 1.5v.4l-.35-.05h-.1v-.1q0-.2.25-.25zm1.4 1.65.25.15.1.35-.65.15-.6-.15V.5q0-.3.25-.05l.4.35.05.2v.55h.4l.1.35-.15.05H9.4l-.05.5-.05.65z"/><path fill="none" stroke="#bcbcbc" stroke-linecap="round" stroke-linejoin="round" stroke-width=".5" d="M7.85 1.85v.6h.35m1.55-.5v.5h-.4"/><path fill="#fff" fill-rule="evenodd" d="m16.4 14.4.15-.05q-.1-1.05-1.6-5.75l-1.9-5.35h-.1l.6-.05 1.9 5.35 1.7 5.75-.55.1zm-12 0h-.15l-.6-.1q.1-1 1.7-5.75 1.5-4.6 1.9-5.35l.4.05h.1q-.4.75-1.9 5.35-1.5 4.7-1.6 5.75z"/><path fill="#b4abad" fill-rule="evenodd" d="M12.95 3.25h.1l1.9 5.35q1.5 4.7 1.6 5.75l-.15.05-1.7-5.75zM4.4 14.4l-.15-.05q.1-1.05 1.6-5.75 1.5-4.6 1.9-5.35h-.1.2l-1.7 5.4z"/><path fill="#0e8050" fill-rule="evenodd" d="m13.55 3.2-.6.05L14.6 3q.35.3 2.1 4.4l2.55 6.9-1.25.2-1.4-.1.55-.1-1.7-5.75zM6.2 3l1.45.25-.4-.05q-.4.75-1.9 5.35-1.6 4.75-1.7 5.75l.6.1h-1.6l-1.1-.1q.75-2.55 2.55-6.9Q5.85 3.3 6.2 3"/><path fill="#004f2e" fill-rule="evenodd" d="M16 9.4q.5-.55.45-1.3l-.1-1.45L17.5 9.4l.75 1.9.65 1.95q-.4.5-1.7.5 1-.9.6-1.45-.15-.2-.45-.25l-.3-.05q.65-.95.6-1.5l-.25-1q-.9.7-1.3.7l.85-1.15zm-12.7 0 .3-.3q-.3.55-.45 1.4-.05.55.6 1.5l-.3.05q-.3.05-.45.25-.4.55.6 1.45-1.3 0-1.7-.5.05-.35.65-1.95z"/><path fill="#fff" fill-rule="evenodd" d="M14.2 1.4q-.7 0-.7.65 0 .7.7.7.65 0 .65-.7 0-.65-.65-.65m1.65 1.9-.45.2-.2.1h-.7l-2.25.1V.65l3.25-.5.45.6.15.85q.1 1.05-.15 1.55zm-4.6-.15H9.6l-.3-.05.05-.65h.2q.1.3.55.3.65 0 .65-.7 0-.65-.65-.65-.3 0-.45.15H9.4V1h1.85zM8 1.5q-.25.05-.25.25v.1h.1v.6h.35v1.2l-2.95-.3q-.6-.3-.6-1.6.05-1.3.6-1.6L8.2.6v.9zm-2.3.55q0 .7.65.7t.65-.7q0-.65-.65-.65t-.65.65"/><path fill="#bcbcbc" fill-rule="evenodd" d="m15.5.15-3.25.5v-.2l3.1-.4zm-.65 1.9q0 .7-.65.7-.7 0-.7-.7 0-.65.7-.65.65 0 .65.65M8.2.6 5.25.15l.2-.1L6.8.3l1.4.15V.6M5.7 2.05q0-.65.65-.65t.65.65q0 .7-.65.7t-.65-.7m4.05.4v-.5l.15-.05-.1-.35h-.15q.15-.15.45-.15.65 0 .65.65 0 .7-.65.7-.45 0-.55-.3z"/></g></defs></svg>