<?xml version="1.0" encoding="UTF-8" standalone="no"?>
<svg xmlns:ffdec="https://www.free-decompiler.com/flash" xmlns:xlink="http://www.w3.org/1999/xlink" ffdec:objectType="frame" height="10.0px" width="10.45px" xmlns="http://www.w3.org/2000/svg">
  <g transform="matrix(1.0, 0.0, 0.0, 1.0, -1.15, -4.5)">
    <use ffdec:characterId="3" height="10.0" transform="matrix(1.0, 0.0, 0.0, 1.0, 1.15, 4.5)" width="10.45" xlink:href="#shape0"/>
  </g>
  <defs>
    <g id="shape0" transform="matrix(1.0, 0.0, 0.0, 1.0, -1.15, -4.5)">
      <path d="M6.45 13.15 L6.75 13.25 6.95 13.25 6.7 13.9 6.6 14.05 6.9 14.35 6.95 14.4 6.9 14.5 6.3 14.5 5.85 13.95 6.0 13.7 6.15 13.6 6.45 13.15 M7.95 13.15 L8.05 13.1 8.25 13.0 9.2 13.8 9.45 14.05 Q9.25 14.35 8.9 14.35 8.6 14.35 8.6 13.85 L8.5 13.85 7.95 13.15 M8.5 12.85 L8.6 12.7 9.6 12.95 Q10.15 12.95 10.15 13.45 L10.05 13.7 9.7 13.55 9.55 13.45 8.5 12.85 M8.75 12.3 L8.8 12.1 Q9.0 11.85 9.4 11.8 L9.75 11.75 Q10.05 11.75 10.3 12.7 L9.95 12.45 9.6 12.45 9.3 12.45 8.75 12.3" fill="#cd92a6" fill-rule="evenodd" stroke="none"/>
      <path d="M6.0 12.7 L6.45 13.15 6.15 13.6 6.0 13.7 5.65 13.65 Q5.5 13.65 5.4 13.8 L5.15 13.5 4.95 13.15 5.55 13.2 6.0 12.7 M6.95 13.25 L7.5 13.25 7.95 13.15 8.5 13.85 8.1 13.85 8.05 14.0 8.25 14.3 7.7 14.3 Q7.4 13.8 7.0 13.8 L6.95 13.8 Q6.8 13.8 6.7 13.9 L6.95 13.25 M8.25 13.0 L8.5 12.85 9.55 13.45 9.5 13.45 Q9.15 13.45 9.15 13.65 L9.2 13.8 8.25 13.0 M8.6 12.7 L8.65 12.5 8.75 12.3 9.3 12.45 9.6 12.45 9.6 12.95 8.6 12.7" fill="#eebdc0" fill-rule="evenodd" stroke="none"/>
      <path d="M6.95 13.8 L6.9 14.35 6.6 14.05 6.7 13.9 Q6.8 13.8 6.95 13.8" fill="#984c66" fill-rule="evenodd" stroke="none"/>
      <path d="M6.0 12.7 L4.75 10.9 2.6 6.85 2.7 6.95 2.75 7.15 3.0 7.4 3.35 7.35 3.3 7.15 3.25 7.05 3.3 6.85 3.55 6.85 3.9 7.2 4.3 7.0 3.95 6.6 3.95 6.55 4.4 6.55 4.95 6.9 5.05 6.6 Q5.2 6.6 5.35 6.8 L5.6 7.0 5.75 7.0 Q6.3 7.05 7.75 8.2 9.15 9.35 8.8 10.4 8.05 10.35 7.3 10.75 6.4 11.25 6.35 11.75 L6.35 12.1 6.95 12.1 Q7.75 12.15 9.0 11.1 L9.05 11.1 9.1 11.1 9.45 11.55 9.4 11.8 Q9.0 11.85 8.8 12.1 L8.75 12.3 8.65 12.5 8.6 12.7 8.5 12.85 8.25 13.0 8.05 13.1 7.95 13.15 7.5 13.25 6.95 13.25 6.75 13.25 6.45 13.15 6.0 12.7" fill="url(#gradient0)" fill-rule="evenodd" stroke="none"/>
      <path d="M9.05 11.1 L9.0 11.1 Q7.75 12.15 6.95 12.1 L6.35 12.1 6.35 11.75 Q6.4 11.25 7.3 10.75 8.05 10.35 8.8 10.4 L8.85 10.8 Q8.8 11.0 9.05 11.05 L9.05 11.1" fill="url(#gradient1)" fill-rule="evenodd" stroke="none"/>
      <path d="M6.85 9.0 L6.75 8.9 6.65 8.9 6.65 9.0 6.7 9.1 6.8 9.1 6.85 9.1 6.85 9.0 M6.45 9.05 L6.5 9.1 6.5 9.15 6.6 9.2 6.55 9.1 6.55 9.05 6.5 9.0 6.5 9.05 6.45 9.05 M6.45 9.15 L6.35 9.05 6.25 9.15 6.3 9.35 6.35 9.35 6.45 9.35 6.45 9.25 6.45 9.15 M6.95 8.85 L6.9 8.8 6.9 8.75 6.85 8.75 6.8 8.85 6.9 8.9 6.95 8.85 M6.85 8.6 L6.9 8.65 7.0 8.7 7.05 8.65 7.1 8.65 7.05 8.55 6.95 8.45 6.85 8.6 M6.95 8.05 L6.9 8.0 6.85 8.1 6.95 8.15 7.0 8.15 6.95 8.05 M7.05 8.35 L7.0 8.3 6.9 8.25 6.9 8.3 6.95 8.35 7.0 8.35 7.05 8.35 M6.1 9.2 L6.1 9.25 6.15 9.3 6.15 9.35 6.15 9.2 6.1 9.2 M5.95 9.15 L5.85 9.1 5.85 9.25 5.9 9.3 6.0 9.25 5.95 9.2 5.95 9.15 M5.65 9.15 L5.65 9.1 5.7 9.1 5.7 9.05 5.7 9.0 5.65 9.0 5.6 9.05 5.65 9.15 M5.5 9.0 L5.55 9.0 5.5 8.85 5.45 8.9 5.5 9.0 M6.0 8.15 L5.95 8.2 6.0 8.25 6.05 8.35 6.1 8.35 6.1 8.3 6.1 8.2 6.0 8.15 M5.75 7.95 L5.7 7.9 5.55 7.95 5.45 8.0 5.4 8.1 5.4 8.15 5.5 8.35 5.7 8.45 5.95 8.5 6.05 8.55 6.1 8.55 6.05 8.45 6.0 8.35 5.8 8.15 5.8 8.05 5.75 7.95 M6.25 7.65 L6.1 7.65 6.05 7.7 6.0 7.75 5.95 7.8 6.0 7.9 6.05 8.0 6.2 8.2 6.3 8.4 6.35 8.4 6.35 8.15 6.4 8.05 6.4 7.8 6.25 7.65 M5.3 6.9 L5.25 6.85 5.25 6.95 5.35 7.0 5.3 6.9 M4.0 9.4 L4.1 9.45 4.15 9.4 4.1 9.4 4.1 9.35 4.05 9.3 4.05 9.4 4.0 9.4 M4.2 9.4 L4.2 9.45 4.15 9.45 4.2 9.5 4.25 9.55 4.3 9.5 4.3 9.45 4.25 9.4 4.2 9.4 M4.5 9.55 L4.5 9.5 4.55 9.4 4.45 9.35 4.4 9.4 4.4 9.5 4.5 9.55 M4.6 9.45 L4.65 9.45 4.7 9.45 4.75 9.4 4.7 9.35 4.6 9.35 4.6 9.4 4.6 9.45 M4.8 9.2 L4.75 9.25 4.75 9.35 4.85 9.4 4.85 9.3 4.8 9.2 M4.95 9.25 L4.95 9.2 4.9 9.15 4.9 9.3 4.95 9.25 M4.0 9.25 L3.95 9.2 3.9 9.2 3.85 9.25 3.9 9.3 4.0 9.3 4.0 9.25 M5.05 8.15 L4.95 8.25 5.0 8.5 5.05 8.7 5.25 8.95 5.35 8.7 5.25 8.4 5.3 8.25 5.25 8.15 5.05 8.15 M4.6 8.25 L4.45 8.3 4.4 8.3 4.4 8.35 4.5 8.65 4.6 8.65 4.65 8.55 4.7 8.55 4.75 8.45 4.75 8.4 4.8 8.35 4.6 8.25 M4.9 7.8 L4.95 8.0 4.95 8.05 5.0 8.05 5.0 8.0 5.05 8.0 5.15 7.95 5.15 7.9 5.1 7.85 5.0 7.75 5.0 7.8 4.9 7.8 M3.75 8.5 L3.75 8.55 3.85 8.65 3.85 8.7 3.95 8.7 4.0 8.75 4.05 8.75 4.2 8.7 4.15 8.6 4.1 8.55 4.1 8.45 3.9 8.35 3.8 8.4 3.75 8.5 M3.55 7.45 L3.6 7.45 3.65 7.4 3.6 7.35 3.55 7.4 3.5 7.4 3.55 7.45 M3.4 7.35 L3.35 7.4 3.35 7.45 3.4 7.45 3.4 7.35 M3.1 7.4 L3.1 7.45 3.15 7.5 3.2 7.45 3.2 7.4 3.1 7.4 M4.9 7.1 L4.8 7.1 4.85 7.15 4.95 7.15 4.95 7.1 4.9 7.1 M5.05 7.0 L5.05 7.05 5.1 7.1 5.15 7.1 5.15 7.05 5.2 7.05 5.2 7.0 5.15 6.95 5.05 7.0 M4.75 7.25 L4.8 7.15 4.7 7.15 4.65 7.2 4.7 7.3 4.75 7.3 4.75 7.25 M3.8 7.45 L3.85 7.4 3.85 7.35 3.75 7.4 3.7 7.35 3.75 7.45 3.8 7.45 M3.95 7.65 L3.85 7.65 3.75 7.6 3.65 7.55 3.6 7.55 3.6 7.65 3.55 7.8 3.6 8.0 3.7 8.1 3.85 8.1 4.0 8.15 4.15 8.2 4.15 8.15 4.4 8.15 4.65 8.1 4.75 7.8 4.65 7.5 4.4 7.5 4.35 7.55 4.2 7.55 4.05 7.65 3.95 7.65 M3.95 7.4 L4.1 7.5 4.15 7.45 4.15 7.4 4.05 7.3 3.95 7.4 M4.3 7.3 L4.25 7.25 4.2 7.3 4.3 7.3 M4.4 7.25 L4.4 7.3 4.55 7.3 4.45 7.2 4.4 7.25 M4.6 6.65 L4.55 6.65 4.6 6.75 4.65 6.75 4.7 6.75 4.7 6.65 4.8 6.65 4.9 6.65 5.05 6.6 Q5.2 6.6 5.35 6.8 L5.4 6.9 5.45 6.9 5.6 7.0 5.7 7.0 5.65 7.05 5.6 7.1 5.55 7.15 5.45 7.1 5.4 7.1 5.35 7.15 5.35 7.25 5.3 7.25 5.2 7.3 5.1 7.3 5.0 7.3 Q4.9 7.4 4.95 7.45 L5.0 7.5 5.25 7.75 5.55 7.8 5.65 7.75 5.75 7.7 5.85 7.6 5.9 7.6 6.0 7.05 6.15 7.1 6.15 7.2 6.2 7.25 6.25 7.25 6.25 7.3 6.3 7.25 6.4 7.25 6.55 7.35 6.45 7.3 6.35 7.5 6.5 7.6 6.5 7.65 6.85 7.85 7.1 7.9 7.05 7.8 6.95 7.65 6.85 7.55 7.65 8.15 7.55 8.15 7.5 8.1 7.35 8.0 7.25 8.05 7.2 8.15 7.2 8.25 7.3 8.3 7.35 8.4 7.25 8.6 7.15 8.75 7.15 8.85 7.2 9.0 7.1 9.15 7.0 9.2 6.9 9.2 6.85 9.3 6.9 9.35 6.85 9.4 6.85 9.45 6.8 9.5 6.75 9.5 6.65 9.55 6.6 9.5 6.5 9.45 6.45 9.45 6.35 9.55 6.25 9.6 6.15 9.65 6.0 9.5 5.95 9.45 5.75 9.45 5.55 9.45 5.45 9.35 5.45 9.3 5.4 9.2 5.25 9.2 5.2 9.25 5.2 9.45 5.2 9.5 5.1 9.6 5.05 9.6 5.0 9.65 4.8 9.7 4.7 9.75 4.6 9.75 4.4 9.8 4.3 9.8 4.2 9.8 4.15 9.8 3.7 9.0 3.7 8.8 3.6 8.55 3.55 8.45 3.5 8.35 3.45 8.35 3.35 8.35 3.3 8.2 3.45 8.2 3.5 8.2 3.5 8.15 3.5 8.05 3.45 8.0 3.4 7.95 3.35 7.9 3.35 8.0 3.25 8.1 3.25 8.15 3.2 8.0 3.25 7.85 3.2 7.65 3.0 7.65 2.6 6.85 2.7 6.95 2.85 6.95 2.9 6.85 3.0 6.85 3.1 6.85 3.1 6.95 3.2 7.0 3.3 7.0 3.35 6.9 3.4 6.9 3.4 6.85 3.55 6.85 3.9 7.2 4.3 7.0 4.2 6.9 4.35 6.65 4.4 6.55 4.6 6.65" fill="#ffd4e0" fill-opacity="0.49803922" fill-rule="evenodd" stroke="none"/>
      <path d="M5.1 6.2 L5.85 6.05 6.05 6.3 5.95 6.6 4.9 6.2 5.1 6.2 M4.95 6.9 L4.4 6.55 3.95 6.55 3.95 6.6 3.7 6.2 4.1 6.15 4.2 6.15 4.95 6.9 M3.85 7.15 L3.55 6.85 3.3 6.85 3.25 7.05 3.3 7.15 2.85 6.35 3.2 6.25 3.85 7.15 M2.7 6.95 L2.6 6.85 2.35 6.8 2.25 6.85 2.35 6.45 2.55 6.4 2.7 6.95 M1.65 5.8 Q1.15 5.9 1.15 5.6 L1.5 5.25 2.0 5.55 1.65 5.75 1.65 5.8 M2.6 4.65 L2.8 4.65 2.8 4.9 3.15 4.9 2.95 5.35 2.5 5.4 2.6 4.65 M3.75 4.55 L3.95 4.7 4.3 4.9 4.5 4.85 4.0 5.35 3.6 5.3 3.75 4.55" fill="#eebdc0" fill-rule="evenodd" stroke="none"/>
      <path d="M5.95 6.6 L6.05 6.6 5.9 6.9 5.75 7.0 5.6 7.0 5.35 6.8 Q5.2 6.6 5.05 6.6 L4.95 6.9 4.2 6.15 4.9 6.2 5.95 6.6 M3.95 6.6 L4.3 7.0 3.9 7.2 3.85 7.15 3.2 6.25 3.7 6.2 3.95 6.6 M3.3 7.15 L3.35 7.35 3.0 7.4 2.75 7.15 2.75 7.1 2.7 6.95 2.55 6.4 2.8 6.35 2.85 6.35 3.3 7.15 M2.25 6.85 L2.35 7.2 2.05 7.2 2.1 6.5 2.35 6.45 2.25 6.85 M1.5 5.25 L1.45 5.25 1.35 5.0 1.55 4.8 1.7 4.95 Q1.9 4.6 2.45 4.6 L2.6 4.65 2.5 5.4 2.05 5.5 2.0 5.55 1.5 5.25 M3.15 4.9 L3.2 4.85 3.2 4.8 Q3.05 4.55 3.2 4.5 L3.55 4.5 3.75 4.55 3.6 5.3 3.5 5.3 2.95 5.35 3.15 4.9 M4.5 4.85 L4.5 4.55 Q5.05 4.45 5.45 4.95 L4.65 5.45 4.65 5.4 4.0 5.35 4.5 4.85" fill="#cd92a6" fill-rule="evenodd" stroke="none"/>
      <path d="M2.1 6.5 L1.65 5.8 1.65 5.75 2.0 5.55 2.05 5.5 2.5 5.4 2.95 5.35 3.5 5.3 3.6 5.3 4.0 5.35 4.65 5.4 4.65 5.45 5.1 6.2 4.9 6.2 4.2 6.15 4.1 6.15 3.7 6.2 3.2 6.25 2.85 6.35 2.8 6.35 2.55 6.4 2.35 6.45 2.1 6.5" fill="url(#gradient2)" fill-rule="evenodd" stroke="none"/>
      <path d="M10.8 12.0 L10.95 12.5 10.9 12.7 10.85 12.8 10.55 12.8 10.45 12.8 10.7 13.0 10.3 13.15 10.15 13.25 9.35 12.5 9.3 12.5 9.1 12.6 8.95 12.6 8.95 12.65 9.0 13.75 8.9 13.8 8.35 14.05 8.35 13.95 8.35 13.4 8.25 13.5 8.05 13.65 7.9 13.6 7.75 13.45 7.45 13.05 7.7 12.85 7.5 12.75 7.4 12.7 7.25 12.3 Q7.2 11.95 7.3 11.9 L7.7 11.85 8.15 11.85 8.5 12.05 8.7 12.2 8.85 12.1 9.1 12.1 9.2 11.85 9.25 11.55 9.6 11.3 9.95 11.1 10.25 11.4 10.5 11.8 10.45 11.95 10.45 12.0 10.8 12.0 M8.95 12.6 L8.7 12.2 8.9 12.55 8.9 12.6 8.95 12.6" fill="#561426" fill-opacity="0.49803922" fill-rule="evenodd" stroke="none"/>
      <path d="M5.2 6.1 L5.95 6.7 6.7 7.55 6.7 7.6 6.75 7.7 6.6 7.8 6.55 7.9 5.9 7.35 4.95 6.5 4.9 6.5 4.7 6.6 4.55 6.6 4.55 6.65 4.6 7.8 4.55 8.5 4.2 8.3 3.75 8.45 3.95 7.95 3.95 7.4 3.85 7.5 3.65 7.65 3.5 7.6 3.35 7.45 3.05 7.05 3.3 6.85 3.1 6.75 3.0 6.7 2.85 6.3 Q2.8 5.95 2.9 5.9 L3.3 5.85 3.75 5.85 4.1 6.05 4.3 6.2 4.45 6.1 4.7 6.1 4.7 6.05 4.75 6.05 4.75 6.0 4.8 6.0 4.85 6.0 5.15 6.1 5.2 6.1 M4.55 6.6 L4.3 6.2 4.5 6.55 4.5 6.6 4.55 6.6" fill="#541224" fill-opacity="0.49803922" fill-rule="evenodd" stroke="none"/>
      <path d="M5.8 6.05 L6.6 6.8 7.15 7.15 6.7 7.25 6.65 7.55 6.0 7.0 5.0 6.1 5.15 5.95 5.3 5.75 5.5 5.7 5.8 6.05" fill="url(#gradient3)" fill-rule="evenodd" stroke="none"/>
      <path d="M6.2 5.45 L5.6 5.85 5.2 6.05 5.0 6.1 4.8 5.75 4.9 5.5 4.95 5.2 Q5.05 5.1 5.3 4.95 L5.65 4.75 5.95 5.05 6.2 5.45" fill="#b5375c" fill-rule="evenodd" stroke="none"/>
      <path d="M4.35 6.2 L4.6 6.2 4.7 7.45 4.65 8.15 4.3 7.95 3.85 8.1 4.05 7.6 3.95 6.55 3.9 6.25 Q3.95 6.1 4.1 6.15 L4.35 6.2" fill="url(#gradient4)" fill-rule="evenodd" stroke="none"/>
      <path d="M3.85 5.5 L4.2 5.7 4.4 5.85 4.6 6.2 3.9 6.35 3.1 6.35 2.95 5.95 Q2.9 5.6 3.0 5.55 L3.4 5.5 3.85 5.5" fill="#b5375c" fill-rule="evenodd" stroke="none"/>
      <path d="M3.1 6.35 L4.6 6.2 4.15 6.35 3.45 6.5 3.2 6.4 3.1 6.35" fill="#db1d12" fill-rule="evenodd" stroke="none"/>
      <path d="M4.5 6.15 L4.65 6.25 4.55 6.45 4.3 6.75 3.95 7.15 3.75 7.3 3.6 7.25 3.45 7.1 3.15 6.7 Q3.15 6.5 3.85 6.3 L4.5 6.15" fill="url(#gradient5)" fill-rule="evenodd" stroke="none"/>
      <path d="M4.6 6.25 L4.45 6.5 4.05 6.75 3.65 6.9 3.5 6.7 3.3 6.35 3.25 6.0 3.25 5.75 3.5 5.7 3.9 5.75 4.35 5.95 4.5 6.05 4.6 6.25" fill="url(#gradient6)" fill-rule="evenodd" stroke="none"/>
      <path d="M6.65 6.15 L6.6 6.35 6.55 6.45 6.25 6.45 5.75 6.35 5.2 6.2 5.0 6.15 5.0 6.0 5.2 5.9 5.65 5.75 6.5 5.65 6.65 6.15" fill="url(#gradient7)" fill-rule="evenodd" stroke="none"/>
      <path d="M5.9 5.2 L6.1 5.55 6.25 5.9 6.25 6.05 5.85 6.25 5.35 6.2 5.15 6.15 5.0 6.15 4.9 5.95 4.95 5.75 5.15 5.35 5.4 5.1 5.65 5.05 5.9 5.2" fill="url(#gradient8)" fill-rule="evenodd" stroke="none"/>
      <path d="M4.55 5.75 L4.8 5.75 5.0 6.15 4.8 6.25 4.65 6.25 4.4 5.85 4.55 5.75" fill="#d05375" fill-rule="evenodd" stroke="none"/>
      <path d="M10.25 12.05 L11.05 12.8 11.6 13.15 11.15 13.25 11.1 13.55 10.45 13.0 9.45 12.1 9.6 11.95 9.75 11.75 9.95 11.7 10.25 12.05" fill="url(#gradient9)" fill-rule="evenodd" stroke="none"/>
      <path d="M10.65 11.45 L10.05 11.85 9.65 12.05 9.45 12.1 9.25 11.75 9.35 11.5 9.4 11.2 9.75 10.95 10.1 10.75 10.4 11.05 10.65 11.45" fill="#b5375c" fill-rule="evenodd" stroke="none"/>
      <path d="M8.8 12.2 L9.05 12.2 9.15 13.45 9.1 14.15 8.75 13.95 8.3 14.1 8.5 13.6 8.4 12.55 8.35 12.25 8.55 12.15 8.8 12.2" fill="url(#gradient10)" fill-rule="evenodd" stroke="none"/>
      <path d="M8.3 11.5 L8.65 11.7 8.85 11.85 9.05 12.2 8.35 12.35 7.55 12.35 7.4 11.95 Q7.35 11.6 7.45 11.55 L7.85 11.5 8.3 11.5" fill="#b5375c" fill-rule="evenodd" stroke="none"/>
      <path d="M7.55 12.35 L9.05 12.2 8.6 12.35 7.9 12.5 7.65 12.4 7.55 12.35" fill="#db1d12" fill-rule="evenodd" stroke="none"/>
      <path d="M8.95 12.15 L9.1 12.25 9.0 12.45 8.75 12.75 8.4 13.15 8.2 13.3 8.05 13.25 7.9 13.1 7.6 12.7 Q7.6 12.5 8.3 12.3 L8.95 12.15" fill="url(#gradient11)" fill-rule="evenodd" stroke="none"/>
      <path d="M9.05 12.25 L8.9 12.5 8.5 12.75 8.1 12.9 7.95 12.7 7.75 12.35 7.7 12.0 7.7 11.75 7.95 11.7 8.35 11.75 8.8 11.95 8.95 12.05 9.05 12.25" fill="url(#gradient12)" fill-rule="evenodd" stroke="none"/>
      <path d="M11.1 12.15 L11.05 12.35 11.0 12.45 10.7 12.45 10.2 12.35 9.65 12.2 9.45 12.15 9.45 12.0 9.65 11.9 10.1 11.75 10.95 11.65 11.1 12.15" fill="url(#gradient13)" fill-rule="evenodd" stroke="none"/>
      <path d="M10.35 11.2 L10.55 11.55 10.7 11.9 10.7 12.05 10.3 12.25 9.8 12.2 9.6 12.15 9.45 12.15 9.35 11.95 9.4 11.75 9.6 11.35 9.85 11.1 10.1 11.05 10.35 11.2" fill="url(#gradient14)" fill-rule="evenodd" stroke="none"/>
      <path d="M9.0 11.75 L9.25 11.75 9.45 12.15 9.25 12.25 9.1 12.25 8.85 11.85 9.0 11.75" fill="#d05375" fill-rule="evenodd" stroke="none"/>
    </g>
    <radialGradient cx="0" cy="0" gradientTransform="matrix(0.006, 0.0, 0.0, 0.006, 5.75, 9.9)" gradientUnits="userSpaceOnUse" id="gradient0" r="819.2" spreadMethod="pad">
      <stop offset="0.0" stop-color="#f6a7a2"/>
      <stop offset="1.0" stop-color="#c8476d"/>
    </radialGradient>
    <radialGradient cx="0" cy="0" gradientTransform="matrix(0.006, 0.0, 0.0, 0.006, 5.75, 9.9)" gradientUnits="userSpaceOnUse" id="gradient1" r="819.2" spreadMethod="pad">
      <stop offset="0.0" stop-color="#b6514a"/>
      <stop offset="1.0" stop-color="#a11d43"/>
    </radialGradient>
    <linearGradient gradientTransform="matrix(0.0021, 0.0, 0.0, 7.0E-4, 3.35, 5.9)" gradientUnits="userSpaceOnUse" id="gradient2" spreadMethod="pad" x1="-819.2" x2="819.2">
      <stop offset="0.0" stop-color="#f7de85"/>
      <stop offset="0.28627450980392155" stop-color="#d9b94b"/>
      <stop offset="0.5058823529411764" stop-color="#ffffff"/>
      <stop offset="0.5215686274509804" stop-color="#f9b572"/>
      <stop offset="0.7019607843137254" stop-color="#cd8b38"/>
      <stop offset="1.0" stop-color="#f7de85"/>
    </linearGradient>
    <radialGradient cx="0" cy="0" gradientTransform="matrix(0.0012, -4.0E-4, 7.0E-4, 0.0014, 6.05, 6.65)" gradientUnits="userSpaceOnUse" id="gradient3" r="819.2" spreadMethod="pad">
      <stop offset="0.0" stop-color="#a83951"/>
      <stop offset="1.0" stop-color="#832d44"/>
    </radialGradient>
    <radialGradient cx="0" cy="0" gradientTransform="matrix(0.0012, -4.0E-4, 7.0E-4, 0.0014, 4.25, 7.15)" gradientUnits="userSpaceOnUse" id="gradient4" r="819.2" spreadMethod="pad">
      <stop offset="0.0" stop-color="#a83951"/>
      <stop offset="1.0" stop-color="#832d44"/>
    </radialGradient>
    <radialGradient cx="0" cy="0" gradientTransform="matrix(0.001, -3.0E-4, 5.0E-4, 0.0011, 4.0, 6.75)" gradientUnits="userSpaceOnUse" id="gradient5" r="819.2" spreadMethod="pad">
      <stop offset="0.0" stop-color="#b13c56"/>
      <stop offset="1.0" stop-color="#871c39"/>
    </radialGradient>
    <radialGradient cx="0" cy="0" gradientTransform="matrix(8.0E-4, -2.0E-4, 5.0E-4, 0.001, 3.9, 6.2)" gradientUnits="userSpaceOnUse" id="gradient6" r="819.2" spreadMethod="pad">
      <stop offset="0.0" stop-color="#e06b85"/>
      <stop offset="1.0" stop-color="#b73a5c"/>
    </radialGradient>
    <radialGradient cx="0" cy="0" gradientTransform="matrix(0.001, -3.0E-4, 5.0E-4, 0.0011, 5.9, 6.15)" gradientUnits="userSpaceOnUse" id="gradient7" r="819.2" spreadMethod="pad">
      <stop offset="0.0" stop-color="#b13c56"/>
      <stop offset="1.0" stop-color="#871c39"/>
    </radialGradient>
    <radialGradient cx="0" cy="0" gradientTransform="matrix(8.0E-4, -2.0E-4, 5.0E-4, 0.001, 5.5, 5.7)" gradientUnits="userSpaceOnUse" id="gradient8" r="819.2" spreadMethod="pad">
      <stop offset="0.0" stop-color="#e06b85"/>
      <stop offset="1.0" stop-color="#b73a5c"/>
    </radialGradient>
    <radialGradient cx="0" cy="0" gradientTransform="matrix(0.0012, -4.0E-4, 7.0E-4, 0.0014, 10.5, 12.65)" gradientUnits="userSpaceOnUse" id="gradient9" r="819.2" spreadMethod="pad">
      <stop offset="0.0" stop-color="#a83951"/>
      <stop offset="1.0" stop-color="#832d44"/>
    </radialGradient>
    <radialGradient cx="0" cy="0" gradientTransform="matrix(0.0012, -4.0E-4, 7.0E-4, 0.0014, 8.7, 13.15)" gradientUnits="userSpaceOnUse" id="gradient10" r="819.2" spreadMethod="pad">
      <stop offset="0.0" stop-color="#a83951"/>
      <stop offset="1.0" stop-color="#832d44"/>
    </radialGradient>
    <radialGradient cx="0" cy="0" gradientTransform="matrix(0.001, -3.0E-4, 5.0E-4, 0.0011, 8.45, 12.75)" gradientUnits="userSpaceOnUse" id="gradient11" r="819.2" spreadMethod="pad">
      <stop offset="0.0" stop-color="#b13c56"/>
      <stop offset="1.0" stop-color="#871c39"/>
    </radialGradient>
    <radialGradient cx="0" cy="0" gradientTransform="matrix(8.0E-4, -2.0E-4, 5.0E-4, 0.001, 8.35, 12.2)" gradientUnits="userSpaceOnUse" id="gradient12" r="819.2" spreadMethod="pad">
      <stop offset="0.0" stop-color="#e06b85"/>
      <stop offset="1.0" stop-color="#b73a5c"/>
    </radialGradient>
    <radialGradient cx="0" cy="0" gradientTransform="matrix(0.001, -3.0E-4, 5.0E-4, 0.0011, 10.35, 12.15)" gradientUnits="userSpaceOnUse" id="gradient13" r="819.2" spreadMethod="pad">
      <stop offset="0.0" stop-color="#b13c56"/>
      <stop offset="1.0" stop-color="#871c39"/>
    </radialGradient>
    <radialGradient cx="0" cy="0" gradientTransform="matrix(8.0E-4, -2.0E-4, 5.0E-4, 0.001, 9.95, 11.7)" gradientUnits="userSpaceOnUse" id="gradient14" r="819.2" spreadMethod="pad">
      <stop offset="0.0" stop-color="#e06b85"/>
      <stop offset="1.0" stop-color="#b73a5c"/>
    </radialGradient>
  </defs>
</svg>
