<?xml version="1.0" encoding="UTF-8" standalone="no"?>
<svg xmlns:ffdec="https://www.free-decompiler.com/flash" xmlns:xlink="http://www.w3.org/1999/xlink" ffdec:objectType="frame" height="38.1px" width="48.45px" xmlns="http://www.w3.org/2000/svg">
  <g transform="matrix(1.0, 0.0, 0.0, 1.0, 14.55, -2.55)">
    <use ffdec:characterId="1" height="38.1" transform="matrix(1.0, 0.0, 0.0, 1.0, -14.55, 2.55)" width="48.45" xlink:href="#shape0"/>
  </g>
  <defs>
    <g id="shape0" transform="matrix(1.0, 0.0, 0.0, 1.0, 14.55, -2.55)">
      <path d="M12.5 4.9 L12.35 3.95 13.0 4.3 Q18.4 9.5 20.0 26.1 L20.0 26.4 Q9.1 29.25 -1.0 26.4 2.25 8.8 7.1 4.25 7.4 4.0 7.85 3.9 L8.15 3.85 7.95 4.25 Q7.8 4.7 7.8 5.2 9.2 12.25 9.7 12.75 10.15 13.25 11.25 10.2 L12.45 6.5 12.5 4.9" fill="#cc0000" fill-rule="evenodd" stroke="none"/>
      <path d="M6.6 9.85 Q6.05 8.55 5.65 7.1 5.45 6.5 5.8 5.75 6.05 5.05 6.65 4.5 7.0 4.15 8.7 3.65 8.0 4.15 8.0 5.2 8.25 10.05 10.35 11.9 11.85 9.05 12.0 6.6 12.1 4.1 11.45 3.75 12.2 3.75 13.15 4.3 14.5 5.4 14.7 6.4 L13.25 10.95 13.05 10.8 13.0 10.9 13.15 10.0 12.95 9.65 Q12.85 11.0 10.45 16.1 L7.95 21.1 8.05 21.1 8.3 20.95 8.4 21.0 8.8 20.65 8.9 20.7 8.15 21.85 5.3 21.8 Q7.5 18.2 9.2 14.5 L9.65 13.5 Q6.9 10.05 7.15 9.1 L6.95 9.45 7.0 9.75 6.6 9.85 M7.25 11.2 L6.75 10.2 7.0 10.7 7.25 11.2" fill="#333333" fill-rule="evenodd" stroke="none"/>
      <path d="M13.25 10.95 L13.25 11.0 13.05 11.55 9.8 19.05 9.75 19.15 9.7 19.25 9.65 19.35 9.55 19.55 9.45 19.7 8.9 20.7 8.8 20.65 8.4 21.0 8.3 20.95 8.05 21.1 7.95 21.1 10.45 16.1 Q12.85 11.0 12.95 9.65 L13.15 10.0 13.0 10.9 13.05 10.8 13.25 10.95 M9.2 14.5 L9.3 14.25 7.25 11.2 7.0 10.7 6.75 10.2 6.6 9.85 7.0 9.75 6.95 9.45 7.15 9.1 Q6.9 10.05 9.65 13.5 L9.2 14.5" fill="#ffffff" fill-rule="evenodd" stroke="none"/>
      <path d="M19.5 20.0 L20.1 24.35 20.1 24.6 Q9.1 27.15 -1.1 24.6 L-0.1 20.0 Q9.9 21.5 19.5 20.0" fill="#999999" fill-rule="evenodd" stroke="none"/>
      <path d="M19.6 20.6 L20.0 23.3 20.0 23.45 Q9.3 26.65 -0.9 23.5 L-0.65 22.25 -0.25 20.6 Q10.1 22.5 19.6 20.6" fill="#333333" fill-rule="evenodd" stroke="none"/>
      <path d="M15.5 6.85 Q19.85 18.05 22.75 31.1 19.7 32.9 15.85 34.1 15.4 19.6 11.1 3.35 12.35 3.3 13.55 4.3 14.65 5.25 15.5 6.85" fill="url(#gradient0)" fill-rule="evenodd" stroke="none"/>
      <path d="M3.85 35.0 Q0.1 34.9 -3.0 31.1 -0.1 18.05 4.25 6.85 5.1 5.25 6.2 4.3 7.4 3.3 8.65 3.35 4.2 23.4 3.85 35.0" fill="url(#gradient1)" fill-rule="evenodd" stroke="none"/>
      <path d="M8.2 7.15 L8.3 8.1 7.35 13.6 6.8 16.35 6.5 17.75 6.5 17.85 6.5 18.25 Q6.5 18.8 7.1 19.3 L7.85 19.4 12.25 19.5 Q14.15 19.15 14.3 17.85 L15.4 25.55 14.95 25.65 14.05 25.65 13.45 25.75 14.15 24.7 12.45 24.95 12.35 24.8 14.05 24.15 14.25 23.9 14.1 22.2 14.0 21.85 Q10.0 22.3 6.15 21.85 L6.05 21.9 5.85 22.75 5.65 24.7 Q5.65 25.5 5.95 25.65 L10.4 25.9 5.85 26.5 5.5 27.6 Q4.45 27.6 4.45 27.15 L5.5 19.7 6.65 13.0 7.95 6.4 8.2 7.15 M6.4 20.95 L6.2 21.45 Q10.05 21.85 13.9 21.45 L13.7 20.75 13.75 20.65 13.1 20.65 12.25 20.8 6.6 20.65 6.4 20.95" fill="#000000" fill-opacity="0.29803923" fill-rule="evenodd" stroke="none"/>
      <path d="M10.45 12.1 L9.8 13.6 9.2 12.65 9.1 12.55 9.65 11.5 9.8 11.3 10.45 11.95 10.45 12.1" fill="#161616" fill-rule="evenodd" stroke="none"/>
      <path d="M12.4 2.95 Q13.95 3.6 13.95 4.45 13.95 5.45 13.65 5.45 L12.05 4.15 11.2 3.8 Q10.85 3.15 10.85 2.8 L12.4 2.95 M7.0 3.5 Q7.9 2.85 9.25 2.65 L8.95 3.75 7.85 4.15 6.95 4.7 6.3 5.2 6.1 4.95 6.05 4.7 Q6.05 4.1 7.0 3.5" fill="#002f00" fill-rule="evenodd" stroke="none"/>
      <path d="M15.8 2.85 Q17.2 3.4 17.95 5.25 23.1 11.2 27.3 19.25 L33.9 33.2 Q31.45 32.9 30.25 33.8 29.1 34.65 28.35 37.05 27.7 39.35 24.5 40.3 21.5 41.2 19.05 38.95 L17.55 28.55 Q15.9 17.45 14.85 13.85 10.75 12.3 10.15 9.8 9.85 12.2 5.7 13.65 3.85 19.65 0.3 38.9 -2.0 41.15 -5.1 40.3 -8.3 39.3 -9.0 37.0 -9.75 34.65 -10.85 33.75 -12.05 32.85 -14.55 33.15 -10.5 24.4 -7.45 19.15 -2.95 11.3 2.4 5.1 3.45 1.95 8.45 2.75 4.85 4.9 7.9 6.55 8.45 5.65 9.35 5.6 9.85 5.6 10.2 6.3 10.25 5.65 10.6 5.65 11.65 5.75 12.0 6.45 L12.45 6.05 Q15.7 4.7 11.5 2.75 L15.8 2.85 M5.65 9.45 L5.6 9.4 5.45 9.65 5.65 9.45" fill="#005900" fill-rule="evenodd" stroke="none"/>
      <path d="M21.3 14.6 L18.35 10.55 Q17.35 9.2 16.9 9.2 L16.55 9.3 16.35 9.55 Q16.15 9.9 16.1 10.4 L16.1 10.8 16.55 13.5 Q16.75 14.5 16.35 14.75 17.4 21.05 18.8 27.35 21.6 40.0 23.05 40.6 21.8 40.75 20.35 40.05 19.15 39.45 19.0 38.9 L16.7 23.55 Q15.3 14.95 14.9 13.95 14.55 13.75 14.35 13.7 L12.35 12.75 11.0 11.4 10.15 10.1 9.3 11.6 7.6 13.0 5.6 13.8 5.55 14.1 4.25 19.35 Q3.8 22.55 2.35 28.2 L0.85 36.95 0.5 38.65 Q0.45 39.1 -0.45 39.75 L-1.95 40.4 -3.5 40.55 -2.75 39.75 Q-1.95 38.9 -0.95 35.3 0.05 31.75 1.4 23.15 2.45 16.7 3.0 14.95 L2.5 15.05 Q2.85 12.6 3.75 11.0 L4.25 10.3 4.45 9.9 Q4.15 9.6 3.85 9.75 L3.65 9.85 2.75 11.15 Q1.15 13.55 0.45 15.05 L0.1 16.05 -1.8 21.1 -1.95 21.6 -1.85 21.1 -1.2 18.55 -0.5 16.05 0.2 14.0 1.4 11.05 2.5 9.0 2.6 8.55 Q2.6 8.05 2.1 7.6 L2.0 7.4 Q0.7 7.8 -0.9 9.3 L2.35 5.25 Q2.55 4.45 3.15 4.0 2.6 6.1 3.0 7.45 3.15 7.85 3.85 8.5 L3.95 8.7 4.0 8.65 4.35 8.9 Q4.7 9.2 5.0 9.2 5.7 9.2 5.65 8.8 L5.65 8.6 Q4.5 7.95 4.0 5.45 4.0 4.7 4.1 5.0 L4.65 5.85 5.6 7.05 6.55 7.6 Q6.8 7.7 6.45 6.5 6.0 5.25 6.1 5.0 L6.35 4.55 6.35 4.6 6.35 4.7 6.4 4.95 6.75 5.55 7.3 6.25 7.95 6.5 8.25 6.4 8.15 7.05 8.15 7.4 8.4 8.1 Q8.65 8.8 9.15 9.05 L9.4 9.0 9.7 7.6 9.4 6.4 9.2 5.9 9.2 5.85 9.95 5.9 10.2 6.4 10.35 7.6 10.3 8.55 10.55 8.8 10.9 8.8 Q11.2 8.55 11.4 7.3 L11.4 7.25 11.0 6.5 10.45 5.95 10.45 5.9 Q10.5 5.65 11.05 5.9 L11.15 5.95 11.25 6.05 12.0 6.5 12.05 6.45 12.25 6.2 12.95 5.8 13.75 5.15 Q13.95 4.7 13.65 4.0 14.4 5.1 14.25 5.45 L13.5 6.3 13.4 6.35 Q12.75 6.6 12.6 6.85 L12.55 7.1 14.25 6.8 15.0 6.5 15.65 5.75 Q15.8 5.35 15.8 5.8 15.2 8.0 13.95 8.3 L14.85 9.3 15.2 9.15 16.3 8.1 Q17.1 7.3 17.3 6.4 17.5 5.45 17.2 4.0 L18.05 5.5 19.15 6.8 20.2 8.25 20.3 8.45 19.8 8.1 Q18.95 7.5 18.3 7.25 17.8 7.0 17.6 7.45 L17.55 7.5 18.45 8.5 Q20.1 10.75 20.75 12.25 L22.1 15.3 23.3 17.95 21.3 14.6 M11.05 9.7 L10.5 9.85 11.05 10.85 12.15 12.15 14.45 13.35 16.1 14.1 15.95 12.85 Q15.55 11.4 14.4 9.65 13.75 8.7 12.15 8.1 L12.1 8.45 11.95 9.0 11.75 9.3 Q11.55 9.35 11.5 9.45 11.2 9.55 11.05 9.7 M7.9 8.9 L7.6 8.1 7.55 8.0 7.45 8.15 Q7.15 8.75 5.45 10.1 3.85 11.3 3.35 13.95 L3.3 14.1 3.55 14.05 3.6 14.05 6.9 12.6 Q8.5 11.6 9.1 9.7 L8.5 9.55 8.3 9.35 8.25 9.3 7.9 8.9" fill="#003e00" fill-rule="evenodd" stroke="none"/>
      <path d="M11.95 9.0 L12.1 8.45 12.15 8.1 Q13.75 8.7 14.4 9.65 15.55 11.4 15.95 12.85 L16.1 14.1 14.45 13.35 12.15 12.15 11.05 10.85 10.5 9.85 11.05 9.7 Q11.3 9.55 12.6 10.4 13.8 11.25 14.65 12.45 L14.65 12.2 13.85 10.85 13.3 10.0 12.75 9.25 Q12.4 8.85 12.15 8.9 L11.95 9.0 M7.6 8.1 L7.9 8.9 7.9 8.95 7.25 9.85 6.4 11.0 5.2 12.2 7.5 10.65 8.55 9.7 8.5 9.55 9.1 9.7 Q8.5 11.6 6.9 12.6 L3.6 14.05 3.35 13.95 Q3.85 11.3 5.45 10.1 7.15 8.75 7.45 8.15 L7.6 8.1" fill="#007700" fill-rule="evenodd" stroke="none"/>
      <path d="M-5.65 35.65 L-6.25 35.1 Q-6.4 34.7 -6.2 34.7 L-6.1 34.8 Q-5.85 35.2 -5.5 35.25 L-5.0 35.25 -4.95 35.25 -4.95 35.4 -5.05 35.6 -5.65 35.65 M-5.9 36.6 Q-6.3 36.5 -6.2 36.35 L-6.1 36.35 -5.35 36.05 -5.05 35.6 -5.0 35.6 -4.95 35.65 Q-4.65 35.95 -5.15 36.35 L-5.9 36.6 M-4.7 33.75 L-4.7 33.85 -4.9 34.65 -4.65 35.05 -4.65 35.1 -4.7 35.15 Q-5.15 35.2 -5.35 34.65 -5.4 34.25 -5.05 33.85 -4.8 33.5 -4.7 33.75 M-3.8 35.85 L-3.8 35.75 Q-3.75 35.3 -3.1 35.4 -2.75 35.5 -2.5 36.0 -2.3 36.35 -2.55 36.35 L-2.6 36.25 Q-2.9 35.9 -3.25 35.85 L-3.75 35.85 -3.8 35.85 M-4.1 36.2 L-4.1 36.1 -3.3 36.2 Q-3.0 36.5 -3.05 37.05 L-3.3 37.3 -3.35 37.2 Q-3.4 36.7 -3.7 36.5 L-4.1 36.2 M-4.55 36.05 Q-4.1 36.05 -4.2 36.7 -4.2 37.05 -4.65 37.35 -5.0 37.55 -5.05 37.35 L-4.95 37.25 -4.6 36.6 -4.65 36.05 -4.55 36.05 M-3.4 35.1 L-3.75 35.4 -3.8 35.4 -3.85 35.35 Q-4.05 34.95 -3.5 34.65 L-2.7 34.7 Q-2.3 34.85 -2.5 35.0 L-2.6 34.95 -3.4 35.1 M-3.3 34.0 L-3.4 34.0 -3.95 34.6 -4.05 35.05 -4.1 35.1 -4.2 35.05 Q-4.6 34.9 -4.3 34.3 -4.2 33.95 -3.7 33.75 -3.25 33.7 -3.3 34.0" fill="#ffffff" fill-rule="evenodd" stroke="none"/>
      <path d="M-8.25 25.25 L-8.3 25.45 Q-8.6 26.1 -8.25 26.65 -8.25 27.15 -7.9 27.3 L-8.0 27.4 Q-8.65 27.65 -8.95 26.75 -9.3 26.2 -8.9 25.55 -8.5 24.95 -8.25 25.25 M-7.3 27.4 L-7.35 27.35 Q-8.05 27.15 -7.85 26.25 L-6.9 25.45 Q-6.3 25.2 -6.3 25.55 L-6.5 25.6 Q-7.05 26.05 -7.2 26.6 L-7.3 27.3 -7.3 27.4 M-6.9 27.8 Q-7.3 27.15 -6.55 26.65 L-5.2 26.6 Q-4.7 26.75 -4.95 26.95 L-5.1 26.95 Q-5.8 26.9 -6.2 27.2 L-6.8 27.8 -6.8 27.85 -6.9 27.8 M-4.7 28.85 L-4.9 28.8 Q-5.45 28.35 -6.05 28.45 L-6.8 28.55 -6.8 28.5 Q-6.8 27.75 -5.9 27.65 -5.25 27.65 -4.8 28.35 -4.4 28.8 -4.7 28.85 M-9.9 26.65 Q-9.7 27.35 -9.3 27.65 L-8.5 27.9 -8.5 28.05 -9.75 28.15 Q-10.25 27.75 -10.25 27.05 -10.4 26.4 -9.95 26.6 L-9.9 26.65 M-7.45 29.0 L-7.35 28.85 Q-6.9 28.45 -6.3 29.15 -5.95 29.6 -6.1 30.4 -6.2 31.0 -6.55 30.8 L-6.55 30.55 Q-6.55 29.95 -6.8 29.5 L-7.45 29.0 M-8.7 28.5 L-8.65 28.45 -8.5 28.55 Q-8.15 29.15 -9.0 29.55 L-10.2 29.6 -10.65 29.15 -10.4 29.15 -9.3 29.05 -8.7 28.5 M-8.25 28.9 L-8.1 28.8 Q-7.45 28.85 -7.5 29.8 -7.5 30.3 -8.1 30.9 -8.6 31.15 -8.7 30.9 L-8.6 30.8 -8.05 29.75 -8.25 28.9" fill="#ffffff" fill-rule="evenodd" stroke="none"/>
      <path d="M-1.25 26.15 L-1.15 26.2 -1.05 26.4 -1.0 26.35 Q-0.6 26.4 -0.65 27.0 -0.65 27.35 -1.0 27.75 L-1.4 27.75 -1.35 27.65 Q-1.0 27.25 -1.0 26.95 L-1.05 26.45 -1.5 26.85 -2.3 26.9 -2.6 26.6 -2.45 26.6 -1.7 26.5 -1.35 26.15 -1.25 26.15 M-1.4 24.2 Q-1.15 23.8 -1.0 24.0 L-1.05 24.15 Q-1.25 24.55 -1.0 24.95 L-0.8 25.35 -0.9 25.45 Q-1.25 25.6 -1.5 25.0 -1.7 24.6 -1.4 24.2 M0.45 27.4 Q0.35 27.85 0.1 27.65 L0.1 27.5 -0.05 26.8 -0.45 26.45 -0.4 26.4 Q-0.15 26.15 0.3 26.6 0.55 26.9 0.45 27.4 M0.55 25.6 Q1.0 25.6 1.25 26.05 1.55 26.35 1.35 26.4 L1.25 26.35 Q0.85 26.05 0.45 26.15 L-0.05 26.2 -0.05 26.15 Q-0.05 25.65 0.55 25.6 M1.0 24.9 Q1.35 25.0 1.2 25.15 L1.1 25.15 0.35 25.3 -0.05 25.7 -0.15 25.7 Q-0.4 25.25 0.1 24.95 L1.0 24.9 M0.3 24.2 L0.15 24.25 -0.3 24.9 -0.4 25.35 -0.4 25.4 Q-0.9 25.25 -0.75 24.65 L-0.15 24.1 0.3 24.2 M-1.15 25.85 L-2.0 25.95 -2.3 25.2 Q-2.45 24.75 -2.15 24.9 L-2.1 24.95 -1.7 25.6 -1.15 25.75 -1.15 25.85" fill="#ffffff" fill-rule="evenodd" stroke="none"/>
      <path d="M-5.6 18.05 L-5.6 18.15 -5.6 18.65 -5.4 18.95 -5.5 19.0 -5.9 18.7 Q-6.05 18.45 -5.85 18.15 L-5.6 18.05 M-4.95 18.15 Q-4.7 18.0 -4.7 18.15 L-4.8 18.2 -5.1 18.65 -5.15 18.95 -5.15 19.0 Q-5.5 18.85 -5.4 18.5 -5.25 18.2 -4.95 18.15 M-5.65 19.3 L-6.25 19.35 -6.45 18.85 -6.35 18.65 -6.05 19.1 -5.65 19.25 -5.65 19.3 M-4.6 19.5 L-4.9 19.55 -4.9 19.5 Q-4.9 19.15 -4.55 19.1 -4.2 19.1 -4.0 19.45 L-3.95 19.65 -4.05 19.6 -4.6 19.5 M-4.1 18.85 L-4.15 18.85 -4.65 18.9 -4.9 19.15 -4.9 19.2 -4.95 19.15 Q-5.15 18.9 -4.8 18.65 -4.6 18.5 -4.2 18.65 -3.95 18.7 -4.1 18.85 M-5.6 19.6 Q-5.3 19.65 -5.35 20.05 L-5.6 20.55 -5.85 20.55 -5.8 20.5 -5.6 20.05 -5.6 19.7 -5.6 19.6 M-5.2 19.7 L-5.15 19.65 Q-4.95 19.5 -4.7 19.8 L-4.6 20.35 -4.8 20.5 -4.8 20.4 -4.9 19.95 -5.2 19.7 M-6.05 19.75 L-5.8 19.5 -5.75 19.5 -5.65 19.55 -5.6 19.7 -5.9 19.95 -6.45 20.0 -6.65 19.8 -6.55 19.8 -6.05 19.75" fill="#ffffff" fill-rule="evenodd" stroke="none"/>
      <path d="M0.3 15.9 L0.25 16.05 Q0.0 16.6 0.3 17.2 0.3 17.65 0.6 17.8 L0.5 17.9 Q-0.05 18.15 -0.4 17.25 -0.65 16.7 -0.3 16.1 0.05 15.55 0.3 15.9 M1.55 16.0 L2.1 16.1 1.95 16.15 Q1.45 16.6 1.25 17.1 L1.25 17.8 Q1.1 17.85 1.25 17.9 L1.1 17.85 Q0.5 17.65 0.65 16.75 L1.55 16.0 M0.05 18.45 L-1.1 18.55 Q-1.6 18.15 -1.6 17.5 -1.75 16.95 -1.3 17.1 L-1.3 17.2 -0.65 18.15 0.05 18.35 0.05 18.45 M1.05 19.3 L1.1 19.25 Q1.55 18.85 2.1 19.5 2.45 19.9 2.35 20.7 L1.9 21.05 1.9 20.75 1.6 19.8 1.05 19.3 M0.3 19.15 Q0.9 19.25 0.9 20.1 L0.3 21.2 Q-0.2 21.4 -0.3 21.2 L-0.2 21.05 0.3 20.05 0.15 19.3 0.3 19.15 M0.05 18.9 L0.15 19.3 -0.4 19.9 Q-0.9 20.25 -1.5 19.9 L-1.95 19.5 -1.75 19.5 -0.65 19.4 -0.2 18.9 -0.05 18.85 0.05 18.9 M3.5 18.8 Q3.9 19.15 3.6 19.25 L3.45 19.15 2.4 18.85 1.7 18.9 1.6 18.9 Q1.6 18.15 2.5 18.15 3.15 18.15 3.5 18.8 M2.2 17.65 L1.7 18.2 1.6 18.3 1.55 18.2 Q1.25 17.65 1.9 17.2 L3.15 17.1 3.4 17.4 3.3 17.4 2.2 17.65" fill="#ffffff" fill-rule="evenodd" stroke="none"/>
      <path d="M0.05 12.7 L0.15 13.2 -0.05 13.4 -0.05 13.25 Q-0.05 13.0 -0.2 12.85 L-0.4 12.65 -0.4 12.6 0.05 12.7 M0.65 12.55 L0.2 12.45 -0.15 12.45 -0.2 12.45 0.25 12.1 Q0.5 12.1 0.7 12.4 L0.75 12.6 0.65 12.55 M0.05 11.25 L0.0 11.25 -0.3 11.65 -0.35 11.95 -0.35 12.0 -0.4 12.0 -0.6 11.5 -0.2 11.2 Q0.05 11.05 0.05 11.25 M0.55 11.8 L0.1 11.9 -0.15 12.15 -0.2 12.2 -0.2 12.15 Q-0.35 11.9 -0.05 11.7 L0.5 11.65 0.6 11.8 0.55 11.8 M-1.4 11.7 L-1.15 12.1 -0.85 12.2 -0.85 12.25 -1.35 12.3 -1.55 11.85 -1.4 11.65 -1.4 11.7 M-0.8 12.6 L-0.75 12.55 Q-0.45 12.6 -0.45 12.95 L-0.75 13.45 -1.0 13.45 -0.9 13.4 -0.7 12.9 -0.8 12.6 -1.05 12.9 -1.55 12.9 -1.7 12.7 -1.6 12.7 -1.15 12.7 -0.9 12.45 -0.85 12.45 -0.8 12.6 M-0.75 11.1 L-0.75 11.2 -0.75 11.7 -0.6 11.95 -0.65 12.0 -1.05 11.75 -1.0 11.25 -0.75 11.1" fill="#ffffff" fill-rule="evenodd" stroke="none"/>
      <path d="M21.6 16.65 L21.0 17.2 20.4 17.15 20.65 17.6 21.4 17.9 21.55 17.9 21.25 18.15 20.45 17.9 Q19.95 17.5 20.3 17.2 L20.35 17.15 20.4 17.15 20.3 16.95 20.3 16.8 20.35 16.8 20.85 16.8 21.45 16.35 21.55 16.25 Q21.75 16.25 21.6 16.65 M20.4 15.4 L20.65 16.2 Q20.5 16.75 20.05 16.7 L19.95 16.65 19.95 16.6 20.2 16.2 20.05 15.4 20.05 15.3 20.4 15.4 M20.4 18.9 Q20.35 19.1 20.0 18.9 L19.5 18.25 Q19.45 17.6 19.9 17.6 L19.95 17.6 19.95 18.15 Q19.95 18.5 20.3 18.8 L20.4 18.9 M19.4 16.6 L19.3 16.15 18.75 15.55 18.65 15.55 Q18.6 15.25 19.0 15.3 19.5 15.5 19.65 15.85 19.95 16.45 19.5 16.6 L19.45 16.65 19.4 16.6 M19.1 16.95 L18.75 16.65 17.95 16.5 17.8 16.55 Q17.65 16.4 18.05 16.25 L18.85 16.2 Q19.4 16.45 19.2 16.9 L19.15 16.95 19.1 16.95 M17.95 17.8 L17.85 17.9 Q17.65 17.9 17.8 17.55 18.05 17.05 18.45 16.95 19.05 16.85 19.15 17.3 L19.15 17.4 19.1 17.4 18.6 17.4 Q18.25 17.4 17.95 17.8 M19.45 17.75 L19.0 18.05 Q18.75 18.25 18.7 18.75 L18.65 18.85 18.4 18.6 Q18.35 18.05 18.65 17.75 19.1 17.3 19.45 17.65 L19.45 17.75" fill="#ffffff" fill-rule="evenodd" stroke="none"/>
      <path d="M25.9 24.25 Q25.9 23.85 26.55 24.1 L27.5 24.95 Q27.7 25.8 27.0 26.05 L26.9 26.1 26.9 25.95 26.8 25.25 Q26.65 24.75 26.1 24.3 L25.9 24.25 M28.5 24.25 Q28.95 24.85 28.6 25.45 28.25 26.35 27.65 26.1 L27.55 25.95 27.9 25.35 Q28.25 24.75 27.95 24.15 L27.9 23.95 Q28.15 23.6 28.5 24.25 M29.55 25.35 L29.6 25.25 Q30.05 25.1 29.9 25.7 29.9 26.4 29.4 26.85 28.6 27.3 28.15 26.7 L28.15 26.6 28.95 26.35 29.55 25.35 M28.25 27.15 L28.35 27.15 28.95 27.75 30.05 27.85 30.3 27.85 29.85 28.3 28.65 28.25 Q27.75 27.85 28.15 27.2 L28.25 27.15 M25.65 27.15 Q25.1 27.05 24.5 27.45 L24.35 27.55 Q24.0 27.45 24.45 27.05 24.9 26.35 25.55 26.35 26.45 26.4 26.45 27.15 L26.4 27.2 25.65 27.15 M26.4 26.45 L25.85 25.9 Q25.4 25.6 24.7 25.65 L24.6 25.65 Q24.35 25.45 24.85 25.25 L26.15 25.35 Q26.9 25.85 26.55 26.45 L26.45 26.55 26.4 26.45 M27.05 27.65 L26.45 28.15 Q26.15 28.6 26.15 29.25 L26.15 29.5 Q25.85 29.7 25.7 29.05 25.6 28.3 25.9 27.85 26.55 27.15 27.0 27.55 L27.05 27.65 M27.1 28.5 Q27.05 27.55 27.75 27.45 L27.85 27.6 27.7 28.4 Q27.75 28.85 28.25 29.5 L28.35 29.6 Q28.25 29.85 27.75 29.6 27.15 29.0 27.1 28.5" fill="#ffffff" fill-rule="evenodd" stroke="none"/>
      <path d="M21.85 24.5 L21.9 24.5 Q22.2 24.35 22.1 24.75 22.1 25.25 21.75 25.5 L20.9 25.45 20.9 25.35 21.45 25.2 21.85 24.5 M20.8 23.75 L20.75 23.6 Q20.9 23.35 21.15 23.8 21.45 24.2 21.25 24.55 21.0 25.2 20.65 25.0 L20.55 24.95 20.75 24.5 20.8 23.75 M19.65 24.5 Q20.15 24.85 19.9 25.25 L19.8 25.3 19.8 25.25 19.4 24.9 18.65 24.75 18.55 24.75 Q18.4 24.55 18.75 24.5 19.3 24.3 19.65 24.5 M19.5 23.8 L19.9 23.7 20.5 24.25 Q20.65 24.8 20.2 25.0 L20.15 25.0 20.15 24.95 20.05 24.5 19.6 23.8 19.5 23.8 M19.8 25.75 L19.3 25.7 Q18.9 25.65 18.55 25.95 L18.4 25.95 Q18.2 25.95 18.5 25.65 18.75 25.2 19.25 25.2 19.8 25.25 19.8 25.7 L19.8 25.75 M20.2 26.05 L19.8 26.4 Q19.65 26.65 19.65 27.1 L19.65 27.25 Q19.4 27.4 19.3 27.0 19.25 26.45 19.5 26.2 19.9 25.7 20.2 25.95 L20.2 26.05 M22.35 26.2 L22.1 26.45 21.25 26.4 20.85 26.05 20.75 26.55 Q20.75 26.85 21.1 27.25 L21.15 27.35 20.75 27.35 20.4 26.6 Q20.35 25.95 20.75 25.95 L20.85 26.0 20.9 25.75 21.0 25.7 21.1 25.7 21.45 26.1 22.2 26.2 22.35 26.2" fill="#ffffff" fill-rule="evenodd" stroke="none"/>
      <path d="M24.8 20.05 L24.5 19.8 24.0 19.75 23.95 19.75 Q23.85 19.6 24.05 19.55 24.45 19.4 24.7 19.55 L24.85 20.05 24.8 20.1 24.8 20.05 M25.0 19.9 L25.0 19.85 24.95 19.55 24.7 19.1 24.6 19.1 24.85 19.05 25.3 19.4 Q25.4 19.8 25.05 19.9 L25.0 19.9 M23.9 20.35 L24.45 20.05 Q24.8 20.05 24.8 20.4 L24.8 20.45 24.45 20.4 23.95 20.5 23.85 20.55 23.9 20.35 M25.1 20.6 L24.8 20.85 24.7 21.3 24.7 21.45 Q24.5 21.55 24.45 21.25 24.45 20.9 24.6 20.7 24.85 20.4 25.05 20.55 L25.1 20.6 M25.7 19.1 L25.8 19.6 Q25.65 20.05 25.4 19.9 L25.3 19.85 25.45 19.55 Q25.65 19.3 25.45 19.05 L25.45 18.95 Q25.55 18.8 25.7 19.1 M26.2 19.55 L26.25 19.55 26.35 19.75 26.1 20.25 25.55 20.2 25.55 20.15 25.9 20.05 26.2 19.55 M26.55 20.7 L26.35 20.9 25.8 20.85 25.5 20.6 25.45 20.95 25.65 21.45 25.7 21.45 25.45 21.45 25.2 20.95 Q25.15 20.55 25.45 20.5 L25.5 20.6 25.55 20.45 25.65 20.4 25.9 20.65 26.4 20.7 26.55 20.7" fill="#ffffff" fill-rule="evenodd" stroke="none"/>
      <path d="M23.55 32.1 Q23.8 31.75 24.15 32.3 24.5 32.9 24.2 33.45 23.9 34.3 23.35 34.05 L23.25 34.0 23.55 33.35 Q23.85 32.8 23.6 32.25 L23.55 32.1 M25.15 33.35 L25.15 33.3 Q25.6 33.1 25.4 33.7 25.4 34.35 24.95 34.7 L23.8 34.65 23.8 34.5 24.5 34.3 25.15 33.35 M22.55 33.3 L21.9 32.35 21.75 32.3 Q21.75 31.95 22.3 32.15 L23.2 32.95 Q23.35 33.8 22.75 34.0 L22.65 34.05 22.6 34.0 22.55 33.3 M20.45 33.6 Q20.2 33.45 20.7 33.3 L21.95 33.35 Q22.6 33.8 22.3 34.4 L22.25 34.45 22.15 34.4 21.6 33.85 Q21.2 33.55 20.55 33.6 L20.45 33.6 M22.15 35.1 L21.45 35.0 Q20.95 34.95 20.4 35.35 L20.2 35.4 Q19.95 35.35 20.35 34.95 20.7 34.3 21.35 34.3 22.25 34.35 22.25 35.1 L22.15 35.1 M21.95 36.95 L21.95 37.25 Q21.6 37.4 21.5 36.85 21.4 36.1 21.75 35.65 22.3 35.0 22.75 35.4 L22.8 35.5 22.25 35.95 Q21.95 36.4 21.95 36.95 M23.9 35.0 L24.0 35.1 24.5 35.6 25.6 35.65 25.8 35.65 25.35 36.1 Q24.7 36.4 24.2 36.1 L23.7 35.45 Q23.55 35.65 23.5 36.2 L24.0 37.25 24.15 37.35 Q24.0 37.55 23.55 37.35 L22.95 36.3 Q22.95 35.4 23.55 35.35 L23.7 35.45 23.8 35.1 23.9 35.0" fill="#ffffff" fill-rule="evenodd" stroke="none"/>
      <path d="M20.75 10.8 L20.8 11.3 20.4 11.6 20.35 11.5 20.5 11.25 20.5 10.8 20.5 10.7 Q20.6 10.55 20.75 10.8 M21.15 11.25 L21.3 11.45 21.15 11.9 20.6 11.85 20.6 11.75 20.9 11.7 21.15 11.25 M20.65 12.0 L20.9 12.25 21.35 12.3 21.45 12.3 21.3 12.45 20.8 12.45 Q20.45 12.3 20.6 12.0 L20.65 12.0 M20.55 12.2 L20.45 12.5 20.65 12.95 20.75 13.05 20.5 13.05 20.2 12.55 Q20.2 12.2 20.5 12.15 L20.55 12.2 M19.7 10.8 Q19.7 10.65 19.95 10.8 L20.35 11.1 20.15 11.55 20.1 11.6 20.1 11.5 20.05 11.25 19.75 10.8 19.7 10.8 M19.15 11.4 Q19.0 11.3 19.25 11.25 19.55 11.1 19.8 11.25 L19.95 11.75 19.9 11.75 19.65 11.5 19.2 11.4 19.15 11.4 M19.0 12.2 L19.05 12.0 Q19.25 11.7 19.5 11.7 19.95 11.75 19.95 12.0 L19.9 12.0 19.55 12.0 19.1 12.15 19.0 12.2 M20.15 12.2 L19.95 12.45 19.8 12.85 19.8 12.95 19.6 12.8 19.7 12.3 Q19.95 12.0 20.15 12.2" fill="#ffffff" fill-rule="evenodd" stroke="none"/>
      <path d="M32.5 33.1 L31.15 33.35 Q30.5 33.6 30.05 34.0 L29.35 34.8 29.0 35.3 28.25 37.25 27.8 38.2 27.8 34.45 Q27.65 29.55 26.4 24.8 26.15 23.75 26.35 24.05 L27.55 26.25 Q29.5 29.85 30.85 31.5 32.25 33.1 33.05 33.05 L32.5 33.1 M-7.1 23.9 Q-6.9 23.6 -7.15 24.65 -8.45 29.4 -8.55 34.3 L-8.55 38.05 -9.05 37.1 -9.8 35.15 -10.1 34.65 -10.6 34.0 Q-11.25 33.3 -12.1 33.15 L-13.7 33.1 -13.9 33.05 Q-13.0 32.95 -11.6 31.4 -10.25 29.7 -8.35 26.1 L-7.1 23.9" fill="#000000" fill-opacity="0.29803923" fill-rule="evenodd" stroke="none"/>
    </g>
    <linearGradient gradientTransform="matrix(0.0, 0.0188, -0.0071, 0.0, 16.95, 18.7)" gradientUnits="userSpaceOnUse" id="gradient0" spreadMethod="pad" x1="-819.2" x2="819.2">
      <stop offset="0.24705882352941178" stop-color="#1f1f1f"/>
      <stop offset="0.8274509803921568" stop-color="#330000"/>
    </linearGradient>
    <linearGradient gradientTransform="matrix(0.0, 0.0193, -0.0071, 0.0, 2.85, 19.15)" gradientUnits="userSpaceOnUse" id="gradient1" spreadMethod="pad" x1="-819.2" x2="819.2">
      <stop offset="0.24705882352941178" stop-color="#1f1f1f"/>
      <stop offset="0.8274509803921568" stop-color="#330000"/>
    </linearGradient>
  </defs>
</svg>
