<svg xmlns="http://www.w3.org/2000/svg" xmlns:ffdec="https://www.free-decompiler.com/flash" xmlns:xlink="http://www.w3.org/1999/xlink" ffdec:objectType="frame" width="11.75" height="14.8"><use ffdec:characterId="1" xlink:href="#a" width="11.75" height="14.8"/><defs><linearGradient id="b" x1="-819.2" x2="819.2" gradientTransform="matrix(.0056 -.0022 .0051 .0127 2.1 5.2)" gradientUnits="userSpaceOnUse" spreadMethod="pad"><stop offset="0" stop-color="#b2dce5"/><stop offset=".463" stop-color="#dbfff9"/><stop offset="1" stop-color="#b3dce5"/></linearGradient><g id="a" fill-rule="evenodd"><path fill="url(#b)" d="m.55 2.25.1-.05h.9l.25.1q.6.15 1.25.65l5 6.2 2.3 2.4q.65.6.5 1.4-.1.65-.6 1.1l-.7-.45q-.85-.5-1.7-.65l-2.05.15-.65.2q-.85.35-1.5.9l-.6.65-.4.75q-.15.3-.15.55v.1l-.85-.3q-.9-.6-.75-2.2L-.7 4.4l-.05-.1-.1-.1.15-.65.2-.45.05-.05.2-.3q.3-.4.8-.5" transform="translate(.85 -2.15)"/><path fill="#8cb2d8" d="m.1 1.95.1.1.05.1-.05.1-.1.05zM2.75 8.6l-1.3-3.5Q1 4.05.7 2.3l-.15-.75L.4.9.6.6l.2.9.15.75L1.7 5 3 8.5l1.05 2.75.55.75.05.05-.05.1-.1.05-.1-.05-.55-.8zm-1.7-.45.05-.05h.1l.1.05 1.45 4.2q.1.4.85 1l.05.1-.05.1-.1.05-.05-.05-.95-1.1-1.45-4.2zm1.6-8L2.8.7l.35.6.05.05v.05l1.4 2.65q1.65 3 2.55 4.1 1.2 1.45 1.6 2.35H8.7l.15.25-.05.1-.05.1-.1-.05-.05-.05-.1-.25q-.35-.9-1.55-2.3L4.4 4.15 3 1.5v.05l-.05-.15L2.6.8 2.4.05zM1.4.1l.1-.05h.15l.2 1L2 1.5h.05l.15.4h-.05l.1.2h.05l1.75 3.5L5.9 9.1l.85 1.8.05.1-.1.05-.05.05-.1-.1-.9-1.8-1.8-3.5-1.8-3.5-.1-.2-.15-.4-.2-.5zM6 3.35l.15.35h.05q1.4 3 2.5 4.3l1.75 2.3q.25.35.1 1.2l-.05.05-.1.05-.1-.05v-.1l-.05-1.05v.05L8.5 8.15Q7.4 6.8 5.95 3.8l-.45-.95v-.1z"/><path fill="#4b5c7f" fill-opacity=".694" d="m3.05 1.35.05.1-1.05.5-1.25.3H.15l-.05-.1v-.2l.05-.55.5.1 1.25.05.4-.05zm5.1 8.8.3.05q1.25.05 1.95.5l.05.05q.65.4.9.95l-.25.2-.7-.45q-.85-.5-1.7-.65l-2.05.15-.65.2q-.85.35-1.5.9l-.6.65-.4.75q-.15.3-.15.55v.1q-.25-.5-.2-.95l.3-.85.65-.75q.55-.5 1.35-.9l.85-.3z"/><path fill="#242311" d="M9.95 12.7q-.5-.25-1.1-.35l-1.05-.1-.85.1q-.9.15-1.5.6-.65.45-.9 1.2l-.2.65-1-.8q0-.25.15-.55l.4-.75.6-.65q.65-.55 1.5-.9l.65-.2 2.05-.15q.85.15 1.7.65l.7.45-.75 1.1z"/><path fill="#a76ce2" d="m10.05 11.6.15.3-.15.25-.25.15-.3-.15-.1-.25.1-.3.3-.1zm-1.9 0-.15.25-.25.15-.3-.15-.1-.25.1-.3.3-.1.25.1zm-2.3.2.15.3-.15.25-.25.15-.3-.15-.1-.25.1-.3.3-.1zM4.4 13.95l-.25.15-.3-.15-.1-.25.1-.3.3-.1.25.1.15.3z"/><path fill="#fcf2d9" d="M9 11.15q.2-.05.45.2l-.2.15-.15-.15zm-.45 0-.35.25-.1-.05-.05-.2.4-.1zm.55.5-.2.25-.15-.1v-.25H9zm0 .55v-.25h.25l.05.1-.05.15-.15.1zm-.45-.05-.1.05-.2-.15v-.25l.35.2zm1.85-.1-.1-.25.3-.05.1.1zm.15.15.05.25-.25.1-.05-.2zm-.5.25.3.35-.15.15-.25-.25v-.25zm-4-1.1.05.25-.15.1-.1-.1v-.25zm.65.35-.2.25-.15-.1v-.3h.15zm-.05-.5q.2-.1.4.15l-.2.15-.15-.05zm.2.75.1-.2.2.05.05.1-.1.15-.2.1zm-.85.15q.2-.05.45.2l-.2.15-.15-.15zm-1.95 1.15-.25-.45.3.05.1.3zm.3-.35q0-.3.3-.2l.1.1-.25.2zm.6-.7-.15.15h-.25l-.05-.25h.35zm.05.7v-.4q.3 0 .3.35l-.05.15-.1.05zm-.15.35-.15.15h-.3l-.05-.25h.4zm-.8.95q.3 0 .3.35l-.05.15-.1.05-.15-.2zm-.75 0-.1-.25.35-.05.1.1z"/></g></defs></svg>