<?xml version="1.0" encoding="UTF-8" standalone="no"?>
<svg xmlns:ffdec="https://www.free-decompiler.com/flash" xmlns:xlink="http://www.w3.org/1999/xlink" ffdec:objectType="frame" height="12.2px" width="11.75px" xmlns="http://www.w3.org/2000/svg">
  <g transform="matrix(1.0, 0.0, 0.0, 1.0, 0.1, -3.35)">
    <use ffdec:characterId="1" height="12.2" transform="matrix(1.0, 0.0, 0.0, 1.0, -0.1, 3.35)" width="11.75" xlink:href="#shape0"/>
  </g>
  <defs>
    <g id="shape0" transform="matrix(1.0, 0.0, 0.0, 1.0, 0.1, -3.35)">
      <path d="M10.5 12.15 L10.3 12.25 9.5 12.05 Q7.15 11.95 5.05 13.0 2.95 14.05 2.4 14.7 L2.1 14.2 2.65 13.6 Q4.05 12.15 6.0 11.7 L10.3 11.95 10.35 12.05 10.5 12.15" fill="#000000" fill-rule="evenodd" stroke="none"/>
      <path d="M1.85 13.3 L2.75 12.1 4.1 11.0 4.6 10.65 4.75 10.85 3.45 11.75 Q6.15 10.8 9.15 11.25 L9.8 11.35 10.7 11.95 10.5 12.15 10.35 12.05 10.3 11.95 6.0 11.7 Q4.05 12.15 2.65 13.6 L2.1 14.2 1.85 13.3 M2.8 3.4 L2.8 3.35 2.95 3.35 2.8 3.4" fill="#5d5d5d" fill-rule="evenodd" stroke="none"/>
      <path d="M9.95 9.9 L10.0 10.05 10.05 10.3 10.1 10.55 10.15 10.75 10.2 10.9 10.3 11.2 10.75 11.7 10.75 11.75 10.7 11.95 9.8 11.35 9.15 11.25 Q6.15 10.8 3.45 11.75 L4.75 10.85 4.6 10.65 4.1 11.0 2.75 12.1 1.85 13.3 1.7 12.65 1.5 11.65 1.4 11.15 1.35 10.95 0.7 8.85 -0.1 6.2 0.35 5.1 1.4 4.0 1.75 3.85 2.0 3.9 2.75 5.1 3.75 6.8 3.0 7.55 3.25 7.45 3.95 7.15 4.0 7.15 Q4.85 6.9 5.85 7.15 L5.75 7.15 Q4.75 7.4 4.0 7.8 L3.85 7.95 Q3.6 8.45 4.8 8.15 L7.15 7.95 5.15 8.6 Q4.7 8.8 4.1 9.25 3.5 9.7 4.55 9.25 L5.75 8.75 Q7.6 8.15 9.15 8.8 L9.05 9.1 6.95 9.35 6.55 9.45 6.8 9.45 Q8.55 9.2 9.95 9.9" fill="#121212" fill-rule="evenodd" stroke="none"/>
      <path d="M9.95 9.9 Q8.55 9.2 6.8 9.45 L6.55 9.45 6.95 9.35 9.05 9.1 9.45 9.35 9.85 9.65 9.95 9.9 M9.15 8.8 Q7.6 8.15 5.75 8.75 L4.55 9.25 Q3.5 9.7 4.1 9.25 4.7 8.8 5.15 8.6 L7.15 7.95 4.8 8.15 Q3.6 8.45 3.85 7.95 L4.0 7.8 Q4.75 7.4 5.75 7.15 L5.85 7.15 Q4.85 6.9 4.0 7.15 L3.95 7.15 3.25 7.45 3.0 7.55 3.75 6.8 2.75 5.1 2.0 3.9 1.75 3.85 2.25 3.65 2.95 3.4 4.15 3.55 7.6 7.65 8.15 8.0 Q9.15 8.15 9.15 8.7 L9.15 8.8" fill="#2a2a2a" fill-rule="evenodd" stroke="none"/>
      <path d="M5.25 7.0 L3.8 4.9 2.95 3.5 3.25 3.4 4.1 4.7 5.65 7.0 5.25 7.0 M5.7 7.1 L5.8 7.2 6.75 7.7 6.9 7.8 7.0 7.85 7.5 8.3 7.5 8.35 7.45 8.55 7.45 8.6 7.1 8.7 7.1 8.75 6.95 8.75 6.8 8.8 6.45 8.8 Q6.6 8.65 6.8 8.6 L6.85 8.55 7.1 8.35 7.05 8.3 6.75 8.1 6.55 8.0 6.4 7.95 5.45 7.2 5.7 7.1 M7.8 9.05 Q8.55 9.15 8.65 9.45 L8.15 9.45 7.65 9.2 7.5 9.2 7.8 9.05" fill="#c2c2c2" fill-rule="evenodd" stroke="none"/>
      <path d="M5.65 7.0 L5.7 7.1 5.45 7.2 5.25 7.0 5.65 7.0 M6.8 8.8 L6.6 9.05 6.75 9.05 6.65 9.0 7.8 9.05 7.5 9.2 6.45 9.2 6.35 9.0 6.45 8.8 6.8 8.8 M8.65 9.45 L8.65 9.8 8.3 9.75 8.15 9.45 8.65 9.45" fill="#6b6b6b" fill-rule="evenodd" stroke="none"/>
      <path d="M5.5 9.55 L7.25 9.3 9.5 9.7 9.8 9.85 10.65 10.35 10.85 10.5 11.65 11.25 11.35 12.15 Q10.45 11.1 9.0 10.55 L8.45 10.35 8.25 10.35 7.05 10.25 6.45 10.3 5.9 10.4 5.25 10.55 Q5.3 10.0 5.5 9.55" fill="#ffffff" fill-rule="evenodd" stroke="none"/>
      <path d="M1.0 13.4 L0.8 13.05 Q0.75 12.8 0.95 12.5 1.4 11.7 3.05 10.7 3.15 10.6 3.3 10.55 L3.35 10.5 3.95 10.15 4.5 9.9 4.65 9.85 4.7 9.85 4.75 9.8 5.5 9.55 Q5.3 10.0 5.25 10.55 3.7 10.95 2.4 12.05 L1.0 13.4" fill="#c9c9c9" fill-rule="evenodd" stroke="none"/>
      <path d="M11.35 12.15 L10.85 13.5 10.65 14.0 10.55 14.2 Q9.9 13.4 8.55 13.4 L7.9 13.4 7.25 13.5 6.3 13.65 6.25 13.65 6.25 13.6 5.75 12.75 Q5.15 11.6 5.25 10.55 L5.9 10.4 6.45 10.3 7.05 10.25 8.25 10.35 8.45 10.35 9.0 10.55 Q10.45 11.1 11.35 12.15" fill="#919191" fill-rule="evenodd" stroke="none"/>
      <path d="M10.55 14.2 L10.25 14.4 Q10.0 14.05 8.8 13.9 L7.15 13.9 6.5 13.95 4.9 14.25 4.7 14.3 4.6 14.35 3.55 14.7 Q2.75 15.0 2.55 15.25 L2.3 15.55 1.0 13.4 2.4 12.05 Q3.7 10.95 5.25 10.55 5.15 11.6 5.75 12.75 L6.25 13.6 6.25 13.65 6.3 13.65 7.25 13.5 7.9 13.4 8.55 13.4 Q9.9 13.4 10.55 14.2" fill="#565656" fill-rule="evenodd" stroke="none"/>
      <path d="M6.65 10.4 Q6.55 9.65 7.4 9.6 L7.95 9.75 8.15 10.0 8.2 10.05 8.25 10.3 8.3 10.55 8.3 10.65 8.25 10.75 8.25 10.85 8.15 10.95 8.15 11.0 7.9 11.2 7.8 11.25 7.05 11.1 Q6.7 10.8 6.65 10.4 M8.6 11.8 L8.85 12.05 8.9 12.3 8.95 12.35 8.95 12.6 8.95 12.65 8.9 12.85 8.9 12.95 8.3 13.25 8.15 13.3 Q7.55 13.3 7.4 12.65 7.2 11.9 8.0 11.75 L8.1 11.75 8.6 11.8" fill="#000000" fill-opacity="0.4" fill-rule="evenodd" stroke="none"/>
      <path d="M7.9 10.5 Q7.9 10.35 8.15 10.35 L8.25 10.35 8.35 10.55 8.1 10.85 7.85 10.7 7.85 10.55 7.9 10.5 M8.65 12.75 L8.65 12.5 8.85 12.5 9.05 12.5 9.1 12.65 8.85 12.9 8.65 12.8 8.65 12.75" fill="#ffffff" fill-rule="evenodd" stroke="none"/>
      <path d="M7.9 10.5 L7.6 10.45 7.55 10.45 7.75 10.9 7.6 10.85 7.55 10.85 Q7.1 10.65 7.3 10.25 7.45 9.8 7.75 9.7 L8.4 9.9 7.85 9.85 7.75 10.1 8.2 10.15 8.25 10.2 8.25 10.35 8.15 10.35 Q7.9 10.35 7.9 10.5 M8.65 12.75 L8.45 12.75 8.25 12.55 Q8.1 12.7 8.3 13.05 L8.2 13.0 Q7.75 12.65 8.0 12.1 L8.05 12.05 8.15 12.0 8.2 12.0 Q8.05 12.3 8.4 12.4 L8.5 12.25 8.85 12.35 8.95 12.25 8.85 12.5 8.65 12.5 8.65 12.75" fill="#ffd88e" fill-rule="evenodd" stroke="none"/>
      <path d="M7.0 10.35 Q6.9 9.6 7.75 9.55 8.1 9.55 8.3 9.7 L8.5 9.95 8.55 10.0 8.6 10.25 8.65 10.5 8.65 10.6 8.6 10.7 8.6 10.8 8.5 10.9 8.5 10.95 8.25 11.15 8.15 11.2 7.4 11.05 7.0 10.35 M8.25 10.35 L8.25 10.2 8.2 10.15 7.75 10.1 7.85 9.85 8.4 9.9 7.75 9.7 Q7.45 9.8 7.3 10.25 7.1 10.65 7.55 10.85 L7.6 10.85 7.75 10.9 7.55 10.45 7.6 10.45 7.9 10.5 7.85 10.55 7.85 10.7 8.1 10.85 8.35 10.55 8.25 10.35 M8.85 12.5 L8.95 12.25 8.85 12.35 8.5 12.25 8.4 12.4 Q8.05 12.3 8.2 12.0 L8.15 12.0 8.05 12.05 8.0 12.1 Q7.75 12.65 8.2 13.0 L8.3 13.05 Q8.1 12.7 8.25 12.55 L8.45 12.75 8.65 12.75 8.65 12.8 8.85 12.9 9.1 12.65 9.05 12.5 8.85 12.5 M8.45 11.7 L8.95 11.75 9.2 12.0 9.25 12.25 9.3 12.3 9.3 12.55 9.3 12.6 9.25 12.8 9.25 12.9 8.65 13.2 8.5 13.25 Q7.9 13.25 7.75 12.6 7.55 11.85 8.35 11.7 L8.45 11.7" fill="#a87b0d" fill-rule="evenodd" stroke="none"/>
    </g>
  </defs>
</svg>
