<?xml version="1.0" encoding="UTF-8" standalone="no"?>
<svg xmlns:ffdec="https://www.free-decompiler.com/flash" xmlns:xlink="http://www.w3.org/1999/xlink" ffdec:objectType="frame" height="22.55px" width="17.8px" xmlns="http://www.w3.org/2000/svg">
  <g transform="matrix(1.0, 0.0, 0.0, 1.0, 0.65, -1.15)">
    <use ffdec:characterId="1" height="22.55" transform="matrix(1.0, 0.0, 0.0, 1.0, -0.65, 1.15)" width="17.8" xlink:href="#shape0"/>
  </g>
  <defs>
    <g id="shape0" transform="matrix(1.0, 0.0, 0.0, 1.0, 0.65, -1.15)">
      <path d="M11.4 8.6 L13.45 10.5 14.15 11.25 14.6 12.35 15.75 12.45 16.8 12.7 17.15 12.95 16.45 14.2 15.35 13.2 Q14.9 13.55 14.9 14.45 L14.9 14.7 14.95 15.0 14.95 15.25 15.0 15.35 14.65 15.9 Q14.0 16.55 13.7 16.35 L12.1 15.75 11.9 15.9 Q11.7 16.15 11.9 16.7 L12.1 17.1 11.95 17.35 11.65 17.7 11.45 17.85 11.35 17.9 Q10.85 18.35 10.75 17.9 L9.4 16.8 8.9 17.35 8.7 17.8 8.95 18.25 9.45 18.85 9.35 19.55 Q9.15 20.25 8.25 20.5 L7.15 19.8 Q6.7 20.2 6.9 21.05 L7.05 21.35 7.15 21.7 7.2 21.8 7.4 22.0 7.4 22.5 6.65 23.0 5.6 23.35 5.65 23.2 5.15 21.7 4.35 21.8 4.15 23.2 4.15 23.6 2.65 23.5 1.75 23.15 1.8 23.0 1.85 22.9 2.65 19.75 2.55 19.3 2.4 18.6 1.95 15.5 0.7 7.8 Q0.0 4.75 -0.55 3.8 -0.85 2.45 -0.05 1.7 0.4 1.35 0.85 1.3 2.5 0.75 3.7 2.3 L4.95 3.6 5.5 4.1 7.8 6.0 11.4 8.6" fill="#fff6f3" fill-rule="evenodd" stroke="none"/>
      <path d="M11.5 8.65 L13.55 10.55 Q11.05 9.6 8.0 7.15 6.45 6.1 5.6 4.15 L7.9 6.05 11.5 8.65 M9.05 18.3 L9.55 18.9 9.45 19.6 Q9.25 20.3 8.35 20.55 L8.4 19.85 8.25 19.55 8.15 19.5 7.0 18.5 8.35 19.2 8.6 19.8 Q9.3 19.5 9.15 18.75 8.55 18.45 8.5 17.8 L8.25 16.5 8.8 17.85 9.05 18.3 M3.15 19.8 Q2.8 21.55 1.95 22.95 L2.75 19.8 3.15 19.8 M1.9 23.05 Q2.85 23.3 3.65 23.05 L3.35 22.45 4.1 20.45 3.85 22.15 Q3.65 22.4 3.95 22.8 L4.25 23.25 4.25 23.65 2.75 23.55 1.85 23.2 1.9 23.05 M6.15 19.5 L7.15 21.4 7.25 21.75 7.3 21.85 7.5 22.05 7.5 22.55 6.75 23.05 5.7 23.4 5.75 23.25 5.95 22.6 5.9 21.95 5.4 20.25 6.25 21.9 6.3 22.1 6.3 22.55 7.0 22.15 6.9 21.9 6.15 19.5 M16.9 12.75 L14.95 13.1 13.85 13.4 14.6 12.75 14.7 12.4 15.85 12.5 16.9 12.75 M15.05 15.3 L15.1 15.4 14.75 15.95 Q14.1 16.6 13.8 16.4 L13.6 16.15 13.45 15.85 13.4 15.75 13.2 15.65 12.0 14.6 13.55 15.45 13.6 15.8 Q14.1 15.9 14.45 15.6 L13.45 13.6 15.0 15.05 15.05 15.3 M10.6 16.95 L10.25 16.7 9.25 15.65 10.4 16.25 Q11.1 16.75 10.9 17.4 L11.45 17.2 11.5 17.15 10.95 14.9 12.2 17.15 12.05 17.4 11.75 17.75 11.55 17.9 11.45 17.95 Q10.95 18.4 10.85 17.95 L10.8 17.75 10.75 17.4 10.6 16.95" fill="#fbbcc5" fill-opacity="0.49803922" fill-rule="evenodd" stroke="none"/>
      <path d="M9.65 13.4 L11.0 13.4 Q12.45 13.45 13.25 12.9 14.0 12.35 14.25 11.3 L14.7 12.4 14.6 12.75 13.85 13.4 13.4 13.55 11.9 14.1 11.7 14.15 Q9.3 14.75 8.6 15.55 L7.15 17.7 6.95 17.95 6.15 18.9 Q5.45 19.55 4.35 19.75 L2.75 19.8 2.65 19.35 2.5 18.65 2.05 15.55 2.6 15.65 Q4.65 16.15 5.9 15.35 L6.2 15.1 Q7.6 13.85 8.6 13.55 L9.65 13.4" fill="#fce2e5" fill-opacity="0.49803922" fill-rule="evenodd" stroke="none"/>
      <path d="M3.9 22.85 Q3.6 22.45 3.8 22.2 3.9 22.0 4.4 21.9 L4.2 23.3 3.9 22.85 M8.4 19.85 L8.35 20.55 7.25 19.85 7.65 19.45 8.15 19.5 8.25 19.55 8.4 19.85 M5.9 22.65 L5.7 23.3 5.2 21.8 Q5.7 21.75 5.85 22.0 L5.9 22.65 M12.9 15.5 L13.2 15.65 13.4 15.75 13.45 15.85 13.6 16.15 13.8 16.4 12.2 15.8 Q12.5 15.45 12.9 15.5 M10.25 16.7 L10.6 16.95 10.75 17.4 10.8 17.75 10.85 17.95 9.5 16.85 10.25 16.7 M17.15 13.0 L16.45 14.25 15.35 13.25 15.85 12.95 17.15 13.0" fill="#bf5f7f" fill-opacity="0.49803922" fill-rule="evenodd" stroke="none"/>
    </g>
  </defs>
</svg>
