<svg xmlns="http://www.w3.org/2000/svg" xmlns:ffdec="https://www.free-decompiler.com/flash" xmlns:xlink="http://www.w3.org/1999/xlink" ffdec:objectType="frame" width="7.8" height="4.8"><use ffdec:characterId="1" xlink:href="#a" width="7.8" height="4.8"/><defs><g id="a" fill-rule="evenodd"><path fill="#47d2d2" d="m.5 4.55-.5-.7q-.05-.4.2-.75.25-.4.65-.45.45-.05.8.2L2 3.5l-.15.8-.15.2v-.05l.15-.7-.35-.55-.6-.15-.5.4q-.2.25-.15.6z"/><path fill="#298787" d="m.5 4.55-.25-.5Q.2 3.7.4 3.45l.5-.4.6.15.35.55-.15.7v.05l-.25.15-.25.15-.65-.2z"/><path fill="#f69" d="M3.3 4.3v-.05l.15-.7-.3-.55-.6-.15q-.35.1-.55.4l-.1.6.2.5-.45-.7q-.05-.4.2-.75.2-.4.65-.45l.75.2.4.7-.2.75z"/><path fill="#ec3874" d="m2.1 4.35-.2-.5.1-.6q.2-.3.55-.4l.6.15.3.55-.15.7v.05l-.2.15-.3.15-.6-.2h-.05z"/><path fill="#f69" d="m6.25 1.9-.45-.65Q5.75.8 6 .5q.25-.4.65-.5l.8.2.35.75-.15.75-.15.2v-.05l.15-.7L7.3.6 6.7.4l-.5.4q-.2.35-.15.65z"/><path fill="#ec3874" d="m6.25 1.9-.2-.45Q6 1.15 6.2.8l.5-.4.6.2.35.55-.15.7v.05l-.25.15-.3.1-.6-.15H6.3z"/><path fill="#fc6" d="m5.15 2.9-.45-.65q-.05-.45.2-.8t.65-.35l.8.2.35.65-.15.75-.2.2v-.05l.2-.65-.4-.6-.55-.15q-.35.1-.5.35-.2.35-.15.65z"/><path fill="#ffae12" d="m5.15 2.9-.2-.45q-.05-.3.15-.65.15-.25.5-.35l.55.15.4.6-.2.65v.05l-.2.15-.3.1-.6-.15H5.2z"/><path fill="#9c3" d="m3.85 3.8-.4-.65q-.1-.5.15-.8.2-.4.65-.45l.75.2q.4.25.4.7l-.2.8-.15.2v-.1L5.2 3q0-.35-.3-.55l-.6-.15q-.35.1-.55.35l-.15.65z"/><path fill="#6ba100" d="m3.85 3.8-.25-.5.15-.65q.2-.25.55-.35l.6.15q.3.2.3.55l-.15.7v.1l-.25.1-.25.15-.6-.2z"/></g></defs></svg>