<?xml version="1.0" encoding="UTF-8" standalone="no"?>
<svg xmlns:ffdec="https://www.free-decompiler.com/flash" xmlns:xlink="http://www.w3.org/1999/xlink" ffdec:objectType="frame" height="4.8px" width="7.8px" xmlns="http://www.w3.org/2000/svg">
  <g transform="matrix(1.0, 0.0, 0.0, 1.0, -0.8, -8.7)">
    <use ffdec:characterId="1" height="4.8" transform="matrix(1.0, 0.0, 0.0, 1.0, 0.8, 8.7)" width="7.8" xlink:href="#shape0"/>
  </g>
  <defs>
    <g id="shape0" transform="matrix(1.0, 0.0, 0.0, 1.0, -0.8, -8.7)">
      <path d="M1.3 13.25 L0.8 12.55 Q0.75 12.15 1.0 11.8 1.25 11.4 1.65 11.35 2.1 11.3 2.45 11.55 L2.8 12.2 2.65 13.0 2.5 13.2 2.5 13.15 2.65 12.45 2.3 11.9 1.7 11.75 1.2 12.15 Q1.0 12.4 1.05 12.75 L1.3 13.25" fill="#47d2d2" fill-rule="evenodd" stroke="none"/>
      <path d="M1.3 13.25 L1.05 12.75 Q1.0 12.4 1.2 12.15 L1.7 11.75 2.3 11.9 2.65 12.45 2.5 13.15 2.5 13.2 2.25 13.35 2.0 13.5 1.35 13.3 1.3 13.25" fill="#298787" fill-rule="evenodd" stroke="none"/>
      <path d="M4.1 13.0 L4.1 12.95 4.25 12.25 3.95 11.7 3.35 11.55 Q3.0 11.65 2.8 11.95 L2.7 12.55 2.9 13.05 2.45 12.35 Q2.4 11.95 2.65 11.6 2.85 11.2 3.3 11.15 L4.05 11.35 4.45 12.05 4.25 12.8 4.1 13.0" fill="#ff6699" fill-rule="evenodd" stroke="none"/>
      <path d="M2.9 13.05 L2.7 12.55 2.8 11.95 Q3.0 11.65 3.35 11.55 L3.95 11.7 4.25 12.25 4.1 12.95 4.1 13.0 3.9 13.15 3.6 13.3 3.0 13.1 2.95 13.1 2.9 13.05" fill="#ec3874" fill-rule="evenodd" stroke="none"/>
      <path d="M7.05 10.6 L6.6 9.95 Q6.55 9.5 6.8 9.2 7.05 8.8 7.45 8.7 L8.25 8.9 8.6 9.65 8.45 10.4 8.3 10.6 8.3 10.55 8.45 9.85 8.1 9.3 7.5 9.1 7.0 9.5 Q6.8 9.85 6.85 10.15 L7.05 10.6" fill="#ff6699" fill-rule="evenodd" stroke="none"/>
      <path d="M7.05 10.6 L6.85 10.15 Q6.8 9.85 7.0 9.5 L7.5 9.1 8.1 9.3 8.45 9.85 8.3 10.55 8.3 10.6 8.05 10.75 7.75 10.85 7.15 10.7 7.1 10.7 7.05 10.6" fill="#ec3874" fill-rule="evenodd" stroke="none"/>
      <path d="M5.95 11.6 L5.5 10.95 Q5.45 10.5 5.7 10.15 5.95 9.8 6.35 9.8 L7.15 10.0 7.5 10.65 7.35 11.4 7.15 11.6 7.15 11.55 7.35 10.9 6.95 10.3 6.4 10.15 Q6.05 10.25 5.9 10.5 5.7 10.85 5.75 11.15 L5.95 11.6" fill="#ffcc66" fill-rule="evenodd" stroke="none"/>
      <path d="M5.95 11.6 L5.75 11.15 Q5.7 10.85 5.9 10.5 6.05 10.25 6.4 10.15 L6.95 10.3 7.35 10.9 7.15 11.55 7.15 11.6 6.95 11.75 6.65 11.85 6.05 11.7 6.0 11.7 5.95 11.6" fill="#ffae12" fill-rule="evenodd" stroke="none"/>
      <path d="M4.65 12.5 L4.25 11.85 Q4.15 11.35 4.4 11.05 4.6 10.65 5.05 10.6 L5.8 10.8 Q6.2 11.05 6.2 11.5 L6.0 12.3 5.85 12.5 5.85 12.4 6.0 11.7 Q6.0 11.35 5.7 11.15 L5.1 11.0 Q4.75 11.1 4.55 11.35 L4.4 12.0 4.65 12.5" fill="#99cc33" fill-rule="evenodd" stroke="none"/>
      <path d="M4.65 12.5 L4.4 12.0 4.55 11.35 Q4.75 11.1 5.1 11.0 L5.7 11.15 Q6.0 11.35 6.0 11.7 L5.85 12.4 5.85 12.5 5.6 12.6 5.35 12.75 4.75 12.55 4.65 12.5" fill="#6ba100" fill-rule="evenodd" stroke="none"/>
    </g>
  </defs>
</svg>
