<?xml version="1.0" encoding="UTF-8" standalone="no"?>
<svg xmlns:ffdec="https://www.free-decompiler.com/flash" xmlns:xlink="http://www.w3.org/1999/xlink" ffdec:objectType="frame" height="12.05px" width="11.3px" xmlns="http://www.w3.org/2000/svg">
  <g transform="matrix(1.0, 0.0, 0.0, 1.0, 0.4, -2.5)">
    <use ffdec:characterId="5" height="12.05" transform="matrix(1.0, 0.0, 0.0, 1.0, -0.4, 2.5)" width="11.3" xlink:href="#shape0"/>
  </g>
  <defs>
    <g id="shape0" transform="matrix(1.0, 0.0, 0.0, 1.0, 0.4, -2.5)">
      <path d="M1.5 5.95 L1.2 5.55 1.15 5.45 1.05 5.25 0.65 4.65 0.6 4.55 0.05 3.7 -0.3 3.25 -0.3 3.1 -0.35 3.05 -0.4 3.2 -0.35 3.05 -0.35 2.75 0.6 2.5 0.75 2.6 2.15 3.85 2.4 4.15 2.65 4.55 2.95 5.25 3.3 5.85 3.7 6.25 3.7 6.85 3.7 6.9 Q3.75 7.3 4.45 7.85 L5.05 8.3 6.0 9.25 6.05 9.35 6.15 9.5 6.5 9.95 6.6 10.3 6.85 10.55 7.5 11.1 9.25 14.1 Q6.75 15.45 5.05 12.95 L4.85 12.4 4.85 12.3 3.85 10.2 2.65 7.85 2.3 7.25 1.5 5.95 M4.3 6.15 L4.45 6.15 4.5 6.55 4.25 6.7 Q4.05 6.7 4.0 6.55 L4.2 6.2 4.3 6.15 M3.9 7.05 L4.05 7.0 4.15 6.95 4.7 7.0 4.75 7.0 5.1 7.35 5.45 7.65 4.9 7.5 4.5 7.45 3.9 7.1 3.9 7.05" fill="#232300" fill-rule="evenodd" stroke="none"/>
      <path d="M1.5 5.95 L2.3 7.25 2.65 7.85 3.85 10.2 4.85 12.3 4.85 12.4 4.75 12.2 2.55 7.85 1.85 6.6 1.5 5.95 M9.25 14.1 L7.5 11.1 6.85 10.55 6.6 10.3 6.5 9.95 6.15 9.5 6.05 9.35 6.0 9.25 5.05 8.3 4.45 7.85 Q3.75 7.3 3.7 6.9 L3.7 6.85 3.7 6.25 3.3 5.85 2.95 5.25 2.65 4.55 2.4 4.15 2.15 3.85 0.75 2.6 Q2.15 2.8 4.55 5.0 L7.35 7.85 8.9 9.65 9.2 10.1 10.9 12.65 9.25 14.1 M4.3 6.15 L4.2 6.2 4.0 6.55 Q4.05 6.7 4.25 6.7 L4.5 6.55 4.45 6.15 4.3 6.15 M3.9 7.05 L3.9 7.1 4.5 7.45 4.9 7.5 5.45 7.65 5.1 7.35 4.75 7.0 4.7 7.0 4.15 6.95 4.05 7.0 3.9 7.05" fill="#333300" fill-rule="evenodd" stroke="none"/>
    </g>
  </defs>
</svg>
