<svg xmlns="http://www.w3.org/2000/svg" xmlns:ffdec="https://www.free-decompiler.com/flash" xmlns:xlink="http://www.w3.org/1999/xlink" ffdec:objectType="frame" width="7.85" height="9.9"><use ffdec:characterId="1" xlink:href="#a" width="7.85" height="9.9"/><defs><g id="a" fill-rule="evenodd"><path fill="#00538e" d="M1.85 1.1 3.25 0l.5.8Q3.05 1.95.2 2.4L0 1.6q.7.05 1.85-.5"/><path fill="#8cdfff" d="M3.5 8.05q.6 0 .6.65 0 .6-.6.6l-.45-.1-.2-.4v-.1q0-.65.65-.65m2-.75q.15-.15.45-.15.65 0 .65.6 0 .65-.65.65-.6 0-.6-.65 0-.3.15-.45"/><path fill="#299fc6" d="M2.4 8.65q.3 0 .45.15l.2.4v.05q0 .65-.65.65-.6 0-.6-.65 0-.6.6-.6M7.85 7.5q0 .6-.65.6-.6 0-.6-.6 0-.65.6-.65.65 0 .65.65m-3.1.1q.6 0 .6.6 0 .65-.6.65-.65 0-.65-.65 0-.6.65-.6"/><path fill="#fff" fill-opacity=".451" d="m3.35 8.2.25.3-.25.25-.25-.25q0-.3.25-.3m-1.1.6.3.25-.3.25L2 9.05q0-.25.25-.25m2.1-.8q0-.25.25-.25l.25.25-.25.25zm1.7-.45-.25.25-.25-.25q0-.25.25-.25zm1-.55.25.25-.25.3-.25-.3q0-.25.25-.25"/></g></defs></svg>