<svg xmlns="http://www.w3.org/2000/svg" xmlns:ffdec="https://www.free-decompiler.com/flash" xmlns:xlink="http://www.w3.org/1999/xlink" ffdec:objectType="frame" width="36.05" height="29.15"><use ffdec:characterId="1" xlink:href="#a" width="36.05" height="29.15"/><defs><linearGradient id="b" x1="-819.2" x2="819.2" gradientTransform="matrix(-.0006 -.0177 -.019 .0006 18.2 19)" gradientUnits="userSpaceOnUse" spreadMethod="pad"><stop offset="0" stop-color="#ffe5c4"/><stop offset=".2" stop-color="#dec8ad"/><stop offset=".424" stop-color="#ffecd4"/></linearGradient><linearGradient id="c" x1="-819.2" x2="819.2" gradientTransform="matrix(.0006 -.0177 .019 .0006 1.55 19)" gradientUnits="userSpaceOnUse" spreadMethod="pad"><stop offset="0" stop-color="#ffe5c4"/><stop offset=".2" stop-color="#dec8ad"/><stop offset=".424" stop-color="#ffecd4"/></linearGradient><linearGradient id="d" x1="-819.2" x2="819.2" gradientTransform="matrix(.0002 -.0033 .0062 .0002 9.9 19.3)" gradientUnits="userSpaceOnUse" spreadMethod="pad"><stop offset=".2" stop-color="#ffecd4"/><stop offset="1" stop-color="#fff6ec"/></linearGradient><g id="a" fill-rule="evenodd"><path fill="#c9b399" d="M18.05 20.25q.9 0 1.25.5l-1.25.3H18l-1.25-.3q.3-.5 1.25-.5z"/><path fill="url(#b)" d="M9.9 3.7h.1l-.15-.1q2.4-.3 4.05-.05 3.1.6 5.8 2.4l2.6 2.3.45.95 1.05 2.65q1.1 1.25 2.6 3.85 1.7 2.9 1.5 6.6-.25 3.7-2.55 6.2Q22.95 31 17 32l-7.1.5v-8l1.25-.3q-.35-.5-1.25-.5z" transform="translate(8.15 -3.45)"/><path fill="url(#c)" d="M9.9 32.5 3.45 32q-6.5-1-8.95-3.45Q-7.95 26-8.15 22.3t1.5-6.6l2.5-3.75 1.1-2.75.5-.95q1.1-1.3 2.55-2.3 2.7-1.8 5.85-2.4 1.6-.25 3.9.05l-.15.1h.3v20h-.05q-.95 0-1.25.5l1.25.3h.05z" transform="translate(8.15 -3.45)"/><path fill="#ecd8c0" d="m31.2 6.5.45 1.35q.3 1.05 0 1.9L30.4 11.5q-.9.9-2.55 1.05-1.6.15-3-.75l-2.1-1.7-1.15-1.55-.8-1.15 1.15 1q.95.85 2.35 1.5 1.4.6 3.3.55 1.95-.15 2.95-1.5.95-1.4.65-2.45M14.75 8.55l-1.2 1.55-2.1 1.7q-1.4.9-3 .75t-2.5-1.05L4.7 9.75q-.3-.85-.05-1.9l.5-1.35q-.3 1.05.65 2.45.95 1.35 2.9 1.5l3.35-.55q1.35-.65 2.3-1.5l1.2-1z"/><path fill="url(#d)" d="M5.25 21.45Q1 20 .5 19.5q-.4-.6-.4-1l.05-.85q.05-.2.9-.6l1.5-.85q.45-.4 3.5-1.35 3-1 5.35-.45l5.25 1.7q2.75 1.15 3.1 2.4.35 1.3-2.45 2.2l-5.4 1.45q-2.4.65-6.65-.7" transform="translate(8.15 -3.45)"/></g></defs></svg>