<svg xmlns="http://www.w3.org/2000/svg" xmlns:ffdec="https://www.free-decompiler.com/flash" xmlns:xlink="http://www.w3.org/1999/xlink" ffdec:objectType="frame" width="31.55" height="32.9"><use ffdec:characterId="1" xlink:href="#a" width="31.55" height="32.9"/><defs><linearGradient id="b" x1="-819.2" x2="819.2" gradientTransform="matrix(0 -.0086 .0076 0 10 11.55)" gradientUnits="userSpaceOnUse" spreadMethod="pad"><stop offset="0" stop-color="#9c6f14"/><stop offset=".129" stop-color="#ffd583"/><stop offset=".278" stop-color="#fff"/><stop offset=".553" stop-color="#ffd583"/><stop offset=".867" stop-color="#9c6f14"/></linearGradient><linearGradient id="c" x1="-819.2" x2="819.2" gradientTransform="matrix(.0016 0 0 .0009 18.95 16.95)" gradientUnits="userSpaceOnUse" spreadMethod="pad"><stop offset="0" stop-color="#9c6f14"/><stop offset=".243" stop-color="#ffd583"/><stop offset=".525" stop-color="#fff"/><stop offset=".769" stop-color="#ffd583"/><stop offset="1" stop-color="#9c6f14"/></linearGradient><linearGradient id="d" x1="-819.2" x2="819.2" gradientTransform="matrix(-.0002 -.0024 .0025 -.0002 15.75 18.5)" gradientUnits="userSpaceOnUse" spreadMethod="pad"><stop offset="0" stop-color="#9c6f14"/><stop offset=".282" stop-color="#ffd583"/><stop offset=".478" stop-color="#fff"/><stop offset=".753" stop-color="#ffd583"/></linearGradient><linearGradient id="e" x1="-819.2" x2="819.2" gradientTransform="matrix(.0019 0 0 .0007 24.25 27.95)" gradientUnits="userSpaceOnUse" spreadMethod="pad"><stop offset="0" stop-color="#9c6f14"/><stop offset=".282" stop-color="#ffd583"/><stop offset=".478" stop-color="#fff"/><stop offset=".753" stop-color="#ffd583"/></linearGradient><linearGradient id="h" x1="-819.2" x2="819.2" gradientTransform="matrix(.0001 -.0024 .0025 .0001 4.2 18.5)" gradientUnits="userSpaceOnUse" spreadMethod="pad"><stop offset="0" stop-color="#9c6f14"/><stop offset=".282" stop-color="#ffd583"/><stop offset=".478" stop-color="#fff"/><stop offset=".753" stop-color="#ffd583"/></linearGradient><linearGradient id="i" x1="-819.2" x2="819.2" gradientTransform="matrix(.0052 -.0012 .0007 .0033 18.8 26.35)" gradientUnits="userSpaceOnUse" spreadMethod="pad"><stop offset="0" stop-color="#9c6f14"/><stop offset=".282" stop-color="#ffd583"/><stop offset=".478" stop-color="#fff"/><stop offset=".753" stop-color="#ffd583"/></linearGradient><linearGradient id="l" x1="-819.2" x2="819.2" gradientTransform="matrix(.0029 -.004 .0035 .0025 14.95 14.5)" gradientUnits="userSpaceOnUse" spreadMethod="pad"><stop offset="0" stop-color="#717272"/><stop offset=".282" stop-color="#bbc2c4"/><stop offset=".478" stop-color="#fff"/><stop offset=".753" stop-color="#bbc2c4"/></linearGradient><linearGradient id="m" x1="-819.2" x2="819.2" gradientTransform="matrix(.0055 0 0 .0011 10 18.45)" gradientUnits="userSpaceOnUse" spreadMethod="pad"><stop offset="0" stop-color="#838383"/><stop offset=".282" stop-color="#bbc2c4"/><stop offset=".478" stop-color="#fff"/><stop offset=".753" stop-color="#bbc2c4"/><stop offset="1" stop-color="#6b6b6b"/></linearGradient><linearGradient id="n" x1="-819.2" x2="819.2" gradientTransform="matrix(.008 0 0 .0019 10 26.8)" gradientUnits="userSpaceOnUse" spreadMethod="pad"><stop offset="0" stop-color="#838383"/><stop offset=".282" stop-color="#bbc2c4"/><stop offset=".478" stop-color="#fff"/><stop offset=".753" stop-color="#bbc2c4"/><stop offset="1" stop-color="#6b6b6b"/></linearGradient><linearGradient id="o" x1="-819.2" x2="819.2" gradientTransform="matrix(.0017 0 0 .0009 .95 16.95)" gradientUnits="userSpaceOnUse" spreadMethod="pad"><stop offset="0" stop-color="#9c6f14"/><stop offset=".282" stop-color="#ffd583"/><stop offset=".478" stop-color="#fff"/><stop offset=".753" stop-color="#ffd583"/><stop offset="1" stop-color="#9c6f14"/></linearGradient><linearGradient id="p" x1="-819.2" x2="819.2" gradientTransform="matrix(-.0019 -.0003 .0001 -.0007 -4.2 27.95)" gradientUnits="userSpaceOnUse" spreadMethod="pad"><stop offset="0" stop-color="#9c6f14"/><stop offset=".282" stop-color="#ffd583"/><stop offset=".478" stop-color="#fff"/><stop offset=".753" stop-color="#ffd583"/></linearGradient><linearGradient id="q" x1="-819.2" x2="819.2" gradientTransform="matrix(-.0044 -.0009 .0007 -.0033 1.25 26.4)" gradientUnits="userSpaceOnUse" spreadMethod="pad"><stop offset="0" stop-color="#9c6f14"/><stop offset=".282" stop-color="#ffd583"/><stop offset=".478" stop-color="#fff"/><stop offset=".753" stop-color="#ffd583"/></linearGradient><linearGradient id="r" x1="-819.2" x2="819.2" gradientTransform="matrix(.0125 0 0 .0015 10 20.4)" gradientUnits="userSpaceOnUse" spreadMethod="pad"><stop offset="0" stop-color="#2a0000"/><stop offset=".478" stop-color="#6b3030"/><stop offset="1" stop-color="#2c0000"/></linearGradient><linearGradient id="s" x1="-819.2" x2="819.2" gradientTransform="matrix(.0122 0 0 .0019 10 22.45)" gradientUnits="userSpaceOnUse" spreadMethod="pad"><stop offset="0" stop-color="#2a0000"/><stop offset=".486" stop-color="#652b2b"/><stop offset="1" stop-color="#2c0000"/></linearGradient><linearGradient id="v" x1="-819.2" x2="819.2" gradientTransform="matrix(.0028 0 0 .002 17.55 18.8)" gradientUnits="userSpaceOnUse" spreadMethod="pad"><stop offset="0" stop-color="#741515"/><stop offset=".533" stop-color="#e54949"/><stop offset="1" stop-color="#741515"/></linearGradient><linearGradient id="w" x1="-819.2" x2="819.2" gradientTransform="matrix(.0028 0 0 .002 2.5 18.8)" gradientUnits="userSpaceOnUse" spreadMethod="pad"><stop offset="0" stop-color="#741515"/><stop offset=".533" stop-color="#e54949"/><stop offset="1" stop-color="#741515"/></linearGradient><linearGradient id="x" x1="-819.2" x2="819.2" gradientTransform="matrix(.0033 0 0 .0026 18.2 25.5)" gradientUnits="userSpaceOnUse" spreadMethod="pad"><stop offset="0" stop-color="#741515"/><stop offset=".533" stop-color="#e54949"/><stop offset="1" stop-color="#741515"/></linearGradient><linearGradient id="y" x1="-819.2" x2="819.2" gradientTransform="matrix(.0019 0 0 .0008 23.75 27.1)" gradientUnits="userSpaceOnUse" spreadMethod="pad"><stop offset="0" stop-color="#741515"/><stop offset=".533" stop-color="#e54949"/><stop offset="1" stop-color="#741515"/></linearGradient><linearGradient id="z" x1="-819.2" x2="819.2" gradientTransform="matrix(.0033 0 0 .0026 1.8 25.5)" gradientUnits="userSpaceOnUse" spreadMethod="pad"><stop offset="0" stop-color="#741515"/><stop offset=".533" stop-color="#e54949"/><stop offset="1" stop-color="#741515"/></linearGradient><linearGradient id="A" x1="-819.2" x2="819.2" gradientTransform="matrix(.0019 0 0 .0008 -3.7 27.1)" gradientUnits="userSpaceOnUse" spreadMethod="pad"><stop offset="0" stop-color="#741515"/><stop offset=".533" stop-color="#e54949"/><stop offset="1" stop-color="#741515"/></linearGradient><linearGradient id="B" x1="-819.2" x2="819.2" gradientTransform="matrix(-.0027 -.0041 .0036 -.0023 4.9 14.65)" gradientUnits="userSpaceOnUse" spreadMethod="pad"><stop offset="0" stop-color="#747474"/><stop offset=".282" stop-color="#bbc0c2"/><stop offset=".478" stop-color="#fff"/><stop offset=".753" stop-color="#bbc2c4"/></linearGradient><linearGradient id="F" x1="-819.2" x2="819.2" gradientTransform="matrix(-.0028 -.0049 .0059 -.0034 13.15 27.2)" gradientUnits="userSpaceOnUse" spreadMethod="pad"><stop offset=".153" stop-color="#e54949"/><stop offset=".937" stop-color="#850404"/></linearGradient><linearGradient id="G" x1="-819.2" x2="819.2" gradientTransform="matrix(-.0001 -.0039 .0046 -.0002 9.5 25.8)" gradientUnits="userSpaceOnUse" spreadMethod="pad"><stop offset=".153" stop-color="#e54949"/><stop offset=".937" stop-color="#850404"/></linearGradient><linearGradient id="H" x1="-819.2" x2="819.2" gradientTransform="matrix(-.0008 -.0063 .0071 -.0009 8.55 28.75)" gradientUnits="userSpaceOnUse" spreadMethod="pad"><stop offset=".153" stop-color="#e54949"/><stop offset=".925" stop-color="#3f0000"/></linearGradient><radialGradient id="f" cx="0" cy="0" r="819.2" gradientTransform="translate(20.45 24.45)scale(.0062)" gradientUnits="userSpaceOnUse" spreadMethod="pad"><stop offset="0" stop-color="#333"/><stop offset="1"/></radialGradient><radialGradient id="g" cx="0" cy="0" r="819.2" gradientTransform="translate(16.9 19.75)scale(.0036)" gradientUnits="userSpaceOnUse" spreadMethod="pad"><stop offset="0" stop-color="#333"/><stop offset="1"/></radialGradient><radialGradient id="j" cx="0" cy="0" r="819.2" gradientTransform="translate(-.4 24.45)scale(.0062)" gradientUnits="userSpaceOnUse" spreadMethod="pad"><stop offset="0" stop-color="#333"/><stop offset="1"/></radialGradient><radialGradient id="k" cx="0" cy="0" r="819.2" gradientTransform="translate(3.1 19.65)scale(.0038)" gradientUnits="userSpaceOnUse" spreadMethod="pad"><stop offset="0" stop-color="#333"/><stop offset="1"/></radialGradient><radialGradient id="t" cx="0" cy="0" r="819.2" gradientTransform="translate(9.9 20.2)scale(.0058)" gradientUnits="userSpaceOnUse" spreadMethod="pad"><stop offset="0" stop-color="#353e9a"/><stop offset="1" stop-color="#0d134f"/></radialGradient><radialGradient id="u" cx="0" cy="0" r="819.2" gradientTransform="translate(10 25.35)scale(.0078)" gradientUnits="userSpaceOnUse" spreadMethod="pad"><stop offset="0" stop-color="#353e9a"/><stop offset="1" stop-color="#0d134f"/></radialGradient><radialGradient id="C" cx="0" cy="0" r="819.2" gradientTransform="translate(14.85 17.2)scale(.0074)" gradientUnits="userSpaceOnUse" spreadMethod="pad"><stop offset="0" stop-color="#bd3c3c"/><stop offset="1" stop-color="#830101"/></radialGradient><radialGradient id="D" cx="0" cy="0" r="819.2" gradientTransform="translate(5.2 17)scale(.0066)" gradientUnits="userSpaceOnUse" spreadMethod="pad"><stop offset="0" stop-color="#d23838"/><stop offset="1" stop-color="#950000"/></radialGradient><radialGradient id="E" cx="0" cy="0" r="819.2" gradientTransform="translate(10.15 22.1)scale(.0027)" gradientUnits="userSpaceOnUse" spreadMethod="pad"><stop offset=".153" stop-color="#e54949"/><stop offset=".937" stop-color="#850404"/></radialGradient><radialGradient id="I" cx="0" cy="0" r="819.2" gradientTransform="translate(13.9 9.3)scale(.0109)" gradientUnits="userSpaceOnUse" spreadMethod="pad"><stop offset=".314" stop-color="#434343"/><stop offset="1"/></radialGradient><radialGradient id="J" cx="0" cy="0" r="819.2" gradientTransform="translate(6.35 9.5)scale(.0109)" gradientUnits="userSpaceOnUse" spreadMethod="pad"><stop offset=".314" stop-color="#434343"/><stop offset="1"/></radialGradient><g id="a" fill-rule="evenodd"><path fill="#431d00" fill-opacity=".298" d="m20.35 4.85-4.6 10.85-4.9-10.85 2.65-1.9.75 5.55q.55 2.75 1.5 3.85l.85-2.1q1-3 1.55-7.45z"/><path fill="#d02828" d="m25.95 18.65-.15.95q-2.4 1.5-8.45 1.75H14.2q-6.05-.25-8.45-1.75l-.15-.95q1.35 1 4.9 1.45l5.25.25 5.3-.25q3.55-.45 4.9-1.45"/><path fill="url(#b)" d="M2.95 11Q4.3 8.15 6 5.3q1.3 5.3 2.8 8.9.7 1.8 1.25 2.5l1.2-2.5q1.5-3.6 2.8-8.9L17.1 11q-1.85 1.9-4.65 6.8-3.45-.5-4.85-.05Q4.8 12.9 2.95 11" transform="translate(5.75 -1.3)"/><path fill="url(#c)" d="m19.25 16.4.9-.15.15.8-.45.15-2.2.5.15-.85z" transform="translate(5.75 -1.3)"/><path fill="url(#d)" d="m14.2 19.35.35-.75.8-1.45L17 16.6l.8-.15v.4l-.15.85-.2.45-1.6.55-.6 1.7-1.45.1.35-.95z" transform="translate(5.75 -1.3)"/><path fill="url(#e)" d="m25.3 27.4.5.8-2.75.3-.35-.75.8-.1z" transform="translate(5.75 -1.3)"/><path fill="url(#f)" d="m19.75 22.15 2.8 2.45 1.95 1.9-1.7.25h-.6l-.2-.35q-1.3-.65-1.9-.5l.2.55q-1.65-.35-3.05-1.9l-.8-1.15 2.95-1z" transform="translate(5.75 -1.3)"/><path fill="url(#g)" d="m19.6 18.1-.15 1.3-3.35.85.45-1.3 1.7-.55z" transform="translate(5.75 -1.3)"/><path fill="url(#h)" d="m5.5 18.6.35.7.05.25.35.95-1.45-.1-.6-1.7-1.6-.55-.2-.45-.15-1.25.8.15 1.65.55z" transform="translate(5.75 -1.3)"/><path fill="url(#i)" d="m23.05 28.5.1.45q-3.2.75-6.55-2.6l-.9-1.1-1.25-1.45 1.1-.2 1.2 1.65q2 2.1 4.15 2.35l-.45-.65-.15-.5-.2-.55q.6-.15 1.9.5l.2.35.5 1z" transform="translate(5.75 -1.3)"/><path fill="url(#j)" d="m-4.45 26.5 1.95-1.9 2.8-2.45.35.25 2.95 1-.8 1.15q-1.4 1.55-3.05 1.9l.2-.55q-.6-.15-1.95.7l-.1.15h-.65z" transform="translate(5.75 -1.3)"/><path fill="url(#k)" d="m.6 19.4-.15-1.3 1.4.3 1.7.55L4 20.3q-2.15-.35-3.4-.9" transform="translate(5.75 -1.3)"/><path fill="url(#l)" d="m17.1 11 .35.8q-1.8 2.1-4.15 6.25l-.85-.25q2.8-4.9 4.65-6.8" transform="translate(5.75 -1.3)"/><path fill="url(#m)" d="m12.45 17.8.85.25 1.25.55-.35.75-4.2-.75q-1.6 0-4.15.7l-.35-.7 1.25-.55.85-.25v-.05q1.4-.45 4.85.05" transform="translate(5.75 -1.3)"/><path fill="url(#n)" d="M16.6 26.35q-2.6 1.65-6.5 2H10q-3.95-.35-6.55-2l.9-1.1q1.5 1.05 3.65 1.5l2.05.2 2-.2q2.15-.45 3.65-1.5z" transform="translate(5.75 -1.3)"/><path fill="url(#o)" d="m.2 17.2-.65-.15.15-.55.2-.25.95.05 1.4.15.15 1.25z" transform="translate(5.75 -1.3)"/><path fill="url(#p)" d="m-3 28.5-2.75-.3.5-.8 1.8.25.8.1-.25.5z" transform="translate(5.75 -1.3)"/><path fill="url(#q)" d="m3.45 26.35-.2.25q-3.3 3.1-6.35 2.3l.1-.4.1-.25.25-.5.55-1 .1-.15q1.35-.85 1.95-.7l-.2.55-.15.5-.45.65q2.15-.25 4.15-2.35l1.2-1.65 1.1.2-1.25 1.45z" transform="translate(5.75 -1.3)"/><path fill="url(#r)" d="m19.45 19.4.4-.2.4.2-.05.55q-1.35 1-4.9 1.45l-5.3.25-5.25-.25q-3.55-.45-4.9-1.45l-.05-.55.4-.2.4.2q1.25.55 3.4.9l.8.1 1.45.1 2.25.1h3.05l2.25-.1 1.45-.1.85-.15z" transform="translate(5.75 -1.3)"/><path fill="url(#s)" d="m20.05 20.9-.2 1.1-.1.15-.35.25-2.95 1-.9.2-1.1.2-2.8.2H8.4l-2.8-.2-1.1-.2-.9-.2-2.95-1-.35-.25L.2 22 0 20.9q2.4 1.5 8.45 1.75h3.15q6.05-.25 8.45-1.75" transform="translate(5.75 -1.3)"/><path fill="url(#t)" d="M5.85 19.3q2.55-.7 4.15-.7l4.2.75-.05.2-.35.95-2.25.1H8.5l-2.25-.1-.35-.95z" transform="translate(5.75 -1.3)"/><path fill="url(#u)" d="m5.6 23.8 2.8.2h3.25l2.8-.2 1.25 1.45q-1.5 1.05-3.65 1.5l-2 .2-2.05-.2q-2.15-.45-3.65-1.5z" transform="translate(5.75 -1.3)"/><path fill="url(#v)" d="m19.85 17.2-.15.5-.1.4-1.35.3-1.7.55-.45 1.3-.85.15.6-1.7 1.6-.55.2-.45z" transform="translate(5.75 -1.3)"/><path fill="url(#w)" d="m.45 18.1-.1-.4-.15-.5 2.2.5.2.45 1.6.55.6 1.7-.8-.1-.45-1.35-1.7-.55z" transform="translate(5.75 -1.3)"/><path fill="url(#x)" d="m15.55 23.6.9-.2.8 1.15q1.4 1.55 3.05 1.9l.15.5.45.65q-2.15-.25-4.15-2.35z" transform="translate(5.75 -1.3)"/><path fill="url(#y)" d="m24.5 26.5.8.9-1.8.25-.8.1-.5-1h.6z" transform="translate(5.75 -1.3)"/><path fill="url(#z)" d="m3.6 23.4.9.2-1.2 1.65q-2 2.1-4.15 2.35l.45-.65.15-.5q1.65-.35 3.05-1.9z" transform="translate(5.75 -1.3)"/><path fill="url(#A)" d="m-5.25 27.4.8-.9 1.7.25h.65l-.55 1-.8-.1z" transform="translate(5.75 -1.3)"/><path fill="url(#B)" d="m2.6 11.8.35-.8q1.85 1.9 4.65 6.75v.05l-.85.25Q4.4 13.9 2.6 11.8" transform="translate(5.75 -1.3)"/><path fill="url(#C)" d="m17.45 11.8 1.75 4.6h.05l-1.45.45v-.4l-.8.15-1.65.55-.8 1.45-1.25-.55q2.35-4.15 4.15-6.25" transform="translate(5.75 -1.3)"/><path fill="url(#D)" d="m.85 16.3 1.75-4.5q1.8 2.1 4.15 6.25l-1.25.55-.8-1.45-1.65-.55-.8-.15z" transform="translate(5.75 -1.3)"/><path fill="#5d3800" fill-opacity=".498" d="m17 15.4.65.1.65.1.4.05-.5.85q-3.45-.5-4.85-.05l-.45-.75 1.6-.2h.2l.45-.05.65-.05H17m-6.2 7.7-1.15-.05.55-.75 1.1.2zm-3.35-7.75.5.2.15.85-.6-.15zm1.75.85h.3l.7.05.65 1.7.5 1.2-.85-.05-.6-1.7.45.1-.35-1.1zm11.5 6.9-.5-.6 1.1-.2.55.75zm3.35-7.75-.05.9-.6.15.15-.85zM22 16.2h.3l-.8.2-.35 1.1.45-.1-.6 1.7-.85.05.5-1.2.65-1.7zm7.1 10.25.1.2.25.55h-.65l-.35-.75.65-.05zm-1.85-.9.45.55.3.4.3.5h-.55l-.7-.05-.15-.05-.2-.05h-.1l-.15-.3-.05-.1-.1-.2.35.05 1 .3zm-22.15.9-.05.1-.15.3h-.1l-.2.05-.15.05-.7.05H3.2l.3-.5.3-.4.45-.55-.4 1.05q.6.05 1-.3l.35-.05zm-2.7 0v-.05l.65.05-.35.75h-.65l.25-.55z"/><path fill="#5b3600" fill-opacity=".498" d="m14.7 15.5-.55-.15-1.75-.55.3-.35.35-.3v-.35l-.75-.45q-1.2-.85-1.4-.8v-.05l.6-.3-.05-.05L9.3 9.8l.7-.25.85-.25-1.4-1.15L11.75 4q1.3 5.3 2.8 8.9.7 1.8 1.25 2.5l1.2-2.5q1.5-3.6 2.8-8.9l2.45 4.45-.2.85-.25.85-.4.75q-.15.1-.15.8l-.95.65-1.1.5h-.05l-.4.35q.4.1.7.35l-1.25.5.4.9-.65.25-.95.2h-1.2l-.65.05z"/><path fill="#000327" fill-opacity=".498" d="m20.7 23.1.75.85-.8.5-.35-.4-.4-.4-.3-.4-1.65.2-.8.05-1.6.05-1.7-.1-1.95-.2h-.1l-1 1.15-.7-.45 1.25-1.45 2.8.2h3.25l2.8-.2zm-8.25-4.55h.3l1.95.05h4.05v-.05l.1-.1.4-.55.7.15-.05.2-.35.95-2.25.1h-3.05l-1.55-.05-.7-.05-.25-.7-.1-.25-.05-.25.6-.15.25.65z"/><path fill="url(#E)" d="M9.15 22 9 21.2l2.25.05v.4q-.15 1.05-.55 1.4h-.05l-.7.1-.25-.1h-.05q-.3-.2-.5-1.05" transform="translate(5.75 -1.3)"/><path fill="url(#F)" d="m11.25 21.65 1.5 3.85q1.95 4.15 3.7 4.45v.25q-.25.35-1.6.7-1.35.4-1 1.25l.65.75q-.85-.15-1.7-1.45-1.8-2.6-2.1-8.4.4-.35.55-1.4" transform="translate(5.75 -1.3)"/><path fill="url(#G)" d="m9.7 23.05-.25 3.15q.15 1.9.95 3.35Q8.8 28 8.7 25.4l.3-2.95.15-.45q.2.85.5 1.05z" transform="translate(5.75 -1.3)"/><path fill="url(#H)" d="M10.4 29.55q.75 1.35 2.1 2.25l-.9.45q-.9.65-.7 1.95-1.15-.2-2-1.8-1.65-3.15.1-9.95l-.3 2.95q.1 2.6 1.7 4.15" transform="translate(5.75 -1.3)"/><path fill="#3f0000" fill-opacity=".498" d="m15.2 21.85-.2-.15-.05-.05q-.25-.05-.35.15v.05h-.4q-5.9-.25-8.35-1.7l-.15-.85q1.4.9 4.8 1.35l4.3.2.45.3.85.15.4-.1.55-.35 4-.2q3.4-.45 4.8-1.35l-.15.9q-2.35 1.35-8 1.65l-.15-.15-.15-.1.3 1.55.45 1.6.25.8.45 1-.65-.7-.6-1.05-.75-1.8-.25-1.25q-.1 0-.15.1zm-2.7-5.1-.65.3.2.45-.3-.4h-.05l-.45.2-.4-.8.35-.25.3-.15q-1.9-3.25-3.4-5l.25-.6q1.6 1.85 3.65 5.4zm7.85-.5.35.25-.4.8-.45-.2-.8-.35.5-.85q2.05-3.55 3.65-5.4l.25.6q-1.5 1.75-3.4 5z"/><path fill="#243c56" fill-opacity=".498" d="m11.75 17.1.3.4.05.05.2.35-.7.15V18l-.35-.7.45-.2zm8.05 0h.05l.45.2-.35.75-.7-.15.25-.4zm-7.15-1.4.2-.05.5.85-.85.25-.5-.85zm6.9.2-.5.85-.85-.25.5-.85.2.05zm1.1 8.55.8-.5.9 1.1-.65.35-.1-.05zm-10.55-.5.7.45-.25.3-.25.35-.35.45-.75-.45z"/><path fill="url(#I)" d="m10.2 15.55 1.6-4.4.6-4.6q.5-2.35-.7-2.75.05-.55 2.15-1.8l-.05.9 1.1-.1 2.95-1.5-.35 1.25q-.65 1.5-2.05 2.65l.45-.05.85.05-1.3.8.45-.05 1.25.2-.6.35q-.7.5-.95.95h.5l1.5.1-.4.9q-.75 1.1-2.65 2l.7-.05 1.45-.35q-.25.7-1.65 1.55l1.15.45-3.35 2.05.75.15q-.6.2-1.75 1.15H13q-.85.85-1.8 1.05l-1.3.8z" transform="translate(5.75 -1.3)"/><path fill="url(#J)" d="m9.9 17.25-.5-.5-.7-.55-1.85-.85L6.4 15l1.3-.2-1.5-.8-2.3-.85q.45-.55 1.65-.25.6.1 1.1.35l-1.05-.7-.8-.35q.2-.2.85 0l.6.25L4.5 11.2l-.9-.75 2.65.15q-1.5-1.45-3.3-2.05.95-1.1 1.7-.85-.75-.55-1.5-.75l-.65-.1q1.15-.6 1.7-.6-1.5-.7-1.7-1.8l1.25.5Q2.7 3.95 2.5 1.8l3.9 2.15-.3-1.1V2.3q1.25.6 2.35 1.5-.15-.1-.4.2-.5.7-.55 2.7l.2 1.4.45 1.9q.75 3.75 2.05 5.55z" transform="translate(5.75 -1.3)"/><path fill="#040404" fill-opacity=".498" d="m22.9 4.85-.6.35q-.7.5-.95.95h.05-.2l-.55.05.1-.3q.25-.5.85-.75l1-.35zM23.3.2l-.05.05-1 1.3-1.85 1.7-.5.25.7.1.3-.1-1.05 1.6-.4.65-.15.4q.35-.3 1.05-.55l-1.1 1.55q-.5.75-.7 1.5l.3-.3.25-.15 1.1-.35-.25.5-.2.3-1.3 1.25-.15.1 1-.05-.25.45-.25.25-1.65 2.4.55-.15-1.15 1.3-.6.25q2-4.75 2.3-10 .3-1.45-.7-1.95-.05-.55 2.05-1.8l-.05.9q-.35.85 3.75-1.4m-2.75 8.35.4-.55.5-.5.7-.55 1.2-.7-.4.9q-.75 1.1-2.65 2-.05-.25.25-.6m-.3 1.65q-.15-.05 0-.15l.7-.5.8-.5.45-.2.25-.1q-.25.7-1.65 1.55l.05.05-.55-.1zm1.7.55q-1.7 1.4-3.25 2.05l.3-.5.75-.65q.7-.55 1.5-.85l.45-.15zm-10.1-9.2V1q1.25.6 2.2 1.45l-.4.35q-.5.75-.45 2.6l.7 3.3.9 3.3q.45 1.35 1.05 2.2l.1.25v.5l-1.2-.8-.7-.7.2-.05h.4l-2.25-2.95.65.1.4.15-.95-1.3-.75-1.35h.35q.6.1 1.05.35l-1-1.4-.65-.8q-.2-.1-.05-.1L12 6l-.1-.15-1.5-1.7.65-.3.1-.15-.5-.3L9.3 1.95 8.3.5l3.85 2.15zm-2.3 2.7q.4.3.6.75L10 4.95h-.05q-1.25-.6-1.6-1.5l.3.2.25.15zM9.2 7l1.2.15.65.65.8 1.4q-1.4-1.35-3.1-1.9l.3-.25zm.55 2.05.5.1.3.15q.8.5 1.25 1.3l.2.55-1.75-1.25-.85-.7zm2.7 4.9 1.8.45q.85.35 1.6.85l-.2.7-.5-.5-.7-.55-1.85-.85zm-.5-1.25-2.3-.85.2-.1.75.05q.95.2 1.75.75l.85.8z"/></g></defs></svg>