<svg xmlns="http://www.w3.org/2000/svg" xmlns:ffdec="https://www.free-decompiler.com/flash" xmlns:xlink="http://www.w3.org/1999/xlink" ffdec:objectType="frame" width="7.4" height="7.3"><use ffdec:characterId="3" xlink:href="#a" width="7.4" height="7.3"/><defs><linearGradient id="b" x1="-819.2" x2="819.2" gradientTransform="matrix(0 0 0 0 0 0)" gradientUnits="userSpaceOnUse" spreadMethod="reflect"><stop offset="0" stop-color="#9c9696"/><stop offset="1" stop-color="#d4d4d4"/></linearGradient><linearGradient id="c" x1="-819.2" x2="819.2" gradientTransform="matrix(0 0 0 0 0 0)" gradientUnits="userSpaceOnUse" spreadMethod="reflect"><stop offset="0" stop-color="#2626af"/><stop offset="1" stop-color="#d4d4d4"/></linearGradient><linearGradient id="d" x1="-819.2" x2="819.2" gradientTransform="matrix(0 0 0 0 0 0)" gradientUnits="userSpaceOnUse" spreadMethod="reflect"><stop offset=".114" stop-color="#5b5252"/><stop offset=".749" stop-color="#d4d4d4"/></linearGradient><linearGradient id="e" x1="-819.2" x2="819.2" gradientTransform="matrix(0 0 0 0 0 0)" gradientUnits="userSpaceOnUse" spreadMethod="reflect"><stop offset=".133" stop-color="#5f5757"/><stop offset=".2" stop-color="#5f5757"/><stop offset=".573" stop-color="#e0e0e0"/><stop offset="1" stop-color="#e7e7e7"/></linearGradient><linearGradient id="f" x1="-819.2" x2="819.2" gradientTransform="matrix(0 0 0 0 0 0)" gradientUnits="userSpaceOnUse" spreadMethod="reflect"><stop offset="0" stop-color="#9c9696"/><stop offset="1" stop-color="#d4d4d4"/></linearGradient><linearGradient id="g" x1="-819.2" x2="819.2" gradientTransform="matrix(.0014 0 0 .0024 6.5 6.85)" gradientUnits="userSpaceOnUse" spreadMethod="reflect"><stop offset="0" stop-color="#5b5252"/><stop offset=".455" stop-color="#d4d4d4"/></linearGradient><linearGradient id="h" x1="-819.2" x2="819.2" gradientTransform="matrix(.0017 0 0 .0013 7.5 8.6)" gradientUnits="userSpaceOnUse" spreadMethod="reflect"><stop offset="0" stop-color="#5b5252"/><stop offset=".455" stop-color="#e2e2e2"/></linearGradient><linearGradient id="i" x1="-819.2" x2="819.2" gradientTransform="matrix(.0017 0 0 .001 7.75 9.65)" gradientUnits="userSpaceOnUse" spreadMethod="reflect"><stop offset="0" stop-color="#3a3a3a"/><stop offset=".404" stop-color="#a1a1a1"/></linearGradient><g id="a" fill-rule="evenodd"><path fill="url(#b)" d="m5.55 7.1.6-.8.25-.45.1-.4.05-.15v.2l-.05.15v.15l.05.05.3.8.2.6-.1-.05-.35-.3.1.3.3.25.05.05.1.05.1.05h.05l.15-.1h.15l.2.05.1.05.35.1v-.05l.2.2h.05v.05l.4.45.05.05.1.1.1.25-.1.1-.95.35-.2.1-1.45.4H6.3v-.2l-.05-.15V9.3l-.05-.1-.1-.4-.05-.25V8.2l-.25-.45-.45-.25z" transform="translate(-2 -4.4)"/><path fill="url(#c)" d="m6.7 7.2-.1-.3.35.3v.1zm-3-.15L3.65 7l-.25-.4.4.35z" transform="translate(-2 -4.4)"/><path fill="#4f39e0" d="M1.4.8h.05l.05.05q-.1 0-.15.1v-.1zM5.2 3l.1.2zl-.25-.55z"/><path fill="#321dbd" d="M.85 1.3H.8h.1z"/><path fill="url(#d)" d="m5.55 7.1-.2.4.45.25.25.8.05.25.1.4.05.1v.05l.05.15v.2h.15l1.45-.25H8l.2.25.1.1.2.2-.95.35q-.7.25-1.05.55-.55-.05-.7-.7-.2-.75-.55-.8h-.1l-.2-.1h.1l-.3-.1.5.1q.3-.15.2-.4l-.05-.3-.7-1.2.7-.2zm-.2.4H5.3v.1z" transform="translate(-2 -4.4)"/><path fill="url(#e)" d="M5.15 9.4h.1q.35.05.55.8.15.65.7.7l.65-.2.3.1.05.1.05.25-.05.5q-.2-.2-1.95-.55l-.3-1-.5-.65.35-.05z" transform="translate(-2 -4.4)"/><path fill="#7979e0" d="m4.85 2.25-.3-.8-.05-.05v-.15l.05-.15V.9l-.05.15-.1.4-.25.45-.6.8.55-1.2-1.1.3-.15-.15L1.8.85 1.7.8l.5-.25.35-.3L2.8.2l1 .1q1.05.5.75.5l.25.25-.1.1.05.3.1.7zM.4 1.6l.4-.15.6.75.25.4.05.05q-.6.5-.8 1.1L.45 2H.5l-.05-.3zM.35.5.6.25q.25-.2.6-.25l-.05.15.1.4-.4.15L.5.95z"/><path fill="#4444ad" d="m3 1.8 1.1-.3-.55 1.2-.15.1zM.8 1.25.5.95.85.7l.4-.15.1.15v.05L1.4.8l-.05.05v.1zm.1 2.5q.2-.6.8-1.1l.9 1.25q.2.5 0 .9l.25.1.25.1h-.3l-.05.05-.6.3-.55-.4-.05-.05q-.4-.45-.65-1.15"/><path fill="#fc9799" d="m4.75 1.45-.05-.3.1-.1L4.55.8q.4.05 1 .95zM1.8.85l1.05.8.15.15-.6.3-.6.45-.4-.35-.6-.75.05-.05-.15-.15h.1l.55-.3q.05-.1.15-.1zM.5.95l-.4.45-.1-.25L.1.9.35.5zM1.2 0h.15l1.3.2-.1.05L2.2.3l-.15.05-.8.2-.1-.4zM.85 1.3H.9.8z"/><path fill="#d94b4b" d="M5.6 3.1h-.15L5.2 3l-.25-.55.25.55h-.1l-.05-.05v-.1l-.2-.6v-.1l-.1-.7.8.3zM2.55.25l-.35.3-.5.25.1.05h-.3L1.45.8H1.4L1.35.75V.7l-.1-.15.8-.2L2.2.3zM3.4 2.8l-.7.2.7 1.2.05.3q.1.25-.2.4l-.5-.1.3.1h-.2l-.25-.1q.2-.4 0-.9l-.9-1.25.1-.1.6-.45.6-.3zm-3-1.2-.3-.2.4-.45.3.3H.7l.15.15-.05.05z"/><path fill="#504e54" fill-opacity=".6" d="m6.1 3.2.15.1.2.15-.05.3.05-.05.15-.1.3.35v.4l-.05.35-.1.1-.95.35-.2.1-1.1.35.05.05v.4l-.05.35 1.05.2v.3q-.7-.3-1.4-.3l.05-.25-.05-.05-.05-.05v-.1h-.05v-.5H4v-.2l-.05-.15v-.05l-.05-.1-.1-.4-.05-.25v-.35L3.5 3.7l-.45-.25.2-.4.6-.8.25-.45h.15l.2.75.45.15.4.2.25.25.4.5V3.6z"/><path fill="url(#f)" d="M6.35 10.3H6.3l-.1.05.1-.25.05-.15v.35" transform="translate(-2 -4.4)"/><path fill="#a19f9f" d="m6.85 3.9-.1-.3-.1-.35.1-.4q0-.8-.85-1.1l-.25-.5-.2-.4.35.25.8.8.55.3.05.55q-.15.25-.15.6l.25.55.1.95-.1-.1-.25-.65-.1-.1-.05-.05z"/><path fill="#d9d9d9" d="m7.2 7.05-.05.25q-.95-.9-2.8-.9v-.45h.5q1.5.25 2.35 1.1M4.45.5V.4l.05.1zM7.2 5.85l-.2-1-.1-.25v-.1l.45.55z"/><path fill="#bfbebe" d="m6.85 3.9.05.05.05.05.1.1.25.65.05.1v.2l.05.4-.2 1.6q-.85-.85-2.35-1.1h-.5l.05-.05.05-.05.05-.05.25-.15h.6l.75.1.85.2.2.15.05-.25.15-.8-.45-.55-.4-1 .25.3z"/><path fill="url(#g)" d="M6.1 8.8v-.05l-.05-.2V8.2l-.25-.45-.45-.25.05-.05.15-.3V7.1L6 6.6l.45-1.7h.05l.45 1.6q-.3.2-.35.5l.1.2.3.25.05.05.1.05.3-.05h.15l.1.05q-.45-.05-.95.4-.4.35-.65.85" transform="translate(-2 -4.4)"/><path fill="url(#h)" d="M6.35 9.7H6.3v-.2l-.05-.15V9.3l-.05-.1-.1-.4q.25-.5.65-.85.5-.45.95-.4h.1l.1.05.25.05.1.05.15.1.05.05.05.05.4 1-.35-.1-.9.25-.25.05q-.45.2-.75.4z" transform="translate(-2 -4.4)"/><path fill="url(#i)" d="M6.4 10.3h-.05v-.5l.05-.1h-.05l.3-.2q.3-.2.75-.4l.25-.05.9-.25.35.1V9l.1.25.2 1-.05.25-.2-.15-.85-.2-.75-.1h-.6l-.25.15-.05.05z" transform="translate(-2 -4.4)"/></g></defs></svg>