<?xml version="1.0" encoding="UTF-8" standalone="no"?>
<svg xmlns:ffdec="https://www.free-decompiler.com/flash" xmlns:xlink="http://www.w3.org/1999/xlink" ffdec:objectType="frame" height="42.9px" width="34.55px" xmlns="http://www.w3.org/2000/svg">
  <g transform="matrix(1.0, 0.0, 0.0, 1.0, 7.15, -2.3)">
    <use ffdec:characterId="3" height="42.9" transform="matrix(1.0, 0.0, 0.0, 1.0, -7.15, 2.3)" width="34.55" xlink:href="#shape0"/>
  </g>
  <defs>
    <g id="shape0" transform="matrix(1.0, 0.0, 0.0, 1.0, 7.15, -2.3)">
      <path d="M16.65 23.55 Q17.7 23.8 17.2 25.05 16.65 26.65 16.6 27.2 16.55 27.75 16.8 27.95 16.25 27.8 16.05 25.1 L16.0 23.5 16.65 23.55 M3.45 23.55 L4.1 23.5 4.0 25.1 Q3.8 27.85 3.3 27.95 L3.25 27.95 Q3.55 27.75 3.5 27.2 L2.85 25.05 Q2.4 23.8 3.45 23.55 M18.55 28.5 L19.1 28.95 Q20.1 29.95 19.3 31.35 19.0 31.85 19.2 32.25 L19.15 32.2 Q18.75 31.75 18.65 29.7 L18.55 28.5 M1.6 42.2 L1.65 42.1 Q2.25 40.9 0.5 38.1 -1.4 35.1 -1.35 34.6 -1.3 33.9 -0.1 33.15 L1.15 36.65 Q2.45 40.7 1.9 41.75 L1.6 42.2 M1.0 28.95 L1.55 28.5 1.45 29.7 Q1.35 31.75 0.95 32.2 L0.85 32.35 0.8 31.35 Q0.0 29.95 1.0 28.95 M18.95 36.65 L20.2 33.15 Q21.35 33.95 21.4 34.6 21.45 35.05 19.3 38.3 18.0 40.3 18.1 41.4 17.9 40.1 18.95 36.65" fill="#65933b" fill-rule="evenodd" stroke="none"/>
      <path d="M12.7 9.9 L12.55 9.4 13.35 9.0 13.85 8.9 15.05 8.85 15.5 8.95 15.85 9.35 Q16.75 10.5 17.65 13.2 L19.65 20.35 22.85 32.6 Q25.35 41.8 27.4 45.15 L23.05 44.25 19.9 43.1 18.4 42.1 18.35 42.05 18.1 41.4 Q18.0 40.3 19.3 38.3 21.45 35.05 21.4 34.6 21.35 33.95 20.2 33.15 L19.95 33.0 19.2 32.25 Q19.0 31.85 19.3 31.35 20.1 29.95 19.1 28.95 L18.55 28.5 Q17.95 28.1 17.2 28.1 L16.8 27.95 Q16.55 27.75 16.6 27.2 16.65 26.65 17.2 25.05 17.7 23.8 16.65 23.55 L16.0 23.5 Q15.1 23.6 14.1 24.3 L14.15 24.15 14.2 22.25 14.15 21.3 14.1 20.25 14.05 19.55 13.95 18.35 13.85 17.45 13.8 17.15 13.75 16.5 13.65 15.45 13.5 14.3 13.35 13.25 13.2 12.25 13.1 11.6 12.95 10.95 12.7 9.9 M4.6 8.95 L5.15 8.85 6.8 8.95 7.55 9.4 7.55 9.5 7.4 10.0 7.2 10.85 7.05 11.4 7.0 11.65 6.9 12.3 6.75 13.25 6.65 14.3 6.5 15.5 6.4 16.45 6.3 17.15 6.25 17.8 6.2 18.45 6.05 19.9 6.0 20.55 5.95 21.3 Q5.85 23.55 6.0 24.3 4.95 23.6 4.1 23.5 L3.45 23.55 Q2.4 23.8 2.85 25.05 L3.5 27.2 Q3.55 27.75 3.25 27.95 L2.85 28.1 Q2.15 28.1 1.55 28.5 L1.0 28.95 Q0.0 29.95 0.8 31.35 L0.85 32.35 0.1 33.0 -0.1 33.15 Q-1.3 33.9 -1.35 34.6 -1.4 35.1 0.5 38.1 2.25 40.9 1.65 42.1 L1.6 42.2 Q0.8 43.8 -1.6 44.7 L-6.2 44.85 -7.15 44.45 -6.2 43.0 Q-4.45 39.9 -2.95 34.0 L0.2 21.25 2.35 13.8 Q3.55 10.05 4.55 9.05 L4.6 8.95" fill="#a0cb79" fill-rule="evenodd" stroke="none"/>
      <path d="M11.85 3.5 L12.2 3.5 13.2 4.7 15.85 9.35 15.5 8.95 15.05 8.85 13.8 6.6 13.2 5.55 11.85 3.5 M12.95 10.95 L13.1 11.6 13.2 12.25 11.3 12.75 13.2 13.2 13.35 13.25 13.5 14.3 11.3 14.85 13.65 15.45 13.75 16.5 11.8 17.0 13.85 17.45 13.95 18.35 11.6 19.0 14.05 19.55 14.1 20.25 10.8 19.5 12.45 20.75 13.1 21.3 13.2 21.4 14.2 22.25 14.15 24.15 13.2 24.35 11.85 24.4 Q11.6 24.2 11.25 23.0 L11.9 28.8 11.25 29.35 10.9 24.15 10.55 21.3 10.35 19.95 10.25 19.95 8.75 28.3 Q8.65 28.85 8.1 27.55 8.05 26.65 8.95 23.2 L9.0 23.05 8.75 23.55 7.95 24.2 7.15 24.5 6.65 23.45 6.3 22.15 Q6.3 21.95 7.15 21.3 L8.05 20.6 9.6 19.55 6.0 20.55 6.05 19.9 9.0 19.05 6.3 18.45 6.2 18.45 6.25 17.8 9.0 17.05 6.4 16.45 6.5 15.5 8.8 14.85 6.65 14.3 6.75 13.25 8.7 12.75 6.9 12.3 7.0 11.65 10.0 12.4 13.1 11.6 9.8 10.7 7.05 11.4 7.2 10.85 8.75 10.4 7.4 10.0 7.55 9.5 9.75 10.1 12.9 9.2 12.9 9.25 Q12.75 9.3 12.55 9.4 L12.7 9.9 10.85 10.4 12.95 10.95 M8.0 3.5 L8.35 3.5 Q8.0 3.7 6.4 6.6 L5.15 8.85 4.6 8.95 4.55 9.05 Q7.1 4.15 8.0 3.5 M7.1 15.95 L10.4 16.7 13.1 16.0 10.05 15.2 7.1 15.95 M7.1 13.8 L10.0 14.55 12.75 13.8 9.95 13.1 7.1 13.8 M9.95 19.95 L9.65 19.7 8.55 20.6 7.75 21.3 6.85 22.25 Q6.75 22.55 7.0 23.15 7.25 23.75 7.45 23.8 L8.45 23.0 9.3 21.45 9.4 21.3 9.7 20.6 9.95 19.95 M10.35 17.4 L7.6 18.1 10.25 18.7 12.9 18.0 10.35 17.4 M10.8 19.65 L10.55 19.9 10.85 20.95 11.0 21.3 12.15 23.85 12.8 23.95 13.2 23.9 13.6 23.7 13.75 23.15 13.65 22.5 13.2 21.95 12.55 21.3 12.2 21.0 10.8 19.65" fill="#347e4a" fill-rule="evenodd" stroke="none"/>
      <path d="M9.6 19.55 L8.05 20.6 7.15 21.3 5.95 21.3 6.0 20.55 9.6 19.55 M7.1 15.95 L10.05 15.2 13.1 16.0 10.4 16.7 7.1 15.95 M8.7 12.75 L6.75 13.25 6.9 12.3 8.7 12.75 M10.0 14.55 L7.1 13.8 9.95 13.1 12.75 13.8 10.0 14.55 M6.65 14.3 L8.8 14.85 6.5 15.5 6.65 14.3 M6.25 17.8 L6.3 17.15 6.4 16.45 9.0 17.05 6.25 17.8 M6.2 18.45 L6.3 18.45 9.0 19.05 6.05 19.9 6.2 18.45 M7.0 11.65 L7.05 11.4 9.8 10.7 13.1 11.6 10.0 12.4 7.0 11.65 M7.2 10.85 L7.4 10.0 8.75 10.4 7.2 10.85 M12.7 9.9 L12.95 10.95 10.85 10.4 12.7 9.9 M11.15 8.4 L11.3 8.2 13.05 7.9 11.6 7.95 11.6 7.9 11.1 7.85 Q11.5 7.55 12.95 7.15 L11.85 7.35 10.75 7.75 10.75 7.8 10.6 7.75 10.25 7.1 Q11.15 6.7 12.5 6.4 L14.15 6.15 15.15 7.0 15.9 7.8 15.9 9.35 13.15 9.65 11.75 9.55 9.75 10.1 7.9 9.6 7.1 9.65 4.35 9.35 Q4.2 8.0 4.35 7.8 L5.1 6.95 Q5.75 6.3 6.1 6.15 9.35 6.7 10.0 7.15 L9.7 7.7 8.75 7.35 7.65 7.15 Q8.95 7.5 9.45 7.8 L8.7 7.9 7.55 7.9 8.8 8.1 9.15 8.45 10.95 8.6 11.2 8.6 12.8 8.75 Q12.45 8.5 11.15 8.4 M9.7 20.6 L9.4 21.3 7.75 21.3 8.55 20.6 9.65 19.7 9.95 19.95 9.7 20.6 M13.35 13.25 L13.2 13.2 11.3 12.75 13.2 12.25 13.35 13.25 M13.65 15.45 L11.3 14.85 13.5 14.3 13.65 15.45 M13.85 17.45 L11.8 17.0 13.75 16.5 13.8 17.15 13.85 17.45 M10.35 17.4 L12.9 18.0 10.25 18.7 7.6 18.1 10.35 17.4 M14.15 21.3 L13.1 21.3 12.45 20.75 10.8 19.5 14.1 20.25 14.15 21.3 M10.25 19.95 L10.35 19.95 10.55 21.3 10.0 21.3 10.25 19.95 M10.8 19.65 L12.2 21.0 12.55 21.3 11.0 21.3 10.85 20.95 10.55 19.9 10.8 19.65 M14.05 19.55 L11.6 19.0 13.95 18.35 14.05 19.55" fill="#dceca2" fill-rule="evenodd" stroke="none"/>
      <path d="M11.3 8.2 L11.6 7.95 13.05 7.9 11.3 8.2 M10.75 7.8 L10.75 7.75 11.85 7.35 12.95 7.15 Q11.5 7.55 11.1 7.85 L10.75 7.8 M9.15 8.45 L9.3 8.6 7.8 8.75 9.15 8.45 M8.6 7.9 L8.8 8.1 7.55 7.9 8.7 7.9 8.6 7.9 M7.65 7.15 L8.75 7.35 9.7 7.7 9.65 7.75 9.45 7.8 Q8.95 7.5 7.65 7.15 M11.2 8.6 L10.95 8.6 11.15 8.4 Q12.45 8.5 12.8 8.75 L11.2 8.6" fill="#bcd463" fill-rule="evenodd" stroke="none"/>
      <path d="M13.65 2.6 Q13.25 2.8 13.45 3.25 L13.95 4.25 Q14.1 4.65 13.8 4.9 13.5 5.2 12.0 4.9 L10.6 4.45 10.2 4.75 9.95 4.5 Q9.9 4.35 9.7 4.7 L9.4 4.45 8.05 4.9 Q6.55 5.2 6.2 4.9 5.9 4.65 6.1 4.25 L6.55 3.25 Q6.75 2.8 6.35 2.6 6.15 2.45 6.5 2.35 7.4 2.05 9.45 3.2 9.65 2.8 9.9 2.9 L10.1 3.0 10.3 3.05 10.65 2.95 10.75 3.1 Q12.65 2.05 13.55 2.35 13.9 2.45 13.65 2.6 M11.9 4.1 L11.4 4.05 10.8 3.8 11.9 3.35 10.7 3.45 10.65 4.1 11.1 4.2 11.9 4.1 M9.3 4.15 L9.35 3.45 8.15 3.35 9.2 3.8 8.15 4.1 8.9 4.2 9.3 4.15" fill="#1e510f" fill-rule="evenodd" stroke="none"/>
      <path d="M11.9 4.1 L11.1 4.2 10.65 4.1 10.7 3.45 11.9 3.35 10.8 3.8 11.4 4.05 11.9 4.1 M9.35 3.45 L9.3 4.15 8.9 4.2 8.15 4.1 9.2 3.8 8.15 3.35 9.35 3.45" fill="#002006" fill-rule="evenodd" stroke="none"/>
      <path d="M11.05 9.65 L10.1 9.2 9.2 9.65 9.35 8.65 8.6 7.9 8.7 7.9 9.65 7.75 9.7 7.7 10.1 6.85 10.6 7.75 11.6 7.9 10.85 8.65 11.05 9.65 M8.9 7.95 L10.1 8.25 10.05 7.1 9.7 7.9 8.9 7.95" fill="#ffcc00" fill-rule="evenodd" stroke="none"/>
      <path d="M8.9 7.95 L9.7 7.9 10.05 7.1 10.1 8.25 8.9 7.95" fill="#f9e27d" fill-rule="evenodd" stroke="none"/>
    </g>
  </defs>
</svg>
