<?xml version="1.0" encoding="UTF-8" standalone="no"?>
<svg xmlns:ffdec="https://www.free-decompiler.com/flash" xmlns:xlink="http://www.w3.org/1999/xlink" ffdec:objectType="frame" height="37.55px" width="24.45px" xmlns="http://www.w3.org/2000/svg">
  <g transform="matrix(1.0, 0.0, 0.0, 1.0, 2.3, -1.75)">
    <use ffdec:characterId="1" height="37.55" transform="matrix(1.0, 0.0, 0.0, 1.0, -2.3, 1.75)" width="24.45" xlink:href="#shape0"/>
  </g>
  <defs>
    <g id="shape0" transform="matrix(1.0, 0.0, 0.0, 1.0, 2.3, -1.75)">
      <path d="M21.2 32.75 Q20.95 33.55 19.0 34.95 17.05 36.3 14.15 36.65 L8.65 36.95 8.05 34.4 7.4 30.9 5.4 36.7 1.6 35.75 1.5 35.7 0.45 34.95 Q-1.3 33.1 -1.7 31.6 L-1.7 31.55 Q-0.7 28.95 -0.7 28.0 L-0.75 28.0 -0.5 27.05 1.05 27.3 Q4.85 28.45 8.0 28.45 L15.55 27.8 18.05 27.05 18.75 27.05 Q19.65 28.5 21.15 32.6 L21.2 32.75 M9.0 35.5 L9.1 35.9 9.05 35.55 9.0 35.5" fill="url(#gradient0)" fill-rule="evenodd" stroke="none"/>
      <path d="M8.65 36.95 L14.15 36.65 Q17.05 36.3 19.0 34.95 20.95 33.55 21.2 32.75 L22.15 34.5 21.75 35.0 20.15 36.15 Q20.85 35.8 19.95 36.3 L16.8 37.6 9.1 38.65 8.65 36.95 M-1.7 31.6 Q-1.3 33.1 0.45 34.95 L1.5 35.7 1.6 35.75 5.4 36.7 5.1 37.75 5.0 37.75 2.1 37.2 1.65 37.05 Q-0.65 36.25 -1.5 34.75 L-2.3 33.3 -1.75 31.7 -1.7 31.6" fill="url(#gradient1)" fill-rule="evenodd" stroke="none"/>
      <path d="M4.6 29.3 L5.4 29.3 6.25 29.4 7.35 29.25 Q7.75 29.25 7.75 30.15 L6.6 34.35 5.25 38.2 4.65 38.2 3.2 37.9 2.15 37.5 2.0 37.45 2.1 37.2 3.3 34.15 4.3 30.95 Q4.65 29.5 4.8 29.6 L4.6 29.3" fill="url(#gradient2)" fill-rule="evenodd" stroke="none"/>
      <path d="M4.6 29.3 L4.8 29.6 Q4.65 29.5 4.3 30.95 L3.3 34.15 2.1 37.2 2.0 37.45 1.8 37.35 2.05 36.7 3.1 33.6 3.4 32.6 3.45 32.55 3.85 31.25 4.4 29.3 4.6 29.3" fill="url(#gradient3)" fill-rule="evenodd" stroke="none"/>
      <path d="M6.4 32.2 L6.4 32.4 6.9 35.75 Q6.9 36.5 7.2 37.4 L7.75 38.95 7.7 39.05 7.2 39.0 6.85 39.05 6.45 36.95 5.85 33.8 5.55 32.25 6.4 32.2" fill="#ffffff" fill-rule="evenodd" stroke="none"/>
      <path d="M5.55 32.25 L5.35 31.1 5.15 29.75 5.35 29.6 5.5 29.7 5.65 29.5 Q5.7 29.35 5.75 29.5 L5.95 30.25 6.15 31.05 6.4 32.2 5.55 32.25" fill="#c4c4c4" fill-rule="evenodd" stroke="none"/>
      <path d="M8.75 28.95 L9.0 29.05 9.15 29.1 9.7 32.25 9.75 32.7 9.25 32.5 Q7.55 31.8 5.95 32.1 L5.65 29.8 Q5.65 29.45 6.05 29.15 L7.85 29.4 Q8.3 29.5 8.7 29.0 L8.75 28.95" fill="url(#gradient4)" fill-rule="evenodd" stroke="none"/>
      <path d="M9.15 29.1 L9.0 29.05 8.75 28.95 Q9.1 28.5 9.1 28.8 L9.15 29.1 M5.95 32.1 Q7.55 31.8 9.25 32.5 L9.75 32.7 10.6 36.9 11.15 38.75 Q11.3 39.1 9.35 39.25 L7.4 39.2 6.45 34.45 5.95 32.1" fill="url(#gradient5)" fill-rule="evenodd" stroke="none"/>
      <path d="M0.1 22.9 L4.5 23.45 Q3.95 24.7 3.9 26.05 3.85 28.0 4.4 29.95 L0.1 29.4 Q0.6 27.6 0.65 25.8 0.75 24.25 0.1 22.9 M13.8 23.55 L18.5 23.0 Q18.1 24.0 18.0 25.9 17.9 27.75 18.6 29.4 L12.9 30.05 13.55 29.0 Q13.95 28.0 14.15 26.4 14.35 24.8 13.8 23.55" fill="url(#gradient6)" fill-rule="evenodd" stroke="none"/>
      <path d="M4.5 23.45 Q9.15 23.85 13.8 23.55 14.35 24.8 14.15 26.4 13.95 28.0 13.55 29.0 L12.9 30.05 12.8 30.05 Q8.45 30.3 4.4 29.95 3.85 28.0 3.9 26.05 3.95 24.7 4.5 23.45 M18.5 23.0 L20.05 22.7 20.05 29.15 18.6 29.4 Q17.9 27.75 18.0 25.9 18.1 24.0 18.5 23.0 M0.1 29.4 L-1.05 29.15 -1.05 22.7 0.1 22.9 Q0.75 24.25 0.65 25.8 0.6 27.6 0.1 29.4" fill="url(#gradient7)" fill-rule="evenodd" stroke="none"/>
      <path d="M13.1 26.6 L12.55 25.95 12.6 25.85 Q12.9 25.15 12.55 24.4 L12.45 24.35 Q11.45 23.85 10.55 24.65 L10.45 24.65 Q10.25 25.0 10.4 25.3 L10.25 25.2 10.4 24.7 10.25 24.9 10.3 24.7 10.4 24.65 10.4 24.6 Q10.7 24.05 11.55 23.95 12.95 23.75 12.95 25.25 L12.75 25.85 13.8 25.85 14.3 25.8 14.15 26.2 14.0 26.25 14.15 26.25 14.1 26.3 14.1 26.65 13.1 26.6 M8.25 24.15 L7.45 24.2 6.9 24.75 7.15 25.45 7.2 25.5 Q7.6 25.85 8.1 25.9 L8.0 26.1 8.85 24.95 8.85 24.85 8.25 24.15 M10.2 25.1 L10.25 25.2 10.15 25.35 10.2 25.1 M10.05 25.15 L9.95 25.25 8.5 26.75 8.5 26.7 9.9 25.05 9.9 25.1 9.9 25.25 10.05 25.15 M9.45 24.65 L7.95 26.8 7.55 25.9 7.5 25.85 7.0 25.65 6.8 24.9 Q6.8 23.85 7.85 24.0 8.75 24.1 8.9 24.8 L8.95 24.75 Q9.4 24.3 9.45 24.65 M6.95 25.65 L6.75 25.65 6.65 25.7 6.25 26.3 6.2 26.3 6.15 26.4 6.15 26.5 6.15 27.45 6.2 27.55 Q6.55 27.85 7.0 28.0 L7.05 28.0 7.2 28.0 7.7 28.0 7.65 28.4 7.25 28.4 Q6.6 28.4 6.2 27.85 L5.35 28.0 4.05 28.0 4.0 27.6 5.35 27.6 6.0 27.5 5.9 27.3 4.2 27.3 4.0 27.3 4.0 26.9 5.75 26.9 5.75 26.8 5.85 26.3 4.1 26.1 4.15 25.8 5.9 25.9 6.15 25.9 6.45 25.65 6.95 25.65 M8.3 30.65 L8.7 30.7 8.7 31.25 9.0 33.4 8.6 33.4 8.3 31.3 8.3 30.65 M10.55 31.2 L10.95 30.9 10.8 33.55 10.45 33.55 10.55 31.2 M11.5 28.25 L11.05 27.8 10.6 27.6 10.05 26.95 9.95 26.9 10.2 26.65 10.65 27.1 10.9 27.45 Q11.35 27.95 12.05 27.95 L12.65 27.9 12.65 27.7 12.65 27.55 12.65 27.4 12.6 27.2 12.55 27.15 12.25 26.65 11.65 26.15 11.45 26.05 11.55 26.05 11.95 26.05 12.0 26.05 12.75 26.6 12.75 26.65 12.8 26.65 12.9 26.75 13.0 27.5 13.05 27.65 12.85 28.05 12.1 28.35 11.5 28.25 M11.05 27.0 L10.3 26.5 10.55 26.15 11.1 26.7 10.95 26.65 11.1 26.9 11.05 27.0 M11.9 26.95 L10.6 26.05 10.6 26.0 12.15 26.9 12.2 27.0 11.95 26.95 11.9 26.95 M18.1 25.35 L18.2 24.8 Q20.45 23.7 20.45 24.25 20.45 24.45 19.3 24.9 18.35 25.2 18.1 25.35 M18.15 27.0 L18.9 26.9 19.8 26.8 Q20.05 26.8 20.3 26.6 20.6 26.6 20.55 26.8 L19.95 27.2 18.25 27.4 18.15 27.0 M14.0 27.2 L13.95 27.2 13.35 27.15 13.15 26.7 14.1 26.85 14.1 26.9 14.0 27.2 M18.1 26.65 L18.05 26.2 19.1 25.95 Q20.45 25.7 20.45 25.95 20.45 26.35 18.1 26.65 M10.45 25.45 L10.4 25.6 9.75 26.85 9.3 26.8 10.4 25.45 10.45 25.45 M10.25 34.35 L10.75 34.35 10.75 34.4 10.95 34.6 10.15 34.5 10.1 34.45 10.1 34.75 10.05 34.55 10.25 34.35 M10.95 34.65 L10.8 34.9 10.85 35.05 10.8 35.25 10.75 35.3 10.7 35.3 10.35 35.3 10.2 35.1 10.95 34.65 M10.9 36.3 L10.95 36.55 10.7 37.0 10.15 36.8 9.95 36.55 10.0 36.35 10.2 36.15 10.3 36.15 10.9 36.3 M0.8 25.75 L-0.3 25.6 Q-2.1 25.3 -1.4 24.85 L0.4 25.2 0.75 25.3 0.8 25.75 M0.75 26.85 Q-1.45 26.4 -1.45 25.95 -1.45 25.5 -0.95 25.75 L0.6 26.35 0.8 26.4 0.75 26.85 M0.55 27.7 L-1.5 27.15 Q-1.5 26.65 -1.05 26.95 L0.7 27.25 0.55 27.7 M8.2 33.85 L8.15 33.75 Q8.15 33.55 8.4 33.5 8.7 33.85 9.2 33.85 L9.2 33.9 9.3 34.05 8.2 33.85 M9.3 34.2 L9.1 34.35 9.1 34.45 8.55 34.3 8.6 34.2 8.6 34.15 9.3 34.2 M9.35 35.3 L9.4 35.45 Q9.4 35.85 8.85 35.85 8.5 35.85 8.4 35.4 L8.4 35.15 9.35 35.3" fill="url(#gradient8)" fill-rule="evenodd" stroke="none"/>
      <path d="M7.3 24.65 L7.2 24.95 7.4 25.4 8.1 25.75 8.55 25.15 8.45 24.9 Q8.3 24.35 7.7 24.35 L7.3 24.65 M8.25 24.15 L8.85 24.85 8.85 24.95 8.0 26.1 8.1 25.9 Q7.6 25.85 7.2 25.5 L7.15 25.45 6.9 24.75 7.45 24.2 8.25 24.15 M10.25 24.9 L10.4 24.7 10.25 25.2 10.4 25.3 Q10.25 25.0 10.45 24.65 L10.55 24.65 Q11.45 23.85 12.45 24.35 L12.55 24.4 Q12.9 25.15 12.6 25.85 L12.55 25.95 13.1 26.6 12.75 26.6 12.0 26.05 11.95 26.05 11.55 26.05 11.45 26.05 11.65 26.15 12.25 26.65 12.55 27.15 12.6 27.2 12.65 27.4 12.45 27.05 12.2 27.0 12.15 26.9 10.6 26.0 10.6 26.05 11.9 26.95 11.1 26.7 10.55 26.15 10.3 26.5 11.05 27.0 10.9 27.1 10.55 26.85 10.6 26.95 10.65 27.1 10.2 26.65 9.95 26.9 10.05 26.95 10.6 27.6 11.05 27.8 11.5 28.25 10.8 27.8 10.9 28.45 10.95 30.9 10.55 31.2 10.55 30.9 10.5 28.55 9.7 28.75 Q8.95 28.75 8.6 28.35 L8.6 28.45 8.7 29.3 8.7 30.7 8.3 30.65 8.3 29.35 8.2 28.45 8.2 28.0 Q8.0 28.3 7.65 28.4 L7.7 28.0 7.2 28.0 7.25 28.0 7.75 27.9 8.0 27.45 7.9 27.45 7.3 27.6 6.65 27.75 7.0 28.0 Q6.55 27.85 6.2 27.55 L6.15 27.45 6.15 26.5 6.15 26.8 6.15 26.9 6.4 26.9 7.5 26.75 7.45 26.55 7.55 26.35 7.5 26.3 6.25 26.3 6.65 25.7 6.75 25.65 6.95 25.65 7.0 25.65 7.5 25.85 7.55 25.9 7.95 26.8 9.45 24.65 9.45 24.75 9.3 25.15 9.35 25.2 9.7 24.85 9.75 24.9 9.9 25.05 8.5 26.7 8.5 26.75 9.95 25.25 10.05 25.15 10.15 25.35 10.25 25.2 10.2 25.1 10.25 24.9 M14.1 26.65 L14.1 26.3 14.15 26.25 16.7 26.4 18.05 26.2 18.1 26.65 16.7 26.8 14.1 26.65 M14.15 26.2 L14.3 25.8 16.75 25.35 18.1 24.85 18.2 24.8 18.1 25.35 18.0 25.35 16.75 25.8 14.15 26.2 M10.9 24.7 Q10.55 25.0 10.55 25.3 L10.6 25.35 10.8 25.55 11.05 25.7 11.3 25.85 12.2 25.85 Q12.55 25.7 12.55 25.25 12.55 24.65 12.05 24.35 11.35 24.25 10.9 24.7 M18.25 27.4 L18.15 27.4 16.0 27.4 14.0 27.2 14.1 26.9 14.1 26.85 16.0 27.0 18.15 27.0 18.25 27.4 M13.35 27.15 L13.15 27.15 13.0 27.1 13.05 27.35 13.05 27.4 13.05 27.55 13.05 27.65 13.0 27.5 12.9 26.75 12.8 26.65 12.9 26.65 13.15 26.7 13.35 27.15 M10.45 25.45 L10.4 25.45 9.3 26.8 9.75 26.85 10.4 25.6 10.45 25.45 M12.65 27.7 L12.65 27.9 12.05 27.95 12.65 27.7 M10.3 27.55 L10.05 27.2 9.9 27.2 9.85 27.15 9.9 27.3 9.7 27.55 9.5 27.45 9.1 27.65 8.85 27.4 9.1 27.1 9.05 27.05 8.8 27.3 8.7 27.3 8.7 27.55 Q8.85 28.35 9.7 28.35 10.35 28.35 10.4 28.0 L10.3 27.55 M10.45 33.55 L10.8 33.55 10.75 34.35 10.25 34.35 10.4 34.3 10.45 33.55 M10.95 34.6 L10.95 34.65 10.2 35.1 10.2 35.05 10.25 34.95 10.1 34.75 10.1 34.45 10.15 34.5 10.95 34.6 M10.7 35.3 L10.7 35.35 10.9 36.3 10.3 36.15 10.2 36.15 10.0 36.35 10.15 35.8 10.35 35.3 10.7 35.3 M4.1 26.1 L0.8 25.75 0.75 25.3 4.15 25.8 4.1 26.1 M4.0 27.3 L0.75 26.85 0.8 26.4 4.0 26.9 4.0 27.3 M6.45 27.3 L6.3 27.3 6.4 27.4 6.8 27.3 6.45 27.3 M4.05 28.0 L3.15 28.0 0.55 27.7 0.7 27.25 0.95 27.3 3.15 27.6 4.0 27.6 4.05 28.0 M8.4 33.5 L8.45 33.5 8.6 33.5 8.6 33.4 9.0 33.4 9.0 33.6 9.2 33.8 9.2 33.85 Q8.7 33.85 8.4 33.5 M9.3 34.05 L9.3 34.2 8.6 34.15 8.55 34.1 8.2 33.85 9.3 34.05 M9.1 34.45 L9.35 35.3 8.4 35.15 8.35 34.9 8.55 34.3 9.1 34.45" fill="url(#gradient9)" fill-rule="evenodd" stroke="none"/>
      <path d="M9.8 6.65 L9.45 7.35 8.95 5.7 8.7 5.0 9.15 4.85 9.2 4.9 9.8 6.65" fill="#ffffff" fill-rule="evenodd" stroke="none"/>
      <path d="M9.8 6.65 L10.2 7.85 10.2 8.2 10.0 8.25 Q9.75 8.25 9.45 7.35 L9.8 6.65 M8.7 5.0 L7.75 2.2 8.4 1.75 9.15 4.85 8.7 5.0" fill="#c4c4c4" fill-rule="evenodd" stroke="none"/>
      <path d="M10.9 5.95 L11.15 5.1 Q11.95 2.3 12.5 3.1 L13.9 5.45 Q13.8 7.7 12.9 9.85 L11.65 7.75 Q11.5 6.7 10.9 5.95" fill="#c4c4c4" fill-rule="evenodd" stroke="none"/>
      <path d="M10.9 5.95 Q11.5 6.7 11.65 7.75 L12.9 9.85 Q13.8 7.7 13.9 5.45 L13.95 5.55 17.25 12.1 17.5 12.6 17.95 13.65 17.7 13.9 Q15.1 16.2 11.35 16.5 L8.0 16.4 Q8.85 15.6 9.15 14.15 9.6 12.45 9.25 10.75 9.15 10.35 9.05 10.65 L8.25 11.3 Q8.05 13.25 7.1 15.2 L6.65 16.15 6.6 16.15 6.35 16.1 Q4.6 15.6 2.9 14.65 L1.4 13.6 4.25 8.1 6.0 4.6 Q6.7 3.0 7.15 2.85 7.65 2.6 7.7 2.85 L8.05 4.85 9.55 10.55 10.9 5.95" fill="url(#gradient10)" fill-rule="evenodd" stroke="none"/>
      <path d="M17.95 13.65 L19.7 17.3 19.95 18.0 Q21.4 21.2 21.35 22.35 21.3 23.45 17.9 24.5 18.85 23.55 18.8 21.85 L18.75 21.85 Q17.55 23.85 15.5 25.1 L13.8 25.4 12.65 25.5 Q14.2 24.25 14.4 22.2 12.5 23.55 11.0 25.55 L10.85 25.5 10.75 24.6 10.6 24.3 10.0 24.3 9.1 25.5 8.25 25.4 6.4 25.0 5.75 24.8 5.5 24.25 5.1 24.15 3.75 23.0 2.95 22.65 2.85 22.75 3.25 24.25 3.05 24.2 -0.5 21.3 -0.7 21.3 Q-1.05 21.4 -1.1 21.85 L-1.15 21.95 -0.5 23.4 Q-2.3 22.85 -2.3 22.4 -2.2 20.6 0.45 15.35 L1.4 13.6 2.9 14.65 Q4.6 15.6 6.35 16.1 L6.6 16.15 6.65 16.15 7.1 15.2 Q8.05 13.25 8.25 11.3 L9.05 10.65 Q9.15 10.35 9.25 10.75 9.6 12.45 9.15 14.15 8.85 15.6 8.0 16.4 L11.35 16.5 Q15.1 16.2 17.7 13.9 L17.95 13.65" fill="url(#gradient11)" fill-rule="evenodd" stroke="none"/>
      <path d="M17.9 24.5 L15.5 25.1 Q17.55 23.85 18.75 21.85 L18.8 21.85 Q18.85 23.55 17.9 24.5 M12.65 25.5 L11.0 25.55 Q12.5 23.55 14.4 22.2 14.2 24.25 12.65 25.5 M10.85 25.5 L9.1 25.5 10.0 24.3 10.6 24.3 10.75 24.6 10.85 25.5 M5.75 24.8 L3.25 24.25 2.85 22.75 2.95 22.65 3.75 23.0 5.1 24.15 5.5 24.25 5.75 24.8 M3.05 24.2 L1.95 23.95 -0.5 23.4 -1.15 21.95 -1.1 21.85 Q-1.05 21.4 -0.7 21.3 L-0.5 21.3 3.05 24.2" fill="url(#gradient12)" fill-rule="evenodd" stroke="none"/>
      <path d="M5.75 4.75 L5.55 3.35 6.85 2.7 7.95 1.8 8.45 3.5 Q6.9 3.6 5.75 4.75" fill="#1a0800" fill-rule="evenodd" stroke="none"/>
      <path d="M9.35 6.5 L9.45 6.8 9.85 7.75 10.15 8.55 10.2 8.75 10.5 9.85 10.35 10.1 10.25 10.05 10.2 9.8 9.85 11.8 9.65 12.95 Q9.5 13.9 9.15 13.85 8.9 13.85 7.95 11.45 L7.95 11.4 8.7 9.3 Q8.95 7.85 9.35 6.5" fill="url(#gradient13)" fill-rule="evenodd" stroke="none"/>
      <path d="M9.35 6.5 Q8.95 7.85 8.7 9.3 L7.95 11.4 7.75 10.9 7.75 10.75 6.25 6.4 5.75 4.75 Q6.9 3.6 8.45 3.5 L9.0 5.45 9.35 6.5" fill="url(#gradient14)" fill-rule="evenodd" stroke="none"/>
      <path d="M11.6 7.55 L10.75 10.6 9.55 15.45 8.95 17.55 8.8 17.45 Q7.8 18.15 6.5 18.15 L7.0 16.8 8.2 13.2 Q9.55 9.25 9.9 7.5 L10.3 5.3 Q11.3 6.1 11.6 7.55" fill="#ffffff" fill-rule="evenodd" stroke="none"/>
      <path d="M11.6 7.55 Q11.3 6.1 10.3 5.3 L11.0 1.8 11.35 2.1 11.7 2.45 Q12.0 3.45 11.95 5.7 L11.6 7.55 M6.5 18.15 Q7.8 18.15 8.8 17.45 L8.95 17.55 7.5 21.3 Q5.85 25.1 5.2 25.05 4.95 25.1 4.45 24.7 4.25 24.55 4.1 24.55 L4.8 23.1 5.65 20.75 6.5 18.15" fill="#c4c4c4" fill-rule="evenodd" stroke="none"/>
      <path d="M11.35 16.15 L9.35 21.6 5.95 21.15 6.4 19.7 7.25 17.3 7.85 15.6 9.15 16.0 11.35 16.15" fill="#090200" fill-rule="evenodd" stroke="none"/>
      <path d="M11.2 3.25 L11.5 1.95 11.55 1.95 11.5 1.85 12.25 2.55 13.15 3.1 13.95 3.25 14.25 3.35 14.2 4.05 14.15 4.55 14.15 4.65 Q13.45 3.7 12.05 3.3 L11.2 3.25" fill="url(#gradient15)" fill-rule="evenodd" stroke="none"/>
      <path d="M14.15 4.65 L14.0 5.6 Q13.35 9.95 11.7 15.05 L11.35 16.15 9.15 16.0 7.85 15.6 9.45 10.4 11.2 3.25 12.05 3.3 Q13.45 3.7 14.15 4.65 M9.35 21.6 L7.75 25.8 5.2 25.1 4.5 24.85 5.25 22.8 5.95 21.15 9.35 21.6" fill="url(#gradient16)" fill-rule="evenodd" stroke="none"/>
    </g>
    <radialGradient cx="0" cy="0" gradientTransform="matrix(0.0151, 0.0, 0.0, 0.0151, 10.05, 32.85)" gradientUnits="userSpaceOnUse" id="gradient0" r="819.2" spreadMethod="pad">
      <stop offset="0.0" stop-color="#2c0000"/>
      <stop offset="0.9058823529411765" stop-color="#662121"/>
    </radialGradient>
    <radialGradient cx="0" cy="0" gradientTransform="matrix(0.0151, 0.0, 0.0, 0.0151, 10.05, 32.85)" gradientUnits="userSpaceOnUse" id="gradient1" r="819.2" spreadMethod="pad">
      <stop offset="0.0" stop-color="#150000"/>
      <stop offset="1.0" stop-color="#410d0d"/>
    </radialGradient>
    <radialGradient cx="0" cy="0" gradientTransform="matrix(0.0064, 0.0, 0.0, 0.0064, 4.75, 33.75)" gradientUnits="userSpaceOnUse" id="gradient2" r="819.2" spreadMethod="pad">
      <stop offset="0.0" stop-color="#582b00"/>
      <stop offset="0.5843137254901961" stop-color="#2e1500"/>
      <stop offset="0.9607843137254902" stop-color="#622000"/>
    </radialGradient>
    <radialGradient cx="0" cy="0" gradientTransform="matrix(0.0064, 0.0, 0.0, 0.0064, 4.75, 33.75)" gradientUnits="userSpaceOnUse" id="gradient3" r="819.2" spreadMethod="pad">
      <stop offset="0.0" stop-color="#874200"/>
      <stop offset="0.5843137254901961" stop-color="#622c00"/>
      <stop offset="0.9686274509803922" stop-color="#792700"/>
    </radialGradient>
    <radialGradient cx="0" cy="0" gradientTransform="matrix(0.0034, 0.0, 0.0, 0.0034, 7.7, 30.85)" gradientUnits="userSpaceOnUse" id="gradient4" r="819.2" spreadMethod="pad">
      <stop offset="0.34901960784313724" stop-color="#190b00"/>
      <stop offset="1.0" stop-color="#311000"/>
    </radialGradient>
    <radialGradient cx="0" cy="0" gradientTransform="matrix(0.007, 0.0, 0.0, 0.007, 8.4, 33.95)" gradientUnits="userSpaceOnUse" id="gradient5" r="819.2" spreadMethod="pad">
      <stop offset="0.0" stop-color="#582b00"/>
      <stop offset="0.5843137254901961" stop-color="#2e1500"/>
      <stop offset="0.9607843137254902" stop-color="#622000"/>
    </radialGradient>
    <radialGradient cx="0" cy="0" gradientTransform="matrix(0.0139, 0.0, 0.0, 0.0139, 9.5, 26.4)" gradientUnits="userSpaceOnUse" id="gradient6" r="819.2" spreadMethod="pad">
      <stop offset="0.1803921568627451" stop-color="#03778a"/>
      <stop offset="0.6039215686274509" stop-color="#3bbdb2"/>
      <stop offset="1.0" stop-color="#0f969a"/>
    </radialGradient>
    <radialGradient cx="0" cy="0" gradientTransform="matrix(0.0139, 0.0, 0.0, 0.0139, 9.5, 26.4)" gradientUnits="userSpaceOnUse" id="gradient7" r="819.2" spreadMethod="pad">
      <stop offset="0.07058823529411765" stop-color="#2dafc4"/>
      <stop offset="0.6039215686274509" stop-color="#76eee4"/>
      <stop offset="1.0" stop-color="#30abaf"/>
    </radialGradient>
    <radialGradient cx="0" cy="0" gradientTransform="matrix(0.0163, 0.0, 0.0, 0.0163, 9.5, 30.45)" gradientUnits="userSpaceOnUse" id="gradient8" r="819.2" spreadMethod="pad">
      <stop offset="0.1411764705882353" stop-color="#ec9712"/>
      <stop offset="0.6196078431372549" stop-color="#ffd138"/>
      <stop offset="1.0" stop-color="#ffc400"/>
    </radialGradient>
    <radialGradient cx="0" cy="0" gradientTransform="matrix(0.0163, 0.0, 0.0, 0.0163, 9.5, 30.45)" gradientUnits="userSpaceOnUse" id="gradient9" r="819.2" spreadMethod="pad">
      <stop offset="0.4588235294117647" stop-color="#c26000"/>
      <stop offset="1.0" stop-color="#fca943"/>
    </radialGradient>
    <radialGradient cx="0" cy="0" gradientTransform="matrix(0.0, 0.0, 0.0, 0.0, 19.95, 0.45)" gradientUnits="userSpaceOnUse" id="gradient10" r="819.2" spreadMethod="pad">
      <stop offset="0.1803921568627451" stop-color="#702c2c"/>
      <stop offset="1.0" stop-color="#640a0a"/>
    </radialGradient>
    <radialGradient cx="0" cy="0" gradientTransform="matrix(-0.0168, -8.0E-4, -8.0E-4, 0.0168, 9.75, 18.05)" gradientUnits="userSpaceOnUse" id="gradient11" r="819.2" spreadMethod="pad">
      <stop offset="0.0" stop-color="#2c0000"/>
      <stop offset="0.9058823529411765" stop-color="#662121"/>
    </radialGradient>
    <radialGradient cx="0" cy="0" gradientTransform="matrix(-0.0162, -8.0E-4, -8.0E-4, 0.0162, 9.65, 19.4)" gradientUnits="userSpaceOnUse" id="gradient12" r="819.2" spreadMethod="pad">
      <stop offset="0.0" stop-color="#3c0000"/>
      <stop offset="0.6470588235294118" stop-color="#270000"/>
    </radialGradient>
    <radialGradient cx="0" cy="0" gradientTransform="matrix(-0.0154, -7.0E-4, -7.0E-4, 0.0157, 9.35, 14.0)" gradientUnits="userSpaceOnUse" id="gradient13" r="819.2" spreadMethod="pad">
      <stop offset="0.10588235294117647" stop-color="#1c0d00"/>
      <stop offset="0.6470588235294118" stop-color="#000000"/>
      <stop offset="1.0" stop-color="#270c00"/>
    </radialGradient>
    <radialGradient cx="0" cy="0" gradientTransform="matrix(-0.0154, -7.0E-4, -7.0E-4, 0.0157, 9.35, 14.0)" gradientUnits="userSpaceOnUse" id="gradient14" r="819.2" spreadMethod="pad">
      <stop offset="0.0" stop-color="#582b00"/>
      <stop offset="0.4117647058823529" stop-color="#1c0d00"/>
      <stop offset="0.6392156862745098" stop-color="#0b0500"/>
      <stop offset="0.9607843137254902" stop-color="#622000"/>
    </radialGradient>
    <radialGradient cx="0" cy="0" gradientTransform="matrix(-0.0154, -7.0E-4, -7.0E-4, 0.0157, 9.35, 14.0)" gradientUnits="userSpaceOnUse" id="gradient15" r="819.2" spreadMethod="pad">
      <stop offset="0.10588235294117647" stop-color="#1c0d00"/>
      <stop offset="0.6470588235294118" stop-color="#000000"/>
      <stop offset="1.0" stop-color="#270c00"/>
    </radialGradient>
    <radialGradient cx="0" cy="0" gradientTransform="matrix(-0.0154, -7.0E-4, -7.0E-4, 0.0157, 9.35, 14.0)" gradientUnits="userSpaceOnUse" id="gradient16" r="819.2" spreadMethod="pad">
      <stop offset="0.0" stop-color="#582b00"/>
      <stop offset="0.4117647058823529" stop-color="#1c0d00"/>
      <stop offset="0.6392156862745098" stop-color="#0b0500"/>
      <stop offset="0.9607843137254902" stop-color="#622000"/>
    </radialGradient>
  </defs>
</svg>
