<svg xmlns="http://www.w3.org/2000/svg" xmlns:ffdec="https://www.free-decompiler.com/flash" xmlns:xlink="http://www.w3.org/1999/xlink" ffdec:objectType="frame" width="20.35" height="21.2"><use ffdec:characterId="3" xlink:href="#a" width="20.35" height="21.2"/><defs><g id="a" fill-rule="evenodd"><path fill="#8c96a2" d="M11.85 1.25q.4-.7.05-1.25 5.25 4.75 7.6 15.8l.65 3.45h.1v.15q-2.95.9-5.95 1.25-1.2-.6-2.6-.6h-.6l-1.85.3-.85.3Q4.3 20.3.1 18.8L.65 16q1-5.2 2.65-8.7t3.5-5.7Q8.15-.1 8.5.05q-.2.55-.05.9l.5.7 1.4.3q1 0 1.5-.7"/><path fill="#fff" d="m13.85 2.05.5.8-.7.2-.75-.3q-.25-.3-.25-.75l.05-.25.2-.45.15-.1zm-3 2.2L10.5 5l-.7.3-.75-.3q-.3-.3-.3-.75 0-.4.3-.7t.75-.3l.7.3q.35.3.35.7m4.4 2.25q.35 0 .7.3l.3.75-.3.75-.7.25-.75-.25q-.3-.35-.3-.75t.3-.75q.3-.3.75-.3m-10.2.6-.3.75L4 8.1l-.75-.25-.05-.25.3-.65.35-.7.15-.2q.4 0 .75.3zm3.7 2.25.3.7-.3.75-.75.3q-.4 0-.75-.3-.25-.3-.25-.75 0-.4.25-.7Q7.6 9 8 9t.75.35m1.45 5.2.3.7-.3.75-.7.3q-.45 0-.75-.3t-.3-.75q0-.35.3-.7.3-.3.75-.3.35 0 .7.3m-8.55-2.7.35-1.1.45.25.3.75-.3.75-.7.25h-.3zm2.75 2.2.3.7-.3.75-.75.3-.75-.3q-.25-.3-.25-.75l.25-.7q.35-.3.75-.3zm.15 3.2q.6.65.7 1.4.05-.5.65-1.25.85-.7 1.8-.7 1 0 1.8.7.55.6.7 1.5v-.05q-.05-.6.7-1.45.85-.7 1.85-.7.95 0 1.75.7.65.7.7 1.7v-.25q-.1-.55.65-1.45.85-.7 1.8-.7 1 0 1.55.5l.35.3q.35.3.6 1.25l.2 1.15-.2.2h-.05l-2.3.75-.3.05-1.8.05-3.1-.4-1.05-.1-2.2.3-2.6.45-.75-.05h-.1l-2.05-.35-2.7-.65-.5-.2-.65-.3.35-2 .05-.1.05-.05q.6-.75 1.5-.9l.6-.15.85.05zm13.8-6-.4.05-.75-.3-.25-.75.25-.7.5-.25.45 1.4zm-1 3q-.35.3-.7.3-.45 0-.75-.3t-.3-.75q0-.35.3-.7.3-.3.75-.3.35 0 .7.3l.3.7zm-6.25-3.2q.35 0 .7.35l.3.7-.3.75-.7.25-.75-.25q-.3-.35-.3-.75t.3-.7q.3-.35.75-.35"/><path fill="#bbb" d="m14.4 4.75-.35.75q-.3.3-.7.3-.45 0-.75-.3t-.3-.75q0-.4.3-.7.3-.35.75-.35.4 0 .7.35zM11.3 6.9q.4 0 .7.35.35.3.35.7L12 8.7l-.7.3q-.4 0-.75-.3-.3-.3-.3-.75 0-.4.3-.7.35-.35.75-.35M6.9 2.65q.35.3.35.7 0 .45-.35.75l-.7.3-.75-.3-.25-.35 1-1.45q.4 0 .7.35M6.85 7.3q-.3-.3-.3-.75 0-.4.3-.7t.75-.3q.4 0 .7.3.35.3.35.7 0 .45-.35.75l-.7.3q-.45 0-.75-.3M5.8 10.05l-.35.75q-.3.3-.7.3-.45 0-.75-.3t-.3-.75q0-.4.3-.7.3-.35.75-.35.4 0 .7.35zm1.9 2.35.3.7-.3.75-.7.3q-.45 0-.75-.3t-.3-.75q0-.35.3-.7.3-.3.75-.3.35 0 .7.3m-7 3.3.05-.2.15-.9.3.75-.3.75-.15.1-.1.05zm17.95-1.55.3-.15.35 1.2.15.7h-.05l-.75-.25-.25-.75q0-.4.25-.75M14.85 10l.3.75-.3.75-.75.25-.75-.25-.25-.75q0-.4.25-.75.35-.3.75-.3zm-1.25 3.85q.4 0 .7.3l.35.7q0 .45-.35.75l-.7.3q-.4 0-.75-.3-.3-.3-.3-.75 0-.35.3-.7.35-.3.75-.3"/><path fill="#312e29" fill-opacity=".408" d="m11.95 3-1.15.8-1.2.15q-.95-.35-1.25-1l-.05-.2.45.2.75.2.8-.1 1.95-.4zm-.45-.55-1.95.15-1.1-.3-.55-.6v-.55l.15-.3.05.15q.1 1.2 2.5 1.2 1.2 0 1.75-1.2l.15-.45q.25 1.65-1 1.9m-1.45 18.1-2.05.6-1.15.05q-.15-.1.45-1.5.55-1.4 1.45-2.45.85-1.1 1.85-1.85.55-.4.8-.2l.05.3-.3 1.65q-.3 1.05-.3 1.75l.15 1.4.05.15v.05zm2.7-7.05.1-.3.05-.05v-.05l.1-.25.25.55.5 1.5v.35l-.3 1.1-.85.9-.4.4q-.25-.2-.25-.9t.35-1.7zM14 20.35l.8-.6.65-.8.2-.45.05-.1.25-.75v-.1l.2-.55.3-2 .3 1.05.2 1.3V19l-.1.9-.3.7H16l-1.25-.25z"/></g></defs></svg>