<?xml version="1.0" encoding="UTF-8" standalone="no"?>
<svg xmlns:ffdec="https://www.free-decompiler.com/flash" xmlns:xlink="http://www.w3.org/1999/xlink" ffdec:objectType="frame" height="10.7px" width="10.05px" xmlns="http://www.w3.org/2000/svg">
  <g transform="matrix(1.0, 0.0, 0.0, 1.0, 0.05, -2.4)">
    <use ffdec:characterId="5" height="10.7" transform="matrix(1.0, 0.0, 0.0, 1.0, -0.05, 2.4)" width="10.05" xlink:href="#shape0"/>
  </g>
  <defs>
    <g id="shape0" transform="matrix(1.0, 0.0, 0.0, 1.0, 0.05, -2.4)">
      <path d="M3.3 8.5 Q2.4 8.5 1.3 6.9 0.15 5.3 0.0 2.85 0.2 2.2 2.2 2.5 4.2 2.7 5.85 4.3 6.65 5.2 6.5 5.95 L6.1 7.1 5.6 7.5 3.6 8.45 3.55 8.45 3.3 8.5 M6.35 8.45 L7.65 10.1 8.85 12.0 Q8.75 12.75 7.9 13.0 7.1 13.25 6.0 13.0 L4.3 9.45 Q5.45 9.1 6.35 8.45" fill="#96e3f5" fill-rule="evenodd" stroke="none"/>
      <path d="M6.1 7.1 L6.3 7.0 Q6.8 7.55 6.6 8.05 L6.35 8.45 Q5.45 9.1 4.3 9.45 L3.8 9.5 Q3.35 9.2 3.3 8.5 L3.55 8.45 3.6 8.45 5.6 7.5 6.1 7.1" fill="#fdf2aa" fill-rule="evenodd" stroke="none"/>
      <path d="M6.05 7.8 L7.6 9.15 10.0 10.0 9.85 11.1 Q8.9 10.8 7.85 10.15 L6.5 9.15 Q7.35 10.3 7.35 11.9 L6.3 12.05 Q6.4 10.05 5.4 8.05 L6.05 7.8" fill="#fdf2aa" fill-rule="evenodd" stroke="none"/>
      <path d="M3.1 4.95 L4.7 7.0 4.9 7.8 4.0 8.3 2.55 8.2 Q1.8 7.7 1.2 6.75 0.55 5.75 0.2 4.55 -0.15 3.35 0.0 2.85 0.1 2.3 1.0 2.95 L3.1 4.95 M4.4 9.5 L5.7 8.85 5.9 9.15 5.95 9.5 5.75 9.75 4.95 10.1 4.6 9.85 4.4 9.5 M7.35 11.85 L6.6 9.35 7.6 11.2 7.85 12.0 7.5 12.1 6.3 12.1 7.35 11.85" fill="#8cbaff" fill-rule="evenodd" stroke="none"/>
      <path d="M6.15 8.6 Q5.35 9.15 4.1 9.5 3.55 9.35 3.4 8.85 L5.05 8.65 6.4 7.8 Q6.7 7.4 6.65 7.85 6.6 8.3 6.15 8.6" fill="#fad041" fill-rule="evenodd" stroke="none"/>
    </g>
  </defs>
</svg>
