<svg xmlns="http://www.w3.org/2000/svg" xmlns:ffdec="https://www.free-decompiler.com/flash" xmlns:xlink="http://www.w3.org/1999/xlink" ffdec:objectType="frame" width="22.8" height="23"><use ffdec:characterId="1" xlink:href="#a" width="22.8" height="23"/><defs><g id="a" fill-rule="evenodd"><path fill="#fff" d="m13 2.65.4-1.05-.05-.05-.5.45v-.25h.05l.5-.45.2-.25.1.4.05.1q.1-.1.15-.1.4 0 1.8 3.25l.45.65.5 1.05.15.55.55 1 .25.7v.15l1.4 3.4v.1l.9 2.8.75 2.65-.85.6-2.55 1.05-4.85.8-.75-2-.65 2-3.2-.4-3.15-.7-2.8-1.1v-.05l1.7-5.75.05-.15V12l.05-.2.45-1.55.2-.5.6-1.15.8-1.7 1.2-2.1.85-1.45q-.6 4-.65 8.4-.05 2.2-.55 3.95l-.35 2.2.7.85.15-.85 1.4-6.7q1.4-3.45 1.05-5.15l-.15-.65.15.15 2.7-.05q.85-.45.7.1-.2.5.35 2.8l1.1 4.4.9 3.65.5 2.1q.8-1.8.3-3.75l-.9-3.35-.85-4.3q-.2-1.5.35-3.05.35-.95-.3-1.9-.7.15-1.35.45m-4.5-.7.35-.55.25-.3.1.15.1.1-.55.6h.35l-.25.25zm.7.6.1-.05 1.4.5-.05-.05-1.25-1.5.55.3.85.95.55.5.3.15-1.3.05-.7-.1zm-3 15.35-.1-.15.1.3z"/><path fill="#afcfec" d="m7.75 3.35.1-.2q.05-.4.65-1.2l.35.25-.5.6-.1.35.95-.6.45.75.7.1 1.3-.05.6.2.7-.85.05-.05q.65-.3 1.35-.45.65.95.3 1.9-.55 1.55-.35 3.05l.85 4.3.9 3.35q.5 1.95-.3 3.75l-.5-2.1-.9-3.65-1.1-4.4q-.55-2.3-.35-2.8.15-.55-.7-.1l-2.7.05-.15-.15.15.65q.35 1.7-1.05 5.15l-1.4 6.7-.15.85-.7-.85v.15l-.1-.3.1.15.35-2.2q.5-1.75.55-3.95.05-4.4.65-8.4m.05.05.1-.1z"/><path fill="#7dd0af" d="m21.6 18.85 1.2 1.35-1.1.65-.85-1.45zm-16.7.3-.35.65-.25.5-.45-.2-1.15-.45.2-.3.05-.1.4-.65 1.3.5zm-2.5.35-1.3-.6.75-.95V18l1.2.5zm.85 2.3-1.55-.55h-.1l1-1.4 1.45.55.15.05-.05.05-.4.6zm-1.85-.65-1.4-.8.95-1.25 1.35.6zm4.65-.05-.5 1.25-2-.45.9-1.3v-.05h.05l1.6.4zm.1-.3-1.6-.4.25-.5.25-.7 1.55.4-.25.7zm.15.4.1-.2 1.55.15.6.1-.1.3-.5 1.2-2.25-.35zm2.35-.2-1.4-.1-.8-.05.2-.45.1-.25.2-.5.85.15 1.1.15-.25 1zm.15.25 1.95.05-.5 1.65-1.95-.2.45-1.2zm.4-1.2 1.8.15-.25.85-1.9-.05.2-.55zm3.55 1.2-.35-1.05 1.7-.2.45 1.05.05.1zm2.7-.25h-.55l-.55-1.1 2.1-.3.4 1.05-.4.15zm-.4.35 1.9-.4.35 1 .2.45-1.35.25-.4.05-.2.05-.45-1.2zm-.35 0 .6 1.45-.1-.05-.6.05h-1.3l-.45-1.25 1.4-.15zm5.75-2-1.05.45-.45.2-.3-1.1 1.15-.55zm.1.2.45.7.55.7-1.8.8-.45-.85-.25-.65 1.4-.65zm-3.75-.05.45-.1 1.1-.35.4 1-1.6.5zm3.9-.3-.55-1.05.5-.4.75.85zm-1.8 1.35.5 1.3-1.7.5-.45-1.5.15-.05 1.45-.5z"/><path fill="#fff" d="m21.7 20.85-.15.1-.55-.7-.45-.7-.1.05-1.4.65.25.65.45.85-.35.1-.5-1.3-.05-.25-1.45.5-.15.05.45 1.5-.2.05-.2-.45-.35-1-1.9.4.05.2.45 1.2q-.25-.15-.25.05l-.6-1.45-.45.05-1.4.15-.05-.2-.05-.1 1.85-.1-.05-.1L14.1 20l.25-.1.55 1.1h.55l1-.2.4-.15-.4-1.05.35-.1.35 1.05 1.6-.5-.4-1 .3-.15.3 1.1.45-.2 1.05-.45-.65-1 .35-.2.55 1.05.7-.6.15.15.05.1-.75.55zM5.05 19.2l-.25.7-.25.5 1.6.4.2-.5.25-.7.35.05-.2.5-.1.25-.2.45.8.05 1.4.1v-.05l.25-1 .3.1-.15.4-.2.55 1.9.05v.25l-1.95-.05-.05.3-.45 1.2h-.35l.5-1.2.1-.3-.6-.1L6.4 21l-.1.2-.6 1.2-.15-.05.5-1.25.05-.15-1.6-.4h-.05v.05l-.9 1.3-.3-.1.5-.7.4-.6.05-.05-.15-.05-1.45-.55-1 1.4-.05.05-.15-.15.9-1.45-1.35-.6.15-.2 1.3.6.65-1 .15.05.15.05-.4.65-.05.1-.2.3 1.15.45.45.2.25-.5.35-.65z"/><path d="m15.15 3.1.6 1-1.15 3.15 1.5 4.1q.7-.35.95-1.15l.55-2.5.05.05 1.65 4 .6 1.95-1.1 1.5-2.75 3.4q-.55-3.25-1.65-7.05l.7.1q-.45-1.65.6.75l1.3 4.1 1.8-2.55h-.1l-1.6 1.85-1.6-4.85L15 9.9l-.9-3.05h.05zm-8.4 1.05.6-1 1 3.75h.05l-.9 3.05L7 11l-1.6 4.85L3.8 14h-.1l1.8 2.55 1.3-4.1q1.05-2.4.6-.75l.7-.1Q7 15.4 6.45 18.65l-2.75-3.4-1.1-1.5.6-1.95q.65-1.9 1.65-4l.05-.05q.05 1.05.55 2.5.25.8.95 1.15l1.5-4.1z"/><path fill="#2b1c00" d="m11 7.5-.95 1.8-.55 1.05.35-1 .7-2-.1-.4z"/><path fill="#232323" d="m14.4 11.55-.2-.8-.95-3.15.25-1.3.6-3.55V2.7l-.05-.5v-.95l1.1 1.85-1 3.75h-.05L15 9.9l.5 1.05 1.6 4.85 1.6-1.85h.1L17 16.5l-1.3-4.1q-1.05-2.4-.6-.75zm1.35-7.45.15.25 1.7 3.35-.55 2.5q-.25.8-.95 1.15l-1.5-4.1zm-8.4-.95L8.8.75l-.1.35.2-.35 1.55 1.55-.4 1.35Q9.3 1.9 8.75 1.3l-.1-.1-.25 1.55v.05L9 6.35l.25 1.3-.95 3.15-.2.8-.7.1q.45-1.65-.6.75l-1.3 4.1L3.7 14h.1l1.6 1.85L7 11l.5-1.05.9-3.05h-.05zM4.9 7.75 6.6 4.4l.15-.25L7.9 7.3l-1.5 4.1q-.7-.35-.95-1.15-.5-1.45-.55-2.5"/><path fill="#ff4381" d="m11.45 17.4.05.05.05.1z"/><path fill="#6bd2b1" d="m11.45 17.4-3.35-3 .15-.45L9.8 8.4l.35-1.8-.45-.15-.4-1.15-.05-.65.75-.3h-.05L9.8 4.2l-.45-.4L9 3.45 8.55 3Q7.6 2 7 .85 7.05.1 7.8.1l.6.1 2.9 2.6L14.25.05l.5-.05q.55.05.7.75l.1.2-1.85 2.4v.05l-.7.7-.05.05-.1.05-.05.05.45.4v.15l-.05.5-.35 1.15-.25.2.15 1.2q.3 2.85 1.4 5.9l.2.6-3 2.95z"/><path fill="#fff" d="m12 3.2.2.25.5.5.1-.1.25-.25.05-.1.2-.25.05-.05.35-.45-.8-.8-1.05 1.1zm-.15.25-.15-.2-.8.8-.05.05v.05l.35.35.45.45.05.05.4-.45.45-.4-.5-.55zM14.25.8 14.1.6l-1 1.1-.05.05.2.15.2.25.2.2.05.15.4-.15.6-.7.15-.25-.35-.4zm.3-.7-.3.35.15.15.2.2.4.45.3-.6q.25-.1.25.15l-.4.65-.05.1-.3.3-.25.35-1.15 1.3-.7.7.4.25.1.15.1.1h-.1l.1.1-.05.1-.1-.1-.45-.5-.3.3-.55.55 1 1 .05.1-.05.05-.1.15L12.3 6l-.6-.65-.9.9-.35.35.25.3.25.25.7.85.45-.5.3-.35.25-.25.05.3-.35.4-.5.55 1 1.1.15-.2.05.25-.05.1.1.1.05.3-.3-.25-1 1.1 1.25 1.25.4-.45.05.5-.2.2.25.25.25.25.15.35.05.15-.9-.8-1.3 1.35 1.05 1.05.15-.15 1.1-1.15.1.35-.1.1-1.05 1.05.25.25-.15.15-.25-.25-1.1 1.1.2.25-.1.2-.25-.3-.6.6v-.05l-.15-.1.35-.35.25-.25-.3-.25-.85-.85-.4.4-.25.25-.2-.15.15-.1.1-.1.45-.45L8.9 13.6l-.4.4-.25.2.05-.4.05-.05.35-.35-.25-.3.1-.3.4.4.55-.55.55-.5-1-1.05.1-.35 1.1 1.2 1.25-1.3-1-1.1-.15.15-.35.35-.7.6.4-.6.45-.45.2-.2-.7-.8.05-.25.05.05.6.65.15.15 1-1.05-.75-.85-.4-.45-.05-.1-.15.15v-.25q0-.3-.2-.3L9.4 5.7l-.05-.4v-.05l.75-.75.1-.1.1-.1.1-.15-.3-.4-.45-.45-.15-.15-.1-.1-.3.35-.1-.1-.05-.1.3-.35-1.1-1.05-.2.35-.2-.2L8 1.6 6.9.6l.15-.15.65.55.45.45.3-.35.05-.05.35-.35.2.15-.45.4v.05l-.25.25L9.4 2.7l.25-.3h.05l.55-.6.2.2-.9.9.1.05.05.05.95.95.2-.25.05-.05.6-.6-.5-.55.3.2h.15l.2.2 1.1-1.1-.1-.1.2-.15.05.05 1-1.15.15-.2h.05l.1-.15zM11.5 5.15l-.65-.65-.05-.1-.15-.1-.2.2-.05.05-.7.7-.25.25.75.85.1.1.05-.1h.05l1.05-1.15zm1.25 9.75-1.05-1.05-1.1 1.1 1.1 1.1zM9.1 13.45l.95.9.4.45 1.1-1.1-1.35-1.35zm1.3-1.3.2.2 1.1 1.2.8-.95.45-.5-1.25-1.25zm2.3-2.75-1-1.05-1.05 1.05 1.05 1.1z"/><path fill="#3f0000" fill-opacity=".518" d="m11.5 17.45.05.1-.1-.15z"/><path fill-opacity=".298" d="m14.75 0-1.2 1.35q-1.2.95-1.8 2l-.3.6h.5q0-.3.35-.65l1.45-1.35-.25.55-.4.75-.4.35-.15.1.85-.25.3-.05-.7.7-.05.05-.1.05-.05.05.45.4v.15l-3.8-.2.55-.25h.2l-.4-.15-.45-.4L9 3.45l.55.25.75.25-.2-.15-.1-.1-.05-.05-.5-.75-.05-.05q.6-.1 1.25.7l.1.15.2.25h.35l-.35-.45L9.7 2.2 7.8.1l.6.1 2.9 2.6L14.25.05zm-2 7.85Q11.05 6.05 10 8l-.2.4.35-1.8-.45-.15 3.25-.2-.1.2-.25.2zm-2.05 8.4.7.5.45-.4 1.35-1.3.95-1.3.2.6-3 2.95.1.1-3.35-3 .15-.45z"/><path fill="#afcfec" d="M12.25 20.2v-.1h-.05l-.2-.8-.25-.75-.5 1.4-.05.2v.05l-.05.05-.45-.05.05-.15q.65-1.6 1.05-2.15l.05.05.3.65.15.35.15.35.2.55.05.2.05.05-.15.05z"/><path fill-opacity=".298" d="m11.15 20.25-.15.45-.1.3v.05l-.05.05v.05l-.1.2v.05l-.2.65-.05.15-.25.8-.5-.15h-.1l.55-1.55.15-.3.05-.05.3-.75zm1.45-.1.25.3.3.8.1.15h-.05l.45 1.35-.35.05-.6-1.35-.1-.2-.35-1.05z"/></g></defs></svg>