<?xml version="1.0" encoding="UTF-8" standalone="no"?>
<svg xmlns:ffdec="https://www.free-decompiler.com/flash" xmlns:xlink="http://www.w3.org/1999/xlink" ffdec:objectType="frame" height="22.6px" width="23.2px" xmlns="http://www.w3.org/2000/svg">
  <g transform="matrix(1.0, 0.0, 0.0, 1.0, 1.6, -3.05)">
    <use ffdec:characterId="2" height="19.7" id="Color" transform="matrix(1.0, 0.0, 0.0, 1.0, 0.05, 3.05)" width="19.85" xlink:href="#sprite0"/>
    <use ffdec:characterId="3" height="22.6" transform="matrix(1.0, 0.0, 0.0, 1.0, -1.6, 3.05)" width="23.2" xlink:href="#shape1"/>
  </g>
  <defs>
    <g id="sprite0" transform="matrix(1.0, 0.0, 0.0, 1.0, 1.15, 0.0)">
      <use ffdec:characterId="1" height="19.7" transform="matrix(1.0, 0.0, 0.0, 1.0, -1.15, 0.0)" width="19.85" xlink:href="#shape0"/>
    </g>
    <g id="shape0" transform="matrix(1.0, 0.0, 0.0, 1.0, 1.15, 0.0)">
      <path d="M12.45 2.0 L14.35 3.9 Q15.6 5.45 14.9 6.9 L14.95 6.95 16.85 12.25 Q18.45 17.25 18.7 19.7 L-1.15 19.7 Q-1.0 17.15 0.75 12.1 2.15 7.95 2.8 6.75 L2.8 6.7 Q2.35 4.75 3.35 3.75 L5.1 2.1 6.8 0.0 11.0 0.0 11.65 1.05 12.45 2.0" fill="#ffffff" fill-rule="evenodd" stroke="none"/>
    </g>
    <g id="shape1" transform="matrix(1.0, 0.0, 0.0, 1.0, 1.6, -3.05)">
      <path d="M12.25 3.05 L12.5 3.5 9.45 3.5 9.35 4.65 9.3 4.95 7.95 6.2 7.05 7.45 6.8 8.0 6.6 8.8 Q6.6 9.65 7.05 10.15 L7.05 10.2 Q6.2 19.4 6.4 22.8 L5.8 22.8 Q5.7 20.7 6.1 15.3 L6.45 10.3 Q5.95 9.75 6.05 8.65 6.1 6.95 8.75 4.85 L8.8 4.55 8.9 3.5 7.65 3.5 7.95 3.05 8.95 3.05 9.5 3.05 12.25 3.05 M9.35 5.95 L9.5 6.35 9.35 6.75 9.3 6.8 8.95 6.9 8.55 6.75 8.4 6.35 8.4 6.25 8.55 5.95 Q8.7 5.8 8.95 5.8 9.2 5.8 9.35 5.95 M7.85 7.1 L8.0 7.05 Q8.25 7.05 8.4 7.2 L8.55 7.6 8.4 8.0 8.35 8.05 8.0 8.15 7.85 8.15 7.6 8.0 7.45 7.6 7.5 7.4 7.6 7.2 7.85 7.1" fill="#a30f0f" fill-rule="evenodd" stroke="none"/>
      <path d="M8.95 23.2 L10.9 23.2 14.2 23.2 17.2 23.15 20.05 23.15 20.1 23.15 21.6 23.9 Q21.1 24.9 20.45 24.95 19.8 24.95 19.35 24.45 18.85 23.9 18.6 23.95 18.3 24.0 18.15 24.6 L17.55 25.2 Q17.05 25.3 16.9 24.65 16.7 23.95 16.25 23.95 15.8 23.95 15.6 24.6 15.4 25.25 14.75 25.35 14.2 25.4 14.05 24.7 13.85 23.95 12.85 23.9 12.2 23.9 12.05 24.75 11.9 25.65 11.2 25.65 10.5 25.65 10.25 24.7 10.05 23.8 9.55 23.8 9.05 23.85 8.6 24.65 8.25 25.45 7.75 25.35 7.25 25.3 7.2 24.55 7.1 23.9 6.65 23.9 6.25 23.9 6.1 24.4 L5.3 25.05 Q4.65 25.15 4.25 24.55 3.9 24.0 3.5 24.05 2.85 24.15 2.8 24.9 2.75 25.5 1.8 25.4 1.3 25.35 1.2 25.05 1.05 24.75 1.3 24.4 1.7 23.7 1.3 23.65 0.9 23.55 0.2 24.3 -0.5 25.05 -1.15 24.9 -1.85 24.7 -1.5 24.05 -1.15 23.35 0.0 23.2 L3.9 23.2 8.95 23.2" fill="#000000" fill-opacity="0.29803923" fill-rule="evenodd" stroke="none"/>
      <path d="M19.45 20.0 L19.5 20.0 19.6 20.5 0.35 20.5 0.4 20.05 0.4 20.0 2.05 20.0 4.45 20.0 5.7 20.0 8.95 20.0 11.55 20.0 13.7 20.0 16.65 20.0 17.85 20.0 19.45 20.0 M19.75 21.1 L19.75 21.2 19.9 21.8 0.1 21.8 0.2 21.2 0.25 21.1 19.75 21.1 M20.0 22.3 L20.05 22.4 20.1 22.75 20.05 22.75 17.2 22.75 14.2 22.8 10.9 22.8 8.95 22.8 3.9 22.8 0.0 22.8 -0.1 22.8 0.0 22.4 0.0 22.3 20.0 22.3" fill="#ffffff" fill-rule="evenodd" stroke="none"/>
      <path d="M0.4 20.05 Q-1.25 19.05 -0.65 18.65 -0.1 18.25 0.1 18.3 0.55 18.45 0.9 18.85 1.15 19.1 1.15 18.55 1.2 17.75 1.7 17.65 2.45 17.55 2.55 18.25 2.7 19.05 3.1 19.1 L3.6 19.05 3.85 18.55 Q3.9 17.75 4.7 17.65 5.15 17.6 5.25 18.2 5.4 18.85 5.95 18.9 6.45 18.95 6.4 18.35 6.35 17.65 6.7 17.55 7.3 17.4 7.8 18.05 L8.55 19.1 Q8.8 19.25 8.9 18.25 8.95 17.15 9.65 17.4 10.35 17.65 10.4 18.5 10.45 19.2 10.95 19.15 11.45 19.1 11.7 18.3 11.95 17.5 12.75 17.6 13.5 17.7 13.35 18.4 13.2 19.15 13.9 19.15 14.65 19.2 14.4 18.2 14.15 17.3 14.85 17.45 15.65 17.65 15.65 18.4 15.65 19.0 16.1 19.0 16.6 19.0 16.75 18.15 16.9 17.45 17.55 17.7 18.25 17.95 18.25 18.35 18.25 18.75 18.55 18.8 18.85 18.85 19.15 18.35 19.45 17.85 20.45 18.2 21.45 18.5 19.45 20.0 L17.85 20.0 16.65 20.0 13.7 20.0 11.55 20.0 8.95 20.0 5.7 20.0 4.45 20.0 2.05 20.0 0.4 20.0 0.4 20.05 M19.6 20.5 L19.65 20.6 19.75 21.1 0.25 21.1 0.3 20.6 0.35 20.5 19.6 20.5 M19.9 21.8 L19.9 21.9 20.0 22.3 0.0 22.3 0.1 21.9 0.1 21.8 19.9 21.8" fill="#cc0000" fill-rule="evenodd" stroke="none"/>
      <path d="M20.45 24.55 Q19.8 24.55 19.35 24.05 18.85 23.5 18.6 23.55 18.3 23.6 18.15 24.2 L17.55 24.8 Q17.05 24.9 16.9 24.25 16.7 23.55 16.25 23.55 15.8 23.55 15.6 24.2 15.4 24.85 14.75 24.95 14.2 25.0 14.05 24.3 13.85 23.55 12.85 23.5 12.2 23.5 12.05 24.35 11.9 25.25 11.2 25.25 10.5 25.25 10.25 24.3 10.05 23.4 9.55 23.4 9.05 23.45 8.6 24.25 8.25 25.05 7.75 24.95 7.25 24.9 7.2 24.15 7.1 23.5 6.65 23.5 6.25 23.5 6.1 24.0 L5.3 24.65 Q4.65 24.75 4.25 24.15 3.9 23.6 3.5 23.65 2.85 23.75 2.8 24.5 2.75 25.1 1.8 25.0 1.3 24.95 1.2 24.65 1.05 24.35 1.3 24.0 1.7 23.3 1.3 23.25 0.9 23.15 0.2 23.9 -0.5 24.65 -1.15 24.5 -1.85 24.3 -1.5 23.65 -1.15 22.95 0.0 22.8 L3.9 22.8 8.95 22.8 10.9 22.8 14.2 22.8 17.2 22.75 20.05 22.75 20.1 22.75 21.6 23.5 Q21.1 24.5 20.45 24.55" fill="#cc0000" fill-rule="evenodd" stroke="none"/>
      <path d="M5.3 16.5 L6.6 18.45 7.65 20.55 Q8.0 21.45 7.55 22.25 7.05 23.05 5.45 23.5 L2.65 23.3 Q0.8 22.45 2.35 19.0 L2.35 18.15 2.4 16.9 2.4 16.75 3.75 18.55 5.05 18.35 5.25 17.25 5.3 16.5" fill="#ffcc00" fill-rule="evenodd" stroke="none"/>
      <path d="M3.5 21.0 L3.45 20.85 3.4 20.4 3.65 20.2 3.85 20.3 4.05 20.75 4.0 21.1 3.8 21.3 3.55 21.2 3.5 21.0 M5.6 19.9 L5.8 20.05 6.0 20.5 5.95 20.85 5.75 21.0 Q5.6 21.05 5.55 20.9 L5.4 20.7 5.4 20.55 5.4 20.1 5.6 19.9" fill="#000000" fill-rule="evenodd" stroke="none"/>
      <path d="M3.4 22.1 L3.2 22.35 2.8 22.6 2.25 22.5 2.0 22.05 2.1 21.5 Q2.3 21.3 2.6 21.25 L3.05 21.35 3.35 21.85 3.4 22.1 M6.3 21.7 L6.15 21.45 6.35 20.9 Q6.45 20.7 6.7 20.7 L7.3 20.75 7.5 21.3 7.45 21.75 6.9 22.05 6.5 21.9 6.3 21.7" fill="#ff6666" fill-rule="evenodd" stroke="none"/>
      <path d="M3.4 22.1 L3.7 22.6 4.3 22.7 4.65 22.45 4.9 22.2 4.95 22.4 5.5 22.55 5.9 22.25 6.3 21.7" fill="none" stroke="#a30f0f" stroke-linecap="round" stroke-linejoin="round" stroke-width="0.1"/>
      <path d="M13.0 5.2 L11.15 5.35 10.5 5.25 Q10.15 5.15 11.1 4.85 L12.15 4.6 14.3 4.2 13.0 5.2 M12.7 3.8 L11.2 4.5 9.35 4.65 8.7 4.55 7.2 4.0 7.65 3.5 9.45 3.5 12.5 3.5 12.7 3.8 M14.5 6.25 Q15.75 7.15 16.1 8.6 16.3 9.4 15.75 10.05 L15.8 10.0 18.7 18.6 19.9 18.8 Q20.6 18.6 19.75 19.45 18.85 20.25 19.25 21.3 L20.0 22.6 Q21.8 24.7 20.0 23.8 18.85 23.25 18.4 23.55 L17.6 24.3 14.4 10.8 Q15.15 10.7 15.65 10.2 13.25 11.25 9.95 9.55 8.2 10.45 6.7 10.5 L4.6 10.05 Q5.05 10.55 5.65 10.6 5.05 11.0 3.75 18.45 L2.4 16.7 Q2.45 18.75 1.95 20.25 1.45 21.75 1.85 22.6 L2.4 23.5 1.65 23.05 Q1.25 23.0 0.05 23.6 -1.75 24.5 0.05 22.4 L0.8 21.1 Q1.2 20.05 0.3 19.25 -0.6 18.35 0.15 18.6 L1.35 18.4 Q2.3 14.0 4.15 9.65 L4.05 9.3 Q3.65 7.6 5.35 6.35 4.7 7.4 5.05 8.05 5.4 8.7 6.6 8.9 10.05 9.5 13.5 8.9 14.3 8.75 14.7 8.2 L14.8 7.4 14.5 6.25 M6.4 4.95 L6.4 4.25 7.25 4.55 9.25 5.5 7.6 5.55 6.4 4.95" fill="#000000" fill-opacity="0.29803923" fill-rule="evenodd" stroke="none"/>
    </g>
  </defs>
</svg>
