<svg xmlns="http://www.w3.org/2000/svg" xmlns:ffdec="https://www.free-decompiler.com/flash" xmlns:xlink="http://www.w3.org/1999/xlink" ffdec:objectType="frame" width="8.4" height="10.65"><use ffdec:characterId="5" xlink:href="#a" width="8.4" height="10.65"/><defs><g id="a" fill-rule="evenodd"><path fill="#ff7f7e" d="M4.8 3.85 8.4 9q-.75 2.6-2.4 1.05Q2.2 3.05.05.3 0 .05 1.3.3q.9.2 3.5 3.55"/><path fill="#fff" d="M0 0h.25L1.3.3l1.35.25 1.4-.4.4 1.5q0 .4.5.75t.6 1.35T4.8 5.3l-1.1.75-.4-.4.1-.1Q2.35 4.5.95 1.85L0 .25z"/><path fill-opacity=".2" d="M.85.05.9.1l1.25.75.8.45 1.65.75.2.2-.75-.1-.7-.15.55.5 1.15 1.3.5.8-.45.6-.45.2-.15.1-.65.6-.2.05-.3-.85-.8-2-.6-1.2L1.2.65z"/></g></defs></svg>