<svg xmlns="http://www.w3.org/2000/svg" xmlns:ffdec="https://www.free-decompiler.com/flash" xmlns:xlink="http://www.w3.org/1999/xlink" ffdec:objectType="frame" width="34.55" height="42.9"><use ffdec:characterId="3" xlink:href="#a" width="34.55" height="42.9"/><defs><g id="a" fill-rule="evenodd"><path fill="#299fc6" d="M23.8 21.25q1.05.25.55 1.5-.55 1.6-.6 2.15t.2.75q-.55-.15-.75-2.85l-.05-1.6zm-13.2 0 .65-.05-.1 1.6q-.2 2.75-.7 2.85h-.05q.3-.2.25-.75L10 22.75q-.45-1.25.6-1.5m15.1 4.95.55.45q1 1 .2 2.4-.3.5-.1.9l-.05-.05q-.4-.45-.5-2.5zM8.75 39.9l.05-.1q.6-1.2-1.15-4-1.9-3-1.85-3.5.05-.7 1.25-1.45l1.25 3.5q1.3 4.05.75 5.1zm-.6-13.25.55-.45-.1 1.2q-.1 2.05-.5 2.5l-.1.15-.05-1q-.8-1.4.2-2.4m17.95 7.7 1.25-3.5q1.15.8 1.2 1.45.05.45-2.1 3.7-1.3 2-1.2 3.1-.2-1.3.85-4.75"/><path fill="#8cdfff" d="m19.85 7.6-.15-.5.8-.4.5-.1 1.2-.05.45.1.35.4q.9 1.15 1.8 3.85l2 7.15L30 30.3q2.5 9.2 4.55 12.55l-4.35-.9-3.15-1.15-1.5-1-.05-.05-.25-.65q-.1-1.1 1.2-3.1 2.15-3.25 2.1-3.7-.05-.65-1.2-1.45l-.25-.15-.75-.75q-.2-.4.1-.9.8-1.4-.2-2.4l-.55-.45q-.6-.4-1.35-.4l-.4-.15q-.25-.2-.2-.75t.6-2.15q.5-1.25-.55-1.5l-.65-.05q-.9.1-1.9.8l.05-.15.05-1.9-.05-.95-.05-1.05-.05-.7-.1-1.2-.1-.9-.05-.3-.05-.65-.1-1.05-.15-1.15-.15-1.05-.15-1-.1-.65-.15-.65zm-8.1-.95.55-.1 1.65.1.75.45v.1l-.15.5-.2.85-.15.55-.05.25-.1.65-.15.95-.1 1.05-.15 1.2-.1.95-.1.7-.05.65-.05.65-.15 1.45-.05.65-.05.75q-.1 2.25.05 3-1.05-.7-1.9-.8l-.65.05q-1.05.25-.6 1.5l.65 2.15q.05.55-.25.75l-.4.15q-.7 0-1.3.4l-.55.45q-1 1-.2 2.4l.05 1-.75.65-.2.15q-1.2.75-1.25 1.45-.05.5 1.85 3.5 1.75 2.8 1.15 4l-.05.1q-.8 1.6-3.2 2.5l-4.6.15-.95-.4.95-1.45q1.75-3.1 3.25-9l3.15-12.75L9.5 11.5q1.2-3.75 2.2-4.75z"/><path fill="#00538e" d="m19.35 1.2 1 1.2L23 7.05l-.35-.4-.45-.1-1.25-2.25-.6-1.05L19 1.2zm.7 5.75q-.15.05-.35.15l.15.5-1.85.5 2.1.55.15.65.1.65-1.9.5 1.9.45.15.05.15 1.05-2.2.55 2.35.6.1 1.05-1.95.5 2.05.45.1.9-2.35.65 2.45.55.05.7-3.3-.75 1.65 1.25.65.55.1.1 1 .85-.05 1.9-.95.2-1.35.05q-.25-.2-.6-1.4l.65 5.8-.65.55-.35-5.2L17.7 19l-.2-1.35h-.1L15.9 26q-.1.55-.65-.75-.05-.9.85-4.35l.05-.15-.25.5-.8.65-.8.3-.5-1.05-.35-1.3q0-.2.85-.85l.9-.7 1.55-1.05-3.6 1 .05-.65 2.95-.85-2.7-.6h-.1l.05-.65 2.75-.75-2.6-.6.1-.95 2.3-.65L13.8 12l.1-1.05 1.95-.5-1.8-.45.1-.65 3 .75 3.1-.8-3.3-.9-2.75.7.15-.55 1.55-.45-1.35-.4.15-.5 2.2.6 3.15-.9zm-4.9-5.75h.35q-.35.2-1.95 3.1L12.3 6.55l-.55.1-.05.1q2.55-4.9 3.45-5.55m2 11.05 2.75-.75-2.8-.7-2.85.7zm-2.9 1.4 3.3.75 2.7-.7-3.05-.8zm2.85 4-.3-.25-1.1.9-.8.7-.9.95q-.1.3.15.9t.45.65l1-.8.85-1.55.1-.15.3-.7zm.4-2.55-2.75.7 2.65.6 2.65-.7zm.45 2.25-.25.25.3 1.05.15.35 1.15 2.55.65.1.4-.05.4-.2.15-.55-.1-.65-.45-.55-.65-.65-.35-.3z"/><path fill="#69c2fa" d="M16.75 17.25 15.2 18.3l-.9.7h-1.2l.05-.75zm-2.5-3.6 2.95-.75 3.05.8-2.7.7zm1.6-3.2-1.95.5.15-.95zm1.3 1.8-2.9-.75 2.85-.7 2.8.7zM13.8 12l2.15.55-2.3.65zm-.4 3.5.05-.65.1-.7 2.6.6zm-.05.65h.1l2.7.6-2.95.85zm.8-6.8.05-.25 2.75-.7 3.3.9-3.1.8zm.2-.8.2-.85 1.35.4zm5.5-.95.25 1.05L18 8.1zM18.3 6.1l.15-.2 1.75-.3-1.45.05V5.6l-.5-.05q.4-.3 1.85-.7l-1.1.2-1.1.4v.05l-.15-.05-.35-.65q.9-.4 2.25-.7l1.65-.25 1 .85.75.8v1.55l-2.75.3-1.4-.1-2 .55-1.85-.5-.8.05-2.75-.3q-.15-1.35 0-1.55l.75-.85q.65-.65 1-.8 3.25.55 3.9 1l-.3.55-.95-.35-1.1-.2q1.3.35 1.8.65l-.75.1H14.7l1.25.2.35.35 1.8.15h.25l1.6.15q-.35-.25-1.65-.35m-1.45 12.2-.3.7H14.9l.8-.7 1.1-.9.3.25zm3.65-7.35-.15-.05-1.9-.45 1.9-.5zm.3 2.2-2.35-.6 2.2-.55zm.2 2-2.05-.45 1.95-.5.05.65zm-3.5-.05 2.55.6-2.65.7-2.65-.6zm3.8 3.9h-1.05l-.65-.55-1.65-1.25 3.3.75zm-3.9-1.35h.1l.2 1.35h-.55zm.55-.3 1.4 1.35.35.3h-1.55l-.15-.35-.3-1.05zm3.25-.1-2.45-.55 2.35-.65z"/><path fill="#2ca6e9" d="m18.45 5.9.3-.25 1.45-.05zm-.55-.4v-.05l1.1-.4 1.1-.2q-1.45.4-1.85.7zm-1.6.65.15.15-1.5.15zm-.55-.55.2.2-1.25-.2h1.15zm-.95-.75 1.1.2.95.35-.05.05-.2.05q-.5-.3-1.8-.65m3.55 1.45h-.25l.2-.2q1.3.1 1.65.35z"/><path fill="#174caa" d="M20.8.3q-.4.2-.2.65l.5 1q.15.4-.15.65-.3.3-1.8 0l-1.4-.45-.4.3-.25-.25q-.05-.15-.25.2l-.3-.25-1.35.45q-1.5.3-1.85 0-.3-.25-.1-.65l.45-1q.2-.45-.2-.65-.2-.15.15-.25.9-.3 2.95.85.2-.4.45-.3l.2.1.2.05.35-.1.1.15q1.9-1.05 2.8-.75.35.1.1.25m-1.75 1.5-.5-.05-.6-.25 1.1-.45-1.2.1-.05.65.45.1zm-2.6.05.05-.7-1.2-.1 1.05.45-1.05.3.75.1z"/><path fill="#001658" d="m19.05 1.8-.8.1-.45-.1.05-.65 1.2-.1-1.1.45.6.25zm-2.55-.65-.05.7-.4.05-.75-.1 1.05-.3-1.05-.45z"/><path fill="#fc0" d="m18.2 7.35-.95-.45-.9.45.15-1-.75-.75h.1l.95-.15.05-.05.4-.85.5.9 1 .15-.75.75zm-2.15-1.7 1.2.3-.05-1.15-.35.8z"/><path fill="#f9e27d" d="m16.05 5.65.8-.05.35-.8.05 1.15z"/></g></defs></svg>