<?xml version="1.0" encoding="UTF-8" standalone="no"?>
<svg xmlns:ffdec="https://www.free-decompiler.com/flash" xmlns:xlink="http://www.w3.org/1999/xlink" ffdec:objectType="frame" height="31.55px" width="18.3px" xmlns="http://www.w3.org/2000/svg">
  <g transform="matrix(1.0, 0.0, 0.0, 1.0, 0.4, -1.5)">
    <use ffdec:characterId="3" height="31.55" transform="matrix(1.0, 0.0, 0.0, 1.0, -0.4, 1.5)" width="18.3" xlink:href="#shape0"/>
  </g>
  <defs>
    <g id="shape0" transform="matrix(1.0, 0.0, 0.0, 1.0, 0.4, -1.5)">
      <path d="M13.65 25.95 L13.6 25.7 13.6 25.95 13.65 25.95 M13.45 24.95 L13.65 24.7 14.35 26.25 14.7 27.35 14.85 28.1 14.75 28.15 14.3 28.6 14.0 28.45 13.9 28.55 13.7 28.6 Q13.45 28.6 12.85 27.1 12.85 25.3 13.25 25.05 L13.55 25.5 13.45 24.95 M11.95 28.25 Q11.95 27.35 12.3 28.0 L12.75 29.25 12.95 30.35 13.1 31.15 12.65 31.6 Q12.4 31.6 12.4 31.25 L12.15 31.2 11.95 31.45 11.75 31.25 11.55 31.35 11.2 31.15 11.0 31.35 10.7 30.55 10.65 30.3 10.55 29.65 10.7 29.25 Q10.85 28.9 11.05 28.9 L11.35 29.2 11.55 28.95 11.8 29.3 11.85 29.2 12.2 29.2 12.2 28.9 11.95 28.25 M2.25 29.9 L2.15 28.85 2.25 28.55 Q2.4 28.35 2.6 28.8 2.7 28.7 2.75 28.7 2.95 28.7 3.0 29.05 L3.2 28.9 3.4 29.2 3.6 29.0 Q4.05 29.0 4.45 30.5 L4.35 30.6 4.05 30.7 3.6 30.95 3.4 30.8 2.95 31.25 2.75 31.1 2.55 31.4 2.25 29.9" fill="#ffffff" fill-rule="evenodd" stroke="none"/>
      <path d="M10.7 30.3 L10.65 30.2 10.6 30.35 10.45 28.65 8.75 19.9 7.7 14.15 7.7 13.95 7.65 13.7 8.95 13.9 9.15 14.05 Q9.25 13.9 9.5 13.85 L10.45 16.0 Q11.3 18.4 11.45 20.8 L11.85 24.9 12.1 27.05 12.5 29.5 10.7 30.3 M8.25 13.4 Q8.4 13.75 7.65 13.65 7.55 12.8 7.7 12.8 L7.75 12.8 8.25 13.4 M6.5 12.95 L6.7 13.95 6.6 14.3 6.35 14.05 Q6.15 14.05 6.15 14.2 L6.15 14.35 6.3 14.9 6.65 15.4 7.0 15.05 7.15 15.7 Q8.75 21.6 9.2 24.55 L10.05 29.85 10.45 32.3 10.55 32.75 9.2 33.05 7.8 33.05 6.1 32.65 6.0 32.6 5.9 29.2 5.65 24.85 4.95 19.85 Q4.45 17.2 4.4 14.55 L4.0 14.9 Q3.55 15.45 2.9 15.4 L3.4 18.25 3.65 22.2 3.8 26.15 4.05 30.05 3.3 29.75 1.1 29.7 Q0.6 29.6 0.6 29.4 2.4 21.15 2.4 19.7 L2.1 16.75 2.55 15.5 2.8 14.8 3.15 14.1 Q3.3 13.9 3.65 13.65 3.85 13.4 4.25 13.25 L4.75 13.1 5.2 13.0 6.05 13.0 6.4 12.95 6.5 12.95 M10.05 13.8 L10.5 13.9 10.95 14.05 9.55 13.15 10.65 13.25 11.45 13.95 Q12.0 14.4 12.4 15.45 L13.65 18.65 Q14.15 19.9 16.1 22.6 L17.9 25.15 17.9 25.2 Q17.4 26.1 15.0 26.7 13.4 27.05 13.25 27.75 L13.2 27.8 13.25 27.8 13.3 27.9 13.2 27.9 13.2 27.8 13.1 26.85 13.05 22.65 Q12.9 20.75 12.3 18.9 L11.35 16.45 10.05 13.8" fill="url(#gradient0)" fill-rule="evenodd" stroke="none"/>
      <path d="M8.95 13.9 L7.65 13.7 7.7 13.95 7.7 14.15 8.75 19.9 10.45 28.65 10.6 30.35 10.65 30.2 10.7 30.3 11.9 30.75 Q13.1 30.95 13.1 31.2 13.1 32.0 12.0 32.35 L10.55 32.75 10.45 32.3 10.05 29.85 9.2 24.55 Q8.75 21.6 7.15 15.7 L7.0 15.05 6.65 15.4 6.3 14.9 6.15 14.35 6.15 14.2 Q6.15 14.05 6.35 14.05 L6.6 14.3 6.7 13.95 6.5 12.95 Q5.9 10.25 6.8 11.5 L7.7 12.8 Q7.55 12.8 7.65 13.65 8.4 13.75 8.25 13.4 L8.3 13.45 8.35 13.45 8.95 13.9 M12.5 29.5 L12.1 27.05 11.85 24.9 11.45 20.8 Q11.3 18.4 10.45 16.0 L9.5 13.85 10.05 13.8 11.35 16.45 12.3 18.9 Q12.9 20.75 13.05 22.65 L13.1 26.85 13.2 27.8 13.2 27.9 13.3 27.9 13.35 28.0 14.8 28.2 Q14.7 28.75 12.75 29.4 L12.5 29.5 M4.05 30.05 L3.8 26.15 3.65 22.2 3.4 18.25 2.9 15.4 Q3.55 15.45 4.0 14.9 L4.4 14.55 Q4.45 17.2 4.95 19.85 L5.65 24.85 5.9 29.2 6.0 32.6 5.35 32.25 4.55 31.95 3.05 31.75 2.4 31.6 2.25 31.35 Q2.25 30.95 2.75 30.6 3.2 30.25 3.75 30.15 L3.85 30.15 4.0 30.1 Q3.95 30.0 4.05 30.05" fill="url(#gradient1)" fill-rule="evenodd" stroke="none"/>
      <path d="M0.6 1.7 L1.45 1.55 Q3.3 1.3 4.55 3.4 L8.3 9.05 11.6 13.9 12.15 14.8 11.85 14.6 10.45 13.95 9.35 13.8 Q8.0 12.2 7.1 10.65 L3.3 4.9 Q3.4 5.5 4.25 7.0 L6.15 10.15 7.7 12.35 8.2 13.05 8.3 13.15 8.45 13.75 8.15 14.35 7.35 14.85 7.25 14.85 Q7.4 14.75 7.6 14.6 L8.35 13.7 Q8.35 13.35 7.95 13.15 L7.5 13.3 6.4 14.05 4.5 14.85 Q2.8 15.65 2.25 18.25 L2.2 18.2 1.9 16.3 Q2.8 14.9 3.95 14.45 L5.35 13.9 6.85 13.35 6.8 12.95 5.45 10.6 2.9 6.35 0.6 1.7" fill="#ffffff" fill-rule="evenodd" stroke="none"/>
      <path d="M12.15 14.8 L12.25 15.1 Q11.45 14.25 9.55 14.25 L9.5 14.25 9.4 14.25 8.7 14.35 Q7.85 14.45 7.3 14.95 L6.85 15.35 6.45 15.6 Q6.25 15.65 6.35 15.1 7.25 14.55 7.7 13.8 4.65 15.0 3.7 15.75 2.65 16.55 2.45 17.65 L2.25 18.4 2.25 18.25 Q2.8 15.65 4.5 14.85 L6.4 14.05 7.5 13.3 7.95 13.15 Q8.35 13.35 8.35 13.7 L7.6 14.6 Q7.4 14.75 7.25 14.85 L7.35 14.85 8.15 14.35 8.45 13.75 8.3 13.15 8.2 13.05 7.7 12.35 6.15 10.15 4.25 7.0 Q3.4 5.5 3.3 4.9 L7.1 10.65 Q8.0 12.2 9.35 13.8 L10.45 13.95 11.85 14.6 12.15 14.8 M1.9 16.3 L1.85 16.15 1.65 14.1 1.1 10.9 0.45 7.35 -0.2 5.5 -0.4 3.9 Q-0.4 2.9 0.0 2.35 L0.6 1.7 2.9 6.35 5.45 10.6 6.8 12.95 6.85 13.35 5.35 13.9 3.95 14.45 Q2.8 14.9 1.9 16.3 M2.25 18.4 L2.2 18.4 2.2 18.35 2.25 18.4" fill="#cccccc" fill-rule="evenodd" stroke="none"/>
    </g>
    <radialGradient cx="0" cy="0" gradientTransform="matrix(0.0137, 0.0, 0.0, 0.0137, 9.25, 23.0)" gradientUnits="userSpaceOnUse" id="gradient0" r="819.2" spreadMethod="pad">
      <stop offset="0.13725490196078433" stop-color="#bd5c00"/>
      <stop offset="0.7529411764705882" stop-color="#ffca64"/>
    </radialGradient>
    <radialGradient cx="0" cy="0" gradientTransform="matrix(0.0137, 0.0, 0.0, 0.0137, 9.25, 23.0)" gradientUnits="userSpaceOnUse" id="gradient1" r="819.2" spreadMethod="pad">
      <stop offset="0.0" stop-color="#bf7228"/>
      <stop offset="0.8627450980392157" stop-color="#982900"/>
    </radialGradient>
  </defs>
</svg>
