<?xml version="1.0" encoding="UTF-8" standalone="no"?>
<svg xmlns:ffdec="https://www.free-decompiler.com/flash" xmlns:xlink="http://www.w3.org/1999/xlink" ffdec:objectType="frame" height="28.9px" width="24.9px" xmlns="http://www.w3.org/2000/svg">
  <g transform="matrix(1.0, 0.0, 0.0, 1.0, 2.4, -3.0)">
    <use ffdec:characterId="1" height="17.2" transform="matrix(1.0, 0.0, 0.0, 1.0, -0.55, 8.65)" width="21.05" xlink:href="#shape0"/>
    <clipPath id="clipPath0" transform="matrix(1.0, 0.0, 0.0, 1.0, 0.0, 0.0)">
      <path d="M20.5 23.85 L20.35 24.3 20.2 24.45 19.6 24.7 19.45 24.7 17.15 25.25 12.0 25.85 9.3 25.7 6.6 25.55 Q2.9 25.55 1.1 24.55 L0.6 24.2 -0.55 23.2 -0.3 22.3 -0.45 22.05 -0.3 20.95 1.0 16.5 1.0 16.4 1.05 16.35 1.1 16.35 1.15 16.35 2.65 16.35 3.15 16.2 3.45 16.0 3.65 15.6 Q3.65 15.0 3.0 14.95 L1.85 14.95 3.3 12.95 3.4 12.8 Q5.45 9.95 6.7 9.15 7.45 8.65 8.65 8.65 L12.05 8.65 Q13.25 8.65 14.0 9.15 15.25 9.95 17.3 12.8 L17.5 13.05 17.95 14.3 18.0 14.4 18.15 14.75 Q18.15 15.1 18.5 15.9 L19.3 18.6 19.7 20.15 19.95 20.85 20.15 21.85 Q20.3 22.5 20.55 22.75 L20.35 22.95 20.5 23.85" fill="#fef3d5" fill-rule="evenodd" stroke="none"/>
    </clipPath>
    <g clip-path="url(#clipPath0)">
      <use ffdec:characterId="4" height="36.3" transform="matrix(0.138, 0.0, 0.0, 0.138, 0.2932, 16.9949)" width="35.65" xlink:href="#sprite0"/>
      <use ffdec:characterId="4" height="36.3" transform="matrix(0.138, 0.0, 0.0, 0.138, 3.6932, 17.0949)" width="35.65" xlink:href="#sprite0"/>
      <use ffdec:characterId="4" height="36.3" transform="matrix(0.138, 0.0, 0.0, 0.138, 6.9432, 17.1449)" width="35.65" xlink:href="#sprite0"/>
      <use ffdec:characterId="4" height="36.3" transform="matrix(0.138, 0.0, 0.0, 0.138, 10.0432, 16.9449)" width="35.65" xlink:href="#sprite0"/>
      <use ffdec:characterId="4" height="36.3" transform="matrix(0.138, 0.0, 0.0, 0.138, 13.1932, 16.6949)" width="35.65" xlink:href="#sprite0"/>
      <use ffdec:characterId="4" height="36.3" transform="matrix(0.138, 0.0, 0.0, 0.138, 16.2932, 16.7449)" width="35.65" xlink:href="#sprite0"/>
      <use ffdec:characterId="4" height="36.3" transform="matrix(0.138, 0.0, 0.0, 0.138, 2.4932, 12.3949)" width="35.65" xlink:href="#sprite0"/>
      <use ffdec:characterId="4" height="36.3" transform="matrix(0.138, 0.0, 0.0, 0.138, 5.8932, 12.0949)" width="35.65" xlink:href="#sprite0"/>
      <use ffdec:characterId="4" height="36.3" transform="matrix(0.138, 0.0, 0.0, 0.138, 9.1432, 12.0949)" width="35.65" xlink:href="#sprite0"/>
      <use ffdec:characterId="4" height="36.3" transform="matrix(0.138, 0.0, 0.0, 0.138, 12.2432, 12.0449)" width="35.65" xlink:href="#sprite0"/>
      <use ffdec:characterId="4" height="36.3" transform="matrix(0.138, 0.0, 0.0, 0.138, 15.3932, 12.0449)" width="35.65" xlink:href="#sprite0"/>
    </g>
    <use ffdec:characterId="5" height="22.4" transform="matrix(1.0, 0.0, 0.0, 1.0, -1.05, 4.1)" width="21.9" xlink:href="#shape3"/>
    <clipPath id="clipPath1" transform="matrix(1.0, 0.0, 0.0, 1.0, 0.0, 0.0)">
      <path d="M16.9 6.1 L17.15 7.35 Q17.75 10.15 17.95 12.45 L18.15 13.6 18.3 14.1 18.3 14.15 18.4 14.65 18.7 15.7 18.9 16.2 19.1 16.85 Q20.1 19.6 20.0 21.05 L20.0 21.1 20.0 21.35 Q18.95 21.4 18.25 20.75 L17.15 19.3 16.65 19.4 16.25 19.5 Q15.65 19.5 15.1 18.9 L14.65 18.15 14.55 17.85 14.55 17.7 14.5 17.45 14.05 17.55 Q13.25 17.55 12.95 17.15 12.65 16.85 12.45 15.9 L12.35 15.85 11.9 16.0 Q11.2 16.0 10.95 14.9 L10.85 13.55 10.8 13.2 10.8 13.0 10.8 12.95 10.85 12.85 10.7 12.75 10.15 12.05 10.05 11.85 10.0 11.75 9.85 11.45 9.8 11.5 9.6 11.85 9.05 12.55 8.9 12.65 8.95 12.75 8.95 13.0 8.9 13.35 8.8 14.7 Q8.55 15.8 7.85 15.8 L7.4 15.65 7.3 15.7 6.8 16.95 Q6.5 17.35 5.7 17.35 L5.25 17.25 5.2 17.5 5.2 17.65 5.1 17.95 4.65 18.7 Q4.1 19.3 3.5 19.3 L3.1 19.2 2.6 19.1 1.5 20.55 Q0.85 21.2 -0.2 21.15 L-0.25 21.15 0.05 19.2 Q0.45 17.5 1.1 16.0 1.8 14.45 2.05 12.7 L2.75 8.9 3.4 5.25 3.5 5.2 3.6 5.15 3.8 5.0 Q4.95 4.3 5.8 4.1 6.9 6.0 10.1 6.55 L10.15 6.65 10.25 6.65 Q12.95 6.0 13.95 4.3 L14.2 4.2 16.3 5.2 Q16.75 5.4 16.9 6.1" fill="#882039" fill-rule="evenodd" stroke="none"/>
    </clipPath>
    <g clip-path="url(#clipPath1)">
      <use ffdec:characterId="7" height="14.0" transform="matrix(1.0, 0.0, 0.0, 1.0, -2.4, 6.95)" width="24.9" xlink:href="#shape5"/>
    </g>
    <use ffdec:characterId="8" height="28.9" transform="matrix(1.0, 0.0, 0.0, 1.0, 1.55, 3.0)" width="16.9" xlink:href="#shape6"/>
  </g>
  <defs>
    <g id="shape0" transform="matrix(1.0, 0.0, 0.0, 1.0, 0.55, -8.65)">
      <path d="M20.35 24.3 L20.2 24.45 19.6 24.7 19.45 24.7 17.15 25.25 12.0 25.85 9.3 25.7 6.6 25.55 Q2.9 25.55 1.1 24.55 L0.6 24.2 -0.55 23.2 -0.35 22.5 -0.3 22.4 -0.25 22.2 -0.25 22.15 -0.25 22.1 -0.25 22.05 -0.05 21.3 0.0 21.3 0.1 20.85 0.15 20.45 Q0.2 19.95 0.45 19.9 L0.75 20.2 0.85 20.5 0.85 20.6 0.85 20.65 0.75 21.25 0.85 21.2 1.55 16.5 1.35 15.7 2.15 14.55 2.3 14.55 2.45 14.5 2.55 14.5 2.75 14.55 3.3 14.35 3.55 14.0 3.45 13.9 3.3 14.0 3.25 13.95 3.05 14.05 3.0 14.0 2.75 14.2 2.6 14.2 2.55 14.2 2.45 14.15 2.5 14.05 3.4 12.8 Q5.45 9.95 6.7 9.15 7.45 8.65 8.65 8.65 L12.05 8.65 Q13.25 8.65 14.0 9.15 15.25 9.95 17.3 12.8 L17.5 13.05 17.95 14.3 17.95 14.45 18.15 15.05 18.2 15.35 Q18.05 15.5 18.05 15.8 L18.0 15.95 18.1 16.25 18.5 16.5 18.5 16.55 18.9 18.05 19.15 18.75 19.15 18.95 19.3 20.2 19.6 20.5 19.85 20.75 19.9 20.95 20.0 21.45 20.15 22.0 20.15 22.05 20.5 23.85 20.35 24.3" fill="#fef3d5" fill-rule="evenodd" stroke="none"/>
    </g>
    <g id="sprite0" transform="matrix(1.0, 0.0, 0.0, 1.0, 23.6, 23.95)">
      <use ffdec:characterId="3" height="36.3" transform="matrix(1.0, 0.0, 0.0, 1.0, -23.6, -23.95)" width="35.65" xlink:href="#shape2"/>
    </g>
    <g id="shape2" transform="matrix(1.0, 0.0, 0.0, 1.0, 23.6, 23.95)">
      <path d="M1.75 5.25 L2.45 5.45 3.7 6.4 4.5 7.35 Q6.55 10.95 7.8 12.2 L7.5 12.35 3.4 12.35 Q0.9 11.55 -0.85 9.35 L-1.65 7.85 -2.0 6.15 -2.0 5.65 -0.8 5.65 1.75 5.25 M12.05 -1.7 L12.05 -1.4 Q7.95 5.95 5.45 5.95 L4.2 5.95 2.45 5.2 2.0 5.05 Q3.15 4.55 4.15 3.6 5.85 2.05 6.8 -0.35 9.5 0.05 12.05 -1.7 M3.2 -0.8 L3.95 -1.65 Q4.95 -2.55 5.5 -4.35 L6.2 -1.55 6.1 -1.2 Q5.8 0.2 5.15 1.05 L3.5 3.25 3.35 3.4 2.9 3.75 0.6 4.65 -0.6 4.9 -1.0 4.9 -1.05 4.9 -2.7 4.75 -3.2 4.6 -4.3 3.5 -5.25 1.65 -5.35 1.05 -4.6 1.3 -4.45 1.35 -2.65 1.8 Q-0.6 1.8 1.25 0.45 L3.2 -0.8 M0.8 -2.3 L1.5 -2.5 Q1.95 -2.6 2.2 -2.85 L3.0 -3.25 0.15 -4.05 -2.95 -3.75 -4.65 -3.1 -5.95 -2.5 Q-5.75 -1.8 -5.0 -1.55 L-4.35 -1.4 -3.3 -1.4 Q-1.75 -1.4 -0.3 -2.0 L0.8 -2.3 M3.6 -4.4 L3.85 -3.7 3.5 -2.9 3.05 -2.3 2.4 -1.35 2.25 -1.2 1.65 -0.4 0.05 0.55 -0.1 0.7 -0.7 0.85 -2.75 1.15 -3.65 1.1 -5.3 -0.2 -6.6 -2.0 -6.75 -3.3 -6.8 -3.9 -5.05 -6.45 -5.0 -6.5 -4.1 -7.0 -1.35 -7.6 1.35 -7.15 2.95 -5.55 3.6 -4.4 M2.8 -11.7 Q4.25 -10.55 4.75 -9.05 L4.75 -6.4 4.25 -5.0 3.9 -5.6 3.15 -6.75 2.05 -7.9 0.4 -8.85 -1.15 -9.05 Q-2.7 -8.9 -3.95 -8.2 L-4.4 -8.0 -4.85 -7.7 -6.15 -6.3 -7.25 -4.85 -7.5 -6.95 Q-7.4 -8.95 -6.9 -10.2 L-6.4 -11.15 -5.25 -12.45 Q-4.15 -13.25 -1.6 -13.25 0.95 -13.25 2.8 -11.7 M-23.5 -18.65 Q-23.05 -20.6 -21.0 -22.1 -20.2 -22.7 -17.45 -23.65 L-15.9 -23.9 -14.35 -23.95 -12.25 -23.25 -12.95 -23.05 -13.0 -23.05 -14.65 -22.4 -15.4 -21.9 -17.1 -20.35 -18.75 -18.55 -19.95 -16.5 -21.1 -13.7 -21.2 -11.3 -21.25 -11.3 -21.25 -10.85 -21.95 -11.7 -22.55 -12.85 Q-23.9 -16.8 -23.5 -18.65 M-11.7 -1.3 Q-11.7 -2.3 -10.9 -5.05 L-10.15 -6.45 -9.25 -7.75 -7.5 -9.05 -7.5 -9.0 -7.7 -8.35 -7.75 -8.3 -8.2 -6.55 -8.25 -5.7 -8.0 -3.4 -7.5 -1.0 -6.55 1.2 -4.95 3.75 -3.1 5.25 -3.1 5.3 -2.7 5.55 -3.85 5.6 -5.1 5.45 Q-9.1 4.2 -10.4 2.8 -11.7 1.25 -11.7 -1.3 M-16.85 -16.85 L-16.55 -16.2 -15.95 -15.35 Q-15.05 -14.1 -13.75 -13.35 L-12.85 -12.6 -12.25 -12.15 Q-11.9 -11.85 -11.55 -11.8 L-10.75 -11.35 -11.75 -14.2 -13.85 -16.5 -15.4 -17.45 -16.65 -18.15 Q-17.1 -17.6 -16.85 -16.85 M-9.8 -17.45 Q-8.85 -16.15 -8.55 -15.0 -8.55 -13.85 -8.9 -12.75 L-9.5 -11.6 -9.9 -10.95 -10.75 -10.75 -11.5 -10.8 -12.65 -10.75 -12.9 -10.8 -13.9 -10.8 Q-14.85 -11.05 -15.55 -11.55 L-15.75 -11.6 -16.25 -11.95 -17.7 -13.4 -18.2 -14.2 Q-18.35 -15.15 -18.1 -16.3 L-17.45 -18.45 -16.45 -19.3 -16.0 -19.7 -12.9 -19.8 -12.85 -19.75 -11.9 -19.3 Q-10.45 -18.35 -9.8 -17.45 M-8.2 -23.45 Q-6.9 -23.05 -5.4 -21.0 -3.9 -18.95 -4.05 -16.55 -4.1 -14.65 -5.05 -13.35 -6.1 -12.4 -7.15 -11.8 L-8.6 -11.4 -8.3 -12.05 Q-7.9 -12.9 -7.85 -13.3 L-7.55 -14.9 Q-7.5 -15.55 -7.75 -16.8 L-8.55 -18.15 Q-9.55 -19.35 -10.8 -19.9 L-11.3 -20.15 -11.75 -20.35 -13.65 -20.6 -15.5 -20.6 -13.95 -22.05 Q-12.25 -23.15 -10.95 -23.5 L-9.9 -23.65 -8.2 -23.45 M-20.6 -11.3 L-20.75 -11.8 -20.55 -13.35 -19.6 -15.2 -19.15 -15.65 -18.9 -14.85 -18.85 -14.7 Q-18.6 -13.6 -18.15 -13.0 -16.95 -11.35 -14.75 -10.65 L-12.6 -9.75 -11.5 -9.65 -8.4 -10.0 Q-9.65 -8.3 -10.25 -7.8 L-10.6 -7.65 Q-11.9 -7.1 -12.95 -7.15 -14.8 -7.0 -15.75 -7.15 L-15.9 -7.15 -18.05 -8.35 -19.65 -9.75 -19.7 -9.8 -19.95 -10.15 -20.6 -11.3" fill="#d5ccb2" fill-rule="evenodd" stroke="none"/>
    </g>
    <g id="shape3" transform="matrix(1.0, 0.0, 0.0, 1.0, 1.05, -4.1)">
      <path d="M0.7 22.35 L2.05 22.4 2.8 22.9 Q3.3 23.3 4.1 23.3 L4.95 23.1 5.95 22.85 6.7 23.05 7.5 23.4 8.3 23.4 9.2 23.2 10.1 23.3 10.45 23.5 10.5 23.5 10.9 23.3 11.8 23.2 12.7 23.4 13.5 23.4 14.3 23.05 15.05 22.85 16.0 23.1 16.85 23.3 18.2 22.9 Q18.9 22.4 18.95 22.4 L19.95 22.35 20.0 22.65 18.95 22.65 18.2 23.2 16.85 23.6 15.9 23.35 15.3 23.1 14.9 23.1 14.3 23.4 13.45 23.7 12.7 23.7 11.8 23.45 11.05 23.6 10.5 23.8 10.45 23.8 9.95 23.6 9.2 23.45 Q8.55 23.45 8.3 23.7 L7.55 23.7 6.7 23.4 6.1 23.1 5.65 23.1 5.1 23.35 4.1 23.6 Q3.35 23.6 2.8 23.2 L2.05 22.65 0.65 22.6 -0.25 22.3 -0.25 22.15 -0.2 21.95 0.7 22.35 M0.65 22.05 L-0.15 21.8 -0.1 21.45 0.7 21.8 2.05 21.85 2.8 22.35 Q3.3 22.75 4.1 22.75 L4.95 22.55 6.0 22.3 6.75 22.5 7.55 22.85 8.35 22.85 9.25 22.65 10.15 22.75 10.5 22.95 10.55 22.95 10.95 22.75 11.85 22.65 12.75 22.85 13.55 22.85 14.35 22.5 15.15 22.3 16.1 22.55 16.95 22.75 Q17.75 22.75 18.3 22.35 19.0 21.85 19.05 21.85 L19.95 21.85 20.0 22.1 19.05 22.1 18.3 22.65 Q17.7 23.05 16.95 23.05 L16.0 22.8 15.4 22.55 14.95 22.55 14.35 22.85 13.5 23.15 12.75 23.15 11.85 22.9 11.1 23.05 10.55 23.25 10.5 23.25 Q10.25 23.25 10.0 23.05 L9.25 22.9 8.35 23.15 7.6 23.15 6.75 22.85 6.15 22.55 5.7 22.55 5.15 22.8 4.1 23.05 Q3.35 23.05 2.8 22.65 L2.05 22.1 0.65 22.05" fill="#d5ccb2" fill-rule="evenodd" stroke="none"/>
      <path d="M10.7 10.5 Q11.2 10.55 12.4 11.5 L12.75 11.7 13.0 11.95 13.25 12.15 Q13.95 12.35 15.3 13.15 L15.7 13.4 15.8 13.45 Q17.15 14.25 18.2 15.4 18.05 15.55 18.05 15.8 L18.0 15.95 18.1 16.25 18.5 16.5 18.5 16.55 18.9 18.05 19.15 18.75 19.15 18.95 19.45 21.05 19.5 21.35 19.55 21.15 20.05 21.3 20.05 21.55 20.1 21.65 20.1 21.7 20.15 21.8 20.15 21.95 19.6 21.75 Q17.6 21.2 16.85 20.0 L16.35 20.05 Q15.0 20.05 14.45 18.4 14.2 18.05 13.8 18.1 13.25 18.1 12.5 17.1 L12.0 16.5 11.85 16.5 Q10.95 16.5 10.65 15.45 L10.55 14.5 10.5 14.45 10.45 14.2 Q10.1 13.6 9.95 12.3 L9.9 12.25 9.7 12.6 9.3 13.25 9.1 14.15 9.15 15.2 9.05 16.0 Q8.85 16.45 8.25 16.5 L7.45 16.3 7.15 17.0 7.1 17.1 Q6.65 17.8 5.7 17.95 L4.95 19.15 Q4.4 19.85 3.65 19.85 L2.8 19.6 1.3 21.55 0.95 21.8 0.65 22.0 -0.1 22.25 -0.15 22.25 -0.3 22.3 -0.3 22.25 -0.25 22.15 -0.25 22.05 -0.2 22.05 -0.25 21.9 -0.1 21.0 0.55 21.0 Q0.55 20.85 0.9 20.85 L1.55 16.5 1.4 15.8 2.2 14.55 2.3 14.55 2.45 14.5 2.55 14.5 2.75 14.55 3.3 14.35 3.55 14.0 3.45 13.9 3.3 14.0 3.25 13.95 3.05 14.05 3.0 14.0 2.75 14.2 2.6 14.2 2.55 14.2 2.45 14.15 2.5 14.1 2.75 13.7 3.35 13.25 Q7.5 10.2 8.1 10.2 L8.55 10.3 9.2 10.3 Q9.55 9.85 10.7 10.5" fill="#000000" fill-opacity="0.3019608" fill-rule="evenodd" stroke="none"/>
      <path d="M20.75 24.25 L20.85 24.9 20.65 25.45 Q20.5 25.75 20.05 25.75 L19.9 25.75 19.8 25.75 18.5 25.5 Q18.05 25.45 17.65 25.95 L16.95 26.45 15.25 26.05 13.6 26.35 12.0 26.0 11.6 26.05 11.4 26.2 11.1 26.35 10.6 26.5 10.55 26.5 10.35 26.45 Q9.85 26.4 9.8 26.2 L9.25 25.85 Q9.0 26.25 8.35 26.3 7.75 26.3 6.7 25.8 L4.5 25.6 4.2 25.65 Q2.6 25.85 2.05 25.35 L0.3 25.0 -0.05 24.85 -0.4 24.75 -0.8 24.4 -1.05 23.75 -1.05 23.7 Q-1.05 22.7 -0.4 22.7 L-0.2 22.75 -0.2 22.65 0.15 22.8 0.7 23.1 1.75 23.25 Q2.25 23.25 2.5 23.75 L4.9 24.2 6.1 23.9 Q6.6 23.85 7.3 24.3 L8.4 24.1 9.05 24.05 9.3 24.3 11.35 24.15 13.05 24.35 14.3 24.2 16.15 24.4 17.05 24.1 Q17.65 23.75 18.5 23.8 L19.65 23.5 20.1 23.3 20.2 23.45 20.2 23.9 20.3 23.9 20.75 24.25" fill="#fff7f7" fill-rule="evenodd" stroke="none"/>
      <path d="M19.8 25.75 L18.5 25.5 Q18.05 25.45 17.65 25.95 L16.95 26.45 15.25 26.05 13.6 26.35 12.0 26.0 11.6 26.05 11.4 26.2 11.1 26.35 10.6 26.5 10.55 26.5 10.35 26.45 Q9.85 26.4 9.8 26.2 L9.25 25.85 Q9.0 26.25 8.35 26.3 7.75 26.3 6.7 25.8 L4.5 25.6 4.2 25.65 Q2.6 25.85 2.05 25.35 L0.3 25.0 -0.05 24.85 -0.4 24.75 -0.8 24.4 -1.05 23.75 -1.05 23.7 Q-0.7 23.85 -0.05 24.3 L1.4 24.5 Q2.55 24.65 2.8 24.9 L3.75 25.1 4.7 25.0 6.5 25.2 7.4 25.4 8.15 25.6 8.6 25.45 9.15 25.3 9.8 25.55 10.7 25.75 11.4 25.6 12.2 25.45 13.35 25.65 14.05 25.45 14.75 25.25 15.65 25.5 16.5 25.75 17.7 25.4 19.1 25.1 20.15 24.7 20.75 24.25 20.85 24.9 20.65 25.45 Q20.5 25.75 20.05 25.75 L19.9 25.75 19.8 25.75" fill="#000000" fill-opacity="0.14901961" fill-rule="evenodd" stroke="none"/>
      <path d="M16.9 6.1 L17.15 7.35 Q17.75 10.15 17.95 12.45 18.05 13.95 19.1 16.85 20.1 19.65 20.0 21.1 L20.0 21.35 Q18.95 21.4 18.25 20.75 L17.45 19.75 17.25 19.5 17.15 19.3 16.65 19.4 16.55 19.45 16.25 19.5 Q15.65 19.5 15.1 18.9 L14.65 18.15 14.55 17.95 14.55 17.85 14.55 17.7 14.55 17.55 14.5 17.45 14.05 17.55 Q13.25 17.55 12.95 17.15 L12.55 16.3 12.5 16.15 12.45 15.9 12.35 15.85 12.05 16.0 11.9 16.0 Q11.2 16.0 10.95 14.9 L10.85 13.55 10.8 13.2 10.8 13.0 10.8 12.95 10.85 12.85 10.7 12.75 10.15 12.05 10.05 11.85 10.0 11.75 9.85 11.45 9.8 11.5 9.6 11.85 9.05 12.55 8.9 12.65 8.95 12.75 8.95 13.0 8.9 13.35 8.8 14.7 Q8.55 15.8 7.85 15.8 L7.65 15.8 7.5 15.7 7.4 15.65 7.3 15.7 7.25 15.9 6.8 16.95 Q6.5 17.35 5.7 17.35 L5.55 17.35 5.25 17.25 5.2 17.5 5.2 17.65 5.1 17.95 4.65 18.7 Q4.1 19.3 3.5 19.3 L3.1 19.2 2.85 19.15 2.6 19.1 2.25 19.7 1.5 20.55 Q0.85 21.2 -0.2 21.15 L-0.25 21.15 0.05 19.2 Q0.45 17.5 1.1 16.0 1.8 14.45 2.05 12.7 L2.75 8.9 3.4 5.25 3.5 5.2 3.6 5.15 3.8 5.0 Q4.95 4.3 5.8 4.1 6.9 6.0 10.1 6.55 L10.15 6.65 10.25 6.65 Q12.95 6.0 13.95 4.3 L14.2 4.2 16.3 5.2 Q16.75 5.4 16.9 6.1" fill="#208885" fill-rule="evenodd" stroke="none"/>
    </g>
    <g id="shape5" transform="matrix(1.0, 0.0, 0.0, 1.0, 2.4, -6.95)">
      <path d="M22.05 13.45 L22.5 14.6 21.95 14.15 21.45 14.1 Q20.6 14.1 19.5 14.9 L19.1 15.25 19.0 15.25 19.0 15.3 18.95 15.3 19.0 15.4 19.0 15.55 19.25 16.85 19.75 18.4 20.05 19.75 20.0 19.95 20.05 20.05 20.1 20.45 20.1 20.95 19.75 20.25 17.9 15.75 17.9 15.7 17.85 15.75 17.65 15.8 17.25 15.8 Q16.1 15.8 14.85 14.95 L14.4 15.1 13.9 15.25 12.45 14.8 Q11.65 14.3 11.5 13.45 L10.8 13.0 10.8 12.95 10.85 12.85 Q11.35 13.25 12.0 13.25 12.4 14.65 14.1 14.65 L14.7 14.65 15.2 14.4 17.4 14.75 17.9 14.7 18.7 14.45 19.5 13.65 22.05 13.3 22.05 13.45 M7.75 13.05 L8.8 12.75 8.25 13.45 7.55 14.0 6.85 14.85 5.85 15.0 4.45 14.7 3.7 14.9 3.05 15.05 2.8 15.0 2.75 15.0 2.65 14.95 1.8 16.3 1.6 16.65 0.95 18.05 0.45 19.2 0.4 19.4 0.3 19.6 0.3 19.7 -0.1 20.55 -0.2 20.9 -0.05 19.65 0.0 19.6 0.25 18.35 Q0.65 16.8 1.15 15.75 L1.35 15.4 1.6 15.0 1.5 15.0 1.2 14.95 0.55 14.85 0.45 14.85 0.25 14.7 Q-0.85 13.9 -1.7 13.9 L-2.2 13.95 -2.4 14.15 -2.15 13.15 0.25 13.45 1.05 14.25 1.5 14.45 1.6 14.45 1.85 14.5 2.35 14.55 4.55 14.2 5.05 14.45 5.65 14.45 Q7.35 14.45 7.75 13.05 M10.2 6.95 L10.4 7.95 10.55 9.4 Q10.55 10.7 10.05 11.85 L10.0 11.75 9.85 11.45 10.1 10.8 10.15 10.55 10.3 9.4 10.35 8.75 10.2 7.0 10.2 6.95" fill="#000000" fill-opacity="0.3019608" fill-rule="evenodd" stroke="none"/>
    </g>
    <g id="shape6" transform="matrix(1.0, 0.0, 0.0, 1.0, -1.55, -3.0)">
      <path d="M11.8 4.4 L11.75 4.25 11.7 4.15 11.5 4.0 11.15 3.65 11.85 3.25 12.5 3.05 12.75 3.1 13.25 3.3 13.5 3.45 13.7 3.65 14.0 4.4 13.95 4.7 12.35 6.2 10.75 6.8 9.35 6.75 Q8.4 6.55 7.75 6.15 L6.15 4.65 6.1 4.35 Q6.1 3.95 6.4 3.6 L6.6 3.4 6.85 3.25 7.35 3.05 7.6 3.0 8.25 3.2 8.95 3.6 8.6 3.95 8.4 4.1 8.35 4.2 8.3 4.35 8.7 4.75 9.35 5.1 9.8 5.35 10.05 5.5 10.3 5.4 10.75 5.15 11.4 4.8 11.8 4.4" fill="#fffcff" fill-rule="evenodd" stroke="none"/>
      <path d="M7.3 15.15 L7.5 15.7 7.4 15.65 7.3 15.7 7.3 15.85 7.25 15.9 7.25 15.85 7.2 15.85 7.2 14.9 7.3 14.9 7.3 15.15 M5.2 17.15 L5.15 17.95 5.1 17.7 4.95 17.0 4.95 16.2 5.05 16.2 5.05 16.55 5.45 17.3 5.25 17.25 5.2 17.5 5.2 17.15 M2.65 17.75 L2.75 18.9 2.85 19.15 2.6 19.1 2.5 19.3 2.5 19.35 2.45 19.35 2.25 19.7 2.4 18.9 2.4 18.75 2.5 17.85 2.55 17.85 2.55 17.75 2.65 17.75 M2.55 18.2 L2.55 18.4 2.55 18.45 2.55 18.2 M12.4 15.25 L12.5 15.25 12.55 16.05 12.55 16.3 12.7 16.75 12.65 16.75 12.5 16.15 12.45 15.9 12.35 15.85 12.05 16.0 12.1 15.95 12.4 15.35 12.4 15.25 M14.4 16.35 L14.5 16.35 14.6 16.85 14.6 17.75 14.5 17.75 14.5 17.45 14.05 17.55 14.4 16.8 14.4 16.35 M16.8 19.1 L16.95 19.0 17.15 18.35 17.2 19.3 17.25 19.5 17.2 19.35 17.1 19.35 17.1 19.3 16.65 19.4 16.55 19.45 16.8 19.1" fill="#000000" fill-opacity="0.3019608" fill-rule="evenodd" stroke="none"/>
      <path d="M5.25 31.85 L5.15 31.9 5.05 31.65 5.2 31.65 5.3 31.75 5.25 31.85" fill="#000000" fill-opacity="0.3019608" fill-rule="evenodd" stroke="none"/>
      <path d="M18.35 14.7 L17.8 14.8 15.2 14.35 14.9 14.55 14.3 14.7 12.85 14.35 11.9 13.2 Q11.3 13.15 10.65 12.5 L9.8 11.35 Q9.1 13.05 7.6 13.05 L7.4 13.65 Q6.95 14.4 5.8 14.4 L5.0 14.3 4.6 14.15 3.7 14.45 3.3 14.5 2.45 14.6 2.3 14.65 2.0 14.6 1.65 14.6 M7.4 13.65 L7.55 13.05 7.6 13.05 M2.0 14.6 L1.9 14.6 2.45 14.6 M9.8 11.35 Q10.25 10.05 10.25 7.85 L10.1 6.85" fill="none" stroke="#383838" stroke-linecap="round" stroke-linejoin="round" stroke-width="0.2"/>
      <path d="M11.75 4.15 L11.7 4.15 11.5 4.0 11.45 3.95 11.15 3.65 11.85 3.25 12.5 3.05 12.75 3.1 13.25 3.3 13.5 3.45 13.7 3.65 13.9 3.95 14.0 4.4 13.95 4.7 13.85 4.8 Q13.85 4.2 13.65 3.95 L13.6 3.9 13.55 3.75 13.5 3.55 13.05 3.4 Q12.75 3.4 12.3 3.8 L12.1 3.95 11.75 4.15 M6.45 3.9 L6.45 3.95 6.35 4.35 6.6 5.2 6.15 4.65 6.1 4.35 6.2 3.95 6.4 3.6 6.6 3.4 6.85 3.25 7.35 3.05 7.6 3.0 8.25 3.2 8.95 3.6 8.6 3.95 8.4 4.1 8.35 4.1 8.1 3.95 7.8 3.75 7.05 3.35 6.6 3.5 6.55 3.7 6.45 3.9" fill="#000000" fill-opacity="0.2" fill-rule="evenodd" stroke="none"/>
      <path d="M10.5 6.75 Q11.4 8.45 11.5 9.75 M9.7 6.7 Q9.05 6.9 8.6 10.25" fill="none" stroke="#333333" stroke-linecap="round" stroke-linejoin="round" stroke-width="0.30000000000000004"/>
      <path d="M10.7 10.1 Q10.7 9.65 10.95 9.35 11.25 9.05 11.65 9.05 12.05 9.05 12.3 9.35 L12.6 10.1 12.3 10.85 11.65 11.15 Q11.25 11.15 10.95 10.85 10.7 10.55 10.7 10.1 M7.6 10.35 Q7.6 9.9 7.85 9.6 8.15 9.3 8.55 9.3 8.95 9.3 9.2 9.6 L9.5 10.35 9.2 11.1 8.55 11.4 7.85 11.1 Q7.6 10.8 7.6 10.35" fill="#fff7f7" fill-rule="evenodd" stroke="none"/>
    </g>
  </defs>
</svg>
