<svg xmlns="http://www.w3.org/2000/svg" xmlns:ffdec="https://www.free-decompiler.com/flash" xmlns:xlink="http://www.w3.org/1999/xlink" ffdec:objectType="frame" width="10.1" height="8.5"><use ffdec:characterId="3" xlink:href="#a" width="10.1" height="8.5"/><defs><g id="a" fill-rule="evenodd"><path fill="#6348b4" d="m2.9 0 .9.2.3.3.55 1.95.4.15.5.4.7 2.4q.55-.1.75.7-1.85 0-3.15.8-1.3.55-2.25 1.55l-.15-.15-.05-.5.4-.6q-.65-.65-.8-1.25-.2-.65.05-.8l.5-.25L.7 4Q-.15 2.95 0 2.2q.05-1 .65-1 .5 0 .9.3l.65.55-.1-.8q0-.45.25-.85.25-.35.55-.4m.4.5q-.4 0-.65.7-.2.65-.05 1.2l1.1 1.15.6-.85L3.7.75zm-.7 2.65-.7-.7-.6-.55q-.35-.2-.6 0l-.3.8.7 1 .85.95.35-.05q.75 0 1.05.7l.05-.9q-.15-.75-.8-1.25M1.9 5.2q-.5.1-.45.7.1.85.75 1.1.55-.45 1.15-.65Q2.9 5 1.9 5.2m2.9-2.1q-1 1.2-.85 2.95l1.8-.55-.5-2.1-.05-.05z"/><path fill="#c5b1ff" d="m6.1 6-.05-.1q.15-.35.65-.65l.3-.1q-1.35-.85-1.75-1.7l-.05-.7.15-.4.4-.3q.25 0 .1.55l.3 1.2.2.4.65.95.15-.05.65.05.85.05.35-.1.25-.1q.9-.5.85-.15-1 1.05-2.3.95zm2.95-3.2q.35.45.35 1.05l-.3.25-.25-.65-.1-.25-.05-.05h-.9l-.1.45-.05.2-.05.3.05.35.05.3-.45-.45-.35-.6q0-.65.4-1v-.05l.8-.15-.05.1-.2.5q.45-.4.7-.4z"/><path fill="#a288ec" d="m10.1 4.85-.15.3-.95 1-.55.35-1.25.2-.95-.3q-.4-.2-.15-.4l1.7-.2q1.3.1 2.3-.95M6.05 5.9l-.25-.25q-.6-.6-.6-1.45l.05-.75q.4.85 1.75 1.7l-.3.1q-.5.3-.65.65m3-3.65-.15.35.15.2-.5-.1q-.25 0-.7.4l.2-.5.45-.2zM7.7 3.6l.1-.45h.9l.05.05H8.7l-.15.6-.6-.35zm-.4-.9q-.4.35-.4 1l.35.6.45.45-.65.35h.1L7 5.15l-.65-.95-.2-.4q.15-.5 1.15-1.1"/><path fill="#d5c6ff" d="m9.4 3.85.45.25-.65.4-.8.2-.7.05-.05-.3.05.05h.1l.65-.15.65-.25z"/><path fill="#7c5bd9" d="M5.85 2.6Q6.65 2 7.4 2l1.65.25-.55.15-.45.2.05-.1-.8.15v.05q-1 .6-1.15 1.1zm1.8 1.85L7.6 4.1l.05-.3.05-.2.25-.15.6.35H8.5q.35.3-.7.7h-.1zm.05.3.7-.05.8-.2-.2.6-.35.1-.85-.05-.65-.05h-.1z"/><path fill="#5f40bd" d="m9.85 4.1-.6.9-.25.1.2-.6zm-1.1-.9.1.25.25.65-.65.25-.65.15q1.05-.4.7-.7h.05l.15-.6z"/></g></defs></svg>