<svg xmlns="http://www.w3.org/2000/svg" xmlns:ffdec="https://www.free-decompiler.com/flash" xmlns:xlink="http://www.w3.org/1999/xlink" ffdec:objectType="frame" width="27.8" height="33.2"><use ffdec:characterId="3" xlink:href="#a" width="27.8" height="33.2"/><defs><g id="a"><path fill="#fecc41" fill-rule="evenodd" d="m23.55 13.5-.1-.35q0-.75 1.25-.75 1.2 0 1.2.7v.15q-.1-.45-1.15-.4l-.8.15-.2.1-.2.3zm3.55 4.15-.1.05h-.7l.4 1.2.05 1.2-.1.35-.2.05h-2l-.1-.3 1.4.1.45-.1q-.45-.05-.7-.5l-.2-.55.05-.3.5-.65.15-.05q-.25-.25-1.5-.35h-1l-.05-.15 2.5.1.35-.05zm.45 12.2.25.5-.1.5v.05l-.1.2-.3.55v.05l-.1.05-.2-.05.05-.1.1-.2.35-1.3zm-1.7 2.5-.5-.45-.35-.5-.2-.4.25.4.3.45zm-2.5-15.05.75-.05h.1l-.1-.05-.1-.05v-.1h.1l.1.05h.2l-.2.15-.1.1h-.35l-.35.15zm2.05-.25h1.5l.55-.05.1.2-.15.2-2.05.05-.1-.1v-.05l-.05-.05.05-.05v-.1h.1zm-.15 13.35.15.4q.35.85 1 .85l.45-.45.2-.55H27l.05-.05.15-.05-.15.75-.2.35-.1.1-.35.35q-.5-.05-1-.95l-.05-.05-.3-.6z"/><path fill="#c60" fill-rule="evenodd" d="M23.55 13.5v-.1l.2-.3.2-.1.8-.15q1.05-.05 1.15.4v.15l-.05-.05v.05l-.05.1-.1.15h-.1l-.05.05h-.05l-.15-.1-.3-.05-1 .05-.05.15-.15-.05h-.05v-.05zm2.35 3.3 1.25-.05.3.1.1.05.05.3v.25l-.25.1-.25.1-.8.05-.35.05-2.5-.1-.05-.15.35-.15h.35l.1-.1.2-.15v-.05l-.05-.05v-.15zm1.5 12.9.15.15-.05.25-.35 1.3-.1.2-.05.1.2.05.1-.05-.85.8-.6-.15-.5-.5-.3-.45-.25-.4-.15-.35.4-.15.3.6.05.05q.5.9 1 .95l.35-.35.1-.1.2-.35.15-.75-.15.05-.05.05h.05l-.2.55-.45.45q-.65 0-1-.85l-.15-.4.1-.05.1-.05.15.4.45.45.3.2h.15l.05-.1.4-.6.1-.2.25-.75.05-.05zm-2.15-16.25.2.05-.3-.3-.7-.1h-.05q-.55.1-.65.4v.1l.05.05v-.05l1.05-.2zm.15 3.6-.05.05h-.1v.1l-.05.05.05.05v.05l.1.1 2.05-.05.15-.2-.1-.2-.55.05zm-1.9.75h1q1.25.1 1.5.35l-.15.05-.5.65-.05.3.2.55q.25.45.7.5l-.45.1-1.4-.1v-.1l.3-.35.15-.5-.05-.35-.55-.6-.2-.15-.4-.15z"/><path fill="#c90" fill-rule="evenodd" d="m25.9 13.4-.1.1.05-.1v-.05zm-.65.05-.4-.05-1.05.2v.05l-.05-.05v-.1q.1-.3.65-.4h.05l.7.1.3.3zM23.6 18l.4.15.2.15.55.6.05.35-.15.5-.3.35v-.05l-.45-1.25h-.05z"/><path fill="#333" fill-rule="evenodd" d="m25.6 13.65.3 3.15-1.55.05V17l.05.05v.05h-.2l-.1-.05-.3-3.35h.05l.15.05h-.05l.05.15-.05.05H24l.1 1.2.5 1.35-.05.15h.65v-.1q-.5-.35-.5-2.2 0-.5.25-.5l.65.05v-.15l-.1-.05h.05zm-1.5 3.6v-.05l.1.05z"/><path fill="#232323" fill-rule="evenodd" d="m14.85 23.85-.25-.15-.2-.25h-.05v-.15h.5v.55M25.5 13.7l.1.05v.15l-.65-.05q-.25 0-.25.5 0 1.85.5 2.2v.1h-.65l.05-.15-.5-1.35-.1-1.2h-.05l.05-.05-.05-.15H24l.05-.15 1-.05.3.05z"/><path fill="#330" fill-rule="evenodd" d="m27.35 29.25.05.1-.35.1-1.6.85-.1.05-.1.05-.2.1-.4.15-2.3.75-.9.15-1.05.2-.45.05-.4.05h-1.4q-.8-1.25-1.45-2.65l-.45-1.1-.85-2.55-.35-1.3-.2-.85v-.1l-.3-1.55-.2 1.55-.05.1-.35 1.75-.55 2-.25.7-1.7 4.1-2.65-.35-1.15-.2L4 30.55l-1.05-.35-2-.75L4.2 20.1l.15.1 1.35.3-.95 1.95-.05.05-.05.25q.3.1.75.35l.4.25q1.15.7 1.5 1.5l.15.6-.4.95q-1.5 3.05-2.6 4.1l.7.2h.25l.6.05q.4.05.95-.55l.2-.25 1.4-2.2q.75-1.4 1.5-3.75l.75-3.5 3.5.45.2.05.3-.05h.5l6.1-.4 1.9.2q.85 0 1.05-.55l.1.3zM4.4 19.5l1.3-3.75h2.15l-.35.3-.3.55-.2-.35-.15-.15v.25l-.1.45 1.6.25 2.95.6q.1-1.1.4-.95l.85.55q-.6-1.25-1.7-1.25-.45 0-.7.3l-.2.4-.8-.95H22.8l.55 1.55.05.2.05.15.05.15.1.2.25.8-8.55.35h-.5V17.5l-.25-.2q-.45.4-.45 1.55v.25l-.95-.1-2.6.05-4.9-.25h-.3l-.7.1-.2.5zm16 12.25.05-.1.2-.55v-.15l-.6-1.6-.6-2.2-.1-2.35q-.15-1.3-.7-1.55l-.3-.05-.4.05q-.45.1-.55.55v.65l.4 3.85.3 1.35q.4 1.65 1 2.15l.4-.05.5-.05h.15zm2.45-4.4q1.1 1.7 1.8 1.7l.6-.25.1-.45-.05-.25-.45-1.8q-.6-1.8-1.6-2l-.25-.05-.25.15-.25.1-.75-.3q-.3-.15-.3.55 0 .4 1.15 2.25zm-19.6-1.1-.1.25.05.05z"/><path fill-opacity=".298" fill-rule="evenodd" d="m7.85 15.75.7-.15.6.15.8.95.2-.4q.25-.3.7-.3 1.1 0 1.7 1.25l-.85-.55q-.3-.15-.4.95l-2.95-.6-1.6-.25.1-.45v-.25l.15.15.2.35.3-.55zm-4.6 10.5-.05.3-.05-.05z"/><path fill="#232300" fill-rule="evenodd" d="m4.2 20.1-.1-.2.3-.4.05-.1.2-.5.7-.1h.3l4.9.25 2.6-.05.95.1.1 1.6.1.25-3.5-.45-.75 3.5q-.75 2.35-1.5 3.75l-1.4 2.2-.2.25q-.55.6-.95.55l-.6-.05h-.25l-.7-.2q1.1-1.05 2.6-4.1l.4-.95-.15-.6q-.35-.8-1.5-1.5l-.4-.25q-.45-.25-.75-.35l.05-.25.05-.05.95-1.95-1.35-.3zm20.15 0v.1q-.2.55-1.05.55l-1.9-.2-6.1.4h-.5v-1.8h.5l8.55-.35h.05l.45 1.25zM20.4 31.75l-.25-.05H20l-.5.05-.4.05q-.6-.5-1-2.15l-.3-1.35-.4-3.85v-.65q.1-.45.55-.55l.4-.05.3.05q.55.25.7 1.55l.1 2.35.6 2.2.6 1.6v.15l-.2.55zm2.45-4.4L22.6 27q-1.15-1.85-1.15-2.25 0-.7.3-.55l.75.3.25-.1.25-.15.25.05q1 .2 1.6 2l.45 1.8.05.25-.1.45-.6.25q-.7 0-1.8-1.7"/><path fill="#141414" fill-rule="evenodd" d="m14.8 20.95-.3.05-.2-.05-.1-.25-.1-1.6v-.25q0-1.15.45-1.55l.25.2v3.45"/><path fill="#1c1c1c" fill-rule="evenodd" d="M15.05 24.25 15 24.1l-.15-.25v-.45zm-.7-.8-.05-.05.05-.1z"/><path fill="#613104" fill-rule="evenodd" d="m26.45 20.5.9 8.75-2.9-8.75zm.95 8.85v.35l-.05-.05-.05.05-.25.75-.1.2-.4.6-.05.1h-.15l-.3-.2-.45-.45-.15-.4 1.6-.85z"/><path fill="#5b3523" fill-rule="evenodd" d="m25.25 23.8-.25.05-.1.3.1.2.25.15.25-.15.1-.2-.1-.3zm-.35-1.45-.1-.2-1.4-.05-5.2-.2-2.25-.2-1.6-.15v-.05l.1-.2-.1-.3-.3-.15-.25.15q-.15.05-.1.25l.1.2-3.45-.65-.25-.05-.2-.2q0-.4 1.6-.45h.65l1.4.1 3.95.05 3.6-.2 1.6-.1 1.65-.1zm-.6-2.65-.1-.25h.05zm-13.15.05h-.6L8 19.65zm-5.1-.15H5.9l-.25-.05zm-.8-.05-.1.05-.25-.05-.1-.05zm-.7-.05.05.05-.2-.05zm-.45 0h-.4v.15l5.85 1.4.8.15.1.05 3.85.65.9.15.75.15h.95l.3-.2.1.1.1.05-.1.15-.35-.05H15.6q-.85.4-.85.95l.05.25.15.4.25.3.2.15.1.05.4.2.35.1q.45.1.45.3V25q-7.55-.95-13.9-2.55l.9-3zm13.1 5.55.05-.3q0-.3-1.05-.6l-.15-.05-.25-.15-.5-.4v-.4l.4-.35q.35-.15 1.3 0 .9.05.7-.5l6.15.35 3.55.05-.1-.25h.05l.05.25.35 3.15-6.05-.5v-.1l-2.4-.15h-.35l-.25.05.05.05zm8.15-2.65-.2.05-.2-.05zm-3.7 3.1q.25 3.4 1.25 5.5 1.05 2.1-.3 2.15l-.5-.05-1.2-.7-.6-.75-.6-1.05q-.55-1.1-.85-4.75l.05.25.15 1.35.05-.15.25-.6v.15q0 1.7.65 3.25.75 1.9 2.15 2.5h.5q.4-.2.4-.7l-.1-.3-.35.6h-.45q-1-.2-1.95-2.1l-.25-.95-.2-1.1V26.2q0-.3.75-.4.75-.05.75.65V27l.1.6.25 1.15h.05v-.05l.05-.35-.05-.3V28l-.05-.3v-.15l-.05-.8-.05-.4.2.2-.05-.85zm-16.5-5.8.05.05-.1-.05zm7.9 3.6.25.15.25-.15.1-.2-.1-.3-.25-.05-.25.05-.1.3zm-3.2-1.05-.1.3.1.2.25.15.25-.15.1-.2-.1-.3-.25-.05zm-2.45-.6-.25.05-.05.1-.05.2.1.2.25.15.25-.15.1-.2-.05-.2-.05-.1zm-2.15-.1-.05-.3-.05-.05-.25-.05h-.25v.05l-.1.25.05.15.25.2.25-.15zm14.2 2.3.1.2q.1.15.25.15l.25-.15.1-.2-.1-.3-.25-.05-.25.05zm-3.3-.3.1.2.25.15.25-.15.1-.2-.1-.3-.25-.05-.25.05zm.85-2.6-.25-.05-.25.05-.1.3.1.2.25.15.25-.15.1-.2zm2.45-.1-.25.05-.1.3.1.2.25.15.25-.15.1-.2-.1-.3zm4.9-.3-.25.05-.1.3.1.2.25.15.25-.1-.05-.25-.1-.35zM22.6 23.7l-.25.05-.1.3.1.2.25.15.25-.15.1-.2-.1-.3zm-.55-2.95-.25.05-.1.3.1.2q.1.15.25.15l.25-.15.1-.2-.1-.3zm-1.2 8.4-.1.3.1.2.25.15.25-.15.1-.2-.1-.3-.25-.05zm-.3-2.1-.25.05-.1.3.1.2q.1.15.25.15l.25-.15.1-.2-.1-.3z"/><path fill="#3f2518" fill-rule="evenodd" d="m24.9 22.35.05.05.2.05.2-.05h1.95v.05l.1.25-3.55-.05-6.15-.35q.2.55-.7.5-.95-.15-1.3 0l-.4.35v.4l.5.4.25.15.15.05q1.05.3 1.05.6l-.05.3-.25.05q-.2 0-.25-.1v-.05q0-.2-.45-.3l-.35-.1-.4-.2-.1-.05-.2-.15-.25-.3-.15-.4-.05-.25q0-.55.85-.95h1.35l.35.05.1-.15-.1-.05-.1-.1-.3.2h-.95l-.75-.15-.9-.15-3.85-.65-.1-.05-.8-.15-5.85-1.4v-.15h.7l.2.05-.05-.05h.25l.1.05.25.05.1-.05.25-.05.15.05.25.05h.15l.1-.1.85.1 1 .05 2.55.1h8.35l4-.2h.4l.9-.15v.05l.1.25.05.1.05.05h-.05l-1.65.1-1.6.1-3.6.2-3.95-.05-1.4-.1h-.65q-1.6.05-1.6.45l.2.2.25.05 3.45.65.05.05.05.05.05.05.4-.05 1.6.15 2.25.2 5.2.2 1.4.05zm-3.2 3-.05.15v.2l.05.85-.2-.2.05.4.05.8v.15l.05.3v.05l.05.3-.05.35v.05h-.05l-.25-1.15-.1-.6v-.55q0-.7-.75-.65-.75.1-.75.4v1.85l.2 1.1.25.95q.95 1.9 1.95 2.1h.45l.35-.6.1.3q0 .5-.4.7h-.5q-1.4-.6-2.15-2.5-.65-1.55-.65-3.25v-.15l-.25.6-.05.15-.15-1.35-.05-.25-.05-.2v-.15l-.05-.3-.05-.05.25-.05h.35l2.4.15zM5.15 19.7H5.1l.1.05z"/><path fill="#24150e" fill-rule="evenodd" d="m25.25 23.8.25.05.1.3-.1.2-.25.15-.25-.15-.1-.2.1-.3zm-10.9-2.25-.4.05-.05-.05-.05-.05-.05-.05-.1-.2q-.05-.2.1-.25l.25-.15.3.15.1.3-.1.2zm-9.1 0-.15.1-.25.15-.25-.2-.05-.15.1-.25v-.05h.25l.25.05.05.05zm2.15.1.25.05.05.1.05.2-.1.2-.25.15-.25-.15-.1-.2.05-.2.05-.1zm2.45.6.25-.05.25.05.1.3-.1.2-.25.15-.25-.15-.1-.2zm3.2 1.05-.1-.2.1-.3.25-.05.25.05.1.3-.1.2-.25.15zm6.4-2.45.25.05.1.3-.1.2-.25.15-.25-.15-.1-.2.1-.3zm-2.45.1.1.3-.1.2-.25.15-.25-.15-.1-.2.1-.3.25-.05zm-.85 2.6.1-.3.25-.05.25.05.1.3-.1.2-.25.15-.25-.15zm3.3.3.1-.3.25-.05.25.05.1.3-.1.2-.25.15q-.15 0-.25-.15zm4.9-3.3h.1l.1.35.05.25-.25.1-.25-.15-.1-.2.1-.3zm-2.3.2.25.05.1.3-.1.2-.25.15q-.15 0-.25-.15l-.1-.2.1-.3zm.55 2.95.25.05.1.3-.1.2-.25.15-.25-.15-.1-.2.1-.3zm-2.05 3.35.25.05.1.3-.1.2-.25.15q-.15 0-.25-.15l-.1-.2.1-.3zm.3 2.1.25-.05.25.05.1.3-.1.2-.25.15-.25-.15-.1-.2z"/><path fill="#fecc41" fill-rule="evenodd" d="m16.45 22.3-.3.05h-.3q-.9.15-1 .8l.1.6.3.3.45.25.8.25.45.2-.35.3-.4-.05q-1.1-.1-1.6-.75-.4-.5-.4-1 0-.75.85-1.25l.4-.15.05-.05q1.55-.1 1.8.3l.1.15v.05l-.25.15zm4.2 10.05q-.55-.65-.55-1.1 0-.4.5-.65h1.95q.5-.05.85.7l.25.95q0 .95-1.05.95-1.2 0-1.95-.85"/><path fill="#c60" fill-rule="evenodd" d="m14.2 23.25.05-.3.2.6.15.05.15-.05-.05-.35q0-.35.25-.55.2-.2.9-.45l1.55.2-.2.2h-.15l-.55-.1q-1.25 0-1.4.6l-.1.25.1.35v.05l1.05.7.6.2-.15.2h-.4l-1-.3h-.05l-.35-.3q-.6-.6-.6-1M22.35 30.85v.05q-1 0-1 .45l.2.4q.3.35.95.35.9 0 .9-.75l.1.45-.2.55-.2.15-.1.05q-1.1 0-1.55-.4l-.35-.25-.05-.05q-.5-.55-.5-1zm.15 2.2q-.25 0-.95-.4l-.7-.55.1-.1.25.3 1.7.45h.05l.05.05q0 .25-.5.25"/><path fill="#c96" fill-rule="evenodd" d="M24.65 16.85v.3q-3.3 1.3-10.05 1.25T4.25 17.15v-.3q2-7.45 7.1-14.3h6.2q5.1 6.85 7.1 14.3"/><path fill-opacity=".2" fill-rule="evenodd" d="M20.8 17.6 19.15 11h.05l-.6-1.8Q17.5 6 16 2.55h.55l2.5 6.5.6 1.8 1.65 6.65zm-13.1-.05q.55-3.15 1.6-6.65h.05l.6-1.8q1-3.15 2.5-6.55H13q-1.55 3.5-2.6 6.7l-.6 1.8q-1.05 3.5-1.6 6.55zm13.75-6.05-.5.15-.5-.2-.15-.5.2-.45q.25-.25.5-.25l.5.3.2.45zm-13.05.05q-.25.2-.5.2l-.5-.2-.2-.5.2-.45q.2-.25.5-.25.25 0 .5.25l.2.45zM7.35 14.1l-.5.2q-.3 0-.5-.2l-.2-.5.2-.45q.2-.25.5-.25l.5.25.2.45zm-1.3 1.25q.2.05.4.25l.2.45-.2.5-.4.2h-.1q-.3 0-.5-.2l-.2-.5.2-.45q.2-.25.5-.25zm16.75 0q.3 0 .5.25l.15.45-.2.5-.5.2-.5-.25-.2-.5q0-.25.25-.45zm-.35-2.25.2.5-.2.45-.5.2-.5-.2-.2-.5.2-.45.5-.25z"/><path fill-opacity=".298" fill-rule="evenodd" d="m20.8 17.6.5-.1 3.4-.65v.3l-1.55.5-.6.15-2 .3-1.35.2h-.65l-.45.05-1.3.05h-.1l-3.8.05-3.3-.25h-.2L7.9 18h-.4l-.8-.2h-.15l-.5-.15-1.8-.5.05-.45 2.25.6 1.15.25.5.05 2.55.3 2.95.1.45-.1-.05-.05V2.55h.7v15.3l.8.15 2.05-.05z"/><path fill="none" stroke="#232323" stroke-linecap="round" stroke-linejoin="round" d="m11.95 13.3 2.6 2.25 2.55-2.2M12.05 9.1 14.5 11 17 8.85m.1 3.75q-1.45-.7-2.6-1.6l-2.55 1.55m5.05 4.5-2.45-1.5q-1.15.85-2.5 1.5"/><path fill-opacity=".298" fill-rule="evenodd" d="M16.7 8.35h.1l.45.1-1.35 1.1-.65.65-.5.4-1.65 1.05-.65.4-.45.3-.45.4q-.1.15-.25-.25-.2-.45.9-.9l1.95-1.2-1.05-.85-.1-.1-.1-.05-.2-.2q-.6-.45-.95-.45h-.05l.05-.05q.2-.35.55-.3t1.25.85l1.05.8h.05l.15-.1 1.4-1.25zm-1.15 2.5 1.45.9.4.25.15.3.05.4v.05h-.05l-.05-.05-.2-.2-.85-.6-.7-.4-.2-.05-.6.5-.45-.4.45-.35.2-.1zM12.1 13l.4-.2 1.1 1.05 1.15.7 1.05-.95.9-.7.55.1.15-.05h.05l.05-.05v.15l.1.25-.05.2-.1-.15-.2-.1-.2.05-1.9 1.65h.05l-.1.05-.15.1-2.75 1.75q-.5.2-.6.4l-.05-.3v-.2q.05-.15.75-.6l2.05-1.25zm3.6 2.3q.65.65 1.2.85l.85.4.15.35-.25.55-.1-.1.1-.15-.45-.35-.7-.25-.55-.35-.4-.15q-.25 0-.3.15l-.1.15-.1.05q-.2-.15-.35-.15l-.05-.15.35-.3.25-.25.1-.05z"/><path fill="#333" fill-rule="evenodd" d="M21.3 19q-.45-.1-.75-.4-.45-.45-.45-1.05 0-.55.45-.95.4-.45 1-.45.55 0 1 .45.4.4.4.95 0 .6-.4 1.05l-.35.25-.5.15h-.4m2.15.75v.05l.05.1v.55l-.15.05-.7.1-.7.1-.3.05v-.05h.1l.2-.2-.05-.05-.1-.25-.15-.25.15-.05.85-.1h.75zm-2.5 1h-.05l-.05-.1-.05-.2.1.1v.05zm-.2-3.8-.25.65.25.65.75.4h.2l.4-.05.4-.35.3-.75q0-1-1.25-1-.5 0-.8.45m1.4.8v-.2l-.15-.4-.15-.1.25.1.15.4z"/><path fill="#1c1c1c" fill-rule="evenodd" d="M20.75 16.95q.3-.45.8-.45 1.25 0 1.25 1l-.3.75-.4.35-.4.05h-.2l-.75-.4-.25-.65zm1.1.1-.1-.05-.1-.05h-.1q-.3 0-.45.2-.15.15-.15.45l.15.35q.2.2.45.2l.5-.3.1-.1.1-.2-.15-.4z"/><path fill="#a1a1a1" fill-rule="evenodd" d="M21.3 19h.4l.1.2.2-.1h.05l.2-.05h.15l.1.1-.1.1-.05.05-.3.05-.25-.05.05.25h.05v.05h-.05l-.15.05h-.2l-.1-.05-.05-.2.05-.1z"/><path fill="#f2f2f2" fill-rule="evenodd" d="m21.7 19 .5-.15.15.2h-.1l-.2.05H22l-.2.1zm.7.25.15.3h-.25l-.4.05v-.05h-.05l-.05-.25.25.05.3-.05zm.95 1.25.55 1.55.2.65-1.45-.05-.6-.05-.7-1.85h.3l.3-.05.7-.1zm.1 6.15-.5-1.2 2 .2.35 1q.6 2-.15 2.1-.7.1-1.7-2.1"/><path fill="#232323" fill-rule="evenodd" d="m22.55 19.55.75-.1.15.3-.05.05h-.75l-.85.1-.15.05.15.25.1.25.05.05-.2.2h-.1v.05h-.35l-.2.1-.15-.1-.05-.15v-.05l-.1-.1-.15-.35v-.3l.15-.15h.9l.15-.05h.05l.4-.05z"/><path fill-opacity=".298" fill-rule="evenodd" d="m23.3 27.1-.5-1.25-.1-.45h.1l.75.1q1.1 3.05 1.65 3.05l.4-.5.1-.2V28l.05.3-.5.55h-.5q-.95-.7-1.45-1.75m-2.2-6.25.2-.1h.35l.3-.05.5 1.45.5.1H24l.15.45h-.8l-1.55-.15-.2.05-.7-1.85h.05zM16.8 7.75l1-.1q1.2-.1 2.2-.55l.45-.2.25-.2.25-.35.4-.5q.3-.2.65-.3l.05.1-.05.25-.15.4-.3.5-1.05 1.15-1.75 1-1.8.5-2.4.2-2.95-.45-2.25-.9-.4-.25-.6-.5-.75-.65-.45-.65-.2-.35v-.1l.15-.15.55-.15 1.1.45 1.05.35 1 .35.95.25 1.85.55 1.7.3z"/><path fill="#5b3523" fill-rule="evenodd" d="M20.3 1.5h.2q1.3 1.55 2.9 2.65l-.8 1.35-1.25 1.4q-1.2 1-2.75 1.3l-6.2.2-2.1-.5q-2.55-1.1-4.75-3l.5-.5L7.25 3q.65-1 1.55-.75l1.05.8.3.25.6.35.95.65-.1.1q-.85-.05-2.05-.75l.45.75q.1.7-.15 1.2l-.45.8-2.7-1.35.15.1L9 6.7q1.1.7 2 .95l2.1.4.1-.65q-.05-.35.55-.95.55-.65 1.15-.5t.95.5q.3.3.4.9l.3.75.05.25q3.5-.6 4.5-1.45 1.7-1.55 1.7-2.15 0-.5-.45 0l-.75.95-1.05.85-.05.05-.45-1.1-.3-.3-.35.1q-.45.35-.85.2h-.25l.35-.25.85-.85.15-.55q-1.3.7-2.15.25l.6-.3 1.25-.9.4-.3.55-.55q.5-.55 0-.55m-11.15.6v-.05q.4-1 1.35-1.8l.4.15.4.85.85.25 1.75.6q3.15.65 4.45-2.1l.8.05.45 1.1.45.35-.3.2-.85.55-.25.2-2.05.95.45-.4 1.55-1.35.3-.75-.15-.55-.9 1.05Q16.6 2.45 14.9 2.45l-1.3-.15h-.35Q12 2.15 11.1 1.65q-.85-.45-.95-.95l-.35.45-.05.5.9.7q.6.4.95.3l-.15.15h-.1l-.3.1h-.2l-.1-.05L10 2.5 9.3 2q-.1 0-.15.1"/><path fill="#3f2518" fill-rule="evenodd" d="M20.05 1.5h.25q.5 0 0 .55l-.55.55-.4.3-1.25.9-.6.3q.85.45 2.15-.25l-.15.55-.85.85-.35.25h.25q.4.15.85-.2l.35-.1.3.3.45 1.1.05-.05 1.05-.85.75-.95q.45-.5.45 0 0 .6-1.7 2.15-1 .85-4.5 1.45l-.05-.25-.3-.75q-.1-.6-.4-.9-.35-.35-.95-.5t-1.15.5q-.6.6-.55.95l-.1.65-2.1-.4q-.9-.25-2-.95L6.85 5.15l-.15-.1L9.4 6.4l.45-.8q.25-.5.15-1.2l-.45-.75q1.2.7 2.05.75l.1-.1-.95-.65-.6-.35-.3-.25-1.05-.8-.05-.05.2.05H9l.15-.15Q9.2 2 9.3 2l.7.5.75.35.1.05h.2l.3-.1h.1l.15-.15q-.35.1-.95-.3l-.9-.7.05-.5.35-.45q.1.5.95.95.9.5 2.15.65h.35l1.3.15q1.7 0 2.95-1.05l.9-1.05.15.55-.3.75L17.05 3l-.45.4 2.05-.95.25-.2.85-.55z"/><path fill="#333" fill-rule="evenodd" d="m.75 25.25-.4-.85q.25-1.7 1.8-2.45l3.45 1.2q1.45.7 2.75 1.75-1.75.8-3.7 1.1-2.15.3-3.9-.75m1.4-1.2q-.1-.55-.7-.5t-.5.65.7.5.5-.65"/><path fill="#c96" fill-rule="evenodd" d="M8.35 24.9 6.3 28.95l-.9 1.15q-.8.85-2.25.8t-2.3-.75q-.9-.8-.85-1.6l.05-.85.2-.9.5-1.55q1.75 1.05 3.9.75 1.95-.3 3.7-1.1"/><path fill="#f2f2f2" fill-rule="evenodd" d="M2.15 24.05q.1.55-.5.65t-.7-.5.5-.65.7.5"/><path fill-opacity=".298" fill-rule="evenodd" d="M5.35 24.05q0-.6-.6-.95l-.4-.3 1.25.6 1.55.85 1.25.55-.95 1.9-.55 1.1-.65 1.3-.7 1-.65.45-.6.2-.55.15h-.7l-.25-.05-1.35-.4-.55-.3-.3-.2-.35-.45q.75.55 1.8.7l1.55-.1 1-.5q.45-.35.7-1.15.25-.85-.3-1.4-.6-.55-1.25-.45l-1.7-.2q-1-.3-1.15-.55l-.15-.45-.2-.45-.15-.7.05-.45.35-.5.2.4-.15.7q-.05.5.7.55t.9-.5l.8.15h1.2l.85-.2h-.05l.05-.05z"/><path fill-opacity=".2" fill-rule="evenodd" d="m4.7 26-.8 1.3q-.55 1.15-.55 2.15v1.4H2.9L2.85 30q0-1.8 1.15-3.8l.15-.2h.05l.45-.1.15-.2zm-1.95.7q.15.15.15.4l-.15.4-.4.15-.4-.15-.15-.4.15-.4q.15-.15.4-.15zm-.85-.95-.6 1.6-.25 2 .15 1-.35-.3h-.1l-.1-1.1q0-1.05.35-2l.5-1.3zm-.35 2.85.4-.15q.25 0 .4.15t.15.4l-.15.4-.4.15-.4-.15-.15-.4z"/><path fill-opacity=".298" fill-rule="evenodd" d="m1.35 23.5.45-.1q.55 0 .65.35l.05.55-.15.35-.05.15-.7.2q-.85 0-.95-.6 0-.35.3-.35.05.3.55.3l.3-.15.05-.15v-.15q0-.35-.45-.35h-.05z"/></g></defs></svg>