<?xml version="1.0" encoding="UTF-8" standalone="no"?>
<svg xmlns:ffdec="https://www.free-decompiler.com/flash" xmlns:xlink="http://www.w3.org/1999/xlink" ffdec:objectType="frame" height="11.3px" width="9.15px" xmlns="http://www.w3.org/2000/svg">
  <g transform="matrix(1.0, 0.0, 0.0, 1.0, 0.1, -2.15)">
    <use ffdec:characterId="3" height="11.3" transform="matrix(1.0, 0.0, 0.0, 1.0, -0.1, 2.15)" width="9.15" xlink:href="#shape0"/>
  </g>
  <defs>
    <g id="shape0" transform="matrix(1.0, 0.0, 0.0, 1.0, 0.1, -2.15)">
      <path d="M8.25 10.9 L7.0 11.8 4.15 12.45 2.95 10.15 3.3 9.85 3.35 9.7 3.3 9.7 3.1 9.25 2.5 8.15 1.75 6.85 0.85 5.6 0.3 4.85 0.2 4.65 -0.1 3.55 0.15 2.8 0.4 2.3 Q2.15 2.8 3.5 5.7 L4.65 8.2 4.75 8.35 5.5 8.65 Q6.1 8.5 6.5 8.2 L6.55 8.3 6.6 8.35 6.75 8.3 6.85 8.3 7.2 8.1 7.55 7.85 7.8 7.7 7.85 7.7 7.75 7.75 5.0 9.35 3.65 9.95 5.3 9.55 5.8 10.6 Q7.4 10.35 8.45 9.6 L7.9 10.2 Q7.3 10.8 6.25 11.05 L6.5 11.2 Q6.9 11.45 8.25 10.9 M6.55 8.3 L6.5 8.3 6.55 8.35 6.55 8.3" fill="#000000" fill-rule="evenodd" stroke="none"/>
      <path d="M4.1 13.3 L4.3 13.45 4.25 13.45 4.1 13.3" fill="#c9d0d7" fill-rule="evenodd" stroke="none"/>
      <path d="M0.4 2.3 L0.5 2.25 0.6 2.2 1.15 2.15 Q1.7 2.2 2.45 2.95 L3.3 3.85 3.35 3.85 4.75 5.85 5.8 7.35 6.4 8.1 6.45 8.15 6.5 8.2 Q6.1 8.5 5.5 8.65 L4.75 8.35 4.65 8.2 3.5 5.7 Q2.15 2.8 0.4 2.3 M7.85 7.7 L7.85 7.65 8.45 8.05 8.9 8.75 8.5 9.35 8.85 9.5 9.0 9.9 8.75 10.35 8.25 10.9 Q6.9 11.45 6.5 11.2 L6.25 11.05 Q7.3 10.8 7.9 10.2 L8.45 9.6 Q7.4 10.35 5.8 10.6 L5.3 9.55 3.65 9.95 5.0 9.35 7.75 7.75 7.85 7.7" fill="#333333" fill-rule="evenodd" stroke="none"/>
    </g>
  </defs>
</svg>
