<svg xmlns="http://www.w3.org/2000/svg" xmlns:ffdec="https://www.free-decompiler.com/flash" xmlns:xlink="http://www.w3.org/1999/xlink" ffdec:objectType="frame" width="11.45" height="14.35"><use ffdec:characterId="1" xlink:href="#a" width="11.45" height="14.35"/><defs><g id="a" fill-rule="evenodd"><path fill="#fff" d="M6.6 12.9q.85-1.6 1.8-2.6l.25-.35.1-.65-.45.15 2-1.5.1.2-.25.25h.1l.05-.05.4.55.05.05.5.4v.05l.2.15-.15.2-.5.35h-.45v.05l-.25-.1-.15-.05v.1l.1.4-.05.45-.5.4h-.4l-.25-.1-.05.45-.05.1-.6.4-.65-.5.1.6-.1.2-.2.25h-.1l-.5.15z"/><path fill="#cde2f5" d="m6.6 12.9-.35-.1q-.15.8-.7.8-.4 0-.65-.4l-.05.1-.4.5-.25.15h-.35l-.3-.2-.7.6H2.3l-.15-.45v-.3q0-1.15.65-1.55l2.8-1.3 1.85-.7q.45-.35.85-.6l.45-.15-.1.65-.25.35q-.95 1-1.8 2.6"/><path fill="#aacd00" d="M1.15 2.1h.4l-.25.25-.05.05zm0-.55-.05.05h.2l-.05-.05zM2.25 0l.15.15.4.55.95 1.1.5.4L5.9 3.55l1.2 1.1.1.1-1.25-.65 1.4.8.6.8L9 4.95h.1l.45.75 1.2 2.55q-.2.85-2.95 2.4l.1-.2v-.1L7.45 9.1v-.05Q7.3 9 7.3 8.75l-.25-.45-.8-1.6-.25.05.05.1-.7.95-.25-.55-.15.1-.05.05 1.65 3.9h.1Q4 12.7 2.6 13H1.5l-.05-.1-1.1-2.6L0 9.55l1.05-.65-.15-.55h.05q-.7-3.15-.7-4.7V3.6l-.2-1.15.15-1.1L.5 1 .45.95.85.5 1.5 0zM.85 2.1l.65 1.6 1.05 2.1.55 1 .1.1.4 1v-.05l-.05-.2.1.35.35-.25h.1l.5-.9.25.45v.05l.1-.25.1.15.1-.05v-.05l-.05.05-.4-.6v-.05l-.05-.05-.35-.75-.15-.25-.1-.2-.9-1.3v-.05L3.1 3.9l-.45-.7v-.05H2.6l-.35-.55v-.15l-.1-.05-.3-.4.05-.15-.1-.05-.1.05q-.25.2-.45.2L1 1.95H.95zm.8.45.1-.25.15.2zm.95 1.1.2.35-.4.2h-.05zm-.45-.75.15.3-.35.15-.05-.05zm.15.65-.25.7-.25-.55.45-.15zm.4.9-.25.65-.15-.35-.1-.15zm.35-.05.2.4-.35.1.1-.45zm-1.4-1.05-.25-.5.5-.05zm1.8 1.7.35.5-.25.15h-.3q-.1-.2.1-.5zm-.4 1.05.6-.15-.35.5-.1-.05-.2-.3zm.7 0 .3-.1v-.05V6l.25.25.15.3h-.2l-.7.15v-.05zm-.85-.25-.35-.55h.1l.45-.15zm1 1.7-.15-.25-.1-.3.55-.1zM6.1 7l.35.7H5.7zm.55 1.1.35.7h-.85zM5.5 8.05 5.65 8h.7l-.55.7zm.55 1.25L6 9.15l1.1-.05-.7 1.05zm1.75 1.35-.3.2-.75.4v-.1l-.2-.65zm-.7-.45h-.45l.4-.6.2-.2.35.9z"/><path fill="#86a200" d="m1.65 2.55.25-.05-.15-.2zm.15-.75.1.05-.05.15.3.4.1.05v.15l.35.55h.05v.05l.45.7.05.05V4l.9 1.3.1.2.15.25.35.75.05.05v.05l.4.6.05-.05v.05l-.1.05-.1-.15-.1.25V7.3l-.25-.45-.5.9H4L3.65 8l-.1-.35.05.2v.05l-.4-1-.1-.1-.55-1L1.5 3.7.85 2.1 1 1.95l.25.1q.2 0 .45-.2zm.35 1.1-.25.4.05.05.35-.15zm.15.65h-.05l-.45.15.25.55zm.3.1-.25.55h.05l.4-.2zm.45 2.45H3l.2.3.1.05.35-.5zm.4-1.05-.1.15q-.2.3-.1.5h.3l.25-.15zm-1.8-1.7.25-.55-.5.05zm1.4 1.05L3 4.45l-.1.45.35-.1zm-.35.05-.5.15.1.15.15.35zm1.35 1.5V6l-.3.1-.2.55v.05l.7-.15h.2l-.15-.3L4.05 6zm-1.15-.1.2-.7-.45.15h-.1zm1 1.7.3-.65-.55.1.1.3zm1.05-.2.15-.1.25.55.7-.95-.05-.1.25-.05.8 1.6.25.45q0 .25.15.3v.05l.45 1.25v.1l-.1.2-1.25-.15.2.65v.1l-.05.05h-.15L4.9 7.4zM7.1 10.2l.5.1-.35-.9-.2.2-.4.6zM6 9.15l.05.15.35.85.7-1.05zM5.65 8l-.15.05.3.65.55-.7zm1 .1-.5.7H7zm-.95-.4h.75L6.1 7zM1.15 2.1l.1.3.05-.05.25-.25z"/><path fill-opacity=".298" d="m7.9 5.65-.5.3-3.2 1.8-1.85.8-1.15.5Q.95 8.8.9 7.85l-.05.3v.05L.8 7.8l-.1-.6L.35 5q-.15-.9.2-1.15.3-.3.65-.3l.7.2L3 5.05q.7 1.1 1.5 1.35.75.25 2.05-.55.7-.4 1.1-.65zm-3.15.4H4.7V6l-.15-.15V5.8q-.1-.55 1.5-.75l-.85 1-.3.05h-.05zm-.1-.75-.35.15-.1-.2h.05l-.05-.1.3-.3.45-.1L5 5zm1.6-.55h.15q.3 0 .3.2l-.65.7L5.4 6l.85-1zm.65 2 .05.25L4.8 8.1l-.7.45L4 9q-.1.15.1.75l.55.95q.35.3.5.25l.3-.05 1.1-.5 3-1.7.9-.45.1.05-1 .85-2.4 1.55-2.85 1.45-1.65.6-.9-.3-.15-.15-.45-1.1-.05-.05-.45-1-.1-.05q-.05-.35-.2-.4l1.9-.9 1.8-.8q.35-.2 1-.45 1.25-.8 1.55-.8zM1.95 12.8l.1.05h-.1z"/></g></defs></svg>