<svg xmlns="http://www.w3.org/2000/svg" xmlns:ffdec="https://www.free-decompiler.com/flash" xmlns:xlink="http://www.w3.org/1999/xlink" ffdec:objectType="frame" width="7.8" height="7.2"><use ffdec:characterId="3" xlink:href="#a" width="7.8" height="7.2"/><defs><g id="a" fill-rule="evenodd"><path fill="#0f72b8" d="m7.4 3.8.4.25-.35.65L6.1 6.3q-.8.6-1.75.85l-.1.05-.65-1.1-.2-.3Q1.65 2.95.1.95-.05.35.4.1q.4-.2.8 0Q2.75.95 4 1.7z"/><path fill="#001e54" fill-opacity=".4" d="m7.1 4.05-.05.15.05-.05-1.3 1.5-1.55 1.3q-.9-1.7-3.9-5.6V1.3L.1.95 0 .5.15.35.4.3l.5.1.3.15.85.6 1.1 1.05.05.05.75.7q.6.6 1.05.65l.85.05.45-.05-.75.7-.6.65-.35.15.45.1h.2l.45-.35q.95-.95 1.35-.95zm-3 .5.05-.05H4.1z"/></g></defs></svg>