<svg xmlns="http://www.w3.org/2000/svg" xmlns:ffdec="https://www.free-decompiler.com/flash" xmlns:xlink="http://www.w3.org/1999/xlink" ffdec:objectType="frame" width="11.55" height="10.85"><use ffdec:characterId="5" xlink:href="#a" width="11.55" height="10.85"/><defs><g id="a" fill-rule="evenodd"><path fill="#8cdfff" d="M.65.05 1.7 0l.05.05 1.2.1q1.2.25 1.8.8.35.3.5 1.45l.25.95.3.3.05.2.1.1-.05.25.75.75.45.6 2.4 2.7.05.05 1 .8 1 .7-.65.4-2.15.6-2.2-.3-.75-1.55Q5 7.2 3.4 5L.9 1.85.1.35l.1-.3z"/><path fill-opacity=".2" d="m.9.2 1.25.4.9.7.45.45q.5.55.6 1.6l.7-.7h.05l-.3 1.05-.2.2.1.15.7-.7v.05l-.25.8-.05.15-.05.05-.25.4L5.6 6.1l.2.25.65 1.8q.45 1.3.85 1.15.35-.15.25-1.05l.05.1q.7 1.95 1.8 2.15l.05.05.05.05v.1q-.25 0-.4.15h-.2l-1.15-.05-1.15-.25q-.35-.1-.4-.7-.1-.65-2.45-4.05L.7 1.7 0 .45V.3L.15.2zm5.4 4.6.1.2-.5.2h-.4l-.05-.15.25-.4.2-.15z"/></g></defs></svg>