<?xml version="1.0" encoding="UTF-8" standalone="no"?>
<svg xmlns:ffdec="https://www.free-decompiler.com/flash" xmlns:xlink="http://www.w3.org/1999/xlink" ffdec:objectType="frame" height="22.85px" width="22.4px" xmlns="http://www.w3.org/2000/svg">
  <g transform="matrix(1.0, 0.0, 0.0, 1.0, 1.3, -2.9)">
    <use ffdec:characterId="1" height="22.85" transform="matrix(1.0, 0.0, 0.0, 1.0, -1.3, 2.9)" width="22.4" xlink:href="#shape0"/>
  </g>
  <defs>
    <g id="shape0" transform="matrix(1.0, 0.0, 0.0, 1.0, 1.3, -2.9)">
      <path d="M21.0 24.1 L20.85 24.15 18.8 25.0 16.1 25.6 13.0 25.3 9.8 24.9 7.55 25.15 4.85 25.4 Q0.95 25.4 -0.8 24.5 L-1.3 24.7 Q0.1 22.0 0.7 18.45 1.25 14.85 3.25 10.75 L4.25 8.8 6.1 5.9 8.3 3.15 Q9.75 4.05 10.2 3.9 L11.65 3.3 Q13.65 5.0 16.1 9.5 18.55 14.0 19.4 17.7 20.25 21.4 20.8 22.5 21.3 23.5 21.0 24.1" fill="#333333" fill-rule="evenodd" stroke="none"/>
      <path d="M10.2 4.25 L9.95 4.45 9.35 4.55 8.85 4.5 8.65 5.0 Q7.95 6.65 7.95 8.0 7.95 9.35 8.95 10.45 L9.2 10.6 10.25 10.75 Q12.35 10.75 12.55 7.6 12.55 6.65 11.75 5.05 L11.4 4.4 11.2 4.4 Q10.5 4.4 10.5 4.1 10.85 3.85 11.05 3.75 L10.95 3.55 Q10.95 2.75 12.05 4.55 13.1 6.3 13.1 7.8 L12.65 9.4 12.15 10.2 12.25 10.4 11.0 11.35 10.6 11.35 10.4 11.15 9.05 11.0 8.9 11.0 Q8.05 11.0 7.6 9.55 7.3 8.6 7.3 7.75 7.3 6.65 7.9 5.4 L8.5 4.4 8.4 4.2 8.6 4.05 8.5 3.95 8.5 3.65 8.8 3.8 9.1 3.2 9.3 3.45 9.05 3.95 10.15 4.15 10.2 4.25 M9.95 16.8 Q9.95 17.35 9.35 17.4 10.0 17.95 10.6 17.85 L12.6 17.55 13.0 17.55 Q12.3 16.7 9.9 16.6 L9.95 16.8 M8.6 17.95 L8.3 17.4 8.15 17.35 6.55 16.95 6.2 16.75 Q2.25 17.15 1.35 18.6 L1.9 16.15 Q2.15 14.8 3.55 12.75 L4.0 12.1 Q4.25 13.0 5.05 13.9 6.95 16.1 11.2 16.1 14.2 16.1 15.25 13.7 15.65 12.75 15.7 11.25 L16.9 13.55 Q17.85 15.35 18.3 17.3 L18.9 20.05 17.6 19.2 Q15.7 18.15 14.1 17.7 L13.05 17.7 13.1 17.9 Q13.1 18.5 10.8 18.5 L9.15 18.45 8.6 17.95 M4.8 19.5 L4.95 19.5 5.0 19.55 4.8 19.5 M4.55 21.15 L4.8 22.8 4.65 24.9 4.45 25.4 3.1 25.4 1.2 25.15 1.95 23.7 Q2.45 21.9 4.55 21.15 M6.8 21.4 Q6.8 22.5 6.2 23.5 L5.85 24.05 Q5.45 23.6 5.35 22.45 L5.6 21.9 6.75 20.9 6.8 21.4 M13.05 22.85 Q14.55 23.7 15.65 25.0 L16.2 25.75 14.2 25.65 14.15 25.65 12.1 25.3 7.75 25.05 Q8.1 24.3 9.4 23.35 11.55 21.75 13.05 22.85" fill="#000000" fill-opacity="0.6" fill-rule="evenodd" stroke="none"/>
      <path d="M11.5 3.25 L12.65 5.05 Q13.45 6.4 13.3 8.7 13.1 11.0 10.75 11.65 L10.0 11.55 8.75 11.2 8.75 11.15 Q8.5 11.65 8.3 11.0 7.5 10.35 7.1 8.9 6.65 7.4 7.75 4.95 8.85 2.45 9.1 3.1 L9.1 3.15 9.05 3.45 Q6.9 7.6 7.8 9.45 L7.8 9.5 Q8.65 11.15 10.7 11.15 L11.15 11.0 Q12.75 10.05 12.75 8.05 12.75 6.0 11.85 4.6 L11.0 3.05 11.0 3.0 11.1 2.95 11.5 3.25" fill="#8e8e8e" fill-rule="evenodd" stroke="none"/>
      <path d="M9.75 18.05 Q9.3 17.75 9.25 17.1 L8.85 13.7 Q8.75 12.5 9.95 12.3 L11.65 12.2 Q12.4 12.15 12.75 12.6 L13.0 13.3 13.35 16.7 Q13.45 17.95 12.2 18.05 L10.6 18.15 9.75 18.05" fill="#434343" fill-rule="evenodd" stroke="none"/>
      <path d="M9.95 17.65 Q9.6 17.4 9.55 16.85 L9.35 13.8 Q9.25 12.7 10.2 12.55 L11.55 12.5 Q12.15 12.4 12.45 12.85 L12.65 13.55 12.85 16.55 Q12.95 17.7 11.95 17.65 L10.65 17.8 9.95 17.65" fill="#ffffff" fill-opacity="0.29803923" fill-rule="evenodd" stroke="none"/>
      <path d="M9.5 17.45 L9.1 17.1 9.3 16.9 9.75 16.9 10.55 14.0 10.95 12.6 Q10.95 11.75 11.3 12.15 11.6 12.55 11.45 13.35 L10.75 15.75 10.05 17.45 9.5 17.45" fill="#000000" fill-opacity="0.29803923" fill-rule="evenodd" stroke="none"/>
      <path d="M10.3 11.35 L10.85 11.6 Q11.4 11.95 11.15 12.85 L10.2 16.15 Q9.9 17.35 8.75 17.05 L7.15 16.65 Q5.95 16.3 6.25 15.15 L6.25 15.1 7.15 11.8 Q7.45 10.6 8.7 10.95 L10.3 11.35" fill="#727272" fill-rule="evenodd" stroke="none"/>
      <path d="M7.1 15.8 L6.75 15.7 Q6.6 15.4 6.7 14.95 7.25 15.4 8.3 15.45 9.3 15.5 10.2 14.85 L9.9 15.8 Q9.65 16.85 8.7 16.6 L7.8 16.35 9.0 16.05 Q9.4 15.8 8.85 15.85 L7.85 15.9 7.1 15.8 M8.75 11.3 L10.05 11.65 10.5 11.9 Q10.95 12.2 10.7 13.0 L10.7 13.05 9.95 13.8 Q9.3 14.2 8.45 14.2 L7.0 13.9 7.5 12.05 Q7.75 11.0 8.75 11.3" fill="#ffffff" fill-opacity="0.29803923" fill-rule="evenodd" stroke="none"/>
      <path d="M10.05 11.95 L10.4 12.25 10.45 12.85 9.9 13.5 8.85 13.85 8.4 13.7 9.05 13.25 9.8 12.45 Q9.8 12.1 8.9 11.7 L8.55 11.55 9.35 11.65 10.05 11.95" fill="#ffffff" fill-rule="evenodd" stroke="none"/>
    </g>
  </defs>
</svg>
