<svg xmlns="http://www.w3.org/2000/svg" xmlns:ffdec="https://www.free-decompiler.com/flash" xmlns:xlink="http://www.w3.org/1999/xlink" ffdec:objectType="frame" width="9.5" height="10.9"><use ffdec:characterId="3" xlink:href="#a" width="9.5" height="10.9"/><defs><g id="a" fill-rule="evenodd"><path fill="#430000" d="m1.3 7.7-.15-.85L1 6.2.3 3.4Q-.5.55.9.15H1Q.65.15 2.8 3.9l1.35 2.25.25.3q.75.95 1.1.65l.1-.2.1.05.2-.2-.05-.05.15-.25.2.1.3.05.15-.2h.05l.05-.2.3-.2.15.1.15.1-.2-.05-.1.25.25.1-.1.05.05.05-.05.1-.1-.05-.15-.1H6.9l-.2.3-.1-.15-.1-.05-.05.1v.35l-.2-.3-.15-.1-.1.2.15.35H5.8q-.1.05-.05.2l.1.15-.1.05-.35.25-.15.05-.1.05.1-.15V7.8l-.2-.15-.2.3H4.6l-.05-.2-.1-.1-.2.25-.05.15-.35.15-.05-.15-.25-.1-.1.15-.05.1-.15-.2-.25.25-.05.05-.15-.35-.1-.1-.1.2-.1-.1h-.3q-.2-.2-.55-.15l-.05-.1-.2-.1z"/><path fill="#a00" d="m7.25 6.6-.05-.05.1-.05zm.1-.4-.15-.1-.15-.1-.3.2-.05.2h-.05l-.15.2-.3-.05-.2-.1-.15.25.05.05-.2.2-.1-.05-.1.2q-.35.3-1.1-.65l-.25-.3L2.8 3.9Q.65.15 1 .15L2.25.2q.45.2.95.9l1.35 1.75L5.6 4.2q.8 1 .05.05l.55.6.05.05.35.35.75.85z"/><path fill="#b3b3b3" d="m1.3 7.7.1-.1.2.1.05.1q.35-.05.55.15h.3l.1.1.1-.2.1.1.15.35.05-.05.25-.25.15.2.05-.1.1-.15.25.1.05.15.35-.15.05-.15.2-.25.1.1.05.2h.25l.2-.3.2.15v.05l-.1.15.1-.05.15-.05.35-.25.05.2-.05.1v.1l-.05.15-.25.2v.15l.15.3.1.1-.25.2q-.1.15.15.25l.25.1-.05.1v.05l.05.05-.15.1-.05.1.15.25.45.05h.05l-.3.1.1.2-.25.05-.2-.25-.05.05v.15l-.05.05H5.4l.05.1-.3.1-.25-.15.05.2-.05.1h-.15l-.1-.25q-.45.15-.6.25h-.1l-.05-.15-.3.1v-.15l-.2.05v-.15h-.1l-.15.25-.2.05-.05-.35h-.2l-.55.15v-.1l-.4.05v-.25l.1-.15-.75-.1v-.2l.15-.1-.1-.1h-.5V9.5l.05-.05-.25-.15-.4-.2v-.2h.4l-.1-.3-.1-.3.05-.5q.35.15.55-.2zm6-1.2-.25-.1.1-.25.2.05v-.35l.15-.2.25.1.35-.35.15.2.05.05.2-.3.35.4.25.05q.35.2.2.55l-.05.1.25.4v.1l-.4.4.3.1v.15l-.45.2-.2.1.3.1v.15l-.1.1-.05.05-.45.25H8.3l.1.2.05.05q-.25.05-.3.2l-.3.1v.2l-.3.25-.2-.05-.15.1.05.2-.4.05v.2l-.3.15h-.2l.2-.1.05-.05-.1-.25.25-.05.05-.3h.5v-.2l.4-.15.05-.05h.1l.25-.2.2-.5.65-.1-.05-.1L8.6 8l.1-.2h.25v-.25l-.15-.3.25-.2-.1-.2-.25-.05.05-.05h.15l.2-.15.05-.1-.25-.1-.25.05-.1.05q.15-.2-.05-.35l.05-.05-.1-.3-.15.3-.05-.05-.1-.05-.05.05-.1.05-.25-.1-.15.2.1.15-.15-.05-.05-.05h-.05q-.1.15-.05.35h-.15z"/><path fill="#fff" d="m5.75 7.65.1-.05-.1-.15q-.05-.15.05-.2h.35L6 6.9l.1-.2.15.1.2.3v-.35l.05-.1.1.05.1.15.2-.3h.05l.15.1.1.05.05-.1h.15q-.05-.2.05-.35h.05l.05.05.15.05-.1-.15.15-.2.25.1.1-.05.05-.05.1.05.05.05.15-.3.1.3-.05.05q.2.15.05.35l.1-.05.25-.05.25.1-.05.1-.2.15h-.15l-.05.05.25.05.1.2-.25.2.15.3v.25H8.7l-.1.2.3.15.05.1-.65.1-.2.5-.25.2h-.1l-.05.05-.4.15v.2h-.5l-.05.3-.25.05.1.25-.05.05-.2.1h-.1l-.45-.05-.15-.25.05-.1.15-.1-.05-.05V9.6l.05-.1-.25-.1q-.25-.1-.15-.25l.25-.2-.1-.1-.15-.3V8.4l.25-.2.05-.15v-.1l.05-.1zM4.6 6.6l-.4-.45 2-1.3.05.05.35.35-.55.5-.2.15-.75.5z"/><path fill="#b3b3b3" d="m4.6 6.6-.1.05-.25.05-.55.2-2.55-.05L1 6.2l2.45.15L4 6.2l.15-.05h.05z"/></g></defs></svg>