<?xml version="1.0" encoding="UTF-8" standalone="no"?>
<svg xmlns:ffdec="https://www.free-decompiler.com/flash" xmlns:xlink="http://www.w3.org/1999/xlink" ffdec:objectType="frame" height="23.55px" width="22.5px" xmlns="http://www.w3.org/2000/svg">
  <g transform="matrix(1.0, 0.0, 0.0, 1.0, 1.3, -2.2)">
    <use ffdec:characterId="3" height="23.55" transform="matrix(1.0, 0.0, 0.0, 1.0, -1.3, 2.2)" width="22.5" xlink:href="#shape0"/>
  </g>
  <defs>
    <g id="shape0" transform="matrix(1.0, 0.0, 0.0, 1.0, 1.3, -2.2)">
      <path d="M8.3 3.15 L8.35 3.15 6.75 5.95 5.55 8.25 4.55 10.65 3.6 13.65 3.1 15.85 2.75 18.0 2.1 20.9 1.15 23.25 0.0 24.8 -0.8 24.5 -1.3 24.7 Q0.1 22.0 0.7 18.45 1.25 14.85 3.25 10.75 L4.25 8.8 6.1 5.9 8.3 3.15 M9.4 3.75 L9.5 3.8 8.0 9.25 6.55 14.85 Q5.8 17.8 5.45 20.25 L5.05 24.4 5.0 25.4 4.85 25.4 4.2 25.4 2.55 25.3 2.3 25.3 3.25 22.2 4.25 18.3 4.9 14.35 5.7 10.45 Q6.25 8.5 7.2 6.5 L8.9 3.5 8.95 3.55 9.0 3.55 9.15 3.65 9.4 3.75 M10.7 3.75 L11.0 3.65 12.35 5.75 13.55 8.0 14.55 10.9 15.8 15.45 17.25 21.65 18.1 25.05 16.1 25.6 15.6 25.6 15.6 25.3 15.0 20.85 14.15 16.3 13.5 13.5 12.5 9.95 11.7 7.1 10.7 3.75 M10.2 3.9 L10.3 3.9 10.65 5.85 10.85 9.35 11.0 12.1 11.15 15.5 11.35 19.3 11.55 22.35 11.8 25.1 9.8 24.9 8.9 24.95 8.9 22.9 8.9 18.95 8.95 15.1 9.1 11.75 9.55 8.2 9.95 3.9 10.2 3.9 M21.2 23.95 L20.85 24.3 20.45 24.45 19.35 21.6 18.25 17.65 17.0 13.65 15.5 9.9 13.4 6.1 11.45 3.4 11.65 3.3 Q13.65 5.0 16.1 9.5 18.55 14.0 19.4 17.7 20.25 21.45 20.75 22.6 L21.2 23.95" fill="#2b73a0" fill-rule="evenodd" stroke="none"/>
      <path d="M9.5 3.8 L9.55 3.8 9.95 3.9 9.55 8.2 9.1 11.75 8.95 15.1 8.9 18.95 8.9 22.9 8.9 24.95 7.55 25.15 5.0 25.4 5.05 24.4 5.45 20.25 Q5.8 17.8 6.55 14.85 L8.0 9.25 9.5 3.8 M8.35 3.15 L8.9 3.5 7.2 6.5 Q6.25 8.5 5.7 10.45 L4.9 14.35 4.25 18.3 3.25 22.2 2.3 25.3 0.0 24.8 1.15 23.25 2.1 20.9 2.75 18.0 3.1 15.85 3.6 13.65 4.55 10.65 5.55 8.25 6.75 5.95 8.35 3.15 M10.65 5.85 L10.3 3.9 10.7 3.75 11.7 7.1 12.5 9.95 13.5 13.5 14.15 16.3 15.0 20.85 15.6 25.3 15.6 25.6 15.05 25.6 13.0 25.3 11.8 25.1 11.55 22.35 11.35 19.3 11.15 15.5 11.0 12.1 10.85 9.35 10.65 5.85 M11.0 3.65 L11.15 3.55 11.45 3.4 13.4 6.1 15.5 9.9 17.0 13.65 18.25 17.65 19.35 21.6 20.45 24.45 18.8 25.0 18.1 25.05 17.25 21.65 15.8 15.45 14.55 10.9 13.55 8.0 12.35 5.75 11.0 3.65" fill="#ffffff" fill-rule="evenodd" stroke="none"/>
      <path d="M4.95 19.5 L5.0 19.55 4.8 19.5 4.95 19.5 M12.0 5.5 L12.0 5.55 12.0 5.5 M11.9 3.4 L11.9 3.45 12.2 3.8 12.25 3.9 12.25 4.5 12.3 4.55 12.1 4.95 Q11.8 5.5 11.25 5.5 L10.35 5.2 10.0 4.85 Q9.6 5.45 8.9 5.45 7.55 5.45 7.55 4.2 L7.8 3.9 8.0 3.55 8.2 3.7 8.1 3.9 8.35 4.4 8.75 4.7 Q9.15 4.7 9.45 4.2 L9.6 3.95 9.95 4.05 10.4 4.0 10.45 4.1 Q10.7 4.55 11.25 4.55 L11.55 4.0 11.9 3.4 M4.8 22.8 L4.65 24.9 4.45 25.4 3.1 25.4 1.2 25.15 1.95 23.7 Q2.45 21.9 4.55 21.15 L4.8 22.8 M13.05 22.85 Q14.55 23.7 15.65 25.0 L16.2 25.75 14.2 25.65 14.15 25.65 12.1 25.3 7.75 25.05 Q8.1 24.3 9.4 23.35 11.55 21.75 13.05 22.85" fill="#011e38" fill-opacity="0.21176471" fill-rule="evenodd" stroke="none"/>
      <path d="M10.95 5.0 Q10.55 5.0 10.25 4.5 L10.05 3.85 Q11.35 3.55 11.6 2.85 12.0 3.4 12.0 3.95 L11.95 4.45 Q11.7 5.0 10.95 5.0 M9.05 5.0 Q8.3 5.0 8.05 4.45 L7.95 3.95 Q7.95 3.4 8.4 2.85 8.65 3.55 9.95 3.85 L9.75 4.5 9.05 5.0" fill="#ffffff" fill-rule="evenodd" stroke="none"/>
      <path d="M12.1 4.05 L11.7 3.4 Q11.6 2.95 11.85 2.6 12.1 2.2 12.5 2.2 L13.3 2.4 13.7 3.05 13.5 3.85 13.3 4.05 13.3 4.0 13.5 3.3 Q13.45 2.95 13.1 2.75 L12.55 2.6 12.05 2.95 Q11.85 3.25 11.95 3.6 L12.1 4.05" fill="#ffcc66" fill-rule="evenodd" stroke="none"/>
      <path d="M12.1 4.05 L11.95 3.6 Q11.85 3.25 12.05 2.95 L12.55 2.6 13.1 2.75 Q13.45 2.95 13.5 3.3 L13.3 4.0 13.3 4.05 13.1 4.15 12.8 4.3 Q12.5 4.35 12.25 4.1 L12.2 4.1 12.1 4.05" fill="#ffae12" fill-rule="evenodd" stroke="none"/>
      <path d="M6.65 4.4 Q6.35 4.2 6.2 3.7 6.15 3.25 6.4 2.95 6.6 2.55 7.05 2.5 L7.8 2.7 8.15 3.4 8.0 4.2 7.85 4.4 7.85 4.3 8.0 3.6 Q8.0 3.25 7.65 3.05 L7.1 2.9 Q6.75 3.0 6.55 3.25 6.4 3.6 6.4 3.9 L6.65 4.4" fill="#99cc33" fill-rule="evenodd" stroke="none"/>
      <path d="M6.65 4.4 L6.4 3.9 Q6.4 3.6 6.55 3.25 6.75 3.0 7.1 2.9 L7.65 3.05 Q8.0 3.25 8.0 3.6 L7.85 4.3 7.85 4.4 7.6 4.5 7.35 4.65 6.75 4.45 6.65 4.4" fill="#6ba100" fill-rule="evenodd" stroke="none"/>
      <path d="M5.8 5.75 L5.35 5.1 Q5.35 4.65 5.6 4.3 5.8 3.95 6.2 3.9 L6.95 4.05 7.35 4.75 7.2 5.5 6.8 5.85 7.0 5.6 7.15 5.0 6.85 4.45 6.2 4.3 5.65 4.65 5.55 5.3 5.8 5.75" fill="#47d2d2" fill-rule="evenodd" stroke="none"/>
      <path d="M5.8 5.75 L5.55 5.3 5.65 4.65 6.2 4.3 6.85 4.45 7.15 5.0 7.0 5.6 6.8 5.85 6.5 6.0 5.9 5.85 5.85 5.8 5.8 5.75" fill="#298787" fill-rule="evenodd" stroke="none"/>
      <path d="M5.3 7.6 L4.85 6.95 Q4.8 6.5 5.0 6.15 5.25 5.8 5.65 5.75 L6.45 5.9 6.85 6.6 6.65 7.35 6.5 7.55 6.5 7.5 6.65 6.85 6.3 6.25 5.7 6.1 5.2 6.5 Q5.0 6.8 5.05 7.15 L5.3 7.6" fill="#ffcc66" fill-rule="evenodd" stroke="none"/>
      <path d="M5.3 7.6 L5.05 7.15 Q5.0 6.8 5.2 6.5 L5.7 6.1 6.3 6.25 6.65 6.85 6.5 7.5 6.5 7.55 6.3 7.7 6.0 7.85 5.4 7.65 5.35 7.65 5.3 7.6" fill="#ffae12" fill-rule="evenodd" stroke="none"/>
      <path d="M5.25 9.65 Q4.95 9.4 4.8 8.95 4.75 8.55 5.0 8.2 5.2 7.8 5.65 7.75 6.1 7.7 6.4 7.95 L6.8 8.65 6.6 9.4 6.45 9.6 6.45 9.55 6.6 8.85 6.3 8.3 5.7 8.15 Q5.35 8.25 5.15 8.55 L5.05 9.15 5.25 9.65" fill="#ff6699" fill-rule="evenodd" stroke="none"/>
      <path d="M5.25 9.65 L5.05 9.15 5.15 8.55 Q5.35 8.25 5.7 8.15 L6.3 8.3 6.6 8.85 6.45 9.55 6.45 9.6 6.25 9.75 5.95 9.9 5.35 9.7 5.3 9.7 5.25 9.65" fill="#ec3874" fill-rule="evenodd" stroke="none"/>
      <path d="M12.8 12.35 L12.3 11.65 Q12.25 11.25 12.5 10.9 12.75 10.5 13.15 10.45 L13.95 10.65 14.3 11.3 14.15 12.1 14.0 12.3 14.0 12.25 14.15 11.55 13.8 11.0 13.2 10.85 Q12.85 10.95 12.7 11.25 12.5 11.5 12.55 11.85 L12.8 12.35" fill="#47d2d2" fill-rule="evenodd" stroke="none"/>
      <path d="M12.8 12.35 L12.55 11.85 Q12.5 11.5 12.7 11.25 12.85 10.95 13.2 10.85 L13.8 11.0 14.15 11.55 14.0 12.25 14.0 12.3 13.75 12.45 13.5 12.6 12.85 12.4 12.8 12.35" fill="#298787" fill-rule="evenodd" stroke="none"/>
      <path d="M5.6 11.3 L5.15 10.65 Q5.1 10.2 5.35 9.85 5.55 9.5 6.0 9.45 6.45 9.4 6.75 9.65 7.1 9.85 7.15 10.3 L6.95 11.1 6.8 11.25 6.8 11.2 6.95 10.55 6.65 9.95 6.0 9.8 Q5.7 9.9 5.5 10.2 5.35 10.5 5.35 10.85 5.4 11.15 5.6 11.3" fill="#99cc33" fill-rule="evenodd" stroke="none"/>
      <path d="M5.6 11.3 Q5.4 11.15 5.35 10.85 5.35 10.5 5.5 10.2 5.7 9.9 6.0 9.8 L6.65 9.95 6.95 10.55 6.8 11.2 6.8 11.25 6.6 11.4 6.3 11.55 5.7 11.35 5.65 11.35 5.6 11.3" fill="#6ba100" fill-rule="evenodd" stroke="none"/>
      <path d="M12.75 13.6 L12.75 13.55 12.9 12.85 12.6 12.3 12.0 12.15 Q11.65 12.25 11.45 12.55 L11.35 13.15 11.55 13.65 Q11.25 13.4 11.1 12.95 11.05 12.55 11.3 12.2 11.5 11.8 11.95 11.75 12.4 11.7 12.7 11.95 L13.1 12.65 12.9 13.4 12.75 13.6" fill="#ff6699" fill-rule="evenodd" stroke="none"/>
      <path d="M11.55 13.65 L11.35 13.15 11.45 12.55 Q11.65 12.25 12.0 12.15 L12.6 12.3 12.9 12.85 12.75 13.55 12.75 13.6 12.55 13.75 12.25 13.9 11.65 13.7 11.6 13.7 11.55 13.65" fill="#ec3874" fill-rule="evenodd" stroke="none"/>
      <path d="M9.75 14.05 L9.3 13.35 Q9.25 12.95 9.5 12.6 9.7 12.2 10.15 12.15 10.6 12.1 10.9 12.35 L11.3 13.05 11.1 13.8 10.95 14.0 10.95 13.95 11.1 13.25 10.8 12.7 10.15 12.55 Q9.85 12.65 9.65 12.95 L9.5 13.55 9.75 14.05" fill="#ffcc66" fill-rule="evenodd" stroke="none"/>
      <path d="M9.75 14.05 L9.5 13.55 9.65 12.95 Q9.85 12.65 10.15 12.55 L10.8 12.7 11.1 13.25 10.95 13.95 10.95 14.0 10.75 14.15 10.45 14.3 9.85 14.1 9.8 14.1 9.75 14.05" fill="#ffae12" fill-rule="evenodd" stroke="none"/>
      <path d="M6.65 12.8 L6.15 12.1 Q6.1 11.7 6.35 11.35 6.6 10.95 7.0 10.9 L7.8 11.1 8.15 11.8 8.0 12.55 7.85 12.75 7.85 12.7 8.0 12.05 7.65 11.45 7.05 11.3 6.55 11.7 6.4 12.3 6.65 12.8" fill="#ffcc66" fill-rule="evenodd" stroke="none"/>
      <path d="M6.65 12.8 L6.4 12.3 6.55 11.7 7.05 11.3 7.65 11.45 8.0 12.05 7.85 12.7 7.85 12.75 7.6 12.9 7.35 13.05 6.75 12.85 6.7 12.85 6.65 12.8" fill="#ffae12" fill-rule="evenodd" stroke="none"/>
      <path d="M7.55 13.2 L7.55 12.45 Q7.75 12.05 8.2 12.0 8.65 11.8 8.95 12.0 L9.45 12.7 Q9.55 13.1 9.3 13.4 L8.75 14.0 8.5 14.0 9.05 13.55 9.15 12.9 8.75 12.3 8.05 12.3 7.6 12.7 7.55 13.2" fill="#47d2d2" fill-rule="evenodd" stroke="none"/>
      <path d="M7.55 13.2 L7.6 12.7 8.05 12.3 8.75 12.3 9.15 12.9 9.05 13.55 8.5 14.0 8.25 14.0 Q8.05 14.0 7.95 13.85 L7.55 13.35 7.55 13.3 7.55 13.2" fill="#298787" fill-rule="evenodd" stroke="none"/>
      <path d="M13.05 5.55 L12.6 4.8 12.8 4.05 Q13.05 3.65 13.45 3.65 13.9 3.6 14.25 3.85 14.55 4.05 14.65 4.5 L14.4 5.3 14.05 5.6 14.3 5.35 14.45 4.75 14.05 4.15 13.5 4.05 Q13.15 4.1 12.95 4.35 L12.8 5.0 13.05 5.55" fill="#47d2d2" fill-rule="evenodd" stroke="none"/>
      <path d="M13.05 5.55 L12.8 5.0 12.95 4.35 Q13.15 4.1 13.5 4.05 L14.05 4.15 14.45 4.75 14.3 5.35 14.05 5.6 13.75 5.75 13.15 5.6 13.05 5.55" fill="#298787" fill-rule="evenodd" stroke="none"/>
      <path d="M14.85 7.2 L14.85 7.15 15.0 6.45 14.65 5.9 14.05 5.7 13.55 6.1 13.4 6.75 13.6 7.2 13.15 6.55 Q13.1 6.1 13.35 5.8 13.6 5.4 14.0 5.3 L14.8 5.5 15.15 6.25 15.0 7.0 14.85 7.2" fill="#ff6699" fill-rule="evenodd" stroke="none"/>
      <path d="M13.6 7.2 L13.4 6.75 13.55 6.1 14.05 5.7 14.65 5.9 15.0 6.45 14.85 7.15 14.85 7.2 14.6 7.35 14.3 7.45 13.7 7.3 13.65 7.3 13.6 7.2" fill="#ec3874" fill-rule="evenodd" stroke="none"/>
      <path d="M13.7 9.0 Q13.4 8.8 13.25 8.35 13.2 7.9 13.45 7.55 13.7 7.2 14.1 7.2 L14.9 7.4 15.25 8.05 15.1 8.8 14.9 9.0 14.9 8.95 15.1 8.3 14.7 7.7 14.15 7.55 13.65 7.9 13.5 8.55 13.7 9.0" fill="#ffcc66" fill-rule="evenodd" stroke="none"/>
      <path d="M13.7 9.0 L13.5 8.55 13.65 7.9 14.15 7.55 14.7 7.7 15.1 8.3 14.9 8.95 14.9 9.0 14.7 9.15 14.4 9.25 13.8 9.1 13.75 9.1 13.7 9.0" fill="#ffae12" fill-rule="evenodd" stroke="none"/>
      <path d="M13.5 10.9 L13.1 10.25 Q13.0 9.75 13.25 9.45 L13.9 9.0 14.65 9.2 Q15.05 9.45 15.05 9.9 L14.85 10.7 14.7 10.9 14.7 10.8 14.85 10.1 Q14.85 9.75 14.55 9.55 L13.95 9.4 Q13.6 9.5 13.4 9.75 L13.25 10.4 13.5 10.9" fill="#99cc33" fill-rule="evenodd" stroke="none"/>
      <path d="M13.5 10.9 L13.25 10.4 13.4 9.75 Q13.6 9.5 13.95 9.4 L14.55 9.55 Q14.85 9.75 14.85 10.1 L14.7 10.8 14.7 10.9 14.45 11.0 14.2 11.15 13.6 10.95 13.5 10.9" fill="#6ba100" fill-rule="evenodd" stroke="none"/>
    </g>
  </defs>
</svg>
