<?xml version="1.0" encoding="UTF-8" standalone="no"?>
<svg xmlns:ffdec="https://www.free-decompiler.com/flash" xmlns:xlink="http://www.w3.org/1999/xlink" ffdec:objectType="frame" height="4.6px" width="4.8px" xmlns="http://www.w3.org/2000/svg">
  <g transform="matrix(1.0, 0.0, 0.0, 1.0, 0.15, -3.35)">
    <use ffdec:characterId="5" height="4.6" transform="matrix(1.0, 0.0, 0.0, 1.0, -0.15, 3.35)" width="4.8" xlink:href="#shape0"/>
  </g>
  <defs>
    <g id="shape0" transform="matrix(1.0, 0.0, 0.0, 1.0, 0.15, -3.35)">
      <path d="M3.8 5.25 L4.0 5.0 4.1 5.05 4.2 5.2 4.15 5.35 3.95 5.4 3.8 5.25 M2.65 5.15 L2.75 5.2 2.85 5.35 2.8 5.5 2.6 5.55 2.45 5.4 2.65 5.15 M3.25 5.15 L3.45 4.95 3.65 5.15 3.6 5.35 3.45 5.4 3.25 5.15 M3.5 4.45 L3.45 4.6 3.25 4.65 3.1 4.5 3.3 4.25 3.4 4.3 3.5 4.45 M4.0 4.25 L3.95 4.4 3.75 4.45 3.6 4.3 3.8 4.05 3.9 4.1 4.0 4.25 M2.15 5.65 L2.1 5.8 1.9 5.85 1.75 5.7 1.95 5.45 2.05 5.5 2.15 5.65 M2.1 4.85 L2.05 5.0 1.85 5.05 1.65 4.85 1.7 4.7 Q2.1 4.6 2.1 4.85 M0.75 5.0 Q0.25 5.35 0.3 5.55 L-0.05 5.0 Q1.0 3.6 3.4 3.6 L3.65 4.1 2.7 4.25 2.65 4.45 2.75 4.6 2.7 4.75 2.5 4.8 2.35 4.65 2.55 4.3 Q1.45 4.55 0.75 5.0 M1.15 5.9 L1.25 5.95 1.35 6.1 1.3 6.25 1.1 6.3 0.95 6.15 1.15 5.9 M0.5 5.85 L0.35 5.7 0.55 5.45 0.65 5.5 0.7 5.55 0.75 5.65 0.7 5.8 0.5 5.85 M0.5 6.0 L0.6 6.05 0.7 6.2 0.65 6.35 0.45 6.4 0.3 6.25 0.5 6.0 M1.0 5.1 L1.2 4.85 1.3 4.9 1.4 5.05 1.35 5.2 1.15 5.25 1.0 5.1 M4.6 6.8 L4.4 7.05 Q3.85 7.05 4.15 5.65 L4.4 6.2 4.6 6.8 M3.0 6.75 Q3.25 7.6 2.6 7.45 L2.5 7.0 2.65 5.95 3.0 6.75 M3.45 7.25 Q3.3 7.15 3.3 6.4 L3.4 5.75 3.65 6.6 Q3.8 7.35 3.45 7.25 M1.4 7.0 L1.55 7.65 1.25 7.95 Q1.1 7.95 1.1 7.5 L1.2 6.65 1.4 7.0 M2.25 7.6 L2.05 7.8 1.8 7.25 1.95 6.3 2.25 7.6 M0.25 7.6 L0.4 6.7 0.4 6.65 0.7 7.6 0.45 7.95 0.25 7.6" fill="#6b5712" fill-opacity="0.49803922" fill-rule="evenodd" stroke="none"/>
      <path d="M3.45 3.35 L3.7 3.85 Q1.85 4.05 0.8 4.75 0.3 5.1 0.15 5.4 L-0.15 4.95 Q1.05 3.35 3.45 3.35" fill="url(#gradient0)" fill-rule="evenodd" stroke="none"/>
      <path d="M2.9 5.1 L2.85 5.25 2.65 5.3 2.5 5.15 2.7 4.9 2.8 4.95 2.9 5.1 M3.5 4.7 L3.7 4.9 3.65 5.1 3.5 5.15 3.3 4.9 3.5 4.7 M3.35 4.0 L3.45 4.05 3.55 4.2 3.5 4.35 3.3 4.4 3.15 4.25 3.35 4.0 M2.7 4.2 L2.8 4.35 2.75 4.5 2.55 4.55 2.4 4.4 2.6 4.15 2.7 4.2 M4.05 4.0 L4.0 4.15 3.8 4.2 3.65 4.05 3.85 3.8 3.95 3.85 4.05 4.0 M2.0 5.2 L2.1 5.25 2.2 5.4 2.15 5.55 1.95 5.6 1.8 5.45 2.0 5.2 M1.0 5.9 L1.2 5.65 1.3 5.7 1.4 5.85 1.35 6.0 1.15 6.05 1.0 5.9 M0.5 6.15 L0.35 6.0 0.55 5.75 0.65 5.8 0.75 5.95 0.7 6.1 0.5 6.15 M0.7 5.25 L0.75 5.3 0.8 5.4 0.75 5.55 0.55 5.6 0.4 5.45 0.6 5.2 0.7 5.25 M1.2 5.0 L1.05 4.85 1.25 4.6 1.35 4.65 1.45 4.8 1.4 4.95 1.2 5.0 M1.75 4.45 Q2.15 4.35 2.15 4.6 L2.1 4.75 1.9 4.8 1.7 4.6 1.75 4.45 M3.45 5.5 L3.7 6.35 Q3.85 7.1 3.5 7.0 3.35 6.9 3.35 6.15 L3.45 5.5 M4.45 5.95 L4.65 6.55 4.45 6.8 Q3.9 6.8 4.2 5.4 L4.45 5.95 M1.45 6.75 L1.6 7.4 1.3 7.7 Q1.15 7.7 1.15 7.25 L1.25 6.4 1.45 6.75 M2.65 7.2 L2.55 6.75 2.7 5.7 3.05 6.5 Q3.3 7.35 2.65 7.2 M4.05 4.75 L4.15 4.8 4.25 4.95 4.2 5.1 4.0 5.15 3.85 5.0 4.05 4.75 M1.85 7.0 L2.0 6.05 2.3 7.35 2.1 7.55 1.85 7.0 M0.45 6.4 L0.75 7.35 0.5 7.7 Q0.3 7.7 0.3 7.35 L0.45 6.45 0.45 6.4" fill="url(#gradient1)" fill-rule="evenodd" stroke="none"/>
    </g>
    <radialGradient cx="0" cy="0" gradientTransform="matrix(0.0035, 0.0, 0.0, 0.0035, 1.8, 4.4)" gradientUnits="userSpaceOnUse" id="gradient0" r="819.2" spreadMethod="pad">
      <stop offset="0.0" stop-color="#ffe58e"/>
      <stop offset="1.0" stop-color="#e0b833"/>
    </radialGradient>
    <radialGradient cx="0" cy="0" gradientTransform="matrix(0.0, 0.0, 0.0, 0.0, 0.0, 0.0)" gradientUnits="userSpaceOnUse" id="gradient1" r="819.2" spreadMethod="pad">
      <stop offset="0.0" stop-color="#ffe58e"/>
      <stop offset="1.0" stop-color="#e0b833"/>
    </radialGradient>
  </defs>
</svg>
