<?xml version="1.0" encoding="UTF-8" standalone="no"?>
<svg xmlns:ffdec="https://www.free-decompiler.com/flash" xmlns:xlink="http://www.w3.org/1999/xlink" ffdec:objectType="frame" height="21.2px" width="20.35px" xmlns="http://www.w3.org/2000/svg">
  <g transform="matrix(1.0, 0.0, 0.0, 1.0, 0.15, -3.45)">
    <use ffdec:characterId="3" height="21.2" transform="matrix(1.0, 0.0, 0.0, 1.0, -0.15, 3.45)" width="20.35" xlink:href="#shape0"/>
  </g>
  <defs>
    <g id="shape0" transform="matrix(1.0, 0.0, 0.0, 1.0, 0.15, -3.45)">
      <path d="M11.7 4.7 Q12.1 4.0 11.75 3.45 17.0 8.2 19.35 19.25 L20.0 22.7 20.1 22.7 20.1 22.85 Q17.15 23.75 14.15 24.1 12.95 23.5 11.55 23.5 L10.95 23.5 9.1 23.8 8.25 24.1 Q4.15 23.75 -0.05 22.25 L0.5 19.45 Q1.5 14.25 3.15 10.75 4.8 7.25 6.65 5.05 8.0 3.35 8.35 3.5 8.15 4.05 8.3 4.4 L8.8 5.1 10.2 5.4 Q11.2 5.4 11.7 4.7" fill="#0384af" fill-rule="evenodd" stroke="none"/>
      <path d="M13.7 5.5 L14.2 6.3 13.5 6.5 12.75 6.2 Q12.5 5.9 12.5 5.45 L12.55 5.2 12.75 4.75 12.9 4.65 13.7 5.5 M10.7 7.7 L10.35 8.45 9.65 8.75 8.9 8.45 Q8.6 8.15 8.6 7.7 8.6 7.3 8.9 7.0 9.2 6.7 9.65 6.7 L10.35 7.0 Q10.7 7.3 10.7 7.7 M15.1 9.95 Q15.45 9.95 15.8 10.25 L16.1 11.0 15.8 11.75 15.1 12.0 14.35 11.75 Q14.05 11.4 14.05 11.0 14.05 10.6 14.35 10.25 14.65 9.95 15.1 9.95 M4.9 10.55 L4.6 11.3 3.85 11.55 3.1 11.3 3.05 11.05 3.35 10.4 3.7 9.7 3.85 9.5 Q4.25 9.5 4.6 9.8 L4.9 10.55 M8.6 12.8 L8.9 13.5 8.6 14.25 7.85 14.55 Q7.45 14.55 7.1 14.25 6.85 13.95 6.85 13.5 6.85 13.1 7.1 12.8 7.45 12.45 7.85 12.45 8.25 12.45 8.6 12.8 M10.05 18.0 L10.35 18.7 10.05 19.45 9.35 19.75 Q8.9 19.75 8.6 19.45 8.3 19.15 8.3 18.7 8.3 18.35 8.6 18.0 8.9 17.7 9.35 17.7 9.7 17.7 10.05 18.0 M1.5 15.3 L1.85 14.2 2.3 14.45 2.6 15.2 2.3 15.95 1.6 16.2 1.3 16.2 1.5 15.3 M4.25 17.5 L4.55 18.2 4.25 18.95 3.5 19.25 2.75 18.95 Q2.5 18.65 2.5 18.2 L2.75 17.5 Q3.1 17.2 3.5 17.2 L4.25 17.5 M4.4 20.7 Q5.0 21.35 5.1 22.1 5.15 21.6 5.75 20.85 6.6 20.15 7.55 20.15 8.55 20.15 9.35 20.85 9.9 21.45 10.05 22.35 L10.05 22.3 Q10.0 21.7 10.75 20.85 11.6 20.15 12.6 20.15 13.55 20.15 14.35 20.85 15.0 21.55 15.05 22.55 L15.05 22.3 Q14.95 21.75 15.7 20.85 16.55 20.15 17.5 20.15 18.5 20.15 19.05 20.65 L19.4 20.95 Q19.75 21.25 20.0 22.2 L20.2 23.35 20.0 23.55 19.95 23.55 17.65 24.3 17.35 24.35 15.55 24.4 12.45 24.0 11.4 23.9 9.2 24.2 6.6 24.65 5.85 24.6 5.75 24.6 3.7 24.25 1.0 23.6 0.5 23.4 -0.15 23.1 0.2 21.1 0.25 21.0 0.3 20.95 Q0.9 20.2 1.8 20.05 L2.4 19.9 3.25 19.95 4.4 20.7 M18.2 14.7 L17.8 14.75 17.05 14.45 16.8 13.7 17.05 13.0 17.55 12.75 18.0 14.15 18.2 14.7 M17.2 17.7 Q16.85 18.0 16.5 18.0 16.05 18.0 15.75 17.7 15.45 17.4 15.45 16.95 15.45 16.6 15.75 16.25 16.05 15.95 16.5 15.95 16.85 15.95 17.2 16.25 L17.5 16.95 17.2 17.7 M10.95 14.5 Q11.3 14.5 11.65 14.85 L11.95 15.55 11.65 16.3 10.95 16.55 10.2 16.3 Q9.9 15.95 9.9 15.55 9.9 15.15 10.2 14.85 10.5 14.5 10.95 14.5" fill="#ffffff" fill-rule="evenodd" stroke="none"/>
      <path d="M14.25 8.2 L13.9 8.95 Q13.6 9.25 13.2 9.25 12.75 9.25 12.45 8.95 12.15 8.65 12.15 8.2 12.15 7.8 12.45 7.5 12.75 7.15 13.2 7.15 13.6 7.15 13.9 7.5 L14.25 8.2 M11.15 10.35 Q11.55 10.35 11.85 10.7 12.2 11.0 12.2 11.4 L11.85 12.15 11.15 12.45 Q10.75 12.45 10.4 12.15 10.1 11.85 10.1 11.4 10.1 11.0 10.4 10.7 10.75 10.35 11.15 10.35 M6.75 6.1 Q7.1 6.4 7.1 6.8 7.1 7.25 6.75 7.55 L6.05 7.85 5.3 7.55 5.05 7.2 6.05 5.75 Q6.45 5.75 6.75 6.1 M6.7 10.75 Q6.4 10.45 6.4 10.0 6.4 9.6 6.7 9.3 7.0 9.0 7.45 9.0 7.85 9.0 8.15 9.3 8.5 9.6 8.5 10.0 8.5 10.45 8.15 10.75 L7.45 11.05 Q7.0 11.05 6.7 10.75 M5.65 13.5 L5.3 14.25 Q5.0 14.55 4.6 14.55 4.15 14.55 3.85 14.25 3.55 13.95 3.55 13.5 3.55 13.1 3.85 12.8 4.15 12.45 4.6 12.45 5.0 12.45 5.3 12.8 L5.65 13.5 M7.55 15.85 L7.85 16.55 7.55 17.3 6.85 17.6 Q6.4 17.6 6.1 17.3 5.8 17.0 5.8 16.55 5.8 16.2 6.1 15.85 6.4 15.55 6.85 15.55 7.2 15.55 7.55 15.85 M0.55 19.15 L0.6 18.95 0.75 18.05 1.05 18.8 0.75 19.55 0.6 19.65 0.5 19.7 0.55 19.15 M18.5 17.6 L18.8 17.45 19.15 18.65 19.3 19.35 19.25 19.35 18.5 19.1 18.25 18.35 Q18.25 17.95 18.5 17.6 M14.7 13.45 L15.0 14.2 14.7 14.95 13.95 15.2 13.2 14.95 12.95 14.2 Q12.95 13.8 13.2 13.45 13.55 13.15 13.95 13.15 L14.7 13.45 M13.45 17.3 Q13.85 17.3 14.15 17.6 L14.5 18.3 Q14.5 18.75 14.15 19.05 L13.45 19.35 Q13.05 19.35 12.7 19.05 12.4 18.75 12.4 18.3 12.4 17.95 12.7 17.6 13.05 17.3 13.45 17.3" fill="#6cd6f0" fill-rule="evenodd" stroke="none"/>
      <path d="M11.8 6.45 L10.65 7.25 9.45 7.4 Q8.5 7.05 8.2 6.4 L8.15 6.2 8.6 6.4 9.35 6.6 10.15 6.5 12.1 6.1 11.8 6.45 M11.35 5.9 L9.4 6.05 8.3 5.75 7.75 5.15 7.75 4.6 7.9 4.3 7.95 4.45 Q8.05 5.65 10.45 5.65 11.65 5.65 12.2 4.45 L12.35 4.0 Q12.6 5.65 11.35 5.9 M9.9 24.0 L7.85 24.6 6.7 24.65 Q6.55 24.55 7.15 23.15 7.7 21.75 8.6 20.7 9.45 19.6 10.45 18.85 11.0 18.45 11.25 18.65 L11.3 18.95 11.0 20.6 Q10.7 21.65 10.7 22.35 L10.85 23.75 10.9 23.9 10.9 23.95 9.9 24.0 M12.6 16.95 L12.7 16.65 12.75 16.6 12.75 16.55 12.85 16.3 13.1 16.85 13.6 18.35 13.6 18.7 13.3 19.8 12.45 20.7 12.05 21.1 Q11.8 20.9 11.8 20.2 11.8 19.5 12.15 18.5 L12.6 16.95 M13.85 23.8 L14.65 23.2 15.3 22.4 15.5 21.95 15.55 21.85 15.8 21.1 15.8 21.0 16.0 20.45 16.3 18.45 16.6 19.5 16.8 20.8 16.8 21.75 16.8 22.45 16.7 23.35 16.4 24.05 15.85 24.05 14.6 23.8 13.85 23.8" fill="#033b6d" fill-opacity="0.40784314" fill-rule="evenodd" stroke="none"/>
    </g>
  </defs>
</svg>
