<?xml version="1.0" encoding="UTF-8" standalone="no"?>
<svg xmlns:ffdec="https://www.free-decompiler.com/flash" xmlns:xlink="http://www.w3.org/1999/xlink" ffdec:objectType="frame" height="35.85px" width="22.3px" xmlns="http://www.w3.org/2000/svg">
  <g transform="matrix(1.0, 0.0, 0.0, 1.0, 1.1, 0.0)">
    <use ffdec:characterId="3" height="35.85" transform="matrix(1.0, 0.0, 0.0, 1.0, -1.1, 0.0)" width="22.3" xlink:href="#shape0"/>
  </g>
  <defs>
    <g id="shape0" transform="matrix(1.0, 0.0, 0.0, 1.0, 1.1, 0.0)">
      <path d="M19.5 34.9 L19.4 32.75 19.35 32.4 18.9 31.25 14.35 31.35 14.5 32.3 14.55 33.55 14.15 35.6 13.95 35.6 9.55 35.85 6.7 35.7 Q6.3 34.85 6.55 33.7 L6.7 33.0 Q7.4 32.5 8.15 32.15 L8.65 31.95 10.4 31.55 10.8 31.45 14.35 31.35 14.3 31.25 12.1 31.15 15.15 30.85 20.35 31.25 20.5 32.15 Q20.7 31.9 20.75 32.4 L20.8 32.6 20.75 34.35 Q20.8 34.65 19.5 34.9 M0.85 34.95 L0.2 34.75 -0.3 34.25 -0.4 32.45 -0.45 32.25 -0.4 32.0 -0.2 31.85 Q0.0 31.85 0.1 32.0 L0.1 32.1 0.1 32.5 0.5 32.5 0.6 32.85 0.85 34.95" fill="#ffffff" fill-rule="evenodd" stroke="none"/>
      <path d="M14.15 35.6 L14.55 33.55 14.5 32.3 14.35 31.35 18.9 31.25 19.35 32.4 19.4 32.75 19.5 34.9 19.05 35.0 14.15 35.6 M12.1 31.15 L14.3 31.25 14.35 31.35 10.8 31.45 12.05 31.15 12.1 31.15 M8.65 31.95 L8.15 32.15 Q7.4 32.5 6.7 33.0 L6.55 33.7 Q6.3 34.85 6.7 35.7 L6.25 35.65 3.65 35.45 0.85 34.95 0.6 32.85 0.5 32.5 1.9 32.55 2.4 32.5 4.3 32.5 7.15 32.15 7.8 32.05 8.65 31.95" fill="#c9d0d7" fill-rule="evenodd" stroke="none"/>
      <path d="M13.05 3.4 L13.25 3.5 13.65 3.85 13.75 3.95 14.1 4.6 14.05 4.75 14.0 4.8 14.25 5.15 14.3 5.25 14.4 5.5 14.45 5.6 14.45 5.65 14.65 6.05 15.7 8.2 16.6 10.25 17.4 12.2 19.05 15.85 Q20.5 18.95 20.55 20.1 20.6 20.95 20.0 21.4 L19.85 21.5 19.5 21.7 19.65 22.0 19.95 23.45 20.4 26.45 21.2 32.3 21.2 32.45 21.2 32.55 Q21.05 33.1 19.6 33.4 L16.85 33.9 16.4 33.95 14.9 34.1 14.65 34.1 14.55 34.1 14.4 34.05 14.1 34.1 14.05 34.1 12.5 34.15 12.15 34.15 11.95 34.15 8.35 34.15 8.1 34.1 7.7 34.15 6.45 34.1 6.0 34.05 5.95 34.05 5.55 34.1 5.95 34.0 5.2 34.1 3.7 33.95 3.25 33.9 0.5 33.4 Q-1.1 33.05 -1.1 32.45 L-1.05 32.15 -1.05 32.05 -1.0 31.95 -0.3 26.45 0.15 23.45 0.45 22.0 0.6 21.7 0.25 21.5 0.1 21.4 Q-0.5 20.95 -0.45 20.1 -0.4 18.95 1.05 15.85 L2.7 12.2 3.5 10.25 4.4 8.2 5.45 6.05 5.65 5.65 5.65 5.6 5.7 5.5 5.8 5.25 5.85 5.15 6.1 4.8 6.05 4.75 6.0 4.6 Q6.0 4.4 6.35 3.95 L6.45 3.85 6.85 3.5 7.05 3.4 7.25 3.5 6.2 4.75 6.2 5.0 Q6.1 7.05 6.5 8.45 6.9 9.85 6.65 10.1 6.35 10.35 6.2 11.1 L6.2 11.2 Q6.7 10.8 6.35 12.2 L6.25 12.45 6.25 12.55 6.3 12.9 6.7 16.1 6.9 15.75 7.5 14.25 8.45 11.5 8.5 11.45 8.55 12.7 7.7 14.8 7.25 16.0 Q7.95 15.05 8.3 15.7 L9.2 17.35 9.1 18.05 9.4 18.45 9.55 18.75 9.85 19.3 10.25 18.55 10.3 18.4 11.8 15.7 13.3 16.1 13.4 16.1 13.65 14.55 13.85 12.7 13.85 12.55 13.85 12.45 13.9 11.2 13.95 9.2 13.95 8.25 13.95 7.0 13.95 6.7 13.95 6.35 13.9 4.75 13.85 4.7 13.2 3.9 13.15 3.9 13.1 3.8 12.85 3.5 13.05 3.4" fill="#990000" fill-rule="evenodd" stroke="none"/>
      <path d="M12.2 11.2 L12.1 11.5 Q12.1 11.85 12.45 11.85 L12.75 11.5 12.7 11.3 12.45 11.55 12.2 11.3 12.2 11.2 M12.0 11.7 L12.0 11.6 12.0 11.55 Q12.0 11.15 12.35 11.05 L12.45 11.05 12.5 11.05 12.7 11.1 Q12.95 11.15 13.0 11.45 L13.0 11.55 12.95 11.8 12.85 11.95 12.6 12.1 12.35 12.1 12.0 11.7 M12.7 13.25 L12.75 13.3 12.75 13.35 12.75 13.45 12.7 13.7 12.5 13.95 12.25 14.0 12.15 14.0 12.0 14.0 11.8 13.75 11.75 13.5 11.75 13.45 11.75 13.3 11.85 13.1 11.95 13.0 12.15 12.95 12.25 12.95 12.35 12.95 12.65 13.15 12.7 13.25 M11.85 13.5 L11.85 13.6 12.25 13.75 12.4 13.7 12.5 13.6 12.55 13.45 12.45 13.2 12.3 13.45 12.2 13.45 11.9 13.2 11.85 13.4 11.85 13.5" fill="#ffffff" fill-rule="evenodd" stroke="none"/>
      <path d="M12.2 11.2 L12.2 11.3 12.45 11.55 12.7 11.3 12.75 11.5 12.45 11.85 Q12.1 11.85 12.1 11.5 L12.2 11.2 M11.85 13.5 L11.85 13.4 11.9 13.2 12.2 13.45 12.3 13.45 12.45 13.2 12.55 13.45 12.5 13.6 12.4 13.7 12.25 13.75 11.85 13.6 11.85 13.5" fill="#bbbbbb" fill-rule="evenodd" stroke="none"/>
      <path d="M10.7 9.05 L10.75 9.1 Q11.35 8.9 11.6 8.55 12.2 7.65 12.95 7.05 L12.9 7.1 12.5 8.65 12.4 9.05 12.35 9.15 11.65 11.55 11.6 11.7 10.8 14.25 10.75 14.45 10.7 14.65 10.2 16.15 10.15 16.25 10.15 15.95 10.15 15.35 10.45 12.85 10.7 11.4 9.9 11.85 9.9 11.8 10.6 9.25 10.65 9.2 10.7 9.05 M10.3 17.35 L10.35 17.3 10.5 17.0 11.1 15.75 11.15 15.7 11.4 15.1 13.0 15.45 13.0 15.35 13.35 13.0 13.4 11.95 13.4 11.35 13.45 11.05 13.45 11.0 13.45 10.65 13.5 10.15 13.55 9.05 13.55 8.65 13.55 8.35 13.6 6.85 13.6 6.8 13.6 6.55 13.95 6.35 13.95 6.7 13.95 7.0 13.95 8.25 13.95 9.2 13.9 11.2 13.85 12.45 13.85 12.55 13.85 12.7 13.65 14.55 13.4 16.1 13.3 16.1 11.8 15.7 10.5 18.05 10.3 17.35" fill="#7e4500" fill-rule="evenodd" stroke="none"/>
      <path d="M12.95 7.05 L13.6 6.55 13.6 6.8 13.6 6.85 13.55 8.35 13.55 8.65 13.55 9.05 13.5 10.15 13.45 10.65 13.45 11.0 13.45 11.05 13.4 11.35 13.4 11.95 13.35 13.0 13.0 15.35 13.0 15.45 11.4 15.1 11.15 15.7 11.1 15.75 10.5 17.0 10.35 17.3 10.3 17.35 10.3 17.25 10.15 16.25 10.2 16.15 10.7 14.65 10.75 14.45 10.8 14.25 11.6 11.7 11.65 11.55 12.35 9.15 12.4 9.05 12.5 8.65 12.9 7.1 12.95 7.05 M13.15 3.9 L12.75 3.95 12.25 4.2 12.3 4.1 Q12.35 3.55 12.6 3.45 L12.85 3.5 13.1 3.8 13.15 3.9 M10.65 8.95 L10.7 9.05 10.65 9.2 10.6 9.25 9.9 11.8 10.1 10.75 10.55 9.25 10.55 9.2 10.6 9.15 10.65 8.95 M13.0 11.45 Q12.95 11.15 12.7 11.1 L12.5 11.05 12.45 11.05 12.35 11.05 Q12.0 11.15 12.0 11.55 L12.0 11.6 12.0 11.7 12.1 12.25 12.7 12.3 12.95 12.15 13.0 11.45 M12.75 13.35 L12.75 13.3 12.7 13.25 12.7 13.15 12.65 13.15 12.35 12.95 12.25 12.95 12.15 12.95 11.95 13.0 11.85 13.1 11.8 13.15 11.75 13.25 Q11.4 13.8 11.9 14.15 L11.95 14.25 12.15 14.25 12.55 14.15 12.85 13.85 12.75 13.35" fill="#ffbe43" fill-rule="evenodd" stroke="none"/>
      <path d="M12.0 11.7 L12.35 12.1 12.6 12.1 12.9 11.95 12.95 11.8 13.0 11.55 13.0 11.45 12.95 12.15 12.7 12.3 12.1 12.25 12.0 11.7 M11.85 13.1 L11.75 13.3 11.75 13.45 11.75 13.5 11.8 13.75 12.0 14.0 12.15 14.0 12.25 14.0 12.5 13.95 12.7 13.7 12.75 13.45 12.75 13.35 12.85 13.85 12.55 14.15 12.15 14.25 11.95 14.25 11.9 14.15 Q11.4 13.8 11.75 13.25 L11.8 13.15 11.85 13.1" fill="#cb8500" fill-rule="evenodd" stroke="none"/>
      <path d="M12.7 13.25 L12.65 13.15 12.7 13.15 12.7 13.25" fill="#796818" fill-rule="evenodd" stroke="none"/>
      <path d="M12.95 7.05 L12.95 6.95 13.3 5.35 12.1 5.0 12.05 4.95 10.7 9.05 10.65 8.95 11.2 7.35 12.25 4.2 12.75 3.95 13.15 3.9 13.2 3.9 13.85 4.7 13.7 5.1 13.6 6.55 12.95 7.05 M10.15 16.25 L10.3 17.25 10.3 17.35 9.8 18.4 9.6 18.7 9.55 18.75 9.4 18.45 9.55 18.0 9.6 17.8 10.0 16.8 10.15 16.25" fill="#c99739" fill-rule="evenodd" stroke="none"/>
      <path d="M10.7 9.05 L12.05 4.95 12.1 5.0 13.3 5.35 12.95 6.95 12.95 7.05 Q12.2 7.65 11.6 8.55 11.35 8.9 10.75 9.1 L10.7 9.05 M13.6 6.55 L13.7 5.1 13.85 4.7 13.9 4.75 13.95 6.35 13.6 6.55 M10.5 18.05 L10.3 18.4 10.25 18.55 9.85 19.3 9.55 18.75 9.6 18.7 9.8 18.4 10.3 17.35 10.5 18.05 M9.4 18.45 L9.1 18.05 9.2 17.35 9.45 15.85 9.5 15.15 9.85 12.3 9.9 11.9 9.9 11.85 10.7 11.4 10.45 12.85 10.15 15.35 10.15 15.95 10.15 16.25 10.0 16.8 9.6 17.8 9.55 18.0 9.4 18.45" fill="#4f2b00" fill-rule="evenodd" stroke="none"/>
      <path d="M13.95 11.25 L14.0 11.4 14.1 11.75 14.9 14.0 16.05 17.2 Q16.65 18.8 16.55 19.55 L15.9 21.0 15.85 21.05 15.55 21.6 15.45 21.85 15.6 21.85 15.65 21.9 15.7 21.85 15.8 22.6 15.85 22.8 16.05 23.9 16.3 25.1 Q16.75 27.1 16.8 29.25 L16.9 31.9 16.95 32.35 16.9 33.05 16.9 33.35 16.85 33.9 16.4 33.95 16.55 31.55 Q16.7 29.0 16.05 25.8 L15.7 24.1 15.4 22.8 15.15 21.9 15.05 21.55 15.15 21.3 15.3 21.1 15.2 21.1 15.7 20.45 Q16.4 19.7 15.95 18.15 L14.7 14.55 14.05 13.0 13.85 12.55 13.85 12.45 13.9 11.2 13.95 11.25 M6.2 11.2 L6.35 12.2 6.25 12.45 6.25 12.55 6.05 13.0 5.4 14.55 Q4.55 16.55 4.15 18.15 3.7 19.7 4.4 20.45 L4.95 21.25 4.95 21.5 4.95 21.9 4.7 22.8 4.4 24.1 4.05 25.8 Q3.4 29.0 3.55 31.55 L3.7 33.95 3.25 33.9 3.2 33.4 3.2 33.35 3.2 32.05 3.2 31.9 3.3 29.25 Q3.35 27.1 3.8 25.1 L4.05 23.9 4.25 22.8 4.3 22.6 4.4 21.85 4.4 21.75 Q4.4 21.5 4.65 21.6 L4.2 21.0 Q3.6 20.1 3.55 19.55 3.45 18.8 4.05 17.2 L5.2 14.0 6.0 11.75 6.1 11.4 6.15 11.25 6.2 11.2 M8.5 11.45 L8.55 12.7 7.7 14.8 7.25 16.0 7.0 16.6 Q6.6 17.7 6.35 18.85 6.05 20.0 6.55 20.45 L7.1 21.2 7.35 21.8 7.3 22.0 7.1 22.65 7.0 23.1 6.85 23.7 6.6 24.8 6.35 26.05 Q5.7 29.25 5.85 31.8 L6.0 34.05 5.95 34.05 5.55 34.1 5.95 34.0 5.55 34.05 5.55 33.65 5.55 33.6 5.5 32.15 5.5 32.1 5.6 29.5 Q5.65 27.35 6.1 25.35 L6.25 24.75 6.5 23.55 6.55 23.05 6.6 22.95 6.65 22.6 6.7 22.0 6.7 21.95 Q6.75 21.75 6.95 21.85 L6.55 21.3 Q5.95 20.35 5.85 19.8 5.75 19.05 6.35 17.45 L6.6 16.7 6.9 15.75 7.5 14.25 8.45 11.5 8.5 11.45 M12.8 15.95 L13.3 16.1 13.5 16.7 13.75 17.45 Q14.35 19.05 14.25 19.8 L13.55 21.3 13.5 21.35 13.3 21.85 13.25 21.95 13.15 22.05 13.4 22.05 13.45 22.6 13.5 22.95 13.55 23.05 13.6 23.55 13.85 24.75 14.0 25.35 Q14.45 27.35 14.5 29.5 L14.6 32.15 14.6 32.3 14.6 33.55 14.6 33.65 14.55 34.1 14.4 34.05 14.1 34.1 14.25 31.8 Q14.4 29.25 13.75 26.05 L13.5 24.8 13.25 23.7 13.1 23.1 13.0 22.65 12.8 22.0 12.75 21.8 12.8 21.75 13.0 21.3 12.95 21.3 13.0 21.2 Q13.1 20.9 13.55 20.45 14.05 20.0 13.75 18.85 L13.1 16.6 12.85 16.0 12.8 15.95" fill="#000000" fill-opacity="0.49803922" fill-rule="evenodd" stroke="none"/>
      <path d="M13.75 3.95 L14.1 4.6 14.05 4.75 14.0 4.8 14.25 5.15 14.25 5.75 14.25 6.65 14.25 7.25 14.25 8.15 14.25 8.55 14.1 11.75 14.05 12.95 14.05 13.0 Q14.0 14.9 13.6 16.7 L13.5 16.7 13.1 16.6 12.1 16.25 12.0 16.3 11.8 16.75 11.65 17.05 11.2 17.8 11.05 18.05 10.3 19.35 10.1 19.7 9.85 19.3 10.25 18.55 10.3 18.4 11.8 15.7 13.3 16.1 13.4 16.1 13.65 14.55 13.85 12.7 13.85 12.55 13.85 12.45 13.9 11.2 13.95 9.2 13.95 8.25 13.95 7.0 13.95 6.7 13.95 6.35 13.9 4.75 13.85 4.7 13.2 3.9 13.15 3.9 13.1 3.8 13.15 3.8 13.65 3.85 13.75 3.95 M8.35 20.05 L9.75 20.95 9.85 21.0 10.05 20.9 Q10.45 20.7 11.1 19.9 L12.55 18.4 12.85 18.25 12.8 18.4 12.7 19.2 12.7 19.65 Q12.75 20.0 13.15 20.0 L13.1 20.25 Q12.65 21.05 12.25 20.95 L11.2 21.0 10.6 21.1 10.1 21.2 8.65 21.45 8.7 21.4 8.75 21.25 8.8 21.25 8.55 21.25 8.55 21.4 Q6.55 21.4 7.95 21.2 L9.75 21.0 8.8 20.9 8.5 20.85 7.65 20.7 Q6.9 20.6 6.75 20.0 L7.45 20.15 8.05 19.9 8.35 20.05 M8.5 21.85 L11.15 21.4 11.35 21.4 11.4 21.4 12.1 21.35 12.95 21.3 13.0 21.3 13.55 21.3 15.2 21.1 15.3 21.1 15.9 21.0 18.65 20.05 Q20.35 19.8 19.95 20.2 18.95 20.6 19.05 21.25 L19.85 21.5 19.5 21.7 18.6 21.75 Q17.65 23.1 16.05 23.9 L15.7 24.1 13.85 24.75 13.5 24.8 13.2 24.85 11.85 25.0 9.7 24.95 11.75 24.25 13.25 23.7 13.6 23.55 15.1 22.9 15.4 22.8 15.8 22.6 17.35 21.8 15.7 21.85 15.65 21.9 15.6 21.85 13.4 22.05 13.15 22.05 12.8 22.0 8.45 22.15 8.5 21.85 M10.55 23.85 L11.0 23.5 11.65 23.0 13.0 22.65 13.45 22.6 14.55 22.5 13.5 22.95 13.35 23.0 13.1 23.1 11.7 23.55 10.55 23.85" fill="#000000" fill-opacity="0.29803923" fill-rule="evenodd" stroke="none"/>
      <path d="M4.8 21.1 L6.55 21.3 7.1 21.3 9.65 21.25 Q11.25 21.2 11.6 21.85 L11.65 22.15 7.3 22.0 6.95 22.05 4.5 21.85 4.45 21.9 4.4 21.85 2.75 21.8 4.3 22.6 4.7 22.8 5.0 22.9 6.5 23.55 6.85 23.7 10.4 24.95 6.9 24.85 6.6 24.8 6.25 24.75 4.4 24.1 4.05 23.9 Q2.45 23.1 1.5 21.75 L0.6 21.7 0.25 21.5 0.1 21.4 0.05 20.2 0.15 20.2 1.45 20.05 4.2 21.0 4.8 21.1 M7.1 22.65 Q8.25 22.85 8.9 23.15 L10.5 24.05 7.0 23.1 6.75 23.0 6.6 22.95 5.55 22.5 6.65 22.6 7.1 22.65" fill="#000000" fill-opacity="0.49803922" fill-rule="evenodd" stroke="none"/>
      <path d="M6.35 3.95 L6.45 3.85 6.95 3.8 7.0 3.8 6.2 4.75 6.2 5.0 6.2 6.7 6.25 6.95 6.45 8.35 6.5 8.45 Q6.9 9.85 6.65 10.1 6.35 10.35 6.2 11.1 L6.85 10.95 6.95 10.9 6.6 11.45 6.35 12.2 6.25 12.45 6.25 12.55 6.3 12.9 6.7 16.1 6.9 15.75 7.5 14.25 8.45 11.5 8.5 11.45 8.55 12.7 7.7 14.8 7.25 16.0 Q7.95 15.05 8.3 15.7 L11.35 21.25 10.2 19.9 10.05 19.7 8.95 17.9 8.1 16.3 8.0 16.25 7.0 16.6 6.6 16.7 6.5 16.7 Q6.1 14.9 6.05 13.0 L6.05 12.95 6.0 11.75 5.85 8.55 5.85 8.15 5.85 7.25 5.85 6.65 5.85 5.75 5.85 5.15 6.1 4.8 6.05 4.75 6.0 4.6 Q6.0 4.4 6.35 3.95 M10.1 13.6 L10.55 12.55 10.75 14.45 11.15 15.7 11.4 16.4 10.85 17.5 10.6 17.25 10.5 17.0 10.2 16.15 10.15 15.95 9.9 14.85 Q9.8 14.2 10.1 13.6 M11.5 17.75 L11.2 17.8 11.65 17.05 Q11.75 17.5 11.5 17.75" fill="#000000" fill-opacity="0.29803923" fill-rule="evenodd" stroke="none"/>
      <path d="M1.3 31.25 L1.3 32.3 1.25 32.4 1.15 32.45 1.05 32.4 1.0 32.3 1.0 31.25 1.05 31.15 1.15 31.1 1.25 31.15 1.3 31.25 M4.5 32.1 L4.6 32.05 4.7 32.1 4.75 32.2 4.8 33.2 4.8 33.3 4.7 33.35 4.55 33.35 4.5 33.25 4.45 32.2 4.5 32.1 M4.45 30.7 L4.5 30.6 4.6 30.55 4.7 30.6 4.75 30.7 4.75 31.7 4.7 31.8 4.6 31.85 4.5 31.8 4.45 31.7 4.45 30.7 M4.5 29.2 L4.55 29.1 4.7 29.05 4.8 29.1 4.8 29.25 4.75 30.2 4.7 30.3 4.6 30.35 4.5 30.3 4.45 30.2 4.5 29.2 M1.1 29.8 L1.15 29.7 1.3 29.65 1.4 29.7 1.4 29.85 1.3 30.8 1.25 30.9 1.15 30.9 1.05 30.85 1.0 30.75 1.1 29.8 M1.4 28.15 L1.5 28.2 1.5 28.35 1.4 29.35 1.35 29.45 1.25 29.45 1.15 29.4 1.1 29.3 1.2 28.3 1.25 28.2 1.4 28.15 M1.75 26.75 L1.75 26.85 1.6 27.85 1.55 27.95 1.45 27.95 1.35 27.9 1.3 27.8 1.45 26.8 1.55 26.7 1.65 26.65 1.75 26.75 M2.0 25.3 L2.0 25.4 1.85 26.35 1.8 26.45 1.7 26.45 1.6 26.4 1.55 26.3 1.7 25.35 1.8 25.25 1.9 25.2 2.0 25.3 M4.9 27.6 L4.9 27.75 4.85 28.4 4.8 28.75 4.75 28.85 4.65 28.85 4.55 28.8 4.5 28.7 4.55 28.4 4.6 27.7 4.65 27.6 4.8 27.55 4.9 27.6 M5.1 26.15 L5.1 26.25 4.95 27.25 4.9 27.35 4.8 27.35 4.7 27.3 4.65 27.2 4.8 26.2 4.9 26.1 5.0 26.05 5.1 26.15 M15.45 31.9 L15.55 31.85 15.65 31.9 15.7 32.0 15.65 33.05 15.6 33.15 15.5 33.15 15.4 33.1 15.35 33.0 15.4 32.0 15.45 31.9 M19.05 31.2 L19.0 32.25 18.95 32.35 18.85 32.35 18.75 32.3 18.7 32.2 18.75 31.2 18.8 31.1 18.9 31.05 19.0 31.1 19.05 31.2 M18.75 29.7 L18.8 29.6 18.9 29.55 19.0 29.6 19.05 29.7 19.05 30.7 19.0 30.8 18.9 30.85 18.8 30.8 18.75 30.7 18.75 29.7 M19.05 29.2 L19.05 29.3 18.95 29.35 18.8 29.35 18.75 29.25 18.65 28.25 18.7 28.1 18.8 28.05 18.9 28.1 18.95 28.2 19.05 29.2 M15.4 30.55 L15.45 30.45 15.55 30.4 15.65 30.45 15.7 30.55 15.7 31.5 15.65 31.6 15.55 31.65 15.45 31.6 15.4 31.5 15.4 30.55 M15.4 29.1 L15.45 29.0 15.55 28.95 15.65 29.0 15.7 29.1 15.7 30.05 15.65 30.15 15.55 30.2 15.45 30.15 15.4 30.05 15.4 29.1 M15.6 27.5 L15.65 27.6 15.7 28.4 15.7 28.6 15.65 28.7 15.55 28.75 15.45 28.7 15.4 28.6 15.4 28.4 15.35 27.65 15.4 27.5 15.5 27.45 15.6 27.5 M15.25 26.0 L15.35 25.95 15.45 26.0 15.5 26.1 15.6 27.1 15.6 27.2 15.5 27.25 15.35 27.25 15.3 27.15 15.2 26.15 15.25 26.0 M18.75 26.65 L18.8 26.75 18.9 27.7 18.9 27.8 18.8 27.85 18.65 27.85 18.6 27.75 18.5 26.8 18.55 26.65 18.65 26.6 18.75 26.65 M18.4 25.2 L18.45 25.25 18.7 26.25 18.7 26.35 18.6 26.4 18.5 26.4 18.4 26.3 18.15 25.35 18.2 25.25 18.25 25.15 18.4 25.2 M17.85 23.95 L17.9 23.85 18.0 23.9 18.1 23.95 18.35 24.8 18.35 24.9 18.25 24.95 18.15 24.95 18.05 24.85 17.8 24.05 17.85 23.95 M18.15 21.2 L18.15 21.35 17.45 22.2 17.35 22.2 17.25 22.15 17.2 22.05 17.25 21.95 17.9 21.2 17.95 21.1 18.1 21.15 18.15 21.2 M18.3 19.8 L18.35 19.7 18.5 19.65 18.6 19.7 18.6 19.85 18.4 20.8 18.35 20.9 18.2 20.9 18.15 20.85 18.1 20.7 18.3 19.8 M15.1 24.5 L15.15 24.55 15.4 25.6 15.4 25.7 15.3 25.75 15.2 25.75 15.1 25.65 14.85 24.65 14.9 24.55 14.95 24.45 15.1 24.5 M14.4 23.1 L14.5 23.05 14.6 23.0 14.7 23.1 15.05 24.05 15.05 24.2 14.95 24.25 14.85 24.25 14.75 24.15 14.45 23.2 14.4 23.1 M14.35 22.15 L14.4 22.25 14.5 22.65 14.5 22.75 14.4 22.8 14.3 22.8 14.2 22.7 14.1 22.3 14.15 22.2 14.25 22.1 14.35 22.15 M14.15 21.5 L14.2 21.6 14.15 21.7 13.8 22.1 13.8 22.15 13.8 22.25 13.75 22.35 13.5 22.4 13.35 22.2 13.4 22.1 13.95 21.5 14.05 21.45 14.15 21.5 M14.9 19.85 L15.0 19.75 15.1 19.7 15.2 19.8 15.2 19.9 14.9 20.9 14.8 20.95 14.7 20.95 14.6 20.85 14.65 20.75 14.9 19.85 M14.75 17.85 L14.8 17.75 14.9 17.65 15.0 17.7 15.05 17.8 15.2 18.85 15.2 18.95 15.1 19.0 14.95 19.0 14.9 18.9 14.75 17.85 M14.2 15.4 L14.3 15.4 14.4 15.5 14.75 16.5 14.75 16.65 14.65 16.7 14.55 16.7 14.45 16.6 14.1 15.6 14.1 15.5 14.2 15.4 M18.3 18.1 L18.4 18.2 18.6 18.7 18.6 18.75 18.65 19.3 18.6 19.4 18.5 19.45 18.4 19.4 18.35 19.3 18.3 18.8 18.1 18.3 18.1 18.2 18.2 18.1 18.3 18.1 M17.6 16.75 L17.7 16.7 17.8 16.8 18.2 17.7 18.2 17.8 18.1 17.9 18.0 17.9 17.95 17.8 17.55 16.9 17.5 16.8 17.6 16.75 M17.1 15.3 L17.2 15.4 17.6 16.3 17.6 16.4 17.5 16.5 17.4 16.5 17.35 16.4 16.95 15.5 16.9 15.4 17.0 15.35 17.1 15.3 M16.3 14.0 L16.4 13.95 16.5 13.9 16.6 14.0 17.0 14.9 17.0 15.0 16.9 15.1 16.8 15.1 16.75 15.0 16.35 14.1 16.3 14.0 M15.9 12.5 L16.0 12.6 16.4 13.5 16.4 13.6 16.3 13.7 16.2 13.7 16.15 13.6 15.75 12.7 15.7 12.6 15.8 12.55 15.9 12.5 M5.1 24.7 L5.2 24.6 5.3 24.55 5.4 24.65 5.4 24.75 5.2 25.75 5.15 25.85 5.05 25.85 4.95 25.8 4.9 25.7 5.1 24.7 M5.45 23.15 L5.55 23.1 5.65 23.05 5.75 23.15 5.75 23.25 5.5 24.25 5.45 24.35 5.35 24.35 5.25 24.3 5.2 24.2 5.45 23.15 M5.9 22.15 L6.0 22.25 6.0 22.35 5.9 22.75 5.85 22.85 5.75 22.85 5.65 22.8 5.6 22.7 5.7 22.3 5.8 22.2 5.9 22.15 M6.05 21.45 L6.15 21.5 6.7 22.1 6.75 22.2 6.65 22.4 6.4 22.35 6.3 22.25 6.35 22.15 6.35 22.1 5.95 21.7 5.9 21.6 5.95 21.5 6.05 21.45 M2.1 23.75 L2.2 23.7 2.3 23.8 2.3 23.9 2.1 24.9 2.05 25.0 1.95 25.0 1.85 24.95 1.8 24.85 2.0 23.85 2.1 23.75 M2.3 22.35 L2.4 22.25 2.5 22.2 2.6 22.3 2.6 22.4 2.4 23.4 2.35 23.5 2.25 23.5 2.15 23.45 2.1 23.35 2.3 22.35 M2.4 21.35 L2.5 21.3 2.6 21.35 3.4 21.8 3.5 21.9 3.5 22.0 3.45 22.1 3.3 22.1 2.4 21.55 2.35 21.45 2.4 21.35 M1.75 20.05 L1.8 19.95 1.9 19.9 2.0 19.95 2.05 20.05 2.35 21.05 2.35 21.15 2.3 21.25 2.2 21.25 2.1 21.2 1.75 20.05 M4.95 19.8 L5.05 19.7 5.15 19.75 5.2 19.85 5.55 20.75 5.55 20.85 5.5 20.95 5.4 20.95 5.3 20.9 4.9 19.9 4.95 19.8 M3.2 15.7 L3.2 15.8 2.9 16.7 2.85 16.8 2.7 16.8 2.65 16.75 2.6 16.6 2.9 15.7 3.0 15.65 3.1 15.6 3.2 15.7 M2.1 18.4 L2.2 18.5 2.2 18.6 2.0 19.2 2.0 19.5 1.95 19.6 1.85 19.65 1.75 19.6 1.7 19.5 1.7 19.15 1.7 19.1 1.9 18.5 2.0 18.45 2.1 18.4 M2.4 17.1 L2.5 17.05 2.6 17.0 2.7 17.1 2.7 17.2 2.4 18.1 2.35 18.2 2.2 18.2 2.15 18.15 2.1 18.0 2.4 17.1 M3.7 14.3 L3.7 14.4 3.4 15.3 3.35 15.4 3.2 15.4 3.15 15.35 3.1 15.2 3.4 14.3 3.5 14.25 3.6 14.2 3.7 14.3 M4.05 12.9 L4.1 12.8 4.2 12.85 4.3 12.9 4.3 13.0 3.9 13.9 3.8 14.0 3.7 14.0 3.6 13.9 3.65 13.8 4.05 12.9 M5.35 17.75 L5.35 17.85 5.2 18.9 5.15 19.0 5.05 19.0 4.95 18.95 4.9 18.85 5.05 17.8 5.15 17.7 5.25 17.65 5.35 17.75 M5.65 16.65 L5.6 16.75 5.45 16.75 5.4 16.7 5.35 16.55 5.65 15.55 5.75 15.5 5.85 15.45 5.95 15.55 5.95 15.65 5.65 16.65 M6.5 13.6 L6.55 13.5 6.7 13.55 6.75 13.6 6.75 13.75 6.3 14.7 6.2 14.8 6.1 14.8 6.0 14.7 6.0 14.6 6.5 13.6 M8.3 10.15 L8.35 10.05 8.5 10.1 8.55 10.15 8.55 10.3 8.25 10.9 8.15 10.95 8.05 10.95 7.95 10.85 8.0 10.75 8.3 10.15 M7.45 11.65 L7.6 11.7 7.65 11.75 7.65 11.9 7.2 12.75 7.1 12.85 7.0 12.85 6.9 12.75 6.95 12.65 7.4 11.75 7.45 11.65 M5.8 8.75 L5.8 8.85 5.5 9.65 5.4 9.75 5.3 9.75 5.25 9.65 5.2 9.55 5.5 8.75 5.6 8.7 5.7 8.65 5.8 8.75 M4.6 11.4 L4.7 11.35 4.8 11.45 4.8 11.55 4.5 12.5 4.45 12.6 4.3 12.6 4.25 12.55 4.2 12.4 4.5 11.45 4.6 11.4 M5.0 11.05 L4.95 11.15 4.8 11.15 4.75 11.1 4.7 10.95 5.0 10.05 5.1 10.0 5.2 9.95 5.3 10.05 5.3 10.15 5.0 11.05 M15.45 11.1 L15.5 11.15 15.8 12.1 15.8 12.25 15.7 12.3 15.6 12.3 15.5 12.2 15.2 11.25 15.25 11.15 15.3 11.05 15.45 11.1 M14.7 9.7 L14.8 9.65 14.9 9.75 15.3 10.65 15.3 10.75 15.2 10.85 15.1 10.85 15.05 10.75 14.65 9.85 14.6 9.75 14.7 9.7 M14.45 8.75 L14.55 8.8 14.6 8.9 14.7 9.3 14.7 9.4 14.6 9.45 14.5 9.45 14.4 9.35 14.3 8.95 14.35 8.85 14.45 8.75" fill="#ffffff" fill-opacity="0.49803922" fill-rule="evenodd" stroke="none"/>
      <path d="M7.15 11.8 L7.1 11.55 Q7.1 11.15 7.4 11.1 L7.6 11.05 7.65 11.05 7.75 11.05 Q8.1 11.15 8.1 11.55 8.1 12.1 7.6 12.1 L7.25 11.95 7.15 11.8 M7.4 11.3 L7.35 11.5 Q7.35 11.85 7.65 11.85 L8.0 11.5 7.9 11.2 7.9 11.3 7.65 11.55 7.4 11.3 M7.95 12.95 L8.15 13.0 8.35 13.45 Q8.35 14.0 7.85 14.0 L7.4 13.7 7.35 13.45 Q7.35 12.95 7.85 12.95 L7.95 12.95 M7.85 13.75 Q8.25 13.75 8.25 13.4 L8.2 13.2 7.9 13.45 7.65 13.2 7.55 13.45 7.6 13.6 Q7.65 13.75 7.85 13.75" fill="#ffffff" fill-rule="evenodd" stroke="none"/>
      <path d="M7.4 11.3 L7.65 11.55 7.9 11.3 7.9 11.2 8.0 11.5 7.65 11.85 Q7.35 11.85 7.35 11.5 L7.4 11.3 M7.85 13.75 Q7.65 13.75 7.6 13.6 L7.55 13.45 7.65 13.2 7.9 13.45 8.2 13.2 8.25 13.4 Q8.25 13.75 7.85 13.75" fill="#bbbbbb" fill-rule="evenodd" stroke="none"/>
      <path d="M6.4 5.1 L6.5 6.55 6.5 6.8 6.5 6.85 6.55 8.35 6.55 9.05 6.7 11.95 6.75 13.0 Q6.85 14.3 7.1 15.45 L8.7 15.1 9.8 17.35 10.5 18.7 11.5 20.5 11.55 20.55 11.55 21.1 11.6 21.75 8.3 15.7 6.7 16.1 6.25 12.55 6.15 9.2 6.15 8.25 6.15 7.0 6.15 6.7 6.15 6.35 6.2 4.75 6.25 4.7 6.4 5.1" fill="#7e4500" fill-rule="evenodd" stroke="none"/>
      <path d="M7.4 13.25 L7.4 13.15 7.45 13.15 7.4 13.25" fill="#796818" fill-rule="evenodd" stroke="none"/>
      <path d="M10.2 11.8 L10.2 11.85 10.2 11.9 10.4 13.4 10.2 13.4 Q9.9 13.5 9.9 14.05 L10.05 14.65 10.0 14.85 10.05 15.0 10.25 15.6 10.3 15.9 10.4 16.25 11.15 18.5 11.4 19.5 11.5 20.25 10.5 17.8 9.95 16.25 9.3 14.25 7.75 9.15 7.7 9.05 7.6 8.65 7.2 7.1 7.15 7.05 7.15 6.95 6.8 5.35 8.0 5.0 8.05 4.95 9.4 9.05 9.45 9.2 9.5 9.25 10.2 11.8" fill="#7e4500" fill-rule="evenodd" stroke="none"/>
      <path d="M10.2 11.8 L9.5 9.25 9.45 9.2 9.4 9.05 8.05 4.95 8.0 5.0 6.8 5.35 7.15 6.95 7.15 7.05 7.2 7.1 7.6 8.65 7.7 9.05 7.75 9.15 9.3 14.25 9.95 16.25 10.5 17.8 11.5 20.25 Q11.65 21.2 11.45 20.6 L10.5 18.7 9.8 17.35 8.7 15.1 7.1 15.45 Q6.85 14.3 6.75 13.0 L6.7 11.95 6.55 9.05 6.55 8.35 6.5 6.85 6.5 6.8 6.5 6.55 6.4 5.1 6.25 4.7 7.25 3.5 7.5 3.45 Q7.75 3.55 7.8 4.1 L8.9 7.35 9.45 8.95 9.5 9.15 9.55 9.2 9.55 9.25 10.0 10.75 10.2 11.8 M7.1 11.45 Q7.0 11.95 7.15 12.15 L7.4 12.3 8.0 12.25 8.1 11.7 8.1 11.55 Q8.1 11.15 7.75 11.05 L7.65 11.05 7.6 11.05 7.4 11.1 7.1 11.45 M8.25 13.1 L8.15 13.0 7.95 12.95 7.85 12.95 7.45 13.15 7.4 13.15 7.4 13.25 7.35 13.35 7.25 13.85 Q7.5 14.25 8.15 14.25 L8.2 14.15 Q8.75 13.8 8.3 13.15 L8.25 13.1" fill="#ffbe43" fill-rule="evenodd" stroke="none"/>
      <path d="M7.1 11.45 L7.1 11.55 7.15 11.8 7.2 11.95 7.6 12.1 8.1 11.7 8.0 12.25 7.4 12.3 7.15 12.15 Q7.0 11.95 7.1 11.45 M8.25 13.1 L8.3 13.15 Q8.75 13.8 8.2 14.15 L8.15 14.25 Q7.5 14.25 7.25 13.85 L7.35 13.35 7.35 13.45 7.4 13.7 7.85 14.0 Q8.35 14.0 8.35 13.45 L8.25 13.1" fill="#cb8500" fill-rule="evenodd" stroke="none"/>
      <path d="M10.2 11.85 L10.2 11.9 10.4 13.55 10.25 13.6 10.05 14.0 10.15 14.45 10.05 14.95 11.2 18.7 11.4 19.5 11.4 19.7 11.5 20.25 11.55 20.6 11.1 19.85 Q10.8 19.5 10.8 20.1 L10.9 20.4 11.6 21.75 11.9 24.0 11.95 24.9 12.05 27.55 12.1 34.15 11.35 34.15 11.35 33.85 11.35 33.65 11.35 32.6 11.4 29.05 11.35 28.3 11.3 24.95 11.1 21.75 10.9 20.5 9.6 18.05 9.8 17.35 9.95 16.25 9.95 15.35 Q9.85 13.35 9.4 11.4 L10.2 11.85 M6.25 4.7 L6.9 3.9 7.35 3.95 7.85 4.2 8.9 7.35 9.45 8.95 9.4 9.05 9.35 9.1 Q8.75 8.9 8.5 8.55 L7.15 7.05 6.5 6.55 6.15 6.35 6.2 4.75 6.25 4.7" fill="#000000" fill-opacity="0.29803923" fill-rule="evenodd" stroke="none"/>
      <path d="M4.65 3.4 L4.65 3.25 Q4.65 2.3 5.5 1.25 6.35 0.15 10.15 0.1 L10.25 0.1 11.45 0.1 11.55 0.1 11.7 0.0 Q13.85 -0.1 14.8 0.7 L15.7 1.6 15.95 2.65 15.75 3.35 Q14.45 4.45 12.6 5.1 11.45 5.5 10.75 6.15 L10.55 6.35 10.6 6.3 10.7 6.1 10.9 5.9 10.8 6.0 10.95 5.85 11.2 5.55 13.0 4.15 Q13.9 3.75 13.9 2.9 13.1 3.15 12.45 3.8 L12.4 3.5 12.4 3.45 12.45 3.4 12.5 3.3 12.55 3.05 12.55 3.0 12.6 2.75 12.25 2.0 12.1 1.9 11.2 1.65 9.6 1.65 Q8.85 1.7 8.25 2.05 L7.75 2.35 7.7 2.4 Q7.45 2.9 7.65 3.45 L8.05 4.05 8.2 4.15 Q9.9 5.1 10.1 6.75 L9.9 6.2 9.5 5.75 Q8.6 4.55 7.45 4.2 L7.0 4.05 Q7.0 4.4 7.4 4.5 L7.55 4.6 10.0 6.75 10.05 6.85 8.65 5.75 8.6 5.75 8.5 5.65 7.65 5.3 7.5 5.25 6.55 5.0 Q6.05 4.85 5.65 4.55 L4.65 3.4 M12.3 6.9 L10.65 7.75 10.8 7.75 10.7 7.8 11.4 7.85 11.8 7.9 12.05 7.8 11.45 9.9 11.2 10.8 10.2 11.45 10.1 11.45 10.15 11.45 10.5 11.45 10.7 11.45 10.7 11.4 11.0 11.35 10.8 11.9 9.45 11.85 9.0 10.2 Q8.8 9.5 9.6 9.25 L10.2 9.0 8.45 8.4 7.95 6.35 Q9.15 6.55 10.05 7.0 L10.0 7.05 9.9 7.1 10.15 7.05 10.35 7.15 10.7 6.85 11.2 6.65 11.85 6.55 12.1 6.5 12.15 6.45 12.4 6.4 12.5 6.35 12.3 6.9 M10.0 13.45 L9.75 12.8 10.0 12.7 10.4 12.7 10.0 13.45" fill="#ffffff" fill-rule="evenodd" stroke="none"/>
      <path d="M15.75 3.35 Q15.3 4.3 13.7 5.6 L13.7 5.65 Q13.55 5.7 13.35 5.85 L13.35 5.9 12.75 6.3 12.75 6.35 12.65 6.7 12.6 7.0 12.4 7.7 12.15 8.6 11.55 10.6 11.35 11.3 11.15 11.95 11.1 12.05 10.85 12.8 10.5 13.75 10.35 14.25 10.3 14.45 10.25 14.6 10.1 15.35 9.65 14.1 8.9 11.65 7.75 7.95 7.3 6.25 7.2 6.0 7.2 5.95 6.75 5.7 6.25 5.45 5.45 4.95 4.9 4.5 Q4.65 4.2 4.65 3.4 L5.65 4.55 Q6.05 4.85 6.55 5.0 L7.5 5.25 7.65 5.3 8.5 5.65 8.6 5.75 8.65 5.75 10.05 6.85 10.0 6.75 7.55 4.6 7.4 4.5 Q7.0 4.4 7.0 4.05 L7.45 4.2 Q8.6 4.55 9.5 5.75 L9.9 6.2 10.1 6.75 Q9.9 5.1 8.2 4.15 L8.05 4.05 7.65 3.45 Q7.45 2.9 7.7 2.4 L7.75 2.35 8.25 2.05 8.2 2.2 8.2 2.3 8.2 2.4 Q8.2 2.75 8.95 3.9 L10.05 5.6 10.3 6.05 10.4 6.0 10.85 5.25 11.4 3.6 11.65 2.7 11.65 2.85 11.9 1.95 10.1 1.65 9.6 1.65 11.2 1.65 12.1 1.9 12.25 2.0 12.6 2.75 12.55 3.0 12.55 3.05 12.5 3.3 12.45 3.4 12.4 3.45 12.4 3.5 12.45 3.8 Q13.1 3.15 13.9 2.9 13.9 3.75 13.0 4.15 L11.2 5.55 10.95 5.85 10.8 6.0 10.9 5.9 10.7 6.1 10.6 6.3 10.55 6.35 10.75 6.15 Q11.45 5.5 12.6 5.1 14.45 4.45 15.75 3.35 M12.3 6.9 L12.5 6.35 12.4 6.4 12.15 6.45 12.1 6.5 11.85 6.55 11.2 6.65 10.7 6.85 10.35 7.15 10.15 7.05 9.9 7.1 10.0 7.05 10.05 7.0 Q9.15 6.55 7.95 6.35 L8.45 8.4 10.2 9.0 9.6 9.25 Q8.8 9.5 9.0 10.2 L9.45 11.85 10.8 11.9 11.0 11.35 10.7 11.4 10.7 11.45 10.5 11.45 10.15 11.45 10.1 11.45 10.2 11.45 11.2 10.8 11.45 9.9 12.05 7.8 11.8 7.9 11.4 7.85 10.7 7.8 10.8 7.75 10.65 7.75 12.3 6.9 M10.0 13.45 L10.4 12.7 10.0 12.7 9.75 12.8 10.0 13.45" fill="#c9d0d7" fill-rule="evenodd" stroke="none"/>
      <path d="M5.65 17.65 L5.5 17.95 5.2 18.1 4.85 17.95 4.75 17.65 4.85 17.3 5.2 17.2 5.5 17.3 5.65 17.65 M4.95 17.55 L4.95 17.65 5.2 17.8 5.5 17.55 5.25 17.3 5.2 17.3 5.1 17.3 4.85 17.45 4.95 17.55 M5.0 19.15 L5.3 19.25 5.45 19.6 5.3 19.9 5.0 20.05 4.65 19.9 4.55 19.6 4.65 19.25 5.0 19.15 M5.0 19.25 L4.9 19.25 4.65 19.4 4.75 19.5 4.75 19.6 Q4.8 19.75 5.0 19.75 L5.3 19.5 5.05 19.25 5.0 19.25 M15.0 17.3 L14.95 17.3 Q14.7 17.35 14.7 17.55 L15.0 17.8 15.25 17.65 15.25 17.55 15.35 17.45 15.1 17.3 15.0 17.3 M14.75 19.6 L14.9 19.25 15.2 19.15 15.55 19.25 15.65 19.6 15.55 19.9 15.2 20.05 14.9 19.9 14.75 19.6 M15.35 17.3 L15.45 17.65 15.35 17.95 15.0 18.1 14.7 17.95 14.55 17.65 Q14.55 17.45 14.7 17.3 L15.0 17.2 15.35 17.3 M15.2 19.25 L15.15 19.25 Q14.9 19.3 14.9 19.5 L15.2 19.75 15.45 19.6 15.45 19.5 15.55 19.4 15.3 19.25 15.2 19.25" fill="#f8eedb" fill-rule="evenodd" stroke="none"/>
      <path d="M4.95 17.55 L5.05 17.65 5.2 17.6 5.25 17.45 5.2 17.3 5.25 17.3 5.5 17.55 5.2 17.8 4.95 17.65 4.95 17.55 M5.0 19.25 L5.05 19.25 5.3 19.5 5.0 19.75 Q4.8 19.75 4.75 19.6 L4.75 19.5 4.85 19.6 5.0 19.55 5.05 19.4 5.0 19.25 M15.25 17.55 L15.25 17.65 15.0 17.8 14.7 17.55 Q14.7 17.35 14.95 17.3 L15.0 17.3 14.95 17.45 15.0 17.6 15.15 17.65 15.25 17.55 M15.45 19.5 L15.45 19.6 15.2 19.75 14.9 19.5 Q14.9 19.3 15.15 19.25 L15.2 19.25 15.15 19.4 15.2 19.55 15.35 19.6 15.45 19.5" fill="#9f909c" fill-rule="evenodd" stroke="none"/>
      <path d="M5.2 17.3 L5.25 17.45 5.2 17.6 5.05 17.65 4.95 17.55 4.85 17.45 5.1 17.3 5.2 17.3 M4.75 19.5 L4.65 19.4 4.9 19.25 5.0 19.25 5.05 19.4 5.0 19.55 4.85 19.6 4.75 19.5 M15.0 17.3 L15.1 17.3 15.35 17.45 15.25 17.55 15.15 17.65 15.0 17.6 14.95 17.45 15.0 17.3 M15.45 19.5 L15.35 19.6 15.2 19.55 15.15 19.4 15.2 19.25 15.3 19.25 15.55 19.4 15.45 19.5" fill="#ffffff" fill-rule="evenodd" stroke="none"/>
      <path d="M11.2 24.1 L11.15 24.0 10.95 23.9 20.1 23.65 20.1 23.8 20.65 25.65 16.65 25.85 17.6 26.3 17.65 26.35 17.7 26.4 17.8 26.45 17.75 26.55 17.5 27.7 17.3 29.1 16.95 28.8 15.9 27.9 Q15.75 27.75 15.2 27.45 L14.6 27.1 14.55 27.05 13.0 26.4 12.8 26.3 12.7 26.3 11.3 26.0 11.25 26.0 10.75 25.95 10.15 25.95 10.35 25.9 Q11.25 26.0 11.25 24.65 L11.25 24.45 11.2 24.3 11.2 24.1 M11.9 21.9 L11.7 21.7 19.5 21.45 20.0 23.3 11.65 23.7 Q12.15 23.5 12.1 22.6 L11.95 21.95 11.9 21.9 M8.75 24.1 L8.85 24.1 9.35 24.1 9.55 24.1 10.1 24.1 Q10.7 24.2 10.8 24.4 L10.85 24.75 10.8 25.0 Q10.75 25.45 10.3 25.5 L9.85 25.55 8.45 25.55 8.15 25.25 8.15 24.7 8.25 24.35 8.3 24.25 8.3 24.2 8.4 24.15 8.45 24.15 8.75 24.1 M9.25 22.8 L9.2 22.55 9.25 22.2 Q9.35 22.0 9.9 21.9 L10.4 21.9 10.6 21.9 11.1 21.9 11.2 21.9 11.45 21.95 11.5 21.95 11.6 22.0 11.6 22.05 11.65 22.15 11.75 22.5 11.75 23.05 11.45 23.35 9.7 23.3 Q9.3 23.25 9.25 22.8 M3.4 23.8 L3.7 23.65 -0.1 23.45 0.4 21.45 9.1 21.7 8.9 21.8 8.85 21.9 8.85 22.1 8.8 22.25 8.8 22.45 Q8.8 23.7 9.5 23.7 L9.65 23.7 9.85 23.75 9.35 23.75 9.3 23.75 9.15 23.75 8.8 23.8 8.75 23.8 8.2 23.95 8.0 24.1 7.95 24.15 Q7.8 24.35 7.8 24.8 7.75 25.7 8.25 25.9 L4.3 25.8 3.4 26.6 3.1 26.9 2.95 25.7 -0.55 25.5 -0.15 23.9 -0.05 23.65 3.4 23.8" fill="#232323" fill-rule="evenodd" stroke="none"/>
      <path d="M5.15 19.6 Q10.3 20.9 15.05 19.6 M5.3 17.65 Q10.0 19.05 14.9 17.65" fill="none" stroke="#232323" stroke-linecap="round" stroke-linejoin="round" stroke-width="0.4"/>
      <path d="M9.25 23.75 L9.35 23.75 9.85 23.75 9.65 23.7 9.5 23.7 Q8.8 23.7 8.8 22.45 L8.8 22.25 8.85 22.1 8.85 21.9 8.9 21.8 9.1 21.7 10.45 21.5 10.7 21.55 10.55 21.7 10.4 21.85 10.35 21.9 9.9 21.9 Q9.35 22.0 9.25 22.2 L9.2 22.55 9.25 22.8 Q9.3 23.25 9.7 23.3 L10.15 23.35 10.15 23.4 10.3 23.7 10.3 23.75 10.35 23.75 10.55 23.75 10.95 23.9 11.15 24.0 11.2 24.1 11.2 24.3 11.25 24.45 11.25 24.65 Q11.25 26.0 10.35 25.9 L10.15 25.95 9.65 25.95 9.7 25.9 9.85 25.6 9.85 25.55 10.3 25.5 Q10.75 25.45 10.8 25.0 L10.85 24.75 10.8 24.4 Q10.7 24.2 10.1 24.1 L9.65 24.1 9.55 24.05 9.4 23.9 9.25 23.75 M11.9 21.9 L11.95 21.95 12.1 22.6 Q12.15 23.5 11.65 23.7 L11.45 23.75 11.35 23.75 11.35 23.7 11.25 23.35 11.45 23.35 11.75 23.05 11.75 22.5 11.65 22.15 11.85 21.95 11.9 21.9 M8.55 25.95 L8.45 25.95 8.25 25.9 Q7.75 25.7 7.8 24.8 7.8 24.35 7.95 24.15 L8.0 24.1 8.05 24.15 8.25 24.35 8.15 24.7 8.15 25.25 8.45 25.55 8.7 25.55 8.55 25.9 8.55 25.95" fill="#ffffff" fill-rule="evenodd" stroke="none"/>
      <path d="M10.7 21.55 L10.95 21.55 11.0 21.55 11.7 21.7 11.9 21.9 11.85 21.95 11.65 22.15 11.6 22.05 11.6 22.0 11.5 21.95 11.45 21.95 11.2 21.9 11.1 21.9 10.6 21.9 10.4 21.9 10.35 21.9 10.4 21.85 10.55 21.7 10.7 21.55 M11.35 23.75 L11.45 23.8 11.4 23.8 11.3 23.8 10.55 23.75 10.35 23.75 10.3 23.75 10.3 23.7 10.15 23.4 10.15 23.35 11.25 23.35 11.35 23.7 11.35 23.75 M9.65 25.95 L8.45 26.0 8.55 25.95 8.55 25.9 8.7 25.55 9.85 25.55 9.85 25.6 9.7 25.9 9.65 25.95 M8.0 24.1 L8.2 23.95 8.75 23.8 8.8 23.8 9.15 23.75 9.25 23.75 9.4 23.9 9.55 24.05 9.65 24.1 9.55 24.1 9.35 24.1 8.85 24.1 8.75 24.1 8.45 24.15 8.4 24.15 8.3 24.2 8.3 24.25 8.25 24.35 8.05 24.15 8.0 24.1" fill="#c9c6c3" fill-rule="evenodd" stroke="none"/>
      <path d="M9.7 23.3 Q9.3 23.25 9.25 22.8 L10.15 23.0 10.85 22.95 10.9 22.6 10.6 21.95 10.65 21.95 11.45 21.95 11.5 21.95 11.6 22.0 11.6 22.05 11.65 22.15 11.75 22.5 11.75 23.05 11.45 23.35 9.7 23.3 M8.25 24.35 L8.3 24.25 8.3 24.2 8.4 24.15 8.45 24.15 9.3 24.15 9.35 24.15 9.05 24.8 9.1 25.15 9.85 25.2 10.8 25.0 Q10.75 25.45 10.3 25.5 L9.85 25.55 8.45 25.55 8.15 25.25 8.15 24.7 8.25 24.35 M7.15 24.2 L7.2 24.15 7.95 24.15 Q7.8 24.35 7.8 24.8 7.75 25.7 8.25 25.9 L4.3 25.8 4.4 25.7 5.05 25.25 5.65 24.9 5.7 24.85 Q6.4 24.45 7.15 24.2 M3.4 23.8 L3.7 23.65 -0.1 23.45 0.4 21.45 9.1 21.7 8.9 21.8 8.85 21.9 7.55 21.95 7.45 21.95 7.2 21.95 7.1 21.95 6.4 21.95 6.75 22.45 8.45 22.15 8.85 22.1 8.8 22.25 7.65 22.5 6.95 22.65 6.85 22.7 Q5.75 22.95 4.8 23.4 L4.25 23.65 4.15 23.7 2.9 24.35 3.0 24.6 3.2 25.5 3.25 25.75 3.4 26.6 3.1 26.9 2.95 25.7 -0.55 25.5 -0.15 23.9 -0.05 23.65 3.4 23.8 M11.9 21.9 L11.7 21.7 19.5 21.45 20.0 23.3 11.65 23.7 Q12.15 23.5 12.1 22.6 L11.95 21.95 11.9 21.9 M11.2 24.1 L11.15 24.0 10.95 23.9 20.1 23.65 20.1 23.8 20.65 25.65 16.65 25.85 17.6 26.3 17.65 26.35 17.7 26.4 17.8 26.45 17.75 26.55 17.5 27.7 17.3 29.1 16.95 28.8 17.15 27.7 17.4 26.8 17.5 26.55 16.15 25.9 16.05 25.85 15.5 25.6 13.3 24.9 13.2 24.85 12.5 24.7 11.25 24.45 11.2 24.3 11.65 24.35 13.4 24.65 13.8 24.15 13.05 24.15 12.95 24.15 12.7 24.15 12.6 24.15 11.2 24.1" fill="#000000" fill-opacity="0.29803923" fill-rule="evenodd" stroke="none"/>
      <path d="M3.4 23.8 L3.7 23.65 5.1 23.0 6.75 22.45 8.45 22.15 8.85 22.1 8.8 22.25 7.65 22.5 6.95 22.65 6.85 22.7 Q5.75 22.95 4.8 23.4 L4.25 23.65 4.15 23.7 2.9 24.35 3.0 24.6 3.2 25.5 3.25 25.75 3.4 26.6 3.1 26.9 2.95 25.7 2.9 25.5 2.65 24.35 2.6 24.25 2.7 24.2 2.75 24.15 2.8 24.1 2.85 24.1 1.35 24.0 -0.15 23.9 -0.05 23.65 3.4 23.8 M0.55 21.65 L0.4 21.6 0.4 21.45 9.1 21.7 8.9 21.8 8.85 21.9 7.55 21.95 7.45 21.95 7.2 21.95 7.1 21.95 6.4 21.95 6.3 21.95 3.45 21.85 1.3 21.75 0.55 21.65 M11.9 21.9 L11.7 21.7 19.5 21.45 19.6 21.7 18.2 21.8 16.15 21.9 11.95 21.95 11.9 21.9 M11.15 24.0 L10.95 23.9 20.1 23.65 20.1 23.8 19.95 23.85 19.15 23.95 16.9 24.05 13.9 24.15 13.8 24.15 13.05 24.15 12.95 24.15 12.7 24.15 12.6 24.15 11.2 24.1 11.15 24.0 M11.2 24.3 L11.65 24.35 13.4 24.65 15.15 25.2 Q16.05 25.55 16.65 25.85 L17.6 26.3 17.65 26.35 17.7 26.4 17.8 26.45 17.75 26.55 17.5 27.7 17.3 29.1 16.95 28.8 17.15 27.7 17.4 26.8 17.5 26.55 16.15 25.9 16.05 25.85 15.5 25.6 13.3 24.9 13.2 24.85 12.5 24.7 11.25 24.45 11.2 24.3" fill="#000000" fill-opacity="0.49803922" fill-rule="evenodd" stroke="none"/>
      <path d="M6.95 22.65 Q6.55 23.35 6.9 23.9 L7.1 24.15 7.15 24.2 Q6.4 24.45 5.7 24.85 L5.65 24.9 5.05 25.25 Q5.4 24.9 5.3 24.15 L5.25 23.85 5.2 23.65 5.15 23.6 4.8 23.4 Q5.75 22.95 6.85 22.7 L6.95 22.65 M13.0 26.4 Q13.75 25.75 13.2 24.85 L13.3 24.9 15.5 25.6 15.1 25.8 15.05 25.85 Q14.75 27.0 15.2 27.45 L14.6 27.1 14.55 27.05 13.0 26.4" fill="#ffffff" fill-opacity="0.29803923" fill-rule="evenodd" stroke="none"/>
      <path d="M10.55 33.75 L10.95 33.75 11.25 33.7 11.55 33.7 11.85 33.7 12.9 33.7 14.4 33.65 14.75 33.65 15.4 33.55 16.1 33.5 16.35 33.5 16.85 33.4 16.95 33.4 17.7 33.25 21.15 32.35 21.15 32.3 21.2 32.5 Q21.15 33.05 19.6 33.4 L16.85 33.9 16.75 33.9 16.45 34.0 15.15 34.1 14.05 34.1 12.5 34.15 12.15 34.15 8.35 34.15 8.1 34.1 7.7 34.15 6.45 34.1 5.2 34.1 3.7 33.95 3.25 33.9 0.1 33.4 Q-1.05 33.15 -1.05 32.85 L-0.95 32.25 -0.95 32.3 -0.45 32.5 0.65 32.9 1.45 33.15 1.7 33.2 4.5 33.6 4.6 33.6 5.9 33.65 6.05 33.65 9.0 33.75 8.95 33.7 9.85 33.75 9.95 33.75 Q11.2 33.8 10.3 33.75 L10.55 33.75 M6.6 34.05 L5.9 34.05 5.55 34.1 6.45 34.1 6.6 34.05" fill="#7e4500" fill-rule="evenodd" stroke="none"/>
      <path d="M21.15 32.3 L21.15 32.35 17.7 33.25 16.95 33.4 16.85 33.4 16.35 33.5 16.1 33.5 15.4 33.55 14.75 33.65 14.4 33.65 12.9 33.7 11.85 33.7 11.55 33.7 11.25 33.7 10.95 33.75 10.55 33.75 10.2 33.7 10.1 33.7 10.3 33.75 Q11.2 33.8 9.95 33.75 L9.85 33.75 8.95 33.7 9.0 33.75 6.05 33.65 5.9 33.65 4.6 33.6 4.5 33.6 1.7 33.2 1.45 33.15 0.65 32.9 -0.45 32.5 -0.95 32.3 -0.95 32.25 -0.9 31.8 Q-0.7 31.8 -0.45 31.95 L0.55 32.45 1.75 32.85 4.65 33.2 6.1 33.2 11.2 33.25 13.5 33.25 15.95 33.05 19.5 32.35 21.1 31.9 21.15 32.3" fill="#ffbe43" fill-rule="evenodd" stroke="none"/>
    </g>
  </defs>
</svg>
