<?xml version="1.0" encoding="UTF-8" standalone="no"?>
<svg xmlns:ffdec="https://www.free-decompiler.com/flash" xmlns:xlink="http://www.w3.org/1999/xlink" ffdec:objectType="frame" height="23.5px" width="22.4px" xmlns="http://www.w3.org/2000/svg">
  <g transform="matrix(1.0, 0.0, 0.0, 1.0, 1.05, -1.8)">
    <use ffdec:characterId="3" height="23.5" transform="matrix(1.0, 0.0, 0.0, 1.0, -1.05, 1.8)" width="22.4" xlink:href="#shape0"/>
  </g>
  <defs>
    <g id="shape0" transform="matrix(1.0, 0.0, 0.0, 1.0, 1.05, -1.8)">
      <path d="M20.25 24.4 L15.25 24.75 14.0 24.8 13.7 24.9 13.45 24.9 10.75 25.05 8.8 25.1 8.7 25.15 5.7 25.1 3.4 24.8 1.8 24.5 -0.15 23.95 -0.55 23.8 -0.8 23.7 -1.05 23.4 Q-1.05 22.9 0.55 18.3 2.15 13.7 3.45 10.7 4.75 7.65 6.6 4.8 L7.65 3.25 8.2 4.3 Q9.05 5.45 10.2 5.45 11.2 5.45 11.85 4.25 L12.65 3.4 12.75 3.25 13.8 5.2 14.25 6.25 15.35 8.4 17.1 12.15 20.0 19.55 20.6 21.4 20.7 21.5 21.2 23.05 Q21.55 24.0 21.15 24.25 L20.7 24.45 20.6 24.3 20.25 24.4" fill="#ff8ec4" fill-rule="evenodd" stroke="none"/>
      <path d="M12.7 5.4 L13.3 5.3 13.85 5.2 Q14.05 5.25 13.9 5.7 13.75 6.1 13.0 6.35 L11.95 6.6 Q11.6 6.65 11.6 8.2 L11.4 15.15 Q11.15 20.55 10.65 19.9 10.15 19.2 10.15 18.75 L10.4 15.3 Q10.45 13.0 10.65 12.0 L10.55 7.95 Q10.6 5.45 12.7 5.45 L12.7 5.4 M20.7 21.85 L20.95 22.5 20.4 22.65 17.2 22.5 Q16.15 21.9 15.75 21.1 L15.2 19.55 14.85 17.4 15.4 19.4 15.85 20.35 16.8 21.55 Q17.5 22.15 18.8 22.15 L20.7 21.85 M7.45 5.45 Q9.55 5.45 9.6 7.95 L9.5 12.0 9.75 15.3 10.0 18.75 9.7 19.2 Q9.05 19.2 8.85 14.25 L8.55 8.0 Q8.55 6.65 8.2 6.6 L7.15 6.35 Q6.4 6.1 6.25 5.7 6.1 5.25 6.3 5.2 L6.85 5.3 7.45 5.4 7.45 5.45 M5.45 15.55 L5.4 15.95 3.65 16.25 Q2.75 16.3 1.9 16.65 L1.15 16.55 1.3 16.3 1.3 16.15 3.05 15.95 4.75 15.6 5.45 15.55 M3.3 21.55 L4.25 20.35 4.7 19.4 5.25 17.4 4.9 19.55 4.35 21.1 Q3.95 21.9 2.9 22.5 L-0.3 22.65 -0.85 22.5 -0.6 21.85 1.3 22.15 Q2.6 22.15 3.3 21.55 M5.9 24.55 L7.9 24.65 8.85 24.7 9.3 24.7 9.5 24.85 9.55 24.85 9.85 24.9 10.55 24.65 11.45 24.6 12.3 24.55 13.4 24.6 13.95 24.55 15.45 24.4 16.75 24.2 17.15 24.15 19.45 23.95 21.15 24.05 Q21.2 24.4 19.7 24.65 L16.65 25.05 12.9 25.25 11.7 25.25 10.2 25.25 8.6 25.25 8.6 25.2 7.6 25.25 6.6 25.2 4.25 25.0 0.6 24.35 Q-0.35 24.1 -0.8 23.55 L-0.8 23.2 -0.65 23.2 1.45 23.85 5.35 24.5 5.9 24.55 M18.8 16.2 L18.8 16.35 18.95 16.6 18.2 16.7 16.45 16.3 14.7 16.0 14.65 15.6 15.35 15.65 17.05 16.0 18.8 16.2" fill="#e8688b" fill-rule="evenodd" stroke="none"/>
      <path d="M15.95 2.2 L16.05 3.6 Q16.05 4.15 15.45 4.55 L14.35 5.3 13.6 5.75 12.55 6.05 11.15 6.25 11.15 25.3 10.5 25.3 9.2 25.15 9.15 6.15 7.85 5.85 6.6 5.7 4.95 4.9 Q3.65 4.15 3.75 3.6 L3.85 2.8 Q3.95 1.9 4.55 1.9 L5.9 2.1 7.1 2.4 Q7.6 2.55 8.45 3.65 L9.65 5.2 9.75 5.35 9.8 5.4 9.9 5.45 10.05 5.6 10.5 5.35 10.5 5.3 10.5 5.25 Q11.25 4.9 12.5 2.75 12.8 2.25 14.25 2.0 L15.6 1.9 Q15.8 1.9 15.95 2.2 M5.4 16.5 L5.4 17.1 4.05 17.45 1.45 17.9 0.35 17.9 0.65 17.3 1.0 16.5 1.6 16.55 3.85 16.1 5.45 15.55 5.4 16.5 M9.65 6.15 L9.65 6.2 9.65 6.15 M15.9 17.45 L14.7 17.1 14.65 16.3 14.5 15.55 16.1 16.1 18.35 16.55 18.95 16.5 19.3 17.3 19.6 17.9 18.5 17.9 15.9 17.45" fill="#ffbfc6" fill-rule="evenodd" stroke="none"/>
      <path d="M10.0 24.65 L9.95 24.5 9.95 23.7 10.0 23.55 10.15 23.5 10.3 23.55 10.35 23.7 10.35 24.5 10.3 24.65 10.15 24.7 10.0 24.65 M10.0 22.85 L9.95 22.7 9.95 21.9 10.0 21.75 10.15 21.7 10.3 21.75 10.35 21.9 10.35 22.7 10.3 22.85 10.15 22.9 10.0 22.85 M9.95 20.9 L9.95 20.1 10.0 19.95 10.15 19.9 10.3 19.95 10.35 20.1 10.35 20.9 10.3 21.05 10.15 21.1 10.0 21.05 9.95 20.9 M9.95 17.3 L9.95 16.5 10.0 16.35 10.15 16.3 10.3 16.35 10.35 16.5 10.35 17.3 10.3 17.45 10.15 17.5 10.0 17.45 9.95 17.3 M9.95 18.3 L10.0 18.15 10.15 18.1 10.3 18.15 10.35 18.3 10.35 19.1 10.3 19.25 10.15 19.3 10.0 19.25 9.95 19.1 9.95 18.3 M10.0 13.85 L9.95 13.7 9.95 12.9 10.0 12.75 10.15 12.7 10.3 12.75 10.35 12.9 10.35 13.7 10.3 13.85 10.15 13.9 10.0 13.85 M9.95 14.7 L10.0 14.55 10.15 14.5 10.3 14.55 10.35 14.7 10.35 15.5 10.3 15.65 10.15 15.7 10.0 15.65 9.95 15.5 9.95 14.7 M10.15 10.9 L10.3 10.95 10.35 11.1 10.35 11.9 10.3 12.05 10.15 12.1 10.0 12.05 9.95 11.9 9.95 11.1 10.0 10.95 10.15 10.9 M10.35 7.5 L10.35 8.3 10.3 8.45 10.15 8.5 10.0 8.45 9.95 8.3 9.95 7.5 10.0 7.35 10.15 7.3 10.3 7.35 10.35 7.5 M10.15 9.1 L10.3 9.15 10.35 9.3 10.35 10.1 10.3 10.25 10.15 10.3 10.0 10.25 9.95 10.1 9.95 9.3 10.0 9.15 10.15 9.1 M10.15 5.5 L10.3 5.55 10.35 5.7 10.35 6.5 10.3 6.65 10.15 6.7 10.0 6.65 9.95 6.5 9.95 5.7 10.0 5.55 10.15 5.5" fill="#9a2727" fill-rule="evenodd" stroke="none"/>
      <path d="M15.9 2.0 L15.8 2.0 15.2 2.5 13.45 4.0 Q12.7 4.55 11.75 4.75 L12.2 4.65 12.4 4.55 12.7 4.5 13.65 4.25 14.7 3.75 14.55 3.95 13.65 4.9 13.35 5.1 10.9 5.6 10.7 5.55 10.55 5.55 10.6 5.5 10.45 5.4 11.3 4.65 12.0 3.55 12.6 2.6 12.9 2.35 13.95 2.0 15.85 1.95 15.9 2.0 M5.95 4.0 L5.8 3.85 6.8 4.25 7.65 4.5 7.95 4.55 8.15 4.6 8.75 4.7 6.95 3.9 5.85 3.2 5.55 2.95 4.85 2.0 4.85 1.95 6.5 2.3 Q7.65 2.55 8.0 2.9 L8.95 4.25 9.2 4.65 9.25 4.7 9.35 4.85 9.65 5.3 9.6 5.35 9.65 5.4 9.55 5.4 9.35 5.45 7.05 5.0 6.8 4.85 5.95 4.0" fill="#e98b9f" fill-rule="evenodd" stroke="none"/>
      <path d="M12.3 12.9 L12.25 5.8 12.3 5.65 12.5 5.55 Q12.75 5.5 12.8 6.05 L12.8 12.9 12.5 12.85 12.35 12.85 12.3 12.9 M7.4 10.1 L7.45 5.6 7.5 5.5 7.7 5.45 Q7.95 5.45 8.0 5.8 L7.9 10.15 7.6 10.05 7.45 10.05 7.4 10.1" fill="#ffffff" fill-rule="evenodd" stroke="none"/>
      <path d="M12.3 12.9 L12.35 12.85 12.5 12.85 12.8 12.9 13.15 13.2 13.25 13.75 13.25 13.8 13.3 13.95 13.2 14.35 13.0 14.65 12.6 14.85 12.0 14.6 11.8 14.35 11.8 14.1 11.8 13.95 Q11.8 13.05 12.3 12.9 M7.4 10.1 L7.45 10.05 7.6 10.05 7.9 10.15 8.2 10.45 8.3 11.0 8.3 11.05 8.35 11.2 8.25 11.6 8.05 11.9 7.6 12.05 7.05 11.8 6.85 11.55 6.85 11.3 6.85 11.15 Q6.9 10.25 7.4 10.1 M13.0 14.1 L12.7 13.9 12.3 13.95 12.25 13.9 Q12.25 13.55 12.65 13.2 L12.5 13.1 12.35 13.25 Q12.05 13.55 12.05 13.95 12.05 14.45 12.6 14.5 L13.0 14.1 M7.35 11.15 L7.3 11.1 7.7 10.4 7.6 10.3 7.4 10.45 Q7.1 10.75 7.1 11.15 7.1 11.65 7.65 11.7 L8.05 11.35 7.75 11.1 7.35 11.15" fill="#524970" fill-rule="evenodd" stroke="none"/>
      <path d="M7.35 11.15 L7.75 11.1 8.05 11.35 7.65 11.7 Q7.1 11.65 7.1 11.15 7.1 10.75 7.4 10.45 L7.6 10.3 7.7 10.4 7.3 11.1 7.35 11.15 M13.0 14.1 L12.6 14.5 Q12.05 14.45 12.05 13.95 12.05 13.55 12.35 13.25 L12.5 13.1 12.65 13.2 Q12.25 13.55 12.25 13.9 L12.3 13.95 12.7 13.9 13.0 14.1" fill="#d4d4d4" fill-rule="evenodd" stroke="none"/>
    </g>
  </defs>
</svg>
