<svg xmlns="http://www.w3.org/2000/svg" xmlns:ffdec="https://www.free-decompiler.com/flash" xmlns:xlink="http://www.w3.org/1999/xlink" ffdec:objectType="frame" width="22.5" height="27.1"><use ffdec:characterId="1" xlink:href="#a" width="22.5" height="27.1"/><defs><g id="a"><path fill-rule="evenodd" d="m15.45 3.65-.75.15.05-1.35.2-1.1.05-.1V1.2l.05-.25-.75.45L16 14.45l.25 7.4-.15 3.35-1.15.3v-.9l-.7-18.15h-.05l-.15-1.35-.4-2.8V.85l.5-.4.7-.4.45-.05.25.1.15.15q-.55 1.45-.45 2.9l.65-.2.55-.35.1.3q-.3.45-1.1.75M7.5 24.55l-.05.5v.45h-.1l-1.05-.15.1-7.8.5-5.85.7-5.7.6-4.7.05-.1-.8-.3.05.05.25 1.5.05 1.35-.75-.15-1.1-.75.1-.3 1.15.5L6.7.3q.05-.3.5-.3l.1.05.95.35.1.05.4.3.1.1v.35L8.9.9v.6l-.4 4.35q-.4 3.7-.3 3.7z"/><path fill="#793c67" fill-rule="evenodd" d="m15.45 3.65 1.05 1.8q2.1 3.85 4.25 9.25L22 18.3q.85 3.05.25 3.75v.05l-.05 1.4-.75 1-.15.1v.05l-.6.4-.15.05-1 .5-4.45 1.5-.15-1.6 1.15-.3.15-3.35-.25-7.4L14.3 1.4l.75-.45-.05.25v.05l-.05.1-.2 1.1-.05 1.35zM7.35 25.5l-.25 1.6-1.05-.2-2.4-.7-1.15-.55-1.2-.9-.8-.65q-.2-.35 0-1.7l-.25-.35q-.55-1.2.05-3.75l1.4-4q2.15-5 4.6-9.4l.75-1.25.75.15-.05-1.35L7.5.95 7.45.9l.8.3-.05.1L7.6 6l-.7 5.7-.5 5.85-.1 7.8zM6.05 2.6l.4-1.7.25-.6.5 2.8zM15.7.25l.35.65.4 1.7-.55.35-.65.2q-.1-1.45.45-2.9"/><path fill="#b99abf" fill-rule="evenodd" d="m14.95 24.6-3.4.1-4.05-.15.7-15q-.1 0 .3-3.7l.4-4.35q.1 2.6 2.25 2.75 1.95.15 2.5-1.95l.4 2.8.15 1.35h.05z"/><path fill="none" stroke="#ccc" stroke-linecap="round" stroke-linejoin="round" stroke-width=".1" d="m16.6 7.45.25.8m.15.4.25.8m-1.45-4.3.25.8m.15.4.25.7m-1.2-3.35.3.85m-9.1 1.8-.2.7m1.15-3.3-.3.8m-.2.6-.3.8m-.5 1.5-.25.8m-.1.4-.25.8m-.1.4-.25.8m-.1.4-.2.9m-.65 2.9-.15.9m.4-2.2-.15.8m.45-2-.2.8m-.6 3-.1.8m-.05.4-.15.9m-.25 2.8-.05 1m.1-2.1-.05.7m.2-2-.1.9m13.85-9.7.25.8m.1.4.25.9m.75 2.9.2.9m-.5-2.2.2.8m-.55-2 .25.8m.7 3 .15.8m.1.4.15.9m.3 1.7.1.7m.05.4.15 1m-.5-3.4.15.9m.9 5.55.05-1.75m-.45.3-.1-1.1m1.4 1.95v-1.75m-1.9 2.85.05-1.65m-2.3.9.05 1.65m1.15-.4.05-1.7m-2.45 2.45-.1-1.6m-11.15-.4L4.8 26.6m-2.3-2.7v1.75m1.15.55-.05-1.8m-.3-1.85-.05 1.7m2.8 2.65.25-1.65m-5-.5V23.2"/><path fill="#3f3f3f" fill-rule="evenodd" d="M14.1 5.4h-.05l-.25.1q-1 .35-2.15-.35l.9.15L14 5.1h.1zm.15 1.05.05.9-1 .45-2.15-.2-2.5.3q.75-1.25 2.3-1l2.6-.25zm-5.6-.6 1-.75L8.6 6.3l-.15.1.05-.5zm-.45 3.1 3.7-.2-3.75.8zm-.15 3.55.05-1.05h.15q1.6-.15 2.4-.65 1.35-.8 2.5.2-1.55-.3-2.45.35L8.65 12.5zm.05 2.45 3.2-.5q-.5.5-1.3.8-1 .35-2.1 0l.05-.3zm2.15-1.7q1.2-1.25 4.25-.65v.25q-2.05.05-5.05 1zM8.3 17.6l3.15.25q.65.3 2.15-.85-1.35 1.8-2.9 1.5l-2.45.25-.5.15.05-1.2zm-.5 4.15 1.45-.45-.1.05q-.5 1.55-1.55 1.55h-.05l.05-1.1zm2.95-1.9q.8-.55 3.9-.8-2.45 1.6-4.45 1.35zm1.1-3.8q1-.7 2.75-1.25l.05 1.05q-1.35.15-1.95.5l-4.05.1zm3 5.2.05 1.15-1.85-.2-2.5.3q1.1-1.4 2.9-1.3zM13.1 23.6q-1.05.65-4.6.75l.6-.45z"/><path fill-opacity=".298" fill-rule="evenodd" d="M22.35 20.05q.25 1-.05 1.95-.25.9-1.7 2.2-1.5 1.3-5.15 2.35-.25-.1-.35-1.8l-.1-1.7 3.2-.45q3.15-.65 3.55-2.1.35-1.5.6-.45m-8.3-16.2.15 2q-.5.65-1.4 1.05-1.7.75-3.5-.65l2.3.05q1.75-.4 2.45-2.45M7.7 18.45l.5-9.95q-.05 1.65.8 3.9v.05l.15.4.15.35q.8 1.5 2.05.75 1.5-.3 3.1-2.8l.25 4.7q-.8-1.4-1.45-1.6-1.5 1.65-3.45 2-1.95.3-2.1 2.2m1.2 3.25q2.4 1.25 5.9-3.05l.1 2.8-1.85.2-2.45 1.2-1.6.55-.8-.3-.6-.7.1-1.95zm-4.55.8 3.2.45q-.05 3.3-.45 3.5-3.65-1.05-5.15-2.35Q.5 22.8.25 21.9q-.2-.9 0-2.05.15-1.2.45.3t3.65 2.35"/><path fill-opacity=".498" fill-rule="evenodd" d="m14.9.15.45-.05-.25.95V1l-.05.3v.05l-.05.1-.2 1.1-.05 1.35.75-.15 1.05 1.8q-1.4-1.1-1.35 2l-.85-6.05-.4-.75.25-.2zM7.25.1l.1.05q.45.1.95.35l.1.05.4.3-.55.55-.7 5.8Q7.4 4.25 6.35 5l.75-1.25.75.15-.05-1.35-.1-.65-.1-.55-.05-.3L7.5 1z"/></g></defs></svg>