<svg xmlns="http://www.w3.org/2000/svg" xmlns:ffdec="https://www.free-decompiler.com/flash" xmlns:xlink="http://www.w3.org/1999/xlink" ffdec:objectType="frame" width="21.6" height="25.35"><g transform="translate(.75 -1.3)"><use ffdec:characterId="3" xlink:href="#a" width="21.6" height="25.3" transform="translate(-.75 1.35)"/><use ffdec:characterId="5" xlink:href="#b" width="17" height="18.35" transform="translate(1.75 3.5)"/><use ffdec:characterId="6" xlink:href="#c" width="20.6" height="22.6" transform="translate(-.15 1.3)"/></g><defs><g id="a"><path fill="#900" fill-rule="evenodd" d="m6.35 2.2.1-.15q.1-.1.15-.05z"/><path fill="#76d3e9" fill-rule="evenodd" d="m15.75 5.15-.05.15q0 .5.65.5l1.05.2 1.15.15h.2l-.4 2.2-.15.25-.05.5.15 1.05 1.05 2.95 1.25 2.85.15 1.05-1.45 1.65-1.25-2.9q-1.2-3-1.1-3.2l.1-.15v-.15q-1 1.9-2.4 3.3l-2.1 1.6.7-4.3.05-.3.5-2.45v-.2l.05-.2-.25-.85.25-.6.55-1.7v-.3l.05-.7V5.3h.05q.05-.15.25-.15v.3l.1.05v-.15h.1l.05.15.4-.3.05-.05zM3.7 6.35l1.8-.4q.9-.2.95-.8h.1l.3.05h.45l-.05.15q.2 2.3.6 3.5l.2 1.05.05.1-.05.25.5 2.6.7 4.4q-.95-.45-2.15-1.7L5.15 12.9l-2.4 5.75-2.1-1.8.05-.1 1.85-3.35L3.6 11l.45-1.35.15-.5v-.4q0-.45-.4-.7l-.4.05L3.05 6l.2-.05.05.15zm.4 3.35.1-.35-.05.05z"/><path fill="none" stroke="#fff" stroke-linecap="round" stroke-linejoin="round" stroke-opacity=".6" stroke-width=".5" d="m17.55 6.15-1.45 7.6M4.25 6.05l1.6 7.85m-.5-8.2 1.75 9.15m8.2-9.75-2 11.5M6.5 5.45 8.45 16.6m7.9-10.7-1.7 8.9"/><path fill="#333" fill-rule="evenodd" d="M21.25 21.25v.05l.35.85v.1l-.15.1q-6.2 3.2-8.5 2.7l-.1-.05q-1.1-.4-1.6-1.95-.25 1.15-.9 1.7l-.1.05-.4.3q-.85.6-5.45-.8L.05 22.8l.05-.2.2-.7v-.05L1.7 18l2.85 1.95q1.2.65 2.15.65l.3-.2q.55-.35.9-.3l-.2.25.05.05.2-.15q.95-.8 1.4-2.8l-.7-3.7q-.7-3-.5-3.35.05-1.9 2-5.9L7.9 5.95 7.45 7.7l-.3-2.35.1.1 2.8-1.5-.75-.45-2.1-1.25v.25l-.2.25q-.4-.2-.45-.7L6.3 1.5 5.95.85 9.15 0l1.8 1.6.05.1L12.85.05l2.95.7-.15.65-.3.45v.05l-.1.1-.05.05-.2.15h.05l-.05.05-.05.1h-.1V2.3l-.3.1h-.4.05q-.9.4-1.85 1.1l-.4-.55V2.8H10l.25 2.25 1.3.05.2-1.1 2.85 1.2-.15 1-.05.65-.1.05q.45 1.35-.85-.45l-1.5-1.8L13.7 8.9l.25.9q-.45.15-.5.65l.45-.5-.7 3.4-.5 3.15-.2.9.2.25q.5 2.2 1.25 2.65l3.4-.15q1.55-.65 2.75-2z"/><path fill="#dbdbdb" fill-rule="evenodd" d="m5.8 17.4.6-.2.55.2.25.6-.25.6-.2.15-.35.1-.6-.25-.25-.6zm9.1.15.6-.2.55.2.25.6-.25.6-.55.25q-.3 0-.5-.2l-.35-.6v-.05z"/><path fill-opacity=".29" fill-rule="evenodd" d="m21.3 21.4.3.8-.2.15Q17.25 24.8 14.9 25l-1.15.2-.55-.1-.85-.3-.15-.2h-.05l-.05-.05-.2-.15-.5-.5h-.1l-.15-.35-.15.35q-.65 1.4-1.75 1.4-2.95 0-9.25-2.4l.1-.3.2-.55q5.6 2 8.1 2 1.8 0 2.3-1.1l.2-.75-.05-.25-.3-3.55.15-.5q0-.65-.4-.8-.3-.1-.4.1h-.05l-.3 2.05-.7 1.2-.45.35-.15.1h.15l.05.1.95.25-.05.05-.5.3H8.8l-.05.05-1.1.2-1.8-.45-.25-.1-.25-.2L5 21l2.2 1.65-1.85-.45q-1.45-.6-2.1-2.05l-.5-.35-1.25-1.3.3-.6-.1-.1-.1-.15v-.05l1.55 1.45q1.75 1.4 3.5 1.4 1.7 0 2.25-1.7L9.1 17l-.65-2.55q-.65-2.4-.65-3.8 0-1.15.45-.2.5 1 .7 2.8l.65 2.85v.05l.1.15v.15l.05.1.4.25.45-.45v-.05l.15-1.05.2-1.4-.05-.75h-.05l-.05-.2q-.2-.3-.95-.3h-.2q.65-.55 1.1-.55V12l-.2-1.85.2-1.95H9.8L9.55 8q.45-.4 1-.55l.2-.05-.25-1.45-.25-.85.25-.3.3.35q-.15.05-.15.3l.2.35.1.15v.1l.2.35.1.6-.2.75v.35l.15.25v.2l.7.15q-1.05.75-1.05 1.15l.2.45.1.8-.2.6.25 1.35.25 1.2-.05.6-.25.3v.55l.05.25-.05.1h.05l-.05.1.1.35v.05q.15.25.45.25h.05q.65 0 1.05-2.8l.3-3.45v-.15q.25-.35.75-.3l.05.3-.7 3.25-.2.75.05.35L13 15l-.25 1.25.05.05-.15.1.05.35.15.45.05.2.4 1.1v.1l-.05.3v.05q.65.95 1.6.95 1.55 0 3.35-1.3l2.05-1.7.4.1-.1.4-.2-.1q-.45 0-.45.55h.1l.15.05-.05.2.15.4v.05l-1.05.9-.6 1.2-.5.7-2.15.4.25-.15.45-.65.95-.7q.05-.1.15-.1l-.9.4-.7.45h-.05l-.1.1-.3.15-1 .55-.9.05-.55-.05.65-.3.55-.45V21l-.05-.15-.45.1q-1.3-.3-1.65-1.35l-.1-.35.05-.25-.3-1.25q-.25-.8-.55-.65-.25.15-.25.6v.35l-.05.1.05.6-.1.15v.5l.3 2.3.15.55q.15 1.2 1.05 1.75l.2.1.85.25.25.05h.35q.6 0 2.5-.85l1.7-.9.1-.05 2.65-1.1z"/></g><g id="d" fill-rule="evenodd"><path fill="#2f7fb8" d="m13.65 16.55.3-.65-.3-.7q-.25-.25-.65-.25l-.7.25-.25.7.25.65.15.1q.2.2.55.2.45 0 .65-.3M6.75 15q-.5 2.05-1.6 2.8-1.15.7-3.2-.25-2.1-.95-1.95-1.5l2.6-6.4q1.35 3.2 4.15 5.35m-2.2 1.4.3-.65-.3-.7q-.25-.25-.65-.25-.35 0-.7.25l-.25.7.25.65.7.3.4-.1zM2.85.9 4.2.1Q3.7 1.35 4 2.85v.1l-3.25-1zm12.65.9.35.2-2.8.8-.4.15-.05.1V3q.45-1.5-.05-2.95l.15.1.4.3.65.4.35.2zm-5.35 12.75q2.4-1.35 4.2-4.9L17 15.9l-3.05 2.25-1.95-.1q-1.2-.5-1.85-3.5"/><path fill="#fff" d="M11.85.15H12l.55-.1q.5 1.45.05 2.95v.05l-.05.05-.05.1h-.05l-.15.05-.35-.1-.2-.05L9.55 2v.05l.4.3L11.3 3.7l.55.5q1.1 1.4 1.9 3.7-1.45 1.1-3.25.6.65-1.8-.65-4.9l-.15-.35-.15-.15-.05.15-.45-.1-1 .05-.1-.15L7.8 3 7 4.05l-.25.45q-.85 2.45-.3 4-1.8.5-3.25-.6.75-2.1 1.7-3.45l1.25-1.3 1.5-1.05v-.05l-.95.5-1.65.65-.3.1-.25.05-.05.05L4 2.5v.35q-.3-1.5.2-2.75l.2-.1.15.05L6.2.3l1.3.45-.05-.1.05-.2.05-.15.7-.15L8.4.1h.3l.95.15V.6L10.7.3z"/></g><g id="c"><path fill="#fff" fill-rule="evenodd" d="m20.6 16.95-.1.25-.3.4-.1.1-2.9 2.3q-2.4 1.3-3.95.3l-.05-.05q-1-.85-1.5-2.9l-.05-.05.1-.2.3-.95.2-.05h.05l.05-.05 1.45-1.25q1.7-2.1 2.7-5.45v.05l.7-2.75-3.4-1.05v-.2h.05l.5-.35.1-.2 1.9-.8-1.2-1-.75-.8.2-.2.1-.1 1.35.9q1.65 1.05 2.6 1.35l-.3.1-.85.3-1.95.85 2.25.45.55.1-.1.35-.5 2.25-.5 1.65q-1 3.15-2.35 4.8l-.35.4-1.75 1.5-.15.05.55 1.65.15.25.7.7 1.35.15q1.5-.25 3.2-1.9l1.45-1.75.35.55zM5.85 1.9l.2.35.05.1-.65.65-1.2 1 1.9.8.1.15.5.65-3.35 1 .7 2.75V9.3q1 3.35 2.7 5.45L8.25 16l.05.05h.05l.2.05.3.95.1.2-.05.05q-.5 2.05-1.5 2.9l-.05.05q-1.55 1-3.95-.3l-2.9-2.3-.1-.1-.3-.4-.1-.25.2-.3.35-.55q.4.75 1.45 1.75 1.7 1.65 3.2 1.9l1.35-.15.7-.7.15-.25.55-1.65-.15-.05-1.65-1.35L6 15.4q-1.65-2.05-2.65-5.2l-.5-1.65-.5-2.25-.1-.35.55-.1 2.25-.45-1.95-.85-.85-.3-.3-.1 2.6-1.35zM10.95 7l-.2.4-.4.2q-.25 0-.45-.2L9.75 7q0-.25.15-.45.2-.15.45-.15l.4.15zm-.25 3.55.2.45-.2.4q-.15.2-.4.2t-.45-.2L9.7 11q0-.25.15-.45.2-.15.45-.15t.4.15m-.75 3.9.45-.15q.25 0 .4.15l.2.45-.2.4q-.15.2-.4.2l-.45-.2-.15-.4zM10 18.4q.2-.15.45-.15t.4.15l.2.45-.2.4-.4.2q-.25 0-.45-.2l-.15-.4q0-.25.15-.45"/><path fill-opacity=".2" fill-rule="evenodd" d="m15.55 2.5.75.5q-1.15 2.95-2.05 2.95L14 5.8v-.1h-.2l-.9-.2.35.6q.7 1.3.7 1.85 0 .45-.35.45l-.4-.15-.1-.25.05 1.4-.1 1.15h.1l.45.15h.2l1.4-.4.3-.2.1-.05-.05.05.15.25-.75.6-1.55.35-1.1-.25-.35-.3.1-.2v-.2l.15-1.25q0-1.3-.45-2.35l-.25-.6-.15-.2L11 5.7l-.45.05-.7-.05q-.6.6-.95 1.45-.3.5-.3 2.1l.05.65.05.15.25.75-.45.45-.95.2L6 11.1l-.65-.45.05-.15-.15-.3-.05-.1.35.2 1.55.45h.1q.75 0 .75-.4l-.05-.2-.05-.5.2-2.65-.1.15-.85 1.4.15-1.3.3-.95.15-.35-.8.65h-.1L4.45 2.85l.4-.2.35-.3.4-.25.3-.25.05.15.3.3.2-.1 1.15.15 1.1.3.55.25.3-.15.1.75.35.65.55.3h.2l.3-.25v-.1l.15-.4.05-.25.2-.7h.4l-.2.4.35-.1q.75-.1.75.3 0 .45-.9.45h-.15q.15.4.85.45l.2.1.3.15.25.25q.4.35.7.35l.45-.7.15-.85-.05-.95-.2-.2v-.1l.05-.1.05.05.25-.25.1-.05zm2.2 7.6.2.6-.05.1-.3.8.15.8.25 1.15-.05.8-.8-1.7-.2.45-.05.1-.05.85-.25.85-.05 1.1-.65-.4h-.35q-.3.05-.35.4L14 17.1l-.4.35.3 1.1q.2.8 1 .8 1 0 2.35-.8L18.7 17l1-1.65.2.35-.05.1h.1l.45.7-1.85 1.85Q16.45 20 14.85 20q-1.25 0-1.95-1l-.45-.9-.55.15v-.15l-.2-.8.35-.1q.35-.15.9-.35l1.75-1.65 1.25-1.8 1.65-4.15zM7 2.45q-.55 0-.65.25v.5l-.05.7.05.65q.1.6.4.6l.6-.3.4-.3.05-.05.95-.4.45-.1.15-.05-.05-.05h-.05v-.05l-.45.05q-.8 0-.8-.4 0-.45.8-.25l.45.1v-.1l.05-.2L8.75 3l-.05-.05L8 2.7h-.05q-.2-.25-.9-.25zM5.9 15.2l1.75 1.65q.55.2.9.35l.35.1-.2.8v.15l-.65-.2-.45 1-.95.8-.8.2H5.3l-1-.35-.4-.25h-.05l-2.1-1.6L.4 16.2l.75-.75.25.55.05.05.15.3q1.1 2 2.55 2.7h.05l.05.05 1.15.15q.95 0 1.5-.55l.35-.75v-.05l.05-.15.05-.1-.75-.55-1.1-1.05-.15.15-.15.2v-.1q0-1.5-.85-1l-.8.85.05-.35.15-.8.25-.5.2-.3-.35-.65-.9-2.2.1-.2.3-.9.5 1.35h.05v.1l.15.25.75 1.65.35.65.1.1.5.7zm.25 1.65.3.4zM7.9 13.2l.05.25-.6.05q-1.2.2-1.5.8l-.6-.8-.45-.9-.2-.65q.85.4 1.7.4l1.1-.3.3-.3h.1l-.05.2zm-4.5 3.35.1-.35.05.15-.1.2zm3.05 1.3-.35-.15q-.5-.05-.5.4l.05.2q.1.2.45.2h.05l-.3.05q-.65 0-.65-.55t.6-.55q.55 0 .65.4m9.1-4.5-.6.85q-.35-.55-1.75-.65l-.7.05.05-.3.35-1.3.15.1 1.2.2q.95-.1 1.85-.6l-.1.7zm.3 1.85v.05zM15 18.25q0-.4-.4-.4l-.3.1q.1-.3.55-.3t.55.6q0 .5-.55.5l-.4-.1h.15q.4 0 .4-.4"/><path fill-opacity=".961" fill-rule="evenodd" d="m15.25.75-.1.45-1.4.3q-2.2.55-2.35.95l-.55-.1h-.45l-.6.15-.25.05L9 2.2l-.8-.3-.25-.05-1.35-.3-1.4-.5L6.9.5l.55-.15h.25Q7.8.3 7.95.2l.8-.15.7.65 1.05.65q.3 0 2-1.35l1.5.4z"/><path fill="none" stroke="#000" stroke-linecap="round" stroke-linejoin="round" stroke-opacity=".2" stroke-width=".8" d="M5.8 18.35q4.3 7.65 8.9.15"/><path fill="none" stroke="#d2d2d2" stroke-linecap="round" stroke-linejoin="round" stroke-width=".5" d="M6 18q3.9 7.65 8.55.2"/></g><use ffdec:characterId="4" xlink:href="#d" id="b" width="17" height="18.35"/></defs></svg>