<svg xmlns="http://www.w3.org/2000/svg" xmlns:ffdec="https://www.free-decompiler.com/flash" xmlns:xlink="http://www.w3.org/1999/xlink" ffdec:objectType="frame" width="22.3" height="35.85"><use ffdec:characterId="3" xlink:href="#a" width="22.3" height="35.85"/><defs><g id="a"><path fill="#c9d0d7" fill-rule="evenodd" d="m13.2 31.15 2.2.1.05.1-3.55.1 1.25-.3z"/><path fill="#8cdfff" fill-rule="evenodd" d="m15.25 35.6.4-2.05-.05-1.25-.15-.95 4.55-.1.45 1.15.05.35.1 2.15-.45.1zm-5.5-3.65-.5.2q-.75.35-1.45.85l-.15.7q-.25 1.15.15 2l-.45-.05-2.6-.2-2.8-.5-.25-2.1-.1-.35 1.4.05.5-.05h1.9l2.85-.35.65-.1z"/><path fill="#d0f1ff" fill-rule="evenodd" d="m20.6 34.9-.1-2.15-.05-.35-.45-1.15-4.55.1.15.95.05 1.25-.4 2.05h-.2l-4.4.25-2.85-.15q-.4-.85-.15-2l.15-.7q.7-.5 1.45-.85l.5-.2 1.75-.4.4-.1 3.55-.1-.05-.1-2.2-.1 3.05-.3 5.2.4.15.9q.2-.25.25.25l.05.2-.05 1.75q.05.3-1.25.55m-18.65.05-.65-.2-.5-.5-.1-1.8-.05-.2L.7 32l.2-.15q.2 0 .3.15v.5h.4l.1.35z"/><path fill="#e5e5e5" fill-rule="evenodd" d="m14.15 3.4.2.1.4.35.1.1.35.65-.05.15-.05.05.25.35.05.1.1.25.05.1v.05l.2.4L16.8 8.2l.9 2.05.8 1.95 1.65 3.65q1.45 3.1 1.5 4.25.05.85-.55 1.3l-.15.1-.35.2.15.3.3 1.45.45 3 .8 5.85v.25q-.15.55-1.6.85l-2.75.5-.45.05-1.5.15h-.35l-.15-.05-.3.05h-.05l-1.55.05H9.45l-.25-.05-.4.05-1.25-.05-.45-.05h-.05l-.4.05.4-.1-.75.1-1.5-.15-.45-.05-2.75-.5Q0 33.05 0 32.45l.05-.3v-.1l.05-.1.7-5.5.45-3 .3-1.45.15-.3-.35-.2-.15-.1q-.6-.45-.55-1.3.05-1.15 1.5-4.25L3.8 12.2l.8-1.95.9-2.05 1.05-2.15.2-.4V5.6l.05-.1.1-.25.05-.1.25-.35-.05-.05-.05-.15q0-.2.35-.65l.1-.1.4-.35.2-.1.2.1L7.3 4.75V5q-.1 2.05.3 3.45t.15 1.65q-.3.25-.45 1v.1q.5-.4.15 1l-.1.25v.1l.05.35.4 3.2.2-.35.6-1.5.95-2.75.05-.05.05 1.25-.85 2.1-.45 1.2q.7-.95 1.05-.3l.9 1.65-.1.7.3.4.15.3.3.55.4-.75.05-.15 1.5-2.7 1.5.4h.1l.25-1.55.2-1.85v-.25L15 11.2l.05-2V6.35L15 4.75l-.05-.05-.65-.8h-.05l-.05-.1-.25-.3z"/><path fill="#fff" fill-rule="evenodd" d="m13.3 11.2-.1.3q0 .35.35.35l.3-.35-.05-.2-.25.25-.25-.25zm-.2.5v-.15q0-.4.35-.5h.15l.2.05q.25.05.3.35v.1l-.05.25-.1.15-.25.15h-.25zm.7 1.55.05.05v.15l-.05.25-.2.25-.25.05h-.25l-.2-.25-.05-.25v-.2l.1-.2.1-.1.2-.05h.2l.3.2zm-.85.25v.1l.4.15.15-.05.1-.1.05-.15-.1-.25-.15.25h-.1l-.3-.25-.05.2z"/><path fill="#bbb" fill-rule="evenodd" d="M13.3 11.2v.1l.25.25.25-.25.05.2-.3.35q-.35 0-.35-.35zm-.35 2.3v-.1l.05-.2.3.25h.1l.15-.25.1.25-.05.15-.1.1-.15.05-.4-.15z"/><path fill="#7e4500" fill-rule="evenodd" d="m11.8 9.05.05.05q.6-.2.85-.55.6-.9 1.35-1.5L14 7.1l-.4 1.55-.1.4-.05.1-.7 2.4-.05.15-.8 2.55-.05.2-.05.2-.5 1.5-.05.1v-.9l.3-2.5.25-1.45-.8.45v-.05l.7-2.55.05-.05zm-.4 8.3.05-.05.15-.3.6-1.25.05-.05.25-.6 1.6.35v-.1l.35-2.35.05-1.05v-.6l.05-.3v-.4l.05-.5.05-1.1v-.7l.05-1.5v-.3l.35-.2V9.2l-.05 2-.05 1.25v.25l-.2 1.85-.25 1.55h-.1l-1.5-.4-1.3 2.35z"/><path fill="#ffbe43" fill-rule="evenodd" d="m14.05 7.05.65-.5v.3l-.05 1.5v.7l-.05 1.1-.05.5v.4l-.05.3v.6L14.45 13l-.35 2.35v.1l-1.6-.35-.25.6-.05.05-.6 1.25-.15.3-.05.05v-.1l-.15-1 .05-.1.5-1.5.05-.2.05-.2.8-2.55.05-.15.7-2.4.05-.1.1-.4.4-1.55zm.2-3.15-.4.05-.5.25.05-.1q.05-.55.3-.65l.25.05.25.3zm-2.5 5.05.05.1-.05.15-.05.05-.7 2.55.2-1.05.45-1.5V9.2l.05-.05zm2.35 2.5q-.05-.3-.3-.35l-.2-.05h-.15q-.35.1-.35.5v.15l.1.55.6.05.25-.15zm-.25 1.9v-.05l-.05-.05v-.1h-.05l-.3-.2h-.2l-.2.05-.1.1-.05.05-.05.1q-.35.55.15.9l.05.1h.2l.4-.1.3-.3z"/><path fill="#cb8500" fill-rule="evenodd" d="m13.1 11.7.35.4h.25l.3-.15.05-.15.05-.25v-.1l-.05.7-.25.15-.6-.05zm-.15 1.4-.1.2v.2l.05.25.2.25h.25l.25-.05.2-.25.05-.25v-.1l.1.5-.3.3-.4.1h-.2l-.05-.1q-.5-.35-.15-.9l.05-.1z"/><path fill="#796818" fill-rule="evenodd" d="m13.8 13.25-.05-.1h.05z"/><path fill="#c99739" fill-rule="evenodd" d="M14.05 7.05v-.1l.35-1.6L13.2 5l-.05-.05-1.35 4.1-.05-.1.55-1.6 1.05-3.15.5-.25.4-.05h.05l.65.8-.15.4-.1 1.45zm-2.8 9.2.15 1v.1l-.5 1.05-.2.3-.05.05-.15-.3.15-.45.05-.2.4-1z"/><path fill="#4f2b00" fill-rule="evenodd" d="m11.8 9.05 1.35-4.1.05.05 1.2.35-.35 1.6v.1q-.75.6-1.35 1.5-.25.35-.85.55zm2.9-2.5.1-1.45.15-.4.05.05.05 1.6zm-3.1 11.5-.2.35-.05.15-.4.75-.3-.55.05-.05.2-.3.5-1.05zm-1.1.4-.3-.4.1-.7.25-1.5.05-.7.35-2.85.05-.4v-.05l.8-.45-.25 1.45-.3 2.5v.9l-.15.55-.4 1-.05.2z"/><path fill-opacity=".498" fill-rule="evenodd" d="m15.05 11.25.05.15.1.35L16 14l1.15 3.2q.6 1.6.5 2.35L17 21l-.05.05-.3.55-.1.25h.15l.05.05.05-.05.1.75.05.2.2 1.1.25 1.2q.45 2 .5 4.15l.1 2.65.05.45-.05.7v.3l-.05.55-.45.05.15-2.4q.15-2.55-.5-5.75l-.35-1.7-.3-1.3-.25-.9-.1-.35.1-.25.15-.2h-.1l.5-.65q.7-.75.25-2.3l-1.25-3.6-.65-1.55-.2-.45v-.1L15 11.2zM7.3 11.2l.15 1-.1.25v.1l-.2.45-.65 1.55q-.85 2-1.25 3.6-.45 1.55.25 2.3l.55.8v.65l-.25.9-.3 1.3-.35 1.7q-.65 3.2-.5 5.75l.15 2.4-.45-.05-.05-.5v-1.5l.1-2.65q.05-2.15.5-4.15l.25-1.2.2-1.1.05-.2.1-.75v-.1q0-.25.25-.15L5.3 21q-.6-.9-.65-1.45-.1-.75.5-2.35L6.3 14l.8-2.25.1-.35.05-.15zm2.3.25.05 1.25-.85 2.1-.45 1.2-.25.6q-.4 1.1-.65 2.25-.3 1.15.2 1.6l.55.75.25.6-.05.2-.2.65-.1.45-.15.6-.25 1.1-.25 1.25q-.65 3.2-.5 5.75l.15 2.25h-.05l-.4.05.4-.1-.4.05v-.45l-.05-1.45v-.05l.1-2.6q.05-2.15.5-4.15l.15-.6.25-1.2.05-.5.05-.1.05-.35.05-.6v-.05q.05-.2.25-.1l-.4-.55q-.6-.95-.7-1.5-.1-.75.5-2.35l.25-.75.3-.95.6-1.5.95-2.75zm4.3 4.5.5.15.2.6.25.75q.6 1.6.5 2.35l-.7 1.5-.05.05-.2.5-.05.1-.1.1h.25l.05.55.05.35.05.1.05.5.25 1.2.15.6q.45 2 .5 4.15l.1 2.65v1.5l-.05.45-.15-.05-.3.05.15-2.3q.15-2.55-.5-5.75l-.25-1.25-.25-1.1-.15-.6-.1-.45-.2-.65-.05-.2.05-.05.2-.45h-.05l.05-.1q.1-.3.55-.75.5-.45.2-1.6l-.65-2.25-.25-.6z"/><path fill-opacity=".298" fill-rule="evenodd" d="m14.85 3.95.35.65-.05.15-.05.05.25.35v3.4l-.15 3.2-.05 1.2V13q-.05 1.9-.45 3.7h-.1l-.4-.1-1-.35-.1.05-.2.45-.15.3-.45.75-.15.25-.75 1.3-.2.35-.25-.4.4-.75.05-.15 1.5-2.7 1.5.4h.1l.25-1.55.2-1.85v-.25L15 11.2l.05-2V6.35L15 4.75l-.05-.05-.65-.8h-.05l-.05-.1h.05l.5.05zm-5.4 16.1 1.4.9.1.05.2-.1q.4-.2 1.05-1l1.45-1.5.3-.15-.05.15-.1.8v.45q.05.35.45.35l-.05.25q-.45.8-.85.7L12.3 21l-.6.1-.5.1-1.45.25.05-.05.05-.15h.05-.25v.15q-2 0-.6-.2l1.8-.2-.95-.1-.3-.05-.85-.15q-.75-.1-.9-.7l.7.15.6-.25zm.15 1.8 2.65-.45h.25l.7-.05.85-.05h.6l1.65-.2h.1l.6-.1 2.75-.95q1.7-.25 1.3.15-1 .4-.9 1.05l.8.25-.35.2-.9.05q-.95 1.35-2.55 2.15l-.35.2-1.85.65-.35.05-.3.05-1.35.15-2.15-.05 2.05-.7 1.5-.55.35-.15 1.5-.65.3-.1.4-.2 1.55-.8-1.65.05-.05.05-.05-.05-2.2.2h-.25L13.9 22l-4.35.15zm2.05 2 .45-.35.65-.5 1.35-.35.45-.05 1.1-.1-1.05.45-.15.05-.25.1-1.4.45z"/><path fill-opacity=".498" fill-rule="evenodd" d="m5.9 21.1 1.75.2h.55l2.55-.05q1.6-.05 1.95.6l.05.3L8.4 22l-.35.05-2.45-.2-.05.05-.05-.05-1.65-.05 1.55.8.4.2.3.1 1.5.65.35.15 3.55 1.25-3.5-.1-.3-.05-.35-.05-1.85-.65-.35-.2q-1.6-.8-2.55-2.15l-.9-.05-.35-.2-.15-.1-.05-1.2h.1l1.3-.15L5.3 21zm2.3 1.55q1.15.2 1.8.5l1.6.9-3.5-.95-.25-.1-.15-.05-1.05-.45 1.1.1z"/><path fill-opacity=".298" fill-rule="evenodd" d="m7.45 3.95.1-.1.5-.05h.05l-.8.95V6.7l.05.25.2 1.4.05.1q.4 1.4.15 1.65-.3.25-.45 1l.65-.15.1-.05-.35.55-.25.75-.1.25v.1l.05.35.4 3.2.2-.35.6-1.5.95-2.75.05-.05.05 1.25-.85 2.1-.45 1.2q.7-.95 1.05-.3l3.05 5.55-1.15-1.35-.15-.2-1.1-1.8-.85-1.6-.1-.05-1 .35-.4.1h-.1q-.4-1.8-.45-3.7v-.05l-.05-1.2-.15-3.2v-3.4l.25-.35-.05-.05-.05-.15q0-.2.35-.65m3.75 9.65.45-1.05.2 1.9.4 1.25.25.7-.55 1.1-.25-.25-.1-.25-.3-.85-.05-.2-.25-1.1q-.1-.65.2-1.25m1.4 4.15-.3.05.45-.75q.1.45-.15.7"/><path fill="#fff" fill-opacity=".498" fill-rule="evenodd" d="M2.4 31.25v1.05l-.05.1-.1.05-.1-.05-.05-.1v-1.05l.05-.1.1-.05.1.05zm3.2.85.1-.05.1.05.05.1.05 1v.1l-.1.05h-.15l-.05-.1-.05-1.05zm-.05-1.4.05-.1.1-.05.1.05.05.1v1l-.05.1-.1.05-.1-.05-.05-.1zm.05-1.5.05-.1.15-.05.1.05v.15l-.05.95-.05.1-.1.05-.1-.05-.05-.1zm-3.4.6.05-.1.15-.05.1.05v.15l-.1.95-.05.1h-.1l-.1-.05-.05-.1zm.3-1.65.1.05v.15l-.1 1-.05.1h-.1l-.1-.05-.05-.1.1-1 .05-.1zm.35-1.4v.1l-.15 1-.05.1h-.1l-.1-.05-.05-.1.15-1 .1-.1.1-.05zm.25-1.45v.1l-.15.95-.05.1h-.1l-.1-.05-.05-.1.15-.95.1-.1.1-.05zM6 27.6v.15l-.05.65-.05.35-.05.1h-.1l-.1-.05-.05-.1.05-.3.05-.7.05-.1.15-.05zm.2-1.45v.1l-.15 1-.05.1h-.1l-.1-.05-.05-.1.15-1 .1-.1.1-.05zm10.35 5.75.1-.05.1.05.05.1-.05 1.05-.05.1h-.1l-.1-.05-.05-.1.05-1zm3.6-.7-.05 1.05-.05.1h-.1l-.1-.05-.05-.1.05-1 .05-.1.1-.05.1.05zm-.3-1.5.05-.1.1-.05.1.05.05.1v1l-.05.1-.1.05-.1-.05-.05-.1zm.3-.5v.1l-.1.05h-.15l-.05-.1-.1-1 .05-.15.1-.05.1.05.05.1zm-3.65 1.35.05-.1.1-.05.1.05.05.1v.95l-.05.1-.1.05-.1-.05-.05-.1zm0-1.45.05-.1.1-.05.1.05.05.1v.95l-.05.1-.1.05-.1-.05-.05-.1zm.2-1.6.05.1.05.8v.2l-.05.1-.1.05-.1-.05-.05-.1v-.2l-.05-.75.05-.15.1-.05zm-.35-1.5.1-.05.1.05.05.1.1 1v.1l-.1.05h-.15l-.05-.1-.1-1zm3.5.65.05.1.1.95v.1l-.1.05h-.15l-.05-.1-.1-.95.05-.15.1-.05zm-.35-1.45.05.05.25 1v.1l-.1.05h-.1l-.1-.1-.25-.95.05-.1.05-.1zm-.55-1.25.05-.1.1.05.1.05.25.85v.1l-.1.05h-.1l-.1-.1-.25-.8zm.3-2.75v.15l-.7.85h-.1l-.1-.05-.05-.1.05-.1.65-.75.05-.1.15.05zm.15-1.4.05-.1.15-.05.1.05v.15l-.2.95-.05.1h-.15l-.05-.05-.05-.15zm-3.2 4.7.05.05.25 1.05v.1l-.1.05h-.1l-.1-.1-.25-1 .05-.1.05-.1zm-.7-1.4.1-.05.1-.05.1.1.35.95v.15l-.1.05h-.1l-.1-.1-.3-.95zm-.05-.95.05.1.1.4v.1l-.1.05h-.1l-.1-.1-.1-.4.05-.1.1-.1zm-.2-.65.05.1-.05.1-.35.4v.15l-.05.1-.25.05-.15-.2.05-.1.55-.6.1-.05zm.75-1.65.1-.1.1-.05.1.1v.1l-.3 1-.1.05h-.1l-.1-.1.05-.1zm-.15-2 .05-.1.1-.1.1.05.05.1.15 1.05v.1l-.1.05h-.15l-.05-.1zm-.55-2.45h.1l.1.1.35 1v.15l-.1.05h-.1l-.1-.1-.35-1v-.1zm4.1 2.7.1.1.2.5v.05l.05.55-.05.1-.1.05-.1-.05-.05-.1-.05-.5-.2-.5v-.1l.1-.1zm-.7-1.35.1-.05.1.1.4.9v.1l-.1.1h-.1l-.05-.1-.4-.9-.05-.1zm-.5-1.45.1.1.4.9v.1l-.1.1h-.1l-.05-.1-.4-.9-.05-.1.1-.05zm-.8-1.3.1-.05.1-.05.1.1.4.9v.1l-.1.1h-.1l-.05-.1-.4-.9zm-.4-1.5.1.1.4.9v.1l-.1.1h-.1l-.05-.1-.4-.9-.05-.1.1-.05zM6.2 24.7l.1-.1.1-.05.1.1v.1l-.2 1-.05.1h-.1l-.1-.05-.05-.1zm.35-1.55.1-.05.1-.05.1.1v.1l-.25 1-.05.1h-.1l-.1-.05-.05-.1zm.45-1 .1.1v.1l-.1.4-.05.1h-.1l-.1-.05-.05-.1.1-.4.1-.1zm.15-.7.1.05.55.6.05.1-.1.2-.25-.05-.1-.1.05-.1v-.05l-.4-.4-.05-.1.05-.1zm-3.95 2.3.1-.05.1.1v.1l-.2 1-.05.1h-.1l-.1-.05-.05-.1.2-1zm.2-1.4.1-.1.1-.05.1.1v.1l-.2 1-.05.1h-.1l-.1-.05-.05-.1zm.1-1 .1-.05.1.05.8.45.1.1v.1l-.05.1H4.4l-.9-.55-.05-.1zm-.65-1.3.05-.1.1-.05.1.05.05.1.3 1v.1l-.05.1h-.1l-.1-.05zm3.2-.25.1-.1.1.05.05.1.35.9v.1l-.05.1h-.1l-.1-.05-.4-1zM4.3 15.7v.1l-.3.9-.05.1H3.8l-.05-.05-.05-.15.3-.9.1-.05.1-.05zm-1.1 2.7.1.1v.1l-.2.6v.3l-.05.1-.1.05-.1-.05-.05-.1v-.4l.2-.6.1-.05zm.3-1.3.1-.05.1-.05.1.1v.1l-.3.9-.05.1H3.3l-.05-.05L3.2 18zm1.3-2.8v.1l-.3.9-.05.1H4.3l-.05-.05-.05-.15.3-.9.1-.05.1-.05zm.35-1.4.05-.1.1.05.1.05v.1l-.4.9-.1.1h-.1l-.1-.1.05-.1zm1.3 4.85v.1L6.3 18.9l-.05.1h-.1l-.1-.05-.05-.1.15-1.05.1-.1.1-.05zm.3-1.1-.05.1h-.15l-.05-.05-.05-.15.3-1 .1-.05.1-.05.1.1v.1zm.85-3.05.05-.1.15.05.05.05v.15l-.45.95-.1.1h-.1l-.1-.1v-.1zm1.8-3.45.05-.1.15.05.05.05v.15l-.3.6-.1.05h-.1l-.1-.1.05-.1zm-.85 1.5.15.05.05.05v.15l-.45.85-.1.1h-.1l-.1-.1.05-.1.45-.9zM6.9 8.75v.1l-.3.8-.1.1h-.1l-.05-.1-.05-.1.3-.8.1-.05.1-.05zM5.7 11.4l.1-.05.1.1v.1l-.3.95-.05.1H5.4l-.05-.05-.05-.15.3-.95zm.4-.35-.05.1H5.9l-.05-.05-.05-.15.3-.9.1-.05.1-.05.1.1v.1zm10.45.05.05.05.3.95v.15l-.1.05h-.1l-.1-.1-.3-.95.05-.1.05-.1zm-.75-1.4.1-.05.1.1.4.9v.1l-.1.1h-.1l-.05-.1-.4-.9-.05-.1zm-.25-.95.1.05.05.1.1.4v.1l-.1.05h-.1l-.1-.1-.1-.4.05-.1z"/><path fill="#fff" fill-rule="evenodd" d="m8.25 11.8-.05-.25q0-.4.3-.45l.2-.05h.15q.35.1.35.5 0 .55-.5.55l-.35-.15zm.25-.5-.05.2q0 .35.3.35l.35-.35-.1-.3v.1l-.25.25zm.55 1.65.2.05.2.45q0 .55-.5.55l-.45-.3-.05-.25q0-.5.5-.5zm-.1.8q.4 0 .4-.35l-.05-.2-.3.25-.25-.25-.1.25.05.15q.05.15.25.15"/><path fill="#bbb" fill-rule="evenodd" d="m8.5 11.3.25.25.25-.25v-.1l.1.3-.35.35q-.3 0-.3-.35zm.45 2.45q-.2 0-.25-.15l-.05-.15.1-.25.25.25.3-.25.05.2q0 .35-.4.35"/><path fill="#7e4500" fill-rule="evenodd" d="m7.5 5.1.1 1.45v.3l.05 1.5v.7l.15 2.9.05 1.05q.1 1.3.35 2.45l1.6-.35 1.1 2.25.7 1.35 1 1.8.05.05v.55l.05.65-3.3-6.05-1.6.4-.45-3.55-.1-3.35V6.35l.05-1.6.05-.05z"/><path fill="#796818" fill-rule="evenodd" d="M8.5 13.25v-.1h.05z"/><path fill="#7e4500" fill-rule="evenodd" d="M11.3 11.8v.1l.2 1.5h-.2q-.3.1-.3.65l.15.6-.05.2.05.15.2.6.05.3.1.35.75 2.25.25 1 .1.75-1-2.45-.55-1.55-.65-2-1.55-5.1-.05-.1-.1-.4-.4-1.55-.05-.05v-.1l-.35-1.6L9.1 5l.05-.05 1.35 4.1.05.15.05.05z"/><path fill="#ffbe43" fill-rule="evenodd" d="m11.3 11.8-.7-2.55-.05-.05-.05-.15-1.35-4.1L9.1 5l-1.2.35.35 1.6v.1l.05.05.4 1.55.1.4.05.1 1.55 5.1.65 2 .55 1.55 1 2.45q.15.95-.05.35l-.95-1.9-.7-1.35-1.1-2.25-1.6.35Q7.95 14.3 7.85 13l-.05-1.05-.15-2.9v-.7l-.05-1.5v-.3L7.5 5.1l-.15-.4 1-1.2.25-.05q.25.1.3.65L10 7.35l.55 1.6.05.2.05.05v.05l.45 1.5zm-3.1-.35q-.1.5.05.7l.25.15.6-.05.1-.55v-.15q0-.4-.35-.5H8.7l-.2.05zm1.15 1.65-.1-.1-.2-.05h-.1l-.4.2H8.5v.1l-.05.1-.1.5q.25.4.9.4l.05-.1q.55-.35.1-1z"/><path fill="#cb8500" fill-rule="evenodd" d="M8.2 11.45v.1l.05.25.05.15.4.15.5-.4-.1.55-.6.05-.25-.15q-.15-.2-.05-.7m1.15 1.65.05.05q.45.65-.1 1l-.05.1q-.65 0-.9-.4l.1-.5v.1l.05.25.45.3q.5 0 .5-.55z"/><path fill-opacity=".298" fill-rule="evenodd" d="M11.3 11.85v.05l.2 1.65-.15.05-.2.4.1.45-.1.5 1.15 3.75.2.8v.2l.1.55.05.35-.45-.75q-.3-.35-.3.25l.1.3.7 1.35L13 24l.05.9.1 2.65.05 6.6h-.75V32.6l.05-3.55-.05-.75-.05-3.35-.2-3.2-.2-1.25-1.3-2.45.2-.7.15-1.1v-.9q-.1-2-.55-3.95zM7.35 4.7 8 3.9l.45.05.5.25L10 7.35l.55 1.6-.05.1-.05.05q-.6-.2-.85-.55l-1.35-1.5-.65-.5-.35-.2.05-1.6z"/><path fill="#fff" fill-rule="evenodd" d="m11.1 13.45-.25-.65.25-.1h.4z"/><path fill="#8cdfff" fill-rule="evenodd" d="M16.85 3.35q-.45.95-2.05 2.25v.05q-.15.05-.35.2v.05l-.6.4v.05l-.1.35-.05.3-.2.7-.25.9-.6 2-.2.7-.2.65-.05.1-.25.75-.35.95-.15.5-.05.2-.05.15-.15.75-.45-1.25-.75-2.45-1.15-3.7-.45-1.7L8.3 6v-.05l-.45-.25-.5-.25-.8-.5L6 4.5q-.25-.3-.25-1.1l1 1.15q.4.3.9.45l.95.25.15.05.85.35.1.1h.05l1.4 1.1-.05-.1L8.65 4.6l-.15-.1q-.4-.1-.4-.45l.45.15q1.15.35 2.05 1.55l.4.45.2.55Q11 5.1 9.3 4.15l-.15-.1-.4-.6q-.2-.55.05-1.05l.05-.05.5-.3-.05.15v.2q0 .35.75 1.5l1.1 1.7.25.45.1-.05.45-.75.55-1.65.25-.9v.15l.25-.9-1.8-.3h-.5 1.6l.9.25.15.1.35.75-.05.25v.05l-.05.25-.05.1-.05.05v.05l.05.3q.65-.65 1.45-.9 0 .85-.9 1.25l-1.8 1.4-.25.3-.15.15.1-.1-.2.2-.1.2-.05.05.2-.2q.7-.65 1.85-1.05 1.85-.65 3.15-1.75M13.4 6.9l.2-.55-.1.05-.25.05-.05.05-.25.05-.65.1-.5.2-.35.3-.2-.1-.25.05.1-.05.05-.05q-.9-.45-2.1-.65l.5 2.05 1.75.6-.6.25q-.8.25-.6.95l.45 1.65 1.35.05.2-.55-.3.05v.05h-.6.1l1-.65.25-.9.6-2.1-.25.1-.4-.05-.7-.05.1-.05h-.15zm-2.3 6.55.4-.75h-.4l-.25.1z"/><path fill="#d0f1ff" fill-rule="evenodd" d="M5.75 3.4v-.15q0-.95.85-2Q7.45.15 11.25.1h1.4l.15-.1q2.15-.1 3.1.7l.9.9.25 1.05-.2.7q-1.3 1.1-3.15 1.75-1.15.4-1.85 1.05l-.2.2.05-.05.1-.2.2-.2-.1.1.15-.15.25-.3 1.8-1.4q.9-.4.9-1.25-.8.25-1.45.9l-.05-.3v-.05l.05-.05.05-.1.05-.25V3l.05-.25-.35-.75-.15-.1-.9-.25h-1.6q-.75.05-1.35.4l-.5.3-.05.05q-.25.5-.05 1.05l.4.6.15.1q1.7.95 1.9 2.6L11 6.2l-.4-.45q-.9-1.2-2.05-1.55l-.45-.15q0 .35.4.45l.15.1 2.45 2.15.05.1-1.4-1.1H9.7l-.1-.1-.85-.35-.15-.05L7.65 5q-.5-.15-.9-.45zm7.65 3.5-1.65.85h.15l-.1.05.7.05.4.05.25-.1-.6 2.1-.25.9-1 .65h-.1.6v-.05l.3-.05-.2.55-1.35-.05-.45-1.65q-.2-.7.6-.95l.6-.25-1.75-.6-.5-2.05q1.2.2 2.1.65l-.05.05-.1.05.25-.05.2.1.35-.3.5-.2.65-.1.25-.05.05-.05.25-.05.1-.05z"/><path fill="#f8eedb" fill-rule="evenodd" d="m6.75 17.65-.15.3-.3.15-.35-.15-.1-.3.1-.35.35-.1.3.1zm-.7-.1v.1l.25.15.3-.25-.25-.25H6.2l-.25.15zm.05 1.6.3.1.15.35-.15.3-.3.15-.35-.15-.1-.3.1-.35zm0 .1H6l-.25.15.1.1v.1q.05.15.25.15l.3-.25-.25-.25zm10-1.95h-.05q-.25.05-.25.25l.3.25.25-.15v-.1l.1-.1-.25-.15zm-.25 2.3.15-.35.3-.1.35.1.1.35-.1.3-.35.15-.3-.15zm.6-2.3.1.35-.1.3-.35.15-.3-.15-.15-.3q0-.2.15-.35l.3-.1zm-.15 1.95h-.05q-.25.05-.25.25l.3.25.25-.15v-.1l.1-.1-.25-.15z"/><path fill="#9f909c" fill-rule="evenodd" d="m6.05 17.55.1.1.15-.05.05-.15-.05-.15h.05l.25.25-.3.25-.25-.15zm.05 1.7h.05l.25.25-.3.25q-.2 0-.25-.15v-.1l.1.1.15-.05.05-.15zm10.25-1.7v.1l-.25.15-.3-.25q0-.2.25-.25h.05l-.05.15.05.15.15.05zm.2 1.95v.1l-.25.15-.3-.25q0-.2.25-.25h.05l-.05.15.05.15.15.05z"/><path fill="#fff" fill-rule="evenodd" d="m6.3 17.3.05.15-.05.15-.15.05-.1-.1-.1-.1.25-.15zm-.45 2.2-.1-.1.25-.15h.1l.05.15-.05.15-.15.05zm10.25-2.2h.1l.25.15-.1.1-.1.1-.15-.05-.05-.15zm.45 2.2-.1.1-.15-.05-.05-.15.05-.15h.1l.25.15z"/><path fill="#2ca6e9" fill-rule="evenodd" d="m12.3 24.1-.05-.1-.2-.1 9.15-.25v.15l.55 1.85-4 .2.95.45.05.05.05.05.1.05-.05.1-.25 1.15-.2 1.4-.35-.3-1.05-.9q-.15-.15-.7-.45l-.6-.35-.05-.05-1.55-.65-.2-.1h-.1l-1.4-.3h-.05l-.5-.05h-.6l.2-.05q.9.1.9-1.25v-.2l-.05-.15zm.7-2.2-.2-.2 7.8-.25.5 1.85-8.35.4q.5-.2.45-1.1l-.15-.65zm-3.15 2.2h1.35q.6.1.7.3l.05.35-.05.25q-.05.45-.5.5l-.45.05h-1.4l-.3-.3v-.55l.1-.35.05-.1v-.05l.1-.05h.05zm.5-1.3-.05-.25.05-.35q.1-.2.65-.3h1.3l.25.05h.05l.1.05v.05l.05.1.1.35v.55l-.3.3-1.75-.05q-.4-.05-.45-.5m-5.85 1 .3-.15-3.8-.2.5-2 8.7.25-.2.1-.05.1v.2l-.05.15v.2q0 1.25.7 1.25h.15l.2.05h-.7l-.35.05h-.05l-.55.15-.2.15-.05.05q-.15.2-.15.65-.05.9.45 1.1l-3.95-.1-.9.8-.3.3-.15-1.2-3.5-.2.4-1.6.1-.25z"/><path fill="none" stroke="#232323" stroke-linecap="round" stroke-linejoin="round" stroke-width=".4" d="M6.25 19.6q5.15 1.3 9.9 0M6.4 17.65q4.7 1.4 9.6 0"/><path fill="#fff" fill-rule="evenodd" d="M10.35 23.75h.6l-.2-.05h-.15q-.7 0-.7-1.25v-.2l.05-.15v-.2l.05-.1.2-.1 1.35-.2.25.05-.15.15-.15.15-.05.05H11q-.55.1-.65.3l-.05.35.05.25q.05.45.45.5l.45.05v.05l.15.3v.05h.25l.4.15.2.1.05.1v.2l.05.15v.2q0 1.35-.9 1.25l-.2.05h-.5l.05-.05.15-.3v-.05l.45-.05q.45-.05.5-.5l.05-.25-.05-.35q-.1-.2-.7-.3h-.45l-.1-.05-.15-.15zM13 21.9l.05.05.15.65q.05.9-.45 1.1l-.2.05h-.1v-.05l-.1-.35h.2l.3-.3v-.55l-.1-.35.2-.2zm-3.35 4.05h-.1l-.2-.05q-.5-.2-.45-1.1 0-.45.15-.65l.05-.05.05.05.2.2-.1.35v.55l.3.3h.25l-.15.35z"/><path fill="#c9c6c3" fill-rule="evenodd" d="M11.8 21.55h.3l.7.15.2.2-.05.05-.2.2-.05-.1V22l-.1-.05h-.05l-.25-.05h-.85l.05-.05.15-.15zm.65 2.2.1.05h-.15l-.75-.05h-.25v-.05l-.15-.3v-.05h1.1l.1.35zm-1.7 2.2-1.2.05.1-.05v-.05l.15-.35h1.15v.05l-.15.3zM9.1 24.1l.2-.15.55-.15h.05l.35-.05h.1l.15.15.15.15.1.05h-.9l-.3.05H9.5l-.1.05v.05l-.05.1-.2-.2z"/><path fill-opacity=".298" fill-rule="evenodd" d="M10.8 23.3q-.4-.05-.45-.5l.9.2.7-.05.05-.35-.3-.65h.9l.1.05v.05l.05.1.1.35v.55l-.3.3zm-1.45 1.05.05-.1v-.05l.1-.05h.95l-.3.65.05.35.75.05.95-.2q-.05.45-.5.5l-.45.05h-1.4l-.3-.3v-.55zm-1.1-.15.05-.05h.75q-.15.2-.15.65-.05.9.45 1.1l-3.95-.1.1-.1.65-.45.6-.35.05-.05q.7-.4 1.45-.65m-3.75-.4.3-.15-3.8-.2.5-2 8.7.25-.2.1-.05.1-1.3.05H7.5l.35.5 1.7-.3.4-.05-.05.15-1.15.25-.7.15-.1.05q-1.1.25-2.05.7l-.55.25-.1.05-1.25.65.1.25.2.9.05.25.15.85-.3.3-.15-1.2-3.5-.2.4-1.6.1-.25zm8.5-1.9-.2-.2 7.8-.25.5 1.85-8.35.4q.5-.2.45-1.1l-.15-.65zm-.7 2.2-.05-.1-.2-.1 9.15-.25v.15l.55 1.85-4 .2.95.45.05.05.05.05.1.05-.05.1-.25 1.15-.2 1.4-.35-.3.2-1.1.25-.9.1-.25-1.35-.65-.1-.05-.55-.25-2.2-.7-.1-.05-.7-.15-1.25-.25-.05-.15.45.05 1.75.3.4-.5h-1.2z"/><path fill-opacity=".498" fill-rule="evenodd" d="m4.5 23.8.3-.15L6.2 23l1.65-.55 1.7-.3.4-.05-.05.15-1.15.25-.7.15-.1.05q-1.1.25-2.05.7l-.55.25-.1.05-1.25.65.1.25.2.9.05.25.15.85-.3.3-.15-1.2-.05-.2-.25-1.15-.05-.1.1-.05.05-.05.05-.05h.05l-1.5-.1-1.5-.1.1-.25zm-2.85-2.15-.15-.05v-.15l8.7.25-.2.1-.05.1-1.3.05H7.4l-2.85-.1-2.15-.1zM13 21.9l-.2-.2 7.8-.25.1.25-1.4.1-2.05.1-4.2.05zm-.75 2.1-.2-.1 9.15-.25v.15l-.15.05-.8.1-2.25.1-3 .1h-1.3l-1.4-.05zm.05.3.45.05 1.75.3 1.75.55q.9.35 1.5.65l.95.45.05.05.05.05.1.05-.05.1-.25 1.15-.2 1.4-.35-.3.2-1.1.25-.9.1-.25-1.35-.65-.1-.05-.55-.25-2.2-.7-.1-.05-.7-.15-1.25-.25z"/><path fill="#fff" fill-opacity=".298" fill-rule="evenodd" d="M8.05 22.65q-.4.7-.05 1.25l.2.25.05.05q-.75.25-1.45.65l-.05.05-.6.35q.35-.35.25-1.1l-.05-.3-.05-.2-.05-.05-.35-.2q.95-.45 2.05-.7zm6.05 3.75q.75-.65.2-1.55l.1.05 2.2.7-.4.2-.05.05q-.3 1.15.15 1.6l-.6-.35-.05-.05z"/><path fill="#7e4500" fill-rule="evenodd" d="M11.65 33.75h.4l.3-.05H14l1.5-.05h.35l.65-.1.7-.05h.25l.5-.1h.1l.75-.15 3.45-.9v-.05l.05.2q-.05.55-1.6.9l-2.75.5h-.1l-.3.1-1.3.1h-1.1l-1.55.05H9.45l-.25-.05-.4.05-1.25-.05H6.3l-1.5-.15-.45-.05-3.15-.5q-1.15-.25-1.15-.55l.1-.6v.05l.5.2 1.1.4.8.25.25.05 2.8.4h.1l1.3.05h.15l2.95.1-.05-.05.9.05h.1q1.25.05.35 0zm-3.95.3H7l-.35.05h.9z"/><path fill="#ffbe43" fill-rule="evenodd" d="M22.25 32.3v.05l-3.45.9-.75.15h-.1l-.5.1h-.25l-.7.05-.65.1h-.35l-1.5.05h-1.65l-.3.05h-.4l-.35-.05h-.1l.2.05q.9.05-.35 0h-.1l-.9-.05.05.05-2.95-.1H7l-1.3-.05h-.1l-2.8-.4-.25-.05-.8-.25-1.1-.4-.5-.2v-.05l.05-.45q.2 0 .45.15l1 .5 1.2.4 2.9.35H7.2l5.1.05h2.3l2.45-.2 3.55-.7 1.6-.45z"/></g></defs></svg>