<?xml version="1.0" encoding="UTF-8" standalone="no"?>
<svg xmlns:ffdec="https://www.free-decompiler.com/flash" xmlns:xlink="http://www.w3.org/1999/xlink" ffdec:objectType="frame" height="23.0px" width="22.8px" xmlns="http://www.w3.org/2000/svg">
  <g transform="matrix(1.0, 0.0, 0.0, 1.0, 1.3, -2.05)">
    <use ffdec:characterId="1" height="23.0" transform="matrix(1.0, 0.0, 0.0, 1.0, -1.3, 2.05)" width="22.8" xlink:href="#shape0"/>
  </g>
  <defs>
    <g id="shape0" transform="matrix(1.0, 0.0, 0.0, 1.0, 1.3, -2.05)">
      <path d="M11.7 4.7 L12.1 3.65 12.05 3.6 11.55 4.05 11.55 3.8 11.6 3.8 12.1 3.35 12.3 3.1 12.4 3.5 12.45 3.6 Q12.55 3.5 12.6 3.5 13.0 3.5 14.4 6.75 L14.85 7.4 15.35 8.45 15.5 9.0 16.05 10.0 16.3 10.7 16.3 10.85 17.7 14.25 17.7 14.35 18.6 17.15 19.35 19.8 18.5 20.4 15.95 21.45 11.1 22.25 10.35 20.25 9.7 22.25 6.5 21.85 3.35 21.15 0.55 20.05 0.55 20.0 2.25 14.25 2.3 14.1 2.3 14.05 2.35 13.85 2.8 12.3 3.0 11.8 3.6 10.65 4.4 8.95 5.6 6.85 6.45 5.4 Q5.85 9.4 5.8 13.8 5.75 16.0 5.25 17.75 L4.9 19.95 4.8 19.8 4.9 20.1 4.9 19.95 5.6 20.8 5.75 19.95 7.15 13.25 Q8.55 9.8 8.2 8.1 L8.05 7.45 8.2 7.6 10.9 7.55 Q11.75 7.1 11.6 7.65 11.4 8.15 11.95 10.45 L13.05 14.85 13.95 18.5 14.45 20.6 Q15.25 18.8 14.75 16.85 L13.85 13.5 13.0 9.2 Q12.8 7.7 13.35 6.15 13.7 5.2 13.05 4.25 12.35 4.4 11.7 4.7 M7.2 4.0 L7.55 3.45 7.8 3.15 7.9 3.3 8.0 3.4 7.45 4.0 7.8 4.0 7.55 4.25 7.2 4.0 M7.9 4.6 L8.0 4.55 9.4 5.05 9.35 5.0 8.1 3.5 8.65 3.8 9.5 4.75 10.05 5.25 10.35 5.4 9.05 5.45 8.35 5.35 7.9 4.6" fill="#ffffff" fill-rule="evenodd" stroke="none"/>
      <path d="M6.45 5.4 L6.55 5.2 Q6.6 4.8 7.2 4.0 L7.55 4.25 7.05 4.85 6.95 5.2 7.9 4.6 8.35 5.35 9.05 5.45 10.35 5.4 10.95 5.6 11.65 4.75 11.7 4.7 Q12.35 4.4 13.05 4.25 13.7 5.2 13.35 6.15 12.8 7.7 13.0 9.2 L13.85 13.5 14.75 16.85 Q15.25 18.8 14.45 20.6 L13.95 18.5 13.05 14.85 11.95 10.45 Q11.4 8.15 11.6 7.65 11.75 7.1 10.9 7.55 L8.2 7.6 8.05 7.45 8.2 8.1 Q8.55 9.8 7.15 13.25 L5.75 19.95 5.6 20.8 4.9 19.95 4.9 20.1 4.8 19.8 4.9 19.95 5.25 17.75 Q5.75 16.0 5.8 13.8 5.85 9.4 6.45 5.4 M6.6 5.35 L6.5 5.45 6.6 5.35" fill="#afcfec" fill-rule="evenodd" stroke="none"/>
      <path d="M20.3 20.9 L19.55 21.45 20.4 22.9 20.25 23.0 19.7 22.3 19.25 21.6 19.15 21.65 17.75 22.3 18.0 22.95 18.45 23.8 18.1 23.9 17.6 22.6 17.55 22.35 16.1 22.85 15.95 22.9 16.4 24.4 16.2 24.45 16.0 24.0 15.65 23.0 13.75 23.4 13.8 23.6 14.25 24.8 Q14.0 24.65 14.0 24.85 L13.4 23.4 12.95 23.45 11.55 23.6 11.5 23.4 11.45 23.3 13.3 23.2 13.25 23.1 12.8 22.05 13.05 21.95 13.6 23.05 14.15 23.05 15.15 22.85 15.55 22.7 15.15 21.65 15.5 21.55 15.85 22.6 17.45 22.1 17.05 21.1 17.35 20.95 17.65 22.05 18.1 21.85 19.15 21.4 18.5 20.4 18.85 20.2 19.4 21.25 20.1 20.65 20.25 20.8 20.3 20.9 M3.6 21.2 L3.75 21.25 3.5 21.95 3.25 22.45 4.85 22.85 5.05 22.35 5.3 21.65 5.65 21.7 5.45 22.2 5.35 22.45 5.15 22.9 5.95 22.95 7.35 23.05 7.35 23.0 7.6 22.0 7.9 22.1 7.75 22.5 7.55 23.05 9.45 23.1 9.45 23.35 7.5 23.3 7.45 23.6 7.0 24.8 6.65 24.8 7.15 23.6 7.25 23.3 6.65 23.2 5.1 23.05 5.0 23.25 4.4 24.45 4.25 24.4 4.75 23.15 4.8 23.0 3.2 22.6 3.15 22.6 3.15 22.65 2.25 23.95 1.95 23.85 2.45 23.15 2.85 22.55 2.9 22.5 2.75 22.45 1.3 21.9 0.3 23.3 0.25 23.35 0.1 23.2 1.0 21.75 -0.35 21.15 -0.2 20.95 1.1 21.55 1.75 20.55 1.9 20.6 2.05 20.65 1.65 21.3 1.6 21.4 1.4 21.7 2.55 22.15 3.0 22.35 3.25 21.85 3.6 21.2" fill="#ffffff" fill-rule="evenodd" stroke="none"/>
      <path d="M20.3 20.9 L21.5 22.25 20.4 22.9 19.55 21.45 20.3 20.9 M20.25 23.0 L18.45 23.8 18.0 22.95 17.75 22.3 19.15 21.65 19.25 21.6 19.7 22.3 20.25 23.0 M18.1 23.9 L16.4 24.4 15.95 22.9 16.1 22.85 17.55 22.35 17.6 22.6 18.1 23.9 M16.2 24.45 L14.85 24.7 14.45 24.75 14.25 24.8 13.8 23.6 13.75 23.4 15.65 23.0 16.0 24.0 16.2 24.45 M14.0 24.85 L13.9 24.8 13.3 24.85 12.0 24.85 11.55 23.6 12.95 23.45 13.4 23.4 14.0 24.85 M11.45 23.3 L11.1 22.25 12.8 22.05 13.25 23.1 13.3 23.2 11.45 23.3 M13.05 21.95 L15.15 21.65 15.55 22.7 15.15 22.85 14.15 23.05 13.6 23.05 13.05 21.95 M15.5 21.55 L15.95 21.45 17.05 21.1 17.45 22.1 15.85 22.6 15.5 21.55 M17.35 20.95 L18.5 20.4 19.15 21.4 18.1 21.85 17.65 22.05 17.35 20.95 M18.85 20.2 L19.35 19.8 20.1 20.65 19.4 21.25 18.85 20.2 M2.05 20.65 L3.35 21.15 3.6 21.2 3.25 21.85 3.0 22.35 2.55 22.15 1.4 21.7 1.6 21.4 1.65 21.3 2.05 20.65 M3.75 21.25 L5.3 21.65 5.05 22.35 4.85 22.85 3.25 22.45 3.5 21.95 3.75 21.25 M5.65 21.7 L6.5 21.85 7.6 22.0 7.35 23.0 7.35 23.05 5.95 22.95 5.15 22.9 5.35 22.45 5.45 22.2 5.65 21.7 M7.9 22.1 L9.7 22.25 9.45 23.1 7.55 23.05 7.75 22.5 7.9 22.1 M9.45 23.35 L8.95 25.0 7.0 24.8 7.45 23.6 7.5 23.3 9.45 23.35 M6.65 24.8 L4.4 24.45 5.0 23.25 5.1 23.05 6.65 23.2 7.25 23.3 7.15 23.6 6.65 24.8 M4.25 24.4 L2.25 23.95 3.15 22.65 3.15 22.6 3.2 22.6 4.8 23.0 4.75 23.15 4.25 24.4 M1.95 23.85 L0.4 23.3 0.3 23.3 1.3 21.9 2.75 22.45 2.9 22.5 2.85 22.55 2.45 23.15 1.95 23.85 M0.1 23.2 L-1.3 22.4 -0.35 21.15 1.0 21.75 0.1 23.2 M-0.2 20.95 L0.55 20.0 0.55 20.05 1.75 20.55 1.1 21.55 -0.2 20.95" fill="#af2828" fill-rule="evenodd" stroke="none"/>
      <path d="M13.85 5.15 L14.45 6.15 13.3 9.3 14.8 13.4 Q15.5 13.05 15.75 12.25 L16.3 9.75 16.35 9.8 18.0 13.8 18.6 15.75 17.5 17.25 14.75 20.65 Q14.2 17.4 13.1 13.6 L13.8 13.7 Q13.35 12.05 14.4 14.45 L15.7 18.55 17.5 16.0 17.4 16.0 15.8 17.85 14.2 13.0 13.7 11.95 12.8 8.9 12.85 8.9 13.85 5.15 M5.45 6.2 L6.05 5.2 7.05 8.95 7.1 8.95 6.2 12.0 5.7 13.05 4.1 17.9 2.5 16.05 2.4 16.05 4.2 18.6 5.5 14.5 Q6.55 12.1 6.1 13.75 L6.8 13.65 Q5.7 17.45 5.15 20.7 L2.4 17.3 1.3 15.8 1.9 13.85 Q2.55 11.95 3.55 9.85 L3.6 9.8 Q3.65 10.85 4.15 12.3 4.4 13.1 5.1 13.45 L6.6 9.35 5.45 6.2" fill="#000000" fill-rule="evenodd" stroke="none"/>
      <path d="M8.55 11.4 L9.25 9.4 9.15 9.0 9.7 9.55 8.75 11.35 8.2 12.4 8.55 11.4" fill="#2b1c00" fill-rule="evenodd" stroke="none"/>
      <path d="M13.1 13.6 L12.9 12.8 11.95 9.65 12.2 8.35 12.8 4.8 12.8 4.75 12.75 4.25 12.75 3.3 13.85 5.15 12.85 8.9 12.8 8.9 13.7 11.95 14.2 13.0 15.8 17.85 17.4 16.0 17.5 16.0 15.7 18.55 14.4 14.45 Q13.35 12.05 13.8 13.7 L13.1 13.6 M14.45 6.15 L14.6 6.4 16.3 9.75 15.75 12.25 Q15.5 13.05 14.8 13.4 L13.3 9.3 14.45 6.15 M6.05 5.2 L7.5 2.8 7.4 3.15 7.6 2.8 9.15 4.35 8.75 5.7 Q8.0 3.95 7.45 3.35 L7.35 3.25 7.1 4.8 7.1 4.85 7.7 8.4 7.95 9.7 7.0 12.85 6.8 13.65 6.1 13.75 Q6.55 12.1 5.5 14.5 L4.2 18.6 2.4 16.05 2.5 16.05 4.1 17.9 5.7 13.05 6.2 12.0 7.1 8.95 7.05 8.95 6.05 5.2 M3.6 9.8 L5.3 6.45 5.45 6.2 6.6 9.35 5.1 13.45 Q4.4 13.1 4.15 12.3 3.65 10.85 3.6 9.8" fill="#232323" fill-rule="evenodd" stroke="none"/>
      <path d="M10.15 19.45 L10.2 19.5 10.25 19.6 10.15 19.45" fill="#ff4381" fill-rule="evenodd" stroke="none"/>
      <path d="M10.15 19.45 L6.8 16.45 6.95 16.0 8.5 10.45 8.85 8.65 8.4 8.5 8.0 7.35 7.95 6.7 8.7 6.4 8.65 6.4 8.5 6.25 8.05 5.85 7.7 5.5 7.25 5.05 Q6.3 4.05 5.7 2.9 5.75 2.15 6.5 2.15 L7.1 2.25 10.0 4.85 12.95 2.1 13.45 2.05 Q14.0 2.1 14.15 2.8 L14.25 3.0 12.4 5.4 12.4 5.45 11.7 6.15 11.65 6.2 11.55 6.25 11.5 6.3 11.95 6.7 11.95 6.85 11.9 7.35 11.55 8.5 11.3 8.7 11.45 9.9 Q11.75 12.75 12.85 15.8 L13.05 16.4 10.05 19.35 10.15 19.45" fill="#af2828" fill-rule="evenodd" stroke="none"/>
      <path d="M10.55 5.5 L10.4 5.3 9.6 6.1 9.55 6.15 9.55 6.2 9.9 6.55 10.35 7.0 10.4 7.05 10.8 6.6 11.25 6.2 10.75 5.65 10.55 5.5 M10.7 5.25 L10.9 5.5 11.4 6.0 11.5 5.9 11.75 5.65 11.8 5.55 12.0 5.3 12.05 5.25 12.4 4.8 11.6 4.0 10.55 5.1 10.7 5.25 M13.2 3.05 L12.95 2.85 12.8 2.65 11.8 3.75 11.75 3.8 11.95 3.95 12.15 4.2 12.35 4.4 12.4 4.55 12.8 4.4 13.4 3.7 13.55 3.45 13.2 3.05 M12.95 2.5 L13.1 2.65 13.3 2.85 13.7 3.3 14.0 2.7 Q14.25 2.6 14.25 2.85 L13.85 3.5 13.8 3.6 13.5 3.9 13.25 4.25 12.1 5.55 11.4 6.25 11.8 6.5 11.9 6.65 12.0 6.75 11.9 6.75 12.0 6.85 11.95 6.95 11.85 6.85 11.4 6.35 11.1 6.65 10.55 7.2 11.55 8.2 11.6 8.3 11.55 8.35 11.45 8.5 11.0 8.05 10.4 7.4 9.5 8.3 9.15 8.65 9.4 8.95 9.65 9.2 10.35 10.05 10.8 9.55 11.1 9.2 11.35 8.95 11.4 9.25 11.05 9.65 10.55 10.2 11.55 11.3 11.7 11.1 11.75 11.35 11.7 11.45 11.8 11.55 11.85 11.85 11.55 11.6 10.55 12.7 11.8 13.95 12.2 13.5 12.25 14.0 12.05 14.2 12.3 14.45 12.55 14.7 12.7 15.05 12.75 15.2 11.85 14.4 10.55 15.75 11.6 16.8 11.75 16.65 12.85 15.5 12.95 15.85 12.85 15.95 11.8 17.0 12.05 17.25 11.9 17.4 11.65 17.15 10.55 18.25 10.75 18.5 10.65 18.7 10.4 18.4 9.8 19.0 9.8 18.95 9.65 18.85 10.0 18.5 10.25 18.25 9.95 18.0 9.1 17.15 8.7 17.55 8.45 17.8 8.25 17.65 8.4 17.55 8.5 17.45 8.95 17.0 7.6 15.65 7.2 16.05 6.95 16.25 7.0 15.85 7.05 15.8 7.4 15.45 7.15 15.15 7.25 14.85 7.65 15.25 8.2 14.7 8.75 14.2 7.75 13.15 7.85 12.8 8.95 14.0 10.2 12.7 9.2 11.6 9.05 11.75 8.7 12.1 8.0 12.7 8.4 12.1 8.85 11.65 9.05 11.45 8.35 10.65 8.4 10.4 8.45 10.45 9.05 11.1 9.2 11.25 10.2 10.2 9.45 9.35 9.05 8.9 9.0 8.8 8.85 8.95 8.85 8.7 Q8.85 8.4 8.65 8.4 L8.1 7.75 8.05 7.35 8.05 7.3 8.8 6.55 8.9 6.45 9.0 6.35 9.1 6.2 8.8 5.8 8.35 5.35 8.2 5.2 8.1 5.1 7.8 5.45 7.7 5.35 7.65 5.25 7.95 4.9 6.85 3.85 6.65 4.2 6.45 4.0 6.7 3.65 5.6 2.65 5.75 2.5 6.4 3.05 6.85 3.5 7.15 3.15 7.2 3.1 7.55 2.75 7.75 2.9 7.3 3.3 7.3 3.35 7.05 3.6 8.1 4.75 8.35 4.45 8.4 4.45 8.95 3.85 9.15 4.05 8.25 4.95 8.35 5.0 8.4 5.05 9.35 6.0 9.55 5.75 9.6 5.7 10.2 5.1 9.7 4.55 10.0 4.75 10.15 4.75 10.35 4.95 11.45 3.85 11.35 3.75 11.55 3.6 11.6 3.65 12.6 2.5 12.75 2.3 12.8 2.3 12.9 2.15 13.25 2.15 12.95 2.5 M10.2 7.2 L9.55 6.55 9.5 6.45 9.35 6.35 9.15 6.55 9.1 6.6 8.4 7.3 8.15 7.55 8.9 8.4 9.0 8.5 9.05 8.4 9.1 8.4 10.15 7.25 10.2 7.2 M10.4 18.1 L11.45 16.95 10.4 15.9 9.3 17.0 10.4 18.1 M7.8 15.5 L8.75 16.4 9.15 16.85 10.25 15.75 8.9 14.4 7.8 15.5 M9.1 14.2 L9.3 14.4 10.4 15.6 11.2 14.65 11.65 14.15 10.4 12.9 9.1 14.2 M11.4 11.45 L10.4 10.4 9.35 11.45 10.4 12.55 11.4 11.45" fill="#ffffff" fill-rule="evenodd" stroke="none"/>
      <path d="M13.45 2.05 L12.25 3.4 Q11.05 4.35 10.45 5.4 L10.15 6.0 10.65 6.0 Q10.65 5.7 11.0 5.35 L12.45 4.0 12.2 4.55 11.8 5.3 11.4 5.65 11.25 5.75 12.1 5.5 12.4 5.45 11.7 6.15 11.65 6.2 11.55 6.25 11.5 6.3 11.95 6.7 11.95 6.85 8.15 6.65 8.7 6.4 8.9 6.4 8.5 6.25 8.05 5.85 7.7 5.5 8.25 5.75 9.0 6.0 8.8 5.85 8.7 5.75 8.65 5.7 8.15 4.95 8.1 4.9 Q8.7 4.8 9.35 5.6 L9.45 5.75 9.65 6.0 10.0 6.0 9.65 5.55 8.4 4.25 6.5 2.15 7.1 2.25 10.0 4.85 12.95 2.1 13.45 2.05 M11.45 9.9 Q9.75 8.1 8.7 10.05 L8.5 10.45 8.85 8.65 8.4 8.5 11.65 8.3 11.55 8.5 11.3 8.7 11.45 9.9 M10.2 19.5 L10.25 19.6 10.15 19.45 10.2 19.5 M9.4 18.3 L10.1 18.8 10.55 18.4 11.9 17.1 12.85 15.8 13.05 16.4 10.05 19.35 10.15 19.45 6.8 16.45 6.95 16.0 9.4 18.3" fill="#3f0000" fill-opacity="0.52156866" fill-rule="evenodd" stroke="none"/>
      <path d="M10.95 22.25 L10.95 22.15 10.9 22.15 10.7 21.35 10.45 20.6 9.95 22.0 9.9 22.2 9.9 22.25 9.85 22.3 9.4 22.25 9.45 22.1 Q10.1 20.5 10.5 19.95 L10.55 20.0 10.85 20.65 11.0 21.0 11.15 21.35 11.35 21.9 11.4 22.1 11.45 22.15 11.3 22.2 10.95 22.25" fill="#afcfec" fill-rule="evenodd" stroke="none"/>
      <path d="M9.85 22.3 L9.7 22.75 9.6 23.05 9.6 23.1 9.55 23.15 9.55 23.2 9.45 23.4 9.45 23.45 9.25 24.1 9.2 24.25 8.95 25.05 8.45 24.9 8.35 24.9 8.9 23.35 9.05 23.05 9.1 23.0 9.4 22.25 9.85 22.3 M11.3 22.2 L11.55 22.5 11.85 23.3 11.95 23.45 11.9 23.45 12.35 24.8 12.0 24.85 11.4 23.5 11.3 23.3 10.95 22.25 11.3 22.2" fill="#3f0000" fill-opacity="0.52156866" fill-rule="evenodd" stroke="none"/>
    </g>
  </defs>
</svg>
