<?xml version="1.0" encoding="UTF-8" standalone="no"?>
<svg xmlns:ffdec="https://www.free-decompiler.com/flash" xmlns:xlink="http://www.w3.org/1999/xlink" ffdec:objectType="frame" height="7.3px" width="7.4px" xmlns="http://www.w3.org/2000/svg">
  <g transform="matrix(1.0, 0.0, 0.0, 1.0, -2.0, -4.4)">
    <use ffdec:characterId="3" height="7.3" transform="matrix(1.0, 0.0, 0.0, 1.0, 2.0, 4.4)" width="7.4" xlink:href="#shape0"/>
  </g>
  <defs>
    <g id="shape0" transform="matrix(1.0, 0.0, 0.0, 1.0, -2.0, -4.4)">
      <path d="M5.55 7.1 L6.15 6.3 6.4 5.85 6.5 5.45 6.55 5.3 6.55 5.5 6.5 5.65 6.5 5.8 6.55 5.85 6.85 6.65 7.05 7.25 6.95 7.2 6.6 6.9 6.7 7.2 7.0 7.45 7.05 7.5 7.15 7.55 7.25 7.6 7.3 7.6 7.45 7.5 7.6 7.5 7.8 7.55 7.9 7.6 8.25 7.7 8.25 7.65 8.45 7.85 8.5 7.85 8.5 7.9 8.9 8.35 8.95 8.4 9.05 8.5 9.15 8.75 9.05 8.85 8.1 9.2 7.9 9.3 6.45 9.7 6.4 9.7 6.3 9.7 6.3 9.5 6.25 9.35 6.25 9.3 6.2 9.2 6.1 8.8 6.05 8.55 6.05 8.2 5.8 7.75 5.35 7.5 5.55 7.1" fill="url(#gradient0)" fill-rule="evenodd" stroke="none"/>
      <path d="M6.7 7.2 L6.6 6.9 6.95 7.2 6.95 7.3 6.7 7.2 M3.7 7.05 L3.65 7.0 3.4 6.6 3.8 6.95 3.7 7.05" fill="url(#gradient1)" fill-rule="evenodd" stroke="none"/>
      <path d="M3.4 5.2 L3.45 5.2 3.5 5.25 Q3.4 5.25 3.35 5.35 L3.35 5.25 3.4 5.2 M7.2 7.4 L7.3 7.6 7.2 7.4 6.95 6.85 7.2 7.4" fill="#4f39e0" fill-rule="evenodd" stroke="none"/>
      <path d="M2.85 5.7 L2.8 5.7 2.9 5.7 2.85 5.7" fill="#321dbd" fill-rule="evenodd" stroke="none"/>
      <path d="M5.55 7.1 L5.35 7.5 5.8 7.75 6.05 8.55 6.1 8.8 6.2 9.2 6.25 9.3 6.25 9.35 6.3 9.5 6.3 9.7 6.4 9.7 6.45 9.7 7.9 9.45 8.0 9.45 8.2 9.7 8.3 9.8 8.5 10.0 7.55 10.35 Q6.85 10.6 6.5 10.9 5.95 10.85 5.8 10.2 5.6 9.45 5.25 9.4 L5.15 9.4 4.95 9.3 5.05 9.3 4.75 9.2 5.25 9.3 Q5.55 9.15 5.45 8.9 L5.4 8.6 4.7 7.4 5.4 7.2 5.55 7.1 M5.35 7.5 L5.3 7.5 5.3 7.6 5.35 7.5" fill="url(#gradient2)" fill-rule="evenodd" stroke="none"/>
      <path d="M5.15 9.4 L5.25 9.4 Q5.6 9.45 5.8 10.2 5.95 10.85 6.5 10.9 L7.15 10.7 7.45 10.8 7.5 10.9 7.55 11.15 7.5 11.65 Q7.3 11.45 5.55 11.1 L5.25 10.1 4.75 9.45 5.1 9.4 5.15 9.4" fill="url(#gradient3)" fill-rule="evenodd" stroke="none"/>
      <path d="M6.85 6.65 L6.55 5.85 6.5 5.8 6.5 5.65 6.55 5.5 6.55 5.3 6.5 5.45 6.4 5.85 6.15 6.3 5.55 7.1 6.1 5.9 5.0 6.2 4.85 6.05 3.8 5.25 3.7 5.2 4.2 4.95 4.55 4.65 4.8 4.6 5.8 4.7 Q6.85 5.2 6.55 5.2 L6.8 5.45 6.7 5.55 6.75 5.85 6.85 6.55 6.85 6.65 M2.4 6.0 L2.8 5.85 3.4 6.6 3.65 7.0 3.7 7.05 Q3.1 7.55 2.9 8.15 L2.45 6.4 2.5 6.4 2.45 6.1 2.4 6.0 M2.35 4.9 L2.6 4.65 Q2.85 4.45 3.2 4.4 L3.15 4.55 3.25 4.95 2.85 5.1 2.5 5.35 2.35 4.9" fill="#7979e0" fill-rule="evenodd" stroke="none"/>
      <path d="M5.0 6.2 L6.1 5.9 5.55 7.1 5.4 7.2 5.0 6.2 M2.8 5.65 L2.5 5.35 2.85 5.1 3.25 4.95 3.35 5.1 3.35 5.15 3.4 5.2 3.35 5.25 3.35 5.35 2.8 5.65 M2.9 8.15 Q3.1 7.55 3.7 7.05 L4.6 8.3 Q4.8 8.8 4.6 9.2 L4.85 9.3 5.1 9.4 4.8 9.4 4.75 9.45 4.15 9.75 3.6 9.35 3.55 9.3 Q3.15 8.85 2.9 8.15" fill="#4444ad" fill-rule="evenodd" stroke="none"/>
      <path d="M6.75 5.85 L6.7 5.55 6.8 5.45 6.55 5.2 Q6.95 5.25 7.55 6.15 L6.75 5.85 M3.8 5.25 L4.85 6.05 5.0 6.2 4.4 6.5 3.8 6.95 3.4 6.6 2.8 5.85 2.85 5.8 2.7 5.65 2.75 5.65 2.8 5.65 3.35 5.35 Q3.4 5.25 3.5 5.25 L3.8 5.25 M2.5 5.35 L2.1 5.8 2.0 5.55 2.1 5.3 2.35 4.9 2.5 5.35 M3.2 4.4 L3.35 4.4 4.65 4.6 4.55 4.65 4.2 4.7 4.05 4.75 3.25 4.95 3.15 4.55 3.2 4.4 M2.85 5.7 L2.9 5.7 2.8 5.7 2.85 5.7" fill="#fc9799" fill-rule="evenodd" stroke="none"/>
      <path d="M7.6 7.5 L7.45 7.5 7.2 7.4 6.95 6.85 7.2 7.4 7.1 7.4 7.05 7.35 7.05 7.25 6.85 6.65 6.85 6.55 6.75 5.85 7.55 6.15 7.6 7.5 M4.55 4.65 L4.2 4.95 3.7 5.2 3.8 5.25 3.5 5.25 3.45 5.2 3.4 5.2 3.35 5.15 3.35 5.1 3.25 4.95 4.05 4.75 4.2 4.7 4.55 4.65 M5.4 7.2 L4.7 7.4 5.4 8.6 5.45 8.9 Q5.55 9.15 5.25 9.3 L4.75 9.2 5.05 9.3 4.95 9.3 4.85 9.3 4.6 9.2 Q4.8 8.8 4.6 8.3 L3.7 7.05 3.8 6.95 4.4 6.5 5.0 6.2 5.4 7.2 M2.4 6.0 L2.1 5.8 2.5 5.35 2.8 5.65 2.75 5.65 2.7 5.65 2.85 5.8 2.8 5.85 2.4 6.0" fill="#d94b4b" fill-rule="evenodd" stroke="none"/>
      <path d="M8.1 7.6 L8.25 7.7 8.45 7.85 8.4 8.15 8.45 8.1 8.6 8.0 8.9 8.35 8.9 8.75 8.85 9.1 8.75 9.2 7.8 9.55 7.6 9.65 6.5 10.0 6.55 10.05 6.55 10.45 6.5 10.8 7.55 11.0 7.55 11.3 Q6.85 11.0 6.15 11.0 L6.2 10.75 6.15 10.7 6.1 10.65 6.1 10.55 6.05 10.55 6.05 10.5 6.05 10.25 6.05 10.05 6.0 10.05 6.0 9.85 5.95 9.7 5.95 9.65 5.9 9.55 5.8 9.15 5.75 8.9 5.75 8.55 5.5 8.1 5.05 7.85 5.25 7.45 5.85 6.65 6.1 6.2 6.25 6.2 6.45 6.95 6.9 7.1 7.3 7.3 7.55 7.55 7.95 8.05 7.95 8.0 8.1 7.6" fill="#504e54" fill-opacity="0.6" fill-rule="evenodd" stroke="none"/>
      <path d="M6.35 10.3 L6.3 10.3 6.2 10.35 6.3 10.1 6.35 9.95 6.35 10.25 6.35 10.3" fill="url(#gradient4)" fill-rule="evenodd" stroke="none"/>
      <path d="M8.85 8.3 L8.75 8.0 8.65 7.65 8.75 7.25 Q8.75 6.45 7.9 6.15 L7.65 5.65 7.45 5.25 7.8 5.5 8.6 6.3 9.15 6.6 9.2 7.15 Q9.05 7.4 9.05 7.75 L9.3 8.3 9.4 9.25 9.3 9.15 9.05 8.5 8.95 8.4 8.9 8.35 8.85 8.3" fill="#a19f9f" fill-rule="evenodd" stroke="none"/>
      <path d="M9.2 11.45 L9.15 11.7 Q8.2 10.8 6.35 10.8 L6.35 10.35 6.85 10.35 Q8.35 10.6 9.2 11.45 M6.45 4.9 L6.45 4.8 6.5 4.9 6.45 4.9 M9.2 10.25 L9.0 9.25 8.9 9.0 8.9 8.9 9.35 9.45 9.2 10.25" fill="#d9d9d9" fill-rule="evenodd" stroke="none"/>
      <path d="M8.85 8.3 L8.9 8.35 8.95 8.4 9.05 8.5 9.3 9.15 9.35 9.25 9.35 9.45 9.4 9.85 9.2 11.45 Q8.35 10.6 6.85 10.35 L6.35 10.35 6.4 10.3 6.45 10.25 6.5 10.2 6.75 10.05 7.35 10.05 8.1 10.15 8.95 10.35 9.15 10.5 9.2 10.25 9.35 9.45 8.9 8.9 8.5 7.9 8.75 8.2 8.85 8.3" fill="#bfbebe" fill-rule="evenodd" stroke="none"/>
      <path d="M6.1 8.8 L6.1 8.75 6.05 8.55 6.05 8.2 5.8 7.75 5.35 7.5 5.4 7.45 5.55 7.15 5.55 7.1 6.0 6.6 6.45 4.9 6.5 4.9 6.95 6.5 Q6.65 6.7 6.6 7.0 L6.7 7.2 7.0 7.45 7.05 7.5 7.15 7.55 7.45 7.5 7.6 7.5 7.7 7.55 Q7.25 7.5 6.75 7.95 6.35 8.3 6.1 8.8" fill="url(#gradient5)" fill-rule="evenodd" stroke="none"/>
      <path d="M6.35 9.7 L6.3 9.7 6.3 9.5 6.25 9.35 6.25 9.3 6.2 9.2 6.1 8.8 Q6.35 8.3 6.75 7.95 7.25 7.5 7.7 7.55 L7.8 7.55 7.9 7.6 8.15 7.65 8.25 7.7 8.4 7.8 8.45 7.85 8.5 7.9 8.9 8.9 8.55 8.8 7.65 9.05 7.4 9.1 Q6.95 9.3 6.65 9.5 L6.35 9.7" fill="url(#gradient6)" fill-rule="evenodd" stroke="none"/>
      <path d="M6.4 10.3 L6.35 10.3 6.35 10.25 6.35 9.95 6.35 9.85 6.35 9.8 6.4 9.7 6.35 9.7 6.65 9.5 Q6.95 9.3 7.4 9.1 L7.65 9.05 8.55 8.8 8.9 8.9 8.9 9.0 9.0 9.25 9.2 10.25 9.15 10.5 8.95 10.35 8.1 10.15 7.35 10.05 6.75 10.05 6.5 10.2 6.45 10.25 6.4 10.3" fill="url(#gradient7)" fill-rule="evenodd" stroke="none"/>
    </g>
    <linearGradient gradientTransform="matrix(0.0, 0.0, 0.0, 0.0, 0.0, 0.0)" gradientUnits="userSpaceOnUse" id="gradient0" spreadMethod="reflect" x1="-819.2" x2="819.2">
      <stop offset="0.0" stop-color="#9c9696"/>
      <stop offset="1.0" stop-color="#d4d4d4"/>
    </linearGradient>
    <linearGradient gradientTransform="matrix(0.0, 0.0, 0.0, 0.0, 0.0, 0.0)" gradientUnits="userSpaceOnUse" id="gradient1" spreadMethod="reflect" x1="-819.2" x2="819.2">
      <stop offset="0.0" stop-color="#2626af"/>
      <stop offset="1.0" stop-color="#d4d4d4"/>
    </linearGradient>
    <linearGradient gradientTransform="matrix(0.0, 0.0, 0.0, 0.0, 0.0, 0.0)" gradientUnits="userSpaceOnUse" id="gradient2" spreadMethod="reflect" x1="-819.2" x2="819.2">
      <stop offset="0.11372549019607843" stop-color="#5b5252"/>
      <stop offset="0.7490196078431373" stop-color="#d4d4d4"/>
    </linearGradient>
    <linearGradient gradientTransform="matrix(0.0, 0.0, 0.0, 0.0, 0.0, 0.0)" gradientUnits="userSpaceOnUse" id="gradient3" spreadMethod="reflect" x1="-819.2" x2="819.2">
      <stop offset="0.13333333333333333" stop-color="#5f5757"/>
      <stop offset="0.2" stop-color="#5f5757"/>
      <stop offset="0.5725490196078431" stop-color="#e0e0e0"/>
      <stop offset="1.0" stop-color="#e7e7e7"/>
    </linearGradient>
    <linearGradient gradientTransform="matrix(0.0, 0.0, 0.0, 0.0, 0.0, 0.0)" gradientUnits="userSpaceOnUse" id="gradient4" spreadMethod="reflect" x1="-819.2" x2="819.2">
      <stop offset="0.0" stop-color="#9c9696"/>
      <stop offset="1.0" stop-color="#d4d4d4"/>
    </linearGradient>
    <linearGradient gradientTransform="matrix(0.0014, 0.0, 0.0, 0.0024, 6.5, 6.85)" gradientUnits="userSpaceOnUse" id="gradient5" spreadMethod="reflect" x1="-819.2" x2="819.2">
      <stop offset="0.0" stop-color="#5b5252"/>
      <stop offset="0.4549019607843137" stop-color="#d4d4d4"/>
    </linearGradient>
    <linearGradient gradientTransform="matrix(0.0017, 0.0, 0.0, 0.0013, 7.5, 8.6)" gradientUnits="userSpaceOnUse" id="gradient6" spreadMethod="reflect" x1="-819.2" x2="819.2">
      <stop offset="0.0" stop-color="#5b5252"/>
      <stop offset="0.4549019607843137" stop-color="#e2e2e2"/>
    </linearGradient>
    <linearGradient gradientTransform="matrix(0.0017, 0.0, 0.0, 0.001, 7.75, 9.65)" gradientUnits="userSpaceOnUse" id="gradient7" spreadMethod="reflect" x1="-819.2" x2="819.2">
      <stop offset="0.0" stop-color="#3a3a3a"/>
      <stop offset="0.403921568627451" stop-color="#a1a1a1"/>
    </linearGradient>
  </defs>
</svg>
