<svg xmlns="http://www.w3.org/2000/svg" xmlns:ffdec="https://www.free-decompiler.com/flash" xmlns:xlink="http://www.w3.org/1999/xlink" ffdec:objectType="frame" width="10.4" height="11.8"><use ffdec:characterId="5" xlink:href="#a" width="10.4" height="11.8"/><defs><g id="a" fill-rule="evenodd"><path fill="#fecc41" d="M5.75 3.6 9.5 8.65l.9 1.45Q9.05 12 6.7 11.75L3.05 5.4h.05L.65.9q-.8-.85.6-.75Q2.6.25 3.6 1.4z"/><path fill="#c60" fill-opacity=".408" d="m3.15 1.75.35.45 1.4 2 1.6 2.55L7.65 8.5l.7.2q-.4.1-.4.5l.2.2.3.3.15.4q.05.3.85.95v.1l-.75.45-1.9.1v.05l-.9-1.4-.75-1.4-1.7-2.85L1.9 3.15 0 .35Q0 0 .5 0q.25 0 1.25.65z"/></g></defs></svg>