<svg xmlns="http://www.w3.org/2000/svg" xmlns:ffdec="https://www.free-decompiler.com/flash" xmlns:xlink="http://www.w3.org/1999/xlink" ffdec:objectType="frame" width="9.45" height="12.35"><use ffdec:characterId="1" xlink:href="#a" width="9.45" height="12.35"/><defs><g id="a" fill-rule="evenodd"><path fill="#fff" d="M8.85 10.15 8.6 9.3q-.15-.25-.25-.1l-1.2.55.3.1q.5.25.2.9l-1.2.45-.3.1-.25.05q-.3-.6 0-1.15-1.35.65-2.95.9l-1 .05-.1-.3q.05-.3 2.05-1.1L6.15 9l.2-.1.1-.05q1.1-.65 2-.7l.7 1.65z"/><path fill="#ccc" d="M7.65 10.75q.3-.65-.2-.9l-.3-.1 1.2-.55q.1-.15.25.1l.25.85-.75.4zm-5.7.4 1-.05q1.6-.25 2.95-.9-.3.55 0 1.15-2.85 1.05-3.7 1z"/><path fill="#fff" d="M5.45 10.15q.7-1.55.6-4l-.3-.55q-.7-1.3-1.6-2.45L1.6.35l1-.3.9.1Q6 3.05 7.1 3.6l1.7 1.25q.6.7.65 1.4v.35l-.2.95-.35.65-.35.2-.6.55 1-1.3V7.6l.1-.7Q8.2 8.2 6.7 9.3l.85-1.2.25-.9v-.35h-.05q-.5.25-.6.4l-.3.35-1.15 2.45z"/><path fill="#ccc" d="m5.45 10.15-.1.05-1.9.65-1.35.4q-.65.05-1.25-.4Q.3 10.5.2 8.9L.15 5.35l-.1-2.4v-.8l.3-1Q.5.65 1 .5l.6-.15 2.55 2.8q.9 1.15 1.6 2.45l.3.55q.1 2.45-.6 4m2.5-1.2-.9.5-.25.15-1.1.45L6.85 7.6l.3-.35q.1-.15.6-.4h.05v.35l-.25.9-.85 1.2q1.5-1.1 2.35-2.4l-.1.7v.05z"/></g></defs></svg>