<svg xmlns="http://www.w3.org/2000/svg" xmlns:ffdec="https://www.free-decompiler.com/flash" xmlns:xlink="http://www.w3.org/1999/xlink" ffdec:objectType="frame" width="10" height="11.3"><use ffdec:characterId="5" xlink:href="#a" width="10" height="11.3"/><defs><g id="a" fill-rule="evenodd"><path fill="#fff" d="M2 .2h.05q1.2.3 3.4 3.05L10 9.35l-.9 1.05-.85.65-.5-.75L5.5 7.25q-1.2-1.7-2.05-3.4Q2.5 2 2 .2"/><path fill="#c4c4c4" d="m8.25 11.05-1 .25-.25-.05q-.85-.15-1.15-.5l-.35-.65-.95-1.4-1.7-2.75-1.65-2.5Q0 1.5 0 .55q0-.5.7-.5L1.1 0l.9.2Q2.5 2 3.45 3.85q.85 1.7 2.05 3.4l2.25 3.05z"/></g></defs></svg>