<?xml version="1.0" encoding="UTF-8" standalone="no"?>
<svg xmlns:ffdec="https://www.free-decompiler.com/flash" xmlns:xlink="http://www.w3.org/1999/xlink" ffdec:objectType="frame" height="7.2px" width="7.8px" xmlns="http://www.w3.org/2000/svg">
  <g transform="matrix(1.0, 0.0, 0.0, 1.0, 0.9, -2.1)">
    <use ffdec:characterId="3" height="7.2" transform="matrix(1.0, 0.0, 0.0, 1.0, -0.9, 2.1)" width="7.8" xlink:href="#shape0"/>
  </g>
  <defs>
    <g id="shape0" transform="matrix(1.0, 0.0, 0.0, 1.0, 0.9, -2.1)">
      <path d="M6.5 5.9 L6.9 6.15 6.55 6.8 5.2 8.4 Q4.4 9.0 3.45 9.25 L3.35 9.3 2.7 8.2 2.5 7.9 Q0.75 5.05 -0.8 3.05 -0.95 2.45 -0.5 2.2 -0.1 2.0 0.3 2.2 1.85 3.05 3.1 3.8 L6.5 5.9" fill="#e5e5e5" fill-rule="evenodd" stroke="none"/>
      <path d="M6.2 6.15 L6.15 6.3 6.2 6.25 4.9 7.75 3.35 9.05 Q2.45 7.35 -0.55 3.45 L-0.55 3.4 -0.8 3.05 -0.9 2.6 -0.75 2.45 -0.5 2.4 0.0 2.5 0.3 2.65 1.15 3.25 2.25 4.3 2.3 4.35 3.05 5.05 Q3.65 5.65 4.1 5.7 L4.95 5.75 5.4 5.7 4.65 6.4 4.05 7.05 3.7 7.2 4.15 7.3 4.35 7.3 4.8 6.95 Q5.75 6.0 6.15 6.0 L6.2 6.15 M3.2 6.6 L3.2 6.65 3.25 6.6 3.2 6.6" fill="#000000" fill-opacity="0.2" fill-rule="evenodd" stroke="none"/>
    </g>
  </defs>
</svg>
