<svg xmlns="http://www.w3.org/2000/svg" xmlns:ffdec="https://www.free-decompiler.com/flash" xmlns:xlink="http://www.w3.org/1999/xlink" ffdec:objectType="frame" width="9.35" height="14.35"><use ffdec:characterId="1" xlink:href="#a" width="9.35" height="14.35"/><defs><g id="a" fill-rule="evenodd"><path fill="#db8d8d" d="M2.8.4q-.3.05.85 1.7L5.6 5l1.9 2.7 1 1.2.2.75.65 2.25L7 13.1l-.15.1-.15.05-.55.25-.3.15v-.85q.15-.85.6-1.5l-3.75.9-.4-.3h.05l-.9.05q-.6-.4-.8-1.35L.6 9.8.1 5.9 0 3.7q-.15-.4.9-2.25 1-1.9 1.65-1.3zm4.75 9.75.15-.05z"/><path fill="#cb4e4e" d="m1.1 11.8-.35-1.1-.4-3.05-.3-4.75q0-1.7 1-1.8Q4.4 8.45 5.9 9.9l.6.1 1.55-.45.55-.2.15.5L3.9 11.6l-1.6.4q.05.2.4.2l3.75-.9q-.45.65-.6 1.5v.85l-.4.15-2.25.55q-.2 0-.55-.95t-.95-1.3h-.1z"/><path fill="#fff" d="m6.7 11 .15-.1h.2q.7 0 .7.45l-.1.3h.05l-.1.15h-.05l-.05.1-.05.1h-.3l-.2-.05-.2-.05v-.05l-.15-.25.05-.2v-.05z"/><path fill="#a32d2d" d="m1.75 12-.3-.1v-.1L8.6 9.4l.05.35-1.05.5.25.95.25 1.1v.15l-.4.15-.15-.45-.5.15q-.5 0-.6-.35v-.35q0-.5.25-.6l.15-.1h.25l.15.05-.05-.55-1.55.6zm5.35-.95q-.5-.05-.5.45 0 .45.55.45.45 0 .45-.4 0-.45-.5-.5"/></g></defs></svg>