<svg xmlns="http://www.w3.org/2000/svg" xmlns:ffdec="https://www.free-decompiler.com/flash" xmlns:xlink="http://www.w3.org/1999/xlink" ffdec:objectType="frame" width="4.8" height="4.6"><use ffdec:characterId="5" xlink:href="#a" width="4.8" height="4.6"/><defs><radialGradient id="b" cx="0" cy="0" r="819.2" gradientTransform="translate(1.8 4.4)scale(.0035)" gradientUnits="userSpaceOnUse" spreadMethod="pad"><stop offset="0" stop-color="#ffe58e"/><stop offset="1" stop-color="#e0b833"/></radialGradient><radialGradient id="c" cx="0" cy="0" r="819.2" gradientTransform="matrix(0 0 0 0 0 0)" gradientUnits="userSpaceOnUse" spreadMethod="pad"><stop offset="0" stop-color="#ffe58e"/><stop offset="1" stop-color="#e0b833"/></radialGradient><g id="a" fill-rule="evenodd"><path fill="#6b5712" fill-opacity=".498" d="m3.95 1.9.2-.25.1.05.1.15L4.3 2l-.2.05zM2.8 1.8l.1.05L3 2l-.05.15-.2.05-.15-.15zm.6 0 .2-.2.2.2-.05.2-.15.05zm.25-.7-.05.15-.2.05-.15-.15.2-.25.1.05zm.5-.2-.05.15-.2.05-.15-.15.2-.25.1.05zM2.3 2.3l-.05.15-.2.05-.15-.15.2-.25.1.05zm-.05-.8-.05.15-.2.05-.2-.2.05-.15q.4-.1.4.15M.9 1.65Q.4 2 .45 2.2L.1 1.65Q1.15.25 3.55.25l.25.5-.95.15-.05.2.1.15-.05.15-.2.05-.15-.15.2-.35q-1.1.25-1.8.7m.4.9.1.05.1.15-.05.15-.2.05-.15-.15zM.65 2.5.5 2.35l.2-.25.1.05.05.05.05.1-.05.15zm0 .15.1.05.1.15L.8 3l-.2.05-.15-.15zm.5-.9.2-.25.1.05.1.15-.05.15-.2.05zm3.6 1.7-.2.25Q4 3.7 4.3 2.3l.25.55zm-1.6-.05q.25.85-.4.7l-.1-.45.15-1.05zm.45.5q-.15-.1-.15-.85l.1-.65.25.85q.15.75-.2.65m-2.05-.25.15.65-.3.3q-.15 0-.15-.45l.1-.85zm.85.6-.2.2-.25-.55.15-.95zm-2 0 .15-.9V3.3l.3.95-.25.35z"/><path fill="url(#b)" d="m3.45 3.35.25.5q-1.85.2-2.9.9-.5.35-.65.65l-.3-.45q1.2-1.6 3.6-1.6" transform="translate(.15 -3.35)"/><path fill="url(#c)" d="m2.9 5.1-.05.15-.2.05-.15-.15.2-.25.1.05zm.6-.4.2.2-.05.2-.15.05-.2-.25zM3.35 4l.1.05.1.15-.05.15-.2.05-.15-.15zm-.65.2.1.15-.05.15-.2.05-.15-.15.2-.25zM4.05 4 4 4.15l-.2.05-.15-.15.2-.25.1.05zM2 5.2l.1.05.1.15-.05.15-.2.05-.15-.15zm-1 .7.2-.25.1.05.1.15-.05.15-.2.05zm-.5.25L.35 6l.2-.25.1.05.1.15-.05.15zm.2-.9.05.05.05.1-.05.15-.2.05-.15-.15.2-.25zM1.2 5l-.15-.15.2-.25.1.05.1.15-.05.15zm.55-.55q.4-.1.4.15l-.05.15-.2.05-.2-.2zm1.7 1.05.25.85q.15.75-.2.65-.15-.1-.15-.85zm1 .45.2.6-.2.25q-.55 0-.25-1.4zm-3 .8.15.65-.3.3q-.15 0-.15-.45l.1-.85zm1.2.45-.1-.45.15-1.05.35.8q.25.85-.4.7m1.4-2.45.1.05.1.15-.05.15-.2.05L3.85 5zM1.85 7 2 6.05l.3 1.3-.2.2zm-1.4-.6.3.95-.25.35q-.2 0-.2-.35l.15-.9z" transform="translate(.15 -3.35)"/></g></defs></svg>