<svg xmlns="http://www.w3.org/2000/svg" xmlns:ffdec="https://www.free-decompiler.com/flash" xmlns:xlink="http://www.w3.org/1999/xlink" ffdec:objectType="frame" width="12.8" height="15.65"><use ffdec:characterId="5" xlink:href="#a" width="12.8" height="15.65"/><defs><linearGradient id="b" x1="-819.2" x2="819.2" gradientTransform="matrix(-.0041 .001 -.0004 -.0016 7.2 18.95)" gradientUnits="userSpaceOnUse" spreadMethod="pad"><stop offset="0" stop-color="#333"/><stop offset="1"/></linearGradient><linearGradient id="c" x1="-819.2" x2="819.2" gradientTransform="matrix(.0008 0 0 .0009 10.7 4.65)" gradientUnits="userSpaceOnUse" spreadMethod="pad"><stop offset=".2" stop-color="#343633"/><stop offset="1" stop-color="#171516"/></linearGradient><linearGradient id="d" x1="-819.2" x2="819.2" gradientTransform="matrix(.0008 0 0 .0011 11.2 5.75)" gradientUnits="userSpaceOnUse" spreadMethod="pad"><stop offset=".2" stop-color="#343633"/><stop offset="1" stop-color="#171516"/></linearGradient><linearGradient id="e" x1="-819.2" x2="819.2" gradientTransform="matrix(.0009 0 0 .001 11.4 7)" gradientUnits="userSpaceOnUse" spreadMethod="pad"><stop offset=".2" stop-color="#343633"/><stop offset="1" stop-color="#171516"/></linearGradient><linearGradient id="f" x1="-819.2" x2="819.2" gradientTransform="matrix(.0009 0 0 .0007 11.3 8)" gradientUnits="userSpaceOnUse" spreadMethod="pad"><stop offset=".2" stop-color="#343633"/><stop offset="1" stop-color="#171516"/></linearGradient><linearGradient id="g" x1="-819.2" x2="819.2" gradientTransform="matrix(.0013 0 0 .0007 10.5 9.05)" gradientUnits="userSpaceOnUse" spreadMethod="pad"><stop offset=".2" stop-color="#343633"/><stop offset="1" stop-color="#171516"/></linearGradient><linearGradient id="h" x1="-819.2" x2="819.2" gradientTransform="matrix(.0013 0 0 .0006 10.1 10.05)" gradientUnits="userSpaceOnUse" spreadMethod="pad"><stop offset=".2" stop-color="#343633"/><stop offset="1" stop-color="#171516"/></linearGradient><linearGradient id="i" x1="-819.2" x2="819.2" gradientTransform="matrix(.0006 0 0 .0007 -.2 11.6)" gradientUnits="userSpaceOnUse" spreadMethod="pad"><stop offset=".2" stop-color="#343633"/><stop offset="1" stop-color="#171516"/></linearGradient><linearGradient id="j" x1="-819.2" x2="819.2" gradientTransform="matrix(.0005 0 0 .0009 .45 12.2)" gradientUnits="userSpaceOnUse" spreadMethod="pad"><stop offset=".2" stop-color="#343633"/><stop offset="1" stop-color="#171516"/></linearGradient><linearGradient id="k" x1="-819.2" x2="819.2" gradientTransform="matrix(.0008 0 0 .001 1.3 12.75)" gradientUnits="userSpaceOnUse" spreadMethod="pad"><stop offset=".2" stop-color="#343633"/><stop offset="1" stop-color="#171516"/></linearGradient><linearGradient id="l" x1="-819.2" x2="819.2" gradientTransform="matrix(.0018 0 0 .0016 6.35 13.15)" gradientUnits="userSpaceOnUse" spreadMethod="pad"><stop offset=".2" stop-color="#343633"/><stop offset="1" stop-color="#171516"/></linearGradient><linearGradient id="m" x1="-819.2" x2="819.2" gradientTransform="translate(7.65 12.5)scale(.0017)" gradientUnits="userSpaceOnUse" spreadMethod="pad"><stop offset=".2" stop-color="#343633"/><stop offset="1" stop-color="#171516"/></linearGradient><linearGradient id="n" x1="-819.2" x2="819.2" gradientTransform="matrix(.0015 0 0 .0008 8.65 11.4)" gradientUnits="userSpaceOnUse" spreadMethod="pad"><stop offset=".2" stop-color="#343633"/><stop offset="1" stop-color="#171516"/></linearGradient><linearGradient id="o" x1="-819.2" x2="819.2" gradientTransform="matrix(.0016 0 0 .0009 9.55 10.85)" gradientUnits="userSpaceOnUse" spreadMethod="pad"><stop offset=".2" stop-color="#343633"/><stop offset="1" stop-color="#171516"/></linearGradient><linearGradient id="p" x1="-819.2" x2="819.2" gradientTransform="matrix(.001 0 0 .0013 3.65 13.3)" gradientUnits="userSpaceOnUse" spreadMethod="pad"><stop offset=".2" stop-color="#343633"/><stop offset="1" stop-color="#171516"/></linearGradient><linearGradient id="q" x1="-819.2" x2="819.2" gradientTransform="matrix(.0013 0 0 .0014 5.05 13.45)" gradientUnits="userSpaceOnUse" spreadMethod="pad"><stop offset=".2" stop-color="#343633"/><stop offset="1" stop-color="#171516"/></linearGradient><linearGradient id="r" x1="-819.2" x2="819.2" gradientTransform="matrix(.0007 0 0 .0011 2.45 13.1)" gradientUnits="userSpaceOnUse" spreadMethod="pad"><stop offset=".2" stop-color="#343633"/><stop offset="1" stop-color="#171516"/></linearGradient><linearGradient id="t" x1="-819.2" x2="819.2" gradientTransform="matrix(.0057 -.004 .0026 .0037 4.8 7.85)" gradientUnits="userSpaceOnUse" spreadMethod="pad"><stop offset="0"/><stop offset=".522" stop-color="#7f7f7f"/><stop offset="1"/></linearGradient><radialGradient id="s" cx="0" cy="0" r="819.2" gradientTransform="translate(3.3 5.1)scale(.0141)" gradientUnits="userSpaceOnUse" spreadMethod="pad"><stop offset=".169" stop-color="#bd2149"/><stop offset="1" stop-color="#661d28"/></radialGradient><g id="a" fill-rule="evenodd"><path fill="url(#b)" d="M8.95 12.75q.5.95.6 2.25.15 1.55-.5 2.5-.7 1.1-2.1 1.4l-2.35-.25q-1.35-.7-2.05-4.85l.5.2q.6.55 1.45.35l1.65.15.05-.05q1.05.1 1.6-.55l1.05-1z" transform="translate(.7 -3.35)"/><path fill="url(#c)" d="m10.6 5.4-.05-.2-.3-.45-.2-.15.6-.65.4.15q.3.2.3.75z" transform="translate(.7 -3.35)"/><path fill="url(#d)" d="M11.35 4.85v.1l.35.25q.3.35 0 1l-1 .45-.1-.3V5.4z" transform="translate(.7 -3.35)"/><path fill="url(#e)" d="m11.7 6.2.2.2q.3.45.1 1.05l-1.3.4v-1.2z" transform="translate(.7 -3.35)"/><path fill="url(#f)" d="M12 7.45q.3.75-.45 1l-1 .15.1-.45.05-.25v-.05z" transform="translate(.7 -3.35)"/><path fill="url(#g)" d="M11.55 8.45q.2 1-.45 1.2l-1.7-.1.15-.2V9.3l.75-.25.25-.45z" transform="translate(.7 -3.35)"/><path fill="url(#h)" d="M11.1 9.65q.3.75-.2.9h-.05L9 10.15l.4-.6z" transform="translate(.7 -3.35)"/><path fill="url(#i)" d="M.05 12.2q-.5.1-.75-.45l.6-.7.45.45z" transform="translate(.7 -3.35)"/><path fill="url(#j)" d="M.7 12.9q-.45.1-.65-.7l.3-.7.35.15-.05.15.2.15z" transform="translate(.7 -3.35)"/><path fill="url(#k)" d="m1.9 13.6-.05-.05Q.9 13.6.7 12.9l.15-.95.95.05.1.2.05.05z" transform="translate(.7 -3.35)"/><path fill="url(#l)" d="M7.8 13.9q-.55.65-1.6.55l-.05.05-1.25-2.2.7-.45.3.1.35.1z" transform="translate(.7 -3.35)"/><path fill="url(#m)" d="m9.1 12.1-.25.8-1.05 1-1.55-1.85.05-.05.65-.25.5-.6z" transform="translate(.7 -3.35)"/><path fill="url(#n)" d="m9.9 11.6-.8.5-1.65-.95.1-.35.7-.05z" transform="translate(.7 -3.35)"/><path fill="url(#o)" d="M10.85 10.55q-.1.9-.95 1.05l-1.65-.85.4-.2.35-.4z" transform="translate(.7 -3.35)"/><path fill="url(#p)" d="M4.5 14.35q-.85.2-1.45-.35l-.25-1.6.7-.15.2.5.3-.05z" transform="translate(.7 -3.35)"/><path fill="url(#q)" d="m6.15 14.5-1.65-.15L4 12.7l.9-.4z" transform="translate(.7 -3.35)"/><path fill="url(#r)" d="M3.05 14q-.75.1-1.15-.4l.05-1.35.85.15z" transform="translate(.7 -3.35)"/><path fill="url(#s)" d="m10.55 5.2.05.2v.95l.1.3V7.9l-.05.25-.1.45-.25.45-.75.25v.05l-.15.2-.4.6-.35.4-.4.2-.7.05-.1.35-.5.6-.65.25-.05.05-.35-.1-.3-.1-.7.45-.9.4-.3.05-.2-.5-.7.15-.85-.15-.05-.05-.1-.2-.95-.05-.2-.15.05-.15-.35-.15-.45-.45-.05-.15-.2-.55L.4 7.1l-.1-.95-.4-.95q.65-1.55 2.35-1.8l1.6.15.25.15-.05.15q.9.55 1.7.75l2.3.15h.85l.45-.1.4-.05h.3l.2.15z" transform="translate(.7 -3.35)"/><path fill="url(#t)" d="M9.35 4.65q.35.6.25 1.5.35.7 0 1.4-.1 1.05-.75 1.4-.4 1.1-1.8 1.35-.4 1.2-1.8 1.05-1.25.7-1.95.5-1 .4-1.55-.25-1.05.05-1.65-.7l-.4-.75.1-.5q.45 1.1.95 1.3l1 .3q.45.45 1.5.25.6 0 1.65-.6 1.1.45 1.8-.85 1.35-.2 1.75-1.25.85-.6.75-1.4.25-.55.1-1.2.15-.5-.3-1.45z" transform="translate(.7 -3.35)"/><path fill-opacity=".498" d="m1.4 8.3-.35-.15-.4-.4 1-3.75zm9.9-5.35V3l-3.8-.45 3.85-.05zm.1 1.55v.05l-4.9-1.4 4.95.75zM2.1 8.75V3.4l.4 5.25zM9.35 7.2l-.4.2-.7.05-4.6-4.35zm.9-1.25V6l-5.1-2.65L11 5.7zm-4.6 3-1.3-3.7L6.3 8.5zM2.85 4.4 4.2 8.9l-.7.15z"/><path fill-opacity=".498" d="m1 2.8-.4-.95Q1 .9 1.8.45L8.45 10.6q-.55.6-1.55.5l-.05.05L5.2 11q-.85.2-1.45-.35-.75.1-1.15-.4l-.05-.05q-.95.05-1.15-.65-.45.1-.65-.7-.5.1-.75-.45l.6-.7-.05-.15L.35 7l.75-3.25z"/></g></defs></svg>