<?xml version="1.0" encoding="UTF-8" standalone="no"?>
<svg xmlns:ffdec="https://www.free-decompiler.com/flash" xmlns:xlink="http://www.w3.org/1999/xlink" ffdec:objectType="frame" height="11.8px" width="10.4px" xmlns="http://www.w3.org/2000/svg">
  <g transform="matrix(1.0, 0.0, 0.0, 1.0, 1.0, -2.3)">
    <use ffdec:characterId="5" height="11.8" transform="matrix(1.0, 0.0, 0.0, 1.0, -1.0, 2.3)" width="10.4" xlink:href="#shape0"/>
  </g>
  <defs>
    <g id="shape0" transform="matrix(1.0, 0.0, 0.0, 1.0, 1.0, -2.3)">
      <path d="M4.75 5.9 L8.5 10.95 9.4 12.4 Q8.05 14.3 5.7 14.05 L2.05 7.7 2.1 7.7 -0.35 3.2 Q-1.15 2.35 0.25 2.45 1.6 2.55 2.6 3.7 L4.75 5.9" fill="#a30f0f" fill-rule="evenodd" stroke="none"/>
      <path d="M2.5 4.5 L3.9 6.5 5.5 9.05 6.65 10.8 7.35 11.0 Q6.95 11.1 6.95 11.5 L7.15 11.7 7.45 12.0 7.6 12.4 Q7.65 12.7 8.45 13.35 L8.45 13.4 8.45 13.45 7.7 13.9 5.8 14.0 5.8 14.05 4.9 12.65 4.15 11.25 2.45 8.4 0.9 5.45 -1.0 2.65 Q-1.0 2.3 -0.5 2.3 -0.25 2.3 0.75 2.95 L2.15 4.05 2.5 4.5" fill="#540000" fill-opacity="0.40784314" fill-rule="evenodd" stroke="none"/>
    </g>
  </defs>
</svg>
