<?xml version="1.0" encoding="UTF-8" standalone="no"?>
<svg xmlns:ffdec="https://www.free-decompiler.com/flash" xmlns:xlink="http://www.w3.org/1999/xlink" ffdec:objectType="frame" height="10.95px" width="10.5px" xmlns="http://www.w3.org/2000/svg">
  <g transform="matrix(1.0, 0.0, 0.0, 1.0, 0.6, -2.0)">
    <use ffdec:characterId="3" height="10.95" transform="matrix(1.0, 0.0, 0.0, 1.0, -0.6, 2.0)" width="10.5" xlink:href="#shape0"/>
  </g>
  <defs>
    <g id="shape0" transform="matrix(1.0, 0.0, 0.0, 1.0, 0.6, -2.0)">
      <path d="M5.4 12.65 L4.9 12.75 Q4.5 12.75 4.25 12.4 L4.25 12.45 4.1 12.85 3.75 12.95 3.7 12.95 Q3.35 12.9 3.1 12.65 L3.0 12.55 2.65 12.9 Q2.1 13.0 1.95 12.6 1.8 12.9 1.35 12.9 0.6 12.9 0.6 12.25 L0.8 11.8 0.8 11.7 3.3 11.75 3.85 11.7 4.35 11.6 4.95 11.45 5.4 12.65 M6.1 10.95 L7.4 9.9 8.25 11.15 7.9 11.2 Q7.9 11.85 7.4 11.85 6.7 11.85 6.7 11.45 L6.85 11.25 6.8 11.25 Q6.55 11.25 6.55 11.5 L6.65 11.8 6.3 11.9 6.2 11.2 6.1 10.95" fill="#ffffff" fill-rule="evenodd" stroke="none"/>
      <path d="M6.3 11.9 L6.5 11.95 6.55 12.1 6.4 12.35 6.2 12.5 6.3 11.9" fill="#c20000" fill-rule="evenodd" stroke="none"/>
      <path d="M4.95 11.45 L6.1 10.95 6.2 11.2 6.3 11.9 5.8 12.05 5.95 12.1 6.3 11.9 6.2 12.5 5.95 12.5 5.45 12.35 5.4 12.65 4.95 11.45 M7.4 9.9 L7.45 9.85 7.75 9.5 8.05 9.15 9.0 9.75 8.6 10.3 8.55 10.25 8.6 10.65 8.4 11.05 8.25 11.15 7.4 9.9" fill="#d3d8ed" fill-rule="evenodd" stroke="none"/>
      <path d="M2.35 11.85 L0.8 11.7 0.85 10.2 2.85 10.2 3.2 10.15 3.75 10.0 Q5.0 9.65 6.6 8.45 6.75 8.35 7.9 9.05 L8.05 9.15 7.5 9.95 7.45 10.05 7.4 10.15 6.3 9.05 5.75 9.55 6.45 11.05 5.75 11.35 5.5 11.2 3.45 11.0 2.35 11.85" fill="#8e2649" fill-rule="evenodd" stroke="none"/>
      <path d="M7.4 10.15 L7.35 10.15 7.35 10.2 6.45 11.05 5.75 9.55 6.3 9.05 7.4 10.15 M5.75 11.35 L5.5 11.4 3.75 11.8 2.7 11.85 2.35 11.85 3.45 11.0 5.5 11.2 5.75 11.35" fill="#bb4084" fill-rule="evenodd" stroke="none"/>
      <path d="M3.9 10.0 L3.9 9.25 Q4.8 9.25 4.75 8.8 L4.8 8.5 Q4.85 8.2 2.5 5.3 L0.2 2.5 Q0.4 2.3 0.65 2.2 1.95 1.55 3.1 3.1 L3.4 3.5 3.65 3.85 3.95 4.25 5.35 6.45 5.6 6.85 5.65 6.9 5.8 7.1 6.25 7.85 6.6 8.45 3.9 10.0" fill="#f244c7" fill-rule="evenodd" stroke="none"/>
      <path d="M0.2 2.5 L2.5 5.3 Q4.85 8.2 4.8 8.5 L4.75 8.8 Q4.8 9.25 3.9 9.25 L3.9 10.0 3.05 10.2 0.85 10.2 0.75 9.75 -0.6 3.4 -0.4 3.1 0.2 2.5" fill="#cf169c" fill-rule="evenodd" stroke="none"/>
      <path d="M4.45 7.2 L4.5 7.2 Q5.0 6.65 5.2 6.7 L5.3 6.55 5.4 6.7 5.4 6.65 Q5.95 6.35 6.8 6.2 L8.5 6.35 8.5 6.4 8.6 8.2 8.55 8.55 9.9 9.95 8.75 11.15 6.9 9.05 6.3 8.45 5.95 8.3 5.85 8.5 6.35 9.95 7.5 12.1 6.1 12.65 6.0 12.7 5.45 11.9 5.0 10.85 3.4 10.7 Q3.25 9.3 3.9 8.15 L4.35 7.25 4.45 7.25 4.45 7.2" fill="#fee034" fill-rule="evenodd" stroke="none"/>
      <path d="M9.9 9.95 L8.75 11.15 6.9 9.05 8.6 10.15 8.4 9.6 8.35 9.5 9.9 9.95 M5.95 11.25 L6.35 11.5 6.85 11.95 6.95 12.0 6.35 9.95 7.5 12.1 6.1 12.65 6.1 11.75 5.95 11.3 5.95 11.25 M8.6 8.2 L7.85 8.05 6.8 7.9 6.4 7.85 6.2 7.7 6.05 7.75 6.3 8.45 5.95 8.3 Q6.2 8.2 5.4 7.0 L5.2 6.7 5.3 6.55 5.4 6.7 5.4 6.65 6.05 7.65 7.8 7.55 8.15 7.6 8.35 6.9 8.5 6.35 8.5 6.4 8.6 8.2 M4.45 7.25 L4.45 7.2 4.5 7.2 4.75 7.6 5.45 8.2 5.95 8.3 5.85 8.5 5.9 8.8 5.05 8.2 5.2 9.05 5.2 9.45 Q5.2 10.1 5.5 10.7 L5.0 10.85 3.4 10.7 4.8 10.35 4.95 8.55 5.05 8.15 4.85 7.95 4.45 7.25" fill="#e2a20a" fill-rule="evenodd" stroke="none"/>
      <path d="M5.05 10.8 L4.85 9.15 Q4.85 8.3 5.05 8.1 L5.3 9.4 5.4 10.65 5.4 10.75 5.05 10.8 M8.35 8.2 L7.45 7.95 6.0 7.75 6.65 7.55 7.05 7.5 7.35 7.55 8.3 7.75 8.4 8.25 8.35 8.2" fill="#722e05" fill-rule="evenodd" stroke="none"/>
    </g>
  </defs>
</svg>
