<svg xmlns="http://www.w3.org/2000/svg" xmlns:ffdec="https://www.free-decompiler.com/flash" xmlns:xlink="http://www.w3.org/1999/xlink" ffdec:objectType="frame" width="8.5" height="8.95"><use ffdec:characterId="5" xlink:href="#a" width="8.5" height="8.95"/><defs><g id="a" fill-rule="evenodd"><path d="m5.05 2.15.5.4.85.65-.15.25-1.2-1.2z"/><path fill="#333" d="m6.25 3.45-.35.6-.85-.55-.75-.55L1.85.75 1.7.55l1.45.4.2.05 1.3.8.4.35v.1z"/><path d="M.65 0 3.1 3.1q1.55 2 3.5 2.05h.25l-1.1 1.3Q4 7.3 2.35 7.6l.05.05q2.05-.25 3.45-1.1l.45-.4.2-.15.15-.2.9-1.4.25-.55.35.25-.05.05Q7.25 5.8 6.2 6.7l1.2-.65h.1l-.15.7-.9.7-.85.4-1.15.45-2.35.6-.05.05h-.1l-.05-.1-.2-.4-.05-.05-.1-.2-.6-1.4L.4 5.15.05 3.4 0 1.4.1.35.15.2z"/><path fill="#333" d="m.65 0 .4.05 1.25.3Q3.65.8 5.05 1.8l.2.15 2.55 1.9-.25.55-.9 1.4-.15.2-.2.15-.45.4q-1.4.85-3.45 1.1l-.05-.05Q4 7.3 5.75 6.45l1.1-1.3H6.6Q4.65 5.1 3.1 3.1zm7.5 4.1.35.4-.1.6-.65 1.2-.4.45.15-.7h-.1l-1.2.65q1.05-.9 1.9-2.55z"/></g></defs></svg>