<?xml version="1.0" encoding="UTF-8" standalone="no"?>
<svg xmlns:ffdec="https://www.free-decompiler.com/flash" xmlns:xlink="http://www.w3.org/1999/xlink" ffdec:objectType="frame" height="11.65px" width="10.5px" xmlns="http://www.w3.org/2000/svg">
  <g transform="matrix(1.0, 0.0, 0.0, 1.0, 0.0, -3.05)">
    <use ffdec:characterId="1" height="11.65" transform="matrix(1.0, 0.0, 0.0, 1.0, 0.0, 3.05)" width="10.5" xlink:href="#shape0"/>
  </g>
  <defs>
    <g id="shape0" transform="matrix(1.0, 0.0, 0.0, 1.0, 0.0, -3.05)">
      <path d="M1.45 11.25 L4.35 11.05 Q5.6 10.7 7.2 9.5 7.35 9.4 8.5 10.1 L9.6 10.8 Q8.3 12.7 6.5 13.65 4.45 14.65 1.35 14.7 L1.45 11.25" fill="#000000" fill-rule="evenodd" stroke="none"/>
      <path d="M1.45 11.25 L0.0 4.45 0.2 4.15 1.25 3.25 Q2.55 2.6 3.7 4.15 L4.0 4.55 4.25 4.9 4.55 5.3 5.95 7.5 6.2 7.9 6.25 7.95 6.4 8.15 7.2 9.5 Q5.6 10.7 4.35 11.05 L1.45 11.25" fill="#999999" fill-rule="evenodd" stroke="none"/>
      <path d="M1.05 5.65 L0.4 5.35 0.15 4.75 Q0.15 4.4 0.4 4.1 L1.05 3.85 1.65 4.1 1.95 4.75 1.65 5.35 Q1.4 5.65 1.05 5.65 M4.65 5.7 L4.95 6.35 4.65 6.95 Q4.4 7.25 4.05 7.25 L3.4 6.95 3.15 6.35 Q3.15 6.0 3.4 5.7 L4.05 5.45 4.65 5.7 M3.0 9.05 L2.7 9.65 2.1 9.95 1.45 9.65 1.2 9.05 1.45 8.4 Q1.75 8.15 2.1 8.15 L2.7 8.4 3.0 9.05" fill="#7300fb" fill-rule="evenodd" stroke="none"/>
      <path d="M5.05 8.3 L5.05 8.25 5.1 8.25 5.8 7.75 5.9 7.6 6.0 7.75 6.0 7.7 Q6.55 7.4 7.4 7.25 L9.1 7.4 9.1 7.45 9.2 9.25 9.15 9.6 10.5 11.0 9.35 12.2 7.5 10.1 6.9 9.5 6.55 9.35 6.45 9.55 6.95 11.0 8.1 13.15 6.7 13.7 6.6 13.75 6.05 12.95 5.6 11.9 4.0 11.75 Q3.85 10.35 4.5 9.2 L4.95 8.3 5.05 8.3" fill="#7300fb" fill-rule="evenodd" stroke="none"/>
      <path d="M9.0 10.65 L8.95 10.55 10.5 11.0 9.35 12.2 7.5 10.1 9.2 11.2 9.0 10.65 M6.55 12.35 L6.55 12.3 6.95 12.55 7.45 13.0 7.55 13.05 6.95 11.0 8.1 13.15 6.7 13.7 6.7 12.8 6.55 12.35 M9.1 7.4 L9.1 7.45 9.2 9.25 8.45 9.1 7.4 8.95 7.0 8.9 6.8 8.75 6.65 8.8 6.9 9.5 6.55 9.35 Q6.8 9.25 6.0 8.05 L5.8 7.75 5.9 7.6 6.0 7.75 6.0 7.7 6.65 8.7 8.4 8.6 8.75 8.65 8.95 7.95 9.1 7.4 M5.05 8.3 L5.05 8.25 5.1 8.25 5.35 8.65 6.05 9.25 6.55 9.35 6.45 9.55 6.5 9.85 5.65 9.25 5.8 10.1 5.8 10.5 Q5.8 11.15 6.1 11.75 L5.6 11.9 4.0 11.75 5.4 11.4 5.55 9.6 5.65 9.2 5.45 9.0 5.05 8.3" fill="#5000b0" fill-rule="evenodd" stroke="none"/>
      <path d="M1.4 3.25 Q1.8 3.25 3.15 6.2 L4.45 9.15 Q4.0 9.95 3.95 11.6 L5.55 11.95 6.35 13.6 Q3.5 14.6 2.2 14.55 L0.1 4.45 Q0.7 3.25 1.4 3.25" fill="#000000" fill-opacity="0.29803923" fill-rule="evenodd" stroke="none"/>
    </g>
  </defs>
</svg>
