<?xml version="1.0" encoding="UTF-8" standalone="no"?>
<svg xmlns:ffdec="https://www.free-decompiler.com/flash" xmlns:xlink="http://www.w3.org/1999/xlink" ffdec:objectType="frame" height="11.75px" width="15.0px" xmlns="http://www.w3.org/2000/svg">
  <g transform="matrix(1.0, 0.0, 0.0, 1.0, -0.25, 0.35)">
    <use ffdec:characterId="5" height="8.05" transform="matrix(1.0, 0.0, 0.0, 1.0, 0.25, 3.35)" width="15.0" xlink:href="#shape0"/>
    <use ffdec:characterId="3" height="9.15" id="Color" transform="matrix(1.0, 0.0, 0.0, 0.6831, 4.05, 4.85)" width="9.25" xlink:href="#sprite0"/>
    <use ffdec:characterId="6" height="6.25" transform="matrix(1.0, 0.0, 0.0, 1.0, 2.05, 4.85)" width="12.0" xlink:href="#shape2"/>
  </g>
  <defs>
    <g id="shape0" transform="matrix(1.0, 0.0, 0.0, 1.0, -0.25, -3.35)">
      <path d="M12.95 5.85 L11.4 5.5 5.0 4.85 Q3.4 4.85 2.8 5.35 1.75 6.05 2.2 7.8 L2.35 8.35 2.4 8.45 2.65 9.05 Q1.4 8.05 1.15 7.05 L0.55 7.45 Q0.2 6.2 1.45 4.95 L0.45 4.9 0.25 4.85 Q2.15 3.9 6.8 4.1 11.1 4.25 15.2 5.25 L13.65 5.3 Q14.95 6.05 15.25 7.0 L14.0 6.3 12.95 5.85 M6.95 10.9 L9.3 11.1 10.95 10.9 11.05 10.9 11.2 10.9 12.45 10.6 12.7 10.45 12.6 10.6 12.5 10.7 11.95 10.95 12.75 11.0 11.25 11.15 11.65 11.35 10.8 11.25 7.95 11.3 6.75 11.35 7.25 11.2 5.8 11.05 6.4 11.0 5.4 10.65 5.15 10.45 5.8 10.65 6.95 10.9" fill="#3a2d2b" fill-rule="evenodd" stroke="none"/>
      <path d="M12.95 5.85 L14.0 6.3 Q14.1 8.95 12.65 10.55 L12.6 10.6 12.7 10.45 12.45 10.6 11.2 10.9 11.05 10.9 Q12.3 10.4 12.9 8.95 L13.3 7.4 Q13.3 6.55 12.95 5.85 M2.4 8.45 L2.35 8.35 2.2 7.8 Q1.75 6.05 2.8 5.35 3.4 4.85 5.0 4.85 3.9 6.1 4.05 7.4 4.3 9.25 6.95 10.9 L5.8 10.65 Q3.05 9.4 2.4 8.45" fill="#ffffff" fill-rule="evenodd" stroke="none"/>
      <path d="M13.5 4.2 Q11.15 3.35 7.5 3.4" fill="none" stroke="#3a2d2b" stroke-linecap="round" stroke-linejoin="round" stroke-width="0.15000000000000002"/>
    </g>
    <g id="sprite0" transform="matrix(1.0, 0.0, 0.0, 1.0, 0.0, 0.0)">
      <use ffdec:characterId="2" height="9.15" transform="matrix(1.0, 0.0, 0.0, 1.0, 0.0, 0.0)" width="9.25" xlink:href="#shape1"/>
    </g>
    <g id="shape1" transform="matrix(1.0, 0.0, 0.0, 1.0, 0.0, 0.0)">
      <path d="M5.25 9.15 L2.9 8.9 Q0.25 6.45 0.0 3.75 -0.15 1.85 0.95 0.0 3.15 -0.05 7.35 0.95 L8.9 1.5 Q9.25 2.55 9.25 3.75 L8.85 6.05 Q8.25 8.15 7.0 8.85 L6.9 8.9 5.25 9.15" fill="#9f3a81" fill-rule="evenodd" stroke="none"/>
    </g>
    <g id="shape2" transform="matrix(1.0, 0.0, 0.0, 1.0, -2.05, -4.85)">
      <path d="M10.75 10.95 L9.3 11.1 7.0 10.95 Q2.35 7.95 5.0 4.85 L11.4 5.5 12.95 5.85 Q13.65 7.35 12.9 8.95 12.2 10.55 10.75 10.95" fill="url(#gradient0)" fill-rule="evenodd" stroke="none"/>
      <path d="M13.3 7.4 L10.25 6.95 10.15 6.9 10.1 6.9 10.1 6.95 10.15 6.95 10.15 7.0 10.2 7.0 10.65 8.1 Q10.65 8.7 10.2 9.1 9.75 9.55 9.1 9.55 8.45 9.55 8.0 9.1 7.55 8.7 7.55 8.1 7.55 7.45 8.0 7.0 L8.25 6.85 7.95 6.85 4.05 7.4 Q3.9 6.15 5.0 4.85 L11.4 5.5 12.95 5.85 13.3 7.4" fill="#000000" fill-opacity="0.49803922" fill-rule="evenodd" stroke="none"/>
      <path d="M13.3 7.4 L10.25 6.95 10.15 6.9 10.1 6.9 10.1 6.95 10.15 6.95 10.15 7.0 10.2 7.0 10.65 8.1 Q10.65 8.7 10.2 9.1 9.75 9.55 9.1 9.55 8.45 9.55 8.0 9.1 7.55 8.7 7.55 8.1 7.55 7.45 8.0 7.0 L8.25 6.85 7.95 6.85 4.05 7.4 Q3.9 6.15 5.0 4.85 L11.4 5.5 12.95 5.85 13.3 7.4" fill="url(#gradient1)" fill-rule="evenodd" stroke="none"/>
      <path d="M11.8 9.95 L11.5 10.4 10.8 10.45 10.1 10.05 9.8 9.5 Q9.8 9.15 10.1 9.05 L10.8 8.95 Q11.25 9.05 11.55 9.35 11.85 9.6 11.8 9.95 M7.1 5.3 Q7.6 5.5 7.6 6.05 7.6 6.55 7.1 7.05 6.6 7.55 5.95 7.7 L4.75 7.65 Q4.25 7.4 4.25 6.9 4.15 6.35 4.65 5.85 5.15 5.4 5.9 5.25 L7.1 5.3" fill="#ffffff" fill-rule="evenodd" stroke="none"/>
      <path d="M8.25 6.05 L8.5 5.8 8.95 5.7 9.25 5.85 9.35 6.15 9.1 6.35 8.7 6.4 8.3 6.3 8.25 6.05" fill="#ffffff" fill-opacity="0.6" fill-rule="evenodd" stroke="none"/>
      <path d="M14.0 6.3 L14.05 6.95 13.3 6.7 Q9.1 5.3 4.1 6.55 3.05 6.8 2.1 7.2 1.9 5.95 2.8 5.35 3.4 4.85 5.0 4.85 L11.4 5.5 12.95 5.85 14.0 6.3" fill="#000000" fill-opacity="0.29803923" fill-rule="evenodd" stroke="none"/>
    </g>
    <linearGradient gradientTransform="matrix(0.0, -0.0038, 0.0056, 0.0, 8.65, 8.0)" gradientUnits="userSpaceOnUse" id="gradient0" spreadMethod="pad" x1="-819.2" x2="819.2">
      <stop offset="0.0" stop-color="#000000" stop-opacity="0.49803922"/>
      <stop offset="1.0" stop-color="#000000" stop-opacity="0.0"/>
    </linearGradient>
    <linearGradient gradientTransform="matrix(0.0, -0.0029, 0.0056, 0.0, 8.65, 7.2)" gradientUnits="userSpaceOnUse" id="gradient1" spreadMethod="pad" x1="-819.2" x2="819.2">
      <stop offset="0.5529411764705883" stop-color="#000000" stop-opacity="0.0"/>
      <stop offset="1.0" stop-color="#000000" stop-opacity="0.49803922"/>
    </linearGradient>
  </defs>
</svg>
