<svg xmlns="http://www.w3.org/2000/svg" xmlns:ffdec="https://www.free-decompiler.com/flash" xmlns:xlink="http://www.w3.org/1999/xlink" ffdec:objectType="frame" width="15" height="11.75"><g transform="translate(-.25 .35)"><use ffdec:characterId="5" xlink:href="#a" width="15" height="8.05" transform="translate(.25 3.35)"/><use ffdec:characterId="3" xlink:href="#b" width="9.25" height="9.15" transform="matrix(1 0 0 .6831 4.05 4.85)"/><use ffdec:characterId="6" xlink:href="#c" width="12" height="6.25" transform="translate(2.05 4.85)"/></g><defs><linearGradient id="e" x1="-819.2" x2="819.2" gradientTransform="matrix(0 -.0038 .0056 0 8.65 8)" gradientUnits="userSpaceOnUse" spreadMethod="pad"><stop offset="0" stop-opacity=".498"/><stop offset="1" stop-opacity="0"/></linearGradient><linearGradient id="f" x1="-819.2" x2="819.2" gradientTransform="matrix(0 -.0029 .0056 0 8.65 7.2)" gradientUnits="userSpaceOnUse" spreadMethod="pad"><stop offset=".553" stop-opacity="0"/><stop offset="1" stop-opacity=".498"/></linearGradient><g id="a"><path fill="#3a2d2b" fill-rule="evenodd" d="m12.7 2.5-1.55-.35-6.4-.65q-1.6 0-2.2.5-1.05.7-.6 2.45L2.1 5l.05.1.25.6q-1.25-1-1.5-2l-.6.4q-.35-1.25.9-2.5l-1-.05L0 1.5Q1.9.55 6.55.75q4.3.15 8.4 1.15l-1.55.05q1.3.75 1.6 1.7l-1.25-.7zm-6 5.05 2.35.2 1.65-.2h.25l1.25-.3.25-.15-.1.15-.1.1-.55.25.8.05-1.5.15.4.2-.85-.1-2.85.05L6.5 8l.5-.15-1.45-.15.6-.05-1-.35-.25-.2.65.2z"/><path fill="#fff" fill-rule="evenodd" d="m12.7 2.5 1.05.45q.1 2.65-1.35 4.25l-.05.05.1-.15-.25.15-1.25.3h-.15q1.25-.5 1.85-1.95l.4-1.55q0-.85-.35-1.55M2.15 5.1 2.1 5l-.15-.55Q1.5 2.7 2.55 2q.6-.5 2.2-.5-1.1 1.25-.95 2.55.25 1.85 2.9 3.5L5.55 7.3Q2.8 6.05 2.15 5.1"/><path fill="none" stroke="#3a2d2b" stroke-linecap="round" stroke-linejoin="round" stroke-width=".15" d="M13.25.85q-2.35-.85-6-.8"/></g><g id="c" fill-rule="evenodd"><path fill="url(#e)" d="m10.75 10.95-1.45.15-2.3-.15q-4.65-3-2-6.1l6.4.65 1.55.35q.7 1.5-.05 3.1-.7 1.6-2.15 2" transform="translate(-2.05 -4.85)"/><path fill-opacity=".498" d="M11.25 2.55 8.2 2.1l-.1-.05h-.05v.05h.05v.05h.05l.45 1.1q0 .6-.45 1-.45.45-1.1.45t-1.1-.45q-.45-.4-.45-1 0-.65.45-1.1L6.2 2h-.3L2 2.55Q1.85 1.3 2.95 0l6.4.65L10.9 1z"/><path fill="url(#f)" d="m13.3 7.4-3.05-.45-.1-.05h-.05v.05h.05V7h.05l.45 1.1q0 .6-.45 1-.45.45-1.1.45T8 9.1q-.45-.4-.45-1 0-.65.45-1.1l.25-.15h-.3l-3.9.55Q3.9 6.15 5 4.85l6.4.65 1.55.35z" transform="translate(-2.05 -4.85)"/><path fill="#fff" d="m9.75 5.1-.3.45-.7.05-.7-.4-.3-.55q0-.35.3-.45l.7-.1q.45.1.75.4.3.25.25.6M5.05.45q.5.2.5.75 0 .5-.5 1t-1.15.65L2.7 2.8q-.5-.25-.5-.75-.1-.55.4-1.05.5-.45 1.25-.6z"/><path fill="#fff" fill-opacity=".6" d="m6.2 1.2.25-.25.45-.1.3.15.1.3-.25.2-.4.05-.4-.1z"/><path fill-opacity=".298" d="m11.95 1.45.05.65-.75-.25q-4.2-1.4-9.2-.15-1.05.25-2 .65Q-.15 1.1.75.5q.6-.5 2.2-.5l6.4.65L10.9 1z"/></g><path id="d" fill="#a30f0f" fill-rule="evenodd" d="M5.25 9.15 2.9 8.9Q.25 6.45 0 3.75-.15 1.85.95 0q2.2-.05 6.4.95l1.55.55q.35 1.05.35 2.25l-.4 2.3q-.6 2.1-1.85 2.8l-.1.05z"/><use ffdec:characterId="2" xlink:href="#d" id="b" width="9.25" height="9.15"/></defs></svg>