<svg xmlns="http://www.w3.org/2000/svg" xmlns:ffdec="https://www.free-decompiler.com/flash" xmlns:xlink="http://www.w3.org/1999/xlink" ffdec:objectType="frame" width="12.85" height="9.65"><use ffdec:characterId="3" xlink:href="#a" width="12.15" height="3.55" transform="translate(.7 4.1)"/><defs><g id="a" fill-rule="evenodd"><path d="M11.3.7 9.6 1.8l2.55-.65L9.7 2.6l-1.6.5-1.35.3-1 .15L4.6 3.5l-1.5-.2-.85-.2L2 2.95h-.1L.95 2.8l.5-.1h.05l-.35-.15H.8L.4 2.4l.5-.1-.1-.1h.15Q.2 2.15 0 1.75l.5.15-.4-.6 1.9.75.85.25-1.4-.8 1.5.6 1.95.4-.05.05 1-.05 1.75-.2 1.2-.4L11.3.65zm-7.65.6v-.05l.05.05z"/><path fill="#936440" d="m10.85 0 .15.05q-.5.6-1.9 1.15l-2.4.55q-.95-.05.35-.45z"/></g></defs></svg>