<?xml version="1.0" encoding="UTF-8" standalone="no"?>
<svg xmlns:ffdec="https://www.free-decompiler.com/flash" xmlns:xlink="http://www.w3.org/1999/xlink" ffdec:objectType="frame" height="11.75px" width="15.0px" xmlns="http://www.w3.org/2000/svg">
  <g transform="matrix(1.0, 0.0, 0.0, 1.0, 2.95, 0.35)">
    <use ffdec:characterId="22" height="11.75" transform="matrix(1.0, 0.0, 0.0, 1.0, -2.95, -0.35)" width="15.0" xlink:href="#shape0"/>
    <use ffdec:characterId="15" height="9.15" id="Color" transform="matrix(1.0, 0.0, 0.0, 1.0, -1.0, 1.8)" width="9.2" xlink:href="#sprite0"/>
    <use ffdec:characterId="23" height="9.15" transform="matrix(1.0, 0.0, 0.0, 1.0, -1.75, 1.8)" width="12.0" xlink:href="#shape2"/>
  </g>
  <defs>
    <g id="shape0" transform="matrix(1.0, 0.0, 0.0, 1.0, 2.95, 0.35)">
      <path d="M-1.75 4.0 L-2.95 5.0 Q-2.6 3.55 -1.35 2.45 L-2.9 2.4 Q1.2 0.95 5.5 0.7 10.15 0.45 12.05 1.85 L11.85 1.9 10.85 2.0 Q12.15 3.8 11.75 5.6 L11.15 5.05 Q10.9 6.5 9.65 8.0 L9.95 6.95 10.1 6.15 Q10.55 3.6 9.5 2.55 9.05 2.0 8.05 1.9 L7.3 1.8 7.25 1.8 Q5.0 1.7 0.9 2.75 0.15 2.9 -0.65 3.3 L-0.7 3.35 -0.7 3.3 -1.75 3.95 -1.75 4.0 M6.45 10.3 L7.1 10.0 6.85 10.3 5.85 10.8 6.45 10.9 5.0 11.15 5.5 11.35 4.3 11.25 1.45 11.2 0.6 11.35 1.0 11.05 -0.5 10.8 0.3 10.75 -0.25 10.35 -0.35 10.25 -0.45 10.05 -0.2 10.25 1.05 10.65 1.25 10.7 1.3 10.7 1.5 10.75 2.95 10.95 3.0 10.95 5.3 10.7 6.25 10.4 6.45 10.3" fill="#3a2d2b" fill-rule="evenodd" stroke="none"/>
      <path d="M-1.75 4.0 L-1.75 3.95 -0.7 3.3 -0.7 3.35 Q-1.05 4.35 -1.05 5.55 L-0.65 7.85 Q-0.05 9.95 1.2 10.65 L1.25 10.7 1.05 10.65 -0.2 10.25 -0.45 10.05 -0.35 10.25 -0.4 10.2 Q-1.85 7.8 -1.75 4.0 M7.25 1.8 L7.3 1.8 8.05 1.9 Q9.0 2.05 9.45 2.55 10.5 3.6 10.05 6.15 L9.9 6.95 9.85 7.1 Q9.2 8.45 6.45 10.3 L6.25 10.4 5.3 10.7 Q7.95 8.25 8.2 5.55 8.35 3.65 7.25 1.8" fill="#ffffff" fill-rule="evenodd" stroke="none"/>
      <path d="M-1.2 0.9 Q1.15 -0.4 4.8 -0.3" fill="none" stroke="#3a2d2b" stroke-linecap="round" stroke-linejoin="round" stroke-width="0.15000000000000002"/>
    </g>
    <g id="sprite0" transform="matrix(1.0, 0.0, 0.0, 1.0, 0.0, 0.0)">
      <use ffdec:characterId="14" height="9.15" transform="matrix(1.0, 0.0, 0.0, 1.0, 0.0, 0.0)" width="9.2" xlink:href="#shape1"/>
    </g>
    <g id="shape1" transform="matrix(1.0, 0.0, 0.0, 1.0, 0.0, 0.0)">
      <path d="M9.2 3.75 Q8.95 6.45 6.3 8.9 L4.0 9.15 3.95 9.15 2.5 8.95 Q1.1 8.3 0.4 6.05 0.05 4.85 0.0 3.75 0.0 2.6 0.35 1.5 L1.9 0.95 Q6.0 -0.1 8.25 0.0 9.35 1.85 9.2 3.75" fill="#9f3a81" fill-rule="evenodd" stroke="none"/>
    </g>
    <g id="shape2" transform="matrix(1.0, 0.0, 0.0, 1.0, 1.75, -1.8)">
      <path d="M0.9 2.75 Q5.05 1.7 7.3 1.8 9.95 6.35 5.3 10.75 L3.0 10.95 1.55 10.75 Q0.1 10.15 -0.6 7.85 -1.35 5.45 -0.65 3.3 0.15 2.9 0.9 2.75" fill="url(#gradient0)" fill-rule="evenodd" stroke="none"/>
      <path d="M7.3 1.8 Q8.4 3.7 8.25 5.55 6.35 4.85 4.35 4.75 L4.05 4.75 4.3 5.0 Q4.75 5.65 4.75 6.55 L4.3 8.05 Q3.85 8.7 3.2 8.7 2.55 8.7 2.1 8.05 1.65 7.45 1.65 6.55 1.65 5.65 2.1 5.0 L2.15 4.95 2.15 4.9 2.2 4.9 2.2 4.85 2.15 4.85 2.05 4.9 Q0.6 5.05 -1.0 5.55 L-0.65 3.3 Q0.15 2.9 0.9 2.75 5.05 1.7 7.3 1.8" fill="#000000" fill-opacity="0.49803922" fill-rule="evenodd" stroke="none"/>
      <path d="M7.3 1.8 Q8.4 3.7 8.25 5.55 6.35 4.85 4.35 4.75 L4.05 4.75 4.3 5.0 Q4.75 5.65 4.75 6.55 L4.3 8.05 Q3.85 8.7 3.2 8.7 2.55 8.7 2.1 8.05 1.65 7.45 1.65 6.55 1.65 5.65 2.1 5.0 L2.15 4.95 2.15 4.9 2.2 4.9 2.2 4.85 2.15 4.85 2.05 4.9 Q0.6 5.05 -1.0 5.55 L-0.65 3.3 Q0.15 2.9 0.9 2.75 5.05 1.7 7.3 1.8" fill="url(#gradient1)" fill-rule="evenodd" stroke="none"/>
      <path d="M2.2 2.85 Q2.7 3.15 2.7 3.95 L2.2 5.4 1.05 6.35 -0.15 6.25 Q-0.65 5.9 -0.65 5.15 -0.75 4.35 -0.25 3.65 0.25 2.95 1.0 2.75 L2.2 2.85 M4.6 8.45 Q4.6 7.95 4.9 7.8 L5.6 7.7 Q6.05 7.85 6.35 8.25 6.65 8.65 6.6 9.15 L6.3 9.8 5.6 9.85 4.9 9.3 Q4.6 8.85 4.6 8.45" fill="#ffffff" fill-rule="evenodd" stroke="none"/>
      <path d="M4.45 3.25 L4.55 3.65 4.3 4.0 3.9 4.05 3.5 3.9 Q3.4 3.75 3.45 3.5 L3.7 3.2 Q3.95 3.05 4.15 3.05 4.4 3.1 4.45 3.25" fill="#ffffff" fill-opacity="0.6" fill-rule="evenodd" stroke="none"/>
      <path d="M9.5 2.55 Q10.4 3.45 10.2 5.3 9.25 4.7 8.2 4.35 3.2 2.45 -1.0 4.5 L-1.75 4.9 -1.7 3.95 -0.65 3.3 Q0.15 2.9 0.9 2.75 5.05 1.7 7.3 1.8 8.9 1.85 9.5 2.55" fill="#000000" fill-opacity="0.29803923" fill-rule="evenodd" stroke="none"/>
    </g>
    <linearGradient gradientTransform="matrix(0.0, -0.0056, -0.0056, 0.0, 3.65, 6.4)" gradientUnits="userSpaceOnUse" id="gradient0" spreadMethod="pad" x1="-819.2" x2="819.2">
      <stop offset="0.09803921568627451" stop-color="#000000" stop-opacity="0.49803922"/>
      <stop offset="1.0" stop-color="#000000" stop-opacity="0.0"/>
    </linearGradient>
    <linearGradient gradientTransform="matrix(0.0, -0.0042, -0.0056, 0.0, 3.65, 5.25)" gradientUnits="userSpaceOnUse" id="gradient1" spreadMethod="pad" x1="-819.2" x2="819.2">
      <stop offset="0.5529411764705883" stop-color="#000000" stop-opacity="0.0"/>
      <stop offset="1.0" stop-color="#000000" stop-opacity="0.49803922"/>
    </linearGradient>
  </defs>
</svg>
