<?xml version="1.0" encoding="UTF-8" standalone="no"?>
<svg xmlns:ffdec="https://www.free-decompiler.com/flash" xmlns:xlink="http://www.w3.org/1999/xlink" ffdec:objectType="frame" height="12.65px" width="13.25px" xmlns="http://www.w3.org/2000/svg">
  <g transform="matrix(1.0, 0.0, 0.0, 1.0, 3.25, 1.45)">
    <use ffdec:characterId="8" height="8.25" transform="matrix(1.0, 0.0, 0.0, 1.0, -2.45, 2.95)" width="12.4" xlink:href="#shape0"/>
  </g>
  <defs>
    <g id="shape0" transform="matrix(1.0, 0.0, 0.0, 1.0, 2.45, -2.95)">
      <path d="M2.35 4.5 L5.0 4.3 Q7.1 4.3 8.45 5.65 9.5 6.65 9.5 7.7 L9.0 9.1 Q8.45 10.25 7.8 10.55 L6.7 10.9 4.85 11.2 2.85 11.2 1.5 11.0 Q-0.2 10.8 -1.35 9.65 -2.45 8.55 -2.45 7.4 -2.45 6.5 -1.95 5.9 L-1.15 5.25 Q-0.35 4.7 0.2 4.7 L1.0 4.4 Q1.45 4.25 1.45 4.6 L1.35 4.75 2.35 4.5 M0.85 5.35 L0.7 5.6 0.85 5.4 0.85 5.35 M3.6 5.55 Q2.65 5.55 1.55 6.0 L0.5 6.5 0.1 6.35 -0.35 6.85 0.35 7.75 0.5 7.6 0.8 7.5 1.85 8.15 2.6 9.1 3.2 10.4 4.45 9.95 5.35 9.55 5.95 9.3 6.05 9.3 Q6.2 9.2 6.3 9.15 L6.9 8.75 6.95 8.55 7.05 8.1 6.3 6.7 6.25 6.4 Q6.2 6.15 5.75 6.0 L4.7 5.75 3.6 5.55 M0.0 8.25 Q-0.3 7.75 -0.65 7.65 L-0.7 7.9 Q-0.7 9.1 0.65 10.0 L0.8 9.95 1.75 10.25 2.6 10.45 Q2.5 9.35 0.9 8.0 L0.85 8.0 Q0.85 8.75 0.45 8.75 L0.0 8.25" fill="#f5f5f5" fill-rule="evenodd" stroke="none"/>
      <path d="M2.1 3.1 L0.2 3.6 -0.95 3.95 -2.4 4.6 -2.3 4.35 -1.75 3.65 Q-1.35 3.2 -0.25 3.0 L2.1 3.1" fill="#000000" fill-opacity="0.2" fill-rule="evenodd" stroke="none"/>
      <path d="M6.4 5.8 Q7.75 6.75 7.8 8.0 7.85 9.25 6.55 10.25 5.2 11.2 3.2 11.15 1.15 11.05 0.0 10.25 -1.15 9.35 -1.15 8.05 -1.2 6.8 0.1 5.9 1.45 5.0 3.2 4.9 5.05 4.85 6.4 5.8" fill="#2d8cbf" fill-rule="evenodd" stroke="none"/>
      <path d="M6.9 8.05 Q6.95 9.1 5.9 9.85 4.8 10.5 3.4 10.6 1.9 10.7 0.8 9.9 -0.3 9.15 -0.35 8.1 -0.4 7.1 0.7 6.3 1.8 5.5 3.4 5.55 5.05 5.65 6.0 6.3 6.9 7.0 6.9 8.05" fill="url(#gradient0)" fill-rule="evenodd" stroke="none"/>
      <path d="M4.75 6.8 Q5.3 7.2 5.4 7.85 5.4 8.45 4.8 9.0 4.25 9.4 3.45 9.4 2.65 9.5 2.05 9.0 1.45 8.65 1.4 8.0 1.4 7.35 2.0 6.9 2.55 6.45 3.35 6.4 4.15 6.45 4.75 6.8" fill="url(#gradient1)" fill-rule="evenodd" stroke="none"/>
      <path d="M-2.0 6.1 L-1.5 5.8 Q-1.0 5.55 -0.5 5.35 L0.55 4.95 1.45 4.7 3.0 4.55 4.65 4.65 6.45 5.05 Q7.35 5.35 7.9 5.85 L8.65 6.75 8.9 7.6 8.85 8.55 8.1 9.95 Q8.35 8.55 7.0 7.45 5.65 6.35 2.9 6.0 L-2.1 6.2 -2.0 6.1" fill="#000000" fill-opacity="0.2" fill-rule="evenodd" stroke="none"/>
      <path d="M-2.0 6.1 L-2.3 6.3 Q-2.15 5.75 -1.65 5.25 -1.2 4.8 -0.05 4.4 1.05 4.0 1.65 3.95 L2.8 3.75 3.7 3.75 4.55 3.75 5.8 3.95 6.85 4.15 7.85 4.55 8.95 5.15 9.6 6.0 9.95 6.95 9.9 8.0 9.15 9.45 7.45 10.75 8.1 9.95 8.85 8.55 8.9 7.6 8.65 6.75 7.9 5.85 Q7.35 5.35 6.45 5.05 L4.65 4.65 3.0 4.55 1.45 4.7 0.55 4.95 -0.5 5.35 Q-1.0 5.55 -1.5 5.8 L-2.0 6.1" fill="#333333" fill-rule="evenodd" stroke="none"/>
      <path d="M3.05 6.6 L3.45 6.5 3.9 6.6 4.05 6.85 3.9 7.15 3.45 7.25 3.05 7.15 2.85 6.85 3.05 6.6" fill="#ffffff" fill-opacity="0.49803922" fill-rule="evenodd" stroke="none"/>
      <path d="M1.6 8.6 L1.6 8.55 Q2.25 9.45 3.35 9.45 4.4 9.45 4.85 9.05 L5.35 8.35 5.4 8.55 Q5.4 9.0 4.85 9.45 4.3 9.85 3.5 9.85 L2.15 9.5 Q1.6 9.15 1.6 8.6" fill="#ffffff" fill-opacity="0.4392157" fill-rule="evenodd" stroke="none"/>
      <path d="M6.6 5.6 L7.05 6.2 Q7.2 6.55 6.85 6.85 L5.85 7.1 4.7 6.75 Q4.3 6.5 4.4 6.15 4.4 5.75 4.85 5.5 L5.7 5.3 6.6 5.6" fill="#ffffff" fill-rule="evenodd" stroke="none"/>
    </g>
    <linearGradient color-interpolation="linearRGB" gradientTransform="matrix(0.0, 0.0031, -0.0044, 0.0, 3.3, 8.05)" gradientUnits="userSpaceOnUse" id="gradient0" spreadMethod="pad" x1="-819.2" x2="819.2">
      <stop offset="0.0" stop-color="#000000" stop-opacity="0.0"/>
      <stop offset="1.0" stop-color="#ffffff" stop-opacity="0.49803922"/>
    </linearGradient>
    <linearGradient gradientTransform="matrix(-1.0E-4, -0.0019, 0.0023, 0.0, 3.5, 7.9)" gradientUnits="userSpaceOnUse" id="gradient1" spreadMethod="pad" x1="-819.2" x2="819.2">
      <stop offset="0.0" stop-color="#000000" stop-opacity="0.06666667"/>
      <stop offset="1.0" stop-color="#000000" stop-opacity="0.49803922"/>
    </linearGradient>
  </defs>
</svg>
