<?xml version="1.0" encoding="UTF-8" standalone="no"?>
<svg xmlns:ffdec="https://www.free-decompiler.com/flash" xmlns:xlink="http://www.w3.org/1999/xlink" ffdec:objectType="frame" height="12.2px" width="13.95px" xmlns="http://www.w3.org/2000/svg">
  <g transform="matrix(1.0, 0.0, 0.0, 1.0, -1.35, 0.65)">
    <use ffdec:characterId="6" height="3.3" transform="matrix(1.0, 0.0, 0.0, 1.0, 2.2, 6.3)" width="13.1" xlink:href="#shape0"/>
  </g>
  <defs>
    <g id="shape0" transform="matrix(1.0, 0.0, 0.0, 1.0, -2.2, -6.3)">
      <path d="M14.1 7.15 L14.35 7.15 14.35 7.2 10.7 7.8 10.45 7.85 8.1 7.85 5.55 7.35 4.35 6.9 9.75 7.45 14.1 7.15" fill="#5d2900" fill-opacity="0.29803923" fill-rule="evenodd" stroke="none"/>
      <path d="M14.25 7.9 L13.2 8.4 13.35 8.35 11.95 8.95 8.6 9.6 5.85 9.25 5.2 9.25 5.05 9.25 5.6 9.15 5.05 9.2 4.9 9.2 4.4 9.1 3.95 8.85 4.25 8.85 4.9 8.75 4.65 8.6 4.15 8.65 3.55 8.55 3.1 8.3 4.1 8.25 3.85 8.05 3.6 8.05 2.2 7.8 3.4 7.65 2.2 6.3 3.15 7.1 3.6 7.3 Q5.4 8.1 7.8 8.35 L15.3 7.5 13.35 8.35 14.25 7.9" fill="#513624" fill-rule="evenodd" stroke="none"/>
    </g>
  </defs>
</svg>
