<svg xmlns="http://www.w3.org/2000/svg" xmlns:ffdec="https://www.free-decompiler.com/flash" xmlns:xlink="http://www.w3.org/1999/xlink" ffdec:objectType="frame" width="12.45" height="8.3"><use ffdec:characterId="1" xlink:href="#a" width="12.4" height="8.3"/><defs><radialGradient id="b" cx="0" cy="0" r="819.2" gradientTransform="translate(10.1 6.95)scale(.0041)" gradientUnits="userSpaceOnUse" spreadMethod="pad"><stop offset="0" stop-color="#fff" stop-opacity=".329"/><stop offset=".737" stop-color="#fff" stop-opacity="0"/></radialGradient><g id="a"><path fill="#fff" fill-rule="evenodd" d="M1.45 5q1.4-.75 2.9-1.1l4 .15q1.8.55 2.7 1.7l-.65 1.2-.15.15-.4.15-.9.5-1.4.25-.65.2q-2.15-.25-3.15-.85l-.85-.6-.1.05-.25-.25-.3-.4-.4-.3H1.8z"/><path fill="#c4c4c4" fill-rule="evenodd" d="m1.45 5-.4-1.3q0-.75 1.3-1.55 1.6-1 4.05-1 2.35 0 3.55 1.2L11.55 4q-.05.85-.5 1.75-.9-1.15-2.7-1.7l-4-.15q-1.5.35-2.9 1.1"/><path fill="#a30f0f" fill-rule="evenodd" d="M9.4 5.8q-.9 1.5-2.6 1.5-1.65 0-2.3-.65-.55-.6-.75-1.15l-.2-1.15.05-.6q.1-1.1.7-1.75.65-.7 1.95-.65L8 1.7l.85.5.55.45q.5 1 .35 2z"/><path fill="#4d0000" fill-rule="evenodd" d="m7.45 6.4-.7.25q-.95.2-1.45-.25l-.8-1.15q-.25-.75.3-2.05l-.1.95-.05-.1q.25 1.15.95 1.6.7.4 1.75 0 1.1-.45 1-1.45l-.05-.95.25.5q.5 1.85-1.1 2.65"/><path fill="url(#b)" fill-rule="evenodd" d="M10.1 9.55q-1.05 0-1.85-.75Q7.5 8 7.5 6.95t.75-1.8q.8-.8 1.85-.8t1.85.8q.75.75.75 1.8t-.75 1.85q-.8.75-1.85.75" transform="translate(-3.4 -2.4)"/><path fill-opacity=".298" fill-rule="evenodd" d="m8 1.7.85.5.55.45q.5 1 .35 2Q8.5 3.8 6.6 3.8l-3 .1v-.15q.1-1.1.7-1.75.65-.7 1.95-.65z"/><path fill="#311200" fill-rule="evenodd" d="m12.15 4.75-2.1-1.65-1.1-.7q-1.45-.65-2.3-.7l-1.75.15q-.9.15-1.55.5L3 2.6l-.35.2q-1.2.9-1.1 1.5l.5 1.4q.45.8-.25.15L.6 4.7q-.55-.5-.55-.9l1.7-1.7Q2.9.95 4.4.75L7 .6q1.1.05 2.2.65t1.65 1.35l.7 1.15zM8.65 7.9l-.9.25-1.65.15-1.4-.25Q4 7.75 2.75 6.9l-.05-.1-.15-.2.05-.1 1.05.6q1.3.6 2.5.65l-.6.05q3.4 0 4.8-.8-.55.55-1.7.9"/><path fill="none" stroke="#2e1200" stroke-linecap="round" stroke-linejoin="round" stroke-width=".2" d="M12.3 3.2Q11.35 1.95 9.75 1l-.9-.45Q5.7-.5 2.3 1q-.75.35-2.2 1.85"/><path fill="#fff" fill-rule="evenodd" d="M9.65 5.1q-.3 0-.5-.2L9 4.65q0-.35.5-.25t.5.35zm.1.55-.3.15-.25-.1v-.3h.2zM4.4 3.9q.95-.15 1 .45l-.3 1-.95.25q-.65-.1-.65-.65 0-.95.9-1.05m2 1.2q.45 0 .45.35l-.2.45-.5.2q-.35 0-.35-.3 0-.7.6-.7"/></g></defs></svg>