<?xml version="1.0" encoding="UTF-8" standalone="no"?>
<svg xmlns:ffdec="https://www.free-decompiler.com/flash" xmlns:xlink="http://www.w3.org/1999/xlink" ffdec:objectType="frame" height="8.3px" width="12.45px" xmlns="http://www.w3.org/2000/svg">
  <g transform="matrix(1.0, 0.0, 0.0, 1.0, -3.4, -2.4)">
    <use ffdec:characterId="2" height="5.95" transform="matrix(1.0, 0.0, 0.0, 1.0, 3.4, 4.75)" width="12.4" xlink:href="#shape0"/>
  </g>
  <defs>
    <g id="shape0" transform="matrix(1.0, 0.0, 0.0, 1.0, -3.4, -4.75)">
      <path d="M4.85 8.35 Q6.25 7.8 7.75 7.55 L11.75 7.65 Q13.55 8.05 14.45 8.85 L13.8 9.7 13.65 9.85 13.25 9.95 Q12.55 10.15 12.35 10.3 L10.95 10.45 10.3 10.6 7.15 10.0 6.3 9.6 6.2 9.6 5.95 9.45 5.65 9.15 5.25 8.95 5.2 8.95 4.85 8.35" fill="#ffffff" fill-rule="evenodd" stroke="none"/>
      <path d="M4.85 8.35 L4.45 7.4 Q4.45 6.85 5.75 6.3 7.35 5.6 9.8 5.6 12.15 5.6 13.35 6.45 L14.95 7.6 Q14.9 8.2 14.45 8.85 13.55 8.05 11.75 7.65 L7.75 7.55 Q6.25 7.8 4.85 8.35" fill="#c4c4c4" fill-rule="evenodd" stroke="none"/>
      <path d="M12.8 8.9 Q11.9 9.95 10.2 9.95 8.55 9.95 7.9 9.5 7.35 9.1 7.15 8.7 L6.95 7.85 7.0 7.45 Q7.1 6.65 7.7 6.2 8.35 5.7 9.65 5.75 L11.4 5.95 12.25 6.35 12.8 6.65 Q13.3 7.35 13.15 8.1 L12.8 8.9" fill="#a30f0f" fill-rule="evenodd" stroke="none"/>
      <path d="M10.85 9.35 L10.15 9.5 8.7 9.35 7.9 8.5 Q7.65 7.95 8.2 7.05 L8.1 7.7 8.05 7.65 Q8.3 8.45 9.0 8.8 9.7 9.1 10.75 8.8 11.85 8.45 11.75 7.75 L11.7 7.1 11.95 7.45 Q12.45 8.75 10.85 9.35" fill="#4d0000" fill-rule="evenodd" stroke="none"/>
      <path d="M10.1 9.85 Q9.05 9.85 8.25 9.35 7.5 8.75 7.5 8.0 7.5 7.25 8.25 6.7 9.05 6.15 10.1 6.15 11.15 6.15 11.95 6.7 12.7 7.25 12.7 8.0 12.7 8.75 11.95 9.35 L10.1 9.85" fill="url(#gradient0)" fill-rule="evenodd" stroke="none"/>
      <path d="M11.4 5.95 L12.25 6.35 12.8 6.65 Q13.3 7.35 13.15 8.1 11.9 7.45 10.0 7.45 L7.0 7.55 7.0 7.45 Q7.1 6.65 7.7 6.2 8.35 5.7 9.65 5.75 L11.4 5.95" fill="#000000" fill-opacity="0.29803923" fill-rule="evenodd" stroke="none"/>
      <path d="M15.55 8.15 L13.45 6.95 12.35 6.45 10.05 5.95 8.3 6.1 6.75 6.45 Q6.55 6.45 6.4 6.6 L6.05 6.75 Q4.85 7.4 4.95 7.85 L5.45 8.85 Q5.9 9.4 5.2 8.95 L4.0 8.1 Q3.45 7.75 3.45 7.45 L5.15 6.25 Q6.3 5.45 7.8 5.3 L10.4 5.2 12.6 5.65 Q13.7 6.1 14.25 6.6 L14.95 7.45 15.55 8.15 M12.05 10.4 L11.15 10.6 9.5 10.7 8.1 10.5 6.15 9.7 6.1 9.6 5.95 9.45 6.0 9.4 7.05 9.85 9.55 10.3 8.95 10.35 Q12.35 10.35 13.75 9.75 L12.05 10.4" fill="#311200" fill-rule="evenodd" stroke="none"/>
      <path d="M15.7 7.05 Q14.75 6.15 13.15 5.5 L12.25 5.15 Q9.1 4.4 5.7 5.5 L3.5 6.8" fill="none" stroke="#2e1200" stroke-linecap="round" stroke-linejoin="round" stroke-width="0.2"/>
      <path d="M13.15 8.8 L12.85 8.9 12.6 8.85 12.6 8.6 12.8 8.6 13.15 8.8 M13.05 8.4 L12.55 8.25 12.4 8.1 Q12.4 7.85 12.9 7.9 13.4 7.95 13.4 8.15 L13.05 8.4 M9.8 8.4 Q10.25 8.4 10.25 8.65 L10.05 8.95 9.55 9.1 9.2 8.9 Q9.2 8.4 9.8 8.4 M7.8 7.55 Q8.75 7.45 8.8 7.85 L8.5 8.6 7.55 8.75 Q6.9 8.7 6.9 8.3 6.9 7.6 7.8 7.55" fill="#ffffff" fill-rule="evenodd" stroke="none"/>
    </g>
    <radialGradient cx="0" cy="0" gradientTransform="matrix(0.0041, 0.0, 0.0, 0.0029, 10.1, 8.0)" gradientUnits="userSpaceOnUse" id="gradient0" r="819.2" spreadMethod="pad">
      <stop offset="0.0" stop-color="#ffffff" stop-opacity="0.3254902"/>
      <stop offset="0.7372549019607844" stop-color="#ffffff" stop-opacity="0.0"/>
    </radialGradient>
  </defs>
</svg>
