<?xml version="1.0" encoding="UTF-8" standalone="no"?>
<svg xmlns:ffdec="https://www.free-decompiler.com/flash" xmlns:xlink="http://www.w3.org/1999/xlink" ffdec:objectType="frame" height="11.05px" width="14.0px" xmlns="http://www.w3.org/2000/svg">
  <g transform="matrix(1.0, 0.0, 0.0, 1.0, -2.2, 0.1)">
    <use ffdec:characterId="10" height="8.25" transform="matrix(1.0, 0.0, 0.0, 1.0, 2.2, 2.7)" width="14.0" xlink:href="#shape0"/>
    <clipPath id="clipPath0" transform="matrix(1.0, 0.0, 0.0, 0.7442, 0.0, 2.8)">
      <path d="M7.65 3.55 Q8.55 2.7 9.8 2.75 11.0 2.8 11.8 3.5 12.5 4.15 12.75 5.5 13.05 6.75 12.05 8.0 11.15 9.2 9.75 9.2 8.35 9.2 7.5 8.25 6.65 7.3 6.7 5.85 6.75 4.45 7.65 3.55" fill="#85003a" fill-rule="evenodd" stroke="none"/>
    </clipPath>
    <g clip-path="url(#clipPath0)">
      <use ffdec:characterId="11" height="6.3" transform="matrix(1.0, 0.0, 0.0, 1.0, 6.0, 4.2)" width="7.45" xlink:href="#shape2"/>
    </g>
    <use ffdec:characterId="6" height="3.6" transform="matrix(1.0, 0.0, 0.0, 0.75, 9.35, 6.2375)" width="4.55" xlink:href="#shape3"/>
  </g>
  <defs>
    <g id="shape0" transform="matrix(1.0, 0.0, 0.0, 1.0, -2.2, -2.7)">
      <path d="M14.65 5.65 Q15.15 7.2 14.8 8.35 14.4 9.4 13.3 10.15 12.2 10.9 8.45 10.85 6.4 10.05 5.65 9.5 L4.55 8.4 2.6 5.95 2.6 5.65 2.75 5.35 Q3.85 4.25 5.7 4.1 L9.75 3.85 11.65 4.05 Q13.8 4.55 14.65 5.65" fill="#ffffff" fill-rule="evenodd" stroke="none"/>
      <path d="M11.6 4.6 L12.05 4.55 13.05 4.85 13.8 5.25 14.15 5.35 Q14.4 5.35 14.55 5.5 L14.7 5.8 14.8 6.0 14.95 6.9 14.95 7.1 14.05 6.75 13.1 6.6 12.8 6.65 Q11.4 6.1 10.7 6.0 L7.7 6.05 Q6.05 6.35 4.7 7.0 L5.05 8.0 Q5.65 9.15 6.95 10.25 L6.95 10.3 5.95 10.0 4.95 9.25 4.5 8.75 4.5 8.7 3.9 7.45 3.7 7.55 Q3.3 7.55 3.3 7.2 L3.45 6.95 3.25 6.65 2.95 6.35 2.75 6.15 3.2 5.6 3.25 5.3 Q3.45 5.05 4.2 5.05 L5.55 4.55 7.15 4.25 Q7.95 4.1 10.0 4.25 L10.95 4.45 11.6 4.6" fill="#000000" fill-opacity="0.2" fill-rule="evenodd" stroke="none"/>
      <path d="M14.75 4.75 L16.1 5.75 14.25 5.05 Q15.65 6.15 16.05 6.8 13.05 4.65 9.4 4.4 L6.45 4.7 4.55 5.15 4.3 5.25 4.25 5.25 Q3.65 5.4 3.65 6.05 L3.7 6.35 3.7 6.45 3.95 7.1 4.2 7.65 4.95 9.0 5.7 9.7 5.65 9.7 4.55 9.05 3.75 8.25 2.5 5.8 2.4 5.8 2.5 5.75 2.35 5.5 2.25 5.5 2.25 5.35 2.2 5.1 2.3 4.95 2.45 4.9 2.7 4.75 3.0 4.65 3.05 4.6 3.65 4.45 4.7 4.15 Q7.65 3.3 9.45 3.45 L12.55 3.9 Q13.85 4.25 14.75 4.75 M10.85 10.65 L11.6 10.6 12.35 10.5 12.4 10.45 12.45 10.45 12.7 10.45 12.95 10.4 12.75 10.6 12.25 10.75 11.45 10.9 9.65 10.95 9.6 10.95 7.85 10.75 7.6 10.6 9.8 10.6 10.45 10.65 10.85 10.65" fill="#2e1200" fill-rule="evenodd" stroke="none"/>
      <path d="M7.4 2.8 Q11.6 2.6 14.85 4.45 L16.1 5.2" fill="none" stroke="#2e1200" stroke-linecap="round" stroke-linejoin="round" stroke-width="0.2"/>
      <path d="M12.25 4.95 Q13.15 5.55 13.45 6.8 13.8 7.95 12.65 9.1 11.5 10.2 9.75 10.2 8.0 10.2 6.95 9.3 5.9 8.45 5.95 7.1 6.05 5.8 7.15 5.05 8.25 4.2 9.8 4.3 11.35 4.35 12.25 4.95" fill="#2e1200" fill-rule="evenodd" stroke="none"/>
      <path d="M7.6 5.45 Q8.5 4.8 9.75 4.85 11.0 4.9 11.75 5.4 12.45 5.9 12.7 6.85 13.0 7.8 12.05 8.75 11.15 9.65 9.7 9.65 8.3 9.65 7.45 8.95 6.6 8.25 6.65 7.15 6.7 6.05 7.6 5.45" fill="#914f00" fill-rule="evenodd" stroke="none"/>
    </g>
    <g id="shape2" transform="matrix(1.0, 0.0, 0.0, 1.0, -6.0, -4.2)">
      <path d="M13.4 7.7 Q13.15 9.1 11.95 9.85 10.7 10.65 9.05 10.45 L8.9 10.45 8.75 10.45 Q7.15 10.2 6.5 9.4 5.8 8.5 6.1 7.25 6.4 6.0 7.05 5.15 7.8 4.3 9.45 4.2 11.05 4.05 12.35 5.2 13.65 6.2 13.4 7.7" fill="url(#gradient0)" fill-rule="evenodd" stroke="none"/>
      <path d="M12.25 7.3 L12.15 7.35 12.25 7.25 12.25 7.3 M10.3 5.95 L10.25 5.9 10.15 5.75 10.45 5.45 10.6 5.45 10.6 5.8 10.3 5.95 M12.15 7.0 L11.9 7.25 11.3 7.4 11.15 7.4 11.2 7.1 12.05 6.9 12.15 7.0 M7.9 7.5 L7.9 7.65 7.55 7.75 7.2 7.65 7.4 7.45 7.9 7.5 M8.9 5.45 L9.15 5.55 9.35 5.8 9.3 5.9 8.85 5.55 8.9 5.45 M7.5 5.85 L7.55 5.75 7.6 5.75 8.25 5.9 8.3 6.1 7.9 6.25 7.5 5.85 M10.9 7.3 L10.9 7.4 10.5 8.05 9.6 8.4 Q9.05 8.4 8.7 8.05 L8.3 7.3 Q8.3 6.9 8.7 6.55 9.05 6.2 9.6 6.2 10.1 6.2 10.5 6.55 10.9 6.9 10.9 7.3 M11.2 6.4 L11.0 6.3 11.2 6.1 11.75 6.25 11.2 6.4 M7.9 6.8 L7.85 6.95 7.55 7.0 7.15 6.9 7.0 6.85 7.0 6.8 6.9 6.7 6.95 6.6 7.05 6.5 7.65 6.6 7.9 6.8" fill="#000000" fill-opacity="0.29803923" fill-rule="evenodd" stroke="none"/>
      <path d="M11.75 9.05 L11.7 9.55 Q11.1 10.15 8.8 10.15 7.2 10.15 7.35 8.95 7.6 7.7 9.45 7.65 11.35 7.55 11.75 9.05" fill="#ffffff" fill-opacity="0.29803923" fill-rule="evenodd" stroke="none"/>
    </g>
    <linearGradient gradientTransform="matrix(-6.0E-4, 0.0038, 0.0047, 4.0E-4, 9.5, 7.3)" gradientUnits="userSpaceOnUse" id="gradient0" spreadMethod="pad" x1="-819.2" x2="819.2">
      <stop offset="0.0" stop-color="#000000" stop-opacity="0.6313726"/>
      <stop offset="1.0" stop-color="#ffffff" stop-opacity="0.0"/>
    </linearGradient>
    <g id="shape3" transform="matrix(1.0, 0.0, 0.0, 1.0, -9.35, -4.65)">
      <path d="M12.35 5.0 Q12.35 5.4 12.0 5.4 L11.7 5.2 11.65 5.0 Q11.65 4.65 12.0 4.65 12.35 4.65 12.35 5.0 M9.9 7.0 Q10.45 7.1 10.5 7.6 10.5 8.15 9.9 8.15 9.25 8.15 9.35 7.6 9.35 6.9 9.9 7.0" fill="#ffffff" fill-rule="evenodd" stroke="none"/>
      <path d="M10.95 7.05 Q10.95 5.75 12.4 6.35 13.9 6.85 13.9 7.65 13.9 8.25 12.95 8.25 11.0 8.25 10.95 7.05" fill="#ffffff" fill-opacity="0.67058825" fill-rule="evenodd" stroke="none"/>
    </g>
  </defs>
</svg>
