<svg xmlns="http://www.w3.org/2000/svg" xmlns:ffdec="https://www.free-decompiler.com/flash" xmlns:xlink="http://www.w3.org/1999/xlink" ffdec:objectType="frame" width="12.6" height="10.1"><g transform="translate(-1.95 -1.75)"><use ffdec:characterId="1" xlink:href="#a" width="10.65" height="6.3" transform="translate(3.45 4.65)"/><use ffdec:characterId="3" xlink:href="#b" width="12.5" height="9.65" transform="matrix(-1 0 0 1 14.55 1.75)"/><use ffdec:characterId="4" xlink:href="#c" width="12.5" height="9.65" transform="translate(2.05 1.75)"/></g><defs><linearGradient id="f" x1="-819.2" x2="819.2" gradientTransform="matrix(0 .0045 .0045 0 5.35 5.45)" gradientUnits="userSpaceOnUse" spreadMethod="pad"><stop offset="0" stop-color="#073c00"/><stop offset="1" stop-color="#65933b"/></linearGradient><linearGradient id="h" x1="-819.2" x2="819.2" gradientTransform="matrix(-.0076 0 0 -.0041 8.3 6.35)" gradientUnits="userSpaceOnUse" spreadMethod="pad"><stop offset="0" stop-opacity=".6"/><stop offset="1" stop-opacity=".902"/></linearGradient><linearGradient id="i" x1="-819.2" x2="819.2" gradientTransform="matrix(-.0034 0 0 .0009 11.2 2.5)" gradientUnits="userSpaceOnUse" spreadMethod="pad"><stop offset="0" stop-opacity=".6"/><stop offset="1" stop-opacity=".902"/></linearGradient><g id="a" fill-rule="evenodd"><path fill="#fff" d="M9.4.3V.25l.1.05.25.1.8.4.05.5v1.45Q10.35 4 9.4 5.35L9.65 4v-.25l.1-.45.1-.45.05-.35-.05-.65L9.5.3zM2.2 4.75l.9 1.55-2-1.25Q-.1 3.65 0 2.55L.9 1l.9-.35-.2.8-.1 1.45q.05.6.7 1.85"/><path d="m9.65 4-.15.4-.15-2.25L8.8 0l.6.3h.1l.35 1.55v.85l-.05.15-.05.45-.1.45V4M1.8.65 1.9.6l.45-.15Q1.9 1.65 1.9 2.7l.15.75.5 1.85-.35-.55Q1.55 3.5 1.5 2.9l.1-1.45z"/><path fill="url(#d)" d="M13.25 7.5h.05l-.1.45z" transform="translate(-3.45 -4.65)"/></g><g id="e" fill-rule="evenodd"><path fill="url(#f)" d="m.55 1.55.9-.65L2.9.1q1.55-.35 3.3.65L3.3.6l-1.7.5zm11.95 4.6-1.65 1.3-.85.5q1.2-1.4 1.1-2.5l-.9-1.55-.9-.35.2.8.1 1.45-.75 1.85L8 9.15l1.55-.7-1.5 1.2Q3.2 8.9.9 8.15l.9.15-.1-.05-.2-1.4-.05-.1-.1-.55-.05-.45h-.05L1.2 5.4l.05-.65q.05-.9.35-1.55l-.25.1L0 4.05l.05-1.2L1.3 2.1q1.6-.75 2.65-.85l3.4.4q2.35.6 3.95 1.8 1 1.3 1.2 2.7"/><path fill="url(#g)" d="M8.5 5.75q.85.55.65 1.25L8 9.2h-.1l-2.75-.35-3.4-.6-.45-2.5.2-.4q.25-.45.8-.55h.4l.45.7.2.55.15.65q.4.75 1.5.8l1.5-.15.55-.8.4-.55Q8 5.35 8.5 5.75"/></g><g id="c" fill-rule="evenodd"><path fill-opacity=".298" d="M8.65 4.1q-.5-.55-1.25-.6-.9-.05-1.6.55l-.45.6q-1.15.25-2.05.7.05-.95.45-2 2.7-.9 4.7-1.05l1.75.6.4 1.1zM2.9 5.55q-.75.35-1.35.85l-.1-.3L1.4 6v-.55l.9-1.55.9-.35-.2.8zm9.6-1.5H12L11.15 4l-.25-.8.1.05.15.05z"/><path d="m8.65 4.1.15.15q.55.55.6 1.25l-.2.55-.15.65q-.4.75-1.5.8l-1.5-.15-.55-.8L5.1 6v-.4l.25-.95.45-.6q.7-.6 1.6-.55.75.05 1.25.6M3.3 5.35v.25l.65 2.6q-1-1.7-1.05-2.4v-.25l.1-1.2.2-.8.15-.05.4-.15q-.4 1.05-.45 2M11.15 4l.1 1.6-.35 1.7-.3-3.3-.4-1.1.7.3z"/><path fill="url(#h)" d="M3.5 7.85q.2.85 1.05 1.85l-.85-.5-1.65-1.3q.2-1.4 1.2-2.7Q4.85 4 7.2 3.4l3.4-.4q1.05.1 2.65.85l1.25.75.05 1.2-1.35-.75-.15-.05-.1-.05-.7-.3-1.75-.6q-2 .15-4.7 1.05l-.4.15-.15.05-.9.35-.9 1.55v.55zm3.05 3.05 7.1-1q-2.3.75-7.15 1.5L5 10.2z" transform="translate(-2.05 -1.75)"/><path fill="url(#i)" d="m14 3.3-1.05-.45-1.7-.5-2.9.15q1.75-1 3.3-.65.5.1 1.45.8z" transform="translate(-2.05 -1.75)"/><path fill="#fff" d="m2.6 5.85-.45-.5q0-.3.45-.55l1.05-.15 1.05.15.4.55-.4.5-1.05.25z"/></g><radialGradient id="d" cx="0" cy="0" r="819.2" gradientTransform="rotate(-6.789 86.914 -74.785)scale(.0042)" gradientUnits="userSpaceOnUse" spreadMethod="pad"><stop offset=".282" stop-color="#f96477"/><stop offset="1" stop-color="#7f0c19"/></radialGradient><radialGradient id="g" cx="0" cy="0" r="819.2" gradientTransform="matrix(-.0042 -.0005 -.0005 .0042 5.15 8)" gradientUnits="userSpaceOnUse" spreadMethod="pad"><stop offset=".282" stop-color="#fc0" stop-opacity=".6"/><stop offset="1" stop-color="#e5c64c" stop-opacity=".2"/></radialGradient><use ffdec:characterId="2" xlink:href="#e" id="b" width="12.5" height="9.65"/></defs></svg>