<?xml version="1.0" encoding="UTF-8" standalone="no"?>
<svg xmlns:ffdec="https://www.free-decompiler.com/flash" xmlns:xlink="http://www.w3.org/1999/xlink" ffdec:objectType="frame" height="10.1px" width="12.6px" xmlns="http://www.w3.org/2000/svg">
  <g transform="matrix(1.0, 0.0, 0.0, 1.0, -1.95, -1.75)">
    <use ffdec:characterId="1" height="6.3" transform="matrix(1.0, 0.0, 0.0, 1.0, 3.45, 4.65)" width="10.65" xlink:href="#shape0"/>
    <use ffdec:characterId="3" height="9.65" transform="matrix(-1.0, 0.0, 0.0, 1.0, 14.55, 1.75)" width="12.5" xlink:href="#sprite0"/>
    <use ffdec:characterId="4" height="9.65" transform="matrix(1.0, 0.0, 0.0, 1.0, 2.05, 1.75)" width="12.5" xlink:href="#shape2"/>
  </g>
  <defs>
    <g id="shape0" transform="matrix(1.0, 0.0, 0.0, 1.0, -3.45, -4.65)">
      <path d="M12.85 4.95 L12.85 4.9 12.95 4.95 13.2 5.05 14.0 5.45 14.05 5.95 14.05 7.4 Q13.8 8.65 12.85 10.0 L13.1 8.65 13.1 8.6 13.1 8.5 13.1 8.4 13.2 7.95 13.3 7.5 13.35 7.15 13.3 6.5 12.95 4.95 12.85 4.95 M5.65 9.4 L6.55 10.95 4.55 9.7 Q3.35 8.3 3.45 7.2 L4.35 5.65 5.25 5.3 5.05 6.1 4.95 7.55 Q5.0 8.15 5.65 9.4" fill="#ffffff" fill-rule="evenodd" stroke="none"/>
      <path d="M13.1 8.65 L12.95 9.05 12.8 6.8 12.25 4.65 12.85 4.95 12.95 4.95 13.3 6.5 13.3 7.35 13.25 7.5 13.2 7.95 13.1 8.4 13.1 8.5 13.1 8.6 13.1 8.65 M5.25 5.3 L5.35 5.25 5.8 5.1 Q5.35 6.3 5.35 7.35 L5.5 8.1 6.0 9.95 5.65 9.4 Q5.0 8.15 4.95 7.55 L5.05 6.1 5.25 5.3" fill="#000000" fill-rule="evenodd" stroke="none"/>
      <path d="M13.25 7.5 L13.3 7.5 13.2 7.95 13.25 7.5" fill="url(#gradient0)" fill-rule="evenodd" stroke="none"/>
    </g>
    <radialGradient cx="0" cy="0" gradientTransform="matrix(0.0042, -5.0E-4, 5.0E-4, 0.0042, 9.45, 9.75)" gradientUnits="userSpaceOnUse" id="gradient0" r="819.2" spreadMethod="pad">
      <stop offset="0.2823529411764706" stop-color="#f96477"/>
      <stop offset="1.0" stop-color="#7f0c19"/>
    </radialGradient>
    <g id="sprite0" transform="matrix(1.0, 0.0, 0.0, 1.0, 0.0, 0.0)">
      <use ffdec:characterId="2" height="9.65" transform="matrix(1.0, 0.0, 0.0, 1.0, 0.0, 0.0)" width="12.5" xlink:href="#shape1"/>
    </g>
    <g id="shape1" transform="matrix(1.0, 0.0, 0.0, 1.0, 0.0, 0.0)">
      <path d="M0.55 1.55 L1.45 0.9 2.9 0.1 Q4.45 -0.25 6.2 0.75 L3.3 0.6 1.6 1.1 0.55 1.55 M12.5 6.15 L10.85 7.45 10.0 7.95 Q11.2 6.55 11.1 5.45 L10.2 3.9 9.3 3.55 9.5 4.35 9.6 5.8 8.85 7.65 8.0 9.15 9.55 8.45 8.05 9.65 Q3.2 8.9 0.9 8.15 L1.8 8.3 1.7 8.25 1.5 6.85 1.45 6.75 1.35 6.2 1.3 5.75 1.25 5.75 1.2 5.4 1.25 4.75 Q1.3 3.85 1.6 3.2 L1.35 3.3 0.0 4.05 0.05 2.85 1.3 2.1 Q2.9 1.35 3.95 1.25 L7.35 1.65 Q9.7 2.25 11.3 3.45 12.3 4.75 12.5 6.15" fill="url(#gradient1)" fill-rule="evenodd" stroke="none"/>
      <path d="M8.5 5.75 Q9.35 6.3 9.15 7.0 L8.0 9.2 7.9 9.2 5.15 8.85 1.75 8.25 1.3 5.75 1.5 5.35 Q1.75 4.9 2.3 4.8 L2.7 4.8 3.15 5.5 3.35 6.05 3.5 6.7 Q3.9 7.45 5.0 7.5 L6.5 7.35 7.05 6.55 7.45 6.0 Q8.0 5.35 8.5 5.75" fill="url(#gradient2)" fill-rule="evenodd" stroke="none"/>
    </g>
    <linearGradient gradientTransform="matrix(0.0, 0.0045, 0.0045, 0.0, 5.35, 5.45)" gradientUnits="userSpaceOnUse" id="gradient1" spreadMethod="pad" x1="-819.2" x2="819.2">
      <stop offset="0.0" stop-color="#073c00"/>
      <stop offset="1.0" stop-color="#65933b"/>
    </linearGradient>
    <radialGradient cx="0" cy="0" gradientTransform="matrix(-0.0042, -5.0E-4, -5.0E-4, 0.0042, 5.15, 8.0)" gradientUnits="userSpaceOnUse" id="gradient2" r="819.2" spreadMethod="pad">
      <stop offset="0.2823529411764706" stop-color="#ffcc00" stop-opacity="0.6"/>
      <stop offset="1.0" stop-color="#e5c64c" stop-opacity="0.2"/>
    </radialGradient>
    <g id="shape2" transform="matrix(1.0, 0.0, 0.0, 1.0, -2.05, -1.75)">
      <path d="M10.7 5.85 Q10.2 5.3 9.45 5.25 8.55 5.2 7.85 5.8 L7.4 6.4 Q6.25 6.65 5.35 7.1 5.4 6.15 5.8 5.1 8.5 4.2 10.5 4.05 L12.25 4.65 12.65 5.75 10.7 5.85 M4.95 7.3 Q4.2 7.65 3.6 8.15 L3.5 7.85 3.45 7.75 3.45 7.2 4.35 5.65 5.25 5.3 5.05 6.1 4.95 7.3 M14.55 5.8 L14.05 5.8 13.2 5.75 12.95 4.95 13.05 5.0 13.2 5.05 14.55 5.8" fill="#000000" fill-opacity="0.29803923" fill-rule="evenodd" stroke="none"/>
      <path d="M10.7 5.85 L10.85 6.0 Q11.4 6.55 11.45 7.25 L11.25 7.8 11.1 8.45 Q10.7 9.2 9.6 9.25 L8.1 9.1 7.55 8.3 7.15 7.75 7.15 7.35 7.4 6.4 7.85 5.8 Q8.55 5.2 9.45 5.25 10.2 5.3 10.7 5.85 M5.35 7.1 L5.35 7.35 6.0 9.95 Q5.0 8.25 4.95 7.55 L4.95 7.3 5.05 6.1 5.25 5.3 5.4 5.25 5.8 5.1 Q5.4 6.15 5.35 7.1 M13.2 5.75 L13.3 7.35 12.95 9.05 12.65 5.75 12.25 4.65 12.95 4.95 13.2 5.75" fill="#000000" fill-rule="evenodd" stroke="none"/>
      <path d="M3.5 7.85 Q3.7 8.7 4.55 9.7 L3.7 9.2 2.05 7.9 Q2.25 6.5 3.25 5.2 4.85 4.0 7.2 3.4 L10.6 3.0 Q11.65 3.1 13.25 3.85 L14.5 4.6 14.55 5.8 13.2 5.05 13.05 5.0 12.95 4.95 12.25 4.65 10.5 4.05 Q8.5 4.2 5.8 5.1 L5.4 5.25 5.25 5.3 4.35 5.65 3.45 7.2 3.45 7.75 3.5 7.85 M6.55 10.9 L13.65 9.9 Q11.35 10.65 6.5 11.4 L5.0 10.2 6.55 10.9" fill="url(#gradient3)" fill-rule="evenodd" stroke="none"/>
      <path d="M14.0 3.3 L12.95 2.85 11.25 2.35 8.35 2.5 Q10.1 1.5 11.65 1.85 12.15 1.95 13.1 2.65 L14.0 3.3" fill="url(#gradient4)" fill-rule="evenodd" stroke="none"/>
      <path d="M4.65 7.6 L4.2 7.1 Q4.2 6.8 4.65 6.55 L5.7 6.4 6.75 6.55 7.15 7.1 6.75 7.6 5.7 7.85 4.65 7.6" fill="#ffffff" fill-rule="evenodd" stroke="none"/>
    </g>
    <linearGradient gradientTransform="matrix(-0.0076, 0.0, 0.0, -0.0041, 8.3, 6.35)" gradientUnits="userSpaceOnUse" id="gradient3" spreadMethod="pad" x1="-819.2" x2="819.2">
      <stop offset="0.0" stop-color="#000000" stop-opacity="0.6"/>
      <stop offset="1.0" stop-color="#000000" stop-opacity="0.9019608"/>
    </linearGradient>
    <linearGradient gradientTransform="matrix(-0.0034, 0.0, 0.0, 9.0E-4, 11.2, 2.5)" gradientUnits="userSpaceOnUse" id="gradient4" spreadMethod="pad" x1="-819.2" x2="819.2">
      <stop offset="0.0" stop-color="#000000" stop-opacity="0.6"/>
      <stop offset="1.0" stop-color="#000000" stop-opacity="0.9019608"/>
    </linearGradient>
  </defs>
</svg>
