<?xml version="1.0" encoding="UTF-8" standalone="no"?>
<svg xmlns:ffdec="https://www.free-decompiler.com/flash" xmlns:xlink="http://www.w3.org/1999/xlink" ffdec:objectType="frame" height="10.1px" width="12.6px" xmlns="http://www.w3.org/2000/svg">
  <g transform="matrix(1.0, 0.0, 0.0, 1.0, -1.95, -1.75)">
    <use ffdec:characterId="5" height="2.05" transform="matrix(1.0, 0.0, 0.0, 1.0, 3.45, 9.3)" width="10.65" xlink:href="#shape0"/>
    <use ffdec:characterId="3" height="9.65" transform="matrix(-1.0, 0.0, 0.0, 0.3282, 14.55, 8.3)" width="12.5" xlink:href="#sprite0"/>
    <use ffdec:characterId="6" height="3.2" transform="matrix(1.0, 0.0, 0.0, 1.0, 2.05, 8.3)" width="12.5" xlink:href="#shape2"/>
  </g>
  <defs>
    <g id="shape0" transform="matrix(1.0, 0.0, 0.0, 1.0, -3.45, -9.3)">
      <path d="M12.95 9.35 L13.2 9.4 14.0 9.55 14.05 9.7 14.05 10.2 12.85 11.05 13.1 10.6 13.1 10.5 13.2 10.35 13.3 10.2 13.35 10.1 13.3 9.9 12.95 9.35 M5.65 10.85 L6.55 11.35 4.55 10.95 Q3.35 10.45 3.45 10.1 L4.35 9.6 5.25 9.5 5.05 9.75 4.95 10.25 5.65 10.85" fill="#ffffff" fill-rule="evenodd" stroke="none"/>
      <path d="M13.1 10.6 L12.95 10.7 12.8 10.0 12.25 9.3 12.85 9.35 12.95 9.35 13.3 9.9 13.3 10.15 13.25 10.2 13.2 10.35 13.1 10.5 13.1 10.6 M5.25 9.5 L5.35 9.45 5.8 9.4 Q5.35 9.8 5.35 10.15 L5.5 10.4 6.0 11.0 5.65 10.85 4.95 10.25 5.05 9.75 5.25 9.5" fill="#000000" fill-rule="evenodd" stroke="none"/>
      <path d="M13.25 10.2 L13.3 10.2 13.2 10.35 13.25 10.2" fill="url(#gradient0)" fill-rule="evenodd" stroke="none"/>
    </g>
    <radialGradient cx="0" cy="0" gradientTransform="matrix(0.0042, -2.0E-4, 5.0E-4, 0.0014, 9.45, 10.95)" gradientUnits="userSpaceOnUse" id="gradient0" r="819.2" spreadMethod="pad">
      <stop offset="0.2823529411764706" stop-color="#f96477"/>
      <stop offset="1.0" stop-color="#7f0c19"/>
    </radialGradient>
    <g id="sprite0" transform="matrix(1.0, 0.0, 0.0, 1.0, 0.0, 0.0)">
      <use ffdec:characterId="2" height="9.65" transform="matrix(1.0, 0.0, 0.0, 1.0, 0.0, 0.0)" width="12.5" xlink:href="#shape1"/>
    </g>
    <g id="shape1" transform="matrix(1.0, 0.0, 0.0, 1.0, 0.0, 0.0)">
      <path d="M0.55 1.55 L1.45 0.9 2.9 0.1 Q4.45 -0.25 6.2 0.75 L3.3 0.6 1.6 1.1 0.55 1.55 M12.5 6.15 L10.85 7.45 10.0 7.95 Q11.2 6.55 11.1 5.45 L10.2 3.9 9.3 3.55 9.5 4.35 9.6 5.8 8.85 7.65 8.0 9.15 9.55 8.45 8.05 9.65 Q3.2 8.9 0.9 8.15 L1.8 8.3 1.7 8.25 1.5 6.85 1.45 6.75 1.35 6.2 1.3 5.75 1.25 5.75 1.2 5.4 1.25 4.75 Q1.3 3.85 1.6 3.2 L1.35 3.3 0.0 4.05 0.05 2.85 1.3 2.1 Q2.9 1.35 3.95 1.25 L7.35 1.65 Q9.7 2.25 11.3 3.45 12.3 4.75 12.5 6.15" fill="url(#gradient1)" fill-rule="evenodd" stroke="none"/>
      <path d="M8.5 5.75 Q9.35 6.3 9.15 7.0 L8.0 9.2 7.9 9.2 5.15 8.85 1.75 8.25 1.3 5.75 1.5 5.35 Q1.75 4.9 2.3 4.8 L2.7 4.8 3.15 5.5 3.35 6.05 3.5 6.7 Q3.9 7.45 5.0 7.5 L6.5 7.35 7.05 6.55 7.45 6.0 Q8.0 5.35 8.5 5.75" fill="url(#gradient2)" fill-rule="evenodd" stroke="none"/>
    </g>
    <linearGradient gradientTransform="matrix(0.0, 0.0045, 0.0045, 0.0, 5.35, 5.45)" gradientUnits="userSpaceOnUse" id="gradient1" spreadMethod="pad" x1="-819.2" x2="819.2">
      <stop offset="0.0" stop-color="#073c00"/>
      <stop offset="1.0" stop-color="#65933b"/>
    </linearGradient>
    <radialGradient cx="0" cy="0" gradientTransform="matrix(-0.0042, -5.0E-4, -5.0E-4, 0.0042, 5.15, 8.0)" gradientUnits="userSpaceOnUse" id="gradient2" r="819.2" spreadMethod="pad">
      <stop offset="0.2823529411764706" stop-color="#ffcc00" stop-opacity="0.6"/>
      <stop offset="1.0" stop-color="#e5c64c" stop-opacity="0.2"/>
    </radialGradient>
    <g id="shape2" transform="matrix(1.0, 0.0, 0.0, 1.0, -2.05, -8.3)">
      <path d="M3.5 10.35 L3.45 10.3 3.45 10.1 4.35 9.6 5.25 9.5 5.05 9.75 4.95 10.15 3.6 10.4 3.5 10.35 M5.8 9.4 L10.5 9.1 12.25 9.3 Q12.5 9.4 12.65 9.65 L10.7 9.65 9.45 9.45 7.85 9.65 7.4 9.85 5.35 10.1 Q5.4 9.75 5.8 9.4 M12.95 9.35 L13.05 9.4 13.2 9.4 14.55 9.65 14.05 9.65 13.2 9.65 12.95 9.35" fill="#000000" fill-opacity="0.29803923" fill-rule="evenodd" stroke="none"/>
      <path d="M5.25 9.5 L5.4 9.45 5.8 9.4 Q5.4 9.75 5.35 10.1 L5.35 10.15 6.0 11.0 4.95 10.25 4.95 10.15 5.05 9.75 5.25 9.5 M12.25 9.3 L12.95 9.35 13.2 9.65 13.3 10.15 12.95 10.7 12.65 9.65 Q12.5 9.4 12.25 9.3 M10.7 9.65 L10.85 9.7 11.45 10.15 11.25 10.3 11.1 10.5 9.6 10.8 8.1 10.75 7.55 10.45 7.15 10.3 7.15 10.15 7.4 9.85 7.85 9.65 9.45 9.45 10.7 9.65" fill="#000000" fill-rule="evenodd" stroke="none"/>
      <path d="M3.5 10.35 L4.55 10.95 3.7 10.75 2.05 10.35 Q2.25 9.9 3.25 9.45 L7.2 8.85 10.6 8.75 13.25 9.0 14.5 9.25 14.55 9.65 13.2 9.4 13.05 9.4 12.95 9.35 12.25 9.3 10.5 9.1 5.8 9.4 5.4 9.45 5.25 9.5 4.35 9.6 3.45 10.1 3.45 10.3 3.5 10.35 M5.0 11.1 L6.55 11.35 13.65 11.0 6.5 11.5 5.0 11.1" fill="url(#gradient3)" fill-rule="evenodd" stroke="none"/>
      <path d="M14.0 8.85 L12.95 8.7 11.25 8.5 8.35 8.55 11.65 8.35 13.1 8.6 14.0 8.85" fill="url(#gradient4)" fill-rule="evenodd" stroke="none"/>
      <path d="M4.2 10.1 L4.65 9.9 5.7 9.85 6.75 9.9 7.15 10.1 6.75 10.25 5.7 10.35 4.65 10.25 4.2 10.1" fill="#ffffff" fill-rule="evenodd" stroke="none"/>
    </g>
    <linearGradient gradientTransform="matrix(-0.0076, 0.0, 0.0, -0.0013, 8.3, 9.85)" gradientUnits="userSpaceOnUse" id="gradient3" spreadMethod="pad" x1="-819.2" x2="819.2">
      <stop offset="0.0" stop-color="#000000" stop-opacity="0.6"/>
      <stop offset="1.0" stop-color="#000000" stop-opacity="0.9019608"/>
    </linearGradient>
    <linearGradient gradientTransform="matrix(-0.0034, 0.0, 0.0, 3.0E-4, 11.2, 8.55)" gradientUnits="userSpaceOnUse" id="gradient4" spreadMethod="pad" x1="-819.2" x2="819.2">
      <stop offset="0.0" stop-color="#000000" stop-opacity="0.6"/>
      <stop offset="1.0" stop-color="#000000" stop-opacity="0.9019608"/>
    </linearGradient>
  </defs>
</svg>
