<svg xmlns="http://www.w3.org/2000/svg" xmlns:ffdec="https://www.free-decompiler.com/flash" xmlns:xlink="http://www.w3.org/1999/xlink" ffdec:objectType="frame" width="12.6" height="10.1"><g transform="translate(-1.95 -1.75)"><use ffdec:characterId="5" xlink:href="#a" width="10.65" height="2.05" transform="translate(3.45 9.3)"/><use ffdec:characterId="3" xlink:href="#b" width="12.5" height="9.65" transform="matrix(-1 0 0 .3282 14.55 8.3)"/><use ffdec:characterId="6" xlink:href="#c" width="12.5" height="3.2" transform="translate(2.05 8.3)"/></g><defs><linearGradient id="f" x1="-819.2" x2="819.2" gradientTransform="matrix(0 .0045 .0045 0 5.35 5.45)" gradientUnits="userSpaceOnUse" spreadMethod="pad"><stop offset="0" stop-color="#073c00"/><stop offset="1" stop-color="#65933b"/></linearGradient><linearGradient id="h" x1="-819.2" x2="819.2" gradientTransform="matrix(-.0076 0 0 -.0013 8.3 9.85)" gradientUnits="userSpaceOnUse" spreadMethod="pad"><stop offset="0" stop-opacity=".6"/><stop offset="1" stop-opacity=".902"/></linearGradient><linearGradient id="i" x1="-819.2" x2="819.2" gradientTransform="matrix(-.0034 0 0 .0003 11.2 8.55)" gradientUnits="userSpaceOnUse" spreadMethod="pad"><stop offset="0" stop-opacity=".6"/><stop offset="1" stop-opacity=".902"/></linearGradient><g id="a" fill-rule="evenodd"><path fill="#fff" d="m9.5.05.25.05.8.15.05.15v.5l-1.2.85.25-.45v-.1l.1-.15.1-.15.05-.1-.05-.2zm-7.3 1.5.9.5-2-.4Q-.1 1.15 0 .8L.9.3l.9-.1-.2.25-.1.5z"/><path d="m9.65 1.3-.15.1-.15-.7L8.8 0l.6.05h.1l.35.55v.25L9.8.9l-.05.15-.1.15zM1.8.2l.1-.05.45-.05Q1.9.5 1.9.85l.15.25.5.6-.35-.15-.7-.6.1-.5z"/><path fill="url(#d)" d="M13.25 10.2h.05l-.1.15z" transform="translate(-3.45 -9.3)"/></g><g id="e" fill-rule="evenodd"><path fill="url(#f)" d="m.55 1.55.9-.65L2.9.1q1.55-.35 3.3.65L3.3.6l-1.7.5zm11.95 4.6-1.65 1.3-.85.5q1.2-1.4 1.1-2.5l-.9-1.55-.9-.35.2.8.1 1.45-.75 1.85L8 9.15l1.55-.7-1.5 1.2Q3.2 8.9.9 8.15l.9.15-.1-.05-.2-1.4-.05-.1-.1-.55-.05-.45h-.05L1.2 5.4l.05-.65q.05-.9.35-1.55l-.25.1L0 4.05l.05-1.2L1.3 2.1q1.6-.75 2.65-.85l3.4.4q2.35.6 3.95 1.8 1 1.3 1.2 2.7"/><path fill="url(#g)" d="M8.5 5.75q.85.55.65 1.25L8 9.2h-.1l-2.75-.35-3.4-.6-.45-2.5.2-.4q.25-.45.8-.55h.4l.45.7.2.55.15.65q.4.75 1.5.8l1.5-.15.55-.8.4-.55Q8 5.35 8.5 5.75"/></g><g id="c" fill-rule="evenodd"><path fill-opacity=".298" d="M1.45 2.05 1.4 2v-.2l.9-.5.9-.1-.2.25-.1.4-1.35.25zm2.3-.95 4.7-.3 1.75.2q.25.1.4.35H8.65l-1.25-.2-1.6.2-.45.2-2.05.25q.05-.35.45-.7m7.15-.05.1.05h.15l1.35.25h-1.35z"/><path d="m3.2 1.2.15-.05.4-.05q-.4.35-.45.7v.05l.65.85-1.05-.75v-.1l.1-.4zm7-.2.7.05.25.3.1.5-.35.55-.3-1.05q-.15-.25-.4-.35m-1.55.35.15.05.6.45-.2.15-.15.2-1.5.3-1.5-.05-.55-.3L5.1 2v-.15l.25-.3.45-.2 1.6-.2z"/><path fill="url(#h)" d="m3.5 10.35 1.05.6-.85-.2-1.65-.4q.2-.45 1.2-.9l3.95-.6 3.4-.1 2.65.25 1.25.25.05.4-1.35-.25h-.15l-.1-.05-.7-.05-1.75-.2-4.7.3-.4.05-.15.05-.9.1-.9.5v.2zm1.5.75 1.55.25 7.1-.35-7.15.5z" transform="translate(-2.05 -8.3)"/><path fill="url(#i)" d="m14 8.85-1.05-.15-1.7-.2-2.9.05 3.3-.2 1.45.25z" transform="translate(-2.05 -8.3)"/><path fill="#fff" d="m2.15 1.8.45-.2 1.05-.05 1.05.05.4.2-.4.15-1.05.1-1.05-.1z"/></g><radialGradient id="d" cx="0" cy="0" r="819.2" gradientTransform="matrix(.0042 -.0002 .0005 .0014 9.45 10.95)" gradientUnits="userSpaceOnUse" spreadMethod="pad"><stop offset=".282" stop-color="#f96477"/><stop offset="1" stop-color="#7f0c19"/></radialGradient><radialGradient id="g" cx="0" cy="0" r="819.2" gradientTransform="matrix(-.0042 -.0005 -.0005 .0042 5.15 8)" gradientUnits="userSpaceOnUse" spreadMethod="pad"><stop offset=".282" stop-color="#fc0" stop-opacity=".6"/><stop offset="1" stop-color="#e5c64c" stop-opacity=".2"/></radialGradient><use ffdec:characterId="2" xlink:href="#e" id="b" width="12.5" height="9.65"/></defs></svg>