<?xml version="1.0" encoding="UTF-8" standalone="no"?>
<svg xmlns:ffdec="https://www.free-decompiler.com/flash" xmlns:xlink="http://www.w3.org/1999/xlink" ffdec:objectType="frame" height="10.1px" width="12.6px" xmlns="http://www.w3.org/2000/svg">
  <g transform="matrix(1.0, 0.0, 0.0, 1.0, -1.95, -1.75)">
    <use ffdec:characterId="7" height="10.1" transform="matrix(1.0, 0.0, 0.0, 1.0, 1.95, 1.75)" width="12.6" xlink:href="#shape0"/>
  </g>
  <defs>
    <g id="shape0" transform="matrix(1.0, 0.0, 0.0, 1.0, -1.95, -1.75)">
      <path d="M12.85 4.95 L12.85 4.9 12.95 4.95 13.2 5.05 14.0 5.45 14.05 5.95 14.05 7.4 Q13.8 8.65 12.85 10.0 L13.1 8.65 12.95 9.05 12.8 6.8 12.25 4.65 12.85 4.95 M13.35 7.15 L13.3 6.5 13.3 7.35 13.25 7.5 13.2 7.95 13.3 7.5 13.35 7.15 M5.35 5.25 L5.8 5.1 Q5.35 6.3 5.35 7.35 L5.5 8.1 6.0 9.95 5.65 9.4 6.55 10.95 4.55 9.7 Q3.35 8.3 3.45 7.2 L4.35 5.65 5.25 5.3 5.35 5.25" fill="#ffffff" fill-opacity="0.0" fill-rule="evenodd" stroke="none"/>
      <path d="M12.65 5.75 L10.7 5.85 10.85 6.0 Q11.4 6.55 11.45 7.25 L11.25 7.8 11.1 8.45 Q10.7 9.2 9.6 9.25 L8.1 9.1 7.55 8.3 7.15 7.75 7.15 7.35 7.4 6.4 Q6.25 6.65 5.35 7.1 L5.35 7.35 6.0 9.95 Q5.0 8.25 4.95 7.55 L4.95 7.3 Q4.2 7.65 3.6 8.15 L3.5 7.85 Q3.7 8.7 4.55 9.7 L3.7 9.2 2.05 7.9 Q2.25 6.5 3.25 5.2 4.85 4.0 7.2 3.4 L10.6 3.0 Q11.65 3.1 13.25 3.85 L14.5 4.6 14.55 5.8 14.05 5.8 13.2 5.75 13.3 7.35 12.95 9.05 12.65 5.75 M14.0 3.3 L12.95 2.85 11.25 2.35 8.35 2.5 Q10.1 1.5 11.65 1.85 12.15 1.95 13.1 2.65 L14.0 3.3 M6.55 10.9 L13.65 9.9 Q11.35 10.65 6.5 11.4 L5.0 10.2 6.55 10.9" fill="#ffffff" fill-opacity="0.0" fill-rule="evenodd" stroke="none"/>
      <path d="M4.65 7.6 L4.2 7.1 Q4.2 6.8 4.65 6.55 L5.7 6.4 6.75 6.55 7.15 7.1 6.75 7.6 5.7 7.85 4.65 7.6" fill="#ffffff" fill-opacity="0.0" fill-rule="evenodd" stroke="none"/>
      <path d="M12.1 10.4 L12.8 10.15 12.9 10.1 13.05 10.1 14.4 9.4 14.35 10.45 13.1 11.1 10.45 11.85 7.05 11.5 Q4.7 11.0 3.1 9.95 2.25 8.95 1.95 7.95 L3.25 7.95 3.3 8.2 4.2 9.55 5.1 9.85 5.25 9.9 5.65 10.05 10.35 10.95 12.1 10.4" fill="url(#gradient0)" fill-rule="evenodd" stroke="none"/>
      <path d="M13.95 9.35 L12.95 9.75 11.4 10.25 Q9.85 10.4 8.25 9.3 L11.05 9.75 12.85 9.55 13.95 9.35" fill="url(#gradient1)" fill-rule="evenodd" stroke="none"/>
    </g>
    <linearGradient gradientTransform="matrix(-0.0076, 0.0, 0.0, 0.0036, 8.15, 8.95)" gradientUnits="userSpaceOnUse" id="gradient0" spreadMethod="pad" x1="-819.2" x2="819.2">
      <stop offset="0.0" stop-color="#000000" stop-opacity="0.6"/>
      <stop offset="1.0" stop-color="#000000" stop-opacity="0.9019608"/>
    </linearGradient>
    <linearGradient gradientTransform="matrix(-0.0034, -4.0E-4, 1.0E-4, -8.0E-4, 11.05, 9.65)" gradientUnits="userSpaceOnUse" id="gradient1" spreadMethod="pad" x1="-819.2" x2="819.2">
      <stop offset="0.0" stop-color="#000000" stop-opacity="0.6"/>
      <stop offset="1.0" stop-color="#000000" stop-opacity="0.9019608"/>
    </linearGradient>
  </defs>
</svg>
