<svg xmlns="http://www.w3.org/2000/svg" xmlns:ffdec="https://www.free-decompiler.com/flash" ffdec:objectType="shape" width="52" height="52"><path fill="none" d="M48 0q4 0 4 4v44q0 4-4 4H4q-4 0-4-4V4q0-4 4-4z"/><path fill="#fff" fill-rule="evenodd" d="M21.35 20.3q0-1.25-.85-2.1t-2.1-.85q-1.2 0-2.05.85t-.85 2.1.85 2.1q.8.8 2 .8 1.25 0 2.15-.8.85-.85.85-2.1m15-5.8q3.2 3.55 3.15 8.5l-.25 2.85q-.8 3.6-3.5 6.4l-1.25 1.1-.9-4.65-14.95-.05-1.1 3.65-.2-.15q-3.85-3.9-3.85-9.25.05-4.8 3.25-8.5l.65-.65q3.85-3.85 9.2-3.8 5.4 0 9.2 3.9zM13.7 31.45q1.4 1.7.7 3.75-2.5 7.55 3.65 4.2 2.5-1.3 5.45-3.75-2.2-.5-4-1.75l14.1.05q-2.75 1.7-6 1.95l.25.5.4-.25 2.7-.3 5.65.35q7.85 1.8 5.15 10.6-.9 3-2.65 2.7-1.7-.25-1.6-1.95-.2-1.7.6-4.15l.85-3.2q-.2-2.75-10.6-2.9h-.05l1.8 3.65q2.2 5.4 1.95 10h-10.9q-.25-4.6 1.95-10 .4-1 2.55-5l-1.05-.1q-11.3 9.4-13.85 5.45-1.7-2.65.3-9.05 1.3-2.55 2.65-.8m-1.3-21.4.1-3.1L16.25 12q-2.05 0-3.75 2.05-.8 1-1.25 2L6 13.7l3.55-.25L6.75 12h2.8l-1.9-4.45zm22.25 7.4q-1.2-.05-2.05.8t-.85 2.1.85 2.1q.8.8 2 .85 1.25 0 2.15-.8.85-.85.85-2.1t-.85-2.1-2.1-.85"/></svg>