<svg xmlns="http://www.w3.org/2000/svg" xmlns:ffdec="https://www.free-decompiler.com/flash" ffdec:objectType="shape" width="48" height="35.8"><path fill="#e2b238" fill-rule="evenodd" d="m35.55 12.8.35 1.55q2.6.9 4.45 2.25l1.25.9 1.65.6q-.05-2.15-1.75-3.5-2-1.75-5.95-1.8m10.4 4.35q.2 1.5-.25 3l-.1.35v1.9q-.15 1.75-.7 3.45-1.65 4.85-6.15 6.95-7.4 3.4-25.75-4.5-3.45-1.6-6 .4l-3.35 3.2.05-.55-1-.35.45-1.25L2 29.6q.8-1.65 2.4-3.05 3.25-2.8 7.3-1.8 3.3.85 10.4 3.45 6.8 2.2 11.95 1.95 5.4-.25 7.45-3.1.9-1.15 1.3-3.9l-1.3.7q-7.35 3.55-18.2 2.65-4.45-.35-8.85-1.45-3.65-.95-6-2-1.85-.8-2.5-2.2-.55-1.15-.1-2.6Q6.3 17 7.5 15.8q1.15-1.1 2.65-1.7l2.1-1.2 1.2-1.05 1.3-.8 2.65-.4.95.15.9.4.7.3q4.15-1.75 9.95-1.75l-1.25-.85-2.55-.3-1.95.7-2.25.8-3.6.1q-1.05-.4-1.7-1.75-.5-1-.55-2.15 0-1.15.45-2.1.6-1.3 1.65-1.8l.5-.2 1.2-.2q2.15 0 2.5.9.3.75-.4 1.7l-.65.75q-.4.35-1.45.35l-.35.2q-.45.4 0 1.05.4.6 1.15.7 1.6-1.05 3.5-1.45L28 6q4.3.5 6.2 3.95l5.1.8q6.1 1.8 6.65 6.4M26.4 21.3l-1.7.15q-7.15 1.15-10.05-1.15-1.5-1.25-1.55-2.95-.05-.85.2-1.7-1.75 1-2.75 2.25-1.9 2.25 1.15 3.3 3.9 1.25 9.4 2l9.7.45 4.5-.85q2.65-.65 4.6-1.55l1.9-1.1q-1.4-.2-3.55-1.35l-2.3-1.3q-.85 2-5.85 3.15zm-1.15-2.85q3.95-.35 5.85-1.1l.7-.3 1-1-3.8-.5-7.4-.8-2.75-.55q-.85.35-1.6.95l-.45.55q-.5.55-.45 1.1.7 1 2.9 1.45z"/><path fill="none" stroke="#fff" stroke-linecap="round" stroke-linejoin="round" stroke-width="4" d="M45.95 17.15q-.55-4.6-6.65-6.4l-5.1-.8Q32.3 6.5 28 6l-3.85.2q-1.9.4-3.5 1.45-.75-.1-1.15-.7-.45-.65 0-1.05l.35-.2q1.05 0 1.45-.35l.65-.75q.7-.95.4-1.7Q22 2 19.85 2l-1.2.2-.5.2q-1.05.5-1.65 1.8-.45.95-.45 2.1.05 1.15.55 2.15.65 1.35 1.7 1.75l3.6-.1 2.25-.8 1.95-.7 2.55.3 1.25.85q-5.8 0-9.95 1.75l-.7-.3-.9-.4-.95-.15-2.65.4-1.3.8-1.2 1.05-2.1 1.2q-1.5.6-2.65 1.7-1.2 1.2-1.65 2.45-.45 1.45.1 2.6.65 1.4 2.5 2.2 2.35 1.05 6 2 4.4 1.1 8.85 1.45 10.85.9 18.2-2.65l1.3-.7q-.4 2.75-1.3 3.9-2.05 2.85-7.45 3.1-5.15.25-11.95-1.95-7.1-2.6-10.4-3.45-4.05-1-7.3 1.8-1.6 1.4-2.4 3.05l1.15.15L2.7 31l1 .35-.05.55L7 28.7q2.55-2 6-.4 18.35 7.9 25.75 4.5 4.5-2.1 6.15-6.95.55-1.7.7-3.45v-1.9l.1-.35q.45-1.5.25-3m-10.4-4.35q3.95.05 5.95 1.8 1.7 1.35 1.75 3.5l-1.65-.6-1.25-.9q-1.85-1.35-4.45-2.25zm-9.15 8.5-1.7.15q-7.15 1.15-10.05-1.15-1.5-1.25-1.55-2.95-.05-.85.2-1.7-1.75 1-2.75 2.25-1.9 2.25 1.15 3.3 3.9 1.25 9.4 2l9.7.45 4.5-.85q2.65-.65 4.6-1.55l1.9-1.1q-1.4-.2-3.55-1.35l-2.3-1.3q-.85 2-5.85 3.15zm-1.15-2.85-6-.2q-2.2-.45-2.9-1.45-.05-.55.45-1.1l.45-.55q.75-.6 1.6-.95l2.75.55 7.4.8 3.8.5-1 1-.7.3q-1.9.75-5.85 1.1"/><path fill="#e2b238" fill-rule="evenodd" d="M25.25 18.45q3.95-.35 5.85-1.1l.7-.3 1-1-3.8-.5-7.4-.8-2.75-.55q-.85.35-1.6.95l-.45.55q-.5.55-.45 1.1.7 1 2.9 1.45zm10.3-5.65.35 1.55q2.6.9 4.45 2.25l1.25.9 1.65.6q-.05-2.15-1.75-3.5-2-1.75-5.95-1.8m10.4 4.35q.2 1.5-.25 3l-.1.35v1.9q-.15 1.75-.7 3.45-1.65 4.85-6.15 6.95-7.4 3.4-25.75-4.5-3.45-1.6-6 .4l-3.35 3.2.05-.55-1-.35.45-1.25L2 29.6q.8-1.65 2.4-3.05 3.25-2.8 7.3-1.8 3.3.85 10.4 3.45 6.8 2.2 11.95 1.95 5.4-.25 7.45-3.1.9-1.15 1.3-3.9l-1.3.7q-7.35 3.55-18.2 2.65-4.45-.35-8.85-1.45-3.65-.95-6-2-1.85-.8-2.5-2.2-.55-1.15-.1-2.6Q6.3 17 7.5 15.8q1.15-1.1 2.65-1.7l2.1-1.2 1.2-1.05 1.3-.8 2.65-.4.95.15.9.4.7.3q4.15-1.75 9.95-1.75l-1.25-.85-2.55-.3-1.95.7-2.25.8-3.6.1q-1.05-.4-1.7-1.75-.5-1-.55-2.15 0-1.15.45-2.1.6-1.3 1.65-1.8l.5-.2 1.2-.2q2.15 0 2.5.9.3.75-.4 1.7l-.65.75q-.4.35-1.45.35l-.35.2q-.45.4 0 1.05.4.6 1.15.7 1.6-1.05 3.5-1.45L28 6q4.3.5 6.2 3.95l5.1.8q6.1 1.8 6.65 6.4M26.4 21.3l-1.7.15q-7.15 1.15-10.05-1.15-1.5-1.25-1.55-2.95-.05-.85.2-1.7-1.75 1-2.75 2.25-1.9 2.25 1.15 3.3 3.9 1.25 9.4 2l9.7.45 4.5-.85q2.65-.65 4.6-1.55l1.9-1.1q-1.4-.2-3.55-1.35l-2.3-1.3q-.85 2-5.85 3.15z"/><path fill="none" stroke="#46350a" stroke-linecap="round" stroke-linejoin="round" stroke-width="2" d="M45.95 17.15q-.55-4.6-6.65-6.4l-5.1-.8Q32.3 6.5 28 6l-3.85.2q-1.9.4-3.5 1.45-.75-.1-1.15-.7-.45-.65 0-1.05l.35-.2q1.05 0 1.45-.35l.65-.75q.7-.95.4-1.7Q22 2 19.85 2l-1.2.2-.5.2q-1.05.5-1.65 1.8-.45.95-.45 2.1.05 1.15.55 2.15.65 1.35 1.7 1.75l3.6-.1 2.25-.8 1.95-.7 2.55.3 1.25.85q-5.8 0-9.95 1.75l-.7-.3-.9-.4-.95-.15-2.65.4-1.3.8-1.2 1.05-2.1 1.2q-1.5.6-2.65 1.7-1.2 1.2-1.65 2.45-.45 1.45.1 2.6.65 1.4 2.5 2.2 2.35 1.05 6 2 4.4 1.1 8.85 1.45 10.85.9 18.2-2.65l1.3-.7q-.4 2.75-1.3 3.9-2.05 2.85-7.45 3.1-5.15.25-11.95-1.95-7.1-2.6-10.4-3.45-4.05-1-7.3 1.8-1.6 1.4-2.4 3.05l1.15.15L2.7 31l1 .35-.05.55L7 28.7q2.55-2 6-.4 18.35 7.9 25.75 4.5 4.5-2.1 6.15-6.95.55-1.7.7-3.45v-1.9l.1-.35q.45-1.5.25-3m-10.4-4.35q3.95.05 5.95 1.8 1.7 1.35 1.75 3.5l-1.65-.6-1.25-.9q-1.85-1.35-4.45-2.25zm-10.3 5.65-6-.2q-2.2-.45-2.9-1.45-.05-.55.45-1.1l.45-.55q.75-.6 1.6-.95l2.75.55 7.4.8 3.8.5-1 1-.7.3q-1.9.75-5.85 1.1m1.15 2.85-1.7.15q-7.15 1.15-10.05-1.15-1.5-1.25-1.55-2.95-.05-.85.2-1.7-1.75 1-2.75 2.25-1.9 2.25 1.15 3.3 3.9 1.25 9.4 2l9.7.45 4.5-.85q2.65-.65 4.6-1.55l1.9-1.1q-1.4-.2-3.55-1.35l-2.3-1.3q-.85 2-5.85 3.15z"/><path fill="#a88837" fill-rule="evenodd" d="m42.5 12.1-.35.1q-.8.3-1.05 1.05-.75-.5-1.85-.9L38.1 12l.05-.6.25-.85.9.2q1.85.55 3.2 1.35m-4.7-1.65-.2.65-.1.75-1.45-.15h-.85l.35 1.05q-1.75-1.05-2.7-.2v.05l-.4-1.35-.85-1.05q.35-.5.9-.6l1.4.1.2.1.1.15.25.05zm5.45 7.65h.05v-.05l-.05-1.5.85-.5q1.25-.3 1.75 1.3-.4-2.15-1.65-2-.7.15-1.1.6-.45-1.35-1.55-2.35l.2-.45q.4-.7 1.35-.65 2.5 1.75 2.85 4.65l.05.7q.05 1.15-.3 2.3v.15l-.1.2-.05-.3-1.85.1-.45.4-.8-.85-.65-.25-.3-.15q.4-.95 1.15-1.25l.4-.15zm2.45 2.85-.1 1.45-.2 1.7q-.65-.9-1.75-.7l-.35.1q.4-1.3.15-2.3.9-.6 1.65-.4zm-.5 3.85-.3 1.05-.9 2q-.15-1.05-1.35-1.15l-.95.15.5-1.1.9-1.65.4-.1q1.25-.1 1.7.8m-1.45 3.55q-1 1.65-2.45 2.9.25-1.5-1.15-2L39.2 29l1.8-1.3.15-.2h.05l1.1-.2q1.05.05 1.45 1.05m-3.4 3.55-.85.55-1.9.5q.05-1.4-.5-2.35l-.65-.7 2.15-.65 1.35.95q.55.75.4 1.7M3 31.1l-.3-.1.45-1.25L2 29.6q.8-1.65 2.4-3.05 1.6-1.35 3.35-1.8l.2 1.45.15.6-1.9.75Q4.1 28.8 3 31.1m5.8-6.6 2.9.25.45.1-.65.75q-.25.6-.15 1.15l-2.3-.05-.15-.75zm4.65.7 3.7 1.25-.8.25q-.75.6-.9 1.45l-1.15-.45-2.2-.75q.05-.75.5-1.25zm4.8 1.6 3.5 1.3-.45.4q-.4.75-.55 1.7l-4.15-1.55.7-1.25zm4.5 1.65 3.05.8-.5.7q-.4.7-.55 1.5l-2.9-.85.45-1.45zm4 1.05 4.2.6-.35 1.15-.2 1.5-1.8-.35-2.7-.6.4-1.45zm5.15.65h2.15L35.6 30l.65 1.15q.4 1 .4 1.95h-2.9l-2.3-.2.15-1.35zM5.85 18.55v-.1l.4-.5 1.8-.25.8.1q-.35 1 .45 1.7l.6.4.35.55-.75.3q-.7.6-.5 1.55l-.45-.2q-2.6-1.45-2.7-3.55m.35-1q.45-.9 1.3-1.75l1.6-1.2h.5q.8 0 1.65.7l.35.3-2.05 1.05-.45.7-1.4-.15q-.9.1-1.5.35m3.45-3.25.5-.2 1.55-.8q1.5.25 2.1 1l-.8.55-1 .5-.75-.65zm2.45-1.2.15-.2 1.2-1.05 1.3-.8.85-.15.1 2.35-1.1.4-.55.5-.1-.15q-.6-.85-1.85-.9m4.3-2.35 1-.1.95.15.9.4.7.3 2.85-.9.3.35.65 1.1h.7l-.5-1.15-.4-.5 3.8-.55.65.3q.75.6.95 1.6l-.55.05-2.25.25-.45.1.75.05.2 2.4-2.45-.25-2.05-.25.05-.75-.15-1.4-.6-.1L21.4 14l-3.1-.6-2.2-.2.05-.8zm11.8-.95 1.7-.05.35.35.55.6.35.4.5.65H29.7q0-.9-.65-1.5zm.45-.9-.3-.15q-.45-1.85 1.25-2.2l.5-.05q2.1.7 3.45 2.4-1-.25-1.8.55l-.4.45q-.85-.65-2-.95zm-.4-.15-2.1-.15q-.85-.95-.75-2.05l.2-.6L28 6l1.15.2-.25.1q-1.35.8-.65 2.45M25.8 8.7q-.6.15-1.65.6l-.3.15-.2.05q-1.55-.35-1.7-1.65-.05-.55.05-.9 1-.5 2.15-.75l.9-.15-.1.8q.1 1.1.85 1.85m-2.7 1.05-1.2.35-3.6.1-1.1-.8 1.1-1.35.15-.05q.35.55 1.15.35l.9-.7h.15l.8-.45q-.2.55-.05 1.2.25 1.1 1.7 1.35M16.65 8.5l-.05-.05q-.5-1-.55-2.15 0-1.15.45-2.1.6-1.3 1.65-1.8-.2.2-.05.4l.35.25-1.15 1L18.5 4l-.9 1.1 1.1-.4v.15l.05.35q-.85.9-.55 2.15l.1.3zm25.5 9.3-.15.05q-.75.4-.95 1.45L38.6 18q.1-.95.65-1.45.3-.2.65-.25l.45.3 1.25.9zm-3.1-2.05q-.3.15-.55.45-.5.55-.55 1.4l-1.75-1.05-.25.95-.05.1-.25-.25q-.4-1.6-1.3-1.8l-1 .05-.05-1.45-.3-.95q.6-.6 1.5-.35.7.2 1.25.7l.15.8.25 1.4.2-.45.5-.6zm-6.65-2.6h.05l.2.65.1 1.05.05.45-.9-.35-.95-.1.4-1.95zm-.6 3.9q1.1-.05 1.45-1l.7.05q.55.25.9.85-.6-.05-1.1.5l-1.1.8-.65-.9-.35-.2zm-.55.25.65.75.2.5-.95.4-1.8.65-.05-.3-.7-1.3 2.5-.65zm-3.15.8.45.8.25.85-3.4.7-.05-2zm-3.35.4-.1 2-1.45.1-2.95.15.05-1 .6-1.2zm-4.55-.05q-.35.5-.5 1.3l-.1 1-3.4.1-.4-.1-.15-1.05q.05-1.25 1.55-1.85l.3-.15 1.75.55zm-3.15-.95h-.1q-1.5.25-1.65 1.6-.15.85.1 1.5-1.15-.5-2-1.8l-.15-.4-.05-.15q.75-1.85 2.15-1.75l1 .3zm10-5.2 1.9.2.65.1 1.05.2-.3 2-1-.05-2.1-.1zM16.8 15.7q-.45.5-.45 1-.55-.4-1.15-.55-1.4-.25-2.1 1.5v-.3q1.3-2.75 2.8-2.25zm5.55 7.7 3.7.35V26l-4.15-.2.15-1.4zm4.2.35 3.9-.05.15 2.05-3.85.25q.1-.95-.2-2.25m4.5-.1 3.7-.65.4.9.2 1-1.6.35-2.3.4q0-.8-.4-2m4.35-.85L38 22l.5.55q.35.55.35 1.4l-2.65.8-.3-1.4zm3.05-.9 1.45-.65.4-.15q1.2.4 1.3 1.25l.15.4-2.2.95q-.05-.95-.5-1.45zM10.8 20.8l.9.4 1.8.5-.7.55q-.6.6-.65 1.25l-2.65-.85q-.15-.95.55-1.5zm3.25 1.1 3.05.65-.65.7q-.45.75-.4 1.45l-3.15-.95v-.1q0-1.15 1.15-1.75m3.9.8 3.15.5.25.05-.25.8q-.2.85-.15 1.6l-4.1-.8q0-.7.5-1.5z"/><path fill="#cdab53" fill-rule="evenodd" d="m18.15 2.4.5-.2 1.2-.2q2.15 0 2.5.9.3.75-.4 1.7l-.65.75q-.4.35-1.45.35l-.35.2q-.55-.15-.75-.7l-.05-.35V4.7l-1.1.4.9-1.1-1.2.05 1.15-1-.35-.25q-.15-.2.05-.4"/><path fill="#91742a" fill-rule="evenodd" d="M16.35 16.7v.1l-1-.3q-1.4-.1-2.15 1.75l-.1-.6q.7-1.75 2.1-1.5.6.15 1.15.55"/><path fill="#80631b" fill-rule="evenodd" d="m42.5 12.1.6.4q-.95-.05-1.35.65l-.2.45q1.1 1 1.55 2.35.4-.45 1.1-.6 1.25-.15 1.65 2-.5-1.6-1.75-1.3l-.85.5.05 1.5v.05h-.05v-.5l-.25-.9-.1-.4q-.45-.95-1.4-1.7l-.5-.4q-1.25-.8-2.95-1.15L37.6 13l-1.75-.2h-.3v-.05l-.35-1.05h.85l1.45.15.1-.75.2-.65.6.1-.25.85-.05.6 1.15.35q1.1.4 1.85.9.25-.75 1.05-1.05zm-19.7-1.5.75-.2.4.5.5 1.15h-.7l-.65-1.1zm4.55-.75h.5l.35-.05.85.45q.65.6.65 1.5l-.1.85-.65-.1-1.9-.2-.6-.1-.75-.05.45-.1 2.25-.25.55-.05q-.2-1-.95-1.6zm5.1 3.25v.05h-.05zm-18.2 1.7-.05.2-.05-.1z"/><path fill="#795d16" fill-rule="evenodd" d="M35.55 12.75v.05l.2.75q-.55-.5-1.25-.7-.9-.25-1.5.35l.3.95.05 1.45 1-.05q.9.2 1.3 1.8l.25.25-.15.3-.6.7q-.85.7-2.45 1.3l-.65.2-.15.1-1.8.45-.9.2-.5.1-2.3.35-1.7.15h-.05l-3.9.4h-.6l-3.55-.55-.7-.25-.45-.2-.8-.55q-.85-.7-1.25-1.5.85 1.3 2 1.8-.25-.65-.1-1.5.15-1.35 1.65-1.6h.1l.45.2-.3.15q-1.5.6-1.55 1.85l.15 1.05.4.1 3.4-.1.1-1q.15-.8.5-1.3l.7.1-.6 1.2-.05 1 2.95-.15 1.45-.1.1-2 .5-.05h.1l.05 2 3.4-.7-.25-.85-.45-.8.5-.1.7 1.3.05.3 1.8-.65.95-.4-.2-.5-.65-.75.4-.15.35.2.65.9 1.1-.8q.5-.55 1.1-.5-.35-.6-.9-.85l-.7-.05q-.35.95-1.45 1l.65-.45.2-.3.15-.25.05-.2-.05-.55-.05-.45-.1-1.05-.2-.65v-.05l-.8-1.35-.5-.65-.35-.4-.55-.6-.35-.35-1.25-.85.7.05q1.15.3 2 .95l.4-.45q.8-.8 1.8-.55l.55.9-.2-.1-1.4-.1q-.55.1-.9.6l.85 1.05.4 1.35v-.05q.95-.85 2.7.2m-7.2-4h-.1q-.7-1.65.65-2.45l.25-.1.95.3-.5.05q-1.7.35-1.25 2.2m-2.2-.15h-.05l-.3.1q-.75-.75-.85-1.85l.1-.8.55-.1-.2.6q-.1 1.1.75 2.05m-2.5.9-.55.25q-1.45-.25-1.7-1.35-.15-.65.05-1.2l.55-.25q-.1.35-.05.9.15 1.3 1.7 1.65"/><path fill="#664e12" fill-rule="evenodd" d="m42.8 23.15-1.3.7-2.05.9-.7.25-2.75.8-.7.15-4 .6-.7.05-3.95.1H26l-2.7-.2-1.45-.15-.85-.05-4-.7-.45-.05-.2-.05-1.9-.45-.65-.2-.6-.1-.85-.25-2.45-.85-.6-.25-.85-.35q-1.85-.8-2.5-2.2-.45-.95-.2-2l.1-.3q.1 2.1 2.7 3.55l.45.2q-.2-.95.5-1.55l.75-.3.55.35-.75.35q-.7.55-.55 1.5l2.65.85q.05-.65.65-1.25l.7-.55.55.2q-1.15.6-1.15 1.75v.1l3.15.95q-.05-.7.4-1.45l.65-.7.85.15-.6.65q-.5.8-.5 1.5l4.1.8q-.05-.75.15-1.6l.25-.8 1 .15-.3 1-.15 1.4 4.15.2v-2.25h.5q.3 1.3.2 2.25l3.85-.25-.15-2.05.35-.05h.25q.4 1.2.4 2l2.3-.4 1.6-.35-.2-1-.4-.9.55-.2h.1l.5.55.3 1.4 2.65-.8q0-.85-.35-1.4L38 22l.45-.1.6.35q.45.5.5 1.45l2.2-.95-.15-.4q-.1-.85-1.3-1.25l1.5-.95q.7.1.95.9l.1.65v.05zM17.2 9.4q-.35-.35-.55-.9l1.65-.85-.1-.3q-.3-1.25.55-2.15.2.55.75.7-.35.3-.1.85l.05.05.05.15q.35.5 1 .7l-.9.7q-.8.2-1.15-.35l-.15.05zm15.25 3.7-.05.05-1.05-.25-.7-.1-1.05-.2.1-.85h1.95zm-13.6 1.1q-.85.35-1.6.95l-.45.55-.9-.6q-1.5-.5-2.8 2.25-.05-.85.2-1.7l.75-.65.1-.1.05.1.05-.2 1-.7.45-.15.35-.05.95-.05zm18 .5-.5.6-.2.45-.25-1.4z"/><path fill="#7e6422" fill-rule="evenodd" d="m45.6 20.5.1.45-.6-.15q-.75-.2-1.65.4.25 1-.15 2.3l.35-.1q1.1-.2 1.75.7l-.2.7q-.45-.9-1.7-.8l-.4.1-.9 1.65.4-1.55.1-.45.1-.6.05-1.4v-.05l-.1-.65q-.25-.8-.95-.9l-.5-.05-.25-.1q-1.1-.3-2.45-1l-.35-.2-.25-.15-2.05-1.15.25-.95 1.75 1.05q.05-.85.55-1.4.25-.3.55-.45l.85.55q-.35.05-.65.25-.55.5-.65 1.45l2.45 1.3q.2-1.05.95-1.45l.15-.05.9.25-.4.15q-.75.3-1.15 1.25l.3.15.65.25.8.85.45-.4 1.85-.1zM44 27.85l-.25.5q-.4-1-1.45-1.05l-1.1.2.3-.45.2-.2.95-.15q1.2.1 1.35 1.15m-2.7 3.4-.95.65q.15-.95-.4-1.7l-1.35-.95.6-.25.95.25q1.4.5 1.15 2m-1.8 1.2-.75.35-1.2.45-.95.25-5.25.2-.95-.1-4.6-.8-1.2-.3-2.8-.85-1.15-.4-4.15-1.5-.95-.4L13 28.3l-.75-.3-.4-.1-2.45-.2-.8.15q-.85.3-1.6.85l-3.35 3.2.05-.55-.7-.25q1.1-2.3 3.2-3.55l1.9-.75-.15-.6-.2-1.45 1.05-.25.1 1.45.15.75 2.3.05q-.1-.55.15-1.15l.65-.75 1.3.35-.85.5q-.45.5-.5 1.25l2.2.75 1.15.45q.15-.85.9-1.45l.8-.25 1.1.35-.95.6-.7 1.25 4.15 1.55q.15-.95.55-1.7l.45-.4.35.1.65.25-.45.7-.45 1.45 2.9.85q.15-.8.55-1.5l.5-.7.95.25-.45.85-.4 1.45 2.7.6 1.8.35.2-1.5.35-1.15.95.05-.3 1.4-.15 1.35 2.3.2h2.9q0-.95-.4-1.95L35.6 30l.85-.1.65.7q.55.95.5 2.35zm-33.65-14v-.2l.35-.7q.6-.25 1.5-.35l1.4.15.45-.7 2.05-1.05-.35-.3q-.85-.7-1.65-.7h-.5l.55-.3 1.6.4.75.65 1-.5.8-.55q-.6-.75-2.1-1l.1-.1.3-.1q1.25.05 1.85.9l.1.15.55-.5 1.1-.4-.1-2.35.8-.15-.25 1.65-.05.8 2.2.2 3.1.6.05-2.15.6.1.15 1.4-.05.75 2.05.25 2.45.25-.2-2.4.6.1.2 2.35 2.1.1 1 .05.3-2 .7.1-.4 1.95.95.1.9.35.05.55-.05.2-.15-.05-1.85-.3-.6-.1-1.2-.05-1.85-.05-.7-.05-4.45-.6-.4-.1-.35-.1-2.4-.45-1.85-.35-.95.05-.35.05-.45.15-1 .7-.1.1-.1.1-.75.65-1.1.7-.15.1-.25.2q-.75.55-1.25 1.25l-.3.4-.35.6v.2q-.15.45 0 .8l-.6-.4q-.8-.7-.45-1.7l-.8-.1-1.8.25z"/><path fill="#cdab53" fill-rule="evenodd" d="M43.3 18.5q1.8.05 1.05 1.05-.55.75-1.4-.2t.35-.85m-10.1-8.4.4-.15q.45-.1.55.15.15 2.3-.95 0m-3.3-3.3 1.2.3q1.25.45 1.45 1.15-.6.5-.8.3l-.7-.7-1.15-.55q-.5-.25 0-.5M26 6.35q2.1-.55 2 0-.1.45-1.45.6t-.55-.6m-3.15 6 1.1-.1 2 .3q.4.2 0 .4l-1.05.1-1.75-.05q-1-.1-.3-.65m5.8.35q.95.1 1.35.5.3.2-.05.35l-.75-.1-1.2-.25q-.7-.15-.15-.55zm-2.2 5.75q1 0 1 .25l-1.6.25-.1-.2q0-.3.7-.3M25.4 24.4l-2.05.2q-1.55-.3-.45-.85 3.15.05 2.5.65m6.4-.4q-.05-.2.9-.4 1.2-.25.85.15-.3.4-1.55.45zm-2.1.5q-4.2.35-1.65-.5 2.9.4 1.65.5M13.6 12l.6-.5.95-.05q.45.5-.4 1.15-.8.6-1.15-.6m6.85.1q.4.25-.05.35h-1.05q-3.15-.8-1.95-1.45l1.1.3q1.25.35 1.95.8M7 19.35l-.05-.8q.05-.75.85-.3 1.05.6.75 1.55T7 19.35m10.9 3.85.5-.1 1.4.15q1.2.3.75.65-.45.25-2.65-.7m4.1-4.5q1.2-.1 1.35.4.2.45-2.4.4l.1-.35q.25-.4.95-.45m20.1 9.6q-.65 1.15-1.2 1.15-.35 0-.1-.6l.35-.65q1.55-1 .95.1m-6.5 3.25Q35.45 32 32 31l1.3-.4q1.4-.3 1.6 0zm-8.75-1.65.65-.05 1.35.6-2.05-.25q-.05-.15.05-.3m-4.15-.45-.05-.4q.05-.35.5-.3.85.1 1.25.75z"/></svg>