<?xml version="1.0" encoding="UTF-8" standalone="no"?>
<svg xmlns:ffdec="https://www.free-decompiler.com/flash" xmlns:xlink="http://www.w3.org/1999/xlink" ffdec:objectType="shape" height="52.0px" width="52.0px" xmlns="http://www.w3.org/2000/svg">
  <g transform="matrix(1.0, 0.0, 0.0, 1.0, 0.0, 0.0)">
    <path d="M48.0 0.0 Q52.0 0.0 52.0 4.0 L52.0 48.0 Q52.0 52.0 48.0 52.0 L4.0 52.0 Q0.0 52.0 0.0 48.0 L0.0 4.0 Q0.0 0.0 4.0 0.0 L48.0 0.0" fill="#ffffff" fill-opacity="0.0" fill-rule="evenodd" stroke="none"/>
    <path d="M26.55 9.5 Q31.75 9.65 35.45 13.35 L36.0 14.0 Q39.2 17.55 39.2 22.5 L38.95 25.35 Q38.4 27.85 36.95 29.95 L35.85 31.35 35.7 31.15 35.5 30.9 35.25 30.6 34.65 29.95 Q28.5 23.55 21.7 25.9 18.35 27.1 16.0 29.65 L15.6 30.05 Q13.2 26.7 13.2 22.5 13.2 17.7 16.4 14.0 L17.05 13.35 Q20.75 9.65 25.9 9.5 L26.55 9.5 M20.75 17.25 L23.75 21.85 24.3 21.45 21.35 16.85 20.75 17.25 M30.15 23.6 Q31.45 24.3 32.75 24.2 36.35 24.0 35.8 18.1 L33.55 20.15 Q30.9 22.25 28.8 22.3 28.95 22.95 30.15 23.6 M28.15 22.7 L31.15 18.1 30.55 17.7 27.55 22.3 28.15 22.7 M30.6 42.75 Q30.85 40.8 33.15 39.2 35.15 36.7 30.6 36.15 L27.55 36.1 29.75 40.45 30.6 42.75 M24.95 36.05 L21.55 36.55 Q17.1 37.6 19.4 39.85 21.3 40.9 22.05 42.3 L22.75 40.45 24.95 36.05 M18.75 42.15 Q13.85 38.15 19.8 36.2 21.6 35.6 23.8 35.3 19.95 34.65 17.05 31.75 L16.3 30.9 16.4 30.8 Q19.0 28.75 22.6 27.9 28.1 26.65 32.4 29.95 L34.45 31.9 34.65 32.1 34.85 32.35 34.8 32.4 Q32.2 34.6 28.95 35.25 L32.35 35.6 Q38.5 36.9 34.1 41.4 33.5 41.75 33.7 42.45 33.95 43.25 35.3 43.65 36.8 44.4 35.85 45.7 34.85 47.0 31.9 45.95 L31.35 45.65 Q31.85 48.15 31.7 50.45 L20.8 50.45 Q20.7 48.6 21.0 46.65 18.55 47.7 17.5 46.6 16.4 45.45 17.8 44.5 19.1 43.95 19.25 43.15 19.35 42.45 18.75 42.15 M12.35 6.9 Q11.65 8.05 13.35 10.35 13.65 8.75 14.6 8.4 15.3 8.15 16.0 8.4 15.05 8.7 15.1 10.2 L15.15 12.7 Q14.7 17.35 11.1 17.25 7.85 17.2 7.4 15.85 L6.85 15.65 Q6.65 15.5 6.9 15.0 5.65 14.45 6.1 13.3 L6.65 14.0 Q6.95 14.15 7.4 13.6 6.7 12.05 7.25 10.95 7.85 9.8 7.4 8.65 7.8 8.7 8.45 9.6 L9.35 10.35 Q9.6 10.4 9.35 9.85 8.9 8.9 9.45 7.95 9.7 6.8 10.85 6.4 L13.35 5.0 Q13.35 5.75 12.35 6.9 M21.6 23.6 Q22.8 22.95 22.95 22.3 20.85 22.25 18.2 20.15 L15.95 18.1 Q15.4 24.0 19.0 24.2 20.3 24.3 21.6 23.6" fill="#ffffff" fill-rule="evenodd" stroke="none"/>
  </g>
</svg>
