<svg xmlns="http://www.w3.org/2000/svg" xmlns:ffdec="https://www.free-decompiler.com/flash" ffdec:objectType="shape" width="52" height="52"><path fill="none" d="M48 0q4 0 4 4v44q0 4-4 4H4q-4 0-4-4V4q0-4 4-4z"/><path fill="#fff" fill-rule="evenodd" d="M40.9 21.9q.8 4.7-1.85 8.9l-1.75 2.3q-2.55 2.65-6.35 3.55l-6.65-.2.15.25q9.7 3.05 13.85 9.35 1.75 2.7 2.15 4.95h-3.6q-1.45-5.95-6.95-10.25L25.1 38l1.45 2.95q2.2 5.4 1.95 10l-.2.05-10.7-.05v-.05q-.25-4.6 1.95-9.95l1.85-3.7q-8.3 2.7-11.15 8.75-1.2 2.65-1.2 4.9h-4.7Q6.8 43.55 14.65 39q3.95-2.35 7.45-3.15l.15-.25-1.1-.65q-4.6-2.85-5.8-8-1.15-5.35 1.65-9.9 2.55-4.05 7.2-5.6l.9-.1q5.3-1.25 9.8 1.55 4.6 2.9 5.8 8.15zm-20.35-4.85q-1.85.15-3.1 1.55-1.2 1.45-1.05 3.3t1.5 3.05l.7.5q1.05.55 2.4.55 1.35-.2 2.2-1.1l.55-.9.25-1.5q-.15-1.45-1.15-2.35l-.65-.4q-.75-.45-1.6-.45-.85.15-1.4.8l-.4.75q-.2.4-.15.85.05.9.75 1.55l1.15.35q.9-.05 1.2-.6l-.4-.65q-.25.55-.7.5l-.75-.2q-.35-.4-.4-1-.05-.55.35-1.1l.8-.4 1.1.3.55.35.8 1.15.1.6q.05 1.05-.6 1.75-.6.75-1.65.85h-.15l-1.6-.3-.75-.55q-.9-.75-1.15-1.95l-.05-.55q-.1-1.55.75-2.6 1.1-1.15 2.6-1.25t2.6.8q1.35 1.2 1.45 2.6l.9-.45q-.05-.85-.55-1.55l-1.2-1.25q-1.4-1.2-3.25-1.05m10.7 7.35q.1.75.55 1.4.85 1.15 2.25 1.4l.7.05 1.65-.45q.65-.5.8-1.4l-.05-.85-.3-.75q-.5-.8-1.45-.95-.5-.15-1.1.25-.85.5-.8 1.2l.7.3q-.1-.6.35-.8l.7-.2q.55.15.9.7.3.4.2 1.1l-.45.75-1.05.3h-.7q-.7-.15-1.25-.6l-.4-.5q-.6-.85-.4-1.8.15-.95 1-1.6l.15-.05q.75-.55 1.5-.5l.95.05q1.15.15 2 1.05l.3.5q.9 1.25.7 2.65-.4 1.45-1.65 2.35-1.25.85-2.65.6-1.85-.4-2.65-1.5l-.55.85L32.5 29l1.65.45q1.85.35 3.35-.75 1.55-1.05 1.9-2.8.4-1.85-.7-3.35-1.05-1.55-2.9-1.9l-.8-.1q-1.2 0-2.4.75-1.05.8-1.25 2.05zM19.8 27.55q-2.8.65-.15 1.8l6.65 1.9q2 .6 4.1 2.3 1.3 1.05 1.9.4.3-1.75-.7-2.75-1.1-1.1-5.15-2.95-3.6-1.2-5.5-1.1zM11.6 12.6l-1.35 1.6q-1.45.95-1.85-.3-.4-1.2 1.3-2.2 1.4-.9 3.5.2 1.05.5 1.8 1.2-2.4-1.3-3.4-.5m.45-5.25.55 2.05q-.95-2.55-2.25-2.6l-2.1.35q-1.7-.2-1.2-1.35.4-1.15 2.45-.9 1.65.3 2.55 2.45M17.3 9l-1.2-2.35q-1.3-2.1.35-2.5 1.75.1 1.4 2.6z"/></svg>