<svg xmlns="http://www.w3.org/2000/svg" xml:space="preserve" style="width:32px;height:32px;opacity:1" viewBox="0 0 512 512"><path d="M511.863 213.838c-1.828-48.398-22.652-93.485-58.64-126.954-35.36-32.882-81.466-50.996-129.825-50.996H76.137c-24.875 0-45.114 20.238-45.114 45.114v53.922c0 24.875 20.238 45.114 45.114 45.114h248.426c22.219 0 41.149 16.187 43.094 36.851 1.102 11.707-2.613 22.906-10.468 31.535-7.875 8.652-18.618 13.418-30.242 13.418H241v-27.75c0-23.313-18.969-42.282-42.281-42.285a42.2 42.2 0 0 0-22.746 6.636L19.539 298.264C7.309 306.064.004 319.388 0 333.9c-.004 14.511 7.297 27.836 19.527 35.644l156.43 99.914a42.17 42.17 0 0 0 22.754 6.653c23.32 0 42.289-18.969 42.289-42.286v-27.832h85.946c50.695 0 98.023-20.16 133.27-56.762 35.222-36.577 53.566-84.663 51.647-135.393M200.621 365.455h-.16v68.371c0 1.023-.84 1.746-1.75 1.746-.313 0-.637-.086-.934-.278L41.344 335.376a1.745 1.745 0 0 1 0-2.941l156.434-99.817a1.76 1.76 0 0 1 .934-.274c.91 0 1.75.723 1.75 1.746v68.289h126.485c47.496 0 85.629-40.871 81.07-89.293-3.969-42.195-41.07-73.59-83.454-73.59H76.137a4.573 4.573 0 0 1-4.574-4.574v-53.92a4.57 4.57 0 0 1 4.574-4.574h247.262c21.684 0 42.406 4.801 61.211 13.207 36.398 16.445 65.289 46.805 78.734 83.988a140.1 140.1 0 0 1 8.012 41.746c3.105 82.21-62.875 150.086-144.41 150.086H200.621" style="fill:#f0f0f0"/></svg>