<?xml version="1.0" encoding="UTF-8" standalone="no"?>
<svg xmlns:ffdec="https://www.free-decompiler.com/flash" xmlns:xlink="http://www.w3.org/1999/xlink" ffdec:objectType="shape" height="52.0px" width="52.0px" xmlns="http://www.w3.org/2000/svg">
  <g transform="matrix(1.0, 0.0, 0.0, 1.0, 0.0, 0.0)">
    <path d="M48.0 0.0 Q52.0 0.0 52.0 4.0 L52.0 48.0 Q52.0 52.0 48.0 52.0 L4.0 52.0 Q0.0 52.0 0.0 48.0 L0.0 4.0 Q0.0 0.0 4.0 0.0 L48.0 0.0" fill="#ffffff" fill-opacity="0.0" fill-rule="evenodd" stroke="none"/>
    <path d="M41.55 15.4 Q45.15 14.1 44.75 16.6 45.35 18.5 46.0 18.85 L46.0 51.0 34.4 51.0 32.6 50.6 Q32.45 48.05 31.8 45.15 34.35 47.7 35.95 48.15 37.55 48.6 39.65 47.45 41.9 46.25 41.6 42.15 41.35 38.9 40.1 36.7 39.05 34.9 38.45 34.45 37.65 33.85 36.05 34.05 33.95 34.7 33.75 36.5 L34.1 39.1 Q34.45 40.8 35.1 41.1 L37.05 41.3 Q38.35 43.6 37.75 44.55 37.25 45.4 36.2 44.8 34.6 43.9 29.25 38.05 L28.45 36.45 Q32.55 35.75 35.65 32.7 L37.05 33.0 Q38.6 32.7 38.05 29.5 39.65 26.6 39.65 23.0 39.65 17.35 35.65 13.35 31.7 9.35 26.0 9.35 23.6 9.35 21.55 10.1 L21.6 10.0 Q20.45 7.5 20.85 5.55 21.15 4.15 22.2 2.85 23.0 1.8 24.35 0.75 24.0 1.8 24.2 2.85 24.5 4.6 26.15 6.4 28.5 8.95 30.0 9.0 32.0 9.05 33.4 7.05 L35.1 3.3 Q35.8 5.25 35.25 7.85 34.9 9.65 36.75 11.5 36.5 9.25 37.45 7.75 37.9 6.95 40.0 4.85 40.0 6.6 41.9 8.55 42.95 9.65 40.5 13.0 39.25 15.25 39.7 15.65 L41.55 15.4 M16.4 10.25 Q16.25 8.35 15.35 7.35 16.95 7.3 18.4 9.0 19.8 10.65 20.25 10.6 18.1 11.6 16.35 13.35 12.35 17.35 12.35 23.0 12.35 26.45 13.7 29.0 12.9 31.0 13.15 32.15 13.55 33.75 16.2 32.5 L16.35 32.65 Q19.65 35.95 23.75 36.5 17.2 44.95 14.7 44.65 14.4 43.9 15.25 41.3 L16.55 41.25 Q17.1 41.15 17.7 40.0 18.35 38.8 18.45 38.0 L18.45 37.45 18.35 36.35 Q18.05 35.05 16.85 34.3 L14.0 34.15 Q13.1 34.45 12.45 35.4 11.55 36.8 10.8 39.15 9.75 42.4 10.3 44.4 11.1 46.9 12.3 47.75 L15.95 47.95 Q18.4 47.25 20.6 44.55 20.2 45.9 19.9 47.8 19.6 49.9 19.65 51.0 L19.65 51.05 18.2 51.0 17.05 50.95 14.0 51.0 11.8 51.0 6.0 51.0 6.0 27.7 Q9.9 25.15 9.05 23.35 L7.25 22.0 6.0 20.55 6.0 18.5 Q7.25 19.6 9.1 19.45 10.35 19.35 10.7 18.5 11.05 17.55 10.0 16.1 8.1 13.5 8.5 9.5 9.0 5.0 8.35 3.5 10.4 5.15 12.0 10.6 12.55 12.45 13.2 12.9 14.1 13.55 15.85 12.5 16.55 12.05 16.4 10.25" fill="#ffffff" fill-opacity="0.29803923" fill-rule="evenodd" stroke="none"/>
    <path d="M21.1 22.1 Q22.0 21.25 22.0 20.0 22.0 18.75 21.1 17.85 20.25 17.0 19.0 17.0 17.75 17.0 16.85 17.85 16.0 18.75 16.0 20.0 16.0 21.25 16.85 22.1 17.75 23.0 19.0 23.0 20.25 23.0 21.1 22.1 M21.15 14.65 L20.55 15.05 23.55 19.65 24.1 19.25 21.15 14.65 M46.7 43.0 L46.9 41.2 49.35 41.55 46.7 43.0 M44.65 10.95 L46.8 8.6 50.15 11.1 49.9 14.5 46.9 14.5 44.65 10.95 M27.95 19.5 L30.95 14.9 30.35 14.5 27.35 19.1 27.95 19.5 M28.7 22.25 L26.2 22.05 26.2 28.3 28.7 28.35 28.7 22.25 M23.2 22.3 L23.2 28.4 25.35 28.3 25.7 28.3 25.7 22.05 23.2 22.3 M2.55 7.05 L5.05 7.2 4.8 10.6 2.55 7.05 M31.7 23.2 Q30.55 22.6 29.2 22.35 L29.2 28.35 31.7 28.65 31.7 23.2 M33.0 17.0 Q31.75 17.0 30.85 17.85 30.0 18.75 30.0 20.0 30.0 21.25 30.85 22.1 31.75 23.0 33.0 23.0 34.25 23.0 35.1 22.1 36.0 21.25 36.0 20.0 36.0 18.75 35.1 17.85 34.25 17.0 33.0 17.0 M34.75 13.25 L35.25 13.75 Q37.9 16.65 38.75 20.15 L39.0 23.0 Q39.0 26.45 37.4 29.35 37.85 30.8 37.6 31.6 37.25 32.65 35.5 31.9 L35.25 32.15 34.05 33.25 Q31.0 35.65 27.05 35.95 L27.35 36.55 27.75 36.8 30.1 40.05 30.4 40.45 31.6 41.8 33.55 43.65 35.75 45.25 Q38.65 46.95 38.4 43.75 38.15 40.35 36.85 40.3 L35.7 40.25 34.6 37.45 Q34.65 35.1 36.25 34.85 L37.85 35.05 Q39.75 36.0 40.7 40.85 41.7 46.1 38.45 47.35 36.15 48.15 33.2 45.35 31.55 43.85 29.7 41.25 L30.9 45.05 31.15 46.05 31.4 47.6 31.55 49.2 20.6 49.2 Q20.6 48.4 20.75 47.6 L21.0 46.05 21.2 45.05 Q21.65 43.1 22.5 41.1 L22.25 41.5 20.25 44.0 19.85 44.5 19.25 45.1 Q16.1 48.2 13.6 47.35 10.35 46.1 11.35 40.85 12.3 36.0 14.2 35.05 L15.8 34.85 Q17.4 35.1 17.45 37.45 L16.35 40.25 15.2 40.3 Q13.9 40.35 13.65 43.75 13.4 46.95 16.3 45.25 L18.2 43.95 21.95 40.05 24.3 36.8 24.5 36.6 24.75 36.55 25.05 36.0 Q21.2 35.75 18.1 33.25 L16.85 32.15 16.3 31.7 Q14.25 32.75 13.9 31.45 13.65 30.5 14.3 28.7 13.0 26.25 13.0 23.0 13.0 17.7 16.85 13.75 L17.4 13.25 Q21.05 10.0 26.0 10.0 31.05 10.0 34.75 13.25 M17.9 24.7 L17.9 29.15 19.7 28.75 19.7 23.4 Q18.7 23.95 17.9 24.7 M17.4 29.3 L17.4 25.2 Q15.5 27.4 15.65 30.25 16.2 29.7 17.4 29.3 M34.0 24.85 L32.2 23.45 32.2 28.7 34.0 29.15 34.0 24.85 M34.5 29.35 Q35.5 29.7 36.15 30.25 36.35 27.6 34.5 25.4 L34.5 29.35 M20.2 28.7 L22.7 28.45 22.7 22.4 20.2 23.15 20.2 28.7 M31.55 50.0 L31.5 50.95 20.6 50.95 20.6 50.0 31.55 50.0" fill="#ffffff" fill-rule="evenodd" stroke="none"/>
  </g>
</svg>
