<?xml version="1.0" encoding="UTF-8" standalone="no"?>
<svg xmlns:ffdec="https://www.free-decompiler.com/flash" xmlns:xlink="http://www.w3.org/1999/xlink" ffdec:objectType="shape" height="35.8px" width="48.0px" xmlns="http://www.w3.org/2000/svg">
  <g transform="matrix(1.0, 0.0, 0.0, 1.0, 2.0, 2.0)">
    <path d="M33.55 10.8 L33.9 12.35 Q36.5 13.25 38.35 14.6 L39.6 15.5 41.25 16.1 Q41.2 13.95 39.5 12.6 37.5 10.85 33.55 10.8 M43.95 15.15 Q44.15 16.65 43.7 18.15 L43.6 18.5 43.6 20.4 Q43.45 22.15 42.9 23.85 41.25 28.7 36.75 30.8 29.35 34.2 11.0 26.3 7.55 24.7 5.0 26.7 L1.65 29.9 1.7 29.35 0.7 29.0 1.15 27.75 0.0 27.6 Q0.8 25.95 2.4 24.55 5.65 21.75 9.7 22.75 13.0 23.6 20.1 26.2 26.9 28.4 32.05 28.15 37.45 27.9 39.5 25.05 40.4 23.9 40.8 21.15 L39.5 21.85 Q32.15 25.4 21.3 24.5 16.85 24.15 12.45 23.05 8.8 22.1 6.45 21.05 4.6 20.25 3.95 18.85 3.4 17.7 3.85 16.25 4.3 15.0 5.5 13.8 6.65 12.7 8.15 12.1 L10.25 10.9 11.45 9.85 12.75 9.05 15.4 8.65 16.35 8.8 17.25 9.2 17.95 9.5 Q22.1 7.75 27.9 7.75 L26.65 6.9 24.1 6.6 22.15 7.3 19.9 8.1 16.3 8.2 Q15.25 7.8 14.6 6.45 14.1 5.45 14.05 4.3 14.05 3.15 14.5 2.2 15.1 0.9 16.15 0.4 L16.65 0.2 17.85 0.0 Q20.0 0.0 20.35 0.9 20.65 1.65 19.95 2.6 L19.3 3.35 Q18.9 3.7 17.85 3.7 L17.5 3.9 Q17.05 4.3 17.5 4.95 17.9 5.55 18.65 5.65 20.25 4.6 22.15 4.2 L26.0 4.0 Q30.3 4.5 32.2 7.95 L37.3 8.75 Q43.4 10.55 43.95 15.15 M24.4 19.3 L22.7 19.45 Q15.55 20.6 12.65 18.3 11.15 17.05 11.1 15.35 11.05 14.5 11.3 13.65 9.55 14.65 8.55 15.9 6.65 18.15 9.7 19.2 13.6 20.45 19.1 21.2 L28.8 21.65 33.3 20.8 Q35.95 20.15 37.9 19.25 L39.8 18.15 Q38.4 17.95 36.25 16.8 L33.95 15.5 Q33.1 17.5 28.1 18.65 L24.4 19.3 M23.25 16.45 Q27.2 16.1 29.1 15.35 L29.8 15.05 30.8 14.05 27.0 13.55 19.6 12.75 16.85 12.2 Q16.0 12.55 15.25 13.15 L14.8 13.7 Q14.3 14.25 14.35 14.8 15.05 15.8 17.25 16.25 L23.25 16.45" fill="#e2b238" fill-rule="evenodd" stroke="none"/>
    <path d="M43.95 15.15 Q43.4 10.55 37.3 8.75 L32.2 7.95 Q30.3 4.5 26.0 4.0 L22.15 4.2 Q20.25 4.6 18.65 5.65 17.9 5.55 17.5 4.95 17.05 4.3 17.5 3.9 L17.85 3.7 Q18.9 3.7 19.3 3.35 L19.95 2.6 Q20.65 1.65 20.35 0.9 20.0 0.0 17.85 0.0 L16.65 0.2 16.15 0.4 Q15.1 0.9 14.5 2.2 14.05 3.15 14.05 4.3 14.1 5.45 14.6 6.45 15.25 7.8 16.3 8.2 L19.9 8.1 22.15 7.3 24.1 6.6 26.65 6.9 27.9 7.75 Q22.1 7.75 17.95 9.5 L17.25 9.2 16.35 8.8 15.4 8.65 12.75 9.05 11.45 9.85 10.25 10.9 8.15 12.1 Q6.65 12.7 5.5 13.8 4.3 15.0 3.85 16.25 3.4 17.7 3.95 18.85 4.6 20.25 6.45 21.05 8.8 22.1 12.45 23.05 16.85 24.15 21.3 24.5 32.15 25.4 39.5 21.85 L40.8 21.15 Q40.4 23.9 39.5 25.05 37.45 27.9 32.05 28.15 26.9 28.4 20.1 26.2 13.0 23.6 9.7 22.75 5.65 21.75 2.4 24.55 0.8 25.95 0.0 27.6 L1.15 27.75 0.7 29.0 1.7 29.35 1.65 29.9 5.0 26.7 Q7.55 24.7 11.0 26.3 29.35 34.2 36.75 30.8 41.25 28.7 42.9 23.85 43.45 22.15 43.6 20.4 L43.6 18.5 43.7 18.15 Q44.15 16.65 43.95 15.15 M33.55 10.8 Q37.5 10.85 39.5 12.6 41.2 13.95 41.25 16.1 L39.6 15.5 38.35 14.6 Q36.5 13.25 33.9 12.35 L33.55 10.8 M24.4 19.3 L22.7 19.45 Q15.55 20.6 12.65 18.3 11.15 17.05 11.1 15.35 11.05 14.5 11.3 13.65 9.55 14.65 8.55 15.9 6.65 18.15 9.7 19.2 13.6 20.45 19.1 21.2 L28.8 21.65 33.3 20.8 Q35.95 20.15 37.9 19.25 L39.8 18.15 Q38.4 17.95 36.25 16.8 L33.95 15.5 Q33.1 17.5 28.1 18.65 L24.4 19.3 M23.25 16.45 L17.25 16.25 Q15.05 15.8 14.35 14.8 14.3 14.25 14.8 13.7 L15.25 13.15 Q16.0 12.55 16.85 12.2 L19.6 12.75 27.0 13.55 30.8 14.05 29.8 15.05 29.1 15.35 Q27.2 16.1 23.25 16.45 Z" fill="none" stroke="#ffffff" stroke-linecap="round" stroke-linejoin="round" stroke-width="4.0"/>
    <path d="M23.25 16.45 Q27.2 16.1 29.1 15.35 L29.8 15.05 30.8 14.05 27.0 13.55 19.6 12.75 16.85 12.2 Q16.0 12.55 15.25 13.15 L14.8 13.7 Q14.3 14.25 14.35 14.8 15.05 15.8 17.25 16.25 L23.25 16.45 M33.55 10.8 L33.9 12.35 Q36.5 13.25 38.35 14.6 L39.6 15.5 41.25 16.1 Q41.2 13.95 39.5 12.6 37.5 10.85 33.55 10.8 M43.95 15.15 Q44.15 16.65 43.7 18.15 L43.6 18.5 43.6 20.4 Q43.45 22.15 42.9 23.85 41.25 28.7 36.75 30.8 29.35 34.2 11.0 26.3 7.55 24.7 5.0 26.7 L1.65 29.9 1.7 29.35 0.7 29.0 1.15 27.75 0.0 27.6 Q0.8 25.95 2.4 24.55 5.65 21.75 9.7 22.75 13.0 23.6 20.1 26.2 26.9 28.4 32.05 28.15 37.45 27.9 39.5 25.05 40.4 23.9 40.8 21.15 L39.5 21.85 Q32.15 25.4 21.3 24.5 16.85 24.15 12.45 23.05 8.8 22.1 6.45 21.05 4.6 20.25 3.95 18.85 3.4 17.7 3.85 16.25 4.3 15.0 5.5 13.8 6.65 12.7 8.15 12.1 L10.25 10.9 11.45 9.85 12.75 9.05 15.4 8.65 16.35 8.8 17.25 9.2 17.95 9.5 Q22.1 7.75 27.9 7.75 L26.65 6.9 24.1 6.6 22.15 7.3 19.9 8.1 16.3 8.2 Q15.25 7.8 14.6 6.45 14.1 5.45 14.05 4.3 14.05 3.15 14.5 2.2 15.1 0.9 16.15 0.4 L16.65 0.2 17.85 0.0 Q20.0 0.0 20.35 0.9 20.65 1.65 19.95 2.6 L19.3 3.35 Q18.9 3.7 17.85 3.7 L17.5 3.9 Q17.05 4.3 17.5 4.95 17.9 5.55 18.65 5.65 20.25 4.6 22.15 4.2 L26.0 4.0 Q30.3 4.5 32.2 7.95 L37.3 8.75 Q43.4 10.55 43.95 15.15 M24.4 19.3 L22.7 19.45 Q15.55 20.6 12.65 18.3 11.15 17.05 11.1 15.35 11.05 14.5 11.3 13.65 9.55 14.65 8.55 15.9 6.65 18.15 9.7 19.2 13.6 20.45 19.1 21.2 L28.8 21.65 33.3 20.8 Q35.95 20.15 37.9 19.25 L39.8 18.15 Q38.4 17.95 36.25 16.8 L33.95 15.5 Q33.1 17.5 28.1 18.65 L24.4 19.3" fill="#e2b238" fill-rule="evenodd" stroke="none"/>
    <path d="M43.95 15.15 Q43.4 10.55 37.3 8.75 L32.2 7.95 Q30.3 4.5 26.0 4.0 L22.15 4.2 Q20.25 4.6 18.65 5.65 17.9 5.55 17.5 4.95 17.05 4.3 17.5 3.9 L17.85 3.7 Q18.9 3.7 19.3 3.35 L19.95 2.6 Q20.65 1.65 20.35 0.9 20.0 0.0 17.85 0.0 L16.65 0.2 16.15 0.4 Q15.1 0.9 14.5 2.2 14.05 3.15 14.05 4.3 14.1 5.45 14.6 6.45 15.25 7.8 16.3 8.2 L19.9 8.1 22.15 7.3 24.1 6.6 26.65 6.9 27.9 7.75 Q22.1 7.75 17.95 9.5 L17.25 9.2 16.35 8.8 15.4 8.65 12.75 9.05 11.45 9.85 10.25 10.9 8.15 12.1 Q6.65 12.7 5.5 13.8 4.3 15.0 3.85 16.25 3.4 17.7 3.95 18.85 4.6 20.25 6.45 21.05 8.8 22.1 12.45 23.05 16.85 24.15 21.3 24.5 32.15 25.4 39.5 21.85 L40.8 21.15 Q40.4 23.9 39.5 25.05 37.45 27.9 32.05 28.15 26.9 28.4 20.1 26.2 13.0 23.6 9.7 22.75 5.65 21.75 2.4 24.55 0.8 25.95 0.0 27.6 L1.15 27.75 0.7 29.0 1.7 29.35 1.65 29.9 5.0 26.7 Q7.55 24.7 11.0 26.3 29.35 34.2 36.75 30.8 41.25 28.7 42.9 23.85 43.45 22.15 43.6 20.4 L43.6 18.5 43.7 18.15 Q44.15 16.65 43.95 15.15 M33.55 10.8 Q37.5 10.85 39.5 12.6 41.2 13.95 41.25 16.1 L39.6 15.5 38.35 14.6 Q36.5 13.25 33.9 12.35 L33.55 10.8 M23.25 16.45 L17.25 16.25 Q15.05 15.8 14.35 14.8 14.3 14.25 14.8 13.7 L15.25 13.15 Q16.0 12.55 16.85 12.2 L19.6 12.75 27.0 13.55 30.8 14.05 29.8 15.05 29.1 15.35 Q27.2 16.1 23.25 16.45 M24.4 19.3 L22.7 19.45 Q15.55 20.6 12.65 18.3 11.15 17.05 11.1 15.35 11.05 14.5 11.3 13.65 9.55 14.65 8.55 15.9 6.65 18.15 9.7 19.2 13.6 20.45 19.1 21.2 L28.8 21.65 33.3 20.8 Q35.95 20.15 37.9 19.25 L39.8 18.15 Q38.4 17.95 36.25 16.8 L33.95 15.5 Q33.1 17.5 28.1 18.65 L24.4 19.3 Z" fill="none" stroke="#46350a" stroke-linecap="round" stroke-linejoin="round" stroke-width="2.0"/>
    <path d="M40.5 10.1 L40.15 10.2 Q39.35 10.5 39.1 11.25 38.35 10.75 37.25 10.35 L36.1 10.0 36.15 9.4 36.4 8.55 37.3 8.75 Q39.15 9.3 40.5 10.1 M35.8 8.45 L35.6 9.1 35.5 9.85 34.05 9.7 33.2 9.7 33.55 10.75 Q31.8 9.7 30.85 10.55 L30.85 10.6 30.45 9.25 29.6 8.2 Q29.95 7.7 30.5 7.6 L31.9 7.7 32.1 7.8 32.2 7.95 32.45 8.0 35.8 8.45 M41.25 16.1 L41.3 16.1 41.3 16.05 41.25 14.55 42.1 14.05 Q43.35 13.75 43.85 15.35 43.45 13.2 42.2 13.35 41.5 13.5 41.1 13.95 40.65 12.6 39.55 11.6 L39.75 11.15 Q40.15 10.45 41.1 10.5 43.6 12.25 43.95 15.15 L44.0 15.85 Q44.05 17.0 43.7 18.15 L43.7 18.3 43.6 18.5 43.55 18.2 41.7 18.3 41.25 18.7 40.45 17.85 39.8 17.6 39.5 17.45 Q39.9 16.5 40.65 16.2 L41.05 16.05 41.25 16.1 M43.7 18.95 L43.6 20.4 43.4 22.1 Q42.75 21.2 41.65 21.4 L41.3 21.5 Q41.7 20.2 41.45 19.2 42.35 18.6 43.1 18.8 L43.7 18.95 M43.2 22.8 L42.9 23.85 42.0 25.85 Q41.85 24.8 40.65 24.7 L39.7 24.85 40.2 23.75 41.1 22.1 41.5 22.0 Q42.75 21.9 43.2 22.8 M41.75 26.35 Q40.75 28.0 39.3 29.25 39.55 27.75 38.15 27.25 L37.2 27.0 39.0 25.7 39.15 25.5 39.2 25.5 40.3 25.3 Q41.35 25.35 41.75 26.35 M38.35 29.9 L37.5 30.45 35.6 30.95 Q35.65 29.55 35.1 28.6 L34.45 27.9 36.6 27.25 37.95 28.2 Q38.5 28.95 38.35 29.9 M1.0 29.1 L0.7 29.0 1.15 27.75 0.0 27.6 Q0.8 25.95 2.4 24.55 4.0 23.2 5.75 22.75 L5.95 24.2 6.1 24.8 4.2 25.55 Q2.1 26.8 1.0 29.1 M6.8 22.5 L9.7 22.75 10.15 22.85 9.5 23.6 Q9.25 24.2 9.35 24.75 L7.05 24.7 6.9 23.95 6.8 22.5 M11.45 23.2 L15.15 24.45 14.35 24.7 Q13.6 25.3 13.45 26.15 L12.3 25.7 10.1 24.95 Q10.15 24.2 10.6 23.7 L11.45 23.2 M16.25 24.8 L19.75 26.1 19.3 26.5 Q18.9 27.25 18.75 28.2 L14.6 26.65 15.3 25.4 16.25 24.8 M20.75 26.45 L23.8 27.25 23.3 27.95 Q22.9 28.65 22.75 29.45 L19.85 28.6 20.3 27.15 20.75 26.45 M24.75 27.5 L28.95 28.1 28.6 29.25 28.4 30.75 26.6 30.4 23.9 29.8 24.3 28.35 24.75 27.5 M29.9 28.15 L32.05 28.15 33.6 28.0 34.25 29.15 Q34.65 30.15 34.65 31.1 L31.75 31.1 29.45 30.9 29.6 29.55 29.9 28.15 M3.85 16.55 L3.85 16.45 4.25 15.95 6.05 15.7 6.85 15.8 Q6.5 16.8 7.3 17.5 L7.9 17.9 8.25 18.45 7.5 18.75 Q6.8 19.35 7.0 20.3 L6.55 20.1 Q3.95 18.65 3.85 16.55 M4.2 15.55 Q4.65 14.65 5.5 13.8 L7.1 12.6 7.6 12.6 Q8.4 12.6 9.25 13.3 L9.6 13.6 7.55 14.65 7.1 15.35 5.7 15.2 Q4.8 15.3 4.2 15.55 M7.65 12.3 L8.15 12.1 9.7 11.3 Q11.2 11.55 11.8 12.3 L11.0 12.85 10.0 13.35 9.25 12.7 7.65 12.3 M10.1 11.1 L10.25 10.9 11.45 9.85 12.75 9.05 13.6 8.9 13.7 11.25 12.6 11.65 12.05 12.15 11.95 12.0 Q11.35 11.15 10.1 11.1 M14.4 8.75 L15.4 8.65 16.35 8.8 17.25 9.2 17.95 9.5 20.8 8.6 21.1 8.95 21.75 10.05 22.45 10.05 21.95 8.9 21.55 8.4 25.35 7.85 26.0 8.15 Q26.75 8.75 26.95 9.75 L26.4 9.8 24.15 10.05 23.7 10.15 24.45 10.2 24.65 12.6 22.2 12.35 20.15 12.1 20.2 11.35 20.05 9.95 19.45 9.85 19.4 12.0 16.3 11.4 14.1 11.2 14.15 10.4 14.4 8.75 M26.2 7.8 L27.9 7.75 28.25 8.1 28.8 8.7 29.15 9.1 29.65 9.75 27.7 9.75 Q27.7 8.85 27.05 8.25 L26.2 7.8 M26.65 6.9 L26.35 6.75 Q25.9 4.9 27.6 4.55 L28.1 4.5 Q30.2 5.2 31.55 6.9 30.55 6.65 29.75 7.45 L29.35 7.9 Q28.5 7.25 27.35 6.95 L26.65 6.9 M26.25 6.75 L24.15 6.6 Q23.3 5.65 23.4 4.55 L23.6 3.95 26.0 4.0 27.15 4.2 26.9 4.3 Q25.55 5.1 26.25 6.75 M23.8 6.7 Q23.2 6.85 22.15 7.3 L21.85 7.45 21.65 7.5 Q20.1 7.15 19.95 5.85 19.9 5.3 20.0 4.95 21.0 4.45 22.15 4.2 L23.05 4.05 22.95 4.85 Q23.05 5.95 23.8 6.7 M21.1 7.75 L19.9 8.1 16.3 8.2 15.2 7.4 16.3 6.05 16.45 6.0 Q16.8 6.55 17.6 6.35 L18.5 5.65 18.65 5.65 19.45 5.2 Q19.25 5.75 19.4 6.4 19.65 7.5 21.1 7.75 M14.65 6.5 L14.6 6.45 Q14.1 5.45 14.05 4.3 14.05 3.15 14.5 2.2 15.1 0.9 16.15 0.4 15.95 0.6 16.1 0.8 L16.45 1.05 15.3 2.05 16.5 2.0 15.6 3.1 16.7 2.7 16.7 2.85 16.75 3.2 Q15.9 4.1 16.2 5.35 L16.3 5.65 14.65 6.5 M40.15 15.8 L40.0 15.85 Q39.25 16.25 39.05 17.3 L36.6 16.0 Q36.7 15.05 37.25 14.55 37.55 14.35 37.9 14.3 L38.35 14.6 39.6 15.5 40.15 15.8 M37.05 13.75 Q36.75 13.9 36.5 14.2 36.0 14.75 35.95 15.6 L34.2 14.55 33.95 15.5 33.9 15.6 33.65 15.35 Q33.25 13.75 32.35 13.55 L31.35 13.6 31.3 12.15 31.0 11.2 Q31.6 10.6 32.5 10.85 33.2 11.05 33.75 11.55 L33.9 12.35 34.15 13.75 34.35 13.3 34.85 12.7 37.05 13.75 M30.4 11.15 L30.45 11.15 30.65 11.8 30.75 12.85 30.8 13.3 29.9 12.95 28.95 12.85 29.35 10.9 30.4 11.15 M29.8 15.05 Q30.9 15.0 31.25 14.05 L31.95 14.1 Q32.5 14.35 32.85 14.95 32.25 14.9 31.75 15.45 L30.65 16.25 30.0 15.35 29.65 15.15 29.8 15.05 M29.25 15.3 L29.9 16.05 30.1 16.55 29.15 16.95 27.35 17.6 27.3 17.3 26.6 16.0 29.1 15.35 29.25 15.3 M26.1 16.1 L26.55 16.9 26.8 17.75 23.4 18.45 23.35 16.45 26.1 16.1 M22.75 16.5 L22.65 18.5 21.2 18.6 18.25 18.75 18.3 17.75 18.9 16.55 22.75 16.5 M18.2 16.45 Q17.85 16.95 17.7 17.75 L17.6 18.75 14.2 18.85 13.8 18.75 13.65 17.7 Q13.7 16.45 15.2 15.85 L15.5 15.7 17.25 16.25 18.2 16.45 M15.05 15.5 L14.95 15.5 Q13.45 15.75 13.3 17.1 13.15 17.95 13.4 18.6 12.25 18.1 11.4 16.8 L11.25 16.4 11.2 16.25 Q11.95 14.4 13.35 14.5 L14.35 14.8 15.05 15.5 M25.05 10.3 L26.95 10.5 27.6 10.6 28.65 10.8 28.35 12.8 27.35 12.75 25.25 12.65 25.05 10.3 M14.8 13.7 Q14.35 14.2 14.35 14.7 13.8 14.3 13.2 14.15 11.8 13.9 11.1 15.65 L11.1 15.35 Q12.4 12.6 13.9 13.1 L14.8 13.7 M20.35 21.4 L24.05 21.75 24.05 24.0 19.9 23.8 20.05 22.4 20.35 21.4 M24.55 21.75 L28.45 21.7 28.6 23.75 24.75 24.0 Q24.85 23.05 24.55 21.75 M29.05 21.65 L32.75 21.0 33.15 21.9 33.35 22.9 31.75 23.25 29.45 23.65 Q29.45 22.85 29.05 21.65 M33.4 20.8 L36.0 20.0 36.5 20.55 Q36.85 21.1 36.85 21.95 L34.2 22.75 33.9 21.35 33.4 20.8 M36.45 19.9 L37.9 19.25 38.3 19.1 Q39.5 19.5 39.6 20.35 L39.75 20.75 37.55 21.7 Q37.5 20.75 37.05 20.25 L36.45 19.9 M8.8 18.8 L9.7 19.2 11.5 19.7 10.8 20.25 Q10.2 20.85 10.15 21.5 L7.5 20.65 Q7.35 19.7 8.05 19.15 L8.8 18.8 M12.05 19.9 L15.1 20.55 14.45 21.25 Q14.0 22.0 14.05 22.7 L10.9 21.75 10.9 21.65 Q10.9 20.5 12.05 19.9 M15.95 20.7 L19.1 21.2 19.35 21.25 19.1 22.05 Q18.9 22.9 18.95 23.65 L14.85 22.85 Q14.85 22.15 15.35 21.35 L15.95 20.7" fill="#a88837" fill-rule="evenodd" stroke="none"/>
    <path d="M16.15 0.4 L16.65 0.2 17.85 0.0 Q20.0 0.0 20.35 0.9 20.65 1.65 19.95 2.6 L19.3 3.35 Q18.9 3.7 17.85 3.7 L17.5 3.9 Q16.95 3.75 16.75 3.2 L16.7 2.85 16.7 2.7 15.6 3.1 16.5 2.0 15.3 2.05 16.45 1.05 16.1 0.8 Q15.95 0.6 16.15 0.4" fill="#cdab53" fill-rule="evenodd" stroke="none"/>
    <path d="M14.35 14.7 L14.35 14.8 13.35 14.5 Q11.95 14.4 11.2 16.25 L11.1 15.65 Q11.8 13.9 13.2 14.15 13.8 14.3 14.35 14.7" fill="#91742a" fill-rule="evenodd" stroke="none"/>
    <path d="M40.5 10.1 L41.1 10.5 Q40.15 10.45 39.75 11.15 L39.55 11.6 Q40.65 12.6 41.1 13.95 41.5 13.5 42.2 13.35 43.45 13.2 43.85 15.35 43.35 13.75 42.1 14.05 L41.25 14.55 41.3 16.05 41.3 16.1 41.25 16.1 41.25 16.05 41.25 15.6 41.0 14.7 40.9 14.3 Q40.45 13.35 39.5 12.6 L39.0 12.2 Q37.75 11.4 36.05 11.05 L35.6 11.0 33.85 10.8 33.65 10.8 33.55 10.8 33.55 10.75 33.2 9.7 34.05 9.7 35.5 9.85 35.6 9.1 35.8 8.45 36.4 8.55 36.15 9.4 36.1 10.0 37.25 10.35 Q38.35 10.75 39.1 11.25 39.35 10.5 40.15 10.2 L40.5 10.1 M20.8 8.6 L21.55 8.4 21.95 8.9 22.45 10.05 21.75 10.05 21.1 8.95 20.8 8.6 M25.35 7.85 L25.85 7.85 26.2 7.8 27.05 8.25 Q27.7 8.85 27.7 9.75 L27.6 10.6 26.95 10.5 25.05 10.3 24.45 10.2 23.7 10.15 24.15 10.05 26.4 9.8 26.95 9.75 Q26.75 8.75 26.0 8.15 L25.35 7.85 M30.45 11.1 L30.45 11.15 30.4 11.15 30.45 11.1 M12.25 12.8 L12.2 13.0 12.15 12.9 12.25 12.8" fill="#80631b" fill-rule="evenodd" stroke="none"/>
    <path d="M33.55 10.75 L33.55 10.8 33.75 11.55 Q33.2 11.05 32.5 10.85 31.6 10.6 31.0 11.2 L31.3 12.15 31.35 13.6 32.35 13.55 Q33.25 13.75 33.65 15.35 L33.9 15.6 33.75 15.9 33.15 16.6 Q32.3 17.3 30.7 17.9 L30.05 18.1 29.9 18.2 28.1 18.65 27.2 18.85 26.7 18.95 24.4 19.3 22.7 19.45 22.65 19.45 18.75 19.85 18.15 19.85 14.6 19.3 13.9 19.05 13.45 18.85 12.65 18.3 Q11.8 17.6 11.4 16.8 12.25 18.1 13.4 18.6 13.15 17.95 13.3 17.1 13.45 15.75 14.95 15.5 L15.05 15.5 15.5 15.7 15.2 15.85 Q13.7 16.45 13.65 17.7 L13.8 18.75 14.2 18.85 17.6 18.75 17.7 17.75 Q17.85 16.95 18.2 16.45 L18.9 16.55 18.3 17.75 18.25 18.75 21.2 18.6 22.65 18.5 22.75 16.5 23.25 16.45 23.35 16.45 23.4 18.45 26.8 17.75 26.55 16.9 26.1 16.1 26.6 16.0 27.3 17.3 27.35 17.6 29.15 16.95 30.1 16.55 29.9 16.05 29.25 15.3 29.65 15.15 30.0 15.35 30.65 16.25 31.75 15.45 Q32.25 14.9 32.85 14.95 32.5 14.35 31.95 14.1 L31.25 14.05 Q30.9 15.0 29.8 15.05 L30.45 14.6 30.65 14.3 30.8 14.05 30.85 13.85 30.8 13.3 30.75 12.85 30.65 11.8 30.45 11.15 30.45 11.1 29.65 9.75 29.15 9.1 28.8 8.7 28.25 8.1 27.9 7.75 26.65 6.9 27.35 6.95 Q28.5 7.25 29.35 7.9 L29.75 7.45 Q30.55 6.65 31.55 6.9 L32.1 7.8 31.9 7.7 30.5 7.6 Q29.95 7.7 29.6 8.2 L30.45 9.25 30.85 10.6 30.85 10.55 Q31.8 9.7 33.55 10.75 M26.35 6.75 L26.25 6.75 Q25.55 5.1 26.9 4.3 L27.15 4.2 28.1 4.5 27.6 4.55 Q25.9 4.9 26.35 6.75 M24.15 6.6 L24.1 6.6 23.8 6.7 Q23.05 5.95 22.95 4.85 L23.05 4.05 23.6 3.95 23.4 4.55 Q23.3 5.65 24.15 6.6 M21.65 7.5 L21.1 7.75 Q19.65 7.5 19.4 6.4 19.25 5.75 19.45 5.2 L20.0 4.95 Q19.9 5.3 19.95 5.85 20.1 7.15 21.65 7.5" fill="#795d16" fill-rule="evenodd" stroke="none"/>
    <path d="M40.8 21.15 L39.5 21.85 37.45 22.75 36.75 23.0 34.0 23.8 33.3 23.95 29.3 24.55 28.6 24.6 24.65 24.7 24.0 24.7 21.3 24.5 19.85 24.35 19.0 24.3 15.0 23.6 14.55 23.55 14.35 23.5 12.45 23.05 11.8 22.85 11.2 22.75 10.35 22.5 7.9 21.65 7.3 21.4 6.45 21.05 Q4.6 20.25 3.95 18.85 3.5 17.9 3.75 16.85 L3.85 16.55 Q3.95 18.65 6.55 20.1 L7.0 20.3 Q6.8 19.35 7.5 18.75 L8.25 18.45 8.8 18.8 8.05 19.15 Q7.35 19.7 7.5 20.65 L10.15 21.5 Q10.2 20.85 10.8 20.25 L11.5 19.7 12.05 19.9 Q10.9 20.5 10.9 21.65 L10.9 21.75 14.05 22.7 Q14.0 22.0 14.45 21.25 L15.1 20.55 15.95 20.7 15.35 21.35 Q14.85 22.15 14.85 22.85 L18.95 23.65 Q18.9 22.9 19.1 22.05 L19.35 21.25 20.35 21.4 20.05 22.4 19.9 23.8 24.05 24.0 24.05 21.75 24.55 21.75 Q24.85 23.05 24.75 24.0 L28.6 23.75 28.45 21.7 28.8 21.65 29.05 21.65 Q29.45 22.85 29.45 23.65 L31.75 23.25 33.35 22.9 33.15 21.9 32.75 21.0 33.3 20.8 33.4 20.8 33.9 21.35 34.2 22.75 36.85 21.95 Q36.85 21.1 36.5 20.55 L36.0 20.0 36.45 19.9 37.05 20.25 Q37.5 20.75 37.55 21.7 L39.75 20.75 39.6 20.35 Q39.5 19.5 38.3 19.1 L39.8 18.15 Q40.5 18.25 40.75 19.05 L40.85 19.7 40.85 19.75 40.8 21.15 M15.2 7.4 Q14.85 7.05 14.65 6.5 L16.3 5.65 16.2 5.35 Q15.9 4.1 16.75 3.2 16.95 3.75 17.5 3.9 17.15 4.2 17.4 4.75 L17.45 4.8 17.5 4.95 Q17.85 5.45 18.5 5.65 L17.6 6.35 Q16.8 6.55 16.45 6.0 L16.3 6.05 15.2 7.4 M30.45 11.1 L30.4 11.15 29.35 10.9 28.65 10.8 27.6 10.6 27.7 9.75 29.65 9.75 30.45 11.1 M16.85 12.2 Q16.0 12.55 15.25 13.15 L14.8 13.7 13.9 13.1 Q12.4 12.6 11.1 15.35 11.05 14.5 11.3 13.65 L12.05 13.0 12.15 12.9 12.2 13.0 12.25 12.8 13.25 12.1 13.7 11.95 14.05 11.9 15.0 11.85 16.85 12.2 M34.85 12.7 L34.35 13.3 34.15 13.75 33.9 12.35 34.85 12.7" fill="#664e12" fill-rule="evenodd" stroke="none"/>
    <path d="M43.6 18.5 L43.7 18.95 43.1 18.8 Q42.35 18.6 41.45 19.2 41.7 20.2 41.3 21.5 L41.65 21.4 Q42.75 21.2 43.4 22.1 L43.2 22.8 Q42.75 21.9 41.5 22.0 L41.1 22.1 40.2 23.75 40.6 22.2 40.7 21.75 40.8 21.15 40.85 19.75 40.85 19.7 40.75 19.05 Q40.5 18.25 39.8 18.15 L39.3 18.1 39.05 18.0 Q37.95 17.7 36.6 17.0 L36.25 16.8 36.0 16.65 33.95 15.5 34.2 14.55 35.95 15.6 Q36.0 14.75 36.5 14.2 36.75 13.9 37.05 13.75 L37.9 14.3 Q37.55 14.35 37.25 14.55 36.7 15.05 36.6 16.0 L39.05 17.3 Q39.25 16.25 40.0 15.85 L40.15 15.8 41.05 16.05 40.65 16.2 Q39.9 16.5 39.5 17.45 L39.8 17.6 40.45 17.85 41.25 18.7 41.7 18.3 43.55 18.2 43.6 18.5 M42.0 25.85 L41.75 26.35 Q41.35 25.35 40.3 25.3 L39.2 25.5 39.5 25.05 39.7 24.85 40.65 24.7 Q41.85 24.8 42.0 25.85 M39.3 29.25 L38.35 29.9 Q38.5 28.95 37.95 28.2 L36.6 27.25 37.2 27.0 38.15 27.25 Q39.55 27.75 39.3 29.25 M37.5 30.45 L36.75 30.8 35.55 31.25 34.6 31.5 29.35 31.7 28.4 31.6 23.8 30.8 22.6 30.5 19.8 29.65 18.65 29.25 14.5 27.75 13.55 27.35 11.0 26.3 10.25 26.0 9.85 25.9 7.4 25.7 6.6 25.85 Q5.75 26.15 5.0 26.7 L1.65 29.9 1.7 29.35 1.0 29.1 Q2.1 26.8 4.2 25.55 L6.1 24.8 5.95 24.2 5.75 22.75 6.8 22.5 6.9 23.95 7.05 24.7 9.35 24.75 Q9.25 24.2 9.5 23.6 L10.15 22.85 11.45 23.2 10.6 23.7 Q10.15 24.2 10.1 24.95 L12.3 25.7 13.45 26.15 Q13.6 25.3 14.35 24.7 L15.15 24.45 16.25 24.8 15.3 25.4 14.6 26.65 18.75 28.2 Q18.9 27.25 19.3 26.5 L19.75 26.1 20.1 26.2 20.75 26.45 20.3 27.15 19.85 28.6 22.75 29.45 Q22.9 28.65 23.3 27.95 L23.8 27.25 24.75 27.5 24.3 28.35 23.9 29.8 26.6 30.4 28.4 30.75 28.6 29.25 28.95 28.1 29.9 28.15 29.6 29.55 29.45 30.9 31.75 31.1 34.65 31.1 Q34.65 30.15 34.25 29.15 L33.6 28.0 34.45 27.9 35.1 28.6 Q35.65 29.55 35.6 30.95 L37.5 30.45 M3.85 16.45 L3.85 16.35 3.85 16.25 4.2 15.55 Q4.8 15.3 5.7 15.2 L7.1 15.35 7.55 14.65 9.6 13.6 9.25 13.3 Q8.4 12.6 7.6 12.6 L7.1 12.6 7.65 12.3 9.25 12.7 10.0 13.35 11.0 12.85 11.8 12.3 Q11.2 11.55 9.7 11.3 L9.8 11.2 10.1 11.1 Q11.35 11.15 11.95 12.0 L12.05 12.15 12.6 11.65 13.7 11.25 13.6 8.9 14.4 8.75 14.15 10.4 14.1 11.2 16.3 11.4 19.4 12.0 19.45 9.85 20.05 9.95 20.2 11.35 20.15 12.1 22.2 12.35 24.65 12.6 24.45 10.2 25.05 10.3 25.25 12.65 27.35 12.75 28.35 12.8 28.65 10.8 29.35 10.9 28.95 12.85 29.9 12.95 30.8 13.3 30.85 13.85 30.8 14.05 30.65 14.0 28.8 13.7 28.2 13.6 27.0 13.55 25.15 13.5 24.45 13.45 20.0 12.85 19.6 12.75 19.25 12.65 16.85 12.2 15.0 11.85 14.05 11.9 13.7 11.95 13.25 12.1 12.25 12.8 12.15 12.9 12.05 13.0 11.3 13.65 10.2 14.35 10.05 14.45 9.8 14.65 Q9.05 15.2 8.55 15.9 L8.25 16.3 7.9 16.9 7.9 17.1 Q7.75 17.55 7.9 17.9 L7.3 17.5 Q6.5 16.8 6.85 15.8 L6.05 15.7 4.25 15.95 3.85 16.45" fill="#7e6422" fill-rule="evenodd" stroke="none"/>
    <path d="M41.3 16.5 Q43.1 16.55 42.35 17.55 41.8 18.3 40.95 17.35 40.1 16.4 41.3 16.5 M31.2 8.1 L31.6 7.95 Q32.05 7.85 32.15 8.1 32.3 10.4 31.2 8.1 M27.9 4.8 L29.1 5.1 Q30.35 5.55 30.55 6.25 29.95 6.75 29.75 6.55 L29.05 5.85 27.9 5.3 Q27.4 5.05 27.9 4.8 M24.0 4.35 Q26.1 3.8 26.0 4.35 25.9 4.8 24.55 4.95 23.2 5.1 24.0 4.35 M20.85 10.35 L21.95 10.25 23.95 10.55 Q24.35 10.75 23.95 10.95 L22.9 11.05 21.15 11.0 Q20.15 10.9 20.85 10.35 M26.65 10.7 Q27.6 10.8 28.0 11.2 28.3 11.4 27.95 11.55 L27.2 11.45 26.0 11.2 Q25.3 11.05 25.85 10.65 L26.65 10.7 M24.45 16.45 Q25.45 16.45 25.45 16.7 L23.85 16.95 23.75 16.75 Q23.75 16.45 24.45 16.45 M23.4 22.4 L21.35 22.6 Q19.8 22.3 20.9 21.75 24.05 21.8 23.4 22.4 M29.8 22.0 Q29.75 21.8 30.7 21.6 31.9 21.35 31.55 21.75 31.25 22.15 30.0 22.2 L29.8 22.0 M27.7 22.5 Q23.5 22.85 26.05 22.0 28.95 22.4 27.7 22.5 M11.6 10.0 L12.2 9.5 13.15 9.45 Q13.6 9.95 12.75 10.6 11.95 11.2 11.6 10.0 M18.45 10.1 Q18.85 10.35 18.4 10.45 L17.35 10.45 Q14.2 9.65 15.4 9.0 L16.5 9.3 Q17.75 9.65 18.45 10.1 M5.0 17.35 L4.95 16.55 Q5.0 15.8 5.8 16.25 6.85 16.85 6.55 17.8 6.25 18.75 5.0 17.35 M15.9 21.2 L16.4 21.1 17.8 21.25 Q19.0 21.55 18.55 21.9 18.1 22.15 15.9 21.2 M20.0 16.7 Q21.2 16.6 21.35 17.1 21.55 17.55 18.95 17.5 L19.05 17.15 Q19.3 16.75 20.0 16.7 M40.1 26.3 Q39.45 27.45 38.9 27.45 38.55 27.45 38.8 26.85 L39.15 26.2 Q40.7 25.2 40.1 26.3 M33.6 29.55 Q33.45 30.0 30.0 29.0 L31.3 28.6 Q32.7 28.3 32.9 28.6 L33.6 29.55 M24.85 27.9 L25.5 27.85 26.85 28.45 24.8 28.2 Q24.75 28.05 24.85 27.9 M20.7 27.45 L20.65 27.05 Q20.7 26.7 21.15 26.75 22.0 26.85 22.4 27.5 L20.7 27.45" fill="#cdab53" fill-rule="evenodd" stroke="none"/>
  </g>
</svg>
