<svg xmlns="http://www.w3.org/2000/svg" xmlns:ffdec="https://www.free-decompiler.com/flash" ffdec:objectType="shape" width="52" height="52"><path fill="none" d="M48 0q4 0 4 4v44q0 4-4 4H4q-4 0-4-4V4q0-4 4-4z"/><path fill="#fff" fill-opacity=".298" fill-rule="evenodd" d="M26 41.05q3.75 0 6.8-1.65L26 50l-6.75-10.6q3 1.65 6.75 1.65"/><path fill="#fff" fill-opacity=".2" fill-rule="evenodd" d="M50 6v6.45l-10 15.7V27q0-5.35-3.4-9.2l-.65-.65q-4.15-4.2-9.95-4.2-5.75 0-9.9 4.2l-.75.65q-3.4 4.05-3.4 9.2l.05 1.1L2 12.45V6q0-4 4-4h40q4 0 4 4"/><path fill="#fff" fill-rule="evenodd" d="M43.05 39.8q-.4 7.95-6.7 7.45-5.05-1.25-7.1-3l.3.7q1.3 3.15 1.75 6.05H20.85q.4-2.9 1.7-6.05l.1-.2q-2.1 1.4-6.5 2.5-6.3.5-6.7-7.45-.15-3 .8-5.35 1-2.4 2.45-2.25.95-.05 1.5.35Q13 30 13 27q0-4.8 3.15-8.55l.7-.6Q20.7 14 26 14q5.4 0 9.25 3.85l.6.6Q39 22.05 39 27l-.25 2.85q-.8 3.6-3.5 6.4-3.45 3.4-8.2 3.75l.25.45q.95 1 2.95 2.25 2.7 1.7 4.85 2.1 6.05 1.2 2.7-8.35-.6-1.75-.2-3 .5-1.35 2.2-1.25 1.45-.15 2.45 2.25.95 2.35.8 5.35m-28-5.8q.1 1.05-.35 2.45-3.35 9.55 2.7 8.35 2.15-.4 4.85-2.1l2.2-1.55.6-1.15q-4.8-.35-8.2-3.75-1.05-1.05-1.8-2.25m18-11.95q.8 0 1.4-.6.6-.55.6-1.35 0-.75-.6-1.4-.6-.55-1.4-.55-.75 0-1.35.55-.55.65-.55 1.4 0 .8.55 1.35.6.6 1.35.6m-12.75-.6q.55-.55.55-1.35 0-.75-.55-1.4-.6-.55-1.35-.55-.8 0-1.4.55-.6.65-.6 1.4 0 .8.6 1.35.6.6 1.4.6.75 0 1.35-.6m13.9 7.05q2.15-2.4 1.95-5.25-2.65 2.1-10.8 1.9-7.95-.2-9.7-1.9-.15 2.9 1.75 5.1 2.65 3 8.5 3.1 5.5.1 8.3-2.95"/><path fill="#ff4141" fill-rule="evenodd" d="m22.8 4.8.45 1.35-.3 1.2L21.8 8.7l-3.45 2.95-.1.1-.05-.1-3.35-3-1.2-1.3q-.3-.6-.3-1.2-.05-.65.35-1.35 1.2-1.95 2.9-1.25 1.4.55 1.65 1.7.35-1.15 1.8-1.7 1.7-.65 2.75 1.25"/><path fill="#fff" fill-rule="evenodd" d="m10.75 4.15-.3.3-.05.75v4.6l.05.75.3.3.65.15v.4H7.8V11l.65-.15.3-.3.05-.75V5.2l-.05-.75-.3-.3L7.8 4v-.4h3.6V4zM41.15 2.35h.9q.4.05.05.3V3.9h2.05v4.7H41.9l.6 1.4 2.05-1.65.65.75q.05.25-.25.15l-2 1.35q.95 1 2.4 1.5l-.55 1.05q-3.2-1.4-3.8-4.55h-.85v3.05l1.8-.45.15.8-3.6.95q-.05.3-.25.15L38 12.05l1.2-.25V3.9h1.95zm2.1 2.3h-3.1V5.8h3.1zm0 1.9h-3.1v1.3h3.1zM37.3 5q1 2.65.65 5.45-.4 2.7-1.45 2.7h-1.35l-.1-1.05h1.1l.5-.45q.35-.8.45-3.5-1.35 2.05-2.2 2.55l-.55-1q1.75-1.4 2.55-2.9l-.3-1.05L35 7.2l-.55-.95 1.8-1.4L35 3.15l.65-.55 1.2 1.6.95-1.45.75.6q.2.15-.15.2zM27.2 2.85h1.05q.45.1 0 .4v1.9q.35 4.5 4.8 6.45l-.55 1.15q-3.25-1.4-4.6-5.1-1 3.5-4.45 5.1l-.7-1Q27.2 10 27.2 5.3z"/></svg>