<?xml version="1.0" encoding="UTF-8" standalone="no"?>
<svg xmlns:ffdec="https://www.free-decompiler.com/flash" xmlns:xlink="http://www.w3.org/1999/xlink" ffdec:objectType="shape" height="52.0px" width="52.0px" xmlns="http://www.w3.org/2000/svg">
  <g transform="matrix(1.0, 0.0, 0.0, 1.0, 0.0, 0.0)">
    <path d="M21.3 15.85 Q20.6 15.85 19.6 16.85 L19.3 17.15 18.95 16.85 18.15 16.2 Q17.65 15.85 17.25 15.85 16.4 15.85 15.8 16.45 15.2 17.05 15.2 17.9 15.15 19.65 17.0 21.1 L18.1 21.95 Q19.15 22.8 19.25 23.2 19.95 22.35 22.2 20.25 23.3 19.25 23.3 17.9 L23.2 17.3 23.15 17.1 22.7 16.45 Q22.15 15.85 21.3 15.85 M30.3 15.85 Q29.45 15.85 28.85 16.45 28.25 17.05 28.25 17.9 28.2 19.65 30.05 21.1 L31.15 21.95 Q32.2 22.8 32.3 23.2 33.0 22.35 35.25 20.25 36.35 19.25 36.35 17.9 L36.25 17.3 36.2 17.1 35.75 16.45 Q35.2 15.85 34.35 15.85 33.65 15.85 32.65 16.85 L32.35 17.15 32.0 16.85 31.2 16.2 Q30.7 15.85 30.3 15.85 M39.0 23.0 L38.75 25.85 Q37.95 29.45 35.25 32.25 31.8 35.65 27.05 36.0 L29.55 40.95 Q31.75 46.35 31.5 50.95 L20.6 50.95 Q20.35 46.35 22.55 40.95 L25.05 36.0 Q20.25 35.65 16.85 32.25 13.0 28.35 13.0 23.0 13.0 18.2 16.15 14.45 L16.85 13.85 Q20.7 10.0 26.0 10.0 31.4 10.0 35.25 13.85 L35.85 14.45 Q39.0 18.05 39.0 23.0 M30.9 32.75 Q31.3 33.75 31.95 33.0 L31.95 30.75 34.2 29.0 Q36.35 26.6 36.15 23.75 33.5 25.9 25.35 25.7 17.45 25.5 15.65 23.75 15.5 26.7 17.45 28.85 20.1 31.85 25.9 31.95 28.25 32.0 30.6 31.15 L30.9 32.75" fill="#ffffff" fill-rule="evenodd" stroke="none"/>
    <path d="M48.55 6.15 Q48.9 6.5 49.1 7.15 L49.25 8.0 49.15 8.25 Q49.0 10.2 47.2 11.5 43.55 14.3 42.5 15.45 42.45 15.0 41.0 13.55 L39.5 12.1 Q36.9 9.65 37.3 7.1 37.35 5.95 38.4 5.1 39.3 4.3 40.4 4.35 41.05 4.5 41.8 5.05 L42.9 6.1 43.35 6.55 43.85 6.15 Q45.5 5.0 46.5 5.05 47.8 5.15 48.55 6.15 M44.25 37.1 L44.1 37.25 Q43.5 38.3 42.2 38.6 L38.55 39.6 38.2 38.2 37.7 36.95 Q36.8 34.95 37.7 33.6 38.0 32.95 38.8 32.75 L40.15 32.85 40.75 33.6 41.1 34.4 41.25 34.8 41.65 34.7 43.4 34.75 Q44.15 35.15 44.3 35.9 L44.4 36.55 44.25 37.1 M10.75 29.5 L10.75 29.7 Q11.1 31.0 10.25 32.3 8.55 35.0 8.15 36.0 8.0 35.7 6.7 35.15 L5.35 34.55 Q3.1 33.6 2.7 31.85 2.45 31.05 2.95 30.25 3.35 29.5 4.1 29.3 L5.15 29.4 6.15 29.8 6.55 30.0 6.75 29.6 Q7.55 28.45 8.2 28.25 L9.8 28.45 10.45 29.0 10.75 29.5 M17.6 39.45 L17.65 39.6 Q18.05 40.6 17.5 41.65 L16.15 44.7 Q16.0 44.5 14.95 44.15 L13.9 43.8 Q12.05 43.3 11.6 41.95 11.35 41.35 11.65 40.7 11.9 40.1 12.5 39.85 L13.3 39.85 14.1 40.1 14.45 40.2 14.55 39.9 Q15.05 38.9 15.55 38.7 16.2 38.45 16.8 38.7 L17.35 39.1 17.6 39.45" fill="#ffffff" fill-rule="evenodd" stroke="none"/>
    <path d="M48.0 0.0 Q52.0 0.0 52.0 4.0 L52.0 48.0 Q52.0 52.0 48.0 52.0 L4.0 52.0 Q0.0 52.0 0.0 48.0 L0.0 4.0 Q0.0 0.0 4.0 0.0 L48.0 0.0" fill="#ffffff" fill-opacity="0.0" fill-rule="evenodd" stroke="none"/>
  </g>
</svg>
