<?xml version="1.0" encoding="UTF-8" standalone="no"?>
<svg xmlns:ffdec="https://www.free-decompiler.com/flash" xmlns:xlink="http://www.w3.org/1999/xlink" ffdec:objectType="shape" height="52.0px" width="52.0px" xmlns="http://www.w3.org/2000/svg">
  <g transform="matrix(1.0, 0.0, 0.0, 1.0, 0.0, 0.0)">
    <path d="M48.0 0.0 Q52.0 0.0 52.0 4.0 L52.0 48.0 Q52.0 52.0 48.0 52.0 L4.0 52.0 Q0.0 52.0 0.0 48.0 L0.0 4.0 Q0.0 0.0 4.0 0.0 L48.0 0.0" fill="#ffffff" fill-opacity="0.0" fill-rule="evenodd" stroke="none"/>
    <path d="M46.0 25.1 L46.05 25.95 Q45.7 30.7 42.2 34.2 L40.0 36.1 Q36.95 38.05 33.0 38.1 30.8 38.1 28.9 37.45 L30.6 40.95 Q32.8 46.35 32.55 50.95 L21.65 50.95 Q21.4 46.35 23.6 40.95 L25.15 37.85 22.0 39.0 Q17.75 40.3 14.75 39.5 12.0 38.9 10.65 36.2 9.4 33.7 9.65 30.4 9.95 27.1 11.65 24.6 13.55 21.85 16.4 21.2 17.65 21.4 17.7 22.05 L17.5 22.95 Q15.75 22.85 14.9 24.35 16.4 24.35 16.15 27.2 15.9 30.0 13.9 30.0 12.1 37.8 18.75 37.85 22.05 37.9 25.75 36.35 L25.9 36.4 26.05 36.05 23.85 34.25 Q20.0 30.4 20.0 25.1 20.05 19.65 23.85 15.85 27.25 12.45 32.1 12.0 L33.0 12.1 Q38.5 12.1 42.25 15.85 46.05 19.65 46.0 25.1 M28.55 20.25 Q29.1 19.7 29.1 18.9 29.05 18.15 28.5 17.6 27.95 17.05 27.2 17.0 26.4 17.0 25.85 17.55 25.25 18.15 25.25 18.95 25.3 19.7 25.85 20.25 26.4 20.8 27.15 20.85 27.95 20.85 28.55 20.25 M14.2 2.5 Q16.0 3.25 16.65 4.85 17.3 6.4 16.15 8.3 L15.25 9.7 14.4 11.1 Q14.25 11.7 13.8 11.9 L12.85 11.9 Q12.4 11.65 12.25 11.2 11.95 10.55 12.7 9.5 L14.05 7.45 Q14.7 6.3 14.45 5.7 14.2 5.0 13.3 4.6 L11.45 4.55 Q11.05 4.75 10.5 5.5 L9.65 6.35 8.8 6.3 8.15 5.7 Q7.85 4.95 8.95 3.75 9.9 2.75 10.65 2.45 12.35 1.8 14.2 2.5 M6.0 4.75 L9.2 13.05 9.15 13.85 8.55 14.4 7.7 14.4 7.15 13.85 6.85 12.95 6.45 12.05 5.2 8.8 3.95 5.55 Q3.8 5.15 3.95 4.75 L4.6 4.2 Q5.05 4.0 5.45 4.2 L6.0 4.75 M9.55 15.1 L10.3 15.85 10.25 16.65 9.6 17.2 8.55 17.05 Q7.95 16.75 7.85 16.35 7.7 15.95 7.95 15.55 8.1 15.1 8.55 15.0 L9.55 15.1 M15.3 14.45 Q15.2 15.05 14.6 15.3 L13.7 15.4 12.95 14.75 Q12.75 14.2 12.95 13.65 13.05 13.0 13.7 12.75 L14.7 12.8 15.25 13.5 Q15.45 14.0 15.3 14.45 M38.7 28.5 Q37.9 28.5 37.35 29.05 36.75 29.65 36.75 30.45 36.8 31.2 37.35 31.75 37.9 32.3 38.65 32.35 39.45 32.35 40.05 31.75 40.6 31.2 40.6 30.4 40.55 29.65 40.0 29.1 39.45 28.55 38.7 28.5 M30.95 29.65 L28.1 26.8 Q27.7 26.4 27.1 26.4 26.45 26.35 26.0 26.8 25.6 27.2 25.6 27.9 25.6 28.5 26.0 28.9 L28.85 31.75 Q29.25 32.15 29.9 32.2 30.55 32.15 30.95 31.75 31.4 31.3 31.4 30.7 31.35 30.05 30.95 29.65" fill="#ffffff" fill-rule="evenodd" stroke="none"/>
  </g>
</svg>
