<svg xmlns="http://www.w3.org/2000/svg" xmlns:ffdec="https://www.free-decompiler.com/flash" xmlns:xlink="http://www.w3.org/1999/xlink" ffdec:objectType="frame" width="48" height="48"><g transform="translate(1 1)"><use ffdec:characterId="857" xlink:href="#a" width="48" height="48" transform="translate(-1 -1)"/><use ffdec:characterId="859" xlink:href="#b" width="26" height="26" transform="translate(10 10)"/></g><defs><g id="a"><path fill="#333" fill-rule="evenodd" d="M47 11v26q0 10-10 10H11Q1 47 1 37V11Q1 1 11 1h26q10 0 10 10"/><path fill="none" stroke="#fff" stroke-linecap="round" stroke-linejoin="round" stroke-width="2" d="M47 11Q47 1 37 1H11Q1 1 1 11v26q0 10 10 10h26q10 0 10-10z"/><path fill="#ec7400" fill-rule="evenodd" d="M44 12v24q0 8-8 8H12q-8 0-8-8V12q0-8 8-8h24q8 0 8 8"/><path fill="#f09100" fill-rule="evenodd" d="M41 33q0 8-8 8H15q-8 0-8-8V15q0-8 8-8h18q8 0 8 8z"/></g><g id="c"><path fill="#ec7400" fill-rule="evenodd" d="M22.05 5.15Q25 8.45 25 13q0 4.9-3.5 8.5Q18 25 13 25t-8.45-3.5Q1 17.9 1 13q0-4.55 2.95-7.85l.6-.6Q8 1 13 1t8.5 3.55z"/><path fill="none" stroke="#ec7400" stroke-linecap="round" stroke-linejoin="round" stroke-width="2" d="M22.05 5.15Q25 8.45 25 13q0 4.9-3.5 8.5Q18 25 13 25t-8.45-3.5Q1 17.9 1 13q0-4.55 2.95-7.85l.6-.6Q8 1 13 1t8.5 3.55z"/><path fill="#fff" fill-rule="evenodd" d="M22.05 5.15Q25 8.45 25 13q0 4.9-3.5 8.5Q18 25 13 25t-8.45-3.5Q1 17.9 1 13q0-4.55 2.95-7.85l.6-.6Q8 1 13 1t8.5 3.55zm-14.1 12.9q-1.65-1.7-1.9-4H3.8q.25 3.25 2.6 5.65 2.8 2.65 6.6 2.65 3.9 0 6.55-2.65 2.4-2.4 2.7-5.65H20q-.3 2.3-1.95 4-2.15 2.1-5.05 2.1-2.95 0-5.05-2.1m-4-6.5q.65.65 1.5.65.75 0 1.35-.65.6-.55.6-1.4 0-.75-.6-1.4-.6-.55-1.35-.55-.85 0-1.5.55-.55.65-.55 1.4 0 .85.55 1.4m14.4 0q.65.65 1.5.65.75 0 1.35-.65.6-.55.6-1.4 0-.75-.6-1.4-.6-.55-1.35-.55-.85 0-1.5.55-.55.65-.55 1.4 0 .85.55 1.4"/></g><use ffdec:characterId="858" xlink:href="#c" id="b" width="26" height="26"/></defs></svg>