<svg xmlns="http://www.w3.org/2000/svg" xmlns:ffdec="https://www.free-decompiler.com/flash" xmlns:xlink="http://www.w3.org/1999/xlink" ffdec:objectType="frame" width="14.95" height="11.95"><g transform="translate(2.35 -.4)"><use ffdec:characterId="15" xlink:href="#a" width="11.65" height="10.05" transform="translate(-1.85 2.25)"/><use ffdec:characterId="9" xlink:href="#b" width="9.2" height="10.8" transform="translate(-.85 1.1)"/><use ffdec:characterId="16" xlink:href="#c" width="6.6" height="5" transform="translate(.1 5.9)"/><use ffdec:characterId="6" xlink:href="#d" width="5.1" height="6.75" transform="translate(.9 3)"/><use ffdec:characterId="23" xlink:href="#e" width="14.95" height="11.95" transform="translate(-2.35 .4)"/></g><defs><path id="a" fill="#fff" fill-rule="evenodd" d="m9.8 4.7-.25 3.2-.6 2.05-.05.05v.15q-.95.9-2.05 1.35l-.5.2v-.05l-.25.1-2.45.4-.25.15-1.1-.1-.5-.1-.3.05-.75-.4-.9-.55v-.05q-1.15-.9-1.5-2.65l-.2-2.55.15-.2Q-1 4.6.55 3.7H.6q1.85-1.1 4.35-1.4l3.2.35Q9.7 3.3 9.8 4.7" transform="translate(1.85 -2.25)"/><path id="f" fill="url(#g)" fill-rule="evenodd" d="M.05 5.25Q.2 2.2 2 .85q1.7-1.3 4.3-.6Q8.45.8 9 2.85q.6 2.1-.65 5.2-1.2 3.05-5.3 2.7Q1.25 10.6.5 8.7-.1 7.25.05 5.25"/><path id="c" fill="#fff" fill-opacity=".251" fill-rule="evenodd" d="m6 6.1.7.05q-.1 2.15-.95 3.4Q4.8 10.9 3.4 10.9q-1.45 0-2.4-.9l-.3-.5Q0 8.5.1 5.9h.85l-.05.3q-.05.6.05 1.1l.2.55.4.85q.45.65 2.05.85H4l.95-.4.65-.75q.35-.6.4-1.8z" transform="translate(-.1 -5.9)"/><path id="h" fill="#3a0101" fill-rule="evenodd" d="M5.1 3.1v.5l-.35 1.65-.7.95-.95.5-.8.05-.25-.05-.4-.1-.4-.25-.15-.1-.7-.85-.35-1.1L0 3.2l.1-.65Q.15 1.9 1.05.9q1-1.2 2.25-.8l1.1.9q.65.9.7 2.1"/><use ffdec:characterId="2" xlink:href="#f" id="b" width="9.2" height="10.8"/><use ffdec:characterId="5" xlink:href="#h" id="d" width="5.1" height="6.75"/><linearGradient id="g" x1="-819.2" x2="819.2" gradientTransform="rotate(88.264 -.483 5.07)scale(.0066)" gradientUnits="userSpaceOnUse" spreadMethod="pad"><stop offset="0" stop-color="#600"/><stop offset=".776" stop-color="#e91717"/></linearGradient><g id="e" fill-rule="evenodd"><path fill="#fff" d="m4 5.35-.65-.2q-.7-.45-.65-1.2 0-.5.5-.9.45-.4 1.05-.4t1 .55q.4.25.35.9 0 .5-.55.9zM3.8 8.5l.4.1.45.2-.15-.05.3.35.15.55-.35.8q-.35.45-1.15.25-.85-.2-.85-1.25l.3-.6q.5-.4.9-.35"/><path fill="#fff" fill-opacity=".4" d="m5.25 10.2-.1-.6.05-.2.05-.35q.45-1 1.55-1 .5 0 .85.3L8.3 9l.15.55q-.05.7-.6 1.2l-1.2.4q-1-.05-1.4-.95"/><path fill-opacity=".251" d="M7.95.95q4.95 0 4.95 4.5l-.15.75-1.85-1.85q-1.35-1-3.35-1.3h-.8q-2-.15-3.7.75Q1.3 4.75.5 6.5l-.1-.8q0-1.5 1.8-2.75 1.6-1.1 4.25-1.85z"/><path fill="#3a2d2b" d="m2.55 11.15.7.25 1.7.25h1.7l1.4-.2.8-.2q-.15.05-.75.35l-2.75.35q-2.05 0-2.7-.65l-.3-.2.25.1zm9.95-9.6.15.1Q14 2.75 14.4 3.8l.55 1.5h-.05l-.1-.05q-.45-.45-1.15-.65-.2 1.95-1 3.35t-1.4 1.7V9.6l.05-.05.6-2.05.25-3.2q-.1-1.4-1.65-2.05L7.3 1.9q-2.5.3-4.35 1.4H2.9Q1.35 4.2.65 5.35l-.15.2L.3 6l-.1.05-.1.3-.1.1.05-.5V5.9q.3-2.85 3.05-4.5.95-.6 2.05-.95Q4.5.55 3.8.8 1.65 1.4.65 2.6l-.1.05L.5 2.6l-.1.05.2-.2Q1.9 1.05 3.75.5 5.6-.1 7.15.05h.1l.9-.05 1.1.1h.05q2.5.15 4.3 1.25l.45.3q.45.25.1.1l-.5-.15h-.3l-.8-.2-.3-.05z"/></g></defs></svg>