<?xml version="1.0" encoding="UTF-8" standalone="no"?>
<svg xmlns:ffdec="https://www.free-decompiler.com/flash" xmlns:xlink="http://www.w3.org/1999/xlink" ffdec:objectType="frame" height="11.95px" width="14.95px" xmlns="http://www.w3.org/2000/svg">
  <g transform="matrix(1.0, 0.0, 0.0, 1.0, 2.35, -0.4)">
    <use ffdec:characterId="15" height="10.05" transform="matrix(1.0, 0.0, 0.0, 1.0, -1.85, 2.25)" width="11.65" xlink:href="#shape0"/>
    <use ffdec:characterId="9" height="10.8" transform="matrix(1.0, 0.0, 0.0, 1.0, -0.85, 1.1)" width="9.2" xlink:href="#sprite0"/>
    <use ffdec:characterId="16" height="5.0" transform="matrix(1.0, 0.0, 0.0, 1.0, 0.1, 5.9)" width="6.6" xlink:href="#shape2"/>
    <use ffdec:characterId="6" height="6.75" transform="matrix(1.0, 0.0, 0.0, 1.0, 0.9, 3.0)" width="5.1" xlink:href="#sprite1"/>
    <use ffdec:characterId="23" height="11.95" transform="matrix(1.0, 0.0, 0.0, 1.0, -2.35, 0.4)" width="14.95" xlink:href="#shape4"/>
  </g>
  <defs>
    <g id="shape0" transform="matrix(1.0, 0.0, 0.0, 1.0, 1.85, -2.25)">
      <path d="M9.8 4.7 L9.55 7.9 8.95 9.95 8.9 10.0 8.9 10.1 8.9 10.15 Q7.95 11.05 6.85 11.5 L6.35 11.7 6.35 11.65 6.1 11.75 3.65 12.15 3.4 12.3 2.3 12.2 1.8 12.1 1.5 12.15 0.75 11.75 -0.15 11.2 -0.15 11.15 Q-1.3 10.25 -1.65 8.5 L-1.85 5.95 -1.7 5.75 Q-1.0 4.6 0.55 3.7 L0.6 3.7 Q2.45 2.6 4.95 2.3 L8.15 2.65 Q9.7 3.3 9.8 4.7" fill="#ffffff" fill-rule="evenodd" stroke="none"/>
    </g>
    <g id="sprite0" transform="matrix(1.0, 0.0, 0.0, 1.0, 0.0, 0.0)">
      <use ffdec:characterId="2" height="10.8" transform="matrix(1.0, 0.0, 0.0, 1.0, 0.0, 0.0)" width="9.2" xlink:href="#shape1"/>
    </g>
    <g id="shape1" transform="matrix(1.0, 0.0, 0.0, 1.0, 0.0, 0.0)">
      <path d="M0.05 5.25 Q0.2 2.2 2.0 0.85 3.7 -0.45 6.3 0.25 8.45 0.8 9.0 2.85 9.6 4.95 8.35 8.05 7.15 11.1 3.05 10.75 1.25 10.6 0.5 8.7 -0.1 7.25 0.05 5.25" fill="url(#gradient0)" fill-rule="evenodd" stroke="none"/>
    </g>
    <linearGradient gradientTransform="matrix(2.0E-4, 0.0066, -0.0066, 2.0E-4, 4.6, 5.4)" gradientUnits="userSpaceOnUse" id="gradient0" spreadMethod="pad" x1="-819.2" x2="819.2">
      <stop offset="0.0" stop-color="#660000"/>
      <stop offset="0.7764705882352941" stop-color="#e91717"/>
    </linearGradient>
    <g id="shape2" transform="matrix(1.0, 0.0, 0.0, 1.0, -0.1, -5.9)">
      <path d="M6.0 6.1 L6.7 6.15 Q6.6 8.3 5.75 9.55 4.8 10.9 3.4 10.9 1.95 10.9 1.0 10.0 L0.7 9.5 Q0.0 8.5 0.1 5.9 L0.95 5.9 0.9 6.2 Q0.85 6.8 0.95 7.3 L1.15 7.85 1.55 8.7 Q2.0 9.35 3.6 9.55 L4.0 9.55 4.95 9.15 5.6 8.4 Q5.95 7.8 6.0 6.6 L6.0 6.1" fill="#ffffff" fill-opacity="0.2509804" fill-rule="evenodd" stroke="none"/>
    </g>
    <g id="sprite1" transform="matrix(1.0, 0.0, 0.0, 1.0, 0.0, 0.0)">
      <use ffdec:characterId="5" height="6.75" transform="matrix(1.0, 0.0, 0.0, 1.0, 0.0, 0.0)" width="5.1" xlink:href="#shape3"/>
    </g>
    <g id="shape3" transform="matrix(1.0, 0.0, 0.0, 1.0, 0.0, 0.0)">
      <path d="M5.1 3.1 L5.1 3.6 4.75 5.25 4.05 6.2 3.1 6.7 2.3 6.75 2.05 6.7 1.65 6.6 1.25 6.35 1.1 6.25 0.4 5.4 0.05 4.3 0.0 3.2 0.1 2.55 Q0.15 1.9 1.05 0.9 2.05 -0.3 3.3 0.1 L4.4 1.0 Q5.05 1.9 5.1 3.1" fill="#3a0101" fill-rule="evenodd" stroke="none"/>
    </g>
    <g id="shape4" transform="matrix(1.0, 0.0, 0.0, 1.0, 2.35, -0.4)">
      <path d="M1.65 5.75 L1.0 5.55 Q0.3 5.1 0.35 4.35 0.35 3.85 0.85 3.45 1.3 3.05 1.9 3.05 2.5 3.05 2.9 3.6 3.3 3.85 3.25 4.5 3.25 5.0 2.7 5.4 L1.65 5.75 M1.45 8.9 L1.85 9.0 2.3 9.2 2.15 9.15 2.45 9.5 2.6 10.05 2.25 10.85 Q1.9 11.3 1.1 11.1 0.25 10.9 0.25 9.85 L0.55 9.25 Q1.05 8.85 1.45 8.9" fill="#ffffff" fill-rule="evenodd" stroke="none"/>
      <path d="M2.9 10.6 L2.8 10.0 2.85 9.8 2.9 9.45 Q3.35 8.45 4.45 8.45 4.95 8.45 5.3 8.75 L5.95 9.4 6.1 9.95 Q6.05 10.65 5.5 11.15 L4.3 11.55 Q3.3 11.5 2.9 10.6" fill="#ffffff" fill-opacity="0.4" fill-rule="evenodd" stroke="none"/>
      <path d="M5.6 1.35 Q10.55 1.35 10.55 5.85 L10.4 6.6 8.55 4.75 Q7.2 3.75 5.2 3.45 L4.4 3.45 Q2.4 3.3 0.7 4.2 -1.05 5.15 -1.85 6.9 L-1.95 6.1 Q-1.95 4.6 -0.15 3.35 1.45 2.25 4.1 1.5 L5.6 1.35" fill="#000000" fill-opacity="0.2509804" fill-rule="evenodd" stroke="none"/>
      <path d="M0.2 11.55 L0.9 11.8 2.6 12.05 4.3 12.05 5.7 11.85 6.5 11.65 Q6.35 11.7 5.75 12.0 L3.0 12.35 Q0.95 12.35 0.3 11.7 L0.0 11.5 0.25 11.6 0.2 11.55 M10.15 1.95 L10.3 2.05 Q11.65 3.15 12.05 4.2 L12.6 5.7 12.55 5.7 12.45 5.65 Q12.0 5.2 11.3 5.0 11.1 6.95 10.3 8.35 9.5 9.75 8.9 10.05 L8.9 10.0 8.95 9.95 9.55 7.9 9.8 4.7 Q9.7 3.3 8.15 2.65 L4.95 2.3 Q2.45 2.6 0.6 3.7 L0.55 3.7 Q-1.0 4.6 -1.7 5.75 L-1.85 5.95 -2.05 6.4 -2.15 6.45 -2.25 6.75 -2.35 6.85 -2.3 6.35 -2.3 6.3 Q-2.0 3.45 0.75 1.8 1.7 1.2 2.8 0.85 2.15 0.95 1.45 1.2 -0.7 1.8 -1.7 3.0 L-1.8 3.05 -1.85 3.0 -1.95 3.05 -1.75 2.85 Q-0.45 1.45 1.4 0.9 3.25 0.3 4.8 0.45 L4.9 0.45 5.8 0.4 6.9 0.5 6.95 0.5 Q9.45 0.65 11.25 1.75 L11.7 2.05 Q12.15 2.3 11.8 2.15 L11.3 2.0 11.15 2.0 11.0 2.0 10.2 1.8 9.9 1.75 10.15 1.95" fill="#3a2d2b" fill-rule="evenodd" stroke="none"/>
    </g>
  </defs>
</svg>
