<?xml version="1.0" encoding="UTF-8" standalone="no"?>
<svg xmlns:ffdec="https://www.free-decompiler.com/flash" xmlns:xlink="http://www.w3.org/1999/xlink" ffdec:objectType="frame" height="11.2px" width="16.6px" xmlns="http://www.w3.org/2000/svg">
  <g transform="matrix(1.0, 0.0, 0.0, 1.0, 4.25, 0.2)">
    <use ffdec:characterId="1" height="9.1" transform="matrix(1.0, 0.0, 0.0, 0.5604, -2.85, 5.9148)" width="14.5" xlink:href="#shape0"/>
    <use ffdec:characterId="3" height="9.95" transform="matrix(-1.0, 0.0, 0.0, 0.5625, 8.8, 5.4156)" width="9.55" xlink:href="#sprite0"/>
    <use ffdec:characterId="7" height="5.65" transform="matrix(1.0, 0.0, 0.0, 1.0, -4.25, 4.7)" width="16.6" xlink:href="#shape2"/>
  </g>
  <defs>
    <g id="shape0" transform="matrix(1.0, 0.0, 0.0, 1.0, 2.85, -1.9)">
      <path d="M-2.75 6.4 Q-1.35 5.7 0.8 5.25 5.65 4.25 11.45 5.35 L10.25 7.95 Q9.05 9.9 7.45 10.4 L4.65 11.0 1.15 10.5 Q-1.05 9.95 -2.15 7.9 L-2.75 6.4" fill="#ffffff" fill-rule="evenodd" stroke="none"/>
      <path d="M-2.75 6.4 L-2.85 6.05 Q0.6 1.0 6.45 2.1 9.4 2.65 11.65 4.4 L11.45 5.35 Q5.65 4.25 0.8 5.25 -1.35 5.7 -2.75 6.4" fill="#e2d4e7" fill-rule="evenodd" stroke="none"/>
    </g>
    <g id="sprite0" transform="matrix(1.0, 0.0, 0.0, 1.0, 4.75, 4.95)">
      <use ffdec:characterId="2" height="9.95" transform="matrix(1.0, 0.0, 0.0, 1.0, -4.75, -4.95)" width="9.55" xlink:href="#shape1"/>
    </g>
    <g id="shape1" transform="matrix(1.0, 0.0, 0.0, 1.0, 4.75, 4.95)">
      <path d="M3.45 -3.5 Q4.8 -2.05 4.8 0.0 4.8 2.0 3.45 3.5 2.15 5.0 0.25 5.0 -2.05 5.0 -3.45 3.5 -4.75 2.0 -4.75 0.0 -4.75 -2.05 -3.3 -3.7 -2.15 -4.95 0.25 -4.95 2.15 -4.95 3.45 -3.5" fill="url(#gradient0)" fill-rule="evenodd" stroke="none"/>
      <path d="M3.45 -3.5 Q4.8 -2.05 4.8 0.0 4.8 2.0 3.45 3.5 2.15 5.0 0.25 5.0 -2.05 5.0 -3.45 3.5 -4.75 2.0 -4.75 0.0 -4.75 -2.05 -3.3 -3.7 -2.15 -4.95 0.25 -4.95 2.15 -4.95 3.45 -3.5" fill="url(#gradient1)" fill-rule="evenodd" stroke="none"/>
      <path d="M-0.85 -1.45 L0.2 -1.8 Q0.75 -1.8 1.15 -1.45 1.55 -0.95 1.55 -0.3 1.55 0.45 1.15 0.85 L0.2 1.3 Q-0.45 1.3 -0.85 0.85 -1.25 0.45 -1.25 -0.3 -1.25 -0.95 -0.85 -1.45" fill="#0d4954" fill-opacity="0.8" fill-rule="evenodd" stroke="none"/>
      <path d="M3.05 3.3 Q1.7 4.3 0.15 4.5 L-0.1 4.55 -0.25 4.5 -2.05 3.9 -3.2 3.1 -3.45 2.85 -3.85 1.8 Q-4.1 1.05 -3.95 0.65 -3.75 0.25 -3.05 0.25 -2.85 0.25 -2.15 1.6 -1.45 2.95 -0.05 2.95 1.45 2.95 2.2 1.9 2.85 1.0 3.35 1.0 3.85 1.0 3.6 2.1 L3.05 3.3" fill="#e1ffaf" fill-opacity="0.49803922" fill-rule="evenodd" stroke="none"/>
      <path d="M3.45 -3.5 Q4.8 -2.05 4.8 0.0 4.8 2.0 3.45 3.5 2.15 5.0 0.25 5.0 -2.05 5.0 -3.45 3.5 -4.75 2.0 -4.75 0.0 -4.75 -2.05 -3.3 -3.7 -2.15 -4.95 0.25 -4.95 2.15 -4.95 3.45 -3.5 M3.05 3.3 L3.1 3.25 Q4.4 2.05 4.2 0.25 4.05 -1.55 3.3 -2.45 2.4 -3.4 0.45 -3.55 -1.5 -3.8 -2.85 -2.55 -4.15 -1.3 -4.25 0.45 -4.3 2.05 -3.0 3.4 -1.75 4.55 -0.1 4.55 L0.15 4.5 Q1.7 4.3 3.05 3.3" fill="url(#gradient2)" fill-rule="evenodd" stroke="none"/>
    </g>
    <linearGradient gradientTransform="matrix(-4.0E-4, 0.0053, -0.0066, -4.0E-4, -0.05, 0.0)" gradientUnits="userSpaceOnUse" id="gradient0" spreadMethod="pad" x1="-819.2" x2="819.2">
      <stop offset="0.0" stop-color="#01518a"/>
      <stop offset="1.0" stop-color="#33c390"/>
    </linearGradient>
    <linearGradient gradientTransform="matrix(-4.0E-4, 0.0053, -0.0066, -4.0E-4, -0.05, 0.0)" gradientUnits="userSpaceOnUse" id="gradient1" spreadMethod="pad" x1="-819.2" x2="819.2">
      <stop offset="0.0" stop-color="#01518a"/>
      <stop offset="1.0" stop-color="#33c390"/>
    </linearGradient>
    <linearGradient gradientTransform="matrix(-5.0E-4, 0.0034, -0.0066, -8.0E-4, 0.3, -1.25)" gradientUnits="userSpaceOnUse" id="gradient2" spreadMethod="pad" x1="-819.2" x2="819.2">
      <stop offset="0.0" stop-color="#0e3143"/>
      <stop offset="1.0" stop-color="#0e3143" stop-opacity="0.0"/>
    </linearGradient>
    <g id="shape2" transform="matrix(1.0, 0.0, 0.0, 1.0, 4.25, -4.7)">
      <path d="M3.8 9.2 L3.6 9.65 3.3 10.3 3.2 10.35 Q2.5 10.15 2.95 9.75 L3.7 9.2 3.8 9.2 M1.0 9.65 Q1.0 9.55 1.85 9.2 L2.75 8.95 2.25 9.5 1.2 9.95 1.0 9.65" fill="#ffffff" fill-opacity="0.49803922" fill-rule="evenodd" stroke="none"/>
      <path d="M6.25 8.05 L7.65 7.95 8.85 8.05 9.5 8.45 8.85 8.7 7.65 8.9 6.25 8.7 Q5.75 8.6 5.75 8.45 5.75 8.2 6.25 8.05" fill="#ffffff" fill-rule="evenodd" stroke="none"/>
      <path d="M11.15 6.05 L9.85 6.3 10.45 6.4 12.35 6.9 Q11.35 9.0 9.95 9.65 L10.75 7.55 Q9.2 6.75 6.75 6.45 1.9 5.85 -2.65 8.2 L-2.95 8.35 -2.6 7.9 -2.3 7.4 -2.7 7.45 -4.1 7.8 -4.0 7.75 -1.3 6.5 -0.8 6.25 0.6 5.75 0.85 5.7 0.9 5.65 1.65 5.55 4.3 5.35 5.95 5.4 7.0 5.45 7.0 5.5 10.85 5.95 11.15 6.05" fill="url(#gradient3)" fill-rule="evenodd" stroke="none"/>
      <path d="M-3.3 6.45 Q-1.75 5.35 1.05 4.7 L-4.25 7.4 -3.3 6.45" fill="#8c744e" fill-opacity="0.49803922" fill-rule="evenodd" stroke="none"/>
    </g>
    <linearGradient gradientTransform="matrix(0.0093, 0.0, 0.0, 0.0029, 4.7, 7.25)" gradientUnits="userSpaceOnUse" id="gradient3" spreadMethod="pad" x1="-819.2" x2="819.2">
      <stop offset="0.0" stop-color="#774455"/>
      <stop offset="0.5411764705882353" stop-color="#77546a"/>
      <stop offset="1.0" stop-color="#774455"/>
    </linearGradient>
  </defs>
</svg>
