<svg xmlns="http://www.w3.org/2000/svg" xmlns:ffdec="https://www.free-decompiler.com/flash" xmlns:xlink="http://www.w3.org/1999/xlink" ffdec:objectType="frame" width="16.6" height="11.2"><g transform="translate(4.25 .2)"><use ffdec:characterId="1" xlink:href="#a" width="14.5" height="9.1" transform="translate(-2.85 1.9)"/><use ffdec:characterId="3" xlink:href="#b" width="9.55" height="9.95" transform="matrix(-1 0 0 1 8.8 1.05)"/><use ffdec:characterId="4" xlink:href="#c" width="16.6" height="10.1" transform="translate(-4.25 -.2)"/></g><defs><linearGradient id="e" x1="-819.2" x2="819.2" gradientTransform="matrix(-.0004 .0053 -.0066 -.0004 -.05 0)" gradientUnits="userSpaceOnUse" spreadMethod="pad"><stop offset="0" stop-color="#01518a"/><stop offset="1" stop-color="#33c390"/></linearGradient><linearGradient id="f" x1="-819.2" x2="819.2" gradientTransform="matrix(-.0004 .0053 -.0066 -.0004 -.05 0)" gradientUnits="userSpaceOnUse" spreadMethod="pad"><stop offset="0" stop-color="#01518a"/><stop offset="1" stop-color="#33c390"/></linearGradient><linearGradient id="g" x1="-819.2" x2="819.2" gradientTransform="matrix(-.0005 .0034 -.0066 -.0008 .3 -1.25)" gradientUnits="userSpaceOnUse" spreadMethod="pad"><stop offset="0" stop-color="#0e3143"/><stop offset="1" stop-color="#0e3143" stop-opacity="0"/></linearGradient><linearGradient id="h" x1="-819.2" x2="819.2" gradientTransform="matrix(.0093 0 0 .0052 4.7 4.35)" gradientUnits="userSpaceOnUse" spreadMethod="pad"><stop offset="0" stop-color="#745"/><stop offset=".541" stop-color="#77546a"/><stop offset="1" stop-color="#745"/></linearGradient><g id="a" fill-rule="evenodd"><path fill="#fff" d="M.1 4.5q1.4-.7 3.55-1.15 4.85-1 10.65.1l-1.2 2.6Q11.9 8 10.3 8.5l-2.8.6L4 8.6Q1.8 8.05.7 6z"/><path fill="#e2d4e7" d="M.1 4.5 0 4.15Q3.45-.9 9.3.2q2.95.55 5.2 2.3l-.2.95q-5.8-1.1-10.65-.1Q1.5 3.8.1 4.5"/></g><g id="d" fill-rule="evenodd"><path fill="url(#e)" d="M3.45-3.5Q4.8-2.05 4.8 0q0 2-1.35 3.5Q2.15 5 .25 5q-2.3 0-3.7-1.5Q-4.75 2-4.75 0q0-2.05 1.45-3.7Q-2.15-4.95.25-4.95q1.9 0 3.2 1.45" transform="translate(4.75 4.95)"/><path fill="url(#f)" d="M3.45-3.5Q4.8-2.05 4.8 0q0 2-1.35 3.5Q2.15 5 .25 5q-2.3 0-3.7-1.5Q-4.75 2-4.75 0q0-2.05 1.45-3.7Q-2.15-4.95.25-4.95q1.9 0 3.2 1.45" transform="translate(4.75 4.95)"/><path fill="#0d4954" fill-opacity=".8" d="m3.9 3.5 1.05-.35q.55 0 .95.35.4.5.4 1.15 0 .75-.4 1.15l-.95.45q-.65 0-1.05-.45-.4-.4-.4-1.15 0-.65.4-1.15"/><path fill="#e1ffaf" fill-opacity=".498" d="M7.8 8.25q-1.35 1-2.9 1.2l-.25.05-.15-.05-1.8-.6-1.15-.8-.25-.25-.4-1.05Q.65 6 .8 5.6q.2-.4.9-.4.2 0 .9 1.35T4.7 7.9q1.5 0 2.25-1.05.65-.9 1.15-.9t.25 1.1z"/><path fill="url(#g)" d="M3.45-3.5Q4.8-2.05 4.8 0q0 2-1.35 3.5Q2.15 5 .25 5q-2.3 0-3.7-1.5Q-4.75 2-4.75 0q0-2.05 1.45-3.7Q-2.15-4.95.25-4.95q1.9 0 3.2 1.45m-.4 6.8.05-.05q1.3-1.2 1.1-3-.15-1.8-.9-2.7-.9-.95-2.85-1.1-1.95-.25-3.3 1-1.3 1.25-1.4 3Q-4.3 2.05-3 3.4q1.25 1.15 2.9 1.15l.25-.05q1.55-.2 2.9-1.2" transform="translate(4.75 4.95)"/></g><g id="c" fill-rule="evenodd"><path fill="#fff" d="M13.1 6q.65.25.65.65l-.65.5-1.2.3-1.4-.3q-.5-.2-.5-.5 0-.4.5-.65l1.4-.2z"/><path fill="#fff" fill-opacity=".498" d="m7.85 8.85-.3 1.1-.1.15q-.7-.35-.25-1.1l.75-1h.1zm-1.75-.8q.8-.5.9-.5l-.5 1q-.5.6-1.05.8l-.2-.5q0-.25.85-.8"/><path fill="#8c744e" fill-opacity=".498" d="M.95 3.1Q2.5 1.15 5.3 0L0 4.8z"/><path fill="url(#h)" d="m11.15 2.2-1.35.45.65.2 1.9.85q-1 3.8-2.4 4.9l.8-3.7q-1.55-1.4-4-1.95Q1.9 1.9-2.65 6l-.3.3.35-.8.3-.9-.4.15q-1.15.4-1.4.55l.1-.1 2.7-2.15.5-.45 1.4-.9.25-.1.05-.05.75-.2L4.3 1l1.65.05 1.05.1v.05l3.85.8z" transform="translate(4.25 .2)"/></g><use ffdec:characterId="2" xlink:href="#d" id="b" width="9.55" height="9.95"/></defs></svg>