<svg xmlns="http://www.w3.org/2000/svg" xmlns:ffdec="https://www.free-decompiler.com/flash" xmlns:xlink="http://www.w3.org/1999/xlink" ffdec:objectType="frame" width="14.95" height="11.95"><g transform="translate(0 -.4)"><use ffdec:characterId="1" xlink:href="#a" width="11.65" height="10.05" transform="translate(2.8 2.25)"/><use ffdec:characterId="9" xlink:href="#b" width="9.2" height="10.8" transform="matrix(-1 0 0 1 13.45 1.1)"/><use ffdec:characterId="4" xlink:href="#c" width="6.6" height="5" transform="translate(5.9 5.9)"/><use ffdec:characterId="6" xlink:href="#d" width="5.1" height="6.75" transform="matrix(-1 0 0 1 11.7 3)"/><use ffdec:characterId="13" xlink:href="#e" width="14.95" height="11.95" transform="translate(0 .4)"/></g><defs><path id="a" fill="#fff" fill-rule="evenodd" d="M12.05 3.7q1.55.9 2.25 2.05l.15.2-.2 2.55q-.35 1.75-1.5 2.65v.05l-.9.55q-.55.25-.75.4l-.3-.05-.5.1-1.1.1-.25-.15-2.45-.4-.25-.1v.05l-.5-.2q-1.1-.45-2.05-1.35V10l-.05-.05-.6-2.05-.25-3.2q.1-1.4 1.65-2.05 1.35-.6 3.2-.35 2.5.3 4.35 1.4z" transform="translate(-2.8 -2.25)"/><path id="f" fill="url(#g)" fill-rule="evenodd" d="M6.3.25Q8.45.8 9 2.85q.6 2.1-.65 5.2-1.2 3.05-5.3 2.7Q1.25 10.6.5 8.7-.1 7.25.05 5.25.2 2.2 2 .85q1.7-1.3 4.3-.6"/><path id="c" fill="#fff" fill-opacity=".251" fill-rule="evenodd" d="M11.65 5.9h.85q.1 2.6-.6 3.6l-.3.5q-.95.9-2.4.9-1.4 0-2.35-1.35Q6 8.3 5.9 6.15l.7-.05v.5q.05 1.2.4 1.8l.65.75.95.4H9q1.6-.2 2.05-.85l.4-.85.2-.55.05-1.1z" transform="translate(-5.9 -5.9)"/><path id="h" fill="#1e596d" fill-opacity=".988" fill-rule="evenodd" d="M5.1 3.1v.5l-.35 1.65-.7.95-.95.5-.8.05-.25-.05-.4-.1-.4-.25-.15-.1-.7-.85-.35-1.1L0 3.2l.1-.65Q.15 1.9 1.05.9q1-1.2 2.25-.8l1.1.9q.65.9.7 2.1"/><use ffdec:characterId="2" xlink:href="#f" id="b" width="9.2" height="10.8"/><use ffdec:characterId="5" xlink:href="#h" id="d" width="5.1" height="6.75"/><linearGradient id="g" x1="-819.2" x2="819.2" gradientTransform="rotate(88.264 -.483 5.07)scale(.0066)" gradientUnits="userSpaceOnUse" spreadMethod="pad"><stop offset="0" stop-color="#005a9c"/><stop offset=".682" stop-color="#86d2e5"/></linearGradient><g id="e" fill-rule="evenodd"><path fill="#fff" d="M6.45 3.95q0-.5.5-.9.45-.4 1.05-.4t1 .55q.4.25.35.9 0 .5-.55.9l-1.05.35-.65-.2q-.7-.45-.65-1.2M8.4 8.8l-.15-.05.3.35.15.55-.35.8q-.35.45-1.15.25-.85-.2-.85-1.25l.3-.6q.5-.4.9-.35l.4.1z"/><path fill="#fff" fill-opacity=".4" d="m11.4 8.35.65.65.15.55q-.05.7-.6 1.2-.55.45-1.2.4-1-.05-1.4-.95l-.1-.6.05-.2.05-.35q.45-1 1.55-1 .5 0 .85.3"/><path fill-opacity=".251" d="M14.45 6.5q-.8-1.75-2.55-2.7-1.7-.9-3.7-.75h-.8q-2 .3-3.35 1.3Q3.3 4.9 2.2 6.2q-.15-.2-.15-.75Q2.05.95 7 .95l1.5.15q2.65.75 4.25 1.85 1.8 1.25 1.8 2.75z"/><path fill="#3a2d2b" d="M14.3 2.6q-1-1.2-3.15-1.8L9.8.45q1.1.35 2.05.95 2.75 1.65 3.05 4.5v.05l.05.5-.1-.1-.1-.3-.1-.05-.2-.45-.15-.2q-.7-1.15-2.25-2.05H12q-1.85-1.1-4.35-1.4-1.85-.25-3.2.35Q2.9 2.9 2.8 4.3l.25 3.2.6 2.05.05.05v.05q-.6-.3-1.4-1.7t-1-3.35q-.7.2-1.15.65l-.1.05H0l.55-1.5q.4-1.05 1.75-2.15l.15-.1.25-.2-.3.05-.8.2h-.3l-.5.15q-.35.15.1-.1l.45-.3Q3.15.25 5.65.1h.05L6.8 0l.9.05h.1Q9.35-.1 11.2.5q1.85.55 3.15 1.95l.2.2-.1-.05-.05.05zm-1.7 8.5-.3.2q-.65.65-2.7.65l-2.75-.35-.75-.35.8.2 1.4.2H10l1.7-.25.7-.25-.05.05z"/></g></defs></svg>