<svg xmlns="http://www.w3.org/2000/svg" xmlns:ffdec="https://www.free-decompiler.com/flash" xmlns:xlink="http://www.w3.org/1999/xlink" ffdec:objectType="frame" width="12.8" height="13.5"><g transform="translate(-1.15 1.75)"><use ffdec:characterId="8" xlink:href="#a" width="9.8" height="7.9" transform="translate(4.05 3.85)"/><use ffdec:characterId="3" xlink:href="#b" width="8.25" height="11" transform="matrix(-1 0 0 .7063 13.6 3.85)"/><use ffdec:characterId="4" xlink:href="#c" width="5.2" height="6.9" transform="matrix(1 0 0 .7029 6.75 5.82)"/><use ffdec:characterId="6" xlink:href="#d" width="4.35" height="5.65" transform="matrix(-1 0 0 .7063 11.6 5.75)"/><use ffdec:characterId="9" xlink:href="#e" width="12.45" height="8.9" transform="translate(1.15 2.2)"/></g><defs><linearGradient id="g" x1="-819.2" x2="819.2" gradientTransform="matrix(-.0002 .0066 -.0067 -.0003 4.1 5.5)" gradientUnits="userSpaceOnUse" spreadMethod="pad"><stop offset="0" stop-color="#50e797"/><stop offset="1" stop-color="#006635"/></linearGradient><linearGradient id="h" x1="-819.2" x2="819.2" gradientTransform="matrix(-.0002 .0066 -.0067 -.0003 6.3 5.6)" gradientUnits="userSpaceOnUse" spreadMethod="pad"><stop offset="0" stop-color="#50e797"/><stop offset="1" stop-color="#006635"/></linearGradient><linearGradient id="i" x1="-819.2" x2="819.2" gradientTransform="matrix(-.0002 .0066 -.0067 -.0003 2.95 5.45)" gradientUnits="userSpaceOnUse" spreadMethod="pad"><stop offset="0" stop-color="#50e797"/><stop offset="1" stop-color="#006635"/></linearGradient><path id="a" fill="#fff" fill-rule="evenodd" d="M6.1 4.85q-1.15.6-1.55 1.45-.3.65-.5 2.5-.15 1.1 1.25 1.95 1.25.8 2.8.95 2.4.15 3.85-.5 2.4-1.05 1.8-4.2-.65-3.3-4-3.15-2.1.05-3.65 1" transform="translate(-4.05 -3.85)"/><path id="c" fill="#fff" fill-opacity=".298" fill-rule="evenodd" d="m11.95 7.2-.3 1.4-.55 1q-.45.6-1.2.6-1.1 0-1.95-.55-.9-.65-1.15-1.8V6.5L7.25 5l.3-.65q.65-.5 1.35-.9l.45-.15.8.4q1.05.55 1.5 1.7z" transform="translate(-6.75 -3.3)"/><path id="j" fill="#2c6248" fill-rule="evenodd" d="M4.35 2.9v.05Q4.3 4.3 3.45 5.1q-.2.35-1.15.5l-.2.05q-.9-.05-1.5-.9-.65-.85-.6-2Q.1 1.7.6.95l.75-.7L2.3 0q.9.05 1.5.9t.55 2"/><use ffdec:characterId="2" xlink:href="#f" id="b" width="8.25" height="11"/><use ffdec:characterId="5" xlink:href="#j" id="d" width="4.35" height="5.65"/><g id="f" fill-rule="evenodd"><path fill="url(#g)" d="M6.35 5.6q-.05 1.35-.9 2.15h.1q.55 0 .95.4.5-.95.6-2.55zM1.5 5.4q0 2.3.5 3.05l.65-.2q.4 0 .65.25l.3.65-.1.3.65.1h.1l-.2-.7.25-.6-.2.05q-.9-.05-1.5-.9-.65-.85-.6-2zM0 5.2q.05-2.1 1.15-3.65Q2.55-.5 5 .15q2.05.55 2.85 3.2.7 2.35.15 4.55-.9 3.45-4.65 3.05Q-.1 10.65 0 5.2"/><path fill="url(#h)" d="M6.35 5.6h.75Q7 7.2 6.5 8.15q-.4-.4-.95-.4h-.1q.85-.8.9-2.15"/><path fill="url(#i)" d="M1.5 5.4H2q-.05 1.15.6 2 .6.85 1.5.9l.2-.05-.25.6.2.7h-.1l-.65-.1.1-.3-.3-.65q-.25-.25-.65-.25l-.65.2q-.5-.75-.5-3.05"/></g><g id="e" fill-rule="evenodd"><path fill="#fff" d="M6.75 2.7q.45 0 .85.3l.45.45v.2l-.7.65-.85.05q-.35-.05-.7-.3t-.3-.6q0-.3.4-.55zm1.4 5.45-.1.2-.9.35q-.95 0-.95-.65l.35-.4q.25-.15.65-.15l.65.2z"/><path fill="#fff" fill-opacity=".498" d="m10.95 8.65-1 .25q-.9-.05-1.15-.5l-.2-.5.25-.4q.5-.35 1.15-.35h.1q.55 0 .95.3l.45.6z"/><path fill="#3a2d2b" d="M11.9 3q-.75-.65-1.55-.85V2.1l-2.6-.3q-1.65.15-3.1 1.45-1.15.9-1.55 2.05l-.05.2-.1 1q.05.65.75 1.9v.1l-.05.05H3.5l-.75-.75-.05-.1-1.4.35 1.3-.55.1-.05-.3-.7-.75.1L.6 6.7l-.5-.05V6.6h.1l1.95-.25-.1-.55-1.9-.3q-.35-.2.25-.1h1.65l.25-1.2q.65-1.3 2-2.2l.2-.15Q6.75.7 8.7.6l2.65.25q.95.35 1.05.9v.05l-.05.05h-.1l-.05-.05-.75-.3q1 .45.85 1.6v.05l-.1.05-.05-.05-.05-.05-.15-.1zm.5-2v.15h-.2Q10.95.05 8.6.25 6.3.45 4.5 1.8l-1.05.7Q1.85 3.55 1.3 4.85l-.15.05H1.1L1 4.8q.5-1.4 2.95-2.95 2.5-1.6 4.8-1.8T12.4 1"/><path fill="#020202" fill-opacity=".298" d="M3.1 5.3q.4-1.15 1.55-2.05 1.45-1.3 3.1-1.45l2.6.3v.05q.8.2 1.55.85-3.35-.45-5.95.6-1.35.5-2.85 1.7"/></g></defs></svg>