<svg xmlns="http://www.w3.org/2000/svg" xmlns:ffdec="https://www.free-decompiler.com/flash" xmlns:xlink="http://www.w3.org/1999/xlink" ffdec:objectType="frame" width="12.45" height="11.45"><use ffdec:characterId="8" xlink:href="#a" width="11.9" height="7.35" transform="translate(.55 4.1)"/><defs><radialGradient id="b" cx="0" cy="0" r="819.2" gradientTransform="matrix(.0053 .0002 -.0003 .0036 2.65 7.8)" gradientUnits="userSpaceOnUse" spreadMethod="pad"><stop offset="0" stop-color="#fff" stop-opacity=".706"/><stop offset=".702" stop-color="#fff" stop-opacity="0"/></radialGradient><radialGradient id="c" cx="0" cy="0" r="819.2" gradientTransform="matrix(1.0875 -.0462 .0659 .6421 .45 2.9)" gradientUnits="userSpaceOnUse" spreadMethod="pad"><stop offset="0" stop-color="#1370c2" stop-opacity=".659"/><stop offset=".702" stop-color="#0a2e00" stop-opacity=".047"/></radialGradient><radialGradient id="d" cx="0" cy="0" r="819.2" gradientTransform="matrix(1.0902 .011 .0007 .7645 .9 1.8)" gradientUnits="userSpaceOnUse" spreadMethod="pad"><stop offset="0" stop-color="#1370c2" stop-opacity=".659"/><stop offset=".702" stop-color="#0a2e00" stop-opacity=".047"/></radialGradient><linearGradient id="e" x1="-819.2" x2="819.2" gradientTransform="matrix(1 0 0 .6435 .9 2.55)" gradientUnits="userSpaceOnUse" spreadMethod="pad"><stop offset="0" stop-color="#331000"/><stop offset=".137" stop-color="#270f03"/><stop offset=".522"/><stop offset=".878" stop-color="#2e0f02"/><stop offset="1" stop-color="#4a1e0b"/></linearGradient><linearGradient id="f" x1="-819.2" x2="819.2" gradientTransform="matrix(0 0 0 0 .9 2.8)" gradientUnits="userSpaceOnUse" spreadMethod="pad"><stop offset="0" stop-color="#331000"/><stop offset=".137" stop-color="#270f03"/><stop offset=".522"/><stop offset=".878" stop-color="#2e0f02"/><stop offset="1" stop-color="#4a1e0b"/></linearGradient><linearGradient id="g" x1="-819.2" x2="819.2" gradientTransform="matrix(0 0 0 0 .85 2.8)" gradientUnits="userSpaceOnUse" spreadMethod="pad"><stop offset="0" stop-color="#331000"/><stop offset=".137" stop-color="#270f03"/><stop offset=".522"/><stop offset=".878" stop-color="#2e0f02"/><stop offset="1" stop-color="#4a1e0b"/></linearGradient><g id="a" fill-rule="evenodd"><path fill="#fff" d="M9.15 6q-.95 1.1-3.5 1.3l.3-.05q-3.25.2-4.4-1.1Q.35 4.8.45 3.7L.6 2.4l.7-.5q1.75-.8 3.65-.8 1.1 0 2.5.6L9 2.35l1.15.85q.25.4.1 1.05z"/><path fill="#008546" d="m11.6 4.2-.7-.15-.4-.25.1-.1-.55-.5.1-.1 1.75 1.15z"/><path fill="#54a4d0" d="m8.3 2.1.25.55Q9 3.8 8.4 5.25q-.65 1.45-2.75 1.7Q3.6 7.2 2.7 6.1q-.95-1.15-.65-2.65.25-1.55 1.7-2.25l1.45.05 1.1.15 1.25.25.35.3.2.3z"/><path fill="#2d5e8c" d="M3.75 1.2q-1.45.7-1.7 2.25-.3 1.5.65 2.65.9 1.1 2.95.85 2.1-.25 2.75-1.7.6-1.45.15-2.6L8.3 2.1q.35-.15.65.6.4.95-.05 2.15-.5 1.25-1.35 1.8-.85.5-1.8.55l-1.6-.05q-.75-.15-1.2-.5l-.75-.8-.45-1.05q-.2-.7 0-1.6t.8-1.45q.65-.55.75-.55z"/><path fill="url(#b)" d="M5.5 5.35q1.1.45.95 1.95-.2 1.55-1.3 2.45-1.2.95-2.7.9Q1 10.55.1 9.9q-.85-.7-.9-2.3-.15-1.6.95-2.45 1.15-.8 2.7-.5z" transform="translate(2.6 -3.45)"/><path fill="url(#c)" d="m4.35 6.3.45.9.15 1.1-.15.55-.4.55q-.35.45-1.95.35Q.9 9.7.6 8.45.35 7.2.8 6.75l.15-.05.1.1-.15.6q-.2.45.3 1.3.6.85 1.75.7 1.15-.1 1.55-.85l.15-1.4z" transform="translate(2.6 -3.45)"/><path fill="url(#d)" d="M3 9.1q-1.5.05-1.6-1.3-.05-1.05.9-1.3l.85-.05q1.05.25 1.1 1.25L4 8.55q-.35.55-1 .55" transform="translate(2.6 -3.45)"/><path fill-opacity=".318" d="m9.6 5.15-.7-.75q-.55-.45-2.45-.85l-3.25-.2-1.45.25-.65.15-.6.2H.45L.4 3.5l.1-.8q.15-.25.9-.65 1.45-.8 3.45-.8l2.25.5 1.55.65q1.55.5 1.55 1.5l-.45 1.45z"/><path fill="#fff" d="m2.6 4.05-.1-.1-.25-.3.25-.6q.25-.25.8-.45l1.4-.1.35.3.05.45q-.15.6-1.2.8zm3.05-.1.05.1q.15.35-.25.45l-.5-.1-.05-.15.05-.1L5 4.1l.2-.1.3-.05z"/><path fill="#fff" fill-opacity=".451" d="m7.05 6.5-.4-.1q-.3-.2-.2-.4l.1-.1q-.05-.15.3-.15.6.05.65.4zM5.6 6.2h.3q.35.2.1.45l-.6.05-.1-.2q-.05-.2.15-.3z"/><path fill-opacity=".431" d="m5.05 2.8.55.35q.2.3.05.7h.1l-.1.1H5.5L5.2 4l-.2.1-.05.05-.05.1.05.15-.3.05-1.6-.1-.45-.3h1.3q1.05-.2 1.2-.8z"/><path fill="#4a1400" fill-opacity=".298" d="M5.05.35 2.8.4 1.7.65 1.05.8l-.7.35-.3.2.5-.6L1.7.15 2.65 0z"/><path fill="url(#e)" d="M1.45 4.35h.2l.45.05.6.05.85.15 1 .3L6 5.7h.05l.05-.1q0-.35-1.25-.8l1.35.6 1.45 1 .6.55.25.25.2.3h-.05l.05.05-.5-.2-.3.4V7.7l.15-.45L8 7.2l-.1-.05h-.2l-.05.1L6.6 5.9l-.1.1.7 1.15v.05l-.35-.35-1.7-1.15q-1.3-.65-2.55-.75L1.4 5l-.15-.1-.9.05L.3 4.9H.15l-.75.3.05-.15-.1-.1.8-.35-1.05.3-.5.15.7-.35.65-.15 1.15-.2z" transform="translate(2.6 -3.45)"/><path fill="url(#f)" d="M4.85 4.8q1.25.45 1.25.8l-.05.1H6l-1.45-.8-1-.3-.85-.15-.6-.05-.45-.05h-.2l-.1-.05-.45-.05-1.45.25-1 .35-1.05.45 1.25-.65.45-.2 2.2-.3q1.55 0 3.3.55zm-6.25.25.5-.15 1.05-.3-.8.35.1.1-.05.15.75-.3H.3l.05.05.9-.05.15.1q-1.3.25-1.6.45l-.55.25-.4.2-.3.25-.7.65.1-1.4zM7.2 7.2v-.05L6.5 6l.1-.1 1.05 1.35.05-.1h.2l.1.05.05.05-.15.45v.05l.3-.4.5.2-.05-.05h.05l.55.2-1.1-.2-.2.35-.85 1 .1-.25v-.2l.2-.8-.2-.35h.05zm.45-1.05Q6.3 5.05 5.2 4.6l-.4-.15q1.65.45 2.65 1.3l.8.75.55.55-.55-.45z" transform="translate(2.6 -3.45)"/><path fill="url(#g)" d="M3.75 10.75h-2.2l-.3-.05-1-.25-.5-.25 1 .15 2.9.15 1.65-.2z" transform="translate(2.6 -3.45)"/></g></defs></svg>