<svg xmlns="http://www.w3.org/2000/svg" xmlns:ffdec="https://www.free-decompiler.com/flash" xmlns:xlink="http://www.w3.org/1999/xlink" ffdec:objectType="frame" width="12.45" height="11.45"><use ffdec:characterId="11" xlink:href="#a" width="11.9" height="11.45" transform="translate(.55)"/><defs><linearGradient id="b" x1="-819.2" x2="819.2" gradientTransform="matrix(0 0 0 0 .9 -1.6)" gradientUnits="userSpaceOnUse" spreadMethod="pad"><stop offset="0" stop-color="#331000"/><stop offset=".137" stop-color="#270f03"/><stop offset=".522"/><stop offset=".878" stop-color="#2e0f02"/><stop offset="1" stop-color="#4a1e0b"/></linearGradient><linearGradient id="f" x1="-819.2" x2="819.2" gradientTransform="translate(.9 -2)" gradientUnits="userSpaceOnUse" spreadMethod="pad"><stop offset="0" stop-color="#331000"/><stop offset=".137" stop-color="#270f03"/><stop offset=".522"/><stop offset=".878" stop-color="#2e0f02"/><stop offset="1" stop-color="#4a1e0b"/></linearGradient><linearGradient id="g" x1="-819.2" x2="819.2" gradientTransform="matrix(0 0 0 0 .9 -1.6)" gradientUnits="userSpaceOnUse" spreadMethod="pad"><stop offset="0" stop-color="#331000"/><stop offset=".137" stop-color="#270f03"/><stop offset=".522"/><stop offset=".878" stop-color="#2e0f02"/><stop offset="1" stop-color="#4a1e0b"/></linearGradient><linearGradient id="h" x1="-819.2" x2="819.2" gradientTransform="matrix(0 0 0 0 .85 -1.6)" gradientUnits="userSpaceOnUse" spreadMethod="pad"><stop offset="0" stop-color="#331000"/><stop offset=".137" stop-color="#270f03"/><stop offset=".522"/><stop offset=".878" stop-color="#2e0f02"/><stop offset="1" stop-color="#4a1e0b"/></linearGradient><radialGradient id="c" cx="0" cy="0" r="819.2" gradientTransform="matrix(.0053 .0002 -.0003 .0056 2.65 6.15)" gradientUnits="userSpaceOnUse" spreadMethod="pad"><stop offset="0" stop-color="#fff" stop-opacity=".706"/><stop offset=".702" stop-color="#fff" stop-opacity="0"/></radialGradient><radialGradient id="d" cx="0" cy="0" r="819.2" gradientTransform="matrix(1.0875 -.0718 .0659 .9978 .45 -1.5)" gradientUnits="userSpaceOnUse" spreadMethod="pad"><stop offset="0" stop-color="#1370c2" stop-opacity=".659"/><stop offset=".702" stop-color="#0a2e00" stop-opacity=".047"/></radialGradient><radialGradient id="e" cx="0" cy="0" r="819.2" gradientTransform="matrix(1.0902 .0172 .0007 1.1881 .9 -3.2)" gradientUnits="userSpaceOnUse" spreadMethod="pad"><stop offset="0" stop-color="#1370c2" stop-opacity=".659"/><stop offset=".702" stop-color="#0a2e00" stop-opacity=".047"/></radialGradient><g id="a" fill-rule="evenodd"><path fill="#fff" d="M10.15 5q.25.6.1 1.65l-1.1 2.7q-.95 1.7-3.5 2l.3-.05q-3.25.3-4.4-1.75Q.35 7.45.45 5.8L.6 3.75l.7-.8Q3.05 1.7 4.95 1.7q1.1 0 2.5 1L9 3.65q.4 0 1.15 1.35"/><path fill="url(#b)" d="M7.55 4.2 9.3 6h-.05L9 5.9l-.7-.25-.4-.4.1-.15-.55-.75z" transform="translate(2.6 .65)"/><path fill="#54a4d0" d="m3.75 1.9 1.45.05q.3.35 1.1.25 1 .55 1.25.4.15-.15.35.45l.2.45.2-.2.25.85Q9 5.9 8.4 8.2q-.65 2.25-2.75 2.65-2.05.4-2.95-1.35-.95-1.75-.65-4.1.25-2.4 1.7-3.5"/><path fill="#2d5e8c" d="M8.3 3.3q.35-.25.65.95.4 1.45-.05 3.35-.5 1.9-1.35 2.75-.85.8-1.8.9l-1.6-.1-1.2-.8-.75-1.2-.45-1.7q-.2-1.05 0-2.45t.8-2.25l.75-.85h.45Q2.3 3 2.05 5.4q-.3 2.35.65 4.1.9 1.75 2.95 1.35 2.1-.4 2.75-2.65.6-2.3.15-4.05z"/><path fill="url(#c)" d="M.1 9.4q-.85-1.05-.9-3.55-.15-2.5.95-3.8 1.15-1.3 2.7-.8 1.55.4 2.65 1.1 1.1.65.95 3.05-.2 2.35-1.3 3.8-1.2 1.45-2.7 1.4Q1 10.45.1 9.4" transform="translate(2.6 .65)"/><path fill="url(#d)" d="m.95 4.45.1.1-.15.95q-.2.75.3 2.05.6 1.3 1.75 1.1T4.5 7.3l.15-2.15-.3-1.35.45 1.4.15 1.7-.15.9-.4.85q-.35.65-1.95.5Q.9 9.1.6 7.15.35 5.2.8 4.5z" transform="translate(2.6 .65)"/><path fill="url(#e)" d="m2.3 4.1.85-.05q1.05.4 1.1 1.9L4 7.3q-.35.85-1 .85-1.5.05-1.6-2.05-.05-1.6.9-2" transform="translate(2.6 .65)"/><path fill-opacity=".318" d="m6.45 5.55-3.25-.3-1.45.35-.65.25-.6.3H.45L.4 5.5l.1-1.25.9-1.05q1.45-1.25 3.45-1.25.9 0 2.25.8l1.55 1q1.55.75 1.55 2.35l-.45 2.25-.15-.3-.7-1.15q-.55-.75-2.45-1.35"/><path fill="#fff" d="m2.6 6.3-.05-.05-.05-.1-.25-.45.25-.95.8-.7 1.4-.1.35.4.05.75q-.15.95-1.2 1.2t-1.3 0m3.05-.1.05.15q.15.5-.25.65-.45.1-.5-.15l-.05-.2.05-.15.05-.1.2-.15.3-.1z"/><path fill="#fff" fill-opacity=".451" d="m5.6 9.65.3.05q.35.3.1.7l-.6.05-.1-.3q-.05-.35.15-.45zm1.9-.05-.45.55q-.2.05-.4-.2-.3-.3-.2-.6l.1-.15q-.05-.2.3-.2.6.05.65.6"/><path fill-opacity=".431" d="m4.95 6.85-.3.1-1.6-.2-.45-.45q.25.25 1.3 0t1.2-1.2l-.05-.75q.35.15.55.6t.05 1.1l.1-.05-.1.2-.15-.05-.3.1-.2.15-.05.1-.05.15z"/><path fill="#4a1400" fill-opacity=".298" d="M5.05.6 2.8.65 1.7 1l-.65.3-.7.55-.3.25.5-.9Q.9.65 1.7.3l.95-.3Q4-.05 5.05.6"/><path fill="url(#f)" d="M1.45.75h.2l.45.1.6.05.85.25 1 .45L6 2.9l.05-.05.05-.15q0-.5-1.25-1.2.65.3 1.35.9l1.45 1.55.6.9.25.35.2.45h-.05l.05.1-.5-.3-.3.6v-.1l.15-.65L8 5.2l-.1-.1-.2.05-.05.15q-.4-1.4-1.05-2.1l-.1.15.7 1.8v.05l-.35-.55q-.4-.7-1.7-1.75T2.6 1.7l-1.2.05-.15-.1-.9.05-.05-.05-.15-.05q-.2 0-.75.5l.05-.2-.1-.2.8-.55-1.05.45-.5.25.7-.5.65-.3L1.1.75z" transform="translate(2.6 .65)"/><path fill="url(#g)" d="M4.85 1.5q1.25.7 1.25 1.2l-.05.15L6 2.9 4.55 1.6l-1-.45L2.7.9 2.1.85l-.45-.1h-.2L1.35.7.9.65-.55 1l-1 .55-1.05.7 1.25-1 .45-.3Q.05.4 1.3.45q1.55 0 3.3.9zm-6.25.35.5-.25 1.05-.45-.8.55.1.2-.05.2q.55-.5.75-.5l.15.05.05.05.9-.05.15.1-1.6.7-.55.45-.4.3-.3.35-.7 1 .1-2.15zM7.2 5.2v-.05l-.7-1.8.1-.15q.65.7 1.05 2.1l.05-.15.2-.05.1.1.05.1-.15.65v.1l.3-.6.5.3-.05-.1h.05l.55.35-1.1-.3-.2.5-.85 1.55.1-.4V7.1l.2-1.3-.2-.55h.05zm.45-1.65Q6.3 1.9 5.2 1.2L4.8.9q1.65.75 2.65 2.05l.8 1.2.55.8-.55-.65z" transform="translate(2.6 .65)"/><path fill="url(#h)" d="m1.25 10.65-1-.4-.5-.4 1 .25 2.9.2 1.65-.25q-.35.45-1.55.65-1.2.25-2.2 0z" transform="translate(2.6 .65)"/></g></defs></svg>