<?xml version="1.0" encoding="UTF-8" standalone="no"?>
<svg xmlns:ffdec="https://www.free-decompiler.com/flash" xmlns:xlink="http://www.w3.org/1999/xlink" ffdec:objectType="frame" height="9.15px" width="12.5px" xmlns="http://www.w3.org/2000/svg">
  <g transform="matrix(1.0, 0.0, 0.0, 1.0, 3.4, -1.3)">
    <use ffdec:characterId="8" height="7.2" transform="matrix(1.0, 0.0, 0.0, 1.0, -3.4, 2.9)" width="12.5" xlink:href="#shape0"/>
  </g>
  <defs>
    <g id="shape0" transform="matrix(1.0, 0.0, 0.0, 1.0, 3.4, -2.9)">
      <path d="M8.35 6.85 L8.2 7.4 6.65 8.9 Q4.9 9.9 3.6 9.7 L1.9 9.85 1.05 9.75 -0.55 9.25 -0.9 9.05 -2.05 8.1 -2.5 7.2 -2.5 7.15 -2.1 6.55 -1.6 5.95 -1.25 5.5 Q0.15 5.3 3.15 5.5 7.5 5.85 8.2 6.6 L8.35 6.85" fill="#ffffff" fill-rule="evenodd" stroke="none"/>
      <path d="M5.35 9.7 L5.25 9.55 5.3 9.45 5.55 9.6 5.5 9.7 5.35 9.7 M2.7 9.75 L2.95 9.75 2.9 9.9 2.7 9.9 2.7 9.75 M4.7 9.85 L4.65 9.6 4.9 9.7 4.9 9.85 4.7 9.85 M3.95 9.75 L3.95 9.9 3.8 9.9 3.75 9.75 3.95 9.75 M0.85 9.6 L0.65 9.75 0.6 9.7 0.7 9.55 0.85 9.6 M0.2 9.45 L0.0 9.5 -0.15 9.45 -0.1 9.35 0.2 9.45 M2.05 9.7 L2.05 9.85 1.75 9.9 1.75 9.75 1.8 9.7 2.05 9.7" fill="url(#gradient0)" fill-rule="evenodd" stroke="none"/>
      <path d="M3.1 5.65 Q4.7 5.85 5.35 6.5 6.0 7.2 5.85 7.85 L5.3 8.85 Q4.35 9.65 2.95 9.7 L0.75 9.25 Q-0.1 8.85 -0.4 8.0 L-0.4 7.5 -0.25 7.0 Q-0.1 6.5 0.75 5.95 1.6 5.4 3.1 5.65" fill="#3288b8" fill-rule="evenodd" stroke="none"/>
      <path d="M4.75 3.85 Q5.65 4.85 5.85 6.35 6.0 7.8 5.15 8.9 4.25 9.95 2.95 10.1 1.65 10.25 0.65 9.3 -0.45 8.35 -0.45 6.75 -0.5 5.15 0.4 4.1 1.25 3.0 2.5 2.9 3.8 2.85 4.75 3.85" fill="url(#gradient1)" fill-rule="evenodd" stroke="none"/>
      <path d="M2.55 8.55 Q1.45 8.5 1.5 7.7 1.5 6.85 2.85 6.9 4.1 7.0 4.1 7.75 L3.9 8.2 Q3.55 8.55 2.55 8.55" fill="#17628c" fill-opacity="0.8509804" fill-rule="evenodd" stroke="none"/>
      <path d="M3.75 7.8 L4.8 7.75 Q5.55 7.75 5.9 8.2 6.5 8.65 5.4 8.5 L3.8 8.1 Q3.35 7.9 3.75 7.8 M1.55 7.4 L1.15 7.5 0.7 7.4 0.55 7.15 0.7 6.9 1.15 6.8 1.55 6.9 1.75 7.15 1.55 7.4" fill="#ffffff" fill-rule="evenodd" stroke="none"/>
      <path d="M3.7 8.6 L4.05 8.9 Q4.05 9.05 3.75 9.05 L3.5 8.95 3.3 8.75 Q3.3 8.5 3.7 8.6 M3.0 9.0 L2.75 9.15 2.4 8.9 Q2.4 8.65 2.7 8.7 L3.0 9.0 M1.0 8.15 Q1.4 8.1 1.4 8.35 1.4 8.65 0.9 8.65 0.55 8.65 0.55 8.45 0.55 8.2 1.0 8.15 M2.05 8.8 L1.75 9.0 1.55 8.9 1.5 8.8 1.8 8.55 2.05 8.8" fill="#ffffff" fill-opacity="0.27058825" fill-rule="evenodd" stroke="none"/>
      <path d="M8.5 7.15 L7.55 8.1 Q7.25 7.75 5.5 7.3 L2.2 6.85 Q0.65 6.9 -0.55 7.4 L-1.95 8.25 -2.2 7.75 Q-2.45 7.15 -2.05 6.7 L-1.6 6.1 Q-1.25 5.7 -0.7 5.6 -0.25 5.5 -0.2 5.4 L2.3 5.35 Q4.75 5.4 6.75 6.05 8.5 6.6 8.5 7.15" fill="#000000" fill-opacity="0.2" fill-rule="evenodd" stroke="none"/>
      <path d="M7.85 5.7 L8.7 6.25 8.6 6.25 7.7 5.8 Q6.7 5.3 3.65 4.85 L2.9 4.8 0.45 4.75 -0.25 4.85 -1.0 5.05 -1.25 5.1 -1.35 5.15 -2.15 5.55 -2.75 5.95 -2.8 5.95 -2.7 5.7 -1.8 5.1 -1.25 4.8 -0.5 4.55 0.85 4.45 1.85 4.45 5.35 4.9 Q7.15 5.25 7.85 5.7" fill="#e9a067" fill-rule="evenodd" stroke="none"/>
      <path d="M5.6 5.4 L7.2 5.95 Q7.7 6.15 8.4 6.7 L9.1 7.2 8.1 8.0 6.85 8.85 6.55 8.95 7.2 8.3 7.8 7.65 7.95 7.4 7.9 7.35 Q7.6 7.0 6.6 6.6 L4.65 6.1 1.15 5.8 0.55 5.8 -0.6 6.1 Q-1.05 6.25 -1.9 7.35 L-2.1 7.7 -2.15 7.9 -2.2 8.05 -2.3 8.05 -2.35 7.75 -2.4 7.8 -2.55 7.7 -2.6 7.6 -2.6 7.55 -2.65 7.6 -2.8 7.6 -2.85 7.6 -2.85 7.5 -2.85 7.45 -2.85 7.3 -2.95 7.35 -3.15 7.35 -3.35 7.45 -3.25 7.15 -2.35 6.25 -1.35 5.55 -0.25 5.2 2.55 5.05 5.6 5.4" fill="url(#gradient2)" fill-rule="evenodd" stroke="none"/>
    </g>
    <linearGradient gradientTransform="matrix(-0.0076, 0.0, 0.0, 0.0029, 3.35, 7.35)" gradientUnits="userSpaceOnUse" id="gradient0" spreadMethod="pad" x1="-819.2" x2="819.2">
      <stop offset="0.0" stop-color="#541f06"/>
      <stop offset="0.13725490196078433" stop-color="#270f03"/>
      <stop offset="0.5215686274509804" stop-color="#000000"/>
      <stop offset="0.8784313725490196" stop-color="#2e0f02"/>
      <stop offset="1.0" stop-color="#4a1e0b"/>
    </linearGradient>
    <linearGradient gradientTransform="matrix(2.0E-4, 0.0044, -0.0038, 2.0E-4, 2.65, 6.5)" gradientUnits="userSpaceOnUse" id="gradient1" spreadMethod="pad" x1="-819.2" x2="819.2">
      <stop offset="0.43137254901960786" stop-color="#ffffff" stop-opacity="0.0"/>
      <stop offset="1.0" stop-color="#ffffff" stop-opacity="0.61960787"/>
    </linearGradient>
    <linearGradient gradientTransform="matrix(0.0076, 0.0, 0.0, 0.0029, 2.85, 7.4)" gradientUnits="userSpaceOnUse" id="gradient2" spreadMethod="pad" x1="-819.2" x2="819.2">
      <stop offset="0.0" stop-color="#541f06"/>
      <stop offset="0.13725490196078433" stop-color="#270f03"/>
      <stop offset="0.5215686274509804" stop-color="#000000"/>
      <stop offset="0.8784313725490196" stop-color="#2e0f02"/>
      <stop offset="1.0" stop-color="#4a1e0b"/>
    </linearGradient>
  </defs>
</svg>
