<svg xmlns="http://www.w3.org/2000/svg" xmlns:ffdec="https://www.free-decompiler.com/flash" xmlns:xlink="http://www.w3.org/1999/xlink" ffdec:objectType="frame" width="12.5" height="9.15"><use ffdec:characterId="8" xlink:href="#a" width="12.5" height="7.2" transform="translate(0 1.6)"/><defs><linearGradient id="b" x1="-819.2" x2="819.2" gradientTransform="matrix(-.0076 0 0 .0029 3.35 7.35)" gradientUnits="userSpaceOnUse" spreadMethod="pad"><stop offset="0" stop-color="#541f06"/><stop offset=".137" stop-color="#270f03"/><stop offset=".522"/><stop offset=".878" stop-color="#2e0f02"/><stop offset="1" stop-color="#4a1e0b"/></linearGradient><linearGradient id="c" x1="-819.2" x2="819.2" gradientTransform="matrix(.0002 .0044 -.0038 .0002 2.65 6.5)" gradientUnits="userSpaceOnUse" spreadMethod="pad"><stop offset=".431" stop-color="#fff" stop-opacity="0"/><stop offset="1" stop-color="#fff" stop-opacity=".62"/></linearGradient><linearGradient id="d" x1="-819.2" x2="819.2" gradientTransform="matrix(.0076 0 0 .0029 2.85 7.4)" gradientUnits="userSpaceOnUse" spreadMethod="pad"><stop offset="0" stop-color="#541f06"/><stop offset=".137" stop-color="#270f03"/><stop offset=".522"/><stop offset=".878" stop-color="#2e0f02"/><stop offset="1" stop-color="#4a1e0b"/></linearGradient><g id="a" fill-rule="evenodd"><path fill="#fff" d="m11.75 3.95-.15.55L10.05 6Q8.3 7 7 6.8l-1.7.15-.85-.1-1.6-.5-.35-.2-1.15-.95-.45-.9v-.05l.4-.6.5-.6.35-.45q1.4-.2 4.4 0 4.35.35 5.05 1.1z"/><path fill="url(#b)" d="m5.35 9.7-.1-.15.05-.1.25.15-.05.1zm-2.65.05h.25l-.05.15h-.2zm2 .1-.05-.25.25.1v.15zm-.75-.1v.15H3.8l-.05-.15zM.85 9.6l-.2.15L.6 9.7l.1-.15zM.2 9.45 0 9.5l-.15-.05.05-.1zm1.85.25v.15l-.3.05v-.15l.05-.05z" transform="translate(3.4 -2.9)"/><path fill="#3288b8" d="M6.5 2.75q1.6.2 2.25.85.65.7.5 1.35l-.55 1q-.95.8-2.35.85l-2.2-.45Q3.3 5.95 3 5.1v-.5l.15-.5q.15-.5 1-1.05t2.35-.3"/><path fill="url(#c)" d="M4.75 3.85q.9 1 1.1 2.5Q6 7.8 5.15 8.9q-.9 1.05-2.2 1.2t-2.3-.8q-1.1-.95-1.1-2.55Q-.5 5.15.4 4.1 1.25 3 2.5 2.9q1.3-.05 2.25.95" transform="translate(3.4 -2.9)"/><path fill="#17628c" fill-opacity=".851" d="M5.95 5.65Q4.85 5.6 4.9 4.8q0-.85 1.35-.8 1.25.1 1.25.85l-.2.45q-.35.35-1.35.35"/><path fill="#fff" d="m7.15 4.9 1.05-.05q.75 0 1.1.45.6.45-.5.3l-1.6-.4q-.45-.2-.05-.3m-2.2-.4-.4.1-.45-.1-.15-.25L4.1 4l.45-.1.4.1.2.25z"/><path fill="#fff" fill-opacity=".271" d="m7.1 5.7.35.3q0 .15-.3.15l-.25-.1-.2-.2q0-.25.4-.15m-.7.4-.25.15L5.8 6q0-.25.3-.2zm-2-.85q.4-.05.4.2 0 .3-.5.3-.35 0-.35-.2 0-.25.45-.3m1.05.65-.3.2-.2-.1-.05-.1.3-.25z"/><path fill-opacity=".2" d="m11.9 4.25-.95.95q-.3-.35-2.05-.8l-3.3-.45Q4.05 4 2.85 4.5l-1.4.85-.25-.5q-.25-.6.15-1.05l.45-.6q.35-.4.9-.5.45-.1.5-.2l2.5-.05q2.45.05 4.45.7 1.75.55 1.75 1.1"/><path fill="#e9a067" d="m11.25 2.8.85.55H12l-.9-.45q-1-.5-4.05-.95L6.3 1.9l-2.45-.05-.7.1-.75.2-.25.05-.1.05-.8.4-.6.4H.6l.1-.25.9-.6.55-.3.75-.25 1.35-.1h1l3.5.45q1.8.35 2.5.8"/><path fill="url(#d)" d="m5.6 5.4 1.6.55q.5.2 1.2.75l.7.5-1 .8-1.25.85-.3.1.65-.65.6-.65.15-.25-.05-.05Q7.6 7 6.6 6.6l-1.95-.5-3.5-.3h-.6l-1.15.3q-.45.15-1.3 1.25l-.2.35-.05.2-.05.15h-.1l-.05-.3-.05.05-.15-.1-.05-.1v-.05l-.05.05h-.2v-.3l-.1.05h-.2l-.2.1.1-.3.9-.9 1-.7 1.1-.35 2.8-.15z" transform="translate(3.4 -2.9)"/></g></defs></svg>