<svg xmlns="http://www.w3.org/2000/svg" xmlns:ffdec="https://www.free-decompiler.com/flash" xmlns:xlink="http://www.w3.org/1999/xlink" ffdec:objectType="frame" width="12.5" height="12.85"><g transform="translate(-1.3 1.05)"><use ffdec:characterId="3" xlink:href="#a" width="8.4" height="12.1" transform="matrix(-1 0 0 .9559 12.6 .173)"/><use ffdec:characterId="13" xlink:href="#b" width="2.65" height="1.6" transform="translate(10.85 -1.05)"/><use ffdec:characterId="16" xlink:href="#c" width="12.5" height="3.15" transform="translate(1.3 8.65)"/></g><defs><path id="b" fill="#433838" fill-rule="evenodd" d="M11.55-1.05q.95.4 1.5.8l.45.8Q11.95-.85 10.85-1v-.05z" transform="translate(-10.85 1.05)"/><path id="c" fill="#433838" fill-rule="evenodd" d="m12.5 9.65.05.05-.7.45-.5.1h-.1l-1.05-.15-.1-.05V10l1.9-.2zm-.6 1.15.05-.05h.15l.7-.25.7-.3-.2.3-.45.45h.95l-1 .15-.5.1-.1.1-.1.05h-.15l-2.65.4-1.55.05q-3.15-.1-4.6-1.05-.75-.5-1-1L1.8 9.6l-.5-.4h.05l.65.15v-.6l.05-.1.6.55.05.05.05.05.15.2q.75.7 3.45 1.1l4.35.25.6-.05z" transform="translate(-1.3 -8.65)"/><use ffdec:characterId="2" xlink:href="#d" id="a" width="8.4" height="12.1"/><g id="d" fill-opacity="0" fill-rule="evenodd"><path fill="#433838" d="m7.45 1.9.45.5.25.65.2 1.65v1.8l-.3 2.15-.75 2q-.8 1.45-3.05 1.45-2.05 0-3.05-1.4l-.25-.4Q0 8.75 0 6.45 0 2.5 1.05.9 1.6.2 2.5.2l1.65.15q2.2 0 3.3 1.55"/><path fill="#1d6864" d="m7.2 1.75.4.45.3.6.15 1.65V6.2l-.3 2.1-.7 1.95q-.7 1.4-2.8 1.4-1.85 0-2.8-1.3l-.2-.4q-.9-1.5-.9-3.8 0-3.85 1-5.4.5-.75 1.3-.75L4.2.2q2 0 3 1.55"/><path fill="#55c68b" d="M7.05 10.25q-.7 1.4-2.8 1.4-1.85 0-2.8-1.3l-.2-.4-.5-1.1H.9l3.55.45q1.65 0 3.25-.75z"/></g></defs></svg>