<svg xmlns="http://www.w3.org/2000/svg" xmlns:ffdec="https://www.free-decompiler.com/flash" xmlns:xlink="http://www.w3.org/1999/xlink" ffdec:objectType="frame" width="12.9" height="10.75"><use ffdec:characterId="7" xlink:href="#a" width="12.45" height="10.75" transform="translate(.45)"/><defs><radialGradient id="b" cx="0" cy="0" r="819.2" gradientTransform="translate(2.8 5.9)scale(.0061)" gradientUnits="userSpaceOnUse" spreadMethod="pad"><stop offset="0" stop-color="#150077"/><stop offset=".769" stop-color="#4054a6" stop-opacity=".988"/></radialGradient><g id="a" fill-rule="evenodd"><path fill="#fff" d="m10.6 6.35-1.05 2.3Q8.4 10.6 6.25 10.7l-.6.05q-2.25 0-3.85-1.7Q.3 7.5.3 5.65l.05-.7V4.9H.4l1.75-2.25Q3.5 1.4 5.4.95q3.75.35 4.65 1.75l.5 1.05.1.35.2 1z"/><path fill="url(#b)" d="M5.85 8.65q-.75 1.55-2.7 1.6Q1.1 10.3.1 8.85q-1.05-1.5-1-3.1Q-.85 4.1-.15 3q.6-1.15 2.75-1.45 2 .05 2.9 1.3.85 1.2 1 2.75.1 1.5-.65 3.05" transform="translate(2.55 .25)"/><path fill="#010046" fill-opacity=".949" d="M7.45 5.9 7.1 5l.75.95zm-4.3-.4.2.95-.25.25-.05-.45zm.9 3.35-.2-.2-.3-.4.35-.55.55.55-.3.4zm-.3-1.45-.1.1-.3.4-.2-.75.35-.25v.05zm3.1.85.35.35.1.1-.85.5-.15-.7zm-1.65.4-.05.1v.6L4.4 9.1l.15-.3.1-.15.1-.2.45.1zm.6-.05H6l.15.7-.25.05-.35.05.05-.75V8.6zm1.3-.65.3-.65.5.2-.15.55-.2.35-.1-.1zm.35-1v-.7L8 6.4v.8l-.1-.05z"/><path fill="#fff" d="M6.35 9.3q-.45-.45-.4-1 0-.6.65-1.05.6-.5 1.25-.15l.75.75-.05.95-.15.65-.2-.05-.85.2z"/><path fill-opacity=".333" d="m2.85 4.85-1.1.8Q.8 6.4.6 7 .2 6.4.2 5.65l.15-.75.05-.05q.4-.7 1.4-1.7Q3.85 1.2 6.05 1.2t3.55.95q1.4 1 1.4 2.6v.65l-.3.5-.2.45Q10.3 5.8 9.3 5t-2.95-.85-3.5.7"/><path d="M6 .1Q3.45.3 2.2.9 1 1.5.35 2.3l.2-.35L1.8.7q1-.8 3.75-.7L6.9.2zM0 4.05q.35-1.4 1.65-2.2Q2.9 1 3.55.9l2.1-.3L8.1.9H8l.45.1.15.05h.1l.4.05 1.3-.15-.75.6H9.6l.4.3.2.1.6.05q.65 0 1.25-.5l-.4.65-.6.3h-.35l.45.55.55.05.55-.05.2.05-.45.4-.6.25q.5.15-.85 2.7.1-1.95-.7-3Q8.8 2.05 6.6 1.75 4 1.85 2.15 3.4l-2 2.4q.4-1.6.85-2.15l.65-.85L0 4.1z"/></g></defs></svg>