<?xml version="1.0" encoding="UTF-8" standalone="no"?>
<svg xmlns:ffdec="https://www.free-decompiler.com/flash" xmlns:xlink="http://www.w3.org/1999/xlink" ffdec:objectType="frame" height="11.95px" width="14.95px" xmlns="http://www.w3.org/2000/svg">
  <g transform="matrix(1.0, 0.0, 0.0, 1.0, 0.0, -0.4)">
    <use ffdec:characterId="7" height="11.95" transform="matrix(1.0, 0.0, 0.0, 1.0, 0.0, 0.4)" width="14.95" xlink:href="#shape0"/>
  </g>
  <defs>
    <g id="shape0" transform="matrix(1.0, 0.0, 0.0, 1.0, 0.0, -0.4)">
      <path d="M12.05 3.7 Q13.6 4.6 14.3 5.75 L14.45 5.95 14.25 8.5 Q13.9 10.25 12.75 11.15 L12.75 11.2 11.85 11.75 Q11.3 12.0 11.1 12.15 L10.8 12.1 10.3 12.2 9.2 12.3 8.95 12.15 6.5 11.75 6.25 11.65 6.25 11.7 5.75 11.5 Q4.65 11.05 3.7 10.15 L3.7 10.1 3.7 10.0 3.65 9.95 3.05 7.9 2.8 4.7 Q2.9 3.3 4.45 2.65 5.8 2.05 7.65 2.3 10.15 2.6 12.0 3.7 L12.05 3.7" fill="#ffffff" fill-rule="evenodd" stroke="none"/>
      <path d="M12.95 9.8 Q12.2 11.7 10.4 11.85 6.3 12.2 5.1 9.15 3.85 6.05 4.45 3.95 5.0 1.9 7.15 1.35 9.75 0.65 11.45 1.95 13.25 3.3 13.4 6.35 13.55 8.35 12.95 9.8" fill="url(#gradient0)" fill-rule="evenodd" stroke="none"/>
      <path d="M11.65 5.9 L12.5 5.9 Q12.6 8.5 11.9 9.5 L11.6 10.0 Q10.65 10.9 9.2 10.9 7.8 10.9 6.85 9.55 6.0 8.3 5.9 6.15 L6.6 6.1 6.6 6.6 Q6.65 7.8 7.0 8.4 L7.65 9.15 8.6 9.55 9.0 9.55 Q10.6 9.35 11.05 8.7 L11.45 7.85 11.65 7.3 11.7 6.2 11.65 5.9" fill="#ffffff" fill-opacity="0.2509804" fill-rule="evenodd" stroke="none"/>
      <path d="M8.95 3.1 Q9.25 2.7 9.55 3.9 L9.75 5.55 9.8 6.2 9.8 7.3 9.7 8.4 9.5 9.25 9.5 9.35 9.35 9.6 9.2 9.75 9.0 9.7 8.75 9.2 8.55 8.25 8.45 6.6 8.45 6.1 8.65 4.0 8.95 3.1" fill="#000000" fill-opacity="0.9882353" fill-rule="evenodd" stroke="none"/>
      <path d="M6.45 4.35 Q6.45 3.85 6.95 3.45 7.4 3.05 8.0 3.05 8.6 3.05 9.0 3.6 9.4 3.85 9.35 4.5 9.35 5.0 8.8 5.4 L7.75 5.75 7.1 5.55 Q6.4 5.1 6.45 4.35" fill="#ffffff" fill-rule="evenodd" stroke="none"/>
      <path d="M11.4 8.75 L12.05 9.4 12.2 9.95 Q12.15 10.65 11.6 11.15 11.05 11.6 10.4 11.55 9.4 11.5 9.0 10.6 L8.9 10.0 8.95 9.8 9.0 9.45 Q9.45 8.45 10.55 8.45 11.05 8.45 11.4 8.75" fill="#ffffff" fill-opacity="0.4" fill-rule="evenodd" stroke="none"/>
      <path d="M14.45 6.9 Q13.65 5.15 11.9 4.2 10.2 3.3 8.2 3.45 L7.4 3.45 Q5.4 3.75 4.05 4.75 3.3 5.3 2.2 6.6 2.05 6.4 2.05 5.85 2.05 1.35 7.0 1.35 L8.5 1.5 Q11.15 2.25 12.75 3.35 14.55 4.6 14.55 6.1 L14.45 6.9" fill="#000000" fill-opacity="0.2509804" fill-rule="evenodd" stroke="none"/>
      <path d="M14.55 3.05 L14.45 3.0 14.4 3.05 14.3 3.0 Q13.3 1.8 11.15 1.2 L9.8 0.85 Q10.9 1.2 11.85 1.8 14.6 3.45 14.9 6.3 L14.9 6.35 14.95 6.85 14.85 6.75 14.75 6.45 14.65 6.4 14.45 5.95 14.3 5.75 Q13.6 4.6 12.05 3.7 L12.0 3.7 Q10.15 2.6 7.65 2.3 5.8 2.05 4.45 2.65 2.9 3.3 2.8 4.7 L3.05 7.9 3.65 9.95 3.7 10.0 3.7 10.05 Q3.1 9.75 2.3 8.35 1.5 6.95 1.3 5.0 0.6 5.2 0.15 5.65 L0.05 5.7 0.0 5.7 0.55 4.2 Q0.95 3.15 2.3 2.05 L2.45 1.95 2.7 1.75 2.4 1.8 1.6 2.0 1.45 2.0 1.3 2.0 0.8 2.15 Q0.45 2.3 0.9 2.05 L1.35 1.75 Q3.15 0.65 5.65 0.5 L5.7 0.5 6.8 0.4 7.7 0.45 7.8 0.45 Q9.35 0.3 11.2 0.9 13.05 1.45 14.35 2.85 L14.55 3.05 M12.35 11.6 L12.6 11.5 12.3 11.7 Q11.65 12.35 9.6 12.35 L6.85 12.0 6.1 11.65 6.9 11.85 8.3 12.05 10.0 12.05 11.7 11.8 12.4 11.55 12.35 11.6" fill="#3a2d2b" fill-rule="evenodd" stroke="none"/>
    </g>
    <linearGradient gradientTransform="matrix(-2.0E-4, 0.0066, 0.0066, 2.0E-4, 8.85, 6.5)" gradientUnits="userSpaceOnUse" id="gradient0" spreadMethod="pad" x1="-819.2" x2="819.2">
      <stop offset="0.0" stop-color="#210202"/>
      <stop offset="0.6823529411764706" stop-color="#c90000"/>
    </linearGradient>
  </defs>
</svg>
