<?xml version="1.0" encoding="UTF-8" standalone="no"?>
<svg xmlns:ffdec="https://www.free-decompiler.com/flash" xmlns:xlink="http://www.w3.org/1999/xlink" ffdec:objectType="frame" height="11.95px" width="14.95px" xmlns="http://www.w3.org/2000/svg">
  <g transform="matrix(1.0, 0.0, 0.0, 1.0, 0.0, -0.4)">
    <use ffdec:characterId="9" height="5.15" transform="matrix(1.0, 0.0, 0.0, 1.0, 1.9, 6.85)" width="12.75" xlink:href="#shape0"/>
  </g>
  <defs>
    <g id="shape0" transform="matrix(1.0, 0.0, 0.0, 1.0, -1.9, -6.85)">
      <path d="M13.05 11.15 L10.95 11.65 6.85 11.55 5.4 11.1 3.15 11.95 4.55 10.7 4.25 10.55 3.75 10.25 3.7 10.2 Q2.45 9.45 1.95 8.3 3.0 9.7 4.55 9.6 3.15 9.1 2.6 6.9 3.5 8.4 4.75 9.0 6.0 9.6 7.95 10.0 9.95 10.4 14.6 9.4 L13.6 10.05 Q13.5 10.2 13.55 10.5 L13.5 10.85 13.85 11.65 13.05 11.15 13.5 10.85 13.05 11.15 M5.4 11.1 L4.55 10.7 5.4 11.1" fill="#3a2d2b" fill-rule="evenodd" stroke="none"/>
      <path d="M13.05 11.15 L10.95 11.65 6.85 11.55 5.4 11.1 3.15 11.95 4.55 10.7 4.25 10.55 3.75 10.25 3.7 10.2 Q2.45 9.45 1.95 8.3 3.0 9.7 4.55 9.6 3.15 9.1 2.6 6.9 3.5 8.4 4.75 9.0 6.0 9.6 7.95 10.0 9.95 10.4 14.6 9.4 L13.6 10.05 Q13.5 10.2 13.55 10.5 L13.5 10.85 13.85 11.65 13.05 11.15 13.5 10.85 M4.55 10.7 L5.4 11.1 M13.65 8.2 Q11.6 9.15 9.3 8.95" fill="none" stroke="#3a2d2b" stroke-linecap="round" stroke-linejoin="round" stroke-width="0.15000000000000002"/>
    </g>
  </defs>
</svg>
