<?xml version="1.0" encoding="UTF-8" standalone="no"?>
<svg xmlns:ffdec="https://www.free-decompiler.com/flash" xmlns:xlink="http://www.w3.org/1999/xlink" ffdec:objectType="frame" height="8.3px" width="12.45px" xmlns="http://www.w3.org/2000/svg">
  <g transform="matrix(1.0, 0.0, 0.0, 1.0, 3.75, -2.1)">
    <use ffdec:characterId="7" height="8.3" transform="matrix(1.0, 0.0, 0.0, 1.0, -3.75, 2.1)" width="12.4" xlink:href="#shape0"/>
  </g>
  <defs>
    <g id="shape0" transform="matrix(1.0, 0.0, 0.0, 1.0, 3.75, -2.1)">
      <path d="M7.2 7.1 L6.85 7.95 6.8 7.95 6.4 8.25 6.1 8.65 5.85 8.9 5.75 8.85 4.9 9.45 Q3.9 10.05 1.75 10.3 L1.1 10.1 -0.3 9.85 -1.2 9.35 Q-1.45 9.2 -1.6 9.2 L-1.75 9.05 -2.4 7.85 Q-1.5 6.7 0.3 6.15 L4.3 6.0 Q5.8 6.35 7.2 7.1" fill="#ffffff" fill-rule="evenodd" stroke="none"/>
      <path d="M-2.4 7.85 Q-2.85 6.95 -2.9 6.1 L-1.3 4.45 Q-0.1 3.25 2.25 3.25 4.7 3.25 6.3 4.25 7.6 5.05 7.6 5.8 L7.2 7.1 Q5.8 6.35 4.3 6.0 L0.3 6.15 Q-1.5 6.7 -2.4 7.85" fill="#c4c4c4" fill-rule="evenodd" stroke="none"/>
      <path d="M4.35 4.1 Q4.95 4.75 5.05 5.85 L5.1 6.45 4.9 7.6 4.15 8.75 Q3.5 9.4 1.85 9.4 0.15 9.4 -0.75 7.9 L-1.1 6.75 Q-1.25 5.75 -0.75 4.75 L-0.2 4.3 0.65 3.8 Q1.15 3.5 2.4 3.45 3.7 3.4 4.35 4.1" fill="#85003a" fill-rule="evenodd" stroke="none"/>
      <path d="M0.35 5.35 L0.3 6.3 Q0.2 7.3 1.3 7.75 2.35 8.15 3.05 7.75 3.75 7.3 4.0 6.15 L3.95 6.25 3.85 5.3 Q4.4 6.6 4.15 7.35 L3.35 8.5 1.9 8.75 1.2 8.5 Q-0.4 7.7 0.1 5.85 L0.35 5.35" fill="#4a0010" fill-opacity="0.8117647" fill-rule="evenodd" stroke="none"/>
      <path d="M1.95 9.25 Q0.9 9.25 0.1 8.5 -0.65 7.7 -0.65 6.65 -0.65 5.6 0.1 4.85 0.9 4.05 1.95 4.05 3.0 4.05 3.8 4.85 4.55 5.6 4.55 6.65 4.55 7.7 3.8 8.5 3.0 9.25 1.95 9.25" fill="url(#gradient0)" fill-rule="evenodd" stroke="none"/>
      <path d="M2.4 3.45 Q3.7 3.4 4.35 4.1 4.95 4.75 5.05 5.85 L5.05 6.0 2.05 5.9 Q0.15 5.9 -1.1 6.75 -1.25 5.75 -0.75 4.75 L-0.2 4.3 0.65 3.8 Q1.15 3.5 2.4 3.45" fill="#000000" fill-opacity="0.29803923" fill-rule="evenodd" stroke="none"/>
      <path d="M5.65 4.7 L5.3 4.45 3.75 3.95 2.0 3.8 Q1.15 3.85 -0.3 4.5 L-1.4 5.2 -3.5 6.85 -2.9 5.85 -2.2 4.7 Q-1.65 3.95 -0.55 3.35 0.55 2.75 1.65 2.7 L4.25 2.85 Q5.75 3.05 6.9 4.2 L8.6 5.9 Q8.6 6.3 8.05 6.8 L6.85 7.95 Q6.15 8.6 6.6 7.8 L7.1 6.4 Q7.2 5.8 6.0 4.9 L5.65 4.7 M2.55 10.4 L0.9 10.25 0.0 10.0 Q-1.15 9.65 -1.7 9.1 -0.3 9.9 3.1 9.9 L2.5 9.85 5.0 9.2 6.05 8.6 6.1 8.7 5.95 8.9 5.9 9.0 3.95 10.15 2.55 10.4" fill="#311200" fill-rule="evenodd" stroke="none"/>
      <path d="M-3.65 5.3 Q-2.7 4.05 -1.1 3.1 L-0.2 2.65 Q2.95 1.6 6.35 3.1 7.1 3.45 8.55 4.95" fill="none" stroke="#2e1200" stroke-linecap="round" stroke-linejoin="round" stroke-width="0.2"/>
      <path d="M4.35 7.8 L4.35 7.5 4.55 7.5 4.9 7.75 4.6 7.9 4.35 7.8 M4.3 7.0 L4.15 6.75 Q4.15 6.4 4.65 6.5 5.15 6.6 5.15 6.85 L4.8 7.2 4.3 7.0 M0.25 7.45 L-0.7 7.7 Q-1.35 7.6 -1.35 7.05 -1.35 6.1 -0.45 6.0 0.5 5.85 0.55 6.45 L0.25 7.45 M2.0 7.55 L1.8 8.0 Q1.6 8.2 1.3 8.2 0.95 8.2 0.95 7.9 0.95 7.2 1.55 7.2 2.0 7.2 2.0 7.55" fill="#ffffff" fill-rule="evenodd" stroke="none"/>
    </g>
    <radialGradient cx="0" cy="0" gradientTransform="matrix(-0.0041, 0.0, 0.0, 0.0041, 1.95, 6.65)" gradientUnits="userSpaceOnUse" id="gradient0" r="819.2" spreadMethod="pad">
      <stop offset="0.0" stop-color="#ffffff" stop-opacity="0.33333334"/>
      <stop offset="0.7372549019607844" stop-color="#ffffff" stop-opacity="0.0"/>
    </radialGradient>
  </defs>
</svg>
