<?xml version="1.0" encoding="UTF-8" standalone="no"?>
<svg xmlns:ffdec="https://www.free-decompiler.com/flash" xmlns:xlink="http://www.w3.org/1999/xlink" ffdec:objectType="frame" height="8.3px" width="12.45px" xmlns="http://www.w3.org/2000/svg">
  <g transform="matrix(1.0, 0.0, 0.0, 1.0, 3.75, -2.1)">
    <use ffdec:characterId="9" height="3.0" transform="matrix(1.0, 0.0, 0.0, 1.0, -3.45, 6.0)" width="12.15" xlink:href="#shape0"/>
  </g>
  <defs>
    <g id="shape0" transform="matrix(1.0, 0.0, 0.0, 1.0, 3.45, -6.0)">
      <path d="M3.45 7.85 L4.5 7.75 6.7 7.5 8.6 6.75 8.2 7.35 8.7 7.2 Q8.5 7.6 7.75 7.65 L7.9 7.65 7.8 7.75 8.3 7.85 7.9 8.0 7.55 8.0 7.2 8.15 7.25 8.15 7.75 8.25 6.8 8.4 6.7 8.4 6.3 8.6 5.1 8.85 3.75 9.0 3.0 8.95 1.95 8.85 0.6 8.55 -1.0 8.05 -3.45 6.6 0.35 7.5 1.3 7.65 2.1 7.75 2.85 7.85 3.45 7.85" fill="#311200" fill-rule="evenodd" stroke="none"/>
      <path d="M-3.15 6.1 Q3.85 8.2 7.65 6.8" fill="none" stroke="#2e1200" stroke-linecap="round" stroke-linejoin="round" stroke-width="0.2"/>
    </g>
  </defs>
</svg>
