<?xml version="1.0" encoding="UTF-8" standalone="no"?>
<svg xmlns:ffdec="https://www.free-decompiler.com/flash" xmlns:xlink="http://www.w3.org/1999/xlink" ffdec:objectType="frame" height="9.35px" width="12.5px" xmlns="http://www.w3.org/2000/svg">
  <g transform="matrix(1.0, 0.0, 0.0, 1.0, -3.2, -1.2)">
    <use ffdec:characterId="4" height="6.1" transform="matrix(1.0, 0.0, 0.0, 1.0, 3.2, 4.2)" width="12.5" xlink:href="#shape0"/>
  </g>
  <defs>
    <g id="shape0" transform="matrix(1.0, 0.0, 0.0, 1.0, -3.2, -4.2)">
      <path d="M13.55 5.4 L13.9 5.9 14.4 6.55 14.8 7.2 14.8 7.25 14.35 8.25 13.2 9.25 12.85 9.5 11.35 9.95 10.75 10.0 9.9 10.1 8.8 10.0 8.55 10.0 Q7.45 9.95 5.75 8.95 4.0 7.9 4.0 7.3 4.0 5.85 9.15 5.4 12.15 5.2 13.55 5.4 M9.95 10.0 L10.4 9.95 9.3 10.0 9.95 10.0" fill="#ffffff" fill-rule="evenodd" stroke="none"/>
      <path d="M11.95 9.9 L12.1 9.9 12.2 10.05 12.15 10.1 11.95 9.9 M10.75 10.05 L11.0 10.05 11.05 10.1 11.05 10.3 10.75 10.2 10.75 10.05 M12.8 9.85 L12.6 9.75 12.9 9.65 12.95 9.8 12.8 9.85 M7.45 10.0 L7.3 10.0 7.25 9.9 Q7.25 9.8 7.5 9.8 L7.55 9.9 7.45 10.0 M9.0 10.3 L8.85 10.3 8.85 10.1 9.05 10.1 9.0 10.3 M9.85 10.1 L10.1 10.1 10.1 10.3 9.9 10.3 9.85 10.1 M8.1 10.2 L7.9 10.2 7.9 10.0 8.15 9.95 8.1 10.2" fill="url(#gradient0)" fill-rule="evenodd" stroke="none"/>
      <path d="M12.7 7.6 L12.7 8.15 Q12.4 9.05 11.55 9.5 10.75 9.95 9.35 9.95 7.95 9.9 7.0 9.05 6.5 8.55 6.45 7.95 6.3 7.3 6.95 6.5 7.6 5.8 9.2 5.55 10.7 5.3 11.55 5.9 12.4 6.5 12.55 7.0 L12.7 7.6" fill="#85003a" fill-rule="evenodd" stroke="none"/>
      <path d="M11.65 9.55 Q10.65 10.2 9.35 10.1 8.05 10.0 7.15 9.25 6.3 8.5 6.45 7.5 6.65 6.5 7.55 5.8 8.5 5.1 9.8 5.15 11.05 5.2 11.9 5.95 12.8 6.7 12.75 7.8 12.75 8.9 11.65 9.55" fill="url(#gradient1)" fill-rule="evenodd" stroke="none"/>
      <path d="M9.45 6.95 Q10.8 6.9 10.8 7.8 10.85 8.7 9.75 8.7 8.75 8.75 8.4 8.35 L8.2 7.85 Q8.2 7.0 9.45 6.95" fill="#4f0027" fill-opacity="0.8509804" fill-rule="evenodd" stroke="none"/>
      <path d="M12.0 8.7 L10.4 8.25 Q9.95 8.05 10.35 7.95 L11.4 7.85 Q12.15 7.85 12.5 8.35 13.1 8.85 12.0 8.7 M8.35 7.2 L8.15 7.5 7.75 7.6 7.3 7.5 7.15 7.2 7.3 6.9 7.75 6.85 8.15 6.9 8.35 7.2" fill="#ffffff" fill-rule="evenodd" stroke="none"/>
      <path d="M10.35 9.25 L10.1 9.15 9.9 8.95 Q9.9 8.7 10.3 8.8 L10.65 9.1 Q10.65 9.25 10.35 9.25 M8.0 8.5 L7.5 8.85 7.15 8.6 Q7.15 8.35 7.6 8.3 8.0 8.25 8.0 8.5 M8.1 9.0 Q8.1 8.8 8.4 8.75 L8.65 9.0 8.35 9.2 8.15 9.1 8.1 9.0 M9.3 8.9 L9.6 9.2 9.35 9.4 9.0 9.1 Q9.0 8.8 9.3 8.9" fill="#ffffff" fill-opacity="0.27058825" fill-rule="evenodd" stroke="none"/>
      <path d="M13.9 6.05 L14.35 6.7 Q14.75 7.2 14.5 7.85 L14.25 8.4 Q13.95 7.9 13.15 7.5 11.8 6.8 9.8 6.8 L9.3 6.8 6.8 7.3 Q5.0 7.8 4.75 8.25 L3.8 7.2 Q3.8 6.65 5.55 6.0 7.55 5.3 10.0 5.25 L12.5 5.3 13.0 5.5 Q13.55 5.6 13.9 6.05" fill="#000000" fill-opacity="0.2" fill-rule="evenodd" stroke="none"/>
      <path d="M12.55 4.65 L11.85 4.55 9.4 4.55 8.65 4.65 Q5.6 5.15 4.6 5.7 L3.7 6.15 3.6 6.15 Q3.7 6.05 4.45 5.6 5.15 5.1 6.95 4.65 L10.45 4.2 11.45 4.2 12.8 4.3 13.55 4.55 14.1 4.9 15.0 5.6 15.1 5.8 15.05 5.8 14.45 5.4 13.65 4.95 13.55 4.95 13.3 4.85 12.55 4.65" fill="#e9a067" fill-rule="evenodd" stroke="none"/>
      <path d="M11.15 5.75 L7.65 6.05 5.7 6.65 Q4.7 7.05 4.4 7.4 L4.35 7.5 4.5 7.75 4.7 8.05 Q4.75 8.5 6.05 9.3 L6.6 9.65 6.5 9.6 Q5.25 9.1 4.2 8.15 L3.2 7.3 3.9 6.75 Q4.6 6.15 5.1 5.9 L6.7 5.3 9.75 4.95 12.55 5.05 13.65 5.5 14.65 6.25 15.55 7.2 15.65 7.55 15.45 7.4 15.25 7.4 15.15 7.4 15.15 7.55 15.15 7.6 15.15 7.7 15.1 7.65 14.95 7.65 14.9 7.65 14.9 7.7 14.85 7.8 14.7 7.9 14.65 7.85 14.6 8.2 14.5 8.2 14.45 8.05 14.45 8.0 14.4 7.8 14.2 7.4 Q13.35 6.25 12.9 6.05 L11.75 5.75 11.15 5.75" fill="url(#gradient2)" fill-rule="evenodd" stroke="none"/>
    </g>
    <linearGradient gradientTransform="matrix(0.0076, 0.0, 0.0, 0.0032, 9.45, 7.5)" gradientUnits="userSpaceOnUse" id="gradient0" spreadMethod="pad" x1="-819.2" x2="819.2">
      <stop offset="0.0" stop-color="#541f06"/>
      <stop offset="0.13725490196078433" stop-color="#270f03"/>
      <stop offset="0.5215686274509804" stop-color="#000000"/>
      <stop offset="0.8784313725490196" stop-color="#2e0f02"/>
      <stop offset="1.0" stop-color="#4a1e0b"/>
    </linearGradient>
    <linearGradient gradientTransform="matrix(-2.0E-4, 0.003, 0.0038, 1.0E-4, 9.65, 7.6)" gradientUnits="userSpaceOnUse" id="gradient1" spreadMethod="pad" x1="-819.2" x2="819.2">
      <stop offset="0.43137254901960786" stop-color="#ffffff" stop-opacity="0.0"/>
      <stop offset="1.0" stop-color="#ffffff" stop-opacity="0.61960787"/>
    </linearGradient>
    <linearGradient gradientTransform="matrix(0.0076, 0.0, 0.0, 0.0032, 9.45, 7.5)" gradientUnits="userSpaceOnUse" id="gradient2" spreadMethod="pad" x1="-819.2" x2="819.2">
      <stop offset="0.0" stop-color="#541f06"/>
      <stop offset="0.13725490196078433" stop-color="#270f03"/>
      <stop offset="0.5215686274509804" stop-color="#000000"/>
      <stop offset="0.8784313725490196" stop-color="#2e0f02"/>
      <stop offset="1.0" stop-color="#4a1e0b"/>
    </linearGradient>
  </defs>
</svg>
