<?xml version="1.0" encoding="UTF-8" standalone="no"?>
<svg xmlns:ffdec="https://www.free-decompiler.com/flash" xmlns:xlink="http://www.w3.org/1999/xlink" ffdec:objectType="frame" height="53.65px" width="67.55px" xmlns="http://www.w3.org/2000/svg">
  <g transform="matrix(1.0, 0.0, 0.0, 1.0, 22.55, -2.05)">
    <use ffdec:characterId="1" height="53.65" transform="matrix(1.0, 0.0, 0.0, 1.0, -22.55, 2.05)" width="67.55" xlink:href="#shape0"/>
  </g>
  <defs>
    <g id="shape0" transform="matrix(1.0, 0.0, 0.0, 1.0, 22.55, -2.05)">
      <path d="M37.5 43.6 L37.3 43.65 37.4 43.55 37.5 43.6 M38.5 39.1 L38.15 39.35 38.3 38.9 Q38.5 38.4 38.1 37.35 L37.5 36.85 Q36.5 33.45 33.25 30.9 L32.9 30.55 Q36.7 33.1 38.1 37.15 L38.45 37.8 38.5 39.1 M23.95 39.15 L24.3 39.6 Q26.2 42.1 26.95 45.0 L28.8 46.8 29.55 48.5 30.0 50.4 Q30.1 51.05 29.45 52.3 L29.15 52.8 Q29.25 51.55 28.75 50.15 L27.05 46.15 26.45 44.95 20.7 37.4 Q19.25 35.55 18.6 33.45 L23.4 38.6 23.95 39.15" fill="url(#gradient0)" fill-rule="evenodd" stroke="none"/>
      <path d="M-8.0 40.1 Q-9.2 40.5 -9.45 41.1 L-9.5 41.05 Q-9.05 40.2 -7.95 39.5 -6.9 38.8 -5.95 38.65 -5.0 38.45 -2.95 36.8 -1.55 35.65 -1.2 34.0 L-1.0 32.0 -1.05 31.85 -0.9 30.4 Q-0.55 33.2 -0.65 34.2 -0.65 36.25 -2.0 37.25 -3.35 38.2 -4.85 38.75 L-7.4 39.7 -8.0 40.1" fill="url(#gradient1)" fill-rule="evenodd" stroke="none"/>
      <path d="M43.7 36.25 L43.7 36.5 43.65 38.1 Q43.2 36.15 41.4 33.95 L41.8 35.2 40.5 33.35 Q42.45 34.4 43.7 36.25 M42.1 37.6 Q42.0 39.0 41.25 40.4 L41.1 40.7 Q38.9 43.05 37.5 43.6 L37.4 43.55 Q39.45 41.4 39.5 39.75 L39.7 39.55 39.8 39.45 40.5 36.55 40.5 36.35 Q40.9 37.95 40.65 39.8 L40.6 40.0 Q41.6 38.9 41.95 37.25 L41.95 37.15 42.1 37.6" fill="url(#gradient2)" fill-rule="evenodd" stroke="none"/>
      <path d="M43.05 22.3 L43.5 23.5 43.7 24.15 Q45.0 26.35 45.0 27.65 L44.65 29.9 44.2 30.95 44.25 30.5 44.3 29.9 44.05 28.6 Q44.15 29.9 43.6 31.25 L42.55 33.3 Q42.8 32.25 42.6 31.0 L42.0 29.1 41.4 28.05 41.0 27.5 40.2 26.75 41.3 27.4 41.4 27.45 42.2 28.4 42.25 28.55 42.7 29.35 43.05 30.55 43.05 30.75 Q43.7 26.6 41.05 23.75 L40.6 23.2 Q43.1 24.1 43.75 27.0 43.3 23.95 41.3 21.75 L40.5 21.2 Q41.9 21.6 43.05 22.3" fill="url(#gradient3)" fill-rule="evenodd" stroke="none"/>
      <path d="M40.2 26.75 L39.15 25.8 39.4 26.0 Q37.25 23.1 32.65 21.45 29.25 20.2 27.0 17.7 30.85 19.9 35.45 21.25 L36.25 21.3 Q32.85 20.25 30.25 18.05 33.55 19.05 37.15 19.4 L38.3 19.35 38.55 19.4 Q41.5 20.15 42.6 21.35 L42.7 21.5 43.05 22.3 Q41.9 21.6 40.5 21.2 L41.3 21.75 Q43.3 23.95 43.75 27.0 43.1 24.1 40.6 23.2 L41.05 23.75 Q43.7 26.6 43.05 30.75 L43.05 30.55 42.7 29.35 42.25 28.55 42.2 28.4 41.4 27.45 41.3 27.4 40.2 26.75 M24.5 6.15 L25.1 6.5 Q26.85 7.75 27.85 9.55 L29.3 12.15 30.75 13.25 Q33.0 15.0 36.05 16.0 L33.55 15.85 Q30.55 15.55 28.2 14.25 26.1 12.95 24.3 10.8 L28.75 13.35 Q27.1 9.05 22.2 7.1 23.7 7.2 25.2 8.0 L23.9 6.8 25.1 7.15 25.2 7.25 24.5 6.15 M34.0 17.1 L34.3 17.3 Q35.0 17.7 36.25 17.95 L37.25 18.1 36.8 18.15 Q33.05 18.5 29.95 16.6 28.8 15.85 28.2 15.05 L32.85 16.75 34.0 17.1" fill="url(#gradient4)" fill-rule="evenodd" stroke="none"/>
      <path d="M31.7 24.15 L34.5 25.8 Q38.1 27.25 39.6 29.95 40.95 30.6 41.3 31.4 L41.8 32.7 Q41.55 32.1 40.15 31.0 L40.95 32.85 41.2 33.1 Q43.45 34.9 43.7 36.25 42.45 34.4 40.5 33.35 L41.8 35.2 41.9 35.5 Q42.2 36.55 42.1 37.6 L41.95 37.15 41.95 37.25 Q41.6 38.9 40.6 40.0 L40.65 39.8 Q40.9 37.95 40.5 36.35 L40.5 36.55 39.8 39.45 39.7 39.55 39.5 39.75 39.5 39.6 Q39.45 38.9 39.0 38.3 L38.6 39.0 Q39.15 35.3 36.75 32.6 L36.0 31.35 Q38.75 34.35 39.25 38.0 40.35 33.75 36.45 31.2 33.35 29.1 32.5 25.8 32.25 24.8 31.7 24.15 M32.4 34.75 L32.45 34.85 Q33.15 35.55 33.7 37.45 34.25 39.2 34.25 40.35 L34.05 41.35 33.9 41.4 33.45 39.3 Q33.2 37.9 32.8 37.2 L32.2 36.3 32.75 38.4 Q32.95 40.65 33.25 41.65 L33.55 41.95 Q33.65 42.3 34.3 42.75 35.3 43.5 36.7 43.5 L37.15 43.5 37.25 43.55 Q36.75 44.05 35.9 44.05 L35.0 43.9 Q36.95 45.7 40.0 47.15 36.5 46.5 33.2 44.45 29.4 42.1 26.65 37.85 25.7 36.45 25.35 35.0 27.95 37.45 29.9 40.45 29.85 37.0 27.75 34.2 L29.75 36.45 Q28.2 32.65 25.35 29.9 28.1 31.55 30.35 34.0 28.2 30.85 25.65 28.55 L25.35 26.65 Q27.25 30.1 30.2 32.7 L32.4 34.75 M27.4 48.45 L27.4 48.65 Q27.45 51.25 26.25 52.75 23.85 55.65 16.95 55.7 L16.8 55.7 16.6 55.7 14.95 55.65 16.1 55.15 18.6 54.15 20.4 53.1 20.65 52.9 21.1 52.3 Q21.7 51.4 21.7 50.9 L21.7 50.6 21.75 50.5 21.85 50.4 Q22.3 48.2 21.1 45.95 24.35 48.85 22.15 52.1 21.6 52.85 20.75 53.2 25.0 51.95 23.9 47.1 23.5 45.35 22.3 43.85 L20.65 41.5 Q24.3 43.65 26.25 46.7 L26.35 46.8 Q24.95 43.95 22.45 41.25 24.2 42.4 25.85 44.6 27.05 46.35 27.4 48.45 M3.95 54.35 L4.0 55.1 Q3.2 53.9 2.35 53.5 0.15 52.45 -0.55 52.25 L-3.3 51.75 -3.25 51.8 Q-2.75 52.1 -2.35 52.35 -1.8 52.6 -1.5 52.95 -0.85 53.45 -0.85 54.1 -0.85 54.9 -1.75 55.05 -1.2 54.55 -1.15 53.95 -1.15 53.35 -4.85 51.55 L-5.1 51.45 -6.95 50.9 Q-10.2 49.6 -11.4 48.75 -12.8 47.8 -12.8 46.5 L-12.6 45.2 -13.1 45.45 -13.65 46.15 Q-14.05 46.75 -13.65 47.8 -13.25 48.85 -11.45 49.75 L-9.5 50.75 -9.6 50.8 -9.8 50.6 -11.35 50.15 -12.55 49.6 -14.05 48.7 Q-14.75 48.15 -14.75 47.05 -14.75 45.35 -13.25 44.15 L-14.7 44.7 Q-15.25 45.1 -15.45 45.75 L-15.4 46.0 -15.5 45.6 Q-15.5 43.7 -11.0 43.0 L-10.3 42.7 -6.85 40.95 -4.75 39.75 -4.45 39.65 Q-2.9 39.05 -1.65 37.95 L-0.15 36.5 Q1.05 35.55 2.2 31.6 1.95 36.1 0.9 37.45 L1.55 37.05 Q2.25 36.85 2.65 36.15 L2.85 36.0 Q1.8 39.3 -1.65 40.85 -5.1 42.35 -6.5 43.9 -7.95 45.45 -7.95 46.7 -4.7 43.75 -0.3 42.0 L0.2 41.85 -3.45 44.75 Q-4.45 46.0 -4.35 47.65 L-4.35 47.95 -3.9 48.95 Q-0.95 51.65 2.45 53.2 3.35 53.6 3.95 54.35 M-8.85 38.15 L-9.1 38.35 -10.0 39.35 -9.5 36.75 Q-9.7 38.05 -10.75 39.5 -11.9 41.0 -13.5 41.7 L-12.2 39.15 -12.5 39.3 -14.4 41.25 Q-16.45 42.8 -19.1 43.4 L-22.55 43.25 -21.55 43.15 -19.6 41.9 -19.15 41.55 -19.35 41.55 -20.75 41.55 -21.95 41.15 -22.15 40.55 Q-22.15 40.05 -21.5 39.6 -20.75 39.05 -19.7 39.2 L-19.7 39.25 -20.75 39.45 Q-21.25 39.7 -21.45 40.3 -21.65 40.85 -20.05 40.9 -18.5 40.95 -17.3 39.9 -16.15 38.75 -15.9 37.8 L-15.5 36.6 -16.2 36.65 -17.1 36.4 -17.45 35.85 Q-16.85 36.3 -16.3 36.15 -15.6 36.0 -15.15 35.55 L-15.05 34.95 Q-15.6 35.7 -16.65 35.7 -17.55 35.7 -18.2 35.2 L-18.75 34.45 -18.75 34.15 Q-17.95 34.95 -17.05 34.95 -15.55 34.95 -15.3 33.95 L-15.25 33.85 -15.1 33.45 -15.15 32.7 -14.85 28.65 -14.65 27.65 Q-13.65 25.2 -6.9 22.85 -13.5 27.2 -13.6 32.45 -12.65 30.25 -9.7 27.7 L-11.2 30.65 -12.2 32.05 -13.65 34.0 Q-12.2 33.45 -11.15 32.0 -12.1 33.85 -13.65 35.7 -12.15 35.35 -11.05 34.15 L-13.4 38.5 Q-9.4 36.05 -7.85 30.5 L-8.15 34.9 -6.95 32.8 Q-7.35 35.65 -8.85 38.15 M-12.35 43.55 L-12.45 43.55 -12.4 43.55 -12.35 43.55 M-4.5 51.55 L-3.9 51.85 -4.25 51.6 -4.5 51.55" fill="url(#gradient5)" fill-rule="evenodd" stroke="none"/>
      <path d="M39.15 25.8 Q37.55 24.35 34.15 23.55 L30.8 22.45 29.6 21.8 28.75 21.35 29.8 22.45 31.7 24.15 Q32.25 24.8 32.5 25.8 33.35 29.1 36.45 31.2 40.35 33.75 39.25 38.0 38.75 34.35 36.0 31.35 L36.75 32.6 Q39.15 35.3 38.6 39.0 L38.5 39.1 38.45 37.8 38.1 37.15 Q36.7 33.1 32.9 30.55 L33.25 30.9 Q36.5 33.45 37.5 36.85 L37.3 36.75 37.3 37.25 Q37.25 38.3 35.85 38.8 L35.5 38.9 Q36.35 38.55 36.45 37.9 L36.45 36.95 35.7 35.8 Q33.45 34.6 27.45 27.75 L29.6 31.2 Q31.15 32.6 32.4 34.75 L30.2 32.7 Q27.25 30.1 25.35 26.65 L25.65 28.55 Q28.2 30.85 30.35 34.0 28.1 31.55 25.35 29.9 28.2 32.65 29.75 36.45 L27.75 34.2 Q29.85 37.0 29.9 40.45 27.95 37.45 25.35 35.0 25.7 36.45 26.65 37.85 29.4 42.1 33.2 44.45 36.5 46.5 40.0 47.15 L40.7 47.45 40.25 47.4 37.7 47.6 34.35 47.65 Q32.9 47.3 31.6 46.65 31.95 47.25 32.85 48.0 L33.4 48.45 32.55 48.3 31.5 47.8 30.7 47.1 Q29.75 46.0 29.35 45.15 L28.85 44.65 Q29.15 45.75 30.0 46.7 L29.95 46.65 Q29.8 46.65 28.8 45.7 27.8 44.75 27.75 44.1 L27.65 43.2 24.85 38.6 Q22.1 36.2 20.15 33.6 L23.95 39.15 23.4 38.6 18.6 33.45 Q19.25 35.55 20.7 37.4 L26.45 44.95 27.05 46.15 28.75 50.15 Q29.25 51.55 29.15 52.8 L28.25 53.8 Q29.0 52.5 28.65 50.85 28.35 49.35 27.4 48.1 L27.4 48.45 Q27.05 46.35 25.85 44.6 24.2 42.4 22.45 41.25 24.95 43.95 26.35 46.8 L26.25 46.7 Q24.3 43.65 20.65 41.5 L22.3 43.85 Q23.5 45.35 23.9 47.1 25.0 51.95 20.75 53.2 21.6 52.85 22.15 52.1 24.35 48.85 21.1 45.95 22.3 48.2 21.85 50.4 L21.75 50.5 21.7 50.6 Q21.55 49.0 20.55 47.55 L20.55 47.7 20.5 48.85 Q20.25 49.6 19.4 50.2 L16.85 51.9 18.7 49.8 19.1 49.35 Q19.5 48.8 19.5 47.85 19.5 46.85 18.8 45.8 L17.3 44.5 Q18.2 46.0 18.2 47.1 L18.05 48.1 17.45 48.75 17.0 48.85 16.5 48.9 17.0 48.3 17.5 46.8 Q17.5 46.0 16.75 45.1 L16.7 45.05 15.55 43.05 14.1 41.8 13.7 41.45 13.4 41.15 Q11.85 39.65 11.4 38.55 L10.6 36.05 Q10.35 34.95 10.45 34.35 L10.45 34.5 10.2 32.5 10.2 30.9 Q9.0 32.9 9.2 35.2 L9.2 35.25 Q9.55 36.4 9.45 38.0 L9.3 39.6 9.15 40.2 8.9 40.95 8.35 41.9 Q7.9 42.65 6.25 43.65 4.6 44.6 3.95 46.2 L4.35 45.05 Q4.35 44.7 6.1 42.9 L8.15 40.4 8.15 40.35 Q7.55 41.35 4.35 43.6 1.75 45.4 1.75 47.0 1.75 47.95 2.95 48.1 L2.95 48.25 2.5 48.25 1.0 47.55 Q0.7 47.25 0.7 46.65 0.7 45.25 2.85 43.75 L5.0 41.9 3.65 42.65 1.75 43.9 Q-1.15 45.65 -1.15 47.4 L-0.7 48.05 -0.05 48.5 -0.05 48.6 -0.45 48.6 Q-1.85 48.05 -1.85 46.9 L-1.8 46.65 -2.1 47.85 Q-2.1 49.25 1.15 50.9 3.55 52.15 3.95 54.35 3.35 53.6 2.45 53.2 -0.95 51.65 -3.9 48.95 L-4.35 47.95 -4.35 47.65 Q-4.45 46.0 -3.45 44.75 L0.2 41.85 -0.3 42.0 Q-4.7 43.75 -7.95 46.7 -7.95 45.45 -6.5 43.9 -5.1 42.35 -1.65 40.85 1.8 39.3 2.85 36.0 L2.65 36.15 Q2.25 36.85 1.55 37.05 L0.9 37.45 Q1.95 36.1 2.2 31.6 1.05 35.55 -0.15 36.5 L-1.65 37.95 Q-2.9 39.05 -4.45 39.65 L-4.75 39.75 -3.55 38.8 -6.75 39.7 -8.0 40.1 -7.4 39.7 -4.85 38.75 Q-3.35 38.2 -2.0 37.25 -0.65 36.25 -0.65 34.2 -0.55 33.2 -0.9 30.4 L-1.05 31.85 -1.2 30.1 -1.2 29.5 -1.45 29.7 -4.8 32.6 -6.8 35.35 -7.6 36.7 -8.85 38.15 Q-7.35 35.65 -6.95 32.8 L-8.15 34.9 -7.85 30.5 Q-9.4 36.05 -13.4 38.5 L-11.05 34.15 Q-12.15 35.35 -13.65 35.7 -12.1 33.85 -11.15 32.0 -12.2 33.45 -13.65 34.0 L-12.2 32.05 -11.2 30.65 -9.7 27.7 Q-12.65 30.25 -13.6 32.45 -13.5 27.2 -6.9 22.85 -13.65 25.2 -14.65 27.65 -14.1 25.7 -12.8 24.4 -11.6 23.15 -2.65 17.6 L-3.35 17.7 -3.5 17.8 -7.45 18.2 Q-11.1 19.85 -13.75 21.6 -19.1 25.1 -17.6 30.35 L-18.7 28.6 -18.5 26.25 Q-17.65 22.4 -14.4 20.65 L-12.3 19.3 Q-14.55 20.2 -16.5 21.65 -15.05 18.95 -12.85 16.85 L-11.95 16.3 Q-12.1 16.2 -12.3 16.4 -13.9 16.5 -15.1 17.05 L-15.1 17.0 -12.75 14.75 -11.75 14.5 -11.85 14.5 -15.25 14.85 -13.6 14.35 -13.35 14.05 -12.55 13.3 Q-11.4 12.3 -10.4 12.2 L-8.4 12.1 Q-9.7 11.4 -11.0 11.4 -12.65 11.4 -14.1 12.15 L-14.8 12.55 -13.3 11.45 Q-11.9 10.45 -11.0 10.45 L-7.7 11.15 -4.15 11.85 -3.8 11.85 -1.9 10.65 -3.85 10.9 Q-6.05 10.9 -7.4 10.15 L-8.35 9.4 -4.8 9.7 Q-2.8 9.45 0.2 7.8 1.8 5.7 4.25 4.4 6.35 3.2 8.3 2.55 L10.2 3.05 10.75 2.9 11.2 2.9 11.25 2.9 Q12.35 2.4 13.55 2.2 L14.55 2.05 Q17.1 2.4 20.55 4.05 22.7 5.05 24.5 6.15 L25.2 7.25 25.1 7.15 23.9 6.8 25.2 8.0 Q23.7 7.2 22.2 7.1 27.1 9.05 28.75 13.35 L24.3 10.8 Q26.1 12.95 28.2 14.25 30.55 15.55 33.55 15.85 L36.05 16.0 38.35 16.6 39.4 16.5 Q37.95 17.4 36.3 17.4 L34.1 17.05 33.7 16.9 34.0 17.1 32.85 16.75 28.2 15.05 Q28.8 15.85 29.95 16.6 33.05 18.5 36.8 18.15 L37.25 18.1 39.8 18.2 41.2 18.05 Q41.0 18.1 40.8 18.3 L39.7 18.85 38.1 19.25 38.3 19.35 37.15 19.4 Q33.55 19.05 30.25 18.05 32.85 20.25 36.25 21.3 L35.45 21.25 Q30.85 19.9 27.0 17.7 29.25 20.2 32.65 21.45 37.25 23.1 39.4 26.0 L39.15 25.8 M17.75 28.95 L17.7 28.95 18.05 29.7 17.95 29.25 17.75 28.95 M8.35 39.5 L8.35 39.65 8.4 39.65 8.35 39.5" fill="url(#gradient6)" fill-rule="evenodd" stroke="none"/>
      <path d="M-18.7 28.6 L-18.75 28.5 Q-20.1 26.75 -19.4 23.15 -18.85 20.4 -15.6 16.55 -17.7 17.3 -19.8 21.75 -19.85 20.2 -18.5 17.7 -17.55 15.85 -15.4 14.9 L-15.25 14.85 -11.85 14.5 -11.75 14.5 -12.75 14.75 -15.1 17.0 -15.1 17.05 Q-13.9 16.5 -12.3 16.4 -12.1 16.2 -11.95 16.3 L-12.85 16.85 Q-15.05 18.95 -16.5 21.65 -14.55 20.2 -12.3 19.3 L-14.4 20.65 Q-17.65 22.4 -18.5 26.25 L-18.7 28.6" fill="url(#gradient7)" fill-rule="evenodd" stroke="none"/>
    </g>
    <radialGradient cx="0" cy="0" gradientTransform="matrix(0.0448, 0.0, 0.0, 0.0448, 11.25, 28.9)" gradientUnits="userSpaceOnUse" id="gradient0" r="819.2" spreadMethod="pad">
      <stop offset="0.0" stop-color="#bbbbbb"/>
      <stop offset="1.0" stop-color="#e2e2e2"/>
    </radialGradient>
    <radialGradient cx="0" cy="0" gradientTransform="matrix(0.0448, 0.0, 0.0, 0.0448, 11.25, 28.9)" gradientUnits="userSpaceOnUse" id="gradient1" r="819.2" spreadMethod="pad">
      <stop offset="0.0" stop-color="#e9c8b8"/>
      <stop offset="1.0" stop-color="#d0a591"/>
    </radialGradient>
    <radialGradient cx="0" cy="0" gradientTransform="matrix(0.0448, 0.0, 0.0, 0.0448, 11.25, 28.9)" gradientUnits="userSpaceOnUse" id="gradient2" r="819.2" spreadMethod="pad">
      <stop offset="0.0" stop-color="#ffb18e"/>
      <stop offset="1.0" stop-color="#f0ecaa"/>
    </radialGradient>
    <radialGradient cx="0" cy="0" gradientTransform="matrix(0.0108, -0.0036, 0.0036, 0.0108, 39.65, 23.7)" gradientUnits="userSpaceOnUse" id="gradient3" r="819.2" spreadMethod="pad">
      <stop offset="0.0" stop-color="#ffb18e"/>
      <stop offset="1.0" stop-color="#f0ecaa"/>
    </radialGradient>
    <radialGradient cx="0" cy="0" gradientTransform="matrix(0.0254, 0.0, 0.0, 0.0254, 25.5, 20.4)" gradientUnits="userSpaceOnUse" id="gradient4" r="819.2" spreadMethod="pad">
      <stop offset="0.0" stop-color="#ff8c58"/>
      <stop offset="1.0" stop-color="#fff65f"/>
    </radialGradient>
    <radialGradient cx="0" cy="0" gradientTransform="matrix(0.0448, 0.0, 0.0, 0.0448, 11.25, 28.9)" gradientUnits="userSpaceOnUse" id="gradient5" r="819.2" spreadMethod="pad">
      <stop offset="0.0" stop-color="#ff8c58"/>
      <stop offset="1.0" stop-color="#fff65f"/>
    </radialGradient>
    <radialGradient cx="0" cy="0" gradientTransform="matrix(0.0448, 0.0, 0.0, 0.0448, 11.25, 28.9)" gradientUnits="userSpaceOnUse" id="gradient6" r="819.2" spreadMethod="pad">
      <stop offset="0.0" stop-color="#c47b4f"/>
      <stop offset="0.43137254901960786" stop-color="#871717"/>
      <stop offset="0.8666666666666667" stop-color="#c47b4f"/>
    </radialGradient>
    <radialGradient cx="0" cy="0" gradientTransform="matrix(0.0162, 0.0, 0.0, 0.0162, -12.25, 19.1)" gradientUnits="userSpaceOnUse" id="gradient7" r="819.2" spreadMethod="pad">
      <stop offset="0.0" stop-color="#ff8c58"/>
      <stop offset="1.0" stop-color="#fff65f"/>
    </radialGradient>
  </defs>
</svg>
