<?xml version="1.0" encoding="UTF-8" standalone="no"?>
<svg xmlns:ffdec="https://www.free-decompiler.com/flash" xmlns:xlink="http://www.w3.org/1999/xlink" ffdec:objectType="frame" height="27.7px" width="33.05px" xmlns="http://www.w3.org/2000/svg">
  <g transform="matrix(1.0, 0.0, 0.0, 1.0, -12.55, -27.8)">
    <use ffdec:characterId="1" height="27.7" transform="matrix(1.0, 0.0, 0.0, 1.0, 12.55, 27.8)" width="33.05" xlink:href="#shape0"/>
  </g>
  <defs>
    <g id="shape0" transform="matrix(1.0, 0.0, 0.0, 1.0, -12.55, -27.8)">
      <path d="M19.85 44.05 L19.65 44.05 18.7 43.1 17.6 41.9 18.25 41.4 19.25 41.5 20.55 41.4 19.75 42.45 19.85 42.45 19.75 43.3 19.85 44.05" fill="#4b4ba1" fill-rule="evenodd" stroke="none"/>
      <path d="M31.45 34.85 L30.3 36.95 Q29.7 37.8 29.7 38.4 L30.0 39.8 29.85 41.1 29.35 42.35 27.95 44.7 27.8 44.7 Q26.95 44.5 25.25 42.85 23.65 41.3 23.35 40.5 L23.3 40.45 24.0 40.05 24.9 39.5 Q26.45 38.4 26.4 37.5 L26.2 37.5 26.35 37.3 Q26.65 36.85 27.9 36.15 29.6 35.1 31.0 34.85 L31.45 34.85" fill="url(#gradient0)" fill-rule="evenodd" stroke="none"/>
      <path d="M20.0 42.15 L19.85 42.6 20.3 42.9 20.45 43.05 19.7 42.85 19.45 43.55 19.4 43.55 19.2 42.75 18.55 42.7 19.25 42.55 19.2 42.0 19.6 42.35 20.0 42.15 M30.25 35.3 L30.1 35.6 30.55 35.9 30.05 35.75 29.85 36.25 29.8 36.25 29.7 35.7 29.25 35.7 29.7 35.55 29.7 35.2 30.0 35.4 30.25 35.3 M28.45 38.55 L28.45 38.6 27.75 38.2 27.3 38.65 27.55 38.0 27.2 37.7 27.7 37.65 27.85 37.15 28.05 37.6 28.55 37.5 28.75 37.5 28.15 37.9 28.45 38.55 M25.7 40.4 L24.9 40.65 24.95 41.3 24.7 40.65 24.2 40.7 24.5 40.3 24.25 39.9 24.7 40.05 24.95 39.55 25.1 39.4 25.0 40.15 25.7 40.35 25.7 40.4 M27.65 42.85 L27.6 42.3 28.0 42.65 28.4 42.45 28.25 42.9 28.7 43.2 28.85 43.35 28.1 43.15 27.85 43.85 27.8 43.85 27.6 43.05 26.95 43.0 27.65 42.85 M25.7 42.95 L24.95 42.75 24.7 43.45 24.65 43.45 24.45 42.65 23.8 42.6 24.5 42.45 24.45 41.9 24.85 42.25 25.25 42.05 25.1 42.5 25.55 42.8 25.7 42.95 M27.95 40.7 L27.45 40.65 28.0 40.5 27.95 40.1 28.3 40.35 28.6 40.2 28.45 40.55 28.95 40.9 28.35 40.75 28.15 41.3 28.1 41.3 27.95 40.7" fill="#ffffc6" fill-rule="evenodd" stroke="none"/>
      <path d="M19.65 41.9 L18.05 41.55 18.25 41.4 19.25 41.5 20.55 41.4 19.75 42.45 19.85 42.45 19.75 43.3 19.85 44.05 19.65 44.05 19.3 43.7 Q19.3 42.15 19.65 41.9 M26.4 37.5 L26.2 37.5 26.35 37.3 26.9 36.8 26.4 37.85 26.4 37.5 M28.2 37.25 L26.25 39.5 Q24.45 41.65 25.1 42.7 23.65 41.25 23.35 40.5 L23.3 40.45 24.0 40.05 24.9 39.5 25.7 38.9 28.2 37.25" fill="#010131" fill-opacity="0.7176471" fill-rule="evenodd" stroke="none"/>
      <path d="M19.85 44.05 L19.75 43.3 19.85 42.45 20.35 42.2 20.45 42.2 Q20.15 42.6 20.15 43.35 L20.15 43.45 19.9 44.0 19.85 44.05" fill="#000033" fill-rule="evenodd" stroke="none"/>
      <path d="M18.15 37.1 L18.3 37.75 17.8 38.25 17.05 38.85 17.1 38.75 17.1 38.65 17.1 37.45 Q17.1 36.3 17.45 36.3 L18.05 36.9 18.15 37.1 M24.05 36.55 L24.25 36.5 24.25 36.55 20.45 37.15 20.85 36.95 20.75 36.3 Q20.75 34.9 21.9 34.9 22.45 34.9 23.2 35.65 L23.9 36.6 24.05 36.55" fill="#ffffff" fill-rule="evenodd" stroke="none"/>
      <path d="M17.1 38.75 L17.05 38.7 16.8 36.5 16.65 36.5 17.0 36.35 16.75 35.95 16.8 35.95 17.3 36.05 17.35 36.0 17.85 36.3 17.9 36.3 17.8 35.95 17.8 35.9 18.15 37.1 18.05 36.9 17.45 36.3 Q17.1 36.3 17.1 37.45 L17.1 38.65 17.1 38.75" fill="url(#gradient1)" fill-rule="evenodd" stroke="none"/>
      <path d="M20.7 37.05 L20.45 36.5 Q20.35 36.0 20.5 35.75 L20.45 35.75 20.1 35.8 20.5 35.35 21.0 34.85 20.5 34.55 22.3 34.7 Q22.7 34.7 23.55 35.35 L23.55 35.4 23.25 35.4 Q23.8 35.7 24.05 36.5 L24.05 36.55 23.9 36.6 23.2 35.65 Q22.45 34.9 21.9 34.9 20.75 34.9 20.75 36.3 L20.85 36.95 20.7 37.05" fill="url(#gradient2)" fill-rule="evenodd" stroke="none"/>
      <path d="M21.3 49.9 Q20.1 45.7 19.85 44.05 L19.9 44.0 20.15 43.45 20.15 44.15 Q20.3 43.85 20.75 43.65 20.75 44.55 20.9 44.8 L21.2 44.45 21.4 44.45 21.5 45.5 21.85 45.35 Q21.45 47.4 21.3 49.9" fill="#1c1c5f" fill-rule="evenodd" stroke="none"/>
      <path d="M20.55 41.4 L19.25 41.5 18.25 41.4 17.65 41.25 16.05 40.7 16.15 40.7 16.35 40.4 15.85 40.4 15.95 40.25 16.55 40.15 16.55 40.05 15.45 39.75 16.55 39.65 16.55 39.05 Q16.4 38.65 16.4 37.2 L16.4 36.85 16.35 36.25 16.35 36.0 16.35 35.65 Q16.4 34.9 17.0 34.15 L17.2 33.9 17.4 33.7 17.85 33.25 Q18.75 32.35 19.7 32.1 L19.65 31.6 20.05 29.4 20.45 27.8 Q24.3 31.1 24.45 33.9 L24.85 34.35 25.45 35.2 25.7 35.95 25.8 36.05 25.85 36.0 Q26.3 35.55 26.6 35.55 L26.5 35.95 26.5 36.05 27.15 35.55 26.35 37.3 26.2 37.5 26.4 37.5 Q26.45 38.4 24.9 39.5 L24.0 40.05 23.3 40.45 23.25 40.5 21.75 41.1 20.55 41.4 M18.15 37.1 L17.8 35.9 17.8 35.95 17.9 36.3 17.85 36.3 17.35 36.0 17.3 36.05 16.8 35.95 16.75 35.95 17.0 36.35 16.65 36.5 16.8 36.5 17.05 38.7 17.1 38.75 17.05 38.85 17.8 38.25 18.3 37.75 18.15 37.1 M20.55 32.7 L21.1 32.7 22.95 33.35 20.75 29.8 20.45 31.5 20.55 32.7 M24.05 36.55 L24.05 36.5 Q23.8 35.7 23.25 35.4 L23.55 35.4 23.55 35.35 Q22.7 34.7 22.3 34.7 L20.5 34.55 21.0 34.85 20.5 35.35 20.1 35.8 20.45 35.75 20.5 35.75 Q20.35 36.0 20.45 36.5 L20.7 37.05 20.45 37.15 24.25 36.55 24.25 36.5 24.05 36.55" fill="url(#gradient3)" fill-rule="evenodd" stroke="none"/>
      <path d="M16.4 37.2 Q14.85 36.95 13.95 35.35 13.15 34.0 12.55 30.9 L15.2 31.9 Q17.45 32.85 17.85 33.25 L17.4 33.7 17.2 33.9 17.0 34.15 15.5 33.3 14.1 32.3 Q14.15 33.25 15.2 35.1 L16.4 36.85 16.4 37.2" fill="url(#gradient4)" fill-rule="evenodd" stroke="none"/>
      <path d="M34.3 49.55 L34.1 49.65 33.95 50.0 34.1 50.35 34.45 50.5 34.7 50.5 35.2 52.45 35.1 52.7 34.45 53.45 33.85 53.95 34.3 54.0 34.4 54.45 34.3 54.7 33.7 55.25 28.55 55.45 27.55 55.45 Q26.8 55.35 26.8 54.85 L27.05 54.5 27.65 54.0 Q27.95 53.8 28.2 53.7 L28.05 53.65 Q25.3 53.05 25.3 51.15 25.3 50.7 25.6 50.2 L25.2 49.8 25.05 49.65 24.55 49.05 24.1 48.45 Q23.65 47.75 23.55 47.3 L23.1 48.9 22.8 50.0 22.3 52.05 22.0 53.6 Q22.55 53.65 22.9 53.85 23.45 54.15 23.35 54.8 L22.95 55.05 22.95 55.15 22.3 55.45 22.25 55.3 22.25 55.15 22.2 55.25 22.1 55.25 22.1 55.35 22.0 55.35 21.4 55.15 Q21.1 54.9 21.1 54.6 L21.3 49.9 Q21.45 47.4 21.85 45.35 L21.5 45.5 21.4 44.45 21.2 44.45 20.9 44.8 Q20.75 44.55 20.75 43.65 20.3 43.85 20.15 44.15 L20.15 43.45 20.15 43.35 Q20.15 42.6 20.45 42.2 L20.35 42.2 19.85 42.45 19.75 42.45 20.55 41.4 21.75 41.1 23.25 40.5 23.35 40.5 Q23.65 41.3 25.25 42.85 26.95 44.5 27.8 44.7 L28.8 45.45 32.75 47.55 Q33.5 47.85 34.3 49.55" fill="url(#gradient5)" fill-rule="evenodd" stroke="none"/>
      <path d="M27.05 54.5 L26.2 54.6 24.55 54.8 23.65 54.8 24.1 54.2 Q24.15 53.85 24.8 53.6 L25.65 53.4 24.15 52.1 Q24.2 54.5 23.35 54.8 23.45 54.15 22.9 53.85 L22.7 52.8 22.3 52.05 22.8 50.0 23.3 50.75 23.25 50.35 Q23.25 49.75 23.5 49.45 23.75 49.15 24.55 49.05 L25.05 49.65 25.2 49.8 25.6 50.2 Q25.3 50.7 25.3 51.15 25.3 53.05 28.05 53.65 L28.2 53.7 Q27.95 53.8 27.65 54.0 L27.05 54.5 M25.65 53.4 L25.7 53.4 25.65 53.4" fill="#0a0a3a" fill-rule="evenodd" stroke="none"/>
      <path d="M17.0 34.15 Q16.4 34.9 16.35 35.65 L16.35 36.0 16.35 36.25 16.4 36.85 15.2 35.1 Q14.15 33.25 14.1 32.3 L15.5 33.3 17.0 34.15" fill="url(#gradient6)" fill-rule="evenodd" stroke="none"/>
      <path d="M20.55 32.7 L20.45 31.5 20.75 29.8 22.95 33.35 21.1 32.7 20.55 32.7" fill="url(#gradient7)" fill-rule="evenodd" stroke="none"/>
      <path d="M34.3 49.55 L34.45 49.5 34.7 49.5 Q36.25 49.5 37.85 48.6 L37.85 48.65 Q40.0 47.4 40.0 45.25 39.95 44.05 38.2 42.05 36.1 39.6 36.1 37.55 36.1 35.15 37.1 33.45 38.45 30.95 41.35 30.95 42.85 30.95 44.0 31.65 45.6 32.5 45.6 34.3 L45.35 35.5 45.05 35.75 44.7 35.7 44.45 35.4 44.45 35.05 44.6 34.3 Q44.6 33.1 43.5 32.5 42.55 31.95 41.35 31.95 39.05 31.95 37.95 33.95 37.1 35.45 37.1 37.55 37.1 39.3 38.95 41.4 41.05 43.75 41.0 45.25 41.0 48.0 38.35 49.5 36.45 50.5 34.7 50.5 L34.45 50.5 34.1 50.35 33.95 50.0 34.1 49.65 34.3 49.55" fill="url(#gradient8)" fill-rule="evenodd" stroke="none"/>
      <path d="M20.0 44.05 L20.1 43.7 20.35 43.85 20.7 44.1 21.15 48.55 Q20.0 45.35 20.0 44.05 M24.35 43.85 L24.65 45.3 24.35 46.5 Q23.95 47.15 23.55 47.05 L24.35 43.85 M33.05 53.6 L29.1 54.1 Q27.85 54.25 27.05 54.55 L27.0 54.55 Q27.15 54.15 28.1 53.75 L32.7 53.6 33.05 53.6" fill="#0a0a3a" fill-rule="evenodd" stroke="none"/>
      <path d="M21.5 36.15 L21.5 36.2 21.85 36.7 22.4 36.8 22.8 36.4 22.75 35.7 22.3 35.2 21.8 35.15 21.6 35.25 21.5 35.25 21.15 35.35 21.1 35.5 21.2 35.1 21.9 34.9 Q22.45 34.9 23.2 35.65 L23.35 35.85 23.45 36.5 23.45 36.85 21.7 37.1 21.5 36.9 Q21.05 36.45 21.05 35.8 L21.15 36.0 21.5 36.15" fill="url(#gradient9)" fill-rule="evenodd" stroke="none"/>
      <path d="M17.15 36.95 Q17.2 36.3 17.45 36.3 L17.65 36.35 18.05 36.9 18.1 37.0 18.1 37.05 17.85 36.8 17.5 36.7 17.25 36.9 17.15 36.95 M18.15 37.65 L18.15 37.85 18.15 37.95 17.8 38.25 17.55 38.5 17.25 38.05 17.1 37.8 17.1 37.45 17.1 37.3 17.25 37.4 17.25 37.45 17.5 37.8 17.9 37.95 18.15 37.65" fill="url(#gradient10)" fill-rule="evenodd" stroke="none"/>
      <path d="M18.1 37.05 L18.15 37.15 18.15 37.65 17.9 37.95 17.5 37.8 17.25 37.45 17.25 37.4 17.3 37.4 17.45 37.3 17.55 37.15 17.45 36.95 17.3 36.9 17.25 36.9 17.5 36.7 17.85 36.8 18.1 37.05 M21.6 35.25 L21.8 35.15 22.3 35.2 22.75 35.7 22.8 36.4 22.4 36.8 21.85 36.7 21.5 36.2 21.5 36.15 21.8 36.0 21.95 35.7 21.8 35.35 21.6 35.25" fill="#191977" fill-opacity="0.98039216" fill-rule="evenodd" stroke="none"/>
      <path d="M17.1 37.3 L17.05 37.15 17.1 36.95 17.15 36.95 17.25 36.9 17.3 36.9 17.45 36.95 17.55 37.15 17.45 37.3 17.3 37.4 17.25 37.4 17.1 37.3 M21.6 35.25 L21.8 35.35 21.95 35.7 21.8 36.0 21.5 36.15 21.15 36.0 21.05 35.8 21.05 35.75 21.05 35.7 21.1 35.5 21.15 35.35 21.5 35.25 21.6 35.25" fill="#ffffff" fill-opacity="0.98039216" fill-rule="evenodd" stroke="none"/>
      <path d="M20.0 37.7 L20.05 37.7 Q19.7 37.8 19.25 38.55 L18.7 38.2 Q18.75 38.05 19.3 37.85 L20.0 37.7" fill="#a6a6cd" fill-rule="evenodd" stroke="none"/>
      <path d="M20.5 39.35 L19.5 39.3 19.1 39.75" fill="none" stroke="#a6a6cd" stroke-linecap="round" stroke-linejoin="round" stroke-opacity="0.98039216" stroke-width="0.1"/>
      <path d="M17.7 40.4 Q16.75 40.6 15.45 41.85 14.05 43.2 14.4 44.0 M17.55 40.0 Q16.4 40.1 14.8 41.25 13.2 42.35 13.2 43.2 M17.45 39.5 L17.0 39.5 Q15.7 39.35 14.15 40.3 12.65 41.25 12.65 42.1 M22.4 38.85 L27.7 39.4 30.6 40.0 M22.45 38.45 L23.9 38.2 27.1 37.9 31.75 38.35 M22.45 38.05 Q24.45 36.65 30.9 36.65 M22.0 54.6 L22.25 55.1 M22.7 54.5 L23.0 54.8 23.0 55.1 M26.95 54.95 L27.35 54.55 27.95 54.45 M27.35 55.45 L27.65 55.0 Q27.95 54.8 28.25 54.75" fill="none" stroke="#a6a6cd" stroke-linecap="round" stroke-linejoin="round" stroke-opacity="0.98039216" stroke-width="0.1"/>
    </g>
    <radialGradient cx="0" cy="0" gradientTransform="matrix(0.0102, 0.0, 0.0, 0.0102, 24.25, 38.9)" gradientUnits="userSpaceOnUse" id="gradient0" r="819.2" spreadMethod="pad">
      <stop offset="0.32941176470588235" stop-color="#3d3d8d"/>
      <stop offset="1.0" stop-color="#ce73e0"/>
    </radialGradient>
    <radialGradient cx="0" cy="0" gradientTransform="matrix(0.0023, 0.0, 0.0, 0.0023, 17.4, 37.3)" gradientUnits="userSpaceOnUse" id="gradient1" r="819.2" spreadMethod="pad">
      <stop offset="0.0" stop-color="#4b4ba1"/>
      <stop offset="0.5254901960784314" stop-color="#a6a6cd"/>
      <stop offset="1.0" stop-color="#4b4ba1"/>
    </radialGradient>
    <radialGradient cx="0" cy="0" gradientTransform="matrix(0.003, 0.0, 0.0, 0.003, 22.1, 35.8)" gradientUnits="userSpaceOnUse" id="gradient2" r="819.2" spreadMethod="pad">
      <stop offset="0.0" stop-color="#4b4ba1"/>
      <stop offset="0.5254901960784314" stop-color="#a6a6cd"/>
      <stop offset="1.0" stop-color="#4b4ba1"/>
    </radialGradient>
    <radialGradient cx="0" cy="0" gradientTransform="matrix(0.0098, 0.0, 0.0, 0.0098, 21.3, 29.45)" gradientUnits="userSpaceOnUse" id="gradient3" r="819.2" spreadMethod="pad">
      <stop offset="0.0" stop-color="#4b4ba1"/>
      <stop offset="1.0" stop-color="#1c1c5f"/>
    </radialGradient>
    <radialGradient cx="0" cy="0" gradientTransform="matrix(0.005, 0.0, 0.0, 0.005, 13.45, 32.1)" gradientUnits="userSpaceOnUse" id="gradient4" r="819.2" spreadMethod="pad">
      <stop offset="0.0" stop-color="#4b4ba1"/>
      <stop offset="1.0" stop-color="#1c1c5f"/>
    </radialGradient>
    <radialGradient cx="0" cy="0" fx="-38.400000000000006" fy="0" gradientTransform="matrix(0.0123, 0.0, 0.0, 0.0123, 32.2, 48.35)" gradientUnits="userSpaceOnUse" id="gradient5" r="819.2" spreadMethod="pad">
      <stop offset="0.0" stop-color="#4b4ba1"/>
      <stop offset="1.0" stop-color="#1c1c5f"/>
    </radialGradient>
    <radialGradient cx="0" cy="0" gradientTransform="matrix(0.0033, 0.0, 0.0, 0.0033, 15.55, 34.6)" gradientUnits="userSpaceOnUse" id="gradient6" r="819.2" spreadMethod="pad">
      <stop offset="0.3176470588235294" stop-color="#a6a6cd"/>
      <stop offset="1.0" stop-color="#774ba1"/>
    </radialGradient>
    <radialGradient cx="0" cy="0" gradientTransform="matrix(0.0034, 0.0, 0.0, 0.0034, 21.7, 31.6)" gradientUnits="userSpaceOnUse" id="gradient7" r="819.2" spreadMethod="pad">
      <stop offset="0.3176470588235294" stop-color="#a6a6cd"/>
      <stop offset="1.0" stop-color="#774ba1"/>
    </radialGradient>
    <radialGradient cx="0" cy="0" fx="-38.400000000000006" fy="0" gradientTransform="matrix(0.0138, 0.0, 0.0, 0.0138, 39.8, 40.75)" gradientUnits="userSpaceOnUse" id="gradient8" r="819.2" spreadMethod="pad">
      <stop offset="0.0" stop-color="#4b4ba1"/>
      <stop offset="1.0" stop-color="#1c1c5f"/>
    </radialGradient>
    <radialGradient cx="0" cy="0" gradientTransform="matrix(0.0024, 0.0, 0.0, 0.0024, 21.7, 35.5)" gradientUnits="userSpaceOnUse" id="gradient9" r="819.2" spreadMethod="pad">
      <stop offset="0.0" stop-color="#46b2ee"/>
      <stop offset="1.0" stop-color="#1e41d0"/>
    </radialGradient>
    <radialGradient cx="0" cy="0" gradientTransform="matrix(0.0016, 0.0, 0.0, 0.0016, 17.55, 36.9)" gradientUnits="userSpaceOnUse" id="gradient10" r="819.2" spreadMethod="pad">
      <stop offset="0.0" stop-color="#46b2ee"/>
      <stop offset="1.0" stop-color="#1e41d0"/>
    </radialGradient>
  </defs>
</svg>
