<svg xmlns="http://www.w3.org/2000/svg" xmlns:ffdec="https://www.free-decompiler.com/flash" xmlns:xlink="http://www.w3.org/1999/xlink" ffdec:objectType="frame" width="39.4" height="34.7"><use ffdec:characterId="3" xlink:href="#a" width="39.4" height="34.7"/><defs><g id="a" fill-rule="evenodd"><path fill="#a30f0f" d="M39 5.6q-1.4 2-3.55 3.15Q33.4 9.8 31.1 9.8q-.15 2.4-2.85 4.3-2.3 1.6-5.45 2.35Q11.5 22 10 28.7l1.8 1q1.7 1.4 1.15 3.65l-1.3-.05q-1.1-.25-2.25-1.6.45 1.8-1.7 3-.3 0-.9-1.4l-.9-2.7q-.25 1.2-.95 1.75-1.85-1.25-2.15-2.8-.25-1.05.15-1.6-1.25.7-2.95.9 0-2.5 2-3.8l1.95-.8q.85-2.7 3.9-4.5 2.8-1.65 7.05-2.25 1.7-2.35 5.85-4.8 4.1-2.45 4.35-5.1l-1.15-.75Q22.1 5.75 22.3 4q.25-1.8 2.4-1.9-.65-1.6.4-1.9l2.4.25q1.35.5 2.45 1.45.7.65 1.75.7l3.75-2q1.65-.9 2.3-.15.6.8-.75 1.95l1.6.7q1.4 1.05.4 2.5"/><path fill="#e5e5e5" d="M6.4 21.05q.8-.95 1.85-1.5 3.05 3.7 2.05 8.45l-.15.6-.05.1 1.8 1q1.7 1.4 1.15 3.65l-1.3-.05q-1.1-.25-2.25-1.6-1.25-2.7-1.35-4.4-.2-3.6-1.75-6.25m16.4-4.6-.15.1-7.25.55q.95.95.7 2.1-.25 1-1.4 2.35Q12.95 23.3 12 25q2.05-4.05.25-6.95l2.65-.55.3-.35.1-.1q1.25-1.55 3.45-3.05 3.9 1.6 10.5-.65l-1 .75q-2.3 1.6-5.45 2.35M27.05.15l.45.3 1.6.8q-1.7 5 .65 8.35l1.35.6-.2.7-.1.3q-4.45 1.7-7.9 0 2.05-1.75 2.2-3.6l-.5-.3 1.7.75q-.95-2.65-1-4.3 0-1.7.8-3.6l.05-.05V0zm6.7 1.4L34.9.9q-2.15 4.3 1.95 6.95l-1.4.9-.2.15-1.2.45Q30.5 6.2 32.6 2.2z"/><path fill-opacity=".298" d="m25.4 7.45 1.5.8q2.05 1.2 4.4 1.55-.3 1.65-1.3 2.8l-.05.05q-4 .45-7.4-1.25l1.35-1.15q1.45-1.5 1.5-2.8M26.75 2Q25.55.5 25.7.1q.5-.2 2.3.65 1.8.8 1.9 1.1.1.25.9.5l.9.25q-1.3.95-2.75 1-1-.15-2.2-1.6m11.4.9q-.1 1.35-1.9 2.5-2.05.55-3.9 0l2.45-1.7L37 2.4zm-26.5 30.4q-1.1-.25-2.25-1.6.3 1.3-.7 2.3l-1 .7q-.3 0-.9-1.4l-.9-2.7.25-.6q2.05 2.3 1.95 3.05 1.4-.85.55-3.4 2.9 1.3 4.3 3.7zm-7.4-7.15L3.8 28.1l.25 1.3.9 2.95Q2.9 30.9 2.75 29.2l.2-1.25-2.45.85q.35-1.3 2.35-2.6l1.45-.55zm9.75-6.1q-4.8.35-8.1 4.35 3.1-5.95 5.15-6.15 5.1-1.15 12.05-1.95-6.8 3.15-10.45 7.2 1.4-1.9 1.35-3.45"/></g></defs></svg>