<?xml version="1.0" encoding="UTF-8" standalone="no"?>
<svg xmlns:ffdec="https://www.free-decompiler.com/flash" xmlns:xlink="http://www.w3.org/1999/xlink" ffdec:objectType="frame" height="20.05px" width="15.85px" xmlns="http://www.w3.org/2000/svg">
  <g transform="matrix(1.0, 0.0, 0.0, 1.0, -4.35, -1.9)">
    <use ffdec:characterId="3" height="20.05" transform="matrix(1.0, 0.0, 0.0, 1.0, 4.35, 1.9)" width="15.85" xlink:href="#shape0"/>
  </g>
  <defs>
    <g id="shape0" transform="matrix(1.0, 0.0, 0.0, 1.0, -4.35, -1.9)">
      <path d="M4.55 2.2 L4.7 2.0 4.7 1.95 5.1 1.9 5.7 2.0 Q8.3 8.7 10.7 11.65 11.55 11.75 11.5 12.3 12.4 12.55 12.7 12.95 12.95 13.4 12.7 13.85 L12.55 14.0 12.55 14.05 Q13.3 15.2 14.45 16.0 L17.3 18.4 19.9 20.4 Q20.55 21.15 19.85 21.85 L19.45 21.95 Q12.6 17.2 7.85 9.0 5.6 5.2 4.55 2.2" fill="#ffcc00" fill-rule="evenodd" stroke="none"/>
      <path d="M12.0 15.8 L11.85 16.05 11.75 15.55 12.0 15.8" fill="#996600" fill-rule="evenodd" stroke="none"/>
      <path d="M19.45 21.95 L19.3 21.9 14.2 17.8 12.85 16.6 12.0 15.8 11.75 15.55 11.85 16.05 Q11.45 16.6 11.75 17.3 L11.45 17.3 10.55 16.4 Q9.9 15.75 11.05 14.85 L10.65 14.55 10.75 14.55 10.65 14.55 10.5 14.5 9.65 13.2 9.45 13.3 7.6 13.9 7.5 13.9 5.7 13.55 5.7 13.3 5.95 12.4 7.0 12.75 9.45 12.95 9.4 12.85 9.0 12.25 7.0 8.85 4.4 3.35 Q4.25 2.55 4.55 2.2 5.6 5.2 7.85 9.0 12.6 17.2 19.45 21.95" fill="#dbb51c" fill-rule="evenodd" stroke="none"/>
      <path d="M11.45 17.3 L10.6 17.25 Q9.45 16.35 10.5 14.6 L10.5 14.55 10.65 14.55 11.05 14.85 Q9.9 15.75 10.55 16.4 L11.45 17.3 M10.5 14.5 L10.45 14.45 10.4 14.45 9.85 13.9 5.85 13.75 5.7 13.55 7.5 13.9 7.6 13.9 9.45 13.3 9.65 13.2 10.5 14.5" fill="#836c10" fill-rule="evenodd" stroke="none"/>
      <path d="M10.2 14.1 L9.6 13.1 10.0 11.9 10.2 14.1 M19.4 20.15 L20.0 20.7 18.2 21.05 17.5 20.5 19.4 20.15 M16.2 19.6 L15.35 18.85 17.45 18.6 18.25 19.25 16.2 19.6 M13.3 15.05 L14.05 15.7 12.25 16.05 11.5 15.35 13.3 15.05 M11.6 12.5 L11.7 13.5 10.95 14.25 11.6 12.5 M11.7 14.85 L10.5 14.55 12.65 14.2 11.7 14.85 M15.2 16.6 L15.95 17.3 14.0 17.65 13.4 17.0 15.2 16.6 M7.25 9.2 L6.8 8.2 8.5 8.35 9.05 9.3 7.25 9.2 M8.85 11.85 L8.2 10.85 10.0 10.75 10.55 11.65 8.85 11.85 M5.45 5.5 L7.35 5.95 7.9 6.95 6.0 6.55 5.45 5.5 M6.35 3.6 L6.75 4.55 4.9 4.25 4.5 3.25 6.35 3.6" fill="#000000" fill-opacity="0.4" fill-rule="evenodd" stroke="none"/>
    </g>
  </defs>
</svg>
