<?xml version="1.0" encoding="UTF-8" standalone="no"?>
<svg xmlns:ffdec="https://www.free-decompiler.com/flash" xmlns:xlink="http://www.w3.org/1999/xlink" ffdec:objectType="frame" height="59.25px" width="48.95px" xmlns="http://www.w3.org/2000/svg">
  <g transform="matrix(1.0, 0.0, 0.0, 1.0, 15.25, 5.9)">
    <use ffdec:characterId="1" height="59.25" transform="matrix(1.0, 0.0, 0.0, 1.0, -15.25, -5.9)" width="48.95" xlink:href="#shape0"/>
  </g>
  <defs>
    <g id="shape0" transform="matrix(1.0, 0.0, 0.0, 1.0, 15.25, 5.9)">
      <path d="M1.6 16.65 L0.65 15.6 Q0.35 15.0 0.35 14.3 L-0.45 13.3 -1.3 13.0 -1.1 8.3 -1.0 8.35 Q0.05 9.25 0.1 10.3 L0.9 11.3 1.8 11.85 1.6 16.65" fill="url(#gradient0)" fill-rule="evenodd" stroke="none"/>
      <path d="M1.8 11.85 L2.0 12.0 Q3.05 12.95 3.1 14.0 L3.85 14.95 Q4.3 15.15 4.75 15.5 L4.5 20.2 3.5 19.05 Q3.15 18.45 3.15 17.75 L2.5 16.95 Q2.0 16.9 1.6 16.65 L1.8 11.85" fill="url(#gradient1)" fill-rule="evenodd" stroke="none"/>
      <path d="M4.75 15.5 L4.95 15.65 Q6.0 16.6 6.05 17.65 L6.9 18.7 7.6 19.15 7.35 23.7 Q6.75 23.35 6.35 22.6 6.0 22.05 6.05 21.3 L5.35 20.45 4.5 20.2 4.75 15.5" fill="url(#gradient2)" fill-rule="evenodd" stroke="none"/>
      <path d="M7.6 19.15 L8.0 19.45 Q9.05 20.35 9.1 21.4 L10.3 22.9 11.05 23.35 10.85 28.0 9.85 26.95 Q9.5 26.35 9.5 25.6 L8.2 24.0 7.35 23.7 7.6 19.15" fill="url(#gradient3)" fill-rule="evenodd" stroke="none"/>
      <path d="M11.05 23.35 L11.35 23.6 Q12.45 24.5 12.45 25.55 L14.45 28.05 14.25 31.4 11.7 28.3 Q11.2 28.25 10.85 28.0 L11.05 23.35" fill="url(#gradient4)" fill-rule="evenodd" stroke="none"/>
      <path d="M14.45 28.05 L33.7 52.3 32.4 53.35 14.25 31.4 14.45 28.05" fill="url(#gradient5)" fill-rule="evenodd" stroke="none"/>
      <path d="M-1.3 13.0 Q-1.9 12.65 -2.3 11.95 -2.65 11.35 -2.6 10.65 L-3.9 9.0 -4.0 8.9 -4.2 8.65 -4.2 8.05 -4.2 5.0 -3.45 5.95 -2.1 7.6 -1.1 8.3 -1.3 13.0" fill="url(#gradient6)" fill-rule="evenodd" stroke="none"/>
      <path d="M-4.2 8.65 L-5.25 7.4 -6.7 5.55 -5.1 5.1 -4.7 4.35 -4.2 5.0 -4.2 8.05 -4.2 8.65" fill="url(#gradient7)" fill-rule="evenodd" stroke="none"/>
      <path d="M-11.2 -2.4 L-9.05 0.25 -11.75 2.4 -12.5 -0.15 -15.25 -0.4 -12.95 -4.55 -11.2 -2.4 M-13.9 4.15 L-11.75 2.4 -11.7 2.45 -9.45 3.7 -9.05 0.25 -8.75 -3.2 -6.4 -1.9 -9.05 0.25 -6.85 2.95 -9.45 3.7 -9.7 6.5 -13.85 4.2 -13.9 4.15 M-2.85 0.9 L-4.2 3.4 -4.7 4.35 -5.1 5.1 -6.85 2.95 -5.6 0.6 -2.85 0.9" fill="#ffffff" fill-rule="evenodd" stroke="none"/>
      <path d="M-11.2 -2.4 L-12.95 -4.55 -8.4 -5.9 -8.75 -3.2 -11.2 -2.4 M-6.4 -1.9 L-6.35 -1.85 -5.6 0.6 -9.05 0.25 -6.4 -1.9" fill="#c4fbff" fill-rule="evenodd" stroke="none"/>
      <path d="M-15.25 -0.4 L-12.5 -0.15 -11.75 2.4 -9.05 0.25 -11.2 -2.4 -8.75 -3.2 -9.05 0.25 -9.45 3.7 -11.7 2.45 -11.75 2.4 -13.9 4.15 -15.25 -0.4 M-8.4 -5.9 L-4.25 -3.65 -6.4 -1.9 -8.75 -3.2 -8.4 -5.9" fill="#93d9d7" fill-rule="evenodd" stroke="none"/>
      <path d="M-4.25 -3.65 L-4.2 -3.6 -2.85 0.9 -5.6 0.6 -6.35 -1.85 -6.4 -1.9 -4.25 -3.65 M-5.1 5.1 L-6.7 5.55 -9.7 6.5 -9.45 3.7 -6.85 2.95 -9.05 0.25 -5.6 0.6 -6.85 2.95 -5.1 5.1" fill="#61a1b1" fill-rule="evenodd" stroke="none"/>
    </g>
    <linearGradient gradientTransform="matrix(0.0019, 0.0, 0.0, 0.0051, 0.25, 12.45)" gradientUnits="userSpaceOnUse" id="gradient0" spreadMethod="pad" x1="-819.2" x2="819.2">
      <stop offset="0.0" stop-color="#000000"/>
      <stop offset="0.3803921568627451" stop-color="#793c00"/>
    </linearGradient>
    <linearGradient gradientTransform="matrix(0.0019, 0.0, 0.0, 0.0051, 3.15, 16.0)" gradientUnits="userSpaceOnUse" id="gradient1" spreadMethod="pad" x1="-819.2" x2="819.2">
      <stop offset="0.0" stop-color="#000000"/>
      <stop offset="0.3803921568627451" stop-color="#793c00"/>
    </linearGradient>
    <linearGradient gradientTransform="matrix(0.0019, 0.0, 0.0, 0.005, 6.05, 19.6)" gradientUnits="userSpaceOnUse" id="gradient2" spreadMethod="pad" x1="-819.2" x2="819.2">
      <stop offset="0.0" stop-color="#000000"/>
      <stop offset="0.3803921568627451" stop-color="#793c00"/>
    </linearGradient>
    <linearGradient gradientTransform="matrix(0.0023, 0.0, 0.0, 0.0054, 9.2, 23.55)" gradientUnits="userSpaceOnUse" id="gradient3" spreadMethod="pad" x1="-819.2" x2="819.2">
      <stop offset="0.0" stop-color="#000000"/>
      <stop offset="0.3803921568627451" stop-color="#793c00"/>
    </linearGradient>
    <linearGradient gradientTransform="matrix(0.0022, 0.0, 0.0, 0.0049, 12.65, 27.35)" gradientUnits="userSpaceOnUse" id="gradient4" spreadMethod="pad" x1="-819.2" x2="819.2">
      <stop offset="0.0" stop-color="#000000"/>
      <stop offset="0.3803921568627451" stop-color="#793c00"/>
    </linearGradient>
    <linearGradient gradientTransform="matrix(0.0119, 0.0, 0.0, 0.0154, 23.95, 40.7)" gradientUnits="userSpaceOnUse" id="gradient5" spreadMethod="pad" x1="-819.2" x2="819.2">
      <stop offset="0.0" stop-color="#000000"/>
      <stop offset="0.3803921568627451" stop-color="#793c00"/>
    </linearGradient>
    <linearGradient gradientTransform="matrix(0.0019, 0.0, 0.0, 0.0049, -2.65, 9.0)" gradientUnits="userSpaceOnUse" id="gradient6" spreadMethod="pad" x1="-819.2" x2="819.2">
      <stop offset="0.0" stop-color="#000000"/>
      <stop offset="0.3803921568627451" stop-color="#793c00"/>
    </linearGradient>
    <linearGradient gradientTransform="matrix(0.0015, 0.0, 0.0, 0.0026, -5.45, 6.5)" gradientUnits="userSpaceOnUse" id="gradient7" spreadMethod="pad" x1="-819.2" x2="819.2">
      <stop offset="0.0" stop-color="#000000"/>
      <stop offset="0.3803921568627451" stop-color="#793c00"/>
    </linearGradient>
  </defs>
</svg>
