<?xml version="1.0" encoding="UTF-8" standalone="no"?>
<svg xmlns:ffdec="https://www.free-decompiler.com/flash" xmlns:xlink="http://www.w3.org/1999/xlink" ffdec:objectType="frame" height="9.35px" width="17.45px" xmlns="http://www.w3.org/2000/svg">
  <g transform="matrix(1.0, 0.0, 0.0, 1.0, -1.3, -1.6)">
    <use ffdec:characterId="3" height="9.35" transform="matrix(1.0, 0.0, 0.0, 1.0, 1.3, 1.6)" width="17.45" xlink:href="#shape0"/>
  </g>
  <defs>
    <g id="shape0" transform="matrix(1.0, 0.0, 0.0, 1.0, -1.3, -1.6)">
      <path d="M14.95 1.6 Q16.15 1.5 17.4 2.05 16.6 2.65 17.55 3.05 18.85 3.55 18.75 4.3 18.1 5.95 14.55 8.35 10.4 11.1 7.3 10.75 L4.45 10.05 2.2 9.15 Q0.7 8.2 1.8 6.9 1.45 6.15 1.45 5.3 1.45 3.95 2.55 3.5 L3.55 3.4 Q4.0 3.5 4.45 3.9 5.5 4.7 8.0 3.95 10.75 3.1 13.6 1.85 L14.95 1.6" fill="#f6fffe" fill-rule="evenodd" stroke="none"/>
      <path d="M11.4 4.35 L13.9 4.5 17.0 3.1 15.2 4.75 Q14.1 5.45 11.85 6.35 5.0 7.85 3.5 5.9 L2.9 5.05 Q2.7 4.65 2.85 4.0 3.35 5.1 5.8 5.1 6.85 5.1 14.7 1.9 L13.65 2.9 Q12.5 3.9 11.4 4.35" fill="url(#gradient0)" fill-rule="evenodd" stroke="none"/>
      <path d="M13.35 9.25 Q8.8 11.75 5.55 10.55 2.25 9.3 1.75 8.85 1.2 8.45 1.35 7.7 3.9 8.85 7.3 9.0 14.15 9.35 18.45 4.55 17.9 6.75 13.35 9.25" fill="url(#gradient1)" fill-rule="evenodd" stroke="none"/>
      <path d="M14.9 5.65 Q12.45 7.1 9.0 7.5 5.5 7.85 4.1 7.1 2.7 6.35 2.8 4.2 L3.55 5.7 Q4.6 7.1 7.15 6.85 10.15 6.55 12.9 5.5 15.5 4.45 17.25 2.95 17.35 4.15 14.9 5.65" fill="url(#gradient2)" fill-rule="evenodd" stroke="none"/>
    </g>
    <linearGradient gradientTransform="matrix(0.0087, 0.0, 0.0, 0.0037, 10.2, 4.0)" gradientUnits="userSpaceOnUse" id="gradient0" spreadMethod="pad" x1="-819.2" x2="819.2">
      <stop offset="0.0" stop-color="#9a9a9a"/>
      <stop offset="1.0" stop-color="#ffffff"/>
    </linearGradient>
    <linearGradient gradientTransform="matrix(0.0105, 0.0, 0.0, 0.0039, 9.85, 7.75)" gradientUnits="userSpaceOnUse" id="gradient1" spreadMethod="pad" x1="-819.2" x2="819.2">
      <stop offset="0.11372549019607843" stop-color="#6b6b6b"/>
      <stop offset="1.0" stop-color="#ffffff"/>
    </linearGradient>
    <linearGradient gradientTransform="matrix(0.0088, 0.0, 0.0, 0.0028, 10.0, 5.25)" gradientUnits="userSpaceOnUse" id="gradient2" spreadMethod="pad" x1="-819.2" x2="819.2">
      <stop offset="0.14901960784313725" stop-color="#696969"/>
      <stop offset="1.0" stop-color="#ffffff"/>
    </linearGradient>
  </defs>
</svg>
