<svg xmlns="http://www.w3.org/2000/svg" xmlns:ffdec="https://www.free-decompiler.com/flash" xmlns:xlink="http://www.w3.org/1999/xlink" ffdec:objectType="frame" width="62.95" height="72.35"><use ffdec:characterId="1" xlink:href="#a" width="62.95" height="72.35"/><defs><linearGradient id="b" x1="-819.2" x2="819.2" gradientTransform="matrix(.0115 0 0 .0114 -20.6 -10.15)" gradientUnits="userSpaceOnUse" spreadMethod="pad"><stop offset="0" stop-color="#707070"/><stop offset="1" stop-color="#fff"/></linearGradient><g id="a" fill-rule="evenodd"><path fill="#666" d="M.05.7 0 .6q1.75.55 9.4 5.6 7.8 5.15 9.25 6.7l.1 2.4.15 3.9.05.1 1.85 2.15.35-.05 2 .05q1.3.25 2.55 1.35l.45.45H17.9l.6-.5-1.9-2.1q-.55.55-.05.9l-.65.15-2-.1-.5-.15-3.85-.7q-1.35-1.6-5.4-10.15Q.4 2.45.05.7"/><path fill="#a30f0f" d="m28.25 28.95.25.85zm-2.7 3.6-.3.8.3-.85z"/><path fill="#f0f0f0" d="M15.65 21.3 13.9 21l-.5-.15-3.85-.7Q8.2 18.55 4.15 10 .4 1.85.05.1L9.7 11.3q-1.3 1.05 2.2 5.45l.65.85z"/><path fill="#9c9c9c" d="m18.9 18.6.05.1q-1.6.5-2.35 1.35-.55.55-.7 1.3l-.25-.05-3.1-3.7q-5.2-8.55 3.4-2.5z"/><path fill="#852b22" d="m62.65 71.15-.25.35q-1.05 1.3-2.8.65l-30.45-35.7q.5-.95 1.6-1.25zM17.5 23.1l-.05.05-1.55-1.8q.15-.75.7-1.3l1.9 2.1z"/><path fill="#aa4136" d="m18.95 18.7 1.85 2.15q-.9.2-1.9.95l-.4.35-1.9-2.1q.75-.85 2.35-1.35M33.2 35l29.45 34.5q.65.6 0 1.65L30.75 35.2z"/><path fill="#8e2f27" d="m28.5 29.8 4.7 5.2-2.45.2-1.6-2.95.75.25-1.1-1.9zm-2.65.5-.2-1.3 1.8 2.05.1.1.05.05.05.05.6.5z"/><path fill="#661c16" d="m29.15 36.45-3.6-3.9v-.05l.35-1.85-.05-.35 2.4 1.45.8.45.1.05 1.6 2.95q-1.1.3-1.6 1.25"/><path fill="#747474" d="m12.55 17.6-.65-.85q-3.5-4.4-2.2-5.45 1.35-1.15 4.75 2.2l1.5 1.6q-8.6-6.05-3.4 2.5"/><path fill="url(#b)" d="m-30-19.35-.05-.1q1.75.55 9.4 5.6 7.8 5.15 9.25 6.7l.1 2.4.15 3.9-2.95-3.5-1.5-1.6q-3.4-3.35-4.75-2.2z" transform="translate(30.05 19.45)"/><path fill="#71548a" d="m20.8 20.85.35-.05 2 .05q1.3.25 2.55 1.35.95.9 1.1 1.35l.65 1.55-.65-1.55q.1.45-.15 1.55-.25 1.2-.6 1.55-.15-1.5-2.85-3 1.15 1.65.95 4.35-.05 1.35-.4 2.4l-.5-.95Q22.5 31 22.2 31q-.2-.2-.05-1 .2-.9.1-1.25-.6.4-1.45 2.9l-.75 1.8q.35-.6-.15-2l-.55-1.25q-.45 1.7-1.65 2.7l-.85.55q.2-2.15-.2-5.3L16.6 28q-.15-2.85.4-3.85l.3-.8.2-.25 1-.95.4-.35q1-.75 1.9-.95"/><path fill="#4c2a69" d="m27.45 25.1.8 3.85.25.85.3.8 1.1 1.9-.75-.25-.1-.05-.8-.45-.6-.5-.05-.05-.05-.05-.1-.1-1.8-2.05.2 1.3.05.35-.35 1.85-.3.85-1 1.85-.6.9v-2.05q-.1-.85-.85-2.1-.15 1.8-1.3 4.05-.95 1.85-.7 3.3-1.4-1.1-1.85-2.55-.65-1.75.25-3.65l-1.05 1.65-2.05 1.55.1-.15.05-.1.5-1.75.05-.5.05-.15v-.2l.85-.55q1.2-1 1.65-2.7l.55 1.25q.5 1.4.15 2l.75-1.8q.85-2.5 1.45-2.9.1.35-.1 1.25-.15.8.05 1 .3 0 1.05-1.55l.5.95q.35-1.05.4-2.4.2-2.7-.95-4.35 2.7 1.5 2.85 3 .35-.35.6-1.55.25-1.1.15-1.55z"/></g></defs></svg>