<?xml version="1.0" encoding="UTF-8" standalone="no"?>
<svg xmlns:ffdec="https://www.free-decompiler.com/flash" xmlns:xlink="http://www.w3.org/1999/xlink" ffdec:objectType="frame" height="99.6px" width="117.7px" xmlns="http://www.w3.org/2000/svg">
  <g transform="matrix(1.0, 0.0, 0.0, 1.0, 46.85, 45.9)">
    <filter id="filter0">
      <feColorMatrix in="SourceGraphic" result="filterResult0" type="matrix" values="0 0 0 0 0.2,0 0 0 0 0.6,0 0 0 0 1.0,0 0 0 1 0"/>
      <feConvolveMatrix divisor="25.0" in="filterResult0" kernelMatrix="1 1 1 1 1 1 1 1 1 1 1 1 1 1 1 1 1 1 1 1 1 1 1 1 1" order="5 5" result="filterResult1"/>
      <feComposite in="SourceGraphic" in2="filterResult1" operator="over" result="filterResult2"/>
    </filter>
    <use ffdec:characterId="4" filter="url(#filter0)" height="99.6" id="BodyAcss_F" transform="matrix(1.0, 0.0, 0.0, 1.0, -46.85, -45.9)" width="117.7" xlink:href="#sprite0"/>
    <use ffdec:characterId="5" height="77.35" transform="matrix(1.0, 0.0, 0.0, 1.0, -41.3, -33.7)" width="109.2" xlink:href="#shape1"/>
  </g>
  <defs>
    <g id="sprite0" transform="matrix(1.0, 0.0, 0.0, 1.0, 46.85, 45.9)">
      <use ffdec:characterId="3" height="99.6" transform="matrix(1.0, 0.0, 0.0, 1.0, -46.85, -45.9)" width="117.7" xlink:href="#shape0"/>
    </g>
    <g id="shape0" transform="matrix(1.0, 0.0, 0.0, 1.0, 46.85, 45.9)">
      <path d="M49.6 42.0 L49.5 42.35 Q49.1 42.85 48.8 43.65 L48.55 44.85 Q48.35 45.75 48.55 47.8 48.75 49.85 49.5 51.35 47.75 50.85 46.8 49.85 45.9 48.85 45.9 47.6 L45.95 47.1 Q46.0 46.3 46.45 45.55 L46.8 45.05 47.55 44.35 49.6 42.0" fill="#c4faff" fill-opacity="0.81960785" fill-rule="evenodd" stroke="none"/>
      <path d="M43.25 7.1 L43.25 7.05 43.15 8.7 43.1 9.0 43.1 9.5 Q43.1 12.05 44.0 13.4 44.85 14.75 44.85 16.4 L44.85 16.6 Q44.75 15.55 43.4 14.2 41.9 12.75 41.9 12.1 41.9 11.25 42.5 9.3 L42.65 8.8 43.25 7.1 M68.35 3.85 Q69.45 4.6 69.45 6.15 69.45 8.1 66.4 10.2 64.75 11.3 64.0 12.9 L63.6 13.9 Q63.3 14.9 63.3 16.15 63.3 17.15 63.6 18.3 62.5 16.75 62.2 15.6 62.0 15.0 62.2 13.8 62.4 12.6 63.8 9.4 L65.55 5.25 Q65.9 4.3 65.4 1.8 64.9 -0.75 61.8 -3.85 L66.15 0.15 Q67.35 1.45 68.35 3.85 M48.9 36.35 Q50.25 38.25 50.25 39.25 50.25 40.9 49.7 41.85 L49.65 41.9 49.6 42.0 49.8 40.55 Q49.8 38.9 48.3 37.0 L46.35 34.95 Q42.9 31.8 42.9 29.9 42.9 26.7 45.1 24.5 46.05 23.55 48.1 21.95 47.2 22.8 46.45 24.6 45.65 26.35 46.0 29.0 46.35 31.65 47.4 33.65 L48.9 36.35" fill="#c4e0ff" fill-opacity="0.81960785" fill-rule="evenodd" stroke="none"/>
      <path d="M34.7 10.3 L38.6 8.8 43.25 7.1 42.65 8.8 40.5 9.4 Q38.65 9.9 37.1 11.1 L36.0 11.45 Q35.1 11.05 34.7 10.3" fill="#8fd2e9" fill-opacity="0.81960785" fill-rule="evenodd" stroke="none"/>
      <path d="M41.25 31.65 Q43.6 33.2 43.6 35.3 43.6 37.5 40.4 38.5 37.2 39.5 37.2 40.9 37.2 42.25 39.1 43.25 L41.0 44.3 40.8 45.1 40.5 46.0 Q40.5 44.85 37.95 43.05 35.4 41.25 35.4 40.5 35.4 38.25 37.9 36.55 L39.15 35.6 Q40.4 34.45 40.4 33.65 L40.3 33.2 40.3 33.1 Q40.3 32.25 39.55 31.3 38.8 30.35 38.8 29.3 L38.9 28.5 39.1 28.5 38.9 29.15 Q38.9 30.1 41.25 31.65" fill="url(#gradient0)" fill-rule="evenodd" stroke="none"/>
      <path d="M63.6 13.9 L63.65 15.05 Q63.65 16.1 67.3 17.9 70.9 19.7 70.35 23.2 69.75 26.6 68.9 27.9 L65.95 31.15 Q67.7 28.8 67.7 26.95 67.7 25.75 66.4 23.75 L65.15 21.75 64.05 19.7 63.6 18.3 Q63.3 17.15 63.3 16.15 63.3 14.9 63.6 13.9" fill="url(#gradient1)" fill-rule="evenodd" stroke="none"/>
      <path d="M42.5 9.3 L39.9 10.85 38.6 12.0 38.1 11.95 36.0 11.45 37.1 11.1 Q38.65 9.9 40.5 9.4 L42.65 8.8 42.5 9.3" fill="url(#gradient2)" fill-rule="evenodd" stroke="none"/>
      <path d="M36.4 16.15 L35.85 18.85 Q35.35 21.0 36.6 23.7 L36.8 24.05 36.55 23.8 Q32.9 19.95 32.9 17.1 32.9 16.4 33.05 15.8 L34.05 13.75 35.2 15.15 36.4 16.15" fill="url(#gradient3)" fill-rule="evenodd" stroke="none"/>
      <path d="M33.55 10.8 L33.95 10.6 33.7 11.4 33.6 12.2 Q33.6 12.85 33.95 13.5 L34.05 13.75 33.05 15.8 Q32.9 16.4 32.9 17.1 32.9 19.95 36.55 23.8 L36.8 24.05 36.6 23.7 Q35.35 21.0 35.85 18.85 L36.4 16.15 36.65 16.3 38.1 16.35 Q39.55 16.8 40.5 17.75 41.55 18.9 41.55 20.5 L41.25 22.05 42.0 21.75 42.5 21.2 42.85 20.8 Q43.8 19.45 43.8 18.0 43.8 16.8 43.25 15.85 42.6 15.1 42.6 14.75 40.95 12.4 38.6 12.0 L39.9 10.85 42.5 9.3 Q41.9 11.25 41.9 12.1 41.9 12.75 43.4 14.2 44.75 15.55 44.85 16.6 L44.85 16.4 Q44.85 14.75 44.0 13.4 43.1 12.05 43.1 9.5 L43.1 9.0 43.15 8.7 43.25 7.05 Q46.55 5.7 48.1 4.6 51.3 2.3 52.3 0.0 52.75 -0.75 54.4 1.9 56.05 4.5 56.5 7.85 56.9 11.15 55.0 14.6 53.1 18.0 47.2 20.1 41.3 22.15 41.3 28.7 41.3 32.4 46.75 36.9 L46.9 37.0 47.65 37.6 Q44.35 40.45 40.15 41.0 39.3 41.7 39.3 42.3 39.3 42.7 41.2 43.2 43.05 43.75 43.05 44.55 43.05 45.55 41.4 46.35 39.0 47.55 37.9 48.95 34.95 50.45 34.95 52.55 34.95 53.3 35.65 53.7 33.6 53.5 33.6 51.1 33.6 48.8 36.0 47.9 38.4 47.0 38.4 46.0 38.4 44.6 35.3 43.75 32.15 42.9 32.15 42.45 32.15 41.9 32.7 41.45 L31.4 41.35 Q33.3 40.0 33.3 39.25 33.25 38.5 31.55 37.3 29.85 36.1 30.2 34.25 30.5 32.4 32.95 30.75 35.4 29.1 35.65 27.25 35.85 25.4 32.35 22.05 28.85 18.65 28.4 16.65 27.9 14.65 29.5 13.3 31.1 11.9 31.8 11.6 L33.5 10.8 33.55 10.8 M41.25 31.65 Q38.9 30.1 38.9 29.15 L39.1 28.5 38.9 28.5 38.8 29.3 Q38.8 30.35 39.55 31.3 40.3 32.25 40.3 33.1 L40.3 33.2 40.4 33.65 Q40.4 34.45 39.15 35.6 L37.9 36.55 Q35.4 38.25 35.4 40.5 35.4 41.25 37.95 43.05 40.5 44.85 40.5 46.0 L40.8 45.1 41.0 44.3 39.1 43.25 Q37.2 42.25 37.2 40.9 37.2 39.5 40.4 38.5 43.6 37.5 43.6 35.3 43.6 33.2 41.25 31.65 M33.6 40.1 L33.9 39.25 Q33.3 39.2 33.6 40.1" fill="url(#gradient4)" fill-rule="evenodd" stroke="none"/>
      <path d="M33.95 10.6 L34.25 10.5 34.4 10.45 34.7 10.3 Q35.1 11.05 36.0 11.45 L38.1 11.95 38.6 12.0 Q40.95 12.4 42.6 14.75 42.6 15.1 43.25 15.85 43.8 16.8 43.8 18.0 43.8 19.45 42.85 20.8 L42.5 21.2 42.0 21.75 41.25 22.05 41.55 20.5 Q41.55 18.9 40.5 17.75 39.55 16.8 38.1 16.35 L36.65 16.3 36.4 16.15 35.2 15.15 34.05 13.75 33.95 13.5 Q33.6 12.85 33.6 12.2 L33.7 11.4 33.95 10.6" fill="url(#gradient5)" fill-rule="evenodd" stroke="none"/>
      <path d="M33.55 10.8 L33.0 8.15 Q32.3 4.9 36.55 2.4 40.75 -0.15 40.45 -3.6 L39.8 -7.9 41.25 -5.9 Q43.15 -3.35 43.8 0.35 44.4 4.0 40.4 5.3 36.35 6.6 35.7 7.6 L34.95 8.75 34.5 9.5 34.3 9.8 33.95 10.6 33.55 10.8" fill="url(#gradient6)" fill-rule="evenodd" stroke="none"/>
      <path d="M64.7 -28.6 L64.85 -29.0 Q65.6 -30.4 66.7 -31.65 L66.95 -31.9 67.35 -32.2 Q67.3 -33.45 66.0 -34.65 64.65 -35.9 64.0 -37.6 63.35 -39.3 66.8 -45.9 65.3 -42.6 65.85 -40.75 66.4 -38.95 68.45 -37.7 70.5 -36.5 70.8 -34.05 71.1 -31.65 69.0 -30.45 66.85 -29.3 66.6 -29.65 L65.55 -29.05 64.7 -28.6" fill="url(#gradient7)" fill-rule="evenodd" stroke="none"/>
      <path d="M65.55 -29.05 Q65.2 -28.45 65.35 -27.1 65.6 -24.55 67.4 -24.65 L68.3 -26.4 69.3 -28.05 Q69.05 -27.25 69.05 -26.2 69.05 -25.2 69.85 -24.2 70.65 -23.25 70.65 -22.25 L70.25 -20.95 70.2 -21.15 70.2 -21.25 Q70.2 -21.95 69.6 -22.55 L68.8 -23.15 67.55 -24.05 68.25 -20.25 Q68.1 -19.35 66.2 -17.7 67.9 -19.3 66.95 -20.7 L64.45 -23.75 Q63.65 -26.45 64.7 -28.6 L65.55 -29.05" fill="url(#gradient8)" fill-rule="evenodd" stroke="none"/>
      <path d="M52.3 0.0 L52.3 -0.5 Q49.8 -1.2 48.35 -4.3 46.85 -7.4 48.35 -8.2 49.8 -9.0 47.8 -10.75 45.8 -12.5 47.05 -17.25 48.3 -22.0 57.15 -30.5 56.4 -29.4 54.65 -24.0 52.85 -18.65 61.8 -13.25 70.75 -7.85 70.6 -2.65 70.45 2.5 68.35 3.85 67.35 1.45 66.15 0.15 L61.8 -3.85 Q64.9 -0.75 65.4 1.8 65.9 4.3 65.55 5.25 L63.8 9.4 Q62.4 12.6 62.2 13.8 62.0 15.0 62.2 15.6 L62.15 15.7 61.6 16.5 61.35 16.65 Q60.75 17.05 60.75 17.75 60.75 18.7 62.0 19.8 63.2 20.9 63.2 21.95 63.2 23.15 61.8 23.7 L56.6 25.45 Q52.75 26.75 52.2 30.35 51.3 33.7 48.9 36.35 L47.4 33.65 Q46.35 31.65 46.0 29.0 45.65 26.35 46.45 24.6 47.2 22.8 48.1 21.95 46.05 23.55 45.1 24.5 42.9 26.7 42.9 29.9 42.9 31.8 46.35 34.95 L48.3 37.0 47.65 37.6 46.9 37.0 46.75 36.9 Q41.3 32.4 41.3 28.7 41.3 22.15 47.2 20.1 53.1 18.0 55.0 14.6 56.9 11.15 56.5 7.85 56.05 4.5 54.4 1.9 52.75 -0.75 52.3 0.0" fill="url(#gradient9)" fill-rule="evenodd" stroke="none"/>
      <path d="M52.55 28.85 L52.45 28.8 52.7 28.9 52.55 28.85 M51.85 28.65 Q51.85 28.45 52.25 28.65 L52.45 28.85 51.85 28.65" fill="url(#gradient10)" fill-rule="evenodd" stroke="none"/>
      <path d="M50.45 -7.75 Q52.15 -8.55 50.0 -10.3 47.85 -12.1 48.0 -14.9 48.1 -17.7 50.25 -19.15 50.95 -22.45 53.8 -25.2 53.35 -24.75 52.95 -22.45 52.5 -20.2 53.5 -18.45 54.5 -16.75 59.85 -12.55 65.2 -8.35 66.6 -5.85 67.95 -3.4 67.85 -1.25 67.75 0.9 67.0 0.8 L65.85 -0.85 60.8 -4.95 Q63.7 -0.1 63.85 1.3 L64.2 3.15 Q64.35 3.6 63.05 6.75 61.75 9.85 61.15 12.0 60.55 14.1 60.6 15.5 60.6 16.9 59.85 16.3 59.1 15.7 59.5 16.95 59.85 18.2 61.35 20.1 62.85 21.95 57.85 23.45 52.85 24.9 52.2 26.45 L52.0 27.15 51.1 25.6 Q50.25 24.0 49.95 22.0 49.5 19.9 50.15 18.45 50.7 16.95 51.45 16.35 49.8 17.55 49.1 18.45 47.35 20.2 47.7 22.8 48.0 25.35 49.9 27.1 L51.65 28.55 50.85 28.25 50.7 28.15 Q46.25 24.65 46.2 21.8 46.0 16.55 51.05 14.55 56.05 12.55 57.75 9.6 59.4 6.65 59.0 4.55 58.55 2.45 56.55 0.4 54.55 -1.7 54.3 -1.05 54.2 -1.3 52.5 -1.75 50.8 -2.2 49.8 -4.55 48.75 -6.95 50.45 -7.75" fill="url(#gradient11)" fill-rule="evenodd" stroke="none"/>
      <path d="M-27.35 19.9 L-25.55 22.0 -24.85 22.65 -24.5 23.1 Q-24.1 23.8 -24.1 24.55 L-24.05 24.95 Q-24.05 26.15 -24.85 27.0 -25.75 27.9 -27.3 28.4 -26.05 26.7 -26.05 24.8 -26.1 23.15 -26.45 21.85 L-26.65 21.35 Q-26.9 20.6 -27.3 20.2 L-27.35 19.9" fill="#c4faff" fill-opacity="0.81960785" fill-rule="evenodd" stroke="none"/>
      <path d="M-43.7 -13.0 Q-42.55 -15.25 -41.5 -16.25 L-37.65 -19.45 Q-40.35 -15.75 -40.75 -14.5 -41.25 -13.3 -41.35 -11.75 -41.55 -10.35 -40.2 -7.8 L-38.45 -4.55 Q-38.15 -3.95 -38.25 -3.4 L-39.55 -1.1 -39.3 -2.95 -39.5 -4.9 -39.8 -5.7 Q-40.5 -7.05 -41.85 -8.0 -44.45 -9.85 -44.4 -11.45 -44.35 -12.7 -43.7 -13.0" fill="url(#gradient12)" fill-rule="evenodd" stroke="none"/>
      <path d="M-39.5 -4.9 L-39.3 -2.95 -39.55 -1.1 -39.95 0.0 Q-40.35 0.9 -40.05 1.2 -39.95 1.4 -41.35 3.1 -42.85 4.85 -43.1 6.35 -43.5 7.8 -41.85 9.9 L-44.4 7.05 Q-45.15 5.8 -45.6 2.8 -46.0 -0.25 -42.8 -1.6 -39.55 -3.0 -39.5 -3.9 L-39.5 -4.9" fill="url(#gradient13)" fill-rule="evenodd" stroke="none"/>
      <path d="M-14.6 -7.05 L-14.35 -6.85 -14.25 -6.85 -13.95 -6.8 -13.8 -6.1 -13.65 -5.45 Q-13.65 -4.4 -15.0 -3.1 L-16.15 -2.15 -17.4 -2.1 Q-18.65 -1.85 -19.5 -0.95 -20.45 -0.1 -20.4 1.25 L-20.1 2.65 -20.75 2.3 -21.2 1.8 -21.5 1.55 Q-22.3 0.35 -22.3 -0.9 -22.3 -1.95 -21.9 -2.65 -21.4 -3.35 -21.4 -3.6 -19.85 -5.7 -17.5 -5.8 -15.25 -5.95 -14.6 -7.05" fill="url(#gradient14)" fill-rule="evenodd" stroke="none"/>
      <path d="M-26.7 14.85 L-26.5 15.0 -26.15 15.4 -26.65 16.05 Q-27.6 17.35 -27.55 18.55 L-27.35 19.9 -27.4 19.75 -27.45 19.7 Q-27.95 18.8 -27.95 17.4 L-27.45 16.1 -26.7 14.85 M-21.45 9.35 Q-21.5 10.8 -24.15 12.1 -23.85 11.2 -23.8 10.15 L-23.85 7.05 Q-23.95 6.1 -24.55 4.75 -25.3 3.1 -26.05 2.4 L-23.45 4.6 Q-21.7 6.35 -21.45 8.85 L-21.45 9.35" fill="url(#gradient15)" fill-rule="evenodd" stroke="none"/>
      <path d="M-37.4 6.85 L-36.45 7.4 Q-35.35 9.75 -36.3 12.8 L-39.2 16.3 Q-40.3 17.75 -38.35 19.65 -40.55 17.65 -40.6 16.8 -40.6 15.45 -39.8 12.45 L-41.25 13.4 -42.15 14.05 Q-42.9 14.75 -42.9 15.45 L-42.9 15.65 -43.0 15.9 -43.4 14.35 Q-43.4 13.2 -42.4 12.25 -41.5 11.0 -41.45 9.9 -41.45 8.7 -41.7 7.9 L-40.6 9.75 -39.55 11.75 Q-37.6 11.8 -37.2 9.1 -37.0 7.55 -37.4 6.85" fill="url(#gradient16)" fill-rule="evenodd" stroke="none"/>
      <path d="M-21.95 -9.85 L-21.45 -8.5 Q-20.75 -6.55 -20.75 -5.75 -20.75 -5.25 -22.0 -4.0 -23.2 -3.0 -23.25 -2.1 L-23.25 -2.25 Q-23.3 -3.65 -22.5 -4.75 -21.8 -5.85 -21.75 -8.0 L-21.95 -9.85" fill="url(#gradient17)" fill-rule="evenodd" stroke="none"/>
      <path d="M-25.6 15.95 Q-25.3 15.65 -25.25 16.05 -25.25 16.4 -23.25 15.15 -21.25 13.9 -20.7 11.2 L-20.1 8.35 Q-20.15 2.65 -25.3 0.85 -30.4 -1.15 -32.0 -4.0 -33.75 -7.05 -33.65 -10.4 -33.8 -13.9 -31.95 -15.25 -30.15 -16.8 -29.65 -15.9 -30.5 -14.25 -27.3 -12.15 -24.15 -10.1 -21.95 -9.95 L-21.95 -9.9 -17.95 -8.35 -14.6 -7.05 Q-15.25 -5.95 -17.5 -5.8 -19.85 -5.7 -21.4 -3.6 -21.4 -3.35 -21.9 -2.65 -22.3 -1.95 -22.3 -0.9 -22.3 0.35 -21.5 1.55 L-21.2 1.8 -20.75 2.3 -20.1 2.65 -20.4 1.25 Q-20.45 -0.1 -19.5 -0.95 -18.65 -1.85 -17.4 -2.1 L-16.15 -2.15 -15.0 -3.1 Q-13.65 -4.4 -13.65 -5.45 L-13.8 -6.1 -13.95 -6.8 -13.65 -6.6 Q-12.75 -6.25 -12.0 -5.75 L-11.45 -5.25 Q-9.35 -3.0 -9.2 -1.05 -9.2 0.9 -11.4 2.2 L-13.4 3.8 -15.0 5.35 Q-15.75 6.1 -15.95 7.8 -16.2 9.5 -13.4 10.65 -10.65 11.75 -10.35 13.35 -10.05 15.0 -11.4 16.05 -12.9 17.0 -12.95 17.7 -12.95 18.35 -11.2 19.65 L-12.35 19.7 Q-11.9 20.05 -11.85 20.6 -11.85 20.95 -14.6 21.7 -17.4 22.35 -17.3 23.65 -17.35 24.55 -15.2 25.4 -13.0 26.25 -12.95 28.4 -12.9 30.55 -14.75 30.75 -14.2 30.3 -14.2 29.7 -14.25 27.7 -16.85 26.35 -17.9 24.95 -20.0 23.9 -21.55 23.15 -21.5 22.25 -21.55 21.5 -19.9 21.1 -18.15 20.6 -18.15 20.3 -18.3 19.75 -18.95 19.15 -22.65 18.5 -25.4 16.1 L-25.6 15.95 M-21.95 -9.85 L-21.75 -8.0 Q-21.8 -5.85 -22.5 -4.75 -23.3 -3.65 -23.25 -2.25 L-23.25 -2.1 Q-23.2 -3.0 -22.0 -4.0 -20.75 -5.25 -20.75 -5.75 -20.75 -6.55 -21.45 -8.5 L-21.95 -9.85" fill="url(#gradient18)" fill-rule="evenodd" stroke="none"/>
      <path d="M-13.95 -6.8 L-14.3 -7.4 -14.5 -7.65 -13.95 -7.55 Q-13.3 -7.35 -13.65 -9.1 -14.0 -11.0 -18.45 -11.7 -22.95 -12.5 -22.65 -14.45 -22.4 -16.4 -21.15 -17.8 -20.15 -18.95 -19.35 -21.2 L-19.65 -18.45 Q-19.95 -15.75 -15.95 -13.55 -11.95 -11.4 -12.7 -9.3 L-13.65 -6.6 -13.95 -6.8" fill="url(#gradient19)" fill-rule="evenodd" stroke="none"/>
      <path d="M-38.25 -3.4 Q-38.15 -3.95 -38.45 -4.55 L-40.2 -7.8 Q-41.55 -10.35 -41.35 -11.75 -41.25 -13.3 -40.75 -14.5 -40.35 -15.75 -37.65 -19.45 L-41.5 -16.25 Q-42.55 -15.25 -43.7 -13.0 -47.2 -12.9 -46.8 -16.85 -46.4 -20.85 -38.55 -25.9 -30.7 -30.95 -31.4 -34.95 -32.0 -38.3 -33.55 -39.8 -26.3 -33.1 -25.25 -29.4 -24.2 -25.65 -25.85 -24.35 -27.55 -23.05 -26.35 -22.4 -25.1 -21.7 -26.35 -19.3 -27.55 -16.85 -29.65 -16.35 L-29.65 -15.9 Q-30.15 -16.8 -31.95 -15.25 -33.8 -13.9 -33.65 -10.4 -33.75 -7.05 -32.0 -4.0 -30.4 -1.15 -25.3 0.85 -20.15 2.65 -20.1 8.35 L-20.7 11.2 Q-21.25 13.9 -23.25 15.15 -25.25 16.4 -25.25 16.05 -25.3 15.65 -25.6 15.95 L-26.15 15.4 -26.5 15.0 -26.7 14.85 Q-28.9 12.5 -29.65 9.5 L-29.8 8.6 Q-30.7 6.15 -33.5 5.1 L-38.0 3.5 Q-39.4 2.95 -39.3 1.95 -39.3 1.0 -38.15 0.2 -37.1 -0.7 -37.0 -1.55 -37.0 -2.15 -37.6 -2.45 L-37.85 -2.6 -38.25 -3.35 -38.25 -3.4 M-21.45 9.35 L-21.45 8.85 Q-21.7 6.35 -23.45 4.6 L-26.05 2.4 Q-25.3 3.1 -24.55 4.75 -23.95 6.1 -23.85 7.05 L-23.8 10.15 Q-23.85 11.2 -24.15 12.1 -21.5 10.8 -21.45 9.35" fill="url(#gradient20)" fill-rule="evenodd" stroke="none"/>
      <path d="M-43.05 -14.75 Q-43.85 -15.7 -43.35 -18.8 -43.05 -21.95 -36.55 -26.3 -30.15 -30.65 -30.5 -33.75 -30.75 -35.8 -31.05 -36.7 L-27.1 -30.75 Q-25.4 -28.25 -27.1 -25.75 -29.0 -23.3 -27.95 -22.7 -27.05 -22.15 -27.95 -20.15 -28.95 -18.15 -30.65 -17.8 L-31.15 -17.65 -32.35 -16.9 Q-33.85 -15.8 -34.45 -12.75 -35.1 -9.7 -33.3 -7.4 -31.5 -5.15 -27.4 -3.8 -23.3 -2.45 -23.25 2.2 L-23.25 2.65 Q-23.55 4.9 -26.9 7.85 L-26.95 7.9 -27.95 8.25 -29.7 8.65 -29.15 8.45 Q-27.2 7.4 -26.7 6.4 L-26.65 6.4 Q-24.35 4.25 -24.35 2.95 L-24.35 2.55 Q-24.5 0.6 -25.8 -0.8 L-27.8 -2.65 -26.7 -0.8 Q-26.15 0.4 -26.4 2.3 L-26.45 2.5 -27.35 5.55 -27.7 6.1 -27.35 4.7 Q-27.15 3.0 -29.15 1.7 -31.3 0.25 -33.75 -0.55 -36.3 -1.45 -36.9 -2.15 -37.65 -3.0 -37.4 -3.5 L-36.75 -4.55 -36.4 -5.35 -38.45 -6.35 Q-39.4 -7.1 -39.8 -9.85 -40.15 -12.65 -39.85 -13.95 -39.55 -15.3 -38.45 -16.5 -37.4 -17.75 -36.05 -21.75 -40.55 -19.75 -41.85 -18.5 -43.2 -17.3 -43.05 -14.75 M-35.75 -5.15 L-35.3 -4.6 -35.7 -5.15 -35.75 -5.15" fill="url(#gradient21)" fill-rule="evenodd" stroke="none"/>
      <path d="M-33.25 18.8 L-34.9 18.2 Q-35.3 18.55 -38.7 17.4 -41.95 16.2 -41.5 13.8 -41.0 11.35 -37.5 10.0 -34.0 8.6 -32.9 6.7 -31.85 4.75 -35.2 1.95 -29.8 5.3 -29.6 8.35 -29.4 11.35 -33.75 12.75 -38.15 14.1 -36.95 14.95 L-35.45 15.95 -35.05 16.2 Q-33.3 17.45 -32.15 18.85 L-31.9 19.25 -33.25 18.8" fill="url(#gradient22)" fill-rule="evenodd" stroke="none"/>
      <path d="M-33.25 18.8 L-31.9 19.25 Q-30.25 21.4 -31.5 24.1 -33.9 25.75 -35.45 27.15 -36.95 28.55 -34.25 30.15 -37.25 28.5 -37.5 27.6 -37.5 26.6 -36.4 23.8 L-38.35 24.7 -39.65 25.3 Q-40.55 25.9 -40.55 26.6 L-40.55 26.7 -40.65 26.9 -41.25 25.6 Q-41.25 24.6 -40.0 23.65 -38.75 22.65 -38.75 21.65 -38.75 20.6 -39.15 19.8 -38.35 20.1 -37.1 21.15 -35.85 22.2 -36.15 23.2 -33.3 23.3 -32.95 20.75 -32.7 19.4 -33.25 18.8" fill="url(#gradient23)" fill-rule="evenodd" stroke="none"/>
    </g>
    <radialGradient cx="0" cy="0" gradientTransform="matrix(0.0115, 0.0, 0.0, 0.0115, 39.5, 37.25)" gradientUnits="userSpaceOnUse" id="gradient0" r="819.2" spreadMethod="pad">
      <stop offset="0.2196078431372549" stop-color="#e2fcff" stop-opacity="0.81960785"/>
      <stop offset="1.0" stop-color="#7dbeec" stop-opacity="0.81960785"/>
    </radialGradient>
    <radialGradient cx="0" cy="0" fx="-73.60000000000001" fy="0" gradientTransform="matrix(0.0112, 0.0, 0.0, 0.0112, 62.0, 27.4)" gradientUnits="userSpaceOnUse" id="gradient1" r="819.2" spreadMethod="pad">
      <stop offset="0.0" stop-color="#7ddcec" stop-opacity="0.81960785"/>
      <stop offset="1.0" stop-color="#e2fcff" stop-opacity="0.81960785"/>
    </radialGradient>
    <radialGradient cx="0" cy="0" fx="-73.60000000000001" fy="0" gradientTransform="matrix(0.0045, 0.0, 0.0, 0.0045, 39.35, 10.4)" gradientUnits="userSpaceOnUse" id="gradient2" r="819.2" spreadMethod="pad">
      <stop offset="0.0" stop-color="#7ddcec" stop-opacity="0.81960785"/>
      <stop offset="1.0" stop-color="#e2fcff" stop-opacity="0.81960785"/>
    </radialGradient>
    <radialGradient cx="0" cy="0" fx="-73.60000000000001" fy="0" gradientTransform="matrix(0.0068, 0.0, 0.0, 0.0068, 34.6, 24.0)" gradientUnits="userSpaceOnUse" id="gradient3" r="819.2" spreadMethod="pad">
      <stop offset="0.0" stop-color="#7ddcec" stop-opacity="0.81960785"/>
      <stop offset="1.0" stop-color="#e2fcff" stop-opacity="0.81960785"/>
    </radialGradient>
    <radialGradient cx="0" cy="0" gradientTransform="matrix(0.0657, 0.0, 0.0, 0.0657, 30.4, 12.4)" gradientUnits="userSpaceOnUse" id="gradient4" r="819.2" spreadMethod="pad">
      <stop offset="0.0" stop-color="#0045bf" stop-opacity="0.81960785"/>
      <stop offset="0.49019607843137253" stop-color="#81d6fc" stop-opacity="0.81960785"/>
      <stop offset="1.0" stop-color="#43d9e7" stop-opacity="0.81960785"/>
    </radialGradient>
    <radialGradient cx="0" cy="0" gradientTransform="matrix(0.0091, 0.0, 0.0, 0.0091, 36.8, 11.8)" gradientUnits="userSpaceOnUse" id="gradient5" r="819.2" spreadMethod="pad">
      <stop offset="0.0" stop-color="#81edf7" stop-opacity="0.81960785"/>
      <stop offset="1.0" stop-color="#0b9ccd" stop-opacity="0.81960785"/>
    </radialGradient>
    <radialGradient cx="0" cy="0" gradientTransform="matrix(0.0128, 0.0, 0.0, 0.0128, 31.6, 0.0)" gradientUnits="userSpaceOnUse" id="gradient6" r="819.2" spreadMethod="pad">
      <stop offset="0.0" stop-color="#7dbeec" stop-opacity="0.81960785"/>
      <stop offset="1.0" stop-color="#e2fcff" stop-opacity="0.81960785"/>
    </radialGradient>
    <radialGradient cx="0" cy="0" gradientTransform="matrix(0.011, 0.0, 0.0, 0.011, 67.35, -37.25)" gradientUnits="userSpaceOnUse" id="gradient7" r="819.2" spreadMethod="pad">
      <stop offset="0.0" stop-color="#81edf7" stop-opacity="0.81960785"/>
      <stop offset="1.0" stop-color="#0b9ccd" stop-opacity="0.81960785"/>
    </radialGradient>
    <radialGradient cx="0" cy="0" gradientTransform="matrix(0.0164, 0.0, 0.0, 0.0164, 67.35, -23.4)" gradientUnits="userSpaceOnUse" id="gradient8" r="819.2" spreadMethod="pad">
      <stop offset="0.0" stop-color="#0045bf" stop-opacity="0.81960785"/>
      <stop offset="0.49019607843137253" stop-color="#81d6fc" stop-opacity="0.81960785"/>
      <stop offset="1.0" stop-color="#43d9e7" stop-opacity="0.81960785"/>
    </radialGradient>
    <radialGradient cx="0" cy="0" gradientTransform="matrix(0.0342, 0.0, 0.0, 0.0616, 56.8, -8.0)" gradientUnits="userSpaceOnUse" id="gradient9" r="819.2" spreadMethod="pad">
      <stop offset="0.0" stop-color="#47c5e2" stop-opacity="0.81960785"/>
      <stop offset="1.0" stop-color="#4263d3" stop-opacity="0.81960785"/>
    </radialGradient>
    <radialGradient cx="0" cy="0" gradientTransform="matrix(0.0216, 0.0, 0.0, 0.0204, 57.35, 3.4)" gradientUnits="userSpaceOnUse" id="gradient10" r="819.2" spreadMethod="pad">
      <stop offset="0.0" stop-color="#9ad5ff" stop-opacity="0.81960785"/>
      <stop offset="1.0" stop-color="#f3fdff" stop-opacity="0.81960785"/>
    </radialGradient>
    <radialGradient cx="0" cy="0" gradientTransform="matrix(0.0441, 0.0, 0.0, 0.0417, 54.0, -10.4)" gradientUnits="userSpaceOnUse" id="gradient11" r="819.2" spreadMethod="pad">
      <stop offset="0.0" stop-color="#81edf7" stop-opacity="0.81960785"/>
      <stop offset="1.0" stop-color="#0b9ccd" stop-opacity="0.81960785"/>
    </radialGradient>
    <radialGradient cx="0" cy="0" gradientTransform="matrix(0.0135, 0.0, 0.0, 0.0135, -42.4, -11.9)" gradientUnits="userSpaceOnUse" id="gradient12" r="819.2" spreadMethod="pad">
      <stop offset="0.2196078431372549" stop-color="#e2fcff" stop-opacity="0.81960785"/>
      <stop offset="1.0" stop-color="#7dbeec" stop-opacity="0.81960785"/>
    </radialGradient>
    <radialGradient cx="0" cy="0" fx="-73.60000000000001" fy="0" gradientTransform="matrix(0.0116, 0.0, 0.0, 0.0116, -43.6, 2.5)" gradientUnits="userSpaceOnUse" id="gradient13" r="819.2" spreadMethod="pad">
      <stop offset="0.0" stop-color="#7ddcec" stop-opacity="0.81960785"/>
      <stop offset="1.0" stop-color="#e2fcff" stop-opacity="0.81960785"/>
    </radialGradient>
    <radialGradient cx="0" cy="0" gradientTransform="matrix(0.0086, 0.0, 0.0, 0.0086, -12.65, -7.9)" gradientUnits="userSpaceOnUse" id="gradient14" r="819.2" spreadMethod="pad">
      <stop offset="0.0" stop-color="#7dbeec" stop-opacity="0.81960785"/>
      <stop offset="1.0" stop-color="#e2fcff" stop-opacity="0.81960785"/>
    </radialGradient>
    <radialGradient cx="0" cy="0" gradientTransform="matrix(0.012, 0.0, 0.0, 0.012, -24.5, 11.45)" gradientUnits="userSpaceOnUse" id="gradient15" r="819.2" spreadMethod="pad">
      <stop offset="0.0" stop-color="#81edf7" stop-opacity="0.81960785"/>
      <stop offset="1.0" stop-color="#8fd2e9" stop-opacity="0.81960785"/>
    </radialGradient>
    <radialGradient cx="0" cy="0" fx="-73.60000000000001" fy="0" gradientTransform="matrix(0.0093, 0.0, 0.0, 0.0093, -40.3, 14.05)" gradientUnits="userSpaceOnUse" id="gradient16" r="819.2" spreadMethod="pad">
      <stop offset="0.0" stop-color="#7ddcec" stop-opacity="0.81960785"/>
      <stop offset="1.0" stop-color="#e2fcff" stop-opacity="0.81960785"/>
    </radialGradient>
    <radialGradient cx="0" cy="0" gradientTransform="matrix(0.005, 0.0, 0.0, 0.005, -22.0, -5.95)" gradientUnits="userSpaceOnUse" id="gradient17" r="819.2" spreadMethod="pad">
      <stop offset="0.0" stop-color="#81edf7" stop-opacity="0.81960785"/>
      <stop offset="1.0" stop-color="#27acd9" stop-opacity="0.81960785"/>
    </radialGradient>
    <radialGradient cx="0" cy="0" gradientTransform="matrix(0.0341, 0.0, 0.0, 0.0341, -20.9, 6.4)" gradientUnits="userSpaceOnUse" id="gradient18" r="819.2" spreadMethod="pad">
      <stop offset="0.0" stop-color="#81edf7" stop-opacity="0.81960785"/>
      <stop offset="1.0" stop-color="#0b9ccd" stop-opacity="0.81960785"/>
    </radialGradient>
    <radialGradient cx="0" cy="0" gradientTransform="matrix(0.0121, 0.0, 0.0, 0.0121, -16.8, -17.35)" gradientUnits="userSpaceOnUse" id="gradient19" r="819.2" spreadMethod="pad">
      <stop offset="0.0" stop-color="#76d3f3" stop-opacity="0.81960785"/>
      <stop offset="0.37254901960784315" stop-color="#6dd2ff" stop-opacity="0.81960785"/>
      <stop offset="0.6862745098039216" stop-color="#b8eaff" stop-opacity="0.81960785"/>
    </radialGradient>
    <radialGradient cx="0" cy="0" gradientTransform="matrix(0.0401, 0.0, 0.0, 0.0401, -32.6, -15.35)" gradientUnits="userSpaceOnUse" id="gradient20" r="819.2" spreadMethod="pad">
      <stop offset="0.0" stop-color="#47c5e2" stop-opacity="0.81960785"/>
      <stop offset="1.0" stop-color="#4263d3" stop-opacity="0.81960785"/>
    </radialGradient>
    <radialGradient cx="0" cy="0" gradientTransform="matrix(0.0313, 0.0, 0.0, 0.0328, -33.05, -17.7)" gradientUnits="userSpaceOnUse" id="gradient21" r="819.2" spreadMethod="pad">
      <stop offset="0.0" stop-color="#0045bf" stop-opacity="0.81960785"/>
      <stop offset="0.49019607843137253" stop-color="#81d6fc" stop-opacity="0.81960785"/>
      <stop offset="1.0" stop-color="#43d9e7" stop-opacity="0.81960785"/>
    </radialGradient>
    <radialGradient cx="0" cy="0" gradientTransform="matrix(-0.0235, 0.0, 0.0, 0.0149, -36.05, 10.6)" gradientUnits="userSpaceOnUse" id="gradient22" r="819.2" spreadMethod="pad">
      <stop offset="0.0" stop-color="#c2fffc" stop-opacity="0.81960785"/>
      <stop offset="1.0" stop-color="#28b9e9" stop-opacity="0.81960785"/>
    </radialGradient>
    <radialGradient cx="0" cy="0" gradientTransform="matrix(-0.0124, 0.0, 0.0, 0.0079, -36.05, 24.45)" gradientUnits="userSpaceOnUse" id="gradient23" r="819.2" spreadMethod="pad">
      <stop offset="0.0" stop-color="#7dbeec" stop-opacity="0.81960785"/>
      <stop offset="1.0" stop-color="#0099cc" stop-opacity="0.81960785"/>
    </radialGradient>
    <g id="shape1" transform="matrix(1.0, 0.0, 0.0, 1.0, 41.3, 33.7)">
      <path d="M64.9 -31.75 Q65.7 -30.7 65.7 -29.85 65.7 -29.35 65.3 -28.6 L64.8 -27.2 64.45 -28.75 64.15 -29.9 Q63.5 -30.2 63.5 -32.4 L63.6 -33.7 64.0 -33.7 Q64.1 -32.85 64.9 -31.75 M60.7 -8.8 L59.55 -9.8 Q59.3 -10.05 59.3 -10.65 L59.65 -12.2 60.0 -14.2 Q60.9 -12.85 60.9 -12.2 L60.7 -8.8 M56.7 -0.9 L56.7 -1.8 57.5 -3.0 57.6 -3.1 Q57.6 -1.6 56.9 -0.9 L56.7 -0.9 M61.65 11.9 L62.4 11.8 62.5 12.4 Q62.7 13.45 61.7 13.7 L61.65 12.1 61.65 11.9 M63.75 14.6 L63.75 15.15 63.75 15.45 Q63.6 15.8 63.25 15.7 L62.95 15.5 62.75 14.9 Q62.75 14.45 63.05 14.0 63.6 13.95 63.7 14.25 L63.75 14.6 M62.85 16.85 Q62.85 17.85 62.4 18.3 L62.3 18.3 62.3 17.7 62.8 16.9 62.85 16.85 M60.05 5.55 L60.0 5.5 60.65 5.5 60.6 5.65 60.6 5.7 60.45 5.9 60.25 6.55 60.15 5.9 60.1 5.7 60.05 5.55 M41.0 4.35 L41.6 3.1 41.85 3.1 41.95 3.95 Q41.95 5.4 41.5 5.6 L41.35 6.3 41.3 6.35 41.2 6.7 41.1 7.35 40.9 6.7 40.75 6.45 40.7 6.3 40.5 5.6 Q40.5 5.05 41.0 4.35 M42.2 24.3 L42.65 24.9 43.0 25.65 42.7 26.3 42.45 26.85 42.0 26.55 Q41.3 26.0 41.3 25.4 L41.2 22.1 Q41.35 23.15 42.2 24.3 M51.65 30.2 L51.65 30.4 51.35 30.6 51.15 30.45 51.0 30.05 51.2 29.45 Q51.55 29.4 51.65 29.6 L51.65 29.85 51.65 30.2 M60.05 24.1 L58.7 24.1 59.15 23.5 59.85 22.3 60.15 21.3 60.05 24.1 M41.15 30.7 L41.45 31.1 41.7 31.6 41.5 32.05 41.3 32.4 41.0 32.2 Q40.55 31.85 40.55 31.45 L40.55 30.7 41.15 30.7 M49.3 34.25 L49.2 36.45 48.75 37.2 48.45 37.4 48.3 37.05 48.1 36.6 Q48.1 36.4 48.65 35.7 L49.3 34.25 M47.15 34.15 L47.45 34.25 47.45 34.45 47.45 34.65 47.45 34.8 47.25 34.95 47.15 34.85 47.05 34.55 47.15 34.15 M45.9 37.35 L45.85 38.85 45.55 39.35 45.35 39.5 45.2 39.25 45.1 38.95 45.45 38.35 45.9 37.35 M36.9 10.35 Q36.85 10.8 37.15 11.65 L37.35 12.7 37.2 13.25 36.45 13.9 36.3 11.65 Q36.3 11.25 36.9 10.35 M37.65 15.05 Q37.75 14.75 38.3 14.8 L38.6 15.7 38.4 16.3 38.1 16.5 Q37.75 16.6 37.6 16.25 L37.6 15.95 37.6 15.4 37.65 15.05 M38.55 17.7 L39.05 18.5 39.05 19.1 38.95 19.1 Q38.5 18.65 38.5 17.65 L38.55 17.7 M39.55 16.4 L39.6 16.4 39.85 17.4 39.75 18.2 39.6 18.2 Q39.2 18.2 39.2 17.65 L39.25 17.25 39.55 16.4 M35.8 27.55 L35.8 27.7 35.8 28.75 Q35.1 28.55 35.25 27.85 L35.3 27.5 35.8 27.55 M-36.45 -20.45 Q-36.35 -19.7 -37.05 -19.5 L-37.05 -20.65 -37.05 -20.8 -36.55 -20.85 -36.45 -20.45 M-36.3 -18.7 L-36.1 -19.3 Q-35.7 -19.35 -35.65 -19.15 L-35.6 -18.9 -35.6 -18.5 -35.6 -18.3 Q-35.7 -18.05 -35.95 -18.1 L-36.15 -18.25 -36.3 -18.7 M-36.6 -16.7 L-36.25 -17.25 Q-36.25 -16.6 -36.55 -16.3 L-36.6 -16.3 -36.6 -16.7 M-39.75 -17.1 Q-39.4 -16.9 -39.2 -16.35 L-39.0 -15.7 Q-39.0 -15.4 -39.4 -15.15 L-40.3 -14.2 -40.3 -14.95 Q-40.25 -16.55 -39.75 -17.1 M-26.95 -9.2 L-26.9 -9.2 -26.7 -8.6 -26.3 -6.5 -26.7 -6.0 -27.9 -6.3 -26.95 -9.2 M-17.7 -8.4 L-18.2 -8.9 -18.2 -10.7 -18.1 -10.8 -17.9 -10.8 -17.7 -9.0 -17.7 -8.4 M-14.55 4.9 Q-15.4 4.45 -15.6 4.45 L-15.3 3.1 -15.2 2.7 -15.15 2.7 -14.55 4.6 -14.55 4.9 M-11.9 12.3 L-11.9 12.75 -12.5 12.15 -12.75 11.8 -12.6 11.35 -12.25 10.85 Q-11.9 11.2 -11.9 12.3 M-14.9 14.0 Q-14.1 14.0 -14.1 15.05 -14.1 15.7 -14.65 15.7 -15.25 15.7 -15.9 14.7 -15.9 14.05 -14.9 14.0 M-21.0 1.65 L-20.9 1.7 -20.9 2.9 -21.25 3.2 -21.25 2.8 -21.1 1.65 -21.0 1.65 M-23.1 18.0 Q-22.45 18.0 -22.45 18.45 -22.85 19.1 -23.25 19.1 -23.65 19.1 -23.65 18.65 -23.65 18.0 -23.1 18.0" fill="#7efaff" fill-rule="evenodd" stroke="none"/>
      <path d="M67.6 -31.4 L67.9 -30.3 67.9 -29.3 67.45 -29.6 67.2 -29.9 67.2 -30.9 67.5 -31.4 67.6 -31.4 M61.15 10.8 Q61.35 10.4 61.5 10.4 L61.95 10.5 61.95 10.9 61.7 11.2 61.45 11.5 61.15 11.3 61.15 10.8 M55.6 12.1 L55.65 11.95 Q55.7 11.7 56.1 11.65 L56.3 11.5 Q56.65 11.5 56.8 11.8 L56.8 12.5 56.3 12.6 Q55.6 12.5 55.6 12.1 M50.5 27.4 L50.3 27.6 50.15 27.8 49.95 27.7 49.95 27.35 50.0 27.3 50.2 27.1 50.5 27.15 50.5 27.4 M44.4 26.9 L44.4 27.9 44.0 28.6 43.5 29.2 43.5 28.5 44.2 26.9 44.4 26.9 M42.6 32.45 L42.6 33.1 42.35 33.6 42.0 34.0 42.0 33.5 42.5 32.45 42.6 32.45 M46.35 33.0 L46.35 32.7 Q46.45 32.6 46.5 32.6 L46.7 32.6 46.7 32.8 46.55 32.9 46.45 33.05 46.35 33.0 M47.2 38.1 L47.2 37.45 47.3 37.45 47.75 38.5 47.75 38.95 47.45 38.55 47.2 38.1 M39.35 5.8 L39.05 6.0 39.05 5.35 39.25 4.6 39.3 4.6 39.5 4.95 39.5 5.6 39.35 5.8 M56.05 41.9 L56.5 42.25 56.85 43.05 56.85 43.15 56.4 43.55 56.1 43.65 Q55.6 43.65 55.6 43.0 55.65 41.9 56.05 41.9 M44.55 39.5 L44.85 40.2 44.85 40.5 44.65 40.25 44.5 39.95 44.5 39.5 44.55 39.5 M50.1 43.25 Q50.15 42.5 50.4 42.5 L50.7 42.75 50.95 43.25 50.95 43.35 50.65 43.6 50.45 43.65 Q50.1 43.65 50.1 43.25 M39.85 11.2 L40.2 11.6 40.2 12.1 39.9 12.3 39.65 12.0 39.4 11.7 39.4 11.3 39.85 11.2 M39.8 27.7 L39.35 28.0 39.0 27.95 39.0 27.5 Q39.1 27.3 39.35 27.3 L39.45 27.4 Q39.75 27.4 39.75 27.6 L39.8 27.7 M31.6 35.35 Q31.6 36.3 30.9 36.3 L30.45 36.2 29.7 35.6 29.7 35.45 Q29.7 34.8 30.3 34.2 L30.6 33.9 Q30.8 33.7 30.95 33.7 L31.3 33.9 Q31.55 34.25 31.6 35.35 M39.55 33.0 L39.25 33.2 39.0 33.15 39.0 32.85 39.25 32.7 39.3 32.8 Q39.5 32.8 39.5 32.9 L39.55 33.0 M-41.3 -20.65 L-41.3 -20.75 Q-41.25 -20.95 -40.95 -20.95 L-40.85 -21.05 Q-40.6 -21.05 -40.5 -20.85 L-40.5 -20.35 -40.85 -20.3 Q-41.3 -20.35 -41.3 -20.65 M-37.15 -21.85 L-36.85 -21.75 -36.85 -21.5 -37.05 -21.3 -37.2 -21.05 -37.4 -21.2 -37.4 -21.55 -37.15 -21.85 M-28.9 -9.3 L-28.5 -9.95 -28.05 -10.4 -27.85 -10.25 -27.6 -10.2 -27.6 -8.7 -28.2 -8.7 -28.9 -8.8 -28.9 -9.3 M-14.75 3.0 L-14.75 2.0 -14.55 2.0 -14.45 1.9 -14.15 2.2 -13.85 2.6 -13.85 2.95 -14.35 3.0 -14.75 3.0 M-13.2 10.5 L-13.2 12.3 -14.4 12.9 -14.4 11.5 -13.2 10.5 M-24.2 14.55 Q-23.85 14.6 -23.55 14.9 L-23.3 15.35 -23.2 15.8 -23.15 16.1 -23.15 16.65 -23.3 16.9 -23.75 17.05 -23.8 17.05 -24.3 17.0 -24.5 16.4 -24.35 15.35 -24.2 14.55" fill="#eefeff" fill-rule="evenodd" stroke="none"/>
      <path d="M33.3 36.8 L33.5 37.5 33.35 37.85 32.6 38.25 32.45 36.8 33.05 36.0 Q33.0 36.25 33.3 36.8 M37.05 33.6 L37.35 33.6 37.25 34.05 37.05 33.6 M36.35 37.1 L36.05 37.25 35.8 37.05 35.55 36.85 35.55 36.6 36.0 36.55 36.35 36.8 36.35 37.1 M35.7 39.9 L35.75 39.9 36.0 40.55 35.9 41.05 35.75 41.05 Q35.35 41.05 35.35 40.7 L35.4 40.45 35.7 39.9 M33.8 39.0 Q33.9 38.8 34.45 38.85 L34.75 39.45 34.55 39.8 34.25 39.95 33.75 39.8 33.75 39.6 33.75 39.25 33.8 39.0 M34.7 40.7 L35.2 41.25 35.2 41.6 35.1 41.6 Q34.65 41.35 34.65 40.7 L34.7 40.7" fill="#ffffff" fill-rule="evenodd" stroke="none"/>
      <path d="M55.65 -4.5 L55.9 -5.0 56.0 -5.0 56.2 -4.5 56.45 -3.75 56.5 -3.1 Q56.5 -2.3 55.9 -2.3 L55.7 -2.3 55.5 -3.5 55.65 -4.5 M64.45 9.55 Q65.05 10.45 65.05 10.85 L64.9 13.1 64.15 12.45 64.0 11.9 64.2 10.85 64.45 9.55 M62.15 16.85 Q62.15 17.4 61.75 17.4 L61.6 17.4 61.5 16.6 Q61.5 15.95 61.75 15.6 L61.8 15.6 62.1 16.45 62.15 16.85 M-35.1 -22.45 L-34.7 -21.5 -34.8 -19.95 -35.3 -20.4 -35.4 -20.8 -35.3 -21.5 Q-35.05 -22.1 -35.1 -22.45 M-36.75 -17.6 L-36.7 -17.3 Q-36.7 -16.9 -37.0 -16.9 L-37.1 -16.9 -37.15 -17.5 -37.0 -18.2 -36.95 -18.2 -36.75 -17.6" fill="#defdff" fill-rule="evenodd" stroke="none"/>
    </g>
  </defs>
</svg>
