<svg xmlns="http://www.w3.org/2000/svg" xmlns:ffdec="https://www.free-decompiler.com/flash" xmlns:xlink="http://www.w3.org/1999/xlink" ffdec:objectType="frame" width="47.3" height="57.3"><use ffdec:characterId="3" xlink:href="#a" width="47.3" height="57.3"/><defs><g id="a" fill-rule="evenodd"><path fill="#313131" d="m42.9 44.9-.3 1.1q0 .4.9 1.75l.35.95-1-.9-1.55-1.25q.35-1.25.4-2.7z"/><path fill="#666" d="m42.9 44.9 1.85 1.5q2.35 1.9 2.55 4.55.15 2.6-3.15 4.7-3.3 2.05-4.45 1.55-1.2-.6-.85-1.2t3.75-2.25q3.35-1.65 2.35-3.45l-1.1-1.6-.35-.95q-.9-1.35-.9-1.75zm-25.15-3.4-.45-1.6q0-1.35.6-2.95l.25-.55.05-.4q.2-1.5 1.1-2.75.6-.95 1.6-1.75l1.55-1.1 1.75-.75 2.3-.25q2.1-.1 4.45.85l-1.25 1 2.15.6q.95.5 2.55 1.85 1.15 1 1.1 1.75l.4-2.95-.1-4.7.5 2.4q.25 1.15.35 2.2v1.9l-.55 2.75q-.55 1.7-2.05 3.7l-.2.25-.25.45-.35.55-.3.35-3.9 1.25-2.95.1-1.95-.2-1.05-.1h-.85q-1.9-.05-3.25-.7l-.05-.05-.2-.1-.9-.9zm3.8-5.3h-2.4l-.3.35.3.1 2.55-.1.05-.2zm1.65-3.8q.65 0 1.1-.45.35-.35.35-.65 0-.75-1.05-.55t-1.05 1q0 .65.65.65m2.2-1.8.1.25.35.2q.55 0 .55-.45 0-.6-.5-.45-.5.1-.5.45m2.3 5.95h-.05l2.05.65 1.55.6.45-.1q-.5-.45-2.05-.95l-1.75-.4zm-5 2v-.3q-.25.4-.1.9l.55.45q.5 0 1.05-.8l.35.8q.35.4.9.4l.75-.25q.35-.3.55-1.15l-.5.65q-.45.4-.9.4l-.7-.4-.4-.7-.4.3-.5.25q-.65 0-.65-.55"/><path fill="#414141" d="m19.4 27.6.1-.2 3.8 1.75q.5.2.9.5l-1.75.75-.3-.35-1.1-.95-.8-.65zm11.55 2.65 3.1-1.9 1.65-.95.05.25q-1 .4-2.8 1.95l-1.75 1.65.65.6-2.15-.6zM19 42.7q1.35.65 3.25.7-2 .05-3.05.45l-.05.05-.15-1.1zm5.15.8 1.95.2 2.95-.1 3.9-1.25q-1.35 1.45-4.3 2.95-.65-.65-1.95-1.1z"/><path fill="#999" d="M19.3 33.25q-.4-.95-.4-3.65 0-1.2.5-2l.85.85.8.65 1.1.95.3.35-1.55 1.1q-1 .8-1.6 1.75m16.45-5.6.05.15.1 4.7-.4 2.95q.05-.75-1.1-1.75-1.6-1.35-2.55-1.85l-.65-.6 1.75-1.65q1.8-1.55 2.8-1.95"/><path d="m21.55 36.2.2.15-.05.2-2.55.1-.3-.1.3-.35zm1.15 2.35q0 .55.65.55l.5-.25.4-.3.4.7.7.4q.45 0 .9-.4l.5-.65q-.2.85-.55 1.15l-.75.25q-.55 0-.9-.4l-.35-.8q-.55.8-1.05.8l-.55-.45q-.15-.5.1-.9zm5-2 .2-.2 1.75.4q1.55.5 2.05.95l-.45.1-1.55-.6-2.05-.65zm.65 10.5h.2l.15.05.1.3q0 .3-.65.25l-.85-.05-.2-.1-.05-.2.05-.25h.55l-.95-1.1-.2-.3-.8.75-.75-1.05-.55.55-1.5 1.5-.5-1.1-.3-.5-1.2 1.4-1.15-2.3-.5.05-.1-.45 1.4.05v.3l-.3.15.8 1.5 1.1-1.1.5.45.45.75h-.05l.05.05v-.05l1.7-1.85q.4 0 1 1.05l.8-.75 1.1 1.2z"/><path fill="#ccc" d="m18.85 44.1-1.1-2.6.1.15.9.9.2.1.05.05v.1l.15 1.1zm14.1-1.75.3-.35.35-.55.25-.45.2-.25q.05 1.3-.25 1.95l-.05.05q-1.05 1.8-4.45 3.6-.15-.6-.65-1.05 2.95-1.5 4.3-2.95"/><path fill="#7b7b7b" d="M25.4 30.6q0-.35.5-.45.5-.15.5.45 0 .45-.55.45l-.35-.2zm-2.2 1.8q-.65 0-.65-.65 0-.8 1.05-1t1.05.55q0 .3-.35.65-.45.45-1.1.45"/><path fill="#545151" d="M41.3 46.55q-.3 1.2-.9 2.2l-.8 1.15-.8.55-.3.15q-.8 0-.8-.7l.4-1.65 1-.85q.6-.65 1-1.8l-1.75 1.5q-1.95 1.5-4 2.25l-1.5.25q-.9.1-1 .5l-.45 1.7-.7 1.65-.4.15-.6-2.15-.05-.05q-1.85-.05-4.4-.85L23 49.7l-1.6-.8 1.45.25 3 .2 1.1-.15q3.75-.3 3.75-1.5l-.2-.5q-.2-.3-.5-.35l2.65-1.95q1.45-1.3 1.15-2.2.3-.65.25-1.95 1.5-2 2.05-3.7l.55-2.75.05-.5-.05.8q1-.05 3 2.05 2.05 2.55 2.05 6.65v.55q-.05 1.45-.4 2.7m-18.55 5.6-.05.25q-1.75-1.05-2.7-4l1.35.45.9 2.35z"/><path fill="#2e2e2e" d="m38.1 48.25-1.2.95q-2.35 1.9-4.5 2.15-.7 1.3-1.3 1.85l-.4.25.7-1.65.45-1.7q.1-.4 1-.5l1.5-.25q2.05-.75 4-2.25l1.75-1.5q-.4 1.15-1 1.8zM23 49.7l-.1.95-.15 1.5-.5-.95-.9-2.35L20 48.4l-.2-.6 1.3.4 2 .4q1.45.2 3.3.05t2.35-.6l.55-.75q.15-.45 0-.95 3.4-1.8 4.45-3.6l.05-.05q.3.9-1.15 2.2L30 46.85q.3.05.5.35l.2.5q0 1.2-3.75 1.5l-1.1.15-3-.2-1.45-.25z"/><path fill="#fff" d="M19.8 47.8q-2.15-1.05-1.9-2.6.1-.6.95-1.1l.3-.2.05-.05q1.05-.4 3.05-.45h.85l1.05.1 2.55.7q1.3.45 1.95 1.1.5.45.65 1.05.15.5 0 .95l-.55.75q-.5.45-2.35.6t-3.3-.05l-2-.4zm8.55-.75-.65-.8-1.1-1.2-.8.75q-.6-1.05-1-1.05l-1.7 1.85v.05l-.05-.05h.05l-.45-.75-.5-.45-1.1 1.1-.8-1.5.3-.15v-.3l-1.4-.05.1.45.5-.05 1.15 2.3 1.2-1.4.3.5.5 1.1 1.5-1.5.55-.55.75 1.05.8-.75.2.3.95 1.1h-.55l-.05.25.05.2.2.1.85.05q.65.05.65-.25l-.1-.3-.15-.05z"/><path fill="#a17c64" d="m22.9 5 5.95 6.55 4.4 5-.3.55-10.8-11.75z"/><path fill="#e5e5e5" d="M.7 19.5 0 18.05l1.9-1.5 1.2-1.1q-.35 1.5-1.75 3.25zm2.15-6.75-.15-2.1L5.1 10l1.65-.75-.3.55L5 11.35zm4-4.6.05-.7.5-2.55 2.45.1 1.4-.15-.45.8q-.45.75-1.2 1.2zm5.05-4.5.05-.65q.05-1.5.5-2.6l2.45.25 1.7.1-1.75.7-2.35.75.1 1.3-.65.15z"/><path fill="#ececec" d="m11.15 16.9-.9 1.15-1 1.15-.15.1q.65.2 1.45.9 1.1.95 1.35 1.6l-.8 2.3-.9 1.55-1.35-.9-.1-.05q.3-1.4.3-3.95 0-.95-.15-1.35-.25-.95-.85-1.85l-.15-.25 1.55-2.6.5-1.7.05-.2.15-.15.15-.1q.55.45 1.05 1.5.45.85.55 1.45l.05.55zm1.6-5.75-1.1.7-1.1.6-.4.15v-.15L9.7 10.7v-.1l1.8-2 1.45-1.75.45-.2q.3.55.5 1.55l.05.25q.2 1.45-.05 2.05zm4-10.45L17 .6l.25-.05.1.65v1.35q.05 1.75-.05 2.05l-2.05 1.05-.55.35-1.15.6-.4.15h-.05q.05-.7-.05-1.5L14.7 3.6Q16 2.2 16.75.7"/><path fill="#fff" d="m22.9 5-.75.35L17.45.3l.25-.3.45.1zm10.05 12.1.3-.55 3.65 4.35q.15.2-.05.45zm-24.2 7.6L6.85 23l1.3-2.05.75-1.5v-.05q.15.4.15 1.35 0 2.55-.3 3.95m-.85-7.4-1.05-2.15 2-1.4L10 12.8l-.05.2-.5 1.7zm1.8-6.7-.35-1.65-.05-.85 2.2-.7.15-.05 1.3-.5L11.5 8.6zM16.6.75l.15-.05Q16 2.2 14.7 3.6l-1.65 1.65-.15-.45v-.05l-.3-1.25-.1-1.3 2.35-.75z"/><path fill="#b1b1b1" d="m14.9 25.7-.35-.15q-1.4-.6-2.3-1.35.3-.35.9-2.25l.3-1.1.1 1.3-.1 1.15.5 1.2zm-2.75-7.5-1-1.3.8-.85-.05-.55.35-.35.4 1.95zm1.25-5.55-.45-1.05-.2-.45 1.15-.65q.25-.6.05-2.05l-.05-.25.3-.15q.3 2.25.25 3 0 .9-.2 1.1zM17.35 1.2l.1-.15.1-.15.3.3q-.05 3.6-.3 4.35-.1.35-2 1l-.3-.9L17.3 4.6q.1-.3.05-2.05z"/><path fill="#d4d4d4" d="m36.85 21.35-.2.25-.55-.05-3.75-4.35.6-.1zM22 5.55l-3.15-3.3-1-1.05-.3-.3-.05-.1-.15-.35.1-.15 4.7 5.05z"/><path fill="#c4c4c4" d="M18.85 2.25q.4 1.5.3 2.05l-1.1 1-1.2.95-1.1.85.15-.1.8 1.65q.5 1.45.3 2l-1.15 1.05-.95.9-.5.35-.55.35q.6.35 1.3 1.35.85 1.1.95 1.8l-.75 1.35-1 1.45-.65.9q.75.05 1.7.65 1.25.8 1.85 1.5l-.6 2.3-.65 1.7-1.1-.6-.95-1.2-.5-1.2.1-1.15-.1-1.3.25-.6-1.2-1.65-.35-.4.5-1.1-.4-1.95.35-.45 1.2-1.3-.4-.75.85-.5q.2-.2.2-1.1.05-.75-.25-3l.05-.05 1.45-.85-.15-.6q1.9-.65 2-1 .25-.75.3-4.35z"/><path fill="#c6c6c6" d="m9.35 8.95-.85.1-1.3.15-.2-.05.35 2.05q.15 1.4-.15 2.05l-2.15 1.1q-.8.35-1.4.9l-.15.15q.5.4.95 1.25.7 1.3.75 1.95l-1.55 1.95-1.4 1.15-.95-1.35-.6-.85.65-.8q1.4-1.75 1.75-3.25l.05-.05-.05-.2q.05-.6-.2-1.95l-.05-.5L5 11.35 6.45 9.8l.3-.55.25-.1-.25-.05.1-.95 2.75-1.3q.75-.45 1.2-1.2l.45-.8.65-.15-.15-.05.15-1h.05l.65-.15.3 1.25-.8-.05h-.15l-.3 2.05-.15.65-2.2.7z"/><path fill="#835f48" d="m22.15 5.35 10.8 11.75-.6.1L22 5.55z"/></g></defs></svg>