<?xml version="1.0" encoding="UTF-8" standalone="no"?>
<svg xmlns:ffdec="https://www.free-decompiler.com/flash" xmlns:xlink="http://www.w3.org/1999/xlink" ffdec:objectType="frame" height="34.7px" width="39.4px" xmlns="http://www.w3.org/2000/svg">
  <g transform="matrix(1.0, 0.0, 0.0, 1.0, 21.1, -1.6)">
    <use ffdec:characterId="3" height="34.7" transform="matrix(1.0, 0.0, 0.0, 1.0, -21.1, 1.6)" width="39.4" xlink:href="#shape0"/>
  </g>
  <defs>
    <g id="shape0" transform="matrix(1.0, 0.0, 0.0, 1.0, 21.1, -1.6)">
      <path d="M17.9 7.2 Q16.5 9.2 14.35 10.35 12.3 11.4 10.0 11.4 9.85 13.8 7.15 15.7 4.85 17.3 1.7 18.05 -9.6 23.6 -11.1 30.3 L-9.3 31.3 Q-7.6 32.7 -8.15 34.95 L-9.45 34.9 Q-10.55 34.65 -11.7 33.3 -11.25 35.1 -13.4 36.3 -13.7 36.3 -14.3 34.9 L-15.2 32.2 Q-15.45 33.4 -16.15 33.95 -18.0 32.7 -18.3 31.15 -18.55 30.1 -18.15 29.55 -19.4 30.25 -21.1 30.45 -21.1 27.95 -19.1 26.65 L-17.15 25.85 Q-16.3 23.15 -13.25 21.35 -10.45 19.7 -6.2 19.1 -4.5 16.75 -0.35 14.3 3.75 11.85 4.0 9.2 L2.85 8.45 Q1.0 7.35 1.2 5.6 1.45 3.8 3.6 3.7 2.95 2.1 4.0 1.8 L6.4 2.05 Q7.75 2.55 8.85 3.5 9.55 4.15 10.6 4.2 L14.35 2.2 Q16.0 1.3 16.65 2.05 17.25 2.85 15.9 4.0 L17.5 4.7 Q18.9 5.75 17.9 7.2" fill="#75dbb1" fill-rule="evenodd" stroke="none"/>
      <path d="M-14.7 22.65 Q-13.9 21.7 -12.85 21.15 -9.8 24.85 -10.8 29.6 L-10.95 30.2 -11.0 30.3 -9.2 31.3 Q-7.5 32.7 -8.05 34.95 L-9.35 34.9 Q-10.45 34.65 -11.6 33.3 -12.85 30.6 -12.95 28.9 -13.15 25.3 -14.7 22.65 M1.7 18.05 L1.55 18.15 -5.7 18.7 Q-4.75 19.65 -5.0 20.8 -5.25 21.8 -6.4 23.15 -8.15 24.9 -9.1 26.6 -7.05 22.55 -8.85 19.65 L-6.2 19.1 -5.9 18.75 -5.8 18.65 Q-4.55 17.1 -2.35 15.6 1.55 17.2 8.15 14.95 L7.15 15.7 Q4.85 17.3 1.7 18.05 M5.95 1.75 L6.4 2.05 8.0 2.85 Q6.3 7.85 8.65 11.2 L10.0 11.8 9.8 12.5 9.7 12.8 Q5.25 14.5 1.8 12.8 3.85 11.05 4.0 9.2 L3.5 8.9 5.2 9.65 Q4.25 7.0 4.2 5.35 4.2 3.65 5.0 1.75 L5.05 1.7 5.05 1.6 5.95 1.75 M12.65 3.15 L13.8 2.5 Q11.65 6.8 15.75 9.45 L14.35 10.35 14.15 10.5 12.95 10.95 Q9.4 7.8 11.5 3.8 L12.65 3.15" fill="#e5e5e5" fill-rule="evenodd" stroke="none"/>
      <path d="M5.65 3.6 Q4.45 2.1 4.6 1.7 5.1 1.5 6.9 2.35 8.7 3.15 8.8 3.45 8.9 3.7 9.7 3.95 L10.6 4.2 Q9.3 5.15 7.85 5.2 6.85 5.05 5.65 3.6 M4.3 9.05 L5.8 9.85 Q7.85 11.05 10.2 11.4 9.9 13.05 8.9 14.2 L8.85 14.25 Q4.85 14.7 1.45 13.0 L2.8 11.85 Q4.25 10.35 4.3 9.05 M17.05 4.5 Q16.95 5.85 15.15 7.0 13.1 7.55 11.25 7.0 L13.7 5.3 15.9 4.0 17.05 4.5 M-9.45 34.9 Q-10.55 34.65 -11.7 33.3 -11.4 34.6 -12.4 35.6 L-13.4 36.3 Q-13.7 36.3 -14.3 34.9 L-15.2 32.2 -14.95 31.6 Q-12.9 33.9 -13.0 34.65 -11.6 33.8 -12.45 31.25 -9.55 32.55 -8.15 34.95 L-9.45 34.9 M-16.85 27.75 L-17.3 29.7 -17.05 31.0 -16.15 33.95 Q-18.2 32.5 -18.35 30.8 L-18.15 29.55 -20.6 30.4 Q-20.25 29.1 -18.25 27.8 L-16.8 27.25 -16.85 27.75 M-7.1 21.65 Q-11.9 22.0 -15.2 26.0 -12.1 20.05 -10.05 19.85 -4.95 18.7 2.0 17.9 -4.8 21.05 -8.45 25.1 -7.05 23.2 -7.1 21.65" fill="#000000" fill-opacity="0.29803923" fill-rule="evenodd" stroke="none"/>
    </g>
  </defs>
</svg>
