<svg xmlns="http://www.w3.org/2000/svg" xmlns:ffdec="https://www.free-decompiler.com/flash" xmlns:xlink="http://www.w3.org/1999/xlink" ffdec:objectType="frame" width="117.7" height="99.6"><g transform="translate(46.85 45.9)"><filter id="a"><feColorMatrix in="SourceGraphic" result="filterResult0" values="0 0 0 0 0.2,0 0 0 0 0.6,0 0 0 0 1.0,0 0 0 1 0"/><feConvolveMatrix divisor="25" in="filterResult0" kernelMatrix="1 1 1 1 1 1 1 1 1 1 1 1 1 1 1 1 1 1 1 1 1 1 1 1 1" order="5 5" result="filterResult1"/><feComposite in="SourceGraphic" in2="filterResult1" result="filterResult2"/></filter><use ffdec:characterId="4" xlink:href="#b" width="117.7" height="99.6" filter="url(#a)" transform="translate(-46.85 -45.9)"/><use ffdec:characterId="5" xlink:href="#c" width="109.2" height="77.35" transform="translate(-41.3 -33.7)"/></g><defs><radialGradient id="e" cx="0" cy="0" r="819.2" gradientTransform="translate(39.5 37.25)scale(.0115)" gradientUnits="userSpaceOnUse" spreadMethod="pad"><stop offset=".22" stop-color="#e2fcff" stop-opacity=".82"/><stop offset="1" stop-color="#7dbeec" stop-opacity=".82"/></radialGradient><radialGradient id="f" cx="0" cy="0" r="819.2" fx="-73.6" fy="0" gradientTransform="translate(62 27.4)scale(.0112)" gradientUnits="userSpaceOnUse" spreadMethod="pad"><stop offset="0" stop-color="#7ddcec" stop-opacity=".82"/><stop offset="1" stop-color="#e2fcff" stop-opacity=".82"/></radialGradient><radialGradient id="g" cx="0" cy="0" r="819.2" fx="-73.6" fy="0" gradientTransform="translate(39.35 10.4)scale(.0045)" gradientUnits="userSpaceOnUse" spreadMethod="pad"><stop offset="0" stop-color="#7ddcec" stop-opacity=".82"/><stop offset="1" stop-color="#e2fcff" stop-opacity=".82"/></radialGradient><radialGradient id="h" cx="0" cy="0" r="819.2" fx="-73.6" fy="0" gradientTransform="translate(34.6 24)scale(.0068)" gradientUnits="userSpaceOnUse" spreadMethod="pad"><stop offset="0" stop-color="#7ddcec" stop-opacity=".82"/><stop offset="1" stop-color="#e2fcff" stop-opacity=".82"/></radialGradient><radialGradient id="i" cx="0" cy="0" r="819.2" gradientTransform="translate(30.4 12.4)scale(.0657)" gradientUnits="userSpaceOnUse" spreadMethod="pad"><stop offset="0" stop-color="#0045bf" stop-opacity=".82"/><stop offset=".49" stop-color="#81d6fc" stop-opacity=".82"/><stop offset="1" stop-color="#43d9e7" stop-opacity=".82"/></radialGradient><radialGradient id="j" cx="0" cy="0" r="819.2" gradientTransform="translate(36.8 11.8)scale(.0091)" gradientUnits="userSpaceOnUse" spreadMethod="pad"><stop offset="0" stop-color="#81edf7" stop-opacity=".82"/><stop offset="1" stop-color="#0b9ccd" stop-opacity=".82"/></radialGradient><radialGradient id="k" cx="0" cy="0" r="819.2" gradientTransform="translate(31.6)scale(.0128)" gradientUnits="userSpaceOnUse" spreadMethod="pad"><stop offset="0" stop-color="#7dbeec" stop-opacity=".82"/><stop offset="1" stop-color="#e2fcff" stop-opacity=".82"/></radialGradient><radialGradient id="l" cx="0" cy="0" r="819.2" gradientTransform="translate(67.35 -37.25)scale(.011)" gradientUnits="userSpaceOnUse" spreadMethod="pad"><stop offset="0" stop-color="#81edf7" stop-opacity=".82"/><stop offset="1" stop-color="#0b9ccd" stop-opacity=".82"/></radialGradient><radialGradient id="m" cx="0" cy="0" r="819.2" gradientTransform="translate(67.35 -23.4)scale(.0164)" gradientUnits="userSpaceOnUse" spreadMethod="pad"><stop offset="0" stop-color="#0045bf" stop-opacity=".82"/><stop offset=".49" stop-color="#81d6fc" stop-opacity=".82"/><stop offset="1" stop-color="#43d9e7" stop-opacity=".82"/></radialGradient><radialGradient id="n" cx="0" cy="0" r="819.2" gradientTransform="matrix(.0342 0 0 .0616 56.8 -8)" gradientUnits="userSpaceOnUse" spreadMethod="pad"><stop offset="0" stop-color="#47c5e2" stop-opacity=".82"/><stop offset="1" stop-color="#4263d3" stop-opacity=".82"/></radialGradient><radialGradient id="o" cx="0" cy="0" r="819.2" gradientTransform="matrix(.0216 0 0 .0204 57.35 3.4)" gradientUnits="userSpaceOnUse" spreadMethod="pad"><stop offset="0" stop-color="#9ad5ff" stop-opacity=".82"/><stop offset="1" stop-color="#f3fdff" stop-opacity=".82"/></radialGradient><radialGradient id="p" cx="0" cy="0" r="819.2" gradientTransform="matrix(.0441 0 0 .0417 54 -10.4)" gradientUnits="userSpaceOnUse" spreadMethod="pad"><stop offset="0" stop-color="#81edf7" stop-opacity=".82"/><stop offset="1" stop-color="#0b9ccd" stop-opacity=".82"/></radialGradient><radialGradient id="q" cx="0" cy="0" r="819.2" gradientTransform="translate(-42.4 -11.9)scale(.0135)" gradientUnits="userSpaceOnUse" spreadMethod="pad"><stop offset=".22" stop-color="#e2fcff" stop-opacity=".82"/><stop offset="1" stop-color="#7dbeec" stop-opacity=".82"/></radialGradient><radialGradient id="r" cx="0" cy="0" r="819.2" fx="-73.6" fy="0" gradientTransform="translate(-43.6 2.5)scale(.0116)" gradientUnits="userSpaceOnUse" spreadMethod="pad"><stop offset="0" stop-color="#7ddcec" stop-opacity=".82"/><stop offset="1" stop-color="#e2fcff" stop-opacity=".82"/></radialGradient><radialGradient id="s" cx="0" cy="0" r="819.2" gradientTransform="translate(-12.65 -7.9)scale(.0086)" gradientUnits="userSpaceOnUse" spreadMethod="pad"><stop offset="0" stop-color="#7dbeec" stop-opacity=".82"/><stop offset="1" stop-color="#e2fcff" stop-opacity=".82"/></radialGradient><radialGradient id="t" cx="0" cy="0" r="819.2" gradientTransform="translate(-24.5 11.45)scale(.012)" gradientUnits="userSpaceOnUse" spreadMethod="pad"><stop offset="0" stop-color="#81edf7" stop-opacity=".82"/><stop offset="1" stop-color="#8fd2e9" stop-opacity=".82"/></radialGradient><radialGradient id="u" cx="0" cy="0" r="819.2" fx="-73.6" fy="0" gradientTransform="translate(-40.3 14.05)scale(.0093)" gradientUnits="userSpaceOnUse" spreadMethod="pad"><stop offset="0" stop-color="#7ddcec" stop-opacity=".82"/><stop offset="1" stop-color="#e2fcff" stop-opacity=".82"/></radialGradient><radialGradient id="v" cx="0" cy="0" r="819.2" gradientTransform="translate(-22 -5.95)scale(.005)" gradientUnits="userSpaceOnUse" spreadMethod="pad"><stop offset="0" stop-color="#81edf7" stop-opacity=".82"/><stop offset="1" stop-color="#27acd9" stop-opacity=".82"/></radialGradient><radialGradient id="w" cx="0" cy="0" r="819.2" gradientTransform="translate(-20.9 6.4)scale(.0341)" gradientUnits="userSpaceOnUse" spreadMethod="pad"><stop offset="0" stop-color="#81edf7" stop-opacity=".82"/><stop offset="1" stop-color="#0b9ccd" stop-opacity=".82"/></radialGradient><radialGradient id="x" cx="0" cy="0" r="819.2" gradientTransform="translate(-16.8 -17.35)scale(.0121)" gradientUnits="userSpaceOnUse" spreadMethod="pad"><stop offset="0" stop-color="#76d3f3" stop-opacity=".82"/><stop offset=".373" stop-color="#6dd2ff" stop-opacity=".82"/><stop offset=".686" stop-color="#b8eaff" stop-opacity=".82"/></radialGradient><radialGradient id="y" cx="0" cy="0" r="819.2" gradientTransform="translate(-32.6 -15.35)scale(.0401)" gradientUnits="userSpaceOnUse" spreadMethod="pad"><stop offset="0" stop-color="#47c5e2" stop-opacity=".82"/><stop offset="1" stop-color="#4263d3" stop-opacity=".82"/></radialGradient><radialGradient id="z" cx="0" cy="0" r="819.2" gradientTransform="matrix(.0313 0 0 .0328 -33.05 -17.7)" gradientUnits="userSpaceOnUse" spreadMethod="pad"><stop offset="0" stop-color="#0045bf" stop-opacity=".82"/><stop offset=".49" stop-color="#81d6fc" stop-opacity=".82"/><stop offset="1" stop-color="#43d9e7" stop-opacity=".82"/></radialGradient><radialGradient id="A" cx="0" cy="0" r="819.2" gradientTransform="matrix(-.0235 0 0 .0149 -36.05 10.6)" gradientUnits="userSpaceOnUse" spreadMethod="pad"><stop offset="0" stop-color="#c2fffc" stop-opacity=".82"/><stop offset="1" stop-color="#28b9e9" stop-opacity=".82"/></radialGradient><radialGradient id="B" cx="0" cy="0" r="819.2" gradientTransform="matrix(-.0124 0 0 .0079 -36.05 24.45)" gradientUnits="userSpaceOnUse" spreadMethod="pad"><stop offset="0" stop-color="#7dbeec" stop-opacity=".82"/><stop offset="1" stop-color="#09c" stop-opacity=".82"/></radialGradient><g id="d" fill-rule="evenodd"><path fill="#c4faff" fill-opacity=".82" d="m96.45 87.9-.1.35q-.4.5-.7 1.3l-.25 1.2q-.2.9 0 2.95t.95 3.55q-1.75-.5-2.7-1.5-.9-1-.9-2.25l.05-.5q.05-.8.5-1.55l.35-.5.75-.7z"/><path fill="#c4e0ff" fill-opacity=".82" d="M90.1 53v-.05L90 54.6l-.05.3v.5q0 2.55.9 3.9.85 1.35.85 3v.2q-.1-1.05-1.45-2.4-1.5-1.45-1.5-2.1 0-.85.6-2.8l.15-.5zm25.1-3.25q1.1.75 1.1 2.3 0 1.95-3.05 4.05-1.65 1.1-2.4 2.7l-.4 1q-.3 1-.3 2.25 0 1 .3 2.15-1.1-1.55-1.4-2.7-.2-.6 0-1.8t1.6-4.4l1.75-4.15q.35-.95-.15-3.45-.5-2.55-3.6-5.65l4.35 4q1.2 1.3 2.2 3.7m-19.45 32.5q1.35 1.9 1.35 2.9 0 1.65-.55 2.6l-.05.05-.05.1.2-1.45q0-1.65-1.5-3.55l-1.95-2.05q-3.45-3.15-3.45-5.05 0-3.2 2.2-5.4.95-.95 3-2.55-.9.85-1.65 2.65-.8 1.75-.45 4.4t1.4 4.65z"/><path fill="#8fd2e9" fill-opacity=".82" d="m81.55 56.2 3.9-1.5L90.1 53l-.6 1.7-2.15.6q-1.85.5-3.4 1.7l-1.1.35q-.9-.4-1.3-1.15"/><path fill="url(#e)" d="M41.25 31.65q2.35 1.55 2.35 3.65 0 2.2-3.2 3.2t-3.2 2.4q0 1.35 1.9 2.35L41 44.3l-.2.8-.3.9q0-1.15-2.55-2.95T35.4 40.5q0-2.25 2.5-3.95l1.25-.95q1.25-1.15 1.25-1.95l-.1-.45v-.1q0-.85-.75-1.8t-.75-2l.1-.8h.2l-.2.65q0 .95 2.35 2.5" transform="translate(46.85 45.9)"/><path fill="url(#f)" d="m63.6 13.9.05 1.15q0 1.05 3.65 2.85 3.6 1.8 3.05 5.3-.6 3.4-1.45 4.7l-2.95 3.25q1.75-2.35 1.75-4.2 0-1.2-1.3-3.2l-1.25-2-1.1-2.05-.45-1.4q-.3-1.15-.3-2.15 0-1.25.3-2.25" transform="translate(46.85 45.9)"/><path fill="url(#g)" d="m42.5 9.3-2.6 1.55L38.6 12l-.5-.05-2.1-.5 1.1-.35q1.55-1.2 3.4-1.7l2.15-.6z" transform="translate(46.85 45.9)"/><path fill="url(#h)" d="m36.4 16.15-.55 2.7q-.5 2.15.75 4.85l.2.35-.25-.25q-3.65-3.85-3.65-6.7 0-.7.15-1.3l1-2.05 1.15 1.4z" transform="translate(46.85 45.9)"/><path fill="url(#i)" d="m33.55 10.8.4-.2-.25.8-.1.8q0 .65.35 1.3l.1.25-1 2.05q-.15.6-.15 1.3 0 2.85 3.65 6.7l.25.25-.2-.35q-1.25-2.7-.75-4.85l.55-2.7.25.15 1.45.05q1.45.45 2.4 1.4 1.05 1.15 1.05 2.75l-.3 1.55.75-.3.5-.55.35-.4q.95-1.35.95-2.8 0-1.2-.55-2.15-.65-.75-.65-1.1-1.65-2.35-4-2.75l1.3-1.15 2.6-1.55q-.6 1.95-.6 2.8 0 .65 1.5 2.1 1.35 1.35 1.45 2.4v-.2q0-1.65-.85-3-.9-1.35-.9-3.9V9l.05-.3.1-1.65q3.3-1.35 4.85-2.45 3.2-2.3 4.2-4.6.45-.75 2.1 1.9 1.65 2.6 2.1 5.95.4 3.3-1.5 6.75-1.9 3.4-7.8 5.5-5.9 2.05-5.9 8.6 0 3.7 5.45 8.2l.15.1.75.6q-3.3 2.85-7.5 3.4-.85.7-.85 1.3 0 .4 1.9.9 1.85.55 1.85 1.35 0 1-1.65 1.8-2.4 1.2-3.5 2.6-2.95 1.5-2.95 3.6 0 .75.7 1.15-2.05-.2-2.05-2.6 0-2.3 2.4-3.2t2.4-1.9q0-1.4-3.1-2.25-3.15-.85-3.15-1.3 0-.55.55-1l-1.3-.1q1.9-1.35 1.9-2.1-.05-.75-1.75-1.95t-1.35-3.05q.3-1.85 2.75-3.5t2.7-3.5q.2-1.85-3.3-5.2-3.5-3.4-3.95-5.4-.5-2 1.1-3.35 1.6-1.4 2.3-1.7l1.7-.8zm7.7 20.85q-2.35-1.55-2.35-2.5l.2-.65h-.2l-.1.8q0 1.05.75 2t.75 1.8v.1l.1.45q0 .8-1.25 1.95l-1.25.95q-2.5 1.7-2.5 3.95 0 .75 2.55 2.55T40.5 46l.3-.9.2-.8-1.9-1.05q-1.9-1-1.9-2.35 0-1.4 3.2-2.4t3.2-3.2q0-2.1-2.35-3.65M33.6 40.1l.3-.85q-.6-.05-.3.85" transform="translate(46.85 45.9)"/><path fill="url(#j)" d="m33.95 10.6.3-.1.15-.05.3-.15q.4.75 1.3 1.15l2.1.5.5.05q2.35.4 4 2.75 0 .35.65 1.1.55.95.55 2.15 0 1.45-.95 2.8l-.35.4-.5.55-.75.3.3-1.55q0-1.6-1.05-2.75-.95-.95-2.4-1.4l-1.45-.05-.25-.15-1.2-1-1.15-1.4-.1-.25q-.35-.65-.35-1.3l.1-.8z" transform="translate(46.85 45.9)"/><path fill="url(#k)" d="M33.55 10.8 33 8.15q-.7-3.25 3.55-5.75 4.2-2.55 3.9-6l-.65-4.3 1.45 2q1.9 2.55 2.55 6.25.6 3.65-3.4 4.95-4.05 1.3-4.7 2.3l-.75 1.15-.45.75-.2.3-.35.8z" transform="translate(46.85 45.9)"/><path fill="url(#l)" d="m64.7-28.6.15-.4q.75-1.4 1.85-2.65l.25-.25.4-.3q-.05-1.25-1.35-2.45-1.35-1.25-2-2.95t2.8-8.3q-1.5 3.3-.95 5.15.55 1.8 2.6 3.05 2.05 1.2 2.35 3.65.3 2.4-1.8 3.6-2.15 1.15-2.4.8l-1.05.6z" transform="translate(46.85 45.9)"/><path fill="url(#m)" d="M65.55-29.05q-.35.6-.2 1.95.25 2.55 2.05 2.45l.9-1.75 1-1.65q-.25.8-.25 1.85 0 1 .8 2 .8.95.8 1.95l-.4 1.3-.05-.2v-.1q0-.7-.6-1.3l-.8-.6-1.25-.9.7 3.8q-.15.9-2.05 2.55 1.7-1.6.75-3l-2.5-3.05q-.8-2.7.25-4.85z" transform="translate(46.85 45.9)"/><path fill="url(#n)" d="M52.3 0v-.5q-2.5-.7-3.95-3.8-1.5-3.1 0-3.9 1.45-.8-.55-2.55t-.75-6.5 10.1-13.25q-.75 1.1-2.5 6.5-1.8 5.35 7.15 10.75t8.8 10.6q-.15 5.15-2.25 6.5-1-2.4-2.2-3.7l-4.35-4q3.1 3.1 3.6 5.65.5 2.5.15 3.45L63.8 9.4q-1.4 3.2-1.6 4.4t0 1.8l-.05.1-.55.8-.25.15q-.6.4-.6 1.1 0 .95 1.25 2.05 1.2 1.1 1.2 2.15 0 1.2-1.4 1.75l-5.2 1.75q-3.85 1.3-4.4 4.9-.9 3.35-3.3 6l-1.5-2.7q-1.05-2-1.4-4.65t.45-4.4q.75-1.8 1.65-2.65-2.05 1.6-3 2.55-2.2 2.2-2.2 5.4 0 1.9 3.45 5.05L48.3 37l-.65.6-.75-.6-.15-.1q-5.45-4.5-5.45-8.2 0-6.55 5.9-8.6 5.9-2.1 7.8-5.5 1.9-3.45 1.5-6.75-.45-3.35-2.1-5.95Q52.75-.75 52.3 0" transform="translate(46.85 45.9)"/><path fill="url(#o)" d="m52.55 28.85-.1-.05.25.1zm-.7-.2q0-.2.4 0l.2.2z" transform="translate(46.85 45.9)"/><path fill="url(#p)" d="M50.45-7.75q1.7-.8-.45-2.55-2.15-1.8-2-4.6.1-2.8 2.25-4.25.7-3.3 3.55-6.05-.45.45-.85 2.75-.45 2.25.55 4 1 1.7 6.35 5.9t6.75 6.7q1.35 2.45 1.25 4.6T67 .8L65.85-.85l-5.05-4.1Q63.7-.1 63.85 1.3l.35 1.85q.15.45-1.15 3.6-1.3 3.1-1.9 5.25-.6 2.1-.55 3.5 0 1.4-.75.8t-.35.65q.35 1.25 1.85 3.15 1.5 1.85-3.5 3.35-5 1.45-5.65 3l-.2.7-.9-1.55q-.85-1.6-1.15-3.6-.45-2.1.2-3.55.55-1.5 1.3-2.1-1.65 1.2-2.35 2.1-1.75 1.75-1.4 4.35.3 2.55 2.2 4.3l1.75 1.45-.8-.3-.15-.1q-4.45-3.5-4.5-6.35-.2-5.25 4.85-7.25 5-2 6.7-4.95Q59.4 6.65 59 4.55q-.45-2.1-2.45-4.15-2-2.1-2.25-1.45-.1-.25-1.8-.7t-2.7-2.8q-1.05-2.4.65-3.2" transform="translate(46.85 45.9)"/><path fill="#c4faff" fill-opacity=".82" d="m19.5 65.8 1.8 2.1.7.65.35.45q.4.7.4 1.45l.05.4q0 1.2-.8 2.05-.9.9-2.45 1.4 1.25-1.7 1.25-3.6-.05-1.65-.4-2.95l-.2-.5q-.25-.75-.65-1.15z"/><path fill="url(#q)" d="M-43.7-13q1.15-2.25 2.2-3.25l3.85-3.2q-2.7 3.7-3.1 4.95-.5 1.2-.6 2.75-.2 1.4 1.15 3.95l1.75 3.25q.3.6.2 1.15l-1.3 2.3.25-1.85-.2-1.95-.3-.8q-.7-1.35-2.05-2.3-2.6-1.85-2.55-3.45.05-1.25.7-1.55" transform="translate(46.85 45.9)"/><path fill="url(#r)" d="m-39.5-4.9.2 1.95-.25 1.85-.4 1.1q-.4.9-.1 1.2.1.2-1.3 1.9-1.5 1.75-1.75 3.25-.4 1.45 1.25 3.55l-2.55-2.85q-.75-1.25-1.2-4.25-.4-3.05 2.8-4.4 3.25-1.4 3.3-2.3z" transform="translate(46.85 45.9)"/><path fill="url(#s)" d="m-14.6-7.05.25.2h.1l.3.05.15.7.15.65q0 1.05-1.35 2.35l-1.15.95-1.25.05q-1.25.25-2.1 1.15-.95.85-.9 2.2l.3 1.4-.65-.35-.45-.5-.3-.25q-.8-1.2-.8-2.45 0-1.05.4-1.75.5-.7.5-.95 1.55-2.1 3.9-2.2 2.25-.15 2.9-1.25" transform="translate(46.85 45.9)"/><path fill="url(#t)" d="m-26.7 14.85.2.15.35.4-.5.65q-.95 1.3-.9 2.5l.2 1.35-.05-.15-.05-.05q-.5-.9-.5-2.3l.5-1.3zm5.25-5.5q-.05 1.45-2.7 2.75.3-.9.35-1.95l-.05-3.1q-.1-.95-.7-2.3-.75-1.65-1.5-2.35l2.6 2.2q1.75 1.75 2 4.25z" transform="translate(46.85 45.9)"/><path fill="url(#u)" d="m-37.4 6.85.95.55q1.1 2.35.15 5.4l-2.9 3.5q-1.1 1.45.85 3.35-2.2-2-2.25-2.85 0-1.35.8-4.35l-1.45.95-.9.65q-.75.7-.75 1.4v.2l-.1.25-.4-1.55q0-1.15 1-2.1.9-1.25.95-2.35 0-1.2-.25-2l1.1 1.85 1.05 2q1.95.05 2.35-2.65.2-1.55-.2-2.25" transform="translate(46.85 45.9)"/><path fill="url(#v)" d="m-21.95-9.85.5 1.35q.7 1.95.7 2.75 0 .5-1.25 1.75-1.2 1-1.25 1.9v-.15q-.05-1.4.75-2.5.7-1.1.75-3.25z" transform="translate(46.85 45.9)"/><path fill="url(#w)" d="M-25.6 15.95q.3-.3.35.1 0 .35 2-.9t2.55-3.95l.6-2.85q-.05-5.7-5.2-7.5-5.1-2-6.7-4.85-1.75-3.05-1.65-6.4-.15-3.5 1.7-4.85 1.8-1.55 2.3-.65-.85 1.65 2.35 3.75 3.15 2.05 5.35 2.2v.05l4 1.55 3.35 1.3q-.65 1.1-2.9 1.25-2.35.1-3.9 2.2 0 .25-.5.95-.4.7-.4 1.75 0 1.25.8 2.45l.3.25.45.5.65.35-.3-1.4q-.05-1.35.9-2.2.85-.9 2.1-1.15l1.25-.05L-15-3.1q1.35-1.3 1.35-2.35l-.15-.65-.15-.7.3.2q.9.35 1.65.85l.55.5Q-9.35-3-9.2-1.05q0 1.95-2.2 3.25l-2 1.6-1.6 1.55q-.75.75-.95 2.45-.25 1.7 2.55 2.85 2.75 1.1 3.05 2.7.3 1.65-1.05 2.7-1.5.95-1.55 1.65 0 .65 1.75 1.95l-1.15.05q.45.35.5.9 0 .35-2.75 1.1-2.8.65-2.7 1.95-.05.9 2.1 1.75 2.2.85 2.25 3t-1.8 2.35q.55-.45.55-1.05-.05-2-2.65-3.35-1.05-1.4-3.15-2.45-1.55-.75-1.5-1.65-.05-.75 1.6-1.15 1.75-.5 1.75-.8-.15-.55-.8-1.15-3.7-.65-6.45-3.05zm3.65-25.8.2 1.85q-.05 2.15-.75 3.25-.8 1.1-.75 2.5v.15Q-23.2-3-22-4q1.25-1.25 1.25-1.75 0-.8-.7-2.75z" transform="translate(46.85 45.9)"/><path fill="url(#x)" d="m-13.95-6.8-.35-.6-.2-.25.55.1q.65.2.3-1.55-.35-1.9-4.8-2.6-4.5-.8-4.2-2.75.25-1.95 1.5-3.35 1-1.15 1.8-3.4l-.3 2.75q-.3 2.7 3.7 4.9 4 2.15 3.25 4.25l-.95 2.7z" transform="translate(46.85 45.9)"/><path fill="url(#y)" d="M-38.25-3.4q.1-.55-.2-1.15L-40.2-7.8q-1.35-2.55-1.15-3.95.1-1.55.6-2.75.4-1.25 3.1-4.95l-3.85 3.2q-1.05 1-2.2 3.25-3.5.1-3.1-3.85.4-4 8.25-9.05t7.15-9.05q-.6-3.35-2.15-4.85 7.25 6.7 8.3 10.4 1.05 3.75-.6 5.05-1.7 1.3-.5 1.95 1.25.7 0 3.1-1.2 2.45-3.3 2.95v.45q-.5-.9-2.3.65-1.85 1.35-1.7 4.85-.1 3.35 1.65 6.4 1.6 2.85 6.7 4.85 5.15 1.8 5.2 7.5l-.6 2.85q-.55 2.7-2.55 3.95t-2 .9q-.05-.4-.35-.1l-.55-.55-.35-.4-.2-.15q-2.2-2.35-2.95-5.35l-.15-.9q-.9-2.45-3.7-3.5L-38 3.5q-1.4-.55-1.3-1.55 0-.95 1.15-1.75Q-37.1-.7-37-1.55q0-.6-.6-.9l-.25-.15-.4-.75zm16.8 12.75v-.5q-.25-2.5-2-4.25l-2.6-2.2q.75.7 1.5 2.35.6 1.35.7 2.3l.05 3.1q-.05 1.05-.35 1.95 2.65-1.3 2.7-2.75" transform="translate(46.85 45.9)"/><path fill="url(#z)" d="M-43.05-14.75q-.8-.95-.3-4.05.3-3.15 6.8-7.5 6.4-4.35 6.05-7.45-.25-2.05-.55-2.95l3.95 5.95q1.7 2.5 0 5-1.9 2.45-.85 3.05.9.55 0 2.55-1 2-2.7 2.35l-.5.15-1.2.75q-1.5 1.1-2.1 4.15-.65 3.05 1.15 5.35 1.8 2.25 5.9 3.6t4.15 6v.45q-.3 2.25-3.65 5.2l-.05.05-1 .35-1.75.4.55-.2Q-27.2 7.4-26.7 6.4h.05q2.3-2.15 2.3-3.45v-.4Q-24.5.6-25.8-.8l-2-1.85 1.1 1.85q.55 1.2.3 3.1l-.05.2-.9 3.05-.35.55.35-1.4q.2-1.7-1.8-3-2.15-1.45-4.6-2.25-2.55-.9-3.15-1.6-.75-.85-.5-1.35l.65-1.05.35-.8-2.05-1q-.95-.75-1.35-3.5-.35-2.8-.05-4.1.3-1.35 1.4-2.55 1.05-1.25 2.4-5.25-4.5 2-5.8 3.25-1.35 1.2-1.2 3.75m7.3 9.6.45.55-.4-.55z" transform="translate(46.85 45.9)"/><path fill="url(#A)" d="m-33.25 18.8-1.65-.6q-.4.35-3.8-.8-3.25-1.2-2.8-3.6.5-2.45 4-3.8 3.5-1.4 4.6-3.3 1.05-1.95-2.3-4.75 5.4 3.35 5.6 6.4.2 3-4.15 4.4-4.4 1.35-3.2 2.2l1.5 1 .4.25q1.75 1.25 2.9 2.65l.25.4z" transform="translate(46.85 45.9)"/><path fill="url(#B)" d="m-33.25 18.8 1.35.45q1.65 2.15.4 4.85-2.4 1.65-3.95 3.05-1.5 1.4 1.2 3-3-1.65-3.25-2.55 0-1 1.1-3.8l-1.95.9-1.3.6q-.9.6-.9 1.3v.1l-.1.2-.6-1.3q0-1 1.25-1.95 1.25-1 1.25-2 0-1.05-.4-1.85.8.3 2.05 1.35t.95 2.05q2.85.1 3.2-2.45.25-1.35-.3-1.95" transform="translate(46.85 45.9)"/></g><g id="c" fill-rule="evenodd"><path fill="#7efaff" d="M106.2 1.95q.8 1.05.8 1.9 0 .5-.4 1.25l-.5 1.4-.35-1.55-.3-1.15q-.65-.3-.65-2.5l.1-1.3h.4q.1.85.9 1.95M102 24.9l-1.15-1q-.25-.25-.25-.85l.35-1.55.35-2q.9 1.35.9 2zm-4 7.9v-.9l.8-1.2.1-.1q0 1.5-.7 2.2zm4.95 12.8.75-.1.1.6q.2 1.05-.8 1.3l-.05-1.6zm2.1 2.7v.85q-.15.35-.5.25l-.3-.2-.2-.6q0-.45.3-.9.55-.05.65.25zm-.9 2.25q0 1-.45 1.45h-.1v-.6l.5-.8zm-2.8-11.3-.05-.05h.65l-.05.15v.05l-.15.2-.2.65-.1-.65-.05-.2zm-19.05-1.2.6-1.25h.25l.1.85q0 1.45-.45 1.65l-.15.7-.05.05-.1.35-.1.65-.2-.65-.15-.25L82 40l-.2-.7q0-.55.5-1.25M83.5 58l.45.6.35.75-.3.65-.25.55-.45-.3q-.7-.55-.7-1.15l-.1-3.3q.15 1.05 1 2.2m9.45 5.9v.2l-.3.2-.2-.15-.15-.4.2-.6q.35-.05.45.15v.6m8.4-6.1H100l.45-.6.7-1.2.3-1zm-18.9 6.6.3.4.25.5-.2.45-.2.35-.3-.2q-.45-.35-.45-.75v-.75zm8.15 3.55-.1 2.2-.45.75-.3.2-.15-.35-.2-.45q0-.2.55-.9zm-2.15-.1.3.1v.55l-.2.15-.1-.1-.1-.3zm-1.25 3.2-.05 1.5-.3.5-.2.15-.15-.25-.1-.3.35-.6zm-9-27q-.05.45.25 1.3l.2 1.05-.15.55-.75.65-.15-2.25q0-.4.6-1.3m.75 4.7q.1-.3.65-.25l.3.9-.2.6-.3.2q-.35.1-.5-.25v-.85zm.9 2.65.5.8v.6h-.1q-.45-.45-.45-1.45zm1-1.3h.05l.25 1-.1.8h-.15q-.4 0-.4-.55l.05-.4zM77.1 61.25v1.2q-.7-.2-.55-.9l.05-.35zm-72.25-48q.1.75-.6.95v-1.3l.5-.05zM5 15l.2-.6q.4-.05.45.15l.05.25v.6q-.1.25-.35.2l-.2-.15zm-.3 2 .35-.55q0 .65-.3.95H4.7zm-3.15-.4q.35.2.55.75l.2.65q0 .3-.4.55l-.9.95v-.75q.05-1.6.55-2.15m12.8 7.9h.05l.2.6.4 2.1-.4.5-1.2-.3zm9.25.8-.5-.5V23l.1-.1h.2l.2 1.8zm3.15 13.3q-.85-.45-1.05-.45l.3-1.35.1-.4h.05l.6 1.9zM29.4 46v.45l-.6-.6-.25-.35.15-.45.35-.5q.35.35.35 1.45m-3 1.7q.8 0 .8 1.05 0 .65-.55.65-.6 0-1.25-1 0-.65 1-.7m-6.1-12.35.1.05v1.2l-.35.3v-.4l.15-1.15zM18.2 51.7q.65 0 .65.45-.4.65-.8.65t-.4-.45q0-.65.55-.65"/><path fill="#eefeff" d="m108.9 2.3.3 1.1v1l-.45-.3-.25-.3v-1l.3-.5zm-6.45 42.2q.2-.4.35-.4l.45.1v.4l-.25.3-.25.3-.3-.2zm-5.55 1.3.05-.15q.05-.25.45-.3l.2-.15q.35 0 .5.3v.7l-.5.1q-.7-.1-.7-.5m-5.1 15.3-.2.2-.15.2-.2-.1v-.35l.05-.05.2-.2.3.05zm-6.1-.5v1l-.4.7-.5.6v-.7l.7-1.6zm-1.8 5.55v.65l-.25.5-.35.4v-.5l.5-1.05zm3.75.55v-.3q.1-.1.15-.1h.2v.2l-.15.1-.1.15zm.85 5.1v-.65h.1l.45 1.05v.45l-.3-.4zm-7.85-32.3-.3.2v-.65l.2-.75h.05l.2.35v.65zm16.7 36.1.45.35.35.8v.1l-.45.4-.3.1q-.5 0-.5-.65.05-1.1.45-1.1m-11.5-2.4.3.7v.3l-.2-.25-.15-.3v-.45zm5.55 3.75q.05-.75.3-.75l.3.25.25.5v.1l-.3.25-.2.05q-.35 0-.35-.4M81.15 44.9l.35.4v.5l-.3.2-.25-.3-.25-.3V45zm-.05 16.5-.45.3-.35-.05v-.45q.1-.2.35-.2l.1.1q.3 0 .3.2zm-8.2 7.65q0 .95-.7.95l-.45-.1-.75-.6v-.15q0-.65.6-1.25l.3-.3q.2-.2.35-.2l.35.2q.25.35.3 1.45m7.95-2.35-.3.2-.25-.05v-.3l.25-.15.05.1q.2 0 .2.1zM0 13.05v-.1q.05-.2.35-.2l.1-.1q.25 0 .35.2v.5l-.35.05Q0 13.35 0 13.05m4.15-1.2.3.1v.25l-.2.2-.15.25-.2-.15v-.35zM12.4 24.4l.4-.65.45-.45.2.15.25.05V25h-.6l-.7-.1zm14.15 12.3v-1h.2l.1-.1.3.3.3.4v.35l-.5.05zm1.55 7.5V46l-1.2.6v-1.4zm-11 4.05q.35.05.65.35l.25.45.1.45.05.3v.55l-.15.25-.45.15h-.05l-.5-.05-.2-.6.15-1.05z"/><path fill="#fff" d="m74.6 70.5.2.7-.15.35-.75.4-.15-1.45.6-.8q-.05.25.25.8m3.75-3.2h.3l-.1.45zm-.7 3.5-.3.15-.25-.2-.25-.2v-.25l.45-.05.35.25zM77 73.6h.05l.25.65-.1.5h-.15q-.4 0-.4-.35l.05-.25zm-1.9-.9q.1-.2.65-.15l.3.6-.2.35-.3.15-.5-.15v-.55zm.9 1.7.5.55v.35h-.1q-.45-.25-.45-.9z"/><path fill="#defdff" d="m96.95 29.2.25-.5h.1l.2.5.25.75.05.65q0 .8-.6.8H97l-.2-1.2zm8.8 14.05q.6.9.6 1.3l-.15 2.25-.75-.65-.15-.55.2-1.05zm-2.3 7.3q0 .55-.4.55h-.15l-.1-.8q0-.65.25-1h.05l.3.85zM6.2 11.25l.4.95-.1 1.55-.5-.45-.1-.4.1-.7q.25-.6.2-.95M4.55 16.1l.05.3q0 .4-.3.4h-.1l-.05-.6.15-.7h.05z"/></g><use ffdec:characterId="3" xlink:href="#d" id="b" width="117.7" height="99.6"/></defs></svg>