<svg xmlns="http://www.w3.org/2000/svg" xmlns:ffdec="https://www.free-decompiler.com/flash" xmlns:xlink="http://www.w3.org/1999/xlink" ffdec:objectType="frame" width="33.05" height="27.7"><use ffdec:characterId="1" xlink:href="#a" width="33.05" height="27.7"/><defs><radialGradient id="b" cx="0" cy="0" r="819.2" gradientTransform="translate(24.25 38.9)scale(.0102)" gradientUnits="userSpaceOnUse" spreadMethod="pad"><stop offset=".329" stop-color="#3d3d8d"/><stop offset="1" stop-color="#ce73e0"/></radialGradient><radialGradient id="c" cx="0" cy="0" r="819.2" gradientTransform="translate(17.4 37.3)scale(.0023)" gradientUnits="userSpaceOnUse" spreadMethod="pad"><stop offset="0" stop-color="#4b4ba1"/><stop offset=".525" stop-color="#a6a6cd"/><stop offset="1" stop-color="#4b4ba1"/></radialGradient><radialGradient id="d" cx="0" cy="0" r="819.2" gradientTransform="translate(22.1 35.8)scale(.003)" gradientUnits="userSpaceOnUse" spreadMethod="pad"><stop offset="0" stop-color="#4b4ba1"/><stop offset=".525" stop-color="#a6a6cd"/><stop offset="1" stop-color="#4b4ba1"/></radialGradient><radialGradient id="e" cx="0" cy="0" r="819.2" gradientTransform="translate(21.3 29.45)scale(.0098)" gradientUnits="userSpaceOnUse" spreadMethod="pad"><stop offset="0" stop-color="#4b4ba1"/><stop offset="1" stop-color="#1c1c5f"/></radialGradient><radialGradient id="f" cx="0" cy="0" r="819.2" gradientTransform="translate(13.45 32.1)scale(.005)" gradientUnits="userSpaceOnUse" spreadMethod="pad"><stop offset="0" stop-color="#4b4ba1"/><stop offset="1" stop-color="#1c1c5f"/></radialGradient><radialGradient id="g" cx="0" cy="0" r="819.2" fx="-38.4" fy="0" gradientTransform="translate(32.2 48.35)scale(.0123)" gradientUnits="userSpaceOnUse" spreadMethod="pad"><stop offset="0" stop-color="#4b4ba1"/><stop offset="1" stop-color="#1c1c5f"/></radialGradient><radialGradient id="h" cx="0" cy="0" r="819.2" gradientTransform="translate(15.55 34.6)scale(.0033)" gradientUnits="userSpaceOnUse" spreadMethod="pad"><stop offset=".318" stop-color="#a6a6cd"/><stop offset="1" stop-color="#774ba1"/></radialGradient><radialGradient id="i" cx="0" cy="0" r="819.2" gradientTransform="translate(21.7 31.6)scale(.0034)" gradientUnits="userSpaceOnUse" spreadMethod="pad"><stop offset=".318" stop-color="#a6a6cd"/><stop offset="1" stop-color="#774ba1"/></radialGradient><radialGradient id="j" cx="0" cy="0" r="819.2" fx="-38.4" fy="0" gradientTransform="translate(39.8 40.75)scale(.0138)" gradientUnits="userSpaceOnUse" spreadMethod="pad"><stop offset="0" stop-color="#4b4ba1"/><stop offset="1" stop-color="#1c1c5f"/></radialGradient><radialGradient id="k" cx="0" cy="0" r="819.2" gradientTransform="translate(21.7 35.5)scale(.0024)" gradientUnits="userSpaceOnUse" spreadMethod="pad"><stop offset="0" stop-color="#46b2ee"/><stop offset="1" stop-color="#1e41d0"/></radialGradient><radialGradient id="l" cx="0" cy="0" r="819.2" gradientTransform="translate(17.55 36.9)scale(.0016)" gradientUnits="userSpaceOnUse" spreadMethod="pad"><stop offset="0" stop-color="#46b2ee"/><stop offset="1" stop-color="#1e41d0"/></radialGradient><g id="a"><path fill="#4b4ba1" fill-rule="evenodd" d="M7.3 16.25h-.2l-.95-.95-1.1-1.2.65-.5 1 .1 1.3-.1-.8 1.05h.1l-.1.85z"/><path fill="url(#b)" fill-rule="evenodd" d="m31.45 34.85-1.15 2.1q-.6.85-.6 1.45l.3 1.4-.15 1.3-.5 1.25-1.4 2.35h-.15q-.85-.2-2.55-1.85-1.6-1.55-1.9-2.35l-.05-.05.7-.4.9-.55q1.55-1.1 1.5-2h-.2l.15-.2q.3-.45 1.55-1.15 1.7-1.05 3.1-1.3z" transform="translate(-12.55 -27.8)"/><path fill="#ffffc6" fill-rule="evenodd" d="m7.45 14.35-.15.45.45.3.15.15-.75-.2-.25.7h-.05l-.2-.8L6 14.9l.7-.15-.05-.55.4.35zM17.7 7.5l-.15.3.45.3-.5-.15-.2.5h-.05l-.1-.55h-.45l.45-.15V7.4l.3.2zm-1.8 3.25v.05l-.7-.4-.45.45.25-.65-.35-.3.5-.05.15-.5.2.45.5-.1h.2l-.6.4zm-2.75 1.85-.8.25.05.65-.25-.65-.5.05.3-.4-.25-.4.45.15.25-.5.15-.15-.1.75.7.2zm1.95 2.45-.05-.55.4.35.4-.2-.15.45.45.3.15.15-.75-.2-.25.7h-.05l-.2-.8-.65-.05zm-1.95.1-.75-.2-.25.7h-.05l-.2-.8-.65-.05.7-.15-.05-.55.4.35.4-.2-.15.45.45.3zm2.25-2.25-.5-.05.55-.15-.05-.4.35.25.3-.15-.15.35.5.35-.6-.15-.2.55h-.05z"/><path fill="#010131" fill-opacity=".718" fill-rule="evenodd" d="m7.1 14.1-1.6-.35.2-.15 1 .1 1.3-.1-.8 1.05h.1l-.1.85.1.75h-.2l-.35-.35q0-1.55.35-1.8m6.75-4.4h-.2l.15-.2.55-.5-.5 1.05zm1.8-.25L13.7 11.7q-1.8 2.15-1.15 3.2-1.45-1.45-1.75-2.2l-.05-.05.7-.4.9-.55.8-.6z"/><path fill="#003" fill-rule="evenodd" d="m7.3 16.25-.1-.75.1-.85.5-.25h.1q-.3.4-.3 1.15v.1l-.25.55z"/><path fill="#fff" fill-rule="evenodd" d="m5.6 9.3.15.65-.5.5-.75.6.05-.1v-1.3q0-1.15.35-1.15l.6.6zm5.9-.55.2-.05v.05l-3.8.6.4-.2-.1-.65q0-1.4 1.15-1.4.55 0 1.3.75l.7.95z"/><path fill="url(#c)" fill-rule="evenodd" d="m17.1 38.75-.05-.05-.25-2.2h-.15l.35-.15-.25-.4h.05l.5.1.05-.05.5.3h.05l-.1-.35v-.05l.35 1.2-.1-.2-.6-.6q-.35 0-.35 1.15v1.3" transform="translate(-12.55 -27.8)"/><path fill="url(#d)" fill-rule="evenodd" d="m20.7 37.05-.25-.55q-.1-.5.05-.75h-.05l-.35.05.4-.45.5-.5-.5-.3 1.8.15q.4 0 1.25.65v.05h-.3q.55.3.8 1.1v.05l-.15.05-.7-.95q-.75-.75-1.3-.75-1.15 0-1.15 1.4l.1.65z" transform="translate(-12.55 -27.8)"/><path fill="#1c1c5f" fill-rule="evenodd" d="M8.75 22.1q-1.2-4.2-1.45-5.85l.05-.05.25-.55v.7q.15-.3.6-.5 0 .9.15 1.15l.3-.35h.2l.1 1.05.35-.15q-.4 2.05-.55 4.55"/><path fill="url(#e)" fill-rule="evenodd" d="m20.55 41.4-1.3.1-1-.1-.6-.15-1.6-.55h.1l.2-.3h-.5l.1-.15.6-.1v-.1l-1.1-.3 1.1-.1v-.6q-.15-.4-.15-1.85v-.35l-.05-.6v-.6q.05-.75.65-1.5l.2-.25.2-.2.45-.45q.9-.9 1.85-1.15l-.05-.5.4-2.2.4-1.6q3.85 3.3 4 6.1l.4.45.6.85.25.75.1.1.05-.05q.45-.45.75-.45l-.1.4v.1l.65-.5-.8 1.75-.15.2h.2q.05.9-1.5 2l-.9.55-.7.4-.05.05-1.5.6zm-2.4-4.3-.35-1.2v.05l.1.35h-.05l-.5-.3-.05.05-.5-.1h-.05l.25.4-.35.15h.15l.25 2.2.05.05-.05.1.75-.6.5-.5zm2.4-4.4h.55l1.85.65-2.2-3.55-.3 1.7zm3.5 3.85v-.05q-.25-.8-.8-1.1h.3v-.05q-.85-.65-1.25-.65l-1.8-.15.5.3-.5.5-.4.45.35-.05h.05q-.15.25-.05.75l.25.55-.25.1 3.8-.6v-.05z" transform="translate(-12.55 -27.8)"/><path fill="url(#f)" fill-rule="evenodd" d="M16.4 37.2q-1.55-.25-2.45-1.85-.8-1.35-1.4-4.45l2.65 1q2.25.95 2.65 1.35l-.45.45-.2.2-.2.25-1.5-.85-1.4-1q.05.95 1.1 2.8l1.2 1.75z" transform="translate(-12.55 -27.8)"/><path fill="url(#g)" fill-rule="evenodd" d="m34.3 49.55-.2.1-.15.35.15.35.35.15h.25l.5 1.95-.1.25-.65.75-.6.5.45.05.1.45-.1.25-.6.55-5.15.2h-1q-.75-.1-.75-.6l.25-.35.6-.5q.3-.2.55-.3l-.15-.05q-2.75-.6-2.75-2.5 0-.45.3-.95l-.4-.4-.15-.15-.5-.6-.45-.6q-.45-.7-.55-1.15l-.45 1.6-.3 1.1-.5 2.05-.3 1.55q.55.05.9.25.55.3.45.95l-.4.25v.1l-.65.3-.05-.15v-.15l-.05.1h-.1v.1H22l-.6-.2q-.3-.25-.3-.55l.2-4.7q.15-2.5.55-4.55l-.35.15-.1-1.05h-.2l-.3.35q-.15-.25-.15-1.15-.45.2-.6.5v-.8q0-.75.3-1.15h-.1l-.5.25h-.1l.8-1.05 1.2-.3 1.5-.6h.1q.3.8 1.9 2.35 1.7 1.65 2.55 1.85l1 .75 3.95 2.1q.75.3 1.55 2" transform="translate(-12.55 -27.8)"/><path fill="#0a0a3a" fill-rule="evenodd" d="m14.5 26.7-.85.1L12 27h-.9l.45-.6q.05-.35.7-.6l.85-.2-1.5-1.3q.05 2.4-.8 2.7.1-.65-.45-.95l-.2-1.05-.4-.75.5-2.05.5.75-.05-.4q0-.6.25-.9t1.05-.4l.5.6.15.15.4.4q-.3.5-.3.95 0 1.9 2.75 2.5l.15.05q-.25.1-.55.3zm-1.4-1.1h.05z"/><path fill="url(#h)" fill-rule="evenodd" d="M17 34.15q-.6.75-.65 1.5v.6l.05.6-1.2-1.75q-1.05-1.85-1.1-2.8l1.4 1z" transform="translate(-12.55 -27.8)"/><path fill="url(#i)" fill-rule="evenodd" d="m20.55 32.7-.1-1.2.3-1.7 2.2 3.55-1.85-.65z" transform="translate(-12.55 -27.8)"/><path fill="url(#j)" fill-rule="evenodd" d="m34.3 49.55.15-.05h.25q1.55 0 3.15-.9v.05Q40 47.4 40 45.25q-.05-1.2-1.8-3.2-2.1-2.45-2.1-4.5 0-2.4 1-4.1 1.35-2.5 4.25-2.5 1.5 0 2.65.7 1.6.85 1.6 2.65l-.25 1.2-.3.25-.35-.05-.25-.3v-.35l.15-.75q0-1.2-1.1-1.8-.95-.55-2.15-.55-2.3 0-3.4 2-.85 1.5-.85 3.6 0 1.75 1.85 3.85 2.1 2.35 2.05 3.85 0 2.75-2.65 4.25-1.9 1-3.65 1h-.25l-.35-.15-.15-.35.15-.35z" transform="translate(-12.55 -27.8)"/><path fill="#0a0a3a" fill-rule="evenodd" d="m7.45 16.25.1-.35.25.15.35.25.45 4.45q-1.15-3.2-1.15-4.5m4.35-.2.3 1.45-.3 1.2q-.4.65-.8.55zm8.7 9.75-3.95.5q-1.25.15-2.05.45h-.05q.15-.4 1.1-.8l4.6-.15z"/><path fill="url(#k)" fill-rule="evenodd" d="M21.5 36.15v.05l.35.5.55.1.4-.4-.05-.7-.45-.5-.5-.05-.2.1h-.1l-.35.1-.05.15.1-.4.7-.2q.55 0 1.3.75l.15.2.1.65v.35l-1.75.25-.2-.2q-.45-.45-.45-1.1l.1.2z" transform="translate(-12.55 -27.8)"/><path fill="url(#l)" fill-rule="evenodd" d="M17.15 36.95q.05-.65.3-.65l.2.05.4.55.05.1v.05l-.25-.25-.35-.1-.25.2zm1 .7v.3l-.35.3-.25.25-.3-.45-.15-.25v-.5l.15.1v.05l.25.35.4.15z" transform="translate(-12.55 -27.8)"/><path fill="#191977" fill-opacity=".98" fill-rule="evenodd" d="m5.55 9.25.05.1v.5l-.25.3-.4-.15-.25-.35V9.6h.05l.15-.1.1-.15-.1-.2-.15-.05H4.7l.25-.2.35.1zm3.5-1.8.2-.1.5.05.45.5.05.7-.4.4-.55-.1-.35-.5v-.05l.3-.15.15-.3-.15-.35z"/><path fill="#fff" fill-opacity=".98" fill-rule="evenodd" d="m4.55 9.5-.05-.15.05-.2h.05l.1-.05h.05l.15.05.1.2-.1.15-.15.1H4.7zm4.5-2.05.2.1.15.35-.15.3-.3.15-.35-.15-.1-.2v-.1l.05-.2.05-.15.35-.1z"/><path fill="#a6a6cd" fill-rule="evenodd" d="M7.45 9.9h.05q-.35.1-.8.85l-.55-.35q.05-.15.6-.35z"/><path fill="none" stroke="#a6a6cd" stroke-linecap="round" stroke-linejoin="round" stroke-opacity=".98" stroke-width=".1" d="m7.95 11.55-1-.05-.4.45M5.15 12.6q-.95.2-2.25 1.45-1.4 1.35-1.05 2.15m3.15-4q-1.15.1-2.75 1.25-1.6 1.1-1.6 1.95m4.25-3.7h-.45q-1.3-.15-2.85.8-1.5.95-1.5 1.8m9.75-3.25 5.3.55 2.9.6M9.9 10.65l1.45-.25 3.2-.3 4.65.45m-9.3-.3q2-1.4 8.45-1.4M9.45 26.8l.25.5m.45-.6.3.3v.3m3.95-.15.4-.4.6-.1m-.6 1 .3-.45q.3-.2.6-.25"/></g></defs></svg>