<?xml version="1.0" encoding="UTF-8" standalone="no"?>
<svg xmlns:ffdec="https://www.free-decompiler.com/flash" xmlns:xlink="http://www.w3.org/1999/xlink" ffdec:objectType="frame" height="42.9px" width="46.45px" xmlns="http://www.w3.org/2000/svg">
  <g transform="matrix(1.0, 0.0, 0.0, 1.0, 44.05, 2.05)">
    <use ffdec:characterId="1" height="42.9" transform="matrix(1.0, 0.0, 0.0, 1.0, -44.05, -2.05)" width="46.45" xlink:href="#shape0"/>
  </g>
  <defs>
    <g id="shape0" transform="matrix(1.0, 0.0, 0.0, 1.0, 44.05, 2.05)">
      <path d="M-11.55 6.9 L-11.4 7.55 -11.3 8.3 -10.95 11.65 -10.95 13.0 -11.05 15.0 -11.2 16.9 Q-11.2 19.15 -12.65 21.3 -14.6 19.1 -14.6 12.55 -14.6 9.65 -14.0 6.9 L-13.4 4.05 -13.35 4.05 -12.95 2.7 Q-12.3 3.15 -11.75 5.6 L-11.55 6.9" fill="#cfeff0" fill-rule="evenodd" stroke="none"/>
      <path d="M-27.25 24.45 L-25.8 24.7 Q-25.15 24.9 -24.3 25.55 -27.6 31.3 -33.05 31.3 L-34.3 31.3 Q-33.65 29.65 -32.1 27.8 -30.15 25.6 -28.55 24.85 L-28.3 24.8 -27.9 24.8 -27.85 24.65 -27.7 24.45 -27.55 24.45 -27.25 24.45" fill="url(#gradient0)" fill-rule="evenodd" stroke="none"/>
      <path d="M-30.25 22.35 L-35.45 21.0 Q-39.3 19.95 -44.05 11.45 -38.0 11.45 -34.85 12.35 -31.75 13.3 -26.75 16.95 -21.8 20.55 -24.7 18.6 L-25.7 17.9 -24.5 18.9 Q-21.15 21.85 -20.45 23.2 -22.4 22.5 -25.65 22.55 L-30.25 22.35 M-22.2 21.9 L-21.45 22.15 -21.55 22.05 -22.2 21.9" fill="url(#gradient1)" fill-rule="evenodd" stroke="none"/>
      <path d="M-16.2 10.1 L-17.9 10.45 -21.2 10.85 -25.5 10.45 Q-26.25 10.45 -26.65 11.65 -27.05 12.75 -27.05 14.25 L-26.65 16.85 Q-26.2 16.35 -25.65 16.35 -25.3 16.35 -25.35 18.45 -25.5 20.55 -25.3 18.85 -25.15 17.15 -24.45 16.4 -23.8 15.65 -22.05 15.1 -20.35 14.5 -20.3 13.85 L-19.95 14.05 -19.45 14.3 -19.35 14.3 -19.05 14.4 -15.8 14.45 Q-14.75 14.5 -13.95 13.95 L-13.4 13.4 -12.65 13.15 Q-12.3 12.9 -12.3 12.1 -12.3 11.65 -14.2 10.85 L-16.2 10.1 M-11.75 11.9 Q-12.6 13.0 -12.3 14.6 -12.1 16.15 -11.9 16.35 -10.95 18.05 -12.95 19.6 -15.05 21.2 -16.9 21.35 L-20.5 21.35 Q-22.3 21.2 -23.55 20.65 L-25.1 19.95 -24.5 21.35 Q-24.5 21.8 -24.8 21.8 -25.8 21.8 -26.6 20.35 -27.55 18.75 -28.6 18.4 -30.1 17.95 -31.1 16.95 L-32.25 15.7 -32.25 15.3 -31.6 15.25 -31.3 15.3 -30.7 15.1 -29.9 15.0 Q-30.45 13.45 -30.45 11.15 L-30.25 9.25 Q-27.75 7.35 -24.95 5.95 -20.15 5.2 -15.2 5.8 -13.0 7.15 -11.15 8.8 L-10.95 10.3 -10.9 10.65 -11.75 11.9 M-30.4 16.05 L-30.9 16.05 Q-29.85 16.35 -29.1 16.85 -28.25 17.45 -27.45 17.65 L-26.85 17.65 -27.35 16.75 -27.7 16.65 -28.05 16.55 -30.4 16.05" fill="#ffecdb" fill-rule="evenodd" stroke="none"/>
      <path d="M-16.2 10.1 L-14.2 10.85 Q-12.3 11.65 -12.3 12.1 -12.3 12.9 -12.65 13.15 L-13.4 13.4 -13.95 13.95 Q-14.75 14.5 -15.8 14.45 L-19.05 14.4 -19.35 14.3 -19.45 14.3 -19.95 14.05 -20.3 13.85 Q-20.35 14.5 -22.05 15.1 -23.8 15.65 -24.45 16.4 -25.15 17.15 -25.3 18.85 -25.5 20.55 -25.35 18.45 -25.3 16.35 -25.65 16.35 -26.2 16.35 -26.65 16.85 L-27.05 14.25 Q-27.05 12.75 -26.65 11.65 -26.25 10.45 -25.5 10.45 L-21.2 10.85 -17.9 10.45 -16.2 10.1 M-30.4 16.05 L-28.05 16.55 -27.7 16.65 -27.35 16.75 -26.85 17.65 -27.45 17.65 Q-28.25 17.45 -29.1 16.85 -29.85 16.35 -30.9 16.05 L-30.4 16.05" fill="#e9caad" fill-rule="evenodd" stroke="none"/>
      <path d="M-13.75 18.2 L-13.8 18.25 -13.85 18.35 -14.2 18.6 -14.25 18.65 -14.6 18.8 -14.65 18.8 -16.3 18.85 -16.3 18.8 -16.35 18.75 -16.3 18.65 -16.25 18.6 -16.2 18.6 -16.0 18.6 -15.95 18.6 -15.9 18.65 -15.85 18.7 -14.4 18.4 -14.35 18.4 -14.3 18.35 -14.0 18.2 -13.95 18.15 -13.85 18.15 -13.75 18.2" fill="#c67171" fill-rule="evenodd" stroke="none"/>
      <path d="M-19.4 14.1 Q-18.8 14.05 -18.6 14.75 L-18.45 16.1 Q-18.4 17.15 -18.85 17.95 -19.35 18.95 -20.2 19.0 -20.95 19.0 -21.6 18.35 -22.35 17.6 -22.35 16.3 L-22.35 16.2 Q-20.65 14.15 -19.4 14.1 M-13.85 14.0 L-13.75 14.05 Q-13.35 13.25 -12.95 13.25 -12.45 13.25 -12.45 14.65 -12.45 17.0 -12.95 17.0 -13.35 17.0 -13.5 16.15 L-13.85 14.0" fill="#e5d0c3" fill-rule="evenodd" stroke="none"/>
      <path d="M-12.9 17.0 L-12.2 17.0 -11.85 17.15 -11.8 17.3 -11.75 17.45 -11.8 17.8 -12.2 18.6 -12.45 18.55 Q-13.55 18.45 -13.7 18.1 -13.8 17.75 -13.25 17.2 L-12.9 17.0 M-10.3 18.15 L-9.85 17.7 -9.95 17.4 -10.65 16.65 -10.7 16.6 -11.05 16.1 -10.0 15.95 Q-9.25 15.9 -9.1 16.3 -8.95 16.65 -8.95 17.4 -8.9 18.2 -10.1 18.4 L-10.3 18.45 -10.3 18.15" fill="url(#gradient2)" fill-rule="evenodd" stroke="none"/>
      <path d="M-19.35 20.7 L-21.65 20.4 Q-22.7 20.05 -22.75 19.7 -22.85 19.35 -22.15 18.9 -21.5 18.5 -20.5 18.3 -19.45 18.15 -18.75 18.3 L-17.85 18.8 -17.95 20.0 Q-18.1 20.7 -19.35 20.7" fill="url(#gradient3)" fill-rule="evenodd" stroke="none"/>
      <path d="M-20.2 2.5 L-20.0 2.25 -19.75 2.25 -19.95 2.15 -19.5 1.55 Q-18.0 -0.15 -15.9 -1.1 -14.0 -2.05 -12.5 -2.05 -11.1 -2.05 -10.35 -1.4 L-10.4 -1.25 -10.45 -1.05 Q-10.55 -0.8 -11.3 -0.8 L-10.7 0.2 -9.95 1.4 Q-9.45 2.5 -9.45 3.55 L-9.5 4.2 -10.0 4.95 Q-9.7 4.4 -9.7 3.7 -9.7 1.9 -10.9 0.4 -12.0 -0.95 -13.25 -0.95 -15.8 -0.95 -18.2 0.8 L-19.75 2.25 -21.15 4.35 -20.2 2.5 M-7.7 22.1 L-8.05 22.15 -8.05 22.05 -7.7 22.1 M-23.2 14.45 L-23.4 14.5 -24.0 14.65 -24.3 13.45 -24.4 12.35 Q-24.4 11.45 -24.0 10.45 L-24.1 11.1 -23.75 13.0 -23.2 14.45 M-27.35 23.5 L-27.45 23.55 Q-27.8 23.6 -28.15 23.85 L-28.35 24.05 Q-27.9 24.6 -28.9 24.4 L-30.7 23.9 Q-31.55 23.55 -32.25 22.4 L-32.4 21.25 Q-32.4 19.1 -31.15 16.95 L-31.45 18.0 -31.6 18.95 Q-31.6 23.3 -27.35 23.5 M-31.45 15.1 L-31.45 14.2 -31.4 13.35 Q-31.3 11.05 -30.9 9.65 L-30.6 8.85 -29.85 7.15 -29.4 6.55 Q-28.2 5.1 -26.6 4.1 -25.0 3.1 -23.0 2.6 -24.45 3.25 -25.35 4.3 L-27.1 5.4 -27.3 5.6 -28.55 6.95 -29.4 8.65 -29.55 9.25 -30.7 11.85 -31.25 14.1 -31.45 15.1 M-12.05 6.0 L-10.95 8.25 Q-10.0 10.55 -10.0 12.0 L-10.05 12.35 -10.6 12.4 -10.45 12.6 -10.65 12.45 -11.1 12.6 -11.1 12.55 Q-10.95 11.9 -10.95 10.85 -10.95 9.4 -11.5 7.7 L-12.05 6.0 M-10.7 24.1 L-10.75 24.15 -10.85 25.35 -10.4 27.5 -9.55 29.35 -9.0 26.55 -8.9 26.5 -8.1 28.4 -7.5 29.2 -8.6 29.65 -11.75 30.55 Q-12.5 29.0 -12.5 26.7 L-12.15 24.45 -11.85 23.35 -11.8 23.3 Q-11.65 24.1 -10.8 24.1 L-10.7 24.1 M-6.9 26.45 L-6.9 26.05 -7.35 25.25 Q-8.0 24.05 -8.65 23.5 L-8.45 23.35 Q-5.65 26.4 -5.65 28.15 L-6.25 27.2 -6.5 26.9 -6.9 26.45 M-8.7 23.55 L-8.9 23.7 -8.9 23.65 -8.7 23.55 M-26.15 5.3 L-26.6 6.25 -26.75 6.75 Q-27.2 6.95 -28.0 8.25 L-28.75 9.45 -29.5 10.9 -28.45 8.05 -27.8 7.0 -26.6 5.7 -26.15 5.3 M-21.6 24.9 L-21.25 24.9 Q-20.1 24.95 -19.1 26.3 -18.1 27.75 -18.15 29.55 L-18.15 31.1 -18.45 30.9 -18.55 30.75 -18.5 30.7 -18.65 30.55 Q-18.8 29.1 -19.4 27.75 -20.3 25.65 -21.6 24.9 M-21.75 32.5 L-22.1 32.5 -22.9 32.65 -23.55 32.25 -24.85 30.9 -25.3 31.6 -25.35 31.9 -25.5 32.25 Q-25.85 33.15 -25.8 33.6 L-26.2 32.7 -26.3 32.55 -26.6 30.5 Q-26.6 29.15 -26.15 28.0 L-26.0 27.75 Q-25.95 26.7 -25.25 25.85 L-24.65 25.35 -24.45 25.1 -23.85 25.1 -23.25 25.7 -22.85 26.05 Q-22.55 26.65 -22.55 28.15 -22.55 28.95 -22.9 30.45 L-23.2 32.2 -22.7 31.85 -22.1 31.2 -21.8 31.2 -21.75 32.5" fill="#f0c065" fill-rule="evenodd" stroke="none"/>
      <path d="M-7.5 29.2 L-8.1 28.4 -8.9 26.5 -9.0 26.55 -9.55 29.35 -10.4 27.5 -10.85 25.35 -10.75 24.15 -10.7 24.1 Q-10.4 22.25 -8.9 23.65 L-8.9 23.7 -8.7 23.55 -8.65 23.5 Q-8.0 24.05 -7.35 25.25 L-6.9 26.05 -6.9 26.45 -6.75 27.1 -6.6 27.95 -6.6 28.35 -7.5 29.2 M-8.45 23.35 L-8.1 22.75 -8.05 22.55 -7.85 22.7 Q-6.55 23.3 -5.65 24.65 -4.8 25.9 -4.6 26.95 L-5.1 27.55 -5.65 28.15 Q-5.65 26.4 -8.45 23.35 M-18.65 30.55 L-18.65 30.9 -19.75 31.8 -19.8 31.85 Q-19.95 31.9 -20.15 32.05 L-21.75 32.5 -21.8 31.2 -22.1 31.2 -22.7 31.85 -23.2 32.2 -22.9 30.45 Q-22.55 28.95 -22.55 28.15 -22.55 26.65 -22.85 26.05 L-23.25 25.7 -23.85 25.1 -22.65 24.9 -22.1 24.7 -21.6 24.9 Q-20.3 25.65 -19.4 27.75 -18.8 29.1 -18.65 30.55" fill="#f7d9b3" fill-rule="evenodd" stroke="none"/>
      <path d="M-6.05 21.0 L-6.55 21.45 -7.7 22.1 -8.05 22.05 Q-8.2 21.3 -8.95 20.95 L-8.65 20.55 Q-8.4 19.85 -8.4 18.6 -8.4 16.95 -9.15 15.1 L-9.85 13.6 -10.0 13.4 -10.25 13.0 -10.4 12.75 -10.2 12.95 Q-6.05 18.65 -6.05 20.9 L-6.05 21.0 M-10.0 20.6 Q-10.8 20.6 -11.05 20.9 L-11.1 20.85 -12.1 20.65 -12.45 20.75 -12.7 20.65 Q-13.2 20.65 -13.5 21.15 L-13.65 21.4 -13.7 21.65 -13.75 21.85 -14.05 21.65 -14.7 20.7 -13.0 19.6 Q-11.65 18.75 -11.65 17.55 -11.65 17.0 -12.0 15.6 L-12.3 12.75 -11.6 14.95 Q-11.15 16.7 -11.15 18.2 -11.15 19.8 -11.65 20.6 L-10.95 20.2 -10.3 19.6 -10.25 19.55 -10.0 20.6 M-13.45 12.85 L-13.75 12.85 -13.75 10.8 -13.45 12.85 M-15.75 13.0 L-16.25 13.15 -16.15 11.85 -16.25 10.05 -15.95 11.4 -15.75 13.0 M-19.35 13.65 L-19.75 13.75 -19.9 12.55 -20.1 11.25 -19.75 12.3 -19.35 13.65 M-27.45 23.55 L-28.05 24.1 -28.35 24.05 -28.15 23.85 Q-27.8 23.6 -27.45 23.55" fill="#d4a54c" fill-rule="evenodd" stroke="none"/>
      <path d="M-10.35 -1.4 L-9.85 -0.85 Q-9.1 0.25 -9.0 1.45 -8.95 2.6 -9.2 3.5 L-9.5 4.2 -9.45 3.55 Q-9.45 2.5 -9.95 1.4 L-10.7 0.2 -11.3 -0.8 Q-10.55 -0.8 -10.45 -1.05 L-10.4 -1.25 -10.35 -1.4 M-22.35 21.05 L-21.55 21.2 -20.6 21.3 -18.8 21.4 -18.8 22.55 Q-18.9 23.55 -19.45 23.55 L-20.1 23.35 -20.75 23.1 -20.9 23.0 -20.4 23.0 -19.5 22.95 -21.25 22.25 -22.35 21.05" fill="#bd8b2d" fill-rule="evenodd" stroke="none"/>
      <path d="M-12.3 5.4 L-12.0 5.7 -10.7 7.8 Q-9.9 9.3 -9.55 11.25 L-9.4 11.8 -9.4 12.25 -9.7 12.2 -10.0 12.35 -10.05 12.35 -10.0 12.0 Q-10.0 10.55 -10.95 8.25 L-12.05 6.0 -12.0 5.75 -12.3 5.4" fill="url(#gradient4)" fill-rule="evenodd" stroke="none"/>
      <path d="M-9.7 12.2 L-7.1 16.6 Q-5.6 19.25 -5.6 19.85 -5.6 20.4 -6.05 21.0 L-6.05 20.9 Q-6.05 18.65 -10.2 12.95 L-10.4 12.75 -10.25 13.0 -10.0 13.4 -9.85 13.6 -9.15 15.1 Q-8.4 16.95 -8.4 18.6 -8.4 19.85 -8.65 20.55 L-8.95 20.95 -9.15 21.15 -9.75 21.6 -10.1 21.85 -9.95 21.05 -10.0 20.6 -10.25 19.55 -10.3 19.6 -10.95 20.2 -11.65 20.6 Q-11.15 19.8 -11.15 18.2 -11.15 16.7 -11.6 14.95 L-12.3 12.75 -12.1 12.75 -11.1 12.6 -10.65 12.45 -10.45 12.6 -10.6 12.4 -10.05 12.35 -10.0 12.35 -9.7 12.2" fill="url(#gradient5)" fill-rule="evenodd" stroke="none"/>
      <path d="M-19.75 2.25 L-19.4 2.3 -16.6 2.7 -16.25 2.85 Q-15.35 3.15 -14.6 3.55 -13.55 4.1 -12.8 4.9 L-12.65 5.05 -12.3 5.4 -12.0 5.75 -12.05 6.0 -12.5 6.9 -13.2 5.85 -13.8 5.05 -14.3 4.45 -15.15 3.6 Q-14.55 4.25 -14.0 5.25 -13.35 6.4 -13.0 7.55 L-13.3 7.85 Q-13.75 6.55 -14.55 5.6 -14.1 6.3 -13.75 7.45 L-13.55 8.1 -13.9 8.35 -13.9 8.4 -13.95 8.4 -13.95 8.45 -14.0 8.45 -14.5 8.8 -14.45 8.85 -14.0 8.55 -14.15 8.8 -14.4 9.0 -14.8 9.0 -14.8 8.8 -14.85 8.5 -14.9 8.1 Q-15.2 6.8 -15.8 5.9 L-17.25 4.3 Q-15.85 6.2 -15.65 9.4 L-16.3 9.65 -18.85 10.1 -18.95 9.85 -19.35 8.7 -19.35 10.15 -19.8 10.15 -20.0 9.35 -20.35 7.4 -20.6 10.15 -21.6 10.1 Q-22.1 8.85 -22.1 7.15 L-22.1 6.65 Q-22.0 3.5 -20.9 2.3 L-20.15 2.25 -20.2 2.3 -20.2 2.5 -21.15 4.35 -19.75 2.25" fill="url(#gradient6)" fill-rule="evenodd" stroke="none"/>
      <path d="M-12.3 12.75 L-13.45 12.85 -13.75 10.8 Q-13.8 10.15 -13.4 11.65 -13.25 10.65 -13.4 9.75 L-13.9 8.35 -13.55 8.1 -13.75 7.45 Q-14.1 6.3 -14.55 5.6 -13.75 6.55 -13.3 7.85 L-13.0 7.55 Q-13.35 6.4 -14.0 5.25 -14.55 4.25 -15.15 3.6 L-14.3 4.45 -13.8 5.05 -13.2 5.85 -12.5 6.9 -12.05 6.0 -11.5 7.7 Q-10.95 9.4 -10.95 10.85 -10.95 11.9 -11.1 12.55 L-11.1 12.6 -12.1 12.75 -12.3 12.75 M-14.0 8.55 L-14.45 8.85 -14.5 8.8 -14.0 8.45 -14.0 8.55 M-19.8 10.15 L-20.05 10.15 -20.6 10.15 -20.35 7.4 -20.0 9.35 -19.8 10.15 M-18.85 10.1 L-19.35 10.15 -19.35 8.7 -18.95 9.85 -18.85 10.1 M-25.4 9.1 L-25.55 9.0 -25.4 8.05 -24.85 6.8 -25.25 8.2 -25.4 9.1" fill="url(#gradient7)" fill-rule="evenodd" stroke="none"/>
      <path d="M-13.75 12.85 L-15.3 13.05 Q-15.3 12.1 -15.65 11.2 L-15.65 12.95 -15.75 13.0 -15.95 11.4 -16.25 10.05 -16.15 11.85 -16.25 13.15 -17.3 13.2 -18.4 13.45 -19.35 13.65 -19.75 12.3 -20.1 11.25 -19.9 12.55 -19.75 13.75 -20.95 13.9 -22.15 14.05 -23.2 14.45 -23.75 13.0 -24.1 11.1 -24.0 10.45 Q-24.4 11.45 -24.4 12.35 L-24.3 13.45 -24.0 14.65 Q-24.45 14.85 -24.75 15.15 -25.2 15.5 -25.3 14.0 L-25.35 11.7 -25.35 11.3 -25.4 11.6 -25.55 13.35 -25.2 15.7 -25.25 15.8 -25.2 15.8 -24.25 18.2 Q-23.5 19.75 -22.35 21.05 L-21.25 22.25 -19.5 22.95 -20.4 23.0 -20.9 23.0 -21.4 23.0 -22.0 22.9 -22.1 22.8 Q-22.65 22.25 -23.45 22.25 L-23.65 22.3 -25.1 21.4 -25.25 21.25 -26.3 20.25 -27.1 18.55 -27.25 18.0 -27.75 15.9 -27.95 13.45 Q-27.95 10.95 -27.1 8.4 L-26.75 7.5 -26.8 7.65 Q-26.8 8.3 -25.75 8.9 L-25.55 9.0 -25.4 9.1 -24.85 9.3 -24.45 9.45 -23.65 9.75 -23.1 9.85 -23.1 9.25 Q-23.1 6.8 -22.7 5.3 L-22.5 4.65 Q-22.05 3.4 -21.0 2.3 L-20.9 2.3 Q-22.0 3.5 -22.1 6.65 L-22.1 7.15 Q-22.1 8.85 -21.6 10.1 L-20.6 10.15 -20.05 10.15 -19.8 10.15 -19.35 10.15 -18.85 10.1 -16.3 9.65 -15.65 9.4 Q-15.85 6.2 -17.25 4.3 L-15.8 5.9 Q-15.2 6.8 -14.9 8.1 L-14.85 8.5 -14.8 8.8 -14.8 9.0 -14.4 9.0 -14.15 8.8 -14.0 8.55 -14.0 8.45 -13.95 8.45 -13.95 8.4 -13.9 8.4 -13.9 8.35 -13.4 9.75 Q-13.25 10.65 -13.4 11.65 -13.8 10.15 -13.75 10.8 L-13.75 12.85 M-20.7 22.65 L-20.95 22.5 -20.85 22.6 -20.7 22.65" fill="url(#gradient8)" fill-rule="evenodd" stroke="none"/>
      <path d="M-23.0 2.6 L-22.15 2.4 -21.55 2.35 -21.9 2.7 -22.05 2.85 Q-23.15 3.25 -24.15 4.65 -25.1 6.05 -25.4 8.05 L-25.55 9.0 -25.75 8.9 Q-26.8 8.3 -26.8 7.65 L-26.75 7.5 -27.1 8.4 -26.75 6.75 -26.6 6.25 -26.15 5.3 -25.35 4.3 Q-24.45 3.25 -23.0 2.6" fill="url(#gradient9)" fill-rule="evenodd" stroke="none"/>
      <path d="M-21.55 2.35 L-21.0 2.3 Q-22.05 3.4 -22.5 4.65 L-22.7 5.3 Q-23.1 6.8 -23.1 9.25 L-23.1 9.85 -23.65 9.75 -23.55 8.5 -23.25 6.3 Q-24.15 8.15 -24.45 9.45 L-24.85 9.3 -25.4 9.1 -25.25 8.2 -24.85 6.8 -25.4 8.05 Q-25.1 6.05 -24.15 4.65 -23.15 3.25 -22.05 2.85 L-21.9 2.7 -21.55 2.35" fill="url(#gradient10)" fill-rule="evenodd" stroke="none"/>
      <path d="M-27.75 15.9 L-28.95 15.55 -30.55 15.3 -30.65 15.3 -30.9 15.3 -31.05 15.3 -31.45 15.3 -31.45 15.1 -31.25 14.1 -30.7 11.85 -29.55 9.25 -29.4 8.65 -28.55 6.95 -27.3 5.6 -27.1 5.4 -25.35 4.3 -26.15 5.3 -26.6 5.7 -27.8 7.0 -28.45 8.05 -29.5 10.9 -28.75 9.45 -28.0 8.25 Q-27.2 6.95 -26.75 6.75 L-27.1 8.4 Q-27.95 10.95 -27.95 13.45 L-27.75 15.9" fill="url(#gradient11)" fill-rule="evenodd" stroke="none"/>
      <path d="M-23.65 9.75 L-24.45 9.45 Q-24.15 8.15 -23.25 6.3 L-23.55 8.5 -23.65 9.75" fill="url(#gradient12)" fill-rule="evenodd" stroke="none"/>
      <path d="M-23.65 22.3 L-24.2 22.4 -24.5 22.95 Q-24.8 22.6 -25.5 22.6 -26.3 22.6 -27.35 23.5 -31.6 23.3 -31.6 18.95 L-31.45 18.0 -31.15 16.95 Q-32.4 19.1 -32.4 21.25 L-32.25 22.4 Q-32.6 21.6 -32.6 20.35 -32.6 19.0 -31.9 15.8 L-31.3 16.4 -31.0 16.65 -30.45 17.0 Q-29.05 17.9 -27.25 18.0 L-27.1 18.55 -26.3 20.25 Q-25.8 21.15 -25.1 21.4 L-23.65 22.3" fill="url(#gradient13)" fill-rule="evenodd" stroke="none"/>
      <path d="M-13.95 3.95 Q-12.5 5.1 -11.6 6.45 -10.9 7.5 -10.25 9.25 -13.4 11.35 -17.3 11.6 L-24.1 11.1 Q-27.05 10.4 -27.65 9.95 L-26.9 7.35 -25.8 7.7 -24.5 7.8 -19.15 7.2 Q-15.7 6.35 -14.35 4.75 L-14.05 4.3 -13.95 3.95" fill="url(#gradient14)" fill-rule="evenodd" stroke="none"/>
      <path d="M-19.55 2.5 L-19.6 2.65 Q-18.8 2.8 -18.35 3.25 L-19.6 3.5 -20.8 4.35 -20.8 4.3 -19.55 2.5 M-9.85 11.95 L-10.1 10.25 -10.75 8.35 Q-9.5 10.15 -9.45 12.1 L-10.0 12.4 -9.95 12.35 -9.85 11.95 M-20.15 2.35 L-20.55 2.7 -20.8 3.2 -21.4 2.9 -22.75 2.9 Q-25.35 4.25 -26.75 7.75 L-27.6 10.4 Q-27.15 7.25 -25.95 5.3 -24.6 3.1 -22.45 2.7 L-22.3 2.7 Q-21.65 2.35 -21.25 2.3 L-20.15 2.3 -20.15 2.35 M-20.15 12.05 L-20.1 11.65 -20.1 11.45 -19.9 12.9 -19.1 12.8 -18.4 11.65 -18.1 11.05 -18.1 10.85 -18.05 11.0 -17.8 12.0 -17.75 12.45 -17.7 12.25 -17.45 11.25 -17.4 11.25 -17.35 12.55 -16.7 12.05 -16.45 11.5 -16.25 10.65 -16.2 11.55 -15.95 13.0 -16.95 13.45 -19.45 13.85 -22.85 14.5 -23.3 14.5 -23.8 12.8 -24.05 11.0 -23.9 11.6 -23.7 12.1 -23.35 12.85 -22.85 13.3 -22.4 13.45 -20.6 13.3 -20.6 13.25 -20.55 13.25 -20.4 13.15 Q-20.1 12.95 -20.15 12.45 L-20.15 12.05 M-11.35 10.45 L-11.3 12.1 -11.1 11.5 -10.95 11.0 -11.05 12.4 -12.2 12.7 -12.05 14.8 Q-11.4 16.6 -11.4 17.5 -11.4 18.35 -12.15 19.0 -11.7 18.2 -11.7 17.7 L-12.0 16.55 -12.25 15.4 -12.4 12.8 -14.35 12.95 -15.2 12.95 Q-15.2 12.05 -15.6 10.85 L-14.8 12.5 Q-14.0 12.7 -13.9 11.65 L-14.0 10.15 -14.0 10.1 -13.55 12.45 -13.55 12.5 -11.95 12.15 Q-11.45 11.7 -11.35 10.45 M-27.85 9.35 L-28.15 10.15 -28.4 13.4 -28.35 14.15 -28.7 13.0 -28.9 11.8 -28.95 11.8 -29.45 12.75 -29.75 14.05 -29.75 14.0 -30.1 12.3 -30.5 13.2 -30.7 14.0 Q-30.75 13.05 -30.15 11.3 L-29.85 10.4 -29.4 9.3 -28.1 7.15 -27.75 6.9 Q-28.8 8.3 -29.5 10.5 L-29.65 11.75 -28.6 9.55 -28.9 11.1 -28.95 11.35 -28.9 11.35 -28.9 11.1 -27.85 9.35 M-9.8 23.85 L-9.35 23.8 -9.45 24.65 -9.25 25.9 -9.8 25.1 -10.1 24.15 -10.3 25.85 -10.25 26.55 -10.3 26.65 -9.85 27.95 Q-10.25 27.55 -11.5 27.1 L-11.7 26.55 -12.0 25.8 -12.05 25.6 -12.05 25.4 -12.05 25.05 -11.75 23.15 Q-11.7 23.85 -9.8 23.85 M-6.0 19.1 Q-5.75 19.45 -5.75 20.05 -5.75 20.6 -6.05 20.95 L-6.25 21.3 -7.85 22.15 -8.4 22.15 -7.85 21.9 -7.5 21.6 -7.05 21.05 -6.9 20.4 -6.85 20.0 -6.8 20.6 -6.7 21.05 -6.25 20.25 -6.25 20.0 -6.4 18.6 -6.5 18.0 -6.0 19.1 M-13.75 20.65 L-13.45 21.2 -13.4 21.2 -13.55 21.35 -13.55 21.95 -13.2 21.95 -13.2 22.0 -13.4 22.05 -14.05 21.7 -14.7 20.8 -14.7 20.75 -14.3 20.6 -14.0 20.3 -13.75 20.65 M-10.15 16.9 Q-10.15 16.2 -10.3 15.55 L-9.9 16.8 Q-9.5 18.35 -9.55 19.85 -9.05 19.35 -9.05 17.85 L-9.15 16.95 -8.9 17.6 -8.7 18.8 -8.75 19.4 -9.05 20.5 -9.2 20.8 -10.25 22.2 Q-10.0 21.8 -10.0 21.2 L-10.3 19.4 -10.35 19.4 -10.9 20.1 -11.55 20.65 -11.15 20.0 -10.8 19.4 Q-10.15 18.6 -10.15 16.9 M-25.2 11.85 L-25.1 12.65 -24.95 12.95 -24.75 13.55 Q-24.4 13.45 -24.4 13.05 -24.4 14.3 -23.9 14.65 -24.55 14.9 -25.05 15.35 L-25.05 15.5 -25.25 14.6 -25.4 13.2 -25.4 11.1 Q-25.35 10.15 -25.2 11.85 M-28.85 22.4 Q-30.05 22.05 -30.4 20.6 L-30.45 20.25 -29.95 21.2 -28.85 22.4 M-30.45 20.25 L-30.5 20.0 -30.5 19.9 -30.5 19.2 Q-30.45 19.7 -29.5 20.65 -28.5 21.75 -27.55 21.75 L-27.15 22.4 Q-28.75 22.05 -30.45 20.25 M-27.65 21.6 L-27.9 21.2 -28.15 20.75 -27.9 20.9 -27.65 21.6 M-27.75 21.0 L-27.5 21.15 -26.3 21.4 -26.55 20.8 -26.75 20.1 -26.7 19.75 -25.5 20.8 -24.15 21.85 -24.15 21.9 -24.1 21.9 -24.05 21.95 -23.85 22.05 -23.8 22.05 -23.55 22.15 -23.35 22.2 -22.1 22.5 Q-21.85 22.6 -21.7 22.85 L-22.7 22.5 -23.35 22.45 -23.8 22.6 -24.35 22.85 -25.35 22.9 -23.9 22.6 -25.6 22.25 Q-26.9 21.9 -27.75 21.0 M-27.6 23.65 L-26.75 23.75 -27.7 24.1 -28.3 24.3 -29.9 23.65 Q-31.4 22.95 -31.8 21.4 L-31.75 21.25 Q-31.55 22.25 -29.6 23.05 L-29.4 23.15 -30.6 22.05 -29.0 23.2 -28.55 23.45 -28.4 23.5 -27.65 23.7 -27.6 23.65 M-24.45 25.05 L-23.55 25.15 Q-22.8 25.15 -22.2 24.75 L-21.75 24.4 Q-21.2 24.4 -20.7 24.9 -20.25 25.35 -20.15 25.8 -19.95 26.0 -19.95 27.15 -19.95 28.45 -21.05 29.7 -22.25 31.1 -23.9 31.1 -24.35 31.1 -24.45 30.35 L-24.45 30.2 -24.6 30.45 -25.05 31.15 -25.1 30.85 -24.85 29.55 -24.55 28.4 -24.25 27.45 -24.2 27.75 -24.2 27.25 -24.2 27.15 -24.2 26.8 Q-24.3 25.9 -24.95 25.65 L-24.45 25.05 M-25.75 30.6 L-25.75 31.7 -26.25 32.0 -26.25 31.55 -26.25 31.35 -26.2 31.15 Q-26.05 29.05 -25.5 28.35 L-25.75 30.6" fill="#bd8b2d" fill-rule="evenodd" stroke="none"/>
      <path d="M-28.85 22.4 L-29.95 21.2 -30.45 20.25 Q-28.75 22.05 -27.15 22.4 L-27.55 21.75 -27.5 21.75 -27.65 21.6 -27.9 20.9 -28.15 20.6 -27.75 21.0 Q-26.9 21.9 -25.6 22.25 L-23.9 22.6 -25.35 22.9 Q-27.05 23.0 -27.6 23.65 L-27.65 23.7 -28.4 23.5 -28.55 23.45 -29.0 23.2 -30.6 22.05 -30.7 21.9 -29.55 22.4 -29.45 22.4 -28.7 22.5 -28.65 22.5 -28.4 22.45 -28.85 22.4 M-25.5 20.8 Q-26.15 20.0 -26.25 18.9 L-24.95 20.6 Q-26.1 19.2 -26.05 16.1 L-25.25 18.4 -23.85 20.75 Q-24.75 19.5 -25.2 17.3 L-25.5 14.7 Q-24.4 18.8 -22.7 20.8 L-20.95 22.75 -22.1 22.5 -23.35 22.2 -23.55 22.15 -23.8 22.05 -23.85 22.05 -24.05 21.95 -24.1 21.9 -24.15 21.85 -25.5 20.8" fill="#9f6d11" fill-rule="evenodd" stroke="none"/>
      <path d="M-13.85 14.3 L-14.0 14.5 -14.0 14.55 -14.25 14.85 -14.05 14.0 Q-13.85 13.0 -13.2 13.0 -12.8 13.0 -12.4 13.45 -11.9 14.05 -11.5 14.1 L-11.5 14.15 -11.8 14.15 -12.75 13.75 -12.8 13.65 -12.8 13.7 -12.85 13.65 -12.9 13.6 -13.0 13.55 -13.5 13.9 -13.7 14.05 -13.85 14.3" fill="url(#gradient15)" fill-rule="evenodd" stroke="none"/>
      <path d="M-12.85 13.65 L-12.7 15.15 -12.8 16.6 Q-13.0 17.2 -13.25 17.25 L-13.75 16.6 -13.95 15.25 -13.85 14.3 -13.7 14.05 -13.5 13.9 -13.0 13.55 -12.9 13.6 -12.85 13.65" fill="url(#gradient16)" fill-rule="evenodd" stroke="none"/>
      <path d="M-21.75 15.95 L-21.75 16.0 -23.05 17.2 -23.1 17.2 -23.2 17.25 -23.45 17.4 -23.2 17.0 -22.5 15.8 Q-22.1 15.05 -21.55 14.65 L-20.8 14.05 -20.45 13.95 -19.95 13.85 -19.0 14.05 -17.5 14.65 -18.8 14.5 -19.1 14.6 -19.35 14.65 Q-20.35 14.5 -21.2 15.25 L-21.75 15.95" fill="url(#gradient17)" fill-rule="evenodd" stroke="none"/>
      <path d="M-19.35 14.65 L-19.15 14.65 Q-18.7 15.25 -18.55 16.05 L-18.55 16.1 Q-18.4 17.15 -18.8 17.9 -19.1 18.75 -19.8 18.8 L-20.25 18.85 -21.05 18.35 -21.7 17.0 -21.75 16.7 -21.8 16.1 -21.7 15.95 -21.75 15.95 -21.2 15.25 Q-20.35 14.5 -19.35 14.65" fill="url(#gradient18)" fill-rule="evenodd" stroke="none"/>
      <path d="M-24.35 22.65 L-24.15 23.35 Q-23.8 22.95 -23.5 23.0 L-23.5 22.8 -23.75 22.5 Q-23.75 22.15 -22.95 22.05 -22.55 22.05 -22.35 22.65 L-22.35 23.4 -22.35 23.45 Q-22.25 23.1 -21.95 23.1 L-21.55 23.3 -21.4 23.6 -21.6 24.0 -22.35 24.15 -22.4 24.15 Q-21.8 24.4 -21.8 25.05 L-21.8 25.25 -22.15 25.5 -22.55 25.55 Q-23.15 25.55 -23.2 25.1 L-23.3 25.25 -23.65 25.3 Q-24.4 25.3 -24.5 24.85 L-24.55 25.1 -24.6 25.0 -24.6 25.1 -24.55 25.1 -24.75 25.3 -25.6 25.55 -26.1 25.4 -26.2 24.8 Q-26.3 25.35 -26.5 25.5 L-27.25 25.7 -27.7 25.65 -27.7 25.4 -27.6 25.0 -27.15 24.55 Q-28.05 24.35 -28.05 23.6 L-28.0 23.3 -27.9 23.15 -27.9 23.25 -27.5 23.05 Q-27.1 23.05 -26.75 23.55 -26.45 23.85 -26.45 24.1 L-26.5 23.05 -26.45 22.6 -26.35 22.4 -26.25 22.4 -26.1 22.5 -25.8 23.3 -25.75 22.45 -25.35 22.15 Q-24.9 22.3 -24.7 22.8 L-24.4 22.85 -24.35 22.65 M-10.6 20.4 Q-9.9 20.45 -9.85 21.35 L-9.8 21.7 Q-9.7 21.95 -9.7 21.65 -9.55 20.75 -8.35 20.85 L-8.3 20.9 -8.15 21.15 -8.1 21.45 Q-8.1 21.75 -8.25 21.85 L-8.6 22.25 -8.15 22.15 -7.75 22.3 -7.55 22.45 -7.45 22.8 -7.65 23.15 -7.75 23.3 -8.05 23.35 -8.7 23.25 -9.15 22.5 -9.3 23.2 -9.5 23.55 Q-10.15 23.5 -10.05 22.75 -10.7 23.5 -11.1 23.5 -11.65 23.5 -11.65 23.0 L-11.3 22.35 -12.05 22.25 -12.2 21.8 Q-12.2 21.0 -11.65 21.0 L-11.35 21.05 -11.05 21.4 Q-11.25 21.15 -11.05 20.85 L-10.6 20.4 M-10.35 21.85 L-10.4 21.85 -10.4 21.95 -10.35 21.85" fill="#76d4d7" fill-rule="evenodd" stroke="none"/>
      <path d="M-24.35 22.65 L-24.0 22.05 -22.95 21.8 Q-22.25 21.85 -22.0 22.25 L-21.55 22.7 Q-21.2 22.4 -20.8 22.4 -19.5 22.4 -19.5 24.15 L-19.95 24.65 -20.5 24.9 -20.7 24.9 -21.35 24.75 -21.45 24.55 -21.55 24.55 -21.8 25.25 -21.8 25.05 Q-21.8 24.4 -22.4 24.15 L-22.35 24.15 -21.6 24.0 -21.4 23.6 -21.55 23.3 -21.95 23.1 Q-22.25 23.1 -22.35 23.45 L-22.35 23.4 -22.35 22.65 Q-22.55 22.05 -22.95 22.05 -23.75 22.15 -23.75 22.5 L-23.5 22.8 -23.5 23.0 Q-23.8 22.95 -24.15 23.35 L-24.35 22.65 M-22.15 25.5 L-23.05 25.75 -23.9 25.5 -24.45 25.2 -24.55 25.3 Q-24.75 26.6 -26.2 26.6 L-27.1 26.3 -27.15 26.25 -27.6 25.85 -27.65 25.75 -27.7 25.65 Q-28.3 24.9 -28.3 24.1 L-28.2 23.55 -28.1 23.45 -28.0 23.3 -28.05 23.6 Q-28.05 24.35 -27.15 24.55 L-27.6 25.0 -27.7 25.4 -27.7 25.65 -27.25 25.7 -26.5 25.5 Q-26.3 25.35 -26.2 24.8 L-26.1 25.4 -25.6 25.55 -24.75 25.3 -24.55 25.1 -24.5 24.85 Q-24.4 25.3 -23.65 25.3 L-23.3 25.25 -23.2 25.1 Q-23.15 25.55 -22.55 25.55 L-22.15 25.5 M-27.9 23.15 L-27.8 23.05 -27.7 23.0 Q-27.25 22.65 -26.75 22.65 L-26.5 22.7 -26.45 22.6 -26.5 23.05 -26.45 24.1 Q-26.45 23.85 -26.75 23.55 -27.1 23.05 -27.5 23.05 L-27.9 23.25 -27.9 23.15 M-26.25 22.4 L-25.7 22.1 -25.35 22.15 -25.75 22.45 -25.8 23.3 -26.1 22.5 -26.25 22.4 M-7.75 23.3 L-7.95 23.6 Q-8.1 23.8 -8.4 23.8 L-8.45 23.8 -9.1 23.5 -9.2 23.45 -9.25 23.35 -9.25 23.55 -9.3 23.95 -9.4 24.05 -9.45 24.05 -9.55 24.15 -10.3 24.35 -11.15 24.15 -11.65 23.55 -11.95 24.05 -12.4 24.1 -13.15 23.85 -13.05 22.9 -13.65 22.65 -13.7 22.1 Q-13.7 20.5 -12.2 20.5 L-11.65 20.55 -11.45 20.7 -11.2 20.55 -10.65 20.4 -10.6 20.4 -11.05 20.85 Q-11.25 21.15 -11.05 21.4 L-11.35 21.05 -11.65 21.0 Q-12.2 21.0 -12.2 21.8 L-12.05 22.25 -11.3 22.35 -11.65 23.0 Q-11.65 23.5 -11.1 23.5 -10.7 23.5 -10.05 22.75 -10.15 23.5 -9.5 23.55 L-9.3 23.2 -9.15 22.5 -8.7 23.25 -8.05 23.35 -7.75 23.3 M-9.85 21.35 L-9.6 21.05 Q-9.15 20.65 -8.8 20.7 L-8.35 20.85 Q-9.55 20.75 -9.7 21.65 -9.7 21.95 -9.8 21.7 L-9.85 21.35 M-8.15 21.15 L-8.0 21.5 -7.75 22.3 -8.15 22.15 -8.6 22.25 -8.25 21.85 Q-8.1 21.75 -8.1 21.45 L-8.15 21.15 M-24.45 25.2 L-24.4 25.1 -24.5 25.1 -24.45 25.2" fill="#339b9f" fill-rule="evenodd" stroke="none"/>
      <path d="M-13.65 15.85 L-13.65 15.75 -13.55 15.35 Q-13.5 15.3 -13.4 15.45 L-13.45 15.55 -13.65 15.85 M-13.45 15.95 L-13.45 16.0 -13.35 16.75 -12.95 16.6 -13.05 17.0 -13.35 17.0 -13.6 16.75 -13.6 16.35 -13.45 15.95 M-19.8 18.1 L-19.7 18.1 -19.55 18.1 -19.5 18.1 -19.15 18.05 Q-19.25 18.5 -19.95 18.5 L-20.6 18.35 -21.1 17.8 -20.75 17.55 -20.65 17.6 -20.6 17.6 -20.4 17.95 -19.8 18.1" fill="#dbfff9" fill-opacity="0.29803923" fill-rule="evenodd" stroke="none"/>
      <path d="M-13.45 15.55 L-13.4 15.45 Q-13.5 15.3 -13.55 15.35 L-13.65 15.75 -13.65 15.85 -13.8 16.3 -13.95 14.65 Q-13.85 13.9 -12.9 13.6 -12.55 14.8 -12.7 15.65 L-12.9 15.45 -13.0 16.4 -13.15 16.5 -13.4 16.1 -13.4 16.05 -13.4 15.95 -13.45 15.65 -13.45 15.55 M-19.35 14.75 L-19.15 14.75 Q-18.75 15.1 -18.6 15.85 L-18.55 16.55 -19.25 16.6 -19.35 17.75 -19.45 18.0 -19.5 18.0 -19.65 18.0 -19.8 18.0 Q-20.5 17.9 -20.65 17.3 L-20.65 17.1 -20.65 17.0 -20.85 16.7 -21.15 16.7 -21.15 17.25 -21.1 17.3 -21.0 17.4 -21.2 17.65 -21.25 17.7 -21.35 17.6 -21.5 17.5 -21.75 16.9 -21.85 16.15 -21.6 15.8 -21.2 15.25 -20.75 14.95 -20.45 14.75 -20.3 14.7 -19.75 14.55 -19.35 14.75" fill="#093a33" fill-opacity="0.6" fill-rule="evenodd" stroke="none"/>
      <path d="M-19.2 16.1 L-19.5 15.75 -19.35 15.25 -19.1 15.2 Q-18.8 15.2 -18.8 15.5 -18.8 16.05 -19.2 16.1 M-13.1 14.35 L-12.85 14.1 -12.65 14.4 -12.7 14.75 Q-12.95 14.95 -13.1 14.75 L-13.1 14.35" fill="#ffffff" fill-rule="evenodd" stroke="none"/>
      <path d="M-16.75 21.3 L-16.0 21.2 -15.2 22.4 Q-15.2 22.75 -15.7 23.0 L-16.55 23.3 Q-17.2 23.3 -17.7 22.9 -18.4 22.35 -18.3 21.4 L-16.75 21.3" fill="#e994a0" fill-rule="evenodd" stroke="none"/>
      <path d="M-16.75 21.3 L-18.3 21.4 Q-18.4 22.35 -17.7 22.9 -17.2 23.3 -16.55 23.3 L-15.7 23.0 Q-15.2 22.75 -15.2 22.4 L-16.0 21.2 -16.75 21.3 M-16.0 21.0 Q-15.8 21.0 -15.3 21.85 L-15.25 21.9 -15.2 21.95 -14.55 23.1 Q-13.5 24.3 -13.5 24.95 -13.5 25.3 -14.2 25.5 L-15.2 25.7 -15.85 25.2 Q-16.4 24.7 -16.9 24.7 -17.2 24.7 -17.55 25.0 -17.9 25.35 -17.9 25.8 L-16.95 26.45 -18.05 26.5 -18.15 26.5 -18.4 26.65 -19.15 26.85 -20.5 26.55 -21.55 26.15 -20.55 25.15 -20.55 25.25 -20.05 25.1 -19.4 25.2 -19.35 25.05 -19.05 23.7 Q-18.85 22.85 -18.9 21.75 L-18.8 21.65 -18.8 21.2 -18.75 21.25 -17.65 21.35 -16.0 21.0" fill="#e2e2e2" fill-rule="evenodd" stroke="none"/>
      <path d="M-15.45 21.4 L-15.3 21.4 Q-14.75 21.4 -13.6 22.35 -12.55 23.15 -12.4 23.65 L-12.65 23.55 -13.8 23.25 -15.45 21.4 M-15.65 21.5 L-15.75 21.3 -15.65 21.35 -15.65 21.5 M-16.25 24.15 Q-16.5 23.8 -17.05 23.55 L-18.2 23.35 Q-18.9 23.35 -19.5 24.15 -20.05 24.95 -20.05 25.65 L-19.95 26.15 Q-20.8 25.7 -20.8 24.15 L-20.55 22.25 -20.35 21.95 -19.3 21.7 Q-18.55 21.7 -17.4 22.7 -16.45 23.5 -16.25 24.15 M-17.75 26.0 L-17.85 25.95 -17.6 25.25 -17.2 24.8 -16.25 24.8 -17.2 25.65 -17.75 26.0" fill="#e994a0" fill-rule="evenodd" stroke="none"/>
      <path d="M-12.4 23.65 L-12.4 23.8 Q-12.4 24.2 -12.95 24.45 L-13.75 24.65 Q-14.15 24.65 -15.65 21.5 L-15.65 21.35 -15.45 21.4 -13.8 23.25 -12.65 23.55 -12.4 23.65" fill="#d77684" fill-rule="evenodd" stroke="none"/>
      <path d="M-19.95 26.15 L-20.05 25.65 Q-20.05 24.95 -19.5 24.15 -18.9 23.35 -18.2 23.35 L-17.05 23.55 Q-16.5 23.8 -16.25 24.15 L-16.15 24.3 -16.1 24.95 -16.25 24.8 -17.2 24.8 -17.6 25.25 -17.85 25.95 -17.75 26.0 -17.7 26.05 -18.2 26.3 -19.05 26.5 -19.6 26.5 -20.65 29.35 Q-21.15 31.5 -21.15 34.8 L-24.05 34.15 Q-23.7 32.7 -23.0 31.35 -21.7 28.85 -20.5 27.25 L-19.8 26.45 -19.9 26.4 -19.95 26.3 -19.95 26.15 M-8.05 31.85 L-9.4 32.7 -10.4 30.6 Q-11.75 27.6 -12.65 26.35 L-10.25 29.05 -8.05 31.85 M-12.65 34.1 L-16.1 34.9 Q-16.55 33.3 -16.6 30.65 L-16.4 26.55 Q-16.15 28.3 -14.1 31.75 L-12.65 34.1" fill="#e07f8d" fill-rule="evenodd" stroke="none"/>
      <path d="M-19.95 26.3 L-19.9 26.4 -19.8 26.45 -20.5 27.25 Q-21.7 28.85 -23.0 31.35 -23.7 32.7 -24.05 34.15 -25.75 33.6 -26.8 32.65 L-24.9 29.3 Q-23.1 26.5 -21.1 25.8 -20.7 26.2 -20.05 26.3 L-19.95 26.3" fill="url(#gradient19)" fill-rule="evenodd" stroke="none"/>
      <path d="M-21.15 34.8 Q-21.15 31.5 -20.65 29.35 L-19.6 26.5 -19.05 26.5 -18.2 26.3 -16.45 26.1 -15.85 25.9 -13.2 24.85 Q-11.7 25.5 -9.15 27.55 -7.0 29.2 -6.25 30.4 L-8.05 31.85 -10.25 29.05 -12.65 26.35 Q-11.75 27.6 -10.4 30.6 L-9.4 32.7 -11.0 33.45 -12.65 34.1 -14.1 31.75 Q-16.15 28.3 -16.4 26.55 L-16.6 30.65 Q-16.55 33.3 -16.1 34.9 L-17.7 34.95 -21.15 34.8" fill="url(#gradient20)" fill-rule="evenodd" stroke="none"/>
      <path d="M-16.25 24.8 L-17.2 25.65 -17.75 26.0" fill="none" stroke="#ff0000" stroke-linecap="round" stroke-linejoin="round" stroke-width="0.1"/>
      <path d="M-13.75 25.0 L-13.15 24.45 -12.4 24.85 Q-11.75 25.35 -11.65 26.35 L-11.65 26.45 -11.65 26.55 Q-11.65 27.55 -12.05 28.15 L-12.5 28.7 -12.6 28.8 -12.5 30.0 -12.55 30.8 -12.8 30.8 Q-13.2 30.8 -13.55 30.4 L-13.85 29.95 Q-13.85 30.65 -14.0 30.85 -14.25 31.3 -15.3 31.3 -16.75 31.3 -16.75 30.2 L-16.65 29.55 -17.35 30.5 Q-17.7 30.9 -18.2 30.9 L-19.4 30.55 Q-20.35 30.05 -20.35 29.4 -20.35 28.95 -19.9 28.45 L-19.3 27.85 -19.25 27.75 -19.3 27.8 -20.2 27.95 Q-21.55 27.95 -21.55 27.15 -21.55 26.1 -21.0 26.1 L-19.9 26.4 -19.95 26.4 -19.75 26.45 -18.1 26.15 -16.45 25.55 -15.75 25.4 -14.5 25.2 -13.75 25.0 M-12.4 25.1 Q-12.65 24.75 -13.0 24.75 -13.55 24.75 -13.7 25.35 L-13.9 25.95 -13.9 25.1 -14.7 25.65 -14.65 25.5 Q-15.0 25.95 -18.2 26.55 -17.55 27.05 -16.4 27.05 L-15.15 26.95 -13.9 26.05 -14.55 27.05 Q-15.0 27.75 -16.15 28.1 L-17.6 28.4 -15.35 28.7 Q-13.85 28.7 -12.95 27.85 -12.15 27.15 -12.15 26.05 -12.15 25.5 -12.4 25.1 M-13.9 29.35 L-14.0 29.35 -13.85 29.95 -13.9 29.35" fill="#e2e2e2" fill-rule="evenodd" stroke="none"/>
      <path d="M-15.75 25.4 L-16.4 24.55 -15.8 24.55 -14.25 23.7 Q-14.45 24.65 -13.5 24.8 L-13.75 25.0 -14.5 25.2 -15.75 25.4 M-12.4 24.85 Q-12.2 24.35 -11.7 24.35 -11.3 24.35 -11.05 24.75 -10.75 25.1 -10.75 25.45 -10.75 25.75 -11.65 26.35 -11.75 25.35 -12.4 24.85 M-11.65 26.45 L-11.15 26.3 -10.45 26.5 Q-9.9 26.7 -9.9 27.15 -9.9 27.5 -10.2 27.95 L-11.0 28.5 -11.95 28.2 Q-11.3 28.55 -11.3 29.2 -11.3 29.8 -11.65 30.25 -12.0 30.7 -12.55 30.8 L-12.5 30.0 -12.6 28.8 -12.5 28.7 -12.05 28.15 Q-11.65 27.55 -11.65 26.55 L-11.65 26.45 M-12.4 25.1 Q-12.15 25.5 -12.15 26.05 -12.15 27.15 -12.95 27.85 -13.85 28.7 -15.35 28.7 L-17.6 28.4 -16.15 28.1 Q-15.0 27.75 -14.55 27.05 L-13.9 26.05 -15.15 26.95 -16.4 27.05 Q-17.55 27.05 -18.2 26.55 -15.0 25.95 -14.65 25.5 L-14.7 25.65 -13.9 25.1 -13.9 25.95 -13.7 25.35 Q-13.55 24.75 -13.0 24.75 -12.65 24.75 -12.4 25.1" fill="#ffffff" fill-rule="evenodd" stroke="none"/>
      <path d="M-11.85 28.1 L-11.75 28.6 -11.95 28.8 -12.15 28.8 Q-12.35 28.25 -15.65 26.9 -16.1 26.55 -16.75 26.3 L-17.2 25.55 Q-17.2 25.25 -16.6 25.25 L-15.0 25.75 -13.85 26.6 -13.35 27.0 -12.8 27.45 -12.6 27.6 -12.55 27.6 -12.45 27.75 -12.5 27.65 -11.85 28.1 M-12.45 27.75 L-12.2 27.95 -12.35 27.75 -12.45 27.75 M-12.55 34.0 L-11.35 35.5 -11.1 35.85 -11.15 35.7 -9.85 37.5 -9.0 38.95 -9.0 39.25 -9.1 39.45 -9.15 39.4 -9.8 39.35 Q-10.05 39.1 -11.75 38.05 L-11.95 37.9 Q-12.75 37.45 -13.65 37.0 L-13.85 36.8 -16.9 34.9 -15.15 34.7 -12.55 34.0" fill="#ffecdb" fill-rule="evenodd" stroke="none"/>
      <path d="M-11.15 35.7 L-11.1 35.85 -11.35 35.5 -12.55 34.0 Q-11.6 33.7 -10.6 33.25 L-11.15 35.7 M-13.65 37.0 Q-12.75 37.45 -11.95 37.9 L-12.2 38.75 -12.65 39.75 Q-12.95 40.25 -13.6 40.25 L-13.55 37.85 -13.65 37.2 -13.65 37.0" fill="#e0af83" fill-rule="evenodd" stroke="none"/>
      <path d="M-12.5 27.65 L-13.45 24.9 -13.6 24.45 -13.5 24.15 -13.4 23.95 -12.95 23.9 -12.75 23.95 -12.7 23.9 Q-12.45 23.9 -12.45 24.15 L-12.3 24.85 -12.2 25.95 -12.1 26.95 -11.9 27.85 -11.85 28.1 -12.5 27.65 M-15.65 26.9 L-17.35 26.25 -17.6 26.15 -17.85 25.95 -17.6 25.25 -17.2 24.8 -16.3 24.8 -16.1 24.95 -15.0 25.75 -16.6 25.25 Q-17.2 25.25 -17.2 25.55 L-16.75 26.3 Q-16.1 26.55 -15.65 26.9" fill="#e9caad" fill-rule="evenodd" stroke="none"/>
      <path d="M-8.2 29.05 Q-8.6 28.6 -8.6 27.95 L-8.55 27.15 -8.45 27.15 -8.1 27.15 -8.25 28.5 -8.2 29.05" fill="#ecc3c3" fill-rule="evenodd" stroke="none"/>
      <path d="M-8.65 26.6 L-8.65 26.05 Q-8.65 24.45 -7.8 23.55 L-7.1 23.0 -7.15 23.05 Q-7.5 23.65 -7.5 24.65 L-7.35 25.5 -7.55 25.1 -8.05 25.6 -8.4 26.6 -8.65 26.6 M-7.15 25.8 L-6.35 26.3 -7.9 26.55 -7.85 26.4 -7.15 25.8" fill="#f5f7ea" fill-rule="evenodd" stroke="none"/>
      <path d="M-3.0 26.4 L-2.85 26.65 -2.9 26.7 -2.9 26.65 -3.05 26.45 -3.45 26.1 -3.4 26.05 -2.85 25.85 -2.6 25.85 -3.05 26.35 -3.0 26.4 M-4.5 25.25 L-4.4 25.05 -4.4 25.0 -4.1 25.8 -3.9 25.75 -4.45 26.05 -4.55 26.25 -4.5 25.25 M-4.55 28.9 L-4.55 28.65 -4.45 27.9 -4.2 27.55 -3.85 27.55 -3.9 27.6 -4.2 28.2 -4.5 28.95 -4.55 28.9 M-4.85 28.2 L-4.9 28.05 -5.4 28.3 -5.85 28.65 -5.65 28.15 -5.15 28.0 -4.8 28.0 -4.85 28.2" fill="#afc43b" fill-rule="evenodd" stroke="none"/>
      <path d="M-21.05 29.05 L-20.75 29.0 Q-20.4 29.0 -20.4 29.6 L-20.4 29.7 -20.45 29.8 -20.55 29.95 -21.1 30.0 -21.15 29.5 -21.1 29.2 -21.1 29.15 -21.05 29.05" fill="#dbee71" fill-rule="evenodd" stroke="none"/>
      <path d="M-7.1 23.0 L-6.85 22.75 -6.55 22.5 -6.5 22.45 Q-5.4 21.7 -4.25 21.7 L-3.5 21.85 -2.6 22.45 -2.2 22.85 -1.85 23.4 -1.8 23.7 -1.6 23.6 -1.5 24.05 Q-1.5 24.95 -2.5 25.95 L-3.0 26.4 -3.05 26.35 -2.6 25.85 -2.6 25.8 -3.1 25.75 -3.3 25.7 -3.9 25.75 -4.1 25.8 -4.4 25.0 -4.4 25.05 -4.5 25.25 -5.2 26.0 -5.7 26.2 -5.75 26.2 -6.35 26.3 -7.15 25.8 -7.05 25.75 -7.35 25.5 -7.5 24.65 Q-7.5 23.65 -7.15 23.05 L-7.1 23.0 M-3.3 27.45 L-3.35 27.65 -3.05 28.45 -2.15 29.15 -1.95 29.25 -1.05 29.3 0.0 29.1 -0.6 30.15 Q-1.4 31.1 -2.9 31.1 -3.85 31.1 -4.25 30.55 -4.55 30.15 -5.0 30.1 -3.6 29.4 -3.6 28.85 L-3.9 27.6 -3.85 27.55 -3.75 27.5 -3.7 27.5 -3.3 27.45" fill="#dfe0d6" fill-rule="evenodd" stroke="none"/>
      <path d="M1.15 24.25 L1.45 24.55 Q2.4 25.55 2.4 26.4 L2.15 27.45 Q1.8 28.1 0.95 28.6 L0.5 28.9 0.0 29.1 -1.05 29.3 -1.95 29.25 -2.15 29.15 -3.05 28.45 -3.35 27.65 -3.3 27.45 -2.95 27.4 -2.4 27.35 -2.85 26.65 -3.0 26.4 -2.5 25.95 Q-1.5 24.95 -1.5 24.05 L-1.6 23.6 -0.75 23.45 Q0.25 23.45 1.15 24.25" fill="url(#gradient21)" fill-rule="evenodd" stroke="none"/>
      <path d="M-3.5 21.85 L-2.35 21.75 Q-0.25 21.75 0.7 23.25 L1.15 24.25 Q0.25 23.45 -0.75 23.45 L-1.6 23.6 -1.8 23.7 -1.85 23.4 -2.2 22.85 -2.6 22.45 -3.5 21.85" fill="url(#gradient22)" fill-rule="evenodd" stroke="none"/>
      <path d="M2.15 27.45 L2.4 28.35 Q2.4 29.35 1.25 30.05 L0.35 30.45 Q-0.3 31.9 -2.75 31.9 L-4.65 31.5 Q-5.4 31.1 -5.45 30.3 L-5.0 30.1 Q-4.55 30.15 -4.25 30.55 -3.85 31.1 -2.9 31.1 -1.4 31.1 -0.6 30.15 L0.0 29.1 0.5 28.9 0.95 28.6 Q1.8 28.1 2.15 27.45" fill="url(#gradient23)" fill-rule="evenodd" stroke="none"/>
      <path d="M-20.55 29.95 L-20.45 29.8 -20.4 29.7 -20.4 29.6 Q-20.4 29.0 -20.75 29.0 L-21.05 29.05 -20.9 28.95 -20.05 28.95 -17.5 28.65 -13.5 27.85 -12.85 28.2 -12.85 28.35 -16.05 29.0 -18.3 29.5 -20.55 29.95" fill="url(#gradient24)" fill-rule="evenodd" stroke="none"/>
      <path d="M-8.55 27.15 L-9.6 27.35 Q-10.45 27.55 -11.8 28.1 L-11.85 28.0 -11.9 27.7 -11.9 27.4 -8.65 26.6 -8.4 26.6 -8.0 26.55 -7.9 26.55 -6.35 26.3 -5.75 26.2 -5.7 26.2 -5.2 26.0 -4.5 25.25 -4.55 26.25 -4.45 26.05 -3.9 25.75 -3.3 25.7 -3.1 25.75 -2.6 25.8 -2.6 25.85 -2.85 25.85 -3.4 26.05 -3.45 26.1 -3.05 26.45 -2.9 26.65 -2.9 26.7 -2.85 26.65 -2.4 27.35 -2.95 27.4 -3.3 27.45 -3.7 27.5 -3.75 27.5 -3.85 27.55 -4.2 27.55 -4.45 27.9 -4.55 28.65 -4.55 28.9 -4.85 28.2 -4.8 28.0 -5.15 28.0 -5.65 28.15 -5.65 27.6 -5.95 27.1 -7.25 27.1 -8.1 27.15 -8.45 27.15 -8.55 27.15" fill="url(#gradient25)" fill-rule="evenodd" stroke="none"/>
      <path d="M-4.65 31.5 Q-5.55 31.4 -6.45 30.95 L-7.4 30.2 Q-8.05 29.9 -8.2 29.05 L-8.25 28.5 -8.1 27.15 -7.25 27.1 -5.95 27.1 -5.65 27.6 -5.65 28.15 -5.85 28.65 -5.4 28.3 -4.9 28.05 -4.85 28.2 -4.55 28.9 -4.5 28.95 -4.2 28.2 -3.9 27.6 -3.6 28.85 Q-3.6 29.4 -5.0 30.1 L-5.45 30.3 Q-5.4 31.1 -4.65 31.5" fill="url(#gradient26)" fill-rule="evenodd" stroke="none"/>
      <path d="M-7.35 25.5 L-7.05 25.75 -7.15 25.8 -7.85 26.4 -7.9 26.55 -8.0 26.55 -8.4 26.6 -8.05 25.6 -7.55 25.1 -7.35 25.5" fill="url(#gradient27)" fill-rule="evenodd" stroke="none"/>
      <path d="M-11.05 36.9 L-11.0 36.65 -10.8 36.65 -10.5 36.7 -10.5 36.6 -10.25 36.6 -9.0 38.45 -8.9 38.65 -8.8 39.05 -8.9 39.4 -9.4 39.25 -9.85 39.1 Q-10.8 38.8 -12.15 37.8 L-12.15 37.45 -11.75 37.4 -11.8 37.15 -11.45 37.1 -11.45 36.9 -11.05 36.9" fill="#eaeeee" fill-rule="evenodd" stroke="none"/>
      <path d="M-12.05 38.1 L-11.95 38.0 -11.8 38.25 -12.6 40.35 -12.75 40.55 -12.9 40.85 -13.35 40.85 -13.45 40.5 -13.6 40.05 Q-13.95 39.05 -13.85 37.35 L-13.55 37.2 -13.35 37.5 -13.15 37.3 -12.9 37.6 -12.75 37.45 -12.5 37.75 -12.25 37.7 -12.2 37.85 -12.05 38.1" fill="#cfdbdb" fill-rule="evenodd" stroke="none"/>
      <path d="M-14.9 36.3 L-15.05 36.15 -15.2 36.05 -15.25 36.0 -13.25 35.5 -11.85 34.9 -11.6 35.2 -11.65 35.25 Q-12.75 36.0 -14.85 36.35 L-14.9 36.3" fill="#b4e1f5" fill-rule="evenodd" stroke="none"/>
      <path d="M-11.65 35.25 L-11.15 35.25 -11.15 35.7 -11.4 35.95 -11.65 35.8 -11.7 36.15 -11.95 36.2 -12.25 36.1 Q-12.15 36.7 -12.5 36.7 L-12.9 36.6 -12.9 36.65 Q-12.8 37.05 -13.15 37.05 L-13.7 36.65 -13.7 36.7 Q-13.5 37.2 -14.0 37.2 L-14.45 36.75 -14.5 36.8 -14.8 37.1 -15.1 37.1 -15.1 36.8 -14.9 36.3 -14.85 36.35 Q-12.75 36.0 -11.65 35.25" fill="#ebffb6" fill-rule="evenodd" stroke="none"/>
      <path d="M-15.25 36.0 L-15.8 36.0 -16.1 35.8 -16.1 35.5 -15.4 35.5 -15.2 35.6 -15.35 35.3 Q-15.35 35.1 -14.95 35.1 -14.5 35.1 -14.4 35.4 L-14.55 35.0 -14.1 34.75 -13.65 35.0 Q-13.8 34.5 -13.3 34.5 -13.0 34.5 -12.95 34.7 L-12.9 34.35 -12.6 34.3 -12.35 34.3 -12.25 34.7 -11.95 34.15 -11.45 34.0 -11.4 34.2 -11.5 34.7 -11.6 34.85 -11.85 34.9 -13.25 35.5 -15.25 36.0" fill="#cee09c" fill-rule="evenodd" stroke="none"/>
      <path d="M-11.0 38.3 L-10.85 38.1 -9.85 37.4 -9.8 37.5 -9.65 37.75 -10.1 37.85 -10.65 38.45 -10.35 38.85 -9.9 38.35 -9.35 38.15 -9.3 38.15 -9.15 38.35 Q-8.95 38.65 -8.9 39.05 L-8.9 39.35 -9.15 39.5 -9.45 39.55 -9.75 39.45 -10.25 39.1 -10.35 39.1 -11.0 38.7 -11.0 38.65 -11.0 38.3" fill="#76d4d7" fill-rule="evenodd" stroke="none"/>
      <path d="M-12.05 39.05 L-12.15 39.3 -12.45 39.05 Q-12.95 38.7 -13.3 38.85 L-13.4 39.35 -12.8 39.35 -12.3 39.75 -12.25 39.85 -12.35 40.05 -12.8 40.7 -13.05 40.85 -13.35 40.75 -13.55 40.45 -13.6 40.2 -13.6 39.55 -13.65 39.55 -13.7 38.75 -13.65 38.7 -13.35 38.55 -13.1 38.5 Q-12.45 38.45 -11.95 39.0 L-12.05 39.05" fill="#77afb1" fill-rule="evenodd" stroke="none"/>
      <path d="M-13.65 22.65 L-13.15 22.65 -13.4 24.1 -13.85 24.85 -14.0 24.65 -14.6 23.75 -14.95 23.1 -15.25 22.5 -14.55 23.3 -13.85 23.85 -13.75 23.8 -13.65 22.65 M-15.2 22.4 L-15.35 22.45 -15.4 22.6 -15.45 22.95 -15.5 23.15 -15.55 24.0 -15.8 25.25 -16.65 24.95 -17.35 24.6 -17.8 24.15 -18.2 23.6 -17.8 23.4 -17.4 23.05 -17.25 23.1 -17.25 23.5 -17.15 23.8 -17.15 24.0 -17.1 24.1 -15.9 23.15 -15.85 23.1 -15.45 22.45 -15.4 22.3 -15.45 22.25 -15.45 22.1 Q-15.4 21.9 -15.7 21.7 L-15.45 21.65 Q-15.3 21.65 -15.2 22.3 L-15.2 22.4" fill="#3685cb" fill-rule="evenodd" stroke="none"/>
      <path d="M-17.4 23.05 L-17.4 23.0 -17.45 23.0 -17.65 22.7 -18.05 21.7 -18.15 20.95 -17.75 20.95 -16.95 21.05 -16.35 21.2 -15.85 21.45 -15.7 21.7 Q-15.4 21.9 -15.45 22.1 L-15.45 22.25 -15.4 22.3 -15.45 22.45 -15.85 23.1 -15.9 23.15 -17.1 24.1 -17.15 24.0 -17.15 23.8 -17.25 23.5 -17.25 23.1 -17.4 23.05" fill="url(#gradient28)" fill-rule="evenodd" stroke="none"/>
      <path d="M-15.45 21.65 L-15.35 21.3 -14.85 20.8 -14.15 20.4 Q-13.75 21.15 -13.7 22.0 L-13.65 22.65 -13.75 23.8 -13.85 23.85 -14.55 23.3 -15.25 22.5 -15.2 22.4 -15.2 22.3 Q-15.3 21.65 -15.45 21.65" fill="url(#gradient29)" fill-rule="evenodd" stroke="none"/>
    </g>
    <radialGradient cx="0" cy="0" gradientTransform="matrix(0.0076, 0.0, 0.0, 0.0076, -27.0, 26.55)" gradientUnits="userSpaceOnUse" id="gradient0" r="819.2" spreadMethod="pad">
      <stop offset="0.0" stop-color="#ffcdd4"/>
      <stop offset="1.0" stop-color="#cfeff0"/>
    </radialGradient>
    <radialGradient cx="0" cy="0" gradientTransform="matrix(0.0105, 0.0, 0.0, 0.0105, -32.25, 17.3)" gradientUnits="userSpaceOnUse" id="gradient1" r="819.2" spreadMethod="pad">
      <stop offset="0.0" stop-color="#ffcdd4"/>
      <stop offset="1.0" stop-color="#cfeff0"/>
    </radialGradient>
    <radialGradient cx="0" cy="0" gradientTransform="matrix(0.003, -6.0E-4, 4.0E-4, 0.0017, -11.4, 17.15)" gradientUnits="userSpaceOnUse" id="gradient2" r="819.2" spreadMethod="pad">
      <stop offset="0.0" stop-color="#e9a7a7"/>
      <stop offset="1.0" stop-color="#e9a7a7" stop-opacity="0.0"/>
    </radialGradient>
    <radialGradient cx="0" cy="0" gradientTransform="matrix(0.003, 0.0, 0.0, 0.0017, -20.3, 19.25)" gradientUnits="userSpaceOnUse" id="gradient3" r="819.2" spreadMethod="pad">
      <stop offset="0.0" stop-color="#e9a7a7"/>
      <stop offset="1.0" stop-color="#e9a7a7" stop-opacity="0.0"/>
    </radialGradient>
    <radialGradient cx="0" cy="0" gradientTransform="matrix(0.0092, 0.0, 0.0, 0.0092, -16.65, 8.95)" gradientUnits="userSpaceOnUse" id="gradient4" r="819.2" spreadMethod="pad">
      <stop offset="0.0" stop-color="#ffdfa3"/>
      <stop offset="1.0" stop-color="#cd911e"/>
    </radialGradient>
    <radialGradient cx="0" cy="0" gradientTransform="matrix(0.0096, 0.0, 0.0, 0.0066, -9.75, 19.55)" gradientUnits="userSpaceOnUse" id="gradient5" r="819.2" spreadMethod="pad">
      <stop offset="0.0" stop-color="#c28717"/>
      <stop offset="1.0" stop-color="#ffda93"/>
    </radialGradient>
    <radialGradient cx="0" cy="0" gradientTransform="matrix(0.0078, 0.0, 0.0, 0.0078, -17.7, 7.55)" gradientUnits="userSpaceOnUse" id="gradient6" r="819.2" spreadMethod="pad">
      <stop offset="0.615686274509804" stop-color="#f7ddbc"/>
      <stop offset="1.0" stop-color="#cd911e"/>
    </radialGradient>
    <radialGradient cx="0" cy="0" gradientTransform="matrix(0.0092, 0.0, 0.0, 0.0092, -16.65, 8.95)" gradientUnits="userSpaceOnUse" id="gradient7" r="819.2" spreadMethod="pad">
      <stop offset="0.1568627450980392" stop-color="#ffdfa3"/>
      <stop offset="1.0" stop-color="#cd911e"/>
    </radialGradient>
    <radialGradient cx="0" cy="0" gradientTransform="matrix(0.0092, 0.0, 0.0, 0.0092, -16.65, 8.95)" gradientUnits="userSpaceOnUse" id="gradient8" r="819.2" spreadMethod="pad">
      <stop offset="0.28627450980392155" stop-color="#ffdfa3"/>
      <stop offset="1.0" stop-color="#cd911e"/>
    </radialGradient>
    <radialGradient cx="0" cy="0" gradientTransform="matrix(0.0059, 0.0, 0.0, 0.0059, -24.05, 6.1)" gradientUnits="userSpaceOnUse" id="gradient9" r="819.2" spreadMethod="pad">
      <stop offset="0.0" stop-color="#f5cc7e"/>
      <stop offset="1.0" stop-color="#cd911e"/>
    </radialGradient>
    <radialGradient cx="0" cy="0" gradientTransform="matrix(0.0059, 0.0, 0.0, 0.0059, -24.05, 6.1)" gradientUnits="userSpaceOnUse" id="gradient10" r="819.2" spreadMethod="pad">
      <stop offset="0.615686274509804" stop-color="#f7d9b3"/>
      <stop offset="1.0" stop-color="#cd911e"/>
    </radialGradient>
    <radialGradient cx="0" cy="0" gradientTransform="matrix(0.0053, 0.0, 0.0, 0.0053, -28.7, 16.75)" gradientUnits="userSpaceOnUse" id="gradient11" r="819.2" spreadMethod="pad">
      <stop offset="0.0" stop-color="#c28717"/>
      <stop offset="1.0" stop-color="#dba948"/>
    </radialGradient>
    <radialGradient cx="0" cy="0" gradientTransform="matrix(0.0059, 0.0, 0.0, 0.0059, -24.05, 6.1)" gradientUnits="userSpaceOnUse" id="gradient12" r="819.2" spreadMethod="pad">
      <stop offset="0.1568627450980392" stop-color="#ffdfa3"/>
      <stop offset="1.0" stop-color="#cd911e"/>
    </radialGradient>
    <radialGradient cx="0" cy="0" gradientTransform="matrix(0.0067, 0.0, 0.0, 0.0067, -26.75, 21.2)" gradientUnits="userSpaceOnUse" id="gradient13" r="819.2" spreadMethod="pad">
      <stop offset="0.0" stop-color="#c28717"/>
      <stop offset="1.0" stop-color="#cd911e"/>
    </radialGradient>
    <linearGradient gradientTransform="matrix(0.0083, -0.0057, 0.0026, 0.0038, -18.0, 5.7)" gradientUnits="userSpaceOnUse" id="gradient14" spreadMethod="pad" x1="-819.2" x2="819.2">
      <stop offset="0.0" stop-color="#f5f7ea" stop-opacity="0.0"/>
      <stop offset="0.39215686274509803" stop-color="#f5f7ea" stop-opacity="0.6"/>
      <stop offset="1.0" stop-color="#ffffff" stop-opacity="0.0"/>
    </linearGradient>
    <radialGradient cx="0" cy="0" gradientTransform="matrix(0.0019, 0.0, 0.0, 0.0019, -12.75, 13.75)" gradientUnits="userSpaceOnUse" id="gradient15" r="819.2" spreadMethod="pad">
      <stop offset="0.0" stop-color="#804e03"/>
      <stop offset="1.0" stop-color="#54690d"/>
    </radialGradient>
    <linearGradient gradientTransform="matrix(2.0E-4, 7.0E-4, -0.0022, 6.0E-4, -13.2, 14.95)" gradientUnits="userSpaceOnUse" id="gradient16" spreadMethod="pad" x1="-819.2" x2="819.2">
      <stop offset="0.0" stop-color="#03806f"/>
      <stop offset="1.0" stop-color="#becd3e"/>
    </linearGradient>
    <radialGradient cx="0" cy="0" gradientTransform="matrix(0.0041, -1.0E-4, 1.0E-4, 0.0041, -20.25, 15.45)" gradientUnits="userSpaceOnUse" id="gradient17" r="819.2" spreadMethod="pad">
      <stop offset="0.0" stop-color="#804e03"/>
      <stop offset="1.0" stop-color="#54690d"/>
    </radialGradient>
    <linearGradient gradientTransform="matrix(8.0E-4, 0.0018, -0.0023, 0.001, -19.2, 16.1)" gradientUnits="userSpaceOnUse" id="gradient18" spreadMethod="pad" x1="-819.2" x2="819.2">
      <stop offset="0.0" stop-color="#03806f"/>
      <stop offset="1.0" stop-color="#f3ec8a"/>
    </linearGradient>
    <linearGradient gradientTransform="matrix(-0.0037, 0.0049, -0.004, -0.0031, -25.95, 31.65)" gradientUnits="userSpaceOnUse" id="gradient19" spreadMethod="pad" x1="-819.2" x2="819.2">
      <stop offset="0.0" stop-color="#e994a0"/>
      <stop offset="1.0" stop-color="#f5d3bb"/>
    </linearGradient>
    <linearGradient gradientTransform="matrix(0.0016, 0.0046, -0.0058, 0.002, -12.95, 31.95)" gradientUnits="userSpaceOnUse" id="gradient20" spreadMethod="pad" x1="-819.2" x2="819.2">
      <stop offset="0.0" stop-color="#e994a0"/>
      <stop offset="1.0" stop-color="#f5d3bb"/>
    </linearGradient>
    <linearGradient gradientTransform="matrix(0.0013, -4.0E-4, 9.0E-4, 0.0034, 1.7, 25.9)" gradientUnits="userSpaceOnUse" id="gradient21" spreadMethod="pad" x1="-819.2" x2="819.2">
      <stop offset="0.0" stop-color="#f5f7ea"/>
      <stop offset="1.0" stop-color="#cfd2bd"/>
    </linearGradient>
    <radialGradient cx="0" cy="0" gradientTransform="matrix(0.0037, 0.0, 0.0, 0.0037, -1.2, 23.0)" gradientUnits="userSpaceOnUse" id="gradient22" r="819.2" spreadMethod="pad">
      <stop offset="0.0" stop-color="#ffcdd4"/>
      <stop offset="1.0" stop-color="#9adee0"/>
    </radialGradient>
    <radialGradient cx="0" cy="0" gradientTransform="matrix(0.0054, 0.0, 0.0, 0.0054, -1.5, 29.65)" gradientUnits="userSpaceOnUse" id="gradient23" r="819.2" spreadMethod="pad">
      <stop offset="0.0" stop-color="#ffcdd4"/>
      <stop offset="1.0" stop-color="#9adee0"/>
    </radialGradient>
    <linearGradient gradientTransform="matrix(0.005, 0.0, 0.0, 0.0013, -17.0, 28.9)" gradientUnits="userSpaceOnUse" id="gradient24" spreadMethod="pad" x1="-819.2" x2="819.2">
      <stop offset="0.0" stop-color="#a9cd2f"/>
      <stop offset="1.0" stop-color="#804e03"/>
    </linearGradient>
    <linearGradient gradientTransform="matrix(0.0058, 0.0, 0.0, 0.0022, -7.15, 27.05)" gradientUnits="userSpaceOnUse" id="gradient25" spreadMethod="pad" x1="-819.2" x2="819.2">
      <stop offset="0.0" stop-color="#804e03"/>
      <stop offset="1.0" stop-color="#a9cd2f"/>
    </linearGradient>
    <linearGradient gradientTransform="matrix(-0.0022, 0.0018, -0.0017, -0.0021, -7.15, 29.05)" gradientUnits="userSpaceOnUse" id="gradient26" spreadMethod="pad" x1="-819.2" x2="819.2">
      <stop offset="0.0" stop-color="#f5f7ea"/>
      <stop offset="1.0" stop-color="#cfd2bd"/>
    </linearGradient>
    <radialGradient cx="0" cy="0" gradientTransform="matrix(0.0012, 0.0, 0.0, 0.0012, -7.75, 25.85)" gradientUnits="userSpaceOnUse" id="gradient27" r="819.2" spreadMethod="pad">
      <stop offset="0.0" stop-color="#ffcdd4"/>
      <stop offset="1.0" stop-color="#cfeff0"/>
    </radialGradient>
    <radialGradient cx="0" cy="0" gradientTransform="matrix(0.0024, -0.0012, 0.0012, 0.0024, -15.5, 21.65)" gradientUnits="userSpaceOnUse" id="gradient28" r="819.2" spreadMethod="pad">
      <stop offset="0.0" stop-color="#d7d1d1"/>
      <stop offset="1.0" stop-color="#6c9fe7"/>
    </radialGradient>
    <radialGradient cx="0" cy="0" gradientTransform="matrix(0.0023, -0.0012, 0.0012, 0.0023, -16.15, 21.95)" gradientUnits="userSpaceOnUse" id="gradient29" r="819.2" spreadMethod="pad">
      <stop offset="0.0" stop-color="#d7d1d1"/>
      <stop offset="1.0" stop-color="#6c9fe7"/>
    </radialGradient>
  </defs>
</svg>
