<svg xmlns="http://www.w3.org/2000/svg" xmlns:ffdec="https://www.free-decompiler.com/flash" xmlns:xlink="http://www.w3.org/1999/xlink" ffdec:objectType="frame" width="69.9" height="56.25"><use ffdec:characterId="1" xlink:href="#a" width="69.9" height="56.25"/><defs><linearGradient id="b" x1="-819.2" x2="819.2" gradientTransform="matrix(.0115 -.0151 .0153 .0117 -14.7 7.15)" gradientUnits="userSpaceOnUse" spreadMethod="pad"><stop offset="0" stop-color="#666"/><stop offset=".376" stop-color="#fff"/><stop offset=".478" stop-color="#fff"/><stop offset=".502" stop-color="#65615a"/><stop offset=".667" stop-color="#b4b4b4"/><stop offset="1" stop-color="#fff"/></linearGradient><g id="a" fill-rule="evenodd"><path fill="#585858" d="M15.25 7.55Q18.9 3.75 21.1.3l10.35 8.35q-3.6 3.75-5.95 7.45l-1.05 1.85-.7 1.3q-1.6 3.05-2.3 6.05-.45 2-.5 3.65-.1 1.65.25 2.9-9.7.9-16.25-7.15-3.3-4-4.65-8.2l3.15-.65q1.65-.55 3.4-1.55 2.55-1.5 5.8-4.25l1.1-.95z"/><path fill="#513624" d="M69.3 55.4q-.65.6-1.6.85L31.8 26l-5.75-4.85-.3-.95q-.2-.75 0-1.2zM12.35 9.75l-5.4-4.5.45-1.35 6.05 4.9z"/><path fill="#fff" d="M20.65 28.65q-.1 1.65.25 2.9-9.7.9-16.25-7.15-3.3-4-4.65-8.2l3.15-.65q1.4 4.05 4.65 7.3 5.4 5.4 12.85 5.8"/><path fill="#946748" d="M7.4 3.9q.55-1.05 1.9-1.3l5.65 4.65-1.5 1.55zm20.8 14.45 6.55 5.5L69.9 53.5q.1.95-.6 1.9L25.75 19q.4-1.05 2.45-.65"/><path fill="#331b0b" d="m26.05 21.15-2.6-2.2.7-1.3 1.6 1.35q-.2.45 0 1.2z"/><path fill="#744829" d="m25.2 15.8 3 2.55q-2.05-.4-2.45.65l-1.6-1.35z"/><path fill="url(#b)" d="M-15.7 2.6q3.65-3.8 5.85-7.25L.5 3.7q-3.6 3.75-5.95 7.45L-6.5 13l-.7 1.3q-1.6 3.05-2.3 6.05-.45 2-.5 3.65-7.45-.4-12.85-5.8-3.25-3.25-4.65-7.3 1.65-.55 3.4-1.55 2.55-1.5 5.8-4.25l1.1-.95z" transform="translate(30.65 4.65)"/></g></defs></svg>