<?xml version="1.0" encoding="UTF-8" standalone="no"?>
<svg xmlns:ffdec="https://www.free-decompiler.com/flash" xmlns:xlink="http://www.w3.org/1999/xlink" ffdec:objectType="frame" height="57.25px" width="59.6px" xmlns="http://www.w3.org/2000/svg">
  <g transform="matrix(1.0, 0.0, 0.0, 1.0, 15.85, 0.1)">
    <use ffdec:characterId="1" height="57.25" transform="matrix(1.0, 0.0, 0.0, 1.0, -15.85, -0.1)" width="59.6" xlink:href="#shape0"/>
  </g>
  <defs>
    <g id="shape0" transform="matrix(1.0, 0.0, 0.0, 1.0, 15.85, 0.1)">
      <path d="M41.05 5.55 L41.05 5.9 38.15 5.95 38.1 5.9 38.15 5.9 36.5 5.05 36.45 5.0 35.3 3.0 35.3 0.15 35.75 0.2 Q37.45 1.05 37.8 2.25 37.65 2.25 37.45 2.45 37.15 2.85 37.2 3.15 L37.3 3.6 37.45 3.8 38.15 4.1 Q38.55 4.1 38.75 3.8 L39.0 3.5 Q39.55 5.2 41.05 5.55 M24.65 9.2 Q27.1 10.25 28.0 12.45 L28.25 12.9 28.8 13.2 Q29.7 15.2 32.35 16.65 L32.25 16.65 30.7 16.45 29.3 16.0 29.05 15.85 29.05 15.9 Q26.45 14.95 25.3 11.9 L25.15 11.45 Q24.75 10.2 24.65 9.2" fill="#ff9900" fill-rule="evenodd" stroke="none"/>
      <path d="M35.75 0.2 Q38.1 -0.5 40.5 0.5 L40.65 0.5 Q41.8 3.05 41.05 5.55 39.55 5.2 39.0 3.5 L39.1 3.15 38.8 2.45 38.6 2.3 38.15 2.2 37.8 2.25 Q37.45 1.05 35.75 0.2 M39.95 1.05 L40.05 0.9 Q40.0 0.7 39.55 0.6 L39.3 0.55 38.75 0.5 38.2 0.5 37.65 0.5 Q37.25 0.65 37.35 0.75 37.25 0.85 37.45 0.95 L37.65 1.0 38.7 1.2 39.5 1.05 39.95 1.05 M24.65 9.2 L24.85 8.4 Q25.35 7.75 29.3 8.8 L29.35 8.8 30.6 10.05 32.5 11.95 32.45 11.95 Q33.75 15.75 32.95 16.5 L32.35 16.65 Q29.7 15.2 28.8 13.2 L28.95 13.2 Q29.35 13.2 29.55 12.9 L29.9 12.25 29.6 11.55 29.3 11.35 29.0 11.3 28.9 11.3 28.8 11.3 28.7 11.3 Q28.6 11.3 28.55 11.4 L28.5 11.4 28.5 11.45 28.25 11.55 Q27.95 11.95 28.0 12.25 L28.0 12.45 Q27.1 10.25 24.65 9.2 M28.45 9.2 L28.6 9.05 27.95 8.65 27.65 8.6 26.95 8.55 26.25 8.55 25.6 8.55 Q25.1 8.7 25.2 8.85 25.05 8.95 25.35 9.1 L25.55 9.15 26.9 9.4 27.9 9.25 28.45 9.2" fill="#ffcc00" fill-rule="evenodd" stroke="none"/>
      <path d="M30.55 7.75 L30.6 7.4 Q30.85 6.7 31.65 6.85 L31.75 6.75 32.55 8.2 Q32.45 9.6 31.4 9.3 L30.55 7.75 M32.9 5.75 L32.9 5.55 Q33.2 4.85 33.95 4.85 L34.05 4.75 34.75 6.05 Q34.4 7.35 33.65 7.1 L32.9 5.75 M39.95 1.05 L39.5 1.05 38.7 1.2 37.65 1.0 37.45 0.95 Q37.25 0.85 37.35 0.75 37.25 0.65 37.65 0.5 L38.2 0.5 38.75 0.5 39.3 0.55 39.55 0.6 Q40.0 0.7 40.05 0.9 L39.95 1.05 M38.35 2.3 L38.45 2.35 38.65 2.75 38.6 2.9 38.45 3.05 38.15 3.25 37.75 3.05 37.7 2.95 37.65 2.75 37.75 2.35 37.95 2.25 38.15 2.25 38.35 2.3 M28.5 11.45 L28.5 11.4 28.55 11.4 Q28.6 11.3 28.7 11.3 L28.8 11.3 28.9 11.3 29.0 11.3 29.1 11.35 29.2 11.4 29.4 11.8 29.35 11.95 29.2 12.1 28.9 12.3 28.5 12.1 28.45 12.0 28.4 11.8 28.5 11.45 M5.1 32.65 L12.7 25.05 12.8 28.25 5.2 35.95 5.1 32.65 M18.4 19.3 L21.4 16.3 21.55 19.4 18.5 22.5 18.4 19.3 M28.45 9.2 L27.9 9.25 26.9 9.4 25.55 9.15 25.35 9.1 Q25.05 8.95 25.2 8.85 25.1 8.7 25.6 8.55 L26.25 8.55 26.95 8.55 27.65 8.6 27.95 8.65 28.6 9.05 28.45 9.2" fill="#ffffff" fill-rule="evenodd" stroke="none"/>
      <path d="M39.0 3.5 L38.75 3.8 Q38.55 4.1 38.15 4.1 L37.45 3.8 37.3 3.6 37.2 3.15 Q37.15 2.85 37.45 2.45 37.65 2.25 37.8 2.25 L38.15 2.2 38.6 2.3 38.8 2.45 39.1 3.15 39.0 3.5 M38.35 2.3 L38.15 2.25 37.95 2.25 37.75 2.35 37.65 2.75 37.7 2.95 37.75 3.05 38.15 3.25 38.45 3.05 38.6 2.9 38.65 2.75 38.45 2.35 38.35 2.3 M28.0 12.45 L28.0 12.25 Q27.95 11.95 28.25 11.55 L28.5 11.45 28.4 11.8 28.45 12.0 28.5 12.1 28.9 12.3 29.2 12.1 29.35 11.95 29.4 11.8 29.2 11.4 29.1 11.35 29.0 11.3 29.3 11.35 29.6 11.55 29.9 12.25 29.55 12.9 Q29.35 13.2 28.95 13.2 L28.8 13.2 28.25 12.9 28.0 12.45" fill="#ff0000" fill-rule="evenodd" stroke="none"/>
      <path d="M29.05 15.9 L28.5 16.45 28.5 16.4 25.85 15.0 24.9 12.85 25.4 12.25 25.3 11.9 Q26.45 14.95 29.05 15.9" fill="#ff6600" fill-rule="evenodd" stroke="none"/>
      <path d="M21.4 16.3 L21.65 16.05 22.85 14.85 23.0 17.95 21.8 19.15 21.55 19.4 21.4 16.3" fill="#c6c6c6" fill-rule="evenodd" stroke="none"/>
      <path d="M28.5 16.45 L23.15 21.85 21.95 23.0 21.7 23.3 18.65 26.3 12.95 32.0 5.35 39.6 -11.25 56.25 -15.0 57.0 -15.3 56.7 5.2 35.95 12.8 28.25 18.5 22.5 21.55 19.4 21.8 19.15 23.0 17.95 25.85 15.0 28.5 16.4 28.5 16.45" fill="url(#gradient0)" fill-rule="evenodd" stroke="none"/>
      <path d="M22.85 14.85 L24.85 12.8 24.9 12.85 25.85 15.0 23.0 17.95 22.85 14.85" fill="url(#gradient1)" fill-rule="evenodd" stroke="none"/>
      <path d="M12.7 25.05 L18.4 19.3 18.5 22.5 12.8 28.25 12.7 25.05" fill="url(#gradient2)" fill-rule="evenodd" stroke="none"/>
      <path d="M-15.0 57.0 L-15.85 57.15 -14.9 52.65 5.1 32.65 5.2 35.95 -15.3 56.7 -15.0 57.0" fill="url(#gradient3)" fill-rule="evenodd" stroke="none"/>
      <path d="M36.85 6.75 L36.7 7.1 Q36.65 7.55 35.8 7.95 L34.75 6.05 Q35.65 6.2 35.85 4.95 L36.85 6.75 M34.8 9.2 L34.65 9.35 Q34.6 10.0 33.75 10.4 L32.55 8.2 Q33.3 8.4 33.65 7.1 L34.8 9.2 M32.7 11.7 L32.5 11.9 30.65 10.05 Q31.0 10.2 31.4 9.3 L32.7 11.7" fill="#70b2cc" fill-rule="evenodd" stroke="none"/>
      <path d="M38.1 5.9 L37.65 5.9 Q37.65 6.4 36.85 6.75 L35.85 4.95 36.5 5.05 38.15 5.9 38.1 5.9 M35.8 7.95 L35.7 8.1 34.8 9.15 34.8 9.2 33.65 7.1 Q34.4 7.35 34.75 6.05 L35.8 7.95 M33.75 10.4 L33.65 10.55 33.1 11.4 32.7 11.7 31.4 9.3 Q32.45 9.6 32.55 8.2 L33.75 10.4" fill="#9bddf6" fill-rule="evenodd" stroke="none"/>
      <path d="M35.2 3.75 L35.35 3.6 35.3 3.05 35.3 3.0 36.45 5.0 36.5 5.05 35.85 4.95 35.2 3.75" fill="#bdeaee" fill-rule="evenodd" stroke="none"/>
      <path d="M30.65 10.05 L29.35 8.75 Q29.55 7.85 30.55 7.75 L31.4 9.3 Q31.0 10.2 30.65 10.05 M31.75 6.75 Q32.05 5.8 32.8 5.85 L32.9 5.75 33.65 7.1 Q33.3 8.4 32.55 8.2 L31.75 6.75 M34.05 4.75 Q34.2 3.9 35.2 3.75 L35.85 4.95 Q35.65 6.2 34.75 6.05 L34.05 4.75" fill="#aee6f3" fill-rule="evenodd" stroke="none"/>
      <path d="M35.0 4.0 L35.1 4.05 35.3 4.45 35.25 4.6 35.1 4.75 34.8 4.95 34.4 4.75 34.35 4.65 34.3 4.45 34.4 4.05 34.6 3.95 34.8 3.95 35.0 4.0" fill="#ffffff" fill-opacity="0.29803923" fill-rule="evenodd" stroke="none"/>
      <path d="M33.85 5.15 L33.95 5.2 34.15 5.6 34.1 5.75 33.95 5.9 33.65 6.1 33.25 5.9 33.2 5.8 Q33.1 5.7 33.15 5.6 L33.25 5.2 33.45 5.1 33.65 5.1 33.85 5.15" fill="#ffffff" fill-opacity="0.29803923" fill-rule="evenodd" stroke="none"/>
      <path d="M32.4 6.15 L32.6 6.15 32.8 6.2 32.9 6.25 33.1 6.65 33.05 6.8 32.9 6.95 32.6 7.15 32.2 6.95 32.15 6.85 32.1 6.65 32.2 6.25 32.4 6.15" fill="#ffffff" fill-opacity="0.29803923" fill-rule="evenodd" stroke="none"/>
      <path d="M31.65 7.2 L31.85 7.6 31.8 7.75 31.65 7.9 31.35 8.1 30.95 7.9 30.9 7.8 30.85 7.6 30.95 7.2 31.15 7.1 31.35 7.1 31.55 7.15 31.65 7.2" fill="#ffffff" fill-opacity="0.29803923" fill-rule="evenodd" stroke="none"/>
      <path d="M30.55 8.3 L30.75 8.7 30.7 8.85 30.55 9.0 30.25 9.2 29.85 9.0 29.8 8.9 Q29.7 8.8 29.75 8.7 L29.85 8.3 30.05 8.2 30.25 8.2 30.45 8.25 30.55 8.3" fill="#ffffff" fill-opacity="0.29803923" fill-rule="evenodd" stroke="none"/>
      <path d="M40.75 14.45 Q39.95 17.8 40.1 21.1 L39.35 20.8 39.9 16.15 Q40.0 15.3 40.25 14.85 L40.55 14.45 40.75 14.45" fill="#ff0000" fill-rule="evenodd" stroke="none"/>
      <path d="M40.75 14.45 L41.35 14.45 41.7 14.85 Q42.0 15.4 41.95 16.45 41.9 17.5 42.5 20.95 L41.5 21.35 41.25 18.45 41.1 21.3 40.1 21.1 Q39.95 17.8 40.75 14.45" fill="#ad0000" fill-rule="evenodd" stroke="none"/>
      <path d="M41.95 10.35 L41.55 10.5 Q41.3 10.5 41.15 10.35 41.0 10.2 41.0 9.95 41.0 9.7 41.15 9.55 41.3 9.4 41.55 9.4 L41.95 9.55 42.1 9.95 41.95 10.35 M41.55 12.1 L41.4 11.6 Q41.4 11.3 41.55 11.1 L41.7 10.85 Q42.0 10.55 42.45 10.55 L43.2 10.85 43.5 11.6 43.2 12.35 42.45 12.65 Q42.0 12.65 41.7 12.35 L41.55 12.1 M40.85 8.95 L40.75 5.6 M42.1 13.7 L41.7 13.85 41.3 13.7 Q41.15 13.55 41.15 13.3 41.15 13.05 41.3 12.9 41.45 12.75 41.7 12.75 L42.1 12.9 42.25 13.3 42.1 13.7 M40.75 13.3 L40.6 13.7 40.2 13.85 Q39.95 13.85 39.8 13.7 L39.65 13.3 Q39.65 13.05 39.8 12.9 39.95 12.75 40.2 12.75 L40.6 12.9 40.75 13.3 M39.5 9.95 Q39.5 9.7 39.65 9.55 39.8 9.4 40.05 9.4 40.3 9.4 40.45 9.55 L40.6 9.95 40.45 10.35 40.05 10.5 39.65 10.35 39.5 9.95 M38.55 10.9 Q38.85 10.6 39.3 10.6 39.75 10.6 40.05 10.9 L40.2 11.15 40.35 11.65 40.2 12.15 40.05 12.4 Q39.75 12.7 39.3 12.7 38.85 12.7 38.55 12.4 38.25 12.1 38.25 11.65 38.25 11.2 38.55 10.9 Z" fill="none" stroke="#ff0000" stroke-linecap="round" stroke-linejoin="round" stroke-width="0.5"/>
      <path d="M40.9 11.65 L41.05 11.3 40.9 10.9 40.55 10.8 40.15 10.9 40.0 11.3 40.15 11.65 40.55 11.8 40.9 11.65 M41.6 12.5 Q41.3 12.9 40.8 12.9 40.35 12.9 39.95 12.5 39.6 12.2 39.6 11.7 39.6 11.2 39.95 10.8 40.35 10.5 40.8 10.5 41.3 10.5 41.6 10.8 42.0 11.2 42.0 11.7 42.0 12.2 41.6 12.5" fill="#00cc99" fill-rule="evenodd" stroke="none"/>
      <path d="M40.9 11.65 L40.55 11.8 40.15 11.65 40.0 11.3 40.15 10.9 40.55 10.8 40.9 10.9 41.05 11.3 40.9 11.65" fill="#99ffff" fill-rule="evenodd" stroke="none"/>
      <path d="M41.6 12.5 Q41.3 12.9 40.8 12.9 40.35 12.9 39.95 12.5 39.6 12.2 39.6 11.7 39.6 11.2 39.95 10.8 40.35 10.5 40.8 10.5 41.3 10.5 41.6 10.8 42.0 11.2 42.0 11.7 42.0 12.2 41.6 12.5 Z" fill="none" stroke="#003300" stroke-linecap="round" stroke-linejoin="round" stroke-width="0.5"/>
      <path d="M40.65 8.9 L40.85 8.8 40.95 8.6 40.85 8.35 40.65 8.3 40.4 8.35 40.3 8.6 40.4 8.8 40.65 8.9 M40.8 9.55 L40.25 9.3 40.05 8.85 40.25 8.3 40.8 8.1 41.3 8.3 41.5 8.85 41.3 9.3 40.8 9.55" fill="#00cc99" fill-rule="evenodd" stroke="none"/>
      <path d="M40.65 8.9 L40.4 8.8 40.3 8.6 40.4 8.35 40.65 8.3 40.85 8.35 40.95 8.6 40.85 8.8 40.65 8.9" fill="#99ffff" fill-rule="evenodd" stroke="none"/>
      <path d="M41.45 13.85 L41.65 14.4 41.45 14.85 40.95 15.1 40.4 14.85 40.2 14.4 40.4 13.85 Q40.65 13.65 40.95 13.65 L41.45 13.85 M41.0 13.9 L40.8 13.85 40.55 13.9 40.45 14.15 40.55 14.35 40.8 14.45 41.0 14.35 41.1 14.15 41.0 13.9" fill="#00cc99" fill-rule="evenodd" stroke="none"/>
      <path d="M41.0 13.9 L41.1 14.15 41.0 14.35 40.8 14.45 40.55 14.35 40.45 14.15 40.55 13.9 40.8 13.85 41.0 13.9" fill="#99ffff" fill-rule="evenodd" stroke="none"/>
    </g>
    <linearGradient gradientTransform="matrix(0.0267, 0.0, 0.0, 0.0256, 6.6, 36.0)" gradientUnits="userSpaceOnUse" id="gradient0" spreadMethod="pad" x1="-819.2" x2="819.2">
      <stop offset="0.0" stop-color="#707070"/>
      <stop offset="1.0" stop-color="#ffffff"/>
    </linearGradient>
    <linearGradient gradientTransform="matrix(0.0018, 0.0, 0.0, 0.0031, 24.35, 15.35)" gradientUnits="userSpaceOnUse" id="gradient1" spreadMethod="pad" x1="-819.2" x2="819.2">
      <stop offset="0.0" stop-color="#707070"/>
      <stop offset="1.0" stop-color="#ffffff"/>
    </linearGradient>
    <linearGradient gradientTransform="matrix(0.0035, 0.0, 0.0, 0.0055, 15.6, 23.75)" gradientUnits="userSpaceOnUse" id="gradient2" spreadMethod="pad" x1="-819.2" x2="819.2">
      <stop offset="0.0" stop-color="#707070"/>
      <stop offset="1.0" stop-color="#ffffff"/>
    </linearGradient>
    <linearGradient gradientTransform="matrix(0.0128, 0.0, 0.0, 0.015, -5.35, 44.9)" gradientUnits="userSpaceOnUse" id="gradient3" spreadMethod="pad" x1="-819.2" x2="819.2">
      <stop offset="0.0" stop-color="#707070"/>
      <stop offset="1.0" stop-color="#ffffff"/>
    </linearGradient>
  </defs>
</svg>
