<?xml version="1.0" encoding="UTF-8" standalone="no"?>
<svg xmlns:ffdec="https://www.free-decompiler.com/flash" xmlns:xlink="http://www.w3.org/1999/xlink" ffdec:objectType="frame" height="38.9px" width="90.1px" xmlns="http://www.w3.org/2000/svg">
  <g transform="matrix(1.0, 0.0, 0.0, 1.0, 34.9, -7.8)">
    <use ffdec:characterId="1" height="38.9" transform="matrix(1.0, 0.0, 0.0, 1.0, -34.9, 7.8)" width="90.1" xlink:href="#shape0"/>
  </g>
  <defs>
    <g id="shape0" transform="matrix(1.0, 0.0, 0.0, 1.0, 34.9, -7.8)">
      <path d="M43.65 39.1 Q43.1 40.05 42.15 40.8 40.4 42.2 40.0 44.55 L40.0 41.85 39.7 39.0 Q39.2 36.55 38.55 35.9 L40.45 35.1 40.9 34.95 43.35 34.7 43.45 34.7 43.8 34.8 Q44.7 35.2 44.35 37.1 44.2 38.2 43.65 39.1 M28.2 18.55 L30.6 19.8 Q29.4 19.6 30.1 20.85 L31.0 22.4 31.15 22.55 31.5 23.0 31.2 22.85 30.7 22.5 29.25 20.6 Q28.1 18.85 23.0 15.9 24.1 17.05 25.2 19.15 L26.3 21.4 26.4 21.6 23.45 18.7 22.0 17.4 21.7 17.2 21.7 17.15 Q18.8 15.05 17.1 15.9 18.75 14.75 23.0 15.9 L27.0 17.75 28.2 18.55 M20.6 20.35 L21.8 23.2 19.5 19.7 19.5 19.5 Q19.25 17.85 18.9 17.65 L18.65 17.45 Q19.35 17.6 20.6 20.35 M0.8 19.7 L-1.5 23.2 -0.3 20.35 Q0.95 17.6 1.65 17.45 L1.4 17.65 Q1.05 17.85 0.8 19.5 L0.8 19.7 M36.6 29.05 Q37.0 29.55 37.0 30.1 L37.0 30.5 36.8 31.2 36.5 31.85 35.9 32.55 Q35.55 32.9 35.5 33.15 33.9 30.2 31.7 29.7 32.25 28.7 33.35 28.3 L34.8 28.1 35.55 28.3 36.0 28.5 36.6 29.05 M-11.2 23.0 L-10.85 22.55 -10.7 22.4 -9.8 20.85 Q-9.1 19.6 -10.3 19.8 L-7.9 18.55 -6.7 17.75 -2.7 15.9 Q1.55 14.75 3.2 15.9 1.5 15.05 -1.4 17.15 L-1.4 17.2 -1.7 17.4 -3.15 18.7 -6.1 21.6 -6.0 21.4 -4.9 19.15 Q-3.8 17.05 -2.7 15.9 -7.8 18.85 -8.95 20.6 L-10.4 22.5 -11.2 23.0 M-24.05 37.1 Q-24.4 35.2 -23.5 34.8 L-23.15 34.7 -23.05 34.7 -20.6 34.95 -20.15 35.1 -18.25 35.9 Q-18.9 36.55 -19.4 39.0 L-19.7 41.85 -19.7 44.55 Q-20.1 42.2 -21.85 40.8 -22.8 40.05 -23.35 39.1 -23.9 38.2 -24.05 37.1 M-9.65 27.8 L-9.2 27.6 Q-8.4 27.6 -7.8 28.6 L-7.6 29.1 -8.85 30.25 -9.75 30.95 Q-9.4 30.5 -9.65 29.8 L-10.0 28.65 -9.9 28.0 -9.75 27.85 -9.7 27.8 -9.65 27.8 M-6.25 28.8 L-3.1 25.5 -1.8 24.2 Q-1.8 26.7 -5.15 32.95 L-6.1 31.65 -7.3 30.0 -6.25 28.8 M-13.05 28.3 Q-11.95 28.7 -11.4 29.7 -13.6 30.2 -15.2 33.15 L-15.6 32.55 -16.2 31.85 -16.5 31.2 -16.7 30.5 -16.7 30.1 Q-16.7 29.55 -16.3 29.05 L-15.7 28.5 -15.25 28.3 -14.5 28.1 -13.05 28.3" fill="#c977a4" fill-rule="evenodd" stroke="none"/>
      <path d="M54.85 34.1 Q54.0 35.75 51.9 37.1 48.4 32.9 42.05 28.45 L49.1 30.9 Q53.2 32.55 54.85 34.1 M48.85 39.2 Q52.6 41.2 53.5 42.8 53.1 43.8 51.9 44.75 50.45 45.9 48.9 45.65 45.05 41.15 45.0 37.35 L48.85 39.2 M46.3 44.5 Q44.45 43.95 42.65 45.0 41.45 45.7 40.75 46.7 40.05 45.6 40.0 44.55 40.4 42.2 42.15 40.8 43.1 40.05 43.65 39.1 L44.35 41.25 Q45.1 43.0 46.3 44.5 M23.25 10.1 Q21.3 10.4 20.0 11.0 L19.4 11.35 18.65 11.75 18.65 11.25 Q18.7 10.35 19.05 9.7 19.75 9.3 20.35 9.1 21.6 8.6 23.35 8.6 24.15 8.6 25.1 9.2 L30.05 12.65 28.2 11.7 Q26.95 10.8 25.45 10.35 L23.25 10.1 M28.95 13.55 L31.95 15.55 Q34.35 17.35 34.4 18.95 L34.1 19.1 Q30.9 17.75 30.2 16.75 L28.95 13.55 M21.35 13.1 L22.8 12.8 27.2 13.2 Q27.2 14.15 28.0 15.4 L28.9 16.5 Q26.5 15.45 25.65 14.55 L24.8 14.0 Q22.55 13.2 21.35 13.1 M1.65 11.25 L1.65 11.75 0.9 11.35 0.3 11.0 Q-1.0 10.4 -2.95 10.1 L-5.15 10.35 Q-6.65 10.8 -7.9 11.7 -8.55 12.2 -9.75 12.65 L-4.8 9.2 Q-3.85 8.6 -3.05 8.6 -1.3 8.6 -0.05 9.1 L1.25 9.7 1.65 11.25 M36.8 31.2 L37.0 30.5 Q37.75 31.9 39.7 33.8 L40.9 34.95 40.45 35.1 38.55 35.9 Q37.6 36.25 36.45 35.2 35.25 34.1 35.5 33.15 35.55 32.9 35.9 32.55 L36.5 31.85 36.8 31.2 M26.55 28.8 L27.7 29.7 27.6 30.0 26.4 31.65 25.45 32.95 Q22.1 26.7 22.1 24.2 L23.4 25.5 26.55 28.8 M-11.65 15.55 L-8.65 13.55 -9.9 16.75 Q-10.6 17.75 -13.8 19.1 L-14.1 18.95 Q-14.05 17.35 -11.65 15.55 M-6.9 13.2 L-2.5 12.8 -1.05 13.1 Q-2.25 13.2 -4.5 14.0 -4.85 14.0 -5.35 14.55 -6.2 15.45 -8.6 16.5 L-7.7 15.4 Q-6.9 14.15 -6.9 13.2 M-21.75 28.45 Q-28.1 32.9 -31.6 37.1 -33.7 35.75 -34.55 34.1 -32.9 32.55 -28.8 30.9 L-21.75 28.45 M-33.2 42.8 Q-32.3 41.2 -28.55 39.2 L-24.7 37.35 Q-24.75 41.15 -28.6 45.65 -30.15 45.9 -31.6 44.75 -32.8 43.8 -33.2 42.8 M-10.0 28.65 L-9.65 29.8 Q-9.4 30.5 -9.75 30.95 -10.15 31.4 -10.7 30.8 L-10.95 30.6 -11.4 29.7 Q-11.95 28.7 -13.05 28.3 L-9.55 26.15 -4.6 22.85 Q-6.55 25.25 -9.65 27.8 L-9.7 27.8 -9.75 27.85 -9.9 28.0 -10.0 28.65 M-23.35 39.1 Q-22.8 40.05 -21.85 40.8 -20.1 42.2 -19.7 44.55 -19.75 45.6 -20.45 46.7 -21.15 45.7 -22.35 45.0 -24.15 43.95 -26.0 44.5 -24.8 43.0 -24.05 41.25 L-23.35 39.1 M-6.25 28.8 L-7.3 30.0 -7.4 29.7 -6.25 28.8 M-20.15 35.1 L-20.6 34.95 -19.4 33.8 Q-17.45 31.9 -16.7 30.5 L-16.5 31.2 -16.2 31.85 -15.6 32.55 -15.2 33.15 Q-14.95 34.1 -16.15 35.2 -17.3 36.25 -18.25 35.9 L-20.15 35.1" fill="#db8fc5" fill-rule="evenodd" stroke="none"/>
      <path d="M55.2 33.15 L55.05 33.75 54.85 34.1 Q53.2 32.55 49.1 30.9 L42.05 28.45 41.45 28.05 40.7 27.5 39.3 26.55 40.6 28.2 Q42.55 30.75 43.5 32.6 L48.4 37.05 Q52.35 40.35 53.7 41.7 L53.7 41.8 53.5 42.8 Q52.6 41.2 48.85 39.2 L45.0 37.35 Q45.05 41.15 48.9 45.65 L47.5 45.05 Q46.9 44.7 46.3 44.5 45.1 43.0 44.35 41.25 L43.65 39.1 Q44.2 38.2 44.35 37.1 44.7 35.2 43.8 34.8 L43.85 34.8 40.95 32.15 35.4 26.6 35.15 26.35 34.2 25.4 31.15 22.55 31.0 22.4 30.1 20.85 Q29.4 19.6 30.6 19.8 L37.1 22.5 39.3 24.45 Q41.6 26.4 43.6 27.3 L50.6 30.45 Q53.5 31.85 55.2 33.15 M30.6 19.8 L28.2 18.55 27.0 17.75 23.0 15.9 Q28.1 18.85 29.25 20.6 L30.7 22.5 31.2 22.85 Q32.3 25.25 34.45 27.7 31.85 26.2 29.55 24.35 L28.6 23.5 26.3 21.4 25.2 19.15 Q24.1 17.05 23.0 15.9 18.75 14.75 17.1 15.9 18.8 15.05 21.7 17.15 L21.7 17.2 22.0 17.4 22.05 17.9 Q22.45 20.4 22.5 23.6 L23.4 25.5 22.1 24.2 Q22.1 26.7 25.45 32.95 L25.0 34.2 Q24.05 32.3 22.45 28.15 19.9 21.5 19.5 19.7 L21.8 23.2 20.6 20.35 Q19.35 17.6 18.65 17.45 L18.1 17.0 17.3 16.3 17.1 15.9 17.1 15.65 17.25 15.1 Q16.85 12.75 18.0 12.0 L18.65 11.75 19.4 11.35 23.5 11.1 Q25.9 11.4 33.15 15.3 L30.8 12.85 30.05 12.65 25.1 9.2 Q24.15 8.6 23.35 8.6 21.6 8.6 20.35 9.1 19.75 9.3 19.05 9.7 20.0 7.8 23.2 7.8 L24.95 8.05 26.5 9.3 34.2 13.5 34.6 14.0 Q34.4 15.0 33.15 15.3 L33.3 15.4 34.15 15.85 34.3 15.9 35.05 16.35 Q35.6 16.75 35.6 17.3 35.6 18.35 34.4 18.95 34.35 17.35 31.95 15.55 L28.95 13.55 30.2 16.75 Q30.9 17.75 34.1 19.1 L30.6 19.8 M28.0 15.4 L27.2 14.05 22.8 12.8 21.35 13.1 Q22.55 13.2 24.8 14.0 L25.65 14.55 Q26.5 15.45 28.9 16.5 L28.0 15.4 M1.65 11.75 L2.3 12.0 Q3.45 12.75 3.05 15.1 L3.2 15.65 3.2 15.9 3.0 16.3 2.2 17.0 1.65 17.45 Q0.95 17.6 -0.3 20.35 L-1.5 23.2 0.8 19.7 Q0.4 21.5 -2.15 28.15 -3.75 32.3 -4.7 34.2 L-5.15 32.95 Q-1.8 26.7 -1.8 24.2 L-3.1 25.5 -2.2 23.6 Q-2.15 20.4 -1.75 17.9 L-1.7 17.4 -1.4 17.2 -1.4 17.15 Q1.5 15.05 3.2 15.9 1.55 14.75 -2.7 15.9 -3.8 17.05 -4.9 19.15 L-6.0 21.4 -8.3 23.5 -9.25 24.35 Q-11.55 26.2 -14.15 27.7 -12.0 25.25 -10.9 22.85 L-10.4 22.5 -8.95 20.6 Q-7.8 18.85 -2.7 15.9 L-6.7 17.75 -7.9 18.55 -10.3 19.8 Q-9.1 19.6 -9.8 20.85 L-10.7 22.4 -10.85 22.55 -13.9 25.4 -14.85 26.35 -15.1 26.6 -20.65 32.15 -23.55 34.8 -23.5 34.8 Q-24.4 35.2 -24.05 37.1 -23.9 38.2 -23.35 39.1 L-24.05 41.25 Q-24.8 43.0 -26.0 44.5 -26.6 44.7 -27.2 45.05 L-28.6 45.65 Q-24.75 41.15 -24.7 37.35 L-28.55 39.2 Q-32.3 41.2 -33.2 42.8 L-33.4 41.8 -33.4 41.7 -28.1 37.05 -23.2 32.6 Q-22.25 30.75 -20.3 28.2 L-19.0 26.55 -20.4 27.5 -21.15 28.05 -21.75 28.45 -28.8 30.9 Q-32.9 32.55 -34.55 34.1 L-34.75 33.75 -34.9 33.15 Q-33.2 31.85 -30.3 30.45 L-23.3 27.3 Q-21.3 26.4 -19.0 24.45 L-16.8 22.5 -10.3 19.8 -13.8 19.1 Q-10.6 17.75 -9.9 16.75 L-8.65 13.55 -11.65 15.55 Q-14.05 17.35 -14.1 18.95 -15.3 18.35 -15.3 17.3 -15.3 16.75 -14.75 16.35 L-14.0 15.9 -13.85 15.85 -13.0 15.4 -12.85 15.3 Q-14.1 15.0 -14.3 14.0 L-13.9 13.5 -6.2 9.3 -4.65 8.05 -2.9 7.8 Q0.3 7.8 1.25 9.7 L-0.05 9.1 Q-1.3 8.6 -3.05 8.6 -3.85 8.6 -4.8 9.2 L-9.75 12.65 -10.5 12.85 -12.85 15.3 Q-5.6 11.4 -3.2 11.1 L0.9 11.35 1.65 11.75 M-2.5 12.8 L-6.5 13.8 -7.7 15.4 -8.6 16.5 Q-6.2 15.45 -5.35 14.55 -4.85 14.0 -4.5 14.0 -2.25 13.2 -1.05 13.1 L-2.5 12.8" fill="#f3b2eb" fill-rule="evenodd" stroke="none"/>
      <path d="M40.7 27.5 L41.45 28.05 42.05 28.45 Q48.4 32.9 51.9 37.1 L53.2 39.0 Q53.7 40.05 53.7 41.7 52.35 40.35 48.4 37.05 L43.5 32.6 Q42.55 30.75 40.6 28.2 L39.3 26.55 40.7 27.5 M54.35 29.75 Q55.3 31.95 55.2 33.15 53.5 31.85 50.6 30.45 L43.6 27.3 Q41.6 26.4 39.3 24.45 L37.1 22.5 47.7 26.6 Q52.7 28.45 54.35 29.75 M40.9 34.95 L39.7 33.8 Q37.75 31.9 37.0 30.5 L37.0 30.1 Q37.0 29.55 36.6 29.05 L36.0 28.5 35.55 28.3 34.8 28.1 33.35 28.3 Q32.25 28.7 31.7 29.7 L31.25 30.6 31.0 30.8 Q30.45 31.4 30.05 30.95 L29.15 30.25 27.9 29.1 27.85 29.2 27.7 29.7 26.55 28.8 23.4 25.5 22.5 23.6 Q22.45 20.4 22.05 17.9 L22.0 17.4 23.45 18.7 26.4 21.6 26.3 21.4 28.6 23.5 29.55 24.35 Q31.85 26.2 34.45 27.7 32.3 25.25 31.2 22.85 L31.5 23.0 31.15 22.55 34.2 25.4 35.15 26.35 35.4 26.6 40.95 32.15 43.85 34.8 43.8 34.8 43.45 34.7 43.35 34.7 40.9 34.95 M33.65 10.85 L33.4 12.1 Q33.25 12.5 33.7 12.95 L34.2 13.5 26.5 9.3 24.95 8.05 26.4 8.55 29.0 9.5 30.7 9.9 32.85 10.1 Q33.8 10.05 33.65 10.85 M23.25 10.1 L25.45 10.35 Q26.95 10.8 28.2 11.7 L30.05 12.65 30.8 12.85 33.15 15.3 Q25.9 11.4 23.5 11.1 L19.4 11.35 20.0 11.0 Q21.3 10.4 23.25 10.1 M0.9 11.35 L-3.2 11.1 Q-5.6 11.4 -12.85 15.3 L-10.5 12.85 -9.75 12.65 Q-8.55 12.2 -7.9 11.7 -6.65 10.8 -5.15 10.35 L-2.95 10.1 Q-1.0 10.4 0.3 11.0 L0.9 11.35 M-8.7 9.5 L-6.1 8.55 -4.65 8.05 -6.2 9.3 -13.9 13.5 -13.4 12.95 Q-12.95 12.5 -13.1 12.1 L-13.35 10.85 Q-13.5 10.05 -12.55 10.1 L-10.4 9.9 -8.7 9.5 M-19.0 24.45 Q-21.3 26.4 -23.3 27.3 L-30.3 30.45 Q-33.2 31.85 -34.9 33.15 -35.0 31.95 -34.05 29.75 -32.4 28.45 -27.4 26.6 L-16.8 22.5 -19.0 24.45 M-21.75 28.45 L-21.15 28.05 -20.4 27.5 -19.0 26.55 -20.3 28.2 Q-22.25 30.75 -23.2 32.6 L-28.1 37.05 -33.4 41.7 Q-33.4 40.05 -32.9 39.0 L-31.6 37.1 Q-28.1 32.9 -21.75 28.45 M-10.85 22.55 L-11.2 23.0 -10.9 22.85 Q-12.0 25.25 -14.15 27.7 -11.55 26.2 -9.25 24.35 L-8.3 23.5 -6.0 21.4 -6.1 21.6 -3.15 18.7 -1.7 17.4 -1.75 17.9 Q-2.15 20.4 -2.2 23.6 L-3.1 25.5 -6.25 28.8 -7.4 29.7 -7.55 29.2 -7.6 29.1 -7.8 28.6 Q-8.4 27.6 -9.2 27.6 L-9.5 27.7 Q-6.5 25.2 -4.6 22.85 L-9.55 26.15 -13.05 28.3 -14.5 28.1 -15.25 28.3 -15.7 28.5 -16.3 29.05 Q-16.7 29.55 -16.7 30.1 L-16.7 30.5 Q-17.45 31.9 -19.4 33.8 L-20.6 34.95 -23.05 34.7 -23.1 34.7 -23.5 34.8 -23.55 34.8 -20.65 32.15 -15.1 26.6 -14.85 26.35 -13.9 25.4 -10.85 22.55" fill="#fad5e9" fill-rule="evenodd" stroke="none"/>
    </g>
  </defs>
</svg>
