<svg xmlns="http://www.w3.org/2000/svg" xmlns:ffdec="https://www.free-decompiler.com/flash" xmlns:xlink="http://www.w3.org/1999/xlink" ffdec:objectType="frame" width="65.95" height="53.4"><use ffdec:characterId="1" xlink:href="#a" width="65.95" height="53.4"/><defs><g id="a"><path fill="#f90" fill-rule="evenodd" d="M53.6 17.45v1.1l-3.15 2.2h-.05l-3.3-1.5-.3-2.7-.05-1v-.1l3.15-2.2.05.05.85.45.55.25 2 .9.25 2.5z"/><path fill="#8c2c2b" fill-rule="evenodd" d="M37.25 14.15 41.5 8.8l1.05-1.35.25 2.65 3.4-2.35-2.5-1.15 2.3-.75 6.15-2.05h.05l2.65 3.85L51.6 6.5 48.05 9l3.05 4.6 5.1-3.65.2-.1 2.65 3.75-5.45 3.8-.25-2.5-2-.9-.55-.25-.85-.45-.05-.05-3.15 2.2v.1l.05 1 .3 2.7 3.3 1.5h.05l3.15-2.2v-1.1l2.95 4.5 3.95-2.75-.15-3.75 1.8 2.6 1.15 1.6.3.1L59 25.7l-.9 1.1-.2-2.35-3.4 2.35 2.1 1.1-2.2.7-5.9 1.85.05-.5-1.15-1.6-2.75-3.95-.35-.5-2.65-3.75-.35-.5-3.8-5.45zm14.85 10.9-2.95-4.55-4.55 3.15 5.55 2.75zm-8.45-13-2.4 1.65.7 6.2.2-.1 4.5-3.1z"/><path fill="#ff7f7e" fill-rule="evenodd" d="m37.25 14.15-2.35-1-.15-2.85 5.35-3.7 4.4-3.1 5-3.5L52 1.2l.15 2.6L46 5.85l-2.3.75 2.5 1.15-3.4 2.35-.25-2.65L41.5 8.8zm17.6-6.5 2.65 1.3-1.3 1-5.1 3.65L48.05 9l3.55-2.5zm4.2 5.95 1.15-.8.15 2.65.15 3.75-3.95 2.75-2.95-4.5v-.05zm4.55 6.15 2.05 1h.05l.2 2.65.05.05-5.8 4.05-1.8 1.25h-.05l-2.6 1.85-4.5 3.15-2.6-1.05v-.05l-.1-2.2 5.9-1.85 2.2-.7-2.1-1.1 3.4-2.35.2 2.35.9-1.1zm-19.95-7.7 3 4.65-4.5 3.1-.2.1-.7-6.2zm8.45 13-1.95 1.35-5.55-2.75 4.55-3.15z"/><path fill="none" stroke="#fc0" stroke-linecap="round" stroke-linejoin="round" d="m63 20.3-2.25-3.2m-7.5-10.4L51.5 4.05M46.25 24.8l3.3 4.7M42.9 20l1.85 2.7m-6.25-8.95 3.05 4.4m16.8-4.3L56 10.5"/><path fill="#333" fill-rule="evenodd" d="m36.45 24.85-.3 1.9 1.95.25.25-1.75 1.85.2.25-1.95-1.9-.25-.25 1.85h.05v.15l-1.85-.45 1.85.45v-.15h-.05l.25-1.85 1.9.25-.25 1.95-1.85-.2L38.1 27l-1.95-.25zv-.05h.05l3.2-2.8 2.3 3.1-6.1 3.35.2-1.5-1.65-.4 1.65.4-.2 1.5-.4.2-.35.2-1.65.9-.85-1.5-.05-.05 1.55-1.4.3-.25zm-.95 3.8-1.6-.2.25-1.65-.25 1.65z"/><path fill="#f90" fill-rule="evenodd" d="m20.05 36.2 10.65-7.95.8-1.55 7.15-6.2 2.75-.95.35.5.6.8 2.05 2.95.05.05.05.1.25.35-1.85 2.25-8.4 4.4-1.65.45-11.05 7.25-1.05-1.5zM7.1 49.45v1q-.35 1.2-2 2.35l-2.25-.05-.05-.05-.55-.25-1.7-.7-.1-1.8v-.35l-.05-.35.05-.1q-1.15-.9.65-2.15 1.65-1.1 2.95-1.05l.95.3-.05.05.55.8zm29.35-24.6-2 1.7h-.05l-.2-.05v.25l-.05.05.05-.05v-.25l.2.05h.05l-.3.25-1.55 1.4.05.05.85 1.5 1.65-.9.35-.2.4-.2L42 25.1 39.7 22l-3.2 2.8h-.05zm-.95 3.8.35.05.05-.25-.05.25z"/><path fill="#ff7f7e" fill-rule="evenodd" d="m21.8 38.65-7.95 6.1-6.75 4.7-1.6-2.35-.55-.8.05-.05 6.7-4.65 8.35-5.4.7.95z"/><path fill="none" stroke="#ff51d7" stroke-linecap="round" stroke-linejoin="round" d="m36.5 24.8 1.85.45v-.15h-.05l.25-1.85 1.9.25-.25 1.95-1.85-.2L38.1 27l-1.95-.25.3-1.9v-.05zm-2.05 1.75 1.65.4-.2 1.5-.05.25-.35-.05-1.6-.2.25-1.65.05-.05v-.25l.2.05z"/><path fill-opacity=".498" fill-rule="evenodd" d="m4.95 46.3.05-.05 6.7-4.65 2.15 3.15-6.75 4.7z"/><path fill-opacity=".298" fill-rule="evenodd" d="M61.95 19.35Q55.5 24.1 47.9 28.9l-3.15-4.55-1.85 2.2-.9-1.45-2.3-3.1-1.05-1.5 2.75-.95.2.3.15.15 5.05-3.45.1 1.3-4.6 3.05 2 2.7v.05l.05.1.15.05 5.6 2.6 10.4-7.2-.2-2.65zm3.95 4.05.05.05-5.8 4.05-1.8 1.25h-.05l-2.6 1.85-4.5 3.15-2.6-1.05v-.05l8.2-4.1-1.55-.6-.1-.35q-1.95-1.5 2.3.6l.7.25-.05-2 .3-.35.05 1.4 7.2-6.75h.05zm-15.5-2.65-1.05-.5-2.25-1 3.1-2.15zm5.35-10.6.6.95-4.6 3.15-1-.45zM42.4 6l.2 2.2-4.4 6.4-3.3-1.5zm2 .95-1.9-1L52 1.1l.1 3.45zM31.5 26.7l1.1 1.5.9 1.55 1 1.2-1.65.45-2.15-3.15zM.4 49.25l2.05.05q.45-.65-.05-.9l-.65-.1q.8-.55 1.4 0t-.3 1.45q-.8.8-1.8.45l-.6-.25zm3.8.85q.65.1.35 1l-.4.65.1-.65q-.05-.55-.8-.35-1.1.35-.65 1.95l-.55-.25-.1-.5q-.2-1.35.9-1.75z"/><path fill="#fff" fill-opacity=".298" fill-rule="evenodd" d="m53.6 17.3 6.55-4.5v1.4L45.8 24.35l-1.25-.6 4.75-3.45 1.1.45 3.2-2.2V17.3M52.95 7 41.3 14.8l-.1-1.15L51.6 6.5z"/><path fill="#ff0" fill-opacity=".298" fill-rule="evenodd" d="m53.6 18.55-3.35-1.45 3.1-2.2.25 2.4v1.25"/><path fill="#fff" fill-opacity=".498" fill-rule="evenodd" d="m49.9 13.25.05.05.25 3.75-3.45-1.5v-.1z"/><path fill="#fff" fill-opacity=".298" fill-rule="evenodd" d="m41.75 20.05.6.8-2.8 1.1-5.15 4.6-.2-.05v.25l-1.6 1.45.05.05-1.2 1.1-10.7 7.8L12.4 42l-6.65 5.05-.25.05-1.45-.4q-.75-.1-1.8.45l-1.1.65q-.4.4-.4.9l.35.6.85.45-1.5-.15-.05-.35.05-.1q-1.15-.9.65-2.15 1.65-1.1 2.95-1.05l.95.3 6.7-4.65 8.35-5.4 10.65-7.95.8-1.55 7.15-6.2 2.75-.95z"/></g></defs></svg>