<?xml version="1.0" encoding="UTF-8" standalone="no"?>
<svg xmlns:ffdec="https://www.free-decompiler.com/flash" xmlns:xlink="http://www.w3.org/1999/xlink" ffdec:objectType="frame" height="60.55px" width="77.45px" xmlns="http://www.w3.org/2000/svg">
  <g transform="matrix(1.0, 0.0, 0.0, 1.0, 17.8, 14.3)">
    <use ffdec:characterId="2" height="26.3" id="Color" transform="matrix(1.0, 0.0, 0.0, 1.0, 28.1, -14.3)" width="31.55" xlink:href="#sprite0"/>
    <use ffdec:characterId="3" height="60.55" transform="matrix(1.0, 0.0, 0.0, 1.0, -17.8, -14.3)" width="77.45" xlink:href="#shape1"/>
  </g>
  <defs>
    <g id="sprite0" transform="matrix(1.0, 0.0, 0.0, 1.0, 0.0, 0.0)">
      <use ffdec:characterId="1" height="26.3" transform="matrix(1.0, 0.0, 0.0, 1.0, 0.0, 0.0)" width="31.55" xlink:href="#shape0"/>
    </g>
    <g id="shape0" transform="matrix(1.0, 0.0, 0.0, 1.0, 0.0, 0.0)">
      <path d="M28.05 4.85 L22.9 15.75 20.05 17.9 5.95 23.9 6.25 26.3 4.25 25.2 2.25 22.6 0.4 20.05 0.5 19.95 0.0 17.65 2.2 18.75 11.5 6.5 14.4 4.35 26.4 2.55 29.8 0.0 31.55 2.25 28.05 4.85" fill="#325a04" fill-rule="evenodd" stroke="none"/>
    </g>
    <g id="shape1" transform="matrix(1.0, 0.0, 0.0, 1.0, 17.8, 14.3)">
      <path d="M33.15 18.0 L37.75 24.3 Q38.55 25.1 36.7 26.35 34.9 27.75 34.35 26.7 L29.7 20.55 33.15 18.0 M19.15 20.65 L26.35 30.35 Q27.0 31.25 24.85 32.7 22.8 34.05 22.35 33.3 L15.15 23.6 19.15 20.65 M11.15 26.6 L-1.4 35.95 -5.25 30.8 7.35 21.45 11.15 26.6" fill="#a37640" fill-rule="evenodd" stroke="none"/>
      <path d="M12.9 25.35 L13.3 25.85 11.6 27.15 11.15 26.6 7.35 21.45 6.9 20.85 8.65 19.55 9.05 20.15 12.9 25.35 M-1.4 35.95 L-3.15 37.2 -6.9 32.0 -5.25 30.8 -1.4 35.95" fill="#cccccc" fill-rule="evenodd" stroke="none"/>
      <path d="M9.05 20.15 L14.75 15.9 13.05 13.6 11.4 14.9 9.6 16.15 7.1 12.7 8.8 11.5 11.9 9.15 10.95 3.7 13.85 1.55 15.55 0.3 18.55 4.25 21.05 7.65 17.05 10.6 18.75 12.95 22.8 10.0 22.25 9.25 26.2 5.55 27.15 6.8 28.5 5.75 30.35 8.3 32.35 10.9 29.85 12.7 31.1 14.4 33.15 18.0 29.7 20.55 28.35 21.55 23.9 19.75 22.6 18.1 19.15 20.65 15.15 23.6 12.9 25.35 9.05 20.15 M-3.15 37.2 L-9.75 43.85 -8.9 44.95 -10.6 46.25 -17.8 36.5 -16.1 35.25 -15.3 36.4 -6.9 32.0 -3.15 37.2" fill="#333333" fill-rule="evenodd" stroke="none"/>
      <path d="M56.15 -9.45 L54.5 -11.75 57.9 -14.3 59.65 -12.05 56.15 -9.45 M42.5 -9.95 L51.0 1.45 48.15 3.6 39.6 -7.8 42.5 -9.95 M34.05 9.6 L34.35 12.0 32.35 10.9 30.35 8.3 28.5 5.75 28.6 5.65 28.1 3.35 30.3 4.45 30.2 4.5 32.05 7.05 34.0 9.6 34.05 9.6 M29.85 12.7 L31.1 14.4 27.2 17.25 23.9 19.75 22.6 18.1 29.85 12.7 M10.95 3.7 L13.85 1.55 16.85 5.5 11.9 9.15 10.95 3.7 M7.1 12.7 L8.8 11.5 11.4 14.9 9.6 16.15 7.1 12.7 M18.75 12.95 L14.75 15.9 13.05 13.6 17.05 10.6 18.75 12.95 M-15.3 36.4 L-9.75 43.85 -8.9 44.95 -10.6 46.25 -17.8 36.5 -16.1 35.25 -15.3 36.4" fill="#000000" fill-opacity="0.49803922" fill-rule="evenodd" stroke="none"/>
      <path d="M41.9 -2.3 L31.7 6.55 30.75 5.25 39.7 -5.25 41.9 -2.3 M30.0 7.8 L10.4 21.95 11.1 23.0 9.45 24.3 9.05 23.75 -5.15 34.35 -12.6 39.75 -11.8 41.1 -14.35 37.2 -14.5 37.0 -6.1 33.15 -6.8 32.05 7.4 21.5 6.95 20.8 8.6 19.5 9.7 21.0 29.05 6.55 30.0 7.8 M12.35 5.05 L12.85 8.4 18.55 4.3 19.35 5.35 9.65 12.65 10.05 13.1 Q9.2 13.75 8.3 14.35 L7.1 12.7 11.9 9.1 11.05 4.45 12.35 5.05" fill="#ffffff" fill-opacity="0.4" fill-rule="evenodd" stroke="none"/>
      <path d="M39.7 -5.25 L38.7 -6.55 39.65 -7.9 40.9 -6.35 39.7 -5.25 M43.1 -3.3 L46.05 0.65 48.85 -1.45 55.7 -10.15 56.1 -9.55 50.85 1.25 48.0 3.45 33.85 9.55 29.75 12.65 31.1 14.4 32.05 16.05 23.9 19.7 22.6 18.1 19.1 20.7 26.5 30.8 25.85 31.8 20.5 24.65 17.5 26.7 15.1 23.6 12.95 25.3 13.35 25.8 11.3 26.85 11.05 26.6 -3.15 37.25 -9.65 43.75 -9.35 44.4 -11.05 45.7 -12.2 44.3 -4.05 35.8 Q3.1 30.6 10.2 25.35 L29.6 10.55 30.25 8.2 31.15 9.5 31.2 9.4 32.85 8.1 44.5 1.35 41.9 -2.3 43.1 -3.3 M30.7 19.8 L35.25 26.0 35.55 26.25 Q35.9 26.65 36.3 26.65 L34.5 27.05 29.55 20.55 30.7 19.8 M17.9 11.8 L15.75 15.1 14.65 15.85 13.0 13.6 11.4 14.9 10.65 13.9 19.45 7.4 21.0 7.7 17.05 10.6 17.9 11.8" fill="#000000" fill-opacity="0.4" fill-rule="evenodd" stroke="none"/>
      <path d="M39.7 -5.25 L40.9 -6.35 43.1 -3.3 41.9 -2.3 39.7 -5.25" fill="#434343" fill-opacity="0.4" fill-rule="evenodd" stroke="none"/>
      <path d="M31.7 6.55 L30.0 7.8 29.05 6.55 30.75 5.25 31.7 6.55 M-11.8 41.1 L-13.35 42.5 -16.3 38.5 -14.35 37.2 -11.8 41.1 M-14.55 37.05 L-14.5 37.0 -14.35 37.2 -14.55 37.05 M11.05 4.45 L10.95 3.7 15.55 0.35 17.2 2.35 15.6 3.75 14.6 2.45 12.25 4.2 12.35 5.05 11.05 4.45" fill="#ffffff" fill-opacity="0.6" fill-rule="evenodd" stroke="none"/>
      <path d="M-16.3 38.5 L-17.25 37.25 -15.55 36.1 -14.85 37.1 -14.55 37.05 -14.35 37.2 -16.3 38.5" fill="#ffffff" fill-opacity="0.9019608" fill-rule="evenodd" stroke="none"/>
      <path d="M43.4 -8.55 L43.55 -8.6 43.6 -8.6 53.7 -10.9 54.4 -9.95 45.95 -5.4 45.8 -5.3 45.8 -5.25 43.4 -8.55 M55.15 -11.3 L58.35 -13.65 58.9 -12.95 55.65 -10.65 55.15 -11.3" fill="#ffffff" fill-opacity="0.8" fill-rule="evenodd" stroke="none"/>
      <path d="M40.9 -6.35 L43.4 -8.55 45.8 -5.25 43.1 -3.3 40.9 -6.35" fill="#ffffff" fill-opacity="0.69411767" fill-rule="evenodd" stroke="none"/>
      <path d="M53.7 -10.9 L55.15 -11.3 55.65 -10.65 55.6 -10.65 54.4 -9.95 53.7 -10.9" fill="#b4b4b4" fill-opacity="0.4" fill-rule="evenodd" stroke="none"/>
    </g>
  </defs>
</svg>
