<?xml version="1.0" encoding="UTF-8" standalone="no"?>
<svg xmlns:ffdec="https://www.free-decompiler.com/flash" xmlns:xlink="http://www.w3.org/1999/xlink" ffdec:objectType="frame" height="36.85px" width="27.7px" xmlns="http://www.w3.org/2000/svg">
  <g transform="matrix(1.0, 0.0, 0.0, 1.0, -16.45, -22.75)">
    <use ffdec:characterId="1" height="36.85" transform="matrix(1.0, 0.0, 0.0, 1.0, 16.45, 22.75)" width="27.7" xlink:href="#shape0"/>
  </g>
  <defs>
    <g id="shape0" transform="matrix(1.0, 0.0, 0.0, 1.0, -16.45, -22.75)">
      <path d="M23.85 23.5 L24.95 24.8 Q26.05 26.3 25.7 27.55 L24.9 29.85 Q24.35 30.9 23.15 31.8 20.35 34.15 20.3 35.25 L20.35 35.3 Q20.0 36.9 21.0 38.0 21.5 38.6 22.1 38.85 22.1 37.7 22.7 36.55 L23.0 36.05 Q23.9 34.5 25.7 33.6 31.2 35.7 30.25 39.9 L30.1 40.45 29.95 41.05 Q29.35 42.5 28.25 43.8 L27.75 43.85 25.65 43.5 Q23.4 42.75 22.5 40.65 22.1 39.75 22.1 38.85 L20.4 39.15 20.25 39.15 Q17.85 37.95 18.3 35.55 18.7 33.25 21.35 31.05 23.5 29.25 23.95 27.05 L24.0 25.2 Q23.55 24.0 22.35 23.45 L21.3 23.15 Q22.0 22.55 22.95 22.9 L23.85 23.5 M32.7 41.7 L33.1 41.25 34.85 42.35 36.15 42.95 38.2 43.45 38.35 43.45 39.2 43.7 Q39.95 44.05 40.0 44.9 L38.5 45.6 Q37.3 45.95 36.35 45.6 35.9 44.2 34.5 42.95 L32.7 41.7 M28.3 49.1 Q29.35 48.2 29.7 47.3 L29.5 48.55 29.35 49.25 29.05 50.1 27.85 52.45 Q26.8 53.9 24.95 53.4 23.2 52.9 22.8 51.45 L23.5 51.5 25.45 50.95 25.55 50.9 26.6 50.3 27.8 49.5 28.3 49.1 M27.3 36.8 L26.25 36.7 Q25.75 36.9 25.55 37.4 25.25 37.9 25.45 38.4 25.6 38.95 26.15 39.2 L27.2 39.3 27.95 38.6 28.0 37.6 Q27.85 37.0 27.3 36.8 M36.15 48.25 L36.3 47.8 36.55 47.75 42.0 50.85 43.1 50.95 42.4 51.65 Q41.45 52.25 40.15 51.65 L40.1 51.65 35.9 48.65 36.15 48.25" fill="#ffffff" fill-rule="evenodd" stroke="none"/>
      <path d="M42.95 35.5 Q42.75 36.3 41.9 36.85 L40.35 37.6 37.55 37.65 35.45 36.3 Q34.6 35.5 33.95 34.15 32.45 30.8 31.3 30.5 L32.45 29.55 33.7 30.7 35.55 32.9 37.5 35.2 Q40.05 37.1 42.95 35.5 M31.35 26.55 Q32.35 26.75 33.45 27.6 L33.75 27.9 Q30.4 26.6 29.2 29.55 28.6 31.0 28.65 32.8 L29.95 32.9 30.85 33.1 Q33.15 33.85 34.05 35.9 34.85 37.95 33.8 40.1 L33.1 41.25 32.7 41.7 32.5 41.85 31.9 42.4 30.8 43.05 30.4 43.25 29.7 43.5 28.25 43.8 Q29.35 42.5 29.95 41.05 L30.25 41.0 30.1 40.45 30.25 39.9 Q31.2 35.7 25.7 33.6 L26.15 33.35 27.6 32.95 Q27.3 31.2 27.55 29.65 28.0 26.95 29.95 26.55 L30.7 26.45 31.35 26.55 M35.85 48.7 L35.9 48.65 40.1 51.65 40.15 51.65 Q41.45 52.25 42.4 51.65 L43.1 50.95 43.75 51.25 44.1 52.0 Q44.35 52.8 43.75 53.35 L42.1 54.4 Q41.05 54.9 40.2 54.4 37.7 53.05 35.15 49.45 L35.85 48.7 M31.7 36.0 L32.6 36.2 Q33.1 36.2 33.25 35.85 33.45 35.5 33.15 35.05 32.95 34.7 32.45 34.45 32.0 34.15 31.55 34.2 L30.95 34.65 Q30.75 35.0 31.0 35.35 L31.7 36.0" fill="#d7a8a8" fill-rule="evenodd" stroke="none"/>
      <path d="M27.75 43.85 L28.25 43.8 29.7 43.5 Q29.95 45.45 29.7 47.3 29.35 48.2 28.3 49.1 L27.8 49.5 26.6 50.3 25.55 50.9 25.45 50.95 23.5 51.5 22.8 51.45 Q22.5 50.3 23.85 49.1 L25.3 48.1 Q26.85 46.6 27.75 43.85 M33.05 52.95 L33.1 52.9 33.05 52.9 32.45 49.8 33.0 49.75 34.0 50.05 Q34.75 51.5 36.4 56.45 L37.0 56.95 Q35.55 57.15 34.55 56.1 L34.5 56.05 Q33.7 55.2 33.15 53.65 L33.05 52.95 M32.5 41.85 L32.7 41.7 34.5 42.95 Q35.9 44.2 36.35 45.6 L36.5 46.35 36.45 47.15 36.3 47.8 36.15 48.25 35.9 48.65 35.85 48.7 35.15 49.45 34.85 49.65 34.85 47.7 34.8 47.5 34.15 45.5 33.45 44.3 32.45 42.95 32.4 42.95 31.9 42.4 32.5 41.85" fill="#b4709d" fill-rule="evenodd" stroke="none"/>
      <path d="M29.7 47.3 Q29.95 45.45 29.7 43.5 L30.4 43.25 30.8 43.05 31.9 42.4 32.4 42.95 32.45 42.95 33.45 44.3 34.15 45.5 34.8 47.5 34.85 47.7 34.85 49.65 34.0 50.05 33.0 49.75 32.45 49.8 Q31.65 49.85 31.1 50.4 L31.05 50.4 Q30.05 50.1 29.35 49.25 L29.5 48.55 29.7 47.3 M42.75 34.25 Q43.1 34.85 42.95 35.5 40.05 37.1 37.5 35.2 L35.55 32.9 33.7 30.7 32.45 29.55 31.3 30.5 Q30.4 31.45 29.95 32.9 L28.65 32.8 Q28.6 31.0 29.2 29.55 30.4 26.6 33.75 27.9 L34.6 28.8 Q36.1 30.7 37.7 32.1 39.4 33.55 40.4 33.55 41.8 33.55 42.75 34.25" fill="#600422" fill-rule="evenodd" stroke="none"/>
      <path d="M32.45 34.5 L31.7 34.4 Q31.4 34.45 31.25 34.7 L31.25 35.25 31.85 35.7 32.5 35.85 33.0 35.55 32.95 35.0 32.45 34.5 M30.95 34.65 L31.55 34.2 Q32.0 34.15 32.45 34.45 32.95 34.7 33.15 35.05 33.45 35.5 33.25 35.85 33.1 36.2 32.6 36.2 L31.7 36.0 31.0 35.35 Q30.75 35.0 30.95 34.65 M27.25 37.0 L26.45 36.95 Q25.95 37.1 25.8 37.5 25.6 37.9 25.75 38.25 L26.25 38.9 27.05 38.95 27.65 38.4 27.75 37.6 27.25 37.0 M27.3 36.8 Q27.85 37.0 28.0 37.6 L27.95 38.6 27.2 39.3 26.15 39.2 Q25.6 38.95 25.45 38.4 25.25 37.9 25.55 37.4 25.75 36.9 26.25 36.7 L27.3 36.8" fill="#000000" fill-rule="evenodd" stroke="none"/>
      <path d="M40.0 50.05 L40.0 50.15 40.2 51.55 40.15 51.6 40.2 51.6 40.25 51.65 40.2 51.55 41.85 51.3 41.95 51.3 42.0 51.35 41.95 51.45 41.9 51.5 40.25 51.75 40.3 51.8 40.35 53.6 40.35 53.7 40.25 53.7 40.2 53.7 40.15 53.6 40.05 51.75 40.0 51.7 40.0 51.8 38.6 52.05 38.55 52.0 38.5 52.0 38.5 51.9 38.6 51.85 40.0 51.6 39.8 50.2 39.8 50.1 39.9 50.05 40.0 50.05 M36.9 48.6 L36.9 48.55 37.0 48.5 37.1 48.5 37.15 48.55 37.35 49.5 38.85 49.3 38.95 49.3 38.95 49.4 38.95 49.5 38.9 49.55 37.4 49.7 37.85 51.25 37.8 51.3 37.75 51.35 37.65 51.3 37.6 51.3 37.2 49.75 35.95 49.9 35.9 49.85 35.85 49.75 35.85 49.7 35.95 49.65 37.15 49.55 36.9 48.6 M26.6 48.9 L26.65 48.85 26.7 48.85 28.1 49.55 28.35 48.05 28.4 47.95 28.5 47.95 28.55 48.0 28.6 48.1 28.3 49.6 29.1 50.0 29.2 50.05 29.15 50.15 29.1 50.25 29.0 50.2 28.3 49.85 28.0 51.4 27.95 51.45 27.9 51.5 27.8 51.45 27.8 51.35 28.05 49.7 26.8 49.1 26.6 51.8 26.6 51.9 26.5 51.95 26.45 51.9 24.6 50.4 24.55 50.35 24.55 50.3 24.65 50.25 24.75 50.25 26.4 51.6 26.6 48.9 M34.1 36.9 L34.15 36.95 34.15 37.05 33.9 37.95 33.8 38.3 34.1 39.05 34.05 39.1 34.0 39.2 33.9 39.15 33.85 39.1 33.65 38.55 32.7 39.85 32.15 40.35 31.65 41.7 31.55 41.75 31.45 41.75 31.4 41.7 31.4 41.6 31.85 40.55 30.4 41.1 30.55 42.05 30.5 42.15 30.45 42.2 30.4 42.15 30.35 42.1 30.15 41.15 30.0 41.2 29.95 41.2 28.05 41.15 27.25 42.4 27.1 42.4 27.05 42.35 27.05 42.25 27.9 41.1 25.55 40.45 25.5 40.35 25.5 40.3 25.55 40.25 25.6 40.25 27.95 40.9 28.1 40.4 28.2 39.8 28.25 39.7 28.3 39.7 28.35 39.75 28.4 39.85 28.3 40.5 28.2 40.95 29.9 41.0 30.1 40.95 29.85 39.55 29.85 39.45 29.95 39.4 30.05 39.4 30.05 39.5 30.35 40.9 31.95 40.25 32.05 38.7 32.05 38.6 32.1 38.6 32.2 38.6 32.25 38.65 32.2 40.0 32.5 39.65 33.55 38.35 32.6 37.45 32.55 37.4 32.55 37.3 32.65 37.25 32.7 37.25 33.6 38.1 33.7 37.9 33.95 37.0 34.0 36.9 34.1 36.9" fill="#000000" fill-rule="evenodd" stroke="none"/>
      <path d="M21.3 23.15 L22.35 23.45 Q23.55 24.0 24.0 25.2 L23.95 27.05 Q23.5 29.25 21.35 31.05 18.7 33.25 18.3 35.55 17.85 37.95 20.25 39.15 17.2 39.3 16.5 36.9 16.25 35.55 17.0 33.9 L17.85 32.5 20.25 28.7 Q21.3 26.65 21.05 25.7 20.75 24.3 21.15 23.2 L21.3 23.15 M31.85 35.7 L31.25 35.25 31.25 34.7 Q31.4 34.45 31.7 34.4 L32.45 34.5 32.95 35.0 33.0 35.55 32.5 35.85 31.85 35.7 M23.0 36.05 L22.7 36.55 Q22.1 37.7 22.1 38.85 21.5 38.6 21.0 38.0 20.0 36.9 20.35 35.3 21.5 35.9 23.0 36.05 M27.25 37.0 L27.75 37.6 27.65 38.4 27.05 38.95 26.25 38.9 25.75 38.25 Q25.6 37.9 25.8 37.5 25.95 37.1 26.45 36.95 L27.25 37.0 M38.5 45.6 L40.0 44.9 40.0 45.05 Q40.05 46.0 39.4 46.65 L38.95 47.05 36.45 47.15 36.5 46.35 36.35 45.6 Q37.3 45.95 38.5 45.6 M32.45 49.8 L33.05 52.9 33.05 52.95 33.15 53.65 Q33.7 55.2 34.5 56.05 L34.5 56.1 34.55 56.1 Q35.55 57.15 37.0 56.95 37.9 57.75 37.75 58.0 L37.4 58.85 Q36.9 59.65 35.85 59.6 L33.3 59.25 Q31.9 58.85 31.45 57.85 30.3 55.05 31.1 50.4 31.65 49.85 32.45 49.8" fill="#763455" fill-rule="evenodd" stroke="none"/>
      <path d="M32.5 55.5 L32.6 55.5 34.4 56.0 35.1 54.35 35.15 54.3 35.2 54.3 35.3 54.35 35.3 54.4 34.65 56.1 36.2 56.45 36.25 56.5 36.3 56.6 36.25 56.65 36.2 56.7 34.55 56.25 33.95 57.65 33.85 57.75 33.8 57.75 33.75 57.65 33.75 57.55 34.3 56.2 32.55 55.75 32.45 55.65 32.45 55.6 32.5 55.5 M33.75 51.6 L33.8 51.55 33.9 51.55 33.95 51.65 33.9 51.7 33.25 52.85 34.45 53.5 34.5 53.6 34.5 53.65 34.45 53.7 34.35 53.7 33.1 53.05 32.3 54.35 32.25 54.4 32.15 54.4 32.1 54.35 32.1 54.25 32.9 52.95 31.6 52.25 31.55 52.2 31.55 52.1 31.65 52.05 31.7 52.05 33.05 52.8 33.75 51.6 M32.45 41.75 L32.5 41.75 32.6 41.8 32.65 41.85 32.5 42.8 34.25 42.7 34.35 42.7 34.4 42.75 34.35 42.85 34.25 42.9 32.45 43.05 32.25 44.45 35.0 43.9 35.1 43.9 35.15 44.0 35.1 44.1 33.45 46.95 34.85 47.55 35.9 46.15 36.0 46.15 36.1 46.15 36.15 46.2 36.1 46.3 35.05 47.65 36.2 48.2 36.25 48.2 36.25 48.3 36.2 48.4 36.1 48.4 34.85 47.9 33.85 49.15 33.8 49.2 33.75 49.15 33.7 49.1 33.7 49.0 34.65 47.75 33.2 47.15 33.15 47.1 33.15 47.0 33.15 46.95 34.8 44.15 32.15 44.7 32.1 44.7 32.05 44.6 32.05 44.55 32.25 43.05 30.85 43.2 30.75 43.15 30.7 43.1 30.7 43.05 30.8 43.0 32.3 42.85 32.45 41.85 32.45 41.75" fill="#e3d7ad" fill-rule="evenodd" stroke="none"/>
      <path d="M36.15 42.85 L36.2 42.9 37.4 44.2 38.1 43.4 38.2 43.4 38.25 43.4 38.3 43.45 38.25 43.55 37.6 44.4 39.5 46.6 39.55 46.65 39.5 46.75 39.4 46.8 39.3 46.75 37.4 44.55 36.7 45.2 36.6 45.25 36.55 45.2 36.55 45.15 36.55 45.05 37.25 44.4 36.05 43.05 36.05 42.95 36.1 42.85 36.15 42.85 M26.85 37.1 L26.95 37.1 27.0 37.15 27.0 37.25 26.85 37.85 27.45 37.8 27.55 37.8 27.6 37.9 27.55 37.95 27.5 38.0 26.75 38.05 26.6 38.6 26.55 38.6 26.5 38.65 26.4 38.6 26.4 38.55 26.55 38.05 25.95 38.0 25.9 37.95 25.9 37.9 25.9 37.8 26.0 37.8 26.6 37.85 26.8 37.15 26.85 37.1 M31.85 34.55 L31.95 34.55 32.0 34.6 32.15 34.95 32.65 34.95 32.75 34.95 32.8 35.05 32.75 35.15 32.65 35.2 32.3 35.2 32.35 35.35 32.4 35.45 32.3 35.5 32.2 35.5 32.15 35.45 32.1 35.2 31.45 35.1 31.4 35.05 31.4 34.95 31.4 34.85 31.5 34.85 31.95 34.9 31.8 34.7 31.8 34.6 31.85 34.55" fill="#9772e5" fill-rule="evenodd" stroke="none"/>
      <path d="M41.9 34.85 Q41.8 34.1 40.9 33.7 L40.35 33.55 40.4 33.55 Q41.8 33.55 42.75 34.25 43.1 34.85 42.95 35.5 42.75 36.3 41.9 36.85 L40.35 37.6 37.95 37.85 Q39.65 37.85 40.85 36.85 L41.6 36.05 Q41.95 35.5 41.9 34.85 M23.85 23.5 L24.95 24.8 Q26.05 26.3 25.7 27.55 L25.55 28.3 25.2 26.8 Q24.7 25.5 23.9 25.0 L23.5 24.8 Q21.3 24.05 21.1 26.0 L21.05 25.7 Q20.75 24.3 21.15 23.2 L21.3 23.15 Q22.0 22.55 22.95 22.9 L23.85 23.5 M32.45 29.55 L33.7 30.7 35.35 32.6 Q33.7 31.5 32.4 31.4 L31.3 30.5 32.45 29.55 M17.85 32.55 Q17.7 34.5 18.25 35.85 18.7 37.15 19.8 37.9 20.85 38.7 22.0 38.8 L22.1 38.85 20.4 39.15 20.25 39.15 Q17.2 39.3 16.5 36.9 16.25 35.55 17.0 33.9 L17.85 32.55 M22.1 38.85 L22.1 38.8 22.15 38.8 Q25.0 42.8 29.15 42.6 L29.45 42.55 Q31.45 42.35 32.95 41.4 L33.1 41.25 34.85 42.35 35.0 42.4 Q36.65 43.55 37.0 45.55 L37.05 45.8 Q37.2 46.65 37.0 47.4 L36.45 47.15 36.5 46.35 36.35 45.6 Q35.9 44.2 34.5 42.95 L33.3 42.1 32.4 42.9 Q31.35 43.65 29.95 44.05 30.4 45.25 30.35 47.5 L30.15 50.0 29.35 49.25 29.5 48.55 29.7 47.3 29.75 44.1 27.6 44.35 27.75 43.85 25.65 43.5 Q23.4 42.75 22.5 40.65 22.1 39.75 22.1 38.85 M36.55 49.15 L35.55 50.05 35.15 49.45 35.85 48.7 35.9 48.65 36.15 48.25 36.3 47.8 36.55 47.75 36.9 47.9 36.55 49.15 M35.8 58.5 Q36.9 58.5 37.75 57.8 L37.75 58.0 37.4 58.85 Q36.9 59.65 35.85 59.6 L33.3 59.25 Q31.9 58.85 31.45 57.85 L31.05 56.35 Q32.45 58.5 35.8 58.5 M43.1 50.95 L43.75 51.25 44.1 52.0 Q44.35 52.8 43.75 53.35 L42.1 54.4 40.75 54.6 Q42.95 53.95 43.1 52.0 L42.9 51.3 42.6 51.05 42.05 50.85 43.1 50.95 M22.85 51.55 Q23.6 52.5 26.45 52.0 27.45 51.8 29.05 50.1 L27.85 52.45 Q26.8 53.9 24.95 53.4 23.25 52.9 22.85 51.55" fill="#000000" fill-opacity="0.49803922" fill-rule="evenodd" stroke="none"/>
      <path d="M19.2 37.75 L20.15 37.9 Q20.9 37.45 21.3 37.35 L21.05 38.3 18.95 41.45 18.35 40.0 16.85 39.4 19.2 37.75" fill="url(#gradient0)" fill-rule="evenodd" stroke="none"/>
      <path d="M21.3 37.35 Q20.9 37.45 20.15 37.9 L19.2 37.75 18.15 37.55 Q18.7 36.5 19.3 36.5 19.5 34.95 19.95 34.3 L20.75 34.85 Q21.6 35.6 21.65 36.45 L21.3 37.2 21.3 37.35" fill="url(#gradient1)" fill-rule="evenodd" stroke="none"/>
      <path d="M21.6 37.75 L21.6 37.7 21.75 37.4 21.85 37.15 Q22.15 36.75 22.55 36.75 L24.15 36.85 25.25 37.0 Q25.0 37.9 23.8 38.65 L23.3 39.75 23.15 40.05 Q21.65 39.0 21.6 37.75" fill="url(#gradient2)" fill-rule="evenodd" stroke="none"/>
      <path d="M21.6 37.75 Q21.65 39.0 23.15 40.05 L23.3 39.75 23.75 41.8 22.15 41.55 20.95 42.25 Q21.05 38.8 21.6 37.75" fill="url(#gradient3)" fill-rule="evenodd" stroke="none"/>
      <path d="M21.75 36.3 Q22.15 36.35 22.55 36.75 22.15 36.75 21.85 37.15 L21.75 37.4 21.6 37.7 21.3 37.2 21.65 36.45 21.75 36.3" fill="url(#gradient4)" fill-rule="evenodd" stroke="none"/>
      <path d="M20.15 37.9 L21.2 37.35 21.05 38.15 18.8 38.1 19.15 37.7 20.15 37.9 M23.15 40.05 L23.3 39.75 23.5 40.6 Q22.45 40.35 21.8 39.55 L21.3 38.75 21.6 37.7 21.6 37.75 Q21.65 39.0 23.15 40.05 M21.5 36.7 Q20.55 36.55 20.3 36.05 20.85 36.0 21.25 36.4 L21.5 36.7 M22.15 37.15 L22.55 37.1 Q23.15 37.15 23.45 37.55 22.95 37.7 22.15 37.15" fill="#000000" fill-opacity="0.4" fill-rule="evenodd" stroke="none"/>
    </g>
    <linearGradient gradientTransform="matrix(-0.0015, 0.0019, 0.0022, 0.0017, 19.15, 38.55)" gradientUnits="userSpaceOnUse" id="gradient0" spreadMethod="pad" x1="-819.2" x2="819.2">
      <stop offset="0.0" stop-color="#c7bae2"/>
      <stop offset="1.0" stop-color="#ffffff"/>
    </linearGradient>
    <linearGradient gradientTransform="matrix(-0.0016, -0.001, -0.0012, 0.0018, 20.15, 36.2)" gradientUnits="userSpaceOnUse" id="gradient1" spreadMethod="pad" x1="-819.2" x2="819.2">
      <stop offset="0.0" stop-color="#c7bae2"/>
      <stop offset="1.0" stop-color="#ffffff"/>
    </linearGradient>
    <linearGradient gradientTransform="matrix(0.0014, 0.001, 0.0012, -0.0018, 22.9, 38.2)" gradientUnits="userSpaceOnUse" id="gradient2" spreadMethod="pad" x1="-819.2" x2="819.2">
      <stop offset="0.0" stop-color="#c7bae2"/>
      <stop offset="1.0" stop-color="#ffffff"/>
    </linearGradient>
    <linearGradient gradientTransform="matrix(1.0E-4, 0.0023, 0.0027, -1.0E-4, 22.5, 40.2)" gradientUnits="userSpaceOnUse" id="gradient3" spreadMethod="pad" x1="-819.2" x2="819.2">
      <stop offset="0.0" stop-color="#c7bae2"/>
      <stop offset="1.0" stop-color="#ffffff"/>
    </linearGradient>
    <linearGradient gradientTransform="matrix(4.0E-4, -6.0E-4, 7.0E-4, 5.0E-4, 21.9, 37.0)" gradientUnits="userSpaceOnUse" id="gradient4" spreadMethod="pad" x1="-819.2" x2="819.2">
      <stop offset="0.0" stop-color="#c7bae2"/>
      <stop offset="1.0" stop-color="#ffffff"/>
    </linearGradient>
  </defs>
</svg>
