<svg xmlns="http://www.w3.org/2000/svg" xmlns:ffdec="https://www.free-decompiler.com/flash" xmlns:xlink="http://www.w3.org/1999/xlink" ffdec:objectType="frame" width="42.15" height="24.7"><use ffdec:characterId="1" xlink:href="#a" width="42.15" height="24.7"/><defs><g id="a" fill-rule="evenodd"><path fill="#ccc" d="M35.75 3h-.8q-1.15.1-2.3 1.1l-.8.85-.3.3-.8 1.45q-.5 1-.9 3.05l-1.3 5.95q-.85 3.9-3.05 5.95-2.25 2.05-4.45 2.7t-6.85.05q-4.65-.65-9.2-5.8-4-4.5-4.5-6.35l-.15-.5Q0 11 0 10.7l.05-.2-.05-.2q0-.85.5-1.15.25-.5 1.05-.35Q2.5 9 2.7 10l.15.2 1.35 2.25.75 1.1.5.75.45.6 1.5 1.55.2.25.4.4.55.6.2.15.3.35q3.05 3.1 6.7 3.3l4.85-.45.5-.2q1.1-.6 2.05-1.5l1-1.2q1.3-1.8 1.7-4.2l.85-4.3q.4-1.9 1.5-4.45 1.05-2.6 3.85-4.25t6-.5q3.15 1.1 3.75 3.45.55 2.25.25 3.45l.05.05-.05.3v.25l-.15.7-.15.85-.35.85-.85 1.35-.7.5h-.75q-.85-.25-.85-1.05l.2-1.15.35-.65.35-.85.25-1.9q0-3.6-3.65-3.6"/><path fill="#100c1e" fill-opacity=".298" d="m7.2 18.8.9.75q1.3 1.2 3 2l.2.15.95.15.15.15h.45q.25.25.8.35h.1l.25.25q3 .65 5.95 0l1.9-.45.25-.25.85-.2.6-.35.15-.2 1.05-1 1.4-1.8.9-2.1.3-.7.35-1 1-2.35q.85-1.8 1.4-4.15l-1.55 7.65q-.85 3.9-3.05 5.95-2.25 2.05-4.45 2.7t-6.85.05q-4.65-.65-9.2-5.8-4-4.5-4.5-6.35l-.15-.5Q0 11 0 10.7l.05-.2-.05-.2q0-.85.5-1.15l.4-.35 2.4 4.3 1.25 1.65.85 1.5.35.4.1.45z"/></g></defs></svg>