<svg xmlns="http://www.w3.org/2000/svg" xmlns:ffdec="https://www.free-decompiler.com/flash" xmlns:xlink="http://www.w3.org/1999/xlink" ffdec:objectType="frame" width="41.8" height="19.95"><g transform="translate(10.8 -20.55)"><use ffdec:characterId="2" xlink:href="#a" width="29.7" height="19.1" transform="translate(-4.85 21.4)"/><use ffdec:characterId="3" xlink:href="#b" width="41.8" height="19.85" transform="translate(-10.8 20.55)"/></g><defs><path id="c" fill="#069" fill-rule="evenodd" d="m27.85 2.65.35 6-.55 2.3-1.25 6.4-.35 1.75-3.65-.3.95-7.5 2 .25.95-6.6-2.15-.25.15-1.3L26.55.5q.9-1.1 2.75.15l.4.15zM5.4 3.4l.15 1.3-2.2.25 1 6.6 2-.25.95 7.5-3.65.3-.35-1.75-1.2-6.4L0 .8.45.65l2.7-.1z"/><use ffdec:characterId="1" xlink:href="#c" id="a" width="29.7" height="19.1"/><g id="b"><path fill-rule="evenodd" d="M12.45 17.9v.45l-1.85.15v-.45zm.1.75v.45l-1.85.15v-.45zm-.25-1.55v.45l-1.85.15v-.45zm16.9 0 1.85.15v.45l-1.85-.15zm-.25 1.55 1.85.15v.45l-1.85-.15zm.1-.3v-.45l1.85.15v.45z"/><path fill="#333" fill-rule="evenodd" d="m33.8 3.5 1.85-1.85q.85.05 2.7-.75L39.7.4q1.25-.5 1.55-.35.85.95-.25 5.4l-1.6.4-1.4.4-1.95.75q-1.35.6-1.9 2.5-.7-2.05-.35-6M1.9.4q.55.15 1.35.55 1.85.75 2.7.7Q8 5.5 7.5 9.5 6.9 7.6 5.55 7L3.6 6.25 2.2 5.9.6 5.45Q-.45 1.05.35.05q.3-.1 1.55.35"/><path fill-rule="evenodd" d="m11.5 5.55.8 6.6-2 .25-1-6.6zm18.6 0 2.15.25-.95 6.6-2-.25z"/><path fill="#fff" fill-opacity=".498" fill-rule="evenodd" d="M37.7 1.8 40.8.6q1.25.05.9 1.75-3.95 1.5-7.95 1.6l-1.95-1.4q.7-1.3 1.8-1.25.6.05 1.9.7zM4.15 1.8l2.2.2 1.9-.7q1.1-.05 1.8 1.25L8.1 3.95Q4.3 4.1.15 2.45-.2.65 1.05.6z"/><path fill-opacity=".498" fill-rule="evenodd" d="M36.95 6.45q-2.65 1.2-3 3l-2 10.4H30.2l3.1-13.1q1.9-1.25 3.65-.3M8.15 6.75l3.1 13.1H9.5l-2-10.4Q7.25 8.1 6 7.2q-.35-.25-1.5-.75 1.9-1 3.65.3"/><path fill="none" stroke="#000" stroke-linecap="round" stroke-linejoin="round" d="M36.7 8.45q-1.25-.35-2.55 1.05M38 6.25q-.1 2.4-.65 3.45-1 1.95-3.75 2.1m-30-5.55q.1 2.4.65 3.45 1 1.95 3.8 2.1M4.9 8.45Q6.15 8.1 7.5 9.5"/></g></defs></svg>