<?xml version="1.0" encoding="UTF-8" standalone="no"?>
<svg xmlns:ffdec="https://www.free-decompiler.com/flash" xmlns:xlink="http://www.w3.org/1999/xlink" ffdec:objectType="frame" height="83.55px" width="129.9px" xmlns="http://www.w3.org/2000/svg">
  <g transform="matrix(1.0, 0.0, 0.0, 1.0, 54.45, 31.35)">
    <use ffdec:characterId="1" height="83.5" transform="matrix(1.0, 0.0, 0.0, 1.0, 4.7, -31.35)" width="70.75" xlink:href="#shape0"/>
    <filter id="filter0">
      <feColorMatrix in="SourceGraphic" result="filterResult0" type="matrix" values="0 0 0 0 0.0,0 0 0 0 0.6,0 0 0 0 0.6,0 0 0 1 0"/>
      <feConvolveMatrix divisor="4.0" in="filterResult0" kernelMatrix="1 1 1 1" order="2 2" result="filterResult1"/>
      <feComposite in="SourceGraphic" in2="filterResult1" operator="over" result="filterResult2"/>
    </filter>
    <use ffdec:characterId="3" filter="url(#filter0)" height="73.8" transform="matrix(1.0, 0.0, 0.0, 1.0, 20.0, -29.1)" width="48.7" xlink:href="#sprite0"/>
    <use ffdec:characterId="4" height="83.5" transform="matrix(1.0, 0.0, 0.0, 1.0, -54.45, -31.3)" width="123.15" xlink:href="#shape2"/>
    <filter id="filter1">
      <feColorMatrix in="SourceGraphic" result="filterResult3" type="matrix" values="0 0 0 0 0.0,0 0 0 0 0.6,0 0 0 0 0.6,0 0 0 1 0"/>
      <feConvolveMatrix divisor="4.0" in="filterResult3" kernelMatrix="1 1 1 1" order="2 2" result="filterResult4"/>
      <feComposite in="SourceGraphic" in2="filterResult4" operator="over" result="filterResult5"/>
    </filter>
    <use ffdec:characterId="3" filter="url(#filter1)" height="73.8" transform="matrix(-1.0, 0.0, 0.0, 1.0, 1.0, -29.05)" width="48.7" xlink:href="#sprite0"/>
    <use ffdec:characterId="5" height="73.8" transform="matrix(1.0, 0.0, 0.0, 1.0, -47.7, -29.05)" width="67.75" xlink:href="#shape3"/>
  </g>
  <defs>
    <g id="shape0" transform="matrix(1.0, 0.0, 0.0, 1.0, -4.7, 31.35)">
      <path d="M10.3 8.65 L10.3 8.6 Q10.95 8.7 14.3 7.05 17.55 5.45 17.85 4.95 L21.4 0.6 25.75 -4.7 30.5 -9.95 39.3 -18.4 Q44.5 -23.1 49.45 -25.85 57.15 -30.15 65.85 -31.15 L69.05 -31.3 Q71.0 -31.3 71.9 -30.6 72.95 -29.85 72.6 -28.8 L71.55 -26.85 Q71.2 -26.25 71.0 -25.35 L70.6 -23.8 69.55 -20.65 68.35 -17.5 66.6 -11.6 Q65.15 -7.3 64.8 -5.05 L64.55 -2.5 64.1 0.05 Q63.4 2.0 61.65 3.8 59.75 5.85 57.45 6.65 54.75 7.6 50.6 7.95 L43.65 8.3 47.4 9.55 51.1 10.7 54.35 11.75 Q56.15 12.45 56.95 13.4 L57.6 14.6 58.1 15.9 58.9 16.75 59.8 17.55 Q62.0 19.85 60.7 20.6 L59.2 21.15 Q58.45 21.5 58.3 22.3 58.2 23.4 59.15 24.2 L60.75 25.35 62.3 26.5 62.8 27.1 Q63.0 27.55 62.7 27.75 L61.85 27.8 61.3 27.65 60.9 27.65 58.55 27.95 Q57.4 28.55 57.1 29.5 56.5 31.55 60.35 33.8 L61.55 34.4 Q62.25 34.9 62.3 35.35 62.3 35.9 61.15 35.9 L59.95 35.6 57.65 35.55 Q56.4 36.05 55.9 36.95 54.55 39.1 56.9 41.6 58.4 43.2 61.55 45.15 64.6 46.9 67.75 47.65 L70.6 48.0 73.35 48.6 Q74.35 48.95 74.9 49.45 75.75 50.15 75.3 50.8 74.6 51.75 72.75 52.05 68.65 52.75 63.6 48.7 L59.85 45.35 Q57.45 43.35 55.15 42.9 52.75 42.35 51.7 43.7 50.8 44.85 51.55 46.55 51.75 47.2 52.7 48.1 53.7 49.15 53.9 49.65 54.7 51.1 54.15 51.8 53.45 52.65 51.95 51.25 51.3 50.65 50.9 49.55 L50.15 47.7 Q49.55 46.45 48.55 46.05 L46.4 45.7 Q45.1 45.85 44.75 46.95 44.65 47.35 44.7 48.35 44.95 49.7 43.55 50.05 L42.15 49.95 Q41.2 49.25 40.9 47.6 L40.8 44.95 40.55 43.55 Q40.1 42.95 38.85 42.95 L37.1 42.85 Q36.3 42.7 35.8 42.05 35.05 41.4 34.25 40.05 L33.05 37.9 31.2 35.5 29.25 33.15 25.5 27.6 21.75 22.1 18.55 17.55 17.35 16.0 Q12.05 13.75 10.75 13.5 L10.3 13.5 10.3 13.4 10.3 8.65" fill="url(#gradient0)" fill-rule="evenodd" stroke="none"/>
      <path d="M10.3 13.4 L5.45 13.45 4.7 7.1 6.2 7.9 Q8.1 8.65 10.3 8.65 L10.3 13.4" fill="#3e2542" fill-rule="evenodd" stroke="none"/>
    </g>
    <radialGradient cx="0" cy="0" gradientTransform="matrix(0.0615, 0.0, 0.0, 0.0615, 45.45, 10.4)" gradientUnits="userSpaceOnUse" id="gradient0" r="819.2" spreadMethod="pad">
      <stop offset="0.0" stop-color="#311e34"/>
      <stop offset="0.5176470588235295" stop-color="#3f2643"/>
      <stop offset="1.0" stop-color="#311e34"/>
    </radialGradient>
    <g id="sprite0" transform="matrix(1.0, 0.0, 0.0, 1.0, 24.35, 36.9)">
      <use ffdec:characterId="2" height="73.8" transform="matrix(1.0, 0.0, 0.0, 1.0, -24.35, -36.9)" width="48.7" xlink:href="#shape1"/>
    </g>
    <g id="shape1" transform="matrix(1.0, 0.0, 0.0, 1.0, 24.35, 36.9)">
      <path d="M21.4 -28.75 L21.9 -29.2 Q22.25 -29.75 21.95 -30.3 21.65 -30.8 20.95 -31.1 L19.75 -31.3 18.65 -30.9 17.5 -29.75 16.9 -28.35 Q16.75 -27.8 16.9 -27.2 L17.1 -26.55 16.9 -26.2 16.35 -27.95 Q16.1 -29.7 17.35 -31.0 15.75 -29.9 13.75 -30.15 L11.7 -30.55 12.1 -30.7 12.85 -30.55 14.25 -30.6 15.95 -31.05 17.3 -32.05 17.7 -33.05 Q17.8 -33.6 17.4 -34.05 17.1 -34.6 16.5 -34.85 15.85 -35.1 15.2 -34.85 L14.65 -34.4 15.1 -34.65 15.55 -34.75 16.3 -34.45 Q16.85 -33.95 16.65 -33.35 16.3 -32.85 15.45 -32.6 14.65 -32.45 13.6 -33.2 L13.1 -33.85 Q12.85 -34.35 12.95 -34.65 13.1 -35.7 14.3 -36.2 15.4 -36.65 16.6 -36.2 17.6 -35.8 18.25 -34.8 18.9 -33.8 18.7 -32.9 18.55 -32.15 17.95 -31.55 18.75 -32.05 19.55 -32.15 20.65 -32.35 21.85 -31.75 23.05 -31.25 23.5 -30.4 24.0 -29.45 23.5 -28.45 22.95 -27.45 21.8 -27.3 20.8 -27.1 20.0 -27.85 19.1 -28.75 19.25 -29.45 19.55 -30.15 20.2 -30.4 20.9 -30.6 21.45 -30.1 L21.75 -29.55 21.65 -29.1 21.4 -28.75 M20.5 -33.75 Q20.9 -33.3 20.55 -33.0 20.4 -32.7 20.0 -32.65 L19.2 -32.6 19.3 -33.25 19.65 -33.75 Q20.05 -34.0 20.5 -33.75 M22.45 -36.15 L22.0 -35.2 Q21.35 -34.25 20.45 -34.25 19.9 -34.2 19.25 -34.7 L18.4 -35.55 Q17.05 -36.7 16.1 -36.9 16.8 -36.95 18.25 -36.15 19.65 -35.4 20.45 -35.5 L21.6 -36.0 22.6 -36.8 22.45 -36.15 M23.4 -35.3 L24.1 -35.45 23.2 -34.65 22.65 -33.65 Q22.5 -32.95 23.45 -31.8 24.4 -30.6 24.35 -29.95 24.15 -30.75 22.75 -31.9 L21.7 -32.65 Q21.15 -33.15 21.2 -33.65 21.2 -34.4 22.25 -34.95 L23.4 -35.3 M24.2 -36.85 L24.2 -36.35 24.0 -36.0 23.5 -35.8 22.9 -35.75 22.95 -36.25 23.2 -36.65 23.65 -36.8 24.2 -36.85 M4.7 -30.05 L4.55 -29.35 3.85 -28.5 2.65 -27.4 1.4 -26.45 Q0.95 -26.25 0.5 -26.45 0.1 -26.55 0.3 -27.05 L1.05 -28.1 Q1.95 -28.95 4.1 -30.05 4.7 -30.45 4.7 -30.05 M4.9 -28.95 L6.4 -29.95 7.15 -30.0 7.7 -29.6 Q7.85 -29.2 7.0 -28.5 L5.8 -27.75 Q4.45 -26.9 3.5 -26.7 2.85 -27.1 4.9 -28.95 M8.6 -28.7 L11.35 -28.5 Q12.4 -28.1 12.35 -27.4 12.35 -26.75 11.0 -26.3 L9.05 -25.9 7.35 -25.5 6.15 -24.9 Q5.15 -24.45 5.0 -24.55 L5.0 -24.6 Q3.4 -25.0 4.45 -26.05 L6.15 -27.5 Q7.55 -28.5 8.6 -28.7 M14.4 -26.2 Q15.35 -26.15 16.3 -25.2 17.45 -24.3 16.4 -23.5 L15.2 -23.0 13.9 -22.75 11.95 -22.6 9.9 -22.5 8.0 -22.15 Q6.6 -22.0 6.35 -22.45 4.75 -24.6 9.1 -25.4 L11.7 -25.85 14.4 -26.2 M17.05 -20.75 Q17.3 -22.0 17.85 -22.0 18.45 -22.0 18.3 -20.75 18.15 -19.45 17.5 -19.5 16.85 -19.55 17.05 -20.75 M19.0 -19.0 L18.75 -19.2 Q18.6 -19.25 18.6 -19.55 L19.15 -20.25 19.4 -19.65 19.25 -19.05 19.0 -19.0 M16.4 -19.9 Q15.75 -18.15 14.45 -17.9 13.45 -17.65 12.8 -18.4 12.2 -19.15 12.4 -20.0 12.7 -20.95 13.5 -21.55 14.4 -22.15 15.3 -22.1 16.95 -21.7 16.4 -19.9 M12.5 -14.4 L13.1 -12.55 Q13.6 -10.7 11.45 -10.55 L7.9 -10.8 5.2 -10.75 2.3 -10.25 -0.9 -9.9 -2.75 -9.85 Q-5.2 -10.1 -4.25 -10.95 L-2.2 -13.1 -0.15 -15.1 Q0.4 -15.65 1.3 -15.75 L2.9 -15.85 5.75 -16.05 8.55 -16.25 Q10.3 -16.3 11.35 -15.75 12.05 -15.45 12.5 -14.4 M18.45 -17.05 L17.8 -16.05 Q17.55 -15.65 17.35 -15.95 L17.35 -16.55 17.65 -17.4 Q17.85 -17.9 18.2 -18.0 18.8 -17.95 18.45 -17.05 M17.1 -12.55 L16.9 -11.3 16.45 -11.35 Q16.3 -11.55 16.3 -11.9 16.2 -12.7 16.6 -13.15 L17.05 -13.1 17.1 -12.55 M3.8 -19.9 L6.05 -19.7 Q7.25 -19.2 7.3 -17.95 7.35 -17.35 6.15 -17.05 L4.6 -16.95 2.9 -16.55 1.35 -16.75 Q1.1 -17.65 2.0 -18.7 2.8 -19.55 3.8 -19.9 M0.1 -22.6 L-0.4 -22.6 -0.7 -23.0 -0.45 -23.4 0.05 -23.65 0.25 -23.5 0.4 -23.15 0.1 -22.6 M0.75 -18.05 L-0.1 -16.65 -2.15 -14.5 -3.25 -13.4 -4.3 -12.4 -6.05 -11.1 -8.0 -9.95 Q-11.7 -7.8 -14.8 -5.2 L-17.75 -2.35 Q-19.6 -0.7 -21.1 -0.6 -21.35 -1.85 -20.3 -3.5 L-18.5 -6.2 Q-16.6 -9.05 -13.4 -12.35 L-10.45 -15.1 Q-8.75 -16.4 -7.0 -17.2 -5.4 -18.0 -3.3 -18.45 L0.55 -19.05 Q1.3 -19.25 0.75 -18.05 M1.3 -4.35 L-0.15 -3.75 -3.2 -2.65 -6.4 -2.25 -10.5 -2.4 Q-12.7 -2.35 -14.45 -1.5 -15.45 -1.0 -16.55 0.1 L-17.3 1.0 -18.0 1.55 Q-18.6 1.85 -18.6 1.2 -18.5 0.35 -17.2 -1.0 L-16.9 -1.35 -16.9 -1.45 Q-16.9 -2.25 -16.0 -3.0 L-14.4 -3.95 -12.7 -5.15 -10.95 -6.5 -8.25 -8.4 Q-6.55 -9.5 -5.25 -9.45 L-2.85 -9.05 -0.45 -8.9 1.75 -9.3 4.0 -9.7 Q7.6 -10.35 10.2 -9.6 L12.05 -8.95 13.4 -7.7 Q14.15 -6.55 13.5 -5.3 13.0 -4.2 11.85 -3.5 9.75 -2.45 6.55 -3.2 L4.65 -3.75 2.7 -4.4 1.3 -4.35 M10.85 10.65 L11.45 10.6 11.6 11.05 Q11.7 11.8 11.05 12.25 10.8 12.45 10.65 12.25 L10.5 11.85 Q10.45 11.2 10.85 10.65 M7.7 5.9 Q7.9 6.45 7.25 6.65 6.75 6.8 6.65 6.2 6.5 5.6 6.95 5.25 7.5 5.25 7.7 5.9 M3.8 5.65 Q4.1 6.5 3.15 6.5 L1.6 6.35 -2.1 6.15 -3.8 6.2 -5.8 6.1 -6.3 5.85 Q-6.1 3.65 -2.2 2.9 L0.15 2.7 Q1.35 2.85 2.25 3.55 3.4 4.55 3.8 5.65 M2.8 10.9 L-1.1 9.9 Q-3.75 9.35 -5.05 8.8 L-5.6 7.35 Q-5.75 6.55 -3.2 6.65 L0.7 7.0 4.2 7.55 Q6.15 8.0 7.1 9.25 7.45 9.75 7.45 10.6 L7.1 12.0 7.0 12.05 Q6.7 12.4 6.0 12.35 L4.25 11.75 2.8 10.9 M9.2 7.45 L9.25 7.45 Q9.9 7.75 9.95 8.55 9.95 9.35 9.15 9.2 8.5 9.05 8.45 8.2 8.45 7.35 9.2 7.45 M6.2 17.85 L3.95 16.0 Q2.85 15.4 0.5 14.8 L-1.0 14.25 Q-1.85 13.9 -2.15 13.25 -2.15 12.45 -2.8 11.55 L-4.05 10.1 -4.2 9.85 Q-4.4 9.65 -4.2 9.7 L-0.25 10.8 Q0.8 11.1 2.25 11.75 L4.7 12.8 6.4 13.45 Q7.4 13.75 8.0 14.2 8.75 14.65 8.85 15.7 8.95 16.6 8.55 17.45 7.85 18.95 6.2 17.85 M3.95 17.3 L5.6 18.45 6.85 20.0 Q7.5 21.3 6.9 22.5 6.2 23.8 4.75 23.55 3.95 23.4 3.25 22.55 L2.2 21.15 1.0 19.7 -0.3 18.4 -1.95 16.75 Q-3.15 15.45 -2.8 14.8 -1.3 14.45 0.7 15.45 1.85 16.0 3.95 17.3 M9.05 23.2 Q8.55 23.25 8.45 22.9 L8.35 22.15 8.5 21.5 8.75 20.0 Q9.0 19.55 9.55 19.7 10.0 19.8 10.25 20.15 10.7 20.8 10.5 21.55 L10.6 21.6 Q10.7 22.45 9.85 22.95 L9.05 23.2 M12.2 16.9 L11.75 17.6 11.55 17.95 11.5 18.0 Q10.8 18.5 10.4 18.15 10.15 17.75 10.3 17.15 L10.7 16.25 Q11.0 15.95 11.4 15.9 L12.05 16.05 Q12.4 16.5 12.2 16.9 M10.4 26.15 L10.25 26.4 9.55 27.65 9.05 29.95 8.9 31.5 8.55 32.95 Q8.25 33.7 7.35 34.55 L5.35 36.15 6.15 35.25 6.8 34.4 7.3 33.4 7.65 31.0 7.65 30.05 6.7 30.25 5.85 30.65 Q4.95 31.2 4.45 32.5 4.35 32.7 4.4 33.05 L4.4 33.65 Q3.8 32.3 4.1 31.4 4.45 30.45 5.35 29.7 L7.05 28.55 Q7.6 28.25 7.9 28.1 L8.7 27.55 10.25 26.25 10.4 26.15 M6.75 25.1 Q7.4 25.2 7.2 26.15 6.95 27.0 6.3 27.0 5.6 26.9 5.85 26.1 6.05 25.25 6.7 25.2 L6.75 25.1 M6.75 29.4 L7.4 29.35 8.0 29.15 8.05 30.15 8.1 30.85 8.05 32.5 7.95 33.4 Q8.35 32.55 8.4 31.4 L8.45 29.35 Q8.45 28.6 8.8 28.15 8.25 28.8 7.1 29.1 L6.2 29.45 5.4 30.15 Q6.15 29.5 6.75 29.4 M3.1 26.6 Q2.8 26.55 2.85 26.15 L3.25 25.55 3.7 25.65 3.85 26.05 3.55 26.45 3.1 26.6 M0.25 27.8 L-0.2 28.25 Q-0.45 28.45 -0.7 28.45 L-0.95 28.2 -1.0 27.85 -0.75 27.4 Q-0.6 27.2 -0.3 27.15 0.0 27.1 0.15 27.35 L0.25 27.8 M0.0 26.25 Q-1.2 26.0 -1.9 25.2 L-2.95 23.25 Q-3.5 21.1 -4.85 19.6 L-6.5 18.0 -8.05 16.4 -9.15 14.65 Q-9.85 13.4 -9.35 12.75 L-7.95 13.35 -6.45 14.05 -5.3 14.55 -4.1 15.2 -2.5 16.75 -1.05 18.5 Q1.05 20.85 1.9 22.55 2.65 23.95 2.2 25.25 1.7 26.65 0.0 26.25 M1.4 29.2 L1.7 29.6 1.4 29.9 1.05 30.15 0.55 30.5 Q0.25 30.55 0.25 30.1 L0.85 29.2 1.4 29.2 M3.1 29.25 Q2.45 29.15 2.8 28.5 3.05 27.95 3.6 27.75 4.2 28.0 4.15 28.5 L3.75 29.15 3.1 29.25 M1.1 34.85 Q0.75 34.55 0.65 34.6 L0.75 34.55 1.5 34.45 2.3 34.5 Q2.65 34.6 2.85 34.85 3.15 35.1 2.9 35.3 L1.65 35.25 1.1 34.85 M2.4 33.4 Q1.15 32.75 0.1 32.9 L-0.8 33.2 -1.65 33.65 -1.0 34.4 0.8 35.95 1.85 36.35 2.9 36.6 4.1 36.75 1.5 36.85 -0.4 36.45 -1.65 35.55 -2.8 34.5 -4.65 33.1 Q-5.45 32.7 -5.95 32.6 L-6.25 32.5 -6.1 32.5 -4.05 32.45 -3.1 32.3 -2.15 32.1 -0.1 31.85 Q1.05 31.85 1.9 32.35 2.75 32.85 3.2 34.25 L2.8 33.8 2.4 33.4 M6.35 32.75 L6.2 33.4 Q5.85 34.2 5.3 34.25 4.95 34.3 5.05 33.9 5.05 33.6 5.2 33.25 L5.8 32.7 6.45 32.3 6.55 32.3 6.35 32.75 M-2.05 -24.8 Q-1.95 -24.6 -2.2 -24.2 -2.8 -23.25 -3.6 -23.0 L-4.05 -22.95 -4.3 -23.2 -3.95 -23.9 -2.65 -25.05 Q-2.1 -25.05 -2.05 -24.8 M-6.45 -19.8 L-7.25 -18.9 Q-7.85 -18.45 -8.4 -18.3 -9.0 -18.2 -8.8 -18.9 L-8.3 -19.85 Q-7.3 -21.25 -6.55 -21.35 L-6.15 -21.2 -6.05 -20.75 Q-6.0 -20.4 -6.45 -19.8 M-11.4 -16.45 Q-15.6 -12.45 -19.1 -7.6 L-24.35 0.15 Q-20.95 -8.35 -17.15 -12.05 -13.35 -15.8 -11.4 -16.45 M-3.15 2.65 L-4.15 3.15 -5.45 3.7 -7.05 4.9 Q-8.05 5.65 -8.95 5.75 L-10.65 5.75 -12.35 5.5 -14.65 4.75 Q-16.45 4.05 -16.1 3.45 -15.4 2.85 -13.95 2.85 L-11.55 2.95 -9.8 2.7 -8.0 2.45 -4.2 1.85 -2.7 1.95 Q-2.35 2.1 -3.15 2.65 M-7.75 6.05 L-7.0 6.65 -5.65 8.85 -4.25 10.95 -3.15 12.55 Q-2.45 13.8 -4.95 13.55 L-7.65 12.7 -10.1 11.45 Q-11.55 10.65 -12.1 9.9 L-12.95 9.1 -13.8 8.25 -14.7 7.9 -15.6 7.6 Q-17.2 7.0 -18.4 6.2 -19.1 5.7 -19.2 5.25 -19.35 4.65 -18.3 4.55 L-16.85 4.65 -15.4 5.05 -10.5 6.05 -8.7 6.05 -7.75 6.05 M-18.9 9.95 L-18.2 10.95 -16.4 13.35 -14.4 16.2 -12.6 19.15 -11.0 21.65 -9.45 24.25 Q-8.9 25.1 -8.75 26.15 -8.6 26.8 -8.95 27.45 L-9.45 27.9 -9.9 28.1 Q-10.5 28.15 -11.35 27.45 L-12.55 26.1 -13.3 24.45 -13.5 23.05 Q-13.5 22.15 -13.65 21.7 L-15.0 19.1 -16.3 16.75 -17.6 14.4 Q-19.3 11.4 -19.8 9.4 -19.3 9.45 -18.9 9.95 M-18.05 7.1 L-15.95 8.65 -12.8 10.55 Q-11.0 11.8 -10.4 13.25 L-8.95 16.35 Q-8.15 18.05 -7.0 19.15 L-5.75 20.3 Q-5.0 20.85 -4.65 21.5 -4.0 22.65 -3.45 24.05 -3.1 25.2 -3.15 25.9 -3.35 26.7 -4.3 27.25 L-5.35 27.8 -6.45 27.7 -7.2 26.8 -7.8 25.75 -12.0 17.75 Q-13.7 14.4 -16.6 11.6 L-18.9 9.5 Q-20.2 8.1 -20.1 6.8 -19.75 6.0 -18.05 7.1 M-19.0 14.7 Q-19.9 12.6 -21.1 12.05 -22.05 11.25 -21.45 8.8 L-21.25 7.9 -20.95 7.5 -20.7 8.0 Q-20.5 8.4 -20.4 9.15 L-20.2 10.3 -19.45 12.65 -18.2 14.85 -16.9 17.3 -15.6 19.9 -14.7 21.35 Q-14.2 22.2 -14.1 22.95 -14.05 23.4 -14.3 23.05 L-14.7 22.45 -15.6 21.3 -17.3 18.75 -18.2 16.8 -19.0 14.7 M-3.45 30.8 L-3.3 31.2 -3.45 31.45 -3.75 31.5 -4.4 31.05 Q-4.8 30.5 -4.45 30.5 -3.95 30.3 -3.45 30.8 M-3.15 28.55 L-3.7 28.6 -3.8 28.1 Q-3.55 27.4 -3.0 27.15 -2.65 27.05 -2.45 27.4 -2.2 27.65 -2.35 27.95 L-2.65 28.3 -3.15 28.55 M-1.8 29.8 L-1.5 30.15 Q-1.25 30.8 -1.8 31.1 L-2.15 31.1 -2.4 30.8 Q-2.6 30.25 -2.2 29.8 L-1.8 29.8 M-8.15 28.95 L-7.55 29.25 -6.4 29.9 Q-6.1 30.1 -6.2 30.5 -6.25 30.85 -6.75 30.7 L-7.45 30.35 -8.05 29.95 -8.6 29.45 Q-8.85 29.25 -8.7 29.05 L-8.15 28.95 M-1.85 34.0 L-2.5 33.2 -1.95 32.95 -1.4 32.55 Q-0.85 32.25 0.15 32.25 -0.25 32.1 -0.9 32.25 L-1.85 32.55 Q-2.95 33.1 -3.75 32.95 -3.25 33.05 -2.7 33.65 L-1.35 35.15 0.35 36.35 -0.35 35.75 -1.45 34.55 -1.85 34.0" fill="#311e34" fill-rule="evenodd" stroke="none"/>
    </g>
    <g id="shape2" transform="matrix(1.0, 0.0, 0.0, 1.0, 54.45, 31.3)">
      <path d="M40.05 -15.4 L40.4 -16.1 41.7 -17.25 42.3 -17.0 42.15 -16.4 Q41.55 -15.45 40.75 -15.2 L40.3 -15.15 Q40.05 -15.2 40.05 -15.4 M38.3 -12.95 L37.9 -12.0 37.1 -11.1 Q36.5 -10.65 35.95 -10.5 35.35 -10.4 35.55 -11.1 L36.05 -12.05 Q37.05 -13.45 37.8 -13.55 L38.2 -13.4 38.3 -12.95 M36.35 -2.15 Q32.65 0.0 29.55 2.6 28.55 3.35 26.6 5.45 24.75 7.1 23.25 7.2 23.0 5.95 24.05 4.3 L25.85 1.6 Q27.75 -1.25 30.95 -4.55 L33.9 -7.3 37.35 -9.4 Q38.95 -10.2 41.05 -10.65 L44.9 -11.25 Q45.65 -11.45 45.1 -10.25 L44.25 -8.85 42.2 -6.7 41.1 -5.6 40.05 -4.6 38.3 -3.3 36.35 -2.15 M39.1 -1.65 L41.5 -1.25 43.9 -1.1 46.1 -1.5 48.35 -1.9 Q51.95 -2.55 54.55 -1.8 L56.4 -1.15 57.75 0.1 Q58.5 1.25 57.85 2.5 57.35 3.6 56.2 4.3 54.1 5.35 50.9 4.6 L49.0 4.05 47.05 3.4 45.65 3.45 Q45.15 3.6 44.2 4.05 L41.15 5.15 37.95 5.55 33.85 5.4 Q31.65 5.45 29.9 6.3 28.9 6.8 27.8 7.9 L27.05 8.8 26.35 9.35 Q25.75 9.65 25.75 9.0 25.85 8.15 27.15 6.8 L27.45 6.45 27.45 6.35 Q27.45 5.55 28.35 4.8 L29.95 3.85 31.65 2.65 33.4 1.3 36.1 -0.6 Q37.8 -1.7 39.1 -1.65 M66.6 -27.15 L67.75 -27.5 68.45 -27.65 67.55 -26.85 67.0 -25.85 Q66.85 -25.15 67.8 -24.0 68.75 -22.8 68.7 -22.15 68.5 -22.95 67.1 -24.1 L66.05 -24.85 Q65.5 -25.35 65.55 -25.85 65.55 -26.6 66.6 -27.15 M68.55 -28.55 L68.35 -28.2 Q68.2 -28.05 67.85 -28.0 L67.25 -27.95 67.3 -28.45 67.55 -28.85 68.0 -29.0 68.55 -29.05 68.55 -28.55 M64.8 -26.45 Q64.25 -26.4 63.6 -26.9 L62.75 -27.75 Q61.4 -28.9 60.45 -29.1 L62.6 -28.35 Q64.0 -27.6 64.8 -27.7 65.45 -27.85 65.95 -28.2 L66.95 -29.0 66.8 -28.35 66.35 -27.4 Q65.7 -26.45 64.8 -26.45 M64.9 -25.2 Q64.75 -24.9 64.35 -24.85 L63.55 -24.8 63.65 -25.45 64.0 -25.95 Q64.4 -26.2 64.85 -25.95 65.25 -25.5 64.9 -25.2 M62.05 -25.25 Q62.15 -25.8 61.75 -26.25 L60.85 -27.05 Q60.2 -27.3 59.55 -27.05 L59.0 -26.6 59.45 -26.85 59.9 -26.95 60.65 -26.65 Q61.2 -26.15 61.0 -25.55 60.65 -25.05 59.8 -24.8 59.0 -24.65 57.95 -25.4 L57.45 -26.05 Q57.2 -26.55 57.3 -26.85 57.45 -27.9 58.65 -28.4 59.75 -28.85 60.95 -28.4 61.95 -28.0 62.6 -27.0 63.25 -26.0 63.05 -25.1 62.9 -24.35 62.3 -23.75 L63.9 -24.35 Q65.0 -24.55 66.2 -23.95 67.4 -23.45 67.85 -22.6 68.35 -21.65 67.85 -20.65 67.3 -19.65 66.15 -19.5 65.15 -19.3 64.35 -20.05 63.45 -20.95 63.6 -21.65 63.9 -22.35 64.55 -22.6 65.25 -22.8 65.8 -22.3 L66.1 -21.75 66.0 -21.3 65.75 -20.95 66.25 -21.4 Q66.6 -21.95 66.3 -22.5 66.0 -23.0 65.3 -23.3 L64.1 -23.5 63.0 -23.1 61.85 -21.95 61.25 -20.55 Q61.1 -20.0 61.25 -19.4 L61.45 -18.75 61.25 -18.4 Q60.85 -19.3 60.7 -20.15 60.45 -21.9 61.7 -23.2 60.1 -22.1 58.1 -22.35 L56.05 -22.75 56.45 -22.9 57.2 -22.75 58.6 -22.8 60.3 -23.25 Q60.95 -23.6 61.65 -24.25 L62.05 -25.25 M27.2 -4.25 Q31.0 -8.0 32.95 -8.65 28.75 -4.65 25.25 0.2 21.7 5.05 20.0 7.95 23.4 -0.55 27.2 -4.25 M56.7 -19.6 Q56.7 -18.95 55.35 -18.5 L53.4 -18.1 51.7 -17.7 50.5 -17.1 Q49.5 -16.65 49.35 -16.75 L49.35 -16.8 Q47.75 -17.2 48.8 -18.25 L50.5 -19.7 Q51.9 -20.7 52.95 -20.9 L55.7 -20.7 Q56.75 -20.3 56.7 -19.6 M52.05 -21.8 Q52.2 -21.4 51.35 -20.7 L50.15 -19.95 Q48.8 -19.1 47.85 -18.9 47.2 -19.3 49.25 -21.15 50.1 -21.85 50.75 -22.15 L51.5 -22.2 Q51.95 -22.15 52.05 -21.8 M50.7 -14.65 Q49.1 -16.8 53.45 -17.6 L56.05 -18.05 58.75 -18.4 Q59.7 -18.35 60.65 -17.4 61.8 -16.5 60.75 -15.7 L59.55 -15.2 58.25 -14.95 56.3 -14.8 54.25 -14.7 52.35 -14.35 Q50.95 -14.2 50.7 -14.65 M59.65 -14.3 Q61.3 -13.9 60.75 -12.1 60.1 -10.35 58.8 -10.1 57.8 -9.85 57.15 -10.6 56.55 -11.35 56.75 -12.2 57.05 -13.15 57.85 -13.75 58.75 -14.35 59.65 -14.3 M49.05 -22.25 L48.9 -21.55 48.2 -20.7 47.0 -19.6 Q46.35 -19.0 45.75 -18.65 45.3 -18.45 44.85 -18.65 44.45 -18.75 44.65 -19.25 L45.4 -20.3 Q46.3 -21.15 48.45 -22.25 49.05 -22.65 49.05 -22.25 M44.6 -15.7 L44.75 -15.35 44.45 -14.8 43.95 -14.8 43.65 -15.2 Q43.6 -15.45 43.9 -15.6 L44.4 -15.85 44.6 -15.7 M48.15 -12.1 L50.4 -11.9 Q51.6 -11.4 51.65 -10.15 51.7 -9.55 50.5 -9.25 L48.95 -9.15 47.25 -8.75 Q46.15 -8.6 45.7 -8.95 45.45 -9.85 46.35 -10.9 47.15 -11.75 48.15 -12.1 M47.25 -8.05 L50.1 -8.25 52.9 -8.45 Q54.65 -8.5 55.7 -7.95 56.4 -7.65 56.85 -6.6 L57.45 -4.75 Q57.95 -2.9 55.8 -2.75 L52.25 -3.0 49.55 -2.95 46.65 -2.45 43.45 -2.1 41.6 -2.05 Q39.15 -2.3 40.1 -3.15 L42.15 -5.3 44.2 -7.3 Q44.75 -7.85 45.65 -7.95 L47.25 -8.05 M62.2 -14.2 Q62.8 -14.2 62.65 -12.95 62.5 -11.65 61.85 -11.7 61.2 -11.75 61.4 -12.95 61.65 -14.2 62.2 -14.2 M63.35 -11.2 L63.1 -11.4 Q62.95 -11.45 62.95 -11.75 L63.5 -12.45 63.75 -11.85 63.6 -11.25 63.35 -11.2 M62.55 -10.2 Q63.15 -10.15 62.8 -9.25 62.55 -8.6 62.15 -8.25 61.9 -7.85 61.7 -8.15 L61.7 -8.75 62.0 -9.6 Q62.2 -10.1 62.55 -10.2 M61.4 -5.3 L61.45 -4.75 61.25 -3.5 60.8 -3.55 Q60.65 -3.75 60.65 -4.1 60.55 -4.9 60.95 -5.35 L61.4 -5.3 M44.5 10.5 Q45.7 10.65 46.6 11.35 47.75 12.35 48.15 13.45 48.45 14.3 47.5 14.3 L45.95 14.15 42.25 13.95 40.55 14.0 38.55 13.9 Q38.05 13.8 38.05 13.65 38.25 11.45 42.15 10.7 L44.5 10.5 M41.2 10.45 L40.2 10.95 38.9 11.5 37.3 12.7 Q36.3 13.45 35.4 13.55 L33.7 13.55 32.0 13.3 29.7 12.55 Q27.9 11.85 28.25 11.25 28.95 10.65 30.4 10.65 L32.8 10.75 34.55 10.5 36.35 10.25 40.15 9.65 41.65 9.75 Q42.0 9.9 41.2 10.45 M45.05 14.8 L48.55 15.35 Q50.5 15.8 51.45 17.05 51.8 17.55 51.8 18.4 L51.45 19.8 51.35 19.85 Q51.05 20.2 50.35 20.15 L48.6 19.55 47.15 18.7 43.25 17.7 39.3 16.6 38.75 15.15 Q38.6 14.35 41.15 14.45 L45.05 14.8 M45.05 23.25 L48.3 25.1 49.95 26.25 51.2 27.8 Q51.85 29.1 51.25 30.3 50.55 31.6 49.1 31.35 48.3 31.2 47.6 30.35 L46.55 28.95 45.35 27.5 44.05 26.2 42.4 24.55 Q41.2 23.25 41.55 22.6 43.05 22.25 45.05 23.25 M41.55 19.35 L40.3 17.9 40.15 17.65 Q39.95 17.45 40.15 17.5 L44.1 18.6 46.6 19.55 49.05 20.6 50.75 21.25 Q51.75 21.55 52.35 22.0 53.1 22.45 53.2 23.5 53.3 24.4 52.9 25.25 52.2 26.75 50.55 25.65 L48.3 23.8 Q47.2 23.2 44.85 22.6 L43.35 22.05 Q42.5 21.7 42.2 21.05 42.2 20.25 41.55 19.35 M53.6 15.25 Q54.25 15.55 54.3 16.35 54.3 17.15 53.5 17.0 52.85 16.85 52.8 16.0 52.8 15.15 53.55 15.25 L53.6 15.25 M51.3 13.05 Q51.85 13.05 52.05 13.7 52.25 14.25 51.6 14.45 51.1 14.6 51.0 14.0 50.85 13.4 51.3 13.05 M54.85 19.65 Q54.8 19.0 55.2 18.45 L55.8 18.4 55.95 18.85 Q56.05 19.6 55.4 20.05 55.15 20.25 55.0 20.05 L54.85 19.65 M56.55 24.7 L56.1 25.4 55.9 25.75 55.85 25.8 54.75 25.95 Q54.5 25.55 54.65 24.95 L55.05 24.05 Q55.35 23.75 55.75 23.7 56.1 23.6 56.4 23.85 56.75 24.3 56.55 24.7 M52.7 29.95 L52.85 29.3 53.1 27.8 Q53.35 27.35 53.9 27.5 L54.6 27.95 Q55.05 28.6 54.85 29.35 L54.95 29.4 Q55.05 30.25 54.2 30.75 L53.4 31.0 Q52.9 31.05 52.8 30.7 L52.7 29.95 M51.1 32.9 Q51.75 33.0 51.55 33.95 51.3 34.8 50.65 34.8 49.95 34.7 50.2 33.9 50.4 33.05 51.05 33.0 L51.1 32.9 M51.45 36.9 L50.55 37.25 49.75 37.95 Q50.5 37.3 51.1 37.2 L51.75 37.15 52.35 36.95 52.4 37.95 52.45 38.65 52.4 40.3 52.3 41.2 Q52.7 40.35 52.75 39.2 L52.8 37.15 Q52.8 36.4 53.15 35.95 52.6 36.6 51.45 36.9 M53.05 35.35 L54.6 34.05 54.75 33.95 54.6 34.2 53.9 35.45 53.4 37.75 53.25 39.3 52.9 40.75 51.7 42.35 49.7 43.95 50.5 43.05 51.15 42.2 51.65 41.2 52.0 38.8 52.0 37.85 51.05 38.05 50.2 38.45 Q49.3 39.0 48.8 40.3 48.7 40.5 48.75 40.85 L48.75 41.45 Q48.15 40.1 48.45 39.2 48.8 38.25 49.7 37.5 50.3 36.95 51.4 36.35 51.95 36.05 52.25 35.9 L53.05 35.35 M41.2 33.7 Q41.0 34.5 40.05 35.05 L39.0 35.6 37.9 35.5 37.15 34.6 36.55 33.55 32.35 25.55 Q30.65 22.2 27.75 19.4 L25.45 17.3 Q24.15 15.9 24.25 14.6 24.6 13.8 26.3 14.9 L28.4 16.45 Q29.4 17.1 31.55 18.35 33.35 19.6 33.95 21.05 34.8 23.15 35.4 24.15 36.2 25.85 37.35 26.95 L38.6 28.1 39.7 29.3 40.9 31.85 Q41.25 33.0 41.2 33.7 M41.4 31.05 Q40.85 28.9 39.5 27.4 L37.85 25.8 36.3 24.2 35.2 22.45 Q34.5 21.2 35.0 20.55 L36.4 21.15 37.9 21.85 39.05 22.35 40.25 23.0 41.85 24.55 43.3 26.3 Q45.4 28.65 46.25 30.35 47.0 31.75 46.55 33.05 46.05 34.45 44.35 34.05 43.15 33.8 42.45 33.0 41.8 32.35 41.4 31.05 M42.0 35.75 L41.7 36.1 41.2 36.35 40.65 36.4 40.55 35.9 Q40.8 35.2 41.35 34.95 41.7 34.85 41.9 35.2 42.15 35.45 42.0 35.75 M44.15 36.05 L43.65 36.25 43.4 36.0 43.35 35.65 43.6 35.2 Q43.75 35.0 44.05 34.95 L44.5 35.15 44.6 35.6 44.15 36.05 M48.05 33.45 L48.2 33.85 47.9 34.25 47.45 34.4 Q47.15 34.35 47.2 33.95 47.2 33.55 47.6 33.35 L48.05 33.45 M47.15 36.3 Q47.4 35.75 47.95 35.55 48.55 35.8 48.5 36.3 L48.1 36.95 47.45 37.05 Q46.8 36.95 47.15 36.3 M45.75 37.0 L46.05 37.4 45.75 37.7 45.4 37.95 Q45.0 38.15 44.9 38.3 44.6 38.35 44.6 37.9 44.6 37.55 45.2 37.0 L45.75 37.0 M45.85 42.25 L46.65 42.3 Q47.0 42.4 47.2 42.65 47.5 42.9 47.25 43.1 L46.0 43.05 45.45 42.65 45.0 42.4 45.1 42.35 45.85 42.25 M47.15 41.6 L46.75 41.2 Q45.5 40.55 44.45 40.7 L43.55 41.0 42.7 41.45 43.35 42.2 45.15 43.75 46.2 44.15 47.25 44.4 48.45 44.55 45.85 44.65 43.95 44.25 42.7 43.35 41.55 42.3 39.7 40.9 Q38.9 40.5 38.4 40.4 L38.05 40.3 38.25 40.3 40.3 40.25 41.25 40.1 42.2 39.9 44.25 39.65 Q45.4 39.65 46.25 40.15 47.1 40.65 47.55 42.05 L47.15 41.6 M50.15 40.5 L50.8 40.1 50.9 40.1 50.7 40.55 50.55 41.2 Q50.2 42.0 49.65 42.05 49.3 42.1 49.4 41.7 L49.55 41.05 50.15 40.5 M44.5 40.05 Q44.1 39.9 43.45 40.05 L42.5 40.35 Q41.4 40.9 40.55 40.75 41.1 40.85 41.65 41.45 L43.0 42.95 44.7 44.15 44.0 43.55 42.9 42.35 42.5 41.8 41.85 41.0 42.4 40.75 42.95 40.35 44.5 40.05 M42.55 37.6 L42.85 37.95 Q43.1 38.6 42.55 38.9 L42.2 38.9 41.95 38.6 Q41.75 38.05 42.15 37.6 L42.55 37.6 M40.6 39.3 L39.95 38.85 Q39.55 38.3 39.9 38.3 40.4 38.1 40.9 38.6 L41.05 39.0 40.9 39.25 40.6 39.3 M28.75 15.4 Q27.15 14.8 25.95 14.0 L25.15 13.05 Q25.0 12.45 26.05 12.35 L27.5 12.45 28.95 12.85 33.85 13.85 35.65 13.85 36.6 13.85 37.35 14.45 38.7 16.65 40.1 18.75 41.2 20.35 Q41.9 21.6 39.4 21.35 L36.7 20.5 34.25 19.25 Q32.8 18.45 32.25 17.7 L31.4 16.9 30.55 16.05 29.65 15.7 28.75 15.4 M23.95 16.95 L24.15 18.1 Q24.35 19.2 24.9 20.45 L26.15 22.65 27.45 25.1 28.75 27.7 29.65 29.15 Q30.15 30.0 30.25 30.75 30.3 31.2 30.05 30.85 L29.65 30.25 28.75 29.1 27.05 26.55 26.15 24.6 25.35 22.5 Q24.45 20.4 23.25 19.85 22.3 19.05 22.9 16.6 L23.1 15.7 23.4 15.3 23.65 15.8 23.95 16.95 M27.95 21.15 L29.95 24.0 31.75 26.95 33.35 29.45 34.9 32.05 Q35.45 32.9 35.6 33.95 35.75 34.6 35.4 35.25 L34.9 35.7 34.45 35.9 Q33.85 35.95 33.0 35.25 L31.8 33.9 Q31.2 33.0 31.05 32.25 L30.85 30.85 30.7 29.5 29.35 26.9 28.05 24.55 26.75 22.2 Q25.05 19.2 24.55 17.2 L25.45 17.75 26.15 18.75 27.95 21.15 M36.8 37.05 L37.95 37.7 Q38.25 37.9 38.15 38.3 38.1 38.65 37.6 38.5 L36.9 38.15 36.3 37.75 35.75 37.25 Q35.5 37.05 35.65 36.85 L36.2 36.75 36.8 37.05" fill="url(#gradient1)" fill-rule="evenodd" stroke="none"/>
      <path d="M-48.05 -31.25 L-44.85 -31.1 Q-36.15 -30.1 -28.45 -25.8 -23.5 -23.05 -18.3 -18.35 L-9.5 -9.9 -4.75 -4.65 -0.4 0.65 3.15 5.0 Q9.3 13.05 10.2 12.9 L10.25 13.5 Q10.0 13.25 7.05 14.5 4.4 15.6 3.65 16.05 L2.45 17.6 -0.75 22.15 -4.5 27.65 -8.25 33.2 -10.2 35.55 -12.05 37.95 -13.25 40.1 Q-14.05 41.45 -14.8 42.1 L-16.1 42.9 -17.85 43.0 Q-19.1 43.0 -19.55 43.6 L-19.8 45.0 -19.9 47.65 Q-20.2 49.3 -21.15 50.0 L-22.55 50.1 Q-23.95 49.75 -23.7 48.4 -23.65 47.4 -23.75 47.0 -24.1 45.9 -25.4 45.75 L-27.55 46.1 Q-28.55 46.5 -29.15 47.75 L-29.9 49.6 Q-30.3 50.7 -30.95 51.3 -32.45 52.7 -33.15 51.85 -33.7 51.15 -32.9 49.7 L-31.7 48.15 Q-30.75 47.25 -30.55 46.6 -29.8 44.9 -30.7 43.75 -31.75 42.4 -34.15 42.95 -36.45 43.4 -38.85 45.4 L-42.6 48.75 Q-47.65 52.8 -51.75 52.1 -53.6 51.8 -54.3 50.85 -54.75 50.2 -53.9 49.5 -53.35 49.0 -52.35 48.65 L-49.6 48.05 -46.75 47.7 Q-43.6 46.95 -40.55 45.2 -37.4 43.25 -35.9 41.65 -33.55 39.15 -34.9 37.0 -35.4 36.1 -36.65 35.6 L-38.95 35.65 -40.15 35.95 Q-41.3 35.95 -41.3 35.4 -41.25 34.95 -40.55 34.45 L-39.35 33.85 Q-35.5 31.6 -36.1 29.55 -36.4 28.6 -37.55 28.0 -38.75 27.5 -39.9 27.7 L-40.3 27.7 -40.85 27.85 -41.7 27.8 Q-42.0 27.6 -41.8 27.15 L-41.3 26.55 -39.75 25.4 -38.15 24.25 Q-37.2 23.45 -37.3 22.35 -37.45 21.55 -38.2 21.2 L-39.7 20.65 Q-41.0 19.9 -38.8 17.6 L-37.9 16.8 -37.1 15.95 -36.6 14.65 -35.95 13.45 Q-35.15 12.5 -33.35 11.8 L-30.1 10.75 -26.4 9.6 -22.65 8.35 -29.6 8.0 Q-33.75 7.65 -36.45 6.7 -38.75 5.9 -40.65 3.85 -42.4 2.05 -43.1 0.1 L-43.55 -2.45 -43.8 -5.0 Q-44.15 -7.25 -45.6 -11.55 L-47.35 -17.45 -48.55 -20.6 -49.6 -23.75 -50.0 -25.3 Q-50.2 -26.2 -50.55 -26.8 L-51.6 -28.75 Q-51.95 -29.8 -50.9 -30.55 -50.0 -31.25 -48.05 -31.25" fill="url(#gradient2)" fill-rule="evenodd" stroke="none"/>
    </g>
    <linearGradient gradientTransform="matrix(0.0198, 0.0, 0.0, 0.0071, 41.95, 3.6)" gradientUnits="userSpaceOnUse" id="gradient1" spreadMethod="pad" x1="-819.2" x2="819.2">
      <stop offset="0.0" stop-color="#d76da1"/>
      <stop offset="0.5372549019607843" stop-color="#926cd4"/>
      <stop offset="1.0" stop-color="#72bee0"/>
    </linearGradient>
    <radialGradient cx="0" cy="0" gradientTransform="matrix(-0.0615, 0.0, 0.0, 0.0615, -24.45, 10.45)" gradientUnits="userSpaceOnUse" id="gradient2" r="819.2" spreadMethod="pad">
      <stop offset="0.0" stop-color="#311e34"/>
      <stop offset="0.5176470588235295" stop-color="#3f2643"/>
      <stop offset="1.0" stop-color="#311e34"/>
    </radialGradient>
    <g id="shape3" transform="matrix(1.0, 0.0, 0.0, 1.0, 47.7, 29.05)">
      <path d="M-47.55 -28.5 L-47.55 -29.0 -47.0 -28.95 -46.55 -28.8 -46.3 -28.4 -46.25 -27.9 -46.85 -27.95 Q-47.2 -28.0 -47.35 -28.15 L-47.55 -28.5 M-45.95 -28.95 L-44.95 -28.15 Q-44.45 -27.8 -43.8 -27.65 -43.0 -27.55 -41.6 -28.3 -40.15 -29.1 -39.45 -29.05 -40.4 -28.85 -41.75 -27.7 L-42.6 -26.85 Q-43.25 -26.35 -43.8 -26.4 -44.7 -26.4 -45.35 -27.35 L-45.8 -28.3 -45.95 -28.95 M-46.55 -26.8 L-47.45 -27.6 -46.75 -27.45 -45.6 -27.1 Q-44.55 -26.55 -44.55 -25.8 -44.5 -25.3 -45.05 -24.8 L-46.1 -24.05 Q-47.5 -22.9 -47.7 -22.1 -47.75 -22.75 -46.8 -23.95 -45.85 -25.1 -46.0 -25.8 L-46.55 -26.8 M-43.85 -25.9 Q-43.4 -26.15 -43.0 -25.9 L-42.65 -25.4 -42.55 -24.75 -43.35 -24.8 Q-43.75 -24.85 -43.9 -25.15 -44.25 -25.45 -43.85 -25.9 M-41.05 -25.2 L-40.65 -24.2 Q-39.95 -23.55 -39.3 -23.2 L-37.6 -22.75 -36.2 -22.7 -35.45 -22.85 -35.05 -22.7 -37.1 -22.3 Q-39.1 -22.05 -40.7 -23.15 -39.45 -21.85 -39.7 -20.1 L-40.25 -18.35 -40.45 -18.7 -40.25 -19.35 Q-40.1 -19.95 -40.25 -20.5 L-40.85 -21.9 -42.0 -23.05 -43.1 -23.45 -44.3 -23.25 Q-45.0 -22.95 -45.3 -22.45 -45.6 -21.9 -45.25 -21.35 L-44.75 -20.9 -45.0 -21.25 -45.1 -21.7 -44.8 -22.25 Q-44.25 -22.75 -43.55 -22.55 -42.9 -22.3 -42.6 -21.6 -42.45 -20.9 -43.35 -20.0 -44.15 -19.25 -45.15 -19.45 -46.3 -19.6 -46.85 -20.6 -47.35 -21.6 -46.85 -22.55 -46.4 -23.4 -45.2 -23.9 -44.0 -24.5 -42.9 -24.3 -42.1 -24.2 -41.3 -23.7 -41.9 -24.3 -42.05 -25.05 -42.25 -25.95 -41.6 -26.95 -40.95 -27.95 -39.95 -28.35 -38.75 -28.8 -37.65 -28.35 -36.45 -27.85 -36.3 -26.8 -36.2 -26.5 -36.45 -26.0 L-36.95 -25.35 Q-38.0 -24.6 -38.8 -24.75 -39.65 -25.0 -40.0 -25.5 -40.2 -26.1 -39.65 -26.6 L-38.9 -26.9 -38.45 -26.8 -38.0 -26.55 -38.55 -27.0 Q-39.2 -27.25 -39.85 -27.0 L-40.75 -26.2 Q-41.15 -25.75 -41.05 -25.2 M-17.2 -13.35 L-16.8 -13.5 Q-16.05 -13.4 -15.05 -12.0 L-14.55 -11.05 Q-14.35 -10.35 -14.95 -10.45 -15.5 -10.6 -16.1 -11.05 L-16.9 -11.95 -17.3 -12.9 -17.2 -13.35 M-27.15 -12.05 Q-26.15 -11.7 -25.35 -10.85 -24.45 -9.8 -24.7 -8.9 -25.15 -8.55 -26.25 -8.7 L-27.95 -9.1 -29.5 -9.2 Q-30.7 -9.5 -30.65 -10.1 -30.6 -11.35 -29.4 -11.85 L-27.15 -12.05 M-24.1 -10.2 Q-24.65 -11.4 -23.9 -11.2 L-20.05 -10.6 Q-17.95 -10.15 -16.35 -9.35 L-12.9 -7.25 -9.95 -4.5 Q-6.75 -1.2 -4.85 1.65 L-3.05 4.35 Q-2.0 6.0 -2.25 7.25 -3.75 7.15 -5.6 5.5 L-8.55 2.65 Q-11.65 0.05 -15.35 -2.1 L-17.3 -3.25 -19.05 -4.55 -20.1 -5.55 -21.2 -6.65 -23.25 -8.8 -24.1 -10.2 M-35.4 -1.1 L-33.55 -1.75 Q-30.95 -2.5 -27.35 -1.85 L-25.1 -1.45 -22.9 -1.05 -20.5 -1.2 -18.1 -1.6 Q-16.8 -1.65 -15.1 -0.55 L-12.4 1.35 -10.65 2.7 -8.95 3.9 -7.35 4.85 Q-6.45 5.6 -6.45 6.4 L-6.45 6.5 -6.15 6.85 Q-4.85 8.2 -4.75 9.05 -4.75 9.7 -5.35 9.4 L-6.05 8.85 -6.8 7.95 Q-7.9 6.85 -8.9 6.35 -10.65 5.5 -12.85 5.45 L-16.95 5.6 -20.15 5.2 -23.2 4.1 -24.65 3.5 -26.05 3.45 -28.0 4.1 -29.9 4.65 Q-33.1 5.4 -35.2 4.35 -36.35 3.65 -36.85 2.55 -37.5 1.3 -36.75 0.15 L-35.4 -1.1 M-40.45 -4.7 L-40.4 -5.25 -39.95 -5.3 Q-39.55 -4.85 -39.65 -4.05 -39.65 -3.7 -39.8 -3.5 L-40.25 -3.45 -40.45 -4.7 M-34.7 -7.9 Q-33.65 -8.45 -31.9 -8.4 L-29.1 -8.2 -26.25 -8.0 -24.65 -7.9 Q-23.75 -7.8 -23.2 -7.25 L-21.15 -5.25 -19.1 -3.1 Q-18.15 -2.25 -20.6 -2.0 L-22.45 -2.05 -25.65 -2.4 -28.55 -2.9 -31.25 -2.95 -34.8 -2.7 Q-36.95 -2.85 -36.45 -4.7 L-35.85 -6.55 Q-35.4 -7.6 -34.7 -7.9 M-39.75 -15.65 Q-40.8 -16.45 -39.65 -17.35 -38.7 -18.3 -37.75 -18.35 L-35.05 -18.0 -32.45 -17.55 Q-28.1 -16.75 -29.7 -14.6 -29.95 -14.15 -31.35 -14.3 L-33.25 -14.65 -35.3 -14.75 -37.25 -14.9 -38.55 -15.15 -39.75 -15.65 M-38.65 -14.25 Q-37.75 -14.3 -36.85 -13.7 -36.05 -13.1 -35.75 -12.15 -35.55 -11.3 -36.15 -10.55 -36.8 -9.8 -37.8 -10.05 -39.1 -10.3 -39.75 -12.05 -40.3 -13.85 -38.65 -14.25 M-23.6 -15.65 L-23.4 -15.8 -22.9 -15.55 Q-22.6 -15.4 -22.65 -15.15 L-22.95 -14.75 -23.45 -14.75 -23.75 -15.3 -23.6 -15.65 M-21.15 -16.35 L-21.3 -16.95 -20.7 -17.2 -19.4 -16.05 -19.05 -15.35 Q-19.05 -15.15 -19.3 -15.1 L-19.75 -15.15 Q-20.55 -15.4 -21.15 -16.35 M-28.35 -16.7 L-29.5 -17.05 -30.7 -17.65 -32.4 -18.05 -34.35 -18.45 Q-35.7 -18.9 -35.7 -19.55 -35.75 -20.25 -34.7 -20.65 L-31.95 -20.85 Q-30.9 -20.65 -29.5 -19.65 L-27.8 -18.2 Q-26.75 -17.15 -28.35 -16.75 L-28.35 -16.7 M-29.75 -22.1 Q-29.1 -21.8 -28.25 -21.1 -26.2 -19.25 -26.85 -18.85 -27.8 -19.05 -29.15 -19.9 L-30.35 -20.65 Q-31.2 -21.35 -31.05 -21.75 L-30.5 -22.15 -29.75 -22.1 M-24.4 -20.25 L-23.65 -19.2 Q-23.45 -18.7 -23.85 -18.6 -24.3 -18.4 -24.75 -18.6 L-26.0 -19.55 -27.2 -20.65 -27.9 -21.5 -28.05 -22.2 Q-28.05 -22.6 -27.45 -22.2 L-24.4 -20.25 M-42.1 -11.35 L-42.35 -11.15 -42.6 -11.2 -42.75 -11.8 -42.5 -12.4 -41.95 -11.7 Q-41.95 -11.4 -42.1 -11.35 M-41.55 -10.15 Q-41.2 -10.05 -41.0 -9.55 L-40.7 -8.7 -40.7 -8.1 Q-40.9 -7.8 -41.15 -8.2 -41.55 -8.55 -41.8 -9.2 -42.15 -10.1 -41.55 -10.15 M-41.65 -12.9 Q-41.8 -14.15 -41.2 -14.15 -40.65 -14.15 -40.4 -12.9 -40.2 -11.7 -40.85 -11.65 -41.5 -11.6 -41.65 -12.9 M-6.2 -4.2 Q-2.4 -0.5 1.0 8.0 -0.7 5.1 -4.25 0.25 -7.75 -4.6 -11.95 -8.6 -10.0 -7.95 -6.2 -4.2 M-20.95 38.65 L-21.2 38.95 -21.55 38.95 Q-22.1 38.65 -21.85 38.0 L-21.55 37.65 -21.15 37.65 Q-20.75 38.1 -20.95 38.65 M-31.25 35.95 L-30.4 36.4 Q-29.3 37.0 -28.7 37.55 -27.8 38.3 -27.45 39.25 -27.15 40.15 -27.75 41.5 L-27.75 40.9 Q-27.7 40.55 -27.8 40.35 -28.3 39.05 -29.2 38.5 -29.55 38.25 -30.05 38.1 L-31.0 37.9 -31.0 38.85 -30.65 41.25 -30.15 42.25 -29.5 43.1 -28.7 44.0 -30.7 42.4 -31.9 40.8 -32.25 39.35 -32.4 37.8 -32.9 35.5 -33.6 34.25 -33.75 34.0 -33.6 34.1 -32.05 35.4 -31.25 35.95 M-30.45 36.95 Q-31.6 36.65 -32.15 36.0 -31.8 36.45 -31.8 37.2 L-31.75 39.25 Q-31.7 40.4 -31.3 41.25 L-31.4 40.35 -31.45 38.7 -31.4 38.0 -31.35 37.0 -30.75 37.2 -30.1 37.25 Q-29.5 37.35 -28.75 38.0 L-29.55 37.3 Q-29.95 37.05 -30.45 36.95 M-33.85 29.4 Q-34.05 28.65 -33.6 28.0 -33.35 27.65 -32.9 27.55 -32.35 27.4 -32.1 27.85 L-31.85 29.35 -31.7 30.0 -31.8 30.75 Q-31.9 31.1 -32.4 31.05 L-33.2 30.8 Q-34.05 30.3 -33.95 29.45 L-33.85 29.4 M-20.9 35.25 Q-20.7 34.9 -20.35 35.0 -19.8 35.25 -19.55 35.95 L-19.65 36.45 -20.2 36.4 -20.7 36.15 -21.0 35.8 Q-21.15 35.5 -20.9 35.25 M-24.75 37.05 L-24.2 37.05 Q-23.6 37.6 -23.6 37.95 -23.6 38.4 -23.9 38.35 -24.0 38.2 -24.4 38.0 L-24.75 37.75 -25.05 37.45 -24.75 37.05 M-23.5 35.2 Q-23.35 34.95 -23.05 35.0 -22.75 35.05 -22.6 35.25 -22.4 35.45 -22.35 35.7 L-22.4 36.05 -22.65 36.3 -23.15 36.1 -23.6 35.65 -23.5 35.2 M-26.15 36.35 Q-25.8 37.0 -26.45 37.1 L-27.1 37.0 -27.5 36.35 Q-27.55 35.85 -26.95 35.6 -26.4 35.8 -26.15 36.35 M-30.05 33.05 Q-29.4 33.1 -29.2 33.95 -28.95 34.75 -29.65 34.85 -30.3 34.85 -30.55 34.0 -30.75 33.05 -30.1 32.95 L-30.05 33.05 M-26.6 33.4 Q-26.2 33.6 -26.2 34.0 -26.15 34.4 -26.45 34.45 L-26.9 34.3 -27.2 33.9 -27.05 33.5 -26.6 33.4 M-20.55 22.65 Q-20.2 23.3 -21.4 24.6 L-23.05 26.25 -24.35 27.55 -25.55 29.0 -26.6 30.4 Q-27.3 31.25 -28.1 31.4 -29.55 31.65 -30.25 30.35 -30.85 29.15 -30.2 27.85 -29.75 26.95 -28.95 26.3 L-27.3 25.15 -24.05 23.3 Q-22.05 22.3 -20.55 22.65 M-35.4 23.9 Q-35.1 23.65 -34.75 23.75 -34.35 23.8 -34.05 24.1 L-33.65 25.0 Q-33.5 25.6 -33.75 26.0 L-34.85 25.85 -34.9 25.8 -35.1 25.45 -35.55 24.75 Q-35.75 24.35 -35.4 23.9 M-30.6 14.5 Q-31.25 14.3 -31.05 13.75 -30.85 13.1 -30.3 13.1 -29.85 13.45 -30.0 14.05 -30.1 14.65 -30.6 14.5 M-31.8 16.05 Q-31.85 16.9 -32.5 17.05 -33.3 17.2 -33.3 16.4 -33.25 15.6 -32.6 15.3 L-32.55 15.3 Q-31.8 15.2 -31.8 16.05 M-34.8 18.45 L-34.2 18.5 Q-33.8 19.05 -33.85 19.7 L-34.0 20.1 Q-34.15 20.3 -34.4 20.1 -35.05 19.65 -34.95 18.9 L-34.8 18.45 M-4.45 17.8 Q-4.05 17.3 -3.55 17.25 -4.05 19.25 -5.75 22.25 L-7.05 24.6 -8.35 26.95 -9.7 29.55 -9.85 30.9 -10.05 32.3 Q-10.2 33.05 -10.8 33.95 L-12.0 35.3 Q-12.85 36.0 -13.45 35.95 L-13.9 35.75 -14.4 35.3 Q-14.75 34.65 -14.6 34.0 -14.45 32.95 -13.9 32.1 L-12.35 29.5 -10.75 27.0 -8.95 24.05 -6.95 21.2 -5.15 18.8 -4.45 17.8 M-3.15 18.15 L-2.95 17.0 -2.65 15.85 -2.4 15.35 -2.1 15.75 -1.9 16.65 Q-1.3 19.1 -2.25 19.9 -3.45 20.45 -4.35 22.55 L-5.15 24.65 -6.05 26.6 -7.75 29.15 -8.65 30.3 -9.05 30.9 Q-9.3 31.25 -9.25 30.8 -9.15 30.05 -8.65 29.2 L-7.75 27.75 -6.45 25.15 -5.15 22.7 -3.9 20.5 Q-3.35 19.25 -3.15 18.15 M-14.4 24.2 Q-13.8 23.2 -12.95 21.1 -12.35 19.65 -10.55 18.4 L-7.4 16.5 -5.3 14.95 Q-3.6 13.85 -3.25 14.65 -3.15 15.95 -4.45 17.35 L-6.75 19.45 Q-9.65 22.25 -11.35 25.6 L-15.55 33.6 -16.15 34.65 -16.9 35.55 -18.0 35.65 -19.05 35.1 Q-20.0 34.55 -20.2 33.75 -20.25 33.05 -19.9 31.9 L-18.7 29.35 -17.6 28.15 -16.35 27.0 Q-15.2 25.9 -14.4 24.2 M-16.9 21.9 L-15.4 21.2 -14.0 20.6 Q-13.5 21.25 -14.2 22.5 L-15.3 24.25 -16.85 25.85 -18.5 27.45 Q-19.85 28.95 -20.4 31.1 -20.8 32.4 -21.45 33.05 -22.15 33.85 -23.35 34.1 -25.05 34.5 -25.55 33.1 -26.0 31.8 -25.25 30.4 -24.4 28.7 -22.3 26.35 L-20.85 24.6 -19.25 23.05 -18.05 22.4 -16.9 21.9 M-20.15 14.5 Q-17.6 14.4 -17.75 15.2 L-18.3 16.65 Q-19.6 17.2 -22.25 17.75 L-26.15 18.75 -27.6 19.6 -29.35 20.2 Q-30.05 20.25 -30.35 19.9 L-30.45 19.85 -30.8 18.45 Q-30.8 17.6 -30.45 17.1 -29.5 15.85 -27.55 15.4 L-24.05 14.85 -20.15 14.5 M-17.55 13.95 L-19.55 14.05 -21.25 14.0 -24.95 14.2 -26.5 14.35 Q-27.45 14.35 -27.15 13.5 -26.75 12.4 -25.6 11.4 -24.7 10.7 -23.5 10.55 L-21.15 10.75 Q-17.25 11.5 -17.05 13.7 -17.05 13.85 -17.55 13.95 M-19.15 17.55 Q-18.95 17.5 -19.15 17.7 L-19.3 17.95 -20.55 19.4 Q-21.2 20.3 -21.2 21.1 -21.5 21.75 -22.35 22.1 L-23.85 22.65 Q-26.2 23.25 -27.3 23.85 L-29.55 25.7 Q-31.2 26.8 -31.9 25.3 -32.3 24.45 -32.2 23.55 -32.1 22.5 -31.35 22.05 -30.75 21.6 -29.75 21.3 L-28.05 20.65 -25.6 19.6 Q-24.15 18.95 -23.1 18.65 L-19.15 17.55 M-10.4 16.95 L-11.25 17.75 Q-11.8 18.5 -13.25 19.3 L-15.7 20.55 -18.4 21.4 Q-20.9 21.65 -20.2 20.4 L-19.1 18.8 -17.7 16.7 -16.35 14.5 -15.6 13.9 -14.65 13.9 -12.85 13.9 -7.95 12.9 -6.5 12.5 -5.05 12.4 Q-4.0 12.5 -4.15 13.1 -4.25 13.55 -4.95 14.05 -6.15 14.85 -7.75 15.45 L-8.65 15.75 -9.55 16.1 -10.4 16.95 M-9.4 10.7 Q-7.95 10.7 -7.25 11.3 -6.9 11.9 -8.7 12.6 L-11.0 13.35 -12.7 13.6 -14.4 13.6 Q-15.3 13.5 -16.3 12.75 L-17.9 11.55 -19.2 11.0 -20.2 10.5 Q-21.0 9.95 -20.65 9.8 L-19.15 9.7 -15.35 10.3 -13.55 10.55 -11.8 10.8 -9.4 10.7 M-23.25 39.7 L-21.2 39.95 -20.25 40.15 -19.3 40.3 -17.25 40.35 -17.05 40.35 -17.4 40.45 -18.7 40.95 -20.55 42.35 -21.7 43.4 -22.95 44.3 -24.85 44.7 -27.45 44.6 -26.25 44.45 -25.2 44.2 -24.15 43.8 -22.35 42.25 -21.7 41.5 -22.55 41.05 -23.45 40.75 Q-24.5 40.6 -25.75 41.25 L-26.15 41.65 -26.55 42.1 Q-26.1 40.7 -25.25 40.2 -24.4 39.7 -23.25 39.7 M-25.0 43.1 L-26.25 43.15 Q-26.5 42.95 -26.2 42.7 -26.0 42.45 -25.65 42.35 L-24.85 42.3 -24.1 42.4 -24.0 42.45 -24.45 42.7 -25.0 43.1 M-21.4 40.8 L-20.85 41.05 -21.5 41.85 -21.9 42.4 -23.0 43.6 -23.7 44.2 -22.0 43.0 -20.65 41.5 Q-20.1 40.9 -19.55 40.8 -20.4 40.95 -21.5 40.4 L-22.45 40.1 Q-23.1 39.95 -23.5 40.1 L-21.95 40.4 -21.4 40.8 M-19.9 38.65 Q-19.4 38.15 -18.9 38.35 -18.55 38.35 -18.95 38.9 -19.25 39.35 -19.6 39.35 L-19.9 39.3 -20.05 39.05 -19.9 38.65 M-15.8 37.1 L-15.2 36.8 -14.65 36.9 Q-14.5 37.1 -14.75 37.3 L-15.3 37.8 -15.9 38.2 -16.6 38.55 Q-17.1 38.7 -17.15 38.35 -17.25 37.95 -16.95 37.75 L-15.8 37.1 M-29.9 40.15 L-29.8 40.15 -29.15 40.55 -28.55 41.1 -28.4 41.75 Q-28.3 42.15 -28.65 42.1 -29.2 42.05 -29.55 41.25 L-29.7 40.6 -29.9 40.15" fill="url(#gradient3)" fill-rule="evenodd" stroke="none"/>
      <path d="M13.9 12.25 L11.75 13.2 11.15 13.35 10.45 13.45 9.6 13.35 9.05 13.2 Q7.85 12.85 6.9 12.25 L5.7 11.35 4.45 10.4 Q3.3 9.55 2.45 9.9 1.65 10.2 1.65 11.35 L1.7 11.75 Q1.9 12.4 2.8 12.95 3.95 13.75 4.4 12.95 L3.85 12.7 3.6 12.15 Q3.6 11.75 3.85 11.55 4.1 11.3 4.45 11.3 4.9 11.3 5.15 11.65 L5.35 12.4 Q5.3 13.45 4.25 13.8 3.1 14.2 1.75 12.95 L1.1 12.2 Q0.75 11.4 0.8 10.55 0.85 9.7 1.35 9.1 L0.95 8.95 0.7 8.65 Q1.05 8.1 2.05 7.95 3.1 7.8 3.65 8.3 L3.6 7.9 3.7 7.6 5.3 8.7 6.55 10.1 7.8 11.5 9.65 12.75 10.4 12.9 11.1 12.75 13.0 11.5 14.25 10.1 15.5 8.7 17.1 7.6 17.15 7.9 17.15 8.3 Q17.7 7.8 18.75 7.95 19.75 8.1 20.05 8.65 L19.8 8.95 19.45 9.1 Q19.95 9.7 20.0 10.55 L19.65 12.2 19.05 12.95 Q17.7 14.2 16.5 13.8 15.5 13.45 15.45 12.4 15.4 11.95 15.65 11.65 15.9 11.3 16.3 11.3 16.7 11.3 16.95 11.55 L17.15 12.15 16.95 12.7 16.4 12.95 Q16.85 13.75 18.0 12.95 L19.1 11.75 19.15 11.35 Q19.15 10.2 18.35 9.9 17.5 9.55 16.35 10.4 L15.1 11.35 13.9 12.25 M19.15 8.6 L18.35 8.5 Q17.65 8.6 17.2 8.85 L18.1 8.75 19.15 8.6 M2.65 8.75 L3.55 8.85 2.45 8.5 1.6 8.6 2.65 8.75" fill="#3e2542" fill-rule="evenodd" stroke="none"/>
    </g>
    <linearGradient gradientTransform="matrix(-0.0198, 0.0, 0.0, 0.0071, -20.95, 3.65)" gradientUnits="userSpaceOnUse" id="gradient3" spreadMethod="pad" x1="-819.2" x2="819.2">
      <stop offset="0.0" stop-color="#d76da1"/>
      <stop offset="0.5372549019607843" stop-color="#926cd4"/>
      <stop offset="1.0" stop-color="#72bee0"/>
    </linearGradient>
  </defs>
</svg>
