<?xml version="1.0" encoding="UTF-8" standalone="no"?>
<svg xmlns:ffdec="https://www.free-decompiler.com/flash" xmlns:xlink="http://www.w3.org/1999/xlink" ffdec:objectType="frame" height="57.9px" width="61.45px" xmlns="http://www.w3.org/2000/svg">
  <g transform="matrix(1.0, 0.0, 0.0, 1.0, 10.0, 3.5)">
    <use ffdec:characterId="1" height="57.9" transform="matrix(1.0, 0.0, 0.0, 1.0, -10.0, -3.5)" width="61.45" xlink:href="#shape0"/>
  </g>
  <defs>
    <g id="shape0" transform="matrix(1.0, 0.0, 0.0, 1.0, 10.0, 3.5)">
      <path d="M17.15 24.5 L16.95 24.0 Q16.4 22.4 16.2 20.65 L16.15 20.5 17.3 21.3 Q18.75 21.6 19.95 20.15 L20.45 19.45 21.45 17.15 21.45 17.0 21.7 14.65 21.55 13.65 21.0 12.4 20.75 12.1 19.85 11.55 17.8 11.8 18.35 10.9 Q19.35 9.35 21.1 7.85 L21.8 7.35 21.7 7.65 Q23.15 8.0 27.15 6.45 31.05 4.95 31.25 4.3 L31.2 4.25 32.4 4.3 Q35.2 4.65 37.5 5.9 L38.9 6.7 35.9 7.75 Q35.05 8.8 35.45 10.4 35.8 11.85 37.0 13.4 38.2 14.9 39.7 15.5 L42.65 15.35 44.0 12.65 44.6 14.2 Q45.45 16.7 45.3 19.4 L45.15 20.9 44.9 20.5 Q44.15 20.6 42.15 24.25 L41.1 26.4 40.45 28.1 40.2 29.1 40.2 29.2 40.2 29.5 40.75 29.5 40.25 29.95 Q38.5 31.45 36.65 32.25 L36.2 32.45 36.6 30.95 Q36.35 29.6 34.85 29.0 L31.45 28.6 31.35 28.6 30.05 28.85 Q29.0 29.05 28.1 29.55 27.15 30.2 26.8 31.05 L26.6 32.05 26.6 32.1 27.15 33.05 26.55 32.9 Q25.15 32.5 23.6 31.7 L23.15 31.5 23.65 31.4 21.85 29.3 17.3 24.0 17.15 24.5 M9.15 40.1 L8.2 40.9 8.6 40.5 9.15 40.1 M2.05 46.2 L0.55 47.5 0.55 47.75 0.55 48.0 0.2 47.65 2.05 46.2 M-2.45 44.9 L-2.75 44.6 -2.2 44.6 -2.05 44.55 -1.65 44.25 -2.45 44.9 M26.75 15.0 Q25.0 16.5 24.85 18.85 24.65 21.25 26.2 23.0 27.7 24.75 30.1 24.9 32.45 25.1 34.2 23.6 36.0 22.05 36.15 19.65 36.3 17.3 34.8 15.55 33.25 13.8 30.9 13.6 28.55 13.45 26.75 15.0" fill="#333333" fill-rule="evenodd" stroke="none"/>
      <path d="M-2.5 45.0 L-2.05 45.3 -2.45 44.9 -1.65 44.25 -1.6 44.2 -1.2 43.85 -0.1 44.65 -1.65 45.9 -2.5 45.0" fill="#cccccc" fill-rule="evenodd" stroke="none"/>
      <path d="M6.9 42.0 L5.2 43.45 2.55 40.6 3.85 39.5 5.25 39.7 6.9 42.0 M2.85 45.5 L2.05 46.2 -0.1 44.65 -1.2 43.85 0.7 42.2 2.0 41.85 2.85 45.5" fill="#f3f3f3" fill-rule="evenodd" stroke="none"/>
      <path d="M-0.2 47.9 L-0.2 47.95 0.0 49.4 Q0.0 51.45 -1.5 52.9 -2.85 54.4 -5.0 54.4 -7.05 54.4 -8.55 52.9 -10.0 51.45 -10.0 49.4 -10.0 47.3 -8.55 45.8 -7.05 44.4 -5.0 44.4 -3.6 44.4 -2.55 45.0 L-2.5 45.0 -1.65 45.9 -1.35 46.25 Q-0.4 47.35 -0.2 47.9 M6.7 37.05 L17.0 28.15 18.25 29.6 8.0 38.95 6.7 37.05 M-6.4 47.95 Q-7.0 48.55 -7.0 49.4 -7.0 50.2 -6.4 50.8 -5.8 51.4 -5.0 51.4 -4.15 51.4 -3.6 50.8 -3.0 50.2 -3.0 49.4 -3.0 48.55 -3.6 47.95 -4.15 47.4 -5.0 47.4 -5.8 47.4 -6.4 47.95" fill="#171717" fill-rule="evenodd" stroke="none"/>
      <path d="M17.15 24.5 L17.3 24.0 21.85 29.3 23.65 31.4 23.15 31.5 20.2 31.85 19.55 31.1 18.25 29.6 17.0 28.15 16.35 27.45 17.15 24.5" fill="#858585" fill-rule="evenodd" stroke="none"/>
      <path d="M19.55 31.1 L9.15 40.1 8.6 40.5 8.0 38.95 18.25 29.6 19.55 31.1" fill="#434343" fill-rule="evenodd" stroke="none"/>
      <path d="M8.2 40.9 L6.9 42.0 5.25 39.7 8.0 38.95 8.6 40.5 8.2 40.9" fill="#dedede" fill-rule="evenodd" stroke="none"/>
      <path d="M5.2 43.45 L2.85 45.5 2.0 41.85 5.2 43.45" fill="#e0e0e0" fill-rule="evenodd" stroke="none"/>
      <path d="M0.2 47.65 L-0.9 46.5 -0.2 47.9 Q-0.4 47.35 -1.35 46.25 L-1.65 45.9 -0.1 44.65 2.05 46.2 0.2 47.65" fill="#c6c6c6" fill-rule="evenodd" stroke="none"/>
      <path d="M0.7 42.2 L2.55 40.6 5.2 43.45 2.0 41.85 0.7 42.2 M3.85 39.5 L6.7 37.05 8.0 38.95 5.25 39.7 3.85 39.5" fill="#afafaf" fill-rule="evenodd" stroke="none"/>
      <path d="M44.6 14.2 L48.85 16.45 45.3 19.4 Q45.45 16.7 44.6 14.2 M35.8 1.4 L37.5 5.9 Q35.2 4.65 32.4 4.3 L35.8 1.4 M17.4 7.9 L21.1 7.85 Q19.35 9.35 18.35 10.9 L17.4 7.9 M16.95 24.0 L14.35 23.05 16.2 20.65 Q16.4 22.4 16.95 24.0 M36.65 32.25 Q38.5 31.45 40.25 29.95 L39.7 33.2 36.65 32.25 M23.6 31.7 Q25.15 32.5 26.55 32.9 L24.45 34.55 23.6 31.7" fill="#626262" fill-rule="evenodd" stroke="none"/>
      <path d="M42.65 15.35 L39.7 15.5 Q38.2 14.9 37.0 13.4 35.8 11.85 35.45 10.4 35.05 8.8 35.9 7.75 L38.9 6.7 48.55 3.55 44.0 12.65 42.65 15.35 M45.15 20.9 L51.45 29.5 40.75 29.5 40.2 29.5 Q40.1 28.0 42.15 24.25 44.15 20.6 44.9 20.5 L45.15 20.9 M31.25 4.3 Q31.05 4.95 27.15 6.45 23.15 8.0 21.7 7.65 L21.8 7.35 23.3 -3.5 31.2 4.25 31.25 4.3 M26.75 15.0 Q28.55 13.45 30.9 13.6 33.25 13.8 34.8 15.55 36.3 17.3 36.15 19.65 36.0 22.05 34.2 23.6 32.45 25.1 30.1 24.9 27.7 24.75 26.2 23.0 24.65 21.25 24.85 18.85 25.0 16.5 26.75 15.0 M21.45 17.0 Q21.0 18.85 19.95 20.15 18.75 21.6 17.3 21.3 L16.15 20.5 6.7 13.4 17.8 11.8 19.85 11.55 Q21.1 12.0 21.55 13.65 21.85 15.1 21.45 17.0 M34.85 29.0 Q36.35 29.6 36.6 30.95 L36.2 32.45 32.9 43.7 27.15 33.05 26.6 32.1 Q26.55 30.6 28.1 29.55 29.55 28.75 31.45 28.6 L34.85 29.0" fill="#959595" fill-rule="evenodd" stroke="none"/>
      <path d="M44.65 20.6 Q44.75 19.1 44.1 17.2 L43.0 14.55 44.0 12.65 44.6 14.2 Q45.45 16.7 45.3 19.4 L45.15 20.9 44.9 20.5 44.65 20.6" fill="#2e2e2e" fill-rule="evenodd" stroke="none"/>
      <path d="M23.45 -3.2 L23.4 -3.4 31.1 4.2 28.7 5.4 23.5 -3.15 23.45 -3.2 M48.3 4.3 L44.15 9.25 Q39.95 14.35 39.5 15.25 L39.3 15.35 Q38.7 15.25 37.9 14.3 L36.55 12.5 47.95 4.05 35.5 9.9 36.3 7.65 48.4 3.55 48.85 3.8 42.5 15.1 41.15 15.45 48.3 4.3 M43.5 22.05 L43.55 21.9 44.1 21.15 44.15 21.1 44.2 21.1 Q44.4 20.85 44.65 20.85 L45.0 20.85 51.0 29.15 43.05 23.2 Q43.2 22.55 43.5 22.05 M45.35 16.85 L48.2 16.55 45.45 19.45 Q45.6 17.15 45.35 16.85 M35.75 4.95 L34.85 4.6 35.65 2.1 37.35 5.75 Q36.75 5.3 35.75 4.95 M30.4 18.9 L34.3 15.55 35.4 16.9 Q36.55 19.1 35.7 21.05 L30.55 19.0 30.4 18.9 M30.2 19.05 L29.75 24.9 29.3 24.85 27.3 23.9 29.9 19.35 30.2 19.05 M6.95 13.5 L17.95 11.6 17.8 11.8 19.85 11.55 Q20.5 11.75 20.95 12.3 L21.0 13.8 6.95 13.5 M35.85 29.65 L33.05 42.7 33.05 28.7 33.75 28.7 34.85 29.0 34.9 29.05 35.85 29.65" fill="#ffffff" fill-opacity="0.4" fill-rule="evenodd" stroke="none"/>
      <path d="M23.45 -3.2 L23.5 -3.15 24.45 7.2 21.8 7.35 21.75 7.4 21.6 7.4 23.45 -3.2 M51.45 29.6 L40.3 29.1 41.15 26.85 51.45 29.6 M24.85 18.55 L24.95 18.15 25.75 16.95 30.4 18.9 30.2 19.05 29.9 19.35 26.15 22.6 Q24.8 20.7 24.8 19.15 L24.85 19.05 24.85 18.85 24.8 18.75 24.85 18.55 M6.95 13.5 L14.15 15.8 21.2 17.95 Q20.8 19.2 19.95 20.15 L19.3 20.75 19.2 20.8 12.2 16.5 6.95 13.5 M29.8 28.95 L30.2 29.0 33.05 42.8 33.05 42.95 27.3 30.65 28.25 29.65 28.65 29.35 29.0 29.15 29.45 29.0 29.55 29.0 29.65 29.0 29.8 28.95" fill="#000000" fill-opacity="0.4" fill-rule="evenodd" stroke="none"/>
      <path d="M43.5 22.05 L42.15 24.25 42.15 24.35 40.2 25.0 Q36.8 25.75 33.95 23.8 L34.2 23.6 Q36.0 22.05 36.15 19.65 36.3 17.3 34.8 15.55 33.25 13.8 30.9 13.6 L28.95 13.8 Q28.45 11.35 29.4 9.4 30.45 7.2 32.8 6.9 31.9 8.9 33.8 11.9 35.95 15.3 39.45 15.4 L39.7 15.5 42.65 15.35 43.0 14.55 44.1 17.2 Q44.75 19.1 44.65 20.6 L44.2 21.1 44.15 21.1 44.1 21.15 43.55 21.9 43.5 22.05" fill="#ffffff" fill-opacity="0.29803923" fill-rule="evenodd" stroke="none"/>
      <path d="M29.75 24.9 L30.1 24.9 30.95 24.95 Q28.95 25.45 25.2 22.85 20.9 19.9 22.2 16.4 23.2 14.8 25.8 14.15 L28.65 13.9 Q27.6 14.25 26.75 15.0 25.1 16.4 24.85 18.55 L24.8 18.75 24.85 18.85 24.85 19.05 24.8 19.15 Q24.75 21.35 26.2 23.0 27.45 24.45 29.3 24.85 L29.75 24.9 M28.65 29.35 L28.1 29.55 Q26.55 30.6 26.6 32.1 L27.15 33.05 26.55 32.9 24.85 32.35 23.95 31.95 23.4 31.65 20.2 31.55 19.4 31.05 14.75 35.45 Q13.85 35.55 13.05 35.0 11.55 34.05 12.55 31.6 L17.0 28.15 16.3 27.35 17.25 24.2 16.85 23.75 17.0 22.9 Q20.3 26.8 22.7 27.5 L24.75 27.3 26.9 26.5 Q29.85 25.7 33.5 28.65 L31.45 28.6 29.8 28.95 29.65 29.0 29.55 29.0 29.45 29.0 29.0 29.15 28.65 29.35" fill="#1c1c1c" fill-opacity="0.49803922" fill-rule="evenodd" stroke="none"/>
    </g>
  </defs>
</svg>
