<svg xmlns="http://www.w3.org/2000/svg" xmlns:ffdec="https://www.free-decompiler.com/flash" xmlns:xlink="http://www.w3.org/1999/xlink" ffdec:objectType="frame" width="38.05" height="49.35"><use ffdec:characterId="1" xlink:href="#a" width="38.05" height="49.35"/><defs><g id="a" fill-rule="evenodd"><path fill="#666" d="m19.8 8.2 1.85-.05 2.8 20.5L25.9 40.2l-1.4 1.15q-.8.85-1.55 2.2-2.2.6-5 0l-1.9-.6-.05-.1-1.15-1.25-1.7-1.4q1-2.15 2.4-12.9l2.2-19.2zm-9.55-1.15 3.35 1q-1.1 7.2-2.95 15.9-1.95 8.95-3.25 13l-2.65-.2q-2.15.15-3.25 1.1.65-1.65 2.75-10.9l3.65-15L8.95 9.4zm20.5 4.4q.75 1.35 2.5 11.75 1.95 11.75 2.95 15.2-.65-1.2-2.3-1.2-1.45-.05-2.15.55-2.05-3.7-3.8-15.75L25.9 8.3l3.25-.55z"/><path fill="#fff" d="m13.6 8.05 4.15.45-2.2 19q-1.4 10.55-2.4 12.7-.35 1.8-.15 5.05v.25q-1.8.9-2.85 0-1.2-1.45-2.4-2.25-.6-.45-.75-2.1l.1-2.35.3-1.85q1.3-4.05 3.25-13 1.85-8.7 2.95-15.9m8.05.5 4.25-.25q.95 5.4 2.5 16.75 1.5 9.35 3.35 12.7l.05 3.4q-.15 1.65-.75 2.1-1.15.8-2.4 2.55-1.1 1.15-2.9.25l.2-.75-.05-5.1-1.45-11.35zm.1 37.5-4.8-.25q.55-.9-.9-2.85 3.8 1.4 6.9.6l-.15.2q-1 1.75-1.05 2.3"/><path fill="#ccc" d="m13.6 8.05-3.35-1q.2-1.75 1.5-3.5Q14.3 0 19.65 0q4.9 0 7.75 3.9 1.45 1.95 1.85 3.85l-3.35.55-4.25.25-3.9-.05z"/><path fill="#7b5f5f" d="m14.3 48-2.4.2q-3.4-.15-4.9-2.3l-.55.85q-.8-1.45-2-2.15l-2.8-.8q-2.1-.5-1.5-1.5l.05-.1q.35-.6 2.05-1.2 1.85-.65 3-.35l1.75.5q.15 1.65.75 2.1 1.2.8 2.4 2.25 1.05.9 2.85 0v-.25q1.95 1.1 1.3 2.75"/><path fill="#ad7b7b" d="M16.95 45.8q-.4.05-1.3 1.15L14.3 48q.65-1.65-1.3-2.75-.2-3.25.15-5.05l1.7 1.4 1.2 1.35q1.45 1.95.9 2.85"/><path fill="#ecb1b1" d="M31.75 37.75q.7-.6 2.15-.55 1.65 0 2.3 1.2l1.7 4.3q-1-1.4-3.2-.9l-1.45-.3-1.45-.35zM.15 42.3l1.4-4.65q1.1-.95 3.25-1l2.6.3-.3 1.85-.1 2.35-1.75-.5q-1.15-.3-3 .35-1.7.6-2.05 1.2z"/><path fill="#795656" d="M24.5 49.15 23.1 48l-1.25-1.05q-.25-.4-.1-.9.05-.55 1.05-2.3l.15-.2q.5-1.15 1.55-2.2.7-.75 1.4-1.15l.05 5.1q-1 .55-1.4 1.8-.4 1.2-.05 2.05"/><path fill="#725a5a" d="M37.9 42.7q.7 1-2.35 2.65-1.55.8-3.25 1.4l-.45-.85q-.7 1-3.75 2.25-2.95 1.2-3.6 1-.35-.85.05-2.05.4-1.25 1.4-1.8l-.2.75q1.8.9 2.9-.25 1.25-1.75 2.4-2.55.6-.45.75-2.1l1.45.35 1.45.3q2.2-.5 3.2.9"/><path fill-opacity=".298" d="m34.9 34.45-.55 2.25-3.4-8.7q3.9 5.7 3.95 6.45"/><path fill-opacity=".4" d="m24.1 42.15-1 1.4 2.55.7.1-3.95zM16.4 18.5q-2.5-2.7-3.05-4.05-1.8-4.5-1.5-6.45.4-1 1.15-1.45 1.3-.85 4.7-1.2l7.5.35 3.65.8 1.6 4.8-7.35 6.95 2.6 18.2q.9.7 2.4 1.4 1.8.85 3 .85l-.6-2.65q-.65-3.5-.65-4.65l3.7 6.2.65 1.7q.65 1.75.45 2.15h1.45q2.95 1.4.45 3.35l-.8.6-.3.2q-1.6.9-3.15 1.05l-.25-.75q-6 3.75-7.75 3.45L23 47.9q-2.1 1.05-4.9.1l-2.35-1.15-1.45.95-3.5.3q-2.25-.1-3.9-2.05l-.35.6L4 44.4Q.15 44 .05 42.65 0 41.25 3.8 38.4l3.85-2.6-.55 4.7-.15.6q1.15 1 3.4.9 2.45-.15 2.85-1.85 1.9-7.8 2.75-15.5z"/></g></defs></svg>