<svg xmlns="http://www.w3.org/2000/svg" xmlns:ffdec="https://www.free-decompiler.com/flash" xmlns:xlink="http://www.w3.org/1999/xlink" ffdec:objectType="frame" width="56.7" height="64.25"><use ffdec:characterId="1" xlink:href="#a" width="56.7" height="64.25"/><defs><g id="a" fill-rule="evenodd"><path fill="#aa1e1f" d="M56.7 60.85q-.5 3.5-4 3.4L26.2 33.4l-2.15-2.45-6.5-7.55.2-.15q-.2-.4 0-.95.35-.8 1.2-1.45L20.5 20q.6-.2 1.05 0l8.35 9.7 1.75 2.05z"/><path d="M21.15 20.75q.15.15-.2.55l-.35.45-.45.35-1.05.65-.6.1q-.15-.2.2-.65l.8-.85 1.05-.7z"/><path fill="#fc0" d="m20.4 26.25 1-.5L23 24.6l.65-.9.45-.6.75.95q-1.05 2.4-3.7 3.1zm1.3-4.95-1.1 1.4q-.8.65-1.6.9l-.6.05-.15-.1-.25-.2q-.45-.55-.2-1.1.45-.9 1.2-1.45.75-.75 1.55-.85h.8q.35.1.6.6zm-.55-.55-.6-.1-1.05.7-.8.85q-.35.45-.2.65l.6-.1 1.05-.65.45-.35.35-.45q.35-.4.2-.55"/><path fill="#7e4b00" d="m24.1 23.1-.45.6-.65.9-1.6 1.15-1 .5-.8-.95.95-.4.85-.5.9-.75.85-1.05.15-.45zm-1.15 5.4q2.1-.85 3.2-3l.7.8q-1.3 2.35-3.7 3.1l-.7-.75z"/><path fill="#c00" d="M5.95 8.75 6 8.6l2.1-1.8h.1l1.1 1.25 1.5 1.7.4.45 1.2 1.35v-.05l2.9 3.3.05.05 1.8 2.05 2 2.25 1.4 1.6q-.05 1.4-2.3 1.85l-2.9-3.3-.15-.15-1.4-1.6-.55-.6-3.4-3.8-.15-.2-.25-.3-.1-.1-.05-.05z"/><path fill-opacity=".4" d="M17.95 23.45q1.25.1 1.95-.4l6.75 7.9 1.5 1.75L54.8 64.05h-2.3l-26.1-30.7-2.05-2.4zM6 8.55l.85-.7 13 14.25q-1.2.65-1.3.4z"/><path fill="#fc0" d="M1.05 1.05Q2.1 0 3.55 0q1.5 0 2.5 1.05Q7.1 2.1 7.1 3.55L7 4.6l.75-.7 1.3 1.55L8.2 6.8h-.1L6 8.6l-.05.15q-.75.4-1.6.7l-1.3-1.5 1-.85h-.5q-1.45 0-2.5-1Q0 5.05 0 3.55q0-1.45 1.05-2.5"/><path fill="#fff" fill-opacity=".694" d="m1 4.1-.45-.5.05-.9.4-.8.65-.25.45.55v.9q-.15.45-.45.8-.3.3-.65.2"/><path fill-opacity=".4" d="M3.6.3q1.65-.05 2.6 1 .75.8.9 2.15l.1.9q-.55.85-1.85 1.9L4 7.15l-1.3-.1q-.75-.75.5-.95 2.85-.65 2.2-3.15Q4.8.75 2.25.5z"/></g></defs></svg>