<?xml version="1.0" encoding="UTF-8" standalone="no"?>
<svg xmlns:ffdec="https://www.free-decompiler.com/flash" xmlns:xlink="http://www.w3.org/1999/xlink" ffdec:objectType="frame" height="89.05px" width="75.0px" xmlns="http://www.w3.org/2000/svg">
  <g transform="matrix(1.0, 0.0, 0.0, 1.0, 40.15, 33.05)">
    <use ffdec:characterId="1" height="89.05" transform="matrix(1.0, 0.0, 0.0, 1.0, -40.15, -33.05)" width="75.0" xlink:href="#shape0"/>
  </g>
  <defs>
    <g id="shape0" transform="matrix(1.0, 0.0, 0.0, 1.0, 40.15, 33.05)">
      <path d="M26.35 5.7 L25.6 5.35 24.6 5.05 23.9 5.1 22.75 4.0 Q21.55 2.75 21.15 1.8 L24.4 2.05 Q26.55 2.1 28.1 3.7 29.7 5.3 29.65 7.45 29.65 9.15 28.7 10.55 28.8 8.9 28.3 8.0 L26.35 5.7 M5.6 13.5 Q15.2 7.9 22.25 8.9 L23.85 8.65 23.0 11.55 Q22.05 13.65 20.45 14.95 L20.0 15.05 Q17.35 15.65 15.05 16.65 15.2 15.95 14.95 15.3 14.0 12.75 5.6 13.5 M-13.15 35.1 L-13.15 38.0 -14.65 36.8 Q-16.15 35.05 -16.0 32.5 L-16.0 32.45 Q-16.0 29.55 -11.35 25.45 -8.05 22.55 -3.85 20.15 -6.7 22.6 -9.25 26.15 -12.75 31.05 -13.15 35.1" fill="#f6fffe" fill-rule="evenodd" stroke="none"/>
      <path d="M26.35 5.7 L28.3 8.0 Q28.8 8.9 28.7 10.55 26.7 13.5 20.45 14.95 22.05 13.65 23.0 11.55 L23.85 8.65 Q24.75 8.2 25.7 7.15 26.55 6.2 26.35 5.7" fill="url(#gradient0)" fill-rule="evenodd" stroke="none"/>
      <path d="M-3.85 20.15 Q0.45 16.5 5.4 13.6 L5.6 13.5 Q14.0 12.75 14.95 15.3 15.2 15.95 15.05 16.65 9.1 19.2 5.35 24.55 2.15 29.15 1.4 34.0 -1.05 34.55 -2.2 33.6 L-2.2 33.55 -1.8 31.2 Q2.55 21.0 -1.8 26.55 L-6.4 33.25 -9.25 32.95 Q-11.4 32.45 -13.15 35.1 -12.75 31.05 -9.25 26.15 -6.7 22.6 -3.85 20.15" fill="url(#gradient1)" fill-rule="evenodd" stroke="none"/>
      <path d="M-2.2 33.6 L-2.7 33.0 Q-3.5 31.65 -5.6 33.0 L-6.4 33.25 -1.8 26.55 Q2.55 21.0 -1.8 31.2 L-2.2 33.55 -2.2 33.6" fill="#4a4a4a" fill-rule="evenodd" stroke="none"/>
      <path d="M21.15 1.8 Q21.55 2.75 22.75 4.0 L23.9 5.1 19.55 5.85 12.55 7.3 Q3.5 8.9 2.7 5.4 2.3 3.75 2.65 2.55 3.1 0.7 5.1 1.35 8.0 2.3 12.1 2.0 18.15 1.6 21.15 1.8" fill="url(#gradient2)" fill-rule="evenodd" stroke="none"/>
      <path d="M-32.95 -24.0 L-32.95 -23.95 -33.1 -23.7 Q-33.3 -22.8 -31.4 -19.75 -30.5 -18.2 -24.2 -10.4 L-16.1 -0.55 -15.35 0.0 -16.35 -0.25 -19.3 -1.7 -24.15 -1.65 -24.8 -4.45 Q-25.55 -7.5 -26.45 -8.8 L-31.7 -16.15 -36.2 -22.25 -37.15 -23.45 Q-38.7 -25.4 -40.15 -32.55 L-33.45 -24.55 -32.95 -24.0" fill="#797979" fill-rule="evenodd" stroke="none"/>
      <path d="M-10.6 2.7 L-12.2 0.8 -10.75 -0.35 -9.2 1.5 -10.6 2.7 M20.35 38.9 L-7.25 6.6 -5.8 5.55 21.4 38.0 20.35 38.9 M22.95 41.95 L22.0 40.85 23.15 40.0 24.0 41.05 22.95 41.95 M26.85 46.5 L24.75 44.0 25.7 43.15 27.85 45.65 26.85 46.5" fill="#346495" fill-rule="evenodd" stroke="none"/>
      <path d="M-10.6 2.7 L-11.5 3.45 -13.65 0.85 -12.8 0.15 -11.35 -1.1 -10.75 -0.35 -12.2 0.8 -10.6 2.7 M-5.8 5.55 L-7.25 6.6 20.35 38.9 19.1 39.95 -8.25 7.35 -8.9 6.55 -7.95 5.8 -6.6 4.6 -5.8 5.55 M22.95 41.95 L21.7 43.0 20.7 41.8 20.4 41.45 22.7 39.5 23.15 40.0 22.0 40.85 22.95 41.95 M26.85 46.5 L25.55 47.6 23.45 45.15 22.95 44.55 25.25 42.6 25.7 43.15 24.75 44.0 26.85 46.5" fill="#134475" fill-rule="evenodd" stroke="none"/>
      <path d="M-40.15 -33.05 L-36.7 -31.7 Q-33.0 -29.9 -31.6 -28.35 L-30.7 -27.35 -25.3 -21.65 Q-20.8 -17.0 -19.1 -15.5 -17.85 -14.25 -15.0 -13.0 L-12.4 -11.95 -13.4 -7.2 -12.5 -4.0 -12.55 -4.05 -12.8 -3.85 -21.1 -13.5 Q-27.7 -21.05 -29.1 -22.2 -32.25 -24.95 -32.95 -24.5 L-33.45 -25.05 -40.15 -33.05" fill="#a1a1a1" fill-rule="evenodd" stroke="none"/>
      <path d="M-40.15 -33.05 L-33.45 -25.05 -32.95 -24.5 -32.95 -24.45 -33.1 -24.2 Q-33.3 -23.3 -31.4 -20.25 -30.5 -18.7 -24.2 -10.9 L-16.1 -1.05 -16.4 -0.8 -16.35 -0.75 -19.3 -2.2 -24.15 -2.15 -24.8 -4.95 Q-25.55 -8.0 -26.45 -9.3 L-31.7 -16.65 -36.2 -22.75 -37.15 -23.95 Q-38.7 -25.9 -40.15 -33.05" fill="#e0e0e0" fill-rule="evenodd" stroke="none"/>
      <path d="M-16.1 -1.05 L-24.2 -10.9 Q-30.5 -18.7 -31.4 -20.25 -33.3 -23.3 -33.1 -24.2 L-32.95 -24.45 -32.95 -24.5 -19.6 -8.55 -14.45 -2.45 -15.05 -1.9 -16.1 -1.05" fill="#696969" fill-rule="evenodd" stroke="none"/>
      <path d="M-12.8 -3.85 L-12.55 -4.05 -12.5 -4.0 -10.6 -1.75 -11.35 -1.1 -13.1 0.4 -15.05 -1.9 -14.45 -2.45 -12.8 -3.85 M-10.9 2.95 L-9.2 1.5 -8.45 0.85 -5.85 3.95 -6.6 4.6 -8.25 6.05 -10.9 2.95 M20.05 39.15 L22.15 37.35 23.45 38.85 21.35 40.65 20.05 39.15 M22.65 42.2 L24.75 40.4 26.0 41.95 23.95 43.7 22.65 42.2 M26.55 46.75 L28.6 45.0 31.15 48.05 30.4 48.7 30.45 48.75 29.15 49.8 26.55 46.75 M28.1 50.65 L27.3 51.3 27.25 51.25 29.15 49.8 28.1 50.65" fill="#d7d8d9" fill-rule="evenodd" stroke="none"/>
      <path d="M-32.95 -24.5 Q-32.25 -24.95 -29.1 -22.2 -27.7 -21.05 -21.1 -13.5 L-12.8 -3.85 -14.45 -2.45 -19.6 -8.55 -32.95 -24.5" fill="#444044" fill-rule="evenodd" stroke="none"/>
      <path d="M-13.1 0.4 L-13.65 0.85 -14.45 1.5 -16.35 -0.75 -16.4 -0.8 -16.1 -1.05 -15.05 -1.9 -13.1 0.4 M-8.25 6.05 L-8.9 6.55 -9.7 7.2 -12.3 4.1 -11.5 3.45 -10.9 2.95 -8.25 6.05 M21.35 40.65 L19.6 42.1 18.3 40.6 20.05 39.15 21.35 40.65 M23.95 43.7 L22.15 45.2 20.9 43.65 22.65 42.2 23.95 43.7 M27.25 51.25 L24.75 48.25 26.55 46.75 29.15 49.8 27.25 51.25" fill="#b1b1b1" fill-rule="evenodd" stroke="none"/>
      <path d="M30.45 48.75 L30.85 49.25 29.55 50.3 34.1 55.55 30.4 53.4 28.5 51.15 28.1 50.65 29.15 49.8 30.45 48.75" fill="#7b7b7b" fill-rule="evenodd" stroke="none"/>
      <path d="M30.85 49.25 L32.7 51.45 34.85 56.0 34.1 55.55 29.55 50.3 30.85 49.25" fill="#bfc1c4" fill-rule="evenodd" stroke="none"/>
      <path d="M-18.1 14.15 Q-18.25 12.0 -19.2 9.0 -19.75 7.35 -17.6 4.35 -15.6 1.55 -14.35 1.1 L-12.1 0.95 Q-10.95 1.55 -10.0 2.7 L-10.0 4.05 -10.2 5.85 Q-10.65 4.45 -13.55 3.4 -12.1 4.85 -11.85 7.55 -11.65 8.85 -11.8 9.95 L-12.5 9.1 -12.75 10.1 -13.2 10.85 -13.45 9.85 Q-13.45 8.9 -13.6 8.55 -14.1 9.05 -14.5 11.7 L-14.95 13.6 Q-14.7 12.95 -15.45 11.7 L-16.2 10.5 Q-16.3 12.3 -17.35 13.45 L-18.1 14.15" fill="#3743a3" fill-rule="evenodd" stroke="none"/>
      <path d="M-10.0 2.7 Q-9.0 3.95 -8.45 5.75 L-6.8 9.35 Q-6.2 10.35 -5.4 10.95 L-6.55 10.75 -8.05 9.95 -10.2 8.25 Q-8.8 10.95 -10.95 15.6 L-11.3 13.6 Q-11.55 12.75 -12.5 11.65 -12.35 13.45 -13.05 15.85 -13.7 17.85 -13.2 19.2 -14.75 18.4 -15.4 17.05 -16.4 15.4 -15.85 13.35 L-16.7 15.2 Q-17.1 16.1 -18.35 17.1 -18.0 16.0 -18.05 14.3 L-18.1 14.15 -17.35 13.45 Q-16.3 12.3 -16.2 10.5 L-15.45 11.7 Q-14.7 12.95 -14.95 13.6 L-14.5 11.7 Q-14.1 9.05 -13.6 8.55 -13.45 8.9 -13.45 9.85 L-13.2 10.85 -12.75 10.1 -12.5 9.1 -11.8 9.95 Q-11.65 8.85 -11.85 7.55 -12.1 4.85 -13.55 3.4 -10.65 4.45 -10.2 5.85 L-10.0 4.05 -10.0 2.7" fill="#1a2064" fill-rule="evenodd" stroke="none"/>
    </g>
    <linearGradient gradientTransform="matrix(0.005, 0.0, 0.0, 0.0056, 24.55, 10.3)" gradientUnits="userSpaceOnUse" id="gradient0" spreadMethod="pad" x1="-819.2" x2="819.2">
      <stop offset="0.0" stop-color="#ffffff"/>
      <stop offset="1.0" stop-color="#696969"/>
    </linearGradient>
    <linearGradient gradientTransform="matrix(0.0172, 0.0, 0.0, 0.0133, 0.95, 24.2)" gradientUnits="userSpaceOnUse" id="gradient1" spreadMethod="pad" x1="-819.2" x2="819.2">
      <stop offset="0.2823529411764706" stop-color="#696969"/>
      <stop offset="0.8627450980392157" stop-color="#ffffff"/>
    </linearGradient>
    <linearGradient gradientTransform="matrix(0.0131, 0.0, 0.0, 0.004, 13.2, 4.5)" gradientUnits="userSpaceOnUse" id="gradient2" spreadMethod="pad" x1="-819.2" x2="819.2">
      <stop offset="0.2823529411764706" stop-color="#696969"/>
      <stop offset="0.807843137254902" stop-color="#cfcfcf"/>
    </linearGradient>
  </defs>
</svg>
