<svg xmlns="http://www.w3.org/2000/svg" xmlns:ffdec="https://www.free-decompiler.com/flash" xmlns:xlink="http://www.w3.org/1999/xlink" ffdec:objectType="frame" width="48.95" height="59.25"><use ffdec:characterId="1" xlink:href="#a" width="48.95" height="59.25"/><defs><linearGradient id="b" x1="-819.2" x2="819.2" gradientTransform="matrix(.0019 0 0 .0051 3.15 16)" gradientUnits="userSpaceOnUse" spreadMethod="pad"><stop offset="0" stop-color="#700404"/><stop offset=".38" stop-color="#aa1e1f"/></linearGradient><linearGradient id="c" x1="-819.2" x2="819.2" gradientTransform="matrix(.0019 0 0 .0051 .25 12.45)" gradientUnits="userSpaceOnUse" spreadMethod="pad"><stop offset="0" stop-color="#700404"/><stop offset=".38" stop-color="#aa1e1f"/></linearGradient><linearGradient id="d" x1="-819.2" x2="819.2" gradientTransform="matrix(.0019 0 0 .005 6.05 19.6)" gradientUnits="userSpaceOnUse" spreadMethod="pad"><stop offset="0" stop-color="#700404"/><stop offset=".38" stop-color="#aa1e1f"/></linearGradient><linearGradient id="e" x1="-819.2" x2="819.2" gradientTransform="matrix(.0023 0 0 .0054 9.2 23.55)" gradientUnits="userSpaceOnUse" spreadMethod="pad"><stop offset="0" stop-color="#700404"/><stop offset=".38" stop-color="#aa1e1f"/></linearGradient><linearGradient id="f" x1="-819.2" x2="819.2" gradientTransform="matrix(.0022 0 0 .0049 12.65 27.35)" gradientUnits="userSpaceOnUse" spreadMethod="pad"><stop offset="0" stop-color="#700404"/><stop offset=".38" stop-color="#aa1e1f"/></linearGradient><linearGradient id="g" x1="-819.2" x2="819.2" gradientTransform="matrix(.0119 0 0 .0154 23.95 40.7)" gradientUnits="userSpaceOnUse" spreadMethod="pad"><stop offset="0" stop-color="#700404"/><stop offset=".38" stop-color="#aa1e1f"/></linearGradient><linearGradient id="h" x1="-819.2" x2="819.2" gradientTransform="matrix(.0019 0 0 .0049 -2.65 9)" gradientUnits="userSpaceOnUse" spreadMethod="pad"><stop offset="0" stop-color="#700404"/><stop offset=".38" stop-color="#aa1e1f"/></linearGradient><linearGradient id="i" x1="-819.2" x2="819.2" gradientTransform="matrix(.0015 0 0 .0026 -5.45 6.5)" gradientUnits="userSpaceOnUse" spreadMethod="pad"><stop offset="0" stop-color="#700404"/><stop offset=".38" stop-color="#aa1e1f"/></linearGradient><g id="a" fill-rule="evenodd"><path fill="url(#b)" d="M1.8 11.85 2 12q1.05.95 1.1 2l.75.95q.45.2.9.55l-.25 4.7-1-1.15q-.35-.6-.35-1.3l-.65-.8q-.5-.05-.9-.3z" transform="translate(15.25 5.9)"/><path fill="url(#c)" d="m-1.1 8.3.1.05q1.05.9 1.1 1.95l.8 1 .9.55-.2 4.8-.95-1.05q-.3-.6-.3-1.3l-.8-1-.85-.3z" transform="translate(15.25 5.9)"/><path fill="url(#d)" d="m4.75 15.5.2.15q1.05.95 1.1 2l.85 1.05.7.45-.25 4.55q-.6-.35-1-1.1-.35-.55-.3-1.3l-.7-.85-.85-.25z" transform="translate(15.25 5.9)"/><path fill="url(#e)" d="m7.6 19.15.4.3q1.05.9 1.1 1.95l1.2 1.5.75.45-.2 4.65-1-1.05q-.35-.6-.35-1.35L8.2 24l-.85-.3z" transform="translate(15.25 5.9)"/><path fill="url(#f)" d="m11.05 23.35.3.25q1.1.9 1.1 1.95l2 2.5-.2 3.35-2.55-3.1q-.5-.05-.85-.3z" transform="translate(15.25 5.9)"/><path fill="url(#g)" d="M14.45 28.05 33.7 52.3l-1.3 1.05L14.25 31.4z" transform="translate(15.25 5.9)"/><path fill="url(#h)" d="M-1.3 13q-.6-.35-1-1.05-.35-.6-.3-1.3L-3.9 9l-.1-.1-.2-.25V5l.75.95L-2.1 7.6l1 .7z" transform="translate(15.25 5.9)"/><path fill="url(#i)" d="M-4.2 8.65-5.25 7.4-6.7 5.55l1.6-.45.4-.75.5.65v3.65" transform="translate(15.25 5.9)"/><path fill="#fff" d="m0 5.5 2.3-4.15L4.05 3.5 6.2 6.15 3.5 8.3l-.75-2.55zm12.4 1.3-1.35 2.5-.5.95-.4.75L8.4 8.85 9.65 6.5zm-6.85 5.6L1.4 10.1l-.05-.05L3.5 8.3l.05.05L5.8 9.6l.4-3.45.3-3.45L8.85 4 6.2 6.15l2.2 2.7-2.6.75z"/><path fill="#c4fbff" d="M4.05 3.5 2.3 1.35 6.85 0 6.5 2.7zm4.8.5.05.05.75 2.45-3.45-.35z"/><path fill="#93d9d7" d="m0 5.5 2.75.25.75 2.55 2.7-2.15L4.05 3.5l2.45-.8.35-2.7L11 2.25 8.85 4 6.5 2.7l-.3 3.45-.4 3.45-2.25-1.25-.05-.05-2.15 1.75z"/><path fill="#61a1b1" d="m11 2.25.05.05 1.35 4.5-2.75-.3-.75-2.45L8.85 4zM10.15 11l-1.6.45-3 .95.25-2.8 2.6-.75-2.2-2.7 3.45.35L8.4 8.85z"/></g></defs></svg>