<svg xmlns="http://www.w3.org/2000/svg" xmlns:ffdec="https://www.free-decompiler.com/flash" xmlns:xlink="http://www.w3.org/1999/xlink" ffdec:objectType="frame" width="57.55" height="49.2"><use ffdec:characterId="1" xlink:href="#a" width="57.55" height="49.2"/><defs><g id="a"><path fill="#005b9d" fill-rule="evenodd" d="m48.95.9 8.6-.3Q55.05 8 51.4 12.7q1.15 4.9.15 7.4l-6.1-1.5q-1.35-.65-2.25-.85l-1.7-.6-3.05-1.55.05-.8q1.15 0 3.3-1.2 2.85-1.55 3.5-3.8.65-2.2-1.6-3.3l-2.4-.7-.65-.95-.5-.3q-.2-.15-.1-.75h-.95q-.4-1.5-1.45-2.5l4-.35q3.2-.2 7.3-.05m-28.55.35q-1.15.95-1.4 2.2l-.2.8q-2.25.9-3.45 2.8l-.05.25q-3.8 2.75-1.7 7l.2.25 5.55.25q.05.7.3.95l-2.8 1.4-2.95 1.4q-.2-.25-1.05.45-.85.65-6.3 2.5-.6-4.1.45-8.8-4.1-3.6-4.85-9.9l7.4-1.35 9.4-.3zM6.05 42.7l3.2.35q-.75 5.2-1.4 6.15L0 45.95l7.25-1.05zm41.75.35 3.15-.35-1.15 2.2 7.25 1.05-7.85 3.25q-.65-.95-1.4-6.15"/><path fill="#143069" fill-rule="evenodd" d="M40.05 3.8q-.1.6.1.75l.5.3.65.95 2.4.7q2.25 1.1 1.6 3.3-.65 2.25-3.5 3.8-2.15 1.2-3.3 1.2l-.05.8 3.05 1.55 1.7.6q-.15 2.75 1.85 11.85l2.75 13.45q.75 5.2 1.4 6.15-11.75.15-13.05-.95-1.15-2.6-3.3-16.8L31 17.75h-4.95l-1.85 13.7q-2.15 14.2-3.35 16.8-1.25 1.1-13 .95.65-.95 1.4-6.15.35-2.75 2.7-13.45 2-9.1 1.95-11.05l2.95-1.4 2.8-1.4q-.25-.25-.3-.95l-5.55-.25-.2-.25q-2.1-4.25 1.7-7l.05-.25q1.2-1.9 3.45-2.8l.2-.8q.25-1.25 1.4-2.2Q21.8 0 24.55 0h8.9q3 0 4.2 1.3 1.05 1 1.45 2.5z"/><path fill-opacity=".4" fill-rule="evenodd" d="m50.1 5.2-1.05.25-3.35.25h-1.5l-3.55-.85-.85-.3.85.3 3.55.85q-3.75-.15-4.4-1.1v-.05q-.65-1-1.25-.35l1.05-1.25 5.4.3q5.55.45 6.1 1.25zm-10.85 8.5-.5-3 .4-3.75L43.85 9q4.9 1.7 6.75-.15.65.6-.65 3l-1.95 3q-.6 1.05 2.1 3.75l-6.7-1.45h-.05l-3.5-1q-.25-.2-.2 0zm-1.4-7.95q.3.15.3 1.35 0 1.75-1.15 3.15l1.55 2.65q-.45-.25-.25.25v.25l.25.7-.1.4q-.2 1.25-8.1 2.2-8.3.95-10.7-.95.9-2.05 1.55-2.8.6-.75.6-1.2L20.65 7.9q-.85-2.8.35-3.45L34.9 5zm-12.05 12q.15 1.05-1.55 12.2l-1.75 10.9q-1.95-1.25-3.95-4-4.05-5.5-4.65-13.1v-.15q.5-2.15 2.9-4.95l2.35-2.55 3.25 1zm23 31.45-13-.95-.8-3.55q.8 1.55 13.15 2.45zM34.85 17.1l3.25-1 2.35 2.55q2.4 2.8 2.9 4.95v.15q.6 9.7-3.9 14-2.3 2.1-4.7 2.35L33 29.6q-1.7-10.8-1.55-11.85zM19.5 13.7q-.05 1.3-.55 1.85-.75.7-4.5 2.3t-5.15 1.3q-1.45-.35-.15-3.2.3-1.75.15-2.7-.75-.55-1.45-3-.7-2.1-1.8-3.7T6.1 5.4q1.15.4 3.55 1.85l4.85-.45 4.15-.9.85 6.6zm1.35 34.55-13 .95.65-2.05q12.35-.9 13.15-2.45-.45 1.3-.8 3.55m-6.2-43.7-.7.05q-3.15.25-5.3-.9 1.35-.9 5.55-.9l4 .15q-1 1.2-3.55 1.6l-.75-.1q-.95-.15-1.2-.6.25.45 1.2.6z"/><path fill="none" stroke="#000" stroke-linecap="round" stroke-linejoin="round" stroke-opacity=".498" d="m50.1 5.2-1.05.25-1.65.3-3.2-.05-3.55-.85-.85-.3-.6-.2m-24.55.2-.75-.1q-.95-.15-1.2-.6m6.3-.4q-2.7 1.1-4.35 1.1"/></g></defs></svg>