<svg xmlns="http://www.w3.org/2000/svg" xmlns:ffdec="https://www.free-decompiler.com/flash" xmlns:xlink="http://www.w3.org/1999/xlink" ffdec:objectType="frame" width="15.85" height="20.05"><use ffdec:characterId="3" xlink:href="#a" width="15.85" height="20.05"/><defs><g id="a" fill-rule="evenodd"><path fill="#fc0" d="M.2.3.35.1V.05L.75 0l.6.1q2.6 6.7 5 9.65.85.1.8.65.9.25 1.2.65.25.45 0 .9l-.15.15v.05q.75 1.15 1.9 1.95l2.85 2.4 2.6 2q.65.75-.05 1.45l-.4.1Q8.25 15.3 3.5 7.1 1.25 3.3.2.3"/><path fill="#960" d="m7.65 13.9-.15.25-.1-.5z"/><path fill="#dbb51c" d="m15.1 20.05-.15-.05-5.1-4.1-1.35-1.2-.85-.8-.25-.25.1.5q-.4.55-.1 1.25h-.3l-.9-.9q-.65-.65.5-1.55l-.4-.3h.1-.1l-.15-.05-.85-1.3-.2.1-1.85.6h-.1l-1.8-.35v-.25l.25-.9 1.05.35 2.45.2-.05-.1-.4-.6-2-3.4-2.6-5.5Q-.1.65.2.3q1.05 3 3.3 6.8 4.75 8.2 11.6 12.95"/><path fill="#836c10" d="m7.1 15.4-.85-.05q-1.15-.9-.1-2.65v-.05h.15l.4.3q-1.15.9-.5 1.55zm-.95-2.8-.05-.05h-.05L5.5 12l-4-.15-.15-.2 1.8.35h.1l1.85-.6.2-.1z"/><path fill-opacity=".4" d="m5.85 12.2-.6-1 .4-1.2zm9.2 6.05.6.55-1.8.35-.7-.55zm-3.2-.55-.85-.75 2.1-.25.8.65zm-2.9-4.55.75.65-1.8.35-.75-.7zm-1.7-2.55.1 1-.75.75zm.1 2.35-1.2-.3 2.15-.35zm3.5 1.75.75.7-1.95.35-.6-.65zM2.9 7.3l-.45-1 1.7.15.55.95zm1.6 2.65-.65-1 1.8-.1.55.9zM1.1 3.6l1.9.45.55 1-1.9-.4zM2 1.7l.4.95-1.85-.3-.4-1z"/></g></defs></svg>