<?xml version="1.0" encoding="UTF-8" standalone="no"?>
<svg xmlns:ffdec="https://www.free-decompiler.com/flash" xmlns:xlink="http://www.w3.org/1999/xlink" ffdec:objectType="frame" height="47.25px" width="25.1px" xmlns="http://www.w3.org/2000/svg">
  <g transform="matrix(1.0, 0.0, 0.0, 1.0, -3.1, -0.75)">
    <use ffdec:characterId="3" height="47.25" transform="matrix(1.0, 0.0, 0.0, 1.0, 3.1, 0.75)" width="25.1" xlink:href="#shape0"/>
  </g>
  <defs>
    <g id="shape0" transform="matrix(1.0, 0.0, 0.0, 1.0, -3.1, -0.75)">
      <path d="M16.0 2.5 L16.85 2.85 16.3 4.4 Q16.9 6.3 16.25 6.8 L15.95 7.05 16.1 7.25 16.6 7.8 17.2 8.6 17.3 8.7 17.6 9.15 17.7 9.25 17.75 9.35 18.4 10.2 Q21.55 14.6 23.25 19.75 23.85 20.95 25.65 26.25 27.45 31.5 27.95 35.4 28.45 39.3 27.9 41.85 27.35 44.4 24.65 48.0 L24.6 45.45 24.6 45.25 Q24.4 41.15 23.55 35.7 L22.6 30.3 22.45 29.65 22.4 29.6 22.25 29.55 21.65 29.3 21.4 29.15 20.85 28.75 20.6 27.65 20.05 25.55 19.3 25.35 19.5 25.35 18.95 25.3 18.85 25.3 17.7 25.35 Q17.55 25.35 17.5 25.45 L17.5 25.25 17.65 23.45 Q17.7 21.7 17.35 19.6 L16.85 16.5 16.55 15.4 Q16.15 13.5 15.35 11.5 L14.0 8.0 13.65 8.15 12.95 8.45 9.05 8.75 Q6.45 8.65 4.65 7.1 3.85 6.45 3.2 5.5 L3.2 5.45 3.1 4.7 Q3.1 3.75 3.4 2.8 L3.75 2.85 3.95 2.8 4.2 2.25 4.3 2.25 5.65 1.9 5.9 1.8 6.6 1.4 7.15 0.95 7.15 1.45 6.95 2.25 6.9 2.9 7.1 3.4 7.2 3.65 7.45 4.0 7.6 4.15 8.1 4.5 8.3 4.6 10.3 4.75 Q12.5 4.6 12.85 3.55 L12.85 2.65 12.65 1.9 12.5 1.2 12.5 1.15 12.55 0.75 13.35 1.4 14.0 1.9 Q14.95 2.45 16.0 2.5" fill="#9966cc" fill-rule="evenodd" stroke="none"/>
      <path d="M22.15 18.65 L22.8 20.1 24.05 22.85 Q24.95 24.85 25.5 28.1 L25.75 29.8 Q26.0 31.1 25.7 31.05 26.0 31.35 25.3 31.25 L24.6 30.9 22.4 29.6 22.25 29.55 21.65 29.3 21.4 29.15 23.2 28.6 24.1 28.75 Q24.85 29.0 25.6 30.7 L24.8 26.9 24.1 24.35 22.5 19.55 20.6 16.2 21.05 17.25 Q22.3 20.3 22.7 24.1 L23.1 25.8 Q23.45 27.15 23.05 27.15 L22.5 27.3 21.7 27.15 20.9 26.7 20.25 25.85 20.05 25.6 20.05 25.55 19.3 25.35 19.5 25.35 19.5 25.3 21.0 25.3 22.3 25.65 23.05 26.35 21.0 20.45 19.45 16.15 18.2 13.1 16.85 10.4 Q16.0 8.85 15.65 9.1 15.3 9.3 16.15 12.75 L16.55 15.4 Q16.15 13.5 15.35 11.5 13.85 7.85 13.85 7.45 13.8 7.0 14.15 7.0 L13.85 6.65 13.85 6.55 Q11.85 7.8 10.1 8.05 8.2 8.25 10.4 8.55 12.3 8.8 13.65 8.15 L12.95 8.45 9.05 8.75 Q6.45 8.65 4.65 7.1 4.1 6.45 3.8 5.65 L3.65 5.3 Q5.35 6.75 7.95 7.55 L8.55 7.75 11.3 7.25 13.65 6.1 13.65 6.05 Q13.65 5.25 14.15 5.45 L14.45 5.65 14.8 5.45 Q16.5 4.3 16.85 2.85 L16.3 4.4 Q16.35 4.8 14.8 5.9 L16.1 7.25 16.6 7.8 17.2 8.6 16.25 7.75 Q16.0 7.75 16.1 7.95 L16.6 8.65 16.9 9.1 17.6 10.15 19.1 12.6 21.5 16.95 22.15 18.65 M14.0 3.0 L13.8 4.1 13.5 4.65 Q12.45 5.4 11.0 5.25 L10.85 5.2 11.3 5.1 11.85 4.85 12.1 4.7 10.8 5.0 9.05 5.05 Q8.45 4.9 8.7 5.05 L10.2 5.85 12.35 5.6 12.5 5.5 11.9 6.1 8.5 6.0 7.2 5.05 6.8 4.7 Q5.5 3.5 5.65 1.9 L5.9 1.8 6.6 1.4 7.15 0.95 7.15 1.45 6.95 2.25 6.9 2.9 7.1 3.4 7.2 3.65 7.45 4.0 7.6 4.15 8.1 4.5 8.3 4.6 10.3 4.75 Q12.5 4.6 12.85 3.55 L12.85 2.65 12.65 1.9 12.5 1.2 12.5 1.15 12.55 0.75 13.35 1.4 Q14.05 2.1 14.0 3.0 M6.3 6.1 Q4.0 5.0 3.95 2.8 L4.2 2.25 4.3 2.25 Q4.15 3.8 5.55 5.35 L6.3 6.1 M17.5 25.45 L17.5 25.25 18.85 25.3 17.7 25.35 Q17.55 25.35 17.5 25.45 M25.2 31.55 L25.2 41.3 Q25.1 43.55 24.6 45.45 L24.6 45.25 Q24.4 41.15 23.55 35.7 L22.6 30.3 Q23.8 30.5 25.2 31.45 L25.2 31.55" fill="#000000" fill-opacity="0.29803923" fill-rule="evenodd" stroke="none"/>
    </g>
  </defs>
</svg>
