<svg xmlns="http://www.w3.org/2000/svg" xmlns:ffdec="https://www.free-decompiler.com/flash" xmlns:xlink="http://www.w3.org/1999/xlink" ffdec:objectType="frame" width="125.45" height="87.3"><g transform="translate(51.5 35.6)"><filter id="a"><feColorMatrix in="SourceGraphic" result="filterResult0" values="0 0 0 0 1.0,0 0 0 0 0.4,0 0 0 0 0.0,0 0 0 1 0"/><feConvolveMatrix divisor="16" in="filterResult0" kernelMatrix="1 1 1 1 1 1 1 1 1 1 1 1 1 1 1 1" order="4 4" result="filterResult1"/><feComposite in="SourceGraphic" in2="filterResult1" result="filterResult2"/></filter><use ffdec:characterId="2" xlink:href="#b" width="123.65" height="87.1" filter="url(#a)" transform="translate(-51.5 -35.6)"/><filter id="c"><feColorMatrix in="SourceGraphic" result="filterResult3" values="0 0 0 0 1.0,0 0 0 0 1.0,0 0 0 0 0.4,0 0 0 1 0"/><feConvolveMatrix divisor="64" in="filterResult3" kernelMatrix="1 1 1 1 1 1 1 1 1 1 1 1 1 1 1 1 1 1 1 1 1 1 1 1 1 1 1 1 1 1 1 1 1 1 1 1 1 1 1 1 1 1 1 1 1 1 1 1 1 1 1 1 1 1 1 1 1 1 1 1 1 1 1 1" order="8 8" result="filterResult4"/><feConvolveMatrix divisor="64" in="filterResult4" kernelMatrix="1 1 1 1 1 1 1 1 1 1 1 1 1 1 1 1 1 1 1 1 1 1 1 1 1 1 1 1 1 1 1 1 1 1 1 1 1 1 1 1 1 1 1 1 1 1 1 1 1 1 1 1 1 1 1 1 1 1 1 1 1 1 1 1" order="8 8" result="filterResult5"/><feComposite in="SourceGraphic" in2="filterResult5" result="filterResult6"/></filter><use ffdec:characterId="4" xlink:href="#d" width="123.65" height="87.1" filter="url(#c)" transform="translate(-51.5 -35.6)"/><use ffdec:characterId="5" xlink:href="#e" width="115.8" height="68.55" transform="translate(-41.85 -16.85)"/></g><defs><radialGradient id="h" cx="0" cy="0" r="819.2" gradientTransform="translate(100.75 5.9)scale(.0083)" gradientUnits="userSpaceOnUse" spreadMethod="pad"><stop offset="0" stop-color="#ff9b00" stop-opacity=".741"/><stop offset=".388" stop-color="#fffd5f" stop-opacity=".341"/><stop offset=".588" stop-color="#fff75c" stop-opacity=".471"/><stop offset="1" stop-color="#ffa800" stop-opacity=".522"/></radialGradient><radialGradient id="i" cx="0" cy="0" r="819.2" gradientTransform="matrix(.01 0 0 .01 89.7 26.4)" gradientUnits="userSpaceOnUse" spreadMethod="pad"><stop offset="0" stop-color="#ff9b00" stop-opacity=".741"/><stop offset=".388" stop-color="#fffd5f" stop-opacity=".341"/><stop offset=".588" stop-color="#fff75c" stop-opacity=".471"/><stop offset="1" stop-color="#ffa800" stop-opacity=".522"/></radialGradient><radialGradient id="j" cx="0" cy="0" r="819.2" gradientTransform="translate(101.05 13.65)scale(.0009)" gradientUnits="userSpaceOnUse" spreadMethod="pad"><stop offset="0" stop-color="#ff9b00" stop-opacity=".741"/><stop offset=".388" stop-color="#fffd5f" stop-opacity=".341"/><stop offset=".588" stop-color="#fff75c" stop-opacity=".471"/><stop offset="1" stop-color="#ffa800" stop-opacity=".522"/></radialGradient><radialGradient id="k" cx="0" cy="0" r="819.2" gradientTransform="translate(109.65 57.6)scale(.0167)" gradientUnits="userSpaceOnUse" spreadMethod="pad"><stop offset="0" stop-color="#ff9b00" stop-opacity=".741"/><stop offset=".388" stop-color="#fffd5f" stop-opacity=".341"/><stop offset=".588" stop-color="#fff75c" stop-opacity=".471"/><stop offset="1" stop-color="#ffa800" stop-opacity=".522"/></radialGradient><radialGradient id="l" cx="0" cy="0" r="819.2" gradientTransform="translate(88.05 71.75)scale(.0115)" gradientUnits="userSpaceOnUse" spreadMethod="pad"><stop offset="0" stop-color="#ff9b00" stop-opacity=".741"/><stop offset=".388" stop-color="#fffd5f" stop-opacity=".341"/><stop offset=".588" stop-color="#fff75c" stop-opacity=".471"/><stop offset="1" stop-color="#ffa800" stop-opacity=".522"/></radialGradient><radialGradient id="m" cx="0" cy="0" r="819.2" gradientTransform="translate(38.9 49.45)scale(.0085)" gradientUnits="userSpaceOnUse" spreadMethod="pad"><stop offset="0" stop-color="#ff9b00" stop-opacity=".741"/><stop offset=".388" stop-color="#fffd5f" stop-opacity=".341"/><stop offset=".588" stop-color="#fff75c" stop-opacity=".471"/><stop offset="1" stop-color="#ffa800" stop-opacity=".522"/></radialGradient><radialGradient id="n" cx="0" cy="0" r="819.2" gradientTransform="translate(22.1 14.85)scale(.0181)" gradientUnits="userSpaceOnUse" spreadMethod="pad"><stop offset="0" stop-color="#ff9b00" stop-opacity=".741"/><stop offset=".388" stop-color="#fffd5f" stop-opacity=".341"/><stop offset=".588" stop-color="#fff75c" stop-opacity=".471"/><stop offset="1" stop-color="#ffa800" stop-opacity=".522"/></radialGradient><radialGradient id="o" cx="0" cy="0" r="819.2" gradientTransform="translate(22.7 26.85)scale(.0001)" gradientUnits="userSpaceOnUse" spreadMethod="pad"><stop offset="0" stop-color="#ff9b00" stop-opacity=".741"/><stop offset=".388" stop-color="#fffd5f" stop-opacity=".341"/><stop offset=".588" stop-color="#fff75c" stop-opacity=".471"/><stop offset="1" stop-color="#ffa800" stop-opacity=".522"/></radialGradient><radialGradient id="p" cx="0" cy="0" r="819.2" gradientTransform="translate(22.3 62.85)scale(.0124)" gradientUnits="userSpaceOnUse" spreadMethod="pad"><stop offset="0" stop-color="#ff9b00" stop-opacity=".741"/><stop offset=".388" stop-color="#fffd5f" stop-opacity=".341"/><stop offset=".588" stop-color="#fff75c" stop-opacity=".471"/><stop offset="1" stop-color="#ffa800" stop-opacity=".522"/></radialGradient><radialGradient id="q" cx="0" cy="0" r="819.2" gradientTransform="translate(39.2 81.5)scale(.0062)" gradientUnits="userSpaceOnUse" spreadMethod="pad"><stop offset="0" stop-color="#ff9b00" stop-opacity=".741"/><stop offset=".388" stop-color="#fffd5f" stop-opacity=".341"/><stop offset=".588" stop-color="#fff75c" stop-opacity=".471"/><stop offset="1" stop-color="#ffa800" stop-opacity=".522"/></radialGradient><radialGradient id="r" cx="0" cy="0" r="819.2" gradientTransform="translate(110.85 22.7)scale(.0188)" gradientUnits="userSpaceOnUse" spreadMethod="pad"><stop offset=".188" stop-color="#fff" stop-opacity=".745"/><stop offset=".388" stop-color="#ffcb8c" stop-opacity=".345"/><stop offset=".588" stop-color="#fffc00" stop-opacity=".467"/><stop offset=".973" stop-color="#fff" stop-opacity=".525"/></radialGradient><radialGradient id="s" cx="0" cy="0" r="819.2" gradientTransform="translate(95.05 40.65)scale(.0121)" gradientUnits="userSpaceOnUse" spreadMethod="pad"><stop offset=".188" stop-color="#fff" stop-opacity=".745"/><stop offset=".388" stop-color="#ffcb8c" stop-opacity=".345"/><stop offset=".588" stop-color="#fffc00" stop-opacity=".467"/><stop offset=".973" stop-color="#fff" stop-opacity=".525"/></radialGradient><radialGradient id="t" cx="0" cy="0" r="819.2" gradientTransform="translate(102.5 80.55)scale(.0094)" gradientUnits="userSpaceOnUse" spreadMethod="pad"><stop offset=".188" stop-color="#fff" stop-opacity=".745"/><stop offset=".388" stop-color="#ffcb8c" stop-opacity=".345"/><stop offset=".588" stop-color="#fffc00" stop-opacity=".467"/><stop offset=".973" stop-color="#fff" stop-opacity=".525"/></radialGradient><radialGradient id="u" cx="0" cy="0" r="819.2" gradientTransform="translate(27 34.4)scale(.0118)" gradientUnits="userSpaceOnUse" spreadMethod="pad"><stop offset=".188" stop-color="#fff" stop-opacity=".745"/><stop offset=".388" stop-color="#ffcb8c" stop-opacity=".345"/><stop offset=".588" stop-color="#fffc00" stop-opacity=".467"/><stop offset=".973" stop-color="#fff" stop-opacity=".525"/></radialGradient><radialGradient id="v" cx="0" cy="0" r="819.2" gradientTransform="translate(6.65 54.9)scale(.0094)" gradientUnits="userSpaceOnUse" spreadMethod="pad"><stop offset=".188" stop-color="#fff" stop-opacity=".745"/><stop offset=".388" stop-color="#ffcb8c" stop-opacity=".345"/><stop offset=".588" stop-color="#fffc00" stop-opacity=".467"/><stop offset=".973" stop-color="#fff" stop-opacity=".525"/></radialGradient><radialGradient id="w" cx="0" cy="0" r="819.2" gradientTransform="translate(37.65 70.85)scale(.0074)" gradientUnits="userSpaceOnUse" spreadMethod="pad"><stop offset=".188" stop-color="#fff" stop-opacity=".745"/><stop offset=".388" stop-color="#ffcb8c" stop-opacity=".345"/><stop offset=".588" stop-color="#fffc00" stop-opacity=".467"/><stop offset=".973" stop-color="#fff" stop-opacity=".525"/></radialGradient><radialGradient id="x" cx="0" cy="0" r="819.2" gradientTransform="rotate(88.394 -22.216 -3.608)scale(.0107)" gradientUnits="userSpaceOnUse" spreadMethod="pad"><stop offset=".196" stop-color="#fffaf3" stop-opacity=".988"/><stop offset=".439" stop-color="#ffe6b6" stop-opacity=".576"/><stop offset=".502" stop-color="#ffc75b" stop-opacity=".467"/><stop offset=".616" stop-color="#ffe6b6" stop-opacity=".467"/><stop offset=".824" stop-color="#fff"/></radialGradient><radialGradient id="y" cx="0" cy="0" r="819.2" gradientTransform="rotate(60.593 -51.95 -7.184)scale(.0063)" gradientUnits="userSpaceOnUse" spreadMethod="pad"><stop offset=".196" stop-color="#fffaf3" stop-opacity=".988"/><stop offset=".439" stop-color="#ffe6b6" stop-opacity=".576"/><stop offset=".502" stop-color="#ffc75b" stop-opacity=".467"/><stop offset=".616" stop-color="#ffe6b6" stop-opacity=".467"/><stop offset=".824" stop-color="#fff"/></radialGradient><radialGradient id="z" cx="0" cy="0" r="819.2" gradientTransform="rotate(148.61 -22.156 16.163)scale(.007)" gradientUnits="userSpaceOnUse" spreadMethod="pad"><stop offset=".196" stop-color="#fffaf3" stop-opacity=".988"/><stop offset=".439" stop-color="#ffe6b6" stop-opacity=".576"/><stop offset=".502" stop-color="#ffc75b" stop-opacity=".467"/><stop offset=".616" stop-color="#ffe6b6" stop-opacity=".467"/><stop offset=".824" stop-color="#fff"/></radialGradient><radialGradient id="A" cx="0" cy="0" r="819.2" gradientTransform="rotate(76.69 -11.172 -28.413)scale(.0096)" gradientUnits="userSpaceOnUse" spreadMethod="pad"><stop offset=".196" stop-color="#fffaf3" stop-opacity=".988"/><stop offset=".439" stop-color="#ffe6b6" stop-opacity=".576"/><stop offset=".502" stop-color="#ffc75b" stop-opacity=".467"/><stop offset=".616" stop-color="#ffe6b6" stop-opacity=".467"/><stop offset=".824" stop-color="#fff"/></radialGradient><radialGradient id="B" cx="0" cy="0" r="819.2" gradientTransform="rotate(-11.31 -73.14 177.342)scale(.0087)" gradientUnits="userSpaceOnUse" spreadMethod="pad"><stop offset=".196" stop-color="#fffaf3" stop-opacity=".988"/><stop offset=".439" stop-color="#ffe6b6" stop-opacity=".576"/><stop offset=".502" stop-color="#ffc75b" stop-opacity=".467"/><stop offset=".616" stop-color="#ffe6b6" stop-opacity=".467"/><stop offset=".824" stop-color="#fff"/></radialGradient><radialGradient id="C" cx="0" cy="0" r="819.2" gradientTransform="matrix(.0047 .0042 -.0042 .0047 -37.35 8)" gradientUnits="userSpaceOnUse" spreadMethod="pad"><stop offset=".196" stop-color="#fffaf3" stop-opacity=".988"/><stop offset=".439" stop-color="#ffe6b6" stop-opacity=".576"/><stop offset=".502" stop-color="#ffc75b" stop-opacity=".467"/><stop offset=".616" stop-color="#ffe6b6" stop-opacity=".467"/><stop offset=".824" stop-color="#fff"/></radialGradient><radialGradient id="D" cx="0" cy="0" r="819.2" gradientTransform="rotate(129.174 -20.564 -4.898)scale(.007)" gradientUnits="userSpaceOnUse" spreadMethod="pad"><stop offset=".196" stop-color="#fffaf3" stop-opacity=".988"/><stop offset=".439" stop-color="#ffe6b6" stop-opacity=".576"/><stop offset=".502" stop-color="#ffc75b" stop-opacity=".467"/><stop offset=".616" stop-color="#ffe6b6" stop-opacity=".467"/><stop offset=".824" stop-color="#fff"/></radialGradient><radialGradient id="E" cx="0" cy="0" r="819.2" gradientTransform="matrix(-.003 .0128 .0128 .003 66.25 -7.45)" gradientUnits="userSpaceOnUse" spreadMethod="pad"><stop offset=".196" stop-color="#fffaf3" stop-opacity=".988"/><stop offset=".439" stop-color="#ffe6b6" stop-opacity=".576"/><stop offset=".502" stop-color="#ffc75b" stop-opacity=".467"/><stop offset=".616" stop-color="#ffe6b6" stop-opacity=".467"/><stop offset=".824" stop-color="#fff"/></radialGradient><radialGradient id="F" cx="0" cy="0" r="819.2" gradientTransform="matrix(-.0097 0 0 .0097 48.4 23.25)" gradientUnits="userSpaceOnUse" spreadMethod="pad"><stop offset=".196" stop-color="#fffaf3" stop-opacity=".988"/><stop offset=".439" stop-color="#ffe6b6" stop-opacity=".576"/><stop offset=".502" stop-color="#ffc75b" stop-opacity=".467"/><stop offset=".616" stop-color="#ffe6b6" stop-opacity=".467"/><stop offset=".824" stop-color="#fff"/></radialGradient><radialGradient id="G" cx="0" cy="0" r="819.2" gradientTransform="matrix(-.0003 .0107 .0107 .0003 48.5 23.1)" gradientUnits="userSpaceOnUse" spreadMethod="pad"><stop offset=".196" stop-color="#fffaf3" stop-opacity=".988"/><stop offset=".439" stop-color="#ffe6b6" stop-opacity=".576"/><stop offset=".502" stop-color="#ffc75b" stop-opacity=".467"/><stop offset=".616" stop-color="#ffe6b6" stop-opacity=".467"/><stop offset=".824" stop-color="#fff"/></radialGradient><radialGradient id="H" cx="0" cy="0" r="819.2" gradientTransform="matrix(-.0004 .0143 .0143 .0004 46.8 23.3)" gradientUnits="userSpaceOnUse" spreadMethod="pad"><stop offset=".196" stop-color="#fffaf3" stop-opacity=".988"/><stop offset=".439" stop-color="#ffe6b6" stop-opacity=".576"/><stop offset=".502" stop-color="#ffc75b" stop-opacity=".467"/><stop offset=".616" stop-color="#ffe6b6" stop-opacity=".467"/><stop offset=".824" stop-color="#fff"/></radialGradient><radialGradient id="I" cx="0" cy="0" r="819.2" gradientTransform="matrix(-.0129 0 0 .0129 46.7 23.5)" gradientUnits="userSpaceOnUse" spreadMethod="pad"><stop offset=".196" stop-color="#fffaf3" stop-opacity=".988"/><stop offset=".439" stop-color="#ffe6b6" stop-opacity=".576"/><stop offset=".502" stop-color="#ffc75b" stop-opacity=".467"/><stop offset=".616" stop-color="#ffe6b6" stop-opacity=".467"/><stop offset=".824" stop-color="#fff"/></radialGradient><radialGradient id="J" cx="0" cy="0" r="819.2" gradientTransform="matrix(-.0062 .0012 .0012 .0062 44.3 47.5)" gradientUnits="userSpaceOnUse" spreadMethod="pad"><stop offset=".196" stop-color="#fffaf3" stop-opacity=".988"/><stop offset=".439" stop-color="#ffe6b6" stop-opacity=".576"/><stop offset=".502" stop-color="#ffc75b" stop-opacity=".467"/><stop offset=".616" stop-color="#ffe6b6" stop-opacity=".467"/><stop offset=".824" stop-color="#fff"/></radialGradient><radialGradient id="K" cx="0" cy="0" r="819.2" gradientTransform="matrix(.0011 .0068 .0068 -.0011 44.3 47.4)" gradientUnits="userSpaceOnUse" spreadMethod="pad"><stop offset=".196" stop-color="#fffaf3" stop-opacity=".988"/><stop offset=".439" stop-color="#ffe6b6" stop-opacity=".576"/><stop offset=".502" stop-color="#ffc75b" stop-opacity=".467"/><stop offset=".616" stop-color="#ffe6b6" stop-opacity=".467"/><stop offset=".824" stop-color="#fff"/></radialGradient><radialGradient id="L" cx="0" cy="0" r="819.2" gradientTransform="matrix(-.0081 .0072 .0072 .0081 60.85 9.3)" gradientUnits="userSpaceOnUse" spreadMethod="pad"><stop offset=".196" stop-color="#fffaf3" stop-opacity=".988"/><stop offset=".439" stop-color="#ffe6b6" stop-opacity=".576"/><stop offset=".502" stop-color="#ffc75b" stop-opacity=".467"/><stop offset=".616" stop-color="#ffe6b6" stop-opacity=".467"/><stop offset=".824" stop-color="#fff"/></radialGradient><radialGradient id="M" cx="0" cy="0" r="819.2" gradientTransform="matrix(.0077 .0092 .0092 -.0077 60.85 9.25)" gradientUnits="userSpaceOnUse" spreadMethod="pad"><stop offset=".196" stop-color="#fffaf3" stop-opacity=".988"/><stop offset=".439" stop-color="#ffe6b6" stop-opacity=".576"/><stop offset=".502" stop-color="#ffc75b" stop-opacity=".467"/><stop offset=".616" stop-color="#ffe6b6" stop-opacity=".467"/><stop offset=".824" stop-color="#fff"/></radialGradient><radialGradient id="N" cx="0" cy="0" r="819.2" gradientTransform="matrix(-.0117 -.0023 -.0024 .0114 66.2 -7.5)" gradientUnits="userSpaceOnUse" spreadMethod="pad"><stop offset=".196" stop-color="#fffaf3" stop-opacity=".988"/><stop offset=".439" stop-color="#ffe6b6" stop-opacity=".576"/><stop offset=".502" stop-color="#ffc75b" stop-opacity=".467"/><stop offset=".616" stop-color="#ffe6b6" stop-opacity=".467"/><stop offset=".824" stop-color="#fff"/></radialGradient><radialGradient id="O" cx="0" cy="0" r="819.2" gradientTransform="translate(-25.1 18.85)scale(.0097)" gradientUnits="userSpaceOnUse" spreadMethod="pad"><stop offset=".196" stop-color="#fffaf3" stop-opacity=".988"/><stop offset=".439" stop-color="#ffe6b6" stop-opacity=".576"/><stop offset=".502" stop-color="#ffc75b" stop-opacity=".467"/><stop offset=".616" stop-color="#ffe6b6" stop-opacity=".467"/><stop offset=".824" stop-color="#fff"/></radialGradient><use ffdec:characterId="1" xlink:href="#f" id="b" width="123.65" height="87.1"/><use ffdec:characterId="3" xlink:href="#g" id="d" width="123.65" height="87.1"/><g id="g" fill-rule="evenodd"><path fill="url(#h)" d="M104.4 4.55q-.6.85-.15 1.25l.9 1.05 1.05 1.25q.35.35.25.65l-.2.35q-.3.2-1.35 0l-1.35-.15-.85-.3-.9.15-1 1.35-1 1.4-.55.2-.25-.15.1-.25-.1-.05-.1-.2-.1-1V8.5q-.15-.85-1.05-1.15-.8-.15-1.65-.65l-.9-.55q-.3-.05-.05-.45l.15-.25 1.85-.5q1.45-.35 1.7-.65l.05-1.05Q98.6.2 99.05.1q.05-.15.3 0l.25.05.1.1 1.05 1.25.85 1.45q.05.25 2.25-.8 2.1-1.05 1.6.2z"/><path fill="url(#i)" d="m85.95 22.3-.3-2.35-.1-.3.4-.3.45.2 1.7 1.65q1.3 1.25 1.75 1.35.6-.3 1.15-.65 3-2.2 3.4-1.9l.15.35.1.3v.15L94 22.75l-.35.65-.65 1.15q-.2.2 2.3 1.85 2.4 1.55.8 1.8l-2.95.3q-1.3-.1-1.45.6-.3.7-.5 1.7l-.6 1.85-.55.65-.5.05q-.4-.2-.85-1.4L88 30.4l-.25-1.05q-.2-.75-.7-.85L85 28.3l-2.1-.2-.2-.05-.05-.25.3-.55.25-.2L84.6 26l1-.9q.45-.45.45-1.7z"/><path fill="url(#j)" d="m100.3 13.65 1.15-.05-1.15.1z"/><path fill="url(#k)" d="m112.6 46.85.3 2.4.4 3.5.1.85.05-.05.2.35q.1.3 4.6 1.05 4.5.7 2.2 2.6-2.35 1.9-4.25 2.8l-1.3.35.3 1.75.4 3.35q.25 1.95.1 3.1-.15 1.1-1.05.25-.65-.3-3.7-3.05l-1-.9-1.45-1.1-.95-.7q-.9.1-3.25 1-2.45 1.1-3.4 1.1-.95.1-1.2-.4l-.05-.5-.1-.35v-.05l.05-.2.45-1.15 2.3-4.65-1.5-2.1-1.9-2.8-.85-1.5q-.2-.55.6-1l.4-.1 5.05.95q2.4.55 3 .85l2.3-4.1q1.4-2.6 2.2-2.7l.65.45z"/><path fill="url(#l)" d="M90.75 68q-.2 1.4.25 1.7l1.4.65 2.15.8q1.15.4 1.3.75l-.05.6q-.2.3-1.6.7l-1.7.45-1.15.2q-.9.1-1.05.6l-.3 2.1-.4 2.15-.5.55h-.3l-.2-.25-.2-.15-.05-.05-.75-1.15-1.05-1.85-.75-1.1-2.35.1-2.6.1-.6-.25.25-.6 2-1.6 1.65-1.6-.8-1.35q-2.1-3.35-1.85-3.8.1-.25.4-.15h.55l2.5 1.65q1.55.95 1.9.9l2.1-2.4q1.8-2.35 1.9-.75z"/><path fill="url(#m)" d="m41.95 48.25 1.25.9 1.3.9.45.65-.15.45q-.2.25-1.35.3l-1.4.1-.9-.05q-.7-.05-.9.35l-.7 1.6-.7 1.6q-.3.4-.5.3h-.25l-.05-.3-.1-.05-.1-.1-.3-1-.4-1.6q-.3-.9-1.3-1l-1.8-.3-1.1-.3q-.25 0-.15-.45l.1-.25 1.8-.9 1.55-1.05L36 46.9q-.95-2.95-.65-3.25l.35-.05.25.05H36l.1.05 1.4 1.05 1.15 1.2q.15.25 2.1-1.3 1.9-1.5 1.75-.15l-.6 2.4q-.45 1.05.05 1.35"/><path fill="url(#n)" d="m26.2 11.75 2 .65 3.8.95q1.8.25 2.25 1.1.45.75-.65 1.1-.6.45-4.4 1.8l-1.3.5q-.95.35-1.6.8-.95.25-1.05.45-.25.9-.45 3.45v.85l-.35 2.85q-.35.9-.95.85l-.5-.15-.15-.05q-.95-.8-.95-1.25l-1.7-2.25-1.95-2.1-2.55.25-3.45.25-1.75.05q-.6-.1-.65-1.05l.1-.45 2.55-3 2.45-3.4-2.8-4.25Q10.3 7.2 10.6 6.4q.2-.35.55-.35l4.45 1.6 3.25 1.1q.9.15 3.6-3.75t2.85-1.4q.25 3.5.6 5.9z"/><path fill="url(#o)" d="m22.75 26.9-.15-.05.05-.05z"/><path fill="url(#p)" d="M27.85 55.15q.6.05.35.8l-.8 3-.25.85-.25 1.15-.15.75 1.65 1.6 1.75 1.65q.35.5.1.8l-.3.2-.2.15h-.05l-.1.05-.85.05H25.1l-.85 1.45-1.2 1.9-.7.9-.8-.05-.2-.2q-.25-.4-.95-3.2l-.4-1.95-3.3-.2q-2.05-.05-2.35-.5-.15-.3.05-.5l.15-.35.1-.05.05-.05 1.05-.95 2.5-1.55q.45-.35-.45-3.3t1.1-1.9q2.1 1 3.25 1.85l1.1.65 1.15-1.1 2-1.5q.85-.55 1.45-.45"/><path fill="url(#q)" d="M36.85 78.3q1.15.35 1.6.8.5.45.65.1.1-.4.45-.65l1.1-.85q.4-.35.7-.35.35 0 .25.4l-.2 1.6-.05.4-.1.65v.35l1 .7.95.7.1.4-.15.15-.1.05v.05H43l-.9.35-1.4.05-.4.8-.65 1.15-.3.45h-.2l-.15-.1-.75-2.05-.1-.5-1.4.35-1.65-.25-.05-.25.1-.25.05-.05.45-.55 1.2-.95q.2-.25-.4-1.65-.7-1.4.4-1.05"/><path fill="url(#r)" d="m122.8 23.3-.15.1-4.4 1.7-1.35.5q-1 .35-1.7.8-.9.15-1.05.65-.2.45-.5 3.25 0 2.95-.35 3.95t-.85.9l-.65-.25-.45-.3-.05-.1-.1-.1-.85-.95-3.5-4.4-2.65.25-3.6.25-1.85.05q-.6-.1-.65-1.05l.1-.45q.2-.7 3.1-4.1l.5-.6 1.6-1.7-2.9-4.25q-1.95-2.5-1.6-3.3l.2-.2q7.45 1.7 8.15 2.1.65.35 3.4-3.5 2.7-3.9 3.25-1.2l.9 5.5.35 2.6q-.1.2 3.9 1.05 3.95.85 4.45 1.7.45.75-.7 1.1"/><path fill="url(#s)" d="m95 33.4 1.5 3q.5 1.45 1.35 1.35l2.1-.25 2.05-.25 1.05.2.2.6q.05.45-1.05 1.55l-1.3 1.4-1 .75q-.75.6-.6 1.15l.75 2.2.65 2.3-.15.8q-.2.1-.25.15l-.3-.15-.25-.05h-.1l-1.2-.75-1.9-1.2-2.15.1-2.15 1.4q-1.2.45-1.4.6-.25.2-.6-.3l-.1-.3 1.05-2.65q.65-1.9.25-2.65l-1-.65q-3.55-2.2-3.6-2.75 0-.3.35-.35.15-.25.3-.2l.1-.05.1-.05 2.45-.15 2.2.15q.35.1.95-3.2.65-3.3 1.7-1.75"/><path fill="url(#t)" d="M98.25 77.2q-1.15-2.45.3-1.9 1.3.5 2.4 1.25 1 .65 1.5.2l1.25-1.15 1.2-1.15q.5-.4.8-.4l.4.3q.25.3.1 1.5l-.2 1.55-.3.95q-.2.75.15 1.05l1.55 1.1q1.15.8 1.5 1.2l.25.55-.05.2-.3.05q-.25.1-.15.1l-.1.05-1.1.1-1.85.1q-1.05.1-1.35 1.1l-.7 1.9-.65 1.05-.55.1-.15-.15-.6-2.2q-.5-1.55-1.1-1.8h-.95l-3.65-.1q-.15-.2.1-.35l.1-.3v-.05l.05-.1 1.5-1.25q1.25-.85 1.55-.95.25-.1-.95-2.55"/><path fill="url(#u)" d="m20.2 28.85.35-.05 2.55 1.25 2.35.8 1-1.3q2.45-3.35 3-3.35l.35.35.15.3.05.1.05.15-.05 2.4-.3 2.2q-.15.35 3.1 1.2 3.2.9 1.6 1.8L31.3 36q-1.5.35-1.45 1.2l.1 2.1.05 2.05-.25 1.1-.65.15q-.45 0-1.45-1.2L26.4 40l-.7-1.05q-.55-.8-1.1-.7l-2.25.55-2.35.5-.8-.2-.15-.3.2-.25.05-.25v-.1l.85-1.15 1.6-1.85q1-1.05.35-2.05l-1.35-2.25-.9-1.45q-.15-.3.35-.6"/><path fill="url(#v)" d="m9.85 48.4.4.3q.25.3.1 1.5l-.2 1.55-.3.95q-.2.75.15 1.05l1.55 1.1 1.5 1.2.25.55-.05.2-.3.05q-.25.1-.15.1l-.1.05-1.1.1h-.05l-1.8.1q-1.05.1-1.35 1.1l-.7 1.9-.65 1.05-.55.1-.15-.15-.6-2.2q-.5-1.55-1.1-1.8H3.7l-3.65-.1q-.15-.2.1-.35l.1-.3v-.05l.05-.1 1.5-1.25q1.25-.85 1.55-.95.25-.1-.95-2.55-1.15-2.45.3-1.9 1.3.5 2.4 1.25 1 .65 1.5.2l1.25-1.15 1.2-1.15z"/><path fill="url(#w)" d="M35.75 66.6q-.15-.6.1-.9t.55.1l1.4 1.45.35.4.55.55.35.3 1.45-.35 1.45-.4.5.2v.5l-.4 1.1-1.1 1.4.5 1 .55 1.5.25.65-.2.2-.2.05-2.6-.85-.55-.35-.8 1.65-1.6 1.35-.25-.2-.1-.2-.05-.05v-.05l-.15-.9v-1.9q-.05-.35-1.9-.8-1.9-.55-.35-1.1l2.05-.9q.45-.3.35-.75-.1-.4-.05-1.3z"/></g><g id="e" fill-rule="evenodd"><path fill="url(#x)" d="M-18.9 14.7v.25l-1.15 2.2-.85 1.7-.3.55q.1 0 .55.45l.75 1q1.15 1.45 1.45 2.6l-.1.2h-.4l-4.5-1.2h-.65l-1.3 1.35-1.15 1.55h-.5q-.5-.65-.65-1.8l-.1-1.95-.2-.35-.5-.35-1.1-.7q-1.95-1.15-1.95-1.5l.3-.4-.05-.05q1.4-.7 2.1-.9h.05l.1-.05h.05l.25-.05q1.1-.1 1.6-.5l.1-.15.2-1.05q-.3-3.65.55-3.65l.3.15.05.05v.05h.1l.8.9.05.05 1.35 2.1.3.1.3.4.1-.05.05-.1 2.55-.75q.4-.25.95-.25l.45.05zm-12.8 3.8v-.05h.05zm4.65-3.6v.3q.05.65-.05 1.05zm-4.85 3.95.1.05.15.25-.15-.15zm4.25 6.6-.15-.2v-.05l-.1-.05v-.6q.3 1 1 1.1-.4.2-.55 0z" transform="translate(41.85 16.85)"/><path fill="url(#y)" d="m-30.7 39.15-.05.05-.6.4-.8.2-.2-.1-.4-.4-.5-.55q-.95-.8-1.15-.65l-.2.2-.15.55-.1.8q.05.5-.05.8 0 .4-.3.6l-.15.05-.75.5-.2.1q-.7.6-.45 1.1l.05.1h.25l.9.2.95.2h.15v.05l.1.2.3 1.35.45 1.5.15.1.15-.05q.45-.25.9-1.25l.65-1.35 2.8-.1q.45-.2-.25-.9l-1.2-1.2 1-2.05q.55-1.3-.85-.7l-.2.05zm-3.85-1.25.25-.05.25.05v.1l.1-.05 1.2 1.15.65.5 1.3-.65q1-.65 1.4-.5h.05q.3.25.25.5v.2l-.05.15v.05l-.25.65v.05l-.75 1.25.9 1 .85 1 .05.6-.9.05-.6.05-1.35-.05h-.15l-.35-.05v.1l-.15.5-.05.05-.4.9-.15.25-.2.35-.5.4-.3.1-.2-.1-.2-.4-.4-1.45-.1-.45-.2-.55-.1-.15-.9-.2-1.35-.25-.25-.2-.15-.25v-.15l.05-.05.05-.15.05-.05v-.1l.2-.25.35-.2 1.55-.85-.05-.65.05-1.15v-.05l.1-.6h.05l.15-.3z" transform="translate(41.85 16.85)"/><path fill="url(#z)" d="m-36.7 42.9-.05-.1q-.25-.5.45-1.1l.2-.1.75-.5.15-.05q.3-.2.3-.6.1-.3.05-.8l.1-.8.15-.55.2-.2q.2-.15 1.15.65l.5.55.4.4.2.1.8-.2.6-.4.05-.05q.2-.2.45-.25 1.4-.6.85.7l-1 2.05 1.2 1.2q.7.7.25.9l-2.8.1-.65 1.35q-.45 1-.9 1.25l-.15.05-.75-2.8-.2-.35h-.05v-.05h-.15q-.25-.1-.95-.3zm2.15-5-.2.1.1-.1zm-2.65 4.3-.05.15-.05.05.05-.15zm3.75 4.35.3-.1.5-.4-.55.75h-.15l-.1-.2zM-31.7 44v-.1l.35.05h.15l-.2.05zm-3.15-6.25v.1l-.1.15.05-.1z" transform="translate(41.85 16.85)"/><path fill="url(#A)" d="M-41.8-10.25v.55l-.05-.2zm4.5 5.5.2.2.05.05-.15-.1zm7.7-3.15-.3.1-.05-.05-.05-.45q.05-.35-.25-.8l.75 1.05-.05.2zm-2.95-3.3-.15-.05.2-.45.05-.2v.3zm-2.05 3.35h-.1l-.05.2-.65 1.15-.6 1.05-.15.35-.15.05q-.75.1-1.25-1.05l-.05-.35-.35-1.2v-.15q-.1-.5-.65-.65-.35-.3-1.05-.45l-1-.45-.7-.4-.15-.4 1.35-1.25.95-.4q.5-.15.65-.4l.25-.2q.3-.2.1-1.15l-.3-.95-.05-.05-.15-.7q-.2-2.1 1.3-.85l2.3 2.2 2.05-1.1q1.25-.6 1.3.1.05.65-1.05 3.7l1.5 1.45q1.15 1 1.25 1.65l.05.25-.2.15-1.6.05h-.1l-.5-.1-1.1-.05-.8-.1-.1.05-.15-.05z" transform="translate(41.85 16.85)"/><path fill="url(#B)" d="M-41.8-9.7v-.55l.05-.1.15-.35.1.05v-.1l2.05-1.15.9-.65-.3-2q-.45-1.55-.1-2l.05-.1.8-.1.25.1.15.1h.05l.75.65h.1l1.35 1.5q.4 0 1.65-.75l1.7-.7.7.15q.05.2-.25 1.25l-.15.8-.65 1.75-.05.2-.2.45.15.05.55.4.05.05 1.05.95.25.3.4.4q.3.45.25.8l.05.45.05.05.3-.1q0 .2-.25.35l-.9.05-2.1-.1h-.8l-.65-.05-.3.15-.5 1.1q-.4 1-.75 1.45-.4.45-.6.45l-.45.05h-.1l-.05-.05-.05-.05-.2-.2v-.05l-.15-.05-.25-.35-.15-.6-.45-2.35-.85-.2-1.5-.55h-.1l-.75-.4.05-.05zm3.25-4.85.05.05.3.95q.2.95-.1 1.15l-.25.2q-.15.25-.65.4l-.95.4-1.35 1.25.15.4.7.4 1 .45q.7.15 1.05.45.55.15.65.65v.15l.35 1.2.05.35q.5 1.15 1.25 1.05l.15-.05.15-.35.6-1.05.65-1.15.05-.2h.3l.1-.05.8.1 1.1.05.5.1h.1l1.6-.05.2-.15-.05-.25q-.1-.65-1.25-1.65l-1.5-1.45q1.1-3.05 1.05-3.7-.05-.7-1.3-.1l-2.05 1.1-2.3-2.2q-1.5-1.25-1.3.85v.25z" transform="translate(41.85 16.85)"/><path fill="url(#C)" d="m-40.3 5.15.15-.1.3-.1.05.1.05-.05q.25 0 1.5.7l.8.2 1.05-1q.7-1 1.1-1l.05.05q.4.1.4.4l.05.2.05.1v.75l.05.05-.35 1.45 1.2.65 1.15.7q.3.3.25.5l-.85.35-.55.25-1.3.4-.15.05-.35.1.05.05.05.55h-.05l-.1 1.05-.05.25-.05.4-.35.5-.3.25h-.2l-.35-.35-.8-1.2-.3-.45-.35-.45-.15-.1-.9.15-1.35.15-.3-.05-.25-.25-.05-.05v-.1l.05-.2v-.1l.1-.35.25-.35 1.2-1.25-.3-.6-.3-1.1-.05-.05-.1-.6h.05l.05-.35zm4-.1v.05l-.45.6-.65.45-.25-.1-.5-.15-.7-.4-1.25-.25-.2.3.1.55.2.75.15.85q.2.35-.05.65l-.1.05-.55.75-.2.2q-.45.75-.05 1.15.05-.05.1.05l.3-.05.85-.1.95-.15.1-.05.05.05.15.15.75 1.15.95 1.35h.15l.15-.15q.35-.3.4-1.4l.2-1.5 2.6-1q.35-.35-.55-.8l-1.55-.7.3-2.35q.05-1.4-1.05-.35l-.15.1z" transform="translate(41.85 16.85)"/><path fill="url(#D)" d="m-40.3 5.15-.2.15.1-.15zm-1.1 4.9-.05.2v.05-.1zm4.95 2.9.3-.25.35-.5-.3.95h-.15zm.85-3-.05-.05.35-.1.15-.05-.15.15zm-5.1.6q-.05-.1-.1-.05-.4-.4.05-1.15l.2-.2.55-.75.1-.05q.25-.3.05-.65l-.15-.85-.2-.75-.1-.55.2-.3 1.25.25.7.4.5.15.25.1.65-.45.45-.6v-.05l.35-.4q1.1-1.05 1.05.35l-.3 2.35 1.55.7q.9.45.55.8l-2.6 1-.2 1.5q-.05 1.1-.4 1.4l-.15.15-1.6-2.35-.3-.35-.1.05-.05-.05-.1.05-1 .05zm.05-5.35v.1-.25z" transform="translate(41.85 16.85)"/><path fill="url(#E)" d="m61.5-7.8.05-.05q-1.5-4-1.45-4.95v-.05l1.75-.1 2.85 1.55 2.15-2.1 1-.95q2.05-1.7 1.8 1.1v.05l-.1.7-.1.25-.1.05v.05l-.4 1.2-.1.9q0 .6.25.8l.35.25q.2.35.9.55.45.25 1.3.55l1.85 1.6-.2.5-1 .5-1.35.6q-.95.2-1.45.65-.75.2-.9.8l.05.15v.1h-.05l-.45 1.65-.1.4q-.7 1.6-1.7 1.45l-.2-.05-.2-.5-.15-.2-.5-.95-.35-.55-.75-1.25-.05-.3H64l-.4-.05-1.4.15-3.7.2-.55-.1-.2-.15v-.1q.15-.9 1.7-2.25l2.1-2zm12.4 1.7.05.05h-.05zm-4.75 2.35-.05.05v-.05zm-11.75.7h-.1l-.25-.05q-.15-.15-.05-.25l.75-1.1-.05.45v.3l-.1.3.1.15v.05l-.05.05-.05.05-.05.05zm3.8-4.8-.15-.4v-.4l.05.25.25.55z" transform="translate(41.85 16.85)"/><path fill="url(#F)" d="m44.1 23.05-1.1-1.8-.35-.85q-.75-1.05-.6-1.25.15-.25.75-.4t2.1.4l1.95.4 1.15-1.9.05-.05.75-.85v-.05l.15-.15.3-.15q.35-.25.85 0l.05.1q.5.3.4 2.2l.05 2.25 1.2.45h-.05l1.1.35V22l-.2-.1-1.1-.3-.9-.3-.2-.1q-.4-.25-.35-1.3l.1-1.1.05-.6-.05-.25q-.2-2.35-1.6-.7l-2.05 2.95-2.45-.75q-1.5-.45-1.45.35.1.75 2 3.85l-1.35 1.9q-.95 1.4-.95 2.2l.05.25.2.1.75-.05 1.65-.5.85-.2L47 26.9h.45l.1.2 1 1.15.9 1.1.1.05.15.15.15.05.6-.2q.35-.35.5-1.25l.05-.35.05-1.35v-.2q0-.55.6-.95.35-.3 1-.6l.2-.15V25l-.6.3-.9.5-.05 2.75v.6l-.05.25-.05.15-.05.05-.05.1-.1.05-.15.15h-.05v.15l-.1.05h-.05l-.1.05h-.05l-.35.05-.45-.25-.6-.55-.75-1.05-.95-1.1-.3.05h-.05l-.85.15-.65.2-2.3.55-.6.05-.05-.05-.1-.05.25.05-.3-.1-.05-.05-.05-.05-.1-.45q-.1-.55.2-1.2l.2-.35.25-.4.95-1.25v-.05l.6-.6.05-.05-.3-.45z" transform="translate(41.85 16.85)"/><path fill="url(#G)" d="m51 29.75-.05.1-.15.2v-.15h.05zm-.3.35-.15.05.1-.05zm-8.2-1.95q-.4 0-.45-.55l.4-1.25q-.3.65-.2 1.2l.1.45-.1.05.2.05.3.1zm1.95-4.45-.25-.45-.1-.2.1.15.3.45zm1.4 3.65-.85.2-1.65.5-.75.05-.2-.1-.05-.25q0-.8.95-2.2l1.35-1.9q-1.9-3.1-2-3.85-.05-.8 1.45-.35l2.45.75 2.05-2.95q1.4-1.65 1.6.7v.85l-.1 1.1q-.05 1.05.35 1.3l.2.1.9.3 1.1.3.2.1v2.55l-.2.15q-.65.3-1 .6-.6.4-.6.95v.2L51 27.8l-.05.35q-.15.9-.5 1.25l-.6.2-.15-.05-.05-.15-.95-1.2-1.15-1.1-.1-.2h-.05v-.05h-.65z" transform="translate(41.85 16.85)"/><path fill="url(#H)" d="m55.15 23.05.1.25-.05.2zm-2.3 2V21.9l.2.1q1.6.7 1.6 1.1.1.5-.2.55l-.8.8-.25.2zm2.75-1.35-.2.2.2-.3.15-.1z" transform="translate(41.85 16.85)"/><path fill="url(#I)" d="M52.85 21.75v-.15q1.2.3 1.6.5l.1.15.1.05.3.3.2.45.05.45-.35.7-.05.05-.95.75-.05.05-.05.05h-.9v-.05l.55-.4.25-.2.8-.8q.3-.05.2-.55 0-.4-1.6-1.1l-.2-.1z" transform="translate(41.85 16.85)"/><path fill="url(#J)" d="m41.55 47.9-.95-1-.35-.45-.55-.75q.1-.25.5-.35.3-.15 1.3 0h1.35L43.3 44l.05-.05.35-.6.05-.05.05-.15.15-.1q.2-.2.55-.15l.05.05q.35.2.5 1.4l.35 1.4.85.15 1.6.2.1.1.05-.05.2.1.1.25.1.2-.15.3v.05l-.35.5-.05.05-.85.75-.5.4.35 1.7.05.45-.05.3-.05.05v.1h-.05l.05.05-.1.05v.05l-.05.05-.1.05-.25.1q-.2.05-.3-.1l-1.1-.9-.75-.5H44l-.55.2-.45.25q-1.05.6-1.35.6l-.45.1-.15-.1.2.05 1.45-.6 1.2-.7h.2l.05-.05.1.1.75.6.75.55.15.2h.15q.5-.2.5-1.1l-.05-.2-.05-.9-.1-.15q-.05-.4.25-.65l.6-.5.55-.65.3-.45v-.3q0-.2-1.25-.45h-.7l-.55-.05-.25-.05q-.25-.05-.35-.8l-.1-.7-.05-.1.05-.25-.1-.2q-.45-1.5-1.1-.2l-.9 2.1-1.65-.15q-1.05-.1-.9.4t1.8 2.2l-.65 1.35q-.45 1-.35 1.5l.05.15-.15-.25-.05-.65.2-.4.05-.25.45-.9v-.05l.25-.45.1-.05-.25-.25z" transform="translate(41.85 16.85)"/><path fill="url(#K)" d="m48.3 46.5.05.1.05.1zm-1.5 4.9-.1.1v-.05zm-5.75-.15-.05.05-.2.1-.1-.1q0-.45.15-.95l.05.65zL41 51.1q-.1-.5.35-1.5l.65-1.35q-1.65-1.7-1.8-2.2t.9-.4l1.65.15.9-2.1q.65-1.3 1.1.2l.05.45.05.1.1.7q.1.75.35.8l.25.05.55.05h.7q1.25.25 1.25.45v.3l-.3.45-.55.65-.6.5q-.3.25-.25.65l.1.15.05.9.05.2q0 .9-.5 1.1h-.15l-.8-.85-.85-.5-.1-.1-.05.05-.05-.05-.35.05zm.75-2.95-.2-.25-.05-.15.1.1.25.25zm6.75-1.55-.05.1.05-.15.05-.05z" transform="translate(41.85 16.85)"/><path fill="url(#L)" d="m65.95 4.4.3.25.1.65h.1q-.2.25-.2 1.05l-.05.05-.5 1.9-.55 1 2 2.15.45.65.2.6v.2l.05.05-.55.75-.1.05h-.05l-.4.05-.35-.05h-.65l-2.45-.3h-.35l-.25.2-.55.8-.55.75-1.15 1.9-.65.7-.65.6q-.15-.05.05-.3l.1-.25-.05-.05-.5-.4-.3-.3-.25-.55-.15-.7-.05-.4-.2-1.8h-.05l.05-.95.15-.1-.65-.15-.3-.1-2.15-.7-1-.45q-1.3-.25-1.5-.6-.05-.3.45-.8.5-.55 2.05-1.25 1.65-.65 2.05-1.1l-.65-2.5.15-.1v-1.3l.05-.15.05-.35q0-.5.7-.7l.1-.05q.7 0 1.9 1.7l1.85 1.7 1.35-.3q2.1-1.25 2.55-1.25l.1.15.1-.2.55.2zm-3.3 8.8v-.05l.15-.2h.5l1.7.3 2 .15q.3-.7-.3-1.75l-.35-.3-.9-1.3-.2-.15q-.45-.5-.1-1.1-.1-.6.3-1.4l.3-1.3.2-1-.4-.5q-.25-.25-2.15.45l-1.2.65-.85.25q-.2.2-.45.2-.3.05-1.1-.75l-.75-1.05V4.3l-.35-.55-.25-.2q-1.95-1.8-1.8.6l.5 4.05-2.7 1.2q-1.55.75-.9 1.4.65.55 4.45 1.7.05 1.95.3 2.6.1 1.35.4 2l.35.45.2.25h.05l1.15-1.45.7-.9 1.3-2 .25-.2z" transform="translate(41.85 16.85)"/><path fill="url(#M)" d="m66.25 4.65-.3-.25h.1zM57 12.35l.3.1.65.15-.15.1-.5-.1zm1.2 4.2.25.55.3.3.5.4.05.05-.35.65-.25-.3-.4-1.1zm9.65-3.6-.05-.05h.05zm-1.3-8.4V4.3v.35zm-7.5-.25v.05l.75 1.05q.8.8 1.1.75.25 0 .45-.2l.85-.25 1.2-.65q1.9-.7 2.15-.45l.4.5-.2 1-.3 1.3q-.4.8-.3 1.4-.35.6.1 1.1l.2.15.9 1.3.35.3q.6 1.05.3 1.75l-2-.15-1.7-.3h-.5l-.15.2v.05l-.05-.05-.55.55-1.6 2.65-1.15 1.45h-.05l-.2-.25-.35-.45q-.3-.65-.4-2-.25-.65-.3-2.6-3.8-1.15-4.45-1.7-.65-.65.9-1.4l2.7-1.2-.5-4.05q-.15-2.4 1.8-.6z" transform="translate(41.85 16.85)"/><path fill="url(#N)" d="M60.1-12.85v.05q-.05.95 1.45 4.95l-.05.05-.1.05-1.95 1.85q-1.55 1.3-1.7 2.2l-.05.3.05.05.2.15.55.1 3.7-.2 1.4-.15.4.05h.15l.05.3.75 1.25.15.3.7 1.2.15.2.2.5.2.05q1 .15 1.7-1.45l.1-.4.45-1.65h.05v-.1l-.05-.15q.15-.6.9-.8.5-.45 1.45-.65l1.35-.6 1-.5.2-.5v-.05q.15-.4-1.85-1.7-.85-.3-1.3-.55-.7-.2-.9-.55l-.35-.25q-.25-.15-.25-.65l.1-.9.4-1.2v-.05l.1-.05.1-.25.1-.4v-.35q.25-2.8-1.8-1.1l-1 .95-2.15 2-2.85-1.5q-1.7-.8-1.75.15m1.25 5 .05-.05-.3-.65-.05-.25-.9-2.4-.2-1.05q-.7-1.35-.5-1.6l1.1-.25q.7 0 2.35.9 1.7 1.05 2.25 1.05l1.9-2h.1l1.05-.9h.05l.2-.15.35-.15 1.1.15.1.15q.45.6-.15 2.7l-.4 2.65 1.2.9 2.85 1.5v.15l.15-.05.2.45.05.45v.25l-.25.55-.2.1.05.05-1.05.55h-.15l-2.05.75-1.1.3h-.05v.05l-.65 3.05-.2.85-.4.55-.65.45h-.35l-.3-.1-.5-.4q-.6-.45-1.2-2.15L63.95-3l-.35-.1h-1.1l-.9.05-2.9.15q-.55.1-.75-.15l-1.1.05.55-.05h.15l.05-.05h.1v-.15l-.1-.15.1-.3V-4l.05-.45.25-.6.55-.5.35-.45 1.45-1.3.1-.05.75-.5z" transform="translate(41.85 16.85)"/><path d="M10.15 35.3h.05l-.05.05z"/><path fill="url(#O)" d="M-19.05 23.35q0-.8-.95-2.2l-1.35-1.9q1.9-3.1 2-3.85.05-.8-1.45-.35l-2.45.75-2.05-2.95q-1.45-1.75-1.65.95l.15 1.7q.05 1.05-.35 1.3l-2.2.7q-1.75.65-1.75 1.05l.15.4.6.6 1 .75 1 .6q.6.4.6.95l.1 1.9q.2 1.45 1.1 1.45l.4-.25.9-1.1 1.1-1.35h.45l2 .65 2.4.55q.25 0 .25-.35m.3-8.6q.15.2-.6 1.25l-.35.85-1.2 1.95-.3.45.65.65v.05l1.2 1.65q.55.85.4 1.55-.05.55-.35.65h-.65l-2.3-.55-.65-.2-.85-.15h-.05l-.3-.05-.95 1.1q-.85 1.35-1.35 1.6l-.45.25-.5-.1q-.35-.1-.15-.2h-.05l-.25-.2-.2-.55v-.6l-.05-2.75-.9-.5q-1.05-.55-1.5-.9l-.05-.05-.7-.55-.05-.05q-.45-.4-.05-1.2l.2-.2.1-.05.05-.1q.45-.25 2.5-.8h-.05l1.2-.45.05-2.25q-.1-1.9.4-2.2l.05-.1q.5-.25.85 0l.3.15.15.15v.05l.75.85.05.05 1.15 1.9 1.95-.4q1.5-.55 2.1-.4t.75.4" transform="translate(41.85 16.85)"/></g><path id="f" fill="#fff" fill-opacity=".588" fill-rule="evenodd" d="m122.8 23.3-.15.1-4.4 1.7-1.35.5q-1 .35-1.7.8-.9.15-1.05.65-.2.45-.5 3.25 0 2.95-.35 3.95t-.85.9l-.65-.25-.45-.3-.05-.1-.1-.1-.85-.95-3.5-4.4-2.65.25-3.6.25-1.85.05q-.6-.1-.65-1.05l.1-.45q.2-.7 3.1-4.1l.5-.6 1.6-1.7-2.9-4.25q-1.95-2.5-1.6-3.3l.2-.2q7.45 1.7 8.15 2.1.65.35 3.4-3.5 2.7-3.9 3.25-1.2l.9 5.5.35 2.6q-.1.2 3.9 1.05 3.95.85 4.45 1.7.45.75-.7 1.1M104.4 4.55q-.6.85-.15 1.25l.9 1.05 1.05 1.25q.35.35.25.65l-.2.35q-.3.2-1.35 0l-1.35-.15-.85-.3-.9.15-1 1.35-1 1.4-.55.2-.25-.15.1-.25-.1-.05-.1-.2-.1-1V8.5q-.15-.85-1.05-1.15-.8-.15-1.65-.65l-.9-.55q-.3-.05-.05-.45l.15-.25 1.85-.5q1.45-.35 1.7-.65l.05-1.05Q98.6.2 99.05.1q.05-.15.3 0l.25.05.1.1 1.05 1.25.85 1.45q.05.25 2.25-.8 2.1-1.05 1.6.2zM85.95 22.3l-.3-2.35-.1-.3.4-.3.45.2 1.7 1.65q1.3 1.25 1.75 1.35.6-.3 1.15-.65 3-2.2 3.4-1.9l.15.35.1.3v.15L94 22.75l-.35.65-.65 1.15q-.2.2 2.3 1.85 2.4 1.55.8 1.8l-2.95.3q-1.3-.1-1.45.6-.3.7-.5 1.7l-.6 1.85-.55.65-.5.05q-.4-.2-.85-1.4L88 30.4l-.25-1.05q-.2-.75-.7-.85L85 28.3l-2.1-.2-.2-.05-.05-.25.3-.55.25-.2L84.6 26l1-.9q.45-.45.45-1.7zm14.35-8.65 1.15-.05-1.15.1zM95 33.4l1.5 3q.5 1.45 1.35 1.35l2.1-.25 2.05-.25 1.05.2.2.6q.05.45-1.05 1.55l-1.3 1.4-1 .75q-.75.6-.6 1.15l.75 2.2.65 2.3-.15.8q-.2.1-.25.15l-.3-.15-.25-.05h-.1l-1.2-.75-1.9-1.2-2.15.1-2.15 1.4q-1.2.45-1.4.6-.25.2-.6-.3l-.1-.3 1.05-2.65q.65-1.9.25-2.65l-1-.65q-3.55-2.2-3.6-2.75 0-.3.35-.35.15-.25.3-.2l.1-.05.1-.05 2.45-.15 2.2.15q.35.1.95-3.2.65-3.3 1.7-1.75m17.6 13.45.3 2.4.4 3.5.1.85.05-.05.2.35q.1.3 4.6 1.05 4.5.7 2.2 2.6-2.35 1.9-4.25 2.8l-1.3.35.3 1.75.4 3.35q.25 1.95.1 3.1-.15 1.1-1.05.25-.65-.3-3.7-3.05l-1-.9-1.45-1.1-.95-.7q-.9.1-3.25 1-2.45 1.1-3.4 1.1-.95.1-1.2-.4l-.05-.5-.1-.35v-.05l.05-.2.45-1.15 2.3-4.65-1.5-2.1-1.9-2.8-.85-1.5q-.2-.55.6-1l.4-.1 5.05.95q2.4.55 3 .85l2.3-4.1q1.4-2.6 2.2-2.7l.65.45zM90.75 68q-.2 1.4.25 1.7l1.4.65 2.15.8q1.15.4 1.3.75l-.05.6q-.2.3-1.6.7l-1.7.45-1.15.2q-.9.1-1.05.6l-.3 2.1-.4 2.15-.5.55h-.3l-.2-.25-.2-.15-.05-.05-.75-1.15-1.05-1.85-.75-1.1-2.35.1-2.6.1-.6-.25.25-.6 2-1.6 1.65-1.6-.8-1.35q-2.1-3.35-1.85-3.8.1-.25.4-.15h.55l2.5 1.65q1.55.95 1.9.9l2.1-2.4q1.8-2.35 1.9-.75zm7.5 9.2q-1.15-2.45.3-1.9 1.3.5 2.4 1.25 1 .65 1.5.2l1.25-1.15 1.2-1.15q.5-.4.8-.4l.4.3q.25.3.1 1.5l-.2 1.55-.3.95q-.2.75.15 1.05l1.55 1.1q1.15.8 1.5 1.2l.25.55-.05.2-.3.05q-.25.1-.15.1l-.1.05-1.1.1-1.85.1q-1.05.1-1.35 1.1l-.7 1.9-.65 1.05-.55.1-.15-.15-.6-2.2q-.5-1.55-1.1-1.8h-.95l-3.65-.1q-.15-.2.1-.35l.1-.3v-.05l.05-.1 1.5-1.25q1.25-.85 1.55-.95.25-.1-.95-2.55m-56.3-28.95 1.25.9 1.3.9.45.65-.15.45q-.2.25-1.35.3l-1.4.1-.9-.05q-.7-.05-.9.35l-.7 1.6-.7 1.6q-.3.4-.5.3h-.25l-.05-.3-.1-.05-.1-.1-.3-1-.4-1.6q-.3-.9-1.3-1l-1.8-.3-1.1-.3q-.25 0-.15-.45l.1-.25 1.8-.9 1.55-1.05L36 46.9q-.95-2.95-.65-3.25l.35-.05.25.05H36l.1.05 1.4 1.05 1.15 1.2q.15.25 2.1-1.3 1.9-1.5 1.75-.15l-.6 2.4q-.45 1.05.05 1.35M26.2 11.75l2 .65 3.8.95q1.8.25 2.25 1.1.45.75-.65 1.1-.6.45-4.4 1.8l-1.3.5q-.95.35-1.6.8-.95.25-1.05.45-.25.9-.45 3.45v.85l-.35 2.85q-.35.9-.95.85l-.5-.15-.15-.05q-.95-.8-.95-1.25l-1.7-2.25-1.95-2.1-2.55.25-3.45.25-1.75.05q-.6-.1-.65-1.05l.1-.45 2.55-3 2.45-3.4-2.8-4.25Q10.3 7.2 10.6 6.4q.2-.35.55-.35l4.45 1.6 3.25 1.1q.9.15 3.6-3.75t2.85-1.4q.25 3.5.6 5.9zm-6 17.1.35-.05 2.55 1.25 2.35.8 1-1.3q2.45-3.35 3-3.35l.35.35.15.3.05.1.05.15-.05 2.4-.3 2.2q-.15.35 3.1 1.2 3.2.9 1.6 1.8L31.3 36q-1.5.35-1.45 1.2l.1 2.1.05 2.05-.25 1.1-.65.15q-.45 0-1.45-1.2L26.4 40l-.7-1.05q-.55-.8-1.1-.7l-2.25.55-2.35.5-.8-.2-.15-.3.2-.25.05-.25v-.1l.85-1.15 1.6-1.85q1-1.05.35-2.05l-1.35-2.25-.9-1.45q-.15-.3.35-.6M9.85 48.4l.4.3q.25.3.1 1.5l-.2 1.55-.3.95q-.2.75.15 1.05l1.55 1.1 1.5 1.2.25.55-.05.2-.3.05q-.25.1-.15.1l-.1.05-1.1.1h-.05l-1.8.1q-1.05.1-1.35 1.1l-.7 1.9-.65 1.05-.55.1-.15-.15-.6-2.2q-.5-1.55-1.1-1.8H3.7l-3.65-.1q-.15-.2.1-.35l.1-.3v-.05l.05-.1 1.5-1.25q1.25-.85 1.55-.95.25-.1-.95-2.55-1.15-2.45.3-1.9 1.3.5 2.4 1.25 1 .65 1.5.2l1.25-1.15 1.2-1.15zm12.8-21.6.1.1-.15-.05zm5.2 28.35q.6.05.35.8l-.8 3-.25.85-.25 1.15-.15.75 1.65 1.6 1.75 1.65q.35.5.1.8l-.3.2-.2.15h-.05l-.1.05-.85.05H25.1l-.85 1.45-1.2 1.9-.7.9-.8-.05-.2-.2q-.25-.4-.95-3.2l-.4-1.95-3.3-.2q-2.05-.05-2.35-.5-.15-.3.05-.5l.15-.35.1-.05.05-.05 1.05-.95 2.5-1.55q.45-.35-.45-3.3t1.1-1.9q2.1 1 3.25 1.85l1.1.65 1.15-1.1 2-1.5q.85-.55 1.45-.45m10.3 12.5.55.55.35.3 1.45-.35 1.45-.4.5.2v.5l-.4 1.1-1.1 1.4.5 1 .55 1.5.25.65-.2.2-.2.05-2.6-.85-.55-.35-.8 1.65-1.6 1.35-.25-.2-.1-.2-.05-.05v-.05l-.15-.9v-1.9q-.05-.35-1.9-.8-1.9-.55-.35-1.1l2.05-.9q.45-.3.35-.75-.1-.4-.05-1.3l-.1-1.4q-.15-.6.1-.9t.55.1l1.4 1.45zm-1.3 10.65q1.15.35 1.6.8.5.45.65.1.1-.4.45-.65l1.1-.85q.4-.35.7-.35.35 0 .25.4l-.2 1.6-.05.4-.1.65v.35l1 .7.95.7.1.4-.15.15-.1.05v.05H43l-.9.35-1.4.05-.4.8-.65 1.15-.3.45h-.2l-.15-.1-.75-2.05-.1-.5-1.4.35-1.65-.25-.05-.25.1-.25.05-.05.45-.55 1.2-.95q.2-.25-.4-1.65-.7-1.4.4-1.05"/></defs></svg>