<svg xmlns="http://www.w3.org/2000/svg" xmlns:ffdec="https://www.free-decompiler.com/flash" xmlns:xlink="http://www.w3.org/1999/xlink" ffdec:objectType="frame" width="61.85" height="59.8"><use ffdec:characterId="1" xlink:href="#a" width="61.85" height="59.8"/><defs><g id="a" fill-rule="evenodd"><path fill="#956746" d="m23.05 16.45 1.65-1.55 1.2-1.2 2.75-2.45L33.3 7.1l3.15-2.95q-.5 1.2.8 2.9 1.45 1.7 3.15 1.25l-2.05 1.85-11.2 10.45q-.05-1.2-.55-2.2-.95-2.15-3.35-1.9zm31 6.5q-.55 3.2 3.95 4.25l-2.25 2.1-5.5 5.1-2.9 2.65-1.05 1.05-1.55 1.5q.15-2.9-2.05-3.75l-2.2-.35 11.55-10.6zm-21.95 9.6q-5.45 4.5-10.95 9.9Q9.9 52.85 8.95 55.9l-.65-.7q-1.7-1.1-2.85-3.15l-1.1-1.15q4.5-1.8 15.2-11.8l9.75-9.55z"/><path fill="#ad6837" d="m19.55 12.9 1.75-1.6 1.25-1.15 2.7-2.5 4.6-4.35 3.5-3.3h.55q1.9.05 2.65 1.7.35.85.3 1.65l-.15.55-.25.25L33.3 7.1l-4.65 4.15-2.75 2.45-1.2 1.2-1.65 1.55-.05.1q-1 .3-2.15-.9-1.05-1.1-1.3-2.75M40.4 8.3 41 8q1.4-.65 2.05.7l.35 1.35-2.45 2.2-.25.35-1.3 1.2-1.4 1.3-3.15 2.85-4.7 4.4-1.25 1.25-.05-.05q-1.85.35-2.3-.75-.4-.8.1-1.6l.5-.6 11.2-10.45zm12.2 11.45q1.75-.1 2.1 1.2.25 1.25-.65 2l-2 1.95L40.5 35.5q-.8.2-1.5 0-1.4-.35-1-2.1l-.05-.05 1.3-1.2 4.75-4.4 3.05-2.9 1.45-1.3 1.2-1.15.35-.35zM58 27.2v-.05l.1-.15q.55-.5 2.15.25 1.7.85 1.6 2.85l-.1.5-2.6 2.4-5.45 5.15-2.9 2.65-1.1 1-1.8 1.65q-1.55-.2-2.65-1.45-1.1-1.35-.5-2.4l1.55-1.5 1.05-1.05 2.9-2.65 5.5-5.1z"/><path fill="#c59572" d="m33.35 0-3.5 3.3-4.6 4.35-2.7 2.5-1.25 1.15-1.75 1.6q.25-1.15 1.1-2.75 1.6-3.3 4.25-5.6 2.45-2.3 5.65-3.6z"/><path fill="#794926" d="m61.75 30.6-1.65 3.15q-1.75 3.05-3.7 4.75l-3.6 2.95q-1.4.95-4.3 2.05l-.6-.05 1.8-1.65 1.1-1 2.9-2.65L59.15 33z"/><path fill="#54341d" d="m36.8 32.2-2 1.75-1.65-.2-1.05-1.2-2.8-3-1.1-1.25-.2-1.65 1.95-1.85z"/><path fill="#4d2407" d="m8.95 55.9-1 .95-1.55.45q-2.75-1.75-3.7-3.9l.65-1.65q.3-.4 1-.85l1.1 1.15Q6.6 54.1 8.3 55.2z"/><path fill="#af642e" d="m6.4 57.3-.35.05q-.4 1.3-1.4 1.9-1.5 1.1-3.2-.25l-.85-.9q-1.2-1.75 0-3.15.75-.9 2.05-1.35l.05-.2q.95 2.15 3.7 3.9"/><path fill="#794e2e" d="M43.4 10.05v.2l9.2 9.5-2.55 2.3-.35.35-1.2 1.15-1.45 1.3-3.05 2.9-4.75 4.4-1.3 1.2-1.15-1.15-6.85-7.4-1.05-1.2 1.25-1.25 4.7-4.4L38 15.1l1.4-1.3 1.3-1.2.25-.35z"/><path fill-opacity=".298" d="m32.15 32.7-5.6 4.7q-5.5 5.05-6.2 6.3.45-1.05 2.9-5.15l1.75-3.5.15-1.3 4.15-4.1zM7.2 54q4-1.85 6.1-3.65-1.55 1.4-2.95 3.4Q9 55.55 9 56.15l-.2-.1.15-.15-.65-.7zm-.8 3.3-1.8 1.95q-2.05 1.35-3.35-.75L3 58.05q1.7-.85 1.85-2.4l.5.6z"/><path fill="#fff" fill-opacity=".298" d="M33.3 7.1q0-3.05-3.45-3.8l3.5-3.3h.55q1.9.05 2.65 1.7.35.85.3 1.65l-.15.55-.25.25-2.1 1.95zm17.2 19.1q-.75-2.05-2.4-2.75l-4.6-4.55-4.75-5.1q.75-.6-1.7-2.05l.9-.8 1.55-1.4 1 .2q1.1.45 1.4 1.7-.3.35 4.25 5 4.2 4.55 4.85 4.8 1.2.15 1.75 1.4l.25 1.3-.2.15-1.3 1.3zm7.5 1v-.05l.1-.15q.55-.5 2.15.25 1.7.85 1.6 2.85l-.1.5-2.6 2.4q-.2-2.65-3.4-3.7z"/><path fill-opacity=".298" d="M25.9 13.7q-3.2.4-3.35-3.55l2.7-2.5q.05 3.1 3.4 3.6zm2.7 5.5 2.45-1.95.55 1.25q.55 1.05 1.45 1.25l.55-.65 9.1 9.85-1.4 1.25.5 1.15q.85 1.4 1.75 1.35l-1.9 1.75-.4.4q-1.2-.2-1.8-.6-.8-.65-.7-2L31.2 24.1l-1.4-1.45.65-.6-.9-.35q-1.05-.6-1.1-1.9l-.05-.4zm21.65 15.2q.8 3.3 3.45 3.75l-2.9 2.65q-3.15-1.05-3.45-3.75zm-20.5-5.9L28 26.65l1.95-1.85.85.95 6 6.45-2 1.75zM8.8 56.05l-.85.8-1.55.45-1.05-1.05-.5-.6L2.7 53.4l.65-1.65q.3-.4 1-.85l1.1 1.15L7.2 54l1.1 1.2.65.7z"/><path fill="#fff" fill-opacity=".298" d="m12.55 45.5 5.3-4.3q-.1.95-5.3 5.7-5.15 4.75-5.95 4.8-.5 0-.75-.35-.3-.3-.3-1.1 1.6-.3 7-4.75"/><path fill-opacity=".2" d="M36.45 4.15q-.5 1.2.8 2.9 1.45 1.7 3.15 1.25l-1.05 1-1.75 1.55Q35.5 9.8 34.65 7.7l-.3-1.6zM53 23.95l1.05-1q-.55 3.2 3.95 4.25l-2.25 2.1q-2.25-.5-3.7-2.65l-.55-1.25 1.3-1.3zM45.95 38.4l-1.2 1.2q.15-2.9-2.05-3.75l-2.2-.35.75-.65.4-.4 2.4-.1q2.7.6 1.9 4.05m-17.55-19-1.25 1.2q-.05-1.2-.55-2.2-.95-2.15-3.35-1.9l-.2-.05 1.65-1.55.45-.4q3.3 1.1 3.6 3.35l-.15 1.35z"/><path fill-opacity=".498" d="M28.65 11.25 33.3 7.1l1.05-1 .3 1.6q.85 2.1 2.95 3.15l-9 8.35.15-1.35q-.3-2.25-3.6-3.35l.75-.8zm14.9 21.45 6.95-6.5 1-.8.55 1.25q1.45 2.15 3.7 2.65l-5.5 5.1-2.9 2.65-1.05 1.05-.35.3q.8-3.45-1.9-4.05l-2.4.1z"/></g></defs></svg>