<svg xmlns="http://www.w3.org/2000/svg" xmlns:ffdec="https://www.free-decompiler.com/flash" xmlns:xlink="http://www.w3.org/1999/xlink" ffdec:objectType="frame" width="27.7" height="35.4"><use ffdec:characterId="1" xlink:href="#a" width="27.7" height="35.4"/><defs><g id="a" fill-rule="evenodd"><path fill="#e57508" d="M11.9 1.1q6.55 2.4 10.65 7.75-3.25-3.05-6.5-2.1l-.85.3-.35.15-.85-.75Q10.65 3.3 11.9 1.2zm15.25 17.65Q23.55 13.7 20 16.5q-.4-2.85-1.9-5.9 3.1-1.3 7.1 2.6 1.4 2.85 1.95 5.55M2.25 4.5Q.1 4.45 0 3.55-.15 2.7 1.3 1.7 3.9-.05 6.9 0q-.6 2.6 2.4 5.15zM27.3 29.8q.5 1.15.35 2.2-2.2-7.45-8.8-7.9.9-1.95 1.2-3.9 4.65-1.65 7.35 3.4-.3 2.3-1.25 4.45zm-9 1.3-.5.25-1.95.4v-.05q-1.6-2.25-.25-3.85l.6-.55 1.25.5q1.4.8 2.15 2.5.55 1.35.7 3.3l-.3.4q-.85-.2-1.2-.8l-.35-1.1z"/><path fill="#e5e5e5" d="m18.1 10.6-.3-.55-.8-1.4-.3-.4q-.55-.65-1.5-1.2l.85-.3q3.25-.95 6.5 2.1 1.25 1.65 2.3 3.65l.35.7q-4-3.9-7.1-2.6m-6.2-9.5v.1Q10.65 3.3 14 6.45l-.9-.35 1.75 1.1-3.3-1.55-.75-.2-1.5-.3Q6.3 2.6 6.9 0l2.9.4 1.9.65zm15.25 17.65q.45 2.5.25 4.85-2.7-5.05-7.35-3.4v-.25q.2-1.7-.05-3.45 3.55-2.8 7.15 2.25M19.6 30.3q-.75-1.7-2.15-2.5l-1.25-.5q.5-.4 1.1-.6l.2-.25 1.35-2.35q6.6.45 8.8 7.9l-.25 1-.4.6-1.85-1.35-.45-.35-.2 1.15-.55.95-1.6 1.4q-.6-.55-.8-1.55l-.1-1.4.2-1.9q-.15.95-.7 2l-.65 1.05q-.15-1.95-.7-3.3"/><path fill-opacity=".298" d="M14.85 5.55q1.3 1.6 1.85 2.9Q12.25 5.3 7.5 4.9L.2 4.2Q-.2 2.35 3.05.95q3.2-1.4 6.25 0 3 1.35 5.55 4.6m5 24.5q.75 1.05.25 3L20 34q-1.4-.6-1.4-1.85t.65-1.45zm-3.1.35-.9 1.3q-1.8-3.45 1.85-5.35-.25 3-.95 4.05m4.8 1.1q.25-.7.9-.9 1.1 2.55-.35 4.55-.95-1.8-.55-3.65m3.05-1.7q2.8 1.6 2.4 3.8-2.35-1.35-2.4-3.8"/></g></defs></svg>