<?xml version="1.0" encoding="UTF-8" standalone="no"?>
<svg xmlns:ffdec="https://www.free-decompiler.com/flash" xmlns:xlink="http://www.w3.org/1999/xlink" ffdec:objectType="frame" height="72.35px" width="62.95px" xmlns="http://www.w3.org/2000/svg">
  <g transform="matrix(1.0, 0.0, 0.0, 1.0, 30.05, 19.45)">
    <use ffdec:characterId="1" height="72.35" transform="matrix(1.0, 0.0, 0.0, 1.0, -30.05, -19.45)" width="62.95" xlink:href="#shape0"/>
  </g>
  <defs>
    <g id="shape0" transform="matrix(1.0, 0.0, 0.0, 1.0, 30.05, 19.45)">
      <path d="M-30.0 -18.75 L-30.05 -18.85 Q-28.3 -18.3 -20.65 -13.25 -12.85 -8.1 -11.4 -6.55 L-11.3 -4.15 -11.15 -0.25 -11.1 -0.15 -9.25 2.0 -8.9 1.95 -6.9 2.0 Q-5.6 2.25 -4.35 3.35 L-3.9 3.8 -12.15 3.8 -11.55 3.3 -13.45 1.2 Q-14.0 1.75 -13.5 2.1 L-14.15 2.25 -16.15 2.15 -16.65 2.0 -20.5 1.3 Q-21.85 -0.3 -25.9 -8.85 -29.65 -17.0 -30.0 -18.75" fill="#666666" fill-rule="evenodd" stroke="none"/>
      <path d="M-1.8 9.5 L-1.55 10.35 -1.8 9.5 M-4.5 13.1 L-4.8 13.9 -4.5 13.05 -4.5 13.1" fill="#a30f0f" fill-rule="evenodd" stroke="none"/>
      <path d="M-14.4 1.85 L-16.15 1.55 -16.65 1.4 -20.5 0.7 Q-21.85 -0.9 -25.9 -9.45 -29.65 -17.6 -30.0 -19.35 L-20.35 -8.15 Q-21.65 -7.1 -18.15 -2.7 L-17.5 -1.85 -14.4 1.85" fill="#f0f0f0" fill-rule="evenodd" stroke="none"/>
      <path d="M-11.15 -0.85 L-11.1 -0.75 Q-12.7 -0.25 -13.45 0.6 -14.0 1.15 -14.15 1.9 L-14.4 1.85 -17.5 -1.85 Q-22.7 -10.4 -14.1 -4.35 L-11.15 -0.85" fill="#9c9c9c" fill-rule="evenodd" stroke="none"/>
      <path d="M32.6 51.7 L32.35 52.05 Q31.3 53.35 29.55 52.7 L-0.9 17.0 Q-0.4 16.05 0.7 15.75 L32.6 51.7 M-12.55 3.65 L-12.6 3.7 -14.15 1.9 Q-14.0 1.15 -13.45 0.6 L-11.55 2.7 -12.55 3.65" fill="#852b22" fill-rule="evenodd" stroke="none"/>
      <path d="M-11.1 -0.75 L-9.25 1.4 Q-10.15 1.6 -11.15 2.35 L-11.55 2.7 -13.45 0.6 Q-12.7 -0.25 -11.1 -0.75 M3.15 15.55 L32.6 50.05 Q33.25 50.65 32.6 51.7 L0.7 15.75 3.15 15.55" fill="#aa4136" fill-rule="evenodd" stroke="none"/>
      <path d="M-1.55 10.35 L3.15 15.55 0.7 15.75 -0.9 12.8 -0.15 13.05 -1.25 11.15 -1.55 10.35 M-4.2 10.85 L-4.4 9.55 -2.6 11.6 -2.5 11.7 -2.45 11.75 -2.4 11.8 -1.8 12.3 -4.2 10.85" fill="#8e2f27" fill-rule="evenodd" stroke="none"/>
      <path d="M-0.9 17.0 L-4.5 13.1 -4.5 13.05 -4.15 11.2 -4.2 10.85 -1.8 12.3 -1.0 12.75 -0.9 12.8 0.7 15.75 Q-0.4 16.05 -0.9 17.0" fill="#661c16" fill-rule="evenodd" stroke="none"/>
      <path d="M-17.5 -1.85 L-18.15 -2.7 Q-21.65 -7.1 -20.35 -8.15 -19.0 -9.3 -15.6 -5.95 L-14.1 -4.35 Q-22.7 -10.4 -17.5 -1.85" fill="#747474" fill-rule="evenodd" stroke="none"/>
      <path d="M-30.0 -19.35 L-30.05 -19.45 Q-28.3 -18.9 -20.65 -13.85 -12.85 -8.7 -11.4 -7.15 L-11.3 -4.75 -11.15 -0.85 -14.1 -4.35 -15.6 -5.95 Q-19.0 -9.3 -20.35 -8.15 L-30.0 -19.35" fill="url(#gradient0)" fill-rule="evenodd" stroke="none"/>
      <path d="M-9.25 1.4 L-8.9 1.35 -6.9 1.4 Q-5.6 1.65 -4.35 2.75 -3.4 3.65 -3.25 4.1 L-2.6 5.65 -3.25 4.1 Q-3.15 4.55 -3.4 5.65 -3.65 6.85 -4.0 7.2 -4.15 5.7 -6.85 4.2 -5.7 5.85 -5.9 8.55 -5.95 9.9 -6.3 10.95 L-6.8 10.0 Q-7.55 11.55 -7.85 11.55 -8.05 11.35 -7.9 10.55 -7.7 9.65 -7.8 9.3 -8.4 9.7 -9.25 12.2 L-10.0 14.0 Q-9.65 13.4 -10.15 12.0 L-10.7 10.75 Q-11.15 12.45 -12.35 13.45 L-13.2 14.0 Q-13.0 11.85 -13.4 8.7 L-13.45 8.55 Q-13.6 5.7 -13.05 4.7 L-12.75 3.9 -12.55 3.65 -11.55 2.7 -11.15 2.35 Q-10.15 1.6 -9.25 1.4" fill="#fecc41" fill-rule="evenodd" stroke="none"/>
      <path d="M-2.6 5.65 L-1.8 9.5 -1.55 10.35 -1.25 11.15 -0.15 13.05 -0.9 12.8 -1.0 12.75 -1.8 12.3 -2.4 11.8 -2.45 11.75 -2.5 11.7 -2.6 11.6 -4.4 9.55 -4.2 10.85 -4.15 11.2 -4.5 13.05 -4.8 13.9 -5.8 15.75 -6.4 16.65 -6.4 14.6 Q-6.5 13.75 -7.25 12.5 -7.4 14.3 -8.55 16.55 -9.5 18.4 -9.25 19.85 -10.65 18.75 -11.1 17.3 -11.75 15.55 -10.85 13.65 L-11.9 15.3 -13.95 16.85 -13.85 16.7 -13.8 16.6 -13.3 14.85 -13.25 14.35 -13.2 14.2 -13.2 14.05 -13.2 14.0 -12.35 13.45 Q-11.15 12.45 -10.7 10.75 L-10.15 12.0 Q-9.65 13.4 -10.0 14.0 L-9.25 12.2 Q-8.4 9.7 -7.8 9.3 -7.7 9.65 -7.9 10.55 -8.05 11.35 -7.85 11.55 -7.55 11.55 -6.8 10.0 L-6.3 10.95 Q-5.95 9.9 -5.9 8.55 -5.7 5.85 -6.85 4.2 -4.15 5.7 -4.0 7.2 -3.65 6.85 -3.4 5.65 -3.15 4.55 -3.25 4.1 L-2.6 5.65" fill="#df9d0e" fill-rule="evenodd" stroke="none"/>
    </g>
    <linearGradient gradientTransform="matrix(0.0115, 0.0, 0.0, 0.0114, -20.6, -10.15)" gradientUnits="userSpaceOnUse" id="gradient0" spreadMethod="pad" x1="-819.2" x2="819.2">
      <stop offset="0.0" stop-color="#707070"/>
      <stop offset="1.0" stop-color="#ffffff"/>
    </linearGradient>
  </defs>
</svg>
