<?xml version="1.0" encoding="UTF-8" standalone="no"?>
<svg xmlns:ffdec="https://www.free-decompiler.com/flash" xmlns:xlink="http://www.w3.org/1999/xlink" ffdec:objectType="frame" height="32.65px" width="55.25px" xmlns="http://www.w3.org/2000/svg">
  <g transform="matrix(1.0, 0.0, 0.0, 1.0, 53.2, -21.35)">
    <use ffdec:characterId="1" height="32.65" transform="matrix(1.0, 0.0, 0.0, 1.0, -53.2, 21.35)" width="55.25" xlink:href="#shape0"/>
  </g>
  <defs>
    <g id="shape0" transform="matrix(1.0, 0.0, 0.0, 1.0, 53.2, -21.35)">
      <path d="M-21.3 34.6 L-21.25 34.6 -20.1 34.8 Q-18.65 34.7 -17.55 33.1 L-15.95 33.45 -16.05 33.95 -15.95 34.45 -15.75 34.9 -15.5 35.3 -15.35 35.6 -15.25 35.7 -14.7 36.05 -15.35 37.55 -15.4 37.55 Q-17.25 37.45 -18.15 38.55 -18.7 39.15 -18.75 39.65 L-21.0 39.6 -50.35 53.5 -53.2 54.0 -50.95 52.1 -22.6 36.4 -21.3 34.6" fill="url(#gradient0)" fill-rule="evenodd" stroke="none"/>
      <path d="M-18.75 39.65 L-21.0 39.6 -50.35 53.5 -53.2 54.0 -21.65 37.95 -20.3 37.95 -18.75 39.65" fill="#3e3e4c" fill-rule="evenodd" stroke="none"/>
      <path d="M-21.3 34.6 L-20.85 36.8 -21.65 37.95 -53.2 54.0 -50.95 52.1 -22.6 36.4 -21.3 34.6" fill="#000000" fill-opacity="0.2" fill-rule="evenodd" stroke="none"/>
      <path d="M-21.65 37.9 L-19.6 36.9 -19.6 36.85 -18.5 36.3 -18.45 36.25 -17.65 35.9 -17.65 35.85 -15.75 34.9 -15.5 35.3 -15.35 35.6 -15.25 35.7 -14.7 36.05 -15.35 37.55 -15.4 37.55 Q-17.25 37.45 -18.15 38.55 -18.7 39.15 -18.75 39.65 L-20.3 37.95 -21.65 37.95 -21.65 37.9" fill="#5a5766" fill-rule="evenodd" stroke="none"/>
      <path d="M-19.6 36.2 Q-19.4 36.15 -19.0 35.7 -18.3 34.8 -17.55 33.1 L-18.0 34.45 Q-18.6 36.0 -19.6 36.85 -20.5 36.25 -21.25 34.6 L-19.6 36.2 M-19.6 36.9 L-18.2 36.6 Q-16.45 36.55 -15.35 37.55 L-15.4 37.55 Q-16.55 36.8 -17.95 36.95 L-19.15 37.2 Q-19.2 38.55 -18.75 39.65 L-19.2 39.15 -19.6 37.55 -19.6 36.9 M-17.0 33.75 L-16.05 33.95 -15.95 34.45 -16.85 34.35 -17.65 35.85 -17.65 35.9 -15.85 36.1 -15.5 35.3 -15.35 35.6 -15.25 35.7 -15.75 36.6 -18.5 36.3 -18.45 36.25 -17.0 33.75" fill="#ffffff" fill-opacity="0.69411767" fill-rule="evenodd" stroke="none"/>
      <path d="M-15.35 32.4 Q-14.8 31.75 -13.85 31.7 L-12.75 31.95 -12.25 32.3 Q-11.55 33.05 -11.6 33.95 L-11.65 34.7 Q-11.8 35.2 -12.2 35.5 -12.85 36.15 -13.7 36.2 L-14.7 36.05 -15.25 35.7 -15.35 35.6 -15.5 35.3 -15.75 34.9 -15.95 34.45 -16.05 33.95 -15.95 33.45 Q-15.85 32.85 -15.35 32.4 M-13.85 32.25 Q-14.55 32.3 -14.95 32.8 -15.35 33.25 -15.35 33.95 -15.35 34.6 -14.9 35.05 -14.45 35.55 -13.75 35.5 -13.15 35.45 -12.6 35.05 -12.1 34.5 -12.2 33.9 -12.15 33.2 -12.7 32.8 -13.15 32.25 -13.85 32.25" fill="url(#gradient1)" fill-rule="evenodd" stroke="none"/>
      <path d="M-14.9 35.05 Q-15.35 34.6 -15.35 33.95 -15.35 33.25 -14.95 32.8 -14.55 32.3 -13.85 32.25 -13.15 32.25 -12.7 32.8 -12.15 33.2 -12.2 33.9 -12.1 34.5 -12.6 35.05 -13.15 35.45 -13.75 35.5 -14.45 35.55 -14.9 35.05" fill="url(#gradient2)" fill-rule="evenodd" stroke="none"/>
      <path d="M-13.2 34.45 Q-13.45 34.8 -13.75 34.75 L-14.4 34.55 -14.6 33.9 -14.4 33.35 -13.85 33.05 Q-13.5 33.1 -13.2 33.3 L-13.0 33.95 Q-12.95 34.25 -13.2 34.45" fill="url(#gradient3)" fill-rule="evenodd" stroke="none"/>
      <path d="M-13.8 33.5 L-13.75 33.3 -13.6 33.3 -13.45 33.25 -13.35 33.45 -13.4 33.6 -13.55 33.75 -13.7 33.65 -13.8 33.5" fill="#ffffff" fill-rule="evenodd" stroke="none"/>
      <path d="M-0.05 25.85 L-0.1 26.35 -1.45 26.85 -3.5 28.0 Q-4.45 28.5 -6.35 30.3 L-8.6 31.6 -8.85 30.45 -6.7 29.1 -3.85 26.75 -1.9 25.65 -0.4 25.05 -0.05 25.85" fill="url(#gradient4)" fill-rule="evenodd" stroke="none"/>
      <path d="M0.65 22.6 Q0.7 25.4 0.3 27.65 L0.2 27.95 0.2 28.05 0.15 28.3 Q-0.15 29.45 -1.2 30.5 L-2.65 31.9 -4.4 32.9 -6.15 33.45 -8.1 33.2 -8.6 32.65 -9.1 30.35 -9.65 27.85 -9.35 28.3 Q-9.2 28.4 -8.9 30.15 L-8.9 30.2 Q-8.8 30.3 -8.85 30.45 L-8.6 31.6 Q-8.5 31.7 -8.55 31.85 L-8.5 31.9 -7.95 32.65 -6.15 33.2 -5.0 32.9 Q-3.8 32.3 -2.95 31.4 -0.95 29.6 -0.5 28.1 L-0.1 26.55 -0.1 26.35 -0.05 25.85 0.05 24.2 0.1 23.15 0.3 22.35 0.65 22.6" fill="url(#gradient5)" fill-rule="evenodd" stroke="none"/>
      <path d="M0.15 28.3 L-0.35 30.2 Q-1.3 33.05 -5.35 35.55 -6.45 36.2 -7.15 37.05 L-7.15 36.25 -6.85 35.8 -5.9 34.95 -4.9 33.95 -7.35 35.9 -9.5 38.7 -8.9 37.05 -8.8 36.65 -8.3 35.55 -7.8 35.15 -7.25 34.8 -6.85 34.25 -7.8 34.85 -8.5 35.45 -9.2 36.7 -9.95 37.6 -11.55 39.45 -10.3 36.5 -9.5 35.5 -9.65 33.2 Q-10.0 30.2 -11.0 26.9 L-9.85 27.7 -9.65 27.85 -9.1 30.35 -8.6 32.65 -8.1 33.2 -6.15 33.45 -4.4 32.9 -2.65 31.9 -1.2 30.5 Q-0.15 29.45 0.15 28.3" fill="url(#gradient6)" fill-rule="evenodd" stroke="none"/>
      <path d="M-11.55 39.45 Q-10.9 36.5 -10.5 36.0 L-10.0 35.55 -9.7 35.1 -9.75 33.4 -10.3 33.25 -11.1 33.65 -11.6 32.25 -11.6 32.2 Q-11.1 30.5 -11.1 29.3 L-11.1 27.5 -11.0 26.9 Q-10.0 30.2 -9.65 33.2 L-9.5 35.5 -10.3 36.5 -11.55 39.45" fill="url(#gradient7)" fill-rule="evenodd" stroke="none"/>
      <path d="M-8.9 37.05 L-11.55 39.45 -9.95 37.6 -9.2 36.7 -8.5 35.45 -7.8 34.85 -6.85 34.25 -7.25 34.8 -7.8 35.15 -8.3 35.55 -8.8 36.65 -8.9 37.05" fill="url(#gradient8)" fill-rule="evenodd" stroke="none"/>
      <path d="M-7.15 36.25 L-9.5 38.7 -7.35 35.9 -4.9 33.95 -5.9 34.95 -6.85 35.8 -7.15 36.25" fill="url(#gradient9)" fill-rule="evenodd" stroke="none"/>
      <path d="M-0.05 25.85 L-0.6 24.55 0.05 24.2 -0.05 25.85" fill="url(#gradient10)" fill-rule="evenodd" stroke="none"/>
      <path d="M0.65 22.6 L1.0 22.9 1.8 21.35 Q2.15 22.2 2.0 23.25 L2.05 23.35 2.0 23.55 1.5 24.75 1.15 25.5 0.95 25.75 0.3 27.65 Q0.7 25.4 0.65 22.6" fill="url(#gradient11)" fill-rule="evenodd" stroke="none"/>
      <path d="M-7.8 34.85 L-6.85 34.25 -7.25 34.8 -7.8 35.15 -8.3 35.55 -8.8 36.65 -8.9 37.05 -11.55 39.45 Q-10.9 36.5 -10.5 36.0 L-10.0 35.55 -9.7 35.1 -9.75 33.4 -10.3 33.25 -11.1 33.65 -11.6 32.25 -11.6 32.2 Q-11.1 30.5 -11.1 29.3 L-11.1 27.5 -11.0 26.9 Q-10.0 30.2 -9.65 33.2 L-9.5 35.5 -10.3 36.5 -11.55 39.45 -9.95 37.6 -9.2 36.7 -8.5 35.45 -7.8 34.85 M-0.05 25.85 L-0.6 24.55 0.05 24.2 -0.05 25.85 M-6.85 35.8 L-7.15 36.25 -9.5 38.7 -7.35 35.9 -4.9 33.95 -5.9 34.95 -6.85 35.8" fill="#5a5766" fill-rule="evenodd" stroke="none"/>
      <path d="M-1.55 27.15 L-3.5 28.2 -6.4 30.65 -8.55 31.85 Q-8.5 31.7 -8.6 31.6 L-6.35 30.3 Q-4.45 28.5 -3.5 28.0 L-1.45 26.85 -0.1 26.35 -0.1 26.55 -1.55 27.15 M-1.9 25.65 L-3.85 26.75 -6.7 29.1 -8.85 30.45 Q-8.8 30.3 -8.9 30.2 L-8.9 30.15 -6.7 28.85 Q-4.75 27.05 -3.8 26.55 L-1.9 25.35 -0.5 24.8 -0.4 25.05 -1.9 25.65" fill="url(#gradient12)" fill-rule="evenodd" stroke="none"/>
      <path d="M-11.6 32.2 L-11.6 32.25 -11.1 33.65 -10.95 33.85 -11.15 34.6 -11.65 34.7 -11.6 33.95 Q-11.55 33.05 -12.25 32.3 L-12.75 31.95 -12.65 31.5 -11.9 31.8 -11.6 32.2" fill="url(#gradient13)" fill-rule="evenodd" stroke="none"/>
      <path d="M-0.7 25.95 L-0.6 25.6 -1.45 26.15 -1.7 26.25 -1.5 26.45 -1.45 26.4 Q-1.2 26.0 -0.75 25.95 L-0.7 25.95 M-0.4 25.45 L-0.45 25.6 -0.45 26.0 -0.45 26.05 -0.75 26.25 Q-1.15 26.3 -1.35 26.65 L-1.25 26.65 -1.35 26.75 -1.45 26.85 -1.75 26.6 -1.85 26.4 -1.95 26.7 -2.1 27.0 -2.3 26.85 -2.5 26.75 -2.6 26.75 -2.55 26.8 -2.85 27.35 -3.1 27.55 -3.1 27.6 -3.15 27.65 -3.2 27.7 -3.45 27.2 -3.5 27.25 -3.65 27.45 -3.6 27.45 -3.6 27.5 -3.55 27.55 -3.55 27.7 -3.55 27.75 -3.85 28.05 -4.15 28.15 -4.25 27.95 -4.3 27.95 -4.75 28.5 -4.85 28.6 -4.85 28.85 -5.05 29.05 -5.1 29.05 -5.15 28.9 -5.05 28.85 -5.05 28.75 -5.1 28.75 -4.8 28.05 -5.0 28.2 -5.6 28.8 Q-5.5 28.25 -4.85 27.7 L-4.2 27.15 -4.15 27.1 -4.55 27.75 -4.15 27.65 -4.0 27.9 -3.75 27.75 -3.9 27.6 -4.0 27.55 -3.7 27.05 -3.45 26.9 -3.35 26.65 Q-3.2 26.85 -3.2 27.25 L-2.85 26.9 -2.85 26.65 -2.85 26.3 -2.75 26.25 Q-2.6 26.1 -2.55 26.3 L-2.65 26.5 -2.65 26.55 -2.5 26.5 Q-2.35 26.45 -2.25 26.65 L-2.2 26.75 -1.95 26.3 -2.0 26.3 -2.1 26.4 -2.2 26.3 -2.25 26.3 -2.25 26.25 -2.2 26.1 -2.05 26.05 -2.05 26.15 -1.25 25.65 -0.5 25.35 -0.4 25.45" fill="url(#gradient14)" fill-rule="evenodd" stroke="none"/>
      <path d="M-8.2 30.9 L-8.65 31.05 -8.2 30.55 -8.2 30.35 -8.15 30.3 -7.65 29.9 -7.15 29.85 -7.6 30.2 -7.75 30.35 -7.45 30.3 -7.4 30.3 -7.3 30.45 Q-7.15 30.25 -6.95 30.2 L-6.9 30.1 -6.8 30.05 -6.95 29.95 -7.0 29.75 -6.55 29.35 Q-6.35 29.2 -6.2 29.2 L-6.2 29.15 -6.15 29.15 -6.0 29.15 -5.95 29.15 Q-6.1 28.95 -5.9 28.7 L-5.75 28.65 -5.75 28.75 -5.75 28.85 -5.75 28.95 -5.65 28.95 -5.65 29.0 -5.6 29.45 -5.65 29.6 -5.65 29.55 -5.9 29.45 Q-5.95 29.35 -6.05 29.35 L-6.15 29.4 -6.2 29.4 -6.35 29.6 -6.7 29.8 -6.65 29.9 -6.6 30.0 -6.4 29.8 Q-6.25 29.6 -6.15 29.8 L-6.35 30.1 -6.6 30.2 -6.6 30.15 -6.7 30.2 -6.75 30.3 -7.1 30.55 -7.4 30.75 -7.6 30.45 -7.85 30.65 -7.75 30.7 -7.7 30.9 -7.7 31.0 -7.8 31.1 -7.95 30.7 -8.2 30.9" fill="url(#gradient15)" fill-rule="evenodd" stroke="none"/>
      <path d="M-33.05 42.7 L-33.35 42.85 -33.75 43.45 -34.1 43.55 -34.25 43.65 -34.3 43.6 -34.3 43.5 -34.25 43.45 -33.9 43.25 -33.5 42.8 -33.5 42.75 -33.45 42.75 -32.75 42.35 -32.7 42.35 -32.65 42.4 -32.6 42.45 -32.65 42.5 -33.3 43.45 -33.3 43.6 -33.35 43.6 -33.85 43.75 -34.1 44.25 -33.5 44.4 -33.05 44.05 -33.0 44.05 -32.95 44.05 -31.75 44.1 -31.7 44.1 -31.65 44.2 -31.7 44.25 -32.3 44.7 -32.35 44.7 -32.4 44.65 -33.05 44.75 -33.4 44.85 -33.55 44.85 -33.6 44.85 -33.65 44.8 -33.5 44.7 -33.15 44.6 -32.35 44.5 -32.1 44.3 -33.05 44.2 -33.45 44.6 -34.15 44.55 -34.15 44.6 Q-34.1 45.05 -34.5 45.35 L-34.55 45.4 -34.65 45.4 -34.85 45.2 -35.05 45.2 Q-35.3 45.65 -35.0 45.95 L-35.0 46.1 -35.05 46.05 -36.75 46.15 -36.85 46.5 -37.55 47.35 -37.6 47.35 -38.65 47.5 -39.1 47.85 Q-39.1 48.05 -39.85 48.05 L-39.95 48.05 -39.95 48.0 -39.9 47.95 Q-39.6 47.3 -38.75 46.85 L-38.7 46.85 -38.6 46.9 -37.45 46.75 -37.35 46.7 -37.3 46.75 -37.3 46.85 -37.1 46.5 -36.95 46.0 -36.9 45.9 -36.85 45.85 -36.75 45.85 -35.3 45.95 Q-35.55 45.65 -35.2 45.15 L-35.3 45.1 -35.5 45.35 -35.65 45.6 -35.6 45.7 -35.75 45.75 -35.8 45.7 -36.0 45.65 -36.75 45.7 -36.8 45.75 -36.9 45.65 -36.85 45.65 -36.85 45.6 -36.25 45.1 -36.3 44.85 -36.3 44.8 -36.25 44.8 -36.1 44.8 -35.75 44.85 -35.7 44.85 -35.45 44.9 -35.45 44.75 Q-36.05 44.75 -36.2 44.4 L-36.95 45.55 -37.0 45.6 -37.05 45.65 -37.1 45.65 -37.6 45.5 -38.1 45.45 -38.05 45.5 -38.0 45.6 -38.1 45.6 Q-38.75 45.95 -38.8 46.55 L-38.9 46.55 Q-39.7 47.0 -40.45 46.9 L-40.6 46.95 -40.6 46.9 -40.5 46.85 -39.95 46.3 -39.35 46.2 -38.65 45.4 -38.6 45.4 -37.45 45.35 -37.1 45.45 -36.15 44.15 -36.1 44.1 -36.05 44.15 -36.05 44.2 Q-35.95 44.5 -35.35 44.6 L-35.3 44.35 -35.4 44.15 -35.4 44.05 -35.35 44.05 -35.25 44.0 Q-34.75 43.95 -34.4 44.2 L-34.35 44.25 -34.05 43.65 -34.0 43.65 -33.95 43.65 -33.45 43.45 -33.05 42.7 M-38.55 47.3 L-38.5 47.2 -37.55 47.15 -37.3 46.9 -37.35 46.9 -38.75 47.05 -39.65 47.85 -39.25 47.9 -38.7 47.35 -38.55 47.3 M-38.15 45.5 L-38.5 45.5 -39.15 46.2 -39.2 46.25 -39.25 46.35 -40.1 46.45 -40.3 46.75 -39.1 46.6 Q-38.9 45.85 -38.15 45.5 M-36.0 45.5 L-35.8 45.5 -35.7 45.3 -35.55 45.1 -35.8 45.05 -36.15 45.05 -36.1 45.1 -36.1 45.15 -36.4 45.5 -36.0 45.5 M-35.15 44.15 L-35.2 44.35 -35.15 44.55 -34.6 44.5 -34.55 44.5 -34.5 44.55 -34.5 44.6 -34.9 44.95 -34.75 45.1 -34.55 45.25 Q-34.3 44.9 -34.4 44.7 L-34.45 44.45 -34.65 44.3 Q-34.75 44.1 -35.15 44.15 M-34.85 44.65 L-35.15 44.75 -35.2 44.9 -35.05 44.95 -34.85 44.65" fill="url(#gradient16)" fill-rule="evenodd" stroke="none"/>
      <path d="M-31.05 41.45 L-31.15 41.45 -31.05 41.35 -31.0 41.3 Q-30.9 41.25 -30.9 41.35 L-30.15 41.3 -30.1 41.25 -30.05 41.4 -30.15 41.4 -30.2 41.5 -29.95 41.45 -29.65 41.05 -30.45 41.2 -30.5 41.2 -30.55 41.1 -30.55 41.05 -30.4 41.0 -29.45 40.85 -28.95 40.25 -28.85 40.25 -28.8 40.2 -28.75 40.25 -28.8 40.3 -29.2 40.65 -28.2 40.3 -28.15 40.25 -28.05 40.35 -28.0 40.4 -28.1 40.5 Q-29.2 41.0 -29.3 41.65 L-29.3 41.75 -29.45 41.85 -30.4 42.1 -30.8 42.65 -30.15 42.6 Q-30.15 42.35 -29.35 42.0 L-29.3 41.9 -29.25 41.85 -28.45 41.55 -28.4 41.55 -27.05 41.1 -26.95 41.1 -26.95 41.25 -28.5 41.65 -29.0 41.9 -27.5 41.65 -27.3 41.65 -27.3 41.7 -27.35 41.75 -27.35 41.8 -28.3 42.3 -27.7 42.3 Q-27.65 42.2 -27.6 42.25 L-27.55 42.3 -27.65 42.35 -27.7 42.4 -28.55 42.45 -29.2 43.15 -29.3 43.25 -29.35 43.2 -29.45 43.2 -29.35 43.1 -28.85 42.5 -29.3 42.5 -29.55 42.75 -29.4 42.7 -29.35 42.65 -29.3 42.7 -29.3 42.75 -29.35 42.85 Q-29.75 43.05 -29.75 43.4 L-29.75 43.5 -29.85 43.5 -29.9 43.55 -29.95 43.45 -29.8 43.05 -29.9 43.05 -32.0 43.3 -32.1 43.2 Q-31.7 42.4 -30.75 41.6 L-30.7 41.6 -30.7 41.55 -31.05 41.45 M-30.6 42.0 L-30.5 41.9 -30.5 41.85 -30.45 41.95 -29.5 41.7 -29.45 41.7 -28.95 40.8 -29.4 40.95 -29.7 41.55 -29.7 41.6 -29.8 41.65 -30.6 41.8 -31.85 43.1 -30.0 42.9 -29.4 42.35 -29.3 42.35 -29.25 42.3 -28.55 42.35 -28.25 42.1 -29.25 42.05 -29.25 42.1 Q-30.05 42.5 -30.0 42.65 L-30.05 42.75 -30.2 42.75 -31.05 42.8 -31.1 42.75 -31.1 42.7 -30.6 42.0" fill="url(#gradient17)" fill-rule="evenodd" stroke="none"/>
      <path d="M-31.3 41.75 L-31.5 41.65 -31.55 41.65 -31.45 41.55 -31.4 41.55 -31.35 41.55 -31.05 41.65 -30.95 41.65 -30.95 41.7 -31.0 41.7 -32.3 43.4 -30.2 43.25 -30.15 43.25 -30.15 43.6 -30.2 43.65 -30.25 43.65 -30.35 43.7 -30.35 43.6 -30.4 43.45 -32.55 43.55 -32.6 43.5 -32.6 43.45 -31.3 41.75" fill="url(#gradient18)" fill-rule="evenodd" stroke="none"/>
      <path d="M-31.8 41.85 L-31.85 41.9 -33.1 43.75 Q-32.05 43.95 -30.75 43.75 L-30.75 43.8 -30.7 43.85 -30.75 43.9 -32.95 44.05 -33.0 44.05 -33.3 44.0 -33.35 43.95 -33.35 43.9 Q-32.95 42.8 -31.95 41.75 L-31.85 41.8 -31.8 41.85" fill="url(#gradient19)" fill-rule="evenodd" stroke="none"/>
      <path d="M-37.2 45.85 L-37.25 45.9 -37.6 45.8 -38.05 45.95 -38.05 46.0 -38.35 46.5 -37.75 46.6 -37.35 46.25 -37.2 45.95 -37.15 45.9 -37.1 45.85 -37.05 45.95 -37.05 46.0 -37.15 46.3 -37.2 46.35 Q-37.4 46.7 -37.75 46.7 L-37.75 46.75 -38.55 46.55 -38.65 46.6 -38.6 46.5 -38.2 45.8 -37.6 45.65 -37.2 45.65 -37.2 45.7 -37.15 45.8 -37.2 45.85" fill="url(#gradient20)" fill-rule="evenodd" stroke="none"/>
      <path d="M-39.45 47.0 L-39.45 47.15 -40.1 48.0 Q-40.3 48.15 -39.95 48.35 L-39.95 48.45 -40.0 48.5 -40.1 48.5 -41.6 48.55 -41.9 48.85 -41.1 48.85 -41.05 48.9 -41.0 48.95 -41.05 49.05 -41.2 49.05 -41.95 49.05 -42.05 49.15 -41.7 49.2 -41.55 49.15 -41.55 49.2 -41.65 49.35 -41.75 49.35 -42.2 49.35 -42.5 49.6 -42.55 49.7 -42.6 49.65 -42.65 49.65 -42.65 49.6 -42.5 49.35 -42.55 49.3 -43.05 49.85 -43.1 49.95 -43.15 49.9 -43.2 49.9 -43.2 49.85 -42.7 49.25 -42.65 49.2 -42.3 49.2 -42.2 49.1 -42.75 49.1 -44.05 50.45 -44.1 50.45 -44.25 50.45 -44.25 50.35 -44.2 50.35 -42.95 49.1 -43.1 49.15 -43.45 49.5 -43.55 49.55 -43.9 49.5 -44.25 49.9 -44.3 49.95 -44.8 49.95 -45.05 50.2 -44.45 50.05 -44.35 50.0 -44.35 50.05 -44.3 50.1 -44.4 50.2 -45.0 50.65 -46.4 50.85 -46.4 50.8 -46.35 50.8 -45.7 50.35 -45.75 50.35 -45.65 50.25 -45.8 50.25 -46.45 50.55 -46.5 50.55 -46.55 50.5 -46.6 50.5 -46.6 50.4 Q-46.4 49.9 -45.6 49.5 L-44.9 49.25 -44.8 49.25 -44.75 49.35 -44.8 49.35 -45.3 49.8 -44.9 49.85 -44.85 49.75 -44.7 49.35 -44.7 49.3 -44.65 49.25 -44.6 49.25 -44.05 49.3 -43.9 48.95 -43.85 48.95 -44.9 49.05 -45.05 49.05 -45.05 49.0 -44.95 48.9 -44.9 48.85 -43.05 48.55 -42.7 48.15 -42.9 48.15 -43.05 48.4 -43.1 48.45 -43.15 48.5 -43.95 48.55 -44.0 48.5 -43.95 48.4 -43.85 48.35 -43.35 48.3 -43.15 48.3 -43.1 48.2 -43.35 48.3 Q-43.45 48.2 -43.5 48.2 L-43.5 48.1 -43.4 48.05 -43.0 48.0 -42.7 47.6 -42.6 47.55 -42.5 47.55 -42.45 47.6 -42.75 48.0 -42.0 47.9 -41.1 46.8 -41.0 46.8 -40.95 46.65 -40.85 46.75 -40.8 46.75 Q-40.9 47.0 -40.6 47.1 L-39.5 47.05 -39.45 47.0 M-40.1 47.3 L-40.1 47.35 -40.05 47.35 -40.05 47.4 -40.5 48.0 -40.55 48.05 -41.1 48.05 -41.5 48.35 -40.35 48.35 -40.35 48.0 -39.75 47.2 -40.75 47.25 -41.05 47.1 -41.75 47.9 -41.25 47.9 -41.2 47.85 -41.0 47.45 -40.9 47.25 -40.1 47.3 M-45.35 49.55 L-45.55 49.7 -46.3 50.25 -45.8 50.05 -45.45 50.1 -45.4 50.15 -45.45 50.25 -45.55 50.45 -45.95 50.8 -45.1 50.55 -45.1 50.5 -44.9 50.4 -45.15 50.4 Q-45.35 50.25 -45.05 49.95 L-45.45 49.9 -45.35 49.55 M-42.55 48.6 L-42.9 48.7 -43.05 48.9 -42.8 48.9 -42.55 48.6 M-42.35 48.45 L-42.05 48.1 -42.45 48.1 -42.85 48.55 -42.45 48.45 -42.35 48.45 M-41.8 48.1 L-42.15 48.4 -41.65 48.4 -41.3 48.1 -41.8 48.1 M-41.8 48.55 L-42.25 48.6 -42.6 48.9 -42.1 48.85 -41.8 48.55 M-40.95 47.85 L-40.65 47.9 -40.3 47.45 -40.8 47.5 -40.95 47.85 M-44.1 49.45 L-44.5 49.45 -44.7 49.75 -44.3 49.8 -44.1 49.45 M-43.25 48.85 L-43.1 48.75 -43.75 48.9 -43.25 48.85 M-43.7 49.05 L-43.85 49.3 -43.55 49.4 -43.25 49.0 -43.7 49.05" fill="url(#gradient21)" fill-rule="evenodd" stroke="none"/>
      <path d="M-26.35 40.8 L-26.05 40.5 -26.55 40.55 -26.7 40.7 -26.6 40.8 -26.35 40.8 M-26.4 40.35 L-25.85 40.3 -25.3 39.75 -26.1 39.9 -26.4 40.35 M-24.7 39.45 L-24.4 39.5 -23.95 39.1 -24.55 39.15 -24.7 39.45 M-24.9 39.65 L-24.95 39.65 -25.0 39.55 -24.75 39.2 -25.85 39.45 -25.95 39.65 -25.1 39.6 -25.0 39.65 -25.0 39.7 -25.05 39.7 -25.6 40.4 -25.3 40.35 -24.5 39.65 -24.9 39.65 M-22.75 37.7 L-22.75 37.75 -22.8 37.75 -22.85 37.8 -23.7 38.15 -25.2 38.65 -24.25 38.65 -24.2 38.65 -24.2 38.7 -24.25 38.75 -24.4 39.0 -23.7 38.9 -23.65 38.95 -23.6 39.05 -24.1 39.5 -23.85 39.5 -23.75 39.5 -23.75 39.6 -24.3 40.25 -23.0 39.45 -22.2 38.9 -22.15 38.85 -22.1 38.9 -22.05 38.9 -22.1 39.0 -23.0 40.0 -23.1 40.0 -23.2 40.05 -23.25 40.0 -23.15 39.85 -22.65 39.45 -22.85 39.5 -24.6 40.6 -24.7 40.65 -24.7 40.6 -24.8 40.5 -24.05 39.6 -24.3 39.65 -25.25 40.5 -25.35 40.55 -25.8 40.5 -26.25 41.0 -26.3 41.0 -26.65 41.2 -25.4 40.85 Q-25.35 40.75 -25.3 40.8 L-25.25 40.85 -25.3 40.9 -25.4 40.95 -27.0 41.55 -27.15 41.55 -27.15 41.45 -27.1 41.4 -26.55 41.05 -26.8 40.95 -27.05 41.1 -28.25 41.35 -28.3 41.35 -28.3 41.25 -27.15 40.25 -27.15 40.4 -27.1 40.45 -28.05 41.2 -26.85 40.85 -26.75 40.45 -26.6 40.4 -26.35 39.9 -26.8 39.95 -26.95 40.2 -26.95 40.1 -27.05 40.2 -27.15 40.25 -27.1 40.1 -27.75 40.3 -27.85 40.3 -27.85 40.25 -27.8 40.15 -26.4 39.15 -26.3 39.1 -26.25 39.2 -26.2 39.3 -27.35 40.0 -26.9 39.85 -26.85 39.85 -26.25 39.7 -25.9 39.3 -25.85 39.3 -24.65 38.95 -24.5 38.8 -25.7 38.95 -25.7 38.9 -25.7 38.8 -25.6 38.75 -23.85 37.95 -24.25 37.95 -24.35 38.0 -24.4 37.9 -24.3 37.75 -24.2 37.75 -22.85 37.65 -22.75 37.7" fill="url(#gradient22)" fill-rule="evenodd" stroke="none"/>
      <path d="M-46.75 50.35 L-46.8 50.4 -47.0 50.75 -47.5 51.2 -46.85 51.05 -46.35 51.05 Q-46.25 51.0 -46.3 51.1 L-46.25 51.15 -46.35 51.2 -46.4 51.2 -46.85 51.25 Q-47.5 51.3 -48.2 51.7 L-48.3 51.7 -48.35 51.6 -48.35 51.55 -47.2 50.75 -46.95 50.3 -46.85 50.25 -46.75 50.3 -46.75 50.35" fill="url(#gradient23)" fill-rule="evenodd" stroke="none"/>
    </g>
    <linearGradient gradientTransform="matrix(0.0236, -0.0106, 0.01, 0.0224, -34.4, 43.9)" gradientUnits="userSpaceOnUse" id="gradient0" spreadMethod="pad" x1="-819.2" x2="819.2">
      <stop offset="0.0" stop-color="#ffffff"/>
      <stop offset="1.0" stop-color="#d2c7cf"/>
    </linearGradient>
    <radialGradient cx="0" cy="0" gradientTransform="matrix(3.0E-4, 0.0029, -0.0029, 3.0E-4, -13.8, 33.95)" gradientUnits="userSpaceOnUse" id="gradient1" r="819.2" spreadMethod="pad">
      <stop offset="0.6235294117647059" stop-color="#ffffff"/>
      <stop offset="1.0" stop-color="#928b99"/>
    </radialGradient>
    <radialGradient cx="0" cy="0" gradientTransform="matrix(2.0E-4, 0.0018, -0.0018, 2.0E-4, -13.75, 33.85)" gradientUnits="userSpaceOnUse" id="gradient2" r="819.2" spreadMethod="pad">
      <stop offset="0.0" stop-color="#ffffff"/>
      <stop offset="1.0" stop-color="#5a5766"/>
    </radialGradient>
    <radialGradient cx="0" cy="0" gradientTransform="matrix(1.0E-4, 0.0012, -0.0012, 1.0E-4, -13.8, 33.65)" gradientUnits="userSpaceOnUse" id="gradient3" r="819.2" spreadMethod="pad">
      <stop offset="0.0" stop-color="#cc1414"/>
      <stop offset="1.0" stop-color="#660909"/>
    </radialGradient>
    <linearGradient gradientTransform="matrix(0.0056, -0.0023, 0.0022, 0.0052, -4.5, 28.25)" gradientUnits="userSpaceOnUse" id="gradient4" spreadMethod="pad" x1="-819.2" x2="819.2">
      <stop offset="0.0" stop-color="#3a2f4c"/>
      <stop offset="0.49411764705882355" stop-color="#81659f"/>
      <stop offset="1.0" stop-color="#3a2f4c"/>
    </linearGradient>
    <linearGradient gradientTransform="matrix(7.0E-4, 0.0063, -0.0066, 7.0E-4, -4.15, 28.05)" gradientUnits="userSpaceOnUse" id="gradient5" spreadMethod="pad" x1="-819.2" x2="819.2">
      <stop offset="0.0" stop-color="#fdfcf8"/>
      <stop offset="0.5215686274509804" stop-color="#e3d8e0"/>
      <stop offset="1.0" stop-color="#7e7789"/>
    </linearGradient>
    <linearGradient gradientTransform="matrix(-0.0079, 9.0E-4, -8.0E-4, -0.0078, -5.65, 32.55)" gradientUnits="userSpaceOnUse" id="gradient6" spreadMethod="pad" x1="-819.2" x2="819.2">
      <stop offset="0.0" stop-color="#fdfcf8"/>
      <stop offset="0.5215686274509804" stop-color="#e3d8e0"/>
      <stop offset="1.0" stop-color="#7e7789"/>
    </linearGradient>
    <linearGradient gradientTransform="matrix(8.0E-4, 0.0075, -0.0016, 2.0E-4, -10.9, 33.1)" gradientUnits="userSpaceOnUse" id="gradient7" spreadMethod="pad" x1="-819.2" x2="819.2">
      <stop offset="0.0" stop-color="#fdfcf8"/>
      <stop offset="0.5215686274509804" stop-color="#e3d8e0"/>
      <stop offset="1.0" stop-color="#7e7789"/>
    </linearGradient>
    <linearGradient gradientTransform="matrix(3.0E-4, 0.0028, -0.0032, 3.0E-4, -9.2, 36.8)" gradientUnits="userSpaceOnUse" id="gradient8" spreadMethod="pad" x1="-819.2" x2="819.2">
      <stop offset="0.0" stop-color="#fdfcf8"/>
      <stop offset="0.5215686274509804" stop-color="#e3d8e0"/>
      <stop offset="1.0" stop-color="#7e7789"/>
    </linearGradient>
    <linearGradient gradientTransform="matrix(3.0E-4, 0.0026, -0.0031, 3.0E-4, -7.15, 36.35)" gradientUnits="userSpaceOnUse" id="gradient9" spreadMethod="pad" x1="-819.2" x2="819.2">
      <stop offset="0.0" stop-color="#fdfcf8"/>
      <stop offset="0.5215686274509804" stop-color="#e3d8e0"/>
      <stop offset="1.0" stop-color="#7e7789"/>
    </linearGradient>
    <linearGradient gradientTransform="matrix(4.0E-4, 9.0E-4, -4.0E-4, 2.0E-4, -0.2, 25.05)" gradientUnits="userSpaceOnUse" id="gradient10" spreadMethod="pad" x1="-819.2" x2="819.2">
      <stop offset="0.0" stop-color="#fdfcf8"/>
      <stop offset="0.5215686274509804" stop-color="#e3d8e0"/>
      <stop offset="1.0" stop-color="#7e7789"/>
    </linearGradient>
    <linearGradient gradientTransform="matrix(4.0E-4, 0.0037, -0.0014, 2.0E-4, 1.15, 24.55)" gradientUnits="userSpaceOnUse" id="gradient11" spreadMethod="pad" x1="-819.2" x2="819.2">
      <stop offset="0.0" stop-color="#fdfcf8"/>
      <stop offset="0.5215686274509804" stop-color="#e3d8e0"/>
      <stop offset="1.0" stop-color="#7e7789"/>
    </linearGradient>
    <linearGradient gradientTransform="matrix(-0.0057, 6.0E-4, -8.0E-4, -0.0078, -4.05, 32.35)" gradientUnits="userSpaceOnUse" id="gradient12" spreadMethod="pad" x1="-819.2" x2="819.2">
      <stop offset="0.0" stop-color="#7e7789"/>
      <stop offset="0.5215686274509804" stop-color="#e3d8e0"/>
      <stop offset="1.0" stop-color="#7e7789"/>
    </linearGradient>
    <linearGradient gradientTransform="matrix(7.0E-4, 0.0018, -9.0E-4, 3.0E-4, -11.8, 33.1)" gradientUnits="userSpaceOnUse" id="gradient13" spreadMethod="pad" x1="-819.2" x2="819.2">
      <stop offset="0.0" stop-color="#7e7789"/>
      <stop offset="0.5215686274509804" stop-color="#e3d8e0"/>
      <stop offset="1.0" stop-color="#7e7789"/>
    </linearGradient>
    <radialGradient cx="0" cy="0" gradientTransform="matrix(4.0E-4, 0.004, -0.004, 4.0E-4, -3.0, 27.25)" gradientUnits="userSpaceOnUse" id="gradient14" r="819.2" spreadMethod="pad">
      <stop offset="0.16862745098039217" stop-color="#bd2149"/>
      <stop offset="1.0" stop-color="#661d28"/>
    </radialGradient>
    <radialGradient cx="0" cy="0" gradientTransform="matrix(3.0E-4, 0.0024, -0.0024, 3.0E-4, -7.15, 29.9)" gradientUnits="userSpaceOnUse" id="gradient15" r="819.2" spreadMethod="pad">
      <stop offset="0.16862745098039217" stop-color="#bd2149"/>
      <stop offset="1.0" stop-color="#661d28"/>
    </radialGradient>
    <radialGradient cx="0" cy="0" gradientTransform="matrix(6.0E-4, 0.006, -0.006, 6.0E-4, -36.1, 45.2)" gradientUnits="userSpaceOnUse" id="gradient16" r="819.2" spreadMethod="pad">
      <stop offset="0.16862745098039217" stop-color="#bd2149"/>
      <stop offset="1.0" stop-color="#661d28"/>
    </radialGradient>
    <radialGradient cx="0" cy="0" gradientTransform="matrix(4.0E-4, 0.0041, -0.0041, 4.0E-4, -29.55, 41.85)" gradientUnits="userSpaceOnUse" id="gradient17" r="819.2" spreadMethod="pad">
      <stop offset="0.16862745098039217" stop-color="#bd2149"/>
      <stop offset="1.0" stop-color="#661d28"/>
    </radialGradient>
    <radialGradient cx="0" cy="0" gradientTransform="matrix(2.0E-4, 0.0022, -0.0022, 2.0E-4, -31.4, 42.65)" gradientUnits="userSpaceOnUse" id="gradient18" r="819.2" spreadMethod="pad">
      <stop offset="0.16862745098039217" stop-color="#bd2149"/>
      <stop offset="1.0" stop-color="#661d28"/>
    </radialGradient>
    <radialGradient cx="0" cy="0" gradientTransform="matrix(3.0E-4, 0.0024, -0.0024, 3.0E-4, -32.15, 42.95)" gradientUnits="userSpaceOnUse" id="gradient19" r="819.2" spreadMethod="pad">
      <stop offset="0.16862745098039217" stop-color="#bd2149"/>
      <stop offset="1.0" stop-color="#661d28"/>
    </radialGradient>
    <radialGradient cx="0" cy="0" gradientTransform="matrix(2.0E-4, 0.0014, -0.0014, 2.0E-4, -37.9, 46.2)" gradientUnits="userSpaceOnUse" id="gradient20" r="819.2" spreadMethod="pad">
      <stop offset="0.16862745098039217" stop-color="#bd2149"/>
      <stop offset="1.0" stop-color="#661d28"/>
    </radialGradient>
    <radialGradient cx="0" cy="0" gradientTransform="matrix(6.0E-4, 0.0053, -0.0053, 6.0E-4, -43.05, 48.7)" gradientUnits="userSpaceOnUse" id="gradient21" r="819.2" spreadMethod="pad">
      <stop offset="0.16862745098039217" stop-color="#bd2149"/>
      <stop offset="1.0" stop-color="#661d28"/>
    </radialGradient>
    <radialGradient cx="0" cy="0" gradientTransform="matrix(5.0E-4, 0.0044, -0.0044, 5.0E-4, -25.25, 39.6)" gradientUnits="userSpaceOnUse" id="gradient22" r="819.2" spreadMethod="pad">
      <stop offset="0.16862745098039217" stop-color="#bd2149"/>
      <stop offset="1.0" stop-color="#661d28"/>
    </radialGradient>
    <radialGradient cx="0" cy="0" gradientTransform="matrix(2.0E-4, 0.0015, -0.0015, 2.0E-4, -47.4, 50.95)" gradientUnits="userSpaceOnUse" id="gradient23" r="819.2" spreadMethod="pad">
      <stop offset="0.16862745098039217" stop-color="#bd2149"/>
      <stop offset="1.0" stop-color="#661d28"/>
    </radialGradient>
  </defs>
</svg>
