<?xml version="1.0" encoding="UTF-8" standalone="no"?>
<svg xmlns:ffdec="https://www.free-decompiler.com/flash" xmlns:xlink="http://www.w3.org/1999/xlink" ffdec:objectType="frame" height="59.95px" width="59.95px" xmlns="http://www.w3.org/2000/svg">
  <g transform="matrix(1.0, 0.0, 0.0, 1.0, 19.8, 11.0)">
    <use ffdec:characterId="2" height="59.95" id="Color" transform="matrix(1.0, 0.0, 0.0, 1.0, -19.8, -11.0)" width="59.95" xlink:href="#sprite0"/>
    <use ffdec:characterId="3" height="59.95" transform="matrix(1.0, 0.0, 0.0, 1.0, -19.8, -11.0)" width="59.95" xlink:href="#shape1"/>
  </g>
  <defs>
    <g id="sprite0" transform="matrix(1.0, 0.0, 0.0, 1.0, 0.0, 0.0)">
      <use ffdec:characterId="1" height="59.95" transform="matrix(1.0, 0.0, 0.0, 1.0, 0.0, 0.0)" width="59.95" xlink:href="#shape0"/>
    </g>
    <g id="shape0" transform="matrix(1.0, 0.0, 0.0, 1.0, 0.0, 0.0)">
      <path d="M29.8 36.75 Q32.5 36.75 34.5 34.75 36.45 32.8 36.45 30.1 36.45 27.35 34.5 25.35 32.5 23.45 29.8 23.45 27.1 23.45 25.1 25.35 23.15 27.35 23.15 30.1 23.15 32.8 25.1 34.75 27.1 36.75 29.8 36.75 M59.95 0.1 L45.5 29.95 45.5 30.0 59.95 59.8 59.95 59.95 59.9 59.95 29.95 45.55 29.95 45.6 0.1 59.95 0.0 59.95 0.0 59.9 14.45 30.0 0.0 0.15 0.0 0.1 0.0 0.0 0.05 0.1 29.95 14.4 29.95 14.45 59.9 0.1 59.95 0.0 59.95 0.1" fill="#cccccc" fill-rule="evenodd" stroke="none"/>
    </g>
    <g id="shape1" transform="matrix(1.0, 0.0, 0.0, 1.0, 19.8, 11.0)">
      <path d="M-19.8 -10.9 L-19.8 -11.0 -19.75 -10.9 -19.8 -10.9" fill="#333333" fill-rule="evenodd" stroke="none"/>
      <path d="M16.5 12.7 Q19.05 15.4 19.05 19.0 L19.05 19.85 16.65 19.65 16.65 19.1 Q16.65 16.35 14.7 14.35 12.7 12.45 10.0 12.45 L9.4 12.5 9.2 10.15 10.15 10.1 Q13.9 10.1 16.45 12.65 L16.5 12.7" fill="#000000" fill-opacity="0.29803923" fill-rule="evenodd" stroke="none"/>
      <path d="M19.05 19.0 L25.7 19.0 40.15 48.8 40.15 48.95 16.45 25.25 Q18.75 22.95 19.05 19.85 L19.05 19.0 M3.4 18.2 L1.35 17.9 Q1.7 14.95 3.85 12.65 6.15 10.45 9.2 10.15 L9.4 12.5 Q7.1 12.65 5.3 14.35 3.65 16.0 3.4 18.2" fill="#000000" fill-opacity="0.2" fill-rule="evenodd" stroke="none"/>
      <path d="M40.15 48.95 L40.1 48.95 10.15 34.55 10.15 27.85 Q13.85 27.85 16.45 25.25 L40.15 48.95 M3.9 25.3 L3.85 25.25 Q1.3 22.7 1.3 19.0 L-3.3 19.0 -5.35 19.0 -19.8 -10.85 -19.8 -10.9 -19.75 -10.9 3.85 12.65 Q1.7 14.95 1.35 17.9 L3.4 18.2 3.35 19.1 Q3.35 21.8 5.3 23.75 7.0 25.45 9.2 25.7 L8.95 27.8 Q6.25 27.4 3.9 25.3" fill="#ffffff" fill-opacity="0.2" fill-rule="evenodd" stroke="none"/>
      <path d="M16.5 12.7 L40.1 -10.9 40.15 -11.0 40.15 -10.9 25.7 18.95 25.7 19.0 19.05 19.0 Q19.05 15.4 16.5 12.7 M10.15 34.55 L10.15 34.6 -19.7 48.95 -19.8 48.95 3.9 25.3 Q6.25 27.4 8.95 27.8 L10.15 27.85 10.15 34.55 M-19.75 -10.9 L10.15 3.4 10.15 3.45 10.15 10.1 9.2 10.15 Q6.15 10.45 3.85 12.65 L-19.75 -10.9" fill="#000000" fill-opacity="0.34509805" fill-rule="evenodd" stroke="none"/>
      <path d="M3.9 10.8 Q6.5 8.85 9.85 8.8 L9.85 10.2 Q6.75 10.25 4.35 12.2 L3.95 12.8 3.8 12.65 3.7 12.75 Q1.1 15.4 1.1 19.1 1.1 22.15 3.0 24.5 L3.05 24.45 4.05 25.05 3.75 25.35 Q6.4 27.95 9.85 28.0 L9.85 29.4 Q5.8 29.35 2.75 26.35 L-17.75 46.9 -18.85 46.55 2.0 25.55 Q-0.3 22.75 -0.3 19.1 -0.3 14.85 2.7 11.75 L2.85 11.65 -17.95 -9.5 -16.7 -9.5 3.9 10.8" fill="#ffffff" fill-opacity="0.29803923" fill-rule="evenodd" stroke="none"/>
      <path d="M38.65 -9.5 L17.85 11.65 18.0 11.75 Q21.0 14.85 21.0 19.1 21.0 22.75 18.7 25.55 L39.55 46.55 38.45 46.9 17.95 26.35 Q14.9 29.35 10.85 29.4 L10.85 28.0 Q14.3 27.95 16.95 25.35 L16.65 25.05 17.65 24.45 17.7 24.5 Q19.6 22.15 19.6 19.1 19.6 15.4 17.0 12.75 L16.9 12.65 16.75 12.8 16.35 12.2 Q13.95 10.25 10.85 10.2 L10.85 8.8 Q14.2 8.85 16.8 10.8 L37.4 -9.5 38.65 -9.5" fill="#ffffff" fill-opacity="0.29803923" fill-rule="evenodd" stroke="none"/>
    </g>
  </defs>
</svg>
