<?xml version="1.0" encoding="UTF-8" standalone="no"?>
<svg xmlns:ffdec="https://www.free-decompiler.com/flash" xmlns:xlink="http://www.w3.org/1999/xlink" ffdec:objectType="frame" height="87.3px" width="125.45px" xmlns="http://www.w3.org/2000/svg">
  <g transform="matrix(1.0, 0.0, 0.0, 1.0, 51.5, 35.6)">
    <filter id="filter0">
      <feColorMatrix in="SourceGraphic" result="filterResult0" type="matrix" values="0 0 0 0 1.0,0 0 0 0 0.4,0 0 0 0 0.0,0 0 0 1 0"/>
      <feConvolveMatrix divisor="16.0" in="filterResult0" kernelMatrix="1 1 1 1 1 1 1 1 1 1 1 1 1 1 1 1" order="4 4" result="filterResult1"/>
      <feComposite in="SourceGraphic" in2="filterResult1" operator="over" result="filterResult2"/>
    </filter>
    <use ffdec:characterId="2" filter="url(#filter0)" height="87.1" transform="matrix(1.0, 0.0, 0.0, 1.0, -51.5, -35.6)" width="123.65" xlink:href="#sprite0"/>
    <filter id="filter1">
      <feColorMatrix in="SourceGraphic" result="filterResult3" type="matrix" values="0 0 0 0 1.0,0 0 0 0 1.0,0 0 0 0 0.4,0 0 0 1 0"/>
      <feConvolveMatrix divisor="64.0" in="filterResult3" kernelMatrix="1 1 1 1 1 1 1 1 1 1 1 1 1 1 1 1 1 1 1 1 1 1 1 1 1 1 1 1 1 1 1 1 1 1 1 1 1 1 1 1 1 1 1 1 1 1 1 1 1 1 1 1 1 1 1 1 1 1 1 1 1 1 1 1" order="8 8" result="filterResult4"/>
      <feConvolveMatrix divisor="64.0" in="filterResult4" kernelMatrix="1 1 1 1 1 1 1 1 1 1 1 1 1 1 1 1 1 1 1 1 1 1 1 1 1 1 1 1 1 1 1 1 1 1 1 1 1 1 1 1 1 1 1 1 1 1 1 1 1 1 1 1 1 1 1 1 1 1 1 1 1 1 1 1" order="8 8" result="filterResult5"/>
      <feComposite in="SourceGraphic" in2="filterResult5" operator="over" result="filterResult6"/>
    </filter>
    <use ffdec:characterId="4" filter="url(#filter1)" height="87.1" transform="matrix(1.0, 0.0, 0.0, 1.0, -51.5, -35.6)" width="123.65" xlink:href="#sprite1"/>
    <use ffdec:characterId="5" height="68.55" transform="matrix(1.0, 0.0, 0.0, 1.0, -41.85, -16.85)" width="115.8" xlink:href="#shape2"/>
  </g>
  <defs>
    <g id="sprite0" transform="matrix(1.0, 0.0, 0.0, 1.0, 0.0, 0.0)">
      <use ffdec:characterId="1" height="87.1" transform="matrix(1.0, 0.0, 0.0, 1.0, 0.0, 0.0)" width="123.65" xlink:href="#shape0"/>
    </g>
    <g id="shape0" transform="matrix(1.0, 0.0, 0.0, 1.0, 0.0, 0.0)">
      <path d="M122.8 23.3 L122.65 23.4 118.25 25.1 116.9 25.6 Q115.9 25.95 115.2 26.4 114.3 26.55 114.15 27.05 113.95 27.5 113.65 30.3 113.65 33.25 113.3 34.25 112.95 35.25 112.45 35.15 L111.8 34.9 111.35 34.6 111.3 34.5 111.2 34.4 110.35 33.45 106.85 29.05 104.2 29.3 100.6 29.55 98.75 29.6 Q98.15 29.5 98.1 28.55 L98.2 28.1 Q98.4 27.4 101.3 24.0 L101.8 23.4 103.4 21.7 100.5 17.45 Q98.55 14.95 98.9 14.15 L99.1 13.95 Q106.55 15.65 107.25 16.05 107.9 16.4 110.65 12.55 113.35 8.65 113.9 11.35 L114.8 16.85 115.15 19.45 Q115.05 19.65 119.05 20.5 123.0 21.35 123.5 22.2 123.95 22.95 122.8 23.3 M104.4 4.55 Q103.8 5.4 104.25 5.8 L105.15 6.85 106.2 8.1 Q106.55 8.45 106.45 8.75 L106.25 9.1 Q105.95 9.3 104.9 9.1 L103.55 8.95 102.7 8.65 101.8 8.8 100.8 10.15 99.8 11.55 99.25 11.75 99.0 11.6 99.1 11.35 99.0 11.3 98.9 11.1 98.8 10.1 98.8 8.5 Q98.65 7.65 97.75 7.35 96.95 7.2 96.1 6.7 L95.2 6.15 Q94.9 6.1 95.15 5.7 L95.3 5.45 97.15 4.95 Q98.6 4.6 98.85 4.3 L98.9 3.25 Q98.6 0.2 99.05 0.1 99.1 -0.05 99.35 0.1 L99.6 0.15 99.7 0.25 100.75 1.5 101.6 2.95 Q101.65 3.2 103.85 2.15 105.95 1.1 105.45 2.35 L104.4 4.55 M85.95 22.3 L85.65 19.95 85.55 19.65 85.95 19.35 86.4 19.55 88.1 21.2 Q89.4 22.45 89.85 22.55 90.45 22.25 91.0 21.9 94.0 19.7 94.4 20.0 L94.55 20.35 94.65 20.65 94.65 20.8 94.0 22.75 93.65 23.4 93.0 24.55 Q92.8 24.75 95.3 26.4 97.7 27.95 96.1 28.2 L93.15 28.5 Q91.85 28.4 91.7 29.1 91.4 29.8 91.2 30.8 L90.6 32.65 90.05 33.3 89.55 33.35 Q89.15 33.15 88.7 31.95 L88.0 30.4 87.75 29.35 Q87.55 28.6 87.05 28.5 L85.0 28.3 82.9 28.1 82.7 28.05 82.65 27.8 82.95 27.25 83.2 27.05 84.6 26.0 85.6 25.1 Q86.05 24.65 86.05 23.4 L85.95 22.3 M100.3 13.65 L101.45 13.6 100.3 13.7 100.3 13.65 M95.0 33.4 L96.5 36.4 Q97.0 37.85 97.85 37.75 L99.95 37.5 102.0 37.25 103.05 37.45 103.25 38.05 Q103.3 38.5 102.2 39.6 L100.9 41.0 99.9 41.75 Q99.15 42.35 99.3 42.9 L100.05 45.1 100.7 47.4 100.55 48.2 Q100.35 48.3 100.3 48.35 L100.0 48.2 99.75 48.15 99.65 48.15 98.45 47.4 96.55 46.2 94.4 46.3 92.25 47.7 Q91.05 48.15 90.85 48.3 90.6 48.5 90.25 48.0 L90.15 47.7 91.2 45.05 Q91.85 43.15 91.45 42.4 L90.45 41.75 Q86.9 39.55 86.85 39.0 86.85 38.7 87.2 38.65 87.35 38.4 87.5 38.45 L87.6 38.4 87.7 38.35 90.15 38.2 92.35 38.35 Q92.7 38.45 93.3 35.15 93.95 31.85 95.0 33.4 M112.6 46.85 L112.9 49.25 113.3 52.75 113.4 53.6 113.45 53.55 113.65 53.9 Q113.75 54.2 118.25 54.95 122.75 55.65 120.45 57.55 118.1 59.45 116.2 60.35 L114.9 60.7 115.2 62.45 115.6 65.8 Q115.85 67.75 115.7 68.9 115.55 70.0 114.65 69.15 114.0 68.85 110.95 66.1 L109.95 65.2 108.5 64.1 107.55 63.4 Q106.65 63.5 104.3 64.4 101.85 65.5 100.9 65.5 99.95 65.6 99.7 65.1 L99.65 64.6 99.55 64.25 99.55 64.2 99.6 64.0 100.05 62.85 102.35 58.2 100.85 56.1 98.95 53.3 98.1 51.8 Q97.9 51.25 98.7 50.8 L99.1 50.7 104.15 51.65 Q106.55 52.2 107.15 52.5 L109.45 48.4 Q110.85 45.8 111.65 45.7 L112.3 46.15 112.6 46.85 M90.75 68.0 Q90.55 69.4 91.0 69.7 L92.4 70.35 94.55 71.15 Q95.7 71.55 95.85 71.9 L95.8 72.5 Q95.6 72.8 94.2 73.2 L92.5 73.65 91.35 73.85 Q90.45 73.95 90.3 74.45 L90.0 76.55 89.6 78.7 89.1 79.25 88.8 79.25 88.6 79.0 88.4 78.85 88.35 78.8 87.6 77.65 86.55 75.8 85.8 74.7 83.45 74.8 80.85 74.9 80.25 74.65 80.5 74.05 82.5 72.45 84.15 70.85 83.35 69.5 Q81.25 66.15 81.5 65.7 81.6 65.45 81.9 65.55 L82.25 65.55 82.35 65.55 82.45 65.55 84.95 67.2 Q86.5 68.15 86.85 68.1 L88.95 65.7 Q90.75 63.35 90.85 64.95 L90.75 68.0 M98.25 77.2 Q97.1 74.75 98.55 75.3 99.85 75.8 100.95 76.55 101.95 77.2 102.45 76.75 L103.7 75.6 104.9 74.45 Q105.4 74.05 105.7 74.05 L106.1 74.35 Q106.35 74.65 106.2 75.85 L106.0 77.4 105.7 78.35 Q105.5 79.1 105.85 79.4 L107.4 80.5 Q108.55 81.3 108.9 81.7 L109.15 82.25 109.1 82.45 108.8 82.5 Q108.55 82.6 108.65 82.6 L108.55 82.65 107.45 82.75 105.6 82.85 Q104.55 82.95 104.25 83.95 L103.55 85.85 102.9 86.9 102.35 87.0 102.2 86.85 101.6 84.65 Q101.1 83.1 100.5 82.85 L99.55 82.85 95.9 82.75 Q95.75 82.55 96.0 82.4 L96.1 82.1 96.1 82.05 96.15 81.95 97.65 80.7 Q98.9 79.85 99.2 79.75 99.45 79.65 98.25 77.2 M41.95 48.25 L43.2 49.15 44.5 50.05 44.95 50.7 44.8 51.15 Q44.6 51.4 43.45 51.45 L42.05 51.55 41.15 51.5 Q40.45 51.45 40.25 51.85 L39.55 53.45 38.85 55.05 Q38.55 55.45 38.35 55.35 L38.1 55.35 38.05 55.05 37.95 55.0 37.85 54.9 37.55 53.9 37.15 52.3 Q36.85 51.4 35.85 51.3 L34.05 51.0 32.95 50.7 Q32.7 50.7 32.8 50.25 L32.9 50.0 34.7 49.1 36.25 48.05 36.0 46.9 Q35.05 43.95 35.35 43.65 L35.7 43.6 35.95 43.65 36.0 43.65 36.1 43.7 37.5 44.75 38.65 45.95 Q38.8 46.2 40.75 44.65 42.65 43.15 42.5 44.5 L41.9 46.9 Q41.45 47.95 41.95 48.25 M26.2 11.75 L28.2 12.4 32.0 13.35 Q33.8 13.6 34.25 14.45 34.7 15.2 33.6 15.55 33.0 16.0 29.2 17.35 L27.9 17.85 Q26.95 18.2 26.3 18.65 25.35 18.9 25.25 19.1 25.0 20.0 24.8 22.55 L24.8 23.4 24.45 26.25 Q24.1 27.15 23.5 27.1 L23.0 26.95 22.85 26.9 Q21.9 26.1 21.9 25.65 L20.2 23.4 18.25 21.3 15.7 21.55 12.25 21.8 10.5 21.85 Q9.9 21.75 9.85 20.8 L9.95 20.35 12.5 17.35 14.95 13.95 12.15 9.7 Q10.3 7.2 10.6 6.4 10.8 6.05 11.15 6.05 L15.6 7.65 18.85 8.75 Q19.75 8.9 22.45 5.0 25.15 1.1 25.3 3.6 25.55 7.1 25.9 9.5 L26.2 11.75 M20.2 28.85 L20.55 28.8 23.1 30.05 25.45 30.85 26.45 29.55 Q28.9 26.2 29.45 26.2 L29.8 26.55 29.95 26.85 30.0 26.95 30.05 27.1 30.0 29.5 29.7 31.7 Q29.55 32.05 32.8 32.9 36.0 33.8 34.4 34.7 L31.3 36.0 Q29.8 36.35 29.85 37.2 L29.95 39.3 30.0 41.35 29.75 42.45 29.1 42.6 Q28.65 42.6 27.65 41.4 L26.4 40.0 25.7 38.95 Q25.15 38.15 24.6 38.25 L22.35 38.8 20.0 39.3 19.2 39.1 19.05 38.8 19.25 38.55 19.3 38.3 19.3 38.2 20.15 37.05 21.75 35.2 Q22.75 34.15 22.1 33.15 L20.75 30.9 19.85 29.45 Q19.7 29.15 20.2 28.85 M9.85 48.4 L10.25 48.7 Q10.5 49.0 10.35 50.2 L10.15 51.75 9.85 52.7 Q9.65 53.45 10.0 53.75 L11.55 54.85 13.05 56.05 13.3 56.6 13.25 56.8 12.95 56.85 Q12.7 56.95 12.8 56.95 L12.7 57.0 11.6 57.1 11.55 57.1 9.75 57.2 Q8.7 57.3 8.4 58.3 L7.7 60.2 7.05 61.25 6.5 61.35 6.35 61.2 5.75 59.0 Q5.25 57.45 4.65 57.2 L3.7 57.2 0.05 57.1 Q-0.1 56.9 0.15 56.75 L0.25 56.45 0.25 56.4 0.3 56.3 1.8 55.05 Q3.05 54.2 3.35 54.1 3.6 54.0 2.4 51.55 1.25 49.1 2.7 49.65 4.0 50.15 5.1 50.9 6.1 51.55 6.6 51.1 L7.85 49.95 9.05 48.8 9.85 48.4 M22.65 26.8 L22.75 26.9 22.6 26.85 22.65 26.8 M27.85 55.15 Q28.45 55.2 28.2 55.95 L27.4 58.95 27.15 59.8 26.9 60.95 26.75 61.7 28.4 63.3 30.15 64.95 Q30.5 65.45 30.25 65.75 L29.95 65.95 29.75 66.1 29.7 66.1 29.6 66.15 28.75 66.2 25.1 66.2 24.25 67.65 23.05 69.55 22.35 70.45 21.55 70.4 21.35 70.2 Q21.1 69.8 20.4 67.0 L20.0 65.05 16.7 64.85 Q14.65 64.8 14.35 64.35 14.2 64.05 14.4 63.85 L14.55 63.5 14.65 63.45 14.7 63.4 15.75 62.45 18.25 60.9 Q18.7 60.55 17.8 57.6 16.9 54.65 18.9 55.7 21.0 56.7 22.15 57.55 L23.25 58.2 24.4 57.1 26.4 55.6 Q27.25 55.05 27.85 55.15 M38.15 67.65 L38.7 68.2 39.05 68.5 40.5 68.15 41.95 67.75 42.45 67.95 42.45 68.2 42.45 68.35 42.45 68.4 42.45 68.45 42.05 69.55 40.95 70.95 41.45 71.95 42.0 73.45 42.25 74.1 42.05 74.3 41.85 74.35 39.25 73.5 38.7 73.15 37.9 74.8 36.3 76.15 36.05 75.95 35.95 75.75 35.9 75.7 35.9 75.65 35.75 74.75 35.75 72.85 Q35.7 72.5 33.85 72.05 31.95 71.5 33.5 70.95 L35.55 70.05 Q36.0 69.75 35.9 69.3 35.8 68.9 35.85 68.0 L35.75 66.6 Q35.6 66.0 35.85 65.7 36.1 65.4 36.4 65.8 L37.8 67.25 38.15 67.65 M36.85 78.3 Q38.0 78.65 38.45 79.1 38.95 79.55 39.1 79.2 39.2 78.8 39.55 78.55 L40.65 77.7 Q41.05 77.35 41.35 77.35 41.7 77.35 41.6 77.75 L41.4 79.35 41.35 79.75 41.25 80.4 41.25 80.75 42.25 81.45 43.2 82.15 43.3 82.55 43.15 82.7 43.05 82.75 43.05 82.8 43.0 82.8 42.1 83.15 40.7 83.2 40.3 84.0 39.65 85.15 39.35 85.6 39.15 85.6 39.0 85.5 38.25 83.45 38.15 82.95 36.75 83.3 35.1 83.05 35.05 82.8 35.15 82.55 35.2 82.5 35.65 81.95 36.85 81.0 Q37.05 80.75 36.45 79.35 35.75 77.95 36.85 78.3" fill="#ffffff" fill-opacity="0.5882353" fill-rule="evenodd" stroke="none"/>
    </g>
    <g id="sprite1" transform="matrix(1.0, 0.0, 0.0, 1.0, 0.0, 0.0)">
      <use ffdec:characterId="3" height="87.1" transform="matrix(1.0, 0.0, 0.0, 1.0, 0.0, 0.0)" width="123.65" xlink:href="#shape1"/>
    </g>
    <g id="shape1" transform="matrix(1.0, 0.0, 0.0, 1.0, 0.0, 0.0)">
      <path d="M104.4 4.55 Q103.8 5.4 104.25 5.8 L105.15 6.85 106.2 8.1 Q106.55 8.45 106.45 8.75 L106.25 9.1 Q105.95 9.3 104.9 9.1 L103.55 8.95 102.7 8.65 101.8 8.8 100.8 10.15 99.8 11.55 99.25 11.75 99.0 11.6 99.1 11.35 99.0 11.3 98.9 11.1 98.8 10.1 98.8 8.5 Q98.65 7.65 97.75 7.35 96.95 7.2 96.1 6.7 L95.2 6.15 Q94.9 6.1 95.15 5.7 L95.3 5.45 97.15 4.95 Q98.6 4.6 98.85 4.3 L98.9 3.25 Q98.6 0.2 99.05 0.1 99.1 -0.05 99.35 0.1 L99.6 0.15 99.7 0.25 100.75 1.5 101.6 2.95 Q101.65 3.2 103.85 2.15 105.95 1.1 105.45 2.35 L104.4 4.55" fill="url(#gradient0)" fill-rule="evenodd" stroke="none"/>
      <path d="M85.95 22.3 L85.65 19.95 85.55 19.65 85.95 19.35 86.4 19.55 88.1 21.2 Q89.4 22.45 89.85 22.55 90.45 22.25 91.0 21.9 94.0 19.7 94.4 20.0 L94.55 20.35 94.65 20.65 94.65 20.8 94.0 22.75 93.65 23.4 93.0 24.55 Q92.8 24.75 95.3 26.4 97.7 27.95 96.1 28.2 L93.15 28.5 Q91.85 28.4 91.7 29.1 91.4 29.8 91.2 30.8 L90.6 32.65 90.05 33.3 89.55 33.35 Q89.15 33.15 88.7 31.95 L88.0 30.4 87.75 29.35 Q87.55 28.6 87.05 28.5 L85.0 28.3 82.9 28.1 82.7 28.05 82.65 27.8 82.95 27.25 83.2 27.05 84.6 26.0 85.6 25.1 Q86.05 24.65 86.05 23.4 L85.95 22.3" fill="url(#gradient1)" fill-rule="evenodd" stroke="none"/>
      <path d="M100.3 13.65 L101.45 13.6 100.3 13.7 100.3 13.65" fill="url(#gradient2)" fill-rule="evenodd" stroke="none"/>
      <path d="M112.6 46.85 L112.9 49.25 113.3 52.75 113.4 53.6 113.45 53.55 113.65 53.9 Q113.75 54.2 118.25 54.95 122.75 55.65 120.45 57.55 118.1 59.45 116.2 60.35 L114.9 60.7 115.2 62.45 115.6 65.8 Q115.85 67.75 115.7 68.9 115.55 70.0 114.65 69.15 114.0 68.85 110.95 66.1 L109.95 65.2 108.5 64.1 107.55 63.4 Q106.65 63.5 104.3 64.4 101.85 65.5 100.9 65.5 99.95 65.6 99.7 65.1 L99.65 64.6 99.55 64.25 99.55 64.2 99.6 64.0 100.05 62.85 102.35 58.2 100.85 56.1 98.95 53.3 98.1 51.8 Q97.9 51.25 98.7 50.8 L99.1 50.7 104.15 51.65 Q106.55 52.2 107.15 52.5 L109.45 48.4 Q110.85 45.8 111.65 45.7 L112.3 46.15 112.6 46.85" fill="url(#gradient3)" fill-rule="evenodd" stroke="none"/>
      <path d="M90.75 68.0 Q90.55 69.4 91.0 69.7 L92.4 70.35 94.55 71.15 Q95.7 71.55 95.85 71.9 L95.8 72.5 Q95.6 72.8 94.2 73.2 L92.5 73.65 91.35 73.85 Q90.45 73.95 90.3 74.45 L90.0 76.55 89.6 78.7 89.1 79.25 88.8 79.25 88.6 79.0 88.4 78.85 88.35 78.8 87.6 77.65 86.55 75.8 85.8 74.7 83.45 74.8 80.85 74.9 80.25 74.65 80.5 74.05 82.5 72.45 84.15 70.85 83.35 69.5 Q81.25 66.15 81.5 65.7 81.6 65.45 81.9 65.55 L82.25 65.55 82.35 65.55 82.45 65.55 84.95 67.2 Q86.5 68.15 86.85 68.1 L88.95 65.7 Q90.75 63.35 90.85 64.95 L90.75 68.0" fill="url(#gradient4)" fill-rule="evenodd" stroke="none"/>
      <path d="M41.95 48.25 L43.2 49.15 44.5 50.05 44.95 50.7 44.8 51.15 Q44.6 51.4 43.45 51.45 L42.05 51.55 41.15 51.5 Q40.45 51.45 40.25 51.85 L39.55 53.45 38.85 55.05 Q38.55 55.45 38.35 55.35 L38.1 55.35 38.05 55.05 37.95 55.0 37.85 54.9 37.55 53.9 37.15 52.3 Q36.85 51.4 35.85 51.3 L34.05 51.0 32.95 50.7 Q32.7 50.7 32.8 50.25 L32.9 50.0 34.7 49.1 36.25 48.05 36.0 46.9 Q35.05 43.95 35.35 43.65 L35.7 43.6 35.95 43.65 36.0 43.65 36.1 43.7 37.5 44.75 38.65 45.95 Q38.8 46.2 40.75 44.65 42.65 43.15 42.5 44.5 L41.9 46.9 Q41.45 47.95 41.95 48.25" fill="url(#gradient5)" fill-rule="evenodd" stroke="none"/>
      <path d="M26.2 11.75 L28.2 12.4 32.0 13.35 Q33.8 13.6 34.25 14.45 34.7 15.2 33.6 15.55 33.0 16.0 29.2 17.35 L27.9 17.85 Q26.95 18.2 26.3 18.65 25.35 18.9 25.25 19.1 25.0 20.0 24.8 22.55 L24.8 23.4 24.45 26.25 Q24.1 27.15 23.5 27.1 L23.0 26.95 22.85 26.9 Q21.9 26.1 21.9 25.65 L20.2 23.4 18.25 21.3 15.7 21.55 12.25 21.8 10.5 21.85 Q9.9 21.75 9.85 20.8 L9.95 20.35 12.5 17.35 14.95 13.95 12.15 9.7 Q10.3 7.2 10.6 6.4 10.8 6.05 11.15 6.05 L15.6 7.65 18.85 8.75 Q19.75 8.9 22.45 5.0 25.15 1.1 25.3 3.6 25.55 7.1 25.9 9.5 L26.2 11.75" fill="url(#gradient6)" fill-rule="evenodd" stroke="none"/>
      <path d="M22.75 26.9 L22.6 26.85 22.65 26.8 22.75 26.9" fill="url(#gradient7)" fill-rule="evenodd" stroke="none"/>
      <path d="M27.85 55.15 Q28.45 55.2 28.2 55.95 L27.4 58.95 27.15 59.8 26.9 60.95 26.75 61.7 28.4 63.3 30.15 64.95 Q30.5 65.45 30.25 65.75 L29.95 65.95 29.75 66.1 29.7 66.1 29.6 66.15 28.75 66.2 25.1 66.2 24.25 67.65 23.05 69.55 22.35 70.45 21.55 70.4 21.35 70.2 Q21.1 69.8 20.4 67.0 L20.0 65.05 16.7 64.85 Q14.65 64.8 14.35 64.35 14.2 64.05 14.4 63.85 L14.55 63.5 14.65 63.45 14.7 63.4 15.75 62.45 18.25 60.9 Q18.7 60.55 17.8 57.6 16.9 54.65 18.9 55.7 21.0 56.7 22.15 57.55 L23.25 58.2 24.4 57.1 26.4 55.6 Q27.25 55.05 27.85 55.15" fill="url(#gradient8)" fill-rule="evenodd" stroke="none"/>
      <path d="M36.85 78.3 Q38.0 78.65 38.45 79.1 38.95 79.55 39.1 79.2 39.2 78.8 39.55 78.55 L40.65 77.7 Q41.05 77.35 41.35 77.35 41.7 77.35 41.6 77.75 L41.4 79.35 41.35 79.75 41.25 80.4 41.25 80.75 42.25 81.45 43.2 82.15 43.3 82.55 43.15 82.7 43.05 82.75 43.05 82.8 43.0 82.8 42.1 83.15 40.7 83.2 40.3 84.0 39.65 85.15 39.35 85.6 39.15 85.6 39.0 85.5 38.25 83.45 38.15 82.95 36.75 83.3 35.1 83.05 35.05 82.8 35.15 82.55 35.2 82.5 35.65 81.95 36.85 81.0 Q37.05 80.75 36.45 79.35 35.75 77.95 36.85 78.3" fill="url(#gradient9)" fill-rule="evenodd" stroke="none"/>
      <path d="M122.8 23.3 L122.65 23.4 118.25 25.1 116.9 25.6 Q115.9 25.95 115.2 26.4 114.3 26.55 114.15 27.05 113.95 27.5 113.65 30.3 113.65 33.25 113.3 34.25 112.95 35.25 112.45 35.15 L111.8 34.9 111.35 34.6 111.3 34.5 111.2 34.4 110.35 33.45 106.85 29.05 104.2 29.3 100.6 29.55 98.75 29.6 Q98.15 29.5 98.1 28.55 L98.2 28.1 Q98.4 27.4 101.3 24.0 L101.8 23.4 103.4 21.7 100.5 17.45 Q98.55 14.95 98.9 14.15 L99.1 13.95 Q106.55 15.65 107.25 16.05 107.9 16.4 110.65 12.55 113.35 8.65 113.9 11.35 L114.8 16.85 115.15 19.45 Q115.05 19.65 119.05 20.5 123.0 21.35 123.5 22.2 123.95 22.95 122.8 23.3" fill="url(#gradient10)" fill-rule="evenodd" stroke="none"/>
      <path d="M95.0 33.4 L96.5 36.4 Q97.0 37.85 97.85 37.75 L99.95 37.5 102.0 37.25 103.05 37.45 103.25 38.05 Q103.3 38.5 102.2 39.6 L100.9 41.0 99.9 41.75 Q99.15 42.35 99.3 42.9 L100.05 45.1 100.7 47.4 100.55 48.2 Q100.35 48.3 100.3 48.35 L100.0 48.2 99.75 48.15 99.65 48.15 98.45 47.4 96.55 46.2 94.4 46.3 92.25 47.7 Q91.05 48.15 90.85 48.3 90.6 48.5 90.25 48.0 L90.15 47.7 91.2 45.05 Q91.85 43.15 91.45 42.4 L90.45 41.75 Q86.9 39.55 86.85 39.0 86.85 38.7 87.2 38.65 87.35 38.4 87.5 38.45 L87.6 38.4 87.7 38.35 90.15 38.2 92.35 38.35 Q92.7 38.45 93.3 35.15 93.95 31.85 95.0 33.4" fill="url(#gradient11)" fill-rule="evenodd" stroke="none"/>
      <path d="M98.25 77.2 Q97.1 74.75 98.55 75.3 99.85 75.8 100.95 76.55 101.95 77.2 102.45 76.75 L103.7 75.6 104.9 74.45 Q105.4 74.05 105.7 74.05 L106.1 74.35 Q106.35 74.65 106.2 75.85 L106.0 77.4 105.7 78.35 Q105.5 79.1 105.85 79.4 L107.4 80.5 Q108.55 81.3 108.9 81.7 L109.15 82.25 109.1 82.45 108.8 82.5 Q108.55 82.6 108.65 82.6 L108.55 82.65 107.45 82.75 105.6 82.85 Q104.55 82.95 104.25 83.95 L103.55 85.85 102.9 86.9 102.35 87.0 102.2 86.85 101.6 84.65 Q101.1 83.1 100.5 82.85 L99.55 82.85 95.9 82.75 Q95.75 82.55 96.0 82.4 L96.1 82.1 96.1 82.05 96.15 81.95 97.65 80.7 Q98.9 79.85 99.2 79.75 99.45 79.65 98.25 77.2" fill="url(#gradient12)" fill-rule="evenodd" stroke="none"/>
      <path d="M20.2 28.85 L20.55 28.8 23.1 30.05 25.45 30.85 26.45 29.55 Q28.9 26.2 29.45 26.2 L29.8 26.55 29.95 26.85 30.0 26.95 30.05 27.1 30.0 29.5 29.7 31.7 Q29.55 32.05 32.8 32.9 36.0 33.8 34.4 34.7 L31.3 36.0 Q29.8 36.35 29.85 37.2 L29.95 39.3 30.0 41.35 29.75 42.45 29.1 42.6 Q28.65 42.6 27.65 41.4 L26.4 40.0 25.7 38.95 Q25.15 38.15 24.6 38.25 L22.35 38.8 20.0 39.3 19.2 39.1 19.05 38.8 19.25 38.55 19.3 38.3 19.3 38.2 20.15 37.05 21.75 35.2 Q22.75 34.15 22.1 33.15 L20.75 30.9 19.85 29.45 Q19.7 29.15 20.2 28.85" fill="url(#gradient13)" fill-rule="evenodd" stroke="none"/>
      <path d="M9.85 48.4 L10.25 48.7 Q10.5 49.0 10.35 50.2 L10.15 51.75 9.85 52.7 Q9.65 53.45 10.0 53.75 L11.55 54.85 13.05 56.05 13.3 56.6 13.25 56.8 12.95 56.85 Q12.7 56.95 12.8 56.95 L12.7 57.0 11.6 57.1 11.55 57.1 9.75 57.2 Q8.7 57.3 8.4 58.3 L7.7 60.2 7.05 61.25 6.5 61.35 6.35 61.2 5.75 59.0 Q5.25 57.45 4.65 57.2 L3.7 57.2 0.05 57.1 Q-0.1 56.9 0.15 56.75 L0.25 56.45 0.25 56.4 0.3 56.3 1.8 55.05 Q3.05 54.2 3.35 54.1 3.6 54.0 2.4 51.55 1.25 49.1 2.7 49.65 4.0 50.15 5.1 50.9 6.1 51.55 6.6 51.1 L7.85 49.95 9.05 48.8 9.85 48.4" fill="url(#gradient14)" fill-rule="evenodd" stroke="none"/>
      <path d="M35.75 66.6 Q35.6 66.0 35.85 65.7 36.1 65.4 36.4 65.8 L37.8 67.25 38.15 67.65 38.7 68.2 39.05 68.5 40.5 68.15 41.95 67.75 42.45 67.95 42.45 68.2 42.45 68.35 42.45 68.4 42.45 68.45 42.05 69.55 40.95 70.95 41.45 71.95 42.0 73.45 42.25 74.1 42.05 74.3 41.85 74.35 39.25 73.5 38.7 73.15 37.9 74.8 36.3 76.15 36.05 75.95 35.95 75.75 35.9 75.7 35.9 75.65 35.75 74.75 35.75 72.85 Q35.7 72.5 33.85 72.05 31.95 71.5 33.5 70.95 L35.55 70.05 Q36.0 69.75 35.9 69.3 35.8 68.9 35.85 68.0 L35.75 66.6" fill="url(#gradient15)" fill-rule="evenodd" stroke="none"/>
    </g>
    <radialGradient cx="0" cy="0" gradientTransform="matrix(0.0083, 0.0, 0.0, 0.0083, 100.75, 5.9)" gradientUnits="userSpaceOnUse" id="gradient0" r="819.2" spreadMethod="pad">
      <stop offset="0.0" stop-color="#ff9b00" stop-opacity="0.7411765"/>
      <stop offset="0.38823529411764707" stop-color="#fffd5f" stop-opacity="0.34117648"/>
      <stop offset="0.5882352941176471" stop-color="#fff75c" stop-opacity="0.47058824"/>
      <stop offset="1.0" stop-color="#ffa800" stop-opacity="0.52156866"/>
    </radialGradient>
    <radialGradient cx="0" cy="0" gradientTransform="matrix(0.01, 0.0, 0.0, 0.01, 89.7, 26.4)" gradientUnits="userSpaceOnUse" id="gradient1" r="819.2" spreadMethod="pad">
      <stop offset="0.0" stop-color="#ff9b00" stop-opacity="0.7411765"/>
      <stop offset="0.38823529411764707" stop-color="#fffd5f" stop-opacity="0.34117648"/>
      <stop offset="0.5882352941176471" stop-color="#fff75c" stop-opacity="0.47058824"/>
      <stop offset="1.0" stop-color="#ffa800" stop-opacity="0.52156866"/>
    </radialGradient>
    <radialGradient cx="0" cy="0" gradientTransform="matrix(9.0E-4, 0.0, 0.0, 9.0E-4, 101.05, 13.65)" gradientUnits="userSpaceOnUse" id="gradient2" r="819.2" spreadMethod="pad">
      <stop offset="0.0" stop-color="#ff9b00" stop-opacity="0.7411765"/>
      <stop offset="0.38823529411764707" stop-color="#fffd5f" stop-opacity="0.34117648"/>
      <stop offset="0.5882352941176471" stop-color="#fff75c" stop-opacity="0.47058824"/>
      <stop offset="1.0" stop-color="#ffa800" stop-opacity="0.52156866"/>
    </radialGradient>
    <radialGradient cx="0" cy="0" gradientTransform="matrix(0.0167, 0.0, 0.0, 0.0167, 109.65, 57.6)" gradientUnits="userSpaceOnUse" id="gradient3" r="819.2" spreadMethod="pad">
      <stop offset="0.0" stop-color="#ff9b00" stop-opacity="0.7411765"/>
      <stop offset="0.38823529411764707" stop-color="#fffd5f" stop-opacity="0.34117648"/>
      <stop offset="0.5882352941176471" stop-color="#fff75c" stop-opacity="0.47058824"/>
      <stop offset="1.0" stop-color="#ffa800" stop-opacity="0.52156866"/>
    </radialGradient>
    <radialGradient cx="0" cy="0" gradientTransform="matrix(0.0115, 0.0, 0.0, 0.0115, 88.05, 71.75)" gradientUnits="userSpaceOnUse" id="gradient4" r="819.2" spreadMethod="pad">
      <stop offset="0.0" stop-color="#ff9b00" stop-opacity="0.7411765"/>
      <stop offset="0.38823529411764707" stop-color="#fffd5f" stop-opacity="0.34117648"/>
      <stop offset="0.5882352941176471" stop-color="#fff75c" stop-opacity="0.47058824"/>
      <stop offset="1.0" stop-color="#ffa800" stop-opacity="0.52156866"/>
    </radialGradient>
    <radialGradient cx="0" cy="0" gradientTransform="matrix(0.0085, 0.0, 0.0, 0.0085, 38.9, 49.45)" gradientUnits="userSpaceOnUse" id="gradient5" r="819.2" spreadMethod="pad">
      <stop offset="0.0" stop-color="#ff9b00" stop-opacity="0.7411765"/>
      <stop offset="0.38823529411764707" stop-color="#fffd5f" stop-opacity="0.34117648"/>
      <stop offset="0.5882352941176471" stop-color="#fff75c" stop-opacity="0.47058824"/>
      <stop offset="1.0" stop-color="#ffa800" stop-opacity="0.52156866"/>
    </radialGradient>
    <radialGradient cx="0" cy="0" gradientTransform="matrix(0.0181, 0.0, 0.0, 0.0181, 22.1, 14.85)" gradientUnits="userSpaceOnUse" id="gradient6" r="819.2" spreadMethod="pad">
      <stop offset="0.0" stop-color="#ff9b00" stop-opacity="0.7411765"/>
      <stop offset="0.38823529411764707" stop-color="#fffd5f" stop-opacity="0.34117648"/>
      <stop offset="0.5882352941176471" stop-color="#fff75c" stop-opacity="0.47058824"/>
      <stop offset="1.0" stop-color="#ffa800" stop-opacity="0.52156866"/>
    </radialGradient>
    <radialGradient cx="0" cy="0" gradientTransform="matrix(1.0E-4, 0.0, 0.0, 1.0E-4, 22.7, 26.85)" gradientUnits="userSpaceOnUse" id="gradient7" r="819.2" spreadMethod="pad">
      <stop offset="0.0" stop-color="#ff9b00" stop-opacity="0.7411765"/>
      <stop offset="0.38823529411764707" stop-color="#fffd5f" stop-opacity="0.34117648"/>
      <stop offset="0.5882352941176471" stop-color="#fff75c" stop-opacity="0.47058824"/>
      <stop offset="1.0" stop-color="#ffa800" stop-opacity="0.52156866"/>
    </radialGradient>
    <radialGradient cx="0" cy="0" gradientTransform="matrix(0.0124, 0.0, 0.0, 0.0124, 22.3, 62.85)" gradientUnits="userSpaceOnUse" id="gradient8" r="819.2" spreadMethod="pad">
      <stop offset="0.0" stop-color="#ff9b00" stop-opacity="0.7411765"/>
      <stop offset="0.38823529411764707" stop-color="#fffd5f" stop-opacity="0.34117648"/>
      <stop offset="0.5882352941176471" stop-color="#fff75c" stop-opacity="0.47058824"/>
      <stop offset="1.0" stop-color="#ffa800" stop-opacity="0.52156866"/>
    </radialGradient>
    <radialGradient cx="0" cy="0" gradientTransform="matrix(0.0062, 0.0, 0.0, 0.0062, 39.2, 81.5)" gradientUnits="userSpaceOnUse" id="gradient9" r="819.2" spreadMethod="pad">
      <stop offset="0.0" stop-color="#ff9b00" stop-opacity="0.7411765"/>
      <stop offset="0.38823529411764707" stop-color="#fffd5f" stop-opacity="0.34117648"/>
      <stop offset="0.5882352941176471" stop-color="#fff75c" stop-opacity="0.47058824"/>
      <stop offset="1.0" stop-color="#ffa800" stop-opacity="0.52156866"/>
    </radialGradient>
    <radialGradient cx="0" cy="0" gradientTransform="matrix(0.0188, 0.0, 0.0, 0.0188, 110.85, 22.7)" gradientUnits="userSpaceOnUse" id="gradient10" r="819.2" spreadMethod="pad">
      <stop offset="0.18823529411764706" stop-color="#ffffff" stop-opacity="0.74509805"/>
      <stop offset="0.38823529411764707" stop-color="#ffcb8c" stop-opacity="0.34509805"/>
      <stop offset="0.5882352941176471" stop-color="#fffc00" stop-opacity="0.46666667"/>
      <stop offset="0.9725490196078431" stop-color="#ffffff" stop-opacity="0.5254902"/>
    </radialGradient>
    <radialGradient cx="0" cy="0" gradientTransform="matrix(0.0121, 0.0, 0.0, 0.0121, 95.05, 40.65)" gradientUnits="userSpaceOnUse" id="gradient11" r="819.2" spreadMethod="pad">
      <stop offset="0.18823529411764706" stop-color="#ffffff" stop-opacity="0.74509805"/>
      <stop offset="0.38823529411764707" stop-color="#ffcb8c" stop-opacity="0.34509805"/>
      <stop offset="0.5882352941176471" stop-color="#fffc00" stop-opacity="0.46666667"/>
      <stop offset="0.9725490196078431" stop-color="#ffffff" stop-opacity="0.5254902"/>
    </radialGradient>
    <radialGradient cx="0" cy="0" gradientTransform="matrix(0.0094, 0.0, 0.0, 0.0094, 102.5, 80.55)" gradientUnits="userSpaceOnUse" id="gradient12" r="819.2" spreadMethod="pad">
      <stop offset="0.18823529411764706" stop-color="#ffffff" stop-opacity="0.74509805"/>
      <stop offset="0.38823529411764707" stop-color="#ffcb8c" stop-opacity="0.34509805"/>
      <stop offset="0.5882352941176471" stop-color="#fffc00" stop-opacity="0.46666667"/>
      <stop offset="0.9725490196078431" stop-color="#ffffff" stop-opacity="0.5254902"/>
    </radialGradient>
    <radialGradient cx="0" cy="0" gradientTransform="matrix(0.0118, 0.0, 0.0, 0.0118, 27.0, 34.4)" gradientUnits="userSpaceOnUse" id="gradient13" r="819.2" spreadMethod="pad">
      <stop offset="0.18823529411764706" stop-color="#ffffff" stop-opacity="0.74509805"/>
      <stop offset="0.38823529411764707" stop-color="#ffcb8c" stop-opacity="0.34509805"/>
      <stop offset="0.5882352941176471" stop-color="#fffc00" stop-opacity="0.46666667"/>
      <stop offset="0.9725490196078431" stop-color="#ffffff" stop-opacity="0.5254902"/>
    </radialGradient>
    <radialGradient cx="0" cy="0" gradientTransform="matrix(0.0094, 0.0, 0.0, 0.0094, 6.65, 54.9)" gradientUnits="userSpaceOnUse" id="gradient14" r="819.2" spreadMethod="pad">
      <stop offset="0.18823529411764706" stop-color="#ffffff" stop-opacity="0.74509805"/>
      <stop offset="0.38823529411764707" stop-color="#ffcb8c" stop-opacity="0.34509805"/>
      <stop offset="0.5882352941176471" stop-color="#fffc00" stop-opacity="0.46666667"/>
      <stop offset="0.9725490196078431" stop-color="#ffffff" stop-opacity="0.5254902"/>
    </radialGradient>
    <radialGradient cx="0" cy="0" gradientTransform="matrix(0.0074, 0.0, 0.0, 0.0074, 37.65, 70.85)" gradientUnits="userSpaceOnUse" id="gradient15" r="819.2" spreadMethod="pad">
      <stop offset="0.18823529411764706" stop-color="#ffffff" stop-opacity="0.74509805"/>
      <stop offset="0.38823529411764707" stop-color="#ffcb8c" stop-opacity="0.34509805"/>
      <stop offset="0.5882352941176471" stop-color="#fffc00" stop-opacity="0.46666667"/>
      <stop offset="0.9725490196078431" stop-color="#ffffff" stop-opacity="0.5254902"/>
    </radialGradient>
    <g id="shape2" transform="matrix(1.0, 0.0, 0.0, 1.0, 41.85, 16.85)">
      <path d="M-18.9 14.7 L-18.9 14.95 -20.05 17.15 -20.9 18.85 -21.2 19.4 Q-21.1 19.4 -20.65 19.85 L-19.9 20.85 Q-18.75 22.3 -18.45 23.45 L-18.55 23.65 -18.95 23.65 -23.45 22.45 -24.1 22.45 -25.4 23.8 -26.55 25.35 -27.05 25.35 Q-27.55 24.7 -27.7 23.55 L-27.8 21.6 -28.0 21.25 -28.5 20.9 -29.6 20.2 Q-31.55 19.05 -31.55 18.7 L-31.25 18.3 -31.3 18.25 Q-29.9 17.55 -29.2 17.35 L-29.15 17.35 -29.05 17.3 -29.0 17.3 -28.75 17.25 Q-27.65 17.15 -27.15 16.75 L-27.05 16.6 -26.85 15.55 Q-27.15 11.9 -26.3 11.9 L-26.0 12.05 -25.95 12.1 -25.95 12.15 -25.85 12.15 -25.05 13.05 -25.0 13.1 -23.65 15.2 -23.35 15.3 -23.05 15.7 -22.95 15.65 -22.9 15.55 -20.35 14.8 Q-19.95 14.55 -19.4 14.55 L-18.95 14.6 -18.9 14.7 M-31.7 18.5 L-31.7 18.45 -31.65 18.45 -31.7 18.5 M-27.05 14.9 L-27.05 15.2 Q-27.0 15.85 -27.1 16.25 L-27.05 14.9 M-31.9 18.85 L-31.8 18.9 -31.65 19.15 -31.8 19.0 -31.9 18.85 M-27.65 25.45 L-27.8 25.25 -27.8 25.2 -27.9 25.15 -27.9 24.55 Q-27.6 25.55 -26.9 25.65 -27.3 25.85 -27.45 25.65 L-27.65 25.45" fill="url(#gradient16)" fill-rule="evenodd" stroke="none"/>
      <path d="M-30.7 39.15 L-30.75 39.2 -31.35 39.6 -32.15 39.8 -32.35 39.7 -32.75 39.3 -33.25 38.75 Q-34.2 37.95 -34.4 38.1 L-34.6 38.3 -34.75 38.85 -34.85 39.65 Q-34.8 40.15 -34.9 40.45 -34.9 40.85 -35.2 41.05 L-35.35 41.1 -36.1 41.6 -36.3 41.7 Q-37.0 42.3 -36.75 42.8 L-36.7 42.9 -36.45 42.9 -35.55 43.1 -34.6 43.3 -34.45 43.3 -34.45 43.35 -34.35 43.55 -34.05 44.9 -33.6 46.4 -33.45 46.5 -33.3 46.45 Q-32.85 46.2 -32.4 45.2 L-31.75 43.85 -28.95 43.75 Q-28.5 43.55 -29.2 42.85 L-30.4 41.65 -29.4 39.6 Q-28.85 38.3 -30.25 38.9 L-30.45 38.95 -30.7 39.15 M-34.55 37.9 L-34.3 37.85 -34.05 37.9 -34.05 38.0 -33.95 37.95 -32.75 39.1 -32.1 39.6 -30.8 38.95 Q-29.8 38.3 -29.4 38.45 L-29.35 38.45 Q-29.05 38.7 -29.1 38.95 L-29.1 39.15 -29.15 39.3 -29.15 39.35 -29.4 40.0 -29.4 40.05 -30.15 41.3 -29.25 42.3 -28.4 43.3 -28.35 43.9 -29.25 43.95 -29.85 44.0 -31.2 43.95 -31.35 43.95 -31.7 43.9 -31.7 44.0 -31.85 44.5 -31.9 44.55 -32.3 45.45 -32.45 45.7 -32.65 46.05 -33.15 46.45 -33.45 46.55 -33.65 46.45 -33.85 46.05 -34.25 44.6 -34.35 44.15 -34.55 43.6 -34.65 43.45 -35.55 43.25 -36.9 43.0 -37.15 42.8 -37.3 42.55 -37.3 42.45 -37.3 42.4 -37.25 42.35 -37.2 42.2 -37.15 42.15 -37.15 42.05 -36.95 41.8 -36.6 41.6 -35.05 40.75 -35.1 40.1 -35.05 38.95 -35.05 38.9 -34.95 38.3 -34.9 38.3 -34.75 38.0 -34.55 37.9" fill="url(#gradient17)" fill-rule="evenodd" stroke="none"/>
      <path d="M-36.7 42.9 L-36.75 42.8 Q-37.0 42.3 -36.3 41.7 L-36.1 41.6 -35.35 41.1 -35.2 41.05 Q-34.9 40.85 -34.9 40.45 -34.8 40.15 -34.85 39.65 L-34.75 38.85 -34.6 38.3 -34.4 38.1 Q-34.2 37.95 -33.25 38.75 L-32.75 39.3 -32.35 39.7 -32.15 39.8 -31.35 39.6 -30.75 39.2 -30.7 39.15 Q-30.5 38.95 -30.25 38.9 -28.85 38.3 -29.4 39.6 L-30.4 41.65 -29.2 42.85 Q-28.5 43.55 -28.95 43.75 L-31.75 43.85 -32.4 45.2 Q-32.85 46.2 -33.3 46.45 L-33.45 46.5 -34.2 43.7 -34.4 43.35 -34.45 43.35 -34.45 43.3 -34.6 43.3 Q-34.85 43.2 -35.55 43.0 L-36.7 42.9 M-34.55 37.9 L-34.75 38.0 -34.65 37.9 -34.55 37.9 M-37.2 42.2 L-37.25 42.35 -37.3 42.4 -37.25 42.25 -37.2 42.2 M-33.45 46.55 L-33.15 46.45 -32.65 46.05 -33.2 46.8 -33.35 46.8 -33.45 46.6 -33.45 46.55 M-31.7 44.0 L-31.7 43.9 -31.35 43.95 -31.2 43.95 -31.4 44.0 -31.7 44.0 M-34.85 37.75 L-34.85 37.85 -34.95 38.0 -34.9 37.9 -34.85 37.75" fill="url(#gradient18)" fill-rule="evenodd" stroke="none"/>
      <path d="M-41.8 -10.25 L-41.8 -9.7 -41.85 -9.9 -41.8 -10.25 M-37.3 -4.75 L-37.1 -4.55 -37.05 -4.5 -37.2 -4.6 -37.3 -4.75 M-29.6 -7.9 L-29.9 -7.8 -29.95 -7.85 -30.0 -8.3 Q-29.95 -8.65 -30.25 -9.1 L-29.5 -8.05 -29.55 -7.85 -29.6 -7.9 M-32.55 -11.2 L-32.7 -11.25 -32.5 -11.7 -32.45 -11.9 -32.45 -11.6 -32.55 -11.2 M-34.6 -7.85 L-34.7 -7.85 -34.75 -7.65 -35.4 -6.5 -36.0 -5.45 -36.15 -5.1 -36.3 -5.05 Q-37.05 -4.95 -37.55 -6.1 L-37.6 -6.45 -37.95 -7.65 -37.95 -7.8 Q-38.05 -8.3 -38.6 -8.45 -38.95 -8.75 -39.65 -8.9 L-40.65 -9.35 -41.35 -9.75 -41.5 -10.15 -40.15 -11.4 -39.2 -11.8 Q-38.7 -11.95 -38.55 -12.2 L-38.3 -12.4 Q-38.0 -12.6 -38.2 -13.55 L-38.5 -14.5 -38.55 -14.55 -38.7 -15.25 Q-38.9 -17.35 -37.4 -16.1 L-35.1 -13.9 -33.05 -15.0 Q-31.8 -15.6 -31.75 -14.9 -31.7 -14.25 -32.8 -11.2 L-31.3 -9.75 Q-30.15 -8.75 -30.05 -8.1 L-30.0 -7.85 -30.2 -7.7 -31.8 -7.65 -31.9 -7.65 -32.4 -7.75 -33.5 -7.8 -34.3 -7.9 -34.4 -7.85 -34.55 -7.9 -34.6 -7.85" fill="url(#gradient19)" fill-rule="evenodd" stroke="none"/>
      <path d="M-41.8 -9.7 L-41.8 -10.25 -41.75 -10.35 -41.6 -10.7 -41.5 -10.65 -41.5 -10.75 -39.45 -11.9 -38.55 -12.55 -38.85 -14.55 Q-39.3 -16.1 -38.95 -16.55 L-38.9 -16.65 -38.1 -16.75 -37.85 -16.65 -37.7 -16.55 -37.65 -16.55 -36.9 -15.9 -36.8 -15.9 -35.45 -14.4 Q-35.05 -14.4 -33.8 -15.15 L-32.1 -15.85 -31.4 -15.7 Q-31.35 -15.5 -31.65 -14.45 L-31.8 -13.65 -32.45 -11.9 -32.5 -11.7 -32.7 -11.25 -32.55 -11.2 -32.0 -10.8 -31.95 -10.75 -30.9 -9.8 -30.65 -9.5 -30.25 -9.1 Q-29.95 -8.65 -30.0 -8.3 L-29.95 -7.85 -29.9 -7.8 -29.6 -7.9 Q-29.6 -7.7 -29.85 -7.55 L-30.75 -7.5 -32.85 -7.6 -33.65 -7.6 -34.3 -7.65 -34.6 -7.5 -35.1 -6.4 Q-35.5 -5.4 -35.85 -4.95 -36.25 -4.5 -36.45 -4.5 L-36.9 -4.45 -37.0 -4.45 -37.05 -4.5 -37.1 -4.55 -37.3 -4.75 -37.3 -4.8 -37.45 -4.85 -37.7 -5.2 -37.85 -5.8 -38.3 -8.15 -39.15 -8.35 -40.65 -8.9 -40.75 -8.9 -41.5 -9.3 -41.45 -9.35 -41.8 -9.7 M-38.55 -14.55 L-38.5 -14.5 -38.2 -13.55 Q-38.0 -12.6 -38.3 -12.4 L-38.55 -12.2 Q-38.7 -11.95 -39.2 -11.8 L-40.15 -11.4 -41.5 -10.15 -41.35 -9.75 -40.65 -9.35 -39.65 -8.9 Q-38.95 -8.75 -38.6 -8.45 -38.05 -8.3 -37.95 -7.8 L-37.95 -7.65 -37.6 -6.45 -37.55 -6.1 Q-37.05 -4.95 -36.3 -5.05 L-36.15 -5.1 -36.0 -5.45 -35.4 -6.5 -34.75 -7.65 -34.7 -7.85 -34.6 -7.85 -34.4 -7.85 -34.3 -7.9 -33.5 -7.8 -32.4 -7.75 -31.9 -7.65 -31.8 -7.65 -30.2 -7.7 -30.0 -7.85 -30.05 -8.1 Q-30.15 -8.75 -31.3 -9.75 L-32.8 -11.2 Q-31.7 -14.25 -31.75 -14.9 -31.8 -15.6 -33.05 -15.0 L-35.1 -13.9 -37.4 -16.1 Q-38.9 -17.35 -38.7 -15.25 L-38.7 -15.0 -38.55 -14.55" fill="url(#gradient20)" fill-rule="evenodd" stroke="none"/>
      <path d="M-40.3 5.15 L-40.15 5.05 -39.85 4.95 -39.8 5.05 -39.75 5.0 Q-39.5 5.0 -38.25 5.7 L-37.45 5.9 -36.4 4.9 Q-35.7 3.9 -35.3 3.9 L-35.25 3.95 Q-34.85 4.05 -34.85 4.35 L-34.8 4.55 -34.75 4.65 -34.75 5.4 -34.7 5.45 -35.05 6.9 -33.85 7.55 -32.7 8.25 Q-32.4 8.55 -32.45 8.75 L-33.3 9.1 -33.85 9.35 -35.15 9.75 -35.3 9.8 -35.65 9.9 -35.6 9.95 -35.55 10.5 -35.6 10.5 -35.7 11.55 -35.75 11.8 -35.8 12.2 -36.15 12.7 -36.45 12.95 -36.65 12.95 -37.0 12.6 -37.8 11.4 -38.1 10.95 -38.45 10.5 -38.6 10.4 -39.5 10.55 -40.85 10.7 -41.15 10.65 -41.4 10.4 -41.45 10.35 -41.45 10.3 -41.45 10.25 -41.4 10.05 -41.4 9.95 -41.3 9.6 -41.05 9.25 -39.85 8.0 -40.15 7.4 -40.45 6.3 -40.5 6.25 -40.6 5.65 -40.55 5.65 -40.5 5.3 -40.3 5.15 M-36.3 5.05 L-36.3 5.1 -36.75 5.7 -37.4 6.15 -37.65 6.05 -38.15 5.9 -38.85 5.5 -40.1 5.25 -40.3 5.55 -40.2 6.1 -40.0 6.85 -39.85 7.7 Q-39.65 8.05 -39.9 8.35 L-40.0 8.4 -40.55 9.15 -40.75 9.35 Q-41.2 10.1 -40.8 10.5 -40.75 10.45 -40.7 10.55 L-40.4 10.5 -39.55 10.4 -38.6 10.25 -38.5 10.2 -38.45 10.25 -38.3 10.4 -37.55 11.55 -36.6 12.9 -36.45 12.9 -36.3 12.75 Q-35.95 12.45 -35.9 11.35 L-35.7 9.85 -33.1 8.85 Q-32.75 8.5 -33.65 8.05 L-35.2 7.35 -34.9 5.0 Q-34.85 3.6 -35.95 4.65 L-36.1 4.75 -36.3 5.05" fill="url(#gradient21)" fill-rule="evenodd" stroke="none"/>
      <path d="M-40.3 5.15 L-40.5 5.3 -40.4 5.15 -40.3 5.15 M-41.4 10.05 L-41.45 10.25 -41.45 10.3 -41.45 10.2 -41.4 10.05 M-36.45 12.95 L-36.15 12.7 -35.8 12.2 -36.1 13.15 -36.25 13.15 -36.45 12.95 M-35.6 9.95 L-35.65 9.9 -35.3 9.8 -35.15 9.75 -35.3 9.9 -35.6 9.95 M-40.7 10.55 Q-40.75 10.45 -40.8 10.5 -41.2 10.1 -40.75 9.35 L-40.55 9.15 -40.0 8.4 -39.9 8.35 Q-39.65 8.05 -39.85 7.7 L-40.0 6.85 -40.2 6.1 -40.3 5.55 -40.1 5.25 -38.85 5.5 -38.15 5.9 -37.65 6.05 -37.4 6.15 -36.75 5.7 -36.3 5.1 -36.3 5.05 -35.95 4.65 Q-34.85 3.6 -34.9 5.0 L-35.2 7.35 -33.65 8.05 Q-32.75 8.5 -33.1 8.85 L-35.7 9.85 -35.9 11.35 Q-35.95 12.45 -36.3 12.75 L-36.45 12.9 -38.05 10.55 -38.35 10.2 -38.45 10.25 -38.5 10.2 -38.6 10.25 -39.6 10.3 -40.7 10.55 M-40.65 5.2 L-40.65 5.3 -40.65 5.05 -40.65 5.2" fill="url(#gradient22)" fill-rule="evenodd" stroke="none"/>
      <path d="M61.5 -7.8 L61.55 -7.85 Q60.05 -11.85 60.1 -12.8 L60.1 -12.85 61.85 -12.95 64.7 -11.4 66.85 -13.5 67.85 -14.45 Q69.9 -16.15 69.65 -13.35 L69.65 -13.3 69.55 -12.6 69.45 -12.35 69.35 -12.3 69.35 -12.25 68.95 -11.05 68.85 -10.15 Q68.85 -9.55 69.1 -9.35 L69.45 -9.1 Q69.65 -8.75 70.35 -8.55 70.8 -8.3 71.65 -8.0 L73.5 -6.4 73.3 -5.9 72.3 -5.4 70.95 -4.8 Q70.0 -4.6 69.5 -4.15 68.75 -3.95 68.6 -3.35 L68.65 -3.2 68.65 -3.1 68.6 -3.1 68.15 -1.45 68.05 -1.05 Q67.35 0.55 66.35 0.4 L66.15 0.35 65.95 -0.15 65.8 -0.35 65.3 -1.3 64.95 -1.85 64.2 -3.1 64.15 -3.4 64.0 -3.4 63.6 -3.45 62.2 -3.3 58.5 -3.1 57.95 -3.2 57.75 -3.35 57.75 -3.45 Q57.9 -4.35 59.45 -5.7 L61.55 -7.7 61.5 -7.8 M73.9 -6.1 L73.95 -6.05 73.9 -6.05 73.9 -6.1 M69.15 -3.75 L69.1 -3.7 69.1 -3.75 69.15 -3.75 M57.4 -3.05 L57.3 -3.05 57.05 -3.1 Q56.9 -3.25 57.0 -3.35 L57.75 -4.45 57.7 -4.0 57.7 -3.7 57.6 -3.4 57.7 -3.25 57.7 -3.2 57.65 -3.15 57.6 -3.1 57.55 -3.05 57.4 -3.05 M61.2 -7.85 L61.05 -8.25 61.05 -8.65 61.1 -8.4 61.35 -7.85 61.2 -7.85" fill="url(#gradient23)" fill-rule="evenodd" stroke="none"/>
      <path d="M44.1 23.05 L43.0 21.25 42.65 20.4 Q41.9 19.35 42.05 19.15 42.2 18.9 42.8 18.75 43.4 18.6 44.9 19.15 L46.85 19.55 48.0 17.65 48.05 17.6 48.8 16.75 48.8 16.7 48.95 16.55 49.25 16.4 Q49.6 16.15 50.1 16.4 L50.15 16.5 Q50.65 16.8 50.55 18.7 L50.6 20.95 51.8 21.4 51.75 21.4 52.85 21.75 52.85 21.9 52.85 22.0 52.65 21.9 51.55 21.6 50.65 21.3 50.45 21.2 Q50.05 20.95 50.1 19.9 L50.2 18.8 50.25 18.2 50.2 17.95 Q50.0 15.6 48.6 17.25 L46.55 20.2 44.1 19.45 Q42.6 19.0 42.65 19.8 42.75 20.55 44.65 23.65 L43.3 25.55 Q42.35 26.95 42.35 27.75 L42.4 28.0 42.6 28.1 43.35 28.05 45.0 27.55 45.85 27.35 47.0 26.9 47.4 26.9 47.45 26.9 47.55 27.1 48.55 28.25 49.45 29.35 49.55 29.4 49.7 29.55 49.85 29.6 50.45 29.4 Q50.8 29.05 50.95 28.15 L51.0 27.8 51.05 26.45 51.05 26.25 Q51.05 25.7 51.65 25.3 52.0 25.0 52.65 24.7 L52.85 24.55 52.85 25.0 52.25 25.3 51.35 25.8 51.3 28.55 51.3 29.15 51.25 29.4 51.2 29.55 51.15 29.6 51.1 29.7 51.0 29.75 50.85 29.9 50.8 29.9 50.8 30.05 50.7 30.1 50.65 30.1 50.55 30.15 50.5 30.15 50.15 30.2 49.7 29.95 49.1 29.4 48.35 28.35 47.4 27.25 47.1 27.3 47.05 27.3 46.2 27.45 45.55 27.65 43.25 28.2 42.65 28.25 42.6 28.2 42.5 28.15 42.75 28.2 42.45 28.1 42.4 28.05 42.35 28.0 42.25 27.55 Q42.15 27.0 42.45 26.35 L42.65 26.0 42.9 25.6 43.85 24.35 43.85 24.3 44.45 23.7 44.5 23.65 44.2 23.2 44.1 23.05" fill="url(#gradient24)" fill-rule="evenodd" stroke="none"/>
      <path d="M51.0 29.75 L50.95 29.85 50.8 30.05 50.8 29.9 50.85 29.9 51.0 29.75 M50.7 30.1 L50.55 30.15 50.65 30.1 50.7 30.1 M42.5 28.15 Q42.1 28.15 42.05 27.6 L42.45 26.35 Q42.15 27.0 42.25 27.55 L42.35 28.0 42.25 28.05 42.45 28.1 42.75 28.2 42.5 28.15 M44.45 23.7 L44.2 23.25 44.1 23.05 44.2 23.2 44.5 23.65 44.45 23.7 M45.85 27.35 L45.0 27.55 43.35 28.05 42.6 28.1 42.4 28.0 42.35 27.75 Q42.35 26.95 43.3 25.55 L44.65 23.65 Q42.75 20.55 42.65 19.8 42.6 19.0 44.1 19.45 L46.55 20.2 48.6 17.25 Q50.0 15.6 50.2 17.95 L50.2 18.8 50.1 19.9 Q50.05 20.95 50.45 21.2 L50.65 21.3 51.55 21.6 52.65 21.9 52.85 22.0 52.85 24.55 52.65 24.7 Q52.0 25.0 51.65 25.3 51.05 25.7 51.05 26.25 L51.05 26.45 51.0 27.8 50.95 28.15 Q50.8 29.05 50.45 29.4 L49.85 29.6 49.7 29.55 49.65 29.4 48.7 28.2 47.55 27.1 47.45 26.9 47.4 26.9 47.4 26.85 46.75 26.85 45.85 27.35" fill="url(#gradient25)" fill-rule="evenodd" stroke="none"/>
      <path d="M55.15 23.05 L55.25 23.3 55.2 23.5 55.15 23.05 M52.85 25.05 L52.85 25.0 52.85 24.55 52.85 22.0 52.85 21.9 53.05 22.0 Q54.65 22.7 54.65 23.1 54.75 23.6 54.45 23.65 L53.65 24.45 53.4 24.65 52.85 25.05 M55.6 23.7 L55.4 23.9 55.6 23.6 55.75 23.5 55.6 23.7" fill="url(#gradient26)" fill-rule="evenodd" stroke="none"/>
      <path d="M52.85 21.75 L52.85 21.6 Q54.05 21.9 54.45 22.1 L54.55 22.25 54.65 22.3 54.95 22.6 55.15 23.05 55.2 23.5 54.85 24.2 54.8 24.25 53.85 25.0 53.8 25.05 53.75 25.1 52.85 25.1 52.85 25.05 53.4 24.65 53.65 24.45 54.45 23.65 Q54.75 23.6 54.65 23.1 54.65 22.7 53.05 22.0 L52.85 21.9 52.85 21.75" fill="url(#gradient27)" fill-rule="evenodd" stroke="none"/>
      <path d="M41.55 47.9 L40.6 46.9 40.25 46.45 39.7 45.7 Q39.8 45.45 40.2 45.35 40.5 45.2 41.5 45.35 L42.85 45.35 43.3 44.0 43.35 43.95 43.7 43.35 43.75 43.3 43.8 43.15 43.95 43.05 Q44.15 42.85 44.5 42.9 L44.55 42.95 Q44.9 43.15 45.05 44.35 L45.4 45.75 46.25 45.9 47.85 46.1 47.95 46.2 48.0 46.15 48.2 46.25 48.3 46.5 48.4 46.7 48.25 47.0 48.25 47.05 47.9 47.55 47.85 47.6 47.0 48.35 46.5 48.75 46.85 50.45 46.9 50.9 46.85 51.2 46.8 51.25 46.8 51.35 46.75 51.35 46.8 51.4 46.7 51.45 46.7 51.5 46.65 51.55 46.55 51.6 46.3 51.7 Q46.1 51.75 46.0 51.6 L44.9 50.7 44.15 50.2 44.0 50.2 43.45 50.4 43.0 50.65 Q41.95 51.25 41.65 51.25 L41.2 51.35 41.05 51.25 41.25 51.3 42.7 50.7 43.9 50.0 44.1 50.0 44.15 49.95 44.25 50.05 45.0 50.65 45.75 51.2 45.9 51.4 46.05 51.4 Q46.55 51.2 46.55 50.3 L46.5 50.1 46.45 49.2 46.35 49.05 Q46.3 48.65 46.6 48.4 L47.2 47.9 47.75 47.25 48.05 46.8 48.05 46.5 Q48.05 46.3 46.8 46.05 L46.1 46.05 45.55 46.0 45.3 45.95 Q45.05 45.9 44.95 45.15 L44.85 44.45 44.8 44.35 44.85 44.1 44.75 43.9 Q44.3 42.4 43.65 43.7 L42.75 45.8 41.1 45.65 Q40.05 45.55 40.2 46.05 40.35 46.55 42.0 48.25 L41.35 49.6 Q40.9 50.6 41.0 51.1 L41.05 51.25 40.9 51.0 40.85 50.35 41.05 49.95 41.1 49.7 41.55 48.8 41.55 48.75 41.8 48.3 41.9 48.25 41.65 48.0 41.55 47.9" fill="url(#gradient28)" fill-rule="evenodd" stroke="none"/>
      <path d="M48.3 46.5 L48.35 46.6 48.4 46.7 48.3 46.5 M46.8 51.4 L46.7 51.5 46.7 51.45 46.8 51.4 M41.05 51.25 L41.0 51.3 40.8 51.4 40.7 51.3 Q40.7 50.85 40.85 50.35 L40.9 51.0 41.05 51.25 41.0 51.1 Q40.9 50.6 41.35 49.6 L42.0 48.25 Q40.35 46.55 40.2 46.05 40.05 45.55 41.1 45.65 L42.75 45.8 43.65 43.7 Q44.3 42.4 44.75 43.9 L44.8 44.35 44.85 44.45 44.95 45.15 Q45.05 45.9 45.3 45.95 L45.55 46.0 46.1 46.05 46.8 46.05 Q48.05 46.3 48.05 46.5 L48.05 46.8 47.75 47.25 47.2 47.9 46.6 48.4 Q46.3 48.65 46.35 49.05 L46.45 49.2 46.5 50.1 46.55 50.3 Q46.55 51.2 46.05 51.4 L45.9 51.4 45.1 50.55 44.25 50.05 44.15 49.95 44.1 50.0 44.05 49.95 43.7 50.0 41.05 51.25 M41.8 48.3 L41.6 48.05 41.55 47.9 41.65 48.0 41.9 48.25 41.8 48.3 M48.55 46.75 L48.5 46.85 48.55 46.7 48.6 46.65 48.55 46.75" fill="url(#gradient29)" fill-rule="evenodd" stroke="none"/>
      <path d="M65.95 4.4 L66.25 4.65 66.35 5.3 66.45 5.3 Q66.25 5.55 66.25 6.35 L66.2 6.4 65.7 8.3 65.15 9.3 67.15 11.45 67.6 12.1 67.8 12.7 67.8 12.9 67.85 12.95 67.3 13.7 67.2 13.75 67.15 13.75 66.75 13.8 66.4 13.75 65.75 13.75 63.3 13.45 63.25 13.45 62.95 13.45 62.7 13.65 62.15 14.45 61.6 15.2 60.45 17.1 59.8 17.8 59.15 18.4 Q59.0 18.35 59.2 18.1 L59.3 17.85 59.25 17.8 58.75 17.4 58.45 17.1 58.2 16.55 58.05 15.85 58.0 15.45 57.8 13.65 57.75 13.65 57.8 12.7 57.95 12.6 57.3 12.45 57.0 12.35 54.85 11.65 53.85 11.2 Q52.55 10.95 52.35 10.6 52.3 10.3 52.8 9.8 53.3 9.25 54.85 8.55 56.5 7.9 56.9 7.45 L56.25 4.95 56.4 4.85 56.4 3.55 56.45 3.4 56.5 3.05 Q56.5 2.55 57.2 2.35 L57.3 2.3 Q58.0 2.3 59.2 4.0 L61.05 5.7 62.4 5.4 Q64.5 4.15 64.95 4.15 L65.05 4.3 65.15 4.1 65.7 4.3 65.95 4.4 M62.65 13.2 L62.65 13.15 62.8 12.95 63.3 12.95 65.0 13.25 67.0 13.4 Q67.3 12.7 66.7 11.65 L66.35 11.35 65.45 10.05 65.25 9.9 Q64.8 9.4 65.15 8.8 65.05 8.2 65.45 7.4 L65.75 6.1 65.95 5.1 65.55 4.6 Q65.3 4.35 63.4 5.05 L62.2 5.7 61.35 5.95 Q61.15 6.15 60.9 6.15 60.6 6.2 59.8 5.4 L59.05 4.35 59.05 4.3 58.7 3.75 58.45 3.55 Q56.5 1.75 56.65 4.15 L57.15 8.2 54.45 9.4 Q52.9 10.15 53.55 10.8 54.2 11.35 58.0 12.5 58.05 14.45 58.3 15.1 58.4 16.45 58.7 17.1 L59.05 17.55 59.25 17.8 59.3 17.8 60.45 16.35 61.15 15.45 62.45 13.45 62.7 13.25 62.65 13.2" fill="url(#gradient30)" fill-rule="evenodd" stroke="none"/>
      <path d="M66.25 4.65 L65.95 4.4 66.05 4.4 66.25 4.65 M57.0 12.35 L57.3 12.45 57.95 12.6 57.8 12.7 57.3 12.6 57.0 12.35 M58.2 16.55 L58.45 17.1 58.75 17.4 59.25 17.8 59.3 17.85 58.95 18.5 58.7 18.2 58.3 17.1 58.2 16.55 M67.85 12.95 L67.8 12.9 67.85 12.9 67.85 12.95 M66.55 4.55 L66.55 4.3 66.55 4.65 66.55 4.55 M59.05 4.3 L59.05 4.35 59.8 5.4 Q60.6 6.2 60.9 6.15 61.15 6.15 61.35 5.95 L62.2 5.7 63.4 5.05 Q65.3 4.35 65.55 4.6 L65.95 5.1 65.75 6.1 65.45 7.4 Q65.05 8.2 65.15 8.8 64.8 9.4 65.25 9.9 L65.45 10.05 66.35 11.35 66.7 11.65 Q67.3 12.7 67.0 13.4 L65.0 13.25 63.3 12.95 62.8 12.95 62.65 13.15 62.65 13.2 62.6 13.15 62.05 13.7 60.45 16.35 59.3 17.8 59.25 17.8 59.05 17.55 58.7 17.1 Q58.4 16.45 58.3 15.1 58.05 14.45 58.0 12.5 54.2 11.35 53.55 10.8 52.9 10.15 54.45 9.4 L57.15 8.2 56.65 4.15 Q56.5 1.75 58.45 3.55 L59.05 4.3" fill="url(#gradient31)" fill-rule="evenodd" stroke="none"/>
      <path d="M60.1 -12.85 L60.1 -12.8 Q60.05 -11.85 61.55 -7.85 L61.5 -7.8 61.4 -7.75 59.45 -5.9 Q57.9 -4.6 57.75 -3.7 L57.7 -3.4 57.75 -3.35 57.95 -3.2 58.5 -3.1 62.2 -3.3 63.6 -3.45 64.0 -3.4 64.15 -3.4 64.2 -3.1 64.95 -1.85 65.1 -1.55 65.8 -0.35 65.95 -0.15 66.15 0.35 66.35 0.4 Q67.35 0.55 68.05 -1.05 L68.15 -1.45 68.6 -3.1 68.65 -3.1 68.65 -3.2 68.6 -3.35 Q68.75 -3.95 69.5 -4.15 70.0 -4.6 70.95 -4.8 L72.3 -5.4 73.3 -5.9 73.5 -6.4 73.5 -6.45 Q73.65 -6.85 71.65 -8.15 70.8 -8.45 70.35 -8.7 69.65 -8.9 69.45 -9.25 L69.1 -9.5 Q68.85 -9.65 68.85 -10.15 L68.95 -11.05 69.35 -12.25 69.35 -12.3 69.45 -12.35 69.55 -12.6 69.65 -13.0 69.65 -13.3 69.65 -13.35 Q69.9 -16.15 67.85 -14.45 L66.85 -13.5 64.7 -11.5 61.85 -13.0 Q60.15 -13.8 60.1 -12.85 M61.35 -7.85 L61.4 -7.9 61.1 -8.55 61.05 -8.8 60.15 -11.2 59.95 -12.25 Q59.25 -13.6 59.45 -13.85 L60.55 -14.1 Q61.25 -14.1 62.9 -13.2 64.6 -12.15 65.15 -12.15 L67.05 -14.15 67.15 -14.15 68.2 -15.05 68.25 -15.05 68.45 -15.2 68.8 -15.35 69.9 -15.2 70.0 -15.05 Q70.45 -14.45 69.85 -12.35 L69.45 -9.7 70.65 -8.8 73.5 -7.3 73.5 -7.15 73.65 -7.2 73.85 -6.75 73.9 -6.3 73.9 -6.1 73.9 -6.05 73.65 -5.5 73.45 -5.4 73.5 -5.35 72.45 -4.8 72.3 -4.8 70.25 -4.05 69.15 -3.75 69.1 -3.75 69.1 -3.7 68.45 -0.65 68.25 0.2 67.85 0.75 67.2 1.2 66.85 1.2 66.55 1.1 66.05 0.7 Q65.45 0.25 64.85 -1.45 L63.95 -3.0 63.6 -3.1 62.5 -3.1 61.6 -3.05 58.7 -2.9 Q58.15 -2.8 57.95 -3.05 L56.85 -3.0 57.4 -3.05 57.55 -3.05 57.6 -3.1 57.7 -3.1 57.7 -3.2 57.7 -3.25 57.6 -3.4 57.7 -3.7 57.7 -3.95 57.7 -4.0 57.75 -4.45 58.0 -5.05 58.55 -5.55 58.9 -6.0 60.35 -7.3 60.45 -7.35 61.2 -7.85 61.35 -7.85" fill="url(#gradient32)" fill-rule="evenodd" stroke="none"/>
      <path d="M-31.7 18.45 L-31.65 18.45 -31.7 18.5 -31.7 18.45" fill="#000000" fill-rule="evenodd" stroke="none"/>
      <path d="M-19.05 23.35 Q-19.05 22.55 -20.0 21.15 L-21.35 19.25 Q-19.45 16.15 -19.35 15.4 -19.3 14.6 -20.8 15.05 L-23.25 15.8 -25.3 12.85 Q-26.75 11.1 -26.95 13.8 L-26.8 15.5 Q-26.75 16.55 -27.15 16.8 L-29.35 17.5 Q-31.1 18.15 -31.1 18.55 L-30.95 18.95 -30.35 19.55 -29.35 20.3 -28.35 20.9 Q-27.75 21.3 -27.75 21.85 L-27.65 23.75 Q-27.45 25.2 -26.55 25.2 L-26.15 24.95 -25.25 23.85 -24.15 22.5 -23.7 22.5 -21.7 23.15 -19.3 23.7 Q-19.05 23.7 -19.05 23.35 M-18.75 14.75 Q-18.6 14.95 -19.35 16.0 L-19.7 16.85 -20.9 18.8 -21.2 19.25 -20.55 19.9 -20.55 19.95 -19.35 21.6 Q-18.8 22.45 -18.95 23.15 -19.0 23.7 -19.3 23.8 L-19.95 23.8 -22.25 23.25 -22.9 23.05 -23.75 22.9 -23.8 22.9 -24.1 22.85 -25.05 23.95 Q-25.9 25.3 -26.4 25.55 L-26.85 25.8 -27.35 25.7 Q-27.7 25.6 -27.5 25.5 L-27.55 25.5 -27.8 25.3 -28.0 24.75 -28.0 24.15 -28.05 21.4 -28.95 20.9 Q-30.0 20.35 -30.45 20.0 L-30.5 19.95 -31.2 19.4 -31.25 19.35 Q-31.7 18.95 -31.3 18.15 L-31.1 17.95 -31.0 17.9 -30.95 17.8 Q-30.5 17.55 -28.45 17.0 L-28.5 17.0 -27.3 16.55 -27.25 14.3 Q-27.35 12.4 -26.85 12.1 L-26.8 12.0 Q-26.3 11.75 -25.95 12.0 L-25.65 12.15 -25.5 12.3 -25.5 12.35 -24.75 13.2 -24.7 13.25 -23.55 15.15 -21.6 14.75 Q-20.1 14.2 -19.5 14.35 -18.9 14.5 -18.75 14.75" fill="url(#gradient33)" fill-rule="evenodd" stroke="none"/>
    </g>
    <radialGradient cx="0" cy="0" gradientTransform="matrix(3.0E-4, 0.0107, -0.0107, 3.0E-4, -25.2, 18.7)" gradientUnits="userSpaceOnUse" id="gradient16" r="819.2" spreadMethod="pad">
      <stop offset="0.19607843137254902" stop-color="#fffaf3" stop-opacity="0.9882353"/>
      <stop offset="0.4392156862745098" stop-color="#ffe6b6" stop-opacity="0.5764706"/>
      <stop offset="0.5019607843137255" stop-color="#ffc75b" stop-opacity="0.46666667"/>
      <stop offset="0.615686274509804" stop-color="#ffe6b6" stop-opacity="0.46666667"/>
      <stop offset="0.8235294117647058" stop-color="#ffffff"/>
    </radialGradient>
    <radialGradient cx="0" cy="0" gradientTransform="matrix(0.0031, 0.0055, -0.0055, 0.0031, -32.7, 41.6)" gradientUnits="userSpaceOnUse" id="gradient17" r="819.2" spreadMethod="pad">
      <stop offset="0.19607843137254902" stop-color="#fffaf3" stop-opacity="0.9882353"/>
      <stop offset="0.4392156862745098" stop-color="#ffe6b6" stop-opacity="0.5764706"/>
      <stop offset="0.5019607843137255" stop-color="#ffc75b" stop-opacity="0.46666667"/>
      <stop offset="0.615686274509804" stop-color="#ffe6b6" stop-opacity="0.46666667"/>
      <stop offset="0.8235294117647058" stop-color="#ffffff"/>
    </radialGradient>
    <radialGradient cx="0" cy="0" gradientTransform="matrix(-0.0059, 0.0036, -0.0036, -0.0059, -32.65, 41.5)" gradientUnits="userSpaceOnUse" id="gradient18" r="819.2" spreadMethod="pad">
      <stop offset="0.19607843137254902" stop-color="#fffaf3" stop-opacity="0.9882353"/>
      <stop offset="0.4392156862745098" stop-color="#ffe6b6" stop-opacity="0.5764706"/>
      <stop offset="0.5019607843137255" stop-color="#ffc75b" stop-opacity="0.46666667"/>
      <stop offset="0.615686274509804" stop-color="#ffe6b6" stop-opacity="0.46666667"/>
      <stop offset="0.8235294117647058" stop-color="#ffffff"/>
    </radialGradient>
    <radialGradient cx="0" cy="0" gradientTransform="matrix(0.0022, 0.0093, -0.0093, 0.0022, -36.25, -11.0)" gradientUnits="userSpaceOnUse" id="gradient19" r="819.2" spreadMethod="pad">
      <stop offset="0.19607843137254902" stop-color="#fffaf3" stop-opacity="0.9882353"/>
      <stop offset="0.4392156862745098" stop-color="#ffe6b6" stop-opacity="0.5764706"/>
      <stop offset="0.5019607843137255" stop-color="#ffc75b" stop-opacity="0.46666667"/>
      <stop offset="0.615686274509804" stop-color="#ffe6b6" stop-opacity="0.46666667"/>
      <stop offset="0.8235294117647058" stop-color="#ffffff"/>
    </radialGradient>
    <radialGradient cx="0" cy="0" gradientTransform="matrix(0.0085, -0.0017, 0.0017, 0.0085, -36.2, -10.9)" gradientUnits="userSpaceOnUse" id="gradient20" r="819.2" spreadMethod="pad">
      <stop offset="0.19607843137254902" stop-color="#fffaf3" stop-opacity="0.9882353"/>
      <stop offset="0.4392156862745098" stop-color="#ffe6b6" stop-opacity="0.5764706"/>
      <stop offset="0.5019607843137255" stop-color="#ffc75b" stop-opacity="0.46666667"/>
      <stop offset="0.615686274509804" stop-color="#ffe6b6" stop-opacity="0.46666667"/>
      <stop offset="0.8235294117647058" stop-color="#ffffff"/>
    </radialGradient>
    <radialGradient cx="0" cy="0" gradientTransform="matrix(0.0047, 0.0042, -0.0042, 0.0047, -37.35, 8.0)" gradientUnits="userSpaceOnUse" id="gradient21" r="819.2" spreadMethod="pad">
      <stop offset="0.19607843137254902" stop-color="#fffaf3" stop-opacity="0.9882353"/>
      <stop offset="0.4392156862745098" stop-color="#ffe6b6" stop-opacity="0.5764706"/>
      <stop offset="0.5019607843137255" stop-color="#ffc75b" stop-opacity="0.46666667"/>
      <stop offset="0.615686274509804" stop-color="#ffe6b6" stop-opacity="0.46666667"/>
      <stop offset="0.8235294117647058" stop-color="#ffffff"/>
    </radialGradient>
    <radialGradient cx="0" cy="0" gradientTransform="matrix(-0.0044, 0.0054, -0.0054, -0.0044, -37.35, 7.95)" gradientUnits="userSpaceOnUse" id="gradient22" r="819.2" spreadMethod="pad">
      <stop offset="0.19607843137254902" stop-color="#fffaf3" stop-opacity="0.9882353"/>
      <stop offset="0.4392156862745098" stop-color="#ffe6b6" stop-opacity="0.5764706"/>
      <stop offset="0.5019607843137255" stop-color="#ffc75b" stop-opacity="0.46666667"/>
      <stop offset="0.615686274509804" stop-color="#ffe6b6" stop-opacity="0.46666667"/>
      <stop offset="0.8235294117647058" stop-color="#ffffff"/>
    </radialGradient>
    <radialGradient cx="0" cy="0" gradientTransform="matrix(-0.003, 0.0128, 0.0128, 0.003, 66.25, -7.45)" gradientUnits="userSpaceOnUse" id="gradient23" r="819.2" spreadMethod="pad">
      <stop offset="0.19607843137254902" stop-color="#fffaf3" stop-opacity="0.9882353"/>
      <stop offset="0.4392156862745098" stop-color="#ffe6b6" stop-opacity="0.5764706"/>
      <stop offset="0.5019607843137255" stop-color="#ffc75b" stop-opacity="0.46666667"/>
      <stop offset="0.615686274509804" stop-color="#ffe6b6" stop-opacity="0.46666667"/>
      <stop offset="0.8235294117647058" stop-color="#ffffff"/>
    </radialGradient>
    <radialGradient cx="0" cy="0" gradientTransform="matrix(-0.0097, 0.0, 0.0, 0.0097, 48.4, 23.25)" gradientUnits="userSpaceOnUse" id="gradient24" r="819.2" spreadMethod="pad">
      <stop offset="0.19607843137254902" stop-color="#fffaf3" stop-opacity="0.9882353"/>
      <stop offset="0.4392156862745098" stop-color="#ffe6b6" stop-opacity="0.5764706"/>
      <stop offset="0.5019607843137255" stop-color="#ffc75b" stop-opacity="0.46666667"/>
      <stop offset="0.615686274509804" stop-color="#ffe6b6" stop-opacity="0.46666667"/>
      <stop offset="0.8235294117647058" stop-color="#ffffff"/>
    </radialGradient>
    <radialGradient cx="0" cy="0" gradientTransform="matrix(-3.0E-4, 0.0107, 0.0107, 3.0E-4, 48.5, 23.1)" gradientUnits="userSpaceOnUse" id="gradient25" r="819.2" spreadMethod="pad">
      <stop offset="0.19607843137254902" stop-color="#fffaf3" stop-opacity="0.9882353"/>
      <stop offset="0.4392156862745098" stop-color="#ffe6b6" stop-opacity="0.5764706"/>
      <stop offset="0.5019607843137255" stop-color="#ffc75b" stop-opacity="0.46666667"/>
      <stop offset="0.615686274509804" stop-color="#ffe6b6" stop-opacity="0.46666667"/>
      <stop offset="0.8235294117647058" stop-color="#ffffff"/>
    </radialGradient>
    <radialGradient cx="0" cy="0" gradientTransform="matrix(-4.0E-4, 0.0143, 0.0143, 4.0E-4, 46.8, 23.3)" gradientUnits="userSpaceOnUse" id="gradient26" r="819.2" spreadMethod="pad">
      <stop offset="0.19607843137254902" stop-color="#fffaf3" stop-opacity="0.9882353"/>
      <stop offset="0.4392156862745098" stop-color="#ffe6b6" stop-opacity="0.5764706"/>
      <stop offset="0.5019607843137255" stop-color="#ffc75b" stop-opacity="0.46666667"/>
      <stop offset="0.615686274509804" stop-color="#ffe6b6" stop-opacity="0.46666667"/>
      <stop offset="0.8235294117647058" stop-color="#ffffff"/>
    </radialGradient>
    <radialGradient cx="0" cy="0" gradientTransform="matrix(-0.0129, 0.0, 0.0, 0.0129, 46.7, 23.5)" gradientUnits="userSpaceOnUse" id="gradient27" r="819.2" spreadMethod="pad">
      <stop offset="0.19607843137254902" stop-color="#fffaf3" stop-opacity="0.9882353"/>
      <stop offset="0.4392156862745098" stop-color="#ffe6b6" stop-opacity="0.5764706"/>
      <stop offset="0.5019607843137255" stop-color="#ffc75b" stop-opacity="0.46666667"/>
      <stop offset="0.615686274509804" stop-color="#ffe6b6" stop-opacity="0.46666667"/>
      <stop offset="0.8235294117647058" stop-color="#ffffff"/>
    </radialGradient>
    <radialGradient cx="0" cy="0" gradientTransform="matrix(-0.0062, 0.0012, 0.0012, 0.0062, 44.3, 47.5)" gradientUnits="userSpaceOnUse" id="gradient28" r="819.2" spreadMethod="pad">
      <stop offset="0.19607843137254902" stop-color="#fffaf3" stop-opacity="0.9882353"/>
      <stop offset="0.4392156862745098" stop-color="#ffe6b6" stop-opacity="0.5764706"/>
      <stop offset="0.5019607843137255" stop-color="#ffc75b" stop-opacity="0.46666667"/>
      <stop offset="0.615686274509804" stop-color="#ffe6b6" stop-opacity="0.46666667"/>
      <stop offset="0.8235294117647058" stop-color="#ffffff"/>
    </radialGradient>
    <radialGradient cx="0" cy="0" gradientTransform="matrix(0.0011, 0.0068, 0.0068, -0.0011, 44.3, 47.4)" gradientUnits="userSpaceOnUse" id="gradient29" r="819.2" spreadMethod="pad">
      <stop offset="0.19607843137254902" stop-color="#fffaf3" stop-opacity="0.9882353"/>
      <stop offset="0.4392156862745098" stop-color="#ffe6b6" stop-opacity="0.5764706"/>
      <stop offset="0.5019607843137255" stop-color="#ffc75b" stop-opacity="0.46666667"/>
      <stop offset="0.615686274509804" stop-color="#ffe6b6" stop-opacity="0.46666667"/>
      <stop offset="0.8235294117647058" stop-color="#ffffff"/>
    </radialGradient>
    <radialGradient cx="0" cy="0" gradientTransform="matrix(-0.0081, 0.0072, 0.0072, 0.0081, 60.85, 9.3)" gradientUnits="userSpaceOnUse" id="gradient30" r="819.2" spreadMethod="pad">
      <stop offset="0.19607843137254902" stop-color="#fffaf3" stop-opacity="0.9882353"/>
      <stop offset="0.4392156862745098" stop-color="#ffe6b6" stop-opacity="0.5764706"/>
      <stop offset="0.5019607843137255" stop-color="#ffc75b" stop-opacity="0.46666667"/>
      <stop offset="0.615686274509804" stop-color="#ffe6b6" stop-opacity="0.46666667"/>
      <stop offset="0.8235294117647058" stop-color="#ffffff"/>
    </radialGradient>
    <radialGradient cx="0" cy="0" gradientTransform="matrix(0.0077, 0.0092, 0.0092, -0.0077, 60.85, 9.25)" gradientUnits="userSpaceOnUse" id="gradient31" r="819.2" spreadMethod="pad">
      <stop offset="0.19607843137254902" stop-color="#fffaf3" stop-opacity="0.9882353"/>
      <stop offset="0.4392156862745098" stop-color="#ffe6b6" stop-opacity="0.5764706"/>
      <stop offset="0.5019607843137255" stop-color="#ffc75b" stop-opacity="0.46666667"/>
      <stop offset="0.615686274509804" stop-color="#ffe6b6" stop-opacity="0.46666667"/>
      <stop offset="0.8235294117647058" stop-color="#ffffff"/>
    </radialGradient>
    <radialGradient cx="0" cy="0" gradientTransform="matrix(-0.0117, -0.0023, -0.0024, 0.0114, 66.2, -7.5)" gradientUnits="userSpaceOnUse" id="gradient32" r="819.2" spreadMethod="pad">
      <stop offset="0.19607843137254902" stop-color="#fffaf3" stop-opacity="0.9882353"/>
      <stop offset="0.4392156862745098" stop-color="#ffe6b6" stop-opacity="0.5764706"/>
      <stop offset="0.5019607843137255" stop-color="#ffc75b" stop-opacity="0.46666667"/>
      <stop offset="0.615686274509804" stop-color="#ffe6b6" stop-opacity="0.46666667"/>
      <stop offset="0.8235294117647058" stop-color="#ffffff"/>
    </radialGradient>
    <radialGradient cx="0" cy="0" gradientTransform="matrix(0.0097, 0.0, 0.0, 0.0097, -25.1, 18.85)" gradientUnits="userSpaceOnUse" id="gradient33" r="819.2" spreadMethod="pad">
      <stop offset="0.19607843137254902" stop-color="#fffaf3" stop-opacity="0.9882353"/>
      <stop offset="0.4392156862745098" stop-color="#ffe6b6" stop-opacity="0.5764706"/>
      <stop offset="0.5019607843137255" stop-color="#ffc75b" stop-opacity="0.46666667"/>
      <stop offset="0.615686274509804" stop-color="#ffe6b6" stop-opacity="0.46666667"/>
      <stop offset="0.8235294117647058" stop-color="#ffffff"/>
    </radialGradient>
  </defs>
</svg>
