<?xml version="1.0" encoding="UTF-8" standalone="no"?>
<svg xmlns:ffdec="https://www.free-decompiler.com/flash" xmlns:xlink="http://www.w3.org/1999/xlink" ffdec:objectType="frame" height="24.7px" width="42.15px" xmlns="http://www.w3.org/2000/svg">
  <g transform="matrix(1.0, 0.0, 0.0, 1.0, -9.05, -16.4)">
    <use ffdec:characterId="1" height="24.7" transform="matrix(1.0, 0.0, 0.0, 1.0, 9.05, 16.4)" width="42.15" xlink:href="#shape0"/>
  </g>
  <defs>
    <g id="shape0" transform="matrix(1.0, 0.0, 0.0, 1.0, -9.05, -16.4)">
      <path d="M47.1 16.85 L48.3 17.35 Q50.35 18.45 50.85 20.3 51.4 22.55 51.1 23.75 L51.15 23.8 51.1 24.1 51.1 24.35 50.95 25.05 50.8 25.9 50.45 26.75 49.6 28.1 48.9 28.6 48.3 28.6 48.15 28.6 Q47.3 28.35 47.3 27.55 L47.5 26.4 47.85 25.75 48.2 24.9 48.3 24.6 48.45 23.0 48.3 21.7 Q47.7 19.4 44.8 19.4 L44.0 19.4 Q42.85 19.5 41.7 20.5 L40.9 21.35 40.6 21.65 39.8 23.1 Q39.3 24.1 38.9 26.15 L37.6 32.1 Q36.75 36.0 34.55 38.05 32.3 40.1 30.1 40.75 27.9 41.4 23.25 40.8 18.6 40.15 14.05 35.0 10.05 30.5 9.55 28.65 L9.4 28.15 Q9.05 27.4 9.05 27.1 L9.1 26.9 9.05 26.7 Q9.05 25.85 9.55 25.55 9.8 25.05 10.6 25.2 11.55 25.4 11.75 26.4 L11.9 26.6 13.25 28.85 14.0 29.95 14.5 30.7 14.95 31.3 16.45 32.85 16.65 33.1 17.05 33.5 17.6 34.1 17.8 34.25 18.1 34.6 Q21.15 37.7 24.8 37.9 L29.65 37.45 30.15 37.25 Q31.25 36.65 32.2 35.75 L33.2 34.55 Q34.5 32.75 34.9 30.35 L35.75 26.05 Q36.15 24.15 37.25 21.6 38.3 19.0 41.1 17.35 43.9 15.7 47.1 16.85" fill="#513624" fill-rule="evenodd" stroke="none"/>
      <path d="M16.25 35.2 L17.15 35.95 Q18.45 37.15 20.15 37.95 L20.35 38.1 21.3 38.25 21.45 38.4 21.9 38.4 Q22.15 38.65 22.7 38.75 L22.8 38.75 23.05 39.0 Q26.05 39.65 29.0 39.0 L30.9 38.55 31.15 38.3 32.0 38.1 32.6 37.75 32.75 37.55 33.8 36.55 35.2 34.75 36.1 32.65 36.4 31.95 36.75 30.95 37.75 28.6 Q38.6 26.8 39.15 24.45 L37.6 32.1 Q36.75 36.0 34.55 38.05 32.3 40.1 30.1 40.75 27.9 41.4 23.25 40.8 18.6 40.15 14.05 35.0 10.05 30.5 9.55 28.65 L9.4 28.15 Q9.05 27.4 9.05 27.1 L9.1 26.9 9.05 26.7 Q9.05 25.85 9.55 25.55 L9.95 25.2 12.35 29.5 13.6 31.15 14.45 32.65 14.8 33.05 14.9 33.5 16.25 35.2" fill="#100c1e" fill-opacity="0.29803923" fill-rule="evenodd" stroke="none"/>
    </g>
  </defs>
</svg>
