<?xml version="1.0" encoding="UTF-8" standalone="no"?>
<svg xmlns:ffdec="https://www.free-decompiler.com/flash" xmlns:xlink="http://www.w3.org/1999/xlink" ffdec:objectType="frame" height="64.25px" width="56.7px" xmlns="http://www.w3.org/2000/svg">
  <g transform="matrix(1.0, 0.0, 0.0, 1.0, 26.7, 19.65)">
    <use ffdec:characterId="1" height="64.25" transform="matrix(1.0, 0.0, 0.0, 1.0, -26.7, -19.65)" width="56.7" xlink:href="#shape0"/>
  </g>
  <defs>
    <g id="shape0" transform="matrix(1.0, 0.0, 0.0, 1.0, 26.7, 19.65)">
      <path d="M30.0 41.2 Q29.5 44.7 26.0 44.6 L-0.5 13.75 -2.65 11.3 -9.15 3.75 -8.95 3.6 Q-9.15 3.2 -8.95 2.65 -8.6 1.85 -7.75 1.2 L-6.2 0.35 Q-5.6 0.15 -5.15 0.35 L3.2 10.05 4.95 12.1 30.0 41.2" fill="#e57508" fill-rule="evenodd" stroke="none"/>
      <path d="M-5.55 1.1 Q-5.4 1.25 -5.75 1.65 L-6.1 2.1 -6.55 2.45 -7.6 3.1 -8.2 3.2 Q-8.35 3.0 -8.0 2.55 L-7.2 1.7 -6.15 1.0 -5.55 1.1" fill="#000000" fill-rule="evenodd" stroke="none"/>
      <path d="M-6.3 6.6 L-5.3 6.1 -3.7 4.95 -3.05 4.05 -2.6 3.45 -1.85 4.4 Q-2.9 6.8 -5.55 7.5 L-6.3 6.6 M-5.0 1.65 L-6.1 3.05 Q-6.9 3.7 -7.7 3.95 L-8.3 4.0 -8.45 3.9 -8.7 3.7 Q-9.15 3.15 -8.9 2.6 -8.45 1.7 -7.7 1.15 -6.95 0.4 -6.15 0.3 L-5.35 0.3 Q-5.0 0.4 -4.75 0.9 L-5.0 1.65 M-5.55 1.1 L-6.15 1.0 -7.2 1.7 -8.0 2.55 Q-8.35 3.0 -8.2 3.2 L-7.6 3.1 -6.55 2.45 -6.1 2.1 -5.75 1.65 Q-5.4 1.25 -5.55 1.1" fill="#ffcc00" fill-rule="evenodd" stroke="none"/>
      <path d="M-2.6 3.45 L-3.05 4.05 -3.7 4.95 -5.3 6.1 -6.3 6.6 -7.1 5.65 -6.15 5.25 -5.3 4.75 -4.4 4.0 -3.55 2.95 -3.4 2.5 -2.6 3.45 M-3.75 8.85 Q-1.65 8.0 -0.55 5.85 L0.15 6.65 Q-1.15 9.0 -3.55 9.75 L-4.25 9.0 -3.75 8.85" fill="#7e4b00" fill-rule="evenodd" stroke="none"/>
      <path d="M-20.75 -10.9 L-20.7 -11.05 -18.6 -12.85 -18.5 -12.85 -17.4 -11.6 -15.9 -9.9 -15.5 -9.45 -14.3 -8.1 -14.3 -8.15 -11.4 -4.85 -11.35 -4.8 -9.55 -2.75 -7.55 -0.5 -6.15 1.1 Q-6.2 2.5 -8.45 2.95 L-11.35 -0.35 -11.5 -0.5 -12.9 -2.1 -13.45 -2.7 -16.85 -6.5 -17.0 -6.7 -17.25 -7.0 -17.35 -7.1 -17.4 -7.15 -20.75 -10.9" fill="#cc0000" fill-rule="evenodd" stroke="none"/>
      <path d="M-8.75 3.8 Q-7.5 3.9 -6.8 3.4 L-0.05 11.3 1.45 13.05 28.1 44.4 25.8 44.4 -0.3 13.7 -2.35 11.3 -8.75 3.8 M-20.7 -11.1 L-19.85 -11.8 -6.85 2.45 Q-8.05 3.1 -8.15 2.85 L-20.7 -11.1" fill="#000000" fill-opacity="0.4" fill-rule="evenodd" stroke="none"/>
      <path d="M-25.65 -18.6 Q-24.6 -19.65 -23.15 -19.65 -21.65 -19.65 -20.65 -18.6 -19.6 -17.55 -19.6 -16.1 L-19.7 -15.05 -18.95 -15.75 -17.65 -14.2 -18.5 -12.85 -18.6 -12.85 -20.7 -11.05 -20.75 -10.9 Q-21.5 -10.5 -22.35 -10.2 L-23.65 -11.7 -22.65 -12.55 -23.15 -12.55 Q-24.6 -12.55 -25.65 -13.55 -26.7 -14.6 -26.7 -16.1 -26.7 -17.55 -25.65 -18.6" fill="#ffcc00" fill-rule="evenodd" stroke="none"/>
      <path d="M-24.6 -16.55 Q-24.75 -16.1 -25.05 -15.75 -25.35 -15.45 -25.7 -15.55 L-26.15 -16.05 -26.1 -16.95 -25.7 -17.75 -25.05 -18.0 -24.6 -17.45 -24.6 -16.55" fill="#ffffff" fill-opacity="0.69411767" fill-rule="evenodd" stroke="none"/>
      <path d="M-23.1 -19.35 Q-21.45 -19.4 -20.5 -18.35 -19.75 -17.55 -19.6 -16.2 L-19.5 -15.3 Q-20.05 -14.45 -21.35 -13.4 L-22.7 -12.5 -24.0 -12.6 Q-24.75 -13.35 -23.5 -13.55 -20.65 -14.2 -21.3 -16.7 -21.9 -18.9 -24.45 -19.15 L-23.1 -19.35" fill="#000000" fill-opacity="0.4" fill-rule="evenodd" stroke="none"/>
    </g>
  </defs>
</svg>
