<svg xmlns="http://www.w3.org/2000/svg" xmlns:ffdec="https://www.free-decompiler.com/flash" xmlns:xlink="http://www.w3.org/1999/xlink" ffdec:objectType="frame" width="35.75" height="28"><use ffdec:characterId="1" xlink:href="#a" width="35.75" height="28"/><defs><linearGradient id="b" x1="-819.2" x2="819.2" gradientTransform="matrix(.0218 0 0 .0129 26.05 32)" gradientUnits="userSpaceOnUse" spreadMethod="pad"><stop offset="0" stop-color="#543324"/><stop offset="1" stop-color="#7e6053"/></linearGradient><g id="a" fill-rule="evenodd"><path fill="#eccec0" d="M35.65 21.2q-.3 2.2-1.75 3.3-2.1 1.6-3.9 2.2-5.05 2.55-5.05.1t3.7-3.55q3.65-1.15 3.35-3.9v-.15l.2.4q.55-.55.4-1.2 1 .85 1 1.4l.4-1.4q.6.6.6 1.35v-.35l.4-.2z"/><path fill="url(#b)" d="M40.2 40.6q-.5-2.7-8.2-4.1l-8.4-1.7q-3.85-1.4-8.65-4.4-6.75-4.3-6.75-7.5 0-1.5 1.5-1.5l1.2.15q2.6 4.45 8.05 7 3.65 1.75 10.9 3.4 7.25 1.6 10.45 3.15 3.2 1.5 3.55 5.35v2.15l-.65-2-.4.2v.35q0-.75-.6-1.35l-.4 1.4q0-.55-1-1.4.15.65-.4 1.2z" transform="translate(-8.2 -21.4)"/><path fill-opacity=".298" d="M33.9 21.85q1.7-2.2.8-5.25 1.25 2.3 1 4.3l-.4 1.9-.05-.05q-.5 1.05-1.35 1.75-2.1 1.6-3.9 2.2-5.05 2.55-5.05.1 0-1.05.7-1.85l-.15.7q-.15.6.95.75 1.05.15 3.65-1.55 2.05-.8 3.8-3M2.8 1.8q0 4.95 8.75 8.35Q16.05 11.9 21.6 13l4.15 1.05q2.9.7 4.8 1.5.95.4 1.85 1.45 1.1 1.75-.45 3.8.5-4.65-7.75-5.9l-8.8-1.5Q11.55 12 6.75 9 0 4.7 0 1.5 0 0 1.5 0l1.2.15.3.5z"/></g></defs></svg>