<svg xmlns="http://www.w3.org/2000/svg" xmlns:ffdec="https://www.free-decompiler.com/flash" xmlns:xlink="http://www.w3.org/1999/xlink" ffdec:objectType="frame" width="77.45" height="60.55"><g transform="translate(17.8 14.3)"><use ffdec:characterId="2" xlink:href="#a" width="31.55" height="26.3" transform="translate(28.1 -14.3)"/><use ffdec:characterId="3" xlink:href="#b" width="77.45" height="60.55" transform="translate(-17.8 -14.3)"/></g><defs><path id="c" fill="#325a04" fill-rule="evenodd" d="m28.05 4.85-5.15 10.9-2.85 2.15-14.1 6 .3 2.4-2-1.1-2-2.6L.4 20.05l.1-.1-.5-2.3 2.2 1.1L11.5 6.5l2.9-2.15 12-1.8L29.8 0l1.75 2.25z"/><use ffdec:characterId="1" xlink:href="#c" id="a" width="31.55" height="26.3"/><g id="b" fill-rule="evenodd"><path fill="#a37640" d="m50.95 32.3 4.6 6.3q.8.8-1.05 2.05-1.8 1.4-2.35.35l-4.65-6.15zm-14 2.65 7.2 9.7q.65.9-1.5 2.35-2.05 1.35-2.5.6l-7.2-9.7zm-8 5.95L16.4 50.25l-3.85-5.15 12.6-9.35z"/><path fill="#ccc" d="m30.7 39.65.4.5-1.7 1.3-.45-.55-3.8-5.15-.45-.6 1.75-1.3.4.6zm-14.3 10.6-1.75 1.25-3.75-5.2 1.65-1.2z"/><path fill="#333" d="m26.85 34.45 5.7-4.25-1.7-2.3-1.65 1.3-1.8 1.25L24.9 27l1.7-1.2 3.1-2.35-.95-5.45 2.9-2.15 1.7-1.25 3 3.95 2.5 3.4-4 2.95 1.7 2.35 4.05-2.95-.55-.75 3.95-3.7.95 1.25 1.35-1.05 1.85 2.55 2 2.6-2.5 1.8 1.25 1.7 2.05 3.6-3.45 2.55-1.35 1-4.45-1.8-1.3-1.65-3.45 2.55-4 2.95-2.25 1.75zM14.65 51.5l-6.6 6.65.85 1.1-1.7 1.3L0 50.8l1.7-1.25.8 1.15 8.4-4.4z"/><path fill-opacity=".498" d="m73.95 4.85-1.65-2.3L75.7 0l1.75 2.25zm-13.65-.5 8.5 11.4-2.85 2.15L57.4 6.5zM51.85 23.9l.3 2.4-2-1.1-2-2.6-1.85-2.55.1-.1-.5-2.3 2.2 1.1-.1.05 1.85 2.55 1.95 2.55zm-4.2 3.1 1.25 1.7-3.9 2.85-3.3 2.5-1.3-1.65zm-18.9-9 2.9-2.15 3 3.95-4.95 3.65zm-3.85 9 1.7-1.2 2.6 3.4-1.8 1.25zm11.65.25-4 2.95-1.7-2.3 4-3zM2.5 50.7l5.55 7.45.85 1.1-1.7 1.3L0 50.8l1.7-1.25z"/><path fill="#fff" fill-opacity=".4" d="m59.7 12-10.2 8.85-.95-1.3 8.95-10.5zM47.8 22.1 28.2 36.25l.7 1.05-1.65 1.3-.4-.55-14.2 10.6-7.45 5.4.8 1.35-2.55-3.9-.15-.2 8.4-3.85-.7-1.1L25.2 35.8l-.45-.7 1.65-1.3 1.1 1.5 19.35-14.45zm-17.65-2.75.5 3.35 5.7-4.1.8 1.05-9.7 7.3.4.45q-.85.65-1.75 1.25L24.9 27l4.8-3.6-.85-4.65z"/><path fill-opacity=".4" d="m57.5 9.05-1-1.3.95-1.35 1.25 1.55zM60.9 11l2.95 3.95 2.8-2.1 6.85-8.7.4.6-5.25 10.8-2.85 2.2-14.15 6.1-4.1 3.1 1.35 1.75.95 1.65L41.7 34l-1.3-1.6-3.5 2.6 7.4 10.1-.65 1-5.35-7.15-3 2.05-2.4-3.1-2.15 1.7.4.5-2.05 1.05-.25-.25-14.2 10.65-6.5 6.5.3.65-1.7 1.3-1.15-1.4 8.15-8.5Q20.9 44.9 28 39.65l19.4-14.8.65-2.35.9 1.3.05-.1 1.65-1.3 11.65-6.75L59.7 12zM48.5 34.1l4.55 6.2.3.25q.35.4.75.4l-1.8.4-4.95-6.5zm-12.8-8-2.15 3.3-1.1.75-1.65-2.25-1.6 1.3-.75-1 8.8-6.5 1.55.3-3.95 2.9z"/><path fill="#434343" fill-opacity=".4" d="m57.5 9.05 1.2-1.1L60.9 11l-1.2 1z"/><path fill="#fff" fill-opacity=".6" d="m49.5 20.85-1.7 1.25-.95-1.25 1.7-1.3zM6 55.4l-1.55 1.4-2.95-4 1.95-1.3zm-2.75-4.05.05-.05.15.2zm25.6-32.6-.1-.75 4.6-3.35 1.65 2-1.6 1.4-1-1.3-2.35 1.75.1.85z"/><path fill="#fff" fill-opacity=".902" d="m1.5 52.8-.95-1.25 1.7-1.15.7 1 .3-.05.2.15z"/><path fill="#fff" fill-opacity=".8" d="m61.2 5.75.15-.05h.05l10.1-2.3.7.95-8.45 4.55-.15.1v.05zM72.95 3l3.2-2.35.55.7-3.25 2.3z"/><path fill="#fff" fill-opacity=".694" d="m58.7 7.95 2.5-2.2 2.4 3.3L60.9 11z"/><path fill="#b4b4b4" fill-opacity=".4" d="m71.5 3.4 1.45-.4.5.65h-.05l-1.2.7z"/></g></defs></svg>