<svg xmlns="http://www.w3.org/2000/svg" xmlns:ffdec="https://www.free-decompiler.com/flash" xmlns:xlink="http://www.w3.org/1999/xlink" ffdec:objectType="frame" width="20.25" height="28.35"><use ffdec:characterId="1" xlink:href="#a" width="20.25" height="28.35"/><defs><linearGradient id="c" x1="-819.2" x2="819.2" gradientTransform="matrix(.0011 -.0036 -.0038 -.0012 44.5 47.1)" gradientUnits="userSpaceOnUse" spreadMethod="pad"><stop offset="0" stop-color="#fff"/><stop offset=".506" stop-color="#f2f2f2"/><stop offset="1" stop-color="#e5e5e5"/></linearGradient><linearGradient id="d" x1="-819.2" x2="819.2" gradientTransform="matrix(-.0003 -.0037 -.0031 .0003 41.4 46.45)" gradientUnits="userSpaceOnUse" spreadMethod="pad"><stop offset="0" stop-color="#fff"/><stop offset=".506" stop-color="#f2f2f2"/><stop offset="1" stop-color="#e5e5e5"/></linearGradient><linearGradient id="e" x1="-819.2" x2="819.2" gradientTransform="matrix(-.0027 0 0 .0019 40.35 53.1)" gradientUnits="userSpaceOnUse" spreadMethod="pad"><stop offset="0" stop-color="#fff"/><stop offset=".506" stop-color="#f2f2f2"/><stop offset="1" stop-color="#e5e5e5"/></linearGradient><linearGradient id="i" x1="-819.2" x2="819.2" gradientTransform="matrix(.0026 0 0 -.002 43.55 44.95)" gradientUnits="userSpaceOnUse" spreadMethod="pad"><stop offset=".404" stop-color="#f33"/><stop offset="1" stop-color="#cc2828"/></linearGradient><linearGradient id="j" x1="-819.2" x2="819.2" gradientTransform="matrix(-.003 .0008 .0006 .0023 38.1 46.1)" gradientUnits="userSpaceOnUse" spreadMethod="pad"><stop offset=".404" stop-color="#f33"/><stop offset="1" stop-color="#cc2828"/></linearGradient><linearGradient id="k" x1="-819.2" x2="819.2" gradientTransform="matrix(.0007 -.0026 -.0027 -.0007 39.2 47.75)" gradientUnits="userSpaceOnUse" spreadMethod="pad"><stop offset=".404" stop-color="#f33"/><stop offset="1" stop-color="#cc2828"/></linearGradient><linearGradient id="l" x1="-819.2" x2="819.2" gradientTransform="matrix(-.002 -.0012 -.0011 .0019 42.85 47.5)" gradientUnits="userSpaceOnUse" spreadMethod="pad"><stop offset=".404" stop-color="#f33"/><stop offset="1" stop-color="#cc2828"/></linearGradient><radialGradient id="b" cx="0" cy="0" r="819.2" gradientTransform="matrix(-.0111 .0036 .0036 .0111 39.95 40.75)" gradientUnits="userSpaceOnUse" spreadMethod="pad"><stop offset=".373" stop-color="#fff"/><stop offset=".682" stop-color="#f2f2f2"/><stop offset=".922" stop-color="#fff"/></radialGradient><radialGradient id="f" cx="0" cy="0" r="819.2" gradientTransform="matrix(-.0038 0 0 .0038 31.05 50.75)" gradientUnits="userSpaceOnUse" spreadMethod="pad"><stop offset=".439" stop-color="#fff"/><stop offset="1" stop-color="#f2f2f2"/></radialGradient><radialGradient id="g" cx="0" cy="0" r="819.2" gradientTransform="matrix(-.0015 .0008 .0005 .0009 44 41.15)" gradientUnits="userSpaceOnUse" spreadMethod="pad"><stop offset="0" stop-color="#ffdede"/><stop offset="1" stop-color="#ffdede" stop-opacity="0"/></radialGradient><radialGradient id="h" cx="0" cy="0" r="819.2" gradientTransform="matrix(-.0017 0 0 .001 38 42.75)" gradientUnits="userSpaceOnUse" spreadMethod="pad"><stop offset="0" stop-color="#ffdede"/><stop offset="1" stop-color="#ffdede" stop-opacity="0"/></radialGradient><g id="a" fill-rule="evenodd"><path fill="url(#b)" d="M40.7 33.9q.35 1.8-.05 3.05 1.6-.05 2.6 1.3l.6 1.45q2.7 1.65.7 3.85l-1.8 1.5-.7.35-.25.05-1.9.2-.4.05q-2.2.05-3.7-.7-1-.85-1.45-2.2-.85-2.5 2-4.6-3.45-.45-5.8-2.7l-1.25-1.55-.35-.55q3.5-.6 6.85 1.35l2.4 2q-1.5-2.7-1.95-5.5V28.8q3.7 1.7 4.45 5.1" transform="translate(-28.35 -28.8)"/><path fill="#fff" d="M15.5 22.75v.1q.2.15-.25.3-.15 0-.2.1l-.15.05-1.4.2-1.25-.1.2-.65v-.25l-.1-.55-1.3.05-.85.65q-.4-.3-1.55-.65l-.5-.45-1-.15-1.3-1.45q.05-1.45.85-2.85l.75-.9q1.5.75 3.7.7.05.7.45 2l.65 1.15 1.4 1.35.7.3.25.05h.1l.55.25.15.25-.1.2-.05.05h.05l.15.15v.1z"/><path fill="url(#c)" d="m42.95 50.55.25-.3q.95-1.2.55-2.3l-.5-1q-.75-1.25-1.5-1.5l.25-.05.7-.35 2.3 1.6q.75.85.75 1.35l.15.35q.2 1.4-.65 2.65l-.35.45h-.4l-.15.1h-.55v-.1l-.15-.15h-.05l.05-.05.1-.2-.15-.25-.55-.25z" transform="translate(-28.35 -28.8)"/><path fill="url(#d)" d="m43.25 46.95.5 1q.4 1.1-.55 2.3l-.25.3-.3-.05-.7-.3-1.4-1.35-.65-1.15q-.4-1.3-.45-2l.4-.05 1.9-.2q.75.25 1.5 1.5" transform="translate(-28.35 -28.8)"/><path fill="#fff" d="m7.15 21.3 1 .15.5.45q.55.4.65 1.45l1.75-1.45 1.3-.05.1.55v.25l-.2.65-1 2.2-.15.3-.15.35-.2.6-.4.55q-1.5 2-2.75 0l-.5-1.1v-.15L6.95 26q-1.25-.4-2-1.3l-.15-.2-.6-.85q-.25-1.1.3-2.15.6-1.05 1.35-1.65l.85 1.1zm11.65-.65 1.35-.05.1.8-.85 1.95-.95 2.15q-.75 1.3-1.65 1.5-.4.05-.9-.35-1.15-.3-1.85-.85l-.15.1q.8-1.3.9-2.6l.15-.05q.05-.1.2-.1.45-.15.25-.3v-.1h.55l.15-.1h.4l.35-.45.25-.1.1-.15 1.1-.9z"/><path fill="#fff" d="M9.3 23.45Q9.2 22.4 8.65 22q1.15.35 1.55.65z"/><path fill="url(#e)" d="m39.4 54.6.15-.3 1-2.2 1.25.1 1.4-.2q-.1 1.3-.9 2.6l-.5.25-2.55.1z" transform="translate(-28.35 -28.8)"/><path fill="url(#f)" d="m32.55 52.6-.75.75-2.3.05-.8-.65q-.65-.95-.05-2.4.6-1.6 2.35-1.3 1.2.15 1.55.75l.3.65q-.55 1.05-.3 2.15" transform="translate(-28.35 -28.8)"/><path fill="#fff" d="M14.1 10.2h.05l.25.1.1.3v.1l-.1.2-.25.1H14l-.2-.1-.05-.1-.05-.1v-.15l.1-.25.25-.1zm-4.85 1.3.05-.05q.1-.15.3-.15h.2l.2.15.1.25v.1l-.1.25-.1.1-.15.1-.35-.05-.05-.05H9.3v-.1L9.2 12l-.05-.05v-.25z"/><path fill="#ffb1b1" d="M13.15 11q0-.35.25-.65.25-.25.55-.25.35 0 .65.25l.2.65-.2.6-.65.3-.55-.3zm.95-.8h-.05l-.25.1-.1.25v.15l.05.1.05.1.2.1h.15l.25-.1.1-.2v-.1l-.1-.3-.25-.1zm-4.5 1.1-.3.1-.05.1-.1.2v.25l.05.05.1.05v.1h.05v.05h.05l.05.05.35.05.15-.1.1-.1.1-.25v-.1l-.1-.25-.05-.05-.2-.15zm-1.2.85q0-.4.3-.7.25-.25.6-.25l.55.1.25.15.2.5.05.2-.25.6q-.35.3-.8.3-.35 0-.6-.3-.3-.25-.3-.6"/><path fill="#cb5252" d="m13.45 12.35-.4.5L12 12.7q.3-.4.85-.4z"/><path fill="url(#g)" d="m44.25 41.7-.75.2-.5-.25q-.2-.2 0-.6l.65-.35q.35-.25.65-.35l.5.3-.05.5z" transform="translate(-28.35 -28.8)"/><path fill="url(#h)" d="M36.95 42.75q0-.3.35-.5l.7-.1.8.1.25.5-.25.4-.8.2-.7-.2q-.35-.15-.35-.4" transform="translate(-28.35 -28.8)"/><path fill="#ffbdbd" d="M7.8 0q1.6 1.3 2.65 4.75l.7 3.2L9.9 7.9l.4-.55.1-.3q-.4-2.6-1.95-5.4L7.8.5zM.5 4.55q2.35.25 5.5 2.2L8.8 8.6l-.4.35-2.95-1.8Q2.95 5.8.85 5.1z"/><path fill="#ffc4c4" d="m18.45 24.15-.5.9-.5.3q-.2-.05-.1-.6l.3-.95.6-1q.2-.35.45-.3l.1.5zm-7.8 1.35-.6.9q-.3.45-.45.35-.25-.05-.1-.65l.3-.9.6-1.05.4-.3.1.55z"/><path fill="#ffc4c4" fill-opacity=".498" d="m11.2 8.05-1.4-.1q-1.45-2.6-1.95-5.5V.05Q9.5 1.35 10.5 4.8zM8 9.4q-3.55-.45-5.85-2.7L.55 4.65q2.35.2 5.55 2.15l2.75 1.85z"/><path fill="#e5e5e5" fill-opacity=".498" d="m12.95 16.15.3-.15q1.25-1.45 2.5-1.5l.95.2q-1.35-.25-3.55 1.85l-.7.1-1.6-.8q-1.85-.65-3.4 0l.2.3.15.7-.7.8q-.6 1.1-.7 2.6-.05 1.2-.65 2.85-.3 1.45 1.15 3-1.35-.45-2.15-1.5l-.55-.85q-.3-.95.25-2.1.4-.85 1.35-1.7.1-1.5.85-2.8l.75-.95q-1.05-.85-1.45-2.2Q5.1 11.5 8 9.4l-.9 2.15q-.65 2.2.35 4.25 1.2-1.2 3-.6l1.9.95zm1.45.1 2.3 1.65.75 1.3q-.5-.8-2-1.6-.9-.55-1.8-.95zm-2.1 3.3-.1.55v-.05l-.65-1.15zm.05.7.05-.4v-.2l1.25 1.75zm2.6.05.1-.85-.15-1.3.5 1q.4 1.2-.55 2.3l.6.3q.5.2.45.75l.1.3h-.55v.05l-.25.35-.2.05-1.55.3-1.25-.15.2-.6v-.3l2.15.05.7-.05q.35-.25 0-.45l-.55-.3h-.1l-.3-.05.55-.85.4-.3zm-4.8 2.35q-.55-.4-1.55-.6.6.45.65 1.4l-1.35 1.4.7-1.5q.05-.9-.75-1.5-.4-.35-.8-.45h.05l2.45.1 1.35.6zm.9 3.25.2-.3 2.5-.35 1.7.25 1.75.35 1.6-1.05-.25.7q-.9 1.45-1.7 1.5-.4.05-.9-.35-1.3-.35-1.85-.8l-.65.35-2.55.05-.2.6q-2.1 3.3-3.65-.55.6.5 1.35.8 1.4.6 2.65-1.2"/><path fill="#cbcbcb" fill-opacity=".498" d="m12.2 20.1.1-.55.05-.3.05-.55v1.15l-.05.4q-.15.95-.5 1.35l-1.6-.15-1.3-1.1q1.75 1.35 2.6.9.45-.2.65-1.15m2.75.2.3.25-.4.3h-.05q-1.95-1.85-2-3.4.6 1.35 2.15 2.85M15.8 23.3l-.05.1q-.3.35-1.7.55H11.9l.3-.6 1.25.1L15 23.2l.2-.1q.45-.15.25-.3v-.1H16l.15-.1h.4l.25-.3.35-.25.1-.15-.15.9q-.4.5-1.3.5m-7.2-1.35q1 .25 1.55.65l-.9.8q-.05-.95-.65-1.45m-4.35 1.8-.55.55q-.45-1.3.05-2.6l.5-.75.25.7q-.55 1.15-.25 2.1"/><path fill="#f2f2f2" d="m13.95 14.15-.15.25-.8-.5-.75.95-.4-.05 1.1-1.4.5.4z"/><path fill="#b22323" d="M13 16.4h.05l.05.5v.15l-.1.5h-.2l-.25.05h-.25l-.1-.65v-.4l.1-.05z"/><path fill="url(#i)" d="M41.35 45.2q2.2-2.1 3.55-1.85l.5 1.1q.45 1.2.2 1.75-.2.6-1.25.35l-1.75-.25-1.15-.45v-.15l-.05-.5z" transform="translate(-28.35 -28.8)"/><path fill="url(#j)" d="m38.15 47.75-2 .35q-.5-.5-.55-2.1v-1.5l.4-.15q1.2-.35 2.55 0l.5.15 1.6.8-.1.05v.3l-.05.1-1.3 1-.35.35z" transform="translate(-28.35 -28.8)"/><path fill="url(#k)" d="m40.9 46.4-.2 1.7q-.2 1.75-.8 2.05-.9.45-2.7-1l.95-1.4.7-.65.35-.35 1.3-1h.05l.1.65z" transform="translate(-28.35 -28.8)"/><path fill="url(#l)" d="m41.45 45.85 1.15.45 2.45.8-.4.9-1 1.45q-1.85-1.7-2.5-3.1h.2z" transform="translate(-28.35 -28.8)"/><path fill="#b22323" d="m9.4 17.2.95-.3 1.65.15zm5.1-.9 1.05-.15-.7.5q-.9.5-1.85.35.4-.45 1.5-.7"/></g></defs></svg>