<?xml version="1.0" encoding="UTF-8" standalone="no"?>
<svg xmlns:ffdec="https://www.free-decompiler.com/flash" xmlns:xlink="http://www.w3.org/1999/xlink" ffdec:objectType="frame" height="61.6px" width="59.55px" xmlns="http://www.w3.org/2000/svg">
  <g transform="matrix(1.0, 0.0, 0.0, 1.0, 16.15, 13.9)">
    <use ffdec:characterId="1" height="61.6" transform="matrix(1.0, 0.0, 0.0, 1.0, -16.15, -13.9)" width="59.55" xlink:href="#shape0"/>
  </g>
  <defs>
    <g id="shape0" transform="matrix(1.0, 0.0, 0.0, 1.0, 16.15, 13.9)">
      <path d="M38.05 -1.15 L24.4 10.4 Q23.4 11.2 22.5 11.2 L21.75 11.05 21.15 10.4 19.55 8.55 19.65 8.0 Q19.8 7.4 20.1 7.1 L33.4 -3.7 Q34.65 -4.5 35.3 -4.55 L35.9 -4.35 36.3 -4.25 37.7 -2.75 38.05 -1.95 38.05 -1.15" fill="url(#gradient0)" fill-rule="evenodd" stroke="none"/>
      <path d="M5.1 22.1 L5.6 23.15 5.55 23.2 Q4.0 25.35 3.9 26.15 3.7 27.55 4.6 29.55 4.5 30.15 2.5 30.8 0.2 31.5 -0.5 32.75 L-4.7 40.2 -7.9 45.95 -9.05 47.7 Q-10.9 46.8 -13.55 43.55 L-15.8 40.45 -14.4 37.9 -2.0 25.8 Q-0.55 24.8 0.7 24.25 0.95 22.4 2.5 20.1 3.7 20.45 5.1 22.1" fill="url(#gradient1)" fill-rule="evenodd" stroke="none"/>
      <path d="M-7.9 45.95 Q-8.5 48.75 -11.5 46.3 L-14.4 43.35 Q-16.45 40.7 -15.65 39.05 L-14.4 37.95 -7.9 45.95" fill="#000000" fill-opacity="0.29803923" fill-rule="evenodd" stroke="none"/>
      <path d="M37.7 -2.75 L36.3 -4.25 35.9 -4.35 39.5 -7.45 Q40.3 -7.6 41.25 -5.65 L37.7 -2.75 M40.4 -13.9 L41.75 -12.6 42.3 -13.0 Q43.65 -12.1 43.35 -11.3 L35.3 -4.55 Q34.65 -4.5 33.4 -3.7 L20.1 7.1 Q19.8 7.4 19.65 8.0 L19.55 8.55 21.15 10.4 18.35 12.4 Q18.65 13.25 18.4 13.5 L13.65 17.05 7.15 21.7 Q6.0 22.6 5.6 23.15 L5.1 22.1 Q3.7 20.45 2.5 20.1 L5.0 16.65 14.35 8.65 15.1 8.75 40.45 -11.65 39.95 -13.55 40.4 -13.9" fill="#003366" fill-rule="evenodd" stroke="none"/>
      <path d="M10.2 13.85 L13.8 10.8 14.8 12.0 11.15 14.85 10.2 13.85" fill="#ffffff" fill-opacity="0.49803922" fill-rule="evenodd" stroke="none"/>
      <path d="M35.45 0.75 L22.2 11.3 22.0 10.3 22.0 9.8 34.2 0.1 35.45 0.75" fill="#ffffff" fill-opacity="0.29803923" fill-rule="evenodd" stroke="none"/>
      <path d="M35.95 -4.15 L38.6 -6.15 40.25 -7.45 40.7 -6.9 39.2 -5.7 36.75 -3.75 35.95 -4.1 35.95 -4.15 M34.2 0.1 L36.5 -1.75 38.15 -1.8 38.45 -1.65 35.45 0.75 34.2 0.1 M16.15 10.05 L14.95 10.85 Q10.35 14.05 6.4 18.35 2.65 22.45 2.35 23.95 L2.15 24.9 Q1.75 25.9 0.8 26.0 L-0.95 27.05 -7.6 33.6 -8.9 34.95 -14.65 40.35 -14.8 40.45 -16.1 40.3 -16.15 40.05 -10.25 33.95 -8.1 31.8 -1.85 25.6 0.8 24.45 0.85 24.0 0.8 24.0 Q0.95 21.5 2.95 19.0 L4.9 16.9 13.95 9.0 Q15.45 8.9 16.15 10.05 M16.95 10.4 L19.4 8.8 20.05 9.55 17.55 11.3 16.95 10.4 M42.4 -12.5 L42.9 -12.15 16.05 9.5 15.45 8.6 42.4 -12.5 M1.15 31.5 Q0.25 31.55 -2.55 36.15 L-3.7 38.1 -6.6 43.5 -4.85 38.3 -4.35 37.05 Q-2.85 33.4 -0.7 30.7 L2.25 30.25 3.9 30.35 Q2.55 30.95 1.15 31.5" fill="#ffffff" fill-opacity="0.49803922" fill-rule="evenodd" stroke="none"/>
    </g>
    <linearGradient gradientTransform="matrix(0.0113, 0.0, 0.0, 0.0096, 28.8, 3.3)" gradientUnits="userSpaceOnUse" id="gradient0" spreadMethod="pad" x1="-819.2" x2="819.2">
      <stop offset="0.0" stop-color="#8edef3"/>
      <stop offset="1.0" stop-color="#eefdff"/>
    </linearGradient>
    <linearGradient gradientTransform="matrix(0.0131, 0.0, 0.0, 0.0168, -5.1, 33.9)" gradientUnits="userSpaceOnUse" id="gradient1" spreadMethod="pad" x1="-819.2" x2="819.2">
      <stop offset="0.0" stop-color="#8edef3"/>
      <stop offset="1.0" stop-color="#eefdff"/>
    </linearGradient>
  </defs>
</svg>
