<?xml version="1.0" encoding="UTF-8" standalone="no"?>
<svg xmlns:ffdec="https://www.free-decompiler.com/flash" xmlns:xlink="http://www.w3.org/1999/xlink" ffdec:objectType="frame" height="20.35px" width="20.85px" xmlns="http://www.w3.org/2000/svg">
  <g transform="matrix(1.0, 0.0, 0.0, 1.0, -1.35, -4.75)">
    <use ffdec:characterId="3" height="20.35" transform="matrix(1.0, 0.0, 0.0, 1.0, 1.35, 4.75)" width="20.85" xlink:href="#shape0"/>
  </g>
  <defs>
    <g id="shape0" transform="matrix(1.0, 0.0, 0.0, 1.0, -1.35, -4.75)">
      <path d="M21.8 22.9 L21.95 23.8 22.15 24.75 19.7 24.55 Q16.75 23.75 14.05 20.55 13.8 21.7 14.9 25.1 13.45 24.95 12.0 23.35 10.75 21.9 10.4 20.6 10.25 19.9 10.25 18.85 9.9 19.75 8.7 20.8 L6.7 22.65 5.5 24.05 Q4.95 22.55 5.45 20.2 5.8 18.4 6.4 17.4 6.75 16.55 7.4 16.1 L7.9 15.8 7.4 15.5 Q5.9 14.65 4.2 12.3 L3.95 11.95 1.5 8.15 Q1.1 7.5 1.7 6.75 2.25 6.05 2.8 6.35 5.2 7.8 7.5 11.0 L7.6 11.15 9.5 14.2 11.4 14.95 11.7 15.05 11.6 14.85 11.85 15.1 13.55 17.1 18.15 18.05 Q21.6 19.1 22.2 20.7 L21.8 22.9" fill="#000000" fill-opacity="0.29803923" fill-rule="evenodd" stroke="none"/>
      <path d="M21.95 22.3 L22.15 23.25 19.7 23.05 Q16.75 22.25 14.05 19.05 13.8 20.2 14.9 23.6 13.45 23.45 12.0 21.85 10.75 20.4 10.4 19.1 10.25 18.4 10.25 17.35 9.9 18.25 8.7 19.3 L6.7 21.15 5.5 22.55 Q4.95 21.05 5.45 18.7 5.8 16.9 6.4 15.9 6.75 15.05 7.4 14.6 L7.9 14.3 7.4 14.0 Q5.9 13.15 4.2 10.8 L3.95 10.45 1.5 6.65 Q1.1 6.0 1.7 5.25 2.25 4.55 2.8 4.85 5.2 6.3 7.5 9.5 L7.6 9.65 9.5 12.7 11.4 13.45 11.7 13.55 11.6 13.35 11.85 13.6 13.55 15.6 18.15 16.55 Q21.6 17.6 22.2 19.2 L21.8 21.4 21.95 22.3" fill="#65933b" fill-rule="evenodd" stroke="none"/>
      <path d="M21.8 21.4 L21.95 22.3 Q19.65 22.65 17.0 20.05 19.65 18.65 22.15 19.6 L21.8 21.4 M7.5 9.5 L7.6 9.65 9.5 12.7 7.7 14.05 10.4 16.75 10.3 17.25 10.9 16.7 11.45 16.15 11.8 15.5 11.8 14.0 11.85 13.6 13.55 15.6 Q13.15 17.65 13.5 20.35 L11.55 17.9 10.4 19.1 Q10.25 18.4 10.25 17.35 9.9 18.25 8.7 19.3 L8.35 17.35 6.4 15.9 Q6.75 15.05 7.4 14.6 L7.9 14.3 7.4 14.0 Q5.9 13.15 4.2 10.8 7.45 12.45 7.5 9.5" fill="#000000" fill-opacity="0.49803922" fill-rule="evenodd" stroke="none"/>
    </g>
  </defs>
</svg>
