<svg xmlns="http://www.w3.org/2000/svg" xmlns:ffdec="https://www.free-decompiler.com/flash" xmlns:xlink="http://www.w3.org/1999/xlink" ffdec:objectType="frame" width="88.4" height="34.4"><use ffdec:characterId="1" xlink:href="#a" width="88.4" height="34.4"/><defs><g id="a" fill-rule="evenodd"><path fill="#e5e5e5" d="m52.65 16.85.15 4.2 4.1.25q6.7.7 12.7 3.35 1.4 1.65-2.4 2.2-.15 2.4-4.3 1.4.1 2.9-4.2 1-.05 1.4-1 1.85-1.1.5-2.65-.75-3.25-6.2-3.9-8v-.05l-1.45 1.2-.4.25-2.1 1.1-3.4.45h-.15l-3.1-.45q-1.5-.35-3.8-2.9-3.05-3.6-4.15-7.2Q31 12.3 31.3 10q.8 1.5 2.2 2.3 1.2.75 3.15.95h.05q2.1-2.45 3.4-6.9l2.6.3q.1 1.45.55 1.85 4.45 5.4 8.05 7.3zM42.45 21q2.25-5.2.1-10.95.5 4.4-2.4 7.65l-2.8-.5q-1.75-.75-3.35-2.4 1.9 3.5 4.5 5.05 1.8 1.05 3.95 1.15"/><path fill="#c99" d="M47.2 24.85 47.05 26l.05 2.45q.25 1.6.55 1.6-1.05 0-1.7-1.2l-.55-1.35q-.4 1.25.15 2.55-2.1 0-1.85-2.05-.5.65-.15 1.45l.35.6q-2.25 0-1.7-2.05l.5-1.25.95-1.45h.15z"/><path fill="#666" d="M42.7 6.65q.1-1.45.65-2.2.85-1.15 3.05-1.15Q50.7 4.65 56.7 6q12 2.65 20.6 2.55 2.05 0 4.7-1.1l5.35-2.1q2.65-.95-1.3 2.2-3.9 3.1-5.1 3.45 6.5-1.7 1.45 1.65-5.1 3.3-8.7 3.6l1.7.6q.6.35.15.85-1.4 1.45-4.15 1.85-1.75.2-3.45 0 2.3 1.95-3.3 1.8-5.6-.2-12-4.5L51.3 15.8q-3.6-1.9-8.05-7.3-.45-.4-.55-1.85m-5.95 15.3.25.85q.2.95 0 1.7l-.4.75q-1.8.65-2.5-2.4.5 4.55-.8 6.05-1.7 1.9-2.7-1.2l-.05 2.55q-.2 1.3-1.25 2.05l-.2.1q-2.5 1.55-2.55-2.15l.25-2.15q-.55 4.15-1.75 5.4-.65.65-1.35.65-1.7 0-1.35-2.35l.7-2.4-1.1 2.65q-1.55 2.6-4.1 2.35-1.4-.1 0-3.45l1.7-3.3-2.05 2.95q-2.65 2.75-5.95 1.55Q8.6 31.1 11 29.3q.8-.6 4.75-2.55-7.45 1.35-11.95-.6-5.3-2.35-3.2-2.9l3.2-.1 10.6-.55q3.35-.8 8.75-4.2 6.15-4.45 7.05-4.35l.7.1q1 .1 1.7.6 1.1 3.6 4.15 7.2m5.7-.95q-2.15-.1-3.95-1.15-2.6-1.55-4.5-5.05 1.6 1.65 3.35 2.4l2.8.5q2.9-3.25 2.4-7.65 2.15 5.75-.1 10.95"/><path fill="#900" d="M32.5 6q-.95.45-3-.9l-.05-.05 1.9-.55v.05q.3.7 1.15 1.45"/><path fill="red" d="m33 5.35-.05.15-.25.4-.2.1q-.85-.75-1.15-1.45V4.5l1.75-1.2v1.15l-.3-.1-.4.15-.15.35.15.35q.15.15.4.15z"/><path fill="#930" d="M28.35 8.3q-2.95-.45-3.25 1.35l-.05.25q-1.75-2.95.75-5.45 1.75-.7 2.35 1.75zM25.4 6.8q-.2-.3.1-.7.25-.35 1-.5.75-.25.5-.5l-.65-.15-.75.45-.45.75q-.1.4.15.65t.1 0"/><path fill="#ccc" d="m28.5 2.6.45-.6 1.35-.85L31.8.6l.75.05q.1.2-.4.65l-1.35.85-1.5.55zm4.8 2.5-.15.65-.25.45-.25.15q-1.1.5-3.55-1.15l.4-.1q2.05 1.35 3 .9l.2-.1.25-.4.05-.15.2-.15zm-.2-1.75.25-.2V4.7l-.15-.2-.1-.05z"/><path fill="#fff" d="m33.3 5.1-.1.1-.2.15h-.2q-.25 0-.4-.15l-.15-.35.15-.35.4-.15.3.1.1.05.15.2v.15z"/><path fill="#f90" d="M25.4 6.8q.15.25-.1 0t-.15-.65l.45-.75.75-.45.65.15q.25.25-.5.5-.75.15-1 .5-.3.4-.1.7"/><path fill="#999" d="M31.3 10v-.1l-.05-.05-2.9-1.55-.2-2.1q-.6-2.45-2.35-1.75L27.25 3l.95-.85q2.1-2.7 5.95-2 4.65 1 7.15-.1-.55 2.95-3.15 3.7l.75.55q1 .45 3.05-.3-.5 1.5-2.15 2l.3.35q-1.3 4.45-3.4 6.9h-.05q-1.95-.2-3.15-.95-1.4-.8-2.2-2.3m-2.8-7.4.8.1 1.5-.55 1.35-.85q.5-.45.4-.65L31.8.6l-1.5.55-1.35.85zm1 2.5-.4.1q2.45 1.65 3.55 1.15l.25-.15.25-.45.15-.65.05-.25v-1.7l-.25.2V3.3l-1.75 1.2-1.9.55z"/><path fill-opacity=".298" d="M83.5 6.75q4.15-1.85 4.6-1.15.4.7-2.8 2.9T80.9 11q5.45-.95 1.65 1.7-3.8 2.6-8.85 3.55l1.7.6q.6.35.15.85-1.4 1.45-4.15 1.85-1.75.2-3.45 0 1.8 1.5-3.55 1.55t-11.75-4.25l.15 4.2 4.1.25q6.7.7 12.7 3.35 1.4 1.65-2.4 2.2-.15 2.4-4.3 1.4.1 2.9-4.2 1-.05 1.4-1 1.85-1.1.5-2.65-.75-3.25-6.2-3.9-8v-.05l-1.45 1.2-.4.25-2.1 1.1-.15 1.15.05 2.45q.25 1.6.55 1.6-1.05 0-1.7-1.2l-.55-1.35q-.4 1.25.15 2.55-2.1 0-1.85-2.05-.5.65-.15 1.45l.35.6q-2.25 0-1.7-2.05l.5-1.25.95-1.45-3.1-.45q-1.5-.35-3.8-2.9l.25.85q.2.95 0 1.7l-.4.75q-1.8.65-2.5-2.4.5 4.55-.8 6.05-1.7 1.9-2.7-1.2l-.05 2.55q-.2 1.3-1.25 2.05l-.2.1q-2.5 1.55-2.55-2.15l.25-2.15-.1.6q-.55 3.65-1.65 4.8-.65.65-1.35.65-1.7 0-1.35-2.35l.7-2.4-1.1 2.65q-1.55 2.6-4.1 2.35-1.4-.1 0-3.45l1.7-3.3-2.05 2.95q-2.65 2.75-5.95 1.55Q8.6 31.1 11 29.3q.8-.6 4.75-2.55-7.45 1.35-11.95-.6-5.3-2.35-3.2-2.9l3.2-.1 9.3-.3q-3.35 1.65-3.3 2 .15 1.15 6.25 1.25-1.2 4.4.9 3.4 1.3-.6 3.5-3.05l-.6 2.7q-.2 1.65.75 1.65t2.05-1.95l.9-2.05.05 2.05q.25 2 1.1 1.7t1.7-3.2l.7-2.8.4 2.75q.5 2.3 1.35 1.5.5-.2.9-2.8l.3-2.7.7 1.75q.8 1.65 1.4 1.1t.9-2.7l.15-2.05q.95 1.3 1.8 1.15.45-.05.1-1.6l-.8-2.4q2.35 2.35 5.15 2.8l3.55-.2q5-1.15 3.85-8.7 1.25 1 6 3.4 6.4 3.2 9.6 3.25 1.3 0-1.85-2.85 6.85 1.95 8.3 1.15t-3.15-2.65q1.1.2 4.05 0 2.9-.2 4.85-1.1 1.9-.95-7.35-1.95l3.85-.7q9.95-.95 2.45-2.5l3.7.05q2.05 0 6.2-1.8"/><path fill-opacity=".298" d="M65.05 9.8q-.5-.75-1.85-1.65 6.9 2.25 3.8 2.95l-6.55-.45q6.2 3.25 2.85 3.25-3.4 0-6.95-1.35 4.75 4.5.95 3.75t-6.95-2.65q6.55 1.75 6.1.3-.45-1.5-1.15-2.3-.75-.85-1-.95 7.5 2.2 6.6 1.1t-2.7-2.25zM52.8 21.05l4.1.25q-.1 1.7-.95 2.5-1.05.9-3.6.95v.05q-.8-1.15-1.2-2.45l1.3-1.05zm8.05 3.05q1.9-.4-.9-1.8 7.8 2.55 1.15 2.9 2.15 3.9-3.35 2-.05 1-.75 1.3-.75.25-2.95-1.8l1.25.6q1.9 1 .9-1.35l2.6.4q2.3.1-.1-2.15zm-33-17.45q1.45.15 2.25 1 .8.8 2.65 1.35 1.8.5 3.8-.85-.95 2.05-2.25 1.9.35 1.15 1.15 1.8.75.65.9.55l.25.5.05.35q.1 2.05.7 3.95l1.15 2.65.95 1.5.8 1.05.85.85q3.15 1.3 6.6.65l2-.4-.4.25-2.1 1.1-.15 1.15q-3.7-.15-4.35.75l.95-1.45-3.1-.45q-1.5-.35-3.8-2.9l.25.85-1.55-1.5-.35-.35-1.9-2.2-.6-.8q-.8-1.15-.95-2.15l-.75-1.65q1 .1 1.7.6Q31 12.3 31.3 10v-.1l-.05-.05-2.9-1.55q-2.95-.45-3.25 1.35l.05-1.8.05-.1q1.25-1.3 2.65-1.1m4.45 14.6.55-2.1q-.2 5.15-1.4 3.6-.55-.8-1.1-2.6-1.7 6.3-2.65 4.75-1.05-1.55-1.35-3.05-5.4 5.55-4.95 3.65l.8-2.85.45-.65q-7.95 3.55-4.5.4l2.2-2.25q-2.1 2.9.55 1.25l3.2-2.25q-1.3 4.85.4 2.95l2.2-2.95q1 4.75 2.45 2.85l1.2-2.85q1.25 3.5 1.95 2.1"/><path fill="#c28989" d="M51.75 22.3h-.05q-1 1.15-1.15 2.9l.05 1.5q-1.5-.85-1.45-1.9l.3-.85q-1.05.9-.75 2.4-2.05-.85-.95-2.55-.75.4-.75 1.25l.15.65q-2.3-.85-.55-2.75 1.35-.8 2.65-1.25 2.6-.95 2.5.6"/></g></defs></svg>