<svg xmlns="http://www.w3.org/2000/svg" xmlns:ffdec="https://www.free-decompiler.com/flash" xmlns:xlink="http://www.w3.org/1999/xlink" ffdec:objectType="frame" width="59.6" height="57.25"><use ffdec:characterId="1" xlink:href="#a" width="59.6" height="57.25"/><defs><linearGradient id="b" x1="-819.2" x2="819.2" gradientTransform="matrix(.0267 0 0 .0256 6.6 36)" gradientUnits="userSpaceOnUse" spreadMethod="pad"><stop offset="0" stop-color="#707070"/><stop offset="1" stop-color="#fff"/></linearGradient><linearGradient id="c" x1="-819.2" x2="819.2" gradientTransform="matrix(.0018 0 0 .0031 24.35 15.35)" gradientUnits="userSpaceOnUse" spreadMethod="pad"><stop offset="0" stop-color="#707070"/><stop offset="1" stop-color="#fff"/></linearGradient><linearGradient id="d" x1="-819.2" x2="819.2" gradientTransform="matrix(.0035 0 0 .0055 15.6 23.75)" gradientUnits="userSpaceOnUse" spreadMethod="pad"><stop offset="0" stop-color="#707070"/><stop offset="1" stop-color="#fff"/></linearGradient><linearGradient id="e" x1="-819.2" x2="819.2" gradientTransform="matrix(.0128 0 0 .015 -5.35 44.9)" gradientUnits="userSpaceOnUse" spreadMethod="pad"><stop offset="0" stop-color="#707070"/><stop offset="1" stop-color="#fff"/></linearGradient><g id="a"><path fill="#f90" fill-rule="evenodd" d="M56.9 5.65V6l-2.9.05-.05-.05H54l-1.65-.85-.05-.05-1.15-2V.25l.45.05q1.7.85 2.05 2.05-.15 0-.35.2-.3.4-.25.7l.1.45.15.2.7.3q.4 0 .6-.3l.25-.3q.55 1.7 2.05 2.05M40.5 9.3q2.45 1.05 3.35 3.25l.25.45.55.3q.9 2 3.55 3.45h-.1l-1.55-.2-1.4-.45-.25-.15V16q-2.6-.95-3.75-4l-.15-.45q-.4-1.25-.5-2.25"/><path fill="#fc0" fill-rule="evenodd" d="M51.6.3q2.35-.7 4.75.3h.15q1.15 2.55.4 5.05-1.5-.35-2.05-2.05l.1-.35-.3-.7-.2-.15-.45-.1-.35.05Q53.3 1.15 51.6.3m4.2.85.1-.15q-.05-.2-.5-.3l-.25-.05L54.6.6h-1.1q-.4.15-.3.25-.1.1.1.2l.2.05 1.05.2.8-.15zM40.5 9.3l.2-.8q.5-.65 4.45.4h.05l1.25 1.25 1.9 1.9h-.05q1.3 3.8.5 4.55l-.6.15q-2.65-1.45-3.55-3.45h.15q.4 0 .6-.3l.35-.65-.3-.7-.3-.2-.3-.05h-.3q-.1 0-.15.1h-.05v.05l-.25.1q-.3.4-.25.7v.2q-.9-2.2-3.35-3.25m3.8 0 .15-.15-.65-.4-.3-.05-.7-.05h-1.35q-.5.15-.4.3-.15.1.15.25l.2.05 1.35.25 1-.15z"/><path fill="#fff" fill-rule="evenodd" d="M55.8 1.15h-.45l-.8.15-1.05-.2-.2-.05q-.2-.1-.1-.2-.1-.1.3-.25h1.1l.55.05.25.05q.45.1.5.3zM54.2 2.4l.1.05.2.4-.05.15-.15.15-.3.2-.4-.2-.05-.1-.05-.2.1-.4.2-.1h.2zm-9.85 9.15v-.05h.05q.05-.1.15-.1h.3l.1.05.1.05.2.4-.05.15-.15.15-.3.2-.4-.2-.05-.1-.05-.2zm-23.4 21.2 7.6-7.6.1 3.2-7.6 7.7zm13.3-13.35 3-3 .15 3.1-3.05 3.1zM44.3 9.3l-.55.05-1 .15-1.35-.25-.2-.05q-.3-.15-.15-.25-.1-.15.4-.3h1.35l.7.05.3.05.65.4z"/><path fill="red" fill-rule="evenodd" d="m54.85 3.6-.25.3q-.2.3-.6.3l-.7-.3-.15-.2-.1-.45q-.05-.3.25-.7.2-.2.35-.2L54 2.3l.45.1.2.15.3.7zm-.65-1.2-.2-.05h-.2l-.2.1-.1.4.05.2.05.1.4.2.3-.2.15-.15.05-.15-.2-.4zM43.85 12.55v-.2q-.05-.3.25-.7l.25-.1-.1.35.05.2.05.1.4.2.3-.2.15-.15.05-.15-.2-.4-.1-.05-.1-.05.3.05.3.2.3.7-.35.65q-.2.3-.6.3h-.15l-.55-.3z"/><path fill="#f60" fill-rule="evenodd" d="m44.9 16-.55.55v-.05l-2.65-1.4-.95-2.15.5-.6-.1-.35q1.15 3.05 3.75 4"/><path fill="#c6c6c6" fill-rule="evenodd" d="m37.25 16.4.25-.25 1.2-1.2.15 3.1-1.2 1.2-.25.25z"/><path fill="url(#b)" fill-rule="evenodd" d="m28.5 16.45-5.35 5.4-1.2 1.15-.25.3-3.05 3-5.7 5.7-7.6 7.6-16.6 16.65L-15 57l-.3-.3L5.2 35.95l7.6-7.7 5.7-5.75 3.05-3.1.25-.25 1.2-1.2L25.85 15l2.65 1.4z" transform="translate(15.85 .1)"/><path fill="url(#c)" fill-rule="evenodd" d="m22.85 14.85 2-2.05.05.05.95 2.15L23 17.95z" transform="translate(15.85 .1)"/><path fill="url(#d)" fill-rule="evenodd" d="m12.7 25.05 5.7-5.75.1 3.2-5.7 5.75z" transform="translate(15.85 .1)"/><path fill="url(#e)" fill-rule="evenodd" d="m-15 57-.85.15.95-4.5 20-20 .1 3.3-20.5 20.75z" transform="translate(15.85 .1)"/><path fill="#5b0202" fill-rule="evenodd" d="m52.7 6.85-.15.35q-.05.45-.9.85l-1.05-1.9q.9.15 1.1-1.1zM50.65 9.3l-.15.15q-.05.65-.9 1.05l-1.2-2.2q.75.2 1.1-1.1zm-2.1 2.5-.2.2-1.85-1.85q.35.15.75-.75z"/><path fill="#aa1e1f" fill-rule="evenodd" d="M53.95 6h-.45q0 .5-.8.85l-1-1.8.65.1L54 6zm-2.3 2.05-.1.15-.9 1.05v.05L49.5 7.2q.75.25 1.1-1.05zM49.6 10.5l-.1.15-.55.85-.4.3-1.3-2.4q1.05.3 1.15-1.1z"/><path fill="#c62d2e" fill-rule="evenodd" d="m46.5 10.15-1.3-1.3q.2-.9 1.2-1l.85 1.55q-.4.9-.75.75m1.1-3.3q.3-.95 1.05-.9l.1-.1.75 1.35q-.35 1.3-1.1 1.1zm2.3-2q.15-.85 1.15-1l.65 1.2q-.2 1.25-1.1 1.1z"/><path fill="#ff4848" fill-rule="evenodd" d="m46.4 7.85.05-.35q.25-.7 1.05-.55l.1-.1.8 1.45q-.1 1.4-1.15 1.1zm2.35-2v-.2q.3-.7 1.05-.7l.1-.1.7 1.3q-.35 1.3-1.1 1.05zm2.3-2 .15-.15-.05-.55V3.1l1.15 2 .05.05-.65-.1z"/><path fill="#fff" fill-opacity=".298" fill-rule="evenodd" d="m50.85 4.1.1.05.2.4-.05.15-.15.15-.3.2-.4-.2-.05-.1-.05-.2.1-.4.2-.1h.2zM49.7 5.25l.1.05.2.4-.05.15-.15.15-.3.2-.4-.2-.05-.1q-.1-.1-.05-.2l.1-.4.2-.1h.2zM48.25 6.25h.2l.2.05.1.05.2.4-.05.15-.15.15-.3.2-.4-.2-.05-.1-.05-.2.1-.4zM47.5 7.3l.2.4-.05.15-.15.15-.3.2-.4-.2-.05-.1-.05-.2.1-.4.2-.1h.2l.2.05zM46.4 8.4l.2.4-.05.15-.15.15-.3.2-.4-.2-.05-.1q-.1-.1-.05-.2l.1-.4.2-.1h.2l.2.05z"/><path fill="red" fill-rule="evenodd" d="M56.6 14.55q-.8 3.35-.65 6.65l-.75-.3.55-4.65q.1-.85.35-1.3l.3-.4z"/><path fill="#ad0000" fill-rule="evenodd" d="M56.6 14.55h.6l.35.4q.3.55.25 1.6t.55 4.5l-1 .4-.25-2.9-.15 2.85-1-.2q-.15-3.3.65-6.65"/><path fill="none" stroke="red" stroke-linecap="round" stroke-linejoin="round" stroke-width=".5" d="m57.8 10.45-.4.15q-.25 0-.4-.15t-.15-.4.15-.4.4-.15l.4.15.15.4zm-.4 1.75-.15-.5q0-.3.15-.5l.15-.25q.3-.3.75-.3l.75.3.3.75-.3.75-.75.3q-.45 0-.75-.3zm-.7-3.15-.1-3.35m1.35 8.1-.4.15-.4-.15q-.15-.15-.15-.4t.15-.4.4-.15l.4.15.15.4zm-1.35-.4-.15.4-.4.15q-.25 0-.4-.15l-.15-.4q0-.25.15-.4t.4-.15l.4.15zm-1.25-3.35q0-.25.15-.4t.4-.15.4.15l.15.4-.15.4-.4.15-.4-.15zm-.95.95q.3-.3.75-.3t.75.3l.15.25.15.5-.15.5-.15.25q-.3.3-.75.3t-.75-.3-.3-.75.3-.75"/><path fill="#0c9" fill-rule="evenodd" d="m56.75 11.75.15-.35-.15-.4-.35-.1-.4.1-.15.4.15.35.4.15zm.7.85q-.3.4-.8.4-.45 0-.85-.4-.35-.3-.35-.8t.35-.9q.4-.3.85-.3.5 0 .8.3.4.4.4.9t-.4.8"/><path fill="#9ff" fill-rule="evenodd" d="m56.75 11.75-.35.15-.4-.15-.15-.35.15-.4.4-.1.35.1.15.4z"/><path fill="none" stroke="#030" stroke-linecap="round" stroke-linejoin="round" stroke-width=".5" d="M57.45 12.6q-.3.4-.8.4-.45 0-.85-.4-.35-.3-.35-.8t.35-.9q.4-.3.85-.3.5 0 .8.3.4.4.4.9t-.4.8"/><path fill="#0c9" fill-rule="evenodd" d="m56.5 9 .2-.1.1-.2-.1-.25-.2-.05-.25.05-.1.25.1.2zm.15.65-.55-.25-.2-.45.2-.55.55-.2.5.2.2.55-.2.45z"/><path fill="#9ff" fill-rule="evenodd" d="m56.5 9-.25-.1-.1-.2.1-.25.25-.05.2.05.1.25-.1.2z"/><path fill="#0c9" fill-rule="evenodd" d="m57.3 13.95.2.55-.2.45-.5.25-.55-.25-.2-.45.2-.55q.25-.2.55-.2zm-.45.05-.2-.05-.25.05-.1.25.1.2.25.1.2-.1.1-.2z"/><path fill="#9ff" fill-rule="evenodd" d="m56.85 14 .1.25-.1.2-.2.1-.25-.1-.1-.2.1-.25.25-.05z"/></g></defs></svg>