<?xml version="1.0" encoding="UTF-8" standalone="no"?>
<svg xmlns:ffdec="https://www.free-decompiler.com/flash" xmlns:xlink="http://www.w3.org/1999/xlink" ffdec:objectType="frame" height="56.25px" width="69.9px" xmlns="http://www.w3.org/2000/svg">
  <g transform="matrix(1.0, 0.0, 0.0, 1.0, 30.65, 4.65)">
    <use ffdec:characterId="1" height="56.25" transform="matrix(1.0, 0.0, 0.0, 1.0, -30.65, -4.65)" width="69.9" xlink:href="#shape0"/>
  </g>
  <defs>
    <g id="shape0" transform="matrix(1.0, 0.0, 0.0, 1.0, 30.65, 4.65)">
      <path d="M-15.4 2.9 Q-11.75 -0.9 -9.55 -4.35 L0.8 4.0 Q-2.8 7.75 -5.15 11.45 L-6.2 13.3 -6.9 14.6 Q-8.5 17.65 -9.2 20.65 -9.65 22.65 -9.7 24.3 -9.8 25.95 -9.45 27.2 -19.15 28.1 -25.7 20.05 -29.0 16.05 -30.35 11.85 L-27.2 11.2 Q-25.55 10.65 -23.8 9.65 -21.25 8.15 -18.0 5.4 L-16.9 4.45 -15.4 2.9" fill="#585858" fill-rule="evenodd" stroke="none"/>
      <path d="M38.65 50.75 Q38.0 51.35 37.05 51.6 L1.15 21.35 -4.6 16.5 -4.9 15.55 Q-5.1 14.8 -4.9 14.35 L38.65 50.75 M-18.3 5.1 L-23.7 0.6 -23.25 -0.75 -17.2 4.15 -18.3 5.1" fill="#513624" fill-rule="evenodd" stroke="none"/>
      <path d="M-10.0 24.0 Q-10.1 25.65 -9.75 26.9 -19.45 27.8 -26.0 19.75 -29.3 15.75 -30.65 11.55 L-27.5 10.9 Q-26.1 14.95 -22.85 18.2 -17.45 23.6 -10.0 24.0" fill="#ffffff" fill-rule="evenodd" stroke="none"/>
      <path d="M-23.25 -0.75 Q-22.7 -1.8 -21.35 -2.05 L-15.7 2.6 -17.2 4.15 -23.25 -0.75 M-2.45 13.7 L4.1 19.2 39.25 48.85 Q39.35 49.8 38.65 50.75 L-4.9 14.35 Q-4.5 13.3 -2.45 13.7" fill="#946748" fill-rule="evenodd" stroke="none"/>
      <path d="M-4.6 16.5 L-7.2 14.3 -6.5 13.0 -4.9 14.35 Q-5.1 14.8 -4.9 15.55 L-4.6 16.5" fill="#331b0b" fill-rule="evenodd" stroke="none"/>
      <path d="M-5.45 11.15 L-2.45 13.7 Q-4.5 13.3 -4.9 14.35 L-6.5 13.0 -5.45 11.15" fill="#744829" fill-rule="evenodd" stroke="none"/>
      <path d="M-15.7 2.6 Q-12.05 -1.2 -9.85 -4.65 L0.5 3.7 Q-3.1 7.45 -5.45 11.15 L-6.5 13.0 -7.2 14.3 Q-8.8 17.35 -9.5 20.35 -9.95 22.35 -10.0 24.0 -17.45 23.6 -22.85 18.2 -26.1 14.95 -27.5 10.9 -25.85 10.35 -24.1 9.35 -21.55 7.85 -18.3 5.1 L-17.2 4.15 -15.7 2.6" fill="url(#gradient0)" fill-rule="evenodd" stroke="none"/>
    </g>
    <linearGradient gradientTransform="matrix(0.0115, -0.0151, 0.0153, 0.0117, -14.7, 7.15)" gradientUnits="userSpaceOnUse" id="gradient0" spreadMethod="pad" x1="-819.2" x2="819.2">
      <stop offset="0.0" stop-color="#666666"/>
      <stop offset="0.3764705882352941" stop-color="#ffffff"/>
      <stop offset="0.47843137254901963" stop-color="#ffffff"/>
      <stop offset="0.5019607843137255" stop-color="#65615a"/>
      <stop offset="0.6666666666666666" stop-color="#b4b4b4"/>
      <stop offset="1.0" stop-color="#ffffff"/>
    </linearGradient>
  </defs>
</svg>
