<?xml version="1.0" encoding="UTF-8" standalone="no"?>
<svg xmlns:ffdec="https://www.free-decompiler.com/flash" xmlns:xlink="http://www.w3.org/1999/xlink" ffdec:objectType="frame" height="28.35px" width="20.25px" xmlns="http://www.w3.org/2000/svg">
  <g transform="matrix(1.0, 0.0, 0.0, 1.0, -28.35, -28.8)">
    <use ffdec:characterId="1" height="28.35" transform="matrix(1.0, 0.0, 0.0, 1.0, 28.35, 28.8)" width="20.25" xlink:href="#shape0"/>
  </g>
  <defs>
    <g id="shape0" transform="matrix(1.0, 0.0, 0.0, 1.0, -28.35, -28.8)">
      <path d="M40.7 33.9 Q41.05 35.7 40.65 36.95 42.25 36.9 43.25 38.25 L43.85 39.7 Q46.55 41.35 44.55 43.55 L42.75 45.05 42.05 45.4 41.8 45.45 39.9 45.65 39.5 45.7 Q37.3 45.75 35.8 45.0 34.8 44.15 34.35 42.8 33.5 40.3 36.35 38.2 32.9 37.75 30.55 35.5 L29.3 33.95 28.95 33.4 Q32.45 32.8 35.8 34.75 L38.2 36.75 Q36.7 34.05 36.25 31.25 L36.25 28.85 36.25 28.8 Q39.95 30.5 40.7 33.9" fill="url(#gradient0)" fill-rule="evenodd" stroke="none"/>
      <path d="M43.85 51.55 L43.85 51.65 Q44.05 51.8 43.6 51.95 43.45 51.95 43.4 52.05 L43.25 52.1 41.85 52.3 40.6 52.2 40.8 51.55 40.8 51.3 40.7 50.75 39.4 50.8 38.55 51.45 Q38.15 51.15 37.0 50.8 L36.5 50.35 35.5 50.2 34.2 48.75 Q34.25 47.3 35.05 45.9 L35.8 45.0 Q37.3 45.75 39.5 45.7 39.55 46.4 39.95 47.7 L40.6 48.85 42.0 50.2 42.7 50.5 42.95 50.55 43.05 50.55 43.6 50.8 43.75 51.05 43.65 51.25 43.6 51.3 43.65 51.3 43.8 51.45 43.8 51.55 43.85 51.55" fill="#ffffff" fill-rule="evenodd" stroke="none"/>
      <path d="M42.95 50.55 L43.2 50.25 Q44.15 49.05 43.75 47.95 L43.25 46.95 Q42.5 45.7 41.75 45.45 L42.0 45.4 42.7 45.05 45.0 46.65 Q45.75 47.5 45.75 48.0 L45.9 48.35 Q46.1 49.75 45.25 51.0 L44.9 51.45 44.5 51.45 44.35 51.55 43.85 51.55 43.8 51.55 43.8 51.45 43.65 51.3 43.6 51.3 43.65 51.25 43.75 51.05 43.6 50.8 43.05 50.55 42.95 50.55" fill="url(#gradient1)" fill-rule="evenodd" stroke="none"/>
      <path d="M43.25 46.95 L43.75 47.95 Q44.15 49.05 43.2 50.25 L42.95 50.55 42.65 50.5 41.95 50.2 40.55 48.85 39.9 47.7 Q39.5 46.4 39.45 45.7 L39.85 45.65 41.75 45.45 Q42.5 45.7 43.25 46.95" fill="url(#gradient2)" fill-rule="evenodd" stroke="none"/>
      <path d="M35.5 50.1 L36.5 50.25 37.0 50.7 Q37.55 51.1 37.65 52.15 L39.4 50.7 40.7 50.65 40.8 51.2 40.8 51.45 40.6 52.1 39.6 54.3 39.45 54.6 39.3 54.95 39.1 55.55 38.7 56.1 Q37.2 58.1 35.95 56.1 L35.45 55.0 35.45 54.85 35.3 54.8 Q34.05 54.4 33.3 53.5 L33.15 53.3 32.55 52.45 Q32.3 51.35 32.85 50.3 33.45 49.25 34.2 48.65 L35.05 49.75 35.5 50.1 M47.15 49.45 L48.5 49.4 48.6 50.2 47.75 52.15 46.8 54.3 Q46.05 55.6 45.15 55.8 44.75 55.85 44.25 55.45 43.1 55.15 42.4 54.6 L42.25 54.7 Q43.05 53.4 43.15 52.1 L43.3 52.05 Q43.35 51.95 43.5 51.95 43.95 51.8 43.75 51.65 L43.75 51.55 44.3 51.55 44.45 51.45 44.85 51.45 45.2 51.0 45.45 50.9 45.55 50.75 46.65 49.85 47.15 49.45" fill="#ffffff" fill-rule="evenodd" stroke="none"/>
      <path d="M37.65 52.25 Q37.55 51.2 37.0 50.8 38.15 51.15 38.55 51.45 L37.65 52.25" fill="#ffffff" fill-rule="evenodd" stroke="none"/>
      <path d="M39.4 54.6 L39.55 54.3 40.55 52.1 41.8 52.2 43.2 52.0 Q43.1 53.3 42.3 54.6 L41.8 54.85 39.25 54.95 39.4 54.6" fill="url(#gradient3)" fill-rule="evenodd" stroke="none"/>
      <path d="M32.55 52.6 L31.8 53.35 29.5 53.4 28.7 52.75 Q28.05 51.8 28.65 50.35 29.25 48.75 31.0 49.05 32.2 49.2 32.55 49.8 L32.85 50.45 Q32.3 51.5 32.55 52.6" fill="url(#gradient4)" fill-rule="evenodd" stroke="none"/>
      <path d="M42.45 39.0 L42.5 39.0 42.75 39.1 42.85 39.4 42.85 39.5 42.75 39.7 42.5 39.8 42.4 39.8 42.35 39.8 42.15 39.7 42.1 39.6 42.05 39.5 42.05 39.4 42.05 39.35 42.15 39.1 42.4 39.0 42.45 39.0 M37.6 40.3 L37.65 40.25 Q37.75 40.1 37.95 40.1 L38.15 40.1 38.35 40.25 38.45 40.5 38.45 40.6 38.35 40.85 38.25 40.95 38.1 41.05 37.75 41.0 37.7 40.95 37.65 40.95 37.65 40.85 37.55 40.8 37.5 40.75 37.5 40.5 37.6 40.3" fill="#ffffff" fill-rule="evenodd" stroke="none"/>
      <path d="M41.5 39.8 Q41.5 39.45 41.75 39.15 42.0 38.9 42.3 38.9 42.65 38.9 42.95 39.15 L43.15 39.8 42.95 40.4 42.3 40.7 41.75 40.4 41.5 39.8 M42.45 39.0 L42.4 39.0 42.15 39.1 42.05 39.35 42.05 39.4 42.05 39.5 42.1 39.6 42.15 39.7 42.35 39.8 42.4 39.8 42.5 39.8 42.75 39.7 42.85 39.5 42.85 39.4 42.75 39.1 42.5 39.0 42.45 39.0 M37.95 40.1 L37.65 40.2 37.6 40.3 37.5 40.5 37.5 40.75 37.55 40.8 37.65 40.85 37.65 40.95 37.7 40.95 37.7 41.0 37.75 41.0 37.8 41.05 38.15 41.1 38.3 41.0 38.4 40.9 38.5 40.65 38.5 40.55 38.4 40.3 38.35 40.25 38.15 40.1 37.95 40.1 M36.75 40.95 Q36.75 40.55 37.05 40.25 37.3 40.0 37.65 40.0 L38.2 40.1 38.45 40.25 38.65 40.75 38.7 40.95 38.45 41.55 Q38.1 41.85 37.65 41.85 37.3 41.85 37.05 41.55 36.75 41.3 36.75 40.95" fill="#ffb1b1" fill-rule="evenodd" stroke="none"/>
      <path d="M41.8 41.15 L41.4 41.65 40.35 41.5 Q40.65 41.1 41.2 41.1 L41.8 41.15" fill="#cb5252" fill-rule="evenodd" stroke="none"/>
      <path d="M44.25 41.7 L43.5 41.9 43.0 41.65 Q42.8 41.45 43.0 41.05 L43.65 40.7 Q44.0 40.45 44.3 40.35 L44.8 40.65 44.75 41.15 44.25 41.7" fill="url(#gradient5)" fill-rule="evenodd" stroke="none"/>
      <path d="M36.95 42.75 Q36.95 42.45 37.3 42.25 L38.0 42.15 38.8 42.25 39.05 42.75 38.8 43.15 38.0 43.35 37.3 43.15 Q36.95 43.0 36.95 42.75" fill="url(#gradient6)" fill-rule="evenodd" stroke="none"/>
      <path d="M36.15 28.8 Q37.75 30.1 38.8 33.55 L39.5 36.75 38.25 36.7 38.65 36.15 38.75 35.85 Q38.35 33.25 36.8 30.45 L36.15 29.3 36.15 28.8 M28.85 33.35 Q31.2 33.6 34.35 35.55 L37.15 37.4 36.75 37.75 33.8 35.95 Q31.3 34.6 29.2 33.9 L28.85 33.35" fill="#ffbdbd" fill-rule="evenodd" stroke="none"/>
      <path d="M46.8 52.95 L46.3 53.85 45.8 54.15 Q45.6 54.1 45.7 53.55 L46.0 52.6 46.6 51.6 Q46.8 51.25 47.05 51.3 L47.15 51.8 46.8 52.95 M39.0 54.3 L38.4 55.2 Q38.1 55.65 37.95 55.55 37.7 55.5 37.85 54.9 L38.15 54.0 38.75 52.95 39.15 52.65 39.25 53.2 39.0 54.3" fill="#ffc4c4" fill-rule="evenodd" stroke="none"/>
      <path d="M39.55 36.85 L38.15 36.75 Q36.7 34.15 36.2 31.25 L36.2 28.85 Q37.85 30.15 38.85 33.6 L39.55 36.85 M36.35 38.2 Q32.8 37.75 30.5 35.5 L28.9 33.45 Q31.25 33.65 34.45 35.6 L37.2 37.45 36.35 38.2" fill="#ffc4c4" fill-opacity="0.49803922" fill-rule="evenodd" stroke="none"/>
      <path d="M41.3 44.95 L41.6 44.8 Q42.85 43.35 44.1 43.3 L45.05 43.5 Q43.7 43.25 41.5 45.35 L40.8 45.45 39.2 44.65 Q37.35 44.0 35.8 44.65 L36.0 44.95 36.15 45.65 35.45 46.45 Q34.85 47.55 34.75 49.05 34.7 50.25 34.1 51.9 33.8 53.35 35.25 54.9 33.9 54.45 33.1 53.4 L32.55 52.55 Q32.25 51.6 32.8 50.45 33.2 49.6 34.15 48.75 34.25 47.25 35.0 45.95 L35.75 45.0 Q34.7 44.15 34.3 42.8 33.45 40.3 36.35 38.2 L35.45 40.35 Q34.8 42.55 35.8 44.6 37.0 43.4 38.8 44.0 L40.7 44.95 41.3 44.95 M42.75 45.05 L45.05 46.7 45.8 48.0 Q45.3 47.2 43.8 46.4 42.9 45.85 42.0 45.45 L42.75 45.05 M40.65 48.35 L40.55 48.9 40.55 48.85 39.9 47.7 40.65 48.35 M40.7 49.05 L40.75 48.65 40.75 48.45 42.0 50.2 40.7 49.05 M43.3 49.1 L43.4 48.25 43.25 46.95 43.75 47.95 Q44.15 49.15 43.2 50.25 L43.8 50.55 Q44.3 50.75 44.25 51.3 L44.35 51.6 43.8 51.6 43.8 51.65 43.55 52.0 43.35 52.05 41.8 52.35 40.55 52.2 40.75 51.6 40.75 51.3 42.9 51.35 43.6 51.3 Q43.95 51.05 43.6 50.85 L43.05 50.55 42.95 50.55 42.65 50.5 43.2 49.65 43.6 49.35 43.3 49.1 M38.5 51.45 Q37.95 51.05 36.95 50.85 37.55 51.3 37.6 52.25 L36.25 53.65 36.95 52.15 Q37.0 51.25 36.2 50.65 35.8 50.3 35.4 50.2 L35.45 50.2 37.9 50.3 39.25 50.9 38.5 51.45 M39.4 54.7 L39.6 54.4 42.1 54.05 43.8 54.3 45.55 54.65 47.15 53.6 46.9 54.3 Q46.0 55.75 45.2 55.8 44.8 55.85 44.3 55.45 43.0 55.1 42.45 54.65 L41.8 55.0 39.25 55.05 39.05 55.65 Q36.95 58.95 35.4 55.1 36.0 55.6 36.75 55.9 38.15 56.5 39.4 54.7" fill="#e5e5e5" fill-opacity="0.49803922" fill-rule="evenodd" stroke="none"/>
      <path d="M40.55 48.9 L40.65 48.35 40.7 48.05 40.75 47.5 40.75 48.45 40.75 48.65 40.7 49.05 Q40.55 50.0 40.2 50.4 L38.6 50.25 37.3 49.15 Q39.05 50.5 39.9 50.05 40.35 49.85 40.55 48.9 M43.3 49.1 L43.6 49.35 43.2 49.65 43.15 49.65 Q41.2 47.8 41.15 46.25 41.75 47.6 43.3 49.1" fill="#cbcbcb" fill-opacity="0.49803922" fill-rule="evenodd" stroke="none"/>
      <path d="M44.15 52.1 L44.1 52.2 Q43.8 52.55 42.4 52.75 L40.25 52.75 40.55 52.15 41.8 52.25 43.35 52.0 43.55 51.9 Q44.0 51.75 43.8 51.6 L43.8 51.5 44.35 51.5 44.5 51.4 44.9 51.4 45.15 51.1 45.5 50.85 45.6 50.7 45.45 51.6 Q45.05 52.1 44.15 52.1 M36.95 50.75 Q37.95 51.0 38.5 51.4 L37.6 52.2 Q37.55 51.25 36.95 50.75 M32.6 52.55 L32.05 53.1 Q31.6 51.8 32.1 50.5 L32.6 49.75 32.85 50.45 Q32.3 51.6 32.6 52.55" fill="#cbcbcb" fill-opacity="0.49803922" fill-rule="evenodd" stroke="none"/>
      <path d="M42.3 42.95 L42.15 43.2 41.35 42.7 40.6 43.65 40.2 43.6 41.3 42.2 41.8 42.6 42.3 42.95" fill="#f2f2f2" fill-rule="evenodd" stroke="none"/>
      <path d="M41.35 45.2 L41.4 45.2 41.45 45.7 41.45 45.85 41.35 46.35 41.15 46.35 40.9 46.4 40.65 46.4 40.55 45.75 40.55 45.65 40.55 45.35 40.65 45.3 41.35 45.2" fill="#b22323" fill-rule="evenodd" stroke="none"/>
      <path d="M41.35 45.2 Q43.55 43.1 44.9 43.35 L45.4 44.45 Q45.85 45.65 45.6 46.2 45.4 46.8 44.35 46.55 L42.6 46.3 41.45 45.85 41.45 45.7 41.4 45.2 41.35 45.2" fill="url(#gradient7)" fill-rule="evenodd" stroke="none"/>
      <path d="M38.15 47.75 L36.15 48.1 Q35.65 47.6 35.6 46.0 L35.6 44.5 36.0 44.35 Q37.2 44.0 38.55 44.35 L39.05 44.5 40.65 45.3 40.55 45.35 40.55 45.65 40.5 45.75 39.2 46.75 38.85 47.1 38.15 47.75" fill="url(#gradient8)" fill-rule="evenodd" stroke="none"/>
      <path d="M40.9 46.4 L40.7 48.1 Q40.5 49.85 39.9 50.15 39.0 50.6 37.2 49.15 L38.15 47.75 38.85 47.1 39.2 46.75 40.5 45.75 40.55 45.75 40.65 46.4 40.9 46.4" fill="url(#gradient9)" fill-rule="evenodd" stroke="none"/>
      <path d="M41.45 45.85 L42.6 46.3 45.05 47.1 44.65 48.0 43.65 49.45 Q41.8 47.75 41.15 46.35 L41.35 46.35 41.45 45.85" fill="url(#gradient10)" fill-rule="evenodd" stroke="none"/>
      <path d="M37.75 46.0 L38.7 45.7 40.35 45.85 37.75 46.0 M42.85 45.1 L43.9 44.95 43.2 45.45 Q42.3 45.95 41.35 45.8 41.75 45.35 42.85 45.1" fill="#b22323" fill-rule="evenodd" stroke="none"/>
    </g>
    <radialGradient cx="0" cy="0" gradientTransform="matrix(-0.0111, 0.0036, 0.0036, 0.0111, 39.95, 40.75)" gradientUnits="userSpaceOnUse" id="gradient0" r="819.2" spreadMethod="pad">
      <stop offset="0.37254901960784315" stop-color="#ffffff"/>
      <stop offset="0.6823529411764706" stop-color="#f2f2f2"/>
      <stop offset="0.9215686274509803" stop-color="#ffffff"/>
    </radialGradient>
    <linearGradient gradientTransform="matrix(0.0011, -0.0036, -0.0038, -0.0012, 44.5, 47.1)" gradientUnits="userSpaceOnUse" id="gradient1" spreadMethod="pad" x1="-819.2" x2="819.2">
      <stop offset="0.0" stop-color="#ffffff"/>
      <stop offset="0.5058823529411764" stop-color="#f2f2f2"/>
      <stop offset="1.0" stop-color="#e5e5e5"/>
    </linearGradient>
    <linearGradient gradientTransform="matrix(-3.0E-4, -0.0037, -0.0031, 3.0E-4, 41.4, 46.45)" gradientUnits="userSpaceOnUse" id="gradient2" spreadMethod="pad" x1="-819.2" x2="819.2">
      <stop offset="0.0" stop-color="#ffffff"/>
      <stop offset="0.5058823529411764" stop-color="#f2f2f2"/>
      <stop offset="1.0" stop-color="#e5e5e5"/>
    </linearGradient>
    <linearGradient gradientTransform="matrix(-0.0027, 0.0, 0.0, 0.0019, 40.35, 53.1)" gradientUnits="userSpaceOnUse" id="gradient3" spreadMethod="pad" x1="-819.2" x2="819.2">
      <stop offset="0.0" stop-color="#ffffff"/>
      <stop offset="0.5058823529411764" stop-color="#f2f2f2"/>
      <stop offset="1.0" stop-color="#e5e5e5"/>
    </linearGradient>
    <radialGradient cx="0" cy="0" gradientTransform="matrix(-0.0038, 0.0, 0.0, 0.0038, 31.05, 50.75)" gradientUnits="userSpaceOnUse" id="gradient4" r="819.2" spreadMethod="pad">
      <stop offset="0.4392156862745098" stop-color="#ffffff"/>
      <stop offset="1.0" stop-color="#f2f2f2"/>
    </radialGradient>
    <radialGradient cx="0" cy="0" gradientTransform="matrix(-0.0015, 8.0E-4, 5.0E-4, 9.0E-4, 44.0, 41.15)" gradientUnits="userSpaceOnUse" id="gradient5" r="819.2" spreadMethod="pad">
      <stop offset="0.0" stop-color="#ffdede"/>
      <stop offset="1.0" stop-color="#ffdede" stop-opacity="0.0"/>
    </radialGradient>
    <radialGradient cx="0" cy="0" gradientTransform="matrix(-0.0017, 0.0, 0.0, 0.001, 38.0, 42.75)" gradientUnits="userSpaceOnUse" id="gradient6" r="819.2" spreadMethod="pad">
      <stop offset="0.0" stop-color="#ffdede"/>
      <stop offset="1.0" stop-color="#ffdede" stop-opacity="0.0"/>
    </radialGradient>
    <linearGradient gradientTransform="matrix(0.0026, 0.0, 0.0, -0.002, 43.55, 44.95)" gradientUnits="userSpaceOnUse" id="gradient7" spreadMethod="pad" x1="-819.2" x2="819.2">
      <stop offset="0.403921568627451" stop-color="#ff3333"/>
      <stop offset="1.0" stop-color="#cc2828"/>
    </linearGradient>
    <linearGradient gradientTransform="matrix(-0.003, 8.0E-4, 6.0E-4, 0.0023, 38.1, 46.1)" gradientUnits="userSpaceOnUse" id="gradient8" spreadMethod="pad" x1="-819.2" x2="819.2">
      <stop offset="0.403921568627451" stop-color="#ff3333"/>
      <stop offset="1.0" stop-color="#cc2828"/>
    </linearGradient>
    <linearGradient gradientTransform="matrix(7.0E-4, -0.0026, -0.0027, -7.0E-4, 39.2, 47.75)" gradientUnits="userSpaceOnUse" id="gradient9" spreadMethod="pad" x1="-819.2" x2="819.2">
      <stop offset="0.403921568627451" stop-color="#ff3333"/>
      <stop offset="1.0" stop-color="#cc2828"/>
    </linearGradient>
    <linearGradient gradientTransform="matrix(-0.002, -0.0012, -0.0011, 0.0019, 42.85, 47.5)" gradientUnits="userSpaceOnUse" id="gradient10" spreadMethod="pad" x1="-819.2" x2="819.2">
      <stop offset="0.403921568627451" stop-color="#ff3333"/>
      <stop offset="1.0" stop-color="#cc2828"/>
    </linearGradient>
  </defs>
</svg>
