<?xml version="1.0" encoding="UTF-8" standalone="no"?>
<svg xmlns:ffdec="https://www.free-decompiler.com/flash" xmlns:xlink="http://www.w3.org/1999/xlink" ffdec:objectType="frame" height="55.45px" width="66.5px" xmlns="http://www.w3.org/2000/svg">
  <g transform="matrix(1.0, 0.0, 0.0, 1.0, 18.25, 7.25)">
    <use ffdec:characterId="2" height="55.45" id="Color" transform="matrix(1.0, 0.0, 0.0, 1.0, -18.25, -7.25)" width="66.5" xlink:href="#sprite0"/>
    <use ffdec:characterId="3" height="54.4" transform="matrix(1.0, 0.0, 0.0, 1.0, -17.95, -6.2)" width="65.15" xlink:href="#shape1"/>
  </g>
  <defs>
    <g id="sprite0" transform="matrix(1.0, 0.0, 0.0, 1.0, 0.0, 0.0)">
      <use ffdec:characterId="1" height="55.45" transform="matrix(1.0, 0.0, 0.0, 1.0, 0.0, 0.0)" width="66.5" xlink:href="#shape0"/>
    </g>
    <g id="shape0" transform="matrix(1.0, 0.0, 0.0, 1.0, 0.0, 0.0)">
      <path d="M4.7 48.35 Q3.7 48.3 2.9 48.95 2.05 49.65 2.0 50.7 1.85 51.8 2.55 52.6 3.25 53.35 4.25 53.45 5.3 53.5 6.1 52.9 6.9 52.25 7.0 51.15 7.1 50.15 6.45 49.3 5.8 48.45 4.7 48.35 M65.1 14.7 L63.65 16.75 Q62.7 17.9 59.3 18.6 L53.25 19.5 50.55 19.75 47.8 20.3 Q44.55 21.45 40.35 25.15 L9.0 51.35 Q8.75 53.3 7.4 54.35 6.0 55.6 4.1 55.45 2.35 55.35 1.1 53.85 -0.2 52.45 0.05 50.5 0.15 48.6 1.65 47.4 3.1 46.3 4.75 46.4 L34.55 21.5 35.7 20.35 36.95 19.0 Q39.1 16.5 41.45 11.3 L44.9 3.5 45.5 3.25 46.45 2.75 49.95 4.95 Q53.65 1.5 55.55 0.6 57.5 -0.3 60.1 0.2 L55.1 8.35 58.05 10.2 60.75 10.1 64.55 3.5 65.7 3.4 66.1 4.7 66.5 7.95 Q66.7 11.75 65.1 14.7" fill="#990000" fill-rule="evenodd" stroke="none"/>
      <path d="M65.1 14.7 L45.5 3.25 46.45 2.75 49.95 4.95 Q53.65 1.5 55.55 0.6 57.5 -0.3 60.1 0.2 L55.1 8.35 58.05 10.2 60.75 10.1 64.55 3.5 65.7 3.4 66.1 4.7 66.5 7.95 Q66.7 11.75 65.1 14.7" fill="#000000" fill-opacity="0.4" fill-rule="evenodd" stroke="none"/>
      <path d="M65.1 14.7 L63.65 16.75 Q62.7 17.9 59.3 18.6 L53.25 19.5 50.55 19.75 47.8 20.3 Q44.55 21.45 40.35 25.15 L9.0 51.35 Q8.75 53.3 7.4 54.35 6.0 55.6 4.1 55.45 2.35 55.35 1.1 53.85 -0.2 52.45 0.05 50.5 0.15 48.6 1.65 47.4 3.1 46.3 4.75 46.4 L34.55 21.5 35.7 20.35 36.95 19.0 Q39.1 16.5 41.45 11.3 L44.9 3.5 45.5 3.25 65.1 14.7 M4.7 48.35 Q3.7 48.3 2.9 48.95 2.05 49.65 2.0 50.7 1.85 51.8 2.55 52.6 3.25 53.35 4.25 53.45 5.3 53.5 6.1 52.9 6.9 52.25 7.0 51.15 7.1 50.15 6.45 49.3 5.8 48.45 4.7 48.35" fill="url(#gradient0)" fill-rule="evenodd" stroke="none"/>
    </g>
    <linearGradient gradientTransform="matrix(0.0397, 0.0, 0.0, 0.0319, 32.55, 29.35)" gradientUnits="userSpaceOnUse" id="gradient0" spreadMethod="pad" x1="-819.2" x2="819.2">
      <stop offset="0.0" stop-color="#727272" stop-opacity="0.4"/>
      <stop offset="0.5882352941176471" stop-color="#9b9f8f" stop-opacity="0.0"/>
    </linearGradient>
    <g id="shape1" transform="matrix(1.0, 0.0, 0.0, 1.0, 17.95, 6.2)">
      <path d="M27.95 0.0 L27.95 -0.05 28.45 -0.95 35.8 3.95 35.5 4.5 35.7 4.6 34.8 5.15 33.55 4.5 32.35 3.85 30.95 3.0 29.9 2.4 27.7 1.25 27.95 0.0 M29.35 6.65 L30.65 7.55 32.5 8.7 31.7 10.45 25.0 6.6 26.0 4.55 26.8 5.0 27.75 5.6 29.35 6.65" fill="#000000" fill-rule="evenodd" stroke="none"/>
      <path d="M27.95 0.0 L27.85 0.25 25.6 -1.0 26.75 -3.85 28.0 -4.3 31.8 -2.25 31.85 -2.25 32.3 -1.55 35.35 -4.15 35.6 -4.3 38.9 -2.35 36.85 0.95 40.25 3.0 42.4 3.05 44.0 0.55 47.2 2.4 Q47.2 6.2 45.0 9.8 L44.6 10.1 Q42.4 11.7 34.5 12.35 31.4 12.7 28.65 13.8 L26.55 14.95 Q-3.55 39.3 -9.25 44.7 -10.75 48.45 -14.0 48.2 -16.65 48.0 -17.6 46.35 -18.8 44.35 -15.85 45.6 -14.85 46.9 -12.9 46.2 -11.05 45.5 -10.85 44.1 -10.75 43.1 -10.1 42.7 L-9.45 42.5 22.25 15.6 22.9 15.1 20.05 10.65 21.25 8.45 26.9 12.4 Q29.4 11.15 31.6 11.05 L33.25 11.15 Q39.15 11.15 43.35 8.85 L35.7 4.6 35.5 4.5 35.8 3.95 28.45 -0.95 27.95 -0.05 27.95 0.0" fill="#000000" fill-opacity="0.2" fill-rule="evenodd" stroke="none"/>
      <path d="M32.35 3.85 L33.55 4.5 30.65 7.55 29.35 6.65 32.35 3.85 M26.8 5.0 L29.9 2.4 30.95 3.0 27.75 5.6 26.8 5.0" fill="#000000" fill-opacity="0.4" fill-rule="evenodd" stroke="none"/>
      <path d="M47.2 2.4 L44.0 0.55 46.2 -3.05 Q47.2 -0.3 47.2 2.4 M38.9 -2.35 L35.6 -4.3 Q38.9 -6.55 41.2 -6.1 L38.9 -2.35" fill="#000000" fill-opacity="0.08627451" fill-rule="evenodd" stroke="none"/>
      <path d="M31.95 10.4 L25.0 6.25 25.9 4.4 28.0 0.45 28.7 -0.95 35.6 3.6 34.85 5.1 32.8 8.7 31.95 10.4 M-11.25 43.9 Q-11.35 45.0 -12.15 45.65 -12.95 46.25 -14.0 46.2 -15.0 46.1 -15.7 45.35 -16.4 44.55 -16.25 43.45 -16.2 42.4 -15.35 41.7 -14.55 41.05 -13.55 41.1 -12.45 41.2 -11.8 42.05 -11.15 42.9 -11.25 43.9 Z" fill="none" stroke="#000000" stroke-linecap="round" stroke-linejoin="round" stroke-opacity="0.4" stroke-width="1.0"/>
    </g>
  </defs>
</svg>
