<svg xmlns="http://www.w3.org/2000/svg" xmlns:ffdec="https://www.free-decompiler.com/flash" xmlns:xlink="http://www.w3.org/1999/xlink" ffdec:objectType="frame" width="68" height="51.85"><use ffdec:characterId="1" xlink:href="#a" width="68" height="51.85"/><defs><linearGradient id="b" x1="-819.2" x2="819.2" gradientTransform="matrix(.0302 0 0 .0249 15.55 28.95)" gradientUnits="userSpaceOnUse" spreadMethod="pad"><stop offset="0" stop-color="#f9f9f9"/><stop offset=".231" stop-color="#e3e3e3"/><stop offset="1" stop-color="#fff"/></linearGradient><linearGradient id="c" x1="-819.2" x2="819.2" gradientTransform="matrix(.0246 0 0 .0186 20.15 34.15)" gradientUnits="userSpaceOnUse" spreadMethod="pad"><stop offset="0" stop-color="#7d7d7d"/><stop offset=".969" stop-color="#e2e2e2"/></linearGradient><g id="a" fill-rule="evenodd"><path fill="#036" d="m.1.8 11.65 8.75 1.05 5.35v.15l4.6-1.2h.05l1.7 1.25-2.35-.1-.55 2.15-.2.7-1.05.8q-.45.9-.2 1.7-1.8-1.3-1.2-2.6l-1.25 1.2-1.7.25q.75-.3 1.1-2-.45-.6-.35-1.55-.95-1.1-1.3-2.35l-.55-2.2-.75-.65-1.15-.95-3.1-2.65-.75-.65-.95-.8-1.1-.6-1.7-.95L0 1.4V.8h.1"/><path fill="#069" d="M.1.8 2.9 0l2.4 2.2L12.65 7v.05q3.85-.75 5.05.3l1.45.05.8-.55.85-1.05q.5.6.2 1.7l-.8 1.55q1.05-.95 2.8.4-1 0-1.55.7l-.25.9-.25.2-.3.2-2.2 1.35.8 2.3h-.1l-1.7-1.25-.1-4.8-.15.05-5.35.45h-.1z"/><path fill="#999" d="m22.65 22.55-1-.7V16.9l1 .75z"/><path fill="#ccc" d="m27.65 26.1-5-3.55v-4.9l5 3.8zm-6-4.25-1.5-1.1.05-4.95 1.45 1.1z"/><path fill="#7f7f7f" d="M19.15 15.1h.1l.9.7h.05l-.05 4.95-4.1-2.9.2-.7.55-2.15z"/><path fill="#bff" d="m11.85 9.55 5.35-.45-.45.65-.2.1-3.95.35z"/><path fill="#78e9e9" d="M16.55 9.85v.05l-2 1.6-1.95-1.3z"/><path fill="#4cb4b4" d="m14.55 11.5.15.1 1.65 1.45-2.95.75z"/><path fill="#149f9f" d="m16.35 13.05.15.1.9.7-4.6 1.2v-.15l.55-1.1h.05z"/><path fill="#25cbcb" d="m12.6 10.2 1.95 1.3 2-1.6-.2 3.15-1.65-1.45-.15-.1-1.15 2.3h-.05z"/><path fill="#9ae2e2" d="M11.75 9.55h.1l.75.65.75 3.6-.55 1.1z"/><path fill="#7be0e0" d="m17.2 9.1.15-.05.1 4.8h-.05l-.9-.7-.15-.1.2-3.15v-.05l.2-.1z"/><path fill="url(#b)" d="m-8.4 12.6-.8-2.3L-7 8.95l.3-.2.25-.2.25.2L38.8 45l.05.2 1.25 3.35.25.8h-.05l-3.75-2.9L33 43.8l-3.85-2.95L0 18.95l-5-3.8-1-.75-1.45-1.1h-.05z" transform="translate(27.65 2.5)"/><path fill="url(#c)" d="m40.3 49.35-4.4-.3L33 47l-3-2.15-2.5-1.8L0 23.6v-4.65l29.15 21.9L33 43.8l3.55 2.65z" transform="translate(27.65 2.5)"/><path fill="#fff" fill-opacity=".298" d="M.35 1 .1.8 2.9 0l2.4 2.2L12.65 7v.05q3.85-.75 5.05.3l1.45.05.8-.55.85-1.05q.5.6.2 1.7l-.8 1.55q1.05-.95 2.8.4-1 0-1.55.7l-.25.9-.25.2-.3.2q-.2-.35 0-.75-.05-.8 1.1-1.45l-2.05.15q.75-.95.65-1.9-1.1.65-2.95.3l-3.25-.3-1.05.1-.95.15L2.75 1l-1.6.5-.7-.4z"/><path fill-opacity=".298" d="m.45 1.1.55.5-.05 1.65 9.3 6.9.15.95.2 1.05q.3 2.1 1.25 3 .9 1.7.6 2.95.95-.2 1.6-1.2-.05 1.5.5 1.95.3-1.2 1.05-1.45l.65-.25-.2.7-1.05.8q-.45.9-.2 1.7-1.8-1.3-1.2-2.6l-1.25 1.2-1.7.25q.75-.3 1.1-2-.45-.6-.35-1.55-.95-1.1-1.3-2.35l-.55-2.2-.75-.65-1.15-.95-3.1-2.65-.75-.65-.95-.8-1.1-.6-1.7-.95L0 1.4V.8h.05l.3.2z"/><path fill-opacity=".498" d="M7.45 3.45h.35l.15.2.05.25-.4 1.2 1.25-.55h.25l.2.2v.3l-.15.2-1.9.85-.75 2-.2.25h-.25l-.25-.2V7.9l.5-1.4-1.45.6h-.3l-.15-.2-.05-.3.2-.2 2.1-.9.65-1.8zm2.7 1.75h.05l.25.2v.3l-.3 1.2 1.1-.6.3-.05.25.2q.1.15.05.3l-.2.25-1.75.95-.65 2.45-.2.25h-.3l-.25-.15v-.25l.5-1.8-1.65.85H7.1l-.25-.2-.05-.3.15-.2 2.3-1.2.45-1.85.2-.3zm2.5 1.75-.05.25-2.75 4.05-.25.15-.25-.05H9.3l-.15-.25.05-.25 2.75-4.05.25-.15.25.05h.05zM5 1.7l.25-.05h.05l.15.2.05.25-.4 1.2 1.2-.55h.3l.15.2V3l.05.2-.2.2-1.85.8-.7 2-.2.2H3.6l-.2-.15v-.3l.5-1.35-1.45.6h-.3L2 5.05V5l-.05-.25.2-.2 2.05-.9.65-1.8zM3.4.5l.25-.15.25.05h.05l.15.25q.05.1-.05.25l-2.6 3.8-.25.2-.25-.1H.9l-.15-.2.05-.3z"/><path fill="#fff" fill-opacity=".298" d="m3.4.7.1-.2.2-.1.2.1.1.2-.1.2q-.1.1-.2.1T3.5.9zm1.95 1.15.1.2-.1.2-.2.1-.2-.1-.1-.2.1-.2.2-.1zm4.9 3.55.1.2-.1.2-.2.1-.2-.1-.1-.2.1-.2.2-.1zM7.75 4l-.2.1-.2-.1-.1-.2.1-.2.2-.1.2.1.1.2zm1.45.9-.1.2-.2.1-.2-.1-.1-.2.1-.2.2-.1.2.1zm2.2 1.5.2.1.1.2-.1.2-.2.1-.2-.1-.1-.2.1-.2zm.8.4.2.1.1.2-.1.2-.2.1-.2-.1-.1-.2.1-.2zM6.6 2.9l.1.2-.1.2-.2.1-.2-.1-.1-.2.1-.2.2-.1z"/></g></defs></svg>