<?xml version="1.0" encoding="UTF-8" standalone="no"?>
<svg xmlns:ffdec="https://www.free-decompiler.com/flash" xmlns:xlink="http://www.w3.org/1999/xlink" ffdec:objectType="frame" height="37.0px" width="32.55px" xmlns="http://www.w3.org/2000/svg">
  <g transform="matrix(1.0, 0.0, 0.0, 1.0, -22.1, -18.05)">
    <use ffdec:characterId="1" height="37.0" transform="matrix(1.0, 0.0, 0.0, 1.0, 22.1, 18.05)" width="32.55" xlink:href="#shape0"/>
  </g>
  <defs>
    <g id="shape0" transform="matrix(1.0, 0.0, 0.0, 1.0, -22.1, -18.05)">
      <path d="M26.8 52.45 L26.7 52.35 26.75 52.15 26.8 52.45" fill="url(#gradient0)" fill-rule="evenodd" stroke="none"/>
      <path d="M23.15 45.3 L23.2 45.25 Q23.45 44.9 23.45 45.35 L23.45 45.5 23.6 45.6 Q24.25 45.4 25.25 46.3 L26.6 47.85 27.25 49.55 27.3 50.7 27.3 51.1 27.4 51.45 27.4 53.05 27.3 53.1 Q27.25 50.9 26.6 49.2 L26.9 49.9 Q26.75 48.85 26.2 47.9 25.55 46.7 24.55 46.15 L25.05 46.6 26.2 48.35 25.2 46.9 Q25.9 47.85 26.35 49.6 L26.75 52.15 26.15 49.35 Q25.7 48.05 24.95 47.3 L25.65 48.65 26.3 50.4 26.7 52.3 26.65 52.5 26.5 52.55 26.1 50.95 25.55 49.2 25.45 49.0 24.5 47.25 24.1 46.75 23.2 45.35 23.15 45.3 M25.8 50.35 L25.85 50.55 26.45 52.55 26.4 52.75 26.25 52.8 25.65 51.25 25.7 52.25 25.7 52.3 25.5 53.3 25.25 52.35 25.35 51.85 25.3 51.5 25.2 51.05 24.8 49.65 24.65 49.35 24.95 50.45 24.6 49.5 23.65 47.55 Q23.15 46.5 23.15 45.85 L23.2 45.65 24.5 48.05 25.8 50.35 M25.0 50.65 L25.05 51.45 Q25.05 52.2 24.65 52.55 L24.45 52.35 24.7 51.45 Q24.7 50.1 23.75 48.45 L23.3 47.65 23.75 48.6 Q24.5 50.15 24.5 51.5 L24.45 52.2 24.05 53.1 23.8 53.1 23.75 52.9 24.15 51.55 Q24.15 50.4 23.4 48.85 22.65 47.3 22.65 46.65 L22.7 46.1 22.85 45.7 22.9 46.45 Q22.9 47.05 23.9 48.5 L25.0 50.65" fill="url(#gradient1)" fill-rule="evenodd" stroke="none"/>
      <path d="M27.3 53.1 L27.25 53.1 27.1 52.05 26.95 52.4 26.95 52.45 26.9 52.5 26.85 52.55 26.85 52.5 26.8 52.5 26.8 52.45 26.75 52.15 26.35 49.6 Q25.9 47.85 25.2 46.9 L26.2 48.35 26.6 49.2 Q27.25 50.9 27.3 53.1 M24.1 46.75 L23.85 46.5 24.15 47.0 25.2 48.9 25.8 50.35 24.5 48.05 23.2 45.65 23.15 45.85 Q23.15 46.5 23.65 47.55 L24.6 49.5 24.95 50.45 25.0 50.65 23.9 48.5 Q22.9 47.05 22.9 46.45 L22.85 45.7 22.9 45.6 22.8 45.5 22.9 45.5 Q22.9 45.3 23.15 45.35 L23.15 45.3 23.2 45.35 24.1 46.75" fill="url(#gradient2)" fill-rule="evenodd" stroke="none"/>
      <path d="M24.75 34.5 Q25.55 32.25 25.6 30.8 L25.45 29.7 Q25.45 29.5 25.6 29.35 25.75 29.2 25.95 29.2 26.15 29.2 26.3 29.35 L26.45 29.7 26.6 30.6 26.6 30.7 Q26.6 32.65 25.2 36.0 L24.95 36.5 Q23.4 40.0 23.4 42.8 L23.45 44.05 23.3 43.5 23.25 41.85 Q23.25 40.35 23.8 38.3 24.25 36.55 24.95 35.2 L24.75 34.5" fill="url(#gradient3)" fill-rule="evenodd" stroke="none"/>
      <path d="M24.75 34.5 L24.95 35.2 Q24.25 36.55 23.8 38.3 23.25 40.35 23.25 41.85 L23.3 43.5 23.45 44.05 23.5 44.3 23.55 44.35 23.6 44.55 23.6 44.65 23.4 45.0 23.05 45.1 22.7 44.9 Q22.4 44.6 22.4 42.8 22.4 39.8 24.05 36.1 L24.75 34.5" fill="url(#gradient4)" fill-rule="evenodd" stroke="none"/>
      <path d="M23.9 44.3 L24.2 45.05 23.9 45.8 Q23.6 46.1 23.15 46.1 L22.4 45.8 Q22.1 45.5 22.1 45.05 22.1 44.6 22.4 44.3 22.7 44.0 23.15 44.0 23.6 44.0 23.9 44.3 M23.25 44.35 L22.8 44.45 22.6 44.8 22.8 45.1 23.25 45.25 23.7 45.1 23.9 44.8 23.7 44.45 23.25 44.35" fill="url(#gradient5)" fill-rule="evenodd" stroke="none"/>
      <path d="M23.25 44.35 L23.7 44.45 23.9 44.8 23.7 45.1 23.25 45.25 22.8 45.1 22.6 44.8 22.8 44.45 23.25 44.35" fill="url(#gradient6)" fill-rule="evenodd" stroke="none"/>
      <path d="M48.0 20.5 L48.8 23.35 49.45 25.95 25.85 28.55 26.75 27.8 27.55 27.45 27.9 27.35 48.0 20.5" fill="url(#gradient7)" fill-rule="evenodd" stroke="none"/>
      <path d="M49.6 27.05 L49.65 27.65 Q49.9 29.8 49.75 31.85 L25.3 29.3 25.7 28.65 49.6 27.05" fill="url(#gradient8)" fill-rule="evenodd" stroke="none"/>
      <path d="M47.1 41.05 Q45.4 44.25 42.9 46.75 L27.45 32.2 25.05 29.65 25.1 29.65 47.1 41.05" fill="url(#gradient9)" fill-rule="evenodd" stroke="none"/>
      <path d="M49.6 32.75 Q49.2 36.55 47.6 40.1 L25.1 29.65 25.15 29.5 25.3 29.35 49.6 32.75" fill="url(#gradient10)" fill-rule="evenodd" stroke="none"/>
      <path d="M41.85 47.65 Q40.15 49.2 38.15 50.4 L24.85 30.3 25.0 29.9 25.05 29.65 27.45 32.2 41.85 47.65" fill="url(#gradient11)" fill-rule="evenodd" stroke="none"/>
      <path d="M37.2 50.95 L33.65 52.45 31.85 52.95 24.7 31.1 24.8 30.4 37.2 50.95" fill="url(#gradient12)" fill-rule="evenodd" stroke="none"/>
      <path d="M27.9 27.35 L47.55 19.65 48.0 20.5 27.9 27.35" fill="url(#gradient13)" fill-rule="evenodd" stroke="none"/>
      <path d="M49.75 31.85 L49.6 32.75 25.3 29.35 25.3 29.3 49.75 31.85" fill="url(#gradient14)" fill-rule="evenodd" stroke="none"/>
      <path d="M49.45 25.95 L49.6 27.05 25.7 28.65 25.85 28.55 49.45 25.95" fill="url(#gradient15)" fill-rule="evenodd" stroke="none"/>
      <path d="M47.6 40.1 L47.25 40.8 47.1 41.05 25.1 29.65 47.6 40.1" fill="url(#gradient16)" fill-rule="evenodd" stroke="none"/>
      <path d="M31.85 52.95 L30.75 53.2 25.35 33.9 24.8 32.6 Q24.6 31.85 24.7 31.1 L31.85 52.95" fill="url(#gradient17)" fill-rule="evenodd" stroke="none"/>
      <path d="M42.9 46.75 L41.85 47.65 27.45 32.2 42.9 46.75" fill="url(#gradient18)" fill-rule="evenodd" stroke="none"/>
      <path d="M38.15 50.4 L37.65 50.7 37.2 50.95 24.8 30.4 24.85 30.3 38.15 50.4" fill="url(#gradient19)" fill-rule="evenodd" stroke="none"/>
      <path d="M47.95 27.5 L48.35 27.2 48.05 27.1 47.0 26.1 Q46.25 25.0 46.85 23.85 L46.95 23.6 46.05 22.55 Q45.15 21.35 45.65 20.35 L45.75 20.2 45.7 20.2 Q45.5 19.65 45.8 19.05 46.3 18.05 47.2 18.05 L48.1 18.2 48.6 18.6 48.65 19.0 Q48.35 18.55 47.8 18.8 L47.0 19.5 Q46.6 20.2 46.9 20.8 L47.6 21.4 47.3 21.75 Q47.1 22.15 47.45 22.5 L48.05 23.0 Q47.85 23.95 48.15 24.9 48.55 26.1 49.5 26.1 L49.1 26.85 Q49.0 27.4 49.3 27.9 L48.4 27.5 47.95 27.5 M29.55 52.55 Q29.6 52.25 29.8 51.9 30.15 51.3 30.45 51.15 L30.65 51.25 Q31.1 50.85 31.6 50.85 L32.6 51.2 32.6 51.15 32.75 50.9 Q33.3 49.85 34.2 49.85 L35.0 50.05 35.3 50.2 35.45 49.95 Q35.75 49.4 36.2 49.25 36.7 49.05 37.1 48.25 38.0 46.6 39.6 47.45 L39.75 47.55 39.9 47.1 Q40.4 46.2 41.15 46.2 L41.3 46.2 41.6 45.3 Q42.2 44.0 43.2 44.1 L43.3 44.1 43.6 43.3 Q44.1 42.3 44.95 42.2 L44.9 42.1 Q44.65 41.2 45.1 40.35 45.5 39.6 46.2 39.5 45.75 38.6 46.25 37.65 L47.0 36.8 Q46.85 36.05 47.2 35.35 47.55 34.75 48.15 34.5 47.95 33.95 48.2 33.45 L48.45 33.15 Q47.2 32.2 48.15 30.35 L48.75 29.55 48.6 29.5 48.45 29.4 49.25 29.3 50.15 29.35 Q49.6 29.5 49.35 29.75 L49.0 30.45 Q48.55 31.2 48.75 32.2 48.9 33.15 49.6 33.85 49.15 33.7 49.0 34.05 48.85 34.25 48.85 34.6 L49.05 35.05 48.5 35.55 47.95 36.2 Q47.6 36.85 47.6 37.4 L47.8 37.9 47.85 37.9 47.3 38.5 Q47.0 38.95 46.95 39.7 L47.0 40.5 Q46.65 40.45 46.25 40.75 L45.85 41.25 Q45.6 41.65 45.7 42.1 L46.0 42.75 45.0 42.9 Q44.7 43.05 44.35 43.7 L43.95 44.8 Q43.7 44.4 43.3 44.65 L42.75 45.25 Q42.5 45.65 42.65 45.85 L42.95 46.2 43.0 46.3 Q42.55 46.35 42.35 46.55 L42.15 47.05 42.05 47.45 42.0 48.25 40.65 48.3 39.65 49.25 Q39.6 49.1 39.4 49.05 L38.3 48.95 Q37.75 49.05 37.6 49.35 L37.6 49.85 Q37.15 49.4 36.7 49.95 L36.15 51.0 34.35 51.1 Q33.6 51.65 33.3 52.3 L33.2 51.9 32.9 51.7 Q32.45 51.5 32.3 51.7 L31.25 53.1 31.2 53.15 31.15 53.15 31.0 52.65 30.6 52.2 Q30.15 51.95 29.6 52.5 L29.55 52.55" fill="url(#gradient20)" fill-rule="evenodd" stroke="none"/>
      <path d="M48.6 18.6 L48.75 18.75 Q49.05 18.35 49.5 18.35 L50.15 18.6 Q51.3 19.2 51.15 20.65 L52.15 20.9 Q53.5 21.6 53.0 23.6 L52.7 24.3 Q53.3 24.85 53.35 26.1 L53.3 26.15 53.3 26.45 53.0 27.65 53.45 27.9 Q55.25 28.8 54.3 31.3 L53.65 32.45 Q53.95 33.1 53.35 34.25 L52.75 35.15 53.1 36.1 Q53.25 37.0 52.9 37.95 52.25 39.65 51.25 39.7 L50.7 40.45 50.2 40.85 Q50.85 41.65 50.0 43.65 49.25 45.0 48.3 45.4 L48.15 45.5 Q47.95 45.65 47.65 45.95 L46.85 46.55 Q46.9 47.0 46.55 47.65 45.75 49.4 44.55 49.85 43.85 50.1 43.2 49.85 L43.0 50.0 41.85 50.65 41.75 51.3 Q41.25 52.7 39.5 53.1 L38.85 53.9 Q37.25 55.5 35.85 54.75 L35.05 54.2 33.4 54.3 33.3 54.25 Q32.0 55.45 30.75 54.8 L29.85 54.0 Q29.35 53.35 29.55 52.55 L29.6 52.5 Q30.15 51.95 30.6 52.2 L31.0 52.65 31.15 53.15 31.2 53.15 31.25 53.1 32.3 51.7 Q32.45 51.5 32.9 51.7 L33.2 51.9 33.3 52.3 Q33.6 51.65 34.35 51.1 L36.15 51.0 36.7 49.95 Q37.15 49.4 37.6 49.85 L37.6 49.35 Q37.75 49.05 38.3 48.95 L39.4 49.05 Q39.6 49.1 39.65 49.25 L40.65 48.3 42.0 48.25 42.05 47.45 42.15 47.05 42.35 46.55 Q42.55 46.35 43.0 46.3 L42.95 46.2 42.65 45.85 Q42.5 45.65 42.75 45.25 L43.3 44.65 Q43.7 44.4 43.95 44.8 L44.35 43.7 Q44.7 43.05 45.0 42.9 L46.0 42.75 45.7 42.1 Q45.6 41.65 45.85 41.25 L46.25 40.75 Q46.65 40.45 47.0 40.5 L46.95 39.7 Q47.0 38.95 47.3 38.5 L47.85 37.9 47.8 37.9 47.6 37.4 Q47.6 36.85 47.95 36.2 L48.5 35.55 49.05 35.05 48.85 34.6 Q48.85 34.25 49.0 34.05 49.15 33.7 49.6 33.85 48.9 33.15 48.75 32.2 48.55 31.2 49.0 30.45 L49.35 29.75 Q49.6 29.5 50.15 29.35 L49.25 29.3 48.45 29.4 48.0 28.8 Q47.6 28.2 47.85 27.65 L47.95 27.5 48.4 27.5 49.3 27.9 Q49.0 27.4 49.1 26.85 L49.5 26.1 Q48.55 26.1 48.15 24.9 47.85 23.95 48.05 23.0 L47.45 22.5 Q47.1 22.15 47.3 21.75 L47.6 21.4 46.9 20.8 Q46.6 20.2 47.0 19.5 L47.8 18.8 Q48.35 18.55 48.65 19.0 L48.6 18.6" fill="url(#gradient21)" fill-rule="evenodd" stroke="none"/>
      <path d="M40.65 38.85 L41.55 39.35 40.15 42.05 42.2 41.95 Q43.3 41.6 43.9 40.75 L42.75 40.05 42.45 40.65 42.95 40.5 43.0 40.9 41.5 41.35 42.5 39.4 44.6 40.6 44.45 40.75 Q43.65 41.9 42.4 42.35 L39.75 42.4 39.55 42.3 41.0 39.55 40.8 39.5 39.3 42.35 38.35 41.75 39.85 38.9 39.65 38.8 38.2 41.6 38.0 41.4 Q37.0 40.5 36.65 39.1 36.3 37.75 36.75 36.4 L36.9 36.2 39.0 37.35 37.95 39.35 37.5 37.75 37.85 37.65 38.05 38.15 38.35 37.55 37.05 36.85 Q36.8 37.9 37.1 39.0 37.35 40.05 38.15 40.9 L39.5 38.2 40.45 38.75 38.95 41.6 39.15 41.7 40.65 38.85 M43.15 32.55 L44.15 33.05 42.7 35.9 42.85 35.95 44.3 33.2 44.5 33.35 Q45.6 34.15 46.0 35.4 46.4 36.7 45.95 38.0 L45.85 38.2 43.65 37.3 44.7 35.35 45.2 36.75 44.75 36.95 44.6 36.5 44.25 37.05 45.6 37.65 Q45.85 36.6 45.55 35.6 45.25 34.55 44.45 33.85 L43.0 36.5 42.1 36.1 43.6 33.25 43.35 33.1 41.85 35.95 40.9 35.6 42.25 32.95 40.15 33.2 Q39.0 33.65 38.4 34.5 L39.65 35.05 39.95 34.45 39.4 34.65 39.3 34.25 40.9 33.65 39.85 35.65 37.65 34.65 37.8 34.5 Q38.6 33.35 39.95 32.75 L42.7 32.5 42.95 32.6 41.5 35.35 41.65 35.4 43.15 32.55 M46.15 27.7 L46.15 27.9 Q46.05 28.85 45.35 29.65 44.75 30.4 43.75 30.7 L43.55 30.75 43.4 28.6 43.3 28.6 43.4 30.8 42.55 30.9 42.45 28.65 42.3 28.7 42.45 30.85 42.2 30.8 Q41.2 30.7 40.45 30.05 39.75 29.35 39.5 28.5 L39.45 28.25 41.25 28.15 41.35 29.65 40.45 28.9 40.7 28.7 41.0 28.9 40.9 28.5 39.85 28.55 Q40.1 29.25 40.7 29.8 41.3 30.3 42.1 30.5 L41.9 28.4 42.75 28.3 42.9 30.55 43.05 30.55 42.9 28.3 43.75 28.2 43.85 30.3 Q44.65 30.05 45.15 29.45 45.65 28.8 45.75 28.05 L44.7 28.15 44.75 28.65 45.0 28.35 45.3 28.55 44.45 29.35 44.35 27.85 46.15 27.7 M41.3 23.15 L41.55 23.05 41.8 25.55 41.9 25.5 41.65 23.0 42.45 22.9 42.75 25.4 42.85 25.35 42.6 22.9 42.85 22.9 Q43.85 23.05 44.6 23.7 45.4 24.4 45.65 25.45 L45.65 25.65 43.9 25.9 43.75 24.2 44.7 24.95 44.45 25.3 44.15 25.0 44.2 25.55 45.3 25.35 Q45.05 24.55 44.45 24.05 43.85 23.45 43.0 23.35 L43.25 25.65 42.45 25.8 42.2 23.3 42.05 23.35 42.3 25.9 41.5 25.9 41.25 23.6 Q40.55 23.95 40.0 24.7 39.6 25.4 39.45 26.25 L40.5 26.15 40.45 25.6 40.2 25.9 39.95 25.65 40.7 24.7 40.9 26.45 39.1 26.7 39.15 26.5 Q39.15 25.4 39.75 24.5 40.4 23.6 41.3 23.15 M29.8 46.0 L31.95 44.75 31.9 44.7 29.8 45.9 29.75 45.65 Q29.5 44.65 29.9 43.6 30.3 42.6 31.2 41.95 L31.35 41.85 32.15 43.45 30.65 44.25 31.0 43.1 31.35 43.15 31.2 43.6 31.65 43.35 31.2 42.3 Q30.55 42.9 30.25 43.7 29.95 44.5 30.05 45.35 L32.15 44.2 32.5 44.95 30.3 46.2 30.35 46.3 32.5 45.05 32.9 45.8 30.8 46.95 Q31.4 47.5 32.15 47.7 L33.8 47.65 33.3 46.7 32.85 46.95 33.3 47.05 33.1 47.35 32.0 47.05 33.5 46.2 34.25 47.8 34.1 47.9 32.1 48.05 Q31.05 47.85 30.45 47.05 L30.3 46.85 32.45 45.65 32.35 45.6 30.15 46.75 29.8 46.0 M36.45 42.75 L34.5 44.0 34.1 43.3 35.85 42.2 Q35.3 41.65 34.5 41.45 L33.0 41.55 33.6 42.45 33.95 42.2 33.6 42.15 33.65 41.75 34.85 42.1 33.5 42.85 32.55 41.35 32.75 41.3 34.6 41.15 Q35.55 41.35 36.25 42.1 L36.45 42.25 34.5 43.4 34.6 43.55 36.55 42.35 37.0 43.05 35.05 44.25 35.1 44.35 37.0 43.2 37.05 43.4 Q37.35 44.35 37.2 45.35 36.95 46.35 36.15 47.0 L36.1 47.05 35.1 45.55 36.45 44.75 36.2 45.9 35.85 45.8 35.95 45.45 35.6 45.65 36.15 46.55 Q36.7 46.05 36.85 45.25 37.05 44.5 36.8 43.7 L35.0 44.8 34.65 44.1 36.5 42.95 36.45 42.75" fill="#652d9a" fill-rule="evenodd" stroke="none"/>
      <path d="M42.6 21.4 L42.55 21.4 Q42.15 21.1 42.1 20.65 42.05 20.05 42.5 19.7 L42.55 19.7 Q42.8 19.5 43.15 19.5 L43.3 19.5 43.4 19.5 44.0 19.8 44.2 19.95 44.05 19.7 44.05 19.65 44.0 19.15 Q44.0 18.75 44.25 18.5 44.45 18.2 44.85 18.1 45.3 18.0 45.65 18.3 L46.1 19.0 46.1 19.05 45.8 19.8 45.5 20.4 45.7 20.3 46.2 19.85 46.6 19.5 47.0 19.5 Q47.35 19.5 47.6 19.75 L47.95 20.3 47.8 21.1 47.25 21.55 47.1 21.55 46.85 21.5 46.45 21.5 46.1 21.35 45.9 21.35 46.95 22.05 47.2 22.45 47.25 22.6 47.0 23.4 47.0 23.45 46.35 23.8 45.7 23.65 45.2 23.2 45.2 23.15 45.2 23.1 45.15 22.95 45.05 22.6 44.95 22.15 44.8 22.9 44.25 23.75 44.0 23.8 43.2 23.6 Q42.9 23.35 42.85 22.95 42.75 22.4 43.15 21.95 L43.65 21.6 43.7 21.55 44.35 21.3 44.3 21.3 43.75 21.4 43.0 21.5 42.6 21.4 M46.85 21.5 L46.9 21.5 46.85 21.45 46.85 21.5 M45.5 19.05 L45.4 18.7 45.1 18.5 Q44.75 18.5 44.65 18.8 L44.55 19.35 44.75 20.05 45.0 20.9 45.25 20.1 45.5 19.05 M43.95 21.0 L44.4 20.9 43.8 20.35 Q43.35 20.0 43.05 20.0 42.8 20.0 42.65 20.15 L42.5 20.5 42.75 20.95 43.25 21.05 43.95 21.0 M44.6 21.5 L44.6 21.55 44.25 21.9 43.8 22.2 43.5 22.5 Q43.35 22.65 43.35 22.85 L43.55 23.15 43.8 23.25 Q44.25 23.25 44.5 22.65 L44.65 21.4 44.6 21.5 M45.9 21.0 L46.5 21.05 47.1 20.95 Q47.5 20.8 47.5 20.45 L47.35 20.15 47.05 20.05 46.35 20.3 45.45 20.95 45.9 21.0 M46.7 22.7 Q46.7 22.2 46.1 21.85 L45.35 21.55 45.65 22.6 Q45.85 23.25 46.3 23.25 L46.6 23.05 46.7 22.7" fill="url(#gradient22)" fill-rule="evenodd" stroke="none"/>
      <path d="M42.6 21.4 L43.0 21.5 43.75 21.4 44.3 21.3 44.35 21.3 43.7 21.55 43.65 21.6 43.5 21.6 42.6 21.4 M44.25 23.75 L44.8 22.9 44.95 22.15 45.05 22.6 45.15 22.95 45.2 23.1 45.05 22.65 45.05 22.7 44.7 23.4 44.25 23.75 M47.2 22.45 L46.95 22.05 45.9 21.35 46.1 21.35 46.45 21.5 46.85 21.5 47.1 21.55 47.25 21.55 47.05 21.6 46.45 21.6 46.4 21.6 46.65 21.75 47.15 22.3 47.2 22.45 M46.6 19.5 L46.2 19.85 45.7 20.3 45.5 20.4 45.8 19.8 46.1 19.05 46.05 19.65 45.9 19.95 46.25 19.7 Q46.4 19.55 46.6 19.5 M45.25 19.1 L45.3 19.1 45.15 18.95 44.9 18.95 44.8 19.3 44.9 19.65 45.0 19.75 45.0 19.85 45.25 19.35 45.25 19.1 M45.5 19.05 L45.25 20.1 45.0 20.9 44.75 20.05 44.55 19.35 44.65 18.8 Q44.75 18.5 45.1 18.5 L45.4 18.7 45.5 19.05 M43.75 20.75 L43.8 20.75 43.55 20.5 43.35 20.35 43.05 20.3 42.9 20.45 42.95 20.65 43.2 20.8 43.3 20.8 43.65 20.75 43.75 20.75 M44.6 21.5 L44.65 21.4 44.5 22.65 Q44.25 23.25 43.8 23.25 L43.55 23.15 43.35 22.85 Q43.35 22.65 43.5 22.5 L43.8 22.2 44.25 21.9 44.6 21.55 44.6 21.5 M43.95 21.0 L43.25 21.05 42.75 20.95 42.5 20.5 42.65 20.15 Q42.8 20.0 43.05 20.0 43.35 20.0 43.8 20.35 L44.4 20.9 43.95 21.0 M46.4 20.6 L46.35 20.65 46.25 20.7 46.2 20.7 46.4 20.75 46.75 20.8 47.0 20.75 47.15 20.6 47.15 20.65 47.15 20.45 47.05 20.3 46.75 20.35 46.45 20.6 46.4 20.6 M43.65 22.7 L43.65 22.85 Q43.7 23.0 43.85 23.0 L43.95 23.0 44.15 22.75 44.25 22.45 44.25 22.3 44.35 22.2 44.15 22.25 43.8 22.45 43.65 22.7 M45.9 21.0 L45.45 20.95 46.35 20.3 47.05 20.05 47.35 20.15 47.5 20.45 Q47.5 20.8 47.1 20.95 L46.5 21.05 45.9 21.0 M45.95 22.25 L45.85 22.25 45.8 22.2 45.9 22.75 46.05 22.95 46.3 23.0 46.45 22.8 46.3 22.45 45.95 22.25 M46.7 22.7 L46.6 23.05 46.3 23.25 Q45.85 23.25 45.65 22.6 L45.35 21.55 46.1 21.85 Q46.7 22.2 46.7 22.7" fill="url(#gradient23)" fill-rule="evenodd" stroke="none"/>
      <path d="M46.85 21.5 L46.85 21.45 46.9 21.5 46.85 21.5" fill="url(#gradient24)" fill-rule="evenodd" stroke="none"/>
      <path d="M28.5 48.8 L28.5 48.75 Q28.45 48.25 28.8 47.9 29.2 47.5 29.75 47.6 L29.8 47.65 Q30.1 47.75 30.3 48.0 L30.4 48.1 30.45 48.2 30.65 48.8 30.65 49.05 30.75 48.8 30.8 48.75 Q30.9 48.5 31.15 48.4 31.45 48.15 31.8 48.2 L32.5 48.4 Q32.85 48.65 32.85 49.15 L32.6 49.95 32.55 50.0 31.8 50.2 31.1 50.35 31.35 50.45 32.0 50.55 32.5 50.65 32.8 50.95 32.95 51.6 32.8 52.2 32.1 52.6 31.4 52.45 31.3 52.35 31.2 52.1 30.9 51.8 30.8 51.45 30.65 51.25 30.8 52.55 30.75 52.75 30.7 52.85 30.7 52.9 30.65 52.95 30.6 53.1 Q30.25 53.45 29.8 53.4 L29.8 53.45 Q29.4 53.5 29.05 53.2 L28.8 52.6 28.75 51.95 28.8 51.9 28.85 51.9 28.95 51.75 29.15 51.45 29.2 51.4 29.45 51.05 28.75 51.45 27.75 51.55 27.55 51.4 Q27.2 51.05 27.2 50.65 27.2 50.25 27.45 50.0 27.85 49.55 28.45 49.55 L29.05 49.7 29.1 49.75 29.75 50.1 29.7 50.05 29.25 49.65 28.7 49.15 28.5 48.8 M29.15 48.1 Q28.9 48.3 28.95 48.6 L29.2 49.05 29.65 49.55 30.05 49.8 30.1 49.0 29.9 48.25 29.5 48.0 29.15 48.1 M32.4 49.2 L32.35 48.85 Q32.15 48.6 31.8 48.7 L31.35 49.0 30.95 49.6 30.45 50.3 31.2 49.95 32.15 49.5 32.4 49.2 M30.9 51.05 L31.25 51.55 31.75 51.95 Q32.1 52.15 32.4 51.95 L32.5 51.65 32.4 51.35 31.75 50.95 30.7 50.7 30.9 51.05 M29.15 50.35 L28.7 50.2 28.25 50.2 27.9 50.25 27.75 50.6 27.9 50.9 28.8 51.05 29.8 50.35 29.75 50.35 29.7 50.4 29.15 50.35 M29.55 51.9 Q29.2 52.5 29.5 52.85 L29.8 52.9 30.15 52.8 Q30.55 52.45 30.4 51.8 L30.15 51.0 29.55 51.9" fill="url(#gradient25)" fill-rule="evenodd" stroke="none"/>
      <path d="M28.5 48.8 L28.7 49.15 29.25 49.65 29.7 50.05 29.75 50.1 29.1 49.75 29.05 49.7 28.95 49.6 Q28.55 49.2 28.5 48.8 M27.75 51.55 L28.75 51.45 29.45 51.05 29.2 51.4 29.15 51.45 28.95 51.75 28.85 51.9 29.1 51.5 28.3 51.65 27.75 51.55 M30.75 52.75 L30.8 52.55 30.65 51.25 30.8 51.45 30.9 51.8 31.2 52.1 31.3 52.35 31.4 52.45 31.2 52.3 30.85 51.9 30.85 52.1 30.75 52.75 M32.5 50.65 L32.0 50.55 31.35 50.45 31.1 50.35 31.8 50.2 32.55 50.0 32.05 50.3 31.7 50.35 32.15 50.5 32.5 50.65 M29.45 48.4 L29.35 48.55 29.35 48.85 29.4 48.9 29.7 49.2 29.75 49.25 29.8 49.3 29.8 48.9 29.8 48.65 29.65 48.45 29.45 48.4 M29.15 48.1 L29.5 48.0 29.9 48.25 30.1 49.0 30.05 49.8 29.65 49.55 29.2 49.05 28.95 48.6 Q28.9 48.3 29.15 48.1 M31.5 49.15 L31.35 49.4 31.3 49.6 31.25 49.65 31.8 49.5 31.95 49.3 32.0 49.35 32.05 49.2 31.9 49.0 Q31.7 48.95 31.5 49.15 M32.4 49.2 L32.15 49.5 31.2 49.95 30.45 50.3 30.95 49.6 31.35 49.0 31.8 48.7 Q32.15 48.6 32.35 48.85 L32.4 49.2 M31.45 51.3 L31.6 51.55 31.85 51.75 32.0 51.8 32.15 51.7 32.2 51.5 31.95 51.25 31.55 51.25 31.55 51.2 31.5 51.15 31.4 51.15 31.35 51.1 31.45 51.3 M30.9 51.05 L30.7 50.7 31.75 50.95 32.4 51.35 32.5 51.65 32.4 51.95 Q32.1 52.15 31.75 51.95 L31.25 51.55 30.9 51.05 M29.15 50.35 L29.7 50.4 29.75 50.35 29.8 50.35 28.8 51.05 27.9 50.9 27.75 50.6 27.9 50.25 28.25 50.2 28.7 50.2 29.15 50.35 M30.0 51.9 L29.95 51.85 29.95 51.75 29.55 52.15 29.5 52.45 29.7 52.65 29.9 52.65 30.1 52.3 30.0 51.9 M28.2 50.45 Q28.1 50.4 28.1 50.5 L28.1 50.75 28.15 50.8 28.45 50.85 28.75 50.7 28.85 50.6 29.05 50.65 28.85 50.55 28.5 50.35 28.2 50.45 M29.55 51.9 L30.15 51.0 30.4 51.8 Q30.55 52.45 30.15 52.8 L29.8 52.9 29.5 52.85 Q29.2 52.5 29.55 51.9" fill="url(#gradient26)" fill-rule="evenodd" stroke="none"/>
    </g>
    <radialGradient cx="0" cy="0" gradientTransform="matrix(0.0058, 0.0, 0.0, 0.0058, 25.05, 49.2)" gradientUnits="userSpaceOnUse" id="gradient0" r="819.2" spreadMethod="pad">
      <stop offset="0.0" stop-color="#fff9bf"/>
      <stop offset="1.0" stop-color="#e7b04c"/>
    </radialGradient>
    <radialGradient cx="0" cy="0" gradientTransform="matrix(0.0058, 0.0, 0.0, 0.0058, 25.05, 49.2)" gradientUnits="userSpaceOnUse" id="gradient1" r="819.2" spreadMethod="pad">
      <stop offset="0.0" stop-color="#ffffff"/>
      <stop offset="1.0" stop-color="#b8bfcb"/>
    </radialGradient>
    <radialGradient cx="0" cy="0" gradientTransform="matrix(0.0058, 0.0, 0.0, 0.0058, 25.05, 49.2)" gradientUnits="userSpaceOnUse" id="gradient2" r="819.2" spreadMethod="pad">
      <stop offset="0.0" stop-color="#dedede"/>
      <stop offset="1.0" stop-color="#908baa"/>
    </radialGradient>
    <radialGradient cx="0" cy="0" gradientTransform="matrix(0.0101, 0.0, 0.0, 0.0101, 24.5, 37.15)" gradientUnits="userSpaceOnUse" id="gradient3" r="819.2" spreadMethod="pad">
      <stop offset="0.0" stop-color="#d9d9d9"/>
      <stop offset="1.0" stop-color="#8b8e9c"/>
    </radialGradient>
    <radialGradient cx="0" cy="0" gradientTransform="matrix(0.0101, 0.0, 0.0, 0.0101, 24.5, 37.15)" gradientUnits="userSpaceOnUse" id="gradient4" r="819.2" spreadMethod="pad">
      <stop offset="0.0" stop-color="#fcfcfc"/>
      <stop offset="1.0" stop-color="#d0d0d0"/>
    </radialGradient>
    <radialGradient cx="0" cy="0" gradientTransform="matrix(0.0017, 0.0, 0.0, 0.0017, 23.3, 44.65)" gradientUnits="userSpaceOnUse" id="gradient5" r="819.2" spreadMethod="pad">
      <stop offset="0.0" stop-color="#c42dba"/>
      <stop offset="1.0" stop-color="#33125b"/>
    </radialGradient>
    <radialGradient cx="0" cy="0" gradientTransform="matrix(0.001, 0.0, 0.0, 0.001, 23.25, 44.8)" gradientUnits="userSpaceOnUse" id="gradient6" r="819.2" spreadMethod="pad">
      <stop offset="0.0" stop-color="#c42dba"/>
      <stop offset="1.0" stop-color="#33125b"/>
    </radialGradient>
    <linearGradient gradientTransform="matrix(6.0E-4, 0.0049, -0.0123, 0.0016, 38.9, 25.9)" gradientUnits="userSpaceOnUse" id="gradient7" spreadMethod="pad" x1="-819.2" x2="819.2">
      <stop offset="0.0" stop-color="#9790f4"/>
      <stop offset="1.0" stop-color="#3151b0"/>
    </linearGradient>
    <linearGradient gradientTransform="matrix(0.001, 0.008, -0.0141, 0.0017, 38.6, 28.8)" gradientUnits="userSpaceOnUse" id="gradient8" spreadMethod="pad" x1="-819.2" x2="819.2">
      <stop offset="0.0" stop-color="#9790f4"/>
      <stop offset="1.0" stop-color="#3151b0"/>
    </linearGradient>
    <linearGradient gradientTransform="matrix(-0.0026, 0.0028, -0.0109, -0.0104, 35.4, 38.4)" gradientUnits="userSpaceOnUse" id="gradient9" spreadMethod="pad" x1="-819.2" x2="819.2">
      <stop offset="0.0" stop-color="#9790f4"/>
      <stop offset="1.0" stop-color="#3151b0"/>
    </linearGradient>
    <linearGradient gradientTransform="matrix(-0.0013, 0.005, -0.0146, -0.0038, 38.65, 33.5)" gradientUnits="userSpaceOnUse" id="gradient10" spreadMethod="pad" x1="-819.2" x2="819.2">
      <stop offset="0.0" stop-color="#9790f4"/>
      <stop offset="1.0" stop-color="#3151b0"/>
    </linearGradient>
    <linearGradient gradientTransform="matrix(-0.0039, 0.003, -0.0086, -0.0112, 33.25, 41.55)" gradientUnits="userSpaceOnUse" id="gradient11" spreadMethod="pad" x1="-819.2" x2="819.2">
      <stop offset="0.0" stop-color="#9790f4"/>
      <stop offset="1.0" stop-color="#3151b0"/>
    </linearGradient>
    <linearGradient gradientTransform="matrix(-0.0063, 0.0023, -0.0043, -0.0117, 29.75, 42.9)" gradientUnits="userSpaceOnUse" id="gradient12" spreadMethod="pad" x1="-819.2" x2="819.2">
      <stop offset="0.0" stop-color="#9790f4"/>
      <stop offset="1.0" stop-color="#3151b0"/>
    </linearGradient>
    <linearGradient gradientTransform="matrix(0.0045, -0.0086, 0.0079, 0.0041, 38.1, 23.65)" gradientUnits="userSpaceOnUse" id="gradient13" spreadMethod="pad" x1="-819.2" x2="819.2">
      <stop offset="0.0" stop-color="#e5e5e5"/>
      <stop offset="1.0" stop-color="#949aaa"/>
    </linearGradient>
    <linearGradient gradientTransform="matrix(0.0149, 0.0, 0.0, 0.0021, 37.5, 31.0)" gradientUnits="userSpaceOnUse" id="gradient14" spreadMethod="pad" x1="-819.2" x2="819.2">
      <stop offset="0.0" stop-color="#e5e5e5"/>
      <stop offset="1.0" stop-color="#949aaa"/>
    </linearGradient>
    <linearGradient gradientTransform="matrix(0.0146, 0.0, 0.0, 0.0016, 37.65, 27.3)" gradientUnits="userSpaceOnUse" id="gradient15" spreadMethod="pad" x1="-819.2" x2="819.2">
      <stop offset="0.0" stop-color="#e5e5e5"/>
      <stop offset="1.0" stop-color="#949aaa"/>
    </linearGradient>
    <linearGradient gradientTransform="matrix(0.0137, 0.0, 0.0, 0.007, 36.35, 35.35)" gradientUnits="userSpaceOnUse" id="gradient16" spreadMethod="pad" x1="-819.2" x2="819.2">
      <stop offset="0.0" stop-color="#e5e5e5"/>
      <stop offset="1.0" stop-color="#949aaa"/>
    </linearGradient>
    <linearGradient gradientTransform="matrix(0.0044, 0.0, 0.0, 0.0135, 28.25, 42.15)" gradientUnits="userSpaceOnUse" id="gradient17" spreadMethod="pad" x1="-819.2" x2="819.2">
      <stop offset="0.0" stop-color="#e5e5e5"/>
      <stop offset="1.0" stop-color="#949aaa"/>
    </linearGradient>
    <linearGradient gradientTransform="matrix(0.0094, 0.0, 0.0, 0.0094, 35.15, 39.9)" gradientUnits="userSpaceOnUse" id="gradient18" spreadMethod="pad" x1="-819.2" x2="819.2">
      <stop offset="0.0" stop-color="#e5e5e5"/>
      <stop offset="1.0" stop-color="#949aaa"/>
    </linearGradient>
    <linearGradient gradientTransform="matrix(0.0081, 0.0, 0.0, 0.0126, 31.45, 40.6)" gradientUnits="userSpaceOnUse" id="gradient19" spreadMethod="pad" x1="-819.2" x2="819.2">
      <stop offset="0.0" stop-color="#e5e5e5"/>
      <stop offset="1.0" stop-color="#949aaa"/>
    </linearGradient>
    <linearGradient gradientTransform="matrix(-0.0116, 0.0222, -0.0082, -0.0043, 47.15, 30.65)" gradientUnits="userSpaceOnUse" id="gradient20" spreadMethod="pad" x1="-819.2" x2="819.2">
      <stop offset="0.0" stop-color="#b8b8b8"/>
      <stop offset="1.0" stop-color="#5a616d"/>
    </linearGradient>
    <radialGradient cx="0" cy="0" gradientTransform="matrix(0.0371, 0.0, 0.0, 0.0371, 52.25, 26.85)" gradientUnits="userSpaceOnUse" id="gradient21" r="819.2" spreadMethod="pad">
      <stop offset="0.0" stop-color="#e8ebf5"/>
      <stop offset="0.4470588235294118" stop-color="#ced0e0"/>
      <stop offset="1.0" stop-color="#9aa0bb"/>
    </radialGradient>
    <radialGradient cx="0" cy="0" gradientTransform="matrix(0.0039, 0.0, 0.0, 0.0039, 45.05, 20.95)" gradientUnits="userSpaceOnUse" id="gradient22" r="819.2" spreadMethod="pad">
      <stop offset="0.0" stop-color="#e8ebf5"/>
      <stop offset="1.0" stop-color="#b3b9d2"/>
    </radialGradient>
    <radialGradient cx="0" cy="0" gradientTransform="matrix(0.0039, 0.0, 0.0, 0.0039, 45.05, 20.95)" gradientUnits="userSpaceOnUse" id="gradient23" r="819.2" spreadMethod="pad">
      <stop offset="0.0" stop-color="#9a9a9a"/>
      <stop offset="1.0" stop-color="#6d6e77"/>
    </radialGradient>
    <radialGradient cx="0" cy="0" gradientTransform="matrix(0.0039, 0.0, 0.0, 0.0039, 45.05, 20.95)" gradientUnits="userSpaceOnUse" id="gradient24" r="819.2" spreadMethod="pad">
      <stop offset="0.0" stop-color="#d9d183"/>
      <stop offset="1.0" stop-color="#bf8e34"/>
    </radialGradient>
    <radialGradient cx="0" cy="0" gradientTransform="matrix(0.0025, 0.003, -0.003, 0.0025, 30.45, 50.35)" gradientUnits="userSpaceOnUse" id="gradient25" r="819.2" spreadMethod="pad">
      <stop offset="0.0" stop-color="#e8ebf5"/>
      <stop offset="1.0" stop-color="#b3b9d2"/>
    </radialGradient>
    <radialGradient cx="0" cy="0" gradientTransform="matrix(0.0025, 0.003, -0.003, 0.0025, 30.45, 50.35)" gradientUnits="userSpaceOnUse" id="gradient26" r="819.2" spreadMethod="pad">
      <stop offset="0.0" stop-color="#9a9a9a"/>
      <stop offset="1.0" stop-color="#6d6e77"/>
    </radialGradient>
  </defs>
</svg>
