<?xml version="1.0" encoding="UTF-8" standalone="no"?>
<svg xmlns:ffdec="https://www.free-decompiler.com/flash" xmlns:xlink="http://www.w3.org/1999/xlink" ffdec:objectType="frame" height="28.0px" width="35.75px" xmlns="http://www.w3.org/2000/svg">
  <g transform="matrix(1.0, 0.0, 0.0, 1.0, -8.2, -21.4)">
    <use ffdec:characterId="1" height="28.0" transform="matrix(1.0, 0.0, 0.0, 1.0, 8.2, 21.4)" width="35.75" xlink:href="#shape0"/>
  </g>
  <defs>
    <g id="shape0" transform="matrix(1.0, 0.0, 0.0, 1.0, -8.2, -21.4)">
      <path d="M43.85 42.6 Q43.55 44.8 42.1 45.9 40.0 47.5 38.2 48.1 33.15 50.65 33.15 48.2 33.15 45.75 36.85 44.65 40.5 43.5 40.2 40.75 L40.2 40.6 40.4 41.0 Q40.95 40.45 40.8 39.8 41.8 40.65 41.8 41.2 L42.2 39.8 Q42.8 40.4 42.8 41.15 L42.8 40.8 43.2 40.6 43.85 42.6" fill="#eccec0" fill-rule="evenodd" stroke="none"/>
      <path d="M40.2 40.6 Q39.7 37.9 32.0 36.5 L23.6 34.8 Q19.75 33.4 14.95 30.4 8.2 26.1 8.2 22.9 8.2 21.4 9.7 21.4 L10.9 21.55 Q13.5 26.0 18.95 28.55 22.6 30.3 29.85 31.95 37.1 33.55 40.3 35.1 43.5 36.6 43.85 40.45 L43.85 42.6 43.2 40.6 42.8 40.8 42.8 41.15 Q42.8 40.4 42.2 39.8 L41.8 41.2 Q41.8 40.65 40.8 39.8 40.95 40.45 40.4 41.0 L40.2 40.6" fill="url(#gradient0)" fill-rule="evenodd" stroke="none"/>
      <path d="M42.1 43.25 Q43.8 41.05 42.9 38.0 44.15 40.3 43.9 42.3 L43.5 44.2 43.45 44.15 Q42.95 45.2 42.1 45.9 40.0 47.5 38.2 48.1 33.15 50.65 33.15 48.2 33.15 47.15 33.85 46.35 L33.7 47.05 Q33.55 47.65 34.65 47.8 35.7 47.95 38.3 46.25 40.35 45.45 42.1 43.25 M11.0 23.2 Q11.0 28.15 19.75 31.55 24.25 33.3 29.8 34.4 L33.95 35.45 Q36.85 36.15 38.75 36.95 39.7 37.35 40.6 38.4 41.7 40.15 40.15 42.2 40.65 37.55 32.4 36.3 L23.6 34.8 Q19.75 33.4 14.95 30.4 8.2 26.1 8.2 22.9 8.2 21.4 9.7 21.4 L10.9 21.55 11.2 22.05 11.0 23.2" fill="#000000" fill-opacity="0.29803923" fill-rule="evenodd" stroke="none"/>
    </g>
    <linearGradient gradientTransform="matrix(0.0218, 0.0, 0.0, 0.0129, 26.05, 32.0)" gradientUnits="userSpaceOnUse" id="gradient0" spreadMethod="pad" x1="-819.2" x2="819.2">
      <stop offset="0.0" stop-color="#543324"/>
      <stop offset="1.0" stop-color="#7e6053"/>
    </linearGradient>
  </defs>
</svg>
