<svg xmlns="http://www.w3.org/2000/svg" xmlns:ffdec="https://www.free-decompiler.com/flash" xmlns:xlink="http://www.w3.org/1999/xlink" ffdec:objectType="frame" width="57.1" height="39.3"><use ffdec:characterId="3" xlink:href="#a" width="57.1" height="39.3"/><defs><radialGradient id="b" cx="0" cy="0" r="819.2" gradientTransform="matrix(0 0 0 0 0 0)" gradientUnits="userSpaceOnUse" spreadMethod="pad"><stop offset="0" stop-color="#919191"/><stop offset=".553" stop-color="#958c83"/><stop offset="1" stop-color="#adadad"/></radialGradient><radialGradient id="c" cx="0" cy="0" r="819.2" gradientTransform="translate(-19.3 14.9)scale(.0001)" gradientUnits="userSpaceOnUse" spreadMethod="pad"><stop offset="0" stop-color="#d4d4d4"/><stop offset=".22" stop-color="#fafafa"/><stop offset=".784" stop-color="#f4f4f4"/><stop offset="1" stop-color="#e2e2e2"/></radialGradient><radialGradient id="d" cx="0" cy="0" r="819.2" gradientTransform="translate(23.25 15)scale(.0212)" gradientUnits="userSpaceOnUse" spreadMethod="pad"><stop offset=".235" stop-color="#e0dbd4"/><stop offset=".573" stop-color="#fff"/></radialGradient><radialGradient id="e" cx="0" cy="0" r="819.2" gradientTransform="translate(-7.6 11.5)scale(.0281)" gradientUnits="userSpaceOnUse" spreadMethod="pad"><stop offset="0" stop-color="#e0dbd4"/><stop offset=".333" stop-color="#c4bcb2"/><stop offset=".867" stop-color="#e0e0e0"/></radialGradient><radialGradient id="f" cx="0" cy="0" r="819.2" gradientTransform="translate(23.25 15)scale(.0212)" gradientUnits="userSpaceOnUse" spreadMethod="pad"><stop offset="0" stop-color="#e0dbd4"/><stop offset=".333" stop-color="#c4bcb2"/><stop offset=".867" stop-color="#e0e0e0"/></radialGradient><radialGradient id="g" cx="0" cy="0" r="819.2" gradientTransform="translate(5.25 28.65)scale(.0007)" gradientUnits="userSpaceOnUse" spreadMethod="pad"><stop offset="0" stop-color="#e0dbd4"/><stop offset=".333" stop-color="#c4bcb2"/><stop offset=".867" stop-color="#e0e0e0"/></radialGradient><radialGradient id="h" cx="0" cy="0" r="819.2" gradientTransform="translate(23.25 15)scale(.0212)" gradientUnits="userSpaceOnUse" spreadMethod="pad"><stop offset=".235" stop-color="#be8c8c"/><stop offset=".573" stop-color="#e0c3b5"/></radialGradient><radialGradient id="i" cx="0" cy="0" r="819.2" gradientTransform="translate(-7.6 11.5)scale(.0281)" gradientUnits="userSpaceOnUse" spreadMethod="pad"><stop offset=".235" stop-color="#be8c8c"/><stop offset=".573" stop-color="#e0c3b5"/></radialGradient><radialGradient id="j" cx="0" cy="0" r="819.2" gradientTransform="translate(23.25 15)scale(.0212)" gradientUnits="userSpaceOnUse" spreadMethod="pad"><stop offset="0" stop-color="#d29898"/><stop offset=".333" stop-color="#a36161"/><stop offset=".867" stop-color="#d29898"/></radialGradient><radialGradient id="k" cx="0" cy="0" r="819.2" gradientTransform="translate(-7.6 11.5)scale(.0281)" gradientUnits="userSpaceOnUse" spreadMethod="pad"><stop offset="0" stop-color="#d29898"/><stop offset=".333" stop-color="#a36161"/><stop offset=".867" stop-color="#d29898"/></radialGradient><radialGradient id="l" cx="0" cy="0" r="819.2" gradientTransform="translate(23.25 15)scale(.0212)" gradientUnits="userSpaceOnUse" spreadMethod="pad"><stop offset=".235" stop-color="#f5ad48"/><stop offset=".573" stop-color="#f0ecaa"/></radialGradient><radialGradient id="m" cx="0" cy="0" r="819.2" gradientTransform="translate(-7.6 11.5)scale(.0281)" gradientUnits="userSpaceOnUse" spreadMethod="pad"><stop offset=".235" stop-color="#f5ad48"/><stop offset=".573" stop-color="#f0ecaa"/></radialGradient><radialGradient id="n" cx="0" cy="0" r="819.2" gradientTransform="translate(23.25 15)scale(.0212)" gradientUnits="userSpaceOnUse" spreadMethod="pad"><stop offset="0" stop-color="#cfb38a"/><stop offset=".333" stop-color="#bf743a"/><stop offset=".867" stop-color="#cfb38a"/></radialGradient><radialGradient id="o" cx="0" cy="0" r="819.2" gradientTransform="translate(-7.6 11.5)scale(.0281)" gradientUnits="userSpaceOnUse" spreadMethod="pad"><stop offset="0" stop-color="#cfb38a"/><stop offset=".333" stop-color="#bf743a"/><stop offset=".867" stop-color="#cfb38a"/></radialGradient><radialGradient id="p" cx="0" cy="0" r="819.2" gradientTransform="translate(23.25 15)scale(.0212)" gradientUnits="userSpaceOnUse" spreadMethod="pad"><stop offset=".235" stop-color="#cb4343"/><stop offset=".573" stop-color="#e9c260"/></radialGradient><radialGradient id="q" cx="0" cy="0" r="819.2" gradientTransform="translate(-7.6 11.5)scale(.0281)" gradientUnits="userSpaceOnUse" spreadMethod="pad"><stop offset=".235" stop-color="#cb4343"/><stop offset=".573" stop-color="#e9c260"/></radialGradient><radialGradient id="r" cx="0" cy="0" r="819.2" fx="12.8" fy="0" gradientTransform="matrix(.0093 .0097 -.0127 .0122 20.5 11.75)" gradientUnits="userSpaceOnUse" spreadMethod="pad"><stop offset="0" stop-color="#ee7959"/><stop offset=".212" stop-color="#b15528"/><stop offset=".478" stop-color="#800b0b"/><stop offset=".882" stop-color="#b15528"/><stop offset="1" stop-color="#eea359"/></radialGradient><radialGradient id="s" cx="0" cy="0" r="819.2" fx="12.8" fy="0" gradientTransform="matrix(.0117 -.01 .016 .0188 -4.1 11.95)" gradientUnits="userSpaceOnUse" spreadMethod="pad"><stop offset="0" stop-color="#ee7959"/><stop offset=".212" stop-color="#b15528"/><stop offset=".478" stop-color="#800b0b"/><stop offset=".882" stop-color="#b15528"/><stop offset="1" stop-color="#eea359"/></radialGradient><g id="a" fill-rule="evenodd"><path fill="url(#b)" d="m18.2 5.25 1.45 2.25-.15.1-.8-.75.55 1-.2.15.1.25-.05.15-.1.05-.95-1.6q-.55-.9-2.2-1.35l.25-.4.35-.25.8-.4zm-17.35.5L-.85 6.9q-.75.6-.8.45l-.2-.05-.1-.25.55-.7.55-.6-.3-1.4q0-1.2.75-1.2 1.5 0 2.85.8l.75.5.3.6-.25.05-.9.05q-.6 0-1.5.6" transform="translate(20.75 7.4)"/><path fill="url(#c)" d="m-19.35 14.8.1.15h-.05z" transform="translate(20.75 7.4)"/><path fill="url(#d)" d="M14.65 25.4v-.05l.05-.25.05.15z" transform="translate(20.75 7.4)"/><path fill="url(#e)" d="m5.9 31.9-.25-.1v-.1q0-.3.4-.15l.05.15z" transform="translate(20.75 7.4)"/><path fill="url(#f)" d="m28.6-1.1-.1-.35.1.3zM13.4 21.5l.05-.1v.05z" transform="translate(20.75 7.4)"/><path fill="url(#g)" d="m5.5 28.4-.05.3q.05.2-.45.2z" transform="translate(20.75 7.4)"/><path fill="url(#h)" d="M11.9 14.35q.6-.65 1.4-1 1.15-.55 2.3-1.65l2.15-1.6.85-1.35q-.25 1.75-2.3 3zm.8-3.85v-.05q0-1.1.6-1.45-.4.7-.45 1.05z" transform="translate(20.75 7.4)"/><path fill="url(#i)" d="m3.3 14.5-1.6-1.8Q.25 11.25-.2 9.55l3.4 4.6zm-.95-4.95L2.3 9.5 1 8.55Q-1.4 8-1.65 7.15q-.25-.9.1-.5L0 7.9l-.05-.15q.6.4 1.7.85z" transform="translate(20.75 7.4)"/><path fill="url(#j)" d="m22.1 1.35 1.4-.15 1.3-.5q2-.95 2-2.15l-.2-.7q-.4-.6-1.4-.8l.5-.05h.3q.8.55.9 1.6.15 1.25-.6 1.8l-1.1.7q-.95.6-2.15.4zM26.3.8q2.1-.4 2.3-1.9l-.15.9v.15Q27.5 1.1 25.6 1.5z" transform="translate(20.75 7.4)"/><path fill="url(#k)" d="M-13.9-7.3q1.2.95 2.9 1.35.8.15 1.45.95.55.6.6 1.3l-1.75-1.15h.15q-3-1.15-3.65-2.55zm-1.9 3.2 2.8-.35q1.25 0 2.2.8-1.8-.6-3.4-.05l-.65.2.45-.35-1.15.1-1.25-.15zm-.3 3.2q.75-.2 1.65-.85l.05-.05q-.4 1.85-2.05 3.55l-.55.75q.3-.7.35-1.55l-.2.05q.75-.9.75-1.6z" transform="translate(20.75 7.4)"/><path fill="url(#l)" d="m24.1 19.7-1.95.55-2.25 1q-.55.2-1.75.9l-.2.1q-1.6.15-1.9 1.3L16 23.5l-.4-.65v.65q-.15-.85.35-1.55-.75.35-1.1 1-.4.65-.45 1.25-.05.3.05.5l-.6-.3-.55-.45-.1-.2.1.55-.1-.2q-.7-1.2.2-2.6l.05-.05v-.05l-.05.1-1.1.8v.1q-.8 2.1.65 3.15l.85 1.25v.25q.05.8-.4 1.35l.2-1.1q.05-1.05-1.2-1.9-1.3-.8-1.1-1.8v-.05h-.05q.35-1.4 1.1-2.55l-.5.4q-1.2.95-1.65 2.3l-.05-.2q0-1.35 1.45-3.15.45-1.35 1.35-3.1l1.1-1.05 3.3-3.9q-.05.8-.65 1.65l-3.9 5.7 3.95-3.2-2.2 4.05 4-2.95-.55.65q-2.3 2.15-4.05 4.6 1.15-.7 2.55-1.45l4.95-2.8-.05.05-3.85 3.45 2.75-1.25 5.4-3.4z" transform="translate(20.75 7.4)"/><path fill="url(#m)" d="M-3.6 20.75q-2-2.25-4.8-3.65 4.85 1.25 9.1 3.8-3.05-2.25-5.6-4.9 3.25 2.1 7 3.4L.9 17.7l2.9 1.9q-1.15-1.2-2-3.3l1.95 1.45q.75 1.55 1.1 3.2l.45 2.8q-.6-1.3-1.55-2.5l.15.25q.8 1.65.9 3.4l-.1-.5q-.85-2.65-3.35-3.5l.45.55q1.4 1.7 2.15 3.55l-2-1.65-1.35-.8q-.95-1-2.15-1.4l.3.5 2.3 2.3q0 .5-.2.5Q.8 23.55.1 23q-.7-.6-2.55-1.6l-1.1-.6z" transform="translate(20.75 7.4)"/><path fill="url(#n)" d="M17.95 22.25q-1.05.65-1.45 1.55l-.25 1.2-.2-1.45q.3-1.15 1.9-1.3M15.6 23.5q-.15 1.05-.95 2.5v.05q-.15-.3 0-.65l.1-.15-.05-.15v-.15l-.2-.2-.05-.05q-.1-.2-.05-.5.05-.6.45-1.25.35-.65 1.1-1-.5.7-.35 1.55m-2.3.8.4.7q.4.4.65 1.85l-.2.75q-.2.95-.95 1.4l-.05-.2.25-.4q.45-.55.4-1.35v-.25l-.85-1.25q-1.45-1.05-.65-3.15v-.1l1.1-.8q-.9 1.4-.2 2.6zm-2.05-.75q-.25 0-.45.55-.25.55-.15.7l.15.85-.45-1.05-.15-.9q.45-1.35 1.65-2.3l.5-.4q-.75 1.15-1.1 2.55" transform="translate(20.75 7.4)"/><path fill="url(#o)" d="M3.95 25q-.75-1.85-2.15-3.55l-.45-.55q2.5.85 3.35 3.5l.1.5q-.1-1.75-.9-3.4l-.15-.25q.95 1.2 1.55 2.5l.2 4.55-.05 2.1.05-2v-.15q-.15-1.7-1.55-3.25M.6 22.55l-.35-.2q.8.95.8 1.55v.05l-2.3-2.3-.3-.5q1.2.4 2.15 1.4" transform="translate(20.75 7.4)"/><path fill="url(#p)" d="m25.7-3 .7-.1q.55 0 .85.75l.2 1.1L27.2-.2l-1.1 1-.05.05.25-.05-.7.7q1.9-.4 2.85-1.55V-.2l.15-.9v-.05l.3.75q0 .7-.6 1.1l-.9.35q5.1.3 6.45 3.9L34.9 6.8q1.45 2.8 1.45 3.5 0 1.5-.85 2.75v-.35q.05-1.9-.55-3.6-.7-2.1-2.5-3.45L33.5 7.3l.45 1.25.1 1.75-.1 1.15-.25.55-.05-1-.2-1.25q-.15 1.4-1.25 2.55.65-2.05-.1-3.9.2 1.9-1.35 3-2.05 1.55-4.7 1.5l.5-.45q0-.25.15-.55.4-1 .15-1.5-1.05 1.9-3.25 2.25 1.4-.95 1.95-2.7.8-2.45-.8-4.5 0 1.35-.8 2.5-1.25 1.9-3.1 2.75l.5-.3.4-.65.85-2.05q.55-2.05-.9-3.4l.1.35q.6 2.3-1.05 4.1.75-1.8.1-3.7-.55-1.55-2-1.9-1.85.05-3 2.25.35-1.15.8-1.7.9-1.15 2.95-1.8l2.5-.55.95.15q1.2.2 2.15-.4l1.1-.7q.75-.55.6-1.8-.1-1.05-.9-1.6z" transform="translate(20.75 7.4)"/><path fill="url(#q)" d="M3.2 3.8 1.1 2.2Q-.85.7-2.3 1.5q-.55.65-.7 1.4L-4.7-1q-2.2 4.4-.7 8.6h-.05l.55.95q1.55 2.1 4.25 4.55l-.05.1-.1.05q-.25 0-1.85-1.75L-5 8.8l-.7-1.25-.2-.05q-.1.8.4 2.8-2.95-3.85-2.9-8.4-1.75 4.8-.2 9.4l.45.75q1.15 1.65 2.4 2.3l-.2.15-1.15-.8-1.15-1.3-.3-.35Q-10.35 10.8-11.2 9l.1 3.6.3.5q-1.25-.4-2.1-1.55-2.4-3.4-1.95-7.2-.3 1.75-1.25 3.2l-.05.65q0 1.95 2.6 4.2l-.15.15q-.8 0-1.9-2.05l-.65-1.25-.15-1.1V8l-.1.1-.05-.05-.75-2.15q-.3 1.7-.7 2.7l-.05-.05Q-19.1 5.9-18.1 3.4q-1.7 1.9-2 4.5l-.6-.5.1-.6q.85-3.3 2.6-4.7l1.15-1.1.2-.05q-.05.85-.35 1.55l.55-.75Q-14.8.05-14.4-1.8l-.05.05q-.9.65-1.65.85.1-1.55 1.25-2.6l.65-.2q1.6-.55 3.4.05-.95-.8-2.2-.8l-2.8.35 2.6-1.1h.15l1.1.05 1.25.3 1.75 1.15Q-9-4.4-9.55-5q-.65-.8-1.45-.95-1.7-.4-2.9-1.35l3.4.95q.95.15 2.1.8l1.1.85.05.05q-.6-1-1.55-1.5l-.9-.4.15-.2q2.7.7 4.45 2.05l1.3 1.3.2.1L.25.3Q2.5 2.6 3.2 3.8" transform="translate(20.75 7.4)"/><path fill="url(#r)" d="m35.5 13.05-1.25 1.75-.85 1.05.15.4.15.2q-.6-.35-.6-.95l.1-.65v-.35q0-.55-.5-.85l-.1.1.15.9-.1.95-.4.95-.1-1.5-.1.95q-.2 1.6-2.55 1.95h-.05q1.65-.5 1.15-2.1L28.9 18q-.9.8-3.25 1.35l-1.55.35 1.6-2.3-5.4 3.4-2.75 1.25 3.85-3.45.05-.05-4.95 2.8q-1.4.75-2.55 1.45 1.75-2.45 4.05-4.6l.55-.65-4 2.95 2.2-4.05-3.95 3.2 3.9-5.7q.6-.85.65-1.65l-3.3 3.9-1.1 1.05.5-1-.65.05q-.4-.05-1.25.5-.85.5-.85.75l-.1.25q.25-1.45 1.55-2.2l2.3-1.15.35-.6q-1.55.4-2.35.75l-1.3.5.75-.75 4.4-2.6q2.05-1.25 2.3-3l-.85 1.35-2.15 1.6.05-.05.15-.15-1.4.2q-.95 0-1.4-.55l-.3-.65.15-.45q.05-.35.45-1.05l.75-.2.55.15-.15.15h-.35q-.6.55-.6.9 0 1.1 1.55 1.1h.1l-.15-.4.25-.6q.2-.3.45-.25h.3l.1.1-.35.3q-.3.2-.3.35 0 .3.6.3l.3-.05q2.1-2.6 2.15-3.5l-.2-1.7q-.35-1-1-1l-.85.3-.6.45q1.15-2.2 3-2.25 1.45.35 2 1.9.65 1.9-.1 3.7 1.65-1.8 1.05-4.1l-.1-.35q1.45 1.35.9 3.4l-.85 2.05-.4.65-.5.3q1.85-.85 3.1-2.75.8-1.15.8-2.5 1.6 2.05.8 4.5-.55 1.75-1.95 2.7 2.2-.35 3.25-2.25.25.5-.15 1.5-.15.3-.15.55l-.5.45q2.65.05 4.7-1.5 1.55-1.1 1.35-3 .75 1.85.1 3.9 1.1-1.15 1.25-2.55l.2 1.25.05 1 .25-.55.1-1.15-.1-1.75-.45-1.25-1.05-1.65q1.8 1.35 2.5 3.45.6 1.7.55 3.6z" transform="translate(20.75 7.4)"/><path fill="url(#s)" d="m-20.7 7.4.6.5q.3-2.6 2-4.5-1 2.5.05 5.15l.05.05q.4-1 .7-2.7l.75 2.15.05.05.1-.1v.15l.15 1.1.65 1.25q1.1 2.05 1.9 2.05l.15-.15q-2.6-2.25-2.6-4.2l.05-.65q.95-1.45 1.25-3.2-.45 3.8 1.95 7.2.85 1.15 2.1 1.55l-.3-.5-.1-3.6q.85 1.8 2.65 3.05l.3.35 1.15 1.3 1.15.8.2-.15q-1.25-.65-2.4-2.3l-.45-.75q-1.55-4.6.2-9.4-.05 4.55 2.9 8.4-.5-2-.4-2.8l.2.05.7 1.25 2.35 2.7q1.6 1.75 1.85 1.75l.1-.05.05-.1q-2.7-2.45-4.25-4.55l-.55-.95h.05q-1.5-4.2.7-8.6L-3 2.9q.15-.75.7-1.4 1.45-.8 3.4.7l2.1 1.6.3.75v.3l-.7-.6q-.7-.7-2.35-.85-1.7-.15-1.2 2.7L0 7.9l-1.55-1.25q-.35-.4-.1.5Q-1.4 8 1 8.55l1.3.95.05.05.1.5-.1.7-.05-.35-.65-.75-.9-.4.25.45 2.2 4.45-3.4-4.6q.45 1.7 1.9 3.15l1.6 1.8.55 1.65Q3.35 15 2.1 14.4q-1-.45-1.9-1.25 2.3 2.15 3.55 4.6L1.8 16.3q.85 2.1 2 3.3L.9 17.7l1.2 1.7q-3.75-1.3-7-3.4 2.55 2.65 5.6 4.9-4.25-2.55-9.1-3.8 2.8 1.4 4.8 3.65l-1.9-.45-.65-.15-4.4-2-1.15-.85.2.7 1 1.15q-2.7-2.35-5.05-5.7-.8-1.15-1.25-2.55-.4 1.15.4 2.1l.2.6q-1.55-2.85-4.5-4.7z" transform="translate(20.75 7.4)"/></g></defs></svg>