<?xml version="1.0" encoding="UTF-8" standalone="no"?>
<svg xmlns:ffdec="https://www.free-decompiler.com/flash" xmlns:xlink="http://www.w3.org/1999/xlink" ffdec:objectType="frame" height="53.4px" width="65.95px" xmlns="http://www.w3.org/2000/svg">
  <g transform="matrix(1.0, 0.0, 0.0, 1.0, 15.75, 1.95)">
    <use ffdec:characterId="1" height="53.4" transform="matrix(1.0, 0.0, 0.0, 1.0, -15.75, -1.95)" width="65.95" xlink:href="#shape0"/>
  </g>
  <defs>
    <g id="shape0" transform="matrix(1.0, 0.0, 0.0, 1.0, 15.75, 1.95)">
      <path d="M37.85 15.5 L37.85 16.6 34.7 18.8 34.65 18.8 31.35 17.3 31.05 14.6 31.0 13.6 31.0 13.5 34.15 11.3 34.2 11.35 35.05 11.8 35.6 12.05 37.6 12.95 37.85 15.45 37.85 15.5" fill="#ff9900" fill-rule="evenodd" stroke="none"/>
      <path d="M21.5 12.2 L19.15 11.2 19.0 8.35 24.35 4.65 28.75 1.55 33.75 -1.95 36.25 -0.75 36.4 1.85 30.25 3.9 27.95 4.65 30.45 5.8 27.05 8.15 26.8 5.5 25.75 6.85 21.5 12.2 M39.1 5.7 L41.75 7.0 40.45 8.0 35.35 11.65 32.3 7.05 35.85 4.55 39.1 5.7 M43.3 11.65 L44.45 10.85 44.6 13.5 44.75 17.25 40.8 20.0 37.85 15.5 37.85 15.45 43.3 11.65 M47.85 17.8 L49.9 18.8 49.95 18.8 50.15 21.45 50.2 21.5 44.4 25.55 42.6 26.8 42.55 26.8 39.95 28.65 35.45 31.8 32.85 30.75 32.85 30.7 32.75 28.5 38.65 26.65 40.85 25.95 38.75 24.85 42.15 22.5 42.35 24.85 43.25 23.75 47.85 17.8 M27.9 10.1 L30.9 14.75 26.4 17.85 26.2 17.95 25.5 11.75 27.9 10.1 M36.35 23.1 L34.4 24.45 28.85 21.7 33.4 18.55 36.35 23.1" fill="#75dbb1" fill-rule="evenodd" stroke="none"/>
      <path d="M21.5 12.2 L25.75 6.85 26.8 5.5 27.05 8.15 30.45 5.8 27.95 4.65 30.25 3.9 36.4 1.85 36.45 1.85 39.1 5.7 35.85 4.55 32.3 7.05 35.35 11.65 40.45 8.0 40.65 7.9 43.3 11.65 37.85 15.45 37.6 12.95 35.6 12.05 35.05 11.8 34.2 11.35 34.15 11.3 31.0 13.5 31.0 13.6 31.05 14.6 31.35 17.3 34.65 18.8 34.7 18.8 37.85 16.6 37.85 15.5 40.8 20.0 44.75 17.25 44.6 13.5 46.4 16.1 47.55 17.7 47.85 17.8 43.25 23.75 42.35 24.85 42.15 22.5 38.75 24.85 40.85 25.95 38.65 26.65 32.75 28.5 32.8 28.0 31.65 26.4 28.9 22.45 28.55 21.95 25.9 18.2 25.55 17.7 21.75 12.25 21.5 12.2 M36.35 23.1 L33.4 18.55 28.85 21.7 34.4 24.45 36.35 23.1 M27.9 10.1 L25.5 11.75 26.2 17.95 26.4 17.85 30.9 14.75 27.9 10.1" fill="#256e80" fill-rule="evenodd" stroke="none"/>
      <path d="M47.25 18.35 L45.0 15.15 M37.5 4.75 L35.75 2.1 M30.5 22.85 L33.8 27.55 M27.15 18.05 L29.0 20.75 M22.75 11.8 L25.8 16.2 M42.6 11.9 L40.25 8.55" fill="none" stroke="#ffcc00" stroke-linecap="round" stroke-linejoin="round" stroke-width="1.0"/>
      <path d="M20.7 22.9 L20.4 24.8 22.35 25.05 22.6 23.3 24.45 23.5 24.7 21.55 22.8 21.3 22.55 23.15 22.6 23.15 22.6 23.3 20.75 22.85 22.6 23.3 22.6 23.15 22.55 23.15 22.8 21.3 24.7 21.55 24.45 23.5 22.6 23.3 22.35 25.05 20.4 24.8 20.7 22.9 20.7 22.85 20.75 22.85 23.95 20.05 26.25 23.15 20.15 26.5 20.35 25.0 18.7 24.6 20.35 25.0 20.15 26.5 19.75 26.7 19.4 26.9 17.75 27.8 16.9 26.3 16.85 26.25 18.4 24.85 18.7 24.6 20.7 22.9 M19.75 26.7 L18.15 26.5 18.4 24.85 18.15 26.5 19.75 26.7" fill="#333333" fill-rule="evenodd" stroke="none"/>
      <path d="M4.3 34.25 L14.95 26.3 15.75 24.75 22.9 18.55 25.65 17.6 26.0 18.1 26.6 18.9 28.65 21.85 28.7 21.9 28.75 22.0 29.0 22.35 27.15 24.6 18.75 29.0 17.1 29.45 6.05 36.7 5.0 35.2 4.3 34.25 M20.7 22.9 L18.7 24.6 18.65 24.6 18.45 24.55 18.45 24.8 18.4 24.85 18.45 24.8 18.45 24.55 18.65 24.6 18.7 24.6 18.4 24.85 16.85 26.25 16.9 26.3 17.75 27.8 19.4 26.9 19.75 26.7 20.15 26.5 26.25 23.15 23.95 20.05 20.75 22.85 20.7 22.85 20.7 22.9 M19.75 26.7 L20.1 26.75 20.15 26.5 20.1 26.75 19.75 26.7" fill="#ff9900" fill-rule="evenodd" stroke="none"/>
      <path d="M-8.65 47.5 L-8.65 48.5 Q-9.0 49.7 -10.65 50.85 L-12.9 50.8 -12.95 50.75 -13.5 50.5 -15.2 49.8 -15.3 48.0 -15.3 47.65 -15.35 47.3 -15.3 47.2 Q-16.45 46.3 -14.65 45.05 -13.0 43.95 -11.7 44.0 L-10.75 44.3 -10.8 44.35 -10.25 45.15 -8.65 47.5" fill="#ff6600" fill-rule="evenodd" stroke="none"/>
      <path d="M6.05 36.7 L-1.9 42.8 -8.65 47.5 -10.25 45.15 -10.8 44.35 -10.75 44.3 -4.05 39.65 4.3 34.25 5.0 35.2 6.05 36.7" fill="#75dbb1" fill-rule="evenodd" stroke="none"/>
      <path d="M20.75 22.85 L22.6 23.3 22.6 23.15 22.55 23.15 22.8 21.3 24.7 21.55 24.45 23.5 22.6 23.3 22.35 25.05 20.4 24.8 20.7 22.9 20.7 22.85 20.75 22.85 M18.7 24.6 L20.35 25.0 20.15 26.5 20.1 26.75 19.75 26.7 18.15 26.5 18.4 24.85 18.45 24.8 18.45 24.55 18.65 24.6 18.7 24.6 Z" fill="none" stroke="#66ff99" stroke-linecap="round" stroke-linejoin="round" stroke-width="1.0"/>
      <path d="M-10.8 44.35 L-10.75 44.3 -4.05 39.65 -1.9 42.8 -8.65 47.5 -10.8 44.35" fill="#000000" fill-opacity="0.49803922" fill-rule="evenodd" stroke="none"/>
      <path d="M46.2 17.4 Q39.75 22.15 32.15 26.95 L29.0 22.4 27.15 24.6 26.25 23.15 23.95 20.05 22.9 18.55 25.65 17.6 25.85 17.9 26.0 18.05 31.05 14.6 31.15 15.9 26.55 18.95 28.55 21.65 28.55 21.7 28.6 21.8 28.75 21.85 34.35 24.45 44.75 17.25 44.55 14.6 46.2 17.4 M50.15 21.45 L50.2 21.5 44.4 25.55 42.6 26.8 42.55 26.8 39.95 28.65 35.45 31.8 32.85 30.75 32.85 30.7 41.05 26.6 39.5 26.0 39.4 25.65 Q37.45 24.15 41.7 26.25 L42.4 26.5 42.35 24.5 42.65 24.15 42.7 25.55 49.9 18.8 49.95 18.8 50.15 21.45 M34.65 18.8 L33.6 18.3 31.35 17.3 34.45 15.15 34.65 18.8 M40.0 8.2 L40.6 9.15 36.0 12.3 35.0 11.85 40.0 8.2 M26.65 4.05 L26.85 6.25 22.45 12.65 19.15 11.15 26.65 4.05 M28.65 5.0 L26.75 4.0 36.25 -0.85 36.35 2.6 28.65 5.0 M15.75 24.75 L16.85 26.25 17.75 27.8 18.75 29.0 17.1 29.45 14.95 26.3 15.75 24.75 M-15.35 47.3 L-13.3 47.35 Q-12.85 46.7 -13.35 46.45 L-14.0 46.35 Q-13.2 45.8 -12.6 46.35 -12.0 46.9 -12.9 47.8 -13.7 48.6 -14.7 48.25 L-15.3 48.0 -15.35 47.3 M-11.55 48.15 Q-10.9 48.25 -11.2 49.15 L-11.6 49.8 -11.5 49.15 Q-11.55 48.6 -12.3 48.8 -13.4 49.15 -12.95 50.75 L-13.5 50.5 -13.6 50.0 Q-13.8 48.65 -12.7 48.25 L-11.55 48.15" fill="#000000" fill-opacity="0.29803923" fill-rule="evenodd" stroke="none"/>
      <path d="M37.85 15.35 L44.4 10.85 44.4 12.25 30.05 22.4 28.8 21.8 33.55 18.35 34.65 18.8 37.85 16.6 37.85 15.5 37.85 15.45 37.85 15.35 M37.2 5.05 L25.55 12.85 25.45 11.7 35.85 4.55 37.2 5.05" fill="#ffffff" fill-opacity="0.29803923" fill-rule="evenodd" stroke="none"/>
      <path d="M37.85 16.6 L34.5 15.15 37.6 12.95 37.85 15.35 37.85 15.45 37.85 15.5 37.85 16.6" fill="#ffff00" fill-opacity="0.29803923" fill-rule="evenodd" stroke="none"/>
      <path d="M34.15 11.3 L34.2 11.35 34.45 15.1 31.0 13.6 31.0 13.5 34.15 11.3" fill="#ffffff" fill-opacity="0.49803922" fill-rule="evenodd" stroke="none"/>
      <path d="M26.0 18.1 L26.6 18.9 23.8 20.0 18.65 24.6 18.45 24.55 18.45 24.8 16.85 26.25 16.9 26.3 15.7 27.4 5.0 35.2 -3.35 40.05 -10.0 45.1 -10.25 45.15 -11.7 44.75 Q-12.45 44.65 -13.5 45.2 L-14.6 45.85 Q-15.0 46.25 -15.0 46.75 L-14.65 47.35 -13.8 47.8 -15.3 47.65 -15.35 47.3 -15.3 47.2 Q-16.45 46.3 -14.65 45.05 -13.0 43.95 -11.7 44.0 L-10.75 44.3 -4.05 39.65 4.3 34.25 14.95 26.3 15.75 24.75 22.9 18.55 25.65 17.6 26.0 18.1" fill="#ffffff" fill-opacity="0.29803923" fill-rule="evenodd" stroke="none"/>
    </g>
  </defs>
</svg>
