<svg xmlns="http://www.w3.org/2000/svg" xmlns:ffdec="https://www.free-decompiler.com/flash" xmlns:xlink="http://www.w3.org/1999/xlink" ffdec:objectType="frame" width="17.45" height="9.35"><use ffdec:characterId="3" xlink:href="#a" width="17.45" height="9.35"/><defs><linearGradient id="b" x1="-819.2" x2="819.2" gradientTransform="matrix(.0087 0 0 .0037 10.2 4)" gradientUnits="userSpaceOnUse" spreadMethod="pad"><stop offset="0" stop-color="#9a9a9a"/><stop offset="1" stop-color="#fff"/></linearGradient><linearGradient id="c" x1="-819.2" x2="819.2" gradientTransform="matrix(.0105 0 0 .0039 9.85 7.75)" gradientUnits="userSpaceOnUse" spreadMethod="pad"><stop offset=".114" stop-color="#6b6b6b"/><stop offset="1" stop-color="#fff"/></linearGradient><linearGradient id="d" x1="-819.2" x2="819.2" gradientTransform="matrix(.0088 0 0 .0028 10 5.25)" gradientUnits="userSpaceOnUse" spreadMethod="pad"><stop offset=".149" stop-color="#696969"/><stop offset="1" stop-color="#fff"/></linearGradient><g id="a" fill-rule="evenodd"><path fill="#f6fffe" d="M13.65 0q1.2-.1 2.45.45-.8.6.15 1 1.3.5 1.2 1.25-.65 1.65-4.2 4.05Q9.1 9.5 6 9.15l-2.85-.7-2.25-.9Q-.6 6.6.5 5.3.15 4.55.15 3.7q0-1.35 1.1-1.8l1-.1q.45.1.9.5 1.05.8 3.55.05 2.75-.85 5.6-2.1z"/><path fill="url(#b)" d="m11.4 4.35 2.5.15L17 3.1l-1.8 1.65q-1.1.7-3.35 1.6Q5 7.85 3.5 5.9l-.6-.85q-.2-.4-.05-1.05.5 1.1 2.95 1.1 1.05 0 8.9-3.2l-1.05 1q-1.15 1-2.25 1.45" transform="translate(-1.3 -1.6)"/><path fill="url(#c)" d="M13.35 9.25q-4.55 2.5-7.8 1.3-3.3-1.25-3.8-1.7-.55-.4-.4-1.15Q3.9 8.85 7.3 9q6.85.35 11.15-4.45-.55 2.2-5.1 4.7" transform="translate(-1.3 -1.6)"/><path fill="url(#d)" d="M14.9 5.65Q12.45 7.1 9 7.5q-3.5.35-4.9-.4T2.8 4.2l.75 1.5q1.05 1.4 3.6 1.15 3-.3 5.75-1.35 2.6-1.05 4.35-2.55.1 1.2-2.35 2.7" transform="translate(-1.3 -1.6)"/></g></defs></svg>