<?xml version="1.0" encoding="UTF-8" standalone="no"?>
<svg xmlns:ffdec="https://www.free-decompiler.com/flash" xmlns:xlink="http://www.w3.org/1999/xlink" ffdec:objectType="frame" height="12.65px" width="13.25px" xmlns="http://www.w3.org/2000/svg">
  <g transform="matrix(1.0, 0.0, 0.0, 1.0, -2.3, 1.45)">
    <use ffdec:characterId="5" height="12.65" transform="matrix(1.0, 0.0, 0.0, 1.0, 2.65, -1.45)" width="12.4" xlink:href="#shape0"/>
  </g>
  <defs>
    <g id="shape0" transform="matrix(1.0, 0.0, 0.0, 1.0, -2.65, 1.45)">
      <path d="M13.3 6.1 L13.25 5.75 Q12.9 5.9 12.6 6.7 L12.15 7.45 Q11.75 7.45 11.75 6.3 L11.7 6.3 Q10.1 8.35 10.0 10.05 L10.85 9.7 11.8 9.3 11.95 9.35 Q13.3 7.95 13.3 6.1 M12.1 3.95 L11.05 3.25 Q9.95 2.55 9.0 2.55 L7.9 2.85 6.85 3.25 Q6.4 3.45 6.35 3.8 L6.3 4.3 Q5.55 6.2 5.55 6.45 L5.65 7.15 5.7 7.4 6.3 8.05 6.55 8.25 6.65 8.3 7.25 8.7 8.15 9.25 9.4 9.95 10.0 7.95 10.75 6.55 Q11.4 5.55 11.8 5.55 L12.1 5.65 12.25 5.9 12.95 4.55 12.5 3.75 Q12.4 3.95 12.1 3.95 M10.25 0.95 L11.25 1.3 11.15 1.1 Q11.15 0.55 11.6 0.8 L12.4 1.2 Q12.95 1.2 13.75 2.05 L14.55 3.1 Q15.05 4.0 15.05 5.35 15.05 7.15 13.95 8.85 12.8 10.55 11.1 10.85 L9.75 11.2 7.75 11.2 5.9 10.75 4.8 10.2 Q4.15 9.7 3.6 8.0 3.1 6.3 3.1 5.8 3.1 4.25 4.15 2.65 5.5 0.6 7.6 0.6 L10.25 0.95 M11.75 2.3 L11.9 2.6 11.75 2.25 11.75 2.3" fill="#f5f5f5" fill-rule="evenodd" stroke="none"/>
      <path d="M14.35 -0.35 L14.9 0.7 15.05 1.1 13.55 0.1 12.4 -0.45 10.5 -1.2 12.85 -1.4 Q13.95 -1.05 14.35 -0.35" fill="#000000" fill-opacity="0.2" fill-rule="evenodd" stroke="none"/>
      <path d="M9.4 1.55 Q11.15 1.7 12.5 3.05 13.8 4.45 13.75 6.4 13.75 8.35 12.6 9.7 11.45 11.0 9.4 11.1 7.4 11.2 6.05 9.7 4.75 8.2 4.8 6.3 4.85 4.35 6.2 2.9 7.55 1.45 9.4 1.55" fill="#790000" fill-rule="evenodd" stroke="none"/>
      <path d="M6.6 3.7 Q7.55 2.65 9.2 2.55 10.8 2.45 11.9 3.7 13.0 4.9 12.95 6.45 12.9 8.05 11.8 9.2 10.7 10.4 9.2 10.3 7.8 10.15 6.7 9.1 5.65 7.95 5.7 6.35 5.7 4.75 6.6 3.7" fill="url(#gradient0)" fill-rule="evenodd" stroke="none"/>
      <path d="M7.9 4.45 Q8.5 3.9 9.3 3.9 10.1 3.95 10.65 4.6 11.25 5.3 11.2 6.25 11.1 7.25 10.55 7.85 9.9 8.55 9.1 8.45 8.3 8.4 7.75 7.75 7.2 7.0 7.25 6.05 7.35 5.05 7.9 4.45" fill="url(#gradient1)" fill-rule="evenodd" stroke="none"/>
      <path d="M4.5 9.3 L3.75 7.1 3.7 5.65 Q3.75 4.95 3.95 4.35 4.15 3.7 4.7 3.0 5.25 2.25 6.15 1.75 7.1 1.25 7.95 1.15 L9.6 1.0 11.15 1.25 12.05 1.6 13.1 2.2 14.1 2.9 14.6 3.4 14.7 3.5 9.7 3.25 Q6.95 3.75 5.6 5.45 4.25 7.15 4.5 9.3" fill="#000000" fill-opacity="0.2" fill-rule="evenodd" stroke="none"/>
      <path d="M4.5 9.3 L5.15 10.5 3.45 8.5 Q2.8 7.25 2.7 6.3 L2.65 4.65 Q2.75 3.95 3.0 3.2 3.25 2.45 3.65 1.95 L4.75 1.0 5.75 0.4 6.8 0.05 8.05 -0.2 8.9 -0.25 9.8 -0.2 10.95 0.05 Q11.55 0.15 12.65 0.8 L14.25 2.1 Q14.75 2.8 14.9 3.65 L14.6 3.4 14.1 2.9 13.1 2.2 12.05 1.6 11.15 1.25 9.6 1.0 7.95 1.15 Q7.1 1.25 6.15 1.75 5.25 2.25 4.7 3.0 4.15 3.7 3.95 4.35 3.75 4.95 3.7 5.65 L3.75 7.1 4.5 9.3" fill="#333333" fill-rule="evenodd" stroke="none"/>
      <path d="M8.95 4.15 L9.35 4.35 9.55 4.75 9.35 5.2 8.95 5.35 8.5 5.2 8.35 4.75 Q8.35 4.5 8.5 4.35 L8.95 4.15" fill="#ffffff" fill-opacity="0.49803922" fill-rule="evenodd" stroke="none"/>
      <path d="M11.0 7.2 Q11.0 8.05 10.45 8.55 9.9 9.15 9.1 9.15 8.3 9.15 7.75 8.5 7.2 7.85 7.2 7.15 L7.25 6.85 7.75 7.9 Q8.2 8.5 9.25 8.5 10.35 8.5 11.0 7.1 L11.0 7.2" fill="#ffffff" fill-opacity="0.4392157" fill-rule="evenodd" stroke="none"/>
      <path d="M11.65 5.0 Q10.95 4.95 10.5 4.5 10.1 4.1 10.2 3.55 10.2 2.95 10.65 2.55 11.1 2.15 11.5 2.25 11.95 2.3 12.4 2.7 L12.85 3.65 Q13.0 4.2 12.65 4.6 12.3 5.0 11.65 5.0" fill="#ffffff" fill-rule="evenodd" stroke="none"/>
    </g>
    <linearGradient color-interpolation="linearRGB" gradientTransform="matrix(0.0, 0.0047, 0.0044, 0.0, 9.3, 6.4)" gradientUnits="userSpaceOnUse" id="gradient0" spreadMethod="pad" x1="-819.2" x2="819.2">
      <stop offset="0.0" stop-color="#000000" stop-opacity="0.0"/>
      <stop offset="1.0" stop-color="#ffffff" stop-opacity="0.49803922"/>
    </linearGradient>
    <linearGradient gradientTransform="matrix(1.0E-4, -0.0029, -0.0023, -1.0E-4, 9.15, 6.1)" gradientUnits="userSpaceOnUse" id="gradient1" spreadMethod="pad" x1="-819.2" x2="819.2">
      <stop offset="0.0" stop-color="#000000" stop-opacity="0.06666667"/>
      <stop offset="1.0" stop-color="#000000" stop-opacity="0.5764706"/>
    </linearGradient>
  </defs>
</svg>
