<?xml version="1.0" encoding="UTF-8" standalone="no"?>
<svg xmlns:ffdec="https://www.free-decompiler.com/flash" xmlns:xlink="http://www.w3.org/1999/xlink" ffdec:objectType="frame" height="12.65px" width="13.25px" xmlns="http://www.w3.org/2000/svg">
  <g transform="matrix(1.0, 0.0, 0.0, 1.0, 3.25, 1.45)">
    <use ffdec:characterId="7" height="12.65" transform="matrix(1.0, 0.0, 0.0, 1.0, -2.45, -1.45)" width="12.4" xlink:href="#shape0"/>
  </g>
  <defs>
    <g id="shape0" transform="matrix(1.0, 0.0, 0.0, 1.0, 2.45, 1.45)">
      <path d="M6.25 3.8 Q6.2 3.45 5.75 3.25 L4.7 2.85 3.6 2.55 Q2.65 2.55 1.55 3.25 L0.5 3.95 Q0.2 3.95 0.1 3.75 L-0.35 4.55 0.35 5.9 0.5 5.65 0.8 5.55 Q1.2 5.55 1.85 6.55 L2.6 7.95 3.2 9.95 4.45 9.25 5.35 8.7 5.95 8.3 6.05 8.25 6.3 8.05 6.9 7.4 6.95 7.15 7.05 6.45 6.3 4.3 6.25 3.8 M9.5 5.8 L9.0 8.0 Q8.45 9.7 7.8 10.2 L6.7 10.75 4.85 11.2 2.85 11.2 1.5 10.85 Q-0.2 10.55 -1.35 8.85 -2.45 7.15 -2.45 5.35 -2.45 4.0 -1.95 3.1 L-1.15 2.05 Q-0.35 1.2 0.2 1.2 L1.0 0.8 Q1.45 0.55 1.45 1.1 L1.35 1.3 2.35 0.95 5.0 0.6 Q7.1 0.6 8.45 2.65 9.5 4.25 9.5 5.8 M0.85 2.3 L0.85 2.25 0.7 2.6 0.85 2.3 M0.0 6.7 Q-0.3 5.9 -0.65 5.75 L-0.7 6.1 Q-0.7 7.95 0.65 9.35 L0.8 9.3 1.75 9.7 2.6 10.05 Q2.5 8.35 0.9 6.3 L0.85 6.3 Q0.85 7.45 0.45 7.45 0.25 7.45 0.0 6.7" fill="#f5f5f5" fill-rule="evenodd" stroke="none"/>
      <path d="M2.1 -1.2 L0.2 -0.45 -0.95 0.1 -2.45 1.1 -2.3 0.7 -1.75 -0.35 Q-1.35 -1.05 -0.25 -1.4 L2.1 -1.2" fill="#000000" fill-opacity="0.2" fill-rule="evenodd" stroke="none"/>
      <path d="M7.8 6.3 Q7.85 8.2 6.55 9.7 5.2 11.2 3.2 11.1 1.15 11.0 0.0 9.7 -1.15 8.35 -1.15 6.4 -1.2 4.45 0.1 3.05 1.45 1.7 3.2 1.55 5.05 1.45 6.4 2.9 7.75 4.35 7.8 6.3" fill="#c94200" fill-rule="evenodd" stroke="none"/>
      <path d="M6.9 6.35 Q6.95 7.95 5.9 9.1 4.8 10.15 3.4 10.3 1.9 10.4 0.8 9.2 -0.3 8.05 -0.35 6.45 -0.4 4.9 0.7 3.7 1.8 2.45 3.4 2.55 5.05 2.65 6.0 3.7 6.9 4.75 6.9 6.35" fill="url(#gradient0)" fill-rule="evenodd" stroke="none"/>
      <path d="M4.75 4.45 Q5.3 5.05 5.4 6.05 5.4 7.0 4.8 7.8 4.25 8.45 3.45 8.45 2.65 8.55 2.05 7.85 1.45 7.25 1.4 6.25 1.4 5.3 2.0 4.6 2.55 3.9 3.35 3.85 4.15 3.9 4.75 4.45" fill="url(#gradient1)" fill-rule="evenodd" stroke="none"/>
      <path d="M8.1 9.3 Q8.35 7.15 7.0 5.45 5.65 3.75 2.9 3.25 L-2.1 3.5 -2.0 3.4 -1.5 2.9 -0.5 2.2 0.55 1.6 1.45 1.25 3.0 1.0 4.65 1.15 6.45 1.75 Q7.35 2.25 7.9 3.0 L8.65 4.35 8.9 5.65 8.85 7.1 8.1 9.3" fill="#000000" fill-opacity="0.2" fill-rule="evenodd" stroke="none"/>
      <path d="M-2.0 3.4 L-2.3 3.65 Q-2.15 2.8 -1.65 2.1 -1.2 1.4 -0.05 0.8 1.05 0.15 1.65 0.05 L2.8 -0.2 3.7 -0.25 4.55 -0.2 5.8 0.05 6.85 0.4 7.85 1.0 8.95 1.95 9.6 3.2 9.95 4.65 9.9 6.3 Q9.8 7.25 9.15 8.5 8.4 9.75 7.45 10.5 L8.1 9.3 8.85 7.1 8.9 5.65 8.65 4.35 7.9 3.0 Q7.35 2.25 6.45 1.75 L4.65 1.15 3.0 1.0 1.45 1.25 0.55 1.6 -0.5 2.2 -1.5 2.9 -2.0 3.4" fill="#333333" fill-rule="evenodd" stroke="none"/>
      <path d="M3.9 4.15 L4.05 4.55 3.9 5.0 3.45 5.15 3.05 5.0 2.85 4.55 3.05 4.15 3.45 3.95 3.9 4.15" fill="#ffffff" fill-opacity="0.49803922" fill-rule="evenodd" stroke="none"/>
      <path d="M4.85 8.5 Q4.3 9.15 3.5 9.15 2.7 9.15 2.15 8.55 1.6 8.05 1.6 7.2 L1.6 7.1 Q2.25 8.5 3.35 8.5 4.4 8.5 4.85 7.9 L5.35 6.85 5.4 7.15 Q5.4 7.85 4.85 8.5" fill="#ffffff" fill-opacity="0.4392157" fill-rule="evenodd" stroke="none"/>
      <path d="M7.05 3.55 Q7.2 4.1 6.85 4.5 6.5 4.9 5.85 4.9 5.15 4.85 4.7 4.4 4.3 4.0 4.4 3.45 4.4 2.85 4.85 2.45 5.3 2.05 5.7 2.15 6.15 2.2 6.6 2.6 L7.05 3.55" fill="#ffffff" fill-rule="evenodd" stroke="none"/>
    </g>
    <linearGradient color-interpolation="linearRGB" gradientTransform="matrix(0.0, 0.0047, -0.0044, 0.0, 3.3, 6.4)" gradientUnits="userSpaceOnUse" id="gradient0" spreadMethod="pad" x1="-819.2" x2="819.2">
      <stop offset="0.0" stop-color="#000000" stop-opacity="0.0"/>
      <stop offset="1.0" stop-color="#ffffff" stop-opacity="0.49803922"/>
    </linearGradient>
    <linearGradient gradientTransform="matrix(-1.0E-4, -0.0029, 0.0023, -1.0E-4, 3.5, 6.1)" gradientUnits="userSpaceOnUse" id="gradient1" spreadMethod="pad" x1="-819.2" x2="819.2">
      <stop offset="0.0" stop-color="#000000" stop-opacity="0.06666667"/>
      <stop offset="1.0" stop-color="#000000" stop-opacity="0.49803922"/>
    </linearGradient>
  </defs>
</svg>
