<svg xmlns="http://www.w3.org/2000/svg" xmlns:ffdec="https://www.free-decompiler.com/flash" xmlns:xlink="http://www.w3.org/1999/xlink" ffdec:objectType="frame" width="13.25" height="12.65"><use ffdec:characterId="7" xlink:href="#a" width="12.4" height="12.65" transform="translate(.8)"/><defs><linearGradient id="b" x1="-819.2" x2="819.2" color-interpolation="linearRGB" gradientTransform="matrix(0 .0047 -.0044 0 3.3 6.4)" gradientUnits="userSpaceOnUse" spreadMethod="pad"><stop offset="0" stop-opacity="0"/><stop offset="1" stop-color="#fff" stop-opacity=".498"/></linearGradient><linearGradient id="c" x1="-819.2" x2="819.2" gradientTransform="matrix(-.0001 -.0029 .0023 -.0001 3.5 6.1)" gradientUnits="userSpaceOnUse" spreadMethod="pad"><stop offset="0" stop-opacity=".067"/><stop offset="1" stop-opacity=".498"/></linearGradient><g id="a" fill-rule="evenodd"><path fill="#f5f5f5" d="M8.7 5.25q-.05-.35-.5-.55l-1.05-.4-1.1-.3Q5.1 4 4 4.7l-1.05.7q-.3 0-.4-.2L2.1 6l.7 1.35.15-.25.3-.1q.4 0 1.05 1l.75 1.4.6 2 1.25-.7.9-.55.6-.4.1-.05.25-.2.6-.65.05-.25.1-.7-.75-2.15zm3.25 2-.5 2.2q-.55 1.7-1.2 2.2l-1.1.55-1.85.45h-2l-1.35-.35q-1.7-.3-2.85-2Q0 8.6 0 6.8q0-1.35.5-2.25l.8-1.05q.8-.85 1.35-.85l.8-.4q.45-.25.45.3l-.1.2 1-.35 2.65-.35q2.1 0 3.45 2.05 1.05 1.6 1.05 3.15M3.3 3.75V3.7l-.15.35zm-.85 4.4q-.3-.8-.65-.95l-.05.35q0 1.85 1.35 3.25l.15-.05.95.4.85.35q-.1-1.7-1.7-3.75H3.3q0 1.15-.4 1.15-.2 0-.45-.75"/><path fill-opacity=".2" d="M4.55.25 2.65 1l-1.15.55-1.5 1 .15-.4L.7 1.1Q1.1.4 2.2.05z"/><path fill="#c94200" d="M10.25 7.75q.05 1.9-1.25 3.4-1.35 1.5-3.35 1.4-2.05-.1-3.2-1.4Q1.3 9.8 1.3 7.85 1.25 5.9 2.55 4.5 3.9 3.15 5.65 3q1.85-.1 3.2 1.35t1.4 3.4"/><path fill="url(#b)" d="M6.9 6.35q.05 1.6-1 2.75-1.1 1.05-2.5 1.2-1.5.1-2.6-1.1Q-.3 8.05-.35 6.45-.4 4.9.7 3.7q1.1-1.25 2.7-1.15 1.65.1 2.6 1.15.9 1.05.9 2.65" transform="translate(2.45 1.45)"/><path fill="url(#c)" d="M4.75 4.45q.55.6.65 1.6 0 .95-.6 1.75-.55.65-1.35.65-.8.1-1.4-.6-.6-.6-.65-1.6 0-.95.6-1.65.55-.7 1.35-.75.8.05 1.4.6" transform="translate(2.45 1.45)"/><path fill-opacity=".2" d="M10.55 10.75q.25-2.15-1.1-3.85t-4.1-2.2l-5 .25.1-.1.5-.5 1-.7L3 3.05l.9-.35 1.55-.25 1.65.15 1.8.6q.9.5 1.45 1.25l.75 1.35.25 1.3-.05 1.45z"/><path fill="#333" d="m.45 4.85-.3.25Q.3 4.25.8 3.55q.45-.7 1.6-1.3 1.1-.65 1.7-.75l1.15-.25.9-.05.85.05 1.25.25 1.05.35 1 .6 1.1.95.65 1.25.35 1.45-.05 1.65q-.1.95-.75 2.2-.75 1.25-1.7 2l.65-1.2.75-2.2.05-1.45-.25-1.3-.75-1.35Q9.8 3.7 8.9 3.2l-1.8-.6-1.65-.15-1.55.25-.9.35-1.05.6-1 .7z"/><path fill="#fff" fill-opacity=".498" d="m6.35 5.6.15.4-.15.45-.45.15-.4-.15L5.3 6l.2-.4.4-.2z"/><path fill="#fff" fill-opacity=".439" d="M7.3 9.95q-.55.65-1.35.65T4.6 10q-.55-.5-.55-1.35v-.1q.65 1.4 1.75 1.4 1.05 0 1.5-.6l.5-1.05.05.3q0 .7-.55 1.35"/><path fill="#fff" d="M9.5 5q.15.55-.2.95t-1 .4q-.7-.05-1.15-.5-.4-.4-.3-.95 0-.6.45-1t.85-.3q.45.05.9.45z"/></g></defs></svg>