<svg xmlns="http://www.w3.org/2000/svg" xmlns:ffdec="https://www.free-decompiler.com/flash" xmlns:xlink="http://www.w3.org/1999/xlink" ffdec:objectType="frame" width="12.1" height="11.45"><use ffdec:characterId="3" xlink:href="#a" width="11.85" height="3.55" transform="translate(.25 6)"/><defs><g id="a" fill-rule="evenodd"><path d="M11.05.7 9.4 1.8l2.45-.65L9.5 2.6l-1.6.5-1.3.3-1 .15-1.1-.05-1.45-.2-.85-.2-.25-.15h-.1l-.9-.15.5-.1h.05l-.35-.15H.8L.4 2.4l.5-.1-.1-.1h.15Q.2 2.15 0 1.75l.5.15-.4-.6 1.85.75.85.25-1.35-.75 1.45.55 1.9.4-.05.05.95-.05 1.75-.2 1.15-.4L11.05.65zm-7 .6v-.05l.05.05z"/><path fill="#4a1400" fill-opacity=".298" d="m10.6 0 .15.05-1.9 1.15-2.8.6q-1.35 0 .35-.45z"/></g></defs></svg>