<?xml version="1.0" encoding="UTF-8" standalone="no"?>
<svg xmlns:ffdec="https://www.free-decompiler.com/flash" xmlns:xlink="http://www.w3.org/1999/xlink" ffdec:objectType="frame" height="11.25px" width="12.35px" xmlns="http://www.w3.org/2000/svg">
  <g transform="matrix(1.0, 0.0, 0.0, 1.0, -2.85, -0.1)">
    <use ffdec:characterId="3" height="2.55" transform="matrix(1.0, 0.0, 0.0, 1.0, 2.85, 6.35)" width="12.15" xlink:href="#shape0"/>
  </g>
  <defs>
    <g id="shape0" transform="matrix(1.0, 0.0, 0.0, 1.0, -2.85, -6.35)">
      <path d="M14.75 6.6 L15.0 6.6 15.0 6.65 11.35 7.25 11.1 7.3 8.75 7.3 6.2 6.8 5.0 6.35 10.4 6.9 14.75 6.6" fill="#5d2900" fill-opacity="0.29803923" fill-rule="evenodd" stroke="none"/>
      <path d="M14.9 7.35 L13.85 7.85 12.6 8.4 10.8 8.85 6.5 8.7 5.85 8.7 5.7 8.7 6.25 8.6 5.7 8.65 5.55 8.65 5.05 8.55 4.6 8.3 4.9 8.3 5.55 8.2 5.3 8.05 4.8 8.1 4.2 8.0 3.75 7.75 4.75 7.7 4.5 7.5 4.25 7.5 2.85 7.25 4.05 7.1 3.4 6.35 3.8 6.55 Q4.75 7.0 5.5 7.1 L7.55 7.5 14.9 7.3 15.0 7.25 14.9 7.35" fill="#200900" fill-rule="evenodd" stroke="none"/>
    </g>
  </defs>
</svg>
