<?xml version="1.0" encoding="UTF-8" standalone="no"?>
<svg xmlns:ffdec="https://www.free-decompiler.com/flash" xmlns:xlink="http://www.w3.org/1999/xlink" ffdec:objectType="frame" height="13.45px" width="12.8px" xmlns="http://www.w3.org/2000/svg">
  <g transform="matrix(1.0, 0.0, 0.0, 1.0, 1.45, 1.75)">
    <use ffdec:characterId="16" height="11.15" transform="matrix(1.0, 0.0, 0.0, 0.704, -1.35, 3.8372)" width="9.8" xlink:href="#shape0"/>
    <use ffdec:characterId="3" height="11.0" transform="matrix(1.0, 0.0, 0.0, 0.7063, -1.1, 3.85)" width="8.25" xlink:href="#sprite0"/>
    <use ffdec:characterId="17" height="6.9" transform="matrix(1.0, 0.0, 0.0, 0.7029, 0.55, 5.8196)" width="5.2" xlink:href="#shape2"/>
    <use ffdec:characterId="6" height="5.65" transform="matrix(1.0, 0.0, 0.0, 0.7063, 0.9, 5.75)" width="4.35" xlink:href="#sprite1"/>
    <use ffdec:characterId="19" height="8.9" transform="matrix(1.0, 0.0, 0.0, 1.0, -1.1, 2.2)" width="12.45" xlink:href="#shape4"/>
  </g>
  <defs>
    <g id="shape0" transform="matrix(1.0, 0.0, 0.0, 1.0, 1.35, -0.55)">
      <path d="M6.4 1.95 Q7.55 2.85 7.95 4.0 L8.45 7.55 Q8.6 9.1 7.2 10.35 5.95 11.45 4.4 11.65 2.0 11.9 0.55 11.0 -1.85 9.45 -1.25 5.0 -0.6 0.35 2.75 0.55 4.85 0.65 6.4 1.95" fill="#ffffff" fill-rule="evenodd" stroke="none"/>
    </g>
    <g id="sprite0" transform="matrix(1.0, 0.0, 0.0, 1.0, 0.0, 0.0)">
      <use ffdec:characterId="2" height="11.0" transform="matrix(1.0, 0.0, 0.0, 1.0, 0.0, 0.0)" width="8.25" xlink:href="#shape1"/>
    </g>
    <g id="shape1" transform="matrix(1.0, 0.0, 0.0, 1.0, 0.0, 0.0)">
      <path d="M6.35 5.6 Q6.3 6.95 5.45 7.75 L5.55 7.75 Q6.1 7.75 6.5 8.15 7.0 7.2 7.1 5.6 L6.35 5.6 M1.5 5.4 Q1.5 7.7 2.0 8.45 L2.65 8.25 Q3.05 8.25 3.3 8.5 L3.6 9.15 3.5 9.45 4.15 9.55 4.25 9.55 4.05 8.85 4.3 8.25 4.1 8.3 Q3.2 8.25 2.6 7.4 1.95 6.55 2.0 5.4 L1.5 5.4 M0.0 5.2 Q0.05 3.1 1.15 1.55 2.55 -0.5 5.0 0.15 7.05 0.7 7.85 3.35 8.55 5.7 8.0 7.9 7.1 11.35 3.35 10.95 -0.1 10.65 0.0 5.2" fill="url(#gradient0)" fill-rule="evenodd" stroke="none"/>
      <path d="M6.35 5.6 L7.1 5.6 Q7.0 7.2 6.5 8.15 6.1 7.75 5.55 7.75 L5.45 7.75 Q6.3 6.95 6.35 5.6" fill="url(#gradient1)" fill-rule="evenodd" stroke="none"/>
      <path d="M1.5 5.4 L2.0 5.4 Q1.95 6.55 2.6 7.4 3.2 8.25 4.1 8.3 L4.3 8.25 4.05 8.85 4.25 9.55 4.15 9.55 3.5 9.45 3.6 9.15 3.3 8.5 Q3.05 8.25 2.65 8.25 L2.0 8.45 Q1.5 7.7 1.5 5.4" fill="url(#gradient2)" fill-rule="evenodd" stroke="none"/>
    </g>
    <linearGradient gradientTransform="matrix(-2.0E-4, 0.0066, -0.0067, -3.0E-4, 4.1, 5.5)" gradientUnits="userSpaceOnUse" id="gradient0" spreadMethod="pad" x1="-819.2" x2="819.2">
      <stop offset="0.0" stop-color="#ff6200"/>
      <stop offset="1.0" stop-color="#870000"/>
    </linearGradient>
    <linearGradient gradientTransform="matrix(-2.0E-4, 0.0066, -0.0067, -3.0E-4, 6.3, 5.6)" gradientUnits="userSpaceOnUse" id="gradient1" spreadMethod="pad" x1="-819.2" x2="819.2">
      <stop offset="0.0" stop-color="#ff6200"/>
      <stop offset="1.0" stop-color="#870000"/>
    </linearGradient>
    <linearGradient gradientTransform="matrix(-2.0E-4, 0.0066, -0.0067, -3.0E-4, 2.95, 5.45)" gradientUnits="userSpaceOnUse" id="gradient2" spreadMethod="pad" x1="-819.2" x2="819.2">
      <stop offset="0.0" stop-color="#ff6200"/>
      <stop offset="1.0" stop-color="#870000"/>
    </linearGradient>
    <g id="shape2" transform="matrix(1.0, 0.0, 0.0, 1.0, -0.55, -3.3)">
      <path d="M3.6 3.45 L4.95 4.35 5.25 5.0 5.7 6.5 5.7 7.85 Q5.45 9.0 4.55 9.65 3.7 10.2 2.6 10.2 1.85 10.2 1.4 9.6 L0.85 8.6 Q0.55 7.9 0.55 7.2 0.55 6.3 0.85 5.4 1.3 4.25 2.35 3.7 L3.15 3.3 3.6 3.45" fill="#ffffff" fill-opacity="0.29803923" fill-rule="evenodd" stroke="none"/>
    </g>
    <g id="sprite1" transform="matrix(1.0, 0.0, 0.0, 1.0, 0.0, 0.0)">
      <use ffdec:characterId="5" height="5.65" transform="matrix(1.0, 0.0, 0.0, 1.0, 0.0, 0.0)" width="4.35" xlink:href="#shape3"/>
    </g>
    <g id="shape3" transform="matrix(1.0, 0.0, 0.0, 1.0, 0.0, 0.0)">
      <path d="M4.35 2.9 L4.35 2.95 Q4.3 4.3 3.45 5.1 3.25 5.45 2.3 5.6 L2.1 5.65 Q1.2 5.6 0.6 4.75 -0.05 3.9 0.0 2.75 0.1 1.7 0.6 0.95 L1.35 0.25 2.3 0.0 Q3.2 0.05 3.8 0.9 4.4 1.75 4.35 2.9" fill="#581800" fill-rule="evenodd" stroke="none"/>
    </g>
    <g id="shape4" transform="matrix(1.0, 0.0, 0.0, 1.0, 1.1, -2.2)">
      <path d="M1.95 5.2 L2.4 5.65 2.4 5.85 1.7 6.5 0.85 6.55 0.15 6.25 Q-0.2 6.0 -0.15 5.65 L0.25 5.1 1.1 4.9 1.95 5.2 M0.55 10.25 L0.9 9.85 1.55 9.7 2.2 9.9 2.5 10.35 2.4 10.55 1.5 10.9 Q0.55 10.9 0.55 10.25" fill="#ffffff" fill-rule="evenodd" stroke="none"/>
      <path d="M3.2 9.7 Q3.7 9.35 4.35 9.35 L4.45 9.35 Q5.0 9.35 5.4 9.65 L5.85 10.25 5.3 10.85 4.3 11.1 Q3.4 11.05 3.15 10.6 L2.95 10.1 3.2 9.7" fill="#ffffff" fill-opacity="0.49803922" fill-rule="evenodd" stroke="none"/>
      <path d="M-0.55 5.2 L-0.6 5.2 -0.75 5.3 -0.8 5.35 -0.85 5.4 -0.95 5.35 -0.95 5.3 Q-1.1 4.15 -0.1 3.7 L-0.85 4.0 -0.9 4.05 -1.0 4.05 -1.05 4.0 -1.05 3.95 Q-0.95 3.4 0.0 3.05 L2.65 2.8 Q4.6 2.9 6.85 4.05 L7.05 4.2 Q8.4 5.1 9.05 6.4 L9.3 7.6 10.95 7.6 Q11.55 7.5 11.2 7.7 L9.3 8.0 9.2 8.55 11.15 8.8 11.25 8.8 11.25 8.85 10.75 8.9 9.7 9.05 8.95 8.95 8.65 9.65 8.75 9.7 10.05 10.25 8.65 9.9 8.6 10.0 7.85 10.75 7.75 10.75 7.7 10.75 7.65 10.7 7.65 10.6 8.4 8.7 8.3 7.7 8.25 7.5 Q7.85 6.35 6.7 5.45 5.25 4.15 3.6 4.0 L1.0 4.3 1.0 4.35 Q0.2 4.55 -0.55 5.2 M10.25 7.1 L10.2 7.1 10.05 7.05 Q9.5 5.75 7.9 4.7 L6.85 4.0 Q5.05 2.65 2.75 2.45 0.4 2.25 -0.85 3.35 L-1.05 3.35 -1.05 3.2 Q0.3 2.05 2.6 2.25 4.9 2.45 7.4 4.05 9.85 5.6 10.35 7.0 L10.25 7.1" fill="#3a2d2b" fill-rule="evenodd" stroke="none"/>
      <path d="M-0.55 5.2 Q0.2 4.55 1.0 4.35 L1.0 4.3 3.6 4.0 Q5.25 4.15 6.7 5.45 7.85 6.35 8.25 7.5 6.75 6.3 5.4 5.8 2.8 4.75 -0.55 5.2" fill="#020202" fill-opacity="0.29803923" fill-rule="evenodd" stroke="none"/>
    </g>
  </defs>
</svg>
