<svg xmlns="http://www.w3.org/2000/svg" xmlns:ffdec="https://www.free-decompiler.com/flash" xmlns:xlink="http://www.w3.org/1999/xlink" ffdec:objectType="frame" width="12.8" height="13.45"><use ffdec:characterId="20" xlink:href="#a" width="11.35" height="5.15" transform="translate(0 6.45)"/><defs><g id="a"><path fill="#3a2d2b" fill-rule="evenodd" d="m1.05 4 .4.3zl-.35.8.75-.5 1.85.5 3.65-.1 1.3-.45 2 .85L9 3.85q.15-.1.25-.15l.45-.3.05-.05-.05.05-.45.3 1.8.15-1.3-.5q1.1-.75 1.55-1.9-.95 1.4-2.3 1.3 1.25-.5 1.7-2.7-.8 1.5-1.9 2.1l-2.85 1q-1.75.4-5.9-.6l.9.65q.1.15.05.45zm7.2.25.75-.4z"/><path fill="none" stroke="#3a2d2b" stroke-linecap="round" stroke-linejoin="round" stroke-width=".15" d="m1.45 4.3-.4-.3L1 3.65q.05-.3-.05-.45l-.9-.65q4.15 1 5.9.6l2.85-1q1.1-.6 1.9-2.1-.45 2.2-1.7 2.7 1.35.1 2.3-1.3-.45 1.15-1.55 1.9l-.05.05-.45.3q-.1.05-.25.15l-.75.4-1.3.45-3.65.1zl-.75.5.35-.8m7.2.25 2 .85L9 3.85m.25-.15 1.8.15-1.3-.5m-8.85-2q1.8.95 3.85.75"/></g></defs></svg>