<?xml version="1.0" encoding="UTF-8" standalone="no"?>
<svg xmlns:ffdec="https://www.free-decompiler.com/flash" xmlns:xlink="http://www.w3.org/1999/xlink" ffdec:objectType="frame" height="56.15px" width="69.2px" xmlns="http://www.w3.org/2000/svg">
  <g transform="matrix(1.0, 0.0, 0.0, 1.0, 7.2, 9.0)">
    <use ffdec:characterId="10" height="56.0" id="Color" transform="matrix(1.0, 0.0, 0.0, 1.0, -7.2, -9.0)" width="69.2" xlink:href="#sprite0"/>
    <use ffdec:characterId="4" height="50.6" transform="matrix(1.0, 0.0, 0.0, 1.0, -7.2, -3.45)" width="69.2" xlink:href="#shape1"/>
  </g>
  <defs>
    <g id="sprite0" transform="matrix(1.0, 0.0, 0.0, 1.0, 8.4, 9.65)">
      <use ffdec:characterId="2" height="56.0" transform="matrix(1.0, 0.0, 0.0, 1.0, -8.4, -9.65)" width="69.2" xlink:href="#shape0"/>
    </g>
    <g id="shape0" transform="matrix(1.0, 0.0, 0.0, 1.0, 8.4, 9.65)">
      <path d="M11.5 -3.2 Q14.15 -7.2 18.8 -9.25 16.45 -6.75 16.6 -3.85 16.65 -2.4 17.8 0.55 20.3 -4.9 26.3 -7.85 29.3 -9.3 31.8 -9.65 29.8 -3.6 30.0 -0.05 33.4 -3.5 39.55 -4.2 42.6 -4.55 45.0 -4.2 L44.9 -4.05 Q42.3 -1.55 41.4 -0.2 40.7 0.95 40.2 3.0 50.45 2.75 58.65 8.0 L59.0 8.2 Q56.4 10.0 53.95 13.65 L52.0 17.0 Q55.15 18.55 56.7 19.45 59.25 20.95 60.6 22.35 L60.8 22.55 Q54.1 24.15 51.8 28.2 54.9 28.3 57.2 29.7 L57.4 30.15 Q52.25 31.3 52.2 32.35 L49.0 32.1 Q47.05 32.25 45.9 33.7 L46.6 29.2 45.0 30.0 46.2 25.7 46.6 24.15 44.2 25.15 45.0 20.0 40.0 20.55 40.0 17.8 35.0 19.6 35.0 16.35 30.6 18.8 30.0 15.75 25.2 18.8 23.2 15.95 23.2 16.45 Q23.0 23.65 24.45 28.2 L25.0 30.0 Q23.25 27.9 21.45 24.2 19.75 20.55 19.0 17.6 18.75 24.05 21.9 33.55 L22.6 35.55 Q16.45 28.8 12.7 21.8 10.85 27.9 12.0 32.15 9.8 30.15 8.75 24.35 5.85 33.5 6.6 46.35 L5.2 44.25 Q1.7 38.6 0.4 30.0 L-1.25 32.65 -1.9 34.05 Q-3.65 36.4 -4.0 39.35 L-3.15 31.2 Q-2.45 28.15 -0.9 25.85 -3.3 26.2 -4.95 27.4 -6.4 28.45 -8.4 31.2 L-6.75 27.15 Q-4.15 21.25 0.6 18.4 -0.55 18.6 -2.1 19.35 -5.2 20.9 -7.2 23.75 L-6.1 21.1 Q-3.4 15.2 0.8 11.8 2.85 10.1 4.4 9.6 L1.05 7.3 Q-0.9 6.45 -3.8 6.95 0.05 4.3 3.1 3.5 L10.0 3.15 Q8.95 0.55 11.5 -3.2" fill="#cccccc" fill-rule="evenodd" stroke="none"/>
    </g>
    <g id="shape1" transform="matrix(1.0, 0.0, 0.0, 1.0, 7.2, 3.45)">
      <path d="M48.8 18.35 L44.2 18.55 Q43.35 16.45 43.8 14.55 41.35 15.15 39.0 16.75 38.4 13.85 39.0 10.95 36.4 12.55 34.4 14.95 32.75 12.75 32.4 10.4 29.2 11.85 28.2 14.75 26.45 12.45 26.0 10.0 26.65 11.7 27.9 13.25 28.05 10.9 32.8 8.15 33.15 10.85 35.2 13.55 37.15 10.5 40.2 9.0 39.35 12.0 40.4 15.15 42.7 13.5 45.0 13.15 44.55 15.35 45.4 17.55 47.25 17.45 48.8 18.35" fill="#ffffff" fill-opacity="0.49803922" fill-rule="evenodd" stroke="none"/>
      <path d="M59.85 8.6 L60.2 8.8 Q57.6 10.6 55.15 14.25 L54.2 15.95 Q52.2 18.3 52.15 19.35 52.2 15.05 53.25 13.0 54.3 10.9 55.4 10.0 55.05 9.0 48.0 10.6 51.4 8.6 55.1 8.4 L59.85 8.6 M61.8 22.95 L62.0 23.15 Q55.3 24.75 53.0 28.8 56.1 28.9 58.4 30.3 L58.6 30.75 Q53.45 31.9 53.4 32.95 L50.2 32.7 Q48.25 32.85 47.1 34.3 L47.8 29.8 46.2 30.6 47.4 26.3 50.0 24.35 Q55.85 22.55 60.3 22.8 L61.8 22.95 M43.1 -2.65 Q44.8 -3.45 46.1 -3.45 43.5 -0.95 42.6 0.4 41.9 1.55 41.4 3.6 L36.9 4.45 36.0 4.75 Q39.0 -0.75 43.1 -2.65 M24.4 17.05 Q24.2 24.25 25.65 28.8 21.2 20.2 22.0 12.15 L23.0 14.9 24.4 17.05 M12.0 9.0 L17.3 14.55 12.8 11.6 12.6 16.0 Q12.8 20.5 13.9 22.6 12.05 28.7 13.2 32.95 11.0 30.95 9.95 25.15 7.05 34.3 7.8 47.15 L6.4 45.05 Q4.8 41.45 4.45 36.9 3.95 30.7 6.75 24.2 L7.4 30.2 Q8.5 24.15 10.1 20.2 L11.4 11.6 12.0 9.0 M7.2 16.35 Q6.15 16.55 4.1 17.6 L1.8 19.0 Q0.65 19.2 -0.9 19.95 -4.0 21.5 -6.0 24.35 L-4.9 21.7 Q-3.35 18.85 -1.05 17.4 2.5 15.1 7.2 16.35 M2.25 24.45 Q0.5 25.7 0.4 26.25 L0.3 26.45 Q-2.1 26.8 -3.75 28.0 -5.2 29.05 -7.2 31.8 L-5.55 27.75 Q-2.35 22.85 6.4 22.55 L2.25 24.45 M20.2 18.2 Q19.95 24.65 23.1 34.15 21.0 31.9 18.7 26.95 16.4 21.95 17.4 15.05 L20.2 18.2" fill="#afafaf" fill-rule="evenodd" stroke="none"/>
    </g>
  </defs>
</svg>
