<?xml version="1.0" encoding="UTF-8" standalone="no"?>
<svg xmlns:ffdec="https://www.free-decompiler.com/flash" xmlns:xlink="http://www.w3.org/1999/xlink" ffdec:objectType="frame" height="102.1px" width="115.4px" xmlns="http://www.w3.org/2000/svg">
  <g transform="matrix(1.0, 0.0, 0.0, 1.0, 35.05, 27.65)">
    <use ffdec:characterId="1" height="102.1" transform="matrix(1.0, 0.0, 0.0, 1.0, -35.05, -27.65)" width="115.4" xlink:href="#shape0"/>
  </g>
  <defs>
    <g id="shape0" transform="matrix(1.0, 0.0, 0.0, 1.0, 35.05, 27.65)">
      <path d="M34.0 -26.4 Q36.85 -25.3 38.9 -23.65 40.95 -22.05 43.3 -18.15 45.65 -14.3 46.1 -10.25 L48.5 4.1 Q49.05 7.95 51.2 12.05 53.45 16.15 55.65 18.8 57.9 21.4 61.55 24.45 65.15 27.45 68.85 28.75 72.55 30.0 75.5 31.5 78.45 33.0 79.4 36.45 80.35 39.85 80.35 43.05 80.35 47.95 77.8 50.5 77.05 51.25 73.05 53.0 69.65 54.45 68.65 55.3 68.75 56.2 68.35 57.95 L68.25 58.4 Q67.8 60.15 65.9 63.6 63.75 67.5 57.95 69.3 54.0 70.55 51.15 70.4 L48.95 69.95 46.75 69.3 42.8 68.75 Q39.1 68.75 38.7 70.75 38.25 72.75 42.0 74.45 40.05 74.5 38.9 73.75 37.75 73.0 37.25 72.2 L36.75 71.1 36.7 69.65 Q36.7 67.55 38.25 66.3 40.45 64.55 46.3 64.0 L44.2 62.9 Q41.9 62.0 38.95 62.0 L34.45 62.45 33.5 62.75 Q31.8 63.5 31.8 65.1 31.75 66.7 32.7 67.15 L33.95 67.6 Q31.05 68.15 30.3 66.95 29.3 65.3 28.85 63.0 L28.8 61.4 Q27.95 62.85 28.0 64.55 28.05 66.25 29.45 67.45 24.25 64.35 22.7 60.5 L22.5 61.0 Q20.8 64.55 17.1 67.35 18.15 65.75 17.7 64.55 17.25 63.35 16.2 62.4 L16.5 63.0 Q17.05 65.35 15.55 66.85 14.3 68.1 12.8 68.3 L12.1 68.35 11.6 68.25 11.4 68.1 11.85 68.25 Q12.3 68.4 12.9 67.75 L13.0 67.65 13.25 66.6 13.1 65.8 Q12.65 64.5 11.65 63.55 10.15 62.0 6.35 62.0 3.35 62.0 1.1 62.9 -0.05 63.4 -1.65 64.35 0.35 64.15 1.55 64.35 5.4 64.95 7.1 66.3 8.1 67.15 8.45 68.4 L8.6 69.65 8.55 70.95 7.6 72.35 Q8.1 71.05 7.5 69.95 6.85 68.8 3.3 68.8 -0.3 68.75 -3.6 69.95 -6.9 71.1 -12.65 69.3 -18.45 67.5 -20.6 63.6 -22.75 59.7 -23.05 57.95 L-23.35 55.3 Q-24.35 54.45 -27.7 53.0 -31.75 51.25 -32.5 50.5 -34.05 48.95 -34.65 46.6 -35.05 45.0 -35.05 43.05 -35.05 39.85 -34.05 36.45 L-33.7 35.5 Q-32.7 32.8 -30.2 31.5 -27.25 30.0 -23.5 28.75 -19.85 27.45 -16.2 24.45 -12.6 21.4 -10.4 18.8 L-9.15 17.3 Q-7.55 15.05 -5.9 12.05 -4.8 10.0 -4.1 8.0 -3.5 6.2 -3.25 4.5 L-3.2 4.1 -0.8 -10.25 Q-0.3 -14.3 1.7 -18.05 3.65 -21.8 5.8 -23.45 7.95 -25.1 10.45 -25.8 13.45 -27.1 15.7 -27.25 L19.8 -27.6 25.15 -27.65 Q31.1 -27.55 34.0 -26.4 M62.5 42.95 L64.75 45.2 Q67.25 48.35 68.3 52.4 72.05 50.75 73.25 48.45 74.55 46.1 74.55 43.6 74.55 40.05 71.65 36.85 69.6 34.7 64.8 31.5 L56.8 25.95 55.3 24.65 Q56.25 26.3 57.6 27.8 L61.8 31.95 Q64.35 34.6 64.8 37.9 65.15 41.2 62.5 42.95 M52.75 47.8 L51.0 47.85 51.15 48.1 Q54.65 52.75 55.8 56.25 56.3 57.9 56.3 59.3 56.3 61.55 54.8 63.4 53.75 64.7 51.15 65.2 L49.05 65.4 49.3 65.45 Q49.5 65.75 51.15 66.15 L52.1 66.3 Q54.55 66.7 56.7 66.25 60.0 64.8 62.55 61.9 64.95 59.05 65.05 56.75 62.8 57.1 61.7 59.3 L60.6 61.55 60.7 61.2 60.75 60.95 Q61.15 57.65 62.1 56.25 L62.2 56.1 Q63.3 54.7 64.85 53.85 63.8 48.9 58.95 45.95 56.45 47.2 52.75 47.8 M41.7 40.0 L41.6 40.0 Q41.75 42.1 42.6 45.3 L42.75 45.8 Q43.3 48.25 43.3 50.0 43.3 52.7 42.5 53.65 41.3 55.15 36.25 57.0 L37.25 57.0 Q44.35 56.95 46.3 55.5 47.0 54.9 47.0 53.15 L47.0 52.9 Q46.95 51.3 46.05 49.05 45.3 49.7 45.15 50.45 45.05 51.2 46.1 52.3 L46.4 52.7 46.55 52.8 Q47.0 53.25 46.65 52.95 L46.45 52.8 Q45.05 52.4 44.65 51.7 L44.05 50.45 Q44.05 49.5 44.65 48.55 L45.45 47.55 44.95 46.6 44.55 45.8 Q42.4 41.9 41.7 40.0 M44.75 31.7 Q44.25 33.8 44.25 34.5 44.25 39.0 49.35 45.8 L49.5 46.05 50.65 45.8 56.0 44.7 56.5 44.5 Q52.5 41.9 49.85 38.8 46.65 35.0 45.15 29.75 L44.75 31.7 M50.5 18.45 L48.65 14.35 48.0 23.05 Q47.7 26.65 49.1 31.05 50.45 35.4 56.3 38.75 58.6 40.0 60.35 41.3 L60.45 41.2 Q61.95 38.95 61.95 37.05 61.95 34.4 59.15 30.85 L54.0 24.8 Q52.75 23.25 51.95 21.6 L50.65 18.7 50.5 18.45 M0.15 29.75 L-0.9 32.85 Q-2.3 36.15 -4.5 38.8 -7.0 41.7 -10.65 44.15 L-11.2 44.5 -10.7 44.7 -10.15 44.8 -7.0 45.45 -4.25 46.05 Q1.05 39.1 1.05 34.5 L0.6 31.7 0.15 29.75 M3.75 40.0 L3.65 40.0 Q2.85 42.1 0.3 46.6 L-0.15 47.55 0.7 48.55 Q1.25 49.5 1.25 50.45 L0.7 51.7 Q0.25 52.4 -1.2 52.8 L-1.3 52.95 Q-1.7 53.25 -1.3 52.8 L-1.15 52.7 -0.8 52.3 Q0.25 51.2 0.15 50.45 0.0 49.7 -0.75 49.05 -1.6 51.3 -1.7 52.9 L-1.7 53.15 Q-1.7 54.9 -1.0 55.5 0.95 56.95 8.05 57.0 L9.1 57.0 Q4.0 55.15 2.85 53.65 1.95 52.7 1.95 50.0 1.95 48.05 2.75 45.3 3.55 42.1 3.75 40.0 M-3.3 15.4 L-3.35 14.35 -5.2 18.45 -5.35 18.7 -6.6 21.6 Q-7.45 23.25 -8.65 24.8 L-13.35 30.35 -13.85 30.85 Q-16.7 34.4 -16.7 37.05 -16.7 38.1 -16.2 39.25 L-15.25 41.05 -15.15 41.2 -15.05 41.3 Q-13.3 40.0 -10.95 38.75 -5.15 35.4 -3.75 31.05 L-3.3 29.5 -3.15 28.95 Q-2.45 25.8 -2.75 23.05 L-2.95 20.75 -3.1 18.2 -3.3 15.4 M-27.95 48.45 Q-26.7 50.75 -23.0 52.4 L-22.95 52.35 -22.4 50.55 Q-21.35 47.6 -19.4 45.2 L-17.5 43.3 -17.15 42.95 -17.35 42.8 Q-19.85 41.05 -19.45 37.9 -19.05 34.6 -16.5 31.95 L-15.25 30.8 -12.7 28.25 -12.3 27.8 Q-10.9 26.3 -9.95 24.65 L-11.5 25.95 -12.1 26.45 -19.45 31.5 Q-24.35 34.7 -26.35 36.85 -28.5 39.25 -29.05 41.8 L-29.25 43.6 Q-29.25 46.1 -27.95 48.45 M-7.45 47.8 L-8.7 47.6 Q-11.6 47.0 -13.65 45.95 -18.4 48.85 -19.45 53.65 L-19.5 53.85 Q-18.0 54.7 -16.9 56.1 -16.4 56.75 -16.0 57.95 -15.65 59.15 -15.45 60.95 L-15.4 61.2 -15.3 61.55 -16.4 59.3 Q-17.5 57.1 -19.75 56.75 -19.7 59.05 -17.2 61.9 -14.7 64.8 -11.4 66.25 -9.25 66.7 -6.75 66.3 -4.3 65.85 -4.0 65.45 L-3.7 65.4 -4.1 65.4 Q-8.1 65.1 -9.5 63.4 -10.95 61.55 -10.95 59.3 -10.95 54.8 -5.65 47.85 L-7.45 47.8" fill="url(#gradient0)" fill-rule="evenodd" stroke="none"/>
      <path d="M76.05 35.35 Q77.7 37.1 78.6 37.2 L78.7 37.35 78.75 37.25 78.75 37.2 79.45 36.95 Q80.35 40.1 80.35 43.1 80.35 45.05 79.95 46.65 L78.7 46.95 Q78.05 47.35 77.75 48.0 L78.5 45.35 Q79.35 41.35 77.55 37.95 L75.95 35.25 76.05 35.35 M-30.75 35.3 L-30.65 35.2 -32.25 37.9 Q-34.05 41.3 -33.2 45.3 L-32.45 47.95 Q-32.75 47.3 -33.4 46.9 L-34.65 46.6 Q-35.05 45.0 -35.05 43.05 -35.05 40.05 -34.15 36.9 L-33.45 37.15 -33.45 37.2 -33.4 37.3 -33.3 37.15 Q-32.4 37.05 -30.75 35.3" fill="#ffffff" fill-rule="evenodd" stroke="none"/>
      <path d="M43.5 7.45 L43.1 5.85 43.1 10.25 43.4 14.55 44.2 19.85 45.05 25.25 Q45.3 27.2 46.7 30.95 48.15 34.7 52.2 37.95 L58.95 42.8 59.0 42.8 59.2 43.0 59.25 43.0 59.85 43.35 60.7 43.85 61.2 44.2 Q64.6 46.15 65.5 48.55 66.3 50.0 66.75 51.8 L67.0 52.9 68.15 52.5 68.2 52.35 68.25 52.3 68.3 52.35 Q72.0 50.7 73.25 48.4 74.55 46.05 74.55 43.55 L74.35 41.75 Q73.8 39.2 71.65 36.8 69.65 34.65 64.75 31.45 59.6 28.05 57.4 26.4 L56.8 25.9 55.25 24.6 56.65 27.05 57.85 28.6 59.35 30.25 60.8 31.85 62.1 33.15 Q62.8 33.8 63.05 34.8 L63.3 36.55 63.25 37.5 62.55 39.5 61.85 41.0 61.15 41.95 61.0 41.85 60.5 41.4 60.45 41.15 60.55 41.0 61.5 39.2 Q62.0 38.05 62.0 37.0 62.0 34.35 59.15 30.8 L58.65 30.3 53.95 24.75 Q52.75 23.2 51.9 21.55 L50.65 18.65 50.5 18.4 48.65 14.3 48.0 12.4 47.3 11.7 Q46.75 15.45 46.6 19.4 L45.9 16.1 43.5 7.45 M25.4 -27.5 L25.5 -27.65 29.6 -27.3 Q31.85 -27.15 34.85 -25.85 37.35 -25.15 39.5 -23.5 41.65 -21.85 43.6 -18.1 45.6 -14.35 46.1 -10.3 L48.5 4.05 47.6 2.55 Q46.85 1.0 48.05 8.45 L48.55 9.95 Q49.0 11.4 49.85 12.95 L51.15 15.1 51.75 16.2 53.85 19.25 57.3 23.35 58.35 24.25 Q60.75 26.25 63.35 27.35 67.4 29.0 70.3 29.7 L73.9 30.8 71.5 30.6 71.05 30.65 68.45 30.35 67.25 29.9 Q63.85 28.65 61.2 26.8 L58.9 25.2 62.2 28.6 68.1 31.95 69.6 32.6 Q73.55 33.75 75.6 36.1 77.8 38.65 77.65 41.45 77.55 43.75 76.85 45.75 L76.9 42.4 Q76.95 39.75 72.25 35.5 74.65 38.4 75.35 40.25 76.15 42.35 76.15 44.85 76.15 47.1 75.15 48.7 L74.15 50.0 72.1 51.55 Q69.5 52.65 70.5 52.15 68.9 52.85 67.25 53.65 L67.1 53.7 66.2 54.1 64.65 55.15 Q63.95 55.7 62.55 57.65 L62.9 57.4 Q63.7 56.95 64.8 56.65 65.95 56.3 64.45 56.9 63.0 57.5 61.85 59.45 L60.6 61.5 60.7 61.15 60.75 60.9 Q60.95 59.1 61.3 57.9 61.7 56.7 62.2 56.05 63.3 54.65 64.8 53.8 L64.75 53.6 Q63.7 48.8 58.95 45.9 56.9 46.95 54.0 47.55 L54.05 47.1 58.1 45.85 58.1 45.7 55.55 46.35 54.05 46.75 Q53.85 45.6 52.3 45.4 L55.45 44.75 56.0 44.65 56.5 44.45 55.95 44.1 Q52.3 41.65 49.8 38.75 47.6 36.1 46.2 32.8 L44.85 28.15 43.45 22.95 42.25 18.55 42.0 17.65 42.05 18.0 Q43.75 25.85 44.05 28.75 L43.65 30.2 Q43.45 31.5 43.35 34.4 43.3 37.35 45.0 41.2 46.75 45.0 48.6 47.2 53.4 54.75 53.75 57.1 54.15 59.4 53.7 60.35 52.4 64.25 46.8 62.25 43.2 60.9 40.3 60.75 L41.65 60.45 45.9 60.2 49.6 59.75 Q51.85 58.85 52.3 56.05 52.75 53.25 47.0 46.65 L50.45 53.05 50.7 54.35 Q50.7 57.75 47.0 59.05 L46.4 59.2 43.9 59.35 42.1 59.2 43.0 59.2 Q47.3 58.55 48.65 57.2 50.05 55.8 49.7 54.15 49.35 52.45 48.3 50.9 L48.6 51.7 49.05 53.9 Q49.05 55.7 48.25 56.65 46.85 58.25 42.85 58.65 L41.5 58.8 39.25 58.8 38.6 58.6 Q33.65 58.3 31.65 60.8 30.45 62.25 30.45 64.3 30.7 66.65 31.45 68.0 L29.75 66.8 Q28.25 65.3 28.8 62.95 L29.1 62.35 28.75 62.7 30.0 60.5 Q30.9 58.85 32.75 57.9 L32.15 57.95 Q30.2 58.05 29.1 59.25 27.95 60.35 27.35 62.2 26.7 64.05 27.05 65.55 L27.2 66.15 26.85 65.8 Q23.15 64.35 22.8 60.95 L22.9 60.75 22.65 59.6 22.4 60.8 22.5 61.0 Q21.05 64.05 18.15 66.55 L18.2 66.3 18.3 64.8 Q18.35 63.5 17.85 61.95 17.35 60.4 16.4 59.05 15.4 57.65 14.6 57.25 13.75 56.8 10.9 56.45 8.05 56.1 6.75 55.15 5.45 54.2 4.5 52.65 3.65 50.8 3.65 49.2 3.65 47.3 5.15 42.1 6.65 36.9 6.65 34.0 L6.65 33.45 6.6 33.75 Q6.15 36.9 4.65 41.95 3.15 47.0 3.0 49.3 2.8 51.55 3.6 53.45 L4.35 54.85 2.85 53.65 Q1.95 52.7 1.95 50.0 1.95 48.05 2.75 45.3 3.55 42.1 3.75 40.0 L3.65 40.0 Q2.85 42.1 0.3 46.6 L-0.15 47.55 0.7 48.55 Q1.25 49.5 1.25 50.45 L0.7 51.7 Q0.25 52.4 -1.2 52.8 L-1.3 52.95 Q-1.7 53.25 -1.3 52.8 L-1.15 52.7 -0.8 52.3 Q0.25 51.2 0.15 50.45 0.0 49.7 -0.75 49.05 -1.6 51.3 -1.7 52.9 L-1.7 53.15 Q-1.7 54.9 -1.0 55.5 0.95 56.95 8.05 57.0 L9.05 57.0 11.4 57.5 Q14.15 58.4 15.3 60.55 L16.55 62.75 16.2 62.4 16.5 63.0 Q17.05 65.35 15.55 66.85 L13.85 68.05 Q14.6 66.7 14.85 64.35 14.85 62.3 13.65 60.85 11.65 58.35 6.7 58.65 L6.05 58.85 3.8 58.85 2.45 58.7 Q-1.55 58.3 -2.95 56.7 -3.75 55.75 -3.75 53.95 L-3.3 51.75 -3.0 50.95 Q-4.05 52.5 -4.4 54.2 -4.75 55.85 -3.35 57.25 -2.0 58.6 2.3 59.25 L3.2 59.25 1.4 59.4 -1.1 59.25 -1.7 59.1 Q-5.4 57.8 -5.4 54.4 L-5.15 53.1 -1.7 46.7 Q-7.45 53.3 -7.0 56.1 -6.55 58.9 -4.3 59.8 L-0.6 60.25 3.65 60.5 5.0 60.8 Q2.1 60.95 -1.5 62.3 -7.1 64.3 -8.4 60.4 -8.85 59.45 -8.45 57.15 -8.1 54.8 -3.3 47.25 -1.45 45.05 0.3 41.25 2.0 37.4 1.95 34.45 L1.65 30.25 1.25 28.8 Q1.55 25.9 3.25 18.05 L3.3 17.7 3.05 18.6 1.85 23.0 0.45 28.2 -0.9 32.85 Q-2.3 36.15 -4.5 38.8 -7.0 41.7 -10.65 44.15 L-11.2 44.5 -10.7 44.7 -10.15 44.8 -7.0 45.45 Q-8.55 45.65 -8.75 46.8 L-10.25 46.4 -12.8 45.75 -12.8 45.9 -8.75 47.15 -8.7 47.6 Q-11.6 47.0 -13.65 45.95 -18.4 48.85 -19.45 53.65 L-19.5 53.85 Q-18.0 54.7 -16.9 56.1 -16.4 56.75 -16.0 57.95 -15.65 59.15 -15.45 60.95 L-15.4 61.2 -15.3 61.55 -16.55 59.5 Q-17.7 57.55 -19.15 56.95 -20.65 56.35 -19.5 56.7 -18.4 57.0 -17.6 57.45 L-17.25 57.7 Q-18.65 55.75 -19.35 55.2 L-20.9 54.15 Q-21.4 53.85 -21.8 53.75 L-21.95 53.7 Q-23.6 52.9 -25.2 52.2 -24.2 52.7 -26.8 51.6 L-28.85 50.05 -29.85 48.75 Q-30.85 47.15 -30.85 44.9 -30.85 42.4 -30.05 40.3 -29.35 38.45 -26.95 35.55 -31.65 39.8 -31.6 42.45 L-31.55 45.8 Q-32.25 43.8 -32.35 41.5 -32.5 38.7 -30.3 36.15 -28.25 33.8 -24.3 32.65 L-22.8 32.0 Q-20.8 31.05 -16.9 28.65 L-13.6 25.25 -15.9 26.85 Q-18.55 28.7 -21.95 29.95 L-23.15 30.4 -25.75 30.7 -26.2 30.65 -28.6 30.85 -25.0 29.75 Q-22.1 29.05 -18.05 27.4 -15.45 26.3 -13.05 24.3 L-12.0 23.4 -8.55 19.3 -6.45 16.25 -5.85 15.15 -4.55 13.0 -3.25 10.0 -2.75 8.5 Q-1.55 1.05 -2.3 2.6 L-3.2 4.1 -0.8 -10.25 Q-0.3 -14.3 1.7 -18.05 3.65 -21.8 5.8 -23.45 7.95 -25.1 10.45 -25.8 13.45 -27.1 15.7 -27.25 L25.4 -27.5 M41.65 39.95 L41.55 39.95 Q41.75 42.05 42.55 45.25 43.35 48.0 43.35 49.95 43.35 52.65 42.45 53.6 L40.95 54.8 41.7 53.4 Q42.5 51.5 42.3 49.25 42.15 46.95 40.65 41.9 39.15 36.85 38.7 33.7 L38.65 33.4 38.65 33.95 Q38.65 36.85 40.15 42.05 41.65 47.25 41.65 49.15 41.65 50.75 40.8 52.6 L38.65 55.45 Q37.7 56.4 35.85 57.05 L36.25 56.95 37.25 56.95 Q44.35 56.9 46.3 55.45 47.0 54.85 47.0 53.1 L47.0 52.85 Q46.9 51.25 46.05 49.0 45.3 49.65 45.15 50.4 45.05 51.15 46.1 52.25 L46.45 52.65 46.6 52.75 Q47.0 53.2 46.6 52.9 L46.5 52.75 Q45.05 52.35 44.6 51.65 44.05 50.85 44.05 50.4 44.05 49.45 44.6 48.5 L45.45 47.5 45.0 46.55 Q42.45 42.05 41.65 39.95 M10.8 33.15 L10.85 28.6 10.45 25.15 9.65 22.0 9.3 28.35 Q9.05 31.4 7.05 36.8 5.05 42.2 5.05 45.05 5.05 47.05 6.65 49.15 8.35 51.4 11.85 52.65 15.35 53.85 16.9 56.05 18.1 57.75 18.7 60.3 18.75 55.4 16.2 53.15 L11.4 49.15 Q9.4 47.6 9.4 44.05 9.35 40.5 10.0 38.2 L10.8 33.15 M2.2 10.3 L2.2 5.9 1.8 7.5 -0.6 16.15 -1.3 19.45 Q-1.45 15.5 -2.0 11.75 L-2.7 12.45 -3.35 14.35 -5.2 18.45 -5.35 18.7 -6.6 21.6 Q-7.45 23.25 -8.65 24.8 L-13.35 30.35 -13.85 30.85 Q-16.7 34.4 -16.7 37.05 -16.7 38.1 -16.2 39.25 L-15.25 41.05 -15.15 41.2 -15.2 41.45 -15.7 41.9 -15.85 42.0 -16.55 41.05 -17.25 39.55 -17.95 37.55 -18.0 36.6 -17.75 34.85 Q-17.5 33.85 -16.8 33.2 L-15.5 31.9 -14.05 30.3 -12.55 28.65 -11.35 27.1 -9.95 24.65 -11.5 25.95 -12.1 26.45 -19.45 31.5 Q-24.35 34.7 -26.35 36.85 -28.5 39.25 -29.05 41.8 L-29.25 43.6 Q-29.25 46.1 -27.95 48.45 -26.7 50.75 -23.0 52.4 L-22.95 52.35 -22.9 52.4 -22.85 52.55 -21.7 52.95 -21.45 51.85 Q-21.0 50.05 -20.2 48.6 -19.3 46.2 -15.9 44.25 L-15.4 43.9 -14.55 43.4 -13.95 43.05 -13.7 42.85 -13.65 42.85 -6.9 38.0 Q-2.85 34.75 -1.4 31.0 0.0 27.25 0.25 25.3 L1.1 19.9 1.9 14.6 2.2 10.3 M34.45 28.55 Q34.25 30.4 34.5 33.1 34.75 35.8 35.3 38.15 35.95 40.45 35.9 44.0 35.9 47.55 33.9 49.1 L29.1 53.1 Q26.55 55.35 26.6 60.25 27.2 57.7 28.4 56.0 29.95 53.8 33.45 52.6 36.95 51.35 38.65 49.1 40.25 47.0 40.25 45.0 40.25 42.15 38.25 36.75 36.25 31.35 36.0 28.3 L35.65 21.95 Q35.1 23.45 34.85 25.1 L34.45 28.55" fill="url(#gradient1)" fill-rule="evenodd" stroke="none"/>
      <path d="M48.25 20.7 L48.05 23.0 Q47.75 25.75 48.45 28.9 L48.5 31.25 48.6 31.45 49.7 34.05 Q48.8 32.85 48.05 31.25 46.5 27.9 47.55 23.9 L48.25 20.7" fill="url(#gradient2)" fill-rule="evenodd" stroke="none"/>
      <path d="M63.55 37.6 L63.55 37.8 Q63.5 40.0 62.8 41.15 L61.85 42.55 61.75 42.4 61.4 42.15 Q62.2 41.4 62.85 39.95 L63.55 37.6" fill="url(#gradient3)" fill-rule="evenodd" stroke="none"/>
      <path d="M-2.95 20.75 L-2.25 23.95 Q-1.2 27.95 -2.75 31.3 -3.5 32.9 -4.4 34.1 L-3.3 31.5 -3.2 31.3 -3.15 28.95 Q-2.45 25.8 -2.75 23.05 L-2.95 20.75" fill="url(#gradient4)" fill-rule="evenodd" stroke="none"/>
      <path d="M-18.25 37.65 L-17.55 40.0 Q-16.9 41.45 -16.1 42.2 L-16.45 42.45 -16.9 43.0 -16.55 42.6 -17.5 41.2 Q-18.2 40.05 -18.25 37.85 L-18.25 37.65" fill="url(#gradient5)" fill-rule="evenodd" stroke="none"/>
      <path d="M49.95 46.0 L50.0 45.95 52.25 47.85 52.25 47.9 50.95 48.1 50.35 47.3 49.5 46.1 49.95 46.0" fill="url(#gradient6)" fill-rule="evenodd" stroke="none"/>
      <path d="M36.35 60.5 Q31.25 61.9 32.05 66.55 32.0 67.15 32.3 67.6 L32.45 68.0 31.55 66.85 Q30.95 65.3 30.95 64.35 30.95 59.15 37.5 59.15 L41.15 59.55 42.5 59.8 39.45 60.05 36.35 60.5" fill="url(#gradient7)" fill-rule="evenodd" stroke="none"/>
      <path d="M36.85 68.35 Q37.2 67.1 38.2 66.25 39.9 64.9 40.8 64.6 L44.3 64.1 46.2 64.15 46.45 64.2 Q47.8 64.45 48.95 65.15 L49.05 65.2 49.25 65.35 49.7 65.65 52.05 66.25 Q54.55 66.65 56.7 66.2 60.0 64.75 62.5 61.85 65.0 59.0 65.05 56.7 L65.25 56.6 66.5 56.05 67.25 55.85 67.25 56.35 67.1 59.75 Q64.85 64.95 59.55 67.9 56.85 69.35 54.55 69.5 L54.45 69.5 53.3 69.7 52.1 69.65 47.6 68.8 43.0 67.9 41.15 67.9 39.3 68.25 Q41.8 66.65 45.3 66.65 L47.75 66.85 Q45.9 65.85 44.8 65.6 43.0 65.2 41.1 65.65 39.25 66.05 38.25 66.9 L36.85 68.35" fill="url(#gradient8)" fill-rule="evenodd" stroke="none"/>
      <path d="M2.8 59.85 L4.15 59.6 7.8 59.2 Q14.35 59.2 14.35 64.4 14.35 65.35 13.75 66.9 L12.85 68.05 13.0 67.65 13.25 66.6 Q14.05 61.95 8.95 60.55 L5.85 60.1 2.8 59.85" fill="url(#gradient9)" fill-rule="evenodd" stroke="none"/>
      <path d="M1.0 64.15 L4.5 64.65 Q5.4 64.95 7.1 66.3 8.1 67.15 8.45 68.4 L7.05 66.95 Q6.05 66.1 4.2 65.7 2.3 65.25 0.5 65.65 -0.6 65.9 -2.45 66.9 L0.0 66.7 Q3.5 66.7 6.0 68.3 L4.15 67.95 2.3 67.95 -2.3 68.85 -6.8 69.7 -8.0 69.75 -9.15 69.55 -9.25 69.55 Q-11.55 69.4 -14.25 67.95 -19.55 65.0 -21.8 59.8 L-21.95 56.4 -21.95 55.9 -21.2 56.1 Q-20.85 56.2 -19.95 56.65 L-19.75 56.75 Q-19.7 59.05 -17.2 61.9 -14.7 64.8 -11.4 66.25 -9.25 66.7 -6.75 66.3 L-4.4 65.7 -3.95 65.4 -3.75 65.25 -3.65 65.2 Q-2.5 64.5 -1.15 64.25 L-0.9 64.2 1.0 64.15" fill="url(#gradient10)" fill-rule="evenodd" stroke="none"/>
      <path d="M-5.4 46.85 L-5.35 46.75 -4.7 45.95 -4.25 46.1 -5.65 47.75 -6.1 47.7 -5.85 47.4 -5.4 46.85" fill="url(#gradient11)" fill-rule="evenodd" stroke="none"/>
    </g>
    <radialGradient cx="0" cy="0" gradientTransform="matrix(0.0749, 0.0, 0.0, 0.0809, 22.7, 23.15)" gradientUnits="userSpaceOnUse" id="gradient0" r="819.2" spreadMethod="pad">
      <stop offset="0.0" stop-color="#ffdb95"/>
      <stop offset="0.49019607843137253" stop-color="#ffedb1"/>
      <stop offset="1.0" stop-color="#f5dd8d"/>
    </radialGradient>
    <radialGradient cx="0" cy="0" gradientTransform="matrix(0.074, 0.0, 0.0, 0.074, 22.65, 20.2)" gradientUnits="userSpaceOnUse" id="gradient1" r="819.2" spreadMethod="pad">
      <stop offset="0.0" stop-color="#a36e07"/>
      <stop offset="0.49019607843137253" stop-color="#c69700"/>
      <stop offset="1.0" stop-color="#c67700"/>
    </radialGradient>
    <radialGradient cx="0" cy="0" gradientTransform="matrix(0.0087, 0.0, 0.0, 0.0087, 48.4, 27.4)" gradientUnits="userSpaceOnUse" id="gradient2" r="819.2" spreadMethod="pad">
      <stop offset="0.0" stop-color="#a36e07"/>
      <stop offset="0.49019607843137253" stop-color="#c69700"/>
      <stop offset="1.0" stop-color="#c67700"/>
    </radialGradient>
    <radialGradient cx="0" cy="0" gradientTransform="matrix(0.004, 0.0, 0.0, 0.004, 62.5, 40.1)" gradientUnits="userSpaceOnUse" id="gradient3" r="819.2" spreadMethod="pad">
      <stop offset="0.0" stop-color="#a36e07"/>
      <stop offset="0.49019607843137253" stop-color="#c69700"/>
      <stop offset="1.0" stop-color="#c67700"/>
    </radialGradient>
    <radialGradient cx="0" cy="0" gradientTransform="matrix(0.0088, 0.0, 0.0, 0.0088, -3.1, 27.4)" gradientUnits="userSpaceOnUse" id="gradient4" r="819.2" spreadMethod="pad">
      <stop offset="0.0" stop-color="#a36e07"/>
      <stop offset="0.49019607843137253" stop-color="#c69700"/>
      <stop offset="1.0" stop-color="#c67700"/>
    </radialGradient>
    <radialGradient cx="0" cy="0" gradientTransform="matrix(0.0042, 0.0, 0.0, 0.0042, -17.2, 40.3)" gradientUnits="userSpaceOnUse" id="gradient5" r="819.2" spreadMethod="pad">
      <stop offset="0.0" stop-color="#a36e07"/>
      <stop offset="0.49019607843137253" stop-color="#c69700"/>
      <stop offset="1.0" stop-color="#c67700"/>
    </radialGradient>
    <radialGradient cx="0" cy="0" gradientTransform="matrix(0.002, 0.0, 0.0, 0.002, 50.85, 47.05)" gradientUnits="userSpaceOnUse" id="gradient6" r="819.2" spreadMethod="pad">
      <stop offset="0.0" stop-color="#a36e07"/>
      <stop offset="0.49019607843137253" stop-color="#c69700"/>
      <stop offset="1.0" stop-color="#c67700"/>
    </radialGradient>
    <radialGradient cx="0" cy="0" gradientTransform="matrix(0.0085, 0.0, 0.0, 0.0085, 36.75, 63.6)" gradientUnits="userSpaceOnUse" id="gradient7" r="819.2" spreadMethod="pad">
      <stop offset="0.0" stop-color="#a36e07"/>
      <stop offset="0.49019607843137253" stop-color="#c69700"/>
      <stop offset="1.0" stop-color="#c67700"/>
    </radialGradient>
    <radialGradient cx="0" cy="0" gradientTransform="matrix(0.0204, 0.0, 0.0, 0.0204, 52.05, 62.8)" gradientUnits="userSpaceOnUse" id="gradient8" r="819.2" spreadMethod="pad">
      <stop offset="0.0" stop-color="#a36e07"/>
      <stop offset="0.49019607843137253" stop-color="#c69700"/>
      <stop offset="1.0" stop-color="#c67700"/>
    </radialGradient>
    <radialGradient cx="0" cy="0" gradientTransform="matrix(0.0085, 0.0, 0.0, 0.0085, 8.55, 63.65)" gradientUnits="userSpaceOnUse" id="gradient9" r="819.2" spreadMethod="pad">
      <stop offset="0.0" stop-color="#a36e07"/>
      <stop offset="0.49019607843137253" stop-color="#c69700"/>
      <stop offset="1.0" stop-color="#c67700"/>
    </radialGradient>
    <radialGradient cx="0" cy="0" gradientTransform="matrix(0.0204, 0.0, 0.0, 0.0204, -6.75, 62.8)" gradientUnits="userSpaceOnUse" id="gradient10" r="819.2" spreadMethod="pad">
      <stop offset="0.0" stop-color="#a36e07"/>
      <stop offset="0.49019607843137253" stop-color="#c69700"/>
      <stop offset="1.0" stop-color="#c67700"/>
    </radialGradient>
    <radialGradient cx="0" cy="0" gradientTransform="matrix(0.0017, 0.0, 0.0, 0.0017, -5.15, 46.85)" gradientUnits="userSpaceOnUse" id="gradient11" r="819.2" spreadMethod="pad">
      <stop offset="0.0" stop-color="#a36e07"/>
      <stop offset="0.49019607843137253" stop-color="#c69700"/>
      <stop offset="1.0" stop-color="#c67700"/>
    </radialGradient>
  </defs>
</svg>
