<?xml version="1.0" encoding="UTF-8" standalone="no"?>
<svg xmlns:ffdec="https://www.free-decompiler.com/flash" xmlns:xlink="http://www.w3.org/1999/xlink" ffdec:objectType="frame" height="43.2px" width="54.1px" xmlns="http://www.w3.org/2000/svg">
  <g transform="matrix(1.0, 0.0, 0.0, 1.0, 4.15, 13.2)">
    <use ffdec:characterId="1" height="39.3" transform="matrix(1.0, 0.0, 0.0, 1.0, -3.1, -12.25)" width="50.55" xlink:href="#shape0"/>
    <clipPath id="clipPath0" transform="matrix(1.0, 0.0, 0.0, 1.0, 0.0, 0.0)">
      <path d="M44.4 -12.25 Q50.75 6.35 45.4 13.0 L44.65 14.0 44.55 14.45 Q44.15 15.15 44.15 16.25 44.15 17.1 44.65 17.8 45.35 18.8 46.95 19.0 L46.3 19.35 45.35 19.5 Q43.15 19.5 42.75 17.8 L42.5 18.9 Q41.85 21.9 45.4 22.6 39.3 24.0 39.9 18.15 39.15 20.35 39.35 21.75 39.55 23.1 42.15 24.1 40.45 24.6 38.85 24.1 37.25 23.55 36.65 21.7 36.3 22.35 36.6 23.4 36.9 24.4 39.15 25.1 L35.15 24.7 Q33.9 23.9 33.55 22.5 33.85 23.6 33.2 24.7 32.7 25.45 30.65 26.25 31.65 24.8 31.3 23.9 31.0 23.1 30.5 22.75 30.45 23.95 29.3 25.3 27.8 27.05 25.55 27.05 25.2 27.05 25.0 26.85 L25.7 26.3 Q26.25 25.8 26.35 24.8 26.45 23.8 24.95 22.95 23.8 23.2 23.0 24.4 22.15 25.8 22.4 25.95 21.1 25.7 20.4 24.25 L20.0 22.85 Q18.5 23.25 17.85 24.45 17.45 25.2 17.3 26.45 16.2 25.1 15.9 23.8 15.9 22.5 15.2 23.1 L14.1 24.4 Q13.7 25.15 13.75 25.5 12.7 25.45 12.3 23.95 L11.85 22.5 Q11.55 23.9 11.05 24.4 10.5 24.9 9.8 25.05 L8.05 25.1 7.0 24.9 Q8.65 24.4 8.6 22.95 L8.6 22.0 Q7.65 23.3 5.75 23.85 L3.85 24.1 Q5.3 23.05 5.9 21.35 6.6 19.4 5.5 18.15 4.8 22.35 0.0 22.6 2.2 22.2 2.5 19.55 1.5 20.5 -0.3 20.5 L-1.2 20.5 -1.5 20.15 -1.4 20.0 -1.3 20.0 Q0.3 20.0 1.25 18.4 1.9 17.25 1.9 16.45 L1.75 15.7 1.75 15.65 1.75 15.5 0.2 12.9 -1.35 10.2 -1.4 10.1 -1.45 10.0 -1.65 9.4 -1.75 9.1 Q-3.6 3.35 -1.9 -3.85 -0.75 -8.75 1.25 -12.25 L44.4 -12.25" fill="#36627d" fill-rule="evenodd" stroke="none"/>
    </clipPath>
    <g clip-path="url(#clipPath0)">
      <use ffdec:characterId="3" height="42.25" transform="matrix(1.0, 0.0, 0.0, 1.0, -4.15, -12.25)" width="54.1" xlink:href="#shape2"/>
    </g>
    <use ffdec:characterId="4" height="40.05" transform="matrix(1.0, 0.0, 0.0, 1.0, -1.95, -13.2)" width="48.05" xlink:href="#shape3"/>
  </g>
  <defs>
    <g id="shape0" transform="matrix(1.0, 0.0, 0.0, 1.0, 3.1, 12.25)">
      <path d="M44.0 -12.25 Q50.35 6.35 45.0 13.0 L44.25 14.0 44.15 14.45 Q43.75 15.15 43.75 16.25 43.75 17.1 44.25 17.8 44.95 18.8 46.55 19.0 L45.9 19.35 44.95 19.5 Q42.75 19.5 42.35 17.8 L42.1 18.9 Q41.45 21.9 45.0 22.6 38.9 24.0 39.5 18.15 38.75 20.35 38.95 21.75 39.15 23.1 41.75 24.1 40.05 24.6 38.45 24.1 36.85 23.55 36.25 21.7 35.9 22.35 36.2 23.4 36.5 24.4 38.75 25.1 35.85 25.35 34.75 24.7 33.5 23.9 33.15 22.5 33.45 23.6 32.8 24.7 32.3 25.45 30.25 26.25 31.25 24.8 30.9 23.9 30.6 23.1 30.1 22.75 30.05 23.95 28.9 25.3 27.4 27.05 25.15 27.05 24.8 27.05 24.6 26.85 L25.3 26.3 Q25.85 25.8 25.95 24.8 26.05 23.8 24.55 22.95 23.4 23.2 22.6 24.4 21.75 25.8 22.0 25.95 20.7 25.7 20.0 24.25 L19.6 22.85 Q18.1 23.25 17.45 24.45 17.05 25.2 16.9 26.45 15.8 25.1 15.5 23.8 15.5 22.5 14.8 23.1 14.1 23.65 13.7 24.4 13.3 25.15 13.35 25.5 12.3 25.45 11.9 23.95 L11.45 22.5 Q11.15 23.9 10.65 24.4 L9.4 25.05 7.65 25.1 6.6 24.9 Q8.25 24.4 8.2 22.95 L8.2 22.0 Q7.25 23.3 5.35 23.85 L3.45 24.1 Q4.9 23.05 5.5 21.35 6.2 19.4 5.1 18.15 4.4 22.35 -0.4 22.6 1.8 22.2 2.1 19.55 1.1 20.5 -0.7 20.5 L-1.6 20.5 -1.9 20.15 -1.8 20.0 -1.7 20.0 Q-0.1 20.0 0.85 18.4 L1.5 16.45 1.35 15.7 1.35 15.65 1.35 15.5 -0.2 12.9 -1.75 10.2 -1.8 10.1 -1.85 10.0 -2.05 9.4 -2.15 9.1 Q-4.0 3.35 -2.3 -3.85 -1.15 -8.75 0.85 -12.25 L44.0 -12.25" fill="#c0c093" fill-rule="evenodd" stroke="none"/>
    </g>
    <g id="shape2" transform="matrix(1.0, 0.0, 0.0, 1.0, 4.15, 12.25)">
      <path d="M49.95 30.0 L-3.6 30.0 -4.15 -12.25 49.35 -12.25 49.95 30.0" fill="url(#gradient0)" fill-rule="evenodd" stroke="none"/>
    </g>
    <linearGradient gradientTransform="matrix(0.0, 0.0258, -0.033, 0.0, 22.95, 8.9)" gradientUnits="userSpaceOnUse" id="gradient0" spreadMethod="pad" x1="-819.2" x2="819.2">
      <stop offset="0.5254901960784314" stop-color="#9a9a53" stop-opacity="0.65882355"/>
      <stop offset="0.7450980392156863" stop-color="#9a9a53" stop-opacity="0.0"/>
    </linearGradient>
    <g id="shape3" transform="matrix(1.0, 0.0, 0.0, 1.0, 1.95, 13.2)">
      <path d="M0.4 -6.3 Q1.3 -9.7 2.55 -11.8 3.75 -13.9 3.35 -12.9 6.35 -12.6 22.85 -12.45 L41.75 -12.25 41.55 -12.65 Q42.35 -12.65 42.95 -11.5 L43.8 -9.35 44.95 -5.0 45.65 -2.0 46.0 0.7 46.1 6.05 45.9 8.0 Q44.75 11.9 43.3 13.5 L41.0 15.6 Q41.4 14.45 42.15 13.05 L43.35 10.75 41.3 13.3 39.75 15.25 39.4 16.0 38.85 16.95 38.5 17.8 38.25 19.1 38.1 20.3 Q38.1 21.65 38.95 22.7 39.6 23.55 40.75 23.9 L40.7 23.9 38.25 23.5 36.95 22.4 36.3 21.7 Q36.0 21.65 36.0 22.65 36.0 23.65 36.6 24.0 L37.3 24.55 37.85 24.9 35.65 24.5 35.3 24.4 34.2 23.6 33.2 22.1 33.05 22.5 32.95 22.95 Q32.35 25.3 30.85 25.75 31.45 24.65 31.2 23.95 30.8 22.85 29.6 21.85 L29.6 22.8 28.75 24.55 28.2 25.2 27.8 25.55 Q27.2 25.95 26.55 26.3 25.7 26.85 24.5 26.85 L25.45 26.15 Q26.05 25.2 26.05 24.6 26.05 24.0 25.35 23.35 L23.8 23.3 Q22.2 24.55 22.05 25.45 L21.9 25.55 21.9 25.9 Q20.7 25.45 20.4 24.85 L19.85 23.8 19.8 23.5 19.7 22.95 Q19.7 22.45 18.35 23.5 16.95 24.55 16.9 26.35 L16.2 25.45 15.65 24.5 15.55 23.5 Q15.5 22.9 15.15 22.9 14.8 22.9 14.1 23.85 13.35 24.8 13.35 25.45 12.35 25.45 11.95 24.15 L11.5 22.55 11.05 23.7 Q10.45 25.05 9.35 25.05 L6.65 25.0 7.7 24.4 8.05 23.9 Q8.0 23.75 8.1 23.75 L8.2 22.9 8.25 22.8 8.2 22.2 8.1 22.1 7.6 22.7 7.35 22.95 6.4 23.5 5.4 23.85 5.3 23.9 4.25 24.1 3.7 24.1 4.05 23.85 4.25 23.7 4.85 23.3 Q6.4 22.25 6.9 20.6 7.35 18.9 6.7 16.0 L5.6 13.35 Q5.85 13.95 5.4 15.55 4.9 17.15 3.25 20.0 L3.95 16.95 4.15 13.9 Q4.1 12.35 3.4 10.0 L2.8 7.65 Q2.05 4.85 2.05 1.9 L2.1 0.15 Q1.6 1.35 1.25 3.7 0.9 6.2 1.05 6.95 L1.15 8.45 1.15 8.5 0.85 7.65 Q-0.55 3.75 -0.55 0.35 L-0.5 -1.95 0.4 -6.3 M-1.95 20.0 Q0.85 20.55 1.9 18.95 2.9 17.35 3.0 15.7 L3.0 14.55 3.3 17.25 3.15 18.2 2.5 19.1 2.1 19.55 Q0.8 20.45 -0.3 20.55 -1.5 20.6 -1.95 20.0 M12.9 25.9 L13.1 25.95 13.0 26.0 12.9 25.9 M4.95 18.75 L4.3 20.35 2.75 21.85 1.4 22.45 0.05 22.5 Q0.6 22.45 1.75 21.75 L3.55 20.35 5.0 18.4 4.95 18.75 M42.95 22.9 L41.3 22.55 40.25 21.9 39.85 21.35 Q39.55 20.75 39.55 19.2 L39.6 18.05 39.85 17.55 Q39.85 19.3 41.55 21.2 42.35 22.05 44.0 22.85 L42.95 22.9" fill="#878767" fill-opacity="0.9882353" fill-rule="evenodd" stroke="none"/>
    </g>
  </defs>
</svg>
