<svg xmlns="http://www.w3.org/2000/svg" xmlns:ffdec="https://www.free-decompiler.com/flash" xmlns:xlink="http://www.w3.org/1999/xlink" ffdec:objectType="frame" width="52.85" height="56.65"><use ffdec:characterId="1" xlink:href="#a" width="52.85" height="56.65"/><defs><linearGradient id="b" x1="-819.2" x2="819.2" gradientTransform="matrix(0 -.0412 .0356 0 23.3 -1.75)" gradientUnits="userSpaceOnUse" spreadMethod="pad"><stop offset="0" stop-color="#0e4d4b"/><stop offset="1" stop-color="#142d4f"/></linearGradient><linearGradient id="c" x1="-819.2" x2="819.2" gradientTransform="matrix(0 -.0261 .0302 0 23.7 7.2)" gradientUnits="userSpaceOnUse" spreadMethod="pad"><stop offset="0" stop-color="#0e4d4b"/><stop offset="1" stop-color="#142d4f"/></linearGradient><linearGradient id="d" x1="-819.2" x2="819.2" gradientTransform="matrix(0 0 0 0 0 0)" gradientUnits="userSpaceOnUse" spreadMethod="pad"><stop offset="0" stop-color="#350e4d"/><stop offset="1" stop-color="#142d4f"/></linearGradient><g id="a" fill-rule="evenodd"><path fill="url(#b)" d="m16.55 23.1.35.1-.3-.05z" transform="translate(3.1 30.95)"/><path fill="url(#c)" d="m16.9 23.2-.35-.1 1 .1z" transform="translate(3.1 30.95)"/><path fill="url(#d)" d="M23.25-30.95Q33-30.95 42-21.6q7.75 7.95 7.75 19.25 0 3.05-3.6 11.4l-.55.95q-4.35 7.15-9.8 10.95-2.1 1.5-4.25 2.4l-3.35.8h-.35l.95.65q1.1.6 1.9.55l-.15.1-.5.15-1 .1q-1.15 0-2.7-.75-1.5-.75-1.6-.75l-.6.25-.6.5-1-.4-1.05-.45-.2-.05h-.1q-.6.65-2.15 1.1h-.6v-.1q.55 0 1.1-.4l.45-.5-3.5-.55-2.3-.65q-1.2-.35-2.5-1.2L7.55 19.1 4.9 16.85 3.4 15.3l-1.65-1.85Q-3.1 6.6-3.1-2.35q0-11.9 7.45-19.55 8.8-9.05 18.9-9.05m-6.7 54.05.05.05.3.05h.65z" transform="translate(3.1 30.95)"/><path fill="#fff" fill-opacity=".051" d="m41.05 26.8 1.9 2.1.5.65q1.65 2.2 1.7 3.05l.2.6.25 1.5v.15q-.15 1.15-2.1 5.45-2.2 4.65-3.8 6.6-2.75 3.3-5.6 5.2l-1.8.85-1.65.5q3.2-.6 6.95-6.65 3.9-6.3 4-11.65h.05l-.15-3.25-.35-4.35zm-10.3 3.4h.05q-.95-2.55-.85-2.8l2.3 1.2 1.75.95q1.05 1.05 1.05 6.9l-.05 2.6q-.15 3.2-.75 4.05l-1.65 3.25q-1.9 3.2-3.85 3.85.75-.55 1.7-2.35 2.25-4.4 2.25-9.1v-1l-.4-2.7-.85-2.85zm-12.6-14.4q.4.15 2.45 11.75l-.75 4.2-.6 4.2.1 3.45q.55 3.1 2.2 6.45l2.5 4.45q-2.8-2.45-5.05-7.45-1.4-3.15-2.25-9.25l-.15-2.4zM10.1 31.9l.35-1.4q.15-.35 1.4 4.4.4 5.95 4 12.05 3 5.1 5.95 6.8-4.9-1.8-7.9-5.6l-1.05-1.5-1.15-2.25-1.2-3.4-.5-2.9-.05-1.8-.05-1.6z"/><path fill-opacity=".149" d="M38.3 39.8q0 3.3-2.6 6.3l-3.55 3.3q1.45-1.95 3.05-5.5 2.1-4.7 2-8.5l.55 1.6zm-21.25 7.1q-2.35-4.05-2.35-9.1v-.05q.5 3.3 3.75 8.55 3 4.85 4.65 6.2-3.8-1.6-6.05-5.6"/></g></defs></svg>