<?xml version="1.0" encoding="UTF-8" standalone="no"?>
<svg xmlns:ffdec="https://www.free-decompiler.com/flash" xmlns:xlink="http://www.w3.org/1999/xlink" ffdec:objectType="frame" height="32.9px" width="45.75px" xmlns="http://www.w3.org/2000/svg">
  <g transform="matrix(1.0, 0.0, 0.0, 1.0, -2.25, -6.45)">
    <use ffdec:characterId="1" height="32.9" transform="matrix(1.0, 0.0, 0.0, 1.0, 2.25, 6.45)" width="45.75" xlink:href="#shape0"/>
  </g>
  <defs>
    <g id="shape0" transform="matrix(1.0, 0.0, 0.0, 1.0, -2.25, -6.45)">
      <path d="M40.15 28.65 L38.75 27.65 Q35.8 26.05 32.4 25.35 L25.9 24.35 18.9 23.55 Q16.65 23.2 13.2 22.05 9.25 20.75 5.7 17.0 2.25 13.4 2.25 11.05 L2.3 10.85 3.65 11.8 Q6.0 13.4 7.2 14.0 9.6 15.2 11.5 15.65 L18.5 16.65 22.55 16.65 Q28.9 16.3 35.4 12.05 39.9 9.15 41.3 6.45 L41.4 6.7 Q42.25 9.4 42.25 11.8 L41.95 15.8 41.0 19.0 Q40.4 20.75 38.1 23.05 35.8 25.3 39.05 25.7 42.3 26.1 44.2 27.55 46.1 29.0 47.35 30.85 48.55 32.7 47.6 36.05 46.65 39.3 42.7 39.35 L39.8 39.1 Q40.85 38.8 42.1 37.7 43.35 36.55 43.55 35.15 43.75 33.75 43.3 32.3 L43.25 32.15 43.2 32.0 43.2 31.8 Q42.75 27.65 41.3 27.65 41.1 27.65 40.85 27.9 L39.8 27.15 Q38.9 26.7 38.9 27.35 L40.15 28.65" fill="url(#gradient0)" fill-rule="evenodd" stroke="none"/>
      <path d="M43.3 32.3 Q43.45 32.95 43.05 34.2 42.6 35.75 41.5 36.0 L40.2 36.2 41.2 35.5 Q42.0 34.7 41.95 32.7 41.9 30.65 40.4 28.9 L40.15 28.65 38.9 27.35 Q38.9 26.7 39.8 27.15 L40.85 27.9 Q41.1 27.65 41.3 27.65 42.75 27.65 43.2 31.8 L43.2 32.0 43.25 32.15 43.3 32.3" fill="url(#gradient1)" fill-rule="evenodd" stroke="none"/>
      <path d="M41.75 14.45 Q41.25 16.85 38.8 20.3 36.3 23.75 36.0 25.1 L36.0 25.15 36.15 25.2 36.25 25.2 37.25 24.95 37.85 25.45 37.0 25.5 36.7 25.7 36.4 25.7 39.35 26.15 40.0 26.2 Q40.5 26.3 41.45 26.75 L42.9 27.4 Q44.35 28.45 45.05 29.45 45.9 30.6 46.25 31.85 L46.25 31.95 46.55 32.7 46.35 32.5 46.5 33.45 Q46.6 34.6 45.6 35.85 L42.45 37.8 44.0 36.5 44.35 36.15 44.45 36.05 44.9 35.65 Q44.9 35.45 45.25 35.15 L45.2 35.0 45.45 34.7 45.85 32.85 Q45.9 31.95 44.75 30.3 L44.15 29.4 44.5 30.4 Q45.15 32.55 44.65 34.6 L44.65 34.65 43.7 36.1 Q44.05 35.55 44.2 34.4 L44.2 32.4 43.6 30.8 43.15 30.05 43.55 31.15 43.7 32.25 43.6 33.05 43.6 33.1 43.35 34.35 42.65 35.55 42.2 35.9 42.0 35.9 40.75 36.4 41.5 36.0 41.45 36.0 41.1 36.1 Q42.7 35.15 42.9 32.15 L42.7 30.95 42.1 29.55 Q41.55 28.25 40.05 27.55 L39.0 27.1 37.9 26.65 36.3 26.0 35.9 25.85 Q35.65 25.95 35.55 26.25 L34.55 25.95 34.7 25.5 Q34.7 25.0 33.6 24.75 L33.4 24.7 32.8 24.45 Q29.55 23.55 26.15 23.1 L18.75 21.8 Q14.85 21.2 11.4 20.1 7.9 19.2 5.65 16.4 3.7 14.05 2.8 11.2 3.15 11.5 3.65 11.8 6.0 13.4 7.2 14.0 9.6 15.2 11.5 15.65 L18.5 16.65 22.55 16.65 Q28.9 16.3 35.4 12.05 39.9 9.15 41.3 6.45 L41.4 6.7 Q42.25 9.4 42.25 11.8 L41.75 14.45 M47.75 31.65 Q48.35 33.35 47.6 36.05 46.65 39.3 42.7 39.35 L39.8 39.1 40.6 38.8 43.65 38.65 Q44.75 38.55 46.6 37.0 48.4 35.5 47.75 31.65" fill="#b14015" fill-rule="evenodd" stroke="none"/>
    </g>
    <radialGradient cx="0" cy="0" gradientTransform="matrix(0.0419, 0.0, 0.0, 0.0419, 29.1, 19.75)" gradientUnits="userSpaceOnUse" id="gradient0" r="819.2" spreadMethod="pad">
      <stop offset="0.0" stop-color="#b14015"/>
      <stop offset="0.2823529411764706" stop-color="#e57508"/>
      <stop offset="0.7333333333333333" stop-color="#e57508"/>
      <stop offset="1.0" stop-color="#b14015"/>
    </radialGradient>
    <radialGradient cx="0" cy="0" gradientTransform="matrix(0.0419, 0.0, 0.0, 0.0419, 28.2, 19.55)" gradientUnits="userSpaceOnUse" id="gradient1" r="819.2" spreadMethod="pad">
      <stop offset="0.0" stop-color="#b14015"/>
      <stop offset="0.2823529411764706" stop-color="#e57508"/>
      <stop offset="0.7333333333333333" stop-color="#e57508"/>
      <stop offset="1.0" stop-color="#b14015"/>
    </radialGradient>
  </defs>
</svg>
