<?xml version="1.0" encoding="UTF-8" standalone="no"?>
<svg xmlns:ffdec="https://www.free-decompiler.com/flash" xmlns:xlink="http://www.w3.org/1999/xlink" ffdec:objectType="frame" height="49.1px" width="63.5px" xmlns="http://www.w3.org/2000/svg">
  <g transform="matrix(1.0, 0.0, 0.0, 1.0, 2.4, 5.0)">
    <use ffdec:characterId="3" height="49.1" transform="matrix(1.0, 0.0, 0.0, 1.0, -2.4, -5.0)" width="63.5" xlink:href="#shape0"/>
  </g>
  <defs>
    <g id="shape0" transform="matrix(1.0, 0.0, 0.0, 1.0, 2.4, 5.0)">
      <path d="M13.35 -2.55 L13.75 -2.7 Q12.7 -1.55 12.7 1.5 L12.8 2.65 Q13.4 1.0 15.5 -0.8 18.45 -3.3 24.7 -4.75 29.0 -5.15 25.95 -4.75 L28.65 -5.0 Q25.3 -3.8 23.75 -2.25 L22.55 -1.1 24.2 -1.75 Q27.4 -2.9 29.3 -2.9 L34.85 -2.5 43.5 -1.45 42.15 -1.4 40.2 -1.1 37.45 -0.7 39.65 0.0 Q42.6 0.9 44.75 2.55 46.85 4.2 48.05 5.5 L48.4 5.85 50.85 9.25 52.85 12.15 53.8 13.25 54.6 14.1 57.3 16.4 58.95 17.4 59.45 17.6 Q57.1 17.55 54.5 16.4 L56.05 19.3 56.8 20.65 Q58.5 23.0 59.3 23.65 57.55 23.3 55.75 22.25 52.15 20.05 51.65 19.3 L53.65 24.35 Q55.15 28.0 57.5 30.55 L57.5 30.65 56.8 30.55 Q56.05 30.4 53.85 28.65 52.05 27.15 51.65 26.1 L51.65 26.35 51.5 28.8 51.45 29.15 Q51.45 30.4 51.85 31.9 L52.5 33.15 53.05 33.85 53.1 33.9 53.75 34.4 53.8 34.5 52.95 34.35 52.15 34.45 Q50.6 34.45 49.3 33.55 L48.75 36.35 47.85 38.55 47.4 39.3 45.05 42.0 45.0 41.95 44.65 42.4 42.95 43.55 44.2 41.45 Q45.1 39.85 45.8 36.85 46.5 33.8 45.95 33.4 L36.5 27.95 37.45 30.3 38.65 32.95 Q38.55 33.2 39.2 34.1 37.45 31.9 35.3 29.85 33.15 27.8 30.75 24.9 28.3 22.0 27.7 20.75 L29.8 27.0 Q31.75 31.75 32.45 32.2 L32.4 32.25 32.45 32.3 33.2 33.1 Q25.55 28.2 22.4 22.45 L21.3 20.15 20.7 18.45 Q20.15 16.7 19.95 14.9 L19.4 15.6 Q18.4 16.95 17.55 18.5 L16.45 20.65 16.15 21.3 Q15.2 23.5 14.8 25.35 L14.55 27.95 14.5 28.5 14.55 28.8 14.5 28.85 Q14.4 29.45 15.5 32.6 13.85 30.2 13.35 28.6 12.85 26.95 12.6 24.75 12.25 26.45 12.25 27.45 L12.4 30.7 12.45 31.0 Q11.8 30.5 11.4 29.3 11.0 28.35 10.85 26.35 10.8 27.95 11.25 29.5 L11.85 31.7 12.0 31.85 Q12.0 32.15 10.65 30.75 9.3 29.3 9.1 28.6 8.6 30.65 8.8 33.1 8.95 35.5 10.05 38.0 10.75 39.6 11.6 41.0 14.4 42.1 11.65 41.05 8.9 40.0 7.55 37.1 L7.8 38.4 9.4 42.95 9.7 43.5 10.05 44.1 8.8 43.1 6.45 41.05 4.7 39.05 3.7 37.2 Q2.85 35.75 2.25 33.35 1.05 35.35 -1.2 35.35 L-1.5 35.3 -1.55 34.95 Q-1.05 35.45 0.1 34.1 1.2 32.7 1.3 30.35 L1.0 29.05 Q-0.25 30.5 -1.9 30.5 L-2.4 30.35 Q-0.45 29.4 0.0 28.1 L0.4 26.55 0.5 25.55 0.5 24.85 0.45 23.15 Q0.45 21.7 0.95 19.3 L1.5 16.95 2.05 15.4 2.05 15.3 1.2 16.85 0.1 19.1 -0.45 21.4 -0.65 25.2 Q0.1 28.75 -0.85 25.25 L-0.95 24.85 -1.0 24.55 -1.1 24.15 -1.35 23.35 -1.7 21.95 -1.9 19.4 Q-1.85 17.55 -1.35 15.9 L-1.25 15.65 -0.25 13.45 Q0.45 12.2 1.75 10.9 L4.75 8.35 4.95 8.2 Q5.15 7.85 6.5 7.15 8.05 6.35 8.7 6.3 6.85 5.1 4.65 5.3 L1.65 5.75 Q0.85 5.95 0.2 6.4 L-0.4 6.7 2.45 4.35 Q5.25 2.1 8.25 2.8 8.2 2.55 11.05 3.6 L10.85 3.3 Q10.7 3.1 10.7 1.65 10.7 0.2 11.45 -0.95 12.15 -2.1 13.35 -2.55 M0.7 27.5 L0.65 27.65 0.7 27.6 0.7 27.5" fill="url(#gradient0)" fill-rule="evenodd" stroke="none"/>
      <path d="M61.1 24.5 L61.1 24.6 61.05 24.45 61.1 24.5" fill="url(#gradient1)" fill-rule="evenodd" stroke="none"/>
      <path d="M58.6 30.95 L58.15 30.9 58.85 30.95 58.6 30.95" fill="url(#gradient2)" fill-rule="evenodd" stroke="none"/>
      <path d="M52.85 12.15 L53.8 13.25 52.3 13.5 50.05 14.5 Q48.4 15.25 46.95 16.1 L45.8 16.85 43.25 18.05 Q40.35 19.35 35.1 20.2 L30.75 20.55 26.8 20.75 21.4 20.65 20.7 18.45 20.75 18.45 22.4 18.6 25.2 18.8 30.35 18.6 Q33.8 18.25 36.75 17.0 39.7 15.7 42.85 13.35 46.2 10.95 47.65 7.5 L48.4 5.85 50.85 9.25 52.85 12.15 M6.0 12.25 Q8.75 15.7 13.0 17.45 L13.5 17.65 13.65 17.7 15.2 18.15 17.55 18.5 17.25 19.05 16.95 19.65 16.7 20.15 16.65 20.2 15.65 20.2 15.25 20.05 14.8 19.95 11.2 19.4 11.1 19.45 11.15 19.35 10.4 19.2 10.3 19.2 4.8 18.05 1.5 16.95 2.05 15.4 2.05 15.3 1.8 15.8 1.75 15.85 1.2 16.85 0.0 16.35 -1.25 15.65 -0.25 13.45 Q0.45 12.2 1.75 10.9 L4.75 8.35 Q4.75 9.5 5.2 10.6 L5.4 11.1 5.5 11.25 6.0 12.15 6.0 12.25 M13.6 19.4 L13.85 19.45 14.3 19.45 13.8 19.4 13.6 19.4 M14.5 19.35 L14.7 19.45 14.75 19.35 14.5 19.35" fill="#fafffe" fill-opacity="0.49803922" fill-rule="evenodd" stroke="none"/>
      <path d="M13.45 -2.45 L13.4 -2.15 Q12.7 -0.95 12.7 1.5 L12.8 2.65 12.9 2.4 Q13.0 3.95 13.35 5.45 L13.45 5.65 13.8 5.75 Q13.75 2.45 16.95 0.05 L18.4 -0.8 Q16.25 1.25 15.05 4.75 L14.8 5.5 14.75 6.1 15.0 6.2 Q16.25 4.15 19.0 3.9 17.35 5.0 16.05 6.95 L16.7 7.55 17.05 7.7 17.15 7.75 17.1 7.75 17.05 7.7 16.15 7.6 16.4 7.75 15.95 7.7 Q15.75 7.6 13.2 8.65 11.45 9.75 10.6 10.6 L8.05 13.45 8.85 11.8 Q10.75 7.9 14.3 7.15 L14.95 7.25 14.85 7.15 14.8 7.15 14.05 6.7 14.3 7.1 13.95 6.7 Q11.75 5.65 9.4 6.75 L9.55 6.55 9.35 6.55 Q6.65 5.1 4.65 5.3 L1.65 5.75 Q0.85 5.95 0.2 6.4 L-0.4 6.7 Q-0.35 6.6 2.55 4.85 6.3 3.45 7.85 4.45 L10.2 5.95 Q10.35 5.8 10.55 5.75 L10.75 5.75 10.7 5.7 Q10.15 4.45 8.6 3.9 L8.7 3.9 Q11.15 4.2 12.75 5.6 L13.0 5.6 12.25 3.5 Q11.45 1.4 12.5 -0.95 L13.45 -2.45 M29.2 -0.7 Q30.6 -1.7 33.45 -1.85 L36.0 -1.9 41.1 -1.6 43.05 -1.45 42.15 -1.4 40.2 -1.1 38.2 -0.85 37.5 -0.9 30.5 -0.3 Q28.75 0.05 24.75 1.5 L27.8 -0.1 29.2 -0.7 M26.7 -4.8 L28.65 -5.0 28.4 -4.9 25.95 -3.8 Q24.6 -3.1 23.75 -2.25 L22.55 -1.1 23.3 -1.4 Q20.45 -0.05 17.4 3.3 L18.5 1.3 Q20.3 -2.35 22.65 -3.55 24.55 -4.45 26.7 -4.8 M43.65 6.0 Q41.0 4.15 38.35 3.3 L31.1 3.05 30.1 3.15 29.8 3.35 Q26.45 3.9 24.5 6.3 L24.05 6.95 24.35 6.85 Q25.6 4.55 29.0 4.35 26.35 5.85 26.45 6.35 L27.6 6.2 Q31.6 6.05 34.85 7.45 38.15 8.95 40.8 11.55 38.35 9.85 35.0 9.1 31.35 8.55 28.15 9.05 L27.2 9.2 Q29.65 9.45 34.3 12.1 38.9 14.7 41.7 18.25 L43.25 20.15 38.8 16.65 Q35.55 14.3 32.6 12.7 29.65 11.1 29.15 11.0 L31.2 13.25 Q32.8 15.3 34.9 17.25 L41.85 24.2 46.5 29.6 46.5 29.15 44.05 24.75 40.8 20.4 Q43.65 22.7 45.7 25.7 L46.55 27.1 46.45 24.75 Q46.15 20.75 45.1 17.4 L43.55 13.15 44.1 13.9 44.4 14.2 Q46.2 17.7 46.9 21.9 47.55 25.6 47.5 29.85 47.45 34.05 46.8 36.55 L45.5 40.35 Q44.95 41.65 43.2 43.4 L42.95 43.55 44.2 41.45 Q45.1 39.85 45.8 36.85 46.35 34.35 46.1 33.65 L45.95 33.4 36.5 27.95 36.55 28.1 Q35.6 26.45 33.45 24.3 30.9 21.75 29.9 18.15 L29.9 18.05 Q33.45 22.8 38.7 26.9 L44.8 31.75 46.05 32.95 46.2 32.0 46.3 31.25 41.4 26.45 35.7 21.0 Q33.0 18.3 31.15 15.35 L28.0 10.4 Q25.8 9.4 24.2 9.05 L20.6 8.65 21.1 8.35 Q21.05 8.2 21.2 8.3 L21.75 8.0 Q22.45 4.5 25.3 2.5 25.75 2.15 26.9 1.7 29.2 0.9 30.9 1.1 L30.7 1.1 Q28.05 2.1 26.1 4.0 L28.0 2.75 28.5 2.45 29.0 2.45 Q31.6 1.2 35.2 1.5 39.25 1.8 42.0 4.25 L43.65 6.0 M50.8 20.8 L50.95 21.45 Q51.95 25.2 53.95 27.7 55.45 29.6 57.5 30.6 L57.5 30.65 56.8 30.55 Q56.05 30.4 53.85 28.65 52.05 27.15 51.65 26.1 L51.65 26.25 Q50.8 23.85 50.8 20.8 M46.25 9.0 Q48.45 10.35 49.8 11.45 L53.5 14.5 55.6 16.05 59.3 17.6 58.5 17.55 58.4 17.5 Q56.55 17.3 54.6 16.4 L53.5 15.6 46.25 9.0 M52.2 20.5 L50.85 18.15 Q49.65 15.95 47.7 13.5 L43.95 9.2 Q42.15 7.35 47.4 12.4 L54.75 19.75 Q56.8 22.05 58.7 23.1 L59.3 23.65 Q57.55 23.3 55.75 22.25 52.15 20.05 51.65 19.3 L52.2 20.5 M51.75 31.4 Q50.25 31.4 49.75 27.25 L48.0 16.6 Q50.45 23.85 50.55 26.3 50.65 28.75 51.5 29.65 L51.75 31.4 M52.15 34.45 Q50.6 34.45 49.3 33.55 L48.95 35.75 48.6 29.15 Q48.25 26.05 48.5 23.0 48.7 27.25 49.9 31.2 50.6 33.35 52.55 34.45 L52.15 34.45 M21.1 12.3 Q21.1 15.9 22.0 19.2 23.0 22.85 25.35 26.45 L25.75 27.0 Q23.7 24.8 22.4 22.45 20.45 18.85 19.95 14.9 L19.4 15.6 19.15 15.95 17.55 18.5 16.95 19.65 16.45 20.65 16.15 21.3 Q15.2 23.5 14.8 25.35 L14.55 27.95 14.5 28.5 14.55 28.8 14.5 28.85 Q14.4 29.45 15.5 32.6 L15.2 32.15 Q14.25 30.4 13.85 27.95 13.25 24.2 14.45 20.2 L14.6 19.75 15.2 18.15 Q16.35 15.55 18.15 13.65 19.65 12.1 21.6 11.45 L21.1 12.3 M29.3 22.0 L34.0 27.3 38.25 32.7 38.9 33.75 35.3 29.85 Q33.15 27.8 30.75 24.9 L29.15 22.95 28.2 21.6 27.7 20.75 29.05 24.7 29.8 27.0 31.45 30.65 Q29.35 28.65 27.65 25.25 25.7 21.35 25.25 17.35 L24.7 12.25 27.0 18.9 29.3 22.0 M8.0 9.45 L5.5 11.25 4.25 12.3 Q2.5 13.85 1.75 15.85 L1.2 16.85 0.1 19.1 -0.45 21.4 -0.65 25.15 -0.35 26.9 Q-0.3 27.1 -0.4 26.9 L-0.85 25.25 -0.95 24.85 -1.0 24.55 -1.1 24.15 -1.15 23.95 Q-1.35 21.85 -1.0 19.7 -0.7 17.95 0.0 16.35 0.8 14.5 2.1 12.9 L3.5 11.55 5.2 10.6 Q6.55 9.9 8.0 9.45 M2.1 20.3 Q2.35 24.05 1.85 27.55 L1.85 27.75 2.8 24.8 Q2.55 28.2 1.3 31.0 L1.2 31.25 1.3 30.35 1.15 29.75 1.1 29.65 1.0 29.05 Q-0.25 30.5 -1.9 30.5 L-2.4 30.35 -2.3 30.35 -0.6 29.8 0.95 27.95 Q1.85 26.5 1.85 23.45 1.85 20.4 2.1 20.3 M6.2 18.1 Q5.0 22.3 4.15 27.25 3.6 30.5 3.65 33.8 3.7 35.9 4.05 37.9 4.25 38.35 3.9 37.75 L3.0 35.6 2.55 33.9 2.55 32.8 2.3 33.4 2.25 33.35 1.8 34.0 Q0.65 35.35 -1.2 35.35 L-1.5 35.3 -1.5 35.05 -1.55 34.95 -1.45 35.05 -0.3 34.9 Q2.25 33.2 2.75 30.35 L2.85 29.9 Q3.05 26.95 3.4 24.05 3.65 21.75 4.3 19.5 3.5 22.7 3.4 26.35 L3.5 25.75 3.55 26.5 Q4.1 23.4 4.85 21.35 L6.2 18.1 M13.65 17.35 L14.0 16.6 13.65 17.7 13.2 19.2 Q12.65 21.4 12.55 23.95 L12.55 25.1 Q12.25 26.5 12.25 27.45 L12.4 30.7 12.45 31.0 12.3 30.9 Q11.4 28.25 11.65 24.75 11.9 21.7 12.9 19.1 L13.5 17.65 13.65 17.35 M10.8 24.45 Q10.7 26.0 10.9 27.35 L11.25 29.5 11.85 31.7 12.0 31.85 Q12.0 32.15 10.65 30.75 L11.45 31.5 Q9.7 28.8 9.55 26.7 9.25 22.5 11.1 18.7 L11.9 17.3 11.6 18.75 Q11.05 21.35 10.8 24.45 M5.3 25.05 L5.3 25.55 Q4.65 29.4 5.1 32.1 L5.8 35.4 5.75 34.85 Q5.45 32.45 5.9 30.05 5.95 33.75 7.65 37.65 L7.8 38.4 9.4 42.95 9.7 43.5 9.8 43.65 Q8.25 42.25 7.05 39.8 L7.0 39.8 6.1 37.0 5.1 34.7 Q3.85 31.1 4.9 27.35 L5.3 25.05 M9.1 28.6 L8.9 29.45 Q8.65 31.15 8.8 33.1 8.95 35.5 10.05 38.0 10.75 39.6 11.6 41.0 10.45 40.15 9.2 38.15 7.95 36.1 7.5 33.25 7.0 30.35 7.7 25.15 L8.3 22.65 Q8.2 27.2 9.6 29.5 L9.1 28.6" fill="#70b2cc" fill-rule="evenodd" stroke="none"/>
    </g>
    <radialGradient cx="0" cy="0" gradientTransform="matrix(0.0419, 0.0, 0.0, 0.0419, 28.5, 19.55)" gradientUnits="userSpaceOnUse" id="gradient0" r="819.2" spreadMethod="pad">
      <stop offset="0.22745098039215686" stop-color="#75cbec"/>
      <stop offset="1.0" stop-color="#c4ebec"/>
    </radialGradient>
    <radialGradient cx="0" cy="0" gradientTransform="matrix(2.0E-4, 0.0, 0.0, 2.0E-4, 61.05, 24.55)" gradientUnits="userSpaceOnUse" id="gradient1" r="819.2" spreadMethod="pad">
      <stop offset="0.22745098039215686" stop-color="#75cbec"/>
      <stop offset="1.0" stop-color="#c4ebec"/>
    </radialGradient>
    <radialGradient cx="0" cy="0" gradientTransform="matrix(5.0E-4, 0.0, 0.0, 5.0E-4, 58.5, 30.95)" gradientUnits="userSpaceOnUse" id="gradient2" r="819.2" spreadMethod="pad">
      <stop offset="0.22745098039215686" stop-color="#75cbec"/>
      <stop offset="1.0" stop-color="#c4ebec"/>
    </radialGradient>
  </defs>
</svg>
