<svg xmlns="http://www.w3.org/2000/svg" xmlns:ffdec="https://www.free-decompiler.com/flash" xmlns:xlink="http://www.w3.org/1999/xlink" ffdec:objectType="frame" width="125.3" height="87.55"><use ffdec:characterId="1" xlink:href="#a" width="125.3" height="87.55"/><defs><radialGradient id="b" cx="0" cy="0" r="819.2" gradientTransform="translate(22.4 27.55)scale(.0789)" gradientUnits="userSpaceOnUse" spreadMethod="pad"><stop offset="0" stop-color="#cdc87a"/><stop offset=".557" stop-color="#fffec4"/></radialGradient><radialGradient id="c" cx="0" cy="0" r="819.2" gradientTransform="translate(22.4 27.4)scale(.0728)" gradientUnits="userSpaceOnUse" spreadMethod="pad"><stop offset="0" stop-color="#bba457"/><stop offset="1" stop-color="#ded388"/></radialGradient><radialGradient id="d" cx="0" cy="0" r="819.2" gradientTransform="translate(65.7 34.05)scale(.027)" gradientUnits="userSpaceOnUse" spreadMethod="pad"><stop offset="0" stop-color="#bba457"/><stop offset="1" stop-color="#ded388"/></radialGradient><radialGradient id="e" cx="0" cy="0" r="819.2" gradientTransform="translate(-20.9 34.3)scale(.027)" gradientUnits="userSpaceOnUse" spreadMethod="pad"><stop offset="0" stop-color="#bba457"/><stop offset="1" stop-color="#ded388"/></radialGradient><g id="a" fill-rule="evenodd"><path fill="url(#b)" d="M10.35-14q6.05-2.55 11.25-2 4.4-.3 10.5 1.75 3.2 1.1 4.9 2.25 1.55.2 2.9 1.25 3.4 2.7 3.4 10 0 2.25-.8 5.85-.6 2.95-.75 4.9 1.7 2.75 4.35 5 2.05 1.75 4.9 3.4l3.55 1.8.3.15q3 1.4 5.45 2.85 5.05 2.95 7.8 5.9 6.2 1.95 10.4 4.15 6.55 3.35 6.55 8.5-.1 1.25-1 2.45-1.8 2.4-6 2.4-1.5 0-3.05-.9l-.55-.3q-1.5-.5 1.3.1l.75.05q3.6-.25 4.75-1.75 1.2-1.55 1.2-3.05 0-3.4-6.4-6.7L70 31.5q2.3 3.65 2.3 9.25l-.4 2.2q1.25 4 1.25 8.8l-.9 5.15q-1.95 6.35-8.1 9.45l3.15-3q1.75-2.2 2-4.7.3-2.5-1.8-7.6l-1.5 1.3q.45 2 .25 5.1-.2 3.3-.65 4.4l-.7 1.85-.9 1.5-1.05 1.25-.55.6q-2.3 2.5-6.75 3.4-4.45.85-2.4.25 2.05-.65 4.75-2.3t3.5-4.8q.6-2.2.6-5.55 0-1.9-.35-3.75l-2.5.45q0 2-.8 3.35-1.2 1.7-3.35 1.85 2.05-.95 2.45-2 .4-.95.15-3.1h-.3q-3.3 0-6.4-1.95l-1.85-1.35-.95-.8.1-.1 2.15 1.55.55.3q2.55 1.25 6.4 1.25l-.45-2.1q-.55-2-5.95-8.75l-.7-.85q-6.05-7.5-14.25-10.35-8.25-2.9-10.5-7.65-2.3-4.75-3.1-7.9-.85 3.2-3.4 7.55-2.6 4.3-9.8 7.05Q2 33.5-4 40.45q-6.05 6.9-7.35 10.25L-12.6 54q4.25 0 6.95-1.55l2.15-1.55.1.1-.95.8q-3.95 3.3-8.25 3.3h-.3q-.25 2.15.15 3.1.4 1.05 2.45 2-2.15-.15-3.35-1.85-.8-1.35-.8-3.35l-2.5-.45q-.35 1.85-.35 3.75 0 3.35.6 5.55.8 3.15 3.5 4.8t4.75 2.3q2.05.6-2.4-.25-4.45-.9-6.75-3.4l-.55-.6-1.05-1.25-.9-1.5-.7-1.85q-.45-1.1-.65-4.4-.2-3.1.25-5.1l-1.5-1.3q-2.1 5.1-1.8 7.6.25 2.5 3 6.3h-.05q-3.95-1.7-6.3-8.25l-.5-4.95q0-4.8 1.25-8.8l-.4-2.2q0-5.6 2.3-9.25l-6.05 2.55q-6.4 3.3-6.4 6.7 0 1.5 1.2 3.05 1.15 1.5 4.75 1.75l.75-.05q2.8-.6 1.3-.1-.25.1-.55.3-1.55.9-3.05.9-4.2 0-6-2.4-.9-1.2-1-2.45 0-5.15 6.55-8.5 4.2-2.2 10.4-4.15 3.05-3.3 9-6.55l4.55-2.35 1.6-.75q4.1-2.15 6.85-4.45 2.65-2.25 4.35-5l-.75-4.9q-.8-3.6-.8-5.85 0-7.3 3.4-10l.2-.15q0-1.1 5.25-3.35m45.1 49.85q3.3 3.55 6.8 8.55 2.6 4.55 3.4 6.8L67 50q-2.4-4.75-11.55-14.15m-6.3-.35.15.15 1.7 1.5q2.7 2.8 5 7.6 2.95 6.2 3.2 8.9l2.35-.4q-.75-3.35-2.5-6.65-2.9-5.35-8.05-9.65zM56 26.1l1.45.85 2.85 1.8q5.2 3.5 7.95 7.1 1.9 2.45 3.05 5.4v-.45q0-5.8-3.35-10.15l-4.55-1.9-2.9-1.1-.65-.2-2.2-.7zM43.8 14.55l-1.9-1.95q.7 4.25 4.75 7.55l4.2 2.8.15.1 4.25 1.75 5.3 2.1.2.1q2.75.65 5.15 1.4-1.95-1.8-5.5-3.95l-5.35-3-.05-.05-4-2.1q-5.1-2.85-7.2-4.75M1 14.8q-2.55 2.25-9.45 5.95l-1.75.9-3.75 2.05q-4.8 2.75-7.15 4.95l5.15-1.4 3.1-1.25 4.35-1.75 2.45-1.05 4.2-2.8q4.05-3.3 4.75-7.55zm-27.5 26.7q1.15-2.95 3.05-5.4 3.45-4.55 10.8-8.9l.35-.2 1.1-.65-1.2.5-.45.15-2.2.7-3.55 1.3-4.55 1.9q-3.35 4.35-3.35 10.15zm22.15-5.75q-6.5 4.85-9.9 11.1-1.75 3.3-2.5 6.65l2.35.4q.25-2.7 3.2-8.9 3-6.3 6.7-9.1zm-5.85-.15q-9.55 9.8-12 14.65l1.35 1.2q.8-2.25 3.4-6.8 3.75-5.35 7.25-9.05" transform="translate(40.25 16.35)"/><path fill="#fff" d="M95.1 36.7q3 1.4 5.45 2.85h-.1l.2 1.25-5.35-3zm.55 14.85q-1.75-1.7-4.4-2.6 2-1.15 3.35-3.3l3.95 1.85.85.5q-1.25 2.1-3.75 3.55m3.15-7 1.65 1.05-.75 1.85-.85-.45-2.7-1.4-1.25-.55.15-.3.3-1.9 1.15.55zm1.95-.55-.65-.2-2.2-.7-1.65-.65.35.2-1.15-.45.05-1.05 5.3 2.1zM31.8 37.1l-1.75.9-3.75 2.05-.35-.9 4.55-2.35 1.6-.75zm-1.65 9.05.35-.2 2.4-1.25.55-.3.35.6.05.15q1.45 1.5 3.4 2.2-2.7.15-4.6 1.4zm1.15-3.35.95-.3.2.45v.2l.65.7-.55.35-2.5 1.1-.45.25-.35-.4.1-.05-.9-.95-.15-.2zm.75-1q-.6.2-1.3.55-.2 0-1.7.55l-1.05.5-.05-.05 1.1-.65-1.2.5-.45-.85 4.35-1.75z"/><path fill="url(#c)" d="m4.9-10.5.2-.15q0-1.1 5.25-3.35 5.75-2.4 10.75-2.05v-.2h2.1q5.2-.55 11.25 2Q39.7-12 39.7-10.9l.2.15q1.35 1.1 2.15 2.9-1.5 4.7-2.4 9.8l-.5 3.65.65 1.55q1.05 2.1 2.3 3.55l.6.7q1.45 1.95 3.4 3.6l1.95 1.5.85.6 3.6 2.1 2.05 1.3 4.95 3 4.15 2.5 3.65 2.8h-.1l-1.45-.55q-3.3-3-10.75-6.85-3.45-1.75-5.95-3.25l-1.1-.65q-2.75-1.7-4.15-2.95l-1.9-1.95.05.3-2.15-2.6-.9-1.15-.05 1.7V13l.55 1.7q1.3 3.55 4.15 6.3 2.65 2.65 6.05 4.25l6.9 3.3q3.55 1.5 6.1 4.5l2.8 3.7Q63.15 34 60.65 32.2T56 29.4l-5.5-2.5q-3.35-1.5-5.2-2.85-1.8-1.35-1.8-1.25l2.25 2.85q2.2 2.8 9.2 7.2 7 4.35 10.85 8.95t5.05 8.2.8 7.1q-.15 1.6-.65 3.1.35-1.65.25-3.5-.2-4-1.8-7.75L67.7 45.7l1.3 3.4q1.05 3.3 1.4 6.55.4 3.25-.55 5.35l-.9 2.15q-1.2 1.2-2.6 1.8h-.05q1.7-2.3 2.4-4.15.5-1.2.6-2.15.3-2.5-1.8-7.6l-.3.3-1.2 1q.45 2 .25 5.1-.2 3.3-.65 4.4l-.7 1.85-.9 1.5-1.05 1.25-.55.6q-2.25 2.45-6.5 3.35l-.25.05-.45.05-1.55.3-1 .15v-.05l.6-.2.65-.25q1.85-.65 4.1-2.05 2.2-1.35 3.15-3.7l.75-1.25 1.9-4.4q.9-2.8.15-6.05-.8-3.35-2.55-6.2-2-3.25-4.2-6-2.65-3.35-6.05-6.4-3.5-3.1-7.45-5.7l.5.45q2.65 2.35 6 4.95 3.15 2.4 5.45 5.25 2.2 2.6 4.05 5.55 1.9 3.1 2.95 6.5 1.1 3.5.4 7.45-.4 2.35-1.4 4.2l.4-4.05.05-.95q0-1.9-.35-3.75l-2.5.45q0 2-.8 3.35-1.2 1.7-3.35 1.85 2.05-.95 2.45-2l.1-.25.65-2.9H58l-.4.05h-.2l-1.95-.15q-2.95-.55-5.75-2.7l2.1 1.15q1.35.7 3.45.95h.3l2.8.05-.05-.5q-.2-1.65-.75-3.1l-.95-2.1h-.05l-.55-.9.15.2q-3.75-6.75-7.3-10-3.5-3.25-8.05-6.4-4.5-3.2-9.85-5.35-2.6-1.1-4.35-2.75-2.05-2.1-3.05-4.15l-.1-.1-.05-.1-.15-.4-.2-.4V18l-.15-.3-.4-1.35-.05-.2-.55 1.8-.15.3v.1l-.2.4-.15.4-.05.1-.05.05-.05.05q-1 2.05-3.05 4.15-1.75 1.65-4.35 2.75Q8.5 28.4 4 31.6-.55 34.75-4.05 38q-3.55 3.25-7.3 10l.15-.2-.55.9h-.05l-.95 2.1q-.55 1.45-.75 3.1l-.05.5 2.8-.05h.3q2.1-.25 3.45-.95 1-.4 2.1-1.15-2.8 2.15-5.75 2.7l-1.95.15h-.3l.05 2.85q-.2-.4.1.25.4 1.05 2.45 2-2.15-.15-3.35-1.85-.8-1.35-.8-3.35l-2.5-.45q-.35 1.85-.35 3.75l.05.95.4 4.05q-1-1.85-1.4-4.2-.7-3.95.4-7.45 1.05-3.4 2.95-6.5 1.85-2.95 4.05-5.55 2.3-2.85 5.45-5.25 3.35-2.6 6-4.95l.5-.45q-3.95 2.6-7.45 5.7-3.4 3.05-6.05 6.4-2.2 2.75-4.2 6-1.75 2.85-2.55 6.2-.75 3.25.15 6.05l1.9 4.4.75 1.25q.95 2.35 3.15 3.7 2.25 1.4 4.1 2.05l.65.25.6.2v.05l-1-.15-1.55-.3-.45-.05-.25-.05q-4.25-.9-6.5-3.35l-.55-.6-1.05-1.25-.9-1.5-.7-1.85q-.45-1.1-.65-4.4-.2-3.1.25-5.1l-1.2-1-.3-.3q-2.1 5.1-1.8 7.6l.6 2.15q.7 1.85 2.4 4.15h-.05q-1.4-.6-2.6-1.8l-.9-2.15q-.95-2.1-.55-5.35.35-3.25 1.4-6.55l1.3-3.4-1.75 3.25q-1.6 3.75-1.8 7.75-.1 1.85.25 3.5l-.65-3.1q-.4-3.5.8-7.1t5.05-8.2 10.85-8.95q7-4.4 9.2-7.2l2.25-2.85-1.8 1.25-5.2 2.85-5.5 2.5q-2.15 1-4.65 2.8T-20.6 37l2.8-3.7q2.55-3 6.1-4.5 3.8-1.7 6.9-3.3 3.4-1.6 6.05-4.25 2.85-2.75 4.15-6.3l.55-1.7V11.1L5.9 9.4 5 10.55l-2.15 2.6.05-.3L1 14.8q-1.4 1.25-4.15 2.95l-1.1.65-5.95 3.25q-7.45 3.85-10.75 6.85l-1.45.55h-.1l3.65-2.8 4.15-2.5q2.55-1.7 4.95-3l2.05-1.3q1.95-1.05 3.6-2.1l.85-.6 1.95-1.5q1.95-1.65 3.4-3.6l.6-.7Q3.95 9.5 5 7.4l.65-1.55-.5-3.65q-.9-5.1-2.4-9.8.8-1.8 2.15-2.9m50.55 46.35q3.3 3.55 6.8 8.55 2.6 4.55 3.4 6.8l1.3-1.15L67 50l-.05-.15q-2.5-4.75-11.5-14m-6.3-.35.15.15q3.7 2.8 6.7 9.1l.9 1.9q2.1 4.75 2.3 7h.15l-.1.25 2.5-.35-.4-.25.2-.05q-.75-3.35-2.5-6.65l-1.7-2.7q-3.15-4.65-8.2-8.4m-53.5.25q-5.05 3.75-8.2 8.4l-1.7 2.7q-1.75 3.3-2.5 6.65l.2.05 2 .35h.15q.2-2.25 2.3-7l.9-1.9q3-6.3 6.7-9.1zm-5.85-.15q-9.4 9.65-11.95 14.5l-.05.15.05.05 1.3 1.15q.8-2.25 3.4-6.8 3.75-5.35 7.25-9.05" transform="translate(40.25 16.35)"/><path fill="url(#d)" d="M81.25 43.8q1.2-1.55 1.2-3.05 0-3.4-6.4-6.7L70 31.5q2.3 3.65 2.3 9.25l-.4 2.2.05.3-.75-2.1v-.1l.1.2v-.45q0-5.8-3.35-10.15l-4.55-1.9-3.55-1.3-2.2-.7-1.4-.5.7.4-2-.7q-2.5-.75-7.2-3.9l5.65 2.65 2.8 1.1 2.95.95 3.8 1.25L67 29.5l3.85 1.4 3.9 1.55q2.05.75 4 2 2.1 1.25 3.3 2.9 1.4 1.9 1.6 3.9.2 2.15-1.95 3.5-1.95 1.1-3.9 1.25-1.95 0-3.65-.8l1.6.3.75.05q3.6-.25 4.75-1.75" transform="translate(40.25 16.35)"/><path fill="url(#e)" d="m-26.05 31.15 3.85-1.4 4.05-1.5q2.15-.8 3.8-1.25l2.95-.95 2.8-1.1 5.65-2.65q-4.7 3.15-7.2 3.9l-2 .7.95-.55-1.65.65-2.2.7-3.55 1.3-4.55 1.9q-3.35 4.35-3.35 10.15v.45l.1-.2v.1l-.75 2.1.05-.3-.4-2.2q0-5.6 2.3-9.25l-6.05 2.55q-6.4 3.3-6.4 6.7 0 1.5 1.2 3.05 1.15 1.5 4.75 1.75l.75-.05 1.6-.3q-1.7.8-3.65.8-1.95-.15-3.9-1.25-2.15-1.35-1.95-3.5.2-2 1.6-3.9 1.2-1.65 3.3-2.9 1.95-1.25 4-2z" transform="translate(40.25 16.35)"/></g></defs></svg>