<?xml version="1.0" encoding="UTF-8" standalone="no"?>
<svg xmlns:ffdec="https://www.free-decompiler.com/flash" xmlns:xlink="http://www.w3.org/1999/xlink" ffdec:objectType="frame" height="56.65px" width="52.85px" xmlns="http://www.w3.org/2000/svg">
  <g transform="matrix(1.0, 0.0, 0.0, 1.0, 3.1, 30.95)">
    <use ffdec:characterId="1" height="56.65" transform="matrix(1.0, 0.0, 0.0, 1.0, -3.1, -30.95)" width="52.85" xlink:href="#shape0"/>
  </g>
  <defs>
    <g id="shape0" transform="matrix(1.0, 0.0, 0.0, 1.0, 3.1, 30.95)">
      <path d="M16.55 23.1 L16.9 23.2 16.6 23.15 16.55 23.1" fill="url(#gradient0)" fill-rule="evenodd" stroke="none"/>
      <path d="M16.9 23.2 L16.55 23.1 17.55 23.2 16.9 23.2" fill="url(#gradient1)" fill-rule="evenodd" stroke="none"/>
      <path d="M23.25 -30.95 Q33.0 -30.95 42.0 -21.6 49.75 -13.65 49.75 -2.35 49.75 0.7 46.15 9.05 L45.6 10.0 Q41.25 17.15 35.8 20.95 33.7 22.45 31.55 23.35 L28.2 24.15 27.85 24.15 28.8 24.8 Q29.9 25.4 30.7 25.35 L30.55 25.45 30.05 25.6 29.05 25.7 Q27.9 25.7 26.35 24.95 24.85 24.2 24.75 24.2 L24.15 24.45 23.55 24.95 22.55 24.55 21.5 24.1 21.3 24.05 21.2 24.05 Q20.6 24.7 19.05 25.15 L18.45 25.15 18.45 25.05 Q19.0 25.05 19.55 24.65 L20.0 24.15 16.5 23.6 14.2 22.95 Q13.0 22.6 11.7 21.75 L7.55 19.1 4.9 16.85 3.4 15.3 1.75 13.45 Q-3.1 6.6 -3.1 -2.35 -3.1 -14.25 4.35 -21.9 13.15 -30.95 23.25 -30.95 M16.55 23.1 L16.6 23.15 16.9 23.2 17.55 23.2 16.55 23.1" fill="url(#gradient2)" fill-rule="evenodd" stroke="none"/>
      <path d="M37.95 -4.15 L39.85 -2.05 40.35 -1.4 Q42.0 0.8 42.05 1.65 L42.25 2.25 42.5 3.75 42.5 3.9 Q42.35 5.05 40.4 9.35 38.2 14.0 36.6 15.95 33.85 19.25 31.0 21.15 L29.2 22.0 27.55 22.5 Q30.75 21.9 34.5 15.85 38.4 9.55 38.5 4.2 L38.55 4.2 38.4 0.95 38.05 -3.4 37.95 -4.15 M27.65 -0.75 L27.7 -0.75 Q26.75 -3.3 26.85 -3.55 L29.15 -2.35 30.9 -1.4 Q31.95 -0.35 31.95 5.5 L31.9 8.1 Q31.75 11.3 31.15 12.15 L29.5 15.4 Q27.6 18.6 25.65 19.25 26.4 18.7 27.35 16.9 29.6 12.5 29.6 7.8 L29.6 6.8 29.2 4.1 28.35 1.25 27.65 -0.75 M15.05 -15.15 Q15.45 -15.0 17.5 -3.4 L16.75 0.8 16.15 5.0 16.25 8.45 Q16.8 11.55 18.45 14.9 L20.95 19.35 Q18.15 16.9 15.9 11.9 14.5 8.75 13.65 2.65 L13.5 0.25 15.05 -15.15 M7.0 0.95 L7.35 -0.45 Q7.5 -0.8 8.75 3.95 9.15 9.9 12.75 16.0 15.75 21.1 18.7 22.8 13.8 21.0 10.8 17.2 L9.75 15.7 8.6 13.45 7.4 10.05 6.9 7.15 6.85 5.35 6.8 3.75 7.0 0.95" fill="#ffffff" fill-opacity="0.050980393" fill-rule="evenodd" stroke="none"/>
      <path d="M35.2 8.85 Q35.2 12.15 32.6 15.15 L29.05 18.45 Q30.5 16.5 32.1 12.95 34.2 8.25 34.1 4.45 L34.65 6.05 35.2 8.85 M13.95 15.95 Q11.6 11.9 11.6 6.85 L11.6 6.8 Q12.1 10.1 15.35 15.35 18.35 20.2 20.0 21.55 16.2 19.95 13.95 15.95" fill="#000000" fill-opacity="0.14901961" fill-rule="evenodd" stroke="none"/>
    </g>
    <linearGradient gradientTransform="matrix(0.0, -0.0412, 0.0356, 0.0, 23.3, -1.75)" gradientUnits="userSpaceOnUse" id="gradient0" spreadMethod="pad" x1="-819.2" x2="819.2">
      <stop offset="0.0" stop-color="#0e4d4b"/>
      <stop offset="1.0" stop-color="#142d4f"/>
    </linearGradient>
    <linearGradient gradientTransform="matrix(0.0, -0.0261, 0.0302, 0.0, 23.7, 7.2)" gradientUnits="userSpaceOnUse" id="gradient1" spreadMethod="pad" x1="-819.2" x2="819.2">
      <stop offset="0.0" stop-color="#0e4d4b"/>
      <stop offset="1.0" stop-color="#142d4f"/>
    </linearGradient>
    <linearGradient gradientTransform="matrix(0.0, 0.0, 0.0, 0.0, 0.0, 0.0)" gradientUnits="userSpaceOnUse" id="gradient2" spreadMethod="pad" x1="-819.2" x2="819.2">
      <stop offset="0.0" stop-color="#0e4d13"/>
      <stop offset="1.0" stop-color="#142d4f"/>
    </linearGradient>
  </defs>
</svg>
