<svg xmlns="http://www.w3.org/2000/svg" xmlns:ffdec="https://www.free-decompiler.com/flash" xmlns:xlink="http://www.w3.org/1999/xlink" ffdec:objectType="frame" width="47.85" height="35.8"><use ffdec:characterId="1" xlink:href="#a" width="47.85" height="35.8"/><defs><g id="a" fill-rule="evenodd"><path fill="#ccbc8e" d="M44.95 8.15 47 12.7q1 3.15.8 7.85-.3-1.45-1.75-3.85.1 3.6-.65 5.85.35 1.75 1.9 4.1-1.45-.25-2.8-2.05-.45 2.85-2.3 4.75.05-3.4-.35-4.4L39.95 22q1.05 3.75.2 5.95-.75 2-3.9 4.55l.55-2.55q.2-1.35-.95-5.25.25 1.55-.1 2.9l-1.35 2.85q-.5 1.8-1.5 3.6l.3-1.95-2.3 1.85.25-1.95q.1-2.45-.6-4.8l-.6 2.25q-.6 2-2.55 3.5-1.55 1.15-4.3 2.25-1.6-.6-2.85-1.45.5 1.25 1.3 2.05l-2.9-2.35-2.05-2.35q-.55-.65-1.15-2.35l-.5-1.6q-.8 2.05-.1 4.7l.8 2.2q-1.45-.8-3.25-3.65l.35 2.1q-1.35-1.45-2.1-5.35-.65-3.15-.45-4.5-1.6 3.8-.7 7.2.6 2.35 1.45 3-5.2-3.45-6.1-7.7-.35-1.7.3-5.7-1 3.55-.9 6.2.1 1.8.8 3.9-1.1-1.15-1.7-2.3l-.85-2-.45 1.2-.85 1.2q.45-2.9-.45-5.75-1.5-4.7.05-10.7Q3.1 2.3 3.25 0h40.3q.4 4.8 1.4 8.15"/><path fill="#afa172" fill-opacity=".8" d="m42.25 13.55-1.6 1.1-1.95.55q2.05 1.9 2.65 3.55l.7 2.75q.3.85-.05 3.9l-2.85-5.1-3.1-5.1-2.45.1.8 1.35 1.45 2.25q1.55 2.7 1.75 4.45.3-1.6.2-3.35l.95 2.1q.85 2.6.35 5.35-.2-2-.8-3L38.05 27q-.5 2.85-1.55 4.55.55-1.85-.4-6.05-.25 3.1-1.65 4.8-.3 1.55-1.45 3.55l.15-1.8q-.45.9-2.25 1.9l.2-1.8q0-3.25-.5-4.8-.1-.3-.2.3l-.2 1.1-.75 2q-.65 1.3-2.15 2.25-2.5 1.65-4.15 2.2l-3-1.45 1.25 2q-1.55-1-3.05-3.5-2.15-3.45-2.7-8.1-1.6 4.65-1.1 7.65l.6 1.75q-3.05-3.7-3.95-8.85l-.3-4.7q-2.55 6.25-1.55 10.1.4 1.45 1.1 2.15-4.3-3.85-3.25-11.6.5-3.35 1.6-6.15l-4.95-.6-3.3-.4q.25-2.8 1.3-6.4Q3 3.25 3.35 0h40.2q.4 5.45 2.4 12.9.85 6.75-3.3 16.15 1.2-5.95 1.4-8.4.3-4.05-1.8-7.1M4.3 15.15q-.3 1.3-.2 3.35.95-1.6 2-2.4l-1 3.35q-1 3.6-1 4.7-.5-2.15-.8-5.45l-.35.7-.3 1.5q-.2-1 0-2.3.35-2.65 2.05-4.3z"/></g></defs></svg>