<?xml version="1.0" encoding="UTF-8" standalone="no"?>
<svg xmlns:ffdec="https://www.free-decompiler.com/flash" xmlns:xlink="http://www.w3.org/1999/xlink" ffdec:objectType="frame" height="35.8px" width="47.85px" xmlns="http://www.w3.org/2000/svg">
  <g transform="matrix(1.0, 0.0, 0.0, 1.0, 0.9, 0.0)">
    <use ffdec:characterId="1" height="35.8" transform="matrix(1.0, 0.0, 0.0, 1.0, -0.9, 0.0)" width="47.85" xlink:href="#shape0"/>
  </g>
  <defs>
    <g id="shape0" transform="matrix(1.0, 0.0, 0.0, 1.0, 0.9, 0.0)">
      <path d="M44.5 22.55 Q44.85 24.3 46.4 26.65 44.95 26.4 43.6 24.6 43.15 27.45 41.3 29.35 41.35 25.95 40.95 24.95 L39.05 22.0 Q40.1 25.75 39.25 27.95 38.5 29.95 35.35 32.5 L35.9 29.95 Q36.1 28.6 34.95 24.7 35.2 26.25 34.85 27.6 L33.5 30.45 Q33.0 32.25 32.0 34.05 L32.3 32.1 30.0 33.95 30.25 32.0 Q30.35 29.55 29.65 27.2 L29.05 29.45 Q28.45 31.45 26.5 32.95 24.95 34.1 22.2 35.2 20.6 34.6 19.35 33.75 19.85 35.0 20.65 35.8 L17.75 33.45 15.7 31.1 Q15.15 30.45 14.55 28.75 L14.05 27.15 Q13.25 29.2 13.95 31.85 L14.75 34.05 Q13.3 33.25 11.5 30.4 L11.85 32.5 Q10.5 31.05 9.75 27.15 9.1 24.0 9.3 22.65 7.7 26.45 8.6 29.85 9.2 32.2 10.05 32.85 4.85 29.4 3.95 25.15 3.6 23.45 4.25 19.45 3.25 23.0 3.35 25.65 3.45 27.45 4.15 29.55 3.05 28.4 2.45 27.25 L1.6 25.25 1.15 26.45 0.3 27.65 Q0.75 24.75 -0.15 21.9 -1.65 17.2 -0.1 11.2 2.2 2.3 2.35 0.0 L42.65 0.0 Q43.05 4.8 44.05 8.15 L46.1 12.7 Q47.1 15.85 46.9 20.55 46.6 19.1 45.15 16.7 45.25 20.3 44.5 22.55" fill="#386b08" fill-rule="evenodd" stroke="none"/>
      <path d="M41.35 13.55 L39.75 14.65 37.8 15.2 Q39.85 17.1 40.45 18.75 L41.15 21.5 Q41.45 22.35 41.1 25.4 L38.25 20.3 35.15 15.2 32.7 15.3 33.5 16.65 34.95 18.9 Q36.5 21.6 36.7 23.35 37.0 21.75 36.9 20.0 L37.85 22.1 Q38.7 24.7 38.2 27.45 38.0 25.45 37.4 24.45 L37.15 27.0 Q36.65 29.85 35.6 31.55 36.15 29.7 35.2 25.5 34.95 28.6 33.55 30.3 33.25 31.85 32.1 33.85 L32.25 32.05 Q31.8 32.95 30.0 33.95 L30.2 32.15 Q30.2 28.9 29.7 27.35 29.6 27.05 29.5 27.65 L29.3 28.75 28.55 30.75 Q27.9 32.05 26.4 33.0 23.9 34.65 22.25 35.2 L19.25 33.75 20.5 35.75 Q18.95 34.75 17.45 32.25 15.3 28.8 14.75 24.15 13.15 28.8 13.65 31.8 L14.25 33.55 Q11.2 29.85 10.3 24.7 L10.0 20.0 Q7.45 26.25 8.45 30.1 8.85 31.55 9.55 32.25 5.25 28.4 6.3 20.65 6.8 17.3 7.9 14.5 L2.95 13.9 -0.35 13.5 Q-0.1 10.7 0.95 7.1 2.1 3.25 2.45 0.0 L42.65 0.0 Q43.05 5.45 45.05 12.9 45.9 19.65 41.75 29.05 42.95 23.1 43.15 20.65 43.45 16.6 41.35 13.55 M3.4 15.15 Q3.1 16.45 3.2 18.5 4.15 16.9 5.2 16.1 L4.2 19.45 Q3.2 23.05 3.2 24.15 2.7 22.0 2.4 18.7 L2.05 19.4 1.75 20.9 Q1.55 19.9 1.75 18.6 2.1 15.95 3.8 14.3 L3.4 15.15" fill="#26410c" fill-opacity="0.6" fill-rule="evenodd" stroke="none"/>
    </g>
  </defs>
</svg>
