<svg xmlns="http://www.w3.org/2000/svg" xmlns:ffdec="https://www.free-decompiler.com/flash" xmlns:xlink="http://www.w3.org/1999/xlink" ffdec:objectType="frame" width="66.85" height="76.45"><use ffdec:characterId="1" xlink:href="#a" width="66.85" height="76.45"/><defs><linearGradient id="b" x1="-819.2" x2="819.2" gradientTransform="matrix(-.0005 .018 .018 .0005 28.2 14.2)" gradientUnits="userSpaceOnUse" spreadMethod="pad"><stop offset="0" stop-color="#a6d8e9"/><stop offset="1" stop-color="#59b4d1"/></linearGradient><linearGradient id="c" x1="-819.2" x2="819.2" gradientTransform="matrix(-.0005 -.0161 -.0161 .0005 33.1 57)" gradientUnits="userSpaceOnUse" spreadMethod="pad"><stop offset="0" stop-color="#a6d8e9"/><stop offset="1" stop-color="#59b4d1"/></linearGradient><linearGradient id="d" x1="-819.2" x2="819.2" gradientTransform="matrix(-.0005 -.0161 -.0161 .0005 7.7 57.8)" gradientUnits="userSpaceOnUse" spreadMethod="pad"><stop offset="0" stop-color="#a6d8e9"/><stop offset="1" stop-color="#59b4d1"/></linearGradient><linearGradient id="e" x1="-819.2" x2="819.2" gradientTransform="matrix(-.0005 -.0161 -.0161 .0005 19.95 57.4)" gradientUnits="userSpaceOnUse" spreadMethod="pad"><stop offset="0" stop-color="#a6d8e9"/><stop offset="1" stop-color="#59b4d1"/></linearGradient><linearGradient id="f" x1="-819.2" x2="819.2" gradientTransform="matrix(-.0005 .018 .018 .0005 28.2 14.2)" gradientUnits="userSpaceOnUse" spreadMethod="pad"><stop offset="0" stop-color="#a6d8e9"/><stop offset="1" stop-color="#59b4d1"/></linearGradient><linearGradient id="g" x1="-819.2" x2="819.2" gradientTransform="matrix(-.0005 -.0161 -.0161 .0005 46.65 56.55)" gradientUnits="userSpaceOnUse" spreadMethod="pad"><stop offset="0" stop-color="#a6d8e9"/><stop offset="1" stop-color="#59b4d1"/></linearGradient><linearGradient id="h" x1="-819.2" x2="819.2" gradientTransform="matrix(-.0005 -.0161 -.0161 .0005 7.7 57.8)" gradientUnits="userSpaceOnUse" spreadMethod="pad"><stop offset="0" stop-color="#a6d8e9"/><stop offset="1" stop-color="#59b4d1"/></linearGradient><linearGradient id="i" x1="-819.2" x2="819.2" gradientTransform="rotate(-91.779 46.18 10.37)scale(.0161 -.0161)" gradientUnits="userSpaceOnUse" spreadMethod="pad"><stop offset="0" stop-color="#a6d8e9"/><stop offset="1" stop-color="#59b4d1"/></linearGradient><linearGradient id="j" x1="-819.2" x2="819.2" gradientTransform="matrix(-.0005 -.0161 -.0161 .0005 34.6 56.95)" gradientUnits="userSpaceOnUse" spreadMethod="pad"><stop offset="0" stop-color="#a6d8e9"/><stop offset="1" stop-color="#59b4d1"/></linearGradient><linearGradient id="k" x1="-819.2" x2="819.2" gradientTransform="matrix(-.0005 -.0161 -.0161 .0005 19.95 57.4)" gradientUnits="userSpaceOnUse" spreadMethod="pad"><stop offset="0" stop-color="#a6d8e9"/><stop offset="1" stop-color="#59b4d1"/></linearGradient><linearGradient id="l" x1="-819.2" x2="819.2" gradientTransform="matrix(-.0005 -.0161 -.0161 .0005 18.6 57.45)" gradientUnits="userSpaceOnUse" spreadMethod="pad"><stop offset="0" stop-color="#a6d8e9"/><stop offset="1" stop-color="#59b4d1"/></linearGradient><linearGradient id="m" x1="-819.2" x2="819.2" gradientTransform="matrix(-.0005 -.0161 -.0161 .0005 20.7 57.35)" gradientUnits="userSpaceOnUse" spreadMethod="pad"><stop offset="0" stop-color="#a6d8e9"/><stop offset="1" stop-color="#59b4d1"/></linearGradient><linearGradient id="n" x1="-819.2" x2="819.2" gradientTransform="matrix(-.0005 -.0161 -.0161 .0005 33.1 57)" gradientUnits="userSpaceOnUse" spreadMethod="pad"><stop offset="0" stop-color="#a6d8e9"/><stop offset="1" stop-color="#59b4d1"/></linearGradient><linearGradient id="o" x1="-819.2" x2="819.2" gradientTransform="matrix(-.0005 -.0161 -.0161 .0005 32.15 57)" gradientUnits="userSpaceOnUse" spreadMethod="pad"><stop offset="0" stop-color="#a6d8e9"/><stop offset="1" stop-color="#59b4d1"/></linearGradient><linearGradient id="p" x1="-819.2" x2="819.2" gradientTransform="matrix(-.0005 -.0161 -.0161 .0005 16.2 57.5)" gradientUnits="userSpaceOnUse" spreadMethod="pad"><stop offset="0" stop-color="#a6d8e9"/><stop offset="1" stop-color="#59b4d1"/></linearGradient><g id="a" fill-rule="evenodd"><path fill="url(#b)" d="M51.05 30.2H51l-.35-3.1zM43 42.85q1.5-3.2 2.25-7.5-.45 3.15-1.1 5.1zm.4-22.3.35 1.15-.85-2.25zm16.45 9.05.05.15q.85 2.3.6 5.2 0-3.25-.65-5.35m-40.4-2 1.7-2.7-.45.9z" transform="translate(5.7 5.35)"/><path fill="#42abbc" d="m35.4 3.25-1.35-.95-2.6-.35q1.25-.55 3.7.35 2.25.85 2.75 1.8l-3.2.15-3.55.45q2.5-1.15 4.25-1.45m8.1 1.25q3.6 1.05 6.35 4.35l-2.95-2q-2-1.15-2.8-1.15l1.8 1.8 1.7 2.55q-3.85-3.95-8.65-5.7zm5.95 22.55q1.05 2.9 1.25 5.4.2 2.1-.2 3.45l-2.65-.95q.45-1.25.45-3.35 0-1.75-.35-2.9l.8 2.55q.55 2.25.4 3.3.55-1.95-.4-6.85-.9-4.45-2-6.6l1 1.85-1.65-3.45Q52.4 27 53 34.55q1.1-1.75-.4-5.7.8.8 1.45 2.15 1 2.2.95 4.9 1.25-7.25-3.35-17.85 2.4 3.05 4.1 7.5 1.9 4.95 2.05 9.8l-.2 3.85q.7-.9 1.1-2.65l.25-1.3q.25-1.75-.1-3.55 1.1 1.6 1.65 3.45.75 2.5.6 5.55l.75-1.5.3-1.05q.3-1.3.1-3.6 1.65 3.65-.15 8.55l-.45 1.2q-1.65 3.55-4.3 5.75 1.85-1.65 2.2-4.9.4-3.15-.8-5.2-1.45 1.95-2.1 4.55-.55 2.15-.3 3.45-.95-.8-.15-5.4.65-3.9.55-7l-.4-3.1.35 3.1q.2 4.15-1.2 8-1.75 4.8-4.8 6.5 3.9-2.7 2.9-11.85.1 3.45-1.8 6.95l-1.85 2.6q-1.25 1.3-2.7 1.9l1.45-1.45 1.15-2.4q.65-1.95 1.1-5.1l.45-4.2q.35-4.05-1.5-8.8l-.8-1.8-.5-1.1zm16.1 7.9q-.55-1.45-1.7-2.9l1.85 8.55V43q-.3 3-3.3 5.4 2.65-2.65 2.25-8.5-.3-4.15-1.5-7-2.4-6.5-5-9.15l3.75 3.1q1.95 2.1 3.5 5.2 0-2.7-2-5.55 1.25 1 2.05 2.55.85 1.7 1.2 4.1.6 3.9-.45 7.15.25-2.9-.6-5.2zm-19.25-.4-1.35-.25-.9-.1-1.05-.05q.2-2.3-.25-5.7T41.35 22l-2.5-5.6q5.6 5.65 6.15 15.9.4-2.3.25-4.65l-.45-3q1.25 2.15 1.65 5.55.4 3.1-.15 4.35m-7.45-17.6q.15 4-.95 8.25-1.15 4.55-3.55 7.1l-2.15 1.75-2.15.05 2.25-2.9q1.65-2.6 2-4.65-.6 4.1-3.25 6.9 1.75 0 4.3-4.8 3-5.65 3.45-12.8zm-12 13.3q.75-1.5.75-2.6l-1.3 2.7-.5 1.05q-1.35 1.9-3.3 2.6-1.4.6-2.9.4 3.45-2.3 5.15-5.85 2-4 2.45-10.95.1 3.6-.2 5.65-.35 2.65-1.5 5.1-.7 1.55-2.8 3.65-2 2-3.1 2.4 3.45 0 6.35-4.5 1.65-2.55 2.55-5.4.05 1.75-.9 5l1.35-2.55q1.55-3.4 2.5-7.45-.7 3.85-1.85 7-2.05 5.6-5.05 7.2l.6-.75 1.25-1.8zm4.8-.6Q30.4 32.5 29 34.1l-.75-.05q3.9-4.25 4.8-12.2.35 3.7-1.4 7.8m-23 6q.05-.9.75-2.95.85-2.45 1.75-3.75-.35 1.3-.25 3.55.1 2.6.85 3.65-.15-1.8 1-6.7 1.25-5.55 2.75-6.9l-.25.8-.55 2-.9 4.15-.3 1.3q-.8 4.1-.45 7.85l.2 1.75q.65 3.65 2.25 6.15l-1.3-.85Q11 43.15 10 36.1q-.4 3.85 3 11.75-2.3-1.35-3.45-3.45-1.3-2.4-1.8-6.9-.25 4.9.75 8.55.85 2.85 2.05 4-2.15-.8-3.6-2.65-2.35-3.05-2.6-8.4l.1-3.85Q5 27.55 9 19.1q4.55-9.45 8.4-11.05-3.95 3.7-7.65 12.5Q6.4 28.5 5.9 35.25l-.05 3.7q.05-1.9.4-3.7.75-4.45 2.9-8.55-1.15 3.1-.5 8.95v.15zm16.4-17.6-.3 1.25-2.55 7.5q-2.35 6-4.4 7.6l-1.75.55q1.7-.85 5.25-8.1 3-6.15 3.75-8.8M15 52.15l1.5 1.6q.9 1.3.9 2.15-.95 0-2.2-.55-1.4-.65-1.8-1.55l2.55.9zm28.25 8.1q.45-1.3.95-1.8L44 60.1v1.05l1.4-.9.75-.7-.4 1.1-.85.9q-1.05.9-2 1.15-.2-.8.3-2.3zm-2.1 4.85.3-.45-.05.45-.1 1.25 1.05-.7.3-.3-.2.65-.55.6q-.7.55-1.25.7-.15-.5.15-1.4zm-.95 3.8.25-.25-.2.45-.35.4-.8.45q-.1-.3.1-.95l.15-.4.25-.4-.05.4v.7zm-15-.35-.05-.35.25.4.2.4.1.95-.8-.45-.25-.25-.3-.6.4.35.5.3zm-3.1-3.2.5.4.85.6V65.1l-.1-.45.3.45.35.8.15 1.4-1.25-.7-.4-.4zm-.55-5.15.05.2q.5 1.5.25 2.3-.9-.3-1.95-1.15l-.75-.75q-.5-.65-.55-1.25l.9.75 1.3.85V60.1l-.2-1.65zM1.05 28.75l-.2.9-.1.5q-.65 3.8-.2 10 .1-3.6.75-5.9.75-2.6 2.45-4.35Q2.5 32 1.9 36.35l-.25 2.2-.15 3.9.4 3.3v.05l.2.45Q.25 43.4.05 37.55q-.2-5.4 1-8.8"/><path fill="url(#c)" d="m33.85 63.25.25-.05.4.35-.65.4z" transform="translate(5.7 5.35)"/><path fill="url(#d)" d="M2.95 30.3v.15zm-2.4-.4q-.35 1.8-.4 3.7l.05-3.7z" transform="translate(5.7 5.35)"/><path fill="url(#e)" d="m19.5 63.2.05.75-.5-.3q.15-.4.4-.45z" transform="translate(5.7 5.35)"/><path fill="url(#f)" d="m29-1.1 3.2-.15q-.5-.95-2.75-1.8-2.45-.9-3.7-.35l2.6.35 1.35.95q-1.75.3-4.25 1.45zm8.8.25L33.25-1q4.8 1.75 8.65 5.7l-1.7-2.55-1.8-1.8q.8 0 2.8 1.15l2.95 2Q41.4.2 37.8-.85M-1.4 41.9q-1.6-2.65-2.1-5.25-.35-1.75-.3-5.65.6-4.35 1.85-6.45-1.7 1.75-2.45 4.35-.65 2.3-.75 5.9-.45-6.2.2-10l.1-.5.2-.9.2-.75q2.4-8.7 7.8-16.1 6.2-8.5 13.45-10.7 5.7-1.75 10.25-.95 3.9.7 5.8 2.95 2.1-2.1 8.6.8Q48.8 2 51.9 9.3q2.05 4.85 6.9 12.35l.95 2.05q-.8-1.55-2.05-2.55 2 2.85 2 5.55-1.55-3.1-3.5-5.2l-3.75-3.1q2.6 2.65 5 9.15 1.2 2.85 1.5 7 .4 5.85-2.25 8.5 3-2.4 3.3-5.4v-2.4l.1.5q.3 5.05-3.8 7.6l1.45-2.75q.5-1.5-.2-3.55-.25 3.25-2.25 5.3l-.75.65.85-2.3.55-1.75.45-1.2q1.8-4.9.15-8.55.2 2.3-.1 3.6l-.3 1.05-.05-.4-.7-3.65h-.6q-.55-1.85-1.65-3.45.35 1.8.1 3.55l-1.1.1h-.05q-.15-4.85-2.05-9.8-1.7-4.45-4.1-7.5 4.6 10.6 3.35 17.85.05-2.7-.95-4.9-.65-1.35-1.45-2.15 1.5 3.95.4 5.7-.6-7.55-6.9-15.05l1.65 3.45-1-1.85q1.1 2.15 2 6.6.95 4.9.4 6.85.15-1.05-.4-3.3l-.8-2.55q.35 1.15.35 2.9 0 2.1-.45 3.35l-.7-.2-.85-.2q.55-1.25.15-4.35-.4-3.4-1.65-5.55l.45 3q.15 2.35-.25 4.65-.55-10.25-6.15-15.9v.55l-.05-1.1q-.45 7.15-3.45 12.8-2.55 4.8-4.3 4.8 2.65-2.8 3.25-6.9-.35 2.05-2 4.65l-2.25 2.9 2.15-.05-3.75.05-1.45-.15 2.45-4.5q2.4-5.4 2-9.95-.95 4.05-2.5 7.45l-1.35 2.55q.95-3.25.9-5-.9 2.85-2.55 5.4-2.9 4.5-6.35 4.5 1.4-1.7 3.05-6.6 1.65-4.85 2.1-8.5l.3-1.25q-.75 2.65-3.75 8.8-3.55 7.25-5.25 8.1l1.75-.55-3.9 1.4q2.15-4.5 2.45-7.75-1.55 5.7-3.35 8.35l.05 2.25q-.35-3.75.45-7.85l.3-1.3q-.6 3.1-.75 5.5l-.05.9q.95-2.4 1.6-5.65.95-4.4.65-6.9l.25-.8q-1.5 1.35-2.75 6.9-1.15 4.9-1 6.7-.75-1.05-.85-3.65-.1-2.25.25-3.55-.9 1.3-1.75 3.75-.7 2.05-.75 2.95-.65-5.85.5-8.95-2.15 4.1-2.9 8.55H.2q.5-6.75 3.85-14.7 3.7-8.8 7.65-12.5-3.85 1.6-8.4 11.05-4 8.45-4.55 16.05h-.6l-.7 3.65q-.45 4.25.7 7.25zm15.3-12.85q1.1-.4 3.1-2.4 2.1-2.1 2.8-3.65 1.15-2.45 1.5-5.1.3-2.05.2-5.65-.45 6.95-2.45 10.95-1.7 3.55-5.15 5.85m12.05-4.75q1.75-4.1 1.4-7.8-.9 7.95-4.8 12.2l.75.05q1.4-1.6 2.65-4.45" transform="translate(5.7 5.35)"/><path fill="url(#g)" d="m54.55 43-.4 1.2Q53 46.55 50.35 48q-2.3 1.25-5.25 2.15-1.2.4-1.6 1.7l-.9 3.45q-.6 1.6-2.1 2l-.05.05-.05-.5-.35-1.55.4-1.1-.75.7-.25-.1-1.15-.05.2-1.65q-.5.5-.95 1.8l-1.1.65-.1-1.1q-.15-1.9.55-3.35.85-1.8 3.45-3.25 2.55-1.5 3.45-4.05l.45-1.4 1.85-2.6q1.9-3.5 1.8-6.95Q48.9 42 45 44.7q3.05-1.7 4.8-6.5 1.4-3.85 1.2-8h.05q.1 3.1-.55 7-.8 4.6.15 5.4-.25-1.3.3-3.45.65-2.6 2.1-4.55 1.2 2.05.8 5.2-.35 3.25-2.2 4.9 2.65-2.2 4.3-5.75l-.55 1.75zm1.6-9.15-.75 1.5q.15-3.05-.6-5.55h.6l.7 3.65zm-2.9-3.95L53 31.2q-.4 1.75-1.1 2.65l.2-3.85h.05z" transform="translate(5.7 5.35)"/><path fill="url(#h)" d="m-1.25 29.8-.1 3.85q.25 5.35 2.6 8.4 1.45 1.85 3.6 2.65-1.2-1.15-2.05-4-1-3.65-.75-8.55.5 4.5 1.8 6.9Q5 41.15 7.3 42.5q-3.4-7.9-3-11.75 1 7.05 4.2 9.6l.35 1.85q.2 1.05 1.6 2.95 1.4 1.85 4.25 3.15 2.85 1.25 2.6 4.95l-.2 2.3-1.25-.7-.95-1.75.2 1.65-1 .05-.3.15-.9-.75q.05.6.55 1.25-.2.5-.25 1.4v.5l-.15-.05q-1.45-.4-2.1-2l-.9-3.45q-.4-1.3-1.6-1.7Q5.5 49.2 3.2 48 .55 46.55-.6 44.2l-.8-2.3-.45-1.2q-1.15-3-.7-7.25l.7-3.65zm10.55 17 .95 2.55-2.55-.9q.4.9 1.8 1.55 1.25.55 2.2.55 0-.85-.9-2.15z" transform="translate(5.7 5.35)"/><path fill="url(#i)" d="M40.45 57.35q-.05 1.8-1.4 3.2-1.25 1.3-2.3 1.6l.05-1-.05-.5.2-.65-.3.3q-.15-.45-.45-.5l-.5-.05.05-.45-.3.45q-.65.05-1.2.5v-.2q-.05-1.25.55-2.25.9-1.6 1.55-2.2l.1-.05 1.1-.65-.05.15q-.5 1.5-.3 2.3.95-.25 2-1.15l.85-.9.35 1.55zm-2.15-2.6 1.15.05.25.1-1.4.9z" transform="translate(5.7 5.35)"/><path fill="url(#j)" d="m36.75 62.15-.85 1.45-1.15.9-.1-.4-.1-.35.2-.45-.25.25-.4-.35-.25.05.05-.4-.25.4q-.45.1-.8.5l-.05-.5q-.05-.8.35-1.5l1-1.4.1-.1q.55-.45 1.2-.5l-.35.8q-.3.9-.15 1.4.55-.15 1.25-.7l.55-.6.05.5zm-1.05-2.4.5.05q.3.05.45.5l-1.05.7z" transform="translate(5.7 5.35)"/><path fill="url(#k)" d="m20.75 63.75.65 1.15.1 1.1-.1.4q-.25-.35-.6-.15l-.4.55h-.05l-1.1-.9q-.45-.65-.4-1.4l.05-.4.05-.2.25.25.8.45-.1-.95-.2-.4q.6.05 1.05.5" transform="translate(5.7 5.35)"/><path fill="url(#l)" d="m19.3 60.25.1.1 1 1.4q.4.7.4 1.5l-.05.5q-.45-.45-1.05-.5l-.25-.4.05.35h-.05q-.25.05-.4.45l-.4-.35.3.6-.05.2-.05.4-1.2-.9q-.65-.65-.8-1.45l-.1-1 .05-.3.4.4 1.25.7-.15-1.4-.35-.8q.75 0 1.35.5m-1.55-.5V61l-.85-.6q.15-.55.45-.6z" transform="translate(5.7 5.35)"/><path fill="url(#m)" d="M21.4 66.4q.35.35.55 1.45.4 2-1.3 3.15.65-.55.65-1.3-.3 1.1-1.1 1.4.45-.65.25-1.15l-.4-1.2q-.1-.75.2-1.6l.15-.35.4-.55q.35-.2.6.15" transform="translate(5.7 5.35)"/><path fill="url(#n)" d="M34.75 64.5q0 .75-.45 1.4-.55.75-1.1.9l-.45-.55q-.35-.2-.6.15l-.1-.4q-.1-.6.1-1.1.3-.75.7-1.15.35-.4.8-.5l-.15.4q-.2.65-.1.95l.8-.45.35-.4.1.35z" transform="translate(5.7 5.35)"/><path fill="url(#o)" d="m33.2 66.8.1.35q.3.85.2 1.6l-.4 1.2q-.2.5.25 1.15-.8-.3-1.1-1.4 0 .75.65 1.3-1.7-1.15-1.3-3.15.2-1.1.55-1.45.25-.35.6-.15z" transform="translate(5.7 5.35)"/><path fill="url(#p)" d="m17.1 55.55.1.05q.65.6 1.55 2.2.6 1 .55 2.25v.2q-.6-.5-1.35-.5l-.3-.45.1.45-.4.05q-.3.05-.45.6l-.5-.4.4.85-.05.3.1 1q-1.05-.3-2.35-1.6-1.35-1.35-1.3-3.2v-.5q.05-.9.25-1.4l.75.75q1.05.85 1.95 1.15.25-.8-.25-2.3l-.05-.2zm-2-.8v1.05l-1.3-.85.3-.15z" transform="translate(5.7 5.35)"/></g></defs></svg>