<?xml version="1.0" encoding="UTF-8" standalone="no"?>
<svg xmlns:ffdec="https://www.free-decompiler.com/flash" xmlns:xlink="http://www.w3.org/1999/xlink" ffdec:objectType="frame" height="85.75px" width="70.75px" xmlns="http://www.w3.org/2000/svg">
  <g transform="matrix(1.0, 0.0, 0.0, 1.0, 2.8, 12.45)">
    <use ffdec:characterId="3" height="85.75" transform="matrix(1.0, 0.0, 0.0, 1.0, -2.8, -12.45)" width="70.75" xlink:href="#shape0"/>
  </g>
  <defs>
    <g id="shape0" transform="matrix(1.0, 0.0, 0.0, 1.0, 2.8, 12.45)">
      <path d="M9.9 -12.4 Q15.45 -12.95 19.8 -9.2 23.8 -5.75 23.85 -1.7 L23.1 -1.05 Q23.65 -3.9 20.35 -7.35 16.45 -11.4 10.55 -11.05 5.45 -10.75 2.85 -5.4 0.3 -0.15 3.05 3.1 1.5 2.95 0.95 0.65 0.4 -1.6 1.1 -4.4 3.0 -11.65 9.9 -12.4 M35.85 -8.5 Q45.9 -9.05 54.0 -0.5 63.3 9.25 65.95 20.85 68.95 33.75 64.45 51.25 62.45 58.95 64.15 60.35 65.55 61.5 67.95 58.5 66.8 63.4 63.4 62.85 60.4 62.35 59.45 59.55 58.55 56.9 58.8 53.9 59.05 51.35 60.2 47.55 66.3 27.7 54.7 10.0 50.25 3.25 44.7 -0.6 39.4 -4.25 36.25 -3.2 35.35 -2.9 29.55 0.35 25.25 2.7 25.05 1.55 24.5 -1.65 25.65 -4.05 26.4 -5.55 29.1 -6.85 32.1 -8.3 35.85 -8.5" fill="#e57508" fill-rule="evenodd" stroke="none"/>
      <path d="M32.0 -7.35 Q35.35 -8.85 39.1 -8.4 35.5 -8.4 31.65 -6.25 30.5 -5.6 29.4 -4.25 L28.5 -3.0 28.15 -3.95 Q28.85 -5.95 32.0 -7.35 M36.4 -5.15 L41.9 -4.6 Q49.95 -2.5 55.1 5.4 59.8 12.65 62.15 18.65 L60.8 15.0 Q58.1 7.85 55.65 4.45 52.55 0.05 47.0 -3.15 40.2 -7.1 34.95 -4.95 L36.4 -5.15 M36.55 -5.95 L42.35 -6.25 Q51.0 -4.95 56.8 4.45 63.65 14.75 64.45 28.4 L64.3 27.2 Q65.5 36.9 62.0 49.25 60.25 55.4 61.95 59.5 63.35 62.85 65.2 62.65 L62.65 62.6 Q61.05 62.15 60.4 61.05 59.65 59.85 59.8 56.0 59.95 51.85 61.2 48.0 65.65 33.95 61.7 21.25 59.3 13.7 52.7 4.6 49.85 0.6 44.75 -2.25 38.55 -5.7 33.6 -4.3 34.2 -5.3 36.55 -5.95" fill="#b14015" fill-opacity="0.69411767" fill-rule="evenodd" stroke="none"/>
      <path d="M45.0 3.45 Q59.2 12.85 55.8 37.55 54.9 43.85 50.3 52.15 46.15 59.65 46.3 60.8 46.4 61.45 50.05 64.55 52.85 66.9 50.5 68.0 L46.6 69.35 Q46.2 69.65 46.8 70.1 L47.6 71.0 Q47.9 72.4 45.1 72.9 L41.65 73.3 43.3 72.5 44.6 71.4 Q45.05 70.5 43.75 69.1 42.6 67.85 43.35 67.35 L46.25 66.25 Q47.4 66.0 45.45 64.95 L42.55 63.5 Q39.65 61.85 39.8 59.05 39.85 58.05 40.55 56.6 L41.7 54.3 Q43.25 51.8 44.6 48.9 L40.9 50.45 Q45.95 45.5 48.2 37.7 L48.35 36.9 Q46.65 41.55 41.35 45.8 44.05 43.25 45.9 34.8 47.9 25.65 46.2 18.9 46.9 22.1 46.4 25.7 45.65 30.85 42.45 32.75 43.35 31.0 42.6 25.2 41.8 19.2 40.1 16.5 41.45 20.3 40.35 23.9 39.25 27.6 36.3 28.6 38.6 22.65 36.1 14.85 37.7 26.35 32.4 31.35 31.4 32.3 28.35 34.25 26.2 35.6 25.85 36.75 25.65 34.8 24.3 32.75 L21.8 29.15 Q18.6 24.2 19.95 17.25 18.6 20.9 19.4 26.45 19.85 29.4 20.85 33.15 17.7 31.4 16.0 27.4 13.9 22.4 15.0 15.5 12.9 17.45 11.9 22.9 11.05 27.25 11.2 31.25 7.45 26.95 7.9 20.55 8.2 16.3 10.25 11.85 6.95 17.35 7.05 28.55 7.15 38.7 9.0 41.0 7.55 39.6 6.7 37.8 5.55 35.45 4.85 31.6 4.85 41.05 12.05 49.25 9.85 48.45 7.95 47.0 9.65 51.0 11.75 54.3 L12.9 56.6 Q13.55 58.05 13.65 59.05 13.8 61.85 10.85 63.5 L8.0 64.95 Q6.1 66.0 7.2 66.25 L10.1 67.35 Q10.85 67.85 9.7 69.1 8.45 70.5 8.85 71.4 9.15 72.0 10.15 72.5 L11.8 73.3 8.35 72.9 Q5.55 72.4 5.8 71.0 5.85 70.7 6.65 70.1 7.25 69.65 6.85 69.35 6.0 68.95 2.95 68.0 0.6 66.9 3.4 64.55 7.05 61.45 7.15 60.8 7.3 59.7 3.0 52.15 -1.65 43.9 -2.35 37.55 -5.15 12.8 8.8 3.45 15.9 -1.35 26.7 -1.45 37.8 -1.35 45.0 3.45" fill="url(#gradient0)" fill-rule="evenodd" stroke="none"/>
      <path d="M32.55 6.6 Q33.15 7.2 34.35 9.9 35.7 12.85 36.1 14.85 38.5 25.1 33.25 30.35 32.2 31.45 28.9 33.7 26.45 35.45 25.85 36.75 25.85 36.2 26.45 35.45 29.7 28.7 30.6 25.05 32.1 18.8 30.55 11.45 31.35 13.6 31.8 16.55 32.3 19.9 32.0 22.45 31.45 26.8 29.1 31.2 L26.8 34.9 28.5 33.1 Q31.8 30.05 33.8 25.5 34.85 23.0 34.7 17.3 34.55 10.75 32.55 6.6 M43.75 22.85 Q44.65 28.75 42.45 32.7 43.2 27.8 42.45 23.55 41.85 20.05 40.1 16.5 41.35 20.3 40.5 23.45 39.55 26.9 36.35 28.6 39.5 26.55 39.25 19.9 39.15 17.0 38.1 12.2 42.7 16.25 43.75 22.85 M46.85 41.2 Q49.6 33.85 49.7 29.35 51.3 35.4 48.6 41.85 45.95 48.25 41.05 50.4 43.85 49.05 46.85 41.2 M43.95 12.05 Q45.75 13.85 47.1 16.55 50.05 22.5 48.2 31.35 46.4 39.9 41.35 45.8 45.65 40.15 46.8 30.45 47.4 24.95 46.9 21.3 47.1 23.2 46.7 25.4 45.9 29.95 43.2 32.05 46.1 28.8 45.65 22.6 45.35 18.4 44.2 15.7 L42.45 10.8 43.95 12.05 M24.85 12.1 Q23.5 20.45 25.25 27.2 22.3 21.65 23.7 12.35 25.0 3.75 28.15 0.85 25.9 5.65 24.85 12.1 M21.75 11.5 L21.75 11.45 Q21.05 13.7 20.8 18.1 20.55 24.0 22.05 27.2 L24.7 32.45 Q25.55 34.25 25.55 35.35 25.4 34.3 22.65 30.35 20.0 26.45 19.75 24.2 19.45 21.3 20.15 16.95 L20.2 16.75 Q19.25 20.5 19.15 22.95 19.0 26.6 20.85 33.15 16.5 26.65 17.65 20.15 18.1 17.7 19.4 14.8 20.75 11.9 22.05 10.5 L21.75 11.5 M15.05 5.5 Q12.25 8.2 10.4 11.85 4.45 23.3 9.0 41.0 7.25 37.35 6.4 33.75 5.4 29.5 5.9 26.25 4.25 34.05 6.45 40.3 8.0 44.65 12.05 49.25 8.4 47.05 5.85 42.7 L6.95 46.15 Q8.45 50.45 12.55 55.85 L9.05 52.1 Q6.65 49.1 3.7 44.3 0.05 38.35 0.5 29.6 0.7 25.9 1.6 22.0 2.4 17.5 4.85 13.55 3.25 17.75 3.75 19.95 5.5 13.55 9.95 8.35 14.3 3.3 17.8 3.25 L15.05 5.5 M17.1 11.25 Q14.05 22.2 17.4 29.9 15.25 27.5 14.8 21.65 14.5 18.1 15.2 15.35 L15.0 15.5 Q13.25 16.9 12.0 22.05 10.75 27.15 11.2 31.25 L9.9 26.5 Q9.5 24.15 10.05 21.35 11.25 15.2 16.95 11.5 L17.1 11.25" fill="#b14015" fill-rule="evenodd" stroke="none"/>
      <path d="M53.75 20.7 Q54.55 23.6 54.9 26.6 56.0 36.3 52.4 43.9 49.75 49.45 45.35 54.1 L45.75 53.85 Q44.3 55.4 43.55 57.4 42.55 60.0 44.0 61.25 44.4 61.55 48.55 64.05 50.0 64.9 50.7 65.6 L50.75 65.5 51.1 65.85 Q51.45 66.3 51.45 66.8 51.3 67.85 48.65 68.6 46.15 69.35 46.25 69.7 L47.0 70.3 Q47.6 70.75 47.4 71.45 47.45 71.0 46.75 70.55 L45.65 69.95 Q44.55 69.25 47.7 68.35 51.4 67.3 50.7 66.25 L48.1 64.7 48.9 65.55 Q49.4 66.5 48.65 67.2 L46.0 67.9 Q44.0 68.25 44.15 68.75 L45.1 70.25 Q45.55 71.05 44.85 71.8 43.9 72.75 41.55 73.25 L43.5 72.2 Q44.5 71.45 44.5 71.1 L43.5 69.5 Q42.55 68.25 42.9 67.6 43.1 67.2 44.5 66.8 L46.45 66.05 Q47.2 65.55 46.4 64.55 L44.75 62.95 45.05 63.0 42.85 61.45 Q41.4 59.95 41.7 58.4 L41.95 57.6 41.7 57.9 Q40.95 59.2 41.45 60.75 41.95 62.2 44.4 64.1 L46.35 65.85 43.65 64.0 Q41.1 62.3 40.35 60.45 39.4 57.95 44.35 52.7 50.45 46.25 51.85 41.45 53.5 35.6 53.75 33.6 54.5 27.7 53.05 18.45 L53.75 20.7 M50.85 19.35 Q52.4 24.65 52.65 29.6 53.1 38.35 49.45 44.3 46.5 49.1 44.1 52.1 L40.6 55.85 Q44.8 50.35 46.15 46.15 48.8 38.5 50.1 30.15 51.4 21.8 50.25 19.75 L50.85 19.35 M11.45 57.9 L11.0 57.3 Q12.0 59.8 10.1 61.8 L8.45 62.95 8.5 62.95 6.85 64.55 Q6.05 65.55 6.8 66.05 L8.75 66.8 Q10.15 67.2 10.35 67.6 10.65 68.25 9.75 69.5 L8.75 71.1 Q8.75 71.45 9.7 72.2 L11.7 73.25 Q9.25 72.7 8.4 71.8 7.7 71.05 8.15 70.25 L9.1 68.75 Q9.25 68.25 7.25 67.9 L4.6 67.2 Q3.9 66.5 4.4 65.55 L5.1 64.75 Q3.5 65.6 2.65 66.15 1.65 67.3 5.55 68.35 8.7 69.25 7.6 69.95 L6.5 70.55 Q5.75 71.0 5.8 71.45 5.65 70.75 6.25 70.3 L6.95 69.7 Q7.1 69.35 4.6 68.6 1.9 67.85 1.8 66.8 1.8 66.3 2.15 65.85 L2.2 65.8 Q2.9 64.85 4.7 63.85 L9.1 61.25 Q10.6 60.0 9.6 57.4 8.9 55.4 7.4 53.85 L7.85 54.1 Q3.4 49.45 0.75 43.9 -2.85 36.3 -1.75 26.6 L0.1 18.45 Q-1.35 27.7 -0.6 33.6 -0.35 35.6 1.3 41.45 2.7 46.25 8.8 52.7 13.75 57.95 12.8 60.45 12.05 62.3 9.5 64.0 L6.8 65.85 Q6.65 65.7 8.75 64.1 11.2 62.2 11.7 60.75 12.25 59.2 11.45 57.9" fill="#b14015" fill-opacity="0.6" fill-rule="evenodd" stroke="none"/>
      <path d="M8.55 3.65 Q9.5 2.9 11.9 1.75 L14.75 0.5 Q16.9 4.95 32.5 8.0 47.4 10.9 50.5 8.95 48.35 11.85 33.3 10.1 17.95 8.3 8.55 3.65" fill="#f0dfbb" fill-opacity="0.49803922" fill-rule="evenodd" stroke="none"/>
    </g>
    <radialGradient cx="0" cy="0" gradientTransform="matrix(-3.0E-4, -0.036, -0.036, 3.0E-4, 27.2, 27.95)" gradientUnits="userSpaceOnUse" id="gradient0" r="819.2" spreadMethod="pad">
      <stop offset="0.0" stop-color="#b14015"/>
      <stop offset="1.0" stop-color="#e57508"/>
    </radialGradient>
  </defs>
</svg>
