<svg xmlns="http://www.w3.org/2000/svg" xmlns:ffdec="https://www.free-decompiler.com/flash" xmlns:xlink="http://www.w3.org/1999/xlink" ffdec:objectType="frame" width="63.5" height="49.1"><use ffdec:characterId="3" xlink:href="#a" width="63.5" height="49.1"/><defs><radialGradient id="b" cx="0" cy="0" r="819.2" gradientTransform="translate(28.5 19.55)scale(.0419)" gradientUnits="userSpaceOnUse" spreadMethod="pad"><stop offset=".227" stop-color="#75cbec"/><stop offset="1" stop-color="#c4ebec"/></radialGradient><radialGradient id="c" cx="0" cy="0" r="819.2" gradientTransform="translate(61.05 24.55)scale(.0002)" gradientUnits="userSpaceOnUse" spreadMethod="pad"><stop offset=".227" stop-color="#75cbec"/><stop offset="1" stop-color="#c4ebec"/></radialGradient><radialGradient id="d" cx="0" cy="0" r="819.2" gradientTransform="translate(58.5 30.95)scale(.0005)" gradientUnits="userSpaceOnUse" spreadMethod="pad"><stop offset=".227" stop-color="#75cbec"/><stop offset="1" stop-color="#c4ebec"/></radialGradient><g id="a" fill-rule="evenodd"><path fill="url(#b)" d="m13.35-2.55.4-.15Q12.7-1.55 12.7 1.5l.1 1.15Q13.4 1 15.5-.8q2.95-2.5 9.2-3.95 4.3-.4 1.25 0l2.7-.25q-3.35 1.2-4.9 2.75l-1.2 1.15 1.65-.65q3.2-1.15 5.1-1.15l5.55.4 8.65 1.05-1.35.05-1.95.3-2.75.4 2.2.7q2.95.9 5.1 2.55 2.1 1.65 3.3 2.95l.35.35 2.45 3.4 2 2.9.95 1.1.8.85 2.7 2.3 1.65 1 .5.2q-2.35-.05-4.95-1.2l1.55 2.9.75 1.35q1.7 2.35 2.5 3-1.75-.35-3.55-1.4-3.6-2.2-4.1-2.95l2 5.05q1.5 3.65 3.85 6.2v.1l-.7-.1q-.75-.15-2.95-1.9-1.8-1.5-2.2-2.55v.25l-.15 2.45-.05.35q0 1.25.4 2.75l.65 1.25.55.7.05.05.65.5.05.1-.85-.15-.8.1q-1.55 0-2.85-.9l-.55 2.8-.9 2.2-.45.75-2.35 2.7-.05-.05-.35.45-1.7 1.15 1.25-2.1q.9-1.6 1.6-4.6.7-3.05.15-3.45l-9.45-5.45.95 2.35 1.2 2.65q-.1.25.55 1.15-1.75-2.2-3.9-4.25t-4.55-4.95Q28.3 22 27.7 20.75L29.8 27q1.95 4.75 2.65 5.2l-.05.05.05.05.75.8q-7.65-4.9-10.8-10.65l-1.1-2.3-.6-1.7q-.55-1.75-.75-3.55l-.55.7q-1 1.35-1.85 2.9l-1.1 2.15-.3.65q-.95 2.2-1.35 4.05l-.25 2.6-.05.55.05.3-.05.05q-.1.6 1 3.75-1.65-2.4-2.15-4-.5-1.65-.75-3.85-.35 1.7-.35 2.7l.15 3.25.05.3q-.65-.5-1.05-1.7-.4-.95-.55-2.95-.05 1.6.4 3.15l.6 2.2.15.15q0 .3-1.35-1.1Q9.3 29.3 9.1 28.6q-.5 2.05-.3 4.5.15 2.4 1.25 4.9.7 1.6 1.55 3 2.8 1.1.05.05t-4.1-3.95l.25 1.3 1.6 4.55.3.55.35.6-1.25-1-2.35-2.05-1.75-2-1-1.85q-.85-1.45-1.45-3.85-1.2 2-3.45 2l-.3-.05-.05-.35q.5.5 1.65-.85 1.1-1.4 1.2-3.75l-.3-1.3Q-.25 30.5-1.9 30.5l-.5-.15Q-.45 29.4 0 28.1l.4-1.55.1-1v-.7l-.05-1.7q0-1.45.5-3.85l.55-2.35.55-1.55v-.1l-.85 1.55L.1 19.1l-.55 2.3-.2 3.8q.75 3.55-.2.05l-.1-.4-.05-.3-.1-.4-.25-.8-.35-1.4-.2-2.55q.05-1.85.55-3.5l.1-.25 1-2.2q.7-1.25 2-2.55l3-2.55.2-.15q.2-.35 1.55-1.05 1.55-.8 2.2-.85-1.85-1.2-4.05-1l-3 .45q-.8.2-1.45.65l-.6.3 2.85-2.35q2.8-2.25 5.8-1.55-.05-.25 2.8.8l-.2-.3q-.15-.2-.15-1.65t.75-2.6q.7-1.15 1.9-1.6M.7 27.5l-.05.15.05-.05z" transform="translate(2.4 5)"/><path fill="url(#c)" d="M61.1 24.5v.1l-.05-.15z" transform="translate(2.4 5)"/><path fill="url(#d)" d="m58.6 30.95-.45-.05.7.05z" transform="translate(2.4 5)"/><path fill="#fafffe" fill-opacity=".498" d="m55.25 17.15.95 1.1-1.5.25-2.25 1q-1.65.75-3.1 1.6l-1.15.75-2.55 1.2q-2.9 1.3-8.15 2.15l-4.35.35-3.95.2-5.4-.1-.7-2.2h.05l1.65.15 2.8.2 5.15-.2q3.45-.35 6.4-1.6 2.95-1.3 6.1-3.65 3.35-2.4 4.8-5.85l.75-1.65 2.45 3.4zm-46.85.1q2.75 3.45 7 5.2l.5.2.15.05 1.55.45 2.35.35-.3.55-.3.6-.25.5-.05.05h-1l-.4-.15-.45-.1-3.6-.55-.1.05.05-.1-.75-.15h-.1l-5.5-1.15-3.3-1.1.55-1.55v-.1l-.25.5-.05.05-.55 1-1.2-.5-1.25-.7 1-2.2q.7-1.25 2-2.55l3-2.55q0 1.15.45 2.25l.2.5.1.15.5.9zM16 24.4l.25.05h.45l-.5-.05zm.9-.05.2.1.05-.1z"/><path fill="#70b2cc" d="m15.85 2.55-.05.3q-.7 1.2-.7 3.65l.1 1.15.1-.25q.1 1.55.45 3.05l.1.2.35.1q-.05-3.3 3.15-5.7l1.45-.85q-2.15 2.05-3.35 5.55l-.25.75-.05.6.25.1q1.25-2.05 4-2.3-1.65 1.1-2.95 3.05l.65.6.35.15.1.05h-.05l-.05-.05-.9-.1.25.15-.45-.05q-.2-.1-2.75.95-1.75 1.1-2.6 1.95l-2.55 2.85.8-1.65q1.9-3.9 5.45-4.65l.65.1-.1-.1h-.05l-.75-.45.25.4-.35-.4q-2.2-1.05-4.55.05l.15-.2h-.2q-2.7-1.45-4.7-1.25l-3 .45q-.8.2-1.45.65l-.6.3q.05-.1 2.95-1.85 3.75-1.4 5.3-.4l2.35 1.5q.15-.15.35-.2h.2l-.05-.05q-.55-1.25-2.1-1.8h.1q2.45.3 4.05 1.7h.25l-.75-2.1q-.8-2.1.25-4.45zM31.6 4.3q1.4-1 4.25-1.15l2.55-.05 5.1.3 1.95.15-.9.05-1.95.3-2 .25-.7-.05-7 .6q-1.75.35-5.75 1.8l3.05-1.6zM29.1.2l1.95-.2-.25.1-2.45 1.1q-1.35.7-2.2 1.55l-1.2 1.15.75-.3q-2.85 1.35-5.9 4.7l1.1-2q1.8-3.65 4.15-4.85Q26.95.55 29.1.2M46.05 11q-2.65-1.85-5.3-2.7l-7.25-.25-1 .1-.3.2q-3.35.55-5.3 2.95l-.45.65.3-.1q1.25-2.3 4.65-2.5-2.65 1.5-2.55 2L30 11.2q4-.15 7.25 1.25 3.3 1.5 5.95 4.1-2.45-1.7-5.8-2.45-3.65-.55-6.85-.05l-.95.15q2.45.25 7.1 2.9 4.6 2.6 7.4 6.15l1.55 1.9-4.45-3.5Q37.95 19.3 35 17.7T31.55 16l2.05 2.25q1.6 2.05 3.7 4l6.95 6.95 4.65 5.4v-.45l-2.45-4.4-3.25-4.35q2.85 2.3 4.9 5.3l.85 1.4-.1-2.35q-.3-4-1.35-7.35l-1.55-4.25.55.75.3.3q1.8 3.5 2.5 7.7.65 3.7.6 7.95-.05 4.2-.7 6.7l-1.3 3.8q-.55 1.3-2.3 3.05l-.25.15 1.25-2.1q.9-1.6 1.6-4.6.55-2.5.3-3.2l-.15-.25-9.45-5.45.05.15q-.95-1.65-3.1-3.8-2.55-2.55-3.55-6.15v-.1q3.55 4.75 8.8 8.85l6.1 4.85 1.25 1.2.15-.95.1-.75-4.9-4.8L38.1 26q-2.7-2.7-4.55-5.65L30.4 15.4q-2.2-1-3.8-1.35l-3.6-.4.5-.3q-.05-.15.1-.05l.55-.3q.7-3.5 3.55-5.5.45-.35 1.6-.8 2.3-.8 4-.6h-.2q-2.65 1-4.6 2.9l1.9-1.25.5-.3h.5Q34 6.2 37.6 6.5q4.05.3 6.8 2.75zm7.15 14.8.15.65q1 3.75 3 6.25 1.5 1.9 3.55 2.9v.05l-.7-.1q-.75-.15-2.95-1.9-1.8-1.5-2.2-2.55v.15q-.85-2.4-.85-5.45M48.65 14q2.2 1.35 3.55 2.45l3.7 3.05 2.1 1.55 3.7 1.55-.8-.05-.1-.05q-1.85-.2-3.8-1.1l-1.1-.8zm5.95 11.5-1.35-2.35q-1.2-2.2-3.15-4.65l-3.75-4.3q-1.8-1.85 3.45 3.2l7.35 7.35q2.05 2.3 3.95 3.35l.6.55q-1.75-.35-3.55-1.4-3.6-2.2-4.1-2.95zm-.45 10.9q-1.5 0-2-4.15L50.4 21.6q2.45 7.25 2.55 9.7t.95 3.35zm.4 3.05q-1.55 0-2.85-.9l-.35 2.2-.35-6.6q-.35-3.1-.1-6.15.2 4.25 1.4 8.2.7 2.15 2.65 3.25zM23.5 17.3q0 3.6.9 6.9 1 3.65 3.35 7.25l.4.55q-2.05-2.2-3.35-4.55-1.95-3.6-2.45-7.55l-.55.7-.25.35-1.6 2.55-.6 1.15-.5 1-.3.65q-.95 2.2-1.35 4.05l-.25 2.6-.05.55.05.3-.05.05q-.1.6 1 3.75l-.3-.45q-.95-1.75-1.35-4.2-.6-3.75.6-7.75l.15-.45.6-1.6q1.15-2.6 2.95-4.5 1.5-1.55 3.45-2.2zm8.2 9.7 4.7 5.3 4.25 5.4.65 1.05-3.6-3.9q-2.15-2.05-4.55-4.95l-1.6-1.95-.95-1.35-.5-.85 1.35 3.95.75 2.3 1.65 3.65q-2.1-2-3.8-5.4-1.95-3.9-2.4-7.9l-.55-5.1 2.3 6.65zM10.4 14.45l-2.5 1.8-1.25 1.05q-1.75 1.55-2.5 3.55l-.55 1-1.1 2.25-.55 2.3-.2 3.75.3 1.75q.05.2-.05 0l-.45-1.65-.1-.4-.05-.3-.1-.4-.05-.2q-.2-2.1.15-4.25.3-1.75 1-3.35.8-1.85 2.1-3.45l1.4-1.35 1.7-.95q1.35-.7 2.8-1.15M4.5 25.3q.25 3.75-.25 7.25v.2l.95-2.95q-.25 3.4-1.5 6.2l-.1.25.1-.9-.15-.6-.05-.1-.1-.6Q2.15 35.5.5 35.5l-.5-.15h.1l1.7-.55 1.55-1.85q.9-1.45.9-4.5t.25-3.15m4.1-2.2q-1.2 4.2-2.05 9.15-.55 3.25-.5 6.55.05 2.1.4 4.1.2.45-.15-.15l-.9-2.15-.45-1.7v-1.1l-.25.6-.05-.05-.45.65q-1.15 1.35-3 1.35l-.3-.05v-.25l-.05-.1.1.1 1.15-.15q2.55-1.7 3.05-4.55l.1-.45q.2-2.95.55-5.85.25-2.3.9-4.55-.8 3.2-.9 6.85l.1-.6.05.75q.55-3.1 1.3-5.15zm7.45-.75.35-.75-.35 1.1-.45 1.5q-.55 2.2-.65 4.75v1.15q-.3 1.4-.3 2.35l.15 3.25.05.3-.15-.1q-.9-2.65-.65-6.15.25-3.05 1.25-5.65l.6-1.45zm-2.85 7.1q-.1 1.55.1 2.9l.35 2.15.6 2.2.15.15q0 .3-1.35-1.1l.8.75q-1.75-2.7-1.9-4.8-.3-4.2 1.55-8l.8-1.4-.3 1.45q-.55 2.6-.8 5.7m-5.5.6v.5q-.65 3.85-.2 6.55l.7 3.3-.05-.55q-.3-2.4.15-4.8.05 3.7 1.75 7.6l.15.75 1.6 4.55.3.55.1.15q-1.55-1.4-2.75-3.85H9.4L8.5 42l-1-2.3q-1.25-3.6-.2-7.35zm3.8 3.55-.2.85q-.25 1.7-.1 3.65.15 2.4 1.25 4.9.7 1.6 1.55 3-1.15-.85-2.4-2.85-1.25-2.05-1.7-4.9-.5-2.9.2-8.1l.6-2.5q-.1 4.55 1.3 6.85z"/></g></defs></svg>