<svg xmlns="http://www.w3.org/2000/svg" xmlns:ffdec="https://www.free-decompiler.com/flash" xmlns:xlink="http://www.w3.org/1999/xlink" ffdec:objectType="frame" width="60.9" height="95.9"><use ffdec:characterId="1" xlink:href="#a" width="60.9" height="95.9"/><defs><g id="a" fill-rule="evenodd"><path fill="#4c2920" fill-opacity=".988" d="M21.4 30.05q1.25-4.15 1.45-8.45l.1-7.9q.15-7.1 3-9.85 1.4-1.4 2.8-1.35 11.1 3.4 13.45 5.15l.3.2Q44.7 9 46.3 11.5q3.05 4.7.35 11.1-1.05 7.65-6.4 25.75l-.05.3q1.55 19.1 13.55 27.5 3.65 2.5 7.15 3.65Q50 77.55 43.35 67.95q-2.5-3.55-4.1-7.75l-1.1-3.5q-2.6 13.8 3.3 22.4 2.8 4.05 6.1 5.65-9.4-2.4-11.75-12.45-.75-3.15-.65-6.7l.2-2.9Q32.6 76.25 37.7 85.65q2.55 4.7 5.65 6.65l-3.4.7-1.8.1L33.1 88q.75 2.45 3.25 4.9l-5.4 1.2q-5.5-4.35-5.8-12.1-.1-2.45.35-4.9l.45-2q-3.5 6.4-1.2 13.75 1.15 3.65 3 6.05l-4.8 1q-1.25-.85-2.85-2.8l-1.35-1.8.5 1.4q.8 1.7 2.3 3.2-13-8.25-10.5-21.15 1.25-6.45 5.1-11.25-8.1 7-7.85 19.2.1 6.1 1.85 10.8l-1 1Q2.4 85.65 4.2 72.9q.85-6.35 3.1-10.95-5.3 6.2-5.55 14.6-.1 4.2.8 7.15-4.25-7.5-1.4-16.3 1.45-4.4 3.8-7.5Q18.2 40.45 21.4 30.05"/><path fill="#1e0b01" d="M24.4 32.5q-3.05 15.45-12 23.6 3.65-5.6 7.1-13.1 5.3-11.35 6.15-19.45-.3 4.15-1.25 8.95m22-11.95q-.05-3.25-.65-3.25l-.45.3q.35-1.3 1-1.3.5 0 .6.7v1.05l-.3 2.5-.2 1.15zm-3.85 7.3q-1.1 5.9-1.3 11.95l3.1-13.8q.4-1.75-.6 8.35l-.25 2.6-3.25 11.4-.05.3.35 3.25q-.65-3.9-.5-9.45.25-11.1 3.6-19.25zm8.65 47.9q-9.45-6.65-13.1-19.2L38 55.3q-.2-4.4.55-8.2-.2 6.1 2.4 13.25Q46 74.2 60 79.55q-4.7-.85-8.8-3.8M36.75 56.5q-1.15 3.05-1.6 7.45-2.15 11.65 1.8 20.2-4.75-8-3.2-18.1.9-5.75 3-9.55m10.8 28.25-.65-.2q-9.55-5.2-10.15-15.95-.3-4.75.9-8.75-1.4 11.65 3.8 19.25 2.8 4.05 6.1 5.65M32.45 61.7q-2.3 16.35 3 23.2-2.85-3.1-4.25-9.4-2.75-12.65 4.65-28.75-2.2 6.8-3.4 14.95M15.2 64.4l-1.1 1.15q-6 6.6-5.8 17.15.1 6.05 1.85 10.75-2.05-3.5-3-8.75-2.2-11.95 4.65-23.25l-2.05 7.3q2.25-3.9 5.2-6.95 2.95-3.1 7-11.65-1.3 4.75-3.35 8.95-1.6 3.25-3.4 5.3m-8.65-1.5Q2 68.8 1.75 76.55q-.1 4.2.8 7.15L1.5 81.55.9 80q-.35-2.15-.05-6.9.45-7.4 14.05-24.9l-5.25 8.7q-1.8 3.05-3.1 6m11.5 9q-.55 3.4-.55 6.8 0 10.75 5.75 17.15l-.3.05q-1.25-.85-2.85-2.8l-1.35-1.8.5 1.4q.8 1.7 2.3 3.2l-2.5-1.75Q11.95 85.7 14.7 74q1.55-6.85 5.2-11.9l-2.3 4.75q-2.2 5.65-1.85 10.2.15-1.3.6-2.95.85-3.25 2.3-4.95zm1.85 11.25.05-1 .65 3.55q1 3.8 2.6 6.45l-.4-1.3-.2-1.7.1-.8v-.05q.35 2.35 2.3 5l1.6 1.85-1.85.4q-3.95-3.5-4.7-9.8-.15-1.3-.15-2.6m5.6-6.05.45-2Q23.3 79.95 24 85.4q-1.15-5.5 1.6-11.45 2.2-4.25 3.25-4.95l-1.05 2.85q-1.15 3.5-1.6 6.85-1.05 8 2.1 12.75-2.95-3.85-3.15-9.45-.1-2.45.35-4.9m-5.9-3.2Q21.3 66 26.65 59q-1 1.35-2.45 4.25-3.3 6.8-5.25 17.35-.25-2.65.65-6.7M30 75.7l-.35-2.3.4 2.15q.65 2.7 1.9 5.3 3.5 7.4 10.45 11.75l-1.1.25q-6.6-3.45-9.75-11.6-1.05-2.7-1.55-5.55m-2.6 4.55v-.5l.15-1.35.1-.45-.1.7zq.15 4.35 3.1 8.85 1.75 2.65 3.7 4.3l-1.25.3q-3.3-3.65-4.35-5.95-1.2-2.7-1.2-6.95zM33.1 88q.35 1.1 1.05 2.25-2.4-3.35-2.9-7.4 1.8 4.15 4 6.8 1.7 2 3.85 3.4l-.95.05z"/><path fill="#7b4945" d="M17.75 45.45q-2.4 4.95-4.6 8.5Q16 48.8 23.5 28.65q-.95 6.9-5.75 16.8m4.9 16.1q1.9-1.8 3.45-2.65-3.85 3.95-6.25 11.2-1.2 3.6-1.6 6.4-.45-1.7.35-5.7l.9-3.65q-1.35.95-2.35 2.75 1.7-4.75 5.5-8.35m-5.2-4.65-3.6 4.9q3.3-4.55 9.1-15.3-1.6 4.55-5.5 10.4m-9.8 7.85q2.2-3.55 4.95-5.15-5.5 5.75-6.5 14.55-.55 4.35.05 7.6-2.85-9.9 1.5-17m16.4 3.45q-.75 2.2-.95 4.2l1.45-2.5q1.95-2.85 4.45-4.5-2.05 2.65-4 6.65Q21.15 80 21.65 86.7q-.85-2.7-.95-6.5-.15-7.85 4.05-13.85zm-9.9 1.95 1.05-1.2Q12 74.9 12.7 80.9q.35 3 1.3 4.8-3.9-6.2-1.75-12.1.7-1.85 1.9-3.45M29 76.2q.15 6.45 3 11.45-2.3-2.95-2.6-4.15l.35 1.6q.45 1.85 1 2.95-1.2-1.65-2-4.6-1.55-6 .65-12.7z"/><path fill="#4f2522" d="m38.55 1.6.65-.2q.7 0 1.8 1.2l.75 1.05q1.2-.3 2 .35.8.75 1.15 2.65 1.25.15 2.1 1.95.8 1.55.8 2.8 0 1.3-1.15 3.05-1.2 1.8-2.35 2.4l-.9.15-2.1-.4-2.1-.6v-1h-2.1q-1.05-.15-.7-1.4l-.85.4-.55.4q-.3 0-1.2-.65l-1-.75v.2q.4.4.4.8l-1.6-.2-1.7-.4-2.2.6q-.35 0-.7-.4-.4-.4-.7-.4l-1.5-.1q-.6-.3-1.2-1.7l-.2-2.1Q23.4 0 33.8 0l2.4.4.8-.2.85.1q.8.9.7 1.3"/><path fill="#1e0b01" d="m37.85.3.55.7q-1.2 1.3-2.35 3.45Q35 6.5 34.8 7.5v.05l.55-.7-.55 2.05q1.95-1.4 3.15-4.5l.8-2.9.45-.1 1.65 1.05V3.7l-.25 2.85.25-.85q.4-1.4.4-2.45V2.9l.5.75h.05v.8q-.1 2.85-2.45 5.3l1.95-1.9q1.55-2.05 1.35-4.3l1.1.45q.7.65 1.1 2.25l.05 1.7-.45 2.9-.55 1.7Q45.45 11 45.45 7.7v-.9q.85.4 1.55 1.8.8 1.55.8 2.8 0 1.3-1.15 3.05-1.2 1.8-2.35 2.4l-.9.15-2.1-.4-1.4-.4q1-.7 2.1-2.3 2-2.8 1.8-5.5-.2 1.55-1.95 3.95-1.3 1.85-2.65 2.65h-2.1q-1.05-.15-.7-1.4l-.3.1 1.45-2.75q1.7-2.85 1.8-3.8l-.95 1.5q-.8 1.15-1.6 1.7v-.25l.15-.7h-.05q-1.7 3.3-1.75 4.95l-.15.05q-.3 0-1.2-.65l-.2-.15-.4-2.8q-.05-3.75 2-6.25-1.2.6-2 2.2-1.45 2.75-.15 6.45l-.25-.2v.2q.4.4.4.8l-1.6-.2-1.7-.4-1.7.5q-.5-7.5 3.15-11.05 1.6-1.5 3.25-1.95-3.15.7-5.55 2.8l-2 2.25q1.05-2.5 3.3-4l2-1q-5.7 1.45-6.7 7.2-.35 1.8-.15 3.85l.2 1.2-.9-.1q-.6-.3-1.2-1.7l-.2-2.1Q23.4 0 33.8 0l2.4.4.8-.2zm-4.6 2.5q-1.15.7-2.35 2.75-1.6 2.65-1.6 5.4 0 1.35.2 1.45l.05.05q.25-2.2 1.8-5.55l1.9-4.05zm9.95 12.95h.05l2.55-1.8q1.05-1.25 1.05-3.35l-.1-1.35-.05.1q-.2 1.7-.9 3.3-1 2.15-2.6 3.1"/><path fill="#7b4945" d="m37.45 3.25.65-1.05q.05.85-.75 2.85-.8 2.05-1.45 2.3l.85-2v-.1.1l-.8.6V5.9l.95-1.7.35-.65zm-7.5.7q-1.15 1.4-1.9 4.2-.55 2.1-.6 3.7-.35-2.55-.35-3.25l.25-1.85.1-.35 2.4-2.4z"/></g></defs></svg>