<?xml version="1.0" encoding="UTF-8" standalone="no"?>
<svg xmlns:ffdec="https://www.free-decompiler.com/flash" xmlns:xlink="http://www.w3.org/1999/xlink" ffdec:objectType="frame" height="95.25px" width="97.3px" xmlns="http://www.w3.org/2000/svg">
  <g transform="matrix(1.0, 0.0, 0.0, 1.0, 22.7, 42.5)">
    <use ffdec:characterId="1" height="80.65" transform="matrix(1.0, 0.0, 0.0, 1.0, -17.45, -32.15)" width="81.3" xlink:href="#shape0"/>
    <clipPath id="clipPath0" transform="matrix(1.0, 0.0, 0.0, 1.0, 0.0, 0.0)">
      <path d="M13.65 -12.25 L14.0 -12.25 13.3 -9.0 10.9 -4.9 Q9.0 -2.05 8.5 1.65 L8.3 8.0 Q8.3 11.05 8.65 14.5 8.95 17.9 9.9 21.5 10.85 25.1 11.0 27.75 L11.15 30.45 Q10.85 35.05 8.85 39.35 4.6 48.5 -5.4 48.5 -7.0 48.5 -8.35 47.35 L-9.95 45.85 -10.75 44.25 -11.0 44.0 Q-13.5 44.1 -15.05 42.35 -16.65 40.6 -16.6 39.45 L-16.55 38.4 -16.6 38.35 Q-16.9 37.85 -17.15 37.65 -17.4 37.4 -17.45 36.65 L-17.35 35.55 -17.3 34.9 -17.2 35.2 -17.2 34.95 -16.85 34.4 -16.95 34.85 Q-16.95 35.45 -15.7 36.6 -14.5 37.7 -12.35 37.65 -10.25 37.55 -9.4 36.7 L-8.2 35.3 -7.4 34.05 Q-7.0 33.35 -6.6 31.5 -6.2 29.6 -6.2 27.65 L-6.2 27.1 Q-7.8 29.75 -12.2 29.75 -13.95 29.75 -14.95 29.15 L-16.15 28.35 -16.75 27.4 -17.4 25.75 -17.4 25.1 Q-17.0 26.1 -16.25 26.75 L-16.2 26.7 -15.25 27.1 -12.65 27.4 Q-11.0 27.25 -10.2 26.75 L-8.55 25.4 Q-7.7 24.55 -7.6 21.7 L-8.2 20.0 -9.75 16.45 Q-11.4 12.9 -12.35 9.7 -17.0 -1.7 -17.0 -8.3 -17.0 -14.5 -15.55 -18.4 -13.55 -23.95 -8.05 -28.2 -4.05 -31.25 1.8 -28.4 6.2 -26.2 8.35 -23.15 9.45 -21.75 11.8 -17.5 L14.0 -13.15 13.65 -12.25 M59.25 25.7 L59.6 25.7 60.35 25.65 59.25 25.7 M33.1 -11.35 L32.4 -14.6 32.75 -14.6 Q32.4 -15.05 32.4 -15.5 L34.6 -19.85 Q36.95 -24.1 38.05 -25.5 40.2 -28.55 44.6 -30.75 50.45 -33.6 54.45 -30.55 59.95 -26.3 61.95 -20.75 63.4 -16.85 63.4 -10.65 63.4 -4.05 58.75 7.35 57.8 10.55 56.15 14.1 L54.6 17.65 54.0 19.35 Q54.1 22.2 54.95 23.05 L56.6 24.4 Q57.4 24.9 59.05 25.05 L61.65 24.75 62.6 24.35 62.65 24.4 Q63.4 23.75 63.8 22.75 L63.8 23.4 63.15 25.05 62.55 26.0 61.35 26.8 Q60.35 27.4 58.6 27.4 54.2 27.4 52.6 24.75 L52.6 25.3 Q52.6 27.25 53.0 29.15 53.4 31.0 53.8 31.7 L54.6 32.95 55.8 34.35 Q56.65 35.2 58.75 35.3 60.9 35.35 62.1 34.25 63.35 33.1 63.35 32.5 L63.25 32.05 63.6 32.6 63.6 32.85 63.7 32.55 63.75 33.2 63.85 34.3 63.55 35.3 63.0 36.0 62.95 36.05 63.0 37.1 Q63.05 38.25 61.45 40.0 59.9 41.75 57.4 41.65 L57.15 41.9 56.35 43.5 54.75 45.0 Q53.4 46.15 51.8 46.15 41.8 46.15 37.55 37.0 35.55 32.7 35.25 28.1 L35.4 25.4 Q35.55 22.75 36.5 19.15 37.45 15.55 37.75 12.15 L38.1 5.65 Q38.1 0.9 37.9 -0.7 37.4 -4.4 35.5 -7.25 34.55 -8.65 33.1 -11.35 M-13.2 28.05 L-12.85 28.05 -13.95 28.0 -13.2 28.05" fill="#946749" fill-rule="evenodd" stroke="none"/>
    </clipPath>
    <g clip-path="url(#clipPath0)">
      <use ffdec:characterId="3" height="95.25" transform="matrix(1.0, 0.0, 0.0, 1.0, -22.7, -42.5)" width="97.3" xlink:href="#shape2"/>
    </g>
  </g>
  <defs>
    <g id="shape0" transform="matrix(1.0, 0.0, 0.0, 1.0, 17.45, 32.15)">
      <path d="M10.9 -4.9 Q9.0 -2.05 8.5 1.65 L8.3 8.0 Q8.3 11.05 8.65 14.5 8.95 17.9 9.9 21.5 10.85 25.1 11.0 27.75 L11.15 30.45 Q10.85 35.05 8.85 39.35 4.6 48.5 -5.4 48.5 -7.0 48.5 -8.35 47.35 L-9.95 45.85 -10.75 44.25 -11.0 44.0 Q-13.5 44.1 -15.05 42.35 -16.65 40.6 -16.6 39.45 L-16.55 38.4 -16.6 38.35 Q-16.9 37.85 -17.15 37.65 -17.4 37.4 -17.45 36.65 L-17.35 35.55 -17.3 34.9 -17.2 35.2 -17.2 34.95 -16.85 34.4 -16.95 34.85 Q-16.95 35.45 -15.7 36.6 -14.5 37.7 -12.35 37.65 -10.25 37.55 -9.4 36.7 L-8.2 35.3 -7.4 34.05 Q-7.0 33.35 -6.6 31.5 -6.2 29.6 -6.2 27.65 L-6.2 27.1 Q-7.8 29.75 -12.2 29.75 -13.95 29.75 -14.95 29.15 L-16.15 28.35 -16.75 27.4 -17.4 25.75 -17.4 25.1 Q-17.0 26.1 -16.25 26.75 L-16.2 26.7 -15.25 27.1 -12.65 27.4 Q-11.0 27.25 -10.2 26.75 L-8.55 25.4 Q-7.7 24.55 -7.6 21.7 L-8.2 20.0 -9.75 16.45 Q-11.4 12.9 -12.35 9.7 -17.0 -1.7 -17.0 -8.3 -17.0 -14.5 -15.55 -18.4 -13.55 -23.95 -8.05 -28.2 -4.05 -31.25 1.8 -28.4 6.2 -26.2 8.35 -23.15 9.45 -21.75 11.8 -17.5 L14.0 -13.15 13.65 -12.25 14.0 -12.25 13.3 -9.0 10.9 -4.9 M59.6 25.7 L60.35 25.65 59.25 25.7 59.6 25.7 M32.4 -15.5 L34.6 -19.85 Q36.95 -24.1 38.05 -25.5 40.2 -28.55 44.6 -30.75 50.45 -33.6 54.45 -30.55 59.95 -26.3 61.95 -20.75 63.4 -16.85 63.4 -10.65 63.4 -4.05 58.75 7.35 57.8 10.55 56.15 14.1 L54.6 17.65 54.0 19.35 Q54.1 22.2 54.95 23.05 L56.6 24.4 Q57.4 24.9 59.05 25.05 L61.65 24.75 62.6 24.35 62.65 24.4 Q63.4 23.75 63.8 22.75 L63.8 23.4 63.15 25.05 62.55 26.0 61.35 26.8 Q60.35 27.4 58.6 27.4 54.2 27.4 52.6 24.75 L52.6 25.3 Q52.6 27.25 53.0 29.15 53.4 31.0 53.8 31.7 L54.6 32.95 55.8 34.35 Q56.65 35.2 58.75 35.3 60.9 35.35 62.1 34.25 63.35 33.1 63.35 32.5 L63.25 32.05 63.6 32.6 63.6 32.85 63.7 32.55 63.75 33.2 63.85 34.3 63.55 35.3 63.0 36.0 62.95 36.05 63.0 37.1 Q63.05 38.25 61.45 40.0 59.9 41.75 57.4 41.65 L57.15 41.9 56.35 43.5 54.75 45.0 Q53.4 46.15 51.8 46.15 41.8 46.15 37.55 37.0 35.55 32.7 35.25 28.1 L35.4 25.4 Q35.55 22.75 36.5 19.15 37.45 15.55 37.75 12.15 L38.1 5.65 Q38.1 0.9 37.9 -0.7 37.4 -4.4 35.5 -7.25 34.55 -8.65 33.1 -11.35 L32.4 -14.6 32.75 -14.6 Q32.4 -15.05 32.4 -15.5 M-13.2 28.05 L-12.85 28.05 -13.95 28.0 -13.2 28.05" fill="#e57508" fill-rule="evenodd" stroke="none"/>
    </g>
    <g id="shape2" transform="matrix(1.0, 0.0, 0.0, 1.0, 22.7, 42.5)">
      <path d="M59.6 -28.3 Q70.7 -18.15 74.6 -4.9 73.3 -2.75 73.05 -1.15 72.6 -7.5 69.55 -7.5 67.4 -7.5 67.4 -5.5 67.4 -4.0 68.35 -1.4 69.2 1.2 69.3 4.3 69.3 7.4 68.25 12.55 67.15 17.65 66.7 17.75 66.2 17.85 66.7 22.7 L66.95 23.7 Q66.5 25.15 67.15 27.5 67.75 30.25 66.5 35.75 66.35 40.25 63.65 43.35 L58.35 48.7 Q55.65 50.9 48.85 50.9 L47.8 50.9 44.6 50.45 44.3 50.45 41.1 50.7 36.05 51.45 21.75 52.75 Q14.65 52.75 9.85 51.05 5.2 49.45 4.5 49.45 1.1 49.45 -1.25 50.3 -2.1 51.45 -6.25 50.75 -10.5 50.15 -13.85 46.95 -17.05 44.0 -16.8 42.9 -17.15 43.35 -18.65 40.4 -20.35 37.1 -20.35 31.3 -20.35 25.45 -19.85 20.85 L-19.4 14.75 Q-19.4 10.8 -22.6 5.8 L-22.7 5.7 Q-22.6 -5.5 -20.55 -16.7 L-19.4 -22.8 -16.5 -26.1 Q-1.15 -41.85 21.15 -42.45 43.4 -43.15 59.6 -28.3" fill="url(#gradient0)" fill-rule="evenodd" stroke="none"/>
      <path d="M9.65 -13.3 L9.7 -13.35 5.45 -17.95 Q1.8 -21.3 -1.55 -21.15 -4.85 -21.0 -6.85 -19.45 -8.8 -17.95 -11.25 -14.9 -9.35 -18.25 -7.85 -20.05 -6.3 -21.9 -3.75 -22.5 2.25 -23.95 5.35 -20.25 L9.55 -15.55 Q13.45 -10.9 13.45 -9.75 L13.05 -9.05 12.6 -8.5 12.7 -8.05 12.65 -7.8 Q12.45 -7.5 12.0 -7.5 11.55 -7.5 8.6 -9.45 5.6 -11.45 3.7 -11.45 -1.85 -11.45 -3.8 -8.5 -4.85 -6.95 -4.85 -4.25 -4.85 -0.9 -2.7 6.6 L-0.5 13.4 -0.55 13.6 Q-1.5 11.75 -3.35 9.25 L-7.9 2.55 Q-10.7 -3.4 -10.7 -6.35 -10.7 -9.35 -9.3 -13.0 -7.9 -16.7 -3.05 -17.85 L2.05 -17.5 Q4.75 -16.55 7.15 -14.3 L9.25 -12.4 9.1 -12.65 10.75 -11.25 11.2 -11.7 Q11.2 -12.05 10.0 -13.05 L9.65 -13.3 M8.45 -1.2 Q6.4 -2.75 3.35 -2.75 L2.05 -2.7 1.6 -2.45 Q-0.1 -1.8 -0.1 2.8 L0.15 6.25 0.8 12.4 -1.3 4.4 -2.2 0.05 Q-2.2 -1.9 -0.8 -3.45 1.15 -5.6 5.0 -5.4 8.5 -4.65 10.2 -2.6 11.9 -0.6 11.9 1.05 L11.75 1.4 11.3 1.65 10.85 1.2 9.1 3.8 Q7.3 6.45 7.3 8.95 7.3 14.0 9.15 19.9 11.0 25.8 11.0 29.3 11.0 35.75 7.4 40.95 4.15 44.55 -0.65 45.65 -5.45 46.7 -2.7 45.6 L-0.1 44.55 Q2.15 43.5 3.3 41.5 L5.1 37.65 6.05 34.8 Q6.4 33.35 6.4 31.35 6.4 25.15 3.9 17.75 1.4 10.4 1.4 6.1 1.6 4.15 2.45 2.3 4.15 -1.4 7.4 -1.4 L8.45 -1.2 M0.95 18.05 L2.25 20.65 Q2.75 21.65 3.75 25.75 4.7 29.8 4.1 31.95 3.35 37.1 -0.55 40.55 -4.45 43.95 -8.95 44.25 L-10.7 44.3 -11.95 43.9 -14.1 43.15 Q-15.25 42.7 -15.65 41.65 -16.1 40.55 -16.55 40.0 L-14.45 41.05 Q-12.8 41.85 -9.7 41.85 -3.6 41.85 -0.35 34.9 1.9 30.0 1.9 25.2 L1.55 22.5 1.1 20.3 0.95 19.85 0.4 18.05 -0.2 15.75 0.95 18.05 M51.45 33.6 Q53.85 36.0 57.75 36.0 59.8 36.0 61.15 34.9 L62.9 33.1 62.95 33.0 63.2 32.8 Q63.45 32.35 63.55 33.25 L63.7 34.75 62.9 35.9 Q60.9 38.15 56.3 37.5 51.75 36.8 49.95 34.05 L47.95 30.6 Q47.7 29.95 47.2 25.2 L48.3 28.65 Q49.5 31.7 51.1 33.1 L51.45 33.6 M45.3 17.9 L44.85 20.1 Q44.5 22.15 44.5 22.8 44.5 27.6 46.75 32.5 50.0 39.45 56.1 39.45 59.2 39.45 60.85 38.65 L62.95 37.6 62.05 39.25 Q61.65 40.3 60.5 40.75 L58.35 41.5 57.1 41.9 55.35 41.85 Q50.85 41.55 46.95 38.15 43.05 34.7 42.3 29.55 41.7 27.4 42.65 23.35 43.65 19.25 44.15 18.25 L45.45 15.65 46.6 13.35 46.0 15.65 45.45 17.45 45.3 17.9 M55.05 9.75 L55.05 9.9 53.65 13.15 Q52.25 16.25 52.25 19.2 52.25 21.3 52.8 22.75 L53.05 23.3 Q53.2 24.0 54.1 24.75 55.6 26.0 58.05 26.0 60.95 26.0 63.15 24.8 L63.15 24.9 Q63.15 25.55 61.55 26.5 L60.1 27.2 59.5 27.2 54.9 26.75 53.4 25.95 Q53.15 25.2 52.45 25.0 L51.3 22.5 51.1 22.1 50.75 20.85 Q50.55 19.8 50.65 18.3 50.75 16.75 52.55 13.85 L55.05 9.75 M34.65 -1.0 Q34.5 -1.2 34.5 -1.35 34.5 -3.0 36.2 -5.0 37.9 -7.05 41.4 -7.8 45.25 -8.0 47.2 -5.85 48.6 -4.3 48.6 -2.35 L47.7 2.0 45.6 10.0 Q46.0 4.85 46.25 3.85 L46.5 0.4 Q46.5 -4.2 44.8 -4.85 44.6 -5.0 44.35 -5.1 L43.05 -5.15 Q40.0 -5.15 37.95 -3.6 L39.0 -3.8 Q42.25 -3.8 43.95 -0.1 44.8 1.75 45.0 3.7 45.0 8.0 42.5 15.35 40.0 22.75 40.0 28.95 40.0 30.95 40.35 32.4 L41.3 35.25 43.1 39.1 Q44.25 41.1 46.5 42.15 L49.1 43.2 Q51.85 44.3 47.05 43.25 42.25 42.15 39.0 38.55 35.4 33.35 35.4 26.9 35.4 23.4 37.25 17.5 39.1 11.6 39.1 6.55 39.1 4.05 37.3 1.4 L35.55 -1.2 35.1 -0.75 Q34.8 -0.75 34.65 -1.0 M35.45 -13.35 L35.9 -12.9 37.55 -14.3 37.4 -14.05 39.5 -15.95 Q41.9 -18.2 44.6 -19.15 L49.7 -19.5 Q54.55 -18.35 55.95 -14.65 57.35 -11.0 57.35 -8.0 57.35 -5.05 54.55 0.9 L50.0 7.6 Q48.15 10.1 47.2 11.95 L47.15 11.75 49.35 4.95 Q51.5 -2.55 51.5 -5.9 51.5 -8.6 50.45 -10.15 48.5 -13.1 42.95 -13.1 41.05 -13.1 38.05 -11.1 35.1 -9.15 34.65 -9.15 34.2 -9.15 34.0 -9.45 L33.95 -9.7 34.05 -10.15 33.6 -10.7 33.2 -11.4 Q33.2 -12.55 37.1 -17.2 L41.3 -21.9 Q44.4 -25.6 50.4 -24.15 52.95 -23.55 54.5 -21.7 56.0 -19.9 57.9 -16.55 55.45 -19.6 53.5 -21.1 51.5 -22.65 48.2 -22.8 44.85 -22.95 41.2 -19.6 L36.95 -15.0 37.0 -14.95 36.65 -14.7 Q35.45 -13.7 35.45 -13.35 M-8.65 12.15 L-6.15 16.25 Q-4.35 19.15 -4.25 20.7 -4.15 22.2 -4.35 23.25 L-4.7 24.5 -4.9 24.9 -6.05 27.4 Q-6.75 27.6 -7.0 28.35 L-8.5 29.15 -13.1 29.6 -13.7 29.6 -15.15 28.9 Q-16.75 27.95 -16.75 27.3 L-16.75 27.2 Q-14.55 28.4 -11.65 28.4 -9.2 28.4 -7.7 27.15 -6.8 26.4 -6.65 25.7 L-6.4 25.15 Q-5.85 23.7 -5.85 21.6 -5.85 18.65 -7.25 15.55 L-8.65 12.3 -8.65 12.15 M-1.9 31.05 L-0.8 27.6 Q-1.3 32.35 -1.55 33.0 L-3.55 36.45 Q-5.35 39.2 -9.9 39.9 -14.5 40.55 -16.5 38.3 L-17.3 37.15 -17.15 35.65 Q-17.05 34.75 -16.8 35.2 -16.7 35.25 -16.55 35.4 L-16.5 35.5 Q-15.55 36.85 -14.75 37.3 -13.4 38.4 -11.35 38.4 -7.45 38.4 -5.05 36.0 L-4.7 35.5 Q-3.1 34.1 -1.9 31.05" fill="#a64420" fill-opacity="0.6" fill-rule="evenodd" stroke="none"/>
      <path d="M33.15 -12.85 Q33.7 -15.05 37.85 -21.7 41.95 -28.4 48.05 -28.7 54.1 -29.05 57.15 -24.45 60.2 -19.9 60.8 -10.0 60.45 -0.45 54.1 10.0 51.25 17.4 50.95 16.65 50.6 15.9 50.6 18.65 L50.9 23.0 51.35 24.35 51.05 24.65 39.05 37.7 38.7 36.45 Q36.65 29.55 36.65 23.45 L37.25 18.1 37.8 13.25 Q38.9 8.6 38.9 5.65 38.9 4.6 37.9 -0.25 36.7 -5.85 35.15 -7.95 33.6 -10.1 33.15 -12.85" fill="url(#gradient1)" fill-rule="evenodd" stroke="none"/>
      <path d="M13.45 -10.15 Q13.0 -7.4 11.45 -5.25 9.9 -3.15 8.7 2.45 7.7 7.3 7.7 8.35 7.7 11.3 8.8 15.95 L9.35 20.8 9.95 26.15 Q9.95 32.25 7.9 39.15 L7.55 40.4 -4.45 27.35 -4.75 27.05 Q-4.45 26.45 -4.3 25.7 L-4.0 21.35 Q-4.0 18.6 -4.35 19.35 -4.65 20.1 -7.5 12.7 -13.85 2.25 -14.2 -7.3 -13.6 -17.2 -10.55 -21.75 -7.5 -26.35 -1.45 -26.0 4.65 -25.7 8.75 -19.0 12.9 -12.35 13.45 -10.15" fill="url(#gradient2)" fill-rule="evenodd" stroke="none"/>
    </g>
    <linearGradient gradientTransform="matrix(-0.002, -0.0636, 0.0657, -0.0018, 22.75, 9.6)" gradientUnits="userSpaceOnUse" id="gradient0" spreadMethod="pad" x1="-819.2" x2="819.2">
      <stop offset="0.0" stop-color="#b14015" stop-opacity="0.9019608"/>
      <stop offset="0.5882352941176471" stop-color="#b14015" stop-opacity="0.0"/>
    </linearGradient>
    <linearGradient gradientTransform="matrix(0.0, 0.0514, -0.0526, 0.0, 23.25, 7.3)" gradientUnits="userSpaceOnUse" id="gradient1" spreadMethod="pad" x1="-819.2" x2="819.2">
      <stop offset="0.0" stop-color="#b14015" stop-opacity="0.69411767"/>
      <stop offset="0.7450980392156863" stop-color="#b14015" stop-opacity="0.0"/>
    </linearGradient>
    <linearGradient gradientTransform="matrix(0.0, 0.0514, 0.0526, 0.0, 23.35, 10.0)" gradientUnits="userSpaceOnUse" id="gradient2" spreadMethod="pad" x1="-819.2" x2="819.2">
      <stop offset="0.0" stop-color="#b14015" stop-opacity="0.69411767"/>
      <stop offset="0.7450980392156863" stop-color="#b14015" stop-opacity="0.0"/>
    </linearGradient>
  </defs>
</svg>
