<svg xmlns="http://www.w3.org/2000/svg" xmlns:ffdec="https://www.free-decompiler.com/flash" xmlns:xlink="http://www.w3.org/1999/xlink" ffdec:objectType="frame" width="65.7" height="60.55"><use ffdec:characterId="1" xlink:href="#a" width="65.7" height="60.55"/><defs><radialGradient id="b" cx="0" cy="0" r="819.2" gradientTransform="matrix(-.012 -.0376 -.0376 .012 26.7 23.65)" gradientUnits="userSpaceOnUse" spreadMethod="pad"><stop offset=".212" stop-color="#333"/><stop offset="1" stop-color="#101010"/><stop offset="1" stop-color="#412c6b"/></radialGradient><radialGradient id="c" cx="0" cy="0" r="819.2" gradientTransform="matrix(-.012 -.0376 -.0376 .012 26.2 23.3)" gradientUnits="userSpaceOnUse" spreadMethod="pad"><stop offset=".212" stop-color="#333"/><stop offset="1" stop-color="#101010"/><stop offset="1" stop-color="#412c6b"/></radialGradient><radialGradient id="d" cx="0" cy="0" r="819.2" gradientTransform="matrix(-.012 -.0376 -.0376 .012 27.7 23.2)" gradientUnits="userSpaceOnUse" spreadMethod="pad"><stop offset=".212" stop-color="#333"/><stop offset="1" stop-color="#101010"/><stop offset="1" stop-color="#412c6b"/></radialGradient><g id="a" fill-rule="evenodd"><path d="m35.05 4 .6-.1 3.8-.05.4.05.15.05h.15q1.9.45 4.05 1.85-.65-1.15-6.65-3.25 3.75-.05 6.9 2.1 2.35 1.6 4.05 4.25l.55.95q-1.4-1.9-6.25-4.1l-2.3-.9-.75-.15-.95-.25L35.1 4zM50.7 28.25l-.15-1.3-.75-4.9q-.1.75-.35-.8l-.75-2.75-.2-.45-.4-.9.3.75-1.2-2.45.05.05.4.35.5.65v.05q1.05 1.55 2.4 5 2.65 6.8 3.25 14.75.25 2.05 0 5.5-.85 10.9-5.95 17.45l-.6.8q1.55-2.35 2.85-7.2l1.05-5.2.15-2v-.9q-.2-5.8-1.45-9.55 1.2-2.35.85-6.8zm13.6 2q.25 2.55-.4 4.4 0-4.6-3.05-10.95-3-6.1-5.65-7.75 1.65.95 3.15 2.4 1.6 1.45 2.4 2.85-.3-3.05-1.85-4.25 2.35 1.65 4.25 5.5 2.4 4.95 1.55 9.75-.1-3.95-1.2-5.5.6 1.5.8 3.55m-4 2.55q.9.7 1.65 2 .15 3.1.55 4.5.6 2.4 2.45 4.15H63.8q-.7-.15-1.45-1l-.25-.4v.05l-.15-.2q.1 1.75 2.05 3.25l-2.05.15-1.15-.35h-.1l-.15-.1-1.1-.85q.2 1.35.65 1.9l.65.75-.95-.2q-2.2-.65-3.7-2.35v-.05h-.05l.05-.8.05-3.15-.55-3.6q.5.7.8 1.75.7 2.3.4 4.75 2.3-3.45 1.9-6.25l-.5-1.95.6.95q.8 1.75.6 4.15 1.05-2.1 1.3-4 .25-1.95-.4-3.1M47.2 15.4v.05zM31 16.45l-.1 1.65q-.2 4.55.3 9.4v.5q.15 2.4 1.85 10.1 1.7 7.35 2.3 8.45-4.45-6.4-5.75-14.7-1.3-7.9.8-13.95zm5.2 12.4v.6q-.05 1.9 1.15 4.95 1.15 3 2.45 4.5-3.8-2.85-4.35-8.1-.4-3.75.6-6-.2 2.2.2 4.15zm4.55-5.25-.2 1.25q-.45 3.4.2 5.9l.05 2.6q.1 2.5 1.15 4.85-1.3-1.55-2.2-5.45-1.15-5 .4-8.2zM20.5 18.2v.1l-.25 1.65-.25 1.9-.35 6.1v.45q-1.3 5.5-1.4 8.55-.05 1.95.5 4.1.45 2.1 1.25 3.6-3.1-2.5-3.85-7.75.7 6 2 11.45.7 3 1.4 4.35-.75-.2-1.7-1.8l-1.25-2.05-1.25-2.8-.85-3.1q-1.15-5.2-.9-11.4.25-5.35 1.25-8-.15.55-.05 1.4l.45 2.75q0-2.6 2.65-7.1l3.55-5.2q-.55 1.05-.95 2.8m2.7 1.3.55-.9-.55 1 .05 2.75.2 3.4.05 1.1q.35 7.95 1.75 12.9.8 3.1 1.75 4.55l-.3-.4-.85-1.4q-2.95-4.75-4.05-9.85-1.25-6.1 1.4-14.05zm-8.75 31.85.2.5-.7 2.55-.1.35-.05.1.25-1 .1-.6.05-.95.2-1.15z"/><path fill="#adadad" d="M48.55 32q.1 5.05-1.8 8.4 1.5-3 .95-8.3-1.65.1-.25-1.65-.65-4.05-2.15-8-1.45-3.7-2.8-5.2 3.15 2.3 4.8 7.35.95 2.75 1.2 5.85l.05 1.5zM10.1 26.9l-.1 1.25q-.25 2.2-.25 4.5l.15-2.15.1-.55q.2 6.65 2.05 13.85l1.9 4.45q.4 1.35.4 2.8l-.15 1.15-.5-2.7v-.1l-.05-.2-.3-.95-.15-.25-1.4-2.25q-.95-1.7-1.45-3.85-1.7-3.3-1.35-9.45.3-5.4 1.6-8.35z"/><path fill="url(#b)" d="M27.3-1.85h.05l3.7.45.95.25.75.15 2.3.9Q39.9 2.1 41.3 4l-.55-.95q2.15 1.8 3.85 4.25l1.25 1.85 4.55 10.6.05.35q1 4.85.6 9.8l-.6-.95.5 1.95q-.45 3.45-1.25 4.5.5-.95.5-3.6.05-2.15-.25-4.25l-.65 2-.65 2.85q-.3-1.05-.8-1.75l.55 3.6-.05 3.15-.05.8q-.15 9.25-8.3 15.35l.1-.15q5.1-6.55 5.95-17.45.25-3.45 0-5.5-.6-7.95-3.25-14.75-1.35-3.45-2.4-5v-.05l-.5-.65-.45-.4v-.05h-.05V9.5q-2.6-4.05-8.35-6.85Q25.15-.15 19-.15q3.4-2 8.3-1.7" transform="translate(7.75 5.85)"/><path fill="url(#c)" d="M27.3-1.85q-4.9-.3-8.3 1.7l-3.15.2Q11.65 1.1 7.7 7.2q-3.35 5.25-4.85 11.05-1.3 2.95-1.6 8.35-.35 6.15 1.35 9.45.5 2.15 1.45 3.85l1.4 2.25q.6 1.1.85 2.6l.15 1.35-.35 1.5.35-1.15-.05.95-.1.6-.25 1-.5.95q1.15-3.5-2.9-10.4Q-2.15 31.3-.5 23.5q-.5 1.3-2.35 1.9-2.35.75-4.9-.85 3.75-.3 6.3-5.55 2.95-7.45 5.2-11.95Q7.1.35 15.8-2.25q3.1-.95 6.05-1.05 2.6-.1 3.25.45-.2-1.3-4.35-1.75-4.4-.5-4.9-1.25.55.7 6.45.7l10.3-.1q4.05.05 6.3 2.25 1.45 1.45 2.95 5.05Q42.1 1 41.6-.5l-1.05-2.9Q43-2.15 43.85.7q.7 2.35.1 4.6 1.8-2.25 4.45-1.55Q50 4.2 52.35 6l-2.1-.1-2.7.55q4.2-.15 6.55 2.15 1.7 1.7 2.05 4.05-.6-1.05-2.7-2.05-1.8-.8-2.35-.75 6.2 3 6.8 11.95.45 7.1-2 12.25-.35-3.25-1.7-5.1-.75-1.3-1.65-2 .65 1.15.4 3.1-.25 1.9-1.3 4 .2-2.4-.6-4.15.4-4.95-.6-9.8l-.05-.35-4.55-10.6L44.6 7.3q-1.7-2.45-3.85-4.25Q39.05.4 36.7-1.2q-3.15-2.15-6.9-2.1 6 2.1 6.65 3.25-2.15-1.4-4.05-1.85h-.15l-.15-.05-.4-.05-3.8.05zM48.65 32.4l.65-2.85.65-2q.3 2.1.25 4.25 0 2.65-.5 3.6.8-1.05 1.25-4.5.4 2.8-1.9 6.25.3-2.45-.4-4.75m7.9-8q-.2-2.05-.8-3.55 1.1 1.55 1.2 5.5.85-4.8-1.55-9.75-1.9-3.85-4.25-5.5 1.55 1.2 1.85 4.25-.8-1.4-2.4-2.85-1.5-1.45-3.15-2.4 2.65 1.65 5.65 7.75 3.05 6.35 3.05 10.95.65-1.85.4-4.4" transform="translate(7.75 5.85)"/><path fill="url(#d)" d="M19-.15q6.15 0 12.05 2.8 5.75 2.8 8.35 6.85v.05h.05v.05l.05.05-.05-.05 1.35 2.45q.7 1.55.3.95l1.05 3.4.35 1.8.3 2.1.1 1.65.25 2.75q.15 2.3-1.05 4.65l-.1.15q-.95 3-3 5.05 1.9-3.35 1.8-8.35l-.05-1.6q-.25-3.1-1.2-5.85-1.65-5.05-4.8-7.35 1.35 1.5 2.8 5.2 1.5 3.95 2.15 8l.05.3q.95 6.3-.75 9.65.05-1.35-2.05-3.5-2.65-2.7-3.95-6.15-.65-2.5-.2-5.9l.2-1.25-.6.95q-1.55 3.2-.4 8.2.9 3.9 2.2 5.45l-2.6-2.3q-1.9-2.4-3.1-6.95-.4-1.95-.2-4.15-1 2.25-.6 6 .55 5.25 4.35 8.1-3.1-.7-5.55-3.95-2.5-3.25-3.05-7.45-.5-4.85-.3-9.4l.1-1.65-.6 1.45q-2.1 6.05-.8 13.95 1.3 8.3 5.75 14.7-3.05-1.05-7-7.75-4-6.85-4.9-13.05l-.2-3.4-.05-2.75.55-1-.55.9v-.9q-2.65 7.95-1.4 14.05 1.1 5.1 4.05 9.85l.85 1.4.3.4.1.15q-6.9-3.5-7.45-16.25v-.25l.35-6.1.25-1.9.25-1.65v-.1q.4-1.75.95-2.8l-3.55 5.2q-2.65 4.5-2.65 7.1l-.45-2.75q-.1-.85.05-1.4-1 2.65-1.25 8-.25 6.2.9 11.4l.85 3.1L8.85 43q2.6 10.75 5.5 11.7-4.05-.95-7.35-8.45l-.3-.75-.25.95-.35 1.15.35-1.5.15-.9q0-1.45-.4-2.8l-1.9-4.45Q1.9 33 1.85 29.1l.1-5.85q.1-1.9.9-5 1.5-5.8 4.85-11.05 3.95-6.1 8.15-7.15z" transform="translate(7.75 5.85)"/></g></defs></svg>