<?xml version="1.0" encoding="UTF-8" standalone="no"?>
<svg xmlns:ffdec="https://www.free-decompiler.com/flash" xmlns:xlink="http://www.w3.org/1999/xlink" ffdec:objectType="frame" height="80.45px" width="69.7px" xmlns="http://www.w3.org/2000/svg">
  <g transform="matrix(1.0, 0.0, 0.0, 1.0, 6.55, 16.55)">
    <use ffdec:characterId="3" height="50.75" transform="matrix(1.0, 0.0, 0.0, 1.0, 0.15, 0.0)" width="53.3" xlink:href="#shape0"/>
    <clipPath id="clipPath0" transform="matrix(1.0, 0.0, 0.0, 1.0, 0.0, 0.0)">
      <path d="M49.2 10.8 Q53.8 18.7 53.45 30.75 53.3 39.35 51.5 44.75 49.55 50.65 46.2 50.6 47.9 49.15 48.1 46.8 46.0 49.7 42.4 50.2 L38.3 50.0 Q46.25 46.35 45.95 30.75 L45.65 25.75 Q43.1 26.3 40.15 23.8 38.25 22.2 36.85 20.0 37.4 22.95 39.45 24.8 40.9 26.2 42.8 26.75 34.75 28.8 31.75 24.8 28.65 20.8 28.05 18.5 L27.4 15.65 Q27.95 22.05 30.05 24.3 32.1 26.55 33.25 27.0 L29.45 27.3 Q24.55 27.15 22.5 24.35 20.4 21.55 20.45 18.85 L20.45 17.35 Q19.7 21.05 20.7 23.3 21.65 25.55 24.0 27.3 15.3 25.55 14.05 21.55 13.15 18.75 13.6 17.25 12.45 19.5 12.35 21.8 12.25 24.7 13.1 26.2 10.0 24.45 9.15 21.3 L8.95 22.95 8.8 25.65 9.0 27.95 9.15 29.3 9.25 30.0 7.8 28.15 7.25 27.2 6.85 31.05 Q6.5 35.1 8.1 42.0 9.7 48.9 14.95 49.95 13.4 51.1 11.0 50.55 8.15 49.85 5.9 46.75 6.1 49.1 7.05 50.55 1.9 48.0 0.6 39.35 0.15 36.4 0.15 26.4 0.15 19.8 2.55 13.7 5.85 5.35 12.55 2.55 18.2 0.15 26.95 0.0 36.25 0.15 42.2 3.45 46.25 5.7 49.2 10.8" fill="#623a3a" fill-rule="evenodd" stroke="none"/>
    </clipPath>
    <g clip-path="url(#clipPath0)">
      <use ffdec:characterId="5" height="80.45" transform="matrix(1.0, 0.0, 0.0, 1.0, -6.55, -16.55)" width="69.7" xlink:href="#shape2"/>
    </g>
  </g>
  <defs>
    <g id="shape0" transform="matrix(1.0, 0.0, 0.0, 1.0, -0.15, 0.0)">
      <path d="M53.45 30.75 Q53.3 39.35 51.5 44.75 49.55 50.65 46.2 50.6 47.9 49.15 48.1 46.8 46.0 49.7 42.4 50.2 L38.3 50.0 Q46.25 46.35 45.95 30.75 L45.65 25.75 Q43.1 26.3 40.15 23.8 38.25 22.2 36.85 20.0 37.4 22.95 39.45 24.8 40.9 26.2 42.8 26.75 34.75 28.8 31.75 24.8 28.65 20.8 28.05 18.5 L27.4 15.65 Q27.95 22.05 30.05 24.3 32.1 26.55 33.25 27.0 L29.45 27.3 Q24.55 27.15 22.5 24.35 20.4 21.55 20.45 18.85 L20.45 17.35 Q19.7 21.05 20.7 23.3 21.65 25.55 24.0 27.3 15.3 25.55 14.05 21.55 13.15 18.75 13.6 17.25 12.45 19.5 12.35 21.8 12.25 24.7 13.1 26.2 10.0 24.45 9.15 21.3 L8.95 22.95 8.8 25.65 9.0 27.95 9.15 29.3 9.25 30.0 7.8 28.15 7.25 27.2 6.85 31.05 Q6.5 35.1 8.1 42.0 9.7 48.9 14.95 49.95 13.4 51.1 11.0 50.55 8.15 49.85 5.9 46.75 6.1 49.1 7.05 50.55 1.9 48.0 0.6 39.35 0.15 36.4 0.15 26.4 0.15 19.8 2.55 13.7 5.85 5.35 12.55 2.55 18.2 0.15 26.95 0.0 36.25 0.15 42.2 3.45 46.25 5.7 49.2 10.8 53.8 18.7 53.45 30.75" fill="#ff7f7e" fill-rule="evenodd" stroke="none"/>
    </g>
    <g id="shape2" transform="matrix(1.0, 0.0, 0.0, 1.0, 6.55, 16.55)">
      <path d="M27.65 -16.55 Q35.75 -16.55 41.4 -10.8 43.1 -9.2 44.25 -7.4 47.15 -2.8 47.15 2.95 47.15 11.0 41.4 16.75 35.75 22.45 27.65 22.45 23.5 22.45 20.1 20.95 16.65 19.5 13.9 16.75 8.15 11.0 8.15 2.95 8.15 -5.15 13.9 -10.8 19.65 -16.55 27.65 -16.55" fill="url(#gradient0)" fill-rule="evenodd" stroke="none"/>
      <path d="M24.05 38.6 Q26.55 42.45 26.55 47.35 26.55 54.15 21.6 59.05 16.85 63.9 10.0 63.9 6.45 63.9 3.6 62.65 0.6 61.4 -1.7 59.05 -6.55 54.15 -6.55 47.35 -6.55 40.45 -1.7 35.65 3.2 30.8 10.0 30.8 16.85 30.8 21.6 35.65 23.1 37.0 24.05 38.6" fill="url(#gradient1)" fill-rule="evenodd" stroke="none"/>
      <path d="M60.65 38.6 Q63.15 42.45 63.15 47.35 63.15 54.15 58.2 59.05 53.45 63.9 46.6 63.9 43.05 63.9 40.2 62.65 37.2 61.4 34.9 59.05 30.05 54.15 30.05 47.35 30.05 40.45 34.9 35.65 39.8 30.8 46.6 30.8 53.45 30.8 58.2 35.65 59.7 37.0 60.65 38.6" fill="url(#gradient2)" fill-rule="evenodd" stroke="none"/>
      <path d="M39.3 14.9 L39.4 15.0 28.7 16.8 19.9 17.4 Q9.25 17.75 3.0 16.05 L1.3 15.55 0.0 14.3 Q2.8 10.0 2.95 10.0 4.4 11.45 9.75 12.8 17.15 14.65 28.7 14.95 L39.3 14.9" fill="#ffe9f3" fill-opacity="0.49803922" fill-rule="evenodd" stroke="none"/>
      <path d="M43.2 22.65 L39.75 15.15 42.5 18.9 44.2 20.35 Q43.1 17.3 41.4 14.5 L37.0 8.55 37.4 8.85 Q41.85 12.55 45.05 17.4 46.65 19.75 47.65 23.55 48.6 27.05 48.6 29.85 48.6 32.1 47.85 35.8 47.1 39.7 46.3 41.1 44.85 43.5 42.2 46.8 L39.4 49.4 38.6 48.65 38.4 47.6 Q38.4 47.3 42.2 41.9 46.0 36.55 46.0 30.95 L45.85 27.4 45.6 27.4 Q44.4 27.4 43.7 24.9 L43.25 22.7 43.2 22.65 M42.9 26.75 L42.0 27.0 Q39.45 26.8 37.5 25.55 36.0 24.55 35.1 23.35 34.0 21.75 33.3 20.0 32.7 18.45 32.6 16.8 L32.7 14.4 32.95 12.45 Q34.7 15.55 36.1 18.75 L38.1 22.65 38.65 23.55 Q40.05 23.8 41.2 24.7 L42.35 25.6 42.9 26.75 M50.1 44.45 Q48.4 51.4 38.1 51.4 41.1 50.35 44.05 47.5 49.85 41.95 49.95 33.45 L50.35 38.45 Q50.65 42.1 50.1 44.45 M4.85 23.0 Q5.65 18.45 7.65 14.2 L9.95 10.2 8.15 14.8 Q6.2 20.4 6.15 26.35 6.15 30.1 6.8 33.85 7.45 37.9 9.1 41.7 L11.15 46.9 10.4 47.35 8.9 45.9 Q6.5 42.1 5.45 37.5 4.8 34.65 4.5 32.05 4.0 27.55 4.85 23.0 M9.05 18.35 Q8.95 19.75 9.2 21.1 9.8 24.25 9.75 27.45 9.75 29.1 10.3 30.5 L9.7 30.75 9.15 30.1 Q7.55 26.75 7.45 23.0 7.3 18.35 9.95 14.65 L9.05 18.35 M26.9 14.65 L27.2 16.75 28.85 20.7 Q31.5 26.1 36.45 29.5 L35.75 29.45 Q31.05 28.65 27.8 25.3 27.1 24.55 26.8 23.7 25.3 19.15 26.9 14.65 M12.5 14.95 Q14.4 12.15 16.95 10.0 13.7 15.25 13.3 21.3 13.15 23.8 13.5 26.4 L13.45 26.75 13.25 26.9 13.1 27.1 12.7 27.1 12.35 27.05 11.95 26.3 11.15 23.9 Q9.8 19.1 12.5 14.95 M3.25 44.2 Q2.8 42.05 3.05 38.65 L3.4 34.15 Q3.55 41.95 8.4 47.0 10.9 49.65 13.4 50.6 4.7 50.6 3.25 44.2 M23.6 26.85 Q19.95 26.3 18.5 21.95 16.9 17.15 20.8 13.45 19.55 17.55 20.7 21.75 21.45 24.65 23.55 26.7 L23.6 26.85" fill="#e93937" fill-opacity="0.7411765" fill-rule="evenodd" stroke="none"/>
    </g>
    <radialGradient cx="0" cy="0" gradientTransform="matrix(0.0245, 0.0, 0.0, 0.0245, 27.65, 2.95)" gradientUnits="userSpaceOnUse" id="gradient0" r="819.2" spreadMethod="pad">
      <stop offset="0.0" stop-color="#fff8db" stop-opacity="0.23137255"/>
      <stop offset="1.0" stop-color="#ffffff" stop-opacity="0.0"/>
    </radialGradient>
    <radialGradient cx="0" cy="0" gradientTransform="matrix(0.0208, 0.0, 0.0, 0.0208, 10.0, 47.35)" gradientUnits="userSpaceOnUse" id="gradient1" r="819.2" spreadMethod="pad">
      <stop offset="0.0" stop-color="#de2e2c" stop-opacity="0.34509805"/>
      <stop offset="1.0" stop-color="#de2e2c" stop-opacity="0.0"/>
    </radialGradient>
    <radialGradient cx="0" cy="0" gradientTransform="matrix(0.0208, 0.0, 0.0, 0.0208, 46.6, 47.35)" gradientUnits="userSpaceOnUse" id="gradient2" r="819.2" spreadMethod="pad">
      <stop offset="0.0" stop-color="#de2e2c" stop-opacity="0.34509805"/>
      <stop offset="1.0" stop-color="#de2e2c" stop-opacity="0.0"/>
    </radialGradient>
  </defs>
</svg>
