<?xml version="1.0" encoding="UTF-8" standalone="no"?>
<svg xmlns:ffdec="https://www.free-decompiler.com/flash" xmlns:xlink="http://www.w3.org/1999/xlink" ffdec:objectType="frame" height="51.95px" width="72.0px" xmlns="http://www.w3.org/2000/svg">
  <g transform="matrix(1.0, 0.0, 0.0, 1.0, 8.5, 14.05)">
    <use ffdec:characterId="3" height="51.95" transform="matrix(1.0, 0.0, 0.0, 1.0, -8.5, -14.05)" width="72.0" xlink:href="#shape0"/>
  </g>
  <defs>
    <g id="shape0" transform="matrix(1.0, 0.0, 0.0, 1.0, 8.5, 14.05)">
      <path d="M59.7 -2.85 L59.65 -2.9 59.6 -2.95 59.7 -2.85" fill="url(#gradient0)" fill-rule="evenodd" stroke="none"/>
      <path d="M6.1 -0.6 Q12.65 -5.6 18.75 -6.85 L18.9 -6.9 19.05 -6.85 19.25 -6.9 21.35 -7.2 25.5 -6.9 Q26.9 -6.5 27.5 -6.1 28.1 -6.5 29.5 -6.9 L33.65 -7.2 35.75 -6.9 35.95 -6.85 36.1 -6.9 36.25 -6.85 Q42.35 -5.6 48.9 -0.6 L53.35 4.35 Q55.5 6.6 56.1 8.85 L56.25 9.3 Q57.0 11.95 57.15 15.95 L57.3 19.25 57.4 21.65 Q57.2 21.8 57.4 21.9 L57.4 22.0 Q56.9 24.9 55.85 27.35 L54.65 30.8 Q52.95 35.05 51.1 37.9 52.25 35.7 53.2 28.1 52.7 31.4 50.5 34.4 49.25 36.1 48.1 37.0 48.7 36.5 48.8 34.8 48.55 34.0 47.3 32.65 L46.1 31.5 Q46.7 31.0 47.1 28.9 46.8 29.8 45.5 30.8 45.3 26.5 44.95 24.5 L44.05 21.4 Q44.5 23.5 43.45 26.85 L42.3 29.8 Q42.15 28.5 42.35 27.1 42.45 25.95 42.2 24.95 41.7 26.75 41.0 27.8 40.2 29.25 38.85 30.0 L37.7 30.5 Q37.95 26.4 37.3 21.55 L37.05 19.95 36.55 19.05 35.3 22.1 34.05 24.65 Q32.9 26.95 31.25 28.6 L28.65 29.8 28.65 29.75 31.3 26.5 Q32.3 25.15 32.85 23.35 L33.1 22.55 33.0 22.7 32.2 24.05 Q30.8 26.2 27.2 29.2 25.2 30.6 25.2 31.6 23.25 29.65 22.7 27.7 21.5 23.65 21.45 22.8 L21.5 24.8 Q21.6 26.95 22.0 28.0 22.5 29.25 23.1 29.9 L21.1 29.1 19.7 27.2 18.95 24.45 Q18.25 21.05 18.65 17.95 L17.6 22.9 Q16.9 27.05 17.1 30.5 L15.2 29.25 Q13.2 27.4 12.7 24.6 L12.45 23.6 12.25 22.85 12.6 29.9 Q11.8 28.4 11.2 26.2 10.05 21.75 11.15 18.2 8.95 23.9 9.3 30.8 8.0 29.8 7.7 28.9 L8.0 30.0 Q8.35 31.2 8.7 31.5 L7.5 32.65 Q6.25 34.0 6.0 34.8 L6.15 35.7 Q6.35 36.7 6.7 37.0 L4.55 34.65 Q2.25 31.6 1.6 28.1 2.55 35.7 3.7 37.9 1.85 35.05 0.2 30.8 L-1.45 25.75 -2.4 22.0 -2.4 21.9 Q-2.2 21.8 -2.4 21.65 L-2.35 20.8 Q-2.6 18.05 -2.3 15.5 L-2.1 15.45 Q-1.95 11.75 -1.25 9.3 L-1.1 8.85 Q-0.5 6.6 1.65 4.35 L6.1 -0.6" fill="url(#gradient1)" fill-rule="evenodd" stroke="none"/>
      <path d="M5.9 -8.95 L7.5 -9.15 9.45 -9.1 Q11.0 -8.95 11.65 -8.45 L15.3 -8.25 17.45 -7.75 17.9 -7.6 18.2 -7.4 18.75 -7.0 18.9 -6.9 Q12.7 -5.65 6.1 -0.6 L1.65 4.35 Q-0.5 6.6 -1.1 8.85 L-1.25 9.3 Q-2.0 11.95 -2.15 15.95 L-2.4 21.65 -2.5 21.55 -2.45 21.75 -2.75 21.6 -3.35 21.1 -4.1 20.3 -4.6 19.0 -4.85 17.4 -4.9 16.15 -4.75 15.75 -4.75 16.0 -4.75 16.35 -4.6 15.7 -4.65 15.6 -4.65 15.4 Q-5.95 14.45 -7.05 12.55 -8.5 10.0 -8.5 7.5 L-8.3 6.25 -8.4 5.8 -8.25 4.3 -7.7 2.05 -7.7 2.3 -7.0 0.75 -6.55 -0.6 -5.4 -2.45 -5.3 -2.55 -5.1 -2.7 -5.05 -2.75 -5.0 -2.75 -4.95 -2.8 -4.8 -2.8 -4.85 -2.3 -4.6 -2.8 -4.35 -3.4 -4.25 -3.4 -3.0 -5.0 Q-2.05 -5.9 -0.85 -6.05 L-0.05 -6.85 -0.7 -6.65 Q0.2 -7.3 1.65 -7.75 L3.0 -8.05 3.25 -8.1 4.15 -8.1 4.3 -8.2 4.25 -8.2 4.35 -8.35 Q4.45 -8.6 4.9 -8.7 L5.9 -8.95 M-4.1 -3.15 L-4.05 -3.15 -4.0 -3.2 -4.1 -3.15" fill="url(#gradient2)" fill-rule="evenodd" stroke="none"/>
      <path d="M36.25 -7.0 L36.8 -7.4 37.1 -7.6 37.55 -7.75 Q38.4 -8.2 39.7 -8.25 L43.35 -8.45 Q44.0 -8.95 45.55 -9.1 L47.5 -9.15 49.1 -8.95 50.1 -8.7 50.65 -8.35 50.75 -8.2 50.7 -8.2 50.85 -8.1 51.75 -8.1 52.0 -8.05 53.35 -7.75 Q54.8 -7.3 55.7 -6.65 L55.05 -6.85 55.85 -6.05 Q57.05 -5.9 58.0 -5.0 L59.25 -3.4 59.35 -3.4 59.6 -2.8 59.85 -2.3 59.8 -2.8 59.85 -2.8 59.95 -2.8 60.0 -2.75 60.05 -2.75 60.1 -2.7 60.3 -2.55 60.35 -2.5 60.4 -2.45 61.55 -0.6 62.0 0.75 62.7 2.3 62.7 2.05 63.25 4.3 63.4 5.8 63.3 6.25 63.5 7.5 Q63.5 10.0 62.05 12.55 60.95 14.45 59.65 15.4 L59.65 15.6 59.6 15.7 59.75 16.35 59.75 16.0 59.75 15.75 59.9 16.15 59.85 17.4 59.6 19.0 59.1 20.3 58.35 21.1 57.75 21.6 57.45 21.75 57.5 21.55 57.4 21.65 57.15 15.95 Q57.0 11.95 56.25 9.3 L56.1 8.85 Q55.5 6.6 53.35 4.35 L48.9 -0.6 Q42.3 -5.65 36.1 -6.9 L36.25 -7.0 M59.0 -3.2 L59.05 -3.15 59.1 -3.15 59.0 -3.2" fill="url(#gradient3)" fill-rule="evenodd" stroke="none"/>
      <path d="M5.2 -8.15 L3.25 -8.1 3.75 -8.15 4.2 -8.2 4.25 -8.2 5.25 -8.3 6.8 -8.2 9.2 -7.25 9.25 -7.2 9.45 -7.2 9.5 -7.25 9.5 -7.3 Q10.05 -8.05 10.75 -8.2 L11.7 -8.4 Q11.1 -8.9 9.45 -9.1 L12.05 -8.8 13.5 -8.35 13.75 -8.25 14.15 -8.05 14.25 -8.0 15.3 -8.15 17.2 -7.85 17.9 -7.6 18.2 -7.4 18.35 -7.3 17.2 -7.55 16.9 -7.6 17.1 -7.5 Q18.0 -7.05 17.2 -6.55 L16.75 -6.4 16.1 -6.2 14.65 -5.75 11.45 -4.2 Q9.25 -3.0 7.7 -0.4 6.2 2.15 6.0 3.3 L5.8 4.5 4.85 5.85 Q3.95 7.15 3.2 8.9 2.45 10.6 2.75 9.3 L2.95 6.7 2.95 4.85 3.1 3.65 2.5 4.45 Q2.1 5.05 1.6 6.9 1.1 8.75 1.75 11.85 L1.75 11.9 1.4 12.6 0.3 15.0 0.3 12.0 0.5 9.4 0.55 8.75 0.65 7.9 -0.1 9.75 Q-0.75 11.3 -1.05 13.6 -1.3 15.85 -0.5 17.8 L-0.4 16.5 -0.4 17.5 -1.25 21.35 -1.25 21.45 -1.2 21.5 -1.45 25.35 -1.95 23.75 -2.2 22.8 -2.5 21.75 -2.6 21.65 -2.55 21.15 -2.55 20.95 -2.75 19.0 -2.75 18.8 Q-4.75 17.75 -4.75 16.0 L-4.75 15.75 -4.65 15.6 -4.55 15.85 -4.25 16.25 -2.8 17.6 -2.75 17.7 -2.75 16.95 -2.8 16.25 -2.75 14.95 -4.15 13.75 Q-4.95 12.8 -4.95 11.6 L-4.85 10.75 -5.35 11.6 Q-5.65 12.1 -5.55 13.2 -5.5 14.05 -4.65 15.4 L-4.7 15.45 -6.3 13.6 -7.75 11.1 -8.3 8.45 -8.45 6.55 -8.4 5.8 -7.95 7.25 Q-7.35 8.55 -5.45 10.0 L-6.75 8.15 Q-7.75 6.3 -7.75 3.4 L-7.7 2.05 -7.3 0.95 -6.95 0.1 Q-6.2 -1.75 -5.4 -2.45 L-6.55 -0.6 Q-7.2 0.65 -7.1 2.15 -6.95 3.65 -6.15 4.4 L-4.9 5.3 -4.85 5.35 -4.8 5.35 -3.95 5.45 -4.0 5.6 -3.35 4.55 -3.5 4.55 -3.55 4.5 Q-4.3 4.15 -4.95 2.7 L-5.4 0.9 Q-5.3 1.75 -4.5 2.1 L-2.7 2.6 -3.4 2.0 Q-4.65 0.7 -4.9 -1.95 L-4.8 -2.8 -4.7 -2.85 -4.65 -3.0 -4.6 -3.1 -4.6 -2.95 -4.4 -3.4 -4.35 -3.5 Q-3.25 -5.85 -0.7 -6.65 L1.05 -7.2 2.45 -7.4 4.85 -7.4 7.3 -6.95 Q6.9 -8.25 5.2 -8.15 M5.05 -4.45 L4.95 -4.4 4.65 -4.15 Q3.4 -3.1 2.8 -2.1 L2.15 -0.8 2.1 -0.75 2.1 -0.7 2.05 -0.65 1.9 -0.5 1.9 -0.4 2.0 0.4 Q2.15 1.3 2.55 1.8 L3.1 2.35 3.25 2.55 3.3 2.5 3.65 1.75 3.95 1.25 Q4.7 0.05 5.9 -1.05 L5.95 -1.1 5.8 -2.0 Q5.8 -3.4 7.05 -4.75 L7.15 -4.95 Q6.15 -5.2 5.05 -4.45 M9.85 -7.3 L9.6 -7.2 9.35 -7.1 9.2 -7.0 9.15 -6.95 9.85 -7.3 M2.15 -1.8 Q0.35 -3.65 -1.4 -3.75 L-4.1 -3.15 -2.5 -4.0 -1.05 -4.8 Q-0.35 -5.35 0.95 -5.6 2.3 -5.95 3.9 -5.1 L2.2 -5.85 -0.4 -6.1 Q-1.85 -6.05 -3.0 -5.0 L-4.25 -3.4 -4.35 -3.4 -4.6 -2.8 Q-5.45 -1.9 -3.45 -0.15 -1.45 1.6 -0.8 0.65 L0.4 -0.7 2.2 -1.8 2.15 -1.8 M1.2 -0.5 L1.15 -0.45 0.8 -0.15 0.25 0.1 -1.3 2.4 -1.85 3.8 -1.85 3.75 -1.95 3.6 -1.95 3.55 -2.0 3.45 -2.0 3.55 -1.95 3.7 -1.95 3.8 -1.85 4.0 -1.9 4.9 -1.85 5.25 -1.05 8.3 -0.85 7.85 -0.35 6.85 -0.15 6.6 -0.1 6.5 -0.05 6.45 0.9 5.05 1.2 4.75 0.7 4.0 0.65 2.9 0.85 1.15 1.1 0.55 1.8 -0.4 2.05 -0.7 2.0 -0.75 2.0 -0.8 1.5 -0.7 1.2 -0.5 M8.3 -3.65 L8.4 -2.95 9.9 -3.8 Q13.25 -5.6 15.4 -6.05 16.1 -6.55 15.9 -6.85 15.75 -7.2 14.6 -7.75 L14.55 -7.7 14.55 -7.65 14.5 -7.65 14.45 -7.65 14.25 -7.8 13.45 -7.85 13.05 -7.8 13.3 -7.85 12.55 -7.9 12.1 -7.85 11.65 -7.75 10.45 -7.25 Q9.5 -6.85 8.9 -5.8 8.3 -4.7 8.3 -3.65 M14.15 -8.0 L13.6 -7.9 13.25 -7.9 13.45 -7.85 13.55 -7.85 14.15 -7.9 14.15 -8.0 M12.7 -1.5 L13.5 -2.0 14.8 -2.7 16.45 -3.45 18.75 -4.2 22.2 -4.8 24.6 -4.9 25.25 -4.9 25.95 -4.85 27.0 -4.75 27.1 -4.75 27.15 -4.75 27.5 -4.7 27.85 -4.75 27.7 -4.75 27.9 -4.75 28.0 -4.75 29.05 -4.85 29.75 -4.9 30.4 -4.9 32.8 -4.8 36.25 -4.2 38.55 -3.45 40.2 -2.7 41.5 -2.0 42.3 -1.5 43.6 -0.7 45.85 1.0 Q47.25 2.2 48.85 4.95 50.45 7.65 51.0 9.4 L51.65 12.2 52.1 16.25 52.35 18.8 52.3 18.65 52.25 18.45 Q52.3 17.15 51.6 14.65 50.75 11.6 48.35 7.5 45.95 3.4 40.25 -0.25 38.4 -1.45 37.15 -1.95 L34.4 -3.0 30.7 -3.55 Q28.8 -3.6 27.5 -3.05 26.2 -3.6 24.3 -3.55 L20.6 -3.0 17.85 -1.95 Q16.6 -1.45 14.75 -0.25 9.05 3.4 6.65 7.5 4.25 11.6 3.4 14.65 2.8 16.85 2.75 18.2 L2.65 18.8 2.9 16.25 3.35 12.2 Q3.5 11.1 4.0 9.4 4.55 7.65 6.15 4.95 7.75 2.2 9.15 1.0 L11.4 -0.7 12.7 -1.5 M27.5 -3.0 Q31.2 -3.55 35.4 0.65 39.8 5.05 41.35 8.5 42.85 12.05 43.3 14.45 L44.2 19.9 Q43.3 15.95 40.75 11.0 37.2 4.15 32.8 1.6 28.5 -0.9 27.5 -0.8 30.85 1.55 32.5 3.2 34.85 5.55 35.85 8.45 37.7 13.55 38.55 17.35 L37.45 14.45 36.2 11.75 Q33.2 4.8 27.5 1.35 22.9 4.15 19.2 12.65 17.65 16.35 16.55 19.75 17.5 15.65 19.75 9.35 21.95 3.05 27.5 -0.8 L27.4 -0.8 Q26.35 -0.8 22.2 1.6 17.8 4.15 14.25 11.0 12.0 15.3 11.0 19.6 11.3 16.3 11.7 14.45 12.15 12.05 13.65 8.5 15.2 5.05 19.6 0.65 23.75 -3.5 27.4 -3.0 L27.5 -3.0 M40.45 -7.65 L40.45 -7.7 40.4 -7.75 Q39.25 -7.2 39.1 -6.85 38.9 -6.55 39.6 -6.05 41.75 -5.6 45.1 -3.8 L46.6 -2.95 46.7 -3.65 Q46.7 -4.7 46.1 -5.8 45.5 -6.85 44.55 -7.25 L43.35 -7.75 42.9 -7.85 42.45 -7.9 41.7 -7.85 41.95 -7.8 41.55 -7.85 40.75 -7.8 40.55 -7.65 40.5 -7.65 40.45 -7.65 M37.8 -6.55 Q37.0 -7.05 37.9 -7.5 L38.1 -7.6 37.8 -7.55 36.65 -7.3 36.8 -7.4 37.1 -7.6 37.8 -7.85 39.7 -8.15 40.75 -8.0 40.85 -8.05 40.85 -8.1 40.85 -8.05 41.25 -8.25 41.5 -8.35 42.95 -8.8 45.55 -9.1 Q43.9 -8.9 43.3 -8.4 L44.25 -8.2 Q44.95 -8.05 45.5 -7.3 L45.5 -7.25 45.55 -7.2 45.75 -7.2 45.8 -7.25 Q47.25 -8.05 48.2 -8.2 L49.75 -8.3 50.75 -8.2 50.8 -8.2 51.25 -8.15 51.75 -8.1 49.8 -8.15 Q48.1 -8.25 47.7 -6.95 L50.15 -7.4 52.55 -7.4 53.95 -7.2 55.7 -6.65 Q58.25 -5.85 59.35 -3.5 L59.4 -3.4 59.45 -3.4 59.4 -3.4 59.6 -2.95 59.65 -2.9 59.7 -2.85 59.6 -2.95 59.6 -3.1 59.65 -3.0 59.7 -2.85 59.8 -2.8 59.9 -1.95 Q59.65 0.7 58.4 2.0 L57.7 2.6 59.5 2.1 Q60.3 1.75 60.4 0.9 L59.95 2.7 Q59.3 4.15 58.55 4.5 L58.5 4.55 58.35 4.55 59.0 5.6 58.95 5.45 59.8 5.35 59.85 5.35 59.9 5.3 61.15 4.4 Q61.95 3.65 62.1 2.15 62.2 0.65 61.55 -0.6 L60.4 -2.45 Q61.2 -1.75 61.95 0.1 L62.3 0.95 62.7 2.05 62.75 3.4 Q62.75 6.3 61.75 8.15 L60.45 10.0 Q62.35 8.55 62.95 7.25 L63.4 5.8 63.45 6.55 63.3 8.45 62.75 11.1 61.3 13.6 59.7 15.45 59.65 15.4 Q60.5 14.05 60.55 13.2 60.65 12.1 60.35 11.6 L59.85 10.75 59.95 11.6 Q59.95 12.8 59.15 13.75 L57.75 14.95 57.8 16.25 57.75 16.95 57.75 17.7 57.8 17.6 59.25 16.25 59.55 15.85 59.65 15.6 59.75 15.75 59.75 16.0 Q59.75 17.75 57.75 18.8 L57.75 19.0 57.55 20.95 57.55 21.15 57.6 21.65 57.5 21.75 57.2 22.8 56.95 23.75 Q56.85 23.8 56.7 24.5 L56.4 21.9 56.15 20.75 55.4 17.5 55.4 16.5 55.5 17.8 Q56.3 15.85 56.05 13.6 55.75 11.3 55.1 9.75 L54.35 7.9 54.45 8.75 54.5 9.4 54.7 12.0 54.7 15.0 53.6 12.6 53.25 11.9 53.25 11.85 Q53.9 8.75 53.4 6.9 L52.5 4.45 51.9 3.65 52.05 4.85 52.05 6.7 Q52.0 8.0 52.25 9.3 52.55 10.6 51.8 8.9 L50.15 5.85 49.2 4.5 49.0 3.3 Q48.8 2.15 47.3 -0.4 45.75 -3.0 43.55 -4.2 L40.35 -5.75 38.9 -6.2 38.25 -6.4 37.8 -6.55 M45.8 -7.0 L45.65 -7.1 45.4 -7.2 45.15 -7.3 45.85 -6.95 45.8 -7.0 M40.85 -8.0 L40.85 -7.9 41.45 -7.85 41.55 -7.85 41.75 -7.9 41.4 -7.9 40.85 -8.0 M50.05 -4.4 L49.95 -4.45 Q48.85 -5.2 47.85 -4.95 L47.95 -4.75 Q49.2 -3.4 49.2 -2.0 L49.05 -1.1 49.1 -1.05 Q50.3 0.05 51.05 1.25 L51.35 1.75 51.7 2.5 51.75 2.55 51.9 2.35 52.45 1.8 53.0 0.4 53.1 -0.4 53.1 -0.5 52.95 -0.65 52.9 -0.7 52.9 -0.75 52.85 -0.8 52.2 -2.1 50.35 -4.15 50.05 -4.4 M52.8 -5.85 L51.1 -5.1 Q52.7 -5.95 54.05 -5.6 55.35 -5.35 56.05 -4.8 L57.5 -4.0 59.1 -3.15 56.4 -3.75 Q54.65 -3.65 52.85 -1.8 L52.8 -1.8 54.6 -0.7 55.8 0.65 Q56.45 1.6 58.45 -0.15 60.45 -1.9 59.6 -2.8 L59.35 -3.4 59.25 -3.4 58.0 -5.0 Q56.85 -6.05 55.4 -6.1 L52.8 -5.85 M48.0 -5.65 L48.1 -5.65 48.0 -5.65 M52.95 -0.7 L53.2 -0.4 53.9 0.55 54.15 1.15 54.35 2.9 54.3 4.0 53.8 4.75 54.1 5.05 55.05 6.45 55.1 6.5 55.15 6.6 55.35 6.85 55.85 7.85 56.05 8.3 56.85 5.25 56.9 4.9 56.85 4.0 56.95 3.8 56.95 3.7 57.0 3.55 57.0 3.45 56.95 3.55 56.95 3.6 56.85 3.75 56.85 3.8 56.3 2.4 54.75 0.1 54.2 -0.15 53.85 -0.45 53.8 -0.5 53.5 -0.7 53.0 -0.8 53.0 -0.75 52.95 -0.7 M57.95 5.05 L58.15 5.2 58.5 5.8 58.6 8.05 58.55 9.7 Q58.6 8.5 57.9 6.5 L57.85 6.35 57.9 7.15 57.45 9.15 56.85 10.2 57.05 10.55 57.05 10.65 57.25 11.45 57.5 13.2 57.5 13.25 58.0 12.75 58.8 11.85 59.5 10.6 59.75 8.75 Q59.8 7.5 59.15 6.25 58.45 4.95 58.2 5.0 L57.95 5.05 M57.05 4.95 L56.95 4.95 57.15 5.3 57.2 5.1 57.35 5.2 57.2 5.05 57.15 5.0 57.15 5.05 57.05 5.0 57.05 4.95 M45.7 9.4 Q48.0 14.1 48.1 19.8 45.7 10.1 44.15 7.0 L45.7 9.4 M42.9 21.65 Q43.4 23.7 42.35 26.85 42.3 21.5 41.15 16.05 L42.9 21.65 M54.05 19.2 Q54.95 23.9 54.9 25.4 L54.1 28.0 52.7 32.0 53.0 28.5 Q53.9 20.4 53.1 14.8 L54.05 19.2 M48.8 25.4 L48.8 25.1 48.85 25.1 48.8 25.4 M47.7 24.9 L48.35 20.85 Q47.95 30.25 46.9 32.2 L46.1 31.4 47.2 28.9 46.7 28.8 47.7 24.9 M48.7 34.2 L50.55 29.7 Q52.2 25.05 52.45 21.3 L52.3 25.35 Q51.55 31.4 48.7 36.1 49.25 35.05 48.7 34.2 M28.3 4.55 Q29.7 6.45 31.0 10.25 32.45 14.55 32.85 18.8 L33.0 18.0 Q33.55 14.65 33.1 12.0 34.8 17.7 33.65 22.1 33.05 24.3 32.1 25.35 L33.0 22.6 Q32.5 24.0 27.95 28.8 26.9 29.2 25.9 30.25 L25.1 31.2 Q25.4 30.25 26.1 29.35 L26.7 28.6 27.4 28.05 Q31.65 24.55 32.85 18.85 32.3 15.55 31.1 12.65 30.25 10.6 28.2 7.85 L27.5 6.9 26.8 7.85 Q24.75 10.6 23.9 12.65 L22.7 16.35 Q22.45 17.75 22.55 21.15 22.65 24.8 23.1 25.75 L23.85 28.15 Q24.35 29.95 24.65 30.35 L23.8 29.15 22.7 27.5 21.5 22.8 Q21.0 24.6 21.9 27.45 L22.9 29.9 Q19.55 26.35 21.05 19.9 21.65 17.3 22.7 15.2 23.15 12.75 24.0 10.25 25.3 6.45 26.7 4.55 L27.5 3.35 28.3 4.55 M21.45 12.0 Q19.2 17.4 18.7 21.5 L18.5 17.8 Q18.75 16.5 19.5 14.55 21.0 10.65 23.45 7.3 L21.45 12.0 M28.9 19.0 L28.7 22.05 Q28.25 24.6 26.75 26.5 L26.3 27.35 Q25.85 28.4 25.9 29.35 25.55 28.75 25.4 27.65 25.05 25.55 26.05 23.45 L27.25 21.0 26.8 22.7 26.3 25.4 27.35 23.65 Q28.5 21.4 28.9 19.0 M36.5 18.85 Q35.7 11.95 35.05 9.8 L37.15 15.9 Q39.05 23.05 37.9 27.9 L37.1 19.7 36.5 18.85 M4.1 24.3 Q4.6 30.15 6.4 33.6 L5.9 34.5 Q5.15 32.85 4.55 30.05 3.3 24.55 4.0 19.1 L4.1 24.3 M1.95 20.6 Q1.8 28.9 3.5 32.7 1.9 30.0 1.5 28.6 L1.85 31.0 Q2.25 33.7 2.7 35.2 1.15 32.55 0.35 28.4 -1.25 20.25 2.4 13.1 2.0 16.5 1.95 20.6 M10.5 20.5 L10.2 21.2 10.15 21.1 10.5 20.5 M9.9 7.6 Q8.8 9.7 8.0 13.4 6.35 20.8 7.6 28.9 6.35 26.35 6.0 22.4 5.3 14.5 9.9 7.6 M38.05 30.25 L37.9 30.3 Q38.85 29.0 39.45 26.6 40.25 23.25 39.6 21.1 40.4 23.4 39.9 26.55 L39.1 29.8 38.05 30.25 M6.4 30.5 L6.5 30.5 7.0 31.05 7.2 31.4 6.4 30.5 M16.8 30.0 Q15.2 28.0 15.35 26.4 15.6 23.85 16.05 22.05 15.9 26.2 16.8 30.0 M-3.15 5.2 L-2.95 5.05 -3.2 5.0 Q-3.45 4.95 -4.15 6.25 -4.8 7.5 -4.75 8.75 L-4.5 10.6 -3.8 11.85 -3.0 12.75 -2.5 13.25 -2.5 13.2 -2.25 11.45 -2.05 10.65 -2.05 10.55 -1.85 10.2 -2.45 9.15 -2.9 7.15 -2.85 6.4 -2.9 6.5 Q-3.6 8.5 -3.55 9.7 L-3.6 8.05 -3.5 5.8 -3.15 5.2 M-1.95 4.95 L-2.05 4.95 -2.05 5.0 -2.15 5.05 -2.15 5.0 -2.2 5.05 -2.25 5.1 -2.2 5.1 -2.15 5.3 -1.95 4.95" fill="#580202" fill-opacity="0.6" fill-rule="evenodd" stroke="none"/>
      <path d="M7.05 -8.95 L8.7 -9.0 10.35 -8.95 11.35 -8.4 11.5 -8.25 10.75 -7.95 10.45 -7.6 10.0 -7.35 9.85 -7.45 9.55 -7.6 9.55 -7.65 Q8.9 -8.2 7.2 -8.35 L5.4 -8.4 7.05 -8.95 M7.4 -7.05 L4.85 -7.75 3.0 -8.0 4.7 -8.15 6.25 -8.1 7.4 -7.05 M9.45 -6.8 L11.4 -7.65 13.75 -8.15 14.25 -8.1 14.9 -8.0 15.1 -7.9 15.65 -7.65 15.85 -7.55 16.25 -7.1 16.35 -6.6 16.1 -6.2 Q14.85 -5.95 13.45 -5.2 L12.4 -4.6 11.05 -4.15 11.2 -4.4 11.5 -5.25 11.35 -5.85 Q11.25 -6.45 10.65 -6.65 L9.4 -6.75 9.45 -6.8 M3.35 -1.5 Q3.35 -3.05 4.3 -3.9 5.4 -4.9 7.85 -5.15 6.5 -4.25 6.5 -1.5 6.5 -1.0 5.45 -0.15 4.25 0.7 4.1 1.5 3.35 -0.3 3.35 -1.5 M0.3 -0.7 L-0.05 -1.4 -0.7 -1.75 Q-1.75 -2.25 -3.75 -2.4 L-4.65 -2.15 -4.75 -2.15 Q-4.25 -3.9 -0.95 -3.9 0.35 -3.9 1.25 -3.3 L2.6 -2.2 0.3 -0.7 M3.95 -5.5 Q3.05 -5.35 2.2 -5.5 L-0.5 -5.5 -2.2 -4.85 -3.3 -4.2 -2.75 -4.9 -2.0 -5.75 Q-1.0 -6.4 0.75 -6.4 L2.45 -5.9 Q3.3 -5.45 3.95 -5.5 M19.4 -6.8 L19.45 -6.85 20.55 -7.05 21.6 -7.2 22.0 -7.25 22.0 -7.0 Q22.2 -7.4 26.3 -6.05 L27.65 -5.2 28.95 -6.05 Q33.05 -7.4 33.25 -7.0 L33.25 -7.25 33.65 -7.2 34.7 -7.05 35.8 -6.85 35.85 -6.8 36.0 -6.75 39.15 -6.0 39.45 -5.95 41.3 -5.2 41.7 -4.95 42.65 -4.3 Q43.0 -3.95 43.0 -3.35 L42.65 -2.5 42.2 -1.9 41.4 -0.85 39.0 1.05 Q37.15 2.3 34.35 3.2 L29.55 4.3 27.75 4.45 27.75 4.5 27.5 4.5 25.7 4.3 Q23.75 4.1 20.9 3.2 18.1 2.3 16.25 1.05 L13.85 -0.85 13.05 -1.9 12.6 -2.5 Q12.3 -2.75 12.25 -3.35 12.25 -3.95 12.6 -4.3 L13.55 -4.95 13.95 -5.2 Q14.85 -5.75 15.8 -5.95 L16.1 -6.0 19.25 -6.75 19.4 -6.8 M25.0 -2.75 Q25.8 -2.9 26.95 -1.65 L27.65 -0.8 28.3 -1.65 Q29.45 -2.9 30.25 -2.75 L30.25 -2.9 29.0 -2.9 27.75 -3.2 27.65 -3.2 27.5 -3.2 27.5 -3.25 26.25 -2.9 25.0 -2.9 25.0 -2.75 M49.0 -8.1 L50.55 -8.15 52.25 -8.0 50.4 -7.75 47.85 -7.05 49.0 -8.1 M45.7 -7.65 L45.7 -7.6 45.4 -7.45 45.25 -7.35 44.8 -7.6 44.5 -7.95 43.75 -8.25 43.9 -8.4 Q44.3 -8.8 44.9 -8.95 L46.55 -9.0 48.2 -8.95 49.85 -8.4 48.05 -8.35 Q46.35 -8.2 45.7 -7.65 M40.15 -7.9 L40.35 -8.0 41.0 -8.1 41.5 -8.15 43.85 -7.65 45.8 -6.8 45.85 -6.75 44.6 -6.65 Q44.0 -6.45 43.9 -5.85 L43.75 -5.25 Q43.75 -4.85 44.05 -4.4 L44.2 -4.15 42.85 -4.6 41.8 -5.2 Q40.4 -5.95 39.15 -6.2 L38.9 -6.6 39.0 -7.1 39.4 -7.55 39.6 -7.65 40.15 -7.9 M28.15 -4.15 L28.15 -4.25 27.1 -4.25 27.1 -4.15 27.65 -3.7 28.15 -4.15 M48.75 -1.5 Q48.75 -4.25 47.4 -5.15 49.85 -4.9 50.95 -3.9 51.9 -3.05 51.9 -1.5 51.9 -0.3 51.15 1.5 51.0 0.7 49.8 -0.15 48.75 -1.0 48.75 -1.5 M46.5 35.25 L46.75 35.15 46.65 35.25 46.5 35.25 M59.7 -2.85 L59.65 -2.9 59.6 -2.95 59.7 -2.85 M55.3 -1.4 L54.95 -0.7 52.65 -2.2 54.0 -3.3 Q54.9 -3.9 56.2 -3.9 59.5 -3.9 60.0 -2.15 L59.9 -2.15 59.0 -2.4 55.95 -1.75 55.3 -1.4 M51.3 -5.5 Q51.95 -5.45 52.8 -5.9 L54.5 -6.4 Q56.25 -6.4 57.25 -5.75 L58.0 -4.9 58.6 -4.2 57.45 -4.85 55.75 -5.5 53.05 -5.5 Q52.2 -5.35 51.3 -5.5 M55.35 -6.75 L55.3 -6.9 55.7 -6.65 55.35 -6.75 M28.75 0.6 L27.8 0.5 27.75 0.5 27.75 0.55 27.6 0.5 27.5 0.55 27.5 0.5 27.45 0.5 26.5 0.6 26.6 0.8 Q26.95 0.9 27.65 1.6 L28.65 0.8 28.75 0.6 M8.5 35.15 L8.75 35.25 8.6 35.25 8.5 35.15 M-0.1 -6.75 L-0.45 -6.65 -0.05 -6.9 -0.1 -6.75" fill="#c67a82" fill-opacity="0.6" fill-rule="evenodd" stroke="none"/>
      <path d="M6.45 -7.35 L6.1 -6.0 6.05 -6.05 6.45 -7.35 M10.7 -14.05 L10.6 -14.0 10.65 -14.05 10.7 -14.05 M49.25 -6.05 L49.2 -6.0 48.85 -7.35 49.25 -6.05 M44.65 -14.05 L44.7 -14.0 44.6 -14.05 44.65 -14.05 M41.85 12.85 Q42.05 13.8 43.0 15.65 L38.05 18.4 36.85 14.5 39.5 13.65 41.85 12.85 M47.2 13.4 L44.85 15.1 44.05 12.5 48.95 10.45 50.6 9.55 Q48.6 12.25 47.2 13.4 M22.5 20.5 L23.4 13.95 Q24.15 14.4 27.6 14.9 L31.9 14.75 32.6 20.0 Q29.9 20.9 25.95 20.8 L22.5 20.5 M12.4 8.15 L10.4 15.3 Q9.65 15.25 7.25 13.7 L5.0 12.15 6.0 9.85 Q6.9 7.85 7.35 7.2 L8.8 5.35 Q9.0 5.8 10.55 6.9 L12.4 8.15 M13.05 13.35 Q14.3 10.7 14.7 10.1 16.6 11.75 19.8 13.4 L18.15 18.85 15.7 17.75 Q13.3 16.95 12.2 16.25 12.15 15.35 13.05 13.35" fill="#c67a82" fill-opacity="0.6" fill-rule="evenodd" stroke="none"/>
    </g>
    <radialGradient cx="0" cy="0" gradientTransform="matrix(1.0E-4, 0.0, 0.0, 1.0E-4, 59.65, -2.9)" gradientUnits="userSpaceOnUse" id="gradient0" r="819.2" spreadMethod="pad">
      <stop offset="0.0" stop-color="#b65323"/>
      <stop offset="1.0" stop-color="#560909"/>
    </radialGradient>
    <radialGradient cx="0" cy="0" gradientTransform="matrix(0.0408, 0.0, 0.0, 0.0408, 27.45, 15.3)" gradientUnits="userSpaceOnUse" id="gradient1" r="819.2" spreadMethod="pad">
      <stop offset="0.0" stop-color="#d25049"/>
      <stop offset="1.0" stop-color="#560909"/>
    </radialGradient>
    <linearGradient gradientTransform="matrix(-0.0129, -0.0145, -0.0141, 0.0125, 5.3, 6.45)" gradientUnits="userSpaceOnUse" id="gradient2" spreadMethod="pad" x1="-819.2" x2="819.2">
      <stop offset="0.5254901960784314" stop-color="#560919"/>
      <stop offset="1.0" stop-color="#b42252"/>
    </linearGradient>
    <linearGradient gradientTransform="matrix(0.0129, -0.0145, 0.0141, 0.0125, 49.7, 6.45)" gradientUnits="userSpaceOnUse" id="gradient3" spreadMethod="pad" x1="-819.2" x2="819.2">
      <stop offset="0.5254901960784314" stop-color="#560919"/>
      <stop offset="1.0" stop-color="#b42252"/>
    </linearGradient>
  </defs>
</svg>
