<?xml version="1.0" encoding="UTF-8" standalone="no"?>
<svg xmlns:ffdec="https://www.free-decompiler.com/flash" xmlns:xlink="http://www.w3.org/1999/xlink" ffdec:objectType="frame" height="72.7px" width="78.65px" xmlns="http://www.w3.org/2000/svg">
  <g transform="matrix(1.0, 0.0, 0.0, 1.0, 4.4, 53.35)">
    <use ffdec:characterId="1" height="72.7" transform="matrix(1.0, 0.0, 0.0, 1.0, -4.4, -53.35)" width="78.65" xlink:href="#shape0"/>
  </g>
  <defs>
    <g id="shape0" transform="matrix(1.0, 0.0, 0.0, 1.0, 4.4, 53.35)">
      <path d="M20.3 -37.35 L25.65 -37.35 Q29.5 -37.35 34.3 -35.7 39.0 -34.1 41.5 -32.0 L46.4 -27.8 48.85 -25.1 50.5 -21.2 Q51.5 -18.55 52.05 -14.9 L52.15 -13.85 50.8 -15.4 Q49.35 -16.6 47.35 -17.05 48.5 4.35 46.7 8.65 L43.6 11.75 Q39.95 14.9 37.1 16.4 34.2 17.9 31.3 18.85 L23.0 19.35 14.65 18.85 Q11.75 17.9 8.85 16.4 6.0 14.9 2.35 11.75 0.55 10.15 -2.2 -1.9 -4.95 -13.9 -4.3 -16.85 L-1.9 -23.15 Q-0.4 -26.6 1.7 -29.65 L4.45 -32.0 Q6.95 -34.1 11.65 -35.7 16.45 -37.35 20.3 -37.35" fill="url(#gradient0)" fill-rule="evenodd" stroke="none"/>
      <path d="M26.45 -49.2 L27.0 -50.0 Q28.3 -51.75 30.1 -52.65 31.4 -53.35 32.4 -53.35 35.35 -53.35 40.25 -47.45 L40.3 -47.4 Q40.25 -47.25 40.8 -46.65 L42.05 -45.15 42.8 -44.2 42.75 -44.15 44.65 -41.2 47.3 -35.6 47.5 -35.5 48.1 -33.9 Q49.8 -30.3 50.25 -26.4 L50.5 -25.85 50.5 -25.15 50.6 -25.05 50.65 -24.95 50.7 -24.9 50.7 -24.8 50.7 -24.7 50.8 -23.9 50.3 -23.6 49.65 -23.1 49.55 -23.05 49.5 -23.05 49.45 -22.95 49.4 -22.9 49.3 -22.8 49.25 -22.75 49.15 -22.65 49.15 -22.6 49.15 -22.5 49.15 -22.35 49.2 -22.3 49.3 -22.25 49.35 -22.25 49.35 -22.0 49.35 -21.0 49.4 -20.9 49.4 -20.85 49.45 -20.8 49.3 -20.7 49.3 -19.4 49.35 -18.1 Q49.35 -17.65 49.5 -17.15 L49.55 -16.95 49.8 -16.35 Q50.25 -15.3 51.3 -14.2 L51.2 -15.4 51.25 -16.2 Q51.35 -17.3 51.85 -18.35 L51.6 -22.2 51.6 -22.3 52.15 -22.65 52.25 -22.7 52.35 -22.8 52.45 -22.85 52.65 -23.0 52.7 -23.0 53.25 -23.25 53.9 -23.65 54.0 -23.65 54.05 -23.7 54.1 -23.75 54.2 -23.8 54.5 -23.9 54.65 -23.95 54.7 -24.0 55.15 -24.1 55.55 -24.25 55.6 -24.25 55.75 -24.3 56.05 -24.35 56.15 -24.35 56.25 -24.4 56.65 -24.55 56.95 -24.6 57.25 -24.65 57.75 -24.8 58.1 -24.85 58.35 -24.9 58.45 -24.95 58.5 -24.95 59.9 -25.1 60.6 -25.15 60.7 -25.2 60.75 -25.2 62.9 -25.2 62.95 -25.2 64.8 -25.0 65.0 -24.95 65.45 -24.8 66.2 -24.65 66.9 -24.6 66.95 -24.6 67.0 -24.65 67.0 -24.7 67.0 -24.8 67.0 -24.85 66.85 -24.9 66.6 -24.95 Q66.5 -24.95 66.35 -25.05 L66.3 -25.05 66.1 -25.1 65.75 -25.1 65.75 -25.3 65.45 -25.4 65.0 -25.45 64.7 -25.5 64.55 -25.55 63.05 -25.55 63.0 -25.55 61.7 -25.65 60.05 -25.7 57.75 -25.6 57.35 -25.5 56.5 -25.4 55.6 -25.3 56.75 -25.5 58.25 -25.75 Q56.6 -28.5 54.05 -31.2 L53.1 -32.2 53.05 -32.25 51.2 -33.85 51.2 -33.7 51.15 -33.75 50.9 -34.05 50.85 -34.1 50.75 -34.25 49.4 -35.25 48.9 -35.6 48.05 -36.1 47.95 -36.3 49.25 -36.1 49.8 -36.1 49.85 -36.1 51.4 -36.0 53.95 -35.75 54.9 -35.6 55.4 -35.5 56.25 -35.35 60.4 -33.95 61.0 -33.65 Q63.5 -32.4 65.0 -30.55 66.3 -28.9 66.7 -26.95 L66.85 -25.3 66.85 -25.05 67.45 -24.8 Q70.8 -23.25 72.0 -21.75 72.85 -20.65 73.1 -18.1 L73.1 -17.9 73.0 -18.0 72.0 -18.55 70.15 -18.95 67.85 -19.1 Q63.9 -19.1 60.4 -18.0 L59.95 -17.85 60.0 -17.9 60.4 -18.1 Q63.65 -19.7 65.05 -21.05 L65.9 -22.05 66.05 -22.3 64.4 -22.3 60.4 -21.6 Q55.55 -20.0 52.9 -15.05 L52.2 -13.6 52.2 -13.4 52.4 -13.25 52.2 -13.25 52.2 -12.5 52.75 -12.55 52.5 -10.95 52.4 -9.75 52.3 -10.9 52.0 -11.5 Q49.3 -12.45 48.9 -13.1 48.65 -13.4 48.4 -14.8 L48.25 -15.9 48.2 -15.9 48.15 -16.05 48.1 -16.25 47.15 -18.9 45.6 -22.1 43.55 -25.3 40.7 -29.0 33.9 -35.35 33.8 -35.4 33.65 -35.55 34.7 -35.55 Q37.15 -34.65 39.65 -33.1 44.6 -30.05 48.8 -25.1 47.25 -28.35 43.5 -31.5 L41.65 -32.95 40.0 -34.0 36.95 -35.5 Q33.5 -36.85 29.8 -36.85 L28.95 -36.85 27.5 -36.9 25.25 -36.85 24.1 -36.65 23.45 -36.35 23.35 -36.3 23.35 -36.4 23.35 -36.6 23.45 -36.65 23.6 -36.9 23.65 -37.1 23.7 -39.45 Q23.95 -41.55 24.55 -43.55 L24.7 -44.2 Q25.05 -44.85 24.5 -45.2 L24.25 -45.1 24.05 -44.9 24.15 -45.15 24.65 -46.25 Q25.75 -48.1 26.8 -49.35 L26.45 -49.2 M55.25 -8.4 Q54.4 -6.95 54.4 -6.2 L54.3 -6.2 53.3 -7.8 52.5 -9.25 52.6 -9.15 Q52.95 -8.85 53.5 -9.5 L54.05 -10.15 54.35 -10.05 54.6 -9.25 54.8 -8.95 55.25 -8.4 M48.8 -25.1 L49.25 -24.0 49.25 -24.55 48.8 -25.1 M61.35 -25.0 L60.85 -25.0 60.4 -24.95 59.75 -24.95 59.85 -24.5 60.4 -24.55 62.15 -24.7 62.25 -24.7 62.5 -24.7 65.4 -24.15 64.25 -24.65 64.1 -24.7 62.5 -24.95 61.35 -25.0 M49.9 -21.05 L49.9 -21.1 50.3 -21.45 50.35 -21.5 50.7 -21.75 51.05 -22.0 51.05 -21.95 50.95 -21.8 50.75 -21.65 50.65 -21.6 50.4 -21.4 49.9 -21.05" fill="url(#gradient1)" fill-rule="evenodd" stroke="none"/>
      <path d="M61.35 -25.0 L62.5 -24.95 64.1 -24.7 64.25 -24.65 65.4 -24.15 62.5 -24.7 62.25 -24.7 62.15 -24.7 60.4 -24.55 59.85 -24.5 59.75 -24.95 60.4 -24.95 60.85 -25.0 61.35 -25.0" fill="url(#gradient2)" fill-rule="evenodd" stroke="none"/>
      <path d="M40.25 -47.45 L40.3 -47.45 40.3 -47.4 40.25 -47.45 M40.9 -47.3 L46.4 -45.75 Q50.45 -44.65 54.15 -42.15 L56.15 -40.7 56.85 -40.0 57.0 -39.85 57.3 -39.4 Q57.3 -39.25 57.45 -39.35 L57.25 -38.75 57.25 -38.7 Q57.2 -37.9 56.35 -36.05 L57.0 -36.65 57.65 -36.65 57.95 -36.65 Q59.35 -36.5 60.4 -34.8 L60.7 -34.25 61.0 -33.65 60.4 -33.95 56.25 -35.35 55.4 -35.5 54.9 -35.6 53.95 -35.75 51.4 -36.0 49.85 -36.1 49.8 -36.1 49.25 -36.1 47.95 -36.3 47.5 -37.4 47.35 -38.0 46.95 -39.7 44.8 -44.9 Q41.95 -46.85 40.9 -47.3" fill="url(#gradient3)" fill-rule="evenodd" stroke="none"/>
      <path d="M40.3 -47.45 L40.9 -47.3 Q41.95 -46.85 44.8 -44.9 L46.95 -39.7 47.35 -38.0 47.5 -37.4 47.95 -36.3 48.05 -36.1 Q49.25 -33.3 50.1 -30.15 L50.2 -29.85 50.25 -29.7 50.3 -29.5 50.3 -29.4 51.0 -26.4 51.05 -26.2 51.2 -26.1 51.25 -26.05 51.35 -25.2 51.35 -24.15 50.85 -23.95 50.8 -23.9 50.7 -24.7 50.7 -24.8 50.7 -24.9 50.65 -24.95 50.6 -25.05 50.5 -25.15 50.5 -25.85 50.25 -26.4 Q49.8 -30.3 48.1 -33.9 L47.5 -35.5 47.3 -35.6 44.65 -41.2 42.75 -44.15 42.8 -44.2 42.05 -45.15 40.8 -46.65 Q40.25 -47.25 40.3 -47.4 L40.3 -47.45 M73.1 -17.9 Q74.25 -17.0 74.25 -15.2 L74.25 -15.15 73.2 -15.9 72.1 -16.25 Q70.05 -17.25 65.6 -16.4 62.45 -15.85 60.4 -15.0 L58.85 -14.2 56.1 -12.35 Q56.9 -12.9 59.85 -13.8 L60.4 -13.95 65.5 -14.6 Q68.2 -14.5 70.15 -13.7 72.05 -12.9 72.35 -12.15 L72.65 -11.25 71.65 -9.85 68.15 -10.25 Q65.45 -10.25 62.1 -9.35 59.9 -8.75 59.0 -8.1 L59.05 -7.9 59.25 -7.35 59.5 -7.2 59.75 -7.05 59.85 -6.7 59.8 -6.4 59.75 -6.3 59.6 -6.15 59.45 -6.0 59.35 -5.95 59.25 -5.95 59.1 -5.95 59.05 -6.0 58.55 -6.7 58.25 -7.15 58.25 -7.5 58.15 -7.7 57.25 -6.6 57.15 -6.45 Q56.45 -6.95 55.75 -7.7 L55.45 -8.05 55.5 -8.1 55.25 -8.4 54.8 -8.95 54.6 -9.25 54.35 -10.05 54.05 -10.15 53.5 -9.5 Q52.95 -8.85 52.6 -9.15 L52.5 -9.25 52.4 -9.6 52.4 -9.75 52.5 -10.95 52.75 -12.55 52.2 -12.5 52.2 -13.25 52.4 -13.25 52.2 -13.4 52.2 -13.6 52.9 -15.05 Q55.55 -20.0 60.4 -21.6 L64.4 -22.3 66.05 -22.3 65.9 -22.05 65.05 -21.05 Q63.65 -19.7 60.4 -18.1 L60.0 -17.9 59.75 -17.8 58.5 -17.25 58.1 -17.1 Q59.7 -17.1 59.95 -17.85 L60.4 -18.0 Q63.9 -19.1 67.85 -19.1 L70.15 -18.95 72.0 -18.55 73.0 -18.0 73.1 -17.9 M22.8 -36.55 L21.7 -36.85 21.7 -36.95 Q21.6 -38.6 22.1 -40.15 L22.8 -42.0 22.8 -42.1 22.8 -42.2 22.8 -42.3 22.8 -42.35 22.85 -42.45 22.95 -42.55 23.3 -43.45 23.3 -43.5 23.5 -44.05 23.75 -44.35 23.95 -44.65 23.95 -44.7 23.95 -44.8 24.05 -44.9 24.25 -45.1 24.5 -45.2 Q25.05 -44.85 24.7 -44.2 L24.55 -43.55 Q23.95 -41.55 23.7 -39.45 L23.65 -37.1 23.6 -36.9 23.45 -36.65 23.35 -36.6 22.8 -36.55 M20.05 -37.35 L20.0 -37.15 19.95 -37.0 19.85 -36.95 19.75 -36.95 19.6 -36.95 19.55 -36.9 19.45 -36.8 19.4 -36.8 19.35 -36.7 19.25 -36.65 19.1 -36.65 18.9 -36.65 18.7 -36.85 18.3 -37.2 18.2 -37.25 17.7 -37.75 17.55 -37.9 17.55 -37.95 17.55 -38.05 17.65 -38.15 17.85 -38.2 18.0 -38.25 17.7 -39.05 17.3 -39.9 17.25 -39.95 17.25 -40.05 17.15 -40.15 17.0 -40.35 16.7 -40.5 16.6 -40.75 Q16.5 -40.95 16.55 -41.1 L16.55 -41.15 16.6 -41.1 16.7 -41.2 16.8 -41.25 17.25 -41.3 17.8 -40.95 17.95 -40.65 Q17.8 -40.6 18.2 -40.2 L19.15 -38.85 19.15 -38.8 19.4 -38.45 19.5 -38.4 19.6 -38.3 19.7 -38.15 19.8 -38.05 19.8 -37.95 19.8 -37.85 20.05 -37.55 20.05 -37.45 20.05 -37.35 M51.05 -21.95 L51.05 -22.0 51.25 -22.1 51.25 -21.85 51.25 -21.65 51.2 -21.1 51.05 -21.95 M52.85 -13.2 L52.5 -13.35 52.55 -13.25 52.85 -13.2 M52.4 -13.25 L52.55 -13.1 52.55 -13.25 52.4 -13.25 M54.9 3.95 L55.25 3.3 55.8 2.7 55.95 2.45 56.15 2.35 Q56.2 1.8 56.5 1.4 L56.85 0.95 57.5 0.45 57.65 0.55 57.75 0.6 57.75 0.85 56.9 2.45 56.3 3.8 56.25 3.85 55.7 5.8 Q55.2 7.75 55.25 8.2 L55.4 9.95 55.65 10.7 55.8 11.45 56.35 12.1 56.55 12.5 56.45 12.65 56.25 12.8 56.1 12.8 55.9 12.75 55.5 12.2 55.25 11.8 55.2 11.7 55.15 11.55 55.1 11.45 55.1 11.4 55.0 11.35 54.9 11.35 54.3 10.6 53.95 10.1 53.8 9.75 53.7 9.35 Q53.35 9.0 53.4 8.55 L53.45 7.8 53.45 7.7 53.5 7.6 Q53.45 7.0 53.65 6.45 L54.2 5.45 54.7 4.2 54.9 3.95" fill="url(#gradient4)" fill-rule="evenodd" stroke="none"/>
      <path d="M26.45 -49.2 L26.8 -49.35 Q25.75 -48.1 24.65 -46.25 L24.15 -45.15 24.05 -44.9 23.95 -44.8 23.95 -44.7 23.95 -44.65 23.75 -44.35 23.5 -44.05 23.3 -43.5 23.3 -43.45 23.25 -44.35 23.25 -44.75 26.45 -49.2" fill="url(#gradient5)" fill-rule="evenodd" stroke="none"/>
      <path d="M9.65 -34.95 L8.4 -34.2 Q3.2 -30.8 1.3 -28.9 L0.85 -28.35 0.3 -28.25 Q0.45 -30.0 1.15 -32.2 L1.95 -34.7 Q4.35 -41.15 8.55 -42.15 L9.25 -42.25 11.5 -42.5 Q14.75 -42.5 16.55 -41.15 L16.55 -41.1 Q16.5 -40.95 16.6 -40.75 L16.7 -40.5 17.0 -40.35 17.15 -40.15 17.25 -40.05 17.25 -39.95 17.3 -39.9 17.7 -39.05 18.0 -38.25 17.85 -38.2 17.65 -38.15 17.55 -38.05 17.55 -37.95 17.55 -37.9 17.7 -37.75 17.35 -37.75 15.1 -37.65 15.0 -37.6 15.0 -37.25 14.95 -36.95 14.6 -36.9 12.4 -36.3 Q11.1 -35.85 9.65 -34.95 M16.7 -41.2 L18.3 -43.4 Q21.85 -47.45 26.45 -49.2 L23.25 -44.75 23.25 -44.35 Q21.25 -42.45 19.15 -38.85 L18.2 -40.2 Q17.8 -40.6 17.95 -40.65 L17.8 -40.95 17.25 -41.3 16.8 -41.25 16.7 -41.2" fill="url(#gradient6)" fill-rule="evenodd" stroke="none"/>
      <path d="M23.35 -36.4 L22.8 -36.55 23.35 -36.6 23.35 -36.4 M21.7 -36.95 L21.25 -37.05 20.05 -37.35 20.05 -37.45 20.05 -37.55 19.8 -37.85 19.8 -37.95 19.8 -38.05 19.7 -38.15 19.6 -38.3 19.5 -38.4 19.4 -38.45 19.15 -38.8 19.15 -38.85 Q21.25 -42.45 23.25 -44.35 L23.3 -43.45 22.95 -42.55 22.85 -42.45 22.8 -42.35 22.8 -42.3 22.8 -42.2 22.8 -42.1 22.8 -42.0 22.1 -40.15 Q21.6 -38.6 21.7 -36.95" fill="url(#gradient7)" fill-rule="evenodd" stroke="none"/>
      <path d="M28.95 -36.85 L24.75 -36.55 23.95 -36.4 23.6 -36.3 23.35 -36.25 23.35 -36.3 23.45 -36.35 24.1 -36.65 25.25 -36.85 27.5 -36.9 28.95 -36.85" fill="url(#gradient8)" fill-rule="evenodd" stroke="none"/>
      <path d="M34.7 -35.55 Q31.8 -36.65 28.95 -36.85 L29.8 -36.85 Q33.5 -36.85 36.95 -35.5 L40.0 -34.0 41.65 -32.95 43.5 -31.5 Q47.25 -28.35 48.8 -25.1 44.6 -30.05 39.65 -33.1 37.15 -34.65 34.7 -35.55" fill="url(#gradient9)" fill-rule="evenodd" stroke="none"/>
      <path d="M18.2 -37.25 L17.85 -36.6 17.6 -36.6 15.55 -36.55 15.5 -36.5 14.9 -35.75 12.8 -35.45 9.65 -34.95 Q11.1 -35.85 12.4 -36.3 L14.6 -36.9 14.95 -36.95 14.9 -36.0 15.0 -36.95 15.0 -37.25 15.0 -37.6 15.1 -37.65 17.35 -37.75 17.7 -37.75 18.2 -37.25" fill="url(#gradient10)" fill-rule="evenodd" stroke="none"/>
      <path d="M19.25 -36.65 L19.1 -36.45 19.0 -36.45 18.75 -36.5 18.3 -37.2 18.7 -36.85 18.9 -36.65 19.1 -36.65 19.25 -36.65" fill="url(#gradient11)" fill-rule="evenodd" stroke="none"/>
      <path d="M55.6 -25.3 L56.5 -25.4 57.35 -25.5 57.75 -25.6 60.05 -25.7 61.7 -25.65 63.0 -25.55 63.05 -25.55 64.55 -25.55 64.7 -25.5 65.0 -25.45 65.45 -25.4 65.75 -25.3 65.75 -25.1 66.1 -25.1 66.3 -25.05 66.35 -25.05 Q66.5 -24.95 66.6 -24.95 L66.85 -24.9 67.0 -24.85 67.0 -24.8 67.0 -24.7 67.0 -24.65 66.95 -24.6 66.9 -24.6 66.2 -24.65 65.45 -24.8 65.0 -24.95 64.8 -25.0 62.95 -25.2 62.9 -25.2 60.75 -25.2 60.7 -25.2 60.6 -25.15 59.9 -25.1 58.5 -24.95 58.45 -24.95 58.35 -24.9 58.1 -24.85 57.75 -24.8 57.25 -24.65 56.95 -24.6 56.65 -24.55 56.25 -24.4 56.15 -24.35 56.05 -24.35 55.75 -24.3 55.6 -24.25 55.55 -24.25 55.15 -24.1 54.7 -24.0 54.65 -23.95 54.5 -23.9 54.2 -23.8 54.1 -23.75 54.05 -23.7 54.0 -23.65 53.9 -23.65 53.25 -23.25 52.7 -23.0 52.65 -23.0 52.45 -22.85 52.35 -22.8 52.25 -22.7 52.15 -22.65 51.6 -22.3 51.3 -22.1 51.25 -22.1 51.05 -22.0 50.7 -21.75 50.35 -21.5 50.3 -21.45 49.9 -21.1 49.9 -21.05 49.85 -20.95 49.8 -20.9 49.7 -20.9 49.7 -20.85 49.6 -20.75 49.5 -20.75 49.45 -20.8 49.4 -20.85 49.4 -20.9 49.35 -21.0 49.35 -22.0 49.35 -22.25 49.3 -22.25 49.2 -22.3 49.15 -22.35 49.15 -22.5 49.15 -22.6 49.15 -22.65 49.25 -22.75 49.3 -22.8 49.4 -22.9 49.45 -22.95 49.5 -23.05 49.55 -23.05 49.65 -23.1 50.3 -23.6 50.8 -23.9 50.85 -23.95 51.35 -24.15 51.55 -24.3 51.65 -24.3 52.2 -24.45 52.65 -24.6 52.75 -24.65 52.8 -24.65 53.2 -24.75 53.45 -24.9 53.75 -24.95 53.8 -24.95 53.85 -25.0 54.0 -25.05 54.05 -25.05 54.55 -25.15 54.85 -25.2 55.2 -25.25 55.25 -25.25 55.6 -25.3 M53.4 -24.5 L53.55 -24.55 53.3 -24.5 53.3 -24.45 53.4 -24.5" fill="url(#gradient12)" fill-rule="evenodd" stroke="none"/>
      <path d="M48.05 -36.1 L48.9 -35.6 49.4 -35.25 50.75 -34.25 50.85 -34.1 50.9 -34.05 51.15 -33.75 51.2 -33.7 51.2 -33.85 53.05 -32.25 53.1 -32.2 54.05 -31.2 Q56.6 -28.5 58.25 -25.75 L56.75 -25.5 55.6 -25.3 55.25 -25.25 55.2 -25.25 54.85 -25.2 54.55 -25.15 54.05 -25.05 54.0 -25.05 53.85 -25.0 53.8 -24.95 53.75 -24.95 53.45 -24.9 53.2 -24.75 52.8 -24.65 52.75 -24.65 52.65 -24.6 52.2 -24.45 51.65 -24.3 51.55 -24.3 51.35 -24.15 51.35 -25.2 51.25 -26.05 51.2 -26.1 51.05 -26.2 51.0 -26.4 50.3 -29.4 50.3 -29.5 50.25 -29.7 50.2 -29.85 50.1 -30.15 Q49.25 -33.3 48.05 -36.1 M53.4 -24.5 L53.3 -24.45 53.3 -24.5 53.55 -24.55 53.4 -24.5 M51.25 -22.1 L51.3 -22.1 51.25 -21.65 51.25 -21.85 51.25 -22.1" fill="url(#gradient13)" fill-rule="evenodd" stroke="none"/>
      <path d="M57.45 -39.35 L57.8 -38.7 58.4 -37.2 Q58.4 -36.8 57.95 -36.65 L57.65 -36.65 57.0 -36.65 56.35 -36.05 Q57.2 -37.9 57.25 -38.7 L57.25 -38.75 57.45 -39.35" fill="url(#gradient14)" fill-rule="evenodd" stroke="none"/>
      <path d="M51.6 -22.3 L51.6 -22.2 51.85 -18.35 Q51.35 -17.3 51.25 -16.2 L51.2 -15.4 51.3 -14.2 Q50.25 -15.3 49.8 -16.35 L49.55 -16.95 49.5 -17.15 Q49.35 -17.65 49.35 -18.1 L49.3 -19.4 49.3 -20.7 49.45 -20.8 49.5 -20.75 49.6 -20.75 49.7 -20.85 49.7 -20.9 49.8 -20.9 49.85 -20.95 49.9 -21.05 50.4 -21.4 50.65 -21.6 50.75 -21.65 50.95 -21.8 51.05 -21.95 51.2 -21.1 51.25 -21.65 51.3 -22.1 51.6 -22.3" fill="url(#gradient15)" fill-rule="evenodd" stroke="none"/>
      <path d="M59.95 -17.85 Q59.7 -17.1 58.1 -17.1 L58.5 -17.25 59.75 -17.8 59.95 -17.85" fill="url(#gradient16)" fill-rule="evenodd" stroke="none"/>
      <path d="M74.25 -15.15 L74.2 -13.55 Q74.1 -12.8 73.6 -12.15 L72.95 -11.45 72.65 -11.25 72.35 -12.15 Q72.05 -12.9 70.15 -13.7 68.2 -14.5 65.5 -14.6 L60.4 -13.95 59.85 -13.8 Q56.9 -12.9 56.1 -12.35 L58.85 -14.2 60.4 -15.0 Q62.45 -15.85 65.6 -16.4 70.05 -17.25 72.1 -16.25 L73.2 -15.9 74.25 -15.15" fill="url(#gradient17)" fill-rule="evenodd" stroke="none"/>
      <path d="M48.8 -25.1 L49.25 -24.55 49.25 -24.0 48.8 -25.1" fill="url(#gradient18)" fill-rule="evenodd" stroke="none"/>
      <path d="M53.05 -0.55 Q53.3 -2.0 54.0 -3.25 L54.0 -3.35 Q53.85 -5.35 55.25 -7.75 L55.45 -8.05 55.75 -7.7 Q56.45 -6.95 57.15 -6.45 L57.25 -6.6 58.15 -7.7 58.25 -7.5 58.25 -7.15 58.55 -6.7 59.05 -6.0 59.1 -5.95 58.7 -5.65 58.35 -5.3 58.05 -4.8 Q57.0 -4.7 55.85 -3.1 L55.45 -2.4 55.15 -2.25 53.05 -0.55 M57.15 -6.45 L57.0 -6.2 57.3 -6.3 57.15 -6.45" fill="url(#gradient19)" fill-rule="evenodd" stroke="none"/>
      <path d="M57.15 -6.45 L57.3 -6.3 57.0 -6.2 57.15 -6.45" fill="url(#gradient20)" fill-rule="evenodd" stroke="none"/>
      <path d="M72.65 -11.25 L72.9 -9.45 72.9 -9.2 Q73.35 -8.7 73.35 -7.6 73.35 -6.6 72.65 -5.55 L72.1 -4.8 Q72.6 -3.7 72.6 -2.25 L72.5 -0.8 Q72.05 2.0 69.75 2.55 L67.4 3.65 67.25 3.85 66.5 4.75 64.75 6.15 Q64.4 7.3 63.5 8.15 L63.4 6.65 62.75 4.15 Q61.35 0.25 58.1 0.25 L57.8 0.25 57.65 0.55 57.5 0.45 56.85 0.95 56.85 0.7 56.85 0.4 56.95 -0.95 Q57.5 -1.95 58.75 -3.15 L59.25 -3.65 59.6 -3.95 Q63.0 -7.0 67.25 -7.0 L68.15 -6.95 68.4 -6.9 71.15 -6.25 Q70.35 -7.05 69.25 -7.5 67.7 -8.1 65.55 -8.1 63.65 -8.1 61.0 -7.0 L59.8 -6.4 59.85 -6.7 59.75 -7.05 59.5 -7.2 59.25 -7.35 59.05 -7.9 59.0 -8.1 Q59.9 -8.75 62.1 -9.35 65.45 -10.25 68.15 -10.25 L71.65 -9.85 72.65 -11.25" fill="url(#gradient21)" fill-rule="evenodd" stroke="none"/>
      <path d="M57.7 12.95 L57.9 13.25 58.75 14.15 58.0 13.85 55.95 12.85 55.75 12.65 55.6 12.55 55.0 11.35 55.1 11.4 55.1 11.45 55.15 11.55 55.2 11.7 55.25 11.8 55.5 12.2 55.9 12.75 56.1 12.8 56.25 12.8 56.45 12.65 56.55 12.5 56.35 12.1 55.8 11.45 55.65 10.7 55.4 9.95 55.25 8.2 Q55.2 7.75 55.7 5.8 L56.25 3.85 56.3 3.8 56.9 2.45 57.75 0.85 57.75 0.6 57.65 0.55 57.8 0.25 58.1 0.25 Q61.35 0.25 62.75 4.15 L63.4 6.65 63.5 8.15 62.35 9.0 61.85 9.3 Q60.4 10.0 59.3 10.0 L59.2 10.0 58.75 11.65 57.05 12.0 57.7 12.95 M59.1 -5.95 L59.25 -5.95 59.35 -5.95 59.4 -5.75 59.45 -6.0 59.6 -6.15 59.75 -6.3 59.8 -6.4 61.0 -7.0 Q63.65 -8.1 65.55 -8.1 67.7 -8.1 69.25 -7.5 70.35 -7.05 71.15 -6.25 L68.4 -6.9 68.15 -6.95 67.25 -7.0 Q63.0 -7.0 59.6 -3.95 L59.25 -3.65 58.75 -3.15 Q57.5 -1.95 56.95 -0.95 L56.85 0.4 56.85 0.7 56.85 0.95 56.5 1.4 Q56.2 1.8 56.15 2.35 L55.95 2.45 55.8 2.7 55.25 3.3 54.9 3.95 Q54.4 2.95 54.35 1.8 L53.85 2.25 53.1 3.2 53.0 2.75 52.85 1.55 53.05 -0.55 55.15 -2.25 55.45 -2.4 55.85 -3.1 Q57.0 -4.7 58.05 -4.8 L58.35 -5.3 58.7 -5.65 59.1 -5.95" fill="url(#gradient22)" fill-rule="evenodd" stroke="none"/>
      <path d="M52.25 8.7 Q51.35 7.1 51.35 5.5 51.35 4.15 51.8 2.3 52.35 0.25 53.0 -0.5 L53.05 -0.55 52.85 1.55 53.0 2.75 53.1 3.2 Q52.0 4.75 52.0 6.55 L52.25 8.7" fill="url(#gradient23)" fill-rule="evenodd" stroke="none"/>
      <path d="M59.35 -5.95 L59.45 -6.0 59.4 -5.75 59.35 -5.95" fill="url(#gradient24)" fill-rule="evenodd" stroke="none"/>
      <path d="M72.5 -0.8 L72.5 -0.75 Q72.5 1.9 69.7 4.35 67.35 6.45 65.85 6.5 L64.75 6.5 64.75 6.15 66.5 4.75 67.25 3.85 67.4 3.65 69.75 2.55 Q72.05 2.0 72.5 -0.8" fill="url(#gradient25)" fill-rule="evenodd" stroke="none"/>
      <path d="M63.5 8.15 L63.5 8.3 Q63.5 11.55 61.75 12.65 60.8 13.25 58.95 13.25 L58.85 13.25 58.85 13.15 58.8 13.15 58.75 13.15 58.55 13.2 57.95 13.05 57.7 12.95 57.05 12.0 58.75 11.65 59.2 10.0 59.3 10.0 Q60.4 10.0 61.85 9.3 L62.35 9.0 63.5 8.15" fill="url(#gradient26)" fill-rule="evenodd" stroke="none"/>
      <path d="M55.6 12.55 L55.4 12.35 54.7 11.45 Q53.1 9.15 53.1 6.95 53.1 5.1 53.6 4.8 L53.1 3.2 53.85 2.25 54.35 1.8 Q54.4 2.95 54.9 3.95 L54.7 4.2 54.2 5.45 53.65 6.45 Q53.45 7.0 53.5 7.6 L53.45 7.7 53.45 7.8 53.4 8.55 Q53.35 9.0 53.7 9.35 L53.8 9.75 53.95 10.1 54.3 10.6 54.9 11.35 55.0 11.35 55.6 12.55" fill="url(#gradient27)" fill-rule="evenodd" stroke="none"/>
      <path d="M55.4 12.35 Q53.25 10.5 52.25 8.7 L52.0 6.55 Q52.0 4.75 53.1 3.2 L53.6 4.8 Q53.1 5.1 53.1 6.95 53.1 9.15 54.7 11.45 L55.4 12.35" fill="url(#gradient28)" fill-rule="evenodd" stroke="none"/>
      <path d="M37.4 -50.4 L37.5 -50.35 37.85 -50.15 38.85 -49.2 40.35 -46.65 41.3 -44.35 41.45 -44.35 Q42.7 -44.35 43.85 -42.55 L44.7 -41.0 45.4 -39.55 45.55 -39.3 45.95 -38.35 45.9 -38.4 48.5 -33.95 Q46.6 -36.25 44.75 -36.7 L40.4 -37.4 35.35 -36.9 Q34.1 -36.5 33.5 -36.15 L34.4 -35.85 36.5 -35.85 Q42.75 -35.05 46.45 -32.55 50.15 -30.1 50.15 -27.35 L50.15 -25.0 50.1 -24.3 49.95 -23.7 50.4 -24.05 Q52.5 -25.65 55.05 -26.75 L53.4 -26.2 Q51.5 -25.45 50.35 -24.4 L50.1 -24.2 50.3 -24.55 50.4 -24.9 Q50.7 -25.85 50.55 -27.3 50.35 -29.35 49.45 -32.45 L48.5 -35.3 Q47.65 -36.4 47.75 -36.8 L50.45 -34.75 Q51.9 -33.6 54.0 -33.85 L54.15 -33.75 52.4 -31.9 51.65 -30.85 51.65 -30.75 53.15 -31.2 54.0 -31.35 55.65 -31.5 58.5 -31.1 60.5 -30.5 60.65 -30.35 57.95 -30.6 57.6 -30.6 Q53.95 -30.6 51.0 -27.5 55.3 -29.6 57.65 -29.65 60.0 -29.75 58.8 -28.8 L57.65 -27.75 Q60.6 -28.75 62.75 -28.75 65.9 -28.75 66.35 -25.85 L66.4 -25.4 66.45 -25.15 66.5 -24.9 60.6 -25.4 56.8 -24.85 55.9 -24.7 55.9 -24.55 Q53.6 -23.8 51.15 -21.6 L53.9 -22.65 55.95 -23.45 55.9 -23.35 Q54.65 -22.5 52.15 -20.0 L52.15 -19.85 54.9 -21.55 54.5 -20.9 52.9 -19.65 Q51.35 -18.25 50.75 -17.0 L51.25 -16.85 Q51.15 -17.85 53.8 -19.2 58.0 -21.35 60.1 -21.8 L63.9 -22.35 Q62.1 -22.3 59.25 -20.2 L57.85 -19.0 Q58.8 -19.5 60.55 -19.9 L64.65 -20.5 67.85 -20.05 Q69.45 -19.6 71.75 -18.3 L72.45 -17.9 69.8 -18.45 64.4 -18.25 Q61.5 -17.95 58.95 -16.75 L58.5 -16.15 57.65 -15.0 57.65 -13.55 Q58.5 -14.5 59.4 -14.85 L63.2 -15.25 65.8 -15.05 66.05 -15.0 62.35 -14.3 58.5 -13.25 55.9 -11.4 58.15 -11.9 57.4 -10.6 58.5 -11.4 Q60.95 -13.05 62.5 -13.6 65.0 -14.5 67.1 -14.5 69.05 -14.5 70.25 -13.9 71.15 -13.45 72.5 -12.0 L72.5 -11.0 72.85 -10.95 72.9 -10.25 70.25 -10.15 70.4 -10.15 Q70.9 -9.75 72.5 -9.65 L73.35 -8.25 Q70.9 -9.3 69.7 -9.5 L66.35 -9.75 61.4 -9.15 Q59.25 -8.65 57.6 -7.8 L59.7 -9.05 59.05 -8.85 Q56.8 -8.1 55.4 -7.0 L55.25 -6.85 55.0 -6.75 55.25 -7.55 55.55 -8.2 55.5 -8.25 55.2 -8.45 53.4 -8.5 Q51.85 -8.35 52.15 -12.85 L52.15 -13.7 52.05 -13.75 52.0 -13.6 51.75 -13.6 Q50.25 -11.8 49.0 -12.85 47.7 -13.9 48.25 -13.65 L47.6 -16.0 46.95 -18.55 45.7 -21.4 43.2 -24.85 40.5 -28.3 Q34.9 -36.6 27.0 -36.6 L26.9 -36.6 26.85 -36.55 26.7 -36.55 26.55 -36.55 26.5 -36.55 26.6 -36.65 Q27.25 -37.35 28.85 -38.45 L34.65 -42.45 36.6 -43.6 36.5 -43.6 33.95 -43.05 31.5 -42.1 Q27.85 -39.0 26.15 -37.15 28.85 -40.7 32.05 -42.8 35.1 -44.85 37.05 -44.85 L38.3 -44.75 39.6 -43.7 40.9 -44.25 Q39.65 -46.75 38.0 -46.75 34.5 -46.75 29.45 -42.0 25.7 -38.5 25.05 -37.0 L25.0 -36.9 24.85 -36.5 24.75 -36.3 24.6 -36.0 24.55 -36.0 24.65 -36.3 23.0 -36.6 Q21.8 -36.9 21.6 -37.25 L20.65 -37.25 20.55 -37.45 20.5 -37.65 18.85 -39.05 Q17.5 -40.55 17.5 -41.95 L17.9 -42.55 Q18.15 -41.65 19.1 -40.25 L19.8 -39.35 Q19.5 -40.35 19.5 -41.45 19.5 -43.05 19.85 -44.1 L20.65 -45.55 20.95 -45.95 Q21.85 -46.95 23.85 -48.0 L26.5 -49.25 24.45 -46.65 Q22.85 -44.55 22.5 -43.5 L21.8 -40.45 21.65 -38.3 21.7 -38.5 22.15 -39.5 22.25 -39.35 22.45 -38.4 22.5 -38.25 Q22.5 -42.15 24.4 -44.6 L24.1 -43.9 23.9 -43.1 23.9 -39.75 Q23.9 -40.25 24.85 -41.6 L26.65 -44.1 26.75 -44.1 25.85 -41.25 25.2 -39.1 25.4 -39.6 Q25.75 -40.25 26.35 -40.45 25.2 -38.55 24.8 -37.05 L24.65 -36.6 24.7 -36.35 Q27.95 -44.95 31.55 -48.55 33.8 -50.75 35.7 -50.75 L37.4 -50.4 M39.8 -38.75 L43.3 -38.7 Q45.7 -38.45 46.05 -38.0 L45.7 -38.65 45.45 -38.85 45.35 -39.0 Q44.5 -40.3 42.7 -39.95 L38.35 -38.9 Q35.85 -38.25 34.55 -37.25 L37.9 -38.3 39.8 -38.75 M22.5 -38.25 L22.5 -37.75 22.65 -37.5 22.5 -38.25 M40.2 -33.1 L37.85 -34.3 39.4 -33.3 41.85 -31.85 40.2 -33.1 M24.45 -35.75 L24.45 -35.7 24.4 -35.55 24.45 -35.75 M25.4 -34.9 L25.65 -34.95 25.25 -34.75 25.25 -34.85 25.4 -34.9 M25.2 -39.1 L25.0 -38.6 25.15 -38.75 25.2 -39.1 M11.65 -42.5 Q14.05 -42.5 16.2 -41.05 18.3 -39.55 19.4 -37.0 L19.25 -37.0 19.2 -37.0 19.4 -36.9 19.4 -36.6 19.25 -36.75 19.0 -37.0 18.4 -36.95 18.9 -36.85 16.8 -36.75 Q15.6 -36.55 15.15 -35.85 14.65 -36.3 12.45 -36.85 L9.0 -37.35 Q7.3 -37.35 5.15 -36.6 L3.95 -35.9 4.65 -36.15 6.6 -36.25 9.85 -35.95 12.5 -35.5 12.5 -35.35 Q6.95 -35.2 0.5 -28.1 L0.5 -29.35 0.8 -30.2 1.75 -33.85 Q2.1 -35.1 2.5 -35.45 3.45 -38.05 4.95 -39.4 6.45 -40.75 11.0 -40.55 14.9 -40.45 16.9 -39.05 16.55 -39.3 16.3 -39.5 13.05 -41.75 9.25 -41.75 L7.7 -41.65 8.65 -42.05 9.9 -42.3 10.15 -42.25 11.65 -42.5 M57.2 -38.55 Q58.0 -38.05 58.15 -37.35 57.95 -38.0 56.55 -38.1 55.3 -38.1 54.05 -37.15 L53.75 -36.9 53.85 -36.7 54.45 -36.75 Q58.55 -36.75 59.9 -34.25 L60.0 -34.0 Q59.45 -35.1 55.85 -35.7 L51.55 -36.15 49.5 -36.4 Q48.45 -36.7 48.15 -36.9 L48.65 -36.6 48.25 -36.8 48.15 -36.9 48.05 -37.05 Q44.15 -43.25 40.05 -47.45 L41.2 -47.0 40.65 -47.35 43.85 -46.4 Q46.1 -45.6 47.25 -44.6 L51.4 -40.6 52.95 -38.45 Q54.0 -38.85 56.05 -38.45 L57.2 -38.55 M58.75 -23.1 L58.5 -22.95 58.65 -23.1 58.75 -23.1 M58.5 -8.85 L58.9 -9.05 58.5 -8.9 58.5 -8.85 M55.15 -2.1 Q56.3 -5.1 58.0 -6.35 60.1 -8.2 62.65 -7.95 L66.35 -7.55 68.35 -7.25 Q69.1 -7.15 70.65 -6.45 L65.65 -6.8 61.75 -5.95 Q59.1 -5.3 55.85 -3.0 L55.15 -2.1 M60.4 -0.4 L60.3 -0.4 59.0 -0.3 58.55 -0.1 58.75 -0.1 Q60.55 -0.1 61.7 1.15 62.65 2.2 62.6 3.55 L62.75 4.25 62.65 3.95 62.55 3.75 62.05 2.9 Q60.95 1.5 58.55 1.5 L57.5 1.65 57.25 1.8 55.65 2.9 55.65 3.0 Q56.25 2.6 56.7 2.55 L57.5 2.55 Q58.1 2.6 57.65 2.8 L58.0 2.95 Q56.45 3.15 55.15 4.15 56.55 3.65 57.8 3.65 60.1 3.65 61.4 5.15 62.5 6.4 62.5 8.1 L62.5 8.15 60.95 10.5 60.5 10.65 58.6 11.1 57.65 10.9 58.6 10.45 59.3 9.75 Q55.45 9.65 53.9 8.15 L53.85 8.75 Q53.85 9.95 54.95 11.45 56.0 12.85 57.6 13.65 55.7 12.95 54.25 11.15 52.85 9.35 52.85 7.7 L53.05 6.7 Q52.9 5.9 52.9 4.5 L53.0 3.7 Q52.1 5.05 52.1 6.4 L52.0 6.4 51.9 5.45 51.6 4.55 Q51.6 1.8 54.0 -0.75 56.35 -3.25 58.65 -3.25 L58.85 -3.25 Q60.6 -4.0 62.55 -4.0 67.75 -4.0 70.0 -2.1 L70.55 -0.8 Q70.9 0.45 70.85 1.25 70.7 3.0 68.4 4.8 66.1 6.55 65.15 6.25 L64.5 6.1 Q65.3 5.5 65.5 4.55 65.7 3.55 64.6 1.6 63.55 -0.2 60.8 -0.35 L60.4 -0.4 M63.6 5.9 L63.2 5.8 63.8 5.95 63.6 5.9 M59.4 9.5 L59.4 9.25 Q59.4 7.9 58.15 6.65 57.15 5.65 55.9 5.4 55.25 5.4 55.25 6.45 55.25 7.15 56.6 8.1 L58.5 9.2 58.5 9.4 59.4 9.5" fill="#cd4076" fill-opacity="0.2509804" fill-rule="evenodd" stroke="none"/>
      <path d="M28.25 -50.8 L27.8 -49.7 27.7 -49.1 27.7 -49.05 28.75 -50.0 28.8 -50.05 28.5 -49.5 28.5 -49.2 28.75 -49.2 28.9 -49.3 28.95 -48.85 29.5 -48.85 Q30.5 -49.6 32.45 -50.0 L35.25 -50.45 35.3 -50.45 Q33.4 -50.1 31.45 -48.45 29.75 -47.05 29.2 -45.85 L29.2 -45.8 Q29.35 -46.4 31.55 -47.35 L31.65 -47.35 30.45 -46.05 30.45 -45.8 32.65 -45.5 31.8 -44.85 31.8 -44.6 32.5 -44.55 32.1 -44.3 31.9 -44.0 32.15 -44.0 33.15 -44.45 34.75 -44.6 36.3 -44.55 Q34.25 -44.15 32.45 -43.35 30.55 -42.5 30.4 -41.8 L32.65 -42.5 32.9 -42.5 Q29.8 -41.05 28.55 -38.05 L29.05 -39.5 29.65 -40.4 30.15 -41.35 30.05 -41.5 Q29.95 -41.55 29.95 -41.75 29.95 -42.15 31.25 -43.55 L30.8 -43.55 Q30.95 -43.85 30.7 -44.75 30.4 -45.75 29.95 -45.75 L29.6 -45.6 29.2 -45.2 28.85 -45.1 28.45 -45.0 27.75 -44.05 27.2 -43.3 27.2 -44.7 27.5 -45.75 27.7 -46.55 27.7 -46.6 25.6 -44.65 Q24.45 -43.55 24.05 -42.55 L24.0 -42.55 24.0 -42.95 Q24.15 -44.1 24.85 -45.55 L26.2 -48.1 Q28.15 -52.2 29.85 -52.25 28.6 -51.4 28.25 -50.8 M23.55 -44.75 Q22.2 -43.25 21.55 -41.2 21.0 -39.4 21.3 -37.9 L20.85 -39.35 20.75 -40.95 20.35 -40.05 19.95 -39.5 19.8 -39.7 19.6 -39.95 19.3 -39.85 Q19.15 -39.8 19.25 -39.6 L18.45 -41.05 Q18.25 -41.4 18.25 -42.3 18.25 -42.85 18.85 -43.75 19.45 -44.6 20.05 -44.85 19.35 -44.55 19.35 -42.1 L19.45 -40.55 19.85 -42.5 Q19.85 -41.8 20.2 -41.35 L20.65 -42.3 21.85 -43.75 Q22.8 -44.55 23.5 -44.75 L23.55 -44.75 M61.75 -31.75 L61.75 -32.0 Q54.75 -33.85 52.0 -31.25 55.15 -36.65 60.25 -34.4 L59.55 -33.5 60.8 -33.65 Q62.25 -33.3 64.15 -31.0 65.75 -29.0 66.25 -27.3 L65.3 -28.35 Q64.3 -29.0 62.75 -29.0 L59.6 -28.45 Q58.15 -28.05 56.05 -28.45 57.3 -28.3 58.75 -29.7 60.75 -31.65 61.75 -31.75 M12.5 -40.35 L12.4 -40.25 11.75 -40.25 13.65 -39.75 13.75 -39.6 Q12.3 -39.55 11.7 -38.85 L10.9 -37.1 Q10.4 -37.2 10.05 -36.75 9.75 -36.4 9.75 -35.85 9.75 -35.5 10.0 -35.25 8.7 -35.2 7.25 -34.2 6.4 -33.65 4.65 -32.1 L4.5 -32.1 Q5.0 -33.4 6.15 -34.6 7.3 -35.8 8.4 -36.35 L7.65 -36.35 7.65 -36.6 9.65 -36.85 9.15 -37.25 9.3 -37.45 9.4 -37.7 9.15 -38.1 Q9.4 -38.55 11.15 -39.25 L10.9 -39.7 10.5 -39.75 8.35 -39.25 Q6.9 -38.75 6.4 -38.35 L6.25 -38.35 7.8 -39.35 Q8.9 -40.1 9.5 -40.1 L4.9 -40.25 4.75 -40.25 7.45 -41.35 9.4 -41.75 11.15 -41.75 Q13.95 -41.75 16.65 -39.1 15.55 -39.95 14.75 -40.0 L12.4 -40.25 12.8 -40.25 12.5 -40.35 M33.65 -35.9 L33.35 -36.15 36.5 -37.0 39.25 -37.35 42.5 -36.75 Q44.7 -36.15 46.25 -35.15 L42.5 -36.35 39.4 -36.35 41.25 -35.25 39.9 -35.25 Q41.2 -34.4 42.15 -32.7 L42.65 -31.7 42.7 -31.6 Q40.15 -33.5 35.4 -35.35 L33.8 -35.35 33.8 -35.4 33.8 -35.55 33.65 -35.9 M64.0 -24.85 L64.35 -25.0 Q67.05 -25.0 69.5 -22.35 L70.7 -20.35 67.5 -20.55 62.45 -19.8 62.15 -19.7 63.0 -20.6 64.2 -21.0 65.25 -21.35 63.45 -21.6 61.4 -21.6 64.3 -22.7 Q65.9 -23.4 66.75 -23.5 L63.0 -23.6 59.55 -23.2 55.5 -21.75 55.5 -21.85 Q57.8 -23.8 59.0 -24.4 60.3 -25.0 62.3 -25.0 L64.0 -24.85 M55.4 -40.35 L55.9 -39.75 56.55 -39.65 57.45 -39.35 Q58.25 -38.85 58.25 -37.85 L58.2 -36.8 58.0 -37.8 Q57.9 -38.5 56.95 -38.9 L53.9 -38.8 Q51.8 -38.35 49.5 -36.95 L50.25 -37.8 51.0 -38.25 50.95 -38.35 Q50.6 -38.55 48.2 -37.6 L50.5 -40.15 Q51.9 -41.6 53.0 -41.15 L49.75 -43.6 45.2 -45.9 46.65 -45.45 51.15 -43.6 Q53.05 -42.6 55.15 -40.6 L55.4 -40.35 M57.9 -0.7 L58.45 -0.75 59.5 -0.7 59.75 -0.6 61.25 0.15 Q62.35 1.05 62.5 2.6 61.65 1.45 60.9 1.05 59.85 0.5 57.9 0.5 L54.8 1.05 53.8 1.45 55.3 0.05 Q56.4 -0.65 57.9 -0.7 M59.25 -9.25 Q58.5 -9.0 57.3 -8.35 L54.3 -6.75 54.55 -7.55 55.45 -8.6 56.4 -8.9 58.9 -9.25 59.25 -9.25 M71.15 -19.35 L71.15 -18.75 70.65 -18.85 Q70.65 -19.05 69.9 -19.25 L69.65 -19.3 69.4 -19.4 66.95 -19.85 64.2 -19.6 Q67.75 -20.4 71.1 -19.5 L71.15 -19.35 M66.35 3.15 L66.45 4.1 66.2 5.85 65.5 6.1 65.8 4.3 65.8 3.5 66.3 3.15 66.35 3.15 M67.1 -1.6 L69.0 -1.15 Q70.55 -0.4 71.15 1.1 70.6 2.2 69.5 3.35 L66.85 5.55 Q67.2 3.9 66.8 2.7 67.5 1.75 67.5 0.4 67.5 -0.9 67.1 -1.6 M67.9 -3.1 L67.8 -3.15 70.85 -2.9 71.35 -2.75 Q71.9 -2.4 71.9 -1.55 71.9 -0.6 71.5 0.45 70.1 -2.25 66.65 -2.15 L65.2 -2.85 66.4 -3.05 66.7 -3.1 67.9 -3.1 M68.4 -6.65 L69.05 -6.45 71.0 -5.75 71.0 -5.6 71.25 -5.05 71.5 -4.45 Q71.5 -3.9 70.95 -3.75 L69.7 -3.45 67.95 -3.4 67.2 -3.65 66.75 -3.65 66.5 -3.75 64.5 -4.25 64.65 -4.25 67.0 -4.75 Q68.5 -5.25 68.5 -6.15 L68.4 -6.65 M68.0 -7.35 L67.9 -7.6 68.15 -8.2 Q68.15 -8.8 67.45 -9.25 69.95 -9.55 72.25 -8.65 72.65 -8.2 72.65 -7.65 72.65 -7.05 72.15 -6.4 L71.9 -6.1 70.9 -6.55 68.0 -7.35 M73.0 -16.55 Q73.75 -15.5 73.75 -14.3 73.75 -12.8 72.5 -11.35 L72.5 -10.85 72.2 -11.95 71.55 -13.55 Q71.9 -14.3 71.15 -15.65 70.1 -17.5 67.65 -18.1 L66.0 -18.25 66.7 -18.3 67.7 -18.5 68.65 -18.5 Q71.7 -18.45 73.0 -16.55 M61.95 3.15 L62.15 3.2 Q62.9 3.35 63.75 4.0 65.25 5.15 65.25 7.0 64.95 9.35 63.65 11.25 L63.65 11.35 Q63.65 12.65 62.9 13.45 62.2 14.2 60.4 15.2 L62.05 13.25 Q62.65 12.1 62.65 11.4 L62.3 10.0 61.95 9.3 62.45 8.6 63.3 9.6 63.65 11.1 63.85 10.65 Q64.25 9.65 64.25 8.3 64.25 6.7 63.45 5.1 62.75 3.75 61.95 3.15" fill="#ffe9e9" fill-rule="evenodd" stroke="none"/>
    </g>
    <radialGradient cx="0" cy="0" gradientTransform="matrix(0.0502, 0.0, 0.0, 0.0383, 23.1, 6.75)" gradientUnits="userSpaceOnUse" id="gradient0" r="819.2" spreadMethod="pad">
      <stop offset="0.0" stop-color="#eedbcf"/>
      <stop offset="1.0" stop-color="#f5a6c0"/>
    </radialGradient>
    <radialGradient cx="0" cy="0" gradientTransform="matrix(0.0363, 0.0, 0.0, 0.0363, 48.2, -33.35)" gradientUnits="userSpaceOnUse" id="gradient1" r="819.2" spreadMethod="pad">
      <stop offset="0.0" stop-color="#eedbcf"/>
      <stop offset="1.0" stop-color="#f5b4c9"/>
    </radialGradient>
    <radialGradient cx="0" cy="0" gradientTransform="matrix(0.0037, 0.0, 0.0, 0.0037, 62.55, -24.6)" gradientUnits="userSpaceOnUse" id="gradient2" r="819.2" spreadMethod="pad">
      <stop offset="0.0" stop-color="#eedbcf"/>
      <stop offset="1.0" stop-color="#f5b4c9"/>
    </radialGradient>
    <radialGradient cx="0" cy="0" gradientTransform="matrix(0.0156, 0.0, 0.0, 0.0156, 50.6, -40.55)" gradientUnits="userSpaceOnUse" id="gradient3" r="819.2" spreadMethod="pad">
      <stop offset="0.0" stop-color="#eedbcf"/>
      <stop offset="1.0" stop-color="#f5b4c9"/>
    </radialGradient>
    <radialGradient cx="0" cy="0" gradientTransform="matrix(0.0141, 0.0, 0.0, 0.0141, 63.25, -14.4)" gradientUnits="userSpaceOnUse" id="gradient4" r="819.2" spreadMethod="pad">
      <stop offset="0.0" stop-color="#eedbcf"/>
      <stop offset="1.0" stop-color="#f5b4c9"/>
    </radialGradient>
    <radialGradient cx="0" cy="0" gradientTransform="matrix(0.0052, 0.0, 0.0, 0.0052, 25.0, -46.05)" gradientUnits="userSpaceOnUse" id="gradient5" r="819.2" spreadMethod="pad">
      <stop offset="0.0" stop-color="#eedbcf"/>
      <stop offset="1.0" stop-color="#f5b4c9"/>
    </radialGradient>
    <radialGradient cx="0" cy="0" gradientTransform="matrix(0.0215, 0.0, 0.0, 0.0215, 13.4, -38.75)" gradientUnits="userSpaceOnUse" id="gradient6" r="819.2" spreadMethod="pad">
      <stop offset="0.0" stop-color="#eedbcf"/>
      <stop offset="1.0" stop-color="#f5b4c9"/>
    </radialGradient>
    <radialGradient cx="0" cy="0" gradientTransform="matrix(0.0065, 0.0, 0.0, 0.0065, 20.9, -40.35)" gradientUnits="userSpaceOnUse" id="gradient7" r="819.2" spreadMethod="pad">
      <stop offset="0.0" stop-color="#eedbcf"/>
      <stop offset="1.0" stop-color="#f5b4c9"/>
    </radialGradient>
    <radialGradient cx="0" cy="0" gradientTransform="matrix(0.0044, 0.0, 0.0, 0.0044, 26.15, -36.6)" gradientUnits="userSpaceOnUse" id="gradient8" r="819.2" spreadMethod="pad">
      <stop offset="0.0" stop-color="#eedbcf"/>
      <stop offset="1.0" stop-color="#f5b4c9"/>
    </radialGradient>
    <radialGradient cx="0" cy="0" gradientTransform="matrix(0.0147, 0.0, 0.0, 0.0147, 38.9, -31.0)" gradientUnits="userSpaceOnUse" id="gradient9" r="819.2" spreadMethod="pad">
      <stop offset="0.0" stop-color="#eedbcf"/>
      <stop offset="1.0" stop-color="#f5b4c9"/>
    </radialGradient>
    <radialGradient cx="0" cy="0" gradientTransform="matrix(0.0055, 0.0, 0.0, 0.0055, 13.95, -36.35)" gradientUnits="userSpaceOnUse" id="gradient10" r="819.2" spreadMethod="pad">
      <stop offset="0.0" stop-color="#eedbcf"/>
      <stop offset="1.0" stop-color="#f5b4c9"/>
    </radialGradient>
    <radialGradient cx="0" cy="0" gradientTransform="matrix(0.0013, 0.0, 0.0, 0.0013, 19.15, -37.05)" gradientUnits="userSpaceOnUse" id="gradient11" r="819.2" spreadMethod="pad">
      <stop offset="0.0" stop-color="#eedbcf"/>
      <stop offset="1.0" stop-color="#f5b4c9"/>
    </radialGradient>
    <radialGradient cx="0" cy="0" gradientTransform="matrix(0.0, 0.0, 0.0, 0.0, 0.0, 0.0)" gradientUnits="userSpaceOnUse" id="gradient12" r="819.2" spreadMethod="pad">
      <stop offset="0.0" stop-color="#eedbcf"/>
      <stop offset="1.0" stop-color="#f5b4c9"/>
    </radialGradient>
    <radialGradient cx="0" cy="0" gradientTransform="matrix(0.0103, 0.0, 0.0, 0.0103, 52.85, -29.9)" gradientUnits="userSpaceOnUse" id="gradient13" r="819.2" spreadMethod="pad">
      <stop offset="0.0" stop-color="#eedbcf"/>
      <stop offset="1.0" stop-color="#f5b4c9"/>
    </radialGradient>
    <radialGradient cx="0" cy="0" gradientTransform="matrix(0.0022, 0.0, 0.0, 0.0022, 56.95, -37.7)" gradientUnits="userSpaceOnUse" id="gradient14" r="819.2" spreadMethod="pad">
      <stop offset="0.0" stop-color="#eedbcf"/>
      <stop offset="1.0" stop-color="#f5b4c9"/>
    </radialGradient>
    <radialGradient cx="0" cy="0" gradientTransform="matrix(0.0052, 0.0, 0.0, 0.0052, 50.55, -18.35)" gradientUnits="userSpaceOnUse" id="gradient15" r="819.2" spreadMethod="pad">
      <stop offset="0.0" stop-color="#eedbcf"/>
      <stop offset="1.0" stop-color="#f5b4c9"/>
    </radialGradient>
    <radialGradient cx="0" cy="0" gradientTransform="matrix(0.0013, 0.0, 0.0, 0.0013, 59.05, -17.5)" gradientUnits="userSpaceOnUse" id="gradient16" r="819.2" spreadMethod="pad">
      <stop offset="0.0" stop-color="#eedbcf"/>
      <stop offset="1.0" stop-color="#f5b4c9"/>
    </radialGradient>
    <radialGradient cx="0" cy="0" gradientTransform="matrix(0.012, 0.0, 0.0, 0.012, 65.15, -14.05)" gradientUnits="userSpaceOnUse" id="gradient17" r="819.2" spreadMethod="pad">
      <stop offset="0.0" stop-color="#eedbcf"/>
      <stop offset="1.0" stop-color="#f5b4c9"/>
    </radialGradient>
    <radialGradient cx="0" cy="0" gradientTransform="matrix(7.0E-4, 0.0, 0.0, 7.0E-4, 49.05, -24.55)" gradientUnits="userSpaceOnUse" id="gradient18" r="819.2" spreadMethod="pad">
      <stop offset="0.0" stop-color="#eedbcf"/>
      <stop offset="1.0" stop-color="#f5b4c9"/>
    </radialGradient>
    <radialGradient cx="0" cy="0" gradientTransform="matrix(0.0063, 0.0, 0.0, 0.0063, 56.2, -4.35)" gradientUnits="userSpaceOnUse" id="gradient19" r="819.2" spreadMethod="pad">
      <stop offset="0.0" stop-color="#eedbcf"/>
      <stop offset="1.0" stop-color="#f5b4c9"/>
    </radialGradient>
    <radialGradient cx="0" cy="0" gradientTransform="matrix(2.0E-4, 0.0, 0.0, 2.0E-4, 57.15, -6.35)" gradientUnits="userSpaceOnUse" id="gradient20" r="819.2" spreadMethod="pad">
      <stop offset="0.0" stop-color="#eedbcf"/>
      <stop offset="1.0" stop-color="#f5b4c9"/>
    </radialGradient>
    <radialGradient cx="0" cy="0" gradientTransform="matrix(0.015, 0.0, 0.0, 0.015, 65.1, -1.55)" gradientUnits="userSpaceOnUse" id="gradient21" r="819.2" spreadMethod="pad">
      <stop offset="0.0" stop-color="#eedbcf"/>
      <stop offset="1.0" stop-color="#f5b4c9"/>
    </radialGradient>
    <radialGradient cx="0" cy="0" gradientTransform="matrix(0.0166, 0.0, 0.0, 0.0166, 62.0, 3.2)" gradientUnits="userSpaceOnUse" id="gradient22" r="819.2" spreadMethod="pad">
      <stop offset="0.0" stop-color="#eedbcf"/>
      <stop offset="1.0" stop-color="#f5b4c9"/>
    </radialGradient>
    <radialGradient cx="0" cy="0" gradientTransform="matrix(0.0059, 0.0, 0.0, 0.0059, 52.2, 4.1)" gradientUnits="userSpaceOnUse" id="gradient23" r="819.2" spreadMethod="pad">
      <stop offset="0.0" stop-color="#eedbcf"/>
      <stop offset="1.0" stop-color="#f5b4c9"/>
    </radialGradient>
    <radialGradient cx="0" cy="0" gradientTransform="matrix(3.0E-4, 0.0, 0.0, 3.0E-4, 59.35, -5.95)" gradientUnits="userSpaceOnUse" id="gradient24" r="819.2" spreadMethod="pad">
      <stop offset="0.0" stop-color="#eedbcf"/>
      <stop offset="1.0" stop-color="#f5b4c9"/>
    </radialGradient>
    <radialGradient cx="0" cy="0" gradientTransform="matrix(0.0066, 0.0, 0.0, 0.0066, 68.65, 2.85)" gradientUnits="userSpaceOnUse" id="gradient25" r="819.2" spreadMethod="pad">
      <stop offset="0.0" stop-color="#eedbcf"/>
      <stop offset="1.0" stop-color="#f5b4c9"/>
    </radialGradient>
    <radialGradient cx="0" cy="0" gradientTransform="matrix(0.0051, 0.0, 0.0, 0.0051, 60.25, 10.7)" gradientUnits="userSpaceOnUse" id="gradient26" r="819.2" spreadMethod="pad">
      <stop offset="0.0" stop-color="#eedbcf"/>
      <stop offset="1.0" stop-color="#f5b4c9"/>
    </radialGradient>
    <radialGradient cx="0" cy="0" gradientTransform="matrix(0.0076, 0.0, 0.0, 0.0076, 54.35, 7.15)" gradientUnits="userSpaceOnUse" id="gradient27" r="819.2" spreadMethod="pad">
      <stop offset="0.0" stop-color="#eedbcf"/>
      <stop offset="1.0" stop-color="#f5b4c9"/>
    </radialGradient>
    <radialGradient cx="0" cy="0" gradientTransform="matrix(0.006, 0.0, 0.0, 0.006, 53.7, 7.8)" gradientUnits="userSpaceOnUse" id="gradient28" r="819.2" spreadMethod="pad">
      <stop offset="0.0" stop-color="#eedbcf"/>
      <stop offset="1.0" stop-color="#f5b4c9"/>
    </radialGradient>
  </defs>
</svg>
