<svg xmlns="http://www.w3.org/2000/svg" xmlns:ffdec="https://www.free-decompiler.com/flash" xmlns:xlink="http://www.w3.org/1999/xlink" ffdec:objectType="frame" width="58.6" height="68.1"><use ffdec:characterId="1" xlink:href="#a" width="58.6" height="68.1"/><defs><radialGradient id="b" cx="0" cy="0" r="819.2" gradientTransform="translate(24.2 -15.4)scale(.0694)" gradientUnits="userSpaceOnUse" spreadMethod="pad"><stop offset=".388" stop-color="#391558"/><stop offset="1" stop-color="#634081"/></radialGradient><radialGradient id="c" cx="0" cy="0" r="819.2" gradientTransform="translate(42.6 39.25)scale(.0011)" gradientUnits="userSpaceOnUse" spreadMethod="pad"><stop offset=".388" stop-color="#391558"/><stop offset="1" stop-color="#634081"/></radialGradient><g id="a" fill-rule="evenodd"><path fill="url(#b)" d="m41.75 39.5-3.55.7h-.45l-1.3-.1-1.95-.4-2.1-.7-.75-.05q-4.25-.35-5.95-2.55-1.55-.75-2.65-1.75l-2.7-1.85q-5.8-4.2-7.8-4.8l-2.85-.85-2.8-.35-3.4.4q-1.55.45-2.5 1-2.6 2-2.6 5l.2 1.1-.8-.6q-1.3-1.15-1.3-2.45l.25-1.3q-1.3.55-2.35 1.6-.8.75-.55 1.85-.9-2.7-.55-5.2.25-1.8 1.15-3.45l.15-.25.6-.75.75-.8Q-1.95 21 .25 21l3.2.4.9.25-.55-.25q-2.8-1.25-4.85-.85-2.05.35-3.05 1.55.4-.5 1.65-1.45 1.25-1 3.3-1.5l2.35-.4h2.55l4.6.6q1.5.35 5.5 2.05l.95.4q1.7.7 5.55 3.35l7 6.6-.95-1 1.4 1.15q1.25.85 2.85 1.25l4 1 1.1-.4q.45-.45.6-2.15l.15-1.8q-.1-1.1-.7-2.05l-.25-.35q-1.25-1.65-4.1-2.7-4.9-1.9-4.55-3.5l.1-.45q.3-1.3.85-2.3v-.05l.15-.5-.65.15-.3.1-6.15.95-1.65-.1-6.65-1.15-.6-.2Q9.25 15.9 5.3 12.4-2.45 5.5-2.45-4.3T5.3-21 24-27.9 42.7-21t7.75 16.7-7.75 16.7q-3.45 3.05-7.5 4.8h-.05l-.3.1-.55.25q-.95.75.1 1.55l.3.2q1.4.95 5.2 1.9t7.65 3.9q3.8 2.95 3.4 5.75-.45 2.8-3.7 5.8L45.7 37.9l-1.3.7-1.7.65h-.15l.9-.3-1.5.4zm2.65-5.15q0 2.45-1.9 4.45l-.5.5 1.05-.4.7-.2-.1-.05.3-.2.6-.4Q47.6 36 48 34.8q.4-1.25 1.5-2.85t-2.55-4.1q-3.75-2.55-4.55-2.9 4.45 3.45 5.1 5.95.6 2.45-3.1 3.45m-2.85-3.7-.45-1-.2-.05-1.05-1.25q.6.95.7 2.2l.05.75q0 2.2-3.6 4.9l-3.2 1.9h-.35l-1.25-.05 1.3.3 1.1.05 2.15-.15.4-.05-.65.3-3.05.5.25.1q1.6.6 2.55.6l1.75-.25q.95-.35 1.8-1.05 2.1-1.7 2.1-4.95 0-1.8-.35-2.8M29.6 21q0 1.95 5 3.65 1.95.65 3.2 1.45l.25.2-.8-.75-2.45-1.9q-2.65-1.95-3.35-4.1-.35-1.05-.25-2.1-1.25 1.7-1.5 2.9z" transform="translate(7.6 27.9)"/><path fill="url(#c)" d="m41.75 39.5.2-.15 1.5-.4-.9.3z" transform="translate(7.6 27.9)"/><path fill="#39125b" fill-opacity=".498" d="M50.75 57.9q1.1 1.5 1.25 3.75.15 2.2-1.8 3.95-2 1.7-5 1.9l.4-.15.55-.35q3.25-1.95 3.25-5 0-.75-.9-2.8l-1.4 2.45q-1 1.65-2.5 1.65.8-.25 1.15-1.1l.15-.65.1-2.65q0-3.15-1.4-5l-1.45-2.3-.45-.4.25.1q-4.25-3.1-4.35-4.75-.2-1.65 1.3-1.65 1.2-.05.95.25l.05.55q0 1 1.55 2.7 1.5 1.65 6.85 4.1 5.3 2.45 5.6 5.1.3 2.5-.2 3.4l-.05-1.05q-.2-2.1-3.75-4.15l-3.95-2.25 1.8 1.8zM15 51.5h.2q8.55-.15 10.9 1.15l3.15 2.05Q27.1 52.55 25 51.35l2.65 1.15q1.9.8 5.2 4.3 3.3 3.45 5.8 4.65 2.45 1.2 5.3 1.05l-.45.15-2 .05q-3.55 0-7.1-2.85l-8.6-5.05q-3.9-2.5-10.8-3.3m-5.85-4.05.8.15q.6.15 1.05.45 6.95 2.9 10.5 2.05-4.55 1.25-8.35-.15-3.9-1.4-5.65-1.45l-1.4.05.2-.1q2.35-1.05 2.85-1m4.25 4.4q3.45 2.15 6 2.45-3-.05-5.9-1.25-2.85-1.15-5.6-1.15-2.95 0-4.6.95-1.4.8-2.1 2.45 1.2-3.05 2.9-4.5 1.65-1.5 3.75-1.3t5.55 2.35M3 49.9l-.2.2V50zm10.6 4.45-.8-.45h-1.9q-2.2.25-4 1.7Q5 57.1 5 58.9l.2 1.15 1 1.6.1.45-1.9-1.65q-.3-.45-.3-1.9 0-2.7.8-4.05 1.2-2 4.35-2 1.7 0 3.05.65 1.25.55 1.85 1.55z"/><path fill="#694b83" d="M49.15 58.55q.35 1 .35 2.8 0 3.25-2.1 4.95-1.6 1.3-3.55 1.3-.95 0-2.55-.6l-.25-.1 3.05-.5q3-1.5 2.85-2.4l-1.85.95q-2.2 1-3.85 1.3.8 0-1.1.25t-4.5-.65q-2.65-.9-8.4-5.65-5.8-4.75-10.85-5.25l1.4-.05q8.8 1.5 10.7 3.3l3.2 2.8q1.25 1.05-1.35-2.2-1.4-1.75-3.15-2.95 2.85 1.45 7.75 4.55 2.9 1.9 6.75 1.9 4.4 0 4.85-2.75l.05.75q0 1.7-1.1 3.1 2.7-2.3 2.7-4.2 0-1.7-.75-2.95l1.05 1.25.3.4zm2.85 3.7q3.1-.85 2.8-3.2-.35-2.75-4.8-6.2 1 .4 4.75 3.05 3.7 2.65 2.5 4.55l-1.65 2.7-3.45 2.8-.6.4-.3.2.1.05-.7.2-1.05.4.5-.5q1.9-2 1.9-4.45m-9.6-10.7 2.45 1.9.8.75-.25-.2q-1.25-.8-3.2-1.45-5-1.7-5-3.65 0-1.35 1.6-3.55-.3 3.35 3.6 6.2m-30 .75-.6.1.4.1q1.65.4 4.6 2.1l-3.6-1.1h-2.6q-3.25.2-6.45 3.6Q.8 60.6.8 64.2q0 .85.8 2L.55 64.95Q0 64 0 61.8q0-10.1 9.2-10.1 1.9 0 5.4 1h-.2zm-1.6-5.65 3.05 1.75q1.45.65 4.1 1.1l3.1.3q1.4.4-3.1.35-6.15-.1-7.9-1.85-1.75-1.8-1.1-4.3-.05.45.6 1.4l.9.95z"/><path d="m36.65 46.4.3-.45q.25-.3.75-.6 1.4-.85 3.05-.85l1 .05.55 1.6v.05l-1.55-.2-2.15.45q-1.3.4-1.9 1v-.1z"/><path fill="#625e5c" d="m36.65 46.4-.15-1.45q.25-.35 1.4-.9 1.3-.65 2.65-.65l.65.2.4.45.15.5-1-.05q-1.65 0-3.05.85-.5.3-.75.6zm5.65-.2.35.9.1.35-.15-.15q-.2-.3-1.2-.3l-2.15.35q-1.1.35-1.95.9l-.7.4-.1.05v-.1l.2-1.15q.6-.6 1.9-1l2.15-.45z"/></g></defs></svg>