<svg xmlns="http://www.w3.org/2000/svg" xmlns:ffdec="https://www.free-decompiler.com/flash" xmlns:xlink="http://www.w3.org/1999/xlink" ffdec:objectType="frame" width="110.6" height="90.1"><use ffdec:characterId="1" xlink:href="#a" width="110.6" height="90.1"/><defs><linearGradient id="b" x1="-819.2" x2="819.2" gradientTransform="matrix(0 -.0556 .055 0 23.7 14.45)" gradientUnits="userSpaceOnUse" spreadMethod="pad"><stop offset=".294" stop-color="#faf8c5"/><stop offset="1" stop-color="#d27c6b"/></linearGradient><linearGradient id="c" x1="-819.2" x2="819.2" gradientTransform="matrix(0 -.0081 .0082 0 12.9 38.8)" gradientUnits="userSpaceOnUse" spreadMethod="pad"><stop offset="0" stop-color="#663d33" stop-opacity="0"/><stop offset=".635" stop-color="#663d33" stop-opacity=".498"/></linearGradient><linearGradient id="d" x1="-819.2" x2="819.2" gradientTransform="matrix(0 -.0162 .0157 0 -4.1 45.2)" gradientUnits="userSpaceOnUse" spreadMethod="pad"><stop offset="0" stop-color="#663d33" stop-opacity="0"/><stop offset=".635" stop-color="#663d33" stop-opacity=".498"/></linearGradient><linearGradient id="e" x1="-819.2" x2="819.2" gradientTransform="matrix(0 -.0107 .0105 0 9.5 47.3)" gradientUnits="userSpaceOnUse" spreadMethod="pad"><stop offset="0" stop-color="#663d33" stop-opacity="0"/><stop offset=".635" stop-color="#663d33" stop-opacity=".498"/></linearGradient><linearGradient id="f" x1="-819.2" x2="819.2" gradientTransform="matrix(.0039 0 0 .0081 -18.65 25.55)" gradientUnits="userSpaceOnUse" spreadMethod="pad"><stop offset="0" stop-color="#663d33" stop-opacity="0"/><stop offset=".635" stop-color="#663d33" stop-opacity=".498"/></linearGradient><linearGradient id="g" x1="-819.2" x2="819.2" gradientTransform="matrix(0 -.016 .0159 0 -25.75 32.6)" gradientUnits="userSpaceOnUse" spreadMethod="pad"><stop offset="0" stop-color="#663d33" stop-opacity="0"/><stop offset=".635" stop-color="#663d33" stop-opacity=".498"/></linearGradient><linearGradient id="h" x1="-819.2" x2="819.2" gradientTransform="rotate(-90.285 13.965 20.185)scale(.0201)" gradientUnits="userSpaceOnUse" spreadMethod="pad"><stop offset="0" stop-color="#663d33" stop-opacity="0"/><stop offset=".635" stop-color="#663d33" stop-opacity=".498"/></linearGradient><linearGradient id="i" x1="-819.2" x2="819.2" gradientTransform="matrix(0 -.0091 .0108 0 -11.55 36.95)" gradientUnits="userSpaceOnUse" spreadMethod="pad"><stop offset="0" stop-color="#663d33" stop-opacity="0"/><stop offset=".635" stop-color="#663d33" stop-opacity=".498"/></linearGradient><linearGradient id="j" x1="-819.2" x2="819.2" gradientTransform="matrix(0 -.0086 .0092 0 -20.25 39.95)" gradientUnits="userSpaceOnUse" spreadMethod="pad"><stop offset="0" stop-color="#663d33" stop-opacity="0"/><stop offset=".635" stop-color="#663d33" stop-opacity=".498"/></linearGradient><linearGradient id="k" x1="-819.2" x2="819.2" gradientTransform="matrix(-.0039 0 0 .0081 66.05 25.55)" gradientUnits="userSpaceOnUse" spreadMethod="pad"><stop offset="0" stop-color="#663d33" stop-opacity="0"/><stop offset=".635" stop-color="#663d33" stop-opacity=".498"/></linearGradient><linearGradient id="l" x1="-819.2" x2="819.2" gradientTransform="matrix(0 -.016 -.0159 0 73.15 32.6)" gradientUnits="userSpaceOnUse" spreadMethod="pad"><stop offset="0" stop-color="#663d33" stop-opacity="0"/><stop offset=".635" stop-color="#663d33" stop-opacity=".498"/></linearGradient><linearGradient id="m" x1="-819.2" x2="819.2" gradientTransform="rotate(90.285 9.735 43.767)scale(-.0201 .0201)" gradientUnits="userSpaceOnUse" spreadMethod="pad"><stop offset="0" stop-color="#663d33" stop-opacity="0"/><stop offset=".635" stop-color="#663d33" stop-opacity=".498"/></linearGradient><linearGradient id="n" x1="-819.2" x2="819.2" gradientTransform="matrix(0 -.0091 -.0108 0 58.95 36.95)" gradientUnits="userSpaceOnUse" spreadMethod="pad"><stop offset="0" stop-color="#663d33" stop-opacity="0"/><stop offset=".635" stop-color="#663d33" stop-opacity=".498"/></linearGradient><linearGradient id="o" x1="-819.2" x2="819.2" gradientTransform="matrix(0 -.0162 -.0157 0 51.5 45.2)" gradientUnits="userSpaceOnUse" spreadMethod="pad"><stop offset="0" stop-color="#663d33" stop-opacity="0"/><stop offset=".635" stop-color="#663d33" stop-opacity=".498"/></linearGradient><linearGradient id="p" x1="-819.2" x2="819.2" gradientTransform="matrix(0 -.0086 -.0092 0 67.65 39.95)" gradientUnits="userSpaceOnUse" spreadMethod="pad"><stop offset="0" stop-color="#663d33" stop-opacity="0"/><stop offset=".635" stop-color="#663d33" stop-opacity=".498"/></linearGradient><linearGradient id="q" x1="-819.2" x2="819.2" gradientTransform="matrix(0 -.0081 -.0082 0 34.5 38.8)" gradientUnits="userSpaceOnUse" spreadMethod="pad"><stop offset="0" stop-color="#663d33" stop-opacity="0"/><stop offset=".635" stop-color="#663d33" stop-opacity=".498"/></linearGradient><linearGradient id="r" x1="-819.2" x2="819.2" gradientTransform="matrix(0 -.0107 -.0105 0 37.9 47.3)" gradientUnits="userSpaceOnUse" spreadMethod="pad"><stop offset="0" stop-color="#663d33" stop-opacity="0"/><stop offset=".635" stop-color="#663d33" stop-opacity=".498"/></linearGradient><g id="a" fill-rule="evenodd"><path fill="url(#b)" d="M23.3-30.6q16.05-.2 21.85 13.55 2.95 6.9 2.65 13.85 6.4 12 17.45 15 5.5 1.5 9.75.6-4.65 1.95-10.75 1.1-2.55-.35-4.9-1.25 2.9 1.6 4.9 3.5l.2.2q2.6 1.15 8.7 1.4L79 17.3q-4.35 2.4-10.9 2.25H68q11 6.3 10.8 16.8-.05 5.3-2.4 9.25.8-3.35.3-7.8-1.05-8.8-7.7-14l.15 1.45q.3 4-1.45 6.95.2-2.5-.5-5.55-.55-2.3-1.45-4.1-3.1-.2-7.1-1.85 3.35 4.15 3.2 11.2v.35q.9 8.2 6.95 12.3 3.1 2.15 6 2.55-3.2.7-7.2-1.15-3.9-1.8-6.9-5.65l-.6 2 .3-2.4q-2.6-3.6-4.45-8.85v.1q1.8 7.05 1.45 10.25-.45 3.8-2.75 6.95-1.15 1.55-2.25 2.35 1.4-1.85 1.95-5.5 1.1-7.35-3.15-16.5-.45 2.2-1.5 3.65.35 1.6.25 3.5l1.95.55-2-.1-.3 2.05-.1.5-.1.5q-.45 9.25 3.7 14.85 2.15 2.85 4.4 3.8-2.65-.25-5.5-2.8-2.65-2.4-4.25-6.1.2 4.75-.8 8.05L45.9 59.5q.6-3.55.35-7.9-.25-4.15-1.3-7.2-.15 4.65.35 9.1-1.55-6.35-1.8-12.25-.85-1.35-1.9-2.35l-4-4.1q-2.15-2.45-3.75-4.7.25 3.25 2.1 6.35l1.65 2.65q2.45 1.4 4.8 1.3l-3.95.2q3.2 3.85 3.8 9.95.3 3.05-.05 5.35-.05-2.15-1.2-5.4-2.3-6.35-7.6-11.8l-.35-.2-2.55-2.15q0 8.2 5.15 15.85 2.65 3.85 5.25 6-4-1.3-8.15-6.8-8.3-11-9.05-31.8-.75 20.8-9.05 31.8-4.15 5.5-8.15 6.8 2.6-2.15 5.25-6 5.15-7.65 5.15-15.85l-2.55 2.15-.35.2q-5.3 5.45-7.6 11.8-1.15 3.25-1.2 5.4-.35-2.3-.05-5.35.6-6.1 3.8-9.95L5 40.4q2.35.1 4.8-1.3l1.65-2.65q1.85-3.1 2.1-6.35L9.8 34.8l-4 4.1q-1.05 1-1.9 2.35-.25 5.9-1.8 12.25.5-4.45.35-9.1-1.05 3.05-1.3 7.2-.25 4.35.35 7.9-.55-.7-1.05-2.35-1-3.3-.8-8.05-1.6 3.7-4.25 6.1-2.85 2.55-5.5 2.8 2.25-.95 4.4-3.8 4.15-5.6 3.7-14.85l-.1-.5-.1-.5-.3-2.05-2 .1 1.95-.55q-.1-1.9.25-3.5-1.05-1.45-1.5-3.65-4.25 9.15-3.15 16.5.55 3.65 1.95 5.5-1.1-.8-2.25-2.35-2.3-3.15-2.75-6.95-.35-3.2 1.45-10.25v-.1Q-10.4 36.3-13 39.9l.3 2.4-.6-2q-3 3.85-6.9 5.65-4 1.85-7.2 1.15 2.9-.4 6-2.55 6.05-4.1 6.95-12.3v-.35q-.15-7.05 3.2-11.2-4 1.65-7.1 1.85-.9 1.8-1.45 4.1-.7 3.05-.5 5.55-1.75-2.95-1.45-6.95l.15-1.45q-6.65 5.2-7.7 14-.5 4.45.3 7.8-2.35-3.95-2.4-9.25-.2-10.5 10.8-16.8h-.1q-6.55.15-10.9-2.25l5.85.05q6.1-.25 8.7-1.4l.2-.2q2-1.9 4.9-3.5-2.35.9-4.9 1.25-6.1.85-10.75-1.1 4.25.9 9.75-.6Q-6.8 8.8-.4-3.2q-.45-6.65 2.2-13.45 5.4-13.7 21.5-13.95M44 32.45l.4-2.8-5.6-6.55q-4.5-6.05-5.2-13.4.55 14.4 9.5 22zM43.5 36l.25-1.55-.6-.25-2.65-1.45 1.05 1.05q1.2 1.3 1.95 2.9zM4.25 34.2l-.6.25L3.9 36l.05.7q.7-1.6 1.9-2.9l1.1-1.05zM13.8 9.7q-.7 7.35-5.2 13.4L3 29.65l.4 2.8.9-.75q8.95-7.6 9.5-22" transform="translate(31.6 30.6)"/><path fill="#b26958" fill-opacity=".694" d="m98.25 49 1.75.15q6.2.45 10.25-1.2l.25-.05h.1q-4.35 2.4-10.9 2.25H99l-2.25-.2q1.7 2.4 2.35 5.65.7 3.45.25 6.35.05-2.15-.55-4.7-.55-2.3-1.45-4.1-3.1-.2-7.1-1.85l-.5-.25Q81.25 47.2 76 38.55q5.25 6.85 13.25 10.6 4.05 1.9 7.05 2.35l-1.85-1.95Q84.4 47.3 75.7 37.2q7.35 7.1 15.3 10-5.4-3.35-7.3-5.25Q79.5 37.8 76 29.5q3.4 7.05 9.1 11.85 2.85 2.4 5 3.35 3.35 1.45 5.55 3.85zm1.85 3.55q8.5 6.4 9 15.6.3 4.35-1 7.55.65-3.2.2-7.3-1.05-8.8-7.7-14zm6.5-9.55q-4.65 1.95-10.75 1.1-2.55-.35-4.9-1.25l-.8-.35Q81.9 38.85 76.6 28.2q7.75 12.7 19.6 15.05 5.85 1.15 10.15-.2zM80.4 60.4l-.75-1.15q1.85-7.35-3.65-15l-4-4.5-1.9-1.65q9.7 6.45 10.95 15.05.65 4.3-.65 7.25m11.65 7.3-.2-2.45q-.65-6.55-3.8-10.45 1.15 7.7 4 12.9M86.1 52.8l-.1-.1-2-1.7q-.1 4.25 1.1 9.35l2.4 8.75q1 3.45-1.15 8.1l-1.8 3.3q.95-1.8 1.4-4.7 1.1-7.35-3.15-16.5l.15-.75q.9-5.25-1.7-10.15-7.15-7.1-9.75-14.9 3.1 5.85 6.75 10.15 2.8 3.25 5.35 4.95 2.7 1.8 5.9 4.9 1.7 2.15 2.45 6.85.7 4.1.4 7.9l-.25 2.35-.1-.1q-2.6-3.6-4.45-8.85l-.35-1.25q-1.4-5.8-1.1-7.6m-9.15 1.4q-.7-3.75-4.05-8.6l-4.4-5.5q7.15 4.6 9.1 11.45.95 3.45.5 6l-1-1.15zm-1.35 8.85.4-2.8-5.6-6.55q-4.5-6.05-5.2-13.4 2.75 7.3 8.4 14.75L78.7 61q1.35 2.45 1.75 5.05l.05.3.05.4q.15 1.85-.2 3.8-.25 1.75-.85 3.05l.45-3.15q.15-2.1-.2-3.9l-1-.25q-.5 4.6.1 8.45.9 5.4 4 9.2 2.75 3.35 5.8 4.45l.35.15.1.05q-2.65-.25-5.5-2.8-2.65-2.4-4.25-6.1l-1.3-3.75q1 4.35.35 9.55l-.85 4.4q.55-3.5.3-7.7-.25-4.15-1.3-7.2l.4-5.6.75-3.4-1.25-.45-.4 1.8q-.3 2.75-.25 5.75 0 5.1 1.1 10.75v.25q-1.55-6.35-1.8-12.25-.85-1.35-1.9-2.35l-4-4.1q-2.15-2.45-3.75-4.7-1.6-2.3-2.65-4.4l-.5-6.6-.2-9.9q.85 15.6 11.15 22.9l2.25 1.45 1.1.6 1.25.6.95.4.85.35-.15-.5-.5-1.4-.15 1.05-.9-.55.35-1.75-.5-.75-.55-.6-.5 2.3zm-.5 3.55.25-1.55-.6-.25-2.65-1.45q-5.05-3.3-7.8-8.9 2.85 6.35 7.05 11 2.1 2.4 3.7 3.45l.05-1.6zm17.65 2.35q2.35 3.8 5.7 6.05 3.9 2.65 7.45 2.65l.4.05h.1q-3.2.7-7.2-1.15-3.9-1.8-6.9-5.65zm-32.9-17.3q1.45 6.4 3.65 9.45.45 2.6 1.1 4.45-5-6.55-5.8-19.65zM67.4 70.5l1.75 1.85q2.85 3.6 4 8.6.55 2.55.6 4.55-.25-1.85-1.15-4.4-1.8-4.9-5.35-9.3L65 69.3l-.35-.2-2.55-2.15q-5.9-6.3-5.4-21.25.45 16.9 8.9 22.8 4.25 2.95 8.4 2.5l-3.95.2zM55.3 50.2q2.15 20.15 9.85 31.35 3.85 5.55 7.2 7.15l.15.1q-4-1.3-8.15-6.8-8.3-11-9.05-31.8"/><path fill="#b26958" fill-opacity=".694" d="M38.6 39.75q-2.25 2.15-4 4.5-5.5 7.65-3.65 15l-.75 1.15q-1.3-2.95-.65-7.25 1.25-8.6 10.95-15.05zM33.65 54.2Q38 50.5 41.3 44.05l2.35-5.65q-.5 4.75-4.15 10.4-2.2 3.4-6 7.6l-1 1.15q-.45-2.55.5-6 1.95-6.85 9.1-11.45l-4.4 5.5q-3.35 4.85-4.05 8.6m17.1-2.55 1.05-5.75Q51 59 46 65.55l-2 2.2q1.25-1.4 2.2-5.1l.7-3.45-.65 1.05L45 61.7l.15-1-3.75 4.7-4 4.1q-1.05 1-1.9 2.35-.25 5.9-1.8 12.25v-.25q1.1-5.65 1.1-10.75.05-3-.25-5.75l-.4-1.8-1.25.45.75 3.4.4 5.6q-1.05 3.05-1.3 7.2-.25 4.2.3 7.7-.5-1.8-.85-4.4-.65-5.2.35-9.55l-1.3 3.75q-1.6 3.7-4.25 6.1-2.85 2.55-5.5 2.8l.1-.05.35-.15q3.05-1.1 5.8-4.45 3.1-3.8 4-9.2.6-3.85.1-8.45l-1 .25q-.35 1.8-.2 3.9l.45 3.15q-.6-1.3-.85-3.05-.35-1.95-.2-3.8l.05-.4.05-.3q.4-2.6 1.75-5.05 2.25-2.25 5.1-5.95 5.65-7.45 8.4-14.75-.7 7.35-5.2 13.4l-5.6 6.55.4 2.8-1.15.85-.5-2.3-.55.6-.5.75.35 1.75-.9.55-.15-1.05-.5 1.4-.15.5.85-.35.95-.4 1.25-.6 1.1-.6 2.25-1.45q10.3-7.3 11.15-22.9l-.2 9.9-.5 6.6-.7 4.8q2.2-3.05 3.65-9.45M39.1 33.5q-2.6 7.8-9.75 14.9-2.6 4.9-1.7 10.15l.15.75q-4.25 9.15-3.15 16.5.45 2.9 1.4 4.7l-1.8-3.3q-2.15-4.65-1.15-8.1l2.4-8.75q1.2-5.1 1.1-9.35l-2 1.7-.1.1q.3 1.8-1.1 7.6l-.35 1.25Q21.2 66.9 18.6 70.5l-.1.1-.25-2.35q-.3-3.8.4-7.9.75-4.7 2.45-6.85 3.2-3.1 5.9-4.9 2.55-1.7 5.35-4.95Q36 39.35 39.1 33.5m-3.85 31.55.25 1.55v.7l.05 1.6q1.6-1.05 3.7-3.45 4.2-4.65 7.05-11-2.75 5.6-7.8 8.9l-2.65 1.45zM36.6 71q4.15.45 8.4-2.5 8.45-5.9 8.9-22.8.5 14.95-5.4 21.25l-2.55 2.15-.35.2-2.25 2.5Q39.8 76.2 38 81.1q-.9 2.55-1.15 4.4.05-2 .6-4.55 1.15-5 4-8.6l1.75-1.85-2.65.7zm9.65 11q-4.15 5.5-8.15 6.8l.15-.1q3.35-1.6 7.2-7.15 7.7-11.2 9.85-31.35Q54.55 71 46.25 82M10.5 52.55 10 54.4q-6.65 5.2-7.7 14-.45 4.1.2 7.3-1.3-3.2-1-7.55.5-9.2 9-15.6m10.35-1.5-.5.25q-4 1.65-7.1 1.85-.9 1.8-1.45 4.1-.6 2.55-.55 4.7-.45-2.9.25-6.35.65-3.25 2.35-5.65l-2.25.2h-.7Q4.35 50.3 0 47.9h.1l.25.05q4.05 1.65 10.25 1.2l1.75-.15 2.6-.45q2.2-2.4 5.55-3.85 2.15-.95 5-3.35 5.7-4.8 9.1-11.85-3.5 8.3-7.7 12.45-1.9 1.9-7.3 5.25 7.95-2.9 15.3-10-8.7 10.1-18.75 12.35L14.3 51.5q3-.45 7.05-2.35 8-3.75 13.25-10.6-5.25 8.65-13.75 12.5m-.4-8.55-.8.35q-2.35.9-4.9 1.25Q8.65 44.95 4 43l.25.05q4.3 1.35 10.15.2Q26.25 40.9 34 28.2q-5.3 10.65-13.55 14.3M4.7 77.65q3.55 0 7.45-2.65 3.35-2.25 5.7-6.05l.45 1.95q-3 3.85-6.9 5.65-4 1.85-7.2 1.15h.1zm13.85-9.95q2.85-5.2 4-12.9-3.15 3.9-3.8 10.45z"/><path fill="#995749" fill-opacity=".694" d="m95.65 50.7.65.8 1.05 1.65-1.2-.1-.95-1.35-.35-.5-.75-.85-1.75-.5Q82.4 46.8 75.7 37.2q8 9.3 17.2 11.95-1-.85-2.1-1.4-2.45-1.2-4.45-2.65Q78.2 39.3 76 29.5q3.5 8.3 7.7 12.45 1.9 1.9 7.3 5.25l1.9 1.2 1.55 1.15 2.3.4 2.25.2h.6l1.35.8-1.45.15-2.1-.1zm-4.7-7.85 2.1 1.3q-2.7-.4-6.15-2.6-6.8-4.35-10.3-13.35 5.3 10.65 13.55 14.3zM82.1 50.2l-1.8-2q-6.95-7.8-8.7-14.4 2.65 7.65 9.65 14.6L84 51l1.3 1.15.7.55.1.1 1.8 1.8.15.2q3.15 3.9 3.8 10.45l.2 2.45-.05 2.8-.75-1.1-.05-3.05V66q-.3-5.3-2-8l-.7-.8-2.4-2.55-.75-.85L84 52.3zm8.15 1.1.85 1.2q-2.4-.95-5.3-2.9-6.6-4.4-9.7-10.85 5.2 8.45 13.65 12.3zM76 60.25l1.25 1.35.55.6.5.75.7 1.25.5 1.4.15.5.1.45.8.2.95.15-.1.75-.8-.05-.7-.1.05 2.95-.45 3.15-.4 1.2q.6-2.8.25-6.05l-.15-1.35-.55-.1-1.15-.3-1.3-.4-.75-.3-.25-.1.15-1.15 1.1.5 1.25.45 1.05.3.25.1v-.05l-.2-.6v-.05l-.2-.6-.5-1.15-1-1.65-1.2-1.2zm-1.75 5.55q-3.15-1.45-5.7-3.8-3.75-3.6-6.05-9.25l-.2-3.05v-.5q.75 2.75 1.9 5.1l.1.15q2.75 5.6 7.8 8.9l1.05 1.05zm.85 1.5-.05 1.6.05 2.95-.85-1.2.1-2.25.05-.6.25-1.35zm1.85 2.1q.3 3.45 1.05 6.3l.05.25 1.3 3.75.05 1.6-.7-1.35-.1-.25q-1.55-3.35-1.95-6.35zm.15-13q-3.8-4.2-6-7.6-3.65-5.65-4.15-10.4l2.35 5.65q3.3 6.45 7.65 10.15zM65 69.3l2.4 1.2 2.65.7 1 1.35-1.9-.2-1.9-.55zm-.65-9.05-.65-1.05.7 3.45q.95 3.7 2.2 5.1l-2-2.2q-.65-1.85-1.1-4.45l-.7-4.8q1.05 2.1 2.65 4.4l.15 1q-.55-.3-1.25-1.45m-2.2 8.2q-6.65-6.7-5.45-22.75-.5 14.95 5.4 21.25zM48.4 68.45l.05-1.5q5.9-6.3 5.4-21.25 1.2 16.05-5.45 22.75m-14.8.95.3 3.95q-.4 3-1.95 6.35l-.1.25-.7 1.35.05-1.6 1.3-3.75.05-.25q.75-2.85 1.05-6.3m5.9 3.15 1-1.35 2.65-.7q1.2-.5 2.4-1.2l-2.25 2.5-1.9.55zm-4.05-5.25.45-.85.25 1.35.05.6.1 2.25-.85 1.2.05-2.95zm-.9-7.05.1.85-1.2 1.2-1 1.65-.5 1.15-.2.6v.05l-.2.6v.05l.25-.1 1.05-.3 1.25-.45 1.1-.5.15 1.15-.25.1-.75.3-1.3.4-1.15.3-.55.1-.15 1.35q-.35 3.25.25 6.05l-.4-1.2-.45-3.15.05-2.95-.7.1-.8.05-.1-.75.95-.15.8-.2.1-.45.15-.5.5-1.4.7-1.25.5-.75.55-.6zm11.6 2.4.7-3.45-.65 1.05-1.25 1.45.15-1q1.6-2.3 2.65-4.4l-.7 4.8q-.45 2.6-1.1 4.45l-2 2.2q1.25-1.4 2.2-5.1m.2-8.35q1.15-2.35 1.9-5.1v.5l-.2 3.05Q45.75 58.4 42 62q-2.55 2.35-5.7 3.8l1.1-1.4 1.05-1.05q5.05-3.3 7.8-8.9zm-12.75-.1q4.35-3.7 7.65-10.15l2.35-5.65q-.5 4.75-4.15 10.4-2.2 3.4-6 7.6-.05-1.05.15-2.2m-14-11.35.8-.35q8.25-3.65 13.55-14.3-3.5 9-10.3 13.35-3.45 2.2-6.15 2.6zm-.05 4.35q5.4-3.35 7.3-5.25 4.2-4.15 7.7-12.45-2.2 9.8-10.35 15.6-2 1.45-4.45 2.65-1.1.55-2.1 1.4 9.2-2.65 17.2-11.95-6.7 9.6-16.65 12.65l-1.75.5-.75.85-.35.5-.95 1.35-1.2.1 1.05-1.65.65-.8-1.75.3-2.1.1-1.45-.15 1.35-.8h.6l2.25-.2 2.3-.4q.7-.65 1.55-1.15zm1.25 3.85q8.45-3.85 13.65-12.3-3.1 6.45-9.7 10.85-2.9 1.95-5.3 2.9l.85-1.2zm3.65 1.75.1-.1.7-.55 1.3-1.15 2.75-2.6q7-6.95 9.65-14.6-1.75 6.6-8.7 14.4l-1.8 2-1.9 2.1-1.35 1.5-.75.85-2.4 2.55-.7.8q-1.7 2.7-2 8v.35l-.05 3.05-.75 1.1-.05-2.8.2-2.45q.65-6.55 3.8-10.45l.15-.2z"/><path fill="url(#c)" d="m13.55 30.1 2.65-4.4q-.65 5.9-1.8 9.25L12 37.5l-2.2 1.6 1.65-2.65q1.85-3.1 2.1-6.35" transform="translate(31.6 30.6)"/><path fill="url(#d)" d="m1.05 34.1.25 1.3.75 3.4q-.5 6.05-2.4 10.3-1.6 3.7-4.25 6.1-2.85 2.55-5.5 2.8 2.25-.95 4.4-3.8 4.15-5.6 3.7-14.85.7 2.7 1.9 4.85-.7-1.85-.85-4.35-.15-2.1.2-3.9L-.5 35q.4-1.45 1.2-2.65z" transform="translate(31.6 30.6)"/><path fill="url(#e)" d="M14 38.7q-5.3 5.45-7.6 11.8-1.15 3.25-1.2 5.4-.35-2.3-.05-5.35.6-6.1 3.8-9.95 2.55-.4 5.05-1.9" transform="translate(31.6 30.6)"/><path fill="url(#f)" d="m-20 19.55 4.55-.6q-1.75 1.45-2.9 3.6-.9 1.8-1.45 4.1-.7 3.05-.5 5.55-1.75-2.95-1.45-6.95l.15-1.45q.45-2.25 1.6-4.25" transform="translate(31.6 30.6)"/><path fill="url(#g)" d="M-20 19.55q-1.15 2-1.6 4.25-6.65 5.2-7.7 14-.5 4.45.3 7.8-2.35-3.95-2.4-9.25-.2-10.5 10.8-16.8z" transform="translate(31.6 30.6)"/><path fill="url(#h)" d="m-7.1 22.2.1-.1q2.6-2.1 4.75-4.3-2.6 4.9-1.7 10.15l.15.75q-4.25 9.15-3.15 16.5.55 3.65 1.95 5.5-1.1-.8-2.25-2.35-2.3-3.15-2.75-6.95-.35-3.2 1.45-10.25v-.1l.35-1.25q1.4-5.8 1.1-7.6" transform="translate(31.6 30.6)"/><path fill="url(#i)" d="M-7.1 22.2q.3 1.8-1.1 7.6l-.35 1.25Q-10.4 36.3-13 39.9l.15-5.25q.85-8.4 5.75-12.45" transform="translate(31.6 30.6)"/><path fill="url(#j)" d="M-21.4 44.55q6.05-4.1 6.95-12.3l.15 2.15q.3 3.2 1 5.9-3 3.85-6.9 5.65-4 1.85-7.2 1.15 2.9-.4 6-2.55" transform="translate(31.6 30.6)"/><path fill="url(#k)" d="m69 23.8.15 1.45q.3 4-1.45 6.95.2-2.5-.5-5.55-.55-2.3-1.45-4.1-1.15-2.15-2.9-3.6l4.55.6q1.15 2 1.6 4.25" transform="translate(31.6 30.6)"/><path fill="url(#l)" d="M67.4 19.55h.6q11 6.3 10.8 16.8-.05 5.3-2.4 9.25.8-3.35.3-7.8-1.05-8.8-7.7-14-.45-2.25-1.6-4.25" transform="translate(31.6 30.6)"/><path fill="url(#m)" d="M55.95 31.05v.1q1.8 7.05 1.45 10.25-.45 3.8-2.75 6.95-1.15 1.55-2.25 2.35 1.4-1.85 1.95-5.5 1.1-7.35-3.15-16.5l.15-.75q.9-5.25-1.7-10.15l4.75 4.3.1.1q-.3 1.8 1.1 7.6z" transform="translate(31.6 30.6)"/><path fill="url(#n)" d="M54.5 22.2q4.9 4.05 5.75 12.45l.15 5.25q-2.6-3.6-4.45-8.85l-.35-1.25q-1.4-5.8-1.1-7.6" transform="translate(31.6 30.6)"/><path fill="url(#o)" d="m46.1 35.4.25-1.3.35-1.75q.8 1.2 1.2 2.65l.25.95q.35 1.8.2 3.9-.15 2.5-.85 4.35 1.2-2.15 1.9-4.85-.45 9.25 3.7 14.85 2.15 2.85 4.4 3.8-2.65-.25-5.5-2.8-2.65-2.4-4.25-6.1-1.9-4.25-2.4-10.3z" transform="translate(31.6 30.6)"/><path fill="url(#p)" d="M61.85 32.25q.9 8.2 6.95 12.3 3.1 2.15 6 2.55-3.2.7-7.2-1.15-3.9-1.8-6.9-5.65.7-2.7 1-5.9z" transform="translate(31.6 30.6)"/><path fill="url(#q)" d="m37.6 39.1-2.2-1.6-2.4-2.55q-1.15-3.35-1.8-9.25 1.05 2.1 2.65 4.4.25 3.25 2.1 6.35z" transform="translate(31.6 30.6)"/><path fill="url(#r)" d="M33.4 38.7q2.5 1.5 5.05 1.9 3.2 3.85 3.8 9.95.3 3.05-.05 5.35-.05-2.15-1.2-5.4-2.3-6.35-7.6-11.8" transform="translate(31.6 30.6)"/><path fill="#fff" fill-opacity=".498" d="M90.85 40.95q-6.2-2.9-9.5-7.1 4.4 4.2 10.15 7.1 2.9 1.45 4.9 2.05-2.45-.6-5.55-2.05M77.4 49.6q.8.7 1.3 2.2.55 1.55.85 1.85.75.75 2.3.3.35-1.5-.25-3.7 1.6 4 1.05 7.95-.25 1.9-.8 3.05.85-5.15.15-6.15-1.05.45-2.5-.4-.1 1.45-.85 2.15l.05-2.35q-.2-2.75-1.3-4.9m1.1 10.15-3.05-3.15q-1.85-2.1-2.3-3.85.9 1.55 5 5.4 1.45 1.35 2.45 4.25l.7 2.6q-1.25-3.3-2.8-5.25m-18.3-.5q-.7-1.65-.55-4.45.65 5.2 3.55 9.6 1.45 2.15 2.75 3.35l-3.3-2.85q-3.45-3.8-3.75-8.15l.4 1.1q.45 1.2.9 1.4m1.55 9.45.8 4.7q1.3 5.35 3.5 8.55-1.3-1.6-2.85-4.3-2.9-5.05-4.05-10.15.5 1.7 2.55 4.6-.2-1.4.05-3.4m4.9-14.35q3.75 4.85 7.8 8.6-1.5-.9-3.2-2.4-3.45-3.05-4.6-6.2M92.4 59.7q-.8-4.4-2.25-7 2.2 1.95 2.7 6.6l.05 4.3zm-42-.45q.45-.2.9-1.4l.4-1.1q-.3 4.35-3.75 8.15-1.65 1.85-3.3 2.85l2.75-3.35q2.9-4.4 3.55-9.6.15 2.8-.55 4.45M31.9 51.8q.5-1.5 1.3-2.2-1.1 2.15-1.3 4.9-.1 1.4.05 2.35-.75-.7-.85-2.15-1.45.85-2.5.4-.7 1 .15 6.15-.55-1.15-.8-3.05-.55-3.95 1.05-7.95-.6 2.2-.25 3.7 1.55.45 2.3-.3.3-.3.85-1.85m.2 7.95Q30.55 61.7 29.3 65l.7-2.6q1-2.9 2.45-4.25 4.1-3.85 5-5.4-.45 1.75-2.3 3.85zM48.05 73.4l.8-4.7.05 3.4q2.05-2.9 2.55-4.6-1.15 5.1-4.05 10.15l-2.85 4.3q2.2-3.2 3.5-8.55m-8.7-12.85q-1.7 1.5-3.2 2.4 4.05-3.75 7.8-8.6-1.15 3.15-4.6 6.2M14.2 43q2-.6 4.9-2.05 5.75-2.9 10.15-7.1-3.3 4.2-9.5 7.1-3.1 1.45-5.55 2.05m3.45 20.6.05-4.3q.5-4.65 2.7-6.6-1.45 2.6-2.25 7z"/></g></defs></svg>