<svg xmlns="http://www.w3.org/2000/svg" xmlns:ffdec="https://www.free-decompiler.com/flash" xmlns:xlink="http://www.w3.org/1999/xlink" ffdec:objectType="frame" width="56.45" height="52.1"><use ffdec:characterId="1" xlink:href="#a" width="56.45" height="52.1"/><defs><path id="a" fill="#543172" fill-rule="evenodd" d="M21.75-26.35H23q16.8.5 23.6 13.55l1 2.05q3.1 7.05 3 16.3-.05 4.05-1.1 8.75l-1.05 3.95-.6.65-2.25 1.7q1.3-4.3 1.2-6.7l-1 3.15q-1.3 3.6-2.95 5.7l-.65.35-2.55.9q1.45-3.85 1.4-8l-.8 2.85q-1.1 3.3-2.75 5.4l-1 .6-3.15.9 1.3-2.55q1.25-2.9 1.3-4.7l-.9 2.4q-1.1 2.65-2.2 4l-.6.2-2.85.4q2.15-3.75 2.2-5.7l-.85 2q-1.05 2.2-2 3l-6.5.45L16 24.8q-.95-.8-2-3l-.85-2q.05 1.95 2.2 5.7l-2.85-.4-.6-.2q-1.1-1.35-2.2-4l-.9-2.4q.05 1.8 1.3 4.7l1.3 2.55-3.15-.9-1-.6q-1.65-2.1-2.75-5.4L3.7 16q-.05 4.15 1.4 8l-2.55-.9-.65-.35q-1.65-2.1-2.95-5.7l-1-3.15q-.1 2.4 1.2 6.7l-2.25-1.7-.6-.65-1.05-3.95q-1.05-4.7-1.1-8.75-.1-8.75 2.7-15.55l1.3-2.8q6.8-13.05 23.6-13.55" transform="translate(5.85 26.35)"/></defs></svg>