<?xml version="1.0" encoding="UTF-8" standalone="no"?>
<svg xmlns:ffdec="https://www.free-decompiler.com/flash" xmlns:xlink="http://www.w3.org/1999/xlink" ffdec:objectType="frame" height="58.35px" width="58.25px" xmlns="http://www.w3.org/2000/svg">
  <g transform="matrix(1.0, 0.0, 0.0, 1.0, 5.6, 33.0)">
    <use ffdec:characterId="1" height="58.35" transform="matrix(1.0, 0.0, 0.0, 1.0, -5.6, -33.0)" width="58.25" xlink:href="#shape0"/>
  </g>
  <defs>
    <g id="shape0" transform="matrix(1.0, 0.0, 0.0, 1.0, 5.6, 33.0)">
      <path d="M36.25 18.85 L35.3 19.25 34.1 18.7 36.25 18.85 M33.25 20.0 L31.95 20.4 31.15 19.9 33.25 20.0 M17.7 20.95 L17.55 20.95 18.25 20.4 18.15 20.5 17.7 20.95 M16.1 20.55 L14.85 20.2 Q13.85 19.8 15.3 19.9 L17.15 19.85 Q16.65 20.1 16.1 20.55" fill="url(#gradient0)" fill-rule="evenodd" stroke="none"/>
      <path d="M9.45 18.2 Q5.9 16.35 2.85 13.5 -3.9 7.15 -5.25 -1.35 L-5.6 -5.4 -5.6 -5.55 -5.6 -5.75 -5.6 -5.9 -5.6 -6.1 -5.25 -10.1 Q-3.9 -18.65 2.85 -25.05 11.4 -33.0 23.5 -33.0 L25.75 -32.9 Q36.35 -32.25 44.0 -25.05 52.65 -17.05 52.65 -5.75 52.65 5.55 44.0 13.5 40.85 16.45 37.25 18.35 L36.55 18.05 34.7 17.9 32.25 18.2 Q31.4 18.55 30.9 19.5 L30.75 19.7 30.75 19.75 30.7 19.8 29.45 19.65 28.0 19.9 28.5 19.9 Q29.6 20.0 30.75 20.75 L25.75 21.45 21.9 21.45 19.1 21.2 18.95 21.2 19.7 20.95 20.0 20.8 20.3 20.7 19.5 20.2 18.7 19.85 19.55 19.8 Q13.45 19.0 13.25 18.65 12.5 18.9 11.9 19.35 L10.6 18.8 11.0 18.75 10.0 18.5 9.45 18.2" fill="url(#gradient1)" fill-rule="evenodd" stroke="none"/>
      <path d="M37.25 18.35 L38.0 18.7 Q39.15 19.25 39.55 19.75 L39.75 19.95 40.2 20.75 Q39.7 20.0 37.6 19.25 L36.25 18.85 34.1 18.7 35.3 19.25 36.35 20.05 Q38.1 21.65 37.85 23.85 37.3 22.85 36.2 21.8 34.8 20.4 33.25 20.0 L31.15 19.9 31.95 20.4 32.4 21.35 33.0 22.9 31.9 21.65 30.75 20.75 Q29.6 20.0 28.5 19.9 L28.0 19.9 29.45 19.65 30.7 19.8 30.75 19.75 30.75 19.7 30.9 19.5 Q31.4 18.55 32.25 18.2 L34.7 17.9 36.55 18.05 37.25 18.35 M18.95 21.2 L18.65 21.35 17.7 22.15 Q16.6 23.3 16.5 24.5 16.4 23.75 16.95 22.35 L17.7 20.95 18.15 20.5 18.25 20.4 17.55 20.95 14.0 23.75 Q14.6 21.95 15.85 20.75 L16.1 20.55 Q16.65 20.1 17.15 19.85 L15.3 19.9 Q13.85 19.8 14.85 20.2 11.9 21.7 11.0 22.85 10.1 24.0 10.2 25.35 L10.0 24.9 9.75 23.95 Q9.75 21.75 10.9 20.3 L11.9 19.35 Q12.5 18.9 13.25 18.65 13.45 19.0 19.55 19.8 L18.7 19.85 19.5 20.2 20.3 20.7 20.0 20.8 19.7 20.95 18.95 21.2 M10.6 18.8 Q8.45 18.9 7.8 19.65 L7.5 20.1 Q8.1 18.7 9.45 18.2 L10.0 18.5 11.0 18.75 10.6 18.8" fill="url(#gradient2)" fill-rule="evenodd" stroke="none"/>
    </g>
    <radialGradient cx="0" cy="0" gradientTransform="matrix(0.0366, 0.0, 0.0, 0.0366, 23.55, -5.75)" gradientUnits="userSpaceOnUse" id="gradient0" r="819.2" spreadMethod="reflect">
      <stop offset="0.0" stop-color="#562f09"/>
      <stop offset="1.0" stop-color="#1c0d00"/>
    </radialGradient>
    <radialGradient cx="0" cy="0" gradientTransform="matrix(0.0366, 0.0, 0.0, 0.0366, 23.55, -5.75)" gradientUnits="userSpaceOnUse" id="gradient1" r="819.2" spreadMethod="reflect">
      <stop offset="0.0" stop-color="#4f0a0a"/>
      <stop offset="1.0" stop-color="#510703"/>
    </radialGradient>
    <radialGradient cx="0" cy="0" gradientTransform="matrix(0.0, 0.0, 0.0, 0.0, 0.0, 0.0)" gradientUnits="userSpaceOnUse" id="gradient2" r="819.2" spreadMethod="reflect">
      <stop offset="0.0" stop-color="#931111"/>
      <stop offset="1.0" stop-color="#510703"/>
    </radialGradient>
  </defs>
</svg>
