<?xml version="1.0" encoding="UTF-8" standalone="no"?>
<svg xmlns:ffdec="https://www.free-decompiler.com/flash" xmlns:xlink="http://www.w3.org/1999/xlink" ffdec:objectType="frame" height="60.55px" width="65.7px" xmlns="http://www.w3.org/2000/svg">
  <g transform="matrix(1.0, 0.0, 0.0, 1.0, 7.75, 5.85)">
    <use ffdec:characterId="1" height="60.55" transform="matrix(1.0, 0.0, 0.0, 1.0, -7.75, -5.85)" width="65.7" xlink:href="#shape0"/>
  </g>
  <defs>
    <g id="shape0" transform="matrix(1.0, 0.0, 0.0, 1.0, 7.75, 5.85)">
      <path d="M27.3 -1.85 L27.9 -1.95 31.7 -2.0 32.1 -1.95 32.25 -1.9 32.4 -1.9 Q34.3 -1.45 36.45 -0.05 35.8 -1.2 29.8 -3.3 33.55 -3.35 36.7 -1.2 39.05 0.4 40.75 3.05 L41.3 4.0 Q39.9 2.1 35.05 -0.1 L32.75 -1.0 32.0 -1.15 31.05 -1.4 27.35 -1.85 27.3 -1.85 M42.95 22.4 L42.8 21.1 42.05 16.2 Q41.95 16.95 41.7 15.4 L40.95 12.65 40.75 12.2 40.35 11.3 40.65 12.05 39.45 9.6 39.5 9.65 39.9 10.0 40.4 10.65 40.4 10.7 Q41.45 12.25 42.8 15.7 45.45 22.5 46.05 30.45 46.3 32.5 46.05 35.95 45.2 46.85 40.1 53.4 L39.5 54.2 Q41.05 51.85 42.35 47.0 L43.4 41.8 43.55 39.8 43.55 38.9 Q43.35 33.1 42.1 29.35 43.3 27.0 42.95 22.55 L42.95 22.4 M56.55 24.4 Q56.8 26.95 56.15 28.8 56.15 24.2 53.1 17.85 50.1 11.75 47.45 10.1 49.1 11.05 50.6 12.5 52.2 13.95 53.0 15.35 52.7 12.3 51.15 11.1 53.5 12.75 55.4 16.6 57.8 21.55 56.95 26.35 56.85 22.4 55.75 20.85 56.35 22.35 56.55 24.4 M52.55 26.95 Q53.45 27.65 54.2 28.95 54.35 32.05 54.75 33.45 55.35 35.85 57.2 37.6 L56.05 37.6 Q55.35 37.45 54.6 36.6 L54.35 36.2 54.35 36.25 54.2 36.05 Q54.3 37.8 56.25 39.3 L54.2 39.45 53.05 39.1 52.95 39.1 52.8 39.0 51.7 38.15 Q51.9 39.5 52.35 40.05 L53.0 40.8 52.05 40.6 Q49.85 39.95 48.35 38.25 L48.35 38.2 48.3 38.2 48.35 37.4 48.4 34.25 47.85 30.65 Q48.35 31.35 48.65 32.4 49.35 34.7 49.05 37.15 51.35 33.7 50.95 30.9 L50.45 28.95 51.05 29.9 Q51.85 31.65 51.65 34.05 52.7 31.95 52.95 30.05 53.2 28.1 52.55 26.95 M39.45 9.55 L39.45 9.6 39.45 9.55 M23.25 10.6 L23.15 12.25 Q22.95 16.8 23.45 21.65 L23.45 22.15 Q23.6 24.55 25.3 32.25 27.0 39.6 27.6 40.7 23.15 34.3 21.85 26.0 20.55 18.1 22.65 12.05 L23.25 10.6 M28.45 23.0 L28.45 23.6 Q28.4 25.5 29.6 28.55 30.75 31.55 32.05 33.05 28.25 30.2 27.7 24.95 27.3 21.2 28.3 18.95 28.1 21.15 28.5 23.1 L28.45 23.0 M33.0 17.75 L32.8 19.0 Q32.35 22.4 33.0 24.9 L33.05 27.5 Q33.15 30.0 34.2 32.35 32.9 30.8 32.0 26.9 30.85 21.9 32.4 18.7 L33.0 17.75 M12.75 12.35 L12.75 12.45 12.5 14.1 12.25 16.0 11.9 22.1 11.9 22.2 11.9 22.55 Q10.6 28.05 10.5 31.1 10.45 33.05 11.0 35.2 11.45 37.3 12.25 38.8 9.15 36.3 8.4 31.05 9.1 37.05 10.4 42.5 11.1 45.5 11.8 46.85 11.05 46.65 10.1 45.05 L8.85 43.0 7.6 40.2 6.75 37.1 Q5.6 31.9 5.85 25.7 6.1 20.35 7.1 17.7 6.95 18.25 7.05 19.1 L7.5 21.85 Q7.5 19.25 10.15 14.75 L13.7 9.55 Q13.15 10.6 12.75 12.35 M15.45 13.65 L16.0 12.75 15.45 13.75 15.5 16.5 15.7 19.9 15.75 21.0 Q16.1 28.95 17.5 33.9 18.3 37.0 19.25 38.45 L18.95 38.05 18.1 36.65 Q15.15 31.9 14.05 26.8 12.8 20.7 15.45 12.75 L15.45 13.65 M6.7 45.5 L6.9 46.0 6.2 48.55 6.1 48.9 6.05 49.0 6.3 48.0 6.4 47.4 6.45 46.45 6.65 45.3 6.7 45.5" fill="#27adb4" fill-rule="evenodd" stroke="none"/>
      <path d="M40.8 26.15 Q40.9 31.2 39.0 34.55 40.5 31.55 39.95 26.25 38.3 26.35 39.7 24.6 39.05 20.55 37.55 16.6 36.1 12.9 34.75 11.4 37.9 13.7 39.55 18.75 40.5 21.5 40.75 24.6 L40.8 26.1 40.8 26.15 M2.35 21.05 L2.25 22.3 Q2.0 24.5 2.0 26.8 L2.15 24.65 2.25 24.1 Q2.45 30.75 4.3 37.95 L6.2 42.4 Q6.6 43.75 6.6 45.2 L6.45 46.35 5.95 43.65 5.95 43.55 5.9 43.35 5.6 42.4 5.45 42.15 4.05 39.9 Q3.1 38.2 2.6 36.05 0.9 32.75 1.25 26.6 1.55 21.2 2.85 18.25 L2.35 21.05" fill="#baf7fa" fill-rule="evenodd" stroke="none"/>
      <path d="M27.3 -1.85 L27.35 -1.85 31.05 -1.4 32.0 -1.15 32.75 -1.0 35.05 -0.1 Q39.9 2.1 41.3 4.0 L40.75 3.05 Q42.9 4.85 44.6 7.3 L45.85 9.15 50.4 19.75 50.45 20.1 Q51.45 24.95 51.05 29.9 L50.45 28.95 50.95 30.9 Q50.5 34.35 49.7 35.4 50.2 34.45 50.2 31.8 50.25 29.65 49.95 27.55 L49.3 29.55 48.65 32.4 Q48.35 31.35 47.85 30.65 L48.4 34.25 48.35 37.4 48.3 38.2 Q48.15 47.45 40.0 53.55 L40.1 53.4 Q45.2 46.85 46.05 35.95 46.3 32.5 46.05 30.45 45.45 22.5 42.8 15.7 41.45 12.25 40.4 10.7 L40.4 10.65 39.9 10.0 39.45 9.6 39.45 9.55 39.4 9.55 39.4 9.5 Q36.8 5.45 31.05 2.65 25.15 -0.15 19.0 -0.15 22.4 -2.15 27.3 -1.85" fill="url(#gradient0)" fill-rule="evenodd" stroke="none"/>
      <path d="M27.3 -1.85 Q22.4 -2.15 19.0 -0.15 L15.85 0.05 Q11.65 1.1 7.7 7.2 4.35 12.45 2.85 18.25 1.55 21.2 1.25 26.6 0.9 32.75 2.6 36.05 3.1 38.2 4.05 39.9 L5.45 42.15 Q6.05 43.25 6.3 44.75 L6.45 46.1 6.1 47.6 6.45 46.45 6.4 47.4 6.3 48.0 6.05 49.0 5.55 49.95 Q6.7 46.45 2.65 39.55 -2.15 31.3 -0.5 23.5 -1.0 24.8 -2.85 25.4 -5.2 26.15 -7.75 24.55 -4.0 24.25 -1.45 19.0 1.5 11.55 3.75 7.05 7.1 0.35 15.8 -2.25 18.9 -3.2 21.85 -3.3 24.45 -3.4 25.1 -2.85 24.9 -4.15 20.75 -4.6 16.35 -5.1 15.85 -5.85 16.4 -5.15 22.3 -5.15 L32.6 -5.25 Q36.65 -5.2 38.9 -3.0 40.35 -1.55 41.85 2.05 42.1 1.0 41.6 -0.5 L40.55 -3.4 Q43.0 -2.15 43.85 0.7 44.55 3.05 43.95 5.3 45.75 3.05 48.4 3.75 50.0 4.2 52.35 6.0 L50.25 5.9 47.55 6.45 Q51.75 6.3 54.1 8.6 55.8 10.3 56.15 12.65 55.55 11.6 53.45 10.6 51.65 9.8 51.1 9.85 57.3 12.85 57.9 21.8 58.35 28.9 55.9 34.05 55.55 30.8 54.2 28.95 53.45 27.65 52.55 26.95 53.2 28.1 52.95 30.05 52.7 31.95 51.65 34.05 51.85 31.65 51.05 29.9 51.45 24.95 50.45 20.1 L50.4 19.75 45.85 9.15 44.6 7.3 Q42.9 4.85 40.75 3.05 39.05 0.4 36.7 -1.2 33.55 -3.35 29.8 -3.3 35.8 -1.2 36.45 -0.05 34.3 -1.45 32.4 -1.9 L32.25 -1.9 32.1 -1.95 31.7 -2.0 27.9 -1.95 27.3 -1.85 M48.65 32.4 L49.3 29.55 49.95 27.55 Q50.25 29.65 50.2 31.8 50.2 34.45 49.7 35.4 50.5 34.35 50.95 30.9 51.35 33.7 49.05 37.15 49.35 34.7 48.65 32.4 M56.55 24.4 Q56.35 22.35 55.75 20.85 56.85 22.4 56.95 26.35 57.8 21.55 55.4 16.6 53.5 12.75 51.15 11.1 52.7 12.3 53.0 15.35 52.2 13.95 50.6 12.5 49.1 11.05 47.45 10.1 50.1 11.75 53.1 17.85 56.15 24.2 56.15 28.8 56.8 26.95 56.55 24.4" fill="url(#gradient1)" fill-rule="evenodd" stroke="none"/>
      <path d="M19.0 -0.15 Q25.15 -0.15 31.05 2.65 36.8 5.45 39.4 9.5 L39.4 9.55 39.45 9.55 39.45 9.6 39.5 9.65 39.45 9.6 40.8 12.05 Q41.5 13.6 41.1 13.0 L42.15 16.4 42.5 18.2 42.8 20.3 42.9 21.95 43.15 24.7 Q43.3 27.0 42.1 29.35 L42.0 29.5 Q41.05 32.5 39.0 34.55 40.9 31.2 40.8 26.2 L40.75 24.6 Q40.5 21.5 39.55 18.75 37.9 13.7 34.75 11.4 36.1 12.9 37.55 16.6 39.05 20.55 39.7 24.6 L39.75 24.9 Q40.7 31.2 39.0 34.55 39.05 33.2 36.95 31.05 34.3 28.35 33.0 24.9 32.35 22.4 32.8 19.0 L33.0 17.75 32.4 18.7 Q30.85 21.9 32.0 26.9 32.9 30.8 34.2 32.35 L31.6 30.05 Q29.7 27.65 28.5 23.1 28.1 21.15 28.3 18.95 27.3 21.2 27.7 24.95 28.25 30.2 32.05 33.05 28.95 32.35 26.5 29.1 24.0 25.85 23.45 21.65 22.95 16.8 23.15 12.25 L23.25 10.6 22.65 12.05 Q20.55 18.1 21.85 26.0 23.15 34.3 27.6 40.7 24.55 39.65 20.6 32.95 16.6 26.1 15.7 19.9 L15.5 16.5 15.45 13.75 16.0 12.75 15.45 13.65 15.45 12.75 Q12.8 20.7 14.05 26.8 15.15 31.9 18.1 36.65 L18.95 38.05 19.25 38.45 19.35 38.6 Q12.45 35.1 11.9 22.35 L11.9 22.2 11.9 22.1 12.25 16.0 12.5 14.1 12.75 12.45 12.75 12.35 Q13.15 10.6 13.7 9.55 L10.15 14.75 Q7.5 19.25 7.5 21.85 L7.05 19.1 Q6.95 18.25 7.1 17.7 6.1 20.35 5.85 25.7 5.6 31.9 6.75 37.1 L7.6 40.2 8.85 43.0 Q11.45 53.75 14.35 54.7 10.3 53.75 7.0 46.25 L6.7 45.5 6.45 46.45 6.1 47.6 6.45 46.1 6.6 45.2 Q6.6 43.75 6.2 42.4 L4.3 37.95 Q1.9 33.0 1.85 29.1 L1.95 23.25 Q2.05 21.35 2.85 18.25 4.35 12.45 7.7 7.2 11.65 1.1 15.85 0.05 L19.0 -0.15" fill="url(#gradient2)" fill-rule="evenodd" stroke="none"/>
    </g>
    <radialGradient cx="0" cy="0" gradientTransform="matrix(-0.012, -0.0376, -0.0376, 0.012, 26.7, 23.65)" gradientUnits="userSpaceOnUse" id="gradient0" r="819.2" spreadMethod="pad">
      <stop offset="0.21176470588235294" stop-color="#75dbb1"/>
      <stop offset="1.0" stop-color="#26b9bf"/>
      <stop offset="1.0" stop-color="#412c6b"/>
    </radialGradient>
    <radialGradient cx="0" cy="0" gradientTransform="matrix(-0.012, -0.0376, -0.0376, 0.012, 26.2, 23.3)" gradientUnits="userSpaceOnUse" id="gradient1" r="819.2" spreadMethod="pad">
      <stop offset="0.21176470588235294" stop-color="#75dbb1"/>
      <stop offset="1.0" stop-color="#26b9bf"/>
      <stop offset="1.0" stop-color="#412c6b"/>
    </radialGradient>
    <radialGradient cx="0" cy="0" gradientTransform="matrix(-0.012, -0.0376, -0.0376, 0.012, 27.7, 23.2)" gradientUnits="userSpaceOnUse" id="gradient2" r="819.2" spreadMethod="pad">
      <stop offset="0.21176470588235294" stop-color="#75dbb1"/>
      <stop offset="1.0" stop-color="#26b9bf"/>
      <stop offset="1.0" stop-color="#412c6b"/>
    </radialGradient>
  </defs>
</svg>
