<?xml version="1.0" encoding="UTF-8" standalone="no"?>
<svg xmlns:ffdec="https://www.free-decompiler.com/flash" xmlns:xlink="http://www.w3.org/1999/xlink" ffdec:objectType="frame" height="25.8px" width="41.75px" xmlns="http://www.w3.org/2000/svg">
  <g transform="matrix(1.0, 0.0, 0.0, 1.0, -1.55, 1.5)">
    <use ffdec:characterId="1" height="25.8" transform="matrix(1.0, 0.0, 0.0, 1.0, 1.55, -1.5)" width="41.75" xlink:href="#shape0"/>
  </g>
  <defs>
    <g id="shape0" transform="matrix(1.0, 0.0, 0.0, 1.0, -1.55, 1.5)">
      <path d="M22.45 24.3 Q19.85 23.0 18.2 20.95 L16.95 23.0 Q13.75 21.5 11.75 18.95 L11.35 21.85 Q7.5 20.05 5.9 16.45 L5.2 18.0 Q0.45 12.2 1.9 3.15 L1.95 2.7 Q11.3 -1.8 23.1 -1.45 32.75 -1.15 42.95 3.25 44.4 12.2 39.65 18.0 L38.95 16.45 Q37.35 20.05 33.5 21.85 L33.15 18.95 Q31.1 21.5 27.95 23.0 L26.65 20.95 Q25.05 23.0 22.45 24.3" fill="#baab81" fill-rule="evenodd" stroke="none"/>
    </g>
  </defs>
</svg>
