<?xml version="1.0" encoding="UTF-8" standalone="no"?>
<svg xmlns:ffdec="https://www.free-decompiler.com/flash" xmlns:xlink="http://www.w3.org/1999/xlink" ffdec:objectType="frame" height="64.6px" width="59.45px" xmlns="http://www.w3.org/2000/svg">
  <g transform="matrix(1.0, 0.0, 0.0, 1.0, 1.35, 6.2)">
    <use ffdec:characterId="7" height="59.6" id="Color" transform="matrix(1.0208, 0.0, 0.0, 1.0797, -1.3281, -5.9442)" width="58.2" xlink:href="#sprite0"/>
    <use ffdec:characterId="8" height="62.8" transform="matrix(1.0, 0.0, 0.0, 1.0, -0.95, -6.2)" width="58.75" xlink:href="#shape1"/>
  </g>
  <defs>
    <g id="sprite0" transform="matrix(1.0, 0.0, 0.0, 1.0, 1.35, 6.2)">
      <use ffdec:characterId="6" height="59.6" transform="matrix(1.0, 0.0, 0.0, 1.0, -1.35, -6.2)" width="58.2" xlink:href="#shape0"/>
    </g>
    <g id="shape0" transform="matrix(1.0, 0.0, 0.0, 1.0, 1.35, 6.2)">
      <path d="M7.6 -5.3 L23.35 -6.15 Q35.85 -5.95 39.05 -4.75 45.8 -2.15 46.35 1.3 L41.4 8.3 Q41.35 9.55 41.7 11.05 L42.65 14.7 Q40.2 13.55 39.9 11.7 L40.15 10.1 39.75 10.65 39.6 10.85 Q37.95 14.75 38.7 17.7 39.15 19.3 40.0 20.0 36.85 18.85 35.8 16.8 33.55 20.6 34.0 21.25 33.25 20.4 32.8 17.2 L32.0 18.5 31.0 20.1 Q33.05 25.9 35.95 28.5 40.0 32.25 46.0 30.0 45.15 31.1 43.5 31.8 40.2 33.15 36.25 30.95 37.65 32.1 39.95 33.0 L45.0 34.7 Q54.35 37.65 56.35 46.15 57.35 50.4 56.4 53.4 55.7 47.85 50.65 44.4 L45.8 42.1 Q34.35 38.75 30.2 29.5 28.95 26.6 28.55 23.5 L28.4 20.95 26.3 20.65 Q24.1 20.1 23.45 18.8 L22.95 20.55 Q22.6 21.75 21.9 22.35 L20.5 20.5 Q19.55 19.25 19.35 18.35 19.1 19.3 18.5 19.95 L16.95 21.2 16.35 19.3 Q15.95 18.25 15.0 17.1 15.35 18.6 14.2 20.2 14.05 19.05 9.8 14.7 9.35 16.8 8.1 18.35 L6.2 20.0 Q7.9 17.3 7.1 13.4 L6.4 11.35 6.0 10.95 Q-1.75 3.55 -1.35 1.25 -0.7 -1.15 1.55 -2.7 3.5 -4.05 7.6 -5.3" fill="#71548a" fill-rule="evenodd" stroke="none"/>
    </g>
    <g id="shape1" transform="matrix(1.0, 0.0, 0.0, 1.0, 0.95, 6.2)">
      <path d="M8.05 -5.3 L23.8 -6.15 Q36.3 -5.95 39.5 -4.75 46.3 -2.1 46.8 1.3 L39.0 12.45 38.7 13.0 Q37.8 14.85 38.15 17.7 38.35 19.4 38.8 20.7 L36.35 17.2 34.45 20.3 Q34.15 20.85 34.45 21.25 33.7 20.4 33.25 17.2 L31.9 19.4 30.55 21.95 31.0 25.3 Q31.35 29.0 31.85 30.6 33.8 36.65 43.6 40.0 53.55 43.4 56.7 50.25 57.7 52.45 57.8 54.7 57.9 56.45 57.6 56.6 57.35 50.85 51.25 47.05 L45.2 44.4 Q34.1 42.3 30.95 30.95 29.95 27.4 29.85 23.35 L29.9 22.45 Q27.0 22.7 25.45 21.1 L24.45 19.35 22.15 22.45 19.9 18.4 19.1 20.35 Q18.5 21.75 17.75 22.35 L16.15 19.9 Q15.0 18.05 14.8 17.15 14.65 17.65 15.15 19.35 15.55 20.65 14.8 21.2 14.5 20.35 12.4 17.8 L9.25 14.1 Q8.4 19.0 7.25 20.6 10.0 15.6 4.7 9.3 L0.75 4.85 Q-1.15 2.6 -0.9 1.25 -0.25 -1.15 2.0 -2.7 3.95 -4.05 8.05 -5.3" fill="#593975" fill-rule="evenodd" stroke="none"/>
    </g>
  </defs>
</svg>
