<?xml version="1.0" encoding="UTF-8" standalone="no"?>
<svg xmlns:ffdec="https://www.free-decompiler.com/flash" xmlns:xlink="http://www.w3.org/1999/xlink" ffdec:objectType="frame" height="41.9px" width="49.1px" xmlns="http://www.w3.org/2000/svg">
  <g transform="matrix(1.0, 0.0, 0.0, 1.0, -1.7, -4.45)">
    <use ffdec:characterId="3" height="41.9" transform="matrix(1.0, 0.0, 0.0, 1.0, 1.7, 4.45)" width="49.1" xlink:href="#shape0"/>
  </g>
  <defs>
    <g id="shape0" transform="matrix(1.0, 0.0, 0.0, 1.0, -1.7, -4.45)">
      <path d="M43.7 10.1 L43.65 10.1 Q46.05 11.6 47.65 14.15 L48.45 15.7 49.75 19.05 50.4 22.65 Q50.55 25.8 49.25 29.1 48.45 31.2 47.45 32.9 L47.15 33.4 47.5 34.05 48.85 35.65 Q49.8 36.8 50.0 37.55 L50.6 39.25 Q51.0 40.25 50.55 41.65 50.15 42.85 49.05 44.05 L48.8 44.3 Q47.45 45.6 46.7 45.65 L48.45 44.05 48.8 43.75 Q49.9 42.75 50.05 40.95 50.15 39.15 49.35 37.5 L48.25 35.55 48.9 37.85 Q49.3 39.95 48.05 42.1 47.15 43.65 45.55 44.05 L44.1 44.2 43.05 44.15 40.8 44.05 40.8 44.0 41.4 44.0 Q44.65 44.0 46.55 41.6 47.85 39.9 47.85 38.55 L47.7 37.3 47.65 37.05 47.25 38.35 Q46.7 39.5 45.1 40.3 L43.35 40.4 43.3 40.4 41.85 40.5 44.35 39.35 45.45 38.35 45.75 37.9 Q46.55 36.7 46.55 35.45 L46.3 34.6 45.9 33.2 45.8 32.8 45.75 32.65 45.8 32.5 45.8 32.4 45.7 32.25 45.85 32.3 45.95 32.25 46.0 32.3 46.2 32.3 46.05 32.2 45.35 31.55 44.4 30.35 44.25 29.95 44.3 29.95 43.95 29.4 44.1 29.4 44.75 29.4 43.8 28.65 43.3 28.15 42.4 27.05 42.3 27.0 41.6 25.8 41.8 25.75 42.0 25.75 40.75 24.15 40.2 23.25 40.05 23.1 39.9 22.8 39.85 22.65 39.6 22.15 40.05 22.15 40.1 22.1 39.2 20.95 39.05 20.7 Q37.25 18.25 37.25 17.85 L37.25 17.75 37.2 17.6 37.15 17.55 Q37.1 18.8 36.4 20.6 L35.1 23.1 34.8 23.6 Q33.7 25.15 31.95 26.55 L27.6 29.2 26.8 29.55 23.65 30.85 26.4 29.3 28.65 27.65 30.9 25.75 33.3 23.3 Q34.3 21.95 34.9 20.6 L35.4 18.7 35.4 18.45 33.9 20.5 33.5 20.9 33.2 21.2 32.6 21.8 31.45 22.85 Q27.05 26.5 18.4 31.0 L17.85 31.35 17.65 31.45 18.6 30.4 19.2 29.8 22.5 26.45 24.05 25.0 25.25 23.9 18.5 29.3 17.15 30.35 Q13.65 33.05 11.8 33.6 L11.4 33.7 14.2 29.9 17.6 24.85 17.95 24.3 18.0 24.2 16.4 25.45 12.7 28.9 11.8 29.8 11.45 30.2 11.15 30.5 10.85 31.25 Q9.7 33.9 9.55 36.25 L9.55 38.25 9.4 38.0 8.5 36.6 7.65 35.25 7.2 34.4 7.0 34.3 6.95 34.7 7.3 36.35 Q7.65 37.7 8.35 38.75 9.25 40.15 11.45 41.75 12.3 42.35 13.0 42.6 10.75 42.25 9.6 41.15 8.5 40.05 8.15 39.15 L7.2 36.7 6.9 35.8 Q6.85 36.95 7.4 39.85 7.75 41.9 10.15 44.0 L9.55 43.9 Q8.05 43.2 7.15 41.8 6.35 40.75 5.9 39.55 5.4 38.05 5.3 36.8 3.95 40.15 4.65 42.4 4.95 43.35 5.5 44.05 6.2 44.95 7.3 45.45 L10.05 46.35 9.2 46.35 8.8 46.25 Q4.45 45.9 3.9 44.65 L3.7 44.05 Q3.3 42.95 3.3 41.8 3.3 40.1 4.4 37.05 L5.3 35.0 5.35 33.65 5.4 33.25 5.25 33.1 Q4.4 32.2 3.85 31.1 2.65 29.45 2.95 27.25 L2.95 27.15 Q2.7 27.2 2.35 26.4 L2.05 25.7 Q1.5 24.15 1.8 21.2 2.1 18.45 7.15 13.1 L7.6 12.6 Q11.75 8.35 16.3 6.55 18.25 5.75 20.25 5.45 L22.45 5.35 22.6 5.4 26.0 4.7 29.15 4.45 30.55 4.45 31.15 4.5 Q34.1 4.55 36.05 6.35 L37.3 7.85 38.55 7.75 Q40.9 7.75 43.7 10.1 M8.05 24.25 L7.05 26.1 Q6.15 28.1 6.15 29.75 6.15 30.15 6.7 31.45 L6.85 31.8 6.95 31.75 6.9 31.45 Q6.9 25.85 9.25 22.65 L8.9 23.1 8.35 23.8 8.05 24.25 M16.6 23.15 L19.9 20.45 17.4 22.2 14.65 24.75 16.6 23.15" fill="url(#gradient0)" fill-rule="evenodd" stroke="none"/>
      <path d="M11.35 45.6 L11.4 45.7 11.3 45.65 11.35 45.6" fill="url(#gradient1)" fill-rule="evenodd" stroke="none"/>
      <path d="M19.9 17.0 L19.35 17.35 18.1 18.15 16.25 17.15 19.5 15.05 21.2 16.25 19.9 17.0 M16.3 6.55 Q16.05 8.75 16.8 10.85 16.55 10.95 16.35 11.1 L11.6 14.25 Q9.95 13.4 8.1 13.2 L7.15 13.1 7.6 12.6 Q11.75 8.35 16.3 6.55 M16.5 12.2 L17.2 11.85 17.7 12.85 18.7 14.3 18.1 14.6 15.15 16.5 12.8 14.95 12.55 14.8 16.5 12.2 M35.1 23.1 L34.8 23.6 33.3 23.3 Q34.3 21.95 34.9 20.6 L36.4 20.6 35.1 23.1 M28.95 22.2 L29.5 21.7 31.75 20.1 33.9 20.5 33.5 20.9 33.2 21.2 32.6 21.8 31.45 22.85 28.95 22.2 M22.95 20.4 L24.55 19.1 26.15 18.25 29.95 19.55 29.5 19.9 28.45 21.1 27.6 21.8 26.4 21.45 22.95 20.4 M22.85 17.05 L22.35 17.4 20.05 18.65 Q19.9 18.7 19.65 18.9 L19.35 18.8 19.25 18.75 19.35 18.65 19.65 18.4 22.45 16.85 22.85 17.05 M24.9 17.8 L24.85 17.85 24.9 17.8 M23.8 17.4 L23.95 17.45 23.4 17.85 Q21.4 18.85 20.85 19.5 L20.45 19.3 23.8 17.4 M40.7 18.9 L42.75 19.0 44.6 21.25 45.0 21.95 43.8 22.1 43.55 21.75 Q41.7 20.35 40.7 18.9 M46.15 17.15 L46.45 16.8 47.45 18.75 47.85 20.75 46.15 21.65 44.25 19.0 44.0 18.7 Q45.2 18.25 46.15 17.15 M47.65 14.15 L48.45 15.7 49.75 19.05 48.75 20.05 48.3 18.15 47.15 15.75 47.65 14.15" fill="#ffffff" fill-rule="evenodd" stroke="none"/>
      <path d="M41.85 10.25 L41.0 9.8 39.85 9.6 39.25 9.6 Q38.4 9.85 37.85 10.3 L37.05 11.15 36.95 10.45 Q36.95 9.95 37.25 9.5 37.7 8.8 38.7 8.8 L40.65 9.1 41.85 10.25" fill="url(#gradient2)" fill-rule="evenodd" stroke="none"/>
      <path d="M40.95 12.05 L40.3 12.05 40.25 12.1 Q39.35 12.2 38.5 12.7 L37.6 13.15 37.55 13.45 38.55 12.95 Q40.3 12.7 42.65 14.45 43.9 15.45 44.95 17.1 L45.5 18.6 42.8 15.75 Q41.7 14.75 40.45 14.25 38.85 13.55 37.35 13.9 L36.9 14.35 34.95 15.95 30.1 19.95 24.3 24.75 24.05 25.0 25.25 23.9 18.5 29.3 17.15 30.35 Q13.65 33.05 11.8 33.6 L12.7 32.55 13.9 31.2 16.9 27.65 17.75 26.65 Q19.75 24.4 22.45 22.35 L22.35 22.4 19.35 24.15 Q14.85 26.65 12.7 28.9 L11.8 29.8 11.45 30.2 11.15 30.5 10.85 31.25 Q11.0 29.45 12.0 27.7 13.15 25.65 14.65 23.95 16.2 22.2 18.05 20.75 19.95 19.35 21.95 18.2 L25.65 16.15 Q27.65 15.3 29.6 14.65 L35.7 13.15 37.1 13.05 Q36.15 12.6 35.2 12.4 L32.85 12.3 29.85 13.5 27.15 14.55 25.65 15.2 24.0 16.0 21.95 17.0 20.6 17.8 Q20.05 18.15 19.45 18.65 L18.3 19.6 17.55 20.35 16.35 21.55 13.65 24.9 Q12.5 26.45 11.65 27.95 L10.65 30.05 Q10.1 31.4 9.85 32.75 9.5 34.5 9.55 36.25 L9.55 38.25 9.4 38.0 Q8.95 36.85 8.75 35.5 L8.7 35.2 8.65 34.15 Q7.85 32.35 7.65 30.45 7.45 28.4 8.4 26.55 9.35 24.65 10.6 23.35 11.8 22.05 12.3 21.85 10.55 24.3 9.95 25.75 9.15 27.55 8.9 29.35 L8.8 31.5 8.8 31.4 Q9.05 29.5 10.05 27.7 11.0 25.95 12.2 24.35 L14.7 21.5 17.75 18.9 Q19.25 17.8 20.95 16.8 22.65 15.75 24.4 14.95 26.1 14.15 28.05 13.5 L31.45 12.5 32.0 12.35 30.05 12.55 Q28.1 12.7 26.2 13.45 L29.4 12.2 33.3 11.55 Q35.45 11.3 36.9 12.45 L37.4 12.75 37.4 12.6 37.7 11.5 Q38.1 10.5 39.35 10.5 41.5 10.5 42.75 11.55 43.4 12.1 44.25 13.5 L43.6 12.8 42.85 12.4 42.4 12.2 40.95 12.05 M30.15 15.95 L31.25 15.5 28.85 16.1 Q26.05 16.9 23.1 18.4 L22.15 18.9 21.55 19.3 19.9 20.45 17.4 22.2 17.2 22.3 Q16.05 23.1 15.2 23.95 14.35 24.85 13.2 26.7 L12.25 28.55 14.05 26.6 Q15.85 24.95 18.4 23.2 L22.6 20.3 25.85 18.15 Q27.3 17.15 28.3 16.7 29.25 16.25 30.15 15.95" fill="url(#gradient3)" fill-rule="evenodd" stroke="none"/>
      <path d="M46.85 15.6 L45.7 14.45 47.25 15.55 Q48.45 17.15 49.1 18.85 49.75 20.5 49.65 22.35 L49.3 26.1 49.0 27.6 48.75 29.3 48.5 30.05 48.55 30.15 48.5 30.25 48.4 30.3 47.45 31.5 47.95 31.9 46.95 31.75 46.8 31.8 46.9 31.75 45.35 31.55 44.4 30.35 Q45.45 31.1 47.0 31.3 L47.35 31.45 47.9 29.4 47.65 28.6 Q47.1 27.55 43.75 25.1 L42.5 24.2 42.5 24.15 42.65 24.15 Q43.2 24.15 46.4 26.4 L47.75 27.75 47.9 27.95 47.85 27.7 Q47.6 25.7 46.65 23.75 L45.8 22.25 Q47.25 23.05 48.15 24.7 L48.55 25.55 48.55 25.45 48.8 21.9 Q48.9 20.15 48.3 18.35 47.85 16.85 46.85 15.6" fill="url(#gradient4)" fill-rule="evenodd" stroke="none"/>
      <path d="M41.8 25.75 L42.0 25.75 40.75 24.15 41.65 24.8 44.25 26.9 41.8 25.75" fill="url(#gradient5)" fill-rule="evenodd" stroke="none"/>
      <path d="M43.3 28.15 L43.65 28.35 Q45.35 29.1 46.8 30.4 L44.1 29.4 44.75 29.4 43.8 28.65 43.3 28.15" fill="url(#gradient6)" fill-rule="evenodd" stroke="none"/>
      <path d="M45.8 32.5 L45.8 32.4 45.7 32.25 45.85 32.3 45.95 32.25 46.0 32.3 46.2 32.3 46.05 32.2 46.95 32.6 47.45 32.9 47.15 33.4 46.15 32.95 Q47.1 34.7 46.8 36.45 46.4 38.65 44.35 39.85 L43.3 40.4 41.85 40.5 44.35 39.35 45.45 38.35 45.75 37.9 Q46.55 36.7 46.55 35.45 L46.3 34.6 45.9 33.2 45.8 32.8 45.75 32.65 45.8 32.5" fill="url(#gradient7)" fill-rule="evenodd" stroke="none"/>
      <path d="M47.3 34.85 Q48.8 36.95 48.15 39.35 47.5 41.75 46.5 42.7 L44.95 43.7 43.45 44.05 43.05 44.15 40.8 44.05 40.8 44.0 41.4 44.0 Q44.65 44.0 46.55 41.6 47.85 39.9 47.85 38.55 L47.7 37.3 47.7 36.35 Q47.7 35.55 47.3 34.85" fill="url(#gradient8)" fill-rule="evenodd" stroke="none"/>
      <path d="M35.0 10.65 L32.25 10.45 29.2 10.85 25.95 11.45 21.8 12.6 Q19.35 13.15 17.3 14.1 L18.05 13.65 Q20.0 12.55 21.95 11.75 23.9 10.95 25.85 10.35 L29.75 9.55 32.05 9.25 29.9 8.8 26.0 8.6 30.6 8.2 Q33.05 8.45 34.05 9.05 L34.7 9.5 Q33.8 8.45 32.6 8.0 30.4 7.05 28.25 6.75 L22.15 6.9 Q23.35 6.35 24.9 6.1 L28.85 5.7 32.8 5.9 Q33.9 6.15 34.95 7.25 36.75 9.1 36.4 10.85 L36.7 11.5 35.95 10.95 35.0 10.65" fill="url(#gradient9)" fill-rule="evenodd" stroke="none"/>
      <path d="M36.65 15.3 Q39.6 15.8 41.75 18.25 40.0 17.25 38.15 16.9 39.55 18.75 41.2 20.05 39.5 19.45 38.15 18.15 L39.05 20.7 Q37.25 18.25 37.25 17.85 L37.25 17.75 37.2 17.6 36.7 15.4 36.65 15.3" fill="url(#gradient10)" fill-rule="evenodd" stroke="none"/>
      <path d="M33.5 20.9 L33.2 21.2 32.6 21.8 Q28.25 25.9 18.4 31.0 L17.85 31.35 Q19.0 29.95 20.8 28.7 L24.5 26.15 Q26.55 24.6 28.1 23.5 L31.5 20.9 34.9 17.8 36.35 16.25 35.7 20.15 Q35.1 22.15 33.55 23.95 L30.3 27.0 26.8 29.55 23.65 30.85 26.4 29.3 28.65 27.65 30.9 25.75 Q34.85 22.25 35.4 18.7 L35.4 18.45 33.5 20.9" fill="url(#gradient11)" fill-rule="evenodd" stroke="none"/>
      <path d="M39.85 22.65 L39.6 22.15 40.05 22.15 Q41.15 23.05 42.5 23.7 41.15 23.4 39.85 22.65" fill="url(#gradient12)" fill-rule="evenodd" stroke="none"/>
      <path d="M7.35 17.75 L6.9 18.2 Q4.45 20.8 3.65 24.25 L3.25 26.0 2.95 27.25 2.95 27.15 Q2.7 27.2 2.35 26.4 2.75 23.65 3.9 20.55 5.05 17.4 8.55 14.9 12.0 12.35 15.8 10.65 18.35 9.5 20.55 9.0 16.5 10.65 12.6 13.45 10.5 14.9 8.8 16.55 L7.35 17.75" fill="url(#gradient13)" fill-rule="evenodd" stroke="none"/>
      <path d="M8.9 23.1 L8.35 23.8 8.05 24.25 7.05 26.1 Q6.15 28.1 6.15 29.75 6.15 30.15 6.7 31.45 7.1 33.4 7.65 35.25 L7.2 34.4 7.0 34.3 6.95 34.7 7.3 36.35 Q7.65 37.7 8.35 38.75 9.25 40.15 11.45 41.75 12.3 42.35 13.0 42.6 10.75 42.25 9.6 41.15 8.5 40.05 8.15 39.15 L7.2 36.7 6.9 35.8 Q6.85 36.95 7.4 39.85 7.75 41.9 10.15 44.0 L9.55 43.9 8.75 43.3 8.1 42.5 Q7.45 41.75 7.1 40.85 L7.05 40.65 6.3 38.65 6.5 39.0 Q6.0 38.0 5.85 34.05 L5.35 33.65 5.4 33.25 5.25 33.1 5.25 33.05 5.85 33.6 5.95 33.7 Q7.15 34.8 5.8 32.5 L5.6 31.95 Q4.65 30.7 4.35 29.75 4.05 28.8 4.15 26.8 4.25 24.75 4.85 23.1 L5.5 21.4 Q4.7 23.8 4.9 26.2 L5.1 27.4 5.35 26.2 Q6.3 23.0 8.25 21.0 10.15 18.95 13.05 17.3 15.7 15.7 18.3 14.6 16.6 15.45 12.15 19.4 L10.2 21.55 9.45 22.25 8.9 23.1" fill="url(#gradient14)" fill-rule="evenodd" stroke="none"/>
      <path d="M19.65 29.4 L19.2 29.8 22.5 26.45 21.7 27.3 19.65 29.4" fill="url(#gradient15)" fill-rule="evenodd" stroke="none"/>
      <path d="M5.3 36.2 L5.3 36.8 Q3.95 40.15 4.65 42.4 4.95 43.35 5.5 44.05 6.2 44.95 7.3 45.45 L10.05 46.35 9.2 46.35 8.8 46.25 5.9 45.45 Q4.9 45.0 4.45 44.05 L4.35 43.8 Q3.65 41.85 4.15 39.85 4.7 37.65 5.3 36.2" fill="url(#gradient16)" fill-rule="evenodd" stroke="none"/>
      <path d="M11.4 45.7 L11.3 45.65 11.35 45.6 11.4 45.7" fill="url(#gradient17)" fill-rule="evenodd" stroke="none"/>
    </g>
    <radialGradient cx="0" cy="0" gradientTransform="matrix(0.0366, 0.0, 0.0, 0.0366, 26.25, 25.4)" gradientUnits="userSpaceOnUse" id="gradient0" r="819.2" spreadMethod="pad">
      <stop offset="0.0" stop-color="#cdc87a"/>
      <stop offset="0.5568627450980392" stop-color="#fffec4"/>
    </radialGradient>
    <radialGradient cx="0" cy="0" gradientTransform="matrix(1.0E-4, 0.0, 0.0, 1.0E-4, 11.35, 45.65)" gradientUnits="userSpaceOnUse" id="gradient1" r="819.2" spreadMethod="pad">
      <stop offset="0.0" stop-color="#cdc87a"/>
      <stop offset="0.5568627450980392" stop-color="#fffec4"/>
    </radialGradient>
    <radialGradient cx="0" cy="0" gradientTransform="matrix(0.0036, 0.0, 0.0, 0.0036, 39.4, 10.0)" gradientUnits="userSpaceOnUse" id="gradient2" r="819.2" spreadMethod="pad">
      <stop offset="0.0" stop-color="#bba457"/>
      <stop offset="1.0" stop-color="#ded388"/>
    </radialGradient>
    <radialGradient cx="0" cy="0" gradientTransform="matrix(0.027, 0.0, 0.0, 0.027, 26.55, 24.4)" gradientUnits="userSpaceOnUse" id="gradient3" r="819.2" spreadMethod="pad">
      <stop offset="0.0" stop-color="#bba457"/>
      <stop offset="1.0" stop-color="#ded388"/>
    </radialGradient>
    <radialGradient cx="0" cy="0" gradientTransform="matrix(0.011, 0.0, 0.0, 0.011, 46.1, 23.2)" gradientUnits="userSpaceOnUse" id="gradient4" r="819.2" spreadMethod="pad">
      <stop offset="0.0" stop-color="#bba457"/>
      <stop offset="1.0" stop-color="#ded388"/>
    </radialGradient>
    <radialGradient cx="0" cy="0" gradientTransform="matrix(0.0032, 0.0, 0.0, 0.0032, 42.5, 25.55)" gradientUnits="userSpaceOnUse" id="gradient5" r="819.2" spreadMethod="pad">
      <stop offset="0.0" stop-color="#bba457"/>
      <stop offset="1.0" stop-color="#ded388"/>
    </radialGradient>
    <radialGradient cx="0" cy="0" gradientTransform="matrix(0.0027, 0.0, 0.0, 0.0027, 45.05, 29.3)" gradientUnits="userSpaceOnUse" id="gradient6" r="819.2" spreadMethod="pad">
      <stop offset="0.0" stop-color="#bba457"/>
      <stop offset="1.0" stop-color="#ded388"/>
    </radialGradient>
    <radialGradient cx="0" cy="0" gradientTransform="matrix(0.0061, 0.0, 0.0, 0.0061, 44.65, 36.35)" gradientUnits="userSpaceOnUse" id="gradient7" r="819.2" spreadMethod="pad">
      <stop offset="0.0" stop-color="#bba457"/>
      <stop offset="1.0" stop-color="#ded388"/>
    </radialGradient>
    <radialGradient cx="0" cy="0" gradientTransform="matrix(0.0072, 0.0, 0.0, 0.0072, 44.55, 39.5)" gradientUnits="userSpaceOnUse" id="gradient8" r="819.2" spreadMethod="pad">
      <stop offset="0.0" stop-color="#bba457"/>
      <stop offset="1.0" stop-color="#ded388"/>
    </radialGradient>
    <radialGradient cx="0" cy="0" gradientTransform="matrix(0.013, 0.0, 0.0, 0.013, 27.0, 9.85)" gradientUnits="userSpaceOnUse" id="gradient9" r="819.2" spreadMethod="pad">
      <stop offset="0.0" stop-color="#bba457"/>
      <stop offset="1.0" stop-color="#ded388"/>
    </radialGradient>
    <radialGradient cx="0" cy="0" gradientTransform="matrix(0.0046, 0.0, 0.0, 0.0046, 39.2, 18.0)" gradientUnits="userSpaceOnUse" id="gradient10" r="819.2" spreadMethod="pad">
      <stop offset="0.0" stop-color="#bba457"/>
      <stop offset="1.0" stop-color="#ded388"/>
    </radialGradient>
    <radialGradient cx="0" cy="0" gradientTransform="matrix(0.0151, 0.0, 0.0, 0.0151, 27.1, 23.8)" gradientUnits="userSpaceOnUse" id="gradient11" r="819.2" spreadMethod="pad">
      <stop offset="0.0" stop-color="#bba457"/>
      <stop offset="1.0" stop-color="#ded388"/>
    </radialGradient>
    <radialGradient cx="0" cy="0" gradientTransform="matrix(0.0023, 0.0, 0.0, 0.0023, 41.05, 22.9)" gradientUnits="userSpaceOnUse" id="gradient12" r="819.2" spreadMethod="pad">
      <stop offset="0.0" stop-color="#bba457"/>
      <stop offset="1.0" stop-color="#ded388"/>
    </radialGradient>
    <radialGradient cx="0" cy="0" gradientTransform="matrix(0.0166, 0.0, 0.0, 0.0166, 11.45, 18.1)" gradientUnits="userSpaceOnUse" id="gradient13" r="819.2" spreadMethod="pad">
      <stop offset="0.0" stop-color="#bba457"/>
      <stop offset="1.0" stop-color="#ded388"/>
    </radialGradient>
    <radialGradient cx="0" cy="0" gradientTransform="matrix(0.0205, 0.0, 0.0, 0.0205, 11.2, 29.3)" gradientUnits="userSpaceOnUse" id="gradient14" r="819.2" spreadMethod="pad">
      <stop offset="0.0" stop-color="#bba457"/>
      <stop offset="1.0" stop-color="#ded388"/>
    </radialGradient>
    <radialGradient cx="0" cy="0" gradientTransform="matrix(0.0029, 0.0, 0.0, 0.0029, 20.85, 28.1)" gradientUnits="userSpaceOnUse" id="gradient15" r="819.2" spreadMethod="pad">
      <stop offset="0.0" stop-color="#bba457"/>
      <stop offset="1.0" stop-color="#ded388"/>
    </radialGradient>
    <radialGradient cx="0" cy="0" gradientTransform="matrix(0.0072, 0.0, 0.0, 0.0072, 7.0, 41.3)" gradientUnits="userSpaceOnUse" id="gradient16" r="819.2" spreadMethod="pad">
      <stop offset="0.0" stop-color="#bba457"/>
      <stop offset="1.0" stop-color="#ded388"/>
    </radialGradient>
    <radialGradient cx="0" cy="0" gradientTransform="matrix(1.0E-4, 0.0, 0.0, 1.0E-4, 11.35, 45.65)" gradientUnits="userSpaceOnUse" id="gradient17" r="819.2" spreadMethod="pad">
      <stop offset="0.0" stop-color="#bba457"/>
      <stop offset="1.0" stop-color="#ded388"/>
    </radialGradient>
  </defs>
</svg>
