<svg xmlns="http://www.w3.org/2000/svg" xmlns:ffdec="https://www.free-decompiler.com/flash" xmlns:xlink="http://www.w3.org/1999/xlink" ffdec:objectType="frame" width="41.75" height="25.8"><use ffdec:characterId="1" xlink:href="#a" width="41.75" height="25.8"/><defs><path id="a" fill="#b14015" fill-rule="evenodd" d="M22.45 24.3q-2.6-1.3-4.25-3.35L16.95 23q-3.2-1.5-5.2-4.05l-.4 2.9q-3.85-1.8-5.45-5.4L5.2 18Q.45 12.2 1.9 3.15l.05-.45Q11.3-1.8 23.1-1.45q9.65.3 19.85 4.7Q44.4 12.2 39.65 18l-.7-1.55q-1.6 3.6-5.45 5.4l-.35-2.9Q31.1 21.5 27.95 23l-1.3-2.05q-1.6 2.05-4.2 3.35" transform="translate(-1.55 1.5)"/></defs></svg>