<svg xmlns="http://www.w3.org/2000/svg" xmlns:ffdec="https://www.free-decompiler.com/flash" xmlns:xlink="http://www.w3.org/1999/xlink" ffdec:objectType="frame" width="41.6" height="29.25"><use ffdec:characterId="1" xlink:href="#a" width="41.6" height="29.25"/><defs><path id="a" fill="#476729" fill-rule="evenodd" d="M39.4 14.8q-2.35 7.95-8.95 10.95l1.95-4.85q-1.5 2.4-5.45 4.65l-.3-4.6q.1 2.9-3.65 6.5-2.95-1.6-4.7-4.05 1 1.95 1.65 4.35-4.15-1.2-6.2-4.65L15 26.5q-6.4-4-9.1-11.55l1.15 7.65Q.3 13.15 1.9 3.15l.05-.45Q11.3-1.8 23.1-1.45q9.65.3 19.85 4.7 1.45 9.45-4.8 18.45z" transform="translate(-1.6 1.5)"/></defs></svg>