<svg xmlns="http://www.w3.org/2000/svg" xmlns:ffdec="https://www.free-decompiler.com/flash" xmlns:xlink="http://www.w3.org/1999/xlink" ffdec:objectType="frame" width="59.45" height="64.6"><g transform="translate(1.35 6.2)"><use ffdec:characterId="7" xlink:href="#a" width="58.2" height="59.6" transform="matrix(1.0208 0 0 1.0797 -1.328 -5.944)"/><use ffdec:characterId="8" xlink:href="#b" width="58.75" height="62.8" transform="translate(-.95 -6.2)"/></g><defs><path id="c" fill="#ccc" fill-rule="evenodd" d="m7.6-5.3 15.75-.85q12.5.2 15.7 1.4 6.75 2.6 7.3 6.05l-4.95 7q-.05 1.25.3 2.75l.95 3.65q-2.45-1.15-2.75-3l.25-1.6-.4.55-.15.2q-1.65 3.9-.9 6.85.45 1.6 1.3 2.3-3.15-1.15-4.2-3.2-2.25 3.8-1.8 4.45-.75-.85-1.2-4.05l-.8 1.3-1 1.6q2.05 5.8 4.95 8.4Q40 32.25 46 30q-.85 1.1-2.5 1.8-3.3 1.35-7.25-.85 1.4 1.15 3.7 2.05L45 34.7q9.35 2.95 11.35 11.45 1 4.25.05 7.25-.7-5.55-5.75-9l-4.85-2.3q-11.45-3.35-15.6-12.6-1.25-2.9-1.65-6l-.15-2.55-2.1-.3q-2.2-.55-2.85-1.85l-.5 1.75q-.35 1.2-1.05 1.8l-1.4-1.85q-.95-1.25-1.15-2.15-.25.95-.85 1.6l-1.55 1.25-.6-1.9q-.4-1.05-1.35-2.2.35 1.5-.8 3.1-.15-1.15-4.4-5.5-.45 2.1-1.7 3.65L6.2 20q1.7-2.7.9-6.6l-.7-2.05-.4-.4q-7.75-7.4-7.35-9.7.65-2.4 2.9-3.95Q3.5-4.05 7.6-5.3" transform="translate(1.35 6.2)"/><path id="b" fill-opacity=".298" fill-rule="evenodd" d="m8.05-5.3 15.75-.85q12.5.2 15.7 1.4 6.8 2.65 7.3 6.05L39 12.45l-.3.55q-.9 1.85-.55 4.7.2 1.7.65 3l-2.45-3.5-1.9 3.1q-.3.55 0 .95-.75-.85-1.2-4.05l-1.35 2.2-1.35 2.55.45 3.35q.35 3.7.85 5.3Q33.8 36.65 43.6 40q9.95 3.4 13.1 10.25 1 2.2 1.1 4.45.1 1.75-.2 1.9-.25-5.75-6.35-9.55L45.2 44.4q-11.1-2.1-14.25-13.45-1-3.55-1.1-7.6l.05-.9q-2.9.25-4.45-1.35l-1-1.75-2.3 3.1-2.25-4.05-.8 1.95q-.6 1.4-1.35 2l-1.6-2.45Q15 18.05 14.8 17.15q-.15.5.35 2.2.4 1.3-.35 1.85-.3-.85-2.4-3.4l-3.15-3.7q-.85 4.9-2 6.5Q10 15.6 4.7 9.3L.75 4.85Q-1.15 2.6-.9 1.25-.25-1.15 2-2.7q1.95-1.35 6.05-2.6" transform="translate(.95 6.2)"/><use ffdec:characterId="6" xlink:href="#c" id="a" width="58.2" height="59.6"/></defs></svg>