<svg xmlns="http://www.w3.org/2000/svg" xmlns:ffdec="https://www.free-decompiler.com/flash" xmlns:xlink="http://www.w3.org/1999/xlink" ffdec:objectType="frame" width="91.6" height="79.75"><use ffdec:characterId="1" xlink:href="#a" width="91.6" height="79.75"/><defs><radialGradient id="b" cx="0" cy="0" r="819.2" gradientTransform="translate(38.1 15.75)scale(.0614)" gradientUnits="userSpaceOnUse" spreadMethod="pad"><stop offset="0" stop-color="#914f00"/><stop offset=".525" stop-color="#f7b34d"/><stop offset="1" stop-color="#914f00"/></radialGradient><g id="a" fill-rule="evenodd"><path fill="#0f6" d="M86.1 47.15h-.15v-.1z"/><path fill="url(#b)" d="M9.9-22.3q1.05-1 2.45-1.4l5.25-.45q11.3 0 17.95 9.5 2.15 3 5.4 9.45l2.1 4.15Q50.45 7 59.2 11l8.6 3.25h.1q8 4 10.15 9.2Q83.9 28.6 83.9 34.8l-.35 2.3-.05.2-.75-2.4q-.1 2.2-1.7 3.65l-2.95 1.5q4.3-2.6 2.85-8.75l-1.15-2.8q-1.6-2.45-3.8-4 4.65 5.45 3.05 11.15.9-6.45-6.6-12.15l-1.75-1.25-6.9-1.4q-4.8-.9-8.6-2.25l2.45 1.9q1.8 1.3 10.65 5.75 7.95 5.25 7.95 12.05 0 1.6-1.05 3.85-1.4 2.9-3.45 3.55 4.4-3.05-1.9-7.1.8 1.95.8 4.2 0 1.3-.8 3.1l.1-1.25q0-3.95-3.7-8l-1.95-.9q-4.15-1.8-9.75-3.6l-4.75-1.4q-10-2.75-16-6.1 2 1.8 5.05 3.55 3.9 2.25 8 3.7 1.85.65 3.55 1.45 2.85 1.05 5.2 2.5 5.5 3.4 5.5 7.8 0 1.4-.6 2.25l.05-1.3q-.3-4.4-6.05-7.4-2.45-1.3-5.35-2.15-3.35-.95-7.35-1.25l-1.15-.1 3.9 1.55q7.55 2.65 9.25 3.7 4.05 2.5 4.05 6.95 0 2.1-1.5 3.9l.05-1q0-2.85-2.05-5.25-1.25-1.45-3.1-2.35l-.35-.1-1.9-.4q1.25.95 2.2 2.55 1.35 2.2 1.35 4.65 0 2.85-2.35 5.05-2.3 2.15-6.25 2.65l.25-1.9q0-2.95-4.6-5.95-2.2-.7-3.5-.65-6.2-.6-12.65-2.05-13.4-2.75-18.5-10.35-4-3.9-4.6-8.05v.95q0 6.95 4.5 11.2-6.35-4.2-6.35-12.35 0-2.95.7-5.7-1.95 4.8-1.95 9.65 0 9.65 9.95 19.15-4.8-2.65-8.65-7.15-6.25-7.35-6.25-13.7 0-8.75 5.65-15.35l3.9-4.65Q3.6 6.15 3.6 3.3l-.95-6.5Q1.7-8.45 1.7-9.6q0-5.45 1.45-8.4 1.35-2.7 4.1-3.6l.9-.1 1.45.35zm57.65 37.45h-.1l-8.7-2.95Q52 9.4 45.9 4.2l.65 1.1q1.95 3.2 6.6 6.5 5.6 4 11.1 4.85 6.6 1 12.6 5.8l.3.25v.1h.15l.15.15q-2.6-4.45-9.9-7.8m-31.6 30.6q-6.1-2.95-12.9-3.25-4.9-.25-9.2-2 4.5 3.05 11.1 3.8zm-4.65-21.1-1.9-2.5q1.15 3.4 3.35 6l.3.15q4.6 2.2 8.45 3l-2.4-1-4.35-2.7z" transform="translate(7.7 24.15)"/><path fill="#854f20" d="M75.25 39.3h-.1l-8.7-2.95q-6.65-2.75-12.65-7.8l-2-2.8L56.9 30q6.6 4.75 14.15 7.4t10.7 5.55l1.35 1.5q-2.8-2.85-7.85-5.15m13.5 13 .05.05q2.65 6.15-.2 9.8l-1.3 1.3-1.5.75q4.3-2.6 2.85-8.75l-1.15-2.8q-1.35-2.1-3.2-3.5l-.95-.9q-1.95-1.7-4.4-2.7 6.4 3.7 7.55 10.35-1.2-4.3-6.35-8.25L78.4 46.4 71.5 45q-4.75-.9-8.55-2.2-2.7-1.7-5.4-4.35L56.3 37q3.35 2.3 8.8 4.15l.6.2 12.25 2.5Q84.4 46 87.6 50.8zm-33.2-5.15 5.6 5.3q13.2 5.2 16.9 7.8 3.2 2.25 3.9 4.4.55-4.3-9-9.9-13-6.55-17.2-9.25-3.9-2.5-6.6-6.35 2.1 3.45 6.4 8m-6.05 10.8-.95-.1-7.2-3 11.9 2.3q6.9 1.15 11.3 4.9 3.55 2.95 3.65 6.2-.6-4.1-6-6.9-2.45-1.3-5.35-2.15-3.35-.95-7.35-1.25m-1-2.75-1.7-.75-4.35-2.7L39 48.8l-1.9-2.5.2.55q-1.8-3.1-2-5.85l3 5.3q4.7 6.3 12 9.25zM54 70.7l-.9-1.4q3.9 4.4 1.3 8.1-1 1.4-2.4 2.3l-.35.05.25-1.9q0-2.95-4.6-5.95-2.2-.7-3.5-.65-6.2-.6-12.65-2.05-5.05-1.05-8.9-2.75 2.7 1.05 6.1 1.95 8.85 2.3 16.25 1.9 6.15-.35 8.6 1.75 1.2 1.05 1.2 2.15.4-1.7-.4-3.5m2.95-5.8q-.45-.3-.85-.5-2.2-1.25-12.15-5-8.1-3.05-11.15-7.55 6.3 5.4 20.6 9.8l2.35.7q2.7.9 4.75 2.2 6.15 3.9 3.55 9.4l.05-1q0-2.85-2.05-5.25-1.25-1.45-3.1-2.35l-.35-.1zm.55-10q-9.9-2.75-15.85-6-5.5-4.5-6.7-11.9-.8-4.55.05-8.15.05 2.95 1.6 6.8.8 1.95 1.55 3.3-1.1-2.65-1.35-6.7l-.05-3.55q.75 3.55 3.9 10.25 2.6 5.7 13.9 10.8-1.8-1.75-3.15-3.65-2.75-3.95-3.9-9.7l-.1-.15-2.1-5.2 1.15 1.85q1.55 2.3 3.85 4.7 7.2 7.55 18.45 12.8 11.5 5.35 13.5 10.35.65 1.65.25 3.45l-.4 1.55-.15.85q-.4 1.6-2.35 3.2l-.15.05q4.3-2.95-1.55-6.85l-.5-.45-1.5-1.1q2 2.95 2 6.3l-.15 1.8-.2.5.1-1.25q0-3.95-3.7-8L72 59.9q-4.15-1.8-9.75-3.6zM17 44.45q.05 1.45.9 3.05 2.75 5 12.85 9.1-4.5-1.25-8.45-3.55-7.95-4.6-5.15-9.75zm5-.65q2.55 10.05 16.1 14.35-6.7-1.95-12.05-5.9-10.5-7.7-3.95-17.45-1.35 4.1-.1 9M8.3 48.85q.85 5.05 4.35 10-4-3.9-4.6-8.05v.95q0 6.95 4.5 11.2l-.55-.4q-1.65-1.5-3-3.9-3.55-6.25-.85-13.85zm7.35 9.3q1.6 2.15 4.2 3.35-1.9-1.8-2.25-3.8l1.15 1.5q2.15 1.85 7.35 3.7 4.15 1.5 10.85 2.95 4.75 1.4 6.45 3.95-6-2.85-12.65-3.15-4.6-.25-8.65-1.8l-.9-.5q-4.8-3-6.65-8.1zm-.8 15.55Q4.25 65.15 2.3 55.4q-1.05-5.25.35-8.7l-.1.65q-.05 1 1.05 6.55.05-5.4 1.55-9.2 1.5-3.85 4.35-7.75-1.5 2.9-2.6 7.2l-.4 1.75q-1.55 4.3-1.55 8.65 0 9.65 9.95 19.15z"/><path fill="#fff" fill-opacity=".498" d="m61.95 43.4 4 2.4q4.85 2.8 8.8 4.65 4.3 2.05 6.55 5.35 1.8 2.6 1.8 5.05-.25-1.45-1.85-3.55-3.3-4.15-10.3-7.1l2.75.6-5.5-3q-2.9-1.6-6.25-4.4m-7 21.35q3.65 2.35 4.3 5.55l-.2 2.9q0-.95-.65-1.7l-.65-.6q.35 1.95-.8 3.8l-1.25 1.45q1.8-4.2-3.1-9.15l-5.25-4.1q2.55.7 5.35 1.85l-1.3-1.7zm24-5.05q-12.9-6.9-17.05-10.1l6.9 3.5q8.35 4.5 10.15 6.6m-45.4-12.2q3.15 6.1 10.6 9.4-3.95-1.2-7.45-3.65-7.05-4.95-4.8-11.15l.25 1.55q.45 1.95 1.4 3.85m-20.75.7q.95 2.1 2.35 4.05 4.55 6.1 11.75 7.85 7.9 1.9 12.25 4.2 3.3 1.75 4.95 4-1.2-1-4.9-2.8-3.75-1.85-11.4-3.65Q20.15 60 16.75 55.8q-3.4-4.25-4.5-8.95z"/></g></defs></svg>