<?xml version="1.0" encoding="UTF-8" standalone="no"?>
<svg xmlns:ffdec="https://www.free-decompiler.com/flash" xmlns:xlink="http://www.w3.org/1999/xlink" ffdec:objectType="frame" height="85.0px" width="77.75px" xmlns="http://www.w3.org/2000/svg">
  <g transform="matrix(1.0, 0.0, 0.0, 1.0, 12.7, 14.3)">
    <use ffdec:characterId="2" height="54.35" id="Color" transform="matrix(1.0, 0.0, 0.0, 1.0, 0.15, -0.4)" width="51.65" xlink:href="#sprite0"/>
    <clipPath id="clipPath0" transform="matrix(1.0, 0.0, 0.0, 1.0, 0.0, 0.0)">
      <path d="M51.75 30.75 Q51.65 36.55 49.05 42.65 47.25 46.9 42.9 53.8 44.65 47.55 45.05 41.35 44.0 43.3 42.3 44.85 L40.8 46.1 Q44.25 42.65 45.3 36.8 46.55 29.75 43.35 22.4 43.2 24.05 40.65 26.8 38.2 29.45 35.4 31.15 L36.3 24.55 Q36.6 20.85 36.1 18.75 36.3 22.8 34.65 27.15 33.3 30.75 31.15 33.35 25.9 30.7 23.1 24.45 L21.35 18.75 Q21.4 24.85 24.4 30.7 21.9 29.55 19.5 26.95 16.65 23.85 15.3 20.05 14.0 22.95 13.95 27.05 L14.15 30.6 Q11.8 29.1 10.15 26.15 L8.95 23.4 Q6.45 38.7 12.85 47.1 10.9 45.95 9.4 44.4 7.95 42.85 7.3 41.35 7.4 44.4 8.25 47.9 9.05 51.35 10.3 53.95 7.35 52.2 3.8 42.6 0.15 32.85 0.15 26.4 0.15 19.8 2.55 13.7 5.85 5.35 12.55 2.55 19.15 -0.3 26.95 -0.4 L33.7 0.4 Q38.55 1.4 42.2 3.45 45.8 5.45 48.35 10.8 52.1 18.6 51.75 30.75" fill="#ff7f7e" fill-rule="evenodd" stroke="none"/>
    </clipPath>
    <g clip-path="url(#clipPath0)">
      <use ffdec:characterId="4" height="85.0" transform="matrix(1.0, 0.0, 0.0, 1.0, -12.7, -14.3)" width="77.75" xlink:href="#shape2"/>
    </g>
  </g>
  <defs>
    <g id="sprite0" transform="matrix(1.0, 0.0, 0.0, 1.0, -0.15, 0.4)">
      <use ffdec:characterId="1" height="54.35" transform="matrix(1.0, 0.0, 0.0, 1.0, 0.15, -0.4)" width="51.65" xlink:href="#shape0"/>
    </g>
    <g id="shape0" transform="matrix(1.0, 0.0, 0.0, 1.0, -0.15, 0.4)">
      <path d="M40.8 46.1 Q44.25 42.65 45.3 36.8 46.55 29.75 43.35 22.4 43.2 24.05 40.65 26.8 38.2 29.45 35.4 31.15 L36.3 24.55 Q36.6 20.85 36.1 18.75 36.3 22.8 34.65 27.15 33.3 30.75 31.15 33.35 25.9 30.7 23.1 24.45 L21.35 18.75 Q21.4 24.85 24.4 30.7 21.9 29.55 19.5 26.95 16.65 23.85 15.3 20.05 14.0 22.95 13.95 27.05 L14.15 30.6 Q11.8 29.1 10.15 26.15 L8.95 23.4 Q6.45 38.7 12.85 47.1 10.9 45.95 9.4 44.4 7.95 42.85 7.3 41.35 7.4 44.4 8.25 47.9 9.05 51.35 10.3 53.95 7.35 52.2 3.8 42.6 0.15 32.85 0.15 26.4 0.15 19.8 2.55 13.7 5.85 5.35 12.55 2.55 19.15 -0.3 26.95 -0.4 L33.7 0.4 Q38.55 1.4 42.2 3.45 45.8 5.45 48.35 10.8 52.1 18.6 51.75 30.75 51.65 36.55 49.05 42.65 47.25 46.9 42.9 53.8 44.65 47.55 45.05 41.35 44.0 43.3 42.3 44.85 L40.8 46.1" fill="#aa1e1f" fill-rule="evenodd" stroke="none"/>
    </g>
    <g id="shape2" transform="matrix(1.0, 0.0, 0.0, 1.0, 12.7, 14.3)">
      <path d="M32.7 -8.55 Q34.4 -6.95 35.55 -5.15 38.45 -0.55 38.45 5.2 38.45 13.25 32.7 19.0 27.05 24.7 18.95 24.7 14.8 24.7 11.4 23.2 7.95 21.75 5.2 19.0 -0.55 13.25 -0.55 5.2 -0.55 -2.9 5.2 -8.55 10.95 -14.3 18.95 -14.3 27.05 -14.3 32.7 -8.55" fill="url(#gradient0)" fill-rule="evenodd" stroke="none"/>
      <path d="M19.85 41.45 Q21.35 42.8 22.3 44.4 24.8 48.25 24.8 53.15 24.8 59.95 19.85 64.85 15.1 69.7 8.25 69.7 4.7 69.7 1.85 68.45 -1.15 67.2 -3.45 64.85 -8.3 59.95 -8.3 53.15 -8.3 46.25 -3.45 41.45 1.45 36.6 8.25 36.6 15.1 36.6 19.85 41.45" fill="url(#gradient1)" fill-rule="evenodd" stroke="none"/>
      <path d="M53.85 42.45 Q55.35 43.8 56.3 45.4 58.8 49.25 58.8 54.15 58.8 60.95 53.85 65.85 49.1 70.7 42.25 70.7 38.7 70.7 35.85 69.45 32.85 68.2 30.55 65.85 25.7 60.95 25.7 54.15 25.7 47.25 30.55 42.45 35.45 37.6 42.25 37.6 49.1 37.6 53.85 42.45" fill="url(#gradient2)" fill-rule="evenodd" stroke="none"/>
      <path d="M7.0 13.5 Q12.15 15.6 16.1 16.4 L24.25 17.25 17.6 17.5 Q9.85 17.4 4.3 15.55 -0.8 13.85 -6.95 10.3 -12.25 7.3 -12.7 6.55 L-8.95 2.9 -3.2 7.45 Q2.85 11.8 7.0 13.5 M45.35 13.5 Q52.4 11.0 61.3 2.9 L65.05 6.55 Q64.45 7.55 59.4 10.6 53.2 14.35 48.05 15.55 40.45 17.35 33.5 17.5 L28.1 17.25 36.35 16.2 Q39.95 15.4 45.35 13.5" fill="#ffffff" fill-opacity="0.29803923" fill-rule="evenodd" stroke="none"/>
      <path d="M52.6 29.0 Q53.05 47.85 42.15 55.35 45.2 50.05 47.65 41.95 52.65 25.75 50.0 11.6 52.4 19.55 52.6 29.0" fill="url(#gradient3)" fill-rule="evenodd" stroke="none"/>
      <path d="M24.35 30.95 Q19.45 26.3 18.7 19.9 18.55 17.75 18.65 15.2 18.85 10.15 20.3 7.7 19.0 16.55 21.9 23.95 24.95 31.75 31.3 33.55 30.55 32.5 30.2 28.0 L29.8 18.5 Q30.4 19.4 31.0 22.95 31.6 26.5 31.65 29.55 33.8 25.85 33.6 18.5 33.35 10.55 30.25 6.3 33.55 8.9 35.15 15.05 37.0 22.45 35.1 31.4 37.3 28.95 39.2 24.95 43.0 16.85 41.1 10.1 42.9 13.35 44.3 18.35 47.1 28.45 45.0 36.75 40.25 38.8 35.4 36.6 31.5 35.75 27.4 33.2 L24.4 31.0 24.35 30.95" fill="url(#gradient4)" fill-rule="evenodd" stroke="none"/>
      <path d="M24.4 31.0 L14.7 32.0 Q13.25 29.65 12.7 25.7 11.6 17.8 16.1 10.0 14.85 15.6 15.45 19.0 16.7 26.05 24.35 30.95 L24.4 31.0" fill="url(#gradient5)" fill-rule="evenodd" stroke="none"/>
      <path d="M8.95 24.5 Q9.25 28.25 10.0 30.0 L14.25 50.0 12.65 56.5 Q10.65 55.15 8.7 51.8 4.85 45.2 5.25 35.5 L6.25 38.2 Q7.55 41.55 9.0 43.1 5.1 30.1 8.8 21.5 L8.95 24.5" fill="url(#gradient6)" fill-rule="evenodd" stroke="none"/>
    </g>
    <radialGradient cx="0" cy="0" gradientTransform="matrix(0.0245, 0.0, 0.0, 0.0245, 18.95, 5.2)" gradientUnits="userSpaceOnUse" id="gradient0" r="819.2" spreadMethod="pad">
      <stop offset="0.0" stop-color="#620000" stop-opacity="0.8"/>
      <stop offset="1.0" stop-color="#bc9393" stop-opacity="0.0"/>
    </radialGradient>
    <radialGradient cx="0" cy="0" gradientTransform="matrix(0.0208, 0.0, 0.0, 0.0208, 8.25, 53.15)" gradientUnits="userSpaceOnUse" id="gradient1" r="819.2" spreadMethod="pad">
      <stop offset="0.0" stop-color="#720707" stop-opacity="0.49803922"/>
      <stop offset="1.0" stop-color="#cb4646" stop-opacity="0.0"/>
    </radialGradient>
    <radialGradient cx="0" cy="0" gradientTransform="matrix(0.0208, 0.0, 0.0, 0.0208, 42.25, 54.15)" gradientUnits="userSpaceOnUse" id="gradient2" r="819.2" spreadMethod="pad">
      <stop offset="0.0" stop-color="#720707" stop-opacity="0.49803922"/>
      <stop offset="1.0" stop-color="#cb4646" stop-opacity="0.0"/>
    </radialGradient>
    <linearGradient gradientTransform="matrix(0.0, -0.0209, 0.0267, 0.0, 47.3, 33.5)" gradientUnits="userSpaceOnUse" id="gradient3" spreadMethod="pad" x1="-819.2" x2="819.2">
      <stop offset="0.0" stop-color="#690000" stop-opacity="0.49803922"/>
      <stop offset="1.0" stop-color="#5b0000" stop-opacity="0.2"/>
    </linearGradient>
    <linearGradient gradientTransform="matrix(0.0, -0.0147, 0.0178, 0.0, 32.8, 23.15)" gradientUnits="userSpaceOnUse" id="gradient4" spreadMethod="pad" x1="-819.2" x2="819.2">
      <stop offset="0.0" stop-color="#690000" stop-opacity="0.49803922"/>
      <stop offset="1.0" stop-color="#5b0000" stop-opacity="0.2"/>
    </linearGradient>
    <linearGradient gradientTransform="matrix(2.0E-4, -0.0109, 0.0114, 2.0E-4, 18.6, 22.7)" gradientUnits="userSpaceOnUse" id="gradient5" spreadMethod="pad" x1="-819.2" x2="819.2">
      <stop offset="0.0" stop-color="#690000" stop-opacity="0.49803922"/>
      <stop offset="1.0" stop-color="#5b0000" stop-opacity="0.2"/>
    </linearGradient>
    <linearGradient gradientTransform="matrix(0.0, -0.0197, 0.0214, 0.0, 9.7, 39.0)" gradientUnits="userSpaceOnUse" id="gradient6" spreadMethod="pad" x1="-819.2" x2="819.2">
      <stop offset="0.0" stop-color="#690000" stop-opacity="0.49803922"/>
      <stop offset="1.0" stop-color="#5b0000" stop-opacity="0.2"/>
    </linearGradient>
  </defs>
</svg>
