<?xml version="1.0" encoding="UTF-8" standalone="no"?>
<svg xmlns:ffdec="https://www.free-decompiler.com/flash" xmlns:xlink="http://www.w3.org/1999/xlink" ffdec:objectType="frame" height="109.55px" width="90.55px" xmlns="http://www.w3.org/2000/svg">
  <g transform="matrix(1.0, 0.0, 0.0, 1.0, 23.25, 39.55)">
    <use ffdec:characterId="1" height="109.55" transform="matrix(1.0, 0.0, 0.0, 1.0, -23.25, -39.55)" width="90.55" xlink:href="#shape0"/>
  </g>
  <defs>
    <g id="shape0" transform="matrix(1.0, 0.0, 0.0, 1.0, 23.25, 39.55)">
      <path d="M24.15 -38.6 L26.75 -39.15 Q29.05 -39.65 33.6 -38.35 37.5 -37.35 42.65 -32.65 47.7 -28.0 49.45 -23.45 51.25 -20.05 51.85 -18.2 L52.0 -17.6 Q52.65 -15.4 52.95 -12.85 53.35 -9.5 53.15 -5.55 L53.1 -5.3 53.1 -5.25 53.1 -4.8 53.1 -4.75 53.9 -4.5 54.15 -4.25 Q54.55 -3.6 53.95 -2.2 L55.2 -0.9 58.35 2.95 Q63.3 9.45 65.55 15.65 L65.9 16.55 Q67.4 21.05 67.3 25.05 67.2 28.2 66.05 31.05 62.65 39.45 50.35 44.4 L49.55 45.85 Q48.75 47.65 48.8 49.15 48.9 54.05 57.1 54.6 L52.65 55.0 51.85 54.9 51.75 54.85 51.55 54.85 Q47.55 54.0 45.7 50.1 L44.15 53.1 Q42.5 56.7 41.85 59.7 39.8 69.4 48.65 69.65 L46.65 70.0 Q44.3 70.15 42.5 69.2 37.0 66.0 39.8 52.7 L37.7 54.55 Q35.15 56.4 32.9 56.2 34.65 55.15 36.5 52.8 40.25 48.15 41.15 41.8 L39.6 43.95 Q38.7 45.35 38.3 46.5 L38.15 47.1 37.9 48.3 Q38.0 45.45 39.05 42.15 40.8 36.75 44.3 32.2 L44.55 31.85 45.8 28.8 48.35 20.6 49.3 16.55 Q51.15 7.15 49.05 2.25 L49.3 2.05 48.05 2.05 Q47.35 2.0 47.35 1.15 L47.45 0.75 47.7 0.15 47.75 0.15 46.55 -0.9 Q46.3 -2.9 45.25 -3.45 44.2 -4.1 44.3 -3.35 L42.5 -5.65 42.4 -5.85 42.25 -6.05 41.6 -5.85 39.25 -5.2 26.65 -5.4 26.6 -5.35 19.6 -5.55 19.55 -5.65 6.95 -6.2 4.7 -7.0 4.05 -7.25 3.9 -7.05 3.7 -6.9 1.75 -4.7 Q1.95 -5.45 0.8 -4.85 -0.25 -4.35 -0.6 -2.4 L-2.05 -1.25 -1.9 -0.8 -1.9 -0.4 Q-1.9 0.45 -2.6 0.45 L-3.85 0.4 -3.6 0.6 Q-6.25 5.75 -4.5 16.55 L-4.1 18.95 -2.35 26.3 -2.05 27.25 -1.0 30.4 -0.75 30.75 Q2.5 35.55 3.85 41.05 4.65 44.1 4.6 46.85 L4.45 46.05 4.3 45.45 Q4.0 44.25 3.2 42.8 L1.75 40.55 Q2.25 46.95 5.7 51.85 7.45 54.3 9.1 55.45 6.85 55.5 4.4 53.5 L2.4 51.55 Q4.4 64.95 -1.35 67.8 -3.15 68.65 -5.5 68.35 L-7.5 67.9 Q1.4 68.15 -0.1 58.35 -0.55 55.35 -2.0 51.65 L-3.35 48.55 Q-5.4 52.35 -9.5 52.9 L-9.7 52.9 -9.8 52.95 -10.6 53.0 -14.95 52.35 Q-6.75 52.3 -6.35 47.4 -6.2 45.9 -6.9 44.05 L-7.6 42.55 Q-19.6 36.85 -22.4 28.25 -23.35 25.35 -23.25 22.2 -23.15 17.8 -21.0 12.9 L-20.0 10.9 Q-17.9 6.7 -14.45 2.45 L-13.0 0.7 -9.55 -2.95 -8.3 -4.15 Q-8.8 -5.6 -8.3 -6.2 L-8.05 -6.45 -7.25 -6.65 -7.15 -6.65 -7.2 -6.85 -7.2 -7.3 -7.05 -6.6 -6.9 -6.6 -6.95 -6.7 -6.95 -7.2 -6.9 -7.45 Q-6.9 -10.3 -6.55 -12.85 -6.1 -16.45 -5.05 -19.4 L-4.8 -20.0 Q-4.15 -21.7 -2.3 -24.75 L-2.1 -25.1 Q-0.05 -29.5 5.35 -33.85 10.7 -38.2 14.7 -38.95 L21.55 -39.3 24.15 -38.6 M52.65 -4.15 L52.75 -3.3 52.8 -3.35 52.75 -4.1 52.65 -4.15 M51.75 19.75 L51.95 16.55 51.95 13.85 51.8 11.3 50.15 20.6 Q48.15 30.2 46.55 31.5 50.8 28.8 51.75 19.75 M64.7 16.55 Q63.9 14.4 62.7 12.15 60.65 8.35 57.65 4.6 L55.55 2.05 55.05 1.55 56.0 2.9 56.95 4.3 Q61.25 10.8 63.25 16.55 64.75 20.85 65.0 24.75 65.2 27.9 64.45 30.45 L63.7 32.3 Q68.15 25.8 64.7 16.55 M-7.3 12.0 L-7.45 16.55 -7.4 17.9 Q-7.25 23.0 -5.85 26.2 -4.75 28.65 -3.0 29.95 -3.8 29.2 -4.55 26.25 L-5.9 18.85 -6.95 9.45 -7.3 12.0 M-11.7 2.15 L-10.65 0.8 -9.6 -0.5 -12.4 2.35 -14.45 4.8 -17.85 9.6 -20.1 13.8 Q-24.2 22.8 -20.15 29.6 L-20.8 27.75 Q-21.35 25.15 -20.95 22.0 L-20.25 18.35 Q-18.7 12.55 -14.45 6.05 L-11.7 2.15" fill="#8c96a2" fill-rule="evenodd" stroke="none"/>
      <path d="M28.85 -34.25 L31.85 -34.15 32.0 -34.1 Q34.85 -34.0 38.1 -32.1 41.05 -30.35 43.5 -27.2 45.15 -25.1 46.6 -22.3 48.75 -18.25 50.45 -12.85 L51.1 -10.65 51.8 -8.05 51.95 -7.55 51.6 -10.65 51.25 -12.85 51.25 -13.0 51.2 -13.25 51.3 -12.85 51.8 -10.65 Q52.55 -7.25 52.7 -5.35 L52.8 -4.1 52.65 -4.15 52.8 -2.75 52.65 -2.65 51.2 -1.25 51.4 -1.85 51.4 -2.25 51.45 -2.45 51.35 -3.75 51.3 -4.45 51.3 -4.65 51.25 -4.8 Q51.0 -7.05 50.1 -9.85 L49.65 -11.15 49.1 -12.55 49.0 -12.85 48.9 -13.05 Q46.65 -18.55 44.0 -21.85 L43.2 -22.55 42.3 -23.0 Q43.7 -21.25 46.05 -15.4 L46.2 -15.05 46.95 -13.05 47.05 -12.85 47.8 -10.65 48.8 -7.05 49.15 -5.75 49.65 -2.3 49.8 -1.35 49.65 -1.85 49.9 -0.2 50.2 -0.45 49.45 0.2 49.05 0.6 48.9 0.8 48.75 0.75 48.05 0.4 46.55 -0.9 Q46.3 -2.9 45.25 -3.45 44.2 -4.1 44.3 -3.35 L42.5 -5.65 42.4 -5.85 42.25 -6.05 41.6 -5.85 39.25 -5.2 26.65 -5.4 26.6 -5.35 19.6 -5.55 19.55 -5.65 6.95 -6.2 4.7 -7.0 4.05 -7.25 3.9 -7.05 3.7 -6.9 1.75 -4.7 Q1.95 -5.45 0.8 -4.85 -0.25 -4.35 -0.6 -2.4 L-2.2 -1.2 -2.9 -0.9 -3.05 -0.85 -3.2 -1.05 -3.6 -1.5 -4.05 -1.9 -3.7 -3.55 -3.85 -3.05 -3.7 -4.0 -2.9 -7.4 -2.55 -8.7 -1.85 -10.65 -0.95 -12.85 0.8 -16.85 Q3.45 -22.5 5.0 -24.2 L4.1 -23.8 3.25 -23.15 Q0.4 -20.0 -2.25 -14.65 L-3.05 -12.85 -3.95 -10.65 Q-5.0 -7.8 -5.3 -5.55 L-5.4 -4.25 -5.45 -4.05 -5.45 -3.65 -5.25 -3.05 -6.6 -4.5 -6.75 -4.65 -6.5 -6.0 -6.65 -6.0 -6.55 -7.2 -5.9 -10.1 -4.85 -13.9 -4.55 -15.0 -5.0 -12.85 -5.4 -10.65 -5.6 -9.35 -5.3 -10.35 -5.2 -10.65 -4.7 -12.0 -4.15 -13.65 0.65 -23.75 1.25 -24.6 Q2.6 -26.8 4.1 -28.45 6.75 -31.45 9.8 -33.0 13.15 -34.7 16.0 -34.6 L16.15 -34.65 19.15 -34.55 19.65 -34.25 22.15 -32.65 23.95 -30.8 23.95 -30.95 25.75 -32.55 28.35 -34.0 28.85 -34.25" fill="#000000" fill-opacity="0.5019608" fill-rule="evenodd" stroke="none"/>
      <path d="M4.1 -23.8 L5.0 -24.2 Q3.45 -22.5 0.8 -16.85 L-0.95 -12.85 -1.85 -10.65 -2.55 -8.7 -2.9 -7.4 -3.7 -4.0 -3.85 -3.05 -3.7 -3.55 -4.05 -1.9 -4.35 -2.2 -4.45 -2.35 -5.0 -3.05 -5.25 -3.05 -5.45 -3.65 -5.45 -4.05 -5.4 -4.25 -5.3 -5.55 Q-5.0 -7.8 -3.95 -10.65 L-3.05 -12.85 -2.25 -14.65 Q0.4 -20.0 3.25 -23.15 L4.1 -23.8" fill="url(#gradient0)" fill-rule="evenodd" stroke="none"/>
      <path d="M42.3 -23.0 L43.2 -22.55 44.0 -21.85 Q46.65 -18.55 48.9 -13.05 L49.0 -12.85 49.1 -12.55 49.65 -11.15 50.1 -9.85 Q51.0 -7.05 51.25 -4.8 L51.3 -4.65 51.3 -4.45 51.35 -3.75 51.45 -2.45 51.4 -2.25 51.4 -1.85 51.2 -1.25 50.95 -1.3 50.3 -0.6 50.2 -0.45 49.9 -0.2 49.65 -1.85 49.8 -1.35 49.65 -2.3 49.15 -5.75 48.8 -7.05 47.8 -10.65 47.05 -12.85 46.95 -13.05 46.2 -15.05 46.05 -15.4 Q43.7 -21.25 42.3 -23.0" fill="url(#gradient1)" fill-rule="evenodd" stroke="none"/>
      <path d="M24.15 -38.6 L26.75 -39.15 Q29.05 -39.65 33.6 -38.35 37.5 -37.35 42.65 -32.65 47.7 -28.0 49.45 -23.45 51.25 -20.05 51.85 -18.2 L52.0 -17.6 Q53.5 -12.45 53.15 -5.55 L53.1 -5.3 53.1 -4.8 52.9 -4.1 52.8 -4.1 52.7 -5.35 Q52.55 -7.25 51.8 -10.65 L51.3 -12.85 51.2 -13.25 51.25 -13.0 51.25 -12.85 51.6 -10.65 51.95 -7.55 51.8 -8.05 51.1 -10.65 50.45 -12.85 Q48.75 -18.25 46.6 -22.3 45.15 -25.1 43.5 -27.2 41.05 -30.35 38.1 -32.1 34.85 -34.0 32.0 -34.1 L31.85 -34.15 28.85 -34.25 28.35 -34.0 25.75 -32.55 23.95 -30.95 24.1 -36.65 24.15 -38.6" fill="url(#gradient2)" fill-rule="evenodd" stroke="none"/>
      <path d="M23.95 -30.95 L23.95 -30.8 22.15 -32.65 19.65 -34.25 19.15 -34.55 16.15 -34.65 16.0 -34.6 Q13.15 -34.7 9.8 -33.0 6.75 -31.45 4.1 -28.45 2.6 -26.8 1.25 -24.6 L0.65 -23.75 -4.15 -13.65 -4.7 -12.0 -5.2 -10.65 -5.3 -10.35 -5.6 -9.35 -5.4 -10.65 -5.0 -12.85 -4.55 -15.0 -4.85 -13.9 -5.9 -10.1 -6.55 -7.2 -6.65 -6.0 -6.75 -6.0 -6.95 -6.7 -6.95 -7.2 -6.9 -7.45 Q-6.85 -14.35 -5.05 -19.4 L-4.8 -20.0 Q-4.15 -21.7 -2.3 -24.75 L-2.1 -25.1 Q-0.05 -29.5 5.35 -33.85 10.7 -38.2 14.7 -38.95 L21.55 -39.3 24.15 -38.6 24.1 -36.65 23.95 -30.95" fill="url(#gradient3)" fill-rule="evenodd" stroke="none"/>
      <path d="M4.45 46.05 L4.3 45.45 Q3.95 39.15 -4.2 31.4 -7.35 28.4 -10.55 26.05 -11.65 25.2 -12.8 24.5 L-13.35 24.6 Q-16.2 18.1 -11.65 6.85 -9.75 2.2 -7.4 -1.5 L-9.0 -3.5 -8.3 -4.15 -7.8 -3.15 -7.15 -1.95 -6.6 -1.25 -5.65 -0.3 -4.75 0.2 -4.35 0.35 Q-5.65 2.45 -5.95 6.9 -6.55 15.1 -2.45 26.3 L-2.05 27.25 -1.0 30.4 -0.75 30.75 Q2.5 35.55 3.85 41.05 4.65 44.1 4.6 46.85 L4.45 46.05 M51.75 19.75 L51.95 13.85 51.8 11.3 50.15 20.6 Q48.15 30.2 46.55 31.5 50.8 28.8 51.75 19.75 M51.75 2.3 Q53.05 6.3 53.75 11.15 55.05 20.2 52.5 25.45 L52.75 25.1 Q55.25 21.9 55.8 20.0 L55.9 21.6 Q55.9 24.0 55.0 25.3 59.5 19.3 55.85 9.9 54.15 5.65 51.75 2.3 M53.95 -2.2 L54.65 -1.45 52.95 0.4 Q55.0 4.25 56.6 9.0 60.45 20.55 57.2 26.85 L56.65 26.7 Q52.2 29.3 47.65 33.05 39.05 40.25 38.3 46.5 L38.15 47.1 37.9 48.3 Q38.0 45.45 39.05 42.15 40.8 36.75 44.3 32.2 L44.55 31.85 45.8 28.8 Q51.0 17.3 51.0 8.7 50.9 4.25 49.8 2.05 L50.2 1.95 51.1 1.5 52.0 0.75 52.7 -0.05 53.45 -1.2 53.95 -2.2 M-7.3 12.0 Q-7.55 15.1 -7.4 17.9 -7.25 23.0 -5.85 26.2 -4.75 28.65 -3.0 29.95 -3.8 29.2 -4.55 26.25 L-5.9 18.85 -6.95 9.45 -7.3 12.0 M-7.15 1.55 Q-9.25 4.3 -10.9 7.8 -15.15 16.95 -11.05 23.2 -11.85 21.85 -11.65 19.45 L-11.45 17.85 Q-11.1 19.8 -8.8 23.15 L-8.55 23.5 Q-10.8 18.15 -8.9 9.2 L-7.7 4.35 -6.3 0.45 -7.15 1.55" fill="#000000" fill-opacity="0.3019608" fill-rule="evenodd" stroke="none"/>
      <path d="M55.85 9.9 Q59.5 19.3 55.0 25.3 55.9 24.0 55.9 21.6 L55.8 20.0 Q55.25 21.9 52.75 25.1 L52.5 25.45 Q55.05 20.2 53.75 11.15 53.05 6.3 51.75 2.3 54.15 5.65 55.85 9.9 M-7.15 1.55 L-6.3 0.45 -7.7 4.35 -8.9 9.2 Q-10.8 18.15 -8.55 23.5 L-8.8 23.15 Q-11.1 19.8 -11.45 17.85 L-11.65 19.45 Q-11.85 21.85 -11.05 23.2 -15.15 16.95 -10.9 7.8 -9.25 4.3 -7.15 1.55 M48.55 34.1 L47.8 35.85 Q46.8 38.8 46.5 41.55 45.5 50.15 51.4 54.75 50.3 54.15 49.0 52.85 46.0 49.85 45.0 44.75 L44.65 45.7 Q44.3 46.95 44.45 48.05 41.8 42.25 45.0 37.5 46.6 35.2 48.55 34.1 M56.4 3.1 L55.45 1.35 Q58.7 4.45 61.7 9.3 66.5 17.1 67.3 25.05 67.2 28.2 66.05 31.05 62.65 39.45 50.35 44.4 L49.8 45.35 Q49.35 44.05 49.4 42.45 49.45 40.7 50.15 38.55 L51.35 38.35 Q54.25 37.55 56.35 35.5 L55.3 37.6 53.6 40.45 Q65.55 33.8 61.6 17.25 60.35 11.7 57.95 6.55 L56.95 4.3 Q64.45 15.65 65.0 24.75 65.2 27.9 64.45 30.45 L63.7 32.3 Q69.15 24.3 62.7 12.15 60.65 8.35 57.65 4.6 L56.4 3.1 M-12.8 4.3 Q-15.5 9.3 -17.15 14.75 -19.05 20.95 -18.55 25.8 -17.75 33.85 -10.55 38.4 -11.35 37.3 -12.15 35.45 L-13.0 33.3 Q-11.1 35.5 -8.2 36.5 L-7.0 36.75 Q-6.5 38.95 -6.55 40.7 -6.6 42.3 -7.15 43.55 L-7.6 42.55 Q-19.6 36.85 -22.4 28.25 -23.35 25.35 -23.25 22.2 -22.45 17.2 -20.05 12.4 -18.65 9.6 -16.75 6.85 -13.45 2.2 -10.0 -0.7 L-11.05 0.95 -12.4 2.35 Q-15.6 5.95 -17.85 9.6 L-20.1 13.8 Q-24.2 22.8 -20.15 29.6 L-20.8 27.75 Q-21.35 25.15 -20.95 22.0 L-20.25 18.35 Q-18.25 10.85 -11.7 2.15 L-12.8 4.3 M-5.2 32.4 Q-3.25 33.65 -1.85 36.05 1.05 40.95 -1.9 46.6 -1.75 45.5 -2.0 44.25 L-2.25 43.25 Q-3.65 48.3 -6.75 51.1 L-9.35 52.8 Q-3.15 48.6 -3.55 40.0 -3.75 37.2 -4.55 34.2 L-5.2 32.4" fill="#ffffff" fill-opacity="0.3019608" fill-rule="evenodd" stroke="none"/>
      <path d="M55.2 -0.9 L58.35 2.95 Q63.3 9.45 65.55 15.65 67.4 20.65 67.3 25.05 66.5 17.1 61.7 9.3 58.7 4.45 55.45 1.35 L54.55 0.55 55.55 2.05 55.05 1.55 56.0 2.9 57.95 6.55 Q59.4 10.35 60.15 14.55 62.9 29.55 51.2 35.9 L52.25 33.9 Q54.45 29.95 57.15 26.9 L57.2 26.85 Q60.45 20.55 56.6 9.0 55.0 4.25 52.95 0.4 L54.65 -1.45 55.2 -0.9 M-10.0 -0.7 Q-13.45 2.2 -16.75 6.85 -18.65 9.6 -20.05 12.4 -22.45 17.2 -23.25 22.2 -23.15 17.8 -21.0 12.9 L-20.0 10.9 Q-17.45 5.85 -13.0 0.7 L-9.55 -2.95 -9.0 -3.5 -7.4 -1.5 Q-9.75 2.2 -11.65 6.85 -16.2 18.1 -13.35 24.6 L-13.3 24.65 -12.3 26.0 Q-10.4 28.7 -8.8 31.95 L-7.95 34.05 Q-13.1 30.8 -15.1 25.9 -17.5 20.15 -15.5 12.15 -14.45 8.0 -12.8 4.3 L-10.65 0.8 -9.6 -0.5 -10.1 0.0 -9.0 -1.45 -10.0 -0.7" fill="#ffffff" fill-opacity="0.14901961" fill-rule="evenodd" stroke="none"/>
      <path d="M50.25 -1.05 L51.2 -1.85 52.65 -3.25 52.8 -3.35 52.65 -4.75 52.8 -4.7 52.9 -4.7 53.0 -4.75 53.1 -4.75 53.9 -4.5 54.15 -4.25 Q54.55 -3.6 53.95 -2.2 L53.45 -1.2 52.7 -0.05 52.0 0.75 51.1 1.5 50.2 1.95 49.8 2.05 49.3 2.05 48.05 2.05 Q47.35 2.0 47.35 1.15 L47.45 0.75 48.75 0.15 48.9 0.2 49.05 0.0 49.45 -0.4 50.25 -1.05 M-8.3 -6.2 L-8.05 -6.45 -7.25 -6.65 -7.15 -6.65 -7.05 -6.6 -6.8 -6.6 -6.2 -5.7 -6.15 -5.55 -5.85 -5.25 -5.7 -5.05 -3.4 -2.75 -2.7 -2.05 -2.15 -1.4 -1.9 -0.8 -1.9 -0.4 Q-1.9 0.45 -2.6 0.45 L-3.85 0.4 -4.35 0.35 -4.75 0.2 -5.65 -0.3 -6.6 -1.25 -7.15 -1.95 -7.8 -3.15 -8.3 -4.15 Q-8.8 -5.6 -8.3 -6.2" fill="#15e7a7" fill-rule="evenodd" stroke="none"/>
      <path d="M54.15 -4.25 Q54.55 -3.6 53.95 -2.2 L53.45 -1.2 52.7 -0.05 52.0 0.75 51.1 1.5 50.2 1.95 49.8 2.05 49.3 2.05 48.05 2.05 Q47.35 2.0 47.35 1.15 L47.45 0.75 48.75 0.15 48.9 0.2 49.05 0.0 50.6 -0.75 51.75 -1.5 Q53.6 -2.9 54.15 -4.25 M-8.3 -4.15 Q-8.8 -5.6 -8.3 -6.2 -7.85 -4.9 -6.2 -3.45 L-4.95 -2.5 -1.9 -0.8 -1.9 -0.4 Q-1.9 0.45 -2.6 0.45 L-3.85 0.4 -4.35 0.35 -4.75 0.2 -5.65 -0.3 -6.6 -1.25 -7.15 -1.95 -7.8 -3.15 -8.3 -4.15" fill="#000000" fill-opacity="0.4" fill-rule="evenodd" stroke="none"/>
    </g>
    <radialGradient cx="0" cy="0" gradientTransform="matrix(0.0157, 0.0, 0.0, 0.0157, -0.2, -13.05)" gradientUnits="userSpaceOnUse" id="gradient0" r="819.2" spreadMethod="pad">
      <stop offset="0.0" stop-color="#000000" stop-opacity="0.3019608"/>
      <stop offset="0.00392156862745098" stop-color="#000000" stop-opacity="0.4"/>
      <stop offset="0.6509803921568628" stop-color="#000000" stop-opacity="0.101960786"/>
      <stop offset="0.8235294117647058" stop-color="#000000" stop-opacity="0.2"/>
      <stop offset="1.0" stop-color="#000000" stop-opacity="0.2"/>
    </radialGradient>
    <radialGradient cx="0" cy="0" gradientTransform="matrix(0.0153, 0.0, 0.0, 0.0153, 46.9, -11.6)" gradientUnits="userSpaceOnUse" id="gradient1" r="819.2" spreadMethod="pad">
      <stop offset="0.0" stop-color="#000000" stop-opacity="0.3019608"/>
      <stop offset="0.00392156862745098" stop-color="#000000" stop-opacity="0.4"/>
      <stop offset="0.6509803921568628" stop-color="#000000" stop-opacity="0.101960786"/>
      <stop offset="0.8235294117647058" stop-color="#000000" stop-opacity="0.2"/>
      <stop offset="1.0" stop-color="#000000" stop-opacity="0.2"/>
    </radialGradient>
    <radialGradient cx="0" cy="0" gradientTransform="matrix(0.0421, 0.0013, -0.0013, 0.0421, 23.75, -35.4)" gradientUnits="userSpaceOnUse" id="gradient2" r="819.2" spreadMethod="pad">
      <stop offset="0.0" stop-color="#000000" stop-opacity="0.3019608"/>
      <stop offset="0.00392156862745098" stop-color="#000000" stop-opacity="0.4"/>
      <stop offset="0.6509803921568628" stop-color="#ffffff" stop-opacity="0.09803922"/>
      <stop offset="0.8235294117647058" stop-color="#000000" stop-opacity="0.2"/>
      <stop offset="1.0" stop-color="#000000" stop-opacity="0.2"/>
    </radialGradient>
    <radialGradient cx="0" cy="0" gradientTransform="matrix(-0.0421, -0.0013, -0.0013, 0.0421, 24.35, -35.4)" gradientUnits="userSpaceOnUse" id="gradient3" r="819.2" spreadMethod="pad">
      <stop offset="0.0" stop-color="#000000" stop-opacity="0.3019608"/>
      <stop offset="0.00392156862745098" stop-color="#000000" stop-opacity="0.4"/>
      <stop offset="0.6509803921568628" stop-color="#ffffff" stop-opacity="0.09803922"/>
      <stop offset="0.8235294117647058" stop-color="#000000" stop-opacity="0.2"/>
      <stop offset="1.0" stop-color="#000000" stop-opacity="0.2"/>
    </radialGradient>
  </defs>
</svg>
