<svg xmlns="http://www.w3.org/2000/svg" xmlns:ffdec="https://www.free-decompiler.com/flash" xmlns:xlink="http://www.w3.org/1999/xlink" ffdec:objectType="frame" width="52.5" height="54.45"><g transform="translate(-.2 11.55)"><use ffdec:characterId="6" xlink:href="#a" width="52.5" height="42.25" transform="translate(.2 .65)"/><clipPath id="b"><path fill="#36627d" fill-rule="evenodd" d="m45.7 8.65 2.45 3.5 1.35 2.75.75.95.7 1.45.1.35.3.35q1.05 0 1.3 2.15.15 1.5-.4 2.85.4 2.6-.75 4.45l-.05.1-.9 1.1-1.5 1.55v-.15l-.45.3.2 2.8q0 2.9-.6 4.5l-1.55 3q-.95 1.35-2.1 1.85l-1.35.4-.2-.15q1.75-.4 2.8-3.2 1.1-2.8.85-5.9l-.45-3.45-.65-2-.05-.1q.5 1.2-.05 2.4-.2 1.3-1.5 2.05h-.05l-.6.1-.2-.2q1.3.15 1.15-1.85-.2-2.05-1.2-3.65l-.45-.8-.5-.25q-3.45-1.55-7.95-4.4t-7.65-7.75Q22.7 20 15.45 23.3L9.7 26l-.3.5-.85 1.55Q7.8 29.2 7.7 31.1q-.1.95.1 1.4l.2.6q-.75-.4-1.3-2.2l-.1-.55-.4 3.3q-.25 3.1.85 5.9 1 2.8 2.75 3.2l-.2.15-1.35-.4q-1.1-.5-2.05-1.85-1-1.45-1.55-3-.65-1.6-.65-4.5l.3-3.25h-.2l-1-.65q-1.3-1.1-1.8-2.65-.6-1.55-.5-2.7-1.15-1.75-.15-4.1l.2-.45Q.9 17.5 2.7 15.8l.55-.5q1.7-6.95 7.65-10.75l1.6-.95Q17.95.85 25.9.65 30.75.55 35 1.7q6.1 1.65 9.55 5.65z"/></clipPath><g clip-path="url(#b)"><use ffdec:characterId="8" xlink:href="#c" width="50.75" height="42" transform="translate(1.2 -11.55)"/></g><use ffdec:characterId="9" xlink:href="#d" width="51.05" height="40.15" transform="translate(.65 2.5)"/></g><defs><path id="a" fill="#c0c093" fill-rule="evenodd" d="m45.7 8.65 2.45 3.5 1.35 2.75.75.95.7 1.45.1.35.3.35q1.05 0 1.3 2.15.15 1.5-.4 2.85.4 2.6-.75 4.45l-.05.1-.85 1.1-1.5 1.55v-.15l-.5.3.2 2.8q0 2.9-.6 4.5l-1.55 3q-.95 1.35-2.1 1.85l-1.3.4-.25-.15q1.8-.4 2.8-3.2 1.1-2.8.85-5.9l-.4-3.45-.7-2-.05-.1q.5 1.2-.05 2.4-.2 1.3-1.5 2.05h-.05l-.55.1-.25-.2q1.3.15 1.15-1.85-.2-2.05-1.2-3.65l-.45-.8-.5-.25q-3.45-1.55-7.95-4.4t-7.65-7.75Q22.7 20 15.45 23.3L9.75 26l-.35.5-.85 1.55Q7.8 29.2 7.7 31.1q-.1.95.1 1.4l.2.6q-.75-.4-1.3-2.2l-.1-.55-.4 3.3q-.25 3.1.85 5.9 1 2.8 2.8 3.2l-.25.15-1.3-.4q-1.15-.5-2.1-1.85-1-1.45-1.55-3-.6-1.6-.6-4.5l.25-3.25h-.2l-1-.65q-1.3-1.1-1.8-2.65-.6-1.55-.5-2.7-1.1-1.75-.15-4.1l.2-.45Q.9 17.5 2.7 15.8l.55-.5q1.7-6.95 7.65-10.75l1.6-.95Q17.95.85 25.95.65 30.75.55 35 1.7q6.1 1.65 9.55 5.65z" transform="translate(-.2 -.65)"/><path id="c" fill="url(#e)" fill-rule="evenodd" d="M26.6-11.55q10.5 0 18 6.1 4.15 3.45 5.95 7.8 1.4 3.2 1.4 7.1 0 8.65-7.35 14.8l-1.75 1.35q-6.95 4.85-16.25 4.85-10.5 0-17.9-6.2-7.5-6.15-7.5-14.8Q1.2.7 8.7-5.45l2.9-2.05q6.45-4.05 15-4.05" transform="translate(-1.2 11.55)"/><radialGradient id="e" cx="0" cy="0" r="819.2" gradientTransform="matrix(.0318 0 0 .0264 26.6 9.45)" gradientUnits="userSpaceOnUse" spreadMethod="pad"><stop offset=".263" stop-color="#f9f9f5" stop-opacity=".298"/><stop offset="1" stop-color="#f9f9f5" stop-opacity="0"/></radialGradient><g id="d" fill-rule="evenodd"><path fill="#939351" fill-opacity=".498" d="M43.7 5.9q2.25 1.9 1.55 1.65l-.35-.25q-1.4-.95-1.7-.45l-.7-.4Q40.1 4.9 39.6 4.9l-.2.1-.25.1-2.1-.95Q35.1 3.2 34.9 3.2l-.6.4-1.85-.85q-1.8-.9-2.65-.9t-1.05.3l-.8.25-1.15-.2-2.1-.25q-.8 0-1.25.45-.35.4-.75.4l-1.65-.25q-1.25 0-3.4 1.15l-1.05.5-1.85-.05-1 .7-.5.65-.35.05-.05.45-.6.2-1.15-.25q-1.45 0-2.75 1.25l-.9.8.05.1-.05.2 1.2.45.2.1Q9.9 7.9 11.9 7.5l1.65-.25-.2-.1q-.25 0-.05-.65l.7-.4 2.9-.7h1.8l.4-.15-1.6-1.05 6.9.2-.1-.1q-.4-.2-.2-.8l.75-.3q2.45.3 4.7 1.1l-.5-1.1q2.15-.35 3.95.9 1.3.9 1.25.7l-.3-.9.65.15 1.95 1.15q1.4.85 1.7 2.3l-.55-.35-1.7.25h-.9L34 8q-1 .55-1.2 1.35.15.65.95.65l1-.4 3.5-1.15.05-.85.25-.2q.2-.55.45-.4-.4-.9.05-1.7h.2l2.4 1.75Q43.1 8.5 43 10.35l.65.15.25-.2q.55-.55.1-1.05-.25-.6-.05-1.15l.65.65q1.05.95 1.3 2.3.2 1.65-.15 1.6l-.35-.85-3.25-.2q-1.45.2-1.35 1.4l.85.3.4.3 4.95-.55.05-1.75.6.6q.8.9 1 2.2.2 1.35-.2 2.6l.35.15.35.1q-.1 1.1-.85 1.35l-.45-.25-.2.2q-.95-.15-1.2.65l.15.3q1.1 1.4 2.75 2.15l1.4.6-1.25.45v.05l-.2.1.15.5-.05.2-.05 1.6-1.5 2.5-1.45-1.3.2 2.1.25 4.7q-.05 1.65-1.1 4.15-.8 1.8-1.4 2.5l-.5.4-.85.15v-.25l.35-.3.65-.65q1.15-1.15 1.55-3.35l.45-4.15q0-2.1-.8-4.5l-.35-1.05-.95-1.4-.45-.15.4.9.45 2.6-.15 1.1-.5.6v-.05q0-2.35-.35-3.35l-.5-.85v-.05q1.15-.7-1.95-2.1L35.9 20.5l-3.8-2.45-2.5-2.1-.85-.9-.8-1-2.1-2.55-.05.25L23.1 15q-1.85 2.05-4.4 3.5l-6.8 3.4q-3.7 1.95-3.7 3.2l.05.1-.2.05q-.55.95-.7 1.8-.3 1.25-.25 1.9v1l.05.4q-.55-.85-.5-2.5 0-1.85 1.25-3.65l-1.2.65-.45.7-.4 2.05-.4 4.15q.15 3.75 1 5.55.45 1.4 1.15 2.2l.75.65-.5-.15-.6-.5-.9-.9q-.75-.85-1.25-2.5-.55-1.6-.55-4.95 0-1.85.4-3.9.2-1.35.5-2.1l-1.2.9-.45.9-.15.35-.3-.1q-.15.35-.85-1.1-.8-1.45-.85-3.05l-.1-2.15-.25.05-1 .5-.3-.7q.15-.9 1.05-1.75l.45-.35.05-1.05q-.5-.1-.9-.4l-.35-.25.15-.7 1.15-.35.7-.4q.55-1.05 1.5-1.85l-.2-.1-1-.45-.1-.2.35-.45-.25.2 1.1-1.6Q5.5 8.2 6 7.7q2-1.95 6.1-4.45L15.6 2 19.4.8h.1l2.2-.35h.2V.4l4.25-.4q5.65.3 12.6 2.8l1.75.75q.95.45 3.2 2.35m-2.05 3.35-.25-.1-1.65.1-.65-.1-2.05 1q-1.05.25-.9.95 1.1.7 2.45.25l3.7-1zm4.8 5q-1.8-.4-2.9.9.75 1.2 2.05 1.8l1.95.35.45-.15q.2-.4 0-.85l-.15-.35-1.1-.85q.15-.65-.3-.85m2.5 13.05h-.05l.05-.05zm-1.25-1.05.2.4v-.15l.15.25v-.1l-.15-.2.2-.35-.1-.55-.4-1.05-.4-1.05q-.7-1.55-1.55-1.95-1.9-2.85-8.55-6.35-9.4-4.9-9.4-2.6l.6.9.6.65.9.85 1.95 1.75q1.4 1.2 5.7 4 2.25 1.5 4.85 2.55l-2.25-2.1q-1.85-1.9-4.65-3.95-2.75-2.05-6.05-3.95l3.8 1.5 2.75 1.35q1.4.75 3.15 2.05l3.6 3 3.15 2.9zM32.9 6.4l-.25-.4-.95.15h-1.9L27.9 8.4l-.1.3.1.2q.25.35.75.3l5.55-2.45zm-12.1.55q-.65.5-1.1 1.25l-.65 1.05-.1.5.25.2.45.05h.4l.9-.7q1.15-1.85 2.9-3.45l-1.75.3zm-.35-.65.2-.25-.4-.05-.6.15q-.6.05-4.25 2.4l-.7 1.65q1.05 1.1 2.3-.3l2.05-2.35zm2 2.7q.05.55.65.5h.3l1.4-.85 3.85-2.8-1.8-.1-1.95.3-.45.4q-.95.8-1.35 1.45zm-8.2.15q0-1.25-1.6.25-.8.35-1.45 1.15l-.05.75q-.2.2-.05.4l-.1.4.2 1.05q.25.65.75.8h.25q1.1 0 1.2-1v-1.3zm10.25 2.9q-1.25-.2-4.45 1l-2.7 1.2-.05.05-.7.4q-1.4.7-2.1 1.1l-.95.55q-.3.15-.5.35v.05l-.65.4-1.6 1.25-1 .85-2.9 2.7q-2 1.85-2.9 3.7l.2-.2q.9-.8 1.95-1.3l.7-.3v-.05q1.35-1.8 3-3.3 1.6-1.55 4.9-3.8t6.9-3.4l-7.9 6.15-1.7 1.75 1.5-.85q2.05-1.1 4.1-2.4 3.5-2.2 5.75-4.45zM26 13.1l-.05-.1.05-.1zM7.05 8.7l-.95.65-1.7 1.1-.95 1.25-.15.2 1.25.4.2.05.3-.35q1.7-1.65 4.25-2.1l-.55-.4zM5.6 17.6v-.2l.05-.05zm1.15-3.75q0-.8-.95.3-.9 1.05-1 1.8l-.2.4q-.2-.2-.75.75-.9 1.35-.9 2.7v.55q.1.4.5.45h.35l.1-.15q.75-.3.75-2.2v-.4l.15.15.1.25.4.35.4.05q.7 0 .7-.4l.15-.65v-.45L6.5 15.2zm2.55-2.3-.9.9-.8.65-.15.4v1.1l-.15.2.4.65q.55.65 1.1.65.4 0 .75-1l.05-.1.3-1.15.7-3.05q-.15.05-.45.25-.25-.05-.85.5"/><path fill="#95954f" fill-opacity=".8" d="m42.9 6.4 1.25.1q2.1 1.3 3.05 3.55l.25.8q.4 1.2.15 2.3-.3.3-.35.7l-.2.3.05.1q.6.05 1 .9l.45 1.35.15.15.4.45h.05q.5 0 1.1-.9l.3-.5.05.95-.5.85-.75.55.1.15 1.1 1.25q.55.65.5 1.55l-.15.8q-.45.4-1.3.7-1.3.4-1.3 1.05l.2 1.6-.5 1.8v-.9l-.05-.7q-.5-2.15-2.35-3.8-1-1-1.05-2.45l-.05-.05q-1.4-.25-2.4-1.6-.7-.75-.75-1.35l-.1-.85q-1.15-.25-2.35-1.2-.95-.75-1.2-1.1l-1.9.15q-1.85 0-1.95-.8-.05-.5-1-.25l-.8-.15-.8-.15h-.2l.1-.05-.5-.4v-.25l-1.3.15-.35.05h-1.25l-1.25-.75q-2.75 1.4-4 .75l-.6.6q-1.1.95-2.35.95l-1.1-.25-.2.15-1.95 1.1h-.4q-.25 1.95-3.65 2.05-1.15 1.75-3.1 2.25H8.5q-.95 2.6-2.6 3.25L4.7 23.1q-.5.75-1.4.75-.35 1.5.25 3.45l-.6-1.05-.1-.25q-.5-1.7-.5-2.3l-.1-1.35q.3-1.3.05-1.5l-.1-.15q-.2-.5-1.1 0l-.7.45.2-.35.75-1.15q.7-.75.8-2L1 17.35.25 17q2.35-.25 4.25-1.35 0-1.45 1.25-2.3-1.95.1-3.15-.8.75-1.25 1.85-2.35 1.2-1.25 2.75-1.75l.4-.6 1.15-1.2q1.6-1.1 3.75-.8l.8-.9q1.4-1.1 3.6-.9l1.4-1.15 4.35-.2q.35-.3.8-.45 2.15-.95 4.3 0 .3-.3.9-.4l2.95.1 2.05.95q2.5-.4 4.4 1.2l.75.45 1.95.1q1.35.55 2.15 1.75M40 4.8l-.9.05L39 5l.25.35.3 1-.35 1q-.2.25-.25.45l-.05.1v.05l-.05.1.05.1q.45-.15 1.7.45 1.9.9 2.05 1.8l.55.1q.55 0 .65-.35v-.5l.1-.25q-.3-1.9-1.85-3.15-1-.85-2.1-1.45m3.35 2-.05.3.4.6.6 1.1.2 1 .1 1.2q1.35 1 1.85 2.55.8-1.35.45-2.95-.3-1.5-1.5-2.55zm2.55 6.9q.2-1.45-1.45-2.05t-2.95 0q-1.35.6-1.4.95l-.15.5.8.75 1.3.55 3.25-.5zm-4.2-2.9.2-.6q0-1.55-3.35-.55l-1.8.65q-2 .8-2 1.45 0 .35.7.65h.25l1.4.2h.6l.15-.05q1.6-.15 2.85-.9l.85-.65zm2.05 6.8.7.4.7.15 1.7-.15.65-.45.1-.2.1-.15.1-.15v-.3q0-1.9-2.75-2.2t-2.75 1.3q0 .5.75 1.25l.1.1zm1.8 1.25-.15.55.45 1.35q.35.65.95.95l.05.05q.65.45 1.9.45 2.15 0 2.05-1.3 0-1.75-2.65-2.4-1.95-.45-2.4.35zM34.3 5.6l.05-.25.05-.3q-.7-1.75-2.75-2.6-1.55-.6-3.15 0v.15l1 1.35q.55.65.7 1.25.35.4 1 .35l2.3.2.45.25zm-1.2.7q-3.25-.25-5.45 2.25l-.65 1 .7.45 1.75-.05q1.15-.2 2.2-.8l1.4-.9q.95-.35.85-1.3l-.05-.25q-.2-.4-.75-.4m-.75 3.45-.45.45.05.65.45.25.5.2q1.05.15 2-.4l2.9-1.7.55-.75q0-.6-.95-.9l-.55-.25q-2 .1-3.4 1.4zm3.3-2.9h.65q1.15 0 2.05.9l.35-.55.05-.05q.3-1.6-1.15-2.6-1.6-1.1-3.45-1.35 1.7 1.35 1.5 3.65M28 2.8q-1.75-1-3.7-.7-.95.05-1 .85l1.35 1.35.9.85 3.9.3V4.9l.05-.2.05-.3q-.2-.75-.8-1.2zm-7.45-.1-2.15.45q-.45.15-.8.5-.25.65.1.7l2.55 1.1 3.35-.15.5.15.15-.4-.15-.8-.6-.7q-1.1-1-2.95-.85m2.6 3.3q-1.6.2-2.7 1.3-1.05 1.05-1.25 2.15-.25 1.05.05 2 .35.9 1.25.35.95-.5 1.2-1.4l.5-1.25.05.55.25.3 2.85-.1q1.1-.2 1.9-1.15l1.7-2.15q-.3-.4-.65-.5l-1.65-.45q-2.1.35-3.6 2.25l-.55.75q.75-.95 1.2-2.3l-.1-.2zm-3.5.3q-2 .6-3.5 2-1 1-1.05 2.45V11l.05.75.25.35q.7 1 1.65.4l1.2-1.4.6-1.55q.2-.65.75-1.35l.75-1.45q-.1-.7-.7-.45M13 6.3q.4.85 1.6 1.25l1.8-.15 2.2-1.25q.35-.3.3-.65-.3-.6-1.7-1l-2.55-.05q-1.15.3-1.45.95-.35.6-.2.9m.45 1.8q0-.7-1.1-1.45-1.15-.75-2.6-.2-1.5.55-1.9 1.4-.5.8.25.95.6.5 2 .5 2.1.3 3.35-1.2m.35.7q-2 .8-2.45 1.85t-.25 2.05q.2.95 1.35 1.6l.55.2.25-.05q1-.1 1.4-.55l.3-.7.15-.1-.15-.75q-.35-1.15-.25-2.25.1-1.15.8-1.7zm-8.55 1q-1.25.95-2 2.3l1.35.4q2.25.4 3.9-1.1l.55-.55.65-.6Q9.05 9.1 7.3 9q-.8-.1-2.05.8m2.45 6.15q.3.75 1.15 1.1.8.2 1.5-.2l.75-.9-.05-1.3-.4-1.15q-.3-1.05-.1-2l.3-.75q-1.8.55-2.7 1.95-.65.95-.75 2.1zm-2.05-1.8q-1.05 1.65-.95 3.6.1 1.3 1.3 1.8l.95-.05.7-.65q.35-.75-.05-1.5-.8-1.8-.4-3.65l.15-.65H6.5zm-2.55 7.6.15.05q0 .8.8.45.85-.65.95-1.6.05-1-.35-2.05l-.2-1.1.05-1.2q-1.65 1.3-1.95 3.2-.15 1.25.55 2.25"/></g></defs></svg>