<?xml version="1.0" encoding="UTF-8" standalone="no"?>
<svg xmlns:ffdec="https://www.free-decompiler.com/flash" xmlns:xlink="http://www.w3.org/1999/xlink" ffdec:objectType="frame" height="57.0px" width="62.3px" xmlns="http://www.w3.org/2000/svg">
  <g transform="matrix(1.0, 0.0, 0.0, 1.0, 5.2, 2.4)">
    <use ffdec:characterId="3" height="40.95" transform="matrix(1.0, 0.0, 0.0, 1.0, -4.25, -0.55)" width="59.8" xlink:href="#shape0"/>
    <clipPath id="clipPath0" transform="matrix(1.0, 0.0, 0.0, 1.0, 0.0, 0.0)">
      <path d="M30.75 0.15 Q31.1 0.2 31.55 0.4 32.6 0.85 33.85 1.45 L33.65 1.6 36.7 1.3 Q39.05 1.35 41.75 2.95 L45.25 5.3 46.65 6.4 Q50.3 9.5 52.25 13.95 54.2 18.4 54.95 21.05 L55.55 24.45 55.35 26.05 Q55.2 26.85 54.35 27.8 L53.25 29.0 52.75 32.7 52.65 32.85 52.45 33.3 52.0 32.45 50.65 31.4 49.2 31.0 49.2 32.85 49.1 33.5 48.6 35.1 47.8 37.0 46.45 38.8 Q45.4 40.15 44.2 40.5 45.4 38.75 45.5 36.85 45.55 34.9 44.65 32.2 39.15 31.15 35.2 27.25 32.2 24.3 30.95 20.25 L30.2 17.7 Q29.35 23.35 30.35 28.95 L30.65 30.5 Q29.05 29.1 28.0 26.35 26.95 23.6 26.65 20.5 26.05 23.55 27.5 28.2 28.5 31.45 30.55 34.2 25.15 33.3 22.7 29.95 20.2 26.55 20.25 23.25 19.65 27.95 22.0 31.9 L23.6 34.35 23.6 34.4 Q19.6 32.25 17.65 28.6 15.65 24.85 15.8 20.15 12.25 24.95 11.85 28.0 11.5 30.5 11.85 31.6 11.3 31.05 10.9 29.95 10.45 28.85 10.65 26.1 8.65 30.05 7.6 34.2 6.25 30.75 6.05 27.15 L5.7 30.7 Q5.3 34.2 6.2 37.0 6.9 39.3 7.3 39.8 6.85 39.45 5.25 38.45 2.65 36.7 1.65 33.6 L1.15 31.95 Q0.45 31.9 -0.3 33.3 -0.85 34.95 -0.5 35.85 -3.1 31.85 -0.95 24.0 -2.05 25.3 -2.75 27.55 L-3.75 30.75 -4.05 32.0 Q-4.7 26.35 -3.05 22.1 -1.45 17.8 1.55 13.05 4.55 8.25 8.35 5.25 12.1 2.2 15.4 1.0 18.65 -0.2 23.8 -0.4 L30.75 0.15 M53.1 21.85 L53.3 28.15 Q53.95 25.75 53.45 23.25 L53.1 21.85" fill="#946748" fill-rule="evenodd" stroke="none"/>
    </clipPath>
    <g clip-path="url(#clipPath0)">
      <use ffdec:characterId="5" height="57.0" transform="matrix(1.0, 0.0, 0.0, 1.0, -5.2, -2.4)" width="62.3" xlink:href="#shape2"/>
    </g>
  </g>
  <defs>
    <g id="shape0" transform="matrix(1.0, 0.0, 0.0, 1.0, 4.25, 0.55)">
      <path d="M53.1 21.75 L53.3 28.05 Q53.95 25.65 53.45 23.15 L53.1 21.75 M45.25 5.2 L46.65 6.3 Q50.3 9.4 52.25 13.85 54.2 18.3 54.95 20.95 L55.55 24.35 55.35 25.95 Q55.2 26.75 54.35 27.7 L53.25 28.9 52.75 32.6 52.65 32.75 52.45 33.2 52.0 32.35 50.65 31.3 49.2 30.9 49.2 32.75 49.1 33.4 48.6 35.0 47.8 36.9 46.45 38.7 Q45.4 40.05 44.2 40.4 45.4 38.65 45.5 36.75 45.55 34.8 44.65 32.1 39.15 31.05 35.2 27.15 32.2 24.2 30.95 20.15 L30.2 17.6 Q29.35 23.25 30.35 28.85 L30.65 30.4 Q29.05 29.0 28.0 26.25 26.95 23.5 26.65 20.4 26.05 23.45 27.5 28.1 28.5 31.35 30.55 34.1 25.15 33.2 22.7 29.85 20.2 26.45 20.25 23.15 19.65 27.85 22.0 31.8 L23.6 34.25 23.6 34.3 Q19.6 32.15 17.65 28.5 15.65 24.75 15.8 20.05 12.25 24.85 11.85 27.9 11.5 30.4 11.85 31.5 11.3 30.95 10.9 29.85 10.45 28.75 10.65 26.0 8.65 29.95 7.6 34.1 6.25 30.65 6.05 27.05 L5.7 30.6 Q5.3 34.1 6.2 36.9 6.9 39.2 7.3 39.7 6.85 39.35 5.25 38.35 2.65 36.6 1.65 33.5 L1.15 31.85 Q0.45 31.8 -0.3 33.2 -0.85 34.85 -0.5 35.75 -3.1 31.75 -0.95 23.9 -2.05 25.2 -2.75 27.45 L-3.75 30.65 -4.05 31.9 Q-4.7 26.25 -3.05 22.0 -1.45 17.7 1.55 12.95 4.55 8.15 8.35 5.15 12.1 2.1 15.4 0.9 18.65 -0.3 23.8 -0.5 L30.75 0.05 Q31.1 0.1 31.55 0.3 32.6 0.75 33.85 1.35 L33.65 1.5 36.7 1.2 Q39.05 1.25 41.75 2.85 L45.25 5.2 M24.85 34.15 L24.85 34.1 24.95 34.2 24.85 34.15" fill="#d4bbbb" fill-rule="evenodd" stroke="none"/>
    </g>
    <g id="shape2" transform="matrix(1.0, 0.0, 0.0, 1.0, 5.2, 2.4)">
      <path d="M45.3 10.1 L46.7 11.25 Q47.65 12.0 48.35 13.1 L48.4 13.15 Q49.6 14.55 50.8 18.6 51.8 23.5 51.8 25.7 L51.55 29.3 Q51.1 32.75 50.1 32.75 49.45 32.75 49.15 32.05 L48.95 31.2 49.2 29.65 49.4 26.75 49.2 24.45 48.65 21.2 47.4 17.85 44.7 13.25 45.5 13.85 46.15 14.5 46.95 15.5 47.3 16.0 47.75 16.85 47.8 16.85 48.6 18.65 48.65 18.75 49.05 19.6 49.45 20.45 49.45 20.25 Q49.45 17.2 48.2 14.85 47.9 13.35 44.9 10.5 L43.55 9.35 45.3 10.1 M44.0 18.5 L45.45 20.95 Q46.25 22.3 46.9 24.35 47.55 26.35 47.6 27.3 L47.6 30.25 Q47.6 32.2 47.2 33.75 L46.5 36.25 45.15 38.75 44.85 38.1 44.8 37.15 44.85 35.25 44.4 32.15 42.25 31.55 41.25 31.1 40.95 30.95 40.05 31.1 39.4 30.8 Q38.9 30.7 38.5 30.4 L36.15 28.6 Q33.85 26.35 32.15 23.65 31.2 22.05 30.6 20.2 30.3 19.2 30.3 18.2 L30.5 14.65 30.8 12.65 31.25 10.65 31.4 10.95 32.3 15.45 33.0 18.65 Q33.9 22.25 36.4 25.1 38.55 27.55 41.5 28.95 L43.15 29.7 43.35 28.9 43.4 28.55 Q41.4 27.0 38.65 23.15 37.85 22.05 36.4 19.35 L35.05 16.55 35.1 16.2 35.6 16.75 37.65 18.85 39.45 20.65 Q41.4 22.4 42.2 22.4 L42.55 22.35 42.25 22.1 38.4 18.5 Q34.15 13.6 34.15 12.45 L34.2 12.3 34.4 12.6 35.95 14.45 Q37.95 17.1 39.15 17.85 L42.15 20.8 42.45 21.05 41.5 18.75 39.2 15.1 37.7 13.0 38.2 13.2 Q40.1 14.1 41.75 15.75 L44.0 18.5 M27.15 5.6 Q28.15 5.6 29.8 6.7 31.2 7.6 31.4 8.1 30.1 7.45 27.2 7.5 23.5 7.55 22.45 8.75 L21.95 8.95 21.05 9.4 21.7 8.6 21.6 8.55 20.45 8.35 18.55 8.7 17.6 9.0 17.25 8.95 Q15.0 10.3 13.6 10.85 L13.65 10.8 16.6 6.75 17.65 6.05 18.25 5.75 18.3 5.7 20.5 5.65 Q21.45 5.9 22.6 6.55 23.1 6.3 23.75 6.05 L24.45 5.85 Q22.25 4.3 21.2 4.35 L18.25 4.35 19.2 3.75 Q20.95 2.65 22.7 2.65 24.25 2.65 25.2 4.95 L25.2 5.0 25.1 5.7 26.15 5.75 27.15 5.6 M19.25 12.1 L19.4 12.2 19.2 12.45 17.2 16.4 Q15.85 19.15 15.35 21.5 12.65 26.95 12.65 29.75 L12.95 31.1 Q12.95 31.9 12.2 31.9 11.3 31.9 11.1 30.9 L11.05 29.75 Q11.05 26.15 13.9 20.2 15.8 16.1 18.05 13.35 L19.25 12.1 M20.45 15.75 L20.45 16.15 20.4 16.6 20.15 23.65 20.65 26.55 Q21.05 28.25 21.65 28.95 L23.0 31.0 24.15 32.8 23.95 33.3 24.2 33.9 24.2 34.15 22.1 31.95 Q20.3 30.0 19.35 28.1 18.65 26.1 18.65 24.05 18.65 21.0 20.45 15.75 M22.55 18.55 L22.6 18.5 22.6 18.35 22.55 18.55 M23.1 14.05 Q23.35 13.1 23.75 12.45 L23.8 12.45 23.7 13.55 23.8 14.15 23.7 15.1 24.05 17.25 24.25 18.75 24.45 19.7 25.9 24.8 27.95 30.25 Q28.75 32.0 29.9 33.5 L30.9 34.65 30.8 34.65 Q29.9 34.65 28.65 33.85 L28.25 33.45 Q27.45 33.15 26.6 32.25 25.85 31.8 25.05 30.7 L23.45 28.2 Q23.05 27.3 22.75 26.0 L22.3 23.6 22.1 21.95 22.35 18.85 22.75 15.65 23.1 14.05 M26.8 17.25 L27.1 15.3 28.1 20.85 28.9 23.2 29.8 25.25 30.4 27.4 31.2 31.0 31.3 31.25 Q30.0 30.7 28.95 28.4 L27.85 26.55 Q26.85 24.25 26.75 22.4 L26.75 22.2 26.8 22.1 26.8 17.25 M28.55 9.95 L28.45 10.2 28.35 10.15 28.55 9.9 28.55 9.95 M5.6 16.35 L4.0 19.55 3.05 21.7 2.45 23.65 1.75 26.75 Q1.45 28.6 1.55 30.5 L1.85 33.75 1.8 34.1 2.15 36.25 1.25 36.15 Q0.1 34.5 0.0 32.8 L-0.2 30.15 -0.2 27.85 Q0.05 23.85 2.15 20.4 L4.2 17.1 Q6.6 13.05 9.8 9.95 L10.15 9.65 Q8.4 11.6 7.1 13.85 L5.6 16.35 M1.25 17.15 L1.9 16.25 Q1.25 17.3 0.65 18.85 -0.3 21.3 -0.9 23.9 L-1.05 24.2 -1.45 25.35 -1.7 25.85 -2.9 28.6 -4.05 31.45 -4.15 30.35 Q-4.15 29.15 -3.55 27.0 L-2.55 23.9 -2.1 22.7 Q-0.8 20.1 1.25 17.15 M3.7 14.0 L3.65 14.1 3.35 14.35 3.75 13.85 3.7 14.0 M7.85 19.55 L7.1 22.3 6.6 24.7 Q6.25 26.35 6.25 28.1 6.2 30.0 6.4 31.9 L5.9 32.6 Q6.25 34.35 7.15 36.1 L7.75 37.35 8.3 38.6 8.45 39.1 Q8.65 39.85 9.2 40.4 L8.65 40.6 Q7.0 40.2 6.1 38.7 L5.35 37.45 4.55 35.8 3.95 33.8 3.75 32.75 3.7 31.55 3.85 28.75 Q4.1 25.75 5.85 22.95 L7.85 19.55 M11.0 23.65 Q10.5 25.55 10.35 27.5 L9.95 29.75 Q9.25 30.25 9.05 31.2 8.95 31.9 9.0 32.65 L9.2 35.2 Q7.3 35.7 7.3 31.95 7.3 28.2 8.85 24.6 10.4 21.0 11.15 19.95 L13.1 17.35 13.5 16.85 12.1 20.4 11.0 23.65 M5.0 37.6 L4.75 37.1 5.15 37.95 5.15 38.1 5.0 37.6" fill="#ad8383" fill-opacity="0.8980392" fill-rule="evenodd" stroke="none"/>
      <path d="M-0.7 13.55 Q12.9 19.4 44.1 17.5 18.15 23.95 -3.2 19.1 L-0.7 13.55" fill="#ffffff" fill-opacity="0.69411767" fill-rule="evenodd" stroke="none"/>
      <path d="M57.1 25.8 Q57.1 37.7 47.8 46.15 38.6 54.55 25.5 54.6 12.35 54.65 3.55 47.05 -5.3 39.4 -5.2 28.1 -5.1 16.7 3.85 7.5 12.75 -1.75 25.7 -2.35 38.6 -3.0 47.8 5.4 57.1 13.85 57.1 25.8" fill="url(#gradient0)" fill-rule="evenodd" stroke="none"/>
    </g>
    <radialGradient cx="0" cy="0" gradientTransform="matrix(0.0391, 0.0, 0.0, 0.0356, 25.45, 25.8)" gradientUnits="userSpaceOnUse" id="gradient0" r="819.2" spreadMethod="pad">
      <stop offset="0.47843137254901963" stop-color="#d09191" stop-opacity="0.0"/>
      <stop offset="1.0" stop-color="#d09191" stop-opacity="0.6862745"/>
    </radialGradient>
  </defs>
</svg>
