<svg xmlns="http://www.w3.org/2000/svg" xmlns:ffdec="https://www.free-decompiler.com/flash" xmlns:xlink="http://www.w3.org/1999/xlink" ffdec:objectType="frame" width="57.2" height="55.9"><use ffdec:characterId="3" xlink:href="#a" width="57.2" height="55.9"/><defs><linearGradient id="b" x1="-819.2" x2="819.2" gradientTransform="matrix(0 -.0349 .0341 0 26.3 18.1)" gradientUnits="userSpaceOnUse" spreadMethod="pad"><stop offset="0" stop-color="#101010"/><stop offset="1" stop-color="#464646"/></linearGradient><g id="a" fill-rule="evenodd"><path fill="url(#b)" d="M22.35-9.7q9.95-.8 14.85 3.05t2.25 10.3q5.5-.05 9.85 5.65 3.85 5.05 4.2 14.7.25 8.65 1.4 9.85-3.9-2.6-4.85-5.6-.1 9-5.15 16.05l1.15-13.75q-.85 2.95-2.6 5.75 1.15-12.4-6.2-23.8h-.5q-.7 16-17.5 27.8 6.35-7.5 9.05-17.95-3.15 6.55-9.05 10 3.5-4.8 5.05-9.55-5.95 5.7-11.55 7.5l-.2-.35q-3.35 7.8-2.85 16.1-1.8-3.75-2.25-7.65L6.1 44.45Q3.15 36.05 4.75 28 1.6 31.35-1.3 31.65.05 30.4 2.8 22l.1-.4-.25.3Q-.1 24.6-2.3 24.4q2.1-3.05 3.25-6.45 2.25-7 6.25-11.1 2.9-2.9 6.3-4.65Q17.4.15 21.85-.3q4.45-.5 8.65.7 4.15 1.15 5.15 2.9-.5-4.3-10.7-6.75 9.85-1 12.6 5.3-2.65-7.9-15.2-11.55" transform="translate(2.3 9.85)"/><path fill="#090909" fill-opacity=".694" d="M40.5 9.55q.75 2.75-.7 4.8.95-3.65-3.1-7.75T24.85.15q14.3 2.3 15.65 9.4m8.45 23.6-.8-8.25q5.3 12.35-.95 29.35l1.15-13.85.05-.25q.9-3.4.55-7m2.6-3q-.6-5-2.4-10 2.85 3 4.1 11 .5 9.05 3.3 11.1l.05.05q.25 1 .6 1.4l-1.3-.95q-2.8-2.15-3.55-4.65.05-3.8-.8-7.95M45.9 44.1q.4-11.3-6.35-21.75h-.5q-.65 14.85-15.2 26.1l-2.3 1.7Q30 42.05 33.7 34.6q3.6-7.3 5.1-16.15 4.85 6.6 6.8 12.7 2.15 6.7.25 14.9zm-14.35-21v4.6l-.95 4.5q-2.5 5.2-6.75 8.5l-2.3 1.5 1.6-2.25q6.4-6.3 8.4-16.85m-17.6-2.95q-5.15 3.2-6.9 7.1l-1.9 4.2-.2.3Q3.25 33.4 1.8 34l-1.35.2q2.55-1.95 4.6-6.15l.1-.05q2.05-4.7 5.05-7.45 3-2.8 11.35-4.75-2.95 1.15-7.6 4.35M9.15 32.6q-1.35 2.65-2.1 5.25-2.85 3.05-5.45 3.6Q5.1 37.2 11.55 25zm4.1-.3q-4.4 8.3-3.5 15.95l-1 4.6q-5-17.15 12.8-32.7-4.6 4.85-8.3 12.15m1.6 7.7v-.2q3.7-8.7 12.9-17.25-7.65 10-9.9 16.55zm23.4-25.8q.05-5-10.8-7.8 13.1 1.2 10.8 7.8"/></g></defs></svg>