<?xml version="1.0" encoding="UTF-8" standalone="no"?>
<svg xmlns:ffdec="https://www.free-decompiler.com/flash" xmlns:xlink="http://www.w3.org/1999/xlink" ffdec:objectType="frame" height="86.3px" width="67.95px" xmlns="http://www.w3.org/2000/svg">
  <g transform="matrix(1.0, 0.0, 0.0, 1.0, 10.55, 35.15)">
    <use ffdec:characterId="1" height="86.3" transform="matrix(1.0, 0.0, 0.0, 1.0, -10.55, -35.15)" width="67.95" xlink:href="#shape0"/>
  </g>
  <defs>
    <g id="shape0" transform="matrix(1.0, 0.0, 0.0, 1.0, 10.55, 35.15)">
      <path d="M23.25 23.85 L23.55 23.85 23.9 25.6 25.0 26.3 Q26.2 27.6 26.6 30.4 L20.2 30.6 Q20.6 27.65 21.8 26.35 L22.9 25.6 23.25 23.85 M23.1 -33.65 Q24.6 -35.05 28.2 -34.9 31.85 -34.75 36.05 -32.95 46.4 -28.55 50.8 -18.9 54.9 -10.0 55.55 -0.65 56.1 7.45 54.05 14.1 52.5 19.05 54.4 26.95 55.4 31.15 57.3 37.15 57.95 40.6 53.65 43.0 48.85 45.1 48.05 46.1 46.95 47.55 47.65 48.85 48.45 50.25 51.05 50.55 47.15 51.95 45.4 49.95 43.75 47.95 45.75 44.7 46.3 43.85 49.0 41.5 50.65 40.0 50.25 38.1 49.75 35.95 46.95 32.3 44.15 28.7 42.2 27.65 L41.5 26.45 45.5 14.9 20.75 2.25 -1.25 14.1 6.9 24.85 4.65 27.65 Q2.7 28.75 -0.1 32.3 -2.95 35.95 -3.4 38.1 -3.8 40.0 -2.15 41.5 0.5 43.85 1.05 44.7 3.1 47.95 1.4 49.95 -0.3 51.95 -4.2 50.55 -1.65 50.25 -0.85 48.85 -0.1 47.55 -1.2 46.1 L-6.85 43.0 Q-11.15 40.6 -10.45 37.15 L-7.55 26.95 Q-5.65 19.05 -7.2 14.1 -9.4 7.05 -9.2 0.45 -8.95 -8.1 -4.85 -17.9 -0.65 -27.8 9.8 -32.8 14.1 -34.85 17.85 -35.1 21.55 -35.35 23.1 -33.65" fill="#47bfbe" fill-rule="evenodd" stroke="none"/>
      <path d="M45.5 14.9 L41.5 26.45 42.2 27.65 41.55 27.35 42.1 29.9 Q42.95 33.35 42.95 35.05 43.0 36.45 42.45 39.25 42.0 41.55 35.4 43.8 29.6 45.75 30.05 45.95 26.2 44.7 26.2 40.3 26.95 34.75 26.75 31.85 L26.6 30.4 Q26.2 27.6 25.0 26.3 L23.9 25.6 23.55 23.85 23.25 23.85 22.9 25.6 21.8 26.35 Q20.6 27.65 20.2 30.6 L20.05 31.85 Q19.75 36.55 17.65 39.9 15.25 43.7 10.85 45.1 11.45 44.8 8.8 43.9 5.3 42.75 4.35 41.0 3.1 38.75 2.95 36.75 2.8 34.5 3.8 31.15 4.45 29.0 5.3 27.35 4.95 27.45 4.65 27.65 L6.9 24.85 -1.25 14.1 20.75 2.25 45.5 14.9" fill="#52997c" fill-rule="evenodd" stroke="none"/>
      <path d="M48.45 22.8 Q46.25 27.7 47.8 30.4 50.2 34.55 50.7 36.65 51.15 38.65 50.2 40.1 51.05 37.85 47.75 33.15 44.45 28.45 45.45 25.6 46.45 22.65 48.8 17.45 L50.95 12.8 52.7 -4.95 Q53.85 -2.8 54.1 2.65 54.4 9.05 52.7 13.8 L51.6 16.55 Q51.15 18.1 51.15 20.95 51.1 26.0 53.0 31.2 54.95 36.5 53.45 38.5 L48.65 41.8 Q52.15 38.75 52.3 36.05 52.45 34.1 50.5 28.85 48.9 24.4 50.15 19.55 L48.45 22.8 M44.85 48.6 Q44.45 47.0 45.5 45.2 46.0 44.35 47.15 43.15 46.65 43.75 46.25 45.0 45.7 46.8 45.95 48.2 46.15 49.4 47.25 50.15 48.7 51.1 51.15 50.55 L46.75 50.85 Q45.3 50.35 44.85 48.6 M2.05 48.6 Q1.6 50.35 0.2 50.85 L-4.2 50.55 Q-1.8 51.1 -0.35 50.15 0.75 49.4 0.95 48.2 1.2 46.8 0.65 45.0 L-0.2 43.15 1.4 45.2 Q2.45 47.0 2.05 48.6 M-4.05 12.8 L-1.9 17.45 Q0.45 22.65 1.45 25.6 2.45 28.45 -0.85 33.15 -4.1 37.85 -3.25 40.1 -4.25 38.65 -3.8 36.65 -3.3 34.55 -0.9 30.4 0.65 27.7 -1.5 22.8 L-3.2 19.45 Q-1.95 24.35 -3.6 28.85 -5.5 34.15 -5.4 36.05 -5.2 38.8 -1.75 41.8 L-6.55 38.5 Q-8.0 36.5 -6.1 31.2 -4.2 26.0 -4.2 20.95 -4.25 17.55 -4.9 15.95 L-5.0 15.65 -5.75 13.8 Q-7.45 9.05 -7.15 2.65 -6.9 -2.85 -5.75 -4.95 L-4.05 12.8" fill="#27adb4" fill-rule="evenodd" stroke="none"/>
    </g>
  </defs>
</svg>
