<?xml version="1.0" encoding="UTF-8" standalone="no"?>
<svg xmlns:ffdec="https://www.free-decompiler.com/flash" xmlns:xlink="http://www.w3.org/1999/xlink" ffdec:objectType="frame" height="80.75px" width="53.25px" xmlns="http://www.w3.org/2000/svg">
  <g transform="matrix(1.0, 0.0, 0.0, 1.0, 0.3, 8.2)">
    <use ffdec:characterId="3" height="80.75" transform="matrix(1.0, 0.0, 0.0, 1.0, -0.3, -8.2)" width="53.25" xlink:href="#shape0"/>
  </g>
  <defs>
    <g id="shape0" transform="matrix(1.0, 0.0, 0.0, 1.0, 0.3, 8.2)">
      <path d="M39.7 21.8 Q34.45 19.4 31.95 17.05 34.9 20.05 37.7 21.9 42.05 24.8 44.45 23.7 42.3 22.95 39.7 21.8 M11.6 -2.0 Q15.4 -4.8 19.3 -5.15 L22.5 -4.95 Q22.8 -6.05 25.3 -7.25 L27.75 -8.2 34.2 -5.25 Q45.05 -5.2 50.1 9.9 51.65 14.6 52.45 20.3 L52.95 25.0 Q52.7 29.75 51.55 33.2 L51.45 33.4 Q50.75 35.2 49.85 36.6 48.5 38.75 47.25 39.35 L46.4 41.8 45.8 43.0 Q41.75 46.35 41.0 52.3 40.75 53.85 40.8 55.55 L40.8 56.0 Q40.95 60.4 42.15 63.9 43.25 64.75 43.9 66.25 L44.3 67.55 Q43.95 66.25 42.35 65.35 L41.0 64.75 40.85 64.7 40.9 64.95 40.9 65.15 Q41.2 69.9 45.0 71.5 46.95 72.3 48.9 72.15 44.45 73.6 41.2 69.55 40.2 68.25 39.45 66.6 L38.85 65.2 Q33.5 60.3 38.5 49.95 40.05 46.75 42.5 43.4 L43.45 42.15 43.95 41.45 44.6 40.65 Q42.8 41.7 40.9 41.3 L39.8 40.85 39.4 40.65 Q43.5 39.6 44.45 32.75 45.0 28.9 44.5 24.9 L44.5 24.75 Q40.8 26.5 35.9 22.85 32.7 20.45 29.5 16.15 30.4 19.9 30.85 23.9 L31.1 27.15 31.05 27.15 30.85 26.6 27.85 20.1 Q25.25 14.9 25.35 16.95 L25.35 17.45 25.45 17.85 Q25.95 20.7 28.3 23.95 29.45 25.6 30.85 26.95 L31.0 27.15 30.95 27.15 30.7 27.2 30.0 27.3 29.65 27.4 28.25 27.2 27.7 27.0 Q26.25 26.5 25.35 25.55 L25.1 25.25 24.7 24.8 25.4 25.65 Q27.15 27.6 28.4 28.15 L28.0 28.45 Q25.35 27.65 22.8 24.65 L21.35 22.6 20.8 21.7 Q21.4 23.7 23.4 26.1 L26.25 29.15 26.1 29.1 25.7 28.85 25.6 28.75 22.7 27.0 Q15.35 22.15 12.9 16.65 13.4 19.55 14.75 21.85 15.4 23.0 16.0 23.55 L15.7 23.45 15.3 23.35 Q13.75 22.95 12.75 21.6 L12.0 20.35 11.35 18.45 11.2 17.6 Q10.75 21.5 11.8 24.1 12.3 25.4 12.9 25.9 L12.8 25.9 Q10.1 26.05 8.7 23.65 L8.0 21.9 7.8 21.1 Q6.25 28.45 8.7 35.15 9.85 38.15 11.25 40.0 L13.1 40.2 12.7 40.45 Q12.2 40.75 11.6 40.85 L9.75 40.9 9.65 40.9 9.2 40.8 Q12.05 44.3 14.05 47.95 L15.4 50.75 Q19.65 60.25 14.55 64.9 L14.0 66.3 Q13.25 68.0 12.2 69.25 8.95 73.3 4.55 71.8 6.5 72.0 8.45 71.15 12.4 69.55 12.6 64.4 L11.1 65.0 Q9.5 66.0 9.1 67.25 L9.5 65.95 Q10.15 64.45 11.3 63.6 L12.2 60.0 12.25 59.7 11.9 54.6 11.2 50.15 Q10.1 45.4 6.7 42.55 L6.1 41.4 Q5.45 40.0 5.25 38.95 4.0 38.3 2.65 36.2 1.85 34.85 1.2 33.3 L1.05 32.95 1.05 32.75 1.05 32.7 Q-2.75 14.55 4.0 4.5 7.4 -0.65 11.6 -2.0" fill="#e0aa90" fill-rule="evenodd" stroke="none"/>
      <path d="M24.45 -5.0 Q25.25 -1.6 25.95 0.4 24.15 -2.35 23.0 -2.85 L24.45 -5.0 M28.05 -3.25 Q35.95 -3.95 41.05 7.5 42.95 11.7 43.95 16.05 L44.1 16.6 44.0 16.4 44.05 16.6 44.2 18.65 43.5 18.55 Q40.65 18.0 37.0 15.0 L37.1 15.05 36.8 14.85 Q33.5 12.5 29.65 6.9 L29.0 5.75 31.75 8.6 Q38.5 14.6 43.7 16.0 L44.0 16.3 43.85 16.05 Q41.5 10.2 34.85 4.05 30.3 -0.1 25.9 -2.8 L28.05 -3.25 M20.35 -2.55 Q19.2 -2.05 18.05 -0.8 15.7 1.75 15.55 5.65 14.5 3.55 14.35 1.7 13.95 1.25 11.95 5.1 L10.5 7.95 9.05 10.45 Q8.7 10.5 9.75 6.55 10.55 3.6 11.8 1.6 L11.85 1.55 Q13.6 -1.35 16.2 -2.3 L20.35 -2.55 M44.4 21.4 Q39.85 20.3 35.05 16.95 30.25 13.65 27.3 9.35 L27.15 9.05 26.6 7.9 Q28.65 10.85 31.75 13.45 37.05 17.85 44.35 20.3 L44.4 21.4 M51.65 19.0 Q52.05 23.75 50.9 27.25 50.3 29.0 49.6 29.8 L50.25 27.3 Q50.85 24.0 49.85 21.6 49.75 25.1 47.95 29.05 L46.75 31.35 Q49.0 26.05 47.35 15.25 L45.95 8.15 Q50.45 16.95 50.95 20.25 L51.65 19.0 M51.75 28.85 L51.45 33.15 51.45 33.4 Q50.75 35.2 49.85 36.6 48.5 38.75 47.25 39.35 L46.4 41.8 45.8 43.0 Q41.75 46.35 41.0 52.3 40.7 50.45 41.1 48.95 41.45 47.6 42.55 45.9 L44.25 43.25 Q46.15 39.55 46.35 37.95 45.35 39.85 43.95 41.45 L44.6 40.65 Q42.8 41.7 40.9 41.3 L39.8 40.85 39.4 40.65 42.8 40.25 Q46.35 38.85 47.85 33.45 L47.85 34.9 Q47.6 37.95 46.5 39.35 49.05 37.6 50.65 33.15 L51.75 28.85 M11.8 16.8 Q12.8 21.1 15.3 23.35 13.75 22.95 12.75 21.6 L12.0 20.35 11.35 18.45 11.2 17.6 Q10.75 21.5 11.8 24.1 12.3 25.4 12.9 25.9 L12.8 25.9 Q9.6 22.95 10.1 17.05 L11.25 11.75 11.8 16.8 M0.85 18.6 L1.55 19.8 1.6 19.65 Q2.2 16.25 6.55 7.75 L5.15 14.85 Q3.5 25.65 5.75 30.95 L4.55 28.6 Q2.75 24.7 2.65 21.2 1.65 23.6 2.25 26.85 2.5 28.3 2.9 29.35 2.2 28.55 1.6 26.8 L1.6 26.75 Q0.45 23.25 0.85 18.6 M27.85 20.1 Q25.25 14.9 25.35 16.95 L23.75 9.65 27.05 15.2 Q30.3 21.55 30.85 26.6 L27.85 20.1 M21.35 22.6 L20.8 21.7 Q21.4 23.7 23.4 26.1 L26.25 29.15 26.1 29.1 25.7 28.85 25.6 28.75 23.55 26.75 Q21.7 24.75 19.65 21.2 17.65 17.7 18.95 13.05 19.6 10.75 20.65 9.1 20.65 16.15 25.8 22.45 28.25 25.45 30.7 27.2 L30.0 27.3 Q27.4 26.05 26.35 24.5 L27.2 25.9 28.25 27.2 27.7 27.0 Q26.25 26.5 25.35 25.55 L25.1 25.25 24.7 24.8 25.4 25.65 Q27.15 27.6 28.4 28.15 L28.0 28.45 Q25.35 27.65 22.8 24.65 L21.35 22.6 M1.05 32.7 L0.75 28.4 1.85 32.75 Q3.45 37.2 6.0 38.95 L5.85 38.75 Q4.9 37.3 4.65 34.5 L4.65 33.0 Q6.15 38.4 9.7 39.85 L13.1 40.2 12.7 40.45 Q12.2 40.75 11.6 40.85 L9.75 40.9 9.65 40.9 9.2 40.8 Q8.55 40.6 7.9 40.2 L8.4 40.8 Q7.1 39.35 6.15 37.5 6.35 39.1 8.25 42.8 L9.0 44.0 9.95 45.45 Q11.05 47.15 11.4 48.55 11.8 50.05 11.5 51.9 L11.2 50.15 Q10.1 45.4 6.7 42.55 L6.1 41.4 Q5.45 40.0 5.25 38.95 4.0 38.3 2.65 36.2 1.85 34.85 1.2 33.3 L1.05 32.95 1.05 32.75 1.05 32.7 M39.3 59.85 Q39.85 63.0 41.0 64.75 L40.85 64.7 40.9 64.95 40.9 65.15 Q38.0 61.75 38.95 56.3 L39.3 59.85 M11.6 64.7 L11.6 64.55 11.65 64.3 11.5 64.35 Q12.65 62.6 13.2 59.4 L13.55 55.85 13.65 56.4 Q14.35 61.45 11.6 64.7" fill="#000000" fill-opacity="0.3019608" fill-rule="evenodd" stroke="none"/>
      <path d="M43.9 11.95 L43.65 11.75 43.6 11.5 Q42.6 7.05 40.2 2.85 L38.0 -0.5 39.4 0.75 Q42.0 2.5 42.65 0.9 L43.95 1.7 Q46.25 3.75 47.1 7.25 L46.25 6.45 45.1 5.75 Q44.55 9.8 43.9 11.95 M41.9 45.2 L41.0 47.2 Q40.6 48.65 40.45 50.2 40.2 52.15 40.35 54.35 39.8 52.85 39.65 51.1 38.25 53.0 37.3 56.4 L37.3 56.35 Q37.85 51.05 40.65 46.85 L41.9 45.2 M37.75 11.5 Q35.15 10.35 32.1 7.35 L29.2 4.05 29.95 3.95 Q31.2 3.6 31.7 2.65 36.65 9.15 37.75 11.5 M23.75 5.35 L24.35 5.35 Q25.7 5.25 27.05 4.3 L28.0 6.25 Q29.95 9.8 31.55 11.55 L29.25 9.95 26.45 7.65 25.05 5.45 26.3 7.45 26.6 7.9 27.15 9.05 27.3 9.35 Q28.95 13.2 29.15 15.7 28.95 14.15 25.85 10.6 L22.7 7.3 22.25 9.85 Q21.95 12.25 22.15 14.1 21.55 12.3 21.35 9.65 L21.25 6.15 19.55 8.55 Q17.9 11.05 17.6 13.1 L17.55 13.6 17.3 14.1 Q16.25 12.3 15.8 9.35 L15.6 7.15 15.2 10.45 Q14.7 18.25 19.15 23.0 13.05 17.9 12.45 11.05 12.15 8.0 12.9 5.65 L13.1 6.45 Q13.95 7.3 16.05 5.25 L16.3 5.0 16.75 5.3 20.0 5.4 20.4 5.35 21.4 5.6 23.4 5.5 23.75 5.35 M7.85 1.85 Q7.8 2.45 8.35 2.95 9.35 2.25 10.65 1.75 L8.8 3.75 8.7 3.9 10.05 3.4 10.15 3.35 Q9.1 5.5 8.3 8.45 6.6 14.9 7.85 19.9 6.25 16.25 6.95 9.85 L7.75 5.05 Q6.0 7.15 5.2 8.9 5.4 7.3 6.15 5.45 3.55 7.85 2.35 10.6 3.5 6.7 5.6 4.0 6.85 2.45 7.85 1.8 L7.85 1.85 M12.95 46.85 Q15.75 51.05 16.3 56.35 L16.3 56.4 Q15.35 53.0 13.95 51.1 13.8 52.85 13.25 54.35 13.4 52.15 13.15 50.2 L12.6 47.2 11.7 45.2 12.95 46.85" fill="#ffffff" fill-opacity="0.3019608" fill-rule="evenodd" stroke="none"/>
    </g>
  </defs>
</svg>
