<svg xmlns="http://www.w3.org/2000/svg" xmlns:ffdec="https://www.free-decompiler.com/flash" xmlns:xlink="http://www.w3.org/1999/xlink" ffdec:objectType="frame" width="66.2" height="56.35"><use ffdec:characterId="3" xlink:href="#a" width="66.2" height="56.35"/><defs><radialGradient id="b" cx="0" cy="0" r="819.2" gradientTransform="matrix(.0031 -.0381 -.0381 -.0031 26.6 30)" gradientUnits="userSpaceOnUse" spreadMethod="pad"><stop offset=".42" stop-color="#80ad57"/><stop offset="1" stop-color="#417411"/></radialGradient><radialGradient id="c" cx="0" cy="0" r="819.2" gradientTransform="translate(43.7 52.65)scale(.0002)" gradientUnits="userSpaceOnUse" spreadMethod="pad"><stop offset=".42" stop-color="#80ad57"/><stop offset="1" stop-color="#417411"/></radialGradient><g id="a" fill-rule="evenodd"><path fill="url(#b)" d="M17.35-2.05q4.9-1.1 8.7.35l2.35.4Q35.8-2.8 43.1.75q7.15 3.55 9.25 9.6 1.45 4.15 3.85 9.2 2.75 5.7 3.95 6.4Q57.3 24.8 53.3 17q-3.8-7.45-6.9-8.1 2.1 1.15 4.45 5.4 1.7 2.95 2.9 6.3l-.2-.2q2.05 4.1 1.5 9.65-.5 5.15-2.65 7.85.9-2.4.65-5.8-.2-3.95-1.9-7.75 1.65 5.7-.8 15-2.3 8.65-6.55 13.2 3.1-3.5 5.2-10.75 2.3-8.05.9-12.35.4 2.4-1.7 11.3t-4.4 11.8l-1.4 1.3q5.5-10.9 2.9-24.65-2.65-13.95-11.15-16.6 1.55.85 3.05 2.75l1.2 1.75.3.5.35.55.05.05.1.15.1.25.15.35q1.25 3.3-.35 7.85t-6.35 10.9l.25-.5q5.25-8.3 2.05-16.7-2.45-6.25-6.25-8.1l1.8 2.75q1.25 2.15 1.45 3.1L32 18.2q.8 1.95.9 5.6.1 4.3-1.35 6.5 0-3.25-1.1-7.85-1.65-7.05-5-10.25l-1.65-1.6q-4.75 2.65-6.45 10.1-1.3 5.85-.3 9.6-4.3-4.9-2.8-13.35Q15 14.5 16 12.2q1.1-2.55 1.75-3.3-2.05 1.15-4.55 4.1-3.3 3.85-5.15 8.5-5.25 13.45 3.5 28.2-5-2.1-7-10.75-1.75-7.6-.5-15.5.65-2.2 1.35-2.8-1.65.75-2.95 3.75Q1 27.7 1.2 31.45q-1.5-3.9-.85-8.2.6-4.25 2.95-7.2 1.4-1.9 3.45-3.8 2-1.85 3.65-2.8-2.85.85-6.8 4.45-3.75 3.45-5.65 3.8l-.8.05q-2.1.1-2.95-.7 1.7-.05 3.6-1.85 1.8-1.75 5.25-6.5Q9.1-.25 17.35-2.05" transform="translate(5.8 2.5)"/><path fill="url(#c)" d="m43.6 52.75.2-.2z" transform="translate(5.8 2.5)"/><path fill="#345b0e" d="M59.55 23.1q-1.2-3.35-2.9-6.3-2.35-4.25-4.45-5.4 3.1.65 6.9 8.1 4 7.8 6.85 8.95l.25.1q-.7.4-3.15-1.3-2.65-1.85-3.5-4.1zm-3.85 8.85q1.4 4.3-.9 12.35-2.1 7.25-5.2 10.75 2.3-2.9 4.4-11.8t1.7-11.3M31.25 14.7l-.75.7q-2 2.1-4 5.8-2.15 3.9-3.05 7.35-.7 2.35-.6 4.25-1-3.75.3-9.6 1.7-7.45 6.45-10.1zm13.25 5.4-.3-.5-1.2-1.75q-1.5-1.9-3.05-2.75 8.5 2.65 11.15 16.6 2.6 13.75-2.9 24.65 1.55-5.85 1.25-15.05-.45-11.55-4.2-19.85l-.15-.35-.1-.25-.1-.15-.05-.05zm-8.1-2.45-1.8-2.75q3.8 1.85 6.25 8.1 3.2 8.4-2.05 16.7l1.05-3.75q1-5.15-.05-10.05l-.15-.85q-.65-2.55-1.8-4.3-.2-.95-1.45-3.1M21.8 14.7q-1 2.3-1.75 4.75l.05-.35q-6.05 9.7-5.2 21.7.3 6.1 2.25 10.9l.2.5Q8.6 37.45 13.85 24q1.85-4.65 5.15-8.5 2.5-2.95 4.55-4.1-.65.75-1.75 3.3M9.85 25.95v-.1l-.25.45q-.6.8-1.4 3.1-.8 2.35-1.2 4.55-.2-3.75 1.25-7.05 1.3-3 2.95-3.75-.7.6-1.35 2.8m2.7-11.2q-2.05 1.9-3.45 3.8-1.3.95-3.8 1.4l-1.55.25q1.9-.35 5.65-3.8 3.95-3.6 6.8-4.45-1.65.95-3.65 2.8"/><path fill="#c2e0a6" fill-opacity=".498" d="M39.3 12.45q-15.45-1.85-24.9-6.5 1.05-1.95 5.65-3.7 2.2 4.45 18.15 7.85 15.35 3.25 18.4 1.3-2.15 2.9-17.3 1.05"/></g></defs></svg>