<?xml version="1.0" encoding="UTF-8" standalone="no"?>
<svg xmlns:ffdec="https://www.free-decompiler.com/flash" xmlns:xlink="http://www.w3.org/1999/xlink" ffdec:objectType="frame" height="55.9px" width="57.2px" xmlns="http://www.w3.org/2000/svg">
  <g transform="matrix(1.0, 0.0, 0.0, 1.0, 2.3, 9.85)">
    <use ffdec:characterId="3" height="55.9" transform="matrix(1.0, 0.0, 0.0, 1.0, -2.3, -9.85)" width="57.2" xlink:href="#shape0"/>
  </g>
  <defs>
    <g id="shape0" transform="matrix(1.0, 0.0, 0.0, 1.0, 2.3, 9.85)">
      <path d="M22.35 -9.7 Q32.3 -10.5 37.2 -6.65 42.1 -2.8 39.45 3.65 44.95 3.6 49.3 9.3 53.15 14.35 53.5 24.0 53.75 32.65 54.9 33.85 51.0 31.25 50.05 28.25 49.95 37.25 44.9 44.3 L46.05 30.55 Q45.2 33.5 43.45 36.3 44.6 23.9 37.25 12.5 L36.75 12.5 Q36.05 28.5 19.25 40.3 25.6 32.8 28.3 22.35 25.15 28.9 19.25 32.35 22.75 27.55 24.3 22.8 18.35 28.5 12.75 30.3 L12.55 29.95 Q9.2 37.75 9.7 46.05 7.9 42.3 7.45 38.4 L6.1 44.45 Q3.15 36.05 4.75 28.0 1.6 31.35 -1.3 31.65 0.05 30.4 2.8 22.0 L2.9 21.6 2.65 21.9 Q-0.1 24.6 -2.3 24.4 -0.2 21.35 0.95 17.95 3.2 10.95 7.2 6.85 10.1 3.95 13.5 2.2 17.4 0.15 21.85 -0.3 26.3 -0.8 30.5 0.4 34.65 1.55 35.65 3.3 35.15 -1.0 24.95 -3.45 34.8 -4.45 37.55 1.85 34.9 -6.05 22.35 -9.7" fill="url(#gradient0)" fill-rule="evenodd" stroke="none"/>
      <path d="M38.2 -0.3 Q38.95 2.45 37.5 4.5 38.45 0.85 34.4 -3.25 30.35 -7.35 22.55 -9.7 36.85 -7.4 38.2 -0.3 M46.65 23.3 L45.85 15.05 Q51.15 27.4 44.9 44.4 L46.05 30.55 46.1 30.3 Q47.0 26.9 46.65 23.3 M49.25 20.3 Q48.65 15.3 46.85 10.3 49.7 13.3 50.95 21.3 51.45 30.35 54.25 32.4 L54.3 32.45 Q54.55 33.45 54.9 33.85 L53.6 32.9 Q50.8 30.75 50.05 28.25 50.1 24.45 49.25 20.3 M43.6 34.25 Q44.0 22.95 37.25 12.5 L36.75 12.5 Q36.1 27.35 21.55 38.6 L19.25 40.3 Q27.7 32.2 31.4 24.75 35.0 17.45 36.5 8.6 41.35 15.2 43.3 21.3 45.45 28.0 43.55 36.2 L43.6 34.25 M29.25 13.25 L29.25 17.85 28.3 22.35 Q25.8 27.55 21.55 30.85 L19.25 32.35 20.85 30.1 Q27.25 23.8 29.25 13.25 M11.65 10.3 Q6.5 13.5 4.75 17.4 L2.85 21.6 2.65 21.9 Q0.95 23.55 -0.5 24.15 L-1.85 24.35 Q0.7 22.4 2.75 18.2 L2.85 18.15 Q4.9 13.45 7.9 10.7 10.9 7.9 19.25 5.95 16.3 7.1 11.65 10.3 M6.85 22.75 Q5.5 25.4 4.75 28.0 1.9 31.05 -0.7 31.6 2.8 27.35 9.25 15.15 L6.85 22.75 M10.95 22.45 Q6.55 30.75 7.45 38.4 L6.45 43.0 Q1.45 25.85 19.25 10.3 14.65 15.15 10.95 22.45 M12.55 30.15 L12.55 29.95 Q16.25 21.25 25.45 12.7 17.8 22.7 15.55 29.25 L12.55 30.15 M35.95 4.35 Q36.0 -0.65 25.15 -3.45 38.25 -2.25 35.95 4.35" fill="#b83d3b" fill-opacity="0.69411767" fill-rule="evenodd" stroke="none"/>
    </g>
    <linearGradient gradientTransform="matrix(0.0, -0.0349, 0.0341, 0.0, 26.3, 18.1)" gradientUnits="userSpaceOnUse" id="gradient0" spreadMethod="pad" x1="-819.2" x2="819.2">
      <stop offset="0.0" stop-color="#e93937"/>
      <stop offset="1.0" stop-color="#ffa2a1"/>
    </linearGradient>
  </defs>
</svg>
