<?xml version="1.0" encoding="UTF-8" standalone="no"?>
<svg xmlns:ffdec="https://www.free-decompiler.com/flash" xmlns:xlink="http://www.w3.org/1999/xlink" ffdec:objectType="frame" height="58.4px" width="56.2px" xmlns="http://www.w3.org/2000/svg">
  <g transform="matrix(1.0, 0.0, 0.0, 1.0, 4.5, 2.0)">
    <use ffdec:characterId="3" height="58.4" transform="matrix(1.0, 0.0, 0.0, 1.0, -4.5, -2.0)" width="56.2" xlink:href="#shape0"/>
  </g>
  <defs>
    <g id="shape0" transform="matrix(1.0, 0.0, 0.0, 1.0, 4.5, 2.0)">
      <path d="M37.85 18.8 Q34.3 29.15 25.75 39.0 L29.2 33.0 28.35 32.0 Q25.35 35.7 20.8 39.8 L16.9 43.25 16.4 46.0 Q16.05 48.45 16.0 50.45 15.15 46.1 15.25 43.3 L15.4 41.25 Q22.65 32.7 39.7 11.05 39.5 14.1 37.85 18.8" fill="#916127" fill-opacity="0.49803922" fill-rule="evenodd" stroke="none"/>
      <path d="M13.85 12.05 L13.95 12.05 12.2 12.95 12.85 12.15 13.85 12.05 M11.75 47.0 L12.4 46.45 12.85 46.15 Q13.65 51.0 15.8 56.05 13.0 51.7 11.75 47.0 M40.1 4.1 L40.1 3.85 40.2 4.15 40.25 4.25 40.1 4.1 M44.25 9.45 L44.4 10.7 Q44.1 9.95 44.1 9.45 L44.25 9.45 M49.25 30.35 L49.15 30.45 49.25 30.25 49.25 30.35" fill="#fcd292" fill-rule="evenodd" stroke="none"/>
      <path d="M10.05 3.7 L12.15 3.45 13.45 3.15 22.1 1.0 Q28.2 -0.05 32.7 1.25 34.65 1.8 35.65 2.5 L34.75 2.6 34.55 2.65 Q33.8 2.05 31.35 1.65 L27.45 1.2 Q23.4 1.2 18.3 2.95 L17.0 3.45 Q14.15 4.55 11.55 5.1 L10.95 5.25 9.6 5.45 7.55 5.7 Q8.65 4.7 10.05 3.7 M36.15 3.35 L37.25 3.55 Q38.4 3.9 38.75 4.4 39.3 5.1 38.25 10.15 37.25 15.15 35.7 18.2 L36.8 12.5 Q37.9 5.9 37.15 4.8 L36.15 3.35" fill="#cd9c51" fill-rule="evenodd" stroke="none"/>
      <path d="M7.2 1.85 Q12.15 0.4 22.4 -0.85 16.05 0.1 11.65 2.65 L14.0 1.15 8.45 1.85 5.45 2.55 Q6.35 2.15 7.2 1.85" fill="#8c6222" fill-rule="evenodd" stroke="none"/>
      <path d="M3.95 15.85 L2.75 16.15 Q4.3 14.0 6.05 12.1 L6.9 12.15 Q5.25 13.85 3.95 15.85 M3.9 11.95 L4.8 12.0 2.2 14.6 3.9 11.95 M8.3 8.4 L7.3 9.5 5.65 9.7 7.05 8.0 7.65 8.2 8.3 8.4 M1.85 17.45 L2.85 17.6 1.7 19.7 1.7 19.75 -1.75 24.35 -1.7 24.15 Q-0.55 21.15 1.8 17.5 L1.85 17.45 M3.7 40.3 Q2.5 33.15 2.4 26.65 2.6 30.8 4.05 35.8 4.1 40.0 4.55 43.45 L3.7 40.3" fill="#ad864c" fill-rule="evenodd" stroke="none"/>
      <path d="M2.75 16.15 L0.45 16.55 0.55 16.3 Q1.5 13.75 2.65 11.75 L3.05 11.8 3.9 11.95 2.2 14.6 4.8 12.0 6.05 12.1 Q4.3 14.0 2.75 16.15" fill="url(#gradient0)" fill-rule="evenodd" stroke="none"/>
      <path d="M7.0 15.0 L3.95 15.85 Q5.25 13.85 6.9 12.15 L7.9 12.15 7.0 15.0" fill="url(#gradient1)" fill-rule="evenodd" stroke="none"/>
      <path d="M1.85 17.45 L1.8 17.5 Q-0.55 21.15 -1.7 24.15 L0.25 17.15 1.85 17.45" fill="url(#gradient2)" fill-rule="evenodd" stroke="none"/>
      <path d="M12.85 46.15 L14.65 44.65 14.65 45.95 Q14.65 50.85 15.45 54.6 L15.8 56.05 15.9 56.4 Q13.95 53.85 11.35 47.8 L11.15 47.4 11.75 47.0 Q13.0 51.7 15.8 56.05 13.65 51.0 12.85 46.15 M9.55 49.5 L9.35 48.85 10.6 47.9 11.9 53.8 9.55 49.5 M7.35 28.0 L7.55 28.0 Q7.9 32.2 8.8 35.95 L10.95 44.05 10.3 45.3 10.25 45.5 9.05 47.6 8.45 44.85 Q7.35 38.65 7.35 29.65 L7.35 28.0" fill="#bf8a3a" fill-rule="evenodd" stroke="none"/>
      <path d="M19.05 24.9 Q17.75 27.85 16.7 31.0 L13.1 39.5 12.35 41.2 Q12.15 36.1 13.45 31.15 L14.0 29.25 11.75 33.05 Q12.5 29.8 13.5 27.2 L14.85 26.75 15.85 26.4 18.7 24.95 19.05 24.8 19.05 24.9" fill="#aa7e3b" fill-rule="evenodd" stroke="none"/>
      <path d="M12.2 12.95 L8.6 14.45 8.55 14.45 7.45 14.85 7.0 15.0 7.9 12.15 10.75 12.2 12.85 12.15 12.2 12.95 M6.35 17.8 L7.35 17.8 7.95 17.7 9.2 17.65 Q5.5 24.8 5.85 33.65 5.1 30.2 5.4 24.8 5.6 21.2 6.35 17.8" fill="#a67732" fill-rule="evenodd" stroke="none"/>
      <path d="M-3.25 9.75 L-3.15 9.8 4.7 10.9 5.85 10.95 7.2 10.95 8.1 10.95 8.35 10.95 8.8 10.95 12.45 10.45 14.95 9.85 Q18.15 8.9 21.25 7.4 L18.7 9.55 Q16.55 11.05 13.85 12.05 L12.85 12.15 10.75 12.2 7.9 12.15 6.9 12.15 6.05 12.1 4.8 12.0 3.9 11.95 3.05 11.8 2.65 11.75 Q0.2 11.25 -4.5 9.65 L-4.0 9.65 -3.4 9.75 -3.3 9.75 -3.25 9.75 M-1.95 16.6 L2.25 16.85 3.3 16.8 5.55 16.65 6.65 16.35 7.4 16.1 8.3 15.8 10.75 15.0 15.85 12.95 Q16.8 12.45 17.9 11.95 20.05 11.0 22.75 10.2 17.45 13.8 13.55 17.05 L13.6 16.9 9.2 17.65 7.95 17.7 7.35 17.8 6.35 17.8 6.2 17.8 2.85 17.6 1.85 17.45 0.25 17.15 -1.95 16.6 M9.4 23.35 L12.85 20.1 Q16.55 16.9 21.25 13.85 24.75 11.55 28.85 9.4 L18.0 18.3 14.6 21.0 14.8 20.7 9.4 23.35 M7.5 27.7 Q11.0 26.8 14.35 25.1 L15.25 24.55 16.1 24.1 18.6 22.5 22.7 19.55 Q27.9 15.65 30.4 12.55 L28.9 14.45 Q25.0 19.45 19.05 24.9 L19.05 24.8 18.7 24.95 15.85 26.4 14.85 26.75 13.5 27.2 Q11.15 27.9 8.85 28.0 L7.85 28.0 7.55 28.0 7.35 28.0 6.6 27.9 6.7 27.9 7.35 27.75 7.5 27.7 M11.5 45.8 L12.6 44.55 Q16.25 40.25 20.9 33.65 L26.9 23.05 Q33.15 11.55 34.85 6.35 33.8 10.65 31.6 16.4 27.15 27.95 21.75 35.55 19.3 38.95 15.15 43.05 L12.7 45.35 11.6 46.35 9.2 48.25 8.85 48.55 9.2 48.2 11.5 45.8 M22.4 36.55 L26.1 30.85 Q30.6 23.25 32.45 16.9 L34.2 10.75 33.25 16.35 Q31.7 22.85 28.25 29.1 30.7 26.2 33.1 21.7 30.7 27.2 27.45 32.2 L24.75 34.7 22.4 36.55 M23.6 39.0 Q27.5 34.6 31.4 28.35 37.65 18.3 39.45 9.2 L39.95 6.05 40.0 5.2 40.1 4.1 40.25 4.25 40.5 6.15 41.15 7.95 Q41.8 10.0 41.7 11.3 L40.75 8.4 40.5 7.65 40.45 8.65 40.3 10.5 Q39.6 16.25 36.8 22.35 32.25 32.1 23.6 39.0 M41.05 5.1 Q41.9 5.2 42.65 5.8 L43.05 7.3 43.4 10.5 Q43.15 8.45 41.85 6.3 L41.05 5.1" fill="#b68232" fill-rule="evenodd" stroke="none"/>
      <path d="M40.25 4.25 L41.05 5.1 41.85 6.3 Q43.15 8.45 43.4 10.5 L43.05 7.3 42.65 5.8 Q43.75 6.7 44.65 8.65 L45.8 9.05 46.35 11.0 Q46.95 13.5 46.95 15.9 46.95 17.9 46.35 20.45 L45.4 21.7 45.25 21.25 44.1 19.0 44.55 18.2 44.5 18.15 44.55 17.25 44.85 13.85 Q44.85 11.9 44.5 10.95 L44.4 10.7 44.25 9.45 44.1 9.45 Q44.1 9.95 44.4 10.7 L43.85 13.5 42.8 16.0 Q42.7 14.2 40.3 10.5 L40.45 8.65 40.5 7.65 40.75 8.4 41.7 11.3 Q41.8 10.0 41.15 7.95 L40.5 6.15 40.25 4.25" fill="url(#gradient3)" fill-rule="evenodd" stroke="none"/>
      <path d="M47.45 11.2 L47.6 11.55 48.25 13.45 49.5 16.1 Q50.15 18.0 50.2 19.75 L50.45 22.05 50.55 23.65 49.6 26.1 Q47.95 30.25 46.95 30.8 L46.95 30.9 Q48.5 30.2 50.45 27.55 50.3 29.7 49.85 30.95 49.3 32.4 47.35 35.05 L45.55 40.95 45.55 40.45 Q45.55 37.65 45.95 36.7 L45.95 34.3 47.55 32.95 49.15 30.45 49.25 30.35 49.25 30.25 49.15 30.45 47.6 31.85 45.95 33.45 45.95 32.4 45.75 32.4 45.3 32.9 45.3 32.75 45.65 31.35 46.05 29.6 45.95 29.6 45.55 30.1 45.55 30.05 Q47.0 27.95 48.35 23.95 49.6 20.15 49.4 19.05 48.85 22.1 47.05 25.4 L46.15 27.0 46.4 24.9 45.3 26.85 45.35 26.6 46.35 24.65 Q47.55 21.9 47.9 19.85 L46.1 22.85 45.55 23.7 45.55 22.05 45.4 21.7 46.35 20.45 46.95 19.3 Q47.8 17.25 47.8 13.8 L47.45 11.2" fill="url(#gradient4)" fill-rule="evenodd" stroke="none"/>
      <path d="M45.8 9.05 Q46.7 9.65 47.45 11.2 L47.8 13.8 Q47.8 17.25 46.95 19.3 L46.35 20.45 Q46.95 17.9 46.95 15.9 46.95 13.5 46.35 11.0 L45.8 9.05 M50.55 23.65 L50.55 24.75 50.45 27.55 Q48.5 30.2 46.95 30.9 L46.95 30.8 Q47.95 30.25 49.6 26.1 L50.55 23.65 M45.95 34.3 L45.95 33.45 47.6 31.85 49.15 30.45 47.55 32.95 45.95 34.3 M45.55 30.05 L45.55 29.9 Q45.65 29.0 45.9 28.05 L46.15 27.0 47.05 25.4 Q48.85 22.1 49.4 19.05 49.6 20.15 48.35 23.95 47.0 27.95 45.55 30.05 M45.35 26.6 L45.55 23.7 46.1 22.85 47.9 19.85 Q47.55 21.9 46.35 24.65 L45.35 26.6 M44.55 17.25 L44.55 17.15 43.4 18.25 43.4 18.1 43.95 16.75 44.05 16.45 44.3 15.85 44.45 15.0 44.5 14.25 44.4 14.25 43.5 15.7 Q43.1 16.25 42.75 16.4 L42.8 16.0 43.85 13.5 44.4 10.7 44.5 10.95 Q44.85 11.9 44.85 13.85 L44.55 17.25" fill="#51290b" fill-rule="evenodd" stroke="none"/>
      <path d="M7.2 1.85 Q11.35 0.1 12.5 -0.2 18.25 -2.0 24.15 -2.0 28.05 -2.0 33.05 -0.25 37.35 1.15 38.35 2.75 L38.65 2.75 Q39.7 3.1 40.1 3.85 L40.1 4.1 40.0 5.2 39.95 6.05 39.45 9.2 Q37.65 18.3 31.4 28.35 27.5 34.6 23.6 39.0 L22.85 39.55 Q25.1 36.45 27.75 31.95 L27.45 32.2 Q30.7 27.2 33.1 21.7 30.7 26.2 28.25 29.1 31.7 22.85 33.25 16.35 L34.2 10.75 32.45 16.9 Q30.6 23.25 26.1 30.85 L22.4 36.55 21.95 37.2 18.1 41.45 Q16.1 47.3 15.9 50.7 L15.95 44.6 16.0 43.45 14.65 44.65 12.85 46.15 12.4 46.45 11.75 47.0 11.6 46.35 12.7 45.35 15.15 43.05 Q19.3 38.95 21.75 35.55 27.15 27.95 31.6 16.4 33.8 10.65 34.85 6.35 33.15 11.55 26.9 23.05 L20.9 33.65 Q16.25 40.25 12.6 44.55 L11.5 45.8 10.95 44.05 12.35 41.2 13.1 39.5 16.7 31.0 Q17.75 27.85 19.05 24.9 25.0 19.45 28.9 14.45 L30.4 12.55 Q27.9 15.65 22.7 19.55 L18.6 22.5 16.1 24.1 15.25 24.55 14.35 25.1 Q11.0 26.8 7.5 27.7 L7.5 27.5 Q9.25 26.6 11.8 24.1 L14.6 21.0 18.0 18.3 28.85 9.4 Q24.75 11.55 21.25 13.85 16.55 16.9 12.85 20.1 L9.4 23.35 9.35 23.35 Q11.7 19.55 13.55 17.05 17.45 13.8 22.75 10.2 20.05 11.0 17.9 11.95 16.8 12.45 15.85 12.95 L10.75 15.0 8.3 15.8 7.4 16.1 6.65 16.35 5.55 16.65 3.3 16.8 2.25 16.85 -1.95 16.6 -2.0 16.55 0.45 16.55 2.75 16.15 3.95 15.85 7.0 15.0 7.45 14.85 8.55 14.45 8.6 14.45 12.2 12.95 13.95 12.05 13.85 12.05 Q16.55 11.05 18.7 9.55 L21.25 7.4 Q18.15 8.9 14.95 9.85 L12.45 10.45 8.8 10.95 8.35 10.95 8.1 10.95 7.2 10.95 5.85 10.95 4.7 10.9 -3.15 9.8 -3.25 9.75 0.35 9.9 3.9 9.8 4.85 8.45 5.7 7.5 Q2.45 6.15 0.9 4.5 2.9 5.7 6.2 5.7 L7.55 5.7 9.6 5.45 10.95 5.25 11.55 5.1 Q14.15 4.55 17.0 3.45 L18.3 2.95 Q23.4 1.2 27.45 1.2 L31.35 1.65 Q33.8 2.05 34.55 2.65 L34.75 2.6 35.65 2.5 Q34.65 1.8 32.7 1.25 28.2 -0.05 22.1 1.0 L13.45 3.15 12.15 3.45 10.05 3.7 11.6 2.65 11.65 2.65 Q16.05 0.1 22.4 -0.85 12.15 0.4 7.2 1.85 M36.15 3.35 L37.15 4.8 Q37.9 5.9 36.8 12.5 L35.7 18.2 Q37.25 15.15 38.25 10.15 39.3 5.1 38.75 4.4 38.4 3.9 37.25 3.55 L36.15 3.35 M8.3 8.4 L7.65 8.2 7.05 8.0 5.65 9.7 7.3 9.5 8.3 8.4" fill="url(#gradient5)" fill-rule="evenodd" stroke="none"/>
      <path d="M13.55 17.05 Q11.7 19.55 9.35 23.35 L9.4 23.35 14.8 20.7 14.6 21.0 11.8 24.1 Q9.25 26.6 7.5 27.5 L7.5 27.7 7.35 27.75 6.7 27.9 6.6 27.9 7.35 28.0 7.35 29.65 Q7.35 38.65 8.45 44.85 L9.05 47.6 10.25 45.5 10.3 45.3 10.95 44.05 11.5 45.8 9.2 48.2 8.85 48.55 9.2 48.25 11.6 46.35 11.75 47.0 11.15 47.4 10.6 47.9 9.35 48.85 9.55 49.5 9.25 48.9 7.7 49.9 6.9 50.25 7.05 50.15 7.7 49.4 7.8 49.35 8.75 48.0 Q6.95 44.45 5.65 40.95 4.65 38.25 4.05 35.8 2.6 30.8 2.4 26.65 2.5 33.15 3.7 40.3 L2.85 36.8 Q1.5 31.0 1.5 24.8 L1.7 19.75 1.7 19.7 2.85 17.6 6.2 17.8 6.35 17.8 Q5.6 21.2 5.4 24.8 5.1 30.2 5.85 33.65 5.5 24.8 9.2 17.65 L13.6 16.9 13.55 17.05" fill="url(#gradient6)" fill-rule="evenodd" stroke="none"/>
      <path d="M12.35 41.2 L10.95 44.05 8.8 35.95 Q7.9 32.2 7.55 28.0 L7.85 28.0 8.85 28.0 Q11.15 27.9 13.5 27.2 12.5 29.8 11.75 33.05 L14.0 29.25 13.45 31.15 Q12.15 36.1 12.35 41.2" fill="url(#gradient7)" fill-rule="evenodd" stroke="none"/>
      <path d="M45.95 10.5 L46.2 13.4 46.05 15.05 45.8 16.25 45.7 16.25 45.55 13.55 45.35 14.3 45.2 14.95 45.3 13.15 45.15 11.8 44.95 10.75 45.15 10.75 45.7 12.2 Q45.7 11.3 45.95 10.5 M49.35 16.1 L49.35 17.45 Q49.2 19.45 47.9 21.75 L47.9 20.75 48.15 20.05 48.15 18.8 47.8 19.0 49.35 16.1 M46.65 29.8 Q46.6 29.5 46.9 29.0 L47.05 28.85 47.45 27.95 49.7 22.95 Q49.55 24.65 48.8 26.8 47.9 29.3 46.9 29.7 L46.65 29.8 M22.45 19.05 Q17.35 23.25 13.65 24.85 L15.15 23.0 Q14.5 22.9 12.55 24.25 14.2 22.7 16.8 20.8 22.05 16.95 26.75 15.2 L22.45 19.05 M23.85 11.1 Q26.7 9.85 28.85 9.55 24.6 11.35 20.45 14.25 16.3 17.15 9.5 23.1 18.2 13.6 23.85 11.1 M35.9 12.0 Q34.45 19.45 30.3 26.3 L33.05 19.05 Q35.9 11.0 36.5 5.9 36.6 8.25 35.9 12.0 M7.25 11.0 L0.25 10.55 Q5.6 11.0 13.85 9.3 L21.0 7.5 Q15.35 10.8 7.25 11.0 M18.1 4.25 L15.4 5.8 13.0 6.4 10.1 6.65 7.3 6.55 3.7 5.7 7.75 6.2 Q9.4 6.2 12.25 5.25 L17.15 3.45 14.9 5.05 18.1 4.25 M5.45 24.45 Q4.85 32.55 6.6 40.0 5.5 37.15 4.75 32.9 3.25 24.35 4.3 17.75 L6.35 17.9 5.45 24.45 M33.35 8.6 Q29.4 19.4 20.55 32.85 L14.4 41.8 Q19.55 33.75 33.35 8.6" fill="#ffffff" fill-opacity="0.49803922" fill-rule="evenodd" stroke="none"/>
      <path d="M43.15 5.4 L43.2 5.4 43.35 5.45 43.3 5.6 43.4 6.15 43.8 5.7 43.95 6.05 44.25 5.8 44.75 6.15 45.1 6.15 46.05 7.0 Q46.85 8.05 46.85 8.75 L46.85 8.85 46.5 8.55 46.85 9.2 47.05 10.2 46.9 11.3 46.9 11.35 47.45 9.9 47.7 10.75 Q47.7 11.3 46.95 12.1 L46.6 12.45 Q46.95 13.05 46.95 14.05 L46.65 15.55 46.65 15.25 46.6 13.95 46.5 13.65 45.55 14.55 44.65 15.25 44.25 13.4 43.7 13.85 Q44.05 13.05 44.65 12.5 L45.75 12.95 45.9 12.95 45.9 12.85 45.95 12.8 46.25 12.2 46.55 10.65 46.45 9.9 46.0 10.75 46.0 10.7 46.1 10.05 45.9 8.95 45.75 8.65 46.05 8.5 45.65 7.4 44.75 6.3 44.6 6.7 45.25 7.45 45.7 8.7 45.75 9.3 45.5 10.2 45.55 10.25 45.95 11.85 45.95 12.15 45.95 12.7 45.9 12.85 44.9 11.7 Q44.0 10.4 43.95 9.25 L43.8 9.1 43.65 8.9 Q43.35 8.35 43.35 7.45 L43.45 6.95 43.45 6.85 43.3 6.7 43.1 5.85 43.15 5.4 M44.55 6.65 L44.2 6.5 44.05 6.5 43.8 6.6 43.7 7.05 44.0 8.15 44.05 7.35 45.5 9.2 45.05 7.7 44.55 6.65 M44.45 8.7 L44.2 8.75 44.4 9.6 Q44.75 10.8 45.35 11.35 L44.95 10.2 44.65 8.75 44.45 8.7" fill="#f2cc94" fill-rule="evenodd" stroke="none"/>
      <path d="M43.15 5.4 L43.1 5.85 43.3 6.7 43.45 6.85 43.45 6.95 43.35 7.45 Q43.35 8.35 43.65 8.9 L43.8 9.1 43.95 9.25 Q44.0 10.4 44.9 11.7 L45.9 12.85 45.95 12.7 45.95 12.15 45.95 11.85 45.55 10.25 45.5 10.2 45.75 9.3 45.7 8.7 45.25 7.45 44.6 6.7 44.75 6.3 45.65 7.4 46.05 8.5 45.75 8.65 45.9 8.95 46.1 10.05 46.0 10.7 46.0 10.75 46.45 9.9 46.55 10.65 46.25 12.2 45.95 12.8 45.9 12.85 45.9 12.95 45.75 12.95 44.65 12.5 44.25 12.1 Q43.55 11.25 43.55 10.15 L43.65 9.4 43.3 8.8 43.05 8.05 43.3 7.3 42.8 6.5 42.75 5.65 Q42.75 5.4 43.15 5.4 M43.7 13.85 L44.25 13.4 44.65 15.25 45.55 14.55 46.5 13.65 46.6 13.95 46.65 15.25 46.65 15.55 46.4 16.1 Q45.9 17.2 45.25 17.75 L45.25 17.1 45.5 16.3 45.1 16.9 45.0 16.9 Q45.0 16.15 45.35 15.9 45.05 16.0 44.85 16.25 L44.75 16.25 Q44.75 15.9 44.9 15.6 L43.9 16.75 43.9 16.65 44.4 15.3 44.25 15.3 43.75 15.8 43.75 15.65 Q44.15 15.15 44.15 14.7 L44.0 14.7 Q43.35 15.2 43.3 15.6 43.35 14.6 43.7 13.85 M45.5 16.3 L45.6 16.15 45.5 16.15 45.5 16.3" fill="#b68232" fill-rule="evenodd" stroke="none"/>
      <path d="M47.45 9.9 L46.9 11.35 46.9 11.3 47.05 10.2 46.85 9.2 46.5 8.55 46.85 8.85 47.2 9.4 47.45 9.9 M44.25 5.8 L43.95 6.05 43.8 5.7 43.4 6.15 43.3 5.6 43.35 5.45 44.15 5.75 44.25 5.8 M44.45 8.7 L44.65 8.75 44.95 10.2 45.35 11.35 Q44.75 10.8 44.4 9.6 L44.2 8.75 44.45 8.7 M44.55 6.65 L45.05 7.7 45.5 9.2 44.05 7.35 44.0 8.15 43.7 7.05 43.8 6.6 44.05 6.5 44.2 6.5 44.55 6.65" fill="#fff0db" fill-rule="evenodd" stroke="none"/>
      <path d="M49.25 14.15 L49.3 14.15 49.4 14.25 49.3 14.35 49.25 14.95 49.8 14.6 49.75 15.05 50.15 14.9 50.5 15.4 50.85 15.55 Q51.15 15.7 51.45 16.65 51.8 17.9 51.55 18.55 L51.55 18.65 51.3 18.25 51.4 19.0 51.25 20.0 50.75 20.95 51.7 19.85 51.65 20.75 Q51.5 21.25 50.5 21.75 L50.0 21.95 Q50.15 22.65 49.8 23.6 L49.0 24.85 49.1 24.55 49.5 23.35 49.5 23.0 48.3 23.55 47.25 23.85 47.5 22.0 Q47.35 21.95 46.85 22.25 47.4 21.6 48.2 21.3 48.5 21.9 49.05 22.1 L49.2 22.15 49.25 22.05 49.3 22.05 49.8 21.6 50.6 20.25 50.75 19.5 50.1 20.1 50.4 19.55 50.6 18.4 50.55 18.05 50.9 18.05 50.9 16.85 Q50.75 15.8 50.45 15.5 L50.2 15.85 50.5 16.8 50.5 18.1 50.35 18.7 49.75 19.45 49.8 19.5 49.65 21.15 49.55 21.45 49.35 21.95 49.25 22.05 48.7 20.65 Q48.3 19.1 48.65 18.05 L48.6 17.8 48.5 17.55 Q48.4 16.95 48.7 16.1 L49.0 15.7 49.05 15.6 48.95 15.4 49.1 14.55 49.25 14.15 M49.45 15.45 L49.2 15.85 49.1 17.0 49.4 16.25 50.1 18.5 50.25 16.95 50.15 15.8 49.85 15.5 49.7 15.45 49.45 15.45 M49.05 17.6 L48.95 18.5 Q48.85 19.75 49.25 20.45 L49.25 19.3 49.5 17.75 49.35 17.65 49.05 17.6" fill="#f2cc94" fill-rule="evenodd" stroke="none"/>
      <path d="M49.25 14.15 L49.1 14.55 48.95 15.4 49.05 15.6 49.0 15.7 48.7 16.1 Q48.4 16.95 48.5 17.55 L48.6 17.8 48.65 18.05 Q48.3 19.1 48.7 20.65 L49.25 22.05 49.35 21.95 49.55 21.45 49.65 21.15 49.8 19.5 49.75 19.45 50.35 18.7 50.5 18.1 50.5 16.8 50.2 15.85 50.45 15.5 Q50.75 15.8 50.9 16.85 L50.9 18.05 50.55 18.05 50.6 18.4 50.4 19.55 50.1 20.1 50.75 19.5 50.6 20.25 49.8 21.6 49.3 22.05 49.25 22.05 49.2 22.15 49.05 22.1 Q48.5 21.9 48.2 21.3 L47.95 20.8 Q47.6 19.75 48.0 18.75 L48.35 18.05 48.2 17.35 48.25 16.55 48.75 15.95 48.55 15.0 48.8 14.2 49.25 14.15 M46.85 22.25 Q47.35 21.95 47.5 22.0 L47.25 23.85 48.3 23.55 49.5 23.0 49.5 23.35 49.1 24.55 49.0 24.85 48.55 25.3 Q47.7 26.15 46.9 26.45 L47.15 25.85 47.65 25.15 47.05 25.6 46.95 25.55 Q47.25 24.85 47.65 24.7 L47.05 24.9 46.95 24.85 Q47.05 24.5 47.3 24.3 L45.95 25.0 46.0 24.9 47.0 23.85 46.85 23.8 46.2 24.05 46.25 23.95 46.95 23.2 46.8 23.15 Q46.0 23.35 45.8 23.75 46.2 22.8 46.85 22.25 M47.65 25.15 L47.8 25.05 47.7 25.0 47.65 25.15" fill="#b68232" fill-rule="evenodd" stroke="none"/>
      <path d="M51.7 19.85 L50.75 20.95 51.25 20.0 51.4 19.0 51.3 18.25 51.55 18.65 51.65 19.3 51.7 19.85 M50.15 14.9 L49.75 15.05 49.8 14.6 49.25 14.95 49.3 14.35 49.4 14.25 50.05 14.8 50.15 14.9 M49.05 17.6 L49.35 17.65 49.5 17.75 49.25 19.3 49.25 20.45 Q48.85 19.75 48.95 18.5 L49.05 17.6 M49.45 15.45 L49.7 15.45 49.85 15.5 50.15 15.8 50.25 16.95 50.1 18.5 49.4 16.25 49.1 17.0 49.2 15.85 49.45 15.45" fill="#fff0db" fill-rule="evenodd" stroke="none"/>
    </g>
    <radialGradient cx="0" cy="0" gradientTransform="matrix(0.0046, 0.0, 0.0, 0.005, 1.95, 15.2)" gradientUnits="userSpaceOnUse" id="gradient0" r="819.2" spreadMethod="pad">
      <stop offset="0.48627450980392156" stop-color="#fcd8a2"/>
      <stop offset="0.9137254901960784" stop-color="#cd9c51"/>
      <stop offset="1.0" stop-color="#b47f2f"/>
    </radialGradient>
    <radialGradient cx="0" cy="0" gradientTransform="matrix(0.0035, 0.0, 0.0, 0.0037, 5.75, 15.5)" gradientUnits="userSpaceOnUse" id="gradient1" r="819.2" spreadMethod="pad">
      <stop offset="0.48627450980392156" stop-color="#fcd8a2"/>
      <stop offset="0.9137254901960784" stop-color="#cd9c51"/>
      <stop offset="1.0" stop-color="#b47f2f"/>
    </radialGradient>
    <radialGradient cx="0" cy="0" gradientTransform="matrix(0.0051, 0.0, 0.0, 0.0054, 0.1, 20.6)" gradientUnits="userSpaceOnUse" id="gradient2" r="819.2" spreadMethod="pad">
      <stop offset="0.48627450980392156" stop-color="#fcd8a2"/>
      <stop offset="0.9137254901960784" stop-color="#cd9c51"/>
      <stop offset="1.0" stop-color="#b47f2f"/>
    </radialGradient>
    <radialGradient cx="0" cy="0" gradientTransform="matrix(0.0107, 0.0, 0.0, 0.0115, 43.6, 12.95)" gradientUnits="userSpaceOnUse" id="gradient3" r="819.2" spreadMethod="pad">
      <stop offset="0.48627450980392156" stop-color="#7e4b00"/>
      <stop offset="0.9137254901960784" stop-color="#b47518"/>
      <stop offset="1.0" stop-color="#c98724"/>
    </radialGradient>
    <radialGradient cx="0" cy="0" gradientTransform="matrix(0.0172, 0.0, 0.0, 0.0184, 47.9, 26.05)" gradientUnits="userSpaceOnUse" id="gradient4" r="819.2" spreadMethod="pad">
      <stop offset="0.48627450980392156" stop-color="#7e4b00"/>
      <stop offset="0.9137254901960784" stop-color="#b47518"/>
      <stop offset="1.0" stop-color="#c98724"/>
    </radialGradient>
    <radialGradient cx="0" cy="0" gradientTransform="matrix(0.0363, 0.0, 0.0, 0.0388, 17.0, 29.7)" gradientUnits="userSpaceOnUse" id="gradient5" r="819.2" spreadMethod="pad">
      <stop offset="0.48627450980392156" stop-color="#fff2b6"/>
      <stop offset="0.9137254901960784" stop-color="#e2b36a"/>
      <stop offset="1.0" stop-color="#d29a45"/>
    </radialGradient>
    <radialGradient cx="0" cy="0" gradientTransform="matrix(0.0201, 0.0, 0.0, 0.0215, 8.15, 33.6)" gradientUnits="userSpaceOnUse" id="gradient6" r="819.2" spreadMethod="pad">
      <stop offset="0.48627450980392156" stop-color="#fcf1a2"/>
      <stop offset="0.9137254901960784" stop-color="#cd9c51"/>
      <stop offset="1.0" stop-color="#b47f2f"/>
    </radialGradient>
    <radialGradient cx="0" cy="0" gradientTransform="matrix(0.0125, 6.0E-4, -5.0E-4, 0.0133, 10.75, 35.6)" gradientUnits="userSpaceOnUse" id="gradient7" r="819.2" spreadMethod="pad">
      <stop offset="0.48627450980392156" stop-color="#fcf1a2"/>
      <stop offset="0.9137254901960784" stop-color="#cd9c51"/>
      <stop offset="1.0" stop-color="#b47f2f"/>
    </radialGradient>
  </defs>
</svg>
