<svg xmlns="http://www.w3.org/2000/svg" xmlns:ffdec="https://www.free-decompiler.com/flash" xmlns:xlink="http://www.w3.org/1999/xlink" ffdec:objectType="frame" width="69.7" height="80.45"><g transform="translate(6.55 16.55)"><use ffdec:characterId="3" xlink:href="#a" width="53.3" height="50.75" transform="translate(.15)"/><clipPath id="b"><path fill="#623a3a" fill-rule="evenodd" d="M49.2 10.8q4.6 7.9 4.25 19.95-.15 8.6-1.95 14-1.95 5.9-5.3 5.85 1.7-1.45 1.9-3.8-2.1 2.9-5.7 3.4l-4.1-.2q7.95-3.65 7.65-19.25l-.3-5q-2.55.55-5.5-1.95-1.9-1.6-3.3-3.8.55 2.95 2.6 4.8 1.45 1.4 3.35 1.95-8.05 2.05-11.05-1.95-3.1-4-3.7-6.3l-.65-2.85q.55 6.4 2.65 8.65 2.05 2.25 3.2 2.7l-3.8.3q-4.9-.15-6.95-2.95-2.1-2.8-2.05-5.5v-1.5q-.75 3.7.25 5.95.95 2.25 3.3 4-8.7-1.75-9.95-5.75-.9-2.8-.45-4.3-1.15 2.25-1.25 4.55-.1 2.9.75 4.4-3.1-1.75-3.95-4.9l-.2 1.65-.15 2.7.2 2.3.15 1.35.1.7-1.45-1.85-.55-.95-.4 3.85Q6.5 35.1 8.1 42t6.85 7.95q-1.55 1.15-3.95.6-2.85-.7-5.1-3.8.2 2.35 1.15 3.8Q1.9 48 .6 39.35.15 36.4.15 26.4q0-6.6 2.4-12.7 3.3-8.35 10-11.15Q18.2.15 26.95 0q9.3.15 15.25 3.45 4.05 2.25 7 7.35"/></clipPath><g clip-path="url(#b)"><use ffdec:characterId="5" xlink:href="#c" width="69.7" height="80.45" transform="translate(-6.55 -16.55)"/></g></g><defs><radialGradient id="d" cx="0" cy="0" r="819.2" gradientTransform="translate(27.65 2.95)scale(.0245)" gradientUnits="userSpaceOnUse" spreadMethod="pad"><stop offset="0" stop-color="#fff8db" stop-opacity=".231"/><stop offset="1" stop-color="#fff" stop-opacity="0"/></radialGradient><radialGradient id="e" cx="0" cy="0" r="819.2" gradientTransform="translate(46.6 47.35)scale(.0208)" gradientUnits="userSpaceOnUse" spreadMethod="pad"><stop offset="0" stop-color="#a1a1a1" stop-opacity=".345"/><stop offset="1" stop-color="#a1a1a1" stop-opacity="0"/></radialGradient><radialGradient id="f" cx="0" cy="0" r="819.2" gradientTransform="translate(10 47.35)scale(.0208)" gradientUnits="userSpaceOnUse" spreadMethod="pad"><stop offset="0" stop-color="#a1a1a1" stop-opacity=".345"/><stop offset="1" stop-color="#a1a1a1" stop-opacity="0"/></radialGradient><path id="a" fill="#ccc" fill-rule="evenodd" d="M53.45 30.75q-.15 8.6-1.95 14-1.95 5.9-5.3 5.85 1.7-1.45 1.9-3.8-2.1 2.9-5.7 3.4l-4.1-.2q7.95-3.65 7.65-19.25l-.3-5q-2.55.55-5.5-1.95-1.9-1.6-3.3-3.8.55 2.95 2.6 4.8 1.45 1.4 3.35 1.95-8.05 2.05-11.05-1.95-3.1-4-3.7-6.3l-.65-2.85q.55 6.4 2.65 8.65 2.05 2.25 3.2 2.7l-3.8.3q-4.9-.15-6.95-2.95-2.1-2.8-2.05-5.5v-1.5q-.75 3.7.25 5.95.95 2.25 3.3 4-8.7-1.75-9.95-5.75-.9-2.8-.45-4.3-1.15 2.25-1.25 4.55-.1 2.9.75 4.4-3.1-1.75-3.95-4.9l-.2 1.65-.15 2.7.2 2.3.15 1.35.1.7-1.45-1.85-.55-.95-.4 3.85Q6.5 35.1 8.1 42t6.85 7.95q-1.55 1.15-3.95.6-2.85-.7-5.1-3.8.2 2.35 1.15 3.8Q1.9 48 .6 39.35.15 36.4.15 26.4q0-6.6 2.4-12.7 3.3-8.35 10-11.15Q18.2.15 26.95 0q9.3.15 15.25 3.45 4.05 2.25 7 7.35 4.6 7.9 4.25 19.95" transform="translate(-.15)"/><g id="c" fill-rule="evenodd"><path fill="url(#d)" d="M27.65-16.55q8.1 0 13.75 5.75 1.7 1.6 2.85 3.4 2.9 4.6 2.9 10.35 0 8.05-5.75 13.8-5.65 5.7-13.75 5.7-4.15 0-7.55-1.5-3.45-1.45-6.2-4.2Q8.15 11 8.15 2.95q0-8.1 5.75-13.75 5.75-5.75 13.75-5.75" transform="translate(6.55 16.55)"/><path fill="url(#e)" d="M60.65 38.6q2.5 3.85 2.5 8.75 0 6.8-4.95 11.7-4.75 4.85-11.6 4.85-3.55 0-6.4-1.25-3-1.25-5.3-3.6-4.85-4.9-4.85-11.7 0-6.9 4.85-11.7 4.9-4.85 11.7-4.85 6.85 0 11.6 4.85 1.5 1.35 2.45 2.95" transform="translate(6.55 16.55)"/><path fill="url(#f)" d="M24.05 38.6q2.5 3.85 2.5 8.75 0 6.8-4.95 11.7Q16.85 63.9 10 63.9q-3.55 0-6.4-1.25-3-1.25-5.3-3.6-4.85-4.9-4.85-11.7 0-6.9 4.85-11.7Q3.2 30.8 10 30.8q6.85 0 11.6 4.85 1.5 1.35 2.45 2.95" transform="translate(6.55 16.55)"/><path fill="#fff" fill-opacity=".498" d="m45.85 31.45.1.1-10.7 1.8-8.8.6q-10.65.35-16.9-1.35l-1.7-.5-1.3-1.25q2.8-4.3 2.95-4.3 1.45 1.45 6.8 2.8 7.4 1.85 18.95 2.15z"/><path fill="#adadad" fill-opacity=".741" d="m49.75 39.2-3.45-7.5 2.75 3.75 1.7 1.45q-1.1-3.05-2.8-5.85l-4.4-5.95.4.3q4.45 3.7 7.65 8.55 1.6 2.35 2.6 6.15.95 3.5.95 6.3 0 2.25-.75 5.95-.75 3.9-1.55 5.3-1.45 2.4-4.1 5.7l-2.8 2.6-.8-.75-.2-1.05q0-.3 3.8-5.7 3.8-5.35 3.8-10.95l-.15-3.55h-.25q-1.2 0-1.9-2.5l-.45-2.2zm-.3 4.1-.9.25q-2.55-.2-4.5-1.45-1.5-1-2.4-2.2-1.1-1.6-1.8-3.35-.6-1.55-.7-3.2l.1-2.4.25-1.95q1.75 3.1 3.15 6.3l2 3.9.55.9q1.4.25 2.55 1.15l1.15.9zm7.2 17.7q-1.7 6.95-12 6.95 3-1.05 5.95-3.9Q56.4 58.5 56.5 50l.4 5q.3 3.65-.25 6M11.4 39.55q.8-4.55 2.8-8.8l2.3-4-1.8 4.6q-1.95 5.6-2 11.55 0 3.75.65 7.5.65 4.05 2.3 7.85l2.05 5.2-.75.45-1.5-1.45q-2.4-3.8-3.45-8.4-.65-2.85-.95-5.45-.5-4.5.35-9.05m4.2-4.65q-.1 1.4.15 2.75.6 3.15.55 6.35 0 1.65.55 3.05l-.6.25-.55-.65q-1.6-3.35-1.7-7.1-.15-4.65 2.5-8.35zm17.85-3.7.3 2.1 1.65 3.95q2.65 5.4 7.6 8.8l-.7-.05q-4.7-.8-7.95-4.15-.7-.75-1-1.6-1.5-4.55.1-9.05m-14.4.3q1.9-2.8 4.45-4.95-3.25 5.25-3.65 11.3-.15 2.5.2 5.1l-.05.35-.2.15-.15.2h-.4l-.35-.05-.4-.75-.8-2.4q-1.35-4.8 1.35-8.95M9.8 60.75q-.45-2.15-.2-5.55l.35-4.5q.15 7.8 5 12.85 2.5 2.65 5 3.6-8.7 0-10.15-6.4M30.15 43.4q-3.65-.55-5.1-4.9-1.6-4.8 2.3-8.5-1.25 4.1-.1 8.3.75 2.9 2.85 4.95z"/></g></defs></svg>