<?xml version="1.0" encoding="UTF-8" standalone="no"?>
<svg xmlns:ffdec="https://www.free-decompiler.com/flash" xmlns:xlink="http://www.w3.org/1999/xlink" ffdec:objectType="frame" height="29.25px" width="41.6px" xmlns="http://www.w3.org/2000/svg">
  <g transform="matrix(1.0, 0.0, 0.0, 1.0, -1.6, 1.5)">
    <use ffdec:characterId="1" height="29.25" transform="matrix(1.0, 0.0, 0.0, 1.0, 1.6, -1.5)" width="41.6" xlink:href="#shape0"/>
  </g>
  <defs>
    <g id="shape0" transform="matrix(1.0, 0.0, 0.0, 1.0, -1.6, 1.5)">
      <path d="M39.4 14.8 Q37.05 22.75 30.45 25.75 L32.4 20.9 Q30.9 23.3 26.95 25.55 L26.65 20.95 Q26.75 23.85 23.0 27.45 20.05 25.85 18.3 23.4 19.3 25.35 19.95 27.75 15.8 26.55 13.75 23.1 L15.0 26.5 Q8.6 22.5 5.9 14.95 L7.05 22.6 Q0.3 13.15 1.9 3.15 L1.95 2.7 Q11.3 -1.8 23.1 -1.45 32.75 -1.15 42.95 3.25 44.4 12.7 38.15 21.7 L39.4 14.8" fill="#878767" fill-rule="evenodd" stroke="none"/>
    </g>
  </defs>
</svg>
