<svg xmlns="http://www.w3.org/2000/svg" xmlns:ffdec="https://www.free-decompiler.com/flash" xmlns:xlink="http://www.w3.org/1999/xlink" ffdec:objectType="frame" width="49.5" height="55.8"><use ffdec:characterId="3" xlink:href="#a" width="49.5" height="55.8"/><defs><radialGradient id="b" cx="0" cy="0" r="819.2" gradientTransform="matrix(.0699 0 0 .0506 27.65 5.95)" gradientUnits="userSpaceOnUse" spreadMethod="pad"><stop offset="0" stop-color="#914f00"/><stop offset=".525" stop-color="#f7b34d"/><stop offset="1" stop-color="#914f00"/></radialGradient><radialGradient id="c" cx="0" cy="0" r="819.2" gradientTransform="translate(47.7 36.2)scale(.0242)" gradientUnits="userSpaceOnUse" spreadMethod="pad"><stop offset="0" stop-color="#6d2a21" stop-opacity=".486"/><stop offset="1" stop-color="#4d3005"/></radialGradient><radialGradient id="d" cx="0" cy="0" r="819.2" gradientTransform="translate(35.85 21.6)scale(.0222)" gradientUnits="userSpaceOnUse" spreadMethod="pad"><stop offset="0" stop-color="#6d2a21" stop-opacity=".486"/><stop offset="1" stop-color="#4d3005"/></radialGradient><radialGradient id="e" cx="0" cy="0" r="819.2" gradientTransform="translate(31.05 22.3)scale(.0205)" gradientUnits="userSpaceOnUse" spreadMethod="pad"><stop offset="0" stop-color="#6d2a21" stop-opacity=".486"/><stop offset="1" stop-color="#4d3005"/></radialGradient><radialGradient id="f" cx="0" cy="0" r="819.2" gradientTransform="translate(27.35 15.05)scale(.0178)" gradientUnits="userSpaceOnUse" spreadMethod="pad"><stop offset="0" stop-color="#6d2a21" stop-opacity=".486"/><stop offset="1" stop-color="#4d3005"/></radialGradient><radialGradient id="g" cx="0" cy="0" r="819.2" gradientTransform="translate(27 23.95)scale(.0169)" gradientUnits="userSpaceOnUse" spreadMethod="pad"><stop offset="0" stop-color="#6d2a21" stop-opacity=".486"/><stop offset="1" stop-color="#4d3005"/></radialGradient><radialGradient id="h" cx="0" cy="0" r="819.2" gradientTransform="translate(9 18.2)scale(.0145)" gradientUnits="userSpaceOnUse" spreadMethod="pad"><stop offset="0" stop-color="#6d2a21" stop-opacity=".486"/><stop offset="1" stop-color="#4d3005"/></radialGradient><radialGradient id="i" cx="0" cy="0" r="819.2" gradientTransform="matrix(.02 0 0 .02 8.1 31.9)" gradientUnits="userSpaceOnUse" spreadMethod="pad"><stop offset="0" stop-color="#6d2a21" stop-opacity=".486"/><stop offset="1" stop-color="#4d3005"/></radialGradient><radialGradient id="j" cx="0" cy="0" r="819.2" gradientTransform="translate(4.95 37.75)scale(.0218)" gradientUnits="userSpaceOnUse" spreadMethod="pad"><stop offset="0" stop-color="#6d2a21" stop-opacity=".486"/><stop offset="1" stop-color="#4d3005"/></radialGradient><radialGradient id="k" cx="0" cy="0" r="819.2" gradientTransform="translate(19.1 22.5)scale(.0148)" gradientUnits="userSpaceOnUse" spreadMethod="pad"><stop offset="0" stop-color="#6d2a21" stop-opacity=".486"/><stop offset="1" stop-color="#4d3005"/></radialGradient><radialGradient id="l" cx="0" cy="0" r="819.2" gradientTransform="translate(11.2 23.9)scale(.0152)" gradientUnits="userSpaceOnUse" spreadMethod="pad"><stop offset="0" stop-color="#6d2a21" stop-opacity=".486"/><stop offset="1" stop-color="#4d3005"/></radialGradient><g id="a" fill-rule="evenodd"><path fill="url(#b)" d="M50.45 19.45q1.85 7.05-2.75 20.4l-1.65 6.45q-1.35 6.85.1 9.5-.9-.75-1.7-2.35-1.8-3.65-1-9.35.95-5.2 1.2-10.2-2.05.15-6-2.15l-2.75-1.8.95 1.3 1.7 1.75q-6.9-1.5-12.65-6.35-2-1.7-3.3-3.3.85 2.65 1.85 4.7 1.5 3 3.8 5.5-3.5-1.15-6.65-5.55l-1.4-2.2q1.4 4.05 3.9 7l-.35-.25q-8.05-5.6-10.25-14.7-.45-1.85-.6-3.45l-.3.8q-2.1 6.25-2.1 15.45 0 2.9.3 4.4l.4 1.25q-1.9-4.7-1.9-10.15 0-2.8.3-4.7l-.7 2.7q-.8 6.3.65 12.5l1.2 5.35q1.1 5.8.45 8.05Q11 43.9 9 38.2l.95 5.65q.5 6.6-1.75 11.25l-.1-1.95q-.3-2.55-1.5-5.3-4.25-9.8-5-20.15Q.35 10 12.95 5.5q4.4-3.7 10.65-5 12.5-2.65 22.6 9.2 2.4 2.7 4.25 9.75M44.7 33.9h-.05z" transform="translate(-1.5)"/><path fill="url(#c)" d="m49.75 19.1-.1-2.45.8 2.8q1.85 7.05-2.75 20.4l-1.65 6.45q-1.35 6.85.1 9.5l-.75-.8-.15-.25q-.9-2.05-.85-6.15.05-3.9 1.55-11.75l1.45-7.1q.25 3.2-1 10.1 3.55-11.6 3.35-20.75" transform="translate(-1.5)"/><path fill="url(#d)" d="M44.2 18.75q-.5-3.25-2.3-7.45L40.35 8q2.5 3 4.15 8.15 2.5 7.7 1.1 15.5v.05l-.15.75L44.5 36l.15-2.1h.05-.2l-.9-.05-.25-.05q-5.6-6.85-12.4-13.6l6.3 5.05q2.7 2.55 4.35 4.85l.1.05-1.85-2.9-1.55-2.6q1.35 2.1 4 4.95l2.3 2.3.05-1.35-3.95-4.8-5.45-6.95q4.65 3.75 9.4 11.3l-.1-2.7-2.15-2.55-2.05-2.25q1.1.65 2.65 1.1-4.8-3.25-11.55-10.2l-5.8-6.35q5.05 4.5 17.45 12.95L37.6 13l-4.15-4.85q5.15 3.75 10.75 10.6" transform="translate(-1.5)"/><path fill="url(#e)" d="M26.3 19.6q-5.85-5.9-7.5-8.8l12.55 12.55q7.45 7.5 11.9 10.45-1.85-.45-4.6-2.05l-2.75-1.8.3.4q-6.75-5.2-10.85-9.05l5.8 3.3z" transform="translate(-1.5)"/><path fill="url(#f)" d="M34.6 21.15Q20.95 8.55 16.9 6q3.3 1.75 7.55 4.8 6.95 5.1 11.4 10.65l2 2.7z" transform="translate(-1.5)"/><path fill="url(#g)" d="M22.6 23.35v.1q.85 2.6 1.85 4.6 1.5 3 3.8 5.5l-.3-.1q-1.75-1.8-5.05-6.8-3.3-5.1-5.8-12.35l2.75 4.5Q23.2 23.9 31 29.05q3.1 2.05 5.9 3.55-5.95-1.7-11-5.95-2-1.7-3.3-3.3" transform="translate(-1.5)"/><path fill="url(#h)" d="M13 8.2q-7.3 6.2-7.6 16.45-.05 2.3.2 4.35-1.8-10.6 1.95-16.85 2.3-3.7 5.25-4.7z" transform="translate(-1.5)"/><path fill="url(#i)" d="M6.7 20.65q.7-3.3 1.85-4.95L7.3 20.35q-.85 4.2-.4 7.9.45 3.65 2.35 10.7L9 38.2l.95 5.65.05 4.3Q9.7 44 7.45 35.55q-2.2-8.3-.75-14.9" transform="translate(-1.5)"/><path fill="url(#j)" d="M1.75 21.3q.6 8.05 2.3 12.85l.15.45q-.3-1.7-.45-3.7-.45-5.5-.45-8l.05-.75q.25 6.2 1.85 14.25 1.6 8 2.4 9.2 1.25 5.85.65 9.25l-.15-1.7q-.3-2.55-1.5-5.3-4.25-9.8-5-20.15-.25-3.85.1-7.05z" transform="translate(-1.5)"/><path fill="url(#k)" d="m17.45 22.95-1.65-4q-1.65-4.5-1.65-6.75l2.65 7q1.3 3.35 3.45 6.8 1.4 3.9 3.85 6.8l-.35-.25-1.45-1.05-1.7-2q-4.15-5.05-5.45-10.3l.75 1.45q.85 1.55 1.55 2.3" transform="translate(-1.5)"/><path fill="url(#l)" d="m12.7 15-.1.2q-2.1 6.25-2.1 15.45 0 2.9.3 4.4l.4 1.25-.3-.75q-2.05-7.85-.5-16.6.8-4.45 2.05-7.4l.1 2z" transform="translate(-1.5)"/><path fill="#fff" fill-opacity=".498" d="M42.35 9.8q1.3 1.65.8.8l-.25-2.25 2.4 4.15q2.35 5.1 2 9.95-.65-3.8-1.6-5.95.2 5.3-.55 9.05-.05-3-.7-6.8-1.35-7.6-4.4-11.55l-.1-.15zM22.3 2.15h2.15q4.2 0 7.7 2.35-1.85-.85-5.2-1.15-6.6-.55-13.9 2.45 1.5-1.4 4.25-2.7Q22.9.5 29.35.9q-5.55.4-7.05 1.25m5.8 16.1q-1.15-.6.65 1.65 1.75 2.25 4.85 5.4L22.4 14.9q-6.7-6.4-7.8-8.1 12.45 8.95 17.45 14.05L28.2 18.3zm-19.4-2.4-.45 3.4q-1.25 1.6-1.7 5.8l-.25 3.7q-.35-8.85 1.9-14.4 1.15-2.75 2.35-3.75-1.15 1.55-1.85 5.25M3 14.65q-.75.85-2.15 4.7 1.55-6.6 4.85-9.7 1.7-1.55 3.05-1.8-3.05 2.05-4.65 7-.8 2.5-1 4.6L3 16.2zm1.8 23.6 1.6 3.15v-.45l-.15-1.25.45 1.85.45 3.25-.2 2v.1L6 42.45zM19.3 16.1q6.5 9.05 13.8 14.25-4.05-2.25-8.45-6.15-8.8-7.85-10.45-16.05 1.8 3.45 5.1 7.95"/></g></defs></svg>