<?xml version="1.0" encoding="UTF-8" standalone="no"?>
<svg xmlns:ffdec="https://www.free-decompiler.com/flash" xmlns:xlink="http://www.w3.org/1999/xlink" ffdec:objectType="frame" height="68.85px" width="68.15px" xmlns="http://www.w3.org/2000/svg">
  <g transform="matrix(1.0, 0.0, 0.0, 1.0, 5.8, 15.0)">
    <use ffdec:characterId="1" height="68.85" transform="matrix(1.0, 0.0, 0.0, 1.0, -5.8, -15.0)" width="68.15" xlink:href="#shape0"/>
  </g>
  <defs>
    <g id="shape0" transform="matrix(1.0, 0.0, 0.0, 1.0, 5.8, 15.0)">
      <path d="M48.0 11.7 L45.25 11.9 Q43.9 12.6 32.65 8.6 L21.7 4.4 17.85 -1.55 24.6 -2.1 Q34.1 -1.9 40.5 2.3 45.95 5.85 47.85 11.2 L48.0 11.7" fill="url(#gradient0)" fill-rule="evenodd" stroke="none"/>
      <path d="M17.85 -1.55 Q16.25 -4.05 18.4 -7.3 18.0 -6.45 18.5 -4.65 18.85 -3.2 19.45 -2.15 L20.95 -3.25 Q24.65 -5.15 26.65 -8.35 28.65 -11.5 28.05 -14.3 L28.25 -13.75 Q28.9 -11.35 28.25 -7.9 27.45 -3.85 25.2 -3.35 L27.6 -3.55 Q29.65 -3.6 35.7 -8.25 41.9 -13.0 41.95 -15.0 L41.95 -14.8 Q41.75 -10.95 38.4 -7.4 35.55 -4.35 32.35 -3.15 L36.9 -2.7 Q42.8 -2.05 48.95 -3.6 53.85 -4.85 54.85 -6.3 L54.55 -5.6 54.4 -5.25 54.05 -4.75 Q52.15 -1.9 47.3 0.0 42.55 1.85 40.15 1.45 L41.35 2.15 Q42.6 2.85 44.05 3.25 50.1 4.8 55.1 4.35 59.2 4.0 61.3 2.5 58.9 5.05 55.05 6.6 51.8 7.9 48.45 8.15 L51.25 9.1 51.15 9.1 Q53.85 10.05 55.1 12.75 56.1 14.95 55.65 16.2 54.25 14.55 52.05 13.25 49.95 12.05 48.0 11.7 L47.85 11.2 Q45.95 5.85 40.5 2.3 34.1 -1.9 24.6 -2.1 L17.85 -1.55" fill="url(#gradient1)" fill-rule="evenodd" stroke="none"/>
      <path d="M19.45 -2.15 Q18.85 -3.2 18.5 -4.65 18.0 -6.45 18.4 -7.3 L18.65 -6.5 Q19.05 -5.15 19.4 -4.55 19.85 -3.75 20.6 -3.4 20.75 -3.25 20.95 -3.25 L19.45 -2.15 M28.05 -14.3 Q29.15 -12.35 29.4 -9.1 29.8 -4.9 27.6 -3.55 L25.2 -3.35 Q27.45 -3.85 28.25 -7.9 28.9 -11.35 28.25 -13.75 L28.05 -14.3 M38.2 -3.45 L36.9 -2.7 32.35 -3.15 Q35.55 -4.35 38.4 -7.4 41.75 -10.95 41.95 -14.8 42.45 -11.3 41.15 -7.9 40.0 -5.0 38.2 -3.45 M54.55 -5.6 L55.1 -6.95 Q54.0 -2.65 51.85 -0.05 50.4 1.65 48.65 2.55 L50.1 1.55 Q48.85 2.55 47.45 2.95 L47.25 3.05 45.35 3.3 45.1 3.3 44.05 3.25 Q42.6 2.85 41.35 2.15 L40.15 1.45 Q42.55 1.85 47.3 0.0 52.15 -1.9 54.05 -4.75 L54.4 -5.25 54.55 -5.6 M61.3 2.5 L61.5 2.35 62.35 1.25 Q61.95 3.0 58.4 6.1 54.4 9.55 51.65 9.2 L51.25 9.1 48.45 8.15 Q51.8 7.9 55.05 6.6 58.9 5.05 61.3 2.5" fill="#adadad" fill-rule="evenodd" stroke="none"/>
      <path d="M17.35 -2.05 Q22.25 -3.15 26.05 -1.7 L28.4 -1.3 Q35.8 -2.8 43.1 0.75 50.25 4.3 52.35 10.35 53.8 14.5 56.2 19.55 58.95 25.25 60.15 25.95 57.3 24.8 53.3 17.0 49.5 9.55 46.4 8.9 48.5 10.05 50.85 14.3 52.55 17.25 53.75 20.6 L53.55 20.4 Q55.6 24.5 55.05 30.05 54.55 35.2 52.4 37.9 53.3 35.5 53.05 32.1 52.85 28.15 51.15 24.35 52.8 30.05 50.35 39.35 48.05 48.0 43.8 52.55 46.9 49.05 49.0 41.8 51.3 33.75 49.9 29.45 50.3 31.85 48.2 40.75 46.1 49.65 43.8 52.55 L42.4 53.85 Q47.9 42.95 45.3 29.2 42.65 15.25 34.15 12.6 35.7 13.45 37.2 15.35 L38.4 17.1 38.7 17.6 39.05 18.15 39.1 18.2 39.2 18.35 39.3 18.6 39.45 18.95 Q40.7 22.25 39.1 26.8 37.5 31.35 32.75 37.7 L33.0 37.2 Q38.25 28.9 35.05 20.5 32.6 14.25 28.8 12.4 L30.6 15.15 Q31.85 17.3 32.05 18.25 L32.0 18.2 Q32.8 20.15 32.9 23.8 33.0 28.1 31.55 30.3 31.55 27.05 30.45 22.45 28.8 15.4 25.45 12.2 L23.8 10.6 Q19.05 13.25 17.35 20.7 16.05 26.55 17.05 30.3 12.75 25.4 14.25 16.95 15.0 14.5 16.0 12.2 17.1 9.65 17.75 8.9 15.7 10.05 13.2 13.0 9.9 16.85 8.05 21.5 2.8 34.95 11.55 49.7 6.55 47.6 4.55 38.95 2.8 31.35 4.05 23.45 4.7 21.25 5.4 20.65 3.75 21.4 2.45 24.4 1.0 27.7 1.2 31.45 -0.3 27.55 0.35 23.25 0.95 19.0 3.3 16.05 4.7 14.15 6.75 12.25 8.75 10.4 10.4 9.45 7.55 10.3 3.6 13.9 -0.15 17.35 -2.05 17.7 L-2.85 17.75 Q-4.95 17.85 -5.8 17.05 -4.1 17.0 -2.2 15.2 -0.4 13.45 3.05 8.7 9.1 -0.25 17.35 -2.05" fill="url(#gradient2)" fill-rule="evenodd" stroke="none"/>
      <path d="M43.6 52.75 L43.8 52.55 43.6 52.75" fill="url(#gradient3)" fill-rule="evenodd" stroke="none"/>
      <path d="M50.85 14.3 Q48.5 10.05 46.4 8.9 49.5 9.55 53.3 17.0 57.3 24.8 60.15 25.95 L60.4 26.05 Q59.7 26.45 57.25 24.75 54.6 22.9 53.75 20.65 L53.75 20.6 Q52.55 17.25 50.85 14.3 M49.9 29.45 Q51.3 33.75 49.0 41.8 46.9 49.05 43.8 52.55 46.1 49.65 48.2 40.75 50.3 31.85 49.9 29.45 M25.45 12.2 L24.7 12.9 Q22.7 15.0 20.7 18.7 18.55 22.6 17.65 26.05 16.95 28.4 17.05 30.3 16.05 26.55 17.35 20.7 19.05 13.25 23.8 10.6 L25.45 12.2 M37.2 15.35 Q35.7 13.45 34.15 12.6 42.65 15.25 45.3 29.2 47.9 42.95 42.4 53.85 43.95 48.0 43.65 38.8 43.2 27.25 39.45 18.95 L39.3 18.6 39.2 18.35 39.1 18.2 39.05 18.15 38.7 17.6 38.4 17.1 37.2 15.35 M30.6 15.15 L28.8 12.4 Q32.6 14.25 35.05 20.5 38.25 28.9 33.0 37.2 L34.05 33.45 Q35.05 28.3 34.0 23.4 L33.85 22.55 Q33.2 20.0 32.05 18.25 31.85 17.3 30.6 15.15 M16.0 12.2 Q15.0 14.5 14.25 16.95 L14.3 16.6 Q8.25 26.3 9.1 38.3 9.4 44.4 11.35 49.2 L11.55 49.7 Q2.8 34.95 8.05 21.5 9.9 16.85 13.2 13.0 15.7 10.05 17.75 8.9 17.1 9.65 16.0 12.2 M4.05 23.35 L3.8 23.8 Q3.2 24.6 2.4 26.9 1.6 29.25 1.2 31.45 1.0 27.7 2.45 24.4 3.75 21.4 5.4 20.65 4.7 21.25 4.05 23.45 L4.05 23.35 M6.75 12.25 Q4.7 14.15 3.3 16.05 2.0 17.0 -0.5 17.45 L-2.05 17.7 Q-0.15 17.35 3.6 13.9 7.55 10.3 10.4 9.45 8.75 10.4 6.75 12.25" fill="#adadad" fill-rule="evenodd" stroke="none"/>
      <path d="M33.5 9.95 Q18.05 8.1 8.6 3.45 9.65 1.5 14.25 -0.25 16.45 4.2 32.4 7.6 47.75 10.85 50.8 8.9 48.65 11.8 33.5 9.95" fill="#ffffff" fill-opacity="0.49803922" fill-rule="evenodd" stroke="none"/>
    </g>
    <linearGradient gradientTransform="matrix(0.0067, -0.0099, -0.0099, -0.0067, 40.55, -6.2)" gradientUnits="userSpaceOnUse" id="gradient0" spreadMethod="pad" x1="-819.2" x2="819.2">
      <stop offset="0.0" stop-color="#b6b6b6"/>
      <stop offset="0.6823529411764706" stop-color="#cccccc"/>
    </linearGradient>
    <linearGradient gradientTransform="matrix(0.0067, -0.0099, -0.0099, -0.0067, 43.1, -4.5)" gradientUnits="userSpaceOnUse" id="gradient1" spreadMethod="pad" x1="-819.2" x2="819.2">
      <stop offset="0.0" stop-color="#b6b6b6"/>
      <stop offset="0.6823529411764706" stop-color="#cccccc"/>
    </linearGradient>
    <radialGradient cx="0" cy="0" gradientTransform="matrix(0.0031, -0.0381, -0.0381, -0.0031, 26.6, 30.0)" gradientUnits="userSpaceOnUse" id="gradient2" r="819.2" spreadMethod="pad">
      <stop offset="0.4196078431372549" stop-color="#d9d9d9"/>
      <stop offset="1.0" stop-color="#b6b6b6"/>
    </radialGradient>
    <radialGradient cx="0" cy="0" gradientTransform="matrix(2.0E-4, 0.0, 0.0, 2.0E-4, 43.7, 52.65)" gradientUnits="userSpaceOnUse" id="gradient3" r="819.2" spreadMethod="pad">
      <stop offset="0.4196078431372549" stop-color="#d9d9d9"/>
      <stop offset="1.0" stop-color="#b6b6b6"/>
    </radialGradient>
  </defs>
</svg>
