<?xml version="1.0" encoding="UTF-8" standalone="no"?>
<svg xmlns:ffdec="https://www.free-decompiler.com/flash" xmlns:xlink="http://www.w3.org/1999/xlink" ffdec:objectType="frame" height="76.45px" width="66.85px" xmlns="http://www.w3.org/2000/svg">
  <g transform="matrix(1.0, 0.0, 0.0, 1.0, 5.7, 5.35)">
    <use ffdec:characterId="1" height="76.45" transform="matrix(1.0, 0.0, 0.0, 1.0, -5.7, -5.35)" width="66.85" xlink:href="#shape0"/>
  </g>
  <defs>
    <g id="shape0" transform="matrix(1.0, 0.0, 0.0, 1.0, 5.7, 5.35)">
      <path d="M29.7 -2.1 L28.35 -3.05 25.75 -3.4 Q27.0 -3.95 29.45 -3.05 31.7 -2.2 32.2 -1.25 L29.0 -1.1 25.45 -0.65 Q27.95 -1.8 29.7 -2.1 M37.8 -0.85 Q41.4 0.2 44.15 3.5 L41.2 1.5 Q39.2 0.35 38.4 0.35 L40.2 2.15 41.9 4.7 Q38.05 0.75 33.25 -1.0 L37.8 -0.85 M52.45 18.4 L56.2 21.5 Q58.15 23.6 59.7 26.7 59.7 24.0 57.7 21.15 58.95 22.15 59.75 23.7 60.6 25.4 60.95 27.8 61.55 31.7 60.5 34.95 60.5 31.7 59.85 29.6 59.3 28.15 58.15 26.7 L60.0 35.25 60.0 37.65 Q59.7 40.65 56.7 43.05 59.35 40.4 58.95 34.55 58.65 30.4 57.45 27.55 55.05 21.05 52.45 18.4 M41.05 15.75 L42.05 17.6 40.4 14.15 Q46.7 21.65 47.3 29.2 48.4 27.45 46.9 23.5 47.7 24.3 48.35 25.65 49.35 27.85 49.3 30.55 50.55 23.3 45.95 12.7 48.35 15.75 50.05 20.2 51.95 25.15 52.1 30.0 L51.9 33.85 Q52.6 32.95 53.0 31.2 L53.25 29.9 Q53.5 28.15 53.15 26.35 54.25 27.95 54.8 29.8 55.55 32.3 55.4 35.35 L56.15 33.85 56.45 32.8 Q56.75 31.5 56.55 29.2 58.2 32.85 56.4 37.75 L55.95 38.95 Q54.3 42.5 51.65 44.7 53.5 43.05 53.85 39.8 54.25 36.65 53.05 34.6 51.6 36.55 50.95 39.15 50.4 41.3 50.65 42.6 49.7 41.8 50.5 37.2 51.15 33.3 51.05 30.2 L51.0 30.2 Q51.2 34.35 49.8 38.2 48.05 43.0 45.0 44.7 48.9 42.0 47.9 32.85 48.0 36.3 46.1 39.8 L44.25 42.4 Q43.0 43.7 41.55 44.3 L43.0 42.85 Q44.5 39.65 45.25 35.35 L45.7 31.15 Q46.05 27.1 44.2 22.35 L43.4 20.55 43.75 21.7 Q44.8 24.6 45.0 27.1 45.2 29.2 44.8 30.55 L42.15 29.6 Q42.6 28.35 42.6 26.25 42.6 24.5 42.25 23.35 L43.05 25.9 Q43.6 28.15 43.45 29.2 44.0 27.25 43.05 22.35 42.15 17.9 41.05 15.75 M40.6 29.2 L39.25 28.95 38.35 28.85 37.3 28.8 Q37.5 26.5 37.05 23.1 36.6 19.7 35.65 16.65 L33.15 11.05 Q38.75 16.7 39.3 26.95 39.7 24.65 39.55 22.3 L39.1 19.3 Q40.35 21.45 40.75 24.85 41.15 27.95 40.6 29.2 M33.15 11.6 Q33.3 15.6 32.2 19.85 31.05 24.4 28.65 26.95 L26.5 28.7 24.35 28.75 26.6 25.85 Q28.25 23.25 28.6 21.2 28.0 25.3 25.35 28.1 27.1 28.1 29.65 23.3 32.65 17.65 33.1 10.5 L33.15 11.6 M23.9 21.15 Q21.85 26.75 18.85 28.35 L19.45 27.6 21.15 24.9 Q21.9 23.4 21.9 22.3 L20.6 25.0 20.1 26.05 Q18.75 27.95 16.8 28.65 15.4 29.25 13.9 29.05 17.35 26.75 19.05 23.2 21.05 19.2 21.5 12.25 21.6 15.85 21.3 17.9 20.95 20.55 19.8 23.0 19.1 24.55 17.0 26.65 15.0 28.65 13.9 29.05 17.35 29.05 20.25 24.55 21.9 22.0 22.8 19.15 22.85 20.9 21.9 24.15 L23.25 21.6 Q24.8 18.2 25.75 14.15 25.05 18.0 23.9 21.15 M25.95 24.3 Q24.7 27.15 23.3 28.75 L22.55 28.7 Q26.45 24.45 27.35 16.5 27.7 20.2 25.95 24.3 M9.0 20.0 L8.1 24.15 7.8 25.45 Q7.0 29.55 7.35 33.3 L7.55 35.05 Q8.2 38.7 9.8 41.2 L8.5 40.35 Q5.3 37.8 4.3 30.75 3.9 34.6 7.3 42.5 5.0 41.15 3.85 39.05 2.55 36.65 2.05 32.15 1.8 37.05 2.8 40.7 3.65 43.55 4.85 44.7 2.7 43.9 1.25 42.05 -1.1 39.0 -1.35 33.65 L-1.25 29.8 Q-0.7 22.2 3.3 13.75 7.85 4.3 11.7 2.7 7.75 6.4 4.05 15.2 0.7 23.15 0.2 29.9 L0.55 29.9 Q1.3 25.45 3.45 21.35 2.3 24.45 2.95 30.3 3.0 29.4 3.7 27.35 4.55 24.9 5.45 23.6 5.1 24.9 5.2 27.15 5.3 29.75 6.05 30.8 5.9 29.0 7.05 24.1 8.3 18.55 9.8 17.2 L9.55 18.0 9.0 20.0 M19.35 12.7 L19.05 13.95 16.5 21.45 Q14.15 27.45 12.1 29.05 L10.35 29.6 Q12.05 28.75 15.6 21.5 18.6 15.35 19.35 12.7 M9.3 46.8 L10.8 48.4 Q11.7 49.7 11.7 50.55 10.75 50.55 9.5 50.0 8.1 49.35 7.7 48.45 L10.25 49.35 9.3 46.8 M37.55 54.9 Q38.0 53.6 38.5 53.1 L38.3 54.75 38.3 55.8 39.7 54.9 40.45 54.2 40.05 55.3 39.2 56.2 Q38.15 57.1 37.2 57.35 37.0 56.55 37.5 55.05 L37.55 54.9 M35.45 59.75 L35.75 59.3 35.7 59.75 35.6 61.0 36.65 60.3 36.95 60.0 36.75 60.65 36.2 61.25 Q35.5 61.8 34.95 61.95 34.8 61.45 35.1 60.55 L35.45 59.75 M33.85 63.25 L34.1 63.2 34.5 63.55 34.75 63.3 34.55 63.75 34.2 64.15 33.4 64.6 Q33.3 64.3 33.5 63.65 L33.65 63.25 33.9 62.85 33.85 63.25 M-4.65 23.4 L-4.85 24.3 -4.95 24.8 Q-5.6 28.6 -5.15 34.8 -5.05 31.2 -4.4 28.9 -3.65 26.3 -1.95 24.55 -3.2 26.65 -3.8 31.0 L-4.05 33.2 -4.2 37.1 -3.8 40.4 -3.8 40.45 -3.6 40.9 Q-5.45 38.05 -5.65 32.2 -5.85 26.8 -4.65 23.4 M19.45 63.2 L19.5 63.2 19.45 62.85 19.7 63.25 19.9 63.65 20.0 64.6 19.2 64.15 18.95 63.9 18.65 63.3 19.05 63.65 Q19.2 63.25 19.45 63.2 M16.4 60.0 L16.9 60.4 17.75 61.0 17.75 59.75 17.65 59.3 17.95 59.75 18.3 60.55 18.45 61.95 17.2 61.25 16.8 60.85 16.4 60.0 M15.85 54.85 L15.9 55.05 Q16.4 56.55 16.15 57.35 15.25 57.05 14.2 56.2 L13.45 55.45 Q12.95 54.8 12.9 54.2 L13.8 54.95 15.1 55.8 15.1 54.75 14.9 53.1 15.85 54.85" fill="#c68e22" fill-rule="evenodd" stroke="none"/>
      <path d="M29.0 -1.1 L32.2 -1.25 Q31.7 -2.2 29.45 -3.05 27.0 -3.95 25.75 -3.4 L28.35 -3.05 29.7 -2.1 Q27.95 -1.8 25.45 -0.65 L29.0 -1.1 M37.8 -0.85 L33.25 -1.0 Q38.05 0.75 41.9 4.7 L40.2 2.15 38.4 0.35 Q39.2 0.35 41.2 1.5 L44.15 3.5 Q41.4 0.2 37.8 -0.85 M-1.4 41.9 Q-3.0 39.25 -3.5 36.65 -3.85 34.9 -3.8 31.0 -3.2 26.65 -1.95 24.55 -3.65 26.3 -4.4 28.9 -5.05 31.2 -5.15 34.8 -5.6 28.6 -4.95 24.8 L-4.85 24.3 -4.65 23.4 -4.45 22.65 Q-2.05 13.95 3.35 6.55 9.55 -1.95 16.8 -4.15 22.5 -5.9 27.05 -5.1 30.95 -4.4 32.85 -2.15 34.95 -4.25 41.45 -1.35 48.8 2.0 51.9 9.3 53.95 14.15 58.8 21.65 L59.75 23.7 Q58.95 22.15 57.7 21.15 59.7 24.0 59.7 26.7 58.15 23.6 56.2 21.5 L52.45 18.4 Q55.05 21.05 57.45 27.55 58.65 30.4 58.95 34.55 59.35 40.4 56.7 43.05 59.7 40.65 60.0 37.65 L60.0 35.25 60.1 35.75 Q60.4 40.8 56.3 43.35 L57.75 40.6 Q58.25 39.1 57.55 37.05 57.3 40.3 55.3 42.35 L54.55 43.0 55.4 40.7 55.95 38.95 56.4 37.75 Q58.2 32.85 56.55 29.2 56.75 31.5 56.45 32.8 L56.15 33.85 56.1 33.45 55.4 29.8 54.8 29.8 Q54.25 27.95 53.15 26.35 53.5 28.15 53.25 29.9 L52.15 30.0 52.1 30.0 Q51.95 25.15 50.05 20.2 48.35 15.75 45.95 12.7 50.55 23.3 49.3 30.55 49.35 27.85 48.35 25.65 47.7 24.3 46.9 23.5 48.4 27.45 47.3 29.2 46.7 21.65 40.4 14.15 L42.05 17.6 41.05 15.75 Q42.15 17.9 43.05 22.35 44.0 27.25 43.45 29.2 43.6 28.15 43.05 25.9 L42.25 23.35 Q42.6 24.5 42.6 26.25 42.6 28.35 42.15 29.6 L41.45 29.4 40.6 29.2 Q41.15 27.95 40.75 24.85 40.35 21.45 39.1 19.3 L39.55 22.3 Q39.7 24.65 39.3 26.95 38.75 16.7 33.15 11.05 L33.15 11.6 33.1 10.5 Q32.65 17.65 29.65 23.3 27.1 28.1 25.35 28.1 28.0 25.3 28.6 21.2 28.25 23.25 26.6 25.85 L24.35 28.75 26.5 28.7 22.75 28.75 21.3 28.6 23.75 24.1 Q26.15 18.7 25.75 14.15 24.8 18.2 23.25 21.6 L21.9 24.15 Q22.85 20.9 22.8 19.15 21.9 22.0 20.25 24.55 17.35 29.05 13.9 29.05 15.3 27.35 16.95 22.45 18.6 17.6 19.05 13.95 L19.35 12.7 Q18.6 15.35 15.6 21.5 12.05 28.75 10.35 29.6 L12.1 29.05 8.2 30.45 Q10.35 25.95 10.65 22.7 9.1 28.4 7.3 31.05 L7.35 33.3 Q7.0 29.55 7.8 25.45 L8.1 24.15 Q7.5 27.25 7.35 29.65 L7.3 30.55 Q8.25 28.15 8.9 24.9 9.85 20.5 9.55 18.0 L9.8 17.2 Q8.3 18.55 7.05 24.1 5.9 29.0 6.05 30.8 5.3 29.75 5.2 27.15 5.1 24.9 5.45 23.6 4.55 24.9 3.7 27.35 3.0 29.4 2.95 30.3 2.3 24.45 3.45 21.35 1.3 25.45 0.55 29.9 L0.2 29.9 Q0.7 23.15 4.05 15.2 7.75 6.4 11.7 2.7 7.85 4.3 3.3 13.75 -0.7 22.2 -1.25 29.8 L-1.85 29.8 -2.55 33.45 Q-3.0 37.7 -1.85 40.7 L-1.4 41.9 M13.9 29.05 Q15.0 28.65 17.0 26.65 19.1 24.55 19.8 23.0 20.95 20.55 21.3 17.9 21.6 15.85 21.5 12.25 21.05 19.2 19.05 23.2 17.35 26.75 13.9 29.05 M25.95 24.3 Q27.7 20.2 27.35 16.5 26.45 24.45 22.55 28.7 L23.3 28.75 Q24.7 27.15 25.95 24.3" fill="url(#gradient0)" fill-rule="evenodd" stroke="none"/>
      <path d="M54.55 43.0 L54.15 44.2 Q53.0 46.55 50.35 48.0 48.05 49.25 45.1 50.15 43.9 50.55 43.5 51.85 L42.6 55.3 Q42.0 56.9 40.5 57.3 L40.45 57.35 40.4 56.85 40.05 55.3 40.45 54.2 39.7 54.9 39.45 54.8 38.3 54.75 38.5 53.1 Q38.0 53.6 37.55 54.9 L36.45 55.55 36.35 54.45 Q36.2 52.55 36.9 51.1 37.75 49.3 40.35 47.85 42.9 46.35 43.8 43.8 L44.25 42.4 46.1 39.8 Q48.0 36.3 47.9 32.85 48.9 42.0 45.0 44.7 48.05 43.0 49.8 38.2 51.2 34.35 51.0 30.2 L51.05 30.2 Q51.15 33.3 50.5 37.2 49.7 41.8 50.65 42.6 50.4 41.3 50.95 39.15 51.6 36.55 53.05 34.6 54.25 36.65 53.85 39.8 53.5 43.05 51.65 44.7 54.3 42.5 55.95 38.95 L55.4 40.7 54.55 43.0 M56.15 33.85 L55.4 35.35 Q55.55 32.3 54.8 29.8 L55.4 29.8 56.1 33.45 56.15 33.85 M53.25 29.9 L53.0 31.2 Q52.6 32.95 51.9 33.85 L52.1 30.0 52.15 30.0 53.25 29.9" fill="url(#gradient1)" fill-rule="evenodd" stroke="none"/>
      <path d="M-1.25 29.8 L-1.35 33.65 Q-1.1 39.0 1.25 42.05 2.7 43.9 4.85 44.7 3.65 43.55 2.8 40.7 1.8 37.05 2.05 32.15 2.55 36.65 3.85 39.05 5.0 41.15 7.3 42.5 3.9 34.6 4.3 30.75 5.3 37.8 8.5 40.35 L8.85 42.2 Q9.05 43.25 10.45 45.15 11.85 47.0 14.7 48.3 17.55 49.55 17.3 53.25 L17.1 55.55 15.85 54.85 14.9 53.1 15.1 54.75 14.1 54.8 13.8 54.95 12.9 54.2 Q12.95 54.8 13.45 55.45 13.25 55.95 13.2 56.85 L13.2 57.35 13.05 57.3 Q11.6 56.9 10.95 55.3 L10.05 51.85 Q9.65 50.55 8.45 50.15 5.5 49.2 3.2 48.0 0.55 46.55 -0.6 44.2 L-1.4 41.9 -1.85 40.7 Q-3.0 37.7 -2.55 33.45 L-1.85 29.8 -1.25 29.8 M9.3 46.8 L10.25 49.35 7.7 48.45 Q8.1 49.35 9.5 50.0 10.75 50.55 11.7 50.55 11.7 49.7 10.8 48.4 L9.3 46.8" fill="url(#gradient2)" fill-rule="evenodd" stroke="none"/>
      <path d="M40.45 57.35 Q40.4 59.15 39.05 60.55 37.8 61.85 36.75 62.15 L36.8 61.15 36.75 60.65 36.95 60.0 36.65 60.3 Q36.5 59.85 36.2 59.8 L35.7 59.75 35.75 59.3 35.45 59.75 Q34.8 59.8 34.25 60.25 L34.25 60.05 Q34.2 58.8 34.8 57.8 35.7 56.2 36.35 55.6 L36.45 55.55 37.55 54.9 37.5 55.05 Q37.0 56.55 37.2 57.35 38.15 57.1 39.2 56.2 L40.05 55.3 40.4 56.85 40.45 57.35 M38.3 54.75 L39.45 54.8 39.7 54.9 38.3 55.8 38.3 54.75" fill="url(#gradient3)" fill-rule="evenodd" stroke="none"/>
      <path d="M36.75 62.15 L35.9 63.6 34.75 64.5 34.65 64.1 34.55 63.75 34.75 63.3 34.5 63.55 34.1 63.2 33.85 63.25 33.9 62.85 33.65 63.25 Q33.2 63.35 32.85 63.75 L32.8 63.25 Q32.75 62.45 33.15 61.75 L34.15 60.35 34.25 60.25 Q34.8 59.8 35.45 59.75 L35.1 60.55 Q34.8 61.45 34.95 61.95 35.5 61.8 36.2 61.25 L36.75 60.65 36.8 61.15 36.75 62.15 M35.7 59.75 L36.2 59.8 Q36.5 59.85 36.65 60.3 L35.6 61.0 35.7 59.75" fill="url(#gradient4)" fill-rule="evenodd" stroke="none"/>
      <path d="M20.75 63.75 L21.4 64.9 21.5 66.0 21.4 66.4 Q21.15 66.05 20.8 66.25 L20.4 66.8 20.35 66.8 19.25 65.9 Q18.8 65.25 18.85 64.5 L18.9 64.1 18.95 63.9 19.2 64.15 20.0 64.6 19.9 63.65 19.7 63.25 Q20.3 63.3 20.75 63.75" fill="url(#gradient5)" fill-rule="evenodd" stroke="none"/>
      <path d="M19.3 60.25 L19.4 60.35 20.4 61.75 Q20.8 62.45 20.8 63.25 L20.75 63.75 Q20.3 63.3 19.7 63.25 L19.45 62.85 19.5 63.2 19.45 63.2 Q19.2 63.25 19.05 63.65 L18.65 63.3 18.95 63.9 18.9 64.1 18.85 64.5 17.65 63.6 Q17.0 62.95 16.85 62.15 L16.75 61.15 16.8 60.85 17.2 61.25 18.45 61.95 18.3 60.55 17.95 59.75 Q18.7 59.75 19.3 60.25 M17.75 59.75 L17.75 61.0 16.9 60.4 Q17.05 59.85 17.35 59.8 L17.75 59.75" fill="url(#gradient6)" fill-rule="evenodd" stroke="none"/>
      <path d="M21.4 66.4 Q21.75 66.75 21.95 67.85 22.35 69.85 20.65 71.0 21.3 70.45 21.3 69.7 21.0 70.8 20.2 71.1 20.65 70.45 20.45 69.95 L20.05 68.75 Q19.95 68.0 20.25 67.15 L20.4 66.8 20.8 66.25 Q21.15 66.05 21.4 66.4" fill="url(#gradient7)" fill-rule="evenodd" stroke="none"/>
      <path d="M34.75 64.5 Q34.75 65.25 34.3 65.9 33.75 66.65 33.2 66.8 L32.75 66.25 Q32.4 66.05 32.15 66.4 L32.05 66.0 Q31.95 65.4 32.15 64.9 32.45 64.15 32.85 63.75 33.2 63.35 33.65 63.25 L33.5 63.65 Q33.3 64.3 33.4 64.6 L34.2 64.15 34.55 63.75 34.65 64.1 34.75 64.5" fill="url(#gradient8)" fill-rule="evenodd" stroke="none"/>
      <path d="M33.2 66.8 L33.3 67.15 Q33.6 68.0 33.5 68.75 L33.1 69.95 Q32.9 70.45 33.35 71.1 32.55 70.8 32.25 69.7 32.25 70.45 32.9 71.0 31.2 69.85 31.6 67.85 31.8 66.75 32.15 66.4 32.4 66.05 32.75 66.25 L33.2 66.8" fill="url(#gradient9)" fill-rule="evenodd" stroke="none"/>
      <path d="M17.1 55.55 L17.2 55.6 Q17.85 56.2 18.75 57.8 19.35 58.8 19.3 60.05 L19.3 60.25 Q18.7 59.75 17.95 59.75 L17.65 59.3 17.75 59.75 17.35 59.8 Q17.05 59.85 16.9 60.4 L16.4 60.0 16.8 60.85 16.75 61.15 16.85 62.15 Q15.8 61.85 14.5 60.55 13.15 59.2 13.2 57.35 L13.2 56.85 Q13.25 55.95 13.45 55.45 L14.2 56.2 Q15.25 57.05 16.15 57.35 16.4 56.55 15.9 55.05 L15.85 54.85 17.1 55.55 M15.1 54.75 L15.1 55.8 13.8 54.95 14.1 54.8 15.1 54.75" fill="url(#gradient10)" fill-rule="evenodd" stroke="none"/>
    </g>
    <linearGradient gradientTransform="matrix(-5.0E-4, 0.018, 0.018, 5.0E-4, 28.2, 14.2)" gradientUnits="userSpaceOnUse" id="gradient0" spreadMethod="pad" x1="-819.2" x2="819.2">
      <stop offset="0.0" stop-color="#ffd45d"/>
      <stop offset="1.0" stop-color="#e9a237"/>
    </linearGradient>
    <linearGradient gradientTransform="matrix(-5.0E-4, -0.0161, -0.0161, 5.0E-4, 46.65, 56.55)" gradientUnits="userSpaceOnUse" id="gradient1" spreadMethod="pad" x1="-819.2" x2="819.2">
      <stop offset="0.0" stop-color="#ffd45d"/>
      <stop offset="1.0" stop-color="#e9a237"/>
    </linearGradient>
    <linearGradient gradientTransform="matrix(-5.0E-4, -0.0161, -0.0161, 5.0E-4, 7.7, 57.8)" gradientUnits="userSpaceOnUse" id="gradient2" spreadMethod="pad" x1="-819.2" x2="819.2">
      <stop offset="0.0" stop-color="#ffd45d"/>
      <stop offset="1.0" stop-color="#e9a237"/>
    </linearGradient>
    <linearGradient gradientTransform="matrix(-5.0E-4, -0.0161, -0.0161, 5.0E-4, 37.25, 56.85)" gradientUnits="userSpaceOnUse" id="gradient3" spreadMethod="pad" x1="-819.2" x2="819.2">
      <stop offset="0.0" stop-color="#ffd45d"/>
      <stop offset="1.0" stop-color="#e9a237"/>
    </linearGradient>
    <linearGradient gradientTransform="matrix(-5.0E-4, -0.0161, -0.0161, 5.0E-4, 34.6, 56.95)" gradientUnits="userSpaceOnUse" id="gradient4" spreadMethod="pad" x1="-819.2" x2="819.2">
      <stop offset="0.0" stop-color="#ffd45d"/>
      <stop offset="1.0" stop-color="#e9a237"/>
    </linearGradient>
    <linearGradient gradientTransform="matrix(-5.0E-4, -0.0161, -0.0161, 5.0E-4, 19.95, 57.4)" gradientUnits="userSpaceOnUse" id="gradient5" spreadMethod="pad" x1="-819.2" x2="819.2">
      <stop offset="0.0" stop-color="#ffd45d"/>
      <stop offset="1.0" stop-color="#e9a237"/>
    </linearGradient>
    <linearGradient gradientTransform="matrix(-5.0E-4, -0.0161, -0.0161, 5.0E-4, 18.6, 57.45)" gradientUnits="userSpaceOnUse" id="gradient6" spreadMethod="pad" x1="-819.2" x2="819.2">
      <stop offset="0.0" stop-color="#ffd45d"/>
      <stop offset="1.0" stop-color="#e9a237"/>
    </linearGradient>
    <linearGradient gradientTransform="matrix(-5.0E-4, -0.0161, -0.0161, 5.0E-4, 20.7, 57.35)" gradientUnits="userSpaceOnUse" id="gradient7" spreadMethod="pad" x1="-819.2" x2="819.2">
      <stop offset="0.0" stop-color="#ffd45d"/>
      <stop offset="1.0" stop-color="#e9a237"/>
    </linearGradient>
    <linearGradient gradientTransform="matrix(-5.0E-4, -0.0161, -0.0161, 5.0E-4, 33.1, 57.0)" gradientUnits="userSpaceOnUse" id="gradient8" spreadMethod="pad" x1="-819.2" x2="819.2">
      <stop offset="0.0" stop-color="#ffd45d"/>
      <stop offset="1.0" stop-color="#e9a237"/>
    </linearGradient>
    <linearGradient gradientTransform="matrix(-5.0E-4, -0.0161, -0.0161, 5.0E-4, 32.15, 57.0)" gradientUnits="userSpaceOnUse" id="gradient9" spreadMethod="pad" x1="-819.2" x2="819.2">
      <stop offset="0.0" stop-color="#ffd45d"/>
      <stop offset="1.0" stop-color="#e9a237"/>
    </linearGradient>
    <linearGradient gradientTransform="matrix(-5.0E-4, -0.0161, -0.0161, 5.0E-4, 16.2, 57.5)" gradientUnits="userSpaceOnUse" id="gradient10" spreadMethod="pad" x1="-819.2" x2="819.2">
      <stop offset="0.0" stop-color="#ffd45d"/>
      <stop offset="1.0" stop-color="#e9a237"/>
    </linearGradient>
  </defs>
</svg>
