<?xml version="1.0" encoding="UTF-8" standalone="no"?>
<svg xmlns:ffdec="https://www.free-decompiler.com/flash" xmlns:xlink="http://www.w3.org/1999/xlink" ffdec:objectType="frame" height="32.55px" width="49.0px" xmlns="http://www.w3.org/2000/svg">
  <g transform="matrix(1.0, 0.0, 0.0, 1.0, 1.65, 9.15)">
    <use ffdec:characterId="1" height="32.55" transform="matrix(1.0, 0.0, 0.0, 1.0, -1.65, -9.15)" width="49.0" xlink:href="#shape0"/>
  </g>
  <defs>
    <g id="shape0" transform="matrix(1.0, 0.0, 0.0, 1.0, 1.65, 9.15)">
      <path d="M24.15 -8.95 Q33.25 -8.45 39.9 -5.75 46.8 -2.9 47.35 0.8 47.35 3.7 46.6 7.3 45.0 14.35 41.1 17.45 L41.5 15.6 Q41.75 13.4 40.9 11.55 40.85 13.15 40.05 15.35 38.5 19.7 34.75 22.35 L34.8 20.0 34.25 17.85 Q34.15 17.8 32.75 19.9 31.25 22.25 29.65 22.5 29.95 21.6 29.55 20.3 L29.15 19.2 26.3 22.0 Q25.45 19.85 24.55 19.5 23.8 20.95 21.0 23.4 L19.15 21.0 Q17.8 19.4 17.75 18.8 16.3 19.6 15.7 22.3 14.45 21.8 13.65 20.8 12.45 19.3 12.9 17.3 L11.7 18.85 Q10.45 20.55 10.25 21.65 L7.9 18.2 Q5.85 14.5 6.15 11.55 5.15 12.65 5.0 14.7 4.8 16.7 5.5 18.25 3.6 16.95 1.15 13.1 -2.5 7.6 -1.35 0.75 0.05 -4.75 7.8 -7.3 14.6 -9.55 24.15 -8.95" fill="#b0b0b0" fill-rule="evenodd" stroke="none"/>
      <path d="M16.2 21.2 L16.6 20.35 16.95 19.95 16.2 21.2 M30.6 22.3 L30.5 22.35 30.25 22.45 32.15 20.85 31.2 21.85 30.6 22.3 M6.75 -6.75 L7.0 -6.85 6.75 -6.45 7.25 -6.95 9.5 -7.75 14.35 -8.8 15.6 -8.8 16.6 -9.1 17.3 -9.15 19.2 -9.15 19.3 -9.1 Q19.45 -8.95 19.7 -8.95 L21.8 -9.05 22.9 -9.1 23.05 -9.1 24.9 -8.95 27.7 -8.6 31.6 -8.1 33.7 -7.65 36.9 -6.7 39.7 -5.8 39.75 -5.8 39.95 -5.65 Q40.45 -5.3 41.05 -5.3 L41.2 -5.2 Q42.55 -4.3 43.3 -4.1 L44.5 -3.4 44.9 -1.85 Q45.3 -0.1 45.3 1.6 L45.0 5.85 45.0 5.95 44.75 7.0 44.0 11.2 43.15 13.4 43.15 13.55 43.05 13.75 43.0 13.75 43.0 13.7 42.9 13.8 42.85 13.6 42.85 13.35 42.4 12.25 41.45 10.8 40.25 9.45 39.95 9.25 39.95 9.3 40.2 11.4 Q40.2 13.4 39.0 16.35 L38.5 17.45 37.4 18.75 35.7 20.1 35.7 20.15 35.7 19.45 Q35.7 16.85 34.55 15.3 L34.55 15.7 34.25 16.75 33.6 17.75 32.9 18.9 31.25 20.4 31.05 19.55 30.25 18.1 29.95 17.75 29.9 17.7 29.65 17.95 28.45 19.1 27.2 20.25 26.6 20.75 26.25 19.65 Q26.0 18.9 25.55 18.45 L25.1 18.05 24.6 17.85 24.3 17.8 23.7 19.55 22.8 20.7 21.55 21.6 21.0 21.15 20.8 20.9 19.95 20.0 19.45 19.4 Q18.65 17.9 18.15 17.9 17.7 17.9 16.9 18.65 L15.95 19.7 Q14.9 20.85 15.25 21.65 L14.0 20.1 13.95 19.05 14.15 17.05 13.85 17.15 14.05 16.9 Q14.05 16.45 13.6 16.45 13.1 16.45 12.1 17.35 L10.9 18.65 Q10.2 19.45 10.05 19.85 L10.05 19.95 10.0 19.9 9.1 18.45 8.45 17.25 7.85 16.0 7.0 13.45 Q6.7 12.4 6.7 11.15 L6.6 10.8 6.15 11.25 Q5.15 11.35 4.85 13.55 4.65 14.7 4.7 16.0 L4.75 17.3 4.8 17.55 Q4.25 17.15 3.35 15.45 L1.85 12.2 Q0.6 9.2 0.6 6.75 0.6 5.25 1.3 2.65 1.85 0.45 2.55 -1.15 3.85 -4.35 5.1 -6.15 L6.75 -6.75" fill="#8f8f8f" fill-rule="evenodd" stroke="none"/>
    </g>
  </defs>
</svg>
