<svg xmlns="http://www.w3.org/2000/svg" xmlns:ffdec="https://www.free-decompiler.com/flash" xmlns:xlink="http://www.w3.org/1999/xlink" ffdec:objectType="frame" width="81.3" height="73.9"><use ffdec:characterId="1" xlink:href="#a" width="81.3" height="73.9"/><defs><linearGradient id="b" x1="-819.2" x2="819.2" gradientTransform="matrix(.0496 0 0 .0451 22.5 14.85)" gradientUnits="userSpaceOnUse" spreadMethod="pad"><stop offset=".055" stop-color="#fff"/><stop offset=".243" stop-color="#e6e6e6"/><stop offset=".502" stop-color="#d2d2d2"/><stop offset=".733" stop-color="#e7e7e7"/><stop offset=".937" stop-color="#fff"/></linearGradient><linearGradient id="c" x1="-819.2" x2="819.2" gradientTransform="matrix(0 .0358 -.0295 0 21.95 9)" gradientUnits="userSpaceOnUse" spreadMethod="pad"><stop offset=".537" stop-color="#b6b7c7"/><stop offset="1" stop-color="#d9d9d9"/></linearGradient><g id="a" fill-rule="evenodd"><path fill="url(#b)" d="M21.85-22.1q7.55.2 11.9 2.4 3.4 1.75 6.4 5.7Q42-11.5 43-6.9l1.9 11Q47.45 20.55 58.2 22q-10.8 1.4-12.8-6.4l2.35 10.45q1.35 5.1 3.25 7.7 3.35 4.7 6.5 4.45 1.95-3.5-1.4-6.8 5.2 1.05 6.7 4.8.5 1.45.25 2.45-.2.9-1.2 2.05-2.2 2.45-7.8 2.1l-3.8-.95q3.7 5 10.35 3.55-4.2 4.4-11.9 2.1-3.45-1.1-6.15-3.65 2.95 6.1 9.05 7.25-5.55.9-11.45-3.4-4.85-3.55-6.95-9 .3 6.95 5.6 12.95-7.8-2.95-10.75-11.3-.5 5.75 3.05 11.45-7.8-3.8-8.6-13.2-.75 9.4-8.55 13.2 3.6-5.7 3.05-11.45-2.95 8.35-10.75 11.3 5.3-6 5.55-12.95-2.05 5.45-6.9 9-5.95 4.3-11.45 3.4 6.15-1.15 9-7.25-2.65 2.55-6.1 3.65-7.75 2.3-11.9-2.1 6.65 1.45 10.35-3.55l-3.8.95q-5.65.35-7.8-2.1-1.05-1.15-1.25-2.05-.25-1 .25-2.45 1.55-3.75 6.7-4.8-3.35 3.3-1.35 6.8 3.2.25 6.5-4.45 1.85-2.6 3.25-7.7l2.4-10.6q-2.05 8-12.85 6.55 5.75-.45 9.2-5.7T.15 1.45q.6-9.65 5.5-16.3 4.9-6.7 16.2-7.25" transform="translate(18.15 22.1)"/><path fill="#fff" d="m75.85 54.05-1-.4 1.35.4q2.25.65 3.5 2.3T81 59.1q.05 1.15-.05.1-1.35 1.45-5.6 1.2 3.15-.1 3.5-1.75.35-1.75-.85-2.9zM68.2 55.3q.15.9 1.45 3.2 1.45 2.55 2.9 3.05l-3.85-.45q-3.2-.7-4.45-1.9l-.05.05q.65 2 3.5 5.95-.45.8-4-.6-3.65-1.5-4.45-2.6l1.1 5.9q-.8-.25-4.1-2.25-3.3-1.95-4.1-4l-.8-2.25q1.45 2.75 7.3 6.5-.65-3.1-.75-4.8l.1-1.9q2.7 3.45 7.15 4.35-2.65-6.35-2.45-6.8 2.9 2.9 6.25 2.6l-.4-2zM21.05 67.45l1.1-5.85q-.4.85-3.7 2.2-3.75 1.5-3.9 1.2 1.95-4.2 2.6-6.2l-.05-.05-4.25 1.7q-2.5.85-4.05.8 1.3-.15 2.3-2.25l2.05-4.45-.6 2.25q-.3 1.55-1 2.85 4.2-.85 7.15-3.35.2.45-2.15 6.7 4.35-.75 6.8-4.25l.1 1.9q-.1 1.7-.9 4.6 5.95-3.2 7.45-6.3l-.75 2.25q-.8 2.05-4.1 4.05-3.3 1.95-4.1 2.2M34.5 62.2l-.1.1-.6 1.35-.7 1.2-.2.35-2.15 1.6-2.7 2.15q-.75.75.35-1.4 1.1-2.2 1.45-4.75l-.05 3.15 2.95-2.3q1-1.2 1.75-1.45m12.45.55-.05-.1q.7.25 1.55 1.35l3.5 3.3q-.55-3.9-.4-4.05.35 2.5 1.45 4.75 1.05 2.15.35 1.4-.7-.7-2.75-2.15l-2.1-1.65-.2-.3-.75-1.2zm-45.5-6.3q1.25-1.65 3.5-2.3l1.3-.4-.95.4q-1 .55-2.2 1.7Q1.95 57 2.3 58.7t3.5 1.8q-4.25.25-5.65-1.2-.1 1.05-.05-.1.05-1.1 1.35-2.75"/><path fill="#b6b7c7" d="M64.1 40q-.7-2-.75-5.3 3.25 9.1 12.5 9.5-7.7 1-11.75-4.2m11.25 13.85q2.85 1.35 3.4 2.7.6 1.35.15 2.55t-3.05 1.35l1-.35q1.4-.5 1.5-2.2.1-1.8-3-4.05M62.75 67.8q-1.8-1.25-2.65-2.7-1.5-2.55-2.4-5.15-.75-2.2-.95-4.65l.7 2q1.05 2.35 2.5 4.4 4.5 6.5 11.3 7.25h1.65q3.05-.15 5.75-1.4Q76.8 69.9 73 70.3l-3.4-.1q-4.05-.5-6.85-2.4m.35-9.95Q61.8 55 61.35 51.8q2.6 6.9 5.35 9.45 2.7 2.45 6.75 2.55h1.5l1.9-.25 2.25-.8 1.5-.9-.45.7-1.35 1.2q-1.1.7-3.25 1.1L72 64.9q-3-.45-4.85-1.7l-2-1.8q-.75-.75-2.05-3.55m-44.85 0q-1.35 2.8-2.05 3.55l-2 1.8q-1.85 1.25-4.85 1.7l-3.55-.05q-2.2-.4-3.25-1.1l-1.35-1.2-.45-.7 1.5.9q.95.55 2.25.8l1.85.25H7.9q4.05-.1 6.75-2.55 2.7-2.55 5.3-9.45-.4 3.2-1.7 6.05M30.6 50.1q.8 10.75-4.25 16.8-4.85 5.75-14.3 6.45 7.75-1.4 12.6-7.15 4.9-5.7 5.95-16.1m-9.35 15q-.9 1.45-2.65 2.7-2.8 1.9-6.85 2.4l-3.4.1q-3.8-.4-5.65-2.75 2.7 1.25 5.75 1.4h1.6q6.8-.75 11.35-7.25l2.45-4.4.75-2q-.2 2.45-1 4.65-.85 2.6-2.35 5.15m29.45-15q1.1 10.4 6 16.1 4.85 5.75 12.6 7.15-9.45-.7-14.3-6.45-5.05-6.05-4.3-16.8m-3.85-5.75Q46 55.4 48.3 62.55q2.2 7.2 8.6 11.25-8.25-4.05-10.45-11.25-2.35-7.5.4-18.2M2.45 59.1q-.45-1.2.15-2.55.5-1.35 3.4-2.7-3.15 2.25-3.05 4.05.1 1.7 1.55 2.2l1 .35q-2.65-.15-3.05-1.35M17.4 39.9q-4.05 5.2-11.7 4.2 9.25-.4 12.5-9.5-.05 3.3-.8 5.3m17.1 4.45q2.7 10.7.4 18.2-2.2 7.2-10.45 11.25 6.35-4.05 8.6-11.25 2.3-7.15 1.45-18.2"/><path fill="url(#c)" d="M24-20.3v-.05l4.5.75q5 1.2 7.65 3.55Q39.1-13.4 40.9-10q1.35 2.45 1.75 4.65l1.7 10-.2 4.7Q43.9 13.8 44 14.7q.15 2.15 1.35 7.75l-2.25-4.2q.25 3.1 1.45 7.15l1.6 4.05Q43 23.8 41.8 20.95v.1q-.25 1.8.2 3.25-1.55-2-1.6-4.35l-.35 3.45q-.35 3.55 1.65 9.5-4.1-8.05-4.7-11.15l-.05.05-.15 2.25q.9 4.85.5 4.85l-.15-.05-1.9-4.35v-.05q-.9-2.2-1.05-3.7l-.05.1q.45 9.4 2.4 13.1-2.15-1.55-4.6-8.1v-.05q-.4-1.6-.45-2.45l-.05.05-1 4.7-.35-1.65-.9-6.1-1.85 5.05q-1.15 3-1.15 3.35l-.65-2.15-1.2 4.5q-1.25 4.35-2.7 7.25-.1.2-.1-3.2l-.3-4.1-1.25 2.5q-2.1-8.85-3.2-10.95l-1.05-2.7-.95 6.8-.4 1.65-1-4.7-.05-.05q-.95 5.9-4.05 9.6 1.4-2.2 1.55-5.1.3-5.8-.15-7l-.05-.1-.35 2-.8 2.75-1.1 2.3q-.65 1-.75 1.4L8 27.5q.4-2.35-.1-5.45L7.85 22 6.7 27.55q-.55 2.1-2.3 5.6l.2-3.35.35-4.25-.2-2.8-2.85 6.1 1.1-7.5Q2.4 23.9.8 26.6l-3.05 3.75Q.4 25.4.9 22.85q.45-2.5.5-5.3Q1.45 14.8.85 9q-.6-5.85-.3-7.45l.6-2.85Q2.5-11.85 8.7-16.1q4.75-3.35 15.3-4.2" transform="translate(18.15 22.1)"/></g></defs></svg>