<?xml version="1.0" encoding="UTF-8" standalone="no"?>
<svg xmlns:ffdec="https://www.free-decompiler.com/flash" xmlns:xlink="http://www.w3.org/1999/xlink" ffdec:objectType="frame" height="58.4px" width="60.95px" xmlns="http://www.w3.org/2000/svg">
  <g transform="matrix(1.0, 0.0, 0.0, 1.0, 4.65, 6.3)">
    <use ffdec:characterId="1" height="47.85" transform="matrix(1.0, 0.0, 0.0, 1.0, 1.0, 0.65)" width="51.3" xlink:href="#shape0"/>
    <clipPath id="clipPath0" transform="matrix(1.0, 0.0, 0.0, 1.0, 0.0, 0.0)">
      <path d="M45.1 8.5 L47.1 10.45 Q52.3 16.3 52.3 21.9 52.3 24.65 51.6 27.45 L50.65 30.15 50.65 30.5 50.55 30.7 50.5 30.9 50.45 30.95 50.3 31.9 50.0 34.1 49.5 37.1 Q48.65 40.65 46.95 43.75 46.1 45.4 43.85 46.9 41.1 48.85 38.1 48.45 36.4 48.25 35.9 47.6 L36.5 47.7 37.4 47.6 38.55 47.1 39.8 46.05 41.2 43.95 41.9 42.0 42.05 41.65 42.25 41.0 42.5 39.8 42.75 38.55 Q43.8 33.8 43.35 27.75 L42.7 27.25 42.5 27.0 42.35 27.05 42.15 26.9 41.1 25.95 40.1 24.85 39.0 23.5 37.3 20.65 Q32.35 25.25 22.8 26.25 L19.1 26.6 10.55 27.55 10.55 27.65 10.35 27.65 Q9.85 27.75 9.8 27.95 L9.75 27.95 Q9.3 33.9 10.35 38.5 L10.6 39.75 10.85 40.95 11.05 41.6 11.2 41.95 11.9 43.9 13.3 46.0 14.55 47.05 Q15.1 47.4 15.7 47.55 L16.6 47.65 17.2 47.55 Q16.7 48.2 15.0 48.4 12.0 48.8 9.25 46.85 7.0 45.35 6.15 43.7 4.45 40.6 3.6 37.05 3.25 35.5 3.2 34.4 L3.0 32.25 2.95 31.9 2.95 31.85 2.8 30.0 2.65 29.55 2.65 27.6 2.35 26.95 Q1.0 23.6 1.0 21.95 1.0 20.55 1.3 19.2 1.75 17.2 2.85 15.2 4.2 12.65 5.9 10.6 L6.3 10.15 Q8.25 6.8 11.65 4.55 L13.2 3.6 Q18.45 0.85 26.15 0.65 30.8 0.55 34.9 1.7 40.8 3.35 44.15 7.35 L45.1 8.5" fill="#946749" fill-rule="evenodd" stroke="none"/>
    </clipPath>
    <g clip-path="url(#clipPath0)">
      <use ffdec:characterId="3" height="58.4" transform="matrix(1.0, 0.0, 0.0, 1.0, -4.65, -6.3)" width="60.95" xlink:href="#shape2"/>
    </g>
    <use ffdec:characterId="4" height="42.15" transform="matrix(1.0, 0.0, 0.0, 1.0, 2.45, 6.3)" width="49.8" xlink:href="#shape3"/>
  </g>
  <defs>
    <g id="shape0" transform="matrix(1.0, 0.0, 0.0, 1.0, -1.0, -0.65)">
      <path d="M45.1 8.5 L47.1 10.45 Q52.3 16.3 52.3 21.9 52.3 24.65 51.6 27.45 L50.65 30.15 50.65 30.5 50.55 30.7 50.5 30.9 50.45 30.95 50.3 31.9 50.0 34.1 49.5 37.1 Q48.65 40.65 46.95 43.75 46.1 45.4 43.85 46.9 41.1 48.85 38.1 48.45 36.4 48.25 35.9 47.6 L36.5 47.7 37.4 47.6 38.55 47.1 39.8 46.05 41.2 43.95 41.9 42.0 42.05 41.65 42.25 41.0 42.5 39.8 42.75 38.55 Q43.8 33.8 43.35 27.75 L42.7 27.25 42.5 27.0 42.35 27.05 42.15 26.9 41.1 25.95 40.1 24.85 39.0 23.5 37.3 20.65 Q32.35 25.25 22.8 26.25 L19.1 26.6 10.55 27.55 10.55 27.65 10.35 27.65 Q9.85 27.75 9.8 27.95 L9.75 27.95 Q9.3 33.9 10.35 38.5 L10.6 39.75 10.85 40.95 11.05 41.6 11.2 41.95 11.9 43.9 13.3 46.0 14.55 47.05 Q15.1 47.4 15.7 47.55 L16.6 47.65 17.2 47.55 Q16.7 48.2 15.0 48.4 12.0 48.8 9.25 46.85 7.0 45.35 6.15 43.7 4.45 40.6 3.6 37.05 3.25 35.5 3.2 34.4 L3.0 32.25 2.95 31.9 2.95 31.85 2.8 30.0 2.65 29.55 2.65 27.6 2.35 26.95 Q1.0 23.6 1.0 21.95 1.0 20.55 1.3 19.2 1.75 17.2 2.85 15.2 4.2 12.65 5.9 10.6 L6.3 10.15 Q8.25 6.8 11.65 4.55 L13.2 3.6 Q18.45 0.85 26.15 0.65 30.8 0.55 34.9 1.7 40.8 3.35 44.15 7.35 L45.1 8.5" fill="#946749" fill-rule="evenodd" stroke="none"/>
      <path d="M41.05 17.7 L41.3 17.65 41.0 17.8 40.95 17.8 Q40.35 17.75 41.05 17.7" fill="#ffffff" fill-opacity="0.09411765" fill-rule="evenodd" stroke="none"/>
      <path d="M48.1 15.0 L47.95 15.1 46.5 15.95 42.95 17.1 42.7 17.15 42.55 17.2 41.8 17.45 42.4 17.1 42.55 17.0 44.35 15.95 45.0 15.55 45.65 15.1 Q47.45 13.75 48.15 11.75 L48.75 12.45 49.3 13.1 49.6 13.7 48.1 15.0 M33.85 17.9 L33.1 18.2 25.1 18.65 Q19.9 18.65 15.5 17.55 11.1 16.4 8.35 14.7 6.15 13.8 4.6 12.4 L5.2 11.4 5.75 10.75 6.15 10.3 6.35 10.45 8.2 11.85 Q9.25 12.7 13.0 14.4 21.0 18.05 33.85 17.9" fill="#ffffff" fill-opacity="0.22352941" fill-rule="evenodd" stroke="none"/>
    </g>
    <g id="shape2" transform="matrix(1.0, 0.0, 0.0, 1.0, 4.65, 6.3)">
      <path d="M52.7 18.9 Q53.2 20.5 53.25 22.4 53.25 24.3 52.65 27.45 L52.15 29.65 Q51.45 30.5 50.65 34.25 49.35 40.55 48.9 41.65 47.25 45.5 43.95 47.75 L42.85 48.45 Q42.2 48.85 41.15 49.05 L36.25 49.9 Q35.75 50.0 33.85 50.85 L32.55 51.5 25.8 52.1 24.25 52.05 21.6 51.05 18.25 50.05 16.7 49.25 15.0 49.0 13.25 48.8 11.05 48.3 9.35 47.8 Q6.8 46.55 5.85 44.35 L4.55 40.7 Q3.85 39.35 3.35 37.15 L2.5 33.7 Q2.3 33.1 2.2 31.9 L2.05 30.15 2.05 29.85 2.05 28.8 Q2.05 26.4 0.2 23.3 L0.15 23.25 Q0.2 16.4 1.4 9.5 L2.05 5.75 3.75 3.75 Q12.6 -5.9 25.45 -6.3 38.3 -6.7 47.65 2.4 54.05 8.6 56.3 16.75 55.55 18.05 55.4 19.05 55.15 15.15 53.4 15.15 52.15 15.15 52.15 16.4 52.15 17.3 52.7 18.9" fill="url(#gradient0)" fill-rule="evenodd" stroke="none"/>
      <path d="M55.45 20.4 L55.45 20.25 55.5 20.4 55.45 20.4" fill="url(#gradient1)" fill-rule="evenodd" stroke="none"/>
      <path d="M-4.1 24.4 L-4.65 24.7 -4.55 22.85 -4.3 24.0 -4.1 24.4" fill="url(#gradient2)" fill-rule="evenodd" stroke="none"/>
    </g>
    <linearGradient gradientTransform="matrix(-0.0012, -0.039, 0.0379, -0.0011, 26.4, 25.65)" gradientUnits="userSpaceOnUse" id="gradient0" spreadMethod="pad" x1="-819.2" x2="819.2">
      <stop offset="0.0" stop-color="#2c0c00" stop-opacity="0.6"/>
      <stop offset="0.4470588235294118" stop-color="#4a1400" stop-opacity="0.31764707"/>
      <stop offset="0.8588235294117647" stop-color="#bf510c" stop-opacity="0.047058824"/>
    </linearGradient>
    <linearGradient gradientTransform="matrix(-0.0012, -0.039, 0.0379, -0.0011, 26.4, 25.65)" gradientUnits="userSpaceOnUse" id="gradient1" spreadMethod="pad" x1="-819.2" x2="819.2">
      <stop offset="0.3333333333333333" stop-color="#000000" stop-opacity="0.65882355"/>
      <stop offset="0.5686274509803921" stop-color="#000000" stop-opacity="0.0"/>
    </linearGradient>
    <linearGradient gradientTransform="matrix(-0.0012, -0.039, 0.0379, -0.0011, 26.4, 25.65)" gradientUnits="userSpaceOnUse" id="gradient2" spreadMethod="pad" x1="-819.2" x2="819.2">
      <stop offset="0.21176470588235294" stop-color="#000000" stop-opacity="0.65882355"/>
      <stop offset="0.5058823529411764" stop-color="#000000" stop-opacity="0.0"/>
    </linearGradient>
    <g id="shape3" transform="matrix(1.0, 0.0, 0.0, 1.0, -2.45, -6.3)">
      <path d="M41.55 7.6 L42.05 7.8 43.75 8.8 Q45.1 9.65 46.35 11.05 L49.35 15.15 Q51.15 17.85 51.75 20.1 L52.25 24.15 51.6 27.75 51.4 28.5 51.35 28.6 Q50.65 29.9 50.65 30.15 L50.75 30.7 50.15 31.95 49.95 30.55 49.75 29.0 49.55 28.25 Q48.75 24.85 46.75 20.55 44.75 16.25 41.35 12.9 38.6 10.2 38.05 9.8 L38.35 9.9 Q40.3 10.85 42.25 12.45 L44.65 14.75 47.5 18.25 49.75 21.55 50.3 22.7 49.8 20.95 48.35 17.1 Q47.3 14.7 43.7 11.3 40.05 7.9 37.2 7.2 L33.75 6.55 33.5 6.5 35.1 6.3 Q37.8 6.3 41.55 7.6 M44.9 20.65 L45.15 21.75 45.2 21.9 45.15 21.85 45.25 22.45 Q46.15 29.1 45.25 34.4 L45.25 34.6 45.2 34.75 44.65 37.65 43.8 41.6 43.5 42.75 43.25 43.85 41.9 46.0 Q40.7 47.55 39.3 47.65 L37.85 47.75 Q38.9 47.2 39.8 46.2 40.7 45.45 40.9 44.7 42.15 42.55 42.25 41.1 L42.3 41.05 42.95 37.6 43.3 34.2 43.35 33.0 43.4 30.7 43.25 27.8 44.35 25.6 Q45.0 23.9 44.8 21.2 42.9 17.9 41.1 16.2 L39.45 15.0 39.45 14.95 Q38.8 14.65 38.6 15.15 L38.6 15.25 38.9 15.5 Q40.25 16.65 40.8 17.95 L41.65 20.6 41.9 22.5 41.7 23.55 41.45 24.1 Q41.3 21.4 40.7 20.2 L39.25 17.8 39.55 19.0 39.55 20.0 38.9 22.9 Q39.3 23.8 38.8 23.15 L37.95 21.9 37.55 21.1 37.05 20.7 37.1 20.55 Q38.05 18.75 38.05 17.15 L37.95 15.9 37.5 17.35 Q36.95 18.6 35.15 20.4 33.35 22.2 29.75 23.7 26.1 25.2 22.15 25.95 L20.55 26.25 18.25 26.45 13.05 27.4 11.85 27.4 11.85 27.35 11.25 27.35 11.05 27.45 9.9 27.7 9.55 29.35 9.65 29.4 9.6 29.55 9.55 32.25 10.55 40.35 Q12.2 47.3 16.0 48.0 L15.2 48.2 Q10.5 48.2 8.95 41.75 L8.35 35.5 8.25 36.1 Q7.8 39.6 7.95 42.4 8.0 44.45 8.55 46.05 7.15 44.8 6.4 43.35 5.6 41.9 5.2 39.55 4.7 37.15 5.05 31.15 5.4 25.1 9.15 18.75 12.9 12.4 14.85 10.8 L12.8 14.1 Q6.7 25.0 6.7 36.45 L6.8 39.55 7.75 43.75 7.45 38.4 Q7.45 26.1 13.2 15.95 L13.6 15.25 15.05 12.9 Q17.8 8.8 20.25 7.1 L21.0 6.65 18.8 9.8 17.2 12.5 16.9 13.15 22.05 10.85 22.2 10.8 24.45 10.35 29.5 9.95 Q32.95 9.95 34.65 11.2 L35.15 11.55 35.05 11.2 Q35.05 9.55 36.7 9.95 37.85 10.2 38.2 10.6 L37.6 10.6 Q36.45 10.8 36.45 11.65 L36.6 12.3 36.7 12.45 Q36.95 13.05 37.75 13.05 L38.0 12.9 Q38.85 12.9 40.4 14.15 43.2 16.35 44.85 20.45 L44.9 20.65 M47.0 26.55 L47.0 26.05 47.4 27.15 48.45 30.3 48.8 32.45 Q48.45 38.4 47.6 40.85 L46.15 44.25 44.85 45.95 43.2 47.2 42.2 47.8 41.75 48.05 40.0 48.45 42.2 46.95 44.95 43.6 46.4 39.8 Q47.2 37.15 47.3 33.65 L47.2 28.65 47.0 26.55 M33.7 11.95 L30.25 11.4 Q27.2 11.2 23.35 12.55 19.5 13.9 17.9 14.65 16.3 15.35 15.1 16.25 L13.85 18.65 Q18.75 16.2 29.65 15.2 L36.85 14.8 36.9 14.4 36.2 14.1 Q34.9 12.7 27.7 13.15 L22.4 13.5 26.25 12.7 Q28.7 11.95 30.7 11.95 L33.7 11.95 M39.05 6.4 L38.7 6.3 38.75 6.3 39.05 6.4 M24.9 20.85 L27.75 19.65 25.4 21.45 23.1 22.6 20.35 23.5 17.5 24.15 14.6 24.45 11.45 24.45 11.05 25.85 15.55 25.8 22.35 24.9 Q24.8 24.45 27.5 23.45 30.15 22.4 32.35 21.2 L35.75 18.65 37.55 16.35 37.9 15.7 37.85 15.65 37.3 15.3 37.0 15.4 23.65 18.85 Q13.85 21.1 12.0 23.0 L16.65 22.75 20.45 22.15 Q22.95 21.65 24.9 20.85 M10.85 10.85 Q8.45 12.8 7.05 14.4 5.6 15.95 4.2 18.2 2.75 20.45 2.45 21.7 L2.75 20.4 3.45 17.95 Q4.3 15.4 5.95 13.65 7.55 11.85 10.15 10.15 12.75 8.4 15.5 7.55 13.25 8.85 10.85 10.85 M10.75 13.15 Q9.9 13.95 7.4 17.85 4.85 21.8 3.35 26.9 L2.75 28.95 2.55 26.6 Q2.9 21.5 6.05 17.7 9.2 13.85 10.75 13.1 L10.75 13.15" fill="#461700" fill-opacity="0.34901962" fill-rule="evenodd" stroke="none"/>
    </g>
  </defs>
</svg>
