<svg xmlns="http://www.w3.org/2000/svg" xmlns:ffdec="https://www.free-decompiler.com/flash" xmlns:xlink="http://www.w3.org/1999/xlink" ffdec:objectType="frame" width="112.4" height="68.45"><use ffdec:characterId="1" xlink:href="#a" width="112.4" height="68.45"/><defs><linearGradient id="b" x1="-819.2" x2="819.2" gradientTransform="matrix(-.0202 -.0114 -.0085 .0151 -10.6 6.75)" gradientUnits="userSpaceOnUse" spreadMethod="pad"><stop offset="0" stop-color="#d1d0e3"/><stop offset=".388" stop-color="#f7f3ea"/><stop offset=".651" stop-color="#f7f3ea"/><stop offset="1" stop-color="#d1d0e3"/></linearGradient><linearGradient id="c" x1="-819.2" x2="819.2" gradientTransform="matrix(.0202 -.0114 .0085 .0151 63.75 6.75)" gradientUnits="userSpaceOnUse" spreadMethod="pad"><stop offset="0" stop-color="#d1d0e3"/><stop offset=".388" stop-color="#f7f3ea"/><stop offset=".651" stop-color="#f7f3ea"/><stop offset="1" stop-color="#d1d0e3"/></linearGradient><linearGradient id="d" x1="-819.2" x2="819.2" gradientTransform="matrix(.0187 0 0 .0109 67.15 20.9)" gradientUnits="userSpaceOnUse" spreadMethod="pad"><stop offset="0" stop-color="#d1d0e3"/><stop offset=".388" stop-color="#f7f3ea"/><stop offset=".651" stop-color="#f7f3ea"/><stop offset="1" stop-color="#d1d0e3"/></linearGradient><linearGradient id="e" x1="-819.2" x2="819.2" gradientTransform="matrix(.0123 .0019 -.0011 .0071 67.75 32.8)" gradientUnits="userSpaceOnUse" spreadMethod="pad"><stop offset="0" stop-color="#d1d0e3"/><stop offset=".388" stop-color="#f7f3ea"/><stop offset=".651" stop-color="#f7f3ea"/><stop offset="1" stop-color="#d1d0e3"/></linearGradient><linearGradient id="f" x1="-819.2" x2="819.2" gradientTransform="matrix(.0047 .0067 -.0101 .0072 61.55 50.1)" gradientUnits="userSpaceOnUse" spreadMethod="pad"><stop offset="0" stop-color="#d1d0e3"/><stop offset=".388" stop-color="#f7f3ea"/><stop offset=".651" stop-color="#f7f3ea"/><stop offset="1" stop-color="#d1d0e3"/></linearGradient><linearGradient id="g" x1="-819.2" x2="819.2" gradientTransform="matrix(.02 .0115 -.0086 .015 -10.8 6.75)" gradientUnits="userSpaceOnUse" spreadMethod="pad"><stop offset="0" stop-color="#d1d0e3"/><stop offset=".388" stop-color="#f7f3ea"/><stop offset=".651" stop-color="#f7f3ea"/><stop offset="1" stop-color="#d1d0e3"/></linearGradient><linearGradient id="h" x1="-819.2" x2="819.2" gradientTransform="matrix(.0187 0 0 .0109 -14.2 20.9)" gradientUnits="userSpaceOnUse" spreadMethod="pad"><stop offset="0" stop-color="#d1d0e3"/><stop offset=".388" stop-color="#f7f3ea"/><stop offset=".651" stop-color="#f7f3ea"/><stop offset="1" stop-color="#d1d0e3"/></linearGradient><linearGradient id="i" x1="-819.2" x2="819.2" gradientTransform="matrix(.0132 -.0029 .0015 .007 -15.75 33.2)" gradientUnits="userSpaceOnUse" spreadMethod="pad"><stop offset="0" stop-color="#d1d0e3"/><stop offset=".388" stop-color="#f7f3ea"/><stop offset=".651" stop-color="#f7f3ea"/><stop offset="1" stop-color="#d1d0e3"/></linearGradient><linearGradient id="j" x1="-819.2" x2="819.2" gradientTransform="matrix(.0055 -.0045 .0079 .0096 -9.5 49.8)" gradientUnits="userSpaceOnUse" spreadMethod="pad"><stop offset="0" stop-color="#d1d0e3"/><stop offset=".388" stop-color="#f7f3ea"/><stop offset=".651" stop-color="#f7f3ea"/><stop offset="1" stop-color="#d1d0e3"/></linearGradient><linearGradient id="k" x1="-819.2" x2="819.2" gradientTransform="matrix(.02 .0115 -.0086 .015 -10.8 6.75)" gradientUnits="userSpaceOnUse" spreadMethod="pad"><stop offset=".31" stop-color="#e8e8e8" stop-opacity="0"/><stop offset="1" stop-color="#e7e7e7" stop-opacity=".498"/></linearGradient><linearGradient id="l" x1="-819.2" x2="819.2" gradientTransform="rotate(90 1 .85)scale(-.0053 .0056)" gradientUnits="userSpaceOnUse" spreadMethod="pad"><stop offset=".31" stop-color="#e8e8e8" stop-opacity="0"/><stop offset="1" stop-color="#e7e7e7" stop-opacity=".498"/></linearGradient><linearGradient id="m" x1="-819.2" x2="819.2" gradientTransform="matrix(.0083 .003 -.0029 .0079 -19.65 12.55)" gradientUnits="userSpaceOnUse" spreadMethod="pad"><stop offset=".31" stop-color="#e8e8e8" stop-opacity="0"/><stop offset="1" stop-color="#e7e7e7" stop-opacity=".498"/></linearGradient><linearGradient id="n" x1="-819.2" x2="819.2" gradientTransform="matrix(.0184 .0032 -.0018 .0107 -14.2 20.9)" gradientUnits="userSpaceOnUse" spreadMethod="pad"><stop offset=".31" stop-color="#e8e8e8" stop-opacity="0"/><stop offset="1" stop-color="#e7e7e7" stop-opacity=".498"/></linearGradient><linearGradient id="o" x1="-819.2" x2="819.2" gradientTransform="matrix(.0135 0 0 .0072 -15.55 33.15)" gradientUnits="userSpaceOnUse" spreadMethod="pad"><stop offset=".31" stop-color="#e8e8e8" stop-opacity="0"/><stop offset="1" stop-color="#e7e7e7" stop-opacity=".498"/></linearGradient><linearGradient id="p" x1="-819.2" x2="819.2" gradientTransform="matrix(-.0013 -.0048 .004 -.0011 -14.4 40.9)" gradientUnits="userSpaceOnUse" spreadMethod="pad"><stop offset=".31" stop-color="#e8e8e8" stop-opacity="0"/><stop offset="1" stop-color="#e7e7e7" stop-opacity=".498"/></linearGradient><linearGradient id="q" x1="-819.2" x2="819.2" gradientTransform="matrix(-.0055 -.0009 .0003 -.0019 -15.8 26.95)" gradientUnits="userSpaceOnUse" spreadMethod="pad"><stop offset=".31" stop-color="#e8e8e8" stop-opacity="0"/><stop offset="1" stop-color="#e7e7e7" stop-opacity=".498"/></linearGradient><linearGradient id="r" x1="-819.2" x2="819.2" gradientTransform="matrix(.0079 -.0076 .0086 .0089 -10.3 50.4)" gradientUnits="userSpaceOnUse" spreadMethod="pad"><stop offset=".31" stop-color="#e8e8e8" stop-opacity="0"/><stop offset="1" stop-color="#e7e7e7" stop-opacity=".498"/></linearGradient><linearGradient id="s" x1="-819.2" x2="819.2" gradientTransform="matrix(-.0202 .0115 -.0086 -.0151 64.25 7.65)" gradientUnits="userSpaceOnUse" spreadMethod="pad"><stop offset=".31" stop-color="#e8e8e8" stop-opacity="0"/><stop offset="1" stop-color="#e7e7e7" stop-opacity=".498"/></linearGradient><linearGradient id="t" x1="-819.2" x2="819.2" gradientTransform="matrix(0 -.0053 .0056 0 51.3 -.15)" gradientUnits="userSpaceOnUse" spreadMethod="pad"><stop offset=".31" stop-color="#e8e8e8" stop-opacity="0"/><stop offset="1" stop-color="#e7e7e7" stop-opacity=".498"/></linearGradient><linearGradient id="u" x1="-819.2" x2="819.2" gradientTransform="matrix(-.0184 .0036 -.0021 -.0107 67.15 20.9)" gradientUnits="userSpaceOnUse" spreadMethod="pad"><stop offset=".31" stop-color="#e8e8e8" stop-opacity="0"/><stop offset="1" stop-color="#e7e7e7" stop-opacity=".498"/></linearGradient><linearGradient id="v" x1="-819.2" x2="819.2" gradientTransform="matrix(-.0109 .0029 -.0022 -.0081 70.8 11.8)" gradientUnits="userSpaceOnUse" spreadMethod="pad"><stop offset=".31" stop-color="#e8e8e8" stop-opacity="0"/><stop offset="1" stop-color="#e7e7e7" stop-opacity=".498"/></linearGradient><linearGradient id="w" x1="-819.2" x2="819.2" gradientTransform="matrix(-.0124 -.0001 .0001 -.0071 67.6 35.65)" gradientUnits="userSpaceOnUse" spreadMethod="pad"><stop offset=".31" stop-color="#e8e8e8" stop-opacity="0"/><stop offset="1" stop-color="#e7e7e7" stop-opacity=".498"/></linearGradient><linearGradient id="x" x1="-819.2" x2="819.2" gradientTransform="matrix(-.0077 -.0096 .0097 -.0078 64.65 49.3)" gradientUnits="userSpaceOnUse" spreadMethod="pad"><stop offset=".31" stop-color="#e8e8e8" stop-opacity="0"/><stop offset="1" stop-color="#e7e7e7" stop-opacity=".498"/></linearGradient><linearGradient id="y" x1="-819.2" x2="819.2" gradientTransform="matrix(.0056 0 0 .0019 68.8 26.95)" gradientUnits="userSpaceOnUse" spreadMethod="pad"><stop offset=".31" stop-color="#e8e8e8" stop-opacity="0"/><stop offset="1" stop-color="#e7e7e7" stop-opacity=".498"/></linearGradient><linearGradient id="z" x1="-819.2" x2="819.2" gradientTransform="matrix(.0009 -.0043 .004 .0008 67.45 40.8)" gradientUnits="userSpaceOnUse" spreadMethod="pad"><stop offset=".31" stop-color="#e8e8e8" stop-opacity="0"/><stop offset="1" stop-color="#e7e7e7" stop-opacity=".498"/></linearGradient><linearGradient id="B" x1="-819.2" x2="819.2" gradientTransform="matrix(0 .033 -.0337 0 26.55 26.7)" gradientUnits="userSpaceOnUse" spreadMethod="pad"><stop offset="0" stop-color="#e7e7e7" stop-opacity="0"/><stop offset=".702" stop-color="#e7e7e7" stop-opacity=".498"/><stop offset="1" stop-color="#e7e7e7" stop-opacity=".498"/></linearGradient><linearGradient id="C" x1="-819.2" x2="819.2" gradientTransform="matrix(.0044 .0096 -.009 .0041 50.4 12.85)" gradientUnits="userSpaceOnUse" spreadMethod="pad"><stop offset="0" stop-color="#b26a23"/><stop offset=".247" stop-color="#ffca66"/><stop offset=".506" stop-color="#fff"/><stop offset=".749" stop-color="#ffca66"/><stop offset="1" stop-color="#b26a23"/></linearGradient><linearGradient id="D" x1="-819.2" x2="819.2" gradientTransform="matrix(-.0044 .0096 .009 .0041 2.6 12.85)" gradientUnits="userSpaceOnUse" spreadMethod="pad"><stop offset="0" stop-color="#b26a23"/><stop offset=".247" stop-color="#ffca66"/><stop offset=".506" stop-color="#fff"/><stop offset=".749" stop-color="#ffca66"/><stop offset="1" stop-color="#b26a23"/></linearGradient><radialGradient id="A" cx="0" cy="0" r="819.2" gradientTransform="translate(26.3 19.8)scale(.037)" gradientUnits="userSpaceOnUse" spreadMethod="pad"><stop offset="0" stop-color="#fcf1ef"/><stop offset=".769" stop-color="#f9f9f9"/><stop offset="1" stop-color="#e5e5e5"/></radialGradient><g id="a" fill-rule="evenodd"><path fill="url(#b)" d="M2.1-5.3q4 3.7 6.1 8.45l1.15 3.1-1.5 1.5-1.6-3.95Q4.4-.05 2.35-2.8L.8-4.7l.75-.4z" transform="translate(29.7 7.45)"/><path fill="url(#c)" d="m51.6-5.1.75.4.05.05q.4 1.25-.55 7.35L54.6.05Q66.35-8.9 76-7.2l1.35 1.5Q78.4-3.6 77.3 0l2.6 1.25q2.7 1.5 2.8 3.3.15 1.9-2.6 5.15l-3.55 3.5q3.05-3.7 4.3-7.35-2.9.2-6.55 1.3l-2.65.8q-2.1.65-4.05 1.5-8 3.3-13.85 8.9l-1 1.6q-.6 1.15-1.25 1.05-.75-.15-.65-1.9l.2-1.65q-2.45-1.7-3.45-1.9-.7-.1-.55-1.1l.3-1.05q-.35-.5-1.5-1-.75-.25-.9-1.65l-.1-1.45 5.25-4.95q.9-5.3.7-7.15-2.05 2.75-3.9 6.6-1.1 2.25-1.6 4.05l-1.55-1.3 1.2-3.4q2.1-4.75 6.1-8.45z" transform="translate(29.7 7.45)"/><path fill="url(#d)" d="M82.5 13.7q-.55 2.25-3.25 5.3l.25.95.6 1.3q.4.65.45 3.05.1 2.5-.65 2.4l-3.6-1.05-2.9-.25-5.1.5-.45.05q-8.05 1.1-12.65 3.85l-1-.2q-1-.55-.6-1.9-1.8-.8-1.75-2.7l8.35-5.35q3.95-2.1 8.05-3.7 4-1.6 8.15-2.6v-.05h.1l6-1.3z" transform="translate(29.7 7.45)"/><path fill="url(#e)" d="m56.5 33.65-.05-1.35 1.8-1.25q2.4-1.5 5.25-2.35l.7-.2 3.55-.7q7.05-1.05 14.9 2-1.25 1.45-2.45 1.55-.75 0-1 1.4-.3 1.45-.65 1.65-2.05 1.05-2.45 2.4l-.15 1.65q-.1.6-.65.65l-.5-.15-4.65-1.05-.05-.05Q64.3 37 57.5 39.3q-.75-.65-.5-2.05l.65-1.45q-.9-.7-1.15-2.15" transform="translate(29.7 7.45)"/><path fill="url(#f)" d="m57.8 43.85 1.65-.55q.95-.4.35-2.65 2.8 1.5 4.65 3.9 2.7 3.4 3.35 8.55.65 4.35-.05 7.9-.3-3.55-1.9-7.25-3.05-7.35-9.4-7.95.45-1.4 1.35-1.95" transform="translate(29.7 7.45)"/><path fill="url(#g)" d="m8.15 9.3-.1 1.45q-.1 1.15-.65 1.55l-.25.1q-.95.4-1.35.85l-.15.15.3 1.05q.15 1-.55 1.1l-.05.05-.9.3q-.95.5-2.5 1.55l.2 1.65v1q-.15.8-.65.9-.65.1-1.25-1.05l-1-1.6q-5.85-5.6-13.85-8.9l-2.75-1.05-1.3-.45-2.65-.8q-3.65-1.1-6.55-1.3 1.25 3.65 4.3 7.35l-3.55-3.5q-1.95-2.3-2.45-3.95l-.15-1.2.05-.3q.25-1.4 2.1-2.6l.65-.4L-24.3 0v-.1l-.4-1.65q-.3-1.5-.05-2.7l.4-1.25L-23-7.2Q-13.35-8.9-1.6.05z" transform="translate(29.7 7.45)"/><path fill="url(#h)" d="M-7.2 19.65 1.15 25q.05 1.65-1.3 2.45l-.45.25.05.1q.25.95-.25 1.5l-.4.3-1 .2q-4.6-2.75-12.65-3.85l-.45-.05-5.1-.5-2.9.25q-2.7 1.05-3.6 1.05-.75.1-.65-2.25v-.15q.05-2.4.45-3.05l.6-1.3.25-.95-2.05-2.7q-.9-1.4-1.2-2.6V12l6 1.3h.1v.05q4.15 1 8.15 2.6 2.6 1 5.2 2.25z" transform="translate(29.7 7.45)"/><path fill="url(#i)" d="m-25.55 34.4-.65-1.65q-.25-1.4-1-1.4l-1-.3-1.45-1.25q7.85-3.05 14.9-2l3.55.7.7.2q2.85.85 5.25 2.35l1.8 1.25-.05 1.35-.3 1.1-.85 1.05.65 1.45q.15.7 0 1.25l-.5.8q-6.8-2.3-12.6-1.45l-.05.05-3.45.7-1.2.35-.5.15q-.55-.05-.65-.65v-.15l-.15-1.5-.25-.6q-.6-1-2.2-1.8" transform="translate(29.7 7.45)"/><path fill="url(#j)" d="M-6.8 40.65q-.3 1.05-.2 1.7.05.75.55.95l1.65.55.15.1q.8.55 1.2 1.85-6.35.6-9.4 7.95-1.6 3.7-1.9 7.25l-.05-.25q-.6-3.45 0-7.65.65-5.15 3.35-8.55L-10 43q1.5-1.45 3.2-2.35" transform="translate(29.7 7.45)"/><path fill="#abb1d3" d="m93.9 35.95 4.1-2.6 5.1-.5-5.65 2.4zm7.45-20.55 2.65-.8q3.65-1.1 6.55-1.3-1.25 3.65-4.3 7.35l-.05.1h-.1v.05q-4.15 1-8.15 2.6-4.1 1.6-8.05 3.7l4.15-4.4q4.05-4.45 3.25-5.8 1.95-.85 4.05-1.5M99.8 45.3l.05.05 4.65 1.05q-.95 1.75-2.85 3.2-3.3 2.5-7.5 2.4-1.85-2.4-4.65-3.9 5.2.85 8.3-.9 1.55-.8 2-1.9M18.35 22.7l4.15 4.4-2.85-1.45q-2.6-1.25-5.2-2.25-4-1.6-8.15-2.6v-.05h-.1l-.05-.1q-3.05-3.7-4.3-7.35 2.9.2 6.55 1.3l2.65.8 1.3.45 2.75 1.05q-.8 1.35 3.25 5.8M7.9 46.4l1.2-.35 3.45-.7.05-.05q.45 1.1 2 1.9 3.1 1.75 8.3.9-1.7.9-3.2 2.35L18.25 52q-4.2.1-7.5-2.4-1.9-1.45-2.85-3.2m7.05-11.15-5.65-2.4 5.1.5 4.1 2.6z"/><path fill="#bbb9df" d="M100.45 6.8q4.8-1.75 7-1.1l-.4 1.65q-2.7-.2-7.6 1.65-9.75 3.85-21.2 14.35l-.85-.3q13.4-12.5 23.05-16.25m7-3.8q-3.25.05-8.7 2.3-10.85 4.4-21.8 15.4-.45-.45-1.4-.85l-.25-.1Q85.95 8.35 96.8 3.2q5.55-2.6 8.9-2.95l1.35 1.5zM30.5 2.75l1.55 1.9q-.2 1.85.7 7.25l-1.7-1.6q-1-6.25-.6-7.5zm51.55 0 .05.05q.4 1.25-.6 7.5l-1.7 1.6q.9-5.4.7-7.25zM110.3 9.1q1.8 1.2 2.1 2.6-4.3-.55-10.45 1.15-12.2 3.45-21.35 14.7-.1-.4-.05-1l.05-.1v-.3q8.25-10.85 19.65-15 5.85-2.1 10.05-2.05m-1.15 18.1-7.4.2q-9.2 1.55-18.45 7.85v-.1l-.45-.25q7.2-6.1 18.4-9.2 5.65-1.65 9.8-1.95l-2.1 2.7zm1.1 4.7q.1 2.35-.65 2.25L106 33.1l-2.9-.25-5.1.5-.45.05q-8.05 1.1-12.65 3.85l-1-.2-.4-.3q11.75-6 20.5-5.95 4.25 0 6.25 1.1m-22.8 11.35-.55-.6q6.45-5.3 15.2-5.1 4.4.1 7.55 1.35-.45.25-.65 1.3-.3 1.4-.6 1.65-1.7-1.2-5.2-1.6-6.9-.85-15.75 3.05zm.05 8.05 1.65-.55q.5-.2.6-.95l1.3.6q1.5.95 2.7 2.6 4.05 5.4 3.75 15.2-.8-10.35-5.6-14.6-1.4-1.35-3.1-1.9l-1.4-.3zm-.8-6.6.1-.25q9.3-4 15.2-2.75 2.95.5 4.1 1.95l-.3.6-.1 1.5q-1.35-1.15-4.35-1.8-6.1-1.15-14.65 2-.15-.55 0-1.25M31.8 26.15l.05 1.4q-9.2-11.25-21.4-14.7Q4.3 11.15.05 11.7q.25-1.4 2.1-2.6 4.15-.05 10 2.05 11.4 4.15 19.65 15m3.25-3.1-.9.3Q22.7 12.85 12.95 9 8.05 7.15 5.4 7.35L5 5.7q2.15-.65 6.95 1.1 9.65 3.75 23.1 16.25m2.05-3.3-.25.1q-.95.4-1.35.85-11-11-21.85-15.4Q8.2 3.05 4.95 3l.4-1.25L6.7.25q3.35.35 8.9 2.95 10.85 5.15 21.5 16.55m-35.7 4q4.1.3 9.75 1.95 11.2 3.1 18.4 9.2l-.45.25.05.1q-9.3-6.3-18.5-7.85l-7.4-.2.2-.75zm5.2 20.5-.25-.6q1.1-1.45 4.05-1.95 5.9-1.25 15.2 2.75l.1.25q.15.7 0 1.25-8.55-3.15-14.65-2-3 .65-4.3 1.8zM3.5 40.2q-.2-1.1-.7-1.3 3.15-1.25 7.55-1.35 8.8-.2 15.25 5.15l-.55.55.05.05q-8.9-3.9-15.8-3.05-3.5.4-5.15 1.6zm-1.35-8.3q2-1.1 6.25-1.1 8.75-.05 20.5 5.95l-.4.3-1 .2q-4.6-2.75-12.65-3.85l-.45-.05-5.1-.5-2.9.25q-2.7 1.05-3.6 1.05-.75.1-.65-2.25m22.9 19.5-1.45.3q-1.7.55-3.1 1.9-4.8 4.25-5.6 14.6-.3-9.8 3.75-15.2 1.2-1.65 2.7-2.6l1.35-.6q.05.75.55.95l1.65.55z"/><path fill="url(#k)" d="m-23.55 13.2-3.55-3.5q-1.95-2.3-2.45-3.95l-.15-1.2.05-.3q.25-1.4 2.1-2.6l.65-.4L-24.3 0v-.1l-.4-1.65q-.3-1.5-.05-2.7l.4-1.25L-23-7.2Q-13.35-8.9-1.6.05l2.95 2.8L2.8 4.2l5.35 5.1-.1 1.45q-.1 1.15-.65 1.55l-.25.1q-.95.4-1.35.85l-.15.15.3 1.05q.15 1-.55 1.1l-.05.05-.9.3q-.95.5-2.5 1.55l.2 1.65v1q-.15.8-.65.9-.65.1-1.25-1.05l-1-1.6q-5.85-5.6-13.85-8.9l-2.75-1.05-1.3-.45-2.65-.8q-3.65-1.1-6.55-1.3 1.25 3.65 4.3 7.35" transform="translate(29.7 7.45)"/><path fill="url(#l)" d="M2.8 4.2 1.35 2.85 1.3 2.7Q.35-3.4.75-4.65L.8-4.7l1.55 1.9q-.2 1.85.7 7.15v.1z" transform="translate(29.7 7.45)"/><path fill="url(#m)" d="M-23.55 13.2q-3.05-3.7-4.3-7.35 2.9.2 6.55 1.3l2.65.8 1.3.45 2.75 1.05q-.8 1.35 3.25 5.8l4.15 4.4-2.85-1.45q-2.6-1.25-5.2-2.25-4-1.6-8.15-2.6v-.05h-.1z" transform="translate(29.7 7.45)"/><path fill="url(#n)" d="M-7.2 19.65 1.15 25q.05 1.65-1.3 2.45l-.45.25.05.1q.25.95-.25 1.5l-.4.3-1 .2q-4.6-2.75-12.65-3.85l-.45-.05-5.1-.5-2.9.25q-2.7 1.05-3.6 1.05-.75.1-.65-2.25v-.15q.05-2.4.45-3.05l.6-1.3.25-.95-2.05-2.7q-.9-1.4-1.2-2.6V12l6 1.3h.1v.05q4.15 1 8.15 2.6 2.6 1 5.2 2.25z" transform="translate(29.7 7.45)"/><path fill="url(#o)" d="m-11.2 28.5.7.2q2.85.85 5.25 2.35l1.8 1.25-.05 1.35-.3 1.1-.85 1.05.65 1.45q.15.7 0 1.25l-.5.8q-6.8-2.3-12.6-1.45l-.05.05-3.45.7-1.2.35-.5.15q-.55-.05-.65-.65v-.15l-.15-1.5-.25-.6q-.6-1-2.2-1.8l-.65-1.65q-.25-1.4-1-1.4l-1-.3-1.45-1.25q7.85-3.05 14.9-2z" transform="translate(29.7 7.45)"/><path fill="url(#p)" d="M-17.1 37.85q.45 1.1 2 1.9 3.1 1.75 8.3.9-1.7.9-3.2 2.35l-1.45 1.55q-4.2.1-7.5-2.4-1.9-1.45-2.85-3.2l1.2-.35 3.45-.7z" transform="translate(29.7 7.45)"/><path fill="url(#q)" d="m-15.3 25.9 4.1 2.6-3.55-.7-5.65-2.4z" transform="translate(29.7 7.45)"/><path fill="url(#r)" d="M-6.8 40.65q-.3 1.05-.2 1.7.05.75.55.95l1.65.55.15.1q.8.55 1.2 1.85-6.35.6-9.4 7.95-1.6 3.7-1.9 7.25l-.05-.25q-.6-3.45 0-7.65.65-5.15 3.35-8.55L-10 43q1.5-1.45 3.2-2.35" transform="translate(29.7 7.45)"/><path fill="url(#s)" d="M51.85 2.7 54.6.05Q66.35-8.9 76-7.2l1.35 1.5Q78.4-3.6 77.3 0l2.6 1.25q2.7 1.5 2.8 3.3.15 1.9-2.6 5.15l-3.55 3.5q3.05-3.7 4.3-7.35-2.9.2-6.55 1.3l-2.65.8-.5.15-1.45.55-.7.25-1.4.55q-8 3.3-13.85 8.9l-1 1.6q-.6 1.15-1.25 1.05-.75-.15-.65-1.9l.2-1.65q-2.45-1.7-3.45-1.9-.7-.1-.55-1.1l.3-1.05q-.35-.5-1.5-1-.75-.25-.9-1.65l-.1-1.45 5.25-4.95v.1l1.7-1.6z" transform="translate(29.7 7.45)"/><path fill="url(#t)" d="M50.1 4.35q.9-5.3.7-7.15l1.55-1.9.05.05q.4 1.25-.55 7.35l-.05.15-1.7 1.6z" transform="translate(29.7 7.45)"/><path fill="url(#u)" d="m76.5 13.3 6-1.3v1.7q-.55 2.25-3.25 5.3l.25.95.6 1.3q.4.65.45 3.05.1 2.5-.65 2.4l-3.6-1.05-2.9-.25-5.1.5-.45.05q-8.05 1.1-12.65 3.85l-1-.2q-1-.55-.6-1.9-1.8-.8-1.75-2.7l8.35-5.35 1.45-.75 2.3-1.1.9-.4q1.7-.8 3.4-1.45 4-1.6 8.15-2.6v-.05z" transform="translate(29.7 7.45)"/><path fill="url(#v)" d="m76.55 13.2-.05.1h-.1v.05q-4.15 1-8.15 2.6-1.7.65-3.4 1.45l-.9.4-2.3 1.1-1.45.75 4.15-4.4q4.05-4.45 3.25-5.8L69 8.9l.7-.25.65-.25.8-.3.5-.15 2.65-.8q3.65-1.1 6.55-1.3-1.25 3.65-4.3 7.35" transform="translate(29.7 7.45)"/><path fill="url(#w)" d="M67.75 27.8q7.05-1.05 14.9 2-1.25 1.45-2.45 1.55-.75 0-1 1.4-.3 1.45-.65 1.65-2.05 1.05-2.45 2.4l-.15 1.65q-.1.6-.65.65l-.5-.15-.95-.3-1.85-.4-1.85-.35-.05-.05Q64.3 37 57.5 39.3q-.75-.65-.5-2.05l.65-1.45q-.9-.7-1.15-2.15l-.05-1.35 1.8-1.25q2.4-1.5 5.25-2.35l.7-.2z" transform="translate(29.7 7.45)"/><path fill="url(#x)" d="M64.45 44.55q2.7 3.4 3.35 8.55.65 4.35-.05 7.9-.3-3.55-1.9-7.25-3.05-7.35-9.4-7.95.45-1.4 1.35-1.95l1.65-.55q.95-.4.35-2.65l3.1 2.2.15.15z" transform="translate(29.7 7.45)"/><path fill="url(#y)" d="m73.4 25.4-5.65 2.4-3.55.7 4.1-2.6z" transform="translate(29.7 7.45)"/><path fill="url(#z)" d="M74.8 38.95q-.95 1.75-2.85 3.2-3.3 2.5-7.5 2.4L63.05 43l-.15-.15-3.1-2.2q5.2.85 8.3-.9 1.55-.8 2-1.9l.05.05 1.85.35 1.6.35.25.05z" transform="translate(29.7 7.45)"/><path fill="url(#A)" d="m45.25 7.75.25.3.1.1q5.35 5.9 7.5 17 1.95 11.9-3.45 18.25-2.7 3.2-5.75 4-3.5 1.5-3.95 5.25-.25 1.8.2 3.35-.55-.7-.8-1.95-.6-2.4.65-4.85h.05v-.1q-1.75 2-1.6 4.3v.6l-.05-.05q-2-3.55 5.1-11.35l-2.1.55q6-4 2.05-17.25l-.05.25q-.6 2.7-2 4.6l-.05.05.45-2.9q.2-2.75-.4-5.05l.1 1.15-.25-1.15.25 2.2v.35q0 2.15-.75 4.05l-.3.6q-1.3 1.45-3 1.25.75-2.6.5-6.05-.25-3.2-1.35-7.15l-.05-.15-.15-.45.55 4.9q.05 5.55-2.55 8.85l.3-1.65.25-1.6-.15-6-.3-1.4q-.6-2.7-1.9-5.1 1.1 3.95 1.05 7.85L32.5 30.2l-.6 1.65-.4.15h-.05l-1.85.15-.5-.15q.25-2.05-.45-4.65.05 1.85-.3 3.5l-.5 1.35-2.8-.1q-1.5-3-1.55-7.9l-.05.4v-.15l-.1 1.45v.4q-.15 2.55.1 4.65l.15.9q-3.1-6.75-2.05-13.9l-.15.75v-.3q-1.4 4.75-.65 9.35.3 2.15 1.1 4.1l-.15.05h-.2q-.9 0-1.85-.55l-.85-1.45-.55-1.45-.3-1.35.05.35-.2-.9.6 4.55-.25-.15h-.05l-1-.05q-2.15-3.65-2.2-7.55.1-3.55 1.8-7.5l.25-.6-.15.15.15-.3-.6.85V16h-.05q-.8.95-1.4 2.15-1.4 2.75-1.5 6.45-.05 2.2.35 4.7l.05.35.2 1.1-3.35-1.45-.55-1.7v-.15l-.2-1.2-.05.15-.1-.8Q8.7 29.05 8.3 31.9q-.5 2.95-.1 5.35l.15.8q.55 2.5 2 4.05l.05.05.9.95-1.8-.5.1.1q6.95 7.65 5.05 11.2l-.1.1v-.5q.15-2.4-1.6-4.4l.15.35q1.65 3.75-.25 6.55.45-1.55.2-3.35-.45-3.75-3.95-5.25-3.05-.8-5.75-4-5.4-6.35-3.45-18.25Q2.1 13.7 7.75 7.75q3.05-3.2 7.8-5.05Q20 .95 25.2.75h2.6l1.4.1q4.4.35 8.25 1.85 4.75 1.85 7.8 5.05m4.05 25.2.1 1.35q.2 3.25-.85 5.95-.85 2.15-2.45 3.9l-1.55 1.6-.75.5.35-.2.55-.3q7.05-3.9 4.7-12.35zm-45.5 0-.1.45q-2.35 8.45 4.7 12.35l.55.3.35.2q-6.3-4.2-5.5-13.3" transform="translate(29.7 7.45)"/><path fill="#aab1d2" d="m71.2 31.45-.25-1.15.25 2.2v.35q0 2.15-.75 4.05l-.3.6q-1.3 1.45-3 1.25.75-2.6.5-6.05l-.55-3.8-.8-3.35-.05-.15-.15-.45.55 4.9q.05 5.55-2.55 8.85l.3-1.65.25-1.6-.15-6-.3-1.4q-.6-2.7-1.9-5.1 1.1 3.95 1.05 7.85l-1.15 6.85-.6 1.65-.4.15h-.05l-1.85.15-.5-.15q.25-2.05-.45-4.65.05 1.85-.3 3.5l-.5 1.35-2.8-.1q-1.5-3-1.55-7.9l-.05.4v-.15l-.1 1.45v.4q-.15 2.55.1 4.65l.15.9q-3.1-6.75-2.05-13.9l-.15.75v-.3q-1.4 4.75-.65 9.35.3 2.15 1.1 4.1l-.15.05h-.2q-.9 0-1.85-.55l-.85-1.45-.55-1.45-.3-1.35.05.35-.2-.9.6 4.55-.25-.15h-.05l-1-.05q-2.15-3.65-2.2-7.55.1-3.55 1.8-7.5l.25-.6-.15.15.15-.3-.6.85v.05H46q-.8.95-1.4 2.15-1.4 2.75-1.5 6.45-.05 2.2.35 4.7l.05.35.2 1.1-3.35-1.45-.55-1.7v-.15l-.2-1.2-.05.15-.1-.8Q38.4 36.5 38 39.35q-.5 2.95-.1 5.35l.15.8q.55 2.5 2 4.05l.05.05.9.95-1.8-.5.1.1q-4.2-1.95-3.95-7.6.6 4.2 3.3 5.7l-.2-.35q-3.3-5.8.15-15.35-1.4 1.55-3.9 1.95 2.1-2.4 2.95-7.65.85-6.6 5.7-9.4-4.45 3.55-4.95 8.5-.9 5.65-3.45 8.3 3.05-1.45 4.9-6 .5-2.2 1.75-4.25-2.3 5.5-1.2 10.6l.75.65q-.15-2.8.65-5.05-.25 2.65.55 5.25-.4-5.65 1.8-10.1 1.1-2.4 3-4.4l.05-.05 1.5-1.5-.95 1.9q-.5 1.05-.85 2.15-2.15 6.05-.65 12.1-.3-4.85 1.3-9.05-.3 3.8 1.25 9.05-.8-5.55.2-8.9-.15 3.45.3 5.15.45-5.2 2.75-10.3l.8-2.45.45-1.15q-2.1 8-1.1 16.1-.05-3.5 1.9-8.6l-.05.25q-.75 6.95.55 11.55-.5-2.8.3-8.35.35 4.8.8 5.5l2 .15q.5-1.7.1-4.85 1.25 2.85 1.05 4.9h.3L62 33.9q1.2-7.05-1.2-15.3l2.15 4.45q2.8 5.1 2.65 9.95.55-4.15.15-6.7l-.5-3.15-.6-2.65q1.55 2.9 2.45 5.8 1.2 3.8 1.3 7.5.6.15 1.4-.6.75-.8.65-3.2-.1-2.3-1.15-8.25 4.45 8.05 1.8 16.45l-.05.05.45-2.9q.2-2.75-.4-5.05zm7.9 10.3q.2 3.25-.85 5.95-.85 2.15-2.45 3.9l-1.55 1.6-.75.5.35-.2-3.15 2.1-.95 1.05v-.1q-1.75 2-1.6 4.3v.6l-.05-.05q-.4-3.45 1.25-5.3 3-4.25 5.2-5.8l-2.9 3.65 1.95-1.4q1.5-1.15 2.75-3.2 1.25-2.1 1.9-6.85.3-5.25-1.05-11.2 1.35 4.05 1.8 9.1zM33.5 40.4l-.1.45q.4-5.25 1.8-9.45-1.35 5.95-1.05 11.2.65 4.75 1.9 6.85 1.25 2.05 2.75 3.2l1.95 1.4-2.9-3.65q2.2 1.55 5.2 5.8 1.6 1.8 1.3 5.15l-.1.1v-.5q.15-2.4-1.6-4.4l.15.35-1.1-1.2q-1.95-1-3.6-2.5l.55.3.35.2q-6.3-4.2-5.5-13.3m39.6-6.8-.05-.15Q75.2 24.7 67.1 15l-.15-.2.15.15q10.25 10.45 7.1 18.3 2.6 8.95.1 14.35 2.55-1.45 3.1-7.2.2 2.6-.55 5-1 4.35-5.75 5.2 6-4 2.05-17.25z"/><path fill="url(#B)" d="m45.25 7.75.25.3.1.1q5.35 5.9 7.5 17 1.95 11.9-3.45 18.25-2.7 3.2-5.75 4-3.5 1.5-3.95 5.25-.25 1.8.2 3.35-.55-.7-.8-1.95-.6-2.4.65-4.85h.05v-.1q-1.75 2-1.6 4.3v.6l-.05-.05q-2-3.55 5.1-11.35l-2.1.55q6-4 2.05-17.25l-.05.25q-.6 2.7-2 4.6l-.05.05.45-2.9q.2-2.75-.4-5.05l.1 1.15-.25-1.15.25 2.2v.35q0 2.15-.75 4.05l-.3.6q-1.3 1.45-3 1.25.75-2.6.5-6.05l-.55-3.8-.15-.7-.65-2.65-.05-.15-.15-.45.55 4.9q.05 5.55-2.55 8.85l.3-1.65.25-1.6-.15-6-.3-1.4q-.6-2.7-1.9-5.1 1.1 3.95 1.05 7.85L32.5 30.2l-.6 1.65-.4.15h-.05l-1.85.15-.5-.15q.25-2.05-.45-4.65.05 1.85-.3 3.5l-.5 1.35-2.8-.1q-1.5-3-1.55-7.9l-.05.4v-.15l-.1 1.45v.4q-.15 2.55.1 4.65l.15.9q-3.1-6.75-2.05-13.9l-.15.75v-.3q-1.4 4.75-.65 9.35.3 2.15 1.1 4.1l-.15.05h-.2q-.9 0-1.85-.55l-.85-1.45-.55-1.45-.3-1.35.05.35-.2-.9.6 4.55-.25-.15h-.05l-1-.05q-2.15-3.65-2.2-7.55.1-3.55 1.8-7.5l.25-.6-.15.15.15-.3-.6.85V16h-.05q-.8.95-1.4 2.15-1.4 2.75-1.5 6.45-.05 2.2.35 4.7l.05.35.2 1.1-3.35-1.45-.55-1.7v-.15l-.2-1.2-.05.15-.1-.8Q8.7 29.05 8.3 31.9q-.5 2.95-.1 5.35l.15.8q.55 2.5 2 4.05l.05.05.9.95-1.8-.5.1.1q6.95 7.65 5.05 11.2l-.1.1v-.5q.15-2.4-1.6-4.4l.15.35q1.65 3.75-.25 6.55.45-1.55.2-3.35-.45-3.75-3.95-5.25-3.05-.8-5.75-4-5.4-6.35-3.45-18.25Q2.1 13.7 7.75 7.75q3.05-3.2 7.8-5.05Q20 .95 25.2.75h2.6l1.4.1q4.4.35 8.25 1.85 4.75 1.85 7.8 5.05m4.05 25.2.1 1.35q.2 3.25-.85 5.95-.85 2.15-2.45 3.9l-1.55 1.6-.75.5.35-.2.55-.3q7.05-3.9 4.7-12.35zm-45.5 0-.1.45q-2.35 8.45 4.7 12.35l.55.3.35.2q-6.3-4.2-5.5-13.3" transform="translate(29.7 7.45)"/><path fill="#006" fill-opacity=".086" d="m71.2 31.45-.25-1.15.25 2.2v.35q0 2.15-.75 4.05l-.3.6q-1.3 1.45-3 1.25.75-2.6.5-6.05l-.55-3.8-.8-3.35-.05-.15-.15-.45.55 4.9q.05 5.55-2.55 8.85l.3-1.65.25-1.6-.15-6-.3-1.4q-.6-2.7-1.9-5.1 1.1 3.95 1.05 7.85l-1.15 6.85-.6 1.65-.4.15h-.05l-1.85.15-.5-.15q.25-2.05-.45-4.65.05 1.85-.3 3.5l-.5 1.35-2.8-.1q-1.5-3-1.55-7.9l-.05.4v-.15l-.1 1.45v.4q-.15 2.55.1 4.65l.15.9q-3.1-6.75-2.05-13.9l-.15.75v-.3q-1.4 4.75-.65 9.35.3 2.15 1.1 4.1l-.15.05h-.2q-.9 0-1.85-.55l-.85-1.45-.55-1.45-.3-1.35.05.35-.2-.9.6 4.55-.25-.15h-.05l-1-.05q-2.15-3.65-2.2-7.55.1-3.55 1.8-7.5l.25-.6-.15.15.15-.3-.6.85v.05H46q-.8.95-1.4 2.15-1.4 2.75-1.5 6.45-.05 2.2.35 4.7l.05.35.2 1.1-3.35-1.45-.55-1.7v-.15l-.2-1.2-.05.15-.1-.8Q38.4 36.5 38 39.35q-.5 2.95-.1 5.35l.15.8q.55 2.5 2 4.05l.05.05.9.95-1.8-.5.1.1q-4.2-1.95-3.95-7.6.6 4.2 3.3 5.7l-.2-.35q-3.3-5.8.15-15.35-1.4 1.55-3.9 1.95 2.1-2.4 2.95-7.65.85-6.6 5.7-9.4-4.45 3.55-4.95 8.5-.9 5.65-3.45 8.3 3.05-1.45 4.9-6 .5-2.2 1.75-4.25-2.3 5.5-1.2 10.6l.75.65q-.15-2.8.65-5.05-.25 2.65.55 5.25-.4-5.65 1.8-10.1 1.1-2.4 3-4.4l.05-.05 1.5-1.5-.95 1.9q-.5 1.05-.85 2.15-2.15 6.05-.65 12.1-.3-4.85 1.3-9.05-.3 3.8 1.25 9.05-.8-5.55.2-8.9-.15 3.45.3 5.15.45-5.2 2.75-10.3l.8-2.45.45-1.15q-2.1 8-1.1 16.1-.05-3.5 1.9-8.6l-.05.25q-.75 6.95.55 11.55-.5-2.8.3-8.35.35 4.8.8 5.5l2 .15q.5-1.7.1-4.85 1.25 2.85 1.05 4.9h.3L62 33.9q1.2-7.05-1.2-15.3l2.15 4.45q2.8 5.1 2.65 9.95.55-4.15.15-6.7l-.5-3.15-.6-2.65q1.55 2.9 2.45 5.8 1.2 3.8 1.3 7.5.6.15 1.4-.6.75-.8.65-3.2-.1-2.3-1.15-8.25 4.45 8.05 1.8 16.45l-.05.05.45-2.9q.2-2.75-.4-5.05zm7.9 10.3q.2 3.25-.85 5.95-.85 2.15-2.45 3.9l-1.55 1.6-.75.5.35-.2-3.15 2.1-.95 1.05v-.1q-1.75 2-1.6 4.3v.6l-.05-.05q-.4-3.45 1.25-5.3 3-4.25 5.2-5.8l-2.9 3.65 1.95-1.4q1.5-1.15 2.75-3.2 1.25-2.1 1.9-6.85.3-5.25-1.05-11.2 1.35 4.05 1.8 9.1zM33.5 40.4l-.1.45q.4-5.25 1.8-9.45-1.35 5.95-1.05 11.2.65 4.75 1.9 6.85 1.25 2.05 2.75 3.2l1.95 1.4-2.9-3.65q2.2 1.55 5.2 5.8 1.6 1.8 1.3 5.15l-.1.1v-.5q.15-2.4-1.6-4.4l.15.35-1.1-1.2q-1.95-1-3.6-2.5l.55.3.35.2q-6.3-4.2-5.5-13.3m39.6-6.8-.05-.15Q75.2 24.7 67.1 15l-.15-.2.15.15q10.25 10.45 7.1 18.3 2.6 8.95.1 14.35 2.55-1.45 3.1-7.2.2 2.6-.55 5-1 4.35-5.75 5.2 6-4 2.05-17.25z"/><path fill="#fef8fa" d="m41.1 17.9-1.05 1.15q-.9 1.05-1.5 2.05l-.35.1-.95.1q-2.65.7-5.35 7.1 1.35-6.15 3.65-9.45 2.25-3.3 5.7-6.15l-1.4 1.95q-.4.85-.05 1.8.3.9 1.3 1.35m1.55.8.5-.4h.45l.9.3 3.5.85-.8.8-.75.9-.1-.05-3.6-.2-2.15.2q.9-1.4 2.05-2.4m9.5 1.4-.35.65-.55 1.3-3.4-.5.9-1.5.2-.3.75.15zm.55 2.1.6-1.9.1-.3 2.2-.25-.25 1.4-.15 1.25-.65-.05zm3.5-2.5 3.8-.65.25.75.7 2.5-5.1.15zm8.35-1.25 2.75-.4.95 2.1.1.75q-1.2.1-2.2.55l-.55.15-.1-.25-.05-.3q-.3-1.55-.9-2.6m-1.95.1.45.8 1.05 2.5-1.25.2-.2-.8q-.2-.95-1-2.55l.65-.15h.3m7.95 2.25.15.25-1.35-.15-.05-.4-.35-1.55-.3-.75zm.75-3.8.1-.05h.05q2.8-.55 1.15-3.65 4.45 5.75 5.25 7.25l2.9 7.65q-3-6.05-4.85-6.45l-2.45-.35-.35-1z"/><path fill="url(#C)" d="m46.4 6.05.75-1.3q3.55 3.2 6.35 9.7 1.4 3.2 2.1 5.8l-4.05.7-1.45-4.1Q48.05 12 45.2 8.3z" transform="translate(29.7 7.45)"/><path fill="url(#D)" d="m1.45 20.95-4.05-.7q.7-2.6 2.1-5.8 2.8-6.5 6.35-9.7l.75 1.3L7.8 8.3Q4.95 12 2.9 16.85q-1 2.4-1.45 4.1" transform="translate(29.7 7.45)"/><path fill-opacity=".498" d="m76.1 13.5.65-1.1q-.8 1.95-.65 3.7 2 2.2 5.65 11.05l1 .3 2.55.25-4.05.7-1.45-4.1q-2.05-4.85-4.9-8.55zM31.15 28.4l-4.05-.7 2.55-.25 1-.3Q34.3 18.3 36.3 16.1q.15-1.75-.65-3.7l.65 1.1 1.2 2.25q-2.85 3.7-4.9 8.55-1 2.4-1.45 4.1"/></g></defs></svg>