<svg xmlns="http://www.w3.org/2000/svg" xmlns:ffdec="https://www.free-decompiler.com/flash" xmlns:xlink="http://www.w3.org/1999/xlink" ffdec:objectType="frame" width="115.4" height="102.1"><use ffdec:characterId="1" xlink:href="#a" width="115.4" height="102.1"/><defs><radialGradient id="b" cx="0" cy="0" r="819.2" gradientTransform="matrix(.0749 0 0 .0809 22.7 23.15)" gradientUnits="userSpaceOnUse" spreadMethod="pad"><stop offset=".071" stop-color="#3091a1"/><stop offset=".604" stop-color="#76eee4"/><stop offset="1" stop-color="#19969a"/></radialGradient><radialGradient id="c" cx="0" cy="0" r="819.2" gradientTransform="translate(22.65 20.2)scale(.074)" gradientUnits="userSpaceOnUse" spreadMethod="pad"><stop offset="0" stop-color="#005462"/><stop offset=".329" stop-color="#11ad8e"/><stop offset=".573" stop-color="#30bfc4"/><stop offset="1" stop-color="#006b62"/></radialGradient><radialGradient id="d" cx="0" cy="0" r="819.2" gradientTransform="translate(48.4 27.4)scale(.0087)" gradientUnits="userSpaceOnUse" spreadMethod="pad"><stop offset="0" stop-color="#005462"/><stop offset=".329" stop-color="#11ad8e"/><stop offset=".573" stop-color="#30bfc4"/><stop offset="1" stop-color="#006b62"/></radialGradient><radialGradient id="e" cx="0" cy="0" r="819.2" gradientTransform="translate(62.5 40.1)scale(.004)" gradientUnits="userSpaceOnUse" spreadMethod="pad"><stop offset="0" stop-color="#005462"/><stop offset=".329" stop-color="#11ad8e"/><stop offset=".573" stop-color="#30bfc4"/><stop offset="1" stop-color="#006b62"/></radialGradient><radialGradient id="f" cx="0" cy="0" r="819.2" gradientTransform="translate(-3.1 27.4)scale(.0088)" gradientUnits="userSpaceOnUse" spreadMethod="pad"><stop offset="0" stop-color="#005462"/><stop offset=".329" stop-color="#11ad8e"/><stop offset=".573" stop-color="#30bfc4"/><stop offset="1" stop-color="#006b62"/></radialGradient><radialGradient id="g" cx="0" cy="0" r="819.2" gradientTransform="translate(-17.2 40.3)scale(.0042)" gradientUnits="userSpaceOnUse" spreadMethod="pad"><stop offset="0" stop-color="#005462"/><stop offset=".329" stop-color="#11ad8e"/><stop offset=".573" stop-color="#30bfc4"/><stop offset="1" stop-color="#006b62"/></radialGradient><radialGradient id="h" cx="0" cy="0" r="819.2" gradientTransform="translate(50.85 47.05)scale(.002)" gradientUnits="userSpaceOnUse" spreadMethod="pad"><stop offset="0" stop-color="#005462"/><stop offset=".329" stop-color="#11ad8e"/><stop offset=".573" stop-color="#30bfc4"/><stop offset="1" stop-color="#006b62"/></radialGradient><radialGradient id="i" cx="0" cy="0" r="819.2" gradientTransform="translate(36.75 63.6)scale(.0085)" gradientUnits="userSpaceOnUse" spreadMethod="pad"><stop offset="0" stop-color="#005462"/><stop offset=".329" stop-color="#11ad8e"/><stop offset=".573" stop-color="#30bfc4"/><stop offset="1" stop-color="#006b62"/></radialGradient><radialGradient id="j" cx="0" cy="0" r="819.2" gradientTransform="translate(52.05 62.8)scale(.0204)" gradientUnits="userSpaceOnUse" spreadMethod="pad"><stop offset="0" stop-color="#005462"/><stop offset=".329" stop-color="#11ad8e"/><stop offset=".573" stop-color="#30bfc4"/><stop offset="1" stop-color="#006b62"/></radialGradient><radialGradient id="k" cx="0" cy="0" r="819.2" gradientTransform="translate(8.55 63.65)scale(.0085)" gradientUnits="userSpaceOnUse" spreadMethod="pad"><stop offset="0" stop-color="#005462"/><stop offset=".329" stop-color="#11ad8e"/><stop offset=".573" stop-color="#30bfc4"/><stop offset="1" stop-color="#006b62"/></radialGradient><radialGradient id="l" cx="0" cy="0" r="819.2" gradientTransform="translate(-6.75 62.8)scale(.0204)" gradientUnits="userSpaceOnUse" spreadMethod="pad"><stop offset="0" stop-color="#005462"/><stop offset=".329" stop-color="#11ad8e"/><stop offset=".573" stop-color="#30bfc4"/><stop offset="1" stop-color="#006b62"/></radialGradient><radialGradient id="m" cx="0" cy="0" r="819.2" gradientTransform="translate(-5.15 46.85)scale(.0017)" gradientUnits="userSpaceOnUse" spreadMethod="pad"><stop offset="0" stop-color="#005462"/><stop offset=".329" stop-color="#11ad8e"/><stop offset=".573" stop-color="#30bfc4"/><stop offset="1" stop-color="#006b62"/></radialGradient><g id="a" fill-rule="evenodd"><path fill="url(#b)" d="M34-26.4q2.85 1.1 4.9 2.75 2.05 1.6 4.4 5.5 2.35 3.85 2.8 7.9L48.5 4.1q.55 3.85 2.7 7.95 2.25 4.1 4.45 6.75 2.25 2.6 5.9 5.65 3.6 3 7.3 4.3 3.7 1.25 6.65 2.75t3.9 4.95q.95 3.4.95 6.6 0 4.9-2.55 7.45-.75.75-4.75 2.5-3.4 1.45-4.4 2.3.1.9-.3 2.65l-.1.45q-.45 1.75-2.35 5.2-2.15 3.9-7.95 5.7-3.95 1.25-6.8 1.1l-2.2-.45-2.2-.65-3.95-.55q-3.7 0-4.1 2-.45 2 3.3 3.7-1.95.05-3.1-.7t-1.65-1.55l-.5-1.1-.05-1.45q0-2.1 1.55-3.35 2.2-1.75 8.05-2.3l-2.1-1.1q-2.3-.9-5.25-.9l-4.5.45-.95.3q-1.7.75-1.7 2.35-.05 1.6.9 2.05l1.25.45q-2.9.55-3.65-.65-1-1.65-1.45-3.95l-.05-1.6q-.85 1.45-.8 3.15t1.45 2.9q-5.2-3.1-6.75-6.95l-.2.5q-1.7 3.55-5.4 6.35 1.05-1.6.6-2.8t-1.5-2.15l.3.6q.55 2.35-.95 3.85-1.25 1.25-2.75 1.45l-.7.05-.5-.1-.2-.15.45.15q.45.15 1.05-.5l.1-.1.25-1.05-.15-.8q-.45-1.3-1.45-2.25Q10.15 62 6.35 62q-3 0-5.25.9-1.15.5-2.75 1.45 2-.2 3.2 0 3.85.6 5.55 1.95 1 .85 1.35 2.1l.15 1.25-.05 1.3-.95 1.4q.5-1.3-.1-2.4-.65-1.15-4.2-1.15-3.6-.05-6.9 1.15-3.3 1.15-9.05-.65-5.8-1.8-7.95-5.7t-2.45-5.65l-.3-2.65q-1-.85-4.35-2.3-4.05-1.75-4.8-2.5-1.55-1.55-2.15-3.9-.4-1.6-.4-3.55 0-3.2 1-6.6l.35-.95q1-2.7 3.5-4 2.95-1.5 6.7-2.75 3.65-1.3 7.3-4.3 3.6-3.05 5.8-5.65l1.25-1.5q1.6-2.25 3.25-5.25Q-4.8 10-4.1 8q.6-1.8.85-3.5l.05-.4 2.4-14.35q.5-4.05 2.5-7.8 1.95-3.75 4.1-5.4t4.65-2.35q3-1.3 5.25-1.45l4.1-.35 5.35-.05q5.95.1 8.85 1.25m30.8 64.3q.35 3.3-2.3 5.05l2.25 2.25q2.5 3.15 3.55 7.2 3.75-1.65 4.95-3.95 1.3-2.35 1.3-4.85 0-3.55-2.9-6.75-2.05-2.15-6.85-5.35l-8-5.55-1.5-1.3q.95 1.65 2.3 3.15l4.2 4.15q2.55 2.65 3 5.95m-12.05 9.9-1.75.05.15.25q3.5 4.65 4.65 8.15.5 1.65.5 3.05 0 2.25-1.5 4.1-1.05 1.3-3.65 1.8l-2.1.2.25.05q.2.3 1.85.7l.95.15q2.45.4 4.6-.05 3.3-1.45 5.85-4.35 2.4-2.85 2.5-5.15-2.25.35-3.35 2.55l-1.1 2.25.1-.35.05-.25q.4-3.3 1.35-4.7l.1-.15q1.1-1.4 2.65-2.25-1.05-4.95-5.9-7.9-2.5 1.25-6.2 1.85M41.7 40h-.1q.15 2.1 1 5.3l.15.5q.55 2.45.55 4.2 0 2.7-.8 3.65-1.2 1.5-6.25 3.35h1q7.1-.05 9.05-1.5.7-.6.7-2.35v-.25q-.05-1.6-.95-3.85-.75.65-.9 1.4-.1.75.95 1.85l.3.4.15.1q.45.45.1.15l-.2-.15q-1.4-.4-1.8-1.1l-.6-1.25q0-.95.6-1.9l.8-1-.5-.95-.4-.8Q42.4 41.9 41.7 40m3.05-8.3q-.5 2.1-.5 2.8 0 4.5 5.1 11.3l.15.25 1.15-.25L56 44.7l.5-.2q-4-2.6-6.65-5.7-3.2-3.8-4.7-9.05zm5.75-13.25-1.85-4.1-.65 8.7q-.3 3.6 1.1 8 1.35 4.35 7.2 7.7 2.3 1.25 4.05 2.55l.1-.1q1.5-2.25 1.5-4.15 0-2.65-2.8-6.2L54 24.8q-1.25-1.55-2.05-3.2l-1.3-2.9zM3.75 40h-.1q-.8 2.1-3.35 6.6l-.45.95.85 1q.55.95.55 1.9L.7 51.7q-.45.7-1.9 1.1l-.1.15q-.4.3 0-.15l.15-.1.35-.4q1.05-1.1.95-1.85-.15-.75-.9-1.4-.85 2.25-.95 3.85v.25q0 1.75.7 2.35Q.95 56.95 8.05 57H9.1Q4 55.15 2.85 53.65q-.9-.95-.9-3.65 0-1.95.8-4.7.8-3.2 1-5.3M.15 29.75l-1.05 3.1q-1.4 3.3-3.6 5.95-2.5 2.9-6.15 5.35l-.55.35.5.2.55.1 3.15.65 2.75.6q5.3-6.95 5.3-11.55L.6 31.7zM-3.3 15.4l-.05-1.05-1.85 4.1-.15.25-1.25 2.9q-.85 1.65-2.05 3.2l-4.7 5.55-.5.5q-2.85 3.55-2.85 6.2 0 1.05.5 2.2l.95 1.8.1.15.1.1q1.75-1.3 4.1-2.55 5.8-3.35 7.2-7.7l.45-1.55.15-.55q.7-3.15.4-5.9l-.2-2.3-.15-2.55zm-24.65 33.05q1.25 2.3 4.95 3.95l.05-.05.55-1.8q1.05-2.95 3-5.35l1.9-1.9.35-.35-.2-.15q-2.5-1.75-2.1-4.9.4-3.3 2.95-5.95l1.25-1.15 2.55-2.55.4-.45q1.4-1.5 2.35-3.15l-1.55 1.3-.6.5-7.35 5.05q-4.9 3.2-6.9 5.35-2.15 2.4-2.7 4.95l-.2 1.8q0 2.5 1.3 4.85m20.5-.65-1.25-.2q-2.9-.6-4.95-1.65-4.75 2.9-5.8 7.7l-.05.2q1.5.85 2.6 2.25.5.65.9 1.85.35 1.2.55 3l.05.25.1.35-1.1-2.25q-1.1-2.2-3.35-2.55.05 2.3 2.55 5.15 2.5 2.9 5.8 4.35 2.15.45 4.65.05 2.45-.45 2.75-.85l.3-.05h-.4q-4-.3-5.4-2-1.45-1.85-1.45-4.1 0-4.5 5.3-11.45z" transform="translate(35.05 27.65)"/><path fill="#fff" d="M111.1 63q1.65 1.75 2.55 1.85l.1.15.05-.1v-.05l.7-.25q.9 3.15.9 6.15 0 1.95-.4 3.55l-1.25.3q-.65.4-.95 1.05l.75-2.65q.85-4-.95-7.4l-1.6-2.7zM4.3 62.95l.1-.1-1.6 2.7q-1.8 3.4-.95 7.4l.75 2.65q-.3-.65-.95-1.05l-1.25-.3Q0 72.65 0 70.7q0-3 .9-6.15l.7.25v.05l.05.1.1-.15q.9-.1 2.55-1.85"/><path fill="url(#c)" d="m43.5 7.45-.4-1.6v4.4l.3 4.3.8 5.3.85 5.4q.25 1.95 1.65 5.7 1.45 3.75 5.5 7l6.75 4.85H59l.2.2h.05l.6.35.85.5.5.35q3.4 1.95 4.3 4.35.8 1.45 1.25 3.25l.25 1.1 1.15-.4.05-.15.05-.05.05.05q3.7-1.65 4.95-3.95 1.3-2.35 1.3-4.85l-.2-1.8q-.55-2.55-2.7-4.95-2-2.15-6.9-5.35-5.15-3.4-7.35-5.05l-.6-.5-1.55-1.3 1.4 2.45 1.2 1.55 1.5 1.65 1.45 1.6 1.3 1.3q.7.65.95 1.65l.25 1.75-.05.95-.7 2-.7 1.5-.7.95-.15-.1-.5-.45-.05-.25.1-.15.95-1.8q.5-1.15.5-2.2 0-2.65-2.85-6.2l-.5-.5-4.7-5.55q-1.2-1.55-2.05-3.2l-1.25-2.9-.15-.25-1.85-4.1-.65-1.9-.7-.7q-.55 3.75-.7 7.7l-.7-3.3zM25.4-27.5l.1-.15 4.1.35q2.25.15 5.25 1.45 2.5.7 4.65 2.35t4.1 5.4q2 3.75 2.5 7.8l2.4 14.35-.9-1.5q-.75-1.55.45 5.9l.5 1.5q.45 1.45 1.3 3l1.3 2.15.6 1.1 2.1 3.05 3.45 4.1 1.05.9q2.4 2 5 3.1Q67.4 29 70.3 29.7l3.6 1.1-2.4-.2-.45.05-2.6-.3-1.2-.45q-3.4-1.25-6.05-3.1l-2.3-1.6 3.3 3.4 5.9 3.35 1.5.65q3.95 1.15 6 3.5 2.2 2.55 2.05 5.35-.1 2.3-.8 4.3l.05-3.35q.05-2.65-4.65-6.9 2.4 2.9 3.1 4.75.8 2.1.8 4.6 0 2.25-1 3.85l-1 1.3-2.05 1.55q-2.6 1.1-1.6.6-1.6.7-3.25 1.5l-.15.05-.9.4-1.55 1.05q-.7.55-2.1 2.5l.35-.25q.8-.45 1.9-.75 1.15-.35-.35.25-1.45.6-2.6 2.55L60.6 61.5l.1-.35.05-.25q.2-1.8.55-3 .4-1.2.9-1.85 1.1-1.4 2.6-2.25l-.05-.2q-1.05-4.8-5.8-7.7-2.05 1.05-4.95 1.65l.05-.45 4.05-1.25v-.15l-2.55.65-1.5.4q-.2-1.15-1.75-1.35l3.15-.65.55-.1.5-.2-.55-.35q-3.65-2.45-6.15-5.35-2.2-2.65-3.6-5.95l-1.35-4.65-1.4-5.2-1.2-4.4-.25-.9.05.35q1.7 7.85 2 10.75l-.4 1.45q-.2 1.3-.3 4.2-.05 2.95 1.65 6.8 1.75 3.8 3.6 6 4.8 7.55 5.15 9.9.4 2.3-.05 3.25-1.3 3.9-6.9 1.9-3.6-1.35-6.5-1.5l1.35-.3 4.25-.25 3.7-.45q2.25-.9 2.7-3.7t-5.3-9.4l3.45 6.4.25 1.3q0 3.4-3.7 4.7l-.6.15-2.5.15-1.8-.15h.9q4.3-.65 5.65-2 1.4-1.4 1.05-3.05-.35-1.7-1.4-3.25l.3.8.45 2.2q0 1.8-.8 2.75-1.4 1.6-5.4 2l-1.35.15h-2.25l-.65-.2q-4.95-.3-6.95 2.2-1.2 1.45-1.2 3.5.25 2.35 1 3.7l-1.7-1.2q-1.5-1.5-.95-3.85l.3-.6-.35.35L30 60.5q.9-1.65 2.75-2.6l-.6.05q-1.95.1-3.05 1.3-1.15 1.1-1.75 2.95-.65 1.85-.3 3.35l.15.6-.35-.35q-3.7-1.45-4.05-4.85l.1-.2-.25-1.15-.25 1.2.1.2q-1.45 3.05-4.35 5.55l.05-.25.1-1.5q.05-1.3-.45-2.85t-1.45-2.9q-1-1.4-1.8-1.8-.85-.45-3.7-.8t-4.15-1.3-2.25-2.5q-.85-1.85-.85-3.45 0-1.9 1.5-7.1t1.5-8.1v-.55l-.05.3q-.45 3.15-1.95 8.2T3 49.3q-.2 2.25.6 4.15l.75 1.4-1.5-1.2q-.9-.95-.9-3.65 0-1.95.8-4.7.8-3.2 1-5.3h-.1q-.8 2.1-3.35 6.6l-.45.95.85 1q.55.95.55 1.9L.7 51.7q-.45.7-1.9 1.1l-.1.15q-.4.3 0-.15l.15-.1.35-.4q1.05-1.1.95-1.85-.15-.75-.9-1.4-.85 2.25-.95 3.85v.25q0 1.75.7 2.35Q.95 56.95 8.05 57h1l2.35.5q2.75.9 3.9 3.05l1.25 2.2-.35-.35.3.6q.55 2.35-.95 3.85l-1.7 1.2q.75-1.35 1-3.7 0-2.05-1.2-3.5-2-2.5-6.95-2.2l-.65.2H3.8l-1.35-.15q-4-.4-5.4-2-.8-.95-.8-2.75l.45-2.2.3-.8q-1.05 1.55-1.4 3.25-.35 1.65 1.05 3.05 1.35 1.35 5.65 2h.9l-1.8.15-2.5-.15-.6-.15q-3.7-1.3-3.7-4.7l.25-1.3 3.45-6.4q-5.75 6.6-5.3 9.4t2.7 3.7l3.7.45 4.25.25 1.35.3q-2.9.15-6.5 1.5-5.6 2-6.9-1.9-.45-.95-.05-3.25.35-2.35 5.15-9.9 1.85-2.2 3.6-6 1.7-3.85 1.65-6.8l-.3-4.2-.4-1.45q.3-2.9 2-10.75l.05-.35-.25.9-1.2 4.4-1.4 5.2-1.35 4.65q-1.4 3.3-3.6 5.95-2.5 2.9-6.15 5.35l-.55.35.5.2.55.1 3.15.65q-1.55.2-1.75 1.35l-1.5-.4-2.55-.65v.15l4.05 1.25.05.45q-2.9-.6-4.95-1.65-4.75 2.9-5.8 7.7l-.05.2q1.5.85 2.6 2.25.5.65.9 1.85.35 1.2.55 3l.05.25.1.35-1.25-2.05q-1.15-1.95-2.6-2.55-1.5-.6-.35-.25 1.1.3 1.9.75l.35.25q-1.4-1.95-2.1-2.5l-1.55-1.05q-.5-.3-.9-.4l-.15-.05q-1.65-.8-3.25-1.5 1 .5-1.6-.6l-2.05-1.55-1-1.3q-1-1.6-1-3.85 0-2.5.8-4.6.7-1.85 3.1-4.75-4.7 4.25-4.65 6.9l.05 3.35q-.7-2-.8-4.3-.15-2.8 2.05-5.35 2.05-2.35 6-3.5l1.5-.65q2-.95 5.9-3.35l3.3-3.4-2.3 1.6q-2.65 1.85-6.05 3.1l-1.2.45-2.6.3-.45-.05-2.4.2 3.6-1.1q2.9-.7 6.95-2.35 2.6-1.1 5-3.1l1.05-.9 3.45-4.1 2.1-3.05.6-1.1 1.3-2.15 1.3-3 .5-1.5q1.2-7.45.45-5.9l-.9 1.5 2.4-14.35q.5-4.05 2.5-7.8 1.95-3.75 4.1-5.4t4.65-2.35q3-1.3 5.25-1.45zm16.25 67.45h-.1q.2 2.1 1 5.3.8 2.75.8 4.7 0 2.7-.9 3.65l-1.5 1.2.75-1.4q.8-1.9.6-4.15-.15-2.3-1.65-7.35t-1.95-8.2l-.05-.3v.55q0 2.9 1.5 8.1t1.5 7.1q0 1.6-.85 3.45l-2.15 2.85q-.95.95-2.8 1.6l.4-.1h1q7.1-.05 9.05-1.5.7-.6.7-2.35v-.25q-.1-1.6-.95-3.85-.75.65-.9 1.4-.1.75.95 1.85l.35.4.15.1q.4.45 0 .15l-.1-.15q-1.45-.4-1.9-1.1-.55-.8-.55-1.25 0-.95.55-1.9l.85-1-.45-.95q-2.55-4.5-3.35-6.6m-30.85-6.8.05-4.55-.4-3.45-.8-3.15-.35 6.35q-.25 3.05-2.25 8.45t-2 8.25q0 2 1.6 4.1 1.7 2.25 5.2 3.5 3.5 1.2 5.05 3.4 1.2 1.7 1.8 4.25.05-4.9-2.5-7.15l-4.8-4q-2-1.55-2-5.1-.05-3.55.6-5.85zM2.2 10.3V5.9l-.4 1.6-2.4 8.65-.7 3.3q-.15-3.95-.7-7.7l-.7.7-.65 1.9-1.85 4.1-.15.25-1.25 2.9q-.85 1.65-2.05 3.2l-4.7 5.55-.5.5q-2.85 3.55-2.85 6.2 0 1.05.5 2.2l.95 1.8.1.15-.05.25-.5.45-.15.1-.7-.95-.7-1.5-.7-2-.05-.95.25-1.75q.25-1 .95-1.65l1.3-1.3 1.45-1.6 1.5-1.65 1.2-1.55 1.4-2.45-1.55 1.3-.6.5-7.35 5.05q-4.9 3.2-6.9 5.35-2.15 2.4-2.7 4.95l-.2 1.8q0 2.5 1.3 4.85 1.25 2.3 4.95 3.95l.05-.05.05.05.05.15 1.15.4.25-1.1q.45-1.8 1.25-3.25.9-2.4 4.3-4.35l.5-.35.85-.5.6-.35.25-.2h.05L-6.9 38q4.05-3.25 5.5-7Q0 27.25.25 25.3l.85-5.4.8-5.3zm32.25 18.25q-.2 1.85.05 4.55t.8 5.05q.65 2.3.6 5.85 0 3.55-2 5.1l-4.8 4q-2.55 2.25-2.5 7.15.6-2.55 1.8-4.25 1.55-2.2 5.05-3.4 3.5-1.25 5.2-3.5 1.6-2.1 1.6-4.1 0-2.85-2-8.25T36 28.3l-.35-6.35q-.55 1.5-.8 3.15z" transform="translate(35.05 27.65)"/><path fill="url(#d)" d="m47.55 23.9.7-3.2-.2 2.3q-.3 2.75.4 5.9l.05 2.35.1.2 1.1 2.6q-.9-1.2-1.65-2.8-1.55-3.35-.5-7.35" transform="translate(35.05 27.65)"/><path fill="url(#e)" d="M63.55 37.6v.2q-.05 2.2-.75 3.35l-.95 1.4-.1-.15-.35-.25q.8-.75 1.45-2.2z" transform="translate(35.05 27.65)"/><path fill="url(#f)" d="m-2.95 20.75.7 3.2q1.05 4-.5 7.35-.75 1.6-1.65 2.8l1.1-2.6.1-.2.05-2.35q.7-3.15.4-5.9z" transform="translate(35.05 27.65)"/><path fill="url(#g)" d="m-18.25 37.65.7 2.35q.65 1.45 1.45 2.2l-.35.25-.45.55.35-.4-.95-1.4q-.7-1.15-.75-3.35z" transform="translate(35.05 27.65)"/><path fill="url(#h)" d="m49.95 46 .05-.05 2.25 1.9v.05l-1.3.2-.6-.8-.85-1.2z" transform="translate(35.05 27.65)"/><path fill="url(#i)" d="M36.35 60.5q-5.1 1.4-4.3 6.05-.05.6.25 1.05l.15.4-.9-1.15q-.6-1.55-.6-2.5 0-5.2 6.55-5.2l3.65.4 1.35.25-3.05.25z" transform="translate(35.05 27.65)"/><path fill="url(#j)" d="M36.85 68.35q.35-1.25 1.35-2.1 1.7-1.35 2.6-1.65l3.5-.5 1.9.05.25.05q1.35.25 2.5.95l.1.05.2.15.45.3 2.35.6q2.5.4 4.65-.05 3.3-1.45 5.8-4.35Q65 59 65.05 56.7l.2-.1 1.25-.55.75-.2v.5l-.15 3.4q-2.25 5.2-7.55 8.15-2.7 1.45-5 1.6h-.1l-1.15.2-1.2-.05-4.5-.85-4.6-.9h-1.85l-1.85.35q2.5-1.6 6-1.6l2.45.2q-1.85-1-2.95-1.25-1.8-.4-3.7.05-1.85.4-2.85 1.25z" transform="translate(35.05 27.65)"/><path fill="url(#k)" d="m2.8 59.85 1.35-.25 3.65-.4q6.55 0 6.55 5.2 0 .95-.6 2.5l-.9 1.15.15-.4.25-1.05q.8-4.65-4.3-6.05l-3.1-.45z" transform="translate(35.05 27.65)"/><path fill="url(#l)" d="m1 64.15 3.5.5q.9.3 2.6 1.65 1 .85 1.35 2.1l-1.4-1.45q-1-.85-2.85-1.25-1.9-.45-3.7-.05-1.1.25-2.95 1.25L0 66.7q3.5 0 6 1.6l-1.85-.35H2.3l-4.6.9-4.5.85-1.2.05-1.15-.2h-.1q-2.3-.15-5-1.6-5.3-2.95-7.55-8.15l-.15-3.4v-.5l.75.2q.35.1 1.25.55l.2.1q.05 2.3 2.55 5.15 2.5 2.9 5.8 4.35 2.15.45 4.65.05l2.35-.6.45-.3.2-.15.1-.05q1.15-.7 2.5-.95l.25-.05z" transform="translate(35.05 27.65)"/><path fill="url(#m)" d="m-5.85 47.4.45-.55.05-.1.65-.8.45.15-1.4 1.65-.45-.05z" transform="translate(35.05 27.65)"/></g></defs></svg>