<svg xmlns="http://www.w3.org/2000/svg" xmlns:ffdec="https://www.free-decompiler.com/flash" xmlns:xlink="http://www.w3.org/1999/xlink" ffdec:objectType="frame" width="47.85" height="53.05"><use ffdec:characterId="3" xlink:href="#a" width="47.85" height="53.05"/><defs><linearGradient id="b" x1="-819.2" x2="819.2" gradientTransform="matrix(.0005 .0322 -.0324 .0005 26.35 27.5)" gradientUnits="userSpaceOnUse" spreadMethod="pad"><stop offset="0" stop-color="#639139"/><stop offset="1" stop-color="#36630d"/></linearGradient><g id="a" fill-rule="evenodd"><path fill="url(#b)" d="M49.95 15.9q.75 7.95-.35 12.45l-2.2 5.6-.15.6-.95 2.85.1-1.6q0-4.7-.95-9.15-2-5.45-6.9-12.2-.4 4.5-3.5 10.1-3.95 7.3-11.8 14.55 6.5-7.9 8.9-12.4l4-9.8-5.55 8.4q-4.95 7.25-10.95 14.25l-.1.3q-.95 3.75-.95 5.95 0 1.85.8 4.05l1.25 2.95.55 1.2H21l-4.5-3.9.3.55 1.6 2.55h-.2l-2.55-1.45-3.45-2.55q-1.35-1.3-3.55-5.2.95 3.9 2.3 5.7Q6.85 47.1 5 38.65l-.1-1.4-.1-.5-.25-.65q-1.2-2.8-1.65-4.85-.5-2.2-.5-4.95 0-4.95 1.65-10.5Q5.65 10.45 7.4 9 16-.05 27.25 1.1q5.6.6 9.5 3l1.9.1q2.3.3 4.25 1.15 6.3 2.8 7.05 10.55" transform="translate(-2.4 -.95)"/><path fill="#275100" d="M38.15 11.45q2.75 3.55 3.8 6.65l-2.5-4.15q-1.9-3-3.65-4.5l-.15-.95zm3.8-4.05-1.45-.1q1.8 1.75 2.7 5.3l.55 3.15q-2-5.95-6.25-8.5l-1.7-.7-.5-1.9-.35-.9q3.6.05 6.65 2.3l2.45 2.25q-.6-.7-2.1-.9m3.65 24.1q-.05-3.1-.85-7.25l-1.25-5.3q2.15 5.9 2.65 11.1zm-3-6.95q-2.1-5-6.45-11.05l-.05.6-.25-4.4q1.5 1.95 3.1 4.85 2.7 4.95 3.65 10M34.7 11l-.1-2.1q.8 2.35.05 6.4-1.8 9.8-13.45 22.5l-.35.35q6.5-7.9 8.9-12.4l2.6-6.3Q34.6 15 34.7 11m-3.3-5.55q-3.35 4.6-6.9 10.7-6.75 11.65-7.95 19.15.8-6 2.9-12.55 4.5-14 11.95-17.3m-16.05 26.2-.3 3.3q-.1 5.95 1.15 9.8v.1q0 1.85.8 4.05l1.25 2.95.15.45q-3.85-5.35-3.8-13.65 0-3.05.55-6.1zm-.15-9.9 1.9-1.95q-1.25 1.75-2.75 7.45-1.5 5.65-1.1 10.4.35 4.75 1.25 8.2 1.05 4 2.75 6.05l-2.75-2.4q-9.75-13.6-3.95-25.4 3.1-6.4 8.55-9.85-2.4 2.75-4.8 7.65l-1.65 3.65q.8-1.8 2.55-3.8M27.75 1.5q3.2.6 5.05 1.7Q26.1.9 17.3 5.9q-4.35 2.45-7.4 5.4Q12 8 15.95 5.05q2-1.5 3.55-2.3l-3.25-.2-1.55.1Q21.4.25 27.75 1.5M6.25 43.05q.95 3.9 2.3 5.7l-.35-.25q-1.3-1.7-2.4-4.35Q2.95 37.3 4.4 29l.35 7.5q.6 4.05 2 7.45zm.85-11q-.2 10.1 6.35 17.65-3.3-2.95-5.55-7.75-4.5-9.55.7-18.5l-.7 2.4q-.75 3-.8 6.2m-5.15-4.5Q2.5 13.7 10.25 7.1q3.9-3.25 7.65-3.8-7.85 3.3-12.7 14.1-2.4 5.4-3.25 10.15m27-8.2-5.3 11.3-6.3 7.85q1.75-4.65 4.35-10.3 5.4-11.75 9.75-17.05l-9.15 18.3q4.9-6.8 6.65-10.1"/><path fill="#81b652" d="m45.35 17.1.5 2.9-.2-3.1-.1-1.1.95-.35.3 2.15.35 4.7-1.65.9-1.1-3q-1-2.1-1.7-2.35.45 1.05.9 3.4l.55 2.55-1 .45q-.6-2.65-1.75-5.5l-.65-1.45.25-.05 1.55 1.9-.5-2.2 3.1-1zM23.6 18.75l2.2.05q-3.05 4.65-4.4 8l-1.65-.2q2.3-5.2 3.85-7.85m4.5.05h.9L23.85 27h-.05zm1.85-.05 1.2-.05Q28 24.25 25.8 27.1h-.1zm4.1-.3.55-.05q-2 5.3-4.2 8.6h-.2q2.1-3.6 3.85-8.55m-14.8 2.3q-1.2 3.45-1.6 5.5l-2.35-.55 1.2-3.6 1.1-3q-.65.2-1.5 1.05l-.75.65q.5-1.05 1.65-2.75l3.1.4zM4.1 13.8q-.75 1.35-1.3 3.1-.35 1.05-.55 2.05l-.9-.95.4-2.05q.4-1.6.95-3zm1.45 4.5 1.4-3.1q3.25 1.4 7 2.25l-.5.55q-1.95 2.25-3.55 5.85l-.95-.45.45-1.35.5-1.9q-1.05.9-2.15 2.65l-1.15-.65-2-1.3z"/></g></defs></svg>