<svg xmlns="http://www.w3.org/2000/svg" xmlns:ffdec="https://www.free-decompiler.com/flash" xmlns:xlink="http://www.w3.org/1999/xlink" ffdec:objectType="frame" width="49.5" height="54.05"><use ffdec:characterId="1" xlink:href="#a" width="49.5" height="54.05"/><defs><linearGradient id="b" x1="-819.2" x2="819.2" color-interpolation="linearRGB" gradientTransform="matrix(.0262 .0001 -.0002 .0337 24.2 17.35)" gradientUnits="userSpaceOnUse" spreadMethod="pad"><stop offset=".004" stop-opacity=".259"/><stop offset="1" stop-opacity=".506"/></linearGradient><g id="a" fill-rule="evenodd"><path fill="#623a3a" d="M10.05 1.65q6.65-2.1 16-1.55 8.9.5 15.45 3 6.95 2.7 7.3 6.25 1.05 14.5.5 24.3-1.05 18.6-8.75 17.95 1.6-2.35 1.85-6.35.25-3.65-.65-5.75-.4 4.3-3.8 8.75-2.8 3.7-4.35 4.15-.15-4.2-1.15-5.45-.95 2.3-2.85 4.6-1.6 1.95-2.6 2.5-1.1-.5-2.45-4.5l-1.1-3.95q-1.9 1.85-2.75 4.5-.7 2.05-.5 2.4-3.15-1.35-3.9-4.15-.45-1.55-.15-4.45-1.35 2.7-1.3 6.05 0 1.7.3 2.8-4.6-1.35-6.1-7.65-.45-2-.5-4.15-.05-1.4.05-1.7-1.1 2.45-.9 6.4.2 4.15 1.75 7.5-8.7-2.3-9.4-23.4Q-.3 19.2 1.1 9.1 2.45 4 10.05 1.65"/><path fill-opacity=".2" d="m2.45 6.2.15-.4 2.6-2.55.05.55-1.4 6.65q-1.4 6.5-1.4 10.85l.45 4.3-.45-2.2-.8-6.15.3-6.5.2-3.3zM44 12.55l-.15.5q0-.55.15-.85zm3.15 18.55q.4-4.75.3-8.15l.1-1.65v-.6l.35 4.4-.2 4.5q-.3 6.55-.6 7.95-1.05 5.1-2.3 8.95l-.8 1.35q-.8 1.2-2.6 2.55l.5-1.2.25-.65q2.25-4.05 3.6-9.3 1.3-5.2 1.4-8.15m-45-.4q.25 4.5 2.4 10.4 2.1 5.95 3.95 8.9l-.05.2 1.4 3.15-1.15-.3-.55-.1q-1-1.05-2-3.05-1.65-3.2-2.4-6.7l-.9-4.2Q2 32.65 2 31.5l.1-.8zm5.7 11.75q-.3 1.6-.3 2.5l.3 2.5.15.4q-1.7-1.1-2.65-9l-.5-6.9.6 2.8 1.1 3.5q.55 2.65 1.35 4.1z"/><path fill="url(#b)" d="m13.75 37-.05-.2.05-.05.05.25zm-7-43.95q2.7-.85 8.35-1.7 5.65-.9 14.65.35Q38.7-7.05 43.8-4q2.55 7.6 1.95 17.65-.5 8.35-3.8 16.1 1.25-7.25-.55-14.55.1 2.9-.3 5.9-.8 5.55-3.45 10.7-2.15 4.3-5.2 8.2 1.9-3.3 3.4-6.65 2.5-5.5 2.5-11.5-1.8 5.05-4.5 9.6-3.9 6.55-8.75 12.4l-2.65-6.55-.4-1.2q-.45-.8-1.25 0l-1.55 1.95q-.35.6-.8 1.95-.5 1.6-.5 2.5v.2q-1.5-1.45-2.3-3.1-.65-1.35-.9-3.15.25-3.05.5-2.7l-4.9-8.45q-.15 7.45 1.85 14.6-1.5-2-2.2-4.35Q7.75 27.8 6.9 19.5l-.35 2q-.5 4.05-.6 8.25-2.35-5.05-2.8-10.6-.55-6.6.35-13.35.9-6.6 3.25-12.75" transform="translate(1.85 9.1)"/></g></defs></svg>