<svg xmlns="http://www.w3.org/2000/svg" xmlns:ffdec="https://www.free-decompiler.com/flash" xmlns:xlink="http://www.w3.org/1999/xlink" ffdec:objectType="frame" width="66.1" height="59.25"><use ffdec:characterId="3" xlink:href="#a" width="66.1" height="59.25"/><defs><linearGradient id="b" x1="-819.2" x2="819.2" gradientTransform="matrix(0 .0361 -.0403 0 27.55 18)" gradientUnits="userSpaceOnUse" spreadMethod="pad"><stop offset=".557" stop-color="#333" stop-opacity="0"/><stop offset="1" stop-color="#900" stop-opacity=".498"/></linearGradient><g id="a" fill-rule="evenodd"><path fill="#ffcbcb" d="m29.5 10.45-6.7-2q2.5-1.4 6.5-1.1 3.95.25 7.9 4.25v-.05Q36.75 4.5 29.5.05q14.2 2.1 10.85 11.7v.05l.4.15q5.8.5 9.1 2.4 3.3 1.85 4.75 3.65l2.7 3.75q1.3 1.95 3.4 6.6L63 32.5q1.2 2 2.1 2.55-3.4.05-4.45-1.05 1 1.75 1.45 5.4.4 3.1 1.25 4.95t2.75 2.4Q59.65 47.9 56 43.4h-.25q-1.35 7.65-6.15 12.85 3-7.3 2.6-14.65-.05 2.05-1.25 3.35.1-10.95-6.05-17.6-1.2 12.45-17.1 18.3 2.55-2.85 4.35-5.55 1.65-2.45 2.7-4.8-1.45 2.65-3.3 4.2l-.25.15q-1.9 1.45-5.25 2.55t-4.6 2.6q.5-3.3 3.65-7.8l-4.7 4.6.25-2.15.2-1 .35-1.2q-2.4 2.6-4.15 5.75-1.7 3-2.15 5.35-.35-2.4-.15-4.55-2.6 8.15.15 15.45Q9 53.3 9.75 43.35q-3 4.5-9.2 4.5 2.9-2.9 3.1-7.2l-2.6-.4q1.3-.6 2.7-1.4.45-3.5 1.85-5.1-3 .6-5.55-.55 4.75-1.3 10.7-11.85 5.95-10.6 18.75-10.9"/><path fill="url(#b)" d="M17.25-3.2q2.5-1.4 6.5-1.1 3.95.25 7.9 4.25V-.1q-.45-7.05-7.7-11.5Q38.15-9.5 34.8.1v.05l.4.15q5.8.5 9.1 2.4 3.3 1.85 4.75 3.65l2.7 3.75q1.3 1.95 3.4 6.6l2.3 4.15q1.2 2 2.1 2.55-3.4.05-4.45-1.05 1 1.75 1.45 5.4.4 3.1 1.25 4.95t2.75 2.4q-6.45 1.15-10.1-3.35h-.25q-1.35 7.65-6.15 12.85 3-7.3 2.6-14.65Q46.6 32 45.4 33.3q.1-10.95-6.05-17.6-1.2 12.45-17.1 18.3l4.35-5.55q1.65-2.45 2.7-4.8-1.45 2.65-3.3 4.2l-.25.15q-1.9 1.45-5.25 2.55t-4.6 2.6q.5-3.3 3.65-7.8l-4.7 4.6.25-2.15.2-1 .35-1.2q-2.4 2.6-4.15 5.75-1.7 3-2.15 5.35-.35-2.4-.15-4.55-2.6 8.15.15 15.45-5.9-5.95-5.15-15.9-3 4.5-9.2 4.5 2.9-2.9 3.1-7.2l-2.6-.4 2.7-1.4q.45-3.5 1.85-5.1-3 .6-5.55-.55Q-.75 20.25 5.2 9.7 11.15-.9 23.95-1.2z" transform="translate(5.5 11.6)"/><path fill="#900" fill-opacity=".298" d="m52.1 20.5-3.8-2.85q4.55 2.35 6.05 3.55t3.05 3.4q1.5 2.15 2.65 4.95 1.1 2.75 2.45 4 1.3 1.25 2.6 1.3-2.25.45-4.5-1-1.2-3.5-3.2-7.05-1.95-3.75-5.3-6.3m-2 35q4.05-5.85 3.95-14.55-.15-7.85-3.6-17.55 5.55 9.5 5.3 18-.25 8.05-5.65 14.1m15.95-8.75q-6.85.75-9.9-3.55.95-3.4-.2-10 2.55 12.4 10.1 13.55M50.9 45q2.65-6.5-2.05-17.15Q55 39.05 50.9 45m-8.6-30.7q-.35 1.05-1.7 1.7l-2.4.8q-1.15.15-3.2-1.05-2.1-1.2-2.15-1.8l1.7.1q1.8.7 2.1.3Q29 9.6 23.2 8.45 30.35 6 36.75 14.4l1.15.3 1.2-.15q2.75-10.65-9-14.5 15.15 2.15 9.05 14.5 1.55-.15 2.5-.75t.65.5m-17 4.2q-3.2 1.5-5.1 4.65l-2.85 4.55q-.95 1.4-4 4.2-4.05 3.75-9.45 6.7 5.05-3.6 6.8-8.2-2.55.15-3.9-.75 7.75-.45 10.55-6 4.55-7.6 14.05-7.25-2.95.55-6.1 2.1m4.9 10.3 1-1.35q-.05 3.8-10.5 14 1-3.65 4.4-7.3 3.2-2.95 5.1-5.35M5.7 33.75q-3.75.3-5.5-.55 4.6-.2 8.4-2.25-1.85 1.4-2.9 2.8m12.8 1.2q-3.75 5.6-4.75 12.25-.95 5.8.8 11.7-2.35-3.4-2.95-12.05 0-1.85.5-4.1.45-2.1 1.2-3.75-.6.55-4.25 1.35l-7.45-.2q8.15-.85 15.15-7.85 6.9-7.05 11.75-7.8-1.85.4-4.05 2.6t-5.95 7.85M16 42.4q.9-2.85 2.8-5.55 3.8-5.45 10.5-8.6Q17 39.95 14.9 48.1q-.05-2.4 1.1-5.7m-6-1.8-.2 2.65q-3.1 4.55-8.65 4.5 4.45-1.8 6.85-6.7zm33.9-20.2q4.6 16.9-16 25.25 14.6-9.9 16-25.25m-6.1 4.75Q36.05 37.8 29.7 40.5t-8.15 4q2.6-3.5 6.35-5.85 6.3-5.05 9.9-13.5"/></g></defs></svg>