<?xml version="1.0" encoding="UTF-8" standalone="no"?>
<svg xmlns:ffdec="https://www.free-decompiler.com/flash" xmlns:xlink="http://www.w3.org/1999/xlink" ffdec:objectType="frame" height="50.0px" width="57.45px" xmlns="http://www.w3.org/2000/svg">
  <g transform="matrix(1.0, 0.0, 0.0, 1.0, 3.7, -0.65)">
    <use ffdec:characterId="3" height="43.85" transform="matrix(1.0, 0.0, 0.0, 1.0, -3.7, 0.75)" width="57.45" xlink:href="#shape0"/>
    <clipPath id="clipPath0" transform="matrix(1.0, 0.0, 0.0, 1.0, 0.0, 0.0)">
      <path d="M40.8 2.7 Q47.8 6.3 51.45 15.75 55.25 25.75 52.8 35.4 51.55 40.2 49.6 42.6 L49.9 40.45 49.95 38.6 Q48.65 40.75 47.35 41.45 L47.8 39.05 46.4 41.4 Q45.2 43.2 43.9 44.05 45.5 30.95 42.7 23.75 L41.95 22.05 40.25 19.5 Q41.55 21.95 41.1 24.4 L40.4 26.3 Q39.45 19.55 35.8 16.8 34.05 15.55 30.4 14.85 L29.9 14.95 26.95 15.6 Q24.65 14.85 22.55 14.7 18.8 16.85 16.65 19.9 12.55 25.9 14.2 34.95 12.9 32.45 12.65 28.85 12.05 21.7 16.85 16.3 10.15 19.3 8.0 31.75 L7.95 31.9 Q7.45 36.65 8.85 40.95 7.25 40.05 6.8 38.95 L7.0 41.7 7.7 44.25 Q8.2 45.35 6.35 42.9 4.75 40.8 4.2 37.8 2.7 39.9 0.6 41.0 L1.25 39.9 1.55 38.7 0.65 39.55 Q-0.6 40.65 -2.25 40.9 L-3.7 40.95 Q-2.65 40.2 -2.0 38.85 0.25 34.35 0.15 29.45 0.0 23.35 1.6 18.0 2.85 13.9 5.85 9.45 8.45 5.55 10.1 4.45 15.35 0.95 21.2 1.05 L26.7 1.7 Q34.4 -0.6 40.8 2.7" fill="#c94200" fill-rule="evenodd" stroke="none"/>
    </clipPath>
    <g clip-path="url(#clipPath0)">
      <use ffdec:characterId="5" height="50.0" transform="matrix(1.0, 0.0, 0.0, 1.0, 1.55, 0.65)" width="50.05" xlink:href="#shape2"/>
    </g>
    <use ffdec:characterId="6" height="39.65" transform="matrix(1.0, 0.0, 0.0, 1.0, 5.65, 4.15)" width="47.05" xlink:href="#shape3"/>
  </g>
  <defs>
    <g id="shape0" transform="matrix(1.0, 0.0, 0.0, 1.0, 3.7, -0.75)">
      <path d="M44.4 22.25 Q47.2 29.85 45.05 39.6 43.55 27.65 40.05 22.85 35.55 16.7 25.95 18.1 16.6 15.95 11.15 26.15 8.4 31.25 7.55 36.8 4.05 27.15 9.8 19.3 15.65 11.3 25.8 14.05 26.4 14.5 26.85 14.5 L28.9 13.85 Q40.75 12.25 44.4 22.25" fill="#000000" fill-opacity="0.29803923" fill-rule="evenodd" stroke="none"/>
      <path d="M40.8 2.7 Q47.8 6.3 51.45 15.75 55.25 25.75 52.8 35.4 51.55 40.2 49.6 42.6 L49.9 40.45 49.95 38.6 Q48.65 40.75 47.35 41.45 L47.8 39.05 46.4 41.4 Q45.2 43.2 43.9 44.05 45.5 30.95 42.7 23.75 L41.95 22.05 40.25 19.5 Q41.55 21.95 41.1 24.4 L40.4 26.3 Q39.45 19.55 35.8 16.8 34.05 15.55 30.4 14.85 L29.9 14.95 26.95 15.6 Q24.65 14.85 22.55 14.7 18.8 16.85 16.65 19.9 12.55 25.9 14.2 34.95 12.9 32.45 12.65 28.85 12.05 21.7 16.85 16.3 10.15 19.3 8.0 31.75 L7.95 31.9 Q7.45 36.65 8.85 40.95 7.25 40.05 6.8 38.95 L7.0 41.7 7.7 44.25 Q8.2 45.35 6.35 42.9 4.75 40.8 4.2 37.8 2.7 39.9 0.6 41.0 L1.25 39.9 1.55 38.7 0.65 39.55 Q-0.6 40.65 -2.25 40.9 L-3.7 40.95 Q-2.65 40.2 -2.0 38.85 0.25 34.35 0.15 29.45 0.0 23.35 1.6 18.0 2.85 13.9 5.85 9.45 8.45 5.55 10.1 4.45 15.35 0.95 21.2 1.05 L26.7 1.7 Q34.4 -0.6 40.8 2.7" fill="#c0c093" fill-rule="evenodd" stroke="none"/>
    </g>
    <g id="shape2" transform="matrix(1.0, 0.0, 0.0, 1.0, -1.55, -0.65)">
      <path d="M51.6 25.65 Q51.6 36.0 44.25 43.3 36.95 50.65 26.6 50.65 16.2 50.65 8.85 43.3 1.55 36.0 1.55 25.65 1.55 15.3 8.85 7.95 16.2 0.65 26.6 0.65 36.95 0.65 44.25 7.95 51.6 15.3 51.6 25.65" fill="url(#gradient0)" fill-rule="evenodd" stroke="none"/>
      <path d="M11.05 17.05 Q7.4 16.1 3.9 14.65 4.9 10.65 8.85 8.7 20.4 18.1 49.4 14.45 33.25 20.15 17.25 18.2 L15.75 18.05 14.15 17.7 11.05 17.05" fill="#f0f0d8" fill-opacity="0.6" fill-rule="evenodd" stroke="none"/>
    </g>
    <radialGradient cx="0" cy="0" gradientTransform="matrix(0.0311, 0.0, 0.0, 0.0311, 26.6, 25.65)" gradientUnits="userSpaceOnUse" id="gradient0" r="819.2" spreadMethod="pad">
      <stop offset="0.0" stop-color="#98984f" stop-opacity="0.4"/>
      <stop offset="1.0" stop-color="#98984f" stop-opacity="0.0"/>
    </radialGradient>
    <g id="shape3" transform="matrix(1.0, 0.0, 0.0, 1.0, -5.65, -4.15)">
      <path d="M44.15 43.8 Q45.75 36.8 44.85 29.7 43.05 15.5 30.5 14.95 L28.8 15.1 26.95 15.55 25.7 15.25 24.2 14.9 22.8 14.75 22.4 14.8 Q20.25 16.0 18.45 17.75 15.75 20.45 14.7 23.9 L14.0 26.85 Q13.4 30.65 14.2 34.95 13.5 31.95 13.75 28.0 14.25 20.1 19.2 15.25 12.1 17.6 9.3 26.4 7.05 33.5 8.45 39.45 4.25 29.95 6.4 23.1 7.2 20.45 9.9 17.4 9.45 18.4 9.35 19.4 L9.15 21.1 Q10.85 18.55 13.2 16.45 17.85 12.3 24.1 13.5 21.75 11.8 18.8 11.9 L16.3 12.3 Q18.85 10.85 19.7 11.3 16.9 9.75 14.3 11.0 L12.25 12.55 Q13.65 10.5 15.05 9.7 L16.15 9.3 Q19.3 9.35 21.95 10.95 L26.85 14.1 29.35 12.4 Q32.2 10.25 37.0 12.8 35.4 12.55 33.3 12.85 35.6 13.15 38.45 15.05 41.6 17.1 44.35 20.4 41.5 15.8 40.1 14.2 37.9 11.65 34.6 10.15 37.3 9.75 40.45 11.85 42.75 13.4 45.0 16.0 48.2 19.8 47.9 26.85 47.55 33.25 44.15 43.8 M22.4 10.7 Q24.0 9.8 25.1 9.9 L25.8 10.1 23.65 8.35 22.25 7.4 Q25.25 7.85 25.95 8.6 26.05 7.15 26.8 4.15 L27.4 7.65 28.85 7.0 Q30.65 6.3 31.55 6.65 L30.15 7.1 Q28.55 7.85 27.65 9.2 L28.5 8.9 Q29.5 8.6 30.3 8.9 28.8 9.55 27.9 10.45 27.5 10.7 26.85 11.65 L22.4 10.7 M50.8 32.4 Q50.75 34.95 48.55 38.75 49.6 36.3 49.95 29.35 L50.05 22.85 Q51.45 25.75 52.7 33.15 52.65 37.8 50.55 41.15 L51.25 36.6 51.05 33.6 50.8 32.4" fill="#98984f" fill-opacity="0.74509805" fill-rule="evenodd" stroke="none"/>
    </g>
  </defs>
</svg>
