<?xml version="1.0" encoding="UTF-8" standalone="no"?>
<svg xmlns:ffdec="https://www.free-decompiler.com/flash" xmlns:xlink="http://www.w3.org/1999/xlink" ffdec:objectType="frame" height="54.05px" width="49.5px" xmlns="http://www.w3.org/2000/svg">
  <g transform="matrix(1.0, 0.0, 0.0, 1.0, 1.85, 9.1)">
    <use ffdec:characterId="1" height="54.05" transform="matrix(1.0, 0.0, 0.0, 1.0, -1.85, -9.1)" width="49.5" xlink:href="#shape0"/>
  </g>
  <defs>
    <g id="shape0" transform="matrix(1.0, 0.0, 0.0, 1.0, 1.85, 9.1)">
      <path d="M8.2 -7.45 Q14.85 -9.55 24.2 -9.0 33.1 -8.5 39.65 -6.0 46.6 -3.3 46.95 0.25 48.0 14.75 47.45 24.55 46.4 43.15 38.7 42.5 40.3 40.15 40.55 36.15 40.8 32.5 39.9 30.4 39.5 34.7 36.1 39.15 33.3 42.85 31.75 43.3 31.6 39.1 30.6 37.85 29.65 40.15 27.75 42.45 26.15 44.4 25.15 44.95 24.05 44.45 22.7 40.45 L21.6 36.5 Q19.7 38.35 18.85 41.0 18.15 43.05 18.35 43.4 15.2 42.05 14.45 39.25 14.0 37.7 14.3 34.8 12.95 37.5 13.0 40.85 13.0 42.55 13.3 43.65 8.7 42.3 7.2 36.0 6.75 34.0 6.7 31.85 6.65 30.45 6.75 30.15 5.65 32.6 5.85 36.55 6.05 40.7 7.6 44.05 -1.1 41.75 -1.8 20.65 -2.15 10.1 -0.75 0.0 0.6 -5.1 8.2 -7.45" fill="#593677" fill-rule="evenodd" stroke="none"/>
      <path d="M0.6 -2.9 L0.75 -3.3 3.35 -5.85 3.4 -5.3 2.0 1.35 Q0.6 7.85 0.6 12.2 L1.05 16.5 0.6 14.3 -0.2 8.15 0.1 1.65 0.3 -1.65 0.6 -2.9 M15.1 -8.65 Q20.75 -9.55 29.75 -8.3 38.7 -7.05 43.8 -4.0 46.25 3.3 45.8 12.9 L46.05 16.0 45.85 20.5 Q45.55 27.05 45.25 28.45 44.2 33.55 42.95 37.4 L42.15 38.75 Q41.35 39.95 39.55 41.3 L40.05 40.1 40.3 39.45 Q42.55 35.4 43.9 30.15 45.2 24.95 45.3 22.0 L45.65 15.35 Q44.9 22.8 41.95 29.75 43.2 22.5 41.4 15.2 41.5 18.1 41.1 21.1 40.3 26.65 37.65 31.8 35.5 36.1 32.45 40.0 34.35 36.7 35.85 33.35 38.35 27.85 38.35 21.85 36.55 26.9 33.85 31.45 29.95 38.0 25.1 43.85 L22.45 37.3 22.05 36.1 Q21.6 35.3 20.8 36.1 L19.25 38.05 Q18.9 38.65 18.45 40.0 17.95 41.6 17.95 42.5 L17.95 42.7 Q16.45 41.25 15.65 39.6 15.0 38.25 14.75 36.45 15.0 33.4 15.25 33.75 L10.35 25.3 Q10.2 32.75 12.2 39.9 10.7 37.9 10.0 35.55 7.75 27.8 6.9 19.5 L6.55 21.5 Q6.05 25.55 5.95 29.75 3.6 24.7 3.15 19.15 2.6 12.55 3.5 5.8 4.4 -0.8 6.75 -6.95 9.45 -7.8 15.1 -8.65 M0.3 21.6 Q0.55 26.1 2.7 32.0 4.8 37.95 6.65 40.9 L6.6 41.1 8.0 44.25 6.85 43.95 6.3 43.85 Q5.3 42.8 4.3 40.8 2.65 37.6 1.9 34.1 L1.0 29.9 Q0.15 23.55 0.15 22.4 L0.25 21.6 0.3 21.6 M6.0 33.35 Q5.7 34.95 5.7 35.85 L6.0 38.35 6.15 38.75 Q4.45 37.65 3.5 29.75 L3.0 22.85 3.6 25.65 4.7 29.15 Q5.25 31.8 6.05 33.25 L6.0 33.35 M13.75 36.75 L13.8 37.0 13.75 37.0 13.7 36.8 13.75 36.75" fill="#4c3064" fill-opacity="0.8" fill-rule="evenodd" stroke="none"/>
    </g>
  </defs>
</svg>
