<?xml version="1.0" encoding="UTF-8" standalone="no"?>
<svg xmlns:ffdec="https://www.free-decompiler.com/flash" xmlns:xlink="http://www.w3.org/1999/xlink" ffdec:objectType="frame" height="41.75px" width="78.15px" xmlns="http://www.w3.org/2000/svg">
  <g transform="matrix(1.0, 0.0, 0.0, 1.0, 16.2, -2.0)">
    <use ffdec:characterId="7" height="38.8" id="Color" transform="matrix(1.0, 0.0, 0.0, 1.0, -16.2, 2.0)" width="78.15" xlink:href="#sprite0"/>
    <clipPath id="clipPath0" transform="matrix(1.0, 0.0, 0.0, 1.0, 0.0, 0.0)">
      <path d="M42.2 17.45 Q43.0 19.0 44.15 20.05 45.25 21.4 46.2 20.65 L46.8 20.2 47.5 21.05 Q48.8 22.15 50.3 22.75 51.25 23.25 51.85 23.05 L53.2 25.0 Q54.55 27.5 54.0 30.0 52.3 25.8 49.2 24.75 46.1 23.65 45.8 23.25 49.65 30.45 55.25 38.1 L50.25 35.65 Q46.65 33.75 45.65 29.4 45.5 31.7 47.0 35.0 48.65 38.75 53.45 40.0 43.6 43.7 36.8 26.35 34.25 19.95 32.6 12.5 L31.8 8.75 31.55 7.25 35.7 7.25 Q35.45 8.3 36.0 9.75 36.85 11.25 38.0 12.35 L38.1 12.45 38.4 13.35 Q39.15 14.9 40.35 15.95 41.2 17.05 41.95 16.75 L42.2 17.45 M14.0 8.9 L13.2 12.65 Q11.55 20.1 9.0 26.5 2.2 43.85 -7.65 40.15 -2.85 38.9 -1.2 35.15 0.3 31.85 0.15 29.55 -0.85 33.9 -4.45 35.8 L-9.45 38.25 Q-3.85 30.6 0.0 23.4 -0.3 23.8 -3.4 24.9 -6.5 25.95 -8.2 30.15 -8.75 27.65 -7.4 25.15 L-6.05 23.2 -4.5 22.9 Q-3.0 22.3 -1.7 21.2 L-1.0 20.35 -0.4 20.8 Q0.55 21.55 1.65 20.2 2.8 19.15 3.6 17.6 L3.85 16.9 Q4.6 17.2 5.45 16.1 6.65 15.05 7.4 13.5 L7.7 12.6 7.8 12.5 Q8.95 11.4 9.8 9.9 10.35 8.45 10.1 7.4 L14.25 7.4 14.0 8.9" fill="#aa1e1f" fill-rule="evenodd" stroke="none"/>
    </clipPath>
    <g clip-path="url(#clipPath0)">
      <use ffdec:characterId="9" height="37.75" transform="matrix(1.0, 0.0, 0.0, 1.0, -11.9, 6.0)" width="69.65" xlink:href="#shape2"/>
    </g>
    <use ffdec:characterId="10" height="19.0" transform="matrix(1.0, 0.0, 0.0, 1.0, -14.7, 2.05)" width="75.3" xlink:href="#shape3"/>
  </g>
  <defs>
    <g id="sprite0" transform="matrix(1.0, 0.0, 0.0, 1.0, 16.2, -2.0)">
      <use ffdec:characterId="6" height="38.8" transform="matrix(1.0, 0.0, 0.0, 1.0, -16.2, 2.0)" width="78.15" xlink:href="#shape0"/>
    </g>
    <g id="shape0" transform="matrix(1.0, 0.0, 0.0, 1.0, 16.2, -2.0)">
      <path d="M61.75 13.9 L60.15 16.7 58.65 18.0 59.15 19.25 Q59.55 20.35 58.05 21.0 56.65 21.75 55.0 22.05 L52.8 21.85 52.35 22.5 51.85 23.05 53.2 25.0 Q54.55 27.5 54.0 30.0 52.3 25.8 49.2 24.75 46.1 23.65 45.8 23.25 49.65 30.45 55.25 38.1 L50.25 35.65 Q46.65 33.75 45.65 29.4 45.5 31.7 47.0 35.0 48.65 38.75 53.45 40.0 43.6 43.7 36.8 26.35 34.25 19.95 32.6 12.5 L31.8 8.75 31.55 7.25 35.7 7.25 35.8 6.95 36.25 6.4 37.8 6.2 38.9 6.45 Q39.1 4.9 40.3 4.45 L42.75 4.65 42.75 3.3 Q42.9 2.1 44.6 2.0 L47.75 2.25 Q49.1 2.7 49.75 3.5 L50.1 2.85 Q50.55 1.8 52.25 2.4 53.7 3.05 54.95 4.05 55.95 4.95 56.3 5.85 L56.7 5.7 Q57.7 5.15 58.6 6.6 59.55 7.85 60.0 9.5 L60.15 11.25 61.25 11.75 Q62.3 12.3 61.75 13.9 M53.5 9.45 Q53.3 8.8 53.5 8.25 L52.05 8.4 Q50.65 8.35 49.6 7.75 48.9 7.2 48.9 6.3 L46.9 7.45 Q45.65 8.0 44.5 7.85 L44.3 7.8 43.7 9.55 42.95 10.75 Q44.2 11.4 44.8 12.3 45.3 13.1 44.75 14.05 L46.75 14.8 Q48.0 15.45 48.65 16.4 L48.9 16.9 50.7 16.85 Q52.1 16.95 53.1 17.65 L53.7 16.95 Q54.7 15.95 55.85 15.6 L56.0 15.55 55.75 13.95 Q55.8 12.8 56.15 11.95 L55.1 11.4 Q54.0 10.5 53.5 9.45 M2.8 10.9 L2.05 9.7 1.45 7.95 1.25 8.0 -1.15 7.6 -3.15 6.45 Q-3.15 7.35 -3.85 7.9 -4.9 8.5 -6.3 8.55 L-7.75 8.4 Q-7.55 8.95 -7.75 9.6 -8.25 10.65 -9.35 11.55 L-10.4 12.1 Q-10.05 12.95 -10.0 14.1 L-10.25 15.7 -10.1 15.75 Q-8.95 16.1 -7.95 17.1 L-7.35 17.8 Q-6.35 17.1 -4.95 17.0 L-3.15 17.05 -2.9 16.55 Q-2.25 15.6 -1.0 14.95 L1.0 14.2 Q0.45 13.25 0.95 12.45 1.55 11.55 2.8 10.9 M14.2 7.4 L13.95 8.9 13.15 12.65 Q11.5 20.1 8.95 26.5 2.15 43.85 -7.7 40.15 -2.9 38.9 -1.25 35.15 0.25 31.85 0.1 29.55 -0.9 33.9 -4.5 35.8 L-9.5 38.25 Q-3.9 30.6 -0.05 23.4 -0.35 23.8 -3.45 24.9 -6.55 25.95 -8.25 30.15 -8.8 27.65 -7.45 25.15 L-6.1 23.2 -6.6 22.65 -7.05 22.0 -9.25 22.2 Q-10.9 21.9 -12.3 21.15 -13.8 20.5 -13.4 19.4 L-12.9 18.15 -14.4 16.85 -16.0 14.05 Q-16.55 12.45 -15.5 11.9 L-14.4 11.4 -14.25 9.65 Q-13.8 8.0 -12.85 6.75 -11.95 5.3 -10.95 5.85 L-10.55 6.0 Q-10.2 5.1 -9.2 4.2 -7.95 3.2 -6.5 2.55 -4.8 1.95 -4.35 3.0 L-4.0 3.65 Q-3.35 2.85 -2.0 2.4 L1.15 2.15 Q2.85 2.25 3.0 3.45 L3.0 4.8 5.45 4.6 Q6.65 5.05 6.85 6.6 L7.95 6.35 9.5 6.55 9.95 7.1 10.05 7.4 14.2 7.4" fill="#aa1e1f" fill-rule="evenodd" stroke="none"/>
    </g>
    <g id="shape2" transform="matrix(1.0, 0.0, 0.0, 1.0, 11.9, -6.0)">
      <path d="M46.8 20.0 Q51.0 21.0 53.2 25.0 54.55 27.5 54.0 30.0 52.3 25.8 49.2 24.75 46.1 23.65 45.8 23.25 49.65 30.45 55.25 38.1 L50.25 35.65 Q46.65 33.75 45.65 29.4 45.5 31.7 47.0 35.0 48.65 38.75 53.45 40.0 43.6 43.7 36.8 26.35 34.25 19.95 32.6 12.5 L31.8 8.75 31.55 7.25 39.45 7.25 39.85 8.75 Q40.75 12.05 42.2 15.55 43.15 17.85 46.8 20.0" fill="url(#gradient0)" fill-rule="evenodd" stroke="none"/>
      <path d="M14.3 7.3 L14.05 8.8 13.25 12.55 Q11.6 20.0 9.05 26.4 2.25 43.75 -7.6 40.05 -2.8 38.8 -1.15 35.05 0.35 31.75 0.2 29.45 -0.8 33.8 -4.4 35.7 L-9.4 38.15 Q-3.8 30.5 0.05 23.3 -0.25 23.7 -3.35 24.8 -6.45 25.85 -8.15 30.05 -8.7 27.55 -7.35 25.05 -5.15 21.05 -0.95 20.05 2.7 17.9 3.65 15.6 5.1 12.1 6.0 8.8 L6.4 7.3 14.3 7.3" fill="url(#gradient1)" fill-rule="evenodd" stroke="none"/>
      <path d="M49.1 22.85 Q53.55 24.8 54.5 32.75 L45.0 22.5 46.15 22.3 Q47.7 22.25 49.1 22.85" fill="url(#gradient2)" fill-rule="evenodd" stroke="none"/>
      <path d="M55.25 40.0 L46.25 43.75 Q40.0 35.7 35.2 26.95 25.65 9.45 33.0 6.0 34.4 12.65 36.45 19.7 40.65 33.9 44.25 36.25 50.0 40.0 55.25 40.0" fill="url(#gradient3)" fill-rule="evenodd" stroke="none"/>
      <path d="M12.85 6.0 Q20.2 9.45 10.65 26.95 5.85 35.7 -0.4 43.75 L-9.4 40.0 Q-4.15 40.0 1.6 36.25 5.2 33.9 9.4 19.7 11.45 12.65 12.85 6.0" fill="url(#gradient4)" fill-rule="evenodd" stroke="none"/>
      <path d="M1.6 26.9 Q1.25 29.05 0.1 31.25 -3.45 38.05 -11.9 40.25 -9.3 38.7 -6.3 36.05 -0.3 30.7 1.6 25.25 1.95 24.9 1.6 26.9" fill="url(#gradient5)" fill-rule="evenodd" stroke="none"/>
      <path d="M-8.65 32.75 Q-7.7 24.8 -3.25 22.85 -1.85 22.25 -0.3 22.3 L0.85 22.5 -8.65 32.75" fill="url(#gradient6)" fill-rule="evenodd" stroke="none"/>
      <path d="M45.75 31.25 Q44.6 29.05 44.25 26.9 43.9 24.9 44.25 25.25 46.15 30.7 52.15 36.05 55.15 38.7 57.75 40.25 49.3 38.05 45.75 31.25" fill="url(#gradient7)" fill-rule="evenodd" stroke="none"/>
    </g>
    <linearGradient gradientTransform="matrix(0.0145, 0.0, 0.0, 0.0204, 43.4, 23.95)" gradientUnits="userSpaceOnUse" id="gradient0" spreadMethod="pad" x1="-819.2" x2="819.2">
      <stop offset="0.0" stop-color="#640a0a" stop-opacity="0.4"/>
      <stop offset="0.7764705882352941" stop-color="#510000" stop-opacity="0.0"/>
    </linearGradient>
    <linearGradient gradientTransform="matrix(-0.0145, 0.0, 0.0, 0.0204, 2.45, 24.0)" gradientUnits="userSpaceOnUse" id="gradient1" spreadMethod="pad" x1="-819.2" x2="819.2">
      <stop offset="0.0" stop-color="#640a0a" stop-opacity="0.4"/>
      <stop offset="0.7764705882352941" stop-color="#510000" stop-opacity="0.0"/>
    </linearGradient>
    <linearGradient gradientTransform="matrix(0.0058, 0.0, 0.0, 0.0064, 49.75, 27.5)" gradientUnits="userSpaceOnUse" id="gradient2" spreadMethod="pad" x1="-819.2" x2="819.2">
      <stop offset="0.0" stop-color="#5d0b0b" stop-opacity="0.4"/>
      <stop offset="0.7764705882352941" stop-color="#4d0606" stop-opacity="0.0"/>
    </linearGradient>
    <linearGradient gradientTransform="matrix(0.0155, 0.0, 0.0, 0.023, 42.5, 24.85)" gradientUnits="userSpaceOnUse" id="gradient3" spreadMethod="pad" x1="-819.2" x2="819.2">
      <stop offset="0.0" stop-color="#5d0b0b" stop-opacity="0.4"/>
      <stop offset="0.7764705882352941" stop-color="#4d0606" stop-opacity="0.0"/>
    </linearGradient>
    <linearGradient gradientTransform="matrix(-0.0155, 0.0, 0.0, 0.023, 3.35, 24.85)" gradientUnits="userSpaceOnUse" id="gradient4" spreadMethod="pad" x1="-819.2" x2="819.2">
      <stop offset="0.0" stop-color="#5d0b0b" stop-opacity="0.4"/>
      <stop offset="0.7764705882352941" stop-color="#4d0606" stop-opacity="0.0"/>
    </linearGradient>
    <linearGradient gradientTransform="matrix(-0.0084, 0.0, 0.0, 0.0092, -5.05, 32.7)" gradientUnits="userSpaceOnUse" id="gradient5" spreadMethod="pad" x1="-819.2" x2="819.2">
      <stop offset="0.0" stop-color="#5d0b0b" stop-opacity="0.4"/>
      <stop offset="0.7764705882352941" stop-color="#4d0606" stop-opacity="0.0"/>
    </linearGradient>
    <linearGradient gradientTransform="matrix(-0.0058, 0.0, 0.0, 0.0064, -3.9, 27.5)" gradientUnits="userSpaceOnUse" id="gradient6" spreadMethod="pad" x1="-819.2" x2="819.2">
      <stop offset="0.0" stop-color="#5d0b0b" stop-opacity="0.4"/>
      <stop offset="0.7764705882352941" stop-color="#4d0606" stop-opacity="0.0"/>
    </linearGradient>
    <linearGradient gradientTransform="matrix(0.0084, 0.0, 0.0, 0.0092, 50.9, 32.7)" gradientUnits="userSpaceOnUse" id="gradient7" spreadMethod="pad" x1="-819.2" x2="819.2">
      <stop offset="0.0" stop-color="#5d0b0b" stop-opacity="0.4"/>
      <stop offset="0.7764705882352941" stop-color="#4d0606" stop-opacity="0.0"/>
    </linearGradient>
    <g id="shape3" transform="matrix(1.0, 0.0, 0.0, 1.0, 14.7, -2.05)">
      <path d="M52.75 3.9 Q54.45 5.25 54.8 5.95 L54.95 7.3 56.4 7.8 Q57.45 8.5 57.9 9.45 58.45 8.3 58.05 7.1 58.75 8.7 58.7 9.5 L58.0 11.2 58.95 12.9 Q59.25 14.15 58.9 15.15 60.05 14.7 60.6 13.55 60.0 15.25 59.45 15.75 L56.9 16.8 Q58.7 14.7 58.55 13.25 L57.95 11.35 57.65 12.0 Q57.5 9.2 56.35 8.35 L54.95 7.55 55.05 8.45 54.2 7.25 54.0 7.2 54.15 7.2 Q52.9 5.7 51.65 5.2 L49.35 4.55 49.9 5.15 Q46.8 3.95 45.45 4.25 L43.15 5.05 Q43.6 4.2 44.8 3.8 L47.15 3.5 Q46.05 2.45 44.55 2.05 46.65 2.45 47.5 2.95 L49.15 4.45 51.4 4.7 Q52.95 5.2 53.95 6.0 53.85 4.95 52.75 3.9 M41.0 10.65 L40.2 11.9 Q41.7 12.4 42.35 12.9 43.35 13.75 43.7 15.2 44.1 14.25 43.95 12.9 44.35 14.8 43.95 15.5 L43.75 15.9 44.95 16.15 Q46.15 16.65 46.75 17.55 47.15 16.35 46.5 15.2 47.55 16.75 47.5 17.55 L47.4 19.05 48.9 18.75 49.75 18.65 51.0 18.7 Q51.65 18.75 52.1 19.2 L51.15 17.45 Q52.45 18.55 52.45 19.35 52.45 20.0 52.65 20.15 50.55 18.8 47.4 19.45 L45.4 19.55 47.25 19.1 Q46.25 17.4 45.05 16.65 44.35 16.3 43.7 16.1 L43.7 16.3 43.6 16.1 42.6 15.9 43.45 15.85 42.05 13.75 Q41.5 13.05 40.0 12.25 L38.2 11.35 40.05 11.85 Q40.05 9.9 39.35 8.65 38.65 7.45 37.6 6.75 38.65 7.1 39.5 8.15 40.3 9.2 40.4 10.3 41.3 9.45 41.35 8.1 41.5 10.0 41.0 10.65 M58.05 17.95 Q56.15 18.05 54.85 18.75 53.75 19.5 53.05 20.55 53.4 19.5 54.45 18.55 55.4 17.75 56.45 17.65 55.6 16.75 54.3 16.75 L56.8 16.95 58.05 17.95 M-12.15 18.45 L-10.9 17.45 -8.4 17.25 Q-9.7 17.25 -10.55 18.15 -9.5 18.25 -8.55 19.05 -7.5 20.0 -7.15 21.05 -7.85 20.0 -8.95 19.25 -10.25 18.55 -12.15 18.45 M4.9 11.15 Q4.4 10.5 4.55 8.6 4.6 9.95 5.5 10.8 5.6 9.7 6.4 8.65 7.25 7.6 8.3 7.25 7.25 7.95 6.55 9.15 5.85 10.4 5.85 12.35 L7.7 11.85 5.9 12.75 Q4.4 13.55 3.85 14.25 L2.45 16.35 3.3 16.4 2.3 16.6 2.2 16.8 2.2 16.6 Q1.55 16.8 0.85 17.15 -0.35 17.9 -1.35 19.6 L0.5 20.05 -1.5 19.95 Q-4.65 19.3 -6.75 20.65 L-6.55 19.85 Q-6.55 19.05 -5.25 17.95 L-6.2 19.7 Q-5.75 19.25 -5.1 19.2 L-3.85 19.15 -3.0 19.25 -1.5 19.55 -1.6 18.05 Q-1.65 17.25 -0.6 15.7 -1.25 16.85 -0.85 18.05 -0.25 17.15 0.95 16.65 L2.15 16.4 1.95 16.0 Q1.55 15.3 1.95 13.4 1.8 14.75 2.2 15.7 2.55 14.25 3.55 13.4 4.2 12.9 5.7 12.4 L4.9 11.15 M1.1 4.3 Q2.3 4.7 2.75 5.55 L0.45 4.75 Q-0.9 4.45 -4.0 5.65 L-3.45 5.05 -5.75 5.7 Q-7.0 6.2 -8.25 7.7 L-8.1 7.7 -8.3 7.75 -9.15 8.95 -9.05 8.05 Q-9.8 8.35 -10.45 8.85 -11.6 9.7 -11.75 12.5 L-12.05 11.85 -12.65 13.75 Q-12.8 15.2 -11.0 17.3 L-13.55 16.25 Q-14.1 15.75 -14.7 14.05 -14.15 15.2 -13.0 15.65 -13.35 14.65 -13.05 13.4 L-12.1 11.7 -12.8 10.0 Q-12.85 9.2 -12.15 7.6 -12.55 8.8 -12.0 9.95 -11.55 9.0 -10.5 8.3 -9.75 7.95 -9.05 7.8 L-8.9 6.45 Q-8.55 5.75 -6.85 4.4 -7.95 5.45 -8.05 6.5 -7.05 5.7 -5.5 5.2 L-3.25 4.95 -1.6 3.45 Q-0.75 2.95 1.35 2.55 -0.15 2.95 -1.25 4.0 -0.05 3.8 1.1 4.3" fill="#4f0000" fill-opacity="0.29803923" fill-rule="evenodd" stroke="none"/>
    </g>
  </defs>
</svg>
