<svg xmlns="http://www.w3.org/2000/svg" xmlns:ffdec="https://www.free-decompiler.com/flash" xmlns:xlink="http://www.w3.org/1999/xlink" ffdec:objectType="frame" width="51.8" height="53.95"><use ffdec:characterId="3" xlink:href="#a" width="51.8" height="53.95"/><defs><linearGradient id="c" x1="-819.2" x2="819.2" gradientTransform="matrix(.0068 0 0 .0043 41.6 7.15)" gradientUnits="userSpaceOnUse" spreadMethod="pad"><stop offset="0" stop-color="#9f5353"/><stop offset="1" stop-color="#9f5353" stop-opacity="0"/></linearGradient><linearGradient id="d" x1="-819.2" x2="819.2" gradientTransform="matrix(.0067 .0084 -.0091 .0073 49.75 20.4)" gradientUnits="userSpaceOnUse" spreadMethod="pad"><stop offset="0" stop-color="#9f5353"/><stop offset="1" stop-color="#9f5353" stop-opacity="0"/></linearGradient><linearGradient id="e" x1="-819.2" x2="819.2" gradientTransform="matrix(.0057 0 0 .0089 41.25 15.4)" gradientUnits="userSpaceOnUse" spreadMethod="pad"><stop offset="0" stop-color="#9f5353"/><stop offset="1" stop-color="#9f5353" stop-opacity="0"/></linearGradient><linearGradient id="f" x1="-819.2" x2="819.2" gradientTransform="matrix(.0039 0 0 .0071 39.6 23.8)" gradientUnits="userSpaceOnUse" spreadMethod="pad"><stop offset="0" stop-color="#9f5353"/><stop offset="1" stop-color="#9f5353" stop-opacity="0"/></linearGradient><linearGradient id="g" x1="-819.2" x2="819.2" gradientTransform="matrix(.0047 0 0 .0127 40.25 21.5)" gradientUnits="userSpaceOnUse" spreadMethod="pad"><stop offset="0" stop-color="#9f5353"/><stop offset="1" stop-color="#9f5353" stop-opacity="0"/></linearGradient><linearGradient id="h" x1="-819.2" x2="819.2" gradientTransform="matrix(.001 0 0 .0108 47.9 36.1)" gradientUnits="userSpaceOnUse" spreadMethod="pad"><stop offset="0" stop-color="#9f5353"/><stop offset="1" stop-color="#9f5353" stop-opacity="0"/></linearGradient><linearGradient id="i" x1="-819.2" x2="819.2" gradientTransform="matrix(.0004 .0047 -.0101 .0008 45.55 42.4)" gradientUnits="userSpaceOnUse" spreadMethod="pad"><stop offset="0" stop-color="#9f5353"/><stop offset="1" stop-color="#9f5353" stop-opacity="0"/></linearGradient><linearGradient id="j" x1="-819.2" x2="819.2" gradientTransform="matrix(.0029 0 0 .0006 34.35 .85)" gradientUnits="userSpaceOnUse" spreadMethod="pad"><stop offset="0" stop-color="#9f5353"/><stop offset="1" stop-color="#9f5353" stop-opacity="0"/></linearGradient><linearGradient id="k" x1="-819.2" x2="819.2" gradientTransform="matrix(.0099 0 0 .0106 27.8 9.45)" gradientUnits="userSpaceOnUse" spreadMethod="pad"><stop offset="0" stop-color="#9f5353"/><stop offset="1" stop-color="#9f5353" stop-opacity="0"/></linearGradient><linearGradient id="l" x1="-819.2" x2="819.2" gradientTransform="matrix(-.0015 .0097 -.0061 -.0009 17.8 15.45)" gradientUnits="userSpaceOnUse" spreadMethod="pad"><stop offset="0" stop-color="#9f5353"/><stop offset="1" stop-color="#9f5353" stop-opacity="0"/></linearGradient><linearGradient id="m" x1="-819.2" x2="819.2" gradientTransform="matrix(.0045 0 0 .0119 25.9 31.3)" gradientUnits="userSpaceOnUse" spreadMethod="pad"><stop offset="0" stop-color="#9f5353"/><stop offset="1" stop-color="#9f5353" stop-opacity="0"/></linearGradient><linearGradient id="n" x1="-819.2" x2="819.2" gradientTransform="matrix(.0032 0 0 .0113 21.6 26.55)" gradientUnits="userSpaceOnUse" spreadMethod="pad"><stop offset="0" stop-color="#9f5353"/><stop offset="1" stop-color="#9f5353" stop-opacity="0"/></linearGradient><linearGradient id="o" x1="-819.2" x2="819.2" gradientTransform="matrix(.002 0 0 .0142 29.4 20.55)" gradientUnits="userSpaceOnUse" spreadMethod="pad"><stop offset="0" stop-color="#9f5353"/><stop offset="1" stop-color="#9f5353" stop-opacity="0"/></linearGradient><linearGradient id="p" x1="-819.2" x2="819.2" gradientTransform="matrix(.0038 0 0 .0087 36.95 19.65)" gradientUnits="userSpaceOnUse" spreadMethod="pad"><stop offset="0" stop-color="#9f5353"/><stop offset="1" stop-color="#9f5353" stop-opacity="0"/></linearGradient><linearGradient id="q" x1="-819.2" x2="819.2" gradientTransform="matrix(.0012 0 0 .0081 32.45 22.1)" gradientUnits="userSpaceOnUse" spreadMethod="pad"><stop offset="0" stop-color="#9f5353"/><stop offset="1" stop-color="#9f5353" stop-opacity="0"/></linearGradient><linearGradient id="r" x1="-819.2" x2="819.2" gradientTransform="matrix(.0037 0 0 .0078 37.85 18.1)" gradientUnits="userSpaceOnUse" spreadMethod="pad"><stop offset="0" stop-color="#9f5353"/><stop offset="1" stop-color="#9f5353" stop-opacity="0"/></linearGradient><linearGradient id="s" x1="-819.2" x2="819.2" gradientTransform="matrix(.0064 0 0 .002 14.75 4.7)" gradientUnits="userSpaceOnUse" spreadMethod="pad"><stop offset="0" stop-color="#9f5353"/><stop offset="1" stop-color="#9f5353" stop-opacity="0"/></linearGradient><linearGradient id="t" x1="-819.2" x2="819.2" gradientTransform="matrix(.0048 0 0 .0106 13.25 21.55)" gradientUnits="userSpaceOnUse" spreadMethod="pad"><stop offset="0" stop-color="#9f5353"/><stop offset="1" stop-color="#9f5353" stop-opacity="0"/></linearGradient><linearGradient id="u" x1="-819.2" x2="819.2" gradientTransform="matrix(.002 0 0 .0032 6.25 20.2)" gradientUnits="userSpaceOnUse" spreadMethod="pad"><stop offset="0" stop-color="#9f5353"/><stop offset="1" stop-color="#9f5353" stop-opacity="0"/></linearGradient><linearGradient id="v" x1="-819.2" x2="819.2" gradientTransform="matrix(.0032 0 0 .0061 2.85 17.65)" gradientUnits="userSpaceOnUse" spreadMethod="pad"><stop offset="0" stop-color="#9f5353"/><stop offset="1" stop-color="#9f5353" stop-opacity="0"/></linearGradient><linearGradient id="w" x1="-819.2" x2="819.2" gradientTransform="matrix(.0055 0 0 .0053 8.4 12.95)" gradientUnits="userSpaceOnUse" spreadMethod="pad"><stop offset="0" stop-color="#9f5353"/><stop offset="1" stop-color="#9f5353" stop-opacity="0"/></linearGradient><linearGradient id="x" x1="-819.2" x2="819.2" gradientTransform="matrix(.0071 0 0 .0065 17 9.75)" gradientUnits="userSpaceOnUse" spreadMethod="pad"><stop offset="0" stop-color="#9f5353"/><stop offset="1" stop-color="#9f5353" stop-opacity="0"/></linearGradient><linearGradient id="y" x1="-819.2" x2="819.2" gradientTransform="matrix(.0007 0 0 .0092 6.2 36.4)" gradientUnits="userSpaceOnUse" spreadMethod="pad"><stop offset="0" stop-color="#9f5353"/><stop offset="1" stop-color="#9f5353" stop-opacity="0"/></linearGradient><linearGradient id="z" x1="-819.2" x2="819.2" gradientTransform="matrix(.0017 0 0 .0121 9.25 36)" gradientUnits="userSpaceOnUse" spreadMethod="pad"><stop offset="0" stop-color="#9f5353"/><stop offset="1" stop-color="#9f5353" stop-opacity="0"/></linearGradient><linearGradient id="A" x1="-819.2" x2="819.2" gradientTransform="matrix(.0031 0 0 .0099 27.45 31.65)" gradientUnits="userSpaceOnUse" spreadMethod="pad"><stop offset="0" stop-color="#9f5353"/><stop offset="1" stop-color="#9f5353" stop-opacity="0"/></linearGradient><radialGradient id="b" cx="0" cy="0" r="819.2" gradientTransform="matrix(-.0004 .0311 -.0403 -.0005 26.6 20.5)" gradientUnits="userSpaceOnUse" spreadMethod="pad"><stop offset="0" stop-color="#edc9c9"/><stop offset="1" stop-color="#cd9b9b"/></radialGradient><radialGradient id="B" cx="0" cy="0" r="819.2" gradientTransform="translate(46.5 14.15)scale(.0052)" gradientUnits="userSpaceOnUse" spreadMethod="pad"><stop offset="0" stop-color="#ffdbdb"/><stop offset="1" stop-color="#ffdbdb" stop-opacity="0"/></radialGradient><radialGradient id="C" cx="0" cy="0" r="819.2" gradientTransform="translate(42.1 17.65)scale(.0053)" gradientUnits="userSpaceOnUse" spreadMethod="pad"><stop offset="0" stop-color="#ffdbdb"/><stop offset="1" stop-color="#ffdbdb" stop-opacity="0"/></radialGradient><radialGradient id="D" cx="0" cy="0" r="819.2" gradientTransform="translate(43.85 15.75)scale(.0062)" gradientUnits="userSpaceOnUse" spreadMethod="pad"><stop offset="0" stop-color="#ffdbdb"/><stop offset="1" stop-color="#ffdbdb" stop-opacity="0"/></radialGradient><radialGradient id="E" cx="0" cy="0" r="819.2" gradientTransform="translate(39.1 18.1)scale(.0045)" gradientUnits="userSpaceOnUse" spreadMethod="pad"><stop offset="0" stop-color="#ffdbdb"/><stop offset="1" stop-color="#ffdbdb" stop-opacity="0"/></radialGradient><radialGradient id="F" cx="0" cy="0" r="819.2" gradientTransform="translate(30.9 18.45)scale(.0087)" gradientUnits="userSpaceOnUse" spreadMethod="pad"><stop offset="0" stop-color="#ffdbdb"/><stop offset="1" stop-color="#ffdbdb" stop-opacity="0"/></radialGradient><radialGradient id="G" cx="0" cy="0" r="819.2" gradientTransform="translate(24.5 17.9)scale(.0104)" gradientUnits="userSpaceOnUse" spreadMethod="pad"><stop offset="0" stop-color="#ffdbdb"/><stop offset="1" stop-color="#ffdbdb" stop-opacity="0"/></radialGradient><radialGradient id="H" cx="0" cy="0" r="819.2" gradientTransform="translate(9.75 15.45)scale(.0063)" gradientUnits="userSpaceOnUse" spreadMethod="pad"><stop offset="0" stop-color="#ffdbdb"/><stop offset="1" stop-color="#ffdbdb" stop-opacity="0"/></radialGradient><radialGradient id="I" cx="0" cy="0" r="819.2" gradientTransform="translate(5.45 13)scale(.0031)" gradientUnits="userSpaceOnUse" spreadMethod="pad"><stop offset="0" stop-color="#ffdbdb"/><stop offset="1" stop-color="#ffdbdb" stop-opacity="0"/></radialGradient><radialGradient id="J" cx="0" cy="0" r="819.2" gradientTransform="translate(19.05 17.9)scale(.0047)" gradientUnits="userSpaceOnUse" spreadMethod="pad"><stop offset="0" stop-color="#ffdbdb"/><stop offset="1" stop-color="#ffdbdb" stop-opacity="0"/></radialGradient><radialGradient id="K" cx="0" cy="0" r="819.2" gradientTransform="translate(13.8 17.25)scale(.006)" gradientUnits="userSpaceOnUse" spreadMethod="pad"><stop offset="0" stop-color="#ffdbdb"/><stop offset="1" stop-color="#ffdbdb" stop-opacity="0"/></radialGradient><radialGradient id="L" cx="0" cy="0" r="819.2" gradientTransform="translate(11.35 15.95)scale(.0022)" gradientUnits="userSpaceOnUse" spreadMethod="pad"><stop offset="0" stop-color="#ffdbdb"/><stop offset="1" stop-color="#ffdbdb" stop-opacity="0"/></radialGradient><g id="a" fill-rule="evenodd"><path fill="url(#b)" d="m.5 26.1-.15-.5-.05-.1v-.05Q.15 24.8.15 24v-.15q0-6.45 4.55-12.05l3.25-3.35Q13.4-.4 26.05-.7 39.3-1 45.6 8.15q2.05 3 3.1 6.25 3.2 5.15 3.2 10.15 0 2.35-.6 4.6-.45 1.7-1.1 2.7-.35 6.15-1.7 12.75l-.25-3.85-.1-1.45q-1.25 8.05-4 13.95.7-4.35.95-9.3v-.45q-.8 4.75-2.3 7.65Q44.7 40.4 44 30.7q-5.65-4.95-9.35-11.85l-.5-1.2q.05 5.15-1.7 11.1l.6-6.5.1-3-.35 1.95q-.9 4.85-2.7 10l-.05.4.5 3.15q.6 2.55 2.15 5.8l-1.45-2.15-1.3-2.6q0 3.55.25 5.8-3.25-3.1-5.85-8.85l.3 1.15q.95 3.1 2.05 5-6.5-7.1-7.15-16.5l-.2 2.15q-.2 3.15-.05 5.5-1.75-8.9.1-15.9l-3.9 3.7q-3 3.05-4.95 5.85-1.1 4.6-1.25 9.75.7 6.3 2.1 9.85l-1.9-3.5-.1-.25.1 1.5q.45 5.75 1.5 9.65-2.95-3.9-4.5-11.05l.2 4.3q-1.25-3.6-1.75-8.45l-.1-.65-.25-3.6-.05-2.55-.05-1.65q0-2.95.15-5.5l-.25.4q-1 1.8-1.65 3.5l-.3.8-.6 2.2-.35 1.9-.1-1.65.05-.85q.05-2.25.7-4.45.85-3.15 2.8-6.3.05-.9.25-1.8l-.6.7q-1.55 2-2.5 3.9Q.5 23 .5 25.8z" transform="translate(-.15 .7)"/><path fill="#9f5d6f" d="M4.8 36.2q-1.45-.4-2.35-1.85-.85-1.35-1.1-3.3l.35-1.9.6-2.2.3-.8.4.85 1.4 2.4.05 2.55-2-1.85q.3 2.45 1.3 4.15l.95 1.3zm-3.5-7.65L.35 26.8v-.3q0-2.8 1.6-5.9l-.15 1.7.2 1.8q-.65 2.2-.7 4.45"/><path fill="url(#c)" d="m45.45 8 .25.2 1.5 2.45q-2.85-2.6-5.9-4.5L36 3.65q5.15.75 9.45 4.35" transform="translate(-.15 .7)"/><path fill="url(#d)" d="M42.25 11.15q1.6 1.25 3.1 3.05 2.65 3.15 4.4 7.3l-.15-.5q-.5-2.25-1.2-3.95l.9 1.55q1.55 2.75 2.3 4.85l.35 1v.1l-.3 3.3-.3 1.3-.15.65q-3.15-10.55-6.9-16-1.25-1.85-2.45-2.9z" transform="translate(-.15 .7)"/><path fill="url(#e)" d="M43.55 18.45q-3.9-6.95-6.95-10.3l1.8 1.65q4.35 4.8 6.65 10.5 1.2 2.95.8 2.3z" transform="translate(-.15 .7)"/><path fill="url(#f)" d="m40.5 27.2-.05-.1-2.3-4.8-1.75-4.35 2.3 4.4 4.05 7.2z" transform="translate(-.15 .7)"/><path fill="url(#g)" d="m44.05 30.7.05.9-.1-.9-.1-.05v-.05q-.55-5.6-3.8-12.65l-3.7-6.8 1.3 1.65q1.6 2.15 2.85 4.65 3.25 6.4 3.5 13.25" transform="translate(-.15 .7)"/><path fill="url(#h)" d="m47.5 27.25.7 4.8q.5 5.15.55 11.65l-.2.9-.25-3.85-.1-1.45-1.1 5.65.45-9.5z" transform="translate(-.15 .7)"/><path fill="url(#i)" d="M45.15 43.5q-.8 4.75-2.3 7.65l.1-.6 1-4.05q1.6-6.6 1.85-11.15l-.2 6.15q-.35 5.6-1.2 10.45.55-3.8.75-8z" transform="translate(-.15 .7)"/><path fill="url(#j)" d="m33.55.65 1.35-.3 1.8.65-2.1.05-2.6.35q.8-.35 1.55-.75" transform="translate(-.15 .7)"/><path fill="url(#k)" d="M31 3.85q.6 1.8.6 4.15 0 3.45-.7 7.3l-.6 2.8.25-4.6q0-6.2-1.85-8.85L27.65 3.5q-1.95 3.85-2.35 5-1.3 3.4-1.65 6.45l-.05-1.75q0-5.7 1.7-9.1.6-1.25 1.3-1.9-.9-.75-5.1-.75l-1.8.15 1.6-.4 4.65-.4 1.85.25.4.1h.3l.7.15 2 .7q2.45 1 4.75 2.7-3.15-1.75-5.5-2.1z" transform="translate(-.15 .7)"/><path fill="url(#l)" d="M20.6 10.2q1.05-1.6 1.8-2.05l-1.9 3.25-1.2 2.9-1.4 1.25.75-1.8q-2.05 1.05-4.2 3.45l-.4.45-.5.55.35-.55.3-.45q1.3-1.95 3.35-3.45l1.65-1.15z" transform="translate(-.15 .7)"/><path fill="url(#m)" d="m22.2 23 .05-1.4q.45 4.7 2.9 10.95 2.2 5.6 4.1 8l.4.5q-2.8-2.95-5.15-7.9l-.15-.4.2.7-.15-.3q-2.2-5.5-2.2-10.15" transform="translate(-.15 .7)"/><path fill="url(#n)" d="M20.6 18.9q0 6.15 1.25 10.85.8 3 2.2 5.7l.2.4q-4.1-5.9-4.65-13.15l-.05-.3-.2 2.15q-.2 2.95-.05 5.2v.2l-.05-.35v-.25L19 25.9q0-4.85 1.6-8.25l.2-.35z" transform="translate(-.15 .7)"/><path fill="url(#o)" d="M27.9 16.8q-.3-4.85.3-7.9l.25 4.05q.5 5.75 2.6 15.6l-.9 2.65-.05.4.1.6q-.9-3.85-1.6-8.6-.5-3.5-.7-6.4z" transform="translate(-.15 .7)"/><path fill="url(#p)" d="m34 13.6-.15-1.05 2 5.75q2 5.35 3.75 7.85l.5.6q-3.15-3.55-5.45-7.9l-.45-1.1v-.1q.1-1.75-.2-4.05" transform="translate(-.15 .7)"/><path fill="url(#q)" d="m33.2 19.25-.35 1.95-1.4 6q.1-4.05.85-8.05l.9-3.65.25 3.1q.05 4-.85 9.85l-.1.3.6-6.5z" transform="translate(-.15 .7)"/><path fill="url(#r)" d="M36.95 17.7q-1.1-2.55-1.85-5l-.3-1 2.3 5 3.8 7.8q-3.25-5.1-3.95-6.8" transform="translate(-.15 .7)"/><path fill="url(#s)" d="M16.3 3.55q-3.55.8-6.8 2.85l1.9-2.05q4.5-1.5 8.65-1.25z" transform="translate(-.15 .7)"/><path fill="url(#t)" d="M10 17.2q.2-1.45.55-2.9l-.2 4.25-.05.75 1.4-1.65.3-.35.1-.1q2.5-2.7 5.05-4.35-1.7 1.45-3.5 3.6l-.6.75-.35.45q-1.7 2.25-2.45 4.3l.2 2.6q-.65 2.75-.9 5.7L9.4 27.9q-.2-5.25.55-10.25z" transform="translate(-.15 .7)"/><path fill="url(#u)" d="M7.9 17.55 6 20.05q-.85 1.4-1.35 2.8l.05-1.25q1.4-2.3 3.1-3.95z" transform="translate(-.15 .7)"/><path fill="url(#v)" d="m2.35 17.2-.2.45q-1.05 2.2-1.9 5 .1-1.7.55-3.3l.2-.55.55-1.15.2-.45q1.5-2.8 3.65-4.45-.85.7-1.95 2.45z" transform="translate(-.15 .7)"/><path fill="url(#w)" d="M3.9 17.05q.85-1.5 2.5-3.3 3.2-3.55 6.5-5.1-4.7 4.4-7.95 8.55l.05-.1.25-1.8-.6.7z" transform="translate(-.15 .7)"/><path fill="url(#x)" d="M14.25 11.2q-1.95 2.2-3.05 3.9 2.4-5.8 7.25-8.85 2.45-1.5 4.4-1.85-4.6 2.4-8.6 6.8" transform="translate(-.15 .7)"/><path fill="url(#y)" d="M6.05 33.8q.1 3.05.5 6.15l.2 4-.4-1.3-.4-3.75q-.6-7.05.1-10.05z" transform="translate(-.15 .7)"/><path fill="url(#z)" d="M8.35 32.15q.7 5.35 2.35 10L9.55 39.8l-.1-.25.1 1.5q.2 2.6.55 4.85-.65-2.3-1.2-5.65-1.3-7.6-1-14.15z" transform="translate(-.15 .7)"/><path fill="url(#A)" d="m29.95 35.85.1 3.9q-1.25-2.2-2.55-5.7-2.2-5.9-2.6-10.45l1.05 3.3 1.7 4.35z" transform="translate(-.15 .7)"/><path fill="url(#B)" d="m47.6 13.65 2.1 3.1-.55.8-.8-1.05-.8-.5.65 2.05-1.8-2.9-.55-.85 1.5-.95z" transform="translate(-.15 .7)"/><path fill="url(#C)" d="m41.75 16.2 1 1.35 2.2 4-.9.55-.75.5q-.6-1.95-1.75-4.4l-.85-1.65z" transform="translate(-.15 .7)"/><path fill="url(#D)" d="m44.05 15.2.45-.2.6.9q1.15 1.95 1.9 4.05-.55.45-1.15.95l-1.7-3.7-.9-1.6z" transform="translate(-.15 .7)"/><path fill="url(#E)" d="m41.05 23.75-3.3-6.4 1.25-.3.6 1.1q1.25 2.5 2.05 5.35z" transform="translate(-.15 .7)"/><path fill="url(#F)" d="m30 21.6-.3-3.15 2.1-.15-.5 2.55q-.45 2.9-.55 5z" transform="translate(-.15 .7)"/><path fill="url(#G)" d="m20.95 18.2 5.95.3h.7l.15 2q.45 3.55 1.1 6.05l-1.95.05h-.45q-1.55-3.65-1.85-5.25l-.1 1.9q0 1.65.3 3.3l-1.15-.05q-1-3.9-.9-6.95l-.1-.3-.7 1.45q-.45 2.05-.1 5.6l-.45-.05q-.7-5.25-.45-8.05" transform="translate(-.15 .7)"/><path fill="url(#H)" d="M9.35 17.4q-.4 2.4-.45 4.15-1.25-.85-2.2-1.7l.95-1.9.6-.95q-1.65.85-2.55 1.85l-.85-1.05q1.2-1.95 3.1-3.5l1.8.9.1.05z" transform="translate(-.15 .7)"/><path fill="url(#I)" d="m5.5 12.6.6.5q-1 1-2.35 2.95l-.3-.6q.9-1.65 2.05-2.85" transform="translate(-.15 .7)"/><path fill="url(#J)" d="m19.05 17.95.85.1-.6 1.35q-.35 1.3-.55 2.95-.1-1.75.05-3.25z" transform="translate(-.15 .7)"/><path fill="url(#K)" d="m13.75 16.75 1.7.45-2 2q-1.6 1.75-2.7 3.5l-.3-.2V22l.25-.65.05-.1v-.05q.3-.75 1.95-3.05z" transform="translate(-.15 .7)"/><path fill="url(#L)" d="m10.8 15.65 1.5.6-1.6 1.8z" transform="translate(-.15 .7)"/></g></defs></svg>