<?xml version="1.0" encoding="UTF-8" standalone="no"?>
<svg xmlns:ffdec="https://www.free-decompiler.com/flash" xmlns:xlink="http://www.w3.org/1999/xlink" ffdec:objectType="frame" height="53.3px" width="60.4px" xmlns="http://www.w3.org/2000/svg">
  <g transform="matrix(1.0, 0.0, 0.0, 1.0, 7.1, 11.8)">
    <use ffdec:characterId="2" height="53.3" transform="matrix(1.0, 0.0, 0.0, 1.0, -7.1, -11.8)" width="60.4" xlink:href="#shape0"/>
  </g>
  <defs>
    <g id="shape0" transform="matrix(1.0, 0.0, 0.0, 1.0, 7.1, 11.8)">
      <path d="M23.5 -11.8 L35.8 -11.8 Q34.55 -8.15 32.3 -4.95 28.65 0.3 20.9 5.95 L18.75 7.55 17.9 8.55 14.4 12.5 Q9.3 18.7 9.3 24.55 9.3 26.1 9.6 27.4 L10.7 29.45 11.8 31.35 Q13.95 33.6 18.3 35.2 21.0 36.0 22.7 36.0 L28.45 35.3 29.8 34.25 31.65 32.65 35.4 29.2 Q35.85 28.0 38.6 27.55 41.1 27.1 43.25 28.7 L44.25 29.5 Q46.7 28.65 47.8 28.65 51.35 28.65 52.7 31.55 53.35 33.0 53.3 34.5 L53.1 36.3 Q53.1 38.4 52.75 39.05 52.1 40.45 49.6 41.35 L49.45 41.45 49.2 41.45 49.0 41.5 48.95 41.45 Q46.65 41.45 45.9 40.55 L45.85 40.3 46.35 40.65 47.35 41.0 Q49.0 41.0 49.5 39.4 L49.7 37.7 Q49.7 36.6 49.15 35.7 48.25 34.2 46.1 34.15 L45.65 35.8 Q45.05 36.9 44.0 36.9 L43.75 36.9 44.25 36.45 Q45.3 35.55 45.3 35.0 L45.2 34.6 44.9 34.6 45.1 34.25 Q42.35 34.7 35.45 37.75 27.35 41.3 21.5 41.3 10.8 41.3 1.8 35.15 -7.1 29.05 -7.1 22.0 -7.1 16.45 -4.25 11.3 -0.7 4.9 6.0 2.85 14.9 0.15 19.75 -5.55 22.6 -8.9 23.5 -11.8 M9.5 14.55 Q4.3 19.5 4.3 25.0 4.3 28.9 10.1 32.0 L10.05 31.9 7.7 28.95 Q7.2 27.95 7.1 26.2 L7.1 23.35 Q7.1 19.9 8.45 16.7 L9.55 14.55 9.5 14.55 M37.15 32.35 L41.75 30.45 39.95 30.15 Q36.8 30.15 33.85 32.8 L32.5 34.15 37.15 32.35" fill="url(#gradient0)" fill-rule="evenodd" stroke="none"/>
      <path d="M18.45 -4.25 Q21.75 -7.05 22.75 -8.7 23.4 -9.7 23.65 -10.95 L23.9 -11.8 29.8 -11.8 29.2 -9.25 Q28.4 -7.15 26.95 -4.9 L25.65 -3.15 Q25.25 -2.0 23.9 -0.4 L26.95 -3.3 28.85 -5.45 30.35 -7.25 28.35 -4.05 25.45 -0.7 22.25 2.55 Q17.6 6.75 14.0 10.55 11.1 13.6 10.05 15.6 L8.9 18.65 Q8.15 20.9 8.1 23.95 8.0 27.0 8.9 29.1 L9.05 29.45 9.5 30.5 10.45 32.05 11.65 33.75 10.05 32.3 8.1 29.85 Q7.7 29.15 7.25 27.55 6.8 25.9 6.8 25.05 L6.85 24.5 6.8 22.35 Q6.8 20.7 7.65 17.75 7.95 16.7 8.4 15.8 10.05 12.75 14.2 8.2 12.7 9.25 11.35 9.9 6.25 12.35 4.05 16.9 2.45 20.15 2.45 24.2 L2.5 26.45 2.6 27.25 3.2 29.0 Q3.65 30.3 6.1 32.3 2.5 30.7 0.9 27.9 -0.7 25.05 -1.45 22.55 L-1.45 23.15 Q-1.45 24.15 -0.75 26.35 -0.1 28.55 2.5 30.8 L0.75 29.6 -0.05 28.95 -1.65 27.65 Q-2.75 26.65 -3.4 25.45 L-4.4 23.2 Q-4.75 22.2 -4.75 19.75 -4.75 14.15 -1.55 9.9 0.85 6.7 5.4 3.75 L8.25 2.15 Q11.5 0.15 12.3 -0.25 16.0 -2.15 18.45 -4.25 M30.8 -11.8 L31.6 -11.8 30.25 -9.35 30.8 -11.8 M2.05 30.15 L2.35 30.25 2.2 30.25 2.05 30.15 M-1.15 20.55 L-1.1 20.55 -1.1 20.4 -1.15 20.5 -1.15 20.55 M-0.85 23.4 L-1.05 22.9 -0.65 24.15 -0.85 23.4 M-2.8 25.3 L-2.8 25.35 -2.8 25.3" fill="#345b0e" fill-rule="evenodd" stroke="none"/>
      <path d="M45.25 34.85 L45.15 34.35 44.95 34.35 45.6 34.2 45.75 34.75 45.75 34.8 Q45.7 35.7 44.4 36.3 L44.45 36.2 Q45.25 36.0 45.25 34.85 M43.1 29.8 L42.7 29.95 41.3 30.55 39.7 30.4 Q36.8 30.4 34.15 32.9 L32.9 34.05 30.85 34.65 32.6 32.75 34.95 30.55 Q37.25 28.85 40.5 29.1 42.45 29.25 43.1 29.8 M51.95 32.7 Q52.9 34.4 53.0 35.95 53.05 37.5 52.25 38.75 L51.6 39.5 51.0 39.8 50.1 40.3 51.75 38.35 52.1 36.8 51.6 35.0 Q51.25 34.2 50.35 33.7 L48.75 33.1 46.4 33.05 Q44.75 33.15 40.7 34.8 L36.05 36.65 40.7 33.9 Q42.0 33.1 43.15 32.6 41.9 32.9 39.4 34.2 L34.45 36.85 Q31.95 38.2 28.9 39.25 L26.75 39.7 24.25 40.0 Q22.2 40.3 18.3 40.1 14.35 39.9 10.4 38.35 L8.1 37.1 Q5.85 35.9 2.95 33.7 0.0 31.45 -1.25 30.0 L2.7 32.75 4.6 33.95 Q9.75 37.15 12.65 37.95 L14.45 38.4 Q13.5 38.15 9.1 35.8 4.45 33.3 1.2 27.6 3.8 31.0 6.9 33.05 9.95 35.1 11.7 35.7 L14.1 36.5 Q13.05 36.1 11.7 35.5 8.25 33.85 6.3 31.75 4.25 29.6 3.4 27.55 2.5 25.5 2.8 22.4 3.1 19.25 5.45 15.8 7.8 12.35 8.65 13.05 6.8 14.8 5.2 17.85 3.55 20.85 3.5 23.1 3.45 25.3 4.05 26.95 4.65 28.55 6.45 30.5 8.25 32.45 12.35 34.8 L11.85 34.45 Q15.35 36.25 17.65 36.75 L24.25 37.45 27.15 37.1 Q25.4 38.2 23.8 38.6 L19.15 39.3 23.5 39.25 Q25.45 39.2 29.55 37.8 33.65 36.35 35.95 35.1 38.2 33.85 39.8 32.95 L40.4 32.65 Q47.9 29.45 51.05 31.7 L51.7 32.3 51.95 32.7" fill="#2f5a07" fill-opacity="0.6" fill-rule="evenodd" stroke="none"/>
    </g>
    <linearGradient gradientTransform="matrix(0.0369, 0.0, 0.0, 0.0325, 23.1, 14.85)" gradientUnits="userSpaceOnUse" id="gradient0" spreadMethod="pad" x1="-819.2" x2="819.2">
      <stop offset="0.0" stop-color="#3b6e0a"/>
      <stop offset="1.0" stop-color="#65933b"/>
    </linearGradient>
  </defs>
</svg>
