<svg xmlns="http://www.w3.org/2000/svg" xmlns:ffdec="https://www.free-decompiler.com/flash" xmlns:xlink="http://www.w3.org/1999/xlink" ffdec:objectType="frame" width="68.2" height="74.35"><use ffdec:characterId="3" xlink:href="#a" width="68.2" height="74.35"/><defs><linearGradient id="b" x1="-819.2" x2="819.2" gradientTransform="matrix(0 .0174 -.005 0 5.65 2.85)" gradientUnits="userSpaceOnUse" spreadMethod="pad"><stop offset="0" stop-color="#f8d7d1"/><stop offset=".478" stop-color="#e3c1bf"/></linearGradient><linearGradient id="c" x1="-819.2" x2="819.2" gradientTransform="matrix(0 .0177 -.0052 0 47.75 3.3)" gradientUnits="userSpaceOnUse" spreadMethod="pad"><stop offset="0" stop-color="#f8d7d1"/><stop offset=".478" stop-color="#e3c1bf"/></linearGradient><linearGradient id="d" x1="-819.2" x2="819.2" gradientTransform="matrix(0 .0169 -.0112 0 39.1 2.05)" gradientUnits="userSpaceOnUse" spreadMethod="pad"><stop offset="0" stop-color="#fff"/><stop offset=".71" stop-color="#d2d2d2"/></linearGradient><linearGradient id="e" x1="-819.2" x2="819.2" gradientTransform="matrix(0 .0167 -.0112 0 14.5 1.75)" gradientUnits="userSpaceOnUse" spreadMethod="pad"><stop offset="0" stop-color="#fff"/><stop offset=".71" stop-color="#d2d2d2"/></linearGradient><linearGradient id="f" x1="-819.2" x2="819.2" gradientTransform="matrix(0 .0362 -.0416 0 26.5 32.7)" gradientUnits="userSpaceOnUse" spreadMethod="pad"><stop offset="0" stop-color="#e1e1e1"/><stop offset="1" stop-color="#fff"/><stop offset="1" stop-color="#f9f9f9"/></linearGradient><g id="a" fill-rule="evenodd"><path fill="url(#b)" d="M5.7-10.5q.45 2.65 2 5.9L6.9-5q.8 3.3 2.45 6.9l.35.85-.9-.55.2 1.75q.5 4.1-.3 5.9l-.3-.7-.05.6-1.05 5.7-2.95 1.7q-3.05-5.6-2.8-9.9l.55.4q-.5-2.55-.25-5.5l.7 1.25-.2-1.8q-.1-2.45.2-4.45l.5.55q-.3-2.65.5-5.65l.55.7q0-1.5.7-3.05l.5-1.1.25.1z" transform="translate(7.6 11.95)"/><path fill="url(#c)" d="m50.45-2.1.5-.55q.3 2 .2 4.45l-.2 1.8.7-1.25q.25 2.95-.25 5.5l.55-.4q.25 4.35-3.2 10.4L46.1 16.2l-.9-6.25-.1-.6-.3.7q-.8-1.8-.3-5.9l.2-1.75-1.2.55q2.55-5.6 3.1-7.75l-.75.1L48-10.3l.2-.9.5 1.1q.7 1.55.7 3.05l.55-.7q.8 3 .5 5.65" transform="translate(7.6 11.95)"/><path fill="#f8f8f8" d="M60.05 24.05q.45 1.1.5 2.7-.9-1.8-2.7-2 1.35 1.15 1.25 3.15-.85-1.35-2-1.25.65.4.75 1.8-.6-.7-.95-.5-2.1-4.25-5.2-6.8-.25-2.65.4-5.4.6-1.2 2.4-1.2-.9.35-1.35 1.2.75-.45 1.75-.6l1.95.05q-1.45.45-2.3 1.35 1.45-.75 3-.3 1.15.3 2.65 1.25l-3.4.1q3.95-.2 5.5 4.7-1.6-2.7-4.3-2.9 2.65 1.15 3.4 5.4-1.05-2.1-2.7-2.55 1 .7 1.35 1.8m-45.9-9.95q1.8.05 2.4 1.25.6 2.75.3 5.4-3.15 2.5-5.3 6.7-.35-.2-.95.5.1-1.4.75-1.8-1.15-.1-2 1.25-.05-2.05 1.3-3.15-1.8.15-2.75 1.95.1-1.6.55-2.7.4-1.1 1.4-1.75-1.65.4-2.75 2.5.8-4.25 3.5-5.35-2.7.15-4.35 2.8 1.6-4.85 5.55-4.6l-3.4-.15q1.55-.9 2.7-1.2 1.55-.4 3 .35-.85-.9-2.3-1.4h1.95q1 .15 1.75.65-.45-.9-1.35-1.25"/><path fill="url(#d)" d="m37.45-3.95-.1.75q2.55-3.05 6.4-5.4l-.05 1 .35-.45 1-1.15.05.7q1.95-1.7 2.8-3.3l.4.3-.2.9q-.65 2.5-1.85 5.3l-.25.5.7-.3q-.8 3.3-2.45 6.9l-.35.85.9-.55-.2 1.75q-.5 4.1.3 5.9l.4-.1.9 6.25-16.3-10 .3-1.2q.3-1.1.95-2.25.8-1.5 2.1-3.05l.1.95Q34.3-1.3 36-2.85z" transform="translate(7.6 11.95)"/><path fill="url(#e)" d="m5.3-11.4.3-.55q.8 1.75 2.9 3.55l.05-.7 1 1.15q0 .2.35.45l-.05-1q3.85 2.35 6.4 5.4l-.1-.75 1.45 1.1q1.7 1.55 2.65 3.2l.1-.95q1.3 1.55 2.1 3.05.65 1.15.95 2.25l.3 1.25-16.4 9.4 1.05-5.7.35.1q.8-1.8.3-5.9L8.8 2.2l.9.55-.35-.85Q7.7-1.7 6.9-5l.7.3-.2-.5q-1.3-2.85-1.7-5.3l-.15-.8z" transform="translate(7.6 11.95)"/><path fill="#d2d2d2" d="M25.45 9.85 24.2 8.4l3.35 3.55.2-.3.35-.35 1.35 2.05 1 1.7-.25.35q-5.8.7-8.4 2.25L17.4 20l-.3-.05-.05-.25 1.2-1.05q1.1-.8 1.65-1.1l2.05-1.9 1.6.1Q25.2 14.3 25.3 13q1.15.35 1.35.55.5-.95-.8-3.1l-.2-.25zm19.1-1.35q-1.65 1.55-1.65 2.05-1.3 2.15-.8 3.1l1.35-.55q.1 1.3 1.75 2.75l1.6-.1q1.3 1.45 2.05 1.9l1.65 1.1 1.2 1.05-.05.25-.3.05-4.4-2.35q-2.6-1.55-8.4-2.25l-.25-.35 1-1.7 1.35-2.05.35.35q.15.3.5-.45t3.05-2.8"/><path fill="url(#f)" d="m8.95 48.35.35.2q-6.3-4.2-5.5-13.3-2.75 9.15 5.15 13.1m45.4-12.8q2.2 7.1.95 10.35-.95 2.55-4.75 4.45 9.2-1.85 3.8-14.8m-9.1-25.5.25.3.1.1q5.35 5.9 7.5 17 4.25 15.25 7.5 15.7-3.1-.35-4.35-4.4Q59.6 50.6 49.3 51q-3.65.85-5.1 2.1-1.5 1.25-1.75 4.25t4 5.05q-9.9-3.6-6.4-11-2 2.3-1.5 5.05-2.4-3.5 4.95-11.55l-2.1.55q6-4 2.05-17.25-.6 2.95-2.15 4.95 1.05-4.45.1-8 .45 4.4-.95 7.2-1 1.05-3.05 1.25 1.45-6.35-.85-13.35 1.4 8.85-2.2 13.35 2.05-8.8-1.75-15.8 2.35 8.25-.75 16.4l-2.8.2q.3-2.05-.4-4.75.05 2.6-.65 4.8l-2.95-.05q-1.5-3-1.55-7.9-.6 5.6.3 8.1-3.35-6.95-2.25-14.35-2.1 8 .3 13.9l-2.05-.3q-1.35-1.55-2-5l.6 4.6q-.65-.6-1.3-.25-4.3-7.35-.15-15.8-5.1 6.45-2.9 15.65l-3.4-1.45q-.7-1.85-.9-3.7Q5.6 41.45 11.6 45.45l-2.1-.55q7.35 8.05 4.95 11.55.5-2.75-1.5-5.05 3.5 7.4-6.4 11 3.2-1.95 3.7-3.8-1.1 1.25-2.25 1.25 1.85-1.6 2.1-3.55.2-1.95-1.3-3.2-1.45-1.25-5.1-2.1-10.3-.4-6.95-12.25-1.25 4.05-4.35 4.4 3.25-.45 7.5-15.7Q2.1 16 7.75 10.05q3.05-3.2 7.8-5.05Q20 3.25 25.2 3.05h2.6l1.4.1q4.4.35 8.25 1.85 4.75 1.85 7.8 5.05m-46.6 25.5q-5.4 12.15 2.6 14.7-2.6-1.8-3.55-4.35-1.25-3.25.95-10.35" transform="translate(7.6 11.95)"/><path fill="#c9c7d8" d="m59.15 43.1 1.8 3.2-4.65-11.95q4.1 7.9 5.85 13.4 1.6 5 1.05 9.05-.35 2.6-2.9 4.25-2.55 1.6-6.45 2.1-3.9.45-4.3 4.7-.4 4.2 4.45 6.4-5.2-1.95-5.1-6.6.25-5.7 6.95-7.15-.8.6-1.65 1.15 5.1-.15 6.5-7.05-.05 5.25-3.35 6.7 8.05-2.75 1.8-18.2m-4.75-3.9q.7 2 .8 3.85l-.1 2.85-.25-2.65-.65 5.4V43.4q-.15-2.35-1.05-5.15 1.2 2.05 1.45 2.95zm2.6 9.35q.35 5.85-3.3 9.85-2.2 2.5-5.1 4-2.7 2.35-2.55 6.15-.55-3.7 1.2-5.65 3-4.25 5.2-5.8l-2.9 3.65 1.95-1.4q1.5-1.15 2.75-3.2 1.25-2.1 1.9-6.85.3-5.25-1.05-11.2 1.55 4.6 1.9 10.45m1.85 8.3q.95-1.4.6-4.2-.9 5.6-5.5 7.15 5.8-3.25 4-12.2 2.15 4.5 1.1-1.8 2.6 7.15-.2 11.05m-4.1-4.65q-1 4.35-5.75 5.2 1.85-1.35 2.75-3.6 1.8-4.65-.8-13.55 2.2-8.9-6.2-18.75Q55.3 32.1 52.1 40.05q2.6 8.95.1 14.35 2.55-1.45 3.1-7.2.2 2.6-.55 5m-5.8-7.15q.95-3.45-.1-7.95.75 4.05-.8 7.2-1.3 1.45-3 1.25 1.5-5.2-1.05-13.8 1.75 9.95-2 13.75 1.8-8.2-1.4-14.75 1.8 7.6-1.1 15.35l-2.9.1q.2-1.8-.3-3.8-.05 2.4-.85 4.05l-2.95-.15L32 45q-1.05-2.95-.95-6.3-.4 4.55.2 7.75-3.1-6.75-2.25-13.8-2.05 6.9.5 13.45-1.15.15-2.35-.55-1.05-1.45-1.6-4.2l.45 4-1.35-.05q-4.1-6.55-.35-15.2l.25-.6-.45.5q-.95 1.05-1.6 2.4-2.45 4.85-.9 12.6l-3.45-1.5q-.5-1.55-.65-3-3.35 8.75-.75 14 .85 1.7 2.4 3.1-6.2-1.4-5.9-8.25.6 4.2 3.3 5.7l-.2-.35q-3.3-5.8.15-15.35-1.4 1.55-3.9 1.95h-.05.05l.25-.25q3.05-1.45 4.9-6 .5-2.2 1.75-4.25-2.3 5.5-1.2 10.6l.75.65q-.15-2.8.65-5.05-.25 2.65.55 5.25-.4-5.65 1.8-10.1 1.1-2.4 3-4.4l.05-.05 1.5-1.5-.95 1.9q-.5 1.05-.85 2.15-2.15 6.05-.65 12.1-.3-4.85 1.3-9.05-.3 3.8 1.25 9.05-.8-5.55.2-8.9-.15 3.45.3 5.15.45-5.2 2.75-10.3l.8-2.45.45-1.15q-2.1 8-1.1 16.1-.05-3.5 1.9-8.6l-.05.25Q31.2 39.4 32.5 44q-.5-2.8.3-8.35.35 4.8.8 5.5l2 .15q.5-1.7.1-4.85 1.25 2.85 1.05 4.9h.3l2.85-.65q1.2-7.05-1.2-15.3l2.15 4.45q2.8 5.1 2.65 9.95.55-4.15.15-6.7l-.5-3.15-.6-2.65q3.6 6.8 3.75 13.3.6.15 1.4-.6.75-.8.65-3.2-.1-2.3-1.15-8.25 4.45 8.05 1.75 16.5M12.6 41.3q2.1-2.4 2.95-7.65.85-6.6 5.7-9.4-4.45 3.55-4.95 8.5-.95 5.9-3.7 8.55m-1.4 7.35q.35-5.85 1.9-10.45-1.35 5.95-1.05 11.2.65 4.75 1.9 6.85 1.25 2.05 2.75 3.2l1.95 1.4-2.9-3.65q2.2 1.55 5.2 5.8 1.75 1.95 1.2 5.65.15-3.8-2.55-6.15-2.9-1.5-5.1-4-3.65-4-3.3-9.85m-2.45 4.1q-.35 2.8.6 4.2-2.8-3.9-.2-11.05-1.05 6.3 1.1 1.8-1.8 8.95 4 12.2-4.6-1.55-5.5-7.15m-.6-14.15q-1 5.2-3.05 9.2zm9.6 31.25q.7-.85.75-3.3t-4.1-3.1-6.5-2.2Q5.35 59.5 5 56.9q-.55-4.05 1.05-9.05 1.75-5.5 5.85-13.4L7.25 46.4l1.8-3.2q-6.25 15.45 1.8 18.2-3.3-1.45-3.35-6.7 1.4 6.9 6.5 7.05l-1.65-1.15q7.25 2.3 7.7 5.35.4 3-.55 4.85-.95 1.8-5.3 3.55 3.35-1.55 4.3-4.2-1.45 1.45-2.95 1.65z"/><path fill="#fff" d="m24.2 27.6-.75.9-.1-.05-3.6-.2-2.15.2q.9-1.4 2.05-2.4l.5-.4h.45l.9.3 3.5.85zm-6.6-5.45q-.4.85-.05 1.8.3.9 1.3 1.35l-1.05 1.15q-.9 1.05-1.5 2.05l-.35.1-.95.1q-2.65.7-5.35 7.1 1.35-6.15 3.65-9.45 2.25-3.3 5.7-6.15zm23.15 3.8H41l.45.8 1.05 2.5-1.25.2-.2-.8q-.2-.95-1-2.55l.65-.15zm4.95-.5q.75 1.3.95 2.1l.1.75q-1.2.1-2.2.55L44 29l-.1-.25-.05-.3q-.3-1.55-.9-2.6zM29.9 27.5l-.35.65-.55 1.3-3.4-.5.9-1.5.2-.3.75.15zm4.05 2.35.35-2.75 3.8-.65.25.75.7 2.5zm-.5-1.3-.15 1.25-.65-.05-1.85-.15.6-1.9.1-.3 2.2-.25zm15.5-.35.15.25-1.35-.15-.05-.4-.35-1.55-.3-.75zm.2-3.85h.05q2.8-.55 1.15-3.65 4.45 5.75 5.25 7.25l2.9 7.65q-3-6.05-4.85-6.45l-2.45-.35-.35-1q-.75-1.9-1.8-3.4z"/></g></defs></svg>