<?xml version="1.0" encoding="UTF-8" standalone="no"?>
<svg xmlns:ffdec="https://www.free-decompiler.com/flash" xmlns:xlink="http://www.w3.org/1999/xlink" ffdec:objectType="frame" height="68.1px" width="58.6px" xmlns="http://www.w3.org/2000/svg">
  <g transform="matrix(1.0, 0.0, 0.0, 1.0, 7.6, 27.9)">
    <use ffdec:characterId="1" height="68.1" transform="matrix(1.0, 0.0, 0.0, 1.0, -7.6, -27.9)" width="58.6" xlink:href="#shape0"/>
  </g>
  <defs>
    <g id="shape0" transform="matrix(1.0, 0.0, 0.0, 1.0, 7.6, 27.9)">
      <path d="M41.75 39.5 L38.2 40.2 37.75 40.2 36.45 40.1 34.5 39.7 32.4 39.0 31.65 38.95 Q27.4 38.6 25.7 36.4 24.15 35.65 23.05 34.65 L20.35 32.8 Q14.55 28.6 12.55 28.0 L9.7 27.15 6.9 26.8 3.5 27.2 Q1.95 27.65 1.0 28.2 -1.6 30.2 -1.6 33.2 L-1.4 34.3 -2.2 33.7 Q-3.5 32.55 -3.5 31.25 L-3.25 29.95 Q-4.55 30.5 -5.6 31.55 -6.4 32.3 -6.15 33.4 -7.05 30.7 -6.7 28.2 -6.45 26.4 -5.55 24.75 L-5.4 24.5 -4.8 23.75 -4.05 22.95 Q-1.95 21.0 0.25 21.0 L3.45 21.4 4.35 21.65 3.8 21.4 Q1.0 20.15 -1.05 20.55 -3.1 20.9 -4.1 22.1 -3.7 21.6 -2.45 20.65 -1.2 19.65 0.85 19.15 L3.2 18.75 5.75 18.75 10.35 19.35 Q11.85 19.7 15.85 21.4 L16.8 21.8 Q18.5 22.5 22.35 25.15 L29.35 31.75 28.4 30.75 29.8 31.9 Q31.05 32.75 32.65 33.15 L36.65 34.15 37.75 33.75 Q38.2 33.3 38.35 31.6 L38.5 29.8 Q38.4 28.7 37.8 27.75 L37.55 27.4 Q36.3 25.75 33.45 24.7 28.55 22.8 28.9 21.2 L29.0 20.75 Q29.3 19.45 29.85 18.45 L29.85 18.4 30.0 17.9 29.35 18.05 29.05 18.15 22.9 19.1 21.25 19.0 14.6 17.85 14.0 17.65 Q9.25 15.9 5.3 12.4 -2.45 5.5 -2.45 -4.3 -2.45 -14.1 5.3 -21.0 13.05 -27.9 24.0 -27.9 34.95 -27.9 42.7 -21.0 50.45 -14.1 50.45 -4.3 50.45 5.5 42.7 12.4 39.25 15.45 35.2 17.2 L35.15 17.2 34.85 17.3 34.3 17.55 Q33.35 18.3 34.4 19.1 L34.7 19.3 Q36.1 20.25 39.9 21.2 43.7 22.15 47.55 25.1 51.35 28.05 50.95 30.85 50.5 33.65 47.25 36.65 L45.7 37.9 44.4 38.6 42.7 39.25 42.55 39.25 43.45 38.95 41.95 39.35 41.75 39.5 M44.4 34.35 Q44.4 36.8 42.5 38.8 L42.0 39.3 43.05 38.9 43.75 38.7 43.65 38.65 43.95 38.45 44.55 38.05 Q47.6 36.0 48.0 34.8 48.4 33.55 49.5 31.95 50.6 30.35 46.95 27.85 43.2 25.3 42.4 24.95 46.85 28.4 47.5 30.9 48.1 33.35 44.4 34.35 M41.55 30.65 L41.1 29.65 40.9 29.6 39.85 28.35 Q40.45 29.3 40.55 30.55 L40.6 31.3 Q40.6 33.5 37.0 36.2 L33.8 38.1 33.45 38.1 32.2 38.05 33.5 38.35 34.6 38.4 36.75 38.25 37.15 38.2 36.5 38.5 33.45 39.0 33.7 39.1 Q35.3 39.7 36.25 39.7 L38.0 39.45 Q38.95 39.1 39.8 38.4 41.9 36.7 41.9 33.45 41.9 31.65 41.55 30.65 M29.6 21.0 Q29.6 22.95 34.6 24.65 36.55 25.3 37.8 26.1 L38.05 26.3 37.25 25.55 34.8 23.65 Q32.15 21.7 31.45 19.55 31.1 18.5 31.2 17.45 29.95 19.15 29.7 20.35 L29.6 21.0" fill="url(#gradient0)" fill-rule="evenodd" stroke="none"/>
      <path d="M41.75 39.5 L41.95 39.35 43.45 38.95 42.55 39.25 41.75 39.5" fill="url(#gradient1)" fill-rule="evenodd" stroke="none"/>
      <path d="M43.15 30.0 Q44.25 31.5 44.4 33.75 44.55 35.95 42.6 37.7 40.6 39.4 37.6 39.6 L38.0 39.45 38.55 39.1 Q41.8 37.15 41.8 34.1 41.8 33.35 40.9 31.3 L39.5 33.75 Q38.5 35.4 37.0 35.4 37.8 35.15 38.15 34.3 L38.3 33.65 38.4 31.0 Q38.4 27.85 37.0 26.0 L35.55 23.7 35.1 23.3 35.35 23.4 Q31.1 20.3 31.0 18.65 30.8 17.0 32.3 17.0 33.5 16.95 33.25 17.25 L33.3 17.8 Q33.3 18.8 34.85 20.5 36.35 22.15 41.7 24.6 47.0 27.05 47.3 29.7 47.6 32.2 47.1 33.1 L47.05 32.05 Q46.85 29.95 43.3 27.9 L39.35 25.65 41.15 27.45 43.15 30.0 M7.4 23.6 L7.6 23.6 Q16.15 23.45 18.5 24.75 L21.65 26.8 Q19.5 24.65 17.4 23.45 L20.05 24.6 Q21.95 25.4 25.25 28.9 28.55 32.35 31.05 33.55 33.5 34.75 36.35 34.6 L35.9 34.75 33.9 34.8 Q30.35 34.8 26.8 31.95 L18.2 26.9 Q14.3 24.4 7.4 23.6 M1.55 19.55 L2.35 19.7 Q2.95 19.85 3.4 20.15 10.35 23.05 13.9 22.2 9.35 23.45 5.55 22.05 1.65 20.65 -0.1 20.6 L-1.5 20.65 -1.3 20.55 Q1.05 19.5 1.55 19.55 M5.8 23.95 Q9.25 26.1 11.8 26.4 8.8 26.35 5.9 25.15 3.05 24.0 0.3 24.0 -2.65 24.0 -4.3 24.95 -5.7 25.75 -6.4 27.4 -5.2 24.35 -3.5 22.9 -1.85 21.4 0.25 21.6 2.35 21.8 5.8 23.95 M-4.6 22.0 L-4.8 22.2 -4.8 22.1 -4.6 22.0 M6.0 26.45 L5.2 26.0 3.3 26.0 Q1.1 26.25 -0.7 27.7 -2.6 29.2 -2.6 31.0 L-2.4 32.15 -1.4 33.75 -1.3 34.2 -3.2 32.55 Q-3.5 32.1 -3.5 30.65 -3.5 27.95 -2.7 26.6 -1.5 24.6 1.65 24.6 3.35 24.6 4.7 25.25 5.95 25.8 6.55 26.8 L6.0 26.45" fill="#686868" fill-opacity="0.49803922" fill-rule="evenodd" stroke="none"/>
      <path d="M41.55 30.65 Q41.9 31.65 41.9 33.45 41.9 36.7 39.8 38.4 38.2 39.7 36.25 39.7 35.3 39.7 33.7 39.1 L33.45 39.0 36.5 38.5 Q39.5 37.0 39.35 36.1 L37.5 37.05 Q35.3 38.05 33.65 38.35 34.45 38.35 32.55 38.6 30.65 38.85 28.05 37.95 25.4 37.05 19.65 32.3 13.85 27.55 8.8 27.05 L10.2 27.0 Q19.0 28.5 20.9 30.3 L24.1 33.1 Q25.35 34.15 22.75 30.9 21.35 29.15 19.6 27.95 22.45 29.4 27.35 32.5 30.25 34.4 34.1 34.4 38.5 34.4 38.95 31.65 L39.0 32.4 Q39.0 34.1 37.9 35.5 40.6 33.2 40.6 31.3 40.6 29.6 39.85 28.35 L40.9 29.6 41.2 30.0 41.55 30.65 M44.4 34.35 Q47.5 33.5 47.2 31.15 46.85 28.4 42.4 24.95 43.4 25.35 47.15 28.0 50.85 30.65 49.65 32.55 L48.0 35.25 44.55 38.05 43.95 38.45 43.65 38.65 43.75 38.7 43.05 38.9 42.0 39.3 42.5 38.8 Q44.4 36.8 44.4 34.35 M34.8 23.65 L37.25 25.55 38.05 26.3 37.8 26.1 Q36.55 25.3 34.6 24.65 29.6 22.95 29.6 21.0 29.6 19.65 31.2 17.45 30.9 20.8 34.8 23.65 M4.8 24.4 L4.2 24.5 4.6 24.6 Q6.25 25.0 9.2 26.7 L5.6 25.6 3.0 25.6 Q-0.25 25.8 -3.45 29.2 -6.8 32.7 -6.8 36.3 -6.8 37.15 -6.0 38.3 L-7.05 37.05 Q-7.6 36.1 -7.6 33.9 -7.6 23.8 1.6 23.8 3.5 23.8 7.0 24.8 L6.8 24.8 4.8 24.4 M3.2 18.75 L6.25 20.5 Q7.7 21.15 10.35 21.6 L13.45 21.9 Q14.85 22.3 10.35 22.25 4.2 22.15 2.45 20.4 0.7 18.6 1.35 16.1 1.3 16.55 1.95 17.5 L2.85 18.45 3.2 18.75" fill="#cdcdcd" fill-rule="evenodd" stroke="none"/>
      <path d="M29.05 18.5 L29.35 18.05 Q29.6 17.75 30.1 17.45 31.5 16.6 33.15 16.6 L34.15 16.65 34.7 18.25 34.7 18.3 33.15 18.1 31.0 18.55 Q29.7 18.95 29.1 19.55 L29.1 19.45 29.05 18.5" fill="#000000" fill-rule="evenodd" stroke="none"/>
      <path d="M29.05 18.5 L28.9 17.05 Q29.15 16.7 30.3 16.15 31.6 15.5 32.95 15.5 L33.6 15.7 34.0 16.15 34.15 16.65 33.15 16.6 Q31.5 16.6 30.1 17.45 29.6 17.75 29.35 18.05 L29.05 18.5 M34.7 18.3 L35.05 19.2 35.15 19.55 35.0 19.4 Q34.8 19.1 33.8 19.1 L31.65 19.45 Q30.55 19.8 29.7 20.35 L29.0 20.75 28.9 20.8 28.9 20.7 29.1 19.55 Q29.7 18.95 31.0 18.55 L33.15 18.1 34.7 18.3" fill="#625e5c" fill-rule="evenodd" stroke="none"/>
    </g>
    <radialGradient cx="0" cy="0" gradientTransform="matrix(0.0694, 0.0, 0.0, 0.0694, 24.2, -15.4)" gradientUnits="userSpaceOnUse" id="gradient0" r="819.2" spreadMethod="pad">
      <stop offset="0.38823529411764707" stop-color="#919191"/>
      <stop offset="1.0" stop-color="#c5c5c5"/>
    </radialGradient>
    <radialGradient cx="0" cy="0" gradientTransform="matrix(0.0011, 0.0, 0.0, 0.0011, 42.6, 39.25)" gradientUnits="userSpaceOnUse" id="gradient1" r="819.2" spreadMethod="pad">
      <stop offset="0.38823529411764707" stop-color="#919191"/>
      <stop offset="1.0" stop-color="#c5c5c5"/>
    </radialGradient>
  </defs>
</svg>
