<?xml version="1.0" encoding="UTF-8" standalone="no"?>
<svg xmlns:ffdec="https://www.free-decompiler.com/flash" xmlns:xlink="http://www.w3.org/1999/xlink" ffdec:objectType="frame" height="68.45px" width="112.4px" xmlns="http://www.w3.org/2000/svg">
  <g transform="matrix(1.0, 0.0, 0.0, 1.0, 29.7, 7.45)">
    <use ffdec:characterId="1" height="68.45" transform="matrix(1.0, 0.0, 0.0, 1.0, -29.7, -7.45)" width="112.4" xlink:href="#shape0"/>
  </g>
  <defs>
    <g id="shape0" transform="matrix(1.0, 0.0, 0.0, 1.0, 29.7, 7.45)">
      <path d="M2.1 -5.3 Q6.1 -1.6 8.2 3.15 L9.35 6.25 7.85 7.75 6.25 3.8 Q4.4 -0.05 2.35 -2.8 L0.8 -4.7 1.55 -5.1 2.1 -5.3" fill="url(#gradient0)" fill-rule="evenodd" stroke="none"/>
      <path d="M51.6 -5.1 L52.35 -4.7 52.4 -4.65 Q52.8 -3.4 51.85 2.7 L54.6 0.05 Q66.35 -8.9 76.0 -7.2 L77.35 -5.7 Q78.4 -3.6 77.3 0.0 L79.9 1.25 Q82.6 2.75 82.7 4.55 82.85 6.45 80.1 9.7 L76.55 13.2 Q79.6 9.5 80.85 5.85 77.95 6.05 74.3 7.15 L71.65 7.95 Q69.55 8.6 67.6 9.45 59.6 12.75 53.75 18.35 L52.75 19.95 Q52.15 21.1 51.5 21.0 50.75 20.85 50.85 19.1 L51.05 17.45 Q48.6 15.75 47.6 15.55 46.9 15.45 47.05 14.45 L47.35 13.4 Q47.0 12.9 45.85 12.4 45.1 12.15 44.95 10.75 L44.85 9.3 50.1 4.35 Q51.0 -0.95 50.8 -2.8 48.75 -0.05 46.9 3.8 45.8 6.05 45.3 7.85 L43.75 6.55 44.95 3.15 Q47.05 -1.6 51.05 -5.3 L51.6 -5.1" fill="url(#gradient1)" fill-rule="evenodd" stroke="none"/>
      <path d="M82.5 13.7 Q81.95 15.95 79.25 19.0 L79.5 19.95 80.1 21.25 Q80.5 21.9 80.55 24.3 80.65 26.8 79.9 26.7 L76.3 25.65 73.4 25.4 68.3 25.9 67.85 25.95 Q59.8 27.05 55.2 29.8 L54.2 29.6 Q53.2 29.05 53.6 27.7 51.8 26.9 51.85 25.0 L60.2 19.65 Q64.15 17.55 68.25 15.95 72.25 14.35 76.4 13.35 L76.4 13.3 76.5 13.3 82.5 12.0 82.5 13.7" fill="url(#gradient2)" fill-rule="evenodd" stroke="none"/>
      <path d="M56.5 33.65 L56.45 32.3 58.25 31.05 Q60.65 29.55 63.5 28.7 L64.2 28.5 67.75 27.8 Q74.8 26.75 82.65 29.8 81.4 31.25 80.2 31.35 79.45 31.35 79.2 32.75 78.9 34.2 78.55 34.4 76.5 35.45 76.1 36.8 L75.95 38.45 Q75.85 39.05 75.3 39.1 L74.8 38.95 70.15 37.9 70.1 37.85 Q64.3 37.0 57.5 39.3 56.75 38.65 57.0 37.25 L57.65 35.8 Q56.75 35.1 56.5 33.65" fill="url(#gradient3)" fill-rule="evenodd" stroke="none"/>
      <path d="M57.8 43.85 L59.45 43.3 Q60.4 42.9 59.8 40.65 62.6 42.15 64.45 44.55 67.15 47.95 67.8 53.1 68.45 57.45 67.75 61.0 67.45 57.45 65.85 53.75 62.8 46.4 56.45 45.8 56.9 44.4 57.8 43.85" fill="url(#gradient4)" fill-rule="evenodd" stroke="none"/>
      <path d="M8.15 9.3 L8.05 10.75 Q7.95 11.9 7.4 12.3 L7.15 12.4 Q6.2 12.8 5.8 13.25 L5.65 13.4 5.95 14.45 Q6.1 15.45 5.4 15.55 L5.35 15.6 4.45 15.9 Q3.5 16.4 1.95 17.45 L2.15 19.1 2.15 19.15 2.15 20.1 Q2.0 20.9 1.5 21.0 0.85 21.1 0.25 19.95 L-0.75 18.35 Q-6.6 12.75 -14.6 9.45 L-17.35 8.4 -18.65 7.95 -21.3 7.15 Q-24.95 6.05 -27.85 5.85 -26.6 9.5 -23.55 13.2 L-27.1 9.7 Q-29.05 7.4 -29.55 5.75 L-29.7 4.55 -29.65 4.25 Q-29.4 2.85 -27.55 1.65 L-26.9 1.25 -24.3 0.0 -24.3 -0.1 -24.7 -1.75 Q-25.0 -3.25 -24.75 -4.45 L-24.35 -5.7 -23.0 -7.2 Q-13.35 -8.9 -1.6 0.05 L8.15 9.3" fill="url(#gradient5)" fill-rule="evenodd" stroke="none"/>
      <path d="M-7.2 19.65 L1.15 25.0 Q1.2 26.65 -0.15 27.45 L-0.6 27.7 -0.55 27.8 Q-0.3 28.75 -0.8 29.3 L-1.2 29.6 -2.2 29.8 Q-6.8 27.05 -14.85 25.95 L-15.3 25.9 -20.4 25.4 -23.3 25.65 Q-26.0 26.7 -26.9 26.7 -27.65 26.8 -27.55 24.45 L-27.55 24.3 Q-27.5 21.9 -27.1 21.25 L-26.5 19.95 -26.25 19.0 -28.3 16.3 Q-29.2 14.9 -29.5 13.7 L-29.5 12.0 -23.5 13.3 -23.4 13.3 -23.4 13.35 Q-19.25 14.35 -15.25 15.95 -12.65 16.95 -10.05 18.2 L-7.2 19.65" fill="url(#gradient6)" fill-rule="evenodd" stroke="none"/>
      <path d="M-25.55 34.4 L-26.2 32.75 Q-26.45 31.35 -27.2 31.35 L-28.2 31.05 -29.65 29.8 Q-21.8 26.75 -14.75 27.8 L-11.2 28.5 -10.5 28.7 Q-7.65 29.55 -5.25 31.05 L-3.45 32.3 -3.5 33.65 -3.8 34.75 -4.65 35.8 -4.0 37.25 Q-3.85 37.95 -4.0 38.5 L-4.5 39.3 Q-11.3 37.0 -17.1 37.85 L-17.15 37.9 -20.6 38.6 -21.8 38.95 -22.3 39.1 Q-22.85 39.05 -22.95 38.45 L-22.95 38.3 -23.1 36.8 -23.35 36.2 Q-23.95 35.2 -25.55 34.4" fill="url(#gradient7)" fill-rule="evenodd" stroke="none"/>
      <path d="M-6.8 40.65 Q-7.1 41.7 -7.0 42.35 -6.95 43.1 -6.45 43.3 L-4.8 43.85 -4.65 43.95 Q-3.85 44.5 -3.45 45.8 -9.8 46.4 -12.85 53.75 -14.45 57.45 -14.75 61.0 L-14.8 60.75 Q-15.4 57.3 -14.8 53.1 -14.15 47.95 -11.45 44.55 L-10.0 43.0 Q-8.5 41.55 -6.8 40.65" fill="url(#gradient8)" fill-rule="evenodd" stroke="none"/>
      <path d="M64.2 28.5 L68.3 25.9 73.4 25.4 67.75 27.8 64.2 28.5 M71.65 7.95 L74.3 7.15 Q77.95 6.05 80.85 5.85 79.6 9.5 76.55 13.2 L76.5 13.3 76.4 13.3 76.4 13.35 Q72.25 14.35 68.25 15.95 64.15 17.55 60.2 19.65 L64.35 15.25 Q68.4 10.8 67.6 9.45 69.55 8.6 71.65 7.95 M70.1 37.85 L70.15 37.9 74.8 38.95 Q73.85 40.7 71.95 42.15 68.65 44.65 64.45 44.55 62.6 42.15 59.8 40.65 65.0 41.5 68.1 39.75 69.65 38.95 70.1 37.85 M-11.35 15.25 L-7.2 19.65 -10.05 18.2 Q-12.65 16.95 -15.25 15.95 -19.25 14.35 -23.4 13.35 L-23.4 13.3 -23.5 13.3 -23.55 13.2 Q-26.6 9.5 -27.85 5.85 -24.95 6.05 -21.3 7.15 L-18.65 7.95 -17.35 8.4 -14.6 9.45 Q-15.4 10.8 -11.35 15.25 M-21.8 38.95 L-20.6 38.6 -17.15 37.9 -17.1 37.85 Q-16.65 38.95 -15.1 39.75 -12.0 41.5 -6.8 40.65 -8.5 41.55 -10.0 43.0 L-11.45 44.55 Q-15.65 44.65 -18.95 42.15 -20.85 40.7 -21.8 38.95 M-14.75 27.8 L-20.4 25.4 -15.3 25.9 -11.2 28.5 -14.75 27.8" fill="#abb1d3" fill-rule="evenodd" stroke="none"/>
      <path d="M70.75 -0.65 Q75.55 -2.4 77.75 -1.75 L77.35 -0.1 Q74.65 -0.3 69.75 1.55 60.0 5.4 48.55 15.9 L47.7 15.6 Q61.1 3.1 70.75 -0.65 M77.75 -4.45 Q74.5 -4.4 69.05 -2.15 58.2 2.25 47.25 13.25 46.8 12.8 45.85 12.4 L45.6 12.3 Q56.25 0.9 67.1 -4.25 72.65 -6.85 76.0 -7.2 L77.35 -5.7 77.75 -4.45 M0.8 -4.7 L2.35 -2.8 Q2.15 -0.95 3.05 4.45 L1.35 2.85 Q0.35 -3.4 0.75 -4.65 L0.8 -4.7 M52.35 -4.7 L52.4 -4.65 Q52.8 -3.4 51.8 2.85 L50.1 4.45 Q51.0 -0.95 50.8 -2.8 L52.35 -4.7 M80.6 1.65 Q82.4 2.85 82.7 4.25 78.4 3.7 72.25 5.4 60.05 8.85 50.9 20.1 50.8 19.7 50.85 19.1 L50.9 19.0 50.9 18.7 Q59.15 7.85 70.55 3.7 76.4 1.6 80.6 1.65 M79.45 19.75 L72.05 19.95 Q62.85 21.5 53.6 27.8 L53.6 27.7 53.15 27.45 Q60.35 21.35 71.55 18.25 77.2 16.6 81.35 16.3 L79.25 19.0 79.45 19.75 M80.55 24.45 Q80.65 26.8 79.9 26.7 L76.3 25.65 73.4 25.4 68.3 25.9 67.85 25.95 Q59.8 27.05 55.2 29.8 L54.2 29.6 53.8 29.3 Q65.55 23.3 74.3 23.35 78.55 23.35 80.55 24.45 M57.75 35.8 L57.2 35.2 Q63.65 29.9 72.4 30.1 76.8 30.2 79.95 31.45 79.5 31.7 79.3 32.75 79.0 34.15 78.7 34.4 77.0 33.2 73.5 32.8 66.6 31.95 57.75 35.85 L57.75 35.8 M57.8 43.85 L59.45 43.3 Q59.95 43.1 60.05 42.35 L61.35 42.95 Q62.85 43.9 64.05 45.55 68.1 50.95 67.8 60.75 67.0 50.4 62.2 46.15 60.8 44.8 59.1 44.25 L57.7 43.95 57.8 43.85 M57.0 37.25 L57.1 37.0 Q66.4 33.0 72.3 34.25 75.25 34.75 76.4 36.2 L76.1 36.8 76.0 38.3 Q74.65 37.15 71.65 36.5 65.55 35.35 57.0 38.5 56.85 37.95 57.0 37.25 M2.1 18.7 L2.15 20.1 Q-7.05 8.85 -19.25 5.4 -25.4 3.7 -29.65 4.25 -29.4 2.85 -27.55 1.65 -23.4 1.6 -17.55 3.7 -6.15 7.85 2.1 18.7 M5.35 15.6 L4.45 15.9 Q-7.0 5.4 -16.75 1.55 -21.65 -0.3 -24.3 -0.1 L-24.7 -1.75 Q-22.55 -2.4 -17.75 -0.65 -8.1 3.1 5.35 15.6 M7.4 12.3 L7.15 12.4 Q6.2 12.8 5.8 13.25 -5.2 2.25 -16.05 -2.15 -21.5 -4.4 -24.75 -4.45 L-24.35 -5.7 -23.0 -7.2 Q-19.65 -6.85 -14.1 -4.25 -3.25 0.9 7.4 12.3 M-28.3 16.3 Q-24.2 16.6 -18.55 18.25 -7.35 21.35 -0.15 27.45 L-0.6 27.7 -0.55 27.8 Q-9.85 21.5 -19.05 19.95 L-26.45 19.75 -26.25 19.0 -28.3 16.3 M-23.1 36.8 L-23.35 36.2 Q-22.25 34.75 -19.3 34.25 -13.4 33.0 -4.1 37.0 L-4.0 37.25 Q-3.85 37.95 -4.0 38.5 -12.55 35.35 -18.65 36.5 -21.65 37.15 -22.95 38.3 L-23.1 36.8 M-26.2 32.75 Q-26.4 31.65 -26.9 31.45 -23.75 30.2 -19.35 30.1 -10.55 29.9 -4.1 35.25 L-4.65 35.8 -4.6 35.85 Q-13.5 31.95 -20.4 32.8 -23.9 33.2 -25.55 34.4 L-26.2 32.75 M-27.55 24.45 Q-25.55 23.35 -21.3 23.35 -12.55 23.3 -0.8 29.3 L-1.2 29.6 -2.2 29.8 Q-6.8 27.05 -14.85 25.95 L-15.3 25.9 -20.4 25.4 -23.3 25.65 Q-26.0 26.7 -26.9 26.7 -27.65 26.8 -27.55 24.45 M-4.65 43.95 L-6.1 44.25 Q-7.8 44.8 -9.2 46.15 -14.0 50.4 -14.8 60.75 -15.1 50.95 -11.05 45.55 -9.85 43.9 -8.35 42.95 L-7.0 42.35 Q-6.95 43.1 -6.45 43.3 L-4.8 43.85 -4.65 43.95" fill="#bbb9df" fill-rule="evenodd" stroke="none"/>
      <path d="M-23.55 13.2 L-27.1 9.7 Q-29.05 7.4 -29.55 5.75 L-29.7 4.55 -29.65 4.25 Q-29.4 2.85 -27.55 1.65 L-26.9 1.25 -24.3 0.0 -24.3 -0.1 -24.7 -1.75 Q-25.0 -3.25 -24.75 -4.45 L-24.35 -5.7 -23.0 -7.2 Q-13.35 -8.9 -1.6 0.05 L1.35 2.85 2.8 4.2 8.15 9.3 8.05 10.75 Q7.95 11.9 7.4 12.3 L7.15 12.4 Q6.2 12.8 5.8 13.25 L5.65 13.4 5.95 14.45 Q6.1 15.45 5.4 15.55 L5.35 15.6 4.45 15.9 Q3.5 16.4 1.95 17.45 L2.15 19.1 2.15 19.15 2.15 20.1 Q2.0 20.9 1.5 21.0 0.85 21.1 0.25 19.95 L-0.75 18.35 Q-6.6 12.75 -14.6 9.45 L-17.35 8.4 -18.65 7.95 -21.3 7.15 Q-24.95 6.05 -27.85 5.85 -26.6 9.5 -23.55 13.2" fill="url(#gradient9)" fill-rule="evenodd" stroke="none"/>
      <path d="M2.8 4.2 L1.35 2.85 1.3 2.7 Q0.35 -3.4 0.75 -4.65 L0.8 -4.7 2.35 -2.8 Q2.15 -0.95 3.05 4.35 L3.05 4.45 2.8 4.2" fill="url(#gradient10)" fill-rule="evenodd" stroke="none"/>
      <path d="M-23.55 13.2 Q-26.6 9.5 -27.85 5.85 -24.95 6.05 -21.3 7.15 L-18.65 7.95 -17.35 8.4 -14.6 9.45 Q-15.4 10.8 -11.35 15.25 L-7.2 19.65 -10.05 18.2 Q-12.65 16.95 -15.25 15.95 -19.25 14.35 -23.4 13.35 L-23.4 13.3 -23.5 13.3 -23.55 13.2" fill="url(#gradient11)" fill-rule="evenodd" stroke="none"/>
      <path d="M-7.2 19.65 L1.15 25.0 Q1.2 26.65 -0.15 27.45 L-0.6 27.7 -0.55 27.8 Q-0.3 28.75 -0.8 29.3 L-1.2 29.6 -2.2 29.8 Q-6.8 27.05 -14.85 25.95 L-15.3 25.9 -20.4 25.4 -23.3 25.65 Q-26.0 26.7 -26.9 26.7 -27.65 26.8 -27.55 24.45 L-27.55 24.3 Q-27.5 21.9 -27.1 21.25 L-26.5 19.95 -26.25 19.0 -28.3 16.3 Q-29.2 14.9 -29.5 13.7 L-29.5 12.0 -23.5 13.3 -23.4 13.3 -23.4 13.35 Q-19.25 14.35 -15.25 15.95 -12.65 16.95 -10.05 18.2 L-7.2 19.65" fill="url(#gradient12)" fill-rule="evenodd" stroke="none"/>
      <path d="M-11.2 28.5 L-10.5 28.7 Q-7.65 29.55 -5.25 31.05 L-3.45 32.3 -3.5 33.65 -3.8 34.75 -4.65 35.8 -4.0 37.25 Q-3.85 37.95 -4.0 38.5 L-4.5 39.3 Q-11.3 37.0 -17.1 37.85 L-17.15 37.9 -20.6 38.6 -21.8 38.95 -22.3 39.1 Q-22.85 39.05 -22.95 38.45 L-22.95 38.3 -23.1 36.8 -23.35 36.2 Q-23.95 35.2 -25.55 34.4 L-26.2 32.75 Q-26.45 31.35 -27.2 31.35 L-28.2 31.05 -29.65 29.8 Q-21.8 26.75 -14.75 27.8 L-11.2 28.5" fill="url(#gradient13)" fill-rule="evenodd" stroke="none"/>
      <path d="M-17.1 37.85 Q-16.65 38.95 -15.1 39.75 -12.0 41.5 -6.8 40.65 -8.5 41.55 -10.0 43.0 L-11.45 44.55 Q-15.65 44.65 -18.95 42.15 -20.85 40.7 -21.8 38.95 L-20.6 38.6 -17.15 37.9 -17.1 37.85" fill="url(#gradient14)" fill-rule="evenodd" stroke="none"/>
      <path d="M-15.3 25.9 L-11.2 28.5 -14.75 27.8 -20.4 25.4 -15.3 25.9" fill="url(#gradient15)" fill-rule="evenodd" stroke="none"/>
      <path d="M-6.8 40.65 Q-7.1 41.7 -7.0 42.35 -6.95 43.1 -6.45 43.3 L-4.8 43.85 -4.65 43.95 Q-3.85 44.5 -3.45 45.8 -9.8 46.4 -12.85 53.75 -14.45 57.45 -14.75 61.0 L-14.8 60.75 Q-15.4 57.3 -14.8 53.1 -14.15 47.95 -11.45 44.55 L-10.0 43.0 Q-8.5 41.55 -6.8 40.65" fill="url(#gradient16)" fill-rule="evenodd" stroke="none"/>
      <path d="M51.85 2.7 L54.6 0.05 Q66.35 -8.9 76.0 -7.2 L77.35 -5.7 Q78.4 -3.6 77.3 0.0 L79.9 1.25 Q82.6 2.75 82.7 4.55 82.85 6.45 80.1 9.7 L76.55 13.2 Q79.6 9.5 80.85 5.85 77.95 6.05 74.3 7.15 L71.65 7.95 71.15 8.1 69.7 8.65 69.0 8.9 67.6 9.45 Q59.6 12.75 53.75 18.35 L52.75 19.95 Q52.15 21.1 51.5 21.0 50.75 20.85 50.85 19.1 L51.05 17.45 Q48.6 15.75 47.6 15.55 46.9 15.45 47.05 14.45 L47.35 13.4 Q47.0 12.9 45.85 12.4 45.1 12.15 44.95 10.75 L44.85 9.3 50.1 4.35 50.1 4.45 51.8 2.85 51.85 2.7" fill="url(#gradient17)" fill-rule="evenodd" stroke="none"/>
      <path d="M50.1 4.35 Q51.0 -0.95 50.8 -2.8 L52.35 -4.7 52.4 -4.65 Q52.8 -3.4 51.85 2.7 L51.8 2.85 50.1 4.45 50.1 4.35" fill="url(#gradient18)" fill-rule="evenodd" stroke="none"/>
      <path d="M76.5 13.3 L82.5 12.0 82.5 13.7 Q81.95 15.95 79.25 19.0 L79.5 19.95 80.1 21.25 Q80.5 21.9 80.55 24.3 80.65 26.8 79.9 26.7 L76.3 25.65 73.4 25.4 68.3 25.9 67.85 25.95 Q59.8 27.05 55.2 29.8 L54.2 29.6 Q53.2 29.05 53.6 27.7 51.8 26.9 51.85 25.0 L60.2 19.65 61.65 18.9 63.95 17.8 64.85 17.4 Q66.55 16.6 68.25 15.95 72.25 14.35 76.4 13.35 L76.4 13.3 76.5 13.3" fill="url(#gradient19)" fill-rule="evenodd" stroke="none"/>
      <path d="M76.55 13.2 L76.5 13.3 76.4 13.3 76.4 13.35 Q72.25 14.35 68.25 15.95 66.55 16.6 64.85 17.4 L63.95 17.8 61.65 18.9 60.2 19.65 64.35 15.25 Q68.4 10.8 67.6 9.45 L69.0 8.9 69.7 8.65 70.35 8.4 71.15 8.1 71.65 7.95 74.3 7.15 Q77.95 6.05 80.85 5.85 79.6 9.5 76.55 13.2" fill="url(#gradient20)" fill-rule="evenodd" stroke="none"/>
      <path d="M67.75 27.8 Q74.8 26.75 82.65 29.8 81.4 31.25 80.2 31.35 79.45 31.35 79.2 32.75 78.9 34.2 78.55 34.4 76.5 35.45 76.1 36.8 L75.95 38.45 Q75.85 39.05 75.3 39.1 L74.8 38.95 73.85 38.65 72.0 38.25 70.15 37.9 70.1 37.85 Q64.3 37.0 57.5 39.3 56.75 38.65 57.0 37.25 L57.65 35.8 Q56.75 35.1 56.5 33.65 L56.45 32.3 58.25 31.05 Q60.65 29.55 63.5 28.7 L64.2 28.5 67.75 27.8" fill="url(#gradient21)" fill-rule="evenodd" stroke="none"/>
      <path d="M64.45 44.55 Q67.15 47.95 67.8 53.1 68.45 57.45 67.75 61.0 67.45 57.45 65.85 53.75 62.8 46.4 56.45 45.8 56.9 44.4 57.8 43.85 L59.45 43.3 Q60.4 42.9 59.8 40.65 L62.9 42.85 63.05 43.0 64.45 44.55" fill="url(#gradient22)" fill-rule="evenodd" stroke="none"/>
      <path d="M73.4 25.4 L67.75 27.8 64.2 28.5 68.3 25.9 73.4 25.4" fill="url(#gradient23)" fill-rule="evenodd" stroke="none"/>
      <path d="M74.8 38.95 Q73.85 40.7 71.95 42.15 68.65 44.65 64.45 44.55 L63.05 43.0 62.9 42.85 59.8 40.65 Q65.0 41.5 68.1 39.75 69.65 38.95 70.1 37.85 L70.15 37.9 72.0 38.25 73.6 38.6 73.85 38.65 74.8 38.95" fill="url(#gradient24)" fill-rule="evenodd" stroke="none"/>
      <path d="M45.25 7.75 L45.5 8.05 45.6 8.15 Q50.95 14.05 53.1 25.15 55.05 37.05 49.65 43.4 46.95 46.6 43.9 47.4 40.4 48.9 39.95 52.65 39.7 54.45 40.15 56.0 39.6 55.3 39.35 54.05 38.75 51.65 40.0 49.2 L40.05 49.2 40.05 49.1 Q38.3 51.1 38.45 53.4 L38.45 54.0 38.4 53.95 Q36.4 50.4 43.5 42.6 L41.4 43.15 Q47.4 39.15 43.45 25.9 L43.4 26.15 Q42.8 28.85 41.4 30.75 L41.35 30.8 41.8 27.9 Q42.0 25.15 41.4 22.85 L41.5 24.0 41.25 22.85 41.5 25.05 41.5 25.4 Q41.5 27.55 40.75 29.45 L40.45 30.05 Q39.15 31.5 37.45 31.3 38.2 28.7 37.95 25.25 37.7 22.05 36.6 18.1 L36.55 17.95 36.4 17.5 36.95 22.4 Q37.0 27.95 34.4 31.25 L34.7 29.6 34.95 28.0 34.8 22.0 34.5 20.6 Q33.9 17.9 32.6 15.5 33.7 19.45 33.65 23.35 L32.5 30.2 31.9 31.85 31.5 32.0 31.45 32.0 29.6 32.15 29.1 32.0 Q29.35 29.95 28.65 27.35 28.7 29.2 28.35 30.85 L27.85 32.2 25.05 32.1 Q23.55 29.1 23.5 24.2 L23.45 24.6 23.45 24.45 23.35 25.9 23.35 26.3 Q23.2 28.85 23.45 30.95 L23.6 31.85 Q20.5 25.1 21.55 17.95 L21.4 18.7 21.4 18.4 Q20.0 23.15 20.75 27.75 21.05 29.9 21.85 31.85 L21.7 31.9 21.5 31.9 Q20.6 31.9 19.65 31.35 L18.8 29.9 18.25 28.45 17.95 27.1 18.0 27.45 17.8 26.55 18.4 31.1 18.15 30.95 18.1 30.95 17.1 30.9 Q14.95 27.25 14.9 23.35 15.0 19.8 16.7 15.85 L16.95 15.25 16.8 15.4 16.95 15.1 16.35 15.95 16.35 16.0 16.3 16.0 Q15.5 16.95 14.9 18.15 13.5 20.9 13.4 24.6 13.35 26.8 13.75 29.3 L13.8 29.65 14.0 30.75 10.65 29.3 10.1 27.6 10.1 27.45 9.9 26.25 9.85 26.4 9.75 25.6 Q8.7 29.05 8.3 31.9 7.8 34.85 8.2 37.25 L8.35 38.05 Q8.9 40.55 10.35 42.1 L10.4 42.15 11.3 43.1 9.5 42.6 9.6 42.7 Q16.55 50.35 14.65 53.9 L14.55 54.0 14.55 53.5 Q14.7 51.1 12.95 49.1 L13.1 49.45 Q14.75 53.2 12.85 56.0 13.3 54.45 13.05 52.65 12.6 48.9 9.1 47.4 6.05 46.6 3.35 43.4 -2.05 37.05 -0.1 25.15 2.1 13.7 7.75 7.75 10.8 4.55 15.55 2.7 20.0 0.95 25.2 0.75 L25.95 0.75 26.5 0.75 27.8 0.75 29.2 0.85 Q33.6 1.2 37.45 2.7 42.2 4.55 45.25 7.75 M49.3 32.95 L49.4 34.3 Q49.6 37.55 48.55 40.25 47.7 42.4 46.1 44.15 L44.55 45.75 43.8 46.25 44.15 46.05 44.7 45.75 Q51.75 41.85 49.4 33.4 L49.3 32.95 M3.8 32.95 L3.7 33.4 Q1.35 41.85 8.4 45.75 L8.95 46.05 9.3 46.25 Q3.0 42.05 3.8 32.95" fill="url(#gradient25)" fill-rule="evenodd" stroke="none"/>
      <path d="M41.5 24.0 L41.25 22.85 41.5 25.05 41.5 25.4 Q41.5 27.55 40.75 29.45 L40.45 30.05 Q39.15 31.5 37.45 31.3 38.2 28.7 37.95 25.25 L37.4 21.45 36.6 18.1 36.55 17.95 36.4 17.5 36.95 22.4 Q37.0 27.95 34.4 31.25 L34.7 29.6 34.95 28.0 34.8 22.0 34.5 20.6 Q33.9 17.9 32.6 15.5 33.7 19.45 33.65 23.35 L32.5 30.2 31.9 31.85 31.5 32.0 31.45 32.0 29.6 32.15 29.1 32.0 Q29.35 29.95 28.65 27.35 28.7 29.2 28.35 30.85 L27.85 32.2 25.05 32.1 Q23.55 29.1 23.5 24.2 L23.45 24.6 23.45 24.45 23.35 25.9 23.35 26.3 Q23.2 28.85 23.45 30.95 L23.6 31.85 Q20.5 25.1 21.55 17.95 L21.4 18.7 21.4 18.4 Q20.0 23.15 20.75 27.75 21.05 29.9 21.85 31.85 L21.7 31.9 21.5 31.9 Q20.6 31.9 19.65 31.35 L18.8 29.9 18.25 28.45 17.95 27.1 18.0 27.45 17.8 26.55 18.4 31.1 18.15 30.95 18.1 30.95 17.1 30.9 Q14.95 27.25 14.9 23.35 15.0 19.8 16.7 15.85 L16.95 15.25 16.8 15.4 16.95 15.1 16.35 15.95 16.35 16.0 16.3 16.0 Q15.5 16.95 14.9 18.15 13.5 20.9 13.4 24.6 13.35 26.8 13.75 29.3 L13.8 29.65 14.0 30.75 10.65 29.3 10.1 27.6 10.1 27.45 9.9 26.25 9.85 26.4 9.75 25.6 Q8.7 29.05 8.3 31.9 7.8 34.85 8.2 37.25 L8.35 38.05 Q8.9 40.55 10.35 42.1 L10.4 42.15 11.3 43.1 9.5 42.6 9.6 42.7 Q5.4 40.75 5.65 35.1 6.25 39.3 8.95 40.8 L8.75 40.45 Q5.45 34.65 8.9 25.1 7.5 26.65 5.0 27.05 7.1 24.65 7.95 19.4 8.8 12.8 13.65 10.0 9.2 13.55 8.7 18.5 7.8 24.15 5.25 26.8 8.3 25.35 10.15 20.8 10.65 18.6 11.9 16.55 9.6 22.05 10.7 27.15 L11.45 27.8 Q11.3 25.0 12.1 22.75 11.85 25.4 12.65 28.0 12.25 22.35 14.45 17.9 15.55 15.5 17.45 13.5 L17.5 13.45 19.0 11.95 18.05 13.85 Q17.55 14.9 17.2 16.0 15.05 22.05 16.55 28.1 16.25 23.25 17.85 19.05 17.55 22.85 19.1 28.1 18.3 22.55 19.3 19.2 19.15 22.65 19.6 24.35 20.05 19.15 22.35 14.05 L23.15 11.6 23.6 10.45 Q21.5 18.45 22.5 26.55 22.45 23.05 24.4 17.95 L24.35 18.2 Q23.6 25.15 24.9 29.75 24.4 26.95 25.2 21.4 25.55 26.2 26.0 26.9 L28.0 27.05 Q28.5 25.35 28.1 22.2 29.35 25.05 29.15 27.1 L29.35 27.1 29.45 27.1 32.3 26.45 Q33.5 19.4 31.1 11.15 L33.25 15.6 Q36.05 20.7 35.9 25.55 36.45 21.4 36.05 18.85 L35.55 15.7 34.95 13.05 Q36.5 15.95 37.4 18.85 38.6 22.65 38.7 26.35 39.3 26.5 40.1 25.75 40.85 24.95 40.75 22.55 40.65 20.25 39.6 14.3 44.05 22.35 41.4 30.75 L41.35 30.8 41.8 27.9 Q42.0 25.15 41.4 22.85 L41.5 24.0 M49.4 34.3 Q49.6 37.55 48.55 40.25 47.7 42.4 46.1 44.15 L44.55 45.75 43.8 46.25 44.15 46.05 41.0 48.15 40.05 49.2 40.05 49.1 Q38.3 51.1 38.45 53.4 L38.45 54.0 38.4 53.95 Q38.0 50.5 39.65 48.65 42.65 44.4 44.85 42.85 L41.95 46.5 43.9 45.1 Q45.4 43.95 46.65 41.9 47.9 39.8 48.55 35.05 48.85 29.8 47.5 23.85 48.85 27.9 49.3 32.95 L49.4 34.3 M3.8 32.95 L3.7 33.4 Q4.1 28.15 5.5 23.95 4.15 29.9 4.45 35.15 5.1 39.9 6.35 42.0 7.6 44.05 9.1 45.2 L11.05 46.6 8.15 42.95 Q10.35 44.5 13.35 48.75 14.95 50.55 14.65 53.9 L14.55 54.0 14.55 53.5 Q14.7 51.1 12.95 49.1 L13.1 49.45 12.0 48.25 Q10.05 47.25 8.4 45.75 L8.95 46.05 9.3 46.25 Q3.0 42.05 3.8 32.95 M43.4 26.15 L43.35 26.0 Q45.5 17.25 37.4 7.55 L37.25 7.35 37.4 7.5 Q47.65 17.95 44.5 25.8 47.1 34.75 44.6 40.15 47.15 38.7 47.7 32.95 47.9 35.55 47.15 37.95 46.15 42.3 41.4 43.15 47.4 39.15 43.45 25.9 L43.4 26.15" fill="#aab1d2" fill-rule="evenodd" stroke="none"/>
      <path d="M45.25 7.75 L45.5 8.05 45.6 8.15 Q50.95 14.05 53.1 25.15 55.05 37.05 49.65 43.4 46.95 46.6 43.9 47.4 40.4 48.9 39.95 52.65 39.7 54.45 40.15 56.0 39.6 55.3 39.35 54.05 38.75 51.65 40.0 49.2 L40.05 49.2 40.05 49.1 Q38.3 51.1 38.45 53.4 L38.45 54.0 38.4 53.95 Q36.4 50.4 43.5 42.6 L41.4 43.15 Q47.4 39.15 43.45 25.9 L43.4 26.15 Q42.8 28.85 41.4 30.75 L41.35 30.8 41.8 27.9 Q42.0 25.15 41.4 22.85 L41.5 24.0 41.25 22.85 41.5 25.05 41.5 25.4 Q41.5 27.55 40.75 29.45 L40.45 30.05 Q39.15 31.5 37.45 31.3 38.2 28.7 37.95 25.25 L37.4 21.45 37.25 20.75 36.6 18.1 36.55 17.95 36.4 17.5 36.95 22.4 Q37.0 27.95 34.4 31.25 L34.7 29.6 34.95 28.0 34.8 22.0 34.5 20.6 Q33.9 17.9 32.6 15.5 33.7 19.45 33.65 23.35 L32.5 30.2 31.9 31.85 31.5 32.0 31.45 32.0 29.6 32.15 29.1 32.0 Q29.35 29.95 28.65 27.35 28.7 29.2 28.35 30.85 L27.85 32.2 25.05 32.1 Q23.55 29.1 23.5 24.2 L23.45 24.6 23.45 24.45 23.35 25.9 23.35 26.3 Q23.2 28.85 23.45 30.95 L23.6 31.85 Q20.5 25.1 21.55 17.95 L21.4 18.7 21.4 18.4 Q20.0 23.15 20.75 27.75 21.05 29.9 21.85 31.85 L21.7 31.9 21.5 31.9 Q20.6 31.9 19.65 31.35 L18.8 29.9 18.25 28.45 17.95 27.1 18.0 27.45 17.8 26.55 18.4 31.1 18.15 30.95 18.1 30.95 17.1 30.9 Q14.95 27.25 14.9 23.35 15.0 19.8 16.7 15.85 L16.95 15.25 16.8 15.4 16.95 15.1 16.35 15.95 16.35 16.0 16.3 16.0 Q15.5 16.95 14.9 18.15 13.5 20.9 13.4 24.6 13.35 26.8 13.75 29.3 L13.8 29.65 14.0 30.75 10.65 29.3 10.1 27.6 10.1 27.45 9.9 26.25 9.85 26.4 9.75 25.6 Q8.7 29.05 8.3 31.9 7.8 34.85 8.2 37.25 L8.35 38.05 Q8.9 40.55 10.35 42.1 L10.4 42.15 11.3 43.1 9.5 42.6 9.6 42.7 Q16.55 50.35 14.65 53.9 L14.55 54.0 14.55 53.5 Q14.7 51.1 12.95 49.1 L13.1 49.45 Q14.75 53.2 12.85 56.0 13.3 54.45 13.05 52.65 12.6 48.9 9.1 47.4 6.05 46.6 3.35 43.4 -2.05 37.05 -0.1 25.15 2.1 13.7 7.75 7.75 10.8 4.55 15.55 2.7 20.0 0.95 25.2 0.75 L25.95 0.75 26.5 0.75 27.8 0.75 29.2 0.85 Q33.6 1.2 37.45 2.7 42.2 4.55 45.25 7.75 M49.3 32.95 L49.4 34.3 Q49.6 37.55 48.55 40.25 47.7 42.4 46.1 44.15 L44.55 45.75 43.8 46.25 44.15 46.05 44.7 45.75 Q51.75 41.85 49.4 33.4 L49.3 32.95 M3.8 32.95 L3.7 33.4 Q1.35 41.85 8.4 45.75 L8.95 46.05 9.3 46.25 Q3.0 42.05 3.8 32.95" fill="url(#gradient26)" fill-rule="evenodd" stroke="none"/>
      <path d="M41.5 24.0 L41.25 22.85 41.5 25.05 41.5 25.4 Q41.5 27.55 40.75 29.45 L40.45 30.05 Q39.15 31.5 37.45 31.3 38.2 28.7 37.95 25.25 L37.4 21.45 36.6 18.1 36.55 17.95 36.4 17.5 36.95 22.4 Q37.0 27.95 34.4 31.25 L34.7 29.6 34.95 28.0 34.8 22.0 34.5 20.6 Q33.9 17.9 32.6 15.5 33.7 19.45 33.65 23.35 L32.5 30.2 31.9 31.85 31.5 32.0 31.45 32.0 29.6 32.15 29.1 32.0 Q29.35 29.95 28.65 27.35 28.7 29.2 28.35 30.85 L27.85 32.2 25.05 32.1 Q23.55 29.1 23.5 24.2 L23.45 24.6 23.45 24.45 23.35 25.9 23.35 26.3 Q23.2 28.85 23.45 30.95 L23.6 31.85 Q20.5 25.1 21.55 17.95 L21.4 18.7 21.4 18.4 Q20.0 23.15 20.75 27.75 21.05 29.9 21.85 31.85 L21.7 31.9 21.5 31.9 Q20.6 31.9 19.65 31.35 L18.8 29.9 18.25 28.45 17.95 27.1 18.0 27.45 17.8 26.55 18.4 31.1 18.15 30.95 18.1 30.95 17.1 30.9 Q14.95 27.25 14.9 23.35 15.0 19.8 16.7 15.85 L16.95 15.25 16.8 15.4 16.95 15.1 16.35 15.95 16.35 16.0 16.3 16.0 Q15.5 16.95 14.9 18.15 13.5 20.9 13.4 24.6 13.35 26.8 13.75 29.3 L13.8 29.65 14.0 30.75 10.65 29.3 10.1 27.6 10.1 27.45 9.9 26.25 9.85 26.4 9.75 25.6 Q8.7 29.05 8.3 31.9 7.8 34.85 8.2 37.25 L8.35 38.05 Q8.9 40.55 10.35 42.1 L10.4 42.15 11.3 43.1 9.5 42.6 9.6 42.7 Q5.4 40.75 5.65 35.1 6.25 39.3 8.95 40.8 L8.75 40.45 Q5.45 34.65 8.9 25.1 7.5 26.65 5.0 27.05 7.1 24.65 7.95 19.4 8.8 12.8 13.65 10.0 9.2 13.55 8.7 18.5 7.8 24.15 5.25 26.8 8.3 25.35 10.15 20.8 10.65 18.6 11.9 16.55 9.6 22.05 10.7 27.15 L11.45 27.8 Q11.3 25.0 12.1 22.75 11.85 25.4 12.65 28.0 12.25 22.35 14.45 17.9 15.55 15.5 17.45 13.5 L17.5 13.45 19.0 11.95 18.05 13.85 Q17.55 14.9 17.2 16.0 15.05 22.05 16.55 28.1 16.25 23.25 17.85 19.05 17.55 22.85 19.1 28.1 18.3 22.55 19.3 19.2 19.15 22.65 19.6 24.35 20.05 19.15 22.35 14.05 L23.15 11.6 23.6 10.45 Q21.5 18.45 22.5 26.55 22.45 23.05 24.4 17.95 L24.35 18.2 Q23.6 25.15 24.9 29.75 24.4 26.95 25.2 21.4 25.55 26.2 26.0 26.9 L28.0 27.05 Q28.5 25.35 28.1 22.2 29.35 25.05 29.15 27.1 L29.35 27.1 29.45 27.1 32.3 26.45 Q33.5 19.4 31.1 11.15 L33.25 15.6 Q36.05 20.7 35.9 25.55 36.45 21.4 36.05 18.85 L35.55 15.7 34.95 13.05 Q36.5 15.95 37.4 18.85 38.6 22.65 38.7 26.35 39.3 26.5 40.1 25.75 40.85 24.95 40.75 22.55 40.65 20.25 39.6 14.3 44.05 22.35 41.4 30.75 L41.35 30.8 41.8 27.9 Q42.0 25.15 41.4 22.85 L41.5 24.0 M49.4 34.3 Q49.6 37.55 48.55 40.25 47.7 42.4 46.1 44.15 L44.55 45.75 43.8 46.25 44.15 46.05 41.0 48.15 40.05 49.2 40.05 49.1 Q38.3 51.1 38.45 53.4 L38.45 54.0 38.4 53.95 Q38.0 50.5 39.65 48.65 42.65 44.4 44.85 42.85 L41.95 46.5 43.9 45.1 Q45.4 43.95 46.65 41.9 47.9 39.8 48.55 35.05 48.85 29.8 47.5 23.85 48.85 27.9 49.3 32.95 L49.4 34.3 M3.8 32.95 L3.7 33.4 Q4.1 28.15 5.5 23.95 4.15 29.9 4.45 35.15 5.1 39.9 6.35 42.0 7.6 44.05 9.1 45.2 L11.05 46.6 8.15 42.95 Q10.35 44.5 13.35 48.75 14.95 50.55 14.65 53.9 L14.55 54.0 14.55 53.5 Q14.7 51.1 12.95 49.1 L13.1 49.45 12.0 48.25 Q10.05 47.25 8.4 45.75 L8.95 46.05 9.3 46.25 Q3.0 42.05 3.8 32.95 M43.4 26.15 L43.35 26.0 Q45.5 17.25 37.4 7.55 L37.25 7.35 37.4 7.5 Q47.65 17.95 44.5 25.8 47.1 34.75 44.6 40.15 47.15 38.7 47.7 32.95 47.9 35.55 47.15 37.95 46.15 42.3 41.4 43.15 47.4 39.15 43.45 25.9 L43.4 26.15" fill="#000066" fill-opacity="0.08627451" fill-rule="evenodd" stroke="none"/>
      <path d="M11.4 10.45 L10.35 11.6 Q9.45 12.65 8.85 13.65 L8.5 13.75 7.55 13.85 Q4.9 14.55 2.2 20.95 3.55 14.8 5.85 11.5 8.1 8.2 11.55 5.35 L10.15 7.3 Q9.75 8.15 10.1 9.1 10.4 10.0 11.4 10.45 M12.95 11.25 L13.45 10.85 13.9 10.85 14.8 11.15 18.3 12.0 17.5 12.8 16.75 13.7 16.65 13.65 13.05 13.45 10.9 13.65 Q11.8 12.25 12.95 11.25 M22.45 12.65 L22.1 13.3 21.55 14.6 18.15 14.1 19.05 12.6 19.25 12.3 20.0 12.45 22.45 12.65 M23.0 14.75 L23.6 12.85 23.7 12.55 25.9 12.3 25.65 13.7 25.5 14.95 24.85 14.9 23.0 14.75 M26.5 12.25 L30.3 11.6 30.55 12.35 31.25 14.85 26.15 15.0 26.5 12.25 M34.85 11.0 L37.6 10.6 38.55 12.7 38.65 13.45 Q37.45 13.55 36.45 14.0 L35.9 14.15 35.8 13.9 35.75 13.6 Q35.45 12.05 34.85 11.0 M32.9 11.1 L33.35 11.9 34.4 14.4 33.15 14.6 32.95 13.8 Q32.75 12.85 31.95 11.25 L32.6 11.1 32.65 11.1 32.9 11.1 M40.85 13.35 L41.0 13.6 39.65 13.45 39.6 13.05 39.25 11.5 38.95 10.75 40.85 13.35 M41.6 9.55 L41.7 9.5 41.75 9.5 Q44.55 8.95 42.9 5.85 47.35 11.6 48.15 13.1 L51.05 20.75 Q48.05 14.7 46.2 14.3 L43.75 13.95 43.4 12.95 41.6 9.55" fill="#fef8fa" fill-rule="evenodd" stroke="none"/>
      <path d="M46.4 6.05 L47.15 4.75 Q50.7 7.95 53.5 14.45 54.9 17.65 55.6 20.25 L51.55 20.95 50.1 16.85 Q48.05 12.0 45.2 8.3 L46.4 6.05" fill="url(#gradient27)" fill-rule="evenodd" stroke="none"/>
      <path d="M1.45 20.95 L-2.6 20.25 Q-1.9 17.65 -0.5 14.45 2.3 7.95 5.85 4.75 L6.6 6.05 7.8 8.3 Q4.95 12.0 2.9 16.85 1.9 19.25 1.45 20.95" fill="url(#gradient28)" fill-rule="evenodd" stroke="none"/>
      <path d="M46.4 6.05 L47.05 4.95 Q46.25 6.9 46.4 8.65 48.4 10.85 52.05 19.7 L53.05 20.0 55.6 20.25 51.55 20.95 50.1 16.85 Q48.05 12.0 45.2 8.3 L46.4 6.05" fill="#000000" fill-opacity="0.49803922" fill-rule="evenodd" stroke="none"/>
      <path d="M1.45 20.95 L-2.6 20.25 -0.05 20.0 0.95 19.7 Q4.6 10.85 6.6 8.65 6.75 6.9 5.95 4.95 L6.6 6.05 7.8 8.3 Q4.95 12.0 2.9 16.85 1.9 19.25 1.45 20.95" fill="#000000" fill-opacity="0.49803922" fill-rule="evenodd" stroke="none"/>
    </g>
    <linearGradient gradientTransform="matrix(-0.0202, -0.0114, -0.0085, 0.0151, -10.6, 6.75)" gradientUnits="userSpaceOnUse" id="gradient0" spreadMethod="pad" x1="-819.2" x2="819.2">
      <stop offset="0.0" stop-color="#d1d0e3"/>
      <stop offset="0.38823529411764707" stop-color="#f7f3ea"/>
      <stop offset="0.6509803921568628" stop-color="#f7f3ea"/>
      <stop offset="1.0" stop-color="#d1d0e3"/>
    </linearGradient>
    <linearGradient gradientTransform="matrix(0.0202, -0.0114, 0.0085, 0.0151, 63.75, 6.75)" gradientUnits="userSpaceOnUse" id="gradient1" spreadMethod="pad" x1="-819.2" x2="819.2">
      <stop offset="0.0" stop-color="#d1d0e3"/>
      <stop offset="0.38823529411764707" stop-color="#f7f3ea"/>
      <stop offset="0.6509803921568628" stop-color="#f7f3ea"/>
      <stop offset="1.0" stop-color="#d1d0e3"/>
    </linearGradient>
    <linearGradient gradientTransform="matrix(0.0187, 0.0, 0.0, 0.0109, 67.15, 20.9)" gradientUnits="userSpaceOnUse" id="gradient2" spreadMethod="pad" x1="-819.2" x2="819.2">
      <stop offset="0.0" stop-color="#d1d0e3"/>
      <stop offset="0.38823529411764707" stop-color="#f7f3ea"/>
      <stop offset="0.6509803921568628" stop-color="#f7f3ea"/>
      <stop offset="1.0" stop-color="#d1d0e3"/>
    </linearGradient>
    <linearGradient gradientTransform="matrix(0.0123, 0.0019, -0.0011, 0.0071, 67.75, 32.8)" gradientUnits="userSpaceOnUse" id="gradient3" spreadMethod="pad" x1="-819.2" x2="819.2">
      <stop offset="0.0" stop-color="#d1d0e3"/>
      <stop offset="0.38823529411764707" stop-color="#f7f3ea"/>
      <stop offset="0.6509803921568628" stop-color="#f7f3ea"/>
      <stop offset="1.0" stop-color="#d1d0e3"/>
    </linearGradient>
    <linearGradient gradientTransform="matrix(0.0047, 0.0067, -0.0101, 0.0072, 61.55, 50.1)" gradientUnits="userSpaceOnUse" id="gradient4" spreadMethod="pad" x1="-819.2" x2="819.2">
      <stop offset="0.0" stop-color="#d1d0e3"/>
      <stop offset="0.38823529411764707" stop-color="#f7f3ea"/>
      <stop offset="0.6509803921568628" stop-color="#f7f3ea"/>
      <stop offset="1.0" stop-color="#d1d0e3"/>
    </linearGradient>
    <linearGradient gradientTransform="matrix(0.02, 0.0115, -0.0086, 0.015, -10.8, 6.75)" gradientUnits="userSpaceOnUse" id="gradient5" spreadMethod="pad" x1="-819.2" x2="819.2">
      <stop offset="0.0" stop-color="#d1d0e3"/>
      <stop offset="0.38823529411764707" stop-color="#f7f3ea"/>
      <stop offset="0.6509803921568628" stop-color="#f7f3ea"/>
      <stop offset="1.0" stop-color="#d1d0e3"/>
    </linearGradient>
    <linearGradient gradientTransform="matrix(0.0187, 0.0, 0.0, 0.0109, -14.2, 20.9)" gradientUnits="userSpaceOnUse" id="gradient6" spreadMethod="pad" x1="-819.2" x2="819.2">
      <stop offset="0.0" stop-color="#d1d0e3"/>
      <stop offset="0.38823529411764707" stop-color="#f7f3ea"/>
      <stop offset="0.6509803921568628" stop-color="#f7f3ea"/>
      <stop offset="1.0" stop-color="#d1d0e3"/>
    </linearGradient>
    <linearGradient gradientTransform="matrix(0.0132, -0.0029, 0.0015, 0.007, -15.75, 33.2)" gradientUnits="userSpaceOnUse" id="gradient7" spreadMethod="pad" x1="-819.2" x2="819.2">
      <stop offset="0.0" stop-color="#d1d0e3"/>
      <stop offset="0.38823529411764707" stop-color="#f7f3ea"/>
      <stop offset="0.6509803921568628" stop-color="#f7f3ea"/>
      <stop offset="1.0" stop-color="#d1d0e3"/>
    </linearGradient>
    <linearGradient gradientTransform="matrix(0.0055, -0.0045, 0.0079, 0.0096, -9.5, 49.8)" gradientUnits="userSpaceOnUse" id="gradient8" spreadMethod="pad" x1="-819.2" x2="819.2">
      <stop offset="0.0" stop-color="#d1d0e3"/>
      <stop offset="0.38823529411764707" stop-color="#f7f3ea"/>
      <stop offset="0.6509803921568628" stop-color="#f7f3ea"/>
      <stop offset="1.0" stop-color="#d1d0e3"/>
    </linearGradient>
    <linearGradient gradientTransform="matrix(0.02, 0.0115, -0.0086, 0.015, -10.8, 6.75)" gradientUnits="userSpaceOnUse" id="gradient9" spreadMethod="pad" x1="-819.2" x2="819.2">
      <stop offset="0.30980392156862746" stop-color="#e8e8e8" stop-opacity="0.0"/>
      <stop offset="1.0" stop-color="#e7e7e7" stop-opacity="0.49803922"/>
    </linearGradient>
    <linearGradient gradientTransform="matrix(0.0, -0.0053, -0.0056, 0.0, 1.85, -0.15)" gradientUnits="userSpaceOnUse" id="gradient10" spreadMethod="pad" x1="-819.2" x2="819.2">
      <stop offset="0.30980392156862746" stop-color="#e8e8e8" stop-opacity="0.0"/>
      <stop offset="1.0" stop-color="#e7e7e7" stop-opacity="0.49803922"/>
    </linearGradient>
    <linearGradient gradientTransform="matrix(0.0083, 0.003, -0.0029, 0.0079, -19.65, 12.55)" gradientUnits="userSpaceOnUse" id="gradient11" spreadMethod="pad" x1="-819.2" x2="819.2">
      <stop offset="0.30980392156862746" stop-color="#e8e8e8" stop-opacity="0.0"/>
      <stop offset="1.0" stop-color="#e7e7e7" stop-opacity="0.49803922"/>
    </linearGradient>
    <linearGradient gradientTransform="matrix(0.0184, 0.0032, -0.0018, 0.0107, -14.2, 20.9)" gradientUnits="userSpaceOnUse" id="gradient12" spreadMethod="pad" x1="-819.2" x2="819.2">
      <stop offset="0.30980392156862746" stop-color="#e8e8e8" stop-opacity="0.0"/>
      <stop offset="1.0" stop-color="#e7e7e7" stop-opacity="0.49803922"/>
    </linearGradient>
    <linearGradient gradientTransform="matrix(0.0135, 0.0, 0.0, 0.0072, -15.55, 33.15)" gradientUnits="userSpaceOnUse" id="gradient13" spreadMethod="pad" x1="-819.2" x2="819.2">
      <stop offset="0.30980392156862746" stop-color="#e8e8e8" stop-opacity="0.0"/>
      <stop offset="1.0" stop-color="#e7e7e7" stop-opacity="0.49803922"/>
    </linearGradient>
    <linearGradient gradientTransform="matrix(-0.0013, -0.0048, 0.004, -0.0011, -14.4, 40.9)" gradientUnits="userSpaceOnUse" id="gradient14" spreadMethod="pad" x1="-819.2" x2="819.2">
      <stop offset="0.30980392156862746" stop-color="#e8e8e8" stop-opacity="0.0"/>
      <stop offset="1.0" stop-color="#e7e7e7" stop-opacity="0.49803922"/>
    </linearGradient>
    <linearGradient gradientTransform="matrix(-0.0055, -9.0E-4, 3.0E-4, -0.0019, -15.8, 26.95)" gradientUnits="userSpaceOnUse" id="gradient15" spreadMethod="pad" x1="-819.2" x2="819.2">
      <stop offset="0.30980392156862746" stop-color="#e8e8e8" stop-opacity="0.0"/>
      <stop offset="1.0" stop-color="#e7e7e7" stop-opacity="0.49803922"/>
    </linearGradient>
    <linearGradient gradientTransform="matrix(0.0079, -0.0076, 0.0086, 0.0089, -10.3, 50.4)" gradientUnits="userSpaceOnUse" id="gradient16" spreadMethod="pad" x1="-819.2" x2="819.2">
      <stop offset="0.30980392156862746" stop-color="#e8e8e8" stop-opacity="0.0"/>
      <stop offset="1.0" stop-color="#e7e7e7" stop-opacity="0.49803922"/>
    </linearGradient>
    <linearGradient gradientTransform="matrix(-0.0202, 0.0115, -0.0086, -0.0151, 64.25, 7.65)" gradientUnits="userSpaceOnUse" id="gradient17" spreadMethod="pad" x1="-819.2" x2="819.2">
      <stop offset="0.30980392156862746" stop-color="#e8e8e8" stop-opacity="0.0"/>
      <stop offset="1.0" stop-color="#e7e7e7" stop-opacity="0.49803922"/>
    </linearGradient>
    <linearGradient gradientTransform="matrix(0.0, -0.0053, 0.0056, 0.0, 51.3, -0.15)" gradientUnits="userSpaceOnUse" id="gradient18" spreadMethod="pad" x1="-819.2" x2="819.2">
      <stop offset="0.30980392156862746" stop-color="#e8e8e8" stop-opacity="0.0"/>
      <stop offset="1.0" stop-color="#e7e7e7" stop-opacity="0.49803922"/>
    </linearGradient>
    <linearGradient gradientTransform="matrix(-0.0184, 0.0036, -0.0021, -0.0107, 67.15, 20.9)" gradientUnits="userSpaceOnUse" id="gradient19" spreadMethod="pad" x1="-819.2" x2="819.2">
      <stop offset="0.30980392156862746" stop-color="#e8e8e8" stop-opacity="0.0"/>
      <stop offset="1.0" stop-color="#e7e7e7" stop-opacity="0.49803922"/>
    </linearGradient>
    <linearGradient gradientTransform="matrix(-0.0109, 0.0029, -0.0022, -0.0081, 70.8, 11.8)" gradientUnits="userSpaceOnUse" id="gradient20" spreadMethod="pad" x1="-819.2" x2="819.2">
      <stop offset="0.30980392156862746" stop-color="#e8e8e8" stop-opacity="0.0"/>
      <stop offset="1.0" stop-color="#e7e7e7" stop-opacity="0.49803922"/>
    </linearGradient>
    <linearGradient gradientTransform="matrix(-0.0124, -1.0E-4, 1.0E-4, -0.0071, 67.6, 35.65)" gradientUnits="userSpaceOnUse" id="gradient21" spreadMethod="pad" x1="-819.2" x2="819.2">
      <stop offset="0.30980392156862746" stop-color="#e8e8e8" stop-opacity="0.0"/>
      <stop offset="1.0" stop-color="#e7e7e7" stop-opacity="0.49803922"/>
    </linearGradient>
    <linearGradient gradientTransform="matrix(-0.0077, -0.0096, 0.0097, -0.0078, 64.65, 49.3)" gradientUnits="userSpaceOnUse" id="gradient22" spreadMethod="pad" x1="-819.2" x2="819.2">
      <stop offset="0.30980392156862746" stop-color="#e8e8e8" stop-opacity="0.0"/>
      <stop offset="1.0" stop-color="#e7e7e7" stop-opacity="0.49803922"/>
    </linearGradient>
    <linearGradient gradientTransform="matrix(0.0056, 0.0, 0.0, 0.0019, 68.8, 26.95)" gradientUnits="userSpaceOnUse" id="gradient23" spreadMethod="pad" x1="-819.2" x2="819.2">
      <stop offset="0.30980392156862746" stop-color="#e8e8e8" stop-opacity="0.0"/>
      <stop offset="1.0" stop-color="#e7e7e7" stop-opacity="0.49803922"/>
    </linearGradient>
    <linearGradient gradientTransform="matrix(9.0E-4, -0.0043, 0.004, 8.0E-4, 67.45, 40.8)" gradientUnits="userSpaceOnUse" id="gradient24" spreadMethod="pad" x1="-819.2" x2="819.2">
      <stop offset="0.30980392156862746" stop-color="#e8e8e8" stop-opacity="0.0"/>
      <stop offset="1.0" stop-color="#e7e7e7" stop-opacity="0.49803922"/>
    </linearGradient>
    <radialGradient cx="0" cy="0" gradientTransform="matrix(0.037, 0.0, 0.0, 0.037, 26.3, 19.8)" gradientUnits="userSpaceOnUse" id="gradient25" r="819.2" spreadMethod="pad">
      <stop offset="0.0" stop-color="#fcf1ef"/>
      <stop offset="0.7686274509803922" stop-color="#f9f9f9"/>
      <stop offset="1.0" stop-color="#e5e5e5"/>
    </radialGradient>
    <linearGradient gradientTransform="matrix(0.0, 0.033, -0.0337, 0.0, 26.55, 26.7)" gradientUnits="userSpaceOnUse" id="gradient26" spreadMethod="pad" x1="-819.2" x2="819.2">
      <stop offset="0.0" stop-color="#e7e7e7" stop-opacity="0.0"/>
      <stop offset="0.7019607843137254" stop-color="#e7e7e7" stop-opacity="0.49803922"/>
      <stop offset="1.0" stop-color="#e7e7e7" stop-opacity="0.49803922"/>
    </linearGradient>
    <linearGradient gradientTransform="matrix(0.0044, 0.0096, -0.009, 0.0041, 50.4, 12.85)" gradientUnits="userSpaceOnUse" id="gradient27" spreadMethod="pad" x1="-819.2" x2="819.2">
      <stop offset="0.0" stop-color="#b26a23"/>
      <stop offset="0.24705882352941178" stop-color="#ffca66"/>
      <stop offset="0.5058823529411764" stop-color="#ffffff"/>
      <stop offset="0.7490196078431373" stop-color="#ffca66"/>
      <stop offset="1.0" stop-color="#b26a23"/>
    </linearGradient>
    <linearGradient gradientTransform="matrix(-0.0044, 0.0096, 0.009, 0.0041, 2.6, 12.85)" gradientUnits="userSpaceOnUse" id="gradient28" spreadMethod="pad" x1="-819.2" x2="819.2">
      <stop offset="0.0" stop-color="#b26a23"/>
      <stop offset="0.24705882352941178" stop-color="#ffca66"/>
      <stop offset="0.5058823529411764" stop-color="#ffffff"/>
      <stop offset="0.7490196078431373" stop-color="#ffca66"/>
      <stop offset="1.0" stop-color="#b26a23"/>
    </linearGradient>
  </defs>
</svg>
