<svg xmlns="http://www.w3.org/2000/svg" xmlns:ffdec="https://www.free-decompiler.com/flash" xmlns:xlink="http://www.w3.org/1999/xlink" ffdec:objectType="frame" width="49" height="32.55"><use ffdec:characterId="1" xlink:href="#a" width="49" height="32.55"/><defs><g id="a" fill-rule="evenodd"><path fill="#840202" d="M25.8.2q9.1.5 15.75 3.2 6.9 2.85 7.45 6.55 0 2.9-.75 6.5-1.6 7.05-5.5 10.15l.4-1.85q.25-2.2-.6-4.05-.05 1.6-.85 3.8-1.55 4.35-5.3 7l.05-2.35L35.9 27q-.1-.05-1.5 2.05-1.5 2.35-3.1 2.6.3-.9-.1-2.2l-.4-1.1-2.85 2.8q-.85-2.15-1.75-2.5-.75 1.45-3.55 3.9l-1.85-2.4q-1.35-1.6-1.4-2.2-1.45.8-2.05 3.5-1.25-.5-2.05-1.5-1.2-1.5-.75-3.5L13.35 28q-1.25 1.7-1.45 2.8l-2.35-3.45Q7.5 23.65 7.8 20.7q-1 1.1-1.15 3.15-.2 2 .5 3.55-1.9-1.3-4.35-5.15Q-.85 16.75.3 9.9q1.4-5.5 9.15-8.05Q16.25-.4 25.8.2"/><path fill="#5b0202" fill-opacity=".8" d="m17.85 30.35.4-.85.35-.4zm14.4 1.1-.1.05-.25.1 1.9-1.6-.95 1zM8.4 2.4l.25-.1-.25.4.5-.5 2.25-.8L16 .35h1.25l1-.3.7-.05h1.9l.1.05q.15.15.4.15l2.1-.1 1.1-.05h.15l1.85.15 2.8.35 3.9.5 2.1.45 3.2.95 2.8.9h.05l.2.15q.5.35 1.1.35l.15.1q1.35.9 2.1 1.1l1.2.7.4 1.55q.4 1.75.4 3.45l-.3 4.25v.1l-.25 1.05-.75 4.2-.85 2.2v.15l-.1.2h-.05v-.05l-.1.1-.05-.2v-.25l-.45-1.1-.95-1.45-1.2-1.35-.3-.2v.05l.25 2.1q0 2-1.2 4.95l-.5 1.1-1.1 1.3-1.7 1.35v.05-.7q0-2.6-1.15-4.15v.4l-.3 1.05-.65 1-.7 1.15-1.65 1.5-.2-.85-.8-1.45-.3-.35-.05-.05-.25.25-1.2 1.15-1.25 1.15-.6.5-.35-1.1q-.25-.75-.7-1.2l-.45-.4-.5-.2-.3-.05-.6 1.75-.9 1.15-1.25.9-.55-.45-.2-.25-.85-.9-.5-.6q-.8-1.5-1.3-1.5-.45 0-1.25.75l-.95 1.05q-1.05 1.15-.7 1.95l-1.25-1.55-.05-1.05.2-2-.3.1.2-.25q0-.45-.45-.45-.5 0-1.5.9l-1.2 1.3q-.7.8-.85 1.2v.1l-.05-.05-.9-1.45-.65-1.2-.6-1.25-.85-2.55q-.3-1.05-.3-2.3l-.1-.35-.45.45q-1 .1-1.3 2.3-.2 1.15-.15 2.45l.05 1.3.05.25Q5.9 26.3 5 24.6l-1.5-3.25q-1.25-3-1.25-5.45 0-1.5.7-4.1Q3.5 9.6 4.2 8q1.3-3.2 2.55-5z"/></g></defs></svg>