<svg xmlns="http://www.w3.org/2000/svg" xmlns:ffdec="https://www.free-decompiler.com/flash" xmlns:xlink="http://www.w3.org/1999/xlink" ffdec:objectType="frame" width="62.35" height="54.75"><use ffdec:characterId="3" xlink:href="#a" width="62.35" height="54.75"/><defs><radialGradient id="b" cx="0" cy="0" r="819.2" gradientTransform="translate(28.3 19.55)scale(.0419)" gradientUnits="userSpaceOnUse" spreadMethod="pad"><stop offset="0" stop-color="#774f00"/><stop offset=".494" stop-color="#b87b00"/><stop offset=".855" stop-color="#aa7100"/><stop offset="1" stop-color="#774f00"/></radialGradient><radialGradient id="c" cx="0" cy="0" r="819.2" gradientTransform="translate(60.85 24.55)scale(.0002)" gradientUnits="userSpaceOnUse" spreadMethod="pad"><stop offset="0" stop-color="#774f00"/><stop offset=".494" stop-color="#b87b00"/><stop offset=".855" stop-color="#aa7100"/><stop offset="1" stop-color="#774f00"/></radialGradient><g id="a" fill-rule="evenodd"><path fill="url(#b)" d="M33.55-.9q5.25 1.4 8.7 3.45 1.15.7 2.1 1.45 3.75 3.05 4.4 4l.05.1 1.1 1.55 1.15 1.85.95 1.85.9 2.55 1.6 5.6q.95 3.8 1.1 8.15.15 4.3-1.3 8.1-1.55 3.75-3.95 5.8l.15.15-.25.05-.05.15-.65.4.6-.3-.95 2.15.05-.4q-.3 1.3-2.15 3.35l-2.9 2.85q-1.05.85-2.35.85t-1.9-.9q-.6.55-1.6.9l.85-1 1.1-1.3q1.6-1.2 2.1-2.2l.8-1.8.6-1.9.4-2.25V37.7q.4.55.2-1.15l-.3-1.7-.05-.65-.25-2.1-.25-.65v-.05q-3.85-5.3-10.25-9.1l-1.75-.95q-3.65-2-6.2-3-3-1.25-4.5-1.25H18.9l-1.1.5q-1.3 1.05-1.25 1.55.05.45-.35.1l-.2-.15q-1.3-.3-3.2 3.35l-.35.65Q11 26 10.3 28.55l-.5 2.25q-.25.5-.3 1.35-.3 1.8-.3 3.8l1 8.4q1.45 6.75 4.4 7.8l-.3.05q-.8 0-1.5-.45l-.15.15q-1.05.9-2.25.9-1.9 0-3.7-2.75l-1.65-3.2q-1.4-2.6-2-5.9-.95-1.9-1.4-4.15Q0 28.9 0 27.1l.25-3.65v-.3q0-1.15.35-2.9v-.15l.1-.4v-.1l.7-2.35 1.3-3.8-.85 1.7Q.9 16.95.6 18.05.1 19.6-.3 22.2q-.4 2.55-.2 3.95l.55 2.95.3 1q-.9-.55-1.5-4.4t-.05-5.85l.55-2.1 1.2-3.1q.55-1.3 1.2-2.2l1.8-3.1.75-1.15.1-.1Q5.2 6.9 7.55 5l.3-.25Q11.4 2 13.6 2.1v-.05h1.15q.35-1.7 6.05-3.3zm20.35 32q0-2.95-1.1-7.25.55 3.55.4 6.55l-.75 6.25q-.65 3.25-1.85 6.1 1.4-1.3 2.15-3.25.8-2.25 1-4.6zm-2.45-4.7.1-.05-.1-.25zm-8.35 2.75.05.15-.05-.35-.05-.1zm-26.15-11.6.05.2.15-.4zm-.6 1.1-.1.1.1.05zM13.9 30l.15-.45.05-.1z" transform="translate(1.45 1.95)"/><path fill="url(#c)" d="m60.9 24.6-.05-.15.05.05z" transform="translate(1.45 1.95)"/><path fill="#fff" fill-opacity=".6" d="M43.7 4.5q1.15.7 2.1 1.45 3.75 3.05 4.4 4l.05.1q-5.1 1.75-8.2 5.2-.55.1-.85.35-3.15 2.65-3.95 7.85l.4 1.8-2.9-1L33 23.3q-3.65-2-6.2-3l.05-.05q7.7-.25 12.9-5.55 4.2-4.35 3.95-10.2M9.3 6.7q-1.4 5.25.4 11.15 1.25 4.1 4.55 6.55l-.35.65q-1.45 2.9-2.15 5.45-.9-7.05-5.25-10.65-.45-.35-.45-1l-2.5-1.65.6-1.8-.85 1.7q-.65-.3-1.3-.5.55-1.3 1.2-2.2L5 11.3l.75-1.15.1-.1q.8-1.2 3.15-3.1z"/><path fill="#774f00" d="m46.15 9.95-.7-.8q2.55 2.4 4.35 5.75 1.85 3.3 3.05 6.75 1.2 3.3 1.1 8.35t-.45 6.35l-.05.3v.45l-.05-.3v-.05l-.05.15-.25 1.25-.45 1.85q-.05-.2-.15.45l-1.3 3.5q-1.65 3.55-3.45 6.2l-.65.65h-.05v.05l-.05.1-.1.15-.4.7-.25.35-.15.2-.85.95-.35.15-2.5.45-1.4.55-.5.25 1.3-1.15q3.2-3.3 3.7-5.4l.55-2.5.1-1.5-.15-3.8-.25-2.15-.25-3.2-.2-.85-.05-.1-.15-.5-.1-.15v-.05q-4.35-6-12-10.05-7.25-3.9-10.2-4.2l-1.5-.1-.4.1h.1q-1.5.45-2.15 1.6l.05-.35.05-.5-.75.95-.1.1-.1.2v.2l-.1.05h-.05l-.1-.05-.1-.1-.2-.15h-.3l-.35.1q.55.15.6.6l-.25-.1-1.1.05q-1 1-2.15 3.35-2.1 4.3-2.65 7.7-.25.5-.3 1.35-.3 1.8-.35 5.15-.05 1.65.2 3.95l.75 5.1q.4 1.85 1.25 3.35-1.5-1.5-1.95-4.1-.9-3.1-1.35-6.5-.7-5.4 1.35-13.15 2-7.5 5.15-7.9l.45-.3q-1-1.25-3.95.05-2.9 1.25-4.3 8.3l.35-2.1-.5 2.2q.5-5.2 3.45-9.2 1.5-1.7 2.75-1.6l1.7.45 1.15.95q.4-2.6 2.15-4.05l-.15-1.1.2-1.1q1.95-4.65 8.3-5.55l1.25-.05q3.4-.05 7.55 1.4l.75.1h-.35l.8.15-.9-.15 2.75 1.1-4.95-1.15-.8-.05-1.8-.05q-4.15.05-7.1 1.5-3.8 1.8-5.5 4.9.55-.45 1.25-.75.6-1.4 1.9-2.3l.1-.1q3-1.8 7-1.75 3.7 0 6.8.95l1.55.55 1.45.8q.95.45 2.2 1.85 1.45 1.5 2.35 3.65l1.45 4.2 1.3 5.85.05.15.4 3.2q.45 2.1.3 7l-.25 4.55-.3 2.7q-.45 3.05-1.8 6.1l.1-.45-.7 1.25-1.3 1.25.9-.35q1.25-.65 2-2.05.9-1.8 1.45-3.8l.7-3.3.15-3.65.05-1.9.1-4.65-.15-6.15.9 7.9.15 5.7-.25 2.45.05-.1q1-4.2.85-8.15l-.1-2.15-.45-4.3L48 22.2q-1.3-5.35-3.25-8.9 1.4 2.1 2.75 5.15 2.2 5 2.55 6.85l.65 3.75.15 1.1.15 2.45-.1 3.65-.6 4.1-.95 3.8-.4 1.2-.05.3.6-1.2q1.6-2.85 2.3-5.95.75-3.35.95-6.4t-.1-5.95q-.35-2.95-1.2-5.65-.85-2.75-2.25-5.4l-.45-1.1q-1.25-2.5-2.6-4.05m-2.35 13.1-2.8-5.4q-.95-1.65-2.1-2.9-.6-.65-1.8-1.4l2.4 1.2q3.1 1.8 5.15 7.15-1.6-4.45-3.55-6.65-1.85-2.1-3.9-3.05l-1.85-.55q-2.9-.95-6.6-.75-3.75.35-6.75 2.5l-.3.25 2.75-.5 3.3-.05q3.6.2 6.75 1.55l.5.4-.4-.1v-.15l-8.75-.5-3.15.65-1.95.85-1.3 1.05h.05l.25-.25.15-.1 5.45.35q3.2.75 6.95 2.4 4.4 1.9 6.75 5.15l-1.35-1.45q-1.05-1.1-4.05-2.4l-4.55-1.9-1.8-.5-1.65-.4-4.95-.2q-2.55.7-.9.65 1.9-.3 5.35.6Q30.5 20 34 22.25q3.7 2.05 7.65 6Q43.5 30 45 32.5l-.25-1.65q-.6-1.6-2.35-4.05l-2.95-4.05q-1.25-1.65-4-3.75l-5.1-3.15q7.2 2.4 9.75 6.05l3.35 5.3q.8 1.65 1.2 3.2-.5-2.6-1.65-4.95l-1.4-2.8q2.75 2.55 3.65 6.15 1.1 4.2 1.3 8.9.35-3.05-.2-6.65-.55-3.65-1.9-6.45zM55.25 36.5l.05-1.9q.05-1.6-.6-6.1-.65-4.55-.3-3.2l.9 3q.55 1.7.75 5.4t-1.1 6.55l-.9 1.8.35-1.15q.6-2 .8-4.05zm-3.3 9.15h-.15l.05-.1zm.4-1.2-.2.75-.25.2.35-.85zM41.3 6.9l-.05-.05-.6-.25q-3.15-1.4-6.7-2.05L29 4.05l-3.9.75q-2.45.55-4.4 2.5-1 .9-1.7 2.05.75-2.5 3.15-3.7 2.9-1.55 6.5-2.1l7.45.9q1.75.35 3.3 1.05l2.25 1.25 1.1.85-1.2-.6zM26.85 2.6q-6.25 1.35-7.7 3.7-1.45 2.3-1.25 2.55V9l.2.35.2 1.3.05 1.5h.05l-.05.1-.25 1.2-.1-.9-.65-1.65q-1.05-.95-2.1-1l-3.2.55q-2.05.6-3.6 3.4 1.5-5.25 7.25-5 .85.15 1.4.45l-.65-.85-.5-.25-1.65-.25 2.4-.1.65.35.25.25.05.1-.05-.35-.75-.65q-6.05-.8-9.9 4.45l-.65 1.05.25-.6q2.1-4.1 6.7-5.65 1.8-.4 3.35 0h.1l.4.4v-.75l.15-.25q.55-1.7 2.5-2.6v-.1q2.9-1.1 6.6-1.05zm-10.9 11.5v.1q1.15.65 1.15 1.95l-.15 1.15-.25-.8-.1-.6-.25-.3q-.45-1-2.55-.25l-2.3 1.4-.05.05-1.25 1.35v-.25q1.65-3.65 5.75-3.8m.4-.65-1.7-.15-.85.4 1-.9 1.55-.25q1.2.2 1.25.75l.35.95q.05 1.1-.25 1.75l-.1-1.25zm1.6.8-.1-.65.15.85zm-1.1-2.45q-1.4-.4-3.6 1-1.65 1.15-3.95 3.8-2.7 3.1-4.3 7-1.4 3.5-1.25 7.1-1-4.85.35-9.6l1.6-3.2 2.9-2.95q2.3-2.1 4.3-2.95zm-12.7 3.6Q2.5 18.45 2.05 20q-.5 1.55-.9 4.15L1 25.4l-.05 2.7.55 2.95.1.35.1.4.1.25-.1-.05-.05-.05-.2-.25-.85-2.4-.3-3.6q.4-6.25 3.75-10.55l1.6-1.95-2.15 4.1zm14.1 5.1-.1.15.05.05.7-.85-.5.5-.05.05zm-9.65 11L8 35.4q-.35 4 .5 7.65.8 3.55 2.35 6.55l.9 1.8 1.3 1.4.1.15.75.65.25.25q.35 0-.2.05l-2.85-.05q-1.6-.75-2.05-1.45l-1.55-3-.1-.2q-1.4-2.6-2-5.9-.4-.75-.05-.2l-.7-3.45q-.5-2.4-.1-5.25.3 3.65 1.1 7.55.8 3.7 2.4 6.85 1.25 2.5 3.35 3.55l-.6-.6q-.55-.35-1.95-3L7.9 45.9q-1.95-7.15-.55-2.9l1.45 4.4.9 1.3q-.55-1.2-.95-2.6l-.05-.2q-.8-2.85-1.2-6.15-.4-3.7.65-6.95zm-6.9-.15-.25-2.3.25-3.65q-.1 1.65-.05 3.4zM11.9 52.5l.15.15.1.05zm2.05 1.3-.2-.1h-.1v-.05q-.25.1.3.15"/></g></defs></svg>