<svg xmlns="http://www.w3.org/2000/svg" xmlns:ffdec="https://www.free-decompiler.com/flash" xmlns:xlink="http://www.w3.org/1999/xlink" ffdec:objectType="frame" width="70.75" height="85.75"><use ffdec:characterId="3" xlink:href="#a" width="70.75" height="85.75"/><defs><radialGradient id="b" cx="0" cy="0" r="819.2" gradientTransform="matrix(-.0003 -.036 -.036 .0003 27.2 27.95)" gradientUnits="userSpaceOnUse" spreadMethod="pad"><stop offset="0" stop-color="#b14015"/><stop offset="1" stop-color="#e57508"/></radialGradient><g id="a" fill-rule="evenodd"><path fill="#e57508" d="M12.7.05q5.55-.55 9.9 3.2 4 3.45 4.05 7.5l-.75.65q.55-2.85-2.75-6.3-3.9-4.05-9.8-3.7-5.1.3-7.7 5.65-2.55 5.25.2 8.5-1.55-.15-2.1-2.45-.55-2.25.15-5.05Q5.8.8 12.7.05m25.95 3.9q10.05-.55 18.15 8 9.3 9.75 11.95 21.35 3 12.9-1.5 30.4-2 7.7-.3 9.1 1.4 1.15 3.8-1.85-1.15 4.9-4.55 4.35-3-.5-3.95-3.3-.9-2.65-.65-5.65.25-2.55 1.4-6.35 6.1-19.85-5.5-37.55-4.45-6.75-10-10.6-5.3-3.65-8.45-2.6-.9.3-6.7 3.55-4.3 2.35-4.5 1.2-.55-3.2.6-5.6.75-1.5 3.45-2.8 3-1.45 6.75-1.65"/><path fill="#b14015" fill-opacity=".694" d="M34.8 5.1q3.35-1.5 7.1-1.05-3.6 0-7.45 2.15-1.15.65-2.25 2l-.9 1.25-.35-.95q.7-2 3.85-3.4m4.4 2.2 5.5.55q8.05 2.1 13.2 10 4.7 7.25 7.05 13.25l-1.35-3.65q-2.7-7.15-5.15-10.55-3.1-4.4-8.65-7.6Q43 5.35 37.75 7.5zm.15-.8 5.8-.3Q53.8 7.5 59.6 16.9q6.85 10.3 7.65 23.95l-.15-1.2q1.2 9.7-2.3 22.05-1.75 6.15-.05 10.25 1.4 3.35 3.25 3.15l-2.55-.05q-1.6-.45-2.25-1.55-.75-1.2-.6-5.05.15-4.15 1.4-8 4.45-14.05.5-26.75-2.4-7.55-9-16.65-2.85-4-7.95-6.85-6.2-3.45-11.15-2.05.6-1 2.95-1.65"/><path fill="url(#b)" d="M45 3.45q14.2 9.4 10.8 34.1-.9 6.3-5.5 14.6-4.15 7.5-4 8.65.1.65 3.75 3.75 2.8 2.35.45 3.45l-3.9 1.35q-.4.3.2.75l.8.9q.3 1.4-2.5 1.9l-3.45.4 1.65-.8 1.3-1.1q.45-.9-.85-2.3-1.15-1.25-.4-1.75l2.9-1.1q1.15-.25-.8-1.3l-2.9-1.45q-2.9-1.65-2.75-4.45.05-1 .75-2.45l1.15-2.3q1.55-2.5 2.9-5.4l-3.7 1.55q5.05-4.95 7.3-12.75l.15-.8q-1.7 4.65-7 8.9 2.7-2.55 4.55-11 2-9.15.3-15.9.7 3.2.2 6.8-.75 5.15-3.95 7.05.9-1.75.15-7.55-.8-6-2.5-8.7 1.35 3.8.25 7.4-1.1 3.7-4.05 4.7 2.3-5.95-.2-13.75 1.6 11.5-3.7 16.5-1 .95-4.05 2.9-2.15 1.35-2.5 2.5-.2-1.95-1.55-4l-2.5-3.6q-3.2-4.95-1.85-11.9-1.35 3.65-.55 9.2.45 2.95 1.45 6.7Q17.7 31.4 16 27.4q-2.1-5-1-11.9-2.1 1.95-3.1 7.4-.85 4.35-.7 8.35-3.75-4.3-3.3-10.7.3-4.25 2.35-8.7-3.3 5.5-3.2 16.7Q7.15 38.7 9 41q-1.45-1.4-2.3-3.2-1.15-2.35-1.85-6.2 0 9.45 7.2 17.65-2.2-.8-4.1-2.25 1.7 4 3.8 7.3l1.15 2.3q.65 1.45.75 2.45.15 2.8-2.8 4.45L8 64.95q-1.9 1.05-.8 1.3l2.9 1.1q.75.5-.4 1.75-1.25 1.4-.85 2.3.3.6 1.3 1.1l1.65.8-3.45-.4q-2.8-.5-2.55-1.9.05-.3.85-.9.6-.45.2-.75-.85-.4-3.9-1.35-2.35-1.1.45-3.45 3.65-3.1 3.75-3.75.15-1.1-4.15-8.65-4.65-8.25-5.35-14.6Q-5.15 12.8 8.8 3.45q7.1-4.8 17.9-4.9 11.1.1 18.3 4.9" transform="translate(2.8 12.45)"/><path fill="#b14015" d="M35.35 19.05q.6.6 1.8 3.3 1.35 2.95 1.75 4.95 2.4 10.25-2.85 15.5-1.05 1.1-4.35 3.35-2.45 1.75-3.05 3.05 0-.55.6-1.3 3.25-6.75 4.15-10.4 1.5-6.25-.05-13.6.8 2.15 1.25 5.1.5 3.35.2 5.9-.55 4.35-2.9 8.75l-2.3 3.7 1.7-1.8q3.3-3.05 5.3-7.6 1.05-2.5.9-8.2-.15-6.55-2.15-10.7m11.2 16.25q.9 5.9-1.3 9.85.75-4.9 0-9.15-.6-3.5-2.35-7.05 1.25 3.8.4 6.95-.95 3.45-4.15 5.15 3.15-2.05 2.9-8.7-.1-2.9-1.15-7.7 4.6 4.05 5.65 10.65m3.1 18.35Q52.4 46.3 52.5 41.8q1.6 6.05-1.1 12.5-2.65 6.4-7.55 8.55 2.8-1.35 5.8-9.2m-2.9-29.15q1.8 1.8 3.15 4.5 2.95 5.95 1.1 14.8-1.8 8.55-6.85 14.45 4.3-5.65 5.45-15.35.6-5.5.1-9.15.2 1.9-.2 4.1-.8 4.55-3.5 6.65 2.9-3.25 2.45-9.45-.3-4.2-1.45-6.9l-1.75-4.9zm-19.1.05q-1.35 8.35.4 15.1Q25.1 34.1 26.5 24.8q1.3-8.6 4.45-11.5-2.25 4.8-3.3 11.25m-3.1-.6v-.05q-.7 2.25-.95 6.65-.25 5.9 1.25 9.1l2.65 5.25q.85 1.8.85 2.9-.15-1.05-2.9-5-2.65-3.9-2.9-6.15-.3-2.9.4-7.25l.05-.2q-.95 3.75-1.05 6.2-.15 3.65 1.7 10.2-4.35-6.5-3.2-13 .45-2.45 1.75-5.35 1.35-2.9 2.65-4.3zm-6.7-6q-2.8 2.7-4.65 6.35-5.95 11.45-1.4 29.15-1.75-3.65-2.6-7.25-1-4.25-.5-7.5-1.65 7.8.55 14.05 1.55 4.35 5.6 8.95-3.65-2.2-6.2-6.55l1.1 3.45q1.5 4.3 5.6 9.7l-3.5-3.75q-2.4-3-5.35-7.8-3.65-5.95-3.2-14.7.2-3.7 1.1-7.6.8-4.5 3.25-8.45-1.6 4.2-1.1 6.4 1.75-6.4 6.2-11.6 4.35-5.05 7.85-5.1zm2.05 5.75q-3.05 10.95.3 18.65-2.15-2.4-2.6-8.25-.3-3.55.4-6.3l-.2.15q-1.75 1.4-3 6.55-1.25 5.1-.8 9.2l-1.3-4.75q-.4-2.35.15-5.15 1.2-6.15 6.9-9.85z"/><path fill="#b14015" fill-opacity=".6" d="M56.55 33.15q.8 2.9 1.15 5.9 1.1 9.7-2.5 17.3-2.65 5.55-7.05 10.2l.4-.25q-1.45 1.55-2.2 3.55-1 2.6.45 3.85.4.3 4.55 2.8 1.45.85 2.15 1.55l.05-.1.35.35q.35.45.35.95-.15 1.05-2.8 1.8-2.5.75-2.4 1.1l.75.6q.6.45.4 1.15.05-.45-.65-.9l-1.1-.6q-1.1-.7 2.05-1.6 3.7-1.05 3-2.1l-2.6-1.55.8.85q.5.95-.25 1.65l-2.65.7q-2 .35-1.85.85l.95 1.5q.45.8-.25 1.55-.95.95-3.3 1.45l1.95-1.05q1-.75 1-1.1l-1-1.6q-.95-1.25-.6-1.9.2-.4 1.6-.8l1.95-.75Q50 78 49.2 77l-1.65-1.6.3.05-2.2-1.55q-1.45-1.5-1.15-3.05l.25-.8-.25.3q-.75 1.3-.25 2.85.5 1.45 2.95 3.35l1.95 1.75-2.7-1.85q-2.55-1.7-3.3-3.55-.95-2.5 4-7.75 6.1-6.45 7.5-11.25 1.65-5.85 1.9-7.85.75-5.9-.7-15.15zm-2.9-1.35q1.55 5.3 1.8 10.25.45 8.75-3.2 14.7-2.95 4.8-5.35 7.8l-3.5 3.75q4.2-5.5 5.55-9.7 2.65-7.65 3.95-16t.15-10.4zm-39.4 38.55-.45-.6q1 2.5-.9 4.5l-1.65 1.15h.05L9.65 77q-.8 1-.05 1.5l1.95.75q1.4.4 1.6.8.3.65-.6 1.9l-1 1.6q0 .35.95 1.1l2 1.05q-2.45-.55-3.3-1.45-.7-.75-.25-1.55l.95-1.5q.15-.5-1.85-.85l-2.65-.7q-.7-.7-.2-1.65l.7-.8q-1.6.85-2.45 1.4-1 1.15 2.9 2.2 3.15.9 2.05 1.6l-1.1.6q-.75.45-.7.9-.15-.7.45-1.15l.7-.6q.15-.35-2.35-1.1-2.7-.75-2.8-1.8 0-.5.35-.95l.05-.05q.7-.95 2.5-1.95l4.4-2.6q1.5-1.25.5-3.85-.7-2-2.2-3.55l.45.25q-4.45-4.65-7.1-10.2-3.6-7.6-2.5-17.3L2.9 30.9q-1.45 9.25-.7 15.15.25 2 1.9 7.85 1.4 4.8 7.5 11.25 4.95 5.25 4 7.75-.75 1.85-3.3 3.55L9.6 78.3q-.15-.15 1.95-1.75 2.45-1.9 2.95-3.35.55-1.55-.25-2.85"/><path fill="#f0dfbb" fill-opacity=".498" d="M11.35 16.1q.95-.75 3.35-1.9l2.85-1.25q2.15 4.45 17.75 7.5 14.9 2.9 18 .95-2.15 2.9-17.2 1.15-15.35-1.8-24.75-6.45"/></g></defs></svg>