<?xml version="1.0" encoding="UTF-8" standalone="no"?>
<svg xmlns:ffdec="https://www.free-decompiler.com/flash" xmlns:xlink="http://www.w3.org/1999/xlink" ffdec:objectType="frame" height="90.1px" width="110.6px" xmlns="http://www.w3.org/2000/svg">
  <g transform="matrix(1.0, 0.0, 0.0, 1.0, 31.6, 30.6)">
    <use ffdec:characterId="1" height="90.1" transform="matrix(1.0, 0.0, 0.0, 1.0, -31.6, -30.6)" width="110.6" xlink:href="#shape0"/>
  </g>
  <defs>
    <g id="shape0" transform="matrix(1.0, 0.0, 0.0, 1.0, 31.6, 30.6)">
      <path d="M23.3 -30.6 Q39.35 -30.8 45.15 -17.05 48.1 -10.15 47.8 -3.2 54.2 8.8 65.25 11.8 70.75 13.3 75.0 12.4 70.35 14.35 64.25 13.5 61.7 13.15 59.35 12.25 62.25 13.85 64.25 15.75 L64.45 15.95 Q67.05 17.1 73.15 17.35 L79.0 17.3 Q74.65 19.7 68.1 19.55 L68.0 19.55 Q79.0 25.85 78.8 36.35 78.75 41.65 76.4 45.6 77.2 42.25 76.7 37.8 75.65 29.0 69.0 23.8 L69.15 25.25 Q69.45 29.25 67.7 32.2 67.9 29.7 67.2 26.65 66.65 24.35 65.75 22.55 62.65 22.35 58.65 20.7 62.0 24.85 61.85 31.9 L61.85 32.25 Q62.75 40.45 68.8 44.55 71.9 46.7 74.8 47.1 71.6 47.8 67.6 45.95 63.7 44.15 60.7 40.3 L60.1 42.3 60.4 39.9 Q57.8 36.3 55.95 31.05 L55.95 31.15 Q57.75 38.2 57.4 41.4 56.95 45.2 54.65 48.35 53.5 49.9 52.4 50.7 53.8 48.85 54.35 45.2 55.45 37.85 51.2 28.7 50.75 30.9 49.7 32.35 50.05 33.95 49.95 35.85 L51.9 36.4 49.9 36.3 49.6 38.35 49.5 38.85 49.4 39.35 Q48.95 48.6 53.1 54.2 55.25 57.05 57.5 58.0 54.85 57.75 52.0 55.2 49.35 52.8 47.75 49.1 47.95 53.85 46.95 57.15 L45.9 59.5 Q46.5 55.95 46.25 51.6 46.0 47.45 44.95 44.4 44.8 49.05 45.3 53.5 43.75 47.15 43.5 41.25 42.65 39.9 41.6 38.9 L37.6 34.8 Q35.45 32.35 33.85 30.1 34.1 33.35 35.95 36.45 L37.6 39.1 Q40.05 40.5 42.4 40.4 L38.45 40.6 Q41.65 44.45 42.25 50.55 42.55 53.6 42.2 55.9 42.15 53.75 41.0 50.5 38.7 44.15 33.4 38.7 L33.05 38.5 30.5 36.35 Q30.5 44.55 35.65 52.2 38.3 56.05 40.9 58.2 36.9 56.9 32.75 51.4 24.45 40.4 23.7 19.6 22.95 40.4 14.65 51.4 10.5 56.9 6.5 58.2 9.1 56.05 11.75 52.2 16.9 44.55 16.9 36.35 L14.35 38.5 14.0 38.7 Q8.7 44.15 6.4 50.5 5.25 53.75 5.2 55.9 4.85 53.6 5.15 50.55 5.75 44.45 8.95 40.6 L5.0 40.4 Q7.35 40.5 9.8 39.1 L11.45 36.45 Q13.3 33.35 13.55 30.1 L9.8 34.8 5.8 38.9 Q4.75 39.9 3.9 41.25 3.65 47.15 2.1 53.5 2.6 49.05 2.45 44.4 1.4 47.45 1.15 51.6 0.9 55.95 1.5 59.5 0.95 58.8 0.45 57.15 -0.55 53.85 -0.35 49.1 -1.95 52.8 -4.6 55.2 -7.45 57.75 -10.1 58.0 -7.85 57.05 -5.7 54.2 -1.55 48.6 -2.0 39.35 L-2.1 38.85 -2.2 38.35 -2.5 36.3 -4.5 36.4 -2.55 35.85 Q-2.65 33.95 -2.3 32.35 -3.35 30.9 -3.8 28.7 -8.05 37.85 -6.95 45.2 -6.4 48.85 -5.0 50.7 -6.1 49.9 -7.25 48.35 -9.55 45.2 -10.0 41.4 -10.35 38.2 -8.55 31.15 L-8.55 31.05 Q-10.4 36.3 -13.0 39.9 L-12.7 42.3 -13.3 40.3 Q-16.3 44.15 -20.2 45.95 -24.2 47.8 -27.4 47.1 -24.5 46.7 -21.4 44.55 -15.35 40.45 -14.45 32.25 L-14.45 31.9 Q-14.6 24.85 -11.25 20.7 -15.25 22.35 -18.35 22.55 -19.25 24.35 -19.8 26.65 -20.5 29.7 -20.3 32.2 -22.05 29.25 -21.75 25.25 L-21.6 23.8 Q-28.25 29.0 -29.3 37.8 -29.8 42.25 -29.0 45.6 -31.35 41.65 -31.4 36.35 -31.6 25.85 -20.6 19.55 L-20.7 19.55 Q-27.25 19.7 -31.6 17.3 L-25.75 17.35 Q-19.65 17.1 -17.05 15.95 L-16.85 15.75 Q-14.85 13.85 -11.95 12.25 -14.3 13.15 -16.85 13.5 -22.95 14.35 -27.6 12.4 -23.35 13.3 -17.85 11.8 -6.8 8.8 -0.4 -3.2 -0.85 -9.85 1.8 -16.65 7.2 -30.35 23.3 -30.6 M44.0 32.45 L44.4 29.65 38.8 23.1 Q34.3 17.05 33.6 9.7 34.15 24.1 43.1 31.7 L44.0 32.45 M43.5 36.0 L43.75 34.45 43.15 34.2 40.5 32.75 41.55 33.8 Q42.75 35.1 43.5 36.7 L43.5 36.0 M4.25 34.2 L3.65 34.45 3.9 36.0 3.95 36.7 Q4.65 35.1 5.85 33.8 L6.95 32.75 4.25 34.2 M13.8 9.7 Q13.1 17.05 8.6 23.1 L3.0 29.65 3.4 32.45 4.3 31.7 Q13.25 24.1 13.8 9.7" fill="url(#gradient0)" fill-rule="evenodd" stroke="none"/>
      <path d="M66.65 18.4 L68.4 18.55 Q74.6 19.0 78.65 17.35 L78.9 17.3 79.0 17.3 Q74.65 19.7 68.1 19.55 L68.0 19.55 67.4 19.55 65.15 19.35 Q66.85 21.75 67.5 25.0 68.2 28.45 67.75 31.35 67.8 29.2 67.2 26.65 66.65 24.35 65.75 22.55 62.65 22.35 58.65 20.7 L58.15 20.45 Q49.65 16.6 44.4 7.95 49.65 14.8 57.65 18.55 61.7 20.45 64.7 20.9 L62.85 18.95 Q52.8 16.7 44.1 6.6 51.45 13.7 59.4 16.6 54.0 13.25 52.1 11.35 47.9 7.2 44.4 -1.1 47.8 5.95 53.5 10.75 56.35 13.15 58.5 14.1 61.85 15.55 64.05 17.95 L66.65 18.4 M68.5 21.95 Q77.0 28.35 77.5 37.55 77.8 41.9 76.5 45.1 77.15 41.9 76.7 37.8 75.65 29.0 69.0 23.8 L68.5 21.95 M75.0 12.4 Q70.35 14.35 64.25 13.5 61.7 13.15 59.35 12.25 L58.55 11.9 Q50.3 8.25 45.0 -2.4 52.75 10.3 64.6 12.65 70.45 13.8 74.75 12.45 L75.0 12.4 M48.8 29.8 L48.05 28.65 Q49.9 21.3 44.4 13.65 L40.4 9.15 38.5 7.5 Q48.2 13.95 49.45 22.55 50.1 26.85 48.8 29.8 M60.45 37.1 L60.25 34.65 Q59.6 28.1 56.45 24.2 57.6 31.9 60.45 37.1 M54.5 22.2 L54.4 22.1 52.4 20.4 Q52.3 24.65 53.5 29.75 L55.9 38.5 Q56.9 41.95 54.75 46.6 L52.95 49.9 Q53.9 48.1 54.35 45.2 55.45 37.85 51.2 28.7 L51.35 27.95 Q52.25 22.7 49.65 17.8 42.5 10.7 39.9 2.9 43.0 8.75 46.65 13.05 49.45 16.3 52.0 18.0 54.7 19.8 57.9 22.9 59.6 25.05 60.35 29.75 61.05 33.85 60.75 37.65 L60.5 40.0 60.4 39.9 Q57.8 36.3 55.95 31.05 L55.6 29.8 Q54.2 24.0 54.5 22.2 M45.35 23.6 Q44.65 19.85 41.3 15.0 L36.9 9.5 Q44.05 14.1 46.0 20.95 46.95 24.4 46.5 26.95 L45.5 25.8 45.35 23.6 M44.0 32.45 L44.4 29.65 38.8 23.1 Q34.3 17.05 33.6 9.7 36.35 17.0 42.0 24.45 L47.1 30.4 Q48.45 32.85 48.85 35.45 L48.9 35.75 48.95 36.15 Q49.1 38.0 48.75 39.95 48.5 41.7 47.9 43.0 L48.35 39.85 Q48.5 37.75 48.15 35.95 L47.15 35.7 Q46.65 40.3 47.25 44.15 48.15 49.55 51.25 53.35 54.0 56.7 57.05 57.8 L57.4 57.95 57.5 58.0 Q54.85 57.75 52.0 55.2 49.35 52.8 47.75 49.1 L46.45 45.35 Q47.45 49.7 46.8 54.9 L45.95 59.3 Q46.5 55.8 46.25 51.6 46.0 47.45 44.95 44.4 L45.35 38.8 46.1 35.4 44.85 34.95 44.45 36.75 Q44.15 39.5 44.2 42.5 44.2 47.6 45.3 53.25 L45.3 53.5 Q43.75 47.15 43.5 41.25 42.65 39.9 41.6 38.9 L37.6 34.8 Q35.45 32.35 33.85 30.1 32.25 27.8 31.2 25.7 L30.7 19.1 30.5 9.2 Q31.35 24.8 41.65 32.1 L43.9 33.55 45.0 34.15 46.25 34.75 47.2 35.15 48.05 35.5 47.9 35.0 47.4 33.6 47.25 34.65 46.35 34.1 46.7 32.35 46.2 31.6 45.65 31.0 45.15 33.3 44.0 32.45 M43.5 36.0 L43.75 34.45 43.15 34.2 40.5 32.75 Q35.45 29.45 32.7 23.85 35.55 30.2 39.75 34.85 41.85 37.25 43.45 38.3 L43.5 36.7 43.5 36.0 M61.15 38.35 Q63.5 42.15 66.85 44.4 70.75 47.05 74.3 47.05 L74.7 47.1 74.8 47.1 Q71.6 47.8 67.6 45.95 63.7 44.15 60.7 40.3 L61.15 38.35 M28.25 21.05 Q29.7 27.45 31.9 30.5 32.35 33.1 33.0 34.95 28.0 28.4 27.2 15.3 L28.25 21.05 M35.8 39.9 L37.55 41.75 Q40.4 45.35 41.55 50.35 42.1 52.9 42.15 54.9 41.9 53.05 41.0 50.5 39.2 45.6 35.65 41.2 L33.4 38.7 33.05 38.5 30.5 36.35 Q24.6 30.05 25.1 15.1 25.55 32.0 34.0 37.9 38.25 40.85 42.4 40.4 L38.45 40.6 35.8 39.9 M23.7 19.6 Q25.85 39.75 33.55 50.95 37.4 56.5 40.75 58.1 L40.9 58.2 Q36.9 56.9 32.75 51.4 24.45 40.4 23.7 19.6" fill="#b26958" fill-opacity="0.69411767" fill-rule="evenodd" stroke="none"/>
      <path d="M7.0 9.15 Q4.75 11.3 3.0 13.65 -2.5 21.3 -0.65 28.65 L-1.4 29.8 Q-2.7 26.85 -2.05 22.55 -0.8 13.95 8.9 7.5 L7.0 9.15 M2.05 23.6 Q6.4 19.9 9.7 13.45 L12.05 7.8 Q11.55 12.55 7.9 18.2 5.7 21.6 1.9 25.8 L0.9 26.95 Q0.45 24.4 1.4 20.95 3.35 14.1 10.5 9.5 L6.1 15.0 Q2.75 19.85 2.05 23.6 M19.15 21.05 L20.2 15.3 Q19.4 28.4 14.4 34.95 L12.4 37.15 Q13.65 35.75 14.6 32.05 L15.3 28.6 14.65 29.65 13.4 31.1 13.55 30.1 9.8 34.8 5.8 38.9 Q4.75 39.9 3.9 41.25 3.65 47.15 2.1 53.5 L2.1 53.25 Q3.2 47.6 3.2 42.5 3.25 39.5 2.95 36.75 L2.55 34.95 1.3 35.4 2.05 38.8 2.45 44.4 Q1.4 47.45 1.15 51.6 0.9 55.8 1.45 59.3 0.95 57.5 0.6 54.9 -0.05 49.7 0.95 45.35 L-0.35 49.1 Q-1.95 52.8 -4.6 55.2 -7.45 57.75 -10.1 58.0 L-10.0 57.95 -9.65 57.8 Q-6.6 56.7 -3.85 53.35 -0.75 49.55 0.15 44.15 0.75 40.3 0.25 35.7 L-0.75 35.95 Q-1.1 37.75 -0.95 39.85 L-0.5 43.0 Q-1.1 41.7 -1.35 39.95 -1.7 38.0 -1.55 36.15 L-1.5 35.75 -1.45 35.45 Q-1.05 32.85 0.3 30.4 2.55 28.15 5.4 24.45 11.05 17.0 13.8 9.7 13.1 17.05 8.6 23.1 L3.0 29.65 3.4 32.45 2.25 33.3 1.75 31.0 1.2 31.6 0.7 32.35 1.05 34.1 0.15 34.65 0.0 33.6 -0.5 35.0 -0.65 35.5 0.2 35.15 1.15 34.75 2.4 34.15 3.5 33.55 5.75 32.1 Q16.05 24.8 16.9 9.2 L16.7 19.1 16.2 25.7 15.5 30.5 Q17.7 27.45 19.15 21.05 M7.5 2.9 Q4.9 10.7 -2.25 17.8 -4.85 22.7 -3.95 27.95 L-3.8 28.7 Q-8.05 37.85 -6.95 45.2 -6.5 48.1 -5.55 49.9 L-7.35 46.6 Q-9.5 41.95 -8.5 38.5 L-6.1 29.75 Q-4.9 24.65 -5.0 20.4 L-7.0 22.1 -7.1 22.2 Q-6.8 24.0 -8.2 29.8 L-8.55 31.05 Q-10.4 36.3 -13.0 39.9 L-13.1 40.0 -13.35 37.65 Q-13.65 33.85 -12.95 29.75 -12.2 25.05 -10.5 22.9 -7.3 19.8 -4.6 18.0 -2.05 16.3 0.75 13.05 4.4 8.75 7.5 2.9 M3.65 34.45 L3.9 36.0 3.9 36.7 3.95 38.3 Q5.55 37.25 7.65 34.85 11.85 30.2 14.7 23.85 11.95 29.45 6.9 32.75 L4.25 34.2 3.65 34.45 M5.0 40.4 Q9.15 40.85 13.4 37.9 21.85 32.0 22.3 15.1 22.8 30.05 16.9 36.35 L14.35 38.5 14.0 38.7 11.75 41.2 Q8.2 45.6 6.4 50.5 5.5 53.05 5.25 54.9 5.3 52.9 5.85 50.35 7.0 45.35 9.85 41.75 L11.6 39.9 8.95 40.6 5.0 40.4 M14.65 51.4 Q10.5 56.9 6.5 58.2 L6.65 58.1 Q10.0 56.5 13.85 50.95 21.55 39.75 23.7 19.6 22.95 40.4 14.65 51.4 M-21.1 21.95 L-21.6 23.8 Q-28.25 29.0 -29.3 37.8 -29.75 41.9 -29.1 45.1 -30.4 41.9 -30.1 37.55 -29.6 28.35 -21.1 21.95 M-10.75 20.45 L-11.25 20.7 Q-15.25 22.35 -18.35 22.55 -19.25 24.35 -19.8 26.65 -20.4 29.2 -20.35 31.35 -20.8 28.45 -20.1 25.0 -19.45 21.75 -17.75 19.35 L-20.0 19.55 -20.6 19.55 -20.7 19.55 Q-27.25 19.7 -31.6 17.3 L-31.5 17.3 -31.25 17.35 Q-27.2 19.0 -21.0 18.55 L-19.25 18.4 -16.65 17.95 Q-14.45 15.55 -11.1 14.1 -8.95 13.15 -6.1 10.75 -0.4 5.95 3.0 -1.1 -0.5 7.2 -4.7 11.35 -6.6 13.25 -12.0 16.6 -4.05 13.7 3.3 6.6 -5.4 16.7 -15.45 18.95 L-17.3 20.9 Q-14.3 20.45 -10.25 18.55 -2.25 14.8 3.0 7.95 -2.25 16.6 -10.75 20.45 M-11.15 11.9 L-11.95 12.25 Q-14.3 13.15 -16.85 13.5 -22.95 14.35 -27.6 12.4 L-27.35 12.45 Q-23.05 13.8 -17.2 12.65 -5.35 10.3 2.4 -2.4 -2.9 8.25 -11.15 11.9 M-26.9 47.05 Q-23.35 47.05 -19.45 44.4 -16.1 42.15 -13.75 38.35 L-13.3 40.3 Q-16.3 44.15 -20.2 45.95 -24.2 47.8 -27.4 47.1 L-27.3 47.1 -26.9 47.05 M-13.05 37.1 Q-10.2 31.9 -9.05 24.2 -12.2 28.1 -12.85 34.65 L-13.05 37.1" fill="#b26958" fill-opacity="0.69411767" fill-rule="evenodd" stroke="none"/>
      <path d="M64.05 20.1 L64.7 20.9 65.75 22.55 64.55 22.45 63.6 21.1 63.25 20.6 62.5 19.75 60.75 19.25 Q50.8 16.2 44.1 6.6 52.1 15.9 61.3 18.55 60.3 17.7 59.2 17.15 56.75 15.95 54.75 14.5 46.6 8.7 44.4 -1.1 47.9 7.2 52.1 11.35 54.0 13.25 59.4 16.6 L61.3 17.8 62.85 18.95 65.15 19.35 67.4 19.55 68.0 19.55 69.35 20.35 67.9 20.5 65.8 20.4 64.05 20.1 M59.35 12.25 L61.45 13.55 Q58.75 13.15 55.3 10.95 48.5 6.6 45.0 -2.4 50.3 8.25 58.55 11.9 L59.35 12.25 M50.5 19.6 L48.7 17.6 Q41.75 9.8 40.0 3.2 42.65 10.85 49.65 17.8 L52.4 20.4 53.7 21.55 54.4 22.1 54.5 22.2 56.3 24.0 56.45 24.2 Q59.6 28.1 60.25 34.65 L60.45 37.1 60.4 39.9 59.65 38.8 59.6 35.75 59.6 35.4 Q59.3 30.1 57.6 27.4 L56.9 26.6 54.5 24.05 53.75 23.2 52.4 21.7 50.5 19.6 M58.65 20.7 L59.5 21.9 Q57.1 20.95 54.2 19.0 47.6 14.6 44.5 8.15 49.7 16.6 58.15 20.45 L58.65 20.7 M44.4 29.65 L45.65 31.0 46.2 31.6 46.7 32.35 47.4 33.6 47.9 35.0 48.05 35.5 48.15 35.95 48.95 36.15 49.9 36.3 49.8 37.05 49.0 37.0 48.3 36.9 48.35 39.85 47.9 43.0 47.5 44.2 Q48.1 41.4 47.75 38.15 L47.6 36.8 47.05 36.7 45.9 36.4 44.6 36.0 43.85 35.7 43.6 35.6 43.75 34.45 44.85 34.95 46.1 35.4 47.15 35.7 47.4 35.8 47.4 35.75 47.2 35.15 47.2 35.1 47.0 34.5 46.5 33.35 45.5 31.7 44.3 30.5 44.4 29.65 M42.65 35.2 Q39.5 33.75 36.95 31.4 33.2 27.8 30.9 22.15 L30.7 19.1 30.7 18.6 Q31.45 21.35 32.6 23.7 L32.7 23.85 Q35.45 29.45 40.5 32.75 L41.55 33.8 42.65 35.2 M43.5 36.7 L43.45 38.3 43.5 41.25 42.65 40.05 42.75 37.8 42.8 37.2 43.05 35.85 43.5 36.7 M45.35 38.8 Q45.65 42.25 46.4 45.1 L46.45 45.35 47.75 49.1 47.8 50.7 47.1 49.35 47.0 49.1 Q45.45 45.75 45.05 42.75 L45.35 38.8 M45.5 25.8 Q41.7 21.6 39.5 18.2 35.85 12.55 35.35 7.8 L37.7 13.45 Q41.0 19.9 45.35 23.6 L45.5 25.8 M33.4 38.7 L35.8 39.9 38.45 40.6 39.45 41.95 37.55 41.75 35.65 41.2 33.4 38.7 M32.75 29.65 L32.1 28.6 32.8 32.05 Q33.75 35.75 35.0 37.15 L33.0 34.95 Q32.35 33.1 31.9 30.5 L31.2 25.7 Q32.25 27.8 33.85 30.1 L34.0 31.1 Q33.45 30.8 32.75 29.65 M30.55 37.85 Q23.9 31.15 25.1 15.1 24.6 30.05 30.5 36.35 L30.55 37.85" fill="#995749" fill-opacity="0.69411767" fill-rule="evenodd" stroke="none"/>
      <path d="M16.8 37.85 L16.85 36.35 Q22.75 30.05 22.25 15.1 23.45 31.15 16.8 37.85 M2.0 38.8 L2.3 42.75 Q1.9 45.75 0.35 49.1 L0.25 49.35 -0.45 50.7 -0.4 49.1 0.9 45.35 0.95 45.1 Q1.7 42.25 2.0 38.8 M7.9 41.95 L8.9 40.6 11.55 39.9 Q12.75 39.4 13.95 38.7 L11.7 41.2 9.8 41.75 7.9 41.95 M3.85 36.7 L4.3 35.85 4.55 37.2 4.6 37.8 4.7 40.05 3.85 41.25 3.9 38.3 3.85 36.7 M2.95 29.65 L3.05 30.5 1.85 31.7 0.85 33.35 0.35 34.5 0.15 35.1 0.15 35.15 -0.05 35.75 -0.05 35.8 0.2 35.7 1.25 35.4 2.5 34.95 3.6 34.45 3.75 35.6 3.5 35.7 2.75 36.0 1.45 36.4 0.3 36.7 -0.25 36.8 -0.4 38.15 Q-0.75 41.4 -0.15 44.2 L-0.55 43.0 -1.0 39.85 -0.95 36.9 -1.65 37.0 -2.45 37.05 -2.55 36.3 -1.6 36.15 -0.8 35.95 -0.7 35.5 -0.55 35.0 -0.05 33.6 0.65 32.35 1.15 31.6 1.7 31.0 2.95 29.65 M14.55 32.05 L15.25 28.6 14.6 29.65 13.35 31.1 13.5 30.1 Q15.1 27.8 16.15 25.7 L15.45 30.5 Q15.0 33.1 14.35 34.95 L12.35 37.15 Q13.6 35.75 14.55 32.05 M14.75 23.7 Q15.9 21.35 16.65 18.6 L16.65 19.1 16.45 22.15 Q14.15 27.8 10.4 31.4 7.85 33.75 4.7 35.2 L5.8 33.8 6.85 32.75 Q11.9 29.45 14.65 23.85 L14.75 23.7 M2.0 23.6 Q6.35 19.9 9.65 13.45 L12.0 7.8 Q11.5 12.55 7.85 18.2 5.65 21.6 1.85 25.8 1.8 24.75 2.0 23.6 M-12.0 12.25 L-11.2 11.9 Q-2.95 8.25 2.35 -2.4 -1.15 6.6 -7.95 10.95 -11.4 13.15 -14.1 13.55 L-12.0 12.25 M-12.05 16.6 Q-6.65 13.25 -4.75 11.35 -0.55 7.2 2.95 -1.1 0.75 8.7 -7.4 14.5 -9.4 15.95 -11.85 17.15 -12.95 17.7 -13.95 18.55 -4.75 15.9 3.25 6.6 -3.45 16.2 -13.4 19.25 L-15.15 19.75 -15.9 20.6 -16.25 21.1 -17.2 22.45 -18.4 22.55 -17.35 20.9 -16.7 20.1 -18.45 20.4 -20.55 20.5 -22.0 20.35 -20.65 19.55 -20.05 19.55 -17.8 19.35 -15.5 18.95 Q-14.8 18.3 -13.95 17.8 L-12.05 16.6 M-10.8 20.45 Q-2.35 16.6 2.85 8.15 -0.25 14.6 -6.85 19.0 -9.75 20.95 -12.15 21.9 L-11.3 20.7 -10.8 20.45 M-7.15 22.2 L-7.05 22.1 -6.35 21.55 -5.05 20.4 -2.3 17.8 Q4.7 10.85 7.35 3.2 5.6 9.8 -1.35 17.6 L-3.15 19.6 -5.05 21.7 -6.4 23.2 -7.15 24.05 -9.55 26.6 -10.25 27.4 Q-11.95 30.1 -12.25 35.4 L-12.25 35.75 -12.3 38.8 -13.05 39.9 -13.1 37.1 -12.9 34.65 Q-12.25 28.1 -9.1 24.2 L-8.95 24.0 -7.15 22.2" fill="#995749" fill-opacity="0.69411767" fill-rule="evenodd" stroke="none"/>
      <path d="M13.55 30.1 L16.2 25.7 Q15.55 31.6 14.4 34.95 L12.0 37.5 9.8 39.1 11.45 36.45 Q13.3 33.35 13.55 30.1" fill="url(#gradient1)" fill-rule="evenodd" stroke="none"/>
      <path d="M1.05 34.1 L1.3 35.4 2.05 38.8 Q1.55 44.85 -0.35 49.1 -1.95 52.8 -4.6 55.2 -7.45 57.75 -10.1 58.0 -7.85 57.05 -5.7 54.2 -1.55 48.6 -2.0 39.35 -1.3 42.05 -0.1 44.2 -0.8 42.35 -0.95 39.85 -1.1 37.75 -0.75 35.95 L-0.5 35.0 Q-0.1 33.55 0.7 32.35 L1.05 34.1" fill="url(#gradient2)" fill-rule="evenodd" stroke="none"/>
      <path d="M14.0 38.7 Q8.7 44.15 6.4 50.5 5.25 53.75 5.2 55.9 4.85 53.6 5.15 50.55 5.75 44.45 8.95 40.6 11.5 40.2 14.0 38.7" fill="url(#gradient3)" fill-rule="evenodd" stroke="none"/>
      <path d="M-20.0 19.55 L-15.45 18.95 Q-17.2 20.4 -18.35 22.55 -19.25 24.35 -19.8 26.65 -20.5 29.7 -20.3 32.2 -22.05 29.25 -21.75 25.25 L-21.6 23.8 Q-21.15 21.55 -20.0 19.55" fill="url(#gradient4)" fill-rule="evenodd" stroke="none"/>
      <path d="M-20.0 19.55 Q-21.15 21.55 -21.6 23.8 -28.25 29.0 -29.3 37.8 -29.8 42.25 -29.0 45.6 -31.35 41.65 -31.4 36.35 -31.6 25.85 -20.6 19.55 L-20.0 19.55" fill="url(#gradient5)" fill-rule="evenodd" stroke="none"/>
      <path d="M-7.1 22.2 L-7.0 22.1 Q-4.4 20.0 -2.25 17.8 -4.85 22.7 -3.95 27.95 L-3.8 28.7 Q-8.05 37.85 -6.95 45.2 -6.4 48.85 -5.0 50.7 -6.1 49.9 -7.25 48.35 -9.55 45.2 -10.0 41.4 -10.35 38.2 -8.55 31.15 L-8.55 31.05 -8.2 29.8 Q-6.8 24.0 -7.1 22.2" fill="url(#gradient6)" fill-rule="evenodd" stroke="none"/>
      <path d="M-7.1 22.2 Q-6.8 24.0 -8.2 29.8 L-8.55 31.05 Q-10.4 36.3 -13.0 39.9 L-12.85 34.65 Q-12.0 26.25 -7.1 22.2" fill="url(#gradient7)" fill-rule="evenodd" stroke="none"/>
      <path d="M-21.4 44.55 Q-15.35 40.45 -14.45 32.25 L-14.3 34.4 Q-14.0 37.6 -13.3 40.3 -16.3 44.15 -20.2 45.95 -24.2 47.8 -27.4 47.1 -24.5 46.7 -21.4 44.55" fill="url(#gradient8)" fill-rule="evenodd" stroke="none"/>
      <path d="M69.0 23.8 L69.15 25.25 Q69.45 29.25 67.7 32.2 67.9 29.7 67.2 26.65 66.65 24.35 65.75 22.55 64.6 20.4 62.85 18.95 L67.4 19.55 Q68.55 21.55 69.0 23.8" fill="url(#gradient9)" fill-rule="evenodd" stroke="none"/>
      <path d="M67.4 19.55 L68.0 19.55 Q79.0 25.85 78.8 36.35 78.75 41.65 76.4 45.6 77.2 42.25 76.7 37.8 75.65 29.0 69.0 23.8 68.55 21.55 67.4 19.55" fill="url(#gradient10)" fill-rule="evenodd" stroke="none"/>
      <path d="M55.95 31.05 L55.95 31.15 Q57.75 38.2 57.4 41.4 56.95 45.2 54.65 48.35 53.5 49.9 52.4 50.7 53.8 48.85 54.35 45.2 55.45 37.85 51.2 28.7 L51.35 27.95 Q52.25 22.7 49.65 17.8 L54.4 22.1 54.5 22.2 Q54.2 24.0 55.6 29.8 L55.95 31.05" fill="url(#gradient11)" fill-rule="evenodd" stroke="none"/>
      <path d="M54.5 22.2 Q59.4 26.25 60.25 34.65 L60.4 39.9 Q57.8 36.3 55.95 31.05 L55.6 29.8 Q54.2 24.0 54.5 22.2" fill="url(#gradient12)" fill-rule="evenodd" stroke="none"/>
      <path d="M46.1 35.4 L46.35 34.1 46.7 32.35 Q47.5 33.55 47.9 35.0 L48.15 35.95 Q48.5 37.75 48.35 39.85 48.2 42.35 47.5 44.2 48.7 42.05 49.4 39.35 48.95 48.6 53.1 54.2 55.25 57.05 57.5 58.0 54.85 57.75 52.0 55.2 49.35 52.8 47.75 49.1 45.85 44.85 45.35 38.8 L46.1 35.4" fill="url(#gradient13)" fill-rule="evenodd" stroke="none"/>
      <path d="M61.85 32.25 Q62.75 40.45 68.8 44.55 71.9 46.7 74.8 47.1 71.6 47.8 67.6 45.95 63.7 44.15 60.7 40.3 61.4 37.6 61.7 34.4 L61.85 32.25" fill="url(#gradient14)" fill-rule="evenodd" stroke="none"/>
      <path d="M37.6 39.1 L35.4 37.5 33.0 34.95 Q31.85 31.6 31.2 25.7 32.25 27.8 33.85 30.1 34.1 33.35 35.95 36.45 L37.6 39.1" fill="url(#gradient15)" fill-rule="evenodd" stroke="none"/>
      <path d="M33.4 38.7 Q35.9 40.2 38.45 40.6 41.65 44.45 42.25 50.55 42.55 53.6 42.2 55.9 42.15 53.75 41.0 50.5 38.7 44.15 33.4 38.7" fill="url(#gradient16)" fill-rule="evenodd" stroke="none"/>
      <path d="M59.25 10.35 Q53.05 7.45 49.75 3.25 54.15 7.45 59.9 10.35 62.8 11.8 64.8 12.4 62.35 11.8 59.25 10.35 M45.8 19.0 Q46.6 19.7 47.1 21.2 47.65 22.75 47.95 23.05 48.7 23.8 50.25 23.35 50.6 21.85 50.0 19.65 51.6 23.65 51.05 27.6 50.8 29.5 50.25 30.65 51.1 25.5 50.4 24.5 49.35 24.95 47.9 24.1 47.8 25.55 47.05 26.25 L47.1 23.9 Q46.9 21.15 45.8 19.0 M46.9 29.15 L43.85 26.0 Q42.0 23.9 41.55 22.15 42.45 23.7 46.55 27.55 48.0 28.9 49.0 31.8 L49.7 34.4 Q48.45 31.1 46.9 29.15 M28.6 28.65 Q27.9 27.0 28.05 24.2 28.7 29.4 31.6 33.8 33.05 35.95 34.35 37.15 L31.05 34.3 Q27.6 30.5 27.3 26.15 L27.7 27.25 Q28.15 28.45 28.6 28.65 M30.15 38.1 L30.95 42.8 Q32.25 48.15 34.45 51.35 33.15 49.75 31.6 47.05 28.7 42.0 27.55 36.9 28.05 38.6 30.1 41.5 29.9 40.1 30.15 38.1 M35.05 23.75 Q38.8 28.6 42.85 32.35 41.35 31.45 39.65 29.95 36.2 26.9 35.05 23.75" fill="#ffffff" fill-opacity="0.49803922" fill-rule="evenodd" stroke="none"/>
      <path d="M60.8 29.1 Q60.0 24.7 58.55 22.1 60.75 24.05 61.25 28.7 L61.3 33.0 60.8 29.1 M18.8 28.65 Q19.25 28.45 19.7 27.25 L20.1 26.15 Q19.8 30.5 16.35 34.3 14.7 36.15 13.05 37.15 L15.8 33.8 Q18.7 29.4 19.35 24.2 19.5 27.0 18.8 28.65 M0.3 21.2 Q0.8 19.7 1.6 19.0 0.5 21.15 0.3 23.9 0.2 25.3 0.35 26.25 -0.4 25.55 -0.5 24.1 -1.95 24.95 -3.0 24.5 -3.7 25.5 -2.85 30.65 -3.4 29.5 -3.65 27.6 -4.2 23.65 -2.6 19.65 -3.2 21.85 -2.85 23.35 -1.3 23.8 -0.55 23.05 -0.25 22.75 0.3 21.2 M0.5 29.15 Q-1.05 31.1 -2.3 34.4 L-1.6 31.8 Q-0.6 28.9 0.85 27.55 4.95 23.7 5.85 22.15 5.4 23.9 3.55 26.0 L0.5 29.15 M16.45 42.8 L17.25 38.1 17.3 41.5 Q19.35 38.6 19.85 36.9 18.7 42.0 15.8 47.05 L12.95 51.35 Q15.15 48.15 16.45 42.8 M7.75 29.95 Q6.05 31.45 4.55 32.35 8.6 28.6 12.35 23.75 11.2 26.9 7.75 29.95 M-17.4 12.4 Q-15.4 11.8 -12.5 10.35 -6.75 7.45 -2.35 3.25 -5.65 7.45 -11.85 10.35 -14.95 11.8 -17.4 12.4 M-13.95 33.0 L-13.9 28.7 Q-13.4 24.05 -11.2 22.1 -12.65 24.7 -13.45 29.1 L-13.95 33.0" fill="#ffffff" fill-opacity="0.49803922" fill-rule="evenodd" stroke="none"/>
    </g>
    <linearGradient gradientTransform="matrix(0.0, -0.0556, 0.055, 0.0, 23.7, 14.45)" gradientUnits="userSpaceOnUse" id="gradient0" spreadMethod="pad" x1="-819.2" x2="819.2">
      <stop offset="0.29411764705882354" stop-color="#faf8c5"/>
      <stop offset="1.0" stop-color="#d27c6b"/>
    </linearGradient>
    <linearGradient gradientTransform="matrix(0.0, -0.0081, 0.0082, 0.0, 12.9, 38.8)" gradientUnits="userSpaceOnUse" id="gradient1" spreadMethod="pad" x1="-819.2" x2="819.2">
      <stop offset="0.0" stop-color="#663d33" stop-opacity="0.0"/>
      <stop offset="0.6352941176470588" stop-color="#663d33" stop-opacity="0.49803922"/>
    </linearGradient>
    <linearGradient gradientTransform="matrix(0.0, -0.0162, 0.0157, 0.0, -4.1, 45.2)" gradientUnits="userSpaceOnUse" id="gradient2" spreadMethod="pad" x1="-819.2" x2="819.2">
      <stop offset="0.0" stop-color="#663d33" stop-opacity="0.0"/>
      <stop offset="0.6352941176470588" stop-color="#663d33" stop-opacity="0.49803922"/>
    </linearGradient>
    <linearGradient gradientTransform="matrix(0.0, -0.0107, 0.0105, 0.0, 9.5, 47.3)" gradientUnits="userSpaceOnUse" id="gradient3" spreadMethod="pad" x1="-819.2" x2="819.2">
      <stop offset="0.0" stop-color="#663d33" stop-opacity="0.0"/>
      <stop offset="0.6352941176470588" stop-color="#663d33" stop-opacity="0.49803922"/>
    </linearGradient>
    <linearGradient gradientTransform="matrix(0.0039, 0.0, 0.0, 0.0081, -18.65, 25.55)" gradientUnits="userSpaceOnUse" id="gradient4" spreadMethod="pad" x1="-819.2" x2="819.2">
      <stop offset="0.0" stop-color="#663d33" stop-opacity="0.0"/>
      <stop offset="0.6352941176470588" stop-color="#663d33" stop-opacity="0.49803922"/>
    </linearGradient>
    <linearGradient gradientTransform="matrix(0.0, -0.016, 0.0159, 0.0, -25.75, 32.6)" gradientUnits="userSpaceOnUse" id="gradient5" spreadMethod="pad" x1="-819.2" x2="819.2">
      <stop offset="0.0" stop-color="#663d33" stop-opacity="0.0"/>
      <stop offset="0.6352941176470588" stop-color="#663d33" stop-opacity="0.49803922"/>
    </linearGradient>
    <linearGradient gradientTransform="matrix(-1.0E-4, -0.0201, 0.0201, -1.0E-4, -6.15, 34.25)" gradientUnits="userSpaceOnUse" id="gradient6" spreadMethod="pad" x1="-819.2" x2="819.2">
      <stop offset="0.0" stop-color="#663d33" stop-opacity="0.0"/>
      <stop offset="0.6352941176470588" stop-color="#663d33" stop-opacity="0.49803922"/>
    </linearGradient>
    <linearGradient gradientTransform="matrix(0.0, -0.0091, 0.0108, 0.0, -11.55, 36.95)" gradientUnits="userSpaceOnUse" id="gradient7" spreadMethod="pad" x1="-819.2" x2="819.2">
      <stop offset="0.0" stop-color="#663d33" stop-opacity="0.0"/>
      <stop offset="0.6352941176470588" stop-color="#663d33" stop-opacity="0.49803922"/>
    </linearGradient>
    <linearGradient gradientTransform="matrix(0.0, -0.0086, 0.0092, 0.0, -20.25, 39.95)" gradientUnits="userSpaceOnUse" id="gradient8" spreadMethod="pad" x1="-819.2" x2="819.2">
      <stop offset="0.0" stop-color="#663d33" stop-opacity="0.0"/>
      <stop offset="0.6352941176470588" stop-color="#663d33" stop-opacity="0.49803922"/>
    </linearGradient>
    <linearGradient gradientTransform="matrix(-0.0039, 0.0, 0.0, 0.0081, 66.05, 25.55)" gradientUnits="userSpaceOnUse" id="gradient9" spreadMethod="pad" x1="-819.2" x2="819.2">
      <stop offset="0.0" stop-color="#663d33" stop-opacity="0.0"/>
      <stop offset="0.6352941176470588" stop-color="#663d33" stop-opacity="0.49803922"/>
    </linearGradient>
    <linearGradient gradientTransform="matrix(0.0, -0.016, -0.0159, 0.0, 73.15, 32.6)" gradientUnits="userSpaceOnUse" id="gradient10" spreadMethod="pad" x1="-819.2" x2="819.2">
      <stop offset="0.0" stop-color="#663d33" stop-opacity="0.0"/>
      <stop offset="0.6352941176470588" stop-color="#663d33" stop-opacity="0.49803922"/>
    </linearGradient>
    <linearGradient gradientTransform="matrix(1.0E-4, -0.0201, -0.0201, -1.0E-4, 53.55, 34.25)" gradientUnits="userSpaceOnUse" id="gradient11" spreadMethod="pad" x1="-819.2" x2="819.2">
      <stop offset="0.0" stop-color="#663d33" stop-opacity="0.0"/>
      <stop offset="0.6352941176470588" stop-color="#663d33" stop-opacity="0.49803922"/>
    </linearGradient>
    <linearGradient gradientTransform="matrix(0.0, -0.0091, -0.0108, 0.0, 58.95, 36.95)" gradientUnits="userSpaceOnUse" id="gradient12" spreadMethod="pad" x1="-819.2" x2="819.2">
      <stop offset="0.0" stop-color="#663d33" stop-opacity="0.0"/>
      <stop offset="0.6352941176470588" stop-color="#663d33" stop-opacity="0.49803922"/>
    </linearGradient>
    <linearGradient gradientTransform="matrix(0.0, -0.0162, -0.0157, 0.0, 51.5, 45.2)" gradientUnits="userSpaceOnUse" id="gradient13" spreadMethod="pad" x1="-819.2" x2="819.2">
      <stop offset="0.0" stop-color="#663d33" stop-opacity="0.0"/>
      <stop offset="0.6352941176470588" stop-color="#663d33" stop-opacity="0.49803922"/>
    </linearGradient>
    <linearGradient gradientTransform="matrix(0.0, -0.0086, -0.0092, 0.0, 67.65, 39.95)" gradientUnits="userSpaceOnUse" id="gradient14" spreadMethod="pad" x1="-819.2" x2="819.2">
      <stop offset="0.0" stop-color="#663d33" stop-opacity="0.0"/>
      <stop offset="0.6352941176470588" stop-color="#663d33" stop-opacity="0.49803922"/>
    </linearGradient>
    <linearGradient gradientTransform="matrix(0.0, -0.0081, -0.0082, 0.0, 34.5, 38.8)" gradientUnits="userSpaceOnUse" id="gradient15" spreadMethod="pad" x1="-819.2" x2="819.2">
      <stop offset="0.0" stop-color="#663d33" stop-opacity="0.0"/>
      <stop offset="0.6352941176470588" stop-color="#663d33" stop-opacity="0.49803922"/>
    </linearGradient>
    <linearGradient gradientTransform="matrix(0.0, -0.0107, -0.0105, 0.0, 37.9, 47.3)" gradientUnits="userSpaceOnUse" id="gradient16" spreadMethod="pad" x1="-819.2" x2="819.2">
      <stop offset="0.0" stop-color="#663d33" stop-opacity="0.0"/>
      <stop offset="0.6352941176470588" stop-color="#663d33" stop-opacity="0.49803922"/>
    </linearGradient>
  </defs>
</svg>
