<svg xmlns="http://www.w3.org/2000/svg" xmlns:ffdec="https://www.free-decompiler.com/flash" xmlns:xlink="http://www.w3.org/1999/xlink" ffdec:objectType="frame" width="48.7" height="30.85"><g transform="translate(1.35 5.95)"><use ffdec:characterId="6" xlink:href="#a" width="47.7" height="28.55" transform="matrix(1.0208 0 0 1.0797 -1.328 -5.944)"/><use ffdec:characterId="7" xlink:href="#b" width="47.7" height="28.55" transform="translate(-.9 -5.8)"/></g><defs><path id="c" fill="#666" fill-rule="evenodd" d="m7.6-5.3 15.75-.85q12.5.2 15.7 1.4 6.75 2.6 7.3 6.05l-6.6 9.35Q33.3 20.2 34 21.25q-.75-.85-1.2-4.05-1.45 1.45-3.2 4.2l-1-2.1-.2-.95-2.7 3.9q-2.05-1.75-3.05-3.85l-1.4 1.95-1.95 2q-1.65-2.6-1.95-4-.25.95-.85 1.6l-1.55 1.25q-.65-1.95-2.35-4.1.15 1.9-1 3.5-.2-1.5-6.9-9.45-6.45-7.55-6.05-9.9.65-2.4 2.9-3.95Q3.5-4.05 7.6-5.3" transform="translate(1.35 6.2)"/><path id="b" fill-opacity=".298" fill-rule="evenodd" d="M2-2.3q1.95-1.35 6.05-2.6l15.75-.85q12.5.2 15.7 1.4 6.75 2.6 7.3 6.05l-6.6 9.35q-6.45 9.55-5.75 10.6-.75-.85-1.2-4.05-1.45 1.45-3.2 4.2l-1-2.1-.2-.95-2.7 3.9Q24.1 20.9 23.1 18.8l-1.4 1.95-1.95 2q-1.65-2.6-1.95-4-.25.95-.85 1.6L15.4 21.6q-.65-1.95-2.35-4.1.15 1.9-1 3.5-.2-1.5-6.9-9.45Q-1.3 4-.9 1.65-.25-.75 2-2.3" transform="translate(.9 5.8)"/><use ffdec:characterId="5" xlink:href="#c" id="a" width="47.7" height="28.55"/></defs></svg>