<svg xmlns="http://www.w3.org/2000/svg" xmlns:ffdec="https://www.free-decompiler.com/flash" xmlns:xlink="http://www.w3.org/1999/xlink" ffdec:objectType="frame" width="69.2" height="56.15"><g transform="translate(7.2 9)"><use ffdec:characterId="10" xlink:href="#a" width="69.2" height="56" transform="translate(-7.2 -9)"/><use ffdec:characterId="4" xlink:href="#b" width="69.2" height="50.6" transform="translate(-7.2 -3.45)"/></g><defs><path id="c" fill="#ccc" fill-rule="evenodd" d="M11.5-3.2q2.65-4 7.3-6.05-2.35 2.5-2.2 5.4.05 1.45 1.2 4.4 2.5-5.45 8.5-8.4 3-1.45 5.5-1.8-2 6.05-1.8 9.6 3.4-3.45 9.55-4.15 3.05-.35 5.45 0l-.1.15q-2.6 2.5-3.5 3.85Q40.7.95 40.2 3q10.25-.25 18.45 5l.35.2q-2.6 1.8-5.05 5.45L52 17q3.15 1.55 4.7 2.45 2.55 1.5 3.9 2.9l.2.2q-6.7 1.6-9 5.65 3.1.1 5.4 1.5l.2.45q-5.15 1.15-5.2 2.2L49 32.1q-1.95.15-3.1 1.6l.7-4.5-1.6.8 1.2-4.3.4-1.55-2.4 1L45 20l-5 .55V17.8l-5 1.8v-3.25l-4.4 2.45-.6-3.05-4.8 3.05-2-2.85v.5q-.2 7.2 1.25 11.75L25 30q-1.75-2.1-3.55-5.8-1.7-3.65-2.45-6.6-.25 6.45 2.9 15.95l.7 2q-6.15-6.75-9.9-13.75-1.85 6.1-.7 10.35-2.2-2-3.25-7.8-2.9 9.15-2.15 22l-1.4-2.1Q1.7 38.6.4 30l-1.65 2.65-.65 1.4q-1.75 2.35-2.1 5.3l.85-8.15q.7-3.05 2.25-5.35-2.4.35-4.05 1.55-1.45 1.05-3.45 3.8l1.65-4.05q2.6-5.9 7.35-8.75-1.15.2-2.7.95-3.1 1.55-5.1 4.4l1.1-2.65q2.7-5.9 6.9-9.3 2.05-1.7 3.6-2.2L1.05 7.3Q-.9 6.45-3.8 6.95.05 4.3 3.1 3.5l6.9-.35Q8.95.55 11.5-3.2" transform="translate(8.4 9.65)"/><use ffdec:characterId="2" xlink:href="#c" id="a" width="69.2" height="56"/><g id="b" fill-rule="evenodd"><path fill="#fff" fill-opacity=".498" d="m56 21.8-4.6.2q-.85-2.1-.4-4-2.45.6-4.8 2.2-.6-2.9 0-5.8-2.6 1.6-4.6 4-1.65-2.2-2-4.55-3.2 1.45-4.2 4.35-1.75-2.3-2.2-4.75.65 1.7 1.9 3.25.15-2.35 4.9-5.1.35 2.7 2.4 5.4 1.95-3.05 5-4.55-.85 3 .2 6.15 2.3-1.65 4.6-2-.45 2.2.4 4.4 1.85-.1 3.4.8"/><path fill="#afafaf" d="m67.05 12.05.35.2q-2.6 1.8-5.05 5.45l-.95 1.7q-2 2.35-2.05 3.4.05-4.3 1.1-6.35 1.05-2.1 2.15-3-.35-1-7.4.6 3.4-2 7.1-2.2zM69 26.4l.2.2q-6.7 1.6-9 5.65 3.1.1 5.4 1.5l.2.45q-5.15 1.15-5.2 2.2l-3.2-.25q-1.95.15-3.1 1.6l.7-4.5-1.6.8 1.2-4.3 2.6-1.95q5.85-1.8 10.3-1.55zM50.3.8q1.7-.8 3-.8-2.6 2.5-3.5 3.85-.7 1.15-1.2 3.2l-4.5.85-.9.3q3-5.5 7.1-7.4M31.6 20.5q-.2 7.2 1.25 11.75-4.45-8.6-3.65-16.65l1 2.75zm-12.4-8.05L24.5 18 20 15.05l-.2 4.4q.2 4.5 1.3 6.6-1.85 6.1-.7 10.35-2.2-2-3.25-7.8-2.9 9.15-2.15 22l-1.4-2.1q-1.6-3.6-1.95-8.15-.5-6.2 2.3-12.7l.65 6q1.1-6.05 2.7-10l1.3-8.6zm-4.8 7.35q-1.05.2-3.1 1.25L9 22.45q-1.15.2-2.7.95-3.1 1.55-5.1 4.4l1.1-2.65q1.55-2.85 3.85-4.3 3.55-2.3 8.25-1.05m-4.95 8.1Q7.7 29.15 7.6 29.7l-.1.2q-2.4.35-4.05 1.55Q2 32.5 0 35.25l1.65-4.05q3.2-4.9 11.95-5.2zm17.95-6.25q-.25 6.45 2.9 15.95-2.1-2.25-4.4-7.2-2.3-5-1.3-11.9z"/></g></defs></svg>