<svg xmlns="http://www.w3.org/2000/svg" xmlns:ffdec="https://www.free-decompiler.com/flash" xmlns:xlink="http://www.w3.org/1999/xlink" ffdec:objectType="frame" width="58.35" height="37.15"><use ffdec:characterId="6" xlink:href="#a" width="58.35" height="37.15"/><defs><g id="a" fill-rule="evenodd"><path fill="#75dbb1" d="M53.9 6.6q3.7 2.85 4.1 5.5.85 2.9-.4 6.3-2.45 6.8-12.75 9.35-2.5 1.25-3.4 3.65-.9 2.35.1 5.05l-1.7-1.4q-1.05-.75-1.1-2.05l-2.25 2.15-.5-.7q-.6-.75-1.25-.95-.3 1.4-2.4 2.25l-.8-1.35-.75 1.05-1.65 1.7-1.7-1.75-.7-1-.8 1.75q-2.1-1.25-2.4-2.65-.65.2-1.25.95l-.5.7L19.55 33q-.05 1.45-.95 2.25l-1.85 1.2q.75-1.75.15-4.05-.75-2.95-3.45-4.65-4.7-1.75-6.8-2.7-3.55-1.55-4.95-3.9l-1-2.25q-.85-2.65-.7-5l.25-1.6.05-.2Q2.5 3.95 12 1.7L20.85.55l9.1-.55Q46.5.9 53.9 6.6"/><path fill="#26acb4" fill-opacity=".694" d="m53.35 6.7.55-.1q3.7 2.85 4.1 5.5.85 2.9-.4 6.3-2.45 6.8-12.75 9.35-2.5 1.25-3.4 3.65-.9 2.35.1 5.05l-1.7-1.4q-1.05-.75-1.1-2.05l-2.25 2.15-.5-.7q-.6-.75-1.25-.95-.3 1.4-2.4 2.25l-.8-1.35-.75 1.05-1.65 1.7-1.7-1.75-.7-1-.8 1.75q-2.1-1.25-2.4-2.65-.65.2-1.25.95l-.5.7L19.55 33q-.05 1.45-.95 2.25l-1.85 1.2q.75-1.75.15-4.05-.55-2.15-2.1-3.6-.6-.6-1.35-1.05l-.5-.2-6.3-2.5Q3.1 23.5 1.7 21.15l-1-2.25q-.85-2.65-.7-5l.25-1.6.05-.2Q1.15 9 3 6.8l.25.15-.15-.2h-.05Q6.15 3.1 12 1.7L20.85.55l9.1-.55q16.2.9 23.65 6.35z"/><path fill="#3f9178" fill-opacity=".898" d="m48.8 16.75-1.7 1.9.4.6.85 1.3.4 1.5.2 1.65q-.15 2.1-.55 2.85l-.85.4v-.4l.1-1.1q0-1.4-1.3-3.95l-.75-1.3-3.35 3.55q-2.45 2.45-3.35 5.3-.35 1.8-.15 3.95l-2.25 2.15-.5-.7q-.6-.75-1.25-.95-.3 1.4-2.4 2.25l-.8-1.35-.75 1.05-1.65 1.7-1.7-1.75-.7-1-.8 1.75q-2.1-1.25-2.4-2.65-.65.2-1.25.95l-.5.7-2.15-2.05q.35-1 .5-2.7l-.3-3q-.35-1.3-1.2-2.4-2.15-2.9-4.55-4.75l-1.25-.95q-.65.55-1.2 1.7-.85 1.65-.85 3.6l.15 2.25-.8-.5q-1-3.4-.3-6.55.4-2.2.8-2.35-.9-.75-1.45-1.3-3.15-3.1-3.8-7.65-.35-2.25-.05-3.9Q8.05 2.65 12 1.7L20.85.55l9.1-.55q16.2.9 24.85 7.15l-.55.65q-1.3 4.4-5.45 8.95M3.5 6.25l.05.15-.5.35zm54.2 7.65h.5l.1.25-.85.9-1.15 1.05q-1.4 2.1-1.85 4.05l-.2 1.85q-.1.95-.55 1.7l-.55.6q-.2-.05-.3-2.4l-.1-1.45q0-1.55 1.4-3.85 1.6-2.7 3.55-2.7m-56.75.5-.85-.95.1-.25.5-.05q1.95 0 3.55 2.95 1.4 2.5 1.4 4.2l-.1 1.55q-.1 2.55-.3 2.6l-.55-.65q-.45-.8-.55-1.8l-.2-2.05q-.45-2.1-1.85-4.4-.2-.35-1.15-1.15"/></g></defs></svg>