<svg xmlns="http://www.w3.org/2000/svg" xmlns:ffdec="https://www.free-decompiler.com/flash" xmlns:xlink="http://www.w3.org/1999/xlink" ffdec:objectType="frame" width="49.5" height="54.05"><use ffdec:characterId="1" xlink:href="#a" width="49.5" height="54.05"/><defs><g id="a" fill-rule="evenodd"><path fill="#593677" d="M10.05 1.65q6.65-2.1 16-1.55 8.9.5 15.45 3 6.95 2.7 7.3 6.25 1.05 14.5.5 24.3-1.05 18.6-8.75 17.95 1.6-2.35 1.85-6.35.25-3.65-.65-5.75-.4 4.3-3.8 8.75-2.8 3.7-4.35 4.15-.15-4.2-1.15-5.45-.95 2.3-2.85 4.6-1.6 1.95-2.6 2.5-1.1-.5-2.45-4.5l-1.1-3.95q-1.9 1.85-2.75 4.5-.7 2.05-.5 2.4-3.15-1.35-3.9-4.15-.45-1.55-.15-4.45-1.35 2.7-1.3 6.05 0 1.7.3 2.8-4.6-1.35-6.1-7.65-.45-2-.5-4.15-.05-1.4.05-1.7-1.1 2.45-.9 6.4.2 4.15 1.75 7.5-8.7-2.3-9.4-23.4Q-.3 19.2 1.1 9.1 2.45 4 10.05 1.65"/><path fill="#4c3064" fill-opacity=".8" d="m2.45 6.2.15-.4 2.6-2.55.05.55-1.4 6.65q-1.4 6.5-1.4 10.85l.45 4.3-.45-2.2-.8-6.15.3-6.5.2-3.3zM16.95.45Q22.6-.45 31.6.8q8.95 1.25 14.05 4.3 2.45 7.3 2 16.9l.25 3.1-.2 4.5q-.3 6.55-.6 7.95-1.05 5.1-2.3 8.95l-.8 1.35q-.8 1.2-2.6 2.55l.5-1.2.25-.65q2.25-4.05 3.6-9.3 1.3-5.2 1.4-8.15l.35-6.65q-.75 7.45-3.7 14.4 1.25-7.25-.55-14.55.1 2.9-.3 5.9-.8 5.55-3.45 10.7-2.15 4.3-5.2 8.2 1.9-3.3 3.4-6.65 2.5-5.5 2.5-11.5-1.8 5.05-4.5 9.6-3.9 6.55-8.75 12.4L24.3 46.4l-.4-1.2q-.45-.8-1.25 0l-1.55 1.95q-.35.6-.8 1.95-.5 1.6-.5 2.5v.2q-1.5-1.45-2.3-3.1-.65-1.35-.9-3.15.25-3.05.5-2.7l-4.9-8.45q-.15 7.45 1.85 14.6-1.5-2-2.2-4.35Q9.6 36.9 8.75 28.6l-.35 2q-.5 4.05-.6 8.25Q5.45 33.8 5 28.25q-.55-6.6.35-13.35.9-6.6 3.25-12.75 2.7-.85 8.35-1.7M2.15 30.7q.25 4.5 2.4 10.4 2.1 5.95 3.95 8.9l-.05.2 1.4 3.15-1.15-.3-.55-.1q-1-1.05-2-3.05-1.65-3.2-2.4-6.7l-.9-4.2Q2 32.65 2 31.5l.1-.8zm5.7 11.75q-.3 1.6-.3 2.5l.3 2.5.15.4q-1.7-1.1-2.65-9l-.5-6.9.6 2.8 1.1 3.5q.55 2.65 1.35 4.1zm7.75 3.4.05.25h-.05l-.05-.2z"/></g></defs></svg>