<?xml version="1.0" encoding="UTF-8" standalone="no"?>
<svg xmlns:ffdec="https://www.free-decompiler.com/flash" xmlns:xlink="http://www.w3.org/1999/xlink" ffdec:objectType="frame" height="71.4px" width="65.25px" xmlns="http://www.w3.org/2000/svg">
  <g transform="matrix(1.0, 0.0, 0.0, 1.0, 5.9, 7.85)">
    <use ffdec:characterId="1" height="71.35" transform="matrix(1.0, 0.0, 0.0, 1.0, -5.9, -7.85)" width="65.25" xlink:href="#shape0"/>
    <clipPath id="clipPath0" transform="matrix(1.0, 0.0, 0.0, 1.0, 0.0, 0.0)">
      <path d="M18.75 -5.15 Q21.0 -7.0 23.85 -7.5 L29.3 -7.75 27.35 -7.45 Q23.9 -6.85 21.45 -5.35 19.3 -4.0 17.55 -0.9 15.95 2.0 16.45 2.2 17.7 0.55 21.05 -0.45 24.65 -1.55 29.0 -1.25 40.2 -0.45 48.45 8.35 52.85 13.0 53.75 21.25 54.25 25.85 53.65 30.8 L53.7 34.0 Q54.1 35.7 56.0 37.8 L58.25 41.2 Q59.65 43.85 59.25 46.3 58.7 48.35 54.3 50.45 L54.15 50.5 Q53.45 50.75 52.8 51.65 L52.05 52.85 51.25 54.95 51.45 57.4 Q51.35 60.2 50.1 62.0 L48.8 63.5 48.9 61.2 48.7 59.75 Q47.95 61.65 46.95 62.45 46.15 63.25 45.6 63.25 46.25 61.85 46.25 59.3 46.25 56.3 45.05 54.45 40.5 47.55 44.0 43.45 46.3 40.85 46.85 36.6 L47.0 34.95 Q44.25 30.55 39.7 28.35 40.8 30.7 42.6 32.8 35.4 30.7 31.8 26.2 29.25 23.0 27.9 20.5 L30.6 27.7 Q19.85 23.4 17.0 11.2 L16.95 11.1 16.9 13.5 Q16.9 16.4 17.3 18.1 16.35 16.95 15.75 15.65 L14.95 13.45 Q14.75 12.65 14.65 13.0 L14.6 16.7 Q12.4 15.05 12.95 12.4 L10.6 16.15 Q7.85 20.8 9.1 25.05 7.3 23.65 7.25 23.3 L7.2 23.25 6.55 25.1 Q5.3 30.3 6.1 34.4 6.85 38.45 10.0 43.1 11.85 46.6 11.05 49.9 L11.0 50.05 10.65 51.1 8.95 54.1 Q7.8 55.85 7.7 58.65 7.65 60.95 8.25 62.45 L8.4 62.9 Q7.55 62.9 6.3 61.2 L5.3 59.4 5.1 62.0 5.2 63.15 Q2.95 61.2 2.65 57.75 L2.75 54.6 2.5 53.9 2.45 53.75 1.2 51.3 Q0.55 50.4 -0.15 50.15 -2.85 48.9 -4.45 46.95 -5.95 45.05 -5.9 43.3 -5.9 41.45 -2.0 36.85 -0.05 34.75 0.3 33.35 L0.35 30.45 Q-0.2 27.9 -0.35 25.1 -0.55 22.3 -0.05 18.4 1.1 12.35 4.8 8.25 7.8 4.9 12.2 3.15 9.1 0.7 3.4 1.95 11.35 -1.95 14.35 2.1 14.7 0.1 15.5 -1.4 16.5 -3.3 18.75 -5.15" fill="#ffebb2" fill-rule="evenodd" stroke="none"/>
    </clipPath>
    <g clip-path="url(#clipPath0)">
      <use ffdec:characterId="3" height="50.4" transform="matrix(1.0, 0.0, 0.0, 1.0, 1.35, -0.05)" width="50.4" xlink:href="#shape2"/>
    </g>
    <use ffdec:characterId="4" height="71.3" transform="matrix(1.0, 0.0, 0.0, 1.0, -3.75, -7.75)" width="61.7" xlink:href="#shape3"/>
  </g>
  <defs>
    <g id="shape0" transform="matrix(1.0, 0.0, 0.0, 1.0, 5.9, 7.85)">
      <path d="M18.75 -5.15 Q21.0 -7.0 23.85 -7.5 L29.3 -7.75 27.35 -7.45 Q23.9 -6.85 21.45 -5.35 19.3 -4.0 17.55 -0.9 15.95 2.0 16.45 2.2 17.7 0.55 21.05 -0.45 24.65 -1.55 29.0 -1.25 40.2 -0.45 48.45 8.35 52.85 13.0 53.75 21.25 54.25 25.85 53.65 30.8 L53.7 34.0 Q54.1 35.7 56.0 37.8 L58.25 41.2 Q59.65 43.85 59.25 46.3 58.7 48.35 54.3 50.45 L54.15 50.5 Q53.45 50.75 52.8 51.65 L52.05 52.85 51.25 54.95 51.45 57.4 Q51.35 60.2 50.1 62.0 L48.8 63.5 48.9 61.2 48.7 59.75 Q47.95 61.65 46.95 62.45 46.15 63.25 45.6 63.25 46.25 61.85 46.25 59.3 46.25 56.3 45.05 54.45 40.5 47.55 44.0 43.45 46.3 40.85 46.85 36.6 L47.0 34.95 Q44.25 30.55 39.7 28.35 40.8 30.7 42.6 32.8 35.4 30.7 31.8 26.2 29.25 23.0 27.9 20.5 L30.6 27.7 Q19.85 23.4 17.0 11.2 L16.95 11.1 16.9 13.5 Q16.9 16.4 17.3 18.1 16.35 16.95 15.75 15.65 L14.95 13.45 Q14.75 12.65 14.65 13.0 L14.6 16.7 Q12.4 15.05 12.95 12.4 L10.6 16.15 Q7.85 20.8 9.1 25.05 7.3 23.65 7.25 23.3 L7.2 23.25 6.55 25.1 Q5.3 30.3 6.1 34.4 6.85 38.45 10.0 43.1 11.85 46.6 11.05 49.9 L11.0 50.05 10.65 51.1 8.95 54.1 Q7.8 55.85 7.7 58.65 7.65 60.95 8.25 62.45 L8.4 62.9 Q7.55 62.9 6.3 61.2 L5.3 59.4 5.1 62.0 5.2 63.15 Q2.95 61.2 2.65 57.75 L2.75 54.6 2.5 53.9 2.45 53.75 1.2 51.3 Q0.55 50.4 -0.15 50.15 -2.85 48.9 -4.45 46.95 -5.95 45.05 -5.9 43.3 -5.9 41.45 -2.0 36.85 -0.05 34.75 0.3 33.35 L0.35 30.45 Q-0.2 27.9 -0.35 25.1 -0.55 22.3 -0.05 18.4 1.1 12.35 4.8 8.25 7.8 4.9 12.2 3.15 9.1 0.7 3.4 1.95 11.35 -1.95 14.35 2.1 14.7 0.1 15.5 -1.4 16.5 -3.3 18.75 -5.15" fill="#513624" fill-rule="evenodd" stroke="none"/>
    </g>
    <g id="shape2" transform="matrix(1.0, 0.0, 0.0, 1.0, -1.35, 0.05)">
      <path d="M44.35 42.95 Q37.0 50.35 26.55 50.35 16.1 50.35 8.7 42.95 1.35 35.55 1.35 25.15 1.35 14.7 8.7 7.3 16.1 -0.05 26.55 -0.05 37.0 -0.05 44.35 7.3 51.75 14.7 51.75 25.15 51.75 35.55 44.35 42.95" fill="url(#gradient0)" fill-rule="evenodd" stroke="none"/>
    </g>
    <radialGradient cx="0" cy="0" gradientTransform="matrix(0.0318, 0.0, 0.0, 0.0318, 26.55, 25.15)" gradientUnits="userSpaceOnUse" id="gradient0" r="819.2" spreadMethod="pad">
      <stop offset="0.0" stop-color="#000000" stop-opacity="0.29803923"/>
      <stop offset="1.0" stop-color="#000000" stop-opacity="0.0"/>
    </radialGradient>
    <g id="shape3" transform="matrix(1.0, 0.0, 0.0, 1.0, 3.75, 7.75)">
      <path d="M20.6 -4.65 Q17.7 -2.5 16.4 2.05 L15.6 2.4 Q16.8 -7.45 29.3 -7.75 23.45 -6.85 20.6 -4.65 M45.65 17.8 Q48.0 21.05 48.4 23.55 49.55 30.75 48.45 36.85 47.9 40.1 46.9 42.2 43.85 50.6 49.2 53.15 L46.8 52.6 Q48.7 55.6 47.7 59.65 47.1 61.9 45.5 63.45 L45.85 62.35 Q46.25 61.05 46.2 58.7 46.1 56.35 45.1 54.55 L43.45 51.7 42.85 50.0 Q41.85 46.15 43.8 43.7 45.55 41.15 46.9 36.25 L47.0 34.15 46.7 27.45 Q46.35 22.1 44.4 19.0 42.4 15.9 39.35 12.95 42.8 13.9 45.65 17.8 M54.0 36.0 L57.15 41.0 Q58.2 43.15 57.9 44.9 57.7 43.1 57.05 42.1 56.4 41.0 55.8 40.75 L56.35 42.45 Q56.7 43.95 56.7 45.4 56.35 49.15 54.15 50.7 54.0 50.75 53.7 50.95 53.45 51.05 53.35 51.15 54.95 48.45 55.1 45.9 55.2 43.5 54.65 40.8 L53.6 36.1 53.4 34.0 54.0 36.0 M51.65 47.45 Q52.85 49.7 52.65 51.85 L52.35 52.4 51.75 53.65 Q51.25 54.55 51.3 55.35 L51.5 57.45 51.35 57.55 51.15 55.55 50.5 51.95 49.6 47.75 Q48.75 44.7 50.75 39.45 52.8 35.25 51.35 28.25 53.8 36.05 51.85 40.05 50.2 44.75 51.65 47.45 M21.55 6.85 Q21.75 16.0 27.1 23.7 19.15 16.05 21.55 6.85 M26.55 15.55 Q27.2 17.8 30.5 23.1 33.4 27.85 41.65 32.1 38.2 29.3 37.05 25.75 35.75 21.9 36.5 17.5 L37.4 22.55 Q38.05 24.85 39.7 28.35 40.6 30.3 42.5 32.75 35.75 30.85 32.35 26.8 28.95 22.7 28.1 21.0 L30.6 27.75 Q29.05 26.2 27.2 22.2 25.3 18.2 25.7 12.65 L26.55 15.55 M14.1 10.2 L14.6 8.7 14.6 16.65 Q13.7 14.6 13.8 12.35 L14.1 10.2 M11.4 12.25 L13.5 10.0 12.95 12.45 12.95 12.4 10.6 16.15 Q8.55 19.65 8.75 22.9 L9.0 25.0 8.0 23.05 Q6.9 20.2 8.05 17.35 9.1 14.9 9.9 14.05 L11.4 12.25 M17.0 11.2 L16.95 11.1 Q16.6 14.6 17.25 18.1 16.2 15.85 16.0 13.55 15.75 11.25 16.85 8.6 L17.0 11.2 M1.35 32.45 L1.25 30.25 1.15 24.6 Q1.6 36.4 3.65 40.6 5.6 45.3 4.75 47.55 L3.3 51.35 Q2.65 52.9 2.85 54.85 L2.45 53.7 2.4 53.65 2.4 53.55 2.3 53.3 2.3 53.2 Q0.7 49.6 2.5 47.25 4.3 44.9 2.75 40.95 1.7 38.4 1.35 32.45 M0.65 30.6 L0.55 30.25 0.7 30.6 0.85 32.65 0.6 35.6 -0.45 40.3 Q-1.0 43.0 -0.9 45.4 -0.75 47.95 0.85 50.65 L0.5 50.45 0.05 50.2 Q-2.15 48.65 -2.5 44.9 -2.5 43.45 -2.15 41.95 L-1.6 40.25 Q-2.2 40.5 -2.85 41.6 -3.5 42.6 -3.7 44.4 -4.0 42.65 -2.95 40.5 L0.2 35.5 Q1.0 33.85 0.65 30.6 M3.4 1.95 Q9.6 -0.75 12.3 3.2 8.8 1.0 3.4 1.95 M7.25 15.2 L6.55 16.85 Q5.35 20.55 7.2 23.25 L6.55 25.1 Q5.35 30.15 6.05 34.15 L6.1 34.4 Q6.85 38.45 10.0 43.1 11.85 46.6 11.05 49.9 L11.0 50.05 10.65 51.1 8.95 54.1 Q7.8 55.85 7.7 58.65 7.65 60.45 8.05 61.75 L8.5 63.0 Q6.8 61.35 6.2 59.05 5.2 55.0 7.1 52.0 L7.2 51.85 4.7 52.55 Q10.05 50.0 7.0 41.6 L5.45 38.5 3.9 35.05 3.9 34.95 Q2.0 29.0 2.95 21.95 L3.15 21.05 3.4 22.0 Q3.75 23.2 4.85 24.4 L4.85 23.95 Q4.25 20.6 4.95 18.15 5.2 17.2 5.75 16.4 6.55 15.0 8.0 13.85 L7.25 15.2 M5.3 59.4 L5.1 62.0 5.25 63.25 4.75 62.7 Q3.7 60.05 4.25 54.7 4.2 57.05 5.3 59.4 M48.7 59.7 Q49.8 57.35 49.75 55.0 50.3 60.35 49.25 63.0 L48.75 63.55 48.9 62.3 48.7 59.7" fill="#381f0e" fill-opacity="0.69411767" fill-rule="evenodd" stroke="none"/>
      <path d="M15.15 14.35 L15.2 14.1 14.5 12.4 14.45 14.15 12.9 13.7 Q12.7 12.85 13.05 12.0 L12.15 13.45 Q8.55 12.2 5.2 10.45 6.5 6.55 10.6 4.9 21.35 15.25 50.55 14.0 34.0 18.35 18.2 15.1 L16.9 10.85 16.75 14.8 15.15 14.35" fill="#ff9966" fill-opacity="0.2" fill-rule="evenodd" stroke="none"/>
    </g>
  </defs>
</svg>
