<svg xmlns="http://www.w3.org/2000/svg" xmlns:ffdec="https://www.free-decompiler.com/flash" xmlns:xlink="http://www.w3.org/1999/xlink" ffdec:objectType="frame" width="50.4" height="72.3"><use ffdec:characterId="1" xlink:href="#a" width="50.4" height="72.3"/><defs><radialGradient id="b" cx="0" cy="0" r="819.2" gradientTransform="translate(9.65 27.75)scale(.0365)" gradientUnits="userSpaceOnUse" spreadMethod="pad"><stop offset=".035" stop-color="#fce7a2"/><stop offset=".6" stop-color="#cd9c51"/><stop offset="1" stop-color="#835510"/></radialGradient><g id="a" fill-rule="evenodd"><path fill="#b68232" d="m36.65 47.8-.7.5 4.2-6.15Q33.3 46.8 29.85 50q-2.8 2.6-6.85 7.7 3.45-7.1 12-16.05 5.55-5.8 10.55-9.9-.2 2-1.75 5.45-2.45 5.25-7.15 10.6M25.6 49.75l.2-.7-2.7 4.7q-2.55 4.55-3.45 7.45l-2.85 8.75v-.25q.45-2.9 1.35-6.2l.75-2.7q3.6-12.15 9.9-18.7L26 48.7zM14.8 69.6q-.75-2.25-1.4-5.05l-1.05-5.05-.05.65q0 2.65.4 5.2l1.05 6.9q-1.3-4.15-2.2-9.6Q9.45 49.2 12.9 39.7q.85 21.2 1.9 29.9m-6.05-9.2-1-4.8q-.75-4.55-.9-9.9-1.3 3.8-1.8 6.3-.45 2.3-.25 2.95h-.05L4.6 53.4q.15-2.35.65-5.2 1.6-9.5 5.95-17-1.5 3.9-2.5 9.9-1.65 10.1.05 19.3M3.55 46l-.45-3.7-3.05 3.35L3.1 41zm21.75-3.8q3.7-4.25 7.4-5.95-7.4 4.3-11.9 16.15-1.85 4.95-2.7 9.3.3-11.55 7.2-19.5m-6.55-.45q-3.1 12.8-3.65 23.1-.75-5.9-.25-13.1.9-14.4 6.95-20.8-1.45 4.35-3.05 10.8"/><path fill="url(#b)" d="M-4.4 18.65h-.05q1.5-2.9 2.85-6.3l-.05-1.95q0-5.95.55-9l.55-2.85-.3-3.5Q-.85-14.1 6-20.6 12.9-27 22.55-27t16.5 6.4q6.9 6.5 6.9 15.65 0 2.4-.45 4.65l-.8 2.8q-2.5 7.65-6.6 12.5-3.05 3.65-5.9 5.8 4.7-5.35 7.15-10.6 1.55-3.45 1.75-5.45-5 4.1-10.55 9.9-8.55 8.95-12 16.05l-.3.35q.1-.7 1.35-4.05l1.55-4.25.4-1.05 2.8-6.6q-6.3 6.55-9.9 18.7l-.75 2.7q-.9 3.3-1.35 6.2l-.1-2.05q0-9.25 2.05-16.75-.9 1.65-2.45 10.35-.95 5.25-1.35 8.35l-.05.3-.1-.3q-1.05-8.7-1.9-29.9Q5 22.2 7.1 35.65q.9 5.45 2.2 9.6v.05q-1.75-3.65-3.55-10.55Q4.6 30.2 4.05 26q0 4.05.25 7.4-1.7-9.2-.05-19.3 1-6 2.5-9.9Q2.4 11.7.8 21.2q-.5 2.85-.65 5.2l-.8-5.65L-.9 19l-.45-5zm25.25-3.45q-6.9 7.95-7.2 19.5.85-4.35 2.7-9.3 4.5-11.85 11.9-16.15-3.7 1.7-7.4 5.95m-6.55-.45q1.6-6.45 3.05-10.8-6.05 6.4-6.95 20.8-.5 7.2.25 13.1.55-10.3 3.65-23.1" transform="translate(4.45 27)"/><path fill="#fff" fill-opacity=".498" d="m40.5 35.8-6.45 6.65Q27.15 50 25 54.35q.85-2.8 3.2-6.55 4.7-7.45 12.3-12M15.15 47.6q-1.1 12.35-.65 17.15-.65-5.05-.8-11.1-.35-13.7 2.85-20.1-.75 6.65-1.4 14.05M4.9 45.15q-.3-3.25.2-7.4 1.05-8.25 5.15-12.8-1.15 2.65-2.45 6.5-2.5 7.65-2.9 13.7M11.55 43q-2.05 12.5.05 20.45-1.5-4.65-1.95-10.9Q8.8 40.1 14 32.05q-1.45 4.7-2.45 10.95"/></g></defs></svg>