<svg xmlns="http://www.w3.org/2000/svg" xmlns:ffdec="https://www.free-decompiler.com/flash" xmlns:xlink="http://www.w3.org/1999/xlink" ffdec:objectType="frame" width="63.5" height="58.1"><g transform="translate(5.05 18.35)"><clipPath id="a"><path fill="#946749" fill-rule="evenodd" d="M49.4 17.6q1 3.25 1 6.2l-1.35 6.9-.1.55-.05-.05-2.1 5.65q-.55 1.2-1.55 1.05l-.95-.2.35-2 .25-2.5v-.6l-.1-3.3-.2-.95-.2-.4-.05-.2L42.6 27l-.9-.4-.5-.2h.1l-.8-.45-2.45-1.7h-2L29.3 22.9l-.8-.25.55.5q.65.6 2.25 1.3 1.75.85 5.45.95l-1.65.4h-.6v.05l-3.2.4-4.05.35q-3.55-.1-6.25-1.1l-.45-.25q-.85-.35-1.9-1.1L17.3 23.1q-.25.4.15 1.5l.5.8-.3.05Q16 25 15.05 24.2q-.8-.8-.85-2.4l-1 1.3q-.7.9-.7 1.4t-.05.15q-.55-.6-.65-1.35l-.05-1.35q-.3.2-.7.95l-.35.6q-1.15 1.9-1.9 4.85-.7 2.95-.75 4L8 33.85l-.1.85v1.1l.25 2.45L7 38.5l-.3.1q-.65-.8-1.15-2.7l-.35-1.7-.35-1.2-.3-.1-.2-2.55Q2.2 22.75 7.3 13.2q.8-1.5 1.75-2.65.3-1.05 4.3-4.1 4-3.1 9.35-3.35l4.45.6 4.2-.55 4.4.45q1.85.5 3.4 1.5 3.55 1.7 6.4 5.5 2.85 3.75 3.85 7"/></clipPath><g clip-path="url(#a)"><use ffdec:characterId="6" xlink:href="#b" width="63.5" height="58.1" transform="translate(-5.05 -18.35)"/></g></g><defs><radialGradient id="c" cx="0" cy="0" r="819.2" gradientTransform="matrix(.039 0 0 .0321 26.8 20.5)" gradientUnits="userSpaceOnUse" spreadMethod="pad"><stop offset="0" stop-color="#e9b479" stop-opacity=".22"/><stop offset=".396" stop-color="#703c00" stop-opacity=".361"/><stop offset=".624" stop-color="#580b1e" stop-opacity=".439"/></radialGradient><radialGradient id="d" cx="0" cy="0" r="819.2" gradientTransform="matrix(.039 0 0 .0321 26.8 20.5)" gradientUnits="userSpaceOnUse" spreadMethod="pad"><stop offset="0" stop-opacity="0"/><stop offset=".655" stop-color="#350000" stop-opacity=".392"/><stop offset=".961" stop-color="#580000" stop-opacity=".647"/></radialGradient><radialGradient id="e" cx="0" cy="0" r="819.2" gradientTransform="translate(36.65 .85)scale(.0246)" gradientUnits="userSpaceOnUse" spreadMethod="pad"><stop offset="0" stop-color="#fff" stop-opacity=".086"/><stop offset=".686" stop-color="#fff" stop-opacity="0"/></radialGradient><g id="b" fill-rule="evenodd"><path fill="#946749" d="m26.85 17.95 2.8-1.1q2.9-1.05 6.9.3 4 1.3 3.1 3.1.5-.35 2.15-.9l1.95-1.05.55-.8.2-.5.15-1h.1l.75 1 .2 1.5-.15 1.45-.3.8-.1.35-.15.3.95-.15q3.1-1.05 6.5 1.95t5.15 5.25q1.75 2.2.6 1.4t-2.1-1.15l-1.55-.6 1.6 1.55.8.95q3.65 3 3.9 6 .2 3-.7 1.5-.95-1.5-1.95-1.9t-1.1-.55q2.05 3.25 2.4 5.6l.45 1.95-.15 2.35-.2.85-.35.75h.05l-1.7 3.15h-.05l-.25.25-3.4-1-.65 1.05q-1.8 5.8-2.95 5.65l-.95-.2.35-2 .25-2.5v-.6l-.1-3.3-.2-.95-.2-.4-.05-.2-1.75-.75-.9-.4-.5-.2h.1l-.8-.45-2.45-1.7h-2l-6.75-1.35-.8-.25.55.5q.65.6 2.25 1.3 1.75.85 5.45.95l-1.65.4h-.6v.05l-3.2.4-4.05.35q-3.55-.1-6.25-1.1l-.45-.25q-.85-.35-1.9-1.1l-1.35-1.05q-.25.4.15 1.5l.5.8-.3.05q-1.65-.45-2.6-1.25-.8-.8-.85-2.4l-1 1.3q-.7.9-.7 1.4t-.05.15q-.55-.6-.65-1.35l-.05-1.35q-.3.2-.7.95l-.35.6q-1.15 1.9-1.9 4.85-.7 2.95-.75 4l-.05 1.5-.1.85v1.1l.25 2.45-1.15.25-.3.1q-.65-.8-1.15-2.7l-.35-1.7-.35-1.2q-2.05-.7-3.15-4.4l-.15-.65q-.95-.05-2.2-.7l-1.65-1 2.55-2.35.65-.8q.05-1.35.4-2.55l.25-.85q-.9-.35-2.8.8-1.1.65-1.45 1.3l-.55.6-.05-.3q0-2.4 2.55-6.65 1.95-3.1 4-4.05l-2.55.1-1.35.95-.05-.15.95-1.6q.25-.8 3.1-2 1.95-.85 3.4-1.05l-1.5-.75-2.1-1.7q-.8-.65-.85-1.15h.1l1.25.6h1.7q2.1 0 5.25-1.1l3-1.2 4-1.05 8.75-.35-.95-.5-.25-.15-3-.6zm30.75 16.6.1.1v-.1z"/><path fill="#fff" fill-opacity=".298" d="M56.1 26.75q1.3 1.25 1.15 2.8l-.45 2.55-1 1.95-1.9 1.45-1.95 1q2.6-3.2 2.75-6.4l.15-2.6q.05-1.5-.25-2.5h.05zM9.2 25.1l.85-.1q-.25.45-.25 1.5-.6 1.8-.6 3.75 0 3.5 1.35 6.6.6 1.3 2.55 3.5l.4.45-1.6-.8q-2.55-1.65-4.05-4.2L7 33.7v-.1q-.15-1.1-.15-2.55 0-2.15.25-3.6.3-1.35 1.35-2.1l.7-.2z"/><path fill="url(#c)" d="M58.45 20.5q0 3.5-.95 6.7l-1.35 3.4q-.75.3-1.6.75-3.85 1.85-5.2 2.75-.2.1-1.85 3.1-1.45 2.55-3.3 2.55-.7 0-1-2.1-.15-1.05-.15-2.4l.35-2.75q.05-1.7-1.2-2.95-2.3-2.6-4.8-2.75l-1.05.1-.85-.1-5.6.8-5.1.75q-4.45 0-8.15-.9l-4-1.15q-1.2-.25-1.65.95-1.85 1.2-2 4.4.2.95-.55 3.9L7.9 37.8 7 39.4q-2.25-1.15-3-2.85l-.7-2.75q-.4-1.55-1.8-2.65-2.7-2.85-5.9-5.2-.65-2.65-.65-5.45 0-10.9 9.4-18.65 9.35-7.5 22.45-7.5 11.9 0 20.75 6.25l1.75 1.25q9.15 7.75 9.15 18.65" transform="translate(5.05 18.35)"/><path fill="url(#d)" d="m33.55 31.2-.65.05.3-.05z" transform="translate(5.05 18.35)"/><path fill="url(#e)" d="M36.7-18.35q7.2 0 12.55 4.65l1.05.9Q55.85-7.15 55.85.85q0 7.9-5.55 13.55L47.15 17q-4.55 2.95-10.25 3h-.2q-7.25 0-12.55-4.7l-1-.9Q17.5 8.75 17.5.85q0-8 5.65-13.65 5.65-5.55 13.55-5.55" transform="translate(5.05 18.35)"/><path fill-opacity=".251" d="M30.8 17.65q2.75.05 4.05 1.3 1.25 1.2.8 1.2l-2.65-.6-2.8-.65-.4-.2-2.05-.4h-.2l-.25.05q-.35 0-.45-.25v-.15l.1-.05zm17.8 7-.4.05.1-.05zm9.2 5.1Q56 28.7 56 29.4l.55.55-1.05-.6-3.1-1.8-.15-.05q-.95-.55-3-1.25l-1.85-.6 1.8-.15q1.5-.05 4 .9 4.65 2.2 5.2 3.65l.05.1zm-2.55 2.35q2.7 1.2 3.55 2.6l1.5 2.75q.55.95.6 1.8-2.3-3.2-3.85-3.4-.7-1.05-2.3-2.1-2.15-1.4-5.35-2.3t-1.7-.55l3.3-.15q1.5.1 4.25 1.35m-5.85 1.2-.45-.05h.55zm.8 2.45-4.8.3-4.65-.65-2.65-.7-2.4-.75-3.05-.85 4.55-.6q1.75-.7 2.65-1.4L42 28.8l.2-.5v-.1l-3.1 1.45q-2.5.9-5.15 1.1l-2.5.1q.2-.15 1.15-.55l1.7-1.45q.75-1.05.4-1-.9-1.5-5.7-3.8-3.4-1.65-4.85-1.8v-.05q1.1-.65 4.65-.65 2.05 0 3.55.8l2.5 2.15q.3-.2-.65-1.45t-1.7-1.65q-.8-.4-.6-.45h.95l1.8.05q1.9 0 3.1 1.05l.4.35q.55.85.55 2.2l.15-.45.6-.9q1.05-.95 2.4-1.2l2 .05-.05.05q-.8.25-1.9 1.25t-1.6 2.05l-.45.95q.85-.65 2.75-1.35l2.55-.7v2l-.55 1.9-1.15 2.05q-1 1.3-2.45 1.9l-.15.15q.4 0 1.2.55 1.4.65 5.5 1.35l5.3.35q-.25.85-1.95 2.4-2 1.75-3.3 1.95l.85.15q.85.1 2.25-.4h.05l-.8 1.35-1.8 1.75-.5.45-1.1.6 1.15.75.45.3-.55-.4h.05l1.35.7 3 .45h.85l-.55-1.3-1.1-2.45.6.7.95 1.35.9 1.05q.4 0 .4-.55L52.7 39.8q.7.25 1.6 1.65.95 1.35 1.7 3.65l-.05-3.3q-.1-.8-1.1-2.65l1.95 2.65q1.05 1.9 1.3 3.75l.05 1q0 1.55-.95 3.95l-1.15-.35-2.3-.5-.05-1.85q-.1-1.1-.95-.75H51.5l-.15 2.7-1 6.4-.05.35-1.05-.45-.05-.05.5-1.5v-.45l.15-1.75.15-3.85-.45-1.85-.3-.35q-.4-.4-1-.55l-.25-.05-.15-.15-.9-.4q-1.95-.95-2.4-1.6h-.1l-.55-.3q-.8-.45-1.3-.55l1.25-.35 1.45-.55.25-.2h-.05l-2.3.05q-1.5-.3-5.55-2.7l-4.1-2.45q2.95.35 6.1 1.7 1.15.5 2.9.8l-1.2-.75q-.9-.55-1.25-1.1-.35-.5-.6-1.55l1.3.5q2.45.9 4.1.9l3.55-.55zM8.9 41l.25-.5v.6l-.5 2.6-.75 1.25-1.55 1.55-1.95-1-1.75-.7-.05-.05.5-.1L6 43.5q2.25-1.05 2.9-2.5m-.3-11.2-2.2.4q-1.6.45-2.35 1l1.05-1.4q1.5-2.1 3.8-1.8l3.75.7 1.2.4-.25.15-2.45.2zm12.35-6.55-3.2 1.8q-1.7.75-3.9.9l-2.7-.05-1.9-.95q-1.4-.8-1.95-1.85l1.3-.05q1.9.95 4.75 1.15 3.05.15 7.6-.95m5.5 17-1.15-1.4 1.25-.15 2-.15q1.25-.05 3.6.75l.95.4q3.3 1.45 5 2.45h-.15l-4-.9 1.6 1.25 1.25.55.55.1.85.2.35.05.25.05 2 .2h.3l.55.15-3.1.25-6.1-.3q-2.4-.5-3.8-1.5zm.25-11.95 1.1.3q1.1.3 1.85.7.75.35 1.35.9-1 0-3.25.7l-2.85 1-.5.3-.65.25q-.65.25-.95.6-.35.35 2.55 1.15l5.05.8q-.5.45-1.95 1.1-1.7.75-3.5.35l-2.4-.7-.9-.5-.75-.3h-.3q.2 0 1.1 2.25.55 1.1 1.25 1.7-1.35-.25-3.05-1.5L18 35.85q-.9-.6-1.2-.45l-1.45.05q-1.3-.05-3.45.95-.95.45-1.45.9-.3-1.6 2.2-3.5 2.45-1.9 4.6-1.7l-3.85-1.75q1.05-.65 1.45-.75l.9-.15 1.25-.2 1.4.3.05-.15.35-.95q.35-.9 1.4-1.75 1-.9 1.9-1.1l1-.25q-.8 1-1 1.65l-.35 1.6q-.15.95.15.55 1.15-1.05 4.8-.85m35 9.1v-.45l.05.05v.45zM7.8 39.6l-2 2 .2-1.7q.6-.6 1.2-1.05 1.35-1.05 1.95-1.15zm13.15 0 1.5 2.15v.15q0 .45.35 1l.6 1.1-.3.05-1.4-.5-.6-.2-.15-.25q-.35-.7-.35-1.55 0-1.6.35-1.95m-3.95.15-.2.25q-1.4 2.1-1.4 2.7l.05.2q-.45.5-.9 1.55-.7 1.7-.7 2.55l-.45 2.9q-.5 2.45-.5 3.6l.15 1.95.25 1-.25.05-.55.2-.25-1.05-.45-3.5q-.15-1.5.3-4.2.45-2.75.65-3.15l.25-.6q.95-1.85 1.5-2.35l1.95-1.7q.3-.25.55-.4m2.6-.7-.3.9-.1.55h-.1q-.6.15-.6.85v.05q-.9.85-1.15 1.9-.35-.3-.35-.95l.05-.5q.1-.7.5-1.25l.95-1.1q.7-.55 1.1-.45m-11.9-2.5-1.35 1.6q-.55-.2-2.45 1L1.7 40.7q.55-1.45 2.1-3.35Q6 34.6 7.55 33.8t4.05-1.3q-2.15 1.85-3.9 4.05m3.85 3.55q1.15-1.6 2.05-2.25-.8 1.2-1.05 1.95L11.8 42l-.75 2.35-.6 2.7q-.4 1.7-.4 3.2-.1 1.75.2 2.5h-.1q-1.65 0-1.95-1.5l-.05-1.9q0-1.95.65-3.95l.55-1.35.15-.4q.8-1.75 2.05-3.55"/></g></defs></svg>