<?xml version="1.0" encoding="UTF-8" standalone="no"?>
<svg xmlns:ffdec="https://www.free-decompiler.com/flash" xmlns:xlink="http://www.w3.org/1999/xlink" ffdec:objectType="frame" height="58.1px" width="63.5px" xmlns="http://www.w3.org/2000/svg">
  <g transform="matrix(1.0, 0.0, 0.0, 1.0, 5.05, 18.35)">
    <use ffdec:characterId="1" height="40.95" transform="matrix(1.0, 0.0, 0.0, 1.0, -3.3, -2.35)" width="59.15" xlink:href="#shape0"/>
    <clipPath id="clipPath0" transform="matrix(1.0, 0.0, 0.0, 1.0, 0.0, 0.0)">
      <path d="M21.8 -0.45 L24.6 -1.55 Q27.5 -2.6 31.5 -1.25 35.5 0.05 34.6 1.85 35.1 1.5 36.75 0.95 L38.7 -0.1 39.25 -0.9 39.45 -1.4 39.6 -2.4 39.7 -2.4 40.45 -1.4 40.65 0.1 40.5 1.55 40.2 2.35 40.1 2.7 39.95 3.0 40.9 2.85 Q44.0 1.8 47.4 4.8 50.8 7.8 52.55 10.05 54.3 12.25 53.15 11.45 52.0 10.65 51.05 10.3 L49.5 9.7 51.1 11.25 51.9 12.2 Q55.55 15.2 55.8 18.2 56.0 21.2 55.1 19.7 54.15 18.2 53.15 17.8 52.15 17.4 52.05 17.25 54.1 20.5 54.45 22.85 L54.9 24.8 54.75 27.2 54.55 28.0 54.2 28.75 54.25 28.75 52.55 31.9 52.5 31.9 52.25 32.15 48.85 31.15 48.2 32.2 Q46.4 38.0 45.25 37.85 L44.3 37.65 44.65 35.65 44.9 33.15 44.9 32.55 44.8 29.25 44.6 28.3 44.4 27.9 44.35 27.7 42.6 26.95 41.7 26.55 41.2 26.35 41.3 26.35 40.5 25.9 38.05 24.2 36.05 24.2 29.3 22.85 28.5 22.6 29.05 23.1 Q29.7 23.7 31.3 24.4 33.05 25.25 36.75 25.35 L35.1 25.75 34.5 25.75 34.5 25.8 31.3 26.2 27.25 26.55 Q23.7 26.45 21.0 25.45 L20.55 25.2 Q19.7 24.85 18.65 24.1 L17.3 23.05 Q17.05 23.45 17.45 24.55 L17.95 25.35 17.65 25.4 Q16.0 24.95 15.05 24.15 14.25 23.35 14.2 21.75 L13.2 23.05 Q12.5 23.95 12.5 24.45 12.5 24.95 12.45 24.6 11.9 24.0 11.8 23.25 L11.75 21.9 Q11.45 22.1 11.05 22.85 L10.7 23.45 Q9.55 25.35 8.8 28.3 8.1 31.25 8.05 32.3 L8.0 33.8 7.9 34.65 7.9 34.8 7.9 35.1 7.9 35.75 8.15 38.2 7.0 38.45 6.7 38.55 Q6.05 37.75 5.55 35.85 L5.2 34.15 4.85 32.95 Q2.8 32.25 1.7 28.55 L1.55 27.9 Q0.6 27.85 -0.65 27.2 L-2.3 26.2 0.25 23.85 0.9 23.05 Q0.95 21.7 1.3 20.5 L1.55 19.65 Q0.65 19.3 -1.25 20.45 -2.35 21.1 -2.7 21.75 L-3.25 22.35 -3.3 22.05 Q-3.3 19.65 -0.75 15.4 1.2 12.3 3.25 11.35 L0.7 11.45 -0.65 12.4 -0.7 12.25 0.25 10.65 Q0.5 9.85 3.35 8.65 5.3 7.8 6.75 7.6 L5.25 6.85 3.15 5.15 Q2.35 4.5 2.3 4.0 L2.4 4.0 3.65 4.6 5.35 4.6 Q7.45 4.6 10.6 3.5 L13.6 2.3 17.6 1.25 26.35 0.9 25.4 0.4 25.15 0.25 22.15 -0.35 21.8 -0.45 M52.65 16.15 L52.55 16.15 52.65 16.25 52.65 16.15" fill="#946749" fill-rule="evenodd" stroke="none"/>
    </clipPath>
    <g clip-path="url(#clipPath0)">
      <use ffdec:characterId="3" height="58.1" transform="matrix(1.0, 0.0, 0.0, 1.0, -5.05, -18.35)" width="63.5" xlink:href="#shape2"/>
    </g>
  </g>
  <defs>
    <g id="shape0" transform="matrix(1.0, 0.0, 0.0, 1.0, 3.3, 2.35)">
      <path d="M21.8 -0.4 L24.6 -1.5 Q27.5 -2.55 31.5 -1.2 35.5 0.1 34.6 1.9 35.1 1.55 36.75 1.0 L38.7 -0.05 39.25 -0.85 39.45 -1.35 39.6 -2.35 39.7 -2.35 40.45 -1.35 40.65 0.15 40.5 1.6 40.2 2.4 40.1 2.75 39.95 3.05 40.9 2.9 Q44.0 1.85 47.4 4.85 50.8 7.85 52.55 10.1 54.3 12.3 53.15 11.5 52.0 10.7 51.05 10.35 L49.5 9.75 51.1 11.3 51.9 12.25 Q55.55 15.25 55.8 18.25 56.0 21.25 55.1 19.75 54.15 18.25 53.15 17.85 52.15 17.45 52.05 17.3 54.1 20.55 54.45 22.9 L54.9 24.85 54.75 27.2 54.55 28.05 54.2 28.8 54.25 28.8 52.55 31.95 52.5 31.95 52.25 32.2 48.85 31.2 48.2 32.25 Q46.4 38.05 45.25 37.9 L44.3 37.7 44.65 35.7 44.9 33.2 44.9 32.6 44.8 29.3 44.6 28.35 44.4 27.95 44.35 27.75 42.6 27.0 41.7 26.6 41.2 26.4 41.3 26.4 40.5 25.95 38.05 24.25 36.05 24.25 29.3 22.9 28.5 22.65 29.05 23.15 Q29.7 23.75 31.3 24.45 33.05 25.3 36.75 25.4 L35.1 25.8 34.5 25.8 34.5 25.85 31.3 26.25 27.25 26.6 Q23.7 26.5 21.0 25.5 L20.55 25.25 Q19.7 24.9 18.65 24.15 L17.3 23.1 Q17.05 23.5 17.45 24.6 L17.95 25.4 17.65 25.45 Q16.0 25.0 15.05 24.2 14.25 23.4 14.2 21.8 L13.2 23.1 Q12.5 24.0 12.5 24.5 12.5 25.0 12.45 24.65 11.9 24.05 11.8 23.3 L11.75 21.95 Q11.45 22.15 11.05 22.9 L10.7 23.5 Q9.55 25.4 8.8 28.35 8.1 31.3 8.05 32.35 L8.0 33.85 7.9 34.7 7.9 34.85 7.9 35.15 7.9 35.8 8.15 38.25 7.0 38.5 6.7 38.6 Q6.05 37.8 5.55 35.9 L5.2 34.2 4.85 33.0 Q2.8 32.3 1.7 28.6 L1.55 27.95 Q0.6 27.9 -0.65 27.25 L-2.3 26.25 0.25 23.9 0.9 23.1 Q0.95 21.75 1.3 20.55 L1.55 19.7 Q0.65 19.35 -1.25 20.5 -2.35 21.15 -2.7 21.8 L-3.25 22.4 -3.3 22.1 Q-3.3 19.7 -0.75 15.45 1.2 12.35 3.25 11.4 L0.7 11.5 -0.65 12.45 -0.7 12.3 0.25 10.7 Q0.5 9.9 3.35 8.7 5.3 7.85 6.75 7.65 L5.25 6.9 3.15 5.2 Q2.35 4.55 2.3 4.05 L2.4 4.05 3.65 4.65 5.35 4.65 Q7.45 4.65 10.6 3.55 L13.6 2.35 17.6 1.3 26.35 0.95 25.4 0.45 25.15 0.3 22.15 -0.3 21.8 -0.4 M52.55 16.2 L52.65 16.3 52.65 16.2 52.55 16.2" fill="#946749" fill-rule="evenodd" stroke="none"/>
    </g>
    <g id="shape2" transform="matrix(1.0, 0.0, 0.0, 1.0, 5.05, 18.35)">
      <path d="M51.05 8.4 Q52.35 9.65 52.2 11.2 L51.75 13.75 50.75 15.7 48.85 17.15 46.9 18.15 Q49.5 14.95 49.65 11.75 L49.8 9.15 Q49.85 7.65 49.55 6.65 L49.6 6.65 51.05 8.4 M4.15 6.75 L5.0 6.65 Q4.75 7.1 4.75 8.15 4.15 9.95 4.15 11.9 4.15 15.4 5.5 18.5 6.1 19.8 8.05 22.0 L8.45 22.45 6.85 21.65 Q4.3 20.0 2.8 17.45 L1.95 15.35 1.95 15.25 Q1.8 14.15 1.8 12.7 1.8 10.55 2.05 9.1 2.35 7.75 3.4 7.0 L4.1 6.8 4.15 6.75" fill="#ffffff" fill-opacity="0.29803923" fill-rule="evenodd" stroke="none"/>
      <path d="M58.45 20.5 Q58.45 24.0 57.5 27.2 L56.15 30.6 Q55.4 30.9 54.55 31.35 50.7 33.2 49.35 34.1 49.15 34.2 47.5 37.2 46.05 39.75 44.2 39.75 43.5 39.75 43.2 37.65 43.05 36.6 43.05 35.25 L43.4 32.5 Q43.45 30.8 42.2 29.55 39.9 26.95 37.4 26.8 L36.35 26.9 35.5 26.8 29.9 27.6 24.8 28.35 Q20.35 28.35 16.65 27.45 L12.65 26.3 Q11.45 26.05 11.0 27.25 9.15 28.45 9.0 31.65 9.2 32.6 8.45 35.55 L7.9 37.8 7.0 39.4 Q4.75 38.25 4.0 36.55 L3.3 33.8 Q2.9 32.25 1.5 31.15 -1.2 28.3 -4.4 25.95 -5.05 23.3 -5.05 20.5 -5.05 9.6 4.35 1.85 13.7 -5.65 26.8 -5.65 38.7 -5.65 47.55 0.6 L49.3 1.85 Q58.45 9.6 58.45 20.5" fill="url(#gradient0)" fill-rule="evenodd" stroke="none"/>
      <path d="M33.55 31.2 L32.9 31.25 33.2 31.2 33.55 31.2" fill="url(#gradient1)" fill-rule="evenodd" stroke="none"/>
      <path d="M36.7 -18.35 Q43.9 -18.35 49.25 -13.7 L50.3 -12.8 Q55.85 -7.15 55.85 0.85 55.85 8.75 50.3 14.4 L47.15 17.0 Q42.6 19.95 36.9 20.0 L36.7 20.0 Q29.45 20.0 24.15 15.3 L23.15 14.4 Q17.5 8.75 17.5 0.85 17.5 -7.15 23.15 -12.8 28.8 -18.35 36.7 -18.35" fill="url(#gradient2)" fill-rule="evenodd" stroke="none"/>
      <path d="M25.75 -0.7 Q28.5 -0.65 29.8 0.6 31.05 1.8 30.6 1.8 L27.95 1.2 25.15 0.55 24.75 0.35 22.7 -0.05 22.5 -0.05 22.25 0.0 Q21.9 0.0 21.8 -0.25 L21.8 -0.4 21.9 -0.45 25.75 -0.7 M43.15 6.35 L43.25 6.3 43.55 6.3 43.15 6.35 M52.75 11.4 Q50.95 10.35 50.95 11.05 L51.5 11.6 50.45 11.0 47.35 9.2 47.2 9.15 Q46.25 8.6 44.2 7.9 L42.35 7.3 44.15 7.15 Q45.65 7.1 48.15 8.05 52.8 10.25 53.35 11.7 L53.4 11.8 52.75 11.4 M50.2 13.75 Q52.9 14.95 53.75 16.35 L55.25 19.1 Q55.8 20.05 55.85 20.9 53.55 17.7 52.0 17.5 51.3 16.45 49.7 15.4 47.55 14.0 44.35 13.1 41.15 12.2 42.65 12.55 L45.95 12.4 Q47.45 12.5 50.2 13.75 M45.15 17.4 L40.35 17.7 35.7 17.05 33.05 16.35 30.65 15.6 27.6 14.75 32.15 14.15 Q33.9 13.45 34.8 12.75 L36.95 10.45 37.15 9.95 37.15 9.85 34.05 11.3 Q31.55 12.2 28.9 12.4 L26.4 12.5 Q26.6 12.35 27.55 11.95 L29.25 10.5 Q30.0 9.45 29.65 9.5 28.75 8.0 23.95 5.7 20.55 4.05 19.1 3.9 L19.1 3.85 Q20.2 3.2 23.75 3.2 25.8 3.2 27.3 4.0 L29.8 6.15 Q30.1 5.95 29.15 4.7 28.2 3.45 27.45 3.05 26.65 2.65 26.85 2.6 L27.8 2.6 29.6 2.65 Q31.5 2.65 32.7 3.7 L33.1 4.05 Q33.65 4.9 33.65 6.25 L33.8 5.8 34.4 4.9 Q35.45 3.95 36.8 3.7 L38.8 3.75 38.75 3.8 Q37.95 4.05 36.85 5.05 35.75 6.05 35.25 7.1 L34.8 8.05 Q35.65 7.4 37.55 6.7 L40.1 6.0 40.1 8.0 39.55 9.9 38.4 11.95 Q37.4 13.25 35.95 13.85 L35.8 14.0 Q36.2 14.0 37.0 14.55 38.4 15.2 42.5 15.9 L47.8 16.25 Q47.55 17.1 45.85 18.65 43.85 20.4 42.55 20.6 L43.4 20.75 Q44.25 20.85 45.65 20.35 L45.7 20.35 44.9 21.7 43.1 23.45 42.6 23.9 41.5 24.5 42.65 25.25 43.1 25.55 42.55 25.15 42.6 25.15 43.95 25.85 46.95 26.3 47.8 26.3 47.25 25.0 46.15 22.55 46.75 23.25 47.7 24.6 48.6 25.65 Q49.0 25.65 49.0 25.1 L47.65 21.45 Q48.35 21.7 49.25 23.1 50.2 24.45 50.95 26.75 L50.9 23.45 Q50.8 22.65 49.8 20.8 L51.75 23.45 Q52.8 25.35 53.05 27.2 L53.1 28.2 Q53.1 29.75 52.15 32.15 L51.0 31.8 48.7 31.3 48.65 29.45 Q48.55 28.35 47.7 28.7 L46.45 28.7 46.3 31.4 45.3 37.8 45.25 38.15 44.2 37.7 44.15 37.65 44.65 36.15 44.65 35.8 44.65 35.7 44.8 33.95 44.95 30.1 44.5 28.25 44.2 27.9 Q43.8 27.5 43.2 27.35 L42.95 27.3 42.8 27.15 41.9 26.75 Q39.95 25.8 39.5 25.15 L39.4 25.15 38.85 24.85 Q38.05 24.4 37.55 24.3 L38.8 23.95 40.25 23.4 40.5 23.2 40.45 23.2 38.15 23.25 Q36.65 22.95 32.6 20.55 L28.5 18.1 Q31.45 18.45 34.6 19.8 35.75 20.3 37.5 20.6 L36.3 19.85 Q35.4 19.3 35.05 18.75 34.7 18.25 34.45 17.2 L35.75 17.7 Q38.2 18.6 39.85 18.6 L43.4 18.05 45.15 17.4 M4.1 22.15 L4.1 22.75 3.6 25.35 2.85 26.6 1.3 28.15 -0.65 27.15 -2.4 26.45 -2.45 26.4 -1.95 26.3 0.95 25.15 Q3.2 24.1 3.85 22.65 L4.1 22.15 M3.55 11.45 L1.35 11.85 Q-0.25 12.3 -1.0 12.85 L0.05 11.45 Q1.55 9.35 3.85 9.65 L7.6 10.35 8.8 10.75 8.55 10.9 6.1 11.1 3.55 11.45 M15.9 4.9 L12.7 6.7 Q11.0 7.45 8.8 7.6 L6.1 7.55 4.2 6.6 Q2.8 5.8 2.25 4.75 L3.55 4.7 Q5.45 5.65 8.3 5.85 11.35 6.0 15.9 4.9 M20.25 20.5 L21.5 20.35 23.5 20.2 Q24.75 20.15 27.1 20.95 L28.05 21.35 Q31.35 22.8 33.05 23.8 L32.9 23.8 28.9 22.9 30.5 24.15 31.75 24.7 32.3 24.8 33.15 25.0 33.5 25.05 33.75 25.1 35.75 25.3 36.05 25.3 36.6 25.45 33.5 25.7 27.4 25.4 Q25.0 24.9 23.6 23.9 L21.4 21.9 20.25 20.5 M21.65 9.95 L22.75 10.25 Q23.85 10.55 24.6 10.95 25.35 11.3 25.95 11.85 24.95 11.85 22.7 12.55 L19.85 13.55 19.35 13.85 18.7 14.1 Q18.05 14.35 17.75 14.7 17.4 15.05 20.3 15.85 L25.35 16.65 Q24.85 17.1 23.4 17.75 21.7 18.5 19.9 18.1 L17.5 17.4 16.6 16.9 15.85 16.6 15.55 16.6 Q15.75 16.6 16.65 18.85 17.2 19.95 17.9 20.55 16.55 20.3 14.85 19.05 L12.95 17.5 Q12.05 16.9 11.75 17.05 L10.3 17.1 Q9.0 17.05 6.85 18.05 5.9 18.5 5.4 18.95 5.1 17.35 7.6 15.45 10.05 13.55 12.2 13.75 L8.35 12.0 Q9.4 11.35 9.8 11.25 L10.7 11.1 11.95 10.9 13.35 11.2 13.4 11.05 13.75 10.1 Q14.1 9.2 15.15 8.35 16.15 7.45 17.05 7.25 L18.05 7.0 Q17.25 8.0 17.05 8.65 L16.7 10.25 Q16.55 11.2 16.85 10.8 18.0 9.75 21.65 9.95 M56.65 19.05 L56.65 18.6 56.7 18.65 56.7 19.1 56.65 19.05 M44.35 14.95 L43.9 14.9 44.45 14.9 44.35 14.95 M4.1 19.35 L2.75 21.25 0.75 23.25 0.95 21.55 Q1.55 20.95 2.15 20.5 3.5 19.45 4.1 19.35 M15.9 21.25 L17.4 23.4 17.4 23.55 Q17.4 24.0 17.75 24.55 L18.35 25.65 18.05 25.7 16.65 25.2 16.05 25.0 15.9 24.75 Q15.55 24.05 15.55 23.2 15.55 21.6 15.9 21.25 M11.95 21.4 L11.75 21.65 Q10.35 23.75 10.35 24.35 L10.4 24.55 Q9.95 25.05 9.5 26.1 8.8 27.8 8.8 28.65 L8.35 31.55 Q7.85 34.0 7.85 35.15 L8.0 37.1 8.25 38.1 8.0 38.15 7.45 38.35 7.2 37.3 6.75 33.8 Q6.6 32.3 7.05 29.6 7.5 26.85 7.7 26.45 L7.95 25.85 Q8.9 24.0 9.45 23.5 L11.4 21.8 Q11.7 21.55 11.95 21.4 M13.45 21.15 Q14.15 20.6 14.55 20.7 L14.25 21.6 14.15 22.15 14.05 22.15 Q13.45 22.3 13.45 23.0 L13.45 23.05 Q12.55 23.9 12.3 24.95 11.95 24.65 11.95 24.0 L12.0 23.5 Q12.1 22.8 12.5 22.25 L13.45 21.15 M2.65 18.2 L1.3 19.8 Q0.75 19.6 -1.15 20.8 L-3.35 22.35 Q-2.8 20.9 -1.25 19.0 0.95 16.25 2.5 15.45 4.05 14.65 6.55 14.15 4.4 16.0 2.65 18.2 M6.5 21.75 Q7.65 20.15 8.55 19.5 7.75 20.7 7.5 21.45 L6.75 23.65 6.0 26.0 5.4 28.7 Q5.0 30.4 5.0 31.9 4.9 33.65 5.2 34.4 L5.1 34.4 Q3.45 34.4 3.15 32.9 L3.1 31.0 Q3.1 29.05 3.75 27.05 L4.3 25.7 4.45 25.3 Q5.25 23.55 6.5 21.75" fill="#000000" fill-opacity="0.2509804" fill-rule="evenodd" stroke="none"/>
    </g>
    <radialGradient cx="0" cy="0" gradientTransform="matrix(0.039, 0.0, 0.0, 0.0321, 26.8, 20.5)" gradientUnits="userSpaceOnUse" id="gradient0" r="819.2" spreadMethod="pad">
      <stop offset="0.0" stop-color="#e9b479" stop-opacity="0.21960784"/>
      <stop offset="0.396078431372549" stop-color="#703c00" stop-opacity="0.3647059"/>
      <stop offset="0.6235294117647059" stop-color="#580b1e" stop-opacity="0.4392157"/>
    </radialGradient>
    <radialGradient cx="0" cy="0" gradientTransform="matrix(0.039, 0.0, 0.0, 0.0321, 26.8, 20.5)" gradientUnits="userSpaceOnUse" id="gradient1" r="819.2" spreadMethod="pad">
      <stop offset="0.0" stop-color="#000000" stop-opacity="0.0"/>
      <stop offset="0.6549019607843137" stop-color="#350000" stop-opacity="0.39215687"/>
      <stop offset="0.9607843137254902" stop-color="#580000" stop-opacity="0.64705884"/>
    </radialGradient>
    <radialGradient cx="0" cy="0" gradientTransform="matrix(0.0246, 0.0, 0.0, 0.0246, 36.65, 0.85)" gradientUnits="userSpaceOnUse" id="gradient2" r="819.2" spreadMethod="pad">
      <stop offset="0.0" stop-color="#ffffff" stop-opacity="0.08627451"/>
      <stop offset="0.6862745098039216" stop-color="#ffffff" stop-opacity="0.0"/>
    </radialGradient>
  </defs>
</svg>
