<svg xmlns="http://www.w3.org/2000/svg" xmlns:ffdec="https://www.free-decompiler.com/flash" xmlns:xlink="http://www.w3.org/1999/xlink" ffdec:objectType="frame" width="62.3" height="57"><g transform="translate(5.2 2.4)"><use ffdec:characterId="3" xlink:href="#a" width="59.8" height="40.95" transform="translate(-4.25 -.55)"/><clipPath id="b"><path fill="#946748" fill-rule="evenodd" d="M30.75.15q.35.05.8.25 1.05.45 2.3 1.05l-.2.15 3.05-.3q2.35.05 5.05 1.65l3.5 2.35 1.4 1.1q3.65 3.1 5.6 7.55t2.7 7.1l.6 3.4-.2 1.6q-.15.8-1 1.75l-1.1 1.2-.5 3.7-.1.15-.2.45-.45-.85-1.35-1.05-1.45-.4v1.85l-.1.65-.5 1.6-.8 1.9-1.35 1.8q-1.05 1.35-2.25 1.7 1.2-1.75 1.3-3.65.05-1.95-.85-4.65-5.5-1.05-9.45-4.95-3-2.95-4.25-7l-.75-2.55q-.85 5.65.15 11.25l.3 1.55q-1.6-1.4-2.65-4.15t-1.35-5.85q-.6 3.05.85 7.7 1 3.25 3.05 6-5.4-.9-7.85-4.25-2.5-3.4-2.45-6.7-.6 4.7 1.75 8.65l1.6 2.45v.05q-4-2.15-5.95-5.8-2-3.75-1.85-8.45-3.55 4.8-3.95 7.85-.35 2.5 0 3.6-.55-.55-.95-1.65-.45-1.1-.25-3.85-2 3.95-3.05 8.1-1.35-3.45-1.55-7.05L5.7 30.7q-.4 3.5.5 6.3.7 2.3 1.1 2.8-.45-.35-2.05-1.35-2.6-1.75-3.6-4.85l-.5-1.65Q.45 31.9-.3 33.3q-.55 1.65-.2 2.55-2.6-4-.45-11.85-1.1 1.3-1.8 3.55l-1 3.2-.3 1.25q-.65-5.65 1-9.9 1.6-4.3 4.6-9.05 3-4.8 6.8-7.8Q12.1 2.2 15.4 1q3.25-1.2 8.4-1.4zm22.35 21.7.2 6.3q.65-2.4.15-4.9z"/></clipPath><g clip-path="url(#b)"><use ffdec:characterId="5" xlink:href="#c" width="62.3" height="57" transform="translate(-5.2 -2.4)"/></g></g><defs><radialGradient id="d" cx="0" cy="0" r="819.2" gradientTransform="matrix(.0391 0 0 .0356 25.45 25.8)" gradientUnits="userSpaceOnUse" spreadMethod="pad"><stop offset=".478" stop-color="#2e5906" stop-opacity="0"/><stop offset="1" stop-color="#305b07" stop-opacity=".694"/></radialGradient><path id="a" fill="#65933b" fill-rule="evenodd" d="m53.1 21.75.2 6.3q.65-2.4.15-4.9zM45.25 5.2l1.4 1.1q3.65 3.1 5.6 7.55t2.7 7.1l.6 3.4-.2 1.6q-.15.8-1 1.75l-1.1 1.2-.5 3.7-.1.15-.2.45-.45-.85-1.35-1.05-1.45-.4v1.85l-.1.65-.5 1.6-.8 1.9-1.35 1.8q-1.05 1.35-2.25 1.7 1.2-1.75 1.3-3.65.05-1.95-.85-4.65-5.5-1.05-9.45-4.95-3-2.95-4.25-7l-.75-2.55q-.85 5.65.15 11.25l.3 1.55Q29.05 29 28 26.25t-1.35-5.85q-.6 3.05.85 7.7 1 3.25 3.05 6-5.4-.9-7.85-4.25-2.5-3.4-2.45-6.7-.6 4.7 1.75 8.65l1.6 2.45v.05q-4-2.15-5.95-5.8-2-3.75-1.85-8.45-3.55 4.8-3.95 7.85-.35 2.5 0 3.6-.55-.55-.95-1.65-.45-1.1-.25-3.85-2 3.95-3.05 8.1-1.35-3.45-1.55-7.05L5.7 30.6q-.4 3.5.5 6.3.7 2.3 1.1 2.8-.45-.35-2.05-1.35-2.6-1.75-3.6-4.85l-.5-1.65Q.45 31.8-.3 33.2q-.55 1.65-.2 2.55-2.6-4-.45-11.85-1.1 1.3-1.8 3.55l-1 3.2-.3 1.25q-.65-5.65 1-9.9 1.6-4.3 4.6-9.05 3-4.8 6.8-7.8Q12.1 2.1 15.4.9q3.25-1.2 8.4-1.4l6.95.55q.35.05.8.25 1.05.45 2.3 1.05l-.2.15 3.05-.3q2.35.05 5.05 1.65zm-20.4 28.9.1.1-.1-.05z" transform="translate(4.25 .55)"/><g id="c" fill-rule="evenodd"><path fill="#2e5806" fill-opacity=".898" d="m50.5 12.5 1.4 1.15q.95.75 1.65 1.85l.05.05q1.2 1.4 2.4 5.45 1 4.9 1 7.1l-.25 3.6q-.45 3.45-1.45 3.45-.65 0-.95-.7l-.2-.85.25-1.55.2-2.9-.2-2.3-.55-3.25-1.25-3.35-2.7-4.6.8.6.65.65.8 1 .35.5.45.85H53l.8 1.8.05.1.4.85.4.85v-.2q0-3.05-1.25-5.4-.3-1.5-3.3-4.35l-1.35-1.15zm-1.3 8.4 1.45 2.45q.8 1.35 1.45 3.4.65 2 .7 2.95v2.95q0 1.95-.4 3.5l-.7 2.5-1.35 2.5-.3-.65-.05-.95.05-1.9-.45-3.1-2.15-.6-1-.45-.3-.15-.9.15-.65-.3q-.5-.1-.9-.4L41.35 31q-2.3-2.25-4-4.95-.95-1.6-1.55-3.45-.3-1-.3-2l.2-3.55.3-2 .45-2 .15.3.9 4.5.7 3.2q.9 3.6 3.4 6.45 2.15 2.45 5.1 3.85l1.65.75.2-.8.05-.35q-2-1.55-4.75-5.4-.8-1.1-2.25-3.8l-1.35-2.8.05-.35.5.55 2.05 2.1 1.8 1.8q1.95 1.75 2.75 1.75l.35-.05-.3-.25-3.85-3.6q-4.25-4.9-4.25-6.05l.05-.15.2.3 1.55 1.85q2 2.65 3.2 3.4l3 2.95.3.25-.95-2.3-2.3-3.65-1.5-2.1.5.2q1.9.9 3.55 2.55zM32.35 8q1 0 2.65 1.1 1.4.9 1.6 1.4-1.3-.65-4.2-.6-3.7.05-4.75 1.25l-.5.2-.9.45.65-.8-.1-.05-1.15-.2-1.9.35-.95.3-.35-.05q-2.25 1.35-3.65 1.9l.05-.05 2.95-4.05 1.05-.7.6-.3.05-.05 2.2-.05q.95.25 2.1.9.5-.25 1.15-.5l.7-.2q-2.2-1.55-3.25-1.5h-2.95l.95-.6q1.75-1.1 3.5-1.1 1.55 0 2.5 2.3v.05l-.1.7 1.05.05zm-7.9 6.5.15.1-.2.25-2 3.95q-1.35 2.75-1.85 5.1-2.7 5.45-2.7 8.25l.3 1.35q0 .8-.75.8-.9 0-1.1-1l-.05-1.15q0-3.6 2.85-9.55 1.9-4.1 4.15-6.85zm1.2 4.05-.05.45-.25 7.05.5 2.9q.4 1.7 1 2.4l1.35 2.05 1.15 1.8-.2.5.25.6v.25l-2.1-2.2q-1.8-1.95-2.75-3.85-.7-2-.7-4.05 0-3.05 1.8-8.3zm2.1 2.4.05-.05v-.15zm1.25-4.4-.1.95.35 2.15.2 1.5.2.95 1.45 5.1 2.05 5.45q.8 1.75 1.95 3.25l1 1.15H36q-.9 0-2.15-.8l-.4-.4q-.8-.3-1.65-1.2-.75-.45-1.55-1.55l-1.6-2.5q-.4-.9-.7-2.2L27.5 26l-.2-1.65.25-3.1.4-3.2.35-1.6q.25-.95.65-1.6H29l-.1 1.1zm3 3.1.3-1.95 1 5.55.8 2.35.9 2.05.6 2.15.8 3.6.1.25q-1.3-.55-2.35-2.85l-1.1-1.85q-1-2.3-1.1-4.15v-.2l.05-.1zm1.75-7.3-.1.25-.1-.05.2-.25zm-22.95 6.4-1.6 3.2-.95 2.15-.6 1.95-.7 3.1q-.3 1.85-.2 3.75l.3 3.25-.05.35.35 2.15-.9-.1Q5.3 36.9 5.2 35.2L5 32.55v-2.3q.25-4 2.35-7.45l2.05-3.3q2.4-4.05 5.6-7.15l.35-.3Q13.6 14 12.3 16.25zm-4.35.8.65-.9q-.65 1.05-1.25 2.6Q4.9 23.7 4.3 26.3l-.15.3-.4 1.15-.25.5L2.3 31l-1.15 2.85-.1-1.1q0-1.2.6-3.35l1-3.1.45-1.2q1.3-2.6 3.35-5.55m2.4-3.05-.3.25.4-.5-.05.15zm4.2 5.45-.75 2.75-.5 2.4q-.35 1.65-.35 3.4-.05 1.9.15 3.8l-.5.7q.35 1.75 1.25 3.5l.6 1.25.55 1.25.15.5q.2.75.75 1.3l-.55.2q-1.65-.4-2.55-1.9l-.75-1.25-.8-1.65-.6-2-.2-1.05-.05-1.2.15-2.8q.25-3 2-5.8zm3.15 4.1q-.5 1.9-.65 3.85l-.4 2.25q-.7.5-.9 1.45-.1.7-.05 1.45l.2 2.55q-1.9.5-1.9-3.25T14.05 27t2.3-4.65l1.95-2.6.4-.5-1.4 3.55zM10.2 40l-.25-.5.4.85v.15z"/><path fill="#b4db91" fill-opacity=".694" d="M4.5 15.95q13.6 5.85 44.8 3.95Q23.35 26.35 2 21.5z"/><path fill="url(#d)" d="M57.1 25.8q0 11.9-9.3 20.35-9.2 8.4-22.3 8.45-13.15.05-21.95-7.55Q-5.3 39.4-5.2 28.1q.1-11.4 9.05-20.6 8.9-9.25 21.85-9.85Q38.6-3 47.8 5.4q9.3 8.45 9.3 20.4" transform="translate(5.2 2.4)"/></g></defs></svg>