<?xml version="1.0" encoding="UTF-8" standalone="no"?>
<svg xmlns:ffdec="https://www.free-decompiler.com/flash" xmlns:xlink="http://www.w3.org/1999/xlink" ffdec:objectType="frame" height="74.35px" width="68.2px" xmlns="http://www.w3.org/2000/svg">
  <g transform="matrix(1.0, 0.0, 0.0, 1.0, 7.6, 11.95)">
    <use ffdec:characterId="3" height="74.35" transform="matrix(1.0, 0.0, 0.0, 1.0, -7.6, -11.95)" width="68.2" xlink:href="#shape0"/>
  </g>
  <defs>
    <g id="shape0" transform="matrix(1.0, 0.0, 0.0, 1.0, 7.6, 11.95)">
      <path d="M5.7 -10.5 Q6.15 -7.85 7.7 -4.6 L6.9 -5.0 Q7.7 -1.7 9.35 1.9 L9.7 2.75 8.8 2.2 9.0 3.95 Q9.5 8.05 8.7 9.85 L8.4 9.15 8.35 9.75 7.3 15.45 4.35 17.15 Q1.3 11.55 1.55 7.25 L2.1 7.65 Q1.6 5.1 1.85 2.15 L2.55 3.4 2.35 1.6 Q2.25 -0.85 2.55 -2.85 L3.05 -2.3 Q2.75 -4.95 3.55 -7.95 L4.1 -7.25 Q4.1 -8.75 4.8 -10.3 L5.3 -11.4 5.55 -11.3 5.7 -10.5" fill="url(#gradient0)" fill-rule="evenodd" stroke="none"/>
      <path d="M50.45 -2.1 L50.95 -2.65 Q51.25 -0.65 51.15 1.8 L50.95 3.6 51.65 2.35 Q51.9 5.3 51.4 7.85 L51.95 7.45 Q52.2 11.8 48.75 17.85 L46.1 16.2 45.2 9.95 45.1 9.35 44.8 10.05 Q44.0 8.25 44.5 4.15 L44.7 2.4 43.5 2.95 Q46.05 -2.65 46.6 -4.8 L45.85 -4.7 48.0 -10.3 48.2 -11.2 48.7 -10.1 Q49.4 -8.55 49.4 -7.05 L49.95 -7.75 Q50.75 -4.75 50.45 -2.1" fill="url(#gradient1)" fill-rule="evenodd" stroke="none"/>
      <path d="M52.45 12.1 Q52.9 13.2 52.95 14.8 52.05 13.0 50.25 12.8 51.6 13.95 51.5 15.95 50.65 14.6 49.5 14.7 50.15 15.1 50.25 16.5 49.65 15.8 49.3 16.0 47.2 11.75 44.1 9.2 43.85 6.55 44.5 3.8 45.1 2.6 46.9 2.6 46.0 2.95 45.55 3.8 46.3 3.35 47.3 3.2 L49.25 3.25 Q47.8 3.7 46.95 4.6 48.4 3.85 49.95 4.3 51.1 4.6 52.6 5.55 L49.2 5.65 Q53.15 5.45 54.7 10.35 53.1 7.65 50.4 7.45 53.05 8.6 53.8 12.85 52.75 10.75 51.1 10.3 52.1 11.0 52.45 12.1 M6.55 2.15 Q8.35 2.2 8.95 3.4 9.55 6.15 9.25 8.8 6.1 11.3 3.95 15.5 3.6 15.3 3.0 16.0 3.1 14.6 3.75 14.2 2.6 14.1 1.75 15.45 1.7 13.4 3.05 12.3 1.25 12.45 0.3 14.25 0.4 12.65 0.85 11.55 1.25 10.45 2.25 9.8 0.6 10.2 -0.5 12.3 0.3 8.05 3.0 6.95 0.3 7.1 -1.35 9.75 0.25 4.9 4.2 5.15 L0.8 5.0 Q2.35 4.1 3.5 3.8 5.05 3.4 6.5 4.15 5.65 3.25 4.2 2.75 L6.15 2.75 Q7.15 2.9 7.9 3.4 7.45 2.5 6.55 2.15" fill="#f8f8f8" fill-rule="evenodd" stroke="none"/>
      <path d="M37.45 -3.95 L37.35 -3.2 Q39.9 -6.25 43.75 -8.6 L43.7 -7.6 44.05 -8.05 45.05 -9.2 45.1 -8.5 Q47.05 -10.2 47.9 -11.8 L48.3 -11.5 48.1 -10.6 Q47.45 -8.1 46.25 -5.3 L46.0 -4.8 46.7 -5.1 Q45.9 -1.8 44.25 1.8 L43.9 2.65 44.8 2.1 44.6 3.85 Q44.1 7.95 44.9 9.75 L45.3 9.65 46.2 15.9 29.9 5.9 30.2 4.7 Q30.5 3.6 31.15 2.45 31.95 0.95 33.25 -0.6 L33.35 0.35 Q34.3 -1.3 36.0 -2.85 L37.45 -3.95" fill="url(#gradient2)" fill-rule="evenodd" stroke="none"/>
      <path d="M5.3 -11.4 L5.6 -11.95 Q6.4 -10.2 8.5 -8.4 L8.55 -9.1 9.55 -7.95 Q9.55 -7.75 9.9 -7.5 L9.85 -8.5 Q13.7 -6.15 16.25 -3.1 L16.15 -3.85 17.6 -2.75 Q19.3 -1.2 20.25 0.45 L20.35 -0.5 Q21.65 1.05 22.45 2.55 23.1 3.7 23.4 4.8 L23.7 6.05 7.3 15.45 8.35 9.75 8.7 9.85 Q9.5 8.05 9.0 3.95 L8.8 2.2 9.7 2.75 9.35 1.9 Q7.7 -1.7 6.9 -5.0 L7.6 -4.7 7.4 -5.2 Q6.1 -8.05 5.7 -10.5 L5.55 -11.3 5.3 -11.4" fill="url(#gradient3)" fill-rule="evenodd" stroke="none"/>
      <path d="M17.85 -2.1 L16.6 -3.55 19.95 0.0 20.15 -0.3 20.5 -0.65 21.85 1.4 22.85 3.1 22.6 3.45 Q16.8 4.15 14.2 5.7 L9.8 8.05 9.5 8.0 9.45 7.75 10.65 6.7 Q11.75 5.9 12.3 5.6 L14.35 3.7 15.95 3.8 Q17.6 2.35 17.7 1.05 18.85 1.4 19.05 1.6 19.55 0.65 18.25 -1.5 L18.05 -1.75 17.85 -2.1 M36.95 -3.45 Q35.3 -1.9 35.3 -1.4 34.0 0.75 34.5 1.7 L35.85 1.15 Q35.95 2.45 37.6 3.9 L39.2 3.8 Q40.5 5.25 41.25 5.7 L42.9 6.8 44.1 7.85 44.05 8.1 43.75 8.15 39.35 5.8 Q36.75 4.25 30.95 3.55 L30.7 3.2 31.7 1.5 33.05 -0.55 33.4 -0.2 Q33.55 0.1 33.9 -0.65 34.25 -1.4 36.95 -3.45" fill="#d2d2d2" fill-rule="evenodd" stroke="none"/>
      <path d="M8.95 48.35 L9.3 48.55 Q3.0 44.35 3.8 35.25 1.05 44.4 8.95 48.35 M54.35 35.55 Q56.55 42.65 55.3 45.9 54.35 48.45 50.55 50.35 59.75 48.5 54.35 35.55 M45.25 10.05 L45.5 10.35 45.6 10.45 Q50.95 16.35 53.1 27.45 57.35 42.7 60.6 43.15 57.5 42.8 56.25 38.75 59.6 50.6 49.3 51.0 45.65 51.85 44.2 53.1 42.7 54.35 42.45 57.35 42.2 60.35 46.45 62.4 36.55 58.8 40.05 51.4 38.05 53.7 38.55 56.45 36.15 52.95 43.5 44.9 L41.4 45.45 Q47.4 41.45 43.45 28.2 42.85 31.15 41.3 33.15 42.35 28.7 41.4 25.15 41.85 29.55 40.45 32.35 39.45 33.4 37.4 33.6 38.85 27.25 36.55 20.25 37.95 29.1 34.35 33.6 36.4 24.8 32.6 17.8 34.95 26.05 31.85 34.2 L29.05 34.4 Q29.35 32.35 28.65 29.65 28.7 32.25 28.0 34.45 L25.05 34.4 Q23.55 31.4 23.5 26.5 22.9 32.1 23.8 34.6 20.45 27.65 21.55 20.25 19.45 28.25 21.85 34.15 L19.8 33.85 Q18.45 32.3 17.8 28.85 L18.4 33.45 Q17.75 32.85 17.1 33.2 12.8 25.85 16.95 17.4 11.85 23.85 14.05 33.05 L10.65 31.6 Q9.95 29.75 9.75 27.9 5.6 41.45 11.6 45.45 L9.5 44.9 Q16.85 52.95 14.45 56.45 14.95 53.7 12.95 51.4 16.45 58.8 6.55 62.4 9.75 60.45 10.25 58.6 9.15 59.85 8.0 59.85 9.85 58.25 10.1 56.3 10.3 54.35 8.8 53.1 7.35 51.85 3.7 51.0 -6.6 50.6 -3.25 38.75 -4.5 42.8 -7.6 43.15 -4.35 42.7 -0.1 27.45 2.1 16.0 7.75 10.05 10.8 6.85 15.55 5.0 20.0 3.25 25.2 3.05 L25.95 3.05 26.5 3.05 27.8 3.05 29.2 3.15 Q33.6 3.5 37.45 5.0 42.2 6.85 45.25 10.05 M-1.35 35.55 Q-6.75 47.7 1.25 50.25 -1.35 48.45 -2.3 45.9 -3.55 42.65 -1.35 35.55" fill="url(#gradient4)" fill-rule="evenodd" stroke="none"/>
      <path d="M51.55 31.15 L53.35 34.35 48.7 22.4 Q52.8 30.3 54.55 35.8 56.15 40.8 55.6 44.85 55.25 47.45 52.7 49.1 50.15 50.7 46.25 51.2 42.35 51.65 41.95 55.9 41.55 60.1 46.4 62.3 41.2 60.35 41.3 55.7 41.55 50.0 48.25 48.55 47.45 49.15 46.6 49.7 51.7 49.55 53.1 42.65 53.05 47.9 49.75 49.35 57.8 46.6 51.55 31.15 M46.8 27.25 Q47.5 29.25 47.6 31.1 L47.5 33.95 47.25 31.3 46.6 36.7 46.6 31.45 Q46.45 29.1 45.55 26.3 46.75 28.35 47.0 29.25 L46.8 27.25 M49.4 36.6 Q49.75 42.45 46.1 46.45 43.9 48.95 41.0 50.45 38.3 52.8 38.45 56.6 37.9 52.9 39.65 50.95 42.65 46.7 44.85 45.15 L41.95 48.8 43.9 47.4 Q45.4 46.25 46.65 44.2 47.9 42.1 48.55 37.35 48.85 32.1 47.5 26.15 49.05 30.75 49.4 36.6 M51.25 44.9 Q52.2 43.5 51.85 40.7 50.95 46.3 46.35 47.85 52.15 44.6 50.35 35.65 52.5 40.15 51.45 33.85 54.05 41.0 51.25 44.9 M47.15 40.25 Q46.15 44.6 41.4 45.45 43.25 44.1 44.15 41.85 45.95 37.2 43.35 28.3 45.55 19.4 37.15 9.55 47.7 20.15 44.5 28.1 47.1 37.05 44.6 42.45 47.15 41.0 47.7 35.25 47.9 37.85 47.15 40.25 M41.35 33.1 Q42.3 29.65 41.25 25.15 42.0 29.2 40.45 32.35 39.15 33.8 37.45 33.6 38.95 28.4 36.4 19.8 38.15 29.75 34.4 33.55 36.2 25.35 33.0 18.8 34.8 26.4 31.9 34.15 L29.0 34.25 Q29.2 32.45 28.7 30.45 28.65 32.85 27.85 34.5 L24.9 34.35 24.4 33.05 Q23.35 30.1 23.45 26.75 23.05 31.3 23.65 34.5 20.55 27.75 21.4 20.7 19.35 27.6 21.9 34.15 20.75 34.3 19.55 33.6 18.5 32.15 17.95 29.4 L18.4 33.4 17.05 33.35 Q12.95 26.8 16.7 18.15 L16.95 17.55 16.5 18.05 Q15.55 19.1 14.9 20.45 12.45 25.3 14.0 33.05 L10.55 31.55 Q10.05 30.0 9.9 28.55 6.55 37.3 9.15 42.55 10.0 44.25 11.55 45.65 5.35 44.25 5.65 37.4 6.25 41.6 8.95 43.1 L8.75 42.75 Q5.45 36.95 8.9 27.4 7.5 28.95 5.0 29.35 L4.95 29.35 5.0 29.35 5.25 29.1 Q8.3 27.65 10.15 23.1 10.65 20.9 11.9 18.85 9.6 24.35 10.7 29.45 L11.45 30.1 Q11.3 27.3 12.1 25.05 11.85 27.7 12.65 30.3 12.25 24.65 14.45 20.2 15.55 17.8 17.45 15.8 L17.5 15.75 19.0 14.25 18.05 16.15 Q17.55 17.2 17.2 18.3 15.05 24.35 16.55 30.4 16.25 25.55 17.85 21.35 17.55 25.15 19.1 30.4 18.3 24.85 19.3 21.5 19.15 24.95 19.6 26.65 20.05 21.45 22.35 16.35 L23.15 13.9 23.6 12.75 Q21.5 20.75 22.5 28.85 22.45 25.35 24.4 20.25 L24.35 20.5 Q23.6 27.45 24.9 32.05 24.4 29.25 25.2 23.7 25.55 28.5 26.0 29.2 L28.0 29.35 Q28.5 27.65 28.1 24.5 29.35 27.35 29.15 29.4 L29.35 29.4 29.45 29.4 32.3 28.75 Q33.5 21.7 31.1 13.45 L33.25 17.9 Q36.05 23.0 35.9 27.85 36.45 23.7 36.05 21.15 L35.55 18.0 34.95 15.35 Q38.55 22.15 38.7 28.65 39.3 28.8 40.1 28.05 40.85 27.25 40.75 24.85 40.65 22.55 39.6 16.6 44.05 24.65 41.35 33.1 M5.0 29.35 Q7.1 26.95 7.95 21.7 8.8 15.1 13.65 12.3 9.2 15.85 8.7 20.8 7.75 26.7 5.0 29.35 M3.6 36.7 Q3.95 30.85 5.5 26.25 4.15 32.2 4.45 37.45 5.1 42.2 6.35 44.3 7.6 46.35 9.1 47.5 L11.05 48.9 8.15 45.25 Q10.35 46.8 13.35 51.05 15.1 53.0 14.55 56.7 14.7 52.9 12.0 50.55 9.1 49.05 6.9 46.55 3.25 42.55 3.6 36.7 M1.15 40.8 Q0.8 43.6 1.75 45.0 -1.05 41.1 1.55 33.95 0.5 40.25 2.65 35.75 0.85 44.7 6.65 47.95 2.05 46.4 1.15 40.8 M0.55 26.65 Q-0.45 31.85 -2.5 35.85 L0.55 26.65 M10.15 57.9 Q10.85 57.05 10.9 54.6 10.95 52.15 6.8 51.5 2.65 50.85 0.3 49.3 -2.25 47.55 -2.6 44.95 -3.15 40.9 -1.55 35.9 0.2 30.4 4.3 22.5 L-0.35 34.45 1.45 31.25 Q-4.8 46.7 3.25 49.45 -0.05 48.0 -0.1 42.75 1.3 49.65 6.4 49.8 L4.75 48.65 Q12.0 50.95 12.45 54.0 12.85 57.0 11.9 58.85 10.95 60.65 6.6 62.4 9.95 60.85 10.9 58.2 9.45 59.65 7.95 59.85 L10.15 57.9" fill="#c9c7d8" fill-rule="evenodd" stroke="none"/>
      <path d="M16.6 15.65 L15.85 16.55 15.75 16.5 12.15 16.3 10.0 16.5 Q10.9 15.1 12.05 14.1 L12.55 13.7 13.0 13.7 13.9 14.0 17.4 14.85 16.6 15.65 M10.0 10.2 Q9.6 11.05 9.95 12.0 10.25 12.9 11.25 13.35 L10.2 14.5 Q9.3 15.55 8.7 16.55 L8.35 16.65 7.4 16.75 Q4.75 17.45 2.05 23.85 3.4 17.7 5.7 14.4 7.95 11.1 11.4 8.25 L10.0 10.2 M33.15 14.0 L33.4 14.0 33.85 14.8 34.9 17.3 33.65 17.5 33.45 16.7 Q33.25 15.75 32.45 14.15 L33.1 14.0 33.15 14.0 M38.1 13.5 Q38.85 14.8 39.05 15.6 L39.15 16.35 Q37.95 16.45 36.95 16.9 L36.4 17.05 36.3 16.8 36.25 16.5 Q35.95 14.95 35.35 13.9 L38.1 13.5 M22.3 15.55 L21.95 16.2 21.4 17.5 18.0 17.0 18.9 15.5 19.1 15.2 19.85 15.35 22.3 15.55 M26.35 17.9 L26.7 15.15 30.5 14.5 30.75 15.25 31.45 17.75 26.35 17.9 M25.85 16.6 L25.7 17.85 25.05 17.8 23.2 17.65 23.8 15.75 23.9 15.45 26.1 15.2 25.85 16.6 M41.35 16.25 L41.5 16.5 40.15 16.35 40.1 15.95 39.75 14.4 39.45 13.65 41.35 16.25 M41.55 12.4 L41.6 12.4 Q44.4 11.85 42.75 8.75 47.2 14.5 48.0 16.0 L50.9 23.65 Q47.9 17.6 46.05 17.2 L43.6 16.85 43.25 15.85 Q42.5 13.95 41.45 12.45 L41.55 12.4" fill="#ffffff" fill-rule="evenodd" stroke="none"/>
    </g>
    <linearGradient gradientTransform="matrix(0.0, 0.0174, -0.005, 0.0, 5.65, 2.85)" gradientUnits="userSpaceOnUse" id="gradient0" spreadMethod="pad" x1="-819.2" x2="819.2">
      <stop offset="0.0" stop-color="#f8d7d1"/>
      <stop offset="0.47843137254901963" stop-color="#e3c1bf"/>
    </linearGradient>
    <linearGradient gradientTransform="matrix(0.0, 0.0177, -0.0052, 0.0, 47.75, 3.3)" gradientUnits="userSpaceOnUse" id="gradient1" spreadMethod="pad" x1="-819.2" x2="819.2">
      <stop offset="0.0" stop-color="#f8d7d1"/>
      <stop offset="0.47843137254901963" stop-color="#e3c1bf"/>
    </linearGradient>
    <linearGradient gradientTransform="matrix(0.0, 0.0169, -0.0112, 0.0, 39.1, 2.05)" gradientUnits="userSpaceOnUse" id="gradient2" spreadMethod="pad" x1="-819.2" x2="819.2">
      <stop offset="0.0" stop-color="#ffffff"/>
      <stop offset="0.7098039215686275" stop-color="#d2d2d2"/>
    </linearGradient>
    <linearGradient gradientTransform="matrix(0.0, 0.0167, -0.0112, 0.0, 14.5, 1.75)" gradientUnits="userSpaceOnUse" id="gradient3" spreadMethod="pad" x1="-819.2" x2="819.2">
      <stop offset="0.0" stop-color="#ffffff"/>
      <stop offset="0.7098039215686275" stop-color="#d2d2d2"/>
    </linearGradient>
    <linearGradient gradientTransform="matrix(0.0, 0.0362, -0.0416, 0.0, 26.5, 32.7)" gradientUnits="userSpaceOnUse" id="gradient4" spreadMethod="pad" x1="-819.2" x2="819.2">
      <stop offset="0.0" stop-color="#e1e1e1"/>
      <stop offset="1.0" stop-color="#ffffff"/>
      <stop offset="1.0" stop-color="#f9f9f9"/>
    </linearGradient>
  </defs>
</svg>
