<?xml version="1.0" encoding="UTF-8" standalone="no"?>
<svg xmlns:ffdec="https://www.free-decompiler.com/flash" xmlns:xlink="http://www.w3.org/1999/xlink" ffdec:objectType="frame" height="53.45px" width="59.55px" xmlns="http://www.w3.org/2000/svg">
  <g transform="matrix(1.0, 0.0, 0.0, 1.0, 3.3, 2.15)">
    <use ffdec:characterId="3" height="53.45" transform="matrix(1.0, 0.0, 0.0, 1.0, -3.3, -2.15)" width="59.55" xlink:href="#shape0"/>
  </g>
  <defs>
    <g id="shape0" transform="matrix(1.0, 0.0, 0.0, 1.0, 3.3, 2.15)">
      <path d="M45.95 47.2 Q47.55 44.6 48.15 42.2 L46.8 42.8 44.9 46.65 45.85 42.95 Q42.05 43.45 37.3 41.7 27.75 38.3 21.7 27.1 L23.6 31.05 Q25.9 35.45 27.9 37.9 25.5 36.15 22.5 32.05 17.6 25.3 14.8 16.2 12.7 19.9 11.55 25.35 10.95 28.25 10.8 30.35 10.45 28.4 10.6 25.15 L10.85 22.35 Q8.6 26.55 8.35 31.8 8.2 34.4 8.5 36.15 7.7 33.15 7.6 29.4 6.4 34.25 7.2 40.95 7.6 44.3 8.2 46.7 6.15 43.0 4.7 37.95 4.25 42.25 7.25 47.2 8.7 49.55 10.2 51.1 L10.4 51.3 Q5.25 49.0 2.05 42.75 -2.65 33.55 1.35 20.45 -1.85 25.75 -1.7 32.65 -1.65 36.15 -0.9 38.6 L-1.35 37.5 Q-3.55 31.65 -3.25 24.8 -2.5 9.8 12.8 3.75 13.55 1.85 17.25 0.1 21.3 -1.8 26.25 -2.1 39.45 -2.9 48.3 7.8 56.7 17.95 56.25 29.3 56.05 34.15 54.6 37.55 L54.1 38.6 Q54.85 36.15 54.9 32.65 55.05 25.75 51.85 20.45 55.85 33.55 51.15 42.75 47.95 49.0 42.8 51.3 L43.0 51.1 Q44.5 49.55 45.95 47.2" fill="url(#gradient0)" fill-rule="evenodd" stroke="none"/>
      <path d="M51.85 20.45 L51.75 20.2 Q50.35 15.6 47.9 10.65 55.5 20.0 55.55 30.2 55.6 34.5 54.6 37.55 L54.1 38.6 Q54.85 36.15 54.9 32.65 55.05 25.75 51.85 20.45 M44.65 19.35 L45.35 23.05 Q43.5 22.5 41.05 20.7 39.1 19.25 37.4 17.4 L34.85 14.1 Q33.85 12.6 33.0 10.9 L36.2 14.15 39.75 16.8 40.8 17.45 Q43.05 18.8 44.65 19.35 M45.9 26.8 L46.35 30.85 46.4 31.55 Q41.75 31.1 36.65 28.45 27.55 23.8 20.95 14.0 L18.35 9.8 19.8 11.4 25.9 16.95 Q31.1 21.05 37.1 23.8 42.1 26.1 45.6 26.75 L45.9 26.8 M45.85 42.95 Q42.05 43.45 37.3 41.7 27.75 38.3 21.7 27.1 L23.6 31.05 Q25.9 35.45 27.9 37.9 26.05 36.15 24.05 33.3 20.15 27.6 19.7 22.3 21.9 26.35 25.75 29.9 L29.2 32.6 25.65 27.9 Q21.75 22.15 20.2 16.7 27.15 28.6 37.5 34.15 42.65 36.95 46.5 37.35 46.35 40.25 45.85 42.8 L45.85 42.95 M45.95 47.2 Q47.55 44.6 48.15 42.2 48.7 40.0 48.5 37.95 L48.55 37.8 49.0 36.1 Q52.05 23.6 47.3 14.15 50.6 19.1 51.7 26.25 53.85 40.35 43.0 51.1 44.5 49.55 45.95 47.2 M42.55 24.1 Q38.6 21.75 35.15 17.9 39.35 21.55 45.6 24.4 L45.75 25.7 Q44.5 25.3 42.55 24.1 M9.4 13.9 Q11.6 10.15 14.45 8.7 12.1 11.15 10.6 14.15 7.8 19.45 7.6 26.5 L7.6 29.4 Q6.4 34.25 7.2 40.95 7.6 44.3 8.2 46.7 2.85 27.75 8.1 16.3 L9.4 13.9 M1.35 20.45 Q-1.85 25.75 -1.7 32.65 -1.65 36.15 -0.9 38.6 L-1.35 37.5 Q-2.4 34.5 -2.35 30.2 -2.3 20.0 5.3 10.65 2.85 15.65 1.45 20.2 L1.35 20.45 M12.75 14.35 L13.65 11.95 14.8 16.2 Q12.7 19.9 11.55 25.35 10.95 28.25 10.8 30.35 10.45 28.4 10.6 25.15 L10.85 22.35 Q11.35 18.35 12.75 14.35 M4.65 37.8 L4.7 37.95 Q4.25 42.25 7.25 47.2 8.7 49.55 10.2 51.1 -0.65 40.35 1.5 26.25 2.6 19.1 5.9 14.15 1.15 23.6 4.2 36.1 L4.65 37.8" fill="#b26656" fill-opacity="0.6" fill-rule="evenodd" stroke="none"/>
      <path d="M48.15 42.2 L46.8 42.8 Q47.75 40.55 48.5 37.95 48.7 40.0 48.15 42.2" fill="#b26656" fill-opacity="0.69411767" fill-rule="evenodd" stroke="none"/>
      <path d="M43.95 19.1 L43.25 13.3 43.65 14.85 44.65 19.35 45.35 23.05 45.6 24.4 45.75 25.7 45.9 26.8 46.35 30.85 46.4 31.55 46.5 37.35 Q46.35 40.25 45.85 42.8 L45.85 42.95 43.7 43.05 44.3 36.95 44.5 31.3 44.4 26.5 44.35 25.1 44.3 23.8 44.2 22.65 44.2 22.5 43.95 19.1" fill="#b26656" fill-opacity="0.69411767" fill-rule="evenodd" stroke="none"/>
      <path d="M30.2 15.2 L29.1 14.05 28.0 12.6 27.0 11.4 Q31.9 13.65 37.5 18.4 34.35 17.1 32.25 16.5 L34.25 19.1 Q36.8 22.1 39.35 23.9 36.05 22.45 32.1 20.1 24.25 15.45 21.3 11.05 L30.2 15.2 M48.65 32.4 Q48.25 36.65 47.25 39.4 L47.2 30.85 Q46.7 21.05 44.65 14.9 45.75 16.5 47.25 20.1 L47.55 16.7 Q49.45 23.95 48.65 32.4 M4.25 14.65 Q6.65 10.5 12.4 7.6 10.2 9.75 8.1 13.7 3.95 21.55 4.65 30.5 3.25 24.75 4.85 18.25 5.65 15.0 6.7 12.9 5.2 13.85 3.95 16.1 L2.95 18.2 Q3.0 16.7 4.25 14.65 M16.85 20.15 Q14.65 14.75 14.85 10.6 15.45 13.8 17.65 16.6 17.4 15.3 17.5 13.65 L17.65 12.3 Q18.2 15.3 19.75 18.55 20.45 20.15 21.1 21.15 19.55 20.55 18.25 18.7 L18.35 20.45 Q18.55 22.6 19.05 24.7 17.95 22.85 16.85 20.15" fill="#ffffff" fill-opacity="0.49803922" fill-rule="evenodd" stroke="none"/>
    </g>
    <linearGradient gradientTransform="matrix(0.0, 0.0319, -0.0317, 0.0, 27.1, 25.45)" gradientUnits="userSpaceOnUse" id="gradient0" spreadMethod="pad" x1="-819.2" x2="819.2">
      <stop offset="0.2784313725490196" stop-color="#fdfdc9"/>
      <stop offset="1.0" stop-color="#feb894"/>
    </linearGradient>
  </defs>
</svg>
