<?xml version="1.0" encoding="UTF-8" standalone="no"?>
<svg xmlns:ffdec="https://www.free-decompiler.com/flash" xmlns:xlink="http://www.w3.org/1999/xlink" ffdec:objectType="frame" height="56.65px" width="57.0px" xmlns="http://www.w3.org/2000/svg">
  <g transform="matrix(1.0, 0.0, 0.0, 1.0, 2.85, 10.45)">
    <use ffdec:characterId="4" height="56.65" transform="matrix(1.0, 0.0, 0.0, 1.0, -2.85, -10.45)" width="57.0" xlink:href="#shape0"/>
  </g>
  <defs>
    <g id="shape0" transform="matrix(1.0, 0.0, 0.0, 1.0, 2.85, 10.45)">
      <path d="M28.4 16.85 L28.1 19.0 27.65 19.0 Q28.2 17.6 28.25 16.3 L28.3 14.95 28.4 16.85 M21.4 4.6 L21.4 4.55 23.15 5.2 Q25.7 6.05 26.9 9.2 L27.25 10.2 26.35 8.25 Q25.9 7.3 24.9 6.3 23.95 5.3 21.4 4.65 L21.4 4.6 M21.15 4.6 L21.05 4.55 21.1 4.55 21.15 4.6 M34.15 1.9 Q36.55 5.25 36.55 9.35 36.55 11.0 35.65 15.85 L35.05 19.0 34.05 19.0 34.7 15.3 35.55 9.35 Q35.55 5.85 33.4 2.65 31.25 -0.5 28.85 -0.5 27.2 -0.5 26.55 0.1 L25.5 1.25 25.2 1.85 Q25.3 -0.45 28.1 -1.45 30.9 -2.45 34.15 1.9 M30.15 -7.4 L27.3 -6.6 Q25.05 -5.85 23.2 -3.35 21.95 -1.6 21.45 0.5 L21.4 0.5 21.4 0.25 Q22.3 -2.75 24.0 -5.05 25.65 -7.35 28.6 -7.6 L30.65 -7.45 30.15 -7.4 M29.0 -8.0 Q24.7 -8.15 22.45 -3.75 20.85 -0.55 20.85 2.9 L21.05 4.45 21.05 4.55 19.25 3.75 19.25 3.5 Q19.6 -0.3 20.3 -2.45 21.05 -5.0 22.5 -6.9 25.1 -10.5 28.9 -10.45 32.65 -10.45 35.3 -7.95 37.95 -5.45 39.7 -1.85 41.45 1.8 41.85 8.25 41.8 14.05 39.95 19.0 L35.65 19.0 Q38.45 13.65 38.45 8.5 38.45 -2.15 29.9 -3.65 L30.5 -3.9 31.95 -4.05 Q32.9 -3.95 34.2 -3.1 35.5 -2.25 36.55 -1.05 37.55 0.1 38.9 4.6 38.35 0.75 37.45 -1.15 36.5 -3.1 35.0 -4.15 L34.8 -4.3 Q36.75 -3.5 38.4 -1.8 35.6 -6.2 33.15 -7.0 L31.65 -7.3 31.4 -7.45 29.0 -8.0" fill="#75ddbe" fill-rule="evenodd" stroke="none"/>
      <path d="M30.15 -7.4 L30.65 -7.45 28.6 -7.6 Q25.65 -7.35 24.0 -5.05 22.3 -2.75 21.4 0.25 L21.4 0.5 21.45 0.5 Q21.95 -1.6 23.2 -3.35 25.05 -5.85 27.3 -6.6 L30.15 -7.4 M29.0 -8.0 L31.4 -7.45 31.65 -7.3 33.15 -7.0 Q35.6 -6.2 38.4 -1.8 36.75 -3.5 34.8 -4.3 L35.0 -4.15 Q36.5 -3.1 37.45 -1.15 38.35 0.75 38.9 4.6 37.55 0.1 36.55 -1.05 35.5 -2.25 34.2 -3.1 32.9 -3.95 31.95 -4.05 L30.5 -3.9 29.9 -3.65 Q38.45 -2.15 38.45 8.5 38.45 13.65 35.65 19.0 L35.05 19.0 35.65 15.85 Q36.55 11.0 36.55 9.35 36.55 5.25 34.15 1.9 30.9 -2.45 28.1 -1.45 25.3 -0.45 25.2 1.85 L25.5 1.25 26.55 0.1 Q27.2 -0.5 28.85 -0.5 31.25 -0.5 33.4 2.65 35.55 5.85 35.55 9.35 L34.7 15.3 34.05 19.0 28.1 19.0 28.4 16.85 28.3 14.95 Q28.0 12.55 27.25 10.2 L26.9 9.2 Q25.7 6.05 23.15 5.2 L21.4 4.55 21.4 4.6 21.4 4.65 21.35 4.75 21.15 4.6 21.1 4.55 21.05 4.55 21.05 4.45 20.85 2.9 Q20.85 -0.55 22.45 -3.75 24.7 -8.15 29.0 -8.0" fill="#28a7aa" fill-rule="evenodd" stroke="none"/>
      <path d="M47.2 10.6 L48.7 12.4 Q50.2 13.75 51.8 15.8 L52.6 17.05 52.85 17.55 53.5 19.15 Q54.15 21.05 54.15 22.7 54.15 23.95 53.75 25.05 L53.3 25.8 53.05 26.15 Q53.45 27.9 53.45 29.45 53.45 31.2 52.9 32.35 52.1 34.0 50.0 35.1 L49.65 35.1 49.3 36.05 Q47.9 39.3 46.65 40.75 46.05 42.35 46.05 43.3 46.05 44.7 47.25 45.3 L47.55 45.35 46.45 45.45 45.5 44.85 44.9 44.35 44.65 44.0 44.2 42.8 43.0 43.7 42.85 43.8 42.5 44.05 40.1 45.2 Q44.35 40.65 46.45 33.35 L46.45 33.15 46.6 32.6 46.85 31.35 46.85 31.15 46.45 31.65 45.3 32.55 44.6 33.05 44.4 33.1 43.75 33.45 44.9 31.0 Q45.45 29.15 45.45 27.35 L45.45 26.9 44.2 29.2 42.8 30.25 42.2 30.5 42.5 30.1 43.25 28.4 41.8 29.8 41.8 29.85 41.05 30.55 41.95 28.4 42.15 26.75 Q42.15 24.65 41.75 23.65 L41.7 23.6 Q41.55 25.0 40.6 26.65 39.6 28.25 38.1 29.05 L37.4 29.3 38.25 28.0 Q38.85 26.85 38.8 25.85 38.75 24.8 38.7 25.75 38.55 26.65 37.85 27.25 L36.85 28.05 36.6 28.15 Q36.6 28.1 36.05 28.4 L34.95 28.9 35.75 28.25 36.7 26.25 37.1 25.25 37.6 23.25 36.75 25.15 36.65 25.35 36.65 25.4 Q35.8 26.9 34.3 27.8 L33.15 28.3 33.9 27.65 33.9 27.6 34.35 26.8 34.9 25.65 34.9 25.55 33.95 26.55 Q33.5 26.95 32.25 27.45 L31.3 27.75 32.35 26.4 33.3 24.45 33.45 23.5 33.05 24.25 Q32.2 25.65 30.95 26.35 L28.95 27.25 Q28.25 27.45 28.6 27.15 L28.7 27.05 29.15 26.4 29.95 24.55 Q28.55 27.05 26.05 28.3 L27.95 29.8 27.55 30.0 25.15 29.45 23.45 28.55 21.7 27.25 Q20.6 26.25 19.95 25.15 19.25 24.0 18.95 21.85 L18.9 22.45 19.0 24.4 19.0 24.45 19.1 25.15 19.5 26.75 Q19.75 27.65 20.25 28.25 L20.25 28.3 19.3 27.6 18.3 26.2 17.8 25.0 17.75 25.0 17.9 26.7 18.25 28.65 17.45 27.45 16.05 25.05 Q15.25 23.4 15.2 22.15 15.05 23.05 15.05 25.05 L15.05 25.3 15.05 27.15 Q15.15 28.1 16.05 30.05 L15.7 29.9 Q13.55 29.2 13.2 27.2 L13.2 28.45 13.7 29.9 13.7 29.95 13.9 30.15 13.55 30.0 Q12.45 29.3 11.7 28.0 L10.9 26.1 10.95 28.3 Q11.05 29.35 11.6 30.75 L11.5 30.75 10.45 29.3 Q9.55 27.85 9.75 28.65 L10.2 30.75 Q10.45 32.05 11.05 33.1 9.05 31.4 8.3 29.85 L7.5 27.3 7.2 30.2 7.4 32.65 7.55 33.8 8.5 38.2 Q9.55 41.3 10.25 42.3 L11.0 43.5 11.05 43.6 11.5 44.3 11.6 44.4 12.9 45.6 Q13.9 46.55 13.2 46.05 12.55 45.55 11.65 45.15 L10.4 44.4 9.35 43.55 7.95 42.15 8.1 42.55 7.95 43.6 7.05 44.75 5.75 45.2 5.45 45.1 Q6.45 44.25 6.45 43.0 6.45 41.7 6.0 40.55 L5.5 39.2 4.9 38.45 4.7 38.2 4.0 38.35 Q1.25 38.35 0.2 34.85 -0.25 33.35 -0.3 31.65 L-0.9 31.0 -2.1 29.25 Q-2.85 27.1 -2.85 26.15 -2.85 22.2 -0.05 17.4 1.9 14.1 4.45 11.65 5.15 10.5 6.0 9.45 8.15 6.85 11.8 4.65 15.45 2.4 25.2 1.35 L28.4 1.4 Q40.7 2.0 46.55 9.9 L47.2 10.6 M52.65 24.65 L52.85 25.3 52.95 25.1 53.25 24.2 Q53.0 21.9 51.1 19.05 L50.65 18.35 51.2 21.95 52.65 24.65 M51.25 23.15 L51.25 23.35 51.4 23.4 51.25 23.15 M51.25 27.25 L51.55 26.95 51.25 26.15 51.25 27.25 M52.15 29.9 L51.8 27.9 51.6 28.0 51.5 28.25 51.2 28.5 51.15 30.05 Q50.95 31.65 49.9 34.45 50.9 33.85 51.75 32.55 52.15 31.85 52.15 29.9 M44.7 42.45 L44.65 42.45 44.65 42.6 44.7 42.45 M24.35 23.95 L24.55 25.3 24.6 25.55 24.6 25.6 24.65 25.9 24.65 26.0 24.8 26.8 24.9 26.9 25.0 26.85 25.05 26.65 25.45 26.3 Q26.05 25.5 26.3 24.45 L25.6 23.35 24.55 21.35 24.35 23.95 M1.5 20.25 L1.7 19.15 Q-0.95 22.8 -0.95 26.1 L-0.9 26.75 -0.95 27.5 -0.5 30.55 -0.35 31.15 -0.35 30.85 Q-0.35 27.95 0.6 24.55 L1.4 22.05 1.5 20.25 M18.8 23.55 L18.85 23.95 18.85 24.05 18.95 24.4 18.8 23.4 18.8 23.55 M1.6 28.95 L1.5 27.9 Q0.85 30.5 0.85 31.4 0.85 33.3 1.5 34.85 2.4 36.8 4.2 37.25 L3.0 34.2 Q1.8 30.85 1.6 28.95 M10.85 43.5 L10.9 43.55 10.65 43.2 10.85 43.5" fill="url(#gradient0)" fill-rule="evenodd" stroke="none"/>
      <path d="M49.9 15.9 Q51.25 17.05 52.4 18.7 54.25 22.1 53.0 25.55 L52.95 25.15 52.95 25.1 53.25 24.2 Q53.0 21.9 51.1 19.05 L50.65 18.35 50.8 18.95 50.3 17.9 48.2 15.5 Q49.15 15.35 49.8 15.9 L49.9 15.9 M48.0 16.7 Q49.75 20.3 49.65 24.5 49.6 28.4 48.6 31.8 47.55 35.45 45.65 38.25 L41.65 43.35 Q44.75 39.25 46.45 33.35 L46.45 33.15 46.6 32.6 46.85 31.35 46.85 31.15 46.65 31.4 46.5 31.55 46.45 31.6 48.05 27.85 48.1 27.85 Q48.85 23.85 48.75 22.1 L48.1 17.8 Q47.75 16.4 47.2 15.35 L48.0 16.7 M40.5 13.45 Q41.95 15.6 42.5 17.3 L43.5 21.55 Q43.9 24.05 43.6 25.4 L43.3 26.75 Q42.7 28.85 41.15 30.35 L41.95 28.4 42.15 26.75 42.1 25.3 42.0 24.5 41.8 23.75 41.6 24.2 41.6 23.25 41.55 22.6 40.5 19.5 Q39.9 17.4 38.2 15.8 L40.0 16.85 Q39.2 14.65 38.0 12.65 L38.1 12.95 Q35.65 9.3 33.3 8.4 34.8 8.0 36.9 9.5 39.05 11.3 40.5 13.45 M44.2 19.9 Q45.65 23.15 44.8 27.0 L44.1 28.95 43.9 29.25 43.35 29.85 42.8 30.25 42.2 30.5 42.5 30.1 43.25 28.4 42.9 28.85 43.95 26.2 44.15 25.2 Q44.7 22.65 44.0 20.4 L43.6 19.4 44.2 19.9 M44.25 16.65 Q42.85 13.6 41.0 12.05 L42.8 13.25 Q45.0 14.55 46.65 18.9 48.1 22.75 47.15 27.1 46.45 30.55 43.9 33.4 L43.85 33.4 43.75 33.45 43.85 33.35 44.9 31.0 Q45.45 29.15 45.45 27.35 L45.45 26.9 45.0 28.0 Q46.0 25.4 45.85 22.55 45.65 19.7 44.25 16.65 M51.2 21.95 L52.65 24.6 52.55 27.5 52.7 30.55 52.7 30.65 Q51.95 33.6 49.9 34.85 L49.9 35.1 49.65 35.1 49.5 35.5 49.65 35.0 49.7 35.0 49.9 34.85 49.9 34.45 49.9 33.95 50.3 33.35 49.9 34.45 Q50.9 33.85 51.75 32.55 52.1 31.9 52.15 30.3 L52.15 29.9 51.8 27.9 51.75 27.9 51.6 28.0 51.5 28.25 51.25 28.5 51.25 27.2 51.55 26.95 51.25 26.25 51.25 24.65 51.25 23.35 51.4 23.4 51.25 23.15 51.2 21.95 M44.65 42.45 L44.65 42.6 44.7 42.45 44.65 42.45 M45.1 44.55 L44.9 44.35 44.65 44.0 44.35 43.25 Q44.55 40.05 46.5 37.65 L47.3 36.75 Q45.05 40.95 45.35 43.5 45.5 44.5 45.8 45.05 L45.5 44.85 45.1 44.55 M26.4 12.9 Q28.35 13.9 28.35 16.85 L27.9 20.65 26.95 23.15 26.15 24.9 26.3 24.45 25.6 23.35 24.55 21.35 24.45 22.1 Q24.2 19.2 24.6 15.9 L24.7 15.25 Q24.9 17.5 25.95 19.75 L26.25 19.3 26.95 16.1 Q26.9 12.95 26.35 13.15 L26.4 12.9 M23.6 12.4 Q23.05 15.5 23.15 19.4 23.2 23.15 24.25 26.05 L24.7 27.05 24.8 27.15 Q26.6 26.25 27.65 24.0 29.2 20.7 30.1 17.2 29.9 20.2 28.95 22.95 27.9 25.95 25.15 27.55 L25.65 28.05 26.05 28.3 26.3 28.55 26.45 28.7 27.95 29.8 Q24.55 29.6 22.75 26.9 20.95 24.2 21.3 20.1 21.65 16.2 23.25 13.15 L23.6 12.4 M33.5 15.8 Q35.5 18.35 35.0 22.5 34.5 26.3 31.5 27.6 L32.35 26.4 33.3 24.45 33.3 24.4 33.45 23.5 33.05 24.25 31.8 25.75 32.5 24.85 Q33.85 22.2 33.8 18.1 L33.5 15.8 M32.8 20.95 Q31.75 24.8 28.9 26.8 L28.85 26.85 29.15 26.4 29.95 24.55 29.65 25.05 Q30.65 23.1 31.15 20.65 32.0 16.8 30.95 13.4 L30.7 12.3 32.5 15.2 Q33.1 17.75 32.8 20.7 L32.8 20.95 M38.1 19.9 L37.9 17.0 Q39.45 19.85 38.65 23.85 L37.7 26.85 36.35 28.25 36.05 28.4 34.95 28.9 35.75 28.25 36.7 26.25 37.1 25.25 37.5 23.8 37.55 23.4 Q38.05 21.8 38.1 19.9 M39.9 20.5 Q41.3 25.25 38.35 28.9 L38.1 29.05 37.4 29.3 38.25 28.0 Q38.85 26.85 38.8 25.85 L39.9 20.6 39.9 20.5 M36.2 15.1 Q35.65 13.1 34.8 11.5 37.0 14.0 37.25 18.1 37.55 22.25 36.25 25.25 L34.9 27.4 34.3 27.8 33.15 28.3 33.9 27.65 33.9 27.6 34.35 26.8 34.9 25.65 34.9 25.55 34.75 25.75 Q35.6 24.35 36.1 22.5 37.1 18.7 36.2 15.1 M5.2 14.95 Q3.65 17.95 3.3 21.75 2.95 25.75 4.5 29.4 L4.5 28.8 Q4.5 25.15 5.35 21.35 6.2 17.55 7.7 15.3 6.4 21.0 6.9 24.25 L7.45 27.6 7.2 30.2 7.4 32.65 7.55 33.8 7.95 35.5 8.05 36.15 8.5 38.2 Q9.55 41.3 10.25 42.3 L11.0 43.5 11.05 43.6 11.5 44.3 11.6 44.4 12.9 45.6 13.0 45.7 Q10.95 44.45 9.35 42.7 7.25 40.3 5.9 36.35 5.0 33.85 4.7 31.5 L4.5 31.15 Q2.95 28.1 2.6 24.3 2.25 20.3 4.1 16.85 L5.25 14.85 5.2 14.95 M2.2 18.3 L1.6 19.25 Q-0.95 22.85 -0.95 26.1 L-0.9 26.75 -0.95 27.5 -0.5 31.45 -0.4 32.3 -0.55 31.4 Q-0.8 30.3 -0.8 31.0 -1.85 27.9 -1.75 24.7 -1.6 20.8 0.65 18.65 L3.1 16.35 2.2 18.3 M20.1 15.9 Q19.25 18.5 19.15 22.45 L19.15 23.0 18.95 21.85 18.9 22.45 19.0 24.4 19.0 24.45 19.1 25.15 19.5 26.75 Q19.75 27.65 20.25 28.25 L20.25 28.3 19.95 28.2 Q18.9 26.55 18.35 24.5 17.35 20.65 19.25 17.5 L20.1 15.9 M12.7 20.2 Q12.5 23.9 13.35 27.25 L13.7 28.45 Q13.3 27.9 13.2 27.2 L13.2 28.45 13.7 29.9 13.7 29.95 13.9 30.15 13.55 30.0 13.15 29.75 13.0 29.55 Q11.4 26.95 12.0 23.05 12.2 21.65 12.7 20.2 M15.2 22.15 Q15.05 23.05 15.05 25.05 L15.05 25.3 15.05 27.15 Q15.15 28.1 16.05 30.05 L15.7 29.9 15.55 29.85 Q14.35 28.45 13.75 26.45 L13.7 26.45 Q12.85 22.65 14.85 19.7 L15.6 18.7 Q15.2 20.85 15.4 23.3 L15.2 22.15 M18.8 23.55 L18.85 23.95 18.85 24.05 18.95 24.4 18.8 23.4 18.8 23.55 M17.0 16.6 Q17.9 13.65 19.4 11.8 18.45 14.6 17.75 18.35 17.05 21.75 17.8 25.0 L17.75 25.0 17.9 26.7 18.05 27.65 Q17.2 26.0 16.75 23.95 15.95 20.25 17.0 16.6 M14.7 8.7 Q10.5 13.75 10.6 20.35 10.6 26.95 10.9 26.5 L10.95 28.3 11.05 28.85 11.6 30.75 11.5 30.75 10.45 29.3 Q9.55 27.85 9.75 28.65 L10.2 30.75 Q10.45 32.05 11.05 33.1 L10.3 32.45 10.15 32.3 Q9.1 30.5 8.75 27.95 8.15 24.0 9.65 16.7 11.15 9.35 14.7 8.7 M1.55 28.5 L1.5 27.9 Q0.85 30.5 0.85 31.4 0.85 33.3 1.5 34.85 2.4 36.8 4.2 37.25 L4.15 37.1 4.2 37.15 4.6 38.25 4.3 38.35 4.2 38.1 3.5 37.7 Q0.4 36.75 0.25 32.65 0.1 28.7 1.45 25.5 L1.7 25.0 Q1.5 26.65 1.55 28.5 M8.1 42.55 L8.1 42.6 8.15 42.9 7.95 43.6 7.05 44.75 5.75 45.2 5.45 45.1 6.0 44.55 6.1 44.5 6.1 44.4 6.5 44.3 7.0 43.7 Q7.4 41.05 6.2 39.25 L6.05 39.05 6.1 39.1 6.2 39.25 Q7.2 40.55 7.95 42.2 L8.1 42.55 M10.85 43.5 L10.9 43.55 10.65 43.2 10.85 43.5" fill="#1ea1a8" fill-opacity="0.8" fill-rule="evenodd" stroke="none"/>
      <path d="M0.0 17.25 L0.05 16.85 3.15 12.9 Q11.75 17.0 21.15 18.45 13.5 19.6 0.0 17.25 M49.6 13.1 L50.85 14.3 51.6 15.75 51.8 16.1 Q40.2 19.0 32.15 18.35 40.7 17.05 49.15 12.6 L49.6 13.1" fill="#d7faf9" fill-opacity="0.6" fill-rule="evenodd" stroke="none"/>
    </g>
    <linearGradient gradientTransform="matrix(0.0, -0.0278, 0.0274, 0.0, 25.6, 23.8)" gradientUnits="userSpaceOnUse" id="gradient0" spreadMethod="pad" x1="-819.2" x2="819.2">
      <stop offset="0.1843137254901961" stop-color="#1ea2a8"/>
      <stop offset="1.0" stop-color="#8aecc4"/>
    </linearGradient>
  </defs>
</svg>
