<svg xmlns="http://www.w3.org/2000/svg" xmlns:ffdec="https://www.free-decompiler.com/flash" xmlns:xlink="http://www.w3.org/1999/xlink" ffdec:objectType="frame" width="78.65" height="72.7"><use ffdec:characterId="1" xlink:href="#a" width="78.65" height="72.7"/><defs><radialGradient id="b" cx="0" cy="0" r="819.2" gradientTransform="matrix(.0502 0 0 .0383 23.1 6.75)" gradientUnits="userSpaceOnUse" spreadMethod="pad"><stop offset="0" stop-color="#eedbcf"/><stop offset="1" stop-color="#f5a6c0"/></radialGradient><radialGradient id="c" cx="0" cy="0" r="819.2" gradientTransform="translate(48.2 -33.35)scale(.0363)" gradientUnits="userSpaceOnUse" spreadMethod="pad"><stop offset="0" stop-color="#eedbcf"/><stop offset="1" stop-color="#f5b4c9"/></radialGradient><radialGradient id="d" cx="0" cy="0" r="819.2" gradientTransform="translate(62.55 -24.6)scale(.0037)" gradientUnits="userSpaceOnUse" spreadMethod="pad"><stop offset="0" stop-color="#eedbcf"/><stop offset="1" stop-color="#f5b4c9"/></radialGradient><radialGradient id="e" cx="0" cy="0" r="819.2" gradientTransform="translate(50.6 -40.55)scale(.0156)" gradientUnits="userSpaceOnUse" spreadMethod="pad"><stop offset="0" stop-color="#eedbcf"/><stop offset="1" stop-color="#f5b4c9"/></radialGradient><radialGradient id="f" cx="0" cy="0" r="819.2" gradientTransform="translate(63.25 -14.4)scale(.0141)" gradientUnits="userSpaceOnUse" spreadMethod="pad"><stop offset="0" stop-color="#eedbcf"/><stop offset="1" stop-color="#f5b4c9"/></radialGradient><radialGradient id="g" cx="0" cy="0" r="819.2" gradientTransform="translate(25 -46.05)scale(.0052)" gradientUnits="userSpaceOnUse" spreadMethod="pad"><stop offset="0" stop-color="#eedbcf"/><stop offset="1" stop-color="#f5b4c9"/></radialGradient><radialGradient id="h" cx="0" cy="0" r="819.2" gradientTransform="translate(13.4 -38.75)scale(.0215)" gradientUnits="userSpaceOnUse" spreadMethod="pad"><stop offset="0" stop-color="#eedbcf"/><stop offset="1" stop-color="#f5b4c9"/></radialGradient><radialGradient id="i" cx="0" cy="0" r="819.2" gradientTransform="translate(20.9 -40.35)scale(.0065)" gradientUnits="userSpaceOnUse" spreadMethod="pad"><stop offset="0" stop-color="#eedbcf"/><stop offset="1" stop-color="#f5b4c9"/></radialGradient><radialGradient id="j" cx="0" cy="0" r="819.2" gradientTransform="translate(26.15 -36.6)scale(.0044)" gradientUnits="userSpaceOnUse" spreadMethod="pad"><stop offset="0" stop-color="#eedbcf"/><stop offset="1" stop-color="#f5b4c9"/></radialGradient><radialGradient id="k" cx="0" cy="0" r="819.2" gradientTransform="translate(38.9 -31)scale(.0147)" gradientUnits="userSpaceOnUse" spreadMethod="pad"><stop offset="0" stop-color="#eedbcf"/><stop offset="1" stop-color="#f5b4c9"/></radialGradient><radialGradient id="l" cx="0" cy="0" r="819.2" gradientTransform="translate(13.95 -36.35)scale(.0055)" gradientUnits="userSpaceOnUse" spreadMethod="pad"><stop offset="0" stop-color="#eedbcf"/><stop offset="1" stop-color="#f5b4c9"/></radialGradient><radialGradient id="m" cx="0" cy="0" r="819.2" gradientTransform="translate(19.15 -37.05)scale(.0013)" gradientUnits="userSpaceOnUse" spreadMethod="pad"><stop offset="0" stop-color="#eedbcf"/><stop offset="1" stop-color="#f5b4c9"/></radialGradient><radialGradient id="n" cx="0" cy="0" r="819.2" gradientTransform="matrix(0 0 0 0 0 0)" gradientUnits="userSpaceOnUse" spreadMethod="pad"><stop offset="0" stop-color="#eedbcf"/><stop offset="1" stop-color="#f5b4c9"/></radialGradient><radialGradient id="o" cx="0" cy="0" r="819.2" gradientTransform="translate(52.85 -29.9)scale(.0103)" gradientUnits="userSpaceOnUse" spreadMethod="pad"><stop offset="0" stop-color="#eedbcf"/><stop offset="1" stop-color="#f5b4c9"/></radialGradient><radialGradient id="p" cx="0" cy="0" r="819.2" gradientTransform="translate(56.95 -37.7)scale(.0022)" gradientUnits="userSpaceOnUse" spreadMethod="pad"><stop offset="0" stop-color="#eedbcf"/><stop offset="1" stop-color="#f5b4c9"/></radialGradient><radialGradient id="q" cx="0" cy="0" r="819.2" gradientTransform="translate(50.55 -18.35)scale(.0052)" gradientUnits="userSpaceOnUse" spreadMethod="pad"><stop offset="0" stop-color="#eedbcf"/><stop offset="1" stop-color="#f5b4c9"/></radialGradient><radialGradient id="r" cx="0" cy="0" r="819.2" gradientTransform="translate(59.05 -17.5)scale(.0013)" gradientUnits="userSpaceOnUse" spreadMethod="pad"><stop offset="0" stop-color="#eedbcf"/><stop offset="1" stop-color="#f5b4c9"/></radialGradient><radialGradient id="s" cx="0" cy="0" r="819.2" gradientTransform="translate(65.15 -14.05)scale(.012)" gradientUnits="userSpaceOnUse" spreadMethod="pad"><stop offset="0" stop-color="#eedbcf"/><stop offset="1" stop-color="#f5b4c9"/></radialGradient><radialGradient id="t" cx="0" cy="0" r="819.2" gradientTransform="translate(49.05 -24.55)scale(.0007)" gradientUnits="userSpaceOnUse" spreadMethod="pad"><stop offset="0" stop-color="#eedbcf"/><stop offset="1" stop-color="#f5b4c9"/></radialGradient><radialGradient id="u" cx="0" cy="0" r="819.2" gradientTransform="translate(56.2 -4.35)scale(.0063)" gradientUnits="userSpaceOnUse" spreadMethod="pad"><stop offset="0" stop-color="#eedbcf"/><stop offset="1" stop-color="#f5b4c9"/></radialGradient><radialGradient id="v" cx="0" cy="0" r="819.2" gradientTransform="translate(57.15 -6.35)scale(.0002)" gradientUnits="userSpaceOnUse" spreadMethod="pad"><stop offset="0" stop-color="#eedbcf"/><stop offset="1" stop-color="#f5b4c9"/></radialGradient><radialGradient id="w" cx="0" cy="0" r="819.2" gradientTransform="translate(65.1 -1.55)scale(.015)" gradientUnits="userSpaceOnUse" spreadMethod="pad"><stop offset="0" stop-color="#eedbcf"/><stop offset="1" stop-color="#f5b4c9"/></radialGradient><radialGradient id="x" cx="0" cy="0" r="819.2" gradientTransform="translate(62 3.2)scale(.0166)" gradientUnits="userSpaceOnUse" spreadMethod="pad"><stop offset="0" stop-color="#eedbcf"/><stop offset="1" stop-color="#f5b4c9"/></radialGradient><radialGradient id="y" cx="0" cy="0" r="819.2" gradientTransform="translate(52.2 4.1)scale(.0059)" gradientUnits="userSpaceOnUse" spreadMethod="pad"><stop offset="0" stop-color="#eedbcf"/><stop offset="1" stop-color="#f5b4c9"/></radialGradient><radialGradient id="z" cx="0" cy="0" r="819.2" gradientTransform="translate(59.35 -5.95)scale(.0003)" gradientUnits="userSpaceOnUse" spreadMethod="pad"><stop offset="0" stop-color="#eedbcf"/><stop offset="1" stop-color="#f5b4c9"/></radialGradient><radialGradient id="A" cx="0" cy="0" r="819.2" gradientTransform="translate(68.65 2.85)scale(.0066)" gradientUnits="userSpaceOnUse" spreadMethod="pad"><stop offset="0" stop-color="#eedbcf"/><stop offset="1" stop-color="#f5b4c9"/></radialGradient><radialGradient id="B" cx="0" cy="0" r="819.2" gradientTransform="translate(60.25 10.7)scale(.0051)" gradientUnits="userSpaceOnUse" spreadMethod="pad"><stop offset="0" stop-color="#eedbcf"/><stop offset="1" stop-color="#f5b4c9"/></radialGradient><radialGradient id="C" cx="0" cy="0" r="819.2" gradientTransform="translate(54.35 7.15)scale(.0076)" gradientUnits="userSpaceOnUse" spreadMethod="pad"><stop offset="0" stop-color="#eedbcf"/><stop offset="1" stop-color="#f5b4c9"/></radialGradient><radialGradient id="D" cx="0" cy="0" r="819.2" gradientTransform="translate(53.7 7.8)scale(.006)" gradientUnits="userSpaceOnUse" spreadMethod="pad"><stop offset="0" stop-color="#eedbcf"/><stop offset="1" stop-color="#f5b4c9"/></radialGradient><g id="a" fill-rule="evenodd"><path fill="url(#b)" d="M20.3-37.35h5.35q3.85 0 8.65 1.65 4.7 1.6 7.2 3.7l4.9 4.2 2.45 2.7 1.65 3.9q1 2.65 1.55 6.3l.1 1.05-1.35-1.55q-1.45-1.2-3.45-1.65 1.15 21.4-.65 25.7l-3.1 3.1q-3.65 3.15-6.5 4.65-2.9 1.5-5.8 2.45l-8.3.5-8.35-.5q-2.9-.95-5.8-2.45-2.85-1.5-6.5-4.65Q.55 10.15-2.2-1.9q-2.75-12-2.1-14.95l2.4-6.3q1.5-3.45 3.6-6.5L4.45-32q2.5-2.1 7.2-3.7 4.8-1.65 8.65-1.65" transform="translate(4.4 53.35)"/><path fill="url(#c)" d="M26.45-49.2 27-50q1.3-1.75 3.1-2.65 1.3-.7 2.3-.7 2.95 0 7.85 5.9l.05.05q-.05.15.5.75l1.25 1.5.75.95-.05.05 1.9 2.95 2.65 5.6.2.1.6 1.6q1.7 3.6 2.15 7.5l.25.55v.7l.1.1.05.1.05.05v.2l.1.8-.5.3-.65.5-.1.05h-.05l-.05.1-.05.05-.1.1-.05.05-.1.1v.3l.05.05.1.05h.05V-21l.05.1v.05l.05.05-.15.1v1.3l.05 1.3q0 .45.15.95l.05.2.25.6q.45 1.05 1.5 2.15l-.1-1.2.05-.8q.1-1.1.6-2.15l-.25-3.85v-.1l.55-.35.1-.05.1-.1.1-.05.2-.15h.05l.55-.25.65-.4h.1l.05-.05.05-.05.1-.05.3-.1.15-.05.05-.05.45-.1.4-.15h.05l.15-.05.3-.05h.1l.1-.05.4-.15.3-.05.3-.05.5-.15.35-.05.25-.05.1-.05h.05l1.4-.15.7-.05.1-.05h2.25l1.85.2.2.05.45.15.75.15.7.05h.05l.05-.05v-.2l-.15-.05-.25-.05q-.1 0-.25-.1h-.05l-.2-.05h-.35v-.2l-.3-.1-.45-.05-.3-.05-.15-.05H63l-1.3-.1-1.65-.05-2.3.1-.4.1-.85.1-.9.1 1.15-.2 1.5-.25q-1.65-2.75-4.2-5.45l-.95-1-.05-.05-1.85-1.6v.15l-.05-.05-.25-.3-.05-.05-.1-.15-1.35-1-.5-.35-.85-.5-.1-.2 1.3.2h.6l1.55.1 2.55.25.95.15.5.1.85.15 4.15 1.4.6.3q2.5 1.25 4 3.1 1.3 1.65 1.7 3.6l.15 1.65v.25l.6.25q3.35 1.55 4.55 3.05.85 1.1 1.1 3.65v.2L73-18l-1-.55-1.85-.4-2.3-.15q-3.95 0-7.45 1.1l-.45.15.05-.05.4-.2q3.25-1.6 4.65-2.95l.85-1 .15-.25H64.4l-4 .7q-4.85 1.6-7.5 6.55l-.7 1.45v.2l.2.15h-.2v.75l.55-.05-.25 1.6-.1 1.2-.1-1.15-.3-.6q-2.7-.95-3.1-1.6-.25-.3-.5-1.7l-.15-1.1h-.05l-.05-.15-.05-.2-.95-2.65-1.55-3.2-2.05-3.2L40.7-29l-6.8-6.35-.1-.05-.15-.15h1.05q2.45.9 4.95 2.45 4.95 3.05 9.15 8-1.55-3.25-5.3-6.4l-1.85-1.45L40-34l-3.05-1.5q-3.45-1.35-7.15-1.35h-.85l-1.45-.05-2.25.05-1.15.2-.65.3-.1.05v-.3l.1-.05.15-.25.05-.2.05-2.35q.25-2.1.85-4.1l.15-.65q.35-.65-.2-1l-.25.1-.2.2.1-.25.5-1.1q1.1-1.85 2.15-3.1zm28.8 40.8q-.85 1.45-.85 2.2h-.1l-1-1.6-.8-1.45.1.1q.35.3.9-.35l.55-.65.3.1.25.8.2.3zM48.8-25.1l.45 1.1v-.55zm12.55.1h-.5l-.45.05h-.65l.1.45.55-.05 1.75-.15h.35l2.9.55-1.15-.5-.15-.05-1.6-.25zM49.9-21.05v-.05l.4-.35.05-.05.35-.25.35-.25v.05l-.1.15-.2.15-.1.05-.25.2z" transform="translate(4.4 53.35)"/><path fill="url(#d)" d="m61.35-25 1.15.05 1.6.25.15.05 1.15.5-2.9-.55h-.35l-1.75.15-.55.05-.1-.45h.65l.45-.05z" transform="translate(4.4 53.35)"/><path fill="url(#e)" d="M40.25-47.45h.05v.05zm.65.15 5.5 1.55q4.05 1.1 7.75 3.6l2 1.45.7.7.15.15.3.45q0 .15.15.05l-.2.6v.05q-.05.8-.9 2.65l.65-.6h.95q1.4.15 2.45 1.85l.3.55.3.6-.6-.3-4.15-1.4-.85-.15-.5-.1-.95-.15L51.4-36l-1.55-.1h-.6l-1.3-.2-.45-1.1-.15-.6-.4-1.7-2.15-5.2q-2.85-1.95-3.9-2.4" transform="translate(4.4 53.35)"/><path fill="url(#f)" d="m40.3-47.45.6.15q1.05.45 3.9 2.4l2.15 5.2.4 1.7.15.6.45 1.1.1.2q1.2 2.8 2.05 5.95l.1.3.05.15.05.2v.1l.7 3 .05.2.15.1.05.05.1.85v1.05l-.5.2-.05.05-.1-.8v-.2l-.05-.05-.05-.1-.1-.1v-.7l-.25-.55q-.45-3.9-2.15-7.5l-.6-1.6-.2-.1-2.65-5.6-1.9-2.95.05-.05-.75-.95-1.25-1.5q-.55-.6-.5-.75zM73.1-17.9q1.15.9 1.15 2.7v.05l-1.05-.75-1.1-.35q-2.05-1-6.5-.15-3.15.55-5.2 1.4l-1.55.8-2.75 1.85q.8-.55 3.75-1.45l.55-.15 5.1-.65q2.7.1 4.65.9 1.9.8 2.2 1.55l.3.9-1 1.4-3.5-.4q-2.7 0-6.05.9-2.2.6-3.1 1.25l.05.2.2.55.25.15.25.15.1.35-.05.3-.05.1-.15.15-.15.15-.1.05h-.25L59.05-6l-.5-.7-.3-.45v-.35l-.1-.2-.9 1.1-.1.15q-.7-.5-1.4-1.25l-.3-.35.05-.05-.25-.3-.45-.55-.2-.3-.25-.8-.3-.1-.55.65q-.55.65-.9.35l-.1-.1-.1-.35v-.15l.1-1.2.25-1.6-.55.05v-.75h.2l-.2-.15v-.2l.7-1.45q2.65-4.95 7.5-6.55l4-.7h1.65l-.15.25-.85 1q-1.4 1.35-4.65 2.95l-.4.2-.25.1-1.25.55-.4.15q1.6 0 1.85-.75l.45-.15q3.5-1.1 7.45-1.1l2.3.15 1.85.4 1 .55zM22.8-36.55l-1.1-.3v-.1q-.1-1.65.4-3.2l.7-1.85v-.35l.05-.1.1-.1.35-.9v-.05l.2-.55.25-.3.2-.3v-.15l.1-.1.2-.2.25-.1q.55.35.2 1l-.15.65q-.6 2-.85 4.1l-.05 2.35-.05.2-.15.25-.1.05zm-2.75-.8-.05.2-.05.15-.1.05h-.25l-.05.05-.1.1h-.05l-.05.1-.1.05h-.35l-.2-.2-.4-.35-.1-.05-.5-.5-.15-.15v-.15l.1-.1.2-.05.15-.05-.3-.8-.4-.85-.05-.05v-.1l-.1-.1-.15-.2-.3-.15-.1-.25q-.1-.2-.05-.35v-.05l.05.05.1-.1.1-.05.45-.05.55.35.15.3q-.15.05.25.45l.95 1.35v.05l.25.35.1.05.1.1.1.15.1.1v.2l.25.3v.2m31 15.4V-22l.2-.1v.45l-.05.55zm1.8 8.75-.35-.15.05.1zm-.45-.05.15.15v-.15zm2.5 17.2.35-.65.55-.6.15-.25.2-.1q.05-.55.35-.95l.35-.45.65-.5.15.1.1.05v.25l-.85 1.6-.6 1.35-.05.05-.55 1.95q-.5 1.95-.45 2.4l.15 1.75.25.75.15.75.55.65.2.4-.1.15-.2.15h-.15l-.2-.05-.4-.55-.25-.4-.05-.1-.05-.15-.05-.1v-.05l-.1-.05h-.1l-.6-.75-.35-.5-.15-.35-.1-.4q-.35-.35-.3-.8l.05-.75v-.1l.05-.1q-.05-.6.15-1.15l.55-1 .5-1.25z" transform="translate(4.4 53.35)"/><path fill="url(#g)" d="m26.45-49.2.35-.15q-1.05 1.25-2.15 3.1l-.5 1.1-.1.25-.1.1v.15l-.2.3-.25.3-.2.55v.05l-.05-.9v-.4z" transform="translate(4.4 53.35)"/><path fill="url(#h)" d="m9.65-34.95-1.25.75q-5.2 3.4-7.1 5.3l-.45.55-.55.1q.15-1.75.85-3.95l.8-2.5q2.4-6.45 6.6-7.45l.7-.1 2.25-.25q3.25 0 5.05 1.35v.05q-.05.15.05.35l.1.25.3.15.15.2.1.1v.1l.05.05.4.85.3.8-.15.05-.2.05-.1.1v.15l.15.15h-.35l-2.25.1-.1.05v.35l-.05.3-.35.05-2.2.6q-1.3.45-2.75 1.35m7.05-6.25 1.6-2.2q3.55-4.05 8.15-5.8l-3.2 4.45v.4q-2 1.9-4.1 5.5l-.95-1.35q-.4-.4-.25-.45l-.15-.3-.55-.35-.45.05z" transform="translate(4.4 53.35)"/><path fill="url(#i)" d="m23.35-36.4-.55-.15.55-.05zm-1.65-.55-.45-.1-1.2-.3v-.2l-.25-.3v-.2l-.1-.1-.1-.15-.1-.1-.1-.05-.25-.35v-.05q2.1-3.6 4.1-5.5l.05.9-.35.9-.1.1-.05.1v.35l-.7 1.85q-.5 1.55-.4 3.2" transform="translate(4.4 53.35)"/><path fill="url(#j)" d="m28.95-36.85-4.2.3-.8.15-.35.1-.25.05v-.05l.1-.05.65-.3 1.15-.2 2.25-.05z" transform="translate(4.4 53.35)"/><path fill="url(#k)" d="M34.7-35.55q-2.9-1.1-5.75-1.3h.85q3.7 0 7.15 1.35L40-34l1.65 1.05 1.85 1.45q3.75 3.15 5.3 6.4-4.2-4.95-9.15-8-2.5-1.55-4.95-2.45" transform="translate(4.4 53.35)"/><path fill="url(#l)" d="m18.2-37.25-.35.65h-.25l-2.05.05-.05.05-.6.75-2.1.3-3.15.5q1.45-.9 2.75-1.35l2.2-.6.35-.05-.05.95.1-.95v-.65l.1-.05 2.25-.1h.35z" transform="translate(4.4 53.35)"/><path fill="url(#m)" d="m19.25-36.65-.15.2H19l-.25-.05-.45-.7.4.35.2.2h.35" transform="translate(4.4 53.35)"/><path fill="url(#n)" d="m55.6-25.3.9-.1.85-.1.4-.1 2.3-.1 1.65.05 1.3.1h1.55l.15.05.3.05.45.05.3.1v.2h.35l.2.05h.05q.15.1.25.1l.25.05.15.05v.2l-.05.05h-.05l-.7-.05-.75-.15-.45-.15-.2-.05-1.85-.2H60.7l-.1.05-.7.05-1.4.15h-.05l-.1.05-.25.05-.35.05-.5.15-.3.05-.3.05-.4.15-.1.05h-.1l-.3.05-.15.05h-.05l-.4.15-.45.1-.05.05-.15.05-.3.1-.1.05-.05.05-.05.05h-.1l-.65.4-.55.25h-.05l-.2.15-.1.05-.1.1-.1.05-.55.35-.3.2h-.05l-.2.1-.35.25-.35.25-.05.05-.4.35v.05l-.05.1-.05.05h-.1v.05l-.1.1h-.1l-.05-.05-.05-.05v-.05l-.05-.1v-1.25h-.05l-.1-.05-.05-.05v-.3l.1-.1.05-.05.1-.1.05-.05.05-.1h.05l.1-.05.65-.5.5-.3.05-.05.5-.2.2-.15h.1l.55-.15.45-.15.1-.05h.05l.4-.1.25-.15.3-.05h.05l.05-.05.15-.05h.05l.5-.1.3-.05.35-.05h.05zm-2.2.8.15-.05-.25.05v.05z" transform="translate(4.4 53.35)"/><path fill="url(#o)" d="m48.05-36.1.85.5.5.35 1.35 1 .1.15.05.05.25.3.05.05v-.15l1.85 1.6.05.05.95 1q2.55 2.7 4.2 5.45l-1.5.25-1.15.2-.35.05h-.05l-.35.05-.3.05-.5.1H54l-.15.05-.05.05h-.05l-.3.05-.25.15-.4.1h-.05l-.1.05-.45.15-.55.15h-.1l-.2.15v-1.05l-.1-.85-.05-.05-.15-.1-.05-.2-.7-3v-.1l-.05-.2-.05-.15-.1-.3q-.85-3.15-2.05-5.95m5.35 11.6-.1.05v-.05l.25-.05zm-2.15 2.4h.05l-.05.45v-.45" transform="translate(4.4 53.35)"/><path fill="url(#p)" d="m57.45-39.35.35.65.6 1.5q0 .4-.45.55H57l-.65.6q.85-1.85.9-2.65v-.05z" transform="translate(4.4 53.35)"/><path fill="url(#q)" d="M51.6-22.3v.1l.25 3.85q-.5 1.05-.6 2.15l-.05.8.1 1.2q-1.05-1.1-1.5-2.15l-.25-.6-.05-.2q-.15-.5-.15-.95l-.05-1.3v-1.3l.15-.1.05.05h.1l.1-.1v-.05h.1l.05-.05.05-.1.5-.35.25-.2.1-.05.2-.15.1-.15.15.85.05-.55.05-.45z" transform="translate(4.4 53.35)"/><path fill="url(#r)" d="M59.95-17.85q-.25.75-1.85.75l.4-.15 1.25-.55z" transform="translate(4.4 53.35)"/><path fill="url(#s)" d="m74.25-15.15-.05 1.6q-.1.75-.6 1.4l-.65.7-.3.2-.3-.9q-.3-.75-2.2-1.55-1.95-.8-4.65-.9l-5.1.65-.55.15q-2.95.9-3.75 1.45l2.75-1.85 1.55-.8q2.05-.85 5.2-1.4 4.45-.85 6.5.15l1.1.35z" transform="translate(4.4 53.35)"/><path fill="url(#t)" d="m48.8-25.1.45.55v.55z" transform="translate(4.4 53.35)"/><path fill="url(#u)" d="M53.05-.55Q53.3-2 54-3.25v-.1q-.15-2 1.25-4.4l.2-.3.3.35q.7.75 1.4 1.25l.1-.15.9-1.1.1.2v.35l.3.45.5.7.05.05-.4.3-.35.35-.3.5q-1.05.1-2.2 1.7l-.4.7-.3.15zm4.1-5.9L57-6.2l.3-.1z" transform="translate(4.4 53.35)"/><path fill="url(#v)" d="m57.15-6.45.15.15-.3.1z" transform="translate(4.4 53.35)"/><path fill="url(#w)" d="m72.65-11.25.25 1.8v.25q.45.5.45 1.6 0 1-.7 2.05l-.55.75q.5 1.1.5 2.55L72.5-.8q-.45 2.8-2.75 3.35l-2.35 1.1-.15.2-.75.9-1.75 1.4q-.35 1.15-1.25 2l-.1-1.5-.65-2.5Q61.35.25 58.1.25h-.3l-.15.3-.15-.1-.65.5V.4l.1-1.35q.55-1 1.8-2.2l.5-.5.35-.3Q63-7 67.25-7l.9.05.25.05 2.75.65q-.8-.8-1.9-1.25-1.55-.6-3.7-.6-1.9 0-4.55 1.1l-1.2.6.05-.3-.1-.35-.25-.15-.25-.15-.2-.55-.05-.2q.9-.65 3.1-1.25 3.35-.9 6.05-.9l3.5.4z" transform="translate(4.4 53.35)"/><path fill="url(#x)" d="m57.7 12.95.2.3.85.9-.75-.3-2.05-1-.2-.2-.15-.1-.6-1.2.1.05v.05l.05.1.05.15.05.1.25.4.4.55.2.05h.15l.2-.15.1-.15-.2-.4-.55-.65-.15-.75-.25-.75-.15-1.75q-.05-.45.45-2.4l.55-1.95.05-.05.6-1.35.85-1.6V.6l-.1-.05.15-.3h.3q3.25 0 4.65 3.9l.65 2.5.1 1.5-1.15.85-.5.3q-1.45.7-2.55.7h-.1l-.45 1.65-1.7.35zm1.4-18.9h.25l.05.2.05-.25.15-.15.15-.15.05-.1L61-7q2.65-1.1 4.55-1.1 2.15 0 3.7.6 1.1.45 1.9 1.25L68.4-6.9l-.25-.05-.9-.05Q63-7 59.6-3.95l-.35.3-.5.5q-1.25 1.2-1.8 2.2L56.85.4v.55l-.35.45q-.3.4-.35.95l-.2.1-.15.25-.55.6-.35.65q-.5-1-.55-2.15l-.5.45-.75.95-.1-.45-.15-1.2.2-2.1 2.1-1.7.3-.15.4-.7q1.15-1.6 2.2-1.7l.3-.5.35-.35z" transform="translate(4.4 53.35)"/><path fill="url(#y)" d="M52.25 8.7q-.9-1.6-.9-3.2 0-1.35.45-3.2Q52.35.25 53-.5l.05-.05-.2 2.1.15 1.2.1.45Q52 4.75 52 6.55z" transform="translate(4.4 53.35)"/><path fill="url(#z)" d="m59.35-5.95.1-.05-.05.25z" transform="translate(4.4 53.35)"/><path fill="url(#A)" d="M72.5-.8v.05q0 2.65-2.8 5.1-2.35 2.1-3.85 2.15h-1.1v-.35l1.75-1.4.75-.9.15-.2 2.35-1.1Q72.05 2 72.5-.8" transform="translate(4.4 53.35)"/><path fill="url(#B)" d="M63.5 8.15v.15q0 3.25-1.75 4.35-.95.6-2.8.6h-.1v-.1h-.1l-.2.05-.6-.15-.25-.1-.65-.95 1.7-.35.45-1.65h.1q1.1 0 2.55-.7l.5-.3z" transform="translate(4.4 53.35)"/><path fill="url(#C)" d="m55.6 12.55-.2-.2-.7-.9q-1.6-2.3-1.6-4.5 0-1.85.5-2.15l-.5-1.6.75-.95.5-.45q.05 1.15.55 2.15l-.2.25-.5 1.25-.55 1q-.2.55-.15 1.15l-.05.1v.1l-.05.75q-.05.45.3.8l.1.4.15.35.35.5.6.75h.1z" transform="translate(4.4 53.35)"/><path fill="url(#D)" d="M55.4 12.35q-2.15-1.85-3.15-3.65L52 6.55q0-1.8 1.1-3.35l.5 1.6q-.5.3-.5 2.15 0 2.2 1.6 4.5z" transform="translate(4.4 53.35)"/><path fill="#cd4076" fill-opacity=".251" d="m41.8 2.95.1.05.35.2 1 .95 1.5 2.55.95 2.3h.15q1.25 0 2.4 1.8l.85 1.55.7 1.45.15.25.4.95-.05-.05 2.6 4.45q-1.9-2.3-3.75-2.75l-4.35-.7-5.05.5q-1.25.4-1.85.75l.9.3h2.1q6.25.8 9.95 3.3 3.7 2.45 3.7 5.2v2.35l-.05.7-.15.6.45-.35q2.1-1.6 4.65-2.7l-1.65.55q-1.9.75-3.05 1.8l-.25.2.2-.35.1-.35q.3-.95.15-2.4-.2-2.05-1.1-5.15l-.95-2.85q-.85-1.1-.75-1.5l2.7 2.05q1.45 1.15 3.55.9l.15.1-1.75 1.85-.75 1.05v.1l1.5-.45.85-.15 1.65-.15 2.85.4 2 .6.15.15-2.7-.25H62q-3.65 0-6.6 3.1 4.3-2.1 6.65-2.15 2.35-.1 1.15.85l-1.15 1.05q2.95-1 5.1-1 3.15 0 3.6 2.9l.05.45.05.25.05.25-5.9-.5-3.8.55-.9.15v.15q-2.3.75-4.75 2.95l2.75-1.05 2.05-.8-.05.1q-1.25.85-3.75 3.35v.15l2.75-1.7-.4.65-1.6 1.25q-1.55 1.4-2.15 2.65l.5.15q-.1-1 2.55-2.35 4.2-2.15 6.3-2.6l3.8-.55q-1.8.05-4.65 2.15l-1.4 1.2q.95-.5 2.7-.9l4.1-.6 3.2.45q1.6.45 3.9 1.75l.7.4-2.65-.55-5.4.2q-2.9.3-5.45 1.5l-.45.6-.85 1.15v1.45q.85-.95 1.75-1.3l3.8-.4 2.6.2.25.05-3.7.7-3.85 1.05-2.6 1.85 2.25-.5-.75 1.3 1.1-.8q2.45-1.65 4-2.2 2.5-.9 4.6-.9 1.95 0 3.15.6.9.45 2.25 1.9v1l.35.05.05.7-2.65.1h.15q.5.4 2.1.5l.85 1.4q-2.45-1.05-3.65-1.25l-3.35-.25-4.95.6q-2.15.5-3.8 1.35l2.1-1.25-.65.2q-2.25.75-3.65 1.85l-.15.15-.25.1.25-.8.3-.65-.05-.05-.3-.2-1.8-.05q-1.55.15-1.25-4.35v-.85l-.1-.05-.05.15h-.25q-1.5 1.8-2.75.75-1.3-1.05-.75-.8L52 37.35l-.65-2.55-1.25-2.85-2.5-3.45-2.7-3.45q-5.6-8.3-13.5-8.3h-.1l-.05.05h-.35l.1-.1q.65-.7 2.25-1.8l5.8-4L41 9.75h-.1l-2.55.55-2.45.95q-3.65 3.1-5.35 4.95 2.7-3.55 5.9-5.65 3.05-2.05 5-2.05l1.25.1L44 9.65l1.3-.55q-1.25-2.5-2.9-2.5-3.5 0-8.55 4.75-3.75 3.5-4.4 5l-.05.1-.15.4-.1.2-.15.3h-.05l.1-.3-1.65-.3q-1.2-.3-1.4-.65h-.95l-.1-.2-.05-.2-1.65-1.4q-1.35-1.5-1.35-2.9l.4-.6q.25.9 1.2 2.3l.7.9q-.3-1-.3-2.1 0-1.6.35-2.65l.8-1.45.3-.4q.9-1 2.9-2.05L30.9 4.1l-2.05 2.6q-1.6 2.1-1.95 3.15l-.7 3.05-.15 2.15.05-.2.45-1 .1.15.2.95.05.15q0-3.9 1.9-6.35l-.3.7-.2.8v3.35q0-.5.95-1.85l1.8-2.5h.1l-.9 2.85-.65 2.15.2-.5q.35-.65.95-.85-1.15 1.9-1.55 3.4l-.15.45.05.25q3.25-8.6 6.85-12.2 2.25-2.2 4.15-2.2zm2.4 11.65 3.5.05q2.4.25 2.75.7l-.35-.65-.25-.2-.1-.15q-.85-1.3-2.65-.95l-4.35 1.05q-2.5.65-3.8 1.65l3.35-1.05zm-17.3.5v.5l.15.25zm17.7 5.15-2.35-1.2 1.55 1 2.45 1.45zM28.85 17.6v.05l-.05.15zm.95.85.25-.05-.4.2v-.1zm-.2-4.2-.2.5.15-.15zm-13.55-3.4q2.4 0 4.55 1.45 2.1 1.5 3.2 4.05h-.2l.2.1v.3l-.15-.15-.25-.25-.6.05.5.1-2.1.1q-1.2.2-1.65.9-.5-.45-2.7-1L13.4 16q-1.7 0-3.85.75l-1.2.7.7-.25 1.95-.1 3.25.3 2.65.45V18q-5.55.15-12 7.25V24l.3-.85.95-3.65q.35-1.25.75-1.6.95-2.6 2.45-3.95t6.05-1.15q3.9.1 5.9 1.5-.35-.25-.6-.45-3.25-2.25-7.05-2.25l-1.55.1.95-.4 1.25-.25.25.05zM61.6 14.8q.8.5.95 1.2-.2-.65-1.6-.75-1.25 0-2.5.95l-.3.25.1.2.6-.05q4.1 0 5.45 2.5l.1.25q-.55-1.1-4.15-1.7l-4.3-.45-2.05-.25q-1.05-.3-1.35-.5l.5.3-.4-.2-.1-.1-.1-.15q-3.9-6.2-8-10.4l1.15.45-.55-.35 3.2.95q2.25.8 3.4 1.8l4.15 4 1.55 2.15q1.05-.4 3.1 0zm1.55 15.45-.25.15.15-.15zM62.9 44.5l.4-.2-.4.15zm-3.35 6.75q1.15-3 2.85-4.25 2.1-1.85 4.65-1.6l3.7.4 2 .3q.75.1 2.3.8l-5-.35-3.9.85q-2.65.65-5.9 2.95zm5.25 1.7h-.1l-1.3.1-.45.2h.2q1.8 0 2.95 1.25.95 1.05.9 2.4l.15.7-.1-.3-.1-.2-.5-.85q-1.1-1.4-3.5-1.4L61.9 55l-.25.15-1.6 1.1v.1q.6-.4 1.05-.45h.8q.6.05.15.25l.35.15q-1.55.2-2.85 1.2 1.4-.5 2.65-.5 2.3 0 3.6 1.5 1.1 1.25 1.1 2.95v.05l-1.55 2.35-.45.15-1.9.45-.95-.2.95-.45.7-.7q-3.85-.1-5.4-1.6l-.05.6q0 1.2 1.1 2.7Q60.4 66.2 62 67q-1.9-.7-3.35-2.5-1.4-1.8-1.4-3.45l.2-1q-.15-.8-.15-2.2l.1-.8q-.9 1.35-.9 2.7h-.1l-.1-.95-.3-.9q0-2.75 2.4-5.3 2.35-2.5 4.65-2.5h.2q1.75-.75 3.7-.75 5.2 0 7.45 1.9l.55 1.3q.35 1.25.3 2.05-.15 1.75-2.45 3.55-2.3 1.75-3.25 1.45l-.65-.15q.8-.6 1-1.55.2-1-.9-2.95-1.05-1.8-3.8-1.95zm3.2 6.3-.4-.1.6.15zm-4.2 3.6v-.25q0-1.35-1.25-2.6-1-1-2.25-1.25-.65 0-.65 1.05 0 .7 1.35 1.65l1.9 1.1v.2z"/><path fill="#ffe9e9" d="m32.65 2.55-.45 1.1-.1.6v.05l1.05-.95.05-.05-.3.55v.3h.25l.15-.1.05.45h.55q1-.75 2.95-1.15l2.8-.45h.05q-1.9.35-3.85 2-1.7 1.4-2.25 2.6v.05q.15-.6 2.35-1.55h.1l-1.2 1.3v.25l2.2.3-.85.65v.25l.7.05-.4.25-.2.3h.25l1-.45 1.6-.15 1.55.05q-2.05.4-3.85 1.2-1.9.85-2.05 1.55l2.25-.7h.25q-3.1 1.45-4.35 4.45l.5-1.45.6-.9.5-.95-.1-.15q-.1-.05-.1-.25 0-.4 1.3-1.8h-.45q.15-.3-.1-1.2-.3-1-.75-1l-.35.15-.4.4-.35.1-.4.1-.7.95-.55.75v-1.4l.3-1.05.2-.8v-.05L30 8.7q-1.15 1.1-1.55 2.1h-.05v-.4q.15-1.15.85-2.6l1.35-2.55q1.95-4.1 3.65-4.15-1.25.85-1.6 1.45m-4.7 6.05q-1.35 1.5-2 3.55-.55 1.8-.25 3.3L25.25 14l-.1-1.6-.4.9-.4.55-.15-.2-.2-.25-.3.1q-.15.05-.05.25l-.8-1.45q-.2-.35-.2-1.25 0-.55.6-1.45.6-.85 1.2-1.1-.7.3-.7 2.75l.1 1.55.4-1.95q0 .7.35 1.15l.45-.95 1.2-1.45q.95-.8 1.65-1zm38.2 13v-.25q-7-1.85-9.75.75 3.15-5.4 8.25-3.15l-.7.9 1.25-.15q1.45.35 3.35 2.65 1.6 2 2.1 3.7L69.7 25q-1-.65-2.55-.65L64 24.9q-1.45.4-3.55 0 1.25.15 2.7-1.25 2-1.95 3-2.05M16.9 13l-.1.1h-.65l1.9.5.1.15q-1.45.05-2.05.75l-.8 1.75q-.5-.1-.85.35-.3.35-.3.9 0 .35.25.6-1.3.05-2.75 1.05-.85.55-2.6 2.1H8.9q.5-1.3 1.65-2.5T12.8 17h-.75v-.25l2-.25-.5-.4.15-.2.1-.25-.25-.4q.25-.45 2-1.15l-.25-.45-.4-.05-2.15.5q-1.45.5-1.95.9h-.15l1.55-1q1.1-.75 1.7-.75l-4.6-.15h-.15l2.7-1.1 1.95-.4h1.75q2.8 0 5.5 2.65-1.1-.85-1.9-.9l-2.35-.25h.4zm21.15 4.45-.3-.25 3.15-.85 2.75-.35 3.25.6q2.2.6 3.75 1.6L46.9 17h-3.1l1.85 1.1H44.3q1.3.85 2.25 2.55l.5 1 .05.1q-2.55-1.9-7.3-3.75h-1.6v-.2zM68.4 28.5l.35-.15q2.7 0 5.15 2.65l1.2 2-3.2-.2-5.05.75-.3.1.85-.9 1.2-.4 1.05-.35-1.8-.25H65.8l2.9-1.1q1.6-.7 2.45-.8l-3.75-.1-3.45.4-4.05 1.45v-.1q2.3-1.95 3.5-2.55 1.3-.6 3.3-.6zM59.8 13l.5.6.65.1.9.3q.8.5.8 1.5l-.05 1.05-.2-1q-.1-.7-1.05-1.1l-3.05.1q-2.1.45-4.4 1.85l.75-.85.75-.45-.05-.1q-.35-.2-2.75.75l2.3-2.55q1.4-1.45 2.5-1l-3.25-2.45-4.55-2.3 1.45.45 4.5 1.85q1.9 1 4 3zm2.5 39.65.55-.05 1.05.05.25.1 1.5.75q1.1.9 1.25 2.45-.85-1.15-1.6-1.55-1.05-.55-3-.55l-3.1.55-1 .4 1.5-1.4q1.1-.7 2.6-.75m1.35-8.55q-.75.25-1.95.9l-3 1.6.25-.8.9-1.05.95-.3 2.5-.35zM75.55 34v.6l-.5-.1q0-.2-.75-.4l-.25-.05-.25-.1-2.45-.45-2.75.25q3.55-.8 6.9.1zm-4.8 22.5.1.95-.25 1.75-.7.25.3-1.8v-.8l.5-.35zm.75-4.75 1.9.45q1.55.75 2.15 2.25-.55 1.1-1.65 2.25l-2.65 2.2q.35-1.65-.05-2.85.7-.95.7-2.3 0-1.3-.4-2m.8-1.5-.1-.05 3.05.25.5.15q.55.35.55 1.2 0 .95-.4 2-1.4-2.7-4.85-2.6l-1.45-.7 1.2-.2.3-.05zm.5-3.55.65.2 1.95.7v.15l.25.55.25.6q0 .55-.55.7l-1.25.3-1.75.05-.75-.25h-.45l-.25-.1-2-.5h.15l2.35-.5q1.5-.5 1.5-1.4zm-.4-.7-.1-.25.25-.6q0-.6-.7-1.05 2.5-.3 4.8.6.4.45.4 1 0 .6-.5 1.25l-.25.3-1-.45zm5-9.2q.75 1.05.75 2.25 0 1.5-1.25 2.95v.5l-.3-1.1-.65-1.6q.35-.75-.4-2.1-1.05-1.85-3.5-2.45l-1.65-.15.7-.05 1-.2h.95q3.05.05 4.35 1.95M66.35 56.5l.2.05q.75.15 1.6.8 1.5 1.15 1.5 3-.3 2.35-1.6 4.25v.1q0 1.3-.75 2.1-.7.75-2.5 1.75l1.65-1.95q.6-1.15.6-1.85l-.35-1.4-.35-.7.5-.7.85 1 .35 1.5.2-.45q.4-1 .4-2.35 0-1.6-.8-3.2-.7-1.35-1.5-1.95"/></g></defs></svg>