<svg xmlns="http://www.w3.org/2000/svg" xmlns:ffdec="https://www.free-decompiler.com/flash" xmlns:xlink="http://www.w3.org/1999/xlink" ffdec:objectType="frame" width="65.25" height="71.4"><g transform="translate(5.9 7.85)"><use ffdec:characterId="1" xlink:href="#a" width="65.25" height="71.35" transform="translate(-5.9 -7.85)"/><clipPath id="b"><path fill="#ffebb2" fill-rule="evenodd" d="M18.75-5.15Q21-7 23.85-7.5l5.45-.25-1.95.3q-3.45.6-5.9 2.1Q19.3-4 17.55-.9q-1.6 2.9-1.1 3.1Q17.7.55 21.05-.45q3.6-1.1 7.95-.8 11.2.8 19.45 9.6 4.4 4.65 5.3 12.9.5 4.6-.1 9.55l.05 3.2q.4 1.7 2.3 3.8l2.25 3.4q1.4 2.65 1 5.1-.55 2.05-4.95 4.15l-.15.05q-.7.25-1.35 1.15l-.75 1.2-.8 2.1.2 2.45q-.1 2.8-1.35 4.6l-1.3 1.5.1-2.3-.2-1.45q-.75 1.9-1.75 2.7-.8.8-1.35.8.65-1.4.65-3.95 0-3-1.2-4.85-4.55-6.9-1.05-11 2.3-2.6 2.85-6.85l.15-1.65q-2.75-4.4-7.3-6.6 1.1 2.35 2.9 4.45-7.2-2.1-10.8-6.6-2.55-3.2-3.9-5.7l2.7 7.2Q19.85 23.4 17 11.2l-.05-.1-.05 2.4q0 2.9.4 4.6-.95-1.15-1.55-2.45l-.8-2.2q-.2-.8-.3-.45l-.05 3.7q-2.2-1.65-1.65-4.3l-2.35 3.75q-2.75 4.65-1.5 8.9-1.8-1.4-1.85-1.75l-.05-.05-.65 1.85q-1.25 5.2-.45 9.3.75 4.05 3.9 8.7 1.85 3.5 1.05 6.8l-.05.15-.35 1.05-1.7 3Q7.8 55.85 7.7 58.65q-.05 2.3.55 3.8l.15.45q-.85 0-2.1-1.7l-1-1.8-.2 2.6.1 1.15q-2.25-1.95-2.55-5.4l.1-3.15-.25-.7-.05-.15L1.2 51.3q-.65-.9-1.35-1.15-2.7-1.25-4.3-3.2-1.5-1.9-1.45-3.65 0-1.85 3.9-6.45 1.95-2.1 2.3-3.5l.05-2.9q-.55-2.55-.7-5.35-.2-2.8.3-6.7Q1.1 12.35 4.8 8.25q3-3.35 7.4-5.1Q9.1.7 3.4 1.95q7.95-3.9 10.95.15.35-2 1.15-3.5 1-1.9 3.25-3.75"/></clipPath><g clip-path="url(#b)"><use ffdec:characterId="3" xlink:href="#c" width="50.4" height="50.4" transform="translate(1.35 -.05)"/></g><use ffdec:characterId="4" xlink:href="#d" width="61.7" height="71.3" transform="translate(-3.75 -7.75)"/></g><defs><path id="a" fill="#fecc41" fill-rule="evenodd" d="M18.75-5.15Q21-7 23.85-7.5l5.45-.25-1.95.3q-3.45.6-5.9 2.1Q19.3-4 17.55-.9q-1.6 2.9-1.1 3.1Q17.7.55 21.05-.45q3.6-1.1 7.95-.8 11.2.8 19.45 9.6 4.4 4.65 5.3 12.9.5 4.6-.1 9.55l.05 3.2q.4 1.7 2.3 3.8l2.25 3.4q1.4 2.65 1 5.1-.55 2.05-4.95 4.15l-.15.05q-.7.25-1.35 1.15l-.75 1.2-.8 2.1.2 2.45q-.1 2.8-1.35 4.6l-1.3 1.5.1-2.3-.2-1.45q-.75 1.9-1.75 2.7-.8.8-1.35.8.65-1.4.65-3.95 0-3-1.2-4.85-4.55-6.9-1.05-11 2.3-2.6 2.85-6.85l.15-1.65q-2.75-4.4-7.3-6.6 1.1 2.35 2.9 4.45-7.2-2.1-10.8-6.6-2.55-3.2-3.9-5.7l2.7 7.2Q19.85 23.4 17 11.2l-.05-.1-.05 2.4q0 2.9.4 4.6-.95-1.15-1.55-2.45l-.8-2.2q-.2-.8-.3-.45l-.05 3.7q-2.2-1.65-1.65-4.3l-2.35 3.75q-2.75 4.65-1.5 8.9-1.8-1.4-1.85-1.75l-.05-.05-.65 1.85q-1.25 5.2-.45 9.3.75 4.05 3.9 8.7 1.85 3.5 1.05 6.8l-.05.15-.35 1.05-1.7 3Q7.8 55.85 7.7 58.65q-.05 2.3.55 3.8l.15.45q-.85 0-2.1-1.7l-1-1.8-.2 2.6.1 1.15q-2.25-1.95-2.55-5.4l.1-3.15-.25-.7-.05-.15L1.2 51.3q-.65-.9-1.35-1.15-2.7-1.25-4.3-3.2-1.5-1.9-1.45-3.65 0-1.85 3.9-6.45 1.95-2.1 2.3-3.5l.05-2.9q-.55-2.55-.7-5.35-.2-2.8.3-6.7Q1.1 12.35 4.8 8.25q3-3.35 7.4-5.1Q9.1.7 3.4 1.95q7.95-3.9 10.95.15.35-2 1.15-3.5 1-1.9 3.25-3.75" transform="translate(5.9 7.85)"/><path id="c" fill="url(#e)" fill-rule="evenodd" d="M44.35 42.95q-7.35 7.4-17.8 7.4T8.7 42.95q-7.35-7.4-7.35-17.8Q1.35 14.7 8.7 7.3 16.1-.05 26.55-.05t17.8 7.35q7.4 7.4 7.4 17.85 0 10.4-7.4 17.8" transform="translate(-1.35 .05)"/><radialGradient id="e" cx="0" cy="0" r="819.2" gradientTransform="translate(26.55 25.15)scale(.0318)" gradientUnits="userSpaceOnUse" spreadMethod="pad"><stop offset="0" stop-color="#db9100" stop-opacity=".298"/><stop offset="1" stop-color="#db9100" stop-opacity="0"/></radialGradient><g id="d" fill-rule="evenodd"><path fill="#db9100" fill-opacity=".694" d="M24.35 3.1q-2.9 2.15-4.2 6.7l-.8.35Q20.55.3 33.05 0q-5.85.9-8.7 3.1M49.4 25.55q2.35 3.25 2.75 5.75 1.15 7.2.05 13.3-.55 3.25-1.55 5.35-3.05 8.4 2.3 10.95l-2.4-.55q1.9 3 .9 7.05-.6 2.25-2.2 3.8l.35-1.1q.4-1.3.35-3.65-.1-2.35-1.1-4.15l-1.65-2.85-.6-1.7q-1-3.85.95-6.3 1.75-2.55 3.1-7.45l.1-2.1-.3-6.7q-.35-5.35-2.3-8.45-2-3.1-5.05-6.05 3.45.95 6.3 4.85m8.35 18.2 3.15 5q1.05 2.15.75 3.9-.2-1.8-.85-2.8-.65-1.1-1.25-1.35l.55 1.7q.35 1.5.35 2.95-.35 3.75-2.55 5.3-.15.05-.45.25-.25.1-.35.2 1.6-2.7 1.75-5.25.1-2.4-.45-5.1l-1.05-4.7-.2-2.1zM55.4 55.2q1.2 2.25 1 4.4l-.3.55-.6 1.25q-.5.9-.45 1.7l.2 2.1-.15.1-.2-2-.65-3.6-.9-4.2q-.85-3.05 1.15-8.3 2.05-4.2.6-11.2 2.45 7.8.5 11.8-1.65 4.7-.2 7.4M25.3 14.6q.2 9.15 5.55 16.85Q22.9 23.8 25.3 14.6m5 8.7q.65 2.25 3.95 7.55 2.9 4.75 11.15 9-3.45-2.8-4.6-6.35-1.3-3.85-.55-8.25l.9 5.05q.65 2.3 2.3 5.8.9 1.95 2.8 4.4-6.75-1.9-10.15-5.95-3.4-4.1-4.25-5.8l2.5 6.75q-1.55-1.55-3.4-5.55-1.9-4-1.5-9.55zm-12.45-5.35.5-1.5v7.95q-.9-2.05-.8-4.3zM15.15 20l2.1-2.25-.55 2.45v-.05l-2.35 3.75q-2.05 3.5-1.85 6.75l.25 2.1-1-1.95q-1.1-2.85.05-5.7 1.05-2.45 1.85-3.3zm5.6-1.05-.05-.1q-.35 3.5.3 7-1.05-2.25-1.25-4.55-.25-2.3.85-4.95zM5.1 40.2 5 38l-.1-5.65q.45 11.8 2.5 16 1.95 4.7 1.1 6.95l-1.45 3.8q-.65 1.55-.45 3.5l-.4-1.15-.05-.05v-.1l-.1-.25v-.1q-1.6-3.6.2-5.95t.25-6.3q-1.05-2.55-1.4-8.5m-.7-1.85L4.3 38l.15.35.15 2.05-.25 2.95-1.05 4.7q-.55 2.7-.45 5.1Q3 55.7 4.6 58.4l-.35-.2-.45-.25q-2.2-1.55-2.55-5.3 0-1.45.35-2.95l.55-1.7q-.6.25-1.25 1.35-.65 1-.85 2.8-.3-1.75.75-3.9l3.15-5q.8-1.65.45-4.9M7.15 9.7q6.2-2.7 8.9 1.25-3.5-2.2-8.9-1.25M11 22.95l-.7 1.65q-1.2 3.7.65 6.4l-.65 1.85q-1.2 5.05-.5 9.05l.05.25q.75 4.05 3.9 8.7 1.85 3.5 1.05 6.8l-.05.15-.35 1.05-1.7 3q-1.15 1.75-1.25 4.55-.05 1.8.35 3.1l.45 1.25q-1.7-1.65-2.3-3.95-1-4.05.9-7.05l.1-.15-2.5.7q5.35-2.55 2.3-10.95l-1.55-3.1-1.55-3.45v-.1q-1.9-5.95-.95-13l.2-.9.25.95q.35 1.2 1.45 2.4v-.45q-.6-3.35.1-5.8.25-.95.8-1.75.8-1.4 2.25-2.55zm-1.95 44.2-.2 2.6L9 71l-.5-.55q-1.05-2.65-.5-8-.05 2.35 1.05 4.7m43.4.3q1.1-2.35 1.05-4.7.55 5.35-.5 8l-.5.55.15-1.25z"/><path fill="#ff6" fill-opacity=".498" d="m18.9 22.1.05-.25-.7-1.7-.05 1.75-1.55-.45q-.2-.85.15-1.7l-.9 1.45q-3.6-1.25-6.95-3 1.3-3.9 5.4-5.55Q25.1 23 54.3 21.75q-16.55 4.35-32.35 1.1l-1.3-4.25-.15 3.95z"/></g></defs></svg>