<?xml version="1.0" encoding="UTF-8" standalone="no"?>
<svg xmlns:ffdec="https://www.free-decompiler.com/flash" xmlns:xlink="http://www.w3.org/1999/xlink" ffdec:objectType="frame" height="106.55px" width="135.7px" xmlns="http://www.w3.org/2000/svg">
  <g transform="matrix(1.0, 0.0, 0.0, 1.0, 45.15, 32.4)">
    <use ffdec:characterId="1" height="106.55" transform="matrix(1.0, 0.0, 0.0, 1.0, -45.15, -32.4)" width="135.7" xlink:href="#shape0"/>
  </g>
  <defs>
    <g id="shape0" transform="matrix(1.0, 0.0, 0.0, 1.0, 45.15, 32.4)">
      <path d="M1.65 -25.35 Q7.7 -31.45 15.8 -32.25 L22.65 -31.8 29.55 -32.25 Q37.6 -31.45 43.65 -25.35 47.35 -21.6 48.45 -14.9 49.6 -8.0 47.45 -1.15 44.65 7.75 38.7 12.8 32.3 18.15 22.9 18.6 13.3 18.45 6.7 12.95 1.0 8.15 -1.55 0.15 -3.85 -7.1 -2.9 -14.4 -2.0 -21.65 1.65 -25.35" fill="url(#gradient0)" fill-rule="evenodd" stroke="none"/>
      <path d="M-12.75 11.95 L-12.85 14.95 -13.0 21.85 -12.95 27.9 Q-12.5 24.95 -12.7 22.1 L-12.65 16.5 -12.75 11.95 M-14.5 1.95 Q-13.75 3.75 -13.15 5.6 -11.85 1.15 -10.05 -3.0 L-11.9 4.5 -12.45 8.0 Q-10.05 16.4 -10.15 25.85 -10.25 31.05 -11.55 34.85 L-11.45 35.1 -9.25 39.6 Q-7.7 42.1 -1.75 49.25 2.05 53.8 2.0 56.9 1.95 58.35 -3.55 62.15 -9.15 66.0 -9.15 67.05 -9.15 68.1 -4.25 68.8 0.65 69.6 0.45 70.75 0.25 71.9 -1.65 72.55 L-8.25 73.05 Q-2.25 70.95 -8.4 70.45 -15.35 69.95 -15.3 67.25 -15.25 65.1 -9.65 61.35 -4.1 57.55 -4.1 54.5 -4.05 51.65 -5.95 49.55 L-10.15 45.65 Q-12.6 43.2 -14.0 39.7 L-15.4 41.25 -18.9 44.25 Q-20.55 45.95 -20.55 48.3 -20.6 50.7 -16.15 53.9 -11.7 57.05 -11.75 58.75 -11.75 60.9 -17.35 61.25 -22.35 61.5 -17.5 63.3 L-22.85 62.85 Q-24.35 62.25 -24.5 61.3 -24.65 60.35 -20.7 59.8 -16.65 59.3 -16.65 58.5 -16.65 57.65 -21.1 54.4 -25.5 51.2 -25.5 50.05 -25.45 47.55 -22.25 44.0 -17.4 38.35 -16.05 36.35 L-15.4 35.2 Q-16.2 31.3 -16.15 26.35 -16.0 15.95 -13.45 6.7 L-14.5 1.95" fill="url(#gradient1)" fill-rule="evenodd" stroke="none"/>
      <path d="M-12.75 9.6 L-11.75 14.25 Q-10.75 18.95 -10.75 20.75 -10.8 24.8 -11.65 29.35 L-12.25 32.45 Q-13.05 31.25 -13.8 28.2 L-14.05 27.15 -14.45 17.15 Q-14.45 14.9 -13.75 12.7 L-12.75 9.6 M-12.85 14.95 L-13.0 21.85 -12.95 27.9 Q-12.5 24.95 -12.7 22.1 L-12.65 16.5 -12.75 11.95 -12.85 14.95 M-14.5 39.55 L-14.45 40.3 -15.4 41.25 -18.9 44.25 Q-20.55 45.95 -20.55 48.3 -20.6 50.3 -17.5 52.9 L-18.4 52.45 -21.85 50.9 Q-23.15 50.0 -23.1 48.55 -23.1 46.45 -19.5 42.85 L-13.9 36.6 Q-14.45 37.65 -14.5 39.55 M-6.55 48.45 Q-2.65 51.25 -2.65 53.6 -2.7 56.8 -6.35 58.85 L-6.95 59.2 Q-4.1 56.7 -4.1 54.5 -4.05 51.65 -5.95 49.55 L-9.65 46.15 -6.55 48.45 M-16.15 60.0 Q-12.45 59.65 -11.75 58.5 L-11.75 58.75 Q-11.75 60.9 -17.35 61.25 -22.35 61.5 -17.5 63.3 L-18.45 63.35 Q-21.15 62.7 -21.15 61.45 -21.1 60.45 -16.15 60.0 M-17.3 59.05 L-16.65 58.5 Q-16.65 57.65 -21.1 54.4 L-24.65 51.5 Q-22.85 53.05 -20.2 54.15 -15.15 56.25 -15.2 58.2 -15.2 58.5 -17.3 59.05 M-6.0 72.6 L-7.6 73.1 -8.25 73.05 Q-2.25 70.95 -8.4 70.45 L-10.45 70.3 -9.05 70.05 -6.85 69.8 Q-3.5 69.8 -3.5 71.0 -3.5 71.65 -6.0 72.6 M-3.55 62.15 Q-9.15 66.0 -9.15 67.05 L-8.4 67.8 Q-10.9 67.35 -10.9 66.05 -10.85 64.6 -5.35 62.05 -0.55 59.8 2.0 57.0 1.8 58.5 -3.55 62.15" fill="#203809" fill-rule="evenodd" stroke="none"/>
      <path d="M3.05 -16.3 Q-2.4 -7.05 -5.6 5.8 -8.4 16.95 -7.9 22.85 -7.6 26.15 -3.4 32.55 0.25 38.05 -0.55 39.95 -1.35 41.85 -11.45 47.85 -20.55 53.25 -21.3 54.7 -19.1 57.1 -19.15 59.35 L-19.25 60.3 -13.45 62.7 Q-8.75 64.55 -8.8 66.65 -8.8 68.45 -11.6 69.3 -14.4 70.25 -14.4 72.1 -14.4 73.25 -13.2 74.15 -17.55 73.95 -17.5 72.15 -17.5 70.15 -15.1 69.2 -12.75 68.3 -12.75 67.95 -12.75 66.4 -15.1 65.55 L-20.15 64.25 -22.0 63.75 -23.85 64.85 Q-28.6 67.4 -28.65 69.4 -28.65 70.35 -26.9 70.8 -25.2 71.25 -25.2 72.25 -25.2 72.7 -25.9 73.1 -26.55 73.45 -26.95 73.45 L-27.6 73.2 -27.3 73.25 Q-26.95 73.25 -26.7 72.95 L-26.65 72.9 -26.3 72.65 Q-25.9 71.9 -29.1 71.45 -34.15 70.8 -35.2 69.1 -36.2 67.55 -30.85 65.2 -25.95 62.95 -28.5 61.25 -33.15 58.2 -37.65 54.4 -43.35 49.65 -44.85 46.9 -46.3 44.35 -39.9 39.0 -36.9 36.65 -30.8 32.7 -28.95 31.55 -25.75 24.55 -22.45 16.6 -21.05 13.95 L-19.15 9.45 Q-17.9 3.05 -16.75 -0.75 -14.7 -7.2 -11.7 -13.55 -8.6 -20.35 -5.15 -25.0 L-4.75 -25.7 Q-2.3 -29.9 0.75 -30.15 2.35 -30.35 3.45 -29.65 5.35 -29.7 6.2 -28.0 7.95 -24.65 3.05 -16.3 M-29.75 46.35 Q-29.75 47.85 -25.55 51.1 -24.7 49.1 -21.15 47.4 L-20.85 47.25 -14.15 43.4 Q-11.4 41.75 -10.0 40.45 L-11.05 39.05 Q-12.3 37.05 -13.8 33.15 L-14.7 30.35 -15.05 31.65 Q-16.25 34.8 -19.35 36.55 -22.0 38.05 -25.4 41.05 -29.7 44.7 -29.75 46.35 M-12.9 31.85 Q-11.65 35.1 -10.45 36.95 L-8.85 39.0 -8.4 37.65 -8.35 36.5 -10.3 33.4 Q-12.55 29.6 -13.4 23.85 L-13.55 25.15 -13.7 25.85 -14.1 27.85 -12.9 31.85" fill="url(#gradient2)" fill-rule="evenodd" stroke="none"/>
      <path d="M6.65 -25.3 Q6.4 -22.0 3.05 -16.3 -2.4 -7.05 -5.6 5.8 -8.4 16.95 -7.9 22.85 -7.7 24.9 -6.0 28.2 -8.0 25.05 -8.6 21.4 -8.95 19.85 -8.9 15.55 -8.75 2.4 -2.65 -11.2 L1.45 -20.1 Q3.35 -24.25 3.4 -26.6 L3.35 -27.75 Q4.6 -26.85 4.55 -23.7 4.55 -22.55 3.65 -19.4 L3.3 -18.2 5.75 -23.1 6.65 -25.3 M-12.05 -4.9 Q-18.0 11.25 -20.65 24.9 -19.4 16.3 -17.1 6.6 -12.35 -12.85 -6.65 -18.35 -9.1 -12.95 -12.05 -4.9 M-15.55 19.75 L-13.8 9.95 Q-13.25 6.15 -10.1 -0.95 L-10.75 1.75 Q-12.35 9.15 -12.4 13.9 -12.55 23.35 -8.85 30.7 L-6.7 35.15 Q-6.05 36.9 -6.3 38.45 -8.15 41.75 -14.7 45.3 -21.15 48.6 -23.45 52.5 L-25.4 50.9 Q-24.45 49.0 -21.15 47.4 L-20.85 47.25 -14.15 43.4 Q-11.4 41.75 -10.0 40.45 L-10.05 40.4 -11.05 39.05 Q-12.3 37.05 -13.8 33.15 L-14.55 30.75 -14.7 30.35 -15.0 31.45 -15.05 31.65 Q-16.25 34.8 -19.35 36.55 -22.0 38.05 -25.4 41.05 -29.7 44.7 -29.75 46.35 L-29.45 47.25 -30.35 46.5 Q-31.9 44.9 -31.9 43.35 -31.85 40.4 -25.1 35.65 -17.9 30.7 -16.9 25.95 L-15.55 19.75 M-34.2 39.85 Q-34.95 41.3 -35.1 42.85 -35.4 48.0 -28.85 53.35 -33.05 51.05 -35.75 48.1 -41.35 42.05 -33.4 38.75 L-34.2 39.85 M-13.8 26.3 L-14.1 27.85 -14.0 28.1 -12.9 31.85 Q-11.65 35.1 -10.45 36.95 L-8.85 39.0 -8.55 38.4 -8.4 37.65 -8.35 36.5 -10.3 33.4 Q-12.55 29.6 -13.4 23.85 L-13.55 25.15 -13.7 25.85 -13.8 26.3 M-44.6 44.15 Q-44.65 48.95 -34.8 54.05 L-28.0 57.65 Q-24.9 59.55 -24.9 61.25 -24.95 62.85 -28.4 64.9 -31.2 66.6 -34.35 67.1 -33.25 66.3 -30.85 65.2 -25.95 62.95 -28.5 61.25 -33.15 58.2 -37.65 54.4 -43.35 49.65 -44.85 46.9 -45.55 45.75 -44.6 44.1 L-44.6 44.15 M-19.15 59.1 L-19.15 59.35 -19.25 60.3 -13.45 62.7 Q-8.75 64.55 -8.8 66.65 -8.8 68.45 -11.6 69.3 -14.4 70.25 -14.4 72.1 L-14.15 73.05 -13.2 74.15 Q-17.55 73.95 -17.5 72.15 L-17.45 71.7 Q-17.3 70.4 -15.95 69.6 L-15.1 69.2 Q-12.75 68.3 -12.75 67.95 -12.75 66.4 -15.1 65.55 L-20.15 64.25 -22.0 63.75 -22.75 64.25 -23.85 64.85 Q-28.6 67.4 -28.65 69.4 -28.65 70.35 -26.9 70.8 -25.8 71.1 -25.4 71.55 L-27.85 70.65 Q-30.25 69.65 -30.2 68.1 -30.2 66.1 -26.2 64.65 L-21.05 62.65 -20.25 61.75 -20.2 61.65 Q-19.2 60.35 -19.15 59.1" fill="#275100" fill-rule="evenodd" stroke="none"/>
      <path d="M0.25 -20.65 L-3.6 -13.3 Q-9.1 -2.1 -9.15 6.7 -9.35 2.75 -8.4 -3.0 -6.7 -14.55 -1.2 -23.75 L-0.55 -25.5 Q-0.3 -27.35 -1.7 -28.0 L0.4 -28.1 Q2.45 -27.75 2.25 -25.3 2.1 -24.1 0.25 -20.65 M-11.15 19.45 Q-11.65 15.85 -11.25 14.2 -11.3 19.8 -7.6 27.1 -6.25 29.75 -1.8 36.8 -0.05 39.55 -4.55 41.9 -6.8 43.1 -9.45 43.75 -5.6 41.35 -5.1 38.3 L-5.4 35.85 Q-10.1 26.55 -11.15 19.45 M-17.2 18.5 Q-15.65 24.9 -21.2 29.6 -25.0 32.8 -30.85 34.45 -27.1 31.75 -24.75 27.95 -23.4 25.75 -21.55 20.95 -21.4 21.55 -21.5 23.85 -21.7 26.2 -21.5 27.1 -20.6 25.75 -19.35 23.05 L-17.2 18.5 M-39.4 41.0 Q-40.25 42.25 -40.05 43.75 -39.5 48.6 -29.0 54.0 -34.65 52.1 -38.7 49.45 -46.7 44.05 -38.5 40.05 L-39.4 41.0" fill="#81b652" fill-rule="evenodd" stroke="none"/>
      <path d="M58.15 12.15 L58.05 16.7 58.1 22.25 Q57.9 25.1 58.35 28.05 L58.4 22.0 58.25 15.15 58.15 12.15 M59.9 2.2 L58.85 6.9 Q61.4 16.15 61.55 26.55 61.6 31.45 60.8 35.35 L61.45 36.5 Q62.8 38.5 67.65 44.1 70.85 47.65 70.9 50.15 70.9 51.3 66.5 54.45 62.05 57.7 62.05 58.55 62.05 59.35 66.1 59.85 70.05 60.4 69.9 61.35 69.75 62.3 68.25 62.9 L62.9 63.35 Q67.75 61.55 62.75 61.3 57.15 60.95 57.15 58.8 57.1 57.15 61.55 54.0 66.0 50.75 65.95 48.4 65.95 46.05 64.3 44.35 L60.8 41.35 59.4 39.85 Q58.0 43.3 55.55 45.75 L51.35 49.65 Q49.45 51.75 49.5 54.55 49.5 57.6 55.05 61.4 60.65 65.15 60.7 67.3 60.75 69.95 53.8 70.5 47.65 71.0 53.65 73.05 L47.05 72.6 Q45.15 71.9 44.95 70.8 44.75 69.6 49.65 68.85 54.55 68.1 54.55 67.1 54.55 66.05 48.95 62.2 43.45 58.4 43.4 57.0 43.35 53.9 47.15 49.35 53.1 42.2 54.65 39.75 L56.85 35.25 56.95 35.0 Q55.65 31.2 55.55 26.0 55.45 16.6 57.85 8.2 L57.3 4.7 55.45 -2.7 Q57.25 1.4 58.55 5.85 59.15 4.0 59.9 2.2" fill="url(#gradient3)" fill-rule="evenodd" stroke="none"/>
      <path d="M58.25 15.15 L58.15 12.15 58.05 16.7 58.1 22.25 Q57.9 25.1 58.35 28.05 L58.4 22.0 58.25 15.15 M58.15 9.8 L59.15 12.95 Q59.85 15.1 59.85 17.35 L59.45 27.3 59.2 28.4 Q58.45 31.4 57.65 32.6 L57.05 29.5 Q56.2 25.0 56.15 20.95 56.15 19.15 57.15 14.45 L58.15 9.8 M59.3 36.75 Q60.3 38.15 64.9 42.95 68.5 46.55 68.5 48.65 68.55 50.1 67.25 50.95 L63.8 52.5 62.9 52.95 Q66.0 50.4 65.95 48.4 65.95 46.05 64.3 44.35 L60.8 41.35 59.85 40.45 59.9 39.7 Q59.85 37.8 59.3 36.75 M55.05 46.25 L51.35 49.65 Q49.45 51.75 49.5 54.55 49.5 56.75 52.35 59.25 L51.75 58.95 Q48.1 56.85 48.05 53.7 48.05 51.35 51.95 48.55 L55.05 46.25 M66.55 61.5 Q66.55 62.75 63.85 63.4 L62.9 63.35 Q67.75 61.55 62.75 61.3 57.15 60.95 57.15 58.8 L57.15 58.55 Q57.85 59.7 61.55 60.05 66.5 60.5 66.55 61.5 M70.05 51.6 L66.5 54.45 Q62.05 57.7 62.05 58.55 62.05 58.85 62.7 59.15 60.6 58.55 60.6 58.25 60.55 56.3 65.6 54.2 68.25 53.1 70.05 51.6 M54.55 67.1 Q54.55 66.05 48.95 62.2 43.6 58.55 43.4 57.1 45.95 59.85 50.75 62.1 56.25 64.6 56.3 66.05 56.3 67.4 53.8 67.8 54.55 67.5 54.55 67.1 M53.0 73.1 L51.4 72.65 Q48.9 71.65 48.9 71.05 48.9 69.8 52.25 69.8 L54.45 70.05 55.85 70.3 53.8 70.5 Q47.65 71.0 53.65 73.05 L53.0 73.1" fill="#203809" fill-rule="evenodd" stroke="none"/>
      <path d="M59.5 28.0 L59.1 26.0 58.95 25.3 58.8 24.0 Q57.95 29.75 55.7 33.55 L53.75 36.65 53.8 37.8 54.25 39.1 55.85 37.05 Q57.05 35.25 58.3 32.0 L59.5 28.0 M60.1 30.5 L59.2 33.3 Q57.7 37.15 56.45 39.15 L55.4 40.55 Q56.8 41.9 59.55 43.55 L66.25 47.35 66.55 47.5 Q70.1 49.15 70.95 51.2 75.15 47.95 75.15 46.45 75.1 44.8 70.8 41.15 67.4 38.2 64.75 36.7 61.65 34.95 60.45 31.8 L60.1 30.5 M44.65 -29.8 Q47.7 -29.5 50.15 -25.35 L50.55 -24.65 Q54.0 -20.05 57.1 -13.25 60.1 -6.95 62.15 -0.45 63.3 3.3 64.55 9.7 L66.45 14.15 Q67.85 16.8 71.15 24.75 74.35 31.7 76.2 32.85 L85.3 39.1 Q91.7 44.45 90.25 47.0 88.75 49.75 83.05 54.45 78.55 58.25 73.9 61.3 71.35 63.0 76.25 65.25 81.6 67.6 80.6 69.15 79.55 70.85 74.5 71.45 71.3 71.9 71.7 72.7 71.95 72.7 72.05 72.9 L72.1 72.95 Q72.35 73.25 72.7 73.25 L73.0 73.2 72.35 73.45 71.3 73.1 Q70.6 72.75 70.6 72.25 70.6 71.25 72.3 70.85 74.05 70.35 74.05 69.45 74.0 67.45 69.25 64.9 L67.4 63.8 65.55 64.3 60.5 65.6 Q58.15 66.4 58.15 67.95 58.15 68.3 60.5 69.25 62.9 70.15 62.9 72.15 62.95 73.95 58.6 74.15 59.8 73.25 59.8 72.1 59.8 70.25 57.0 69.35 54.2 68.45 54.2 66.7 54.15 64.55 58.85 62.75 L64.65 60.35 64.55 59.4 Q64.5 57.2 66.7 54.75 65.95 53.35 56.85 47.95 46.75 42.0 45.95 40.1 45.15 38.2 48.8 32.7 53.0 26.35 53.3 23.05 53.8 17.15 51.0 6.05 47.8 -6.8 42.35 -15.95 37.45 -24.35 39.2 -27.65 40.05 -29.35 41.95 -29.3 43.05 -30.0 44.65 -29.8" fill="url(#gradient4)" fill-rule="evenodd" stroke="none"/>
      <path d="M39.65 -22.75 L42.1 -17.85 41.75 -19.1 Q40.85 -22.25 40.85 -23.35 40.8 -26.5 42.05 -27.4 L42.0 -26.25 Q42.05 -23.95 43.95 -19.75 L48.05 -10.9 Q54.15 2.65 54.3 15.75 54.35 20.0 54.0 21.6 53.4 25.2 51.4 28.4 53.1 25.1 53.3 23.05 53.8 17.15 51.0 6.05 47.8 -6.8 42.35 -15.95 39.0 -21.65 38.75 -24.95 L39.65 -22.75 M64.55 59.2 Q64.6 60.4 65.6 61.7 L65.65 61.8 66.45 62.65 71.6 64.65 Q75.6 66.1 75.6 68.1 75.65 69.65 73.25 70.7 L70.8 71.55 Q71.2 71.15 72.3 70.85 74.05 70.35 74.05 69.45 74.0 67.45 69.25 64.9 L68.15 64.3 67.4 63.8 65.55 64.3 60.5 65.6 Q58.15 66.4 58.15 67.95 58.15 68.3 60.5 69.25 L61.35 69.6 Q62.7 70.4 62.85 71.7 L62.9 72.15 Q62.95 73.95 58.6 74.15 L59.55 73.05 59.8 72.1 Q59.8 70.25 57.0 69.35 54.2 68.45 54.2 66.7 54.15 64.55 58.85 62.75 L64.65 60.35 64.55 59.4 64.55 59.2 M79.6 40.0 L78.8 38.85 Q86.75 42.15 81.15 48.2 78.45 51.1 74.25 53.45 80.8 48.1 80.5 42.95 80.35 41.4 79.6 40.0 M59.1 26.0 L58.95 25.3 58.8 24.0 Q57.95 29.75 55.7 33.55 L53.75 36.65 53.8 37.8 53.95 38.55 54.25 39.1 55.85 37.05 Q57.05 35.25 58.3 32.0 L59.4 28.3 59.5 28.0 59.2 26.5 59.1 26.0 M57.8 14.1 Q57.75 9.4 56.15 2.0 L55.5 -0.65 Q58.65 6.35 59.2 10.15 L60.95 19.95 62.3 26.1 Q63.3 30.85 70.5 35.8 77.25 40.5 77.3 43.45 77.3 45.0 75.75 46.6 L74.85 47.35 75.15 46.45 Q75.1 44.8 70.8 41.15 67.4 38.2 64.75 36.7 61.65 34.95 60.45 31.8 L60.4 31.6 60.1 30.5 59.95 30.9 59.2 33.3 Q57.7 37.15 56.45 39.15 L55.45 40.5 55.4 40.55 Q56.8 41.9 59.55 43.55 L66.25 47.35 66.55 47.5 Q69.85 49.05 70.8 50.95 L68.85 52.55 Q66.55 48.7 60.1 45.4 53.55 41.9 51.7 38.6 51.45 37.05 52.1 35.3 L54.25 30.85 Q57.95 23.5 57.8 14.1 M90.0 44.25 L90.0 44.2 Q90.95 45.85 90.25 47.0 88.75 49.75 83.05 54.45 78.55 58.25 73.9 61.3 71.35 63.0 76.25 65.25 78.65 66.3 79.75 67.15 76.6 66.65 73.8 64.95 70.35 62.9 70.3 61.3 70.3 59.6 73.4 57.7 L80.2 54.1 Q90.05 49.0 90.0 44.25 M57.45 -4.65 Q54.5 -12.65 52.05 -18.0 57.75 -12.55 62.5 6.8 64.8 16.5 66.05 25.1 63.4 11.5 57.45 -4.65" fill="#275100" fill-rule="evenodd" stroke="none"/>
      <path d="M66.9 24.0 Q66.8 21.7 66.95 21.15 68.8 25.9 70.15 28.1 72.5 31.9 76.25 34.6 70.4 32.95 66.6 29.75 61.05 25.1 62.6 18.7 L64.75 23.25 66.9 27.25 Q67.1 26.4 66.9 24.0 M85.45 43.9 Q85.65 42.35 84.8 41.1 L83.9 40.2 Q92.1 44.15 84.1 49.55 80.05 52.2 74.4 54.1 84.9 48.7 85.45 43.9 M45.0 -27.75 L47.1 -27.65 Q45.7 -27.0 45.95 -25.15 L46.6 -23.4 Q52.1 -14.25 53.8 -2.75 54.75 2.95 54.55 6.9 54.5 -1.85 49.0 -13.0 L45.15 -20.35 Q43.3 -23.75 43.15 -24.95 42.95 -27.4 45.0 -27.75 M56.55 19.65 Q55.5 26.75 50.8 36.0 L50.5 38.45 Q51.0 41.45 54.85 43.9 52.2 43.2 49.95 42.05 45.45 39.65 47.2 36.95 L53.0 27.25 Q56.7 20.0 56.65 14.4 57.05 16.05 56.55 19.65" fill="#81b652" fill-rule="evenodd" stroke="none"/>
    </g>
    <radialGradient cx="0" cy="0" gradientTransform="matrix(0.0353, 0.0, 0.0, 0.0353, 22.85, -6.9)" gradientUnits="userSpaceOnUse" id="gradient0" r="819.2" spreadMethod="pad">
      <stop offset="0.0" stop-color="#3d730b"/>
      <stop offset="1.0" stop-color="#305d06"/>
    </radialGradient>
    <radialGradient cx="0" cy="0" gradientTransform="matrix(0.051, 6.0E-4, -6.0E-4, 0.0478, -8.1, 74.05)" gradientUnits="userSpaceOnUse" id="gradient1" r="819.2" spreadMethod="pad">
      <stop offset="0.0" stop-color="#3d730b"/>
      <stop offset="1.0" stop-color="#305d06"/>
    </radialGradient>
    <linearGradient gradientTransform="matrix(0.0281, -0.0574, 0.0571, 0.028, -19.8, 22.85)" gradientUnits="userSpaceOnUse" id="gradient2" spreadMethod="pad" x1="-819.2" x2="819.2">
      <stop offset="0.0" stop-color="#639139"/>
      <stop offset="1.0" stop-color="#35610c"/>
    </linearGradient>
    <radialGradient cx="0" cy="0" gradientTransform="matrix(-0.051, 6.0E-4, 6.0E-4, 0.0477, 53.5, 74.05)" gradientUnits="userSpaceOnUse" id="gradient3" r="819.2" spreadMethod="pad">
      <stop offset="0.0" stop-color="#3d730b"/>
      <stop offset="1.0" stop-color="#305d06"/>
    </radialGradient>
    <linearGradient gradientTransform="matrix(-0.0066, -0.0624, 0.0631, -0.0067, 64.6, 22.15)" gradientUnits="userSpaceOnUse" id="gradient4" spreadMethod="pad" x1="-819.2" x2="819.2">
      <stop offset="0.0" stop-color="#639139"/>
      <stop offset="1.0" stop-color="#35610c"/>
    </linearGradient>
  </defs>
</svg>
