<?xml version="1.0" encoding="UTF-8" standalone="no"?>
<svg xmlns:ffdec="https://www.free-decompiler.com/flash" xmlns:xlink="http://www.w3.org/1999/xlink" ffdec:objectType="frame" height="110.35px" width="61.1px" xmlns="http://www.w3.org/2000/svg">
  <g transform="matrix(1.0, 0.0, 0.0, 1.0, 3.75, 25.7)">
    <use ffdec:characterId="1" height="75.75" transform="matrix(1.0, 0.0, 0.0, 1.0, -0.75, 0.9)" width="55.1" xlink:href="#shape0"/>
    <clipPath id="clipPath0" transform="matrix(1.0, 0.0, 0.0, 1.0, 0.0, 0.0)">
      <path d="M48.05 12.5 Q57.75 25.75 52.35 38.5 51.3 40.9 49.85 43.0 49.95 46.2 48.8 49.05 47.65 51.9 45.6 53.65 46.1 55.05 47.15 56.35 49.8 60.15 47.1 64.1 47.3 66.35 46.7 67.65 45.95 69.4 43.9 70.0 40.65 70.95 40.95 73.6 41.2 75.4 42.5 76.85 38.4 74.9 38.4 72.5 35.15 70.65 37.3 67.5 38.85 65.25 39.0 63.15 L37.15 62.0 36.55 61.6 Q34.5 59.95 35.05 56.4 35.7 51.9 40.35 47.6 L40.55 47.45 42.35 45.45 42.25 45.1 42.25 44.35 Q42.25 43.15 43.1 42.3 43.75 41.7 45.1 41.1 L45.2 40.95 Q44.95 40.7 44.85 40.25 L44.75 39.35 Q44.75 38.35 45.15 37.75 L45.9 36.55 46.5 35.1 46.75 34.2 Q46.85 30.6 45.3 27.05 L42.2 27.0 41.75 28.0 34.2 28.5 34.6 27.5 27.3 27.55 26.75 28.5 20.0 28.5 20.3 27.1 10.85 26.6 10.15 28.0 8.05 28.0 Q6.4 32.05 6.95 36.2 L8.2 37.7 Q8.75 38.65 8.9 40.45 L8.65 41.05 10.55 43.15 11.6 44.85 12.0 46.45 12.95 47.45 13.15 47.6 Q17.8 51.9 18.45 56.4 19.0 59.95 16.95 61.6 L16.35 62.0 14.5 63.15 Q13.6 65.6 15.9 68.15 18.2 70.7 15.1 72.5 15.1 74.9 11.0 76.85 12.3 75.4 12.55 73.6 12.85 70.95 9.6 70.0 7.55 69.4 6.8 67.65 6.2 66.35 6.4 64.1 3.7 60.15 6.35 56.35 7.4 55.05 7.9 53.65 5.85 51.9 4.7 49.05 3.55 46.2 3.65 43.0 2.2 40.9 1.15 38.5 -4.25 25.75 5.45 12.5 9.35 7.2 13.15 4.8 16.35 2.8 18.35 1.95 20.45 1.2 21.45 1.1 L23.7 0.9 26.0 0.85 28.45 0.85 33.65 1.4 33.85 1.45 35.35 2.0 36.5 2.4 37.1 2.65 40.9 5.05 Q44.15 7.2 48.05 12.5" fill="#ffffff" fill-rule="evenodd" stroke="none"/>
    </clipPath>
    <g clip-path="url(#clipPath0)">
      <use ffdec:characterId="3" height="110.35" transform="matrix(1.0, 0.0, 0.0, 1.0, -3.75, -25.7)" width="61.1" xlink:href="#shape2"/>
    </g>
    <use ffdec:characterId="4" height="63.65" transform="matrix(1.0, 0.0, 0.0, 1.0, 0.4, 13.0)" width="53.45" xlink:href="#shape3"/>
  </g>
  <defs>
    <g id="shape0" transform="matrix(1.0, 0.0, 0.0, 1.0, 0.75, -0.9)">
      <path d="M48.1 12.3 Q57.8 25.55 52.4 38.3 51.35 40.7 49.9 42.8 50.0 46.0 48.85 48.85 47.7 51.7 45.65 53.45 46.15 54.85 47.2 56.15 49.85 59.95 47.15 63.9 47.35 66.15 46.75 67.45 46.0 69.2 43.95 69.8 40.7 70.75 41.0 73.4 41.25 75.2 42.55 76.65 38.45 74.7 38.45 72.3 35.2 70.45 37.35 67.3 38.9 65.05 39.05 62.95 L37.2 61.8 36.6 61.4 Q34.55 59.75 35.1 56.2 35.75 51.7 40.4 47.4 L40.6 47.25 42.4 45.25 42.3 44.9 42.3 44.15 Q42.3 42.95 43.15 42.1 43.8 41.5 45.15 40.9 L45.25 40.75 Q45.0 40.5 44.9 40.05 L44.8 39.15 Q44.8 38.15 45.2 37.55 L45.95 36.35 46.55 34.9 46.8 34.0 Q46.9 30.4 45.35 26.85 L42.25 26.8 41.8 27.8 34.25 28.3 34.65 27.3 27.35 27.35 26.8 28.3 20.05 28.3 20.35 26.9 10.9 26.4 10.2 27.8 8.1 27.8 Q6.45 31.85 7.0 36.0 L8.25 37.5 Q8.8 38.45 8.95 40.25 L8.7 40.85 10.6 42.95 Q11.15 43.45 11.65 44.65 L12.05 46.25 13.0 47.25 13.2 47.4 Q17.85 51.7 18.5 56.2 19.05 59.75 17.0 61.4 L16.4 61.8 14.55 62.95 Q13.65 65.4 15.95 67.95 18.25 70.5 15.15 72.3 15.15 74.7 11.05 76.65 12.35 75.2 12.6 73.4 12.9 70.75 9.65 69.8 7.6 69.2 6.85 67.45 6.25 66.15 6.45 63.9 3.75 59.95 6.4 56.15 7.45 54.85 7.95 53.45 5.9 51.7 4.75 48.85 3.6 46.0 3.7 42.8 2.25 40.7 1.2 38.3 -4.2 25.55 5.5 12.3 9.4 7.0 13.6 4.55 17.8 2.05 20.15 1.45 L26.55 0.9 32.05 1.2 35.3 1.95 Q37.2 2.45 40.7 4.75 44.2 7.0 48.1 12.3" fill="#ffefb9" fill-rule="evenodd" stroke="none"/>
    </g>
    <g id="shape2" transform="matrix(1.0, 0.0, 0.0, 1.0, 3.75, 25.7)">
      <path d="M9.5 -19.7 Q17.25 -25.7 27.55 -25.7 37.8 -25.7 45.55 -19.7 L48.55 -17.05 Q51.45 -14.15 53.4 -10.9 57.35 -4.25 57.35 4.05 57.35 16.35 48.55 25.1 42.05 31.65 33.5 33.3 L21.6 33.3 Q13.0 31.65 6.45 25.1 1.15 19.75 -0.9 13.1 L-0.45 12.95 -0.45 13.0 0.5 12.7 1.55 12.45 1.55 12.7 0.75 13.6 Q0.15 14.15 0.15 14.65 0.1 15.8 1.15 15.8 2.45 15.8 5.9 11.3 L6.25 10.9 Q8.55 8.5 8.55 7.65 L8.55 7.6 9.35 6.4 Q9.35 4.85 5.15 7.25 3.2 6.35 0.4 7.85 -1.1 8.65 -1.8 9.4 L-2.25 4.05 Q-2.25 -4.25 1.7 -10.9 3.6 -14.15 6.45 -17.05 L9.5 -19.7" fill="url(#gradient0)" fill-rule="evenodd" stroke="none"/>
      <path d="M-0.4 77.15 L-0.4 78.3 0.35 78.3 0.35 84.65 -2.45 84.65 -2.45 77.15 -0.4 77.15" fill="url(#gradient1)" fill-rule="evenodd" stroke="none"/>
      <path d="M-0.4 77.15 L-2.45 77.15 -3.75 77.15 -3.75 39.8 56.25 39.8 56.25 77.15 -0.4 77.15" fill="url(#gradient2)" fill-rule="evenodd" stroke="none"/>
      <path d="M1.3 12.5 L1.7 12.4 1.65 12.6 1.3 12.5" fill="#ffffff" fill-opacity="0.2" fill-rule="evenodd" stroke="none"/>
      <path d="M7.55 9.45 Q15.85 14.75 37.0 14.3 20.65 18.15 4.2 13.4 L6.1 11.05 6.25 10.9 7.55 9.45" fill="#ffffff" fill-opacity="0.74509805" fill-rule="evenodd" stroke="none"/>
    </g>
    <radialGradient cx="0" cy="0" gradientTransform="matrix(0.0372, 0.0, 0.0, 0.0372, 27.55, 4.05)" gradientUnits="userSpaceOnUse" id="gradient0" r="819.2" spreadMethod="pad">
      <stop offset="0.20392156862745098" stop-color="#f0b863" stop-opacity="0.4862745"/>
      <stop offset="0.8901960784313725" stop-color="#ffffff" stop-opacity="0.0"/>
    </radialGradient>
    <radialGradient cx="0" cy="0" gradientTransform="matrix(0.0471, 0.0, 0.0, 0.0471, 28.95, 62.2)" gradientUnits="userSpaceOnUse" id="gradient1" r="819.2" spreadMethod="pad">
      <stop offset="0.0" stop-color="#000000" stop-opacity="0.2901961"/>
      <stop offset="0.5686274509803921" stop-color="#000000" stop-opacity="0.0"/>
    </radialGradient>
    <linearGradient gradientTransform="matrix(0.0, -0.0228, 0.0366, 0.0, 26.2, 58.5)" gradientUnits="userSpaceOnUse" id="gradient2" spreadMethod="pad" x1="-819.2" x2="819.2">
      <stop offset="0.2980392156862745" stop-color="#d99d29" stop-opacity="0.46666667"/>
      <stop offset="0.8745098039215686" stop-color="#ffffff" stop-opacity="0.0"/>
    </linearGradient>
    <g id="shape3" transform="matrix(1.0, 0.0, 0.0, 1.0, -0.4, -13.0)">
      <path d="M44.5 15.75 L45.8 17.4 47.45 20.35 Q48.5 22.5 48.65 25.45 48.75 28.35 48.35 30.25 L47.6 32.95 46.1 36.05 46.8 34.45 46.9 34.2 46.85 34.15 46.8 34.0 46.8 33.65 46.85 32.85 46.65 32.0 46.65 31.05 46.65 30.85 Q46.65 29.9 45.25 26.8 L42.15 26.8 41.85 27.75 34.25 28.4 34.8 27.25 27.8 27.3 27.8 27.05 27.7 27.15 Q27.4 27.2 27.25 27.4 L27.05 27.8 26.95 27.95 26.7 28.4 20.05 28.15 20.25 27.45 20.2 27.2 20.35 26.75 17.15 26.8 15.6 26.6 12.45 26.55 11.1 26.4 Q10.55 26.4 10.55 26.85 L10.55 26.9 10.35 26.9 10.35 27.9 8.15 27.9 Q7.6 28.7 7.3 29.8 7.1 30.1 7.0 30.95 6.85 31.75 6.85 33.1 L6.8 34.55 6.8 34.8 6.9 35.6 7.05 36.55 6.75 35.85 5.95 33.95 Q5.6 33.05 5.15 33.05 4.75 33.05 4.75 33.75 L6.05 36.9 Q6.9 38.6 7.8 39.35 L8.0 40.1 Q6.45 39.4 6.45 40.75 7.95 43.0 9.2 44.2 7.7 43.45 7.3 43.4 L7.25 43.4 7.1 43.4 Q4.25 42.05 3.25 41.25 1.25 39.5 0.4 36.0 L0.65 36.3 0.7 36.35 1.7 37.75 Q2.55 38.75 3.1 38.75 L3.2 38.75 3.3 38.75 3.45 38.75 Q3.75 38.65 3.75 38.15 L3.35 37.25 3.2 37.0 2.3 34.65 Q1.35 32.0 1.35 29.45 1.35 26.9 2.1 24.15 2.85 21.35 3.65 19.8 4.4 18.25 5.1 17.45 L4.75 18.35 4.4 19.15 3.85 21.2 Q3.45 22.85 3.45 25.0 3.45 27.1 3.85 28.9 3.9 27.8 4.4 26.3 4.9 24.6 5.5 23.5 6.55 21.45 7.25 20.65 7.8 20.0 8.55 19.5 L10.1 18.55 10.8 18.25 11.05 18.25 11.1 18.4 10.55 19.95 Q10.1 21.2 10.0 22.4 11.5 19.85 11.9 19.4 12.55 18.5 13.3 17.75 L13.9 17.15 14.75 16.55 15.1 16.4 Q14.85 16.8 14.7 17.6 L14.45 19.6 Q14.45 20.95 14.9 21.65 L14.95 21.8 Q15.35 22.5 16.35 22.5 L16.75 22.45 Q18.25 22.2 18.45 19.85 L18.45 19.8 18.5 19.2 Q18.65 17.6 18.75 18.3 L18.9 19.8 19.1 21.2 Q19.25 21.75 19.75 22.5 L20.6 23.3 20.95 23.4 21.05 23.15 Q21.5 22.85 21.55 20.95 21.7 20.25 22.0 20.1 L22.35 20.65 Q22.95 21.55 23.85 21.85 L23.95 21.85 24.65 21.95 Q26.35 21.95 26.5 19.35 L26.6 19.35 Q27.0 19.35 27.35 20.6 L27.3 20.95 27.3 21.35 Q27.4 21.7 28.15 21.65 28.85 21.55 29.0 18.45 L28.75 16.0 28.6 15.45 29.45 16.65 30.55 18.95 31.55 22.15 Q32.1 23.9 33.4 24.0 L33.75 24.05 Q34.6 24.05 34.6 21.4 L34.45 20.0 34.25 19.1 34.25 18.95 34.4 19.2 34.7 19.7 34.95 20.55 35.55 22.25 Q36.25 23.65 37.35 23.7 38.15 23.7 38.2 22.65 L38.25 21.2 38.15 20.1 38.15 19.8 38.9 21.4 Q39.95 23.45 41.15 24.05 L41.9 24.0 42.4 23.5 42.45 22.2 Q42.45 21.25 41.85 20.0 L41.0 18.25 40.15 16.6 Q40.1 16.5 40.75 16.95 L42.05 18.2 43.15 19.65 44.0 21.7 44.55 23.75 44.6 24.2 Q45.0 23.45 44.85 22.2 L44.25 19.3 Q43.8 17.65 43.1 16.6 42.4 15.55 42.5 15.3 L44.55 17.0 Q44.8 17.8 44.8 17.35 L44.5 15.75 M53.05 24.9 L53.25 25.8 Q53.85 28.25 53.85 30.85 53.85 35.5 50.25 40.45 L49.65 41.25 48.9 42.2 47.75 43.4 47.6 43.5 44.9 45.25 38.9 48.9 38.75 48.9 40.0 47.65 Q40.55 47.6 41.3 46.45 L42.8 45.45 42.5 45.3 43.2 44.4 45.0 42.95 47.75 40.55 Q47.75 39.2 44.95 41.25 L45.25 40.6 47.95 37.05 49.25 35.05 49.15 35.55 49.2 35.95 49.35 36.25 Q49.4 36.5 49.8 36.5 50.8 36.5 51.7 34.6 L52.65 32.05 53.0 29.45 53.15 27.3 53.0 24.9 53.05 24.9 M48.85 44.3 L47.4 47.95 46.15 50.05 Q45.85 50.85 45.85 51.4 45.85 51.9 46.15 52.45 L46.35 52.85 Q45.75 53.3 45.75 53.6 L45.9 54.4 44.9 53.8 44.05 52.9 43.8 52.25 43.75 52.3 Q43.1 53.3 43.1 53.75 L43.2 54.95 Q43.3 55.7 43.9 56.35 L44.95 57.7 45.55 58.8 45.75 59.55 45.65 59.5 Q44.35 57.8 43.95 57.8 L43.85 57.85 43.85 58.5 44.15 59.35 43.5 58.65 43.25 58.3 41.95 57.35 42.25 58.95 Q42.65 60.65 43.15 62.0 L43.45 63.75 44.1 65.75 Q44.3 69.35 39.5 69.8 L40.9 68.7 42.1 67.25 40.95 67.65 40.35 68.0 37.45 68.55 Q36.95 68.55 36.55 69.8 36.35 68.6 37.45 67.0 38.5 65.4 38.75 64.35 L39.0 62.8 41.15 65.05 Q41.8 66.1 41.65 66.75 L41.45 67.15 Q42.6 65.7 42.25 64.0 L40.4 62.1 Q38.65 59.6 39.1 56.85 L38.1 57.55 Q37.05 58.85 37.35 61.95 36.05 61.05 35.8 59.5 35.4 56.4 38.35 52.95 41.0 49.85 43.75 48.55 45.9 47.45 47.1 46.5 L47.15 46.45 48.85 44.3 M9.85 48.45 Q12.6 49.75 15.25 52.85 17.65 55.65 17.85 58.25 L17.6 59.5 16.55 61.45 15.75 62.15 15.25 62.4 14.65 62.9 Q14.1 63.15 14.0 63.4 L13.95 63.75 Q13.65 64.2 13.65 64.75 13.65 65.5 14.2 66.35 L15.45 68.05 15.95 69.4 13.85 68.25 12.2 67.5 11.5 67.15 12.7 68.6 14.1 69.7 Q9.3 69.25 9.5 65.65 L10.15 63.65 10.45 61.9 11.35 58.85 11.6 57.75 10.95 58.4 9.0 60.3 7.75 61.35 6.45 63.7 5.85 62.9 5.65 62.5 5.5 61.8 Q5.5 59.6 7.75 58.15 10.0 56.7 10.0 55.3 L9.7 54.2 9.25 53.05 Q8.3 54.25 7.4 54.65 L8.0 53.55 7.3 52.75 6.65 52.1 6.65 51.95 6.9 50.35 6.45 48.4 6.4 48.25 6.2 47.85 Q5.3 46.05 4.75 44.2 L6.45 46.35 6.5 46.4 Q7.7 47.35 9.85 48.45 M14.95 61.4 L15.4 60.6 15.9 60.1 15.9 59.65 Q15.9 58.35 14.75 57.5 L14.6 57.4 Q13.7 60.85 11.35 63.9 11.2 64.6 11.3 65.25 11.9 64.35 13.4 63.15 L13.85 62.55 14.65 61.75 14.95 61.4 M7.5 54.25 L7.55 54.35 7.5 54.3 7.5 54.25" fill="#ecc884" fill-rule="evenodd" stroke="none"/>
      <path d="M25.85 17.3 L25.35 13.0 25.45 13.25 26.45 15.95 27.4 20.9 Q27.65 22.2 27.9 26.85 L27.95 27.2 27.95 27.3 27.3 27.4 27.25 27.55 27.05 27.85 26.9 28.25 25.95 28.3 26.15 23.0 25.85 17.3 M42.6 26.8 L42.25 26.85 Q42.0 22.5 40.2 18.25 L38.85 15.3 38.25 14.2 39.65 15.7 41.7 18.65 Q43.15 21.35 43.15 25.35 L43.05 26.85 42.6 26.8 M49.45 26.4 L49.85 28.6 49.8 31.7 49.4 33.95 48.85 35.4 48.7 35.7 48.7 35.75 48.65 35.95 Q47.45 38.5 45.35 40.85 L45.2 40.65 45.9 38.85 47.05 36.8 48.05 34.75 49.2 30.3 49.45 26.4 M51.85 34.6 L51.65 36.85 Q51.65 38.55 51.25 40.2 L48.85 44.65 46.2 47.85 45.9 48.8 Q45.25 50.05 45.25 51.35 L45.3 52.45 45.75 53.8 45.8 53.95 45.45 53.75 45.2 53.65 45.15 53.5 Q44.6 53.2 44.3 52.0 L44.05 50.25 44.1 49.65 43.45 50.2 43.4 50.3 43.3 50.35 Q42.2 51.7 42.0 53.35 42.1 55.85 43.4 58.0 44.75 60.25 44.75 62.25 44.7 64.2 44.3 65.2 L45.65 64.55 46.9 63.55 48.15 61.9 47.5 63.35 47.1 64.35 46.95 64.7 45.4 65.85 43.1 66.85 42.0 67.85 40.65 69.2 40.7 69.2 Q38.95 70.85 38.95 72.3 39.0 73.75 40.35 74.95 L42.5 76.65 42.0 76.45 Q40.85 75.85 39.7 74.75 38.45 73.6 38.35 72.2 L37.95 72.0 Q37.1 70.55 38.55 69.5 L40.05 68.4 41.2 67.3 41.3 67.15 41.35 67.0 Q41.9 66.35 41.9 65.9 41.9 64.35 40.0 63.0 L39.05 62.4 38.1 61.6 37.05 60.35 Q36.65 59.75 36.65 58.5 36.65 57.6 36.95 56.6 38.45 53.1 42.6 49.65 L42.75 49.45 42.8 49.4 45.45 47.15 45.55 47.1 48.0 44.1 48.95 42.45 Q47.9 43.3 46.65 43.9 L45.8 44.2 Q44.2 44.85 43.75 45.2 L41.2 46.75 41.65 46.25 42.05 45.8 43.15 44.85 45.05 43.5 45.15 43.45 45.2 43.45 45.4 43.35 45.6 43.2 Q48.35 41.35 49.8 39.25 L51.3 36.05 51.85 34.6 M45.7 21.55 L45.15 18.85 Q46.05 20.45 46.7 22.95 47.6 26.45 47.65 29.7 L46.85 33.4 46.85 33.0 46.65 31.4 46.3 29.55 45.7 27.8 45.85 24.95 45.7 21.55 M22.4 18.05 Q22.4 20.35 21.85 24.05 L21.05 28.35 20.9 28.35 20.35 28.3 20.35 28.35 19.95 28.35 20.05 28.0 21.2 23.05 21.9 18.7 Q21.9 17.35 22.25 16.1 L22.35 16.65 22.4 18.05 M21.25 22.9 L21.4 22.45 21.25 22.85 21.25 22.9 M37.85 23.25 L37.8 22.5 Q37.7 18.1 36.55 15.05 38.6 19.95 38.95 21.7 39.4 23.95 39.4 26.15 L39.45 27.95 38.35 28.0 37.35 28.15 37.6 27.0 37.85 24.7 37.85 23.25 M33.55 18.55 L33.1 16.65 33.95 17.95 34.55 19.25 34.8 20.15 35.4 22.55 35.45 25.1 35.2 27.5 35.05 28.35 34.25 28.35 Q34.0 28.2 34.45 27.95 L34.45 27.9 34.6 27.35 34.55 27.25 33.9 27.35 33.55 27.35 33.95 23.3 Q34.05 20.65 33.55 18.55 M7.8 19.95 Q8.95 17.45 11.2 15.1 L10.8 15.7 Q8.9 18.6 8.05 20.7 6.95 23.25 6.7 25.15 L6.6 29.3 6.6 30.8 6.75 33.0 6.85 34.0 Q6.8 34.75 6.9 35.1 L7.0 36.0 6.1 34.45 5.6 32.05 Q5.2 28.9 5.5 27.35 L6.0 24.6 Q6.2 23.35 7.8 19.95 M19.7 13.1 L18.4 21.45 Q17.8 25.75 18.15 26.7 L17.55 26.7 16.8 26.7 16.8 24.8 Q17.0 21.8 17.55 19.7 L19.7 13.1 M13.75 19.15 L13.4 20.6 12.8 23.6 12.6 25.0 12.45 26.55 11.55 26.45 10.85 26.45 12.4 21.65 Q13.1 19.85 13.75 19.15 M3.05 40.55 L4.05 41.55 Q5.85 43.25 7.0 43.7 9.4 44.55 10.4 45.5 L10.85 45.95 7.7 45.15 7.55 45.1 Q6.8 44.95 5.35 44.0 L5.1 43.85 8.2 47.2 8.3 47.25 10.15 48.85 Q11.05 49.35 12.2 50.4 L13.5 51.3 15.2 52.7 Q16.35 53.6 16.85 54.95 17.3 56.25 17.3 58.45 17.25 60.6 14.5 62.95 L13.45 63.9 12.3 64.65 12.1 64.85 Q11.4 65.8 11.85 66.65 L12.45 67.8 13.6 69.2 Q14.55 70.4 15.3 71.95 L15.25 72.7 15.3 73.25 15.0 71.9 Q14.9 71.25 12.9 69.2 L11.95 68.4 11.35 67.75 11.05 67.4 10.7 66.85 10.3 65.95 10.2 64.5 Q10.2 62.75 11.25 60.55 12.3 58.3 12.3 57.05 L12.3 56.55 11.5 57.4 Q10.8 57.9 10.2 58.45 L8.75 59.9 Q7.65 60.65 7.0 62.2 6.6 63.1 6.5 63.95 L5.9 63.15 Q5.95 60.35 8.95 58.15 11.95 55.85 11.95 54.1 11.85 52.3 10.45 50.85 L8.9 49.15 8.9 49.1 8.85 49.05 Q8.9 51.4 8.4 52.5 L7.95 53.55 7.85 53.4 8.3 51.5 Q8.3 49.65 7.45 48.15 L4.9 44.15 Q3.7 42.1 3.05 40.55 M2.6 27.05 L2.65 27.2 2.8 28.8 3.0 30.0 Q3.45 32.65 4.05 34.0 5.05 36.4 6.55 38.6 L8.05 40.6 7.85 40.5 6.3 39.55 4.95 38.25 4.05 37.15 3.4 36.1 Q2.5 34.3 2.25 33.1 L2.05 30.4 2.3 27.1 2.55 25.9 2.6 27.05 M38.4 56.9 Q37.75 58.3 37.75 58.9 L37.95 60.2 38.05 60.4 38.85 61.45 38.95 61.55 39.85 62.2 42.65 63.9 42.7 63.95 42.7 63.6 Q42.7 62.95 42.1 61.35 L41.7 60.1 Q40.8 58.1 40.8 56.5 40.8 55.8 40.95 55.0 L40.9 54.4 Q39.65 55.15 38.65 56.35 L38.4 56.9 M13.0 55.2 L13.35 57.15 Q13.45 58.1 12.45 60.2 L11.25 62.85 Q11.0 63.45 11.0 64.5 L11.0 64.7 11.3 64.25 12.5 63.05 13.85 61.8 Q16.05 60.0 16.35 59.15 16.65 58.25 16.5 56.75 16.35 55.2 13.5 53.5 L13.5 53.65 13.0 55.2" fill="#cda43c" fill-rule="evenodd" stroke="none"/>
    </g>
  </defs>
</svg>
