<?xml version="1.0" encoding="UTF-8" standalone="no"?>
<svg xmlns:ffdec="https://www.free-decompiler.com/flash" xmlns:xlink="http://www.w3.org/1999/xlink" ffdec:objectType="frame" height="11.45px" width="12.1px" xmlns="http://www.w3.org/2000/svg">
  <g transform="matrix(1.0, 0.0, 0.0, 1.0, -3.05, 0.55)">
    <use ffdec:characterId="2" height="7.75" transform="matrix(1.0, 0.0, 0.0, 1.0, 3.05, 3.15)" width="11.85" xlink:href="#shape0"/>
  </g>
  <defs>
    <g id="shape0" transform="matrix(1.0, 0.0, 0.0, 1.0, -3.05, -3.15)">
      <path d="M13.65 5.15 L14.35 5.65 14.5 7.05 Q14.6 8.2 13.4 9.6 12.25 11.0 9.0 10.8 L9.3 10.85 Q6.75 10.6 5.8 9.45 4.9 8.3 4.7 7.65 4.55 6.95 4.8 6.5 5.55 5.6 5.95 5.6 L7.5 4.95 Q8.9 4.3 10.0 4.3 11.9 4.3 13.65 5.15" fill="#ffffff" fill-rule="evenodd" stroke="none"/>
      <path d="M4.35 7.05 L4.45 7.15 4.05 7.4 3.35 7.55 3.05 7.65 Q3.95 7.05 4.8 6.4 L4.9 6.5 4.35 7.05" fill="url(#gradient0)" fill-rule="evenodd" stroke="none"/>
      <path d="M11.2 4.4 Q12.65 5.15 12.9 6.8 13.2 8.4 12.25 9.55 11.35 10.75 9.3 10.5 7.2 10.2 6.55 8.7 5.95 7.15 6.4 5.95 L6.65 5.35 6.85 5.5 7.05 5.2 Q7.25 4.8 7.4 4.9 L8.65 4.6 9.75 4.45 11.2 4.4" fill="#850049" fill-rule="evenodd" stroke="none"/>
      <path d="M11.2 4.4 L11.65 4.4 12.4 5.0 Q13.0 5.55 13.2 6.5 13.4 7.45 13.2 8.2 L12.75 9.35 12.0 10.15 10.8 10.7 9.2 10.75 Q8.25 10.7 7.4 10.15 6.55 9.55 6.05 8.3 5.6 7.0 6.0 6.0 6.3 5.2 6.65 5.35 L6.4 5.95 Q5.95 7.15 6.55 8.7 7.2 10.2 9.3 10.5 11.35 10.75 12.25 9.55 13.2 8.4 12.9 6.8 12.65 5.15 11.2 4.4" fill="#480033" fill-rule="evenodd" stroke="none"/>
      <path d="M12.2 4.95 Q13.3 5.85 13.15 7.55 13.1 9.25 12.25 9.95 11.35 10.65 9.9 10.75 8.4 10.8 7.2 9.8 6.1 8.8 5.9 7.25 5.75 5.6 6.85 5.15 7.95 4.7 9.5 4.4 11.05 4.1 12.2 4.95" fill="url(#gradient1)" fill-rule="evenodd" stroke="none"/>
      <path d="M11.3 8.55 Q11.65 7.65 11.4 7.15 L11.15 6.55 11.2 6.5 11.35 6.5 Q11.9 6.95 11.85 8.25 11.8 9.55 10.25 9.75 L8.25 9.55 7.75 9.0 7.5 8.4 Q7.4 8.0 7.45 7.25 7.5 6.5 7.75 6.3 7.55 6.8 7.6 7.25 7.6 7.9 8.05 8.65 8.55 9.4 9.7 9.45 10.85 9.45 11.3 8.55" fill="url(#gradient2)" fill-rule="evenodd" stroke="none"/>
      <path d="M10.15 6.4 Q11.1 6.65 11.05 7.75 10.95 9.15 9.45 9.15 8.8 9.15 8.45 8.55 8.15 8.1 8.2 7.65 8.25 6.6 9.3 6.35 L10.15 6.4" fill="url(#gradient3)" fill-rule="evenodd" stroke="none"/>
      <path d="M14.55 6.85 L14.5 7.3 14.45 7.3 13.85 7.1 13.2 6.95 11.75 6.7 8.5 6.9 Q6.6 7.3 6.05 7.8 L5.35 8.6 5.2 8.8 4.75 7.25 Q4.75 6.2 6.3 5.65 L7.85 5.0 Q9.2 4.45 10.1 4.45 12.1 4.45 13.55 5.3 L14.45 6.0 14.55 6.85" fill="#000000" fill-opacity="0.3137255" fill-rule="evenodd" stroke="none"/>
      <path d="M6.75 7.4 L6.7 7.35 6.65 7.3 6.4 7.0 Q6.4 6.7 6.65 6.35 L7.45 5.85 8.85 5.8 9.2 6.1 9.25 6.6 Q9.1 7.25 8.05 7.4 L6.75 7.4 M9.8 7.35 L9.85 7.45 Q10.0 7.75 9.6 7.85 L9.1 7.75 9.05 7.65 9.1 7.55 9.15 7.45 9.35 7.35 9.65 7.3 9.8 7.35" fill="#ffffff" fill-rule="evenodd" stroke="none"/>
      <path d="M11.55 9.9 L11.15 9.8 10.85 9.4 10.9 9.3 Q10.8 9.15 11.15 9.15 11.8 9.1 11.9 9.45 12.0 9.8 11.55 9.9 M10.55 10.2 L9.95 10.3 9.8 10.1 Q9.7 9.85 9.9 9.75 L10.05 9.7 10.35 9.7 Q10.75 9.9 10.55 10.2" fill="#ffffff" fill-opacity="0.4509804" fill-rule="evenodd" stroke="none"/>
      <path d="M9.2 6.1 L9.75 6.5 Q9.95 6.8 9.8 7.25 L9.9 7.2 9.8 7.35 9.65 7.3 9.35 7.35 9.15 7.45 9.1 7.55 9.05 7.65 9.1 7.75 8.8 7.85 7.2 7.7 6.75 7.4 8.05 7.4 Q9.1 7.25 9.25 6.6 L9.2 6.1" fill="#000000" fill-opacity="0.43137255" fill-rule="evenodd" stroke="none"/>
      <path d="M14.9 4.55 L14.6 4.4 13.9 4.0 13.25 3.8 12.15 3.55 Q10.8 3.35 9.9 3.55 10.95 3.1 12.3 3.15 L13.25 3.35 Q14.05 3.55 14.4 3.95 L14.9 4.55" fill="#4a1400" fill-opacity="0.29803923" fill-rule="evenodd" stroke="none"/>
      <path d="M10.9 4.1 L11.25 4.1 12.4 4.3 13.05 4.5 13.75 4.8 13.25 4.65 12.2 4.35 13.0 4.7 12.9 4.85 12.95 5.0 12.2 4.65 12.05 4.7 12.0 4.7 11.1 4.7 10.95 4.75 9.75 4.7 Q8.5 4.8 7.2 5.55 5.9 6.25 5.5 6.7 L5.15 7.1 5.15 7.05 Q5.45 6.3 5.85 5.85 L5.75 5.75 Q5.1 6.2 4.7 7.15 L4.65 7.05 4.45 7.05 4.35 7.1 4.3 7.15 4.45 7.6 4.45 7.65 4.15 7.25 3.65 7.45 3.7 7.4 3.65 7.4 3.85 7.1 4.1 6.85 4.7 6.25 Q5.45 5.6 6.15 5.2 6.85 4.8 7.5 4.6 6.25 5.05 6.25 5.4 L6.3 5.5 6.35 5.55 7.8 4.65 8.8 4.35 9.65 4.2 10.25 4.15 10.7 4.1 10.9 4.1" fill="url(#gradient4)" fill-rule="evenodd" stroke="none"/>
      <path d="M13.75 4.8 L14.4 5.2 14.5 6.65 13.8 6.0 13.5 5.75 13.1 5.55 12.55 5.25 Q12.25 5.05 10.95 4.75 L11.1 4.7 12.0 4.7 12.05 4.7 12.2 4.65 12.95 5.0 12.9 4.85 13.0 4.7 12.2 4.35 13.25 4.65 13.75 4.8 M5.15 7.1 L5.1 7.15 5.15 7.15 4.95 7.5 5.15 8.4 5.15 8.55 5.25 8.8 4.4 7.75 4.2 7.45 3.1 7.65 3.65 7.4 3.7 7.4 3.65 7.45 4.15 7.25 4.45 7.65 4.45 7.6 4.3 7.15 4.35 7.1 4.45 7.05 4.65 7.05 4.7 7.15 Q5.1 6.2 5.75 5.75 L5.85 5.85 Q5.45 6.3 5.15 7.05 L5.15 7.1 M7.5 4.6 L7.75 4.5 Q9.5 3.85 11.05 3.85 L13.25 4.2 13.7 4.4 14.85 5.05 13.9 4.6 12.9 4.25 11.45 4.0 11.0 4.05 10.9 4.1 10.7 4.1 10.25 4.15 9.65 4.2 8.8 4.35 7.8 4.65 6.35 5.55 6.3 5.5 6.25 5.4 Q6.25 5.05 7.5 4.6 M7.55 4.2 L7.15 4.4 Q6.05 4.85 4.7 6.0 L4.1 6.5 3.55 6.95 4.1 6.4 4.9 5.55 Q5.9 4.7 7.55 4.2" fill="url(#gradient5)" fill-rule="evenodd" stroke="none"/>
      <path d="M10.8 10.85 L8.6 10.85 Q7.4 10.7 7.05 10.4 L8.7 10.55 11.6 10.4 12.6 10.25 12.1 10.5 11.1 10.8 10.8 10.85" fill="url(#gradient6)" fill-rule="evenodd" stroke="none"/>
    </g>
    <linearGradient gradientTransform="matrix(0.0, 0.0, 0.0, 0.0, 11.45, 2.5)" gradientUnits="userSpaceOnUse" id="gradient0" spreadMethod="pad" x1="-819.2" x2="819.2">
      <stop offset="0.0" stop-color="#331000"/>
      <stop offset="0.13725490196078433" stop-color="#270f03"/>
      <stop offset="0.5215686274509804" stop-color="#000000"/>
      <stop offset="0.8784313725490196" stop-color="#2e0f02"/>
      <stop offset="1.0" stop-color="#4a1e0b"/>
    </linearGradient>
    <radialGradient cx="0" cy="0" gradientTransform="matrix(-0.0053, 2.0E-4, 3.0E-4, 0.0038, 9.7, 7.75)" gradientUnits="userSpaceOnUse" id="gradient1" r="819.2" spreadMethod="pad">
      <stop offset="0.0" stop-color="#ffffff" stop-opacity="0.7058824"/>
      <stop offset="0.7019607843137254" stop-color="#ffffff" stop-opacity="0.0"/>
    </radialGradient>
    <radialGradient cx="0" cy="0" gradientTransform="matrix(-1.0887, 0.0349, 0.0472, 0.6775, 11.05, 2.4)" gradientUnits="userSpaceOnUse" id="gradient2" r="819.2" spreadMethod="pad">
      <stop offset="0.0" stop-color="#41012b" stop-opacity="0.65882355"/>
      <stop offset="0.7019607843137254" stop-color="#0a2e00" stop-opacity="0.047058824"/>
    </radialGradient>
    <radialGradient cx="0" cy="0" gradientTransform="matrix(-1.0902, 0.0116, -7.0E-4, 0.8058, 11.55, 1.45)" gradientUnits="userSpaceOnUse" id="gradient3" r="819.2" spreadMethod="pad">
      <stop offset="0.0" stop-color="#41012b" stop-opacity="0.65882355"/>
      <stop offset="0.7019607843137254" stop-color="#0a2e00" stop-opacity="0.047058824"/>
    </radialGradient>
    <linearGradient gradientTransform="matrix(-1.0, 0.0, 0.0, 0.6783, 11.45, 2.2)" gradientUnits="userSpaceOnUse" id="gradient4" spreadMethod="pad" x1="-819.2" x2="819.2">
      <stop offset="0.0" stop-color="#331000"/>
      <stop offset="0.13725490196078433" stop-color="#270f03"/>
      <stop offset="0.5215686274509804" stop-color="#000000"/>
      <stop offset="0.8784313725490196" stop-color="#2e0f02"/>
      <stop offset="1.0" stop-color="#4a1e0b"/>
    </linearGradient>
    <linearGradient gradientTransform="matrix(0.0, 0.0, 0.0, 0.0, 11.45, 2.5)" gradientUnits="userSpaceOnUse" id="gradient5" spreadMethod="pad" x1="-819.2" x2="819.2">
      <stop offset="0.0" stop-color="#331000"/>
      <stop offset="0.13725490196078433" stop-color="#270f03"/>
      <stop offset="0.5215686274509804" stop-color="#000000"/>
      <stop offset="0.8784313725490196" stop-color="#2e0f02"/>
      <stop offset="1.0" stop-color="#4a1e0b"/>
    </linearGradient>
    <linearGradient gradientTransform="matrix(0.0, 0.0, 0.0, 0.0, 11.5, 2.5)" gradientUnits="userSpaceOnUse" id="gradient6" spreadMethod="pad" x1="-819.2" x2="819.2">
      <stop offset="0.0" stop-color="#331000"/>
      <stop offset="0.13725490196078433" stop-color="#270f03"/>
      <stop offset="0.5215686274509804" stop-color="#000000"/>
      <stop offset="0.8784313725490196" stop-color="#2e0f02"/>
      <stop offset="1.0" stop-color="#4a1e0b"/>
    </linearGradient>
  </defs>
</svg>
