<?xml version="1.0" encoding="UTF-8" standalone="no"?>
<svg xmlns:ffdec="https://www.free-decompiler.com/flash" xmlns:xlink="http://www.w3.org/1999/xlink" ffdec:objectType="frame" height="12.6px" width="14.45px" xmlns="http://www.w3.org/2000/svg">
  <g transform="matrix(1.0, 0.0, 0.0, 1.0, -1.2, 0.0)">
    <use ffdec:characterId="5" height="4.85" transform="matrix(1.0, 0.0, 0.0, 1.0, 2.35, 7.35)" width="12.0" xlink:href="#shape0"/>
    <use ffdec:characterId="3" height="10.4" transform="matrix(-1.0, 0.0, 0.0, 0.4594, 12.9, 7.4256)" width="8.7" xlink:href="#sprite0"/>
    <use ffdec:characterId="6" height="5.8" transform="matrix(1.0, 0.0, 0.0, 1.0, 1.2, 6.65)" width="13.3" xlink:href="#shape2"/>
  </g>
  <defs>
    <g id="shape0" transform="matrix(1.0, 0.0, 0.0, 1.0, -2.35, -7.35)">
      <path d="M12.35 8.25 L13.45 8.95 Q15.35 10.15 13.2 11.2 11.1 12.25 10.3 12.2 L9.2 12.2 8.25 12.2 5.15 11.6 3.8 11.0 3.7 10.95 3.15 10.55 2.55 9.9 2.35 8.4 2.45 8.05 2.45 8.0 4.75 7.6 5.25 7.5 6.55 7.35 10.65 7.55 10.9 7.7 10.7 7.7 Q11.65 7.85 12.35 8.25" fill="#f5f5f5" fill-rule="evenodd" stroke="none"/>
    </g>
    <g id="sprite0" transform="matrix(1.0, 0.0, 0.0, 1.0, -1.65, -0.6)">
      <use ffdec:characterId="2" height="10.4" transform="matrix(1.0, 0.0, 0.0, 1.0, 1.65, 0.6)" width="8.7" xlink:href="#shape1"/>
    </g>
    <g id="shape1" transform="matrix(1.0, 0.0, 0.0, 1.0, -1.65, -0.6)">
      <path d="M1.65 5.05 Q1.65 2.85 2.5 2.05 3.35 1.3 4.25 1.05 L6.35 0.65 9.2 0.75 Q9.85 1.35 10.1 2.4 10.65 4.4 9.3 7.65 7.95 10.85 6.0 10.95 4.0 11.0 2.85 9.1 1.65 7.25 1.65 5.05" fill="url(#gradient0)" fill-rule="evenodd" stroke="none"/>
      <path d="M10.25 3.9 L9.55 6.45 8.55 8.9 8.4 9.05 9.45 6.05 Q9.8 4.6 9.5 3.55 8.6 2.95 5.35 3.55 2.2 4.15 2.25 4.5 L2.25 5.15 2.25 6.15 Q2.25 7.0 3.1 8.7 3.95 10.4 5.7 11.0 3.95 10.6 2.75 9.05 1.55 7.45 1.65 5.3 1.7 3.1 2.75 2.0 3.75 0.9 6.1 0.7 L10.0 1.05 10.35 2.95 10.25 3.9" fill="url(#gradient1)" fill-rule="evenodd" stroke="none"/>
      <path d="M8.4 2.55 L7.3 5.2 9.4 7.2 6.5 7.0 5.2 9.6 4.65 6.75 1.8 6.5 4.2 4.95 3.8 2.0 5.9 3.95 8.4 2.55" fill="url(#gradient2)" fill-rule="evenodd" stroke="none"/>
      <path d="M7.45 3.65 L6.75 5.35 8.1 6.6 6.25 6.45 5.45 8.1 5.1 6.3 3.3 6.15 4.8 5.2 4.55 3.3 5.9 4.55 7.45 3.65" fill="url(#gradient3)" fill-rule="evenodd" stroke="none"/>
      <path d="M7.4 8.3 L7.55 8.1 7.9 7.9 Q8.5 7.8 7.75 9.3 L7.5 9.0 7.4 8.9 7.4 8.3 M6.85 8.65 L6.95 9.25 Q7.0 9.8 6.7 10.0 L6.3 10.0 Q5.2 9.6 6.1 8.7 L6.85 8.65 M8.7 7.9 Q8.15 7.95 8.15 7.3 8.15 6.6 8.7 6.8 9.1 6.95 8.7 7.9 M8.6 5.7 L8.9 5.4 8.9 5.35 9.0 5.3 Q9.5 5.4 9.0 6.3 L8.6 6.3 8.6 5.7" fill="#fff3fe" fill-opacity="0.6" fill-rule="evenodd" stroke="none"/>
    </g>
    <radialGradient cx="0" cy="0" gradientTransform="matrix(0.0075, 0.0, 0.0, 0.0075, 5.7, 7.4)" gradientUnits="userSpaceOnUse" id="gradient0" r="819.2" spreadMethod="pad">
      <stop offset="0.023529411764705882" stop-color="#fff7fd"/>
      <stop offset="0.48627450980392156" stop-color="#ee94de"/>
      <stop offset="1.0" stop-color="#3400b4"/>
    </radialGradient>
    <linearGradient gradientTransform="matrix(-1.0E-4, 0.0032, -0.0058, -2.0E-4, 5.75, 3.1)" gradientUnits="userSpaceOnUse" id="gradient1" spreadMethod="pad" x1="-819.2" x2="819.2">
      <stop offset="0.0" stop-color="#270046"/>
      <stop offset="1.0" stop-color="#912ea3" stop-opacity="0.2"/>
    </linearGradient>
    <radialGradient cx="0" cy="0" gradientTransform="matrix(0.0052, 0.0, 0.0, 0.0052, 5.6, 5.8)" gradientUnits="userSpaceOnUse" id="gradient2" r="819.2" spreadMethod="pad">
      <stop offset="0.25098039215686274" stop-color="#9f74c9"/>
      <stop offset="1.0" stop-color="#540ac4" stop-opacity="0.0"/>
      <stop offset="1.0" stop-color="#0087ff" stop-opacity="0.0"/>
    </radialGradient>
    <radialGradient cx="0" cy="0" gradientTransform="matrix(0.0033, 0.0, 0.0, 0.0033, 5.7, 5.7)" gradientUnits="userSpaceOnUse" id="gradient3" r="819.2" spreadMethod="pad">
      <stop offset="0.00392156862745098" stop-color="#fff4ad"/>
      <stop offset="1.0" stop-color="#f7b858" stop-opacity="0.29803923"/>
    </radialGradient>
    <g id="shape2" transform="matrix(1.0, 0.0, 0.0, 1.0, -1.2, -6.65)">
      <path d="M11.85 9.85 L9.0 9.85 4.3 9.5 2.15 8.95 Q2.45 8.85 2.25 8.7 L2.25 8.45 Q2.45 7.2 7.65 7.4 9.8 7.5 11.95 8.25 14.15 8.95 14.3 9.2 14.5 9.45 13.9 9.65 L13.1 9.8 11.85 9.85" fill="#462121" fill-opacity="0.2" fill-rule="evenodd" stroke="none"/>
      <path d="M3.5 7.4 L2.45 7.85 Q1.8 8.1 1.4 8.75 0.95 8.35 1.5 7.8 2.05 7.25 2.75 7.15 L6.4 6.65 8.85 6.75 Q5.45 6.7 3.5 7.4 M6.65 12.15 L8.2 12.3 10.65 12.1 9.5 12.35 8.05 12.45 6.4 12.3 5.5 12.0 6.65 12.15" fill="#eeb1ba" fill-rule="evenodd" stroke="none"/>
      <path d="M3.5 7.4 L3.7 7.4 4.45 7.25 6.0 7.05 8.75 7.05 11.8 7.55 Q12.95 7.95 13.5 8.45 L14.5 9.25 Q13.95 8.9 12.45 8.4 10.6 7.75 7.95 7.8 L4.15 8.15 Q2.95 8.45 2.9 9.2 2.85 9.95 3.6 10.6 4.35 11.3 3.5 10.75 L2.0 9.55 1.4 8.75 Q1.8 8.1 2.45 7.85 L3.5 7.4" fill="url(#gradient4)" fill-rule="evenodd" stroke="none"/>
      <path d="M11.1 8.85 L10.6 8.8 10.5 8.55 Q11.0 8.05 11.5 8.4 11.6 8.75 11.1 8.85" fill="#ffaaaa" fill-rule="evenodd" stroke="none"/>
      <path d="M12.55 8.6 Q13.2 8.65 13.2 8.9 13.2 9.5 12.15 9.5 L11.5 9.45 11.4 9.3 Q11.25 8.9 12.4 8.6 L12.55 8.6" fill="url(#gradient5)" fill-rule="evenodd" stroke="none"/>
      <path d="M3.65 9.5 L5.5 9.2 Q6.85 9.2 6.75 9.5 6.6 9.8 5.8 10.05 L4.15 10.3 3.5 10.3 3.25 10.0 Q3.15 9.75 3.65 9.5" fill="url(#gradient6)" fill-rule="evenodd" stroke="none"/>
    </g>
    <radialGradient cx="0" cy="0" gradientTransform="matrix(-0.0108, 0.0, 0.0, 0.005, 7.9, 9.45)" gradientUnits="userSpaceOnUse" id="gradient4" r="819.2" spreadMethod="pad">
      <stop offset="0.0" stop-color="#ffd4d4"/>
      <stop offset="0.6470588235294118" stop-color="#461119"/>
    </radialGradient>
    <radialGradient cx="0" cy="0" gradientTransform="matrix(0.0021, 0.0, 0.0, 9.0E-4, 12.35, 9.05)" gradientUnits="userSpaceOnUse" id="gradient5" r="819.2" spreadMethod="pad">
      <stop offset="0.3333333333333333" stop-color="#ffffff"/>
      <stop offset="0.7843137254901961" stop-color="#ffd4d4" stop-opacity="0.0"/>
    </radialGradient>
    <radialGradient cx="0" cy="0" gradientTransform="matrix(0.0035, 2.0E-4, -4.0E-4, 0.0016, 5.0, 9.75)" gradientUnits="userSpaceOnUse" id="gradient6" r="819.2" spreadMethod="pad">
      <stop offset="0.3333333333333333" stop-color="#ffffff"/>
      <stop offset="1.0" stop-color="#ffd4d4" stop-opacity="0.0"/>
    </radialGradient>
  </defs>
</svg>
