<?xml version="1.0" encoding="UTF-8" standalone="no"?>
<svg xmlns:ffdec="https://www.free-decompiler.com/flash" xmlns:xlink="http://www.w3.org/1999/xlink" ffdec:objectType="frame" height="12.6px" width="14.45px" xmlns="http://www.w3.org/2000/svg">
  <g transform="matrix(1.0, 0.0, 0.0, 1.0, -1.2, 0.0)">
    <use ffdec:characterId="3" height="10.4" transform="matrix(-1.0, 0.0, 0.0, 1.0, 12.9, 1.7)" width="8.7" xlink:href="#sprite0"/>
    <use ffdec:characterId="7" height="5.0" transform="matrix(1.0, 0.0, 0.0, 1.0, 2.45, 6.55)" width="13.2" xlink:href="#shape1"/>
  </g>
  <defs>
    <g id="sprite0" transform="matrix(1.0, 0.0, 0.0, 1.0, -1.65, -0.6)">
      <use ffdec:characterId="2" height="10.4" transform="matrix(1.0, 0.0, 0.0, 1.0, 1.65, 0.6)" width="8.7" xlink:href="#shape0"/>
    </g>
    <g id="shape0" transform="matrix(1.0, 0.0, 0.0, 1.0, -1.65, -0.6)">
      <path d="M1.65 5.05 Q1.65 2.85 2.5 2.05 3.35 1.3 4.25 1.05 L6.35 0.65 9.2 0.75 Q9.85 1.35 10.1 2.4 10.65 4.4 9.3 7.65 7.95 10.85 6.0 10.95 4.0 11.0 2.85 9.1 1.65 7.25 1.65 5.05" fill="url(#gradient0)" fill-rule="evenodd" stroke="none"/>
      <path d="M10.25 3.9 L9.55 6.45 8.55 8.9 8.4 9.05 9.45 6.05 Q9.8 4.6 9.5 3.55 8.6 2.95 5.35 3.55 2.2 4.15 2.25 4.5 L2.25 5.15 2.25 6.15 Q2.25 7.0 3.1 8.7 3.95 10.4 5.7 11.0 3.95 10.6 2.75 9.05 1.55 7.45 1.65 5.3 1.7 3.1 2.75 2.0 3.75 0.9 6.1 0.7 L10.0 1.05 10.35 2.95 10.25 3.9" fill="url(#gradient1)" fill-rule="evenodd" stroke="none"/>
      <path d="M8.4 2.55 L7.3 5.2 9.4 7.2 6.5 7.0 5.2 9.6 4.65 6.75 1.8 6.5 4.2 4.95 3.8 2.0 5.9 3.95 8.4 2.55" fill="url(#gradient2)" fill-rule="evenodd" stroke="none"/>
      <path d="M7.45 3.65 L6.75 5.35 8.1 6.6 6.25 6.45 5.45 8.1 5.1 6.3 3.3 6.15 4.8 5.2 4.55 3.3 5.9 4.55 7.45 3.65" fill="url(#gradient3)" fill-rule="evenodd" stroke="none"/>
      <path d="M7.4 8.3 L7.55 8.1 7.9 7.9 Q8.5 7.8 7.75 9.3 L7.5 9.0 7.4 8.9 7.4 8.3 M6.85 8.65 L6.95 9.25 Q7.0 9.8 6.7 10.0 L6.3 10.0 Q5.2 9.6 6.1 8.7 L6.85 8.65 M8.7 7.9 Q8.15 7.95 8.15 7.3 8.15 6.6 8.7 6.8 9.1 6.95 8.7 7.9 M8.6 5.7 L8.9 5.4 8.9 5.35 9.0 5.3 Q9.5 5.4 9.0 6.3 L8.6 6.3 8.6 5.7" fill="#fff3fe" fill-opacity="0.0" fill-rule="evenodd" stroke="none"/>
    </g>
    <radialGradient cx="0" cy="0" gradientTransform="matrix(0.0075, 0.0, 0.0, 0.0075, 5.7, 7.4)" gradientUnits="userSpaceOnUse" id="gradient0" r="819.2" spreadMethod="pad">
      <stop offset="0.023529411764705882" stop-color="#fff7fd" stop-opacity="0.0"/>
      <stop offset="0.48627450980392156" stop-color="#ee94de" stop-opacity="0.0"/>
      <stop offset="1.0" stop-color="#3400b4" stop-opacity="0.0"/>
    </radialGradient>
    <linearGradient gradientTransform="matrix(-1.0E-4, 0.0032, -0.0058, -2.0E-4, 5.75, 3.1)" gradientUnits="userSpaceOnUse" id="gradient1" spreadMethod="pad" x1="-819.2" x2="819.2">
      <stop offset="0.0" stop-color="#270046" stop-opacity="0.0"/>
      <stop offset="1.0" stop-color="#912ea3" stop-opacity="0.0"/>
    </linearGradient>
    <radialGradient cx="0" cy="0" gradientTransform="matrix(0.0052, 0.0, 0.0, 0.0052, 5.6, 5.8)" gradientUnits="userSpaceOnUse" id="gradient2" r="819.2" spreadMethod="pad">
      <stop offset="0.25098039215686274" stop-color="#9f74c9" stop-opacity="0.0"/>
      <stop offset="1.0" stop-color="#540ac4" stop-opacity="0.0"/>
      <stop offset="1.0" stop-color="#0087ff" stop-opacity="0.0"/>
    </radialGradient>
    <radialGradient cx="0" cy="0" gradientTransform="matrix(0.0033, 0.0, 0.0, 0.0033, 5.7, 5.7)" gradientUnits="userSpaceOnUse" id="gradient3" r="819.2" spreadMethod="pad">
      <stop offset="0.00392156862745098" stop-color="#fff4ad" stop-opacity="0.0"/>
      <stop offset="1.0" stop-color="#f7b858" stop-opacity="0.0"/>
    </radialGradient>
    <g id="shape1" transform="matrix(1.0, 0.0, 0.0, 1.0, -2.45, -6.55)">
      <path d="M10.35 9.35 L8.45 9.6 Q7.15 9.5 5.45 8.15 L3.6 6.55 Q6.3 8.6 8.8 8.6 L9.0 8.6 10.0 8.8 10.95 9.0 10.35 9.35" fill="#eeb1ba" fill-rule="evenodd" stroke="none"/>
      <path d="M10.65 11.45 L7.7 11.5 5.9 11.1 5.05 10.7 4.75 10.55 4.25 10.25 4.2 10.2 Q2.95 9.45 2.45 8.3 L4.2 9.55 Q3.55 8.6 3.1 6.9 4.65 8.55 6.45 9.25 L9.9 10.4 Q11.6 10.8 13.35 10.45 L15.5 10.05 Q15.9 9.9 15.3 10.25 L13.6 10.9 10.65 11.45" fill="url(#gradient4)" fill-rule="evenodd" stroke="none"/>
    </g>
    <radialGradient cx="0" cy="0" gradientTransform="matrix(-0.0087, 0.0, 0.0, 0.0087, 8.75, 9.35)" gradientUnits="userSpaceOnUse" id="gradient4" r="819.2" spreadMethod="pad">
      <stop offset="0.0" stop-color="#ffd4d4"/>
      <stop offset="0.6470588235294118" stop-color="#461119"/>
    </radialGradient>
  </defs>
</svg>
