<svg xmlns="http://www.w3.org/2000/svg" xmlns:ffdec="https://www.free-decompiler.com/flash" xmlns:xlink="http://www.w3.org/1999/xlink" ffdec:objectType="frame" width="14.45" height="12.6"><g transform="translate(-1.2)"><use ffdec:characterId="8" xlink:href="#a" width="12" height="4.85" transform="translate(2.35 7.35)"/><use ffdec:characterId="3" xlink:href="#b" width="8.7" height="10.4" transform="matrix(-1 0 0 .4594 12.9 7.426)"/><use ffdec:characterId="9" xlink:href="#c" width="13.3" height="5.8" transform="translate(1.2 6.65)"/></g><defs><radialGradient id="e" cx="0" cy="0" r="819.2" gradientTransform="translate(5.7 7.4)scale(.0075)" gradientUnits="userSpaceOnUse" spreadMethod="pad"><stop offset=".024" stop-color="#fff7fd"/><stop offset=".486" stop-color="#ee94de"/><stop offset="1" stop-color="#3400b4"/></radialGradient><radialGradient id="g" cx="0" cy="0" r="819.2" gradientTransform="translate(5.6 5.8)scale(.0052)" gradientUnits="userSpaceOnUse" spreadMethod="pad"><stop offset=".251" stop-color="#9f74c9"/><stop offset="1" stop-color="#540ac4" stop-opacity="0"/><stop offset="1" stop-color="#0087ff" stop-opacity="0"/></radialGradient><radialGradient id="h" cx="0" cy="0" r="819.2" gradientTransform="translate(5.7 5.7)scale(.0033)" gradientUnits="userSpaceOnUse" spreadMethod="pad"><stop offset=".004" stop-color="#fff4ad"/><stop offset="1" stop-color="#f7b858" stop-opacity=".298"/></radialGradient><radialGradient id="i" cx="0" cy="0" r="819.2" gradientTransform="matrix(-.0108 0 0 .005 7.9 9.45)" gradientUnits="userSpaceOnUse" spreadMethod="pad"><stop offset="0" stop-color="#ffd4d4"/><stop offset=".647" stop-color="#461119"/></radialGradient><radialGradient id="j" cx="0" cy="0" r="819.2" gradientTransform="matrix(.0021 0 0 .0009 12.35 9.05)" gradientUnits="userSpaceOnUse" spreadMethod="pad"><stop offset=".333" stop-color="#fff"/><stop offset=".784" stop-color="#ffd4d4" stop-opacity="0"/></radialGradient><radialGradient id="k" cx="0" cy="0" r="819.2" gradientTransform="matrix(.0035 .0002 -.0004 .0016 5 9.75)" gradientUnits="userSpaceOnUse" spreadMethod="pad"><stop offset=".333" stop-color="#fff"/><stop offset="1" stop-color="#ffd4d4" stop-opacity="0"/></radialGradient><g id="d" fill-rule="evenodd"><path fill="url(#e)" d="M1.65 5.05q0-2.2.85-3 .85-.75 1.75-1l2.1-.4 2.85.1q.65.6.9 1.65.55 2-.8 5.25-1.35 3.2-3.3 3.3Q4 11 2.85 9.1q-1.2-1.85-1.2-4.05" transform="translate(-1.65 -.6)"/><path fill="url(#f)" d="m10.25 3.9-.7 2.55-1 2.45-.15.15 1.05-3q.35-1.45.05-2.5-.9-.6-4.15 0-3.15.6-3.1.95v1.65q0 .85.85 2.55T5.7 11q-1.75-.4-2.95-1.95-1.2-1.6-1.1-3.75.05-2.2 1.1-3.3Q3.75.9 6.1.7l3.9.35.35 1.9z" transform="translate(-1.65 -.6)"/><path fill="url(#g)" d="M8.4 2.55 7.3 5.2l2.1 2L6.5 7 5.2 9.6l-.55-2.85L1.8 6.5l2.4-1.55L3.8 2l2.1 1.95z" transform="translate(-1.65 -.6)"/><path fill="url(#h)" d="m7.45 3.65-.7 1.7L8.1 6.6l-1.85-.15-.8 1.65-.35-1.8-1.8-.15 1.5-.95-.25-1.9L5.9 4.55z" transform="translate(-1.65 -.6)"/><path fill="#fff3fe" fill-opacity=".6" d="m5.75 7.7.15-.2.35-.2q.6-.1-.15 1.4l-.25-.3-.1-.1zm-.55.35.1.6q.05.55-.25.75h-.4q-1.1-.4-.2-1.3zm1.85-.75q-.55.05-.55-.6 0-.7.55-.5.4.15 0 1.1m-.1-2.2.3-.3v-.05l.1-.05q.5.1 0 1h-.4z"/></g><g id="c" fill-rule="evenodd"><path fill="#462121" fill-opacity=".2" d="M10.65 3.2H7.8l-4.7-.35L.95 2.3q.3-.1.1-.25V1.8Q1.25.55 6.45.75q2.15.1 4.3.85 2.2.7 2.35.95.2.25-.4.45l-.8.15z"/><path fill="#eeb1ba" d="M.2 2.1q-.45-.4.1-.95T1.55.5L5.2 0l2.45.1Q4.25.05 2.3.75l-1.05.45Q.6 1.45.2 2.1m5.25 3.4L7 5.65l2.45-.2-1.15.25-1.45.1-1.65-.15-.9-.3z"/><path fill="url(#i)" d="M3.5 7.4h.2l.75-.15L6 7.05h2.75l3.05.5q1.15.4 1.7.9l1 .8q-.55-.35-2.05-.85-1.85-.65-4.5-.6l-3.8.35q-1.2.3-1.25 1.05t.7 1.4q.75.7-.1.15L2 9.55l-.6-.8q.4-.65 1.05-.9z" transform="translate(-1.2 -6.65)"/><path fill="#faa" d="m9.9 2.2-.5-.05-.1-.25q.5-.5 1-.15.1.35-.4.45"/><path fill="url(#j)" d="M12.55 8.6q.65.05.65.3 0 .6-1.05.6l-.65-.05-.1-.15q-.15-.4 1-.7z" transform="translate(-1.2 -6.65)"/><path fill="url(#k)" d="m3.65 9.5 1.85-.3q1.35 0 1.25.3-.15.3-.95.55l-1.65.25H3.5l-.25-.3q-.1-.25.4-.5" transform="translate(-1.2 -6.65)"/></g><linearGradient id="f" x1="-819.2" x2="819.2" gradientTransform="matrix(-.0001 .0032 -.0058 -.0002 5.75 3.1)" gradientUnits="userSpaceOnUse" spreadMethod="pad"><stop offset="0" stop-color="#270046"/><stop offset="1" stop-color="#912ea3" stop-opacity=".2"/></linearGradient><path id="a" fill="#f5f5f5" fill-rule="evenodd" d="m12.35 8.25 1.1.7q1.9 1.2-.25 2.25-2.1 1.05-2.9 1H8.25l-3.1-.6L3.8 11l-.1-.05-.55-.4-.6-.65-.2-1.5.1-.35V8l2.3-.4.5-.1 1.3-.15 4.1.2.25.15h-.2q.95.15 1.65.55" transform="translate(-2.35 -7.35)"/><use ffdec:characterId="2" xlink:href="#d" id="b" width="8.7" height="10.4"/></defs></svg>