<svg xmlns="http://www.w3.org/2000/svg" xmlns:ffdec="https://www.free-decompiler.com/flash" xmlns:xlink="http://www.w3.org/1999/xlink" ffdec:objectType="frame" width="14.45" height="12.6"><g transform="translate(-1.2)"><use ffdec:characterId="10" xlink:href="#a" width="12" height="10.55" transform="translate(2.35 1.55)"/><use ffdec:characterId="3" xlink:href="#b" width="8.7" height="10.4" transform="matrix(-1 0 0 1 12.9 1.7)"/><use ffdec:characterId="11" xlink:href="#c" width="13.35" height="12.6" transform="translate(1.2)"/></g><defs><radialGradient id="e" cx="0" cy="0" r="819.2" gradientTransform="translate(5.7 7.4)scale(.0075)" gradientUnits="userSpaceOnUse" spreadMethod="pad"><stop offset=".024" stop-color="#fff7fd"/><stop offset=".486" stop-color="#ee94de"/><stop offset="1" stop-color="#3400b4"/></radialGradient><radialGradient id="g" cx="0" cy="0" r="819.2" gradientTransform="translate(5.6 5.8)scale(.0052)" gradientUnits="userSpaceOnUse" spreadMethod="pad"><stop offset=".251" stop-color="#9f74c9"/><stop offset="1" stop-color="#540ac4" stop-opacity="0"/><stop offset="1" stop-color="#0087ff" stop-opacity="0"/></radialGradient><radialGradient id="h" cx="0" cy="0" r="819.2" gradientTransform="translate(5.7 5.7)scale(.0033)" gradientUnits="userSpaceOnUse" spreadMethod="pad"><stop offset=".004" stop-color="#fff4ad"/><stop offset="1" stop-color="#f7b858" stop-opacity=".298"/></radialGradient><radialGradient id="i" cx="0" cy="0" r="819.2" gradientTransform="matrix(-.0108 0 0 .0108 7.9 6.1)" gradientUnits="userSpaceOnUse" spreadMethod="pad"><stop offset="0" stop-color="#ffd4d4"/><stop offset=".647" stop-color="#461119"/></radialGradient><radialGradient id="j" cx="0" cy="0" r="819.2" gradientTransform="translate(12.35 5.2)scale(.0021)" gradientUnits="userSpaceOnUse" spreadMethod="pad"><stop offset=".333" stop-color="#fff"/><stop offset=".784" stop-color="#ffd4d4" stop-opacity="0"/></radialGradient><radialGradient id="k" cx="0" cy="0" r="819.2" gradientTransform="rotate(6.52 -56.755 47.267)scale(.0035)" gradientUnits="userSpaceOnUse" spreadMethod="pad"><stop offset=".333" stop-color="#fff"/><stop offset="1" stop-color="#ffd4d4" stop-opacity="0"/></radialGradient><g id="d" fill-rule="evenodd"><path fill="url(#e)" d="M1.65 5.05q0-2.2.85-3 .85-.75 1.75-1l2.1-.4 2.85.1q.65.6.9 1.65.55 2-.8 5.25-1.35 3.2-3.3 3.3Q4 11 2.85 9.1q-1.2-1.85-1.2-4.05" transform="translate(-1.65 -.6)"/><path fill="url(#f)" d="m10.25 3.9-.7 2.55-1 2.45-.15.15 1.05-3q.35-1.45.05-2.5-.9-.6-4.15 0-3.15.6-3.1.95v1.65q0 .85.85 2.55T5.7 11q-1.75-.4-2.95-1.95-1.2-1.6-1.1-3.75.05-2.2 1.1-3.3Q3.75.9 6.1.7l3.9.35.35 1.9z" transform="translate(-1.65 -.6)"/><path fill="url(#g)" d="M8.4 2.55 7.3 5.2l2.1 2L6.5 7 5.2 9.6l-.55-2.85L1.8 6.5l2.4-1.55L3.8 2l2.1 1.95z" transform="translate(-1.65 -.6)"/><path fill="url(#h)" d="m7.45 3.65-.7 1.7L8.1 6.6l-1.85-.15-.8 1.65-.35-1.8-1.8-.15 1.5-.95-.25-1.9L5.9 4.55z" transform="translate(-1.65 -.6)"/><path fill="#fff3fe" fill-opacity=".6" d="m5.75 7.7.15-.2.35-.2q.6-.1-.15 1.4l-.25-.3-.1-.1zm-.55.35.1.6q.05.55-.25.75h-.4q-1.1-.4-.2-1.3zm1.85-.75q-.55.05-.55-.6 0-.7.55-.5.4.15 0 1.1m-.1-2.2.3-.3v-.05l.1-.05q.5.1 0 1h-.4z"/></g><g id="c" fill-rule="evenodd"><path fill="#462121" fill-opacity=".2" d="M10.65 7H7.8l-4.7-.85Q.7 5.35.95 5.05q.3-.3.1-.6v-.5q.2-2.75 5.4-2.3 2.15.15 4.3 1.8 2.2 1.6 2.35 2.15.2.5-.4.9l-.8.4z"/><path fill="#eeb1ba" d="m2.3 1.65-1.05.95Q.6 3.2.2 4.55q-.45-.85.1-2 .55-1.2 1.25-1.45Q3.45.35 5.2 0l2.45.2Q4.25.1 2.3 1.65M5.45 12l1.55.25 2.45-.35-1.15.5-1.45.2-1.65-.35-.9-.65z"/><path fill="url(#i)" d="m3.5 1.65.2-.05q.1-.1.75-.3L6 .9q.9-.15 2.75 0 1.9.15 3.05 1.05 1.15.85 1.7 1.95l1.05 1.85q-.45-.7-2.1-1.9Q10.6 2.4 7.95 2.5q-2.6.1-3.8.8-1.2.65-1.25 2.3-.05 1.6.7 3.05t-.1.25L2 6.3q-.65-1.45-.6-1.75.4-1.35 1.05-1.95z" transform="translate(-1.2)"/><path fill="#faa" d="m9.4 4.7-.1-.6q.5-1 1-.3.1.75-.4 1z"/><path fill="url(#j)" d="M12.55 4.2q.65.1.65.7 0 1.3-1.05 1.3l-.65-.15-.1-.25q-.15-.9 1-1.6z" transform="translate(-1.2)"/><path fill="url(#k)" d="M3.65 6.2q.45-.6 1.85-.6 1.35 0 1.25.65-.15.65-.95 1.15l-1.65.5H3.5q-.2-.05-.25-.6-.1-.55.4-1.1" transform="translate(-1.2)"/></g><linearGradient id="f" x1="-819.2" x2="819.2" gradientTransform="matrix(-.0001 .0032 -.0058 -.0002 5.75 3.1)" gradientUnits="userSpaceOnUse" spreadMethod="pad"><stop offset="0" stop-color="#270046"/><stop offset="1" stop-color="#912ea3" stop-opacity=".2"/></linearGradient><path id="a" fill="#f5f5f5" fill-rule="evenodd" d="M10.9 2.25h-.2l1.65 1.25 1.1 1.5q1.9 2.6-.25 4.9-2.1 2.25-2.9 2.2l-1.1-.05-.95.05q-1.65-.4-3.1-1.3L3.8 9.5l-.1-.1-.55-.95-.6-1.35-.2-3.25.1-.85v-.05l2.3-.9.5-.2 1.3-.3 4.1.45zh.05v.05z" transform="translate(-2.35 -1.55)"/><use ffdec:characterId="2" xlink:href="#d" id="b" width="8.7" height="10.4"/></defs></svg>