<svg xmlns="http://www.w3.org/2000/svg" xmlns:ffdec="https://www.free-decompiler.com/flash" xmlns:xlink="http://www.w3.org/1999/xlink" ffdec:objectType="frame" width="12.45" height="11.45"><use ffdec:characterId="9" xlink:href="#a" width="11.85" height="3.55" transform="translate(0 6.1)"/><defs><g id="a" fill-rule="evenodd"><path d="m6.15 2.5.95.05-.05-.05 1.9-.4 1.45-.55-1.35.75.85-.25 1.85-.75-.4.6.5-.15q-.2.4-.95.45h.15l-.1.1.5.1-.4.15h-.35l-.35.15h.05l.5.1-.9.15h-.1l-.25.15-.85.2-1.45.2-1.1.05-1-.15-1.3-.3-1.6-.5L0 1.15l2.45.65L.8.7V.65L3.25 1.9l1.15.4zm4.35-1.25.05.05h-.05z"/><path fill="#4a1400" fill-opacity=".298" d="M5.8 1.8 3 1.2Q1.6.65 1.1.05L1.25 0l4.2 1.35q1.7.45.35.45"/></g></defs></svg>