<?xml version="1.0" encoding="UTF-8" standalone="no"?>
<svg xmlns:ffdec="https://www.free-decompiler.com/flash" xmlns:xlink="http://www.w3.org/1999/xlink" ffdec:objectType="frame" height="11.45px" width="12.45px" xmlns="http://www.w3.org/2000/svg">
  <g transform="matrix(1.0, 0.0, 0.0, 1.0, 3.15, 0.65)">
    <use ffdec:characterId="11" height="11.45" transform="matrix(1.0, 0.0, 0.0, 1.0, -2.6, -0.65)" width="11.9" xlink:href="#shape0"/>
  </g>
  <defs>
    <g id="shape0" transform="matrix(1.0, 0.0, 0.0, 1.0, 2.6, 0.65)">
      <path d="M7.55 4.35 Q7.8 4.95 7.65 6.0 L6.55 8.7 Q5.6 10.4 3.05 10.7 L3.35 10.65 Q0.1 10.95 -1.05 8.9 -2.25 6.8 -2.15 5.15 L-2.0 3.1 -1.3 2.3 Q0.45 1.05 2.35 1.05 3.45 1.05 4.85 2.05 L6.4 3.0 Q6.8 3.0 7.55 4.35" fill="#ffffff" fill-rule="evenodd" stroke="none"/>
      <path d="M7.55 4.2 L9.3 6.0 9.25 6.0 9.0 5.9 8.3 5.65 7.9 5.25 8.0 5.1 7.45 4.35 7.55 4.2" fill="url(#gradient0)" fill-rule="evenodd" stroke="none"/>
      <path d="M1.15 1.25 L2.6 1.3 Q2.9 1.65 3.7 1.55 4.7 2.1 4.95 1.95 5.1 1.8 5.3 2.4 L5.5 2.85 5.7 2.65 5.95 3.5 Q6.4 5.25 5.8 7.55 5.15 9.8 3.05 10.2 1.0 10.6 0.1 8.85 -0.85 7.1 -0.55 4.75 -0.3 2.35 1.15 1.25" fill="#666666" fill-rule="evenodd" stroke="none"/>
      <path d="M5.7 2.65 Q6.05 2.4 6.35 3.6 6.75 5.05 6.3 6.95 5.8 8.85 4.95 9.7 4.1 10.5 3.15 10.6 L1.55 10.5 0.35 9.7 -0.4 8.5 -0.85 6.8 Q-1.05 5.75 -0.85 4.35 -0.65 2.95 -0.05 2.1 L0.7 1.25 1.15 1.25 Q-0.3 2.35 -0.55 4.75 -0.85 7.1 0.1 8.85 1.0 10.6 3.05 10.2 5.15 9.8 5.8 7.55 6.4 5.25 5.95 3.5 L5.7 2.65" fill="#333333" fill-rule="evenodd" stroke="none"/>
      <path d="M0.1 9.4 Q-0.75 8.35 -0.8 5.85 -0.95 3.35 0.15 2.05 1.3 0.75 2.85 1.25 4.4 1.65 5.5 2.35 6.6 3.0 6.45 5.4 6.25 7.75 5.15 9.2 3.95 10.65 2.45 10.6 1.0 10.45 0.1 9.4" fill="url(#gradient1)" fill-rule="evenodd" stroke="none"/>
      <path d="M0.95 4.45 L1.05 4.55 0.9 5.5 Q0.7 6.25 1.2 7.55 1.8 8.85 2.95 8.65 L3.95 8.2 4.5 7.3 4.65 5.15 4.5 4.15 4.35 3.8 4.55 4.15 4.8 5.2 4.95 6.9 4.8 7.8 4.55 8.45 4.4 8.65 Q4.05 9.3 2.45 9.15 0.9 9.1 0.6 7.15 0.35 5.2 0.8 4.5 L0.95 4.45" fill="url(#gradient2)" fill-rule="evenodd" stroke="none"/>
      <path d="M2.3 4.1 L3.15 4.05 Q3.7 4.25 3.95 4.75 L4.25 5.95 4.0 7.3 3.95 7.45 Q3.6 8.15 3.0 8.15 1.5 8.2 1.4 6.1 1.35 4.5 2.3 4.1" fill="url(#gradient3)" fill-rule="evenodd" stroke="none"/>
      <path d="M3.85 4.9 L0.6 4.6 -0.85 4.95 -1.5 5.2 -2.1 5.5 -2.15 5.5 -2.2 4.85 -2.1 3.6 -1.2 2.55 Q0.25 1.3 2.25 1.3 3.15 1.3 4.5 2.1 L6.05 3.1 Q7.6 3.85 7.6 5.45 L7.15 7.7 7.0 7.4 6.3 6.25 Q5.75 5.5 3.85 4.9" fill="#000000" fill-opacity="0.31764707" fill-rule="evenodd" stroke="none"/>
      <path d="M0.0 5.65 L-0.05 5.6 -0.1 5.5 -0.35 5.05 -0.1 4.1 0.7 3.4 2.1 3.3 2.45 3.7 2.5 4.45 Q2.35 5.4 1.3 5.65 0.25 5.9 0.0 5.65 M3.05 5.55 L3.1 5.7 Q3.25 6.2 2.85 6.35 2.4 6.45 2.35 6.2 L2.3 6.0 2.35 5.85 2.4 5.75 2.6 5.6 2.9 5.5 3.05 5.55" fill="#ffffff" fill-rule="evenodd" stroke="none"/>
      <path d="M3.0 9.0 L3.3 9.05 Q3.65 9.35 3.4 9.75 L2.8 9.8 2.7 9.5 Q2.65 9.15 2.85 9.05 L3.0 9.0 M4.9 8.95 L4.45 9.5 Q4.25 9.55 4.05 9.3 3.75 9.0 3.85 8.7 L3.95 8.55 Q3.9 8.35 4.25 8.35 4.85 8.4 4.9 8.95" fill="#ffffff" fill-opacity="0.4509804" fill-rule="evenodd" stroke="none"/>
      <path d="M2.35 6.2 L2.05 6.3 0.45 6.1 0.0 5.65 Q0.25 5.9 1.3 5.65 2.35 5.4 2.5 4.45 L2.45 3.7 Q2.8 3.85 3.0 4.3 3.2 4.75 3.05 5.4 L3.15 5.35 3.05 5.55 2.9 5.5 2.6 5.6 2.4 5.75 2.35 5.85 2.3 6.0 2.35 6.2" fill="#000000" fill-opacity="0.43137255" fill-rule="evenodd" stroke="none"/>
      <path d="M2.45 -0.05 L0.2 0.0 -0.9 0.35 -1.55 0.65 -2.25 1.2 -2.55 1.45 -2.05 0.55 Q-1.7 0.0 -0.9 -0.35 L0.05 -0.65 Q1.4 -0.7 2.45 -0.05" fill="#4a1400" fill-opacity="0.29803923" fill-rule="evenodd" stroke="none"/>
      <path d="M1.45 0.75 L1.65 0.75 2.1 0.85 2.7 0.9 3.55 1.15 4.55 1.6 6.0 2.9 6.05 2.85 6.1 2.7 Q6.1 2.2 4.85 1.5 5.5 1.8 6.2 2.4 L7.65 3.95 8.25 4.85 8.5 5.2 8.7 5.65 8.65 5.65 8.7 5.75 8.2 5.45 7.9 6.05 7.9 5.95 8.05 5.3 8.0 5.2 7.9 5.1 7.7 5.15 7.65 5.3 Q7.25 3.9 6.6 3.2 L6.5 3.35 7.2 5.15 7.2 5.2 6.85 4.65 Q6.45 3.95 5.15 2.9 3.85 1.85 2.6 1.7 L1.4 1.75 1.25 1.65 0.35 1.7 0.3 1.65 0.15 1.6 Q-0.05 1.6 -0.6 2.1 L-0.55 1.9 -0.65 1.7 0.15 1.15 -0.9 1.6 -1.4 1.85 -0.7 1.35 -0.05 1.05 1.1 0.75 1.45 0.75" fill="url(#gradient4)" fill-rule="evenodd" stroke="none"/>
      <path d="M4.85 1.5 Q6.1 2.2 6.1 2.7 L6.05 2.85 6.0 2.9 4.55 1.6 3.55 1.15 2.7 0.9 2.1 0.85 1.65 0.75 1.45 0.75 1.35 0.7 0.9 0.65 -0.55 1.0 -1.55 1.55 -2.6 2.25 -1.35 1.25 -0.9 0.95 Q0.05 0.4 1.3 0.45 2.85 0.45 4.6 1.35 L4.85 1.5 M-1.4 1.85 L-0.9 1.6 0.15 1.15 -0.65 1.7 -0.55 1.9 -0.6 2.1 Q-0.05 1.6 0.15 1.6 L0.3 1.65 0.35 1.7 1.25 1.65 1.4 1.75 -0.2 2.45 -0.75 2.9 -1.15 3.2 -1.45 3.55 -2.15 4.55 -2.05 2.4 -1.4 1.85 M7.2 5.2 L7.2 5.15 6.5 3.35 6.6 3.2 Q7.25 3.9 7.65 5.3 L7.7 5.15 7.9 5.1 8.0 5.2 8.05 5.3 7.9 5.95 7.9 6.05 8.2 5.45 8.7 5.75 8.65 5.65 8.7 5.65 9.25 6.0 8.15 5.7 7.95 6.2 7.1 7.75 7.2 7.35 7.2 7.1 7.4 5.8 7.2 5.25 7.25 5.25 7.2 5.2 M7.65 3.55 Q6.3 1.9 5.2 1.2 L4.8 0.9 Q6.45 1.65 7.45 2.95 L8.25 4.15 8.8 4.95 8.25 4.3 7.65 3.55" fill="url(#gradient5)" fill-rule="evenodd" stroke="none"/>
      <path d="M1.25 10.65 L0.25 10.25 -0.25 9.85 0.75 10.1 3.65 10.3 5.3 10.05 Q4.95 10.5 3.75 10.7 2.55 10.95 1.55 10.7 L1.25 10.65" fill="url(#gradient6)" fill-rule="evenodd" stroke="none"/>
    </g>
    <linearGradient gradientTransform="matrix(0.0, 0.0, 0.0, 0.0, 0.9, -1.6)" gradientUnits="userSpaceOnUse" id="gradient0" spreadMethod="pad" x1="-819.2" x2="819.2">
      <stop offset="0.0" stop-color="#331000"/>
      <stop offset="0.13725490196078433" stop-color="#270f03"/>
      <stop offset="0.5215686274509804" stop-color="#000000"/>
      <stop offset="0.8784313725490196" stop-color="#2e0f02"/>
      <stop offset="1.0" stop-color="#4a1e0b"/>
    </linearGradient>
    <radialGradient cx="0" cy="0" gradientTransform="matrix(0.0053, 2.0E-4, -3.0E-4, 0.0056, 2.65, 6.15)" gradientUnits="userSpaceOnUse" id="gradient1" r="819.2" spreadMethod="pad">
      <stop offset="0.0" stop-color="#ffffff" stop-opacity="0.7058824"/>
      <stop offset="0.7019607843137254" stop-color="#ffffff" stop-opacity="0.0"/>
    </radialGradient>
    <radialGradient cx="0" cy="0" gradientTransform="matrix(1.0875, -0.0718, 0.0659, 0.9978, 0.45, -1.5)" gradientUnits="userSpaceOnUse" id="gradient2" r="819.2" spreadMethod="pad">
      <stop offset="0.0" stop-color="#202020" stop-opacity="0.65882355"/>
      <stop offset="0.7019607843137254" stop-color="#0a2e00" stop-opacity="0.047058824"/>
    </radialGradient>
    <radialGradient cx="0" cy="0" gradientTransform="matrix(1.0902, 0.0172, 7.0E-4, 1.1881, 0.9, -3.2)" gradientUnits="userSpaceOnUse" id="gradient3" r="819.2" spreadMethod="pad">
      <stop offset="0.0" stop-color="#202020" stop-opacity="0.65882355"/>
      <stop offset="0.7019607843137254" stop-color="#0a2e00" stop-opacity="0.047058824"/>
    </radialGradient>
    <linearGradient gradientTransform="matrix(1.0, 0.0, 0.0, 1.0, 0.9, -2.0)" gradientUnits="userSpaceOnUse" id="gradient4" spreadMethod="pad" x1="-819.2" x2="819.2">
      <stop offset="0.0" stop-color="#331000"/>
      <stop offset="0.13725490196078433" stop-color="#270f03"/>
      <stop offset="0.5215686274509804" stop-color="#000000"/>
      <stop offset="0.8784313725490196" stop-color="#2e0f02"/>
      <stop offset="1.0" stop-color="#4a1e0b"/>
    </linearGradient>
    <linearGradient gradientTransform="matrix(0.0, 0.0, 0.0, 0.0, 0.9, -1.6)" gradientUnits="userSpaceOnUse" id="gradient5" spreadMethod="pad" x1="-819.2" x2="819.2">
      <stop offset="0.0" stop-color="#331000"/>
      <stop offset="0.13725490196078433" stop-color="#270f03"/>
      <stop offset="0.5215686274509804" stop-color="#000000"/>
      <stop offset="0.8784313725490196" stop-color="#2e0f02"/>
      <stop offset="1.0" stop-color="#4a1e0b"/>
    </linearGradient>
    <linearGradient gradientTransform="matrix(0.0, 0.0, 0.0, 0.0, 0.85, -1.6)" gradientUnits="userSpaceOnUse" id="gradient6" spreadMethod="pad" x1="-819.2" x2="819.2">
      <stop offset="0.0" stop-color="#331000"/>
      <stop offset="0.13725490196078433" stop-color="#270f03"/>
      <stop offset="0.5215686274509804" stop-color="#000000"/>
      <stop offset="0.8784313725490196" stop-color="#2e0f02"/>
      <stop offset="1.0" stop-color="#4a1e0b"/>
    </linearGradient>
  </defs>
</svg>
