<?xml version="1.0" encoding="UTF-8" standalone="no"?>
<svg xmlns:ffdec="https://www.free-decompiler.com/flash" xmlns:xlink="http://www.w3.org/1999/xlink" ffdec:objectType="frame" height="11.25px" width="12.95px" xmlns="http://www.w3.org/2000/svg">
  <g transform="matrix(1.0, 0.0, 0.0, 1.0, 2.95, 0.0)">
    <use ffdec:characterId="11" height="11.25" transform="matrix(1.0, 0.0, 0.0, 1.0, -2.95, 0.0)" width="11.9" xlink:href="#shape0"/>
  </g>
  <defs>
    <g id="shape0" transform="matrix(1.0, 0.0, 0.0, 1.0, 2.95, 0.0)">
      <path d="M6.35 3.95 Q5.7 3.55 5.7 3.15 5.7 2.85 6.05 2.85 6.5 2.85 6.95 3.5 L7.3 4.15 7.9 5.9 8.1 5.0 8.25 5.2 Q8.25 7.0 7.2 8.55 6.0 10.4 3.85 10.8 L2.2 10.8 Q-0.4 10.7 -1.3 9.05 L-1.3 8.95 -1.55 8.45 -1.95 6.75 -2.1 6.5 -2.1 6.1 -2.0 6.05 -1.85 6.3 -1.85 6.25 -1.85 6.15 -1.75 5.45 -1.35 4.95 Q-0.95 4.95 -0.95 5.3 L-1.05 5.5 -1.1 5.55 -0.95 6.2 -0.55 7.8 1.15 9.45 2.35 9.75 Q4.5 9.75 5.85 8.45 L5.95 8.4 6.05 8.2 6.75 6.55 6.55 6.0 6.5 4.95 6.5 4.4 6.35 3.95 M2.25 10.55 L3.8 10.55 4.2 10.45 3.35 10.5 3.2 10.5 2.6 10.5 1.85 10.45 1.75 10.45 2.25 10.55 M1.4 10.4 L-0.05 9.85 -0.75 9.3 -0.25 9.8 0.6 10.15 1.4 10.4" fill="#ffffff" fill-opacity="0.7058824" fill-rule="evenodd" stroke="none"/>
      <path d="M6.6 7.8 Q6.3 8.75 5.45 9.45 4.6 10.2 2.55 10.25 0.45 10.25 -0.6 8.45 -1.3 7.3 -1.3 6.0 -1.3 4.5 -0.65 3.4 0.35 1.55 2.75 1.55 4.9 1.55 5.8 2.7 6.55 3.85 6.65 4.55 L6.85 6.05 6.6 7.8" fill="#002843" fill-rule="evenodd" stroke="none"/>
      <path d="M4.75 4.75 Q5.5 5.5 5.5 6.55 5.5 7.6 4.75 8.4 3.95 9.15 2.9 9.15 1.85 9.15 1.05 8.4 0.3 7.6 0.3 6.55 0.3 5.5 1.05 4.75 1.85 3.95 2.9 3.95 3.95 3.95 4.75 4.75" fill="url(#gradient0)" fill-rule="evenodd" stroke="none"/>
      <path d="M5.6 5.85 L5.5 7.5 Q5.35 8.45 4.7 9.05 4.05 9.6 2.75 9.5 1.35 9.35 0.8 8.4 0.2 7.45 0.1 6.55 0.0 5.65 0.35 4.95 L0.35 5.05 Q0.35 5.75 0.5 6.35 0.7 7.65 1.75 8.35 L2.45 8.65 2.55 8.65 3.35 8.8 4.15 8.55 4.7 7.95 5.0 7.25 5.2 5.95 5.15 4.65 5.6 5.85" fill="#3b6a72" fill-rule="evenodd" stroke="none"/>
      <path d="M4.85 5.45 L4.95 5.85 Q4.95 6.5 4.4 6.5 L3.8 6.25 Q3.55 5.9 3.65 5.55 3.8 5.25 4.25 5.25 4.65 5.15 4.85 5.45 M2.15 6.15 Q3.1 6.45 3.15 7.8 3.25 9.05 1.8 9.15 0.3 9.25 0.3 7.65 0.3 6.6 1.4 6.15 L2.15 6.15" fill="#ffe39c" fill-opacity="0.1254902" fill-rule="evenodd" stroke="none"/>
      <path d="M1.85 5.4 L2.15 6.5 Q2.1 7.15 1.1 7.55 L0.8 7.6 Q0.1 7.5 -0.15 6.95 L-0.45 6.1 -0.15 5.4 Q0.05 5.0 0.6 4.85 L1.1 4.85 1.85 5.4 M2.85 8.45 Q2.85 7.65 3.4 7.8 3.95 7.95 3.95 8.6 3.95 9.15 3.45 9.15 2.85 9.15 2.85 8.45 M4.55 8.3 L4.4 8.1 4.4 7.75 Q5.0 7.75 5.0 8.1 L4.95 8.3 4.55 8.3 M5.75 7.45 L5.4 7.6 Q4.95 7.6 4.95 7.15 4.95 6.8 5.55 6.8 5.9 6.8 5.9 7.15 L5.75 7.45" fill="#ffffff" fill-rule="evenodd" stroke="none"/>
      <path d="M8.25 6.15 L8.2 6.3 8.0 6.85 7.85 7.15 6.75 5.45 Q5.25 3.75 3.1 3.9 0.95 4.05 -0.4 5.3 -1.8 6.5 -1.85 7.1 L-2.0 7.25 -2.15 6.35 Q-2.15 5.05 -0.95 3.55 0.7 1.6 3.4 1.6 5.8 1.6 7.2 3.0 8.3 4.1 8.3 5.4 L8.25 6.15" fill="#2c0900" fill-opacity="0.23921569" fill-rule="evenodd" stroke="none"/>
      <path d="M5.9 0.55 L3.05 0.35 1.55 0.55 Q-1.05 1.1 -2.4 3.0 L-2.8 3.5 Q-2.05 0.9 0.7 0.35 L1.2 0.25 1.25 0.25 3.4 0.0 5.25 0.15 5.9 0.55" fill="#5d2900" fill-opacity="0.3019608" fill-rule="evenodd" stroke="none"/>
      <path d="M8.95 2.3 Q8.85 2.35 8.9 2.65 L8.75 4.25 7.8 7.25 7.8 6.9 7.7 5.6 Q7.45 4.65 6.6 3.55 5.75 2.45 4.15 2.35 2.5 2.25 1.4 2.7 0.25 3.1 -0.7 4.5 -1.7 5.85 -2.0 6.9 L-2.05 7.0 -2.15 6.65 Q-2.5 5.75 -2.95 5.4 L-2.35 4.35 -1.45 3.05 -0.05 1.85 Q0.8 1.4 2.15 1.1 L2.55 1.05 3.9 1.05 Q5.1 1.15 6.0 1.6 L7.3 2.15 8.2 2.35 8.95 2.3 M0.4 10.45 L-0.3 10.8 -0.35 10.6 -0.05 10.3 -0.9 9.7 -0.7 9.6 0.7 10.05 3.1 10.45 5.4 9.9 Q6.15 9.35 6.3 9.35 6.45 9.35 6.45 9.45 L6.45 9.5 5.8 10.1 6.25 10.5 6.05 10.6 5.9 10.55 5.4 10.45 5.3 10.4 5.25 10.4 4.65 10.7 4.75 10.9 4.65 11.2 4.55 11.25 4.05 10.85 3.15 11.0 1.9 10.85 1.45 11.25 1.35 10.95 1.4 10.75 0.9 10.6 0.4 10.45" fill="#200900" fill-rule="evenodd" stroke="none"/>
    </g>
    <radialGradient cx="0" cy="0" gradientTransform="matrix(0.0041, 0.0, 0.0, 0.0041, 2.9, 6.55)" gradientUnits="userSpaceOnUse" id="gradient0" r="819.2" spreadMethod="pad">
      <stop offset="0.0" stop-color="#ffffff" stop-opacity="0.3137255"/>
      <stop offset="0.7372549019607844" stop-color="#ffffff" stop-opacity="0.0"/>
    </radialGradient>
  </defs>
</svg>
