<?xml version="1.0" encoding="UTF-8" standalone="no"?>
<svg xmlns:ffdec="https://www.free-decompiler.com/flash" xmlns:xlink="http://www.w3.org/1999/xlink" ffdec:objectType="frame" height="13.0px" width="14.5px" xmlns="http://www.w3.org/2000/svg">
  <g transform="matrix(1.0, 0.0, 0.0, 1.0, 2.2, 0.95)">
    <use ffdec:characterId="7" height="4.55" transform="matrix(1.0, 0.0, 0.0, 1.0, -2.2, 6.4)" width="12.0" xlink:href="#shape0"/>
    <use ffdec:characterId="3" height="9.15" id="Color" transform="matrix(1.0, 0.0, 0.0, 0.7269, -0.15, 4.7)" width="9.0" xlink:href="#sprite0"/>
  </g>
  <defs>
    <g id="shape0" transform="matrix(1.0, 0.0, 0.0, 1.0, 2.2, -6.4)">
      <path d="M9.75 6.45 L9.4 8.55 Q9.2 9.8 8.9 9.9 L5.55 10.85 1.5 10.65 -0.05 10.15 -1.15 9.55 -2.15 8.9 4.45 9.3 7.65 8.3 9.75 6.45" fill="#3a2d2b" fill-rule="evenodd" stroke="none"/>
      <path d="M9.75 6.45 L9.4 8.55 Q9.2 9.8 8.9 9.9 L5.55 10.85 1.5 10.65 -0.05 10.15 -1.15 9.55 -2.15 8.9 4.45 9.3 7.65 8.3 9.75 6.45 M-1.2 7.5 Q0.85 8.45 3.1 8.25" fill="none" stroke="#3a2d2b" stroke-linecap="round" stroke-linejoin="round" stroke-width="0.15000000000000002"/>
    </g>
    <g id="sprite0" transform="matrix(1.0, 0.0, 0.0, 1.0, 0.0, 0.0)">
      <use ffdec:characterId="2" height="9.15" transform="matrix(1.0, 0.0, 0.0, 1.0, 0.0, 0.0)" width="9.0" xlink:href="#shape1"/>
    </g>
    <g id="shape1" transform="matrix(1.0, 0.0, 0.0, 1.0, 0.0, 0.0)">
      <path d="M8.95 4.95 Q8.8 6.7 6.35 8.9 L5.45 9.05 4.0 9.15 2.1 8.8 Q0.95 8.1 0.4 6.05 L0.0 3.75 Q0.0 2.7 0.35 1.65 L2.2 0.95 Q6.35 -0.05 8.3 0.0 9.2 1.55 8.95 4.95" fill="#0078bb" fill-opacity="0.0" fill-rule="evenodd" stroke="none"/>
    </g>
  </defs>
</svg>
