<svg xmlns="http://www.w3.org/2000/svg" xmlns:ffdec="https://www.free-decompiler.com/flash" xmlns:xlink="http://www.w3.org/1999/xlink" ffdec:objectType="frame" width="15" height="11.75"><g transform="translate(2.95 .35)"><use ffdec:characterId="13" xlink:href="#a" width="15" height="11.75" transform="translate(-2.95 -.35)"/><use ffdec:characterId="15" xlink:href="#b" width="9.2" height="9.15" transform="translate(-1 1.8)"/><use ffdec:characterId="16" xlink:href="#c" width="12" height="9.15" transform="translate(-1.75 1.8)"/></g><defs><linearGradient id="e" x1="-819.2" x2="819.2" gradientTransform="matrix(0 -.0056 -.0056 0 3.65 6.4)" gradientUnits="userSpaceOnUse" spreadMethod="pad"><stop offset=".098" stop-opacity=".498"/><stop offset="1" stop-opacity="0"/></linearGradient><linearGradient id="f" x1="-819.2" x2="819.2" gradientTransform="matrix(0 -.0042 -.0056 0 3.65 5.25)" gradientUnits="userSpaceOnUse" spreadMethod="pad"><stop offset=".553" stop-opacity="0"/><stop offset="1" stop-opacity=".498"/></linearGradient><g id="a"><path fill="#3a2d2b" fill-rule="evenodd" d="m1.2 4.35-1.2 1Q.35 3.9 1.6 2.8L.05 2.75q4.1-1.45 8.4-1.7Q13.1.8 15 2.2l-.2.05-1 .1q1.3 1.8.9 3.6l-.6-.55q-.25 1.45-1.5 2.95l.3-1.05.15-.8q.45-2.55-.6-3.6Q12 2.35 11 2.25l-.75-.1h-.05q-2.25-.1-6.35.95-.75.15-1.55.55l-.05.05v-.05L1.2 4.3zm8.2 6.3.65-.3-.25.3-1 .5.6.1-1.45.25.5.2-1.2-.1-2.85-.05-.85.15.4-.3-1.5-.25.8-.05-.55-.4-.1-.1-.1-.2.25.2L4 11l.2.05h.05l.2.05 1.45.2h.05l2.3-.25.95-.3z"/><path fill="#fff" fill-rule="evenodd" d="M1.2 4.35V4.3l1.05-.65v.05q-.35 1-.35 2.2l.4 2.3q.6 2.1 1.85 2.8l.05.05L4 11l-1.25-.4-.25-.2.1.2-.05-.05Q1.1 8.15 1.2 4.35m9-2.2h.05l.75.1q.95.15 1.4.65 1.05 1.05.6 3.6l-.15.8-.05.15q-.65 1.35-3.4 3.2l-.2.1-.95.3q2.65-2.45 2.9-5.15.15-1.9-.95-3.75"/><path fill="none" stroke="#3a2d2b" stroke-linecap="round" stroke-linejoin="round" stroke-width=".15" d="M1.75 1.25q2.35-1.3 6-1.2"/></g><g id="c" fill-rule="evenodd"><path fill="url(#e)" d="M7.3 1.8q2.65 4.55-2 8.95l-2.3.2-1.45-.2Q.1 10.15-.6 7.85q-.75-2.4-.05-4.55.8-.4 1.55-.55Q5.05 1.7 7.3 1.8" transform="translate(1.75 -1.8)"/><path fill-opacity=".498" d="M9.05 0q1.1 1.9.95 3.75-1.9-.7-3.9-.8h-.3l.25.25q.45.65.45 1.55l-.45 1.5q-.45.65-1.1.65t-1.1-.65q-.45-.6-.45-1.5t.45-1.55l.05-.05V3.1h.05v-.05H3.9l-.1.05q-1.45.15-3.05.65L1.1 1.5q.8-.4 1.55-.55Q6.8-.1 9.05 0"/><path fill="url(#f)" d="M7.3 1.8q1.1 1.9.95 3.75-1.9-.7-3.9-.8h-.3L4.3 5q.45.65.45 1.55l-.45 1.5q-.45.65-1.1.65t-1.1-.65q-.45-.6-.45-1.5T2.1 5l.05-.05V4.9h.05v-.05h-.05l-.1.05Q.6 5.05-1 5.55l.35-2.25q.8-.4 1.55-.55Q5.05 1.7 7.3 1.8" transform="translate(1.75 -1.8)"/><path fill="#fff" d="M3.95 1.05q.5.3.5 1.1l-.5 1.45-1.15.95-1.2-.1q-.5-.35-.5-1.1-.1-.8.4-1.5t1.25-.9zm2.4 5.6q0-.5.3-.65l.7-.1q.45.15.75.55t.25.9l-.3.65-.7.05-.7-.55q-.3-.45-.3-.85"/><path fill="#fff" fill-opacity=".6" d="m6.2 1.45.1.4-.25.35-.4.05-.4-.15q-.1-.15-.05-.4l.25-.3q.25-.15.45-.15.25.05.3.2"/><path fill-opacity=".298" d="M11.25.75q.9.9.7 2.75-.95-.6-2-.95-5-1.9-9.2.15L0 3.1l.05-.95L1.1 1.5q.8-.4 1.55-.55Q6.8-.1 9.05 0q1.6.05 2.2.75"/></g><path id="d" fill="#30aa70" fill-rule="evenodd" d="M9.2 3.75q-.25 2.7-2.9 5.15L4 9.15h-.05l-1.45-.2Q1.1 8.3.4 6.05q-.35-1.2-.4-2.3Q0 2.6.35 1.5L1.9.95Q6-.1 8.25 0q1.1 1.85.95 3.75"/><use ffdec:characterId="14" xlink:href="#d" id="b" width="9.2" height="9.15"/></defs></svg>