<?xml version="1.0" encoding="UTF-8" standalone="no"?>
<svg xmlns:ffdec="https://www.free-decompiler.com/flash" xmlns:xlink="http://www.w3.org/1999/xlink" ffdec:objectType="frame" height="10.75px" width="12.9px" xmlns="http://www.w3.org/2000/svg">
  <g transform="matrix(1.0, 0.0, 0.0, 1.0, 3.0, 0.25)">
    <use ffdec:characterId="8" height="7.45" transform="matrix(1.0, 0.0, 0.0, 1.0, -2.55, 3.05)" width="12.45" xlink:href="#shape0"/>
  </g>
  <defs>
    <g id="shape0" transform="matrix(1.0, 0.0, 0.0, 1.0, 2.55, -3.05)">
      <path d="M7.0 9.0 Q5.85 10.35 3.7 10.45 L3.1 10.5 Q0.85 10.5 -0.75 9.3 -2.25 8.2 -2.25 6.95 L-2.2 6.45 -2.2 6.4 -2.15 6.4 -0.4 4.85 Q0.95 4.0 2.85 3.7 6.6 3.95 7.5 4.9 L8.0 5.65 8.1 5.85 8.3 6.55 8.05 7.45 7.0 9.0" fill="#ffffff" fill-rule="evenodd" stroke="none"/>
      <path d="M5.5 5.2 Q6.35 6.0 6.5 7.1 6.6 8.1 5.85 9.2 5.1 10.25 3.15 10.3 1.1 10.35 0.1 9.35 -0.95 8.3 -0.9 7.2 -0.85 6.05 -0.15 5.3 0.45 4.5 2.6 4.25 4.6 4.3 5.5 5.2" fill="url(#gradient0)" fill-rule="evenodd" stroke="none"/>
      <path d="M4.9 7.1 L4.55 6.5 5.3 7.15 4.9 7.1 M0.6 6.85 L0.8 7.5 0.55 7.65 0.5 7.35 0.6 6.85 M1.9 8.75 L1.5 9.15 1.0 8.75 1.35 8.35 1.9 8.75 M0.95 7.85 L1.2 8.15 1.1 8.2 0.8 8.5 0.6 8.0 0.95 7.8 0.95 7.85 M4.75 9.05 L3.9 9.4 3.75 8.9 4.3 8.75 4.65 9.0 4.75 9.05 M3.35 9.5 L3.0 9.55 3.05 9.0 3.45 9.0 3.6 9.45 3.35 9.5 M2.65 8.95 L2.6 9.1 2.6 9.5 1.85 9.35 2.0 9.15 2.2 8.9 2.65 8.95 M4.9 7.85 L4.9 7.6 4.9 7.35 5.45 7.45 5.45 8.0 5.35 8.0 4.9 7.85 M4.55 8.55 L4.85 8.1 5.35 8.2 5.2 8.6 5.0 8.85 4.9 8.8 4.55 8.55" fill="#000000" fill-opacity="0.9490196" fill-rule="evenodd" stroke="none"/>
      <path d="M3.4 8.8 Q3.4 8.35 4.05 8.05 L5.3 7.95 Q5.95 8.2 6.05 8.45 L6.0 9.15 5.85 9.6 5.65 9.55 4.8 9.7 3.8 9.45 Q3.35 9.15 3.4 8.8" fill="#ffffff" fill-rule="evenodd" stroke="none"/>
      <path d="M7.05 4.5 Q8.45 5.2 8.45 6.3 L8.45 6.75 8.15 7.1 7.95 7.45 Q7.75 7.05 6.75 6.5 5.75 5.95 3.8 5.9 L0.3 6.4 Q0.15 6.4 -0.8 6.95 -1.75 7.45 -1.95 7.9 L-2.35 6.95 -2.2 6.4 -2.15 6.4 -0.75 5.2 Q1.3 3.85 3.5 3.85 5.7 3.85 7.05 4.5" fill="#000000" fill-opacity="0.32941177" fill-rule="evenodd" stroke="none"/>
      <path d="M4.35 3.15 L3.45 3.1 -0.35 3.65 Q-1.55 4.05 -2.2 4.6 L-2.0 4.4 -0.75 3.5 3.0 3.05 4.35 3.15 M8.25 4.4 L9.5 4.05 9.1 4.5 8.5 4.7 8.15 4.7 8.6 5.1 9.15 5.15 9.7 5.1 9.9 5.15 9.45 5.4 8.85 5.6 Q9.35 5.7 8.0 7.45 8.1 6.1 7.3 5.4 6.25 4.45 4.05 4.25 1.45 4.3 -0.4 5.4 L-2.4 7.05 -1.55 5.55 -0.9 4.95 Q-2.4 5.65 -2.55 5.85 -2.2 4.85 -0.9 4.3 0.35 3.7 1.0 3.65 L3.1 3.45 5.55 3.65 5.45 3.65 5.9 3.7 6.05 3.75 6.15 3.75 6.55 3.8 7.85 3.7 Q7.85 3.9 7.1 4.1 L7.05 4.1 7.45 4.3 7.65 4.4 8.25 4.4" fill="#000000" fill-rule="evenodd" stroke="none"/>
    </g>
    <radialGradient cx="0" cy="0" gradientTransform="matrix(0.0061, 0.0, 0.0, 0.0042, 2.8, 7.3)" gradientUnits="userSpaceOnUse" id="gradient0" r="819.2" spreadMethod="pad">
      <stop offset="0.0" stop-color="#000000"/>
      <stop offset="0.7686274509803922" stop-color="#3a3a3a" stop-opacity="0.9882353"/>
    </radialGradient>
  </defs>
</svg>
