<?xml version="1.0" encoding="UTF-8" standalone="no"?>
<svg xmlns:ffdec="https://www.free-decompiler.com/flash" xmlns:xlink="http://www.w3.org/1999/xlink" ffdec:objectType="frame" height="10.75px" width="12.9px" xmlns="http://www.w3.org/2000/svg">
  <g transform="matrix(1.0, 0.0, 0.0, 1.0, 3.0, 0.25)">
    <use ffdec:characterId="9" height="3.35" transform="matrix(1.0, 0.0, 0.0, 1.0, -3.0, 5.9)" width="11.85" xlink:href="#shape0"/>
  </g>
  <defs>
    <g id="shape0" transform="matrix(1.0, 0.0, 0.0, 1.0, 3.0, -5.9)">
      <path d="M4.35 9.2 L3.25 9.25 2.25 9.1 0.95 8.8 -0.65 8.3 -3.0 6.85 -0.55 7.5 -2.2 6.4 -2.2 6.35 Q-0.65 7.3 0.25 7.6 L1.4 8.0 3.15 8.2 4.1 8.25 4.05 8.2 5.95 7.8 7.4 7.25 6.05 8.0 6.9 7.75 8.75 7.0 8.35 7.6 8.85 7.45 Q8.65 7.85 7.9 7.9 L8.05 7.9 7.95 8.0 8.45 8.1 8.05 8.25 7.7 8.25 7.35 8.4 7.4 8.4 7.9 8.5 7.0 8.65 6.9 8.65 6.65 8.8 5.8 9.0 4.35 9.2 M3.85 7.55 L2.4 7.6 -0.4 7.0 Q-1.25 6.55 -2.0 5.9 L-1.2 6.2 Q0.6 7.05 2.05 7.15 L4.2 7.5 3.85 7.55" fill="#000000" fill-rule="evenodd" stroke="none"/>
    </g>
  </defs>
</svg>
