<svg xmlns="http://www.w3.org/2000/svg" xmlns:ffdec="https://www.free-decompiler.com/flash" xmlns:xlink="http://www.w3.org/1999/xlink" ffdec:objectType="frame" width="12.9" height="10.75"><use ffdec:characterId="9" xlink:href="#a" width="11.85" height="3.35" transform="translate(0 6.15)"/><defs><path id="a" fill-rule="evenodd" d="m4.35 9.2-1.1.05-1-.15-1.3-.3-1.6-.5L-3 6.85l2.45.65-1.65-1.1v-.05Q-.65 7.3.25 7.6L1.4 8l1.75.2.95.05-.05-.05 1.9-.4 1.45-.55L6.05 8l.85-.25L8.75 7l-.4.6.5-.15q-.2.4-.95.45h.15l-.1.1.5.1-.4.15H7.7l-.35.15h.05l.5.1-.9.15h-.1l-.25.15-.85.2zm-.5-1.65L2.4 7.6-.4 7q-.85-.45-1.6-1.1l.8.3q1.8.85 3.25.95l2.15.35z" transform="translate(3 -5.9)"/></defs></svg>