<svg xmlns="http://www.w3.org/2000/svg" xmlns:ffdec="https://www.free-decompiler.com/flash" xmlns:xlink="http://www.w3.org/1999/xlink" ffdec:objectType="frame" width="15.35" height="12.95"><g transform="translate(1 .8)"><use ffdec:characterId="2" xlink:href="#a" width="9.15" height="10.4" transform="matrix(-1 0 0 1 12.4 1.4)"/><use ffdec:characterId="3" xlink:href="#b" width="12.4" height="10.45" transform="translate(1.4 1.35)"/><use ffdec:characterId="5" xlink:href="#c" width="2.1" height="2" transform="translate(8.7 8.85)"/><use ffdec:characterId="6" xlink:href="#d" width="15.35" height="12.95" transform="translate(-1 -.8)"/></g><defs><linearGradient id="f" x1="-819.2" x2="819.2" gradientTransform="matrix(0 .006 .006 0 4.6 5)" gradientUnits="userSpaceOnUse" spreadMethod="pad"><stop offset="0" stop-color="#490056"/><stop offset="1" stop-color="#c189db"/></linearGradient><linearGradient id="g" x1="-819.2" x2="819.2" gradientTransform="rotate(-85.764 8.842 .089)scale(.0027)" gradientUnits="userSpaceOnUse" spreadMethod="pad"><stop offset="0" stop-color="#fff" stop-opacity=".153"/><stop offset=".404" stop-color="#fff" stop-opacity=".2"/><stop offset="1" stop-color="#fff" stop-opacity="0"/></linearGradient><path id="e" fill="url(#f)" fill-rule="evenodd" d="M9.15 2.9v.35l-.5 2.8q-.6 2.15-1.45 3.1-.6.7-1.55 1l-1.85.25h-.3l-1.4-.35Q.35 9.05.05 5.7V4.2q.15-.95.5-1.5l2.1-1.05Q5.85.1 8.7 0q.55.95.45 2.9"/><path id="h" fill="#ffbdf6" fill-opacity=".514" fill-rule="evenodd" d="M0 .95Q0 .6.3.3l.75-.3.35.1q.8.3.7.9l-.35.75q-.35.3-.8.25-.6-.05-.8-.45Q0 1.35 0 .95"/><use ffdec:characterId="1" xlink:href="#e" id="a" width="9.15" height="10.4"/><use ffdec:characterId="4" xlink:href="#h" id="c" width="2.1" height="2"/><g id="b" fill-rule="evenodd"><path fill="#fff" d="M.05 3.3V3Q-.05 1.15.1.05h2.2q-.55.95-.45 2.9v.35q.1 1.35.5 2.8.6 2.15 1.45 3.1.6.7 1.55 1L3.4 9.75 1.7 8.5l-.35-.4q-.55-.85-1-2.35zm12.3.75.05.35-.05.85-.45 1.55q-.95 2.3-1.95 3.05l-1.05.5-1.4.1 1.4-.35q1.75-1 2.05-4.35v-1.5l-.5-1.5z"/><path fill="url(#g)" d="m10.2 7.5.05.1v-.15zm.45-.9v.05H11l.55.1q-.1 2.05-.6 3l-.65.85q-.85.75-2.35.7-1.4-.05-2.15-1.1l-.2-.25-.25-.6q-.3-.65-.4-3.05L6 6.35l.05.05v-.05h.8l1.95.15 1.5.1z" transform="translate(-1.4 -1.35)"/><path fill-opacity=".498" d="M8.85 5.25v1q-.3 2.65-2.2 2.65-1.7 0-2-3.6v-.25l.2-1.75.05-.1q.4-1.25 1.2-1.55.6-.25.85 0 .85.1 1.35 1.3l.4 1.4v.15l.05-.05v.1z"/><path fill="#fff" d="m5.85 1.9.5.1q.95.5.95 1.3l-.05.15q-.1.5-.6.85t-1 .3l-.5-.15L5 4.4l-.45-.45-.2-.75q.05-.5.5-.9t1-.4m-.8 6.75q0-.4.45-.65l.5-.15.6.25.3.6-.15.4q-.3.4-.8.4-.9-.05-.9-.85"/></g><g id="d"><path fill-opacity=".298" fill-rule="evenodd" d="m14.6 5.6.25.35-.05 1.4-.2.7q-.8-1.2-2.95-2.5-2.6-1.6-4.55-1.6l-3.55.3q-.95.2-1.25.6l-.15-.65-.2-1.3.25-.85q.55-.8 3-.8 1.35 0 3.75.9 2.1.75 2.8 1.25.95.55 1.8 1.4z"/><path fill="#3a2d2b" fill-rule="evenodd" d="m1.8.55 4-.15 2.35.75zl6.35.6L5.8.4zL.05.7q1.6-.9 4.4-.55 2.3.25 3.7 1 3.25 1.3 5.95 3.65 1.45 1.3 1.15 2.15l-.35-.6-.15-.15-.05-.05-1.85-1.25-2.1-1.05Q7.55 2.3 4.7 2.2H2.5q-.15 1.1-.05 2.95v.3l.3 2.45q.3 1.2.7 1.95Q2.5 8.3 2.1 5.45V5.4q-.3-1.85-.3-3.3-.9.25-1.2 1.75l.05-1.7q.2-1.1 1.15-1.6m9.95 3q.65.5 1.1 1.35-.45-.85-1.1-1.35-.65-.55-1.8-1l-2-.95-2.5-.1-2.15-.05q-.65.05-.85.4l-.05.05-.1.05-.2.3q-.1.35-.05 1.1L2.3 5.2l.15-.05-.15.05-.25-1.85Q2 2.6 2.1 2.25l.2-.3.1-.05.05-.05q.2-.35.85-.4l2.15.05 2.5.1 2 .95q1.15.45 1.8 1 1.95 1.3 2.95 2.6-1-1.3-2.95-2.6M9.6 12.6h1.7l.4-.15-.4.2-1.1.2-1.95-.1Q6.3 12.4 5.8 11.9l1.95.45zM4.7 2.2l.75-.7z"/><path fill="none" stroke="#3a2d2b" stroke-linecap="round" stroke-linejoin="round" stroke-width=".15" d="m1.8.55 6.35.6L5.8.4zL.05.7q1.6-.9 4.4-.55 2.3.25 3.7 1 3.25 1.3 5.95 3.65 1.45 1.3 1.15 2.15l-.35-.6-.15-.15-.05-.05-1.85-1.25-2.1-1.05Q7.55 2.3 4.7 2.2H2.5q-.15 1.1-.05 2.95v.3l.3 2.45q.3 1.2.7 1.95l.3.4.35.4m-1.65-5.5-.15.05-.25-1.85Q2 2.6 2.1 2.25l.2-.3.1-.05.05-.05q.2-.35.85-.4l2.15.05 2.5.1 2 .95q1.15.45 1.8 1 1.95 1.3 2.95 2.6M12.85 4.9q-.45-.85-1.1-1.35M9.6 12.6h1.7l.4-.15-.4.2-1.1.2-1.95-.1Q6.3 12.4 5.8 11.9l1.95.45M5.45 1.5l-.75.7M1.8.55q-.95.5-1.15 1.6L.6 3.85q.3-1.5 1.2-1.75 0 1.45.3 3.3v.05q.4 2.85 1.35 4.4"/></g></defs></svg>