<?xml version="1.0" encoding="UTF-8" standalone="no"?>
<svg xmlns:ffdec="https://www.free-decompiler.com/flash" xmlns:xlink="http://www.w3.org/1999/xlink" ffdec:objectType="frame" height="12.95px" width="15.35px" xmlns="http://www.w3.org/2000/svg">
  <g transform="matrix(1.0, 0.0, 0.0, 1.0, 1.0, 0.8)">
    <use ffdec:characterId="2" height="10.4" transform="matrix(-1.0, 0.0, 0.0, 0.7315, 12.4, 4.25)" width="9.15" xlink:href="#sprite0"/>
    <use ffdec:characterId="10" height="7.65" transform="matrix(1.0, 0.0, 0.0, 1.0, 1.4, 4.25)" width="12.4" xlink:href="#shape1"/>
    <use ffdec:characterId="5" height="2.0" transform="matrix(1.0, 0.0, 0.0, 0.7315, 8.7, 9.7)" width="2.1" xlink:href="#sprite1"/>
    <use ffdec:characterId="8" height="9.5" transform="matrix(1.0, 0.0, 0.0, 1.0, -1.0, 2.65)" width="15.35" xlink:href="#shape3"/>
  </g>
  <defs>
    <g id="sprite0" transform="matrix(1.0, 0.0, 0.0, 1.0, 0.0, 0.0)">
      <use ffdec:characterId="1" height="10.4" transform="matrix(1.0, 0.0, 0.0, 1.0, 0.0, 0.0)" width="9.15" xlink:href="#shape0"/>
    </g>
    <g id="shape0" transform="matrix(1.0, 0.0, 0.0, 1.0, 0.0, 0.0)">
      <path d="M9.15 2.9 L9.15 3.25 8.65 6.05 Q8.05 8.2 7.2 9.15 6.6 9.85 5.65 10.15 L3.8 10.4 3.7 10.4 3.65 10.4 3.5 10.4 2.1 10.05 Q0.35 9.05 0.05 5.7 L0.05 4.2 Q0.2 3.25 0.55 2.7 L2.65 1.65 Q5.85 0.1 8.7 0.0 9.25 0.95 9.15 2.9" fill="url(#gradient0)" fill-rule="evenodd" stroke="none"/>
    </g>
    <linearGradient gradientTransform="matrix(0.0, 0.006, 0.006, 0.0, 4.6, 5.0)" gradientUnits="userSpaceOnUse" id="gradient0" spreadMethod="pad" x1="-819.2" x2="819.2">
      <stop offset="0.0" stop-color="#490056"/>
      <stop offset="1.0" stop-color="#c189db"/>
    </linearGradient>
    <g id="shape1" transform="matrix(1.0, 0.0, 0.0, 1.0, -1.4, -4.25)">
      <path d="M1.5 4.25 L3.7 4.25 Q3.15 4.95 3.25 6.4 L3.25 6.65 Q3.35 7.65 3.75 8.7 4.35 10.25 5.2 10.95 5.8 11.5 6.75 11.7 L4.8 11.35 Q3.85 11.05 3.1 10.45 L2.75 10.15 1.75 8.45 1.45 6.65 1.45 6.45 Q1.35 5.1 1.5 4.25 M13.75 7.2 L13.8 7.45 13.75 8.1 13.3 9.2 Q12.35 10.9 11.35 11.45 L10.3 11.8 8.9 11.9 10.3 11.65 Q12.05 10.9 12.35 8.45 L12.35 7.35 Q12.2 6.65 11.85 6.25 L13.75 7.2" fill="#ffffff" fill-rule="evenodd" stroke="none"/>
      <path d="M10.65 8.1 L11.0 8.1 11.55 8.2 Q11.45 9.7 10.95 10.4 L10.3 11.0 Q9.45 11.55 7.95 11.5 6.55 11.5 5.8 10.7 L5.6 10.55 5.35 10.1 Q5.05 9.6 4.95 7.85 L6.0 7.9 6.05 7.95 6.05 7.9 6.85 7.9 8.8 8.0 10.3 8.1 10.65 8.1 M10.2 8.75 L10.25 8.8 10.25 8.7 10.2 8.75" fill="url(#gradient1)" fill-rule="evenodd" stroke="none"/>
      <path d="M10.15 7.5 L10.15 7.55 10.25 8.1 10.25 8.75 10.25 8.8 Q9.95 10.75 8.05 10.75 6.35 10.75 6.05 8.1 L6.05 8.0 6.05 7.95 6.25 6.65 6.3 6.6 Q6.7 5.65 7.5 5.45 8.1 5.25 8.35 5.45 9.2 5.5 9.7 6.4 L10.1 7.4 10.1 7.55 10.15 7.5" fill="#000000" fill-opacity="0.49803922" fill-rule="evenodd" stroke="none"/>
      <path d="M7.75 5.7 Q8.7 6.05 8.7 6.65 L8.65 6.75 Q8.55 7.15 8.05 7.4 L7.05 7.6 6.55 7.5 6.4 7.45 5.95 7.15 5.75 6.6 Q5.8 6.2 6.25 5.9 L7.25 5.65 7.75 5.7 M6.45 10.55 Q6.45 10.25 6.9 10.1 L7.4 10.0 8.0 10.15 8.3 10.6 8.15 10.9 7.35 11.2 Q6.45 11.15 6.45 10.55" fill="#ffffff" fill-rule="evenodd" stroke="none"/>
    </g>
    <linearGradient gradientTransform="matrix(2.0E-4, -0.002, 0.0027, 1.0E-4, 8.1, 9.75)" gradientUnits="userSpaceOnUse" id="gradient1" spreadMethod="pad" x1="-819.2" x2="819.2">
      <stop offset="0.0" stop-color="#ffffff" stop-opacity="0.14509805"/>
      <stop offset="0.403921568627451" stop-color="#ffffff" stop-opacity="0.2"/>
      <stop offset="1.0" stop-color="#ffffff" stop-opacity="0.0"/>
    </linearGradient>
    <g id="sprite1" transform="matrix(1.0, 0.0, 0.0, 1.0, 0.0, 0.0)">
      <use ffdec:characterId="4" height="2.0" transform="matrix(1.0, 0.0, 0.0, 1.0, 0.0, 0.0)" width="2.1" xlink:href="#shape2"/>
    </g>
    <g id="shape2" transform="matrix(1.0, 0.0, 0.0, 1.0, 0.0, 0.0)">
      <path d="M0.0 0.95 Q0.0 0.6 0.3 0.3 L1.05 0.0 1.4 0.1 Q2.2 0.4 2.1 1.0 L1.75 1.75 Q1.4 2.05 0.95 2.0 0.35 1.95 0.15 1.55 0.0 1.35 0.0 0.95" fill="#ffbdf6" fill-opacity="0.5137255" fill-rule="evenodd" stroke="none"/>
    </g>
    <g id="shape3" transform="matrix(1.0, 0.0, 0.0, 1.0, 1.0, -2.65)">
      <path d="M10.65 6.7 Q8.05 5.55 6.1 5.55 L2.55 5.75 Q1.6 5.9 1.3 6.2 L1.15 5.75 0.95 4.8 1.2 4.15 Q1.75 3.6 4.2 3.6 L7.95 4.25 10.75 5.15 12.55 6.2 13.6 6.75 13.85 7.0 13.8 8.05 13.6 8.55 Q12.8 7.7 10.65 6.7" fill="#000000" fill-opacity="0.29803923" fill-rule="evenodd" stroke="none"/>
      <path d="M2.45 9.85 Q1.5 8.75 1.1 6.65 L1.1 6.6 Q0.8 5.25 0.8 4.2 -0.1 4.4 -0.4 5.5 L-0.35 4.25 Q-0.15 3.45 0.8 3.05 L-0.95 3.2 Q0.65 2.5 3.45 2.75 5.75 2.95 7.15 3.5 10.4 4.45 13.1 6.2 14.55 7.15 14.25 7.75 L13.9 7.3 13.75 7.2 13.7 7.15 Q12.95 6.7 11.85 6.25 L9.75 5.5 Q6.55 4.35 3.7 4.25 L1.5 4.25 Q1.35 5.1 1.45 6.45 L1.45 6.65 1.75 8.45 2.45 9.85 M0.8 3.05 L7.15 3.5 4.8 2.95 0.8 3.05 4.8 2.95 7.15 3.5 0.8 3.05 M4.45 3.75 Q4.05 3.85 3.7 4.25 4.05 3.85 4.45 3.75 3.05 3.6 2.3 3.75 1.65 3.75 1.45 4.0 L1.4 4.05 1.3 4.1 1.1 4.3 Q1.0 4.55 1.05 5.1 L1.3 6.45 1.45 6.45 1.3 6.45 1.05 5.1 Q1.0 4.55 1.1 4.3 L1.3 4.1 1.4 4.05 1.45 4.0 Q1.65 3.75 2.3 3.75 3.05 3.6 4.45 3.75 L6.95 3.85 8.95 4.55 10.75 5.25 8.95 4.55 6.95 3.85 4.45 3.75 M11.85 6.25 L10.75 5.25 Q12.7 6.2 13.7 7.15 12.7 6.2 10.75 5.25 L11.85 6.25 M8.6 11.9 L8.7 11.9 8.75 11.9 10.3 11.9 9.2 12.05 7.25 12.0 Q5.3 11.75 4.8 11.35 L6.75 11.7 8.6 11.9" fill="#3a2d2b" fill-rule="evenodd" stroke="none"/>
      <path d="M10.3 11.9 L10.7 11.75 M2.45 9.85 Q1.5 8.75 1.1 6.65 L1.1 6.6 Q0.8 5.25 0.8 4.2 -0.1 4.4 -0.4 5.5 L-0.35 4.25 Q-0.15 3.45 0.8 3.05 L-0.95 3.2 Q0.65 2.5 3.45 2.75 5.75 2.95 7.15 3.5 10.4 4.45 13.1 6.2 14.55 7.15 14.25 7.75 L13.9 7.3 13.75 7.2 13.7 7.15 Q12.95 6.7 11.85 6.25 L9.75 5.5 Q6.55 4.35 3.7 4.25 L1.5 4.25 Q1.35 5.1 1.45 6.45 L1.45 6.65 1.75 8.45 2.45 9.85 2.75 10.15 3.1 10.45 M13.7 7.15 Q12.7 6.2 10.75 5.25 L11.85 6.25 M1.45 6.45 L1.3 6.45 1.05 5.1 Q1.0 4.55 1.1 4.3 L1.3 4.1 1.4 4.05 1.45 4.0 Q1.65 3.75 2.3 3.75 3.05 3.6 4.45 3.75 L6.95 3.85 8.95 4.55 10.75 5.25 M3.7 4.25 Q4.05 3.85 4.45 3.75 M0.8 3.05 L4.8 2.95 7.15 3.5 0.8 3.05 M8.6 11.9 L8.7 11.9 8.75 11.9 10.3 11.9 9.2 12.05 7.25 12.0 Q5.3 11.75 4.8 11.35 L6.75 11.7" fill="none" stroke="#3a2d2b" stroke-linecap="round" stroke-linejoin="round" stroke-width="0.15000000000000002"/>
    </g>
  </defs>
</svg>
