<?xml version="1.0" encoding="UTF-8" standalone="no"?>
<svg xmlns:ffdec="https://www.free-decompiler.com/flash" xmlns:xlink="http://www.w3.org/1999/xlink" ffdec:objectType="frame" height="9.65px" width="12.85px" xmlns="http://www.w3.org/2000/svg">
  <g transform="matrix(1.0, 0.0, 0.0, 1.0, -3.0, -1.35)">
    <use ffdec:characterId="4" height="6.8" transform="matrix(1.0, 0.0, 0.0, 1.0, 3.0, 4.2)" width="12.65" xlink:href="#shape0"/>
  </g>
  <defs>
    <g id="shape0" transform="matrix(1.0, 0.0, 0.0, 1.0, -3.0, -4.2)">
      <path d="M12.05 5.65 Q13.55 5.8 14.2 6.3 L14.55 6.75 15.05 7.5 Q15.3 7.7 15.1 8.5 14.95 9.25 13.9 9.85 12.9 10.45 10.9 10.7 L8.5 10.75 Q6.75 10.5 5.8 9.85 4.9 9.1 4.55 8.2 4.2 7.25 4.5 6.9 L5.3 6.1 Q5.9 5.35 9.15 5.0 L10.8 5.2 12.05 5.65" fill="#ffffff" fill-rule="evenodd" stroke="none"/>
      <path d="M13.05 7.35 Q13.1 8.4 12.55 9.15 L11.4 10.15 10.2 10.45 8.8 10.4 7.4 10.1 6.65 9.15 Q6.05 7.95 6.5 6.85 6.95 5.7 8.9 5.15 L9.7 5.15 11.55 5.45 Q11.75 5.45 12.2 5.8 L11.9 5.5 Q13.0 6.4 13.05 7.35" fill="#2ca6e9" fill-rule="evenodd" stroke="none"/>
      <path d="M11.4 10.25 L8.15 10.35 7.2 10.05 Q6.5 9.25 6.3 8.1 6.15 6.9 7.1 5.9 8.05 4.85 7.85 5.3 L8.9 5.15 11.55 5.55 12.5 6.0 Q13.15 6.7 13.0 7.6 13.0 8.8 11.85 9.85 L11.4 10.25" fill="url(#gradient0)" fill-rule="evenodd" stroke="none"/>
      <path d="M9.65 6.5 Q10.25 6.45 10.85 6.85 11.6 7.25 11.35 8.3 11.15 9.25 9.75 9.35 8.7 9.45 8.1 8.9 7.55 8.45 7.85 7.6 8.25 6.55 9.65 6.5" fill="#000000" fill-opacity="0.5019608" fill-rule="evenodd" stroke="none"/>
      <path d="M11.0 10.15 L8.95 10.35 8.15 10.15 Q7.1 9.85 7.15 9.35 7.2 8.8 7.75 8.5 L9.7 8.3 Q10.95 8.4 11.45 8.9 11.75 9.25 11.65 9.6 11.6 9.95 11.0 10.15" fill="#51ddff" fill-opacity="0.45882353" fill-rule="evenodd" stroke="none"/>
      <path d="M11.1 9.15 Q10.65 9.65 9.4 9.6 8.25 9.5 7.8 9.1 7.4 8.7 7.45 8.2 7.55 7.65 7.8 7.45 L8.15 7.15 7.95 7.55 Q7.8 7.8 7.8 8.15 L8.1 8.85 Q8.45 9.25 9.25 9.25 L10.5 9.15 11.2 8.55 11.4 7.85 11.4 7.65 11.5 8.2 Q11.55 8.7 11.1 9.15" fill="#000000" fill-opacity="0.2" fill-rule="evenodd" stroke="none"/>
      <path d="M11.3 8.1 Q10.7 8.1 10.4 7.75 L10.2 7.35 10.45 6.9 Q10.8 6.6 11.4 6.6 12.35 6.6 12.35 7.3 12.35 8.1 11.3 8.1 M7.85 8.1 L7.5 8.4 7.15 8.25 7.15 8.1 Q7.15 7.85 7.55 7.85 L7.85 8.1" fill="#ffffff" fill-rule="evenodd" stroke="none"/>
      <path d="M10.25 5.3 L11.5 5.5 Q13.0 5.85 13.6 6.25 L14.75 7.15 14.95 7.7 Q14.95 7.95 15.1 8.0 L15.1 8.05 15.05 8.55 14.9 8.9 14.8 8.85 14.5 8.6 12.3 7.3 Q10.85 6.65 8.95 6.65 7.1 6.65 5.7 7.55 4.3 8.45 4.5 8.7 4.15 8.7 4.15 7.75 4.15 6.85 5.7 6.0 7.25 5.15 8.8 5.15 L9.4 5.15 9.5 5.2 10.25 5.3" fill="#000000" fill-opacity="0.16078432" fill-rule="evenodd" stroke="none"/>
      <path d="M11.55 5.0 L12.45 5.2 13.85 5.75 Q14.6 6.15 15.65 7.15 L14.4 6.4 Q15.0 7.1 15.25 7.95 L15.35 8.4 14.5 7.45 12.65 6.25 Q11.4 5.6 9.4 5.5 7.4 5.35 5.9 6.3 4.45 7.25 4.9 8.55 L5.1 9.0 Q5.55 9.65 5.25 9.45 L4.3 8.55 3.25 7.7 4.15 7.45 Q4.35 7.35 3.95 7.35 L3.25 7.15 3.0 7.0 3.05 7.0 4.15 6.75 4.3 6.7 4.4 6.65 3.9 6.3 3.55 6.05 3.65 6.0 5.05 6.05 5.1 6.0 4.65 5.7 4.4 5.45 5.15 5.6 6.05 5.45 6.15 5.45 Q7.1 5.0 8.25 4.9 L5.9 5.1 5.55 5.2 8.3 4.7 9.65 4.7 11.15 4.85 11.55 5.0 M7.35 10.45 L7.4 10.45 8.0 10.6 7.9 10.65 7.3 10.9 Q7.15 10.6 7.35 10.45 L6.45 10.6 6.7 10.3 5.85 10.35 Q5.55 10.45 5.65 10.25 L6.0 9.85 7.35 10.45 M8.1 10.6 L8.85 10.7 8.15 11.0 8.1 10.7 8.1 10.6" fill="#000000" fill-rule="evenodd" stroke="none"/>
      <path d="M14.2 5.35 L12.25 4.7 11.55 4.6 9.8 4.35 Q8.25 4.15 11.4 4.25 14.6 4.3 15.6 6.15 L14.2 5.35" fill="#936440" fill-rule="evenodd" stroke="none"/>
    </g>
    <linearGradient gradientTransform="matrix(0.0, 0.0033, 0.0048, 0.0, 9.55, 7.8)" gradientUnits="userSpaceOnUse" id="gradient0" spreadMethod="pad" x1="-819.2" x2="819.2">
      <stop offset="0.0" stop-color="#002548"/>
      <stop offset="1.0" stop-color="#000000" stop-opacity="0.0"/>
    </linearGradient>
  </defs>
</svg>
