<?xml version="1.0" encoding="UTF-8" standalone="no"?>
<svg xmlns:ffdec="https://www.free-decompiler.com/flash" xmlns:xlink="http://www.w3.org/1999/xlink" ffdec:objectType="frame" height="9.65px" width="12.85px" xmlns="http://www.w3.org/2000/svg">
  <g transform="matrix(1.0, 0.0, 0.0, 1.0, -3.0, -1.35)">
    <use ffdec:characterId="5" height="9.65" transform="matrix(1.0, 0.0, 0.0, 1.0, 3.0, 1.35)" width="12.65" xlink:href="#shape0"/>
  </g>
  <defs>
    <g id="shape0" transform="matrix(1.0, 0.0, 0.0, 1.0, -3.0, -1.35)">
      <path d="M12.05 3.4 Q13.55 3.65 14.2 4.3 L14.55 5.0 15.05 6.0 Q15.3 6.35 15.1 7.45 14.95 8.5 13.9 9.35 12.9 10.2 10.9 10.6 L8.5 10.65 Q6.75 10.3 5.8 9.35 4.9 8.3 4.55 7.0 4.2 5.7 4.5 5.15 L5.3 4.05 Q5.9 3.0 9.15 2.45 L9.15 2.5 10.8 2.8 Q11.5 3.3 12.05 3.4" fill="#ffffff" fill-rule="evenodd" stroke="none"/>
      <path d="M13.05 5.85 Q13.1 7.3 12.55 8.35 12.05 9.4 11.4 9.8 10.8 10.2 10.2 10.25 L8.8 10.15 Q7.85 10.0 7.4 9.7 7.0 9.4 6.65 8.35 6.05 6.65 6.5 5.1 6.95 3.45 8.9 2.7 L9.7 2.7 11.55 3.15 Q11.75 3.15 12.2 3.6 L11.9 3.2 Q13.0 4.45 13.05 5.85" fill="#2ca6e9" fill-rule="evenodd" stroke="none"/>
      <path d="M13.0 6.2 Q13.0 7.9 11.85 9.35 L11.4 9.9 8.15 10.05 7.2 9.65 Q6.5 8.55 6.3 6.9 6.15 5.2 7.1 3.75 8.05 2.3 7.85 2.9 L8.9 2.7 Q10.45 2.65 11.55 3.25 L12.5 3.9 Q13.15 4.9 13.0 6.2" fill="url(#gradient0)" fill-rule="evenodd" stroke="none"/>
      <path d="M9.65 4.6 Q10.25 4.55 10.85 5.1 11.6 5.7 11.35 7.2 11.15 8.5 9.75 8.65 8.7 8.8 8.1 8.0 7.55 7.35 7.85 6.15 8.25 4.7 9.65 4.6" fill="#000000" fill-opacity="0.5019608" fill-rule="evenodd" stroke="none"/>
      <path d="M8.95 10.05 L8.15 9.8 Q7.1 9.4 7.15 8.65 7.2 7.9 7.75 7.45 8.5 6.95 9.7 7.15 10.95 7.3 11.45 8.05 11.75 8.5 11.65 9.0 11.6 9.5 11.0 9.8 L8.95 10.05" fill="#51ddff" fill-opacity="0.45882353" fill-rule="evenodd" stroke="none"/>
      <path d="M11.1 8.4 Q10.65 9.05 9.4 9.0 8.25 8.9 7.8 8.3 7.4 7.7 7.45 7.0 7.55 6.25 7.8 5.95 L8.15 5.55 7.95 6.1 Q7.8 6.45 7.8 6.95 7.8 7.4 8.1 7.95 8.45 8.5 9.25 8.55 L10.5 8.4 11.2 7.5 11.4 6.55 11.4 6.25 11.5 7.0 Q11.55 7.7 11.1 8.4" fill="#000000" fill-opacity="0.2" fill-rule="evenodd" stroke="none"/>
      <path d="M11.3 6.85 Q10.7 6.85 10.4 6.4 L10.2 5.85 10.45 5.2 Q10.8 4.75 11.4 4.75 12.35 4.75 12.35 5.75 12.35 6.85 11.3 6.85 M7.85 6.9 Q7.85 7.3 7.5 7.3 L7.15 7.1 7.15 6.9 Q7.15 6.55 7.55 6.55 7.85 6.55 7.85 6.9" fill="#ffffff" fill-rule="evenodd" stroke="none"/>
      <path d="M10.25 2.9 L11.5 3.2 Q13.0 3.7 13.6 4.25 L14.75 5.55 14.95 6.3 Q14.95 6.65 15.1 6.75 L15.1 6.8 15.05 7.55 14.9 8.05 14.8 7.95 14.5 7.6 Q13.8 6.65 12.3 5.75 10.85 4.85 8.95 4.85 7.1 4.85 5.7 6.1 4.3 7.35 4.5 7.7 4.15 7.7 4.15 6.4 4.15 5.1 5.7 3.9 7.25 2.7 8.8 2.7 L9.4 2.7 9.5 2.75 10.25 2.9" fill="#000000" fill-opacity="0.16078432" fill-rule="evenodd" stroke="none"/>
      <path d="M11.55 2.45 L12.45 2.75 Q13.05 3.0 13.85 3.55 L15.65 5.55 14.4 4.45 Q15.0 5.45 15.25 6.65 L15.35 7.3 14.5 5.95 12.65 4.25 Q11.4 3.35 9.4 3.2 7.4 3.0 5.9 4.35 4.45 5.7 4.9 7.5 L5.1 8.15 Q5.55 9.05 5.25 8.8 L4.3 7.55 3.25 6.3 4.15 5.95 Q4.35 5.8 3.95 5.8 L3.25 5.55 3.0 5.3 3.05 5.35 4.15 5.0 4.3 4.9 4.4 4.8 3.9 4.35 3.55 4.0 3.65 3.9 4.65 4.0 5.05 4.0 5.1 3.9 4.65 3.5 4.4 3.15 5.15 3.3 6.05 3.1 6.15 3.1 Q7.1 2.5 8.25 2.35 L5.9 2.65 5.55 2.75 Q6.1 2.35 8.3 2.05 L9.65 2.05 11.15 2.3 11.55 2.45 M7.4 10.25 L8.0 10.45 7.9 10.5 7.3 10.85 Q7.15 10.45 7.35 10.2 L6.45 10.45 6.7 10.0 5.85 10.1 Q5.55 10.25 5.65 9.95 5.75 9.6 6.0 9.4 L6.0 9.35 7.35 10.2 7.4 10.25 M8.1 10.45 L8.85 10.55 8.15 11.0 8.1 10.55 8.1 10.45" fill="#000000" fill-rule="evenodd" stroke="none"/>
      <path d="M14.2 2.95 Q12.75 2.15 12.25 2.05 L11.55 1.9 9.8 1.55 Q8.25 1.25 11.4 1.4 14.6 1.5 15.6 4.1 L14.2 2.95" fill="#936440" fill-rule="evenodd" stroke="none"/>
    </g>
    <linearGradient gradientTransform="matrix(0.0, 0.0046, 0.0048, 0.0, 9.55, 6.45)" gradientUnits="userSpaceOnUse" id="gradient0" spreadMethod="pad" x1="-819.2" x2="819.2">
      <stop offset="0.0" stop-color="#002548"/>
      <stop offset="1.0" stop-color="#000000" stop-opacity="0.0"/>
    </linearGradient>
  </defs>
</svg>
