<?xml version="1.0" encoding="UTF-8" standalone="no"?>
<svg xmlns:ffdec="https://www.free-decompiler.com/flash" xmlns:xlink="http://www.w3.org/1999/xlink" ffdec:objectType="frame" height="11.45px" width="12.1px" xmlns="http://www.w3.org/2000/svg">
  <g transform="matrix(1.0, 0.0, 0.0, 1.0, -3.05, 0.55)">
    <use ffdec:characterId="3" height="3.55" transform="matrix(1.0, 0.0, 0.0, 1.0, 3.3, 5.45)" width="11.85" xlink:href="#shape0"/>
  </g>
  <defs>
    <g id="shape0" transform="matrix(1.0, 0.0, 0.0, 1.0, -3.3, -5.45)">
      <path d="M14.35 6.15 L12.7 7.25 15.15 6.6 12.8 8.05 11.2 8.55 9.9 8.85 8.9 9.0 7.8 8.95 6.35 8.75 5.5 8.55 5.25 8.4 5.15 8.4 4.25 8.25 4.75 8.15 4.8 8.15 4.45 8.0 4.1 8.0 3.7 7.85 4.2 7.75 4.1 7.65 4.25 7.65 Q3.5 7.6 3.3 7.2 L3.8 7.35 3.4 6.75 5.25 7.5 6.1 7.75 4.75 7.0 6.2 7.55 8.1 7.95 8.05 8.0 9.0 7.95 10.75 7.75 11.9 7.35 14.35 6.1 14.35 6.15 M7.35 6.75 L7.35 6.7 7.4 6.75 7.35 6.75" fill="#000000" fill-rule="evenodd" stroke="none"/>
      <path d="M13.9 5.45 L14.05 5.5 12.15 6.65 9.35 7.25 Q8.0 7.25 9.7 6.8 L13.9 5.45" fill="#4a1400" fill-opacity="0.29803923" fill-rule="evenodd" stroke="none"/>
    </g>
  </defs>
</svg>
