<svg xmlns="http://www.w3.org/2000/svg" xmlns:ffdec="https://www.free-decompiler.com/flash" xmlns:xlink="http://www.w3.org/1999/xlink" ffdec:objectType="frame" width="12.1" height="11.45"><use ffdec:characterId="4" xlink:href="#a" width="11.85" height="7.75" transform="translate(0 3.7)"/><defs><linearGradient id="b" x1="-819.2" x2="819.2" gradientTransform="matrix(0 0 0 0 11.45 2.5)" gradientUnits="userSpaceOnUse" spreadMethod="pad"><stop offset="0" stop-color="#331000"/><stop offset=".137" stop-color="#270f03"/><stop offset=".522"/><stop offset=".878" stop-color="#2e0f02"/><stop offset="1" stop-color="#4a1e0b"/></linearGradient><linearGradient id="f" x1="-819.2" x2="819.2" gradientTransform="matrix(-1 0 0 .6783 11.45 2.2)" gradientUnits="userSpaceOnUse" spreadMethod="pad"><stop offset="0" stop-color="#331000"/><stop offset=".137" stop-color="#270f03"/><stop offset=".522"/><stop offset=".878" stop-color="#2e0f02"/><stop offset="1" stop-color="#4a1e0b"/></linearGradient><linearGradient id="g" x1="-819.2" x2="819.2" gradientTransform="matrix(0 0 0 0 11.45 2.5)" gradientUnits="userSpaceOnUse" spreadMethod="pad"><stop offset="0" stop-color="#331000"/><stop offset=".137" stop-color="#270f03"/><stop offset=".522"/><stop offset=".878" stop-color="#2e0f02"/><stop offset="1" stop-color="#4a1e0b"/></linearGradient><linearGradient id="h" x1="-819.2" x2="819.2" gradientTransform="matrix(0 0 0 0 11.5 2.5)" gradientUnits="userSpaceOnUse" spreadMethod="pad"><stop offset="0" stop-color="#331000"/><stop offset=".137" stop-color="#270f03"/><stop offset=".522"/><stop offset=".878" stop-color="#2e0f02"/><stop offset="1" stop-color="#4a1e0b"/></linearGradient><radialGradient id="c" cx="0" cy="0" r="819.2" gradientTransform="matrix(-.0053 .0002 .0003 .0038 9.7 7.75)" gradientUnits="userSpaceOnUse" spreadMethod="pad"><stop offset="0" stop-color="#fff" stop-opacity=".706"/><stop offset=".702" stop-color="#fff" stop-opacity="0"/></radialGradient><radialGradient id="d" cx="0" cy="0" r="819.2" gradientTransform="matrix(-1.0902 .0116 -.0007 .8058 11.55 1.45)" gradientUnits="userSpaceOnUse" spreadMethod="pad"><stop offset="0" stop-color="#1370c2" stop-opacity=".659"/><stop offset=".702" stop-color="#0a2e00" stop-opacity=".047"/></radialGradient><radialGradient id="e" cx="0" cy="0" r="819.2" gradientTransform="matrix(-1.0887 .0349 .0472 .6775 11.05 2.4)" gradientUnits="userSpaceOnUse" spreadMethod="pad"><stop offset="0" stop-color="#1370c2" stop-opacity=".659"/><stop offset=".702" stop-color="#0a2e00" stop-opacity=".047"/></radialGradient><g id="a" fill-rule="evenodd"><path fill="#fff" d="m10.6 2 .7.5.15 1.4q.1 1.15-1.1 2.55-1.15 1.4-4.4 1.2l.3.05q-2.55-.25-3.5-1.4-.9-1.15-1.1-1.8-.15-.7.1-1.15.75-.9 1.15-.9l1.55-.65q1.4-.65 2.5-.65 1.9 0 3.65.85"/><path fill="url(#b)" d="m4.35 7.05.1.1-.4.25-.7.15-.3.1q.9-.6 1.75-1.25l.1.1z" transform="translate(-3.05 -3.15)"/><path fill="#54a4d0" d="M8.15 1.25q1.45.75 1.7 2.4.3 1.6-.65 2.75-.9 1.2-2.95.95-2.1-.3-2.75-1.8Q2.9 4 3.35 2.8l.25-.6.2.15.2-.3q.2-.4.35-.3l1.25-.3 1.1-.15z"/><path fill="#2d5e8c" d="M8.15 1.25h.45l.75.6q.6.55.8 1.5t0 1.7L9.7 6.2l-.75.8-1.2.55-1.6.05q-.95-.05-1.8-.6Q3.5 6.4 3 5.15q-.45-1.3-.05-2.3.3-.8.65-.65l-.25.6Q2.9 4 3.5 5.55q.65 1.5 2.75 1.8Q8.3 7.6 9.2 6.4q.95-1.15.65-2.75Q9.6 2 8.15 1.25"/><path fill="url(#c)" d="M12.2 4.95q1.1.9.95 2.6-.05 1.7-.9 2.4-.9.7-2.35.8-1.5.05-2.7-.95-1.1-1-1.3-2.55-.15-1.65.95-2.1T9.5 4.4t2.7.55" transform="translate(-3.05 -3.15)"/><path fill="url(#d)" d="M10.15 6.4q.95.25.9 1.35-.1 1.4-1.6 1.4-.65 0-1-.6-.3-.45-.25-.9.05-1.05 1.1-1.3z" transform="translate(-3.05 -3.15)"/><path fill="url(#e)" d="M11.3 8.55q.35-.9.1-1.4l-.25-.6.05-.05h.15q.55.45.5 1.75t-1.6 1.5l-2-.2-.5-.55-.25-.6q-.1-.4-.05-1.15t.3-.95q-.2.5-.15.95 0 .65.45 1.4.5.75 1.65.8 1.15 0 1.6-.9" transform="translate(-3.05 -3.15)"/><path fill-opacity=".31" d="m11.5 3.7-.05.45h-.05l-.6-.2-.65-.15-1.45-.25-3.25.2q-1.9.4-2.45.9l-.7.8-.15.2L1.7 4.1q0-1.05 1.55-1.6l1.55-.65q1.35-.55 2.25-.55 2 0 3.45.85l.9.7z"/><path fill="#fff" d="m3.7 4.25-.05-.05-.05-.05-.25-.3q0-.3.25-.65l.8-.5 1.4-.05.35.3.05.5q-.15.65-1.2.8zm3.05-.05.05.1q.15.3-.25.4l-.5-.1L6 4.5l.05-.1.05-.1.2-.1.3-.05z"/><path fill="#fff" fill-opacity=".451" d="m7.5 7.05-.6.1-.15-.2q-.1-.25.1-.35L7 6.55h.3q.4.2.2.5m1-.3-.4-.1-.3-.4.05-.1Q7.75 6 8.1 6q.65-.05.75.3t-.35.45"/><path fill-opacity=".431" d="m6.15 2.95.55.4q.2.3.05.75l.1-.05-.1.15-.15-.05-.3.05-.2.1-.05.1-.05.1.05.1-.3.1-1.6-.15-.45-.3H5q1.05-.15 1.2-.8z"/><path fill="#4a1400" fill-opacity=".298" d="m11.85 1.4-.3-.15-.7-.4-.65-.2L9.1.4Q7.75.2 6.85.4 7.9-.05 9.25 0l.95.2q.8.2 1.15.6z"/><path fill="url(#f)" d="M10.9 4.1h.35l1.15.2.65.2.7.3-.5-.15-1.05-.3.8.35-.1.15.05.15-.75-.35-.15.05h-.95l-.15.05-1.2-.05q-1.25.1-2.55.85-1.3.7-1.7 1.15l-.35.4v-.05q.3-.75.7-1.2l-.1-.1q-.65.45-1.05 1.4l-.05-.1h-.2l-.1.05-.05.05.15.45v.05l-.3-.4-.5.2.05-.05h-.05l.2-.3.25-.25.6-.6q.75-.65 1.45-1.05t1.35-.6q-1.25.45-1.25.8l.05.1.05.05 1.45-.9 1-.3.85-.15.6-.05.45-.05z" transform="translate(-3.05 -3.15)"/><path fill="url(#g)" d="m13.75 4.8.65.4.1 1.45-.7-.65-.3-.25-.4-.2-.55-.3q-.3-.2-1.6-.5l.15-.05h.95l.15-.05.75.35-.05-.15.1-.15-.8-.35 1.05.3zm-8.6 2.3-.05.05h.05l-.2.35.2.9v.15l.1.25-.85-1.05-.2-.3-1.1.2.55-.25h.05l-.05.05.5-.2.3.4V7.6l-.15-.45.05-.05.1-.05h.2l.05.1q.4-.95 1.05-1.4l.1.1q-.4.45-.7 1.2zM7.5 4.6l.25-.1q1.75-.65 3.3-.65l2.2.35.45.2 1.15.65-.95-.45-1-.35L11.45 4l-.45.05-.1.05h-.2l-.45.05-.6.05-.85.15-1 .3-1.45.9-.05-.05-.05-.1q0-.35 1.25-.8m.05-.4-.4.2Q6.05 4.85 4.7 6l-.6.5-.55.45.55-.55.8-.85q1-.85 2.65-1.35" transform="translate(-3.05 -3.15)"/><path fill="url(#h)" d="M10.8 10.85H8.6q-1.2-.15-1.55-.45l1.65.15 2.9-.15 1-.15-.5.25-1 .3z" transform="translate(-3.05 -3.15)"/></g></defs></svg>