<svg xmlns="http://www.w3.org/2000/svg" xmlns:ffdec="https://www.free-decompiler.com/flash" xmlns:xlink="http://www.w3.org/1999/xlink" ffdec:objectType="frame" width="12.5" height="9.35"><use ffdec:characterId="2" xlink:href="#a" width="12.5" height="6.1" transform="translate(0 3)"/><defs><linearGradient id="b" x1="-819.2" x2="819.2" gradientTransform="matrix(.0076 0 0 .0032 9.45 7.5)" gradientUnits="userSpaceOnUse" spreadMethod="pad"><stop offset="0" stop-color="#541f06"/><stop offset=".137" stop-color="#270f03"/><stop offset=".522"/><stop offset=".878" stop-color="#2e0f02"/><stop offset="1" stop-color="#4a1e0b"/></linearGradient><linearGradient id="c" x1="-819.2" x2="819.2" gradientTransform="matrix(-.0002 .003 .0038 .0001 9.65 7.65)" gradientUnits="userSpaceOnUse" spreadMethod="pad"><stop offset=".431" stop-color="#fff" stop-opacity="0"/><stop offset="1" stop-color="#fff" stop-opacity=".62"/></linearGradient><linearGradient id="d" x1="-819.2" x2="819.2" gradientTransform="matrix(.0076 0 0 .0032 9.45 7.5)" gradientUnits="userSpaceOnUse" spreadMethod="pad"><stop offset="0" stop-color="#541f06"/><stop offset=".137" stop-color="#270f03"/><stop offset=".522"/><stop offset=".878" stop-color="#2e0f02"/><stop offset="1" stop-color="#4a1e0b"/></linearGradient><g id="a" fill-rule="evenodd"><path fill="#fff" d="m10.35 1.2.35.5.5.65.4.65v.05l-.45 1-1.15 1-.35.25-1.5.45-.6.05-.85.1-1.1-.1h-.25q-1.1-.05-2.8-1.05Q.8 3.7.8 3.1q0-1.45 5.15-1.9 3-.2 4.4 0m-3.6 4.6.45-.05-1.1.05z"/><path fill="url(#b)" d="M11.95 9.9h.15l.1.15-.05.05zm-1.2.15H11l.05.05v.2l-.3-.1zm2.05-.2-.2-.1.3-.1.05.15zM7.45 10H7.3l-.05-.1q0-.1.25-.1l.05.1zm1.55.3h-.15v-.2h.2zm.85-.2h.25v.2h-.2zm-1.75.1h-.2V10l.25-.05z" transform="translate(-3.2 -4.2)"/><path fill="#325903" d="M9.5 3.4v.55q-.3.9-1.15 1.35-.8.45-2.2.45-1.4-.05-2.35-.9-.5-.5-.55-1.1-.15-.65.5-1.45.65-.7 2.25-.95 1.5-.25 2.35.35t1 1.1z"/><path fill="url(#c)" d="M11.65 9.6q-1 .65-2.3.5-1.3-.1-2.2-.8-.85-.75-.7-1.75.2-1 1.1-1.7.95-.65 2.25-.65 1.25.1 2.1.85.9.7.85 1.8 0 1.1-1.1 1.75" transform="translate(-3.2 -4.2)"/><path fill="#1a3103" fill-opacity=".851" d="M6.25 2.75Q7.6 2.7 7.6 3.6q.05.9-1.05.9-1 .05-1.35-.35l-.2-.5q0-.85 1.25-.9"/><path fill="#fff" d="m8.8 4.5-1.6-.45q-.45-.2-.05-.3l1.05-.1q.75 0 1.1.5.6.5-.5.35M5.15 3l-.2.3-.4.1-.45-.1-.15-.3.15-.3.45-.05.4.05z"/><path fill="#fff" fill-opacity=".271" d="m7.15 5.05-.25-.1-.2-.2q0-.25.4-.15l.35.3q0 .15-.3.15M4.8 4.3l-.5.35-.35-.25q0-.25.45-.3.4-.05.4.2m.1.5q0-.2.3-.25l.25.25-.3.2-.2-.1zm1.2-.1.3.3-.25.2-.35-.3q0-.3.3-.2"/><path fill-opacity=".2" d="m10.7 1.85.45.65q.4.5.15 1.15l-.25.55q-.3-.5-1.1-.9-1.35-.7-3.35-.7h-.5l-2.5.5q-1.8.5-2.05.95L.6 3q0-.55 1.75-1.2 2-.7 4.45-.75l2.5.05.5.2q.55.1.9.55"/><path fill="#e9a067" d="m9.35.45-.7-.1H6.2l-.75.1Q2.4.95 1.4 1.5l-.9.45H.4q.1-.1.85-.55.7-.5 2.5-.95L7.25 0h1L9.6.1l.75.25.55.35.9.7.1.2h-.05l-.6-.4-.8-.45h-.1l-.25-.1z"/><path fill="url(#d)" d="m11.15 5.75-3.5.3-1.95.6q-1 .4-1.3.75l-.05.1.15.25.2.3q.05.45 1.35 1.25l.55.35-.1-.05q-1.25-.5-2.3-1.45l-1-.85.7-.55q.7-.6 1.2-.85l1.6-.6 3.05-.35 2.8.1 1.1.45 1 .75.9.95.1.35-.2-.15h-.3v.3l-.05-.05h-.2v.05l-.05.1-.15.1-.05-.05-.05.35h-.1l-.05-.15V8l-.05-.2-.2-.4q-.85-1.15-1.3-1.35l-1.15-.3z" transform="translate(-3.2 -4.2)"/></g></defs></svg>