<svg xmlns="http://www.w3.org/2000/svg" xmlns:ffdec="https://www.free-decompiler.com/flash" xmlns:xlink="http://www.w3.org/1999/xlink" ffdec:objectType="frame" width="12.5" height="9.35"><use ffdec:characterId="5" xlink:href="#a" width="12.5" height="9.35"/><defs><linearGradient id="b" x1="-819.2" x2="819.2" gradientTransform="matrix(.0076 0 0 .0049 9.45 6.25)" gradientUnits="userSpaceOnUse" spreadMethod="pad"><stop offset="0" stop-color="#541f06"/><stop offset=".137" stop-color="#270f03"/><stop offset=".522"/><stop offset=".878" stop-color="#2e0f02"/><stop offset="1" stop-color="#4a1e0b"/></linearGradient><linearGradient id="c" x1="-819.2" x2="819.2" gradientTransform="matrix(-.0002 .0044 .0038 .0002 9.65 6.5)" gradientUnits="userSpaceOnUse" spreadMethod="pad"><stop offset=".431" stop-color="#fff" stop-opacity="0"/><stop offset="1" stop-color="#fff" stop-opacity=".62"/></linearGradient><linearGradient id="d" x1="-819.2" x2="819.2" gradientTransform="matrix(.0076 0 0 .0049 9.45 6.25)" gradientUnits="userSpaceOnUse" spreadMethod="pad"><stop offset="0" stop-color="#541f06"/><stop offset=".137" stop-color="#270f03"/><stop offset=".522"/><stop offset=".878" stop-color="#2e0f02"/><stop offset="1" stop-color="#4a1e0b"/></linearGradient><g id="a" fill-rule="evenodd"><path fill="#fff" d="m10.35 1.85.35.8.5.95.4 1v.1l-.45 1.55L10 7.8l-.35.35-1.5.7-.6.1-.85.1-1.1-.1-.25-.05q-1.1-.05-2.8-1.6Q.8 5.7.8 4.8q0-2.25 5.15-2.9 3-.35 4.4-.05M6.75 8.9l.45-.05-1.1.05z"/><path fill="url(#b)" d="m12.2 10.2-.05.05-.2-.25.15-.05zm-1.15.1v.25l-.3-.15v-.2H11zm1.9-.5-.15.05-.2-.1q.05-.2.3-.15zm-5.4.15-.1.2H7.3L7.25 10q0-.2.25-.2zm1.45.6h-.15v-.25l.2-.05zm1.1 0h-.2l-.05-.25.25-.05zm-2.05-.1H7.9v-.3l.25-.1-.05.35z" transform="translate(-3.2 -1.2)"/><path fill="#325903" d="M9.5 5.2v.85q-.3 1.4-1.15 2.1-.8.7-2.2.7-1.4-.05-2.35-1.4-.5-.75-.55-1.65-.15-1.05.5-2.25Q4.4 2.45 6 2.1q1.5-.4 2.35.55.85.9 1 1.7z"/><path fill="url(#c)" d="M11.65 9.3q-1 .95-2.3.8t-2.2-1.2q-.85-1.1-.7-2.55.2-1.5 1.1-2.5.95-1 2.25-.95 1.25.1 2.1 1.2.9 1.05.85 2.65 0 1.6-1.1 2.55" transform="translate(-3.2 -1.2)"/><path fill="#1a3103" fill-opacity=".851" d="M5 5.6q0-1.25 1.25-1.35 1.35-.1 1.35 1.3.05 1.35-1.05 1.4-1 .05-1.35-.55z"/><path fill="#fff" d="M9.3 6.35q.6.8-.5.55-1.15-.3-1.6-.65t-.05-.5L8.2 5.6q.75.05 1.1.75m-4.75-2.3q.25 0 .4.15l.2.45-.2.4q-.15.2-.4.2t-.45-.2l-.15-.4q0-.25.15-.45.2-.15.45-.15"/><path fill="#fff" fill-opacity=".271" d="m7.45 7.55-.3.25-.25-.2-.2-.3q0-.4.4-.25zM4.9 7.4q0-.3.3-.4.25-.05.25.35l-.3.35-.2-.15zm.9.15q0-.45.3-.35t.3.5l-.25.3q-.35 0-.35-.45m-1-.9q0 .5-.5.5-.35 0-.35-.35 0-.4.45-.5.4-.1.4.35"/><path fill-opacity=".2" d="M9.8 2.05q.55.15.9.85l.45.95q.4.75.15 1.8l-.25.85q-.3-.8-1.1-1.45Q8.6 4 6.6 4h-.5q-.95.15-2.5.8-1.8.75-2.05 1.4L.6 4.6q0-.85 1.75-1.8 2-1.1 4.45-1.15l2.5.05z"/><path fill="#e9a067" d="m10.45 1.2-.1-.05L10.1 1 9.35.7l-.7-.15L6.2.6l-.45.05-.3.05Q2.4 1.45 1.4 2.3L.5 3H.4l.85-.85q.7-.75 2.5-1.4Q5.5.05 7.25 0h1L9.6.2l.75.4.55.5.9 1.05.1.35h-.05l-.6-.65z"/><path fill="url(#d)" d="m15.25 6.15-.1-.05v.5l-.05-.05h-.15l-.05-.05v.1l-.05.15-.15.15-.05-.05-.05.5h-.1l-.05-.25v-.05l-.05-.3-.2-.6q-.85-1.8-1.3-2.1-.45-.35-1.15-.45h-.6l-3.5.45q-1.1.35-1.95.9-1 .65-1.3 1.2l-.05.1.15.4.2.45q.05.7 1.35 1.95l.55.5-.1-.05-2.3-2.25-1-1.3.7-.85 1.2-1.25 1.6-.9 3.05-.6 2.8.2q.75.35 1.1.65l1 1.15.9 1.5.1.5-.2-.2z" transform="translate(-3.2 -1.2)"/></g></defs></svg>