<svg xmlns="http://www.w3.org/2000/svg" xmlns:ffdec="https://www.free-decompiler.com/flash" xmlns:xlink="http://www.w3.org/1999/xlink" ffdec:objectType="frame" width="12.45" height="8.3"><use ffdec:characterId="10" xlink:href="#a" width="12.4" height="5.9" transform="translate(0 2.4)"/><defs><radialGradient id="b" cx="0" cy="0" r="819.2" gradientTransform="matrix(-.0041 0 0 .0029 1.95 7.75)" gradientUnits="userSpaceOnUse" spreadMethod="pad"><stop offset="0" stop-color="#fff" stop-opacity=".325"/><stop offset=".737" stop-color="#fff" stop-opacity="0"/></radialGradient><g id="a"><path fill="#fff" fill-rule="evenodd" d="M1.35 4.1q.9-.8 2.7-1.2l4-.1 2.9.75-.35.6h-.05l-.4.25-.3.25-.25.2-.1-.05-.85.45-3.15.6-.65-.15-1.4-.2-.9-.35-.4-.1-.15-.1z"/><path fill="#c4c4c4" fill-rule="evenodd" d="m10.95 3.55-2.9-.75-4 .1q-1.8.4-2.7 1.2-.45-.65-.5-1.25l1.6-1.15Q3.65.85 6 .85q2.45 0 4.05.7 1.3.55 1.3 1.1z"/><path fill="#71548a" fill-rule="evenodd" d="M6.15 1q1.3-.05 1.95.45.6.45.7 1.25l.05.4-.2.85-.75.8q-.65.45-2.3.45-1.7 0-2.6-1.05l-.35-.85Q2.5 2.6 3 1.9l.55-.3.85-.35z"/><path fill="#5c0f62" fill-opacity=".812" fill-rule="evenodd" d="m7.1 4.55-1.45.2-.7-.2Q3.35 4 3.85 2.7l.25-.35-.05.65q-.1.7 1 1.05 1.05.25 1.75 0 .7-.35.95-1.15l-.05.05-.1-.65q.55.9.3 1.45z"/><path fill="url(#b)" fill-rule="evenodd" d="M1.95 9.6Q.9 9.6.1 9.05q-.75-.55-.75-1.3T.1 6.5q.8-.6 1.85-.6t1.85.6q.75.5.75 1.25t-.75 1.3q-.8.55-1.85.55" transform="translate(3.75 -4.5)"/><path fill-opacity=".298" fill-rule="evenodd" d="M6.15 1q1.3-.05 1.95.45.6.45.7 1.25v.1l-3-.1q-1.9 0-3.15.6-.15-.7.35-1.4l.55-.3.85-.35z"/><path fill="#311200" fill-rule="evenodd" d="m7.5 1.35-1.75-.1q-.85 0-2.3.5l-1.1.5L.25 3.4l.6-.7.7-.85Q2.1 1.35 3.2.9 4.3.5 5.4.45l2.6.1q1.5.15 2.65.95l1.7 1.2-.55.65-1.2.8q-.7.5-.25-.1l.5-.95q.1-.45-1.1-1.1l-.35-.15-.35-.15zM4.65 5.8l-.9-.2Q2.6 5.4 2.05 5l4.8.55-.6-.05 2.5-.45 1.05-.4.05.05-.15.15-.05.05-1.95.85-1.4.15z"/><path fill="none" stroke="#2e1200" stroke-linecap="round" stroke-linejoin="round" stroke-width=".2" d="M.1 2.3q.95-.9 2.55-1.55l.9-.35 6.55.35 2.2 1.3"/><path fill="#fff" fill-rule="evenodd" d="m8.35 4.15-.25-.1v-.2h.2l.35.2zm-.3-.65-.15-.2q0-.2.5-.15t.5.25l-.35.25zM4 3.8l-.95.2-.65-.45q0-.7.9-.75.95-.1 1 .3zm1.75.1-.2.3-.5.15q-.35 0-.35-.2 0-.5.6-.5.45 0 .45.25"/></g></defs></svg>