<?xml version="1.0" encoding="UTF-8" standalone="no"?>
<svg xmlns:ffdec="https://www.free-decompiler.com/flash" xmlns:xlink="http://www.w3.org/1999/xlink" ffdec:objectType="frame" height="10.4px" width="13.45px" xmlns="http://www.w3.org/2000/svg">
  <g transform="matrix(1.0, 0.0, 0.0, 1.0, -0.3, -1.45)">
    <use ffdec:characterId="1" height="8.95" transform="matrix(1.0, 0.0, 0.0, 1.0, 1.6, 2.2)" width="11.6" xlink:href="#shape0"/>
    <use ffdec:characterId="3" height="9.45" transform="matrix(-1.0, 0.0, 0.0, 1.0, 12.1, 1.55)" width="8.95" xlink:href="#sprite0"/>
    <use ffdec:characterId="4" height="9.8" transform="matrix(1.0, 0.0, 0.0, 1.0, 0.3, 1.45)" width="13.45" xlink:href="#shape2"/>
  </g>
  <defs>
    <g id="shape0" transform="matrix(1.0, 0.0, 0.0, 1.0, -1.6, -2.2)">
      <path d="M8.1 11.05 Q4.35 11.4 3.5 10.6 L1.65 8.6 Q1.5 7.1 2.15 5.7 3.3 2.6 6.55 2.25 9.95 1.95 11.5 3.25 L13.1 5.6 Q13.35 6.8 12.85 8.1 11.85 10.65 8.1 11.05" fill="#ffffff" fill-rule="evenodd" stroke="none"/>
      <path d="M9.8 5.05 Q5.25 4.1 1.8 8.9 L1.65 8.6 Q1.5 7.1 2.15 5.7 3.3 2.6 6.55 2.25 9.95 1.95 11.5 3.25 L13.1 5.6 13.15 6.5 Q11.75 5.35 9.8 5.05" fill="#000000" fill-opacity="0.2" fill-rule="evenodd" stroke="none"/>
    </g>
    <g id="sprite0" transform="matrix(1.0, 0.0, 0.0, 1.0, 0.0, 0.0)">
      <use ffdec:characterId="2" height="9.45" transform="matrix(1.0, 0.0, 0.0, 1.0, 0.0, 0.0)" width="8.95" xlink:href="#shape1"/>
    </g>
    <g id="shape1" transform="matrix(1.0, 0.0, 0.0, 1.0, 0.0, 0.0)">
      <path d="M8.2 5.5 Q8.35 3.9 7.4 2.55 6.3 1.05 4.8 0.9 3.3 0.8 2.05 2.0 0.8 3.15 0.7 4.8 L0.7 4.9 Q0.6 6.6 1.5 7.9 2.6 9.25 4.1 9.35 5.6 9.5 6.9 8.45 8.0 7.3 8.2 5.65 L8.2 5.5 M8.9 5.2 Q8.7 7.1 7.3 8.35 5.85 9.6 4.1 9.4 2.25 9.25 0.95 7.8 -0.1 6.25 0.0 4.4 L0.0 4.3 Q0.2 2.45 1.55 1.15 3.1 -0.15 4.95 0.0 6.7 0.2 7.9 1.7 9.15 3.25 8.9 5.1 L8.9 5.2" fill="#19003f" fill-rule="evenodd" stroke="none"/>
      <path d="M8.2 5.5 L8.2 5.65 Q8.0 7.3 6.9 8.45 5.6 9.5 4.1 9.35 2.6 9.25 1.5 7.9 0.6 6.6 0.7 4.9 L0.7 4.8 Q0.8 3.15 2.05 2.0 3.3 0.8 4.8 0.9 6.3 1.05 7.4 2.55 8.35 3.9 8.2 5.5 M6.05 4.85 L6.05 4.8 Q6.15 3.95 5.75 3.45 5.25 2.75 4.5 2.7 3.85 2.6 3.15 3.25 2.6 3.75 2.5 4.5 L2.5 4.55 Q2.5 5.4 2.85 5.95 3.45 6.55 4.1 6.55 4.8 6.6 5.45 6.2 6.0 5.7 6.05 4.85" fill="url(#gradient0)" fill-rule="evenodd" stroke="none"/>
      <path d="M6.05 4.85 Q6.0 5.7 5.45 6.2 4.8 6.6 4.1 6.55 3.45 6.55 2.85 5.95 2.5 5.4 2.5 4.55 L2.5 4.5 Q2.6 3.75 3.15 3.25 3.85 2.6 4.5 2.7 5.25 2.75 5.75 3.45 6.15 3.95 6.05 4.8 L6.05 4.85" fill="#2e1554" fill-rule="evenodd" stroke="none"/>
    </g>
    <radialGradient cx="0" cy="0" gradientTransform="matrix(0.005, 5.0E-4, -4.0E-4, 0.0052, 4.5, 7.1)" gradientUnits="userSpaceOnUse" id="gradient0" r="819.2" spreadMethod="pad">
      <stop offset="0.023529411764705882" stop-color="#a874bb"/>
      <stop offset="0.8784313725490196" stop-color="#41197e"/>
    </radialGradient>
    <g id="shape2" transform="matrix(1.0, 0.0, 0.0, 1.0, -0.3, -1.45)">
      <path d="M11.8 2.55 L12.8 3.5 13.75 4.7 12.3 3.8 Q13.15 5.15 13.25 6.45 11.65 3.6 9.85 3.0 L6.9 2.95 Q5.25 3.15 3.9 4.3 2.35 5.65 2.6 7.35 3.0 9.9 4.25 11.25 2.8 10.15 1.75 8.75 L0.3 6.85 1.55 5.05 Q3.45 2.15 6.9 1.55 L10.1 1.75 11.8 2.55" fill="#331600" fill-rule="evenodd" stroke="none"/>
      <path d="M11.1 6.6 Q10.75 6.95 10.25 6.9 9.8 6.9 9.45 6.45 9.2 6.05 9.25 5.55 9.3 5.05 9.6 4.7 10.05 4.4 10.5 4.4 L11.25 4.85 11.6 5.8 Q11.55 6.25 11.1 6.6" fill="#ffffff" fill-rule="evenodd" stroke="none"/>
      <path d="M4.65 8.2 L4.8 7.8 5.05 7.8 5.35 7.85 5.45 8.25 5.3 8.55 4.95 8.65 4.75 8.5 4.65 8.2 M6.1 8.6 L6.55 8.8 6.75 9.4 6.45 9.95 5.95 10.15 5.45 9.85 5.35 9.25 5.55 8.7 6.1 8.6" fill="#ffffff" fill-opacity="0.49803922" fill-rule="evenodd" stroke="none"/>
    </g>
  </defs>
</svg>
