<?xml version="1.0" encoding="UTF-8" standalone="no"?>
<svg xmlns:ffdec="https://www.free-decompiler.com/flash" xmlns:xlink="http://www.w3.org/1999/xlink" ffdec:objectType="frame" height="10.4px" width="13.45px" xmlns="http://www.w3.org/2000/svg">
  <g transform="matrix(1.0, 0.0, 0.0, 1.0, -0.3, -1.45)">
    <use ffdec:characterId="3" height="9.45" transform="matrix(-1.0, 0.0, 0.0, 1.0, 12.1, 1.55)" width="8.95" xlink:href="#sprite0"/>
    <use ffdec:characterId="7" height="4.35" transform="matrix(1.0, 0.0, 0.0, 1.0, 1.25, 7.5)" width="12.25" xlink:href="#shape1"/>
  </g>
  <defs>
    <g id="sprite0" transform="matrix(1.0, 0.0, 0.0, 1.0, 0.0, 0.0)">
      <use ffdec:characterId="2" height="9.45" transform="matrix(1.0, 0.0, 0.0, 1.0, 0.0, 0.0)" width="8.95" xlink:href="#shape0"/>
    </g>
    <g id="shape0" transform="matrix(1.0, 0.0, 0.0, 1.0, 0.0, 0.0)">
      <path d="M8.2 5.5 Q8.35 3.9 7.4 2.55 6.3 1.05 4.8 0.9 3.3 0.8 2.05 2.0 0.8 3.15 0.7 4.8 L0.7 4.9 Q0.6 6.6 1.5 7.9 2.6 9.25 4.1 9.35 5.6 9.5 6.9 8.45 8.0 7.3 8.2 5.65 L8.2 5.5 M8.9 5.2 Q8.7 7.1 7.3 8.35 5.85 9.6 4.1 9.4 2.25 9.25 0.95 7.8 -0.1 6.25 0.0 4.4 L0.0 4.3 Q0.2 2.45 1.55 1.15 3.1 -0.15 4.95 0.0 6.7 0.2 7.9 1.7 9.15 3.25 8.9 5.1 L8.9 5.2" fill="#19003f" fill-opacity="0.0" fill-rule="evenodd" stroke="none"/>
      <path d="M8.2 5.5 L8.2 5.65 Q8.0 7.3 6.9 8.45 5.6 9.5 4.1 9.35 2.6 9.25 1.5 7.9 0.6 6.6 0.7 4.9 L0.7 4.8 Q0.8 3.15 2.05 2.0 3.3 0.8 4.8 0.9 6.3 1.05 7.4 2.55 8.35 3.9 8.2 5.5 M6.05 4.85 L6.05 4.8 Q6.15 3.95 5.75 3.45 5.25 2.75 4.5 2.7 3.85 2.6 3.15 3.25 2.6 3.75 2.5 4.5 L2.5 4.55 Q2.5 5.4 2.85 5.95 3.45 6.55 4.1 6.55 4.8 6.6 5.45 6.2 6.0 5.7 6.05 4.85" fill="url(#gradient0)" fill-rule="evenodd" stroke="none"/>
      <path d="M6.05 4.85 Q6.0 5.7 5.45 6.2 4.8 6.6 4.1 6.55 3.45 6.55 2.85 5.95 2.5 5.4 2.5 4.55 L2.5 4.5 Q2.6 3.75 3.15 3.25 3.85 2.6 4.5 2.7 5.25 2.75 5.75 3.45 6.15 3.95 6.05 4.8 L6.05 4.85" fill="#2e1554" fill-opacity="0.0" fill-rule="evenodd" stroke="none"/>
    </g>
    <radialGradient cx="0" cy="0" gradientTransform="matrix(0.005, 5.0E-4, -4.0E-4, 0.0052, 4.5, 7.1)" gradientUnits="userSpaceOnUse" id="gradient0" r="819.2" spreadMethod="pad">
      <stop offset="0.023529411764705882" stop-color="#a874bb" stop-opacity="0.0"/>
      <stop offset="0.8784313725490196" stop-color="#41197e" stop-opacity="0.0"/>
    </radialGradient>
    <g id="shape1" transform="matrix(1.0, 0.0, 0.0, 1.0, -1.25, -7.5)">
      <path d="M11.65 10.95 L12.9 11.85 10.8 11.25 9.1 11.35 6.65 11.5 3.75 11.15 Q2.45 10.75 1.25 9.25 2.65 8.6 2.6 7.8 2.55 6.95 2.95 8.55 L4.65 9.8 6.9 10.5 8.65 10.6 11.45 10.55 13.5 10.15 11.85 10.85 11.65 10.95" fill="#331600" fill-rule="evenodd" stroke="none"/>
    </g>
  </defs>
</svg>
