<svg xmlns="http://www.w3.org/2000/svg" xmlns:ffdec="https://www.free-decompiler.com/flash" xmlns:xlink="http://www.w3.org/1999/xlink" ffdec:objectType="frame" width="13.45" height="10.4"><g transform="translate(-.3 -1.45)"><use ffdec:characterId="5" xlink:href="#a" width="11.6" height="5.15" transform="translate(1.6 6)"/><use ffdec:characterId="3" xlink:href="#b" width="8.95" height="9.45" transform="matrix(-1 0 0 .5787 12.1 5.65)"/><use ffdec:characterId="6" xlink:href="#c" width="13.45" height="5.7" transform="translate(.3 5.55)"/></g><defs><g id="a" fill-rule="evenodd"><path fill="#fff" d="m6.5 5.1-4.65-.3-1.8-1.05q-.15-.9.5-1.7 1.15-1.8 4.4-2 3.4-.15 4.95.6L11.5 2q.25.7-.25 1.45-1 1.45-4.75 1.65"/><path fill-opacity=".2" d="M8.2 1.65Q3.65 1.1.2 3.9l-.15-.15q-.15-.9.5-1.7 1.15-1.8 4.4-2 3.4-.15 4.95.6L11.5 2l.05.5q-1.4-.65-3.35-.85"/></g><g id="d" fill-rule="evenodd"><path fill="#19003f" d="M8.2 5.5q.15-1.6-.8-2.95Q6.3 1.05 4.8.9 3.3.8 2.05 2 .8 3.15.7 4.8v.1q-.1 1.7.8 3 1.1 1.35 2.6 1.45 1.5.15 2.8-.9Q8 7.3 8.2 5.65zm.7-.3q-.2 1.9-1.6 3.15Q5.85 9.6 4.1 9.4 2.25 9.25.95 7.8-.1 6.25 0 4.4v-.1q.2-1.85 1.55-3.15Q3.1-.15 4.95 0 6.7.2 7.9 1.7q1.25 1.55 1 3.4z"/><path fill="url(#e)" d="M8.2 5.5v.15Q8 7.3 6.9 8.45q-1.3 1.05-2.8.9-1.5-.1-2.6-1.45-.9-1.3-.8-3v-.1Q.8 3.15 2.05 2 3.3.8 4.8.9q1.5.15 2.6 1.65.95 1.35.8 2.95m-2.15-.65V4.8q.1-.85-.3-1.35-.5-.7-1.25-.75-.65-.1-1.35.55-.55.5-.65 1.25v.05q0 .85.35 1.4.6.6 1.25.6.7.05 1.35-.35.55-.5.6-1.35"/><path fill="#2e1554" d="M6.05 4.85Q6 5.7 5.45 6.2q-.65.4-1.35.35-.65 0-1.25-.6-.35-.55-.35-1.4V4.5q.1-.75.65-1.25.7-.65 1.35-.55.75.05 1.25.75.4.5.3 1.35z"/></g><g id="c" fill-rule="evenodd"><path fill="#331600" d="m11.5.7 1 .55.95.65L12 1.4q.85.8.95 1.55-1.6-1.65-3.4-2L6.6.9q-1.65.1-3 .8-1.55.75-1.3 1.75.4 1.5 1.65 2.25-1.45-.65-2.5-1.45L0 3.15 1.25 2.1Q3.15.45 6.6.1l3.2.1z"/><path fill="#fff" d="m9.95 3.2-.8-.25q-.25-.25-.2-.55l.35-.5.9-.15.75.25.35.55-.5.45z"/><path fill="#fff" fill-opacity=".498" d="m4.75 3.7.3.05.1.2-.15.2-.35.05-.2-.1-.1-.15.15-.25zm1.7.95-.3.3-.5.1-.5-.15-.1-.35.2-.3.55-.05.45.1z"/></g><radialGradient id="e" cx="0" cy="0" r="819.2" gradientTransform="matrix(.005 .0005 -.0004 .0052 4.5 7.1)" gradientUnits="userSpaceOnUse" spreadMethod="pad"><stop offset=".024" stop-color="#a874bb"/><stop offset=".878" stop-color="#41197e"/></radialGradient><use ffdec:characterId="2" xlink:href="#d" id="b" width="8.95" height="9.45"/></defs></svg>