<?xml version="1.0" encoding="UTF-8" standalone="no"?>
<svg xmlns:ffdec="https://www.free-decompiler.com/flash" xmlns:xlink="http://www.w3.org/1999/xlink" ffdec:objectType="frame" height="8.3px" width="12.45px" xmlns="http://www.w3.org/2000/svg">
  <g transform="matrix(1.0, 0.0, 0.0, 1.0, 3.75, -2.1)">
    <use ffdec:characterId="8" height="5.9" transform="matrix(1.0, 0.0, 0.0, 1.0, -3.75, 4.5)" width="12.4" xlink:href="#shape0"/>
  </g>
  <defs>
    <g id="shape0" transform="matrix(1.0, 0.0, 0.0, 1.0, 3.75, -4.5)">
      <path d="M-2.4 8.6 Q-1.5 7.8 0.3 7.4 L4.3 7.3 7.2 8.05 6.85 8.65 6.8 8.65 6.4 8.9 6.1 9.15 5.85 9.35 5.75 9.3 4.9 9.75 1.75 10.35 1.1 10.2 -0.3 10.0 -1.2 9.65 -1.6 9.55 -1.75 9.45 -2.4 8.6" fill="#ffffff" fill-rule="evenodd" stroke="none"/>
      <path d="M7.2 8.05 L4.3 7.3 0.3 7.4 Q-1.5 7.8 -2.4 8.6 -2.85 7.95 -2.9 7.35 L-1.3 6.2 Q-0.1 5.35 2.25 5.35 4.7 5.35 6.3 6.05 7.6 6.6 7.6 7.15 L7.2 8.05" fill="#c4c4c4" fill-rule="evenodd" stroke="none"/>
      <path d="M2.4 5.5 Q3.7 5.45 4.35 5.95 4.95 6.4 5.05 7.2 L5.1 7.6 4.9 8.45 4.15 9.25 Q3.5 9.7 1.85 9.7 0.15 9.7 -0.75 8.65 L-1.1 7.8 Q-1.25 7.1 -0.75 6.4 L-0.2 6.1 0.65 5.75 2.4 5.5" fill="#002843" fill-rule="evenodd" stroke="none"/>
      <path d="M3.35 9.05 L1.9 9.25 1.2 9.05 Q-0.4 8.5 0.1 7.2 L0.35 6.85 0.3 7.5 Q0.2 8.2 1.3 8.55 2.35 8.8 3.05 8.55 3.75 8.2 4.0 7.4 L3.95 7.45 3.85 6.8 Q4.4 7.7 4.15 8.25 L3.35 9.05" fill="#00051c" fill-opacity="0.8117647" fill-rule="evenodd" stroke="none"/>
      <path d="M1.95 9.6 Q0.9 9.6 0.1 9.05 -0.65 8.5 -0.65 7.75 -0.65 7.0 0.1 6.5 0.9 5.9 1.95 5.9 3.0 5.9 3.8 6.5 4.55 7.0 4.55 7.75 4.55 8.5 3.8 9.05 3.0 9.6 1.95 9.6" fill="url(#gradient0)" fill-rule="evenodd" stroke="none"/>
      <path d="M2.4 5.5 Q3.7 5.45 4.35 5.95 4.95 6.4 5.05 7.2 L5.05 7.3 2.05 7.2 Q0.15 7.2 -1.1 7.8 -1.25 7.1 -0.75 6.4 L-0.2 6.1 0.65 5.75 2.4 5.5" fill="#000000" fill-opacity="0.29803923" fill-rule="evenodd" stroke="none"/>
      <path d="M3.75 5.85 L2.0 5.75 Q1.15 5.75 -0.3 6.25 L-1.4 6.75 -3.5 7.9 -2.9 7.2 -2.2 6.35 Q-1.65 5.85 -0.55 5.4 0.55 5.0 1.65 4.95 L4.25 5.05 Q5.75 5.2 6.9 6.0 L8.6 7.2 8.05 7.85 6.85 8.65 Q6.15 9.15 6.6 8.55 L7.1 7.6 Q7.2 7.15 6.0 6.5 L5.65 6.35 5.3 6.2 3.75 5.85 M0.9 10.3 L0.0 10.1 Q-1.15 9.9 -1.7 9.5 L3.1 10.05 2.5 10.0 5.0 9.55 6.05 9.15 6.1 9.2 5.95 9.35 5.9 9.4 3.95 10.25 2.55 10.4 0.9 10.3" fill="#311200" fill-rule="evenodd" stroke="none"/>
      <path d="M-3.65 6.8 Q-2.7 5.9 -1.1 5.25 L-0.2 4.9 6.35 5.25 8.55 6.55" fill="none" stroke="#2e1200" stroke-linecap="round" stroke-linejoin="round" stroke-width="0.2"/>
      <path d="M4.3 8.0 L4.15 7.8 Q4.15 7.6 4.65 7.65 5.15 7.7 5.15 7.9 L4.8 8.15 4.3 8.0 M4.35 8.55 L4.35 8.35 4.55 8.35 4.9 8.55 4.6 8.65 4.35 8.55 M2.0 8.4 L1.8 8.7 1.3 8.85 Q0.95 8.85 0.95 8.65 0.95 8.15 1.55 8.15 2.0 8.15 2.0 8.4 M0.25 8.3 L-0.7 8.5 -1.35 8.05 Q-1.35 7.35 -0.45 7.3 0.5 7.2 0.55 7.6 L0.25 8.3" fill="#ffffff" fill-rule="evenodd" stroke="none"/>
    </g>
    <radialGradient cx="0" cy="0" gradientTransform="matrix(-0.0041, 0.0, 0.0, 0.0029, 1.95, 7.75)" gradientUnits="userSpaceOnUse" id="gradient0" r="819.2" spreadMethod="pad">
      <stop offset="0.0" stop-color="#ffffff" stop-opacity="0.32941177"/>
      <stop offset="0.7372549019607844" stop-color="#ffffff" stop-opacity="0.0"/>
    </radialGradient>
  </defs>
</svg>
