<svg xmlns="http://www.w3.org/2000/svg" xmlns:ffdec="https://www.free-decompiler.com/flash" xmlns:xlink="http://www.w3.org/1999/xlink" ffdec:objectType="frame" width="12.45" height="8.3"><use ffdec:characterId="11" xlink:href="#a" width="12.4" height="8.3"/><defs><radialGradient id="b" cx="0" cy="0" r="819.2" gradientTransform="matrix(-.0041 0 0 .0041 1.95 6.65)" gradientUnits="userSpaceOnUse" spreadMethod="pad"><stop offset="0" stop-color="#fff" stop-opacity=".325"/><stop offset=".737" stop-color="#fff" stop-opacity="0"/></radialGradient><g id="a"><path fill="#fff" fill-rule="evenodd" d="m10.95 5-.35.85h-.05l-.4.3-.3.4-.25.25-.1-.05-.85.6q-1 .6-3.15.85L4.85 8l-1.4-.25-.9-.5q-.25-.15-.4-.15L2 6.95l-.65-1.2q.9-1.15 2.7-1.7l4-.15q1.5.35 2.9 1.1"/><path fill="#c4c4c4" fill-rule="evenodd" d="M1.35 5.75Q.9 4.85.85 4l1.6-1.65q1.2-1.2 3.55-1.2 2.45 0 4.05 1 1.3.8 1.3 1.55l-.4 1.3q-1.4-.75-2.9-1.1l-4 .15q-1.8.55-2.7 1.7"/><path fill="#002843" fill-rule="evenodd" d="M6.15 1.35Q7.45 1.3 8.1 2q.6.65.7 1.75l.05.6-.2 1.15-.75 1.15q-.65.65-2.3.65-1.7 0-2.6-1.5l-.35-1.15q-.15-1 .35-2l.55-.45.85-.5q.5-.3 1.75-.35"/><path fill="#00051c" fill-opacity=".812" fill-rule="evenodd" d="m4.1 3.25-.05.95q-.1 1 1 1.45 1.05.4 1.75 0 .7-.45.95-1.6l-.05.1-.1-.95q.55 1.3.3 2.05L7.1 6.4l-1.45.25-.7-.25q-1.6-.8-1.1-2.65z"/><path fill="url(#b)" fill-rule="evenodd" d="M1.95 9.25Q.9 9.25.1 8.5q-.75-.8-.75-1.85t.75-1.8q.8-.8 1.85-.8t1.85.8q.75.75.75 1.8T3.8 8.5q-.8.75-1.85.75" transform="translate(3.75 -2.1)"/><path fill-opacity=".298" fill-rule="evenodd" d="M6.15 1.35Q7.45 1.3 8.1 2q.6.65.7 1.75v.15l-3-.1q-1.9 0-3.15.85-.15-1 .35-2l.55-.45.85-.5q.5-.3 1.75-.35"/><path fill="#311200" fill-rule="evenodd" d="m9.4 2.6-.35-.25-1.55-.5-1.75-.15q-.85.05-2.3.7l-1.1.7-2.1 1.65.6-1 .7-1.15q.55-.75 1.65-1.35T5.4.6L8 .75q1.5.2 2.65 1.35l1.7 1.7q0 .4-.55.9l-1.2 1.15q-.7.65-.25-.15l.5-1.4q.1-.6-1.1-1.5zM6.3 8.3l-1.65-.15-.9-.25Q2.6 7.55 2.05 7q1.4.8 4.8.8l-.6-.05 2.5-.65 1.05-.6.05.1-.15.2-.05.1L7.7 8.05z"/><path fill="none" stroke="#2e1200" stroke-linecap="round" stroke-linejoin="round" stroke-width=".2" d="M.1 3.2Q1.05 1.95 2.65 1l.9-.45Q6.7-.5 10.1 1q.75.35 2.2 1.85"/><path fill="#fff" fill-rule="evenodd" d="m8.35 5.8-.25-.1v-.3h.2l.35.25zm.05-1.4q.5.1.5.35l-.35.35-.5-.2-.15-.25q0-.35.5-.25M4 5.35l-.95.25q-.65-.1-.65-.65 0-.95.9-1.05.95-.15 1 .45zm1.75.1-.2.45q-.2.2-.5.2-.35 0-.35-.3 0-.7.6-.7.45 0 .45.35"/></g></defs></svg>