<?xml version="1.0" encoding="UTF-8" standalone="no"?>
<svg xmlns:ffdec="https://www.free-decompiler.com/flash" xmlns:xlink="http://www.w3.org/1999/xlink" ffdec:objectType="frame" height="8.95px" width="17.9px" xmlns="http://www.w3.org/2000/svg">
  <g transform="matrix(1.0, 0.0, 0.0, 1.0, 2.45, -2.45)">
    <use ffdec:characterId="6" height="2.7" transform="matrix(1.0, 0.0, 0.0, 1.0, -2.15, 8.7)" width="14.9" xlink:href="#shape0"/>
  </g>
  <defs>
    <g id="shape0" transform="matrix(1.0, 0.0, 0.0, 1.0, 2.15, -8.7)">
      <path d="M12.75 10.0 L11.45 9.8 9.15 10.1 9.9 10.2 Q10.75 10.5 11.3 11.2 L8.9 11.0 7.45 11.2 4.1 11.4 Q0.25 11.4 -2.15 9.6 0.3 10.5 3.25 10.7 6.15 10.8 7.25 10.2 L9.65 8.7 9.75 8.7 Q11.7 9.15 12.75 10.0" fill="url(#gradient0)" fill-rule="evenodd" stroke="none"/>
    </g>
    <linearGradient gradientTransform="matrix(0.0091, 0.0, 0.0, 0.0017, 5.3, 10.0)" gradientUnits="userSpaceOnUse" id="gradient0" spreadMethod="pad" x1="-819.2" x2="819.2">
      <stop offset="0.0" stop-color="#660f0f"/>
      <stop offset="0.0" stop-color="#541010"/>
      <stop offset="1.0" stop-color="#000000"/>
    </linearGradient>
  </defs>
</svg>
