<svg xmlns="http://www.w3.org/2000/svg" xmlns:ffdec="https://www.free-decompiler.com/flash" xmlns:xlink="http://www.w3.org/1999/xlink" ffdec:objectType="frame" width="17.9" height="8.95"><g transform="translate(2.45 -2.45)"><use ffdec:characterId="1" xlink:href="#a" width="11.55" height="6.75" transform="translate(-1.5 3.9)"/><use ffdec:characterId="3" xlink:href="#b" width="8.35" height="7.5" transform="translate(-.2 3.35)"/><use ffdec:characterId="8" xlink:href="#c" width="17.9" height="8.55" transform="translate(-2.45 2.45)"/></g><defs><linearGradient id="e" x1="-819.2" x2="819.2" gradientTransform="matrix(0 -.0041 .0046 0 4.2 3.95)" gradientUnits="userSpaceOnUse" spreadMethod="pad"><stop offset=".282" stop-color="#a51010"/><stop offset="1" stop-color="#0c0101"/></linearGradient><linearGradient id="g" x1="-819.2" x2="819.2" gradientTransform="matrix(.0109 0 0 .0033 6.5 5.2)" gradientUnits="userSpaceOnUse" spreadMethod="pad"><stop offset="0" stop-color="#660f0f"/><stop offset="0" stop-color="#541010"/><stop offset="1"/></linearGradient><linearGradient id="h" x1="-819.2" x2="819.2" gradientTransform="matrix(.0053 0 0 .0008 4.25 10.3)" gradientUnits="userSpaceOnUse" spreadMethod="pad"><stop offset="0" stop-color="#660f0f"/><stop offset="0" stop-color="#541010"/><stop offset="1"/></linearGradient><path id="a" fill="#fff" fill-rule="evenodd" d="M8.4 7.9 6.85 9.65H6.8l-1.4.75-2.35.25-3.15-.55Q-1.25 8-1.5 5.9l.6-.5q2.45-1 10.1-1.5l.45.4.4.75Q9.4 6.7 8.4 7.9" transform="translate(1.5 -3.9)"/><path id="d" fill="url(#e)" fill-rule="evenodd" d="m8 2.75-.2.85-.9 2.05-.25.45L5.5 7.35 1.25 7.2.6 5.85.15 4Q-.05 2.85 0 1.5 4.2.25 8.35 0z"/><radialGradient id="f" cx="0" cy="0" r="819.2" gradientTransform="translate(3.5 9.4)scale(.0048)" gradientUnits="userSpaceOnUse" spreadMethod="pad"><stop offset="0" stop-color="#e5e5e5"/><stop offset="1" stop-color="#666"/></radialGradient><use ffdec:characterId="2" xlink:href="#d" id="b" width="8.35" height="7.5"/><g id="c" fill-rule="evenodd"><path d="M5.65 1.95q.55 0 .9.6.45.6.45 1.4 0 .85-.45 1.45l-.05.1q-.35.5-.85.5-.4 0-.75-.4l-.2-.2q-.4-.6-.4-1.45 0-.8.4-1.4.45-.6.95-.6"/><path fill="url(#f)" d="M1.8 9.15q.4-.75.9-1.15.9-.6 1.85.15l.75.9q1.6-.55 2.3-2.1L6.7 9l-.25.45L5.3 10.7l-4.25-.15L.4 9.2l-.45-1.85q.85 1.4 1.85 1.8" transform="translate(2.45 -2.45)"/><path d="M2.85 6.75q-1-2.7-.7-4.1l.5-.1q-.35 1.5.2 4.2m7.9-5.65q-.3 4.3-1.9 5.95 1.7-3.25 1.3-5.85z"/><path fill="#fff" d="m9.3 5.05-.95-.15q-.4-.1-.4-.3l.4-.35.95-.1.95.1.4.35-.4.3z"/><path fill="url(#g)" d="m12.65 4.15-1.3-.45 2.4 1.65q-.85-.05-2.25-.75l-.3-.15Q9.9 6.55 8.4 7.9q1-1.2 1.65-2.85l-.4-.75-.45-.4Q1.55 4.4-.9 5.4l-.6.5-.2.25-.2.4q-.2-.55 0-.95l.25-.3-.8.2.15-.2.75-.4L.9 4.2l5.25-1.25 4.25-.4 1.75.1-.5.3q1.25.9 3.8 1.5z" transform="translate(2.45 -2.45)"/><path fill="#3a0b0b" d="M7.1 0 2.7 1.15l-1.65.6Q2.75.6 5.1.25z"/><path fill="url(#h)" d="m6.5 10.35.45.05q.5.15.8.5l-1.4-.1-.85.1-1.95.1Q1.3 11-.1 10.1l3.15.55 2.35-.25 1.4-.75h.05Q8 9.9 8.6 10.3l-.75-.1z" transform="translate(2.45 -2.45)"/><path fill-opacity=".498" d="m10.45 1.5 1.2-.05.45.4.4.75-.35.8-1.85-.1H6.95l-2.6.2-.4.05-1.7.25-1.2.2-.5.1.2-.4.2-.25.6-.5.7-.25 2.95-.6.75-.1z"/></g></defs></svg>