<?xml version="1.0" encoding="UTF-8" standalone="no"?>
<svg xmlns:ffdec="https://www.free-decompiler.com/flash" xmlns:xlink="http://www.w3.org/1999/xlink" ffdec:objectType="frame" height="8.95px" width="17.9px" xmlns="http://www.w3.org/2000/svg">
  <g transform="matrix(1.0, 0.0, 0.0, 1.0, 2.45, -2.45)">
    <use ffdec:characterId="1" height="6.75" transform="matrix(1.0, 0.0, 0.0, 1.0, -1.5, 3.9)" width="11.55" xlink:href="#shape0"/>
    <use ffdec:characterId="3" height="7.5" id="Color" transform="matrix(1.0, 0.0, 0.0, 1.0, -0.2, 3.35)" width="8.35" xlink:href="#sprite0"/>
    <use ffdec:characterId="8" height="8.55" transform="matrix(1.0, 0.0, 0.0, 1.0, -2.45, 2.45)" width="17.9" xlink:href="#shape2"/>
  </g>
  <defs>
    <g id="shape0" transform="matrix(1.0, 0.0, 0.0, 1.0, 1.5, -3.9)">
      <path d="M8.4 7.9 L6.85 9.65 6.8 9.65 5.4 10.4 3.05 10.65 -0.1 10.1 Q-1.25 8.0 -1.5 5.9 L-0.9 5.4 Q1.55 4.4 9.2 3.9 L9.65 4.3 10.05 5.05 Q9.4 6.7 8.4 7.9" fill="#ffffff" fill-rule="evenodd" stroke="none"/>
    </g>
    <g id="sprite0" transform="matrix(1.0, 0.0, 0.0, 1.0, 0.0, 0.0)">
      <use ffdec:characterId="2" height="7.5" transform="matrix(1.0, 0.0, 0.0, 1.0, 0.0, 0.0)" width="8.35" xlink:href="#shape1"/>
    </g>
    <g id="shape1" transform="matrix(1.0, 0.0, 0.0, 1.0, 0.0, 0.0)">
      <path d="M8.0 2.75 L7.8 3.6 6.9 5.65 6.65 6.1 5.5 7.35 1.25 7.2 0.6 5.85 0.15 4.0 Q-0.05 2.85 0.0 1.5 4.2 0.25 8.35 0.0 L8.0 2.75" fill="url(#gradient0)" fill-rule="evenodd" stroke="none"/>
    </g>
    <linearGradient gradientTransform="matrix(0.0, -0.0041, 0.0046, 0.0, 4.2, 3.95)" gradientUnits="userSpaceOnUse" id="gradient0" spreadMethod="pad" x1="-819.2" x2="819.2">
      <stop offset="0.2823529411764706" stop-color="#a51010"/>
      <stop offset="1.0" stop-color="#0c0101"/>
    </linearGradient>
    <g id="shape2" transform="matrix(1.0, 0.0, 0.0, 1.0, 2.45, -2.45)">
      <path d="M3.2 4.4 Q3.75 4.4 4.1 5.0 4.55 5.6 4.55 6.4 4.55 7.25 4.1 7.85 L4.05 7.95 Q3.7 8.45 3.2 8.45 2.8 8.45 2.45 8.05 L2.25 7.85 Q1.85 7.25 1.85 6.4 1.85 5.6 2.25 5.0 2.7 4.4 3.2 4.4" fill="#000000" fill-rule="evenodd" stroke="none"/>
      <path d="M1.8 9.15 Q2.2 8.4 2.7 8.0 3.6 7.4 4.55 8.15 L5.3 9.05 Q6.9 8.5 7.6 6.95 L6.7 9.0 6.45 9.45 5.3 10.7 1.05 10.55 0.4 9.2 -0.05 7.35 Q0.8 8.75 1.8 9.15" fill="url(#gradient1)" fill-rule="evenodd" stroke="none"/>
      <path d="M0.4 9.2 Q-0.6 6.5 -0.3 5.1 L0.2 5.0 Q-0.15 6.5 0.4 9.2 M8.3 3.55 Q8.0 7.85 6.4 9.5 8.1 6.25 7.7 3.65 L8.3 3.55" fill="#000000" fill-rule="evenodd" stroke="none"/>
      <path d="M6.85 7.5 L5.9 7.35 Q5.5 7.25 5.5 7.05 L5.9 6.7 6.85 6.6 7.8 6.7 8.2 7.05 7.8 7.35 6.85 7.5" fill="#ffffff" fill-rule="evenodd" stroke="none"/>
      <path d="M12.65 4.15 L11.35 3.7 13.75 5.35 Q12.9 5.3 11.5 4.6 L11.2 4.45 Q9.9 6.55 8.4 7.9 9.4 6.7 10.05 5.05 L9.65 4.3 9.2 3.9 Q1.55 4.4 -0.9 5.4 L-1.5 5.9 -1.7 6.15 -1.9 6.55 Q-2.1 6.0 -1.9 5.6 L-1.65 5.3 -2.45 5.5 -2.3 5.3 -1.55 4.9 0.9 4.2 6.15 2.95 10.4 2.55 12.15 2.65 11.65 2.95 Q12.9 3.85 15.45 4.45 L12.65 4.15" fill="url(#gradient2)" fill-rule="evenodd" stroke="none"/>
      <path d="M4.65 2.45 L0.25 3.6 -1.4 4.2 Q0.3 3.05 2.65 2.7 L4.65 2.45" fill="#3a0b0b" fill-rule="evenodd" stroke="none"/>
      <path d="M6.5 10.35 L6.95 10.4 Q7.45 10.55 7.75 10.9 L6.35 10.8 5.5 10.9 3.55 11.0 Q1.3 11.0 -0.1 10.1 L3.05 10.65 5.4 10.4 6.8 9.65 6.85 9.65 Q8.0 9.9 8.6 10.3 L7.85 10.2 6.5 10.35" fill="url(#gradient3)" fill-rule="evenodd" stroke="none"/>
      <path d="M8.0 3.95 L9.2 3.9 9.65 4.3 10.05 5.05 9.7 5.85 7.85 5.75 4.5 5.75 1.9 5.95 1.5 6.0 -0.2 6.25 -1.4 6.45 -1.9 6.55 -1.7 6.15 -1.5 5.9 -0.9 5.4 -0.2 5.15 2.75 4.55 3.5 4.45 8.0 3.95" fill="#000000" fill-opacity="0.49803922" fill-rule="evenodd" stroke="none"/>
    </g>
    <radialGradient cx="0" cy="0" gradientTransform="matrix(0.0048, 0.0, 0.0, 0.0048, 3.5, 9.4)" gradientUnits="userSpaceOnUse" id="gradient1" r="819.2" spreadMethod="pad">
      <stop offset="0.0" stop-color="#e5e5e5"/>
      <stop offset="1.0" stop-color="#666666"/>
    </radialGradient>
    <linearGradient gradientTransform="matrix(0.0109, 0.0, 0.0, 0.0033, 6.5, 5.2)" gradientUnits="userSpaceOnUse" id="gradient2" spreadMethod="pad" x1="-819.2" x2="819.2">
      <stop offset="0.0" stop-color="#660f0f"/>
      <stop offset="0.0" stop-color="#541010"/>
      <stop offset="1.0" stop-color="#000000"/>
    </linearGradient>
    <linearGradient gradientTransform="matrix(0.0053, 0.0, 0.0, 8.0E-4, 4.25, 10.3)" gradientUnits="userSpaceOnUse" id="gradient3" spreadMethod="pad" x1="-819.2" x2="819.2">
      <stop offset="0.0" stop-color="#660f0f"/>
      <stop offset="0.0" stop-color="#541010"/>
      <stop offset="1.0" stop-color="#000000"/>
    </linearGradient>
  </defs>
</svg>
