<?xml version="1.0" encoding="UTF-8" standalone="no"?>
<svg xmlns:ffdec="https://www.free-decompiler.com/flash" xmlns:xlink="http://www.w3.org/1999/xlink" ffdec:objectType="frame" height="8.95px" width="17.9px" xmlns="http://www.w3.org/2000/svg">
  <g transform="matrix(1.0, 0.0, 0.0, 1.0, 2.55, -2.55)">
    <use ffdec:characterId="10" height="6.75" transform="matrix(1.0, 0.0, 0.0, 0.6444, 2.85, 6.5778)" width="11.55" xlink:href="#shape0"/>
    <use ffdec:characterId="3" height="7.5" id="Color" transform="matrix(-1.0, 0.0, 0.0, 0.6446, 13.1, 6.1)" width="8.35" xlink:href="#sprite0"/>
    <use ffdec:characterId="12" height="5.5" transform="matrix(1.0, 0.0, 0.0, 1.0, -2.55, 5.65)" width="17.9" xlink:href="#shape2"/>
  </g>
  <defs>
    <g id="shape0" transform="matrix(1.0, 0.0, 0.0, 1.0, -2.85, -4.0)">
      <path d="M13.8 5.5 L14.4 6.0 Q14.15 8.1 13.0 10.2 L9.85 10.75 7.5 10.5 6.1 9.75 6.05 9.75 4.5 8.0 Q3.5 6.8 2.85 5.15 L3.25 4.4 3.7 4.0 Q11.35 4.5 13.8 5.5" fill="#ffffff" fill-rule="evenodd" stroke="none"/>
    </g>
    <g id="sprite0" transform="matrix(1.0, 0.0, 0.0, 1.0, 0.0, 0.0)">
      <use ffdec:characterId="2" height="7.5" transform="matrix(1.0, 0.0, 0.0, 1.0, 0.0, 0.0)" width="8.35" xlink:href="#shape1"/>
    </g>
    <g id="shape1" transform="matrix(1.0, 0.0, 0.0, 1.0, 0.0, 0.0)">
      <path d="M8.0 2.75 L7.8 3.6 6.9 5.65 6.65 6.1 5.5 7.35 1.25 7.2 0.6 5.85 0.15 4.0 Q-0.05 2.85 0.0 1.5 4.2 0.25 8.35 0.0 L8.0 2.75" fill="url(#gradient0)" fill-rule="evenodd" stroke="none"/>
    </g>
    <linearGradient gradientTransform="matrix(0.0, -0.0041, 0.0046, 0.0, 4.2, 3.95)" gradientUnits="userSpaceOnUse" id="gradient0" spreadMethod="pad" x1="-819.2" x2="819.2">
      <stop offset="0.2823529411764706" stop-color="#a51010"/>
      <stop offset="1.0" stop-color="#0c0101"/>
    </linearGradient>
    <g id="shape2" transform="matrix(1.0, 0.0, 0.0, 1.0, 2.55, -5.65)">
      <path d="M10.65 9.1 L10.45 9.25 9.7 9.5 8.85 9.2 8.8 9.1 Q8.35 8.75 8.35 8.2 8.35 7.65 8.8 7.3 9.15 6.9 9.7 6.9 10.2 6.9 10.65 7.3 11.05 7.65 11.05 8.2 11.05 8.75 10.65 9.1" fill="#000000" fill-rule="evenodd" stroke="none"/>
      <path d="M11.1 9.95 Q12.1 9.7 12.95 8.8 L12.5 10.0 11.85 10.85 7.6 10.95 6.45 10.15 6.2 9.85 5.3 8.55 Q6.0 9.55 7.6 9.9 7.9 9.6 8.35 9.3 L10.2 9.2 Q10.7 9.5 11.1 9.95" fill="url(#gradient1)" fill-rule="evenodd" stroke="none"/>
      <path d="M4.6 6.35 L5.2 6.4 Q4.8 8.1 6.5 10.2 4.9 9.1 4.6 6.35 M12.5 10.0 Q13.05 8.25 12.7 7.3 L13.2 7.35 Q13.5 8.25 12.5 10.0" fill="#000000" fill-rule="evenodd" stroke="none"/>
      <path d="M7.0 8.8 L6.05 8.9 5.1 8.8 4.7 8.6 5.1 8.4 6.05 8.3 7.0 8.4 7.4 8.6 7.0 8.8" fill="#ffffff" fill-rule="evenodd" stroke="none"/>
      <path d="M12.65 6.4 L8.25 5.65 10.25 5.8 Q12.6 6.05 14.3 6.75 L12.65 6.4" fill="#3a0b0b" fill-rule="evenodd" stroke="none"/>
      <path d="M14.4 7.85 L13.8 7.55 3.7 6.6 3.25 6.85 2.85 7.3 Q3.5 8.4 4.5 9.15 3.0 8.3 1.7 6.95 L1.4 7.05 -0.85 7.5 1.55 6.45 0.25 6.75 -2.55 6.95 Q0.0 6.55 1.25 5.95 L0.75 5.75 2.5 5.7 6.75 5.95 12.0 6.75 14.45 7.2 15.2 7.5 15.35 7.6 14.55 7.5 14.8 7.65 Q15.0 7.95 14.8 8.3 L14.6 8.05 14.4 7.85" fill="url(#gradient2)" fill-rule="evenodd" stroke="none"/>
      <path d="M4.3 10.7 L6.05 10.3 6.1 10.3 7.5 10.75 9.85 10.95 13.0 10.55 Q11.6 11.15 9.35 11.15 L7.4 11.1 6.55 11.05 5.15 11.1 Q5.45 10.85 5.95 10.75 L6.4 10.75 5.05 10.65 4.3 10.7" fill="url(#gradient3)" fill-rule="evenodd" stroke="none"/>
      <path d="M10.95 7.85 L8.35 7.7 5.0 7.7 3.15 7.75 2.8 7.25 3.2 6.75 3.65 6.5 4.85 6.55 9.35 6.85 10.1 6.95 13.05 7.3 13.75 7.5 14.35 7.8 14.55 7.95 14.75 8.2 14.25 8.15 13.05 8.05 11.35 7.85 10.95 7.85" fill="#000000" fill-opacity="0.49803922" fill-rule="evenodd" stroke="none"/>
    </g>
    <radialGradient cx="0" cy="0" gradientTransform="matrix(-0.0048, 0.0, 0.0, 0.0031, 9.4, 10.1)" gradientUnits="userSpaceOnUse" id="gradient1" r="819.2" spreadMethod="pad">
      <stop offset="0.0" stop-color="#e5e5e5"/>
      <stop offset="1.0" stop-color="#666666"/>
    </radialGradient>
    <linearGradient gradientTransform="matrix(-0.0109, 0.0, 0.0, 0.0021, 6.4, 7.4)" gradientUnits="userSpaceOnUse" id="gradient2" spreadMethod="pad" x1="-819.2" x2="819.2">
      <stop offset="0.0" stop-color="#660f0f"/>
      <stop offset="0.0" stop-color="#541010"/>
      <stop offset="1.0" stop-color="#000000"/>
    </linearGradient>
    <linearGradient gradientTransform="matrix(-0.0053, 0.0, 0.0, 5.0E-4, 8.65, 10.7)" gradientUnits="userSpaceOnUse" id="gradient3" spreadMethod="pad" x1="-819.2" x2="819.2">
      <stop offset="0.0" stop-color="#660f0f"/>
      <stop offset="0.0" stop-color="#541010"/>
      <stop offset="1.0" stop-color="#000000"/>
    </linearGradient>
  </defs>
</svg>
