<?xml version="1.0" encoding="UTF-8" standalone="no"?>
<svg xmlns:ffdec="https://www.free-decompiler.com/flash" xmlns:xlink="http://www.w3.org/1999/xlink" ffdec:objectType="frame" height="8.95px" width="17.9px" xmlns="http://www.w3.org/2000/svg">
  <g transform="matrix(1.0, 0.0, 0.0, 1.0, 2.55, -2.55)">
    <use ffdec:characterId="10" height="6.75" transform="matrix(1.0, 0.0, 0.0, 1.0, 2.85, 4.0)" width="11.55" xlink:href="#shape0"/>
    <use ffdec:characterId="3" height="7.5" id="Color" transform="matrix(-1.0, 0.0, 0.0, 1.0, 13.1, 3.3)" width="8.35" xlink:href="#sprite0"/>
    <use ffdec:characterId="15" height="8.55" transform="matrix(1.0, 0.0, 0.0, 1.0, -2.55, 2.55)" width="17.9" xlink:href="#shape2"/>
  </g>
  <defs>
    <g id="shape0" transform="matrix(1.0, 0.0, 0.0, 1.0, -2.85, -4.0)">
      <path d="M13.8 5.5 L14.4 6.0 Q14.15 8.1 13.0 10.2 L9.85 10.75 7.5 10.5 6.1 9.75 6.05 9.75 4.5 8.0 Q3.5 6.8 2.85 5.15 L3.25 4.4 3.7 4.0 Q11.35 4.5 13.8 5.5" fill="#ffffff" fill-rule="evenodd" stroke="none"/>
    </g>
    <g id="sprite0" transform="matrix(1.0, 0.0, 0.0, 1.0, 0.0, 0.0)">
      <use ffdec:characterId="2" height="7.5" transform="matrix(1.0, 0.0, 0.0, 1.0, 0.0, 0.0)" width="8.35" xlink:href="#shape1"/>
    </g>
    <g id="shape1" transform="matrix(1.0, 0.0, 0.0, 1.0, 0.0, 0.0)">
      <path d="M8.0 2.75 L7.8 3.6 6.9 5.65 6.65 6.1 5.5 7.35 1.25 7.2 0.6 5.85 0.15 4.0 Q-0.05 2.85 0.0 1.5 4.2 0.25 8.35 0.0 L8.0 2.75" fill="url(#gradient0)" fill-rule="evenodd" stroke="none"/>
    </g>
    <linearGradient gradientTransform="matrix(0.0, -0.0041, 0.0046, 0.0, 4.2, 3.95)" gradientUnits="userSpaceOnUse" id="gradient0" spreadMethod="pad" x1="-819.2" x2="819.2">
      <stop offset="0.2823529411764706" stop-color="#a51010"/>
      <stop offset="1.0" stop-color="#0c0101"/>
    </linearGradient>
    <g id="shape2" transform="matrix(1.0, 0.0, 0.0, 1.0, 2.55, -2.55)">
      <path d="M10.65 7.95 L10.45 8.15 Q10.1 8.55 9.7 8.55 L8.85 8.05 8.8 7.95 Q8.35 7.35 8.35 6.5 8.35 5.7 8.8 5.1 9.15 4.5 9.7 4.5 L10.65 5.1 Q11.05 5.7 11.05 6.5 11.05 7.35 10.65 7.95" fill="#000000" fill-rule="evenodd" stroke="none"/>
      <path d="M11.1 9.25 Q12.1 8.85 12.95 7.45 L12.5 9.3 11.85 10.65 7.6 10.8 6.45 9.55 6.2 9.1 5.3 7.05 Q6.0 8.6 7.6 9.15 L8.35 8.25 Q9.3 7.5 10.2 8.1 L11.1 9.25" fill="url(#gradient1)" fill-rule="evenodd" stroke="none"/>
      <path d="M4.6 3.65 L5.2 3.75 Q4.8 6.35 6.5 9.6 4.9 7.95 4.6 3.65 M12.5 9.3 Q13.05 6.6 12.7 5.1 L13.2 5.2 Q13.5 6.6 12.5 9.3" fill="#000000" fill-rule="evenodd" stroke="none"/>
      <path d="M7.0 7.45 L6.05 7.6 5.1 7.45 4.7 7.15 5.1 6.8 6.05 6.7 7.0 6.8 7.4 7.15 Q7.4 7.35 7.0 7.45" fill="#ffffff" fill-rule="evenodd" stroke="none"/>
      <path d="M15.2 5.4 L15.35 5.6 14.55 5.4 14.8 5.7 Q15.0 6.1 14.8 6.65 L14.6 6.25 14.4 6.0 13.8 5.5 Q11.35 4.5 3.7 4.0 L3.25 4.4 2.85 5.15 Q3.5 6.8 4.5 8.0 3.0 6.65 1.7 4.55 L1.4 4.7 -0.85 5.45 1.55 3.8 0.25 4.25 -2.55 4.55 Q0.0 3.95 1.25 3.05 L0.75 2.75 2.5 2.65 6.75 3.05 12.0 4.3 14.45 5.0 Q14.9 5.15 15.2 5.4" fill="url(#gradient2)" fill-rule="evenodd" stroke="none"/>
      <path d="M12.65 3.7 L8.25 2.55 10.25 2.8 Q12.6 3.15 14.3 4.3 L12.65 3.7" fill="#3a0b0b" fill-rule="evenodd" stroke="none"/>
      <path d="M4.3 10.4 Q4.9 10.0 6.05 9.75 L6.1 9.75 7.5 10.5 9.85 10.75 13.0 10.2 Q11.6 11.1 9.35 11.1 L7.4 11.0 6.55 10.9 5.15 11.0 Q5.45 10.65 5.95 10.5 L6.4 10.45 5.05 10.3 4.3 10.4" fill="url(#gradient3)" fill-rule="evenodd" stroke="none"/>
      <path d="M10.95 5.95 L8.35 5.75 5.0 5.75 3.15 5.85 2.8 5.05 3.2 4.3 3.65 3.9 4.85 3.95 9.35 4.45 10.1 4.55 13.05 5.15 13.75 5.4 14.35 5.9 14.55 6.15 14.75 6.55 14.25 6.45 13.05 6.25 11.35 6.0 10.95 5.95" fill="#000000" fill-opacity="0.49803922" fill-rule="evenodd" stroke="none"/>
    </g>
    <radialGradient cx="0" cy="0" gradientTransform="matrix(-0.0048, 0.0, 0.0, 0.0048, 9.4, 9.5)" gradientUnits="userSpaceOnUse" id="gradient1" r="819.2" spreadMethod="pad">
      <stop offset="0.0" stop-color="#e5e5e5"/>
      <stop offset="1.0" stop-color="#666666"/>
    </radialGradient>
    <linearGradient gradientTransform="matrix(-0.0109, 0.0, 0.0, 0.0033, 6.4, 5.3)" gradientUnits="userSpaceOnUse" id="gradient2" spreadMethod="pad" x1="-819.2" x2="819.2">
      <stop offset="0.0" stop-color="#660f0f"/>
      <stop offset="0.0" stop-color="#541010"/>
      <stop offset="1.0" stop-color="#000000"/>
    </linearGradient>
    <linearGradient gradientTransform="matrix(-0.0053, 0.0, 0.0, 8.0E-4, 8.65, 10.4)" gradientUnits="userSpaceOnUse" id="gradient3" spreadMethod="pad" x1="-819.2" x2="819.2">
      <stop offset="0.0" stop-color="#660f0f"/>
      <stop offset="0.0" stop-color="#541010"/>
      <stop offset="1.0" stop-color="#000000"/>
    </linearGradient>
  </defs>
</svg>
