<svg xmlns="http://www.w3.org/2000/svg" xmlns:ffdec="https://www.free-decompiler.com/flash" xmlns:xlink="http://www.w3.org/1999/xlink" ffdec:objectType="frame" width="14.3" height="12.2"><g transform="translate(3.1 .55)"><use ffdec:characterId="10" xlink:href="#a" width="10.8" height="9.25" transform="translate(-2.25 2.1)"/><use ffdec:characterId="11" xlink:href="#b" width="8.1" height="9.85" transform="translate(-.8 1.5)"/><use ffdec:characterId="12" xlink:href="#c" width="13.6" height="12.2" transform="translate(-2.4 -.55)"/></g><defs><g id="a" fill-rule="evenodd"><path fill="#fff" d="m10.75 3.3-.05 1.95q-.25 1.25-1.15 2.6-.9 1.3-3.1 1.4h-.1l-3.1-.2q-.85-.3-1.65-.8Q.8 7.8.3 5.9l-.1-.45q-.4-1.65.1-3Q.8.9 1.75.55l.9.05-.6 2.25.3 2.45.05.15Q3.25 7.5 5.6 7.5l.85-.05q1.45-.3 2.05-1.6L8.8 4q0-1.3-.3-1.8v-.55l.35-.1q.3 0 1 .55.75.55.9 1.2"/><path fill="#c26a00" d="m1.95.4.2-.3.35-.1-.75 1.3z"/></g><g id="c" fill-rule="evenodd"><path fill="url(#e)" d="M2.8 11.35q-1.95-.1-3.35-1.25-1.3-1.15-1.25-2.7.05-1.5 1.45-2.5T3 4.05q1.95.1 3.35 1.15 1.35 1.1 1.3 2.65-.05 1.5-1.5 2.5-1.4 1.1-3.35 1" transform="translate(2.4 .55)"/><path fill="url(#f)" d="M.4 6.65q0-1.35.8-2.3.85-1 2-1 1.2 0 2 1 .85.95.85 2.3 0 1.4-.85 2.35-.8.95-2 .95-1.15 0-2-.95-.8-.95-.8-2.35" transform="translate(2.4 .55)"/><path fill-opacity=".086" d="M6.55 6.3Q7 6.7 7 7.35l-.4.95q-.3.4-.85.4-.6 0-.9-.4-.35-.4-.4-1t.25-1q.35-.4.9-.4t.95.4"/><path fill-opacity=".212" d="M5.6 2.35q4.4.9 5.4 4.25l-.25 2.05Q5.2 4.55.2 7.15l.05-1.7q1.3-4.1 5-3.4z"/><path fill="#513624" d="m12.65 6.5-.7.2-.05.1q.3.35 1.45.5l-.9.4-.7-.05-.2-.1q-.9 1.8-1.15 1.8l.1-.45.2-1.35v-.4l-.35-.75v-.05l-.5-.75q-2.3-2.65-5.7-2.65-1.35 0-2.7 1.5L.1 5.95l.05-.55.6-1.4-.6.55L0 4.6l.1-.8q.05-.7.65-1.2.55-.5 1.2-.85.65-.4 1.55-.4l3.25.6 1.8.85-.15-.05 1.35.9.3.05h.05l.35.05.55-.05.85-.05q-.65.7-1.25.85l.05.05.35.15 1.35.25 1-.1-.8.4-1 .25.15.15.1.1 1.15.15h.15l.5-.15-.55.5-.3.2zm-9.3 5.45L2 11.3h.05l-.1-.05-.4-.25 2 .5.6.15 1.1.1h1.2l1.7-.2 1.65-.65-.05.1-.6.35-.9.4q-.5.15-.55.2l-.25.05-.6.1-1.25.1-1.35-.1z"/><path fill-opacity=".298" d="m3 0-.05.1.95-.1 1.3.1 1.65.65Q8 1.3 8.6 2l.1.15-1.05-.55Q6.15.85 4.55.7L3.45.65q-.95.05-1.6.4l-.9.45-.45.25 1.15-1L2.7.1z"/><path fill="#fff" d="M3.75 6.65q-.55 0-.55-.45 0-.4.5-.45.45-.05.45.5 0 .4-.4.4M7 9.05q.8-.75 1.45.1.6.8.15 1.2t-.85.35-.6-.3q-.5-.55-.35-1zm-2.95.5-.35.6-.2.2-.25.15H3l-.5-.3-.2-.55q-.1-.4.95-.55.8 0 .8.45m.4.75q0-.2.25-.2l.25.25-.25.2-.2-.05zm1.8.15-.35.05q-.3 0-.3-.35-.05-.4.35-.35t.4.35zm2.2-1.9-.1-.3q0-.35.4-.3.35.05.35.4l-.3.3z"/></g><radialGradient id="f" cx="0" cy="0" r="819.2" gradientTransform="translate(3.25 6.65)scale(.004)" gradientUnits="userSpaceOnUse" spreadMethod="pad"><stop offset=".169" stop-opacity=".357"/><stop offset=".847" stop-opacity="0"/></radialGradient><linearGradient id="e" x1="-819.2" x2="819.2" gradientTransform="matrix(.0001 -.0045 .0058 .0002 2.9 7.7)" gradientUnits="userSpaceOnUse" spreadMethod="pad"><stop offset=".09" stop-color="#fff" stop-opacity=".671"/><stop offset=".635" stop-color="#fff" stop-opacity="0"/></linearGradient><path id="d" fill="#5ca2c9" fill-rule="evenodd" d="m7.75 1.6.2.35L8.1 5v.15l-.05.4-.75 2.3q-1.2 2.05-4.15 2l-.2-.05Q-.45 8.1.1 3.25l.4-1.2.8-1.2.85-.7.8-.05L4.8.75q.5 0 1.05.5.5.5.9.5L7 1.8l.05-.1q.1-.15.35-.2z"/><use ffdec:characterId="2" xlink:href="#d" id="b" width="8.1" height="9.85"/></defs></svg>