<?xml version="1.0" encoding="UTF-8" standalone="no"?>
<svg xmlns:ffdec="https://www.free-decompiler.com/flash" xmlns:xlink="http://www.w3.org/1999/xlink" ffdec:objectType="frame" height="9.7px" width="13.95px" xmlns="http://www.w3.org/2000/svg">
  <g transform="matrix(1.0, 0.0, 0.0, 1.0, -2.25, -0.9)">
    <use ffdec:characterId="10" height="7.55" transform="matrix(1.0, 0.0, 0.0, 1.0, 3.2, 2.45)" width="11.85" xlink:href="#shape0"/>
    <use ffdec:characterId="3" height="8.25" transform="matrix(1.0, 0.0, 0.0, 1.0, 3.75, 1.85)" width="10.15" xlink:href="#sprite0"/>
    <use ffdec:characterId="11" height="9.55" transform="matrix(1.0, 0.0, 0.0, 1.0, 2.25, 0.9)" width="13.95" xlink:href="#shape2"/>
  </g>
  <defs>
    <g id="shape0" transform="matrix(1.0, 0.0, 0.0, 1.0, -3.2, -2.45)">
      <path d="M14.45 6.3 L12.2 5.55 3.35 4.95 3.2 3.25 Q3.4 3.0 3.9 2.85 L4.55 2.7 9.2 2.8 13.45 3.75 13.85 3.95 15.05 4.6 14.95 5.0 14.45 6.3" fill="#c9c9c9" fill-rule="evenodd" stroke="none"/>
      <path d="M3.35 4.95 L12.2 5.55 14.45 6.3 14.2 6.9 Q12.95 9.75 10.9 9.95 L9.7 10.0 7.8 9.95 6.2 9.8 5.15 9.2 Q4.1 7.95 3.55 6.2 L3.45 6.05 3.35 4.95" fill="#ffffff" fill-rule="evenodd" stroke="none"/>
    </g>
    <g id="sprite0" transform="matrix(1.0, 0.0, 0.0, 1.0, 5.05, 4.1)">
      <use ffdec:characterId="2" height="8.25" transform="matrix(1.0, 0.0, 0.0, 1.0, -5.05, -4.1)" width="10.15" xlink:href="#shape1"/>
    </g>
    <g id="shape1" transform="matrix(1.0, 0.0, 0.0, 1.0, 5.05, 4.1)">
      <path d="M5.1 -2.4 Q4.85 0.55 3.45 2.35 2.0 4.15 -0.1 4.15 -2.1 4.15 -3.55 2.55 -5.0 1.0 -5.05 -1.7 L-4.85 -3.6 -3.05 -4.1 -0.95 -4.1 2.25 -3.55 5.1 -2.4" fill="url(#gradient0)" fill-rule="evenodd" stroke="none"/>
      <path d="M0.4 3.4 Q-1.2 3.4 -2.15 2.7 L-3.7 1.05 -2.3 1.05 Q-0.9 2.25 0.8 2.25 3.25 2.25 4.2 -0.2 4.1 0.85 3.05 2.15 1.95 3.4 0.4 3.4" fill="#cfc0dc" fill-rule="evenodd" stroke="none"/>
    </g>
    <linearGradient gradientTransform="matrix(1.0E-4, 0.0052, 0.005, -1.0E-4, 0.05, 0.0)" gradientUnits="userSpaceOnUse" id="gradient0" spreadMethod="pad" x1="-819.2" x2="819.2">
      <stop offset="0.0" stop-color="#32104f"/>
      <stop offset="0.8392156862745098" stop-color="#784f9c"/>
    </linearGradient>
    <g id="shape2" transform="matrix(1.0, 0.0, 0.0, 1.0, -2.25, -0.9)">
      <path d="M13.4 4.5 L13.15 5.1 12.55 5.35 Q12.2 5.35 11.95 5.1 L11.7 4.5 Q11.7 4.15 11.95 3.9 12.2 3.65 12.55 3.65 L13.15 3.9 13.4 4.5 M6.7 5.8 Q7.55 6.0 7.65 6.55 7.85 7.4 6.6 7.65 L5.55 7.85 5.05 7.9 4.75 7.9 4.35 7.6 4.15 7.2 Q4.1 6.8 4.4 6.45 4.4 6.35 4.55 6.2 L5.5 5.8 6.7 5.8" fill="#ffffff" fill-rule="evenodd" stroke="none"/>
      <path d="M15.2 4.1 L16.1 5.15 15.05 4.6 Q14.35 4.2 13.5 3.9 L12.55 3.55 9.4 2.85 4.55 2.7 3.9 2.85 Q3.4 3.0 3.2 3.25 L3.45 6.05 Q2.95 5.15 2.6 3.9 L2.25 2.65 2.8 2.45 Q4.0 1.7 5.4 1.25 L7.85 1.0 10.5 1.8 Q12.45 2.45 13.6 3.0 L14.05 3.25 15.2 4.1" fill="url(#gradient1)" fill-rule="evenodd" stroke="none"/>
      <path d="M10.4 0.95 Q12.7 1.05 14.7 2.15 L16.2 3.25 Q12.5 2.05 10.4 0.95" fill="#703b1a" fill-opacity="0.49803922" fill-rule="evenodd" stroke="none"/>
      <path d="M10.9 9.95 L11.55 9.95 9.8 10.3 7.9 10.45 6.35 10.4 5.45 9.6 5.15 9.2 6.2 9.8 7.8 9.95 9.7 10.0 10.9 9.95" fill="url(#gradient2)" fill-rule="evenodd" stroke="none"/>
    </g>
    <radialGradient cx="0" cy="0" gradientTransform="matrix(-0.0087, 0.0, 0.0, 0.0087, 9.15, 3.45)" gradientUnits="userSpaceOnUse" id="gradient1" r="819.2" spreadMethod="pad">
      <stop offset="0.0" stop-color="#1a0d05"/>
      <stop offset="1.0" stop-color="#23312b"/>
    </radialGradient>
    <radialGradient cx="0" cy="0" gradientTransform="matrix(-0.0048, 0.0, 0.0, 0.0048, 8.35, 9.85)" gradientUnits="userSpaceOnUse" id="gradient2" r="819.2" spreadMethod="pad">
      <stop offset="0.0" stop-color="#1a0d05"/>
      <stop offset="1.0" stop-color="#23312b"/>
    </radialGradient>
  </defs>
</svg>
