<svg xmlns="http://www.w3.org/2000/svg" xmlns:ffdec="https://www.free-decompiler.com/flash" xmlns:xlink="http://www.w3.org/1999/xlink" ffdec:objectType="frame" width="13.95" height="9.7"><g transform="translate(-2.25 -.9)"><use ffdec:characterId="10" xlink:href="#a" width="11.85" height="7.55" transform="matrix(1 0 0 .543 3.2 6.03)"/><use ffdec:characterId="3" xlink:href="#b" width="10.15" height="8.25" transform="matrix(1 0 0 .5474 3.75 5.706)"/><use ffdec:characterId="14" xlink:href="#c" width="13.95" height="5.2" transform="translate(2.25 5.2)"/></g><defs><g id="a" fill-rule="evenodd"><path fill="#c9c9c9" d="M11.25 3.85 9 3.1.15 2.5 0 .8Q.2.55.7.4l.65-.15L6 .35l4.25.95.4.2 1.2.65-.1.4z"/><path fill="#fff" d="M.15 2.5 9 3.1l2.25.75-.25.6Q9.75 7.3 7.7 7.5l-1.2.05-1.9-.05L3 7.35l-1.05-.6Q.9 5.5.35 3.75l-.1-.15z"/></g><g id="d" fill-rule="evenodd"><path fill="url(#e)" d="M5.1-2.4Q4.85.55 3.45 2.35 2 4.15-.1 4.15q-2 0-3.45-1.6Q-5 1-5.05-1.7l.2-1.9 1.8-.5h2.1l3.2.55z" transform="translate(5.05 4.1)"/><path fill="#cfc0dc" d="M5.45 7.5q-1.6 0-2.55-.7L1.35 5.15h1.4q1.4 1.2 3.1 1.2 2.45 0 3.4-2.45-.1 1.05-1.15 2.35Q7 7.5 5.45 7.5"/></g><g id="c" fill-rule="evenodd"><path fill="#fff" d="m10.3 2.45-.6-.15-.25-.35q0-.2.25-.3l.6-.15.6.15.25.3-.25.35zM2.5 3.8l-.4-.15-.2-.2q-.05-.25.25-.4l.15-.15.95-.25h1.2q.85.15.95.45.2.45-1.05.6l-1.05.1h-.8"/><path fill="#703b1a" fill-opacity=".498" d="m8.15 0 4.3.7 1.5.6z"/><path fill="url(#f)" d="m13.6 6.35.45.15 1.15.45.9.55-1.05-.3-1.55-.35-.95-.2-3.15-.4Q6.35 5.9 4.55 6.2l-.65.05-.7.25.25 1.5-.85-1.15-.35-.7.55-.1 2.6-.65 2.45-.15 2.65.45z" transform="translate(-2.25 -5.2)"/><path fill="url(#g)" d="M10.9 10.15h.65l-1.75.2-1.9.05H6.35l-.9-.45-.3-.2 1.05.3 1.6.1h3.1" transform="translate(-2.25 -5.2)"/></g><radialGradient id="f" cx="0" cy="0" r="819.2" gradientTransform="matrix(-.0087 0 0 .0048 9.15 6.6)" gradientUnits="userSpaceOnUse" spreadMethod="pad"><stop offset="0" stop-color="#1a0d05"/><stop offset="1" stop-color="#23312b"/></radialGradient><radialGradient id="g" cx="0" cy="0" r="819.2" gradientTransform="matrix(-.0048 0 0 .0026 8.35 10.1)" gradientUnits="userSpaceOnUse" spreadMethod="pad"><stop offset="0" stop-color="#1a0d05"/><stop offset="1" stop-color="#23312b"/></radialGradient><linearGradient id="e" x1="-819.2" x2="819.2" gradientTransform="matrix(.0001 .0052 .005 -.0001 .05 0)" gradientUnits="userSpaceOnUse" spreadMethod="pad"><stop offset="0" stop-color="#32104f"/><stop offset=".839" stop-color="#784f9c"/></linearGradient><use ffdec:characterId="2" xlink:href="#d" id="b" width="10.15" height="8.25"/></defs></svg>