<?xml version="1.0" encoding="UTF-8" standalone="no"?>
<svg xmlns:ffdec="https://www.free-decompiler.com/flash" xmlns:xlink="http://www.w3.org/1999/xlink" ffdec:objectType="frame" height="9.7px" width="13.95px" xmlns="http://www.w3.org/2000/svg">
  <g transform="matrix(1.0, 0.0, 0.0, 1.0, -2.25, -0.9)">
    <use ffdec:characterId="10" height="7.55" transform="matrix(1.0, 0.0, 0.0, 0.543, 3.2, 6.0305)" width="11.85" xlink:href="#shape0"/>
    <use ffdec:characterId="3" height="8.25" transform="matrix(1.0, 0.0, 0.0, 0.5474, 3.75, 5.7058)" width="10.15" xlink:href="#sprite0"/>
    <use ffdec:characterId="14" height="5.2" transform="matrix(1.0, 0.0, 0.0, 1.0, 2.25, 5.2)" width="13.95" xlink:href="#shape2"/>
  </g>
  <defs>
    <g id="shape0" transform="matrix(1.0, 0.0, 0.0, 1.0, -3.2, -2.45)">
      <path d="M14.45 6.3 L12.2 5.55 3.35 4.95 3.2 3.25 Q3.4 3.0 3.9 2.85 L4.55 2.7 9.2 2.8 13.45 3.75 13.85 3.95 15.05 4.6 14.95 5.0 14.45 6.3" fill="#c9c9c9" fill-rule="evenodd" stroke="none"/>
      <path d="M3.35 4.95 L12.2 5.55 14.45 6.3 14.2 6.9 Q12.95 9.75 10.9 9.95 L9.7 10.0 7.8 9.95 6.2 9.8 5.15 9.2 Q4.1 7.95 3.55 6.2 L3.45 6.05 3.35 4.95" fill="#ffffff" fill-rule="evenodd" stroke="none"/>
    </g>
    <g id="sprite0" transform="matrix(1.0, 0.0, 0.0, 1.0, 5.05, 4.1)">
      <use ffdec:characterId="2" height="8.25" transform="matrix(1.0, 0.0, 0.0, 1.0, -5.05, -4.1)" width="10.15" xlink:href="#shape1"/>
    </g>
    <g id="shape1" transform="matrix(1.0, 0.0, 0.0, 1.0, 5.05, 4.1)">
      <path d="M5.1 -2.4 Q4.85 0.55 3.45 2.35 2.0 4.15 -0.1 4.15 -2.1 4.15 -3.55 2.55 -5.0 1.0 -5.05 -1.7 L-4.85 -3.6 -3.05 -4.1 -0.95 -4.1 2.25 -3.55 5.1 -2.4" fill="url(#gradient0)" fill-rule="evenodd" stroke="none"/>
      <path d="M0.4 3.4 Q-1.2 3.4 -2.15 2.7 L-3.7 1.05 -2.3 1.05 Q-0.9 2.25 0.8 2.25 3.25 2.25 4.2 -0.2 4.1 0.85 3.05 2.15 1.95 3.4 0.4 3.4" fill="#cfc0dc" fill-rule="evenodd" stroke="none"/>
    </g>
    <linearGradient gradientTransform="matrix(1.0E-4, 0.0052, 0.005, -1.0E-4, 0.05, 0.0)" gradientUnits="userSpaceOnUse" id="gradient0" spreadMethod="pad" x1="-819.2" x2="819.2">
      <stop offset="0.0" stop-color="#32104f"/>
      <stop offset="0.8392156862745098" stop-color="#784f9c"/>
    </linearGradient>
    <g id="shape2" transform="matrix(1.0, 0.0, 0.0, 1.0, -2.25, -5.2)">
      <path d="M12.55 7.65 L11.95 7.5 11.7 7.15 Q11.7 6.95 11.95 6.85 L12.55 6.7 13.15 6.85 13.4 7.15 13.15 7.5 12.55 7.65 M4.75 9.0 L4.35 8.85 4.15 8.65 Q4.1 8.4 4.4 8.25 L4.55 8.1 5.5 7.85 6.7 7.85 Q7.55 8.0 7.65 8.3 7.85 8.75 6.6 8.9 L5.55 9.0 5.05 9.0 4.75 9.0" fill="#ffffff" fill-rule="evenodd" stroke="none"/>
      <path d="M10.4 5.2 L14.7 5.9 16.2 6.5 10.4 5.2" fill="#703b1a" fill-opacity="0.49803922" fill-rule="evenodd" stroke="none"/>
      <path d="M13.6 6.35 L14.05 6.5 15.2 6.95 16.1 7.5 15.05 7.2 13.5 6.85 12.55 6.65 9.4 6.25 Q6.35 5.9 4.55 6.2 L3.9 6.25 3.2 6.5 3.45 8.0 2.6 6.85 2.25 6.15 2.8 6.05 5.4 5.4 7.85 5.25 10.5 5.7 13.6 6.35" fill="url(#gradient1)" fill-rule="evenodd" stroke="none"/>
      <path d="M10.9 10.15 L11.55 10.15 9.8 10.35 7.9 10.4 6.35 10.4 5.45 9.95 5.15 9.75 6.2 10.05 7.8 10.15 9.7 10.15 10.9 10.15" fill="url(#gradient2)" fill-rule="evenodd" stroke="none"/>
    </g>
    <radialGradient cx="0" cy="0" gradientTransform="matrix(-0.0087, 0.0, 0.0, 0.0048, 9.15, 6.6)" gradientUnits="userSpaceOnUse" id="gradient1" r="819.2" spreadMethod="pad">
      <stop offset="0.0" stop-color="#1a0d05"/>
      <stop offset="1.0" stop-color="#23312b"/>
    </radialGradient>
    <radialGradient cx="0" cy="0" gradientTransform="matrix(-0.0048, 0.0, 0.0, 0.0026, 8.35, 10.1)" gradientUnits="userSpaceOnUse" id="gradient2" r="819.2" spreadMethod="pad">
      <stop offset="0.0" stop-color="#1a0d05"/>
      <stop offset="1.0" stop-color="#23312b"/>
    </radialGradient>
  </defs>
</svg>
