<svg xmlns="http://www.w3.org/2000/svg" xmlns:ffdec="https://www.free-decompiler.com/flash" xmlns:xlink="http://www.w3.org/1999/xlink" ffdec:objectType="frame" width="13.95" height="9.7"><g transform="translate(-2.25 -.9)"><use ffdec:characterId="10" xlink:href="#a" width="11.85" height="7.55" transform="translate(3.2 2.45)"/><use ffdec:characterId="3" xlink:href="#b" width="10.15" height="8.25" transform="translate(3.75 1.85)"/><use ffdec:characterId="11" xlink:href="#c" width="13.95" height="9.55" transform="translate(2.25 .9)"/></g><defs><g id="a" fill-rule="evenodd"><path fill="#c9c9c9" d="M11.25 3.85 9 3.1.15 2.5 0 .8Q.2.55.7.4l.65-.15L6 .35l4.25.95.4.2 1.2.65-.1.4z"/><path fill="#fff" d="M.15 2.5 9 3.1l2.25.75-.25.6Q9.75 7.3 7.7 7.5l-1.2.05-1.9-.05L3 7.35l-1.05-.6Q.9 5.5.35 3.75l-.1-.15z"/></g><g id="d" fill-rule="evenodd"><path fill="url(#e)" d="M5.1-2.4Q4.85.55 3.45 2.35 2 4.15-.1 4.15q-2 0-3.45-1.6Q-5 1-5.05-1.7l.2-1.9 1.8-.5h2.1l3.2.55z" transform="translate(5.05 4.1)"/><path fill="#cfc0dc" d="M5.45 7.5q-1.6 0-2.55-.7L1.35 5.15h1.4q1.4 1.2 3.1 1.2 2.45 0 3.4-2.45-.1 1.05-1.15 2.35Q7 7.5 5.45 7.5"/></g><g id="c" fill-rule="evenodd"><path fill="#fff" d="m11.15 3.6-.25.6-.6.25q-.35 0-.6-.25l-.25-.6q0-.35.25-.6t.6-.25l.6.25zm-6.7 1.3q.85.2.95.75.2.85-1.05 1.1l-1.05.2-.5.05h-.3l-.4-.3-.2-.4q-.05-.4.25-.75 0-.1.15-.25l.95-.4z"/><path fill="url(#f)" d="m15.2 4.1.9 1.05-1.05-.55q-.7-.4-1.55-.7l-.95-.35-3.15-.7-4.85-.15-.65.15q-.5.15-.7.4l.25 2.8q-.5-.9-.85-2.15l-.35-1.25.55-.2Q4 1.7 5.4 1.25L7.85 1l2.65.8q1.95.65 3.1 1.2l.45.25z" transform="translate(-2.25 -.9)"/><path fill="#703b1a" fill-opacity=".498" d="M8.15.05q2.3.1 4.3 1.2l1.5 1.1q-3.7-1.2-5.8-2.3"/><path fill="url(#g)" d="M10.9 9.95h.65l-1.75.35-1.9.15-1.55-.05-.9-.8-.3-.4 1.05.6 1.6.15 1.9.05z" transform="translate(-2.25 -.9)"/></g><radialGradient id="f" cx="0" cy="0" r="819.2" gradientTransform="matrix(-.0087 0 0 .0087 9.15 3.45)" gradientUnits="userSpaceOnUse" spreadMethod="pad"><stop offset="0" stop-color="#1a0d05"/><stop offset="1" stop-color="#23312b"/></radialGradient><radialGradient id="g" cx="0" cy="0" r="819.2" gradientTransform="matrix(-.0048 0 0 .0048 8.35 9.85)" gradientUnits="userSpaceOnUse" spreadMethod="pad"><stop offset="0" stop-color="#1a0d05"/><stop offset="1" stop-color="#23312b"/></radialGradient><linearGradient id="e" x1="-819.2" x2="819.2" gradientTransform="matrix(.0001 .0052 .005 -.0001 .05 0)" gradientUnits="userSpaceOnUse" spreadMethod="pad"><stop offset="0" stop-color="#32104f"/><stop offset=".839" stop-color="#784f9c"/></linearGradient><use ffdec:characterId="2" xlink:href="#d" id="b" width="10.15" height="8.25"/></defs></svg>