<?xml version="1.0" encoding="UTF-8" standalone="no"?>
<svg xmlns:ffdec="https://www.free-decompiler.com/flash" xmlns:xlink="http://www.w3.org/1999/xlink" ffdec:objectType="frame" height="13.0px" width="14.05px" xmlns="http://www.w3.org/2000/svg">
  <g transform="matrix(1.0, 0.0, 0.0, 1.0, -0.9, 0.95)">
    <use ffdec:characterId="17" height="4.55" transform="matrix(1.0, 0.0, 0.0, 1.0, 1.8, 6.4)" width="12.0" xlink:href="#shape0"/>
    <use ffdec:characterId="13" height="9.15" id="Color" transform="matrix(1.0, 0.0, 0.0, 0.7295, 4.35, 4.75)" width="9.0" xlink:href="#sprite0"/>
  </g>
  <defs>
    <g id="shape0" transform="matrix(1.0, 0.0, 0.0, 1.0, -1.8, -6.4)">
      <path d="M12.75 9.55 L11.65 10.15 10.1 10.65 6.05 10.85 2.7 9.9 Q2.4 9.8 2.2 8.55 L1.85 6.45 Q2.75 7.7 3.95 8.3 5.2 8.9 7.15 9.3 L13.75 8.9 12.75 9.55" fill="#3a2d2b" fill-rule="evenodd" stroke="none"/>
      <path d="M12.75 9.55 L13.75 8.9 7.15 9.3 Q5.2 8.9 3.95 8.3 2.75 7.7 1.85 6.45 L2.2 8.55 Q2.4 9.8 2.7 9.9 L6.05 10.85 10.1 10.65 11.65 10.15 12.75 9.55 M12.8 7.5 Q10.75 8.45 8.5 8.25" fill="none" stroke="#3a2d2b" stroke-linecap="round" stroke-linejoin="round" stroke-width="0.15000000000000002"/>
    </g>
    <g id="sprite0" transform="matrix(1.0, 0.0, 0.0, 1.0, 0.0, 0.0)">
      <use ffdec:characterId="12" height="9.15" transform="matrix(1.0, 0.0, 0.0, 1.0, 0.0, 0.0)" width="9.0" xlink:href="#shape1"/>
    </g>
    <g id="shape1" transform="matrix(1.0, 0.0, 0.0, 1.0, 0.0, 0.0)">
      <path d="M3.55 9.05 L2.65 8.9 Q0.2 6.7 0.05 4.95 -0.2 1.55 0.7 0.0 2.65 -0.05 6.8 0.95 L8.65 1.65 9.0 3.75 8.6 6.05 Q8.05 8.1 6.9 8.8 L5.0 9.15 3.55 9.05" fill="#666666" fill-opacity="0.0" fill-rule="evenodd" stroke="none"/>
    </g>
  </defs>
</svg>
