<?xml version="1.0" encoding="UTF-8" standalone="no"?>
<svg xmlns:ffdec="https://www.free-decompiler.com/flash" xmlns:xlink="http://www.w3.org/1999/xlink" ffdec:objectType="frame" height="12.2px" width="13.95px" xmlns="http://www.w3.org/2000/svg">
  <g transform="matrix(1.0, 0.0, 0.0, 1.0, -1.35, 0.65)">
    <use ffdec:characterId="1" height="9.25" transform="matrix(1.0, 0.0, 0.0, 1.0, 3.95, 2.0)" width="10.8" xlink:href="#shape0"/>
    <use ffdec:characterId="3" height="9.85" id="Color" transform="matrix(-1.0, 0.0, 0.0, 1.0, 13.3, 1.4)" width="8.1" xlink:href="#sprite0"/>
    <use ffdec:characterId="4" height="12.2" transform="matrix(1.0, 0.0, 0.0, 1.0, 1.35, -0.65)" width="13.6" xlink:href="#shape2"/>
  </g>
  <defs>
    <g id="shape0" transform="matrix(1.0, 0.0, 0.0, 1.0, -3.95, -2.0)">
      <path d="M12.1 2.6 L13.0 2.55 Q13.95 2.9 14.45 4.45 14.95 5.8 14.55 7.45 L14.45 7.9 Q14.05 9.4 13.45 10.0 L13.15 10.25 11.5 11.05 8.4 11.25 8.3 11.25 Q6.25 11.15 5.3 10.0 L5.2 9.85 Q4.3 8.5 4.05 7.25 3.85 5.95 4.0 5.3 4.15 4.65 4.9 4.1 5.6 3.55 5.9 3.55 L6.25 3.65 6.25 4.2 Q5.95 4.7 5.95 6.0 5.95 7.15 6.25 7.85 6.85 9.15 8.3 9.45 L9.15 9.5 Q11.5 9.5 12.35 7.45 L12.4 7.3 12.7 4.85 12.1 2.6" fill="#ffffff" fill-rule="evenodd" stroke="none"/>
      <path d="M12.6 2.1 L12.8 2.4 13.0 3.3 12.25 2.0 12.6 2.1" fill="#c26a00" fill-rule="evenodd" stroke="none"/>
    </g>
    <g id="sprite0" transform="matrix(1.0, 0.0, 0.0, 1.0, 0.0, 0.0)">
      <use ffdec:characterId="2" height="9.85" transform="matrix(1.0, 0.0, 0.0, 1.0, 0.0, 0.0)" width="8.1" xlink:href="#shape1"/>
    </g>
    <g id="shape1" transform="matrix(1.0, 0.0, 0.0, 1.0, 0.0, 0.0)">
      <path d="M7.75 1.6 L7.95 1.95 8.1 5.0 8.1 5.15 8.05 5.55 7.3 7.85 Q6.1 9.9 3.15 9.85 L2.95 9.8 Q-0.45 8.1 0.1 3.25 L0.5 2.05 1.3 0.85 2.15 0.15 2.95 0.1 4.8 0.75 Q5.3 0.75 5.85 1.25 6.35 1.75 6.75 1.75 L7.0 1.8 7.05 1.7 Q7.15 1.55 7.4 1.5 L7.75 1.6" fill="#ad397e" fill-rule="evenodd" stroke="none"/>
    </g>
    <g id="shape2" transform="matrix(1.0, 0.0, 0.0, 1.0, -1.35, 0.65)">
      <path d="M12.85 4.8 Q14.25 5.8 14.3 7.3 14.35 8.85 13.05 10.0 11.65 11.15 9.7 11.25 7.75 11.35 6.35 10.25 L6.0 10.0 Q4.9 9.05 4.85 7.75 4.8 6.2 6.15 5.1 7.55 4.05 9.5 3.95 11.45 3.8 12.85 4.8" fill="url(#gradient0)" fill-rule="evenodd" stroke="none"/>
      <path d="M9.3 3.25 Q10.45 3.25 11.3 4.25 12.1 5.2 12.1 6.55 12.1 7.95 11.3 8.9 10.45 9.85 9.3 9.85 8.1 9.85 7.3 8.9 6.45 7.95 6.45 6.55 6.45 5.2 7.3 4.25 8.1 3.25 9.3 3.25" fill="url(#gradient1)" fill-rule="evenodd" stroke="none"/>
      <path d="M7.9 6.7 Q7.9 6.05 8.35 5.65 8.75 5.25 9.3 5.25 9.85 5.25 10.2 5.65 10.5 6.05 10.45 6.65 10.4 7.25 10.05 7.65 9.75 8.05 9.15 8.05 8.6 8.05 8.3 7.65 7.95 7.3 7.9 6.7" fill="#000000" fill-opacity="0.08627451" fill-rule="evenodd" stroke="none"/>
      <path d="M14.7 6.5 Q9.7 3.9 4.15 8.0 L3.9 5.95 Q4.9 2.6 9.3 1.7 L9.65 1.4 Q13.35 0.7 14.65 4.8 L14.7 6.5" fill="#000000" fill-opacity="0.21176471" fill-rule="evenodd" stroke="none"/>
      <path d="M12.9 10.65 L11.55 11.3 10.65 11.45 9.3 11.55 8.05 11.45 7.45 11.35 7.2 11.3 6.65 11.1 5.75 10.7 5.15 10.35 5.1 10.25 6.75 10.9 8.45 11.1 8.9 11.1 9.65 11.1 10.75 11.0 11.35 10.85 13.35 10.35 12.95 10.6 12.85 10.65 12.9 10.65 M13.0 1.2 L14.2 2.05 Q14.8 2.55 14.85 3.25 L14.95 4.05 14.8 4.0 14.2 3.45 14.8 4.85 14.85 5.4 13.5 3.9 Q12.15 2.4 10.8 2.4 7.4 2.4 5.1 5.05 L4.6 5.8 4.6 5.85 4.25 6.6 4.25 7.0 4.45 8.35 4.55 8.8 Q4.3 8.8 3.4 7.0 L3.2 7.1 2.5 7.15 1.6 6.75 Q2.75 6.6 3.05 6.25 L3.0 6.15 2.3 5.95 2.2 5.9 1.9 5.7 1.35 5.2 1.85 5.35 2.0 5.35 3.15 5.2 3.25 5.1 3.4 4.95 2.4 4.7 1.6 4.3 2.6 4.4 3.95 4.15 4.3 4.0 4.35 3.95 3.1 3.1 3.95 3.15 4.5 3.2 4.85 3.15 4.9 3.15 5.2 3.1 6.55 2.2 6.4 2.25 8.2 1.4 Q9.8 0.8 11.45 0.8 12.35 0.8 13.0 1.2" fill="#513624" fill-rule="evenodd" stroke="none"/>
      <path d="M11.0 -0.65 L11.95 -0.55 11.9 -0.65 12.2 -0.55 13.25 0.1 Q13.9 0.55 14.4 1.1 L13.95 0.85 13.05 0.4 Q12.4 0.05 11.45 0.0 L10.35 0.05 Q8.75 0.2 7.25 0.95 L6.35 1.4 6.25 1.45 6.3 1.35 Q6.9 0.65 8.05 0.1 L9.7 -0.55 11.0 -0.65" fill="#000000" fill-opacity="0.29803923" fill-rule="evenodd" stroke="none"/>
      <path d="M12.05 7.6 Q12.05 7.25 12.45 7.3 12.8 7.35 12.8 7.7 L12.5 8.0 12.15 7.9 12.05 7.6 M10.7 8.4 Q11.5 7.65 12.15 8.5 12.75 9.3 12.3 9.7 L11.8 10.0 11.45 10.05 11.2 10.0 10.85 9.75 Q10.35 9.2 10.5 8.75 L10.7 8.4 M6.9 5.55 Q6.9 5.15 7.4 5.1 7.85 5.05 7.85 5.6 7.85 6.0 7.45 6.0 6.9 6.0 6.9 5.55 M6.0 9.0 Q5.9 8.6 6.95 8.45 7.75 8.45 7.75 8.9 L7.4 9.5 7.2 9.7 6.95 9.85 6.7 9.85 6.2 9.55 6.0 9.0 M8.2 9.85 L8.15 9.65 8.4 9.45 8.65 9.7 8.4 9.9 8.2 9.85 M9.6 9.85 Q9.3 9.85 9.3 9.5 9.25 9.1 9.65 9.15 10.05 9.2 10.05 9.5 L9.95 9.8 9.6 9.85" fill="#ffffff" fill-rule="evenodd" stroke="none"/>
    </g>
    <linearGradient gradientTransform="matrix(-1.0E-4, -0.0045, -0.0058, 2.0E-4, 9.6, 7.6)" gradientUnits="userSpaceOnUse" id="gradient0" spreadMethod="pad" x1="-819.2" x2="819.2">
      <stop offset="0.09019607843137255" stop-color="#ffffff" stop-opacity="0.67058825"/>
      <stop offset="0.6352941176470588" stop-color="#ffffff" stop-opacity="0.0"/>
    </linearGradient>
    <radialGradient cx="0" cy="0" gradientTransform="matrix(-0.004, 0.0, 0.0, 0.004, 9.25, 6.55)" gradientUnits="userSpaceOnUse" id="gradient1" r="819.2" spreadMethod="pad">
      <stop offset="0.16862745098039217" stop-color="#000000" stop-opacity="0.32941177"/>
      <stop offset="0.8470588235294118" stop-color="#000000" stop-opacity="0.0"/>
    </radialGradient>
  </defs>
</svg>
