<svg xmlns="http://www.w3.org/2000/svg" xmlns:ffdec="https://www.free-decompiler.com/flash" xmlns:xlink="http://www.w3.org/1999/xlink" ffdec:objectType="frame" width="13.95" height="12.2"><use ffdec:characterId="6" xlink:href="#a" width="13.1" height="3.3" transform="translate(.85 6.95)"/><defs><g id="a" fill-rule="evenodd"><path fill="#5d2900" fill-opacity=".298" d="m8.5 1.5-.25.05H5.9l-2.55-.5L2.15.6l5.4.55 4.35-.3h.25V.9z"/><path fill="#513624" d="m11.15 2.05.9-.45-1.05.5zl-1.4.6-3.35.65-2.75-.35h-.8l.55-.1-.55.05H2.7l-.5-.1-.45-.25h.3l.65-.1-.25-.15-.5.05-.6-.1L.9 2l1-.05-.25-.2H1.4L0 1.5l1.2-.15L0 0l.95.8.45.2q1.8.8 4.2 1.05l7.5-.85z"/></g></defs></svg>