<?xml version="1.0" encoding="UTF-8" standalone="no"?>
<svg xmlns:ffdec="https://www.free-decompiler.com/flash" xmlns:xlink="http://www.w3.org/1999/xlink" ffdec:objectType="frame" height="11.35px" width="12.75px" xmlns="http://www.w3.org/2000/svg">
  <g transform="matrix(1.0, 0.0, 0.0, 1.0, 2.7, -0.9)">
    <use ffdec:characterId="1" height="9.5" transform="matrix(1.0, 0.0, 0.0, 1.0, -2.6, 2.6)" width="11.6" xlink:href="#shape0"/>
    <use ffdec:characterId="3" height="9.45" id="Color" transform="matrix(1.0, 0.0, 0.0, 1.0, -1.45, 2.6)" width="9.3" xlink:href="#sprite0"/>
    <use ffdec:characterId="9" height="11.35" transform="matrix(1.0, 0.0, 0.0, 1.0, -2.7, 0.9)" width="12.75" xlink:href="#shape2"/>
  </g>
  <defs>
    <g id="shape0" transform="matrix(1.0, 0.0, 0.0, 1.0, 2.6, -2.6)">
      <path d="M8.75 8.25 L8.25 9.8 Q7.8 10.8 6.8 11.25 L4.3 12.1 2.4 12.1 Q-0.35 11.7 -1.5 9.8 -2.7 7.9 -2.6 6.25 -2.55 4.55 -1.65 3.95 0.4 2.6 3.05 2.6 6.2 2.6 7.9 4.4 9.15 5.7 9.0 6.7 L8.75 8.25" fill="url(#gradient0)" fill-rule="evenodd" stroke="none"/>
    </g>
    <linearGradient gradientTransform="matrix(-2.0E-4, 0.0023, -0.0058, -4.0E-4, 3.3, 7.0)" gradientUnits="userSpaceOnUse" id="gradient0" spreadMethod="pad" x1="-819.2" x2="819.2">
      <stop offset="0.0" stop-color="#9a9a9a"/>
      <stop offset="0.4392156862745098" stop-color="#ffffff"/>
    </linearGradient>
    <g id="sprite0" transform="matrix(1.0, 0.0, 0.0, 1.0, 0.0, 0.0)">
      <use ffdec:characterId="2" height="9.45" transform="matrix(1.0, 0.0, 0.0, 1.0, 0.0, 0.0)" width="9.3" xlink:href="#shape1"/>
    </g>
    <g id="shape1" transform="matrix(1.0, 0.0, 0.0, 1.0, 0.0, 0.0)">
      <path d="M9.3 4.75 Q9.3 5.95 8.55 7.4 7.95 8.5 6.9 9.3 L6.1 9.45 3.05 9.4 2.35 9.1 1.3 8.1 0.55 7.0 Q0.0 5.8 0.0 4.4 0.0 2.8 0.75 1.75 1.95 0.0 4.8 0.0 7.45 0.0 8.6 1.85 9.3 3.05 9.3 4.75" fill="url(#gradient1)" fill-rule="evenodd" stroke="none"/>
    </g>
    <linearGradient gradientTransform="matrix(0.0, 0.0046, -0.0058, 0.0, 4.7, 4.75)" gradientUnits="userSpaceOnUse" id="gradient1" spreadMethod="pad" x1="-819.2" x2="819.2">
      <stop offset="0.0" stop-color="#1c0020"/>
      <stop offset="0.6392156862745098" stop-color="#b955cb"/>
      <stop offset="1.0" stop-color="#ffa3a3"/>
    </linearGradient>
    <g id="shape2" transform="matrix(1.0, 0.0, 0.0, 1.0, 2.7, -0.9)">
      <path d="M5.3 9.5 Q4.55 10.3 3.45 10.3 2.35 10.3 1.55 9.5 0.8 8.75 0.8 7.65 0.8 6.55 1.55 5.75 2.35 5.0 3.45 5.0 4.55 5.0 5.3 5.75 6.1 6.55 6.1 7.65 6.1 8.75 5.3 9.5" fill="url(#gradient2)" fill-rule="evenodd" stroke="none"/>
      <path d="M6.75 5.0 L7.25 5.25 7.4 5.7 7.25 6.1 6.7 6.25 6.2 5.9 6.1 5.55 Q6.1 5.0 6.7 5.0 L6.75 5.0 M-0.45 9.2 L-0.55 9.5 -1.05 9.55 -1.2 9.3 Q-1.2 8.85 -0.8 8.85 -0.45 8.85 -0.45 9.2 M-0.05 10.0 Q-0.05 10.3 -0.4 10.3 L-0.65 10.0 Q-0.65 9.7 -0.3 9.7 -0.05 9.7 -0.05 10.0" fill="#ffffff" fill-rule="evenodd" stroke="none"/>
      <path d="M3.65 9.85 Q4.45 9.8 5.1 9.35 L5.75 8.75 6.35 8.0 Q7.0 7.65 6.8 8.8 L6.65 9.35 Q6.3 10.1 5.55 10.6 4.5 11.3 3.45 11.2 L1.6 10.75 0.4 9.7 Q-0.05 9.05 0.0 8.65 0.0 8.25 0.45 8.4 0.85 8.55 1.65 9.25 2.4 9.9 3.65 9.85" fill="#ffffff" fill-opacity="0.29803923" fill-rule="evenodd" stroke="none"/>
      <path d="M9.9 5.45 Q9.5 4.3 8.45 3.4 L7.0 2.3 6.0 1.8 3.85 1.35 1.85 1.3 1.35 1.35 Q-1.0 1.8 -2.55 3.15 -2.55 2.8 -1.6 2.2 L-0.2 1.45 1.35 1.05 2.3 0.9 Q5.75 0.75 7.5 2.05 9.2 3.35 9.8 5.0 L9.9 5.45" fill="#bf3400" fill-opacity="0.4" fill-rule="evenodd" stroke="none"/>
      <path d="M9.65 2.9 L9.3 3.3 8.6 3.55 8.9 4.05 9.9 4.1 9.05 4.6 9.15 4.95 9.6 5.3 10.05 5.3 9.6 5.45 9.25 5.55 9.25 6.25 8.95 7.7 8.8 7.0 Q8.65 5.8 7.65 4.75 6.1 3.15 3.25 3.15 1.35 3.15 -0.8 4.0 -2.1 4.45 -2.7 5.05 L-1.95 4.0 -0.9 3.0 -0.05 2.45 Q1.05 1.85 2.2 1.7 L4.7 1.75 Q6.95 2.05 8.1 3.0 L8.5 3.05 9.8 2.7 9.65 2.9" fill="url(#gradient3)" fill-rule="evenodd" stroke="none"/>
      <path d="M2.25 12.1 L0.1 11.55 -0.65 11.1 1.0 11.55 3.6 11.75 6.3 11.4 7.05 11.1 7.75 10.65 Q7.2 11.6 6.05 12.0 L3.3 12.2 2.25 12.1" fill="url(#gradient4)" fill-rule="evenodd" stroke="none"/>
    </g>
    <radialGradient cx="0" cy="0" gradientTransform="matrix(0.0042, 0.0, 0.0, 0.0042, 3.45, 7.65)" gradientUnits="userSpaceOnUse" id="gradient2" r="819.2" spreadMethod="pad">
      <stop offset="0.08235294117647059" stop-color="#ffffff" stop-opacity="0.32156864"/>
      <stop offset="0.6823529411764706" stop-color="#ffffff" stop-opacity="0.0"/>
    </radialGradient>
    <radialGradient cx="0" cy="0" gradientTransform="matrix(0.0085, 0.0, 0.0, 0.0085, 3.3, 4.65)" gradientUnits="userSpaceOnUse" id="gradient3" r="819.2" spreadMethod="pad">
      <stop offset="0.3607843137254902" stop-color="#000000"/>
      <stop offset="0.6705882352941176" stop-color="#511000"/>
      <stop offset="1.0" stop-color="#743208"/>
    </radialGradient>
    <radialGradient cx="0" cy="0" gradientTransform="matrix(0.0045, 0.0, 0.0, 0.0045, 3.4, 11.8)" gradientUnits="userSpaceOnUse" id="gradient4" r="819.2" spreadMethod="pad">
      <stop offset="0.3607843137254902" stop-color="#000000"/>
      <stop offset="0.6705882352941176" stop-color="#511000"/>
      <stop offset="1.0" stop-color="#743208"/>
    </radialGradient>
  </defs>
</svg>
