<svg xmlns="http://www.w3.org/2000/svg" xmlns:ffdec="https://www.free-decompiler.com/flash" xmlns:xlink="http://www.w3.org/1999/xlink" ffdec:objectType="frame" width="14" height="11.05"><use ffdec:characterId="9" xlink:href="#a" width="13.25" height="2.4" transform="translate(.3 6.95)"/><defs><g id="a"><path fill="#2e1200" fill-rule="evenodd" d="m10.65 1.9-2 .45L4 2.2h-.9l.6-.1-.6.05h-.15l-.55-.1-.5-.2h.35l.7-.1-.3-.15-.55.05-.65-.1L1 1.3l1.05-.05-.25-.15h-.3L0 .85 1.3.7.6 0l.45.2L2.9.7l2.2.4q2.4.45 8.05-.2l.1-.05-.1.1L12 1.4z"/><path fill="none" stroke="#2e1200" stroke-linecap="round" stroke-linejoin="round" stroke-width=".2" d="M13 .15Q5.95 1.2 3.75.2"/></g></defs></svg>