<svg xmlns="http://www.w3.org/2000/svg" xmlns:ffdec="https://www.free-decompiler.com/flash" xmlns:xlink="http://www.w3.org/1999/xlink" ffdec:objectType="frame" width="14" height="11.05"><g transform="translate(-2.2 .1)"><use ffdec:characterId="10" xlink:href="#a" width="14" height="8.25" transform="translate(2.2 2.7)"/><clipPath id="b" transform="matrix(1 0 0 .7442 0 2.8)"><path fill="#85003a" fill-rule="evenodd" d="M7.65 3.55q.9-.85 2.15-.8 1.2.05 2 .75.7.65.95 2 .3 1.25-.7 2.5-.9 1.2-2.3 1.2T7.5 8.25t-.8-2.4q.05-1.4.95-2.3"/></clipPath><g clip-path="url(#b)"><use ffdec:characterId="11" xlink:href="#c" width="7.45" height="6.3" transform="translate(6 4.2)"/></g><use ffdec:characterId="6" xlink:href="#d" width="4.55" height="3.6" transform="matrix(1 0 0 .75 9.35 6.237)"/></g><defs><g id="a"><path fill="#fff" fill-rule="evenodd" d="M12.45 2.95q.5 1.55.15 2.7-.4 1.05-1.5 1.8t-4.85.7q-2.05-.8-2.8-1.35l-1.1-1.1L.4 3.25v-.3l.15-.3q1.1-1.1 2.95-1.25l4.05-.25 1.9.2q2.15.5 3 1.6"/><path fill-opacity=".2" fill-rule="evenodd" d="m9.4 1.9.45-.05 1 .3.75.4.35.1q.25 0 .4.15l.15.3.1.2.15.9v.2l-.9-.35-.95-.15-.3.05Q9.2 3.4 8.5 3.3l-3 .05q-1.65.3-3 .95l.35 1q.6 1.15 1.9 2.25v.05l-1-.3-1-.75-.45-.5V6l-.6-1.25-.2.1q-.4 0-.4-.35l.15-.25-.2-.3-.3-.3-.2-.2L1 2.9l.05-.3q.2-.25.95-.25l1.35-.5 1.6-.3q.8-.15 2.85 0l.95.2z"/><path fill="#2e1200" fill-rule="evenodd" d="m12.55 2.05 1.35 1-1.85-.7q1.4 1.1 1.8 1.75-3-2.15-6.65-2.4L4.25 2l-1.9.45-.25.1h-.05q-.6.15-.6.8l.05.3v.1l.25.65.25.55.75 1.35.75.7h-.05l-1.1-.65-.8-.8L.3 3.1H.2l.1-.05-.15-.25h-.1v-.15L0 2.4l.1-.15.15-.05.25-.15.3-.1.05-.05.6-.15 1.05-.3Q5.45.6 7.25.75l3.1.45q1.3.35 2.2.85m-3.9 5.9.75-.05.75-.1.05-.05h.3l.25-.05-.2.2-.5.15-.8.15-1.8.05H7.4l-1.75-.2-.25-.15h2.2l.65.05z"/><path fill="none" stroke="#2e1200" stroke-linecap="round" stroke-linejoin="round" stroke-width=".2" d="M5.2.1q4.2-.2 7.45 1.65l1.25.75"/><path fill="#2e1200" fill-rule="evenodd" d="M10.05 2.25q.9.6 1.2 1.85.35 1.15-.8 2.3-1.15 1.1-2.9 1.1t-2.8-.9q-1.05-.85-1-2.2.1-1.3 1.2-2.05 1.1-.85 2.65-.75 1.55.05 2.45.65"/><path fill="#900" fill-rule="evenodd" d="M5.4 2.75q.9-.65 2.15-.6t2 .55q.7.5.95 1.45.3.95-.65 1.9-.9.9-2.35.9-1.4 0-2.25-.7t-.8-1.8.95-1.7"/></g><g id="c" fill-rule="evenodd"><path fill="url(#e)" d="M13.4 7.7q-.25 1.4-1.45 2.15-1.25.8-2.9.6h-.3Q7.15 10.2 6.5 9.4q-.7-.9-.4-2.15t.95-2.1q.75-.85 2.4-.95 1.6-.15 2.9 1 1.3 1 1.05 2.5" transform="translate(-6 -4.2)"/><path fill-opacity=".298" d="m4.6 1.6-.3.15-.05-.05-.1-.15.3-.3h.15zm1.55 1.2-.25.25-.6.15h-.15l.05-.3.85-.2zm-3.3-1.45.05-.1.25.1.2.25-.05.1zm-1.35.3.05-.1h.05l.65.15.05.2-.4.15zm3.7.55L5 2.1l.2-.2.55.15zm-.3.9v.1l-.4.65-.9.35q-.55 0-.9-.35l-.4-.75q0-.4.4-.75.35-.35.9-.35.5 0 .9.35t.4.75m1.35-.05v.05l-.1.05zM1.9 2.6l-.05.15-.3.05-.4-.1L1 2.65V2.6l-.1-.1.05-.1.1-.1.6.1zm0 .7v.15l-.35.1-.35-.1.2-.2z"/><path fill="#fff" fill-opacity=".298" d="m5.75 4.85-.05.5q-.6.6-2.9.6-1.6 0-1.45-1.2.25-1.25 2.1-1.3 1.9-.1 2.3 1.4"/></g><g id="d" fill="#fff" fill-rule="evenodd"><path d="m2.65.75-.3-.2-.05-.2q0-.35.35-.35T3 .35q0 .4-.35.4m-2.1 1.6q.55.1.6.6 0 .55-.6.55-.65 0-.55-.55 0-.7.55-.6"/><path fill-opacity=".671" d="M4.55 3q0 .6-.95.6-1.95 0-2-1.2 0-1.3 1.45-.7 1.5.5 1.5 1.3"/></g><linearGradient id="e" x1="-819.2" x2="819.2" gradientTransform="matrix(-.0006 .0038 .0047 .0004 9.5 7.3)" gradientUnits="userSpaceOnUse" spreadMethod="pad"><stop offset="0" stop-opacity=".631"/><stop offset="1" stop-color="#fff" stop-opacity="0"/></linearGradient></defs></svg>