<?xml version="1.0" encoding="UTF-8" standalone="no"?>
<svg xmlns:ffdec="https://www.free-decompiler.com/flash" xmlns:xlink="http://www.w3.org/1999/xlink" ffdec:objectType="frame" height="13.0px" width="14.5px" xmlns="http://www.w3.org/2000/svg">
  <g transform="matrix(1.0, 0.0, 0.0, 1.0, 2.2, 0.95)">
    <use ffdec:characterId="5" height="9.4" transform="matrix(1.0, 0.0, 0.0, 1.0, -1.75, 2.6)" width="14.05" xlink:href="#shape0"/>
    <use ffdec:characterId="3" height="9.15" id="Color" transform="matrix(1.0, 0.0, 0.0, 0.7269, -0.15, 4.7)" width="9.0" xlink:href="#sprite0"/>
    <use ffdec:characterId="6" height="6.75" transform="matrix(1.0, 0.0, 0.0, 1.0, -0.85, 4.6)" width="12.0" xlink:href="#shape2"/>
  </g>
  <defs>
    <g id="shape0" transform="matrix(1.0, 0.0, 0.0, 1.0, 1.75, -2.6)">
      <path d="M-0.85 6.45 L-1.75 6.9 -0.65 5.25 Q3.1 4.0 7.2 3.65 L12.25 3.9 12.3 3.9 12.1 4.6 11.6 7.05 10.5 9.2 10.75 8.55 10.95 7.85 Q11.45 5.85 10.35 5.05 L9.5 4.8 8.15 4.7 2.05 5.4 0.2 5.9 -0.85 6.45 M1.3 11.4 L4.2 11.55 7.4 11.5 5.85 11.9 2.9 11.95 1.85 11.7 1.3 11.4" fill="#3a2d2b" fill-rule="evenodd" stroke="none"/>
      <path d="M10.75 8.55 Q9.75 10.0 7.35 10.9 L6.2 11.2 Q8.65 9.6 8.8 8.3 9.05 5.85 8.15 4.7 L9.5 4.8 10.35 5.05 Q11.45 5.85 10.95 7.85 L10.75 8.55 M0.2 5.9 Q-0.15 6.7 -0.15 7.45 L0.25 9.1 Q0.8 10.6 1.95 11.1 L1.9 11.1 0.7 10.85 0.45 10.7 0.5 10.85 0.5 10.8 Q-0.9 9.05 -0.85 6.45 L0.2 5.9" fill="#ffffff" fill-rule="evenodd" stroke="none"/>
      <path d="M0.5 4.3 L2.95 3.3 Q4.65 2.6 6.0 2.65" fill="none" stroke="#3a2d2b" stroke-linecap="round" stroke-linejoin="round" stroke-width="0.15000000000000002"/>
    </g>
    <g id="sprite0" transform="matrix(1.0, 0.0, 0.0, 1.0, 0.0, 0.0)">
      <use ffdec:characterId="2" height="9.15" transform="matrix(1.0, 0.0, 0.0, 1.0, 0.0, 0.0)" width="9.0" xlink:href="#shape1"/>
    </g>
    <g id="shape1" transform="matrix(1.0, 0.0, 0.0, 1.0, 0.0, 0.0)">
      <path d="M8.95 4.95 Q8.8 6.7 6.35 8.9 L5.45 9.05 4.0 9.15 2.1 8.8 Q0.95 8.1 0.4 6.05 L0.0 3.75 Q0.0 2.7 0.35 1.65 L2.2 0.95 Q6.35 -0.05 8.3 0.0 9.2 1.55 8.95 4.95" fill="#870000" fill-rule="evenodd" stroke="none"/>
    </g>
    <g id="shape2" transform="matrix(1.0, 0.0, 0.0, 1.0, 0.85, -4.6)">
      <path d="M1.8 5.4 L8.2 4.7 Q9.1 5.85 8.85 8.3 8.7 9.6 6.25 11.2 L5.35 11.3 3.9 11.35 2.0 11.1 Q0.85 10.6 0.3 9.1 L-0.1 7.45 Q-0.1 6.55 0.25 5.8 L1.8 5.4" fill="url(#gradient0)" fill-rule="evenodd" stroke="none"/>
      <path d="M0.25 5.8 L1.8 5.4 8.2 4.7 Q9.05 5.7 8.9 7.35 L7.65 7.05 5.45 6.7 5.65 8.0 Q5.65 8.65 5.2 9.1 4.75 9.6 4.1 9.6 3.45 9.6 3.0 9.1 2.55 8.65 2.55 8.0 L2.75 7.25 2.95 6.8 -0.1 7.3 0.25 5.8" fill="#000000" fill-opacity="0.49803922" fill-rule="evenodd" stroke="none"/>
      <path d="M0.25 5.7 L1.8 5.3 8.2 4.6 Q8.85 5.9 8.95 7.35 L5.25 6.75 5.5 7.25 5.65 8.05 Q5.65 8.7 5.2 9.15 L4.1 9.6 Q3.45 9.6 3.0 9.15 2.55 8.7 2.55 8.05 2.55 7.45 3.0 6.95 L2.35 6.85 -0.1 7.35 Q-0.1 6.45 0.25 5.7" fill="url(#gradient1)" fill-rule="evenodd" stroke="none"/>
      <path d="M3.7 9.5 Q4.7 9.7 5.6 8.7 L5.55 9.35 Q5.2 10.0 3.9 10.0 2.85 9.65 2.85 9.1 3.15 9.4 3.7 9.5" fill="#ffffff" fill-opacity="0.4" fill-rule="evenodd" stroke="none"/>
      <path d="M2.65 5.95 L2.7 6.65 Q2.65 7.25 2.4 7.45 L1.55 7.7 Q0.55 7.9 0.6 7.7 L0.5 6.95 0.7 6.2 1.75 5.95 Q2.65 5.8 2.65 5.95" fill="#ffffff" fill-rule="evenodd" stroke="none"/>
      <path d="M5.75 8.95 L5.85 8.85 6.25 8.8 6.85 8.95 7.3 9.4 7.65 9.85 7.05 9.85 6.75 9.8 6.15 9.35 5.75 8.95" fill="#ffffff" fill-opacity="0.69411767" fill-rule="evenodd" stroke="none"/>
      <path d="M11.1 7.2 Q10.0 6.7 9.1 6.5 4.1 5.1 -0.1 6.6 L-0.85 6.9 -0.8 6.4 0.4 5.85 Q1.7 5.35 1.95 5.35 L8.2 4.65 9.55 4.7 Q10.15 4.75 10.4 4.95 11.3 5.6 11.1 7.2" fill="#000000" fill-opacity="0.29803923" fill-rule="evenodd" stroke="none"/>
    </g>
    <radialGradient cx="0" cy="0" gradientTransform="matrix(-0.0073, 0.0, 0.0, 0.0053, 4.4, 8.05)" gradientUnits="userSpaceOnUse" id="gradient0" r="819.2" spreadMethod="pad">
      <stop offset="0.0" stop-color="#000000" stop-opacity="0.0"/>
      <stop offset="0.7137254901960784" stop-color="#000000" stop-opacity="0.2"/>
    </radialGradient>
    <linearGradient gradientTransform="matrix(0.0, -0.0031, -0.0056, 0.0, 4.55, 7.1)" gradientUnits="userSpaceOnUse" id="gradient1" spreadMethod="pad" x1="-819.2" x2="819.2">
      <stop offset="0.5529411764705883" stop-color="#000000" stop-opacity="0.0"/>
      <stop offset="1.0" stop-color="#000000" stop-opacity="0.49803922"/>
    </linearGradient>
  </defs>
</svg>
