<?xml version="1.0" encoding="UTF-8" standalone="no"?>
<svg xmlns:ffdec="https://www.free-decompiler.com/flash" xmlns:xlink="http://www.w3.org/1999/xlink" ffdec:objectType="frame" height="13.0px" width="14.5px" xmlns="http://www.w3.org/2000/svg">
  <g transform="matrix(1.0, 0.0, 0.0, 1.0, 2.2, 0.95)">
    <use ffdec:characterId="8" height="13.0" transform="matrix(1.0, 0.0, 0.0, 1.0, -1.75, -0.95)" width="14.05" xlink:href="#shape0"/>
    <use ffdec:characterId="3" height="9.15" id="Color" transform="matrix(1.0, 0.0, 0.0, 1.0, -0.15, 1.95)" width="9.0" xlink:href="#sprite0"/>
    <use ffdec:characterId="4" height="9.3" transform="matrix(1.0, 0.0, 0.0, 1.0, -0.85, 1.8)" width="12.0" xlink:href="#shape2"/>
  </g>
  <defs>
    <g id="shape0" transform="matrix(1.0, 0.0, 0.0, 1.0, 1.75, 0.95)">
      <path d="M-0.85 4.35 L-1.75 4.95 -0.65 2.7 Q3.1 0.95 7.2 0.5 L12.25 0.8 12.3 0.8 12.1 1.8 11.6 5.2 10.5 8.1 10.75 7.25 10.95 6.3 Q11.45 3.5 10.35 2.4 10.1 2.1 9.5 2.05 L8.15 1.95 Q6.2 1.9 2.05 2.9 L0.2 3.6 -0.85 4.35 M1.3 11.15 L4.2 11.35 7.4 11.3 5.85 11.85 2.9 11.95 1.85 11.55 1.3 11.15" fill="#3a2d2b" fill-rule="evenodd" stroke="none"/>
      <path d="M10.75 7.25 Q9.75 9.2 7.35 10.45 L6.2 10.85 Q8.65 8.65 8.8 6.9 9.05 3.5 8.15 1.95 L9.5 2.05 Q10.1 2.1 10.35 2.4 11.45 3.5 10.95 6.3 L10.75 7.25 M0.2 3.6 L-0.15 5.7 0.25 8.0 Q0.8 10.05 1.95 10.75 L1.9 10.75 0.7 10.4 0.45 10.2 0.5 10.4 0.5 10.35 Q-0.9 7.95 -0.85 4.35 L0.2 3.6" fill="#ffffff" fill-rule="evenodd" stroke="none"/>
      <path d="M0.5 1.4 L2.95 0.0 Q4.65 -0.95 6.0 -0.9" fill="none" stroke="#3a2d2b" stroke-linecap="round" stroke-linejoin="round" stroke-width="0.15000000000000002"/>
    </g>
    <g id="sprite0" transform="matrix(1.0, 0.0, 0.0, 1.0, 0.0, 0.0)">
      <use ffdec:characterId="2" height="9.15" transform="matrix(1.0, 0.0, 0.0, 1.0, 0.0, 0.0)" width="9.0" xlink:href="#shape1"/>
    </g>
    <g id="shape1" transform="matrix(1.0, 0.0, 0.0, 1.0, 0.0, 0.0)">
      <path d="M8.95 4.95 Q8.8 6.7 6.35 8.9 L5.45 9.05 4.0 9.15 2.1 8.8 Q0.95 8.1 0.4 6.05 L0.0 3.75 Q0.0 2.7 0.35 1.65 L2.2 0.95 Q6.35 -0.05 8.3 0.0 9.2 1.55 8.95 4.95" fill="#870000" fill-rule="evenodd" stroke="none"/>
    </g>
    <g id="shape2" transform="matrix(1.0, 0.0, 0.0, 1.0, 0.85, -1.8)">
      <path d="M0.25 3.45 L1.8 2.9 Q6.0 1.9 8.2 1.95 9.1 3.5 8.85 6.9 8.7 8.65 6.25 10.85 L5.35 11.0 3.9 11.1 2.0 10.75 Q0.85 10.05 0.3 8.0 L-0.1 5.7 Q-0.1 4.5 0.25 3.45" fill="url(#gradient0)" fill-rule="evenodd" stroke="none"/>
      <path d="M8.2 1.95 Q9.05 3.3 8.9 5.55 L7.65 5.2 5.45 4.7 5.65 6.5 Q5.65 7.4 5.2 8.0 4.75 8.65 4.1 8.65 3.45 8.65 3.0 8.0 2.55 7.4 2.55 6.5 L2.75 5.45 2.95 4.85 Q1.5 5.0 -0.1 5.5 L0.25 3.45 1.8 2.9 Q6.0 1.9 8.2 1.95" fill="#000000" fill-opacity="0.49803922" fill-rule="evenodd" stroke="none"/>
      <path d="M8.95 5.55 L5.25 4.75 5.5 5.45 5.65 6.55 Q5.65 7.45 5.2 8.05 4.75 8.7 4.1 8.7 3.45 8.7 3.0 8.05 2.55 7.45 2.55 6.55 2.55 5.7 3.0 5.0 L2.35 4.9 -0.1 5.55 Q-0.1 4.35 0.25 3.3 L1.8 2.75 Q6.0 1.75 8.2 1.8 8.85 3.55 8.95 5.55" fill="url(#gradient1)" fill-rule="evenodd" stroke="none"/>
      <path d="M3.75 8.55 Q4.75 8.9 5.65 7.3 L5.6 8.35 Q5.25 9.35 3.95 9.4 2.9 8.8 2.9 7.9 L3.75 8.55" fill="#ffffff" fill-opacity="0.4" fill-rule="evenodd" stroke="none"/>
      <path d="M1.55 6.05 Q0.55 6.35 0.6 6.05 L0.5 5.05 0.7 4.0 Q0.8 3.85 1.75 3.65 2.65 3.45 2.65 3.65 L2.7 4.6 2.4 5.75 1.55 6.05" fill="#ffffff" fill-rule="evenodd" stroke="none"/>
      <path d="M5.75 7.85 L5.85 7.75 6.25 7.7 Q6.45 7.6 6.85 7.85 L7.3 8.5 7.65 9.1 7.05 9.1 6.75 9.05 6.15 8.4 5.75 7.85" fill="#ffffff" fill-opacity="0.69411767" fill-rule="evenodd" stroke="none"/>
      <path d="M10.4 2.3 Q11.3 3.2 11.1 5.35 10.0 4.7 9.1 4.4 4.1 2.5 -0.1 4.55 L-0.85 4.95 -0.8 4.3 0.4 3.5 Q1.7 2.85 1.95 2.8 6.1 1.8 8.2 1.85 L9.55 1.95 Q10.15 2.0 10.4 2.3" fill="#000000" fill-opacity="0.29803923" fill-rule="evenodd" stroke="none"/>
    </g>
    <radialGradient cx="0" cy="0" gradientTransform="matrix(-0.0073, 0.0, 0.0, 0.0073, 4.4, 6.55)" gradientUnits="userSpaceOnUse" id="gradient0" r="819.2" spreadMethod="pad">
      <stop offset="0.0" stop-color="#000000" stop-opacity="0.0"/>
      <stop offset="0.7137254901960784" stop-color="#000000" stop-opacity="0.2"/>
    </radialGradient>
    <linearGradient gradientTransform="matrix(0.0, -0.0042, -0.0056, 0.0, 4.55, 5.25)" gradientUnits="userSpaceOnUse" id="gradient1" spreadMethod="pad" x1="-819.2" x2="819.2">
      <stop offset="0.5529411764705883" stop-color="#000000" stop-opacity="0.0"/>
      <stop offset="1.0" stop-color="#000000" stop-opacity="0.49803922"/>
    </linearGradient>
  </defs>
</svg>
